<svg xmlns="http://www.w3.org/2000/svg" viewBox="0 0 283.46 283.46"><defs><style>.cls-1{fill:#85248f;}.cls-2{fill:#fff;}</style></defs><g id="Layer_2" data-name="Layer 2"><g id="Picons"><g id="crodvojka"><rect class="cls-1" width="283.46" height="283.46"/><g id="logo"><path class="cls-2" d="M206.82,197.41c0-1.83.09-4.44-.61-6.14-1.65-3.92-5.87-4.53-9.62-4.53-5.09,0-9.32,2.18-9.62,7.8h5.92c-.09-2.22,2.18-2.83,4-2.83,1.35,0,3.44.35,3.44,2.09s-2.35,1.69-3.48,1.87c-4.88.7-11.1,1.26-11.1,7.66,0,4.57,3.48,7.27,7.83,7.27,3.23,0,4.62-1,7.1-2.7l0,2h6.15V197.41Zm-6.35,5.23a6,6,0,0,1-5.27,2.91c-1.48,0-3-.69-3-2.39,0-2.92,4.66-3,6.71-3.49a11.09,11.09,0,0,0,1.57-.52v3.49ZM87.14,179.34c3.64,0,7.24.31,10.28,2.56,4,3,5.55,8,5.55,12.79,0,5.81-2.52,11.8-8.15,14.14A20.55,20.55,0,0,1,86.88,210H77V179.34Zm-3.25,24.94h2c4.77,0,9.71-.22,9.71-9.89,0-2.91-.69-6.85-3.55-8.37-1.78-1-4.34-1-6.34-1H83.89v19.21ZM118.32,210h-6.11l-7.77-22.47h6.81l4.12,13.92,3.73-13.92h6.77L118.32,210Zm19.25.65c-7,0-11.4-4.86-11.4-11.75,0-7.29,4.73-12,12-12,6.9,0,11.23,5.08,11.23,11.8,0,6.94-4.85,12-11.84,12Zm.31-18.65c-3.86,0-5.16,3.3-5.16,6.63s1.21,6.81,5.07,6.81,5.07-3.68,5.07-7-1.21-6.42-5-6.42ZM152.79,185v-5.68h6.34V185Zm6.34,2.47v23.16c0,5.2-2.91,6.46-7.55,6.46H149v-5.38h.22c1.82,0,3.59,0,3.59-2.38V187.49Zm26,0-8.67,8.5,9.28,14H177.6L172,200.42l-2.08,2.08V210h-6.37V179.34h6.37v15.83l6.94-7.68Z"/><path class="cls-2" d="M119.21,42.52H77v21h85.07c-6.15-14.33-22.33-21-42.9-21Zm40,53.82H77V75.45h87.7c0,.81.06,1.64,0,2.49-.07,7.77-1.93,13.76-5.56,18.4ZM77,108.3v20.86h76.61L140.82,108.3Zm0,32.82h84l12.92,21H77v-21Z"/><path class="cls-2" d="M133.67,227h-3.21l-1.76,7.18L126.76,227h-3.29l3.08,8.64a4.74,4.74,0,0,1,.44,1.52,1.58,1.58,0,0,1-.45,1.09,2.45,2.45,0,0,1-1.28.27l-.8,0v2.38c.26,0,.53,0,.8,0,1.32,0,3,.09,3.89-1.05a9,9,0,0,0,1-2.3L133.67,227Zm-1.27-4.49h-3.63l-1.47,3.07h2.35l2.75-3.07Zm26.72,15.15v-2.26l5.26-5.88h-4.67V227h8.44v2.45L163,235.17h5.46v2.51Zm17.42,0v-6a2.57,2.57,0,0,0-.51-2,1.6,1.6,0,0,0-1.08-.37,1.78,1.78,0,0,0-1.17.41,3,3,0,0,0-.68,2.45v5.47h-3V223.16h3v5a3.77,3.77,0,0,1,2.9-1.34,3.84,3.84,0,0,1,2.12.6,3.78,3.78,0,0,1,1.44,3.49v6.81Zm8.14,0h-3V223.16h3v14.52Zm22.82-3.27c0-2.67-2.64-3.14-4.69-3.58-.56-.12-1.81-.26-1.81-1s.9-.87,1.48-.87a1.59,1.59,0,0,1,1.87,1.54l2.84-.14c-.13-2.61-2.33-3.62-4.67-3.62-2.16,0-4.45.86-4.45,3.37,0,4.26,6.34,2.72,6.34,4.63,0,.84-.86,1-1.52,1-1.36,0-2.08-.39-2.26-1.77l-2.88.1a4.16,4.16,0,0,0,.1,1c.53,2.2,2.8,3,4.83,3,2.33,0,4.82-.82,4.82-3.58m-11.26-2.67a8.53,8.53,0,0,0-.29-2.9c-.78-1.85-2.77-2.14-4.54-2.14-2.41,0-4.41,1-4.55,3.69h2.8c0-1,1-1.34,1.87-1.34.64,0,1.63.16,1.63,1s-1.12.8-1.65.88c-2.31.33-5.25.6-5.25,3.62A3.42,3.42,0,0,0,190,238a4.93,4.93,0,0,0,3.35-1.28l0,1h2.9v-5.93Zm-3,2.47a2.85,2.85,0,0,1-2.49,1.38c-.7,0-1.42-.33-1.42-1.13,0-1.38,2.2-1.4,3.17-1.65a5.77,5.77,0,0,0,.74-.24v1.64ZM89.71,232.82l-3.39-.23a2.92,2.92,0,0,1-3.11,2.67,3.49,3.49,0,0,1-2.24-.78,5.13,5.13,0,0,1-1.48-4.15c0-2.41,1-4.79,3.72-4.79A2.91,2.91,0,0,1,85.92,227a3,3,0,0,1,.31.76l3.27-.23a5.5,5.5,0,0,0-.24-1c-.87-2.57-3.44-3.74-6-3.74-4.55,0-7.28,3.11-7.28,7.55,0,3,1.44,6,4.38,7.18a7.92,7.92,0,0,0,2.86.47A6.3,6.3,0,0,0,89,235a5.65,5.65,0,0,0,.72-2.2m11.29.41v-.52c0-3.29-1.69-6-5.24-6a5.3,5.3,0,0,0-5.39,5.64c0,3.27,2,5.63,5.39,5.63a5.05,5.05,0,0,0,5.12-3.39l-3-.21a2,2,0,0,1-2,1.13,2.28,2.28,0,0,1-2.3-2.28Zm-3.19-2.3H93.56a2.12,2.12,0,0,1,2.28-1.84,1.93,1.93,0,0,1,2,1.84m13.83,3.47c0-2.67-2.64-3.15-4.69-3.58-.56-.12-1.81-.27-1.81-1s.9-.86,1.48-.86a2.07,2.07,0,0,1,1.6.68,2,2,0,0,1,.27.86l2.84-.14c-.13-2.61-2.33-3.62-4.67-3.62-2.16,0-4.44.86-4.44,3.37,0,4.26,6.33,2.72,6.33,4.63,0,.84-.86,1-1.52,1-1.36,0-2.08-.39-2.26-1.77l-2.88.1a4.16,4.16,0,0,0,.1,1c.53,2.2,2.8,3,4.83,3,2.33,0,4.82-.82,4.82-3.58m12.09,3.27-4.4-6.62,4.11-4h-3.93l-3.29,3.64v-7.51h-3v14.52h3v-3.54l1-1,2.67,4.52Zm23.12-8.06v-2.76a4.73,4.73,0,0,0-.53,0,2.65,2.65,0,0,0-2.76,1.95V227h-3v10.65h3.1V234.2c0-.54,0-1.09,0-1.63,0-1.73.29-3,2.41-3a4.37,4.37,0,0,1,.72.06m11.52,2.69c0-3.18-2.06-5.59-5.33-5.59a5.35,5.35,0,0,0-5.7,5.7c0,3.27,2.08,5.57,5.41,5.57a5.43,5.43,0,0,0,5.62-5.68m-3.11-.12c0,1.58-.53,3.33-2.4,3.33s-2.41-1.68-2.41-3.23.62-3.14,2.45-3.14,2.36,1.52,2.36,3m-70.69-10.3H81l-1.9-2.4h2.78l.92,1.39.87-1.39h2.82l-2,2.4Z"/></g></g></g></g></svg>