<svg xmlns="http://www.w3.org/2000/svg" viewBox="0 0 283.46 283.46"><defs><style>.cls-1{fill:#00b8e0;}.cls-2{fill:#fff;}</style></defs><g id="Layer_2" data-name="Layer 2"><g id="Picons"><g id="crovltava"><rect class="cls-1" width="283.46" height="283.46"/><g id="logo"><path class="cls-2" d="M120.35,42.52H78.18v21h85.07c-6.15-14.33-22.33-21-42.9-21Zm40,53.82H78.18V75.45h87.7c0,.81.06,1.64.05,2.49-.07,7.77-1.93,13.76-5.56,18.4Zm-82.19,12v20.86h76.61L142,108.3Zm0,32.82h84l12.92,21H78.18v-21Z"/><path class="cls-2" d="M134.81,227H131.6l-1.77,7.18L127.9,227h-3.29l3.08,8.64a4.74,4.74,0,0,1,.44,1.52,1.55,1.55,0,0,1-.46,1.09,2.39,2.39,0,0,1-1.27.27l-.8,0v2.38c.26,0,.53,0,.8,0,1.31,0,3,.09,3.89-1.05a8.62,8.62,0,0,0,1-2.3L134.81,227Zm-1.27-4.49h-3.63l-1.47,3.07h2.35l2.75-3.07Zm26.72,15.15v-2.26l5.26-5.88h-4.67V227h8.44v2.45l-5.11,5.69h5.46v2.51Zm17.42,0v-6a2.53,2.53,0,0,0-.52-2,1.55,1.55,0,0,0-1.07-.37,1.78,1.78,0,0,0-1.17.41,3,3,0,0,0-.68,2.45v5.47h-3V223.16h3v5a3.77,3.77,0,0,1,2.9-1.34,3.84,3.84,0,0,1,2.12.6,3.78,3.78,0,0,1,1.44,3.49v6.81Zm8.14,0h-3V223.16h3v14.52Zm22.82-3.27c0-2.67-2.64-3.14-4.69-3.58-.56-.12-1.81-.26-1.81-1s.9-.87,1.48-.87a1.59,1.59,0,0,1,1.87,1.54l2.84-.14c-.13-2.61-2.33-3.62-4.67-3.62-2.16,0-4.45.86-4.45,3.37,0,4.26,6.34,2.72,6.34,4.63,0,.84-.86,1-1.52,1-1.36,0-2.08-.39-2.26-1.77l-2.88.1a4.16,4.16,0,0,0,.1,1c.53,2.2,2.8,3,4.83,3,2.33,0,4.82-.82,4.82-3.58m-11.26-2.67a8.53,8.53,0,0,0-.29-2.9c-.78-1.85-2.77-2.14-4.54-2.14-2.41,0-4.41,1-4.55,3.69h2.8c0-1,1-1.34,1.87-1.34.64,0,1.62.16,1.62,1s-1.11.8-1.64.88c-2.31.33-5.25.6-5.25,3.62a3.42,3.42,0,0,0,3.71,3.44,4.93,4.93,0,0,0,3.35-1.28l0,1h2.9v-5.93Zm-3,2.47a2.85,2.85,0,0,1-2.49,1.38c-.7,0-1.42-.33-1.42-1.13,0-1.38,2.2-1.4,3.17-1.65a5.77,5.77,0,0,0,.74-.24v1.64ZM90.85,232.82l-3.4-.23a2.91,2.91,0,0,1-3.1,2.67,3.49,3.49,0,0,1-2.24-.78,5.13,5.13,0,0,1-1.48-4.15c0-2.41,1-4.79,3.72-4.79A2.91,2.91,0,0,1,87.06,227a3,3,0,0,1,.31.76l3.27-.23a5.5,5.5,0,0,0-.24-1c-.87-2.57-3.44-3.74-6-3.74-4.55,0-7.28,3.11-7.28,7.55,0,3,1.44,6,4.38,7.18a7.92,7.92,0,0,0,2.86.47,6.3,6.3,0,0,0,5.78-3,5.65,5.65,0,0,0,.72-2.2m11.29.41v-.52c0-3.29-1.69-6-5.24-6a5.3,5.3,0,0,0-5.39,5.64c0,3.27,2,5.63,5.39,5.63a5.05,5.05,0,0,0,5.12-3.39l-3-.21a2,2,0,0,1-2,1.13,2.3,2.3,0,0,1-2.31-2.28ZM99,230.93H94.69A2.14,2.14,0,0,1,97,229.09a1.93,1.93,0,0,1,2,1.84m13.83,3.47c0-2.67-2.64-3.15-4.69-3.58-.56-.12-1.81-.27-1.81-1s.9-.86,1.48-.86a2.07,2.07,0,0,1,1.6.68,2,2,0,0,1,.27.86l2.84-.14c-.13-2.61-2.33-3.62-4.67-3.62-2.16,0-4.45.86-4.45,3.37,0,4.26,6.34,2.72,6.34,4.63,0,.84-.86,1-1.52,1-1.36,0-2.08-.39-2.26-1.77L103,234a4.16,4.16,0,0,0,.1,1c.53,2.2,2.8,3,4.83,3,2.33,0,4.82-.82,4.82-3.58m12.09,3.27-4.4-6.62,4.11-4h-3.93l-3.29,3.64v-7.51h-3v14.52h3v-3.54l1-1,2.67,4.52ZM148,229.61v-2.76a4.73,4.73,0,0,0-.54,0,2.65,2.65,0,0,0-2.75,1.95V227h-3v10.65h3.1V234.2c0-.54,0-1.09,0-1.63,0-1.73.29-3,2.41-3a4.37,4.37,0,0,1,.72.06m11.52,2.69c0-3.18-2.06-5.59-5.33-5.59a5.35,5.35,0,0,0-5.7,5.7c0,3.27,2.08,5.57,5.41,5.57a5.43,5.43,0,0,0,5.62-5.68m-3.11-.12c0,1.58-.53,3.33-2.4,3.33s-2.41-1.68-2.41-3.23.62-3.14,2.45-3.14,2.36,1.52,2.36,3m-70.69-10.3H82.18l-1.9-2.4h2.78l.92,1.39.87-1.39h2.82l-2,2.4Z"/><path class="cls-2" d="M102.64,179.34H95.23l-6.41,22.23-6.5-22.23H74.83l10.74,30.59h6.37l10.7-30.59Zm8.75,30.59V179.34H105v30.59Zm16.42-.05V205c-.56,0-1.17.08-1.73.08-2,0-2.42-.69-2.42-2.6V192.34h3.94v-4.85h-3.94v-6.63h-6.37v6.63h-3.21v4.85h3.21V202c0,.39-.05.74-.05,1.13,0,4.68,1.17,7,6.2,7a35.67,35.67,0,0,0,4.37-.31Zm46-22.39h-6.75l-3.73,13.9-4.12-13.9h-6.8l7.76,22.44h6.11l7.53-22.44Zm21.28,22.43H189l0-2c-2.47,1.74-3.86,2.69-7.07,2.69-4.33,0-7.8-2.69-7.8-7.24,0-6.37,6.2-6.93,11-7.62,1.13-.18,3.47-.26,3.47-1.87s-2.08-2.08-3.42-2.08c-1.78,0-4,.61-4,2.82h-5.89c.3-5.59,4.51-7.76,9.58-7.76,3.72,0,7.93.61,9.57,4.51.7,1.69.61,4.29.61,6.11v12.48Zm-6.33-10.75a10.57,10.57,0,0,1-1.56.52c-2,.52-6.67.57-6.67,3.47,0,1.69,1.52,2.38,3,2.38a6,6,0,0,0,5.24-2.9v-3.47ZM151,197.44c0-1.82.09-4.42-.61-6.11-1.64-3.9-5.85-4.51-9.57-4.51-5.07,0-9.28,2.17-9.58,7.76h5.89c-.08-2.21,2.17-2.82,3.95-2.82,1.34,0,3.42.35,3.42,2.08s-2.34,1.69-3.47,1.87c-4.85.69-11.05,1.25-11.05,7.62,0,4.55,3.47,7.24,7.8,7.24,3.21,0,4.6-.95,7.07-2.69l0,2H151V197.44Zm-6.33,5.2a6,6,0,0,1-5.24,2.9c-1.47,0-3-.69-3-2.38,0-2.9,4.64-2.95,6.67-3.47a10.57,10.57,0,0,0,1.56-.52v3.47Z"/></g></g></g></g></svg>