<svg xmlns="http://www.w3.org/2000/svg" xmlns:xlink="http://www.w3.org/1999/xlink" viewBox="0 0 283.46 283.46"><defs><style>.cls-1{fill:#1d232f;}.cls-2{fill:#ed0f68;}.cls-3{fill:#fff;}.cls-4{fill:#ef4123;}.cls-5{fill:url(#linear-gradient);}.cls-6{fill:url(#linear-gradient-2);}.cls-7{fill:url(#linear-gradient-3);}</style><linearGradient id="linear-gradient" x1="-148.07" y1="525.96" x2="-148.09" y2="526.85" gradientTransform="matrix(14.03, 0, 0, -29.87, 2147.51, 15868.43)" gradientUnits="userSpaceOnUse"><stop offset="0" stop-color="#ed0f68"/><stop offset="1" stop-color="#ef4123"/></linearGradient><linearGradient id="linear-gradient-2" x1="-152.56" y1="528.98" x2="-152.58" y2="529.88" gradientTransform="matrix(20.32, 0, 0, -40.17, 3176.02, 21400.98)" xlink:href="#linear-gradient"/><linearGradient id="linear-gradient-3" x1="-151.6" y1="528.15" x2="-151.62" y2="529.05" gradientTransform="matrix(18.72, 0, 0, -36.64, 2896.52, 19509.45)" xlink:href="#linear-gradient"/></defs><g id="Layer_2" data-name="Layer 2"><g id="Picons"><g id="danceradio"><rect class="cls-1" width="283.46" height="283.46"/><g id="logo"><path id="RADIO" class="cls-2" d="M238.42,136.46a3.43,3.43,0,0,1-1-.14,2,2,0,0,1-1.34-1.25,3.31,3.31,0,0,1-.19-1.21V130.1a3.28,3.28,0,0,1,.19-1.2,2.11,2.11,0,0,1,.53-.8,2,2,0,0,1,.81-.45,3.43,3.43,0,0,1,1-.14,3.55,3.55,0,0,1,1,.14,2,2,0,0,1,.8.45,2.11,2.11,0,0,1,.53.8,3.28,3.28,0,0,1,.19,1.2v3.76a3.31,3.31,0,0,1-.19,1.21,2.28,2.28,0,0,1-.53.8,2.33,2.33,0,0,1-.8.45A3.55,3.55,0,0,1,238.42,136.46Zm-25.8-8.66c0-.18.1-.27.3-.29h2.15a4.67,4.67,0,0,1,1,.11,2.21,2.21,0,0,1,.83.4,1.86,1.86,0,0,1,.57.74,2.76,2.76,0,0,1,.21,1.14,2.86,2.86,0,0,1-.14,1,2.12,2.12,0,0,1-.4.69,1.73,1.73,0,0,1-.6.44,3,3,0,0,1-.75.23l1.87,3.59a.3.3,0,0,1,.05.16.38.38,0,0,1-.15.29.5.5,0,0,1-.31.13.31.31,0,0,1-.25-.14,2.29,2.29,0,0,1-.18-.29L215,132.34h-1.54v3.72a.25.25,0,0,1-.13.24.43.43,0,0,1-.27.08.46.46,0,0,1-.28-.08.26.26,0,0,1-.12-.24V127.8Zm6.73,8.58a.59.59,0,0,1-.31-.09.27.27,0,0,1-.15-.25.17.17,0,0,1,0-.08l2.54-8.24a.36.36,0,0,1,.18-.22.68.68,0,0,1,.29-.06.6.6,0,0,1,.3.07.43.43,0,0,1,.19.21l2.52,8.24s0,0,0,0v0a.29.29,0,0,1-.16.25.55.55,0,0,1-.32.1.29.29,0,0,1-.31-.2l-.56-1.87h-3.36l-.56,1.87a.23.23,0,0,1-.11.16.45.45,0,0,1-.2,0Zm9.27,0h-2.15a.36.36,0,0,1-.26-.09.26.26,0,0,1-.1-.21V127.8a.26.26,0,0,1,.1-.21.4.4,0,0,1,.26-.08h2.15a3.55,3.55,0,0,1,1,.14,2,2,0,0,1,.8.45,2.1,2.1,0,0,1,.54.8,3.27,3.27,0,0,1,.2,1.2v3.69a3.24,3.24,0,0,1-.2,1.2,2,2,0,0,1-.54.8,2,2,0,0,1-.8.45A3.22,3.22,0,0,1,228.62,136.38Zm4.59-8.58a.23.23,0,0,1,.12-.22.53.53,0,0,1,.28-.07.5.5,0,0,1,.27.07.22.22,0,0,1,.13.22v8.27a.25.25,0,0,1-.13.23.43.43,0,0,1-.27.08.46.46,0,0,1-.28-.08.26.26,0,0,1-.12-.23V127.8Zm6.93,2.3a1.91,1.91,0,0,0-.45-1.4,2,2,0,0,0-2.54,0,1.9,1.9,0,0,0-.45,1.4v3.76a1.93,1.93,0,0,0,.45,1.41,2,2,0,0,0,2.54,0,1.93,1.93,0,0,0,.45-1.41Zm-11.52-1.85h-1.71v7.39h1.71a1.73,1.73,0,0,0,1.27-.45,1.89,1.89,0,0,0,.47-1.4V130.1a1.88,1.88,0,0,0-.47-1.4,1.73,1.73,0,0,0-1.27-.45Zm-5.24,5.36-1.47-4.89-1.48,4.89Zm-10-5.36v3.4h1.65a2.06,2.06,0,0,0,1.32-.4,1.58,1.58,0,0,0,.5-1.31,1.56,1.56,0,0,0-.5-1.3,2.11,2.11,0,0,0-1.32-.39Z"/><path id="Shape" class="cls-3" d="M171.49,133.39a4.15,4.15,0,0,1,3.13-1.12,4.7,4.7,0,0,1,2.26.44,3.41,3.41,0,0,1,1.22,1.08,3.58,3.58,0,0,1,.54,1.31c.08.44.14.82.17,1.15a1.37,1.37,0,0,0,.76,1.28,4.14,4.14,0,0,0,1.85.37,3.14,3.14,0,0,0,2-.51,2.54,2.54,0,0,0,.64-2.07,7.08,7.08,0,0,0-.7-3.16,7,7,0,0,0-2-2.41,9.24,9.24,0,0,0-3-1.53,13.14,13.14,0,0,0-3.86-.54,12.69,12.69,0,0,0-3.58.5,8.22,8.22,0,0,0-3,1.59,7.47,7.47,0,0,0-2,2.84,10.83,10.83,0,0,0-.75,4.28v11.22a11.12,11.12,0,0,0,.73,4.29,7.31,7.31,0,0,0,2,2.84,7.93,7.93,0,0,0,3,1.58,12.34,12.34,0,0,0,3.58.51,12.5,12.5,0,0,0,3.86-.57,9.43,9.43,0,0,0,3.06-1.58,7.08,7.08,0,0,0,2-2.52,7.6,7.6,0,0,0,.7-3.3,2.58,2.58,0,0,0-.64-2.05,3.16,3.16,0,0,0-2-.52,3.93,3.93,0,0,0-1.77.36,1.46,1.46,0,0,0-.8,1.29,11,11,0,0,1-.19,1.39,3.9,3.9,0,0,1-.54,1.38,3.28,3.28,0,0,1-1.2,1.09,4.47,4.47,0,0,1-2.17.44,4.27,4.27,0,0,1-3.2-1.12,4.82,4.82,0,0,1-1.11-3.5V136.89a4.86,4.86,0,0,1,1.09-3.5Z"/><path id="Shape-2" data-name="Shape" class="cls-3" d="M159.68,128.06a4.45,4.45,0,0,0-3.6,0,1.28,1.28,0,0,0-.8,1.23v16.17l-7.77-15a12,12,0,0,0-.88-1.43,3.72,3.72,0,0,0-.82-.85,2.5,2.5,0,0,0-.95-.4,6.45,6.45,0,0,0-1.25-.1,4,4,0,0,0-1.81.4,1.33,1.33,0,0,0-.8,1.25v26.1a1.33,1.33,0,0,0,.8,1.23,4.07,4.07,0,0,0,3.6,0,1.33,1.33,0,0,0,.83-1.23V139.26l8.65,16.17a2.89,2.89,0,0,0,1.3,1.29,4.1,4.1,0,0,0,1.71.36,3.87,3.87,0,0,0,1.79-.42,1.33,1.33,0,0,0,.83-1.23V129.29a1.29,1.29,0,0,0-.83-1.23Z"/><path id="Shape-3" data-name="Shape" class="cls-3" d="M110.57,129.77a8.2,8.2,0,0,0-3-1.59,13.45,13.45,0,0,0-3.7-.5H96.74a2.67,2.67,0,0,0-1.67.48,1.39,1.39,0,0,0-.62,1.13v26.19a1.37,1.37,0,0,0,.62,1.12,2.65,2.65,0,0,0,1.67.49h7.12a13,13,0,0,0,3.7-.51,7.91,7.91,0,0,0,3-1.59,7.34,7.34,0,0,0,2-2.83,11.32,11.32,0,0,0,.72-4.29v-11a11.23,11.23,0,0,0-.72-4.28,7.37,7.37,0,0,0-2-2.84Zm-2.49,18.1a4.8,4.8,0,0,1-1.11,3.5,4.15,4.15,0,0,1-3.11,1.13H99.67V132.26h4.19a4.15,4.15,0,0,1,3.11,1.13,4.82,4.82,0,0,1,1.11,3.5Z"/><path id="Shape-4" data-name="Shape" class="cls-3" d="M130.28,129.21a2.07,2.07,0,0,0-1.24-1.35,5.33,5.33,0,0,0-2.13-.42,5.22,5.22,0,0,0-2.1.42,2.07,2.07,0,0,0-1.24,1.35l-7.77,25.3a2.85,2.85,0,0,0-.08.4,1.38,1.38,0,0,0,.33.89,2.8,2.8,0,0,0,.8.68,4.08,4.08,0,0,0,1.07.44,4,4,0,0,0,1.1.16,2.48,2.48,0,0,0,1.15-.24,1.24,1.24,0,0,0,.62-.8l1.53-5.35h9.21l1.53,5.35a1.24,1.24,0,0,0,.62.8,2.48,2.48,0,0,0,1.15.24,4,4,0,0,0,1.1-.16,3.8,3.8,0,0,0,1.07-.46,3.38,3.38,0,0,0,.8-.68,1.31,1.31,0,0,0,.33-.87,2.85,2.85,0,0,0-.08-.4l-7.77-25.3Zm-6.87,17.37,3.49-12.34,3.5,12.34Z"/><path id="Shape-5" data-name="Shape" class="cls-3" d="M205.28,144a3.27,3.27,0,0,0,1.68-.67,4,4,0,0,0,1.16-1.65,8.1,8.1,0,0,0,.41-2.91,12.2,12.2,0,0,0-.83-4.53,11.25,11.25,0,0,0-2.24-3.6,10.42,10.42,0,0,0-3.31-2.35,9.77,9.77,0,0,0-8.1.1,10.69,10.69,0,0,0-3.4,2.52,12.16,12.16,0,0,0-3.09,8.16v6.23a12.79,12.79,0,0,0,.88,4.86,11,11,0,0,0,2.46,3.75,11.14,11.14,0,0,0,3.74,2.43,12.89,12.89,0,0,0,4.77.86,12.29,12.29,0,0,0,3.49-.46,11.13,11.13,0,0,0,2.68-1.14,6.82,6.82,0,0,0,1.73-1.46,2.55,2.55,0,0,0,.65-1.55,3.19,3.19,0,0,0-.55-1.66,1.83,1.83,0,0,0-1.6-1,2,2,0,0,0-1.19.43c-.33.24-.72.5-1.17.79a8.54,8.54,0,0,1-1.6.76,6.74,6.74,0,0,1-2.28.33,7,7,0,0,1-5-1.81,6.55,6.55,0,0,1-1.92-5v-1.38h10.9a16.47,16.47,0,0,0,1.74-.09Zm-1.94-4.3a2.71,2.71,0,0,1-1.56.28h-9.14v-1.74a6.57,6.57,0,0,1,.44-2.41,5.74,5.74,0,0,1,1.2-1.91,6.19,6.19,0,0,1,1.77-1.29,5,5,0,0,1,2.12-.46,4.59,4.59,0,0,1,2.18.52,5.6,5.6,0,0,1,1.74,1.38,6.66,6.66,0,0,1,1.14,2,6.91,6.91,0,0,1,.42,2.39c0,.86-.19,1.14-.31,1.22Z"/><path id="Shape-6" data-name="Shape" class="cls-4" d="M47.23,119.38a2.33,2.33,0,0,1-2.3,2.34,2.94,2.94,0,0,1-.51,0l-.14,0a2.32,2.32,0,0,1,.6-4.55,3,3,0,0,1,.43,0l.31.08a2.32,2.32,0,0,1,1.61,2.19Z"/><path id="Shape-7" data-name="Shape" class="cls-2" d="M61.85,162a2.33,2.33,0,0,1-1.16,2l-.47.21a28.44,28.44,0,0,1-11,2.32,29.3,29.3,0,0,1-3.88-.22l-.43,0-.11,0a2.32,2.32,0,0,1,.6-4.55,1.71,1.71,0,0,1,.32,0s0,0,0,0a24.36,24.36,0,0,0,3.44.2,23.61,23.61,0,0,0,9.26-2l.35-.15a2.27,2.27,0,0,1,.75-.13l.43,0,.31.08A2.32,2.32,0,0,1,61.85,162Z"/><path id="Shape-8" data-name="Shape" class="cls-4" d="M72.09,129.82a2.32,2.32,0,0,1-2.3,2.35,2.76,2.76,0,0,1-.51,0l-.14,0a2.34,2.34,0,0,1-1.26-.87l-.09-.13a22.36,22.36,0,0,0-15.8-9.4l-.26,0-.14,0a2.32,2.32,0,0,1,.61-4.55h.1l.4,0a27.37,27.37,0,0,1,14.91,6.78,25.23,25.23,0,0,1,4,4.48l.26.4a2.2,2.2,0,0,1,.27,1.06Z"/><path id="Shape-9" data-name="Shape" class="cls-5" d="M75.72,141.43A23.86,23.86,0,0,1,68,159.16l-.79.71-.45.38a2.29,2.29,0,0,1-1.24.37,2.76,2.76,0,0,1-.51-.05l-.14,0a2.31,2.31,0,0,1-1.7-2.21,2.34,2.34,0,0,1,.79-1.78l.06,0a19.42,19.42,0,0,0,7.08-15,18.87,18.87,0,0,0-.61-4.52c0-.09,0-.19-.08-.29a2,2,0,0,1,0-.43,2.33,2.33,0,0,1,2.3-2.36,3.13,3.13,0,0,1,.43,0l.31.08a2.35,2.35,0,0,1,1.46,1.38c0,.15.08.3.11.44a22.91,22.91,0,0,1,.75,5.61Z"/><path id="Shape-10" data-name="Shape" class="cls-4" d="M64.6,113.86a2.34,2.34,0,0,1-2.31,2.36,2.22,2.22,0,0,1-.51-.06l-.14,0-.11,0L61.2,116h0a35.57,35.57,0,0,0-14.07-2.69c-.63,0-1.27,0-1.89.07l-.46,0a2,2,0,0,1-.42-.05.7.7,0,0,0-.14,0,2.34,2.34,0,0,1-1.7-2.22,2.31,2.31,0,0,1,2-2.32l.38,0c.73,0,1.46-.07,2.2-.08a40.32,40.32,0,0,1,15.86,3l.45.19a2.34,2.34,0,0,1,1.21,2Z"/><path id="Shape-11" data-name="Shape" class="cls-6" d="M84.36,141.34a29.84,29.84,0,0,1-.89,7.61c0,.13-.07.26-.1.38a2.32,2.32,0,0,1-2.17,1.55,2.21,2.21,0,0,1-.51,0l-.14,0a2.31,2.31,0,0,1-1.7-2.21,3.13,3.13,0,0,1,0-.44l.09-.33a25.36,25.36,0,0,0,.75-6.42c-.09-9-4.91-16.95-12.35-22.09l-.36-.24a2.36,2.36,0,0,1-.85-1.78,2.33,2.33,0,0,1,2.31-2.36,3,3,0,0,1,.43,0l.32.08.31.13c.19.12.36.24.54.37h0A34.93,34.93,0,0,1,73.21,118a33,33,0,0,1,8.07,10.44,29.81,29.81,0,0,1,3.08,12.94Z"/><path id="Shape-12" data-name="Shape" class="cls-2" d="M80.93,155.07a2.31,2.31,0,0,1-2.29,2.35,2.76,2.76,0,0,1-.51,0l-.14,0a2.32,2.32,0,0,1,.6-4.55,2.09,2.09,0,0,1,.43,0,1.73,1.73,0,0,1,.31.07,2.32,2.32,0,0,1,1.6,2.18Z"/><path id="Shape-13" data-name="Shape" class="cls-2" d="M76.86,160.8a2.36,2.36,0,0,1-.47,1.43l-.27.3c-.75.84-1.56,1.64-2.41,2.42a38.92,38.92,0,0,1-25.89,9.87q-1.09,0-2.19,0l-.42,0h0l-.17,0-.14,0a2.32,2.32,0,0,1,.6-4.56h.22c.68,0,1.37,0,2.06,0a34,34,0,0,0,24.92-10.79c.07-.08.15-.16.22-.25a2.35,2.35,0,0,1,1.6-.66,3.13,3.13,0,0,1,.43,0,1.77,1.77,0,0,1,.31.08,2.33,2.33,0,0,1,1.61,2.18Z"/><path id="Shape-14" data-name="Shape" class="cls-7" d="M66.74,141.62a16,16,0,0,1-5.53,12.18A19.39,19.39,0,0,1,53.48,158l-.3.08a2.28,2.28,0,0,1-.45,0,1.87,1.87,0,0,1-.53,0l-.14,0a2.37,2.37,0,0,1-.09-4.55h0l.2-.06c5.74-1.62,9.88-6.31,9.82-11.79s-4.32-10.11-10.12-11.6l-.15,0a2.38,2.38,0,0,1,.62-4.67,2.12,2.12,0,0,1,.44,0l.32.08A19.41,19.41,0,0,1,61,129.56a16.06,16.06,0,0,1,5.78,12.06Z"/></g></g></g></g></svg>