<?xml version="1.0" standalone="yes"?>
<svg xmlns="http://www.w3.org/2000/svg" width="1024" height="1024">
<path style="fill:#010101; stroke:none;" d="M0 0L0 1024L1024 1024L1024 0L0 0z"/>
<path style="fill:#ffffff; stroke:none;" d="M255 401.425C238.221 403.709 222.356 408.961 208 418.053C195.599 425.908 184.682 435.862 176.347 448C122.472 526.46 188.755 633.288 283 621.714C299.316 619.71 314.853 614.461 329 606.139C341.135 599.001 351.834 589.255 360.255 578C418.518 500.122 350.911 388.369 255 401.425M498 401.425C481.221 403.709 465.356 408.961 451 418.053C438.599 425.908 427.682 435.862 419.347 448C365.464 526.471 431.768 633.286 526 621.714C542.316 619.71 557.853 614.461 572 606.139C583.865 599.16 594.016 589.732 602.55 579C663.835 501.931 593.019 388.49 498 401.425M742 402.425C724.209 404.847 707.094 410.023 692 420.004C679.421 428.322 668.745 438.422 660.355 451C652.97 462.072 647.625 474.024 644.651 487C627.064 563.746 692.978 632.173 770 622.714C785.511 620.809 800.61 615.378 814 607.396C826.56 599.909 837.734 589.812 846.36 578C902.189 501.549 836.755 389.526 742 402.425z"/>
<path style="fill:#010101; stroke:none;" d="M494 469L494 521C494 530.886 494.51 541.559 503.093 548.211C510.337 553.824 519.39 553 528 553L528 539C523.338 539 517.155 540.038 513.105 537.258C503.466 530.64 508 506.289 508 496L528 496L528 483L508 483L508 469L494 469M290 542C291.064 546.964 299.795 545 304 545L304 482C283.101 482 263.726 468.967 244 482.105C219.376 498.505 224.739 535.372 251 546.662C265.495 552.894 276.589 546.88 290 542M719 485L753 555L755 555L790 485C786.307 485 780.635 483.959 777.39 486.028C765.029 493.91 763.552 517.592 753 528L738.753 497L732.363 486.028L719 485z"/>
<path style="fill:#ffffff; stroke:none;" d="M262 489.465C231.646 494.794 238.801 540.836 269 535.535C299.064 530.257 291.983 484.202 262 489.465z"/>
</svg>
