<?xml version="1.0" standalone="yes"?>
<svg xmlns="http://www.w3.org/2000/svg" width="1024" height="1024">
<path style="fill:#012791; stroke:none;" d="M0 0L0 1024L1024 1024L1024 0L0 0z"/>
<path style="fill:#010204; stroke:none;" d="M384 344.424C337.842 350.485 297.774 365.813 266.289 402C186.568 493.628 232.191 643.207 350 674.265C370.45 679.657 392.037 681.23 413 678.714C491.024 669.353 555.494 604.089 560.911 525C566.573 442.318 509.96 364.455 428 347.801C413.953 344.947 398.321 342.544 384 344.424z"/>
<path style="fill:#012791; stroke:none;" d="M255 473C289.756 473 323.365 477.053 357 486.151C389.745 495.009 420.923 508.276 454 516.116C472.191 520.427 491.346 523.144 510 523.961C518.838 524.348 528.329 522.62 537 524C537 469.188 517.385 419.547 469 389.425C391.644 341.267 276.329 380.807 255 473z"/>
<path style="fill:#feffff; stroke:none;" d="M255 473L251 499C326.664 493.028 392.485 531.322 465 544.424C481.073 547.328 497.642 549.994 514 550C518.345 550.002 526.794 551.604 530.486 548.972C535.711 545.248 535.878 528.908 536 523C473.115 527.963 418.138 502.863 359 486.424C324.776 476.911 290.404 473 255 473z"/>
<path style="fill:#012791; stroke:none;" d="M254 475L255 476L254 475z"/>
<path style="fill:#feffff; stroke:none;" d="M157 512L177 525L178 525C186.145 517.024 195.276 511.512 206 507.692C210.871 505.957 220.606 505.091 224.142 501.272C228.261 496.823 227.813 482.119 229 476C210.495 476.797 190.783 484.576 175 493.861C167.844 498.071 159.761 503.879 157 512z"/>
<path style="fill:#012791; stroke:none;" d="M228 478L229 479L228 478M253.333 479.667L253.667 480.333L253.333 479.667z"/>
<path style="fill:#9cabd4; stroke:none;" d="M197 483L198 484L197 483z"/>
<path style="fill:#012791; stroke:none;" d="M227.333 483.667L227.667 484.333L227.333 483.667M252.333 484.667L252.667 485.333L252.333 484.667z"/>
<path style="fill:#010204; stroke:none;" d="M650 484L650 538C662.641 538 677.9 540.283 688.996 532.892C703.667 523.12 702.71 495.687 686.996 487.403C676.21 481.716 661.773 484 650 484M706 484C706 497.149 702.038 518.137 708.442 529.985C715.471 542.988 741.695 542.089 748.991 529.996C755.743 518.804 752 496.701 752 484L740 484C740 494.382 744.122 516.17 738.258 524.945C733.398 532.219 722.072 530.585 718.434 522.985C713.604 512.895 717 495.038 717 484L706 484M760 484L760 538L769 538L769 499C780.554 511.581 789.276 537.998 808 538L808 484L798 484L798 517C791.148 508.11 783.654 490.533 773.826 485.028C770.091 482.935 764.146 484 760 484M811 538C814.202 538 819.587 539.005 822.298 536.972C827.799 532.846 824.893 525.414 834 525.019C837.996 524.846 844.28 523.975 847.867 526.028C851.866 528.316 851.584 533.48 854.699 536.397C857.406 538.932 862.594 538 866 538L851.603 501L844.925 485.603L833.419 484.603L826.8 498L811 538z"/>
<path style="fill:#9cabd4; stroke:none;" d="M187 487L188 488L187 487z"/>
<path style="fill:#012791; stroke:none;" d="M226 489L226 492L227 492L226 489M251 489L251 492L252 492L251 489z"/>
<path style="fill:#9cabd4; stroke:none;" d="M179 491L180 492L179 491z"/>
<path style="fill:#012791; stroke:none;" d="M663 493L663 528C668.665 528 675.055 528.74 679.957 525.297C688.23 519.486 688.441 503.865 680.895 497.394C675.891 493.104 669.225 493.004 663 493z"/>
<path style="fill:#feffff; stroke:none;" d="M558 547C577.614 545.439 599.189 536.906 615 525.36C618.824 522.567 631.221 514.88 628.248 509.09C626.998 506.655 624.093 504.976 622 503.349C619.138 501.126 614.9 496.305 611 496.33C607.626 496.352 604.499 500.214 602 502.1C596.246 506.443 589.615 509.744 583 512.573C577.863 514.77 565.317 516.09 562.028 520.563C558.505 525.353 558.8 540.802 558 547z"/>
<path style="fill:#012791; stroke:none;" d="M250 497C250 554.802 269.016 608.425 323 637.691C386.01 671.85 465.49 655.636 508.87 598C519.231 584.233 529.446 566.297 532 549C512.429 553.66 487.451 548.532 468 544.803C419.418 535.491 374.164 515.53 326 504.651C308.991 500.808 291.335 499.277 274 498.089C266.692 497.589 256.569 500.284 250 497M838 497L831 517L846 517L838 497z"/>
<path style="fill:#9cabd4; stroke:none;" d="M629 509L630 510L629 509M360 513L361 514L360 513z"/>
<path style="fill:#012791; stroke:none;" d="M560 528L560 531L561 531L560 528M535 529L535 532L536 532L535 529z"/>
<path style="fill:#9cabd4; stroke:none;" d="M560 531L561 532L560 531z"/>
<path style="fill:#012791; stroke:none;" d="M534.333 536.667L534.667 537.333L534.333 536.667M559 536L559 539L560 539L559 536z"/>
<path style="fill:#9cabd4; stroke:none;" d="M587 539L588 540L587 539z"/>
<path style="fill:#526cb4; stroke:none;" d="M533 541L534 542L533 541z"/>
<path style="fill:#012791; stroke:none;" d="M533 542L534 543L533 542M558.333 542.667L558.667 543.333L558.333 542.667z"/>
<path style="fill:#9cabd4; stroke:none;" d="M578 542L579 543L578 542M477 546L478 547L477 546z"/>
<path style="fill:#012791; stroke:none;" d="M532 546L533 547L532 546z"/>
<path style="fill:#feffff; stroke:none;" d="M650 572L650 654L744 654C749.941 654 771.147 657.227 774.972 652.397C778.237 648.275 776 636.088 776 631L776 572L650 572z"/>
<path style="fill:#9cabd4; stroke:none;" d="M659 585L659 640L660 640L660 586L672 586L673.603 606.972L693 608L693 586L706 586L706 585L692 585L692 607L673 607L673 585L659 585M716 585L716 640L717 640L717 586L740 586L716 585z"/>
<path style="fill:#526cb4; stroke:none;" d="M740 585L740 586L743 586L740 585z"/>
<path style="fill:#012791; stroke:none;" d="M660 586L660 640L672 640L672 617L693 617L693 640L705 640L705 586L693 586L693 608L673.603 606.397L672 586L660 586M717 586L717 640L753 638L758 635L759 634L758 632L759 631L761 632L766.414 615L764 598C748.513 585.564 736.342 586 717 586z"/>
<path style="fill:#9cabd4; stroke:none;" d="M745 586L746 587L745 586z"/>
<path style="fill:#526cb4; stroke:none;" d="M746.667 586.333L747.333 586.667L746.667 586.333z"/>
<path style="fill:#9cabd4; stroke:none;" d="M748.667 587.333L749.333 587.667L748.667 587.333z"/>
<path style="fill:#526cb4; stroke:none;" d="M750 587L751 588L750 587M752 588L753 589L752 588M754 589L755 590L754 589z"/>
<path style="fill:#9cabd4; stroke:none;" d="M755 590L756 591L755 590z"/>
<path style="fill:#526cb4; stroke:none;" d="M756 590L757 591L756 590M757 591L758 592L757 591z"/>
<path style="fill:#9cabd4; stroke:none;" d="M758 592L759 593L758 592M759 593L760 594L759 593z"/>
<path style="fill:#526cb4; stroke:none;" d="M760 594L761 595L760 594z"/>
<path style="fill:#feffff; stroke:none;" d="M729 595C731.471 605.38 731.471 620.62 729 631L740 631L744 630L746 629L749 627L753 620L752 604L751 602L746 597L729 595z"/>
<path style="fill:#9cabd4; stroke:none;" d="M730 595L730 596L739 596L730 595z"/>
<path style="fill:#526cb4; stroke:none;" d="M761 595L762 596L761 595z"/>
<path style="fill:#9cabd4; stroke:none;" d="M729 596L729 630L730 630L729 596z"/>
<path style="fill:#526cb4; stroke:none;" d="M741 596L742 597L741 596z"/>
<path style="fill:#9cabd4; stroke:none;" d="M742.667 596.333L743.333 596.667L742.667 596.333z"/>
<path style="fill:#526cb4; stroke:none;" d="M744 597L745 598L744 597z"/>
<path style="fill:#9cabd4; stroke:none;" d="M762 597L763 598L762 597M746 598L747 599L746 598z"/>
<path style="fill:#526cb4; stroke:none;" d="M747 599L748 600L747 599z"/>
<path style="fill:#9cabd4; stroke:none;" d="M763 599L764 600L763 599z"/>
<path style="fill:#526cb4; stroke:none;" d="M748 600L749 601L748 600z"/>
<path style="fill:#9cabd4; stroke:none;" d="M764 600L765 601L764 600M749 601L750 602L749 601z"/>
<path style="fill:#526cb4; stroke:none;" d="M764 601L765 602L764 601z"/>
<path style="fill:#9cabd4; stroke:none;" d="M764 602L765 603L764 602z"/>
<path style="fill:#526cb4; stroke:none;" d="M750 603L751 604L750 603M765 604L766 605L765 604M751 605L752 606L751 605z"/>
<path style="fill:#9cabd4; stroke:none;" d="M765.333 605.667L765.667 606.333L765.333 605.667M751 606L752 607L751 606M752.333 607.667L752.667 608.333L752.333 607.667z"/>
<path style="fill:#526cb4; stroke:none;" d="M752 609L752 612L753 612L752 609z"/>
<path style="fill:#9cabd4; stroke:none;" d="M766 609L767 610L766 609z"/>
<path style="fill:#526cb4; stroke:none;" d="M766 611L766 614L767 614L766 611M752 615L752 618L753 618L752 615z"/>
<path style="fill:#9cabd4; stroke:none;" d="M766 616L767 617L766 616z"/>
<path style="fill:#feffff; stroke:none;" d="M672 617L673 618L672 617z"/>
<path style="fill:#526cb4; stroke:none;" d="M673 617L673 618L692 618L673 617z"/>
<path style="fill:#9cabd4; stroke:none;" d="M692 617L692 640L693 640L692 617M672 618L672 640L673 640L672 618M752 618L753 619L752 618M765.333 618.667L765.667 619.333L765.333 618.667z"/>
<path style="fill:#526cb4; stroke:none;" d="M751 620L752 621L751 620M765.333 620.667L765.667 621.333L765.333 620.667z"/>
<path style="fill:#9cabd4; stroke:none;" d="M751 621L752 622L751 621M750 623L751 624L750 623M764 623L765 624L764 623z"/>
<path style="fill:#526cb4; stroke:none;" d="M749 624L748 626L749 624M764 624L765 625L764 624z"/>
<path style="fill:#9cabd4; stroke:none;" d="M749 625L750 626L749 625z"/>
<path style="fill:#526cb4; stroke:none;" d="M747 626L748 627L747 626M763 626L764 627L763 626M746 627L747 628L746 627M744 628L745 629L744 628M762 628L763 629L762 628z"/>
<path style="fill:#9cabd4; stroke:none;" d="M740 629L741 630L740 629z"/>
<path style="fill:#526cb4; stroke:none;" d="M741 629L742 630L741 629z"/>
<path style="fill:#9cabd4; stroke:none;" d="M742 629L743 630L742 629M761 629L762 630L761 629M730 630L730 631L738 631L730 630z"/>
<path style="fill:#feffff; stroke:none;" d="M759 631L758 633L759 631z"/>
<path style="fill:#526cb4; stroke:none;" d="M759 632L760 633L759 632z"/>
<path style="fill:#feffff; stroke:none;" d="M757 633L758 634L757 633z"/>
<path style="fill:#9cabd4; stroke:none;" d="M756 634L757 635L756 634z"/>
<path style="fill:#526cb4; stroke:none;" d="M755 635L756 636L755 635z"/>
<path style="fill:#9cabd4; stroke:none;" d="M753 636L754 637L753 636z"/>
<path style="fill:#526cb4; stroke:none;" d="M754 636L755 637L754 636z"/>
<path style="fill:#9cabd4; stroke:none;" d="M751 637L752 638L751 637M748 638L749 639L748 638z"/>
<path style="fill:#526cb4; stroke:none;" d="M749 638L750 639L749 638z"/>
<path style="fill:#9cabd4; stroke:none;" d="M744 639L745 640L744 639z"/>
<path style="fill:#526cb4; stroke:none;" d="M745.667 639.333L746.333 639.667L745.667 639.333M659 640L659 641L673 641L659 640M692 640L692 641L706 641L692 640M716 640L716 641L741 641L716 640z"/>
<path style="fill:#9cabd4; stroke:none;" d="M775 653L776 654L775 653z"/>
</svg>
