<?xml version="1.0" standalone="yes"?>
<svg xmlns="http://www.w3.org/2000/svg" width="1024" height="1024">
<path style="fill:#3191cf; stroke:none;" d="M0 0L0 1024L1024 1024L1024 0L0 0z"/>
<path style="fill:#206491; stroke:none;" d="M378 344L378 345L389 345L378 344z"/>
<path style="fill:#010203; stroke:none;" d="M248 429L276 429C338.693 341.805 471.915 352.166 521.68 447C541.978 485.681 539.58 527.859 526 568C532.586 567.168 546.356 568.962 551.49 564.397C558.338 558.307 559.274 538.616 560.075 530C563.258 495.759 556.515 462.557 540.742 432C493.084 339.677 367.291 318.062 288 381.4C272.484 393.794 255.991 410.479 248 429z"/>
<path style="fill:#206491; stroke:none;" d="M398 344L398 345L408 345L398 344M370 345L370 346L374 346L370 345M412 345L412 346L417 346L412 345M364 346L364 347L367 347L364 346M420 346L420 347L423 347L420 346M358 347L358 348L361 348L358 347M425 347L425 348L428 348L425 347M354 348L354 349L357 349L354 348M430 348L430 349L433 349L430 348M350.667 349.333L351.333 349.667L350.667 349.333M435.667 349.333L436.333 349.667L435.667 349.333M347 350L348 351L347 350M438.667 350.333L439.333 350.667L438.667 350.333M343.667 351.333L344.333 351.667L343.667 351.333M442.667 351.333L443.333 351.667L442.667 351.333M340.667 352.333L341.333 352.667L340.667 352.333M445.667 352.333L446.333 352.667L445.667 352.333M337.667 353.333L338.333 353.667L337.667 353.333M448.667 353.333L449.333 353.667L448.667 353.333M334.667 354.333L335.333 354.667L334.667 354.333M451 354L452 355L451 354M332 355L333 356L332 355M453.667 355.333L454.333 355.667L453.667 355.333M329.667 356.333L330.333 356.667L329.667 356.333M456 356L457 357L456 356M327 357L328 358L327 357M458.667 357.333L459.333 357.667L458.667 357.333M325 358L326 359L325 358M461 358L462 359L461 358M323 359L324 360L323 359M463 359L464 360L463 359M320.667 360.333L321.333 360.667L320.667 360.333M465 360L466 361L465 360M318.667 361.333L319.333 361.667L318.667 361.333M467 361L468 362L467 361M316.667 362.333L317.333 362.667L316.667 362.333M469 362L470 363L469 362M315 363L316 364L315 363M471 363L472 364L471 363M313 364L314 365L313 364M473 364L474 365L473 364M311 365L312 366L311 365M475 365L476 366L475 365M309 366L310 367L309 366M476.667 366.333L477.333 366.667L476.667 366.333M307 367L308 368L307 367M478 367L479 368L478 367M306 368L307 369L306 368M382 368L382 369L405 369L382 368M480 368L481 369L480 368M304 369L305 370L304 369M372 369L372 370L377 370L372 369z"/>
<path style="fill:#3191cf; stroke:none;" d="M277 428C304.859 428.231 333.124 433.818 360 440.884C372.226 444.099 384.572 450.165 397 452C396.14 456.998 392.665 472.556 387.722 474.762C384.904 476.02 380.665 473.564 378 472.667C370.395 470.109 362.775 467.629 355 465.63C336.604 460.899 317.934 457.003 299 455.17C286.978 454.005 273.697 455.785 262 453L255 473C290.044 473 324.132 477.01 358 486.424C392.97 496.145 426.267 510.696 462 517.8C480.02 521.383 498.626 524 517 524C521.725 524 531.482 525.802 535.142 522.142C540.561 516.723 536.234 498.754 535.271 492C530.856 461.028 516.636 430.947 493.996 409.039C434.943 351.896 323.049 354.302 277 428z"/>
<path style="fill:#206491; stroke:none;" d="M410 369L410 370L414 370L410 369M481 369L482 370L481 369M303 370L304 371L303 370M367 370L367 371L370 371L367 370M417 370L417 371L420 371L417 370M483 370L484 371L483 370M301 371L302 372L301 371M362.667 371.333L363.333 371.667L362.667 371.333M422 371L422 372L425 372L422 371M485 371L486 372L485 371M299 372L300 373L299 372M357 372L357 373L360 373L357 372M427.667 372.333L428.333 372.667L427.667 372.333M486 372L487 373L486 372M298 373L299 374L298 373M354.667 373.333L355.333 373.667L354.667 373.333M431.667 373.333L432.333 373.667L431.667 373.333M488 373L489 374L488 373M297 374L298 375L297 374M350.667 374.333L351.333 374.667L350.667 374.333M434.667 374.333L435.333 374.667L434.667 374.333M489 374L490 375L489 374M295 375L296 376L295 375M347.667 375.333L348.333 375.667L347.667 375.333M438 375L439 376L438 375M490 375L491 376L490 375M294 376L295 377L294 376M344.667 376.333L345.333 376.667L344.667 376.333M441 376L442 377L441 376M492 376L493 377L492 376M292 377L293 378L292 377M342 377L343 378L342 377M443.667 377.333L444.333 377.667L443.667 377.333M493 377L494 378L493 377M291 378L292 379L291 378M339.667 378.333L340.333 378.667L339.667 378.333M446 378L447 379L446 378M290 379L291 380L290 379M337 379L338 380L337 379M448.667 379.333L449.333 379.667L448.667 379.333M496 379L497 380L496 379M289 380L290 381L289 380M335 380L336 381L335 380M451 380L452 381L451 380M497 380L498 381L497 380M287 381L288 382L287 381M332.667 381.333L333.333 381.667L332.667 381.333M453 381L454 382L453 381M498 381L499 382L498 381M286 382L287 383L286 382M330 382L331 383L330 382M455 382L456 383L455 382M285 383L286 384L285 383M328 383L329 384L328 383M457 383L458 384L457 383M501 383L502 384L501 383M284 384L285 385L284 384M326 384L327 385L326 384M459 384L460 385L459 384M502 384L503 385L502 384M324 385L325 386L324 385M461 385L462 386L461 385M503 385L504 386L503 385M323 386L324 387L323 386M463 386L464 387L463 386M504 386L505 387L504 386M280 387L281 388L280 387M321 387L322 388L321 387M465 387L466 388L465 387M505 387L506 388L505 387M279 388L280 389L279 388M319 388L320 389L319 388M466.667 388.333L467.333 388.667L466.667 388.333M278 389L279 390L278 389M468 389L469 390L468 389M277 390L278 391L277 390M316 390L317 391L316 390M470 390L471 391L470 390M276 391L277 392L276 391M314 391L315 392L314 391M471 391L472 392L471 391M275 392L276 393L275 392M313 392L314 393L313 392M473 392L474 393L473 392M274 393L275 394L274 393M311 393L312 394L311 393M474 393L475 394L474 393M273 394L274 395L273 394M310 394L311 395L310 394M476 394L477 395L476 394M272 395L273 396L272 395M477 395L478 396L477 395M271 396L272 397L271 396M307 396L308 397L307 396M270 397L271 398L270 397M306 397L307 398L306 397M480 397L481 398L480 397M269 398L270 399L269 398M481 398L482 399L481 398M268 399L269 400L268 399M303 399L304 400L303 399M482 399L483 400L482 399M517 399L518 400L517 399M302 400L303 401L302 400M484 400L485 401L484 400M518 400L519 401L518 400M301 401L302 402L301 401M485 401L486 402L485 401M519 401L520 402L519 401M266 402L267 403L266 402M300 402L301 403L300 402M486 402L487 403L486 402M520 402L521 403L520 402M265 403L266 404L265 403M487 403L488 404L487 403M521 403L522 404L521 403M264 404L265 405L264 404M297 404L298 405L297 404M488 404L489 405L488 404M522 404L523 405L522 404M263 405L264 406L263 405M296 405L297 406L296 405M262 406L263 407L262 406M295 406L296 407L295 406M523 406L524 407L523 406M294 407L295 408L294 407M524 407L525 408L524 407M261 408L262 409L261 408M293 408L294 409L293 408M525 408L526 409L525 408M260 409L261 410L260 409M292 409L293 410L292 409M494 409L495 410L494 409M259 410L260 411L259 410M291 410L292 411L291 410M495 410L496 411L495 410M290 411L291 412L290 411M527 411L528 412L527 411M289 412L290 413L289 412M528 412L529 413L528 412M257 413L258 414L257 413M288 413L289 414L288 413M256 414L257 415L256 414M287 414L288 415L287 414M286 415L287 416L286 415M530 415L531 416L530 415M255 416L256 417L255 416M285 416L286 417L285 416M500 416L501 417L500 416M531 416L532 417L531 416M254 417L255 418L254 417M501 417L502 418L501 417M502 418L503 419L502 418M532 418L533 419L532 418M253 419L254 420L253 419M283 419L284 420L283 419M503 419L504 420L503 419M533 419L534 420L533 419M252 420L253 421L252 420M282 420L283 421L282 420M504 420L505 421L504 420M281 421L282 422L281 421M534 421L535 422L534 421M251 422L252 423L251 422M280 422L281 423L280 422M505 422L506 423L505 422M535 422L536 423L535 422M250 423L251 424L250 423M506 423L507 424L506 423M279 424L280 425L279 424M507 424L508 425L507 424M536 424L537 425L536 424M249 425L250 426L249 425M278 425L279 426L278 425M508 425L509 426L508 425M277 426L278 427L277 426M537 426L538 427L537 426M248 427L249 428L248 427M509 427L510 428L509 427M538 427L539 428L538 427M247 428L251 430L251 429L247 428M263 428L263 429L275 429L263 428M276 428L277 429L276 428z"/>
<path style="fill:#ffffff; stroke:none;" d="M166 452L178 474C199.408 466.209 219.094 457.726 242 454.428C265.203 451.088 290.867 453.864 314 457.272C330.92 459.764 347.59 463.625 364 468.424C370.324 470.274 380.334 476.274 386.867 475.472C392.497 474.781 396.517 456.823 397 452C379.168 447.872 361.961 440.767 344 436.651C289.628 424.191 214.883 419.762 166 452z"/>
<path style="fill:#206491; stroke:none;" d="M510 428L511 429L510 428z"/>
<path style="fill:#3191cf; stroke:none;" d="M251 429L252 430L251 429z"/>
<path style="fill:#206491; stroke:none;" d="M539 429L540 430L539 429M511 430L512 431L511 430M512 431L513 432L512 431M540 431L541 432L540 431M513 433L514 434L513 433M541 433L542 434L541 433M514 434L515 435L514 434M542 435L543 436L542 435M515 436L516 437L515 436M516 437L517 438L516 437M543 437L544 438L543 437M544.333 438.667L544.667 439.333L544.333 438.667M517 439L518 440L517 439M518 441L519 442L518 441M545 441L546 442L545 441M519 443L520 444L519 443M546 443L547 444L546 443M520.333 444.667L520.667 445.333L520.333 444.667M547 445L548 446L547 445M521.333 446.667L521.667 447.333L521.333 446.667M548.333 447.667L548.667 448.333L548.333 447.667M522.333 448.667L522.667 449.333L522.333 448.667M523.333 450.667L523.667 451.333L523.333 450.667M549 450L550 451L549 450M550.333 452.667L550.667 453.333L550.333 452.667z"/>
<path style="fill:#3191cf; stroke:none;" d="M251 453L252 454L251 453z"/>
<path style="fill:#206491; stroke:none;" d="M252 453L252 454L262 455L252 453M524 453L525 454L524 453M241 454L241 455L246 455L241 454z"/>
<path style="fill:#010203; stroke:none;" d="M540 592C533.01 592 518.3 590.462 512.325 594.028C501.457 600.514 493.335 616.115 483 624.334C465.818 637.999 445.461 647.842 424 652.576C348.831 669.154 270.812 620.283 253.235 545C245.531 512.004 253.477 485.745 261 454C254.644 454 240.672 452.113 235.703 456.742C229.755 462.284 228.41 479.27 227.272 487C222.619 518.58 227.128 553.075 240.781 582C285.061 675.807 406.151 709.225 491 648.421C509.449 635.199 532.899 614.432 540 592z"/>
<path style="fill:#206491; stroke:none;" d="M650 454L650 455L676 455L650 454M705 484L706 484L706 455L717 455L717 493C720.138 485.522 720.018 465.016 717.682 457.148C716.534 453.279 708.424 452.577 706.028 455.603C701.971 460.725 705 477.551 705 484M740 454L740 455L751 455L751 494L752 494L752 454L740 454M759 508L760 508L760 455L776 457C772.908 453.843 761.094 451.164 759.318 457.148C755.041 471.555 759 492.929 759 508M798 454L796 486L796 487L799 488L799 455L808 455L798 454M832 454L832 455L845 455L832 454M235.667 455.333L236.333 455.667L235.667 455.333M525 455L526 456L525 455M551.333 455.667L551.667 456.333L551.333 455.667z"/>
<path style="fill:#010203; stroke:none;" d="M650 455L650 509C661.893 509 677.532 510.768 687.999 504.03C702.664 494.591 703.424 468.099 687.985 458.955C677.101 452.509 662.131 455 650 455z"/>
<path style="fill:#206491; stroke:none;" d="M679.667 455.333L680.333 455.667L679.667 455.333z"/>
<path style="fill:#010203; stroke:none;" d="M706 455C706 467.978 701.931 489.54 709.008 500.985C716.08 512.42 741.978 512.816 748.911 500.985C755.328 490.031 751 467.456 751 455L740 455C740 465.344 744.133 487.217 738.258 495.942C733.369 503.203 722.048 501.411 718.318 493.985C713.439 484.271 717 465.755 717 455L706 455M760 455L760 509L769 509L769 469C779.88 481.757 789.742 508.998 808 509L808 455L799 455L799 488L773.816 456.028L760 455M832 455L811 509C814.391 509 819.612 509.939 822.298 507.397C826.922 503.02 824.908 496.374 833.004 496.019C837.212 495.835 844.937 494.662 848.606 497.028C852.214 499.354 851.907 504.544 854.818 507.397C857.429 509.955 862.66 509 866 509L845 455L832 455z"/>
<path style="fill:#206491; stroke:none;" d="M260.333 456.667L260.667 457.333L260.333 456.667M682.667 456.333L683.333 456.667L682.667 456.333M831.333 456.667L831.667 457.333L831.333 456.667M845.333 456.667L845.667 457.333L845.333 456.667M234 457L235 458L234 457M526.333 457.667L526.667 458.333L526.333 457.667M685 457L686 458L685 457M552.333 458.667L552.667 459.333L552.333 458.667M687 458L688 459L687 458M776 458L777 459L776 458M259 459L260 460L259 459M689 459L690 460L689 459M777 459L778 460L777 459M830 459L831 460L830 459M846 459L847 460L846 459M233 460L234 461L233 460M527 460L528 461L527 460M690 460L691 461L690 460M258.333 461.667L258.667 462.333L258.333 461.667M553.333 461.667L553.667 462.333L553.333 461.667M691 461L692 462L691 461M778 461L779 462L778 461M829.333 461.667L829.667 462.333L829.333 461.667M847.333 461.667L847.667 462.333L847.333 461.667M528.333 462.667L528.667 463.333L528.333 462.667M779 462L780 463L779 462M232.333 463.667L232.667 464.333L232.333 463.667M693 463L694 464L693 463M780 463L781 464L780 463M257.333 464.667L257.667 465.333L257.333 464.667M554.333 464.667L554.667 465.333L554.333 464.667M663 464L663 465L674 465L663 464M694 464L695 465L694 464M828 464L829 465L828 464M848 464L849 465L848 464M529.333 465.667L529.667 466.333L529.333 465.667z"/>
<path style="fill:#3191cf; stroke:none;" d="M663 465L663 499C668.909 498.996 675.937 499.15 680.786 495.196C688.777 488.68 687.568 472.448 678.957 467.009C674.354 464.102 668.194 465 663 465z"/>
<path style="fill:#206491; stroke:none;" d="M676 465L677 466L676 465M695 465L696 466L695 465M781 465L782 466L781 465M231.333 466.667L231.667 467.333L231.333 466.667M678 466L679 467L678 466M782 466L783 467L782 466M827.333 466.667L827.667 467.333L827.333 466.667M849 466L850 467L849 466M256.333 467.667L256.667 468.333L256.333 467.667M680 467L681 468L680 467M696 467L697 468L696 467M838 467L837 470L838 470L838 467M530.333 468.667L530.667 469.333L530.333 468.667M555.333 468.667L555.667 469.333L555.333 468.667M681 468L682 469L681 468M783 468L784 469L783 468z"/>
<path style="fill:#3191cf; stroke:none;" d="M838 468L831 487L846 487L838 468z"/>
<path style="fill:#206491; stroke:none;" d="M850.333 468.667L850.667 469.333L850.333 468.667M682 469L683 470L682 469M697.333 469.667L697.667 470.333L697.333 469.667M769 469L770 470L769 469M784 469L785 470L784 469M826 469L827 470L826 469M839 469L840 470L839 469M230.333 470.667L230.667 471.333L230.333 470.667M255.333 470.667L255.667 471.333L255.333 470.667M770 470L771 471L770 470M785 470L786 471L785 470M556 471L556 474L557 474L556 471M683 471L684 472L683 471M771 471L772 472L771 471M825.333 471.667L825.667 472.333L825.333 471.667M836 471L837 472L836 471M851 471L852 472L851 471M531.333 472.667L531.667 473.333L531.333 472.667M684.333 472.667L684.667 473.333L684.333 472.667M698 472L698 475L699 475L698 472M786 472L787 473L786 472M840 472L841 473L840 472z"/>
<path style="fill:#ffffff; stroke:none;" d="M255 473L251 499C326.5 493.041 391.643 531.567 464 544.25C480.457 547.135 497.257 549.994 514 550C518.345 550.002 526.794 551.604 530.486 548.972C535.711 545.248 535.878 528.908 536 523C481.3 529.913 428.993 507.872 378 492.026C337.551 479.456 297.304 473 255 473z"/>
<path style="fill:#206491; stroke:none;" d="M772 473L773 474L772 473M787 473L788 474L787 473M852.333 473.667L852.667 474.333L852.333 473.667M229.333 474.667L229.667 475.333L229.333 474.667M254.333 474.667L254.667 475.333L254.333 474.667M773 474L774 475L773 474M824 474L825 475L824 474M835 474L836 475L835 474M841.333 474.667L841.667 475.333L841.333 474.667M532.333 475.667L532.667 476.333L532.333 475.667M685.333 475.667L685.667 476.333L685.333 475.667z"/>
<path style="fill:#ffffff; stroke:none;" d="M157 512L177 525L178 525C186.143 517.026 195.276 511.509 206 507.692C210.74 506.005 220.733 505.261 224.062 501.411C228.432 496.358 227.379 482.579 229 476C210.366 476.802 189.672 484.643 174 494.425C167.219 498.658 159.655 504.19 157 512z"/>
<path style="fill:#b3c6dd; stroke:none;" d="M254 476L255 477L254 476z"/>
<path style="fill:#206491; stroke:none;" d="M557.333 476.667L557.667 477.333L557.333 476.667M789 476L790 477L789 476M823.333 476.667L823.667 477.333L823.333 476.667M834.333 476.667L834.667 477.333L834.333 476.667M853 476L854 477L853 476z"/>
<path style="fill:#3191cf; stroke:none;" d="M228 477L229 478L228 477z"/>
<path style="fill:#206491; stroke:none;" d="M775 477L776 478L775 477M790 477L791 478L790 477M842 477L843 478L842 477M228.333 478.667L228.667 479.333L228.333 478.667M253 478L253 481L254 481L253 478M699 478L699 485L700 485L699 478M776 478L777 479L776 478M854.333 478.667L854.667 479.333L854.333 478.667M533 479L533 482L534 482L533 479M686 479L686 485L687 485L686 479M791 479L792 480L791 479M822 479L823 480L822 479M833 479L834 480L833 479M843.333 479.667L843.667 480.333L843.333 479.667M777 480L778 481L777 480M792 480L793 481L792 480M558 481L558 484L559 484L558 481M778 481L779 482L778 481M821.333 481.667L821.667 482.333L821.333 481.667M855 481L856 482L855 481M832 482L833 483L832 482M844.333 482.667L844.667 483.333L844.333 482.667M227 483L227 486L228 486L227 483M252.333 483.667L252.667 484.333L252.333 483.667M794 483L795 484L794 483M856.333 483.667L856.667 484.333L856.333 483.667M534 484L534 487L535 487L534 484M780 484L781 485L780 484M795 484L796 485L795 484M820 484L821 485L820 484M831.333 484.667L831.667 485.333L831.333 484.667z"/>
<path style="fill:#3191cf; stroke:none;" d="M252 485L253 486L252 485z"/>
<path style="fill:#206491; stroke:none;" d="M781 485L782 486L781 485M845 485L846 486L845 485M559 486L559 491L560 491L559 486M819.333 486.667L819.667 487.333L819.333 486.667M857 486L858 487L857 486M685.333 487.667L685.667 488.333L685.333 487.667M782 487L783 488L782 487M831 487L831 488L846 488L831 487M251 488L251 492L252 492L251 488M698 488L698 491L699 491L698 488M783 488L784 489L783 488M858 488L859 489L858 488z"/>
<path style="fill:#3191cf; stroke:none;" d="M226 489L227 490L226 489z"/>
<path style="fill:#206491; stroke:none;" d="M535 489L535 494L536 494L535 489M784 489L785 490L784 489M818.333 489.667L818.667 490.333L818.333 489.667M226 490L226 493L227 493L226 490M684.333 490.667L684.667 491.333L684.333 490.667M785 491L786 492L785 491M859 491L860 492L859 491M683 492L684 493L683 492M697.333 492.667L697.667 493.333L697.333 492.667M786 492L787 493L786 492M817 492L818 493L817 492M706 493L706 496L707 496L706 493M739.333 493.667L739.667 494.333L739.333 493.667M860 493L861 494L860 493M560 494L560 501L561 501L560 494M787 494L788 495L787 494M816.333 494.667L816.667 495.333L816.333 494.667z"/>
<path style="fill:#ffffff; stroke:none;" d="M558 547C577.425 545.454 597.996 537.149 614 526.254C620.14 522.074 627.926 516.389 630 509L611 496.33L599 504.251L575 515.645L562.028 520.563L558 547z"/>
<path style="fill:#206491; stroke:none;" d="M680 495L681 496L680 495M696 495L697 496L696 495M718 495L719 496L718 495M788 495L789 496L788 495M861.333 495.667L861.667 496.333L861.333 495.667M250 496L250 499L251 499L250 496M679 496L680 497L679 496M695 496L696 497L695 496M719 496L720 497L719 496M738 496L739 497L738 496M789 496L790 497L789 496M827 496L827 497L850 497L827 496M536 497L536 504L537 504L536 497M677 497L678 498L677 497M720 497L721 498L720 497M737 497L738 498L737 497M750.333 497.667L750.667 498.333L750.333 497.667M815 497L816 498L815 497z"/>
<path style="fill:#b3c6dd; stroke:none;" d="M225 498L226 499L225 498z"/>
<path style="fill:#3191cf; stroke:none;" d="M250 499C250 553.69 268.827 604.886 318 634.55C365.805 663.389 427.57 661.815 474 630.996C487.406 622.098 505.022 608.458 511 593C485.352 593 458.796 588.794 434 582.265C419.205 578.37 404.036 571.252 389 569L397 545L469 563.576L526 568L532 549C506.249 555.131 473.236 546.361 448 540.65C381.159 525.526 320.459 493.439 250 499z"/>
<path style="fill:#206491; stroke:none;" d="M672 498L672 499L675 499L672 498M694 498L695 499L694 498M707.333 498.667L707.667 499.333L707.333 498.667M721 498L722 499L721 498M736 498L737 499L736 498M790 498L791 499L790 498M826 498L827 499L826 498M850 498L851 499L850 498M862 498L863 499L862 498M225 499L225 523L226 523L225 499M693 499L694 500L693 499M723 499L724 500L723 499M734.667 499.333L735.333 499.667L734.667 499.333M791 499L792 500L791 499M814.333 499.667L814.667 500.333L814.333 499.667M692 500L693 501L692 500M708 500L709 501L708 500M726 500L726 501L732 501L726 500M749 500L750 501L749 500M825.333 500.667L825.667 501.333L825.333 500.667M851.333 500.667L851.667 501.333L851.333 500.667M863.333 500.667L863.667 501.333L863.333 500.667M691 501L692 502L691 501M792 501L793 502L792 501M690 502L691 503L690 502M709 502L710 503L709 502M793 502L794 503L793 502M813 502L814 503L813 502M689 503L690 504L689 503M710 503L711 504L710 503M747 503L748 504L747 503M794 503L795 504L794 503M824.333 503.667L824.667 504.333L824.333 503.667M852 503L853 504L852 503M864 503L865 504L864 503M687 504L688 505L687 504M711 504L712 505L711 504M746 504L747 505L746 504M812.333 504.667L812.667 505.333L812.333 504.667M249 505L249 519L250 519L249 505M685 505L686 506L685 505M712 505L713 506L712 505M745 505L746 506L745 505M795 505L796 506L795 505M853.333 505.667L853.667 506.333L853.333 505.667M865.333 505.667L865.667 506.333L865.333 505.667M683 506L684 507L683 506M714 506L715 507L714 506M743 506L744 507L743 506M796 506L797 507L796 506M823 506L824 507L823 506M679.667 507.333L680.333 507.667L679.667 507.333M715.667 507.333L716.333 507.667L715.667 507.333M741 507L742 508L741 507M811 507L812 508L811 507M670 508L670 509L677 509L670 508M718.667 508.333L719.333 508.667L718.667 508.333M738.667 508.333L739.333 508.667L738.667 508.333M822 508L823 509L822 508M854 508L855 509L854 508M866 508L867 509L866 508M722 509L722 510L736 510L722 509M536 520L536 524L537 524L536 520M250 525L250 530L251 530L250 525M560 526L560 531L561 531L560 526M672 527L672 528L680 527L672 527M717 526L717 527L727 527L717 526M650 527L651 528L650 527z"/>
<path style="fill:#010203; stroke:none;" d="M651 527L661 566C673.829 565.955 673.13 550.189 676 540L683 566C696.093 565.954 700.01 538.352 701 527C689.77 527.134 688.74 545.708 688 555L687 555L680 527C668.162 527.14 667.963 545.488 666 555L665 555L659 527L651 527z"/>
<path style="fill:#206491; stroke:none;" d="M693.333 527.667L693.667 528.333L693.333 527.667M701.333 527.667L701.667 528.333L701.333 527.667M714.667 527.333L715.333 527.667L714.667 527.333z"/>
<path style="fill:#010203; stroke:none;" d="M716 527.532C691.245 533.43 702.564 570.959 727 565.319C753.187 559.276 742.023 521.332 716 527.532z"/>
<path style="fill:#206491; stroke:none;" d="M729 527L730 528L729 527z"/>
<path style="fill:#010203; stroke:none;" d="M745 527L745 565L753 565L753 553C764.167 553.132 765.061 564.991 777 565L769 551C777.759 546.869 780.1 534.606 770.957 529.089C764.067 524.933 752.742 527 745 527z"/>
<path style="fill:#206491; stroke:none;" d="M767.667 527.333L768.333 527.667L767.667 527.333M779 527L779 566C788.423 566 807.85 570.637 808 558L807 558L807 565L780 565C780 554.089 783.211 537.036 779 527z"/>
<path style="fill:#010203; stroke:none;" d="M780 527L780 565L807 565L807 558L788 558L788 527L780 527z"/>
<path style="fill:#206491; stroke:none;" d="M810 527L810 566L829 566L829 565L811 565C811 554.089 814.211 537.036 810 527z"/>
<path style="fill:#010203; stroke:none;" d="M811 527L811 565C818.967 565 828.759 566.572 835.996 562.583C846.856 556.596 848.297 538.12 837.957 530.854C830.486 525.604 819.613 527 811 527z"/>
<path style="fill:#206491; stroke:none;" d="M828 527L828 528L831 528L828 527M226 528L226 533L227 533L226 528M659 528L659 531L660 531L659 528M680.333 528.667L680.667 529.333L680.333 528.667M712 528L713 529L712 528M731.667 528.333L732.333 528.667L731.667 528.333M770 528L771 529L770 528M833.667 528.333L834.333 528.667L833.667 528.333M535 529L535 533L536 533L535 529M651.333 529.667L651.667 530.333L651.333 529.667M710 529L711 530L710 529M733 529L734 530L733 529M772 529L773 530L772 529M836 529L837 530L836 529M671.333 530.667L671.667 531.333L671.333 530.667M709 530L710 531L709 530M735 530L736 531L735 530M773 530L774 531L773 530M837 530L838 531L837 530z"/>
<path style="fill:#3191cf; stroke:none;" d="M560 531L561 532L560 531z"/>
<path style="fill:#206491; stroke:none;" d="M692.333 531.667L692.667 532.333L692.333 531.667M700.333 531.667L700.667 532.333L700.333 531.667M736 531L737 532L736 531M774 531L775 532L774 531M839 531L840 532L839 531M681.333 532.667L681.667 533.333L681.333 532.667M737 532L738 533L737 532M775.333 532.667L775.667 533.333L775.333 532.667M840 532L841 533L840 532M652.333 533.667L652.667 534.333L652.333 533.667M660.333 533.667L660.667 534.333L660.333 533.667M738 533L739 534L738 533M841 533L842 534L841 533M251 534L251 537L252 537L251 534M670.333 534.667L670.667 535.333L670.333 534.667M699 534L699 537L700 537L699 534M705 534L706 535L705 534M718 534L719 535L718 534z"/>
<path style="fill:#3191cf; stroke:none;" d="M719.001 534.657C704.702 538.986 711.222 562.077 725.985 557.347C739.534 553.007 732.846 530.465 719.001 534.657z"/>
<path style="fill:#206491; stroke:none;" d="M725.667 534.333L726.333 534.667L725.667 534.333M753 534L753 546L765 546L765 545L754 545L754 535L765 535L753 534M776.333 534.667L776.667 535.333L776.333 534.667M819 534L819 559L827 559L827 558L820 558L819 534z"/>
<path style="fill:#3191cf; stroke:none;" d="M820 534L820 558C840.233 557.987 839.924 534.167 820 534z"/>
<path style="fill:#206491; stroke:none;" d="M827.667 534.333L828.333 534.667L827.667 534.333M559 535L559 539L560 539L559 535M691 535L691 538L692 538L691 535M704 535L705 536L704 535M716 535L717 536L716 535M728 535L729 536L728 535M739 535L740 536L739 535z"/>
<path style="fill:#3191cf; stroke:none;" d="M754 535L754 545C770.396 545 770.396 535 754 535z"/>
<path style="fill:#206491; stroke:none;" d="M766 535L767 536L766 535M830 535L831 536L830 535M842 535L843 536L842 535M534 536L534 539L535 539L534 536M682.333 536.667L682.667 537.333L682.333 536.667M714 536L715 537L714 536M729 536L730 537L729 536M740.333 536.667L740.667 537.333L740.333 536.667M767 536L768 537L767 536M831 536L832 537L831 536M227 537L227 540L228 540L227 537M653.333 537.667L653.667 538.333L653.333 537.667M661.333 537.667L661.667 538.333L661.333 537.667M703 537L704 538L703 537M713 537L714 538L713 537M730 537L731 538L730 537M843 537L844 538L843 537M669.333 538.667L669.667 539.333L669.333 538.667M698.333 538.667L698.667 539.333L698.333 538.667M712 538L713 539L712 538M731 538L732 539L731 538M741.333 538.667L741.667 539.333L741.333 538.667M768 538L768 543L769 543L768 538M833 538L834 539L833 538M252 539L252 542L253 542L252 539M690 539L690 542L691 542L690 539M702.333 539.667L702.667 540.333L702.333 539.667M834.333 539.667L834.667 540.333L834.333 539.667M844 539L844 542L845 542L844 539M654.333 540.667L654.667 541.333L654.333 540.667M676 540L677 541L676 540M683.333 540.667L683.667 541.333L683.333 540.667M711 540L712 541L711 540M732 540L733 541L732 540z"/>
<path style="fill:#3191cf; stroke:none;" d="M533 541L534 542L533 541z"/>
<path style="fill:#206491; stroke:none;" d="M558 541L558 544L559 544L558 541M662 541L662 544L663 544L662 541M675.333 541.667L675.667 542.333L675.333 541.667M228 542L228 546L229 546L228 542M533.333 542.667L533.667 543.333L533.333 542.667M668 542L668 545L669 545L668 542M697.333 542.667L697.667 543.333L697.333 542.667M733 542L733 545L734 545L733 542M742 542L742 551L743 551L742 542M835.333 542.667L835.667 543.333L835.333 542.667M677.333 543.667L677.667 544.333L677.333 543.667M701 543L701 549L702 549L701 543M710 543L710 549L711 549L710 543M767 543L768 544L767 543M776.333 543.667L776.667 544.333L776.333 543.667M253 544L253 547L254 547L253 544z"/>
<path style="fill:#b3c6dd; stroke:none;" d="M558 544L559 545L558 544z"/>
<path style="fill:#206491; stroke:none;" d="M655.333 544.667L655.667 545.333L655.333 544.667M684.333 544.667L684.667 545.333L684.333 544.667M689.333 544.667L689.667 545.333L689.333 544.667M766 544L767 545L766 544z"/>
<path style="fill:#ffffff; stroke:none;" d="M397 545L389 569C409.212 573.788 428.514 581.819 449 585.996C507.04 597.83 565.997 595.094 620 570C618.576 565.159 611.903 548.135 605.895 548.539C599.279 548.983 591.417 554.859 585 557C568.584 562.476 550.338 567.284 533 567.96C504.704 569.062 474.569 565.65 447 559.116C430.421 555.186 413.734 547.471 397 545z"/>
<path style="fill:#206491; stroke:none;" d="M674.333 545.667L674.667 546.333L674.333 545.667M532.333 546.667L532.667 547.333L532.333 546.667M557.333 546.667L557.667 547.333L557.333 546.667M663.333 546.667L663.667 547.333L663.333 546.667M667 546L667 549L668 549L667 546M696.333 546.667L696.667 547.333L696.333 546.667M775 546L776 547L775 546M678.333 547.667L678.667 548.333L678.333 547.667M774 547L775 548L774 547M229.333 548.667L229.667 549.333L229.333 548.667M254.333 548.667L254.667 549.333L254.333 548.667M656.333 548.667L656.667 549.333L656.333 548.667M685.333 548.667L685.667 549.333L685.333 548.667M688 548L688 551L689 551L688 548M733 548L733 551L734 551L733 548M773 548L774 549L773 548M673.333 549.667L673.667 550.333L673.333 549.667M695.333 549.667L695.667 550.333L695.333 549.667M772 549L773 550L772 549M835.333 549.667L835.667 550.333L835.333 549.667M531.333 550.667L531.667 551.333L531.333 550.667M556 550L556 553L557 553L556 550M664 550L664 553L665 553L664 550M666 550L666 553L667 553L666 550M771 550L772 551L771 550M844 550L844 553L845 553L844 550M679.333 551.667L679.667 552.333L679.333 551.667M702.333 551.667L702.667 552.333L702.333 551.667M711 551L712 552L711 551M769.333 551.667L769.667 552.333L769.333 551.667M230.333 552.667L230.667 553.333L230.333 552.667M255.333 552.667L255.667 553.333L255.333 552.667M657.333 552.667L657.667 553.333L657.333 552.667M686 552L688 555L686 552M732 552L733 553L732 552M741.333 552.667L741.667 553.333L741.333 552.667M834.333 552.667L834.667 553.333L834.333 552.667M672.333 553.667L672.667 554.333L672.333 553.667M694.333 553.667L694.667 554.333L694.333 553.667M712 553L713 554L712 553M731 553L732 554L731 553M753 553L753 565L754 565L753 553M760 553L761 554L760 553M530.333 554.667L530.667 555.333L530.333 554.667M555.333 554.667L555.667 555.333L555.333 554.667M665 554L666 555L665 554M703.333 554.667L703.667 555.333L703.333 554.667M713 554L714 555L713 554M770 554L771 555L770 554M833 554L834 555L833 554M843.333 554.667L843.667 555.333L843.333 554.667M256.333 555.667L256.667 556.333L256.333 555.667M658.333 555.667L658.667 556.333L658.333 555.667M680.333 555.667L680.667 556.333L680.333 555.667M714 555L715 556L714 555M740 555L741 556L740 555M771 555L772 556L771 555M832 555L833 556L832 555M231.333 556.667L231.667 557.333L231.333 556.667M704 556L705 557L704 556M715 556L716 557L715 556M728 556L729 557L728 556M762 556L763 557L762 556M831 556L832 557L831 556M842 556L843 557L842 556M529.333 557.667L529.667 558.333L529.333 557.667M671.333 557.667L671.667 558.333L671.333 557.667M693.333 557.667L693.667 558.333L693.333 557.667M717 557L718 558L717 557M726.667 557.333L727.333 557.667L726.667 557.333M739 557L740 558L739 557M772 557L773 558L772 557M829 557L830 558L829 557M257.333 558.667L257.667 559.333L257.333 558.667M554.333 558.667L554.667 559.333L554.333 558.667M705 558L706 559L705 558M720 558L720 559L725 559L720 558M738 558L739 559L738 558M773 558L774 559L773 558M841 558L842 559L841 558M232.333 559.667L232.667 560.333L232.333 559.667M659.333 559.667L659.667 560.333L659.333 559.667M681.333 559.667L681.667 560.333L681.333 559.667M706 559L707 560L706 559M737 559L738 560L737 559M764 559L765 560L764 559M840 559L841 560L840 559M528.333 560.667L528.667 561.333L528.333 560.667M692 560L692 563L693 563L692 560M707 560L708 561L707 560M736 560L737 561L736 560M774 560L775 561L774 560M839 560L840 561L839 560M258.333 561.667L258.667 562.333L258.333 561.667M553.333 561.667L553.667 562.333L553.333 561.667M670.333 561.667L670.667 562.333L670.333 561.667M708 561L709 562L708 561M735 561L736 562L735 561M775 561L776 562L775 561M838 561L839 562L838 561M709 562L710 563L709 562M734 562L735 563L734 562M766 562L767 563L766 562M836 562L837 563L836 562M233 563L234 564L233 563M527 563L528 564L527 563M660.333 563.667L660.667 564.333L660.333 563.667M682.333 563.667L682.667 564.333L682.333 563.667M711 563L712 564L711 563M732 563L733 564L732 563M834.667 563.333L835.333 563.667L834.667 563.333M259 564L260 565L259 564M552 564L551 566L553 566L552 564M691.333 564.667L691.667 565.333L691.333 564.667M713 564L714 565L713 564M730 564L731 565L730 564M777 564L768 565L768 566L777 564M831.667 564.333L832.333 564.667L831.667 564.333M526.333 565.667L526.667 566.333L526.333 565.667M669 565L670 566L669 565M715 565L715 566L718 566L715 565M726 565L726 566L729 566L726 565M745 565L745 566L753 566L745 565M234 566L235 567L234 566M260.333 566.667L260.667 567.333L260.333 566.667M543 566L543 567L547 567L543 566z"/>
<path style="fill:#b3c6dd; stroke:none;" d="M547 566L548 567L547 566z"/>
<path style="fill:#206491; stroke:none;" d="M529 567L529 568L537 568L529 567z"/>
<path style="fill:#b3c6dd; stroke:none;" d="M537 567L538 568L537 567z"/>
<path style="fill:#206491; stroke:none;" d="M235 569L236 570L235 569M261 569L262 570L261 569M236.333 571.667L236.667 572.333L236.333 571.667M262 571L263 572L262 571M263 573L264 574L263 573M237 574L238 575L237 574M264 575L265 576L264 575M238.333 576.667L238.667 577.333L238.333 576.667M265 577L266 578L265 577M239 579L240 580L239 579M266 579L267 580L266 579M240 581L241 582L240 581M267 581L268 582L267 581M241 583L242 584L241 583M268 583L269 584L268 583M242 585L243 586L242 585M269 585L270 586L269 585M270 586L271 587L270 586M243 587L244 588L243 587M271 588L272 589L271 588M244 589L245 590L244 589M272 589L273 590L272 589M245 591L246 592L245 591M273 591L274 592L273 591z"/>
<path style="fill:#3191cf; stroke:none;" d="M537 591L538 592L537 591z"/>
<path style="fill:#206491; stroke:none;" d="M538 591L538 592L541 593L538 591M512 592L512 593L529 593L512 592M246 593L247 594L246 593M511 593L512 594L511 593M275 594L276 595L275 594M539 594L540 595L539 594M247 595L248 596L247 595M276 595L277 596L276 595M510 595L511 596L510 595M248 596L249 597L248 596M509 596L510 597L509 596M538 596L539 597L538 596M277 597L278 598L277 597M537 597L538 598L537 597M249 598L250 599L249 598M278 598L279 599L278 598M508 598L509 599L508 598M279 599L280 600L279 599M507 599L508 600L507 599M536 599L537 600L536 599M250 600L251 601L250 600M506 600L507 601L506 600M251 601L252 602L251 601M280 601L281 602L280 601M505 601L506 602L505 601M535 601L536 602L535 601M281 602L282 603L281 602M534 602L535 603L534 602M252 603L253 604L252 603M282 603L283 604L282 603M504 603L505 604L504 603M253 604L254 605L253 604M283 604L284 605L283 604M503 604L504 605L503 604M533 604L534 605L533 604M502 605L503 606L502 605M532 605L533 606L532 605M254 606L255 607L254 606M501 606L502 607L501 606M255 607L256 608L255 607M285 607L286 608L285 607M500 607L501 608L500 607M531 607L532 608L531 607M286 608L287 609L286 608M530 608L531 609L530 608M256 609L257 610L256 609M287 609L288 610L287 609M257 610L258 611L257 610M288 610L289 611L288 610M289 611L290 612L289 611M528 611L529 612L528 611M290 612L291 613L290 612M527 612L528 613L527 612M259 613L260 614L259 613M291 613L292 614L291 613M495 613L496 614L495 613M260 614L261 615L260 614M292 614L293 615L292 614M494 614L495 615L494 614M261 615L262 616L261 615M293 615L294 616L293 615M525 615L526 616L525 615M294 616L295 617L294 616M524 616L525 617L524 616M262 617L263 618L262 617M295 617L296 618L295 617M523 617L524 618L523 617M263 618L264 619L263 618M296 618L297 619L296 618M264 619L265 620L264 619M297 619L298 620L297 619M488 619L489 620L488 619M522 619L523 620L522 619M265 620L266 621L265 620M487 620L488 621L487 620M521 620L522 621L521 620M266 621L267 622L266 621M300 621L301 622L300 621M486 621L487 622L486 621M520 621L521 622L520 621M301 622L302 623L301 622M485 622L486 623L485 622M519 622L520 623L519 622M302 623L303 624L302 623M484 623L485 624L484 623M518 623L519 624L518 623M268 624L269 625L268 624M303 624L304 625L303 624M482 624L483 625L482 624M517 624L518 625L517 624M269 625L270 626L269 625M305 625L306 626L305 625M481 625L482 626L481 625M270 626L271 627L270 626M306 626L307 627L306 626M480 626L481 627L480 626M271 627L272 628L271 627M307 627L308 628L307 627M272 628L273 629L272 628M309 628L310 629L309 628M477 628L478 629L477 628M273 629L274 630L273 629M310 629L311 630L310 629M476 629L477 630L476 629M274 630L275 631L274 630M311 630L312 631L311 630M474 630L475 631L474 630M275 631L276 632L275 631M313 631L314 632L313 631M473 631L474 632L473 631M276 632L277 633L276 632M314 632L315 633L314 632M471 632L472 633L471 632M277 633L278 634L277 633M316 633L317 634L316 633M470 633L471 634L470 633M278 634L279 635L278 634M468 634L469 635L468 634M279 635L280 636L279 635M319 635L320 636L319 635M466.667 635.333L467.333 635.667L466.667 635.333M280 636L281 637L280 636M321 636L322 637L321 636M465 636L466 637L465 636M505 636L506 637L505 636M323 637L324 638L323 637M463 637L464 638L463 637M504 637L505 638L504 637M324 638L325 639L324 638M461 638L462 639L461 638M503 638L504 639L503 638M284 639L285 640L284 639M326.667 639.333L327.333 639.667L326.667 639.333M459 639L460 640L459 639M502 639L503 640L502 639M285 640L286 641L285 640M328 640L329 641L328 640M457 640L458 641L457 640M501 640L502 641L501 640M286 641L287 642L286 641M330 641L331 642L330 641M455 641L456 642L455 641M287 642L288 643L287 642M332.667 642.333L333.333 642.667L332.667 642.333M453 642L454 643L453 642M498 642L499 643L498 642M289 643L290 644L289 643M335 643L336 644L335 643M451 643L452 644L451 643M497 643L498 644L497 643M290 644L291 645L290 644M337 644L338 645L337 644M448.667 644.333L449.333 644.667L448.667 644.333M496 644L497 645L496 644M291 645L292 646L291 645M339.667 645.333L340.333 645.667L339.667 645.333M446 645L447 646L446 645M292 646L293 647L292 646M342 646L343 647L342 646M443.667 646.333L444.333 646.667L443.667 646.333M493 646L494 647L493 646M294 647L295 648L294 647M344.667 647.333L345.333 647.667L344.667 647.333M441 647L442 648L441 647M492 647L493 648L492 647M295 648L296 649L295 648M347.667 648.333L348.333 648.667L347.667 648.333M438 648L439 649L438 648M490 648L491 649L490 648M297 649L298 650L297 649M350.667 649.333L351.333 649.667L350.667 649.333M434.667 649.333L435.333 649.667L434.667 649.333M489 649L490 650L489 649M298 650L299 651L298 650M354.667 650.333L355.333 650.667L354.667 650.333M431.667 650.333L432.333 650.667L431.667 650.333M488 650L489 651L488 650M357 651L357 652L360 652L357 651M427.667 651.333L428.333 651.667L427.667 651.333M486 651L487 652L486 651M301 652L302 653L301 652M362.667 652.333L363.333 652.667L362.667 652.333M422 652L422 653L425 653L422 652M485 652L486 653L485 652M303 653L304 654L303 653M367 653L367 654L370 654L367 653M417 653L417 654L420 654L417 653M483 653L484 654L483 653M304 654L305 655L304 654M373 654L373 655L377 655L373 654M410 654L410 655L414 655L410 654M481 654L482 655L481 654M306 655L307 656L306 655M382 655L382 656L405 656L382 655M480 655L481 656L480 655M307.667 656.333L308.333 656.667L307.667 656.333M478 656L479 657L478 656M309 657L310 658L309 657M476 657L477 658L476 657M311 658L312 659L311 658M475 658L476 659L475 658M313 659L314 660L313 659M473 659L474 660L473 659M315 660L316 661L315 660M471 660L472 661L471 660M317 661L318 662L317 661M469 661L470 662L469 661M318.667 662.333L319.333 662.667L318.667 662.333M467 662L468 663L467 662M320.667 663.333L321.333 663.667L320.667 663.333M465 663L466 664L465 663M323 664L324 665L323 664M463 664L464 665L463 664M325 665L326 666L325 665M461 665L462 666L461 665M327 666L328 667L327 666M458.667 666.333L459.333 666.667L458.667 666.333M329.667 667.333L330.333 667.667L329.667 667.333M456 667L457 668L456 667M332 668L333 669L332 668M453.667 668.333L454.333 668.667L453.667 668.333M334.667 669.333L335.333 669.667L334.667 669.333M451 669L452 670L451 669M337.667 670.333L338.333 670.667L337.667 670.333M448 670L449 671L448 670M340.667 671.333L341.333 671.667L340.667 671.333M445.667 671.333L446.333 671.667L445.667 671.333M343.667 672.333L344.333 672.667L343.667 672.333M442.667 672.333L443.333 672.667L442.667 672.333M347.667 673.333L348.333 673.667L347.667 673.333M438.667 673.333L439.333 673.667L438.667 673.333M350.667 674.333L351.333 674.667L350.667 674.333M434 674L434 675L437 675L434 674M354 675L354 676L357 676L354 675M430 675L430 676L433 676L430 675M358 676L358 677L361 677L358 676M425 676L425 677L428 677L425 676M364 677L364 678L367 678L364 677M420 677L420 678L423 678L420 677M370 678L370 679L374 679L370 678M412 678L412 679L417 679L412 678M379 679L379 680L389 680L379 679M397 679L397 680L408 680L397 679z"/>
</svg>
