<?xml version="1.0" standalone="yes"?>
<svg xmlns="http://www.w3.org/2000/svg" width="1024" height="1024">
<path style="fill:#012791; stroke:none;" d="M0 0L0 1024L1024 1024L1024 0L0 0z"/>
<path style="fill:#010103; stroke:none;" d="M384 344.424C337.842 350.485 297.774 365.813 266.289 402C186.568 493.628 232.191 643.207 350 674.265C370.45 679.657 392.037 681.23 413 678.714C491.024 669.353 555.494 604.089 560.911 525C566.573 442.318 509.96 364.455 428 347.801C413.953 344.947 398.321 342.544 384 344.424z"/>
<path style="fill:#012791; stroke:none;" d="M255 473C289.756 473 323.365 477.053 357 486.151C389.745 495.009 420.923 508.276 454 516.116C472.191 520.427 491.346 523.144 510 523.961C518.838 524.348 528.329 522.62 537 524C537 469.188 517.385 419.547 469 389.425C391.644 341.267 276.329 380.807 255 473z"/>
<path style="fill:#ffffff; stroke:none;" d="M255 473L251 499C326.664 493.028 392.485 531.322 465 544.424C481.073 547.328 497.642 549.994 514 550C518.345 550.002 526.794 551.604 530.486 548.972C535.711 545.248 535.878 528.908 536 523C473.115 527.963 418.138 502.863 359 486.424C324.776 476.911 290.404 473 255 473z"/>
<path style="fill:#012791; stroke:none;" d="M254 475L255 476L254 475z"/>
<path style="fill:#ffffff; stroke:none;" d="M157 512L177 525L178 525C186.145 517.024 195.276 511.512 206 507.692C210.871 505.957 220.606 505.091 224.142 501.272C228.261 496.823 227.813 482.119 229 476C210.495 476.797 190.783 484.576 175 493.861C167.844 498.071 159.761 503.879 157 512z"/>
<path style="fill:#012791; stroke:none;" d="M228 478L229 479L228 478M253.333 479.667L253.667 480.333L253.333 479.667z"/>
<path style="fill:#c1c2d1; stroke:none;" d="M197 483L198 484L197 483z"/>
<path style="fill:#012791; stroke:none;" d="M227.333 483.667L227.667 484.333L227.333 483.667M252.333 484.667L252.667 485.333L252.333 484.667z"/>
<path style="fill:#010103; stroke:none;" d="M650 484L650 538C662.641 538 677.9 540.283 688.996 532.892C703.667 523.12 702.71 495.687 686.996 487.403C676.21 481.716 661.773 484 650 484M706 484C706 497.149 702.038 518.137 708.442 529.985C715.471 542.988 741.695 542.089 748.991 529.996C755.743 518.804 752 496.701 752 484L740 484C740 494.382 744.122 516.17 738.258 524.945C733.398 532.219 722.072 530.585 718.434 522.985C713.604 512.895 717 495.038 717 484L706 484M760 484L760 538L769 538L769 499C780.554 511.581 789.276 537.998 808 538L808 484L798 484L798 517C791.148 508.11 783.654 490.533 773.826 485.028C770.091 482.935 764.146 484 760 484M811 538C814.202 538 819.587 539.005 822.298 536.972C827.799 532.846 824.893 525.414 834 525.019C837.996 524.846 844.28 523.975 847.867 526.028C851.866 528.316 851.584 533.48 854.699 536.397C857.406 538.932 862.594 538 866 538L851.603 501L844.925 485.603L833.419 484.603L826.8 498L811 538z"/>
<path style="fill:#c1c2d1; stroke:none;" d="M187 487L188 488L187 487z"/>
<path style="fill:#64689c; stroke:none;" d="M226 489L227 490L226 489z"/>
<path style="fill:#012791; stroke:none;" d="M251 489L251 492L252 492L251 489M226.333 490.667L226.667 491.333L226.333 490.667z"/>
<path style="fill:#c1c2d1; stroke:none;" d="M179 491L180 492L179 491z"/>
<path style="fill:#012791; stroke:none;" d="M663 493L663 528C668.665 528 675.055 528.74 679.957 525.297C688.23 519.486 688.441 503.865 680.895 497.394C675.891 493.104 669.225 493.004 663 493z"/>
<path style="fill:#ffffff; stroke:none;" d="M558 547C577.614 545.439 599.189 536.906 615 525.36C618.824 522.567 631.221 514.88 628.248 509.09C626.998 506.655 624.093 504.976 622 503.349C619.138 501.126 614.9 496.305 611 496.33C607.626 496.352 604.499 500.214 602 502.1C596.246 506.443 589.615 509.744 583 512.573C577.863 514.77 565.317 516.09 562.028 520.563C558.505 525.353 558.8 540.802 558 547z"/>
<path style="fill:#012791; stroke:none;" d="M250 497C250 550.838 265.286 599.063 312 630.971C390.073 684.301 509.884 645.597 532 550C496.565 550 462.151 545.309 428 535.573C396.402 526.564 366.162 513.568 334 506.424C314.414 502.074 294.899 500.063 275 498.17C267.367 497.443 256.86 500.429 250 497M838 497L831 517L846 517L838 497z"/>
<path style="fill:#c1c2d1; stroke:none;" d="M629 509L630 510L629 509M360 513L361 514L360 513z"/>
<path style="fill:#012791; stroke:none;" d="M560 528L560 531L561 531L560 528M535 529L535 532L536 532L535 529z"/>
<path style="fill:#c1c2d1; stroke:none;" d="M560 531L561 532L560 531z"/>
<path style="fill:#012791; stroke:none;" d="M534.333 536.667L534.667 537.333L534.333 536.667M559 536L559 539L560 539L559 536z"/>
<path style="fill:#c1c2d1; stroke:none;" d="M587 539L588 540L587 539M533 541L534 542L533 541z"/>
<path style="fill:#012791; stroke:none;" d="M533 542L534 543L533 542M558.333 542.667L558.667 543.333L558.333 542.667z"/>
<path style="fill:#c1c2d1; stroke:none;" d="M578 542L579 543L578 542M477 546L478 547L477 546z"/>
<path style="fill:#012791; stroke:none;" d="M532 546L533 547L532 546z"/>
<path style="fill:#64689c; stroke:none;" d="M531 549L532 550L531 549z"/>
</svg>
