<?xml version="1.0" standalone="yes"?>
<svg xmlns="http://www.w3.org/2000/svg" width="1024" height="1024">
<path style="fill:#cf3d97; stroke:none;" d="M0 0L0 1024L1024 1024L1024 0L0 0z"/>
<path style="fill:#ffffff; stroke:none;" d="M157 157L157 867L542 867L542 866C521.414 864.318 499.631 854.705 481 846.306C406.145 812.56 355 743.013 355 660L540 660C540.187 727.735 640.557 750.948 677.957 698C686.448 685.979 689.34 670.481 688.985 656C688.571 639.067 680.568 621.176 668.829 609.09C664.234 604.358 651.047 600.114 649.318 593.895C645.153 578.915 649 557.583 649 542C649 505.785 647.432 469.18 649.019 433.004C649.411 424.075 667.148 417.307 672.764 409.999C689.003 388.87 693.744 360.952 683.546 336C664.229 288.735 589.872 286.419 557.089 319.09C545.251 330.889 540.045 347.578 540 364L355 364C355 261.261 439.17 171.712 541 158L507 157L429 157L157 157z"/>
<path style="fill:#d35fa1; stroke:none;" d="M487 174L488 175L487 174z"/>
<path style="fill:#f9f1f5; stroke:none;" d="M464 185L465 186L464 185z"/>
<path style="fill:#e1a3c3; stroke:none;" d="M424 212L425 213L424 212z"/>
<path style="fill:#d35fa1; stroke:none;" d="M414 221L415 222L414 221M413 222L414 223L413 222M412 223L413 224L412 223M411 224L412 225L411 224M409 226L410 227L409 226M400 236L401 237L400 236z"/>
<path style="fill:#f9f1f5; stroke:none;" d="M382 261L383 262L382 261z"/>
<path style="fill:#e1a3c3; stroke:none;" d="M370 284L371 285L370 284M366 294L367 295L366 294M594 299L595 300L594 299M590 300L591 301L590 300z"/>
<path style="fill:#d35fa1; stroke:none;" d="M662 311L663 312L662 311z"/>
<path style="fill:#f9f1f5; stroke:none;" d="M553 323L554 324L553 323z"/>
<path style="fill:#d35fa1; stroke:none;" d="M548 330L549 331L548 330z"/>
<path style="fill:#f9f1f5; stroke:none;" d="M545 336L546 337L545 336M688 357L689 358L688 357z"/>
<path style="fill:#e1a3c3; stroke:none;" d="M688 372L689 373L688 372z"/>
<path style="fill:#f9f1f5; stroke:none;" d="M683 391L684 392L683 391z"/>
<path style="fill:#e1a3c3; stroke:none;" d="M670 412L671 413L670 412M665 417L666 418L665 417z"/>
<path style="fill:#ffffff; stroke:none;" d="M866 427C856.622 466.574 822.554 490.713 791 512L791 514C821.67 528.337 852.575 558.845 866 590L867 590L867 476C867 462.224 871.306 439.645 866 427z"/>
<path style="fill:#cf3d97; stroke:none;" d="M465 593L498 593L498 476L499 476C501.878 497.373 509.218 519.186 514.849 540C518.586 553.816 520.586 568.75 526.093 582C530.806 593.338 542.189 599.332 554 595.401C566.634 591.197 568.799 577.201 572 566C580.445 536.445 588.786 506.105 595 476L596 476L596 593L629 593L629 489C629 474.534 632.438 454.974 624.801 442.004C614.741 424.92 585.58 422.452 573.638 439.004C567.166 447.974 566.255 461.488 563.627 472C557.845 495.126 548.891 520.246 547 544L545 544C543.977 520.532 535.151 494.917 529.881 472C527.518 461.721 526.862 449.015 521.031 440.001C509.976 422.912 480.184 424.34 469.559 441.004C461.569 453.536 465 472.811 465 487L465 593z"/>
<path style="fill:#e1a3c3; stroke:none;" d="M587 429L588 430L587 429M251 430L252 431L251 430z"/>
<path style="fill:#cf3d97; stroke:none;" d="M226 593L260 593L260 528L332 528L332 494L260 494C260 486.33 257.77 474.38 263.419 468.228C267.821 463.435 276.138 465 282 465L332 465L332 430L269 430C258.363 430 246.109 428.984 237.015 435.638C223.68 445.396 226 464.558 226 479L226 593M450 593L450 559L400 559C393.7 559 385.185 560.253 380.653 554.775C375.504 548.552 378 535.582 378 528L450 528L450 494L378 494C378 486.665 375.612 474.233 380.653 468.228C384.75 463.348 393.334 465 399 465L450 465L450 430L389 430C377.291 430 364.939 429.177 355.09 436.789C343.858 445.469 344 460.229 344 473L344 553C344 565.413 344.002 577.863 355.015 586.072C365.043 593.547 378.146 593 390 593L450 593z"/>
<path style="fill:#f9f1f5; stroke:none;" d="M513 432L514 433L513 432z"/>
<path style="fill:#d35fa1; stroke:none;" d="M360 433L361 434L360 433z"/>
<path style="fill:#f9f1f5; stroke:none;" d="M358 434L359 435L358 434M475 434L476 435L475 434z"/>
<path style="fill:#e1a3c3; stroke:none;" d="M231 441L232 442L231 441M626 445L627 446L626 445M228 447L229 448L228 447z"/>
<path style="fill:#d35fa1; stroke:none;" d="M853 455L854 456L853 455z"/>
<path style="fill:#e1a3c3; stroke:none;" d="M527 461L528 462L527 461M266 465L267 466L266 465z"/>
<path style="fill:#f9f1f5; stroke:none;" d="M383 465L384 466L383 465z"/>
<path style="fill:#d35fa1; stroke:none;" d="M594 478L595 479L594 478z"/>
<path style="fill:#f9f1f5; stroke:none;" d="M593 482L594 483L593 482z"/>
<path style="fill:#e1a3c3; stroke:none;" d="M560 485L561 486L560 485z"/>
<path style="fill:#f9f1f5; stroke:none;" d="M534 493L535 494L534 493z"/>
<path style="fill:#d35fa1; stroke:none;" d="M818 493L819 494L818 493z"/>
<path style="fill:#f9f1f5; stroke:none;" d="M814 496L815 497L814 496M804 503L805 504L804 503z"/>
<path style="fill:#e1a3c3; stroke:none;" d="M586 509L587 510L586 509z"/>
<path style="fill:#d35fa1; stroke:none;" d="M554 510L555 511L554 510M799 518L800 519L799 518M802 520L803 521L802 520M812 527L813 528L812 527M579 536L580 537L579 536z"/>
<path style="fill:#f9f1f5; stroke:none;" d="M547 539L548 540L547 539z"/>
<path style="fill:#e1a3c3; stroke:none;" d="M578 540L579 541L578 540M386 558L387 559L386 558z"/>
<path style="fill:#f9f1f5; stroke:none;" d="M570 571L571 572L570 571M345 572L346 573L345 572z"/>
<path style="fill:#d35fa1; stroke:none;" d="M856 572L857 573L856 572M354 585L355 586L354 585z"/>
<path style="fill:#e1a3c3; stroke:none;" d="M528 586L529 587L528 586z"/>
<path style="fill:#d35fa1; stroke:none;" d="M556 594L557 595L556 594z"/>
<path style="fill:#e1a3c3; stroke:none;" d="M664 605L665 606L664 605M684 634L685 635L684 634M685 637L686 638L685 637z"/>
<path style="fill:#d35fa1; stroke:none;" d="M545 687L546 688L545 687z"/>
<path style="fill:#f9f1f5; stroke:none;" d="M683 687L684 688L683 687z"/>
<path style="fill:#e1a3c3; stroke:none;" d="M547 691L548 692L547 691z"/>
<path style="fill:#d35fa1; stroke:none;" d="M560 707L561 708L560 707z"/>
<path style="fill:#f9f1f5; stroke:none;" d="M363 720L364 721L363 720z"/>
<path style="fill:#d35fa1; stroke:none;" d="M365 726L366 727L365 726M368 734L369 735L368 734M371 741L372 742L371 741M386 768L387 769L386 768z"/>
<path style="fill:#f9f1f5; stroke:none;" d="M452 831L453 832L452 831z"/>
<path style="fill:#d35fa1; stroke:none;" d="M476 844L477 845L476 844z"/>
<path style="fill:#e1a3c3; stroke:none;" d="M521 861L522 862L521 861z"/>
</svg>
