<?xml version="1.0" standalone="yes"?>
<svg xmlns="http://www.w3.org/2000/svg" width="1024" height="1024">
<path style="fill:#bf1355; stroke:none;" d="M0 0L0 1024L1024 1024L1024 0L0 0z"/>
<path style="fill:#ffffff; stroke:none;" d="M372 208L372 280L406 280L406 208L372 208z"/>
<path style="fill:#bf1355; stroke:none;" d="M382 279L382 280L396 280L382 279z"/>
<path style="fill:#020101; stroke:none;" d="M373 280.424C326.796 286.509 284.423 299.373 247 328.425C223.311 346.815 203.045 369.949 188.15 396C116.648 521.056 178.214 689.49 318 732.975C351.773 743.481 387.004 746.432 422 741.718C455.154 737.251 486.84 724.917 515 707.047C537.824 692.563 558.232 673.68 574.37 652C642.224 560.848 634.978 429.157 553.911 348.089C527.613 321.792 495.193 302.616 460 291.001C433.263 282.176 401.149 276.718 373 280.424z"/>
<path style="fill:#bf1355; stroke:none;" d="M378 711L378 710L372 710L372 314L378 314C366.005 308.968 341.88 317.552 330 321.344C282.445 336.523 241.138 368.373 216.281 412C155.63 518.449 206.026 661.198 324 700.667C341.194 706.419 359.776 710.988 378 711z"/>
<path style="fill:#ffffff; stroke:none;" d="M372 314L372 710L406 710L406 314L372 314z"/>
<path style="fill:#d3aab2; stroke:none;" d="M400 313L401 314L400 313z"/>
<path style="fill:#bf1355; stroke:none;" d="M401 313L401 314L406 314L406 710L401 710C412.378 714.764 434.61 706.672 446 703.421C494.29 689.641 537.537 655.816 562.139 612C620.86 507.417 575.665 371.467 463 326.4C443.717 318.686 421.873 313.058 401 313z"/>
<path style="fill:#020101; stroke:none;" d="M747 474L747 550L760 550L760 496L761 496C765.95 508.831 770.145 522.007 774.656 535C776.028 538.953 777.094 547.464 781.278 549.397C784.299 550.792 790.45 550.648 792.442 547.682C795.36 543.338 796.264 536.895 798.053 532C802.572 519.635 807.967 506.8 811 494L812 494L812 550L825 550L825 474L804 474L786 527L772.997 490L766.49 475.028L747 474M841 474L841 489L853 489L853 550L867 550L867 474L841 474z"/>
<path style="fill:#d3aab2; stroke:none;" d="M400 710L401 711L400 710z"/>
<path style="fill:#ffffff; stroke:none;" d="M372 744L372 816L406 816L406 744L372 744z"/>
<path style="fill:#bf7d8b; stroke:none;" d="M382 744L383 745L382 744z"/>
<path style="fill:#bf1355; stroke:none;" d="M383 744L383 745L396 745L383 744z"/>
</svg>
