<?xml version="1.0" standalone="yes"?>
<svg xmlns="http://www.w3.org/2000/svg" width="1024" height="1024">
<path style="fill:#7dcb0d; stroke:none;" d="M0 0L0 1024L1024 1024L1024 0L0 0z"/>
<path style="fill:#ffffff; stroke:none;" d="M333 219L333 292L365 288L365 219L333 219M396 219L396 288L429 293L429 219L396 219z"/>
<path style="fill:#7dcb0d; stroke:none;" d="M359.667 288.333L360.333 288.667L359.667 288.333z"/>
<path style="fill:#3b6303; stroke:none;" d="M361 288L361 289L373 289L361 288z"/>
<path style="fill:#010101; stroke:none;" d="M373 288.424C353.154 291.03 334.404 291.996 315 298.026C254.288 316.893 203.796 361.153 177.309 419C138.844 503.005 157.951 607.823 225 671.961C255.046 700.702 291.832 719.611 332 729.475C355.272 735.189 381.233 736.557 405 733.714C513.813 720.701 599.157 629.694 603.961 520C608.289 421.158 543.124 330.375 450 299.333C426.46 291.487 397.913 285.153 373 288.424z"/>
<path style="fill:#3b6303; stroke:none;" d="M389 288L389 289L400 289L389 288z"/>
<path style="fill:#7dcb0d; stroke:none;" d="M400.667 288.333L401.333 288.667L400.667 288.333M351 289L352 290L351 289z"/>
<path style="fill:#3b6303; stroke:none;" d="M352 289L352 290L356 290L352 289M406 289L406 290L410 290L406 289z"/>
<path style="fill:#7dcb0d; stroke:none;" d="M410 289L411 290L410 289M344 290L345 291L344 290z"/>
<path style="fill:#3b6303; stroke:none;" d="M345 290L345 291L348 291L345 290M413 290L413 291L416 291L413 290z"/>
<path style="fill:#7dcb0d; stroke:none;" d="M416 290L417 291L416 290z"/>
<path style="fill:#9bc77d; stroke:none;" d="M338 291L339 292L338 291z"/>
<path style="fill:#3b6303; stroke:none;" d="M339 291L339 292L342 292L339 291M420.667 291.333L421.333 291.667L420.667 291.333z"/>
<path style="fill:#7dcb0d; stroke:none;" d="M422 291L423 292L422 291z"/>
<path style="fill:#3b6303; stroke:none;" d="M334.667 292.333L335.333 292.667L334.667 292.333M425.667 292.333L426.333 292.667L425.667 292.333z"/>
<path style="fill:#7dcb0d; stroke:none;" d="M427 292L428 293L427 292z"/>
<path style="fill:#3b6303; stroke:none;" d="M331.667 293.333L332.333 293.667L331.667 293.333M429.667 293.333L430.333 293.667L429.667 293.333M326.667 294.333L327.333 294.667L326.667 294.333M433.667 294.333L434.333 294.667L433.667 294.333M323 295L324 296L323 295M437.667 295.333L438.333 295.667L437.667 295.333M319.667 296.333L320.333 296.667L319.667 296.333M441 296L442 297L441 296M316 297L317 298L316 297M444.667 297.333L445.333 297.667L444.667 297.333M312.667 298.333L313.333 298.667L312.667 298.333M447.667 298.333L448.333 298.667L447.667 298.333M310 299L311 300L310 299M450.667 299.333L451.333 299.667L450.667 299.333M307 300L308 301L307 300M453.667 300.333L454.333 300.667L453.667 300.333M304 301L305 302L304 301M456.667 301.333L457.333 301.667L456.667 301.333M301 302L302 303L301 302M459 302L460 303L459 302M299 303L300 304L299 303M462 303L463 304L462 303M296 304L297 305L296 304M464 304L465 305L464 304M294 305L295 306L294 305M467 305L468 306L467 305M291 306L292 307L291 306M469 306L470 307L469 306M289 307L290 308L289 307M471 307L472 308L471 307M287 308L288 309L287 308M473.667 308.333L474.333 308.667L473.667 308.333M285 309L286 310L285 309M475.667 309.333L476.333 309.667L475.667 309.333M283 310L284 311L283 310M478 310L479 311L478 310M281 311L282 312L281 311M480 311L481 312L480 311M279 312L280 313L279 312M482 312L483 313L482 312M277 313L278 314L277 313M484 313L485 314L484 313M275 314L276 315L275 314M485.667 314.333L486.333 314.667L485.667 314.333M273 315L274 316L273 315M487 315L488 316L487 315M271 316L272 317L271 316M489 316L490 317L489 316M270 317L271 318L270 317M491 317L492 318L491 317M268 318L269 319L268 318M493 318L494 319L493 318M266 319L267 320L266 319M370 319L370 320L392 320L370 319M494 319L495 320L494 319M264 320L265 321L264 320M360 320L360 321L365 321L360 320z"/>
<path style="fill:#7dcb0d; stroke:none;" d="M365 320L365 703L397 703C391.28 678.976 396 648.71 396 624L396 460L396 367C396 352.049 393.532 334.568 397 320L365 320z"/>
<path style="fill:#3b6303; stroke:none;" d="M397 320L397 321L402 321L397 320M496 320L497 321L496 320M263 321L264 322L263 321M352 321L352 322L356 322L352 321z"/>
<path style="fill:#7dcb0d; stroke:none;" d="M356 321L357 322L356 321z"/>
<path style="fill:#ffffff; stroke:none;" d="M365 702L365 321C358.213 321.019 338.525 320.948 334.028 326.728C331.124 330.459 333 340.463 333 345L333 395L333 621L333 676C333 680.925 330.895 692.246 334.028 696.272C338.525 702.052 358.213 701.981 365 702M396 321L396 702L429 697L429 326L396 321z"/>
<path style="fill:#7dcb0d; stroke:none;" d="M404.667 321.333L405.333 321.667L404.667 321.333z"/>
<path style="fill:#3b6303; stroke:none;" d="M406 321L406 322L410 322L406 321M498 321L499 322L498 321M261 322L262 323L261 322M346 322L346 323L349 323L346 322z"/>
<path style="fill:#7dcb0d; stroke:none;" d="M349 322L350 323L349 322M412 322L413 323L412 322z"/>
<path style="fill:#3b6303; stroke:none;" d="M413.667 322.333L414.333 322.667L413.667 322.333M499 322L500 323L499 322M260 323L261 324L260 323M341.667 323.333L342.333 323.667L341.667 323.333z"/>
<path style="fill:#7dcb0d; stroke:none;" d="M343 323L344 324L343 323M417 323L418 324L417 323z"/>
<path style="fill:#3b6303; stroke:none;" d="M418 323L418 324L421 324L418 323M501 323L502 324L501 323M258 324L259 325L258 324M337.667 324.333L338.333 324.667L337.667 324.333z"/>
<path style="fill:#7dcb0d; stroke:none;" d="M422 324L423 325L422 324z"/>
<path style="fill:#3b6303; stroke:none;" d="M423.667 324.333L424.333 324.667L423.667 324.333M502 324L503 325L502 324M331 325L331 326L334 326L331 325z"/>
<path style="fill:#7dcb0d; stroke:none;" d="M334 325L335 326L334 325M426 325L427 326L426 325z"/>
<path style="fill:#3b6303; stroke:none;" d="M427 325L427 326L430 326L427 325M504 325L505 326L504 325M255 326L256 327L255 326M328.667 326.333L329.333 326.667L328.667 326.333z"/>
<path style="fill:#7dcb0d; stroke:none;" d="M333 697L333 326C311.468 328.902 289.764 341.105 272 353.001C163.144 425.894 163.592 589.586 267 666.37C285.522 680.124 309.767 693.869 333 697M429 326L429 697C451.205 693.733 474.018 681.025 492 668.14C595.328 594.106 597.994 438.78 499 360.004C479.706 344.65 453.779 329.646 429 326z"/>
<path style="fill:#3b6303; stroke:none;" d="M432 326L433 327L432 326M505 326L506 327L505 326M254 327L255 328L254 327M324.667 327.333L325.333 327.667L324.667 327.333M435.667 327.333L436.333 327.667L435.667 327.333M507 327L508 328L507 327M252 328L253 329L252 328M321.667 328.333L322.333 328.667L321.667 328.333M439 328L440 329L439 328M508 328L509 329L508 328M251 329L252 330L251 329M318.667 329.333L319.333 329.667L318.667 329.333M442 329L443 330L442 329M510 329L511 330L510 329M249 330L250 331L249 330M315.667 330.333L316.333 330.667L315.667 330.333M445 330L446 331L445 330M511 330L512 331L511 330M248 331L249 332L248 331M313 331L314 332L313 331M447.667 331.333L448.333 331.667L447.667 331.333M512 331L513 332L512 331M310 332L311 333L310 332M450 332L451 333L450 332M514 332L515 333L514 332M245 333L246 334L245 333M308 333L309 334L308 333M453 333L454 334L453 333M515 333L516 334L515 333M244 334L245 335L244 334M305 334L306 335L305 334M455 334L456 335L455 334M516 334L517 335L516 334M243 335L244 336L243 335M303 335L304 336L303 335M457 335L458 336L457 335M301 336L302 337L301 336M460 336L461 337L460 336M519 336L520 337L519 336M240 337L241 338L240 337M298.667 337.333L299.333 337.667L298.667 337.333M462 337L463 338L462 337M520 337L521 338L520 337M239 338L240 339L239 338M296 338L297 339L296 338M464 338L465 339L464 338M521 338L522 339L521 338M238 339L239 340L238 339M294 339L295 340L294 339M466 339L467 340L466 339M523 339L524 340L523 339M292.667 340.333L293.333 340.667L292.667 340.333M468 340L469 341L468 340M524 340L525 341L524 340M291 341L292 342L291 341M470 341L471 342L470 341M525 341L526 342L525 341M234 342L235 343L234 342M289 342L290 343L289 342M472 342L473 343L472 342M526 342L527 343L526 342M233 343L234 344L233 343M287 343L288 344L287 343M474 343L475 344L474 343M527 343L528 344L527 343M232 344L233 345L232 344M285 344L286 345L285 344M475 344L476 345L475 344M231 345L232 346L231 345M283 345L284 346L283 345M477 345L478 346L477 345M230 346L231 347L230 346M282 346L283 347L282 346M479 346L480 347L479 346M531 346L532 347L531 346M280 347L281 348L280 347M480 347L481 348L480 347M532 347L533 348L532 347M278 348L279 349L278 348M482 348L483 349L482 348M533 348L534 349L533 348M277 349L278 350L277 349M534 349L535 350L534 349M275 350L276 351L275 350M485 350L486 351L485 350M535 350L536 351L535 350M274 351L275 352L274 351M487 351L488 352L487 351M536 351L537 352L536 351M272 352L273 353L272 352M488 352L489 353L488 352M537 352L538 353L537 352M222 353L223 354L222 353M271 353L272 354L271 353M490 353L491 354L490 353M538 353L539 354L538 353M269 354L270 355L269 354M491 354L492 355L491 354M539 354L540 355L539 354M268 355L269 356L268 355M540 355L541 356L540 355M494 356L495 357L494 356M541 356L542 357L541 356M265 357L266 358L265 357M495 357L496 358L495 357M542 357L543 358L542 357M264 358L265 359L264 358M543 358L544 359L543 358M498 359L499 360L498 359M544 359L545 360L544 359M261 360L262 361L261 360M499 360L500 361L499 360M545 360L546 361L545 360M215 361L216 362L215 361M260 361L261 362L260 361M500 361L501 362L500 361M214 362L215 363L214 362M259 362L260 363L259 362M213 363L214 364L213 363M503 363L504 364L503 363M212 364L213 365L212 364M504 364L505 365L504 364M548 364L549 365L548 364M211 365L212 366L211 365M255 365L256 366L255 365M505 365L506 366L505 365M549 365L550 366L549 365M254 366L255 367L254 366M506 366L507 367L506 366M550 366L551 367L550 366M253 367L254 368L253 367M551 367L552 368L551 367M252 368L253 369L252 368M552 368L553 369L552 368M208 369L209 370L208 369M510 369L511 370L510 369M207 370L208 371L207 370M511 370L512 371L511 370M206 371L207 372L206 371M512 371L513 372L512 371M554 371L555 372L554 371M513 372L514 373L513 372M555 372L556 373L555 372M514 373L515 374L514 373M556 373L557 374L556 373M204 374L205 375L204 374M515 374L516 375L515 374M203 375L204 376L203 375M244 375L245 376L244 375M516 375L517 376L516 375M557 375L558 376L557 375M202 376L203 377L202 376M517 376L518 377L517 376M558 376L559 377L558 376M518 377L519 378L518 377M559 377L560 378L559 377M201 378L202 379L201 378M519 378L520 379L519 378M200 379L201 380L200 379M520 379L521 380L520 379M521 380L522 381L521 380M561 380L562 381L561 380M522 381L523 382L522 381M562 381L563 382L562 381M198 382L199 383L198 382M197 383L198 384L197 383M237 383L238 384L237 383M563 383L564 384L563 383M236 384L237 385L236 384M564 384L565 385L564 384M196 385L197 386L196 385M235 385L236 386L235 385M525 385L526 386L525 385M195 386L196 387L195 386M234 386L235 387L234 386M526 386L527 387L526 386M565 386L566 387L565 386M527 387L528 388L527 387M566 387L567 388L566 387M194 388L195 389L194 388M528 388L529 389L528 388M193 389L194 390L193 389M529 389L530 390L529 389M567 389L568 390L567 389M231 390L232 391L231 390M568 390L569 391L568 390M192 391L193 392L192 391M230 391L231 392L230 391M530 391L531 392L530 391M191 392L192 393L191 392M229 392L230 393L229 392M531 392L532 393L531 392M569 392L570 393L569 392M532 393L533 394L532 393M570 393L571 394L570 393M190 394L191 395L190 394M189 395L190 396L189 395M227 395L228 396L227 395M571 395L572 396L571 395M226 396L227 397L226 396M534 396L535 397L534 396M188 397L189 398L188 397M535 397L536 398L535 397M572 397L573 398L572 397M573 398L574 399L573 398M187 399L188 400L187 399M224 399L225 400L224 399M223 400L224 401L223 400M537 400L538 401L537 400M574 400L575 401L574 400M186 401L187 402L186 401M538 401L539 402L538 401M185 402L186 403L185 402M222 402L223 403L222 402M575 402L576 403L575 402M221 403L222 404L221 403M539 403L540 404L539 403M184 404L185 405L184 404M540 404L541 405L540 404M576 404L577 405L576 404M220 405L221 406L220 405M577 405L578 406L577 405M183 406L184 407L183 406M219 406L220 407L219 406M541 406L542 407L541 406M542 407L543 408L542 407M578 407L579 408L578 407M182 408L183 409L182 408M218 408L219 409L218 408M217 409L218 410L217 409M543 409L544 410L543 409M579 409L580 410L579 409M181 410L182 411L181 410M216 411L217 412L216 411M580 411L581 412L580 411M180 412L181 413L180 412M545 412L546 413L545 412M215 413L216 414L215 413M581 413L582 414L581 413M179 414L180 415L179 414M214 414L215 415L214 414M546 414L547 415L546 414M582 415L583 416L582 415M178 416L179 417L178 416M213 416L214 417L213 416M547 416L548 417L547 416M548 417L549 418L548 417M583.333 417.667L583.667 418.333L583.333 417.667M177 418L178 419L177 418M212 418L213 419L212 418M549 419L550 420L549 419M176 420L177 421L176 420M211 420L212 421L211 420M584 420L585 421L584 420M550 421L551 422L550 421M175.333 422.667L175.667 423.333L175.333 422.667M210 422L211 423L210 422M585 422L586 423L585 422M551 423L552 424L551 423M209 424L210 425L209 424M586 424L587 425L586 424M174 425L175 426L174 425M552 425L553 426L552 425M208 426L209 427L208 426M587.333 426.667L587.667 427.333L587.333 426.667M173.333 427.667L173.667 428.333L173.333 427.667M553 427L554 428L553 427M207 428L208 429L207 428M554 429L555 430L554 429M588 429L589 430L588 429M172 430L173 431L172 430M206 430L207 431L206 430M555 431L556 432L555 431M171.333 432.667L171.667 433.333L171.333 432.667M205 432L206 433L205 432M589 432L590 433L589 432M556.333 433.667L556.667 434.333L556.333 433.667M204 434L205 435L204 434M590 434L591 435L590 434M170 435L171 436L170 435M203.333 436.667L203.667 437.333L203.333 436.667M557 436L558 437L557 436M591 437L592 438L591 437M169 438L170 439L169 438M558 438L559 439L558 438M202 439L203 440L202 439M592 440L593 441L592 440M168 441L169 442L168 441M201.333 441.667L201.667 442.333L201.333 441.667M559 441L560 442L559 441M560 443L561 444L560 443M593 443L594 444L593 443M167 444L168 445L167 444M200 444L201 445L200 444M561 446L562 447L561 446M594.333 446.667L594.667 447.333L594.333 446.667M166.333 447.667L166.667 448.333L166.333 447.667M199 447L200 448L199 447M562 449L563 450L562 449M595.333 449.667L595.667 450.333L595.333 449.667M165.333 450.667L165.667 451.333L165.333 450.667M198 450L199 451L198 450M563 452L564 453L563 452M197 453L198 454L197 453M596.333 453.667L596.667 454.333L596.333 453.667M164.333 454.667L164.667 455.333L164.333 454.667M564 455L565 456L564 455M196 456L197 457L196 456M597.333 457.667L597.667 458.333L597.333 457.667M163.333 458.667L163.667 459.333L163.333 458.667M565.333 458.667L565.667 459.333L565.333 458.667M195.333 459.667L195.667 460.333L195.333 459.667M598.333 461.667L598.667 462.333L598.333 461.667M162.333 462.667L162.667 463.333L162.333 462.667M566.333 462.667L566.667 463.333L566.333 462.667M194.333 463.667L194.667 464.333L194.333 463.667M599.333 465.667L599.667 466.333L599.333 465.667M567.333 466.667L567.667 467.333L567.333 466.667M161.333 467.667L161.667 468.333L161.333 467.667M193.333 467.667L193.667 468.333L193.333 467.667M568.333 470.667L568.667 471.333L568.333 470.667M600 470L600 473L601 473L600 470M192 471L192 474L193 474L192 471M160 472L160 475L161 475L160 472M835 474L835 475L838 475L835 474z"/>
<path style="fill:#010101; stroke:none;" d="M818 499L831 499C831.405 494.4 832.606 489.54 837.044 487.179C844.951 482.972 854.218 490.452 852.171 499C848.271 515.278 827.836 519.024 819.603 532.001C816.827 536.377 818 543.03 818 548L867 548L867 536L835 536C843.587 523.911 860.886 519.454 865.073 504C871.294 481.035 841.513 463.004 824.468 480.329C819.572 485.307 818.14 492.265 818 499z"/>
<path style="fill:#3b6303; stroke:none;" d="M846.667 474.333L847.333 474.667L846.667 474.333M569 475L569 478L570 478L569 475z"/>
<path style="fill:#010101; stroke:none;" d="M727 475L727 548L740 548L740 495L741 495C744.339 509.425 750.385 524.118 755.576 538C757.83 544.028 760.511 551.19 768.722 547.397C772.586 545.611 773.994 537.693 775.308 534C780.024 520.749 784.649 507.372 789 494L790 494L790 548L802 548L802 475L783.51 476.028L777.344 490L765 526C757.137 511.082 750.801 491.42 747 475L727 475z"/>
<path style="fill:#3b6303; stroke:none;" d="M782 475L783 476L782 475M802 475L802 548L803 548L803 498L802 475M831.667 475.333L832.333 475.667L831.667 475.333M850.667 475.333L851.333 475.667L850.667 475.333M601 476L601 479L602 479L601 476M747.333 476.667L747.667 477.333L747.333 476.667M829 476L830 477L829 476M853 476L854 477L853 476M191.333 477.667L191.667 478.333L191.333 477.667M781.333 477.667L781.667 478.333L781.333 477.667M827 477L828 478L827 477M855 477L856 478L855 477M159 478L159 482L160 482L159 478M826 478L827 479L826 478M857 478L858 479L857 478M748.333 479.667L748.667 480.333L748.333 479.667M858 479L859 480L858 479M780.333 480.667L780.667 481.333L780.333 480.667M570 481L570 484L571 484L570 481M823 481L824 482L823 481M190 482L190 486L191 486L190 482M749.333 482.667L749.667 483.333L749.333 482.667M822 482L823 483L822 482M602 483L602 487L603 487L602 483M779.333 483.667L779.667 484.333L779.333 483.667M821 483L822 484L821 483M862 483L863 484L862 483M750 485L751 486L750 485M820 485L821 486L820 485M863 485L864 486L863 485M158 486L158 490L159 490L158 486M778 486L779 487L778 486M837.667 486.333L838.333 486.667L837.667 486.333M846 486L847 487L846 486M835 487L836 488L835 487M848 487L849 488L848 487M864 487L865 488L864 487M571 488L571 491L572 491L571 488M751 488L752 489L751 488M819 488L820 489L819 488M834 488L835 489L834 488M849 488L850 489L849 488M777 489L778 490L777 489M833 489L834 490L833 489M850 489L851 490L850 489M189 490L189 495L190 495L189 490M865.333 490.667L865.667 491.333L865.333 490.667M752 491L753 492L752 491M818.333 491.667L818.667 492.333L818.333 491.667M832 491L833 492L832 491M851 491L852 492L851 491M776 492L777 493L776 492M603 493L603 499L604 499L603 493M753 494L754 495L753 494M789 494L789 548L790 548L790 512L789 494M831 494L831 499L832 499L831 494M852 494L852 499L853 499L852 494M740.333 495.667L740.667 496.333L740.333 495.667M775 495L776 496L775 495M157 497L157 509L158 509L157 497M741 497L742 498L741 497M754 497L755 498L754 497M572 498L572 510L573 510L572 498M774 498L775 499L774 498M787 498L788 499L787 498M742 500L743 501L742 500M755 500L756 501L755 500M773 501L774 502L773 501M786 501L787 502L786 501M851 501L852 502L851 501M756.333 502.667L756.667 503.333L756.333 502.667M865.333 502.667L865.667 503.333L865.333 502.667M743 503L744 504L743 503M772.333 503.667L772.667 504.333L772.333 503.667M850 503L851 504L850 503M188 504L188 519L189 519L188 504M785 504L786 505L785 504M744.333 505.667L744.667 506.333L744.333 505.667M757.333 505.667L757.667 506.333L757.333 505.667M849 505L850 506L849 505M771.333 506.667L771.667 507.333L771.333 506.667M784.333 506.667L784.667 507.333L784.333 506.667M848 506L849 507L848 506M864 506L865 507L864 506M745.333 508.667L745.667 509.333L745.333 508.667M758.333 508.667L758.667 509.333L758.333 508.667M863 508L864 509L863 508M770.333 509.667L770.667 510.333L770.333 509.667M783.333 509.667L783.667 510.333L783.333 509.667M846 509L847 510L846 509M845 510L846 511L845 510M862 510L863 511L862 510M746.333 511.667L746.667 512.333L746.333 511.667M759.333 511.667L759.667 512.333L759.333 511.667M844 511L845 512L844 511M769.333 512.667L769.667 513.333L769.333 512.667M782.333 512.667L782.667 513.333L782.333 512.667M861 512L862 513L861 512M572 513L572 525L573 525L572 513M860 513L861 514L860 513M157 514L157 526L158 526L157 514M747.333 514.667L747.667 515.333L747.333 514.667M760.333 514.667L760.667 515.333L760.333 514.667M840 514L841 515L840 514M859 514L860 515L859 514M768.333 515.667L768.667 516.333L768.333 515.667M781.333 515.667L781.667 516.333L781.333 515.667M839 515L840 516L839 515M858 515L859 516L858 515M857 516L858 517L857 516M748.333 517.667L748.667 518.333L748.333 517.667M761 517L762 518L761 517M836 517L837 518L836 517M856 517L857 518L856 517M767 518L768 519L767 518M780.333 518.667L780.667 519.333L780.333 518.667M835 518L836 519L835 518M855 518L856 519L855 518M833 519L834 520L833 519M749 520L750 521L749 520M762 520L763 521L762 520M832 520L833 521L832 520M852 520L853 521L852 520M766 521L767 522L766 521M779 521L780 522L779 521M851 521L852 522L851 521M829 522L830 523L829 522M850 522L851 523L850 522M750 523L751 524L750 523M763 523L764 524L763 523M828 523L829 524L828 523M848 523L849 524L848 523M603 524L603 530L604 530L603 524M765 524L766 525L765 524M778 524L779 525L778 524M827 524L828 525L827 524M847 524L848 525L847 524M764 525L765 526L764 525M751 526L752 527L751 526M824 526L825 527L824 526M844 526L845 527L844 526M777 527L778 528L777 527M823 527L824 528L823 527M843 527L844 528L843 527M189 528L189 533L190 533L189 528M822 528L823 529L822 528M752 529L753 530L752 529M821 529L822 530L821 529M840 529L841 530L840 529M776 530L777 531L776 530M820 530L821 531L820 530M839 530L840 531L839 530M819 531L820 532L819 531M838 531L839 532L838 531M571 532L571 535L572 535L571 532M753 532L754 533L753 532M818 532L819 533L818 532M837 532L838 533L837 532M158 533L158 537L159 537L158 533M775 533L776 534L775 533M836 533L837 534L836 533M817 534L817 548L818 548L817 534M835.333 534.667L835.667 535.333L835.333 534.667M754 535L755 536L754 535M602 536L602 540L603 540L602 536M774 536L775 537L774 536M190 537L190 541L191 541L190 537M755.333 537.667L755.667 538.333L755.333 537.667M773.333 538.667L773.667 539.333L773.333 538.667M570 539L570 542L571 542L570 539M756.333 540.667L756.667 541.333L756.333 540.667M159 541L159 545L160 545L159 541M772.333 541.667L772.667 542.333L772.333 541.667M757.333 543.667L757.667 544.333L757.333 543.667M191.333 544.667L191.667 545.333L191.333 544.667M601 544L601 547L602 547L601 544M771.333 544.667L771.667 545.333L771.333 544.667M569 545L569 548L570 548L569 545M758.333 546.667L758.667 547.333L758.333 546.667M770 547L771 548L770 547M160 548L160 551L161 551L160 548M192 549L192 552L193 552L192 549M600 550L600 553L601 553L600 550M568.333 551.667L568.667 552.333L568.333 551.667M161.333 554.667L161.667 555.333L161.333 554.667M193.333 554.667L193.667 555.333L193.333 554.667M567.333 555.667L567.667 556.333L567.333 555.667M599.333 556.667L599.667 557.333L599.333 556.667M194.333 558.667L194.667 559.333L194.333 558.667M162.333 559.667L162.667 560.333L162.333 559.667M566.333 559.667L566.667 560.333L566.333 559.667M598.333 560.667L598.667 561.333L598.333 560.667M195.333 562.667L195.667 563.333L195.333 562.667M163.333 563.667L163.667 564.333L163.333 563.667M565.333 563.667L565.667 564.333L565.333 563.667M597.333 564.667L597.667 565.333L597.333 564.667M196.333 565.667L196.667 566.333L196.333 565.667M164.333 567.667L164.667 568.333L164.333 567.667M564 567L565 568L564 567M596.333 568.667L596.667 569.333L596.333 568.667M197 569L198 570L197 569M563 570L564 571L563 570M165.333 571.667L165.667 572.333L165.333 571.667M198 572L199 573L198 572M595.333 572.667L595.667 573.333L595.333 572.667M562 573L563 574L562 573M166.333 574.667L166.667 575.333L166.333 574.667M199 575L200 576L199 575M594.333 575.667L594.667 576.333L594.333 575.667M561 576L562 577L561 576M167 578L168 579L167 578M200 578L201 579L200 578M560 579L561 580L560 579M593 579L594 580L593 579M201.333 580.667L201.667 581.333L201.333 580.667M168 581L169 582L168 581M559 581L560 582L559 581M592 582L593 583L592 582M202 583L203 584L202 583M169 584L170 585L169 584M558 584L559 585L558 584M203.333 585.667L203.667 586.333L203.333 585.667M591 585L592 586L591 585M557 586L558 587L557 586M170 587L171 588L170 587M204 588L205 589L204 588M556.333 588.667L556.667 589.333L556.333 588.667M590 588L591 589L590 588M171.333 589.667L171.667 590.333L171.333 589.667M205 590L206 591L205 590M589 590L590 591L589 590M555 591L556 592L555 591M172 592L173 593L172 592M206 592L207 593L206 592M554 593L555 594L554 593M588 593L589 594L588 593M173.333 594.667L173.667 595.333L173.333 594.667M207 594L208 595L207 594M553 595L554 596L553 595M587.333 595.667L587.667 596.333L587.333 595.667M208 596L209 597L208 596M174 597L175 598L174 597M552 597L553 598L552 597M209 598L210 599L209 598M586 598L587 599L586 598M175.333 599.667L175.667 600.333L175.333 599.667M551 599L552 600L551 599M210 600L211 601L210 600M585 600L586 601L585 600M550 601L551 602L550 601M176 602L177 603L176 602M211 602L212 603L211 602M584 602L585 603L584 602M549 603L550 604L549 603M177 604L178 605L177 604M212 604L213 605L212 604M583.333 604.667L583.667 605.333L583.333 604.667M548 605L549 606L548 605M178 606L179 607L178 606M213 606L214 607L213 606M547 606L548 607L547 606M582 607L583 608L582 607M179 608L180 609L179 608M214 608L215 609L214 608M546 608L547 609L546 608M215 609L216 610L215 609M581 609L582 610L581 609M180 610L181 611L180 610M545 610L546 611L545 610M216 611L217 612L216 611M580 611L581 612L580 611M181 612L182 613L181 612M217 613L218 614L217 613M543 613L544 614L543 613M579 613L580 614L579 613M182 614L183 615L182 614M218 614L219 615L218 614M542 615L543 616L542 615M578 615L579 616L578 615M183 616L184 617L183 616M219 616L220 617L219 616M541 616L542 617L541 616M220 617L221 618L220 617M577 617L578 618L577 617M184 618L185 619L184 618M540 618L541 619L540 618M576 618L577 619L576 618M221 619L222 620L221 619M539 619L540 620L539 619M185 620L186 621L185 620M222 620L223 621L222 620M575 620L576 621L575 620M186 621L187 622L186 621M538 621L539 622L538 621M223 622L224 623L223 622M537 622L538 623L537 622M574 622L575 623L574 622M187 623L188 624L187 623M224 623L225 624L224 623M225 624L226 625L225 624M573 624L574 625L573 624M188 625L189 626L188 625M535 625L536 626L535 625M572 625L573 626L572 625M226 626L227 627L226 626M534 626L535 627L534 626M189 627L190 628L189 627M227 627L228 628L227 627M571 627L572 628L571 627M190 628L191 629L190 628M228 628L229 629L228 628M532 629L533 630L532 629M570 629L571 630L570 629M191 630L192 631L191 630M229 630L230 631L229 630M531 630L532 631L531 630M569 630L570 631L569 630M192 631L193 632L192 631M230 631L231 632L230 631M530 631L531 632L530 631M231 632L232 633L231 632M568 632L569 633L568 632M193 633L194 634L193 633M567 633L568 634L567 633M194 634L195 635L194 634M528 634L529 635L528 634M527 635L528 636L527 635M566 635L567 636L566 635M195 636L196 637L195 636M234 636L235 637L234 636M526 636L527 637L526 636M565 636L566 637L565 636M196 637L197 638L196 637M235 637L236 638L235 637M525 637L526 638L525 637M236 638L237 639L236 638M564 638L565 639L564 638M197 639L198 640L197 639M237 639L238 640L237 639M563 639L564 640L563 639M198 640L199 641L198 640M522 641L523 642L522 641M562 641L563 642L562 641M521 642L522 643L521 642M561 642L562 643L561 642M200 643L201 644L200 643M520 643L521 644L520 643M560 643L561 644L560 643M201 644L202 645L201 644M519 644L520 645L519 644M518 645L519 646L518 645M559 645L560 646L559 645M202 646L203 647L202 646M517 646L518 647L517 646M558 646L559 647L558 646M203 647L204 648L203 647M244 647L245 648L244 647M516 647L517 648L516 647M557 647L558 648L557 647M204 648L205 649L204 648M515 648L516 649L515 648M514 649L515 650L514 649M513 650L514 651L513 650M555 650L556 651L555 650M206 651L207 652L206 651M512 651L513 652L512 651M554 651L555 652L554 651M207 652L208 653L207 652M511 652L512 653L511 652M208 653L209 654L208 653M510 653L511 654L510 653M252 654L253 655L252 654M253 655L254 656L253 655M551 655L552 656L551 655M254 656L255 657L254 656M506 656L507 657L506 656M550 656L551 657L550 656M211 657L212 658L211 657M255 657L256 658L255 657M505 657L506 658L505 657M549 657L550 658L549 657M212 658L213 659L212 658M504 658L505 659L504 658M548 658L549 659L548 658M213 659L214 660L213 659M503 659L504 660L503 659M214 660L215 661L214 660M259 660L260 661L259 660M215 661L216 662L215 661M260 661L261 662L260 661M500 661L501 662L500 661M261 662L262 663L261 662M499 662L500 663L499 662M545 662L546 663L545 662M263 663L264 664L263 663M498 663L499 664L498 663M544 663L545 664L544 663M264 664L265 665L264 664M543 664L544 665L543 664M265 665L266 666L265 665M495 665L496 666L495 665M542 665L543 666L542 665M267 666L268 667L267 666M494 666L495 667L494 666M541 666L542 667L541 666M268 667L269 668L268 667M492 667L493 668L492 667M540 667L541 668L540 667M269 668L270 669L269 668M491 668L492 669L491 668M539 668L540 669L539 668M222 669L223 670L222 669M271 669L272 670L271 669M538 669L539 670L538 669M272 670L273 671L272 670M488 670L489 671L488 670M537 670L538 671L537 670M274 671L275 672L274 671M487 671L488 672L487 671M536 671L537 672L536 671M275 672L276 673L275 672M485 672L486 673L485 672M535 672L536 673L535 672M277 673L278 674L277 673M534 673L535 674L534 673M278 674L279 675L278 674M482 674L483 675L482 674M533 674L534 675L533 674M280 675L281 676L280 675M480 675L481 676L480 675M532 675L533 676L532 675M230 676L231 677L230 676M282 676L283 677L282 676M479 676L480 677L479 676M531 676L532 677L531 676M231 677L232 678L231 677M283 677L284 678L283 677M477 677L478 678L477 677M232 678L233 679L232 678M285 678L286 679L285 678M475 678L476 679L475 678M233 679L234 680L233 679M287 679L288 680L287 679M474 679L475 680L474 679M527 679L528 680L527 679M234 680L235 681L234 680M289 680L290 681L289 680M472 680L473 681L472 680M526 680L527 681L526 680M291 681L292 682L291 681M470 681L471 682L470 681M525 681L526 682L525 681M293 682L294 683L293 682M468 682L469 683L468 682M524 682L525 683L524 682M238 683L239 684L238 683M294.667 683.333L295.333 683.667L294.667 683.333M466 683L467 684L466 683M523 683L524 684L523 683M239 684L240 685L239 684M296 684L297 685L296 684M464 684L465 685L464 684M521 684L522 685L521 684M240 685L241 686L240 685M299 685L300 686L299 685M462 685L463 686L462 685M520 685L521 686L520 685M301 686L302 687L301 686M460 686L461 687L460 686M519 686L520 687L519 686M243 687L244 688L243 687M303 687L304 688L303 687M457 687L458 688L457 687M244 688L245 689L244 688M305 688L306 689L305 688M455 688L456 689L455 688M516 688L517 689L516 688M245 689L246 690L245 689M308 689L309 690L308 689M453 689L454 690L453 689M515 689L516 690L515 689M310 690L311 691L310 690M450 690L451 691L450 690M514 690L515 691L514 690M248 691L249 692L248 691M313 691L314 692L313 691M447.667 691.333L448.333 691.667L447.667 691.333M512 691L513 692L512 691M315.667 692.333L316.333 692.667L315.667 692.333M445 692L446 693L445 692M511 692L512 693L511 692M251 693L252 694L251 693M318.667 693.333L319.333 693.667L318.667 693.333M442 693L443 694L442 693M252 694L253 695L252 694M321.667 694.333L322.333 694.667L321.667 694.333M439 694L440 695L439 694M508 694L509 695L508 694M254 695L255 696L254 695M325 695L326 696L325 695M435.667 695.333L436.333 695.667L435.667 695.333M507 695L508 696L507 695M255 696L256 697L255 696M328.667 696.333L329.333 696.667L328.667 696.333M432 696L433 697L432 696M505 696L506 697L505 696M331 697L331 698L334 698L331 697z"/>
<path style="fill:#7dcb0d; stroke:none;" d="M334 697L335 698L334 697M426 697L427 698L426 697z"/>
<path style="fill:#3b6303; stroke:none;" d="M427 697L427 698L430 698L427 697M504 697L505 698L504 697M258 698L259 699L258 698M337.667 698.333L338.333 698.667L337.667 698.333z"/>
<path style="fill:#7dcb0d; stroke:none;" d="M422 698L423 699L422 698z"/>
<path style="fill:#3b6303; stroke:none;" d="M423.667 698.333L424.333 698.667L423.667 698.333M502 698L503 699L502 698M260 699L261 700L260 699M341.667 699.333L342.333 699.667L341.667 699.333z"/>
<path style="fill:#7dcb0d; stroke:none;" d="M343 699L344 700L343 699M417 699L418 700L417 699z"/>
<path style="fill:#3b6303; stroke:none;" d="M418.667 699.333L419.333 699.667L418.667 699.333M501 699L502 700L501 699M261 700L262 701L261 700M346 700L346 701L349 701L346 700z"/>
<path style="fill:#7dcb0d; stroke:none;" d="M349 700L350 701L349 700M412 700L413 701L412 700z"/>
<path style="fill:#3b6303; stroke:none;" d="M413.667 700.333L414.333 700.667L413.667 700.333M499 700L500 701L499 700M263 701L264 702L263 701M352 701L352 702L356 702L352 701z"/>
<path style="fill:#7dcb0d; stroke:none;" d="M356 701L357 702L356 701M404.667 701.333L405.333 701.667L404.667 701.333z"/>
<path style="fill:#3b6303; stroke:none;" d="M406 701L406 702L409 702L406 701M264 702L265 703L264 702M360 702L360 703L365 703L360 702M397 702L397 703L402 703L397 702M496 702L497 703L496 702M266 703L267 704L266 703M370 703L370 704L392 704L370 703M494 703L495 704L494 703M268 704L269 705L268 704M493 704L494 705L493 704M270 705L271 706L270 705M491 705L492 706L491 705M271 706L272 707L271 706M489 706L490 707L489 706M273 707L274 708L273 707M487 707L488 708L487 707M275 708L276 709L275 708M485 708L486 709L485 708M277 709L278 710L277 709M484 709L485 710L484 709M279 710L280 711L279 710M482 710L483 711L482 710M281 711L282 712L281 711M480 711L481 712L480 711M283 712L284 713L283 712M478 712L479 713L478 712M285 713L286 714L285 713M475.667 713.333L476.333 713.667L475.667 713.333M287 714L288 715L287 714M473.667 714.333L474.333 714.667L473.667 714.333M289 715L290 716L289 715M471 715L472 716L471 715M291.667 716.333L292.333 716.667L291.667 716.333M469 716L470 717L469 716M294 717L295 718L294 717M467 717L468 718L467 717M296 718L297 719L296 718M464 718L465 719L464 718M299 719L300 720L299 719M461.667 719.333L462.333 719.667L461.667 719.333M301 720L302 721L301 720M459 720L460 721L459 720M304 721L305 722L304 721M456.667 721.333L457.333 721.667L456.667 721.333M307 722L308 723L307 722M453.667 722.333L454.333 722.667L453.667 722.333M310 723L311 724L310 723M450.667 723.333L451.333 723.667L450.667 723.333M312.667 724.333L313.333 724.667L312.667 724.333M447.667 724.333L448.333 724.667L447.667 724.333M316 725L317 726L316 725M444.667 725.333L445.333 725.667L444.667 725.333M319.667 726.333L320.333 726.667L319.667 726.333M441 726L442 727L441 726M323 727L324 728L323 727M437.667 727.333L438.333 727.667L437.667 727.333M326.667 728.333L327.333 728.667L326.667 728.333M433.667 728.333L434.333 728.667L433.667 728.333M331.667 729.333L332.333 729.667L331.667 729.333M429.667 729.333L430.333 729.667L429.667 729.333M334.667 730.333L335.333 730.667L334.667 730.333M425.667 730.333L426.333 730.667L425.667 730.333z"/>
<path style="fill:#7dcb0d; stroke:none;" d="M427 730L428 731L427 730z"/>
<path style="fill:#ffffff; stroke:none;" d="M428 730L396 735L396 804L429 804L429 753L428 730M333 731L333 804L365 804L365 735L333 731z"/>
<path style="fill:#9bc77d; stroke:none;" d="M338 731L339 732L338 731z"/>
<path style="fill:#3b6303; stroke:none;" d="M339 731L339 732L342 732L339 731M420.667 731.333L421.333 731.667L420.667 731.333z"/>
<path style="fill:#7dcb0d; stroke:none;" d="M422 731L423 732L422 731M344 732L345 733L344 732z"/>
<path style="fill:#3b6303; stroke:none;" d="M345 732L345 733L348 733L345 732M413 732L413 733L416 733L413 732z"/>
<path style="fill:#7dcb0d; stroke:none;" d="M416 732L417 733L416 732M351 733L352 734L351 733z"/>
<path style="fill:#3b6303; stroke:none;" d="M352 733L352 734L356 734L352 733M406 733L406 734L410 734L406 733z"/>
<path style="fill:#7dcb0d; stroke:none;" d="M410 733L411 734L410 733M359.667 734.333L360.333 734.667L359.667 734.333z"/>
<path style="fill:#3b6303; stroke:none;" d="M361 734L361 735L373 735L361 734M389 734L389 735L400 735L389 734z"/>
<path style="fill:#7dcb0d; stroke:none;" d="M400.667 734.333L401.333 734.667L400.667 734.333z"/>
</svg>
