<?xml version="1.0" standalone="yes"?>
<svg xmlns="http://www.w3.org/2000/svg" width="1024" height="1024">
<path style="fill:#7dcb0d; stroke:none;" d="M0 0L0 1024L1024 1024L1024 0L0 0z"/>
<path style="fill:#ffffff; stroke:none;" d="M291 290L291 345L316 342L316 290L291 290M339 290L339 342L364 346L364 290L339 290z"/>
<path style="fill:#7dcb0d; stroke:none;" d="M310.667 342.333L311.333 342.667L310.667 342.333z"/>
<path style="fill:#3a6303; stroke:none;" d="M312 342L312 343L342 343L312 342z"/>
<path style="fill:#7dcb0d; stroke:none;" d="M342.667 342.333L343.333 342.667L342.667 342.333M302.667 343.333L303.333 343.667L302.667 343.333z"/>
<path style="fill:#3a6303; stroke:none;" d="M304 343L304 344L308 344L304 343z"/>
<path style="fill:#010201; stroke:none;" d="M308 343.424C282.815 346.772 258.58 354.719 237 368.32C218.029 380.277 201.613 395.633 188.721 414C176.59 431.281 167.858 450.57 162.63 471C143.288 546.576 181.262 628.861 251 663.73C282.589 679.524 319.132 684.66 354 679.714C376.813 676.479 399.786 667.198 419 654.656C516.944 590.72 522.138 445.495 428 375.478C410.388 362.379 390.212 353.084 369 347.63C349.73 342.675 327.837 340.788 308 343.424z"/>
<path style="fill:#3a6303; stroke:none;" d="M347 343L347 344L351 344L347 343z"/>
<path style="fill:#7dcb0d; stroke:none;" d="M351 343L352 344L351 343z"/>
<path style="fill:#9bc77d; stroke:none;" d="M352 343L353 344L352 343M296 344L297 345L296 344z"/>
<path style="fill:#3a6303; stroke:none;" d="M297 344L297 345L300 345L297 344M355.667 344.333L356.333 344.667L355.667 344.333z"/>
<path style="fill:#7dcb0d; stroke:none;" d="M357 344L358 345L357 344z"/>
<path style="fill:#3a6303; stroke:none;" d="M292.667 345.333L293.333 345.667L292.667 345.333M360.667 345.333L361.333 345.667L360.667 345.333z"/>
<path style="fill:#7dcb0d; stroke:none;" d="M362 345L363 346L362 345z"/>
<path style="fill:#3a6303; stroke:none;" d="M289.667 346.333L290.333 346.667L289.667 346.333M364.667 346.333L365.333 346.667L364.667 346.333M284.667 347.333L285.333 347.667L284.667 347.333M368.667 347.333L369.333 347.667L368.667 347.333M281.667 348.333L282.333 348.667L281.667 348.333M372.667 348.333L373.333 348.667L372.667 348.333M277.667 349.333L278.333 349.667L277.667 349.333M375.667 349.333L376.333 349.667L375.667 349.333M274.667 350.333L275.333 350.667L274.667 350.333M379 350L380 351L379 350M271.667 351.333L272.333 351.667L271.667 351.333M382 351L383 352L382 351M268.667 352.333L269.333 352.667L268.667 352.333M385 352L386 353L385 352M266 353L267 354L266 353M387.667 353.333L388.333 353.667L387.667 353.333M264 354L265 355L264 354M390 354L391 355L390 354M261 355L262 356L261 355M392 355L393 356L392 355M259 356L260 357L259 356M395 356L396 357L395 356M257 357L258 358L257 357M397 357L398 358L397 357M254 358L255 359L254 358M399 358L400 359L399 358M252 359L253 360L252 359M401 359L402 360L401 359M250 360L251 361L250 360M403 360L404 361L403 360M248 361L249 362L248 361M405 361L406 362L405 361M246 362L247 363L246 362M407 362L408 363L407 362M245 363L246 364L245 363M409 363L410 364L409 363M243 364L244 365L243 364M411 364L412 365L411 364M241 365L242 366L241 365M412 365L413 366L412 365M239 366L240 367L239 366M315 366L315 367L318 367L315 366z"/>
<path style="fill:#7dcb0d; stroke:none;" d="M339 657L339 367C333.904 366.054 322.012 363.687 317.603 367.179C314.29 369.803 316 379.223 316 383L316 428L316 604L316 643C316 646.466 314.529 654.386 317.603 656.821C322.012 660.313 333.904 657.946 339 657z"/>
<path style="fill:#3a6303; stroke:none;" d="M336 366L336 367L340 367L336 366M414 366L415 367L414 366M238 367L239 368L238 367M306 367L306 368L310 368L306 367z"/>
<path style="fill:#7dcb0d; stroke:none;" d="M310 367L311 368L310 367z"/>
<path style="fill:#ffffff; stroke:none;" d="M291 371L291 653L316 657L316 367L291 371M339 367L339 657L364 653L364 371L339 367z"/>
<path style="fill:#7dcb0d; stroke:none;" d="M343.667 367.333L344.333 367.667L343.667 367.333z"/>
<path style="fill:#3a6303; stroke:none;" d="M345 367L345 368L349 368L345 367M416 367L417 368L416 367M236 368L237 369L236 368M300 368L300 369L303 369L300 368z"/>
<path style="fill:#7dcb0d; stroke:none;" d="M303 368L304 369L303 368M351 368L352 369L351 368z"/>
<path style="fill:#3a6303; stroke:none;" d="M352 368L352 369L355 369L352 368M417 368L418 369L417 368M235 369L236 370L235 369M295.667 369.333L296.333 369.667L295.667 369.333z"/>
<path style="fill:#7dcb0d; stroke:none;" d="M297 369L298 370L297 369M356 369L357 370L356 369z"/>
<path style="fill:#3a6303; stroke:none;" d="M357.667 369.333L358.333 369.667L357.667 369.333M419 369L420 370L419 369M233 370L234 371L233 370M290 370L290 371L293 371L290 370z"/>
<path style="fill:#7dcb0d; stroke:none;" d="M293 370L294 371L293 370M361 370L362 371L361 370z"/>
<path style="fill:#3a6303; stroke:none;" d="M362.667 370.333L363.333 370.667L362.667 370.333M420 370L421 371L420 370M287 371L288 372L287 371z"/>
<path style="fill:#7dcb0d; stroke:none;" d="M291 653L291 371C275.124 373.345 259.192 381.911 246 390.667C161.878 446.506 160.47 576.286 245 632.667C258.517 641.683 274.689 650.591 291 653M364 371L364 653C379.29 649.836 393.933 642.724 407 634.308C493.919 578.323 493.362 447.236 408 390.333C394.795 381.531 379.609 374.23 364 371z"/>
<path style="fill:#3a6303; stroke:none;" d="M366.667 371.333L367.333 371.667L366.667 371.333M422 371L423 372L422 371M230 372L231 373L230 372M283.667 372.333L284.333 372.667L283.667 372.333M370 372L371 373L370 372M423 372L424 373L423 372M229 373L230 374L229 373M280.667 373.333L281.333 373.667L280.667 373.333M373 373L374 374L373 373M425 373L426 374L425 373M227 374L228 375L227 374M277.667 374.333L278.333 374.667L277.667 374.333M376 374L377 375L376 374M426 374L427 375L426 374M226 375L227 376L226 375M275 375L276 376L275 375M379 375L380 376L379 375M225 376L226 377L225 376M272 376L273 377L272 376M381 376L382 377L381 376M429 376L430 377L429 376M223 377L224 378L223 377M270 377L271 378L270 377M384 377L385 378L384 377M430 377L431 378L430 377M222 378L223 379L222 378M267.667 378.333L268.333 378.667L267.667 378.333M386 378L387 379L386 378M431 378L432 379L431 378M221 379L222 380L221 379M265 379L266 380L265 379M388 379L389 380L388 379M433 379L434 380L433 379M263 380L264 381L263 380M390 380L391 381L390 380M434 380L435 381L434 380M218 381L219 382L218 381M261 381L262 382L261 381M392 381L393 382L392 381M435 381L436 382L435 381M217 382L218 383L217 382M259 382L260 383L259 382M394 382L395 383L394 382M436 382L437 383L436 382M216 383L217 384L216 383M257 383L258 384L257 383M396 383L397 384L396 383M215 384L216 385L215 384M255 384L256 385L255 384M398 384L399 385L398 384M214 385L215 386L214 385M254 385L255 386L254 385M400 385L401 386L400 385M440 385L441 386L440 385M252 386L253 387L252 386M441 386L442 387L441 386M250 387L251 388L250 387M403 387L404 388L403 387M442 387L443 388L442 387M249 388L250 389L249 388M405 388L406 389L405 388M443 388L444 389L443 388M247 389L248 390L247 389M406 389L407 390L406 389M444 389L445 390L444 389M246 390L247 391L246 390M408 390L409 391L408 390M445 390L446 391L445 390M207 391L208 392L207 391M244 391L245 392L244 391M409 391L410 392L409 391M446 391L447 392L446 391M206 392L207 393L206 392M243 392L244 393L243 392M411 392L412 393L411 392M447 392L448 393L447 392M241 393L242 394L241 393M412 393L413 394L412 393M448 393L449 394L448 393M240 394L241 395L240 394M449 394L450 395L449 394M415 395L416 396L415 395M450 395L451 396L450 395M237 396L238 397L237 396M416 396L417 397L416 396M451 396L452 397L451 396M236 397L237 398L236 397M452 397L453 398L452 397M235 398L236 399L235 398M419 398L420 399L419 398M453 398L454 399L453 398M200 399L201 400L200 399M420 399L421 400L420 399M199 400L200 401L199 400M232 400L233 401L232 400M421 400L422 401L421 400M198 401L199 402L198 401M231 401L232 402L231 401M422 401L423 402L422 401M197 402L198 403L197 402M230 402L231 403L230 402M456 402L457 403L456 402M196 403L197 404L196 403M229 403L230 404L229 403M457 403L458 404L457 403M228 404L229 405L228 404M458 404L459 405L458 404M227 405L228 406L227 405M427 405L428 406L427 405M459 405L460 406L459 405M194 406L195 407L194 406M226 406L227 407L226 406M428 406L429 407L428 406M193 407L194 408L193 407M225 407L226 408L225 407M429 407L430 408L429 407M430 408L431 409L430 408M461 408L462 409L461 408M431 409L432 410L431 409M462 409L463 410L462 409M191 410L192 411L191 410M432 410L433 411L432 410M190 411L191 412L190 411M221 411L222 412L221 411M433 411L434 412L433 411M220 412L221 413L220 412M434 412L435 413L434 412M464 412L465 413L464 412M219 413L220 414L219 413M465 413L466 414L465 413M188 414L189 415L188 414M218 414L219 415L218 414M187 415L188 416L187 415M217 415L218 416L217 415M466 415L467 416L466 415M216 416L217 417L216 416M437 416L438 417L437 416M467 416L468 417L467 416M186 417L187 418L186 417M215 417L216 418L215 417M438 417L439 418L438 417M185 418L186 419L185 418M439 418L440 419L439 418M468 418L469 419L468 418M440 419L441 420L440 419M469 419L470 420L469 419M184 420L185 421L184 420M213 420L214 421L213 420M183 421L184 422L183 421M212 421L213 422L212 421M470 421L471 422L470 421M211 422L212 423L211 422M442 422L443 423L442 422M471 422L472 423L471 422M182 423L183 424L182 423M443 423L444 424L443 423M444 424L445 425L444 424M472 424L473 425L472 424M181 425L182 426L181 425M209 425L210 426L209 425M180 426L181 427L180 426M208 426L209 427L208 426M445 426L446 427L445 426M473 426L474 427L473 426M446 427L447 428L446 427M474 427L475 428L474 427M179 428L180 429L179 428M207 428L208 429L207 428M206 429L207 430L206 429M447 429L448 430L447 429M475 429L476 430L475 429M178 430L179 431L178 430M448 430L449 431L448 430M205 431L206 432L205 431M476 431L477 432L476 431M177 432L178 433L177 432M204 432L205 433L204 432M449 432L450 433L449 432M450 433L451 434L450 433M477 433L478 434L477 433M176 434L177 435L176 434M203 434L204 435L203 434M175.333 435.667L175.667 436.333L175.333 435.667M202 435L203 436L202 435M451 435L452 436L451 435M478 435L479 436L478 435M452 436L453 437L452 436M174 437L175 438L174 437M201 437L202 438L201 437M479 437L480 438L479 437M453 438L454 439L453 438M200 439L201 440L200 439M480 439L481 440L480 439M173 440L174 441L173 440M454 440L455 441L454 440M199 441L200 442L199 441M481 441L482 442L481 441M172 442L173 443L172 442M198 442L199 443L198 442M455 442L456 443L455 442M456.333 443.667L456.667 444.333L456.333 443.667M482 443L483 444L482 443M171 444L172 445L171 444M197 444L198 445L197 444M457 445L458 446L457 445M483 445L484 446L483 445M170 446L171 447L170 446M196 446L197 447L196 446M458 447L459 448L458 447M195 448L196 449L195 448M484 448L485 449L484 448M169 449L170 450L169 449M459.333 449.667L459.667 450.333L459.333 449.667M194.333 450.667L194.667 451.333L194.333 450.667M485 450L486 451L485 450M168.333 451.667L168.667 452.333L168.333 451.667M460 452L461 453L460 452M193 453L194 454L193 453M486 453L487 454L486 453M167 454L168 455L167 454M461 454L462 455L461 454M192 455L193 456L192 455M462.333 456.667L462.667 457.333L462.333 456.667M487 456L488 457L487 456M166 457L167 458L166 457M191.333 457.667L191.667 458.333L191.333 457.667M463 459L464 460L463 459M488 459L489 460L488 459M165 460L166 461L165 460M190 460L191 461L190 460M464.333 461.667L464.667 462.333L464.333 461.667M489.333 461.667L489.667 462.333L489.333 461.667M164.333 463.667L164.667 464.333L164.333 463.667M189 463L190 464L189 463M465.333 464.667L465.667 465.333L465.333 464.667M490.333 465.667L490.667 466.333L490.333 465.667M163.333 466.667L163.667 467.333L163.333 466.667M188 466L189 467L188 466M466.333 467.667L466.667 468.333L466.333 467.667M491.333 468.667L491.667 469.333L491.333 468.667M187 469L188 470L187 469M162.333 470.667L162.667 471.333L162.333 470.667M467 471L468 472L467 471M186.333 472.667L186.667 473.333L186.333 472.667M492.333 473.667L492.667 474.333L492.333 473.667M161.333 474.667L161.667 475.333L161.333 474.667M468.333 474.667L468.667 475.333L468.333 474.667M185.333 476.667L185.667 477.333L185.333 476.667M493.333 477.667L493.667 478.333L493.333 477.667M469.333 478.667L469.667 479.333L469.333 478.667M160.333 479.667L160.667 480.333L160.333 479.667M184.333 480.667L184.667 481.333L184.333 480.667M494 482L494 485L495 485L494 482M592 482L592 483L607 483L592 482M634 482L634 483L649 483L649 537L640 537L640 497L639 497L639 538L648.972 536.397L650 525L650 496L648.972 483.603L634 482M672.667 482.333L673.333 482.667L672.667 482.333z"/>
<path style="fill:#010201; stroke:none;" d="M661 501L671 501C672.307 488.334 689.398 488.829 686.706 501C684.08 512.873 668.998 516.06 662.742 525.171C660.415 528.56 661 533.098 661 537L698 537L698 529L674 529C680.309 520.229 693.507 516.189 696.442 505C703.342 478.701 662.214 473.147 661 501z"/>
<path style="fill:#3a6303; stroke:none;" d="M684.667 482.333L685.333 482.667L684.667 482.333M470.333 483.667L470.667 484.333L470.333 483.667z"/>
<path style="fill:#010201; stroke:none;" d="M592 483L592 537L602 537L602 498L603 498C605.5 508.805 609.623 519.643 613.576 529.999C615.241 534.36 617.965 539.127 623.582 536.397C626.846 534.81 627.932 529.126 628.997 526C632.297 516.316 635.317 506.547 639 497L640 497L640 537L649 537L649 483L634.702 484.028L629.997 495L621 521L611.003 495L606.298 484.028L592 483z"/>
<path style="fill:#3a6303; stroke:none;" d="M670 483L671 484L670 483M687 483L688 484L687 483M159 484L159 487L160 487L159 484M607 484L608 485L607 484M633 484L634 485L633 484M668 484L669 485L668 484M689 484L690 485L689 484M183.333 485.667L183.667 486.333L183.333 485.667M691 485L692 486L691 485M632.333 486.667L632.667 487.333L632.333 486.667M692 486L693 487L692 486M608 487L609 488L608 487M693 487L694 488L693 487M471 488L471 491L472 491L471 488M495 488L495 492L496 492L495 488M694 488L695 489L694 488M609.333 489.667L609.667 490.333L609.333 489.667M631.333 489.667L631.667 490.333L631.333 489.667M663 489L664 490L663 489M678.667 490.333L679.333 490.667L678.667 490.333M695 490L696 491L695 490M182 491L182 494L183 494L182 491M662 491L663 492L662 491M675 491L676 492L675 491M683 491L684 492L683 491M158 492L158 496L159 496L158 492M610.333 492.667L610.667 493.333L610.333 492.667M630.333 492.667L630.667 493.333L630.333 492.667M673 492L674 493L673 492M684 492L685 493L684 492M696 492L697 493L696 492M685 493L686 494L685 493M661.333 494.667L661.667 495.333L661.333 494.667M672 494L673 495L672 494M472 495L472 500L473 500L472 495M611.333 495.667L611.667 496.333L611.333 495.667M629.333 495.667L629.667 496.333L629.333 495.667M686 495L687 496L686 495M697 495L697 502L698 502L697 495M671.333 496.667L671.667 497.333L671.333 496.667M496 497L496 504L497 504L496 497M602 498L603 499L602 498M612.333 498.667L612.667 499.333L612.333 498.667M628.333 498.667L628.667 499.333L628.333 498.667M687.333 498.667L687.667 499.333L687.333 498.667M181 500L181 509L182 509L181 500M603.333 500.667L603.667 501.333L603.333 500.667M637.333 500.667L637.667 501.333L637.333 500.667M671 500L672 501L671 500M613 501L614 502L613 501M627 501L628 502L627 501M686 502L687 503L686 502M157 503L157 521L158 521L157 503M604.333 503.667L604.667 504.333L604.333 503.667M636.333 503.667L636.667 504.333L636.333 503.667M614 504L615 505L614 504M626 504L627 505L626 504M685 504L686 505L685 504M696 505L697 506L696 505M605.333 506.667L605.667 507.333L605.333 506.667M635.333 506.667L635.667 507.333L635.333 506.667M684 506L685 507L684 506M615 507L616 508L615 507M625 507L626 508L625 507M683 507L684 508L683 507M682 508L683 509L682 508M695 508L696 509L695 508M606.333 509.667L606.667 510.333L606.333 509.667M634.333 509.667L634.667 510.333L634.333 509.667M681 509L682 510L681 509M694 509L695 510L694 509M616 510L617 511L616 510M624 510L625 511L624 510M680 510L681 511L680 510M679 511L680 512L679 511M693 511L694 512L693 511M607 512L608 513L607 512M633 512L634 513L633 512M678 512L679 513L678 512M692 512L693 513L692 512M617 513L618 514L617 513M623 513L624 514L623 513M691 513L692 514L691 513M675 514L676 515L675 514M690 514L691 515L690 514M181 515L181 524L182 524L181 515M608 515L609 516L608 515M632 515L633 516L632 515M674 515L675 516L674 515M689 515L690 516L689 515M618 516L619 517L618 516M622 516L623 517L622 516M672 516L673 517L672 516M671 517L672 518L671 517M686 517L687 518L686 517M609 518L610 519L609 518M619.333 518.667L619.667 519.333L619.333 518.667M621.333 518.667L621.667 519.333L621.333 518.667M631 518L632 519L631 518M670 518L671 519L670 518M685 518L686 519L685 518M668 519L669 520L668 519M684 519L685 520L684 519M496 520L496 527L497 527L496 520M667 520L668 521L667 520M682 520L683 521L682 520M610 521L611 522L610 521M630 521L631 522L630 521M666 521L667 522L666 521M681 521L682 522L681 521M665 522L666 523L665 522M678 523L679 524L678 523M472 524L472 529L473 529L472 524M611 524L612 525L611 524M629 524L630 525L629 524M677 524L678 525L677 524M676 525L677 526L676 525M661 526L662 527L661 526M675 526L676 527L675 526M612 527L613 528L612 527M628 527L629 528L628 527M674 527C677.989 531.565 692.132 529 698 529L698 528L674 527M158 528L158 532L159 532L158 528M660 528L660 538L698 538L698 537L661 537L660 528M613.333 529.667L613.667 530.333L613.333 529.667M182 530L182 533L183 533L182 530M627 530L628 531L627 530M495 532L495 536L496 536L495 532M614.333 532.667L614.667 533.333L614.333 532.667M626.333 532.667L626.667 533.333L626.333 532.667M471 533L471 536L472 536L471 533M615.333 535.667L615.667 536.333L615.333 535.667M625.333 535.667L625.667 536.333L625.333 535.667M159 537L159 540L160 540L159 537M183.333 537.667L183.667 538.333L183.333 537.667M592 537L592 538L602 538L592 537M616 537L616 538L625 538L616 537M470.333 539.667L470.667 540.333L470.333 539.667M494 539L494 542L495 542L494 539M184.333 542.667L184.667 543.333L184.333 542.667M160.333 543.667L160.667 544.333L160.333 543.667M469.333 544.667L469.667 545.333L469.333 544.667M764 544L765 545L764 544z"/>
<path style="fill:#010201; stroke:none;" d="M759 555C765.923 554.773 769.417 550.11 772 544C764.292 544.091 762.077 548.409 759 555z"/>
<path style="fill:#3a6303; stroke:none;" d="M772 544L773 545L772 544M777 544L778 545L777 544z"/>
<path style="fill:#010201; stroke:none;" d="M772 555C778.712 554.494 782.154 549.714 785 544C777.258 544.092 774.836 548.225 772 555z"/>
<path style="fill:#3a6303; stroke:none;" d="M785 544L786 545L785 544M493.333 545.667L493.667 546.333L493.333 545.667M784 545L785 546L784 545M185.333 546.667L185.667 547.333L185.333 546.667M763 546L764 547L763 546M776 546L777 547L776 546M770 547L771 548L770 547M775 547L776 548L775 547M161.333 548.667L161.667 549.333L161.333 548.667M468.333 548.667L468.667 549.333L468.333 548.667M762 548L763 549L762 548M769 548L770 549L769 548M782 548L783 549L782 548M492.333 549.667L492.667 550.333L492.333 549.667M774 549L775 550L774 549M781 549L782 550L781 549M186.333 550.667L186.667 551.333L186.333 550.667M761 550L762 551L761 550M760 551L761 552L760 551M767 551L768 552L767 551M773 551L774 552L773 551M162.333 552.667L162.667 553.333L162.333 552.667M467 552L468 553L467 552M766 552L767 553L766 552M779 552L780 553L779 552M759 553L760 554L759 553M772 553L773 554L772 553M778 553L779 554L778 553M187 554L188 555L187 554M491 554L492 555L491 554M771 554L777 556L777 555L771 554M777 554L778 555L777 554M466.333 555.667L466.667 556.333L466.333 555.667M758 555L758 556L765 556L758 555M163.333 556.667L163.667 557.333L163.333 556.667M188 557L189 558L188 557M490.333 557.667L490.667 558.333L490.333 557.667M465.333 558.667L465.667 559.333L465.333 558.667M164.333 559.667L164.667 560.333L164.333 559.667M189 560L190 561L189 560M765 560L765 561L771 561L765 560M464.333 561.667L464.667 562.333L464.333 561.667M489.333 561.667L489.667 562.333L489.333 561.667M590 561L590 618L602 618L602 617L591 617L591 562L620 562L590 561M643 561L643 562L682 562L682 571L655 571L655 572L683 572L683 561L643 561M689 561L689 572L706 572L706 571L690 571L690 562L734 562C722.299 557.09 701.742 561 689 561M759.667 561.333L760.333 561.667L759.667 561.333z"/>
<path style="fill:#010201; stroke:none;" d="M761 561.468C740.591 565.318 731.976 591.934 744.532 607.985C751.643 617.075 764.031 619.595 775 617.671C795.592 614.06 802.587 587.773 791.211 572.004C784.403 562.568 772.13 559.368 761 561.468z"/>
<path style="fill:#3a6303; stroke:none;" d="M774.667 561.333L775.333 561.667L774.667 561.333M806 618L818 618L818 617L807 617L807 562L846 562L817 561L807.028 562.603L806 578L806 618M855 561L855 562L866 562L866 617L855 617L855 618L867 618L867 561L855 561z"/>
<path style="fill:#010201; stroke:none;" d="M591 562L591 617L602 617L602 597C609.873 597 619.851 598.648 626.96 594.583C637.145 588.758 637.811 571.475 627.957 564.995C618.571 558.822 601.77 562 591 562z"/>
<path style="fill:#3a6303; stroke:none;" d="M622.667 562.333L623.333 562.667L622.667 562.333z"/>
<path style="fill:#010201; stroke:none;" d="M643 562L643 617L682 617L682 608L655 608L655 594L682 594L682 584L655 584L655 571L682 571L682 562L643 562M690 562L690 571L706 571L706 617L717 617L717 585L718.603 572.603L734 571L734 562L690 562z"/>
<path style="fill:#3a6303; stroke:none;" d="M756 562L757 563L756 562M778 562L779 563L778 562z"/>
<path style="fill:#010201; stroke:none;" d="M807 562L807 617L818 617L818 594L845 594L845 584L818 584C818 580.831 817.179 576.088 819.028 573.318C822.515 568.093 840.28 571 846 571L846 562L807 562M855 562L855 617L866 617L866 562L855 562z"/>
<path style="fill:#3a6303; stroke:none;" d="M165 563L166 564L165 563M190 563L191 564L190 563M625 563L626 564L625 563M754 563L755 564L754 563M781 563L782 564L781 563M463 564L464 565L463 564M488 564L489 565L488 564M627 564L628 565L627 564M752 564L753 565L752 564M783 564L784 565L783 564M191.333 565.667L191.667 566.333L191.333 565.667M750 565L751 566L750 565M784 565L785 566L784 565M166 566L167 567L166 566M462.333 566.667L462.667 567.333L462.333 566.667M749 566L750 567L749 566M487 567L488 568L487 567M748 567L749 568L748 567M787 567L788 568L787 567M192 568L193 569L192 568M788 568L789 569L788 568M167 569L168 570L167 569M461 569L462 570L461 569M632 569L633 570L632 569M789 569L790 570L789 569M193 570L194 571L193 570M486 570L487 571L486 570M745 570L746 571L745 570M790 570L791 571L790 570M168.333 571.667L168.667 572.333L168.333 571.667M460 571L461 572L460 571M603 571L603 572L615 572L603 571M633 571L634 572L633 571M718 571L718 572L734 572L718 571M744 571L745 572L744 571M762.667 571.333L763.333 571.667L762.667 571.333z"/>
<path style="fill:#7dcb0d; stroke:none;" d="M764 571.529C742.39 576.49 749.162 612.736 772 607.606C793.3 602.822 786.057 566.466 764 571.529z"/>
<path style="fill:#3a6303; stroke:none;" d="M772.667 571.333L773.333 571.667L772.667 571.333M819 571L819 572L846 572L819 571M194.333 572.667L194.667 573.333L194.333 572.667M485.333 572.667L485.667 573.333L485.333 572.667z"/>
<path style="fill:#7dcb0d; stroke:none;" d="M602 572L602 587C607.05 587 614.376 588.321 618.941 585.821C624.499 582.777 623.726 575.036 617.981 572.742C613.37 570.901 606.891 572 602 572z"/>
<path style="fill:#3a6303; stroke:none;" d="M618 572L619 573L618 572M717 572L717 617L706 617L706 618L718 618C718 604.997 722.01 583.939 717 572M743 572L744 573L743 572M760 572L761 573L760 572M775 572L776 573L775 572M791 572L792 573L791 572M459.333 573.667L459.667 574.333L459.333 573.667M620 573L621 574L620 573M634.333 573.667L634.667 574.333L634.333 573.667M758 573L759 574L758 573M777 573L778 574L777 573M792 573L793 574L792 573M169 574L170 575L169 574M621 574L622 575L621 574M742 574L743 575L742 574M778 574L779 575L778 574M195 575L196 576L195 575M484 575L485 576L484 575M622 575L623 576L622 575M755 575L756 576L755 575M779 575L780 576L779 575M793 575L794 576L793 575M458 576L459 577L458 576M741 576L742 577L741 576M780 576L781 577L780 576M170 577L171 578L170 577M196 577L197 578L196 577M781 577L782 578L781 577M794 577L795 578L794 577M457 578L458 579L457 578M483 578L484 579L483 578M623 578L623 581L624 581L623 578M740 578L741 579L740 578M753 578L754 579L753 578M171 579L172 580L171 579M197 579L198 580L197 579M456.333 579.667L456.667 580.333L456.333 579.667M782 579L783 580L782 579M795.333 579.667L795.667 580.333L795.333 579.667M482 580L483 581L482 580M752 580L753 581L752 580M172 581L173 582L172 581M198 581L199 582L198 581M455 581L456 582L455 581M739.333 581.667L739.667 582.333L739.333 581.667M783 581L784 582L783 581M199 582L200 583L199 582M481 582L482 583L481 582M751 582L752 583L751 582M173 583L174 584L173 583M454 583L455 584L454 583M622 583L623 584L622 583M796 583L796 586L797 586L796 583M818 583L819 584L818 583M200 584L201 585L200 584M480 584L481 585L480 584M621 584L622 585L621 584M634.333 584.667L634.667 585.333L634.333 584.667M784.333 584.667L784.667 585.333L784.333 584.667M845 584L845 594L846 594L845 584M453 585L454 586L453 585M620 585L621 586L620 585M174 586L175 587L174 586M201 586L202 587L201 586M479 586L480 587L479 586M618 586L619 587L618 586M738 586L738 594L739 594L738 586M750 586L750 594L751 594L750 586M175.333 587.667L175.667 588.333L175.333 587.667M452 587L453 588L452 587M602 587L602 588L615 588L602 587M633 587L634 588L633 587M202 588L203 589L202 588M451 588L452 589L451 588M478 588L479 589L478 588M176 589L177 590L176 589M203 589L204 590L203 589M632 589L633 590L632 589M450 590L451 591L450 590M477 590L478 591L477 590M631 590L632 591L631 590M177 591L178 592L177 591M204 591L205 592L204 591M449 591L450 592L449 591M205 592L206 593L205 592M476 592L477 593L476 592M178 593L179 594L178 593M448 593L449 594L448 593M796 593L796 596L797 596L796 593M206 594L207 595L206 594M447 594L448 595L447 594M475 594L476 595L475 594M627 594L628 595L627 594M784.333 594.667L784.667 595.333L784.333 594.667M818 594L819 595L818 594M179 595L180 596L179 595M207 595L208 596L207 595M625 595L626 596L625 595M446 596L447 597L446 596M474 596L475 597L474 596M622.667 596.333L623.333 596.667L622.667 596.333M751 596L752 597L751 596M180 597L181 598L180 597M208 597L209 598L208 597M445 597L446 598L445 597M473 597L474 598L473 597M602 597L602 598L620 598L602 597M739.333 597.667L739.667 598.333L739.333 597.667M783.333 597.667L783.667 598.333L783.333 597.667M181 598L182 599L181 598M209 598L210 599L209 598M210 599L211 600L210 599M444 599L445 600L444 599M472 599L473 600L472 599M752 599L753 600L752 599M795 599L796 600L795 599M182 600L183 601L182 600M443 600L444 601L443 600M740.333 600.667L740.667 601.333L740.333 600.667M753 600L754 601L753 600M782 600L783 601L782 600M211 601L212 602L211 601M442 601L443 602L442 601M471 601L472 602L471 601M781 601L782 602L781 601M794 601L795 602L794 601M183 602L184 603L183 602M212 602L213 603L212 602M470 602L471 603L470 602M754 602L755 603L754 602M184 603L185 604L184 603M213 603L214 604L213 603M741 603L742 604L741 603M755 603L756 604L755 603M440 604L441 605L440 604M469 604L470 605L469 604M756 604L757 605L756 604M778 604L779 605L778 604M793 604L794 605L793 604M185 605L186 606L185 605M439 605L440 606L439 605M468 605L469 606L468 605M757 605L758 606L757 605M777 605L778 606L777 605M792 605L793 606L792 605M186 606L187 607L186 606M438 606L439 607L438 606M743 606L744 607L743 606M759 606L760 607L759 606M775 606L776 607L775 606M216 607L217 608L216 607M437 607L438 608L437 607M467 607L468 608L467 607M655 607L655 608L682 608L682 617L643 617L643 618L683 618L683 607L655 607M761.667 607.333L762.333 607.667L761.667 607.333M773 607L774 608L773 607M791 607L792 608L791 607M187 608L188 609L187 608M217 608L218 609L217 608M466 608L467 609L466 608M765 608L765 609L770 609L765 608M790 608L791 609L790 608M188 609L189 610L188 609M218 609L219 610L218 609M745 609L746 610L745 609M789 609L790 610L789 609M219 610L220 611L219 610M465 610L466 611L465 610M746 610L747 611L746 610M788 610L789 611L788 610M220 611L221 612L220 611M464 611L465 612L464 611M787 611L788 612L787 611M190 612L191 613L190 612M221 612L222 613L221 612M433 612L434 613L433 612M786 612L787 613L786 612M191 613L192 614L191 613M432 613L433 614L432 613M750 613L751 614L750 613M785 613L786 614L785 613M431 614L432 615L431 614M462 614L463 615L462 614M751 614L752 615L751 614M783 614L784 615L783 614M430 615L431 616L430 615M461 615L462 616L461 615M753 615L754 616L753 615M781 615L782 616L781 615M193 616L194 617L193 616M225 616L226 617L225 616M429 616L430 617L429 616M460 616L461 617L460 616M755.667 616.333L756.333 616.667L755.667 616.333M779 616L780 617L779 616M194 617L195 618L194 617M226 617L227 618L226 617M428 617L429 618L428 617M758.667 617.333L759.333 617.667L758.667 617.333M776 617L777 618L776 617M195 618L196 619L195 618M227 618L228 619L227 618M427 618L428 619L427 618M459 618L460 619L459 618M762 618L762 619L773 619L762 618M228 619L229 620L228 619M458 619L459 620L458 619M196 620L197 621L196 620M229 620L230 621L229 620M457 620L458 621L457 620M197 621L198 622L197 621M230 621L231 622L230 621M456 621L457 622L456 621M198 622L199 623L198 622M231 622L232 623L231 622M422 622L423 623L422 622M199 623L200 624L199 623M232 623L233 624L232 623M421 623L422 624L421 623M200 624L201 625L200 624M420 624L421 625L420 624M235 625L236 626L235 625M419 625L420 626L419 625M453 625L454 626L453 625M236 626L237 627L236 626M452 626L453 627L452 626M237 627L238 628L237 627M416 627L417 628L416 627M451 627L452 628L451 627M415 628L416 629L415 628M450 628L451 629L450 628M240 629L241 630L240 629M449 629L450 630L449 629M241 630L242 631L241 630M412 630L413 631L412 630M448 630L449 631L448 630M206 631L207 632L206 631M243 631L244 632L243 631M411 631L412 632L411 631M447 631L448 632L447 631M207 632L208 633L207 632M244 632L245 633L244 632M409 632L410 633L409 632M446 632L447 633L446 632M246 633L247 634L246 633M408 633L409 634L408 633M445 633L446 634L445 633M247 634L248 635L247 634M406 634L407 635L406 634M444 634L445 635L444 634M249 635L250 636L249 635M405 635L406 636L405 635M443 635L444 636L443 635M250 636L251 637L250 636M403 636L404 637L403 636M442 636L443 637L442 636M252 637L253 638L252 637M401 637L402 638L401 637M441 637L442 638L441 637M214 638L215 639L214 638M254 638L255 639L254 638M400 638L401 639L400 638M440 638L441 639L440 638M215 639L216 640L215 639M255 639L256 640L255 639M398 639L399 640L398 639M216 640L217 641L216 640M257 640L258 641L257 640M396 640L397 641L396 640M217 641L218 642L217 641M259 641L260 642L259 641M394 641L395 642L394 641M436 641L437 642L436 641M218 642L219 643L218 642M261 642L262 643L261 642M392 642L393 643L392 642M435 642L436 643L435 642M263 643L264 644L263 643M390 643L391 644L390 643M434 643L435 644L434 643M221 644L222 645L221 644M265 644L266 645L265 644M388 644L389 645L388 644M433 644L434 645L433 644M222 645L223 646L222 645M267.667 645.333L268.333 645.667L267.667 645.333M386 645L387 646L386 645M431 645L432 646L431 645M223 646L224 647L223 646M270 646L271 647L270 646M384 646L385 647L384 646M430 646L431 647L430 646M225 647L226 648L225 647M272 647L273 648L272 647M381 647L382 648L381 647M429 647L430 648L429 647M226 648L227 649L226 648M275 648L276 649L275 648M379 648L380 649L379 648M277.667 649.333L278.333 649.667L277.667 649.333M376 649L377 650L376 649M426 649L427 650L426 649M229 650L230 651L229 650M280.667 650.333L281.333 650.667L280.667 650.333M373 650L374 651L373 650M425 650L426 651L425 650M230 651L231 652L230 651M283.667 651.333L284.333 651.667L283.667 651.333M370 651L371 652L370 651M423 651L424 652L423 651M232 652L233 653L232 652M287 652L288 653L287 652M366.667 652.333L367.333 652.667L366.667 652.333M422 652L423 653L422 652M233 653L234 654L233 653M290 653L290 654L293 654L290 653z"/>
<path style="fill:#7dcb0d; stroke:none;" d="M293 653L294 654L293 653z"/>
<path style="fill:#3a6303; stroke:none;" d="M361 653L361 654L364 654L361 653M420 653L421 654L420 653M235 654L236 655L235 654M295.667 654.333L296.333 654.667L295.667 654.333z"/>
<path style="fill:#7dcb0d; stroke:none;" d="M297 654L298 655L297 654M356 654L357 655L356 654z"/>
<path style="fill:#3a6303; stroke:none;" d="M357.667 654.333L358.333 654.667L357.667 654.333M419 654L420 655L419 654M236 655L237 656L236 655M300 655L300 656L303 656L300 655z"/>
<path style="fill:#7dcb0d; stroke:none;" d="M303 655L304 656L303 655M351 655L352 656L351 655z"/>
<path style="fill:#3a6303; stroke:none;" d="M352 655L352 656L355 656L352 655M417 655L418 656L417 655M238 656L239 657L238 656M306 656L306 657L310 657L306 656z"/>
<path style="fill:#7dcb0d; stroke:none;" d="M310 656L311 657L310 656M343.667 656.333L344.333 656.667L343.667 656.333z"/>
<path style="fill:#3a6303; stroke:none;" d="M345 656L345 657L348 657L345 656M416 656L417 657L416 656M239 657L240 658L239 657M315 657L315 658L318 658L315 657M336 657L336 658L340 658L336 657M414 657L415 658L414 657M241 658L242 659L241 658M412 658L413 659L412 658M243 659L244 660L243 659M411 659L412 660L411 659M245 660L246 661L245 660M409 660L410 661L409 660M246 661L247 662L246 661M407 661L408 662L407 661M248 662L249 663L248 662M405 662L406 663L405 662M250 663L251 664L250 663M403 663L404 664L403 663M252 664L253 665L252 664M401 664L402 665L401 664M254 665L255 666L254 665M399 665L400 666L399 665M257 666L258 667L257 666M397 666L398 667L397 666M259 667L260 668L259 667M395 667L396 668L395 667M261 668L262 669L261 668M392 668L393 669L392 668M264 669L265 670L264 669M390 669L391 670L390 669M266 670L267 671L266 670M387 670L388 671L387 670M268.667 671.333L269.333 671.667L268.667 671.333M385 671L386 672L385 671M271.667 672.333L272.333 672.667L271.667 672.333M382 672L383 673L382 672M274.667 673.333L275.333 673.667L274.667 673.333M379 673L380 674L379 673M277.667 674.333L278.333 674.667L277.667 674.333M375.667 674.333L376.333 674.667L375.667 674.333M281.667 675.333L282.333 675.667L281.667 675.333M372.667 675.333L373.333 675.667L372.667 675.333M284.667 676.333L285.333 676.667L284.667 676.333M368.667 676.333L369.333 676.667L368.667 676.333M289.667 677.333L290.333 677.667L289.667 677.333M364.667 677.333L365.333 677.667L364.667 677.333M292.667 678.333L293.333 678.667L292.667 678.333M360.667 678.333L361.333 678.667L360.667 678.333z"/>
<path style="fill:#7dcb0d; stroke:none;" d="M362 678L363 679L362 678z"/>
<path style="fill:#ffffff; stroke:none;" d="M363 678L339 682L339 734L364 734L364 696L363 678M291 679L291 734L316 734L316 682L291 679z"/>
<path style="fill:#9bc77d; stroke:none;" d="M296 679L297 680L296 679z"/>
<path style="fill:#3a6303; stroke:none;" d="M297 679L297 680L300 680L297 679M355.667 679.333L356.333 679.667L355.667 679.333z"/>
<path style="fill:#7dcb0d; stroke:none;" d="M357 679L358 680L357 679M303 680L304 681L303 680z"/>
<path style="fill:#3a6303; stroke:none;" d="M304 680L304 681L308 681L304 680M347 680L347 681L351 681L347 680z"/>
<path style="fill:#7dcb0d; stroke:none;" d="M351 680L352 681L351 680M310.667 681.333L311.333 681.667L310.667 681.333z"/>
<path style="fill:#3a6303; stroke:none;" d="M312 681L312 682L342 682L312 681z"/>
<path style="fill:#7dcb0d; stroke:none;" d="M342.667 681.333L343.333 681.667L342.667 681.333z"/>
</svg>
