<?xml version="1.0" standalone="yes"?>
<svg xmlns="http://www.w3.org/2000/svg" width="1024" height="1024">
<path style="fill:#55c1eb; stroke:none;" d="M0 0L0 1024L1024 1024L1024 0L0 0z"/>
<path style="fill:#ffffff; stroke:none;" d="M309 218L309 299L339 291L339 218L309 218z"/>
<path style="fill:#8cc7e4; stroke:none;" d="M366 218L367 219L366 218z"/>
<path style="fill:#ffffff; stroke:none;" d="M366 287L397 287L397 218C390.364 218 372.864 214.861 367.603 219.028C364.171 221.746 366 232.062 366 236L366 287M424 218L424 291L455 299L455 218L424 218z"/>
<path style="fill:#29647b; stroke:none;" d="M368 287L368 288L396 288L368 287M358 288L358 289L363 289L358 288z"/>
<path style="fill:#010202; stroke:none;" d="M363 288.424C320.789 293.983 282.709 306.165 248 331.735C224.866 348.777 205.069 370.396 190.204 395C116.731 516.609 176.169 685.016 315 726.562C345.107 735.571 377.803 738.496 409 734.714C441.804 730.739 472.991 719.592 501 702.05C523.448 687.992 543.33 669.926 559.575 649C637.22 548.98 613.191 400.158 510 327.721C488.823 312.855 464.126 301.163 439 294.873C414.987 288.863 387.736 285.167 363 288.424z"/>
<path style="fill:#29647b; stroke:none;" d="M400 288L400 289L406 289L400 288M350 289L350 290L354 290L350 289M410 289L410 290L413 290L410 289M344.667 290.333L345.333 290.667L344.667 290.333M417 290L417 291L420 291L417 290z"/>
<path style="fill:#55c1eb; stroke:none;" d="M336 291L337 292L336 291z"/>
<path style="fill:#29647b; stroke:none;" d="M337 291L337 292L341 292L337 291M423 291L423 292L427 292L423 291z"/>
<path style="fill:#55c1eb; stroke:none;" d="M332 292L333 293L332 292z"/>
<path style="fill:#29647b; stroke:none;" d="M333.667 292.333L334.333 292.667L333.667 292.333M429.667 292.333L430.333 292.667L429.667 292.333z"/>
<path style="fill:#55c1eb; stroke:none;" d="M431 292L432 293L431 292z"/>
<path style="fill:#8cc7e4; stroke:none;" d="M327 293L328 294L327 293z"/>
<path style="fill:#29647b; stroke:none;" d="M328.667 293.333L329.333 293.667L328.667 293.333M433.667 293.333L434.333 293.667L433.667 293.333z"/>
<path style="fill:#55c1eb; stroke:none;" d="M435 293L436 294L435 293z"/>
<path style="fill:#29647b; stroke:none;" d="M324.667 294.333L325.333 294.667L324.667 294.333M437.667 294.333L438.333 294.667L437.667 294.333z"/>
<path style="fill:#55c1eb; stroke:none;" d="M439 294L440 295L439 294M320 295L321 296L320 295z"/>
<path style="fill:#29647b; stroke:none;" d="M321.667 295.333L322.333 295.667L321.667 295.333M441.667 295.333L442.333 295.667L441.667 295.333M317.667 296.333L318.333 296.667L317.667 296.333M445 296L446 297L445 296z"/>
<path style="fill:#55c1eb; stroke:none;" d="M446 296L447 297L446 296M313 297L314 298L313 297z"/>
<path style="fill:#29647b; stroke:none;" d="M314 297L315 298L314 297M448.667 297.333L449.333 297.667L448.667 297.333z"/>
<path style="fill:#55c1eb; stroke:none;" d="M310 298L311 299L310 298z"/>
<path style="fill:#29647b; stroke:none;" d="M311 298L312 299L311 298M451.667 298.333L452.333 298.667L451.667 298.333M309 299L310 300L309 299M454 299L455 300L454 299M306 300L307 301L306 300M456.667 300.333L457.333 300.667L456.667 300.333M303 301L304 302L303 301M459.667 301.333L460.333 301.667L459.667 301.333M300.667 302.333L301.333 302.667L300.667 302.333M462 302L463 303L462 302M298 303L299 304L298 303M464.667 303.333L465.333 303.667L464.667 303.333M295.667 304.333L296.333 304.667L295.667 304.333M467 304L468 305L467 304M293 305L294 306L293 305M469.667 305.333L470.333 305.667L469.667 305.333M291 306L292 307L291 306M472 306L473 307L472 306M289 307L290 308L289 307M474 307L475 308L474 307M286.667 308.333L287.333 308.667L286.667 308.333M476 308L477 309L476 308M284 309L285 310L284 309M478 309L479 310L478 309M282 310L283 311L282 310M480 310L481 311L480 310M280 311L281 312L280 311M482 311L483 312L482 311M278 312L279 313L278 312M484 312L485 313L484 312M276 313L277 314L276 313M486 313L487 314L486 313M274.667 314.333L275.333 314.667L274.667 314.333M488 314L489 315L488 314M273 315L274 316L273 315M490 315L491 316L490 315M271 316L272 317L271 316M491.667 316.333L492.333 316.667L491.667 316.333M269 317L270 318L269 317M493 317L494 318L493 317M495 318L496 319L495 318M266 319L267 320L266 319M365.667 319.333L366.333 319.667L365.667 319.333M368 319L368 320L380 320L368 319z"/>
<path style="fill:#55c1eb; stroke:none;" d="M380 319L380 320L384 320L380 319z"/>
<path style="fill:#29647b; stroke:none;" d="M384 319L384 320L398 320L384 319M497 319L498 320L497 319M264 320L265 321L264 320M356 320L356 321L360 321L356 320z"/>
<path style="fill:#55c1eb; stroke:none;" d="M338 324C341.398 338.271 339 355.354 339 370L339 462L339 622C339 646.405 343.649 676.271 338 700L366 704L366 320L338 324z"/>
<path style="fill:#ffffff; stroke:none;" d="M366 320L366 704L397 704L397 320L366 320z"/>
<path style="fill:#55c1eb; stroke:none;" d="M397 320L397 704C402.75 703.952 419.141 704.088 422.972 699.262C425.885 695.592 424 685.491 424 681L424 631L424 401L424 345C424 340.126 426.114 328.696 422.972 324.738C419.141 319.912 402.75 320.048 397 320z"/>
<path style="fill:#29647b; stroke:none;" d="M404 320L404 321L407 321L404 320M498 320L499 321L498 320M263 321L264 322L263 321M349 321L349 322L352 322L349 321M411 321L411 322L414 322L411 321M500 321L501 322L500 321M261 322L262 323L261 322M344 322L344 323L347 323L344 322M417 322L417 323L420 323L417 322M259 323L260 324L259 323M339.667 323.333L340.333 323.667L339.667 323.333M422.667 323.333L423.333 323.667L422.667 323.333M503 323L504 324L503 323M258 324L259 325L258 324M336.667 324.333L337.333 324.667L336.667 324.333z"/>
<path style="fill:#ffffff; stroke:none;" d="M424 324L424 700C430.972 698.036 451.11 695.904 454.397 688.725C457.151 682.71 455 671.566 455 665L455 608L455 406L455 354C455 348.951 456.931 338.795 453.972 334.499C449.333 327.764 431.472 326.105 424 324z"/>
<path style="fill:#55c1eb; stroke:none;" d="M425 324L426 325L425 324z"/>
<path style="fill:#29647b; stroke:none;" d="M426.667 324.333L427.333 324.667L426.667 324.333M505 324L506 325L505 324M256 325L257 326L256 325M332 325L333 326L332 325z"/>
<path style="fill:#55c1eb; stroke:none;" d="M333 325L334 326L333 325z"/>
<path style="fill:#ffffff; stroke:none;" d="M339 699L339 325C332.231 325.309 314.016 328.416 310.028 334.419C307.09 338.84 309 348.856 309 354L309 403L309 627L309 672C309 676.714 307.323 685.511 310.028 689.581C314.016 695.584 332.231 698.691 339 699z"/>
<path style="fill:#55c1eb; stroke:none;" d="M429 325L430 326L429 325z"/>
<path style="fill:#29647b; stroke:none;" d="M430.667 325.333L431.333 325.667L430.667 325.333M506 325L507 326L506 325M255 326L256 327L255 326M328.667 326.333L329.333 326.667L328.667 326.333z"/>
<path style="fill:#55c1eb; stroke:none;" d="M330 326L331 327L330 326M433 326L434 327L433 326z"/>
<path style="fill:#29647b; stroke:none;" d="M434 326L435 327L434 326M508 326L509 327L508 326M325 327L326 328L325 327z"/>
<path style="fill:#55c1eb; stroke:none;" d="M326 327L327 328L326 327z"/>
<path style="fill:#8cc7e4; stroke:none;" d="M436 327L437 328L436 327z"/>
<path style="fill:#29647b; stroke:none;" d="M437.667 327.333L438.333 327.667L437.667 327.333M509 327L510 328L509 327M252 328L253 329L252 328M322 328L323 329L322 328z"/>
<path style="fill:#55c1eb; stroke:none;" d="M323 328L324 329L323 328M440 328L441 329L440 328z"/>
<path style="fill:#29647b; stroke:none;" d="M441 328L442 329L441 328M251 329L252 330L251 329M319 329L320 330L319 329z"/>
<path style="fill:#55c1eb; stroke:none;" d="M320 329L321 330L320 329z"/>
<path style="fill:#29647b; stroke:none;" d="M443.667 329.333L444.333 329.667L443.667 329.333M512 329L513 330L512 329M249 330L250 331L249 330M316 330L317 331L316 330z"/>
<path style="fill:#55c1eb; stroke:none;" d="M317 330L318 331L317 330z"/>
<path style="fill:#29647b; stroke:none;" d="M446.667 330.333L447.333 330.667L446.667 330.333M513 330L514 331L513 330M248 331L249 332L248 331M313 331L314 332L313 331z"/>
<path style="fill:#55c1eb; stroke:none;" d="M314 331L315 332L314 331z"/>
<path style="fill:#29647b; stroke:none;" d="M449 331L450 332L449 331M515 331L516 332L515 331M311 332L312 333L311 332z"/>
<path style="fill:#55c1eb; stroke:none;" d="M451 332L452 333L451 332z"/>
<path style="fill:#29647b; stroke:none;" d="M452 332L453 333L452 332M516 332L517 333L516 332M245 333L246 334L245 333M308 333L309 334L308 333z"/>
<path style="fill:#55c1eb; stroke:none;" d="M309 333L310 334L309 333M454 333C457.257 346.679 455 362.965 455 377L455 464L455 617C455 640.186 459.368 668.452 454 691C479.186 680.667 501.951 665.511 520.985 646C591.477 573.743 590.662 454.992 523.83 381C504.758 359.885 480.214 343.755 454 333z"/>
<path style="fill:#29647b; stroke:none;" d="M455 333L456 334L455 333M517 333L518 334L517 333M244 334L245 335L244 334M305 334L306 335L305 334z"/>
<path style="fill:#55c1eb; stroke:none;" d="M310 691L309 652L309 576L309 334C299.371 335.716 289.217 342.17 281 347.319C260.75 360.011 242.578 375.886 228.13 395C166.015 477.171 180.173 598.035 261 662.6C275.51 674.191 292.312 684.977 310 691z"/>
<path style="fill:#29647b; stroke:none;" d="M457 334L458 335L457 334M243 335L244 336L243 335M303 335L304 336L303 335M459.667 335.333L460.333 335.667L459.667 335.333M520 335L521 336L520 335M301 336L302 337L301 336M462 336L463 337L462 336M521 336L522 337L521 336M240 337L241 338L240 337M298.667 337.333L299.333 337.667L298.667 337.333M464 337L465 338L464 337M522 337L523 338L522 337M239 338L240 339L239 338M296 338L297 339L296 338M466 338L467 339L466 338M238 339L239 340L238 339M294.667 339.333L295.333 339.667L294.667 339.333M468 339L469 340L468 339M525 339L526 340L525 339M293 340L294 341L293 340M470 340L471 341L470 340M526 340L527 341L526 340M291 341L292 342L291 341M472 341L473 342L472 341M527 341L528 342L527 341M234 342L235 343L234 342M289 342L290 343L289 342M474 342L475 343L474 342M528 342L529 343L528 342M233 343L234 344L233 343M287 343L288 344L287 343M476 343L477 344L476 343M232 344L233 345L232 344M285 344L286 345L285 344M477 344L478 345L477 344M231 345L232 346L231 345M283 345L284 346L283 345M479 345L480 346L479 345M532 345L533 346L532 345M230 346L231 347L230 346M282 346L283 347L282 346M481 346L482 347L481 346M533 346L534 347L533 346M280 347L281 348L280 347M482 347L483 348L482 347M534 347L535 348L534 347M279 348L280 349L279 348M484 348L485 349L484 348M535 348L536 349L535 348M277 349L278 350L277 349M536 349L537 350L536 349M275 350L276 351L275 350M487 350L488 351L487 350M537 350L538 351L537 350M274 351L275 352L274 351M489 351L490 352L489 351M538 351L539 352L538 351M272 352L273 353L272 352M490 352L491 353L490 352M539 352L540 353L539 352M271 353L272 354L271 353M540 353L541 354L540 353M270 354L271 355L270 354M493 354L494 355L493 354M541 354L542 355L541 354M268 355L269 356L268 355M494 355L495 356L494 355M542 355L543 356L542 355M267 356L268 357L267 356M496 356L497 357L496 356M543 356L544 357L543 356M265 357L266 358L265 357M497 357L498 358L497 357M544 357L545 358L544 357M264 358L265 359L264 358M498 358L499 359L498 358M545 358L546 359L545 358M263 359L264 360L263 359M500 359L501 360L500 359M546 359L547 360L546 359M216 360L217 361L216 360M501 360L502 361L501 360M547 360L548 361L547 360M215 361L216 362L215 361M260 361L261 362L260 361M502 361L503 362L502 361M548 361L549 362L548 361M214 362L215 363L214 362M259 362L260 363L259 362M213 363L214 364L213 363M258 363L259 364L258 363M505 363L506 364L505 363M212 364L213 365L212 364M257 364L258 365L257 364M506 364L507 365L506 364M550 364L551 365L550 364M211 365L212 366L211 365M507 365L508 366L507 365M551 365L552 366L551 365M254 366L255 367L254 366M508 366L509 367L508 366M552 366L553 367L552 366M253 367L254 368L253 367M509 367L510 368L509 367M553 367L554 368L553 367M209 368L210 369L209 368M252 368L253 369L252 368M554 368L555 369L554 368M208 369L209 370L208 369M251 369L252 370L251 369M207 370L208 371L207 370M250 370L251 371L250 370M206 371L207 372L206 371M249 371L250 372L249 371M514 371L515 372L514 371M556 371L557 372L556 371M248 372L249 373L248 372M515 372L516 373L515 372M557 372L558 373L557 372M247 373L248 374L247 373M516 373L517 374L516 373M558 373L559 374L558 373M204 374L205 375L204 374M246 374L247 375L246 374M517 374L518 375L517 374M203 375L204 376L203 375M518 375L519 376L518 375M244 376L245 377L244 376M519 376L520 377L519 376M560 376L561 377L560 376M243 377L244 378L243 377M520 377L521 378L520 377M561 377L562 378L561 377M201 378L202 379L201 378M242 378L243 379L242 378M521 378L522 379L521 378M200 379L201 380L200 379M241 379L242 380L241 379M522 379L523 380L522 379M240 380L241 381L240 380M563 380L564 381L563 380M239 381L240 382L239 381M564 381L565 382L564 381M198 382L199 383L198 382M238 382L239 383L238 382M197 383L198 384L197 383M237 383L238 384L237 383M565 383L566 384L565 383M236 384L237 385L236 384M526 384L527 385L526 384M566 384L567 385L566 384M196 385L197 386L196 385M527 385L528 386L527 385M195 386L196 387L195 386M528 386L529 387L528 386M529 387L530 388L529 387M568 387L569 388L568 387M194 388L195 389L194 388M233 388L234 389L233 388M530 388L531 389L530 388M193 389L194 390L193 389M232 389L233 390L232 389M569 389L570 390L569 389M231 390L232 391L231 390M531 390L532 391L531 390M570 390L571 391L570 390M192 391L193 392L192 391M532 391L533 392L532 391M191 392L192 393L191 392M533 392L534 393L533 392M571 392L572 393L571 392M229 393L230 394L229 393M572 393L573 394L572 393M190 394L191 395L190 394M228 394L229 395L228 394M227 395L228 396L227 395M535 395L536 396L535 395M573 395L574 396L573 395M189 396L190 397L189 396M536 396L537 397L536 396M188 397L189 398L188 397M226 397L227 398L226 397M537 397L538 398L537 397M574 397L575 398L574 397M225 398L226 399L225 398M575 398L576 399L575 398M187 399L188 400L187 399M538 399L539 400L538 399M539 400L540 401L539 400M576 400L577 401L576 400M186 401L187 402L186 401M223 401L224 402L223 401M222 402L223 403L222 402M540 402L541 403L540 402M577 402L578 403L577 402M185 403L186 404L185 403M541 403L542 404L541 403M184 404L185 405L184 404M221 404L222 405L221 404M220 405L221 406L220 405M579 405L580 406L579 405M183 406L184 407L183 406M543 406L544 407L543 406M219 407L220 408L219 407M580 407L581 408L580 407M182 408L183 409L182 408M218 408L219 409L218 408M544 408L545 409L544 408M545 409L546 410L545 409M581 409L582 410L581 409M181 410L182 411L181 410M217 410L218 411L217 410M546 411L547 412L546 411M582 411L583 412L582 411M180 412L181 413L180 412M547 412L548 413L547 412M215 413L216 414L215 413M583 413L584 414L583 413M179 414L180 415L179 414M548 414L549 415L548 414M214 415L215 416L214 415M584 415L585 416L584 415M178 416L179 417L178 416M549 416L550 417L549 416M213 417L214 418L213 417M585 417L586 418L585 417M177 418L178 419L177 418M212 418L213 419L212 418M550 418L551 419L550 418M551 419L552 420L551 419M586.333 419.667L586.667 420.333L586.333 419.667M176.333 420.667L176.667 421.333L176.333 420.667M211 420L212 421L211 420M552 421L553 422L552 421M210 422L211 423L210 422M587 422L588 423L587 422M175 423L176 424L175 423M553 423L554 424L553 423M209 424L210 425L209 424M588 424L589 425L588 424M174 425L175 426L174 425M554 425L555 426L554 425M208 426L209 427L208 426M589.333 426.667L589.667 427.333L589.333 426.667M173.333 427.667L173.667 428.333L173.333 427.667M555 427L556 428L555 427M207 428L208 429L207 428M556.333 429.667L556.667 430.333L556.333 429.667M590 429L591 430L590 429M172 430L173 431L172 430M206 430L207 431L206 430M591.333 431.667L591.667 432.333L591.333 431.667M557 432L558 433L557 432M171 433L172 434L171 433M205 433L206 434L205 433M558 434L559 435L558 434M592 434L593 435L592 434M170.333 435.667L170.667 436.333L170.333 435.667M204 435L205 436L204 435M559 436L560 437L559 436M203 437L204 438L203 437M593 437L594 438L593 437M169.333 438.667L169.667 439.333L169.333 438.667M560.333 438.667L560.667 439.333L560.333 438.667M202 440L203 441L202 440M594 440L595 441L594 440M168.333 441.667L168.667 442.333L168.333 441.667M561 441L562 442L561 441M201 442L202 443L201 442M562.333 443.667L562.667 444.333L562.333 443.667M595 443L596 444L595 443M167 444L168 445L167 444M200 445L201 446L200 445M563.333 446.667L563.667 447.333L563.333 446.667M596 446L597 447L596 446M166.333 447.667L166.667 448.333L166.333 447.667M199.333 447.667L199.667 448.333L199.333 447.667M564.333 449.667L564.667 450.333L564.333 449.667M597.333 449.667L597.667 450.333L597.333 449.667M198.333 450.667L198.667 451.333L198.333 450.667M165 451L166 452L165 451M565.333 452.667L565.667 453.333L565.333 452.667M197.333 453.667L197.667 454.333L197.333 453.667M598 453L599 454L598 453M164.333 454.667L164.667 455.333L164.333 454.667M566.333 455.667L566.667 456.333L566.333 455.667M599.333 456.667L599.667 457.333L599.333 456.667M196 457L197 458L196 457M163.333 458.667L163.667 459.333L163.333 458.667M567 459L568 460L567 459M195.333 460.667L195.667 461.333L195.333 460.667M600.333 461.667L600.667 462.333L600.333 461.667M568.333 462.667L568.667 463.333L568.333 462.667M162.333 463.667L162.667 464.333L162.333 463.667M194.333 464.667L194.667 465.333L194.333 464.667M601.333 465.667L601.667 466.333L601.333 465.667M569.333 466.667L569.667 467.333L569.333 466.667M161 467L161 470L162 470L161 467M193.333 468.667L193.667 469.333L193.333 468.667M602 470L602 473L603 473L602 470M570.333 471.667L570.667 472.333L570.333 471.667M160 472L160 475L161 475L160 472M192.333 473.667L192.667 474.333L192.333 473.667M836 474L836 475L846 475L836 474M730 475L730 476L750 476L730 475M785 475L785 476L805 476L805 548L793 548L793 494L792 494L792 549L806 549L806 475L785 475M831.667 475.333L832.333 475.667L831.667 475.333z"/>
<path style="fill:#010202; stroke:none;" d="M818 497L831 497C831.189 494.918 831.336 492.917 832.318 491.014C840.374 475.411 859.963 497.073 842.998 503.852C840.731 504.757 838.4 504.89 836 505L836 516C838.731 516.223 841.416 516.561 843.996 517.563C866.748 526.397 831.442 553.349 830 527L817 527C817.098 531.583 817.815 535.992 820.225 539.996C828.635 553.971 854.218 552.391 862.387 538.985C868.111 529.591 866.301 514.874 855 511L855 509C864.628 504.078 866.422 490.134 859.606 482.094C851.132 472.097 829.445 471.672 821.97 483.015C819.237 487.162 818.386 492.146 818 497z"/>
<path style="fill:#29647b; stroke:none;" d="M848.667 475.333L849.333 475.667L848.667 475.333M571.333 476.667L571.667 477.333L571.333 476.667M603.333 476.667L603.667 477.333L603.333 476.667z"/>
<path style="fill:#010202; stroke:none;" d="M730 476L730 548L743 548L743 496L744 496L756.333 533L762.51 546.972L774 548L792 494L793 494L793 548L805 548L805 476L785 476L768 527L767 527L750 476L730 476z"/>
<path style="fill:#29647b; stroke:none;" d="M829 476L830 477L829 476M851.667 476.333L852.333 476.667L851.667 476.333M750.333 477.667L750.667 478.333L750.333 477.667M827 477L828 478L827 477M854 477L855 478L854 477M159 478L159 482L160 482L159 478M191 478L191 481L192 481L191 478M784 478L785 479L784 478M855 478L856 479L855 478M824 479L825 480L824 479M857 479L858 480L857 479M751 480L752 481L751 480M783.333 480.667L783.667 481.333L783.333 480.667M823 480L824 481L823 480M858 480L859 481L858 480M572 481L572 484L573 484L572 481M822 481L823 482L822 481M859 481L860 482L859 481M604 482L604 486L605 486L604 482M860 482L861 483L860 482M752 483L753 484L752 483M782.333 483.667L782.667 484.333L782.333 483.667M821 483L822 484L821 483M190 484L190 488L191 488L190 484M820.333 484.667L820.667 485.333L820.333 484.667M861 484L862 485L861 484M838 485L838 486L844 486L838 485M158 486L158 490L159 490L158 486M753 486L754 487L753 486M781.333 486.667L781.667 487.333L781.333 486.667M835 486L836 487L835 486M845 486L846 487L845 486M862 486L863 487L862 486M819 487L820 488L819 487M834 487L835 488L834 487M847 487L848 488L847 487M833 488L834 489L833 488M848 488L849 489L848 488M863.333 488.667L863.667 489.333L863.333 488.667M573 489L573 492L574 492L573 489M754 489L755 490L754 489M780.333 489.667L780.667 490.333L780.333 489.667M832 489L833 490L832 489M818 490L818 493L819 493L818 490M605 491L605 497L606 497L605 491M849.333 491.667L849.667 492.333L849.333 491.667M189 492L189 498L190 498L189 492M755 492L756 493L755 492M779.333 492.667L779.667 493.333L779.333 492.667M831.333 492.667L831.667 493.333L831.333 492.667M756 495L757 496L756 495M778 495L779 496L778 495M743 496L744 497L743 496M157 497L157 509L158 509L157 497M757.333 497.667L757.667 498.333L757.333 497.667M863.333 497.667L863.667 498.333L863.333 497.667M744 498L745 499L744 498M777 498L778 499L777 498M790.333 498.667L790.667 499.333L790.333 498.667M849 498L850 499L849 498M574 499L574 525L575 525L574 499M758.333 500.667L758.667 501.333L758.333 500.667M848 500L849 501L848 500M862 500L863 501L862 500M745 501L746 502L745 501M776 501L777 502L776 501M789.333 501.667L789.667 502.333L789.333 501.667M847 501L848 502L847 501M846 502L847 503L846 502M861 502L862 503L861 502M759.333 503.667L759.667 504.333L759.333 503.667M844 503L845 504L844 503M746 504L747 505L746 504M775 504L776 505L775 504M788.333 504.667L788.667 505.333L788.333 504.667M836 504L836 505L842 505L836 504M860 504L861 505L860 504M859 505L860 506L859 505M760.333 506.667L760.667 507.333L760.333 506.667M747 507L748 508L747 507M774 507L775 508L774 507M787 507L788 508L787 507M748.333 509.667L748.667 510.333L748.333 509.667M761.333 509.667L761.667 510.333L761.333 509.667M773.333 509.667L773.667 510.333L773.333 509.667M855.333 509.667L855.667 510.333L855.333 509.667M786 510L787 511L786 510M188.333 511.667L188.667 512.333L188.333 511.667M857 511L858 512L857 511M749.333 512.667L749.667 513.333L749.333 512.667M762 512L763 513L762 512M772.333 512.667L772.667 513.333L772.333 512.667M785 513L786 514L785 513M860 513L861 514L860 513M861 514L862 515L861 514M157 515L157 527L158 527L157 515M750.333 515.667L750.667 516.333L750.333 515.667M763 515L764 516L763 515M771.333 515.667L771.667 516.333L771.333 515.667M784 516L785 517L784 516M836 516L836 517L841 517L836 516M862 516L863 517L862 516M843.667 517.333L844.333 517.667L843.667 517.333M863 517L864 518L863 517M751.333 518.667L751.667 519.333L751.333 518.667M764 518L765 519L764 518M770.333 518.667L770.667 519.333L770.333 518.667M846 518L847 519L846 518M783 519L784 520L783 519M848 519L849 520L848 519M864 519L865 520L864 519M849 520L850 521L849 520M752.333 521.667L752.667 522.333L752.333 521.667M765 521L766 522L765 521M769.333 521.667L769.667 522.333L769.333 521.667M782 522L783 523L782 522M850 522L851 523L850 522M865 522L865 525L866 525L865 522M753 524L754 525L753 524M766 524L767 525L766 524M768 524L769 525L768 524M781.333 524.667L781.667 525.333L781.333 524.667M851 524L851 530L852 530L851 524M189 526L189 532L190 532L189 526M767 526L768 527L767 526M817 526L817 527L830 527L817 526M605 527L605 533L606 533L605 527M754 527L755 528L754 527M780.333 527.667L780.667 528.333L780.333 527.667M816 527L817 528L816 527M865 528L865 532L866 532L865 528M755 530L756 531L755 530M779.333 530.667L779.667 531.333L779.333 530.667M830.333 531.667L830.667 532.333L830.333 531.667M573 532L573 535L574 535L573 532M850 532L851 533L850 532M756 533L757 534L756 533M778.333 533.667L778.667 534.333L778.333 533.667M817.333 533.667L817.667 534.333L817.333 533.667M158 534L158 538L159 538L158 534M831 534L832 535L831 534M849 534L850 535L849 534M864.333 534.667L864.667 535.333L864.333 534.667M832 535L833 536L832 535M848 535L849 536L848 535M190 536L190 540L191 540L190 536M757 536L758 537L757 536M777.333 536.667L777.667 537.333L777.333 536.667M818.333 536.667L818.667 537.333L818.333 536.667M833 536L834 537L833 536M847 536L848 537L847 536M834 537L835 538L834 537M845 537L846 538L845 537M863 537L864 538L863 537M604 538L604 542L605 542L604 538M837.667 538.333L838.333 538.667L837.667 538.333M841.667 538.333L842.333 538.667L841.667 538.333M758 539L759 540L758 539M776 539L777 540L776 539M819 539L820 540L819 539M862 539L863 540L862 539M572 540L572 543L573 543L572 540M820 540L821 541L820 540M861 540L862 541L861 540M759.333 541.667L759.667 542.333L759.333 541.667M860 541L861 542L860 541M159 542L159 546L160 546L159 542M775 542L776 543L775 542M821 542L822 543L821 542M191 543L191 546L192 546L191 543M822 543L823 544L822 543M760.333 544.667L760.667 545.333L760.333 544.667M823 544L824 545L823 544M857 544L858 545L857 544M774 545L775 546L774 545M824 545L825 546L824 545M856 545L857 546L856 545M571.333 546.667L571.667 547.333L571.333 546.667M603.333 546.667L603.667 547.333L603.333 546.667M826 546L827 547L826 546M854 546L855 547L854 546M761 547L762 548L761 547M828 547L829 548L828 547M852 547L853 548L852 547M730 548L730 549L743 549L730 548M762 548L762 549L774 549L762 548M830.667 548.333L831.333 548.667L830.667 548.333M849.667 548.333L850.333 548.667L849.667 548.333M160 549L160 552L161 552L160 549M192.333 549.667L192.667 550.333L192.333 549.667M834 549L834 550L838 550L834 549M842 549L842 550L847 550L842 549M570.333 551.667L570.667 552.333L570.333 551.667M602 551L602 554L603 554L602 551M161 554L161 557L162 557L161 554M193.333 554.667L193.667 555.333L193.333 554.667M569.333 556.667L569.667 557.333L569.333 556.667M601.333 557.667L601.667 558.333L601.333 557.667M194.333 558.667L194.667 559.333L194.333 558.667M162.333 559.667L162.667 560.333L162.333 559.667M568.333 560.667L568.667 561.333L568.333 560.667M600.333 561.667L600.667 562.333L600.333 561.667M195.333 562.667L195.667 563.333L195.333 562.667M163.333 564.667L163.667 565.333L163.333 564.667M567 564L568 565L567 564M196.333 565.667L196.667 566.333L196.333 565.667M599.333 566.667L599.667 567.333L599.333 566.667M566.333 567.667L566.667 568.333L566.333 567.667M164.333 568.667L164.667 569.333L164.333 568.667M197.333 569.667L197.667 570.333L197.333 569.667M565.333 570.667L565.667 571.333L565.333 570.667M598 570L599 571L598 570M165.333 571.667L165.667 572.333L165.333 571.667M198.333 572.667L198.667 573.333L198.333 572.667M564.333 573.667L564.667 574.333L564.333 573.667M597.333 573.667L597.667 574.333L597.333 573.667M166.333 575.667L166.667 576.333L166.333 575.667M199 575L200 576L199 575M563.333 576.667L563.667 577.333L563.333 576.667M596 577L597 578L596 577M200 578L201 579L200 578M167 579L168 580L167 579M562 579L563 580L562 579M595 580L596 581L595 580M168.333 581.667L168.667 582.333L168.333 581.667M201 581L202 582L201 581M561 582L562 583L561 582M202 583L203 584L202 583M594 583L595 584L594 583M169.333 584.667L169.667 585.333L169.333 584.667M560.333 584.667L560.667 585.333L560.333 584.667M203 586L204 587L203 586M593 586L594 587L593 586M170.333 587.667L170.667 588.333L170.333 587.667M559 587L560 588L559 587M204 588L205 589L204 588M558 589L559 590L558 589M592 589L593 590L592 589M171 590L172 591L171 590M205 590L206 591L205 590M557 591L558 592L557 591M591.333 591.667L591.667 592.333L591.333 591.667M206.333 592.667L206.667 593.333L206.333 592.667M172 593L173 594L172 593M556.333 593.667L556.667 594.333L556.333 593.667M590 594L591 595L590 594M173.333 595.667L173.667 596.333L173.333 595.667M207 595L208 596L207 595M555 596L556 597L555 596M589.333 596.667L589.667 597.333L589.333 596.667M208 597L209 598L208 597M174 598L175 599L174 598M554 598L555 599L554 598M209 599L210 600L209 599M588 599L589 600L588 599M175 600L176 601L175 600M553 600L554 601L553 600M210 601L211 602L210 601M587 601L588 602L587 601M176.333 602.667L176.667 603.333L176.333 602.667M552 602L553 603L552 602M211 603L212 604L211 603M586 603L587 604L586 603M551 604L552 605L551 604M177 605L178 606L177 605M550 605L551 606L550 605M213 606L214 607L213 606M585 606L586 607L585 606M178 607L179 608L178 607M549 607L550 608L549 607M214 608L215 609L214 608M584 608L585 609L584 608M179 609L180 610L179 609M548 609L549 610L548 609M215 610L216 611L215 610M583 610L584 611L583 610M180 611L181 612L180 611M216 611L217 612L216 611M546 612L547 613L546 612M582 612L583 613L582 612M181 613L182 614L181 613M217 613L218 614L217 613M545 614L546 615L545 614M581 614L582 615L581 614M182 615L183 616L182 615M218 615L219 616L218 615M544 615L545 616L544 615M219 616L220 617L219 616M580 616L581 617L580 616M183 617L184 618L183 617M543 617L544 618L543 617M220 618L221 619L220 618M542 618L543 619L542 618M579 618L580 619L579 618M184 619L185 620L184 619M221 619L222 620L221 619M185 620L186 621L185 620M541 620L542 621L541 620M222 621L223 622L222 621M540 621L541 622L540 621M577 621L578 622L577 621M186 622L187 623L186 622M223 622L224 623L223 622M539 623L540 624L539 623M576 623L577 624L576 623M187 624L188 625L187 624M538 624L539 625L538 624M225 625L226 626L225 625M575 625L576 626L575 625M188 626L189 627L188 626M226 626L227 627L226 626M537 626L538 627L537 626M574 626L575 627L574 626M189 627L190 628L189 627M536 627L537 628L536 627M227 628L228 629L227 628M535 628L536 629L535 628M573 628L574 629L573 628M190 629L191 630L190 629M228 629L229 630L228 629M229 630L230 631L229 630M572 630L573 631L572 630M191 631L192 632L191 631M533 631L534 632L533 631M571 631L572 632L571 631M192 632L193 633L192 632M532 632L533 633L532 632M231 633L232 634L231 633M531 633L532 634L531 633M570 633L571 634L570 633M193 634L194 635L193 634M232 634L233 635L232 634M569 634L570 635L569 634M194 635L195 636L194 635M233 635L234 636L233 635M529 636L530 637L529 636M568 636L569 637L568 636M195 637L196 638L195 637M528 637L529 638L528 637M196 638L197 639L196 638M527 638L528 639L527 638M236 639L237 640L236 639M526 639L527 640L526 639M566 639L567 640L566 639M197 640L198 641L197 640M237 640L238 641L237 640M565 640L566 641L565 640M198 641L199 642L198 641M238 641L239 642L238 641M199 642L200 643L199 642M239 642L240 643L239 642M564 642L565 643L564 642M240 643L241 644L240 643M563 643L564 644L563 643M200 644L201 645L200 644M241 644L242 645L241 644M522 644L523 645L522 644M201 645L202 646L201 645M242 645L243 646L242 645M521 645L522 646L521 645M243 646L244 647L243 646M520 646L521 647L520 646M561 646L562 647L561 646M244 647L245 648L244 647M519 647L520 648L519 647M560 647L561 648L560 647M203 648L204 649L203 648M518 648L519 649L518 648M204 649L205 650L204 649M246 649L247 650L246 649M517 649L518 650L517 649M205 650L206 651L205 650M247 650L248 651L247 650M516 650L517 651L516 650M558 650L559 651L558 650M248 651L249 652L248 651M515 651L516 652L515 651M557 651L558 652L557 651M206 652L207 653L206 652M249 652L250 653L249 652M514 652L515 653L514 652M556 652L557 653L556 652M207 653L208 654L207 653M250 653L251 654L250 653M208 654L209 655L208 654M251 654L252 655L251 654M209 655L210 656L209 655M252 655L253 656L252 655M554 655L555 656L554 655M253 656L254 657L253 656M509 656L510 657L509 656M553 656L554 657L553 656M254 657L255 658L254 657M508 657L509 658L508 657M552 657L553 658L552 657M211 658L212 659L211 658M507 658L508 659L507 658M551 658L552 659L551 658M212 659L213 660L212 659M257 659L258 660L257 659M506 659L507 660L506 659M550 659L551 660L550 659M213 660L214 661L213 660M258 660L259 661L258 660M505 660L506 661L505 660M214 661L215 662L214 661M259 661L260 662L259 661M215 662L216 663L215 662M260 662L261 663L260 662M502 662L503 663L502 662M548 662L549 663L548 662M216 663L217 664L216 663M262 663L263 664L262 663M501 663L502 664L501 663M547 663L548 664L547 663M217 664L218 665L217 664M263 664L264 665L263 664M500 664L501 665L500 664M546 664L547 665L546 664M264 665L265 666L264 665M498 665L499 666L498 665M545 665L546 666L545 665M265 666L266 667L265 666M497 666L498 667L497 666M544 666L545 667L544 666M267 667L268 668L267 667M496 667L497 668L496 667M543 667L544 668L543 667M268 668L269 669L268 668M494 668L495 669L494 668M542 668L543 669L542 668M270 669L271 670L270 669M493 669L494 670L493 669M541 669L542 670L541 669M271 670L272 671L271 670M540 670L541 671L540 670M272 671L273 672L272 671M490 671L491 672L490 671M539 671L540 672L539 671M274 672L275 673L274 672M489 672L490 673L489 672M538 672L539 673L538 672M487 673L488 674L487 673M537 673L538 674L537 673M277 674L278 675L277 674M536 674L537 675L536 674M279 675L280 676L279 675M484 675L485 676L484 675M535 675L536 676L535 675M280 676L281 677L280 676M482 676L483 677L482 676M534 676L535 677L534 676M230 677L231 678L230 677M282 677L283 678L282 677M481 677L482 678L481 677M533 677L534 678L533 677M231 678L232 679L231 678M283 678L284 679L283 678M479 678L480 679L479 678M532 678L533 679L532 678M232 679L233 680L232 679M285 679L286 680L285 679M477 679L478 680L477 679M233 680L234 681L233 680M287 680L288 681L287 680M529 680L530 681L529 680M234 681L235 682L234 681M289 681L290 682L289 681M474 681L475 682L474 681M528 681L529 682L528 681M291 682L292 683L291 682M472 682L473 683L472 682M527 682L528 683L527 682M293 683L294 684L293 683M470 683L471 684L470 683M526 683L527 684L526 683M238 684L239 685L238 684M295 684L296 685L295 684M468 684L469 685L468 684M525 684L526 685L525 684M239 685L240 686L239 685M296.667 685.333L297.333 685.667L296.667 685.333M466 685L467 686L466 685M240 686L241 687L240 686M299 686L300 687L299 686M464 686L465 687L464 686M522 686L523 687L522 686M301 687L302 688L301 687M462 687L463 688L462 687M521 687L522 688L521 687M243 688L244 689L243 688M303 688L304 689L303 688M459.667 688.333L460.333 688.667L459.667 688.333M520 688L521 689L520 688M244 689L245 690L244 689M305 689L306 690L305 689M457 689L458 690L457 689M245 690L246 691L245 690M308 690L309 691L308 690M455 690L456 691L455 690M517 690L518 691L517 690M311 691L312 692L311 691z"/>
<path style="fill:#55c1eb; stroke:none;" d="M451 691L452 692L451 691z"/>
<path style="fill:#29647b; stroke:none;" d="M452 691L453 692L452 691M516 691L517 692L516 691M248 692L249 693L248 692M313.667 692.333L314.333 692.667L313.667 692.333M449 692L450 693L449 692M515 692L516 693L515 692M249 693L250 694L249 693M316 693L317 694L316 693z"/>
<path style="fill:#55c1eb; stroke:none;" d="M317 693L318 694L317 693z"/>
<path style="fill:#29647b; stroke:none;" d="M446.667 693.333L447.333 693.667L446.667 693.333M513 693L514 694L513 693M251 694L252 695L251 694M319 694L320 695L319 694z"/>
<path style="fill:#55c1eb; stroke:none;" d="M320 694L321 695L320 694z"/>
<path style="fill:#29647b; stroke:none;" d="M443.667 694.333L444.333 694.667L443.667 694.333M512 694L513 695L512 694M252 695L253 696L252 695M322 695L323 696L322 695z"/>
<path style="fill:#55c1eb; stroke:none;" d="M323 695L324 696L323 695z"/>
<path style="fill:#29647b; stroke:none;" d="M440.667 695.333L441.333 695.667L440.667 695.333M510 695L511 696L510 695M325 696L326 697L325 696z"/>
<path style="fill:#55c1eb; stroke:none;" d="M326 696L327 697L326 696M436 696L437 697L436 696z"/>
<path style="fill:#29647b; stroke:none;" d="M437.667 696.333L438.333 696.667L437.667 696.333M509 696L510 697L509 696M255 697L256 698L255 697M328.667 697.333L329.333 697.667L328.667 697.333z"/>
<path style="fill:#55c1eb; stroke:none;" d="M330 697L331 698L330 697M433 697L434 698L433 697z"/>
<path style="fill:#29647b; stroke:none;" d="M434 697L435 698L434 697M508 697L509 698L508 697M256 698L257 699L256 698M332.667 698.333L333.333 698.667L332.667 698.333z"/>
<path style="fill:#55c1eb; stroke:none;" d="M429 698L430 699L429 698z"/>
<path style="fill:#29647b; stroke:none;" d="M430.667 698.333L431.333 698.667L430.667 698.333M506 698L507 699L506 698M258 699L259 700L258 699M336.667 699.333L337.333 699.667L336.667 699.333z"/>
<path style="fill:#55c1eb; stroke:none;" d="M425 699L426 700L425 699z"/>
<path style="fill:#29647b; stroke:none;" d="M426.667 699.333L427.333 699.667L426.667 699.333M505 699L506 700L505 699M339.667 700.333L340.333 700.667L339.667 700.333M422.667 700.333L423.333 700.667L422.667 700.333M503 700L504 701L503 700M261 701L262 702L261 701M344 701L344 702L347 702L344 701M417 701L417 702L420 702L417 701M501 701L502 702L501 701M263 702L264 703L263 702M349 702L349 703L352 703L349 702M411 702L411 703L414 703L411 702M500 702L501 703L500 702M264 703L265 704L264 703M356 703L356 704L360 704L356 703M404 703L404 704L407 704L404 703M498 703L499 704L498 703M266 704L267 705L266 704M365.667 704.333L366.333 704.667L365.667 704.333M368 704L368 705L380 705L368 704z"/>
<path style="fill:#55c1eb; stroke:none;" d="M380 704L380 705L384 705L380 704z"/>
<path style="fill:#29647b; stroke:none;" d="M384 704L384 705L398 705L384 704M497 704L498 705L497 704M268 705L269 706L268 705M495 705L496 706L495 705M269 706L270 707L269 706M493 706L494 707L493 706M271 707L272 708L271 707M491 707L492 708L491 707M273 708L274 709L273 708M490 708L491 709L490 708M275 709L276 710L275 709M488 709L489 710L488 709M276.667 710.333L277.333 710.667L276.667 710.333M486 710L487 711L486 710M278 711L279 712L278 711M484 711L485 712L484 711M280 712L281 713L280 712M482 712L483 713L482 712M282 713L283 714L282 713M480 713L481 714L480 713M284 714L285 715L284 714M478 714L479 715L478 714M287 715L288 716L287 715M476 715L477 716L476 715M289 716L290 717L289 716M474 716L475 717L474 716M291 717L292 718L291 717M472 717L473 718L472 717M293 718L294 719L293 718M469 718L470 719L469 718M295.667 719.333L296.333 719.667L295.667 719.333M467 719L468 720L467 719M298 720L299 721L298 720M464.667 720.333L465.333 720.667L464.667 720.333M300.667 721.333L301.333 721.667L300.667 721.333M462 721L463 722L462 721M303 722L304 723L303 722M459.667 722.333L460.333 722.667L459.667 722.333M306 723L307 724L306 723M456.667 723.333L457.333 723.667L456.667 723.333M309 724L310 725L309 724M454 724L455 725L454 724z"/>
<path style="fill:#ffffff; stroke:none;" d="M309 725L309 806L339 806L339 733L309 725z"/>
<path style="fill:#29647b; stroke:none;" d="M311 725L312 726L311 725M451.667 725.333L452.333 725.667L451.667 725.333z"/>
<path style="fill:#ffffff; stroke:none;" d="M424 733L424 806L455 806L455 725L424 733z"/>
<path style="fill:#55c1eb; stroke:none;" d="M313 726L314 727L313 726z"/>
<path style="fill:#29647b; stroke:none;" d="M314 726L315 727L314 726M448.667 726.333L449.333 726.667L448.667 726.333M317.667 727.333L318.333 727.667L317.667 727.333M445 727L446 728L445 727z"/>
<path style="fill:#55c1eb; stroke:none;" d="M446 727L447 728L446 727M320 728L321 729L320 728z"/>
<path style="fill:#29647b; stroke:none;" d="M321.667 728.333L322.333 728.667L321.667 728.333M441.667 728.333L442.333 728.667L441.667 728.333M324.667 729.333L325.333 729.667L324.667 729.333M437.667 729.333L438.333 729.667L437.667 729.333z"/>
<path style="fill:#55c1eb; stroke:none;" d="M439 729L440 730L439 729z"/>
<path style="fill:#29647b; stroke:none;" d="M328 730L328 731L331 731L328 730M433.667 730.333L434.333 730.667L433.667 730.333z"/>
<path style="fill:#55c1eb; stroke:none;" d="M435 730L436 731L435 730M332 731L333 732L332 731z"/>
<path style="fill:#29647b; stroke:none;" d="M333.667 731.333L334.333 731.667L333.667 731.333M429.667 731.333L430.333 731.667L429.667 731.333z"/>
<path style="fill:#55c1eb; stroke:none;" d="M431 731L432 732L431 731M336 732L337 733L336 732z"/>
<path style="fill:#29647b; stroke:none;" d="M337 732L337 733L341 733L337 732M423 732L423 733L426 733L423 732z"/>
<path style="fill:#55c1eb; stroke:none;" d="M426 732L427 733L426 732z"/>
<path style="fill:#29647b; stroke:none;" d="M344 733L344 734L347 734L344 733M417 733L417 734L420 734L417 733M350 734L350 735L354 735L350 734M410 734L410 735L413 735L410 734M358 735L358 736L364 736L358 735M400 735L400 736L406 736L400 735M368 736L368 737L396 737L368 736z"/>
<path style="fill:#ffffff; stroke:none;" d="M366 737L366 806L397 806L397 737L366 737z"/>
</svg>
