<?xml version="1.0" standalone="yes"?>
<svg xmlns="http://www.w3.org/2000/svg" width="1024" height="1024">
<path style="fill:#cd0101; stroke:none;" d="M0 0L0 1024L1024 1024L1024 0L0 0z"/>
<path style="fill:#ffffff; stroke:none;" d="M424 285C410.422 314.082 391.777 341.267 375.85 369C341.353 429.069 306.516 488.942 272 549L241.421 602C238.352 607.353 230.226 616.635 230.593 622.999C230.988 629.861 245.231 638.769 251 641C262.802 613.611 281.361 587.91 296.15 562C333.797 496.045 374.053 431.206 409.32 364C420.856 342.017 440.939 321.004 448 297L424 285z"/>
<path style="fill:#840101; stroke:none;" d="M326 328L326 329L337 329L326 328z"/>
<path style="fill:#030101; stroke:none;" d="M259 676L271 654C254.163 645.141 238.004 634.208 225.17 620C170.071 559.002 169.253 469.243 222.579 407C235.494 391.926 252.242 379.149 270 370.27C306.099 352.221 344.223 350.996 383 359L395 336C377.054 332.296 359.461 328.079 341 328.079C290.131 328.079 239.319 350.192 205.17 388C139.739 460.441 142.832 574.139 212 642.999C225.316 656.256 241.553 668.736 259 676z"/>
<path style="fill:#840101; stroke:none;" d="M345 328L345 329L356 329L345 328M317 329L317 330L321 330L317 329M361 329L361 330L366 330L361 329M310 330L310 331L313 331L310 330M369 330L369 331L372 331L369 330M304 331L304 332L307 332L304 331M375 331L375 332L378 332L375 331M300.667 332.333L301.333 332.667L300.667 332.333M380.667 332.333L381.333 332.667L380.667 332.333M296.667 333.333L297.333 333.667L296.667 333.333M384.667 333.333L385.333 333.667L384.667 333.333M292.667 334.333L293.333 334.667L292.667 334.333M388.667 334.333L389.333 334.667L388.667 334.333M289 335L290 336L289 335M392.667 335.333L393.333 335.667L392.667 335.333M285.667 336.333L286.333 336.667L285.667 336.333M395 336L396 337L395 336M282.667 337.333L283.333 337.667L282.667 337.333M279.667 338.333L280.333 338.667L279.667 338.333M394 338L395 339L394 338M276.667 339.333L277.333 339.667L276.667 339.333M274 340L275 341L274 340M393 340L394 341L393 340M272 341L273 342L272 341M269 342L270 343L269 342z"/>
<path style="fill:#cd0101; stroke:none;" d="M392 342L393 343L392 342z"/>
<path style="fill:#840101; stroke:none;" d="M267 343L268 344L267 343M391 343L392 344L391 343M265 344L266 345L265 344M262.667 345.333L263.333 345.667L262.667 345.333M390 345L391 346L390 345M260 346L261 347L260 346M419 346L420 347L419 346z"/>
<path style="fill:#030101; stroke:none;" d="M420 346L408 368C439.295 386.283 466.136 407.816 482.73 441C524.337 524.203 483.089 627.704 396 660.575C363.195 672.957 329.565 671.695 296 664L284 687C297.686 689.832 310.94 693.948 325 694.911C377.45 698.502 429.654 681.629 468 644.961C556.73 560.111 537.195 396.501 420 346z"/>
<path style="fill:#840101; stroke:none;" d="M421 346L422 347L421 346M258 347L259 348L258 347M389 347L390 348L389 347M423 347L424 348L423 347M256 348L257 349L256 348M388 348L389 349L388 348M418 348L419 349L418 348M425 348L426 349L425 348M254.667 349.333L255.333 349.667L254.667 349.333z"/>
<path style="fill:#cd0101; stroke:none;" d="M388 349L389 350L388 349M417 349L418 350L417 349z"/>
<path style="fill:#840101; stroke:none;" d="M426.667 349.333L427.333 349.667L426.667 349.333M252.667 350.333L253.333 350.667L252.667 350.333M387 350L388 351L387 350M428 350L429 351L428 350M251 351L252 352L251 351M416 351L417 352L416 351M430 351L431 352L430 351M249 352L250 353L249 352M386 352L387 353L386 352M432 352L433 353L432 352M247 353L248 354L247 353M415 353L416 354L415 353M434 353L435 354L434 353M246 354L247 355L246 354M322 354L322 355L330 355L322 354z"/>
<path style="fill:#cd0101; stroke:none;" d="M330 354L331 355L330 354z"/>
<path style="fill:#ffffff; stroke:none;" d="M238 508L261 520L315.424 426L356 355C347.535 354.332 333.021 351.003 325.379 356.013C321.681 358.437 319.409 364.264 317.281 368C312.138 377.027 306.854 385.969 301.719 395C286.884 421.094 271.579 446.92 256.719 473C250.664 483.628 240.329 495.921 238 508z"/>
<path style="fill:#cd0101; stroke:none;" d="M351 354L352 355L351 354z"/>
<path style="fill:#840101; stroke:none;" d="M352 354L352 355L360 355L352 354M385 354L386 355L385 354z"/>
<path style="fill:#e0bbbb; stroke:none;" d="M414 354L415 355L414 354z"/>
<path style="fill:#840101; stroke:none;" d="M435 354L436 355L435 354M244 355L245 356L244 355M315 355L315 356L318 356L315 355z"/>
<path style="fill:#cd0101; stroke:none;" d="M230 624C238.276 601.266 255.05 578.835 267.397 558C289.557 520.604 310.959 482.712 332.579 445C343.865 425.313 355.035 405.522 366.603 386C371.583 377.597 375.787 366.659 383 360L383 359C376.226 358.088 362.637 352.155 356.379 356.029C352.424 358.476 350.082 365.089 347.85 369C341.94 379.352 336.026 389.721 329.989 400C306.921 439.277 280.263 478.741 261 520L238 508C242.415 494.049 252.904 480.694 260.15 468C281.277 430.991 308.15 394.102 325 355C309.127 355.131 292.474 360.681 278 366.85C202.657 398.965 165.614 486.123 191.333 563C198.419 584.179 211.304 610.794 230 624z"/>
<path style="fill:#840101; stroke:none;" d="M363 355L363 356L367 356L363 355M384 355L385 356L384 355M414 355L415 356L414 355M437 355L438 356L437 355M242 356L243 357L242 356M309 356L309 357L312 357L309 356M370 356L370 357L373 357L370 356z"/>
<path style="fill:#e0bbbb; stroke:none;" d="M384 356L385 357L384 356z"/>
<path style="fill:#840101; stroke:none;" d="M413 356L414 357L413 356M439 356L440 357L439 356M241 357L242 358L241 357M305 357L305 358L308 358L305 357M375.667 357.333L376.333 357.667L375.667 357.333M383 357L384 358L383 357M440 357L441 358L440 357M239 358L240 359L239 358M301.667 358.333L302.333 358.667L301.667 358.333M379.667 358.333L380.333 358.667L379.667 358.333M412 358L413 359L412 358M442 358L443 359L442 358M238 359L239 360L238 359M297.667 359.333L298.333 359.667L297.667 359.333M443 359L444 360L443 359M236 360L237 361L236 360M294.667 360.333L295.333 360.667L294.667 360.333M411 360L412 361L411 360M445 360L446 361L445 360M235 361L236 362L235 361M291.667 361.333L292.333 361.667L291.667 361.333z"/>
<path style="fill:#cd0101; stroke:none;" d="M410 361L411 362L410 361z"/>
<path style="fill:#840101; stroke:none;" d="M446 361L447 362L446 361M288.667 362.333L289.333 362.667L288.667 362.333M410 362L411 363L410 362M232 363L233 364L232 363M285.667 363.333L286.333 363.667L285.667 363.333M409 363L410 364L409 363M449 363L450 364L449 363M231 364L232 365L231 364M283 364L284 365L283 364M450 364L451 365L450 364M229 365L230 366L229 365M280.667 365.333L281.333 365.667L280.667 365.333M408 365L409 366L408 365M228 366L229 367L228 366M278 366L279 367L278 366M453 366L454 367L453 366M227 367L228 368L227 367M276 367L277 368L276 367M407 367L407 369L409 369L407 367M454 367L455 368L454 367M226 368L227 369L226 368M273.667 368.333L274.333 368.667L273.667 368.333M455 368L456 369L455 368M224 369L225 370L224 369M271 369L272 370L271 369z"/>
<path style="fill:#cd0101; stroke:none;" d="M250 642L272 654L305.576 595L383.424 460L429 380C424.215 377.347 413.86 368.403 408.213 369.817C403.484 371.002 399.4 382.059 397.15 386C388.372 401.378 379.386 416.638 370.579 432C344.361 477.731 318.036 523.409 291.576 569C277.797 592.741 260.598 616.678 250 642z"/>
<path style="fill:#840101; stroke:none;" d="M410 369L411 370L410 369M457 369L458 370L457 369M223 370L224 371L223 370M269 370L270 371L269 370M412 370L413 371L412 370M458 370L459 371L458 370M222 371L223 372L222 371M267.667 371.333L268.333 371.667L267.667 371.333M414 371L415 372L414 371M459 371L460 372L459 371M221 372L222 373L221 372M265 372L266 373L265 372M415.667 372.333L416.333 372.667L415.667 372.333M460 372L461 373L460 372M220 373L221 374L220 373M264 373L265 374L264 373M417 373L418 374L417 373M461 373L462 374L461 373M262 374L263 375L262 374M419 374L420 375L419 374M217 375L218 376L217 375M260 375L261 376L260 375M421 375L422 376L421 375M464 375L465 376L464 375M216 376L217 377L216 376M258 376L259 377L258 376M423 376L424 377L423 376M465 376L466 377L465 376M215 377L216 378L215 377M257 377L258 378L257 377M424 377L425 378L424 377M466 377L467 378L466 377M214 378L215 379L214 378M255 378L256 379L255 378M426 378L427 379L426 378M467 378L468 379L467 378M213 379L214 380L213 379M254 379L255 380L254 379M427 379L428 380L427 379M468 379L469 380L468 379M212 380L213 381L212 380M252 380L253 381L252 380M429 380L431 382L429 380M469 380L470 381L469 380M211 381L212 382L211 381M251 381L252 382L251 381z"/>
<path style="fill:#ffffff; stroke:none;" d="M428 381L382.85 460L269.68 658L230 726C235.664 728.441 246.627 738.384 252.79 737.122C257.785 736.099 262.094 724.06 264.421 720C274.104 703.111 282.819 685.71 292.734 669C332.275 602.361 371.245 535.255 409.85 468C419.621 450.978 429.564 434.054 439.281 417C441.928 412.353 449.688 403.56 448.978 398.015C448.139 391.456 433.719 382.897 428 381z"/>
<path style="fill:#840101; stroke:none;" d="M470 381L471 382L470 381M210 382L211 383L210 382M249 382L250 383L249 382M432 382L433 383L432 382M471 382L472 383L471 382M209 383L210 384L209 383M248 383L249 384L248 383M433 383L434 384L433 383M472 383L473 384L472 383M208 384L209 385L208 384z"/>
<path style="fill:#cd0101; stroke:none;" d="M434 384L435 385L434 384z"/>
<path style="fill:#840101; stroke:none;" d="M473 384L474 385L473 384M207 385L208 386L207 385M245 385L246 386L245 385M436 385L437 386L436 385M474 385L475 386L474 385M206 386L207 387L206 386M244 386L245 387L244 386M437 386L438 387L437 386M475 386L476 387L475 386M205 387L206 388L205 387M243 387L244 388L243 387z"/>
<path style="fill:#cd0101; stroke:none;" d="M438 387L439 388L438 387z"/>
<path style="fill:#840101; stroke:none;" d="M476 387L477 388L476 387M204 388L205 389L204 388M241 388L242 389L241 388M440 388L441 389L440 388M240 389L241 390L240 389M441 389L442 390L441 389M239 390L240 391L239 390M442 390L443 391L442 390M202 391L203 392L202 391M238 391L239 392L238 391M443 391L444 392L443 391M479 391L480 392L479 391M201 392L202 393L201 392z"/>
<path style="fill:#cd0101; stroke:none;" d="M444 392L445 393L444 392z"/>
<path style="fill:#840101; stroke:none;" d="M480 392L481 393L480 392M200 393L201 394L200 393M481 393L482 394L481 393M199 394L200 395L199 394M234 394L235 395L234 394M447 394L448 395L447 394M482 394L483 395L482 394M198 395L199 396L198 395M233 395L234 396L233 395M448 395L449 396L448 395M483 395L484 396L483 395M232 396L233 397L232 396M449 396L450 397L449 396M197 397L198 398L197 397M231 397L232 398L231 397M450 397L459 406L450 397M484 397L485 398L484 397M196 398L197 399L196 398M230 398L231 399L230 398z"/>
<path style="fill:#cd0101; stroke:none;" d="M450 398L388.576 504L296 664C302.517 664.958 315.506 671.106 321.671 667.883C325.696 665.779 328.132 658.78 330.281 655C336.176 644.63 342.097 634.248 348.201 624C372.427 583.32 399.978 541.883 420 499L443 511L417.421 557L353 669C457.212 668.989 521.282 551.943 490.333 460C482.985 438.171 469.225 411.544 450 398z"/>
<path style="fill:#840101; stroke:none;" d="M485 398L486 399L485 398M195 399L196 400L195 399M229 399L230 400L229 399M486 399L487 400L486 399M194 400L195 401L194 400M228 400L229 401L228 400M227 401L228 402L227 401M193 402L194 403L193 402M226 402L227 403L226 402M488 402L489 403L488 402M192 403L193 404L192 403M225 403L226 404L225 403M489 403L490 404L489 403M224 404L225 405L224 404M223 405L224 406L223 405M490 405L491 406L490 405M190 406L191 407L190 406M491 406L492 407L491 406M189 407L190 408L189 407M492 407L493 408L492 407M221 408L222 409L221 408M460 408L461 409L460 408M188 409L189 410L188 409M220 409L221 410L220 409M461 409L462 410L461 409M493 409L494 410L493 409M187 410L188 411L187 410M219 410L220 411L219 410M462 410L463 411L462 410M494 410L495 411L494 410M218 411L219 412L218 411M463 411L464 412L463 411M186 412L187 413L186 412M217 412L218 413L217 412M464 412L465 413L464 412M495 412L496 413L495 412M185 413L186 414L185 413M216 414L217 415L216 414M465 414L466 415L465 414M184 415L185 416L184 415M215 415L216 416L215 415M466 415L467 416L466 415M497 415L498 416L497 415M214 416L215 417L214 416M467 416L468 417L467 416M183 417L184 418L183 417M498 417L499 418L498 417M182 418L183 419L182 418M468 418L469 419L468 418M499 418L500 419L499 418M212 419L213 420L212 419M469 419L470 420L469 419M181 420L182 421L181 420M211 420L212 421L211 420M470 420L471 421L470 420M500 420L501 421L500 420M180 422L181 423L180 422M210 422L211 423L210 422M471 422L472 423L471 422M501 422L502 423L501 422M209 423L210 424L209 423M472 423L473 424L472 423M179 424L180 425L179 424M502 424L503 425L502 424M178.333 425.667L178.667 426.333L178.333 425.667M208 425L209 426L208 425M473 425L474 426L473 425M503.333 425.667L503.667 426.333L503.333 425.667M207 426L208 427L207 426M474 426L475 427L474 426M177 427L178 428L177 427M504.333 427.667L504.667 428.333L504.333 427.667M206 428L207 429L206 428M475 428L476 429L475 428M176 429L177 430L176 429M205 429L206 430L205 429M505.333 429.667L505.667 430.333L505.333 429.667M476 430L477 431L476 430M175 431L176 432L175 431M204 431L205 432L204 431M477 431L478 432L477 431M506.333 431.667L506.667 432.333L506.333 431.667M174.333 433.667L174.667 434.333L174.333 433.667M203 433L204 434L203 433M478 433L479 434L478 433M507.333 433.667L507.667 434.333L507.333 433.667M202 435L203 436L202 435M479 435L480 436L479 435M173 436L174 437L173 436M201.333 436.667L201.667 437.333L201.333 436.667M480.333 436.667L480.667 437.333L480.333 436.667M508 436L509 437L508 436M172 438L173 439L172 438M200 438L201 439L200 438M481.333 438.667L481.667 439.333L481.333 438.667M509 438L510 439L509 438M171 440L172 441L171 440M199 440L200 441L199 440M482.333 440.667L482.667 441.333L482.333 440.667M510 440L511 441L510 440M170.333 442.667L170.667 443.333L170.333 442.667M198 442L199 443L198 442M483.333 442.667L483.667 443.333L483.333 442.667M511 443L512 444L511 443M197.333 444.667L197.667 445.333L197.333 444.667M484.333 444.667L484.667 445.333L484.333 444.667M169 445L170 446L169 445M512.333 445.667L512.667 446.333L512.333 445.667M168.333 447.667L168.667 448.333L168.333 447.667M196 447L197 448L196 447M485 447L486 448L485 447M513 448L514 449L513 448M195 449L196 450L195 449M486 449L487 450L486 449M167.333 450.667L167.667 451.333L167.333 450.667M514.333 450.667L514.667 451.333L514.333 450.667M618 450L618 493L619.028 508.397L631 510L631 509L619 509L619 469L618 450z"/>
<path style="fill:#030101; stroke:none;" d="M619 450L619 509L631 509L631 468L632 468C634.333 477.82 642.969 508.633 654 509L670 468L671 468L671 509L683 509L683 450L665 450L651 486C646.4 477.363 643.53 456.558 635.501 451.028C631.702 448.411 623.451 450 619 450z"/>
<path style="fill:#840101; stroke:none;" d="M636 450L637 451L636 450z"/>
<path style="fill:#030101; stroke:none;" d="M692 497L720 497L720 509L732 509L732 497L740 497L740 486L732 486L732 450C727.412 450 720.576 448.723 716.326 450.603C711.988 452.522 709.355 459.203 706.947 463C699.798 474.271 692 483.262 692 497z"/>
<path style="fill:#840101; stroke:none;" d="M732 450L732 486L733 486C733 475.613 736.011 459.559 732 450M194 451L195 452L194 451M487.333 451.667L487.667 452.333L487.333 451.667M664.333 451.667L664.667 452.333L664.333 451.667M714 451L715 452L714 451M713 452L714 453L713 452M166.333 453.667L166.667 454.333L166.333 453.667M515.333 453.667L515.667 454.333L515.333 453.667M637 453L638 454L637 453M193 454L194 455L193 454M488 454L489 455L488 454M663 454L664 455L663 454M712 454L713 455L712 454M638 455L639 456L638 455M711 455L712 456L711 455M165.333 456.667L165.667 457.333L165.333 456.667M192.333 456.667L192.667 457.333L192.333 456.667M489.333 456.667L489.667 457.333L489.333 456.667M516.333 456.667L516.667 457.333L516.333 456.667M662.333 456.667L662.667 457.333L662.333 456.667M639.333 457.667L639.667 458.333L639.333 457.667M710 457L711 458L710 457M709 458L710 459L709 458M164.333 459.667L164.667 460.333L164.333 459.667M191.333 459.667L191.667 460.333L191.333 459.667M490.333 459.667L490.667 460.333L490.333 459.667M661 459L662 460L661 459M517.333 460.667L517.667 461.333L517.333 460.667M640 460L641 461L640 460M708 460L709 461L708 460M660.333 461.667L660.667 462.333L660.333 461.667M719 461L720 462L719 461M190 462L191 463L190 462M491.333 462.667L491.667 463.333L491.333 462.667M641.333 462.667L641.667 463.333L641.333 462.667M707 462L708 463L707 462z"/>
<path style="fill:#cd0101; stroke:none;" d="M719 462L704 486L720 486L719 462z"/>
<path style="fill:#840101; stroke:none;" d="M163.333 463.667L163.667 464.333L163.333 463.667M518.333 463.667L518.667 464.333L518.333 463.667M706 463L707 464L706 463M718 463L719 464L718 463M659 464L660 465L659 464M717 464L718 465L717 464M189.333 465.667L189.667 466.333L189.333 465.667M492.333 465.667L492.667 466.333L492.333 465.667M642 465L643 466L642 465M705 465L706 466L705 465M658.333 466.667L658.667 467.333L658.333 466.667M704 466L705 467L704 466M716 466L717 467L716 466M162.333 467.667L162.667 468.333L162.333 467.667M519.333 467.667L519.667 468.333L519.333 467.667M643.333 467.667L643.667 468.333L643.333 467.667M715 467L716 468L715 467M188.333 468.667L188.667 469.333L188.333 468.667M493.333 468.667L493.667 469.333L493.333 468.667M631 468L632 469L631 468M670 468L670 509L671 509C671 497.304 674.511 478.75 670 468M703 468L704 469L703 468M657 469L658 470L657 469M702 469L703 470L702 469M714 469L715 470L714 469M632 470L633 471L632 470M644 470L645 471L644 470M713 470L714 471L713 470M161.333 471.667L161.667 472.333L161.333 471.667M520 471L520 474L521 474L520 471M656.333 471.667L656.667 472.333L656.333 471.667M701 471L702 472L701 471M187.333 472.667L187.667 473.333L187.333 472.667M494.333 472.667L494.667 473.333L494.333 472.667M645.333 472.667L645.667 473.333L645.333 472.667M668 472L669 473L668 472M712 472L713 473L712 472M633 473L634 474L633 473M700 473L701 474L700 473M711 473L712 474L711 473M655 474L656 475L655 474M667 474L668 475L667 474M699 474L700 475L699 474M160 475L160 479L161 479L160 475M634 475L635 476L634 475M646 475L647 476L646 475M710 475L711 476L710 475M186.333 476.667L186.667 477.333L186.333 476.667M495 476L495 479L496 479L495 476M521 476L521 479L522 479L521 476M654.333 476.667L654.667 477.333L654.333 476.667M698 476L699 477L698 476M635.333 477.667L635.667 478.333L635.333 477.667M647.333 477.667L647.667 478.333L647.333 477.667M666 477L667 478L666 477M697 477L698 478L697 477M709 477L710 478L709 477M708 478L709 479L708 478M653 479L654 480L653 479M665 479L666 480L665 479M696 479L697 480L696 479M185 480L185 484L186 484L185 480M636 480L637 481L636 480M648 480L649 481L648 480M695 480L696 481L695 480M707 480L708 481L707 480M159 481L159 484L160 484L159 481M496 481L496 484L497 484L496 481M522 481L522 485L523 485L522 481M652.333 481.667L652.667 482.333L652.333 481.667M664.333 481.667L664.667 482.333L664.333 481.667M706 481L707 482L706 481M637.333 482.667L637.667 483.333L637.333 482.667M649.333 482.667L649.667 483.333L649.333 482.667M694 482L695 483L694 482M705 483L706 484L705 483M651 484L652 485L651 484M663 484L664 485L663 484M693 484L694 485L693 484M704 484L705 485L704 484M638 485L639 486L638 485M650 485L651 486L650 485M692 485L693 486L692 485M184 486L184 490L185 490L184 486M497 486L497 490L498 490L497 486M662.333 486.667L662.667 487.333L662.333 486.667M740 486L740 497L741 497L740 486M639.333 487.667L639.667 488.333L639.333 487.667M691 487L691 497L692 497L691 487M158 488L158 492L159 492L158 488M523 488L523 492L524 492L523 488M661 489L662 490L661 489M640 490L641 491L640 490M660.333 491.667L660.667 492.333L660.333 491.667M641.333 492.667L641.667 493.333L641.333 492.667M183 493L183 499L184 499L183 493M498 494L498 499L499 499L498 494M659 494L660 495L659 494M642 495L643 496L642 495M658.333 496.667L658.667 497.333L658.333 496.667M157 497L157 509L158 509L157 497M643.333 497.667L643.667 498.333L643.333 497.667M732 497L732 509L720 509L720 510L733 510L732 497M524 498L524 510L525 510L524 498z"/>
<path style="fill:#ffffff; stroke:none;" d="M420 499L365.576 593L322 669C330.466 669.006 345.295 673.457 352.671 668.142C363.14 660.599 370.59 639.154 377 628C392.34 601.308 407.888 574.736 423.15 548C429.529 536.826 440.552 523.694 443 511L420 499z"/>
<path style="fill:#840101; stroke:none;" d="M657 499L658 500L657 499M644 500L645 501L644 500M656.333 501.667L656.667 502.333L656.333 501.667M645.333 502.667L645.667 503.333L645.333 502.667M655 504L656 505L655 504M646 505L647 506L646 505M182 506L182 518L183 518L182 506M654.333 506.667L654.667 507.333L654.333 506.667M647.333 507.667L647.667 508.333L647.333 507.667M499 508L499 516L500 516L499 508M648 509L648 510L654 510L648 509M671 509L671 510L683 510L671 509M524 514L524 526L525 526L524 514M157 515L157 527L158 527L157 515M498 524L498 530L499 530L498 524M183 525L183 531L184 531L183 525M628 527L628 528L632 528L628 527z"/>
<path style="fill:#030101; stroke:none;" d="M617 557C618.548 574.063 650.177 577.163 651.771 559C652.724 548.141 641.679 546.836 634.001 544.25C631.146 543.289 626.026 541.145 628.086 537.213C632.222 529.322 643.975 539.979 650 540C648.509 525.55 624.215 522.071 618.894 536.004C612.706 552.208 636.804 548.894 642.069 557.043C646.207 563.448 633.608 564.779 630.043 562.846C624.582 559.885 623.763 557.024 617 557z"/>
<path style="fill:#840101; stroke:none;" d="M636 527L636 528L640 528L636 527M709 527L709 528L712 528L709 527z"/>
<path style="fill:#030101; stroke:none;" d="M712 527.471C683.173 532.565 691.996 575.928 721 569.61C747.07 563.93 737.695 522.931 712 527.471z"/>
<path style="fill:#840101; stroke:none;" d="M718 527L718 528L721 528L718 527z"/>
<path style="fill:#ffffff; stroke:none;" d="M843 527L843 546L824 546L824 552L843 552L843 571L849 571L849 552L867 552L867 546L849 546L849 527L843 527z"/>
<path style="fill:#840101; stroke:none;" d="M626 528L627 529L626 528M641.667 528.333L642.333 528.667L641.667 528.333M657 528C657 539.867 653.947 556.497 657.318 567.852C658.401 571.5 664.662 572.207 666.397 568.682C668.163 565.092 667 558.93 667 555L666 555L666 570L658 570C658 558.043 661.611 538.988 657 528z"/>
<path style="fill:#030101; stroke:none;" d="M658 528L658 570L666 570L666 555C672.19 555 679.347 555.933 684.895 552.583C692.233 548.151 692.673 536.165 685.811 531.133C678.539 525.801 666.502 528 658 528z"/>
<path style="fill:#840101; stroke:none;" d="M680.667 528.333L681.333 528.667L680.667 528.333M707 528L708 529L707 528M722.667 528.333L723.333 528.667L722.667 528.333M742 528C742 539.867 738.947 556.497 742.318 567.852C743.401 571.5 749.662 572.207 751.397 568.682C753.163 565.092 752 558.93 752 555L751 555L751 570L743 570C743 558.043 746.611 538.988 742 528z"/>
<path style="fill:#030101; stroke:none;" d="M743 528L743 570L751 570L751 555C762.482 555.873 762.836 569.99 776 570L766 554C776.243 551.927 779.795 537.3 770.812 531.005C763.513 525.891 751.408 528 743 528z"/>
<path style="fill:#840101; stroke:none;" d="M764 528L764 529L767 529L764 528z"/>
<path style="fill:#030101; stroke:none;" d="M781 528L781 535L795 535L795 570L804 570L804 535L817 535L817 528L781 528z"/>
<path style="fill:#840101; stroke:none;" d="M817 528L817 535L818 535L817 528M624 529L625 530L624 529M644 529L645 530L644 529M683 529L684 530L683 529M705 529L706 530L705 529M725 529L726 530L725 529M768 529L769 530L768 529M622 530L623 531L622 530M645 530L646 531L645 530M685 530L686 531L685 530M703 530L704 531L703 530M727 530L728 531L727 530M770 530L771 531L770 530M523 531L523 536L524 536L523 531M621 531L622 532L621 531M686 531L687 532L686 531M728 531L729 532L728 531M158 532L158 536L159 536L158 532M620 532L621 533L620 532M700 532L701 533L700 532M729 532L730 533L729 532M619 533L620 534L619 533M648 533L649 534L648 533M688 533L689 534L688 533M699 533L700 534L699 533M730 533L731 534L730 533M773 533L774 534L773 533M184 534L184 538L185 538L184 534M497 534L497 537L498 537L497 534M630.667 534.333L631.333 534.667L630.667 534.333M635 534L635 535L638 535L635 534M649.333 534.667L649.667 535.333L649.333 534.667M689 534L690 535L689 534M698 534L699 535L698 534M731 534L732 535L731 534M774 534L775 535L774 534M618.333 535.667L618.667 536.333L618.333 535.667M628 535L629 536L628 535M639 535L640 536L639 535M666 535L666 548L667 548L666 535z"/>
<path style="fill:#cd0101; stroke:none;" d="M667 535L667 548C684.736 547.998 684.734 535.012 667 535z"/>
<path style="fill:#840101; stroke:none;" d="M676 535L676 536L679 536L676 535M732 535L733 536L732 535M751 535L751 548L752 548L751 535z"/>
<path style="fill:#cd0101; stroke:none;" d="M752 535L752 548C769.777 547.998 769.777 535.002 752 535z"/>
<path style="fill:#840101; stroke:none;" d="M762.667 535.333L763.333 535.667L762.667 535.333M781 535L781 536L794 536L794 570L795 570L795 535L781 535M804 535L804 536L817 536L804 535M627 536L628 537L627 536M640 536L641 537L640 536M679 536L680 537L679 536M697 536L698 537L697 536M711 536L712 537L711 536z"/>
<path style="fill:#cd0101; stroke:none;" d="M712 536.654C696.025 541.587 703.243 566.079 718.999 561.195C734.179 556.49 727.434 531.887 712 536.654z"/>
<path style="fill:#840101; stroke:none;" d="M719 536L720 537L719 536M733 536L734 537L733 536M765 536L766 537L765 536M775.333 536.667L775.667 537.333L775.333 536.667M650 537L642 540L642 541L651 541L650 537M690.333 537.667L690.667 538.333L690.333 537.667M696 537L697 538L696 537M709 537L710 538L709 537M721 537L722 538L721 537M766.333 537.667L766.667 538.333L766.333 537.667M641.333 538.667L641.667 539.333L641.333 538.667M681 538L682 539L681 538M707 538L708 539L707 538M734 538L735 539L734 538M522 539L522 543L523 543L522 539M695 539L696 540L695 539M706 539L707 540L706 539M724 539L725 540L724 539M159 540L159 543L160 543L159 540M185 540L185 543L186 543L185 540M496 540L496 543L497 543L496 540M705 540L706 541L705 540M735 540L736 541L735 540M627 541L628 542L627 541M694.333 541.667L694.667 542.333L694.333 541.667M704 541L705 542L704 541M629 542L630 543L629 542M726 542L727 543L726 542M736 542L736 545L737 545L736 542M618 543L619 544L618 543M631.667 543.333L632.333 543.667L631.667 543.333M703 543L704 544L703 543M634.667 544.333L635.333 544.667L634.667 544.333M681 544L682 545L681 544M690.333 544.667L690.667 545.333L690.333 544.667M727.333 544.667L727.667 545.333L727.333 544.667M766 544L767 545L766 544M160 545L160 548L161 548L160 545M186 545L186 548L187 548L186 545M495 545L495 548L496 548L495 545M521 545L521 548L522 548L521 545M619 545L620 546L619 545M638.667 545.333L639.333 545.667L638.667 545.333M693 545L693 553L694 553L693 545M702 545L702 548L703 548L702 545M775.333 545.667L775.667 546.333L775.333 545.667M620 546L621 547L620 546M642.667 546.333L643.333 546.667L642.667 546.333M765 546L766 547L765 546M621 547L622 548L621 547M645 547L646 548L645 547M677.667 547.333L678.333 547.667L677.667 547.333M689.333 547.667L689.667 548.333L689.333 547.667M762.667 547.333L763.333 547.667L762.667 547.333M622 548L623 549L622 548M774 548L775 549L774 548M623.667 549.333L624.333 549.667L623.667 549.333M648 549L649 550L648 549M688 549L689 550L688 549M187.333 550.667L187.667 551.333L187.333 550.667M494.333 550.667L494.667 551.333L494.333 550.667M520 550L520 553L521 553L520 550M626 550L627 551L626 550M649 550L650 551L649 550M702 550L702 553L703 553L702 550M161.333 551.667L161.667 552.333L161.333 551.667M628.667 551.333L629.333 551.667L628.667 551.333M772 551L773 552L772 551M632.667 552.333L633.333 552.667L632.667 552.333M685 552L686 553L685 552M727.333 552.667L727.667 553.333L727.333 552.667M493.333 553.667L493.667 554.333L493.333 553.667M636.667 553.333L637.333 553.667L636.667 553.333M651.333 553.667L651.667 554.333L651.333 553.667M683.667 553.333L684.333 553.667L683.667 553.333M736.333 553.667L736.667 554.333L736.333 553.667M769 553L770 554L769 553M188.333 554.667L188.667 555.333L188.333 554.667M639 554L640 555L639 554M680.667 554.333L681.333 554.667L680.667 554.333M703 554L704 555L703 554M766 554L767 555L766 554M162.333 555.667L162.667 556.333L162.333 555.667M519.333 555.667L519.667 556.333L519.333 555.667M641 555L642 556L641 555M694.333 555.667L694.667 556.333L694.333 555.667M726 555L727 556L726 555M756 555L757 556L756 555M616 559L617 559L625 557C621.945 555.24 616.861 554.983 616 559M642 556L643 557L642 556M704 556L705 557L704 556M757 556L758 557L757 556M767 556L768 557L767 556M189.333 557.667L189.667 558.333L189.333 557.667M492.333 557.667L492.667 558.333L492.333 557.667M625.333 557.667L625.667 558.333L625.333 557.667M705 557L706 558L705 557M735 557L736 558L735 557M768 557L769 558L768 557M643 558L644 559L643 558M695 558L696 559L695 558M706 558L707 559L706 558M724 558L725 559L724 558M758 558L759 559L758 558M163.333 559.667L163.667 560.333L163.333 559.667M518.333 559.667L518.667 560.333L518.333 559.667M707 559L708 560L707 559M734 559L735 560L734 559M759 559L760 560L759 559M769 559L770 560L769 559M190.333 560.667L190.667 561.333L190.333 560.667M491.333 560.667L491.667 561.333L491.333 560.667M626 560L627 561L626 560M696 560L697 561L696 560M709 560L710 561L709 560M721 560L722 561L721 560M770 560L771 561L770 560M617.333 561.667L617.667 562.333L617.333 561.667M627 561L628 562L627 561M642 561L643 562L642 561M651.333 561.667L651.667 562.333L651.333 561.667M697 561L698 562L697 561M711 561L712 562L711 561M718.667 561.333L719.333 561.667L718.667 561.333M733 561L734 562L733 561M164.333 562.667L164.667 563.333L164.333 562.667M517.333 562.667L517.667 563.333L517.333 562.667M628 562L629 563L628 562M641 562L642 563L641 562M732 562L733 563L732 562M761 562L762 563L761 562M771 562L772 563L771 562M191.333 563.667L191.667 564.333L191.333 563.667M490.333 563.667L490.667 564.333L490.333 563.667M630 563L631 564L630 563M639 563L640 564L639 563M731 563L732 564L731 563M762 563L763 564L762 563M772 563L773 564L772 563M618 564L619 565L618 564M634.667 564.333L635.333 564.667L634.667 564.333M650 564L651 565L650 564M730 564L731 565L730 564M773 564L774 565L773 564M619 565L620 566L619 565M649 565L650 566L649 565M729 565L730 566L729 565M763 565L764 566L763 565M165.333 566.667L165.667 567.333L165.333 566.667M192.333 566.667L192.667 567.333L192.333 566.667M489.333 566.667L489.667 567.333L489.333 566.667M516.333 566.667L516.667 567.333L516.333 566.667M620 566L621 567L620 566M648 566L649 567L648 566M702 566L703 567L702 566M728 566L729 567L728 566M764 566L765 567L764 566M774 566L775 567L774 566M621 567L622 568L621 567M647 567L648 568L647 567M703 567L704 568L703 567M726 567L727 568L726 567M775 567L776 568L775 567M623 568L624 569L623 568M646 568L647 569L646 568M705 568L706 569L705 568M724 568L725 569L724 568M765 568L766 569L765 568M166.333 569.667L166.667 570.333L166.333 569.667M193 569L194 570L193 569M488 569L489 570L488 569M515.333 569.667L515.667 570.333L515.333 569.667M624.667 569.333L625.333 569.667L624.667 569.333M644 569L645 570L644 569M707.667 569.333L708.333 569.667L707.667 569.333M722 569L723 570L722 569M766 569L767 570L766 569M776 569L767 570L767 571L776 569M627.667 570.333L628.333 570.667L627.667 570.333M641.667 570.333L642.333 570.667L641.667 570.333M710 570L710 571L720 571L710 570M795 570L795 571L804 571L795 570M194.333 571.667L194.667 572.333L194.333 571.667M487.333 571.667L487.667 572.333L487.333 571.667M632 571L632 572L637 572L632 571M167.333 572.667L167.667 573.333L167.333 572.667M514 572L515 573L514 572M195 574L196 575L195 574M486 574L487 575L486 574M168 575L169 576L168 575M513 575L514 576L513 575M196 576L197 577L196 576M485 576L486 577L485 576M169.333 577.667L169.667 578.333L169.333 577.667M512.333 577.667L512.667 578.333L512.333 577.667M197.333 578.667L197.667 579.333L197.333 578.667M484 578L485 579L484 578M170 580L171 581L170 580M483.333 580.667L483.667 581.333L483.333 580.667M511 580L512 581L511 580M198 581L199 582L198 581M199.333 582.667L199.667 583.333L199.333 582.667M482 582L483 583L482 582M510.333 582.667L510.667 583.333L510.333 582.667M171 583L172 584L171 583M200.333 584.667L200.667 585.333L200.333 584.667M481 584L482 585L481 584M172 585L173 586L172 585M509 585L510 586L509 585M201.333 586.667L201.667 587.333L201.333 586.667M480 586L481 587L480 586M173 587L174 588L173 587M508 587L509 588L508 587M202 588L203 589L202 588M479 588L480 589L479 588M174.333 589.667L174.667 590.333L174.333 589.667M507 589L508 590L507 589M203 590L204 591L203 590M478 590L479 591L478 590M506.333 591.667L506.667 592.333L506.333 591.667M175 592L176 593L175 592M204 592L205 593L204 592M477 592L478 593L477 592M176.333 593.667L176.667 594.333L176.333 593.667M205 593L206 594L205 593M476 593L477 594L476 593M505.333 593.667L505.667 594.333L505.333 593.667M177.333 595.667L177.667 596.333L177.333 595.667M206 595L207 596L206 595M475 595L476 596L475 595M504 595L505 596L504 595M178.333 597.667L178.667 598.333L178.333 597.667M207 597L208 598L207 597M503 597L504 598L503 597M208 598L209 599L208 598M473 598L474 599L473 598M179 599L180 600L179 599M502 599L503 600L502 599M209 600L210 601L209 600M472 600L473 601L472 600M180 601L181 602L180 601M210 601L211 602L210 601M471 601L472 602L471 601M501 601L502 602L501 601M181 603L182 604L181 603M500 603L501 604L500 603M212 604L213 605L212 604M469 604L470 605L469 604M499 604L500 605L499 604M182 605L183 606L182 605M213 605L214 606L213 605M468 605L469 606L468 605M183 606L184 607L183 606M498 606L499 607L498 606M214 607L215 608L214 607M467 607L468 608L467 607M184 608L185 609L184 608M215 608L216 609L215 608M466 608L467 609L466 608M497 608L498 609L497 608M185 609L186 610L185 609M216 609L217 610L216 609M465 609L466 610L465 609M496 609L497 610L496 609M186 611L187 612L186 611M495 611L496 612L495 611M218 612L219 613L218 612M463 612L464 613L463 612M187 613L188 614L187 613M219 613L220 614L219 613M462 613L463 614L462 613M188 614L189 615L188 614M220 614L221 615L220 614M461 614L462 615L461 614M493 614L494 615L493 614M221 615L222 616L221 615M460 615L461 616L460 615M189 616L190 617L189 616M190 617L191 618L190 617M491 617L492 618L491 617M191 618L192 619L191 618M223 618L224 619L223 618M490 618L491 619L490 618M224 619L225 620L224 619M457 619L458 620L457 619M192 620L193 621L192 620M225 620L226 621L225 620M456 620L457 621L456 620M489 620L490 621L489 620M193 621L194 622L193 621M226 621L227 622L226 621M455 621L456 622L455 621M488 621L489 622L488 621M227 622L228 623L227 622M454 622L455 623L454 622M228 623L229 624L228 623M453 623L454 624L453 623M195 624L196 625L195 624M229 624L230 625L229 624M452 624L453 625L452 624M486 624L487 625L486 624M196 625L197 626L196 625M230 625L231 626L230 625M451 625L452 626L451 625M485 625L486 626L485 625M197 626L198 627L197 626M231 626L232 627L231 626M450 626L451 627L450 626M484 626L485 627L484 626M232 627L233 628L232 627M449 627L450 628L449 627M233 628L234 629L233 628M448 628L449 629L448 628M199 629L200 630L199 629M234 629L235 630L234 629M482 629L483 630L482 629M200 630L201 631L200 630z"/>
<path style="fill:#cd0101; stroke:none;" d="M236 630L237 631L236 630z"/>
<path style="fill:#840101; stroke:none;" d="M481 630L482 631L481 630M201 631L202 632L201 631z"/>
<path style="fill:#cd0101; stroke:none;" d="M237 631L238 632L237 631z"/>
<path style="fill:#840101; stroke:none;" d="M444 631L445 632L444 631M480 631L481 632L480 631M202 632L203 633L202 632M238 632L239 633L238 632M443 632L444 633L443 632M479 632L480 633L479 632M239 633L240 634L239 633M442 633L443 634L442 633M478 633L479 634L478 633M240 634L241 635L240 634M441 634L442 635L441 634z"/>
<path style="fill:#cd0101; stroke:none;" d="M242 635L243 636L242 635z"/>
<path style="fill:#840101; stroke:none;" d="M205 636L206 637L205 636M243 636L244 637L243 636M438 636L439 637L438 636M206 637L207 638L206 637M244 637L245 638L244 637M437 637L438 638L437 637M475 637L476 638L475 637M207 638L208 639L207 638M245 638L246 639L245 638M436 638L437 639L436 638M474 638L475 639L474 638M208 639L209 640L208 639M247 639L248 640L247 639M434 639L435 640L434 639M473 639L474 640L473 639M209 640L210 641L209 640M248 640L249 641L248 640M433 640L434 641L433 640M472 640L473 641L472 640M210 641L211 642L210 641M471 641L472 642L471 641M211 642L212 643L211 642M251 642L252 643L251 642M430 642L431 643L430 642M470 642L471 643L470 642M212 643L213 644L212 643M252 643L253 644L252 643M429 643L430 644L429 643M469 643L470 644L469 643M213 644L214 645L213 644M254 644L255 645L254 644M427 644L428 645L427 644M468 644L469 645L468 644M214 645L215 646L214 645M255 645L256 646L255 645M467 645L468 646L467 645M215 646L216 647L215 646M257 646L258 647L257 646M424 646L425 647L424 646M466 646L467 647L466 646M216 647L217 648L216 647M259 647L260 648L259 647M422 647L423 648L422 647M260 648L261 649L260 648M421 648L422 649L421 648M262 649L263 650L262 649M419 649L420 650L419 649M462 649L463 650L462 649M220 650L221 651L220 650M264 650L265 651L264 650M417 650L418 651L417 650M461 650L462 651L461 650M221 651L222 652L221 651M266 651L267 652L266 651M415 651L416 652L415 651M460 651L461 652L460 651M222 652L223 653L222 652M268 652L269 653L268 652M413 652L414 653L413 652M459 652L460 653L459 652M223 653L224 654L223 653M269.667 653.333L270.333 653.667L269.667 653.333M411 653L412 654L411 653M458 653L459 654L458 653M271 654L272 655L271 654M409.667 654.333L410.333 654.667L409.667 654.333M226 655L227 656L226 655M407 655L408 656L407 655M455 655L456 656L455 655M227 656L228 657L227 656M270 656L271 657L270 656M405 656L406 657L405 656M454 656L455 657L454 656M228 657L229 658L228 657M403 657L404 658L403 657M453 657L454 658L453 657M269 658L270 659L269 658M400.667 658.333L401.333 658.667L400.667 658.333M231 659L232 660L231 659M268 659L269 660L268 659M398 659L399 660L398 659M450 659L451 660L450 659M232 660L233 661L232 660z"/>
<path style="fill:#cd0101; stroke:none;" d="M268 660L269 661L268 660z"/>
<path style="fill:#840101; stroke:none;" d="M395.667 660.333L396.333 660.667L395.667 660.333M449 660L450 661L449 660M234 661L235 662L234 661M267 661L268 662L267 661M392.667 661.333L393.333 661.667L392.667 661.333M447 661L448 662L447 661M235 662L236 663L235 662M389.667 662.333L390.333 662.667L389.667 662.333M446 662L447 663L446 662M266 663L267 664L266 663M386.667 663.333L387.333 663.667L386.667 663.333M238 664L239 665L238 664M295 664L296 665L295 664M298.667 664.333L299.333 664.667L298.667 664.333M382.667 664.333L383.333 664.667L382.667 664.333M443 664L444 665L443 664M239 665L240 666L239 665M265 665L266 666L265 665z"/>
<path style="fill:#cd0101; stroke:none;" d="M294 665L295 666L294 665z"/>
<path style="fill:#840101; stroke:none;" d="M301.667 665.333L302.333 665.667L301.667 665.333M379.667 665.333L380.333 665.667L379.667 665.333M241 666L242 667L241 666M264 666L265 667L264 666M294 666L295 667L294 666M305 666L305 667L308 667L305 666M374 666L374 667L377 667L374 666M440 666L441 667L440 666M243 667L244 668L243 667z"/>
<path style="fill:#e0bbbb; stroke:none;" d="M264 667L265 668L264 667z"/>
<path style="fill:#840101; stroke:none;" d="M293 667L294 668L293 667M310 667L310 668L313 668L310 667M369 667L369 668L372 668L369 667M438 667L439 668L438 667M244 668L245 669L244 668M263 668L264 669L263 668M315 668L315 669L319 669L315 668M363 668L363 669L366 669L363 668M437 668L438 669L437 668M246 669L247 670L246 669M292 669L293 670L292 669M325 669L325 670L331 670L325 669z"/>
<path style="fill:#cd0101; stroke:none;" d="M331 669L332 670L331 669M350 669L351 670L350 669z"/>
<path style="fill:#840101; stroke:none;" d="M351 669L351 670L359 670L351 669M435 669L436 670L435 669M247 670L248 671L247 670M262 670L263 671L262 670M433 670L434 671L433 670M249 671L250 672L249 671M291 671L292 672L291 671M432 671L433 672L432 671M251 672L252 673L251 672z"/>
<path style="fill:#cd0101; stroke:none;" d="M261 672L262 673L261 672M290 672L291 673L290 672z"/>
<path style="fill:#840101; stroke:none;" d="M430 672L431 673L430 672M253 673L254 674L253 673M260 673L261 674L260 673M428 673L429 674L428 673M255 674L256 675L255 674M289 674L290 675L289 674M426 674L427 675L426 674M257 675L258 676L257 675M259 675L260 676L259 675M424.667 675.333L425.333 675.667L424.667 675.333M258 676L259 677L258 676M288 676L289 677L288 676M422.667 676.333L423.333 676.667L422.667 676.333M420.667 677.333L421.333 677.667L420.667 677.333M287 678L288 679L287 678M418.667 678.333L419.333 678.667L418.667 678.333z"/>
<path style="fill:#cd0101; stroke:none;" d="M286 679L287 680L286 679z"/>
<path style="fill:#840101; stroke:none;" d="M416 679L417 680L416 679M414 680L415 681L414 680M285 681L286 682L285 681M411.667 681.333L412.333 681.667L411.667 681.333M409 682L410 683L409 682M284 683L285 684L284 683M406.667 683.333L407.333 683.667L406.667 683.333z"/>
<path style="fill:#e0bbbb; stroke:none;" d="M283 684L284 685L283 684z"/>
<path style="fill:#840101; stroke:none;" d="M404 684L405 685L404 684M283.333 685.667L283.667 686.333L283.333 685.667M401.667 685.333L402.333 685.667L401.667 685.333M398.667 686.333L399.333 686.667L398.667 686.333M285.667 687.333L286.333 687.667L285.667 687.333M395.667 687.333L396.333 687.667L395.667 687.333M289.667 688.333L290.333 688.667L289.667 688.333M391.667 688.333L392.333 688.667L391.667 688.333M292.667 689.333L293.333 689.667L292.667 689.333M388.667 689.333L389.333 689.667L388.667 689.333M296.667 690.333L297.333 690.667L296.667 690.333M384.667 690.333L385.333 690.667L384.667 690.333M300 691L300 692L303 692L300 691M379 691L379 692L382 692L379 691M305 692L305 693L308 693L305 692M374 692L374 693L377 693L374 692M310 693L310 694L314 694L310 693M368 693L368 694L371 694L368 693M318 694L318 695L322 695L318 694M361 694L361 695L365 695L361 694M327 695L327 696L340 696L327 695M342 695L342 696L355 696L342 695z"/>
</svg>
