<?xml version="1.0" standalone="yes"?>
<svg xmlns="http://www.w3.org/2000/svg" width="1024" height="1024">
<path style="fill:#e10707; stroke:none;" d="M0 0L0 1024L1024 1024L1024 0L0 0z"/>
<path style="fill:#ffffff; stroke:none;" d="M449 267C397.395 364.974 338.711 459.834 283.579 556L250.85 613C247.496 618.844 238.689 629.162 238.736 635.999C238.784 642.938 254.066 652.458 260 654C306.614 565.501 359.667 479.785 409.421 393L453 317C459.54 305.621 470.683 291.992 473 279L449 267z"/>
<path style="fill:#030101; stroke:none;" d="M269 691L281 668C245.338 647.166 216.786 621.17 199.309 583C163.059 503.833 195.592 401.829 274 361.258C302.543 346.49 330.981 340 363 340C371.723 340 380.451 340.838 389 342.661C393.057 343.527 399.718 346.468 403.79 345.223C409.692 343.419 416.254 327.518 418 322C393.966 315.18 369.053 311.374 344 313.089C254.634 319.209 180.506 385.001 161.424 472C146.86 538.405 170.057 615.552 222 660.424C234.699 671.394 251.879 687.948 269 691z"/>
<path style="fill:#e67c7c; stroke:none;" d="M420 317L421 318L420 317z"/>
<path style="fill:#e10707; stroke:none;" d="M418 322L419 323L418 322M417 324L418 325L417 324M415 327L416 328L415 327M414 329L415 330L414 329M413 331L414 332L413 331z"/>
<path style="fill:#030101; stroke:none;" d="M443 332L430 356C529.697 397.519 558.105 529.828 497.255 614C453.318 674.776 376.853 697.958 306 678L293 702C375.473 728.836 468.287 701.442 519.572 630C588.802 533.559 557.536 379.686 443 332z"/>
<path style="fill:#e10707; stroke:none;" d="M442 333L443 334L442 333M411 334L412 335L411 334M410 336L411 337L410 336M440 336L441 337L440 336M409 338L410 339L409 338M439 338L440 339L439 338M238 638C245.284 614.982 263.553 591.976 275.579 571L350.579 440C362.43 419.329 374.339 398.694 386.15 378C391.783 368.132 396.828 354.924 405 347L405 346L368 340L368 341L374 341C348.84 383.663 324.705 426.983 300.15 470C293.478 481.69 286.827 493.394 280.011 505C277.872 508.641 275.418 516.005 271.61 518.122C266.467 520.982 252.851 509.268 248 507L277.989 454L319.15 382L336.397 352L346 341C338.336 337.874 324.854 342.563 317 344.349C288.32 350.874 260.124 365.408 239 386.015C184.03 439.638 168.029 521.722 202.753 591C210.986 607.425 222.773 627.244 238 638z"/>
<path style="fill:#e67c7c; stroke:none;" d="M346 340L347 341L346 340z"/>
<path style="fill:#ffffff; stroke:none;" d="M248 507C252.347 509.877 266.437 521.296 271.61 518.839C275.415 517.033 277.992 509.494 280 506L299 473C314.877 445.374 330.43 417.558 346.424 390C355.679 374.054 366.878 358.016 374 341C365.389 340.63 350.16 336.605 342.529 341.988C338.405 344.898 336.053 351.731 333.576 356C327.589 366.314 321.614 376.632 315.719 387C300.148 414.388 284.29 441.614 268.719 469C261.919 480.961 251.887 493.787 248 507z"/>
<path style="fill:#e10707; stroke:none;" d="M438 340L439 341L438 340M407 341L408 342L407 341M406 343L407 344L406 343M436 343L437 344L436 343M405 345L406 346L405 345M435 345L436 346L435 345M434 347L435 348L434 347M432 350L433 351L432 350M431 352L432 353L431 352M430 354L431 355L430 354z"/>
<path style="fill:#e67c7c; stroke:none;" d="M333 356L334 357L333 356z"/>
<path style="fill:#e10707; stroke:none;" d="M430 356L311.424 563L275.421 626L258 654L258 655L283 669C282.919 660.302 291.339 650.395 295.579 643C306.664 623.663 317.801 604.357 328.85 585C370.084 512.76 414.24 441.588 453 368L430 356z"/>
<path style="fill:#e67c7c; stroke:none;" d="M429 357L430 358L429 357z"/>
<path style="fill:#ffffff; stroke:none;" d="M452 369C409.081 441.775 368.101 515.745 326 589C315.084 607.995 304.109 626.955 293.281 646C289.657 652.374 281.761 661.482 283 669C276.656 673.072 273.891 682.752 269.772 688.911C258.528 705.718 242.735 726.502 237 746C242.401 748.522 254.65 759.33 260.61 757.292C265.54 755.606 270.058 743.338 272.576 739C282.914 721.186 291.954 702.76 302.285 685C345.225 611.177 388.07 537.148 430.579 463C441.283 444.328 452.081 425.711 462.719 407C465.472 402.158 474.201 391.82 473.122 386.089C471.899 379.594 457.647 371.375 452 369z"/>
<path style="fill:#e10707; stroke:none;" d="M455 370L456 371L455 370M456 371L457 372L456 371M458 372L459 373L458 372M459 373L460 374L459 373M462 375L463 376L462 375M463 376L464 377L463 376z"/>
<path style="fill:#e7b3b3; stroke:none;" d="M464 377L465 378L464 377z"/>
<path style="fill:#e10707; stroke:none;" d="M467 379L468 380L467 379M468 380L469 381L468 380M469 381L470 382L469 381z"/>
<path style="fill:#e7b3b3; stroke:none;" d="M470 382L471 383L470 382z"/>
<path style="fill:#e10707; stroke:none;" d="M474 385C464.656 410.67 445.809 435.256 432.281 459C402.811 510.723 373.186 562.356 343.579 614C331.659 634.792 315.19 656.5 307 679L340 685L340 684L345.719 670L365.719 635L418.421 543L444 497C448.73 498.497 466.277 505.824 466.898 511.213C467.35 515.132 462.566 520.751 460.719 524C454.256 535.369 447.633 546.643 441.15 558C426.307 584.005 411.606 610.102 396.576 636C387.321 651.946 376.122 667.984 369 685C384.648 684.99 400.267 681.016 415 675.997C509.776 643.71 554.565 533.405 515.85 443C507.063 422.483 492.528 398.051 474 385z"/>
<path style="fill:#e67c7c; stroke:none;" d="M346 389L347 390L346 389M342 396L343 397L342 396M428 410L429 411L428 410M365 413L366 414L365 413z"/>
<path style="fill:#030101; stroke:none;" d="M657 449L657 510L670 510L670 466L671 466L681.319 495L686.995 508.397L694 510L711 465L712 465L712 510L724 510L724 449L705 449L690 487L676 449L657 449M733 497L763 497L763 510L775 510L775 497L784 497L784 486L775 486L775 449C770.151 449 762.814 447.618 758.326 449.603C754.038 451.5 751.155 458.267 748.667 462C740.866 473.702 733 482.56 733 497z"/>
<path style="fill:#e67c7c; stroke:none;" d="M437 450L438 451L437 450M374 453L375 454L374 453z"/>
<path style="fill:#e10707; stroke:none;" d="M762 459L745 486L763 486L762 459z"/>
<path style="fill:#e67c7c; stroke:none;" d="M287 492L288 493L287 492z"/>
<path style="fill:#ffffff; stroke:none;" d="M444 497C422.785 542.385 393.51 585.513 368.579 629C358.686 646.255 343.996 665.054 338 684C344.761 685.61 362.542 687.826 368.61 683.972C371.991 681.825 373.928 676.366 375.85 673L390.15 648C407.29 617.973 424.63 588.058 441.719 558C447.993 546.965 454.436 536.027 460.719 525C462.784 521.376 467.702 515.574 467.407 511.213C467.024 505.532 448.92 497.949 444 497z"/>
<path style="fill:#e67c7c; stroke:none;" d="M283 499L284 500L283 499M442 500L443 501L442 500M310 509L311 510L310 509M262 515L263 516L262 515z"/>
<path style="fill:#030101; stroke:none;" d="M657 562C646.66 577.98 681.349 580.829 687.682 567.996C693.432 556.345 682.199 550.605 673 548.115C670.294 547.382 662.849 545.487 664.921 541.213C668.083 534.689 678.289 540.389 682 543L683 543L688 537C679.216 526.78 651.113 527.54 654.232 546C656.336 558.454 671.104 553.56 677.458 560.651C680.893 564.485 675.396 567.637 671.999 567.851C666.344 568.208 661.594 564.763 657 562M756 530.44C725.469 535.308 733.686 580.176 764 575.699C793.646 571.32 785.378 525.755 756 530.44M696 531L696 575L705 575L705 559C711.23 559 719.27 560.329 724.957 557.312C734.338 552.334 733.55 538.27 724.985 533.009C717.625 528.489 704.363 531 696 531M790 531L790 575L799 575L799.001 567.998C799.01 566.707 798.89 565.292 799.148 564.019C802.113 549.393 812.884 572.074 815.634 573.972C818.308 575.817 822.917 575 826 575L817 558C827.22 554.494 829.604 539.206 819.956 533.228C812.257 528.458 798.738 531 790 531M831 531L831 539L844 539L844 575L854 575L854 539L867 539L867 531L831 531z"/>
<path style="fill:#e67c7c; stroke:none;" d="M455 533L456 534L455 533z"/>
<path style="fill:#e10707; stroke:none;" d="M756.001 538.65C738.639 543.827 745.46 573.183 763.999 567.347C780.619 562.116 773.603 533.401 756.001 538.65M705 539L705 551C709.292 551 715.944 552.218 719.721 549.821C723.588 547.367 722.545 542.096 718.89 540.028C715.165 537.919 709.143 539 705 539M799 539L799 551C803.181 551 808.973 552.024 812.891 550.397C817.193 548.61 817.797 542.645 813.772 540.179C809.91 537.813 803.355 539 799 539z"/>
<path style="fill:#e67c7c; stroke:none;" d="M451 540L452 541L451 540M382 546L383 547L382 546M319 549L320 550L319 549M378 553L379 554L378 553M315 556L316 557L315 556M387 596L388 597L387 596M314 609L315 610L314 609z"/>
<path style="fill:#ffffff; stroke:none;" d="M652 611L652 698L748 698L771 698L779.972 696.397L781 674L781 611L652 611z"/>
<path style="fill:#e10707; stroke:none;" d="M662 626L662 682L673 682L673 658L697 658L697 682L708 682L708 626L697 626C697 631.142 699.263 643.53 695.397 647.397C691.417 651.376 678.31 649 673 649L673 626L662 626M722 626L722 682C733.151 682 746.828 684.133 757 678.583C773.253 669.715 774.943 642.583 759.985 631.638C749.289 623.811 734.434 626 722 626z"/>
<path style="fill:#e67c7c; stroke:none;" d="M396 636L397 637L396 636z"/>
<path style="fill:#ffffff; stroke:none;" d="M732 636L732 672C738.309 672 746.322 673.311 751.907 669.772C761.416 663.744 762.392 645.521 752.895 638.995C746.917 634.887 738.853 636 732 636z"/>
<path style="fill:#e67c7c; stroke:none;" d="M747 636L748 637L747 636z"/>
<path style="fill:#e10707; stroke:none;" d="M238 638L239 639L238 638M239 639L240 640L239 639z"/>
<path style="fill:#e67c7c; stroke:none;" d="M327 642L328 643L327 642z"/>
<path style="fill:#e10707; stroke:none;" d="M244 643L245 644L244 643M245 644L246 645L245 644M246 645L247 646L246 645z"/>
<path style="fill:#e67c7c; stroke:none;" d="M264 645L265 646L264 645z"/>
<path style="fill:#e10707; stroke:none;" d="M247 646L248 647L247 646M250 648L251 649L250 648M251 649L252 650L251 649z"/>
<path style="fill:#e67c7c; stroke:none;" d="M323 649L324 650L323 649z"/>
<path style="fill:#e10707; stroke:none;" d="M254 651L255 652L254 651M255 652L256 653L255 652z"/>
<path style="fill:#e67c7c; stroke:none;" d="M260 652L261 653L260 652z"/>
<path style="fill:#e10707; stroke:none;" d="M284 669L285 670L284 669M280 670L281 671L280 670M286 670L287 671L286 670M288 671L289 672L288 671z"/>
<path style="fill:#e7b3b3; stroke:none;" d="M289 671L290 672L289 671M279 672L280 673L279 672z"/>
<path style="fill:#e10707; stroke:none;" d="M290.667 672.333L291.333 672.667L290.667 672.333M278 673L279 674L278 673M293 673L294 674L293 673z"/>
<path style="fill:#e7b3b3; stroke:none;" d="M295 674L296 675L295 674z"/>
<path style="fill:#e10707; stroke:none;" d="M296 674L297 675L296 674M277 675L278 676L277 675M298.667 675.333L299.333 675.667L298.667 675.333M301.667 676.333L302.333 676.667L301.667 676.333M276 677L277 678L276 677M304.667 677.333L305.333 677.667L304.667 677.333z"/>
<path style="fill:#e67c7c; stroke:none;" d="M275 679L276 680L275 679z"/>
<path style="fill:#e10707; stroke:none;" d="M305 679L306 680L305 679M274 680L275 681L274 680M304 681L305 682L304 681z"/>
<path style="fill:#e67c7c; stroke:none;" d="M748 681L749 682L748 681z"/>
<path style="fill:#e10707; stroke:none;" d="M273 682L274 683L273 682z"/>
<path style="fill:#e7b3b3; stroke:none;" d="M303 682L304 683L303 682z"/>
<path style="fill:#e10707; stroke:none;" d="M272 684L273 685L272 684M302 684L303 685L302 684M347 685L347 686L368 686L347 685z"/>
<path style="fill:#e7b3b3; stroke:none;" d="M271 686L272 687L271 686z"/>
<path style="fill:#e10707; stroke:none;" d="M301 686L302 687L301 686M270 687L271 688L270 687M300 688L301 689L300 688M269 689L270 690L269 689M299 689L300 690L299 689M298 691L299 692L298 691M269 692L270 693L269 692M271 693L272 694L271 693M297 693L298 694L297 693M273 694L274 695L273 694M275.667 695.333L276.333 695.667L275.667 695.333M278 696L279 697L278 696M295 696L296 697L295 696M280 697L281 698L280 697M282.667 698.333L283.333 698.667L282.667 698.333M294 698L295 699L294 698M285 699L286 700L285 699z"/>
<path style="fill:#e7b3b3; stroke:none;" d="M287 700L288 701L287 700z"/>
<path style="fill:#e10707; stroke:none;" d="M288 700L289 701L288 700M293 700L294 701L293 700M290.667 701.333L291.333 701.667L290.667 701.333z"/>
<path style="fill:#e67c7c; stroke:none;" d="M259 705L260 706L259 705M268 745L269 746L268 745M264 752L265 753L264 752z"/>
</svg>
