<?xml version="1.0" standalone="yes"?>
<svg xmlns="http://www.w3.org/2000/svg" width="1024" height="1024">
<path style="fill:#e10707; stroke:none;" d="M0 0L0 1024L1024 1024L1024 0L0 0z"/>
<path style="fill:#ffffff; stroke:none;" d="M445 266C429.99 298.111 408.985 328.48 391.011 359C354.009 421.829 316.83 484.656 280.719 548C270.403 566.095 259.859 584.104 249.201 602C245.695 607.887 236.956 618.042 236.816 625C236.648 633.362 255.864 646.633 263 649L413.424 391L455.424 319L476 282L445 266z"/>
<path style="fill:#030101; stroke:none;" d="M282 661C184.109 615.296 163.476 481.444 232.286 403C274.167 355.256 336.117 338.44 397 351L414 321C395.286 315.016 375.549 313 356 313C217.262 313 120.195 458.868 171.449 587C184.553 619.76 206.116 648.928 234 670.575C240.171 675.365 256.599 690.397 264.895 689.006C271.203 687.949 280.673 666.787 282 661z"/>
<path style="fill:#ba7b7b; stroke:none;" d="M414 320L415 321L414 320z"/>
<path style="fill:#030101; stroke:none;" d="M445 334L429 363C531.198 405.549 552.22 547.342 479.91 625C451.563 655.444 411.802 676.048 370 678.911C350.635 680.237 332.971 676.45 314 674L298 704C318.649 708.734 339.609 713.897 361 712.961C446.008 709.238 522.31 655.584 547.974 573C568.972 505.432 552.561 432.192 506.282 379C492.225 362.843 467.072 337.937 445 334z"/>
<path style="fill:#e10707; stroke:none;" d="M442 339L443 340L442 339M347 346L347 347L350 347L347 346z"/>
<path style="fill:#b99d9d; stroke:none;" d="M350.667 346.333L351.333 346.667L350.667 346.333z"/>
<path style="fill:#ffffff; stroke:none;" d="M241 504L271 521C295.394 481.285 319.876 441.62 344.424 402C354.459 385.805 372.646 365.539 377 347C366.06 347 347.063 342.715 337.21 348.318C333.256 350.566 331.021 356.288 328.681 360C322.627 369.607 316.69 379.293 310.797 389C295.14 414.789 279.085 440.355 263.192 466C255.92 477.734 244.905 490.731 241 504z"/>
<path style="fill:#ba7b7b; stroke:none;" d="M355 346L355 347L359 347L355 346z"/>
<path style="fill:#b99d9d; stroke:none;" d="M363.667 346.333L364.333 346.667L363.667 346.333z"/>
<path style="fill:#e10707; stroke:none;" d="M365.667 346.333L366.333 346.667L365.667 346.333M336 347L336 348L339 348L336 347M377 347L351.811 389L297.576 477L271 521L241 504L267.576 460L314.424 384L336 348C317.651 348.152 298.212 355.647 282 363.753C210.888 399.309 175.396 483.072 197.141 559C203.629 581.653 216.168 611.913 236 626L355.424 421L396 351L377 347M435 351L436 352L435 351M432 356L433 357L432 356M429 363L308.989 569L262 650L283 662L298.576 634L333.576 574L450 374L429 363z"/>
<path style="fill:#ffffff; stroke:none;" d="M449 375C400.589 457.089 353.254 539.822 304.989 622C292.153 643.855 280.562 666.66 266.911 688C256.552 704.195 241.44 723.505 236 742L267 758C283.319 723.047 306.232 690.33 325.576 657C360.634 596.594 395.464 536.006 431.201 476C442.253 457.442 453.096 438.732 463.85 420C467.034 414.455 475.776 404.565 475.407 398C474.938 389.631 456.101 377.692 449 375z"/>
<path style="fill:#e10707; stroke:none;" d="M451 375L452 376L451 375M452 376L453 377L452 376M454 377L455 378L454 377M455 378L456 379L455 378M458 380L459 381L458 380M459 381L460 382L459 381M460 382L461 383L460 382M463 384L464 385L463 384M464 385L465 386L464 385M465 386L466 387L465 386M466 387L467 388L466 387M472 392L473 393L472 392M473 393L474 394L473 393M474 394L475 395L474 394M475 395L476 396L475 395M476 396L460.397 425L428.85 479L315 674L342 679L342 678L340 677C355.368 658.644 365.618 632.852 377.424 612C399.109 573.704 424.389 535.861 443 496L473 512C468.841 525.144 459.099 538.006 452.281 550L410.281 624C401.142 640.075 392.554 664.478 379 677L379 678C489.343 663.982 557.087 539.937 507.247 440C499.327 424.12 489.568 407.736 476 396z"/>
<path style="fill:#030101; stroke:none;" d="M657 449L657 510L670 510L670 466L671 466L681.319 495L686.995 508.397L694 510L711 465L712 465L712 510L724 510L724 449L705 449L690 487L676 449L657 449M733 497L763 497L763 510L775 510L775 497L784 497L784 486L775 486L775 449C770.151 449 762.814 447.618 758.326 449.603C754.038 451.5 751.155 458.267 748.667 462C740.866 473.702 733 482.56 733 497z"/>
<path style="fill:#e10707; stroke:none;" d="M762 459L745 486L763 486L762 459z"/>
<path style="fill:#ffffff; stroke:none;" d="M443 496L386.579 595L340 678C348.956 680.132 372.856 682.381 380.471 676.258C384.472 673.04 386.781 666.397 389.281 662L406.281 632L452.281 551C458.9 539.357 470.462 525.162 473 512L443 496z"/>
<path style="fill:#030101; stroke:none;" d="M657 562C646.66 577.98 681.349 580.829 687.682 567.996C693.432 556.345 682.199 550.605 673 548.115C670.294 547.382 662.849 545.487 664.921 541.213C668.083 534.689 678.289 540.389 682 543L683 543L688 537C679.216 526.78 651.113 527.54 654.232 546C656.336 558.454 671.104 553.56 677.458 560.651C680.893 564.485 675.396 567.637 671.999 567.851C666.344 568.208 661.594 564.763 657 562M756 530.44C725.469 535.308 733.686 580.176 764 575.699C793.646 571.32 785.378 525.755 756 530.44M696 531L696 575L705 575L705 559C711.23 559 719.27 560.329 724.957 557.312C734.338 552.334 733.55 538.27 724.985 533.009C717.625 528.489 704.363 531 696 531M790 531L790 575L799 575L799.001 567.998C799.01 566.707 798.89 565.292 799.148 564.019C802.113 549.393 812.884 572.074 815.634 573.972C818.308 575.817 822.917 575 826 575L817 558C827.22 554.494 829.604 539.206 819.956 533.228C812.257 528.458 798.738 531 790 531M831 531L831 539L844 539L844 575L854 575L854 539L867 539L867 531L831 531z"/>
<path style="fill:#e10707; stroke:none;" d="M756.001 538.65C738.639 543.827 745.46 573.183 763.999 567.347C780.619 562.116 773.603 533.401 756.001 538.65M705 539L705 551C709.292 551 715.944 552.218 719.721 549.821C723.588 547.367 722.545 542.096 718.89 540.028C715.165 537.919 709.143 539 705 539M799 539L799 551C803.181 551 808.973 552.024 812.891 550.397C817.193 548.61 817.797 542.645 813.772 540.179C809.91 537.813 803.355 539 799 539M237 628L238 629L237 628M238 629L239 630L238 629M239 630L240 631L239 630M240 631L241 632L240 631M372.667 678.333L373.333 678.667L372.667 678.333M298 701L299 702L298 701z"/>
</svg>
