<?xml version="1.0" standalone="yes"?>
<svg xmlns="http://www.w3.org/2000/svg" width="1024" height="1024">
<path style="fill:#f7b707; stroke:none;" d="M0 0L0 1024L1024 1024L1024 0L0 0z"/>
<path style="fill:#836002; stroke:none;" d="M393 299L393 300L402 300L393 299z"/>
<path style="fill:#443001; stroke:none;" d="M402 299L402 300L407 300L402 299z"/>
<path style="fill:#010101; stroke:none;" d="M257 616C234.647 579.004 222.097 540.695 225.09 497C231.01 410.548 307.817 331.175 396 329.015C426.536 328.267 455.994 332.485 484 345.309C495.972 350.79 507.533 357.664 518 365.654C523.869 370.135 529.992 377.9 537 380.4C547.412 384.115 563.949 381 575 381C561.711 360.91 541.227 344.618 521 331.95C406.94 260.515 249.285 315.234 206.355 444C192.152 486.6 191.456 534.328 205.667 577C208.994 586.992 213.624 608.68 222.637 614.972C229.302 619.625 248.909 616 257 616z"/>
<path style="fill:#443001; stroke:none;" d="M409 299L409 300L414 300L409 299z"/>
<path style="fill:#836002; stroke:none;" d="M414 299L414 300L422 300L414 299M383 300L383 301L386 301L383 300z"/>
<path style="fill:#443001; stroke:none;" d="M386 300L387 301L386 300M429 300L430 301L429 300z"/>
<path style="fill:#836002; stroke:none;" d="M430 300L430 301L433 301L430 300M375 301L375 302L378 302L375 301z"/>
<path style="fill:#443001; stroke:none;" d="M378 301L379 302L378 301M437 301L438 302L437 301z"/>
<path style="fill:#836002; stroke:none;" d="M438 301L438 302L441 302L438 301M370.667 302.333L371.333 302.667L370.667 302.333z"/>
<path style="fill:#443001; stroke:none;" d="M372 302L373 303L372 302M443 302L444 303L443 302z"/>
<path style="fill:#836002; stroke:none;" d="M444 302L444 303L447 303L444 302M364.667 303.333L365.333 303.667L364.667 303.333z"/>
<path style="fill:#443001; stroke:none;" d="M366 303L367 304L366 303M449 303L450 304L449 303z"/>
<path style="fill:#836002; stroke:none;" d="M450.667 303.333L451.333 303.667L450.667 303.333M360.667 304.333L361.333 304.667L360.667 304.333M454.667 304.333L455.333 304.667L454.667 304.333M355.667 305.333L356.333 305.667L355.667 305.333z"/>
<path style="fill:#443001; stroke:none;" d="M357 305L358 306L357 305M458 305L459 306L458 305z"/>
<path style="fill:#836002; stroke:none;" d="M459 305L460 306L459 305M352 306L353 307L352 306z"/>
<path style="fill:#443001; stroke:none;" d="M353 306L354 307L353 306M462 306L463 307L462 306z"/>
<path style="fill:#836002; stroke:none;" d="M463 306L464 307L463 306M348.667 307.333L349.333 307.667L348.667 307.333M466.667 307.333L467.333 307.667L466.667 307.333M345 308L346 309L345 308z"/>
<path style="fill:#443001; stroke:none;" d="M346 308L347 309L346 308M469 308L470 309L469 308z"/>
<path style="fill:#836002; stroke:none;" d="M470 308L471 309L470 308M342 309L343 310L342 309z"/>
<path style="fill:#443001; stroke:none;" d="M343 309L344 310L343 309M472 309L473 310L472 309z"/>
<path style="fill:#836002; stroke:none;" d="M473 309L474 310L473 309M339 310L340 311L339 310z"/>
<path style="fill:#443001; stroke:none;" d="M340 310L341 311L340 310M475 310L476 311L475 310z"/>
<path style="fill:#836002; stroke:none;" d="M476 310L477 311L476 310M336 311L337 312L336 311z"/>
<path style="fill:#443001; stroke:none;" d="M337 311L338 312L337 311M478 311L479 312L478 311z"/>
<path style="fill:#836002; stroke:none;" d="M479 311L480 312L479 311M333 312L334 313L333 312z"/>
<path style="fill:#443001; stroke:none;" d="M334 312L335 313L334 312z"/>
<path style="fill:#836002; stroke:none;" d="M481.667 312.333L482.333 312.667L481.667 312.333M331 313L332 314L331 313M484 313L485 314L484 313M328 314L329 315L328 314z"/>
<path style="fill:#443001; stroke:none;" d="M329 314L330 315L329 314M486 314L487 315L486 314z"/>
<path style="fill:#836002; stroke:none;" d="M487 314L488 315L487 314M326 315L327 316L326 315M489 315L490 316L489 315M323 316L324 317L323 316z"/>
<path style="fill:#443001; stroke:none;" d="M324 316L325 317L324 316M491 316L492 317L491 316z"/>
<path style="fill:#836002; stroke:none;" d="M492 316L493 317L492 316M321 317L322 318L321 317z"/>
<path style="fill:#443001; stroke:none;" d="M322 317L323 318L322 317M493 317L494 318L493 317z"/>
<path style="fill:#836002; stroke:none;" d="M494 317L495 318L494 317M319 318L320 319L319 318M496 318L497 319L496 318M317 319L318 320L317 319M498 319L499 320L498 319M315 320L316 321L315 320M500 320L501 321L500 320M313 321L314 322L313 321M502 321L503 322L502 321M311 322L312 323L311 322M504 322L505 323L504 322M309 323L310 324L309 323M506 323L507 324L506 323M307 324L308 325L307 324M508 324L509 325L508 324M305 325L306 326L305 325M510 325L511 326L510 325M303 326L304 327L303 326z"/>
<path style="fill:#443001; stroke:none;" d="M304 326L305 327L304 326M511 326L512 327L511 326z"/>
<path style="fill:#836002; stroke:none;" d="M512 326L513 327L512 326z"/>
<path style="fill:#443001; stroke:none;" d="M302 327L303 328L302 327M513 327L514 328L513 327z"/>
<path style="fill:#836002; stroke:none;" d="M300 328L301 329L300 328M515 328L516 329L515 328M298 329L299 330L298 329z"/>
<path style="fill:#443001; stroke:none;" d="M390.667 329.333L391.333 329.667L390.667 329.333z"/>
<path style="fill:#836002; stroke:none;" d="M392 329L392 330L397 330L392 329z"/>
<path style="fill:#f7b707; stroke:none;" d="M226 496L590 496L585 465L407 465L407 437L574 437C572.259 429.67 566.375 415.086 559.671 411.028C555.72 408.636 548.457 410 544 410L505 410L505 381L536 382C520.165 359.707 486.538 344.444 461 337.001C371.709 310.976 273.457 355.359 238.4 443C231.823 459.442 226.148 478.148 226 496z"/>
<path style="fill:#836002; stroke:none;" d="M418 329L418 330L424 330L418 329z"/>
<path style="fill:#443001; stroke:none;" d="M424.667 329.333L425.333 329.667L424.667 329.333z"/>
<path style="fill:#836002; stroke:none;" d="M517 329L518 330L517 329M296 330L297 331L296 330z"/>
<path style="fill:#443001; stroke:none;" d="M297 330L298 331L297 330M382 330L383 331L382 330z"/>
<path style="fill:#836002; stroke:none;" d="M383 330L383 331L386 331L383 330M430 330L430 331L433 331L430 330z"/>
<path style="fill:#443001; stroke:none;" d="M433 330L434 331L433 330M518 330L519 331L518 330z"/>
<path style="fill:#836002; stroke:none;" d="M295 331L296 332L295 331M376 331L376 332L379 332L376 331M437.667 331.333L438.333 331.667L437.667 331.333z"/>
<path style="fill:#443001; stroke:none;" d="M439 331L440 332L439 331z"/>
<path style="fill:#836002; stroke:none;" d="M520 331L521 332L520 331M293 332L294 333L293 332z"/>
<path style="fill:#443001; stroke:none;" d="M370 332L371 333L370 332z"/>
<path style="fill:#836002; stroke:none;" d="M371.667 332.333L372.333 332.667L371.667 332.333M443.667 332.333L444.333 332.667L443.667 332.333z"/>
<path style="fill:#443001; stroke:none;" d="M521 332L522 333L521 332z"/>
<path style="fill:#836002; stroke:none;" d="M522 332L523 333L522 332M292 333L293 334L292 333z"/>
<path style="fill:#443001; stroke:none;" d="M366 333L367 334L366 333z"/>
<path style="fill:#836002; stroke:none;" d="M367 333L368 334L367 333M447.667 333.333L448.333 333.667L447.667 333.333z"/>
<path style="fill:#443001; stroke:none;" d="M449 333L450 334L449 333z"/>
<path style="fill:#836002; stroke:none;" d="M523 333L524 334L523 333M290 334L291 335L290 334M362.667 334.333L363.333 334.667L362.667 334.333M452 334L453 335L452 334z"/>
<path style="fill:#443001; stroke:none;" d="M453 334L454 335L453 334z"/>
<path style="fill:#836002; stroke:none;" d="M525 334L526 335L525 334z"/>
<path style="fill:#443001; stroke:none;" d="M289 335L290 336L289 335M358 335L359 336L358 335z"/>
<path style="fill:#836002; stroke:none;" d="M359 335L360 336L359 335M455.667 335.333L456.333 335.667L455.667 335.333z"/>
<path style="fill:#443001; stroke:none;" d="M457 335L458 336L457 335M526 335L527 336L526 335z"/>
<path style="fill:#836002; stroke:none;" d="M287 336L288 337L287 336M355.667 336.333L356.333 336.667L355.667 336.333M459.667 336.333L460.333 336.667L459.667 336.333M528 336L529 337L528 336M286 337L287 338L286 337z"/>
<path style="fill:#443001; stroke:none;" d="M351 337L352 338L351 337z"/>
<path style="fill:#836002; stroke:none;" d="M352 337L353 338L352 337M462.667 337.333L463.333 337.667L462.667 337.333M529 337L530 338L529 337z"/>
<path style="fill:#443001; stroke:none;" d="M285 338L286 339L285 338M348 338L349 339L348 338z"/>
<path style="fill:#836002; stroke:none;" d="M349 338L350 339L349 338M466 338L467 339L466 338z"/>
<path style="fill:#443001; stroke:none;" d="M530 338L531 339L530 338z"/>
<path style="fill:#836002; stroke:none;" d="M283 339L284 340L283 339z"/>
<path style="fill:#443001; stroke:none;" d="M345 339L346 340L345 339z"/>
<path style="fill:#836002; stroke:none;" d="M346 339L347 340L346 339M468.667 339.333L469.333 339.667L468.667 339.333M532 339L533 340L532 339z"/>
<path style="fill:#443001; stroke:none;" d="M282 340L283 341L282 340z"/>
<path style="fill:#836002; stroke:none;" d="M343 340L344 341L343 340M471 340L472 341L471 340z"/>
<path style="fill:#443001; stroke:none;" d="M472 340L473 341L472 340M533 340L534 341L533 340z"/>
<path style="fill:#836002; stroke:none;" d="M280 341L281 342L280 341z"/>
<path style="fill:#443001; stroke:none;" d="M340 341L341 342L340 341z"/>
<path style="fill:#836002; stroke:none;" d="M341 341L342 342L341 341M474 341L475 342L474 341M535 341L536 342L535 341M279 342L280 343L279 342M338 342L339 343L338 342M476 342L477 343L476 342z"/>
<path style="fill:#443001; stroke:none;" d="M477 342L478 343L477 342z"/>
<path style="fill:#836002; stroke:none;" d="M536 342L537 343L536 342z"/>
<path style="fill:#443001; stroke:none;" d="M278 343L279 344L278 343M335 343L336 344L335 343z"/>
<path style="fill:#836002; stroke:none;" d="M336 343L337 344L336 343M479 343L480 344L479 343z"/>
<path style="fill:#443001; stroke:none;" d="M537 343L538 344L537 343M333 344L334 345L333 344z"/>
<path style="fill:#836002; stroke:none;" d="M334 344L335 345L334 344M481 344L482 345L481 344z"/>
<path style="fill:#443001; stroke:none;" d="M482 344L483 345L482 344z"/>
<path style="fill:#836002; stroke:none;" d="M539 344L540 345L539 344M275 345L276 346L275 345M331 345L332 346L331 345M483 345L484 346L483 345z"/>
<path style="fill:#443001; stroke:none;" d="M484 345L485 346L484 345z"/>
<path style="fill:#836002; stroke:none;" d="M540 345L541 346L540 345M274 346L275 347L274 346M329 346L330 347L329 346M486 346L487 347L486 346M541 346L542 347L541 346z"/>
<path style="fill:#443001; stroke:none;" d="M273 347L274 348L273 347z"/>
<path style="fill:#836002; stroke:none;" d="M327 347L328 348L327 347M488 347L489 348L488 347z"/>
<path style="fill:#443001; stroke:none;" d="M542 347L543 348L542 347z"/>
<path style="fill:#836002; stroke:none;" d="M325 348L326 349L325 348M490 348L491 349L490 348M270 349L271 350L270 349M323 349L324 350L323 349M492 349L493 350L492 349M545 349L546 350L545 349M269 350L270 351L269 350M321 350L322 351L321 350z"/>
<path style="fill:#443001; stroke:none;" d="M494 350L495 351L494 350z"/>
<path style="fill:#836002; stroke:none;" d="M546 350L547 351L546 350M268 351L269 352L268 351M319 351L320 352L319 351M495 351L496 352L495 351z"/>
<path style="fill:#443001; stroke:none;" d="M496 351L497 352L496 351z"/>
<path style="fill:#836002; stroke:none;" d="M547 351L548 352L547 351z"/>
<path style="fill:#443001; stroke:none;" d="M267 352L268 353L267 352M317 352L318 353L317 352z"/>
<path style="fill:#836002; stroke:none;" d="M497 352L498 353L497 352z"/>
<path style="fill:#443001; stroke:none;" d="M548 352L549 353L548 352M266 353L267 354L266 353M315 353L316 354L315 353z"/>
<path style="fill:#836002; stroke:none;" d="M316 353L317 354L316 353M499 353L500 354L499 353z"/>
<path style="fill:#443001; stroke:none;" d="M549 353L550 354L549 353M265 354L266 355L265 354z"/>
<path style="fill:#836002; stroke:none;" d="M314 354L315 355L314 354M501 354L502 355L501 354z"/>
<path style="fill:#443001; stroke:none;" d="M550 354L551 355L550 354z"/>
<path style="fill:#836002; stroke:none;" d="M312 355L313 356L312 355M502 355L503 356L502 355z"/>
<path style="fill:#443001; stroke:none;" d="M503 355L504 356L503 355z"/>
<path style="fill:#836002; stroke:none;" d="M262 356L263 357L262 356z"/>
<path style="fill:#443001; stroke:none;" d="M310 356L311 357L310 356z"/>
<path style="fill:#836002; stroke:none;" d="M311 356L312 357L311 356M504 356L505 357L504 356M261 357L262 358L261 357M309 357L310 358L309 357z"/>
<path style="fill:#443001; stroke:none;" d="M506 357L507 358L506 357z"/>
<path style="fill:#836002; stroke:none;" d="M554 357L555 358L554 357M260 358L261 359L260 358z"/>
<path style="fill:#443001; stroke:none;" d="M307 358L308 359L307 358z"/>
<path style="fill:#836002; stroke:none;" d="M308 358L309 359L308 358M507 358L508 359L507 358M555 358L556 359L555 358M259 359L260 360L259 359M306 359L307 360L306 359z"/>
<path style="fill:#443001; stroke:none;" d="M509 359L510 360L509 359z"/>
<path style="fill:#836002; stroke:none;" d="M556 359L557 360L556 359M258 360L259 361L258 360z"/>
<path style="fill:#443001; stroke:none;" d="M304 360L305 361L304 360z"/>
<path style="fill:#836002; stroke:none;" d="M510 360L511 361L510 360M557 360L558 361L557 360M257 361L258 362L257 361M303 361L304 362L303 361z"/>
<path style="fill:#443001; stroke:none;" d="M512 361L513 362L512 361z"/>
<path style="fill:#836002; stroke:none;" d="M558 361L559 362L558 361M256 362L257 363L256 362M302 362L303 363L302 362M513 362L514 363L513 362M559 362L560 363L559 362M255 363L256 364L255 363z"/>
<path style="fill:#443001; stroke:none;" d="M300 363L301 364L300 363M515 363L516 364L515 363z"/>
<path style="fill:#836002; stroke:none;" d="M560 363L561 364L560 363M254 364L255 365L254 364M299 364L300 365L299 364M516 364L517 365L516 364M561 364L562 365L561 364M253 365L254 366L253 365z"/>
<path style="fill:#443001; stroke:none;" d="M297 365L298 366L297 365z"/>
<path style="fill:#836002; stroke:none;" d="M517 365L518 366L517 365M296 366L297 367L296 366z"/>
<path style="fill:#443001; stroke:none;" d="M519 366L520 367L519 366z"/>
<path style="fill:#836002; stroke:none;" d="M295 367L296 368L295 367z"/>
<path style="fill:#443001; stroke:none;" d="M520 367L521 368L520 367z"/>
<path style="fill:#836002; stroke:none;" d="M294 368L295 369L294 368M521 368L522 369L521 368z"/>
<path style="fill:#443001; stroke:none;" d="M292 369L293 370L292 369z"/>
<path style="fill:#836002; stroke:none;" d="M522 369L523 370L522 369z"/>
<path style="fill:#443001; stroke:none;" d="M565 369L566 370L565 369M249 370L250 371L249 370z"/>
<path style="fill:#836002; stroke:none;" d="M291 370L292 371L291 370z"/>
<path style="fill:#443001; stroke:none;" d="M524 370L525 371L524 370M566 370L567 371L566 370M248 371L249 372L248 371z"/>
<path style="fill:#836002; stroke:none;" d="M290 371L291 372L290 371z"/>
<path style="fill:#443001; stroke:none;" d="M525 371L526 372L525 371M567 371L568 372L567 371z"/>
<path style="fill:#836002; stroke:none;" d="M247 372L248 373L247 372M289 372L290 373L289 372M526 372L527 373L526 372M568 372L569 373L568 372M246 373L247 374L246 373M527 373L528 374L527 373M569 373L570 374L569 373M245 374L246 375L245 374z"/>
<path style="fill:#443001; stroke:none;" d="M286 374L287 375L286 374z"/>
<path style="fill:#836002; stroke:none;" d="M528 374L529 375L528 374M570 374L571 375L570 374M244 375L245 376L244 375z"/>
<path style="fill:#443001; stroke:none;" d="M285 375L286 376L285 375z"/>
<path style="fill:#836002; stroke:none;" d="M284 376L285 377L284 376z"/>
<path style="fill:#443001; stroke:none;" d="M531 376L532 377L531 376M571 376L572 377L571 376M243 377L244 378L243 377z"/>
<path style="fill:#836002; stroke:none;" d="M283 377L284 378L283 377z"/>
<path style="fill:#443001; stroke:none;" d="M532 377L533 378L532 377M572 377L573 378L572 377z"/>
<path style="fill:#836002; stroke:none;" d="M242 378L243 379L242 378M282 378L283 379L282 378z"/>
<path style="fill:#443001; stroke:none;" d="M533 378L534 379L533 378z"/>
<path style="fill:#836002; stroke:none;" d="M573 378L574 379L573 378M241 379L242 380L241 379M281 379L282 380L281 379z"/>
<path style="fill:#443001; stroke:none;" d="M534 379L535 380L534 379z"/>
<path style="fill:#836002; stroke:none;" d="M574 379L575 380L574 379M240 380L241 381L240 380M280 380L281 381L280 380z"/>
<path style="fill:#443001; stroke:none;" d="M535 380L536 381L535 380z"/>
<path style="fill:#836002; stroke:none;" d="M279 381L280 382L279 381z"/>
<path style="fill:#ffffff; stroke:none;" d="M505 381L505 410L654 410L654 381L505 381z"/>
<path style="fill:#836002; stroke:none;" d="M536 381L537 382L536 381z"/>
<path style="fill:#443001; stroke:none;" d="M537 381L537 382L576 382C565.726 377.689 548.172 381 537 381M239 382L240 383L239 382z"/>
<path style="fill:#836002; stroke:none;" d="M278 382L279 383L278 382M238 383L239 384L238 383M277 383L278 384L277 383M237 384L238 385L237 384M276 384L277 385L276 384M275 385L276 386L275 385z"/>
<path style="fill:#443001; stroke:none;" d="M236 386L237 387L236 386z"/>
<path style="fill:#836002; stroke:none;" d="M274 386L275 387L274 386M235 387L236 388L235 387M273 387L274 388L273 387M234 388L235 389L234 388M272 388L273 389L272 388z"/>
<path style="fill:#443001; stroke:none;" d="M271 389L272 390L271 389z"/>
<path style="fill:#836002; stroke:none;" d="M233 390L234 391L233 390z"/>
<path style="fill:#443001; stroke:none;" d="M270 390L271 391L270 390z"/>
<path style="fill:#836002; stroke:none;" d="M232 391L233 392L232 391z"/>
<path style="fill:#443001; stroke:none;" d="M231 393L232 394L231 393z"/>
<path style="fill:#836002; stroke:none;" d="M268 393L269 394L268 393M230 394L231 395L230 394M267 394L268 395L267 394M266 395L267 396L266 395z"/>
<path style="fill:#443001; stroke:none;" d="M229 396L230 397L229 396M265 396L266 397L265 396z"/>
<path style="fill:#836002; stroke:none;" d="M228 397L229 398L228 397M227 399L228 400L227 399M263 399L264 400L263 399M226 400L227 401L226 400M262 400L263 401L262 400z"/>
<path style="fill:#443001; stroke:none;" d="M226 401L227 402L226 401M261 401L262 402L261 401z"/>
<path style="fill:#836002; stroke:none;" d="M225 402L226 403L225 402M260 403L261 404L260 403M224 404L225 405L224 404M259 404L260 405L259 404M223 405L224 406L223 405z"/>
<path style="fill:#443001; stroke:none;" d="M258 405L259 406L258 405M223 406L224 407L223 406z"/>
<path style="fill:#836002; stroke:none;" d="M258 406L259 407L258 406M222 407L223 408L222 407M257 407L258 408L257 407z"/>
<path style="fill:#443001; stroke:none;" d="M256 408L257 409L256 408z"/>
<path style="fill:#836002; stroke:none;" d="M221 409L222 410L221 409M559 409L559 410L595 410C585.44 405.989 569.387 409 559 409M255 410L256 411L255 410z"/>
<path style="fill:#443001; stroke:none;" d="M560 410L561 411L560 410z"/>
<path style="fill:#010101; stroke:none;" d="M561 410C565.684 422.375 573.859 433.527 578.796 446C588.478 470.458 592.107 496.812 590.961 523C586.494 625.013 493.759 699.286 395 694.961C366.713 693.722 336.902 683.455 313 668.575C302.452 662.008 291.399 648.667 280 644.599C269.588 640.885 253.051 644 242 644C255.211 666.859 281.569 684.59 304 697.421C419.477 763.476 570.526 701.727 610.656 576C623.704 535.121 623.715 488.872 610.656 448C607.66 438.622 602.704 416.289 593.787 411.028C586.486 406.72 569.409 410 561 410z"/>
<path style="fill:#443001; stroke:none;" d="M594 410L595 411L594 410z"/>
<path style="fill:#836002; stroke:none;" d="M220 411L221 412L220 411z"/>
<path style="fill:#443001; stroke:none;" d="M254 411L255 412L254 411z"/>
<path style="fill:#836002; stroke:none;" d="M595 411L596 412L595 411M561 412L562 413L561 412M219 413L220 414L219 413M253 413L254 414L253 413z"/>
<path style="fill:#443001; stroke:none;" d="M562 413L563 414L562 413z"/>
<path style="fill:#836002; stroke:none;" d="M596 413L597 414L596 413z"/>
<path style="fill:#443001; stroke:none;" d="M252 414L253 415L252 414M218 415L219 416L218 415z"/>
<path style="fill:#836002; stroke:none;" d="M252 415L253 416L252 415M563 415L564 416L563 415M597 415L598 416L597 415M251 416L252 417L251 416z"/>
<path style="fill:#443001; stroke:none;" d="M564 416L565 417L564 416M217 417L218 418L217 417z"/>
<path style="fill:#836002; stroke:none;" d="M564 417L565 418L564 417M598 417L599 418L598 417M250 418L251 419L250 418z"/>
<path style="fill:#443001; stroke:none;" d="M565 418L566 419L565 418M216 419L217 420L216 419M249 419L250 420L249 419z"/>
<path style="fill:#836002; stroke:none;" d="M599 419L600 420L599 419M249 420L250 421L249 420M566 420L567 421L566 420M215 421L216 422L215 421z"/>
<path style="fill:#443001; stroke:none;" d="M248 421L249 422L248 421z"/>
<path style="fill:#836002; stroke:none;" d="M600 421L601 422L600 421M567 422L568 423L567 422M214 423L215 424L214 423M247 423L248 424L247 423z"/>
<path style="fill:#443001; stroke:none;" d="M568 423L569 424L568 423z"/>
<path style="fill:#836002; stroke:none;" d="M601 423L602 424L601 423M568 424L569 425L568 424z"/>
<path style="fill:#443001; stroke:none;" d="M601 424L602 425L601 424z"/>
<path style="fill:#836002; stroke:none;" d="M213 425L214 426L213 425M246 425L247 426L246 425z"/>
<path style="fill:#443001; stroke:none;" d="M569 425L570 426L569 425z"/>
<path style="fill:#836002; stroke:none;" d="M602 425L603 426L602 425z"/>
<path style="fill:#443001; stroke:none;" d="M602 426L603 427L602 426z"/>
<path style="fill:#836002; stroke:none;" d="M212 427L213 428L212 427M245 427L246 428L245 427z"/>
<path style="fill:#443001; stroke:none;" d="M570 427L571 428L570 427M212 428L213 429L212 428z"/>
<path style="fill:#836002; stroke:none;" d="M603 428L604 429L603 428M211.333 429.667L211.667 430.333L211.333 429.667M244 429L245 430L244 429z"/>
<path style="fill:#443001; stroke:none;" d="M571 429L572 430L571 429M243 430L244 431L243 430z"/>
<path style="fill:#836002; stroke:none;" d="M604 430L605 431L604 430M243 431L244 432L243 431z"/>
<path style="fill:#443001; stroke:none;" d="M572 431L573 432L572 431z"/>
<path style="fill:#836002; stroke:none;" d="M210 432L211 433L210 432z"/>
<path style="fill:#443001; stroke:none;" d="M242 432L243 433L242 432z"/>
<path style="fill:#836002; stroke:none;" d="M605.333 432.667L605.667 433.333L605.333 432.667z"/>
<path style="fill:#443001; stroke:none;" d="M210 433L211 434L210 433z"/>
<path style="fill:#836002; stroke:none;" d="M242 433L243 434L242 433z"/>
<path style="fill:#443001; stroke:none;" d="M573 433L574 434L573 433z"/>
<path style="fill:#836002; stroke:none;" d="M573 434L574 435L573 434M209 435L210 436L209 435M241 435L242 436L241 435z"/>
<path style="fill:#443001; stroke:none;" d="M574 435L575 436L574 435z"/>
<path style="fill:#836002; stroke:none;" d="M606 435L607 436L606 435M574 436L575 437L574 436z"/>
<path style="fill:#443001; stroke:none;" d="M606 436L607 437L606 436z"/>
<path style="fill:#836002; stroke:none;" d="M208 437L209 438L208 437M240 437L241 438L240 437z"/>
<path style="fill:#ffffff; stroke:none;" d="M407 437L407 465L584 465C583.147 458.674 579.832 440.652 573.582 437.603C569.779 435.749 563.146 437 559 437L526 437L407 437z"/>
<path style="fill:#443001; stroke:none;" d="M208 438L209 439L208 438z"/>
<path style="fill:#836002; stroke:none;" d="M575 438L576 439L575 438M607 438L608 439L607 438z"/>
<path style="fill:#443001; stroke:none;" d="M239 439L240 440L239 439z"/>
<path style="fill:#836002; stroke:none;" d="M207 440L208 441L207 440M239 440L240 441L239 440M576 440L577 441L576 440M608 440L609 441L608 440z"/>
<path style="fill:#f7b707; stroke:none;" d="M576 441L577 442L576 441z"/>
<path style="fill:#443001; stroke:none;" d="M608 441L609 442L608 441z"/>
<path style="fill:#836002; stroke:none;" d="M238 442L239 443L238 442z"/>
<path style="fill:#443001; stroke:none;" d="M577 442L578 443L577 442z"/>
<path style="fill:#836002; stroke:none;" d="M206 443L207 444L206 443M577 443L578 444L577 443M609 443L610 444L609 443z"/>
<path style="fill:#443001; stroke:none;" d="M237 444L238 445L237 444M609 444L610 445L609 444z"/>
<path style="fill:#836002; stroke:none;" d="M237 445L238 446L237 445M578 445L579 446L578 445M205 446L206 447L205 446z"/>
<path style="fill:#f7b707; stroke:none;" d="M578 446L579 447L578 446z"/>
<path style="fill:#836002; stroke:none;" d="M610 446L611 447L610 446M236 447L237 448L236 447z"/>
<path style="fill:#443001; stroke:none;" d="M579 447L580 448L579 447M610 447L611 448L610 447z"/>
<path style="fill:#836002; stroke:none;" d="M579 448L580 449L579 448M204 449L205 450L204 449z"/>
<path style="fill:#443001; stroke:none;" d="M235 449L236 450L235 449z"/>
<path style="fill:#836002; stroke:none;" d="M611.333 449.667L611.667 450.333L611.333 449.667z"/>
<path style="fill:#443001; stroke:none;" d="M204 450L205 451L204 450z"/>
<path style="fill:#836002; stroke:none;" d="M235 450L236 451L235 450M580.333 450.667L580.667 451.333L580.333 450.667M203.333 452.667L203.667 453.333L203.333 452.667z"/>
<path style="fill:#443001; stroke:none;" d="M234 452L235 453L234 452z"/>
<path style="fill:#836002; stroke:none;" d="M234 453L235 454L234 453M581.333 453.667L581.667 454.333L581.333 453.667M612 453L613 454L612 453z"/>
<path style="fill:#443001; stroke:none;" d="M612 454L613 455L612 454M233 455L234 456L233 455z"/>
<path style="fill:#836002; stroke:none;" d="M202 456L203 457L202 456M233 456L234 457L233 456z"/>
<path style="fill:#443001; stroke:none;" d="M582 456L583 457L582 456z"/>
<path style="fill:#836002; stroke:none;" d="M613.333 456.667L613.667 457.333L613.333 456.667z"/>
<path style="fill:#443001; stroke:none;" d="M202 457L203 458L202 457z"/>
<path style="fill:#836002; stroke:none;" d="M582 457L583 458L582 457z"/>
<path style="fill:#443001; stroke:none;" d="M232 458L233 459L232 458z"/>
<path style="fill:#836002; stroke:none;" d="M201.333 459.667L201.667 460.333L201.333 459.667M232 459L233 460L232 459z"/>
<path style="fill:#443001; stroke:none;" d="M583 459L584 460L583 459z"/>
<path style="fill:#836002; stroke:none;" d="M583 460L584 461L583 460M614.333 460.667L614.667 461.333L614.333 460.667z"/>
<path style="fill:#443001; stroke:none;" d="M201 461L202 462L201 461z"/>
<path style="fill:#f7b707; stroke:none;" d="M583 461L584 462L583 461z"/>
<path style="fill:#836002; stroke:none;" d="M231.333 462.667L231.667 463.333L231.333 462.667M200.333 463.667L200.667 464.333L200.333 463.667M584.333 463.667L584.667 464.333L584.333 463.667M615.333 464.667L615.667 465.333L615.333 464.667z"/>
<path style="fill:#443001; stroke:none;" d="M200 465L201 466L200 465M230 465L231 466L230 465z"/>
<path style="fill:#836002; stroke:none;" d="M230.333 466.667L230.667 467.333L230.333 466.667z"/>
<path style="fill:#443001; stroke:none;" d="M585 466L586 467L585 466M615 466L616 467L615 466z"/>
<path style="fill:#836002; stroke:none;" d="M585.333 467.667L585.667 468.333L585.333 467.667M199.333 468.667L199.667 469.333L199.333 468.667z"/>
<path style="fill:#443001; stroke:none;" d="M229 469L230 470L229 469z"/>
<path style="fill:#836002; stroke:none;" d="M616.333 469.667L616.667 470.333L616.333 469.667z"/>
<path style="fill:#443001; stroke:none;" d="M199 470L200 471L199 470z"/>
<path style="fill:#836002; stroke:none;" d="M229.333 470.667L229.667 471.333L229.333 470.667M586.333 471.667L586.667 472.333L586.333 471.667z"/>
<path style="fill:#443001; stroke:none;" d="M616 471L617 472L616 471z"/>
<path style="fill:#836002; stroke:none;" d="M198.333 473.667L198.667 474.333L198.333 473.667z"/>
<path style="fill:#443001; stroke:none;" d="M228 474L229 475L228 474z"/>
<path style="fill:#836002; stroke:none;" d="M617.333 474.667L617.667 475.333L617.333 474.667z"/>
<path style="fill:#443001; stroke:none;" d="M198 475L199 476L198 475z"/>
<path style="fill:#836002; stroke:none;" d="M228.333 475.667L228.667 476.333L228.333 475.667z"/>
<path style="fill:#443001; stroke:none;" d="M587 475L588 476L587 475z"/>
<path style="fill:#836002; stroke:none;" d="M587.333 476.667L587.667 477.333L587.333 476.667z"/>
<path style="fill:#443001; stroke:none;" d="M617 476L618 477L617 476z"/>
<path style="fill:#836002; stroke:none;" d="M733 478L733 547L746.397 545.972L748 534L748 497L747 497L747 546L734 546L734 499L733 478z"/>
<path style="fill:#443001; stroke:none;" d="M734 478L734 479L754 480L734 478z"/>
<path style="fill:#836002; stroke:none;" d="M753 478L754 479L753 478M786 478L787 479L786 478z"/>
<path style="fill:#443001; stroke:none;" d="M786 479L786 480L806 479L786 479z"/>
<path style="fill:#836002; stroke:none;" d="M806 478L806 546L793 546L793 547L807 547L807 500L806 478M820 478L820 517L834 516L834 515L821 516C821 505.089 824.211 488.036 820 478z"/>
<path style="fill:#443001; stroke:none;" d="M821 478L821 479L863 479C852.012 474.389 832.957 478 821 478z"/>
<path style="fill:#836002; stroke:none;" d="M863 478L863 490L864 490L863 478M197.333 479.667L197.667 480.333L197.333 479.667z"/>
<path style="fill:#443001; stroke:none;" d="M227 479L228 480L227 479z"/>
<path style="fill:#010101; stroke:none;" d="M734 479L734 546L747 546L747 497L748 497L765 546L775 546L792 497L793 497L793 546L806 546L806 479L787.51 480.028L781.667 493L770 525L758.344 493L752.581 480.028L734 479M821 479L821 516C828.633 516 835.931 511.77 843 512.152C863.071 513.238 850.668 549.64 834.148 533.78C832.328 532.033 831.658 530.337 831 528L819 528C820.786 549.834 852.825 554.811 863.084 535.996C874.077 515.837 852.203 492.624 832 505L832 490L863 490L863 479L821 479z"/>
<path style="fill:#836002; stroke:none;" d="M227.333 480.667L227.667 481.333L227.333 480.667z"/>
<path style="fill:#443001; stroke:none;" d="M588 480L589 481L588 480z"/>
<path style="fill:#836002; stroke:none;" d="M618 480L618 483L619 483L618 480z"/>
<path style="fill:#443001; stroke:none;" d="M197 481L198 482L197 481z"/>
<path style="fill:#836002; stroke:none;" d="M588 481L588 484L589 484L588 481M754 481L755 482L754 481M785 481L786 482L785 481z"/>
<path style="fill:#443001; stroke:none;" d="M785 482L786 483L785 482M618 483L619 484L618 483z"/>
<path style="fill:#836002; stroke:none;" d="M755 484L756 485L755 484M784 484L785 485L784 484z"/>
<path style="fill:#443001; stroke:none;" d="M226 485L227 486L226 485M784 485L785 486L784 485z"/>
<path style="fill:#836002; stroke:none;" d="M196 486L196 489L197 489L196 486M226 486L226 489L227 489L226 486M756.333 486.667L756.667 487.333L756.333 486.667z"/>
<path style="fill:#443001; stroke:none;" d="M589 487L590 488L589 487z"/>
<path style="fill:#836002; stroke:none;" d="M783 487L784 488L783 487M589 488L589 491L590 491L589 488M619 488L619 491L620 491L619 488z"/>
<path style="fill:#443001; stroke:none;" d="M196 489L197 490L196 489z"/>
<path style="fill:#836002; stroke:none;" d="M757 489L758 490L757 489M782.333 489.667L782.667 490.333L782.333 489.667z"/>
<path style="fill:#443001; stroke:none;" d="M757 490L758 491L757 490M619.333 491.667L619.667 492.333L619.333 491.667z"/>
<path style="fill:#836002; stroke:none;" d="M758 492L759 493L758 492M781 492L782 493L781 492z"/>
<path style="fill:#443001; stroke:none;" d="M225.333 493.667L225.667 494.333L225.333 493.667M758 493L759 494L758 493M781 493L782 494L781 493z"/>
<path style="fill:#836002; stroke:none;" d="M225 495L225 499L226 499L225 495z"/>
<path style="fill:#443001; stroke:none;" d="M590.333 495.667L590.667 496.333L590.333 495.667z"/>
<path style="fill:#836002; stroke:none;" d="M759 495L760 496L759 495M780 495L781 496L780 495M195 496L195 503L196 503L195 496z"/>
<path style="fill:#ffffff; stroke:none;" d="M226 496L226 525L590 525L590 496L226 496z"/>
<path style="fill:#443001; stroke:none;" d="M759 496L760 497L759 496M780 496L781 497L780 496z"/>
<path style="fill:#836002; stroke:none;" d="M590 497L590 502L591 502L590 497M792 497L791 500L792 497z"/>
<path style="fill:#443001; stroke:none;" d="M748 498L749 499L748 498z"/>
<path style="fill:#836002; stroke:none;" d="M760 498L761 499L760 498M779 498L780 499L779 498z"/>
<path style="fill:#443001; stroke:none;" d="M791 498L792 499L791 498z"/>
<path style="fill:#f7b707; stroke:none;" d="M225 499L225 503L226 503L225 499z"/>
<path style="fill:#836002; stroke:none;" d="M620 499L620 510L621 510L620 499z"/>
<path style="fill:#443001; stroke:none;" d="M779 499L780 500L779 499z"/>
<path style="fill:#836002; stroke:none;" d="M761.333 500.667L761.667 501.333L761.333 500.667z"/>
<path style="fill:#443001; stroke:none;" d="M749 501L750 502L749 501z"/>
<path style="fill:#836002; stroke:none;" d="M778 501L779 502L778 501z"/>
<path style="fill:#443001; stroke:none;" d="M790 501L791 502L790 501z"/>
<path style="fill:#836002; stroke:none;" d="M839 501L839 502L847 502L839 501z"/>
<path style="fill:#f7b707; stroke:none;" d="M590 502L590 510L591 510L590 502z"/>
<path style="fill:#836002; stroke:none;" d="M749 502L750 503L749 502M790 502L791 503L790 502M835 502L836 503L835 502z"/>
<path style="fill:#443001; stroke:none;" d="M836 502L837 503L836 502M850 502L851 503L850 502z"/>
<path style="fill:#836002; stroke:none;" d="M851 502L852 503L851 502z"/>
<path style="fill:#443001; stroke:none;" d="M195 503L195 508L196 508L195 503z"/>
<path style="fill:#836002; stroke:none;" d="M762 503L763 504L762 503M777.333 503.667L777.667 504.333L777.333 503.667M833 503L834 504L833 503z"/>
<path style="fill:#443001; stroke:none;" d="M853 503L854 504L853 503z"/>
<path style="fill:#836002; stroke:none;" d="M854 503L855 504L854 503M750.333 504.667L750.667 505.333L750.333 504.667z"/>
<path style="fill:#443001; stroke:none;" d="M762 504L763 505L762 504M789 504L790 505L789 504M832 504L833 505L832 504M855 504L856 505L855 504z"/>
<path style="fill:#836002; stroke:none;" d="M856 504L857 505L856 504M789 505L790 506L789 505M857 505L858 506L857 505M763 506L764 507L763 506M776 506L777 507L776 506z"/>
<path style="fill:#443001; stroke:none;" d="M858 506L859 507L858 506z"/>
<path style="fill:#836002; stroke:none;" d="M751 507L752 508L751 507z"/>
<path style="fill:#443001; stroke:none;" d="M763 507L764 508L763 507M776 507L777 508L776 507z"/>
<path style="fill:#836002; stroke:none;" d="M788 507L789 508L788 507z"/>
<path style="fill:#443001; stroke:none;" d="M752 509L753 510L752 509z"/>
<path style="fill:#836002; stroke:none;" d="M764 509L765 510L764 509M775 509L776 510L775 509z"/>
<path style="fill:#443001; stroke:none;" d="M861 509L862 510L861 509M620 510L620 514L621 514L620 510z"/>
<path style="fill:#836002; stroke:none;" d="M752 510L753 511L752 510z"/>
<path style="fill:#443001; stroke:none;" d="M764 510L765 511L764 510M775 510L776 511L775 510z"/>
<path style="fill:#836002; stroke:none;" d="M787 510L788 511L787 510M862 510L863 511L862 510z"/>
<path style="fill:#443001; stroke:none;" d="M753 512L754 513L753 512z"/>
<path style="fill:#836002; stroke:none;" d="M765 512L766 513L765 512M774 512L775 513L774 512z"/>
<path style="fill:#443001; stroke:none;" d="M786 512L787 513L786 512z"/>
<path style="fill:#836002; stroke:none;" d="M838.667 512.333L839.333 512.667L838.667 512.333M845.667 512.333L846.333 512.667L845.667 512.333M863 512L864 513L863 512M753 513L754 514L753 513z"/>
<path style="fill:#443001; stroke:none;" d="M774 513L775 514L774 513z"/>
<path style="fill:#836002; stroke:none;" d="M786 513L787 514L786 513M836 513L837 514L836 513z"/>
<path style="fill:#443001; stroke:none;" d="M848 513L849 514L848 513z"/>
<path style="fill:#f7b707; stroke:none;" d="M590 514L590 522L591 522L590 514z"/>
<path style="fill:#836002; stroke:none;" d="M620 514L620 525L621 525L620 514z"/>
<path style="fill:#443001; stroke:none;" d="M834 514L835 515L834 514z"/>
<path style="fill:#836002; stroke:none;" d="M849 514L850 515L849 514M864 514L865 515L864 514z"/>
<path style="fill:#443001; stroke:none;" d="M754 515L755 516L754 515z"/>
<path style="fill:#836002; stroke:none;" d="M766 515L767 516L766 515M773 515L774 516L773 515z"/>
<path style="fill:#443001; stroke:none;" d="M785 515L786 516L785 515z"/>
<path style="fill:#836002; stroke:none;" d="M850 515L851 516L850 515z"/>
<path style="fill:#443001; stroke:none;" d="M195 516L195 521L196 521L195 516z"/>
<path style="fill:#836002; stroke:none;" d="M754 516L755 517L754 516M785 516L786 517L785 516z"/>
<path style="fill:#443001; stroke:none;" d="M851 516L852 517L851 516z"/>
<path style="fill:#836002; stroke:none;" d="M767.333 517.667L767.667 518.333L767.333 517.667M772.333 517.667L772.667 518.333L772.333 517.667M865.333 517.667L865.667 518.333L865.333 517.667M755 518L756 519L755 518M784.333 518.667L784.667 519.333L784.333 518.667z"/>
<path style="fill:#443001; stroke:none;" d="M852 518L853 519L852 518z"/>
<path style="fill:#836002; stroke:none;" d="M852 519L853 520L852 519z"/>
<path style="fill:#443001; stroke:none;" d="M865 519L866 520L865 519z"/>
<path style="fill:#836002; stroke:none;" d="M768 520L769 521L768 520M771 520L772 521L771 520M195 521L195 528L196 528L195 521z"/>
<path style="fill:#f7b707; stroke:none;" d="M225 521L225 524L226 524L225 521z"/>
<path style="fill:#836002; stroke:none;" d="M756 521L757 522L756 521z"/>
<path style="fill:#443001; stroke:none;" d="M768 521L769 522L768 521M771 521L772 522L771 521z"/>
<path style="fill:#836002; stroke:none;" d="M783 521L784 522L783 521z"/>
<path style="fill:#443001; stroke:none;" d="M853 521L854 522L853 521z"/>
<path style="fill:#836002; stroke:none;" d="M590 522L590 527L591 527L590 522M853 522L853 528L854 528L853 522z"/>
<path style="fill:#443001; stroke:none;" d="M757 523L758 524L757 523z"/>
<path style="fill:#836002; stroke:none;" d="M769.667 523.333L770.333 523.667L769.667 523.333M225 524L225 529L226 529L225 524M757 524L758 525L757 524z"/>
<path style="fill:#443001; stroke:none;" d="M769.667 524.333L770.333 524.667L769.667 524.333z"/>
<path style="fill:#836002; stroke:none;" d="M782 524L783 525L782 524z"/>
<path style="fill:#f7b707; stroke:none;" d="M226 525L230 556L408 556L408 584L240 584C242.993 592.79 249.394 609.817 257.518 614.972C261.517 617.51 269.432 616 274 616L315 616L315 644L282 644C297.625 665.724 331.046 680.12 356 687.291C448.046 713.741 549.779 664.328 580.667 572C585.668 557.051 589.956 540.863 590 525L226 525z"/>
<path style="fill:#443001; stroke:none;" d="M758 526L759 527L758 526M781 526L782 527L781 526M590 527L591 528L590 527z"/>
<path style="fill:#836002; stroke:none;" d="M758 527L759 528L758 527M781 527L782 528L781 527M819 527L819 528L830 528L819 527M818 528L819 529L818 528z"/>
<path style="fill:#443001; stroke:none;" d="M225.333 529.667L225.667 530.333L225.333 529.667z"/>
<path style="fill:#836002; stroke:none;" d="M759.333 529.667L759.667 530.333L759.333 529.667z"/>
<path style="fill:#443001; stroke:none;" d="M780 529L781 530L780 529M865 529L866 530L865 529z"/>
<path style="fill:#836002; stroke:none;" d="M780 530L781 531L780 530M831 530L832 531L831 530M852 530L853 531L852 530M865 530L866 531L865 530z"/>
<path style="fill:#443001; stroke:none;" d="M619.333 531.667L619.667 532.333L619.333 531.667M831 531L832 532L831 531M852 531L853 532L852 531z"/>
<path style="fill:#836002; stroke:none;" d="M760 532L761 533L760 532M779.333 532.667L779.667 533.333L779.333 532.667z"/>
<path style="fill:#443001; stroke:none;" d="M819 532L820 533L819 532z"/>
<path style="fill:#836002; stroke:none;" d="M832 532L833 533L832 532M851 532L852 533L851 532z"/>
<path style="fill:#443001; stroke:none;" d="M196.333 533.667L196.667 534.333L196.333 533.667z"/>
<path style="fill:#836002; stroke:none;" d="M589 533L589 536L590 536L589 533M619 533L619 536L620 536L619 533M819.333 533.667L819.667 534.333L819.333 533.667M833 533L834 534L833 533M864 533L865 534L864 533M226 534L226 538L227 538L226 534M834 534L835 535L834 534z"/>
<path style="fill:#443001; stroke:none;" d="M850 534L851 535L850 534z"/>
<path style="fill:#836002; stroke:none;" d="M196 535L196 538L197 538L196 535M761 535L762 536L761 535M778 535L779 536L778 535z"/>
<path style="fill:#443001; stroke:none;" d="M835 535L836 536L835 535z"/>
<path style="fill:#836002; stroke:none;" d="M848 535L849 536L848 535z"/>
<path style="fill:#443001; stroke:none;" d="M849 535L850 536L849 535M863 535L864 536L863 535M589 536L590 537L589 536z"/>
<path style="fill:#836002; stroke:none;" d="M820 536L821 537L820 536M837 536L838 537L837 536M847 536L848 537L847 536z"/>
<path style="fill:#443001; stroke:none;" d="M762 537L763 538L762 537z"/>
<path style="fill:#836002; stroke:none;" d="M840 537L840 538L845 538L840 537z"/>
<path style="fill:#443001; stroke:none;" d="M845 537L846 538L845 537z"/>
<path style="fill:#836002; stroke:none;" d="M862 537L863 538L862 537z"/>
<path style="fill:#443001; stroke:none;" d="M226 538L227 539L226 538z"/>
<path style="fill:#836002; stroke:none;" d="M762 538L763 539L762 538M777 538L778 539L777 538M821 538L822 539L821 538z"/>
<path style="fill:#443001; stroke:none;" d="M861 538L862 539L861 538M822 539L823 540L822 539z"/>
<path style="fill:#836002; stroke:none;" d="M588 540L588 543L589 543L588 540z"/>
<path style="fill:#443001; stroke:none;" d="M618 540L619 541L618 540M763 540L764 541L763 540M776 540L777 541L776 540M823 540L824 541L823 540z"/>
<path style="fill:#836002; stroke:none;" d="M227 541L227 544L228 544L227 541M618 541L618 544L619 544L618 541M763 541L764 542L763 541M776 541L777 542L776 541z"/>
<path style="fill:#443001; stroke:none;" d="M824 541L825 542L824 541M197 542L198 543L197 542M825 542L826 543L825 542M857 542L858 543L857 542z"/>
<path style="fill:#836002; stroke:none;" d="M197.333 543.667L197.667 544.333L197.333 543.667z"/>
<path style="fill:#443001; stroke:none;" d="M588 543L589 544L588 543z"/>
<path style="fill:#836002; stroke:none;" d="M764.333 543.667L764.667 544.333L764.333 543.667z"/>
<path style="fill:#443001; stroke:none;" d="M775 543L776 544L775 543z"/>
<path style="fill:#836002; stroke:none;" d="M826 543L827 544L826 543M856 543L857 544L856 543z"/>
<path style="fill:#443001; stroke:none;" d="M227 544L228 545L227 544z"/>
<path style="fill:#836002; stroke:none;" d="M775 544L776 545L775 544z"/>
<path style="fill:#443001; stroke:none;" d="M828 544L829 545L828 544M854 544L855 545L854 544z"/>
<path style="fill:#836002; stroke:none;" d="M855 544L856 545L855 544M830 545L831 546L830 545z"/>
<path style="fill:#443001; stroke:none;" d="M852 545L853 546L852 545z"/>
<path style="fill:#836002; stroke:none;" d="M853 545L854 546L853 545M587.333 546.667L587.667 547.333L587.333 546.667M765 546L765 547L775 547L765 546M832.667 546.333L833.333 546.667L832.667 546.333M850 546L851 547L850 546M228.333 547.667L228.667 548.333L228.333 547.667M617 547L617 550L618 550L617 547M836 547L836 548L839 548L836 547z"/>
<path style="fill:#443001; stroke:none;" d="M839.667 547.333L840.333 547.667L839.667 547.333M845 547L846 548L845 547z"/>
<path style="fill:#836002; stroke:none;" d="M846.667 547.333L847.333 547.667L846.667 547.333z"/>
<path style="fill:#443001; stroke:none;" d="M198 548L199 549L198 548M587 548L588 549L587 548z"/>
<path style="fill:#836002; stroke:none;" d="M198.333 549.667L198.667 550.333L198.333 549.667z"/>
<path style="fill:#443001; stroke:none;" d="M228 549L229 550L228 549z"/>
<path style="fill:#836002; stroke:none;" d="M586.333 551.667L586.667 552.333L586.333 551.667M229.333 552.667L229.667 553.333L229.333 552.667z"/>
<path style="fill:#443001; stroke:none;" d="M616 552L617 553L616 552M199 553L200 554L199 553z"/>
<path style="fill:#836002; stroke:none;" d="M616.333 553.667L616.667 554.333L616.333 553.667M199.333 554.667L199.667 555.333L199.333 554.667M585.333 555.667L585.667 556.333L585.333 555.667M230.333 556.667L230.667 557.333L230.333 556.667z"/>
<path style="fill:#ffffff; stroke:none;" d="M231 556C231.848 562.292 234.958 580.505 241.275 583.397C245.226 585.205 251.733 584 256 584L290 584L408 584L408 556L231 556z"/>
<path style="fill:#443001; stroke:none;" d="M585 557L586 558L585 557M615 557L616 558L615 557M200 558L201 559L200 558z"/>
<path style="fill:#836002; stroke:none;" d="M615.333 558.667L615.667 559.333L615.333 558.667M200 559L201 560L200 559z"/>
<path style="fill:#f7b707; stroke:none;" d="M231 559L232 560L231 559z"/>
<path style="fill:#836002; stroke:none;" d="M584.333 559.667L584.667 560.333L584.333 559.667M231 560L232 561L231 560z"/>
<path style="fill:#443001; stroke:none;" d="M231 561L232 562L231 561M201 562L202 563L201 562z"/>
<path style="fill:#836002; stroke:none;" d="M614.333 562.667L614.667 563.333L614.333 562.667M201.333 563.667L201.667 564.333L201.333 563.667z"/>
<path style="fill:#f7b707; stroke:none;" d="M232 563L233 564L232 563z"/>
<path style="fill:#836002; stroke:none;" d="M583 563L584 564L583 563M232 564L233 565L232 564z"/>
<path style="fill:#443001; stroke:none;" d="M583 564L584 565L583 564M232 565L233 566L232 565M613 565L614 566L613 565M202 566L203 567L202 566z"/>
<path style="fill:#f7b707; stroke:none;" d="M233 566L234 567L233 566z"/>
<path style="fill:#836002; stroke:none;" d="M582 566L583 567L582 566M613.333 566.667L613.667 567.333L613.333 566.667M202 567L203 568L202 567M233 567L234 568L233 567z"/>
<path style="fill:#443001; stroke:none;" d="M582 567L583 568L582 567M233 568L234 569L233 568z"/>
<path style="fill:#f7b707; stroke:none;" d="M234 569L235 570L234 569z"/>
<path style="fill:#836002; stroke:none;" d="M581 569L582 570L581 569z"/>
<path style="fill:#443001; stroke:none;" d="M612 569L613 570L612 569z"/>
<path style="fill:#836002; stroke:none;" d="M203.333 570.667L203.667 571.333L203.333 570.667M234 570L235 571L234 570z"/>
<path style="fill:#443001; stroke:none;" d="M581 570L582 571L581 570z"/>
<path style="fill:#836002; stroke:none;" d="M612 570L613 571L612 570z"/>
<path style="fill:#443001; stroke:none;" d="M234 571L235 572L234 571z"/>
<path style="fill:#f7b707; stroke:none;" d="M235 572L236 573L235 572z"/>
<path style="fill:#836002; stroke:none;" d="M580 572L581 573L580 572z"/>
<path style="fill:#443001; stroke:none;" d="M204 573L205 574L204 573z"/>
<path style="fill:#836002; stroke:none;" d="M235 573L236 574L235 573z"/>
<path style="fill:#443001; stroke:none;" d="M580 573L581 574L580 573z"/>
<path style="fill:#836002; stroke:none;" d="M611.333 573.667L611.667 574.333L611.333 573.667M204 574L205 575L204 574z"/>
<path style="fill:#443001; stroke:none;" d="M235 574L236 575L235 574z"/>
<path style="fill:#f7b707; stroke:none;" d="M236 575L237 576L236 575z"/>
<path style="fill:#836002; stroke:none;" d="M579 575L580 576L579 575z"/>
<path style="fill:#443001; stroke:none;" d="M205 576L206 577L205 576z"/>
<path style="fill:#836002; stroke:none;" d="M236 576L237 577L236 576z"/>
<path style="fill:#443001; stroke:none;" d="M579 576L580 577L579 576z"/>
<path style="fill:#836002; stroke:none;" d="M610.333 576.667L610.667 577.333L610.333 576.667M205 577L206 578L205 577M237 578L238 579L237 578M578 578L579 579L578 578z"/>
<path style="fill:#443001; stroke:none;" d="M206 579L207 580L206 579M237 579L238 580L237 579M609 579L610 580L609 579z"/>
<path style="fill:#836002; stroke:none;" d="M206 580L207 581L206 580z"/>
<path style="fill:#f7b707; stroke:none;" d="M238 580L239 581L238 580z"/>
<path style="fill:#836002; stroke:none;" d="M577 580L578 581L577 580M609 580L610 581L609 580M238 581L239 582L238 581z"/>
<path style="fill:#443001; stroke:none;" d="M577 581L578 582L577 581M207 582L208 583L207 582M608 582L609 583L608 582z"/>
<path style="fill:#836002; stroke:none;" d="M207 583L208 584L207 583M239 583L240 584L239 583M576 583L577 584L576 583M608 583L609 584L608 583z"/>
<path style="fill:#443001; stroke:none;" d="M239 584L240 585L239 584M208 585L209 586L208 585z"/>
<path style="fill:#836002; stroke:none;" d="M240 585L241 586L240 585M575 585L576 586L575 585M607 585L608 586L607 585M208 586L209 587L208 586z"/>
<path style="fill:#443001; stroke:none;" d="M240 586L241 587L240 586z"/>
<path style="fill:#836002; stroke:none;" d="M574 587L575 588L574 587z"/>
<path style="fill:#443001; stroke:none;" d="M606 587L607 588L606 587z"/>
<path style="fill:#836002; stroke:none;" d="M209 588L210 589L209 588M241 588L242 589L241 588z"/>
<path style="fill:#443001; stroke:none;" d="M574 588L575 589L574 588z"/>
<path style="fill:#836002; stroke:none;" d="M606 588L607 589L606 588M573 589L574 590L573 589z"/>
<path style="fill:#443001; stroke:none;" d="M210 590L211 591L210 590z"/>
<path style="fill:#836002; stroke:none;" d="M242 590L243 591L242 590z"/>
<path style="fill:#443001; stroke:none;" d="M573 590L574 591L573 590z"/>
<path style="fill:#836002; stroke:none;" d="M605.333 590.667L605.667 591.333L605.333 590.667M210 591L211 592L210 591M243 592L244 593L243 592z"/>
<path style="fill:#443001; stroke:none;" d="M572 592L573 593L572 592M211 593L212 594L211 593z"/>
<path style="fill:#836002; stroke:none;" d="M604 593L605 594L604 593M244 594L245 595L244 594z"/>
<path style="fill:#443001; stroke:none;" d="M571 594L572 595L571 594M212 595L213 596L212 595z"/>
<path style="fill:#836002; stroke:none;" d="M603 595L604 596L603 595M212 596L213 597L212 596M245 596L246 597L245 596z"/>
<path style="fill:#443001; stroke:none;" d="M570 596L571 597L570 596z"/>
<path style="fill:#836002; stroke:none;" d="M569 597L570 598L569 597z"/>
<path style="fill:#443001; stroke:none;" d="M602 597L603 598L602 597z"/>
<path style="fill:#836002; stroke:none;" d="M213 598L214 599L213 598M246 598L247 599L246 598z"/>
<path style="fill:#443001; stroke:none;" d="M569 598L570 599L569 598z"/>
<path style="fill:#836002; stroke:none;" d="M602 598L603 599L602 598M568 599L569 600L568 599z"/>
<path style="fill:#443001; stroke:none;" d="M601 599L602 600L601 599z"/>
<path style="fill:#836002; stroke:none;" d="M214 600L215 601L214 600z"/>
<path style="fill:#443001; stroke:none;" d="M247 600L248 601L247 600M568 600L569 601L568 600z"/>
<path style="fill:#836002; stroke:none;" d="M601 600L602 601L601 600M248 601L249 602L248 601M567 601L568 602L567 601z"/>
<path style="fill:#443001; stroke:none;" d="M215 602L216 603L215 602M248 602L249 603L248 602z"/>
<path style="fill:#836002; stroke:none;" d="M600 602L601 603L600 602M249 603L250 604L249 603M566 603L567 604L566 603z"/>
<path style="fill:#443001; stroke:none;" d="M216 604L217 605L216 604z"/>
<path style="fill:#836002; stroke:none;" d="M599 604L600 605L599 604M250 605L251 606L250 605z"/>
<path style="fill:#443001; stroke:none;" d="M565 605L566 606L565 605M217 606L218 607L217 606z"/>
<path style="fill:#836002; stroke:none;" d="M564 606L565 607L564 606M598 606L599 607L598 606z"/>
<path style="fill:#443001; stroke:none;" d="M251 607L252 608L251 607M564 607L565 608L564 607M218 608L219 609L218 608z"/>
<path style="fill:#836002; stroke:none;" d="M252 608L253 609L252 608M563 608L564 609L563 608M597 608L598 609L597 608z"/>
<path style="fill:#443001; stroke:none;" d="M219 610L220 611L219 610z"/>
<path style="fill:#836002; stroke:none;" d="M253 610L254 611L253 610z"/>
<path style="fill:#443001; stroke:none;" d="M562 610L563 611L562 610z"/>
<path style="fill:#836002; stroke:none;" d="M596 610L597 611L596 610M254 611L255 612L254 611M561 611L562 612L561 611M220 612L221 613L220 612z"/>
<path style="fill:#443001; stroke:none;" d="M254 612L255 613L254 612z"/>
<path style="fill:#836002; stroke:none;" d="M595 612L596 613L595 612M255 613L256 614L255 613z"/>
<path style="fill:#443001; stroke:none;" d="M560 613L561 614L560 613M594 613L595 614L594 613z"/>
<path style="fill:#836002; stroke:none;" d="M221 614L222 615L221 614M256 614L257 615L256 614M559 614L560 615L559 614M594 614L595 615L594 614z"/>
<path style="fill:#443001; stroke:none;" d="M593 615L594 616L593 615z"/>
<path style="fill:#ffffff; stroke:none;" d="M157 616L157 644L315 644L315 616L157 616z"/>
<path style="fill:#f7b707; stroke:none;" d="M222 616L223 617L222 616z"/>
<path style="fill:#836002; stroke:none;" d="M223 616L223 617L258 617L223 616z"/>
<path style="fill:#443001; stroke:none;" d="M558 616L559 617L558 616z"/>
<path style="fill:#836002; stroke:none;" d="M557 617L558 618L557 617M592 617L593 618L592 617M556 618L557 619L556 618z"/>
<path style="fill:#443001; stroke:none;" d="M556 619L557 620L556 619z"/>
<path style="fill:#836002; stroke:none;" d="M591 619L592 620L591 619M555 620L556 621L555 620M554 621L555 622L554 621M590 621L591 622L590 621z"/>
<path style="fill:#443001; stroke:none;" d="M589 622L590 623L589 622M553 623L554 624L553 623M552 624L553 625L552 624z"/>
<path style="fill:#836002; stroke:none;" d="M588 624L589 625L588 624M551 625L552 626L551 625z"/>
<path style="fill:#443001; stroke:none;" d="M587 625L588 626L587 625z"/>
<path style="fill:#836002; stroke:none;" d="M550 626L551 627L550 626M586 627L587 628L586 627z"/>
<path style="fill:#443001; stroke:none;" d="M549 628L550 629L549 628M548 629L549 630L548 629z"/>
<path style="fill:#836002; stroke:none;" d="M585 629L586 630L585 629M547 630L548 631L547 630M584 630L585 631L584 630M546 631L547 632L546 631M545 632L546 633L545 632M583 632L584 633L583 632M544 633L545 634L544 633M582 633L583 634L582 633z"/>
<path style="fill:#443001; stroke:none;" d="M581 634L582 635L581 634M543 635L544 636L543 635M542 636L543 637L542 636z"/>
<path style="fill:#836002; stroke:none;" d="M580 636L581 637L580 636z"/>
<path style="fill:#443001; stroke:none;" d="M541 637L542 638L541 637M579 637L580 638L579 637M540 638L541 639L540 638M539 639L540 640L539 639z"/>
<path style="fill:#836002; stroke:none;" d="M578 639L579 640L578 639z"/>
<path style="fill:#443001; stroke:none;" d="M538 640L539 641L538 640z"/>
<path style="fill:#836002; stroke:none;" d="M577 640L578 641L577 640M537 641L538 642L537 641z"/>
<path style="fill:#443001; stroke:none;" d="M576 641L577 642L576 641M536 642L537 643L536 642M575 642L576 643L575 642M535 643L536 644L535 643z"/>
<path style="fill:#836002; stroke:none;" d="M241 644L242 645L241 644M281 644L282 645L281 644z"/>
<path style="fill:#443001; stroke:none;" d="M534 644L535 645L534 644z"/>
<path style="fill:#836002; stroke:none;" d="M574 644L575 645L574 644z"/>
<path style="fill:#443001; stroke:none;" d="M242 645L243 646L242 645M282 645L283 646L282 645M533 645L534 646L533 645z"/>
<path style="fill:#836002; stroke:none;" d="M573 645L574 646L573 645z"/>
<path style="fill:#443001; stroke:none;" d="M243 646L244 647L243 646M283 646L284 647L283 646M532 646L533 647L532 646M572 646L573 647L572 646M284 647L285 648L284 647M531 647L532 648L531 647M571 647L572 648L571 647z"/>
<path style="fill:#836002; stroke:none;" d="M244 648L245 649L244 648z"/>
<path style="fill:#443001; stroke:none;" d="M285 648L286 649L285 648z"/>
<path style="fill:#836002; stroke:none;" d="M245 649L246 650L245 649M528 649L529 650L528 649M570 649L571 650L570 649M246 650L247 651L246 650M288 650L289 651L288 650M527 650L528 651L527 650M569 650L570 651L569 650M247 651L248 652L247 651M289 651L290 652L289 651M526 651L527 652L526 651M568 651L569 652L568 651z"/>
<path style="fill:#443001; stroke:none;" d="M248 652L249 653L248 652z"/>
<path style="fill:#836002; stroke:none;" d="M290 652L291 653L290 652z"/>
<path style="fill:#443001; stroke:none;" d="M525 652L526 653L525 652z"/>
<path style="fill:#836002; stroke:none;" d="M567 652L568 653L567 652z"/>
<path style="fill:#443001; stroke:none;" d="M249 653L250 654L249 653M291 653L292 654L291 653M524 653L525 654L524 653M566 653L567 654L566 653M292 654L293 655L292 654z"/>
<path style="fill:#836002; stroke:none;" d="M522 654L523 655L522 654z"/>
<path style="fill:#443001; stroke:none;" d="M565 654L566 655L565 654z"/>
<path style="fill:#836002; stroke:none;" d="M294 655L295 656L294 655M521 655L522 656L521 655M251 656L252 657L251 656M295 656L296 657L295 656z"/>
<path style="fill:#443001; stroke:none;" d="M520 656L521 657L520 656z"/>
<path style="fill:#836002; stroke:none;" d="M252 657L253 658L252 657z"/>
<path style="fill:#443001; stroke:none;" d="M296 657L297 658L296 657M519 657L520 658L519 657z"/>
<path style="fill:#836002; stroke:none;" d="M253 658L254 659L253 658M298 658L299 659L298 658M517 658L518 659L517 658M562 658L563 659L562 658M254 659L255 660L254 659M299 659L300 660L299 659M516 659L517 660L516 659M561 659L562 660L561 659M255 660L256 661L255 660z"/>
<path style="fill:#443001; stroke:none;" d="M300 660L301 661L300 660M515 660L516 661L515 660z"/>
<path style="fill:#836002; stroke:none;" d="M560 660L561 661L560 660M256 661L257 662L256 661M302 661L303 662L302 661M513 661L514 662L513 661M559 661L560 662L559 661M257 662L258 663L257 662z"/>
<path style="fill:#443001; stroke:none;" d="M303 662L304 663L303 662M512 662L513 663L512 662z"/>
<path style="fill:#836002; stroke:none;" d="M558 662L559 663L558 662M258 663L259 664L258 663M305 663L306 664L305 663M510 663L511 664L510 663M557 663L558 664L557 663M259 664L260 665L259 664M306 664L307 665L306 664z"/>
<path style="fill:#443001; stroke:none;" d="M509 664L510 665L509 664z"/>
<path style="fill:#836002; stroke:none;" d="M556 664L557 665L556 664M260 665L261 666L260 665M308 665L309 666L308 665M507 665L508 666L507 665M555 665L556 666L555 665M261 666L262 667L261 666z"/>
<path style="fill:#443001; stroke:none;" d="M309 666L310 667L309 666M506 666L507 667L506 666z"/>
<path style="fill:#836002; stroke:none;" d="M262 667L263 668L262 667M311 667L312 668L311 667M504 667L505 668L504 667M263 668L264 669L263 668z"/>
<path style="fill:#443001; stroke:none;" d="M312 668L313 669L312 668z"/>
<path style="fill:#836002; stroke:none;" d="M502 668L503 669L502 668z"/>
<path style="fill:#443001; stroke:none;" d="M503 668L504 669L503 668M551 668L552 669L551 668z"/>
<path style="fill:#836002; stroke:none;" d="M264 669L265 670L264 669M314 669L315 670L314 669z"/>
<path style="fill:#443001; stroke:none;" d="M501 669L502 670L501 669M550 669L551 670L550 669M266 670L267 671L266 670z"/>
<path style="fill:#836002; stroke:none;" d="M316 670L317 671L316 670M499 670L500 671L499 670z"/>
<path style="fill:#443001; stroke:none;" d="M549 670L550 671L549 670M267 671L268 672L267 671M317 671L318 672L317 671z"/>
<path style="fill:#836002; stroke:none;" d="M318 671L319 672L318 671M497 671L498 672L497 671M548 671L549 672L548 671M268 672L269 673L268 672z"/>
<path style="fill:#443001; stroke:none;" d="M319 672L320 673L319 672z"/>
<path style="fill:#836002; stroke:none;" d="M495 672L496 673L495 672z"/>
<path style="fill:#443001; stroke:none;" d="M496 672L497 673L496 672z"/>
<path style="fill:#836002; stroke:none;" d="M547 672L548 673L547 672M269 673L270 674L269 673M321 673L322 674L321 673z"/>
<path style="fill:#443001; stroke:none;" d="M494 673L495 674L494 673z"/>
<path style="fill:#836002; stroke:none;" d="M546 673L547 674L546 673M270 674L271 675L270 674M323 674L324 675L323 674M492 674L493 675L492 674M545 674L546 675L545 674M271 675L272 676L271 675M325 675L326 676L325 675M490 675L491 676L490 675z"/>
<path style="fill:#443001; stroke:none;" d="M273 676L274 677L273 676z"/>
<path style="fill:#836002; stroke:none;" d="M327 676L328 677L327 676z"/>
<path style="fill:#443001; stroke:none;" d="M488 676L489 677L488 676M542 676L543 677L542 676M274 677L275 678L274 677z"/>
<path style="fill:#836002; stroke:none;" d="M329 677L330 678L329 677z"/>
<path style="fill:#443001; stroke:none;" d="M486 677L487 678L486 677z"/>
<path style="fill:#836002; stroke:none;" d="M541 677L542 678L541 677M275 678L276 679L275 678z"/>
<path style="fill:#443001; stroke:none;" d="M331 678L332 679L331 678z"/>
<path style="fill:#836002; stroke:none;" d="M332 678L333 679L332 678M483 678L484 679L483 678z"/>
<path style="fill:#443001; stroke:none;" d="M484 678L485 679L484 678z"/>
<path style="fill:#836002; stroke:none;" d="M540 678L541 679L540 678M276 679L277 680L276 679z"/>
<path style="fill:#443001; stroke:none;" d="M333 679L334 680L333 679z"/>
<path style="fill:#836002; stroke:none;" d="M334 679L335 680L334 679M481 679L482 680L481 679z"/>
<path style="fill:#443001; stroke:none;" d="M482 679L483 680L482 679M538 679L539 680L538 679M278 680L279 681L278 680z"/>
<path style="fill:#836002; stroke:none;" d="M336 680L337 681L336 680M479 680L480 681L479 680z"/>
<path style="fill:#443001; stroke:none;" d="M537 680L538 681L537 680z"/>
<path style="fill:#836002; stroke:none;" d="M279 681L280 682L279 681M338.667 681.333L339.333 681.667L338.667 681.333M476 681L477 682L476 681z"/>
<path style="fill:#443001; stroke:none;" d="M477 681L478 682L477 681z"/>
<path style="fill:#836002; stroke:none;" d="M536 681L537 682L536 681M280 682L281 683L280 682z"/>
<path style="fill:#443001; stroke:none;" d="M340 682L341 683L340 682z"/>
<path style="fill:#836002; stroke:none;" d="M341 682L342 683L341 682M474 682L475 683L474 682M535 682L536 683L535 682z"/>
<path style="fill:#443001; stroke:none;" d="M282 683L283 684L282 683M343 683L344 684L343 683z"/>
<path style="fill:#836002; stroke:none;" d="M344 683L345 684L344 683M471 683L472 684L471 683z"/>
<path style="fill:#443001; stroke:none;" d="M472 683L473 684L472 683M533 683L534 684L533 683z"/>
<path style="fill:#836002; stroke:none;" d="M283 684L284 685L283 684M346 684L347 685L346 684M468.667 684.333L469.333 684.667L468.667 684.333M532 684L533 685L532 684M284 685L285 686L284 685M349 685L350 686L349 685M466 685L467 686L466 685z"/>
<path style="fill:#443001; stroke:none;" d="M530 685L531 686L530 685z"/>
<path style="fill:#836002; stroke:none;" d="M286 686L287 687L286 686M352.667 686.333L353.333 686.667L352.667 686.333M463 686L464 687L463 686M529 686L530 687L529 686M287 687L288 688L287 687z"/>
<path style="fill:#443001; stroke:none;" d="M355 687L356 688L355 687z"/>
<path style="fill:#836002; stroke:none;" d="M356 687L357 688L356 687M459.667 687.333L460.333 687.667L459.667 687.333M528 687L529 688L528 687z"/>
<path style="fill:#443001; stroke:none;" d="M289 688L290 689L289 688M358 688L359 689L358 688z"/>
<path style="fill:#836002; stroke:none;" d="M359.667 688.333L360.333 688.667L359.667 688.333M455.667 688.333L456.333 688.667L455.667 688.333z"/>
<path style="fill:#443001; stroke:none;" d="M457 688L458 689L457 688M526 688L527 689L526 688z"/>
<path style="fill:#836002; stroke:none;" d="M290 689L291 690L290 689z"/>
<path style="fill:#443001; stroke:none;" d="M362 689L363 690L362 689z"/>
<path style="fill:#836002; stroke:none;" d="M363 689L364 690L363 689M452 689L453 690L452 689z"/>
<path style="fill:#443001; stroke:none;" d="M453 689L454 690L453 689z"/>
<path style="fill:#836002; stroke:none;" d="M525 689L526 690L525 689z"/>
<path style="fill:#443001; stroke:none;" d="M292 690L293 691L292 690M366 690L367 691L366 690z"/>
<path style="fill:#836002; stroke:none;" d="M367.667 690.333L368.333 690.667L367.667 690.333M447.667 690.333L448.333 690.667L447.667 690.333z"/>
<path style="fill:#443001; stroke:none;" d="M449 690L450 691L449 690z"/>
<path style="fill:#836002; stroke:none;" d="M523 690L524 691L523 690M293 691L294 692L293 691M371.667 691.333L372.333 691.667L371.667 691.333M442 691L442 692L445 692L442 691z"/>
<path style="fill:#443001; stroke:none;" d="M521 691L522 692L521 691z"/>
<path style="fill:#836002; stroke:none;" d="M522 691L523 692L522 691M295 692L296 693L295 692z"/>
<path style="fill:#443001; stroke:none;" d="M376 692L377 693L376 692z"/>
<path style="fill:#836002; stroke:none;" d="M377.667 692.333L378.333 692.667L377.667 692.333M437.667 692.333L438.333 692.667L437.667 692.333z"/>
<path style="fill:#443001; stroke:none;" d="M439 692L440 693L439 692z"/>
<path style="fill:#836002; stroke:none;" d="M520 692L521 693L520 692z"/>
<path style="fill:#443001; stroke:none;" d="M297 693L298 694L297 693M382.667 693.333L383.333 693.667L382.667 693.333z"/>
<path style="fill:#836002; stroke:none;" d="M384 693L384 694L387 694L384 693M430 693L430 694L433 694L430 693z"/>
<path style="fill:#443001; stroke:none;" d="M433 693L434 694L433 693M518 693L519 694L518 693z"/>
<path style="fill:#836002; stroke:none;" d="M298 694L299 695L298 694z"/>
<path style="fill:#443001; stroke:none;" d="M390.667 694.333L391.333 694.667L390.667 694.333z"/>
<path style="fill:#836002; stroke:none;" d="M392 694L392 695L397 695L392 694M418 694L418 695L424 695L418 694z"/>
<path style="fill:#443001; stroke:none;" d="M424.667 694.333L425.333 694.667L424.667 694.333z"/>
<path style="fill:#836002; stroke:none;" d="M517 694L518 695L517 694M300 695L301 696L300 695M515 695L516 696L515 695z"/>
<path style="fill:#443001; stroke:none;" d="M302 696L303 697L302 696M513 696L514 697L513 696z"/>
<path style="fill:#836002; stroke:none;" d="M303 697L304 698L303 697z"/>
<path style="fill:#443001; stroke:none;" d="M304 697L305 698L304 697M511 697L512 698L511 697z"/>
<path style="fill:#836002; stroke:none;" d="M512 697L513 698L512 697M305 698L306 699L305 698M510 698L511 699L510 698M307 699L308 700L307 699M508 699L509 700L508 699M309 700L310 701L309 700M506 700L507 701L506 700M311 701L312 702L311 701M504 701L505 702L504 701M313 702L314 703L313 702M502 702L503 703L502 702M315 703L316 704L315 703M500 703L501 704L500 703M317 704L318 705L317 704M498 704L499 705L498 704M319 705L320 706L319 705z"/>
<path style="fill:#443001; stroke:none;" d="M495 705L496 706L495 705z"/>
<path style="fill:#836002; stroke:none;" d="M496 705L497 706L496 705M321 706L322 707L321 706z"/>
<path style="fill:#443001; stroke:none;" d="M322 706L323 707L322 706M493 706L494 707L493 706z"/>
<path style="fill:#836002; stroke:none;" d="M494 706L495 707L494 706M323 707L324 708L323 707z"/>
<path style="fill:#443001; stroke:none;" d="M324 707L325 708L324 707z"/>
<path style="fill:#836002; stroke:none;" d="M491 707L492 708L491 707M326 708L327 709L326 708M489 708L490 709L489 708M328 709L329 710L328 709z"/>
<path style="fill:#443001; stroke:none;" d="M329 709L330 710L329 709M486 709L487 710L486 709z"/>
<path style="fill:#836002; stroke:none;" d="M487 709L488 710L487 709M331 710L332 711L331 710M484 710L485 711L484 710M333 711L334 712L333 711z"/>
<path style="fill:#443001; stroke:none;" d="M334 711L335 712L334 711z"/>
<path style="fill:#836002; stroke:none;" d="M481.667 711.333L482.333 711.667L481.667 711.333M336 712L337 713L336 712z"/>
<path style="fill:#443001; stroke:none;" d="M337 712L338 713L337 712M478 712L479 713L478 712z"/>
<path style="fill:#836002; stroke:none;" d="M479 712L480 713L479 712M339 713L340 714L339 713z"/>
<path style="fill:#443001; stroke:none;" d="M340 713L341 714L340 713M475 713L476 714L475 713z"/>
<path style="fill:#836002; stroke:none;" d="M476 713L477 714L476 713M342 714L343 715L342 714z"/>
<path style="fill:#443001; stroke:none;" d="M343 714L344 715L343 714M472 714L473 715L472 714z"/>
<path style="fill:#836002; stroke:none;" d="M473 714L474 715L473 714M345 715L346 716L345 715z"/>
<path style="fill:#443001; stroke:none;" d="M346 715L347 716L346 715M469 715L470 716L469 715z"/>
<path style="fill:#836002; stroke:none;" d="M470 715L471 716L470 715M348.667 716.333L349.333 716.667L348.667 716.333z"/>
<path style="fill:#443001; stroke:none;" d="M350 716L351 717L350 716M465 716L466 717L465 716z"/>
<path style="fill:#836002; stroke:none;" d="M466.667 716.333L467.333 716.667L466.667 716.333M352 717L353 718L352 717z"/>
<path style="fill:#443001; stroke:none;" d="M353 717L354 718L353 717M462 717L463 718L462 717z"/>
<path style="fill:#836002; stroke:none;" d="M463 717L464 718L463 717M356 718L357 719L356 718z"/>
<path style="fill:#443001; stroke:none;" d="M357 718L358 719L357 718M458 718L459 719L458 718z"/>
<path style="fill:#836002; stroke:none;" d="M459 718L460 719L459 718M360.667 719.333L361.333 719.667L360.667 719.333z"/>
<path style="fill:#443001; stroke:none;" d="M362 719L363 720L362 719z"/>
<path style="fill:#836002; stroke:none;" d="M454.667 719.333L455.333 719.667L454.667 719.333M364.667 720.333L365.333 720.667L364.667 720.333z"/>
<path style="fill:#443001; stroke:none;" d="M366 720L367 721L366 720M449 720L450 721L449 720z"/>
<path style="fill:#836002; stroke:none;" d="M450 720L451 721L450 720M370.667 721.333L371.333 721.667L370.667 721.333z"/>
<path style="fill:#443001; stroke:none;" d="M372 721L373 722L372 721M443 721L444 722L443 721z"/>
<path style="fill:#836002; stroke:none;" d="M444.667 721.333L445.333 721.667L444.667 721.333M375 722L375 723L378 723L375 722z"/>
<path style="fill:#443001; stroke:none;" d="M378 722L379 723L378 722M437 722L438 723L437 722z"/>
<path style="fill:#836002; stroke:none;" d="M438 722L438 723L441 723L438 722M383 723L383 724L386 724L383 723z"/>
<path style="fill:#443001; stroke:none;" d="M386 723L387 724L386 723M429 723L430 724L429 723z"/>
<path style="fill:#836002; stroke:none;" d="M430 723L430 724L433 724L430 723M394 724L394 725L402 725L394 724z"/>
<path style="fill:#443001; stroke:none;" d="M402 724L402 725L407 725L402 724M409 724L409 725L414 725L409 724z"/>
<path style="fill:#836002; stroke:none;" d="M414 724L414 725L422 725L414 724z"/>
</svg>
