<?xml version="1.0" standalone="yes"?>
<svg xmlns="http://www.w3.org/2000/svg" width="1024" height="1024">
<path style="fill:#f7b707; stroke:none;" d="M0 0L0 1024L1024 1024L1024 0L0 0z"/>
<path style="fill:#8a6502; stroke:none;" d="M384 307L384 308L397 308L384 307z"/>
<path style="fill:#020201; stroke:none;" d="M254 613C233.906 579.743 220.307 544.561 222.039 505C225.793 419.284 297.184 339.885 385 336.039C414.606 334.743 443.873 338.888 471 351.309C482.942 356.777 494.617 363.607 505 371.665C510.259 375.746 515.753 383.094 522 385.397C532.027 389.093 548.319 386 559 386C545.068 359 509.119 336.797 482 325.15C371.417 277.659 238.136 334.411 202.72 452C190.733 491.799 191.734 533.26 203.141 573C206.038 583.093 211.695 605.729 220.637 611.972C227.143 616.514 246.111 613 254 613z"/>
<path style="fill:#8a6502; stroke:none;" d="M400 307L400 308L413 308L400 307M374 308L374 309L378 309L374 308M419 308L419 309L423 309L419 308M366 309L366 310L370 310L366 309M427 309L427 310L431 310L427 309M361.667 310.333L362.333 310.667L361.667 310.333M434 310L434 311L437 311L434 310M355 311L355 312L358 312L355 311M439.667 311.333L440.333 311.667L439.667 311.333M351.667 312.333L352.333 312.667L351.667 312.333M444.667 312.333L445.333 312.667L444.667 312.333M347.667 313.333L348.333 313.667L347.667 313.333M448.667 313.333L449.333 313.667L448.667 313.333M344 314L345 315L344 314M452.667 314.333L453.333 314.667L452.667 314.333M340.667 315.333L341.333 315.667L340.667 315.333M455.667 315.333L456.333 315.667L455.667 315.333M337 316L338 317L337 316M459 316L460 317L459 316M334 317L335 318L334 317M462 317L463 318L462 317M331 318L332 319L331 318M465.667 318.333L466.333 318.667L465.667 318.333M328 319L329 320L328 319M468 319L469 320L468 319M325.667 320.333L326.333 320.667L325.667 320.333M470.667 320.333L471.333 320.667L470.667 320.333M323 321L324 322L323 321M473 321L474 322L473 321M320.667 322.333L321.333 322.667L320.667 322.333M475.667 322.333L476.333 322.667L475.667 322.333M318 323L319 324L318 323M478 323L479 324L478 323M316 324L317 325L316 324M480.667 324.333L481.333 324.667L480.667 324.333M313.667 325.333L314.333 325.667L313.667 325.333M482.667 325.333L483.333 325.667L482.667 325.333M311 326L312 327L311 326M485 326L486 327L485 326M309 327L310 328L309 327M487 327L488 328L487 327M307 328L308 329L307 328M489 328L490 329L489 328M305 329L306 330L305 329M491 329L492 330L491 329M303 330L304 331L303 330M493 330L494 331L493 330M301 331L302 332L301 331M495 331L496 332L495 331M299 332L300 333L299 332M497 332L498 333L497 332M298 333L299 334L298 333M498 333L499 334L498 333M296 334L297 335L296 334M500 334L501 335L500 334M294 335L295 336L294 335M502 335L503 336L502 335M293 336L294 337L293 336M380 336L380 337L386 337L380 336z"/>
<path style="fill:#f7b707; stroke:none;" d="M223 499C245.252 493.702 273.119 498 296 498L445 498L530 498C544.035 498 560.321 495.743 574 499L570 471L398 471L398 442L560 442L546 415L579 415L579 414L494 415L494 386L522 387C507.51 366.854 477.925 353.003 455 345.333C349.906 310.174 227.909 384.657 223 499z"/>
<path style="fill:#8a6502; stroke:none;" d="M410 336L410 337L417 337L410 336M504 336L505 337L504 336M291 337L292 338L291 337M372 337L372 338L376 338L372 337M421 337L421 338L425 338L421 337M505 337L506 338L505 337M289 338L290 339L289 338M367 338L367 339L370 339L367 338M428.667 338.333L429.333 338.667L428.667 338.333M507 338L508 339L507 338M288 339L289 340L288 339M361 339L361 340L364 340L361 339M433.667 339.333L434.333 339.667L433.667 339.333M508 339L509 340L508 339M286 340L287 341L286 340M357.667 340.333L358.333 340.667L357.667 340.333M438.667 340.333L439.333 340.667L438.667 340.333M510 340L511 341L510 340M285 341L286 342L285 341M353.667 341.333L354.333 341.667L353.667 341.333M442.667 341.333L443.333 341.667L442.667 341.333M511 341L512 342L511 341M283 342L284 343L283 342M349.667 342.333L350.333 342.667L349.667 342.333M446 342L447 343L446 342M513 342L514 343L513 342M282 343L283 344L282 343M346.667 343.333L347.333 343.667L346.667 343.333M449.667 343.333L450.333 343.667L449.667 343.333M514 343L515 344L514 343M280 344L281 345L280 344M343.667 344.333L344.333 344.667L343.667 344.333M452.667 344.333L453.333 344.667L452.667 344.333M516 344L517 345L516 344M279 345L280 346L279 345M340.667 345.333L341.333 345.667L340.667 345.333M455.667 345.333L456.333 345.667L455.667 345.333M517 345L518 346L517 345M337.667 346.333L338.333 346.667L337.667 346.333M458.667 346.333L459.333 346.667L458.667 346.333M519 346L520 347L519 346M276 347L277 348L276 347M335 347L336 348L335 347M461 347L462 348L461 347M520 347L521 348L520 347M275 348L276 349L275 348M332 348L333 349L332 348M463.667 348.333L464.333 348.667L463.667 348.333M521 348L522 349L521 348M329.667 349.333L330.333 349.667L329.667 349.333M466 349L467 350L466 349M272 350L273 351L272 350M327.667 350.333L328.333 350.667L327.667 350.333M468.667 350.333L469.333 350.667L468.667 350.333M524 350L525 351L524 350M271 351L272 352L271 351M325 351L326 352L325 351M471 351L472 352L471 351M525 351L526 352L525 351M270 352L271 353L270 352M323 352L324 353L323 352M473 352L474 353L473 352M321 353L322 354L321 353M475 353L476 354L475 353M528 353L529 354L528 353M267 354L268 355L267 354M319 354L320 355L319 354M477 354L478 355L477 354M529 354L530 355L529 354M266 355L267 356L266 355M317 355L318 356L317 355M479 355L480 356L479 355M530 355L531 356L530 355M265 356L266 357L265 356M315 356L316 357L315 356M481 356L482 357L481 356M531 356L532 357L531 356M264 357L265 358L264 357M313 357L314 358L313 357M483 357L484 358L483 357M532 357L533 358L532 357M311 358L312 359L311 358M484 358L485 359L484 358M310 359L311 360L310 359M486 359L487 360L486 359M535 359L536 360L535 359M260 360L261 361L260 360M308 360L309 361L308 360M488 360L489 361L488 360M536 360L537 361L536 360M259 361L260 362L259 361M306 361L307 362L306 361M490 361L491 362L490 361M537 361L538 362L537 361M258 362L259 363L258 362M305 362L306 363L305 362M491 362L492 363L491 362M538 362L539 363L538 362M257 363L258 364L257 363M303 363L304 364L303 363M493 363L494 364L493 363M539 363L540 364L539 363M256 364L257 365L256 364M302 364L303 365L302 364M494 364L495 365L494 364M540 364L541 365L540 364M255 365L256 366L255 365M300 365L301 366L300 365M496 365L497 366L496 365M541 365L542 366L541 365M254 366L255 367L254 366M497 366L498 367L497 366M542 366L543 367L542 366M253 367L254 368L253 367M297 367L298 368L297 367M499 367L500 368L499 367M543 367L544 368L543 367M252 368L253 369L252 368M296 368L297 369L296 368M500 368L501 369L500 368M544 368L545 369L544 368M251 369L252 370L251 369M294 369L295 370L294 369M502 369L503 370L502 369M545 369L546 370L545 369M250 370L251 371L250 370M293 370L294 371L293 370M503 370L504 371L503 370M546 370L547 371L546 370M249 371L250 372L249 371M504 371L505 372L504 371M547 371L548 372L547 371M248 372L249 373L248 372M290 372L291 373L290 372M506 372L507 373L506 372M548 372L549 373L548 372M247 373L248 374L247 373M289 373L290 374L289 373M507 373L508 374L507 373M549 373L550 374L549 373M288 374L289 375L288 374M508 374L509 375L508 374M550 374L551 375L550 374M285 376L286 377L285 376M244 377L245 378L244 377M284 377L285 378L284 377M512 377L513 378L512 377M243 378L244 379L243 378M283 378L284 379L283 378M513 378L514 379L513 378M553 378L554 379L553 378M242 379L243 380L242 379M282 379L283 380L282 379M514 379L515 380L514 379M554 379L555 380L554 379M241 380L242 381L241 380M515 380L516 381L515 380M555 380L556 381L555 380M240 381L241 382L240 381M556 381L557 382L556 381M277 383L278 384L277 383M238 384L239 385L238 384M276 384L277 385L276 384M558 384L559 385L558 384M237 385L238 386L237 385M275 385L276 386L275 385M522 386L522 387L561 387C552.55 382.114 531.977 386 522 386M236 386L237 387L236 386M274 386L275 387L274 386z"/>
<path style="fill:#ffffff; stroke:none;" d="M494 386L494 415L638 415L638 386L494 386z"/>
<path style="fill:#8a6502; stroke:none;" d="M273 387L274 388L273 387M235 388L236 389L235 388M272 388L273 389L272 388M234 389L235 390L234 389M271 389L272 390L271 389M233 390L234 391L233 390M270 390L271 391L270 390M232 392L233 393L232 392M231 393L232 394L231 393M230 395L231 396L230 395M266 395L267 396L266 395M229 396L230 397L229 396M265 396L266 397L265 396M228 397L229 398L228 397M264 397L265 398L264 397M263 398L264 399L263 398M227 399L228 400L227 399M262 399L263 400L262 399M225 402L226 403L225 402M260 402L261 403L260 402M259 403L260 404L259 403M224 404L225 405L224 404M258 404L259 405L258 404M223 405L224 406L223 405M257 406L258 407L257 406M222 407L223 408L222 407M256 407L257 408L256 407M221 409L222 410L221 409M220 410L221 411L220 410M254 410L255 411L254 410M253 411L254 412L253 411M219 412L220 413L219 412M252 413L253 414L252 413M218 414L219 415L218 414M251 414L252 415L251 414z"/>
<path style="fill:#020201; stroke:none;" d="M546 415C562.203 449.26 576.675 479.837 574.961 519C571.237 604.034 498.958 685.83 411 687.985C384.193 688.642 357.981 686.05 333 675.576C320.697 670.417 308.877 664.346 298 656.573C291.8 652.142 285.127 644.196 278 641.603C267.665 637.842 250.994 641 240 641C251.503 658.389 269.834 672.245 287 683.667C396.521 756.54 551.283 701.087 592.645 577C606.055 536.77 606.005 493.591 594.421 453C591.67 443.359 586.968 422.036 578.363 416.028C572.016 411.597 553.687 415 546 415z"/>
<path style="fill:#8a6502; stroke:none;" d="M217 416L218 417L217 416M250 416L251 417L250 416M546 416L547 417L546 416M579 416L580 417L579 416M249 417L250 418L249 417M216 418L217 419L216 418M547 418L548 419L547 418M580 418L581 419L580 418M248 419L249 420L248 419M548 419L549 420L548 419M215 420L216 421L215 420M247 420L248 421L247 420M581 420L582 421L581 420M549 421L550 422L549 421M214 422L215 423L214 422M246 422L247 423L246 422M550 422L551 423L550 422M582 422L583 423L582 422M213 424L214 425L213 424M245 424L246 425L245 424M551 424L552 425L551 424M583 424L584 425L583 424M212 426L213 427L212 426M244 426L245 427L244 426M552 426L553 427L552 426M584 426L585 427L584 426M243.333 427.667L243.667 428.333L243.333 427.667M211 428L212 429L211 428M553 428L554 429L553 428M585 428L586 429L585 428M242 429L243 430L242 429M210 430L211 431L210 430M554 430L555 431L554 430M586 430L587 431L586 430M241 431L242 432L241 431M209.333 432.667L209.667 433.333L209.333 432.667M555 432L556 433L555 432M240 433L241 434L240 433M587 433L588 434L587 433M556 434L557 435L556 434M208 435L209 436L208 435M239 435L240 436L239 435M588 435L589 436L588 435M557 436L558 437L557 436M207.333 437.667L207.667 438.333L207.333 437.667M238.333 437.667L238.667 438.333L238.333 437.667M558 438L559 439L558 438M589 438L590 439L589 438M206 440L207 441L206 440M237 440L238 441L237 440M559 440L560 441L559 440M590.333 440.667L590.667 441.333L590.333 440.667M236 442L237 443L236 442z"/>
<path style="fill:#ffffff; stroke:none;" d="M398 442L398 471L569 471C568.045 463.91 565.55 447.456 559.351 443.028C556.365 440.895 550.473 442 547 442L516 442L398 442z"/>
<path style="fill:#8a6502; stroke:none;" d="M560 442L561 443L560 442M205 443L206 444L205 443z"/>
<path style="fill:#f7b707; stroke:none;" d="M560 443L561 444L560 443z"/>
<path style="fill:#8a6502; stroke:none;" d="M591 443L592 444L591 443M235.333 444.667L235.667 445.333L235.333 444.667M561.333 444.667L561.667 445.333L561.333 444.667M204 446L205 447L204 446M592 446L593 447L592 446M234 447L235 448L234 447M562 447L563 448L562 447z"/>
<path style="fill:#f7b707; stroke:none;" d="M562 448L563 449L562 448z"/>
<path style="fill:#8a6502; stroke:none;" d="M203 449L204 450L203 449M233.333 449.667L233.667 450.333L233.333 449.667M593 449L594 450L593 449M563 450L564 451L563 450M202 452L203 453L202 452M232.333 452.667L232.667 453.333L232.333 452.667M564.333 452.667L564.667 453.333L564.333 452.667M594.333 452.667L594.667 453.333L594.333 452.667M201.333 455.667L201.667 456.333L201.333 455.667M231 455L232 456L231 455M565.333 455.667L565.667 456.333L565.333 455.667M595.333 455.667L595.667 456.333L595.333 455.667M230 458L231 459L230 458M566.333 458.667L566.667 459.333L566.333 458.667M200 459L201 460L200 459M596.333 459.667L596.667 460.333L596.333 459.667M229.333 461.667L229.667 462.333L229.333 461.667M567.333 461.667L567.667 462.333L567.333 461.667M199 462L199 465L200 465L199 462z"/>
<path style="fill:#f7b707; stroke:none;" d="M567 463L568 464L567 463z"/>
<path style="fill:#8a6502; stroke:none;" d="M597.333 463.667L597.667 464.333L597.333 463.667M228 465L229 466L228 465M568.333 465.667L568.667 466.333L568.333 465.667M198.333 467.667L198.667 468.333L198.333 467.667z"/>
<path style="fill:#f9c97d; stroke:none;" d="M568 467L569 468L568 467z"/>
<path style="fill:#8a6502; stroke:none;" d="M598.333 467.667L598.667 468.333L598.333 467.667M227.333 468.667L227.667 469.333L227.333 468.667M569.333 469.667L569.667 470.333L569.333 469.667M197 471L197 474L198 474L197 471M599 471L599 474L600 474L599 471M226.333 473.667L226.667 474.333L226.333 473.667M570.333 473.667L570.667 474.333L570.333 473.667M196 477L196 480L197 480L196 477M225 477L225 480L226 480L225 477M571 477L571 480L572 480L571 477M600 477L600 480L601 480L600 477M713 545L714 545L714 480L733 481C729.701 478.5 715.902 476.647 713.603 481.318C711.298 486.002 713 494.851 713 500L713 545M763 479L763 480L782 480L763 479M809 514L796 516L796 480L835 480L835 490L806 490L806 505L807 505L807 491L836 491C836 488.073 836.911 483.051 834.972 480.603C831.679 476.446 815.956 479 811 479C807.266 479 797.608 477.243 795.603 481.318C792.973 486.663 792.973 509.337 795.603 514.682C797.955 519.461 806.334 516.722 809 514z"/>
<path style="fill:#020201; stroke:none;" d="M714 480L714 545L726 545L726 498C736.129 509.49 732.712 532.99 743.702 543.397C748.789 548.213 752.93 542.308 754.575 537.999C759.492 525.118 764.893 511.431 768 498L769 498L769 545L782 545L782 480L763 480L748 524L737.003 494L731.49 481.028L714 480M796 480L796 516C803.021 516 810.598 511.47 816.999 512.272C834.614 514.477 822.795 547.464 808.228 532.791C806.508 531.058 805.765 529.245 805 527L794 527C795.6 546.557 822.938 553.888 834.03 536.985C846.698 517.679 826.67 494.165 806 505L806 490L835 490L835 480L796 480z"/>
<path style="fill:#8a6502; stroke:none;" d="M762.333 481.667L762.667 482.333L762.333 481.667M733.333 482.667L733.667 483.333L733.333 482.667M195 483L195 487L196 487L195 483M224 483L224 486L225 486L224 483M572 483L572 486L573 486L572 483M601 483L601 487L602 487L601 483M761.333 484.667L761.667 485.333L761.333 484.667M734.333 485.667L734.667 486.333L734.333 485.667M760.333 487.667L760.667 488.333L760.333 487.667M735.333 488.667L735.667 489.333L735.333 488.667M223 490L223 494L224 494L223 490M573 490L573 494L574 494L573 490M759.333 490.667L759.667 491.333L759.333 490.667M194 491L194 497L195 497L194 491M602 491L602 498L603 498L602 491M736.333 491.667L736.667 492.333L736.333 491.667M758.333 493.667L758.667 494.333L758.333 493.667M737.333 494.667L737.667 495.333L737.333 494.667M757 496L758 497L757 496M738.333 497.667L738.667 498.333L738.333 497.667z"/>
<path style="fill:#ffffff; stroke:none;" d="M223 527L574 527C574 521.703 576.919 501.18 571.682 498.603C566.127 495.87 555.135 498 549 498L494 498L299 498L243 498C238.765 498 226.918 495.954 224.028 499.603C220.082 504.586 223 520.738 223 527z"/>
<path style="fill:#8a6502; stroke:none;" d="M726 498L726 545L727 545L728 498L726 498M768 498L769 499L768 498M756 499L757 500L756 499M222 500L222 524L223 524L222 500M574 500L574 524L575 524L574 500M739 500L740 501L739 500M767.333 500.667L767.667 501.333L767.333 500.667M728.333 501.667L728.667 502.333L728.333 501.667M755 502L756 503L755 502M810.667 502.333L811.333 502.667L810.667 502.333M821 502L821 503L824 503L821 502M740 503L741 504L740 503M766.333 503.667L766.667 504.333L766.333 503.667M808 503L809 504L808 503M825 503L826 504L825 503M729.333 504.667L729.667 505.333L729.333 504.667M827.667 504.333L828.333 504.667L827.667 504.333M754 505L755 506L754 505M829 505L830 506L829 505M741 506L742 507L741 506M765 506L766 507L765 506M730.333 507.667L730.667 508.333L730.333 507.667M753.333 507.667L753.667 508.333L753.333 507.667M193 509L193 515L194 515L193 509M603 509L603 515L604 515L603 509M742 509L743 510L742 509M764 509L765 510L764 509M833 509L834 510L833 509M731 510L732 511L731 510M752.333 510.667L752.667 511.333L752.333 510.667M834 510L835 511L834 510M743.333 511.667L743.667 512.333L743.333 511.667M763 512L764 513L763 512M812 512L813 513L812 512M819 512L820 513L819 512M835 512L836 513L835 512M732 513L733 514L732 513M751.333 513.667L751.667 514.333L751.333 513.667M810 513L811 514L810 513M821 513L822 514L821 513M744.333 514.667L744.667 515.333L744.333 514.667M822 514L823 515L822 514M836.333 514.667L836.667 515.333L836.333 514.667M762 515L763 516L762 515M823 515L824 516L823 515M733 516L734 517L733 516M750.333 516.667L750.667 517.333L750.333 516.667M745.333 517.667L745.667 518.333L745.333 517.667M761.333 517.667L761.667 518.333L761.333 517.667M824 517L825 518L824 517M837 518L837 522L838 522L837 518M734 519L735 520L734 519M749.333 519.667L749.667 520.333L749.333 519.667M825 519L826 520L825 519M746.333 520.667L746.667 521.333L746.333 520.667M760.333 520.667L760.667 521.333L760.333 520.667M735.333 521.667L735.667 522.333L735.333 521.667M748 522L749 523L748 522M747 523L748 524L747 523M759.333 523.667L759.667 524.333L759.333 523.667M736.333 524.667L736.667 525.333L736.333 524.667M194 526L194 533L195 533L194 526M602 526L602 533L603 533L602 526M758.333 526.667L758.667 527.333L758.333 526.667M837 526L837 530L838 530L837 526z"/>
<path style="fill:#f7b707; stroke:none;" d="M223 527C223.795 533.293 223.387 549.816 228.728 553.972C231.532 556.155 237.662 555 241 555L273 555L398 555L398 584L238 584C241.299 591.924 246.691 607.39 254.326 611.972C258.297 614.356 265.528 613 270 613L309 613L309 642L279 641L279 642C308.944 664.732 338.955 682.027 377 686.714C446.225 695.242 515.062 660.98 550.548 601C564.022 578.225 570.71 553.032 574 527L223 527z"/>
<path style="fill:#8a6502; stroke:none;" d="M737.333 527.667L737.667 528.333L737.333 527.667M825.333 528.667L825.667 529.333L825.333 528.667M757 529L758 530L757 529M805 529L806 530L805 529M223 530L223 534L224 534L223 530M573 530L573 534L574 534L573 530M738.333 530.667L738.667 531.333L738.333 530.667M794 531L794 534L795 534L794 531M806 531L807 532L806 531M824 531L825 532L824 531M756 532L757 533L756 532M807 532L808 533L807 532M836 532L837 533L836 532M739 533L740 534L739 533M808 533L809 534L808 533M809 534L810 535L809 534M835 534L836 535L835 534M755 535L756 536L755 535M795 535L796 536L795 535M811 535L812 536L811 535M820 535L821 536L820 535M740 536L741 537L740 536M813 536L813 537L819 537L813 536M834 536L835 537L834 536M195 537L195 541L196 541L195 537M601 537L601 541L602 541L601 537M796 537L797 538L796 537M224 538L224 541L225 541L224 538M572 538L572 541L573 541L572 538M754 538L755 539L754 538M797 538L798 539L797 538M741 539L742 540L741 539M832 539L833 540L832 539M753.333 540.667L753.667 541.333L753.333 540.667M831 540L832 541L831 540M742 542L743 543L742 542M801 542L802 543L801 542M828 542L829 543L828 542M752.333 543.667L752.667 544.333L752.333 543.667M803 543L804 544L803 543M827 543L828 544L827 543M196 544L196 547L197 547L196 544M225 544L225 547L226 547L225 544M571 544L571 547L572 547L571 544M600 544L600 547L601 547L600 544M743 544L744 545L743 544M805 544L806 545L805 544M825 544L826 545L825 544M807.667 545.333L808.333 545.667L807.667 545.333M822 545L823 546L822 545M812 546L812 547L820 547L812 546M226.333 549.667L226.667 550.333L226.333 549.667M570.333 549.667L570.667 550.333L570.333 549.667M197 550L197 553L198 553L197 550M599 550L599 553L600 553L599 550M227.333 553.667L227.667 554.333L227.333 553.667M569.333 553.667L569.667 554.333L569.333 553.667M198.333 555.667L198.667 556.333L198.333 555.667z"/>
<path style="fill:#ffffff; stroke:none;" d="M228 555C229.664 562.259 232.194 578.451 238.638 582.972C241.661 585.093 247.5 584 251 584L281 584L398 584L398 555L228 555z"/>
<path style="fill:#8a6502; stroke:none;" d="M598.333 555.667L598.667 556.333L598.333 555.667M228.333 557.667L228.667 558.333L228.333 557.667M568.333 557.667L568.667 558.333L568.333 557.667M199.333 559.667L199.667 560.333L199.333 559.667M597.333 559.667L597.667 560.333L597.333 559.667z"/>
<path style="fill:#f7b707; stroke:none;" d="M229 560L230 561L229 560z"/>
<path style="fill:#8a6502; stroke:none;" d="M229.333 561.667L229.667 562.333L229.333 561.667M567.333 561.667L567.667 562.333L567.333 561.667M200.333 563.667L200.667 564.333L200.333 563.667M596.333 563.667L596.667 564.333L596.333 563.667M230.333 564.667L230.667 565.333L230.333 564.667M566.333 564.667L566.667 565.333L566.333 564.667M201.333 567.667L201.667 568.333L201.333 567.667M231.333 567.667L231.667 568.333L231.333 567.667M565.333 567.667L565.667 568.333L565.333 567.667M595.333 567.667L595.667 568.333L595.333 567.667M202.333 570.667L202.667 571.333L202.333 570.667M232.333 570.667L232.667 571.333L232.333 570.667M564.333 570.667L564.667 571.333L564.333 570.667M594.333 570.667L594.667 571.333L594.333 570.667M233 573L234 574L233 573M563 573L564 574L563 573M203 574L204 575L203 574M593 574L594 575L593 574z"/>
<path style="fill:#f7b707; stroke:none;" d="M234 575L235 576L234 575z"/>
<path style="fill:#8a6502; stroke:none;" d="M234 576L235 577L234 576M562 576L563 577L562 576M204 577L205 578L204 577M592 577L593 578L592 577M235.333 578.667L235.667 579.333L235.333 578.667M561.333 578.667L561.667 579.333L561.333 578.667M205 580L206 581L205 580z"/>
<path style="fill:#f7b707; stroke:none;" d="M236 580L237 581L236 580z"/>
<path style="fill:#8a6502; stroke:none;" d="M591 580L592 581L591 580M236 581L237 582L236 581M560 581L561 582L560 581M206.333 582.667L206.667 583.333L206.333 582.667z"/>
<path style="fill:#f7b707; stroke:none;" d="M237 582L238 583L237 582z"/>
<path style="fill:#8a6502; stroke:none;" d="M590.333 582.667L590.667 583.333L590.333 582.667M237 583L238 584L237 583M559 583L560 584L559 583M207 585L208 586L207 585M238 585L239 586L238 585M558 585L559 586L558 585M589 585L590 586L589 585z"/>
<path style="fill:#ffffff; stroke:none;" d="M713 586L713 687L867 687L867 586L713 586z"/>
<path style="fill:#8a6502; stroke:none;" d="M239 587L240 588L239 587M557 587L558 588L557 587M208 588L209 589L208 588M588 588L589 589L588 588M240 589L241 590L240 589M556 589L557 590L556 589M209 590L210 591L209 590M587 590L588 591L587 590M241 591L242 592L241 591M555 591L556 592L555 591M586.333 592.667L586.667 593.333L586.333 592.667M210 593L211 594L210 593M242 593L243 594L242 593M554 593L555 594L554 593M211 595L212 596L211 595M243 595L244 596L243 595M553 595L554 596L553 595M585 595L586 596L585 595M212 597L213 598L212 597M244 597L245 598L244 597M552 597L553 598L552 597M584 597L585 598L584 597M213 599L214 600L213 599M245 599L246 600L245 599M551 599L552 600L551 599M583 599L584 600L583 599M214 601L215 602L214 601M246 601L247 602L246 601M550 601L551 602L550 601M582 601L583 602L582 601M247 602L248 603L247 602M549 602L550 603L549 602M215 603L216 604L215 603M581 603L582 604L581 603M248 604L249 605L248 604M548 604L549 605L548 604z"/>
<path style="fill:#f7b707; stroke:none;" d="M725 604L725 669L740 669L740 641L766 641L766 669L780 669L780 604L766 604L766 630L740 630L740 604L725 604M796 604L796 669C809.227 669 825.821 671.731 838 665.622C859.23 654.972 859.583 620.916 840 608.559C827.806 600.865 809.77 604 796 604z"/>
<path style="fill:#8a6502; stroke:none;" d="M216 605L217 606L216 605M547 605L548 606L547 605M580 605L581 606L580 605M217 607L218 608L217 607M250 607L251 608L250 607M546 607L547 608L546 607M579 607L580 608L579 607M218 609L219 610L218 609M251 609L252 610L251 609M545 609L546 610L545 609M578 609L579 610L578 609M252 610L253 611L252 610M544 610L545 611L544 610M219 611L220 612L219 611M577 611L578 612L577 611z"/>
<path style="fill:#ffffff; stroke:none;" d="M157 613L157 642L309 642L309 613L157 613z"/>
<path style="fill:#f9c97d; stroke:none;" d="M221 613L221 614L254 614L221 613z"/>
<path style="fill:#8a6502; stroke:none;" d="M542 613L543 614L542 613M576 613L577 614L576 613M541 614L542 615L541 614M575 614L576 615L575 614z"/>
<path style="fill:#ffffff; stroke:none;" d="M811 615L811 658C818.402 658 826.591 658.838 832.996 654.348C843.629 646.894 844.94 626.971 833.907 619.109C827.152 614.296 818.85 615 811 615z"/>
<path style="fill:#8a6502; stroke:none;" d="M540 616L541 617L540 616M574 616L575 617L574 616M539 617L540 618L539 617z"/>
<path style="fill:#f9c97d; stroke:none;" d="M831 617L832 618L831 617z"/>
<path style="fill:#8a6502; stroke:none;" d="M538 618L539 619L538 618M573 618L574 619L573 618M572 619L573 620L572 619z"/>
<path style="fill:#f9c97d; stroke:none;" d="M834 619L835 620L834 619z"/>
<path style="fill:#8a6502; stroke:none;" d="M537 620L538 621L537 620M536 621L537 622L536 621M571 621L572 622L571 621M535 622L536 623L535 622M570 623L571 624L570 623M569 624L570 625L569 624z"/>
<path style="fill:#f9c97d; stroke:none;" d="M852 624L853 625L852 624z"/>
<path style="fill:#8a6502; stroke:none;" d="M533 625L534 626L533 625M532 626L533 627L532 626M568 626L569 627L568 626M531 627L532 628L531 627M567 627L568 628L567 627M530 628L531 629L530 628M529 629L530 630L529 629M565 630L566 631L565 630M564 631L565 632L564 631M563 633L564 634L563 633M562 634L563 635L562 634M524 635L525 636L524 635M561 635L562 636L561 635M523 636L524 637L523 636M522 637L523 638L522 637M560 637L561 638L560 637z"/>
<path style="fill:#f9c97d; stroke:none;" d="M841 637L842 638L841 637z"/>
<path style="fill:#8a6502; stroke:none;" d="M559 638L560 639L559 638M558 639L559 640L558 639M239 641L240 642L239 641M240 642L241 643L240 642M556 642L557 643L556 642M241 643L242 644L241 643M281 643L282 644L281 643M515 643L516 644L515 643M555 643L556 644L555 643M242 644L243 645L242 644M282 644L283 645L282 644M514 644L515 645L514 644M554 644L555 645L554 644M243 645L244 646L243 645M283 645L284 646L283 645M513 645L514 646L513 645M553 645L554 646L553 645M284 646L285 647L284 646M512 646L513 647L512 646M509 648L510 649L509 648z"/>
<path style="fill:#f9c97d; stroke:none;" d="M852 648L853 649L852 648z"/>
<path style="fill:#8a6502; stroke:none;" d="M246 649L247 650L246 649M288 649L289 650L288 649M508 649L509 650L508 649M550 649L551 650L550 649M247 650L248 651L247 650M289 650L290 651L289 650M507 650L508 651L507 650M549 650L550 651L549 650M248 651L249 652L248 651M548 651L549 652L548 651M249 652L250 653L249 652M292 652L293 653L292 652M504 652L505 653L504 652M547 652L548 653L547 652M250 653L251 654L250 653M293 653L294 654L293 653M503 653L504 654L503 653M546 653L547 654L546 653M251 654L252 655L251 654M502 654L503 655L502 654M545 654L546 655L545 654M252 655L253 656L252 655M296 655L297 656L296 655M500 655L501 656L500 655M544 655L545 656L544 655M253 656L254 657L253 656M297 656L298 657L297 656M499 656L500 657L499 656M543 656L544 657L543 656M254 657L255 658L254 657M299 657L300 658L299 657M497 657L498 658L497 657M542 657L543 658L542 657M255 658L256 659L255 658M300 658L301 659L300 658M496 658L497 659L496 658M541 658L542 659L541 658M256 659L257 660L256 659M302 659L303 660L302 659M494 659L495 660L494 659M540 659L541 660L540 659M257 660L258 661L257 660M303 660L304 661L303 660M493 660L494 661L493 660M539 660L540 661L539 660M258 661L259 662L258 661M305 661L306 662L305 661M491 661L492 662L491 661M538 661L539 662L538 661M259 662L260 663L259 662M306 662L307 663L306 662M490 662L491 663L490 662M537 662L538 663L537 662M260 663L261 664L260 663M308 663L309 664L308 663M488 663L489 664L488 663M536 663L537 664L536 663M261 664L262 665L261 664M310 664L311 665L310 664M486 664L487 665L486 664M535 664L536 665L535 664M312 665L313 666L312 665M484 665L485 666L484 665M264 666L265 667L264 666M313 666L314 667L313 666M483 666L484 667L483 666M532 666L533 667L532 666M265 667L266 668L265 667M315 667L316 668L315 667M481 667L482 668L481 667M531 667L532 668L531 667M266 668L267 669L266 668M317 668L318 669L317 668M479 668L480 669L479 668M530 668L531 669L530 668z"/>
<path style="fill:#f9c97d; stroke:none;" d="M829 668L830 669L829 668z"/>
<path style="fill:#8a6502; stroke:none;" d="M267 669L268 670L267 669M319 669L320 670L319 669M477 669L478 670L477 669M529 669L530 670L529 669M268 670L269 671L268 670M321 670L322 671L321 670M475 670L476 671L475 670M528 670L529 671L528 670M270 671L271 672L270 671M323 671L324 672L323 671M473 671L474 672L473 671M526 671L527 672L526 671M271 672L272 673L271 672M325.667 672.333L326.333 672.667L325.667 672.333M470.667 672.333L471.333 672.667L470.667 672.333M525 672L526 673L525 672M272 673L273 674L272 673M328 673L329 674L328 673M468 673L469 674L468 673M524 673L525 674L524 673M330 674L331 675L330 674M466 674L467 675L466 674M275 675L276 676L275 675M332.667 675.333L333.333 675.667L332.667 675.333M463.667 675.333L464.333 675.667L463.667 675.333M521 675L522 676L521 675M276 676L277 677L276 676M335 676L336 677L335 676M461 676L462 677L461 676M520 676L521 677L520 676M277 677L278 678L277 677M337.667 677.333L338.333 677.667L337.667 677.333M458.667 677.333L459.333 677.667L458.667 677.333M519 677L520 678L519 677M279 678L280 679L279 678M340.667 678.333L341.333 678.667L340.667 678.333M455.667 678.333L456.333 678.667L455.667 678.333M517 678L518 679L517 678M280 679L281 680L280 679M343.667 679.333L344.333 679.667L343.667 679.333M452.667 679.333L453.333 679.667L452.667 679.333M516 679L517 680L516 679M282 680L283 681L282 680M346.667 680.333L347.333 680.667L346.667 680.333M449.667 680.333L450.333 680.667L449.667 680.333M514 680L515 681L514 680M283 681L284 682L283 681M350.667 681.333L351.333 681.667L350.667 681.333M446 681L447 682L446 681M513 681L514 682L513 681M285 682L286 683L285 682M353.667 682.333L354.333 682.667L353.667 682.333M442.667 682.333L443.333 682.667L442.667 682.333M511 682L512 683L511 682M286 683L287 684L286 683M357 683L357 684L360 684L357 683M438.667 683.333L439.333 683.667L438.667 683.333M510 683L511 684L510 683M288 684L289 685L288 684M362.667 684.333L363.333 684.667L362.667 684.333M433.667 684.333L434.333 684.667L433.667 684.333M508 684L509 685L508 684M289 685L290 686L289 685M367 685L367 686L370 686L367 685M427 685L427 686L430 686L427 685M507 685L508 686L507 685M291 686L292 687L291 686M372 686L372 687L376 687L372 686M421 686L421 687L425 687L421 686M505 686L506 687L505 686M292 687L293 688L292 687M380 687L380 688L387 688L380 687M410 687L410 688L417 688L410 687M294 688L295 689L294 688M502 688L503 689L502 688M296 689L297 690L296 689M500 689L501 690L500 689M298 690L299 691L298 690M498 690L499 691L498 690M299 691L300 692L299 691M497 691L498 692L497 691M301 692L302 693L301 692M495 692L496 693L495 692M303 693L304 694L303 693M493 693L494 694L493 693M305 694L306 695L305 694M491 694L492 695L491 694M307 695L308 696L307 695M489 695L490 696L489 695M309 696L310 697L309 696M487 696L488 697L487 696M311 697L312 698L311 697M485 697L486 698L485 697M313.667 698.333L314.333 698.667L313.667 698.333M482.667 698.333L483.333 698.667L482.667 698.333M316 699L317 700L316 699M480 699L481 700L480 699M318 700L319 701L318 700M478 700L479 701L478 700M320.667 701.333L321.333 701.667L320.667 701.333M475.667 701.333L476.333 701.667L475.667 701.333M323 702L324 703L323 702M473 702L474 703L473 702M325.667 703.333L326.333 703.667L325.667 703.333M470.667 703.333L471.333 703.667L470.667 703.333M328 704L329 705L328 704M468 704L469 705L468 704M331 705L332 706L331 705M465 705L466 706L465 705M334 706L335 707L334 706M462 706L463 707L462 706M337 707L338 708L337 707M459 707L460 708L459 707M340.667 708.333L341.333 708.667L340.667 708.333M455.667 708.333L456.333 708.667L455.667 708.333M344 709L345 710L344 709M452.667 709.333L453.333 709.667L452.667 709.333M347.667 710.333L348.333 710.667L347.667 710.333M448.667 710.333L449.333 710.667L448.667 710.333M351 711L351 712L354 712L351 711M444.667 711.333L445.333 711.667L444.667 711.333M356.667 712.333L357.333 712.667L356.667 712.333M439 712L439 713L442 713L439 712M361 713L361 714L364 714L361 713M434 713L434 714L437 714L434 713M366 714L366 715L370 715L366 714M427 714L427 715L431 715L427 714M374 715L374 716L378 716L374 715M419 715L419 716L424 716L419 715M384 716L384 717L397 717L384 716M400 716L400 717L413 717L400 716z"/>
</svg>
