<?xml version="1.0" standalone="yes"?>
<svg xmlns="http://www.w3.org/2000/svg" width="1024" height="1024">
<path style="fill:#29b573; stroke:none;" d="M0 0L0 1024L1024 1024L1024 0L0 0z"/>
<path style="fill:#3e8468; stroke:none;" d="M157 321L157 322L270 322C287.698 322 308.77 318.898 326 323L312 321L280 321L157 321z"/>
<path style="fill:#369c6d; stroke:none;" d="M325 321L326 322L325 321z"/>
<path style="fill:#3e8468; stroke:none;" d="M436 321L436 322L603 322C590.117 316.594 567.038 321 553 321L436 321z"/>
<path style="fill:#436f65; stroke:none;" d="M157 322L157 620L270 620L270 456L271 456L283.849 504L316 620L411 620C418.854 620 439.071 623.653 445.437 618.972C448.27 616.889 448.8 611.163 449.709 608C452.578 598.016 455.308 587.995 458.14 578C465.322 552.664 472.436 527.308 479.709 502C483.916 487.361 489.965 472.099 492 457L493 457L493 620L603 620L603 322L436 322L417.651 399L382 546L380 546L339.627 380L329.373 338L324.436 323.028L312 322L280 322L157 322z"/>
<path style="fill:#369c6d; stroke:none;" d="M435.333 323.667L435.667 324.333L435.333 323.667M326.333 324.667L326.667 325.333L326.333 324.667z"/>
<path style="fill:#3e8468; stroke:none;" d="M435 325L436 326L435 325M326 326L327 327L326 326z"/>
<path style="fill:#369c6d; stroke:none;" d="M327.333 328.667L327.667 329.333L327.333 328.667M434 328L435 329L434 328z"/>
<path style="fill:#3e8468; stroke:none;" d="M434 329L435 330L434 329M327 330L328 331L327 330z"/>
<path style="fill:#369c6d; stroke:none;" d="M328.333 332.667L328.667 333.333L328.333 332.667M433 332L434 333L433 332z"/>
<path style="fill:#3e8468; stroke:none;" d="M433 333L434 334L433 333M328 334L329 335L328 334z"/>
<path style="fill:#369c6d; stroke:none;" d="M329.333 336.667L329.667 337.333L329.333 336.667M432 336L433 337L432 336z"/>
<path style="fill:#3e8468; stroke:none;" d="M432 337L433 338L432 337M329 338L330 339L329 338z"/>
<path style="fill:#369c6d; stroke:none;" d="M431 340L432 341L431 340M330 341L331 342L330 341z"/>
<path style="fill:#3e8468; stroke:none;" d="M431.333 341.667L431.667 342.333L431.333 341.667z"/>
<path style="fill:#ffffff; stroke:none;" d="M637 341L637 682C655.247 674.286 671.946 657.017 688 645.424C727.947 616.579 767.52 587.109 807 557.626C820.287 547.703 833.506 537.638 847 528C853.514 523.348 863.32 518.246 867 511C816.157 474.478 766.081 436.688 716 399.127C690.404 379.929 664.781 356.829 637 341z"/>
<path style="fill:#3e8468; stroke:none;" d="M330 342L331 343L330 342z"/>
<path style="fill:#369c6d; stroke:none;" d="M430.333 344.667L430.667 345.333L430.333 344.667M331 345L332 346L331 345z"/>
<path style="fill:#3e8468; stroke:none;" d="M331 346L332 347L331 346M430 346L431 347L430 346z"/>
<path style="fill:#369c6d; stroke:none;" d="M429.333 348.667L429.667 349.333L429.333 348.667M332 349L333 350L332 349z"/>
<path style="fill:#3e8468; stroke:none;" d="M332 350L333 351L332 350M429 350L430 351L429 350z"/>
<path style="fill:#369c6d; stroke:none;" d="M428.333 352.667L428.667 353.333L428.333 352.667M333 353L334 354L333 353z"/>
<path style="fill:#3e8468; stroke:none;" d="M333.333 354.667L333.667 355.333L333.333 354.667M428 354L429 355L428 354z"/>
<path style="fill:#369c6d; stroke:none;" d="M427.333 356.667L427.667 357.333L427.333 356.667M334.333 357.667L334.667 358.333L334.333 357.667z"/>
<path style="fill:#3e8468; stroke:none;" d="M427 358L428 359L427 358M334 359L335 360L334 359z"/>
<path style="fill:#369c6d; stroke:none;" d="M335.333 361.667L335.667 362.333L335.333 361.667M426 361L427 362L426 361z"/>
<path style="fill:#3e8468; stroke:none;" d="M426 362L427 363L426 362M335 363L336 364L335 363z"/>
<path style="fill:#369c6d; stroke:none;" d="M336.333 365.667L336.667 366.333L336.333 365.667M425 365L426 366L425 365z"/>
<path style="fill:#3e8468; stroke:none;" d="M425 366L426 367L425 366M336 367L337 368L336 367z"/>
<path style="fill:#369c6d; stroke:none;" d="M337.333 369.667L337.667 370.333L337.333 369.667M424 369L425 370L424 369z"/>
<path style="fill:#3e8468; stroke:none;" d="M424.333 370.667L424.667 371.333L424.333 370.667M337 371L338 372L337 371z"/>
<path style="fill:#369c6d; stroke:none;" d="M338.333 373.667L338.667 374.333L338.333 373.667M423 373L424 374L423 373z"/>
<path style="fill:#3e8468; stroke:none;" d="M423.333 374.667L423.667 375.333L423.333 374.667M338 375L339 376L338 375z"/>
<path style="fill:#369c6d; stroke:none;" d="M422.333 377.667L422.667 378.333L422.333 377.667M339 378L340 379L339 378z"/>
<path style="fill:#3e8468; stroke:none;" d="M339 379L340 380L339 379M422 379L423 380L422 379z"/>
<path style="fill:#369c6d; stroke:none;" d="M421.333 381.667L421.667 382.333L421.333 381.667M340 382L341 383L340 382z"/>
<path style="fill:#3e8468; stroke:none;" d="M340 383L341 384L340 383M421 383L422 384L421 383z"/>
<path style="fill:#369c6d; stroke:none;" d="M420.333 385.667L420.667 386.333L420.333 385.667M341 386L342 387L341 386z"/>
<path style="fill:#3e8468; stroke:none;" d="M341 387L342 388L341 387M420 387L421 388L420 387z"/>
<path style="fill:#369c6d; stroke:none;" d="M419.333 389.667L419.667 390.333L419.333 389.667M342 390L343 391L342 390z"/>
<path style="fill:#3e8468; stroke:none;" d="M342.333 391.667L342.667 392.333L342.333 391.667M419 391L420 392L419 391z"/>
<path style="fill:#369c6d; stroke:none;" d="M343.333 394.667L343.667 395.333L343.333 394.667M418 394L419 395L418 394z"/>
<path style="fill:#3e8468; stroke:none;" d="M418 395L419 396L418 395M343 396L344 397L343 396z"/>
<path style="fill:#369c6d; stroke:none;" d="M344.333 398.667L344.667 399.333L344.333 398.667M417 398L418 399L417 398z"/>
<path style="fill:#3e8468; stroke:none;" d="M417 399L418 400L417 399M344 400L345 401L344 400z"/>
<path style="fill:#369c6d; stroke:none;" d="M345.333 402.667L345.667 403.333L345.333 402.667M416 402L417 403L416 402z"/>
<path style="fill:#3e8468; stroke:none;" d="M416.333 403.667L416.667 404.333L416.333 403.667M345 404L346 405L345 404z"/>
<path style="fill:#369c6d; stroke:none;" d="M346.333 406.667L346.667 407.333L346.333 406.667M415.333 406.667L415.667 407.333L415.333 406.667z"/>
<path style="fill:#3e8468; stroke:none;" d="M346 408L347 409L346 408M415 408L416 409L415 408z"/>
<path style="fill:#369c6d; stroke:none;" d="M347.333 410.667L347.667 411.333L347.333 410.667M414.333 410.667L414.667 411.333L414.333 410.667z"/>
<path style="fill:#3e8468; stroke:none;" d="M347 412L348 413L347 412M414 412L415 413L414 412z"/>
<path style="fill:#369c6d; stroke:none;" d="M348.333 414.667L348.667 415.333L348.333 414.667M413.333 414.667L413.667 415.333L413.333 414.667z"/>
<path style="fill:#3e8468; stroke:none;" d="M348 416L349 417L348 416M413 416L414 417L413 416z"/>
<path style="fill:#369c6d; stroke:none;" d="M412.333 418.667L412.667 419.333L412.333 418.667M349 419L350 420L349 419z"/>
<path style="fill:#3e8468; stroke:none;" d="M349 420L350 421L349 420M412 420L413 421L412 420z"/>
<path style="fill:#369c6d; stroke:none;" d="M411.333 422.667L411.667 423.333L411.333 422.667M350 423L351 424L350 423z"/>
<path style="fill:#3e8468; stroke:none;" d="M350 424L351 425L350 424M411 424L412 425L411 424z"/>
<path style="fill:#369c6d; stroke:none;" d="M351 427L352 428L351 427M410 427L411 428L410 427z"/>
<path style="fill:#3e8468; stroke:none;" d="M351 428L352 429L351 428M410 428L411 429L410 428z"/>
<path style="fill:#369c6d; stroke:none;" d="M352 431L353 432L352 431M409 431L410 432L409 431z"/>
<path style="fill:#3e8468; stroke:none;" d="M352.333 432.667L352.667 433.333L352.333 432.667M409 432L410 433L409 432z"/>
<path style="fill:#369c6d; stroke:none;" d="M353.333 435.667L353.667 436.333L353.333 435.667M408 435L409 436L408 435z"/>
<path style="fill:#3e8468; stroke:none;" d="M408.333 436.667L408.667 437.333L408.333 436.667M353 437L354 438L353 437z"/>
<path style="fill:#369c6d; stroke:none;" d="M354.333 439.667L354.667 440.333L354.333 439.667M407.333 439.667L407.667 440.333L407.333 439.667z"/>
<path style="fill:#3e8468; stroke:none;" d="M354 441L355 442L354 441M407 441L408 442L407 441z"/>
<path style="fill:#369c6d; stroke:none;" d="M355.333 443.667L355.667 444.333L355.333 443.667M406.333 443.667L406.667 444.333L406.333 443.667z"/>
<path style="fill:#3e8468; stroke:none;" d="M355 445L356 446L355 445M406 445L407 446L406 445z"/>
<path style="fill:#369c6d; stroke:none;" d="M356.333 447.667L356.667 448.333L356.333 447.667M405.333 447.667L405.667 448.333L405.333 447.667z"/>
<path style="fill:#3e8468; stroke:none;" d="M356 449L357 450L356 449M405 449L406 450L405 449z"/>
<path style="fill:#369c6d; stroke:none;" d="M357.333 451.667L357.667 452.333L357.333 451.667M404.333 451.667L404.667 452.333L404.333 451.667z"/>
<path style="fill:#3e8468; stroke:none;" d="M357 453L358 454L357 453M404 453L405 454L404 453M270 456L271 457L270 456z"/>
<path style="fill:#369c6d; stroke:none;" d="M358 456L359 457L358 456M403 456L404 457L403 456M270.333 457.667L270.667 458.333L270.333 457.667z"/>
<path style="fill:#3e8468; stroke:none;" d="M358 457L359 458L358 457M403 457L404 458L403 457M492 457L493 458L492 457z"/>
<path style="fill:#369c6d; stroke:none;" d="M492 458L493 459L492 458z"/>
<path style="fill:#29b573; stroke:none;" d="M703 458L703 494L667 494L667 531L703 531L703 565L740 565L740 531L776 531L776 494L740 494L740 458L703 458z"/>
<path style="fill:#3e8468; stroke:none;" d="M271 460L272 461L271 460z"/>
<path style="fill:#369c6d; stroke:none;" d="M359 460L360 461L359 460M402 460L403 461L402 460z"/>
<path style="fill:#3e8468; stroke:none;" d="M491 460L492 461L491 460z"/>
<path style="fill:#369c6d; stroke:none;" d="M271 461L272 462L271 461z"/>
<path style="fill:#3e8468; stroke:none;" d="M359 461L360 462L359 461M402 461L403 462L402 461z"/>
<path style="fill:#369c6d; stroke:none;" d="M491 461L492 462L491 461M272.333 464.667L272.667 465.333L272.333 464.667M360 464L361 465L360 464M401 464L402 465L401 464M490.333 464.667L490.667 465.333L490.333 464.667z"/>
<path style="fill:#3e8468; stroke:none;" d="M360 465L361 466L360 465M401 465L402 466L401 465M273 467L274 468L273 467M489 467L490 468L489 467z"/>
<path style="fill:#369c6d; stroke:none;" d="M273 468L274 469L273 468M361 468L362 469L361 468M400 468L401 469L400 468M489 468L490 469L489 468z"/>
<path style="fill:#3e8468; stroke:none;" d="M361.333 469.667L361.667 470.333L361.333 469.667M400.333 469.667L400.667 470.333L400.333 469.667M274 471L275 472L274 471M488 471L489 472L488 471z"/>
<path style="fill:#369c6d; stroke:none;" d="M274 472L275 473L274 472M362.333 472.667L362.667 473.333L362.333 472.667M399.333 472.667L399.667 473.333L399.333 472.667M488 472L489 473L488 472z"/>
<path style="fill:#3e8468; stroke:none;" d="M275 474L276 475L275 474M362 474L363 475L362 474M399 474L400 475L399 474M487 474L488 475L487 474z"/>
<path style="fill:#369c6d; stroke:none;" d="M275 475L276 476L275 475M487 475L488 476L487 475M363.333 476.667L363.667 477.333L363.333 476.667M398.333 476.667L398.667 477.333L398.333 476.667z"/>
<path style="fill:#3e8468; stroke:none;" d="M276 478L277 479L276 478M363 478L364 479L363 478M398 478L399 479L398 478M486 478L487 479L486 478z"/>
<path style="fill:#369c6d; stroke:none;" d="M276 479L277 480L276 479M486 479L487 480L486 479M364.333 480.667L364.667 481.333L364.333 480.667M397.333 480.667L397.667 481.333L397.333 480.667z"/>
<path style="fill:#3e8468; stroke:none;" d="M277 481L278 482L277 481M485 481L486 482L485 481z"/>
<path style="fill:#369c6d; stroke:none;" d="M277 482L278 483L277 482z"/>
<path style="fill:#3e8468; stroke:none;" d="M364 482L365 483L364 482M397 482L398 483L397 482z"/>
<path style="fill:#369c6d; stroke:none;" d="M485 482L486 483L485 482M365.333 484.667L365.667 485.333L365.333 484.667M396.333 484.667L396.667 485.333L396.333 484.667z"/>
<path style="fill:#3e8468; stroke:none;" d="M278 485L279 486L278 485M484 485L485 486L484 485z"/>
<path style="fill:#369c6d; stroke:none;" d="M278 486L279 487L278 486z"/>
<path style="fill:#3e8468; stroke:none;" d="M365 486L366 487L365 486M396 486L397 487L396 486z"/>
<path style="fill:#369c6d; stroke:none;" d="M484 486L485 487L484 486z"/>
<path style="fill:#3e8468; stroke:none;" d="M279 488L280 489L279 488z"/>
<path style="fill:#369c6d; stroke:none;" d="M366.333 488.667L366.667 489.333L366.333 488.667z"/>
<path style="fill:#3e8468; stroke:none;" d="M483 488L484 489L483 488z"/>
<path style="fill:#369c6d; stroke:none;" d="M279.333 489.667L279.667 490.333L279.333 489.667M395 489L396 490L395 489M483 489L484 490L483 489z"/>
<path style="fill:#3e8468; stroke:none;" d="M366 490L367 491L366 490M395 490L396 491L395 490M280 492L281 493L280 492M482 492L483 493L482 492z"/>
<path style="fill:#369c6d; stroke:none;" d="M280 493L281 494L280 493M367 493L368 494L367 493M394 493L395 494L394 493M482 493L483 494L482 493z"/>
<path style="fill:#3e8468; stroke:none;" d="M367 494L368 495L367 494M394 494L395 495L394 494M281 495L282 496L281 495M481 495L482 496L481 495z"/>
<path style="fill:#369c6d; stroke:none;" d="M281.333 496.667L281.667 497.333L281.333 496.667M481.333 496.667L481.667 497.333L481.333 496.667M368 497L369 498L368 497M393 497L394 498L393 497z"/>
<path style="fill:#3e8468; stroke:none;" d="M368 498L369 499L368 498M393 498L394 499L393 498M282 499L283 500L282 499M480 499L481 500L480 499z"/>
<path style="fill:#369c6d; stroke:none;" d="M282 500L283 501L282 500M480 500L481 501L480 500M369 501L370 502L369 501M392 501L393 502L392 501z"/>
<path style="fill:#3e8468; stroke:none;" d="M283 502L284 503L283 502M369 502L370 503L369 502M392.333 502.667L392.667 503.333L392.333 502.667M479 502L480 503L479 502z"/>
<path style="fill:#369c6d; stroke:none;" d="M283.333 503.667L283.667 504.333L283.333 503.667M479.333 503.667L479.667 504.333L479.333 503.667M370 505L371 506L370 505M391.333 505.667L391.667 506.333L391.333 505.667z"/>
<path style="fill:#3e8468; stroke:none;" d="M284 506L285 507L284 506M370.333 506.667L370.667 507.333L370.333 506.667M478 506L479 507L478 506z"/>
<path style="fill:#369c6d; stroke:none;" d="M284 507L285 508L284 507z"/>
<path style="fill:#3e8468; stroke:none;" d="M391 507L392 508L391 507z"/>
<path style="fill:#369c6d; stroke:none;" d="M478 507L479 508L478 507M371 509L372 510L371 509M390.333 509.667L390.667 510.333L390.333 509.667z"/>
<path style="fill:#3e8468; stroke:none;" d="M477 509L478 510L477 509M285 510L286 511L285 510M371.333 510.667L371.667 511.333L371.333 510.667z"/>
<path style="fill:#369c6d; stroke:none;" d="M477.333 510.667L477.667 511.333L477.333 510.667M285 511L286 512L285 511z"/>
<path style="fill:#3e8468; stroke:none;" d="M390 511L391 512L390 511M286 513L287 514L286 513z"/>
<path style="fill:#369c6d; stroke:none;" d="M372.333 513.667L372.667 514.333L372.333 513.667M389.333 513.667L389.667 514.333L389.333 513.667z"/>
<path style="fill:#3e8468; stroke:none;" d="M476 513L477 514L476 513z"/>
<path style="fill:#369c6d; stroke:none;" d="M286.333 514.667L286.667 515.333L286.333 514.667M476 514L477 515L476 514z"/>
<path style="fill:#3e8468; stroke:none;" d="M372 515L373 516L372 515M389 515L390 516L389 515M475 516L476 517L475 516M287 517L288 518L287 517z"/>
<path style="fill:#369c6d; stroke:none;" d="M373.333 517.667L373.667 518.333L373.333 517.667M388.333 517.667L388.667 518.333L388.333 517.667M475.333 517.667L475.667 518.333L475.333 517.667M287 518L288 519L287 518z"/>
<path style="fill:#3e8468; stroke:none;" d="M373 519L374 520L373 519M388 519L389 520L388 519M288 520L289 521L288 520M474 520L475 521L474 520z"/>
<path style="fill:#369c6d; stroke:none;" d="M288.333 521.667L288.667 522.333L288.333 521.667M374.333 521.667L374.667 522.333L374.333 521.667M474 521L475 522L474 521M387 522L388 523L387 522z"/>
<path style="fill:#3e8468; stroke:none;" d="M374 523L375 524L374 523M387 523L388 524L387 523M473 523L474 524L473 523M289 524L290 525L289 524z"/>
<path style="fill:#369c6d; stroke:none;" d="M473.333 524.667L473.667 525.333L473.333 524.667M289 525L290 526L289 525M375.333 525.667L375.667 526.333L375.333 525.667M386 526L387 527L386 526z"/>
<path style="fill:#3e8468; stroke:none;" d="M375 527L376 528L375 527M386 527L387 528L386 527M472 527L473 528L472 527M290 528L291 529L290 528z"/>
<path style="fill:#369c6d; stroke:none;" d="M472 528L473 529L472 528M290 529L291 530L290 529M376.333 529.667L376.667 530.333L376.333 529.667M385 530L386 531L385 530z"/>
<path style="fill:#3e8468; stroke:none;" d="M291 531L292 532L291 531M376 531L377 532L376 531M385 531L386 532L385 531z"/>
<path style="fill:#369c6d; stroke:none;" d="M471.333 531.667L471.667 532.333L471.333 531.667M291 532L292 533L291 532M377 534L378 535L377 534M384 534L385 535L384 534z"/>
<path style="fill:#3e8468; stroke:none;" d="M470 534L471 535L470 534M292 535L293 536L292 535M377 535L378 536L377 535M384.333 535.667L384.667 536.333L384.333 535.667z"/>
<path style="fill:#369c6d; stroke:none;" d="M470 535L471 536L470 535M292 536L293 537L292 536z"/>
<path style="fill:#3e8468; stroke:none;" d="M293 538L294 539L293 538z"/>
<path style="fill:#369c6d; stroke:none;" d="M378 538L379 539L378 538M383.333 538.667L383.667 539.333L383.333 538.667z"/>
<path style="fill:#3e8468; stroke:none;" d="M469 538L470 539L469 538z"/>
<path style="fill:#369c6d; stroke:none;" d="M293.333 539.667L293.667 540.333L293.333 539.667z"/>
<path style="fill:#3e8468; stroke:none;" d="M378 539L379 540L378 539z"/>
<path style="fill:#369c6d; stroke:none;" d="M469 539L470 540L469 539z"/>
<path style="fill:#3e8468; stroke:none;" d="M383 540L384 541L383 540M468 541L469 542L468 541M294 542L295 543L294 542z"/>
<path style="fill:#369c6d; stroke:none;" d="M379 542L380 543L379 542M382.333 542.667L382.667 543.333L382.333 542.667M468 542L469 543L468 542M294 543L295 544L294 543z"/>
<path style="fill:#3e8468; stroke:none;" d="M379 543L380 544L379 543M382 544L383 545L382 544M295 545L296 546L295 545z"/>
<path style="fill:#369c6d; stroke:none;" d="M380.667 545.333L381.333 545.667L380.667 545.333z"/>
<path style="fill:#3e8468; stroke:none;" d="M467 545L468 546L467 545z"/>
<path style="fill:#369c6d; stroke:none;" d="M295.333 546.667L295.667 547.333L295.333 546.667M467 546L468 547L467 546z"/>
<path style="fill:#3e8468; stroke:none;" d="M466 548L467 549L466 548M296 549L297 550L296 549z"/>
<path style="fill:#369c6d; stroke:none;" d="M466 549L467 550L466 549M296 550L297 551L296 550z"/>
<path style="fill:#3e8468; stroke:none;" d="M465 552L466 553L465 552M297 553L298 554L297 553z"/>
<path style="fill:#369c6d; stroke:none;" d="M465 553L466 554L465 553M297 554L298 555L297 554z"/>
<path style="fill:#3e8468; stroke:none;" d="M464 555L465 556L464 555M298 556L299 557L298 556z"/>
<path style="fill:#369c6d; stroke:none;" d="M464 556L465 557L464 556M298.333 557.667L298.667 558.333L298.333 557.667z"/>
<path style="fill:#3e8468; stroke:none;" d="M463 559L464 560L463 559M299 560L300 561L299 560z"/>
<path style="fill:#369c6d; stroke:none;" d="M463 560L464 561L463 560M299 561L300 562L299 561z"/>
<path style="fill:#3e8468; stroke:none;" d="M462 562L463 563L462 562M300 563L301 564L300 563z"/>
<path style="fill:#369c6d; stroke:none;" d="M462.333 563.667L462.667 564.333L462.333 563.667M300.333 564.667L300.667 565.333L300.333 564.667z"/>
<path style="fill:#3e8468; stroke:none;" d="M461 566L462 567L461 566M301 567L302 568L301 567z"/>
<path style="fill:#369c6d; stroke:none;" d="M461 567L462 568L461 567M301 568L302 569L301 568z"/>
<path style="fill:#3e8468; stroke:none;" d="M460 569L461 570L460 569z"/>
<path style="fill:#369c6d; stroke:none;" d="M460.333 570.667L460.667 571.333L460.333 570.667z"/>
<path style="fill:#3e8468; stroke:none;" d="M302 571L303 572L302 571z"/>
<path style="fill:#369c6d; stroke:none;" d="M302 572L303 573L302 572z"/>
<path style="fill:#3e8468; stroke:none;" d="M459 573L460 574L459 573M303 574L304 575L303 574z"/>
<path style="fill:#369c6d; stroke:none;" d="M459 574L460 575L459 574M303.333 575.667L303.667 576.333L303.333 575.667z"/>
<path style="fill:#3e8468; stroke:none;" d="M458 576L459 577L458 576z"/>
<path style="fill:#369c6d; stroke:none;" d="M458.333 577.667L458.667 578.333L458.333 577.667z"/>
<path style="fill:#3e8468; stroke:none;" d="M304 578L305 579L304 578z"/>
<path style="fill:#369c6d; stroke:none;" d="M304 579L305 580L304 579z"/>
<path style="fill:#3e8468; stroke:none;" d="M457 580L458 581L457 580M305 581L306 582L305 581z"/>
<path style="fill:#369c6d; stroke:none;" d="M457 581L458 582L457 581M305.333 582.667L305.667 583.333L305.333 582.667z"/>
<path style="fill:#3e8468; stroke:none;" d="M456 583L457 584L456 583z"/>
<path style="fill:#369c6d; stroke:none;" d="M456.333 584.667L456.667 585.333L456.333 584.667z"/>
<path style="fill:#3e8468; stroke:none;" d="M306 585L307 586L306 585z"/>
<path style="fill:#369c6d; stroke:none;" d="M306 586L307 587L306 586z"/>
<path style="fill:#3e8468; stroke:none;" d="M455 587L456 588L455 587z"/>
<path style="fill:#369c6d; stroke:none;" d="M455 588L456 589L455 588z"/>
<path style="fill:#3e8468; stroke:none;" d="M307 589L308 590L307 589z"/>
<path style="fill:#369c6d; stroke:none;" d="M307 590L308 591L307 590z"/>
<path style="fill:#3e8468; stroke:none;" d="M454 590L455 591L454 590z"/>
<path style="fill:#369c6d; stroke:none;" d="M454.333 591.667L454.667 592.333L454.333 591.667z"/>
<path style="fill:#3e8468; stroke:none;" d="M308 592L309 593L308 592z"/>
<path style="fill:#369c6d; stroke:none;" d="M308 593L309 594L308 593z"/>
<path style="fill:#3e8468; stroke:none;" d="M453 594L454 595L453 594z"/>
<path style="fill:#369c6d; stroke:none;" d="M453 595L454 596L453 595z"/>
<path style="fill:#3e8468; stroke:none;" d="M309 596L310 597L309 596z"/>
<path style="fill:#369c6d; stroke:none;" d="M309 597L310 598L309 597z"/>
<path style="fill:#3e8468; stroke:none;" d="M452 598L453 599L452 598M310 599L311 600L310 599z"/>
<path style="fill:#369c6d; stroke:none;" d="M452 599L453 600L452 599M310.333 600.667L310.667 601.333L310.333 600.667z"/>
<path style="fill:#3e8468; stroke:none;" d="M451 601L452 602L451 601z"/>
<path style="fill:#369c6d; stroke:none;" d="M451 602L452 603L451 602z"/>
<path style="fill:#3e8468; stroke:none;" d="M311 603L312 604L311 603z"/>
<path style="fill:#369c6d; stroke:none;" d="M311 604L312 605L311 604z"/>
<path style="fill:#3e8468; stroke:none;" d="M450 605L451 606L450 605z"/>
<path style="fill:#369c6d; stroke:none;" d="M450 606L451 607L450 606z"/>
<path style="fill:#3e8468; stroke:none;" d="M312 607L313 608L312 607z"/>
<path style="fill:#369c6d; stroke:none;" d="M312 608L313 609L312 608z"/>
<path style="fill:#3e8468; stroke:none;" d="M449 608L450 609L449 608z"/>
<path style="fill:#369c6d; stroke:none;" d="M449 609L450 610L449 609z"/>
<path style="fill:#3e8468; stroke:none;" d="M313 610L314 611L313 610z"/>
<path style="fill:#369c6d; stroke:none;" d="M313 611L314 612L313 611z"/>
<path style="fill:#3e8468; stroke:none;" d="M448 612L449 613L448 612z"/>
<path style="fill:#369c6d; stroke:none;" d="M448 613L449 614L448 613z"/>
<path style="fill:#3e8468; stroke:none;" d="M314 614L315 615L314 614z"/>
<path style="fill:#369c6d; stroke:none;" d="M314 615L315 616L314 615z"/>
<path style="fill:#3e8468; stroke:none;" d="M447 615L448 616L447 615z"/>
<path style="fill:#369c6d; stroke:none;" d="M447 616L448 617L447 616z"/>
<path style="fill:#3e8468; stroke:none;" d="M315 617L316 618L315 617z"/>
<path style="fill:#369c6d; stroke:none;" d="M315.333 618.667L315.667 619.333L315.333 618.667z"/>
<path style="fill:#3e8468; stroke:none;" d="M446 619L404 620L316 620L316 621L404 621L447 620L446 619M157 620L157 621L270 621L236 620L157 620z"/>
<path style="fill:#369c6d; stroke:none;" d="M446 620L447 621L446 620z"/>
<path style="fill:#3e8468; stroke:none;" d="M493 620L493 621L603 621L569 620L493 620z"/>
<path style="fill:#ffffff; stroke:none;" d="M328 651.468C295.275 657.652 306.242 707.723 339 701.532C371.455 695.399 360.22 645.379 328 651.468M157 653L157 701L172 701L172 674L173 674L188 693L200 675L201 675L201 701L217 701L217 653C202.128 653 196.4 658.715 188 671C176.776 659.682 173.531 653 157 653M444 653L444 665L467 665L445 701L492 701L492 691L469 691L493 653L444 653M587 653L587 702L603 702L603 653L587 653z"/>
<path style="fill:#29b573; stroke:none;" d="M330.015 666.653C317.652 670.613 323.405 690.655 335.999 687.307C350.218 683.527 344.272 662.085 330.015 666.653z"/>
</svg>
