<?xml version="1.0" standalone="yes"?>
<svg xmlns="http://www.w3.org/2000/svg" width="1024" height="1024">
<path style="fill:#010101; stroke:none;" d="M0 0L0 1024L1024 1024L1024 0L0 0z"/>
<path style="fill:#a24823; stroke:none;" d="M758 438L751 455L752 455L754 449L755 449L755 453L756 453L763 443L761 438L758 438z"/>
<path style="fill:#e16e29; stroke:none;" d="M760 439L761 440L760 439z"/>
<path style="fill:#f08a33; stroke:none;" d="M761 439C764.568 444.816 773.796 446.901 780 449L780 450L766 446L766 447L768 448L767 450L764 449L764 460L770 461L770 462L772 462L772 463C769.666 464.015 771.09 464.421 773 465L773 469C765.347 472.003 758.667 479.374 754 486L771 471L771 488C778.656 488 794.526 485.032 800.61 490.448C807.435 496.525 806.582 511.055 816 514C820.118 501.804 819.049 486.069 814 474L820 476L821 473L810 461L823 465L823 464L761 439z"/>
<path style="fill:#e16e29; stroke:none;" d="M762 439L763 440L762 439z"/>
<path style="fill:#a24823; stroke:none;" d="M763 439L764 440L763 439z"/>
<path style="fill:#e16e29; stroke:none;" d="M765 440L766 441L765 440z"/>
<path style="fill:#a24823; stroke:none;" d="M766 440L767 441L766 440z"/>
<path style="fill:#e16e29; stroke:none;" d="M762 441L763 442L762 441z"/>
<path style="fill:#a24823; stroke:none;" d="M768 441L769 442L768 441z"/>
<path style="fill:#fcfcfc; stroke:none;" d="M541 442L541 453L553 453L553 442L541 442M563 442L563 555L575 555L575 514C589.988 530.272 604.501 556 628 556C617.771 541.306 601.582 522.357 587 512L587 511C599.264 500.283 612.877 483.119 621 469L608.015 470.028L596.999 482L576 509L575 509L575 442L563 442z"/>
<path style="fill:#e16e29; stroke:none;" d="M756 453L755 453L755 449L754 449L739.031 483L738 496L738 497L733 505L734 505L736 499L737 499L737 508L738 508L740 502L741 502L741 543L737 542L737 546L733 545L733 546L803 578C800.918 565.191 781.91 558.119 771 555C770.418 550.173 758.303 545.993 755.366 540C750.316 529.697 752.042 511.228 753 500L744 501L744 543L743 543C743 530.127 739.156 510.063 743.603 498C747.181 488.297 764.248 474.044 773 469L773 465L772 463L772 462L770 462L770 461L764 460L764 449L767 450L768 448L766 447L766 446L780 450C771.021 441.92 759.732 440.046 756 453M770 442L771 443L770 442z"/>
<path style="fill:#a24823; stroke:none;" d="M771 442L772 443L771 442z"/>
<path style="fill:#e16e29; stroke:none;" d="M772 443L773 444L772 443z"/>
<path style="fill:#a24823; stroke:none;" d="M773 443L774 444L773 443z"/>
<path style="fill:#e16e29; stroke:none;" d="M775 444L776 445L775 444z"/>
<path style="fill:#a24823; stroke:none;" d="M776 444L777 445L776 444M778 445L779 446L778 445z"/>
<path style="fill:#e16e29; stroke:none;" d="M780 446L781 447L780 446z"/>
<path style="fill:#a24823; stroke:none;" d="M781 446L782 447L781 446z"/>
<path style="fill:#f08a33; stroke:none;" d="M764 447L765 448L764 447z"/>
<path style="fill:#e16e29; stroke:none;" d="M782 447L783 448L782 447z"/>
<path style="fill:#a24823; stroke:none;" d="M783 447L784 448L783 447z"/>
<path style="fill:#e16e29; stroke:none;" d="M785 448L786 449L785 448z"/>
<path style="fill:#a24823; stroke:none;" d="M786 448L787 449L786 448z"/>
<path style="fill:#e16e29; stroke:none;" d="M787 449L788 450L787 449z"/>
<path style="fill:#a24823; stroke:none;" d="M788 449L789 450L788 449z"/>
<path style="fill:#e16e29; stroke:none;" d="M767 450L768 451L767 450M790 450L791 451L790 450M792 451L793 452L792 451z"/>
<path style="fill:#a24823; stroke:none;" d="M793 451L794 452L793 451M795 452L796 453L795 452z"/>
<path style="fill:#e16e29; stroke:none;" d="M797 453L798 454L797 453z"/>
<path style="fill:#a24823; stroke:none;" d="M798 453L799 454L798 453M800 454L801 455L800 454z"/>
<path style="fill:#e16e29; stroke:none;" d="M802 455L803 456L802 455z"/>
<path style="fill:#a24823; stroke:none;" d="M803 455L804 456L803 455M750 456L751 457L750 456M805 456L806 457L805 456z"/>
<path style="fill:#e16e29; stroke:none;" d="M807 457L808 458L807 457z"/>
<path style="fill:#a24823; stroke:none;" d="M808 457L809 458L808 457M749 458L750 459L749 458z"/>
<path style="fill:#e16e29; stroke:none;" d="M809 458L810 459L809 458z"/>
<path style="fill:#a24823; stroke:none;" d="M810 458L811 459L810 458M812.667 459.333L813.333 459.667L812.667 459.333M748.333 460.667L748.667 461.333L748.333 460.667z"/>
<path style="fill:#e16e29; stroke:none;" d="M814 460L815 461L814 460z"/>
<path style="fill:#a24823; stroke:none;" d="M815 460L816 461L815 460z"/>
<path style="fill:#e16e29; stroke:none;" d="M810 461C812.684 466.474 814.872 471.159 821 473L820 476L814 474L820 507L821 507C820.499 503.994 820.301 501.325 823 502L825 497L824 494L826 495L827 488L847 487C846.059 491.471 834.974 509.391 840 510L840 511L839 513C829.793 515.879 822.982 540.24 820 549L829 541L828 559L829 559C833.461 551.357 839.581 528.914 848 526L847 523L848 521L857 503L856 503L855 506L854 506L850 475L827 465L824 466L825 464L810 461M816 461L817 462L816 461z"/>
<path style="fill:#a24823; stroke:none;" d="M817 461L818 462L817 461M747.333 462.667L747.667 463.333L747.333 462.667z"/>
<path style="fill:#e16e29; stroke:none;" d="M819 462L820 463L819 462z"/>
<path style="fill:#a24823; stroke:none;" d="M820 462L821 463L820 462z"/>
<path style="fill:#e16e29; stroke:none;" d="M821 463L822 464L821 463z"/>
<path style="fill:#a24823; stroke:none;" d="M822 463L823 464L822 463M825 464L826 465L825 464M746 465L747 466L746 465z"/>
<path style="fill:#f08a33; stroke:none;" d="M824.667 465.333L825.333 465.667L824.667 465.333z"/>
<path style="fill:#a24823; stroke:none;" d="M827 465L828 466L827 465z"/>
<path style="fill:#e16e29; stroke:none;" d="M773 466L774 467L773 466z"/>
<path style="fill:#f08a33; stroke:none;" d="M827 466L828 467L827 466z"/>
<path style="fill:#a24823; stroke:none;" d="M829.667 466.333L830.333 466.667L829.667 466.333z"/>
<path style="fill:#fcfcfc; stroke:none;" d="M168 484L167 484L167 468L157 468L157 555L168 555L168 516C168 508.983 166.972 501.415 170.328 495C179.623 477.23 206.404 467.031 217.95 489C221.33 495.432 220 503.971 220 511L220 555L232 555L232 516C232 508.913 231.103 501.485 234.494 495C243.838 477.127 269.798 467.337 281.583 489C285.156 495.568 284 503.795 284 511L284 555L296 555L296 508C296 499.183 297.024 489.973 292.468 482C280.1 460.359 239.938 461.531 230 485C218.164 465.752 177.607 455.74 168 484M467 539C467.003 565.453 520.799 562.171 530.427 542C545.133 511.193 498.212 509.983 485.533 495.699C472.611 481.142 499.504 475.988 509 477.156C515.307 477.931 520.889 480.552 527 482C526.982 458.946 477.312 463.908 470.854 483C460.591 513.342 505.73 511.556 517.347 528.015C529.388 545.076 496.775 548.868 487 546.789C479.738 545.245 473.854 541.494 467 539z"/>
<path style="fill:#a24823; stroke:none;" d="M745 467L746 468L745 467M832 467L833 468L832 467z"/>
<path style="fill:#fcfcfc; stroke:none;" d="M634 483C651.095 480.058 678.857 467.197 687.081 492C688.255 495.541 688 499.323 688 503C675.187 503 661.377 502.732 649 506.44C628.167 512.681 617.785 537.906 638.001 552.362C653.209 563.237 676.799 555.642 689 544L689 556L700 556L700 505C700 495.282 700.736 485.841 693.787 478.04C683.322 466.293 663.343 466.102 649 469.004C645.152 469.782 637.563 470.339 635.028 473.703C633.27 476.035 634 480.259 634 483z"/>
<path style="fill:#a24823; stroke:none;" d="M834.667 468.333L835.333 468.667L834.667 468.333z"/>
<path style="fill:#fcfcfc; stroke:none;" d="M308 469L308 518C308 527.026 306.903 536.091 312.108 544C324.62 563.009 365.025 562.458 373 539L374 539L374 556L384 556L384 469L373 469C373 486.46 378.532 515.528 369.826 531C360.147 548.199 333.261 554.94 322.417 535C318.845 528.431 320 520.206 320 513L320 469L308 469M397 469L397 478L440 478L409.8 527L393 556L460 556L460 546L412 546L458 469L397 469M541 469L541 555L553 555L553 469L541 469z"/>
<path style="fill:#a24823; stroke:none;" d="M744 469L745 470L744 469M837 469L838 470L837 469z"/>
<path style="fill:#e16e29; stroke:none;" d="M772 470L772 487L777 487L777 480L775 480L775 470L772 470z"/>
<path style="fill:#a24823; stroke:none;" d="M839.667 470.333L840.333 470.667L839.667 470.333M743.333 471.667L743.667 472.333L743.333 471.667M747 471L748 472L747 471z"/>
<path style="fill:#fcfcfc; stroke:none;" d="M743 500L754 500C754 512.613 749.727 534.646 758.394 544.907C764.48 552.113 787.035 557.502 793.972 548.297C796.14 545.421 795 539.414 795 536C790.339 537.272 785.546 539.717 780.576 539.029C765.998 537.012 771 510.256 771 500C774.692 500 780.365 498.958 783.61 501.028C787.2 503.318 788.808 509.295 790.424 513C794.239 521.743 798.498 530.462 802.753 539C804.477 542.46 806.089 548.772 809.418 550.972C817.396 556.245 820.953 545.145 823.309 540C831.224 522.714 839.695 505.547 847 488C842.188 488 833.564 486.339 829.394 489.028C819.564 495.366 820.208 515.541 812 524L801.719 498L795.786 488.603L771 488L771 471C762.099 475.151 745.681 490.447 743 500z"/>
<path style="fill:#a24823; stroke:none;" d="M841.667 471.333L842.333 471.667L841.667 471.333M844 472L845 473L844 472M746 473L747 474L746 473M846.667 473.333L847.333 473.667L846.667 473.333M742 474L743 475L742 474M848.667 474.333L849.333 474.667L848.667 474.333M745 475L746 476L745 475M854 506L855 506L858 504L867 481L850.657 476.132L851.602 483.83L854 506M741 476L742 477L741 476M744 477L741 485L742 485L744 477M740 478L741 479L740 478M739.333 480.667L739.667 481.333L739.333 480.667M738.333 482.667L738.667 483.333L738.333 482.667M737 485L738 486L737 485z"/>
<path style="fill:#f08a33; stroke:none;" d="M738 485L725 515L726 515C729.209 507.293 740.291 493.35 738 485z"/>
<path style="fill:#a24823; stroke:none;" d="M851 485L852 486L851 485z"/>
<path style="fill:#e16e29; stroke:none;" d="M737 486L738 487L737 486z"/>
<path style="fill:#a24823; stroke:none;" d="M740 486L737 494L738 494L740 486M736 487L737 488L736 487z"/>
<path style="fill:#f08a33; stroke:none;" d="M752 487L753 488L752 487M829 487L829 488L847 488L829 487z"/>
<path style="fill:#e16e29; stroke:none;" d="M736 488L737 489L736 488z"/>
<path style="fill:#f08a33; stroke:none;" d="M751 488L752 489L751 488z"/>
<path style="fill:#e16e29; stroke:none;" d="M798 488L812 523L813 523L815 521C813.911 517.733 814.346 515.337 817 516L817 515L798 488z"/>
<path style="fill:#a24823; stroke:none;" d="M827 488L828 489L827 488z"/>
<path style="fill:#f08a33; stroke:none;" d="M828 488L829 489L828 488z"/>
<path style="fill:#a24823; stroke:none;" d="M735 489L736 490L735 489z"/>
<path style="fill:#f08a33; stroke:none;" d="M750 489L751 490L750 489M846 489L847 490L846 489z"/>
<path style="fill:#a24823; stroke:none;" d="M848 489L847 494L848 494L848 489z"/>
<path style="fill:#e16e29; stroke:none;" d="M735 490L736 491L735 490z"/>
<path style="fill:#f08a33; stroke:none;" d="M749 490L750 491L749 490M798 490L799 491L798 490z"/>
<path style="fill:#a24823; stroke:none;" d="M826 490L825 494L826 494L826 490z"/>
<path style="fill:#f08a33; stroke:none;" d="M827 490L828 491L827 490z"/>
<path style="fill:#a24823; stroke:none;" d="M734.333 491.667L734.667 492.333L734.333 491.667z"/>
<path style="fill:#f08a33; stroke:none;" d="M748 491L749 492L748 491M845 491L846 492L845 491M747 492L748 493L747 492M799 492L800 493L799 492M826 492L827 493L826 492z"/>
<path style="fill:#e16e29; stroke:none;" d="M734 493L735 494L734 493z"/>
<path style="fill:#f08a33; stroke:none;" d="M746 493L747 494L746 493M844 493L845 494L844 493z"/>
<path style="fill:#a24823; stroke:none;" d="M733 494L734 495L733 494M736 494L723 522L717 530L718 533L716 532L717 535L715 534L716 537L713 542L764 562C762.453 552.639 738.138 547.456 730 544.2C726.989 542.995 721.616 541.848 719.993 538.725C718.26 535.391 721.867 529.99 723.231 527C726.716 519.361 738.225 502.116 736 494z"/>
<path style="fill:#f08a33; stroke:none;" d="M745 494L746 495L745 494M800.333 494.667L800.667 495.333L800.333 494.667z"/>
<path style="fill:#a24823; stroke:none;" d="M824.333 494.667L824.667 495.333L824.333 494.667z"/>
<path style="fill:#e16e29; stroke:none;" d="M733 495L734 496L733 495M735 495L736 496L735 495z"/>
<path style="fill:#f08a33; stroke:none;" d="M744 495L745 496L744 495M825 495L826 496L825 495M843 495L844 496L843 495z"/>
<path style="fill:#a24823; stroke:none;" d="M732 496L733 497L732 496z"/>
<path style="fill:#f08a33; stroke:none;" d="M737 496L738 497L737 496M743 496L744 497L743 496z"/>
<path style="fill:#e16e29; stroke:none;" d="M732 497L733 498L732 497M734 497L735 498L734 497z"/>
<path style="fill:#f08a33; stroke:none;" d="M801 497L802 498L801 497z"/>
<path style="fill:#a24823; stroke:none;" d="M823 497L822 501L823 501L823 497z"/>
<path style="fill:#f08a33; stroke:none;" d="M824 497L825 498L824 497M842 497L843 498L842 497z"/>
<path style="fill:#a24823; stroke:none;" d="M731 498L732 499L731 498z"/>
<path style="fill:#e16e29; stroke:none;" d="M731 499L732 500L731 499M733 499L734 500L733 499z"/>
<path style="fill:#f08a33; stroke:none;" d="M736 499L723 528L720.133 538.582L737 546L737 542L741 543L741 502L740 502L738 508L737 508L736 499M802 499L803 500L802 499M823 499L824 500L823 499z"/>
<path style="fill:#a24823; stroke:none;" d="M730.333 500.667L730.667 501.333L730.333 500.667z"/>
<path style="fill:#f08a33; stroke:none;" d="M743 500L743 543L744 543L744 501L748 501L743 500M753 500L753 534L754 534L753 500M771 500L771 532L772 532L771 500z"/>
<path style="fill:#e16e29; stroke:none;" d="M772 500L772 501L775 501C766.326 514.141 768.992 544.112 790 537L788 535L785 512L784 509L780 501L785 504L784 500L772 500z"/>
<path style="fill:#f08a33; stroke:none;" d="M779 500L780 501L779 500M784 500L785 501L784 500M841 500L842 501L841 500z"/>
<path style="fill:#e16e29; stroke:none;" d="M732 501L733 502L732 501z"/>
<path style="fill:#a24823; stroke:none;" d="M752 501L753 502L752 501M772 501L772 505L773 505L775 501L772 501z"/>
<path style="fill:#f08a33; stroke:none;" d="M780 501L784 509L785 512L788 535L789 538L795 536L796 550L790 550L790 551L794 558C788.423 558 773.836 556.654 775 552L771 552L771 555C782.337 559.651 799.135 564.906 803 578L821 585C831.24 567.389 841.624 544.658 847 525L846 525L829 559L828 559L829 541L819 548C816.02 552.859 812.017 551.448 807 552C802.785 539.622 795.952 527.766 790.258 516C787.442 510.179 785.974 504.269 780 501z"/>
<path style="fill:#a24823; stroke:none;" d="M783 501L789 513L790 513L783 501z"/>
<path style="fill:#f08a33; stroke:none;" d="M803.333 501.667L803.667 502.333L803.333 501.667z"/>
<path style="fill:#a24823; stroke:none;" d="M821 501L820 506L821 506L821 501z"/>
<path style="fill:#e16e29; stroke:none;" d="M857 501L858 502L857 501z"/>
<path style="fill:#f08a33; stroke:none;" d="M785 502L786 503L785 502M822 502L823 503L822 502M840 502L841 503L840 502z"/>
<path style="fill:#a24823; stroke:none;" d="M729 503L730 504L729 503z"/>
<path style="fill:#e16e29; stroke:none;" d="M731 503L732 504L731 503z"/>
<path style="fill:#f08a33; stroke:none;" d="M786 504L787 505L786 504M804 504L805 505L804 504M821 504L822 505L821 504M839 504L840 505L839 504z"/>
<path style="fill:#a24823; stroke:none;" d="M728 505L729 506L728 505z"/>
<path style="fill:#e16e29; stroke:none;" d="M730 505L731 506L730 505M785 505L786 506L785 505z"/>
<path style="fill:#a24823; stroke:none;" d="M856 505L857 506L856 505z"/>
<path style="fill:#e16e29; stroke:none;" d="M728 506L729 507L728 506M732 506L733 507L732 506z"/>
<path style="fill:#f08a33; stroke:none;" d="M787 506L788 507L787 506M805 506L806 507L805 506z"/>
<path style="fill:#a24823; stroke:none;" d="M819 506L816 515L817 515L819 506z"/>
<path style="fill:#f08a33; stroke:none;" d="M838 506L839 507L838 506z"/>
<path style="fill:#a24823; stroke:none;" d="M727 507L728 508L727 507z"/>
<path style="fill:#e16e29; stroke:none;" d="M729 507L730 508L729 507M786 507L787 508L786 507M818 507L819 508L818 507z"/>
<path style="fill:#a24823; stroke:none;" d="M855.333 507.667L855.667 508.333L855.333 507.667z"/>
<path style="fill:#e16e29; stroke:none;" d="M727 508L728 509L727 508M731.333 508.667L731.667 509.333L731.333 508.667z"/>
<path style="fill:#f08a33; stroke:none;" d="M788 508L789 509L788 508M806.333 508.667L806.667 509.333L806.333 508.667z"/>
<path style="fill:#e16e29; stroke:none;" d="M819 508L820 509L819 508z"/>
<path style="fill:#f08a33; stroke:none;" d="M837 508L838 509L837 508z"/>
<path style="fill:#a24823; stroke:none;" d="M726 509L727 510L726 509z"/>
<path style="fill:#e16e29; stroke:none;" d="M728 509L729 510L728 509M787 509L788 510L787 509M817.333 509.667L817.667 510.333L817.333 509.667z"/>
<path style="fill:#f08a33; stroke:none;" d="M819 509L820 510L819 509z"/>
<path style="fill:#a24823; stroke:none;" d="M854.333 509.667L854.667 510.333L854.333 509.667z"/>
<path style="fill:#e16e29; stroke:none;" d="M726 510L727 511L726 510M730.333 510.667L730.667 511.333L730.333 510.667z"/>
<path style="fill:#f08a33; stroke:none;" d="M789 510L790 511L789 510z"/>
<path style="fill:#a24823; stroke:none;" d="M836 513L840 511L836 513z"/>
<path style="fill:#010101; stroke:none;" d="M688 511C680.281 511 672.696 511.696 665 512.039C660.601 512.235 656.141 513.214 652 514.7C639.911 519.037 632.279 533.75 644.105 543.442C655.107 552.459 681.513 546.251 687.142 532.961C689.713 526.891 688 517.513 688 511z"/>
<path style="fill:#e16e29; stroke:none;" d="M727 511L728 512L727 511M788.333 511.667L788.667 512.333L788.333 511.667z"/>
<path style="fill:#f08a33; stroke:none;" d="M807 511L808 512L807 511M818 511L819 512L818 511M836 511L837 512L836 511z"/>
<path style="fill:#a24823; stroke:none;" d="M725 512L726 513L725 512z"/>
<path style="fill:#e16e29; stroke:none;" d="M729.333 512.667L729.667 513.333L729.333 512.667M816 512L817 513L816 512z"/>
<path style="fill:#a24823; stroke:none;" d="M853 512L854 513L853 512z"/>
<path style="fill:#e16e29; stroke:none;" d="M726 513L727 514L726 513M789 513L789 515L791 513L789 513z"/>
<path style="fill:#f08a33; stroke:none;" d="M808 513L809 514L808 513z"/>
<path style="fill:#e16e29; stroke:none;" d="M817 513L818 514L817 513z"/>
<path style="fill:#f08a33; stroke:none;" d="M835 513L836 514L835 513z"/>
<path style="fill:#a24823; stroke:none;" d="M724 514L725 515L724 514M790 514L804 545L805 545C802.192 535.252 796.485 521.826 790 514z"/>
<path style="fill:#f08a33; stroke:none;" d="M817 514L818 515L817 514z"/>
<path style="fill:#a24823; stroke:none;" d="M836 514L837 515L836 514M852 514L853 515L852 514z"/>
<path style="fill:#e16e29; stroke:none;" d="M724.667 515.333L725.333 515.667L724.667 515.333M728 515L729 516L728 515M791 515L792 516L791 515z"/>
<path style="fill:#f08a33; stroke:none;" d="M809.333 515.667L809.667 516.333L809.333 515.667z"/>
<path style="fill:#a24823; stroke:none;" d="M815 515L814 520L815 520L815 515z"/>
<path style="fill:#f08a33; stroke:none;" d="M834 515L835 516L834 515z"/>
<path style="fill:#a24823; stroke:none;" d="M723 516L724 517L723 516z"/>
<path style="fill:#f08a33; stroke:none;" d="M724 516L725 517L724 516z"/>
<path style="fill:#e16e29; stroke:none;" d="M790 516L791 517L790 516z"/>
<path style="fill:#f08a33; stroke:none;" d="M816 516L817 517L816 516z"/>
<path style="fill:#a24823; stroke:none;" d="M851.333 516.667L851.667 517.333L851.333 516.667z"/>
<path style="fill:#e16e29; stroke:none;" d="M723.667 517.333L724.333 517.667L723.667 517.333M727 517L728 518L727 517M792 517L793 518L792 517z"/>
<path style="fill:#f08a33; stroke:none;" d="M833 517L834 518L833 517z"/>
<path style="fill:#a24823; stroke:none;" d="M722 518L723 519L722 518z"/>
<path style="fill:#f08a33; stroke:none;" d="M723 518L720 526L721 526L723 518z"/>
<path style="fill:#e16e29; stroke:none;" d="M791 518L792 519L791 518z"/>
<path style="fill:#f08a33; stroke:none;" d="M810 518L811 519L810 518M815 518L816 519L815 518z"/>
<path style="fill:#e16e29; stroke:none;" d="M722 519L723 520L722 519M726.333 519.667L726.667 520.333L726.333 519.667z"/>
<path style="fill:#f08a33; stroke:none;" d="M793 519L794 520L793 519M832 519L833 520L832 519z"/>
<path style="fill:#a24823; stroke:none;" d="M850 519L851 520L850 519z"/>
<path style="fill:#e16e29; stroke:none;" d="M723 520L724 521L723 520M792 520L793 521L792 520z"/>
<path style="fill:#f08a33; stroke:none;" d="M811 520L812 521L811 520z"/>
<path style="fill:#a24823; stroke:none;" d="M813 520L813 523L814 523L813 520M721 521L722 522L721 521z"/>
<path style="fill:#e16e29; stroke:none;" d="M725.333 521.667L725.667 522.333L725.333 521.667z"/>
<path style="fill:#f08a33; stroke:none;" d="M794 521L795 522L794 521M814 521L815 522L814 521M848 521L849 522L848 521z"/>
<path style="fill:#a24823; stroke:none;" d="M849 521L850 522L849 521z"/>
<path style="fill:#e16e29; stroke:none;" d="M722 522L723 523L722 522M793 522L794 523L793 522z"/>
<path style="fill:#f08a33; stroke:none;" d="M831 522L832 523L831 522z"/>
<path style="fill:#a24823; stroke:none;" d="M720 523L721 524L720 523z"/>
<path style="fill:#f08a33; stroke:none;" d="M795 523L796 524L795 523M812.667 523.333L813.333 523.667L812.667 523.333M847.333 523.667L847.667 524.333L847.333 523.667z"/>
<path style="fill:#a24823; stroke:none;" d="M848 523L849 524L848 523z"/>
<path style="fill:#e16e29; stroke:none;" d="M721 524L722 525L721 524M724 524L725 525L724 524M794 524L795 525L794 524z"/>
<path style="fill:#f08a33; stroke:none;" d="M830 524L831 525L830 524z"/>
<path style="fill:#a24823; stroke:none;" d="M719 525L720 526L719 525z"/>
<path style="fill:#f08a33; stroke:none;" d="M796 525L797 526L796 525z"/>
<path style="fill:#e16e29; stroke:none;" d="M719.667 526.333L720.333 526.667L719.667 526.333M723 526L724 527L723 526M795 526L796 527L795 526z"/>
<path style="fill:#f08a33; stroke:none;" d="M829 526L830 527L829 526z"/>
<path style="fill:#a24823; stroke:none;" d="M847 526L848 527L847 526M718 527L719 528L718 527z"/>
<path style="fill:#f08a33; stroke:none;" d="M719 527L720 528L719 527M797 527L798 528L797 527z"/>
<path style="fill:#e16e29; stroke:none;" d="M846 527L847 528L846 527M718.667 528.333L719.333 528.667L718.667 528.333M722.333 528.667L722.667 529.333L722.333 528.667M796 528L797 529L796 528z"/>
<path style="fill:#f08a33; stroke:none;" d="M828 528L829 529L828 528z"/>
<path style="fill:#a24823; stroke:none;" d="M846 528L847 529L846 528z"/>
<path style="fill:#f08a33; stroke:none;" d="M718 529L719 530L718 529M798 529L799 530L798 529z"/>
<path style="fill:#e16e29; stroke:none;" d="M845 529L846 530L845 529M718 530L719 531L718 530M721.333 530.667L721.667 531.333L721.333 530.667M798 530L799 531L798 530z"/>
<path style="fill:#f08a33; stroke:none;" d="M827.333 530.667L827.667 531.333L827.333 530.667z"/>
<path style="fill:#a24823; stroke:none;" d="M845 530L846 531L845 530z"/>
<path style="fill:#e16e29; stroke:none;" d="M717.333 531.667L717.667 532.333L717.333 531.667M797 531L798 532L797 531M799 532L800 533L799 532M844 532L845 533L844 532M716.333 533.667L716.667 534.333L716.333 533.667M720 533L721 534L720 533M798 533L799 534L798 533z"/>
<path style="fill:#f08a33; stroke:none;" d="M826 533L827 534L826 533M772 534L773 535L772 534z"/>
<path style="fill:#e16e29; stroke:none;" d="M800 534L801 535L800 534M843 534L844 535L843 534M715.333 535.667L715.667 536.333L715.333 535.667M719 535L720 536L719 535z"/>
<path style="fill:#f08a33; stroke:none;" d="M773 535L774 536L773 535z"/>
<path style="fill:#e16e29; stroke:none;" d="M799 535L800 536L799 535z"/>
<path style="fill:#f08a33; stroke:none;" d="M825 535L826 536L825 535z"/>
<path style="fill:#a24823; stroke:none;" d="M843 535L844 536L843 535z"/>
<path style="fill:#f08a33; stroke:none;" d="M774 536L775 537L774 536M801 536L802 537L801 536z"/>
<path style="fill:#e16e29; stroke:none;" d="M842 536L843 537L842 536M718.333 537.667L718.667 538.333L718.333 537.667z"/>
<path style="fill:#f08a33; stroke:none;" d="M754.333 537.667L754.667 538.333L754.333 537.667M775 537L776 538L775 537z"/>
<path style="fill:#e16e29; stroke:none;" d="M800 537L801 538L800 537z"/>
<path style="fill:#f08a33; stroke:none;" d="M824 537L825 538L824 537z"/>
<path style="fill:#a24823; stroke:none;" d="M842 537L843 538L842 537z"/>
<path style="fill:#f08a33; stroke:none;" d="M777 538L778 539L777 538M784 538L784 539L788 539L784 538z"/>
<path style="fill:#e16e29; stroke:none;" d="M796 538L796 549C800.298 546.214 799.326 541.257 796 538z"/>
<path style="fill:#f08a33; stroke:none;" d="M802 538L803 539L802 538z"/>
<path style="fill:#e16e29; stroke:none;" d="M719 539L720 540L719 539z"/>
<path style="fill:#f08a33; stroke:none;" d="M781 539L782 540L781 539z"/>
<path style="fill:#e16e29; stroke:none;" d="M801 539L802 540L801 539z"/>
<path style="fill:#f08a33; stroke:none;" d="M823.333 539.667L823.667 540.333L823.333 539.667z"/>
<path style="fill:#a24823; stroke:none;" d="M841 539L842 540L841 539z"/>
<path style="fill:#e16e29; stroke:none;" d="M720.667 540.333L721.333 540.667L720.667 540.333z"/>
<path style="fill:#f08a33; stroke:none;" d="M755 540L756 541L755 540M803 540L804 541L803 540z"/>
<path style="fill:#e16e29; stroke:none;" d="M723.667 541.333L724.333 541.667L723.667 541.333M802 541L803 542L802 541z"/>
<path style="fill:#f08a33; stroke:none;" d="M822.333 541.667L822.667 542.333L822.333 541.667z"/>
<path style="fill:#e16e29; stroke:none;" d="M840 541L841 542L840 541M725.667 542.333L726.333 542.667L725.667 542.333z"/>
<path style="fill:#f08a33; stroke:none;" d="M756 542L757 543L756 542M804 542L805 543L804 542z"/>
<path style="fill:#a24823; stroke:none;" d="M840 542L841 543L840 542z"/>
<path style="fill:#e16e29; stroke:none;" d="M728.667 543.333L729.333 543.667L728.667 543.333M803 543L804 544L803 543M839 543L840 544L839 543M730.667 544.333L731.333 544.667L730.667 544.333z"/>
<path style="fill:#f08a33; stroke:none;" d="M805 544L806 545L805 544M821 544L822 545L821 544z"/>
<path style="fill:#a24823; stroke:none;" d="M839 544L840 545L839 544z"/>
<path style="fill:#e16e29; stroke:none;" d="M804.667 545.333L805.333 545.667L804.667 545.333z"/>
<path style="fill:#f08a33; stroke:none;" d="M759 546L760 547L759 546z"/>
<path style="fill:#a24823; stroke:none;" d="M805 546L806 547L805 546z"/>
<path style="fill:#f08a33; stroke:none;" d="M806 546L807 547L806 546M820.333 546.667L820.667 547.333L820.333 546.667z"/>
<path style="fill:#a24823; stroke:none;" d="M838 546L839 547L838 546z"/>
<path style="fill:#e16e29; stroke:none;" d="M805.667 547.333L806.333 547.667L805.667 547.333z"/>
<path style="fill:#f08a33; stroke:none;" d="M762 548L763 549L762 548z"/>
<path style="fill:#a24823; stroke:none;" d="M806 548L807 549L806 548M837 548L838 549L837 548z"/>
<path style="fill:#f08a33; stroke:none;" d="M763 549L764 550L763 549M793 549L794 550L793 549z"/>
<path style="fill:#e16e29; stroke:none;" d="M792 550L792 551L796 550L792 550M806 549L807 552L808 552L808 549L806 549z"/>
<path style="fill:#f08a33; stroke:none;" d="M765 550L766 551L765 550z"/>
<path style="fill:#a24823; stroke:none;" d="M807 550L808 551L807 550z"/>
<path style="fill:#e16e29; stroke:none;" d="M836 550L837 551L836 550z"/>
<path style="fill:#f08a33; stroke:none;" d="M768 551L769 552L768 551M786 551L786 552L789 552L786 551z"/>
<path style="fill:#e16e29; stroke:none;" d="M774 553L774 554L794 558C793.109 547.768 781.438 552.995 774 553z"/>
<path style="fill:#a24823; stroke:none;" d="M836 551L837 552L836 551z"/>
<path style="fill:#f08a33; stroke:none;" d="M778 552L778 553L784 553L778 552z"/>
<path style="fill:#e16e29; stroke:none;" d="M808 552L809 553L808 552z"/>
<path style="fill:#f08a33; stroke:none;" d="M769.667 553.333L770.333 553.667L769.667 553.333z"/>
<path style="fill:#a24823; stroke:none;" d="M835 553L836 554L835 553M834 555L835 556L834 555z"/>
<path style="fill:#e16e29; stroke:none;" d="M833 557L834 558L833 557M832 559L833 560L832 559z"/>
<path style="fill:#a24823; stroke:none;" d="M832 560L833 561L832 560M764.667 562.333L765.333 562.667L764.667 562.333M831 562L832 563L831 562M766.667 563.333L767.333 563.667L766.667 563.333M769.667 564.333L770.333 564.667L769.667 564.333M830 564L831 565L830 564M771.667 565.333L772.333 565.667L771.667 565.333M774 566L775 567L774 566z"/>
<path style="fill:#e16e29; stroke:none;" d="M829 566L830 567L829 566z"/>
<path style="fill:#a24823; stroke:none;" d="M776.667 567.333L777.333 567.667L776.667 567.333M779 568L780 569L779 568M781.667 569.333L782.333 569.667L781.667 569.333M828 569L829 570L828 569M783.667 570.333L784.333 570.667L783.667 570.333M786 571L787 572L786 571M827 571L828 572L827 571M788.667 572.333L789.333 572.667L788.667 572.333M791 573L792 574L791 573M826 573L827 574L826 573M793.667 574.333L794.333 574.667L793.667 574.333M796 575L797 576L796 575z"/>
<path style="fill:#e16e29; stroke:none;" d="M825 575L826 576L825 575z"/>
<path style="fill:#a24823; stroke:none;" d="M798 576L799 577L798 576M801 577L802 578L801 577M803 578L804 579L803 578z"/>
<path style="fill:#e16e29; stroke:none;" d="M804.667 578.333L805.333 578.667L804.667 578.333z"/>
<path style="fill:#a24823; stroke:none;" d="M824 578L825 579L824 578M806 579L807 580L806 579z"/>
<path style="fill:#e16e29; stroke:none;" d="M807 579L808 580L807 579z"/>
<path style="fill:#a24823; stroke:none;" d="M808 580L809 581L808 580z"/>
<path style="fill:#e16e29; stroke:none;" d="M809 580L810 581L809 580z"/>
<path style="fill:#a24823; stroke:none;" d="M823 580L824 581L823 580M811 581L812 582L811 581z"/>
<path style="fill:#e16e29; stroke:none;" d="M812 581L813 582L812 581z"/>
<path style="fill:#a24823; stroke:none;" d="M813 582L814 583L813 582z"/>
<path style="fill:#e16e29; stroke:none;" d="M814 582L815 583L814 582M822 582L823 583L822 582z"/>
<path style="fill:#a24823; stroke:none;" d="M815 583L816 584L815 583z"/>
<path style="fill:#e16e29; stroke:none;" d="M816 583L817 584L816 583z"/>
<path style="fill:#a24823; stroke:none;" d="M818 584L819 585L818 584z"/>
<path style="fill:#e16e29; stroke:none;" d="M819 584L820 585L819 584z"/>
<path style="fill:#a24823; stroke:none;" d="M821 584L822 585L821 584M820 585L821 586L820 585z"/>
</svg>
