<?xml version="1.0" standalone="yes"?>
<svg xmlns="http://www.w3.org/2000/svg" width="1024" height="1024">
<path style="fill:#41cfff; stroke:none;" d="M0 0L0 1024L1024 1024L1024 0L0 0z"/>
<path style="fill:#ffffff; stroke:none;" d="M293 646L293 377C272.958 377 254.408 380.415 236 388.59C219.468 395.932 203.221 407.237 191.428 421C131.713 490.691 153.693 601.001 241 636.548C257.865 643.414 274.91 646 293 646z"/>
<path style="fill:#2b92b4; stroke:none;" d="M811 450L811 451L824 453C824.756 448.414 814.119 450 811 450M838 451L838 452L852 451L838 451z"/>
<path style="fill:#010202; stroke:none;" d="M811 451C814.568 474.701 846.257 471.185 852 451L840.375 451.6L831.003 456.663L822.625 451.6L811 451z"/>
<path style="fill:#1b657f; stroke:none;" d="M838 452L839 453L838 452M851.333 452.667L851.667 453.333L851.333 452.667M811 454L812 455L811 454M825 454L826 455L825 454M837 454L838 455L837 454z"/>
<path style="fill:#2b92b4; stroke:none;" d="M851 454L852 455L851 454M811 455L812 456L811 455z"/>
<path style="fill:#1b657f; stroke:none;" d="M826 455L827 456L826 455M836 455L837 456L836 455M828 456L829 457L828 456z"/>
<path style="fill:#2b92b4; stroke:none;" d="M829 456L830 457L829 456M833 456L834 457L833 456z"/>
<path style="fill:#1b657f; stroke:none;" d="M834 456L835 457L834 456M850 456L851 457L850 456M812 457L813 458L812 457z"/>
<path style="fill:#2b92b4; stroke:none;" d="M850 457L851 458L850 457M813 459L814 460L813 459M849 459L850 460L849 459z"/>
<path style="fill:#1b657f; stroke:none;" d="M814 460L815 461L814 460M848 460L849 461L848 460M815 461L816 462L815 461M847 461L848 462L847 461M816 462L817 463L816 462M846 462L847 463L846 462M817 463L818 464L817 463M845 463L846 464L845 463z"/>
<path style="fill:#2b92b4; stroke:none;" d="M818 464L819 465L818 464M844 464L845 465L844 464M820 465L821 466L820 465M842 465L843 466L842 465M822 466L823 467L822 466z"/>
<path style="fill:#1b657f; stroke:none;" d="M823 466L824 467L823 466M839 466L840 467L839 466z"/>
<path style="fill:#2b92b4; stroke:none;" d="M840 466L841 467L840 466M825.667 467.333L826.333 467.667L825.667 467.333z"/>
<path style="fill:#1b657f; stroke:none;" d="M827.667 467.333L828.333 467.667L827.667 467.333M834.667 467.333L835.333 467.667L834.667 467.333z"/>
<path style="fill:#2b92b4; stroke:none;" d="M836.667 467.333L837.333 467.667L836.667 467.333z"/>
<path style="fill:#1b657f; stroke:none;" d="M361 471L361 472L430 472L430 554L431 534L431 491L429.397 472.028L411 471L361 471z"/>
<path style="fill:#2b92b4; stroke:none;" d="M430 471L431 472L430 471z"/>
<path style="fill:#1b657f; stroke:none;" d="M445 471L445 472L501 472L483 471L445 471z"/>
<path style="fill:#2b92b4; stroke:none;" d="M501 471L501 485L462 485L462 486L502 486L501 471M514 471L515 472L514 471z"/>
<path style="fill:#1b657f; stroke:none;" d="M514 554L515 554L515 472L551 472L524 471L515.028 472.603L514 494L514 554z"/>
<path style="fill:#2b92b4; stroke:none;" d="M551 471L551 472L554 472L551 471M587 471L588 472L587 471z"/>
<path style="fill:#1b657f; stroke:none;" d="M587 554L588 554L588 472L604 472C600.56 470.556 589.637 469.185 587.603 473.318C584.763 479.089 587 490.619 587 497L587 554z"/>
<path style="fill:#2b92b4; stroke:none;" d="M604 471L604 522L605.603 538.972L633 540L633 539L605 539L605 492L604 471M633 471L634 472L633 471z"/>
<path style="fill:#1b657f; stroke:none;" d="M633 540L634 540L634 472L650 472C646.67 470.603 636.61 469.342 634.028 472.603C631.105 476.294 633 486.487 633 491L633 540z"/>
<path style="fill:#2b92b4; stroke:none;" d="M650 471L650 522L651.603 538.972L679 540L679 539L651 539L651 492L650 471M679 471L680 472L679 471z"/>
<path style="fill:#1b657f; stroke:none;" d="M679 540L680 540L680 472L696 472C692.67 470.603 682.61 469.342 680.028 472.603C677.105 476.294 679 486.487 679 491L679 540z"/>
<path style="fill:#2b92b4; stroke:none;" d="M696 471L696 554L697 554L697 497L696 471z"/>
<path style="fill:#1b657f; stroke:none;" d="M711 471L711 472L728 472L711 471z"/>
<path style="fill:#2b92b4; stroke:none;" d="M767 471L766 473L767 471z"/>
<path style="fill:#1b657f; stroke:none;" d="M768 471L768 472L782 472L768 471M796 471L796 472L813 472L796 471z"/>
<path style="fill:#2b92b4; stroke:none;" d="M852 471L851 473L852 471z"/>
<path style="fill:#1b657f; stroke:none;" d="M853 471L853 472L866 472L866 554L867 554L867 471L853 471z"/>
<path style="fill:#2b92b4; stroke:none;" d="M360 472L360 554L361 554L361 497L360 472z"/>
<path style="fill:#010202; stroke:none;" d="M361 472L361 554L378 554L378 485L414 485L414 554L430 554L430 472L361 472z"/>
<path style="fill:#2b92b4; stroke:none;" d="M444 472L444 554L445 554L445 497L444 472z"/>
<path style="fill:#010202; stroke:none;" d="M445 472L445 554L502 554L502 540L475 540C471.611 540 466.287 540.954 463.318 538.972C459.242 536.252 459.479 521.642 464.148 519.603C472.453 515.977 487.947 519 497 519L497 505C487.947 505 472.453 508.023 464.148 504.397C459.542 502.385 459.292 488.714 463.318 486.028C466.088 484.179 470.844 485 474 485L501 485L501 472L445 472M515 472L515 554L531 554L531 523C541.425 523 553.58 524.859 563 519.468C578.632 510.52 579.528 487.045 564.999 476.638C552.436 467.639 529.731 472 515 472z"/>
<path style="fill:#1b657f; stroke:none;" d="M556 472L557 473L556 472z"/>
<path style="fill:#2b92b4; stroke:none;" d="M557 472L558 473L557 472z"/>
<path style="fill:#010202; stroke:none;" d="M588 472L588 554L696 554L696 472L680 472L680 540L650 540L650 472L634 472L634 540L604 540L604 472L588 472M711 472L711 554L724.826 552.972L737.127 538L765 501L765 554L782 554L782 472L767.325 473.028L755.373 488L728 524L728 472L711 472M796 472L796 554L809.826 552.972L821.884 538L850 501L850 554L866 554L866 472L852.3 473.028L839.576 489L813 524L813 472L796 472z"/>
<path style="fill:#1b657f; stroke:none;" d="M559 473L560 474L559 473z"/>
<path style="fill:#2b92b4; stroke:none;" d="M560 473L561 474L560 473z"/>
<path style="fill:#1b657f; stroke:none;" d="M561 474L562 475L561 474z"/>
<path style="fill:#2b92b4; stroke:none;" d="M562 474L563 475L562 474z"/>
<path style="fill:#1b657f; stroke:none;" d="M765 474L766 475L765 474M850 474L851 475L850 474M563 475L564 476L563 475z"/>
<path style="fill:#2b92b4; stroke:none;" d="M764 475L765 476L764 475z"/>
<path style="fill:#1b657f; stroke:none;" d="M849 475L850 476L849 475z"/>
<path style="fill:#2b92b4; stroke:none;" d="M565 476L566 477L565 476M763 476L764 477L763 476M848 476L849 477L848 476z"/>
<path style="fill:#1b657f; stroke:none;" d="M566 477L567 478L566 477M763 477L764 478L763 477M567 478L568 479L567 478M762 478L763 479L762 478M847 478L848 479L847 478M568 479L569 480L568 479z"/>
<path style="fill:#2b92b4; stroke:none;" d="M761 479L762 480L761 479M846 479L847 480L846 479z"/>
<path style="fill:#1b657f; stroke:none;" d="M569 480L570 481L569 480z"/>
<path style="fill:#2b92b4; stroke:none;" d="M845 480L846 481L845 480z"/>
<path style="fill:#1b657f; stroke:none;" d="M570 481L571 482L570 481M760 481L761 482L760 481z"/>
<path style="fill:#2b92b4; stroke:none;" d="M571 482L572 483L571 482z"/>
<path style="fill:#1b657f; stroke:none;" d="M759 482L760 483L759 482M844 482L845 483L844 482z"/>
<path style="fill:#2b92b4; stroke:none;" d="M758 483L759 484L758 483M843 483L844 484L843 483z"/>
<path style="fill:#1b657f; stroke:none;" d="M572 484L573 485L572 484z"/>
<path style="fill:#2b92b4; stroke:none;" d="M842 484L843 485L842 484M378 485L378 486L413 486L413 554L414 537L414 502L412.397 486.028L403 485L378 485z"/>
<path style="fill:#1b657f; stroke:none;" d="M413 485L414 486L413 485M531 485L532 486L531 485z"/>
<path style="fill:#2b92b4; stroke:none;" d="M531 509L532 509L532 486L546 486C528.117 478.496 531 497.605 531 509z"/>
<path style="fill:#1b657f; stroke:none;" d="M546.667 485.333L547.333 485.667L546.667 485.333M757 485L758 486L757 485M461 486L461 504L462 504L461 486z"/>
<path style="fill:#41cfff; stroke:none;" d="M532 486L532 509C538.046 509 546.621 510.528 551.956 507.142C558.736 502.839 559.283 491.498 551.906 487.457C546.477 484.483 537.998 486 532 486z"/>
<path style="fill:#2b92b4; stroke:none;" d="M550 486L551 487L550 486z"/>
<path style="fill:#1b657f; stroke:none;" d="M573 486L574 487L573 486M756 486L757 487L756 486M841 486L842 487L841 486z"/>
<path style="fill:#2b92b4; stroke:none;" d="M552 487L553 488L552 487M755 487L756 488L755 487M840 487L841 488L840 487z"/>
<path style="fill:#1b657f; stroke:none;" d="M554 488L555 489L554 488z"/>
<path style="fill:#2b92b4; stroke:none;" d="M574 488L575 489L574 488M839 488L840 489L839 488z"/>
<path style="fill:#1b657f; stroke:none;" d="M574 489L575 490L574 489M754 489L755 490L754 489M839 489L840 490L839 489z"/>
<path style="fill:#2b92b4; stroke:none;" d="M555 490L556 491L555 490z"/>
<path style="fill:#1b657f; stroke:none;" d="M753 490L754 491L753 490M838 490L839 491L838 490M556 491L557 492L556 491z"/>
<path style="fill:#2b92b4; stroke:none;" d="M575 491L575 494L576 494L575 491M752 491L753 492L752 491M837 491L838 492L837 491z"/>
<path style="fill:#1b657f; stroke:none;" d="M557 493L558 494L557 493M751 493L752 494L751 493M836 493L837 494L836 493z"/>
<path style="fill:#2b92b4; stroke:none;" d="M557 494L557 497L558 497L557 494z"/>
<path style="fill:#1b657f; stroke:none;" d="M575 494L575 497L576 497L575 494M750 494L751 495L750 494M835 494L836 495L835 494z"/>
<path style="fill:#2b92b4; stroke:none;" d="M749 495L750 496L749 495M834 495L835 496L834 495z"/>
<path style="fill:#1b657f; stroke:none;" d="M748 497L749 498L748 497M833 497L834 498L833 497z"/>
<path style="fill:#2b92b4; stroke:none;" d="M557.333 498.667L557.667 499.333L557.333 498.667z"/>
<path style="fill:#1b657f; stroke:none;" d="M575 498L575 501L576 501L575 498z"/>
<path style="fill:#2b92b4; stroke:none;" d="M747 498L748 499L747 498z"/>
<path style="fill:#1b657f; stroke:none;" d="M832 498L833 499L832 498z"/>
<path style="fill:#2b92b4; stroke:none;" d="M746 499L747 500L746 499M831 499L832 500L831 499z"/>
<path style="fill:#1b657f; stroke:none;" d="M557 500L558 501L557 500z"/>
<path style="fill:#2b92b4; stroke:none;" d="M575.333 501.667L575.667 502.333L575.333 501.667z"/>
<path style="fill:#1b657f; stroke:none;" d="M745 501L746 502L745 501M764 501L765 502L764 501M830 501L831 502L830 501M849 501L850 502L849 501z"/>
<path style="fill:#2b92b4; stroke:none;" d="M556 502L557 503L556 502M744 502L745 503L744 502M763 502L764 554L765 554L765 516L763 502z"/>
<path style="fill:#1b657f; stroke:none;" d="M829 502L830 503L829 502z"/>
<path style="fill:#2b92b4; stroke:none;" d="M848 502L849 554L850 554L850 516L848 502z"/>
<path style="fill:#1b657f; stroke:none;" d="M556 503L557 504L556 503z"/>
<path style="fill:#2b92b4; stroke:none;" d="M743 503L744 504L743 503z"/>
<path style="fill:#1b657f; stroke:none;" d="M762 503L763 504L762 503z"/>
<path style="fill:#2b92b4; stroke:none;" d="M828 503L829 504L828 503z"/>
<path style="fill:#1b657f; stroke:none;" d="M847 503L848 504L847 503z"/>
<path style="fill:#2b92b4; stroke:none;" d="M462 504L462 505L497 505L462 504M555 504L556 505L555 504z"/>
<path style="fill:#1b657f; stroke:none;" d="M846 504L847 505L846 504z"/>
<path style="fill:#2b92b4; stroke:none;" d="M497 505L497 519L498 519L497 505M554 505L555 506L554 505z"/>
<path style="fill:#1b657f; stroke:none;" d="M574 505L575 506L574 505M742 505L743 506L742 505z"/>
<path style="fill:#2b92b4; stroke:none;" d="M761 505L762 506L761 505z"/>
<path style="fill:#1b657f; stroke:none;" d="M827 505L828 506L827 505z"/>
<path style="fill:#2b92b4; stroke:none;" d="M846 505L847 506L846 505M553 506L554 507L553 506M574 506L575 507L574 506M741 506L742 507L741 506M760 506L761 507L760 506z"/>
<path style="fill:#1b657f; stroke:none;" d="M826 506L827 507L826 506z"/>
<path style="fill:#2b92b4; stroke:none;" d="M845 506L846 507L845 506z"/>
<path style="fill:#1b657f; stroke:none;" d="M552 507L553 508L552 507z"/>
<path style="fill:#2b92b4; stroke:none;" d="M740 507L741 508L740 507z"/>
<path style="fill:#1b657f; stroke:none;" d="M759 507L760 508L759 507z"/>
<path style="fill:#2b92b4; stroke:none;" d="M825 507L826 508L825 507z"/>
<path style="fill:#1b657f; stroke:none;" d="M844 507L845 508L844 507z"/>
<path style="fill:#2b92b4; stroke:none;" d="M549 508L550 509L549 508z"/>
<path style="fill:#1b657f; stroke:none;" d="M550 508L551 509L550 508z"/>
<path style="fill:#2b92b4; stroke:none;" d="M573 508L574 509L573 508z"/>
<path style="fill:#1b657f; stroke:none;" d="M740 508L741 509L740 508M531 509L531 510L547 510L531 509M739 509L740 510L739 509z"/>
<path style="fill:#2b92b4; stroke:none;" d="M758 509L759 510L758 509z"/>
<path style="fill:#1b657f; stroke:none;" d="M824 509L825 510L824 509z"/>
<path style="fill:#2b92b4; stroke:none;" d="M843 509L844 510L843 509M572 510L573 511L572 510M738 510L739 511L738 510z"/>
<path style="fill:#1b657f; stroke:none;" d="M757 510L758 511L757 510z"/>
<path style="fill:#2b92b4; stroke:none;" d="M823 510L824 511L823 510M842 510L843 511L842 510z"/>
<path style="fill:#1b657f; stroke:none;" d="M571 511L572 512L571 511z"/>
<path style="fill:#2b92b4; stroke:none;" d="M737 511L738 512L737 511z"/>
<path style="fill:#1b657f; stroke:none;" d="M756 511L757 512L756 511z"/>
<path style="fill:#2b92b4; stroke:none;" d="M822 511L823 512L822 511z"/>
<path style="fill:#1b657f; stroke:none;" d="M841 511L842 512L841 511z"/>
<path style="fill:#2b92b4; stroke:none;" d="M571 512L572 513L571 512z"/>
<path style="fill:#1b657f; stroke:none;" d="M737 512L738 513L737 512z"/>
<path style="fill:#2b92b4; stroke:none;" d="M570 513L571 514L570 513z"/>
<path style="fill:#1b657f; stroke:none;" d="M736 513L737 514L736 513z"/>
<path style="fill:#2b92b4; stroke:none;" d="M755 513L756 514L755 513z"/>
<path style="fill:#1b657f; stroke:none;" d="M821 513L822 514L821 513z"/>
<path style="fill:#2b92b4; stroke:none;" d="M840 513L841 514L840 513z"/>
<path style="fill:#1b657f; stroke:none;" d="M569 514L570 515L569 514z"/>
<path style="fill:#2b92b4; stroke:none;" d="M735 514L736 515L735 514z"/>
<path style="fill:#1b657f; stroke:none;" d="M754 514L755 515L754 514z"/>
<path style="fill:#2b92b4; stroke:none;" d="M820 514L821 515L820 514M839 514L840 515L839 514z"/>
<path style="fill:#1b657f; stroke:none;" d="M568 515L569 516L568 515M753 515L754 516L753 515z"/>
<path style="fill:#2b92b4; stroke:none;" d="M819 515L820 516L819 515z"/>
<path style="fill:#1b657f; stroke:none;" d="M838 515L839 516L838 515M567 516L568 517L567 516M734 516L735 517L734 516z"/>
<path style="fill:#2b92b4; stroke:none;" d="M566 517L567 518L566 517z"/>
<path style="fill:#1b657f; stroke:none;" d="M733 517L734 518L733 517z"/>
<path style="fill:#2b92b4; stroke:none;" d="M752 517L753 518L752 517z"/>
<path style="fill:#1b657f; stroke:none;" d="M818 517L819 518L818 517z"/>
<path style="fill:#2b92b4; stroke:none;" d="M837 517L838 518L837 517z"/>
<path style="fill:#1b657f; stroke:none;" d="M564 518L565 519L564 518z"/>
<path style="fill:#2b92b4; stroke:none;" d="M565 518L566 519L565 518M732 518L733 519L732 518z"/>
<path style="fill:#1b657f; stroke:none;" d="M751 518L752 519L751 518z"/>
<path style="fill:#2b92b4; stroke:none;" d="M817 518L818 519L817 518M836 518L837 519L836 518M563 519L564 520L563 519z"/>
<path style="fill:#1b657f; stroke:none;" d="M750 519L751 520L750 519z"/>
<path style="fill:#2b92b4; stroke:none;" d="M816 519L817 520L816 519z"/>
<path style="fill:#1b657f; stroke:none;" d="M835 519L836 520L835 519M461 520L461 539L462 539L461 520M561 520L562 521L561 520M731 520L732 521L731 520M816 520L817 521L816 520M558 521L559 522L558 521z"/>
<path style="fill:#2b92b4; stroke:none;" d="M559 521L560 522L559 521z"/>
<path style="fill:#1b657f; stroke:none;" d="M730 521L731 522L730 521z"/>
<path style="fill:#2b92b4; stroke:none;" d="M749 521L750 522L749 521z"/>
<path style="fill:#1b657f; stroke:none;" d="M815 521L816 522L815 521z"/>
<path style="fill:#2b92b4; stroke:none;" d="M834 521L835 522L834 521z"/>
<path style="fill:#1b657f; stroke:none;" d="M555 522L556 523L555 522z"/>
<path style="fill:#2b92b4; stroke:none;" d="M556 522L557 523L556 522M729 522L730 523L729 522z"/>
<path style="fill:#1b657f; stroke:none;" d="M748 522L749 523L748 522z"/>
<path style="fill:#2b92b4; stroke:none;" d="M814 522L815 523L814 522z"/>
<path style="fill:#1b657f; stroke:none;" d="M833 522L834 523L833 522M531 523L532 524L531 523z"/>
<path style="fill:#2b92b4; stroke:none;" d="M532 523L532 524L553 524L532 523M728 523L729 524L728 523z"/>
<path style="fill:#1b657f; stroke:none;" d="M747 523L748 524L747 523z"/>
<path style="fill:#2b92b4; stroke:none;" d="M813 523L814 524L813 523z"/>
<path style="fill:#1b657f; stroke:none;" d="M832 523L833 524L832 523z"/>
<path style="fill:#2b92b4; stroke:none;" d="M531 524L531 554L532 554L531 524M747 524L748 525L747 524M746 525L747 526L746 525M831 525L832 526L831 525z"/>
<path style="fill:#1b657f; stroke:none;" d="M745 526L746 527L745 526M830 526L831 527L830 526M829 527L830 528L829 527z"/>
<path style="fill:#2b92b4; stroke:none;" d="M744 528L745 529L744 528M743 529L744 530L743 529M828 529L829 530L828 529z"/>
<path style="fill:#1b657f; stroke:none;" d="M742 530L743 531L742 530M827 530L828 531L827 530M826 531L827 532L826 531z"/>
<path style="fill:#2b92b4; stroke:none;" d="M741 532L742 533L741 532M740 533L741 534L740 533M825 533L826 534L825 533z"/>
<path style="fill:#1b657f; stroke:none;" d="M739 534L740 535L739 534M824 534L825 535L824 534M823 535L824 536L823 535z"/>
<path style="fill:#2b92b4; stroke:none;" d="M738 536L739 537L738 536M823 536L824 537L823 536M737 537L738 538L737 537M822 537L823 538L822 537z"/>
<path style="fill:#1b657f; stroke:none;" d="M736 538L737 539L736 538M821 538L822 539L821 538z"/>
<path style="fill:#2b92b4; stroke:none;" d="M462 539L462 540L502 540C491.488 535.589 473.434 539 462 539z"/>
<path style="fill:#1b657f; stroke:none;" d="M604 539L605 540L604 539M650 539L651 540L650 539M820 539L821 540L820 539z"/>
<path style="fill:#2b92b4; stroke:none;" d="M735 540L736 541L735 540M820 540L821 541L820 540z"/>
<path style="fill:#1b657f; stroke:none;" d="M734 541L735 542L734 541z"/>
<path style="fill:#2b92b4; stroke:none;" d="M819 541L820 542L819 541z"/>
<path style="fill:#1b657f; stroke:none;" d="M733 542L734 543L733 542M818 542L819 543L818 542z"/>
<path style="fill:#2b92b4; stroke:none;" d="M732 544L733 545L732 544M817 544L818 545L817 544z"/>
<path style="fill:#1b657f; stroke:none;" d="M731 545L732 546L731 545z"/>
<path style="fill:#2b92b4; stroke:none;" d="M816 545L817 546L816 545z"/>
<path style="fill:#1b657f; stroke:none;" d="M730 546L731 547L730 546M815 546L816 547L815 546z"/>
<path style="fill:#2b92b4; stroke:none;" d="M729 548L730 549L729 548M814 548L815 549L814 548z"/>
<path style="fill:#1b657f; stroke:none;" d="M728 549L729 550L728 549z"/>
<path style="fill:#2b92b4; stroke:none;" d="M813 549L814 550L813 549z"/>
<path style="fill:#1b657f; stroke:none;" d="M727 550L728 551L727 550M812 550L813 551L812 550z"/>
<path style="fill:#2b92b4; stroke:none;" d="M726 552L727 553L726 552M811 552L812 553L811 552z"/>
<path style="fill:#1b657f; stroke:none;" d="M725 553L726 554L725 553z"/>
<path style="fill:#2b92b4; stroke:none;" d="M810 553L811 554L810 553z"/>
</svg>
