<?xml version="1.0" standalone="yes"?>
<svg xmlns="http://www.w3.org/2000/svg" width="1024" height="1024">
<path style="fill:#bd0d0d; stroke:none;" d="M0 0L0 1024L1024 1024L1024 0L0 0z"/>
<path style="fill:#ffffff; stroke:none;" d="M453 429C476.815 427.978 497.773 407.936 507 386C499.685 386.001 484.635 385.041 478.39 389.028C474.831 391.3 472.904 397.464 470.799 401C465.291 410.254 457.158 419.164 453 429z"/>
<path style="fill:#d79d9d; stroke:none;" d="M487 387L488 388L487 387M504 390L505 391L504 390z"/>
<path style="fill:#ffffff; stroke:none;" d="M339 423L355 421C341.872 448.704 328.949 476.578 315.247 504C311.282 511.934 307.194 529.023 299.61 533.976C293.91 537.698 281.729 537.149 275 538C281.506 521.232 292.018 505.995 297.899 489C299.729 483.712 302.158 474.062 296.606 470.14C289.173 464.888 273.867 464.774 265 463C261.553 462.31 255.872 462.075 253.813 458.721C247.611 448.619 266.275 437.069 274 437L270 451C281.364 450.969 292.733 448.504 304 447.155C308.141 446.659 315.069 447.115 318.362 444.258C322.342 440.804 324.523 432.739 326.691 428C329.29 422.32 335.377 408.92 329.486 403.603C324.578 399.173 311.86 403.292 306 403.95C290.637 405.675 275.349 408.007 260 409.845C252.109 410.79 242.371 410.914 235 413.991C213.509 422.963 205.179 457.962 195.752 477C192.285 484.003 185.434 495.542 191.434 502.891C197.798 510.687 214.766 510.995 224 513.119C227.391 513.899 233.102 514.08 235.211 517.303C241.827 527.413 222.67 538.936 215 539L221 522C209.331 522.921 197.59 524.756 186 526.421C181.804 527.023 176.015 526.47 172.39 528.988C167.73 532.227 165.18 541.918 163.001 547C160.526 552.773 152.339 568.197 160.148 572.821C166.89 576.813 180.673 572.236 188 571.282C211.655 568.2 235.344 565.363 259 562.282C323.983 553.816 389.027 545.825 454 537.282C482.258 533.566 512.284 532.617 540 526C534.24 539.834 527.447 564.628 510 565L518 546C507.325 546.007 496.555 547.892 486 549.421C482.189 549.972 476.849 549.582 473.966 552.564C467.872 558.869 462.464 573.518 460.669 582C459.859 585.824 459.394 591.352 464.109 592.682C470.497 594.485 478.585 591.771 485 591.05C498.025 589.587 510.976 587.512 524 586.05C531.084 585.255 540.569 585.528 547 582.312C562.615 574.503 568.516 553.483 575.753 539C578.539 533.425 580.817 523.34 587.043 520.738C600.433 515.143 619.634 515.607 634 513.718C672.294 508.683 710.734 504.723 749 499.576C760.318 498.053 771.689 496.982 783 495.424C786.705 494.913 792.222 495.298 795.362 492.987C800.286 489.363 804.954 475.868 806 470L784 473C787.594 459.86 800.09 423.334 817 427L807 449C817.309 448.972 827.783 447.049 838 445.718C841.782 445.226 847.365 445.506 850.502 443.062C857.6 437.53 863.473 419.506 865.957 411C866.899 407.773 868.121 402.329 865.397 399.603C862.187 396.393 854.932 398.232 851 398.715C838.632 400.234 825.06 399.735 815 408L816 403C801.333 404.854 786.638 406.638 772 408.729C766.867 409.463 758.756 408.96 754.39 411.988C748.878 415.813 744.803 428.742 743 435L760 433L744.753 466L737.61 477.976L717 481.424L660 489L659 488C665.699 471.699 691.428 474.496 707 472.271C711.01 471.698 717.349 472.034 720.61 469.397C724.099 466.575 725.369 460.904 727.258 457C731.713 447.793 737.065 438.762 740.251 429C741.522 425.104 743.773 417.833 739.682 414.832C735.135 411.497 723.235 414.862 718 415.576C704.355 417.439 690.674 419.208 677 420.845C669.834 421.703 660.347 421.535 654 425.228C638.058 434.504 630.614 458.09 623.309 474C620.719 479.64 618.004 490.453 612.61 493.976C608.545 496.631 600.758 496.398 596 497C608.04 476.367 622.392 449.938 629 427C608.332 429.612 587.686 432.368 567 434.845C557.214 436.017 543.778 435.466 535.001 440.275C518.503 449.314 511.754 473.047 504.219 489C501.008 495.799 496.33 502.539 495 510L475 512L495.966 468.147L507.363 462.411L518 441C492.697 442.997 467.124 446.941 442 450.579C432.077 452.016 418.318 451.737 410.015 457.789C394.762 468.907 388.381 492.733 380.247 509C378.007 513.479 376.084 521.028 372.351 524.397C367.091 529.143 351.912 527.717 345 529C362.184 499.552 376.249 466.166 390.139 435C394.611 424.965 405.335 410.495 403.732 399.005C402.413 389.547 387.331 394.397 381 395.155C373.152 396.095 356.999 395.158 350.637 399.988C345.032 404.245 341.658 416.615 339 423z"/>
<path style="fill:#dfb7b7; stroke:none;" d="M386 394L387 395L386 394M403 403L404 404L403 403M270 408L271 409L270 408z"/>
<path style="fill:#bd0d0d; stroke:none;" d="M814 408L815 409L814 408z"/>
<path style="fill:#d79d9d; stroke:none;" d="M465 410L466 411L465 410z"/>
<path style="fill:#dfb7b7; stroke:none;" d="M400 412L401 413L400 412M343 413L344 414L343 413M342 415L343 416L342 415M695 418L696 419L695 418M352 421L353 422L352 421M353 424L354 425L353 424M747 424L748 425L747 424z"/>
<path style="fill:#d79d9d; stroke:none;" d="M473 425L474 426L473 425z"/>
<path style="fill:#dfb7b7; stroke:none;" d="M352 426L353 427L352 426M746 426L747 427L746 426M610 429L611 430L610 429M594 431L595 432L594 431M586 432L587 433L586 432M215 435L216 436L215 435M322 436L323 437L322 436M266 437L267 438L266 437M534 440L535 441L534 440M259 442L260 443L259 442z"/>
<path style="fill:#bd0d0d; stroke:none;" d="M675 454C684.809 453.579 689.595 452.124 692 442C683.04 442.075 677.627 445.074 675 454z"/>
<path style="fill:#dfb7b7; stroke:none;" d="M796 444L797 445L796 444M210 445L211 446L210 445M831 446L832 447L831 446M256 447L257 448L256 447M293 448L294 449L293 448M458 448L459 449L458 448M255 449L256 450L255 449M513 450L514 451L513 450M254 451L255 452L254 451M429 452L430 453L429 452M512 452L513 453L512 452M422 453L423 454L422 453M749 456L750 457L749 456z"/>
<path style="fill:#bd0d0d; stroke:none;" d="M540 504L551.363 501.976L558.244 490L573 457L561.185 459.564L553.691 472L540 504z"/>
<path style="fill:#dfb7b7; stroke:none;" d="M748 458L749 459L748 458M404 463L405 464L404 463M332 468L333 469L332 468M331 470L332 471L331 470M198 471L199 472L198 471z"/>
<path style="fill:#bd0d0d; stroke:none;" d="M418 519L431 518L452 472L440.105 474.742L432.247 487L418 519z"/>
<path style="fill:#dfb7b7; stroke:none;" d="M784 472L785 473L784 472M689 474L690 475L689 474M369 477L370 478L369 477M395 477L396 478L395 477M489 480L490 481L489 480M299 482L300 483L299 482M800 483L801 484L800 483M799 485L800 486L799 485M505 486L506 487L505 486M442 492L443 493L442 492M441 494L442 495L441 494M480 499L481 500L480 499M740 500L741 501L740 500M424 503L425 504L424 503M199 507L200 508L199 507M221 512L222 513L221 512M432 513L433 514L432 513z"/>
<path style="fill:#ffffff; stroke:none;" d="M727 542L732 542L715 573L714 573L727 520C695.905 520.642 663.794 527.579 633 531.87C623.597 533.18 604.273 531.647 596.498 537.027C592.97 539.469 591.226 546.217 589.576 550C585.353 559.676 578.927 568.841 576 579C582.633 578.715 600.208 579.16 605.031 574.397C610.151 569.341 610.242 560.936 616 556L590.204 608.942L580.966 616.279L571 637C582.649 636.992 594.468 635.012 606 633.424C610.058 632.865 616.084 633.278 619.61 630.976C625.314 627.251 629.199 614.301 631 608L625 608L654 551L646 570C652.673 569.982 667.174 570.489 672.502 566.142C679.665 560.297 677.789 550.23 688 547C679.132 570.505 672.353 600.101 669 625C680.017 624.993 691.099 622.925 702 621.424C705.945 620.88 711.198 621.175 714.674 618.987C723.304 613.555 729.715 597.427 735.333 589C745.477 573.785 754.801 557.945 765.348 543.005C768.195 538.972 772.23 538.048 775.363 534.687C780.421 529.259 783.349 519.833 786 513C774.688 513.031 763.208 515.258 752 516.718C748.014 517.238 741.845 516.802 738.39 519.027C732.664 522.715 728.724 535.695 727 542z"/>
<path style="fill:#dfb7b7; stroke:none;" d="M310 514L311 515L310 514M627 514L628 515L627 514M431 515L432 516L431 515M418 516L419 517L418 516M784 516L785 517L784 516M599 518L600 519L599 518M372 525L373 526L372 525M185 526L186 527L185 526M356 527L357 528L356 527M580 528L581 529L580 528M277 531L278 532L277 531M724 531L725 532L724 531M230 532L231 533L230 532M491 532L492 533L491 532M628 532L629 533L628 532M612 534L613 535L612 534M723 535L724 536L723 535M460 536L461 537L460 536M774 536L775 537L774 536M452 537L453 538L452 537M594 539L595 540L594 539M413 542L414 543L413 542M517 545L518 546L517 545M729 547L730 548L729 547M726 552L727 553L726 552M514 553L515 554L514 553M513 555L514 556L513 555M755 557L756 558L755 557M646 563L647 564L646 563M645 565L646 566L645 565M466 567L467 568L466 567M714 572L715 573L714 572M744 574L745 575L744 574M520 586L521 587L520 586M512 587L513 588L512 587M460 590L461 591L460 590M481 591L482 592L481 591M597 594L598 595L597 594M596 596L597 597L596 596M729 597L730 598L729 597M628 600L629 601L628 600M727 600L728 601L727 600M673 605L674 606L673 605M672 609L673 610L672 609M584 613L585 614L584 613M709 620L710 621L709 620z"/>
</svg>
