<?xml version="1.0" standalone="yes"?>
<svg xmlns="http://www.w3.org/2000/svg" width="1024" height="1024">
<path style="fill:#f90177; stroke:none;" d="M0 0L0 1024L1024 1024L1024 0L0 0z"/>
<path style="fill:#fe870b; stroke:none;" d="M738 447L738 511C752.38 510.998 770.069 509.787 783 503C783.239 494.523 792.563 496.261 795.289 489.941C800.904 476.926 802 460.985 802 447L738 447z"/>
<path style="fill:#bea7aa; stroke:none;" d="M802 447L799 477L806 476L802 447z"/>
<path style="fill:#fe5702; stroke:none;" d="M803 447L804 448L803 447M803 449L803 455L804 455L803 449M804.333 464.667L804.667 465.333L804.333 464.667z"/>
<path style="fill:#fefefe; stroke:none;" d="M167 523C164.334 527.568 156.439 538.391 157.816 543.787C159.186 549.154 171.449 551.392 176 552.525C193.26 556.819 221.092 557.287 227.211 536C231.748 520.213 223.908 507.135 209 501.695C205.05 500.254 186.695 496.817 187.631 491.09C189.16 481.738 211.789 493.787 216 495L226 474C214.947 470.238 204.088 464.405 192 465.093C171.758 466.247 152.301 484.725 162.572 506C169.918 521.216 188.941 516.016 198.704 526.414C203.111 531.109 195.091 532.115 192 531.909C182.854 531.301 175.343 526.036 167 523M266 466.465C235.216 472.015 221.219 509.59 238.105 535C248.566 550.741 266.891 556.83 285 553.536C317.461 547.631 329.887 507.079 310.471 482.001C300.08 468.581 282.353 463.516 266 466.465M328 466L328 554L353 554L353 527C367.195 527.168 366.368 544.893 375.529 552.397C381.099 556.958 397.023 554 404 554C400.532 544.527 388.029 533.026 387.677 523C387.524 518.628 393.378 514.011 395.12 510C400.462 497.702 397.81 482.666 387.711 473.518C373.398 460.553 345.916 466 328 466M437 466.518C380.043 478.596 401.43 566.124 458 553.32C514.016 540.641 492.926 454.658 437 466.518M495 466L495 488L532 488L505.247 520L493.742 535L493 554L563 554L563 532L525 532C536.1 518.229 554.577 501.413 561.143 485C563.329 479.535 562 471.808 562 466L495 466M565 554C571.398 554 582.805 556.231 588.581 553.397C593.538 550.964 591.846 542.256 595.702 538.603C599.874 534.653 612.553 537 618 537L622 554L648 554L618 466C612.341 466 600.248 463.701 595.51 467.028C590.741 470.376 588.616 483.594 586.692 489C579.367 509.581 568.19 532.397 565 554M636 466L636 488L661 488L661 554L686 554L686 488L711 488L711 466L636 466z"/>
<path style="fill:#fe5702; stroke:none;" d="M805.333 471.667L805.667 472.333L805.333 471.667z"/>
<path style="fill:#fefefe; stroke:none;" d="M768 508L768 515C775.584 516.022 787.471 518.506 792.182 525.105C797.311 532.289 795.407 547.648 806 548C806.656 539.967 809.612 525.812 817.044 521.414C821.181 518.965 838.867 516.874 839.534 511.881C840.213 506.8 820.847 503.806 817.044 501.583C809.743 497.315 807.052 483.805 806 476C795.036 476.607 797.261 491.606 791.301 498.725C786.478 504.486 775.018 506.548 768 508z"/>
<path style="fill:#fe5702; stroke:none;" d="M806 477L807 478L806 477z"/>
<path style="fill:#bea7aa; stroke:none;" d="M806.333 478.667L806.667 479.333L806.333 478.667M798.333 479.667L798.667 480.333L798.333 479.667z"/>
<path style="fill:#fe5702; stroke:none;" d="M807 481L808 482L807 481z"/>
<path style="fill:#bea7aa; stroke:none;" d="M807.333 482.667L807.667 483.333L807.333 482.667M797.333 483.667L797.667 484.333L797.333 483.667M808.333 485.667L808.667 486.333L808.333 485.667M796.333 486.667L796.667 487.333L796.333 486.667z"/>
<path style="fill:#fe5702; stroke:none;" d="M809 487L812 496L827 505C826.439 494.215 818.526 489.492 809 487z"/>
<path style="fill:#f90177; stroke:none;" d="M269 488.653C245.33 496.075 255.873 539.391 282 531.196C305.295 523.89 294.827 480.555 269 488.653M353 488L353 505C357.6 505 364.758 506.337 368.867 503.972C374.087 500.968 373.896 492.061 368.786 489.028C364.762 486.639 357.535 488 353 488M442 488.533C417.736 494.394 426.328 538.442 453 531.442C476.027 525.399 468.037 482.244 442 488.533z"/>
<path style="fill:#bea7aa; stroke:none;" d="M809.333 488.667L809.667 489.333L809.333 488.667M795.333 489.667L795.667 490.333L795.333 489.667M810.333 491.667L810.667 492.333L810.333 491.667M794 492L795 493L794 492M782 504C788.089 502.258 791.84 500.112 794 494C786.909 494.171 783.321 496.972 782 504M811 494L812 495L811 494M812 496C813.493 500.165 815.822 501.748 820 503C818.57 498.454 817.145 495.564 812 496z"/>
<path style="fill:#f90177; stroke:none;" d="M606 496L599 520L613 520L606 496z"/>
<path style="fill:#bea7aa; stroke:none;" d="M821.667 503.333L822.333 503.667L821.667 503.333M780 504L781 505L780 504M824 504L825 505L824 504M777 505L778 506L777 505M826.667 505.333L827.333 505.667L826.667 505.333z"/>
<path style="fill:#fe5702; stroke:none;" d="M828 505L829 506L828 505z"/>
<path style="fill:#bea7aa; stroke:none;" d="M773.667 506.333L774.333 506.667L773.667 506.333M830.667 506.333L831.333 506.667L830.667 506.333z"/>
<path style="fill:#fe5702; stroke:none;" d="M832 506L833 507L832 506z"/>
<path style="fill:#bea7aa; stroke:none;" d="M769.667 507.333L770.333 507.667L769.667 507.333M834.667 507.333L835.333 507.667L834.667 507.333z"/>
<path style="fill:#fe5702; stroke:none;" d="M836 507L837 508L836 507z"/>
<path style="fill:#bea7aa; stroke:none;" d="M738 511L738 512L768 515L768 508L738 511M838 508L838 509L838 514L838 515L867 512L867 511L838 508z"/>
<path style="fill:#fe5702; stroke:none;" d="M841 508L842 509L841 508M847.667 509.333L848.333 509.667L847.667 509.333M856 510L856 511L860 511L856 510M738 512L739 513L738 512M745 512L745 513L750 513L745 512z"/>
<path style="fill:#fe870b; stroke:none;" d="M856 512L856 513L861 513L856 512z"/>
<path style="fill:#fe5702; stroke:none;" d="M803 575C821.601 580.498 847.566 576 867 576L867 512C853.954 512.269 840.624 514.364 828 517.63C823.294 518.847 816.891 520.249 813.702 524.225C802.963 537.616 806.686 559.518 803 575M757.667 513.333L758.333 513.667L757.667 513.333z"/>
<path style="fill:#fe870b; stroke:none;" d="M847 513L847 514L850 514L847 513z"/>
<path style="fill:#fe5702; stroke:none;" d="M764 514L765 515L764 514z"/>
<path style="fill:#fe870b; stroke:none;" d="M841.667 514.333L842.333 514.667L841.667 514.333z"/>
<path style="fill:#fe5702; stroke:none;" d="M769 515L770 516L769 515z"/>
<path style="fill:#bea7aa; stroke:none;" d="M770.667 515.333L771.333 515.667L770.667 515.333M834.667 515.333L835.333 515.667L834.667 515.333z"/>
<path style="fill:#fe870b; stroke:none;" d="M836 515L837 516L836 515z"/>
<path style="fill:#fe5702; stroke:none;" d="M773 516L774 517L773 516z"/>
<path style="fill:#bea7aa; stroke:none;" d="M774.667 516.333L775.333 516.667L774.667 516.333M830 516L831 517L830 516z"/>
<path style="fill:#fe870b; stroke:none;" d="M831.667 516.333L832.333 516.667L831.667 516.333z"/>
<path style="fill:#fe5702; stroke:none;" d="M777 517L778 518L777 517z"/>
<path style="fill:#bea7aa; stroke:none;" d="M778 517L779 518L778 517M827 517L828 518L827 517z"/>
<path style="fill:#fe870b; stroke:none;" d="M828 517L829 518L828 517z"/>
<path style="fill:#fe5702; stroke:none;" d="M780 518L781 519L780 518z"/>
<path style="fill:#bea7aa; stroke:none;" d="M781 518L782 519L781 518M823 518L824 519L823 518z"/>
<path style="fill:#fe870b; stroke:none;" d="M824 518L825 519L824 518z"/>
<path style="fill:#fe5702; stroke:none;" d="M783 519L784 520L783 519z"/>
<path style="fill:#bea7aa; stroke:none;" d="M784 519L785 520L784 519M821 519L822 520L821 519M786 520L787 521L786 520M818 520L819 521L818 520z"/>
<path style="fill:#fe870b; stroke:none;" d="M819 520L820 521L819 520z"/>
<path style="fill:#fe5702; stroke:none;" d="M788 521L789 522L788 521z"/>
<path style="fill:#bea7aa; stroke:none;" d="M816 521L817 522L816 521z"/>
<path style="fill:#fe5702; stroke:none;" d="M790 522L791 523L790 522z"/>
<path style="fill:#bea7aa; stroke:none;" d="M814 522L815 523L814 522z"/>
<path style="fill:#fe5702; stroke:none;" d="M791 523L792 524L791 523z"/>
<path style="fill:#bea7aa; stroke:none;" d="M813 523L814 524L813 523M792 524L793 525L792 524z"/>
<path style="fill:#fe5702; stroke:none;" d="M792 525L793 526L792 525z"/>
<path style="fill:#bea7aa; stroke:none;" d="M812 525L813 526L812 525z"/>
<path style="fill:#fe5702; stroke:none;" d="M793 527L794 528L793 527z"/>
<path style="fill:#fe870b; stroke:none;" d="M811 528L812 529L811 528z"/>
<path style="fill:#bea7aa; stroke:none;" d="M794 529L795 530L794 529z"/>
<path style="fill:#fe5702; stroke:none;" d="M794 530L795 531L794 530z"/>
<path style="fill:#bea7aa; stroke:none;" d="M810 530L811 531L810 530z"/>
<path style="fill:#fe870b; stroke:none;" d="M810 531L811 532L810 531z"/>
<path style="fill:#bea7aa; stroke:none;" d="M795 532L796 533L795 532M809 533L810 534L809 533z"/>
<path style="fill:#fe870b; stroke:none;" d="M809 534L810 535L809 534z"/>
<path style="fill:#bea7aa; stroke:none;" d="M796 535L797 536L796 535z"/>
<path style="fill:#fe5702; stroke:none;" d="M796 536L797 537L796 536z"/>
<path style="fill:#bea7aa; stroke:none;" d="M808 536L809 537L808 536z"/>
<path style="fill:#fe870b; stroke:none;" d="M808 537L809 538L808 537z"/>
<path style="fill:#bea7aa; stroke:none;" d="M797 538L798 539L797 538z"/>
<path style="fill:#fe5702; stroke:none;" d="M797 539L798 540L797 539z"/>
<path style="fill:#bea7aa; stroke:none;" d="M807.333 539.667L807.667 540.333L807.333 539.667z"/>
<path style="fill:#fe870b; stroke:none;" d="M807 541L808 542L807 541z"/>
<path style="fill:#bea7aa; stroke:none;" d="M798 542L799 543L798 542z"/>
<path style="fill:#fe870b; stroke:none;" d="M798 543L799 544L798 543z"/>
<path style="fill:#bea7aa; stroke:none;" d="M806.333 543.667L806.667 544.333L806.333 543.667z"/>
<path style="fill:#fe5702; stroke:none;" d="M798 544L799 545L798 544z"/>
<path style="fill:#fe870b; stroke:none;" d="M806.333 545.667L806.667 546.333L806.333 545.667z"/>
<path style="fill:#bea7aa; stroke:none;" d="M799 546L802 576L803 576L806 548L799 546z"/>
<path style="fill:#fe5702; stroke:none;" d="M799.333 548.667L799.667 549.333L799.333 548.667z"/>
<path style="fill:#fe870b; stroke:none;" d="M805.333 550.667L805.667 551.333L805.333 550.667M800 554L801 555L800 554z"/>
<path style="fill:#fe5702; stroke:none;" d="M800 555L801 556L800 555z"/>
<path style="fill:#fe870b; stroke:none;" d="M804 557L804 560L805 560L804 557z"/>
<path style="fill:#fe5702; stroke:none;" d="M801 563L801 566L802 566L801 563z"/>
<path style="fill:#fe870b; stroke:none;" d="M803 568L803 574L804 574L803 568M803 575L804 576L803 575z"/>
</svg>
