<?xml version="1.0" standalone="yes"?>
<svg xmlns="http://www.w3.org/2000/svg" width="1024" height="1024">
<path style="fill:#ed1d25; stroke:none;" d="M0 0L0 1024L1024 1024L1024 0L0 0z"/>
<path style="fill:#5d2d91; stroke:none;" d="M321 529C309.202 547.861 286.247 562.568 266 571C272.251 573.622 281.489 570.838 288 569.753C306.457 566.678 324.49 561.919 342 555.316C347.942 553.075 355.61 547.448 362 547.539C372.359 547.685 384.861 554.092 395 556.627C415.738 561.811 436.79 565.196 458 567.714C535.63 576.934 624.018 568.087 695 533.742C748.024 508.085 808.771 454.436 775.741 390C770.613 379.996 763.918 370.957 755.999 363C743.753 350.694 730.085 340.081 715 331.427C659.847 299.79 595.789 287.71 533 284.961C462.288 281.864 388.271 291.933 324 323.259C276.964 346.185 226.319 391.225 242.152 449C244.508 457.596 248.279 465.499 253.054 473C260.612 484.873 270.305 494.686 281 503.725C292.595 513.526 306.632 523.772 321 529z"/>
<path style="fill:#9475b6; stroke:none;" d="M619 357L619 358L624 358L619 357M363 358L363 359L463 359L432 358L363 358M468 358L468 359L502 359L468 358M548 358L548 359L582 359L548 358M611 358L612 359L611 358z"/>
<path style="fill:#bba5cf; stroke:none;" d="M612 358L612 359L615 359L612 358z"/>
<path style="fill:#ffffff; stroke:none;" d="M579 399L609 399C612.027 378.893 640.148 385.582 633.333 404C630.651 411.246 623.28 417.575 618.014 423C606.448 434.915 587.428 450.199 580.028 465C576.38 472.295 579 485.929 579 494L665 494L665 467L617 467C630.803 447.172 660.008 431.11 664.535 406C673.153 358.208 602.347 339.185 582.262 381C579.415 386.927 579.001 392.535 579 399z"/>
<path style="fill:#bba5cf; stroke:none;" d="M629.667 358.333L630.333 358.667L629.667 358.333z"/>
<path style="fill:#9475b6; stroke:none;" d="M631.667 358.333L632.333 358.667L631.667 358.333z"/>
<path style="fill:#ffffff; stroke:none;" d="M363 359L363 388L396 388L396 494L429 494L429 388L463 388L463 359L363 359M468 359C479.078 393.046 490.345 427.035 501.667 461L509.667 485C510.727 488.174 511.452 492.622 515.133 493.682C519.42 494.917 533.889 495.717 537.157 492.397C544.609 484.823 547.302 464.095 550.667 454C561.213 422.362 571.682 390.709 582 359C574.31 359 554.792 355.447 548.563 360.028C544.109 363.303 542.619 375.844 541.141 381C536.156 398.389 532.322 417.462 525 434C519.166 415.755 514.048 397.284 508.341 379C506.838 374.184 505.765 363.063 501.487 360.028C495.052 355.462 475.842 359 468 359z"/>
<path style="fill:#bba5cf; stroke:none;" d="M502 359L503 360L502 359M547 359L548 360L547 359z"/>
<path style="fill:#9475b6; stroke:none;" d="M607 359L608 360L607 359z"/>
<path style="fill:#bba5cf; stroke:none;" d="M608 359L609 360L608 359M634.667 359.333L635.333 359.667L634.667 359.333z"/>
<path style="fill:#9475b6; stroke:none;" d="M636 359L637 360L636 359z"/>
<path style="fill:#bba5cf; stroke:none;" d="M468 360L469 361L468 360M581 360L582 361L581 360z"/>
<path style="fill:#9475b6; stroke:none;" d="M604 360L605 361L604 360z"/>
<path style="fill:#bba5cf; stroke:none;" d="M605 360L606 361L605 360M638 360L639 361L638 360z"/>
<path style="fill:#9475b6; stroke:none;" d="M639 360L640 361L639 360M468 361L469 362L468 361M503 361L504 362L503 361M581 361L582 362L581 361M601 361L602 362L601 361z"/>
<path style="fill:#bba5cf; stroke:none;" d="M602 361L603 362L602 361z"/>
<path style="fill:#9475b6; stroke:none;" d="M641 361L642 362L641 361z"/>
<path style="fill:#bba5cf; stroke:none;" d="M503 362L504 363L503 362z"/>
<path style="fill:#9475b6; stroke:none;" d="M546 362L547 363L546 362M599 362L600 363L599 362z"/>
<path style="fill:#bba5cf; stroke:none;" d="M600 362L601 363L600 362M643 362L644 363L643 362M469 363L470 364L469 363M546 363L547 364L546 363M580 363L581 364L580 363M598 363L599 364L598 363M645 363L646 364L645 363z"/>
<path style="fill:#9475b6; stroke:none;" d="M469 364L470 365L469 364M580 364L581 365L580 364M596 364L597 365L596 364M647 364L648 365L647 364M504 365L505 366L504 365M545 365L546 366L545 365M594 365L595 366L594 365z"/>
<path style="fill:#bba5cf; stroke:none;" d="M648 365L649 366L648 365M470 366L471 367L470 366M504 366L505 367L504 366M545 366L546 367L545 366M579 366L580 367L579 366z"/>
<path style="fill:#9475b6; stroke:none;" d="M593 366L594 367L593 366M650 366L651 367L650 366M470 367L471 368L470 367M579 367L580 368L579 367z"/>
<path style="fill:#bba5cf; stroke:none;" d="M592 367L593 368L592 367M651 367L652 368L651 367z"/>
<path style="fill:#9475b6; stroke:none;" d="M505 368L506 369L505 368M544 368L545 369L544 368z"/>
<path style="fill:#bba5cf; stroke:none;" d="M591 368L592 369L591 368M471 369L472 370L471 369M505 369L506 370L505 369M544 369L545 370L544 369M578 369L579 370L578 369M590 369L591 370L590 369z"/>
<path style="fill:#9475b6; stroke:none;" d="M471 370L472 371L471 370M578 370L579 371L578 370z"/>
<path style="fill:#bba5cf; stroke:none;" d="M589 370L590 371L589 370z"/>
<path style="fill:#9475b6; stroke:none;" d="M506 371L507 372L506 371z"/>
<path style="fill:#bba5cf; stroke:none;" d="M588 371L589 372L588 371M472 372L473 373L472 372M506 372L507 373L506 372z"/>
<path style="fill:#9475b6; stroke:none;" d="M543 372L544 373L543 372z"/>
<path style="fill:#bba5cf; stroke:none;" d="M577 372L578 373L577 372M587 372L588 373L587 372M656 372L657 373L656 372z"/>
<path style="fill:#9475b6; stroke:none;" d="M472 373L473 374L472 373z"/>
<path style="fill:#bba5cf; stroke:none;" d="M543 373L544 374L543 373z"/>
<path style="fill:#9475b6; stroke:none;" d="M577 373L578 374L577 373M586 373L587 374L586 373z"/>
<path style="fill:#bba5cf; stroke:none;" d="M657 373L658 374L657 373z"/>
<path style="fill:#9475b6; stroke:none;" d="M585 374L586 375L585 374M658 374L659 375L658 374z"/>
<path style="fill:#bba5cf; stroke:none;" d="M473 375L474 376L473 375z"/>
<path style="fill:#9475b6; stroke:none;" d="M507 375L508 376L507 375M542 375L543 376L542 375z"/>
<path style="fill:#bba5cf; stroke:none;" d="M576 375L577 376L576 375z"/>
<path style="fill:#9475b6; stroke:none;" d="M473 376L474 377L473 376z"/>
<path style="fill:#bba5cf; stroke:none;" d="M507 376L508 377L507 376M542 376L543 377L542 376z"/>
<path style="fill:#9475b6; stroke:none;" d="M576 376L577 377L576 376z"/>
<path style="fill:#bba5cf; stroke:none;" d="M584 376L585 377L584 376M659 376L660 377L659 376z"/>
<path style="fill:#9475b6; stroke:none;" d="M583 377L584 378L583 377M660 377L661 378L660 377z"/>
<path style="fill:#bba5cf; stroke:none;" d="M474 378L475 379L474 378z"/>
<path style="fill:#9475b6; stroke:none;" d="M508 378L509 379L508 378M541 378L542 379L541 378z"/>
<path style="fill:#bba5cf; stroke:none;" d="M575 378L576 379L575 378M583 378L584 379L583 378M660 378L661 379L660 378z"/>
<path style="fill:#9475b6; stroke:none;" d="M474 379L475 380L474 379z"/>
<path style="fill:#bba5cf; stroke:none;" d="M508 379L509 380L508 379M541 379L542 380L541 379z"/>
<path style="fill:#9475b6; stroke:none;" d="M575 379L576 380L575 379M582 379L583 380L582 379M661 379L662 380L661 379z"/>
<path style="fill:#bba5cf; stroke:none;" d="M582 380L583 381L582 380M661 380L662 381L661 380M475 381L476 382L475 381z"/>
<path style="fill:#9475b6; stroke:none;" d="M509 381L510 382L509 381z"/>
<path style="fill:#bba5cf; stroke:none;" d="M574 381L575 382L574 381z"/>
<path style="fill:#9475b6; stroke:none;" d="M581 381L582 382L581 381M475 382L476 383L475 382z"/>
<path style="fill:#bba5cf; stroke:none;" d="M509 382L510 383L509 382z"/>
<path style="fill:#9475b6; stroke:none;" d="M540 382L541 383L540 382M574 382L575 383L574 382z"/>
<path style="fill:#bba5cf; stroke:none;" d="M581 382L582 383L581 382M662 382L663 383L662 382M540 383L541 384L540 383M476 384L477 385L476 384M573 384L574 385L573 384z"/>
<path style="fill:#9475b6; stroke:none;" d="M580 384L581 385L580 384M663 384L664 385L663 384M476 385L477 386L476 385M510 385L511 386L510 385M539 385L540 386L539 385M573 385L574 386L573 385z"/>
<path style="fill:#bba5cf; stroke:none;" d="M663 385L664 386L663 385M510 386L511 387L510 386M539 386L540 387L539 386M617 386L618 387L617 386z"/>
<path style="fill:#9475b6; stroke:none;" d="M618 386L619 387L618 386M625 386L626 387L625 386z"/>
<path style="fill:#bba5cf; stroke:none;" d="M626 386L627 387L626 386M477 387L478 388L477 387M572 387L573 388L572 387z"/>
<path style="fill:#9475b6; stroke:none;" d="M579 387L580 388L579 387M615 387L616 388L615 387M628 387L629 388L628 387M363 388L363 389L396 389L363 388z"/>
<path style="fill:#bba5cf; stroke:none;" d="M429 388L430 389L429 388z"/>
<path style="fill:#9475b6; stroke:none;" d="M430 388L430 389L463 389L430 388M477 388L478 389L477 388M511 388L512 389L511 388M572 388L573 389L572 388z"/>
<path style="fill:#bba5cf; stroke:none;" d="M579 388L580 389L579 388M613 388L614 389L613 388M630 388L631 389L630 388z"/>
<path style="fill:#9475b6; stroke:none;" d="M664 388L665 389L664 388M429 389L429 494L430 494L430 421L429 389z"/>
<path style="fill:#bba5cf; stroke:none;" d="M511 389L512 390L511 389M538.333 389.667L538.667 390.333L538.333 389.667M612 389L613 390L612 389M631 389L632 390L631 389M664.333 389.667L664.667 390.333L664.333 389.667M478 390L479 391L478 390M571 390L572 391L571 390M611 390L612 391L611 390z"/>
<path style="fill:#9475b6; stroke:none;" d="M478 391L479 392L478 391M512 391L513 392L512 391M571 391L572 392L571 391M632 391L633 392L632 391z"/>
<path style="fill:#bba5cf; stroke:none;" d="M512 392L513 393L512 392z"/>
<path style="fill:#9475b6; stroke:none;" d="M537 392L538 393L537 392M578.333 392.667L578.667 393.333L578.333 392.667z"/>
<path style="fill:#bba5cf; stroke:none;" d="M610 392L611 393L610 392M479 393L480 394L479 393M537 393L538 394L537 393z"/>
<path style="fill:#9475b6; stroke:none;" d="M610 393L611 394L610 393M633.333 393.667L633.667 394.333L633.333 393.667M479 394L480 395L479 394M570 394L571 395L570 394z"/>
<path style="fill:#bba5cf; stroke:none;" d="M578 394L578 399L579 399L578 394z"/>
<path style="fill:#9475b6; stroke:none;" d="M665 394L665 403L666 403L665 394M513 395L514 396L513 395M536 395L537 396L536 395z"/>
<path style="fill:#bba5cf; stroke:none;" d="M609 395L609 399L610 399L609 395M480 396L481 397L480 396M513 396L514 397L513 396M536 396L537 397L536 396z"/>
<path style="fill:#9475b6; stroke:none;" d="M480 397L481 398L480 397M569 397L570 398L569 397z"/>
<path style="fill:#bba5cf; stroke:none;" d="M634 397L634 400L635 400L634 397z"/>
<path style="fill:#9475b6; stroke:none;" d="M514 398L515 399L514 398z"/>
<path style="fill:#bba5cf; stroke:none;" d="M481 399L482 400L481 399M514 399L515 400L514 399z"/>
<path style="fill:#9475b6; stroke:none;" d="M535 399L536 400L535 399M481 400L482 401L481 400z"/>
<path style="fill:#bba5cf; stroke:none;" d="M535 400L536 401L535 400z"/>
<path style="fill:#9475b6; stroke:none;" d="M568 400L569 401L568 400M515 401L516 402L515 401z"/>
<path style="fill:#bba5cf; stroke:none;" d="M482 402L483 403L482 402M515 402L516 403L515 402z"/>
<path style="fill:#9475b6; stroke:none;" d="M534 402L535 403L534 402M482 403L483 404L482 403z"/>
<path style="fill:#bba5cf; stroke:none;" d="M534 403L535 404L534 403z"/>
<path style="fill:#9475b6; stroke:none;" d="M567 403L568 404L567 403M633 403L634 404L633 403M516 404L517 405L516 404z"/>
<path style="fill:#bba5cf; stroke:none;" d="M633 404L634 405L633 404M483 405L484 406L483 405M516.333 405.667L516.667 406.333L516.333 405.667z"/>
<path style="fill:#9475b6; stroke:none;" d="M533 405L534 406L533 405M483 406L484 407L483 406z"/>
<path style="fill:#bba5cf; stroke:none;" d="M533 406L534 407L533 406M566 406L567 407L566 406M632 406L633 407L632 406M664 406L665 407L664 406z"/>
<path style="fill:#9475b6; stroke:none;" d="M631 407L632 408L631 407M664.333 407.667L664.667 408.333L664.333 407.667z"/>
<path style="fill:#bba5cf; stroke:none;" d="M484 408L485 409L484 408z"/>
<path style="fill:#9475b6; stroke:none;" d="M517 408L518 409L517 408M484 409L485 410L484 409z"/>
<path style="fill:#bba5cf; stroke:none;" d="M517 409L518 410L517 409z"/>
<path style="fill:#9475b6; stroke:none;" d="M532 409L533 410L532 409z"/>
<path style="fill:#bba5cf; stroke:none;" d="M565 409L566 410L565 409M630 409L631 410L630 409M532 410L533 411L532 410z"/>
<path style="fill:#9475b6; stroke:none;" d="M629 410L630 411L629 410z"/>
<path style="fill:#bba5cf; stroke:none;" d="M663 410L664 411L663 410M485 411L486 412L485 411z"/>
<path style="fill:#9475b6; stroke:none;" d="M518 411L519 412L518 411M628 411L629 412L628 411M663 411L664 412L663 411M485 412L486 413L485 412z"/>
<path style="fill:#bba5cf; stroke:none;" d="M518 412L519 413L518 412z"/>
<path style="fill:#9475b6; stroke:none;" d="M531 412L532 413L531 412z"/>
<path style="fill:#bba5cf; stroke:none;" d="M564 412L565 413L564 412z"/>
<path style="fill:#9475b6; stroke:none;" d="M627 412L628 413L627 412z"/>
<path style="fill:#bba5cf; stroke:none;" d="M531 413L532 414L531 413z"/>
<path style="fill:#9475b6; stroke:none;" d="M662 413L663 414L662 413z"/>
<path style="fill:#bba5cf; stroke:none;" d="M486 414L487 415L486 414z"/>
<path style="fill:#9475b6; stroke:none;" d="M519 414L520 415L519 414M486 415L487 416L486 415z"/>
<path style="fill:#bba5cf; stroke:none;" d="M519 415L520 416L519 415z"/>
<path style="fill:#9475b6; stroke:none;" d="M530 415L531 416L530 415z"/>
<path style="fill:#bba5cf; stroke:none;" d="M563 415L564 416L563 415M661 415L662 416L661 415M530.333 416.667L530.667 417.333L530.333 416.667M624 416L625 417L624 416M487 417L488 418L487 417M623 417L624 418L623 417z"/>
<path style="fill:#9475b6; stroke:none;" d="M660 417L661 418L660 417M487 418L488 419L487 418M520 418L521 419L520 418z"/>
<path style="fill:#bba5cf; stroke:none;" d="M562 418L563 419L562 418M622 418L623 419L622 418M659 418L660 419L659 418M520 419L521 420L520 419z"/>
<path style="fill:#9475b6; stroke:none;" d="M529 419L530 420L529 419z"/>
<path style="fill:#bba5cf; stroke:none;" d="M621 419L622 420L621 419M529 420L530 421L529 420M620 420L621 421L620 420z"/>
<path style="fill:#9475b6; stroke:none;" d="M658 420L659 421L658 420M488 421L489 422L488 421M521 421L522 422L521 421z"/>
<path style="fill:#bba5cf; stroke:none;" d="M561 421L562 422L561 421z"/>
<path style="fill:#9475b6; stroke:none;" d="M619 421L620 422L619 421z"/>
<path style="fill:#bba5cf; stroke:none;" d="M657 421L658 422L657 421M521 422L522 423L521 422z"/>
<path style="fill:#9475b6; stroke:none;" d="M528 422L529 423L528 422M618 422L619 423L618 422z"/>
<path style="fill:#bba5cf; stroke:none;" d="M528 423L529 424L528 423z"/>
<path style="fill:#9475b6; stroke:none;" d="M617 423L618 424L617 423M656 423L657 424L656 423z"/>
<path style="fill:#bba5cf; stroke:none;" d="M489 424L490 425L489 424z"/>
<path style="fill:#9475b6; stroke:none;" d="M522 424L523 425L522 424z"/>
<path style="fill:#bba5cf; stroke:none;" d="M560 424L561 425L560 424z"/>
<path style="fill:#9475b6; stroke:none;" d="M616 424L617 425L616 424M655 424L656 425L655 424z"/>
<path style="fill:#bba5cf; stroke:none;" d="M522 425L523 426L522 425M654 425L655 426L654 425z"/>
<path style="fill:#9475b6; stroke:none;" d="M527 426L528 427L527 426z"/>
<path style="fill:#bba5cf; stroke:none;" d="M653 426L654 427L653 426M490 427L491 428L490 427M527 427L528 428L527 427M559 427L560 428L559 427z"/>
<path style="fill:#9475b6; stroke:none;" d="M523 428L524 429L523 428z"/>
<path style="fill:#bba5cf; stroke:none;" d="M523 429L524 430L523 429z"/>
<path style="fill:#9475b6; stroke:none;" d="M526 429L527 430L526 429z"/>
<path style="fill:#bba5cf; stroke:none;" d="M612 429L613 430L612 429M491 430L492 431L491 430M526 430L527 431L526 430M558 430L559 431L558 430M611 430L612 431L611 430z"/>
<path style="fill:#9475b6; stroke:none;" d="M650 430L651 431L650 430M524 431L526 433L524 431z"/>
<path style="fill:#bba5cf; stroke:none;" d="M610 431L611 432L610 431z"/>
<path style="fill:#9475b6; stroke:none;" d="M649 431L650 432L649 431z"/>
<path style="fill:#bba5cf; stroke:none;" d="M524 432L525 433L524 432M609 432L610 433L609 432z"/>
<path style="fill:#9475b6; stroke:none;" d="M648 432L649 433L648 432z"/>
<path style="fill:#bba5cf; stroke:none;" d="M492 433L493 434L492 433M525 433L526 434L525 433M557 433L558 434L557 433M608 433L609 434L608 433z"/>
<path style="fill:#9475b6; stroke:none;" d="M647 433L648 434L647 433M607 434L608 435L607 434M646 434L647 435L646 434M606 435L607 436L606 435z"/>
<path style="fill:#bba5cf; stroke:none;" d="M645 435L646 436L645 435M493 436L494 437L493 436M556 436L557 437L556 436z"/>
<path style="fill:#9475b6; stroke:none;" d="M605 436L606 437L605 436z"/>
<path style="fill:#bba5cf; stroke:none;" d="M644 436L645 437L644 436z"/>
<path style="fill:#9475b6; stroke:none;" d="M493 437L494 438L493 437M604 437L605 438L604 437z"/>
<path style="fill:#bba5cf; stroke:none;" d="M643 437L644 438L643 437M642 438L643 439L642 438M494 439L495 440L494 439M555 439L556 440L555 439M641 439L642 440L641 439z"/>
<path style="fill:#9475b6; stroke:none;" d="M494 440L495 441L494 440z"/>
<path style="fill:#bba5cf; stroke:none;" d="M640 440L641 441L640 440M601 441L602 442L601 441M495 442L496 443L495 442M554 442L555 443L554 442M600 442L601 443L600 442z"/>
<path style="fill:#9475b6; stroke:none;" d="M495 443L496 444L495 443z"/>
<path style="fill:#bba5cf; stroke:none;" d="M599 443L600 444L599 443M598 444L599 445L598 444M496 445L497 446L496 445M553 445L554 446L553 445M597 445L598 446L597 445z"/>
<path style="fill:#9475b6; stroke:none;" d="M496 446L497 447L496 446M553 446L554 447L553 446M596 446L597 447L596 446M635 446L636 447L635 446M595 447L596 448L595 447M634 447L635 448L634 447z"/>
<path style="fill:#bba5cf; stroke:none;" d="M497 448L498 449L497 448M552 448L553 449L552 448z"/>
<path style="fill:#9475b6; stroke:none;" d="M594 448L595 449L594 448M633 448L634 449L633 448M497 449L498 450L497 449M552 449L553 450L552 449M593 449L594 450L593 449M632 449L633 450L632 449M592 450L593 451L592 450M631 450L632 451L631 450z"/>
<path style="fill:#bba5cf; stroke:none;" d="M498 451L499 452L498 451M551 451L552 452L551 451z"/>
<path style="fill:#9475b6; stroke:none;" d="M630 451L631 452L630 451M498 452L499 453L498 452M551 452L552 453L551 452M629 452L630 453L629 452z"/>
<path style="fill:#bba5cf; stroke:none;" d="M628 453L629 454L628 453M499 454L500 455L499 454M550 454L551 455L550 454M589 454L590 455L589 454M627 454L628 455L627 454z"/>
<path style="fill:#9475b6; stroke:none;" d="M499 455L500 456L499 455M550 455L551 456L550 455z"/>
<path style="fill:#bba5cf; stroke:none;" d="M588 455L589 456L588 455M626 455L627 456L626 455M587 456L588 457L587 456M625 456L626 457L625 456M500 457L501 458L500 457M549 457L550 458L549 457M586 457L587 458L586 457M624 457L625 458L624 457z"/>
<path style="fill:#9475b6; stroke:none;" d="M500 458L501 459L500 458M549 458L550 459L549 458z"/>
<path style="fill:#bba5cf; stroke:none;" d="M585 458L586 459L585 458M623 458L624 459L623 458z"/>
<path style="fill:#9475b6; stroke:none;" d="M584 459L585 460L584 459z"/>
<path style="fill:#bba5cf; stroke:none;" d="M501 460L502 461L501 460M548 460L549 461L548 460z"/>
<path style="fill:#9475b6; stroke:none;" d="M583 460L584 461L583 460M501 461L502 462L501 461M548 461L549 462L548 461M582 461L583 462L582 461M581 462L582 463L581 462z"/>
<path style="fill:#bba5cf; stroke:none;" d="M502 463L503 464L502 463M547 463L548 464L547 463z"/>
<path style="fill:#9475b6; stroke:none;" d="M580 463L581 464L580 463M502 464L503 465L502 464M547 464L548 465L547 464M618 464L619 465L618 464M617 465L618 466L617 465z"/>
<path style="fill:#bba5cf; stroke:none;" d="M503 466L504 467L503 466M546 466L547 467L546 466M578 466C578 471.563 575.046 490.362 579.603 493.972C583.148 496.779 592.68 495 597 495L645 495C649.705 495 660.561 497.01 664.397 493.972C667.793 491.282 667.653 468.557 663.682 466.603C660.101 464.841 653.904 466 650 466L617 466L617 467L665 467L665 494L579 494L578 466z"/>
<path style="fill:#9475b6; stroke:none;" d="M665 466L666 467L665 466M503 467L504 468L503 467M546 467L547 468L546 467z"/>
<path style="fill:#bba5cf; stroke:none;" d="M504 469L505 470L504 469M545 469L546 470L545 469z"/>
<path style="fill:#9475b6; stroke:none;" d="M504 470L505 471L504 470M545 470L546 471L545 470z"/>
<path style="fill:#bba5cf; stroke:none;" d="M505 472L506 473L505 472M544 472L545 473L544 472z"/>
<path style="fill:#9475b6; stroke:none;" d="M505 473L506 474L505 473M544 473L545 474L544 473z"/>
<path style="fill:#bba5cf; stroke:none;" d="M506 475L507 476L506 475M543 475L544 476L543 475z"/>
<path style="fill:#9475b6; stroke:none;" d="M506 476L507 477L506 476M543 476L544 477L543 476z"/>
<path style="fill:#bba5cf; stroke:none;" d="M507 478L508 479L507 478M542 478L543 479L542 478z"/>
<path style="fill:#9475b6; stroke:none;" d="M507 479L508 480L507 479M542 479L543 480L542 479z"/>
<path style="fill:#bba5cf; stroke:none;" d="M508 481L509 482L508 481M541 481L542 482L541 481z"/>
<path style="fill:#9475b6; stroke:none;" d="M508 482L509 483L508 482M541 482L542 483L541 482z"/>
<path style="fill:#bba5cf; stroke:none;" d="M509 484L510 485L509 484M540 484L541 485L540 484z"/>
<path style="fill:#9475b6; stroke:none;" d="M509 485L510 486L509 485M540 485L541 486L540 485z"/>
<path style="fill:#bba5cf; stroke:none;" d="M510 487L511 488L510 487M539 487L540 488L539 487z"/>
<path style="fill:#9475b6; stroke:none;" d="M510 488L511 489L510 488M539 488L540 489L539 488z"/>
<path style="fill:#bba5cf; stroke:none;" d="M511 490L512 491L511 490M538 490L539 491L538 490z"/>
<path style="fill:#9475b6; stroke:none;" d="M511 491L512 492L511 491M538 491L539 492L538 491z"/>
<path style="fill:#bba5cf; stroke:none;" d="M512 493L513 494L512 493M537 493L538 494L537 493z"/>
<path style="fill:#9475b6; stroke:none;" d="M396 494L396 495L429 495L396 494M513 494L513 495L537 495L513 494M578 494L579 495L578 494M665 494L666 495L665 494z"/>
<path style="fill:#bba5cf; stroke:none;" d="M201 606L202 607L201 606z"/>
<path style="fill:#ffffff; stroke:none;" d="M257 697C248.246 697 232.313 693.878 224.39 697.603C215.493 701.786 213.596 716.287 200.001 708.86C194.609 705.915 191.958 700.821 190.924 695C188.282 680.124 184.315 642.355 203 636.801C215.601 633.055 216.235 645.415 224.418 649.397C232.178 653.172 248.369 650 257 650C253.992 634.5 247.144 620.655 233 612.464C202.093 594.567 161.607 613.818 157.286 649C154.682 670.208 152.25 705.936 167.185 723C185.166 743.543 221.456 747.036 241.96 727.826C250.646 719.689 254.658 708.346 257 697M312 606.424C306.107 607.205 300.492 607.854 295 610.312C266.697 622.981 266 650.008 266 677C266 692.586 266.127 708.972 276.043 721.996C287.996 737.695 308.174 742.413 327 739.7C360.077 734.934 367 703.989 367 676C367 661.437 367.596 646.743 361.907 633C354.231 614.461 331.376 603.857 312 606.424M380 607L380 739L413 739L413 679L414 679C419.14 693.12 432.562 719.297 451.787 707.972C459.007 703.719 465.819 686.6 469 679L470 679L470 739L503 739L503 607L471.39 607.603L462.247 623L441 664C435.314 650.343 427.864 637.233 421.247 624C418.863 619.233 416.429 610.912 411.671 608.028C404.714 603.81 388.064 607 380 607M520 607L520 739L610 739L610 710L553 710L553 688L602 688L602 658L553 658L553 637L610 637L610 607L520 607M657 607L657 739C680.326 739 714.561 745.33 735 731.892C742.206 727.154 748.294 719.989 751.546 712C755.708 701.777 755 690.8 755 680C755 657.906 758.28 631.904 737.996 616.927C716.578 601.114 682.067 607 657 607M755 607C763.753 634.66 786.455 658.137 794.363 686C798.752 701.465 795 722.919 795 739L828 739C828 723.1 823.744 700.029 828.966 685C838.105 658.7 862.12 634.378 867 607C858.501 607 839.593 603.425 832.39 608.028C828.628 610.431 827.089 617.102 825.421 621C820.926 631.505 815.144 642.004 812 653C806.17 642.973 801.983 631.66 797.421 621C795.819 617.257 794.119 610.367 790.582 608.028C783.408 603.284 763.561 607 755 607z"/>
<path style="fill:#bba5cf; stroke:none;" d="M413 609L414 610L413 609M168 622L169 623L168 622M747 627L748 628L747 627z"/>
<path style="fill:#ffffff; stroke:none;" d="M632 629.537C614.214 633.642 619.936 661.581 638 657.606C656.14 653.614 649.984 625.386 632 629.537z"/>
<path style="fill:#bba5cf; stroke:none;" d="M251 632L252 633L251 632z"/>
<path style="fill:#ed1d25; stroke:none;" d="M312 636.533C305.895 638.015 301.934 643.043 300.529 649C297.101 663.526 296.931 684.592 300.928 699C303.209 707.22 311.504 712.49 320 710.466C326.143 709.003 330.436 703.933 332.072 698C333.16 694.052 332.811 690.022 333.285 686C335.098 670.65 337.888 630.248 312 636.533M690 637L690 710C698.445 710 710.278 711.292 716.786 704.786C726.491 695.086 722.843 667.725 721.91 655C721.561 650.243 720.238 644.91 716.66 641.532C709.808 635.064 698.61 637 690 637z"/>
<path style="fill:#bba5cf; stroke:none;" d="M450 646L451 647L450 646M157 647L158 648L157 647M440 662L441 663L440 662z"/>
<path style="fill:#ffffff; stroke:none;" d="M630.001 689.653C612.684 695.109 622.607 722.809 639.999 716.572C657.168 710.415 647.702 684.075 630.001 689.653z"/>
<path style="fill:#bba5cf; stroke:none;" d="M422 694L423 695L422 694M754 700L755 701L754 700M649 703L650 704L649 703M161 713L162 714L161 713M642 715L643 716L642 715M629 716L630 717L629 716z"/>
</svg>
