<?xml version="1.0" standalone="yes"?>
<svg xmlns="http://www.w3.org/2000/svg" width="1024" height="1024">
<path style="fill:#0f1335; stroke:none;" d="M0 0L0 1024L1024 1024L1024 0L0 0z"/>
<path style="fill:#16666d; stroke:none;" d="M268 387L269 388L268 387z"/>
<path style="fill:#66999c; stroke:none;" d="M269 387L269 388L275 388L269 387z"/>
<path style="fill:#98e2e2; stroke:none;" d="M390 449C383.767 451.907 369.181 463.893 367.982 471C367.237 475.42 371.255 481.687 372.37 486C374.988 496.118 376.629 506.511 375.91 517C374.15 542.677 361.235 565.981 342 582.711C280.373 636.309 187.075 585.064 188.004 507C188.145 495.163 191.558 482.579 196.756 472C202.99 459.314 211.21 448.337 222.001 439.134C233.086 429.68 246.754 422.614 261 419.425C277.169 415.806 293.113 416.477 309 421.144C328.358 426.832 344.411 439.541 357 455C362.386 451.206 376.193 440.849 377.083 434C377.596 430.046 372.483 425.547 369.961 423.089C361.93 415.263 352.659 408.662 343 403.012C313.583 385.802 276.223 383.041 244 393.026C225.328 398.811 207.877 409.226 194.001 423.004C181.529 435.387 171.636 450.546 165.425 467C159.544 482.581 156.607 499.342 157.015 516C159.286 608.725 260.893 662.988 341 622.244C356.009 614.61 369.402 603.192 379.789 590C393.798 572.21 402.361 551.364 405.572 529C409.8 499.549 401.087 475.63 390 449z"/>
<path style="fill:#66999c; stroke:none;" d="M289 387L289 388L294 388L289 387z"/>
<path style="fill:#16666d; stroke:none;" d="M294.667 387.333L295.333 387.667L294.667 387.333M261 388L262 389L261 388z"/>
<path style="fill:#66999c; stroke:none;" d="M262 388L262 389L265 389L262 388M299 388L299 389L302 389L299 388z"/>
<path style="fill:#16666d; stroke:none;" d="M302 388L303 389L302 388M255 389L256 390L255 389z"/>
<path style="fill:#66999c; stroke:none;" d="M256.667 389.333L257.333 389.667L256.667 389.333M305.667 389.333L306.333 389.667L305.667 389.333z"/>
<path style="fill:#16666d; stroke:none;" d="M307 389L308 390L307 389M251 390L252 391L251 390z"/>
<path style="fill:#66999c; stroke:none;" d="M252.667 390.333L253.333 390.667L252.667 390.333M310.667 390.333L311.333 390.667L310.667 390.333z"/>
<path style="fill:#16666d; stroke:none;" d="M247 391L248 392L247 391z"/>
<path style="fill:#66999c; stroke:none;" d="M248.667 391.333L249.333 391.667L248.667 391.333M314.667 391.333L315.333 391.667L314.667 391.333z"/>
<path style="fill:#16666d; stroke:none;" d="M244 392L245 393L244 392z"/>
<path style="fill:#66999c; stroke:none;" d="M245 392L246 393L245 392M317.667 392.333L318.333 392.667L317.667 392.333z"/>
<path style="fill:#16666d; stroke:none;" d="M319 392L320 393L319 392M241 393L242 394L241 393z"/>
<path style="fill:#66999c; stroke:none;" d="M242 393L243 394L242 393M321 393L322 394L321 393z"/>
<path style="fill:#16666d; stroke:none;" d="M322 393L323 394L322 393M238 394L239 395L238 394z"/>
<path style="fill:#66999c; stroke:none;" d="M239 394L240 395L239 394M324 394L325 395L324 394M236 395L237 396L236 395M326 395L327 396L326 395z"/>
<path style="fill:#16666d; stroke:none;" d="M327 395L328 396L327 395M233 396L234 397L233 396z"/>
<path style="fill:#66999c; stroke:none;" d="M234 396L235 397L234 396M329 396L330 397L329 396M231 397L232 398L231 397M331 397L332 398L331 397z"/>
<path style="fill:#16666d; stroke:none;" d="M332 397L333 398L332 397z"/>
<path style="fill:#66999c; stroke:none;" d="M229 398L230 399L229 398z"/>
<path style="fill:#16666d; stroke:none;" d="M334 398L335 399L334 398z"/>
<path style="fill:#66999c; stroke:none;" d="M227 399L228 400L227 399M336 399L337 400L336 399M225 400L226 401L225 400z"/>
<path style="fill:#16666d; stroke:none;" d="M338 400L339 401L338 400z"/>
<path style="fill:#66999c; stroke:none;" d="M223 401L224 402L223 401z"/>
<path style="fill:#16666d; stroke:none;" d="M340 401L341 402L340 401z"/>
<path style="fill:#66999c; stroke:none;" d="M221 402L222 403L221 402z"/>
<path style="fill:#16666d; stroke:none;" d="M342 402L343 403L342 402M219 403L220 404L219 403z"/>
<path style="fill:#66999c; stroke:none;" d="M343 403L344 404L343 403z"/>
<path style="fill:#16666d; stroke:none;" d="M344 403L345 404L344 403M217 404L218 405L217 404z"/>
<path style="fill:#66999c; stroke:none;" d="M218 404L219 405L218 404M345 404L346 405L345 404M216 405L217 406L216 405z"/>
<path style="fill:#16666d; stroke:none;" d="M347 405L348 406L347 405M214 406L215 407L214 406z"/>
<path style="fill:#66999c; stroke:none;" d="M348 406L349 407L348 406M213 407L214 408L213 407M350 407L351 408L350 407z"/>
<path style="fill:#16666d; stroke:none;" d="M211 408L212 409L211 408z"/>
<path style="fill:#66999c; stroke:none;" d="M351 408L352 409L351 408M210 409L211 410L210 409M353 409L354 410L353 409z"/>
<path style="fill:#16666d; stroke:none;" d="M208 410L209 411L208 410z"/>
<path style="fill:#66999c; stroke:none;" d="M354 410L355 411L354 410M207 411L208 412L207 411z"/>
<path style="fill:#16666d; stroke:none;" d="M356 411L357 412L356 411z"/>
<path style="fill:#66999c; stroke:none;" d="M206 412L207 413L206 412M357 412L358 413L357 412z"/>
<path style="fill:#16666d; stroke:none;" d="M204 413L205 414L204 413z"/>
<path style="fill:#66999c; stroke:none;" d="M358 413L359 414L358 413M203 414L204 415L203 414z"/>
<path style="fill:#16666d; stroke:none;" d="M360 414L361 415L360 414z"/>
<path style="fill:#66999c; stroke:none;" d="M202 415L203 416L202 415z"/>
<path style="fill:#16666d; stroke:none;" d="M361 415L362 416L361 415z"/>
<path style="fill:#66999c; stroke:none;" d="M201 416L202 417L201 416M362 416L363 417L362 416M271.667 417.333L272.333 417.667L271.667 417.333z"/>
<path style="fill:#23c0bf; stroke:none;" d="M367 471C345.792 485.939 327.352 508.648 309 527C296.791 539.209 281.506 548.991 265 537.211C241.402 520.368 252.026 479.515 283 481.379C290.493 481.83 297.391 485.522 303 490.301C305.732 492.628 309.851 498.689 314 497.654C317.825 496.701 321.335 491.665 324 489L347 466C349.739 463.261 355.595 459.204 355.883 455C356.243 449.732 347.48 443.279 344 440.174C335.3 432.408 324.948 426.589 314 422.692C237.616 395.506 163.668 474.595 196.154 549C201.422 561.068 209.205 572.011 219 580.829C229.848 590.596 242.971 597.614 257 601.572C330.357 622.269 404.465 541.349 367 471z"/>
<path style="fill:#66999c; stroke:none;" d="M290.667 417.333L291.333 417.667L290.667 417.333M363 417L364 418L363 417z"/>
<path style="fill:#16666d; stroke:none;" d="M198 418L199 419L198 418z"/>
<path style="fill:#66999c; stroke:none;" d="M265 418L266 419L265 418M298 418L299 419L298 418M364 418L365 419L364 418z"/>
<path style="fill:#16666d; stroke:none;" d="M197 419L198 420L197 419z"/>
<path style="fill:#66999c; stroke:none;" d="M260 419L261 420L260 419M303 419L304 420L303 419M365 419L366 420L365 419z"/>
<path style="fill:#16666d; stroke:none;" d="M196 420L197 421L196 420z"/>
<path style="fill:#66999c; stroke:none;" d="M256 420L257 421L256 420z"/>
<path style="fill:#16666d; stroke:none;" d="M195 421L196 422L195 421z"/>
<path style="fill:#66999c; stroke:none;" d="M253 421L254 422L253 421M310 421L311 422L310 421z"/>
<path style="fill:#16666d; stroke:none;" d="M368 421L369 422L368 421z"/>
<path style="fill:#66999c; stroke:none;" d="M194 422L195 423L194 422M250 422L251 423L250 422M313 422L314 423L313 422z"/>
<path style="fill:#16666d; stroke:none;" d="M369 422L370 423L369 422z"/>
<path style="fill:#66999c; stroke:none;" d="M193 423L194 424L193 423M247 423L248 424L247 423z"/>
<path style="fill:#16666d; stroke:none;" d="M370 423L371 424L370 423z"/>
<path style="fill:#66999c; stroke:none;" d="M192 424L193 425L192 424M318 424L319 425L318 424z"/>
<path style="fill:#16666d; stroke:none;" d="M371 424L372 425L371 424M191 425L192 426L191 425M372 425L373 426L372 425M190 426L191 427L190 426M189 427L190 428L189 427M188 428L189 429L188 428z"/>
<path style="fill:#66999c; stroke:none;" d="M374 428L375 429L374 428M235 429L236 430L235 429M375 429L376 430L375 429M233 430L234 431L233 430M376 430L377 431L376 430M186 431L187 432L186 431M377 431L378 432L377 431M185 432L186 433L185 432M230 432L231 433L230 432M333 432L334 433L333 432z"/>
<path style="fill:#16666d; stroke:none;" d="M378 432L379 433L378 432z"/>
<path style="fill:#66999c; stroke:none;" d="M184 433L185 434L184 433M378 433L379 434L378 433z"/>
<path style="fill:#16666d; stroke:none;" d="M183 434L184 435L183 434z"/>
<path style="fill:#66999c; stroke:none;" d="M227 434L228 435L227 434z"/>
<path style="fill:#16666d; stroke:none;" d="M378 434L379 435L378 434M377 435L378 436L377 435z"/>
<path style="fill:#66999c; stroke:none;" d="M182 436L183 437L182 436z"/>
<path style="fill:#16666d; stroke:none;" d="M376 436L377 437L376 436z"/>
<path style="fill:#66999c; stroke:none;" d="M181 437L182 438L181 437M223 437L224 438L223 437z"/>
<path style="fill:#16666d; stroke:none;" d="M375 437L376 438L375 437M180 438L181 439L180 438M374 438L375 439L374 438M373 439L374 440L373 439z"/>
<path style="fill:#66999c; stroke:none;" d="M179 440L180 441L179 440z"/>
<path style="fill:#16666d; stroke:none;" d="M372 440L373 441L372 440z"/>
<path style="fill:#66999c; stroke:none;" d="M178 441L179 442L178 441z"/>
<path style="fill:#16666d; stroke:none;" d="M371 441L372 442L371 441M370 442L371 443L370 442z"/>
<path style="fill:#66999c; stroke:none;" d="M177 443L178 444L177 443M216 443L217 444L216 443z"/>
<path style="fill:#16666d; stroke:none;" d="M369 443L370 444L369 443M176 444L177 445L176 444z"/>
<path style="fill:#66999c; stroke:none;" d="M215 444L216 445L215 444z"/>
<path style="fill:#16666d; stroke:none;" d="M368 444L369 445L368 444M367 445L368 446L367 445z"/>
<path style="fill:#66999c; stroke:none;" d="M175 446L176 447L175 446z"/>
<path style="fill:#16666d; stroke:none;" d="M366 446L367 447L366 446M174 447L175 448L174 447M365 447L366 448L365 447z"/>
<path style="fill:#66999c; stroke:none;" d="M174 448L175 449L174 448z"/>
<path style="fill:#16666d; stroke:none;" d="M364 448L365 449L364 448z"/>
<path style="fill:#66999c; stroke:none;" d="M388.667 448.333L389.333 448.667L388.667 448.333M173 449L174 450L173 449z"/>
<path style="fill:#16666d; stroke:none;" d="M363 449L364 450L363 449z"/>
<path style="fill:#66999c; stroke:none;" d="M387 449L388 450L387 449z"/>
<path style="fill:#16666d; stroke:none;" d="M362 450L363 451L362 450z"/>
<path style="fill:#66999c; stroke:none;" d="M386 450L387 451L386 450M390 450L391 451L390 450M172 451L173 452L172 451z"/>
<path style="fill:#16666d; stroke:none;" d="M361 451L362 452L361 451z"/>
<path style="fill:#66999c; stroke:none;" d="M385 451L386 452L385 451M208 452L209 453L208 452z"/>
<path style="fill:#16666d; stroke:none;" d="M360 452L361 453L360 452z"/>
<path style="fill:#66999c; stroke:none;" d="M384 452L385 453L384 452M391 452L392 453L391 452M171 453L172 454L171 453z"/>
<path style="fill:#16666d; stroke:none;" d="M359 453L360 454L359 453z"/>
<path style="fill:#66999c; stroke:none;" d="M383 453L384 454L383 453z"/>
<path style="fill:#16666d; stroke:none;" d="M392 453L393 454L392 453M170 454L171 455L170 454M358 454L359 455L358 454z"/>
<path style="fill:#66999c; stroke:none;" d="M382 454L383 455L382 454M392 454L393 455L392 454M170 455L171 456L170 455z"/>
<path style="fill:#16666d; stroke:none;" d="M357 455L358 456L357 455z"/>
<path style="fill:#66999c; stroke:none;" d="M381 455L382 456L381 455z"/>
<path style="fill:#16666d; stroke:none;" d="M393 455L394 456L393 455M169 456L170 457L169 456z"/>
<path style="fill:#66999c; stroke:none;" d="M205 456L206 457L205 456z"/>
<path style="fill:#16666d; stroke:none;" d="M356 456L357 457L356 456z"/>
<path style="fill:#66999c; stroke:none;" d="M380 456L381 457L380 456M393 456L394 457L393 456M169 457L170 458L169 457z"/>
<path style="fill:#16666d; stroke:none;" d="M355 457L356 458L355 457z"/>
<path style="fill:#66999c; stroke:none;" d="M379 457L380 458L379 457z"/>
<path style="fill:#16666d; stroke:none;" d="M394 457L395 458L394 457M168 458L169 459L168 458M354 458L355 459L354 458z"/>
<path style="fill:#66999c; stroke:none;" d="M378 458L379 459L378 458M394 458L395 459L394 458M168 459L169 460L168 459M203 459L204 460L203 459z"/>
<path style="fill:#16666d; stroke:none;" d="M353 459L354 460L353 459z"/>
<path style="fill:#66999c; stroke:none;" d="M377 459L378 460L377 459z"/>
<path style="fill:#16666d; stroke:none;" d="M395 459L396 460L395 459M352 460L353 461L352 460z"/>
<path style="fill:#66999c; stroke:none;" d="M376 460L377 461L376 460M395 460L396 461L395 460M167 461L168 462L167 461z"/>
<path style="fill:#16666d; stroke:none;" d="M351 461L352 462L351 461z"/>
<path style="fill:#66999c; stroke:none;" d="M375 461L376 462L375 461z"/>
<path style="fill:#16666d; stroke:none;" d="M396 461L397 462L396 461z"/>
<path style="fill:#66999c; stroke:none;" d="M201 462L202 463L201 462z"/>
<path style="fill:#16666d; stroke:none;" d="M350 462L351 463L350 462z"/>
<path style="fill:#66999c; stroke:none;" d="M374 462L375 463L374 462M396 462L397 463L396 462z"/>
<path style="fill:#16666d; stroke:none;" d="M166 463L167 464L166 463M349 463L350 464L349 463z"/>
<path style="fill:#66999c; stroke:none;" d="M373 463L374 464L373 463M166 464L167 465L166 464M200 464L201 465L200 464z"/>
<path style="fill:#16666d; stroke:none;" d="M348 464L349 465L348 464z"/>
<path style="fill:#66999c; stroke:none;" d="M372 464L373 465L372 464M397 464L398 465L397 464z"/>
<path style="fill:#16666d; stroke:none;" d="M165 465L166 466L165 465M347 465L348 466L347 465z"/>
<path style="fill:#66999c; stroke:none;" d="M371 465L372 466L371 465M165 466L166 467L165 466z"/>
<path style="fill:#16666d; stroke:none;" d="M346 466L347 467L346 466z"/>
<path style="fill:#66999c; stroke:none;" d="M370 466L371 467L370 466z"/>
<path style="fill:#16666d; stroke:none;" d="M398 466L399 467L398 466M345 467L346 468L345 467z"/>
<path style="fill:#66999c; stroke:none;" d="M369 467L370 468L369 467M398 467L399 468L398 467z"/>
<path style="fill:#16666d; stroke:none;" d="M164 468L165 469L164 468M344 468L345 469L344 468z"/>
<path style="fill:#66999c; stroke:none;" d="M368 468L369 469L368 468M164 469L165 470L164 469z"/>
<path style="fill:#16666d; stroke:none;" d="M343 469L344 470L343 469z"/>
<path style="fill:#66999c; stroke:none;" d="M367 469L368 470L367 469M399.333 469.667L399.667 470.333L399.333 469.667z"/>
<path style="fill:#16666d; stroke:none;" d="M342 470L343 471L342 470z"/>
<path style="fill:#66999c; stroke:none;" d="M366 470L367 471L366 470M163.333 471.667L163.667 472.333L163.333 471.667z"/>
<path style="fill:#16666d; stroke:none;" d="M341 471L342 472L341 471z"/>
<path style="fill:#66999c; stroke:none;" d="M365 471L366 472L365 471z"/>
<path style="fill:#16666d; stroke:none;" d="M340 472L341 473L340 472z"/>
<path style="fill:#66999c; stroke:none;" d="M364 472L365 473L364 472M400.333 472.667L400.667 473.333L400.333 472.667z"/>
<path style="fill:#16666d; stroke:none;" d="M339 473L340 474L339 473z"/>
<path style="fill:#66999c; stroke:none;" d="M363 473L364 474L363 473M162.333 474.667L162.667 475.333L162.333 474.667M195 474L196 475L195 474z"/>
<path style="fill:#16666d; stroke:none;" d="M338 474L339 475L338 474z"/>
<path style="fill:#66999c; stroke:none;" d="M362 474L363 475L362 474z"/>
<path style="fill:#16666d; stroke:none;" d="M337 475L338 476L337 475z"/>
<path style="fill:#66999c; stroke:none;" d="M361 475L362 476L361 475M401.333 475.667L401.667 476.333L401.333 475.667M194 476L195 477L194 476z"/>
<path style="fill:#16666d; stroke:none;" d="M336 476L337 477L336 476z"/>
<path style="fill:#66999c; stroke:none;" d="M360 476L361 477L360 476z"/>
<path style="fill:#16666d; stroke:none;" d="M161 477L162 478L161 477M335 477L336 478L335 477z"/>
<path style="fill:#66999c; stroke:none;" d="M359 477L360 478L359 477M161 478L162 479L161 478z"/>
<path style="fill:#16666d; stroke:none;" d="M334 478L335 479L334 478z"/>
<path style="fill:#66999c; stroke:none;" d="M358 478L359 479L358 478z"/>
<path style="fill:#16666d; stroke:none;" d="M402 478L403 479L402 478M806 478L806 479L809 479L806 478z"/>
<path style="fill:#66999c; stroke:none;" d="M193 479L194 480L193 479z"/>
<path style="fill:#16666d; stroke:none;" d="M333 479L334 480L333 479z"/>
<path style="fill:#66999c; stroke:none;" d="M357 479L358 480L357 479M402 479L403 480L402 479z"/>
<path style="fill:#16666d; stroke:none;" d="M803 479L801 482L803 479z"/>
<path style="fill:#23c0bf; stroke:none;" d="M804.148 480.032C797.106 484.087 803.727 495.006 810.772 490.817C817.676 486.711 811.076 476.042 804.148 480.032z"/>
<path style="fill:#16666d; stroke:none;" d="M810 479L811 480L810 479M332 480L333 481L332 480z"/>
<path style="fill:#66999c; stroke:none;" d="M356 480L357 481L356 480z"/>
<path style="fill:#16666d; stroke:none;" d="M665 480L666 481L665 480z"/>
<path style="fill:#23c0bf; stroke:none;" d="M665 540L676 540L676 536C679.901 538.139 683.448 540.524 688 540.906C716.623 543.309 715.671 492.82 688 496.186C683.3 496.758 679.843 499.501 676 502L676 480L666.028 481.603L665 497L665 540z"/>
<path style="fill:#16666d; stroke:none;" d="M676 480C676 485.561 673.646 498.196 678 502L676 480M812 480L813 481L812 480M824 480L824 541L836 541L836 540L825 540L825 499L824 480z"/>
<path style="fill:#23c0bf; stroke:none;" d="M825 480L825 540L836 540C836.001 533.207 836.298 528.418 842 524C847.9 536.472 852.616 540 866 540L849 517L849 516L866 497C851.801 497 843.777 502.92 837 516L836 516L836 480L825 480z"/>
<path style="fill:#66999c; stroke:none;" d="M160.333 481.667L160.667 482.333L160.333 481.667z"/>
<path style="fill:#16666d; stroke:none;" d="M279 481L279 482L285 482L279 481M331 481L332 482L331 481z"/>
<path style="fill:#66999c; stroke:none;" d="M355 481L356 482L355 481M192 482L193 483L192 482z"/>
<path style="fill:#16666d; stroke:none;" d="M274.667 482.333L275.333 482.667L274.667 482.333M288.667 482.333L289.333 482.667L288.667 482.333M330 482L331 483L330 482z"/>
<path style="fill:#66999c; stroke:none;" d="M354 482L355 483L354 482z"/>
<path style="fill:#16666d; stroke:none;" d="M403 482L404 483L403 482M813 482L814 483L813 482M271 483L272 484L271 483M292 483L293 484L292 483M329 483L330 484L329 483z"/>
<path style="fill:#66999c; stroke:none;" d="M353 483L354 484L353 483M403 483L404 484L403 483z"/>
<path style="fill:#16666d; stroke:none;" d="M800 483L800 488L801 488L800 483M268.667 484.333L269.333 484.667L268.667 484.333M294 484L295 485L294 484M328 484L329 485L328 484z"/>
<path style="fill:#66999c; stroke:none;" d="M352 484L353 485L352 484z"/>
<path style="fill:#16666d; stroke:none;" d="M159 485L160 486L159 485z"/>
<path style="fill:#66999c; stroke:none;" d="M191 485L192 486L191 485z"/>
<path style="fill:#16666d; stroke:none;" d="M266 485L267 486L266 485M296 485L297 486L296 485M327 485L328 486L327 485z"/>
<path style="fill:#66999c; stroke:none;" d="M351 485L352 486L351 485z"/>
<path style="fill:#16666d; stroke:none;" d="M771 485L771 497L772 497L771 485z"/>
<path style="fill:#23c0bf; stroke:none;" d="M772 485L772 497L764 497C764.005 503.92 764.477 506.911 772 507C772 514.914 769.081 530.192 773.742 536.891C776.578 540.966 788.79 543.91 791.879 538.566C793.265 536.169 791.56 532.456 791 530C779.27 532.421 783 514.529 783 507L792 507L792 497L783 497L783 485L772 485z"/>
<path style="fill:#16666d; stroke:none;" d="M814 485L815 486L814 485z"/>
<path style="fill:#66999c; stroke:none;" d="M159.333 486.667L159.667 487.333L159.333 486.667z"/>
<path style="fill:#16666d; stroke:none;" d="M265 486L266 487L265 486M298 486L299 487L298 486M326 486L327 487L326 486z"/>
<path style="fill:#66999c; stroke:none;" d="M350 486L351 487L350 486z"/>
<path style="fill:#16666d; stroke:none;" d="M404 486L405 487L404 486M299 487L300 488L299 487M325 487L326 488L325 487z"/>
<path style="fill:#66999c; stroke:none;" d="M349 487L350 488L349 487M404.333 487.667L404.667 488.333L404.333 487.667z"/>
<path style="fill:#16666d; stroke:none;" d="M262 488L263 489L262 488M324 488L325 489L324 488z"/>
<path style="fill:#66999c; stroke:none;" d="M348 488L349 489L348 488z"/>
<path style="fill:#16666d; stroke:none;" d="M813 488L814 489L813 488z"/>
<path style="fill:#66999c; stroke:none;" d="M190.333 489.667L190.667 490.333L190.333 489.667z"/>
<path style="fill:#16666d; stroke:none;" d="M261 489L262 490L261 489M302 489L303 490L302 489M323 489L324 490L323 489z"/>
<path style="fill:#66999c; stroke:none;" d="M347 489L348 490L347 489z"/>
<path style="fill:#16666d; stroke:none;" d="M801 489L802 490L801 489M158 490L159 491L158 490M260 490L261 491L260 490M303 490L304 491L303 490M322 490L323 491L322 490z"/>
<path style="fill:#66999c; stroke:none;" d="M346 490L347 491L346 490z"/>
<path style="fill:#16666d; stroke:none;" d="M802 490L803 491L802 490z"/>
<path style="fill:#66999c; stroke:none;" d="M158 491L158 494L159 494L158 491z"/>
<path style="fill:#16666d; stroke:none;" d="M259 491L260 492L259 491M304 491L305 492L304 491M321 491L322 492L321 491z"/>
<path style="fill:#66999c; stroke:none;" d="M345 491L346 492L345 491z"/>
<path style="fill:#16666d; stroke:none;" d="M405 491L406 492L405 491M803.667 491.333L804.333 491.667L803.667 491.333M810 491L811 492L810 491M258 492L259 493L258 492M305 492L306 493L305 492M320 492L321 493L320 492z"/>
<path style="fill:#66999c; stroke:none;" d="M344 492L345 493L344 492M405 492L405 495L406 495L405 492z"/>
<path style="fill:#16666d; stroke:none;" d="M806 492L806 493L809 493L806 492M257 493L258 494L257 493M306 493L307 494L306 493M319 493L320 494L319 493z"/>
<path style="fill:#66999c; stroke:none;" d="M343 493L344 494L343 493M189.333 494.667L189.667 495.333L189.333 494.667z"/>
<path style="fill:#16666d; stroke:none;" d="M307 494L308 495L307 494M318 494L319 495L318 494z"/>
<path style="fill:#66999c; stroke:none;" d="M342 494L343 495L342 494z"/>
<path style="fill:#16666d; stroke:none;" d="M256 495L257 496L256 495M308 495L309 496L308 495M317 495L318 496L317 495M532 495L532 496L535 496L532 495M590.667 495.333L591.333 495.667L590.667 495.333M633 495L633 496L636 496L633 495M689.667 495.333L690.333 495.667L689.667 495.333M255 496L256 497L255 496M309 496L310 497L309 496M316 496L317 497L316 496M526 496L526 497L529 497L526 496z"/>
<path style="fill:#23c0bf; stroke:none;" d="M552 536L547 528L546 528C536.942 534.165 527.563 532.344 523 522L555 522C554.996 515.621 554.769 509.249 550.606 504.015C541.075 492.036 521.864 494.005 514.228 507C499.012 532.895 531.842 547.721 552 536z"/>
<path style="fill:#16666d; stroke:none;" d="M539.667 496.333L540.333 496.667L539.667 496.333M584.667 496.333L585.333 496.667L584.667 496.333z"/>
<path style="fill:#23c0bf; stroke:none;" d="M575 502L575 497L564 497L564 540L575 540C575 532.355 572.4 518.879 576.028 512.043C578.431 507.514 585.269 504.388 589.772 507.743C597.342 513.382 594 531.753 594 540L605 540C605 525.216 610.756 489.358 585 496.789C581.338 497.846 578.227 500.059 575 502z"/>
<path style="fill:#16666d; stroke:none;" d="M595.667 496.333L596.333 496.667L595.667 496.333M628.667 496.333L629.333 496.667L628.667 496.333z"/>
<path style="fill:#23c0bf; stroke:none;" d="M653 536C649.146 526.17 643.732 532.248 636 531.855C629.88 531.544 626.295 527.202 624 522L656 522C655.999 515.47 655.895 509.384 651.606 504.015C642.114 492.133 622.859 493.881 615.367 507C600.892 532.349 632.773 548.721 653 536z"/>
<path style="fill:#16666d; stroke:none;" d="M640.667 496.333L641.333 496.667L640.667 496.333M684.667 496.333L685.333 496.667L684.667 496.333M695 496L696 497L695 496M157 497L158 498L157 497M310 497L311 498L310 497M315 497L316 498L315 497z"/>
<path style="fill:#23c0bf; stroke:none;" d="M470 497L470 507L489 507C482.192 517.896 470.039 526.423 470 540L506 540L506 531L486 531C492.182 518.889 504.989 511.513 505 497L470 497z"/>
<path style="fill:#16666d; stroke:none;" d="M505 497L505 505L506 505L505 497M524 497L525 498L524 497M542 497L543 498L542 497M575 497L577 502L575 497M582 497L583 498L582 497M598 497L599 498L598 497M625 497L626 498L625 497M643 497L644 498L643 497M682 497L683 498L682 497M698 497L699 498L698 497M716 497L716 532L717 532L716 497z"/>
<path style="fill:#23c0bf; stroke:none;" d="M717 497C717 507.645 713.887 524.045 717.742 533.996C722.36 545.916 738.9 540.992 746 535L746 540L757 540L757 497L746 497C746 504.727 748.769 519.061 744.972 525.895C742.142 530.991 733.467 532.941 729.742 527.852C724.908 521.246 728 504.93 728 497L717 497z"/>
<path style="fill:#16666d; stroke:none;" d="M745 497L745 527L746 527L745 497M757 497L757 540L758 540C758 527.781 761.711 508.225 757 497M801 497L801 541L813 541L813 540L802 540C802 527.781 805.711 508.225 801 497z"/>
<path style="fill:#23c0bf; stroke:none;" d="M802 497L802 540L813 540L813 497L802 497z"/>
<path style="fill:#16666d; stroke:none;" d="M851 497L852 498L851 497M866 497L867 498L866 497z"/>
<path style="fill:#66999c; stroke:none;" d="M157 498L157 503L158 503L157 498z"/>
<path style="fill:#16666d; stroke:none;" d="M254 498L255 499L254 498M311 498L312 499L311 498M314 498L315 499L314 498M406.333 498.667L406.667 499.333L406.333 498.667M522 498L523 499L522 498M544 498L545 499L544 498M580 498L581 499L580 498M600 498L601 499L600 498M623 498L624 499L623 498M645 498L646 499L645 498M680 498L681 499L680 498M700 498L701 499L700 498M865 498L866 499L865 498M312.667 499.333L313.333 499.667L312.667 499.333M520 499L521 500L520 499M546 499L547 500L546 499M578 499L579 500L578 499M601 499L602 500L601 499M621 499L622 500L621 499M647 499L648 500L647 499M679 499L680 500L679 499M701 499L702 500L701 499M864 499L865 500L864 499z"/>
<path style="fill:#66999c; stroke:none;" d="M188 500L188 505L189 505L188 500z"/>
<path style="fill:#16666d; stroke:none;" d="M253.333 500.667L253.667 501.333L253.333 500.667z"/>
<path style="fill:#66999c; stroke:none;" d="M406 500L406 505L407 505L406 500z"/>
<path style="fill:#16666d; stroke:none;" d="M519 500L520 501L519 500M547 500L548 501L547 500M577 500L578 501L577 500M602 500L603 501L602 500M620 500L621 501L620 500M648 500L649 501L648 500M678 500L679 501L678 500M702 500L703 501L702 500M849 500L850 501L849 500M863 500L864 501L863 500M518 501L519 502L518 501M548 501L549 502L548 501M619 501L620 502L619 501M649 501L650 502L649 501M703 501L704 502L703 501M848 501L849 502L848 501M862 501L863 502L862 501M517 502L518 503L517 502M549 502L550 503L549 502M603 502L604 503L603 502M618 502L619 503L618 502M650 502L651 503L650 502M704 502L705 503L704 502M847 502L848 503L847 502M252.333 503.667L252.667 504.333L252.333 503.667M516 503L517 504L516 503M550 503L551 504L550 503M617 503L618 504L617 503M651 503L652 504L651 503M705 503L706 504L705 503M846 503L847 504L846 503M515 504L516 505L515 504M551 504L552 505L551 504M604.333 504.667L604.667 505.333L604.333 504.667M616 504L617 505L616 504M652 504L653 505L652 504M845 504L846 505L845 504M530 505L530 506L537 506L530 505M631 505L631 506L638 506L631 505M706 505L707 506L706 505M859 505L860 506L859 505M504 506L505 507L504 506M514 506L515 507L514 506M528 506L529 507L528 506z"/>
<path style="fill:#0f1335; stroke:none;" d="M524 514L544 514C540.624 504.158 526.295 502.729 524 514z"/>
<path style="fill:#16666d; stroke:none;" d="M538 506L539 507L538 506M552 506L553 507L552 506M582 506L582 507L589 507L582 506M615 506L616 507L615 506M629 506L630 507L629 506z"/>
<path style="fill:#0f1335; stroke:none;" d="M625 514L645 514C641.623 504.101 627.307 502.669 625 514z"/>
<path style="fill:#16666d; stroke:none;" d="M640 506L641 507L640 506M653 506L654 507L653 506M683 506L683 507L690 507L683 506M764 506L765 507L764 506M858 506L859 507L858 506M251 507L251 517L252 517L251 507M503 507L504 508L503 507M513 507L514 508L513 507M526 507L527 508L526 507M540 507L541 508L540 507M580 507L581 508L580 507M590 507L591 508L590 507M614.333 507.667L614.667 508.333L614.333 507.667M641 507L642 508L641 507M681 507L682 508L681 507z"/>
<path style="fill:#0f1335; stroke:none;" d="M682.019 507.742C671.521 511.93 676.151 535.478 689.985 530.106C702.947 525.072 696.349 502.026 682.019 507.742z"/>
<path style="fill:#16666d; stroke:none;" d="M691 507L692 508L691 507M707 507L708 508L707 507M771 507L771 533L772 533L771 507M843 507L844 508L843 507M857 507L858 508L857 507M488 508L489 509L488 508M502 508L503 509L502 508M525 508L526 509L525 508M541 508L542 509L541 508M553 508L554 509L553 508M578 508L579 509L578 508M591 508L592 509L591 508M642 508L643 509L642 508M654 508L655 509L654 508M679 508L680 509L679 508M842 508L843 509L842 508M856 508L857 509L856 508M487 509L488 510L487 509M512.333 509.667L512.667 510.333L512.333 509.667M542 509L543 510L542 509M577 509L578 510L577 509M643 509L644 510L643 509M678 509L679 510L678 509M841 509L842 510L841 509M855 509L856 510L855 509M486 510L487 511L486 510M524 510L525 511L524 510M576 510L577 511L576 510M592 510L593 511L592 510M613 510L614 511L613 510M625 510L626 511L625 510M655.333 510.667L655.667 511.333L655.333 510.667M677 510L678 511L677 510M694 510L695 511L694 510M708.333 510.667L708.667 511.333L708.333 510.667M840 510L841 511L840 510M500 511L501 512L500 511M543 511L544 512L543 511M554.333 511.667L554.667 512.333L554.333 511.667M575 511L575 540L564 540L564 541L576 541L575 511M644 511L645 512L644 511M676 511L676 526L677 526L676 511M695 511L696 512L695 511M839 511L840 512L839 511M485 512L486 513L485 512M499 512L500 513L499 512M523 512C524.176 517.486 539.12 515 544 515L544 514L523 512M624.333 512.667L624.667 513.333L624.333 512.667M484 513L485 514L484 513M498 513L499 514L498 513M511.333 513.667L511.667 514.333L511.333 513.667M612 513L612 516L613 516L612 513M696.333 513.667L696.667 514.333L696.333 513.667M852 513L853 514L852 513M483 514L484 515L483 514M593 514L593 541L605 541L605 540L594 540L593 514M625 514L625 515L645 515L625 514M837 514L838 515L837 514M851 514L852 515L851 514M497 515L498 516L497 515M555 515L555 522C547.936 522 527.695 518.628 523 524L556 523L555 515M656 515L656 522C648.936 522 628.695 518.628 624 524L657 523L656 515M709 515L709 522L710 522L709 515M836 515L837 516L836 515M850 515L851 516L850 515M496 516L497 517L496 516M849 516L850 517L849 516M481 517L482 518L481 517M495 517L496 518L495 517z"/>
<path style="fill:#66999c; stroke:none;" d="M188 518L188 521L189 521L188 518z"/>
<path style="fill:#16666d; stroke:none;" d="M480 518L481 519L480 518M252.333 519.667L252.667 520.333L252.333 519.667z"/>
<path style="fill:#66999c; stroke:none;" d="M406 519L406 525L407 525L406 519z"/>
<path style="fill:#16666d; stroke:none;" d="M479 519L480 520L479 519M851 519L852 520L851 519M493 520L494 521L493 520M852 520L853 521L852 520z"/>
<path style="fill:#66999c; stroke:none;" d="M157 521L157 526L158 526L157 521z"/>
<path style="fill:#16666d; stroke:none;" d="M478 521L479 522L478 521M492 521L493 522L492 521M612 521L612 524L613 524L612 521M253.333 522.667L253.667 523.333L253.333 522.667M477 522L478 523L477 522M491 522L492 523L491 522M511 522L511 525L512 525L511 522M476 523L477 524L476 523M696 523L697 524L696 523M854 523L855 524L854 523M840.667 524.333L841.333 524.667L840.667 524.333M855 524L856 525L855 524M254 525L255 526L254 525M406 525L407 526L406 525M489 525L490 526L489 525M524 525L525 526L524 525M625 525L626 526L625 525M695 525L696 526L695 525M708 525L708 528L709 528L708 525M728.333 525.667L728.667 526.333L728.333 525.667M839 525L840 526L839 525M842 525L843 526L842 525M157 526L158 527L157 526z"/>
<path style="fill:#66999c; stroke:none;" d="M189.333 526.667L189.667 527.333L189.333 526.667z"/>
<path style="fill:#16666d; stroke:none;" d="M474 526L475 527L474 526M488 526L489 527L488 526M613.333 526.667L613.667 527.333L613.333 526.667M838 526L839 527L838 526M255 527L256 528L255 527M473 527L474 528L473 527M487 527L488 528L487 527M512 527L513 528L512 527M525 527L526 528L525 527M626 527L627 528L626 527M677 527L678 528L677 527M694 527L695 528L694 527M744 527L745 528L744 527M843 527L844 528L843 527M857 527L858 528L857 527M256 528L257 529L256 528M472 528L473 529L472 528M526 528L527 529L526 528M547 528L548 529L547 528M627 528L628 529L627 528M647.667 528.333L648.333 528.667L647.667 528.333M678 528L679 529L678 528M693 528L694 529L693 528M729 528L730 529L729 528M743 528L744 529L743 528M783.333 528.667L783.667 529.333L783.333 528.667M844 528L845 529L844 528M858 528L859 529L858 528z"/>
<path style="fill:#66999c; stroke:none;" d="M405 529L405 532L406 532L405 529z"/>
<path style="fill:#16666d; stroke:none;" d="M513 529L514 530L513 529M527 529L528 530L527 529M544 529L545 530L544 529M548 529L549 530L548 529M614 529L615 530L614 529M628 529L629 530L628 529M645 529L646 530L645 529M649 529L650 530L649 529M680 529L681 530L680 529M692 529L693 530L692 529M707 529L708 530L707 529M730 529L731 530L730 529M741 529L742 530L741 529z"/>
<path style="fill:#66999c; stroke:none;" d="M158 530L158 533L159 533L158 530z"/>
<path style="fill:#16666d; stroke:none;" d="M257 530L258 531L257 530M486 530L486 531L506 531L486 530M529 530L530 531L529 530M542 530L543 531L542 530M630 530L631 531L630 530M643 530L644 531L643 530M682 530L683 531L682 530M689.667 530.333L690.333 530.667L689.667 530.333M731.667 530.333L732.333 530.667L731.667 530.333M739 530L740 531L739 530M784 530L785 531L784 530M789 530L790 531L789 530M845 530L846 531L845 530z"/>
<path style="fill:#66999c; stroke:none;" d="M190.333 531.667L190.667 532.333L190.333 531.667z"/>
<path style="fill:#16666d; stroke:none;" d="M258 531L259 532L258 531M470 531L471 532L470 531M514 531L515 532L514 531M531 531L531 532L534 532L531 531M537 531L537 532L540 532L537 531M549 531L550 532L549 531M615 531L616 532L615 531M632 531L632 532L635 532L632 531M638 531L638 532L641 532L638 531M706 531L707 532L706 531M791.333 531.667L791.667 532.333L791.333 531.667M846 531L847 532L846 531M860 531L861 532L860 531M259 532L260 533L259 532M405 532L406 533L405 532M550 532L551 533L550 532M616 532L617 533L616 532M651 532L652 533L651 532M861 532L862 533L861 532M158 533L159 534L158 533M260 533L261 534L260 533M705 533L706 534L705 533M847 533L848 534L847 533M261 534L262 535L261 534M516 534L517 535L516 534M551 534L552 535L551 534M704 534L705 535L704 534M717 534L718 535L717 534M792.333 534.667L792.667 535.333L792.333 534.667M848 534L849 535L848 534z"/>
<path style="fill:#66999c; stroke:none;" d="M191.333 535.667L191.667 536.333L191.333 535.667z"/>
<path style="fill:#16666d; stroke:none;" d="M262 535L263 536L262 535z"/>
<path style="fill:#66999c; stroke:none;" d="M404 535L404 538L405 538L404 535z"/>
<path style="fill:#16666d; stroke:none;" d="M517 535L518 536L517 535M653 535L654 536L653 535M745 535L745 541L757 541L757 540L746 540L745 535M772 535L773 536L772 535M863 535L864 536L863 535z"/>
<path style="fill:#66999c; stroke:none;" d="M159.333 536.667L159.667 537.333L159.333 536.667z"/>
<path style="fill:#16666d; stroke:none;" d="M263 536L264 537L263 536M299 536L300 537L299 536M518 536L519 537L518 536M551 536L552 537L551 536M652 536L653 537L652 536M676 536L676 540L665 540L665 541L677 541L676 536M718 536L719 537L718 536M849 536L850 537L849 536M864 536L865 537L864 536M265 537L266 538L265 537M298 537L299 538L298 537M520 537L521 538L520 537M549 537L550 538L549 537M621 537L622 538L621 537M650 537L651 538L650 537M719 537L720 538L719 537M743 537L744 538L743 537M773 537L774 538L773 537M850 537L851 538L850 537M159 538L160 539L159 538M266 538L267 539L266 538M296 538L297 539L296 538M404 538L405 539L404 538M521 538L522 539L521 538M547.667 538.333L548.333 538.667L547.667 538.333M622.667 538.333L623.333 538.667L622.667 538.333M649 538L650 539L649 538M680 538L681 539L680 538M700 538L701 539L700 538M720 538L721 539L720 538M741 538L742 539L741 538M774 538L775 539L774 538M793 538L794 539L793 538M865 538L866 539L865 538z"/>
<path style="fill:#66999c; stroke:none;" d="M192 539L193 540L192 539z"/>
<path style="fill:#16666d; stroke:none;" d="M268 539L269 540L268 539M294 539L295 540L294 539M523 539L524 540L523 539M545.667 539.333L546.333 539.667L545.667 539.333M624.667 539.333L625.333 539.667L624.667 539.333M646.667 539.333L647.333 539.667L646.667 539.333M681 539L682 540L681 539M698 539L699 540L698 539M721 539L722 540L721 539M740 539L741 540L740 539M775 539L776 540L775 539M792 539L793 540L792 539M866 539L852 540L852 541L866 539M270.667 540.333L271.333 540.667L270.667 540.333M291.667 540.333L292.333 540.667L291.667 540.333z"/>
<path style="fill:#66999c; stroke:none;" d="M403.333 540.667L403.667 541.333L403.333 540.667z"/>
<path style="fill:#16666d; stroke:none;" d="M470 540L470 541L506 541C496.44 536.989 480.387 540 470 540M526.667 540.333L527.333 540.667L526.667 540.333M542.667 540.333L543.333 540.667L542.667 540.333M627.667 540.333L628.333 540.667L627.667 540.333M643.667 540.333L644.333 540.667L643.667 540.333M683.667 540.333L684.333 540.667L683.667 540.333M696 540L697 541L696 540M723 540L724 541L723 540M737 540L738 541L737 540M777 540L778 541L777 540M790 540L791 541L790 540z"/>
<path style="fill:#66999c; stroke:none;" d="M160.333 541.667L160.667 542.333L160.333 541.667z"/>
<path style="fill:#16666d; stroke:none;" d="M273 541L273 542L276 542L273 541M288.667 541.333L289.333 541.667L288.667 541.333M530 541L530 542L539 542L530 541M631 541L631 542L640 542L631 541M687 541L687 542L694 542L687 541M726 541L726 542L735 542L726 541M780 541L780 542L788 542L780 541z"/>
<path style="fill:#66999c; stroke:none;" d="M193 542L194 543L193 542z"/>
<path style="fill:#16666d; stroke:none;" d="M279 542L279 543L285 543L279 542M403 542L404 543L403 542z"/>
<path style="fill:#66999c; stroke:none;" d="M402.333 544.667L402.667 545.333L402.333 544.667M161 545L162 546L161 545M194 545L195 546L194 545z"/>
<path style="fill:#16666d; stroke:none;" d="M161 546L162 547L161 546M402 546L403 547L402 546z"/>
<path style="fill:#66999c; stroke:none;" d="M195 547L196 548L195 547M162.333 548.667L162.667 549.333L162.333 548.667M401 548L402 549L401 548M196 549L197 550L196 549z"/>
<path style="fill:#16666d; stroke:none;" d="M401 549L402 550L401 549z"/>
<path style="fill:#66999c; stroke:none;" d="M163.333 551.667L163.667 552.333L163.333 551.667M400 551L401 552L400 551z"/>
<path style="fill:#16666d; stroke:none;" d="M400 552L401 553L400 552z"/>
<path style="fill:#66999c; stroke:none;" d="M164.333 554.667L164.667 555.333L164.333 554.667M399 554L400 555L399 554M199 555L200 556L199 555z"/>
<path style="fill:#16666d; stroke:none;" d="M399 555L400 556L399 555z"/>
<path style="fill:#66999c; stroke:none;" d="M165 557L166 558L165 557M200 557L201 558L200 557M398 557L399 558L398 557z"/>
<path style="fill:#16666d; stroke:none;" d="M165 558L166 559L165 558z"/>
<path style="fill:#66999c; stroke:none;" d="M166.333 559.667L166.667 560.333L166.333 559.667M201 559L202 560L201 559M397 559L398 560L397 559z"/>
<path style="fill:#16666d; stroke:none;" d="M397 560L398 561L397 560z"/>
<path style="fill:#66999c; stroke:none;" d="M167 562L168 563L167 562M203 562L204 563L203 562M396 562L397 563L396 562M168 564L169 565L168 564M395 564L396 565L395 564z"/>
<path style="fill:#16666d; stroke:none;" d="M168 565L169 566L168 565z"/>
<path style="fill:#66999c; stroke:none;" d="M205 565L206 566L205 565M169 566L170 567L169 566M394 566L395 567L394 566z"/>
<path style="fill:#16666d; stroke:none;" d="M169 567L170 568L169 567z"/>
<path style="fill:#66999c; stroke:none;" d="M170 568L171 569L170 568M393 568L394 569L393 568z"/>
<path style="fill:#16666d; stroke:none;" d="M170 569L171 570L170 569z"/>
<path style="fill:#66999c; stroke:none;" d="M208 569L209 570L208 569M171 570L172 571L171 570M209 570L210 571L209 570M392 570L393 571L392 570z"/>
<path style="fill:#16666d; stroke:none;" d="M171 571L172 572L171 571z"/>
<path style="fill:#66999c; stroke:none;" d="M172 572L173 573L172 572M391 572L392 573L391 572M173 574L174 575L173 574z"/>
<path style="fill:#16666d; stroke:none;" d="M390 574L391 575L390 574z"/>
<path style="fill:#66999c; stroke:none;" d="M389 575L390 576L389 575z"/>
<path style="fill:#16666d; stroke:none;" d="M174 576L175 577L174 576M389 576L390 577L389 576z"/>
<path style="fill:#66999c; stroke:none;" d="M175 577L176 578L175 577M388 577L389 578L388 577z"/>
<path style="fill:#16666d; stroke:none;" d="M176 579L177 580L176 579M387 579L388 580L387 579z"/>
<path style="fill:#66999c; stroke:none;" d="M177 580L178 581L177 580M386 580L387 581L386 580z"/>
<path style="fill:#16666d; stroke:none;" d="M177 581L178 582L177 581z"/>
<path style="fill:#66999c; stroke:none;" d="M178 582L179 583L178 582z"/>
<path style="fill:#16666d; stroke:none;" d="M385 582L386 583L385 582z"/>
<path style="fill:#66999c; stroke:none;" d="M179 583L180 584L179 583M222 583L223 584L222 583M384 583L385 584L384 583M223 584L224 585L223 584z"/>
<path style="fill:#16666d; stroke:none;" d="M180 585L181 586L180 585M383 585L384 586L383 585z"/>
<path style="fill:#66999c; stroke:none;" d="M181 586L182 587L181 586M382 586L383 587L382 586M182 587L183 588L182 587M227 587L228 588L227 587M381 587L382 588L381 587z"/>
<path style="fill:#16666d; stroke:none;" d="M183 589L184 590L183 589z"/>
<path style="fill:#66999c; stroke:none;" d="M230 589L231 590L230 589z"/>
<path style="fill:#16666d; stroke:none;" d="M380 589L381 590L380 589z"/>
<path style="fill:#66999c; stroke:none;" d="M184 590L185 591L184 590M379 590L380 591L379 590M185 591L186 592L185 591M233 591L234 592L233 591M378 591L379 592L378 591M186 592L187 593L186 592M235 592L236 593L235 592M377 592L378 593L377 592z"/>
<path style="fill:#16666d; stroke:none;" d="M187 594L188 595L187 594M188 595L189 596L188 595M375 595L376 596L375 595M189 596L190 597L189 596z"/>
<path style="fill:#66999c; stroke:none;" d="M243 596L244 597L243 596z"/>
<path style="fill:#16666d; stroke:none;" d="M374 596L375 597L374 596M190 597L191 598L190 597z"/>
<path style="fill:#66999c; stroke:none;" d="M245 597L246 598L245 597z"/>
<path style="fill:#16666d; stroke:none;" d="M373 597L374 598L373 597z"/>
<path style="fill:#66999c; stroke:none;" d="M191 598L192 599L191 598z"/>
<path style="fill:#16666d; stroke:none;" d="M372 598L373 599L372 598z"/>
<path style="fill:#66999c; stroke:none;" d="M192 599L193 600L192 599M250 599L251 600L250 599M313 599L314 600L313 599M371 599L372 600L371 599M193 600L194 601L193 600M253 600L254 601L253 600M370 600L371 601L370 600M194 601L195 602L194 601M369 601L370 602L369 601M195 602L196 603L195 602M260 602L261 603L260 602z"/>
<path style="fill:#16666d; stroke:none;" d="M368 602L369 603L368 602M196 603L197 604L196 603z"/>
<path style="fill:#66999c; stroke:none;" d="M265 603L266 604L265 603M298 603L299 604L298 603z"/>
<path style="fill:#16666d; stroke:none;" d="M367 603L368 604L367 603M197 604L198 605L197 604z"/>
<path style="fill:#66999c; stroke:none;" d="M272.667 604.333L273.333 604.667L272.667 604.333M289 604L289 605L292 605L289 604z"/>
<path style="fill:#16666d; stroke:none;" d="M366 604L367 605L366 604M198 605L199 606L198 605M365 605L366 606L365 605M199 606L200 607L199 606z"/>
<path style="fill:#66999c; stroke:none;" d="M201 607L202 608L201 607M362 607L363 608L362 607M202 608L203 609L202 608M361 608L362 609L361 608M203 609L204 610L203 609M360 609L361 610L360 609z"/>
<path style="fill:#16666d; stroke:none;" d="M204 610L205 611L204 610M359 610L360 611L359 610z"/>
<path style="fill:#66999c; stroke:none;" d="M206 611L207 612L206 611M357 611L358 612L357 611M207 612L208 613L207 612M356 612L357 613L356 612z"/>
<path style="fill:#16666d; stroke:none;" d="M208 613L209 614L208 613M355 613L356 614L355 613z"/>
<path style="fill:#66999c; stroke:none;" d="M210 614L211 615L210 614M353 614L354 615L353 614M211 615L212 616L211 615z"/>
<path style="fill:#16666d; stroke:none;" d="M352 615L353 616L352 615z"/>
<path style="fill:#66999c; stroke:none;" d="M213 616L214 617L213 616M350 616L351 617L350 616z"/>
<path style="fill:#16666d; stroke:none;" d="M214 617L215 618L214 617M349 617L350 618L349 617z"/>
<path style="fill:#66999c; stroke:none;" d="M216 618L217 619L216 618M347 618L348 619L347 618z"/>
<path style="fill:#16666d; stroke:none;" d="M217 619L218 620L217 619z"/>
<path style="fill:#66999c; stroke:none;" d="M218 619L219 620L218 619z"/>
<path style="fill:#16666d; stroke:none;" d="M346 619L347 620L346 619z"/>
<path style="fill:#66999c; stroke:none;" d="M219 620L220 621L219 620M344 620L345 621L344 620M221 621L222 622L221 621M342 621L343 622L342 621z"/>
<path style="fill:#16666d; stroke:none;" d="M222 622L223 623L222 622z"/>
<path style="fill:#66999c; stroke:none;" d="M223 622L224 623L223 622M340 622L341 623L340 622z"/>
<path style="fill:#16666d; stroke:none;" d="M224 623L225 624L224 623z"/>
<path style="fill:#66999c; stroke:none;" d="M225 623L226 624L225 623M338 623L339 624L338 623z"/>
<path style="fill:#16666d; stroke:none;" d="M339 623L340 624L339 623M226 624L227 625L226 624z"/>
<path style="fill:#66999c; stroke:none;" d="M227 624L228 625L227 624M336 624L337 625L336 624z"/>
<path style="fill:#16666d; stroke:none;" d="M337 624L338 625L337 624M228 625L229 626L228 625z"/>
<path style="fill:#66999c; stroke:none;" d="M229 625L230 626L229 625M334 625L335 626L334 625M231 626L232 627L231 626M332 626L333 627L332 626M233.667 627.333L234.333 627.667L233.667 627.333M329.667 627.333L330.333 627.667L329.667 627.333z"/>
<path style="fill:#16666d; stroke:none;" d="M235 628L236 629L235 628z"/>
<path style="fill:#66999c; stroke:none;" d="M236 628L237 629L236 628M327 628L328 629L327 628z"/>
<path style="fill:#16666d; stroke:none;" d="M328 628L329 629L328 628z"/>
<path style="fill:#66999c; stroke:none;" d="M238.667 629.333L239.333 629.667L238.667 629.333M324 629L325 630L324 629z"/>
<path style="fill:#16666d; stroke:none;" d="M325 629L326 630L325 629z"/>
<path style="fill:#66999c; stroke:none;" d="M241.667 630.333L242.333 630.667L241.667 630.333M321.667 630.333L322.333 630.667L321.667 630.333M244.667 631.333L245.333 631.667L244.667 631.333M318.667 631.333L319.333 631.667L318.667 631.333z"/>
<path style="fill:#16666d; stroke:none;" d="M247 632L248 633L247 632z"/>
<path style="fill:#66999c; stroke:none;" d="M248 632L249 633L248 632M315 632L316 633L315 632z"/>
<path style="fill:#16666d; stroke:none;" d="M316 632L317 633L316 632z"/>
<path style="fill:#66999c; stroke:none;" d="M251.667 633.333L252.333 633.667L251.667 633.333M311.667 633.333L312.333 633.667L311.667 633.333z"/>
<path style="fill:#16666d; stroke:none;" d="M255 634L256 635L255 634z"/>
<path style="fill:#66999c; stroke:none;" d="M256.667 634.333L257.333 634.667L256.667 634.333M306.667 634.333L307.333 634.667L306.667 634.333z"/>
<path style="fill:#16666d; stroke:none;" d="M308 634L309 635L308 634M260 635L261 636L260 635z"/>
<path style="fill:#66999c; stroke:none;" d="M261 635L261 636L264 636L261 635M300 635L300 636L303 636L300 635z"/>
<path style="fill:#16666d; stroke:none;" d="M303 635L304 636L303 635M267 636L268 637L267 636z"/>
<path style="fill:#66999c; stroke:none;" d="M268 636L268 637L273 637L268 636M291 636L291 637L296 637L291 636z"/>
<path style="fill:#16666d; stroke:none;" d="M296 636L297 637L296 636z"/>
</svg>
