<?xml version="1.0" encoding="utf-8"?>
<!-- Generator: Adobe Illustrator 24.2.1, SVG Export Plug-In . SVG Version: 6.00 Build 0)  -->
<svg version="1.1"
	 id="Слой_1" xmlns:cc="http://creativecommons.org/ns#" xmlns:dc="http://purl.org/dc/elements/1.1/" xmlns:rdf="http://www.w3.org/1999/02/22-rdf-syntax-ns#"
	 xmlns="http://www.w3.org/2000/svg" xmlns:xlink="http://www.w3.org/1999/xlink" x="0px" y="0px" viewBox="0 0 512 360.3"
	 style="enable-background:new 0 0 512 360.3;" xml:space="preserve">
<style type="text/css">
	.st0{fill:#CA53E2;}
	.st1{fill:#FFFFFF;}
</style>
<g>
	<polygon class="st0" points="488,68 462.9,127.6 437.8,68 422.5,68 413.8,68 344.7,68 344.7,87.5 372.7,87.5 372.7,155.9 
		394.6,155.9 394.6,87.5 422.2,87.5 451.9,156.4 473.9,156.4 512,68 	"/>
	<path class="st0" d="M360.3,180.2c0,99.5-80.7,180.2-180.2,180.2S0,279.7,0,180.2C0,80.7,80.7,0,180.2,0S360.3,80.7,360.3,180.2z"
		/>
	<path class="st1" d="M273,169.1h18.2v11.3h-46.3v-25.1h10.2v13.8h7.4v-13.8H273V169.1z"/>
	<path class="st1" d="M291.2,77.4l-25.8,17.2h25.8V106h-46.3V95.8l25.7-17h-25.7V67.4h46.3V77.4z"/>
	<path class="st1" d="M291.9,130.9c0,10.5-6.4,16.8-18,16.8h-29v-11.4h28.5c5.2,0,7.9-1.6,7.9-5.5c0-4-2.6-5.9-7.9-5.9h-28.5v-11.3
		h29C285.2,113.6,291.9,120.5,291.9,130.9z"/>
	<polygon class="st1" points="291.2,249.5 291.2,188.3 237.9,188.3 237.9,67.4 141.3,67.4 49.8,188.3 49.8,249.5 160.5,249.5 
		160.5,295.8 237.9,295.8 237.9,249.5 	"/>
	<polygon class="st0" points="180.1,162.2 160.7,177.9 141.3,193.6 141.3,162.2 141.3,130.8 160.7,146.5 	"/>
</g>
</svg>
