<svg id="f35ac201-07ba-4fdb-bf1d-6faa5cd7bc48" data-name="Warstwa 2" xmlns="http://www.w3.org/2000/svg" viewBox="0 0 164 164"><defs><style>.ea282562-8f80-4796-8488-5e5632fc5057{fill:#375e78;}.a1150f16-2b2e-4def-88ea-48d35ca44410{fill:#999;}.a1150f16-2b2e-4def-88ea-48d35ca44410,.bd272c82-9e27-4033-a4b2-9874fbf95c5e,.bf05830e-9a67-4af8-ac3e-9ab19f2aa692{fill-rule:evenodd;}.bf05830e-9a67-4af8-ac3e-9ab19f2aa692{fill:#fff;}.bd272c82-9e27-4033-a4b2-9874fbf95c5e{fill:#eb751a;}</style></defs><title>logotypy</title><rect class="ea282562-8f80-4796-8488-5e5632fc5057" width="164" height="164"/><path id="bb208e61-10ee-4d20-8f57-35a24b9faacc" data-name=" 104861536" class="a1150f16-2b2e-4def-88ea-48d35ca44410" d="M103.2263,90.92651V100h1.97658V97.12352H108.928V100h1.97456V89.23606H104.854c-1.07886,0-1.62769.55776-1.62769,1.69049Zm1.97658.44711c0-.31658.1822-.48373.54708-.48373H108.928V95.462h-3.72516V91.37361Zm13.47966.87708h1.68735V89.236h-7.92281v1.66154h2.29206V100h2.0254V90.89756h1.918V92.2507Z"/><path id="b667d7e3-40ea-4ce5-beda-fbe01004fa5d" data-name=" 104492144" class="a1150f16-2b2e-4def-88ea-48d35ca44410" d="M76.0083,94.3684a1.41509,1.41509,0,0,1,1.1794,1.58034V97.9113A1.84993,1.84993,0,0,1,75.07879,100H70.21628V90.843h-.94887v-1.6711h5.07775c1.66314,0,2.50245.79972,2.50245,2.41549v1.14445C76.84761,93.69636,76.56216,94.23983,76.0083,94.3684Zm-3.7548-.78151h1.96767c.40935,0,.60618-.25368.60618-.74439v-1.164c0-.56277-.23131-.83544-.696-.83544H72.25351V93.5869Zm-.0001,4.742h2.3249c.39327,0,.58845-.18162.58845-.56257V95.98625A.67668.67668,0,0,0,74.596,95.258H72.25341v3.07089Z"/><polygon id="afc94a78-5546-44a1-9835-f39f8be82135" data-name=" 104492192" class="a1150f16-2b2e-4def-88ea-48d35ca44410" points="93.236 100 87.499 100 87.499 90.843 86.605 90.843 86.605 89.172 89.536 89.172 89.536 98.329 93.236 98.329 93.236 100"/><path id="abe8a000-8fff-429b-88a7-65a5c4b96e32" data-name=" 104491832" class="a1150f16-2b2e-4def-88ea-48d35ca44410" d="M99.44511,92.18886V90.843h-2.217a.61034.61034,0,0,0-.67988.69025v1.58133c0,.4.197.59959.57217.59959h2.09128a2.021,2.021,0,0,1,2.23512,2.325v1.76146c0,1.47285-.7875,2.19932-2.3593,2.19932H94.81479V98.32889h3.89787c.46281,0,.69673-.23576.69673-.72765v-1.562a.59214.59214,0,0,0-.67891-.65383H96.78063c-1.483,0-2.23337-.78121-2.23337-2.32621V91.49843a2.09745,2.09745,0,0,1,2.41237-2.32651h4.18322v3.01695H99.44511Z"/><path id="f683676d-4107-4192-9420-33dd0e5b28be" data-name=" 104488592" class="a1150f16-2b2e-4def-88ea-48d35ca44410" d="M81.26047,89.23068c-1.60057,0-2.3994.704-2.3994,2.13041v6.50217c0,1.40787.78159,2.10943,2.33741,2.12813L81.20623,100h3.9461v-1.662H81.44626a.56406.56406,0,0,1-.55938-.568V95.48557h3.96373V93.82314H80.88688V91.466a.56429.56429,0,0,1,.55938-.56848h3.70607V89.236H81.26048v-.00531Z"/><path id="bade059b-4e1c-4872-b3b4-4d56a27d6c32" data-name=" 104488904" class="bf05830e-9a67-4af8-ac3e-9ab19f2aa692" d="M59.59209,67.21156V80.40035c0,.88043-.41525,1.339-1.28053,1.339H55.386v3.23647h3.271c3.11579,0,4.67315-1.37273,4.67315-4.15057V68.05672c0-.59969.34745-.91636,1.03848-.91636h5.84771V84.97581H73.9556V64.00934h-11.283c-2.04255,0-3.08052,1.05712-3.08052,3.2022ZM32.28016,72.94482H25.911V68.5833c0-.87954.41564-1.33738,1.2815-1.33738H35.47V64.00935H26.67218c-3.11462,0-4.67218,1.37274-4.67218,4.15V80.82419c0,2.7801,1.55756,4.15165,4.67218,4.15165h5.71269c3.04528,0,4.56854-1.40826,4.56854-4.25757V77.09534c0-2.7804-1.55814-4.15046-4.67325-4.15046Zm.72628,7.3513c0,.94954-.41487,1.4432-1.245,1.4432H27.19254q-1.24692,0-1.24692-1.37292v-4.185h5.71182q1.34992,0,1.349,1.26494v2.8498Zm44.27512-10.026v8.44328c0,4.18728,2.00884,6.26238,6.05762,6.26238h7.23828V81.73933H83.72c-1.62711,0-2.45645-1.0211-2.45645-3.02591V70.27014c0-2.00372.82934-3.02423,2.45645-3.02423h3.63789v2.6034h3.21963v-5.84H83.33919c-4.04877,0-6.05762,2.075-6.05762,6.2608ZM44.69385,64c-3.115,0-4.67247,1.37174-4.67247,4.1493V80.81385c0,2.74073,1.52133,4.10725,4.55226,4.14378l.01511.01821h7.6855V81.73937H45.05757a1.09979,1.09979,0,0,1-1.09116-1.10871V76.18142h7.71931V72.94486H43.96641V68.35437a1.09973,1.09973,0,0,1,1.09116-1.10842h7.21668V64.00939h-7.5804V64ZM93.8811,67.30449V84.97578h3.849V79.37245H104.988v5.60333h3.84623V64.00931H97.05268c-2.10222,0-3.17159,1.08794-3.17159,3.29514Zm3.849.8701c0-.61692.35675-.94266,1.06889-.94266h6.189v8.90359H97.73016V68.17459Zm26.38191,1.71007h3.288V64.00935H111.96843v3.23657h4.46422V84.9758h3.94707V67.24592h3.73233Z"/><path id="b0e6f861-4ec2-457d-8650-1c7ec3a443d6" data-name=" 104488544" class="bd272c82-9e27-4033-a4b2-9874fbf95c5e" d="M138.64728,72.39021h-9.3065v2.50664h1.65065v1.66h-1.65065v4.58557c0,.42949.23752.63463.69674.61416h.53227a3.47589,3.47589,0,0,0,.44054-.01723v1.65741h-2.1834c-.97261,0-1.44936-.52015-1.44936-1.54627V76.55682h-1.09969v-1.66h1.09969V72.39021h-3.26563v9.17518q0,3.41178,3.09651,3.41041h11.69727c2.06435,0,3.09428-1.22664,3.09428-3.58257V75.53465q0-3.14025-3.35272-3.14443Zm-1.22483,11.0065h-2.16527l-2.62334-6.83991h-1.08147v-1.66h2.53074l2.258,6.33916,1.81492-6.33916h1.98056l-2.71411,8.49989Z"/></svg>