<?xml version="1.0" encoding="UTF-8" standalone="no"?>
<!-- Created with Inkscape (http://www.inkscape.org/) -->
<svg
   xmlns:dc="http://purl.org/dc/elements/1.1/"
   xmlns:cc="http://web.resource.org/cc/"
   xmlns:rdf="http://www.w3.org/1999/02/22-rdf-syntax-ns#"
   xmlns:svg="http://www.w3.org/2000/svg"
   xmlns="http://www.w3.org/2000/svg"
   xmlns:sodipodi="http://sodipodi.sourceforge.net/DTD/sodipodi-0.dtd"
   xmlns:inkscape="http://www.inkscape.org/namespaces/inkscape"
   width="550"
   height="161"
   id="svg2"
   sodipodi:version="0.32"
   inkscape:version="0.45.1"
   version="1.0"
   inkscape:output_extension="org.inkscape.output.svg.inkscape">
  <g
     inkscape:label="Layer 1"
     inkscape:groupmode="layer"
     id="layer1"
     transform="translate(38.050008,-178.4012)">
    <path
       style="fill:#7a7879;fill-rule:nonzero;stroke:none"
       d="M 239.52961,275.61074 C 228.78551,275.61074 220.77257,272.5023 215.65849,266.4789 C 220.56943,275.02065 229.65935,279.45114 242.64127,279.45114 L 279.2428,279.45114 L 279.2428,257.35351 L 275.39917,257.35351 L 275.39917,275.61074 L 239.52961,275.61074"
       id="path2370" />
    <path
       style="fill:#7a7879;fill-rule:nonzero;stroke:none"
       d="M 241.25473,196.66158 C 237.53041,196.66158 233.25147,197.83853 233.25147,207.01552 L 233.25147,244.61342 C 233.25147,251.56549 235.70533,253.92584 238.51389,254.66425 C 237.63682,253.21967 237.09832,251.03344 237.09832,247.72186 L 237.09832,210.1304 C 237.09832,201.67248 240.5937,200.50521 244.36962,200.50521 C 244.36962,200.50521 250.09636,200.50521 254.60424,200.50521 C 254.60424,199.02515 254.60424,197.63216 254.60424,196.66158 C 250.51233,196.66158 241.25473,196.66158 241.25473,196.66158"
       id="path2374" />
    <path
       style="fill:#7a7879;fill-rule:nonzero;stroke:none"
       d="M 307.76691,250.6594 C 307.76691,255.43169 307.76691,275.61074 307.76691,275.61074 L 286.50442,275.61074 L 286.50442,279.45437 L 311.61054,279.45437 C 311.61054,279.45437 311.61054,260.00406 311.61054,254.50303 L 334.3821,254.50303 C 334.3821,252.86497 334.3821,251.5139 334.3821,250.6594 L 307.76691,250.6594"
       id="path2378" />
    <path
       style="fill:#7a7879;fill-rule:nonzero;stroke:none"
       d="M 153.6832,196.1908 C 152.66425,196.1908 152.26119,196.40362 152.20959,196.46166 C 152.18702,196.49068 152.09996,196.69383 152.09996,197.15816 L 152.09996,254.01612 C 152.09996,263.86703 147.88874,275.61074 127.83544,275.61074 L 112.30293,275.61074 L 112.30293,279.45437 L 130.94711,279.45437 C 151.60661,279.45437 155.94036,267.31082 155.94036,257.12779 L 155.94036,200.27304 C 155.94036,200.19565 155.94681,200.16018 155.95326,200.11182 C 156.11771,200.07312 156.37245,200.03443 156.79809,200.03443 C 156.79809,200.03443 170.06699,200.03443 177.03518,200.03443 C 177.03518,198.12874 177.03518,196.78734 177.03518,196.1908 C 172.1855,196.1908 153.6832,196.1908 153.6832,196.1908"
       id="path2382" />
    <path
       style="fill:#7a7879;fill-rule:nonzero;stroke:none"
       d="M 275.39917,208.25373 L 256.98716,208.25373 C 256.98716,210.41093 256.98716,212.09736 256.98716,212.09736 L 279.24602,212.09736 L 279.24602,178.40434 L 275.39917,178.40434 L 275.39917,208.25373"
       id="path2386" />
    <path
       style="fill:#7a7879;fill-rule:nonzero;stroke:none"
       d="M 102.06508,196.66158 L 66.295475,196.66158 C 65.289425,196.66158 64.470397,197.47738 64.470397,198.48343 C 64.470397,198.48343 64.470397,211.33637 64.470397,215.81201 C 65.250731,215.81201 66.59858,215.81201 68.314025,215.81201 C 68.314025,210.20134 68.314025,201.59832 68.314025,201.59832 C 68.314025,200.99534 68.804152,200.50521 69.407137,200.50521 L 105.91193,200.50521 L 105.91193,178.40435 L 102.06508,178.40435 L 102.06508,196.66158"
       id="path2390" />
    <path
       style="fill:#7a7879;fill-rule:nonzero;stroke:none"
       d="M 26.608078,221.36141 C 31.390042,225.67582 32.734667,231.8411 32.734667,237.40662 L 32.734667,253.5389 C 32.734667,263.60908 28.607281,275.61074 8.9441552,275.61074 L -16.906825,275.61074 C -26.602958,275.61074 -32.587668,272.86023 -36.189457,268.90696 C -33.051998,274.83363 -26.528794,279.45115 -13.791938,279.45115 L 12.059042,279.45115 C 27.868865,279.45115 36.578295,271.35437 36.578295,256.65379 L 36.578295,240.51829 C 36.578295,233.5372 34.537174,225.64035 26.608078,221.36141"
       id="path2394" />
    <path
       style="fill:#7a7879;fill-rule:nonzero;stroke:none"
       d="M -14.552925,254.97059 L -13.237321,254.97059 C -13.237321,253.8678 -13.237321,244.8327 -13.237321,240.29257 C -7.9362091,240.29257 7.1867915,240.29257 8.6442748,240.29257 L 8.6442748,238.9673 C 8.6442748,237.40663 8.4991713,236.44572 5.6519198,236.44572 C 5.6519198,236.44572 -12.26674,236.44572 -17.080949,236.44572 C -17.080949,240.76658 -17.080949,251.96856 -17.080949,251.96856 C -17.080949,254.82549 -16.120042,254.97059 -14.552925,254.97059"
       id="path2398" />
    <path
       style="fill:#7a7879;fill-rule:nonzero;stroke:none"
       d="M 311.62989,200.54391 C 311.78144,200.49554 312.04263,200.44073 312.6037,200.44073 C 312.6037,200.44073 327.11726,200.44073 334.38533,200.44073 L 334.38533,196.5971 C 329.46471,196.5971 309.49203,196.5971 309.49203,196.5971 C 307.76691,196.5971 307.76691,196.91632 307.76691,197.68054 C 307.76691,197.68054 307.76691,224.83422 307.76691,230.01603 L 311.61054,230.01603 C 311.61054,221.42913 311.61054,200.79542 311.61054,200.79542 C 311.61054,200.67934 311.62022,200.61162 311.62989,200.54391"
       id="path2402" />
    <path
       style="fill:#7a7879;fill-rule:nonzero;stroke:none"
       d="M -14.552925,196.66158 C -16.536005,196.66158 -17.23895,197.09044 -17.23895,199.50238 C -17.23895,199.50238 -17.23895,211.42021 -17.23895,215.81201 C -16.374779,215.81201 -15.023705,215.81201 -13.395322,215.81201 C -13.395322,210.46253 -13.395322,202.61727 -13.395322,202.61727 C -13.395322,200.59227 -12.989033,200.50521 -11.441263,200.50521 L 29.861619,200.50521 L 29.861619,178.40435 L 26.017991,178.40435 L 26.017991,196.66158 L -14.552925,196.66158"
       id="path2406" />
    <path
       style="fill:#7a7879;fill-rule:nonzero;stroke:none"
       d="M 62.735605,275.61074 C 62.735605,275.61074 62.635645,275.49466 62.6034,275.45596 C 54.106788,275.08514 48.712166,272.45393 45.368338,268.80055 C 48.305876,274.33061 54.213198,278.72563 65.389385,279.28347 C 65.42163,279.31894 65.534489,279.45114 65.534489,279.45114 L 105.91193,279.45114 L 105.91193,257.35351 L 102.06508,257.35351 L 102.06508,275.61074 L 62.735605,275.61074"
       id="path2410" />
    <path
       style="fill:#7a7879;fill-rule:nonzero;stroke:none"
       d="M 64.470397,236.44894 C 64.470397,240.87298 64.470397,253.14873 64.470397,253.14873 C 64.470397,254.15478 65.289425,254.97381 66.295476,254.97381 L 68.314025,254.97381 C 68.314025,251.92664 68.314025,244.24261 68.314025,240.29257 C 74.40192,240.29257 103.24848,240.29257 103.24848,240.29257 L 103.24848,218.19171 C 103.24848,218.19171 101.75875,218.19171 99.401626,218.19171 L 99.401626,236.44894 C 99.401626,236.44894 69.636079,236.44894 64.470397,236.44894"
       id="path2414" />
    <path
       style="fill:#7a7879;fill-rule:nonzero;stroke:none"
       d="M 200.18079,275.61074 L 179.41488,275.61074 C 179.41488,278.04525 179.41488,279.45114 179.41488,279.45114 L 204.02442,279.45114 L 204.02442,178.40435 L 200.18079,178.40435 L 200.18079,275.61074"
       id="path2418" />
    <path
       style="fill:#7a7879;fill-rule:nonzero;stroke:none"
       d="M 423.31115,208.41174 C 423.31115,210.57539 423.31115,212.25859 423.31115,212.25859 L 445.87957,212.25859 L 445.87957,178.40435 L 442.03272,178.40435 L 442.03272,208.41174 L 423.31115,208.41174"
       id="path2422" />
    <path
       style="fill:#7a7879;fill-rule:nonzero;stroke:none"
       d="M 368.35565,196.66158 L 368.35565,200.50521 C 368.35565,200.50521 379.88331,200.50521 386.17757,200.50521 C 386.17757,198.60274 386.17757,197.26134 386.17757,196.66158 C 382.79828,196.66158 372.92802,196.66158 368.35565,196.66158"
       id="path2426" />
    <path
       style="fill:#7a7879;fill-rule:nonzero;stroke:none"
       d="M 420.93145,196.66158 L 410.26796,196.66158 C 410.26796,202.40768 410.26796,275.61074 410.26796,275.61074 L 388.56049,275.61074 C 388.56049,278.04847 388.56049,279.45437 388.56049,279.45437 L 414.10836,279.45437 C 414.10836,279.45437 414.10836,207.46372 414.10836,200.50521 L 420.93145,200.50521 C 420.93145,199.02193 420.93145,197.63216 420.93145,196.66158"
       id="path2430" />
    <path
       style="fill:#7a7879;fill-rule:nonzero;stroke:none"
       d="M 358.01784,275.61074 L 336.76825,275.61074 C 336.76825,277.92595 336.76825,279.45114 336.76825,279.45114 L 361.86469,279.45114 L 361.86469,178.40435 L 358.01784,178.40435 L 358.01784,275.61074"
       id="path2434" />
    <path
       style="fill:#7a7879;fill-rule:nonzero;stroke:none"
       d="M 503.55656,217.94019 C 506.53602,220.83581 508.10313,225.04703 508.10313,230.45455 L 508.10313,256.54415 C 508.10313,268.83924 502.02814,275.61074 490.9906,275.61074 L 438.05688,275.61074 C 432.63968,275.61074 428.42846,274.0404 425.52962,271.05449 C 428.29948,276.5265 433.61026,279.45114 441.16854,279.45114 L 494.10227,279.45114 C 500.76735,279.45114 511.94999,276.8812 511.94999,259.65581 L 511.94999,233.56944 C 511.94999,226.01761 509.02212,220.71005 503.55656,217.94019"
       id="path2438" />
    <path
       style="fill:#7a7879;fill-rule:nonzero;stroke:none"
       d="M 399.47227,304.89261 L 407.10793,304.89261 L 407.10793,291.46893 L 371.25449,291.46893 L 371.25449,298.86598 L 381.62777,298.86598 L 381.62777,339.3982 L 390.79186,339.3982 L 390.79186,298.86598 L 399.47227,298.86598 L 399.47227,304.89261 z M 338.47402,300.98772 C 338.47402,299.57538 339.29627,298.83374 340.94722,298.83374 L 355.32859,298.83374 L 355.32859,319.19013 L 338.47402,319.19013 L 338.47402,300.98772 z M 329.5292,298.99496 L 329.5292,339.3982 L 338.47402,339.3982 L 338.47402,326.59041 L 355.32859,326.59041 L 355.32859,339.3982 L 364.26696,339.3982 L 364.26696,291.46893 L 336.894,291.46893 C 332.01208,291.46893 329.5292,293.95181 329.5292,298.99496"
       id="path2442" />
    <path
       style="fill:#7a7879;fill-rule:nonzero;stroke:none"
       d="M 189.36252,331.95601 L 199.88413,331.95601 C 201.66407,331.95601 202.54758,331.14666 202.54758,329.45056 L 202.54758,321.52469 C 202.54758,319.73508 201.66407,318.68711 199.96474,318.28082 L 189.36252,318.28082 L 189.36252,331.95601 z M 189.36252,310.84185 L 198.26865,310.84185 C 200.11952,310.84185 201.00949,309.71004 201.00949,307.52704 L 201.00949,302.34201 C 201.00949,299.83656 199.96474,298.62414 197.86236,298.62414 L 189.36252,298.62414 L 189.36252,310.84185 z M 206.35574,314.32111 C 209.91239,315.04663 211.69232,317.39408 211.69232,321.35701 L 211.69232,330.09869 C 211.69232,336.32524 208.53874,339.3982 202.14774,339.3982 L 180.14362,339.3982 L 180.14362,298.62414 L 175.85178,298.62414 L 175.85178,291.18195 L 198.82971,291.18195 C 206.35574,291.18195 210.15423,294.74182 210.15423,301.93573 L 210.15423,307.03369 C 210.15423,311.32875 208.86119,313.74714 206.35574,314.32111"
       id="path2446" />
    <path
       style="fill:#7a7879;fill-rule:nonzero;stroke:none"
       d="M 284.3182,339.3982 L 258.35114,339.3982 L 258.35114,298.62414 L 254.30759,298.62414 L 254.30759,291.18195 L 267.57327,291.18195 L 267.57327,331.95601 L 284.3182,331.95601 L 284.3182,339.3982"
       id="path2450" />
    <path
       style="fill:#7a7879;fill-rule:nonzero;stroke:none"
       d="M 312.41667,304.6153 L 312.41667,298.62092 L 302.38519,298.62092 C 300.36019,298.62092 299.30577,299.67211 299.30577,301.69711 L 299.30577,308.73624 C 299.30577,310.51617 300.19896,311.40614 301.89506,311.40614 L 311.36225,311.40614 C 318.07893,311.40614 321.47435,314.8854 321.47435,321.76007 L 321.47435,329.60211 C 321.47435,336.16078 317.91125,339.39498 310.79796,339.39498 L 291.46374,339.39498 L 291.46374,331.95601 L 309.10186,331.95601 C 311.1978,331.95601 312.25544,330.90481 312.25544,328.71537 L 312.25544,321.76007 C 312.25544,319.81891 311.1978,318.84833 309.18248,318.84833 L 300.36019,318.84833 C 293.64674,318.84833 290.25132,315.36908 290.25132,308.49117 L 290.25132,301.53911 C 290.25132,294.66121 293.88858,291.18195 301.16954,291.18195 L 320.1007,291.18195 L 320.1007,304.6153 L 312.41667,304.6153"
       id="path2454" />
    <path
       style="fill:#7a7879;fill-rule:nonzero;stroke:none"
       d="M 230.12368,291.44314 C 222.88141,291.44314 219.26672,294.57737 219.26672,300.92968 L 219.26672,329.88265 C 219.26672,336.15434 222.80079,339.2789 229.84315,339.35951 L 229.87862,339.39821 L 247.73601,339.39821 L 247.73601,331.99793 L 230.96528,331.99793 C 229.56906,331.99793 228.43403,330.86613 228.43403,329.46991 L 228.43403,319.29655 L 246.36881,319.29655 L 246.36881,311.89305 L 228.43403,311.89305 L 228.43403,301.39723 C 228.43403,299.99779 229.56906,298.86599 230.96528,298.86599 L 247.73601,298.86599 L 247.73601,291.46894 L 230.12368,291.46894 L 230.12368,291.44314"
       id="path2458" />
    <path
       style="fill:#334e6d;fill-rule:nonzero;stroke:none"
       d="M 424.04311,205.29685 L 438.92105,205.29685 L 438.92105,179.13632 L 369.09083,179.13632 L 369.09083,193.5467 L 389.29245,193.5467 L 389.29245,272.49586 L 407.15307,272.49586 L 407.15307,193.5467 L 424.04311,193.5467 L 424.04311,205.29685 z M 304.65524,197.68376 C 304.65524,194.93647 306.27073,193.48543 309.49202,193.48543 L 337.50021,193.48543 L 337.50021,233.13091 L 304.65524,233.13091 L 304.65524,197.68376 z M 287.23638,193.80788 L 287.23638,272.49586 L 304.65524,272.49586 L 304.65524,247.54452 L 337.50021,247.54452 L 337.50021,272.49586 L 354.90617,272.49586 L 354.90617,179.13632 L 301.58872,179.13632 C 292.07639,179.13632 287.23638,183.97955 287.23638,193.80788 z M 64.64774,179.0944 C 50.550137,179.0944 43.50456,185.20164 43.50456,197.56767 L 43.50456,253.96454 C 43.50456,266.16935 50.388911,272.25402 64.10602,272.41524 L 64.173735,272.49586 L 98.953412,272.49586 L 98.953412,258.08547 L 66.29547,258.08547 C 63.564301,258.08547 61.355504,255.87345 61.355504,253.14873 L 61.355504,233.33405 L 96.289958,233.33405 L 96.289958,218.92367 L 61.355504,218.92367 L 61.355504,198.48344 C 61.355504,195.75872 63.564301,193.5467 66.29547,193.5467 L 98.953412,193.5467 L 98.953412,179.13632 L 64.64774,179.13632 L 64.64774,179.0944 z M 212.11796,207.01229 L 212.11796,244.6102 C 212.11796,263.2576 221.2111,272.49586 239.53283,272.49586 L 272.28751,272.49586 L 272.28751,258.08547 L 241.25472,258.08547 C 233.88992,258.08547 230.1398,253.5389 230.1398,244.6102 L 230.1398,207.01229 C 230.1398,198.09005 233.88992,193.5467 241.25472,193.5467 L 257.71912,193.5467 L 257.71912,205.13885 L 272.28751,205.13885 L 272.28751,179.13632 L 239.53283,179.13632 C 221.2111,179.13632 212.11796,188.37457 212.11796,207.01229 z M 11.759156,251.659 C 11.759156,255.88635 9.8824853,258.08547 6.125919,258.08547 L -14.549706,258.08547 C -18.312721,258.08547 -20.192616,256.04758 -20.192616,251.97178 L -20.192616,233.33405 L 5.6551391,233.33405 C 9.7277083,233.33405 11.759156,235.21717 11.759156,238.96729 L 11.759156,251.659 z M 8.4733699,218.92367 L -20.350618,218.92367 L -20.350618,199.50239 C -20.350618,195.58459 -18.467498,193.5467 -14.549706,193.5467 L 22.906323,193.5467 L 22.906323,179.13632 L -16.90683,179.13632 C -31.001209,179.13632 -38.05001,185.24678 -38.05001,197.61282 L -38.05001,254.00968 C -38.05001,266.38861 -31.001209,272.49586 -16.90683,272.49586 L 8.9473744,272.49586 C 22.728975,272.49586 29.619775,266.22739 29.619775,253.5389 L 29.619775,237.4034 C 29.619775,225.02447 22.570973,218.92367 8.4733699,218.92367 z M 132.06924,193.39515 L 132.06924,252.12334 C 132.06924,256.04435 130.18934,258.08547 126.27477,258.08547 L 113.03489,258.08547 L 113.03489,272.49586 L 127.83544,272.49586 C 141.93627,272.49586 148.98507,266.38539 148.98507,254.01613 L 148.98507,197.15816 C 148.98507,194.48826 150.55541,193.07592 153.6832,193.07592 L 180.14684,193.07592 L 180.14684,272.49586 L 197.06912,272.49586 L 197.06912,179.13632 L 146.00884,179.13632 C 136.76414,179.13632 132.06924,183.84089 132.06924,193.39515"
       id="path2462" />
    <path
       style="fill:#f4661f;fill-rule:nonzero;stroke:none"
       d="M 484.27715,265.4664 L 474.47783,265.4664 L 462.60837,235.00758 L 457.71355,235.00758 L 457.71355,227.61698 L 469.16705,227.61698 L 479.38233,255.84443 L 487.59841,227.61698 L 496.55935,227.61698 L 484.27715,265.4664 z M 489.8201,216.45369 L 447.70464,216.45369 L 447.70464,227.61698 L 455.17585,227.61698 L 455.17585,235.00758 L 447.70464,235.00758 L 447.70464,255.42847 C 447.70464,257.34061 448.78163,258.25315 450.85822,258.16286 L 453.26694,258.16286 C 454.00858,258.16286 454.67928,258.16286 455.25969,258.08547 L 455.25969,265.4664 L 445.37976,265.4664 C 440.97829,265.4664 438.82109,263.15119 438.82109,258.58205 L 438.82109,235.00758 L 433.84565,235.00758 L 433.84565,227.61698 L 438.82109,227.61698 L 438.82109,216.45369 L 424.04311,216.45369 L 424.04311,257.31159 C 424.04311,267.43981 428.71544,272.49908 438.05687,272.49908 L 490.9906,272.49908 C 500.33204,272.49908 504.99147,267.03674 504.99147,256.54415 L 504.99147,230.45778 C 504.99147,221.13569 499.94832,216.45369 489.8201,216.45369"
       id="path2466" />
    <path
       style="fill:#ffffff;fill-rule:nonzero;stroke:none"
       d="M 433.84243,227.61698 L 433.84243,235.00758 L 438.82109,235.00758 L 438.82109,258.58205 C 438.82109,263.15119 440.97829,265.4664 445.37654,265.4664 L 455.25969,265.4664 L 455.25969,258.08547 C 454.67606,258.16286 454.00858,258.16286 453.26694,258.16286 L 450.855,258.16286 C 448.77841,258.25315 447.70464,257.34061 447.70464,255.42847 L 447.70464,235.00758 L 455.17263,235.00758 L 455.17263,227.61698 L 447.70464,227.61698 L 447.70464,216.45691 L 438.82109,216.45691 L 438.82109,227.61698 L 433.84243,227.61698"
       id="path2470" />
    <path
       style="fill:#ffffff;fill-rule:nonzero;stroke:none"
       d="M 479.38233,255.84443 L 469.16382,227.61698 L 457.71355,227.61698 L 457.71355,235.00758 L 462.60515,235.00758 L 474.47783,265.4664 L 484.27715,265.4664 L 496.55613,227.61698 L 487.59518,227.61698 L 479.38233,255.84443"
       id="path2474" />
  </g>
</svg>
