<?xml version="1.0" encoding="iso-8859-1"?>
<!-- Generator: Adobe Illustrator 25.3.1, SVG Export Plug-In . SVG Version: 6.00 Build 0)  -->
<svg version="1.1" id="&#x428;&#x430;&#x440;_1" xmlns="http://www.w3.org/2000/svg" xmlns:xlink="http://www.w3.org/1999/xlink"
	 x="0px" y="0px" viewBox="0 0 504.594 429.656" style="enable-background:new 0 0 504.594 429.656;" xml:space="preserve">
<g>
	<g>
		<path style="fill:#005FAD;" d="M502.608,93.863c-2.226-13.35-13.187-25.036-31.625-25.036H85.287
			c-11.18,0-33.102,5.601-33.102,30.062v46.907c0,18.226,14.82,33.014,33.102,33.014h384.671c0.304,0,0.602-0.037,0.908-0.046
			l0.62,0.046c13.383,0,25.309,9.427,33.108,19.108v-92.892C504.594,101.102,503.868,97.352,502.608,93.863"/>
		<g>
			<path style="fill:#FFFFFF;" d="M169.342,137.989v-28.682c0-1.501-0.675-2.823-2.026-3.96c-1.349-1.143-2.804-1.713-4.364-1.713
				H116.93v39.92h46.022C167.212,143.554,169.342,141.699,169.342,137.989 M181.085,137.895c0,4.911-1.761,8.936-5.284,12.063
				c-3.525,3.135-7.81,4.699-12.86,4.699h-57.752V92.528h57.752c4.693,0,8.894,1.643,12.594,4.911
				c3.698,3.277,5.551,7.227,5.551,11.851V137.895z"/>
			<rect x="192.292" y="92.528" style="fill:#FFFFFF;" width="11.742" height="62.129"/>
			<path style="fill:#FFFFFF;" d="M289.11,103.634h-55.3c-1.559,0-3.021,0.568-4.376,1.707c-1.349,1.139-2.026,2.455-2.026,3.947
				v3.098c0,3.698,2.138,5.549,6.402,5.549l36.937,0.104c4.98,0,9.213,1.495,12.704,4.487c3.629,3.2,5.444,7.26,5.444,12.171v3.2
				c0,4.697-1.853,8.663-5.551,11.901c-3.702,3.24-7.899,4.855-12.598,4.855h-55.294v-11.099h55.294c1.568,0,3.025-0.55,4.376-1.657
				c1.355-1.099,2.032-2.432,2.032-4v-3.2c0-3.702-2.138-5.553-6.408-5.553l-36.937-0.108c-4.976,0-9.246-1.547-12.804-4.643
				c-3.56-3.096-5.34-7.095-5.34-12.007v-3.098c0-4.626,1.853-8.574,5.551-11.847c3.706-3.275,7.901-4.909,12.594-4.909h55.3
				V103.634z"/>
			<path style="fill:#FFFFFF;" d="M372.369,154.654h-54.652c-4.98,0-9.252-1.559-12.813-4.697
				c-3.556-3.129-5.336-7.152-5.336-12.061v-28.609c0-4.624,1.853-8.572,5.551-11.847c3.702-3.273,7.899-4.911,12.598-4.911h54.652
				v11.105h-54.652c-1.568,0-3.027,0.568-4.376,1.711c-1.355,1.139-2.032,2.459-2.032,3.958v28.684c0,3.712,2.138,5.567,6.408,5.567
				h54.652V154.654z"/>
			<path style="fill:#FFFFFF;" d="M446.554,137.989v-28.682c0-1.501-0.679-2.823-2.026-3.96c-1.353-1.143-2.813-1.713-4.376-1.713
				h-39.175c-1.568,0-3.025,0.571-4.376,1.713c-1.355,1.137-2.026,2.459-2.026,3.96v28.682c0,3.71,2.132,5.565,6.402,5.565h39.175
				C444.422,143.554,446.554,141.699,446.554,137.989 M458.296,137.895c0,4.911-1.778,8.936-5.336,12.063
				c-3.56,3.135-7.826,4.699-12.808,4.699h-39.175c-4.982,0-9.252-1.564-12.813-4.699c-3.556-3.127-5.334-7.152-5.334-12.063
				v-28.604c0-4.624,1.851-8.574,5.548-11.851c3.702-3.269,7.899-4.911,12.598-4.911h39.175c4.693,0,8.894,1.643,12.594,4.911
				c3.702,3.277,5.551,7.227,5.551,11.851V137.895z"/>
		</g>
	</g>
	<g>
		<polygon style="fill:#A4A5A8;" points="6.123,36.101 49.233,40.186 77.027,6.987 86.467,49.245 126.637,65.426 89.359,87.468 
			86.38,130.666 53.905,102.024 11.898,112.54 29.102,72.803 		"/>
		<polygon style="fill:#E50486;" points="6.123,36.101 49.233,40.186 77.027,6.987 86.467,49.245 126.637,65.426 89.359,87.468 
			86.38,130.666 53.905,102.024 11.898,112.54 29.102,72.803 		"/>
		<path style="fill:#FAFDFF;" d="M54.752,98.53l28.9,25.481l2.646-38.431l33.17-19.612L83.729,51.573l-8.401-37.599L50.597,43.507
			l-38.354-3.629l20.443,32.654L17.38,107.889L54.752,98.53z M89.116,137.32l-36.06-31.802L6.415,117.195l19.1-44.126L0,32.325
			l47.865,4.535L78.728,0l10.481,46.92l44.6,17.963L92.415,89.359L89.116,137.32z"/>
	</g>
	<g>
		<path style="fill:#E50486;" d="M469.945,193.763H85.274c-13.383,0-25.307-6.248-33.108-15.929v92.894
			c0,18.228,14.826,33.018,33.108,33.018h384.671c13.383,0,25.309,6.244,33.108,15.925v-92.89
			C503.053,208.552,488.227,193.763,469.945,193.763"/>
		<g>
			<path style="fill:#FFFFFF;" d="M193.253,238.131c0,4.98-1.761,9-5.284,12.059c-3.521,3.063-7.81,4.591-12.865,4.591h-42.481
				v-11.42h42.481c4.27,0,6.408-1.743,6.408-5.23v-3.31c0-3.773-2.132-5.657-6.396-5.657h-46.018v50.917h-11.742v-62.018h57.748
				c5.055,0,9.344,1.566,12.865,4.695c3.523,3.131,5.284,7.154,5.284,12.063V238.131z"/>
			<path style="fill:#FFFFFF;" d="M267.441,263.413v-28.682c0-1.501-0.679-2.823-2.03-3.96c-1.353-1.143-2.813-1.713-4.376-1.713
				H221.86c-1.568,0-3.025,0.57-4.376,1.713c-1.353,1.137-2.03,2.459-2.03,3.96v28.682c0,3.71,2.132,5.567,6.406,5.567h39.175
				C265.301,268.98,267.441,267.123,267.441,263.413 M279.179,263.319c0,4.911-1.78,8.936-5.336,12.063
				c-3.56,3.135-7.826,4.699-12.808,4.699H221.86c-4.982,0-9.252-1.564-12.813-4.699c-3.558-3.127-5.334-7.152-5.334-12.063v-28.605
				c0-4.624,1.851-8.574,5.549-11.851c3.7-3.269,7.901-4.911,12.598-4.911h39.175c4.695,0,8.898,1.643,12.594,4.911
				c3.702,3.277,5.551,7.227,5.551,11.851V263.319z"/>
			<path style="fill:#FFFFFF;" d="M354.65,280.078h-46.114c-4.98,0-9.25-1.559-12.813-4.697c-3.556-3.129-5.334-7.152-5.334-12.061
				v-45.367h11.742v45.462c0,3.71,2.132,5.563,6.404,5.563h46.114V280.078z"/>
			<path style="fill:#FFFFFF;" d="M428.836,263.413v-28.682c0-1.501-0.677-2.823-2.028-3.96c-1.353-1.143-2.813-1.713-4.376-1.713
				h-39.175c-1.568,0-3.025,0.57-4.376,1.713c-1.351,1.137-2.03,2.459-2.03,3.96v28.682c0,3.71,2.132,5.567,6.406,5.567h39.175
				C426.698,268.98,428.836,267.123,428.836,263.413 M440.577,263.319c0,4.911-1.78,8.936-5.336,12.063
				c-3.558,3.135-7.826,4.699-12.808,4.699h-39.175c-4.982,0-9.252-1.564-12.813-4.699c-3.558-3.127-5.332-7.152-5.332-12.063
				v-28.605c0-4.624,1.849-8.574,5.546-11.851c3.7-3.269,7.901-4.911,12.598-4.911h39.175c4.695,0,8.898,1.643,12.594,4.911
				c3.702,3.277,5.551,7.227,5.551,11.851V263.319z"/>
		</g>
	</g>
	<g>
		<path style="fill:#00B0BF;" d="M470.983,319.672H85.286c-13.383,0-25.305-6.244-33.104-15.925v45.989v46.901v0.004
			c0,12.531,7.008,23.435,17.328,29.027c4.689,2.542,10.062,3.987,15.775,3.987h384.671c5.713,0,11.085-1.445,15.771-3.987
			c10.316-5.592,17.324-16.496,17.324-29.027v-46.845C503.052,334.479,491.739,319.672,470.983,319.672"/>
		<g>
			<path style="fill:#FFFFFF;" d="M185.355,406.36h-11.742v-45.367c0-3.773-2.136-5.659-6.408-5.659h-8.001
				c-4.274,0-6.406,1.886-6.406,5.659l-0.108,28.609c0,4.909-1.778,8.932-5.334,12.061c-3.56,3.131-7.828,4.697-12.811,4.697
				c-5.055,0-9.359-1.547-12.915-4.643c-3.562-3.096-5.342-7.137-5.342-12.115v-28.609c0-3.773-2.132-5.659-6.402-5.659h-8.114
				c-4.27,0-6.402,1.886-6.402,5.659v45.367H83.627v-45.367c0-4.909,1.784-8.93,5.349-12.061c3.566-3.133,7.849-4.697,12.84-4.697
				h8.134c4.995,0,9.275,1.566,12.84,4.705c3.562,3.14,5.349,7.164,5.349,12.088l-0.102,28.665c0,3.708,2.184,5.565,6.56,5.565
				c4.231,0,6.35-1.857,6.35-5.565l0.112-28.665c0-4.924,1.811-8.986,5.438-12.196c3.419-3.065,7.649-4.597,12.706-4.597h8.001
				c5.057,0,9.342,1.564,12.867,4.697c3.525,3.131,5.284,7.152,5.284,12.061V406.36z"/>
			<path style="fill:#FFFFFF;" d="M273.737,389.601c0,4.911-1.778,8.932-5.334,12.059c-3.56,3.133-7.832,4.699-12.811,4.699h-39.175
				c-4.986,0-9.25-1.566-12.813-4.699c-3.554-3.127-5.332-7.147-5.332-12.059v-45.369h11.738v45.462
				c0,3.708,2.136,5.563,6.406,5.563h39.175c4.27,0,6.404-1.855,6.404-5.563v-45.462h11.74V389.601z"/>
			<path style="fill:#FFFFFF;" d="M358.601,355.338h-55.296c-1.564,0-3.025,0.568-4.376,1.707c-1.349,1.139-2.028,2.455-2.028,3.945
				v3.1c0,3.698,2.136,5.548,6.404,5.548l36.932,0.104c4.982,0,9.215,1.495,12.706,4.487c3.631,3.2,5.447,7.26,5.447,12.171v3.2
				c0,4.697-1.853,8.663-5.553,11.901c-3.704,3.24-7.901,4.859-12.6,4.859h-55.294v-11.103h55.294c1.568,0,3.027-0.55,4.376-1.657
				c1.355-1.099,2.032-2.432,2.032-4v-3.2c0-3.702-2.134-5.553-6.408-5.553l-36.932-0.108c-4.976,0-9.248-1.547-12.808-4.643
				c-3.556-3.096-5.338-7.095-5.338-12.007v-3.1c0-4.624,1.851-8.572,5.553-11.844c3.702-3.275,7.897-4.909,12.594-4.909h55.296
				V355.338z"/>
			<rect x="369.059" y="344.233" style="fill:#FFFFFF;" width="11.74" height="62.129"/>
			<path style="fill:#FFFFFF;" d="M465.236,406.36h-54.652c-4.982,0-9.252-1.566-12.813-4.697
				c-3.558-3.129-5.336-7.152-5.336-12.061v-28.609c0-4.626,1.853-8.578,5.551-11.847c3.702-3.273,7.901-4.911,12.598-4.911h54.652
				v11.099h-54.652c-1.568,0-3.027,0.575-4.376,1.711c-1.351,1.145-2.03,2.465-2.03,3.96v28.686c0,3.71,2.132,5.567,6.406,5.567
				h54.652V406.36z"/>
		</g>
	</g>
</g>
</svg>
