<?xml version="1.0" encoding="UTF-8" standalone="no"?>
<!-- Created with Inkscape (http://www.inkscape.org/) -->

<svg
   xmlns:dc="http://purl.org/dc/elements/1.1/"
   xmlns:cc="http://creativecommons.org/ns#"
   xmlns:rdf="http://www.w3.org/1999/02/22-rdf-syntax-ns#"
   xmlns:svg="http://www.w3.org/2000/svg"
   xmlns="http://www.w3.org/2000/svg"
   xmlns:sodipodi="http://sodipodi.sourceforge.net/DTD/sodipodi-0.dtd"
   xmlns:inkscape="http://www.inkscape.org/namespaces/inkscape"
   version="1.1"
   id="svg10"
   width="340.22726"
   height="104.79696"
   viewBox="0 0 340.22726 104.79696"
   sodipodi:docname="Eska TV Extra.svg"
   inkscape:version="0.92.4 (5da689c313, 2019-01-14)">
  <metadata
     id="metadata16">
    <rdf:RDF>
      <cc:Work
         rdf:about="">
        <dc:format>image/svg+xml</dc:format>
        <dc:type
           rdf:resource="http://purl.org/dc/dcmitype/StillImage" />
        <dc:title></dc:title>
      </cc:Work>
    </rdf:RDF>
  </metadata>
  <defs
     id="defs14" />
  <sodipodi:namedview
     pagecolor="#ffffff"
     bordercolor="#666666"
     borderopacity="1"
     objecttolerance="10"
     gridtolerance="10"
     guidetolerance="10"
     inkscape:pageopacity="0"
     inkscape:pageshadow="2"
     inkscape:window-width="1920"
     inkscape:window-height="1018"
     id="namedview12"
     showgrid="false"
     inkscape:zoom="2.0000001"
     inkscape:cx="132.07996"
     inkscape:cy="111.97853"
     inkscape:window-x="-8"
     inkscape:window-y="-8"
     inkscape:window-maximized="1"
     inkscape:current-layer="svg10"
     showguides="true"
     fit-margin-top="0"
     fit-margin-left="0"
     fit-margin-right="0"
     fit-margin-bottom="0">
    <inkscape:grid
       type="xygrid"
       id="grid913"
       originx="-14.470703"
       originy="-83.451171" />
  </sodipodi:namedview>
  <path
     style="opacity:1;fill:#294288;fill-opacity:1;stroke:none;stroke-width:14.74788094;stroke-miterlimit:4;stroke-dasharray:none"
     d="m 263.61914,75.796958 v 1.26758 c 0,2.29694 -0.23671,4.54887 -0.69336,6.72461 -0.45665,2.17573 -1.13233,4.27594 -2.00976,6.26953 -0.87743,1.99359 -1.95641,3.88035 -3.21875,5.63086 -1.26234,1.7505 -2.70894,3.36407 -4.32031,4.810542 -0.9872,0.88618 -2.02582,1.66852 -3.09766,2.375 -1.07184,0.70649 -2.17688,1.33711 -3.29883,1.92188 h 79.29883 c 0,0 13.34375,-1.54005 13.34375,-14.500002 0,-14.58321 -13.34375,-14.5 -13.34375,-14.5 z"
     id="path1020"
     inkscape:connector-curvature="0"
     sodipodi:nodetypes="cssscccccscc" />
  <path
     style="font-style:normal;font-variant:normal;font-weight:normal;font-stretch:normal;font-size:medium;line-height:1.25;font-family:'Arial Rounded MT Bold';-inkscape-font-specification:'Arial Rounded MT Bold, ';letter-spacing:0px;word-spacing:0px;opacity:1;fill:#ffffff;fill-opacity:1;stroke:none;stroke-width:0.60426015;stroke-miterlimit:4;stroke-dasharray:none;stroke-opacity:1"
     d="m 313.19336,82.011719 c 0.0277,-0.002 0.0298,0.0039 -0.3125,0.0039 h -4.95898 c -0.18719,0 -0.35588,0.01516 -0.51368,0.03906 h -0.008 v 0.002 c -0.39214,0.0604 -0.6972,0.19134 -0.90625,0.40039 -0.29437,0.29437 -0.44141,0.770525 -0.44141,1.427735 V 95.46875 c 0,0.60928 0.13342,1.069856 0.40039,1.384766 0.26698,0.31491 0.64282,0.472676 1.12891,0.472656 0.45181,0 0.81698,-0.151905 1.09766,-0.453125 0.28068,-0.30122 0.42383,-0.767647 0.42383,-1.404297 v -4.550781 h 1.0957 l 0.8789,1.146484 3.14844,4.189453 c 0.39678,0.52766 0.80384,0.86077 1.2168,1 0.41297,0.13926 0.809,0.0887 1.1875,-0.154297 0.35184,-0.22591 0.53422,-0.542159 0.55664,-0.943359 0.0225,-0.4012 -0.16935,-0.876374 -0.58398,-1.427734 l -3.1504,-4.1875 -0.0723,-0.121094 0.54883,-0.101563 c 1.01605,-0.14995 1.854,-0.660796 2.47656,-1.316406 0.63667,-0.6709 0.95704,-1.724936 0.95703,-2.847656 0,-0.54767 -0.0954,-1.064721 -0.28711,-1.550781 -0.18483,-0.4929 -0.45943,-0.925252 -0.82226,-1.294922 -0.36283,-0.36968 -0.7796,-0.653043 -1.25196,-0.851563 -0.39021,-0.17801 -0.9569,-0.402343 -1.64648,-0.402343 -0.24302,-0.0308 -0.18978,-0.04117 -0.16211,-0.04297 z m -43.50195,0.0039 c -0.41831,0 -0.76293,0.0654 -1.03516,0.193359 -0.26559,0.12122 -0.46174,0.31764 -0.58789,0.59375 -0.12614,0.26937 -0.18945,0.621725 -0.18945,1.052735 v 11.130859 c 0,0.6465 0.14105,1.114717 0.41992,1.404297 0.28551,0.28958 0.74852,0.433594 1.39258,0.433594 h 0.39648 0.75 5.20508 c 0.47142,0 0.82112,-0.133181 1.04687,-0.400391 0.23239,-0.27583 0.34766,-0.637707 0.34766,-1.085937 0,-0.4396 -0.11527,-0.793347 -0.34766,-1.060547 -0.22575,-0.27582 -0.57545,-0.41211 -1.04687,-0.41211 h -5.20508 v -2.947265 h 4.97852 c 0.45815,0 0.7965,-0.13928 1.01562,-0.41211 0.21911,-0.28162 0.32813,-0.642001 0.32813,-1.082031 0,-0.44004 -0.11214,-0.790667 -0.33789,-1.054687 -0.21911,-0.27282 -0.55435,-0.410157 -1.00586,-0.410157 h -4.97852 v -2.945312 h 5.20508 c 0.47142,0 0.82112,-0.133171 1.04687,-0.400391 0.23239,-0.27582 0.34766,-0.637697 0.34766,-1.085937 0,-0.4396 -0.11527,-0.793337 -0.34766,-1.060547 -0.22575,-0.27583 -0.57545,-0.412109 -1.04687,-0.412109 h -5.20508 v -0.03906 z m 11.1914,0 c -0.38084,0 -0.70465,0.11477 -0.97265,0.34375 -0.26093,0.22223 -0.39258,0.474971 -0.39258,0.757813 0,0.27611 0.0672,0.56609 0.20117,0.86914 0.14105,0.29631 0.34996,0.652793 0.625,1.070313 l 2.91992,4.302734 -3.4707,4.839844 c -0.51483,0.72059 -0.77149,1.329785 -0.77149,1.828125 0,0.42426 0.1223,0.74651 0.36914,0.96875 0.2539,0.22222 0.5723,0.333984 0.95313,0.333984 0.24684,0 0.46117,-0.0373 0.64453,-0.111328 0.18336,-0.0741 0.34256,-0.174784 0.47656,-0.302734 0.134,-0.12795 0.24621,-0.259852 0.33789,-0.394532 0.0987,-0.13469 0.26065,-0.370311 0.48633,-0.707031 l 2.89844,-4.222656 2.73047,4.101562 c 0.34558,0.50508 0.58204,0.846385 0.70898,1.021485 0.12694,0.17509 0.29158,0.319104 0.4961,0.433594 0.20452,0.12121 0.45575,0.18164 0.75195,0.18164 0.27505,0 0.5216,-0.05741 0.74023,-0.171875 0.21862,-0.11449 0.38792,-0.269544 0.50782,-0.464844 0.11989,-0.19529 0.17968,-0.410784 0.17968,-0.646484 0,-0.24918 -0.0672,-0.510999 -0.20117,-0.787109 -0.134,-0.28285 -0.34832,-0.636277 -0.64453,-1.060547 l -3.29101,-4.839844 3.05859,-4.363281 c 0.54304,-0.77446 0.81445,-1.386691 0.81445,-1.837891 0,-0.30978 -0.12698,-0.576598 -0.38086,-0.798828 -0.24684,-0.22898 -0.56795,-0.34375 -0.96289,-0.34375 -0.21862,0 -0.41276,0.0373 -0.58203,0.111328 -0.1622,0.0673 -0.31131,0.173033 -0.44531,0.314453 -0.134,0.14143 -0.27378,0.319657 -0.42188,0.535156 -0.14105,0.215502 -0.31501,0.474304 -0.51953,0.777344 l -2.48633,3.595703 -2.32617,-3.595703 c -0.4302,-0.66671 -0.76878,-1.120851 -1.01562,-1.363281 -0.23979,-0.24918 -0.57838,-0.375 -1.01563,-0.375 z m 12.53125,0 c -0.48267,0 -0.85151,0.128652 -1.10937,0.388672 -0.25125,0.26001 -0.37888,0.615343 -0.37891,1.064453 0,0.43335 0.12449,0.782901 0.36914,1.050781 0.24462,0.26001 0.61664,0.390625 1.11914,0.390625 h 3.20703 v 10.632813 c 0,0.60422 0.13598,1.054725 0.40821,1.353515 0.27887,0.29879 0.63795,0.449219 1.07617,0.449219 0.43158,0 0.78246,-0.147313 1.05469,-0.439453 0.27223,-0.2988 0.4082,-0.752431 0.4082,-1.363281 V 84.935547 c 0,-0.009 -0.006,-0.01679 -0.008,-0.02539 h 0.002 3.21484 c 0.50249,0 0.87766,-0.130615 1.12891,-0.390625 0.25126,-0.26788 0.37891,-0.617431 0.37891,-1.050781 0,-0.43336 -0.12765,-0.784844 -0.37891,-1.052734 -0.24463,-0.26789 -0.6198,-0.400391 -1.12891,-0.400391 z m 32.45508,0 c -0.41097,0 -0.75805,0.0825 -1.04102,0.244141 -0.27622,0.15495 -0.50256,0.361167 -0.67773,0.617187 -0.16842,0.25601 -0.33137,0.57799 -0.48633,0.96875 -0.14822,0.38401 -0.27307,0.714002 -0.38086,0.990235 l -3.79297,9.621093 c -0.15495,0.38402 -0.26465,0.682848 -0.33203,0.898438 -0.0674,0.21559 -0.10156,0.426786 -0.10156,0.628906 0,0.35033 0.1439,0.663213 0.43359,0.939453 0.2897,0.27621 0.62468,0.414063 1.00196,0.414063 0.44466,0 0.76557,-0.128756 0.96093,-0.384766 0.19539,-0.26275 0.43081,-0.764769 0.70704,-1.505859 l 0.53125,-1.431641 h 6.37695 l 0.5293,1.390625 c 0.0943,0.22906 0.20597,0.495658 0.33398,0.798828 0.13474,0.29644 0.26046,0.517796 0.375,0.666016 0.11452,0.14148 0.2554,0.255087 0.42383,0.335937 0.16844,0.0876 0.36967,0.13086 0.60547,0.13086 0.40424,0 0.74827,-0.140855 1.03125,-0.423829 0.2897,-0.289698 0.43359,-0.607571 0.43359,-0.951171 0,-0.33013 -0.14994,-0.858328 -0.45312,-1.585938 l -3.8711,-9.560547 c -0.1819,-0.47834 -0.33381,-0.857665 -0.45508,-1.140625 -0.11453,-0.2897 -0.26037,-0.559325 -0.43554,-0.808593 -0.16843,-0.24928 -0.39478,-0.452472 -0.67774,-0.607422 -0.27622,-0.1617 -0.62135,-0.244141 -1.03906,-0.244141 z m -16.76562,2.998047 h 3.81445 c 1.02261,0 1.55469,0.571197 1.55469,1.492187 0,0.95984 -0.77949,1.472835 -1.57227,1.453125 h -3.79687 z m 16.74609,0.166016 2.13477,5.845703 H 323.75 Z"
     id="path257"
     inkscape:connector-curvature="0" />
  <path
     style="opacity:1;fill:#294288;fill-opacity:1;stroke:none;stroke-width:1px;stroke-linecap:butt;stroke-linejoin:miter;stroke-opacity:1"
     d="m 182.84375,17.054769 c -4.2684,-0.06212 -8.40197,1.544399 -11.50976,4.470699 l -9.11914,8.35157 c -2.05578,-6.85243 -8.4609,-11.968329 -15.9336,-11.855472 -6.40244,0.09668 -11.92603,4.013282 -14.54687,9.492182 -2.69219,-5.62868 -8.46555,-9.587162 -15.04297,-9.494136 H 86.523437 a 8.9403614,8.9403614 0 0 0 -0.18945,0.002 c -0.003,6.7e-5 -0.0178,-7.5e-5 -0.0215,0 -0.0611,-4.96e-4 -0.14351,-0.002 -0.19531,-0.002 -0.0274,0 -0.0488,0.0116 -0.0762,0.01172 -0.0261,0.001 -0.0271,6.02e-4 -0.0566,0.002 h 0.0469 c -8.087933,0.03973 -13.892061,5.256544 -16.380856,8.480464 -0.317886,0.41179 -0.600331,1.09614 -0.921875,1.57813 -0.840198,-1.02777 -1.661989,-2.07141 -2.664063,-2.9707 -5.190978,-4.65853 -11.744655,-6.83694 -18.132812,-7.056644 -0.373067,-0.02374 -0.74642,-0.04675 -1.121094,-0.04492 H 27.822266 c -0.467446,-0.0053 -0.938536,0.02564 -1.408203,0.06055 C 20.282566,18.357271 14.011142,20.605921 8.994141,25.109511 3.355852,30.170811 0,37.591211 0,45.748181 v 31.06055 c 0,8.4635 3.327173,16.03195 8.943359,21.12109 5.16391,4.679309 11.609759,6.863279 17.580079,6.863279 H 47.90625 c 7.718286,0.10917 14.370447,-5.330712 16.175781,-12.544972 h 1.109375 c 1.80535,7.21424 8.457561,12.654092 16.175782,12.544922 H 112.5293 c 3.96126,0 8.44685,-0.93746 12.73242,-3.06445 a 8.9403614,8.9403614 0 0 0 0.4961,-0.26563 c 2.43101,-1.40354 4.62975,-3.210352 6.45312,-5.271482 2.821,5.071372 8.18023,8.605472 14.31836,8.605472 8.06986,0 14.87231,-6.051412 16.17969,-13.773442 l 10.90625,9.517582 c 6.54906,5.89979 16.7919,5.4094 22.83984,-0.892582 4.68986,3.250892 10.11565,4.915302 15.47461,5.099612 0.37297,0.0237 0.74622,0.0468 1.12109,0.0449 h 18.98829 c 0.46744,0.005 0.93854,-0.0256 1.4082,-0.0605 6.13151,-0.27707 12.40292,-2.52571 17.41992,-7.029302 5.63828,-5.0613 8.99414,-12.48171 8.99414,-20.63867 v -31.06055 c 0,-8.4635 -3.32716,-16.03195 -8.94336,-21.12109 -5.16391,-4.67933 -11.60976,-6.863286 -17.58008,-6.863286 h -21.38281 c -6.22603,-0.0881 -11.7041,3.470936 -14.5625,8.621096 -2.47681,-5.25612 -7.94655,-9.490446 -14.54687,-9.585939 z M 64.765625,38.875078 c -0.0086,0.0942 -0.0047,0.18889 -0.01172,0.28321 -0.0019,0.0358 -0.0139,0.0676 -0.01563,0.10351 z m 138.541015,24.13282 c -0.14455,0.12638 -0.55589,0.56851 -1.07422,1.22851 -5e-5,-2.4e-4 -0.0333,-0.0253 -0.0332,-0.0254 0.0534,-0.0702 0.0971,-0.12644 0.14453,-0.18555 0.0949,-0.1182 0.19381,-0.23408 0.29688,-0.34961 0.20199,-0.2264 0.42417,-0.44977 0.66601,-0.66796 z"
     id="path987"
     inkscape:connector-curvature="0" />
  <path
     style="color:#000000;font-style:normal;font-variant:normal;font-weight:normal;font-stretch:normal;font-size:medium;line-height:normal;font-family:sans-serif;font-variant-ligatures:normal;font-variant-position:normal;font-variant-caps:normal;font-variant-numeric:normal;font-variant-alternates:normal;font-feature-settings:normal;text-indent:0;text-align:start;text-decoration:none;text-decoration-line:none;text-decoration-style:solid;text-decoration-color:#000000;letter-spacing:normal;word-spacing:normal;text-transform:none;writing-mode:lr-tb;direction:ltr;text-orientation:mixed;dominant-baseline:auto;baseline-shift:baseline;text-anchor:start;white-space:normal;shape-padding:0;clip-rule:nonzero;display:inline;overflow:visible;visibility:visible;opacity:1;isolation:auto;mix-blend-mode:normal;color-interpolation:sRGB;color-interpolation-filters:linearRGB;solid-color:#000000;solid-opacity:1;vector-effect:none;fill:#ffffff;fill-opacity:1;fill-rule:nonzero;stroke:none;stroke-width:15;stroke-linecap:round;stroke-linejoin:miter;stroke-miterlimit:4;stroke-dasharray:none;stroke-dashoffset:0;stroke-opacity:1;color-rendering:auto;image-rendering:auto;shape-rendering:auto;text-rendering:auto;enable-background:accumulate"
     d="m 182.71485,25.994218 c -1.9491,-0.0286 -3.83277,0.70276 -5.25196,2.03907 l -23.43359,21.46289 v -14.93164 c 0.0595,-4.22786 -3.38548,-7.66932 -7.61328,-7.60547 -4.13907,0.0625 -7.44499,3.46634 -7.38672,7.60547 v 26.84179 26.8418 c -0.0608,4.18474 3.31482,7.60938 7.5,7.60938 4.18518,0 7.56078,-3.42464 7.5,-7.60938 v -16.66602 l 25.56836,22.31641 c 3.11208,2.80355 7.91756,2.51512 10.67187,-0.64062 2.75432,-3.15574 2.39003,-7.95576 -0.80859,-10.66016 l -25.27539,-22.06055 23.41016,-21.4414 c 5.10877,-4.54959 1.95936,-13.00346 -4.88086,-13.10157 z m -154.994147,0.96485 c -0.266026,-0.003 -0.532027,0.008 -0.796875,0.0332 -4.288664,0.17059 -8.544471,1.70444 -11.958984,4.76953 -3.6261,3.25503 -6.025391,8.37974 -6.025391,13.98633 v 31.06055 c 0,6.02252 2.466734,11.28909 6.00586,14.49609 3.539125,3.207 7.63675,4.54883 11.578125,4.54883 h 21.509765 c 4.183619,0.0592 7.607422,-3.31597 7.607422,-7.5 0,-4.18403 -3.423803,-7.55917 -7.607422,-7.5 H 26.523438 c -0.05777,0 -1.002522,-0.20796 -1.50586,-0.66406 -0.503337,-0.45611 -1.078125,-0.96342 -1.078125,-3.38086 v -7.91211 h 21.169922 c 4.506123,-0.14013 8.064578,-0.11414 11.03711,-0.82227 2.891334,-0.68879 5.238794,-2.09081 6.691406,-3.67969 2.398912,-2.83295 2.913677,-4.98422 2.943359,-8.24218 0.03538,-2.66775 0.125,-3.79735 0.125,-5.83008 0.01205,-0.18464 0.01726,-0.36966 0.01563,-0.55469 -1.3e-5,-0.006 1.7e-5,-0.0131 0,-0.0195 v -4.51562 c 0,-5.21879 -2.201078,-10.20398 -5.828125,-13.45899 -3.457827,-3.10315 -7.953787,-4.6481 -12.564453,-4.78711 -0.224735,-0.0193 -0.450224,-0.0284 -0.675781,-0.0273 z m 58.396484,0 c -4.803457,0 -7.590936,2.6863 -9.390624,5.01758 -1.677553,2.17305 -2.898716,4.39295 -3.058594,7.71484 -0.02222,0.24219 -0.03265,0.48531 -0.03125,0.72852 v 11.79296 c -0.0027,0.34348 0.01817,0.68674 0.0625,1.02735 0.10266,3.16091 0.751212,5.99595 2.21289,8.37695 1.600989,2.60792 3.975834,4.07111 4.8125,4.58008 0.744816,0.4862 1.570167,0.83605 2.4375,1.0332 3.013578,1.30847 6.195148,1.66602 9.408208,1.66602 h 13.791013 3.66797 c 4.43187,0 4.03125,3.23953 4.03125,6.07031 0,3.95617 -0.78436,5.88672 -3.71875,5.88672 H 81.240235 c -4.183619,-0.0592 -7.607422,3.31597 -7.607422,7.5 0,4.18403 3.423803,7.55917 7.607422,7.5 H 112.5293 c 2.85796,0 5.52655,-0.52909 8.75781,-2.13281 6.99363,-4.03777 7.71146,-8.74948 7.76367,-17.68164 0.0346,-5.69331 0.0303,-11.26818 -2.21679,-15.16016 -1.59261,-2.56563 -4.36819,-4.61391 -7.25196,-5.63672 -2.73408,-0.96971 -5.63023,-1.29929 -9.00976,-1.33203 -0.18077,-0.0111 -0.36187,-0.0157 -0.54297,-0.0137 h -3.66797 -13.791013 c -3.20119,0 -3.92316,-0.72596 -3.9336,-2.42774 v -8.18945 c 0,-0.7792 0.8018,-1.32031 1.36133,-1.32031 h 26.820313 c 4.18362,0.0592 7.60547,-3.31597 7.60547,-7.5 0,-4.18403 -3.42185,-7.55917 -7.60547,-7.5 H 86.523437 c -0.0436,9.2e-4 -0.0872,0.002 -0.13086,0.004 -0.0918,-0.003 -0.18358,-0.004 -0.27539,-0.004 z m 125.710943,0 c -4.18362,-0.0592 -7.60742,3.31597 -7.60742,7.5 0,4.18403 3.4238,7.55917 7.60742,7.5 h 21.50976 c 0.0578,0 1.00252,0.20796 1.50586,0.66406 0.50333,0.45611 1.07813,0.96342 1.07813,3.38086 v 7.91211 h -21.16992 c -4.50612,0.14013 -8.06458,0.11413 -11.03711,0.82226 -2.89134,0.68879 -5.23685,2.09081 -6.68946,3.67969 -2.39892,2.83295 -2.91563,4.98618 -2.94531,8.24414 -0.0354,2.66775 -0.125,3.7954 -0.125,5.82813 -0.012,0.18464 -0.0173,0.36966 -0.0156,0.55469 2e-5,0.006 -1e-5,0.0131 0,0.0195 v 4.51562 c 0,5.21879 2.20107,10.20398 5.82812,13.45899 3.45783,3.10315 7.95379,4.64809 12.56445,4.7871 0.22474,0.0193 0.45024,0.0284 0.67579,0.0273 h 19.13281 c 0.26603,0.003 0.53202,-0.008 0.79687,-0.0332 4.28866,-0.17059 8.54448,-1.70445 11.95899,-4.76954 3.6261,-3.25503 6.02539,-8.37973 6.02539,-13.98632 v -31.06055 c 0,-6.02252 -2.46673,-11.28909 -6.00586,-14.49609 -3.53912,-3.207 -7.63676,-4.54883 -11.57813,-4.54883 z m -184.107427,15 h 19.132813 c 1.679205,0 2.69518,0.50689 3.220703,0.97851 0.525523,0.47162 0.847656,0.87265 0.847656,2.29493 v 4.53515 0.006 0.0137 c 0.0084,3.27623 -0.485425,3.49931 -0.353516,3.38086 0.131912,-0.11845 -1.169564,0.72852 -5.458984,0.72852 H 23.939453 v -8.14861 c 0,-1.75556 0.434939,-2.2749 1.046875,-2.82422 0.611937,-0.54931 1.678522,-0.96484 2.734375,-0.96484 z m 181.375007,26.95703 h 26.82617 v 8.14844 c 0,1.75556 -0.43495,2.27491 -1.04688,2.82421 -0.61194,0.54931 -1.67852,0.96485 -2.73437,0.96485 h -19.13281 c -1.67921,0 -2.69519,-0.5069 -3.22071,-0.97852 -0.37735,-0.33864 -0.64392,-0.65414 -0.76758,-1.32422 v -9.63085 c 0.0277,-5.9e-4 0.0474,-0.004 0.0762,-0.004 z"
     id="path942"
     inkscape:connector-curvature="0" />
  <g
     id="g849"
     transform="translate(-14.87785,-81.751872)">
    <g
       id="g854" />
  </g>
  <path
     style="color:#000000;font-style:normal;font-variant:normal;font-weight:normal;font-stretch:normal;font-size:medium;line-height:normal;font-family:sans-serif;font-variant-ligatures:normal;font-variant-position:normal;font-variant-caps:normal;font-variant-numeric:normal;font-variant-alternates:normal;font-feature-settings:normal;text-indent:0;text-align:start;text-decoration:none;text-decoration-line:none;text-decoration-style:solid;text-decoration-color:#000000;letter-spacing:normal;word-spacing:normal;text-transform:none;writing-mode:lr-tb;direction:ltr;text-orientation:mixed;dominant-baseline:auto;baseline-shift:baseline;text-anchor:start;white-space:normal;shape-padding:0;clip-rule:nonzero;display:inline;overflow:visible;visibility:visible;opacity:1;isolation:auto;mix-blend-mode:normal;color-interpolation:sRGB;color-interpolation-filters:linearRGB;solid-color:#000000;solid-opacity:1;vector-effect:none;fill:#000000;fill-opacity:1;fill-rule:nonzero;stroke:none;stroke-width:11;stroke-linecap:round;stroke-linejoin:miter;stroke-miterlimit:4;stroke-dasharray:none;stroke-dashoffset:0;stroke-opacity:1;color-rendering:auto;image-rendering:auto;shape-rendering:auto;text-rendering:auto;enable-background:accumulate"
     d="m 294.48242,6.0352368 a 5.50055,5.50055 0 0 0 -0.85937,0.07422 h -29.02344 a 5.50055,5.50055 0 1 0 0,11.0000002 h 9.45313 v 33.416012 a 5.50055,5.50055 0 1 0 11,0 V 17.109456 h 5.74609 l 14.04883,34.730472 a 5.50055,5.50055 0 0 0 6.46875,4.15625 5.50055,5.50055 0 0 0 0.16601,-0.0371 5.50055,5.50055 0 0 0 0.25586,-0.0645 5.50055,5.50055 0 0 0 3.78321,-3.65234 l 18.13672,-38.279296 a 5.50055,5.50055 0 0 0 -4.78516,-7.9238282 5.50055,5.50055 0 0 0 -5.1543,3.214843 L 310.64649,36.841878 299.94727,10.390706 a 5.50055,5.50055 0 0 0 -2.26172,-3.3164062 5.50055,5.50055 0 0 0 -0.19727,-0.136719 5.50055,5.50055 0 0 0 -0.008,-0.0039 5.50055,5.50055 0 0 0 -2.99805,-0.898438 z"
     id="path58"
     inkscape:connector-curvature="0" />
  <g
     id="g977"
     transform="translate(-14.783203,-81.751872)" />
  <path
     sodipodi:type="inkscape:offset"
     inkscape:radius="6.0346384"
     inkscape:original="M 308.95312 87.787109 A 5.50055 5.50055 0 0 0 308.09375 87.861328 L 279.07031 87.861328 A 5.50055 5.50055 0 1 0 279.07031 98.861328 L 288.52344 98.861328 L 288.52344 132.27734 A 5.50055 5.50055 0 1 0 299.52344 132.27734 L 299.52344 98.861328 L 305.26953 98.861328 L 319.31836 133.5918 A 5.50055 5.50055 0 0 0 325.78711 137.74805 A 5.50055 5.50055 0 0 0 325.95312 137.71094 A 5.50055 5.50055 0 0 0 326.20898 137.64648 A 5.50055 5.50055 0 0 0 329.99219 133.99414 L 348.12891 95.714844 A 5.50055 5.50055 0 0 0 343.34375 87.791016 A 5.50055 5.50055 0 0 0 338.18945 91.005859 L 325.11719 118.59375 L 314.41797 92.142578 A 5.50055 5.50055 0 0 0 312.15625 88.826172 A 5.50055 5.50055 0 0 0 311.95898 88.689453 A 5.50055 5.50055 0 0 0 311.95117 88.685547 A 5.50055 5.50055 0 0 0 308.95312 87.787109 z "
     style="color:#000000;font-style:normal;font-variant:normal;font-weight:normal;font-stretch:normal;font-size:medium;line-height:normal;font-family:sans-serif;font-variant-ligatures:normal;font-variant-position:normal;font-variant-caps:normal;font-variant-numeric:normal;font-variant-alternates:normal;font-feature-settings:normal;text-indent:0;text-align:start;text-decoration:none;text-decoration-line:none;text-decoration-style:solid;text-decoration-color:#000000;letter-spacing:normal;word-spacing:normal;text-transform:none;writing-mode:lr-tb;direction:ltr;text-orientation:mixed;dominant-baseline:auto;baseline-shift:baseline;text-anchor:start;white-space:normal;shape-padding:0;clip-rule:nonzero;display:inline;overflow:visible;visibility:visible;opacity:1;isolation:auto;mix-blend-mode:normal;color-interpolation:sRGB;color-interpolation-filters:linearRGB;solid-color:#000000;solid-opacity:1;vector-effect:none;fill:#f48936;fill-opacity:1;fill-rule:nonzero;stroke:none;stroke-width:11;stroke-linecap:round;stroke-linejoin:miter;stroke-miterlimit:4;stroke-dasharray:none;stroke-dashoffset:0;stroke-opacity:1;color-rendering:auto;image-rendering:auto;shape-rendering:auto;text-rendering:auto;enable-background:accumulate"
     id="path950"
     d="m 308.90625,81.751953 c -0.28673,0.0022 -0.5697,0.05066 -0.85547,0.07422 h -28.98047 l 0.0859,0.002 c -6.09358,-0.08618 -11.69922,5.439017 -11.69922,11.533203 0,6.094186 5.60564,11.619382 11.69922,11.533202 l -0.0859,0.002 h 3.41797 v 27.38086 l 0.002,-0.0859 c -0.0862,6.09357 5.43902,11.69922 11.53321,11.69921 6.09418,0 11.61938,-5.60564 11.5332,-11.69921 l 0.002,0.0859 v -16.60937 l 8.16602,20.1875 -0.28711,-0.91211 c 1.3325,5.8002 7.73512,9.91347 13.56445,8.71484 a 6.0352419,6.0352419 0 0 0 0.01,-0.002 c 0.0918,-0.019 0.18412,-0.0393 0.27539,-0.0606 0.17728,-0.0402 0.35216,-0.0843 0.52734,-0.13281 l 0.008,-0.002 c 3.69092,-1.02215 6.77707,-4.00265 7.92578,-7.65625 l -0.30274,0.77343 18.09961,-38.20312 c 1.69527,-3.450809 1.50901,-7.757659 -0.47851,-11.048828 -1.98752,-3.291169 -5.71337,-5.462252 -9.55664,-5.56836 a 6.0352419,6.0352419 0 0 0 -0.002,0 c -4.49696,-0.122845 -8.9409,2.649573 -10.80859,6.742188 l -7.14453,15.08008 -5.54297,-13.701174 0.28906,0.917969 c -0.64047,-2.798177 -2.36988,-5.332123 -4.74023,-6.951172 -0.0906,-0.06374 -0.18104,-0.128352 -0.27344,-0.189453 a 6.0352419,6.0352419 0 0 0 -0.0312,-0.01953 l -0.008,-0.0039 c -1.85459,-1.212046 -4.06377,-1.874929 -6.2793,-1.880859 a 6.0352419,6.0352419 0 0 0 -0.0625,0 z m 5.75586,1.542969 0.54687,0.314453 a 6.0352419,6.0352419 0 0 0 -0.54687,-0.314453 z"
     transform="translate(-14.470703,-81.751872)" />
  <path
     id="path945"
     d="m 294.48242,6.0352368 a 5.50055,5.50055 0 0 0 -0.85937,0.07422 h -29.02344 a 5.50055,5.50055 0 1 0 0,11.0000002 h 9.45313 v 33.416012 a 5.50055,5.50055 0 1 0 11,0 V 17.109456 h 5.74609 l 14.04883,34.730472 a 5.50055,5.50055 0 0 0 6.46875,4.15625 5.50055,5.50055 0 0 0 0.16601,-0.0371 5.50055,5.50055 0 0 0 0.25586,-0.0645 5.50055,5.50055 0 0 0 3.78321,-3.65234 l 18.13672,-38.279296 a 5.50055,5.50055 0 0 0 -4.78516,-7.9238282 5.50055,5.50055 0 0 0 -5.1543,3.214843 L 310.64649,36.841878 299.94727,10.390706 a 5.50055,5.50055 0 0 0 -2.26172,-3.3164062 5.50055,5.50055 0 0 0 -0.19727,-0.136719 5.50055,5.50055 0 0 0 -0.008,-0.0039 5.50055,5.50055 0 0 0 -2.99805,-0.898438 z"
     style="color:#000000;font-style:normal;font-variant:normal;font-weight:normal;font-stretch:normal;font-size:medium;line-height:normal;font-family:sans-serif;font-variant-ligatures:normal;font-variant-position:normal;font-variant-caps:normal;font-variant-numeric:normal;font-variant-alternates:normal;font-feature-settings:normal;text-indent:0;text-align:start;text-decoration:none;text-decoration-line:none;text-decoration-style:solid;text-decoration-color:#000000;letter-spacing:normal;word-spacing:normal;text-transform:none;writing-mode:lr-tb;direction:ltr;text-orientation:mixed;dominant-baseline:auto;baseline-shift:baseline;text-anchor:start;white-space:normal;shape-padding:0;clip-rule:nonzero;display:inline;overflow:visible;visibility:visible;opacity:1;isolation:auto;mix-blend-mode:normal;color-interpolation:sRGB;color-interpolation-filters:linearRGB;solid-color:#000000;solid-opacity:1;vector-effect:none;fill:#ffffff;fill-opacity:1;fill-rule:nonzero;stroke:none;stroke-width:11;stroke-linecap:round;stroke-linejoin:miter;stroke-miterlimit:4;stroke-dasharray:none;stroke-dashoffset:0;stroke-opacity:1;color-rendering:auto;image-rendering:auto;shape-rendering:auto;text-rendering:auto;enable-background:accumulate"
     inkscape:connector-curvature="0" />
</svg>
