<?xml version="1.0" encoding="UTF-8" standalone="no"?>
<!-- Created with Inkscape (http://www.inkscape.org/) -->

<svg
   xmlns:dc="http://purl.org/dc/elements/1.1/"
   xmlns:cc="http://creativecommons.org/ns#"
   xmlns:rdf="http://www.w3.org/1999/02/22-rdf-syntax-ns#"
   xmlns:svg="http://www.w3.org/2000/svg"
   xmlns="http://www.w3.org/2000/svg"
   xmlns:sodipodi="http://sodipodi.sourceforge.net/DTD/sodipodi-0.dtd"
   xmlns:inkscape="http://www.inkscape.org/namespaces/inkscape"
   version="1.1"
   id="svg10"
   width="448.3486"
   height="437.26221"
   viewBox="0 0 448.3486 437.26221"
   sodipodi:docname="Eska Rock TV.svg"
   inkscape:version="0.92.4 (5da689c313, 2019-01-14)">
  <metadata
     id="metadata16">
    <rdf:RDF>
      <cc:Work
         rdf:about="">
        <dc:format>image/svg+xml</dc:format>
        <dc:type
           rdf:resource="http://purl.org/dc/dcmitype/StillImage" />
        <dc:title />
      </cc:Work>
    </rdf:RDF>
  </metadata>
  <defs
     id="defs14" />
  <sodipodi:namedview
     pagecolor="#ffffff"
     bordercolor="#666666"
     borderopacity="1"
     objecttolerance="10"
     gridtolerance="10"
     guidetolerance="10"
     inkscape:pageopacity="0"
     inkscape:pageshadow="2"
     inkscape:window-width="1920"
     inkscape:window-height="1018"
     id="namedview12"
     showgrid="false"
     inkscape:zoom="0.6638617"
     inkscape:cx="321.38591"
     inkscape:cy="270.30816"
     inkscape:window-x="-8"
     inkscape:window-y="-8"
     inkscape:window-maximized="1"
     inkscape:current-layer="svg10"
     showguides="true"
     fit-margin-top="0"
     fit-margin-left="0"
     fit-margin-right="0"
     fit-margin-bottom="0" />
  <path
     style="color:#000000;font-style:normal;font-variant:normal;font-weight:normal;font-stretch:normal;font-size:medium;line-height:normal;font-family:sans-serif;font-variant-ligatures:normal;font-variant-position:normal;font-variant-caps:normal;font-variant-numeric:normal;font-variant-alternates:normal;font-feature-settings:normal;text-indent:0;text-align:start;text-decoration:none;text-decoration-line:none;text-decoration-style:solid;text-decoration-color:#000000;letter-spacing:normal;word-spacing:normal;text-transform:none;writing-mode:lr-tb;direction:ltr;text-orientation:mixed;dominant-baseline:auto;baseline-shift:baseline;text-anchor:start;white-space:normal;shape-padding:0;clip-rule:nonzero;display:inline;overflow:visible;visibility:visible;opacity:1;isolation:auto;mix-blend-mode:normal;color-interpolation:sRGB;color-interpolation-filters:linearRGB;solid-color:#000000;solid-opacity:1;vector-effect:none;fill:#ffffff;fill-opacity:1;fill-rule:nonzero;stroke:none;stroke-width:11.65421295;stroke-linecap:butt;stroke-linejoin:miter;stroke-miterlimit:4;stroke-dasharray:none;stroke-dashoffset:0;stroke-opacity:1;color-rendering:auto;image-rendering:auto;shape-rendering:auto;text-rendering:auto;enable-background:accumulate"
     d="M 98.943359,0 C 44.053019,0 0,46.746222 0,104.21094 v 203.94531 c 0,57.46471 44.053019,104.21094 98.943359,104.21094 H 248.69922 v -68.75391 l 153.32718,3.46171 c 2.32136,-10.27334 11.8818,-25.36841 11.8818,-38.91874 V 104.21094 C 413.9082,46.746222 369.85518,0 314.96484,0 Z"
     id="path19"
     inkscape:connector-curvature="0"
     sodipodi:nodetypes="sssscccssss" />
  <path
     style="opacity:1;fill:#ea1c22;fill-opacity:1;stroke:none;stroke-width:12.40193558;stroke-miterlimit:4;stroke-dasharray:none;stroke-opacity:1"
     d="m 248.7001,343.61375 v 93.64844 h 199.64851 v -93.64844 z m 41.44727,15.84375 h 53.02148 v 15.30078 h -17.78906 v 46.65821 h -17.44336 v -46.65821 h -17.78906 z m 55.90234,0 h 19.13867 l 11.28711,39.625 11.28711,-39.625 h 19.13867 l -19.55859,61.95899 h -8.9043 -3.92578 -8.90429 z"
     id="rect923"
     inkscape:connector-curvature="0" />
  <path
     style="opacity:1;fill:#ffffff;fill-opacity:1;stroke:#000000;stroke-width:2.97565675;stroke-linecap:butt;stroke-linejoin:miter;stroke-miterlimit:4;stroke-dasharray:none;stroke-opacity:1"
     d="m 277.68695,95.741572 c -5.64661,-0.0839 -11.11485,2.08533 -15.2261,6.036628 l -12.06362,11.27678 c -2.71957,-9.25256 -11.19283,-16.160348 -21.07836,-16.007978 -8.46971,0.13057 -15.77681,5.418998 -19.24389,12.816928 -3.56147,-7.60018 -11.19896,-12.945168 -19.90017,-12.819568 h -39.90885 c -0.0835,9e-5 -0.1671,9.9e-4 -0.25063,0.003 -0.004,10e-5 -0.0237,-9e-5 -0.0284,0 -0.0807,-6.6e-4 -0.18985,-0.003 -0.25836,-0.003 -0.0362,0 -0.0646,0.0157 -0.1008,0.0159 -0.0344,9.8e-4 -0.0357,8.3e-4 -0.0749,0.003 h 0.0621 c -10.69944,0.0534 -18.37765,7.097718 -21.67004,11.450858 -0.42052,0.55604 -0.79418,1.48006 -1.21953,2.13089 -1.1115,-1.38777 -2.19863,-2.79695 -3.52427,-4.01122 -6.86711,-6.29025 -15.53687,-9.231668 -23.9877,-9.528338 -0.49353,-0.032 -0.98742,-0.063 -1.48307,-0.0605 H 72.61084 c -0.61838,-0.007 -1.2416,0.0345 -1.86293,0.0818 -8.11127,0.37407 -16.40765,3.410358 -23.04459,9.491378 -7.45883,6.83405 -11.89825,16.85353 -11.89825,27.86757 v 41.93985 c 0,11.42792 4.40149,21.6473 11.83108,28.51896 6.83129,6.31831 15.35841,9.26723 23.25648,9.26723 h 28.28706 c 10.21043,0.1474 19.0105,-7.19786 21.39876,-16.93899 h 1.4676 c 2.38825,9.74109 11.18838,17.08632 21.39872,16.93892 h 41.22401 c 5.24029,0 11.17422,-1.26579 16.84357,-4.13781 0.22239,-0.11249 0.44125,-0.2321 0.65627,-0.35866 3.21595,-1.89517 6.12465,-4.33484 8.53674,-7.11788 3.73189,6.84766 10.82155,11.61962 18.9416,11.61962 10.67552,0 19.67442,-8.171 21.40392,-18.59773 l 14.42776,12.8512 c 8.66365,7.96624 22.21381,7.30408 30.21454,-1.20523 6.20416,4.38955 13.3819,6.63693 20.47119,6.88581 0.49341,0.0321 0.98717,0.0632 1.48308,0.0605 h 25.11939 c 0.61838,0.007 1.24158,-0.0345 1.86288,-0.0818 8.1113,-0.37413 16.40769,-3.41038 23.0446,-9.49142 7.45884,-6.83404 11.89825,-16.85354 11.89825,-27.86756 v -41.93975 c 0,-11.42791 -4.40145,-21.64729 -11.83107,-28.51898 -6.83128,-6.318298 -15.35839,-9.267208 -23.25648,-9.267208 h -28.28706 c -8.23636,-0.11897 -15.48322,4.686658 -19.26454,11.640718 -3.27658,-7.09713 -10.51242,-12.814568 -19.2439,-12.943518 z M 121.48279,125.20468 c -0.0117,0.1272 -0.007,0.25507 -0.0156,0.3824 -0.003,0.0485 -0.0184,0.0914 -0.0207,0.13977 z"
     id="path987"
     inkscape:connector-curvature="0"
     sodipodi:nodetypes="cccccccccscccccccccccssssccccscccsccccccccsscscccccccc" />
  <path
     style="color:#000000;font-style:normal;font-variant:normal;font-weight:normal;font-stretch:normal;font-size:medium;line-height:normal;font-family:sans-serif;font-variant-ligatures:normal;font-variant-position:normal;font-variant-caps:normal;font-variant-numeric:normal;font-variant-alternates:normal;font-feature-settings:normal;text-indent:0;text-align:start;text-decoration:none;text-decoration-line:none;text-decoration-style:solid;text-decoration-color:#000000;letter-spacing:normal;word-spacing:normal;text-transform:none;writing-mode:lr-tb;direction:ltr;text-orientation:mixed;dominant-baseline:auto;baseline-shift:baseline;text-anchor:start;white-space:normal;shape-padding:0;clip-rule:nonzero;display:inline;overflow:visible;visibility:visible;opacity:1;isolation:auto;mix-blend-mode:normal;color-interpolation:sRGB;color-interpolation-filters:linearRGB;solid-color:#000000;solid-opacity:1;vector-effect:none;fill:#000000;fill-opacity:1;fill-rule:nonzero;stroke:none;stroke-width:19.6687603;stroke-linecap:round;stroke-linejoin:miter;stroke-miterlimit:4;stroke-dasharray:none;stroke-dashoffset:0;stroke-opacity:1;color-rendering:auto;image-rendering:auto;shape-rendering:auto;text-rendering:auto;enable-background:accumulate"
     d="m 277.68744,107.06063 c -2.56523,-0.0374 -5.04431,0.9181 -6.91209,2.6639 l -30.84088,28.03961 V 118.2571 c 0.0782,-5.52339 -4.45559,-10.0194 -10.01978,-9.93598 -5.44742,0.0816 -9.79833,4.52852 -9.72164,9.93598 v 35.06674 35.06675 c -0.0799,5.46704 4.36261,9.94105 9.87072,9.94105 5.5081,0 9.95071,-4.47401 9.8707,-9.94105 V 166.6177 l 33.65043,29.15469 c 4.0958,3.6626 10.42028,3.2858 14.04523,-0.83692 3.62494,-4.12273 3.1455,-10.39357 -1.0642,-13.92666 l -33.26485,-28.82044 30.81002,-28.01154 c 6.72365,-5.94369 2.57872,-16.98803 -6.42366,-17.1162 z m -203.98719,1.26049 c -0.3501,-0.004 -0.7002,0.0104 -1.04877,0.0433 -5.64429,0.22286 -11.24534,2.22672 -15.73915,6.23103 -4.77232,4.25244 -7.93001,10.94748 -7.93001,18.27207 v 40.57823 c 0,7.86795 3.24647,14.74833 7.90429,18.93802 4.65783,4.18967 10.05068,5.94269 15.23793,5.94269 h 28.30888 c 5.50607,0.0774 10.01214,-4.33204 10.01214,-9.79817 0,-5.46611 -4.50607,-9.87547 -10.01214,-9.79817 H 72.12454 c -0.0761,0 -1.3194,-0.27168 -1.98185,-0.86753 -0.66246,-0.59589 -1.41893,-1.25865 -1.41893,-4.41684 v -10.33654 h 27.86165 c 5.9305,-0.18308 10.61375,-0.14911 14.52589,-1.07422 3.80528,-0.89988 6.89476,-2.7315 8.80655,-4.80725 3.15719,-3.70103 3.83468,-6.51148 3.87374,-10.76778 0.0465,-3.4852 0.1645,-4.96094 0.1645,-7.61654 0.0159,-0.24122 0.023,-0.48293 0.0207,-0.72466 -3e-5,-0.008 2e-5,-0.0171 0,-0.0254 v -5.89934 c 0,-6.81792 -2.89685,-13.3307 -7.67039,-17.58311 -4.55083,-4.05406 -10.46794,-6.07241 -16.53604,-6.254 -0.29575,-0.0251 -0.59252,-0.0372 -0.88938,-0.0356 z m 76.85538,0 c -6.32181,0 -9.99039,3.50945 -12.35896,6.5551 -2.20781,2.83892 -3.815,5.73906 -4.0254,10.07884 -0.0293,0.3164 -0.0429,0.63402 -0.0411,0.95174 v 15.40661 c -0.004,0.44872 0.024,0.89718 0.0823,1.34217 0.1351,4.12947 0.98867,7.83324 2.91237,10.94384 2.10705,3.40705 5.23257,5.3186 6.33372,5.98351 0.98025,0.6352 2.06649,1.09224 3.20799,1.34981 3.96615,1.70941 8.15339,2.17652 12.3821,2.17652 h 18.1503 4.82738 c 5.83276,0 5.30551,4.2322 5.30551,7.93041 0,5.16842 -1.03227,7.69054 -4.89422,7.69054 h -38.30047 c -5.50601,-0.0773 -10.01208,4.33205 -10.01208,9.79816 0,5.46612 4.50607,9.87549 10.01208,9.79818 h 41.17942 c 3.76137,0 7.27348,-0.69121 11.52614,-2.78635 9.20427,-5.27503 10.14901,-11.43052 10.21772,-23.0997 0.0454,-7.43788 0.0399,-14.72101 -2.91752,-19.8056 -2.09601,-3.35178 -5.74896,-6.02773 -9.54427,-7.36394 -3.5983,-1.26684 -7.40993,-1.69744 -11.85771,-1.74021 -0.23791,-0.0145 -0.47624,-0.0206 -0.7146,-0.0178 h -4.82738 -18.1503 c -4.21307,0 -5.16325,-0.9484 -5.177,-3.17165 v -10.69889 c 0,-1.01798 1.05525,-1.72488 1.79164,-1.72488 h 35.2981 c 5.50604,0.0773 10.00952,-4.33207 10.00952,-9.79818 0,-5.46611 -4.50348,-9.87548 -10.00952,-9.79819 h -39.87102 c -0.0575,9.2e-4 -0.11476,0.003 -0.17223,0.005 -0.12083,-0.004 -0.2416,-0.005 -0.36242,-0.005 z m 165.44768,0 c -5.50607,-0.0772 -10.0121,4.33208 -10.0121,9.79819 0,5.46611 4.50603,9.87546 10.0121,9.79818 h 28.30889 c 0.0759,0 1.31942,0.27168 1.98186,0.86754 0.66244,0.59587 1.41892,1.25862 1.41892,4.41682 v 10.33657 h -27.86164 c -5.93048,0.18306 -10.61377,0.1491 -14.52592,1.07423 -3.80526,0.89984 -6.89219,2.73147 -8.80396,4.80724 -3.1572,3.70102 -3.83724,6.51406 -3.87631,10.77031 -0.0465,3.48522 -0.1645,4.95843 -0.1645,7.61402 -0.0158,0.24121 -0.0228,0.48292 -0.0205,0.72465 3e-5,0.008 -10e-6,0.0171 0,0.0253 v 5.89929 c 0,6.81799 2.89681,13.33075 7.67034,17.58317 4.55085,4.05402 10.46797,6.07235 16.53603,6.25395 0.2958,0.0253 0.59257,0.0372 0.88943,0.0356 h 25.18062 c 0.35011,0.004 0.7002,-0.0104 1.04876,-0.0432 5.64429,-0.22285 11.24536,-2.22673 15.73918,-6.23103 4.7723,-4.25245 7.93,-10.94747 7.93,-18.27205 v -40.57819 c 0,-7.86797 -3.24647,-14.74833 -7.90431,-18.93803 -4.65781,-4.18969 -10.05069,-5.94271 -15.23792,-5.94271 z M 73.70025,127.91749 h 25.18062 c 2.21,0 3.54712,0.6622 4.23874,1.27833 0.69165,0.61614 1.11559,1.14008 1.11559,2.99815 v 5.92484 0.008 0.0178 c 0.0104,4.28017 -0.63884,4.57159 -0.46524,4.41685 0.17361,-0.15474 -1.53927,0.95176 -7.18455,0.95176 H 68.72376 v -10.64561 c 0,-2.2935 0.57243,-2.97198 1.37779,-3.68962 0.80536,-0.71764 2.20909,-1.26048 3.5987,-1.26048 z m 238.70692,35.21729 h 35.30581 v 10.64531 c 0,2.2935 -0.57242,2.97201 -1.37779,3.6896 -0.80536,0.71765 -2.20909,1.26052 -3.59871,1.26052 h -25.1806 c -2.20999,0 -3.54712,-0.66222 -4.23876,-1.27838 -0.49664,-0.4424 -0.84746,-0.85456 -1.0102,-1.72998 v -12.58196 c 0.0364,-7.6e-4 0.0624,-0.005 0.10028,-0.005 z"
     id="path942"
     inkscape:connector-curvature="0" />
  <g
     id="g974"
     style="fill:#000000"
     transform="translate(-571.36719,-34.904664)">
    <path
       sodipodi:nodetypes="ccsccsccccccccccccscccsc"
       d="m 607.2183,359.53936 v -84.77954 h 43.01336 c 7.97599,0 14.07192,0.69397 18.2878,2.08191 4.21588,1.38792 7.61517,3.97102 10.19787,7.74929 2.5827,3.73971 3.87405,8.30831 3.87405,13.70582 0,4.70356 -0.9875,8.77098 -2.96251,12.20225 -4.12239,7.67323 -10.54022,8.5593 -17.20534,10.02852 8.37854,0.44782 15.75153,3.08129 18.9024,14.96559 0.0229,8.11922 2.394,24.04616 2.394,24.04616 h -24.77176 c -1.82643,-7.50828 -0.53324,-17.30174 -4.13534,-25.53203 -3.23695,-4.94932 -5.71663,-4.36465 -19.39371,-4.36465 h -2.27887 v 29.89668 z m 25.92195,-50.4282 h 10.88153 c 1.17741,0 3.45627,-0.38554 6.83657,-1.15663 1.70914,-0.34698 3.09544,-1.23372 4.15891,-2.66021 2.53589,-3.03035 1.28223,-6.3972 -0.91154,-8.20556 -1.70914,-1.46504 -4.91853,-2.19756 -9.62817,-2.19756 h -11.3373 z"
       id="path887"
       inkscape:connector-curvature="0"
       style="font-style:normal;font-variant:normal;font-weight:900;font-stretch:normal;font-size:medium;line-height:1.25;font-family:Arial;-inkscape-font-specification:'Arial Heavy';letter-spacing:0px;word-spacing:0px;fill:#000000;fill-opacity:1;stroke:none;stroke-width:2.93884516" />
    <path
       d="m 688.31268,317.20741 q 0,-20.76115 11.36669,-32.32725 11.36669,-11.5661 31.65622,-11.5661 20.80105,0 32.05404,11.39262 11.25303,11.33476 11.25303,31.80678 0,14.86244 -4.94451,24.40445 -4.88769,9.48422 -14.20836,14.80461 -9.26384,5.2626 -23.1312,5.2626 -14.09469,0 -23.35853,-4.56861 -9.20702,-4.56862 -14.9472,-14.45762 -5.74018,-9.88904 -5.74018,-24.75148 z m 25.74555,0.11578 q 0,12.83838 4.66033,18.44793 4.71718,5.60956 12.78753,5.60956 8.29767,0 12.84434,-5.49388 4.54667,-5.4939 4.54667,-19.72021 0,-11.97092 -4.77398,-17.46482 -4.71717,-5.55173 -12.84437,-5.55173 -7.78617,0 -12.50335,5.60956 -4.71717,5.60955 -4.71717,18.56359 z"
       id="path889"
       inkscape:connector-curvature="0"
       style="font-style:normal;font-variant:normal;font-weight:900;font-stretch:normal;font-size:medium;line-height:1.25;font-family:Arial;-inkscape-font-specification:'Arial Heavy';letter-spacing:0px;word-spacing:0px;fill:#000000;fill-opacity:1;stroke:none;stroke-width:2.93528581" />
    <path
       inkscape:connector-curvature="0"
       id="path891"
       d="m 820.82318,273.31414 c -13.2844,0 -23.56553,3.77746 -30.8457,11.33399 -7.24263,7.51796 -10.86523,18.29458 -10.86523,32.32812 0,10.52515 2.06543,19.16131 6.19336,25.90821 4.12793,6.74689 9.02489,11.46922 14.6914,14.16796 5.70403,2.66022 13.04093,3.99024 22.00977,3.99024 7.39275,0 13.47045,-1.09932 18.23633,-3.29688 4.8034,-2.19755 8.81958,-5.45542 12.04687,-9.77343 3.22727,-4.31802 5.59073,-9.6963 7.0918,-16.13477 0.65691,-3.34333 0.70312,-6.93945 0.70312,-6.93945 h -23.04883 c -1.1258,5.35895 -2.94665,9.4473 -5.46093,12.26172 -2.47677,2.81441 -6.15475,4.2207 -11.03321,4.2207 -5.02856,0 -8.93007,-1.73525 -11.70703,-5.20508 -2.77697,-3.50837 -4.16601,-9.96594 -4.16601,-19.37305 0,-7.59506 1.16357,-13.16593 3.49023,-16.71289 3.07717,-4.78064 7.50412,-7.17187 13.2832,-7.17187 2.55182,0 4.85989,0.5416 6.92383,1.62109 2.06397,1.07952 3.81032,2.62022 5.23633,4.625 0.86311,1.19517 1.6885,3.08488 2.47656,5.66797 h 23.04883 c 0,0 -0.0643,-1.86582 -0.5332,-5.14648 -2.88956,-8.94446 -7.31843,-15.57652 -13.28516,-19.89454 -5.92921,-4.318 -14.09148,-6.47656 -24.48633,-6.47656 z"
       style="font-style:normal;font-variant:normal;font-weight:900;font-stretch:normal;font-size:medium;line-height:1.25;font-family:Arial;-inkscape-font-specification:'Arial Heavy';letter-spacing:0px;word-spacing:0px;fill:#000000;fill-opacity:1;stroke:none;stroke-width:2.92121553" />
    <path
       inkscape:connector-curvature="0"
       id="path903"
       d="m 866.46576,274.75946 v 84.77929 h 24.02539 v -20.70312 l 10.27149,-11.72266 21.7207,32.42578 h 29.59375 l -34.92578,-50.45703 2.14062,-2.3418 28.32032,-31.98046 h -31.92774 l -25.19336,28.13867 v -28.13867 z"
       style="font-style:normal;font-variant:normal;font-weight:900;font-stretch:normal;font-size:medium;line-height:1.25;font-family:Arial;-inkscape-font-specification:'Arial Heavy';letter-spacing:0px;word-spacing:0px;fill:#000000;fill-opacity:1;stroke:none;stroke-width:2.83556843" />
  </g>
  <path
     style="color:#000000;font-style:normal;font-variant:normal;font-weight:normal;font-stretch:normal;font-size:medium;line-height:normal;font-family:sans-serif;font-variant-ligatures:normal;font-variant-position:normal;font-variant-caps:normal;font-variant-numeric:normal;font-variant-alternates:normal;font-feature-settings:normal;text-indent:0;text-align:start;text-decoration:none;text-decoration-line:none;text-decoration-style:solid;text-decoration-color:#000000;letter-spacing:normal;word-spacing:normal;text-transform:none;writing-mode:lr-tb;direction:ltr;text-orientation:mixed;dominant-baseline:auto;baseline-shift:baseline;text-anchor:start;white-space:normal;shape-padding:0;clip-rule:nonzero;display:inline;overflow:visible;visibility:visible;opacity:1;isolation:auto;mix-blend-mode:normal;color-interpolation:sRGB;color-interpolation-filters:linearRGB;solid-color:#000000;solid-opacity:1;vector-effect:none;fill:#000000;fill-opacity:1;fill-rule:nonzero;stroke:none;stroke-width:11.65421295;stroke-linecap:butt;stroke-linejoin:miter;stroke-miterlimit:4;stroke-dasharray:none;stroke-dashoffset:0;stroke-opacity:1;color-rendering:auto;image-rendering:auto;shape-rendering:auto;text-rendering:auto;enable-background:accumulate"
     d="M 98.94336,0 C 44.05302,0 0,46.746224 0,104.21094 v 203.94531 c 0,57.46471 44.05302,104.21094 98.94336,104.21094 h 149.75586 v -11.6543 H 98.94336 c -48.28158,0 -87.28907,-41.01183 -87.28907,-92.55664 V 104.21094 c 0,-51.544823 39.00749,-92.556643 87.28907,-92.556643 h 216.02148 c 48.28158,0 87.28906,41.01182 87.28906,92.556643 v 203.94531 c 0,12.6028 -2.36257,24.55907 -6.59179,35.45703 h 12.25976 c 3.80611,-11.088 5.98633,-22.99286 5.98633,-35.45703 V 104.21094 C 413.9082,46.746224 369.85518,0 314.96484,0 Z"
     id="rect921"
     inkscape:connector-curvature="0" />
</svg>
