<?xml version="1.0" encoding="utf-8"?>
<!-- Generator: Adobe Illustrator 24.1.3, SVG Export Plug-In . SVG Version: 6.00 Build 0)  -->
<svg version="1.1" id="Warstwa_1" xmlns="http://www.w3.org/2000/svg" xmlns:xlink="http://www.w3.org/1999/xlink" x="0px" y="0px"
	 viewBox="0 0 512 187.6" style="enable-background:new 0 0 512 187.6;" xml:space="preserve">
<style type="text/css">
	.st0{fill:#01BBD6;}
	.st1{fill:#0F265C;}
</style>
<rect class="st0" width="512" height="187.6"/>
<g>
	<g>
		<g>
			<g>
				<g>
					<g>
						<path class="st1" d="M66.4,122.7H55.9c-0.8,0-1.5-0.7-1.5-1.5V64.3c0-0.8,0.7-1.5,1.5-1.5H109c0.8,0,1.5,0.7,1.5,1.5V74
							c0,0.8-0.7,1.5-1.5,1.5H68.7c-0.4,0-0.7,0.3-0.7,0.7v45C67.9,122,67.2,122.7,66.4,122.7z"/>
					</g>
					<path class="st1" d="M77.6,104.4V87.2c0-1,0.8-1.8,1.8-1.8h17.2c1.4,0,2.1,1.7,1.1,2.7l-17.4,17.4
						C79.3,106.5,77.6,105.8,77.6,104.4z"/>
					<g>
						<g>
							<g>
								<g>
									<path class="st1" d="M145.7,124.2c-18.2,0-33.6-12.6-33.6-31.4s15.4-31.4,33.6-31.4s33.6,12.6,33.6,31.4
										S163.9,124.2,145.7,124.2z M145.7,112.7c11.3,0,20-7.5,20-19.8S157,73,145.7,73c-11.3,0-20,7.5-20,19.8
										S134.4,112.7,145.7,112.7z"/>
									<path class="st1" d="M200.8,64.4v20.5h17.4l14.6-21.4c0.3-0.4,0.8-0.7,1.3-0.7h11.7c1.3,0,2.1,1.5,1.3,2.5l-17.4,25.2
										l19,29.7c0.7,1.1-0.1,2.5-1.4,2.5h-12.2c-0.6,0-1.1-0.3-1.4-0.8l-15.2-24.7h-17.8v23.8c0,0.9-0.7,1.6-1.6,1.6H189
										c-0.9,0-1.6-0.7-1.6-1.6V64.5c0-0.9,0.7-1.6,1.6-1.6h10.2C200.1,62.8,200.8,63.6,200.8,64.4z"/>
									<path class="st1" d="M267.8,62.8c0.9,0,1.6,0.7,1.6,1.6v29c0,11.7,5.3,18.8,17.1,18.8c11.8,0,17.1-7.1,17.1-18.8v-29
										c0-0.9,0.7-1.6,1.6-1.6h10.3c0.9,0,1.6,0.7,1.6,1.6v28.9c0,19.8-11.9,30.9-30.7,30.9c-18.7,0-30.7-11.1-30.7-30.9V64.4
										c0-0.9,0.7-1.6,1.6-1.6C257.5,62.8,267.8,62.8,267.8,62.8z"/>
									<path class="st1" d="M378.6,79c-0.4,0.7-1.3,0.9-2,0.4c-6.7-4.3-13.5-6-22.5-6c-11.7,0-14.5,3-14.5,6.4
										c0,3.5,3.1,4.3,7.8,4.9l18,2.1c12.8,1.5,20.7,6.9,20.7,18c0,13.4-13.1,19.5-31.1,19.5c-11.8,0-20.7-2.4-29.9-8.8
										c-0.6-0.4-0.8-1.3-0.4-2l4.9-8c0.4-0.7,1.4-0.9,2.1-0.4c7.8,5.1,15.5,7.5,24.8,7.5c9.5,0,16.5-2.4,16.5-7.5
										c0-3.3-1.7-4.9-6.8-5.4L346,97.3c-12.2-1.4-19.7-6.2-19.7-17.3c0-12.7,12.6-18.5,27.8-18.5c10.7,0,20.1,1.8,29.1,8.1
										c0.6,0.4,0.8,1.3,0.4,2L378.6,79z"/>
								</g>
							</g>
						</g>
						<g>
							<path class="st1" d="M414.7,68.6v21h-6.9v-21h-10.5v-5.7h27.9v5.7H414.7z"/>
							<path class="st1" d="M448.6,89.6h-7.1l-13.1-26.7h7.7l5.9,12.8c1,2.2,2.1,4.4,3,6.6c1-2.2,2-4.4,3-6.6l5.8-12.8h7.7
								L448.6,89.6z"/>
						</g>
					</g>
				</g>
			</g>
		</g>
	</g>
</g>
</svg>
