<svg xmlns="http://www.w3.org/2000/svg" viewBox="0 0 283.46 283.46"><defs><style>.cls-1{fill:#c36;}.cls-2{fill:#fff;}.cls-3{fill:#ff2c23;}.cls-4{fill:#fff000;}.cls-5{fill:#25cce0;}.cls-6{fill:#f60;}</style></defs><g id="Layer_2" data-name="Layer 2"><g id="ZPR_Media_Group" data-name="ZPR Media Group"><g id="polotv"><rect class="cls-1" width="283.46" height="283.46"/><g id="logo"><circle class="cls-2" cx="142" cy="117" r="47"/><path class="cls-3" d="M141.87,74.22A42.08,42.08,0,1,0,184,116.3a42.08,42.08,0,0,0-42.08-42.08m0,10.45a31.65,31.65,0,1,1-22.36,9.27,31.38,31.38,0,0,1,22.36-9.27"/><path class="cls-4" d="M141.87,63.77a52.38,52.38,0,1,0,20.45,4.13,52.22,52.22,0,0,0-20.45-4.13m0,10.45A42.08,42.08,0,1,1,99.79,116.3a42.08,42.08,0,0,1,42.08-42.08"/><path class="cls-5" d="M141.87,53.26a63,63,0,1,0,24.58,5,62.72,62.72,0,0,0-24.58-5m0,10.63a52.53,52.53,0,1,1-52.53,52.53,52.53,52.53,0,0,1,52.53-52.53"/><path class="cls-6" d="M141.87,42.52a73.56,73.56,0,1,0,28.72,5.8,73.29,73.29,0,0,0-28.72-5.8m0,10.62A63.16,63.16,0,1,1,78.72,116.3a63.15,63.15,0,0,1,63.15-63.16"/><path class="cls-6" d="M78.72,200.58H68.09V116.41H78.72v84.17Z"/><path class="cls-5" d="M89.34,194.44H78.71v-78H89.34v78Z"/><path class="cls-4" d="M100,188.54H89.34V116.42H100Z"/><path class="cls-3" d="M110.24,182.94H100V116.42h10.28Z"/><path class="cls-2" d="M192.7,225.78V214.63a1.85,1.85,0,1,1,3.7,0v9.81a1.44,1.44,0,0,0,.32.91c2.53,3.35,4,5.12,6.12,7.63a1.38,1.38,0,0,0,1.09.5l.23,0a8.6,8.6,0,0,0,7.51-8.54V214.46a1.85,1.85,0,1,1,3.69,0l0,10.47c0,6.86-5.48,12.07-12.84,12.31a1.55,1.55,0,0,1-1.17-.46c-2.81-3.23-4.26-5-6.42-7.65l-2-2.41a1.5,1.5,0,0,1-.32-.94"/><path class="cls-2" d="M80.15,212.76c-6.94,0-12.33,6.64-12.33,12.35V239a1.91,1.91,0,1,0,3.81,0l0-5a12.33,12.33,0,1,0,8.54-21.22Zm0,3.72a8.61,8.61,0,1,1-8.61,8.61c0-3.88,4-8.61,8.61-8.61Z"/><path class="cls-2" d="M107.05,212.64A12.33,12.33,0,1,0,119.38,225,12.34,12.34,0,0,0,107.05,212.64Zm0,3.72A8.61,8.61,0,1,1,98.44,225,8.61,8.61,0,0,1,107.05,216.36Z"/><path class="cls-2" d="M134.27,237.15a12.33,12.33,0,0,1-12.33-12.31l0-14.18a1.85,1.85,0,1,1,3.69,0v14.2a8.6,8.6,0,0,0,8.61,8.57,1.84,1.84,0,0,1,1.84,1.83,1.86,1.86,0,0,1-1.84,1.88"/><path class="cls-2" d="M147,212.64A12.33,12.33,0,1,0,159.37,225,12.34,12.34,0,0,0,147,212.64Zm0,3.72a8.61,8.61,0,1,1-8.61,8.61A8.62,8.62,0,0,1,147,216.36Z"/><path class="cls-2" d="M180.11,215l8.44,0a1.85,1.85,0,1,1,0,3.7h-8.44v6.26a8.6,8.6,0,0,0,8.61,8.57,1.86,1.86,0,0,1,0,3.71,12.33,12.33,0,0,1-12.33-12.31l0-14.17a1.85,1.85,0,1,1,3.69,0V215Z"/></g></g></g></g></svg>