<?xml version="1.0" encoding="utf-8"?>
<!-- Generator: Adobe Illustrator 23.1.0, SVG Export Plug-In . SVG Version: 6.00 Build 0)  -->
<!DOCTYPE svg PUBLIC "-//W3C//DTD SVG 1.1//EN" "http://www.w3.org/Graphics/SVG/1.1/DTD/svg11.dtd" [
	<!ENTITY ns_extend "http://ns.adobe.com/Extensibility/1.0/">
	<!ENTITY ns_ai "http://ns.adobe.com/AdobeIllustrator/10.0/">
	<!ENTITY ns_graphs "http://ns.adobe.com/Graphs/1.0/">
	<!ENTITY ns_vars "http://ns.adobe.com/Variables/1.0/">
	<!ENTITY ns_imrep "http://ns.adobe.com/ImageReplacement/1.0/">
	<!ENTITY ns_sfw "http://ns.adobe.com/SaveForWeb/1.0/">
	<!ENTITY ns_custom "http://ns.adobe.com/GenericCustomNamespace/1.0/">
	<!ENTITY ns_adobe_xpath "http://ns.adobe.com/XPath/1.0/">
]>
<svg version="1.1" id="Слой_1" xmlns:x="&ns_extend;" xmlns:i="&ns_ai;" xmlns:graph="&ns_graphs;"
	 xmlns="http://www.w3.org/2000/svg" xmlns:xlink="http://www.w3.org/1999/xlink" x="0px" y="0px" viewBox="0 0 512 683.3"
	 style="enable-background:new 0 0 512 683.3;" xml:space="preserve">
<style type="text/css">
	.st0{fill:url(#SVGID_1_);}
	.st1{fill:url(#SVGID_2_);}
	.st2{fill:url(#SVGID_3_);}
	.st3{fill:url(#SVGID_4_);}
	.st4{fill:#EB5D0B;}
	.st5{fill:#4EBFD9;}
	.st6{fill:#FFEB00;}
	.st7{fill:#E52821;}
	.st8{fill:url(#SVGID_5_);}
	.st9{fill:#662618;}
	.st10{fill:url(#SVGID_6_);}
	.st11{fill:url(#SVGID_7_);}
	.st12{fill:url(#SVGID_8_);}
</style>
<metadata>
	<sfw  xmlns="&ns_sfw;">
		<slices></slices>
		<sliceSourceBounds  bottomLeftOrigin="true" height="683.3" width="512" x="-227.9" y="-313.7"></sliceSourceBounds>
	</sfw>
</metadata>
<g>
	
		<linearGradient id="SVGID_1_" gradientUnits="userSpaceOnUse" x1="383.4487" y1="-94.5359" x2="383.4487" y2="502.8734" gradientTransform="matrix(0.6829 0 0 -0.6829 -5.8674 441.4317)">
		<stop  offset="0" style="stop-color:#662618"/>
		<stop  offset="7.000000e-02" style="stop-color:#7F2B17"/>
		<stop  offset="0.19" style="stop-color:#A43316"/>
		<stop  offset="0.31" style="stop-color:#C13A14"/>
		<stop  offset="0.43" style="stop-color:#D53E14"/>
		<stop  offset="0.55" style="stop-color:#E24113"/>
		<stop  offset="0.66" style="stop-color:#E64213"/>
	</linearGradient>
	<path class="st0" d="M433.8,89.9c-1.8-2.5-3.6-4.8-5.4-7.2c-43.4-55.7-111.5-86.5-182-82.3C94.5,7.7,8.1,146.4,1.7,248.9L0,547.1
		l77.4,3.2l28.9-2.1v-18.8l29.7-1.4v-18.9l30.4-1.3V492l8.5,1.5c7.8,1.7,15.7,2.9,23.6,3.7c17,2.5,34.8,4.8,54.4,7.3
		c132.7,17,245.7-94.1,257.1-209.9C524.1,181.7,459,120.9,433.8,89.9z M330.7,244c-4.5,54.2-48.2,105.4-110.4,105.4
		c-52.7,0-95.9-40.2-93.4-106.3c2.5-43.8,39.1-103.1,104.3-106.1C289.1,134.3,335.6,180.4,330.7,244z"/>
	
		<linearGradient id="SVGID_2_" gradientUnits="userSpaceOnUse" x1="202.9986" y1="-59.5198" x2="202.9986" y2="-181.9601" gradientTransform="matrix(0.6829 2.731707e-02 0 -0.6829 -6.3728 439.2019)">
		<stop  offset="0" style="stop-color:#4D4000"/>
		<stop  offset="8.000000e-02" style="stop-color:#6A5C00"/>
		<stop  offset="0.23" style="stop-color:#978700"/>
		<stop  offset="0.37" style="stop-color:#BDAB00"/>
		<stop  offset="0.52" style="stop-color:#DAC700"/>
		<stop  offset="0.66" style="stop-color:#EEDB00"/>
		<stop  offset="0.8" style="stop-color:#FBE700"/>
		<stop  offset="0.94" style="stop-color:#FFEB00"/>
	</linearGradient>
	<path class="st1" d="M166.6,507.9l-0.3-15.8l-68.5-11.3l0.2,19.4L166.6,507.9z"/>
	
		<linearGradient id="SVGID_3_" gradientUnits="userSpaceOnUse" x1="101.696" y1="-92.6092" x2="396.9201" y2="-92.6092" gradientTransform="matrix(0.6829 0 0 -0.6829 -5.8674 441.4317)">
		<stop  offset="0" style="stop-color:#4D4000"/>
		<stop  offset="0.27" style="stop-color:#4F4200"/>
		<stop  offset="0.41" style="stop-color:#574A00"/>
		<stop  offset="0.53" style="stop-color:#655700"/>
		<stop  offset="0.62" style="stop-color:#786900"/>
		<stop  offset="0.71" style="stop-color:#918100"/>
		<stop  offset="0.79" style="stop-color:#B09F00"/>
		<stop  offset="0.87" style="stop-color:#D3C100"/>
		<stop  offset="0.94" style="stop-color:#FCE800"/>
		<stop  offset="0.94" style="stop-color:#FFEB00"/>
	</linearGradient>
	<path class="st2" d="M65.1,502.2l71.1,7l30.4-1.3L98,500.2C98,500.2,65.1,502.2,65.1,502.2z"/>
	
		<linearGradient id="SVGID_4_" gradientUnits="userSpaceOnUse" x1="204.4573" y1="-54.2724" x2="224.4704" y2="-123.5102" gradientTransform="matrix(0.6829 0 0 -0.6829 -5.8674 441.4317)">
		<stop  offset="0" style="stop-color:#7A1D16"/>
		<stop  offset="0.96" style="stop-color:#C5191D"/>
	</linearGradient>
	<path class="st3" d="M174.5,493.4L98,480.8l32.3-2.6C130.2,478.1,174.5,493.4,174.5,493.4z"/>
	<path class="st4" d="M246.4,0.4C94.2,7.7,7.7,146.9,1.7,249.5c0,136.3,88.5,250.1,220.7,248.7c151.5-1.4,244.5-129.4,254.7-247.5
		C485.8,101.3,380.1-6,246.4,0.4z M330.7,244c-4.5,54.2-48.2,105.4-110.4,105.4c-52.7,0-95.9-40.2-93.4-106.3
		c2.5-43.8,39.1-103.1,104.3-106.1C289.1,134.3,335.6,180.4,330.7,244z"/>
	<path class="st5" d="M241.8,34.7C111.7,40.9,38,159.9,32.4,247.6c0,116.6,71.6,212.9,188.9,212.9c123.7,0,209.5-108.4,218.3-212.2
		C447,120.9,356.5,29.2,241.8,34.7z M330.7,244c-4.5,54.2-48.2,105.4-110.4,105.4c-52.7,0-95.9-40.2-93.4-106.3
		c2.5-43.8,39.1-103.1,104.3-106.1C289.1,134.3,335.6,180.4,330.7,244z"/>
	<path class="st6" d="M238.2,67.8C130.2,72.9,68.3,171.9,64,244.7c0,96.9,59.4,178.3,157,177.1c107.6-1.1,173.5-92,180.9-176.1
		C408.1,139.5,333,63.2,238.2,67.8z M330.7,244c-4.5,54.2-48.2,105.4-110.4,105.4c-52.7,0-95.9-40.2-93.4-106.3
		c2.5-43.8,39.1-103.1,104.3-106.1C289.1,134.3,335.6,180.4,330.7,244z"/>
	<path class="st7" d="M234.8,102.8C148.3,106.9,99,186,95.2,244.4c0,77.6,46,141,124.6,141c82.2,0,140.2-67.9,146.1-140.2
		C370.9,160.1,310.8,99.1,234.8,102.8z M330.7,244c-4.5,54.2-48.2,105.4-110.4,105.4c-52.7,0-95.9-40.2-93.4-106.3
		c2.5-43.8,39.1-103.1,104.3-106.1C289.1,134.3,335.6,180.4,330.7,244z M425,632.1v-37.5c-0.4-3.4,2.1-6.6,5.5-7
		c3.4-0.4,6.6,2.1,7,5.5c0.1,0.5,0.1,1,0,1.5v33c0,1.1,0.4,2.2,1.1,3.1c8.5,11.3,13.5,17,20.6,25.5c0.9,1.1,2.2,1.7,3.7,1.7h0.8
		c14.6-1.8,25.5-14.1,25.5-28.8v-35.1c0-3.4,2.8-6.2,6.2-6.2c3.4,0,6.2,2.8,6.2,6.2c0,0,0,0,0,0v35.2c-0.5,23.4-19.8,41.9-43.2,41.5
		c-1.5,0.1-2.9-0.5-3.9-1.6c-9.5-10.9-14.3-17-21.6-25.5l-6.6-8.5C425.4,634.2,425,633.1,425,632.1L425,632.1z M45.9,600.7
		c-15.5,1.2-27.8,13.5-28.9,29c0,16,13,29,29,29s29-13,29-29C75,613.7,62,600.7,45.9,600.7C46,600.7,46,600.7,45.9,600.7z
		 M10.9,683.2c-3.6,0.1-6.6-2.7-6.8-6.3c0-0.1,0-0.3,0-0.4v-46.7c1.1-22.4,19.1-40.4,41.5-41.5c22.9,0,41.5,18.6,41.5,41.5
		c0,22.9-18.6,41.5-41.5,41.5c0,0,0,0,0,0c-10.7,0-21-4.1-28.7-11.6v17c0.1,3.6-2.8,6.6-6.4,6.7c0,0-0.1,0-0.1,0L10.9,683.2z
		 M136.5,600.3c-16-0.1-29.1,12.8-29.2,28.9c-0.1,16,12.8,29.1,28.9,29.2c16,0.1,29.1-12.8,29.2-28.9c0-0.1,0-0.1,0-0.2
		c0-16-13-29-29-29H136.5z M136.5,670.9c-22.9,0-41.5-18.7-41.4-41.6c0-22.9,18.7-41.5,41.6-41.4c22.9,0,41.4,18.6,41.4,41.5
		C178.1,652.3,159.4,670.9,136.5,670.9z M228.2,670.3c-22.9,0-41.5-18.5-41.5-41.4v-47.8c0-3.4,2.8-6.2,6.2-6.2
		c3.4,0,6.2,2.8,6.2,6.2c0,0,0,0,0,0v47.8c0,16,13,28.9,28.9,28.9c3.4,0,6.2,2.7,6.2,6.1c0,3.5-2.7,6.3-6.2,6.4c0,0,0,0,0,0
		L228.2,670.3z M271.2,600.3c-16,0-29.1,12.9-29.1,28.9c0,16,12.9,29.1,28.9,29.1c16,0,29.1-12.9,29.1-28.9c0,0,0-0.1,0-0.1
		C300.2,613.3,287.2,600.4,271.2,600.3z M271.2,670.9c-22.9,0-41.5-18.6-41.5-41.5c0-22.9,18.6-41.5,41.5-41.5s41.5,18.6,41.5,41.5
		l0,0C312.7,652.3,294.2,670.9,271.2,670.9z M382.5,595.7H411c3.4-0.4,6.6,2.1,7,5.5c0.4,3.4-2.1,6.6-5.5,7c-0.5,0.1-1,0.1-1.5,0
		h-28.4v21.1c0.1,15.9,13.1,28.7,29,28.7c3.4,0.4,5.9,3.5,5.5,7c-0.3,2.9-2.6,5.2-5.5,5.5c-22.9,0-41.5-18.5-41.5-41.4v-47.7
		c0-3.4,2.8-6.2,6.2-6.2c3.4,0,6.2,2.8,6.2,6.2c0,0,0,0,0,0L382.5,595.7L382.5,595.7z"/>
	<path class="st4" d="M0,547.1L1.7,249h30.7l-0.1,296.3C32.3,545.3,0,547.1,0,547.1z"/>
	
		<linearGradient id="SVGID_5_" gradientUnits="userSpaceOnUse" x1="110.273" y1="-125.3635" x2="110.273" y2="-187.3917" gradientTransform="matrix(0.6829 0 0 -0.6829 -5.8674 441.4317)">
		<stop  offset="0" style="stop-color:#662618"/>
		<stop  offset="0.89" style="stop-color:#E64213"/>
	</linearGradient>
	<path class="st8" d="M106.5,548.2v-18.8l-74.2-5.1v21L106.5,548.2z"/>
	<path class="st9" d="M0,547.1l77.4,3.2l28.9-2.1l-73.9-2.9C32.3,545.3,0,547.1,0,547.1z"/>
	
		<linearGradient id="SVGID_6_" gradientUnits="userSpaceOnUse" x1="156.0172" y1="-92.6204" x2="156.0172" y2="-156.5132" gradientTransform="matrix(0.6829 1.365854e-02 0 -0.6829 -5.8674 440.3339)">
		<stop  offset="3.000000e-02" style="stop-color:#033138"/>
		<stop  offset="0.95" style="stop-color:#4EBFD9"/>
	</linearGradient>
	<path class="st10" d="M136.3,528.1v-18.9l-71.1-7l0.1,20.5C65.2,522.7,136.3,528.1,136.3,528.1z"/>
	
		<linearGradient id="SVGID_7_" gradientUnits="userSpaceOnUse" x1="62.167" y1="-123.934" x2="356.8939" y2="-123.934" gradientTransform="matrix(0.6829 0 0 -0.6829 -5.8674 441.4317)">
		<stop  offset="3.000000e-02" style="stop-color:#033138"/>
		<stop  offset="0.15" style="stop-color:#06363E"/>
		<stop  offset="0.3" style="stop-color:#0E454F"/>
		<stop  offset="0.47" style="stop-color:#1B5E6B"/>
		<stop  offset="0.66" style="stop-color:#2D8092"/>
		<stop  offset="0.87" style="stop-color:#44ACC3"/>
		<stop  offset="0.95" style="stop-color:#4EBFD9"/>
	</linearGradient>
	<path class="st11" d="M32.3,524.3l74.2,5.1l29.7-1.4l-71-5.3C65.3,522.7,32.3,524.3,32.3,524.3z"/>
	<path class="st5" d="M32.3,524.3L32.4,249l31.6-0.3l1.2,273.9C65.2,522.7,32.3,524.3,32.3,524.3z"/>
	<path class="st6" d="M65.1,502.2l-1-253.4h31.2L98,500.2L65.1,502.2z"/>
	<path class="st7" d="M97.9,480.8l-2.6-232h32.1l2.9,229.4C130.2,478.1,97.9,480.8,97.9,480.8z"/>
	
		<linearGradient id="SVGID_8_" gradientUnits="userSpaceOnUse" x1="195.0489" y1="290.3335" x2="471.7516" y2="290.3335" gradientTransform="matrix(0.6829 0 0 -0.6829 -5.8674 441.4317)">
		<stop  offset="4.000000e-02" style="stop-color:#C5191D"/>
		<stop  offset="1" style="stop-color:#7A1D16"/>
	</linearGradient>
	<path class="st12" d="M190.8,273.1c2.4-39.6,35.9-93.4,95.5-95.8c10.1-0.5,20.3,0.7,30,3.6c-18-29.2-50.7-46-84.9-43.8
		c-65.2,3.1-101.9,62.3-104.3,106.1c-2.8,66,40.4,106.3,93.4,106.3C199.1,330.1,188.1,301.8,190.8,273.1z"/>
</g>
</svg>
