<?xml version="1.0" encoding="utf-8"?>
<!-- Generator: Adobe Illustrator 23.1.0, SVG Export Plug-In . SVG Version: 6.00 Build 0)  -->
<!DOCTYPE svg PUBLIC "-//W3C//DTD SVG 1.1//EN" "http://www.w3.org/Graphics/SVG/1.1/DTD/svg11.dtd" [
	<!ENTITY ns_extend "http://ns.adobe.com/Extensibility/1.0/">
	<!ENTITY ns_ai "http://ns.adobe.com/AdobeIllustrator/10.0/">
	<!ENTITY ns_graphs "http://ns.adobe.com/Graphs/1.0/">
	<!ENTITY ns_vars "http://ns.adobe.com/Variables/1.0/">
	<!ENTITY ns_imrep "http://ns.adobe.com/ImageReplacement/1.0/">
	<!ENTITY ns_sfw "http://ns.adobe.com/SaveForWeb/1.0/">
	<!ENTITY ns_custom "http://ns.adobe.com/GenericCustomNamespace/1.0/">
	<!ENTITY ns_adobe_xpath "http://ns.adobe.com/XPath/1.0/">
]>
<svg version="1.1" id="Слой_1" xmlns:x="&ns_extend;" xmlns:i="&ns_ai;" xmlns:graph="&ns_graphs;"
	 xmlns="http://www.w3.org/2000/svg" xmlns:xlink="http://www.w3.org/1999/xlink" x="0px" y="0px" viewBox="0 0 512 873.8"
	 style="enable-background:new 0 0 512 873.8;" xml:space="preserve">
<style type="text/css">
	.st0{fill-rule:evenodd;clip-rule:evenodd;fill:#FDC600;}
	.st1{fill:#FDC600;}
	.st2{fill:#F70102;}
	.st3{fill:#FFFFFF;}
</style>
<metadata>
	<sfw  xmlns="&ns_sfw;">
		<slices></slices>
		<sliceSourceBounds  bottomLeftOrigin="true" height="873.8" width="512" x="41.5" y="-857.4"></sliceSourceBounds>
	</sfw>
</metadata>
<g>
	<g>
		<path class="st0" d="M301.8,292.7c-5.8,10.7-14.1,19.2-25,25.7c-10.9,6.4-22.8,9.7-35.7,9.7c-19.1,0-35.5-6.8-49-20.3
			c-13.6-13.6-20.3-29.9-20.3-49c0-19.1,6.8-35.6,20.3-49.3c13.6-13.8,29.9-20.7,49-20.7c12.9,0,24.8,3.4,35.7,10.3
			c10.9,6.9,19.2,15.4,25,25.7l54-30.7c-11.1-20-26.9-36.1-47.3-48.3c-20.5-12.2-42.9-18.3-67.4-18.3c-17.8,0-34.7,3.5-50.7,10.3
			c-16,6.9-29.9,16.2-41.7,28c-11.8,11.8-21.1,25.7-28,41.7c-6.9,16-10.3,33.1-10.3,51.4c0,18.2,3.5,35.3,10.3,51.3
			c6.9,16,16.2,29.9,28,41.7c11.8,11.8,25.7,21.1,41.7,28c16,6.9,32.9,10.3,50.7,10.3c24,0,46.4-6.2,67-18.7
			c20.7-12.4,36.6-28.4,47.7-48L301.8,292.7z"/>
		<path class="st0" d="M499.2,257.4c0,35.6-6.8,69.1-20.3,100.7c-13.6,31.6-31.9,59-55,82.3c-23.1,23.3-50.5,41.8-82,55.3
			c-31.6,13.6-65.1,20.3-100.7,20.3c-48,0-91.9-12.2-131.7-36.7c-39.8-24.4-70.8-56.5-93-96l54-29.3c16.4,29.3,40,53.1,70.7,71.4
			c30.7,18.2,64,27.3,100,27.3c26.7,0,52-5.1,76-15.3c24-10.2,44.8-24.1,62.3-41.7c17.6-17.6,31.6-38.2,42-62
			c10.4-23.8,15.7-49.2,15.7-76.4v1.3c0-27.1-5.2-52.6-15.7-76.4c-10.4-23.8-24.4-44.5-42-62c-17.6-17.6-38.3-31.5-62.3-41.7
			c-24-10.2-49.3-15.3-76-15.3c-36,0-69.3,9.1-100,27.3c-30.7,18.2-54.2,42-70.7,71.4l-54-29.3c22.2-39.6,53.2-71.6,93-96
			C149.2,12.2,193.1,0,241.1,0c35.6,0,69.1,6.8,100.7,20.3c31.6,13.6,58.9,32,82,55.3c23.1,23.3,41.5,50.8,55,82.3
			c13.6,31.6,20.3,65.1,20.3,100.7V257.4z"/>
		<polygon class="st1" points="16.3,700 16.3,562.1 88.6,562.1 88.6,587.9 43.9,587.9 43.9,617.1 82.5,617.1 82.5,642.8 43.9,642.8 
			43.9,674.3 88.6,674.3 88.6,700 		"/>
		<polygon class="st1" points="100,700 132.5,630.9 100,562.1 129,562.1 147.8,606.2 165.8,562.1 194.9,562.1 162.5,631.4 
			194.9,700 165.4,700 147.2,657.5 129.4,700 		"/>
		<polygon class="st1" points="232.1,700 232.1,587.9 202.7,587.9 202.7,562.1 289.1,562.1 289.1,587.9 259.7,587.9 259.7,700 		"/>
		<path class="st1" d="M331.9,656.2V700h-27.6V562.1h43.9c6,0,11.6,1.2,16.7,3.5c5.3,2.3,9.7,5.5,13.4,9.6c3.8,4,6.7,8.9,8.8,14.5
			c2.2,5.5,3.3,11.5,3.3,18v3.1c0,8.8-1.9,16.7-5.7,23.7c-3.8,6.9-8.8,12.2-15.1,16L390,700h-27.8l-17.8-43.8L331.9,656.2z
			 M331.9,630.5h13.2c5.1,0,9.4-1.7,12.7-5.1c3.4-3.4,5.1-8.9,5.1-16.4v-0.4c0-6.9-1.7-12-5.1-15.4c-3.3-3.6-7.5-5.3-12.7-5.3h-13.2
			V630.5z"/>
		<path class="st1" d="M471,700l-5.5-22.1h-34.4l-5.5,22.1h-28.1L437,562.1h22.2L499.1,700H471z M447.1,614.3l-9.7,38.8H459
			l-9.7-38.8l-1.1-4.2L447.1,614.3z"/>
	</g>
	<g>
		<path class="st2" d="M0,730.9v105.5c0,20.7,16.9,37.5,37.6,37.5c0,0,0,0,0,0h436.8c20.7,0,37.6-16.8,37.6-37.5V749H37.6
			C23,749,9.1,742.3,0,730.9"/>
		<path class="st3" d="M120.8,805.1c0.1,4-1.6,7.8-4.5,10.4c-3.1,2.6-7.1,4-11.1,3.9H78.6v-9.8h26.5c3.7,0,5.5-1.5,5.5-4.5v-6.3
			c0-3.2-1.8-4.8-5.5-4.8H69.2v43.9H59.1v-53.5h46c4.1-0.1,8.1,1.4,11.1,4.1c3,2.6,4.7,6.4,4.6,10.4L120.8,805.1z"/>
		<path class="st3" d="M185.7,823.5v-24.8c0-1.3-0.7-2.6-1.7-3.4c-1.1-0.9-2.4-1.4-3.8-1.5h-29.9c-1.4,0-2.8,0.5-3.8,1.5
			c-1.1,0.8-1.7,2.1-1.7,3.4v24.8c0,3.2,1.8,4.8,5.5,4.8h29.9C183.9,828.3,185.7,826.7,185.7,823.5 M195.8,823.4
			c0.1,4-1.6,7.8-4.6,10.4c-3,2.7-7,4.1-11,4h-29.8c-4.1,0.1-8-1.4-11.1-4c-3-2.6-4.7-6.4-4.6-10.4v-24.7c0-4,1.7-7.7,4.8-10.2
			c3-2.7,6.8-4.2,10.9-4.2h29.8c4,0,7.9,1.5,10.9,4.2c3,2.5,4.8,6.3,4.8,10.2L195.8,823.4z"/>
		<path class="st3" d="M256.7,837.8h-29.8c-4.1,0.1-8-1.4-11.1-4c-3-2.6-4.6-6.4-4.6-10.4v-39.2h10.1v39.3c0,3.2,1.8,4.8,5.5,4.8
			h29.8L256.7,837.8z"/>
		<path class="st3" d="M329.9,793.8h-44.7c-1.4,0-2.7,0.6-3.8,1.5c-1,0.8-1.7,2.1-1.7,3.4v2.7c0,3.2,1.8,4.8,5.5,4.8l29.9,0.1
			c4-0.1,7.9,1.3,11,3.9c3.1,2.6,4.8,6.5,4.7,10.5v2.8c0,4-1.7,7.7-4.8,10.2c-3,2.7-6.8,4.2-10.8,4.2h-44.7v-9.5h44.8
			c1.4,0,2.7-0.5,3.8-1.4c1.1-0.8,1.7-2.1,1.7-3.4v-2.8c0-3.2-1.8-4.8-5.5-4.8l-29.9-0.1c-4,0.1-8-1.3-11.1-4
			c-3-2.6-4.7-6.4-4.6-10.4v-2.7c0-3.9,1.7-7.7,4.8-10.2c3-2.7,6.9-4.2,10.9-4.2h44.7L329.9,793.8z"/>
		<path class="st3" d="M406.7,838h-10.8l-4.9-18.7h-24.5l2.3-9.8h19.6c-0.4-1.6-1.8-7.4-2.7-10.7c-0.9-3.2-2.7-4.9-5.4-4.9h-12.4
			c-2.8,0-4.6,1.6-5.5,4.9l-10,39.2h-10.8l10-39.2c2.5-9.6,7.8-14.5,15.7-14.5h13.6c8,0,13.2,4.8,15.7,14.5L406.7,838z"/>
		<polygon class="st3" points="462.5,793.8 440.1,793.8 440.1,837.8 430,837.8 430,793.8 408,793.8 408,784.2 462.5,784.2 		"/>
	</g>
</g>
</svg>
