<?xml version="1.0" encoding="iso-8859-1"?>
<!-- Generator: Adobe Illustrator 25.3.1, SVG Export Plug-In . SVG Version: 6.00 Build 0)  -->
<svg version="1.1" id="&#x428;&#x430;&#x440;_1" xmlns="http://www.w3.org/2000/svg" xmlns:xlink="http://www.w3.org/1999/xlink"
	 x="0px" y="0px" viewBox="0 0 313.761 434.557" style="enable-background:new 0 0 313.761 434.557;" xml:space="preserve">
<g>
	<g>
		<path style="fill:#0099FF;" d="M86.78,148.39c24.2,3.448,52.672-18.765,75.615-36.012c21.526-16.189,48.041-36.074,67.914-35.851
			c12.988,0.149,24.373,7.602,27.939,17.687c-0.347-3.851-2.185-15.304-3.504-20.783c-2.52-7.497-9.392-24.132-32.329-24.033
			c-23.668,0.099-50.121,20.591-71.22,36.093c-26.194,19.247-49.669,39.405-74.588,34.805c-13.372-2.476-19.161-8.655-21.074-14.159
			c0.254,3.498,2.012,14.542,3.442,20.566C62.183,133.897,69.012,145.858,86.78,148.39L86.78,148.39z"/>
		<path style="fill:#00BDFF;" d="M189.831,5.467C142.538-10.202,95.017,8.922,69.294,48.599c0,0,5.312,11.422,27.172-6.804
			C130.528,13.392,148.277,0.465,189.831,5.467L189.831,5.467z"/>
		<path style="fill:#00E0FF;" d="M136.102,36.837c-10.475,7.671-25.686,19.291-36.471,26.497
			c-12.747,8.525-30.564,20.541-39.201,4.674c-1.257,3.919-3.609,12.091-3.69,15.706c0.427,5.157,5.467,16.189,20.294,16.443
			c19.068,0.328,36.731-16.133,63.723-36.161c28.36-21.049,48.109-34.867,71.214-32.168c18.306,2.136,27.085,10.766,33.778,19.402
			c-5.801-11.125-17.514-24.633-32.657-34.353C196.32,6.1,169.916,12.074,136.102,36.837L136.102,36.837z"/>
		<path style="fill:#0073FF;" d="M123.708,193.144c47.292,15.669,94.813-3.454,120.536-43.132c0,0-5.312-11.422-27.172,6.804
			C183.01,185.219,165.261,198.146,123.708,193.144L123.708,193.144z"/>
		<path style="fill:#0073FF;" d="M177.437,161.774c10.475-7.67,25.686-19.291,36.47-26.497c12.747-8.525,30.564-20.541,39.201-4.674
			c1.257-3.919,3.609-12.091,3.69-15.706c-0.427-5.157-5.467-16.189-20.294-16.443c-19.068-0.328-36.731,16.133-63.723,36.161
			c-28.36,21.049-48.109,34.867-71.214,32.168c-18.306-2.136-27.085-10.766-33.778-19.402c5.801,11.125,17.514,24.633,32.657,34.353
			C117.218,192.512,143.622,186.537,177.437,161.774L177.437,161.774z"/>
	</g>
	<g>
		<g>
			<path style="fill:#0073FF;" d="M33.52,267.108c-11.638,0-17.307,5.669-18.65,17.008l-1.094-0.1l1.492-15.517H0v72.908h15.815
				v-16.909l-1.293-12.135l1.044-0.1c1.84,6.266,7.211,10.941,17.257,10.941c14.174,0,23.175-11.24,23.175-28.049
				C55.999,278.248,46.997,267.108,33.52,267.108z M28.646,309.927c-8.504,0-13.08-5.172-13.08-14.771
				c0-9.648,4.575-14.82,13.08-14.82c8.405,0,12.881,5.172,12.881,14.82C41.526,304.755,37.051,309.927,28.646,309.927z"/>
			<path style="fill:#0073FF;" d="M103.071,295.145c0-9.515-4.556-14.685-13.162-14.685c-8.605,0-13.162,5.169-13.162,14.685
				c0,9.621,4.556,14.679,13.162,14.679C98.514,309.824,103.071,304.766,103.071,295.145L103.071,295.145z M117.551,295.145
				c0,16.907-11.038,28.045-27.642,28.045c-16.604,0-27.642-11.137-27.642-28.045c0-16.907,11.038-28.045,27.642-28.045
				C106.513,267.1,117.551,278.238,117.551,295.145L117.551,295.145z"/>
			<path style="fill:#0073FF;" d="M151.978,307.599l1.319,13.162c-3.448,1.622-7.088,2.433-11.447,2.433
				c-10.326,0-15.997-6.785-15.997-17.724v-57.204h14.988v54.876c0,3.851,1.616,5.875,4.959,5.875
				C147.929,309.017,149.347,308.608,151.978,307.599L151.978,307.599z"/>
			<path style="fill:#0073FF;" d="M201.794,270.339l-1.319,13.063c-6.581-2.835-12.858-4.253-18.932-4.253
				c-5.671,0-7.999,1.114-7.999,3.845c0,1.925,1.214,2.835,4.959,3.646l11.849,2.736c9.924,2.328,13.973,8.197,13.973,16.604
				c0,11.236-8.407,17.211-22.38,17.211c-10.023,0-16.096-0.706-21.563-2.532l1.418-13.465c6.073,2.631,12.252,3.745,20.145,3.745
				c6.179,0,8.308-1.009,8.407-4.049c0-2.328-1.319-3.343-5.974-4.556L172.53,299.3c-9.008-2.334-12.957-7.089-12.957-15.7
				c0-10.326,8.401-16.499,22.479-16.499C189.035,267.101,195.82,268.215,201.794,270.339L201.794,270.339z"/>
			<path style="fill:#0073FF;" d="M251.298,268.5l0.796,8.206l-1.094,0.099c-2.437-5.769-6.664-9.698-16.81-9.698
				c-14.472,0-23.573,11.24-23.573,28.049c0,16.909,9.002,28.049,22.479,28.049c11.637,0,17.307-6.167,18.6-18.252l1.194,0.1
				l-1.79,16.71h15.516V268.5H251.298z M237.92,309.927c-8.405,0-12.831-5.172-12.831-14.771c0-9.648,4.426-14.82,12.831-14.82
				c8.554,0,13.08,5.172,13.08,14.82C250.999,304.755,246.474,309.927,237.92,309.927z"/>
			<path style="fill:#0073FF;" d="M313.761,320.769c-3.232,1.393-6.764,2.437-13.129,2.437c-10.643,0-17.406-6.067-17.406-17.655
				v-23.374h-8.106V268.5h8.106v-11.14l14.969-2.188V268.5h12.632v13.676h-12.632v19.346c0,5.769,1.591,7.51,6.764,7.51
				c2.437,0,4.575-0.448,7.41-1.542L313.761,320.769z"/>
		</g>
		<g>
			<path style="fill:#0073FF;" d="M69.001,363.49l-1.319,13.063c-6.581-2.835-12.858-4.253-18.932-4.253
				c-5.671,0-7.999,1.114-7.999,3.845c0,1.925,1.214,2.835,4.959,3.646l11.849,2.736c9.924,2.328,13.973,8.197,13.973,16.604
				c0,11.236-8.407,17.211-22.38,17.211c-10.023,0-16.096-0.706-21.563-2.532l1.418-13.465c6.073,2.631,12.252,3.745,20.145,3.745
				c6.179,0,8.302-1.009,8.407-4.049c0-2.328-1.319-3.343-5.974-4.556l-11.849-3.04c-9.008-2.328-12.957-7.082-12.957-15.694
				c0-10.326,8.401-16.499,22.479-16.499C56.242,360.252,63.027,361.366,69.001,363.49L69.001,363.49z"/>
			<path style="fill:#0073FF;" d="M114.384,360.257c-11.687,0-17.357,5.67-18.65,17.008l-1.144-0.099l1.542-15.516H80.865v72.908
				H96.63v-16.909l-1.293-12.135l1.094-0.099c1.84,6.266,7.211,10.941,17.207,10.941c14.174,0,23.175-11.24,23.175-28.049
				C136.814,371.397,127.812,360.257,114.384,360.257z M109.511,403.076c-8.504,0-13.079-5.172-13.079-14.77
				c0-9.648,4.575-14.771,13.079-14.771c8.405,0,12.831,5.123,12.831,14.771C122.342,397.904,117.915,403.076,109.511,403.076z"/>
			<path style="fill:#0073FF;" d="M183.923,388.297c0-9.515-4.556-14.679-13.162-14.679c-8.605,0-13.162,5.163-13.162,14.679
				c0,9.621,4.556,14.679,13.162,14.679C179.366,402.975,183.923,397.917,183.923,388.297L183.923,388.297z M198.403,388.297
				c0,16.907-11.038,28.045-27.642,28.045c-16.604,0-27.642-11.137-27.642-28.045c0-16.907,11.038-28.045,27.642-28.045
				C187.365,360.252,198.403,371.389,198.403,388.297L198.403,388.297z"/>
			<path style="fill:#0073FF;" d="M244.882,361.748l-1.094,15.516l-5.619-0.497c-12.135-1.144-15.865,5.272-15.865,15.566v22.578
				h-14.969v-53.263h14.273l-1.393,15.914l1.393,0.1c1.591-11.638,6.366-17.406,15.168-17.406
				C239.71,360.257,242.346,360.754,244.882,361.748z"/>
			<path style="fill:#0073FF;" d="M285.563,400.639l1.442,13.278c-3.232,1.393-6.764,2.437-13.179,2.437
				c-10.643,0-17.406-6.068-17.406-17.655v-23.374h-8.106v-13.676h8.106v-11.14l14.969-2.188v13.329h12.682v13.676H271.39v19.346
				c0,5.769,1.641,7.51,6.813,7.51C280.64,402.181,282.729,401.783,285.563,400.639z"/>
		</g>
	</g>
</g>
</svg>
