<?xml version="1.0" encoding="iso-8859-1"?>
<!-- Generator: Adobe Illustrator 25.3.1, SVG Export Plug-In . SVG Version: 6.00 Build 0)  -->
<svg version="1.1" id="&#x428;&#x430;&#x440;_1" xmlns="http://www.w3.org/2000/svg" xmlns:xlink="http://www.w3.org/1999/xlink"
	 x="0px" y="0px" viewBox="0 0 324.138 432.033" style="enable-background:new 0 0 324.138 432.033;" xml:space="preserve">
<g>
	<g>
		<path style="fill:#8F36E5;" d="M89.662,153.274c24.996,3.562,54.405-19.382,78.104-37.197
			C190,99.354,217.388,78.815,237.914,79.045c13.422,0.153,25.176,7.853,28.859,18.269c-0.358-3.977-2.257-15.807-3.619-21.467
			c-2.602-7.744-9.701-24.926-33.392-24.824c-24.447,0.102-51.771,21.268-73.564,37.28c-27.056,19.881-51.304,40.702-77.042,35.944
			c-13.813-2.551-19.791-8.933-21.768-14.618c0.262,3.613,2.078,15.021,3.556,21.243C64.256,138.304,71.309,150.658,89.662,153.274
			L89.662,153.274z"/>
		<path style="fill:#9CA6BD;" d="M196.105,5.647C147.257-10.537,98.172,9.216,71.602,50.199c0,0,5.487,11.798,28.066-7.028
			C134.851,13.833,153.185,0.481,196.105,5.647L196.105,5.647z"/>
		<path style="fill:#BFC7D9;" d="M140.608,38.049c-10.82,7.923-26.531,19.926-37.671,27.369
			c-13.166,8.805-31.576,21.217-40.49,4.828c-1.298,4.048-3.728,12.489-3.811,16.223c0.441,5.327,5.646,16.722,20.962,16.984
			c19.695,0.339,37.939-16.664,65.819-37.351c29.294-21.742,49.692-36.014,73.557-33.226c18.909,2.206,27.976,11.12,34.889,20.041
			c-5.992-11.491-18.091-25.444-33.725-35.484C202.808,6.3,175.535,12.471,140.608,38.049L140.608,38.049z"/>
		<path style="fill:#6E7591;" d="M127.805,199.5c48.848,16.185,97.933-3.568,124.503-44.551c0,0-5.486-11.798-28.066,7.028
			C189.059,191.315,170.726,204.667,127.805,199.5L127.805,199.5z"/>
		<path style="fill:#9CA6BD;" d="M183.302,167.098c10.819-7.923,26.531-19.926,37.671-27.369c13.166-8.805,31.57-21.217,40.49-4.828
			c1.298-4.048,3.728-12.489,3.811-16.223c-0.441-5.327-5.646-16.722-20.962-16.984c-19.695-0.339-37.939,16.664-65.819,37.351
			c-29.294,21.742-49.692,36.014-73.557,33.226c-18.909-2.206-27.976-11.12-34.889-20.041c5.992,11.491,18.091,25.444,33.725,35.484
			C121.101,198.847,148.374,192.676,183.302,167.098L183.302,167.098z"/>
	</g>
	<g>
		<g>
			<path style="fill:#9CA6BD;" d="M34.623,275.877c-12.02,0-17.876,5.856-19.212,17.568l-1.181-0.103l1.592-15.976H0v75.307h16.335
				v-17.466L15,322.623l1.13-0.103c1.901,6.473,7.449,11.301,17.773,11.301c14.64,0,23.938-11.609,23.938-28.972
				C57.841,287.384,48.544,275.877,34.623,275.877z M29.64,320.106c-8.784,0-13.51-5.291-13.51-15.256
				c0-9.914,4.726-15.257,13.51-15.257c8.681,0,13.253,5.343,13.253,15.257C42.893,314.815,38.321,320.106,29.64,320.106z"/>
			<path style="fill:#9CA6BD;" d="M106.489,304.858c0-9.828-4.706-15.161-13.595-15.161S79.3,295.03,79.3,304.858
				c0,9.937,4.706,15.168,13.595,15.168S106.489,314.795,106.489,304.858L106.489,304.858z M121.446,304.858
				c0,17.464-11.402,28.968-28.552,28.968s-28.552-11.504-28.552-28.968c0-17.464,11.402-28.967,28.552-28.967
				S121.446,287.395,121.446,304.858L121.446,304.858z"/>
			<path style="fill:#9CA6BD;" d="M157.006,317.722l1.362,13.595c-3.555,1.675-7.322,2.513-11.817,2.513
				c-10.673,0-16.53-7.009-16.53-18.301v-59.093h15.481v56.682c0,3.977,1.675,6.068,5.122,6.068
				C152.823,319.187,154.288,318.764,157.006,317.722L157.006,317.722z"/>
			<path style="fill:#9CA6BD;" d="M208.461,279.236l-1.362,13.493c-6.797-2.929-13.282-4.393-19.555-4.393
				c-5.857,0-8.262,1.151-8.262,3.971c0,1.989,1.254,2.929,5.122,3.766l12.239,2.826c10.25,2.404,14.433,8.473,14.433,17.15
				c0,11.606-8.684,17.777-23.117,17.777c-10.353,0-16.626-0.729-22.272-2.615l1.464-13.908c6.273,2.724,12.655,3.869,20.808,3.869
				c6.382,0,8.575-1.042,8.684-4.182c0-2.404-1.362-3.453-6.171-4.706l-12.239-3.133c-9.304-2.411-13.384-7.322-13.384-16.217
				c0-10.666,8.677-17.042,23.219-17.042C195.282,275.891,202.29,277.042,208.461,279.236L208.461,279.236z"/>
			<path style="fill:#9CA6BD;" d="M259.619,277.367l0.822,8.476l-1.13,0.103c-2.517-5.959-6.935-10.068-17.363-10.068
				c-14.948,0-24.4,11.609-24.4,28.972c0,17.466,9.349,28.972,23.219,28.972c12.02,0,17.876-6.37,19.263-18.801l1.181,0.103
				l-1.798,17.26h15.976v-55.016H259.619z M245.8,320.106c-8.681,0-13.304-5.291-13.304-15.256c0-9.914,4.623-15.257,13.304-15.257
				c8.784,0,13.51,5.343,13.51,15.257C259.31,314.815,254.584,320.106,245.8,320.106z"/>
			<path style="fill:#9CA6BD;" d="M324.138,331.305c-3.339,1.49-6.986,2.517-13.613,2.517c-10.942,0-17.979-6.267-17.979-18.185
				v-24.143h-8.373v-14.126h8.373V265.86l15.462-2.311v13.818h13.099v14.126h-13.099v19.931c0,5.959,1.695,7.757,7.038,7.757
				c2.517,0,4.674-0.411,7.603-1.541L324.138,331.305z"/>
		</g>
		<g>
			<path style="fill:#9CA6BD;" d="M81.985,354.215v16.13l1.335,13.253l-1.13,0.103c-2.517-5.959-6.935-10.017-17.363-10.017
				c-14.948,0-24.4,11.609-24.4,28.972c0,17.466,9.349,28.972,23.219,28.972c12.072,0,17.928-6.37,19.263-18.852l1.233,0.103
				l-1.849,17.26h15.976v-75.923H81.985z M68.68,417.913c-8.681,0-13.253-5.343-13.253-15.257c0-9.966,4.572-15.308,13.253-15.308
				c8.784,0,13.51,5.342,13.51,15.308C82.19,412.57,77.464,417.913,68.68,417.913z"/>
			<path style="fill:#9CA6BD;" d="M149.631,402.644c0-9.828-4.706-15.161-13.595-15.161s-13.595,5.333-13.595,15.161
				c0,9.937,4.706,15.168,13.595,15.168S149.631,412.581,149.631,402.644L149.631,402.644z M164.589,402.644
				c0,17.464-11.402,28.968-28.552,28.968s-28.552-11.504-28.552-28.968c0-17.464,11.402-28.967,28.552-28.967
				S164.589,385.18,164.589,402.644L164.589,402.644z"/>
			<polygon style="fill:#9CA6BD;" points="225.972,430.138 207.787,430.138 194.74,409.18 189.294,414.933 189.294,430.138 
				173.781,430.138 173.781,354.215 189.294,354.215 189.294,394.591 206.092,375.122 225.561,375.122 204.911,398.033 			"/>
			<path style="fill:#9CA6BD;" d="M270.954,414.147l-1.151-0.102c-1.355,12.028-7.008,17.988-18.614,17.988
				c-12.444,0-19.766-8.057-19.766-22.176V375.14h15.475v32.836c0,6.695,3.242,10.251,9.099,10.251
				c8.575,0,12.239-3.555,12.239-11.504V375.14h15.475v55.006h-14.324L270.954,414.147z"/>
		</g>
	</g>
</g>
</svg>
