<?xml version="1.0" encoding="iso-8859-1"?>
<!-- Generator: Adobe Illustrator 25.3.1, SVG Export Plug-In . SVG Version: 6.00 Build 0)  -->
<svg version="1.1" id="&#x428;&#x430;&#x440;_1" xmlns="http://www.w3.org/2000/svg" xmlns:xlink="http://www.w3.org/1999/xlink"
	 x="0px" y="0px" viewBox="0 0 370.443 422.745" style="enable-background:new 0 0 370.443 422.745;" xml:space="preserve">
<g>
	<g>
		<path style="fill:#FF6600;" d="M114.298,150.12c24.488,3.489,53.285-18.989,76.489-36.438
			c21.776-16.371,48.607-36.488,68.705-36.262c13.146,0.15,24.663,7.691,28.271,17.893c-0.351-3.896-2.211-15.482-3.545-21.025
			c-2.549-7.585-9.501-24.419-32.705-24.313c-23.943,0.1-50.711,20.831-72.049,36.513c-26.499,19.472-50.248,39.864-75.456,35.204
			c-13.528-2.499-19.384-8.749-21.319-14.317c0.257,3.539,2.036,14.712,3.482,20.806C89.415,135.453,96.317,147.559,114.298,150.12
			L114.298,150.12z"/>
		<path style="fill:#FFC700;" d="M164.193,37.268c-10.597,7.76-25.985,19.515-36.889,26.806
			c-12.902,8.624-30.933,20.78-39.663,4.728c-1.271,3.971-3.651,12.232-3.733,15.889c0.432,5.217,5.53,16.371,20.53,16.634
			c19.29,0.332,37.158-16.321,64.464-36.582c28.691-21.294,48.669-35.273,72.043-32.542c18.52,2.161,27.4,10.891,34.171,19.628
			c-5.868-11.255-17.724-24.92-33.031-34.753C225.113,6.179,198.402,12.21,164.193,37.268L164.193,37.268z"/>
		<path style="fill:#FF4A33;" d="M151.655,195.396c47.843,15.852,95.917-3.495,121.94-43.634c0,0-5.373-11.555-27.488,6.883
			C211.647,187.373,193.691,200.45,151.655,195.396L151.655,195.396z"/>
		<path style="fill:#FF4A33;" d="M206.008,163.66c10.597-7.76,25.991-19.515,36.895-26.805c12.895-8.624,30.926-20.774,39.657-4.728
			c1.271-3.971,3.651-12.232,3.733-15.889c-0.432-5.217-5.53-16.371-20.53-16.634c-19.29-0.332-37.158,16.321-64.464,36.582
			c-28.691,21.294-48.669,35.273-72.043,32.542c-18.52-2.161-27.4-10.891-34.171-19.628c5.868,11.255,17.724,24.92,33.037,34.753
			C145.088,194.755,171.8,188.718,206.008,163.66L206.008,163.66z"/>
		<path style="fill:#FF8533;" d="M218.548,5.534c-47.837-15.858-95.917,3.495-121.94,43.634c0,0,5.374,11.555,27.488-6.883
			C158.555,13.55,176.511,0.48,218.548,5.534L218.548,5.534z"/>
	</g>
	<g>
		<g>
			<path style="fill:#FF6600;" d="M60.424,270.2c-11.773,0-17.508,5.736-18.867,17.206l-1.157-0.1l1.56-15.647H26.514v73.757h15.949
				V328.31l-1.308-12.326l1.107-0.101c1.861,6.339,7.295,11.069,17.408,11.069c14.389,0,23.495-11.37,23.495-28.376
				C83.165,281.47,74.058,270.2,60.424,270.2z M55.493,313.518c-8.603,0-13.232-5.182-13.232-14.942
				c0-9.71,4.629-14.943,13.232-14.943c8.503,0,12.98,5.233,12.98,14.943C68.474,308.337,63.996,313.518,55.493,313.518z"/>
			<path style="fill:#FF6600;" d="M130.777,298.584c0-9.626-4.603-14.856-13.315-14.856c-8.706,0-13.315,5.23-13.315,14.856
				c0,9.726,4.609,14.856,13.315,14.856C126.174,313.44,130.777,308.311,130.777,298.584L130.777,298.584z M145.427,298.584
				c0,17.104-11.167,28.378-27.964,28.378s-27.964-11.273-27.964-28.378c0-17.11,11.167-28.371,27.964-28.371
				S145.427,281.474,145.427,298.584L145.427,298.584z"/>
			<path style="fill:#FF6600;" d="M180.255,311.184l1.334,13.315c-3.489,1.641-7.171,2.461-11.574,2.461
				c-10.453,0-16.19-6.864-16.19-17.931v-57.87h15.163v55.515c0,3.896,1.641,5.944,5.023,5.944
				C176.158,312.618,177.592,312.205,180.255,311.184L180.255,311.184z"/>
			<path style="fill:#FF6600;" d="M230.651,273.488l-1.328,13.215c-6.664-2.868-13.014-4.303-19.159-4.303
				c-5.737,0-8.092,1.127-8.092,3.889c0,1.948,1.228,2.875,5.023,3.689l11.981,2.762c10.039,2.361,14.136,8.305,14.136,16.804
				c0,11.374-8.499,17.411-22.634,17.411c-10.146,0-16.29-0.714-21.82-2.562l1.434-13.622c6.144,2.668,12.394,3.789,20.386,3.789
				c6.244,0,8.399-1.021,8.499-4.096c0-2.355-1.334-3.382-6.044-4.609l-11.981-3.069c-9.119-2.361-13.115-7.177-13.115-15.877
				c0-10.447,8.505-16.703,22.741-16.703C217.742,270.206,224.607,271.334,230.651,273.488L230.651,273.488z"/>
			<path style="fill:#FF6600;" d="M280.738,271.66l0.805,8.301l-1.107,0.101c-2.465-5.836-6.742-9.861-17.005-9.861
				c-14.641,0-23.848,11.37-23.848,28.376c0,17.106,9.106,28.376,22.741,28.376c11.773,0,17.509-6.239,18.816-18.414l1.208,0.101
				l-1.811,16.905h15.647V271.66H280.738z M267.204,313.518c-8.503,0-12.98-5.182-12.98-14.942c0-9.71,4.478-14.943,12.98-14.943
				c8.603,0,13.232,5.233,13.232,14.943C280.436,308.337,275.807,313.518,267.204,313.518z"/>
			<path style="fill:#FF6600;" d="M343.929,324.487c-3.27,1.459-6.842,2.465-13.282,2.465c-10.767,0-17.659-6.138-17.659-17.81
				v-23.646h-8.15V271.66h8.15v-11.27l15.194-2.264v13.534h12.779v13.836h-12.779v19.521c0,5.836,1.61,7.597,6.842,7.597
				c2.465,0,4.629-0.402,7.496-1.509L343.929,324.487z"/>
		</g>
		<g>
			<path style="fill:#FF6600;" d="M38.035,367.503L36.878,383.2l-5.635-0.503c-12.276-1.157-16.049,5.283-16.049,15.748v22.842H0
				v-53.884h14.489l-1.409,16.1l1.409,0.101c1.61-11.773,6.44-17.609,15.345-17.609C32.803,365.994,35.47,366.497,38.035,367.503z"
				/>
			<path style="fill:#FF6600;" d="M82.174,394.356c0-9.626-4.609-14.856-13.315-14.856s-13.315,5.23-13.315,14.856
				c0,9.726,4.609,14.856,13.315,14.856S82.174,404.082,82.174,394.356L82.174,394.356z M96.823,394.356
				c0,17.104-11.167,28.371-27.964,28.371s-27.964-11.267-27.964-28.371c0-17.11,11.167-28.377,27.964-28.377
				S96.823,377.245,96.823,394.356L96.823,394.356z"/>
			<path style="fill:#FF6600;" d="M143.438,346.925v15.798l1.308,12.98l-1.107,0.1c-2.465-5.836-6.742-9.81-17.005-9.81
				c-14.641,0-23.848,11.37-23.848,28.375c0,17.106,9.106,28.376,22.741,28.376c11.773,0,17.509-6.239,18.816-18.464l1.208,0.1
				l-1.811,16.905h15.647v-74.361H143.438z M130.407,409.312c-8.503,0-12.98-5.233-12.98-14.943c0-9.76,4.478-14.993,12.98-14.993
				c8.603,0,13.232,5.232,13.232,14.993C143.639,404.079,139.01,409.312,130.407,409.312z"/>
			<polygon style="fill:#FF6600;" points="214.931,408.004 214.931,421.286 170.556,421.286 170.556,408.507 195.259,380.735 
				171.311,380.735 171.311,367.402 214.327,367.402 214.327,379.527 188.819,408.004 			"/>
			<path style="fill:#FF6600;" d="M241.151,421.297h-15.163v-53.88h15.163V421.297z M233.573,346.417
				c5.737,0,8.805,2.768,8.805,7.785c0,5.123-3.069,7.785-8.805,7.785c-5.737,0-8.812-2.662-8.812-7.785
				C224.761,349.185,227.836,346.417,233.573,346.417L233.573,346.417z"/>
			<path style="fill:#FF6600;" d="M265.735,383.088l1.127,0.1c1.334-11.774,6.964-17.618,18.438-17.618
				c12.394,0,19.566,7.891,19.566,21.72v34.002h-15.163v-32.16c0-6.557-3.175-10.04-9.113-10.04
				c-8.505,0-12.194,3.482-12.194,11.267v30.933H253.24v-53.88h14.029L265.735,383.088z"/>
			<path style="fill:#FF6600;" d="M354.948,367.402l0.805,8.302l-1.107,0.1c-2.465-5.836-6.742-9.81-17.005-9.81
				c-14.641,0-23.848,11.37-23.848,28.375c0,17.106,9.106,28.376,22.741,28.376c11.773,0,17.509-6.239,18.816-18.464l1.208,0.1
				l-1.811,16.905h15.697v-53.884H354.948z M341.414,409.312c-8.503,0-12.98-5.233-12.98-14.943c0-9.76,4.478-14.993,12.98-14.993
				c8.603,0,13.232,5.232,13.232,14.993C354.646,404.079,350.017,409.312,341.414,409.312z"/>
		</g>
	</g>
</g>
</svg>
