<svg xmlns="http://www.w3.org/2000/svg" viewBox="0 0 283.76 283.76"><defs><style>.cls-1{fill:#f89c1c;stroke:#f89c1c;}.cls-1,.cls-2{stroke-width:0.3px;}.cls-2{fill:#db4128;stroke:#db4128;}.cls-3{fill:#fff;}</style></defs><title>polsat</title><g id="Layer_2" data-name="Layer 2"><g id="Cyfrowy_Polsat" data-name="Cyfrowy Polsat"><g id="polsat"><rect class="cls-1" x="0.15" y="0.15" width="283.46" height="283.46"/><g id="logo"><path class="cls-2" d="M42.67,185.68v40.88a14.55,14.55,0,0,0,14.57,14.53H226.53a14.55,14.55,0,0,0,14.56-14.53V192.69H57.24A18.65,18.65,0,0,1,42.67,185.68Z"/><path class="cls-3" d="M142,115.81v0h-.05l0,0,0,0h0v0h0v-.08l0,0h0l0,0h.07v0h0v0Zm34,13.57.08,0c7.19,5.83,2.6,8.36,14.55,13.63-6.23-.15-11.27-1.08-15.07-3.68a34.83,34.83,0,0,1-3.3-2.56c-.43,0-1,.92-1.44,1.62l.05,0c5.25,7.62.12,8.76,10.12,17.16-5.94-1.87-10.51-4.19-13.42-7.77a37,37,0,0,1-2.45-3.38c-.42-.14-1.25.66-1.79,1.26,2.86,8.74-2.34,8.42,4.87,19.27-5.18-3.49-8.91-7-10.7-11.23a36,36,0,0,1-1.39-3.94c-.39-.27-1.49.19-2.13.49l.06.17c.31,9.26-4.61,7.45-.75,19.92-4-4.81-6.59-9.22-7.09-13.79a30.57,30.57,0,0,1-.23-4.17c-.32-.4-1.55-.23-2.19-.11v.15c-2.32,9-6.54,5.84-6.34,18.89-2.46-5.71-3.71-10.69-2.93-15.23a35.57,35.57,0,0,1,1-4c-.18-.43-1.3-.7-2-.81l-.06.24c-4.75,7.95-7.91,3.75-11.4,16.34-.76-6.19-.56-11.3,1.47-15.43a35.91,35.91,0,0,1,2.06-3.63c-.06-.56-1.44-1.19-1.9-1.38l-.09.17c-6.81,6.25-8.65,1.35-15.59,12.39,1-6.14,2.7-11,5.83-14.36a33.52,33.52,0,0,1,3-2.89c.11-.61-1.19-1.48-1.43-1.64l0,0c-8.31,4.07-8.7-1.15-18.47,7.5,2.74-5.59,5.69-9.79,9.65-12.14a35.34,35.34,0,0,1,3.7-1.94c.23-.44-.37-1.54-.69-2.08l-.25.13c-9.11,1.58-8-3.54-19.83,2,4.2-4.6,8.22-7.79,12.67-8.93a34.84,34.84,0,0,1,4.11-.8c.33-.37-.05-1.54-.29-2.16h-.06c-9.21-1-6.69-5.66-19.59-3.66,5.32-3.24,10.07-5.16,14.67-5a33.42,33.42,0,0,1,4.15.39c.48-.28.45-1.62.42-2.15l-.14,0c-8.53-3.57-4.83-7.3-17.77-9,6-1.61,11.12-2.12,15.5-.67a38.47,38.47,0,0,1,3.88,1.54c.46-.13.87-1.28,1-1.93l-.18-.07c-7.18-5.85-2.58-8.37-14.51-13.66,6.22.16,11.26,1.1,15,3.71a38.85,38.85,0,0,1,3.29,2.56c.44,0,1.13-.91,1.54-1.55l-.15-.12c-5.23-7.62-.11-8.76-10.08-17.18,5.95,1.9,10.51,4.23,13.41,7.8a32.52,32.52,0,0,1,2.42,3.39c.42.13,1.32-.53,1.95-1l-.13-.17c-2.88-8.8,2.36-8.44-4.83-19.32,5.16,3.49,8.88,7,10.66,11.25a34.06,34.06,0,0,1,1.39,3.94c.37.26,1.45-.18,2.13-.49l-.06-.16c-.29-9.26,4.64-7.43.81-19.91,4,4.8,6.55,9.23,7.06,13.8a34.52,34.52,0,0,1,.21,4.17c.31.37,1.51.28,2.19.2V79.1c2.34-9,6.54-5.84,6.38-18.89,2.46,5.73,3.69,10.71,2.9,15.25a36.36,36.36,0,0,1-1,4.06c.19.47,1.48.59,2.09.62l0,0c4.75-7.95,7.91-3.75,11.42-16.33.75,6.19.53,11.31-1.51,15.43a31.46,31.46,0,0,1-2.06,3.62c.06.5,1.13,1.05,1.74,1.33l.11-.18c6.79-6.28,8.65-1.37,15.57-12.43-1,6.13-2.68,11-5.81,14.37a31.82,31.82,0,0,1-3,2.89c-.1.49.8,1.3,1.34,1.72l.11-.08c8.28-4.11,8.69,1.12,18.43-7.56-2.72,5.61-5.66,9.8-9.61,12.17a34.46,34.46,0,0,1-3.7,1.93c-.21.42.46,1.39.9,2l0,0c9.12-1.61,8,3.51,19.81-2.06-4.18,4.61-8.17,7.8-12.64,9a34,34,0,0,1-4.09.82c-.3.32,0,1.43.23,2.16l.12,0c9.19,1,6.7,5.63,19.6,3.61-5.32,3.25-10.07,5.19-14.66,5a31.14,31.14,0,0,1-4.15-.37c-.42.25-.54,1.46-.57,2.14l.3,0c8.53,3.57,4.84,7.31,17.78,9-6,1.63-11.1,2.15-15.49.72a36.21,36.21,0,0,1-3.89-1.53c-.42.1-.76,1.19-.95,2Zm-1.84-13.75a32.47,32.47,0,1,0-32.47,32.48,32.46,32.46,0,0,0,32.47-32.48Zm-3.95,0a28.46,28.46,0,1,1-28.46-28.45,28.46,28.46,0,0,1,28.46,28.45ZM89.48,214.44a5.11,5.11,0,0,1-1.77,4A6.31,6.31,0,0,1,83.42,220H73.14v-3.8H83.42c1.42,0,2.14-.58,2.14-1.75V212c0-1.25-.73-1.87-2.14-1.87H69.5v17H65.6V206.41H83.39A6.34,6.34,0,0,1,87.7,208a5.16,5.16,0,0,1,1.77,4v2.44Zm29.08,7.09a5.09,5.09,0,0,1-1.79,4,6.26,6.26,0,0,1-4.28,1.58H100.92a6.35,6.35,0,0,1-4.3-1.57,5.16,5.16,0,0,1-1.78-4V212a5.09,5.09,0,0,1,1.85-4,6.22,6.22,0,0,1,4.23-1.65h11.57A6.12,6.12,0,0,1,116.7,208a5.07,5.07,0,0,1,1.86,4v9.57Zm-3.91,0V212a1.7,1.7,0,0,0-.68-1.32,2.21,2.21,0,0,0-1.47-.58H100.89a2.19,2.19,0,0,0-1.46.58,1.7,1.7,0,0,0-.68,1.32v9.61c0,1.25.72,1.86,2.14,1.86H112.5c1.44,0,2.15-.61,2.15-1.86Zm27.5,5.57H130.63a6.25,6.25,0,0,1-4.28-1.57,5.16,5.16,0,0,1-1.78-4V206.35h3.91v15.22c0,1.24.71,1.86,2.15,1.86h11.52v3.71Zm28.38-17.08H153.2a2.23,2.23,0,0,0-1.47.57,1.73,1.73,0,0,0-.68,1.33v1c0,1.24.72,1.86,2.14,1.86l11.59,0a6.33,6.33,0,0,1,4.26,1.5,5.23,5.23,0,0,1,1.83,4.07v1.08a5.09,5.09,0,0,1-1.87,4,6.24,6.24,0,0,1-4.2,1.62H147.47v-3.7H164.8a2.32,2.32,0,0,0,1.47-.55,1.69,1.69,0,0,0,.68-1.34v-1.09c0-1.24-.72-1.86-2.15-1.86l-11.58,0a6.34,6.34,0,0,1-4.29-1.55,5.05,5.05,0,0,1-1.79-4v-1a5.08,5.08,0,0,1,1.86-4,6.13,6.13,0,0,1,4.21-1.65h17.31v3.7Zm29.75,17.12H196.1l-1.92-7.24h-9.49l.9-3.81h7.59c-.16-.63-.69-2.88-1-4.14s-1.06-1.87-2.13-1.87h-4.79a2.15,2.15,0,0,0-2.15,1.88l-3.89,15.19H175l3.9-15.18c1-3.74,3-5.6,6.08-5.6h5.29c3.1,0,5.12,1.87,6.08,5.61l3.92,15.17Zm21.65-17.12h-8.68v17.08h-3.91V210.06h-8.55v-3.7h21.14v3.7"/></g></g></g></g></svg>