<?xml version="1.0" encoding="iso-8859-1"?>
<!-- Generator: Adobe Illustrator 25.3.1, SVG Export Plug-In . SVG Version: 6.00 Build 0)  -->
<svg version="1.1" id="&#x428;&#x430;&#x440;_1" xmlns="http://www.w3.org/2000/svg" xmlns:xlink="http://www.w3.org/1999/xlink"
	 x="0px" y="0px" viewBox="0 0 312 415.531" style="enable-background:new 0 0 312 415.531;" xml:space="preserve">
<g>
	<g>
		<g>
			<path style="fill:#FF0069;" d="M33.331,265.589c-11.572,0-17.21,5.638-18.545,16.913l-1.088-0.099l1.484-15.38H0v72.498h15.677
				v-16.814l-1.236-12.116l1.088-0.099c1.78,6.231,7.121,10.88,17.111,10.88c14.094,0,23.045-11.176,23.045-27.892
				C55.684,276.666,46.733,265.589,33.331,265.589z M28.485,308.168c-8.457,0-12.957-5.094-12.957-14.687
				c0-9.544,4.5-14.688,12.957-14.688c8.358,0,12.808,5.143,12.808,14.688C41.293,303.074,36.843,308.168,28.485,308.168z"/>
			<path style="fill:#FF0069;" d="M102.492,293.489c0-9.462-4.531-14.602-13.088-14.602c-8.557,0-13.088,5.14-13.088,14.602
				c0,9.567,4.531,14.596,13.088,14.596C97.961,308.085,102.492,303.055,102.492,293.489L102.492,293.489z M116.891,293.489
				c0,16.812-10.976,27.887-27.487,27.887c-16.511,0-27.487-11.075-27.487-27.887c0-16.812,10.976-27.887,27.487-27.887
				C105.914,265.602,116.891,276.676,116.891,293.489L116.891,293.489z"/>
			<path style="fill:#FF0069;" d="M151.123,305.873l1.311,13.088c-3.423,1.613-7.049,2.419-11.376,2.419
				c-10.275,0-15.913-6.747-15.913-17.625v-56.883h14.904v54.568c0,3.829,1.613,5.842,4.931,5.842
				C147.097,307.283,148.507,306.876,151.123,305.873L151.123,305.873z"/>
			<path style="fill:#FF0069;" d="M200.66,268.822l-1.311,12.989c-6.544-2.819-12.786-4.229-18.825-4.229
				c-5.639,0-7.954,1.108-7.954,3.823c0,1.915,1.207,2.82,4.931,3.626l11.783,2.721c9.868,2.315,13.894,8.151,13.894,16.511
				c0,11.173-8.36,17.114-22.248,17.114c-9.973,0-16.012-0.702-21.448-2.518l1.41-13.39c6.039,2.616,12.183,3.725,20.038,3.725
				c6.138,0,8.255-1.004,8.354-4.026c0-2.315-1.311-3.324-5.941-4.531l-11.783-3.017c-8.957-2.321-12.885-7.049-12.885-15.612
				c0-10.268,8.354-16.406,22.353-16.406C187.973,265.602,194.72,266.704,200.66,268.822L200.66,268.822z"/>
			<path style="fill:#FF0069;" d="M249.887,267.023l0.791,8.16l-1.088,0.099c-2.423-5.737-6.627-9.693-16.715-9.693
				c-14.391,0-23.441,11.176-23.441,27.892c0,16.814,8.951,27.892,22.353,27.892c11.572,0,17.21-6.132,18.495-18.1l1.187,0.099
				l-1.78,16.616h15.429v-52.964H249.887z M236.584,308.168c-8.358,0-12.759-5.094-12.759-14.687
				c0-9.544,4.401-14.688,12.759-14.688c8.506,0,13.006,5.143,13.006,14.688C249.59,303.074,245.09,308.168,236.584,308.168z"/>
			<path style="fill:#FF0069;" d="M312,318.949c-3.214,1.434-6.726,2.423-13.055,2.423c-10.583,0-17.309-6.033-17.309-17.507
				v-23.243h-8.061v-13.6h8.061v-11.078l14.885-2.225v13.303h12.561v13.6h-12.561v19.188c0,5.737,1.583,7.467,6.726,7.467
				c2.423,0,4.55-0.395,7.368-1.484L312,318.949z"/>
		</g>
		<g>
			<path style="fill:#FF0069;" d="M90.16,394.774l10.57,7.449c-4.629,8.662-12.583,13.291-22.852,13.291
				c-16.917,0-27.992-10.976-27.992-27.887c0-16.714,11.18-27.887,27.992-27.887c10.57,0,18.622,4.426,22.852,12.583l-10.57,7.652
				c-2.616-4.636-6.643-6.95-12.282-6.95c-8.865,0-13.593,5.14-13.593,14.602c0,9.462,4.728,14.393,13.593,14.393
				C83.216,402.02,87.543,399.508,90.16,394.774L90.16,394.774z"/>
			<path style="fill:#FF0069;" d="M144.749,361.132l0.791,8.16l-1.088,0.099c-2.423-5.736-6.676-9.643-16.715-9.643
				c-14.44,0-23.49,11.176-23.49,27.891c0,16.814,8.951,27.892,22.353,27.892c11.572,0,17.21-6.132,18.545-18.149l1.137,0.099
				l-1.731,16.617h15.38v-52.964H144.749z M131.446,402.327c-8.357,0-12.808-5.143-12.808-14.688
				c0-9.594,4.451-14.737,12.808-14.737c8.457,0,13.006,5.143,13.006,14.737C144.453,397.184,139.903,402.327,131.446,402.327z"/>
			<path style="fill:#FF0069;" d="M191.977,361.973v3.709h13.451v13.896h-13.451v34.519h-14.935v-34.519h-7.022v-13.896h7.022
				v-7.566c0-11.275,7.467-18.495,19.039-18.495c5.143,0,10.187,0.791,13.501,2.077l-1.533,13.995
				c-3.017-1.088-5.242-1.682-9.347-1.682C193.56,354.011,191.977,355.594,191.977,361.973z"/>
			<path style="fill:#FF0069;" d="M262.102,386.601c0-16.072-9.94-26.853-24.826-26.853c-15.33,0-26.111,11.473-26.111,27.891
				c0,16.913,9.989,27.892,28.337,27.892c6.33,0,13.352-1.434,19.831-4.55l-1.138-13.303c-7.319,3.214-13.105,4.55-18.1,4.55
				c-9.297,0-13.501-3.462-14.539-10.583h36.249C262.003,390.062,262.102,388.332,262.102,386.601z M225.704,382.298
				c1.286-6.429,5.193-9.792,11.572-9.792c5.835,0,9.792,3.116,10.731,9.792H225.704z M231.54,357.324l-2.126-8.555l23.342-9.248
				l3.412,13.995L231.54,357.324z"/>
		</g>
	</g>
	<g>
		<path style="fill:#FF1499;" d="M86.291,147.558c24.07,3.429,52.376-18.659,75.191-35.81c21.405-16.098,47.771-35.872,67.533-35.65
			c12.922,0.148,24.236,7.56,27.783,17.588c-0.345-3.829-2.173-15.218-3.478-20.672c-2.512-7.449-9.345-23.99-32.153-23.892
			c-23.535,0.098-49.84,20.475-70.82,35.89c-26.047,19.139-49.391,39.184-74.169,34.61c-13.297-2.462-19.053-8.606-20.956-14.079
			c0.252,3.478,2.001,14.461,3.423,20.451C61.832,133.147,68.623,145.04,86.291,147.558L86.291,147.558z"/>
		<path style="fill:#FF29CC;" d="M188.764,5.437c-47.027-15.581-94.281,3.435-119.86,42.89c0,0,5.282,11.358,27.019-6.766
			C129.795,13.317,147.444,0.463,188.764,5.437L188.764,5.437z"/>
		<path style="fill:#FF3DFF;" d="M135.337,36.63c-10.416,7.628-25.542,19.183-36.266,26.348
			c-12.682,8.477-30.399,20.426-38.981,4.648c-1.25,3.897-3.589,12.023-3.669,15.618c0.425,5.128,5.436,16.098,20.18,16.351
			c18.961,0.326,36.524-16.043,63.365-35.958c28.201-20.931,47.839-34.671,70.814-31.987c18.204,2.124,26.933,10.705,33.594,19.293
			c-5.774-11.063-17.422-24.495-32.473-34.16C195.217,6.065,168.961,12.006,135.337,36.63L135.337,36.63z"/>
		<path style="fill:#FF0069;" d="M123.011,192.061c47.026,15.581,94.281-3.435,119.859-42.89c0,0-5.282-11.358-27.019,6.766
			C181.981,184.181,164.331,197.035,123.011,192.061L123.011,192.061z"/>
		<path style="fill:#FF0069;" d="M176.439,160.868c10.416-7.627,25.542-19.182,36.266-26.348
			c12.682-8.477,30.399-20.426,38.981-4.648c1.25-3.897,3.589-12.023,3.669-15.618c-0.425-5.128-5.436-16.098-20.18-16.351
			c-18.961-0.326-36.524,16.043-63.365,35.958c-28.201,20.931-47.839,34.671-70.814,31.987
			c-18.204-2.124-26.933-10.705-33.588-19.293c5.768,11.063,17.416,24.495,32.467,34.16
			C116.558,191.433,142.814,185.492,176.439,160.868L176.439,160.868z"/>
	</g>
</g>
</svg>
