<?xml version="1.0" encoding="utf-8"?>
<!-- Generator: Adobe Illustrator 25.3.1, SVG Export Plug-In . SVG Version: 6.00 Build 0)  -->
<svg version="1.1" id="Шар_1" xmlns="http://www.w3.org/2000/svg" xmlns:xlink="http://www.w3.org/1999/xlink" x="0px" y="0px"
	 viewBox="0 0 317.2 419.8" style="enable-background:new 0 0 317.2 419.8;" xml:space="preserve">
<style type="text/css">
	.st0{fill:#00FF80;}
	.st1{fill:#99FF3B;}
	.st2{fill:#E3FA14;}
	.st3{fill:#0ADB99;}
</style>
<g>
	<g>
		<path class="st0" d="M91.3,142.5c23.2,3.3,50.6-18,72.6-34.6c20.7-15.6,46.1-34.6,65.2-34.4c12.5,0.1,23.4,7.3,26.8,17
			c-0.3-3.7-2.1-14.7-3.4-20c-2.4-7.2-9-23.2-31.1-23.1c-22.7,0.1-48.1,19.8-68.4,34.7c-25.2,18.5-47.7,37.8-71.6,33.4
			c-12.8-2.4-18.4-8.3-20.2-13.6c0.2,3.4,1.9,14,3.3,19.8C67.7,128.6,74.2,140.1,91.3,142.5L91.3,142.5z"/>
		<path class="st1" d="M190.3,5.3c-45.4-15-91.1,3.3-115.8,41.4c0,0,5.1,11,26.1-6.5C133.3,12.9,150.3,0.4,190.3,5.3L190.3,5.3z"/>
		<path class="st2" d="M138.7,35.4c-10.1,7.4-24.7,18.5-35,25.5C91.4,69,74.3,80.6,66,65.3c-1.2,3.8-3.5,11.6-3.5,15.1
			c0.4,5,5.3,15.6,19.5,15.8c18.3,0.3,35.3-15.5,61.2-34.7c27.2-20.2,46.2-33.5,68.4-30.9c17.6,2.1,26,10.3,32.4,18.6
			c-5.6-10.7-16.8-23.7-31.4-33C196.5,5.9,171.1,11.6,138.7,35.4L138.7,35.4z"/>
		<path class="st3" d="M126.7,185.5c45.4,15.1,91.1-3.3,115.8-41.4c0,0-5.1-11-26.1,6.5C183.7,177.9,166.7,190.3,126.7,185.5
			L126.7,185.5z"/>
		<path class="st3" d="M178.4,155.4c10.1-7.4,24.7-18.5,35-25.4c12.2-8.2,29.4-19.7,37.7-4.5c1.2-3.8,3.5-11.6,3.5-15.1
			c-0.4-5-5.3-15.6-19.5-15.8c-18.3-0.3-35.3,15.5-61.2,34.7c-27.2,20.2-46.2,33.5-68.4,30.9c-17.6-2.1-26-10.3-32.4-18.6
			c5.6,10.7,16.8,23.7,31.4,33C120.5,184.9,145.9,179.2,178.4,155.4L178.4,155.4z"/>
	</g>
	<g>
		<g>
			<path class="st3" d="M40.1,256.6c-11.2,0-16.6,5.4-17.9,16.3l-1.1-0.1l1.4-14.9H7.9v70h15.1v-16.2L21.9,300l1-0.1
				c1.8,6,6.9,10.5,16.6,10.5c13.6,0,22.3-10.8,22.3-26.9C61.7,267.3,53.1,256.6,40.1,256.6z M35.4,297.7c-8.2,0-12.6-5-12.6-14.2
				c0-9.3,4.4-14.2,12.6-14.2c8.1,0,12.4,4.9,12.4,14.2C47.8,292.7,43.5,297.7,35.4,297.7z"/>
			<path class="st3" d="M106.9,283.5c0-9.1-4.4-14.1-12.6-14.1s-12.6,5-12.6,14.1c0,9.2,4.4,14.1,12.6,14.1S106.9,292.7,106.9,283.5
				L106.9,283.5z M120.8,283.5c0,16.2-10.6,26.9-26.6,26.9s-26.6-10.7-26.6-26.9s10.6-26.9,26.6-26.9S120.8,267.2,120.8,283.5
				L120.8,283.5z"/>
			<path class="st3" d="M153.9,295.5l1.3,12.6c-3.3,1.6-6.8,2.3-11,2.3c-9.9,0-15.4-6.5-15.4-17v-54.9h14.4v52.7
				c0,3.7,1.6,5.6,4.8,5.6C150,296.8,151.4,296.4,153.9,295.5L153.9,295.5z"/>
			<path class="st3" d="M201.8,259.7l-1.3,12.5c-6.3-2.7-12.4-4.1-18.2-4.1c-5.4,0-7.7,1.1-7.7,3.7c0,1.8,1.2,2.7,4.8,3.5l11.4,2.6
				c9.5,2.2,13.4,7.9,13.4,15.9c0,10.8-8.1,16.5-21.5,16.5c-9.6,0-15.5-0.7-20.7-2.4l1.4-12.9c5.8,2.5,11.8,3.6,19.4,3.6
				c5.9,0,8-1,8.1-3.9c0-2.2-1.3-3.2-5.7-4.4l-11.4-2.9c-8.7-2.2-12.5-6.8-12.5-15.1c0-9.9,8.1-15.8,21.6-15.8
				C189.5,256.6,196,257.6,201.8,259.7L201.8,259.7z"/>
			<path class="st3" d="M250.1,265.8l-1.1,0.1c-2.3-5.5-6.4-9.3-16.1-9.3c-13.9,0-22.6,10.8-22.6,26.9c0,16.2,8.6,26.9,21.6,26.9
				c11.2,0,16.6-5.9,17.9-17.5l1.1,0.1l-1.7,16H264v-51.2h-14.7L250.1,265.8z M236.5,297.7c-8.1,0-12.3-5-12.3-14.2
				c0-9.3,4.3-14.2,12.3-14.2c8.2,0,12.6,4.9,12.6,14.2C249,292.7,244.6,297.7,236.5,297.7z"/>
			<path class="st3" d="M309.3,308.1c-3.1,1.3-6.5,2.3-12.6,2.3c-10.2,0-16.7-5.8-16.7-17V271h-7.8v-13.1h7.8v-10.7l14.4-2.1v12.8
				h12.1V271h-12.1v18.6c0,5.5,1.5,7.2,6.5,7.2c2.3,0,4.4-0.4,7.1-1.5L309.3,308.1z"/>
		</g>
		<g>
			<path class="st3" d="M39.1,347.4l0.8,7.9l-1.1,0.1c-2.3-5.5-6.4-9.3-16.1-9.3C8.7,346,0,356.4,0,372c0,15.7,8.6,26,21.6,26
				c11.6,0,17.3-5.9,18.6-17.5l0.8,0.1l-0.5,12.3C40.1,402.2,35,407,25.7,407c-6.1,0-10.2-1.4-18.8-5.4L3.5,414
				c8,4.1,14.6,5.8,22.3,5.8c18.3,0,28-8,28-26.9v-45.5H39.1z M26.3,385.2c-8.1,0-12.4-4.6-12.4-13.2c0-8.6,4.3-13.2,12.4-13.2
				c8.2,0,12.5,4.6,12.5,13.2C38.8,380.6,34.4,385.2,26.3,385.2z"/>
			<path class="st3" d="M101.5,347.4l0.8,7.9l-1.1,0.1c-2.3-5.5-6.4-9.3-16.1-9.3c-13.9,0-22.6,10.8-22.6,26.9
				c0,16.2,8.6,26.9,21.6,26.9c11.2,0,16.6-5.9,17.9-17.5l1.1,0.1l-1.7,16h14.9v-51.2L101.5,347.4L101.5,347.4z M88.6,387.2
				c-8.1,0-12.4-5-12.4-14.2c0-9.3,4.3-14.2,12.4-14.2c8.2,0,12.5,4.9,12.5,14.2C101.1,382.2,96.8,387.2,88.6,387.2z"/>
			<path class="st3" d="M209.3,366.2v32.3h-14.4V368c0-6.2-2.9-9.6-8.2-9.6c-7.8,0-11.1,3.3-11.1,10.7v29.4h-14.4V368
				c0-6.2-2.9-9.6-8.2-9.6c-7.8,0-11.1,3.3-11.1,10.7v29.4h-14.4v-51.2h13.3l-1.4,14.9l1.1,0.1c1.2-11.2,6.5-16.7,17.2-16.7
				c9.5,0,15.7,5.4,16.6,16.7l0.8,0c1-11.7,6.5-16.7,16.1-16.7C202.6,345.6,209.3,353.1,209.3,366.2z"/>
			<path class="st3" d="M267,372c0-15.5-9.6-25.9-24-25.9c-14.8,0-25.2,11.1-25.2,26.9c0,16.3,9.6,26.9,27.3,26.9
				c6.1,0,12.9-1.4,19.2-4.4l-1.1-12.9c-7.1,3.2-12.6,4.4-17.5,4.4c-9,0-13-3.3-14-10.2h35C266.9,375.3,267,373.6,267,372z
				 M231.9,367.8c1.2-6.2,5-9.5,11.1-9.5c5.6,0,9.5,3,10.4,9.5H231.9z"/>
			<path class="st3" d="M314.8,349.1l-1.3,12.5c-6.3-2.7-12.4-4.1-18.2-4.1c-5.4,0-7.7,1.1-7.7,3.7c0,1.8,1.2,2.7,4.8,3.5l11.4,2.6
				c9.5,2.2,13.4,7.9,13.4,15.9c0,10.8-8.1,16.5-21.5,16.5c-9.6,0-15.5-0.7-20.7-2.4l1.4-12.9c5.8,2.5,11.8,3.6,19.4,3.6
				c5.9,0,8-1,8.1-3.9c0-2.2-1.3-3.2-5.7-4.4l-11.4-2.9c-8.7-2.2-12.4-6.8-12.4-15.1c0-9.9,8.1-15.8,21.6-15.8
				C302.6,346,309.1,347.1,314.8,349.1L314.8,349.1z"/>
		</g>
	</g>
</g>
</svg>
