<?xml version="1.0" encoding="iso-8859-1"?>
<!-- Generator: Adobe Illustrator 25.3.1, SVG Export Plug-In . SVG Version: 6.00 Build 0)  -->
<svg version="1.1" id="&#x428;&#x430;&#x440;_1" xmlns="http://www.w3.org/2000/svg" xmlns:xlink="http://www.w3.org/1999/xlink"
	 x="0px" y="0px" viewBox="0 0 339.459 452.616" style="enable-background:new 0 0 339.459 452.616;" xml:space="preserve">
<g>
	<g>
		<path style="fill:#00B0D1;" d="M36.265,288.993c-12.59,0-18.724,6.134-20.177,18.402l-1.237-0.108l1.668-16.787H0v78.879h17.057
			v-18.294l-1.399-13.129l1.184-0.108c1.991,6.78,7.802,11.837,18.617,11.837c15.388,0,25.127-12.16,25.127-30.346
			C60.585,301.045,50.846,288.993,36.265,288.993z M30.992,335.319c-9.201,0-14.151-5.596-14.151-15.98
			c0-10.438,4.95-16.034,14.151-16.034c9.093,0,13.882,5.596,13.882,16.034C44.874,329.724,40.085,335.319,30.992,335.319z"/>
		<path style="fill:#00B0D1;" d="M111.503,319.317c0-10.295-4.929-15.881-14.24-15.881s-14.24,5.586-14.24,15.881
			c0,10.409,4.929,15.888,14.24,15.888S111.503,329.725,111.503,319.317L111.503,319.317z M127.17,319.317
			c0,18.292-11.943,30.342-29.906,30.342s-29.906-12.05-29.906-30.342c0-18.292,11.943-30.342,29.906-30.342
			S127.17,301.025,127.17,319.317L127.17,319.317z"/>
		<path style="fill:#00B0D1;" d="M164.415,332.791l1.426,14.24c-3.724,1.755-7.669,2.632-12.377,2.632
			c-11.179,0-17.314-7.341-17.314-19.169v-61.895h16.216v59.37c0,4.166,1.755,6.356,5.365,6.356
			C160.035,334.325,161.569,333.883,164.415,332.791L164.415,332.791z"/>
		<path style="fill:#00B0D1;" d="M218.312,292.479l-1.42,14.133c-7.126-3.068-13.918-4.602-20.489-4.602
			c-6.135,0-8.654,1.206-8.654,4.159c0,2.083,1.313,3.068,5.365,3.945l12.82,2.96c10.737,2.518,15.117,8.875,15.117,17.964
			c0,12.157-9.089,18.62-24.206,18.62c-10.851,0-17.421-0.764-23.336-2.739l1.534-14.568c6.571,2.853,13.255,4.052,21.802,4.052
			c6.678,0,8.982-1.092,9.089-4.38c0-2.518-1.427-3.617-6.464-4.93l-12.82-3.282c-9.745-2.525-14.018-7.669-14.018-16.986
			c0-11.172,9.089-17.85,24.32-17.85C204.508,288.976,211.849,290.182,218.312,292.479L218.312,292.479z"/>
		<path style="fill:#00B0D1;" d="M271.88,290.499l0.861,8.878l-1.184,0.108c-2.636-6.241-7.21-10.492-18.186-10.492
			c-15.658,0-25.504,12.16-25.504,30.346c0,18.294,9.739,30.293,24.32,30.293c12.591,0,18.725-6.672,20.123-19.693l1.292,0.107
			l-1.937,18.079h16.734v-57.626H271.88z M257.406,335.319c-9.093,0-13.882-5.596-13.882-15.98c0-10.438,4.789-16.034,13.882-16.034
			c9.201,0,14.151,5.596,14.151,16.034C271.557,329.724,266.607,335.319,257.406,335.319z"/>
		<path style="fill:#00B0D1;" d="M339.459,347.049c-3.497,1.506-7.318,2.636-14.205,2.636c-11.514,0-18.886-6.618-18.886-19.101
			v-25.289h-8.716v-14.797h8.716v-12.052l16.249-2.421v14.474h13.667v14.797h-13.667v20.93c0,6.241,1.722,8.124,7.317,8.124
			c2.636,0,4.95-0.484,8.017-1.668L339.459,347.049z"/>
	</g>
	<g>
		<path style="fill:#00B0D1;" d="M301.945,395.362l-1.427,14.133c-7.12-3.068-13.912-4.601-20.483-4.601
			c-6.135,0-8.654,1.206-8.654,4.159c0,2.083,1.313,3.068,5.365,3.945l12.82,2.961c10.737,2.518,15.117,8.875,15.117,17.964
			c0,12.157-9.096,18.62-24.206,18.62c-10.851,0-17.421-0.764-23.336-2.739l1.534-14.568c6.571,2.853,13.255,4.052,21.802,4.052
			c6.678,0,8.975-1.092,9.089-4.38c0-2.518-1.427-3.617-6.464-4.93l-12.82-3.282c-9.745-2.525-14.018-7.669-14.018-16.986
			c0-11.172,9.089-17.85,24.32-17.85C288.14,391.859,295.481,393.065,301.945,395.362L301.945,395.362z"/>
		<path style="fill:#00B0D1;" d="M48.154,410.17l1.206,0.107c1.426-12.605,7.455-18.861,19.738-18.861
			c13.269,0,20.944,8.446,20.944,23.248v36.403H73.813V416.64c0-7.019-3.403-10.75-9.759-10.75c-9.103,0-13.048,3.731-13.048,12.063
			v33.114H34.778v-57.676h15.023L48.154,410.17z"/>
		<path style="fill:#00B0D1;" d="M131.393,438.142c-9.9,0-14.366-3.766-15.496-11.514h39.493c0.215-1.776,0.323-3.605,0.323-5.488
			c0-17.54-10.868-29.27-27.064-29.27c-16.68,0-28.41,12.483-28.41,30.346c0,18.455,10.869,30.4,30.83,30.4
			c9.631,0,17.057-3.175,24.428-9.201l-5.919-12.106C142.692,436.258,137.204,438.142,131.393,438.142z M128.649,405.805
			c6.349,0,10.653,3.336,11.676,10.6h-24.213C117.458,409.463,121.762,405.805,128.649,405.805z"/>
		<polygon style="fill:#00B0D1;" points="251.003,393.483 232.709,451.055 217.106,451.055 204.999,414.306 193.108,451.055 
			177.343,451.055 158.673,393.483 175.352,393.483 185.898,429.372 197.628,393.483 213.07,393.483 224.692,429.533 
			235.238,393.483 		"/>
	</g>
	<g>
		<path style="fill:#0087AB;" d="M93.878,160.543c26.189,3.731,56.986-20.301,81.808-38.962
			c23.289-17.515,51.976-39.029,73.476-38.788c14.052,0.161,26.37,8.225,30.228,19.136c-0.375-4.166-2.364-16.557-3.791-22.485
			c-2.726-8.111-10.161-26.109-34.976-26.001c-25.606,0.107-54.226,22.277-77.053,39.049
			c-28.339,20.824-53.737,42.632-80.696,37.656c-14.468-2.679-20.724-9.364-22.8-15.318c0.275,3.784,2.177,15.733,3.724,22.25
			C67.268,144.863,74.655,157.803,93.878,160.543L93.878,160.543z"/>
		<path style="fill:#00B0D1;" d="M205.369,5.915C154.203-11.037,102.791,9.653,74.96,52.58c0,0,5.747,12.358,29.397-7.361
			C141.209,14.489,160.412,0.503,205.369,5.915L205.369,5.915z"/>
		<path style="fill:#00C9F2;" d="M147.24,39.854c-11.333,8.299-27.79,20.871-39.458,28.667
			c-13.791,9.223-33.067,22.224-42.411,5.057c-1.36,4.24-3.905,13.081-3.992,16.993c0.462,5.579,5.914,17.515,21.956,17.79
			c20.629,0.355,39.739-17.455,68.941-39.123c30.683-22.773,52.049-37.723,77.046-34.802c19.806,2.311,29.303,11.648,36.544,20.991
			c-6.276-12.036-18.949-26.651-35.332-37.167C212.39,6.599,183.824,13.062,147.24,39.854L147.24,39.854z"/>
		<path style="fill:#005E8C;" d="M133.831,208.962c51.165,16.952,102.578-3.737,130.408-46.664c0,0-5.747-12.358-29.397,7.361
			C197.99,200.389,178.787,214.374,133.831,208.962L133.831,208.962z"/>
		<path style="fill:#005E8C;" d="M191.959,175.023c11.333-8.299,27.79-20.871,39.457-28.667
			c13.791-9.223,33.067-22.224,42.411-5.057c1.36-4.24,3.905-13.081,3.992-16.993c-0.462-5.579-5.914-17.515-21.956-17.79
			c-20.629-0.355-39.739,17.455-68.941,39.123c-30.683,22.773-52.049,37.723-77.046,34.802
			c-19.806-2.311-29.303-11.648-36.544-20.991c6.276,12.036,18.955,26.651,35.325,37.167
			C126.808,208.278,155.375,201.814,191.959,175.023L191.959,175.023z"/>
	</g>
</g>
</svg>
