<?xml version="1.0" encoding="iso-8859-1"?>
<!-- Generator: Adobe Illustrator 25.3.1, SVG Export Plug-In . SVG Version: 6.00 Build 0)  -->
<svg version="1.1" id="&#x428;&#x430;&#x440;_1" xmlns="http://www.w3.org/2000/svg" xmlns:xlink="http://www.w3.org/1999/xlink"
	 x="0px" y="0px" viewBox="0 0 528.455 465.123" style="enable-background:new 0 0 528.455 465.123;" xml:space="preserve">
<g>
	<path style="fill:#FFC700;" d="M168.714,202.154c32.968,4.698,71.756-25.563,103.012-49.06
		c29.325-22.055,65.447-49.144,92.52-48.841c17.695,0.202,33.204,10.357,38.062,24.096c-0.472-5.246-2.977-20.849-4.773-28.313
		c-3.432-10.214-12.795-32.876-44.042-32.741c-32.243,0.135-68.281,28.051-97.024,49.17
		c-35.684,26.221-67.666,53.682-101.612,47.415c-18.218-3.374-26.095-11.79-28.71-19.288c0.346,4.765,2.741,19.811,4.69,28.017
		C135.205,182.411,144.508,198.705,168.714,202.154L168.714,202.154z"/>
	<path style="fill:#FFE003;" d="M309.102,7.448c-64.427-21.346-129.166,4.706-164.209,58.759c0,0,7.237,15.561,37.016-9.269
		C228.313,18.244,252.493,0.634,309.102,7.448L309.102,7.448z"/>
	<path style="fill:#CCFF2E;" d="M235.907,50.183c-14.27,10.45-34.993,26.28-49.685,36.097
		c-17.365,11.613-41.638,27.984-53.403,6.367c-1.712,5.339-4.917,16.471-5.027,21.397c0.582,7.026,7.447,22.055,27.647,22.401
		c25.976,0.447,50.038-21.979,86.81-49.263c38.636-28.675,65.54-47.5,97.015-43.823c24.939,2.91,36.898,14.667,46.016,26.432
		c-7.903-15.156-23.86-33.559-44.481-46.8C317.943,8.309,281.973,16.447,235.907,50.183L235.907,50.183z"/>
	<path style="fill:#FAAD17;" d="M219.021,263.122c64.427,21.346,129.165-4.706,164.208-58.759c0,0-7.236-15.561-37.016,9.269
		C299.81,252.327,275.63,269.937,219.021,263.122L219.021,263.122z"/>
	<path style="fill:#FAAD17;" d="M292.216,220.387c14.27-10.449,34.992-26.28,49.684-36.097
		c17.365-11.613,41.638-27.984,53.403-6.367c1.712-5.339,4.917-16.471,5.027-21.397c-0.582-7.026-7.447-22.055-27.647-22.401
		c-25.976-0.447-50.038,21.979-86.81,49.263c-38.636,28.675-65.54,47.5-97.015,43.823c-24.939-2.91-36.898-14.667-46.016-26.432
		c7.903,15.156,23.86,33.559,44.481,46.8C210.179,262.261,246.15,254.122,292.216,220.387L292.216,220.387z"/>
</g>
<g>
	<g>
		<path style="fill:#FFC700;" d="M45.664,363.876c-15.87,0-23.59,7.72-25.39,23.17l-1.51-0.14l2.07-21.1H0.005v99.32h21.51v-23.04
			l-1.74-16.58l1.47-0.12c2.48,8.56,9.79,14.91,23.45,14.91c19.31,0,31.58-15.32,31.58-38.22
			C76.274,379.046,64.005,363.876,45.664,363.876z M39.045,422.216c-11.59,0-17.8-7.03-17.8-20.14c0-13.09,6.21-20.13,17.8-20.13
			c11.44,0,17.51,7.04,17.51,20.13C56.555,415.186,50.485,422.216,39.045,422.216z"/>
		<path style="fill:#FFC700;" d="M140.421,402.082c0-12.963-6.207-20.005-17.93-20.005c-11.723,0-17.93,7.042-17.93,20.005
			c0,13.106,6.207,19.997,17.93,19.997C134.214,422.079,140.421,415.189,140.421,402.082L140.421,402.082z M160.148,402.082
			c0,23.033-15.038,38.206-37.658,38.206s-37.658-15.173-37.658-38.206c0-23.033,15.038-38.206,37.658-38.206
			S160.148,379.049,160.148,402.082L160.148,402.082z"/>
		<path style="fill:#FFC700;" d="M207.048,419.05l1.796,17.931c-4.689,2.21-9.657,3.315-15.586,3.315
			c-14.076,0-21.802-9.244-21.802-24.146v-77.929h20.419v74.759c0,5.246,2.209,8.004,6.755,8.004
			C201.532,420.981,203.463,420.425,207.048,419.05L207.048,419.05z"/>
		<path style="fill:#FFC700;" d="M274.915,368.288l-1.797,17.796c-8.965-3.863-17.518-5.794-25.791-5.794
			c-7.725,0-10.897,1.518-10.897,5.237c0,2.623,1.653,3.863,6.756,4.968l16.143,3.728c13.519,3.171,19.036,11.167,19.036,22.62
			c0,15.307-11.454,23.446-30.489,23.446c-13.654,0-21.928-0.961-29.375-3.441l1.931-18.352c8.274,3.585,16.691,5.103,27.444,5.103
			c8.417,0,11.31-1.375,11.454-5.516c0-3.171-1.797-4.554-8.139-6.207l-16.143-4.133c-12.271-3.179-17.652-9.657-17.652-21.38
			c0-14.076,11.445-22.485,30.623-22.485C257.532,363.877,266.776,365.386,274.915,368.288L274.915,368.288z"/>
		<path style="fill:#FFC700;" d="M342.375,365.806l1.1,11.19l-1.52,0.12c-3.31-7.87-9.11-13.24-22.9-13.24
			c-19.72,0-32.14,15.31-32.14,38.21c0,23.03,12.28,38.2,30.63,38.2c15.86,0,23.59-8.41,25.37-24.83l1.58,0.15l-2.4,22.75h21.1
			v-72.55H342.375z M324.164,422.226c-11.46,0-17.52-7.04-17.52-20.14c0-13.11,6.06-20.14,17.52-20.14
			c11.59,0,17.79,7.03,17.79,20.14C341.954,415.186,335.755,422.226,324.164,422.226z"/>
		<path style="fill:#FFC700;" d="M427.484,436.986c-4.42,1.93-9.25,3.31-17.93,3.31c-14.49,0-23.74-8.28-23.74-24v-31.87h-11.03
			v-18.62h11.03v-15.17l20.42-3.04v18.21h17.24v18.62h-17.24v26.34c0,7.87,2.21,10.22,9.25,10.22c3.3,0,6.2-0.56,10.07-2.08
			L427.484,436.986z"/>
	</g>
	<path style="fill:#FFC700;" d="M478.931,422.359l22.35-2.345h27.174v18.344h-70.769v-19.583l38.628-24.829
		c7.169-4.554,12.001-9.657,12.001-17.931c0-7.456-4.689-12.828-14.902-12.828c-10.897,0-17.518,6.064-19.719,16.691l-18.901-4.276
		c3.171-17.247,16.134-29.384,39.033-29.384c21.523,0,34.073,11.445,34.073,29.519c0,21.928-24.551,38.898-49.103,45.383
		L478.931,422.359z"/>
</g>
</svg>
