<?xml version="1.0" encoding="iso-8859-1"?>
<!-- Generator: Adobe Illustrator 25.3.1, SVG Export Plug-In . SVG Version: 6.00 Build 0)  -->
<svg version="1.1" id="&#x428;&#x430;&#x440;_1" xmlns="http://www.w3.org/2000/svg" xmlns:xlink="http://www.w3.org/1999/xlink"
	 x="0px" y="0px" viewBox="0 0 343.409 457.275" style="enable-background:new 0 0 343.409 457.275;" xml:space="preserve">
<g>
	<g>
		<path style="fill:#8F36E5;" d="M94.986,162.386c26.489,3.774,57.64-20.534,82.747-39.409
			c23.556-17.716,52.572-39.477,74.319-39.233c14.214,0.163,26.672,8.319,30.575,19.356c-0.379-4.214-2.391-16.747-3.834-22.743
			c-2.757-8.204-10.278-26.408-35.378-26.3c-25.9,0.108-54.849,22.533-77.937,39.497c-28.664,21.063-54.354,43.121-81.622,38.088
			c-14.634-2.71-20.962-9.471-23.062-15.494c0.278,3.828,2.202,15.914,3.767,22.506C68.069,146.526,75.542,159.615,94.986,162.386
			L94.986,162.386z"/>
		<path style="fill:#C400FF;" d="M207.756,5.983C156.003-11.164,104,9.764,75.851,53.183c0,0,5.813,12.499,29.734-7.445
			C142.86,14.655,162.284,0.509,207.756,5.983L207.756,5.983z"/>
		<path style="fill:#D18CE5;" d="M148.961,40.311c-11.463,8.394-28.109,21.11-39.911,28.996
			c-13.949,9.329-33.447,22.479-42.898,5.115c-1.375,4.289-3.95,13.231-4.038,17.188c0.468,5.643,5.982,17.716,22.208,17.994
			c20.866,0.359,40.195-17.655,69.733-39.572c31.035-23.034,52.647-38.156,77.93-35.202c20.033,2.337,29.64,11.781,36.964,21.232
			c-6.348-12.174-19.166-26.957-35.731-37.593C214.859,6.674,185.964,13.212,148.961,40.311L148.961,40.311z"/>
		<path style="fill:#6114AD;" d="M135.397,211.36c51.752,17.147,103.755-3.78,131.905-47.2c0,0-5.813-12.499-29.734,7.445
			C200.292,202.688,180.869,216.834,135.397,211.36L135.397,211.36z"/>
		<path style="fill:#6114AD;" d="M194.192,177.032c11.463-8.394,28.108-21.11,39.91-28.996c13.949-9.329,33.447-22.479,42.898-5.115
			c1.375-4.289,3.95-13.231,4.038-17.188c-0.467-5.643-5.982-17.716-22.208-17.994c-20.866-0.359-40.195,17.655-69.733,39.572
			c-31.035,23.034-52.647,38.156-77.93,35.202c-20.033-2.337-29.64-11.781-36.964-21.232c6.348,12.174,19.166,26.957,35.737,37.593
			C128.294,210.669,157.188,204.131,194.192,177.032L194.192,177.032z"/>
	</g>
	<g>
		<g>
			<path style="fill:#8F36E5;" d="M36.681,292.301c-12.735,0-18.939,6.204-20.354,18.613l-1.252-0.109l1.687-16.98H0v79.784h17.306
				v-18.504l-1.415-13.279l1.197-0.109c2.014,6.857,7.837,11.973,18.83,11.973c15.511,0,25.361-12.3,25.361-30.695
				C61.28,304.492,51.43,292.301,36.681,292.301z M31.348,339.159c-9.252,0-14.259-5.66-14.259-16.164
				c0-10.558,5.007-16.218,14.259-16.218s14.095,5.66,14.095,16.218C45.443,333.499,40.6,339.159,31.348,339.159z"/>
			<path style="fill:#8F36E5;" d="M112.814,322.983c0-10.413-4.986-16.063-14.403-16.063s-14.403,5.65-14.403,16.063
				c0,10.528,4.986,16.063,14.403,16.063S112.814,333.511,112.814,322.983L112.814,322.983z M128.661,322.983
				c0,18.502-12.08,30.69-30.25,30.69s-30.25-12.188-30.25-30.69c0-18.502,12.08-30.69,30.25-30.69S128.661,304.481,128.661,322.983
				L128.661,322.983z"/>
			<path style="fill:#8F36E5;" d="M166.333,336.611l1.443,14.403c-3.774,1.775-7.757,2.663-12.52,2.663
				c-11.307,0-17.513-7.425-17.513-19.396v-62.599h16.402v60.052c0,4.214,1.775,6.429,5.426,6.429
				C161.902,338.163,163.453,337.716,166.333,336.611L166.333,336.611z"/>
			<path style="fill:#8F36E5;" d="M220.848,295.836l-1.443,14.295c-7.202-3.103-14.071-4.654-20.718-4.654
				c-6.205,0-8.753,1.22-8.753,4.207c0,2.107,1.328,3.103,5.427,3.99l12.967,2.994c10.86,2.547,15.291,8.97,15.291,18.17
				c0,12.296-9.2,18.834-24.491,18.834c-10.968,0-17.614-0.772-23.596-2.771l1.551-14.735c6.646,2.879,13.407,4.099,22.045,4.099
				c6.762,0,9.085-1.104,9.2-4.431c0-2.547-1.443-3.658-6.538-4.986l-12.967-3.32c-9.857-2.554-14.179-7.757-14.179-17.181
				c0-11.3,9.193-18.055,24.599-18.055C206.885,292.293,214.311,293.512,220.848,295.836L220.848,295.836z"/>
			<path style="fill:#8F36E5;" d="M275.054,293.825l0.871,8.98l-1.197,0.109c-2.667-6.313-7.347-10.613-18.395-10.613
				c-15.891,0-25.851,12.3-25.851,30.695c0,18.504,9.851,30.695,24.599,30.695c12.735,0,18.939-6.748,20.409-19.973l1.252,0.109
				l-1.905,18.286h16.925v-58.287H275.054z M260.414,339.159c-9.197,0-14.095-5.66-14.095-16.164
				c0-10.558,4.898-16.218,14.095-16.218c9.306,0,14.313,5.66,14.313,16.218C274.727,333.499,269.721,339.159,260.414,339.159z"/>
			<path style="fill:#8F36E5;" d="M343.409,351.023c-3.537,1.524-7.456,2.667-14.422,2.667c-11.647,0-19.048-6.64-19.048-19.32
				v-25.579h-8.871v-14.966h8.871v-12.191l16.381-2.395v14.585h13.878v14.966h-13.878v21.171c0,6.313,1.796,8.218,7.456,8.218
				c2.667,0,4.952-0.49,8.055-1.687L343.409,351.023z"/>
		</g>
		<g>
			<path style="fill:#8F36E5;" d="M93.662,398.317v4.082h14.857v15.293H93.662v38.042H77.226v-38.042h-7.728v-15.293h7.728v-8.272
				c0-12.409,8.218-20.409,20.953-20.409c5.66,0,11.211,0.871,14.858,2.34l-1.687,15.402c-3.32-1.252-5.714-1.905-10.286-1.905
				C95.404,389.555,93.662,391.351,93.662,398.317z"/>
			<path style="fill:#8F36E5;" d="M136.748,455.724h-16.402v-58.283h16.402V455.724z M128.55,374.725
				c6.205,0,9.532,2.994,9.532,8.421c0,5.542-3.327,8.421-9.532,8.421c-6.206,0-9.525-2.879-9.525-8.421
				C119.025,377.719,122.345,374.725,128.55,374.725L128.55,374.725z"/>
			<path style="fill:#8F36E5;" d="M177.746,440.209l1.443,14.403c-3.767,1.775-7.757,2.663-12.52,2.663
				c-11.307,0-17.506-7.425-17.506-19.389V375.28h16.395v60.052c0,4.214,1.775,6.429,5.426,6.429
				C173.315,441.761,174.866,441.314,177.746,440.209L177.746,440.209z"/>
			<path style="fill:#8F36E5;" d="M281.258,418.943v36.79h-16.436v-34.831c0-7.075-3.32-10.83-9.306-10.83
				c-8.871,0-12.626,3.755-12.626,12.191v33.47h-16.381v-34.831c0-7.075-3.32-10.83-9.306-10.83
				c-8.871,0-12.626,3.755-12.626,12.191v33.47h-16.436v-58.287h15.184l-1.633,16.925l1.197,0.109
				c1.469-12.735,7.456-19.048,19.647-19.048c10.721,0,17.796,6.095,18.885,18.994l0.816,0.054
				c1.089-13.279,7.401-19.048,18.395-19.048C273.585,395.433,281.258,403.977,281.258,418.943z"/>
		</g>
	</g>
</g>
</svg>
