<?xml version="1.0" encoding="iso-8859-1"?>
<!-- Generator: Adobe Illustrator 25.3.1, SVG Export Plug-In . SVG Version: 6.00 Build 0)  -->
<svg version="1.1" id="&#x428;&#x430;&#x440;_1" xmlns="http://www.w3.org/2000/svg" xmlns:xlink="http://www.w3.org/1999/xlink"
	 x="0px" y="0px" viewBox="0 0 343.409 435.932" style="enable-background:new 0 0 343.409 435.932;" xml:space="preserve">
<g>
	<g>
		<path style="fill:#33F214;" d="M98.334,155.313c25.329,3.609,55.129-17.417,79.135-35.469
			c22.536-16.938,50.289-39.979,71.082-39.746c13.601,0.155,25.517,7.957,29.249,18.512c-0.363-4.03-2.287-16.018-3.667-21.752
			c-2.637-7.847-9.83-25.264-33.836-25.154c-24.772,0.104-52.459,21.551-74.542,37.776c-27.415,20.145-51.986,41.243-78.066,36.422
			c-13.996-2.585-20.055-9.052-22.057-14.812c0.266,3.661,2.106,15.221,3.603,21.525C72.59,140.138,79.737,152.663,98.334,155.313
			L98.334,155.313z"/>
		<path style="fill:#5CF545;" d="M206.191,5.725c-49.498-16.406-99.235,3.616-126.158,45.144c0,0,5.56,11.955,28.439-7.121
			C144.123,14.019,162.7,0.496,206.191,5.725L206.191,5.725z"/>
		<path style="fill:#F7BDE3;" d="M149.956,38.557c-10.964,8.028-26.884,20.191-38.165,27.733
			c-13.348,8.922-31.996,21.499-41.029,4.892c-1.322,4.108-3.784,12.655-3.868,16.439c0.447,5.398,5.721,16.938,21.24,17.21
			c19.957,0.343,38.443-16.886,66.694-37.847c29.683-22.031,50.353-36.493,74.535-33.668c19.16,2.235,28.348,11.268,35.353,20.307
			c-6.071-11.644-18.331-25.782-34.174-35.955C212.983,6.393,185.348,12.632,149.956,38.557L149.956,38.557z"/>
		<path style="fill:#26B50F;" d="M136.984,202.155c49.491,16.4,99.229-3.616,126.158-45.143c0,0-5.559-11.955-28.446,7.121
			C199.052,193.855,180.475,207.384,136.984,202.155L136.984,202.155z"/>
		<path style="fill:#26B50F;" d="M193.218,169.321c10.963-8.028,26.884-20.19,38.165-27.733
			c13.348-8.922,31.996-21.493,41.035-4.892c1.315-4.108,3.778-12.655,3.862-16.439c-0.447-5.398-5.721-16.938-21.24-17.21
			c-19.957-0.343-38.443,16.886-66.694,37.847c-29.683,22.031-50.353,36.493-74.535,33.668
			c-19.16-2.235-28.348-11.268-35.353-20.307c6.071,11.644,18.337,25.782,34.174,35.955
			C130.19,201.492,157.826,195.246,193.218,169.321L193.218,169.321z"/>
	</g>
	<g>
		<g>
			<path style="fill:#33F214;" d="M43.642,279.412c-12.128,0-18.01,5.882-19.363,17.646l-1.145-0.104l1.562-16.084H8.819v75.684
				h16.396v-17.541l-1.301-12.649l1.093-0.052c1.926,6.506,7.495,11.295,17.906,11.295c14.679,0,24.048-11.66,24.048-29.097
				C66.962,290.967,57.592,279.412,43.642,279.412z M38.593,323.864c-8.849,0-13.585-5.361-13.585-15.355
				c0-9.994,4.737-15.355,13.585-15.355c8.693,0,13.325,5.361,13.325,15.355C51.919,318.503,47.286,323.864,38.593,323.864z"/>
			<path style="fill:#33F214;" d="M115.841,308.517c0-9.881-4.73-15.246-13.666-15.246c-8.936,0-13.666,5.365-13.666,15.246
				c0,9.985,4.73,15.24,13.666,15.24C111.11,323.757,115.841,318.502,115.841,308.517L115.841,308.517z M130.874,308.517
				c0,17.553-11.456,29.113-28.698,29.113c-17.236,0-28.698-11.56-28.698-29.113c0-17.56,11.462-29.119,28.698-29.119
				C119.418,279.398,130.874,290.958,130.874,308.517L130.874,308.517z"/>
			<path style="fill:#33F214;" d="M166.614,321.446l1.367,13.666c-3.577,1.685-7.361,2.521-11.877,2.521
				c-10.724,0-16.614-7.043-16.614-18.396v-59.386h15.558v56.969c0,3.998,1.685,6.097,5.151,6.097
				C162.408,322.917,163.879,322.496,166.614,321.446L166.614,321.446z"/>
			<path style="fill:#33F214;" d="M218.332,282.762l-1.368,13.562c-6.829-2.942-13.348-4.419-19.652-4.419
				c-5.89,0-8.307,1.16-8.307,3.998c0,1.996,1.263,2.942,5.151,3.784l12.298,2.838c10.302,2.417,14.501,8.514,14.501,17.236
				c0,11.67-8.722,17.871-23.23,17.871c-10.406,0-16.711-0.732-22.387-2.624l1.471-13.983c6.311,2.734,12.72,3.894,20.916,3.894
				c6.415,0,8.624-1.056,8.728-4.205c0-2.423-1.367-3.473-6.201-4.73l-12.298-3.156c-9.356-2.417-13.458-7.361-13.458-16.296
				c0-10.717,8.728-17.132,23.339-17.132C205.088,279.399,212.131,280.553,218.332,282.762L218.332,282.762z"/>
			<path style="fill:#33F214;" d="M269.756,280.869l0.833,8.537l-1.145,0.104c-2.551-5.986-6.975-10.098-17.489-10.098
				c-14.991,0-24.464,11.66-24.464,29.097c0,17.541,9.37,29.097,23.319,29.097c12.076,0,17.958-6.402,19.363-18.895l1.197,0.104
				l-1.822,17.333h16.084v-55.279H269.756z M255.858,323.864c-8.745,0-13.325-5.361-13.325-15.355
				c0-9.994,4.581-15.355,13.325-15.355c8.849,0,13.585,5.361,13.585,15.355C269.443,318.503,264.707,323.864,255.858,323.864z"/>
			<path style="fill:#33F214;" d="M334.612,335.107c-3.384,1.457-7.079,2.55-13.69,2.55c-11.035,0-18.062-6.35-18.062-18.322
				v-24.256h-8.432v-14.21h8.432v-11.555l15.563-2.342v13.898h13.117v14.21h-13.117v20.04c0,6.038,1.666,7.808,7.027,7.808
				c2.499,0,4.737-0.417,7.652-1.614L334.612,335.107z"/>
		</g>
		<g>
			<path style="fill:#33F214;" d="M43.835,381.046l-1.368,13.562c-6.829-2.942-13.348-4.419-19.652-4.419
				c-5.89,0-8.307,1.16-8.307,3.998c0,1.996,1.263,2.942,5.151,3.784l12.298,2.838c10.302,2.417,14.508,8.514,14.508,17.236
				c0,11.67-8.728,17.871-23.236,17.871c-10.406,0-16.711-0.732-22.387-2.624l1.471-13.983c6.311,2.734,12.72,3.888,20.916,3.888
				c6.415,0,8.624-1.05,8.728-4.205c0-2.417-1.367-3.467-6.201-4.73l-12.298-3.149C4.102,408.694,0,403.75,0,394.815
				c0-10.724,8.728-17.132,23.339-17.132C30.59,377.683,37.633,378.836,43.835,381.046L43.835,381.046z"/>
			<path style="fill:#33F214;" d="M106.157,405.741c0-16.813-10.41-28.056-25.922-28.056c-15.98,0-27.275,11.972-27.275,29.097
				c0,17.698,10.41,29.149,29.565,29.149c6.611,0,13.95-1.51,20.717-4.737l-1.145-13.898c-7.704,3.383-13.69,4.737-18.947,4.737
				c-9.682,0-14.054-3.592-15.147-11.035h37.842C106.053,409.333,106.157,407.511,106.157,405.741z M68.211,401.213
				c1.301-6.715,5.361-10.202,12.024-10.202c6.09,0,10.202,3.227,11.191,10.202H68.211z"/>
			<path style="fill:#33F214;" d="M155.033,379.247l-1.145,16.084l-5.778-0.52c-12.596-1.145-16.5,5.465-16.5,16.188v23.423h-15.563
				v-55.279h14.835l-1.405,16.5l1.405,0.104c1.666-12.076,6.611-18.062,15.772-18.062
				C149.672,377.686,152.431,378.206,155.033,379.247z"/>
			<path style="fill:#33F214;" d="M178.813,434.445h-15.558v-55.291h15.558V434.445z M171.031,357.604
				c5.883,0,9.039,2.838,9.039,7.989c0,5.255-3.156,7.989-9.039,7.989c-5.89,0-9.039-2.734-9.039-7.989
				C161.992,360.442,165.141,357.604,171.031,357.604L171.031,357.604z"/>
			<path style="fill:#33F214;" d="M230.301,379.143l0.833,8.537l-1.145,0.104c-2.499-5.986-6.923-10.098-17.438-10.098
				c-15.043,0-24.516,11.66-24.516,29.097c0,17.594,9.369,29.149,23.371,29.149c12.076,0,17.958-6.403,19.311-18.947l1.25,0.104
				l-1.874,17.333h16.084v-55.279H230.301z M216.455,422.138c-8.745,0-13.377-5.361-13.377-15.355
				c0-9.994,4.633-15.355,13.377-15.355c8.797,0,13.534,5.361,13.534,15.355C229.988,416.777,225.251,422.138,216.455,422.138z"/>
			<path style="fill:#33F214;" d="M285.084,419.73l1.367,13.666c-3.577,1.678-7.361,2.521-11.877,2.521
				c-10.724,0-16.614-7.043-16.614-18.396v-59.386h15.558v56.969c0,3.991,1.685,6.097,5.151,6.097
				C280.878,421.2,282.349,420.779,285.084,419.73L285.084,419.73z"/>
			<path style="fill:#33F214;" d="M343.409,405.741c0-16.813-10.41-28.056-25.922-28.056c-15.98,0-27.275,11.972-27.275,29.097
				c0,17.698,10.41,29.149,29.565,29.149c6.61,0,13.95-1.51,20.717-4.737l-1.145-13.898c-7.704,3.383-13.689,4.737-18.947,4.737
				c-9.682,0-14.054-3.592-15.147-11.035h37.842C343.305,409.333,343.409,407.511,343.409,405.741z M305.464,401.213
				c1.301-6.715,5.361-10.202,12.024-10.202c6.09,0,10.202,3.227,11.191,10.202H305.464z"/>
		</g>
	</g>
</g>
</svg>
