<?xml version="1.0" encoding="iso-8859-1"?>
<!-- Generator: Adobe Illustrator 25.3.1, SVG Export Plug-In . SVG Version: 6.00 Build 0)  -->
<svg version="1.1" id="&#x428;&#x430;&#x440;_1" xmlns="http://www.w3.org/2000/svg" xmlns:xlink="http://www.w3.org/1999/xlink"
	 x="0px" y="0px" viewBox="0 0 343.409 476.816" style="enable-background:new 0 0 343.409 476.816;" xml:space="preserve">
<g>
	<g>
		<path style="fill:#4A8FF5;" d="M94.978,162.401c26.491,3.774,57.644-20.543,82.747-39.412
			c23.558-17.717,52.584-39.473,74.325-39.236c14.221,0.163,26.681,8.32,30.584,19.357c-0.379-4.214-2.391-16.749-3.835-22.745
			c-2.757-8.205-10.278-26.41-35.381-26.302c-25.902,0.108-54.86,22.541-77.943,39.5c-28.666,21.064-54.358,43.132-81.629,38.091
			c-14.635-2.71-20.97-9.472-23.07-15.495c0.285,3.828,2.209,15.915,3.774,22.508C68.059,146.54,75.525,159.63,94.978,162.401
			L94.978,162.401z"/>
		<path style="fill:#9CA6BD;" d="M207.757,5.986C156-11.169,103.993,9.767,75.841,53.19c0,0,5.813,12.5,29.744-7.446
			C142.856,14.666,162.28,0.519,207.757,5.986L207.757,5.986z"/>
		<path style="fill:#BFC7D9;" d="M148.954,40.317c-11.464,8.395-28.111,21.112-39.907,28.998
			c-13.957,9.33-33.456,22.48-42.908,5.115c-1.375,4.296-3.943,13.232-4.038,17.189c0.468,5.644,5.983,17.717,22.21,17.995
			c20.875,0.359,40.198-17.656,69.738-39.575c31.038-23.036,52.658-38.159,77.936-35.205c20.035,2.337,29.642,11.789,36.973,21.234
			c-6.355-12.175-19.174-26.959-35.74-37.596C214.858,6.684,185.961,13.216,148.954,40.317L148.954,40.317z"/>
		<path style="fill:#6E7591;" d="M135.393,211.381c51.749,17.155,103.764-3.781,131.915-47.204c0,0-5.813-12.5-29.744,7.446
			C200.286,202.708,180.868,216.855,135.393,211.381L135.393,211.381z"/>
		<path style="fill:#9CA6BD;" d="M194.193,177.05c11.464-8.395,28.111-21.112,39.906-28.998c13.957-9.33,33.456-22.48,42.908-5.115
			c1.375-4.296,3.943-13.232,4.038-17.189c-0.467-5.644-5.983-17.711-22.21-17.995c-20.868-0.359-40.198,17.656-69.738,39.575
			c-31.038,23.036-52.658,38.159-77.936,35.205c-20.035-2.337-29.642-11.782-36.973-21.234c6.355,12.175,19.174,26.959,35.74,37.596
			C128.289,210.69,157.186,204.158,194.193,177.05L194.193,177.05z"/>
	</g>
	<g>
		<g>
			<path style="fill:#4A8FF5;" d="M36.681,292.319c-12.74,0-18.95,6.21-20.39,18.61l-1.22-0.11l1.66-16.95H0.001v79.79h17.29v-18.51
				l-1.41-13.32l1.19-0.09c1.99,6.87,7.86,11.97,18.84,11.97c15.51,0,25.37-12.3,25.37-30.7
				C61.281,304.509,51.421,292.319,36.681,292.319z M31.361,339.189c-9.31,0-14.29-5.65-14.29-16.18c0-10.52,4.98-16.18,14.29-16.18
				c9.2,0,14.07,5.66,14.07,16.18C45.431,333.539,40.561,339.189,31.361,339.189z"/>
			<path style="fill:#4A8FF5;" d="M112.807,323.012c0-10.414-4.986-16.071-14.404-16.071s-14.404,5.657-14.404,16.071
				c0,10.529,4.986,16.071,14.404,16.071S112.807,333.541,112.807,323.012L112.807,323.012z M128.655,323.012
				c0,18.51-12.081,30.699-30.252,30.699c-18.178,0-30.252-12.189-30.252-30.699c0-18.503,12.074-30.692,30.252-30.692
				C116.574,292.32,128.655,304.509,128.655,323.012L128.655,323.012z"/>
			<path style="fill:#4A8FF5;" d="M166.329,336.641l1.443,14.404c-3.767,1.775-7.757,2.663-12.521,2.663
				c-11.301,0-17.514-7.426-17.514-19.391v-62.611h16.403v60.056c0,4.214,1.775,6.43,5.434,6.43
				C161.897,338.192,163.449,337.752,166.329,336.641L166.329,336.641z"/>
			<path style="fill:#4A8FF5;" d="M220.849,295.865l-1.443,14.296c-7.202-3.103-14.072-4.655-20.719-4.655
				c-6.206,0-8.754,1.22-8.754,4.207c0,2.107,1.328,3.103,5.434,3.991l12.961,2.995c10.861,2.547,15.292,8.977,15.292,18.171
				c0,12.297-9.194,18.835-24.486,18.835c-10.976,0-17.623-0.772-23.605-2.771l1.552-14.736c6.647,2.886,13.408,4.099,22.054,4.099
				c6.755,0,9.086-1.104,9.194-4.431c0-2.548-1.443-3.659-6.538-4.987l-12.968-3.32c-9.858-2.554-14.18-7.764-14.18-17.182
				c0-11.301,9.201-18.056,24.601-18.056C206.884,292.321,214.31,293.534,220.849,295.865L220.849,295.865z"/>
			<path style="fill:#4A8FF5;" d="M275.031,293.869l0.89,8.99l-1.22,0.09c-2.65-6.31-7.31-10.63-18.39-10.63
				c-15.85,0-25.82,12.3-25.82,30.7c0,18.5,9.87,30.69,24.6,30.69c12.75,0,18.95-6.76,20.39-19.94l1.26,0.11l-1.92,18.28h16.95
				v-58.29H275.031z M260.411,339.189c-9.2,0-14.08-5.65-14.08-16.17c0-10.53,4.88-16.18,14.08-16.18c9.31,0,14.29,5.65,14.29,16.18
				C274.701,333.539,269.721,339.189,260.411,339.189z"/>
			<path style="fill:#4A8FF5;" d="M343.411,351.049c-3.55,1.55-7.43,2.66-14.41,2.66c-11.63,0-19.06-6.65-19.06-19.28v-25.6h-8.86
				v-14.96h8.86v-12.19l16.4-2.44v14.63h13.86v14.96h-13.86v21.17c0,6.31,1.78,8.19,7.43,8.19c2.65,0,4.98-0.44,8.09-1.66
				L343.411,351.049z"/>
		</g>
		<g>
			<path style="fill:#4A8FF5;" d="M90.311,394.269c-12.74,0-18.95,6.2-20.38,18.61l-1.23-0.11l1.67-16.95h-16.74v79.78h17.29v-18.51
				l-1.4-13.31l1.18-0.09c2,6.87,7.87,11.97,18.83,11.97c15.52,0,25.38-12.31,25.38-30.7
				C114.911,406.459,105.051,394.269,90.311,394.269z M84.991,441.139c-9.3,0-14.29-5.65-14.29-16.18
				c0-10.52,4.99-16.18,14.29-16.18c9.2,0,14.08,5.66,14.08,16.18C99.071,435.489,94.191,441.139,84.991,441.139z"/>
			<path style="fill:#4A8FF5;" d="M153.033,438.587l1.443,14.404c-3.774,1.775-7.757,2.663-12.521,2.663
				c-11.301,0-17.514-7.426-17.514-19.398v-62.604h16.403v60.056c0,4.214,1.775,6.43,5.434,6.43
				C148.602,440.139,150.154,439.699,153.033,438.587L153.033,438.587z"/>
			<path style="fill:#4A8FF5;" d="M203.011,395.809l0.88,9l-1.21,0.09c-2.66-6.32-7.32-10.63-18.4-10.63
				c-15.84,0-25.82,12.3-25.82,30.69c0,18.5,9.87,30.69,24.6,30.69c12.75,0,18.95-6.76,20.39-19.94l1.26,0.11l-1.92,18.28h16.95
				v-58.29H203.011z M188.381,441.139c-9.2,0-14.07-5.66-14.07-16.18c0-10.53,4.87-16.18,14.07-16.18c9.31,0,14.3,5.65,14.3,16.18
				C202.681,435.479,197.691,441.139,188.381,441.139z"/>
			<path style="fill:#4A8FF5;" d="M289.771,395.819l-24.26,63.6c-5.1,13.3-11.31,17.4-19.95,17.4c-4.1,0-8.75-0.67-13.96-2.55
				l1.55-14.63c3.54,1.11,5.99,1.55,8.97,1.55c3.24,0,6.24-0.49,8.78-6.68l-23.63-58.69h17.85l14.16,39.19l13.65-39.19H289.771z"/>
		</g>
	</g>
</g>
</svg>
