<?xml version="1.0" encoding="iso-8859-1"?>
<!-- Generator: Adobe Illustrator 25.3.1, SVG Export Plug-In . SVG Version: 6.00 Build 0)  -->
<svg version="1.1" id="&#x428;&#x430;&#x440;_1" xmlns="http://www.w3.org/2000/svg" xmlns:xlink="http://www.w3.org/1999/xlink"
	 x="0px" y="0px" viewBox="0 0 495.417 458.873" style="enable-background:new 0 0 495.417 458.873;" xml:space="preserve">
<g>
	<g>
		<path style="fill:#FFC700;" d="M153.429,199.561c32.55,4.635,70.833-25.237,101.687-48.435
			c28.948-21.767,64.61-48.509,91.328-48.21c17.482,0.2,32.784,10.226,37.576,23.789c-0.458-5.184-2.937-20.577-4.709-27.958
			c-3.386-10.076-12.631-32.451-43.475-32.318c-31.827,0.142-67.406,27.7-95.78,48.543c-35.221,25.886-66.798,52.994-100.306,46.804
			c-17.981-3.328-25.761-11.641-28.34-19.038c0.341,4.701,2.704,19.554,4.627,27.658
			C120.354,180.066,129.532,196.158,153.429,199.561L153.429,199.561z"/>
		<path style="fill:#FFE003;" d="M292.015,7.355c-63.595-21.076-127.506,4.643-162.104,58.004c0,0,7.148,15.36,36.545-9.153
			C212.269,18.014,236.133,0.632,292.015,7.355L292.015,7.355z"/>
		<path style="fill:#CCFF2E;" d="M219.76,49.541c-14.087,10.318-34.548,25.944-49.042,35.629
			c-17.149,11.466-41.112,27.625-52.72,6.291c-1.689,5.275-4.851,16.258-4.967,21.126c0.574,6.931,7.355,21.767,27.3,22.108
			c25.636,0.441,49.391-21.7,85.686-48.634c38.142-28.299,64.702-46.887,95.771-43.259c24.621,2.879,36.428,14.487,45.431,26.102
			c-7.805-14.969-23.564-33.133-43.917-46.205C300.745,8.204,265.232,16.234,219.76,49.541L219.76,49.541z"/>
		<path style="fill:#FAAD17;" d="M203.091,259.746c63.594,21.076,127.506-4.643,162.103-58.003c0,0-7.148-15.36-36.545,9.153
			C282.836,249.088,258.972,266.469,203.091,259.746L203.091,259.746z"/>
		<path style="fill:#FAAD17;" d="M275.346,217.56c14.087-10.318,34.547-25.944,49.042-35.629
			c17.149-11.466,41.112-27.625,52.72-6.291c1.689-5.275,4.851-16.258,4.967-21.126c-0.574-6.931-7.355-21.767-27.3-22.108
			c-25.636-0.441-49.391,21.7-85.686,48.634c-38.142,28.299-64.702,46.887-95.771,43.259c-24.621-2.879-36.428-14.487-45.431-26.102
			c7.805,14.969,23.564,33.133,43.917,46.205C194.361,258.897,229.873,250.868,275.346,217.56L275.346,217.56z"/>
	</g>
	<g>
		<g>
			<path style="fill:#FFC700;" d="M44.985,359.146c-15.641,0-23.194,7.62-24.999,22.86l-1.47-0.133l2.005-20.788H0v97.789h21.189
				v-22.659l-1.671-16.309l1.403-0.134c2.473,8.422,9.692,14.638,23.127,14.638c18.983,0,31.081-15.039,31.081-37.632
				C75.13,374.118,63.032,359.146,44.985,359.146z M38.434,416.629c-11.363,0-17.512-6.951-17.512-19.852
				c0-12.9,6.15-19.852,17.512-19.852c11.296,0,17.312,6.952,17.312,19.852C55.746,409.678,49.73,416.629,38.434,416.629z"/>
			<path style="fill:#FFC700;" d="M138.337,396.785c0-12.772-6.116-19.703-17.665-19.703s-17.665,6.931-17.665,19.703
				c0,12.906,6.116,19.703,17.665,19.703S138.337,409.691,138.337,396.785L138.337,396.785z M157.766,396.785
				c0,22.691-14.811,37.635-37.094,37.635c-22.283,0-37.094-14.944-37.094-37.635c0-22.69,14.811-37.634,37.094-37.634
				C142.955,359.151,157.766,374.095,157.766,396.785L157.766,396.785z"/>
			<path style="fill:#FFC700;" d="M203.961,414.041l1.905,17.931c-4.618,1.772-9.652,2.446-16.441,2.446
				c-12.639,0-20.519-9.103-20.519-23.772V333.88h20.111v73.638c0,5.167,2.172,7.88,6.249,7.88
				C198.528,415.398,200.566,415.131,203.961,414.041L203.961,414.041z"/>
			<path style="fill:#FFC700;" d="M271.764,411.188c0,14.403-11.416,23.231-30.029,23.231c-10.193,0-19.837-2.172-29.347-6.382
				l4.077-15.085c10.051,3.669,16.85,5.026,24.996,5.026c7.613,0,11.557-2.039,11.557-6.249c0-3.262-1.631-4.892-7.472-6.116
				l-14.403-3.12c-12.639-2.854-18.755-9.652-18.755-21.201c0-13.721,11.549-22.141,30.437-22.141
				c8.828,0,17.257,1.631,26.085,5.567l-3.528,14.944c-6.798-2.846-15.218-4.343-23.106-4.343c-7.331,0-11.133,1.905-11.133,5.566
				c0,2.721,1.764,4.219,6.107,5.167l15.36,3.262C265.107,391.893,271.764,399.506,271.764,411.188L271.764,411.188z"/>
			<path style="fill:#FFC700;" d="M333.606,361.017l1.069,11.029l-1.47,0.134c-3.275-7.754-9.024-13.034-22.592-13.034
				c-19.384,0-31.616,15.106-31.616,37.632c0,22.726,12.032,37.632,30.146,37.632c15.641,0,23.194-8.288,24.999-24.464l1.538,0.134
				l-2.34,22.459h20.788v-71.52H333.606z M315.626,416.629c-11.229,0-17.245-6.951-17.245-19.852c0-12.9,6.016-19.852,17.245-19.852
				c11.43,0,17.579,6.952,17.579,19.852C333.205,409.678,327.056,416.629,315.626,416.629z"/>
			<path style="fill:#FFC700;" d="M416.356,430.867c-4.345,2.072-9.091,3.543-17.713,3.543c-14.237,0-23.328-8.155-23.328-23.662
				v-31.348H364.42v-18.315h10.895v-14.972l20.119-3.008v17.98h16.978v18.315h-16.978v25.934c0,7.754,2.139,10.093,9.09,10.093
				c3.275,0,6.082-0.869,9.892-2.473L416.356,430.867z"/>
		</g>
		<polygon style="fill:#FFC700;" points="475.846,432.519 475.846,351.809 478.975,352.624 457.915,364.855 447.997,348.688 
			472.859,333.878 495.417,333.878 495.417,432.519 		"/>
	</g>
</g>
</svg>
