<?xml version="1.0" encoding="utf-8"?>
<!-- Generator: Adobe Illustrator 24.3.0, SVG Export Plug-In . SVG Version: 6.00 Build 0)  -->
<svg version="1.1" id="Слой_1" xmlns="http://www.w3.org/2000/svg" xmlns:xlink="http://www.w3.org/1999/xlink" x="0px" y="0px"
	 viewBox="0 0 512 134.4" style="enable-background:new 0 0 512 134.4;" xml:space="preserve">
<style type="text/css">
	.st0{fill:#FACB0F;}
	.st1{fill:#F57908;}
	.st2{fill:#FC00CB;}
	.st3{fill:#07C807;}
	.st4{fill:#0963F4;}
	.st5{fill:#9B309B;}
</style>
<g id="layer1" transform="translate(126.47083,-218.28858)">
	<path id="path4571" class="st0" d="M271.8,257.1c0-0.3,0.2-0.4,0.5-0.4h112.9c0.3,0,0.4,0.2,0.4,0.4v25.4c0,0.3-0.1,0.4-0.4,0.4
		h-84.3v43.6h84.3c0.3,0,0.4,0.2,0.4,0.4v25.4c0,0.3-0.1,0.4-0.4,0.4H272.2c-0.3,0-0.5-0.1-0.5-0.4V257.1z"/>
	<path id="path4557" class="st1" d="M264.5,256.7c0.3,0,0.5,0.2,0.5,0.4v95.1c0,0.3-0.2,0.4-0.5,0.4h-29.2c-0.3,0-0.5-0.1-0.5-0.4
		v-95.1c0-0.3,0.2-0.4,0.5-0.4L264.5,256.7z"/>
	<path id="path4543" class="st2" d="M227.7,256.7c0.3,0,0.5,0.2,0.5,0.4v25.4c0,0.3-0.2,0.4-0.5,0.4h-84.3v8.6h84.3
		c0.3,0,0.5,0.2,0.5,0.5v60.4c0,0.3-0.2,0.4-0.5,0.4H114.9c-0.3,0-0.5-0.1-0.5-0.4v-25.4c0-0.3,0.2-0.4,0.5-0.4h84.3v-8.6h-84.3
		c-0.3,0-0.5-0.1-0.5-0.4v-60.4c0-0.3,0.2-0.4,0.5-0.4H227.7z"/>
	<path id="path4529" class="st3" d="M22.5,256.7c0.3,0,0.4,0.2,0.4,0.4v69.1h55.8v-69.1c0-0.3,0.2-0.4,0.4-0.4h28.1
		c0.3,0,0.5,0.2,0.5,0.4v95.1c0,0.3-0.2,0.4-0.5,0.4H-5.6c-0.3,0-0.5-0.1-0.5-0.4v-95.1c0-0.3,0.2-0.4,0.5-0.4L22.5,256.7z"/>
	<path id="path4501" class="st4" d="M-13.1,256.7c0.3,0,0.4,0.2,0.4,0.4v95.1c0,0.3-0.1,0.4-0.4,0.4h-28.2c-0.3,0-0.4-0.1-0.4-0.4
		v-69.1h-13.5v69.1c0,0.3-0.2,0.4-0.5,0.4h-28.1c-0.3,0-0.4-0.1-0.4-0.4v-69.1h-13.3v69.1c0,0.3-0.1,0.4-0.4,0.4H-126
		c-0.3,0-0.5-0.1-0.5-0.4v-95.1c0-0.3,0.2-0.4,0.5-0.4L-13.1,256.7z"/>
	<path id="path4611" class="st5" d="M-126.5,218.3v29.2h5.3v-23.9h12.4h2.2h4.1c2,0,3,0.9,3,2.6v2.1v0.8c0,1-0.2,1.6-0.6,2
		c-0.4,0.4-1.2,0.6-2.4,0.6h-4.1h-10.3v5.3h10.3h4.1c2.9,0,5-0.7,6.3-2c1.3-1.4,2-3.3,2-5.9v-0.8v-2.1c0-2.5-0.7-4.4-2.1-5.8
		c-1.4-1.4-3.5-2.1-6.1-2.1h-4.1h-2.2L-126.5,218.3z M-80.2,218.3c-2.6,0-4.5,0.6-5.7,1.8c-1.2,1.2-1.8,3.1-1.8,5.6V240
		c0,2.5,0.6,4.4,1.7,5.7c1.2,1.2,3.1,1.8,5.7,1.8h6.4h2.7h7.4c2.7,0,4.6-0.6,5.7-1.8c1.2-1.2,1.8-3.1,1.8-5.7v-14.3
		c0-2.5-0.6-4.4-1.8-5.6c-1.2-1.2-3.1-1.8-5.7-1.8H-71h-2.7H-80.2z M-49.3,218.3v21.3c0,5.3,2.8,7.9,8.3,7.9h3.4h4.4h8.6v-5.3h-8.6
		h-4.4H-41c-2,0-2.9-0.9-2.9-2.6v-21.3H-49.3z M-11.6,218.3c-1.3,0-2.5,0.2-3.5,0.6c-1,0.4-1.9,1-2.6,1.7c-0.7,0.7-1.2,1.5-1.6,2.5
		c-0.3,0.9-0.5,1.9-0.5,3v1.5c0,1.2,0.2,2.2,0.5,3.2c0.3,0.9,0.8,1.8,1.5,2.5c0.7,0.7,1.5,1.2,2.6,1.6c1,0.4,2.3,0.6,3.7,0.6H3h1
		c2,0,3,0.9,3,2.6v1.6c0,0.4-0.1,0.7-0.3,1c-0.2,0.3-0.4,0.6-0.7,0.8c-0.3,0.2-0.6,0.4-1,0.6c-0.3,0.1-0.7,0.2-1,0.2H3h-22.4v5.2H3
		h1c1.3,0,2.5-0.2,3.5-0.6c1-0.4,1.9-1,2.6-1.7c0.7-0.7,1.2-1.5,1.6-2.5c0.4-1,0.6-2,0.6-3.2V238c0-1.1-0.2-2.1-0.5-3.1
		c-0.3-1-0.8-1.8-1.5-2.5c-0.7-0.7-1.5-1.3-2.6-1.7c-1-0.4-2.2-0.6-3.7-0.6H3h-14.6c-2,0-2.9-0.9-2.9-2.6v-1.4c0-0.4,0.1-0.7,0.2-1
		c0.2-0.3,0.4-0.6,0.7-0.9c0.3-0.2,0.6-0.4,1-0.6c0.3-0.1,0.7-0.2,1-0.2H1.7H3h8.8v-5.2H3H1.7L-11.6,218.3z M29.9,218.3
		c-4.2,0-6.9,2.6-8.2,7.8l-5.3,21.3H22l5.3-21.3c0.5-1.8,1.4-2.7,2.9-2.7h2h1.2h3.2c1.4,0,2.4,0.9,2.8,2.7l1.5,5.6h-1.5h-3.7h-4.6
		l-1.2,5.4h5.8h3.7h2.9l2.5,10.4h5.7l-5.3-21.3c-1.3-5.2-4-7.8-8.3-7.8h-3.6h-1.2H29.9z M50.8,218.3v5.2h11v24h5.3v-24h11v-5.2H50.8
		z M-80.2,223.5h6.4h2.7h7.4c0.7,0,1.2,0.2,1.6,0.6c0.4,0.4,0.6,0.9,0.6,1.7V240c0,0.4,0,0.8-0.1,1.1c0,0.3-0.1,0.5-0.3,0.7
		c-0.1,0.2-0.3,0.3-0.6,0.3c-0.3,0.1-0.6,0.1-1.1,0.1H-71h-2.7h-6.4c-0.5,0-0.9,0-1.2-0.1c-0.3-0.1-0.5-0.2-0.6-0.3
		c-0.1-0.2-0.2-0.4-0.3-0.7c0-0.3,0-0.7,0-1.1v-14.3c0-0.7,0.2-1.3,0.5-1.7C-81.4,223.7-80.9,223.5-80.2,223.5L-80.2,223.5z"/>
</g>
</svg>
