<?xml version="1.0" encoding="iso-8859-1"?>
<!-- Generator: Adobe Illustrator 25.3.1, SVG Export Plug-In . SVG Version: 6.00 Build 0)  -->
<svg version="1.1" id="&#x428;&#x430;&#x440;_1" xmlns="http://www.w3.org/2000/svg" xmlns:xlink="http://www.w3.org/1999/xlink"
	 x="0px" y="0px" viewBox="0 0 312 407.045" style="enable-background:new 0 0 312 407.045;" xml:space="preserve">
<g>
	<g>
		<path style="fill:#0087AB;" d="M83.17,144.405c23.554,3.352,51.255-18.266,73.58-35.047c20.945-15.749,46.755-35.1,66.088-34.885
			c12.647,0.145,23.722,7.399,27.19,17.211c-0.336-3.746-2.128-14.891-3.41-20.226c-2.447-7.295-9.139-23.485-31.458-23.386
			c-23.032,0.099-48.779,20.04-69.306,35.129c-25.486,18.724-48.333,38.341-72.583,33.859c-13.012-2.401-18.643-8.42-20.51-13.772
			c0.249,3.404,1.966,14.155,3.352,20.011C59.233,130.297,65.878,141.941,83.17,144.405L83.17,144.405z"/>
		<path style="fill:#00B0D1;" d="M183.453,5.322C137.434-9.928,91.189,8.68,66.156,47.293c0,0,5.167,11.116,26.442-6.622
			C125.744,13.035,143.012,0.457,183.453,5.322L183.453,5.322z"/>
		<path style="fill:#00C9F2;" d="M131.166,35.848c-10.194,7.463-24.999,18.771-35.489,25.787
			c-12.409,8.292-29.747,19.982-38.144,4.546c-1.224,3.816-3.514,11.766-3.595,15.285c0.418,5.016,5.323,15.749,19.751,15.999
			c18.556,0.319,35.743-15.697,62.006-35.187c27.602-20.481,46.825-33.928,69.301-31.302c17.813,2.076,26.355,10.473,32.873,18.875
			c-5.648-10.826-17.048-23.972-31.777-33.43C189.768,5.939,164.074,11.749,131.166,35.848L131.166,35.848z"/>
		<path style="fill:#1F5E8C;" d="M119.106,187.955c46.019,15.251,92.263-3.363,117.297-41.971c0,0-5.172-11.116-26.448,6.622
			C176.809,180.243,159.54,192.82,119.106,187.955L119.106,187.955z"/>
		<path style="fill:#005E8C;" d="M171.389,157.428c10.194-7.463,24.998-18.77,35.488-25.787c12.409-8.292,29.748-19.988,38.15-4.546
			c1.224-3.816,3.508-11.766,3.595-15.285c-0.418-5.016-5.323-15.749-19.756-15.999c-18.556-0.319-35.738,15.703-62.006,35.187
			c-27.602,20.481-46.819,33.928-69.301,31.302c-17.813-2.076-26.355-10.473-32.873-18.881
			c5.648,10.832,17.048,23.972,31.777,33.435C112.792,187.338,138.48,181.528,171.389,157.428L171.389,157.428z"/>
	</g>
	<g>
		<g>
			<path style="fill:#00B0D1;" d="M31.2,301.603c-8.28,0-12.717-5.028-12.717-14.387c0-9.359,4.436-14.387,12.717-14.387
				c8.176,0,12.508,5.028,12.508,14.387C43.708,296.576,39.376,301.603,31.2,301.603L31.2,301.603z M36.599,259.319
				c-11.708,0-17.414,5.509-18.736,16.515l-1.125-0.099l1.531-15.036H2.891v70.774h15.888v-16.416l-1.287-11.812l1.084-0.081
				c1.832,6.095,7.231,10.618,17.309,10.618c14.259,0,23.323-10.913,23.323-27.231C59.208,270.133,50.145,259.319,36.599,259.319
				L36.599,259.319z"/>
			<path style="fill:#00B0D1;" d="M90.808,301.505c-8.374,0-12.81-4.929-12.81-14.288c0-9.26,4.436-14.288,12.81-14.288
				c8.379,0,12.809,5.028,12.809,14.288C103.618,296.576,99.187,301.505,90.808,301.505L90.808,301.505z M90.808,259.923
				c-16.161,0-26.901,10.838-26.901,27.295c0,16.457,10.739,27.295,26.901,27.295c16.155,0,26.9-10.838,26.9-27.295
				C117.709,270.76,106.963,259.923,90.808,259.923L90.808,259.923z"/>
			<path style="fill:#00B0D1;" d="M141.091,314.833c4.192,0,7.706-0.789,11.029-2.366l-1.27-12.809
				c-2.54,0.986-3.903,1.38-5.956,1.38c-3.218,0-4.784-1.972-4.784-5.712V241.92h-14.445v55.668
				C125.666,308.234,131.134,314.833,141.091,314.833L141.091,314.833z"/>
			<path style="fill:#00B0D1;" d="M188.554,281.598l-11.528-2.662c-3.647-0.783-4.83-1.676-4.83-3.543
				c0-2.662,2.267-3.746,7.782-3.746c5.914,0,12.026,1.38,18.428,4.14l1.282-12.711c-5.81-2.07-12.415-3.155-19.217-3.155
				c-13.691,0-21.867,6.013-21.867,16.062c0,8.373,3.839,13.001,12.607,15.274l11.534,2.952c4.529,1.183,5.81,2.169,5.81,4.436
				c-0.099,2.957-2.169,3.943-8.176,3.943c-7.689,0-13.702-1.084-19.611-3.647l-1.374,13.099c5.317,1.78,11.227,2.464,20.986,2.464
				c13.598,0,21.769-5.81,21.769-16.747C202.146,289.582,198.208,283.865,188.554,281.598L188.554,281.598z"/>
			<path style="fill:#00B0D1;" d="M234.865,301.604c-8.182,0-12.514-5.028-12.514-14.387c0-9.365,4.332-14.387,12.514-14.387
				c8.275,0,12.711,5.022,12.711,14.387C247.575,296.576,243.139,301.604,234.865,301.604L234.865,301.604z M262.89,312.697V260.7
				h-14.926l0.789,8.02l-1.084,0.087c-2.372-5.642-6.53-9.493-16.411-9.493c-14.137,0-23.032,10.971-23.032,27.388
				c0,16.503,8.796,27.376,21.942,27.376c11.371,0,16.903-6.025,18.19-17.79l1.125,0.104l-1.717,16.306H262.89z"/>
			<path style="fill:#00B0D1;" d="M278.779,297.902c0,11.232,6.541,17.141,16.787,17.141c6.153,0,9.562-0.98,12.688-2.36
				l-1.363-12.908c-2.731,1.084-4.784,1.473-7.127,1.473c-4.981,0-6.541-1.67-6.541-7.283v-18.823h13.001v-13.001h-13.001v-13.006
				l-14.444,2.169v10.838h-7.22v13.001h7.22V297.902z"/>
		</g>
		<g>
			<g>
				<path style="fill:#00B0D1;" d="M228.456,374.137l-11.528-2.662c-3.647-0.783-4.83-1.676-4.83-3.543
					c0-2.662,2.267-3.746,7.788-3.746c5.909,0,12.021,1.38,18.423,4.14l1.282-12.711c-5.81-2.07-12.415-3.155-19.211-3.155
					c-13.697,0-21.873,6.013-21.873,16.062c0,8.373,3.839,13.001,12.607,15.274l11.534,2.952c4.529,1.183,5.81,2.169,5.81,4.436
					c-0.099,2.957-2.169,3.943-8.176,3.943c-7.689,0-13.697-1.084-19.611-3.647l-1.374,13.099c5.317,1.78,11.232,2.464,20.986,2.464
					c13.598,0,21.774-5.81,21.774-16.747C242.054,382.122,238.111,376.405,228.456,374.137L228.456,374.137z"/>
				<path style="fill:#00B0D1;" d="M30.501,351.36c-10.913,0-16.271,5.636-17.536,17.002l-1.078-0.099l1.467-15.123H0v52.003h14.444
					v-29.788c0-7.498,3.502-10.849,11.568-10.849c5.642,0,8.658,3.352,8.658,9.661v30.977h14.444v-32.821
					C49.115,358.974,42.296,351.36,30.501,351.36L30.501,351.36z"/>
				<path style="fill:#00B0D1;" d="M72.423,374.808c1.247-6.292,5.074-9.568,11.284-9.568c5.729,0,9.597,3.044,10.525,9.568H72.423z
					 M108.068,378.542c0-15.778-9.765-26.332-24.361-26.332c-14.989,0-25.549,11.244-25.549,27.318
					c0,16.573,9.771,27.324,27.718,27.324c8.675,0,15.384-2.859,21.994-8.286l-5.323-10.849c-6.216,4.436-11.145,6.112-16.375,6.112
					c-8.93,0-12.902-3.398-13.917-10.357h35.517C107.969,381.9,108.068,380.224,108.068,378.542L108.068,378.542z"/>
				<polygon style="fill:#00B0D1;" points="170.181,385.617 159.68,353.139 145.71,353.139 135.116,385.548 125.606,353.139 
					110.553,353.139 127.387,405.142 141.651,405.142 152.414,371.921 163.345,405.142 177.412,405.142 193.95,353.139 
					179.691,353.139 				"/>
			</g>
			<path style="fill:#00B0D1;" d="M292.586,392.141l-15.964,1.659l-0.098-0.876c17.541-4.593,35.082-16.613,35.082-32.16
				c0-12.804-8.965-20.916-24.337-20.916c-16.364,0-25.625,8.6-27.892,20.817l13.499,3.033c1.577-7.527,6.309-11.829,14.097-11.829
				c7.289,0,10.646,3.816,10.646,9.092c0,5.863-3.456,9.481-8.582,12.705l-27.59,17.593v13.882H312v-13.001H292.586z"/>
		</g>
	</g>
</g>
</svg>
