<?xml version="1.0" encoding="iso-8859-1"?>
<!-- Generator: Adobe Illustrator 25.3.1, SVG Export Plug-In . SVG Version: 6.00 Build 0)  -->
<svg version="1.1" id="&#x428;&#x430;&#x440;_1" xmlns="http://www.w3.org/2000/svg" xmlns:xlink="http://www.w3.org/1999/xlink"
	 x="0px" y="0px" viewBox="0 0 362.391 501.814" style="enable-background:new 0 0 362.391 501.814;" xml:space="preserve">
<g>
	<g>
		<path style="fill:#FFA300;" d="M100.245,171.361c27.946,3.982,60.826-21.669,87.321-41.587
			c24.858-18.695,55.478-41.659,78.427-41.401c14.999,0.171,28.147,8.779,32.265,20.425c-0.4-4.447-2.523-17.673-4.046-24
			c-2.91-8.658-10.846-27.868-37.333-27.753c-27.332,0.114-57.88,23.779-82.245,41.68c-30.249,22.227-57.358,45.505-86.134,40.193
			c-15.443-2.86-22.127-9.995-24.336-16.35c0.293,4.039,2.324,16.794,3.975,23.75C71.841,154.625,79.727,168.437,100.245,171.361
			L100.245,171.361z"/>
		<path style="fill:#FFC700;" d="M219.249,6.314c-54.613-18.095-109.491,3.989-139.196,49.809c0,0,6.134,13.19,31.378-7.857
			C150.766,15.465,171.263,0.537,219.249,6.314L219.249,6.314z"/>
		<path style="fill:#FFE003;" d="M157.203,42.539c-12.097,8.858-29.663,22.277-42.117,30.599
			c-14.72,9.844-35.295,23.721-45.269,5.397c-1.451,4.526-4.168,13.962-4.261,18.138c0.494,5.955,6.313,18.695,23.435,18.988
			c22.019,0.379,42.416-18.631,73.587-41.759c32.751-24.307,55.557-40.265,82.238-37.148c21.141,2.466,31.278,12.433,39.007,22.406
			c-6.699-12.847-20.225-28.447-37.705-39.671C226.743,7.043,196.252,13.942,157.203,42.539L157.203,42.539z"/>
		<path style="fill:#FF870D;" d="M142.889,223.042c54.613,18.095,109.49-3.989,139.196-49.809c0,0-6.134-13.19-31.378,7.857
			C211.372,213.891,190.875,228.819,142.889,223.042L142.889,223.042z"/>
		<path style="fill:#FF870D;" d="M204.935,186.816c12.096-8.858,29.662-22.277,42.116-30.599
			c14.72-9.844,35.295-23.721,45.269-5.397c1.451-4.526,4.168-13.962,4.261-18.138c-0.493-5.955-6.313-18.695-23.435-18.988
			c-22.019-0.379-42.416,18.631-73.587,41.759c-32.751,24.307-55.557,40.265-82.238,37.148
			c-21.141-2.466-31.278-12.433-39.007-22.406c6.699,12.847,20.225,28.447,37.705,39.671
			C135.394,222.313,165.886,215.413,204.935,186.816L204.935,186.816z"/>
	</g>
	<g>
		<g>
			<path style="fill:#FFA300;" d="M69.951,312.188l-1.516,15.085c-7.607-3.274-14.856-4.912-21.87-4.912
				c-6.548,0-9.237,1.287-9.237,4.44c0,2.223,1.402,3.274,5.734,4.211l13.677,3.16c11.46,2.688,16.136,9.466,16.136,19.174
				c0,12.976-9.702,19.875-25.845,19.875c-11.574,0-18.588-0.815-24.901-2.924l1.637-15.55c7.014,3.039,14.148,4.325,23.263,4.325
				c7.135,0,9.595-1.165,9.709-4.676c0-2.688-1.523-3.861-6.899-5.262l-13.676-3.51c-10.409-2.688-14.97-8.179-14.97-18.123
				c0-11.925,9.708-19.053,25.959-19.053C55.217,308.45,63.052,309.729,69.951,312.188L69.951,312.188z"/>
			<path style="fill:#FFA300;" d="M127.714,353.696l-1.287-0.114c-1.515,13.441-7.835,20.111-20.811,20.111
				c-13.913,0-22.098-9.008-22.098-24.794v-38.813h17.301v36.711c0,7.485,3.625,11.46,10.173,11.46
				c9.587,0,13.684-3.975,13.684-12.861v-35.31h17.301v61.498h-16.015L127.714,353.696z"/>
			<path style="fill:#FFA300;" d="M194.462,308.443c-13.439,0-19.986,6.547-21.479,19.642l-1.321-0.115l1.78-17.861h-17.689v84.136
				h18.263v-19.526l-1.493-14.013l1.264-0.115c2.125,7.236,8.327,12.635,19.871,12.635c16.368,0,26.763-12.979,26.763-32.391
				C220.421,321.308,210.026,308.443,194.462,308.443z M188.891,357.892c-9.821,0-15.104-5.973-15.104-17.057
				s5.284-17.057,15.104-17.057c9.706,0,14.817,5.973,14.817,17.057S198.597,357.892,188.891,357.892z"/>
			<path style="fill:#FFA300;" d="M286.869,339.686c0-18.723-11.601-31.243-28.888-31.243c-17.804,0-30.266,13.324-30.266,32.391
				c0,19.641,11.544,32.391,32.851,32.391c7.351,0,15.506-1.666,23.03-5.284l-1.321-15.392c-8.5,3.733-15.162,5.226-21.02,5.226
				c-10.797,0-15.621-4.02-16.827-12.29h42.097C286.754,343.649,286.869,341.639,286.869,339.686z M244.657,334.632
				c1.436-7.466,5.973-11.314,13.324-11.314c6.777,0,11.371,3.561,12.462,11.314H244.657z"/>
			<path style="fill:#FFA300;" d="M341.198,310.224l-1.263,17.861l-6.432-0.575c-14.013-1.263-18.378,6.088-18.378,17.976v26.074
				h-17.287v-61.451h16.483l-1.608,18.321l1.608,0.115c1.895-13.439,7.351-20.101,17.574-20.101
				C335.283,308.443,338.327,309.018,341.198,310.224z"/>
		</g>
		<path style="fill:#FFA300;" d="M362.391,477.98c-3.733,1.665-7.868,2.814-15.219,2.814c-12.233,0-20.101-7.006-20.101-20.331
			v-27.05h-9.361v-15.736h9.361v-12.865l17.286-2.584v15.449h14.645v15.736h-14.645v22.341c0,6.662,1.895,8.672,7.868,8.672
			c2.814,0,5.226-0.46,8.5-1.78L362.391,477.98z"/>
		<g>
			<path style="fill:#FFA300;" d="M38.709,416.012c-13.439,0-19.986,6.547-21.479,19.641l-1.321-0.115l1.78-17.861H0v84.137h18.263
				v-19.527l-1.493-14.013l1.264-0.115c2.125,7.236,8.327,12.635,19.871,12.635c16.368,0,26.763-12.979,26.763-32.391
				C64.668,428.877,54.273,416.012,38.709,416.012z M33.138,465.46c-9.821,0-15.104-5.973-15.104-17.057
				c0-11.084,5.284-17.057,15.104-17.057c9.706,0,14.817,5.973,14.817,17.057C47.955,459.487,42.843,465.46,33.138,465.46z"/>
			<path style="fill:#FFA300;" d="M103.836,416.012c-19.125,0-31.875,12.865-31.875,32.391c0,19.527,12.75,32.391,31.875,32.391
				c19.182,0,31.932-12.865,31.932-32.391C135.767,428.877,123.017,416.012,103.836,416.012z M103.836,465.345
				c-9.936,0-15.162-5.858-15.162-16.942c0-10.969,5.226-16.942,15.162-16.942c9.935,0,15.219,5.973,15.219,16.942
				C119.055,459.487,113.771,465.345,103.836,465.345z"/>
			<path style="fill:#FFA300;" d="M168.404,464.424c-3.861,0-5.727-2.338-5.727-6.785V404.62h-17.308v55.714
				c0,12.625,6.549,20.461,18.474,20.461c5.025,0,9.237-0.937,13.212-2.81l-1.515-15.199
				C172.493,463.959,170.863,464.424,168.404,464.424L168.404,464.424z"/>
			<path style="fill:#FFA300;" d="M219.852,441.741l-13.677-3.16c-4.333-0.937-5.734-1.987-5.734-4.204
				c0-3.16,2.688-4.447,9.237-4.447c7.014,0,14.263,1.637,21.87,4.911l1.515-15.085c-6.899-2.452-14.734-3.739-22.799-3.739
				c-16.25,0-25.959,7.135-25.959,19.06c0,9.937,4.561,15.435,14.97,18.123l13.677,3.503c5.376,1.408,6.899,2.574,6.899,5.262
				c-0.115,3.51-2.574,4.683-9.702,4.683c-9.122,0-16.257-1.287-23.271-4.332l-1.637,15.557c6.313,2.102,13.326,2.917,24.908,2.917
				c16.136,0,25.837-6.892,25.837-19.875C235.987,451.213,231.312,444.429,219.852,441.741L219.852,441.741z"/>
			<path style="fill:#FFA300;" d="M290.257,417.678l0.919,9.476l-1.264,0.115c-2.814-6.719-7.753-11.256-19.412-11.256
				c-16.712,0-27.28,12.979-27.28,32.391c0,19.527,10.395,32.391,25.959,32.391c13.439,0,19.986-7.121,21.537-21.02l1.321,0.115
				l-2.01,19.297h17.861v-61.509H290.257z M274.808,465.46c-9.706,0-14.874-5.973-14.874-17.057
				c0-11.084,5.169-17.057,14.874-17.057c9.821,0,15.104,5.973,15.104,17.057C289.912,459.487,284.629,465.46,274.808,465.46z"/>
		</g>
	</g>
</g>
</svg>
