<svg xmlns="http://www.w3.org/2000/svg" viewBox="0 0 283.46 283.46"><defs><style>.cls-1{fill:#0072ce;}.cls-2{fill:#ffcb00;}</style></defs><g id="Layer_2" data-name="Layer 2"><g id="TVN_Group" data-name="TVN Group"><g id="tvn"><rect class="cls-1" width="283.46" height="283.46"/><path id="logo" class="cls-2" d="M93.36,117.92v17.8H79.42v25.77q0,5.3,2,6.28a9,9,0,0,0,4.12,1,31.94,31.94,0,0,0,7.83-1.17v19.52a83.42,83.42,0,0,1-15.93,1.58q-12.65,0-18.6-5.43c-3.95-3.62-5.95-9.39-5.95-17.32l.08-8.17V135.72H42.52v-17.8H53l.41-22.74,26.05-.41v23.15Zm75.87,0L143.61,187.8H123.13L97,117.92H125.2l10,29.69c.83,2.42,1.56,4.83,2.2,7.21.23-.82.58-1.88,1-3.16.1-.18.4-1,.89-2.61l10.31-31.13Zm71.71,69.88H213.52v-44q0-5.43-1.69-6.94a6,6,0,0,0-4.21-1.51c-5,0-7.49,3.48-7.49,10.44v42H172.71V117.92h25.43v9.9q5.61-11.34,20.12-11.34a26.19,26.19,0,0,1,12.89,2.92,17.55,17.55,0,0,1,7.52,7.56c1.5,3.09,2.27,8.46,2.27,16.11V187.8Z"/></g></g></g></svg>