<svg xmlns="http://www.w3.org/2000/svg" viewBox="0 0 283.46 283.46"><defs><style>.cls-1{fill:#0099cb;}.cls-2{fill:#fff;}</style></defs><title>tvp1</title><g id="Layer_2" data-name="Layer 2"><g id="TVP"><g id="tvp1"><rect class="cls-1" width="283.46" height="283.46"/><g id="logo"><path class="cls-2" d="M42.52,111v65H190.86V111Zm48.34,62.07h-45V113.89h45Zm48.34,0h-45V113.89h45Zm48.35,0h-45V113.89h45Z"/><path class="cls-2" d="M160.39,151.64l1.75.06c11,0,16.44-7.11,16.44-14.21,0-6.93-5.24-13.85-15.66-13.85H152.27v40.28h8.12Zm0-20.17h3c4.64.06,7,1.62,7.29,6.26-.24,4.82-3,6.32-7.71,6.44h-2.53Z"/><polygon class="cls-2" points="135.35 123.16 126.26 123.16 116.99 144.41 116.69 145.68 116.39 144.41 107.06 123.16 98.03 123.16 116.69 165.18 135.35 123.16"/><polygon class="cls-2" points="64.01 163.92 72.68 163.92 72.68 131.47 83.94 131.47 83.94 123.64 52.69 123.64 52.69 131.47 64.01 131.47 64.01 163.92"/><polygon id="_74801176" data-name=" 74801176" class="cls-2" points="224.4 176.13 240.94 176.14 240.94 176.14 240.94 107.33 212.95 121.9 212.95 139.53 225.23 131.95 224.4 176.13"/></g></g></g></g></svg>