<svg id="ff9b406c-3b17-48d7-aa11-899a62838faa" data-name="Warstwa 2" xmlns="http://www.w3.org/2000/svg" viewBox="0 0 164 164"><defs><style>.a5fee563-caed-4ebd-8adc-64f25da0e08b{fill:#008fc5;}.b290138a-0cb4-4794-b2f6-4cc004a710ff{fill:#0091ca;}.b290138a-0cb4-4794-b2f6-4cc004a710ff,.b63ddc6d-01da-45e1-ab1b-255b5a5b7e2a{fill-rule:evenodd;}.b63ddc6d-01da-45e1-ab1b-255b5a5b7e2a{fill:#fff;}</style></defs><title>logotypy</title><rect class="a5fee563-caed-4ebd-8adc-64f25da0e08b" width="164" height="164"/><g id="b553caf1-7d21-46cf-ac0b-1473c2d30190" data-name="Warstwa_1"><path class="b290138a-0cb4-4794-b2f6-4cc004a710ff" d="M119.48741,94.21019c2.00447-8.55978,2.24558-19.65344,4.2501-28.21326-26.66534-1.26084-54.29381,1.59178-80.95925.33094-2.00447,8.55982-2.24563,19.65348-4.2501,28.21325,26.66534,1.26085,54.29428-1.59173,80.95925-.33093Z"/><path class="b63ddc6d-01da-45e1-ab1b-255b5a5b7e2a" d="M37.06642,64.13452h89v34h-89ZM60.51485,76.9462V73.975H49.684V76.9462h3.798V88.00547h3.235V76.9462ZM71.718,81.05144,74.739,73.827l3.43624-.00015L71.71884,88.662,65.26015,73.827h3.39844l3.0594,7.22449Zm12.04235-7.0789V88.00547h3.06633V83.82531l.44073.01438.68005-.0279.638-.08159.59538-.1321.55266-.17893.50971-.22253.4663-.26254.42283-.299.3789-.33188.33521-.36111.291-.38651.24706-.40841.203-.42624.1591-.44072.115-.45145.07124-.45854.02745-.46214-.01621-.46238-.05985-.45859-.10337-.45164-.14721-.44071-.19048-.42658-.23418-.40859-.27754-.38694-.321-.36135-.36377-.33245-.40686-.29953-.44921-.26288-.49158-.22286-.533-.17936-.57439-.13219-.61557-.08168-.65326-.02767-3.76254-.00014ZM86.822,76.94393h.83494l.27872.01031.25872.02279.239.03548.21938.04881.2.06229.181.07629.16261.09034.14534.10537.1294.121.11423.13824.1.15741.0859.17817.0718.20035.05761.22414.04276.2485.02679.26311-.02571.27229-.04459.25573-.06168.22977-.07822.20541-.094.182-.1096.16086-.12519.14128-.14145.12363-.15811.10722-.17587.09185-.19348.07714-.21189.06272-.22977.0489-.24772.03571-.26513.0228-.28238.01093H86.822V76.94392ZM47.50375,70.81248H62.69514V90.946H47.50375Zm31.80991,0H64.12227V90.946H79.31366Zm18.03648-1.32886H46.08144V92.27517h51.2687ZM80.736,70.81248H95.92741V90.946H80.736Zm33.66934,21.38034V68.17288l-9.73049,5.17491V79.425l4.19479-2.57674c.06665,5.12128.08871,6.05941-.26588,15.34453Z"/></g></svg>