<svg xmlns="http://www.w3.org/2000/svg" viewBox="0 0 283.46 283.46"><defs><style>.cls-1{fill:#e2762d;}.cls-2{fill:#fff;}</style></defs><g id="Layer_2" data-name="Layer 2"><g id="TVP"><g id="tvp2"><rect class="cls-1" width="283.46" height="283.46"/><g id="logo"><path id="_63182064" data-name=" 63182064" class="cls-2" d="M240.35,173.24H192.71l28-33.1a28.41,28.41,0,0,0,3.78-5.47,10.45,10.45,0,0,0,1.21-4.58,7.24,7.24,0,0,0-2.06-5.34,7.36,7.36,0,0,0-5.44-2.06,7.6,7.6,0,0,0-6.15,2.55q-2.16,2.55-2.16,7.41v.77h-15V133q0-10.6,6.19-16.69T218,110.23q10.47,0,16.69,5.4T240.94,130a19.7,19.7,0,0,1-2,8.53,38.13,38.13,0,0,1-6.47,9.08L221.25,160h19.1Z"/><path class="cls-2" d="M42.52,112.3V173H181V112.3Zm45.15,58H45.59V115H87.67Zm45.15,0H90.74V115h42.08Zm45.15,0H135.89V115H178Z"/><path class="cls-2" d="M152.61,150.27l1.65,0c10.26,0,15.3-6.65,15.3-13.26s-4.88-12.93-14.6-12.93H145v37.63h7.62Zm0-18.86h2.74c4.36.07,6.53,1.54,6.84,5.87-.27,4.5-2.81,5.93-7.2,6H152.6Z"/><polygon class="cls-2" points="129.21 123.68 120.74 123.68 112.09 143.5 111.78 144.69 111.48 143.51 102.82 123.68 94.36 123.68 111.78 162.9 129.21 123.68"/><polygon class="cls-2" points="62.59 161.76 70.68 161.76 70.68 131.41 81.22 131.41 81.22 124.13 52.05 124.13 52.05 131.41 62.59 131.41 62.59 161.76"/></g></g></g></g></svg>