<svg id="b532cc44-5c0b-4dd6-b76d-5b112473b70b" data-name="Warstwa 2" xmlns="http://www.w3.org/2000/svg" viewBox="0 0 164 164"><defs><style>.a25830e1-9686-4791-948f-bcfa35ea522e{fill:#e2762d;}.a82e7325-4f32-4b18-a9dc-c235fa099656{fill:#e87513;}.a82e7325-4f32-4b18-a9dc-c235fa099656,.f8c89a3b-93a1-4c09-bfe3-e6cef0688c18{fill-rule:evenodd;}.f8c89a3b-93a1-4c09-bfe3-e6cef0688c18{fill:#fff;}</style></defs><title>logotypy</title><rect class="a25830e1-9686-4791-948f-bcfa35ea522e" width="164" height="164"/><g id="ea3b0beb-5eeb-463f-be97-8ab1d1b8043b" data-name="Warstwa_1"><polygon class="a82e7325-4f32-4b18-a9dc-c235fa099656" points="123.517 95.405 123.643 94.563 123.772 93.703 123.889 92.824 123.991 91.944 124.083 91.036 124.161 90.127 124.241 89.21 124.321 88.283 124.389 87.347 124.444 86.4 124.514 85.446 124.554 84.498 124.611 83.534 124.669 82.57 124.711 81.614 124.753 80.648 124.797 79.683 124.854 78.719 124.897 77.754 124.953 76.798 125.009 75.843 125.065 74.888 125.118 73.95 125.186 73.014 125.268 72.078 125.347 71.161 125.425 70.252 125.531 69.354 125.635 68.465 125.737 67.585 125.866 66.725 126.006 65.884 126.006 65.884 124.52 65.77 123.045 65.674 121.57 65.579 120.094 65.492 118.616 65.414 117.138 65.337 115.643 65.275 114.162 65.215 112.681 65.164 111.198 65.113 109.715 65.071 108.231 65.028 106.731 64.994 105.245 64.969 103.758 64.945 102.271 64.92 100.783 64.904 99.281 64.887 97.791 64.88 96.303 64.865 94.813 64.858 93.323 64.86 91.833 64.853 90.327 64.854 88.836 64.856 87.345 64.857 85.856 64.851 84.365 64.853 82.874 64.854 81.368 64.855 79.877 64.857 78.386 64.859 76.895 64.861 75.405 64.854 73.916 64.847 72.41 64.848 70.922 64.832 69.432 64.826 67.944 64.81 66.456 64.794 64.97 64.769 63.468 64.744 61.982 64.719 60.497 64.686 59.013 64.643 57.53 64.601 56.047 64.55 54.551 64.497 53.07 64.437 51.591 64.368 50.111 64.3 48.634 64.222 47.143 64.134 45.668 64.039 44.195 63.934 42.721 63.83 42.721 63.83 42.581 64.671 42.467 65.532 42.35 66.411 42.246 67.3 42.155 68.199 42.063 69.107 41.983 70.024 41.917 70.952 41.848 71.897 41.78 72.834 41.724 73.789 41.668 74.744 41.627 75.701 41.569 76.665 41.526 77.63 41.483 78.596 41.426 79.56 41.384 80.516 41.327 81.48 41.285 82.437 41.229 83.392 41.173 84.347 41.104 85.293 41.036 86.229 40.97 87.157 40.891 88.075 40.799 88.982 40.706 89.89 40.604 90.77 40.487 91.649 40.373 92.51 40.232 93.351 40.232 93.351 41.704 93.464 43.179 93.56 44.668 93.656 46.144 93.743 47.622 93.821 49.1 93.899 50.581 93.959 52.061 94.019 53.557 94.08 55.04 94.122 56.524 94.164 58.008 94.207 59.493 94.24 60.979 94.265 62.481 94.291 63.967 94.315 65.455 94.331 66.943 94.347 68.431 94.362 69.921 94.369 71.425 94.377 72.915 94.384 74.406 94.382 75.897 94.38 77.386 94.387 78.892 94.386 80.383 94.385 81.874 94.383 83.365 94.381 84.856 94.379 86.347 94.377 87.852 94.376 89.344 94.374 90.833 94.381 92.323 94.388 93.812 94.395 95.302 94.402 96.806 94.41 98.294 94.425 99.782 94.441 101.269 94.466 102.756 94.49 104.241 94.524 105.74 94.558 107.226 94.592 108.709 94.634 110.191 94.685 111.673 94.737 113.154 94.797 114.648 94.867 116.127 94.936 117.605 95.013 119.081 95.1 120.556 95.195 122.029 95.3 123.517 95.405"/><path class="f8c89a3b-93a1-4c09-bfe3-e6cef0688c18" d="M38.12067,63.80878h89v34h-89Zm23.477,12.82155V73.667H50.79489v2.96335H54.583V87.66116h3.22646V76.63033H61.5977Zm11.17394,4.09491,3.01335-7.2059,3.42724-.00023-6.43961,14.797L66.33075,73.51934H69.7203l3.05136,7.2059Zm12.01127-7.06076V87.66113h3.0584V83.49171l.43963.01455.67816-.028.63641-.0813.59378-.13169.55135-.17845.50835-.222.46514-.26184.42168-.29838.3779-.33083.33432-.36039.29035-.3853.24644-.40748.20249-.42509.15866-.43965.11467-.4501.071-.45763.02734-.46089-.016-.46122-.0598-.4573L93.78,77.21815l-.14674-.43964-.19-.42542-.2336-.40762-.27678-.38581-.32014-.36049L92.25,74.86756l-.40585-.29866-.448-.26226-.49026-.22224-.53165-.17883-.573-.13187-.614-.08154-.65146-.0277H84.78291Zm3.05371,2.96371h.83268l.27816.01023.258.02269.23829.03546.21883.04872.19945.06215.18048.0759.1623.09023.145.10515.12889.12067.11392.13792.1.157.08561.1778.07167.19983.05745.22354.04257.24781.0267.26236-.0255.2716-.04451.25515-.06154.22926-.078.20467-.09376.18161-.10923.16046-.125.14094-.141.12323-.1577.1071-.17537.09153-.19314.07688-.21133.06257-.229.04894-.24709.03538-.2644.02287-.28179.01088h-.70154V76.62819Zm-39.2164-6.1157h15.152V90.59433H48.62022Zm31.72765,0H65.19569V90.59433H80.34787Zm17.98955-1.3254H47.20178V91.92H98.33742Zm-16.5711,1.3254H96.91841V90.59433H81.76632Zm38.20712,5.44882c0-4.2014-3.0805-7.28041-8.35248-7.28041-5.145,0-8.41606,3.17517-8.41606,8.37079V77.212h5.46248V76.9234c0-2.37333,1.11167-3.65624,3.01707-3.65624a2.5881,2.5881,0,0,1,2.73122,2.72605,6.17957,6.17957,0,0,1-1.81034,3.68836L102.41086,91.86875h17.34032V86.994H112.796l4.097-4.55426c1.969-2.213,3.08049-4.0732,3.08049-6.47846Z"/></g></svg>