<svg id="f287feba-222f-4d1e-97b2-54feae50191a" data-name="Warstwa 2" xmlns="http://www.w3.org/2000/svg" viewBox="0 0 164 164"><defs><style>.eb9677f5-21a4-4c21-86bf-36283c2ddef2{fill:#174891;}.b74f2b48-90aa-4bdc-8446-93d4e595b7d2{fill:#0b3d87;}.b74f2b48-90aa-4bdc-8446-93d4e595b7d2,.bd33f774-0133-417c-97ae-e7b3b7c9cb23{fill-rule:evenodd;}.bd33f774-0133-417c-97ae-e7b3b7c9cb23{fill:#fff;}</style></defs><title>logotypy</title><rect class="eb9677f5-21a4-4c21-86bf-36283c2ddef2" width="164" height="164"/><g id="b8f43896-1d29-4945-a958-a78c337a5807" data-name="Warstwa_1"><polygon class="b74f2b48-90aa-4bdc-8446-93d4e595b7d2" points="122.008 97.607 122.13 96.927 122.247 96.186 122.37 95.399 122.486 94.563 122.603 93.686 122.72 92.765 122.837 91.816 122.948 90.827 123.065 89.811 123.176 88.771 123.287 87.704 123.404 86.626 123.627 84.424 123.849 82.194 124.072 79.964 124.294 77.762 124.405 76.683 124.522 75.622 124.634 74.577 124.75 73.56 124.862 72.577 124.978 71.622 125.095 70.701 125.212 69.825 125.329 68.988 125.445 68.202 125.568 67.466 125.69 66.781 123.465 66.663 121.173 66.556 118.821 66.466 116.412 66.387 113.948 66.32 111.434 66.264 108.88 66.213 106.283 66.18 103.652 66.146 100.987 66.123 98.301 66.107 95.592 66.095 90.118 66.084 84.617 66.078 79.11 66.073 73.642 66.062 70.928 66.05 68.241 66.034 65.576 66.011 62.945 65.983 60.353 65.944 57.794 65.899 55.286 65.843 52.822 65.775 50.407 65.697 48.055 65.607 45.763 65.5 43.538 65.376 43.421 66.062 43.299 66.797 43.182 67.589 43.059 68.421 42.943 69.303 42.826 70.218 42.715 71.173 42.598 72.162 42.486 73.178 42.37 74.218 42.258 75.279 42.147 76.363 41.925 78.56 41.697 80.789 41.474 83.02 41.252 85.221 41.14 86.305 41.029 87.367 40.912 88.406 40.801 89.423 40.684 90.412 40.567 91.366 40.451 92.282 40.334 93.164 40.217 93.995 40.1 94.787 39.978 95.523 39.855 96.208 42.08 96.326 44.372 96.433 46.725 96.523 49.139 96.602 51.603 96.669 54.112 96.725 56.671 96.77 59.263 96.809 61.894 96.837 64.558 96.86 67.245 96.877 69.96 96.888 75.428 96.905 80.935 96.905 86.436 96.91 91.91 96.927 94.618 96.939 97.305 96.955 99.969 96.978 102.6 97.006 105.198 97.045 107.751 97.09 110.265 97.146 112.73 97.214 115.138 97.292 117.491 97.382 119.783 97.489 122.008 97.607"/><path class="bd33f774-0133-417c-97ae-e7b3b7c9cb23" d="M37.38006,65h89V99h-89ZM60.826,77.81248V74.84107H49.99587v2.97141h3.79918v11.06h3.23739v-11.06H60.826Zm11.20288,4.10607,3.026-7.22352L78.487,74.6894,72.0345,89.52964,65.57643,74.695h3.39311l3.05937,7.22352Zm12.04285-7.08306v14.037h3.0705V84.68774l.43942.01683.67865-.02809.63968-.0786.59519-.13479.55065-.17977.51178-.21907.46728-.264.42274-.29773.37824-.33139.33375-.36512.28926-.38758.25029-.40438.20027-.42688.1613-.44377.11681-.44935.06674-.46061.02782-.4606-.01667-.46061-.05564-.46061-.10571-.44935-.14458-.44377-.1947-.42688-.23362-.40442-.27815-.38759-.31708-.36512-.3671-.33139-.40607-.29772-.45056-.264-.48948-.2247-.534-.17976-.57294-.12917-.61743-.08428-.65078-.028H84.07175Zm3.06493,2.97141h.83438l.27811.01121.26144.02246.23919.0393.21695.045.20022.06177.178.07865.16688.08986.14463.10675.12791.11795.11686.14042.10013.1573.08342.17973.07231.1966.05564.22465.0445.25279.02777.25838-.02777.27526-.0445.25274-.06121.23033-.07784.20781-.09461.17972-.11123.16289-.12238.14046-.14463.12358-.15573.1067-.178.08986-.18917.07865-.21137.06182-.23361.05056-.24477.03367-.267.02809-.28364.00563h-.7009V77.8069ZM47.81537,71.67871h15.1912V91.81016H47.81537Zm31.81194,0H64.43611V91.81016h15.1912Zm18.03917-1.33127H46.3967v22.794H97.66648ZM81.0513,71.67871H96.24249V91.81016H81.0513Zm38.36456,14.40212L119.41034,85.8l-.01115-.26963-.02225-.264-.02782-.25838-.04449-.25279-.04449-.24711-.05559-.23591-.06679-.236-.07232-.22465-.08341-.21344-.089-.21349-.10014-.20219-.11128-.1966-.11123-.191-.12791-.17977L118.309,82.441l-.139-.16851-.15016-.15731-.15577-.15162-.16688-.14605-.17245-.14047-.18355-.12916-.18912-.118-.19469-.11233-.2058-.10675-.21695-.09548-.22252-.08991-.228-.08423-.23366-.073-.24472-.06739-.25591-.05619-.26139-.04493.21137-.073.2058-.073.20027-.08423.18912-.08423.18355-.09554.178-.10107.17241-.10674.16687-.11233.15578-.118.1502-.12916.14458-.12921.13906-.13479.13353-.14042.12238-.14605.12238-.14605.11124-.15725.10013-.15731.10009-.16288.089-.16851.089-.17414.07788-.17973.06674-.17976.06674-.18535.05564-.18535.05007-.191.0445-.19661.03891-.1966.0334-.20223.02225-.20219.01667-.20786.01111-.21344v-.21345l-.00553-.32014-.02225-.31456-.039-.30893-.0556-.30335-.06679-.29772-.08341-.28642-.10014-.27526-.11681-.26963-.128-.264-.14459-.25274-.15577-.24159-.17241-.2359-.1836-.22466-.20022-.21907-.217-.20781-.228-.19661-.2392-.18535-.25586-.17414-.27258-.16851-.28368-.15167-.29479-.14605-.30593-.12916-.32266-.12359-.33932-.10674-.34486-.09549-.36152-.08428-.37273-.073-.38939-.06177-.39492-.04493-.41164-.03367-.42274-.02252-.43389-.00558-.47838.01121-.46723.01689-.45056.0393-.43941.05056-.42279.06176-.41164.07866-.39492.09548-.38382.10112-.3671.12358-.35605.12917-.33927.146-.32818.15731-.31151.17409-.29483.18535-.28368.1966-.267.20787-.25591.219-.23361.236-.22252.24716-.21137.25274-.18912.26963-.178.28084-.16126.29209-.14468.30336-.13348.31451-.11123.32577-.10014.33144-.07788.34828-.06674.35386-.05007.3707-.0334.37633-.01663.38758h5.42342v-.14605l.01114-.14037.01668-.13484.01667-.12921.02783-.12916.03339-.12358.03892-.118.039-.118.05-.10669.05007-.1067.06121-.10117.06117-.10107.06674-.08986.07231-.08991.07789-.08423.07788-.07865.08342-.0786.089-.06745.09451-.06739.09461-.06177.10009-.05619.1057-.05055.10571-.04494.11124-.04493.11681-.03372.11681-.03367.11681-.02809.12238-.01684.12791-.01689.128-.0112.12795-.00563h.267l.12791.01121.12238.01688.128.01684.11681.02809.12238.02809.11124.03368.11123.03935.11128.04493.10567.04493.10013.05056.10014.06177.09456.05618.09456.0674.08342.073.089.073.07785.073.07788.08428.06674.08423.07232.08986.06116.09549.05565.09549.05564.10112.05007.10111.04449.1067.03892.11237.03339.11233.02778.11795.02229.118.02225.12358.0111.12921.00557.12916.00557.28089-.00557.264-.01114.25274-.02778.24154-.03339.23028-.03892.21349-.05007.20218-.05564.191-.06117.17977-.07231.16851-.07789.16289-.08346.146-.08341.14042-.09456.13479-.09456.12359-.10567.11232-.10571.11237-.1057.10112-.11124.09549-.11681.08986-.11128.08423-.11681.07865-.12234.073-.11681.073-.23919.12921-.23919.12358-.23362.11233-.22251.11233.24476.14042.26144.13483.26143.14042.27254.14042.13348.07865.1391.07861.13348.08428.13353.09549.12791.09549.13353.10111.12238.11233.12791.12358.11681.12916.11681.14047.11123.15167.10571.16289.10014.17972.09456.18535.08341.20223.08346.21907.07231.23591.06674.2528.0556.264.04454.28646.03892.30893.02782.32014.01667.34829.01115.36511-.00557.15163-.01115.15168-.0111.146-.02225.14042-.02782.14042-.03335.14047-.039.13479-.03891.12921-.05565.12916-.05564.12358-.06117.118-.06674.118-.07231.10675-.07788.10669-.08342.10675-.089.09549-.10008.08986-.10014.08986-.10571.08428-.11123.07865-.11681.0674-.12239.06739-.128.06177-.13348.05619-.139.05055-.14464.03931-.14463.03934-.15578.028-.1613.02809-.1613.01689-.16687.01121h-.33928l-.16135-.01121-.15573-.01689-.15021-.01683-.14463-.0281-.139-.03372-.139-.0393-.128-.04493-.12238-.05056-.12233-.06177-.11128-.06181-.11124-.0674-.10571-.073-.10008-.08423-.089-.08428-.089-.08986-.08342-.10112-.07788-.10112-.07231-.11232-.07232-.11238-.06121-.12353-.0556-.12358-.05007-.13484-.05007-.13479-.03892-.14605-.03339-.146-.03335-.15163-.02229-.16293-.02225-.16289-.0111-.17409-.01115-.17414v-.56172h-5.67374v.31455l.00557.44373.03335.42693.04449.42125.06674.41.08346.39884.10013.382.12233.37632.13911.36512.15572.35386.17245.337.18355.32581.20584.31452.22247.30335.23919.28646.25034.27521.27254.25842.28369.24712.29483.23591.31708.21907.32817.20223.33933.191.356.17414.37273.15725.38381.14042.39493.12921.41164.1067.42273.09554.43389.0786.445.06182.4617.04493.46724.02246.4839.01121.46171-.01121.45055-.02246.43947-.04493.43389-.06182.41716-.073.41164-.09549.39492-.1067.38939-.12358.37825-.14042.36157-.15167.35042-.16852.33933-.18535.3226-.1966.31151-.21344.30036-.2247.28373-.23591.267-.25279.25586-.264.2392-.27521.22251-.28647.2058-.29772.18913-.31456.178-.32014.15572-.33145.13911-.3426.1279-.35391.10014-.36507.089-.37075.06679-.38195.05-.39321.02782-.3988Z"/></g></svg>