<svg xmlns="http://www.w3.org/2000/svg" viewBox="0 0 283.46 283.46"><defs><style>.cls-1{fill:#1f4fa2;}.cls-2{fill:#fff;}</style></defs><title>tvp3</title><g id="Layer_2" data-name="Layer 2"><g id="TVP"><g id="tvp3"><rect class="cls-1" width="283.46" height="283.46"/><g id="logo"><path class="cls-2" d="M240.94,153.36c0-8.09-4.09-13.22-11.77-14.5,6.23-1.87,9.39-6.9,9.39-13,0-9.38-7.25-15.69-20-15.69-14.07,0-22,6.73-22.26,18H211c0-4.17,2.86-6.56,6.74-6.5s6.61,2.5,6.74,6.25c.28,8.29-4.27,9.8-7.43,11.39,3.45,2.12,8.76,2.85,8.79,13.68,0,4.41-2.81,7.67-7.93,7.67-4.86,0-7.42-2.81-7.42-8.1v-1H195.07v.85c0,12.8,9,21,23.1,21,13.48,0,22.77-8.12,22.77-20"/><path class="cls-2" d="M42.52,111.21v61H181.63V111.21ZM45.6,114H87.86v55.47H45.6Zm45.34,0h42.27v55.47H90.94Zm45.35,0h42.26v55.47H136.3Z"/><path class="cls-2" d="M81.38,130.41V123.1H52.08v7.31H62.67v30.47h8.12V130.41Z"/><path class="cls-2" d="M112.07,162,94.58,122.63h8.49l8.7,19.92.31,1.19.3-1.2,8.69-19.91h8.5Z"/><path class="cls-2" d="M145.42,123.09v37.79h7.66V149.34l1.64,0c10.31,0,15.38-6.68,15.38-13.31s-4.91-13-14.68-13Zm7.64,7.31h2.75c4.38.06,6.56,1.54,6.87,5.89-.27,4.52-2.83,6-7.23,6h-2.39Z"/></g></g></g></g></svg>