<?xml version="1.0" encoding="utf-8"?>
<!-- Generator: Adobe Illustrator 26.0.3, SVG Export Plug-In . SVG Version: 6.00 Build 0)  -->
<svg version="1.1" id="Warstwa_1" xmlns="http://www.w3.org/2000/svg" xmlns:xlink="http://www.w3.org/1999/xlink" x="0px" y="0px"
	 viewBox="0 0 167.5 128.9" style="enable-background:new 0 0 167.5 128.9;" xml:space="preserve">
<style type="text/css">
	.st0{fill:#19ACE4;}
	.st1{fill:#00B828;enable-background:new    ;}
	.st2{fill:#FFB900;enable-background:new    ;}
	.st3{fill:#FF0946;enable-background:new    ;}
</style>
<g>
	<polygon class="st0" points="49.8,0 7.1,0 7.1,10.7 22.1,10.7 22.1,53.3 34.8,53.3 34.8,10.7 49.8,10.7 	"/>
	<polygon class="st0" points="83.8,31.9 98.3,0 112,0 86.7,53.3 80.9,53.3 55.5,0 69.3,0 	"/>
	<path class="st0" d="M136,0h-18.3v53.3h12.7v-16h5.8c14.4,0,22.3-9.1,22.3-18.7C158.6,8.2,151.8,0,136,0z M135.2,27.4h-4.7V10h5.3
		c7.2,0,9.7,3.6,9.7,8.7S142.2,27.4,135.2,27.4z"/>
</g>
<g>
	<path class="st1" d="M56.5,112.1L56.5,112.1L52.2,79l0,0c-0.7-3.3-3.9-5.3-7.2-4.6c0,0,0,0,0,0c-2.8,0.2-5.1,2.3-5.6,5.1l0,0
		C34.3,77,28.6,76,23,76.8l0,0C4.5,79.2-5.7,97.4,3.4,111.2c5.8,8.1,15.6,12.3,25.5,10.8l0,0c5.6-0.7,10.9-3,15.1-6.8l0,0
		c1.2,2.5,4,3.8,6.7,3.3c3.3-0.1,5.9-2.9,5.8-6.2C56.5,112.3,56.5,112.2,56.5,112.1z M27.7,110.8c-6.9,1.4-13.6-3-15.1-9.8
		c-0.3-7,5-12.9,12-13.3c4.3-0.6,8.6,0.7,11.9,3.6C43.6,98.1,38.5,109.4,27.7,110.8z"/>
	<path class="st2" d="M91.5,83.8c-4.6-0.6-9.2-0.1-13.5,1.4l2.4-13.6c0.3-3.1-1.9-5.9-5.1-6.2c-0.1,0-0.2,0-0.3,0
		c-3.2-0.5-6.3,1.5-7.2,4.6l0,0l-8.7,49.4l0,0c-0.3,3.1,1.9,5.9,5,6.2c0.1,0,0.3,0,0.4,0c2.3,0.4,4.6-0.5,6.1-2.2
		c11,8,26.1,7.2,36.2-1.9C120.8,108,112,86.4,91.5,83.8z M86.8,118.3c-8.3-1-12.7-7.2-11.5-13.9c2.2-12.2,19.9-13.5,25.2-3.2
		C105,109.7,97.1,119.6,86.8,118.3z"/>
	<path class="st3" d="M163.9,100.3c-2.9-0.9-6,0.2-7.7,2.7c-3,4.6-8,7.5-13.5,7.8c-5.3,0.3-10.2-2.5-12.6-7.2
		c-4.1-9.2,5.2-19.3,17.2-16.9c4.3,0.9,7.6,0.9,9.7-2c1.6-2.3,1.2-7.2-4.7-8.6c-20.5-5.2-42.5,12.4-34.4,32
		c4.3,10.3,16.6,14.6,26.4,13.7c9.8-0.9,18.9-6,22.3-12.8c1.9-2.7,1.1-6.4-1.6-8.3C164.6,100.7,164.2,100.5,163.9,100.3z"/>
</g>
</svg>
