<svg id="f59d1820-30f5-4691-a020-2298fe7706d5" data-name="Warstwa 2" xmlns="http://www.w3.org/2000/svg" viewBox="0 0 164 164"><defs><style>.b7a2fedf-eef4-475a-bcf4-cf370469f119,.fd65f841-c1c6-4eca-8d9c-edc33d84e3ec{fill:#1e396f;}.e59430e7-4665-4a8c-850b-b5fe5c7a8cbc{fill:#fff;}.b7a2fedf-eef4-475a-bcf4-cf370469f119,.e59430e7-4665-4a8c-850b-b5fe5c7a8cbc,.fae1c635-c078-47c1-9ac1-3abc9c28844c{fill-rule:evenodd;}.fae1c635-c078-47c1-9ac1-3abc9c28844c{fill:#0071b8;}</style></defs><title>logotypy</title><rect class="fd65f841-c1c6-4eca-8d9c-edc33d84e3ec" width="164" height="164"/><g id="a7870bfb-c44a-4c83-9b31-96edecd82ce0" data-name="Warstwa_1"><polygon class="e59430e7-4665-4a8c-850b-b5fe5c7a8cbc" points="51.518 55 112.495 55 112.495 84.643 51.518 84.643 51.518 55"/><path class="b7a2fedf-eef4-475a-bcf4-cf370469f119" d="M75.16985,60.62162H88.84162v17.955H75.16985Zm14.66942,0h13.67215v17.955H89.83927Zm2.95622,2.9561V75.81307h2.47662V72.07731l.53479.017c3.33449,0,4.97168-2.16334,4.97168-4.31058,0-2.11166-1.58663-4.206-4.744-4.206H92.7955ZM95.26837,65.945h.89211c1.41492.02236,2.12.50123,2.22187,1.91034-.08862,1.46081-.91518,1.9238-2.34032,1.94939h-.77367V65.945ZM82.005,76.18313l-5.6607-12.75088H79.0932l2.81293,6.449.09891.38469.09971-.39071,2.81279-6.443h2.74908ZM72.07589,65.94725V63.58053H62.59833v2.36672h3.42311V75.813H68.6503V65.94724h3.42559ZM60.50084,60.62164H74.17161V78.57659H60.50084V60.62164Zm-.9991-.8876H104.5091V79.46629H59.50174V59.734Z"/><path class="e59430e7-4665-4a8c-850b-b5fe5c7a8cbc" d="M27.03567,99.63931a8.41372,8.41372,0,0,1-.57689,3.156,7.16761,7.16761,0,0,1-1.6286,2.47619,7.43792,7.43792,0,0,1-2.52872,1.61881,8.865,8.865,0,0,1-3.27792.58277H13.00676V91.8171h6.01678a8.865,8.865,0,0,1,3.27792.582,7.41523,7.41523,0,0,1,2.52872,1.62432,7.24088,7.24088,0,0,1,1.6286,2.4762,8.34606,8.34606,0,0,1,.57689,3.13969Zm-3.321,0a7.05051,7.05051,0,0,0-.32368-2.21179,4.65455,4.65455,0,0,0-.92731-1.66131,4.04794,4.04794,0,0,0-1.47208-1.047,5.018,5.018,0,0,0-1.968-.367h-2.76V104.9373h2.76a5.07563,5.07563,0,0,0,1.968-.36138,3.96007,3.96007,0,0,0,1.47208-1.04649,4.71569,4.71569,0,0,0,.92731-1.66734,7.08682,7.08682,0,0,0,.32368-2.22275Z"/><path class="e59430e7-4665-4a8c-850b-b5fe5c7a8cbc" d="M63.66354,98.28h.63582a1.32036,1.32036,0,0,0,1.1537-.49652l3.9576-5.29737a1.55761,1.55761,0,0,1,.61465-.52387,2.04871,2.04871,0,0,1,.81959-.14514h2.80323l-4.98138,6.41968a3.15626,3.15626,0,0,1-1.00329.89569,2.62943,2.62943,0,0,1,.67969.39387,3.12315,3.12315,0,0,1,.58225.64166l5.11144,7.30514h-2.879a2.31653,2.31653,0,0,1-.48034-.04323,1.47152,1.47152,0,0,1-.35042-.119.91028.91028,0,0,1-.2588-.18837,1.7797,1.7797,0,0,1-.20464-.2644l-4.022-5.63221a1.18022,1.18022,0,0,0-.485-.41571,2.00616,2.00616,0,0,0-.78763-.12382h-.90549v6.78678H60.42868v-15.656h3.23485V98.28Z"/><path class="e59430e7-4665-4a8c-850b-b5fe5c7a8cbc" d="M81.6123,104.88335a3.59724,3.59724,0,0,0,1.41242-.26439,2.89577,2.89577,0,0,0,1.05656-.74982,3.28689,3.28689,0,0,0,.65837-1.1764,4.98037,4.98037,0,0,0,.22654-1.55375v-9.3219H88.201v9.3219a7.2387,7.2387,0,0,1-.45843,2.61714,5.90244,5.90244,0,0,1-1.31058,2.055,5.97279,5.97279,0,0,1-2.07014,1.34913,8.04625,8.04625,0,0,1-5.50485,0,5.96442,5.96442,0,0,1-2.07542-1.34913,5.89774,5.89774,0,0,1-1.30985-2.055,7.23862,7.23862,0,0,1-.45843-2.61714v-9.3219h3.23471v9.3219a4.96115,4.96115,0,0,0,.22646,1.55375,3.29211,3.29211,0,0,0,.65764,1.17641,2.90813,2.90813,0,0,0,1.05655.74981,3.62972,3.62972,0,0,0,1.42359.2644Z"/><path class="e59430e7-4665-4a8c-850b-b5fe5c7a8cbc" d="M108.06038,91.81709v15.656h-2.85784V97.8588q0-.30164.01639-.64717c.01095-.23021.03034-.46424.05959-.70114l-4.475,8.49136a1.20123,1.20123,0,0,1-1.13246.7018H99.218a1.20564,1.20564,0,0,1-1.13194-.70181l-4.49679-8.52361q.03273.37762.05407.728.02172.351.02183.65261v9.61429H90.80734v-15.656h2.45877q.20488,0,.36681.01037a.96016.96016,0,0,1,.28539.05948.65712.65712,0,0,1,.22654.15131,1.18912,1.18912,0,0,1,.1992.28558l4.37835,8.35159q.20412.3773.38268.77665c.11845.26668.232.53938.33948.82018q.162-.431.34-.8415.17766-.41038.38253-.7876l4.34557-8.31927a1.10252,1.10252,0,0,1,.20464-.28557.71528.71528,0,0,1,.23212-.15132.94917.94917,0,0,1,.28047-.05948q.15573-.01026.37173-.01037h2.45877Z"/><polygon class="e59430e7-4665-4a8c-850b-b5fe5c7a8cbc" points="113.997 94.352 113.997 98.377 119.216 98.377 119.216 100.827 113.997 100.827 113.997 104.937 120.704 104.937 120.704 107.473 110.74 107.473 110.74 91.817 120.704 91.817 120.704 94.352 113.997 94.352"/><path class="e59430e7-4665-4a8c-850b-b5fe5c7a8cbc" d="M136.82673,91.81709v15.656H135.155a1.46316,1.46316,0,0,1-.63581-.124,1.53428,1.53428,0,0,1-.50716-.42667l-7.796-9.92646q.03274.37752.04864.74452.01643.36726.01639.68v9.05267h-2.85783v-15.656h1.704a3.20025,3.20025,0,0,1,.35042.01589.77728.77728,0,0,1,.26424.0758,1.025,1.025,0,0,1,.22631.1561,2.26642,2.26642,0,0,1,.23689.25895l7.85014,9.96972q-.04288-.40929-.06436-.79305-.02194-.3828-.02183-.7279V91.81712h2.85769Z"/><polygon class="e59430e7-4665-4a8c-850b-b5fe5c7a8cbc" points="151.007 94.428 146.435 94.428 146.435 107.473 143.189 107.473 143.189 94.428 138.617 94.428 138.617 91.817 151.007 91.817 151.007 94.428"/><g id="a16c054b-a8c5-42df-ad7f-fb07881403dc" data-name=" 222302768"><path id="fbe84e40-8ba3-4730-a6eb-32128e69b6dc" data-name=" 222302960" class="fae1c635-c078-47c1-9ac1-3abc9c28844c" d="M49.46557,91.81212c.07774.07051.15864.13543.23447.21043a8.045,8.045,0,0,1,2.53776,6.02352,8.16411,8.16411,0,0,1-2.51469,6.04719,8.94575,8.94575,0,0,1-12.29655,0,8.49709,8.49709,0,0,1,0-12.07071,19.69991,19.69991,0,0,0-9.09539,7.91691s5.01959,9.08974,15.41527,9.06047c10.28107-.02786,15.3111-9.14369,15.3111-9.14369a19.8417,19.8417,0,0,0-9.59189-8.04415Z"/><path id="b2e9df50-c033-4c8f-b68a-a163bb36fe24" data-name=" 222303128" class="fae1c635-c078-47c1-9ac1-3abc9c28844c" d="M43.57445,93.60234a4.45693,4.45693,0,0,0-1.02328.11962l1.14,4.22133-4.3128-1.0523a4.75554,4.75554,0,0,0-.14079,1.15509,4.37133,4.37133,0,0,0,1.25326,3.17682,4.17827,4.17827,0,0,0,3.08364,1.26619,4.08081,4.08081,0,0,0,3.06446-1.28582,4.54968,4.54968,0,0,0,.01991-6.2927,4.13632,4.13632,0,0,0-3.08437-1.30823Z"/><path id="f57ff196-029b-4914-8162-70d016d6cd83" data-name=" 222302888" class="fae1c635-c078-47c1-9ac1-3abc9c28844c" d="M46.639,101.20326a4.08084,4.08084,0,0,1-3.06446,1.28581,4.17823,4.17823,0,0,1-3.08363-1.26618,4.3713,4.3713,0,0,1-1.25327-3.17682,4.756,4.756,0,0,1,.14079-1.15509l4.3128,1.0523-1.14-4.22133a4.45623,4.45623,0,0,1,1.02327-.11962,4.13628,4.13628,0,0,1,3.08437,1.30824,4.54967,4.54967,0,0,1-.01991,6.29269Z"/></g></g></svg>