<svg id="e44ea814-26e3-427d-875d-77b81f27b444" data-name="Warstwa 2" xmlns="http://www.w3.org/2000/svg" viewBox="0 0 164 164"><defs><style>.aba1719c-fdc7-492c-bafc-5e3dabaabb05{fill:#c38b34;}.be0deb86-c66d-41d3-9bb9-895ab33130db{fill:#fff;}.be0deb86-c66d-41d3-9bb9-895ab33130db,.ecc9c58f-7739-40b4-bb9b-2aa749d7bb9a{fill-rule:evenodd;}.ecc9c58f-7739-40b4-bb9b-2aa749d7bb9a{fill:#bf910c;}</style></defs><title>logotypy</title><rect class="aba1719c-fdc7-492c-bafc-5e3dabaabb05" width="164" height="164"/><g id="a8d6790f-3c38-464a-8b5b-ed7b9c44555a" data-name="Warstwa_1"><g id="eaace658-6451-44f8-954e-43a5f80e751e" data-name=" 102603880"><path id="bdcb52b8-e422-459e-bf97-fee3c86ff830" data-name=" 104861824" class="be0deb86-c66d-41d3-9bb9-895ab33130db" d="M31.38948,110.59217H26.51171v-8.61323h-6.634v8.61323H15V91.13085h4.8777v7.12867h6.634V91.13085h4.87777v19.46131Zm13.08971,0H34.041V107.1993h2.78023V94.52374H34.041V91.13079H44.47919v3.39295H41.699V107.1993h2.78023Zm8.68827.35887a15.855,15.855,0,0,1-3.91032-.43155,19.7834,19.7834,0,0,1-3.12972-1.07268V104.8173h.44209a10.8617,10.8617,0,0,0,3.213,1.91016,9.55319,9.55319,0,0,0,3.40767.66747,8.71068,8.71068,0,0,0,1.09916-.09145,3.8128,3.8128,0,0,0,1.09908-.288,2.42064,2.42064,0,0,0,.85857-.6213,1.53583,1.53583,0,0,0,.35134-1.05334,1.45413,1.45413,0,0,0-.57283-1.19024,3.64487,3.64487,0,0,0-1.36619-.667q-.989-.2613-2.11432-.497a16.82852,16.82852,0,0,1-2.10124-.57521,6.53668,6.53668,0,0,1-3.22673-2.14471,5.60078,5.60078,0,0,1-.97573-3.37418,5.24961,5.24961,0,0,1,2.304-4.42711A9.45565,9.45565,0,0,1,54.29988,90.772a16.99792,16.99792,0,0,1,3.44316.3534,15.00393,15.00393,0,0,1,3.06637.9556v4.44943h-.42972a9.6418,9.6418,0,0,0-2.63576-1.56361,8.34,8.34,0,0,0-3.19527-.63871,6.5161,6.5161,0,0,0-1.14566.091,4.381,4.381,0,0,0-1.0672.35114,2.1591,2.1591,0,0,0-.78741.61719,1.41706,1.41706,0,0,0-.33175.9162,1.45911,1.45911,0,0,0,.52674,1.18379,5.32126,5.32126,0,0,0,2.03651.79139q.97536.22213,1.87975.43155a17.66493,17.66493,0,0,1,1.93251.57522,6.59115,6.59115,0,0,1,2.999,1.96873,5.08936,5.08936,0,0,1,.98247,3.26258,5.62453,5.62453,0,0,1-2.27075,4.669,9.743,9.743,0,0,1-6.13538,1.7652Zm14.61406-.35887v-15.742H62.04205V91.13079H78.39862v3.71935H72.65923v15.742H67.78152Zm29.80816-9.7243a10.48676,10.48676,0,0,1-2.51409,7.42591A8.943,8.943,0,0,1,88.18508,111a8.8614,8.8614,0,0,1-6.89-2.73869,10.54356,10.54356,0,0,1-2.50093-7.39343,10.55259,10.55259,0,0,1,2.50093-7.41906,8.88349,8.88349,0,0,1,6.89-2.7258,8.93252,8.93252,0,0,1,6.89051,2.71251,10.51169,10.51169,0,0,1,2.51409,7.43235Zm-5.024-.0133a10.64418,10.64418,0,0,0-.35865-2.9622,6.1083,6.1083,0,0,0-.95831-2.008,3.70052,3.70052,0,0,0-1.41445-1.14439,4.1627,4.1627,0,0,0-3.26505-.026,3.91631,3.91631,0,0,0-1.40859,1.14439,5.94748,5.94748,0,0,0-.97107,2.01442,12.50851,12.50851,0,0,0-.0196,5.97106,6.05676,6.05676,0,0,0,.96513,1.98155,3.637,3.637,0,0,0,1.42087,1.15759,4.06424,4.06424,0,0,0,1.64228.34663,3.93747,3.93747,0,0,0,1.6683-.37257,3.6446,3.6446,0,0,0,1.39542-1.15768,6.41864,6.41864,0,0,0,.96465-1.98154,10.60168,10.60168,0,0,0,.33906-2.96318Zm25.42987,9.73755h-5.95268l-5.395-7.12867h-1.74122v7.12867h-4.8454V91.1308h7.79782a17.051,17.051,0,0,1,2.8126.203,5.97455,5.97455,0,0,1,2.21326.843,5.0853,5.0853,0,0,1,1.6528,1.69357,5.03038,5.03038,0,0,1,.6125,2.60922,6.07584,6.07584,0,0,1-1.00167,3.62927,7.05429,7.05429,0,0,1-2.67808,2.21658l6.525,8.26669Zm-7.8534-13.49578a2.66505,2.66505,0,0,0-.2793-1.26049,1.84588,1.84588,0,0,0-.92876-.81613,3.33962,3.33962,0,0,0-1.01347-.24785q-.55846-.0521-1.38987-.05253h-1.624v5.2368H106.297a10.19979,10.19979,0,0,0,1.72066-.12384,2.54894,2.54894,0,0,0,1.20212-.52945,2.28942,2.28942,0,0,0,.69538-.87463,3.30636,3.30636,0,0,0,.227-1.33187Zm19.27353,13.49578H118.97752v-3.39287h2.78024V94.5237h-2.78024v-3.393h10.43815v3.393h-2.78015v12.67555h2.78015Zm1.16245,0L137.1319,91.1308h5.31472L149,110.59212h-5.01133l-1.21674-3.98041h-6.08615l-1.21673,3.98041h-4.89093Zm11.13126-7.50406-1.98014-6.4114-1.98084,6.4114h3.961Z"/><polygon id="f31291d5-597a-4f90-b0ef-ec84a9739c35" data-name=" 104860912" class="ecc9c58f-7739-40b4-bb9b-2aa749d7bb9a" points="106.643 81.276 51.96 81.276 51.96 55.673 106.643 55.673 106.643 81.276"/><path id="e394c88a-6e50-4a94-9890-c2cbc1c78dac" data-name=" 104860816" class="be0deb86-c66d-41d3-9bb9-895ab33130db" d="M47.927,53h64.13551V84.26046H47.927Zm24.8765,5.92659V77.86408H87.183V58.92659Zm15.42856,0V77.86408H102.6122V58.92659Zm3.1099,3.119H94.7481c3.32239,0,4.98956,2.20916,4.98956,4.43485,0,2.26445-1.72138,4.54677-5.22976,4.54677l-.56079-.01878v3.93989H91.342V62.04559Zm2.602,2.49609v4.0709h.813c1.49812-.02546,2.36753-.5168,2.46052-2.05753-.10849-1.48489-.84916-1.99008-2.33613-2.01337ZM79.99361,75.33932l5.95454-13.44777H83.05573l-2.95836,6.795-.10376.41036L79.89,68.692l-2.95972-6.8004H74.03852ZM69.54723,64.54453H65.94681v10.4037H63.18216V64.54453H59.58079V62.0478h9.96639v2.49673Zm-12.173-5.618V77.864H71.75458V58.92653Zm-1.04993-.93513V78.80005h47.33775V57.9914Z"/></g></g></svg>