<svg id="bf217c3e-b058-4c6b-82f6-e4a01d34fc74" data-name="Warstwa 2" xmlns="http://www.w3.org/2000/svg" viewBox="0 0 164 164"><defs><style>.a4dfe6ed-2576-450e-a72e-871d0e289d62{fill:#005da4;}.ad67b7fc-aba7-471a-afab-136877179bdf{fill:#fff;}.ad67b7fc-aba7-471a-afab-136877179bdf,.e3e2d59a-6e5c-4ee9-a9be-1144fef4d238{fill-rule:evenodd;}.e3e2d59a-6e5c-4ee9-a9be-1144fef4d238{fill:#004b8b;}</style></defs><title>logotypy</title><rect class="a4dfe6ed-2576-450e-a72e-871d0e289d62" width="164" height="164"/><g id="b9c9e265-9d0e-4b5d-93d8-61e976dd4036" data-name="Warstwa_1"><polygon class="ad67b7fc-aba7-471a-afab-136877179bdf" points="31.943 67 140.773 67 140.773 97 24.773 97 24.773 85.232 25.07 84.71 25.367 84.175 25.665 83.639 25.947 83.104 26.23 82.568 26.506 82.025 26.781 81.475 27.049 80.933 27.31 80.382 27.571 79.825 27.818 79.268 28.072 78.711 28.311 78.146 28.55 77.581 28.782 77.017 29.014 76.445 29.232 75.873 29.449 75.302 29.659 74.723 29.87 74.144 30.073 73.557 30.268 72.971 30.457 72.385 30.645 71.799 30.827 71.205 31.001 70.612 31.175 70.018 31.334 69.417 31.494 68.817 31.653 68.216 31.798 67.608 31.943 67"/><polygon class="ad67b7fc-aba7-471a-afab-136877179bdf" points="81.577 97 81.925 96.11 82.258 95.212 82.592 94.322 82.918 93.417 83.237 92.513 83.549 91.608 83.86 90.696 84.158 89.784 84.448 88.865 84.73 87.946 85.013 87.027 85.281 86.1 85.542 85.174 85.803 84.24 86.05 83.306 86.289 82.366 86.529 81.425 86.753 80.484 86.971 79.536 87.188 78.588 87.391 77.639 87.594 76.684 87.782 75.729 87.964 74.766 88.145 73.803 88.312 72.841 88.471 71.871 88.624 70.901 88.769 69.931 88.907 68.954 89.044 67.977 89.167 67 84.099 67 83.969 67.984 83.831 68.961 83.686 69.938 83.534 70.916 83.375 71.885 83.201 72.855 83.026 73.825 82.838 74.788 82.65 75.75 82.447 76.706 82.244 77.661 82.026 78.616 81.801 79.565 81.569 80.506 81.33 81.454 81.084 82.394 80.83 83.328 80.569 84.262 80.301 85.195 80.025 86.122 79.742 87.048 79.445 87.967 79.148 88.887 78.843 89.806 78.532 90.718 78.212 91.622 77.886 92.527 77.545 93.432 77.205 94.329 76.857 95.219 76.501 96.11 76.139 97 81.577 97"/><polygon class="ad67b7fc-aba7-471a-afab-136877179bdf" points="78.858 97 79.213 96.11 79.561 95.219 79.902 94.322 80.235 93.425 80.562 92.52 80.881 91.615 81.192 90.703 81.504 89.791 81.801 88.879 82.091 87.96 82.374 87.034 82.65 86.107 82.925 85.181 83.186 84.254 83.44 83.314 83.686 82.38 83.926 81.439 84.165 80.498 84.389 79.55 84.607 78.602 84.817 77.647 85.02 76.691 85.216 75.736 85.404 74.773 85.586 73.811 85.76 72.848 85.919 71.878 86.079 70.908 86.231 69.938 86.369 68.961 86.507 67.984 86.63 67 81.562 67 81.424 67.984 81.287 68.969 81.134 69.946 80.982 70.923 80.815 71.893 80.641 72.863 80.46 73.832 80.272 74.795 80.076 75.757 79.873 76.713 79.655 77.676 79.438 78.624 79.206 79.572 78.974 80.52 78.727 81.468 78.474 82.409 78.22 83.343 77.952 84.276 77.676 85.21 77.393 86.136 77.103 87.063 76.806 87.982 76.501 88.901 76.19 89.813 75.864 90.725 75.537 91.63 75.204 92.534 74.863 93.439 74.515 94.329 74.153 95.227 73.79 96.117 73.42 97 78.858 97"/><polygon class="ad67b7fc-aba7-471a-afab-136877179bdf" points="76.139 97 76.501 96.11 76.857 95.219 77.205 94.329 77.545 93.432 77.886 92.527 78.212 91.622 78.532 90.718 78.843 89.806 79.148 88.887 79.445 87.967 79.742 87.048 80.025 86.122 80.301 85.195 80.569 84.262 80.83 83.328 81.084 82.394 81.33 81.454 81.569 80.506 81.801 79.565 82.026 78.616 82.244 77.661 82.447 76.706 82.65 75.75 82.838 74.788 83.026 73.825 83.201 72.855 83.375 71.885 83.534 70.916 83.686 69.938 83.831 68.961 83.969 67.984 84.099 67 79.017 67 78.879 67.984 78.742 68.969 78.589 69.946 78.423 70.923 78.256 71.9 78.082 72.87 77.894 73.84 77.698 74.809 77.495 75.772 77.285 76.727 77.067 77.683 76.842 78.638 76.61 79.586 76.364 80.534 76.117 81.482 75.856 82.423 75.588 83.357 75.313 84.291 75.037 85.224 74.747 86.151 74.45 87.077 74.138 87.996 73.826 88.908 73.507 89.828 73.181 90.732 72.848 91.644 72.499 92.542 72.152 93.439 71.789 94.337 71.427 95.227 71.057 96.117 70.673 97 76.139 97"/><polygon class="ad67b7fc-aba7-471a-afab-136877179bdf" points="73.42 97 73.79 96.117 74.16 95.227 74.515 94.329 74.863 93.439 75.204 92.534 75.537 91.63 75.864 90.725 76.19 89.813 76.501 88.901 76.806 87.982 77.103 87.063 77.393 86.136 77.676 85.21 77.952 84.276 78.22 83.343 78.474 82.409 78.727 81.468 78.974 80.52 79.206 79.572 79.438 78.624 79.655 77.676 79.873 76.713 80.076 75.757 80.272 74.795 80.46 73.832 80.641 72.863 80.815 71.893 80.982 70.923 81.134 69.946 81.287 68.969 81.424 67.984 81.562 67 76.473 67 76.335 67.984 76.19 68.969 76.03 69.953 75.871 70.93 75.697 71.907 75.516 72.884 75.327 73.854 75.124 74.817 74.921 75.779 74.703 76.742 74.479 77.697 74.247 78.653 74.008 79.601 73.761 80.549 73.5 81.497 73.239 82.438 72.964 83.372 72.681 84.305 72.391 85.239 72.094 86.165 71.789 87.092 71.477 88.011 71.158 88.923 70.832 89.835 70.491 90.747 70.151 91.651 69.803 92.556 69.44 93.454 69.07 94.344 68.701 95.234 68.316 96.117 67.925 97 73.42 97"/><polygon class="ad67b7fc-aba7-471a-afab-136877179bdf" points="70.673 97 71.057 96.117 71.427 95.227 71.789 94.337 72.152 93.439 72.499 92.542 72.848 91.644 73.181 90.732 73.507 89.828 73.826 88.908 74.138 87.996 74.45 87.077 74.747 86.151 75.037 85.224 75.313 84.291 75.588 83.357 75.856 82.423 76.117 81.482 76.364 80.534 76.61 79.586 76.842 78.638 77.067 77.683 77.285 76.727 77.495 75.772 77.698 74.809 77.894 73.84 78.082 72.87 78.256 71.9 78.423 70.923 78.582 69.946 78.742 68.969 78.879 67.984 79.017 67 73.935 67 73.79 67.992 73.638 68.976 73.478 69.96 73.312 70.937 73.138 71.914 72.949 72.891 72.753 73.861 72.55 74.831 72.34 75.794 72.115 76.756 71.883 77.712 71.651 78.667 71.398 79.622 71.144 80.571 70.883 81.512 70.614 82.452 70.332 83.393 70.042 84.327 69.745 85.253 69.44 86.18 69.128 87.106 68.809 88.025 68.476 88.937 68.142 89.849 67.794 90.761 67.446 91.666 67.084 92.563 66.714 93.461 66.337 94.351 65.953 95.234 65.561 96.124 65.163 97 70.673 97"/><polygon class="ad67b7fc-aba7-471a-afab-136877179bdf" points="67.925 97 68.316 96.117 68.701 95.234 69.07 94.344 69.44 93.454 69.803 92.556 70.151 91.651 70.491 90.747 70.832 89.835 71.158 88.923 71.477 88.011 71.789 87.092 72.094 86.165 72.391 85.239 72.681 84.305 72.964 83.372 73.239 82.438 73.5 81.497 73.761 80.549 74.008 79.601 74.247 78.653 74.479 77.697 74.703 76.742 74.921 75.779 75.124 74.817 75.327 73.854 75.516 72.884 75.697 71.907 75.871 70.93 76.03 69.953 76.19 68.969 76.335 67.984 76.473 67 71.398 67 71.245 67.992 71.093 68.976 70.926 69.967 70.752 70.944 70.571 71.929 70.383 72.899 70.18 73.876 69.969 74.846 69.752 75.808 69.527 76.771 69.288 77.726 69.041 78.682 68.787 79.637 68.526 80.585 68.258 81.533 67.983 82.474 67.693 83.408 67.396 84.341 67.091 85.275 66.779 86.201 66.453 87.121 66.127 88.04 65.786 88.952 65.445 89.864 65.09 90.768 64.727 91.673 64.358 92.571 63.981 93.468 63.589 94.358 63.198 95.241 62.799 96.124 62.386 97 67.925 97"/><polygon class="ad67b7fc-aba7-471a-afab-136877179bdf" points="65.163 97 65.561 96.124 65.953 95.234 66.337 94.351 66.714 93.461 67.084 92.563 67.446 91.666 67.794 90.761 68.142 89.849 68.476 88.937 68.809 88.025 69.128 87.106 69.44 86.18 69.745 85.253 70.042 84.327 70.332 83.393 70.614 82.452 70.883 81.512 71.144 80.571 71.398 79.622 71.651 78.667 71.883 77.712 72.115 76.756 72.34 75.794 72.55 74.831 72.753 73.861 72.949 72.891 73.138 71.914 73.312 70.937 73.478 69.96 73.638 68.976 73.79 67.992 73.935 67 68.853 67 68.701 67.992 68.541 68.983 68.374 69.967 68.193 70.952 68.005 71.936 67.809 72.913 67.606 73.883 67.388 74.853 67.164 75.823 66.932 76.785 66.692 77.748 66.438 78.703 66.178 79.659 65.909 80.607 65.634 81.548 65.344 82.488 65.047 83.429 64.742 84.363 64.43 85.289 64.111 86.216 63.778 87.142 63.444 88.054 63.096 88.974 62.741 89.878 62.371 90.783 62.002 91.688 61.625 92.585 61.233 93.475 60.834 94.365 60.436 95.249 60.022 96.124 59.602 97 65.163 97"/><polygon class="ad67b7fc-aba7-471a-afab-136877179bdf" points="62.386 97 62.799 96.124 63.198 95.241 63.589 94.358 63.981 93.468 64.358 92.571 64.727 91.673 65.09 90.768 65.445 89.864 65.786 88.952 66.127 88.04 66.46 87.121 66.779 86.201 67.091 85.275 67.396 84.341 67.693 83.408 67.983 82.474 68.258 81.533 68.526 80.585 68.787 79.637 69.041 78.682 69.288 77.726 69.527 76.771 69.752 75.808 69.969 74.846 70.18 73.876 70.383 72.899 70.571 71.929 70.752 70.944 70.926 69.967 71.093 68.976 71.245 67.992 71.398 67 66.315 67 66.156 67.999 65.996 68.99 65.822 69.975 65.634 70.966 65.445 71.943 65.242 72.928 65.025 73.897 64.807 74.875 64.575 75.837 64.336 76.807 64.082 77.762 63.829 78.725 63.56 79.673 63.278 80.621 62.995 81.569 62.698 82.51 62.393 83.451 62.081 84.385 61.762 85.311 61.429 86.238 61.088 87.157 60.74 88.076 60.385 88.988 60.015 89.9 59.645 90.797 59.261 91.702 58.87 92.592 58.471 93.483 58.065 94.373 57.644 95.256 57.224 96.132 56.789 97 62.386 97"/><polygon class="ad67b7fc-aba7-471a-afab-136877179bdf" points="59.602 97 60.022 96.124 60.436 95.249 60.834 94.365 61.233 93.475 61.625 92.585 62.002 91.688 62.371 90.783 62.741 89.878 63.096 88.974 63.444 88.054 63.778 87.142 64.111 86.216 64.43 85.289 64.742 84.363 65.047 83.429 65.344 82.488 65.634 81.548 65.909 80.607 66.178 79.659 66.438 78.703 66.692 77.748 66.932 76.785 67.164 75.823 67.388 74.853 67.606 73.883 67.809 72.913 68.005 71.936 68.193 70.952 68.374 69.967 68.541 68.983 68.701 67.992 68.853 67 63.771 67 63.611 67.999 63.437 68.99 63.263 69.982 63.075 70.973 62.872 71.958 62.669 72.935 62.444 73.912 62.219 74.889 61.98 75.859 61.733 76.821 61.48 77.784 61.211 78.739 60.936 79.695 60.646 80.65 60.356 81.591 60.051 82.532 59.74 83.473 59.413 84.406 59.08 85.333 58.739 86.259 58.391 87.179 58.036 88.098 57.666 89.01 57.289 89.914 56.905 90.819 56.506 91.716 56.107 92.607 55.694 93.497 55.274 94.38 54.846 95.256 54.411 96.132 53.969 97 59.602 97"/><polygon class="ad67b7fc-aba7-471a-afab-136877179bdf" points="56.789 97 57.224 96.132 57.644 95.256 58.065 94.373 58.471 93.483 58.87 92.592 59.261 91.702 59.645 90.797 60.015 89.9 60.385 88.988 60.74 88.076 61.088 87.157 61.429 86.238 61.762 85.311 62.081 84.385 62.393 83.451 62.698 82.51 62.995 81.569 63.278 80.621 63.56 79.673 63.829 78.725 64.082 77.762 64.336 76.807 64.575 75.837 64.807 74.875 65.025 73.897 65.242 72.928 65.445 71.943 65.634 70.966 65.822 69.975 65.996 68.99 66.156 67.999 66.315 67 61.218 67 61.052 67.999 60.878 68.998 60.697 69.989 60.501 70.981 60.298 71.972 60.08 72.949 59.856 73.934 59.624 74.903 59.377 75.873 59.123 76.843 58.855 77.806 58.58 78.768 58.297 79.724 58 80.672 57.702 81.62 57.383 82.561 57.064 83.495 56.731 84.428 56.39 85.362 56.035 86.281 55.68 87.2 55.31 88.119 54.933 89.031 54.541 89.936 54.143 90.834 53.737 91.731 53.323 92.621 52.903 93.504 52.468 94.387 52.026 95.263 51.576 96.132 51.119 97 56.789 97"/><polygon class="ad67b7fc-aba7-471a-afab-136877179bdf" points="53.969 97 54.411 96.132 54.846 95.256 55.274 94.38 55.694 93.497 56.107 92.607 56.506 91.716 56.905 90.819 57.289 89.914 57.666 89.01 58.036 88.098 58.391 87.179 58.739 86.259 59.08 85.333 59.413 84.406 59.74 83.473 60.051 82.532 60.356 81.591 60.646 80.65 60.936 79.695 61.211 78.739 61.48 77.784 61.733 76.821 61.98 75.859 62.219 74.889 62.444 73.912 62.669 72.935 62.872 71.958 63.075 70.973 63.263 69.982 63.437 68.99 63.611 67.999 63.771 67 58.667 67 58.5 68.006 58.319 69.005 58.13 70.004 57.927 70.995 57.717 71.98 57.492 72.964 57.26 73.948 57.021 74.925 56.767 75.895 56.506 76.865 56.231 77.827 55.948 78.79 55.651 79.745 55.353 80.701 55.034 81.642 54.715 82.59 54.382 83.524 54.041 84.457 53.686 85.384 53.323 86.31 52.953 87.229 52.569 88.141 52.178 89.053 51.779 89.958 51.373 90.855 50.953 91.746 50.525 92.636 50.09 93.519 49.64 94.402 49.191 95.27 48.727 96.139 48.256 97 53.969 97"/><polygon class="ad67b7fc-aba7-471a-afab-136877179bdf" points="51.119 97 51.576 96.132 52.026 95.263 52.468 94.387 52.903 93.504 53.323 92.621 53.737 91.731 54.143 90.834 54.541 89.936 54.933 89.031 55.31 88.119 55.68 87.2 56.042 86.281 56.39 85.362 56.731 84.428 57.064 83.495 57.383 82.561 57.702 81.62 58 80.672 58.297 79.724 58.58 78.768 58.855 77.806 59.123 76.843 59.377 75.873 59.624 74.903 59.856 73.934 60.08 72.949 60.298 71.972 60.501 70.981 60.697 69.989 60.878 68.998 61.052 67.999 61.218 67 56.115 67 55.941 68.006 55.759 69.012 55.556 70.011 55.353 71.002 55.136 71.994 54.904 72.986 54.665 73.97 54.418 74.947 54.157 75.917 53.882 76.887 53.599 77.856 53.309 78.819 53.004 79.774 52.693 80.73 52.366 81.671 52.033 82.619 51.692 83.552 51.337 84.486 50.974 85.412 50.605 86.339 50.22 87.258 49.829 88.17 49.423 89.075 49.01 89.98 48.589 90.877 48.154 91.767 47.712 92.657 47.262 93.533 46.806 94.409 46.334 95.277 45.856 96.146 45.37 97 51.119 97"/><polygon class="ad67b7fc-aba7-471a-afab-136877179bdf" points="48.256 97 48.727 96.139 49.191 95.27 49.64 94.402 50.09 93.519 50.525 92.636 50.953 91.746 51.373 90.855 51.779 89.958 52.178 89.053 52.569 88.141 52.953 87.229 53.323 86.31 53.686 85.384 54.041 84.457 54.382 83.524 54.715 82.59 55.034 81.642 55.353 80.701 55.651 79.745 55.948 78.79 56.231 77.827 56.506 76.865 56.767 75.895 57.021 74.925 57.26 73.948 57.492 72.964 57.717 71.98 57.927 70.995 58.13 70.004 58.319 69.005 58.5 68.006 58.667 67 53.563 67 53.381 68.013 53.193 69.019 52.99 70.018 52.772 71.017 52.548 72.016 52.316 73 52.062 73.992 51.808 74.969 51.533 75.946 51.257 76.916 50.96 77.885 50.663 78.848 50.344 79.803 50.025 80.759 49.684 81.707 49.343 82.648 48.988 83.589 48.618 84.522 48.241 85.449 47.857 86.368 47.458 87.287 47.052 88.199 46.639 89.104 46.211 90.001 45.776 90.899 45.327 91.789 44.87 92.672 44.406 93.548 43.927 94.423 43.442 95.285 42.949 96.146 42.448 97 48.256 97"/><polygon class="ad67b7fc-aba7-471a-afab-136877179bdf" points="45.37 97 45.856 96.146 46.334 95.277 46.806 94.409 47.262 93.533 47.712 92.657 48.154 91.767 48.589 90.877 49.01 89.98 49.423 89.075 49.829 88.17 50.22 87.258 50.605 86.339 50.974 85.412 51.337 84.486 51.692 83.552 52.033 82.619 52.366 81.671 52.693 80.73 53.004 79.774 53.309 78.819 53.599 77.856 53.882 76.887 54.157 75.917 54.418 74.947 54.665 73.97 54.904 72.986 55.136 71.994 55.353 71.002 55.556 70.011 55.759 69.012 55.941 68.006 56.115 67 51.018 67 50.829 68.013 50.626 69.026 50.416 70.033 50.199 71.031 49.959 72.03 49.72 73.022 49.459 74.013 49.191 74.998 48.915 75.975 48.618 76.945 48.321 77.914 48.002 78.884 47.676 79.839 47.342 80.795 46.994 81.743 46.639 82.684 46.269 83.625 45.892 84.558 45.501 85.485 45.102 86.404 44.689 87.323 44.268 88.228 43.833 89.133 43.398 90.03 42.941 90.928 42.477 91.811 42.006 92.694 41.528 93.569 41.035 94.438 40.534 95.299 40.02 96.153 39.498 97 45.37 97"/><polygon class="ad67b7fc-aba7-471a-afab-136877179bdf" points="42.448 97 42.949 96.146 43.442 95.285 43.927 94.423 44.406 93.548 44.87 92.672 45.327 91.789 45.776 90.899 46.211 90.001 46.639 89.104 47.052 88.199 47.458 87.287 47.857 86.368 48.241 85.449 48.618 84.522 48.988 83.589 49.343 82.648 49.684 81.707 50.025 80.759 50.344 79.803 50.663 78.848 50.96 77.885 51.257 76.916 51.533 75.946 51.808 74.969 52.062 73.992 52.316 73 52.548 72.016 52.772 71.017 52.99 70.018 53.193 69.019 53.381 68.013 53.563 67 48.459 67 48.263 68.02 48.06 69.034 47.835 70.047 47.61 71.046 47.364 72.052 47.11 73.043 46.842 74.035 46.566 75.026 46.276 76.004 45.972 76.981 45.66 77.951 45.334 78.92 45 79.876 44.652 80.831 44.29 81.779 43.92 82.727 43.536 83.661 43.144 84.595 42.738 85.521 42.325 86.44 41.897 87.359 41.462 88.264 41.013 89.169 40.556 90.066 40.092 90.957 39.606 91.84 39.121 92.715 38.62 93.584 38.113 94.452 37.591 95.306 37.062 96.16 36.525 97 42.448 97"/><polygon class="ad67b7fc-aba7-471a-afab-136877179bdf" points="39.498 97 40.02 96.153 40.534 95.299 41.035 94.438 41.528 93.569 42.006 92.694 42.477 91.811 42.941 90.928 43.398 90.03 43.833 89.133 44.268 88.228 44.689 87.323 45.102 86.404 45.501 85.485 45.892 84.558 46.269 83.625 46.639 82.684 46.994 81.743 47.342 80.795 47.676 79.839 48.002 78.884 48.321 77.914 48.618 76.945 48.915 75.975 49.191 74.998 49.459 74.013 49.72 73.022 49.967 72.03 50.199 71.031 50.416 70.033 50.626 69.026 50.829 68.013 51.018 67 45.892 67 45.689 68.02 45.479 69.041 45.254 70.054 45.015 71.068 44.761 72.074 44.5 73.072 44.217 74.064 43.935 75.056 43.63 76.04 43.318 77.017 42.992 77.987 42.651 78.957 42.303 79.919 41.941 80.875 41.571 81.823 41.187 82.771 40.788 83.712 40.382 84.638 39.962 85.564 39.527 86.484 39.084 87.403 38.635 88.308 38.171 89.205 37.692 90.103 37.207 90.986 36.714 91.868 36.199 92.744 35.684 93.606 35.155 94.467 34.618 95.321 34.067 96.16 33.509 97 39.498 97"/><polygon class="ad67b7fc-aba7-471a-afab-136877179bdf" points="36.525 97 37.062 96.16 37.591 95.306 38.113 94.452 38.62 93.584 39.121 92.715 39.606 91.84 40.092 90.957 40.556 90.066 41.013 89.169 41.462 88.264 41.897 87.359 42.325 86.44 42.738 85.521 43.144 84.595 43.536 83.661 43.92 82.727 44.29 81.779 44.652 80.831 45 79.876 45.334 78.92 45.66 77.951 45.972 76.981 46.276 76.004 46.566 75.026 46.842 74.035 47.11 73.043 47.364 72.052 47.61 71.046 47.835 70.047 48.053 69.034 48.263 68.02 48.459 67 43.333 67 43.123 68.028 42.898 69.056 42.666 70.076 42.412 71.089 42.151 72.095 41.876 73.101 41.593 74.1 41.288 75.092 40.977 76.076 40.65 77.06 40.31 78.037 39.962 79 39.592 79.97 39.222 80.925 38.831 81.873 38.432 82.821 38.019 83.755 37.591 84.689 37.156 85.615 36.706 86.534 36.25 87.446 35.778 88.351 35.293 89.249 34.8 90.139 34.292 91.022 33.777 91.898 33.248 92.766 32.712 93.627 32.161 94.481 31.595 95.328 31.03 96.168 30.442 97 36.525 97"/><polygon class="ad67b7fc-aba7-471a-afab-136877179bdf" points="33.509 97 34.067 96.16 34.618 95.321 35.155 94.467 35.684 93.606 36.199 92.744 36.714 91.868 37.207 90.986 37.692 90.103 38.171 89.205 38.635 88.308 39.084 87.403 39.527 86.484 39.962 85.564 40.382 84.638 40.788 83.712 41.187 82.771 41.571 81.823 41.941 80.875 42.303 79.919 42.651 78.957 42.992 77.987 43.318 77.017 43.63 76.04 43.935 75.056 44.217 74.064 44.5 73.072 44.761 72.074 45.015 71.068 45.254 70.054 45.479 69.041 45.689 68.02 45.892 67 40.766 67 40.549 68.035 40.317 69.063 40.07 70.09 39.817 71.111 39.541 72.124 39.251 73.13 38.954 74.136 38.642 75.128 38.316 76.119 37.975 77.104 37.62 78.081 37.25 79.058 36.873 80.021 36.482 80.976 36.076 81.931 35.655 82.879 35.227 83.813 34.785 84.747 34.328 85.673 33.857 86.592 33.379 87.497 32.886 88.402 32.385 89.299 31.871 90.182 31.341 91.065 30.805 91.934 30.254 92.802 29.688 93.656 29.116 94.503 28.536 95.343 27.941 96.175 27.332 97 33.509 97"/><polygon class="ad67b7fc-aba7-471a-afab-136877179bdf" points="30.442 97 31.03 96.168 31.595 95.328 32.161 94.481 32.712 93.627 33.248 92.766 33.777 91.898 34.292 91.022 34.8 90.139 35.293 89.249 35.778 88.351 36.25 87.446 36.706 86.534 37.156 85.615 37.591 84.689 38.019 83.755 38.432 82.821 38.831 81.873 39.222 80.925 39.592 79.97 39.962 79 40.31 78.037 40.65 77.06 40.977 76.076 41.288 75.092 41.593 74.1 41.876 73.101 42.151 72.095 42.412 71.089 42.666 70.076 42.898 69.056 43.123 68.028 43.333 67 38.2 67 37.975 68.013 37.743 69.019 37.497 70.018 37.236 71.01 36.96 72.001 36.67 72.986 36.373 73.963 36.054 74.933 35.728 75.902 35.387 76.858 35.032 77.813 34.662 78.761 34.285 79.702 33.893 80.636 33.487 81.562 33.067 82.481 32.639 83.4 32.197 84.305 31.74 85.203 31.276 86.1 30.798 86.983 30.305 87.859 29.804 88.735 29.29 89.596 28.76 90.45 28.224 91.297 27.68 92.136 27.122 92.969 26.549 93.794 25.969 94.604 25.375 95.415 24.773 96.211 24.773 97 30.442 97"/><polygon class="ad67b7fc-aba7-471a-afab-136877179bdf" points="27.332 97 27.941 96.175 28.536 95.343 29.116 94.503 29.688 93.656 30.254 92.802 30.805 91.934 31.341 91.065 31.871 90.182 32.385 89.299 32.886 88.402 33.379 87.497 33.857 86.592 34.328 85.673 34.785 84.747 35.227 83.813 35.655 82.879 36.076 81.931 36.482 80.976 36.873 80.021 37.25 79.058 37.62 78.081 37.975 77.104 38.316 76.119 38.642 75.128 38.954 74.136 39.251 73.13 39.541 72.124 39.817 71.111 40.07 70.09 40.317 69.063 40.549 68.035 40.766 67 35.619 67 35.43 67.854 35.227 68.701 35.017 69.54 34.8 70.38 34.568 71.212 34.321 72.045 34.075 72.87 33.814 73.695 33.538 74.513 33.263 75.323 32.973 76.134 32.668 76.937 32.364 77.733 32.045 78.53 31.711 79.318 31.378 80.1 31.03 80.882 30.674 81.656 30.312 82.423 29.935 83.191 29.551 83.951 29.159 84.703 28.76 85.456 28.354 86.194 27.934 86.932 27.506 87.664 27.071 88.394 26.629 89.111 26.179 89.828 25.715 90.537 25.251 91.246 24.773 91.941 24.773 97 27.332 97"/><polygon class="ad67b7fc-aba7-471a-afab-136877179bdf" points="24.773 96.211 25.375 95.415 25.969 94.604 26.549 93.794 27.122 92.969 27.68 92.136 28.224 91.297 28.76 90.45 29.29 89.596 29.804 88.727 30.305 87.859 30.798 86.983 31.276 86.1 31.74 85.203 32.197 84.305 32.639 83.4 33.067 82.481 33.487 81.562 33.893 80.636 34.285 79.702 34.662 78.761 35.032 77.813 35.387 76.858 35.728 75.902 36.054 74.933 36.373 73.963 36.67 72.986 36.96 72.001 37.236 71.01 37.497 70.018 37.743 69.019 37.975 68.013 38.2 67 33.045 67 32.886 67.68 32.719 68.361 32.552 69.041 32.371 69.714 32.19 70.387 31.994 71.053 31.798 71.719 31.588 72.385 31.378 73.043 31.16 73.702 30.935 74.361 30.703 75.012 30.464 75.656 30.218 76.3 29.971 76.945 29.71 77.581 29.449 78.218 29.181 78.848 28.905 79.478 28.623 80.107 28.333 80.73 28.043 81.345 27.738 81.96 27.434 82.575 27.122 83.183 26.803 83.791 26.477 84.392 26.15 84.985 25.817 85.579 25.476 86.173 25.128 86.759 24.773 87.338 24.773 96.211"/><polygon class="ad67b7fc-aba7-471a-afab-136877179bdf" points="24.773 91.941 25.251 91.246 25.715 90.537 26.179 89.828 26.629 89.111 27.071 88.394 27.506 87.664 27.934 86.932 28.354 86.194 28.76 85.456 29.159 84.703 29.551 83.951 29.935 83.191 30.312 82.423 30.674 81.656 31.03 80.882 31.378 80.1 31.711 79.318 32.045 78.53 32.364 77.733 32.668 76.937 32.973 76.134 33.263 75.323 33.538 74.513 33.814 73.695 34.075 72.87 34.321 72.045 34.568 71.212 34.8 70.38 35.017 69.54 35.227 68.701 35.43 67.854 35.619 67 30.464 67 30.341 67.499 30.218 68.006 30.087 68.505 29.957 68.998 29.819 69.497 29.681 69.989 29.536 70.489 29.391 70.973 29.239 71.466 29.087 71.958 28.927 72.443 28.768 72.928 28.601 73.405 28.434 73.89 28.26 74.368 28.079 74.846 27.898 75.323 27.716 75.801 27.528 76.271 27.339 76.742 27.144 77.212 26.948 77.676 26.745 78.146 26.542 78.609 26.332 79.065 26.114 79.528 25.904 79.984 25.686 80.44 25.462 80.896 25.237 81.345 25.005 81.794 24.773 82.242 24.773 91.941"/><polygon class="ad67b7fc-aba7-471a-afab-136877179bdf" points="24.773 87.338 25.128 86.759 25.476 86.173 25.817 85.579 26.15 84.985 26.477 84.392 26.803 83.791 27.122 83.183 27.434 82.575 27.738 81.96 28.043 81.345 28.333 80.73 28.623 80.107 28.905 79.478 29.181 78.848 29.449 78.218 29.71 77.581 29.971 76.945 30.218 76.3 30.464 75.656 30.703 75.012 30.935 74.361 31.16 73.702 31.378 73.043 31.588 72.385 31.798 71.719 31.994 71.053 32.19 70.387 32.371 69.714 32.552 69.041 32.719 68.361 32.886 67.68 33.045 67 27.876 67 27.724 67.601 27.564 68.209 27.405 68.802 27.231 69.403 27.057 69.996 26.875 70.59 26.694 71.176 26.498 71.762 26.303 72.349 26.1 72.928 25.897 73.507 25.679 74.086 25.462 74.657 25.237 75.229 25.005 75.801 24.773 76.366 24.773 87.338"/><polygon class="ad67b7fc-aba7-471a-afab-136877179bdf" points="24.773 82.242 25.005 81.794 25.237 81.345 25.462 80.896 25.686 80.44 25.904 79.984 26.114 79.528 26.332 79.065 26.542 78.609 26.745 78.146 26.948 77.676 27.144 77.212 27.339 76.742 27.528 76.271 27.716 75.801 27.898 75.323 28.079 74.846 28.26 74.368 28.434 73.89 28.601 73.405 28.768 72.928 28.927 72.443 29.087 71.958 29.239 71.466 29.391 70.973 29.536 70.489 29.681 69.989 29.819 69.497 29.957 68.998 30.087 68.505 30.218 68.006 30.341 67.499 30.464 67 25.28 67 25.222 67.231 25.157 67.463 25.099 67.695 25.034 67.926 24.969 68.158 24.903 68.39 24.838 68.621 24.773 68.853 24.773 82.242"/><polygon class="ad67b7fc-aba7-471a-afab-136877179bdf" points="24.773 76.366 25.005 75.801 25.237 75.229 25.462 74.657 25.679 74.086 25.897 73.507 26.1 72.928 26.303 72.349 26.498 71.762 26.694 71.176 26.875 70.59 27.057 69.996 27.231 69.403 27.397 68.802 27.564 68.209 27.724 67.601 27.876 67 24.773 67 24.773 76.366"/><polygon class="ad67b7fc-aba7-471a-afab-136877179bdf" points="24.773 68.853 24.838 68.621 24.903 68.39 24.969 68.158 25.034 67.926 25.099 67.695 25.157 67.463 25.222 67.231 25.28 67 24.773 67 24.773 68.853"/><path class="e3e2d59a-6e5c-4ee9-a9be-1144fef4d238" d="M86.76028,73.3764V93.64894l5.017-3.00357V83.65382H102.123v6.57186h5.04612V70.15561l-5.08244,3.08332v6.29662H91.78443V73.37643H86.76027ZM48.7631,72.68876H62.63237v18.1737H48.7631Zm14.88435,0H77.51654v18.1737H63.64745Zm3.00133,2.98917V88.06154H69.1574V84.28347l.5437.01463h.31183l.29711-.0218.29734-.029.28263-.04338.26838-.05794.26084-.05783.254-.07975.23924-.08668.23188-.09414.22476-.10132.21033-.10866.203-.12289.1885-.1304.1812-.13752.174-.14463.15953-.14486.15223-.15926.14494-.15909.13057-.17377.12315-.17372.11615-.17372.10149-.18089.09413-.18817.07988-.18818.07235-.19552.0654-.19528.05787-.20264.04362-.19552.029-.20263.0289-.20263.01448-.20264v-.40544l-.01448-.20263-.0289-.19528-.029-.19553-.04362-.19528-.05074-.19552-.06523-.19547-.06517-.18817-.07988-.18089-.09419-.18817-.09431-.17372-.10867-.17378-.11591-.17354-.13063-.15926-.13775-.15932-.14494-.152-.15223-.14462-.16689-.14487L73.0434,76.59l-.18137-.12312-.19562-.11571-.20316-.11595-.2101-.094-.21763-.09414-.23194-.08669-.23924-.07246-.25373-.05794-.25372-.05066-.26838-.04337-.2755-.02909-.29-.02157-.29-.00729H66.64878Zm2.50131,2.40285h.90622l.26108.00729.24637.02174.11614.01446.10861.01445.10885.02175.10149.02891.10149.02891.09431.02909.09419.03621.087.036.07971.04349.07983.05066.0797.05066.06523.05065.07253.058.06522.06511.058.06506.05793.07246.05074.07951.04356.07957.05074.08686.03632.08686.03627.09421.03608.10131.02914.10132.02891.11577.02178.1086.01448.12306.01448.123.01448.13035-.01448.13751-.01448.13023-.01448.12306L72.2458,80.52l-.02891.10843-.03632.1086-.03626.10132-.03626.10131-.05075.09421-.04338.08686-.05811.07957-.05074.07951-.06522.07246-.06523.06512-.06535.065-.0797.058-.07253.05794-.07971.05066-.087.04337-.087.04331-.09419.04355-.10149.0362-.10149.02892-.10166.02885-.10861.0218-.10885.02175-.11591.02174-.12333.01446-.24636.0218-.26108.00711H69.1501V78.08077ZM55.70134,88.43786,49.95928,75.53325h2.78411l2.85646,6.52827.10149.38363.10149-.3908L58.652,75.53326h2.79129L55.70134,88.43787ZM45.62393,78.08078V75.68522H36.0103v2.39556h3.47275v9.98076h2.66814V78.08078h3.47274Zm-11.73773-5.392H47.75529v18.1737H33.8862Zm-1.01506-.89739H78.52428V91.76H32.87113Zm77.82831,1.85278H125.7939l.07989-.00717h.55819l.203.01446.23212.01445.25372.02175.26814.02891.28269.0362.29728.05066.31183.06511.31176.07241.319.094.32624.10861.31894.12312.31913.13751.31159.15909.31183.18817.29.20263.29.22438.26837.25329.24637.275.23212.30418.203.3328.1885.36189.15223.39087.12327.41966.087.4561.05793.49212.02178.52833-.00737.18088v6.17381l.00737.06506-.00737.058v.15926l-.0216.246-.04357.32569-.029.18107-.04345.20263-.04356.20263-.0581.217-.07236.22443-.07989.23149-.09413.23883-.116.23173-.12327.23883-.13776.23154-.15959.23167-.174.22443-.19568.21709-.21028.20992-.23924.19529-.25372.18106-.28285.16643-.30447.152-.32624.13752-.35521.1086-.377.094-.41326.06511-.43492.0362-.464.01446H126.432l-.72507-.00717h-5.16922l-.80478.00717h-2.68244l.93518-4.082h6.67731l.12327-.01446.32625-.04331.21746-.04355.2466-.05777.12327-.04354.13775-.04337.13046-.04349.13775-.05783.13039-.06523.13775-.06511.13063-.07958.13045-.07957.12327-.09414.116-.10132.116-.10866.10149-.11572.0943-.12312.09419-.13751.07252-.152.06523-.152.05075-.17372.04362-.17372.02178-.19534.00712-.20263V80.02053l-.03626-.26775-.01448-.08686-.02177-.08686-.029-.10131-.02891-.10132-.04362-.10132-.04338-.1086-.0581-.10866-.05787-.10843-.07258-.1086-.07982-.10866-.09419-.10843-.10149-.10132-.10879-.10131-.13045-.09421-.13046-.094-.15241-.08685-.15936-.07975-.18137-.07223-.1885-.058-.2101-.05795-.21763-.03626-.23924-.036-.26084-.01458-.26838-.00717h-8.80137v7.30268l-5.11135,5.10981V73.64416Z"/></g></svg>