<svg id="accb0c52-aff2-4ef2-a175-17f15b809e1a" data-name="Warstwa 2" xmlns="http://www.w3.org/2000/svg" viewBox="0 0 164 164"><defs><style>.b9b97545-359d-4c20-a252-77876729b45a{fill:#c38b34;}.b9f52211-cdeb-471d-a460-a9f4837472fa{fill:#be900c;}.add0e160-0acc-46da-9d83-d6e249a2d2da,.b9f52211-cdeb-471d-a460-a9f4837472fa{fill-rule:evenodd;}.add0e160-0acc-46da-9d83-d6e249a2d2da{fill:#fff;}</style></defs><title>logotypy</title><rect class="b9b97545-359d-4c20-a252-77876729b45a" width="164" height="164"/><g id="e9968fd4-f553-4520-847f-59902ad9ae5b" data-name="Warstwa_1"><g id="e71431e2-27ff-4fe0-a77b-cd0b9f1442bc" data-name=" 104489192"><polygon id="fff2f2ad-04c4-4f22-abdc-d4f3182019cd" data-name=" 104489384" class="b9f52211-cdeb-471d-a460-a9f4837472fa" points="57.149 81.012 111.862 81.012 111.862 55.79 57.149 55.79 57.149 81.012"/><path id="a24b994f-27fc-4878-adc0-bc428847f90a" data-name=" 104489288" class="add0e160-0acc-46da-9d83-d6e249a2d2da" d="M130.33255,106.69931v-3.5451h2.21421l-2.21421-6.91583V91.29853h2.73864l6.64237,19.29448h-4.77784l-1.28194-3.8937Zm24.76354-2.78964c2.389-2.15029,3.43782-4.06809,3.43782-6.27648a6.42717,6.42717,0,0,0-6.64246-6.68335,7.12134,7.12134,0,0,0-6.70071,4.18429l3.20464,1.80161a3.52023,3.52023,0,0,1,3.20473-2.20839,2.68681,2.68681,0,0,1,2.622,2.78956c0,1.511-.69918,2.67335-3.08815,4.88174l-5.06926,4.70744V110.593H159v-3.95188h-6.93379l3.02988-2.73146ZM97.64476,84.15023h16.606V53h-16.606v5.17233h8.15741V78.978H97.64476v5.17227Zm32.68779,7.14832v4.93984l-2.21413,6.91583h2.21413v3.54511h-3.32114l-1.28194,3.8937h-4.66134l6.64246-19.29447h2.622Zm-32.68779,12.553v-3.83569a4.54009,4.54009,0,0,0,.93226-.1162,2.13968,2.13968,0,0,0,1.22361-.52306,1.94,1.94,0,0,0,.69918-.87176,3.623,3.623,0,0,0,0-2.55706,1.98825,1.98825,0,0,0-.99052-.81366,7.26448,7.26448,0,0,0-1.86454-.29058v-3.545h.81568a18.57889,18.57889,0,0,1,2.73856.1743,5.28566,5.28566,0,0,1,2.15588.87175A4.38449,4.38449,0,0,1,104.92815,94.03a4.74536,4.74536,0,0,1,.64093,2.55707,6.18193,6.18193,0,0,1-.93227,3.487,8.40372,8.40372,0,0,1-2.62205,2.26649l6.00153,8.25243H102.3061l-4.66134-6.74144Zm0-25.80354V71.13219a4.54537,4.54537,0,0,0,4.19524-4.475,4.36867,4.36867,0,0,0-4.19524-4.35867V59.10214h7.10855V78.04805H97.64476Zm0-9.35668V64.79755c1.04877.1162,1.57319.69737,1.6897,1.9178a1.92308,1.92308,0,0,1-1.6897,1.976ZM120.01923,110.593H109.473v-3.42882h2.97155V94.72736H109.473V91.29854h10.54626v3.42882h-2.97155v12.43685h2.97155ZM81.97088,84.1502H97.64476V78.97788H81.97088ZM97.64476,53H81.97088v5.17232H97.64476Zm0,6.10218V62.2986a3.59361,3.59361,0,0,0-.81577-.0581H93.39126V75.14223h2.622V71.19034h.58268a6.35137,6.35137,0,0,0,1.04885-.0581v6.91583h-7.4V59.10215h7.4Zm0,5.69539a2.40827,2.40827,0,0,0-.69926-.0581h-.93227v4.06808H96.829a3.4484,3.4484,0,0,0,.81576-.1162V64.79756Zm0,26.501v3.545h-2.389v5.17232h2.389v3.83569l-.23309-.34868H95.25579V110.593H90.6527V91.29855h6.99206ZM81.97088,110.47686v-5.11423a5.96113,5.96113,0,0,0,.69918-1.62722,10.14586,10.14586,0,0,0,.34959-2.78955,8.88753,8.88753,0,0,0-.40784-2.96394,5.14008,5.14008,0,0,0-.64093-1.511V91.41477a7.67322,7.67322,0,0,1,3.37948,2.15029,10.4082,10.4082,0,0,1,2.50546,7.3808,10.25955,10.25955,0,0,1-2.50546,7.32261,8.3422,8.3422,0,0,1-3.37948,2.20839Zm0-32.42876V75.49094l6.00153-13.42477H85.059l-2.97163,6.79955-.1165.40686V59.10223H89.196V78.04814H81.97089Zm-15.499,6.10217h15.499V78.978h-15.499Zm15.499-31.1502h-15.499V58.1724h15.499Zm0,6.10218V69.27261l-.05825-.40687-3.02989-6.79955H76.0276L81.97088,75.491v2.55715H74.74575V59.10221h7.22513Zm0,32.31261V96.471a2.03825,2.03825,0,0,0-.29134-.465,3.74024,3.74024,0,0,0-1.45669-1.10415,4.1884,4.1884,0,0,0-1.6897-.34877,3.87467,3.87467,0,0,0-1.63153.29059,4.43251,4.43251,0,0,0-1.4567,1.16233,5.67719,5.67719,0,0,0-.99051,1.976,11.49483,11.49483,0,0,0-.34959,2.96394,10.43863,10.43863,0,0,0,.34959,2.90576,5.23845,5.23845,0,0,0,.99051,1.976A3.7505,3.7505,0,0,0,76.84337,106.99a4.19024,4.19024,0,0,0,1.68978.34868,4.47,4.47,0,0,0,1.748-.34868,4.39726,4.39726,0,0,0,1.39844-1.16233,2.0386,2.0386,0,0,0,.29134-.465v5.11423A10.42,10.42,0,0,1,78.53317,111a8.91883,8.91883,0,0,1-6.81729-2.73146,10.4991,10.4991,0,0,1-2.44722-7.32261,10.65279,10.65279,0,0,1,2.44722-7.3808,8.88,8.88,0,0,1,6.81729-2.67336,10.42,10.42,0,0,1,3.43772.52307Zm-15.499,3.6032V91.29865h1.92279v3.71941Zm0-16.96991V75.14232h1.39837V64.73956h3.61256v-2.499H66.47185V59.10226H73.697V78.04818H66.47185Zm-16.781,6.10218h16.781V78.978H58.198V58.1724h8.27387V53.00008h-16.781V84.15033Zm16.781-25.0481v3.13833h-5.011v2.499h3.61257V75.14229h1.39844v2.90583H59.24672V59.10221h7.22513Zm0,32.19637V95.018H62.74278v15.5751H58.08136V95.018h-5.5936V91.2986H66.47185ZM21.14,110.59307H16.47864v-8.48491H9.60309v8.48491H5V91.2986H9.60309v7.032h6.87555v-7.032H21.14Zm13.34319,0H23.93691v-3.42881h2.97155V94.72741H23.93691V91.29859H34.48316v3.42882H31.51161v12.43685h2.97155ZM51.6137,104.4909a5.59067,5.59067,0,0,1-2.27246,4.64934,9.46477,9.46477,0,0,1-6.118,1.80161,18.72822,18.72822,0,0,1-3.90391-.40686,18.29017,18.29017,0,0,1-3.14639-1.10415V104.8396h.52443a11.82646,11.82646,0,0,0,3.20464,1.85979,9.41816,9.41816,0,0,0,3.43782.63927,8.27258,8.27258,0,0,0,1.107-.0581,5.13123,5.13123,0,0,0,1.16535-.23248,3.26728,3.26728,0,0,0,.874-.58117,1.55609,1.55609,0,0,0-.17484-2.15028,3.77689,3.77689,0,0,0-1.45661-.69745c-.69926-.1743-1.39845-.34868-2.15595-.523a12.97638,12.97638,0,0,1-2.15588-.52306A7.41916,7.41916,0,0,1,37.28,100.42284a5.76451,5.76451,0,0,1-.9906-3.37073,5.32193,5.32193,0,0,1,2.27245-4.41685,9.55219,9.55219,0,0,1,5.76844-1.68532,17.9784,17.9784,0,0,1,3.55432.34868,14.967,14.967,0,0,1,2.97155.92985v4.475h-.46609a9.30134,9.30134,0,0,0-2.6803-1.5692,8.75185,8.75185,0,0,0-3.20472-.63927,7.44924,7.44924,0,0,0-1.16528.0581,3.52205,3.52205,0,0,0-1.1071.34877,1.9319,1.9319,0,0,0-.81577.58117,1.27916,1.27916,0,0,0-.34959.87166A1.3895,1.3895,0,0,0,41.65,97.5751a5.70769,5.70769,0,0,0,2.03937.69745c.64093.1743,1.28186.29058,1.92279.46489a10.0902,10.0902,0,0,1,1.92278.58116,6.32833,6.32833,0,0,1,3.08822,1.976,5.10312,5.10312,0,0,1,.99052,3.19634Z"/></g></g></svg>