<svg xmlns="http://www.w3.org/2000/svg" viewBox="0 0 283.46 283.46"><defs><style>.cls-1{fill:#b5a132;}.cls-2{fill:#fff;}</style></defs><g id="Layer_2" data-name="Layer 2"><g id="TVP"><g id="tvphistoria"><rect class="cls-1" width="283.46" height="283.46"/><g id="logo"><path class="cls-2" d="M123.14,116.25v-3.72H108.25v3.72h5.38v15.43h4.1V116.25Z"/><path class="cls-2" d="M138.83,132.34l-9-20h4.35l4.42,10,.18.65.14-.65,4.43-10h4.35Z"/><path class="cls-2" d="M155.88,112.54v19.15h3.86v-5.86l.89.07c5.24,0,7.8-3.45,7.8-6.75s-2.5-6.61-7.48-6.61Zm3.86,3.71h1.45c2.17.08,3.3.79,3.46,3.07-.16,2.17-1.45,2.88-3.7,3h-1.21Z"/><path class="cls-2" d="M103.33,106.43v31h71v-31Zm23.19,29.69H104.94V107.88h21.58Zm23.07,0H128V107.88h21.55Zm23.18,0H151.21V107.88h21.56Z"/><path class="cls-2" d="M60.08,183.58V171.72H50.14v11.86H42.52V155.5h7.62v10.68h9.94V155.5H67.7v28.08Z"/><path class="cls-2" d="M74.3,155.5H82v28.08H74.3Z"/><path class="cls-2" d="M95.94,184a27.4,27.4,0,0,1-8.84-1.52c0-.25,1.42-5.29,1.52-5.54a21.43,21.43,0,0,0,8,1.65c2.29,0,4.87-.65,4.87-3,0-4.79-14.25-1.78-14.25-11.69,0-6.27,6.37-8.91,12.86-8.91a26.21,26.21,0,0,1,8.49,1.62l-2,5.12a17.75,17.75,0,0,0-6.75-1.39c-1.9,0-4.2.61-4.2,2.59,0,4.59,14.26,2.16,14.26,11.47,0,6.92-7,9.61-14,9.61"/><path class="cls-2" d="M135.53,161h-7.8v22.57h-7.61V161h-7.81v-5.53h23.61Z"/><path class="cls-2" d="M151.57,160.52c-4.79,0-6.75,4-6.75,8.81,0,5.26,1.44,9.24,6.75,9.24,4.73,0,6.8-3.47,6.8-9,0-5.26-1.44-9.07-6.8-9.07m-.29,23.59c-10,0-14.74-5.76-14.74-14.11,0-8.75,6-15,15.46-15,9.91,0,14.64,6,14.64,14,0,8.34-5,15.14-15.36,15.14"/><path class="cls-2" d="M181.35,160.81H179v6.89c.43,0,1.48,0,2.24,0,2.73,0,4.94-1,4.94-3.6,0-2.34-1.59-3.32-4.84-3.32m6.51,23.63c-.67-1-3.26-6.4-5.21-9.39a6.47,6.47,0,0,0-1.79-1.93,3.61,3.61,0,0,0-1.85-.58v11H171.4V155.49h10.09c8,0,12.83,2.62,12.83,8.18,0,3.9-3,6.86-6.65,7.73a9.93,9.93,0,0,1,3,3c.77,1.22,4.84,7.78,5.11,8.23-2.63.58-5.32,1.19-7.94,1.76"/><path class="cls-2" d="M200,155.5h7.66v28.08H200Z"/><path class="cls-2" d="M225.72,162.7c-1,3.41-2.16,6.8-3.25,10.17h6.41c-1.09-3.41-2-6.76-3.16-10.17m6.9,20.89c-.67-1.9-1.28-3.74-2-5.62h-10c-.68,1.88-1.34,3.72-2,5.62H211c3.53-9.31,7.18-18.73,10.77-28.09h8.43c3.59,9.36,7.18,18.78,10.76,28.09Z"/></g></g></g></g></svg>