<svg id="bce6a1a9-674b-4913-9256-7423599e48df" data-name="Warstwa 2" xmlns="http://www.w3.org/2000/svg" xmlns:xlink="http://www.w3.org/1999/xlink" viewBox="0 0 164 164"><defs><style>.bc8905f3-7254-4994-921f-b393640aec1c{fill:#c11e43;}.bb62e054-13b9-4d74-902e-ad0a15c0733a,.f3ce8e36-b29c-4ecc-be27-d78dfaf74502{fill:#fff;}.b1e60f3b-7443-42c8-b648-f1d335da08e3{fill:#bb022f;}.a3126070-5f40-42c2-ae78-983dab232d02,.ab94246b-b63f-45e1-9f91-a04178e37d7c,.b1e60f3b-7443-42c8-b648-f1d335da08e3,.be22ff6e-83ae-4cba-807b-b401499e0cef,.f3ce8e36-b29c-4ecc-be27-d78dfaf74502{fill-rule:evenodd;}.a3126070-5f40-42c2-ae78-983dab232d02{fill:url(#a0ffcf26-66ce-4b7a-8cf6-a5129185f90c);}.be22ff6e-83ae-4cba-807b-b401499e0cef{fill:url(#b9efde45-afeb-42f7-abd9-9c16db1a187e);}.ab94246b-b63f-45e1-9f91-a04178e37d7c{fill:#ba122b;}</style><linearGradient id="a0ffcf26-66ce-4b7a-8cf6-a5129185f90c" x1="-96.78101" y1="-2056.18973" x2="-96.78101" y2="-2051.19389" gradientTransform="matrix(2.84142, 0, 0, -2.84142, 333.2984, -5753.43435)" gradientUnits="userSpaceOnUse"><stop offset="0" stop-color="#666366"/><stop offset="0.50196" stop-color="#d1d0d1"/></linearGradient><linearGradient id="b9efde45-afeb-42f7-abd9-9c16db1a187e" x1="-96.78104" y1="-2056.1898" x2="-96.78104" y2="-2051.19389" xlink:href="#a0ffcf26-66ce-4b7a-8cf6-a5129185f90c"/></defs><title>logotypy</title><rect class="bc8905f3-7254-4994-921f-b393640aec1c" width="164" height="164"/><g id="e679ae93-4d4e-4d64-a964-9d827324be48" data-name="Warstwa_1"><g id="b8d9a8a5-9fd4-4883-821a-775449019b3e" data-name=" 291207944"><rect id="a94abbe3-b193-4521-a06d-d3d6acbc28c9" data-name=" 104490464" class="bb62e054-13b9-4d74-902e-ad0a15c0733a" x="33.31464" y="69.5" width="97" height="25"/><polygon id="af7b147e-46bd-4778-a5ac-8b3e330ce5d0" data-name=" 104492024" class="b1e60f3b-7443-42c8-b648-f1d335da08e3" points="80.928 71.831 80.928 92.11 127.946 92.11 127.946 71.831 80.928 71.831"/><path id="f162f86e-3f70-4bb3-9ca5-9c687113ed67" data-name=" 104491784" class="f3ce8e36-b29c-4ecc-be27-d78dfaf74502" d="M119.00647,75.51a6.23767,6.23767,0,0,0-4.42122,1.82508,6.65264,6.65264,0,0,0-1.84957,4.68528,6.56508,6.56508,0,0,0,1.84957,4.66287,6.19517,6.19517,0,0,0,4.42122,1.89207,6.26934,6.26934,0,0,0,4.99028-2.52279,6.98389,6.98389,0,0,0-.54134-8.69506,6.30822,6.30822,0,0,0-4.449-1.84745Zm0,10.5538c-1.9406,0-3.4904-1.69607-3.4904-4.04342,0-2.34838,1.5498-4.04406,3.4904-4.04406,1.942,0,3.49542,1.69568,3.49542,4.04406C122.50189,84.36771,120.94842,86.06378,119.00647,86.06378Z"/><polygon id="fd60919b-c239-48c2-b89c-3b5a9c175be2" data-name=" 104491736" class="f3ce8e36-b29c-4ecc-be27-d78dfaf74502" points="110.993 78.222 110.993 75.833 103.679 75.833 103.679 88.125 106.29 88.125 106.29 83.86 110.341 83.86 110.341 81.471 106.29 81.471 106.29 78.222 110.993 78.222"/><polygon id="be26e0f9-ac22-46ec-bc5e-d8cdbfe16ec3" data-name=" 104491904" class="f3ce8e36-b29c-4ecc-be27-d78dfaf74502" points="84.473 88.125 87.084 88.125 87.084 75.833 84.473 75.833 84.473 88.125"/><polygon id="edd18969-438a-4189-889c-2237173bf61b" data-name=" 104491568" class="f3ce8e36-b29c-4ecc-be27-d78dfaf74502" points="100.409 88.564 100.409 75.833 97.798 75.833 97.798 82.34 90.305 75.488 90.305 88.125 92.916 88.125 92.916 81.713 100.409 88.564"/><polygon id="bc071719-8b1b-42ea-90c1-c48a8476502c" data-name=" 104491856" class="a3126070-5f40-42c2-ae78-983dab232d02" points="80.928 71.831 35.677 71.831 35.677 92.11 80.928 92.11 80.928 71.831"/><polygon id="e0445966-2a01-4126-bcb5-4124c8028e48" data-name=" 104491400" class="be22ff6e-83ae-4cba-807b-b401499e0cef" points="80.928 71.831 35.677 71.831 35.677 92.111 80.928 92.111 80.928 71.831"/><polygon id="a6b0f7f1-62c3-4868-b8d4-95f935c27d28" data-name=" 104491352" class="f3ce8e36-b29c-4ecc-be27-d78dfaf74502" points="65.166 91.106 51.404 91.106 51.404 72.857 65.166 72.857 65.166 91.106"/><polygon id="a0ba62fa-b74e-483a-96fa-697525a17506" data-name=" 104491880" class="ab94246b-b63f-45e1-9f91-a04178e37d7c" points="61.109 75.833 58.353 82.643 58.253 83.02 58.153 82.643 55.396 75.833 52.655 75.833 58.253 88.564 63.852 75.833 61.109 75.833"/><polygon id="f7c9eb75-34ed-42aa-8f5d-239be7314d2d" data-name=" 104491136" class="f3ce8e36-b29c-4ecc-be27-d78dfaf74502" points="79.925 91.106 66.163 91.106 66.163 72.857 79.925 72.857 79.925 91.106"/><path id="f0e73945-4a5c-4d16-80d3-091076e6a29e" data-name=" 104491088" class="ab94246b-b63f-45e1-9f91-a04178e37d7c" d="M72.72089,75.83322l-3.62477-.0022V88.12817h2.538v-3.7526l.85485.01591c3.2903,0,4.92042-2.16878,4.92042-4.33752,0-2.11829-1.58055-4.22072-4.68851-4.22072Zm-.32323,6.25447h-.76354v-3.883h.88082c1.41244.03238,2.11174.50407,2.20938,1.91629-.08258,1.48006-.91156,1.95214-2.32666,1.96669Z"/><polygon id="bdb4253e-fd8e-40d2-8a3c-b54cf1e477cb" data-name=" 104490776" class="f3ce8e36-b29c-4ecc-be27-d78dfaf74502" points="50.407 91.106 36.678 91.106 36.678 72.857 50.407 72.857 50.407 91.106"/><polygon id="aa0137f2-f77a-46ba-b774-86a654403cd3" data-name=" 104491208" class="ab94246b-b63f-45e1-9f91-a04178e37d7c" points="48.203 78.222 48.203 75.833 38.779 75.833 38.779 78.222 42.185 78.222 42.185 88.125 44.796 88.125 44.796 78.222 48.203 78.222"/><polygon id="a5ece7b4-b88b-4933-a825-e90921941710" data-name=" 104490704" class="f3ce8e36-b29c-4ecc-be27-d78dfaf74502" points="50.407 91.106 36.678 91.106 36.678 72.857 50.407 72.857 50.407 91.106"/><polygon id="ad0bc851-ce57-4606-9964-c6d5f4367131" data-name=" 104490968" class="b1e60f3b-7443-42c8-b648-f1d335da08e3" points="48.202 78.222 48.202 75.833 38.778 75.833 38.778 78.222 42.185 78.222 42.185 88.125 44.796 88.125 44.796 78.222 48.202 78.222"/><polygon id="a2a067e1-53de-408a-94fb-d960bf860f76" data-name=" 104490920" class="f3ce8e36-b29c-4ecc-be27-d78dfaf74502" points="65.166 91.106 51.404 91.106 51.404 72.857 65.166 72.857 65.166 91.106"/><polygon id="b7fc9d4b-2411-46e7-bfd6-fc6349e8c8f9" data-name=" 104489864" class="b1e60f3b-7443-42c8-b648-f1d335da08e3" points="61.109 75.833 58.353 82.643 58.253 83.02 58.153 82.643 55.396 75.833 52.654 75.833 58.253 88.564 63.852 75.833 61.109 75.833"/><polygon id="e6562a7a-453b-4058-b1dc-601650cc3b48" data-name=" 104490224" class="f3ce8e36-b29c-4ecc-be27-d78dfaf74502" points="79.925 91.106 66.162 91.106 66.162 72.857 79.925 72.857 79.925 91.106"/><path id="bd7ad323-d5ba-43b4-8098-e512fd64b506" data-name=" 104490104" class="b1e60f3b-7443-42c8-b648-f1d335da08e3" d="M72.72089,75.83312l-3.62477-.0019v12.2969h2.53781V84.37547l.8549.016c3.2903,0,4.92047-2.16868,4.92047-4.33737,0-2.11854-1.58069-4.221-4.68841-4.221Zm-.32323,6.25471h-.76373v-3.883h.88091c1.41245.03233,2.11174.50406,2.20943,1.91619-.08263,1.48015-.91166,1.95213-2.32661,1.96683Z"/></g></g></svg>