<svg id="b468157b-9277-4fb8-aa07-9d2fd05e9acc" data-name="Warstwa 2" xmlns="http://www.w3.org/2000/svg" viewBox="0 0 164 164"><defs><style>.a15c2009-074e-44bb-827f-2e3c584982a3{fill:#1a1919;}.f232c1e0-5d5f-4075-9ed5-114ac4183757{fill:#d6006f;}.ac4817a2-f375-4f7f-8d34-90fb5b399c13,.f232c1e0-5d5f-4075-9ed5-114ac4183757{fill-rule:evenodd;}.ac4817a2-f375-4f7f-8d34-90fb5b399c13{fill:#fff;}</style></defs><title>logotypy</title><rect class="a15c2009-074e-44bb-827f-2e3c584982a3" width="164" height="164"/><g id="af9948e1-2086-4c62-923e-7329ec1cfa90" data-name="Warstwa_1"><polygon class="f232c1e0-5d5f-4075-9ed5-114ac4183757" points="55.062 52 111.676 52 111.676 79.578 55.062 79.578 55.062 52"/><path class="ac4817a2-f375-4f7f-8d34-90fb5b399c13" d="M62.47647,56.40288H104.261V74.76024H62.47647Zm.92792.82892h12.688V73.93127h-12.688Zm10.7402,4.95552V59.98589H65.35224v2.20143h3.17882v9.17412h2.43466V62.18732h3.17887Zm9.22418,9.5149-5.25518-11.8545h2.554l2.60936,5.9963.09184.35922.09191-.36835,2.6092-5.98717H88.624l-5.25525,11.8545ZM95.68,62.17805h.8269l.23881.00929.2297.02765.20221.02756.19286.03686.18382.05529.16536.07364.07345.03693.0736.046.06426.046.06426.04615.06426.05521.05522.05528.05515.06451.055.06442.046.07372.04588.07364.03677.07379.03684.08286.06419.18421.05514.19343.03677.221.02757.23029-.00911.12893-.01846.11979-.01831.1105-.01846.11065-.02757.10128-.02757.10129-.03669.09214-.03677.09207-.03676.08293-.04588.08293-.046.07364-.05507.07372-.05514.06443-.06434.0645-.05515.05528-.07353.05521-.06426.05529-.08264.046-.0736.03686-.08265.04615-.17447.06442-.18382.05537-.20213.046-.21132.02765-.2297.01835-.248.00929H95.68Zm-2.28767-2.20144V71.36146h2.29686V67.88887l.49609.00921h.28485l.27558-.01835.26655-.02764.25719-.03686.24809-.05529.23881-.05529.2297-.07371.22051-.07364.21132-.08293.20221-.10129.202-.10136.18375-.1105.17463-.11979.16536-.12892.1561-.129.14706-.13814.13779-.14728.13779-.14743.11948-.15665.11021-.15649.101-.16579.09191-.16578.09191-.16579.07345-.17508.06434-.18413.06426-.17508.046-.18414.03676-.18429.03669-.18414.0183-.18429.01846-.19343v-.36843l-.01846-.18429-.0183-.18414-.02757-.17508-.04588-.18413-.046-.17508-.05515-.175-.06426-.17492-.07353-.17508-.08264-.16579-.09184-.16586-.1011-.15649-.101-.15657-.11949-.14744-.11948-.14735-.13779-.13815-.13779-.13814-.15617-.12892-.15618-.11979-.16536-.1105-.18375-.11058-.18382-.10136-.19293-.09214-.20213-.08278-.21124-.07372-.22051-.07371-.22058-.05521-.23882-.04616-.248-.03678-.24809-.02764-.26646-.01843-.26639-.00929H93.39231Zm-2.74707-2.74479h12.68791V73.93128H90.64524Zm-13.62505,0H89.71735V73.93128H77.02019Z"/><polygon class="f232c1e0-5d5f-4075-9ed5-114ac4183757" points="21.546 108.306 21.445 108.233 21.335 108.168 21.216 108.113 21.096 108.058 20.986 107.993 20.876 107.929 20.82 107.892 20.765 107.846 20.719 107.8 20.673 107.745 20.517 107.514 20.352 107.266 20.205 107.008 20.049 106.759 19.856 106.455 19.663 106.16 19.562 106.022 19.461 105.893 19.35 105.764 19.231 105.635 19.185 105.552 19.139 105.469 19.084 105.387 19.029 105.304 19.102 105.341 18.762 104.843 18.432 104.392 18.128 103.977 17.844 103.6 17.55 103.25 17.265 102.918 16.971 102.596 16.658 102.292 16.658 102.236 16.64 102.163 16.603 102.08 16.548 101.997 16.41 101.804 16.245 101.592 16.061 101.371 15.887 101.168 15.813 101.067 15.749 100.984 15.685 100.901 15.648 100.827 15.685 100.846 15.547 100.707 15.409 100.569 15.29 100.413 15.161 100.256 14.931 99.943 14.711 99.611 14.591 99.436 14.646 99.353 14.692 99.28 14.738 99.206 14.775 99.123 14.775 99.16 14.766 99.206 14.757 99.243 14.738 99.289 14.711 99.335 14.674 99.399 14.83 99.169 14.996 98.93 15.152 98.69 15.317 98.469 15.455 98.276 15.584 98.128 15.639 98.073 15.685 98.036 15.721 98.009 15.749 98.009 16.144 97.456 16.557 96.876 16.989 96.286 17.412 95.697 17.816 95.126 18.174 94.582 18.331 94.333 18.478 94.103 18.597 93.882 18.707 93.679 18.689 93.762 18.781 93.56 18.873 93.403 18.965 93.265 19.066 93.136 19.157 92.998 19.268 92.86 19.387 92.694 19.516 92.482 19.562 92.454 19.58 92.436 19.672 92.27 19.773 92.095 19.892 91.911 20.03 91.717 20.131 91.662 20.214 91.598 20.324 91.487 20.435 91.358 20.536 91.229 20.637 91.11 20.747 90.962 20.876 90.806 20.995 90.658 21.114 90.493 21.179 90.437 21.243 90.382 21.307 90.317 21.362 90.244 21.445 90.142 21.491 90.05 21.519 89.958 21.546 89.866 21.62 89.756 21.693 89.636 21.757 89.516 21.822 89.396 21.849 89.369 21.868 89.332 21.868 89.332 21.868 89.332 21.895 89.442 21.905 89.47 21.895 89.433 21.868 89.332 21.886 89.304 21.905 89.277 21.996 89.102 22.097 88.899 22.134 88.798 22.153 88.696 22.162 88.65 22.153 88.604 22.143 88.558 22.134 88.512 22.088 88.494 22.042 88.494 22.015 88.374 21.987 88.245 21.868 88.199 21.748 88.162 21.702 88.199 21.656 88.227 21.629 88.171 21.62 88.098 21.537 88.125 21.445 88.153 21.445 88.079 21.445 88.006 21.436 87.923 21.445 87.849 21.353 87.913 21.261 87.978 21.243 87.886 21.206 87.803 21.114 87.83 21.032 87.858 20.949 87.886 20.866 87.923 20.857 87.775 20.848 87.656 20.756 87.646 20.673 87.656 20.701 87.563 20.719 87.471 20.738 87.379 20.747 87.287 20.655 87.361 20.563 87.425 20.462 87.481 20.361 87.536 20.306 87.481 20.26 87.434 20.242 87.444 20.223 87.453 20.214 87.37 20.223 87.287 20.085 87.352 19.938 87.425 19.782 87.499 19.644 87.582 19.626 87.683 19.562 87.72 19.507 87.766 19.461 87.812 19.424 87.867 19.424 87.877 19.378 87.95 19.203 88.263 19.167 88.337 19.13 88.42 19.084 88.503 19.047 88.586 18.882 88.733 18.716 88.89 18.643 88.973 18.569 89.056 18.496 89.139 18.441 89.231 18.395 89.323 18.358 89.406 18.331 89.498 18.312 89.59 18.285 89.682 18.266 89.774 18.239 89.857 18.202 89.949 18.147 90.041 18.083 90.115 18.064 90.133 18.037 90.161 17.972 90.225 17.899 90.281 17.917 90.216 17.945 90.142 17.954 90.115 17.945 90.106 17.926 90.106 17.88 90.124 17.816 90.216 17.761 90.308 17.697 90.391 17.632 90.474 17.586 90.502 17.55 90.529 17.559 90.557 17.357 90.796 17.145 91.036 17.035 91.165 16.925 91.312 16.815 91.478 16.695 91.653 16.603 91.625 16.502 91.8 16.401 91.975 16.291 92.141 16.181 92.289 15.951 92.583 15.721 92.86 15.501 93.127 15.299 93.376 15.207 93.504 15.124 93.624 15.051 93.753 14.996 93.873 14.885 94.039 14.793 94.168 14.702 94.278 14.628 94.361 14.49 94.481 14.362 94.582 14.306 94.628 14.242 94.684 14.187 94.748 14.114 94.822 14.049 94.914 13.967 95.033 13.875 95.181 13.783 95.356 13.415 95.651 13.323 95.78 13.259 95.881 13.232 95.964 13.204 96.038 13.177 96.111 13.13 96.194 13.066 96.305 12.947 96.434 12.938 96.434 12.919 96.434 12.892 96.452 12.855 96.48 12.791 96.553 12.717 96.636 12.653 96.701 12.607 96.738 12.588 96.747 12.588 96.728 12.598 96.701 12.616 96.655 12.524 96.765 12.432 96.876 12.34 96.986 12.248 97.097 12.239 96.995 12.221 96.894 12.221 96.774 12.212 96.664 12.239 96.572 12.258 96.489 12.267 96.397 12.285 96.305 12.294 96.12 12.285 95.936 12.276 95.752 12.258 95.558 12.23 95.374 12.212 95.181 12.203 95.07 12.193 94.941 12.193 94.886 12.203 94.849 12.212 94.831 12.221 94.831 12.248 94.914 12.285 95.116 12.294 95.181 12.294 95.255 12.285 95.31 12.267 95.328 12.359 95.439 12.386 95.264 12.405 95.089 12.414 94.923 12.414 94.757 12.405 94.435 12.377 94.112 12.35 93.79 12.313 93.468 12.304 93.311 12.294 93.145 12.285 92.97 12.294 92.795 12.276 93.016 12.258 93.191 12.258 93.256 12.239 93.274 12.23 93.265 12.212 93.2 12.221 92.335 12.294 92.51 12.34 91.229 12.248 91.404 12.267 91.183 12.294 90.99 12.322 90.815 12.35 90.649 12.368 90.483 12.368 90.299 12.368 90.198 12.359 90.087 12.34 89.967 12.322 89.838 12.304 89.783 12.285 89.774 12.276 89.783 12.258 89.82 12.267 89.525 12.285 89.221 12.285 88.927 12.294 88.623 12.294 88.328 12.285 88.033 12.267 87.729 12.248 87.434 12.166 87.508 12.074 87.582 12.046 87.536 12.019 87.481 12 87.425 11.991 87.361 11.964 87.388 11.936 87.407 11.918 87.416 11.881 87.425 11.826 87.444 11.752 87.462 11.697 87.398 11.651 87.352 11.587 87.305 11.523 87.278 11.449 87.26 11.366 87.25 11.284 87.25 11.201 87.25 11.017 87.269 10.824 87.305 10.632 87.352 10.439 87.398 10.301 87.407 10.163 87.416 10.034 87.425 9.906 87.434 9.915 87.444 9.924 87.453 9.841 87.444 9.777 87.425 9.704 87.398 9.648 87.352 9.603 87.398 9.557 87.425 9.502 87.444 9.455 87.462 9.354 87.481 9.244 87.49 9.143 87.499 9.042 87.508 8.987 87.517 8.941 87.536 8.895 87.554 8.849 87.591 8.803 87.628 8.766 87.665 8.739 87.711 8.702 87.766 8.684 87.821 8.656 87.877 8.638 87.932 8.629 87.996 8.619 88.116 8.619 88.245 8.638 88.365 8.675 88.475 8.693 88.632 8.693 88.761 8.693 88.862 8.684 88.945 8.665 89 8.656 89.056 8.638 89.093 8.619 89.129 8.601 89.166 8.583 89.212 8.564 89.267 8.555 89.341 8.546 89.433 8.546 89.553 8.546 89.709 8.564 89.885 8.5 89.792 8.693 90.087 8.721 90.262 8.739 90.41 8.739 90.529 8.739 90.621 8.721 90.769 8.693 90.889 8.684 90.944 8.665 91.008 8.665 91.082 8.656 91.174 8.665 91.285 8.684 91.414 8.711 91.579 8.748 91.773 8.748 91.699 8.748 91.635 8.757 91.589 8.776 91.561 8.785 91.543 8.803 91.543 8.822 91.552 8.84 91.57 8.858 91.598 8.877 91.644 8.886 91.699 8.895 91.764 8.904 91.837 8.913 91.92 8.913 92.012 8.913 92.114 8.822 91.975 8.84 92.169 8.858 92.316 8.867 92.445 8.858 92.583 8.84 92.528 8.822 92.5 8.812 92.5 8.794 92.5 8.785 92.51 8.776 92.528 8.766 92.583 8.748 92.666 8.748 92.786 8.748 92.943 8.638 92.639 8.794 93.486 8.776 93.753 8.757 94.039 8.757 94.324 8.757 94.619 8.757 94.886 8.748 95.126 8.748 95.227 8.73 95.319 8.721 95.393 8.702 95.457 8.693 95.512 8.693 95.678 8.684 95.918 8.684 96.203 8.693 96.498 8.702 96.784 8.711 96.903 8.73 97.023 8.748 97.115 8.776 97.189 8.757 97.143 8.739 97.124 8.73 97.124 8.721 97.143 8.693 97.207 8.675 97.299 8.647 97.401 8.619 97.474 8.61 97.493 8.592 97.502 8.573 97.493 8.555 97.456 8.592 97.631 8.619 97.843 8.647 98.101 8.665 98.377 8.675 98.653 8.675 98.911 8.665 99.04 8.656 99.151 8.647 99.252 8.629 99.335 8.619 99.261 8.601 99.547 8.592 99.832 8.592 100.109 8.592 100.385 8.61 100.901 8.638 101.398 8.656 101.896 8.665 102.393 8.665 102.642 8.665 102.9 8.656 103.157 8.638 103.425 8.647 103.425 8.665 103.434 8.675 103.461 8.684 103.498 8.702 103.609 8.711 103.719 8.73 103.839 8.748 103.922 8.757 103.95 8.776 103.959 8.794 103.959 8.822 103.931 8.84 104.208 8.849 104.475 8.849 104.733 8.84 104.99 8.812 105.469 8.785 105.902 8.776 106.114 8.766 106.299 8.766 106.483 8.785 106.648 8.803 106.805 8.84 106.943 8.867 107.008 8.895 107.063 8.923 107.118 8.959 107.173 8.959 107.404 8.95 107.588 8.941 107.745 8.913 107.873 8.867 108.085 8.84 108.325 8.822 108.159 8.822 108.389 8.831 108.592 8.831 108.785 8.84 108.96 8.84 109.126 8.849 109.283 8.849 109.43 8.849 109.568 8.849 110.112 8.849 110.397 8.822 110.462 8.803 110.526 8.794 110.582 8.785 110.637 8.785 110.692 8.785 110.747 8.803 110.793 8.822 110.83 8.849 110.867 8.886 110.904 8.923 110.932 8.969 110.959 9.024 110.978 9.088 110.996 9.161 111.005 9.244 111.014 9.244 111.134 9.244 111.254 9.318 111.254 9.41 111.263 9.492 111.263 9.593 111.272 9.667 111.337 9.694 111.365 9.676 111.346 9.593 111.272 9.851 111.272 10.108 111.263 10.227 111.245 10.337 111.226 10.439 111.189 10.521 111.153 10.53 111.162 10.54 111.18 10.558 111.199 10.576 111.208 10.632 111.226 10.705 111.245 10.889 111.254 11.109 111.254 11.33 111.235 11.541 111.208 11.725 111.171 11.844 111.134 11.927 111.097 12 111.051 12.056 110.996 12.092 110.95 12.129 110.895 12.147 110.83 12.166 110.775 12.166 110.71 12.157 110.582 12.129 110.443 12.092 110.296 12.056 110.149 12.065 110.139 12.074 110.139 12.065 109.937 12.046 109.817 12.046 109.78 12.037 109.762 12.037 109.753 12.028 109.762 12.037 109.642 12.037 109.532 12.028 109.421 12.01 109.329 12.01 109.016 12.019 108.739 12.028 108.629 12.037 108.546 12.046 108.509 12.065 108.481 12.074 108.463 12.092 108.445 12.074 107.873 12.046 107.339 12.019 106.833 11.991 106.335 11.954 105.866 11.918 105.387 11.89 104.917 11.872 104.429 11.881 104.41 11.89 104.392 11.909 104.392 11.918 104.401 11.945 104.438 11.964 104.502 11.982 104.594 12 104.705 12.01 104.834 12.028 104.972 12 104.042 12.019 104.042 12.028 104.06 12.037 104.097 12.046 104.134 12.065 104.226 12.065 104.346 12.074 104.613 12.074 104.862 12.102 104.65 12.111 104.438 12.12 104.226 12.12 104.014 12.102 103.581 12.074 103.139 12.046 102.688 12.028 102.227 12.028 101.988 12.028 101.757 12.037 101.518 12.065 101.269 12.037 101.168 12.065 101.214 12.102 101.251 12.294 101.463 12.497 101.675 12.68 101.877 12.855 102.071 12.791 101.978 12.754 101.914 12.745 101.877 12.745 101.859 12.763 101.868 12.8 101.877 12.836 101.914 12.882 101.951 13.002 102.126 13.094 102.292 13.14 102.365 13.186 102.439 13.241 102.504 13.305 102.568 13.25 102.642 13.268 102.651 13.305 102.669 13.342 102.697 13.388 102.734 13.489 102.835 13.599 102.955 13.81 103.185 13.948 103.323 13.957 103.351 13.948 103.36 13.93 103.36 13.911 103.351 13.847 103.296 13.774 103.222 13.691 103.13 13.608 103.047 13.535 102.983 13.489 102.955 13.737 103.268 13.902 103.471 14.003 103.609 14.086 103.71 14.169 103.811 14.27 103.95 14.435 104.152 14.683 104.466 14.83 104.604 14.904 104.65 14.913 104.65 14.922 104.64 14.922 104.622 14.913 104.594 14.894 104.53 14.885 104.484 14.885 104.466 14.904 104.466 14.931 104.475 14.977 104.502 15.124 104.668 15.28 104.843 15.427 105.018 15.584 105.193 15.731 105.368 15.878 105.562 16.025 105.764 16.172 105.976 16.116 105.737 16.116 105.746 16.126 105.746 16.245 105.948 16.374 106.142 16.502 106.326 16.64 106.51 16.778 106.695 16.916 106.869 17.063 107.035 17.21 107.21 17.283 107.302 17.357 107.413 17.421 107.523 17.485 107.643 17.55 107.763 17.614 107.873 17.687 107.993 17.761 108.095 17.834 108.196 17.926 108.288 18.009 108.371 18.101 108.463 18.193 108.546 18.276 108.638 18.358 108.73 18.441 108.831 18.661 109.154 18.891 109.458 19.13 109.753 19.387 110.038 19.516 110.176 19.654 110.305 19.791 110.434 19.938 110.554 20.085 110.674 20.232 110.784 20.389 110.895 20.545 111.005 20.508 110.913 20.471 110.821 20.6 110.867 20.738 110.904 20.802 110.932 20.866 110.95 20.931 110.987 20.995 111.024 20.949 110.913 20.894 110.784 20.986 110.784 21.087 110.803 21.179 110.821 21.261 110.839 21.344 110.858 21.418 110.849 21.454 110.83 21.482 110.812 21.509 110.784 21.528 110.747 21.565 110.766 21.611 110.784 21.656 110.784 21.702 110.793 21.794 110.784 21.886 110.775 21.969 110.775 22.052 110.784 22.088 110.793 22.125 110.812 22.153 110.849 22.18 110.886 22.226 110.858 22.263 110.83 22.29 110.803 22.318 110.756 22.355 110.664 22.382 110.572 22.41 110.471 22.437 110.388 22.456 110.351 22.474 110.314 22.492 110.296 22.529 110.278 22.401 110.01 22.272 109.753 22.153 109.485 22.015 109.228 21.914 108.997 21.813 108.749 21.757 108.62 21.693 108.509 21.629 108.398 21.546 108.306"/><polygon class="ac4817a2-f375-4f7f-8d34-90fb5b399c13" points="39.967 87.83 39.967 87.867 39.967 88.227 39.967 88.577 39.976 88.927 39.976 89.267 39.976 89.599 39.958 89.618 39.94 89.654 39.93 89.709 39.921 89.783 39.921 89.802 39.912 89.811 39.903 89.958 39.903 90.124 39.903 90.308 39.903 90.511 39.912 90.714 39.912 90.925 39.921 91.137 39.93 91.34 39.93 91.266 39.921 91.211 39.912 91.165 39.894 91.128 39.875 91.082 39.857 91.054 39.875 91.239 39.884 91.432 39.894 91.616 39.894 91.81 39.875 92.196 39.848 92.583 39.829 92.97 39.811 93.357 39.811 93.55 39.82 93.744 39.839 93.937 39.866 94.131 39.848 94.094 39.829 94.278 39.829 94.508 39.839 94.776 39.857 95.052 39.857 95.319 39.848 95.558 39.839 95.66 39.82 95.743 39.793 95.807 39.756 95.853 39.811 96.277 39.848 96.71 39.875 97.143 39.884 97.594 39.884 98.064 39.875 98.571 39.857 99.123 39.829 99.722 39.793 99.639 39.728 100.164 39.673 100.652 39.609 101.094 39.554 101.5 39.499 101.868 39.453 102.209 39.398 102.513 39.351 102.78 39.388 102.854 39.416 102.946 39.425 103.038 39.434 103.139 39.434 103.351 39.425 103.572 39.398 103.784 39.379 103.996 39.37 104.088 39.361 104.18 39.361 104.263 39.37 104.336 39.407 104.309 39.434 104.281 39.434 104.539 39.434 104.797 39.434 105.055 39.434 105.313 39.489 105.193 39.544 105.064 39.526 105.165 39.508 105.267 39.471 105.368 39.425 105.46 39.333 105.654 39.26 105.847 39.232 105.967 39.223 106.096 39.214 106.225 39.205 106.345 39.205 106.473 39.195 106.593 39.177 106.713 39.149 106.814 39.159 106.75 39.168 106.676 39.122 106.824 39.039 107.008 38.947 107.192 38.865 107.358 38.837 107.477 38.81 107.606 38.773 107.726 38.736 107.855 38.58 108.104 38.414 108.343 38.24 108.583 38.047 108.822 37.946 108.942 37.836 109.062 37.707 109.181 37.578 109.301 37.441 109.421 37.284 109.541 37.128 109.66 36.944 109.78 37.202 109.753 36.954 109.872 36.715 109.983 36.485 110.084 36.265 110.176 36.044 110.268 35.814 110.342 35.594 110.406 35.364 110.462 35.318 110.489 35.291 110.517 35.291 110.526 35.3 110.545 35.355 110.554 35.419 110.563 35.447 110.572 35.465 110.582 35.474 110.591 35.465 110.6 35.383 110.646 35.19 110.71 34.776 110.766 34.501 110.793 34.317 110.812 34.179 110.821 34.05 110.821 33.867 110.821 33.6 110.821 33.178 110.821 33.242 110.803 33.334 110.784 33.453 110.775 33.582 110.766 33.692 110.756 33.775 110.747 33.802 110.738 33.812 110.729 33.802 110.71 33.784 110.692 33.71 110.71 33.582 110.72 33.426 110.729 33.26 110.738 33.086 110.738 32.939 110.756 32.884 110.756 32.828 110.766 32.801 110.784 32.773 110.793 32.764 110.692 32.663 110.692 32.58 110.683 32.488 110.664 32.397 110.646 32.213 110.591 31.992 110.535 31.928 110.535 31.882 110.545 31.845 110.545 31.827 110.563 31.836 110.572 31.873 110.591 31.946 110.618 32.066 110.646 31.79 110.618 31.496 110.572 31.184 110.499 30.881 110.416 30.734 110.36 30.587 110.305 30.449 110.25 30.32 110.186 30.201 110.121 30.091 110.047 29.99 109.974 29.898 109.9 29.714 109.753 29.604 109.642 29.558 109.596 29.53 109.559 29.512 109.532 29.503 109.504 29.503 109.412 29.484 109.292 29.346 109.181 29.209 109.08 29.153 109.034 29.098 108.997 29.062 108.979 29.043 108.979 29.006 108.896 28.768 108.703 28.529 108.224 28.317 107.763 28.216 107.523 28.124 107.302 28.042 107.072 27.959 106.842 27.895 106.621 27.83 106.4 27.775 106.179 27.739 105.948 27.702 105.737 27.683 105.516 27.674 105.294 27.683 105.073 27.702 105.331 27.739 105.598 27.766 105.727 27.785 105.82 27.803 105.856 27.821 105.884 27.83 105.902 27.849 105.912 27.812 105.672 27.775 105.433 27.748 105.193 27.72 104.954 27.739 105.101 27.766 105.23 27.794 105.341 27.821 105.433 27.849 105.497 27.876 105.534 27.895 105.534 27.904 105.534 27.913 105.516 27.922 105.497 27.858 105 27.803 104.521 27.748 104.051 27.711 103.572 27.683 103.084 27.656 102.577 27.628 102.043 27.61 101.481 27.638 101.463 27.656 101.417 27.665 101.361 27.674 101.288 27.683 101.104 27.683 100.873 27.693 100.634 27.693 100.376 27.711 100.136 27.739 99.915 27.72 99.961 27.711 99.989 27.702 99.998 27.693 99.998 27.683 100.146 27.665 100.192 27.647 100.09 27.628 99.814 27.638 99.814 27.647 99.796 27.628 99.676 27.601 99.574 27.619 99.436 27.628 99.344 27.647 99.289 27.656 99.271 27.665 99.28 27.674 99.307 27.683 99.353 27.693 99.427 27.683 99.197 27.693 99.013 27.702 98.967 27.711 98.948 27.729 98.967 27.748 99.04 27.757 98.893 27.757 98.764 27.757 98.644 27.748 98.543 27.72 98.368 27.693 98.22 27.656 98.091 27.619 97.972 27.582 97.834 27.564 97.677 27.564 97.355 27.564 97.06 27.564 96.793 27.564 96.526 27.564 96.24 27.555 95.927 27.546 95.558 27.536 95.135 27.555 95.291 27.592 95.061 27.638 94.849 27.656 94.72 27.674 94.564 27.674 94.379 27.674 94.159 27.638 94.103 27.61 94.048 27.582 93.993 27.555 93.928 27.518 93.79 27.5 93.643 27.481 93.477 27.481 93.293 27.491 93.108 27.5 92.906 27.527 92.473 27.555 91.994 27.564 91.745 27.564 91.487 27.555 91.22 27.536 90.953 27.509 90.981 27.491 90.981 27.472 90.972 27.463 90.944 27.445 90.861 27.426 90.75 27.417 90.631 27.408 90.529 27.39 90.493 27.38 90.465 27.371 90.446 27.353 90.456 27.371 90.189 27.38 89.931 27.39 89.682 27.39 89.433 27.38 89.185 27.371 88.945 27.362 88.696 27.353 88.457 27.334 88.208 27.334 88.079 27.334 88.052 27.325 88.042 27.325 88.042 27.325 88.042 27.325 88.033 27.334 88.033 27.334 88.033 27.288 88.079 27.261 88.116 27.27 88.107 27.334 88.033 27.325 87.932 27.334 87.821 27.343 87.72 27.362 87.628 27.426 87.582 27.491 87.536 27.472 87.416 27.445 87.333 27.463 87.232 27.491 87.131 27.509 87.075 27.527 87.029 27.564 86.983 27.61 86.946 27.638 86.937 27.683 86.937 27.739 86.937 27.785 86.937 27.895 86.946 27.977 86.946 28.161 86.909 28.345 86.854 28.529 86.799 28.703 86.762 28.924 86.744 29.172 86.753 29.42 86.762 29.659 86.771 29.668 86.827 29.668 86.873 29.741 86.882 29.824 86.882 29.898 86.882 29.98 86.882 30.063 86.882 30.155 86.882 30.238 86.882 30.32 86.882 30.339 86.928 30.357 86.974 30.375 87.002 30.403 87.02 30.44 87.038 30.476 87.038 30.522 87.038 30.577 87.029 30.587 87.066 30.596 87.094 30.651 87.066 30.697 87.02 30.725 87.066 30.771 87.103 30.862 87.038 30.954 86.974 30.982 87.029 31 87.094 31.037 87.075 31.065 87.048 31.083 87.048 31.11 87.038 31.129 87.121 31.147 87.204 31.166 87.296 31.175 87.398 31.175 87.6 31.175 87.812 31.156 88.033 31.129 88.254 31.092 88.466 31.055 88.66 31.074 88.844 31.092 89.01 31.12 89.148 31.147 89.258 31.129 89.231 31.11 89.221 31.092 89.231 31.083 89.249 31.055 89.323 31.028 89.424 31.009 89.516 30.982 89.581 30.973 89.59 30.954 89.59 30.945 89.571 30.927 89.535 30.954 89.608 30.973 89.7 30.982 89.811 31 89.94 31.009 90.216 31.018 90.511 31.018 90.787 31.009 91.027 31.009 91.183 31 91.248 30.982 91.303 30.963 91.377 30.954 91.469 30.945 91.57 30.945 91.81 30.945 92.077 30.945 92.362 30.945 92.648 30.927 92.933 30.899 93.191 31.065 94.029 30.954 93.735 30.954 93.882 30.954 94.002 30.936 94.085 30.927 94.14 30.908 94.159 30.899 94.168 30.89 94.168 30.881 94.168 30.862 94.131 30.844 94.075 30.835 94.214 30.844 94.343 30.862 94.49 30.881 94.684 30.789 94.545 30.789 94.647 30.789 94.739 30.789 94.822 30.798 94.895 30.816 94.96 30.826 95.006 30.844 95.052 30.862 95.089 30.881 95.107 30.899 95.116 30.917 95.107 30.927 95.098 30.936 95.061 30.945 95.015 30.954 94.96 30.954 94.886 30.991 95.08 31.018 95.236 31.037 95.365 31.037 95.476 31.037 95.568 31.028 95.641 31.018 95.697 31.009 95.761 30.982 95.872 30.963 96.019 30.963 96.12 30.963 96.231 30.982 96.378 31.009 96.544 31.202 96.848 31.138 96.747 31.147 96.931 31.156 97.088 31.156 97.207 31.147 97.299 31.138 97.373 31.12 97.428 31.101 97.474 31.074 97.511 31.055 97.548 31.037 97.594 31.028 97.649 31.018 97.723 31.009 97.815 31.009 97.935 31.018 98.091 31.037 98.276 30.945 98.313 30.963 98.524 30.973 98.7 30.991 98.764 31.009 98.801 31.018 98.81 31.037 98.81 31.055 98.81 31.074 98.791 31.055 99.197 31.037 99.611 31.018 100.035 30.991 100.45 30.963 100.855 30.936 101.242 30.908 101.601 30.881 101.932 30.89 102.117 30.908 102.181 30.927 102.163 30.945 102.098 30.963 102.015 30.982 101.951 31 101.932 31.009 101.932 31.018 101.96 31.037 102.006 31.074 102.246 31.092 102.448 31.083 102.632 31.065 102.798 31.046 102.964 31.009 103.139 30.982 103.332 30.963 103.544 31.055 103.369 31.046 103.692 31.037 104.005 31.028 104.318 31.018 104.613 30.945 104.447 30.945 104.65 30.954 104.843 30.963 105.036 30.982 105.23 31.009 105.285 31.028 105.294 31.028 105.276 31.037 105.221 31.028 105.064 31.028 104.871 31.046 105.027 31.065 105.175 31.092 105.322 31.12 105.46 31.156 105.589 31.202 105.718 31.248 105.847 31.294 105.967 31.395 106.197 31.496 106.427 31.597 106.639 31.68 106.851 31.57 106.842 31.57 106.824 31.551 106.787 31.524 106.75 31.496 106.713 31.423 106.63 31.368 106.575 31.34 106.556 31.322 106.566 31.349 106.63 31.414 106.759 31.496 106.906 31.588 107.054 31.662 107.155 31.698 107.201 31.891 107.284 32.158 107.413 32.314 107.468 32.461 107.505 32.534 107.514 32.608 107.523 32.672 107.514 32.737 107.496 32.865 107.542 32.994 107.579 33.122 107.606 33.242 107.634 33.37 107.653 33.49 107.662 33.609 107.671 33.729 107.671 33.959 107.671 34.179 107.643 34.39 107.616 34.602 107.56 34.795 107.505 34.978 107.431 35.153 107.358 35.309 107.275 35.456 107.192 35.594 107.1 35.713 107.008 35.814 106.925 35.805 106.952 35.796 106.971 35.796 106.98 35.814 106.98 35.842 106.962 35.897 106.916 35.952 106.86 36.007 106.814 36.053 106.777 36.081 106.777 36.154 106.658 36.191 106.566 36.209 106.492 36.209 106.427 36.209 106.363 36.209 106.289 36.228 106.197 36.274 106.068 36.329 105.985 36.375 105.902 36.43 105.81 36.476 105.718 36.476 105.534 36.485 105.387 36.494 105.258 36.513 105.147 36.549 104.981 36.605 104.843 36.65 104.705 36.687 104.539 36.696 104.429 36.706 104.3 36.706 104.143 36.706 103.95 36.678 103.821 36.66 103.673 36.65 103.526 36.65 103.379 36.669 103.056 36.687 102.715 36.706 102.365 36.715 101.997 36.715 101.804 36.706 101.61 36.687 101.417 36.66 101.214 36.751 101.186 36.733 100.892 36.733 100.634 36.751 100.394 36.77 100.164 36.788 99.952 36.797 99.731 36.807 99.51 36.797 99.271 36.816 99.243 36.825 99.224 36.834 99.215 36.843 99.215 36.862 99.243 36.871 99.28 36.88 99.326 36.898 99.372 36.908 99.39 36.926 99.399 36.944 99.409 36.963 99.409 36.954 99.298 36.944 99.224 36.954 99.169 36.954 99.142 36.972 99.132 36.981 99.142 37 99.16 37.018 99.188 37.045 99.243 37.073 99.271 37.073 99.243 37.055 99.132 37.064 98.957 37.064 98.773 37.055 98.598 37.036 98.423 36.981 98.064 36.908 97.714 36.825 97.364 36.751 97.014 36.724 96.839 36.706 96.664 36.696 96.489 36.696 96.323 36.678 96.139 36.66 95.964 36.66 95.789 36.669 95.623 36.687 95.301 36.724 95.015 36.751 94.766 36.77 94.564 36.761 94.481 36.751 94.416 36.724 94.361 36.687 94.315 36.678 94.822 36.65 93.477 36.733 93.44 36.724 93.2 36.715 92.906 36.724 92.574 36.724 92.224 36.724 91.865 36.715 91.515 36.715 91.349 36.696 91.192 36.678 91.045 36.66 90.907 36.669 90.889 36.687 90.833 36.678 90.594 36.669 90.391 36.669 90.216 36.669 90.05 36.669 89.894 36.66 89.728 36.641 89.544 36.605 89.332 36.641 89.406 36.605 89.185 36.577 88.936 36.549 88.669 36.531 88.374 36.522 88.208 36.503 88.162 36.485 88.107 36.476 88.052 36.476 87.987 36.494 87.858 36.531 87.72 36.632 87.453 36.715 87.25 36.751 87.305 36.788 87.379 36.797 87.315 36.797 87.26 36.889 87.195 36.981 87.131 37.073 87.066 37.165 87.002 37.238 87.038 37.33 87.057 37.422 87.066 37.523 87.057 37.634 87.048 37.735 87.029 37.845 87.011 37.964 86.983 38.176 86.928 38.387 86.882 38.488 86.863 38.58 86.854 38.662 86.845 38.736 86.854 38.791 86.882 38.819 86.891 38.855 86.891 38.929 86.882 38.966 86.919 39.002 86.928 39.039 86.937 39.085 86.928 39.122 86.919 39.159 86.891 39.195 86.854 39.232 86.817 39.306 86.9 39.37 86.983 39.434 86.974 39.499 86.956 39.526 87.094 39.544 87.223 39.572 87.204 39.59 87.186 39.618 87.278 39.646 87.379 39.664 87.471 39.673 87.563 39.728 87.619 39.793 87.665 39.848 87.591 39.875 87.536 39.875 87.637 39.866 87.738 39.967 87.83"/><polygon class="ac4817a2-f375-4f7f-8d34-90fb5b399c13" points="52.021 88.862 52.03 88.973 52.039 89.175 52.039 89.286 52.03 89.396 52.012 89.507 51.984 89.618 51.938 89.581 51.957 89.885 51.966 90.198 51.966 90.354 51.957 90.511 51.948 90.658 51.929 90.815 51.929 90.815 51.929 90.815 51.902 91.018 51.874 91.211 51.865 91.395 51.856 91.579 51.865 91.929 51.883 92.27 51.911 92.593 51.929 92.906 51.929 93.062 51.929 93.219 51.92 93.376 51.902 93.523 51.883 93.495 51.874 93.477 51.865 93.468 51.856 93.477 51.847 93.514 51.837 93.578 51.819 93.643 51.81 93.707 51.801 93.735 51.791 93.753 51.782 93.762 51.764 93.762 51.755 93.882 51.755 93.965 51.773 94.02 51.791 94.075 51.819 94.121 51.837 94.177 51.856 94.251 51.856 94.352 51.736 94.647 51.764 94.776 51.773 94.886 51.782 94.978 51.782 95.052 51.773 95.116 51.764 95.181 51.745 95.227 51.727 95.273 51.681 95.374 51.644 95.494 51.635 95.568 51.626 95.651 51.626 95.761 51.644 95.881 51.663 95.973 51.681 96.065 51.69 96.157 51.69 96.258 51.681 96.47 51.654 96.691 51.635 96.922 51.626 97.161 51.626 97.29 51.635 97.41 51.654 97.539 51.681 97.668 51.589 97.695 51.608 97.88 51.608 98.055 51.598 98.211 51.58 98.359 51.553 98.497 51.543 98.644 51.534 98.782 51.543 98.939 51.516 98.976 51.497 98.976 51.488 98.957 51.47 98.939 51.461 98.902 51.442 98.874 51.415 98.856 51.378 98.847 51.387 98.92 51.396 98.976 51.396 99.003 51.387 99.022 51.378 99.031 51.36 99.022 51.341 99.013 51.323 98.994 51.295 98.957 51.268 98.939 51.268 98.957 51.286 99.031 51.277 99.151 51.277 99.261 51.286 99.381 51.305 99.501 51.36 99.731 51.442 99.961 51.516 100.192 51.589 100.422 51.617 100.532 51.635 100.643 51.644 100.753 51.644 100.873 51.672 100.993 51.681 101.104 51.681 101.214 51.681 101.324 51.654 101.536 51.617 101.721 51.589 101.877 51.58 102.015 51.58 102.071 51.589 102.117 51.617 102.154 51.654 102.181 51.672 101.85 51.69 102.734 51.608 102.752 51.617 102.909 51.626 103.102 51.617 103.314 51.617 103.544 51.617 103.784 51.626 104.014 51.635 104.115 51.644 104.226 51.663 104.318 51.681 104.401 51.672 104.419 51.654 104.456 51.672 104.613 51.672 104.742 51.672 104.862 51.672 104.963 51.672 105.073 51.681 105.175 51.7 105.294 51.736 105.442 51.709 105.387 51.736 105.525 51.764 105.672 51.791 105.838 51.81 106.013 51.837 106.4 51.847 106.824 51.856 107.266 51.865 107.708 51.865 108.15 51.874 108.574 52.085 108.564 52.306 108.583 52.526 108.601 52.747 108.62 52.977 108.638 53.197 108.647 53.307 108.647 53.418 108.638 53.528 108.62 53.638 108.601 53.611 108.62 53.666 108.629 53.73 108.629 53.803 108.629 53.877 108.629 54.051 108.62 54.235 108.61 54.41 108.601 54.566 108.61 54.63 108.629 54.686 108.647 54.731 108.675 54.759 108.703 54.961 108.666 55.154 108.629 55.356 108.601 55.558 108.592 55.77 108.574 55.981 108.574 56.211 108.574 56.44 108.583 56.477 108.491 56.725 108.426 57.047 108.334 57.129 108.316 57.212 108.297 57.276 108.297 57.35 108.306 57.405 108.316 57.451 108.352 57.469 108.371 57.488 108.398 57.497 108.426 57.506 108.454 57.773 108.38 58.039 108.288 58.296 108.205 58.563 108.131 58.59 108.159 58.609 108.196 58.645 108.224 58.682 108.242 58.765 108.279 58.857 108.316 59.059 108.362 59.233 108.38 59.353 108.398 59.49 108.408 59.638 108.408 59.785 108.398 59.922 108.389 60.06 108.362 60.189 108.325 60.29 108.279 60.299 108.316 60.308 108.343 60.373 108.279 60.437 108.205 60.446 108.27 60.464 108.343 60.483 108.417 60.492 108.491 60.565 108.435 60.676 108.38 60.731 108.362 60.786 108.343 60.841 108.325 60.896 108.316 60.951 108.316 60.997 108.316 61.043 108.334 61.08 108.362 61.117 108.398 61.135 108.454 61.144 108.518 61.153 108.601 61.19 108.583 61.236 108.555 61.264 108.527 61.291 108.491 61.31 108.454 61.328 108.408 61.337 108.362 61.337 108.316 61.411 108.426 61.484 108.564 61.539 108.712 61.576 108.868 61.613 109.043 61.64 109.218 61.659 109.402 61.668 109.587 61.677 109.78 61.668 109.964 61.668 110.149 61.65 110.333 61.622 110.664 61.576 110.959 61.493 111.033 61.411 111.107 61.319 111.162 61.236 111.217 61.144 111.254 61.052 111.291 60.942 111.309 60.813 111.328 60.501 111.355 60.17 111.374 60.005 111.365 59.84 111.355 59.684 111.337 59.536 111.3 59.463 111.281 59.426 111.263 59.325 111.281 59.215 111.3 59.105 111.309 58.994 111.328 58.811 111.3 58.627 111.272 58.443 111.254 58.25 111.245 58.039 111.245 57.818 111.254 57.58 111.272 57.322 111.291 57.46 111.401 57.295 111.374 57.138 111.374 56.982 111.374 56.826 111.383 56.532 111.411 56.238 111.429 56.211 111.447 56.192 111.466 56.183 111.484 56.192 111.493 56.22 111.521 56.256 111.539 56.275 111.558 56.293 111.567 56.293 111.576 56.284 111.586 56.229 111.613 56.11 111.641 55.852 111.65 55.678 111.65 55.567 111.65 55.485 111.65 55.402 111.65 55.292 111.65 55.117 111.659 54.86 111.659 54.897 111.641 54.961 111.622 55.035 111.613 55.108 111.595 55.182 111.586 55.237 111.567 55.246 111.558 55.255 111.549 55.246 111.539 55.237 111.521 55.108 111.549 54.906 111.576 54.805 111.586 54.713 111.604 54.676 111.622 54.639 111.632 54.621 111.641 54.612 111.659 54.594 111.567 54.538 111.576 54.483 111.576 54.428 111.567 54.373 111.558 54.254 111.53 54.107 111.521 54.07 111.53 54.042 111.549 54.024 111.558 54.015 111.576 54.024 111.586 54.042 111.595 54.098 111.604 54.171 111.613 53.822 111.659 53.445 111.705 53.271 111.724 53.096 111.733 52.94 111.724 52.802 111.705 52.673 111.696 52.581 111.687 52.526 111.668 52.49 111.641 52.453 111.576 52.398 111.512 52.297 111.53 52.196 111.558 52.15 111.567 52.122 111.586 52.095 111.604 52.095 111.622 52.039 111.604 51.865 111.687 51.709 111.668 51.553 111.65 51.406 111.65 51.249 111.65 50.955 111.668 50.661 111.696 50.376 111.724 50.101 111.742 49.963 111.742 49.825 111.742 49.687 111.724 49.559 111.696 49.715 111.696 49.89 111.687 49.963 111.687 50.027 111.678 50.046 111.668 50.064 111.65 50.083 111.641 50.083 111.622 49.485 111.65 49.66 111.622 49.788 111.586 49.825 111.567 49.853 111.539 49.862 111.53 49.853 111.521 49.853 111.503 49.835 111.493 49.219 111.539 49.136 111.549 49.118 111.558 49.109 111.558 49.109 111.558 49.109 111.558 49.191 111.641 49.191 111.632 49.118 111.567 48.998 111.447 48.879 111.328 48.76 111.208 48.686 111.134 48.677 111.125 48.677 111.125 48.677 111.125 48.677 111.088 48.659 110.932 48.622 110.618 48.594 110.305 48.567 109.974 48.539 109.633 48.521 109.264 48.548 109.246 48.567 109.218 48.576 109.181 48.585 109.135 48.594 109.016 48.603 108.868 48.603 108.703 48.603 108.537 48.622 108.38 48.649 108.242 48.631 108.27 48.622 108.288 48.613 108.297 48.603 108.297 48.594 108.389 48.576 108.417 48.557 108.352 48.539 108.168 48.548 108.168 48.557 108.159 48.539 108.085 48.512 108.012 48.53 107.929 48.539 107.864 48.557 107.827 48.567 107.818 48.576 107.818 48.585 107.837 48.594 107.873 48.603 107.92 48.603 107.763 48.603 107.653 48.613 107.616 48.622 107.606 48.64 107.616 48.668 107.671 48.668 107.569 48.668 107.487 48.668 107.413 48.659 107.339 48.631 107.229 48.603 107.127 48.567 107.044 48.53 106.962 48.493 106.879 48.475 106.777 48.475 106.566 48.475 106.372 48.475 106.197 48.475 106.022 48.475 105.838 48.466 105.635 48.456 105.396 48.447 105.11 48.466 105.212 48.502 105.064 48.548 104.926 48.567 104.843 48.585 104.742 48.594 104.622 48.585 104.475 48.548 104.438 48.521 104.401 48.493 104.364 48.466 104.327 48.429 104.235 48.41 104.134 48.392 104.033 48.392 103.913 48.401 103.793 48.41 103.655 48.438 103.379 48.466 103.065 48.475 102.9 48.475 102.734 48.466 102.559 48.447 102.384 48.42 102.402 48.401 102.402 48.383 102.393 48.374 102.375 48.355 102.319 48.346 102.246 48.328 102.172 48.319 102.107 48.309 102.08 48.291 102.061 48.282 102.052 48.263 102.052 48.282 101.886 48.291 101.721 48.3 101.555 48.3 101.389 48.282 101.067 48.263 100.753 48.236 100.422 48.217 100.09 48.217 99.915 48.217 99.74 48.227 99.556 48.245 99.363 48.254 99.418 48.273 99.363 48.282 99.298 48.291 99.224 48.3 99.142 48.3 98.976 48.291 98.791 48.273 98.617 48.245 98.451 48.217 98.313 48.181 98.202 48.199 98.22 48.217 98.23 48.236 98.23 48.245 98.211 48.273 98.165 48.3 98.101 48.319 98.045 48.346 97.999 48.355 97.99 48.374 97.99 48.383 97.999 48.401 98.027 48.374 97.981 48.355 97.917 48.346 97.843 48.328 97.769 48.319 97.585 48.309 97.391 48.319 97.051 48.328 96.903 48.346 96.866 48.364 96.82 48.374 96.765 48.383 96.701 48.383 96.544 48.383 96.369 48.383 96.185 48.383 95.991 48.401 95.807 48.429 95.641 48.263 95.089 48.374 95.282 48.374 95.19 48.374 95.107 48.392 95.052 48.41 95.015 48.429 94.997 48.447 95.006 48.466 95.024 48.484 95.061 48.493 94.969 48.484 94.886 48.466 94.785 48.447 94.665 48.539 94.757 48.539 94.693 48.539 94.628 48.539 94.573 48.53 94.527 48.502 94.453 48.466 94.398 48.447 94.389 48.429 94.379 48.41 94.379 48.401 94.398 48.392 94.416 48.383 94.444 48.374 94.481 48.374 94.536 48.337 94.407 48.309 94.306 48.291 94.214 48.291 94.149 48.291 94.085 48.3 94.039 48.309 94.002 48.319 93.965 48.346 93.882 48.364 93.79 48.374 93.726 48.364 93.652 48.346 93.56 48.319 93.44 48.19 93.311 48.181 93.191 48.172 93.09 48.172 93.016 48.181 92.952 48.19 92.906 48.208 92.869 48.227 92.841 48.254 92.814 48.273 92.795 48.291 92.758 48.3 92.722 48.309 92.675 48.319 92.62 48.319 92.537 48.309 92.436 48.291 92.316 48.383 92.289 48.364 92.15 48.355 92.04 48.337 91.994 48.319 91.975 48.309 91.966 48.291 91.966 48.282 91.966 48.263 91.975 48.273 91.708 48.291 91.441 48.319 91.165 48.337 90.898 48.364 90.631 48.392 90.382 48.42 90.142 48.447 89.921 48.438 89.811 48.42 89.765 48.401 89.774 48.383 89.82 48.364 89.875 48.346 89.912 48.328 89.931 48.319 89.921 48.309 89.912 48.291 89.885 48.273 89.802 48.254 89.728 48.245 89.654 48.236 89.59 48.245 89.47 48.263 89.36 48.319 89.139 48.328 89.083 48.328 89.074 48.328 89.074 48.346 88.853 48.374 88.65 48.401 88.549 48.429 88.448 48.466 88.346 48.512 88.254 48.548 88.337 48.585 88.411 48.613 88.383 48.631 88.356 48.649 88.319 48.668 88.282 48.686 88.3 48.704 88.328 48.714 88.217 48.732 88.098 49.081 88.061 49.412 88.024 49.743 87.996 50.073 87.987 50.23 87.978 50.367 87.969 50.505 87.959 50.634 87.941 50.882 87.904 51.148 87.877 51.222 87.904 51.332 87.941 51.35 88.024 51.378 88.107 51.396 88.19 51.415 88.273 51.47 88.273 51.516 88.273 51.543 88.171 51.58 88.079 51.626 87.987 51.681 87.904 51.7 87.978 51.709 88.061 51.709 88.144 51.718 88.236 51.709 88.402 51.709 88.577 51.709 88.577 51.709 88.577 51.718 88.503 51.736 88.429 51.755 88.356 51.782 88.291 51.847 88.153 51.938 88.033 51.957 88.125 51.966 88.217 51.975 88.309 51.975 88.402 51.966 88.595 51.948 88.788 52.021 88.862"/><polygon class="ac4817a2-f375-4f7f-8d34-90fb5b399c13" points="65.325 87.462 65.334 87.471 65.343 87.471 65.453 87.471 65.692 87.462 65.931 87.453 66.179 87.453 66.418 87.453 66.666 87.453 66.905 87.453 67.144 87.444 67.373 87.444 67.594 87.434 67.603 87.462 67.631 87.481 67.676 87.49 67.723 87.499 67.851 87.517 68.017 87.517 68.384 87.508 68.77 87.49 68.715 87.49 68.678 87.499 68.65 87.508 68.623 87.517 68.595 87.545 68.577 87.563 68.706 87.545 68.825 87.527 68.954 87.527 69.082 87.527 69.339 87.545 69.606 87.563 69.863 87.591 70.13 87.609 70.258 87.609 70.396 87.6 70.525 87.582 70.653 87.554 70.626 87.573 70.745 87.591 70.901 87.582 71.085 87.573 71.269 87.563 71.453 87.563 71.609 87.573 71.682 87.582 71.737 87.6 71.783 87.628 71.811 87.665 72.105 87.609 72.39 87.563 72.684 87.545 72.987 87.527 73.309 87.536 73.648 87.545 74.016 87.563 74.42 87.591 74.365 87.628 74.494 87.646 74.622 87.674 74.742 87.692 74.861 87.711 75.063 87.656 75.293 87.591 75.523 87.536 75.743 87.481 75.945 87.444 76.111 87.407 76.175 87.407 76.23 87.398 76.267 87.407 76.285 87.416 76.395 87.37 76.515 87.333 76.634 87.305 76.745 87.287 76.754 87.398 76.754 87.499 76.836 87.481 76.91 87.471 76.993 87.471 77.066 87.481 77.213 87.508 77.369 87.545 77.443 87.563 77.516 87.573 77.599 87.582 77.682 87.573 77.764 87.554 77.847 87.527 77.939 87.481 78.031 87.416 78.077 87.462 78.132 87.508 78.178 87.563 78.233 87.628 78.316 87.757 78.389 87.913 78.463 88.07 78.518 88.245 78.564 88.429 78.6 88.613 78.628 88.807 78.646 88.991 78.646 89.175 78.646 89.36 78.628 89.525 78.6 89.691 78.564 89.829 78.509 89.958 78.463 90.041 78.417 90.115 78.371 90.179 78.316 90.235 78.261 90.271 78.196 90.308 78.141 90.345 78.077 90.363 78.012 90.382 77.948 90.391 77.875 90.4 77.81 90.4 77.673 90.391 77.544 90.363 77.351 90.327 77.158 90.281 76.965 90.235 76.754 90.198 76.616 90.216 76.469 90.244 76.322 90.262 76.166 90.29 75.973 90.253 75.78 90.225 75.587 90.207 75.385 90.198 75.174 90.198 74.953 90.207 74.705 90.225 74.429 90.253 74.576 90.354 74.411 90.336 74.246 90.327 74.08 90.327 73.924 90.336 73.612 90.363 73.309 90.391 73.281 90.41 73.263 90.419 73.253 90.437 73.263 90.446 73.29 90.474 73.327 90.493 73.345 90.511 73.354 90.52 73.364 90.529 73.364 90.539 73.327 90.566 73.217 90.594 73.217 90.649 73.226 90.723 73.226 90.806 73.226 90.898 73.198 90.852 73.18 90.778 73.171 90.686 73.152 90.603 73.134 90.603 73.106 90.603 73.125 90.76 73.152 90.935 73.162 91.018 73.18 91.082 73.198 91.128 73.226 91.156 73.134 91.174 73.143 91.229 73.143 91.294 73.134 91.349 73.125 91.404 73.097 91.533 73.088 91.671 73.097 91.717 73.116 91.745 73.125 91.764 73.143 91.773 73.152 91.773 73.162 91.745 73.171 91.69 73.18 91.616 73.198 91.791 73.226 91.975 73.253 92.169 73.272 92.362 73.29 92.547 73.299 92.731 73.29 92.887 73.272 93.026 73.263 93.164 73.253 93.256 73.235 93.32 73.207 93.357 73.143 93.394 73.079 93.449 73.097 93.56 73.125 93.661 73.134 93.707 73.152 93.744 73.171 93.762 73.189 93.772 73.171 93.827 73.253 94.002 73.226 94.168 73.217 94.324 73.217 94.481 73.217 94.637 73.235 94.951 73.263 95.255 73.29 95.549 73.309 95.835 73.309 95.982 73.299 96.12 73.29 96.258 73.263 96.397 73.263 96.231 73.253 96.056 73.253 95.973 73.235 95.908 73.235 95.89 73.217 95.872 73.207 95.853 73.189 95.853 73.217 96.47 73.198 96.378 73.189 96.295 73.171 96.222 73.152 96.157 73.134 96.12 73.106 96.093 73.097 96.093 73.079 96.093 73.07 96.102 73.061 96.111 73.079 96.434 73.106 96.756 73.143 97.069 73.18 97.391 73.207 97.714 73.235 98.055 73.263 98.414 73.281 98.801 73.253 98.81 73.235 98.847 73.226 98.884 73.217 98.93 73.207 99.059 73.198 99.206 73.198 99.372 73.198 99.547 73.18 99.713 73.152 99.86 73.162 99.823 73.18 99.805 73.189 99.796 73.198 99.805 73.207 99.703 73.226 99.676 73.244 99.74 73.263 99.924 73.253 99.934 73.244 99.934 73.263 100.017 73.29 100.09 73.272 100.182 73.263 100.238 73.244 100.284 73.235 100.293 73.226 100.293 73.217 100.274 73.207 100.238 73.198 100.192 73.198 100.348 73.198 100.468 73.189 100.505 73.18 100.514 73.162 100.496 73.134 100.45 73.134 100.551 73.134 100.634 73.134 100.717 73.143 100.79 73.171 100.91 73.198 101.002 73.235 101.094 73.272 101.177 73.309 101.269 73.327 101.371 73.327 101.592 73.318 101.785 73.318 101.969 73.327 102.154 73.327 102.347 73.336 102.559 73.345 102.798 73.354 103.093 73.336 102.983 73.299 103.139 73.253 103.286 73.235 103.369 73.217 103.471 73.207 103.6 73.217 103.756 73.253 103.784 73.281 103.821 73.309 103.867 73.336 103.904 73.373 104.005 73.391 104.106 73.41 104.217 73.41 104.336 73.4 104.466 73.391 104.594 73.364 104.889 73.336 105.212 73.327 105.387 73.327 105.552 73.336 105.737 73.354 105.921 73.382 105.902 73.4 105.902 73.419 105.912 73.428 105.93 73.446 105.985 73.456 106.059 73.474 106.133 73.483 106.206 73.492 106.234 73.511 106.252 73.52 106.262 73.538 106.262 73.52 106.437 73.511 106.612 73.501 106.777 73.501 106.943 73.52 107.275 73.538 107.606 73.566 107.947 73.584 108.288 73.584 108.472 73.584 108.656 73.575 108.85 73.557 109.043 73.547 108.988 73.529 109.043 73.511 109.117 73.501 109.191 73.501 109.274 73.501 109.449 73.511 109.633 73.529 109.817 73.547 109.983 73.584 110.13 73.621 110.241 73.602 110.222 73.584 110.213 73.566 110.222 73.557 110.231 73.547 110.241 73.547 110.241 73.547 110.241 73.547 110.241 73.088 110.756 72.831 111.042 72.72 111.162 72.72 111.162 72.766 111.107 72.831 111.042 72.849 111.024 72.785 111.097 72.776 111.097 72.766 111.088 72.739 111.079 72.675 111.06 72.61 111.042 72.564 111.024 72.555 111.014 72.546 110.996 72.564 110.987 72.583 110.968 72.537 110.996 72.482 111.024 72.408 111.042 72.325 111.06 72.142 111.097 71.939 111.125 71.59 111.153 71.443 111.162 71.407 111.143 71.351 111.134 71.287 111.125 71.223 111.125 71.058 111.134 70.883 111.153 70.791 111.171 70.764 111.171 70.754 111.171 70.745 111.171 70.745 111.171 70.745 111.171 70.672 111.107 70.69 111.125 70.754 111.18 70.81 111.235 70.8 111.226 70.69 111.125 70.424 110.886 69.946 110.453 69.946 110.453 69.946 110.397 69.946 110.204 69.955 110.112 69.964 110.02 69.973 109.928 69.983 109.845 69.826 109.274 69.937 109.476 69.937 109.375 69.937 109.292 69.955 109.237 69.964 109.2 69.983 109.181 70.01 109.181 70.029 109.2 70.047 109.237 70.056 109.145 70.047 109.062 70.029 108.96 70.01 108.831 70.102 108.923 70.102 108.859 70.102 108.795 70.093 108.739 70.084 108.693 70.065 108.61 70.029 108.555 70.01 108.546 69.992 108.537 69.973 108.546 69.964 108.555 69.946 108.574 69.937 108.601 69.937 108.647 69.937 108.693 69.9 108.564 69.872 108.454 69.854 108.371 69.845 108.297 69.854 108.233 69.854 108.187 69.872 108.141 69.882 108.104 69.909 108.03 69.927 107.929 69.927 107.864 69.927 107.781 69.909 107.689 69.882 107.569 69.689 107.367 69.753 107.431 69.735 107.312 69.735 107.201 69.735 107.127 69.744 107.063 69.753 107.017 69.771 106.98 69.79 106.943 69.808 106.916 69.836 106.897 69.854 106.86 69.863 106.824 69.872 106.777 69.882 106.713 69.882 106.63 69.872 106.529 69.854 106.4 69.946 106.381 69.927 106.234 69.909 106.114 69.9 106.068 69.882 106.05 69.872 106.041 69.854 106.041 69.836 106.041 69.817 106.05 69.836 105.774 69.854 105.497 69.872 105.212 69.9 104.935 69.927 104.659 69.955 104.392 69.983 104.152 70.01 103.931 69.992 103.802 69.983 103.765 69.964 103.775 69.946 103.821 69.927 103.876 69.9 103.913 69.891 103.931 69.882 103.931 69.863 103.913 69.854 103.885 69.836 103.793 69.817 103.719 69.808 103.646 69.799 103.581 69.808 103.452 69.826 103.342 69.872 103.111 69.927 102.835 69.836 102.955 69.882 102.098 69.955 102.218 69.964 101.638 69.946 101.592 69.927 101.582 69.918 101.601 69.909 101.638 69.9 101.767 69.882 101.905 69.882 101.785 69.882 101.675 69.872 101.564 69.854 101.453 69.826 101.242 69.799 101.03 69.771 100.809 69.762 100.597 69.762 100.486 69.771 100.376 69.79 100.256 69.817 100.146 69.909 100.219 69.891 100.228 69.882 100.265 69.882 100.311 69.891 100.357 69.909 100.459 69.937 100.514 69.946 100.551 69.964 100.551 69.983 100.486 69.992 100.357 70.001 100.201 70.01 100.044 70.019 99.98 70.019 99.924 70.029 99.888 70.047 99.869 70.019 99.832 70.01 99.786 70.001 99.731 69.992 99.676 69.973 99.547 69.973 99.409 69.955 99.261 69.946 99.123 69.927 99.059 69.918 99.003 69.891 98.948 69.863 98.893 69.9 98.69 69.927 98.497 69.937 98.303 69.946 98.11 69.937 97.751 69.918 97.401 69.891 97.06 69.872 96.738 69.872 96.572 69.872 96.415 69.882 96.258 69.9 96.102 69.909 96.13 69.927 96.148 69.937 96.157 69.946 96.148 69.955 96.111 69.964 96.047 69.983 95.973 69.992 95.908 70.001 95.881 70.01 95.862 70.019 95.853 70.038 95.844 70.047 95.733 70.047 95.641 70.029 95.577 70.001 95.531 69.983 95.485 69.955 95.42 69.946 95.347 69.946 95.236 70.065 94.941 70.038 94.803 70.029 94.693 70.019 94.591 70.019 94.518 70.029 94.444 70.038 94.389 70.056 94.333 70.075 94.287 70.12 94.186 70.157 94.066 70.166 93.983 70.166 93.891 70.166 93.79 70.157 93.661 70.139 93.569 70.12 93.468 70.111 93.366 70.111 93.265 70.12 93.053 70.148 92.823 70.166 92.583 70.176 92.335 70.176 92.206 70.166 92.077 70.148 91.939 70.12 91.81 70.212 91.782 70.194 91.589 70.194 91.414 70.203 91.248 70.221 91.1 70.24 90.953 70.258 90.806 70.267 90.649 70.249 90.493 70.286 90.456 70.304 90.456 70.313 90.474 70.332 90.502 70.341 90.529 70.359 90.557 70.369 90.575 70.387 90.585 70.396 90.585 70.424 90.585 70.405 90.511 70.405 90.456 70.405 90.428 70.414 90.41 70.424 90.4 70.442 90.4 70.46 90.419 70.479 90.437 70.506 90.474 70.534 90.493 70.534 90.474 70.506 90.4 70.525 90.327 70.525 90.253 70.497 90.253 70.378 90.281 70.258 90.317 70.139 90.354 70.019 90.391 69.781 90.474 69.551 90.539 69.431 90.566 69.312 90.594 69.202 90.603 69.082 90.603 68.926 90.631 68.77 90.64 68.623 90.631 68.485 90.621 68.209 90.649 67.934 90.667 67.667 90.677 67.401 90.677 67.125 90.667 66.85 90.658 66.574 90.658 66.289 90.649 66.106 90.658 65.812 90.667 65.646 90.667 65.462 90.667 65.288 90.658 65.113 90.631 65.003 90.612 64.911 90.585 64.819 90.557 64.746 90.52 64.681 90.465 64.636 90.41 64.617 90.382 64.608 90.345 64.599 90.317 64.599 90.271 64.507 90.253 64.424 90.207 64.415 89.986 64.406 89.774 64.415 89.571 64.433 89.378 64.461 89.194 64.498 89.01 64.535 88.835 64.59 88.641 64.59 88.641 64.59 88.632 64.59 88.521 64.59 88.42 64.599 88.309 64.608 88.199 64.608 88.144 64.608 88.107 64.608 88.107 64.608 88.107 64.7 88.024 64.783 87.95 64.828 87.803 64.874 87.656 64.92 87.527 64.975 87.416 65.003 87.37 65.031 87.342 65.058 87.324 65.095 87.315 65.132 87.324 65.168 87.342 65.205 87.388 65.251 87.453 65.325 87.462"/><polygon class="ac4817a2-f375-4f7f-8d34-90fb5b399c13" points="97.398 88.89 97.389 88.706 97.361 88.549 97.325 88.42 97.27 88.282 97.223 88.291 97.187 88.3 97.178 88.227 97.168 88.162 97.132 88.171 97.086 88.199 97.086 88.171 97.076 88.134 97.058 88.107 97.04 88.079 96.994 88.024 96.92 87.978 96.847 87.941 96.746 87.913 96.644 87.886 96.544 87.867 96.314 87.84 96.103 87.83 95.909 87.84 95.762 87.849 95.754 87.738 95.745 87.619 95.643 87.72 95.533 87.821 95.413 87.923 95.294 88.024 95.175 88.125 95.055 88.236 94.945 88.356 94.853 88.484 94.834 88.484 94.808 88.291 94.789 88.098 94.77 88.006 94.752 87.913 94.725 87.83 94.688 87.757 94.651 87.821 94.605 87.877 94.568 87.923 94.523 87.969 94.467 87.996 94.412 88.015 94.357 88.024 94.302 88.015 94.238 88.125 94.192 88.236 94.164 88.346 94.146 88.466 94.137 88.595 94.137 88.715 94.137 88.844 94.155 88.973 94.045 89.083 93.971 89.175 93.925 89.221 93.935 89.212 93.935 89.212 93.935 89.221 93.935 89.24 93.944 89.553 93.971 89.848 93.99 90.115 94.017 90.363 94.054 90.585 94.017 90.511 94.054 90.723 94.082 90.907 94.091 91.073 94.091 91.229 94.082 91.395 94.082 91.57 94.091 91.773 94.109 92.003 94.091 92.068 94.072 92.086 94.099 92.224 94.118 92.372 94.127 92.528 94.137 92.694 94.146 93.044 94.146 93.403 94.137 93.753 94.137 94.085 94.137 94.379 94.155 94.619 94.072 94.647 94.091 96.001 94.109 95.494 94.146 95.54 94.164 95.595 94.173 95.66 94.182 95.743 94.164 95.945 94.137 96.194 94.109 96.48 94.082 96.793 94.072 96.968 94.082 97.134 94.091 97.318 94.109 97.502 94.109 97.668 94.118 97.843 94.146 98.018 94.173 98.193 94.238 98.543 94.32 98.893 94.393 99.243 94.458 99.602 94.476 99.777 94.486 99.952 94.486 100.127 94.467 100.311 94.495 100.422 94.486 100.45 94.467 100.422 94.431 100.367 94.412 100.339 94.403 100.321 94.384 100.311 94.376 100.321 94.366 100.348 94.366 100.403 94.366 100.477 94.376 100.588 94.357 100.588 94.339 100.578 94.329 100.569 94.311 100.551 94.302 100.505 94.284 100.459 94.274 100.422 94.256 100.394 94.246 100.394 94.238 100.403 94.229 100.422 94.21 100.45 94.219 100.689 94.219 100.91 94.201 101.131 94.182 101.343 94.164 101.573 94.155 101.813 94.155 102.071 94.173 102.365 94.082 102.393 94.109 102.596 94.118 102.789 94.127 102.983 94.137 103.176 94.118 103.544 94.099 103.894 94.082 104.235 94.072 104.558 94.072 104.705 94.082 104.852 94.091 104.99 94.118 105.129 94.127 105.313 94.118 105.469 94.109 105.608 94.099 105.718 94.063 105.884 94.017 106.022 93.971 106.16 93.925 106.326 93.916 106.437 93.898 106.566 93.898 106.713 93.898 106.897 93.843 106.989 93.797 107.081 93.741 107.164 93.686 107.247 93.65 107.367 93.631 107.468 93.631 107.542 93.631 107.606 93.622 107.671 93.613 107.745 93.567 107.837 93.494 107.956 93.466 107.956 93.42 107.993 93.365 108.039 93.309 108.095 93.264 108.141 93.227 108.159 93.218 108.159 93.209 108.15 93.218 108.131 93.227 108.104 93.126 108.187 93.006 108.279 92.868 108.371 92.721 108.454 92.566 108.537 92.391 108.61 92.207 108.684 92.014 108.739 91.812 108.795 91.592 108.822 91.371 108.85 91.141 108.85 91.022 108.85 90.903 108.841 90.783 108.822 90.664 108.804 90.535 108.785 90.406 108.758 90.287 108.721 90.159 108.675 90.094 108.693 90.021 108.693 89.947 108.693 89.874 108.684 89.727 108.647 89.58 108.592 89.304 108.463 89.12 108.38 89.084 108.334 89.01 108.224 88.918 108.085 88.826 107.938 88.762 107.809 88.743 107.745 88.752 107.735 88.78 107.754 88.835 107.809 88.909 107.883 88.946 107.92 88.973 107.966 88.992 108.002 88.982 108.021 89.093 108.03 89.01 107.818 88.909 107.606 88.808 107.376 88.707 107.146 88.661 107.026 88.615 106.897 88.569 106.768 88.532 106.639 88.505 106.501 88.477 106.354 88.458 106.206 88.449 106.05 88.44 106.243 88.449 106.4 88.449 106.455 88.44 106.473 88.422 106.464 88.394 106.409 88.376 106.216 88.367 106.022 88.358 105.829 88.358 105.626 88.44 105.792 88.44 105.497 88.449 105.184 88.458 104.862 88.468 104.548 88.376 104.723 88.403 104.511 88.431 104.318 88.458 104.143 88.486 103.977 88.496 103.811 88.505 103.627 88.486 103.425 88.449 103.176 88.44 103.13 88.422 103.111 88.413 103.111 88.403 103.13 88.376 103.194 88.358 103.277 88.339 103.342 88.321 103.351 88.311 103.286 88.294 103.111 88.321 102.78 88.348 102.421 88.376 102.034 88.403 101.629 88.431 101.214 88.449 100.79 88.468 100.376 88.486 99.971 88.468 99.989 88.449 99.989 88.431 99.989 88.422 99.98 88.403 99.943 88.394 99.878 88.376 99.703 88.358 99.492 88.449 99.455 88.431 99.261 88.422 99.114 88.422 98.994 88.431 98.902 88.44 98.828 88.458 98.773 88.477 98.727 88.496 98.69 88.514 98.644 88.532 98.607 88.551 98.552 88.56 98.478 88.569 98.386 88.569 98.266 88.569 98.11 88.551 97.926 88.422 97.723 88.394 97.557 88.385 97.41 88.376 97.29 88.376 97.198 88.394 97.051 88.422 96.94 88.431 96.876 88.449 96.811 88.449 96.738 88.458 96.655 88.449 96.544 88.431 96.415 88.403 96.249 88.367 96.065 88.367 96.139 88.367 96.194 88.358 96.24 88.339 96.268 88.33 96.286 88.311 96.295 88.294 96.286 88.275 96.268 88.256 96.231 88.247 96.185 88.229 96.13 88.22 96.065 88.211 96.001 88.202 95.918 88.202 95.826 88.211 95.724 88.294 95.862 88.275 95.669 88.266 95.522 88.256 95.393 88.256 95.255 88.275 95.31 88.294 95.347 88.311 95.347 88.321 95.347 88.33 95.337 88.339 95.319 88.358 95.264 88.367 95.181 88.376 95.061 88.367 94.914 88.477 95.208 88.321 94.37 88.348 94.112 88.358 93.827 88.358 93.541 88.358 93.256 88.358 92.989 88.367 92.749 88.376 92.648 88.385 92.556 88.394 92.482 88.422 92.427 88.422 92.362 88.422 92.206 88.431 91.966 88.431 91.69 88.431 91.395 88.413 91.11 88.403 90.99 88.385 90.879 88.367 90.778 88.339 90.714 88.358 90.75 88.376 90.769 88.385 90.769 88.403 90.76 88.422 90.695 88.449 90.603 88.468 90.502 88.496 90.428 88.514 90.41 88.523 90.4 88.541 90.41 88.56 90.437 88.523 90.271 88.496 90.06 88.468 89.811 88.449 89.535 88.44 89.323 88.449 89.24 88.449 89.166 88.449 89.083 88.449 89.01 88.44 88.816 88.431 88.715 88.422 88.623 88.413 88.549 88.394 88.475 88.339 88.328 88.266 88.162 88.174 88.227 88.073 88.3 88.045 88.227 88.009 88.162 87.944 88.162 87.879 88.162 87.862 88.245 87.843 88.309 87.815 88.365 87.779 88.411 87.668 88.3 87.585 88.227 87.54 88.19 87.558 88.199 87.549 88.199 87.43 88.208 87.319 88.208 87.218 88.208 87.136 88.199 87.209 88.181 87.136 88.181 87.053 88.19 86.98 88.19 86.897 88.199 86.823 88.171 86.75 88.153 86.676 88.144 86.612 88.153 86.529 88.052 86.456 87.978 86.382 88.052 86.281 88.116 86.19 88.181 86.107 88.245 86.079 88.227 86.061 88.19 86.052 88.162 86.052 88.125 85.969 88.134 85.886 88.153 85.813 88.19 85.73 88.227 85.574 88.309 85.427 88.402 85.399 88.3 85.381 88.208 85.326 88.245 85.289 88.282 85.261 88.328 85.225 88.383 85.206 88.365 85.197 88.337 85.188 88.319 85.179 88.309 85.16 88.309 85.142 88.309 84.968 88.457 84.876 88.549 84.848 88.604 84.839 88.66 84.839 88.724 84.848 88.816 84.765 88.908 84.71 88.982 84.674 89.037 84.664 89.074 84.664 89.093 84.674 89.102 84.691 89.111 84.71 89.111 84.765 89.102 84.812 89.102 84.812 89.111 84.812 89.129 84.784 89.166 84.747 89.212 84.747 89.212 84.747 89.221 84.747 89.221 84.747 89.231 84.747 89.258 84.756 89.387 84.765 89.636 84.774 89.875 84.784 90.124 84.793 90.363 84.802 90.612 84.802 90.861 84.793 91.11 84.784 91.368 84.765 91.635 84.784 91.625 84.793 91.644 84.812 91.671 84.821 91.708 84.829 91.81 84.848 91.929 84.857 92.04 84.876 92.123 84.894 92.15 84.903 92.16 84.921 92.15 84.949 92.132 84.968 92.399 84.976 92.666 84.976 92.924 84.968 93.173 84.94 93.652 84.912 94.085 84.903 94.287 84.894 94.472 84.903 94.656 84.912 94.822 84.931 94.969 84.968 95.107 84.995 95.172 85.023 95.227 85.059 95.282 85.096 95.337 85.096 95.558 85.087 95.743 85.068 95.899 85.05 96.019 85.004 96.24 84.976 96.47 84.949 96.314 84.958 96.738 84.968 97.106 84.976 97.419 84.976 97.705 84.986 97.972 84.986 98.239 84.986 98.524 84.976 98.856 85.004 99.013 85.032 99.142 85.068 99.271 85.106 99.399 85.142 99.547 85.16 99.722 85.17 99.943 85.17 100.219 85.142 100.146 85.123 100.118 85.114 100.136 85.106 100.192 85.106 100.376 85.106 100.597 85.096 100.532 85.096 100.486 85.087 100.45 85.068 100.45 85.059 100.468 85.05 100.523 85.032 100.615 85.013 100.753 85.041 100.855 85.059 100.975 85.05 100.993 85.041 100.993 85.059 101.269 85.078 101.371 85.096 101.324 85.106 101.177 85.114 101.177 85.123 101.168 85.142 101.14 85.151 101.094 85.123 101.315 85.114 101.555 85.106 101.813 85.106 102.052 85.096 102.283 85.087 102.467 85.078 102.54 85.068 102.596 85.05 102.642 85.032 102.66 85.05 103.222 85.068 103.756 85.096 104.263 85.123 104.751 85.17 105.221 85.215 105.7 85.27 106.179 85.335 106.667 85.326 106.695 85.317 106.713 85.307 106.713 85.298 106.704 85.27 106.676 85.234 106.612 85.206 106.519 85.179 106.409 85.16 106.28 85.132 106.133 85.16 106.372 85.188 106.612 85.225 106.851 85.27 107.091 85.253 107.081 85.234 107.063 85.215 107.035 85.206 106.998 85.179 106.906 85.151 106.777 85.123 106.51 85.096 106.252 85.087 106.473 85.096 106.695 85.123 106.906 85.151 107.127 85.197 107.349 85.243 107.579 85.307 107.8 85.381 108.021 85.455 108.251 85.537 108.481 85.629 108.703 85.73 108.933 85.95 109.402 86.18 109.882 86.419 110.075 86.456 110.158 86.474 110.158 86.511 110.176 86.566 110.213 86.631 110.25 86.768 110.36 86.897 110.471 86.916 110.591 86.916 110.683 86.933 110.71 86.952 110.738 86.98 110.775 87.016 110.821 87.136 110.932 87.31 111.07 87.402 111.153 87.503 111.226 87.613 111.3 87.733 111.365 87.87 111.429 88.009 111.484 88.147 111.539 88.302 111.586 88.449 111.632 88.605 111.678 88.752 111.714 88.909 111.751 89.203 111.797 89.478 111.825 89.359 111.797 89.286 111.77 89.248 111.751 89.24 111.733 89.258 111.724 89.295 111.724 89.35 111.714 89.405 111.714 89.625 111.77 89.818 111.825 89.901 111.843 89.993 111.862 90.085 111.871 90.177 111.871 90.195 111.972 90.213 111.954 90.25 111.945 90.296 111.936 90.36 111.936 90.507 111.917 90.673 111.917 90.847 111.908 91.003 111.899 91.123 111.89 91.196 111.871 91.224 111.89 91.224 111.899 91.215 111.917 91.196 111.926 91.114 111.936 90.994 111.945 90.875 111.954 90.756 111.963 90.655 111.982 90.6 112 91.013 112 91.288 112 91.463 112 91.601 112 91.729 111.991 91.913 111.972 92.189 111.936 92.602 111.89 92.795 111.825 92.878 111.779 92.887 111.77 92.878 111.761 92.859 111.751 92.832 111.742 92.768 111.733 92.713 111.724 92.704 111.705 92.704 111.696 92.73 111.668 92.777 111.641 93.006 111.586 93.236 111.521 93.456 111.447 93.677 111.355 93.907 111.263 94.137 111.162 94.366 111.051 94.614 110.932 94.366 110.959 94.54 110.839 94.706 110.72 94.853 110.6 95 110.471 95.129 110.36 95.248 110.241 95.358 110.121 95.46 110.001 95.652 109.762 95.827 109.522 95.992 109.283 96.149 109.034 96.222 108.776 96.286 108.527 96.332 108.279 96.378 108.049 96.415 107.827 96.443 107.616 96.461 107.413 96.479 107.22 96.516 106.971 96.553 106.713 96.58 106.446 96.608 106.169 96.626 105.884 96.644 105.598 96.644 105.304 96.654 105 96.654 104.493 96.709 104.244 96.773 103.941 96.838 103.572 96.902 103.148 96.976 102.669 97.049 102.117 97.123 101.5 97.205 100.818 97.242 100.892 97.27 100.302 97.287 99.75 97.306 99.243 97.306 98.773 97.287 98.322 97.27 97.889 97.223 97.456 97.168 97.032 97.205 96.986 97.233 96.922 97.251 96.839 97.261 96.738 97.279 96.498 97.27 96.231 97.261 95.954 97.251 95.687 97.242 95.568 97.242 95.457 97.251 95.356 97.261 95.273 97.279 95.31 97.251 95.116 97.242 94.923 97.233 94.73 97.233 94.536 97.242 94.149 97.27 93.762 97.287 93.366 97.306 92.989 97.306 92.795 97.306 92.611 97.287 92.418 97.27 92.233 97.287 92.261 97.315 92.307 97.325 92.344 97.334 92.39 97.343 92.445 97.343 92.519 97.334 92.242 97.325 91.957 97.315 91.671 97.315 91.404 97.315 91.165 97.334 90.972 97.343 90.898 97.361 90.833 97.37 90.796 97.398 90.778 97.389 90.456 97.389 90.124 97.389 89.792 97.38 89.442 97.398 89.341 97.398 89.231 97.408 89.129 97.408 89.028 97.398 88.89"/><polygon class="ac4817a2-f375-4f7f-8d34-90fb5b399c13" points="106.062 86.274 105.997 86.246 105.933 86.228 105.879 86.209 105.814 86.2 105.694 86.191 105.556 86.2 105.566 86.265 105.566 86.329 105.566 86.375 105.547 86.412 105.529 86.44 105.502 86.467 105.474 86.486 105.437 86.504 105.364 86.532 105.3 86.559 105.272 86.587 105.244 86.605 105.217 86.642 105.208 86.679 105.189 86.744 105.189 86.799 105.189 86.854 105.198 86.909 105.217 86.965 105.244 87.011 105.272 87.066 105.3 87.103 105.272 87.14 105.253 87.149 105.253 87.158 105.253 87.158 105.253 87.167 105.253 87.195 105.281 87.591 105.29 87.803 105.3 88.015 105.309 88.227 105.309 88.448 105.3 88.669 105.29 88.899 105.262 89.129 105.235 89.378 105.262 89.442 105.281 89.525 105.382 89.525 105.483 89.535 105.584 89.535 105.685 89.553 105.649 89.562 105.639 89.571 105.63 89.581 105.639 89.59 105.676 89.608 105.731 89.618 105.805 89.627 105.869 89.645 105.896 89.654 105.915 89.664 105.924 89.673 105.924 89.691 106.043 89.7 106.126 89.691 106.181 89.682 106.227 89.654 106.282 89.636 106.337 89.608 106.411 89.599 106.512 89.599 106.806 89.719 106.935 89.691 107.045 89.673 107.137 89.664 107.21 89.673 107.274 89.673 107.33 89.691 107.385 89.709 107.431 89.728 107.532 89.765 107.642 89.802 107.715 89.82 107.808 89.82 107.909 89.82 108.037 89.811 108.129 89.783 108.221 89.774 108.322 89.765 108.423 89.765 108.643 89.774 108.864 89.802 108.864 89.746 108.873 89.691 109.094 89.728 109.278 89.765 109.323 89.765 109.36 89.765 109.397 89.756 109.434 89.746 109.461 89.719 109.498 89.682 109.516 89.636 109.544 89.571 109.599 89.571 109.654 89.581 109.691 89.599 109.719 89.618 109.783 89.664 109.838 89.7 109.792 89.719 110.004 89.7 110.159 89.691 110.298 89.7 110.453 89.709 110.49 89.682 110.527 89.654 110.564 89.618 110.6 89.581 110.637 89.553 110.683 89.525 110.711 89.525 110.738 89.525 110.775 89.525 110.812 89.535 110.794 89.553 110.784 89.571 110.784 89.59 110.803 89.59 110.839 89.599 110.903 89.599 110.867 89.618 110.858 89.636 110.876 89.664 110.931 89.7 110.959 89.673 110.996 89.654 110.996 89.673 111.069 89.654 111.097 89.636 111.078 89.627 111.05 89.608 111.041 89.59 111.032 89.562 111.078 89.59 111.143 89.618 111.197 89.627 111.262 89.636 111.308 89.645 111.354 89.664 111.372 89.673 111.382 89.691 111.391 89.709 111.391 89.728 111.666 89.728 111.905 89.719 112.016 89.719 112.125 89.719 112.245 89.719 112.355 89.737 112.355 89.765 112.346 89.792 112.328 89.811 112.31 89.82 112.254 89.838 112.19 89.848 112.282 89.866 112.383 89.903 112.364 89.931 112.346 89.94 112.319 89.94 112.3 89.931 112.245 89.912 112.19 89.903 112.217 89.94 112.254 89.967 112.291 89.995 112.337 90.014 112.429 90.032 112.521 90.05 112.613 90.078 112.704 90.106 112.741 90.133 112.778 90.17 112.815 90.207 112.842 90.262 112.943 90.244 112.943 90.262 112.971 90.244 113.017 90.244 113.062 90.244 113.1 90.262 113.072 90.317 113.035 90.373 113.026 90.4 113.026 90.428 113.045 90.465 113.072 90.493 113.09 90.548 113.127 90.585 113.173 90.631 113.219 90.667 113.339 90.732 113.458 90.796 113.448 90.769 113.439 90.75 113.448 90.741 113.448 90.732 113.476 90.723 113.513 90.723 113.541 90.769 113.541 90.824 113.541 90.852 113.55 90.87 113.559 90.889 113.577 90.898 113.485 90.972 113.494 90.953 113.513 90.953 113.531 90.944 113.55 90.944 113.586 90.962 113.624 90.981 113.688 91.036 113.743 91.064 113.724 91.082 113.706 91.091 113.678 91.082 113.651 91.064 113.632 91.054 113.605 91.036 113.577 91.027 113.55 91.027 113.641 91.146 113.678 91.211 113.706 91.266 113.779 91.404 113.825 91.432 113.862 91.432 113.88 91.423 113.899 91.404 113.908 91.386 113.926 91.368 113.954 91.358 113.991 91.358 114.064 91.45 114.129 91.543 114.147 91.598 114.174 91.653 114.184 91.708 114.193 91.773 114.266 91.69 114.321 91.782 114.367 91.865 114.395 91.948 114.414 92.031 114.423 92.104 114.423 92.187 114.414 92.261 114.395 92.335 114.469 92.482 114.533 92.62 114.606 92.74 114.661 92.86 114.67 92.979 114.68 93.108 114.689 93.237 114.689 93.366 114.689 93.431 114.68 93.504 114.625 93.56 114.551 93.643 114.478 93.726 114.404 93.827 114.239 94.066 114.046 94.37 114.018 94.343 113.963 94.472 113.908 94.591 113.871 94.702 113.844 94.803 113.825 94.905 113.816 94.997 113.816 95.098 113.825 95.208 113.797 95.199 113.761 95.208 113.733 95.218 113.715 95.227 113.688 95.273 113.66 95.319 113.651 95.384 113.632 95.43 113.614 95.457 113.605 95.476 113.586 95.494 113.568 95.503 113.559 95.485 113.559 95.531 113.55 95.577 113.531 95.614 113.503 95.651 113.448 95.706 113.375 95.743 113.301 95.789 113.237 95.835 113.209 95.862 113.182 95.89 113.164 95.927 113.154 95.964 113.145 95.945 113.136 95.918 113.136 95.89 113.145 95.862 113.072 95.954 112.989 96.028 112.953 96.056 112.907 96.065 112.888 96.065 112.87 96.056 112.851 96.047 112.842 96.038 112.732 96.111 112.604 96.185 112.466 96.249 112.319 96.314 112.181 96.378 112.043 96.452 111.988 96.489 111.933 96.526 111.878 96.572 111.84 96.618 111.85 96.581 111.804 96.627 111.767 96.664 111.731 96.682 111.694 96.682 111.657 96.691 111.611 96.691 111.565 96.71 111.51 96.738 111.492 96.719 111.482 96.71 111.455 96.738 111.427 96.765 111.391 96.784 111.354 96.802 111.262 96.82 111.179 96.83 111.088 96.839 111.005 96.848 110.931 96.857 110.876 96.876 110.858 96.802 110.849 96.802 110.849 96.802 110.858 96.94 110.885 96.949 110.913 96.959 110.858 96.977 110.858 96.94 110.747 96.922 110.628 96.903 110.619 96.922 110.609 96.922 110.591 96.931 110.573 96.931 110.536 96.922 110.481 96.903 110.343 96.903 110.206 96.922 110.068 96.94 109.948 96.968 109.819 97.088 109.691 97.198 109.618 97.235 109.553 97.263 109.525 97.272 109.489 97.272 109.452 97.272 109.416 97.253 109.388 97.281 109.378 97.272 109.388 97.253 109.406 97.217 109.416 97.189 109.416 97.161 109.406 97.152 109.397 97.152 109.378 97.152 109.342 97.17 109.351 97.134 109.36 97.106 109.369 97.088 109.378 97.078 109.388 97.06 109.397 97.051 109.397 97.032 109.388 96.995 109.323 97.014 109.259 97.005 109.204 96.986 109.149 96.968 109.084 96.949 109.02 96.94 108.956 96.94 108.873 96.959 108.873 96.885 108.846 96.885 108.818 96.885 108.781 96.903 108.745 96.912 108.773 96.885 108.635 96.885 108.515 96.876 108.441 96.866 108.405 96.866 108.368 96.839 108.322 96.82 108.267 96.802 108.194 96.793 108.047 96.784 107.872 96.784 107.688 96.784 107.495 96.784 107.403 96.784 107.311 96.765 107.229 96.756 107.146 96.738 106.595 96.949 106.787 96.802 106.696 96.802 106.613 96.802 106.558 96.784 106.521 96.756 106.503 96.738 106.512 96.71 106.531 96.673 106.558 96.655 106.475 96.645 106.393 96.655 106.292 96.682 106.172 96.701 106.255 96.581 106.19 96.581 106.135 96.581 106.08 96.59 106.034 96.599 105.988 96.618 105.961 96.636 105.924 96.655 105.905 96.682 105.896 96.701 105.887 96.728 105.887 96.747 105.905 96.765 105.924 96.784 105.952 96.793 105.988 96.802 106.043 96.802 105.933 96.848 105.851 96.876 105.777 96.894 105.713 96.912 105.658 96.922 105.602 96.912 105.566 96.912 105.529 96.903 105.464 96.876 105.409 96.839 105.373 96.83 105.336 96.82 105.3 96.811 105.244 96.811 105.226 97.078 105.208 97.345 105.198 97.613 105.189 97.87 105.208 97.861 105.226 97.861 105.235 97.861 105.244 97.87 105.262 97.898 105.281 97.953 105.3 98.091 105.309 98.257 105.217 98.285 105.235 98.442 105.244 98.561 105.244 98.663 105.244 98.736 105.235 98.791 105.217 98.838 105.198 98.874 105.18 98.911 105.162 98.939 105.143 98.976 105.125 99.022 105.106 99.077 105.097 99.151 105.097 99.243 105.106 99.372 105.115 99.519 105.244 99.676 105.272 99.814 105.29 99.934 105.3 100.026 105.3 100.099 105.281 100.219 105.253 100.311 105.235 100.357 105.226 100.413 105.217 100.468 105.217 100.542 105.226 100.624 105.235 100.735 105.262 100.864 105.3 101.021 105.3 100.956 105.309 100.91 105.317 100.873 105.327 100.846 105.345 100.836 105.355 100.827 105.373 100.836 105.391 100.855 105.409 100.882 105.428 100.919 105.447 100.956 105.455 101.011 105.464 101.067 105.464 101.131 105.474 101.205 105.464 101.288 105.373 101.177 105.391 101.334 105.409 101.453 105.419 101.555 105.419 101.665 105.391 101.619 105.373 101.592 105.364 101.592 105.355 101.592 105.345 101.601 105.336 101.61 105.317 101.656 105.309 101.73 105.3 101.822 105.3 101.942 105.189 101.702 105.355 102.375 105.327 102.586 105.317 102.807 105.309 103.047 105.317 103.268 105.317 103.489 105.309 103.673 105.3 103.756 105.29 103.83 105.272 103.894 105.253 103.941 105.244 104.115 105.235 104.53 105.244 104.769 105.262 104.99 105.272 105.092 105.29 105.184 105.309 105.258 105.327 105.313 105.309 105.285 105.3 105.267 105.281 105.267 105.272 105.276 105.244 105.331 105.226 105.405 105.198 105.479 105.17 105.543 105.162 105.562 105.143 105.562 105.125 105.552 105.115 105.534 105.143 105.663 105.18 105.838 105.208 106.041 105.226 106.252 105.235 106.473 105.226 106.685 105.226 106.777 105.217 106.869 105.198 106.952 105.18 107.026 105.17 106.952 105.153 107.192 105.153 107.413 105.143 107.634 105.153 107.846 105.153 108.058 105.162 108.26 105.18 108.463 105.189 108.656 105.208 109.053 105.217 109.246 105.217 109.264 105.162 109.264 105.143 109.356 105.125 109.449 105.106 109.541 105.07 109.624 105.033 109.697 104.978 109.771 104.95 109.799 104.913 109.826 104.868 109.845 104.821 109.863 104.812 110.001 104.812 110.112 104.821 110.158 104.84 110.195 104.849 110.222 104.868 110.25 104.895 110.268 104.913 110.287 104.941 110.296 104.968 110.305 105.033 110.296 105.106 110.287 105.18 110.25 105.262 110.213 105.345 110.167 105.428 110.112 105.584 109.992 105.731 109.882 106.145 110.222 106.145 110.222 106.19 110.287 106.255 110.333 106.328 110.37 106.429 110.397 106.475 110.397 106.512 110.388 106.567 110.36 106.613 110.333 106.659 110.305 106.714 110.278 106.769 110.259 106.825 110.259 106.963 110.287 107.192 110.36 107.431 110.434 107.596 110.499 107.624 110.443 107.66 110.397 107.706 110.351 107.743 110.305 107.844 110.231 107.945 110.167 107.973 110.204 108.009 110.231 108.047 110.25 108.092 110.278 108.184 110.305 108.294 110.324 108.414 110.342 108.524 110.342 108.635 110.342 108.726 110.342 108.735 110.231 108.735 110.112 108.735 109.974 108.726 109.845 108.708 109.706 108.69 109.559 108.662 109.43 108.625 109.292 108.662 109.255 108.699 109.209 108.699 109.209 108.699 109.209 108.699 109.209 108.699 109.191 108.699 109.172 108.717 108.979 108.726 108.785 108.745 108.61 108.754 108.445 108.773 108.279 108.773 108.122 108.773 107.984 108.763 107.855 108.735 107.726 108.699 107.625 108.68 107.569 108.652 107.523 108.616 107.477 108.579 107.431 108.579 107.256 108.588 107.109 108.598 106.989 108.625 106.879 108.671 106.704 108.699 106.529 108.717 106.648 108.708 106.308 108.699 106.013 108.699 105.764 108.69 105.534 108.69 105.322 108.69 105.101 108.69 104.871 108.69 104.613 108.671 104.484 108.643 104.373 108.607 104.272 108.57 104.171 108.533 104.051 108.505 103.913 108.496 103.83 108.496 103.738 108.496 103.627 108.505 103.508 108.533 103.572 108.543 103.59 108.561 103.572 108.561 103.535 108.57 103.388 108.57 103.204 108.57 103.259 108.579 103.296 108.588 103.323 108.598 103.332 108.607 103.305 108.625 103.268 108.643 103.194 108.662 103.084 108.635 103.001 108.607 102.9 108.616 102.89 108.625 102.89 108.607 102.669 108.588 102.586 108.579 102.623 108.57 102.743 108.552 102.743 108.543 102.752 108.533 102.771 108.515 102.807 108.543 102.632 108.561 102.439 108.57 102.236 108.57 102.034 108.57 101.859 108.579 101.711 108.588 101.647 108.607 101.601 108.625 101.573 108.643 101.555 108.635 101.324 108.625 101.094 108.616 100.882 108.607 100.671 108.588 100.468 108.57 100.265 108.561 100.072 108.543 99.878 108.524 99.694 108.984 99.676 109.002 99.685 109.011 99.703 109.011 99.713 109.011 99.722 108.974 99.75 108.928 99.768 108.855 99.786 108.763 99.805 108.662 99.814 108.552 99.823 109.296 99.814 109.287 99.823 109.278 99.842 109.25 99.851 109.222 99.86 109.14 99.869 109.048 99.878 108.837 99.878 108.635 99.878 108.799 99.906 108.965 99.924 109.14 99.934 109.305 99.934 109.654 99.915 110.004 99.888 110.371 99.842 110.738 99.805 110.931 99.796 111.124 99.786 111.317 99.777 111.52 99.777 111.501 99.796 111.482 99.823 111.473 99.851 111.464 99.888 111.473 99.943 111.482 100.017 111.52 100.109 111.565 100.228 111.611 100.394 111.684 100.569 111.767 100.763 111.878 100.956 111.978 101.159 112.098 101.361 112.208 101.555 112.3 101.739 112.272 101.656 112.263 101.592 112.254 101.564 112.263 101.546 112.282 101.555 112.31 101.573 112.337 101.601 112.364 101.638 112.419 101.804 112.457 101.951 112.475 102.015 112.493 102.08 112.521 102.144 112.557 102.209 112.475 102.264 112.493 102.264 112.521 102.283 112.548 102.319 112.576 102.356 112.631 102.448 112.695 102.568 112.824 102.789 112.907 102.909 112.898 102.936 112.888 102.946 112.879 102.946 112.86 102.927 112.824 102.881 112.778 102.807 112.723 102.715 112.677 102.642 112.631 102.577 112.594 102.54 112.723 102.835 112.806 103.029 112.86 103.157 112.907 103.25 112.943 103.342 112.998 103.471 113.081 103.664 113.209 103.95 113.301 104.079 113.347 104.134 113.366 104.134 113.375 104.125 113.375 104.106 113.375 104.088 113.384 104.033 113.384 103.987 113.403 103.977 113.412 103.977 113.439 103.987 113.467 104.014 113.632 104.346 113.797 104.668 113.88 104.834 113.954 105.009 114.027 105.202 114.092 105.396 114.119 105.193 114.229 105.414 114.331 105.617 114.423 105.81 114.505 105.994 114.505 106.004 114.505 106.022 114.514 106.197 114.533 106.372 114.551 106.556 114.579 106.731 114.615 106.916 114.652 107.1 114.708 107.275 114.762 107.45 114.817 107.625 114.891 107.791 114.964 107.966 115.047 108.122 115.139 108.288 115.231 108.435 115.332 108.583 115.442 108.73 115.543 108.859 115.607 108.96 115.663 109.053 115.69 109.135 115.727 109.329 115.782 109.596 115.819 109.725 115.856 109.817 115.874 109.854 115.892 109.882 115.92 109.909 115.948 109.937 116.012 109.964 116.086 109.983 116.196 109.992 116.324 110.001 116.425 110.01 116.545 110.001 116.682 109.992 116.829 109.974 116.986 109.955 117.151 109.928 117.317 109.891 117.473 109.854 117.638 109.808 117.785 109.762 117.932 109.697 118.06 109.633 118.171 109.568 118.263 109.495 118.3 109.458 118.327 109.412 118.354 109.366 118.373 109.329 118.281 109.301 118.198 109.264 118.125 109.228 118.033 109.218 118.033 109.209 118.005 109.135 118.051 108.96 118.107 108.795 118.125 108.712 118.143 108.629 118.143 108.537 118.134 108.435 118.125 108.371 118.107 108.316 118.088 108.27 118.06 108.214 117.996 108.131 117.932 108.049 117.858 107.975 117.785 107.901 117.721 107.827 117.657 107.735 117.629 107.689 117.611 107.634 117.592 107.579 117.574 107.514 117.555 107.395 117.537 107.275 117.519 107.155 117.509 107.035 117.482 106.925 117.445 106.824 117.381 106.741 117.308 106.658 117.225 106.584 117.17 106.51 117.133 106.326 117.087 106.133 117.041 105.921 116.986 105.7 116.931 105.46 116.867 105.221 116.802 104.963 116.729 104.687 116.784 104.733 116.618 104.272 116.471 103.867 116.324 103.48 116.177 103.13 116.021 102.807 115.865 102.494 115.69 102.19 115.507 101.896 115.525 101.85 115.534 101.794 115.525 101.721 115.507 101.638 115.433 101.463 115.351 101.269 115.249 101.067 115.157 100.873 115.084 100.698 115.047 100.56 115.066 100.578 114.983 100.45 114.91 100.311 114.845 100.173 114.781 100.026 114.67 99.74 114.579 99.436 114.533 99.317 114.496 99.197 114.45 99.077 114.414 98.957 114.496 98.911 114.579 98.865 114.762 98.755 114.919 98.672 114.974 98.635 115.029 98.617 115.066 98.607 115.093 98.617 115.222 98.534 115.351 98.442 115.479 98.34 115.598 98.239 115.709 98.128 115.828 98.009 115.939 97.889 116.039 97.76 116.141 97.631 116.242 97.502 116.343 97.364 116.425 97.226 116.6 96.94 116.756 96.645 116.885 96.36 117.004 96.074 117.096 95.789 117.17 95.512 117.206 95.384 117.225 95.264 117.243 95.135 117.261 95.024 117.261 94.905 117.27 94.803 117.261 94.702 117.252 94.61 117.27 94.674 117.27 94.49 117.27 94.324 117.28 94.186 117.289 94.048 117.298 93.91 117.308 93.762 117.308 93.596 117.298 93.385 117.326 93.339 117.335 93.32 117.298 93.081 117.261 92.804 117.225 92.51 117.197 92.196 117.151 91.902 117.105 91.616 117.078 91.497 117.05 91.377 117.014 91.275 116.976 91.183 117.041 91.128 116.958 90.852 116.848 90.575 116.729 90.299 116.609 90.041 116.765 90.446 116.719 90.428 116.682 90.391 116.646 90.345 116.618 90.281 116.554 90.115 116.49 89.903 116.444 89.792 116.397 89.673 116.343 89.553 116.278 89.424 116.205 89.304 116.122 89.175 116.021 89.056 115.911 88.936 115.819 88.816 115.709 88.706 115.598 88.595 115.479 88.503 115.351 88.42 115.222 88.346 115.084 88.273 114.946 88.199 114.661 88.07 114.386 87.941 114.248 87.877 114.119 87.803 114 87.729 113.88 87.646 113.779 87.628 113.77 87.609 113.797 87.6 113.853 87.591 113.88 87.582 113.899 87.582 113.908 87.563 113.908 87.554 113.89 87.536 113.853 87.517 113.788 87.499 113.706 87.462 113.706 87.444 113.724 87.434 113.733 87.425 113.752 87.416 113.797 87.416 113.844 87.425 113.88 87.425 113.899 87.425 113.908 87.416 113.908 87.398 113.899 87.379 113.88 87.361 113.688 87.287 113.503 87.213 113.329 87.14 113.154 87.066 112.971 87.002 112.778 86.946 112.668 86.919 112.557 86.9 112.438 86.891 112.31 86.873 112.3 86.781 112.135 86.781 111.961 86.781 111.804 86.762 111.648 86.753 111.335 86.707 111.05 86.67 110.766 86.633 110.509 86.605 110.38 86.605 110.26 86.605 110.141 86.624 110.031 86.651 109.874 86.661 109.746 86.661 109.636 86.651 109.544 86.633 109.397 86.596 109.278 86.559 109.222 86.541 109.158 86.523 109.094 86.513 109.011 86.504 108.919 86.504 108.799 86.504 108.671 86.523 108.505 86.55 108.147 86.43 108.028 86.43 107.936 86.44 107.862 86.467 107.808 86.486 107.743 86.513 107.67 86.532 107.568 86.532 107.431 86.523 107.431 86.504 107.412 86.495 107.394 86.486 107.357 86.476 107.284 86.458 107.192 86.449 107.118 86.44 107.072 86.421 107.072 86.421 107.072 86.403 107.091 86.394 107.137 86.384 106.944 86.366 106.76 86.357 106.567 86.357 106.384 86.357 106.227 86.366 106.172 86.329 106.108 86.292 106.062 86.274"/><polygon class="ac4817a2-f375-4f7f-8d34-90fb5b399c13" points="136.261 109.356 136.197 109.191 136.123 109.043 136.086 108.97 136.05 108.896 136.022 108.813 136.004 108.712 136.013 108.647 136.041 108.574 136.059 108.537 136.068 108.5 136.068 108.463 136.059 108.417 136.041 108.362 136.013 108.316 135.986 108.279 135.958 108.242 135.894 108.168 135.848 108.067 135.792 107.901 135.747 107.717 135.719 107.533 135.692 107.349 135.673 107.155 135.645 106.962 135.609 106.777 135.554 106.593 135.554 106.519 135.545 106.437 135.545 106.354 135.535 106.271 135.581 106.317 135.554 106.16 135.526 106.004 135.498 105.856 135.471 105.709 135.49 105.644 135.49 105.635 135.471 105.654 135.462 105.663 135.407 105.387 135.351 105.129 135.287 104.88 135.223 104.64 135.149 104.41 135.066 104.198 134.975 103.977 134.874 103.765 134.902 103.729 134.92 103.673 134.92 103.609 134.92 103.544 134.892 103.388 134.837 103.204 134.782 103.029 134.727 102.854 134.708 102.771 134.69 102.697 134.681 102.632 134.672 102.568 134.699 102.596 134.644 102.476 134.589 102.347 134.552 102.218 134.525 102.089 134.47 101.831 134.433 101.564 134.396 101.297 134.341 101.039 134.314 100.91 134.276 100.79 134.231 100.671 134.185 100.551 134.203 100.569 134.24 100.588 134.249 100.606 134.267 100.634 134.286 100.671 134.304 100.726 134.194 100.348 134.093 99.989 134.056 99.823 134.038 99.694 134.038 99.639 134.038 99.602 134.047 99.565 134.065 99.547 133.946 99.105 133.827 98.635 133.707 98.156 133.578 97.686 133.45 97.226 133.321 96.811 133.248 96.618 133.183 96.443 133.119 96.286 133.045 96.148 133.092 96.194 133.018 96.056 132.972 95.936 132.935 95.835 132.907 95.724 132.88 95.623 132.853 95.503 132.816 95.365 132.76 95.218 132.77 95.172 132.779 95.153 132.733 95.07 132.696 94.978 132.66 94.877 132.623 94.766 132.559 94.536 132.494 94.297 132.449 94.057 132.393 93.836 132.338 93.643 132.292 93.495 132.366 93.449 132.117 92.556 132.191 92.897 132.145 92.878 132.117 92.841 132.09 92.804 132.072 92.749 132.053 92.611 132.044 92.436 132.025 92.242 131.998 92.022 131.98 91.911 131.943 91.8 131.906 91.681 131.851 91.57 131.823 91.45 131.787 91.34 131.741 91.229 131.686 91.119 131.557 90.907 131.419 90.686 131.291 90.474 131.171 90.253 131.125 90.142 131.088 90.023 131.061 89.903 131.043 89.783 131.006 89.709 131.006 89.691 131.033 89.709 131.071 89.737 131.088 89.746 131.107 89.756 131.125 89.756 131.135 89.746 131.135 89.728 131.135 89.7 131.116 89.645 131.088 89.571 131.107 89.571 131.125 89.571 131.135 89.581 131.153 89.59 131.18 89.608 131.199 89.636 131.217 89.664 131.235 89.673 131.254 89.664 131.273 89.627 131.226 89.489 131.199 89.35 131.171 89.221 131.162 89.083 131.144 88.945 131.125 88.807 131.088 88.65 131.052 88.494 131.071 88.457 131.088 88.42 131.107 88.383 131.107 88.337 131.107 88.291 131.107 88.245 131.088 88.19 131.071 88.134 131.024 88.024 130.96 87.913 130.969 87.923 130.96 87.913 130.841 87.748 130.721 87.582 130.611 87.434 130.519 87.315 130.409 87.324 130.28 87.352 130.16 87.379 130.041 87.407 129.913 87.425 129.802 87.434 129.747 87.425 129.692 87.416 129.646 87.398 129.6 87.37 129.545 87.416 129.49 87.453 129.425 87.481 129.371 87.49 129.306 87.499 129.242 87.499 129.178 87.49 129.114 87.481 128.976 87.444 128.847 87.416 128.773 87.398 128.709 87.388 128.645 87.388 128.58 87.398 128.424 87.425 128.268 87.471 128.121 87.508 127.992 87.536 127.965 87.536 127.937 87.536 127.909 87.527 127.891 87.508 127.836 87.471 127.79 87.434 127.762 87.425 127.735 87.416 127.708 87.407 127.671 87.407 127.634 87.416 127.598 87.444 127.551 87.471 127.506 87.517 127.451 87.573 127.404 87.637 127.377 87.692 127.359 87.757 127.34 87.821 127.34 87.895 127.34 87.969 127.34 88.042 127.321 88.052 127.304 88.07 127.304 88.07 127.304 88.134 127.294 88.273 127.101 88.54 127.083 88.641 127.074 88.724 127.083 88.788 127.092 88.835 127.101 88.89 127.101 88.964 127.092 89.046 127.046 89.157 127.037 89.157 127.019 89.166 127.01 89.185 126.991 89.203 126.963 89.267 126.936 89.341 126.908 89.396 126.881 89.433 126.872 89.433 126.872 89.433 126.863 89.406 126.853 89.378 126.798 89.525 126.752 89.673 126.716 89.829 126.678 89.995 126.614 90.317 126.559 90.658 126.495 91.008 126.422 91.368 126.366 91.552 126.311 91.736 126.237 91.929 126.155 92.123 126.173 92.178 126.182 92.233 126.182 92.298 126.182 92.362 126.164 92.5 126.137 92.648 126.109 92.786 126.09 92.915 126.09 92.979 126.081 93.026 126.09 93.081 126.099 93.118 126.081 93.136 126.063 93.173 126.045 93.219 126.026 93.283 125.98 93.44 125.935 93.587 125.898 93.707 125.861 93.772 125.852 93.762 125.843 93.735 125.833 93.661 125.833 93.56 125.833 93.514 125.852 93.468 125.861 93.44 125.879 93.431 125.815 93.329 125.76 93.44 125.714 93.55 125.677 93.661 125.65 93.762 125.604 93.983 125.585 94.195 125.567 94.416 125.539 94.637 125.53 94.748 125.511 94.859 125.484 94.969 125.456 95.089 125.511 94.951 125.549 94.831 125.567 94.794 125.585 94.785 125.594 94.794 125.604 94.84 125.456 95.411 125.411 95.273 125.162 96.111 125.282 96.01 125.162 96.268 125.062 96.48 125.015 96.59 124.979 96.71 124.97 96.784 124.96 96.857 124.96 96.931 124.96 97.023 124.97 97.06 124.979 97.078 124.988 97.078 124.997 97.069 125.034 97.032 125.071 96.986 125.098 96.949 125.117 96.94 125.117 96.986 125.098 97.106 125.025 97.318 124.942 97.557 124.85 97.806 124.759 98.064 124.666 98.34 124.574 98.617 124.492 98.884 124.41 99.151 124.437 99.151 124.446 99.151 124.464 99.151 124.474 99.16 124.483 99.188 124.492 99.234 124.474 99.353 124.455 99.501 124.363 99.501 124.345 99.63 124.336 99.74 124.318 99.814 124.29 99.878 124.272 99.924 124.244 99.961 124.225 99.98 124.198 100.007 124.17 100.026 124.142 100.053 124.125 100.081 124.097 100.127 124.078 100.192 124.051 100.265 124.033 100.367 124.014 100.496 124.106 100.661 124.106 100.781 124.106 100.882 124.088 100.956 124.069 101.021 124.033 101.113 123.987 101.186 123.959 101.223 123.941 101.26 123.922 101.306 123.904 101.371 123.895 101.444 123.886 101.536 123.895 101.647 123.895 101.785 123.913 101.73 123.922 101.693 123.941 101.665 123.959 101.647 123.969 101.638 123.987 101.638 124.005 101.647 124.014 101.665 124.042 101.73 124.042 101.813 124.042 101.868 124.033 101.923 124.023 101.978 124.005 102.043 123.941 101.932 123.922 102.061 123.913 102.163 123.904 102.255 123.876 102.347 123.867 102.301 123.848 102.283 123.831 102.273 123.812 102.283 123.784 102.319 123.757 102.375 123.729 102.448 123.711 102.55 123.646 102.329 123.674 102.918 123.61 103.084 123.546 103.268 123.5 103.461 123.454 103.655 123.417 103.83 123.371 103.987 123.343 104.051 123.316 104.115 123.288 104.162 123.261 104.189 123.224 104.336 123.132 104.677 123.086 104.88 123.058 105.064 123.049 105.156 123.049 105.23 123.049 105.294 123.058 105.35 123.049 105.322 123.04 105.304 123.031 105.304 123.013 105.304 122.985 105.341 122.949 105.396 122.902 105.46 122.866 105.497 122.847 105.516 122.838 105.516 122.82 105.506 122.811 105.479 122.811 105.598 122.811 105.746 122.792 105.921 122.774 106.105 122.737 106.289 122.691 106.464 122.664 106.538 122.636 106.612 122.609 106.676 122.581 106.731 122.581 106.676 122.517 106.86 122.47 107.054 122.425 107.229 122.379 107.404 122.315 107.754 122.259 108.085 122.204 108.417 122.131 108.749 122.094 108.914 122.048 109.08 121.993 109.246 121.938 109.421 121.947 109.421 121.965 109.43 121.974 109.449 121.974 109.467 121.974 109.522 121.974 109.596 121.947 109.697 121.929 109.799 121.91 109.909 121.901 110.02 121.901 110.103 121.901 110.186 121.892 110.314 121.892 110.416 121.901 110.499 121.919 110.563 121.938 110.582 121.956 110.609 121.984 110.628 122.021 110.655 122.112 110.692 122.25 110.738 122.342 110.756 122.434 110.775 122.526 110.904 122.535 110.913 122.535 110.913 122.535 110.913 122.544 110.913 122.562 110.913 122.911 110.959 123.068 110.987 123.224 111.014 123.38 111.051 123.518 111.079 123.72 111.116 123.913 111.134 123.995 111.134 124.078 111.125 124.161 111.116 124.235 111.088 124.372 111.125 124.51 111.143 124.584 111.153 124.657 111.153 124.721 111.143 124.786 111.134 124.841 111.116 124.896 111.088 124.951 111.051 124.997 111.005 125.043 110.95 125.08 110.886 125.108 110.803 125.126 110.71 125.135 110.637 125.144 110.572 125.135 110.508 125.117 110.453 125.153 110.36 125.2 110.278 125.236 110.204 125.273 110.139 125.309 110.075 125.337 109.992 125.337 110.112 125.383 109.817 125.429 109.568 125.475 109.356 125.511 109.172 125.549 108.988 125.585 108.813 125.632 108.62 125.686 108.398 125.686 108.288 125.677 108.196 125.658 108.104 125.641 108.012 125.632 107.901 125.632 107.781 125.641 107.708 125.658 107.634 125.677 107.542 125.705 107.45 125.714 107.505 125.732 107.523 125.741 107.514 125.76 107.477 125.788 107.358 125.824 107.201 125.815 107.247 125.815 107.284 125.824 107.312 125.833 107.312 125.843 107.302 125.87 107.266 125.898 107.21 125.935 107.127 125.926 107.054 125.916 106.962 125.926 106.962 125.943 106.962 125.962 106.768 125.962 106.695 125.935 106.722 125.907 106.824 125.898 106.814 125.888 106.824 125.87 106.833 125.852 106.86 125.907 106.722 125.962 106.566 125.999 106.4 126.035 106.234 126.073 106.087 126.118 105.967 126.137 105.921 126.155 105.884 126.182 105.856 126.201 105.847 126.237 105.654 126.274 105.46 126.302 105.285 126.329 105.101 126.329 105.064 126.403 104.963 126.467 104.862 126.513 104.76 126.54 104.677 126.476 104.696 126.394 104.705 126.422 104.594 126.467 104.502 126.504 104.41 126.559 104.263 126.614 104.079 126.633 103.996 126.651 103.904 126.66 103.83 126.66 103.765 126.633 103.821 126.596 103.867 126.596 103.83 126.596 103.784 126.642 103.581 126.669 103.508 126.688 103.425 126.678 103.443 126.669 103.461 127.037 101.84 127.028 101.794 127.028 101.757 127.037 101.721 127.046 101.684 127.064 101.647 127.074 101.601 127.074 101.555 127.074 101.49 127.092 101.481 127.11 101.481 127.092 101.426 127.092 101.361 127.119 101.288 127.138 101.205 127.147 101.122 127.147 101.048 127.174 100.965 127.193 100.901 127.202 100.836 127.202 100.772 127.285 100.781 127.359 100.413 127.304 100.551 127.276 100.532 127.257 100.505 127.248 100.486 127.248 100.459 127.276 100.413 127.321 100.348 127.377 100.284 127.423 100.201 127.432 100.155 127.441 100.109 127.441 100.053 127.432 99.998 127.451 99.952 127.451 99.906 127.441 99.851 127.423 99.805 127.377 99.694 127.321 99.574 127.276 99.464 127.239 99.353 127.239 99.298 127.239 99.252 127.248 99.197 127.276 99.151 127.267 99.114 127.267 99.114 127.285 99.123 127.313 99.151 127.349 99.169 127.368 99.178 127.377 99.169 127.386 99.16 127.386 99.132 127.386 99.105 127.423 99.114 127.441 99.123 127.459 99.142 127.468 99.16 127.468 99.169 127.487 99.178 127.506 99.188 127.533 99.178 127.542 99.114 127.561 99.049 127.588 98.994 127.625 98.939 127.662 98.884 127.689 98.828 127.698 98.755 127.708 98.672 127.79 98.681 127.781 98.626 127.781 98.561 127.781 98.506 127.79 98.46 127.827 98.359 127.873 98.266 127.919 98.184 127.947 98.101 127.956 98.055 127.956 98.018 127.956 97.972 127.937 97.935 127.947 97.88 127.956 97.834 127.965 97.797 127.983 97.769 128.029 97.732 128.084 97.695 128.112 97.686 128.13 97.668 128.149 97.649 128.167 97.622 128.167 97.585 128.176 97.548 128.167 97.502 128.158 97.438 128.305 97.345 128.314 97.309 128.305 97.272 128.296 97.244 128.277 97.217 128.259 97.189 128.25 97.161 128.25 97.124 128.277 97.078 128.305 97.078 128.323 97.069 128.341 97.041 128.36 97.023 128.378 96.995 128.397 96.986 128.415 96.986 128.433 97.014 128.47 96.959 128.488 96.894 128.507 96.83 128.526 96.765 128.535 96.627 128.544 96.489 128.562 96.341 128.59 96.194 128.617 96.12 128.645 96.047 128.691 95.973 128.746 95.899 128.718 95.872 128.709 95.844 128.699 95.816 128.691 95.789 128.691 95.733 128.691 95.669 128.699 95.614 128.699 95.558 128.691 95.512 128.663 95.466 128.691 95.448 128.718 95.402 128.737 95.347 128.764 95.282 128.782 95.236 128.81 95.218 128.82 95.218 128.838 95.236 128.847 95.264 128.865 95.31 128.865 95.328 128.865 95.347 128.847 95.356 128.838 95.365 128.911 95.411 128.957 95.374 128.984 95.328 129.003 95.291 129.012 95.245 129.031 95.153 129.021 95.061 129.012 94.969 129.003 94.877 129.003 94.831 129.003 94.785 129.012 94.739 129.021 94.693 128.994 94.739 128.967 94.785 128.957 94.803 128.948 94.803 128.929 94.794 128.92 94.776 128.984 94.545 129.049 94.61 129.178 94.278 129.076 94.306 129.15 94.205 129.223 94.131 129.251 94.085 129.269 94.039 129.269 93.974 129.251 93.901 129.242 93.891 129.223 93.882 129.214 93.873 129.205 93.873 129.178 93.891 129.15 93.91 129.131 93.919 129.114 93.919 129.104 93.901 129.104 93.845 129.15 93.753 129.214 93.652 129.269 93.541 129.334 93.422 129.38 93.44 129.435 93.44 129.453 93.504 129.453 93.56 129.444 93.606 129.435 93.643 129.407 93.707 129.389 93.781 129.361 93.744 129.425 93.956 129.481 94.112 129.517 94.26 129.554 94.426 129.582 94.462 129.628 94.49 129.665 94.518 129.71 94.545 129.756 94.573 129.793 94.619 129.812 94.674 129.83 94.757 129.793 94.739 129.775 94.739 129.766 94.748 129.766 94.757 129.775 94.812 129.793 94.868 129.784 94.859 129.766 94.84 129.756 94.84 129.747 94.84 129.729 94.868 129.71 94.932 129.747 94.951 129.775 94.987 129.756 94.987 129.793 95.061 129.821 95.089 129.83 95.07 129.83 95.024 129.848 95.024 129.866 94.997 129.857 95.061 129.857 95.126 129.866 95.199 129.885 95.264 129.894 95.328 129.894 95.384 129.894 95.402 129.885 95.42 129.866 95.439 129.848 95.448 129.904 95.595 129.959 95.733 130.023 95.872 130.087 95.991 130.216 96.231 130.326 96.48 130.298 96.489 130.28 96.498 130.253 96.489 130.225 96.48 130.179 96.434 130.142 96.369 130.225 96.609 130.188 96.609 130.17 96.599 130.151 96.572 130.142 96.544 130.115 96.47 130.096 96.406 130.087 96.47 130.087 96.526 130.096 96.59 130.106 96.645 130.151 96.756 130.207 96.866 130.271 96.986 130.317 97.106 130.335 97.17 130.345 97.235 130.345 97.299 130.345 97.364 130.436 97.419 130.427 97.447 130.464 97.447 130.5 97.474 130.537 97.511 130.565 97.548 130.509 97.585 130.445 97.622 130.427 97.64 130.409 97.668 130.409 97.705 130.418 97.76 130.409 97.824 130.418 97.889 130.445 97.963 130.483 98.036 130.565 98.174 130.639 98.313 130.639 98.276 130.647 98.257 130.656 98.239 130.666 98.239 130.694 98.239 130.73 98.266 130.73 98.322 130.721 98.377 130.712 98.405 130.712 98.432 130.712 98.46 130.73 98.478 130.62 98.515 130.639 98.506 130.656 98.506 130.675 98.506 130.684 98.515 130.721 98.552 130.749 98.589 130.794 98.681 130.841 98.736 130.813 98.745 130.794 98.745 130.777 98.727 130.758 98.7 130.739 98.672 130.712 98.644 130.694 98.617 130.666 98.607 130.721 98.791 130.739 98.865 130.767 98.948 130.813 99.123 130.85 99.169 130.886 99.188 130.905 99.178 130.924 99.169 130.941 99.142 130.96 99.123 130.988 99.123 131.033 99.132 131.079 99.243 131.135 99.363 131.162 99.427 131.18 99.492 131.19 99.556 131.19 99.63 131.273 99.547 131.318 99.648 131.364 99.75 131.392 99.842 131.41 99.924 131.429 100.007 131.429 100.09 131.419 100.164 131.401 100.256 131.493 100.385 131.567 100.496 131.649 100.606 131.723 100.698 132.025 101.951 132.191 104.871 132.2 104.898 132.21 104.926 132.237 105.046 132.255 105.129 132.274 105.212 132.302 105.322 132.338 105.497 132.402 105.764 132.466 105.884 132.504 105.93 132.513 105.939 132.522 105.93 132.531 105.921 132.54 105.893 132.549 105.856 132.568 105.82 132.577 105.81 132.595 105.81 132.613 105.82 132.641 105.847 132.733 106.151 132.825 106.446 132.871 106.602 132.907 106.759 132.945 106.925 132.963 107.1 133.027 106.925 133.11 107.192 133.183 107.431 133.248 107.662 133.294 107.864 133.33 108.067 133.349 108.26 133.367 108.454 133.377 108.647 133.468 108.877 133.55 109.089 133.633 109.283 133.707 109.476 133.716 109.504 133.725 109.541 133.744 109.679 133.753 109.863 133.762 110.075 133.771 110.305 133.79 110.526 133.818 110.729 133.845 110.812 133.872 110.876 133.909 110.932 133.955 110.968 134.01 110.996 134.074 111.014 134.139 111.024 134.222 111.033 134.387 111.024 134.57 110.996 134.929 110.932 135.186 110.886 135.517 110.867 135.903 110.849 136.004 110.839 136.086 110.821 136.169 110.803 136.252 110.775 136.316 110.738 136.371 110.692 136.417 110.637 136.454 110.572 136.463 110.489 136.454 110.351 136.427 110.167 136.399 109.974 136.326 109.596 136.261 109.356"/><polygon class="f232c1e0-5d5f-4075-9ed5-114ac4183757" points="149.298 89.544 148.912 89.553 148.526 89.571 148.141 89.783 147.975 90.235 147.635 90.557 147.589 91.018 147.304 91.414 147.314 91.874 147.442 92.335 147.222 92.786 147.286 93.237 147.378 93.679 147.277 94.131 147.314 94.518 146.919 94.518 146.514 94.297 146.082 94.195 145.641 94.159 145.2 94.103 144.759 94.121 144.31 94.297 143.841 94.232 143.933 93.726 143.657 93.302 143.786 92.832 143.74 92.381 143.786 91.929 143.749 91.478 143.749 91.027 143.85 90.585 143.767 90.106 144.034 89.7 144.144 89.267 144.098 88.77 144.355 88.383 144.539 87.969 144.934 87.692 145.219 87.342 145.403 86.891 145.77 86.615 146.146 86.329 146.597 86.2 147.057 86.126 147.47 85.887 147.93 85.841 148.388 85.85 148.839 85.675 149.298 85.675 149.757 85.795 150.217 85.767 150.677 85.832 151.108 85.988 151.567 86.071 151.944 86.366 152.44 86.394 152.835 86.624 153.166 86.965 153.515 87.25 153.938 87.481 154.214 87.849 154.416 88.254 154.664 88.641 154.829 89.065 155.049 89.461 155.234 89.885 155.243 90.354 155.445 90.778 155.435 91.239 155.353 91.699 155.5 92.141 155.445 92.593 155.417 93.053 155.38 93.504 155.343 93.956 155.224 94.398 155.013 94.803 154.893 95.245 154.811 95.687 154.673 96.111 154.453 96.498 154.223 96.885 154.021 97.29 153.69 97.631 153.616 98.11 153.424 98.524 153.157 98.884 152.807 99.178 152.496 99.492 152.164 99.786 151.917 100.164 151.65 100.532 151.338 100.846 151.044 101.186 150.584 101.343 150.345 101.739 149.932 101.951 149.629 102.283 149.381 102.66 149.142 103.038 148.747 103.286 148.535 103.692 148.159 103.968 147.92 104.355 147.911 104.843 147.736 105.248 147.617 105.663 147.295 106.05 147.295 106.501 147.24 106.952 147.323 107.431 147.819 107.284 148.278 107.349 148.738 107.376 149.197 107.487 149.657 107.459 150.116 107.339 150.575 107.385 151.035 107.395 151.494 107.431 151.953 107.468 152.413 107.339 152.881 107.275 153.341 107.441 153.8 107.514 154.259 107.505 154.636 107.487 154.774 107.827 154.792 108.27 154.645 108.703 154.82 109.145 154.738 109.578 154.746 110.01 154.7 110.453 154.645 110.812 154.268 110.932 153.818 110.775 153.368 110.876 152.918 111.014 152.468 110.867 152.017 110.941 151.567 110.904 151.118 110.784 150.667 110.784 150.217 110.793 149.766 110.922 149.317 110.775 148.867 110.978 148.425 110.886 147.975 110.932 147.525 110.839 147.075 110.922 146.634 110.784 146.184 110.849 145.733 110.821 145.283 110.922 144.842 110.803 144.392 110.766 143.942 110.886 143.565 110.793 143.464 110.443 143.317 110.01 143.446 109.559 143.235 109.126 143.418 108.684 143.418 108.242 143.335 107.791 143.418 107.358 143.52 106.925 143.648 106.501 143.731 106.068 143.639 105.598 143.731 105.156 143.951 104.76 144.199 104.383 144.245 103.931 144.346 103.489 144.704 103.167 144.751 102.697 144.943 102.292 145.256 101.96 145.485 101.564 145.88 101.324 146.073 100.892 146.45 100.643 146.725 100.284 147.075 100.007 147.433 99.75 147.681 99.363 147.994 99.049 148.453 98.884 148.637 98.442 149.096 98.276 149.317 97.88 149.693 97.622 149.84 97.17 150.217 96.894 150.502 96.553 150.649 96.102 150.906 95.715 151.127 95.301 151.227 94.849 151.301 94.389 151.393 93.937 151.402 93.477 151.595 93.035 151.576 92.565 151.448 92.114 151.402 91.662 151.457 91.174 151.154 90.787 151.062 90.327 150.897 89.894 150.639 89.489 150.171 89.332 149.712 89.424 149.308 89.645 149.298 89.544"/></g></svg>