<svg xmlns="http://www.w3.org/2000/svg" viewBox="0 0 164 164"><defs><style>.aa3cd0cb-659b-4d5d-b94e-a5e7c059dc93{fill:#1a1919;}.fd9ffe4b-bf82-4d5b-8666-9b0c6bea9990{fill:#fff;}.a8958a4a-3f81-4987-88ba-4375bf6cae4d,.fd9ffe4b-bf82-4d5b-8666-9b0c6bea9990{fill-rule:evenodd;}.a8958a4a-3f81-4987-88ba-4375bf6cae4d{fill:#d6006f;}</style></defs><title>logotypy</title><g id="b20799f8-e04d-4e96-ad3b-69f066102ee5" data-name="Warstwa 2"><rect class="aa3cd0cb-659b-4d5d-b94e-a5e7c059dc93" width="164" height="164"/></g><g id="e42502dd-a713-43c7-8821-e31cdef63d64" data-name="Warstwa 1"><g id="f967ec4a-50c6-43e4-bb97-479045608d49" data-name="Warstwa_1"><g id="a9ba51ad-9958-4b2f-a553-0ff9e81bdc37" data-name=" 102603904"><path id="b71b771b-b9e0-4eea-b459-e15717d97caa" data-name=" 290057232" class="fd9ffe4b-bf82-4d5b-8666-9b0c6bea9990" d="M97.22219,112.88921a2.72321,2.72321,0,0,1-.177-.28378C97.03335,112.62,97.057,112.70525,97.22219,112.88921Z"/><path id="b59b0e3c-5695-4cd0-8560-e0083d3654b2" data-name=" 290057280" class="fd9ffe4b-bf82-4d5b-8666-9b0c6bea9990" d="M101.195,114.68984l-.00368-.02732C101.1844,114.67077,101.18322,114.67718,101.195,114.68984Z"/><path id="b7c39645-3a5e-49a3-afb6-2118ed6259a6" data-name=" 290057520" class="fd9ffe4b-bf82-4d5b-8666-9b0c6bea9990" d="M109.04268,88.81234a.82034.82034,0,0,0-.09379.01594c-.02112-.05343,0-.10183-.02112-.15591-.01307-.02035-.05781.04647-.08511.04519.00305-.41742-1.13133-.462-1.46928-.39515.00806-.077-.02863-.18516-.02237-.26279a8.78591,8.78591,0,0,0-.99092.97729l-.02049.00128a2.24118,2.24118,0,0,0-.16717-.82586c-.0981.20486-.23977.33658-.42618.29331a1.62453,1.62453,0,0,0-.16154,1.0849c-.169.19149-.2932.33274-.2472.27673v.00321l.00492.02483.01432.35373a11.36381,11.36381,0,0,0,.11679,1.16757l-.03669-.084a12.31138,12.31138,0,0,1,.09693,1.70205c-.01674.04134-.02668.09991-.03294.08846.14292.76986.02112,2.24349.08386,2.86642l-.09254.03949.02175,1.52964.01987-.56885c.24915.19781-.15466,1.15741.00625,2.26705-.03293,1.03843.5181,2.108.39513,3.18778.118.51348-.19017-.45243-.1013.31367-.12673.02732-.082-.35445-.18634-.15783.064.75336-.13048,1.23824-.04224,2.16915l-.10318.03813c.18642,1.21661-.13416,2.29637.04475,3.10254.0528,1.2255-.27271.8068-.24666,2.00554a4.2777,4.2777,0,0,1-.23171.3945c-.16217.42567.06524.39323-.2156.79919-.0478-.04262-.3945.40588-.29383.16857a3.43509,3.43509,0,0,1-3.40822.65409c-.374.11265-.95617-.273-1.1537-.34042-.03544.00128-.74927-1.15741-.22929-.55611.04725.04839.10568.13748.08143.14638l.12611.0121a6.60185,6.60185,0,0,1-.72439-2.24671c-.018.28635.04724.64961-.05468.41422a8.06765,8.06765,0,0,1-.04162-.88957l.08886.18451c0-.42816.02113-.92954.03849-1.40553l-.105.19661a5.05317,5.05317,0,0,0,.08261-1.74852c-.08261-.3639-.141.66684-.17273-.07635.07088-.94484.17648-2.35678.20817-3.5625-.11617.11265-.11249-.21127-.13486-.54208l.09942-.04142c-.141-1.2795.22178-.47078.11-1.73635l-.14042-.22594c-.2-1.14338.21122-.61211-.06336-1.88528.01674.50267-.22428.23667-.17828-.38177l.09872.1584a4.34132,4.34132,0,0,1-.04349-.68774c.05468.20614.14292.11.12618-.39643l.123.33914-.18078-.95317c.10435-.73365-.02488-1.89866.11186-2.20088a9.14116,9.14116,0,0,0-.08573-1.94577c.09567.3188.1304-.55226.241-.30285a6.236,6.236,0,0,1-.12117-1.02376l-.00931-.24628c.00688-.12026.00688-.23732.00313-.35437.333.30918.23609.2176,0,0a2.58734,2.58734,0,0,0-.1994-.9551c-.03168.03116-.179.11393-.20942.15206a1.49931,1.49931,0,0,0-.07267-.15206c.00375-.00313-.15841-.01458-.14723-.00313a.49383.49383,0,0,1-.10748.27673c-.18884-.17434-.31189-.28947-.25346-.23346h-.00062a2.17168,2.17168,0,0,1-.4653,0l.08753-.02228c-.118.005-.23234.00954-.34537.01651a.6755.6755,0,0,0-.325-.05216c-.0435-.10247-.12673-.13428-.16709-.19725-.09567.1241-.28765.196-.38395.30862a.15187.15187,0,0,1-.06086-.14254,1.81835,1.81835,0,0,0-.69708.31239c-.01549-.06105-.05156-.16729-.05961-.21568a.52324.52324,0,0,0-.164.20046c-.03661-.0242-.02175-.105-.09818-.086a.88957.88957,0,0,0-.30564.87618c-.543.62036.174-.19533-.13048.15015v.00961l.00188.01082v.033l.005.14134.01423.278a15.83081,15.83081,0,0,1,0,2.26576c.11867-.07314.05343.77564.20442.56637.14784,1.66319-.30564,3.03122.1584,3.63187a6.15627,6.15627,0,0,1-.13228,1.28848l-.02487-.18011c.03848,1.4157.04412,1.82808.03043,2.87981a5.165,5.165,0,0,1,.21247,1.55063c-.08824-.30414-.07142.07955-.07142.43264-.01432-.22522-.0435-.29644-.10193.168a1.1976,1.1976,0,0,1,.05655.25958c-.00743.00513-.01306.02228-.02362.01274.03168.58856.05781.4836.0715.21376.01244.0121.02793-.00953.05405-.09542-.11436.61212.00618,1.70206-.141,1.77584a37.8469,37.8469,0,0,0,.34538,4.545c-.05586.17882-.169-.16416-.22608-.60643.03043.3583.07885.72092.14534,1.07985-.10873.007-.15653-.61659-.19134-.94877a8.848,8.848,0,0,0,1.20275,4.11236l.26715.22714.04287.08524a2.04376,2.04376,0,0,1,.48642.364c.09324.23154-.18266.1692.46287.68013a4.45725,4.45725,0,0,0,2.403.85327c-.40811-.10247-.26214-.12658-.08073-.12658a3.571,3.571,0,0,0,.8573.18194l.01744.10688c.06149-.08076.98841-.05151,1.11084-.10944.21.10439-.56973.07323-.66541.13684a10.335,10.335,0,0,0,2.22972-.11328c.77594-.25959-.16216-.09543.19072-.28635a8.93452,8.93452,0,0,0,2.03713-.8036l-.279.03245a6.41554,6.41554,0,0,0,1.988-2.18373,10.3758,10.3758,0,0,0,.36407-2.06155,14.96444,14.96444,0,0,0,.1926-2.51581v-.56948a41.42542,41.42542,0,0,0,.61628-4.16636l.03669.08652a21.53983,21.53983,0,0,0-.07706-4.38019c.23234-.20935.02238-1.55375.09818-1.99729l.018.04647c-.17828-1.15676.1516-2.37585-.00994-3.48871a.46512.46512,0,0,1,.087.32577,6.43621,6.43621,0,0,1,.05406-1.97951c-.00814-.46958-.01119-.98554-.01494-1.51049a3.33,3.33,0,0,0,.0273-.46957c.25846.23987.18891.17369,0,0a2.189,2.189,0,0,0-.15341-.84438Zm-13.6354.75593v0Z"/><path id="ae98280e-f4ad-4bdb-8179-43e25801ef66" data-name=" 290056488" class="fd9ffe4b-bf82-4d5b-8666-9b0c6bea9990" d="M139.68668,101.69063c.0478-.119.03043-.07379,0,0Z"/><path id="b1b4588e-a5c5-4fe3-bba1-4c5f176a193b" data-name=" 290056392" class="fd9ffe4b-bf82-4d5b-8666-9b0c6bea9990" d="M139.66538,101.71672h0l.01056-.0133.01057-.01274c.01236-.02483.0223-.056.03786-.091l-.018.01146a1.13209,1.13209,0,0,0-.041.10559Z"/><path id="a694f1d4-db89-4670-a3ab-ba727a0365cb" data-name=" 290057088" class="fd9ffe4b-bf82-4d5b-8666-9b0c6bea9990" d="M136.1974,101.891a.18631.18631,0,0,0,.02363.0153h0A.16806.16806,0,0,1,136.1974,101.891Z"/><path id="f4448184-6bb1-45a0-82a8-47caf2363aaa" data-name=" 290056728" class="fd9ffe4b-bf82-4d5b-8666-9b0c6bea9990" d="M144.4876,93.36171l.00869.07507A.37783.37783,0,0,0,144.4876,93.36171Z"/><path id="a6c18179-5b46-47f7-acbc-ec2e25686b85" data-name=" 290056848" class="fd9ffe4b-bf82-4d5b-8666-9b0c6bea9990" d="M126.87241,105.00885l.02738-.01722C126.888,104.99163,126.88117,104.99419,126.87241,105.00885Z"/><path id="a4f48013-6efb-459b-9859-48aa3f2ff299" data-name=" 290057016" class="a8958a4a-3f81-4987-88ba-4375bf6cae4d" d="M117.75326,101.54749l-.071-.0891Z"/><path id="fb886ada-e1e0-47de-a219-ab327fe0d75b" data-name=" 290056776" class="a8958a4a-3f81-4987-88ba-4375bf6cae4d" d="M117.90312,87.52958v-.00064C117.88951,87.548,117.89068,87.54544,117.90312,87.52958Z"/><path id="fa8dbba0-bff3-4c21-9d2d-2d7a8b4a75f7" data-name=" 290056872" class="a8958a4a-3f81-4987-88ba-4375bf6cae4d" d="M132.08266,112.53863h.00626l-.03419-.08589c.03911-.29716.1969-.48039.146-.79983-.05648-.37736-.37276-.50651-.5343-.78837-.17265-.30029-.1-.74447-.23664-1.03779-.06095-.12282-.24666-.2551-.30133-.35-.11249-.54529-.27645-1.22606-.49268-2.07108l.06211.04775a13.70023,13.70023,0,0,0-1.414-3.20749c.15286-.24629-.45231-1.15932-.51747-1.51626l.02918.02348a5.15665,5.15665,0,0,1-.5486-1.29481c-.05961-.18708-.11868-.36775-.18142-.54657.06337-.035.13048-.07443.18955-.10624.29319-.16985.50442-.32512.56966-.27994a5.8468,5.8468,0,0,0,2.39307-4.54307l.02362.08019c-.02668-.62677.06032-.78773.03294-1.46538.01862-.03757.03169-.084.03795-.07443a14.0795,14.0795,0,0,0-.40443-2.42745l.0801-.06041a7.45074,7.45074,0,0,0-.48893-1.237l.18267.46453c-.2889-.04711-.23233-1.01238-.95556-1.70782-.51747-.79278-1.57488-.943-2.252-1.46538-.42869-.08717.42368-.01274-.19635-.20487.03106-.13364.315.05088.20254-.12346a6.05153,6.05153,0,0,0-1.74323-.54594l-.01494-.1088a16.97211,16.97211,0,0,0-2.51612-.14758c-.99584.07636-.66407-.31174-1.68791-.11072l-.39763-.14125c-.44106-.02228-.31557.175-.80145.10623.02988-.09221-.61316-.07122-.32926-.15583a5.34759,5.34759,0,0,0-.83556-.02932l-.16772.00512a.834.834,0,0,0-.13111-.07378c.15779-.16481.123-.13044-.00062,0a1.19152,1.19152,0,0,0-.61378-.11265c.09568.462-.32182.27424-.39207.551a.5469.5469,0,0,0,.10936.47791.56951.56951,0,0,1-.05531.05408h0v.00568l.00563.01274v.02861l.02606.45563a9.046,9.046,0,0,1-.05469,2.01636.52315.52315,0,0,1,.05844.16793,3.67774,3.67774,0,0,1,.44113.0306c-.22929.08461.29444.06866.27082.15335.39512.07187.2914-.12346.65046-.10247l.3237.14317c.83187-.20486.56778.18836,1.368.10119a2.20775,2.20775,0,0,1,.91949-.01466.31229.31229,0,0,1,.01182-.1209c.33856.00569.61378.266.73988-.12979.19384-.02676.22866.11136.32745.13676l-.046.0274a2.756,2.756,0,0,1,.72689-.01466c.131-.042.16709-.2704.39693-.19853-.082.08212.01683.07258.10194.08019-.05594.00761-.07456.03878.03544.1056a.16724.16724,0,0,1,.0658-.05216l.00312.02035c.14535-.02035.12244-.04767.05845-.06617.00368-.01146,0-.02925-.02238-.05344.1466.11649.40257.03822.40257.18644a8.56858,8.56858,0,0,1,1.07164.014c.00313.08973-.08691.11257-.19071.11769a.92374.92374,0,0,1,.21747.06169c-.04788.10632-.13236-.005-.21309,0,.16834.259.56222.072.72689.41045l.108-.021.00313.0254c.02981-.03437.12735-.03052.17335-.00953-.02919.1088-.15161.168-.02488.2704.02488.154.2659.24116.41688.34107-.04162-.08076.01682-.09286.06962-.08076.05218.068-.00313.166.06579.19725l-.1006.07884c.082-.09415.22428.10944.29015.10944-.05406.08974-.14105-.06682-.21434-.0439a2.68727,2.68727,0,0,1,.251.42567c.169.1209.09505-.082.23546-.05088a.76061.76061,0,0,1,.21872.47847l.08574-.0967a.79527.79527,0,0,1,.14347.72852c.10811.23732.20754.4308.3007.59048.01486.18644.02112.38113.02112.5771,0,.05344-.00062.10119-.00062.15271a5.14216,5.14216,0,0,0-.712.985l-.02926-.02676a1.60386,1.60386,0,0,0-.20745.97929c-.22929-.0592-.1628.2958-.29015.32833l-.01057-.02043c.01745.329-.39575.29147-.44981.54465-.00619-.01714-.044-.0725-.00932-.10816-.08817.133-.25157.30542-.33669.18964-.29945.24941-.87912.38241-1.11333.66042l.01057-.0439c-.1236.19477-.20495.06874-.37455.18331-.01495-.01594-.028-.02291-.028-.03052-.15161.19212-.53556.103-.67777.18892l-.01925-.09222-.01494.00064.01369.16289a.32583.32583,0,0,1,.06149.02227l-.06024.0165-.00125-.03877a.95305.95305,0,0,0-.2479-.04014c-.03044.04646-.08887.02611-.16342-.007a2.78435,2.78435,0,0,0-.59946.08019c-.187.15015-.37839.4167-.58155.32449-.13416.119.11492-.19341-.08261-.09991-.00743-.13556.09255-.0846.041-.19148-.19447.06425-.32057-.13749-.56222-.04647l-.00625-.08084c-.01862,0-.03724-.00257-.05586-.00257a.41388.41388,0,0,1-.08019.03125l.03294-.03125c-.22741-.00184-.41124-.021-.41124-.021-.19009-.18451-.93256-.00825-1.40223-.1495l-.60571.24685.21434-.16986c-.3212.02612-.38331-.0999-.25346-.17049-.146-.02868-.21621.02924-.43674.05849l.09881-.13613c-.39271-.06233-.56294.2704-.24235.24429-.64983.30292-.56535,0-.88093.01017-.02918.40853-.05218.82146-.06524,1.20836.11743-.08973.11249.17241.13729.43841l-.1031.03116c.1423,1.027-.223.37793-.11061,1.39407l.14167.18c.2.92009-.21.49505.06337,1.51689-.01612-.40276.22491-.18764.18079.30926l-.09819-.12722a2.89356,2.89356,0,0,1,.04162.55033c-.05343-.16416-.14409-.084-.12422.32136l-.12485-.27489.18079.76674c-.10561.58919.02668,1.52386-.11124,1.76887a5.90232,5.90232,0,0,0,.08511,1.55952c-.09756-.2571-.13048.44346-.23977.24621a4.38788,4.38788,0,0,1,.07706,1.68932l-.01-.07507a12.91981,12.91981,0,0,0,.01433,1.935l.02793.44154.00813.22466v.01209l-.06774.00826c-.04224.25894-.08574.5847-.3715.67829-.12423.92128.62683.33658,1.0064.01586.45849.42383.94061.86857.42932.39515l.02918-.00377h0a.46966.46966,0,0,0,.31878.19846c.11984.02291.26957-.166.4398-.1616a7.98715,7.98715,0,0,1,.84869.266,1.104,1.104,0,0,1,.39388-.37223c.14534.21247.60258.20935.866.201a3.4043,3.4043,0,0,0-.11242-1.18537c.02856-.02988.05281-.06169.08511-.09349v-.04775c.01244-.29973.04162-.5771.06148-.82843a1.467,1.467,0,0,0-.19752-1.139,3.85576,3.85576,0,0,1,.13291-1.03266l.023.14317c-.04037-1.139-.04037-1.46859-.03294-2.31288-.0435-.42631-.25964-.48992-.20683-1.24778.08573.24693.07017-.06233.07017-.34675.0137.18131.04412.23795.10248-.13556a.82944.82944,0,0,1-.05836-.20615c.00807-.00312.01307-.01906.02175-.01209-.02863-.47142-.05719-.38938-.069-.16857-.01181-.01338-.02793.0044-.05155.07314.10936-.48736-.00869-1.36547.14042-1.42524-.01987-.71138-.06462-1.31964-.11492-1.89738l-.01745-.203.51005-.02484c.12618.0758-.1441.14638-.4833.168l.82624-.01586c-.00869.1132-.47586.061-.73181.07635a20.02833,20.02833,0,0,0,3.20193-.11777c-.05156.08084-.1236.10247.05038.51668a9.12984,9.12984,0,0,0,.81692,1.70966c-.1056-.30221-.01924-.22841.06462-.11448a4.6589,4.6589,0,0,0,.21309.64768l-.08136.06241c.1006-.00192.392.66684.47085.73614-.02174.19093-.246-.38177-.33856-.418.45536,1.0651.22678.53191.67964,1.59637.32684.53319.07393-.15207.2889.07635a8.99633,8.99633,0,0,1,.684,1.55768l.02918-.22851c.18079.34428.3212.63823.43862.90543v.03373a5.21964,5.21964,0,0,0,1.03754,3.06816c.346.44034.2522.47535.3783.98819.10624.42631.16655.43328.59954.46.54917.035,2.09862-.23026,2.27323-.7673-.14793-.03052-.22929-.11769-.38026-.12915Zm-7.43273-11.12919c-.00806-.00128-.01307-.00705-.02112-.01018l.02112.01018Zm2.80627-.2011-.01245.02924-.00994.00953-.00751.00962h-.0018c.01236-.028.02355-.056.03473-.08212l.01432-.0121c-.00438.01787-.01369.03117-.01737.04583.013-.03373.01549-.04134,0,0Zm.3485-.887-.00626-.0121c.00626-.01394.01245-.03365.023-.05784v.00128l.00313.00184.00251.00385h0C127.82082,100.27936,127.8115,100.29971,127.8047,100.32134Z"/><path id="b13f3102-d8e2-4ff3-8ec3-56ef0d2a16b4" data-name=" 290056344" class="a8958a4a-3f81-4987-88ba-4375bf6cae4d" d="M127.45605,101.2083h0c-.00438.01017-.00813.01714-.01244.02924A.19969.19969,0,0,0,127.45605,101.2083Z"/><path id="a46cae9a-3977-423f-b9f1-f2d0c13ed177" data-name=" 290056968" class="fd9ffe4b-bf82-4d5b-8666-9b0c6bea9990" d="M148.44852,96.59972l.02112.0439C148.4572,96.61246,148.4529,96.59972,148.44852,96.59972Z"/><path id="f0027b28-a588-4175-89ce-a9195979c241" data-name=" 103161128" class="fd9ffe4b-bf82-4d5b-8666-9b0c6bea9990" d="M145.83867,99.19893c-.023.00577-.03607.03117-.02856.09166Z"/><path id="e4fb72a3-ad21-4662-b530-3c0855e781cb" data-name=" 102672192" class="fd9ffe4b-bf82-4d5b-8666-9b0c6bea9990" d="M142.16325,103.79224l-.00631-.02164Z"/><path id="bb8c9a1f-f5cb-4962-8636-1e77daae4848" data-name=" 102441112" class="fd9ffe4b-bf82-4d5b-8666-9b0c6bea9990" d="M152.31245,112.69574c-.08512-.278-.24165-.40716-.28515-.72468-.01361-.10375.09693-.20679.06274-.33281-.05469-.18-.17265-.22971-.23789-.39579-.19385-.50323-.14848-1.12936-.32-1.669-.00931-.12026-.01495-.23988-.02738-.36967l.05156.049c-.03911-.24437-.08073-.4747-.1211-.68654a1.93267,1.93267,0,0,0,.1118-.48993l-.12047.44025a8.08161,8.08161,0,0,0-.653-2.15633c.19573-.19661-.22365-1.03714-.2224-1.35081l.02606.02356c-.36282-.72028-.236-1.61553-.574-2.31545a.25741.25741,0,0,1,.13729.19533c-.15779-.5307-.38824-1.25474-.26465-1.32853a26.05,26.05,0,0,0-1.12882-3.85333l.0485.0439c-.25658-.43272-.16655-.60129-.36782-1.10588.01245-.03117.01245-.07315.0205-.06938a16.52123,16.52123,0,0,1-.54673-1.884l.08573-.049-.26894-1.01367.07456.38625c-.27466-.07-.03607-.80936-.37088-1.50672-.13674-.70056-.84432-1.27445-.89712-2.02277-.197-.31238.25721.2539.04593-.23282.11993-.049.13792.2176.205.06041-.16343-.44026-.08942-.78517-.24728-1.28592a.38265.38265,0,0,0,.06837-.17874.91315.91315,0,0,0-.17085-.481c.01674.01587.023.01971,0,0-.15591-.25454-.37956-.51733-.48212-.68085-.33481.00449-.761.252-1.02446.06682-.323.33594-.74239-.02548-1.13439.026-.22928.028-.46412.14005-.6492.16416-.17523.02356-.23859-.32576-.54611-.02988a.68725.68725,0,0,0-.18016.59681c-.01182.01081-.02425.02355-.03419.03188v.00313l-.00807.0681-.00563.159-.21427.30229c-.10685.36967.10248.30918-.06094.705-.077-.04832-.18821.50523-.21121.24436-.35289.89717-.26152,1.94065-.77406,3.11207.1.30918-.14293.90286-.06649,1.13448-.07957.0133-.30439,1.235-.29507.50075.00187-.06177.02856-.16609.05468-.15271l-.07893-.10816a8.63254,8.63254,0,0,0-.3895,1.98327c.0776-.19662.13792-.47086.15779-.27233l-.1653.642-.04843-.15527-.27645.948.13229-.1056c-.16092.45555-.37151.57838-.35226,1.14466.02049.25959.24109-.40788.1516.08974-.21622.614-.543,1.53155-.76037,2.32306.13228-.04583.077.16544.04592.39578H139.107c-.064.88628-.2914.25831-.38143,1.13065l.10185.18194c.0162.81065-.29945.36206-.23421,1.27262.06211-.33787.25345-.10247.11312.29964l-.0715-.12915a2.08342,2.08342,0,0,1-.06587.46638c-.01862-.14822-.1236-.10432-.18321.2329l-.06712-.25518.02551.67958c-.21622.46388-.274,1.26941-.45608,1.43669a4.24821,4.24821,0,0,0-.223,1.31587c-.04161-.23355-.21246.33659-.28389.14317a3.0924,3.0924,0,0,1-.24978,1.42083V109.66c-.39388,1.16381-.32676,2.0762-.715,3.114.0546-.00825.0478.08653.03723.19469a2.756,2.756,0,0,0-.0758.48231c-.00251.0649-.00494.1298-.00869.18965-.00313.43833-.05844.48039.39387.62605a.81294.81294,0,0,0,.20442.03886c.09067.12979.14346.20487.11116.16032h.0025l.00626.00064.02355.00064.38331.05023c.24541.0395.47282.09486.68028.13556a1.46747,1.46747,0,0,0,.78721.01338c.41562.10624.889.15519.99646-.425a.60307.60307,0,0,0-.00932-.30037,1.26456,1.26456,0,0,1,.08386-.196,1.80707,1.80707,0,0,0,.15842-.31943l-.00369.126c.169-.95694.22366-1.23055.38762-1.93239.03357-.3627-.16521-.467.02363-1.08425.03911.22337.07768-.03814.12923-.27425-.01683.15527.0025.20871.12547-.08653a.66431.66431,0,0,1-.01861-.18763c.00868-.00129.01486-.0121.02362-.00577.0546-.39643.01549-.33466-.03732-.15527-.00994-.0121-.03044,0-.06462.05031.19823-.38305.24047-1.13769.39576-1.15107.05406-.30157.10068-.579.13792-.84558l.00438-.03949a1.39564,1.39564,0,0,0,.23171-.43778.42684.42684,0,0,1-.16092.02484l.02668-.12723a.91265.91265,0,0,0,.0963-.20366,2.28917,2.28917,0,0,0,.16405-.73678c-.01495.06169-.03419.06618-.06086.12026a.38472.38472,0,0,1,0-.09294l.04968-.23026a1.28514,1.28514,0,0,0,.05218-.18267c-.00994.01017-.01182.0274-.02049.04014l.39888-1.83377c-.028-.14573.06587-.19348.04655-.3913.01933-.00769.02926-.02163.03857-.01787a.45.45,0,0,1-.01924-.13363,1.0043,1.0043,0,0,0,.06517-.35565.9334.9334,0,0,0,.05969-.30734l.09067.0121.08019-.42311-.05719.15014c-.22858-.11265.22616-.27425.14355-.61468.0981-.273-.36594-.6992-.17585-.96134-.08136-.17186.15285.16856.11742-.06113.1261.02291.05657.117.169.0878-.01119-.22017.20942-.30413.18454-.579l.10069.01594c-.09881-.37608.28013-.58855.16208-.85327,0-.3595.34733-.15463.24172-.55739l.16459-.105c.05782-.14446-.13729-.147-.03294-.29844.08261.03116.11805-.196.17523-.077.22366-.34739,0-.81954.34357-1.263-.14042-.15143.01987-.37673-.08574-.49185.07519.00568.13354-.502.223-.18011.00494.02868-.00876.07-.03481.0592l.08824.05913c.25157-.24172.02543-.54529.11984-.81946-.05093.07443-.06892.19213-.11492.098l.0733-.25838.06775.07571.14105-.37921-.11249.02676c.10005-.17882.28521-.203.19384-.45371-.05531-.1177-.17953.14766-.16279-.06361.07518-.13364.16592-.30478.25416-.483a.54948.54948,0,0,0,.113.02612c.07519.19981-.04724.26848-.04537.38177l-.03661-.04135a4.49881,4.49881,0,0,1,.21615.77179c.07831.13236.29265.10311.30571.37031-.10507-.063-.06587.03822-.04224.13428-.02676-.05792-.06283-.07066-.08887.06867a.2084.2084,0,0,1,.07143.06048l-.02112.00569c.06649.154.087.12026.08323.04142.01057.00185.02675-.00769.046-.03757-.07018.19469.11617.46068-.023.51733.14785.47206.37463.77748.52936,1.16309-.06649.063-.15473-.014-.21129-.12347l.09567.27617c-.10685.02548-.1006-.14886-.14284-.22841-.09011.37984.33732.65152.27458,1.08609l.10131.06177-.00626.0286c.04287-.01082.1236.06177.15285.11521-.08081.07948-.21434.05088-.16279.24493-.05156.17433.14972.42888.24728.61787-.01057-.11264.049-.08909.09317-.05031.02613.09478-.05093.17626.00563.24244l-.12305.04006c.10686-.068.18759.22466.24665.24877-.08019.07764-.11742-.13227-.19259-.14.10623.39066.05281.196.15779.58414.1423.18644.10873-.06553.24109.00569a1.131,1.131,0,0,1,.17391.57013l.09324-.0967a1.07359,1.07359,0,0,1,.14966.801c.1286.20045.2454.36654.35108.50971l.33668,1.41378.18455,3.30612c.00806.02227.01236.04583.018.06746.02362.10687.03723.16416.0503.22778.02981.11769.05719.2386.17335.72027.20934.49249.09631-.12154.26152.10247a6.73176,6.73176,0,0,1,.35038,1.41058l.07456-.19276a6.22054,6.22054,0,0,1,.39146,1.9521c.13041.34932.25345.65794.36462.9366.005.02291.01119.05031.01557.072.07831.32512-.01987,1.45327.25721,1.62441.28764.17562,1.09339-.06113,1.36922-.09926.40263-.05793,1.25743.07122,1.40591-.34933a6.02247,6.02247,0,0,0-.21372-1.38838Z"/><path id="f6911d56-9991-4cc1-9f25-d18c82adae78" data-name=" 102441880" class="fd9ffe4b-bf82-4d5b-8666-9b0c6bea9990" d="M142.37541,88.56678c-.21865.18956-.15341.13484,0,0Z"/><path id="b8ffbc22-ccb4-4a5c-bc15-b967ca746b25" data-name=" 102604504" class="fd9ffe4b-bf82-4d5b-8666-9b0c6bea9990" d="M81.5448,90.592l-.01244-.08461A.255.255,0,0,0,81.5448,90.592Z"/><path id="aa312485-9faa-4afc-86bb-48213074260f" data-name=" 102604096" class="fd9ffe4b-bf82-4d5b-8666-9b0c6bea9990" d="M81.55348,90.51693l-.03356.00761A.03216.03216,0,0,0,81.55348,90.51693Z"/><path id="fd2911fa-e5a2-4543-93a7-3eb6d4162a7c" data-name=" 102604120" class="fd9ffe4b-bf82-4d5b-8666-9b0c6bea9990" d="M81.5448,90.592l-.01244-.08461A.255.255,0,0,0,81.5448,90.592Z"/><path id="b05ce15b-4c59-49ff-a47c-567ab7d92a74" data-name=" 104067088" class="fd9ffe4b-bf82-4d5b-8666-9b0c6bea9990" d="M81.55348,90.51693l-.03356.00761A.03216.03216,0,0,0,81.55348,90.51693Z"/><path id="fd95ba23-12f5-4016-b9eb-c01779cae7d9" data-name=" 104068744" class="fd9ffe4b-bf82-4d5b-8666-9b0c6bea9990" d="M24.63545,112.57481c.02926.06242.05719.1209.09012.182a1.3135,1.3135,0,0,0-.03911-.19028A.16372.16372,0,0,0,24.63545,112.57481Z"/><path id="a36720e1-6a9a-4c8b-92aa-dc4a4772917e" data-name=" 104861344" class="fd9ffe4b-bf82-4d5b-8666-9b0c6bea9990" d="M25.01128,111.51541c-.27834-.25895-.71321-.30542-.96291-.63431-.24727-.33281-.47093-.763-.694-1.12367a7.70381,7.70381,0,0,0-.90392-1.27261c-.07518-.1209-.1491-.252-.22678-.383l.08136.0439a21.65706,21.65706,0,0,0-2.71115-3.4569c.06024-.31046-.922-1.2541-1.12945-1.6543l.04162.01971a8.03427,8.03427,0,0,1-1.07352-1.40048l-.13487-.2023a3.96243,3.96243,0,0,0,.20692-.35061.46074.46074,0,0,1-.11805.31495c.44731-.67765,1.0524-1.61424,1.19775-1.57858a56.46471,56.46471,0,0,0,3.27531-4.90642l-.02112.0923a13.14488,13.14488,0,0,1,.91824-1.4488c.04037-.02291.07886-.06048.08073-.05223a6.12894,6.12894,0,0,1,.49206-.81249.91631.91631,0,0,0,.21121-.14574,4.98012,4.98012,0,0,0,.45974-.55226c.17211-.21568.35352-.45051.533-.691a2.06779,2.06779,0,0,0,.28084-.28442,1.00861,1.00861,0,0,0,.20378-.42695c.10991-.17811.21121-.35437.30063-.53576a.646.646,0,0,0,.0528-.07122l.00063-.00385c.05844.25069.04224.182,0,0,.01619-.02035.03168-.04134.04349-.05977.1168-.22273.36032-.62357.24791-.86536a.16659.16659,0,0,0-.10006-.02484,1.75563,1.75563,0,0,0-.06274-.27481.99442.99442,0,0,0-.259-.098,1.17933,1.17933,0,0,0-.10443.07507.34145.34145,0,0,1-.0435-.147c-.04286.02227-.13353.03693-.19009.06553a3.33917,3.33917,0,0,1-.00242-.35373c-.05038.063-.15662.10175-.20379.15335,0-.08212-.04787-.13492-.05718-.19789-.14042.04454-.26277.08012-.38144.12723-.005-.11008-.01807-.21568-.01925-.29588a.76664.76664,0,0,0-.19384-.005,2.00734,2.00734,0,0,0,.08073-.41109,2.05446,2.05446,0,0,1-.42368.27361c-.04162-.0375-.08073-.07507-.12055-.10816-.00806.00256-.01925.00953-.03231.01466a.6906.6906,0,0,1-.00743-.18011c-.19135.09165-.43988.21-.64366.32512l-.01674.11714a.48825.48825,0,0,0-.2181.20678l-.00868.01459-.05093.08276-.18884.35188c-.06031.12274-.11429.243-.1696.36967a3.42025,3.42025,0,0,0-.68277.73421c-.15348.25518-.13791.54914-.26652.80936a.80442.80442,0,0,1-.12923.19469.20972.20972,0,0,0-.04225.04647A1.82083,1.82083,0,0,1,20.97,91.08c0-.0999.13792-.26471-.023-.18772a3.58366,3.58366,0,0,1-.27645.39836c-.03169.02035-.06337.042-.09755.063l.01611.03437a8.59259,8.59259,0,0,0-.95422,1.24329l-.10436-.0286c-.56535,1.09883-1.45378,1.78217-1.78859,2.54826-.66853,1.07023-.7362.50075-1.3438,1.68106l-.41007.33153c-.343.439-.1006.4276-.51748.88884-.04537-.082-.51567.59625-.36845.25326-.13979.15719-.27082.327-.40256.50138a4.21508,4.21508,0,0,1-.04475-.49505,4.17128,4.17128,0,0,0,0-1.674c-.0093-.09294-.01674-.18259-.02479-.273.01736-.19341.04529-.22338.10686.19148.01549.08845.01236.24757-.0162.2386l.09818.12795a18.862,18.862,0,0,0-.07205-2.99245c-.03293.31238-.02362.73044-.0945.45179l.01369-.9793.08636.2011.04725-1.45769-.10443.20166a5.13114,5.13114,0,0,0,.08081-1.77271c-.02363-.11514-.0485-.08838-.069-.02284a20.41457,20.41457,0,0,0-.01056-2.70169c-.03723.05536-.14847.112-.19565.16929-.02362-.08469-.08761-.13556-.08761-.25326-.07643.09414-.15411.0649-.27153.11321-.25533-.42183-.889-.19782-1.45808-.07187-.19815.01018-.39818.02356-.59015.04006a.05705.05705,0,0,1,.01924.02163.53213.53213,0,0,1-.29945-.11128c-.269.26719-.62559.06233-.88593.26719a.92085.92085,0,0,0-.19385,1.0015c.095,1.07151-.23421.37736-.12548,1.606l-.072-.11385.21184.33786c.2019,1.15676-.20934.626.06461,1.91076-.018-.50908.223-.23988.18016.38682l-.09755-.159a4.33938,4.33938,0,0,1,.041.69351c-.0528-.20743-.14284-.11008-.1236.40083l-.12485-.341.18079.96142c-.10624.74567.02667,1.92471-.1125,2.22948a9.44806,9.44806,0,0,0,.08324,1.96484c-.09317-.3188-.12861.56123-.2404.31118a6.78667,6.78667,0,0,1,.08074,2.12836l-.01057-.091c-.11616,1.80956.15787,3.09676.01808,4.7231.11429-.07507.05342.78452.20315.5714.14723,1.68355-.30634,3.06809.15716,3.67707a6.19444,6.19444,0,0,1-.13111,1.30242l-.0248-.18323c.01925.7177.02856,1.18095.03411,1.59581l.00438.61468v.32384c-.18016.4066-.06023.68141.43237.69736-.01737.08268.02174.19084.00375.2704.10248.00825.238.02035.38019.0242.13549.12658.182.16736.00062,0a2.02521,2.02521,0,0,0,1.03378-.13805c.03168.21312,1.21519.1056,1.4656-.01209.54423-.252.33482-.65923.23977-1.12239.00313-.00833.00626-.01722.01494-.01145-.01924-.36783-.03293-.4683-.0485-.425a1.76078,1.76078,0,0,0-.01924-.49377c.00805-.488-.00869-.94869.08636-.99964-.03356-1.78666-.187-3.063-.24477-4.55318.07893-.16544.14167.182.1746.61332l-.02863-1.05622c.11124.00834.06094.60578.08511.93219.174-1.25731-.17578-2.5929-.01611-4.069l-.03231-.11457a.91254.91254,0,0,0,.07885.091c.28084.32256.59273.65089.83813.93219-.23234-.3309-.11186-.25839.02112-.14317a7.724,7.724,0,0,0,.47273.70817l-.06336.084c.10623-.01906.66971.70057.78282.76931.0478.22265-.40443-.39771-.51755-.42447.88969,1.14723.44425.574,1.33018,1.72248.54666.5529.01362-.19028.32614.03557a14.20145,14.20145,0,0,1,1.32142,1.6728L18.98634,108.6c.00431.005.00806.00633.01056.012a11.53022,11.53022,0,0,0,1.20463,1.65374c.236.27553.37956.69671.6094,1.01166.22365.30477.54243.51092.75239.82843a8.23907,8.23907,0,0,0,2.339,2.45926,1.73075,1.73075,0,0,1-.08386-.20615,2.96575,2.96575,0,0,1,.58092.22971c-.03731-.06113-.05531-.18965-.10936-.26856.282-.02989.58209.22209.70577-.04391.223.1483.58021-.10944.72251.15527.27521-.10055.19322-.61587.387-.68783-.19439-.39578-.369-.7979-.5684-1.19361a3.57578,3.57578,0,0,0-.52561-1.03466Z"/><path id="ab3d44c2-ef52-497e-83bf-d2c67323e138" data-name=" 104861728" class="fd9ffe4b-bf82-4d5b-8666-9b0c6bea9990" d="M33.51072,113.3868a1.60263,1.60263,0,0,1-.17766-.28442C33.32063,113.12337,33.34237,113.20926,33.51072,113.3868Z"/><path id="b32edbce-2aa1-4037-b3df-eb7533b08dc2" data-name=" 104861896" class="fd9ffe4b-bf82-4d5b-8666-9b0c6bea9990" d="M37.48317,115.18808l-.00751-.02676A.01994.01994,0,0,0,37.48317,115.18808Z"/><path id="b636a501-a26f-4d1d-b3a1-189b123b6711" data-name=" 104861824" class="fd9ffe4b-bf82-4d5b-8666-9b0c6bea9990" d="M45.45386,88.30013v-.00321c.35476.329.179.16417-.10561-.098,0-.08076.0025-.15839.00931-.236a.516.516,0,0,1-.1.15143c-.04037-.03758-.08448-.08084-.12423-.11834a2.88922,2.88922,0,0,0-.09324-.42631c-.01737.01081-.03536.02163-.05093.0318.00438-.061-.05593-.20486-.04967-.29652a.75636.75636,0,0,1-.14723.03117c-.03113-.08525-.10443-.105-.1491-.18956-.10811.1342-.23179.19469-.34233.07827-.13048.026-.11617.00889-.205-.0274-.42493-.091-1.30156.40725-1.75262.16417-.13478.09293-.26464.20294-.40686.28634a.60108.60108,0,0,1-.00375.14446.92814.92814,0,0,0-.08073-.15335c-.09755.22393-.38707.82907-.215,1.08289l.00743.19092a10.297,10.297,0,0,0,.11742,1.16822l-.03731-.08524a12.52025,12.52025,0,0,1,.09629,1.70269c-.01736.04326-.02667.09734-.03661.09029.14848.76674.023,2.24294.08824,2.86522l-.09262.04006.02175,1.53091.01924-.57333c.24978.19982-.15716,1.15933.00438,2.26961-.03105,1.041.51873,2.10738.40006,3.18906.11312.51156-.195-.45556-.10248.31238-.13048.028-.08323-.35757-.18634-.15775.05961.75272-.13048,1.23688-.04412,2.171l-.10318.03629c.18767,1.21652-.13416,2.29309.04475,3.10373.05092,1.22423-.274.80552-.246,2.00114a3.87322,3.87322,0,0,1-.23484.397c-.16154.425.06712.39515-.21489.80239-.04412-.04134-.394.39956-.29077.16288a3.43952,3.43952,0,0,1-3.41261.65666c-.37151.11449-.95055-.271-1.15057-.34107-.03607.00569-.75107-1.15548-.22984-.55866.04467.05087.10812.13748.08011.1527l.128.007a6.54219,6.54219,0,0,1-.72314-2.24158c-.01987.28507.04475.64585-.05718.41037-.02418-.29011-.0435-.58663-.04287-.88948l.09137.18579c.00125-.42824.02175-.9309.03544-1.40809l-.10194.20037a5.08423,5.08423,0,0,0,.08074-1.75164c-.08074-.35885-.13847.67068-.17328-.07763.07268-.94045.18079-2.35743.21-3.56-.11616.11328-.11178-.20807-.13666-.544l.10373-.03942c-.14222-1.27894.22178-.46637.10874-1.73385l.072.11136-.21435-.3373c-.1994-1.1421.21372-.614-.06274-1.889.01745.50323-.2249.23795-.17765-.38057l.09692.15656a4.00517,4.00517,0,0,1-.03982-.684c.051.20294.1423.10368.12368-.39835l.12548.33978-.18391-.95309c.1056-.73494-.02543-1.89811.11249-2.20408a9.21752,9.21752,0,0,0-.08386-1.94008c.09254.31439.12923-.55675.23976-.30734a4.74286,4.74286,0,0,1-.09934-.68141,4.40822,4.40822,0,0,0,.06023-1.837c-.03606.00257-.01924.02292-.05343.00385.01119.007-.0708.05977-.0708.05977-.01056-.03558-.02237-.11321-.04787-.1342-.0478.047-.16467.08268-.20809.14381a.26249.26249,0,0,1-.077-.09679c-.04412.03438-.06274.0758-.11554.08717a.42822.42822,0,0,1-.01432-.07186c-.18266.0286-.24039-.01146-.287-.16673-.123-.007-.25158-.007-.379-.007-.118,0-.233,0-.34287-.00513-.00689-.04262-.00313-.07379-.01307-.11385a6.627,6.627,0,0,0-1.06053-.01658c-.26339.0306-.52678.17185-.80011.20935-.09943.014-.33427-.0407-.41445.00577-.154.09029-.14347.29836-.18446.432-.00689.01594.07079.1616.05343.231-.00994.05408-.13854.063-.14543.10183a1.26569,1.26569,0,0,0-.02479.4562c-.156.17562-.07268.08332,0,0l-.00869.0121v.01586l.0018.03181.00689.14573.013.278a15.90536,15.90536,0,0,1,0,2.26457c.11742-.07.05468.77691.20378.5682.14848,1.66319-.30626,3.03123.16029,3.6338a6.21731,6.21731,0,0,1-.13416,1.28719l-.02487-.18139c.03856,1.41578.04412,1.83.03293,2.88173a5.19382,5.19382,0,0,1,.20942,1.54751c-.08394-.30542-.07025.08075-.07025.43264-.01307-.2221-.04663-.2914-.10311.16736a1.12163,1.12163,0,0,1,.05648.26087c-.0068.00441-.01173.021-.02112.0121.03114.58727.05719.48929.07025.215.01181.01274.02793-.00825.05218-.09477-.10936.61018.00993,1.70013-.13854,1.77327a37.6347,37.6347,0,0,0,.34483,4.54876c-.05469.17819-.169-.16608-.22616-.60826.03168.36014.07823.71835.14472,1.07977-.10811.00761-.15528-.61659-.19009-.94934a8.796,8.796,0,0,0,1.204,4.1142l.26339.22586.04537.084a2.08281,2.08281,0,0,1,.48525.36463c.09379.23483-.17961.16928.46154.68085a4.47868,4.47868,0,0,0,2.40433.85006c-.40819-.09926-.2641-.12666-.08081-.1241a3.50728,3.50728,0,0,0,.85613.18011l.01611.1088c.06337-.08469.99279-.0516,1.114-.10945.21059.10432-.56911.07187-.66665.14061a10.51317,10.51317,0,0,0,2.231-.11769c.77469-.259-.16279-.09486.1926-.28314a8.96853,8.96853,0,0,0,2.03775-.80809l-.28146.03494a6.41139,6.41139,0,0,0,1.98738-2.18557c.054-.19725.10255-.38177.14354-.56508a4.47485,4.47485,0,0,0,.33545-.76987,1.47165,1.47165,0,0,1-.01862.15968c.10373-.315.02425-.74375.1243-1.09948a3.95081,3.95081,0,0,0,.30877-.8882c-.03168.09414-.08331.18829-.11867.28058.00993-.38882,0-.7826.00555-1.174-.03356.01145-.04224.05223-.07823.065-.05655-.40724.2199-1.32284-.01932-1.76951.141-.75913.30133-1.90635.48955-3.54984l.03857.084a21.66963,21.66963,0,0,0-.07956-4.38076c.23546-.2043.02425-1.54934.09817-1.99352l.02112.04206c-.18078-1.153.15161-2.374-.01118-3.48623a.45229.45229,0,0,1,.08636.32264c-.01924-.59368-.05468-1.347-.018-1.72881.00125-.014.0018-.02548.0018-.03821.01619-.11642.03794-.194.06962-.20927-.00743-.483-.00931-1.01175-.01244-1.5564l-.00312-.40973v-.03437h0Z"/><path id="bf50d708-ae7d-4ade-ba1c-5fbd8c259962" data-name=" 103876480" class="fd9ffe4b-bf82-4d5b-8666-9b0c6bea9990" d="M58.117,115.65062l-.18579-.04767C57.93435,115.6233,57.9816,115.64429,58.117,115.65062Z"/><path id="ea7e00f3-0745-4797-9d25-697efd663bae" data-name=" 103876384" class="fd9ffe4b-bf82-4d5b-8666-9b0c6bea9990" d="M57.47965,107.42163l.00993.04511C57.48645,107.43429,57.4852,107.42411,57.47965,107.42163Z"/><path id="a89fd618-3ce6-405c-a58b-7e3263b79f59" data-name=" 103876408" class="fd9ffe4b-bf82-4d5b-8666-9b0c6bea9990" d="M60.73563,115.67413l-.00743-.02988A.02437.02437,0,0,0,60.73563,115.67413Z"/><path id="b4d96673-7177-4d2d-be45-33dca8146545" data-name=" 103876288" class="fd9ffe4b-bf82-4d5b-8666-9b0c6bea9990" d="M68.963,111.84636c.02542-.55162-.53367-.2793-.73683-.12723.00743-.10568-.05468-.22209-.054-.32264-.03974.04967-.11492.11072-.1466.15847-.00563-.02548-.00931-.051-.01369-.0802a2.12916,2.12916,0,0,1-1.17787.12283c-.22491-.03245-.638-.08148-.73871-.28571-.39513.09037-.77594.2704-1.17107.37031-.09317-.42439-.894.02355-1.14564.04134l-.03974.10247a6.52543,6.52543,0,0,0-1.8712.13869c-.13048-.24117-.98966-.026-1.27112-.103l.02675-.01971a11.18919,11.18919,0,0,1-1.95515-.02868,20.64472,20.64472,0,0,0-.18821-3.61153l.03974.056c-.14723-.4594-.023-.5968-.09693-1.11221.01862-.03053.02855-.06426.03544-.05793a14.99717,14.99717,0,0,1-.08574-1.87318l.09-.02612-.02112-.99892-.01862.37288c-.25095-.13044.15536-.75593-.00555-1.48133.03043-.68013-.51881-1.37877-.39576-2.08382-.11429-.33594.192.29524.1-.20551.13111-.0165.08081.23227.18517.10376-.06087-.49378.133-.80873.04411-1.41635l.10436-.02484c-.18634-.7947.13111-1.50039-.04537-2.02974-.082-.81954.29883-.54785.10381-1.40112l.136-.33209c.023-.36527-.1696-.26343-.10131-.66427.087.02476.06962-.51348.14848-.27489.13612-.91624-.19009-1.86052.03857-3.06432L58.729,91.68a7.41916,7.41916,0,0,0,.01056-1.4004l.054.04454a1.817,1.817,0,0,0,.064-.49826l-.013-.23538-.01182-.119v-.00641c.40569.37864.23359.2176-.08206-.07443a2.55715,2.55715,0,0,0-.013-.86665,1.16651,1.16651,0,0,0-.256.61916l-.00188-.00128a3.04312,3.04312,0,0,0-.02863-.76354,1.38348,1.38348,0,0,0-.18016.42055.691.691,0,0,0-.10929.00384c-.01994-.13364-.07768-.252-.09755-.38369a2.04108,2.04108,0,0,1-.2-.06425c-.41938.02355-.71947.119-1.19407.119a14.103,14.103,0,0,0-1.48422.12723c.00063.07763-.046.18964-.03731.25774,0,.00192-.03974-.06618-.04036-.04967-.03106.06369-.03294.10695-.0938.15142-.00743-.04446-.06587-.12915-.082-.18259a2.27984,2.27984,0,0,0-.197.92394l-.00187.01394-.01549.063-.05969.24949a1.18659,1.18659,0,0,0,.03356.59745c.08448.23291.14167-.439.174.04711-.07267.61588-.17828,1.53917-.20754,2.32746.11679-.07187.11312.13684.13487.35573l-.10131.02539c.14167.8342-.2224.30478-.10991,1.13577l.14159.1451c.20011.74823-.21247.40276.06336,1.235-.01548-.329.22366-.15591.18079.24749l-.1006-.09991a1.92325,1.92325,0,0,1,.04349.4473c-.0528-.1342-.14417-.07314-.12548.25775l-.1218-.22209.177.621c-.10373.48232.02676,1.24329-.11053,1.44182a3.94993,3.94993,0,0,0,.08323,1.26621c-.095-.20743-.12986.3627-.24039.20165a2.87228,2.87228,0,0,1,.0801,1.37188l-.01056-.056c-.118,1.16822.15779,1.99793.01612,3.04966.118-.0496.054.50587.205.37031.14848,1.08553-.305,1.97821.159,2.37144a2.71353,2.71353,0,0,1-.13291.84246L54.866,107.89c.03669.92706.04037,1.19618.03106,1.8808.04475.34619.26214.39963.20816,1.0155-.08511-.19853-.069.051-.069.28-.01369-.14637-.046-.19092-.10373.11129a.57021.57021,0,0,1,.05773.16993c-.00806.00128-.01118.01522-.02237.00889.03051.38433.05906.31815.069.13868.01495.0089.02918-.00761.05218-.0604-.11.39763.01056,1.11093-.13791,1.1574.01674.57966.06336,1.07335.11491,1.54549l.03419.3506.01924.17242.00806.042v.007h0c-.10686-.10632.89344.91816.4703.48288h.01432l.02237-.00441.08261-.00825.68715-.05729c.10686.07635-.11312.14381-.38582.17562l.6647-.0274c-.0043.11072-.38019.06426-.58585.08653.79339.18074,1.63269-.18067,2.56337-.01458l.19072-.09038.05836.014c-.00556-.04518.20378-.10944.34232-.12346.12986.098-.01056.22522.44981.217a5.22975,5.22975,0,0,0,1.51089-.10119c-.256-.01394-.1739-.068-.06337-.10175.228-.00192.36345.0935.53993.0528l.018.103c.03231-.09734.61253-.11064.69021-.15775.13235.09542-.356.0814-.41438.15775.92192-.01458.46225-.00761,1.38541-.021.4908-.09926-.08949-.1221.14535-.23667a5.57194,5.57194,0,0,1,1.35873-.03878l-.15966-.11841a5.3677,5.3677,0,0,1,1.85572.03949c.16959-.02483.32676-.04967.47773-.07827a.74459.74459,0,0,0,.12423.04839,4.15737,4.15737,0,0,0,1.419.02988,1.25611,1.25611,0,0,0,.848-.42246c.13049-.78966.22867-2.34093-.27082-2.99886a.31588.31588,0,0,1-.20378.33025Z"/><path id="ad9eb96f-2ea3-4ade-bdf9-d0d92d32003e" data-name=" 104071648" class="fd9ffe4b-bf82-4d5b-8666-9b0c6bea9990" d="M87.69151,87.82668c-.54673.44418-.94186-.07443-1.41155.09734.00876-.07571-.01549-.16408-.0068-.24171a1.77853,1.77853,0,0,0-.52061.14437,5.91536,5.91536,0,0,0-1.578.33979c-.17209-.035-.35413-.06618-.543-.09991l.0553-.04006a9.32991,9.32991,0,0,0-2.8945.08276c-.13353-.23931-1.02134-.02419-1.31579-.10311l.03043-.01843c-.76225.18131-1.56933-.15591-2.30239.0121a.22384.22384,0,0,1,.21183-.08973c-.53366.02988-1.26424.084-1.30272-.05665-.638.01907-1.40348.00954-2.11043.02668l-.26285.00769-.12915.00441h-.01l-.00431-.00761c.05593-.0528.10123-.09222,0-.00128-.26034-.43521-.47773.12282-.59891.5517-.05961.05151-.12423.11064-.19447.17434v.00889l-.00188.02989L72.798,88.713c-.01056.16993-.01861.3353-.023.48929v.01658a4.84028,4.84028,0,0,0-.18265,1.77391.81418.81418,0,0,0,.19939.07764c-.01118.23859.24541.35573.56848.40532a7.32429,7.32429,0,0,0,1.30532.01843,15.05975,15.05975,0,0,0,2.43092-.03437A1.88685,1.88685,0,0,0,77.765,91.437a2.86841,2.86841,0,0,0,1.04246-.23739,4.32039,4.32039,0,0,1,.528-.15207l.03043-.0044a.94054.94054,0,0,1-.018.16416c.11742.34868-.18633-.306-.09943.2112-.12977.0185-.0801-.24116-.18383-.10752.06273.51284-.13424.83989-.046,1.46914l-.09943.02548c.18454.8221-.13478,1.55.04225,2.09656.08331.84942-.30009.57013-.10311,1.45328l-.13791.34227c-.02112.37864.16959.27112.10435.68974-.08761-.02419-.06954.52943-.15285.28443-.13479.94868.19142,1.9235-.03724,3.17247.1696.26984.06587.89846.19447,1.09956-.07392.03429-.01181,1.26427-.17022.55546-.01306-.06049-.00931-.16865.01862-.161l-.0988-.08268a8.35679,8.35679,0,0,0,.07205,1.996c.03481-.20551.02487-.48608.0945-.30093l-.01369.65474-.08574-.13556-.04787.97544.10255-.13363c-.05093.47655-.22741.6452-.082,1.18223.082.24172.13909-.45115.17264.05088-.07079.63942-.177,1.59389-.21,2.40958.11867-.07635.11554.14381.13916.369l-.10185.02419c.13909.86729-.22311.3188-.11186,1.17583l-.06954-.07443.21246.22586c.20128.77564-.21066.41806.06462,1.27766-.01744-.34291.22178-.15967.177.25775l-.09629-.105a2.1179,2.1179,0,0,1,.041.46133c-.05156-.13741-.14347-.07315-.12611.26976l-.12242-.2297.18078.64456a2.67419,2.67419,0,0,0-.04287.41237l-.0018.22265v.05729c1.7656,1.63266.48893.45171.88343.817h.01181l.01181-.00449.02668-.00376.10686-.01082a1.384,1.384,0,0,1,.62128.00313,3.9401,3.9401,0,0,0,1.26862-.217c-.10068.05664-.005.08148.09505.10567l.072.01971.03356.01338.01307.00441h.00242c.379-.42944-.84924.96592.84995-.96648h.00117l.0025-.00192.00251-.007c.02049-.02356.04286-.03181.07267.00889a3.05717,3.05717,0,0,1-.08073-1.42019l.01181.06233c.11679-1.2102-.15724-2.07236-.01682-3.15974-.12055.049-.0553-.523-.20441-.38176-.15215-1.1256.30751-2.05137-.15778-2.458a2.72882,2.72882,0,0,1,.12985-.86849l.02425.12154c-.03543-.959-.04349-1.23824-.0298-1.94834-.046-.35757-.2616-.41294-.21005-1.048.08574.20615.06837-.05344.06837-.292.01737.1527.04717.19725.10311-.11393a.71152.71152,0,0,1-.05594-.175c.00877-.005.01119-.01714.02175-.01081-.03043-.397-.059-.32953-.06892-.14125-.01243-.00954-.03043.00449-.05468.05921.11242-.40981-.005-1.14594.13979-1.19939-.031-1.193-.18578-2.04761-.24477-3.04332.07822-.112.14347.12026.177.411l-.0298-.70754c.11123.00569.064.40469.08135.62165.18141-.83861-.17327-1.73322-.01118-2.71628l-.08817-.203.01424-.061c-.04349.00256-.105-.21889-.11984-.36334.095-.13869.21614.01017.21184-.47911a6.47986,6.47986,0,0,0-.0963-1.59958c-.01557.27232-.07025.18515-.10318.0681-.00493-.24565.09324-.38562.05163-.57334l.09872-.01714c-.07518-.02548-.09872-.4276-.12735-.63054h.05217c.02112.124.03607.30477.07518.3353-.00368-.14445-.00368-.25454-.00368-.34611.41312-.0923-.133-.11714.1-.23035a6.44327,6.44327,0,0,1,1.40966-.03693l-.16646-.11577a5.69109,5.69109,0,0,1,1.92213.04006c.23547-.03565.45419-.07131.661-.10688.302.06682.5939.13676.86793.19725a.84724.84724,0,0,0,1.07165-.4594,3.01144,3.01144,0,0,0-.53117-2.8875Z"/><path id="a857d403-6bb4-465e-b96d-39628d6e80ec" data-name=" 104071504" class="fd9ffe4b-bf82-4d5b-8666-9b0c6bea9990" d="M104.75049,77.736c1.236-8.06166,1.289-18.58,2.525-26.64166C89.73944,49.10456,71.60931,50.9888,54.07322,48.999c-1.236,8.06174-1.289,18.58005-2.525,26.64167C69.08427,77.63046,87.21441,75.74615,104.75049,77.736Z"/><path id="ee218499-0829-46c1-b93e-80c1daf7f41f" data-name=" 104071432" class="a8958a4a-3f81-4987-88ba-4375bf6cae4d" d="M49.09007,47.69766h63.22729V79.15809H49.09008V47.69766ZM70.5665,59.54044V56.81335H60.76457v2.72709h3.43717V69.69116h2.9276V59.54044H70.5665Zm10.13879,3.76793,2.73422-6.6309h3.10955l-5.8429,13.6162-5.8451-13.6162h3.07552l2.76872,6.6309ZM91.60377,56.8111V69.69117h2.77505v-3.8369l.39889.01346.6155-.0258.57731-.07491.53884-.12114.50018-.16417.46115-.2043.422-.24108.38261-.27441.343-.30453.30336-.33153.26356-.35477.22357-.3748.1836-.39122.144-.40452.10411-.4143.06446-.42094.0248-.42431-.01455-.42415L99.861,60.496l-.09364-.41462-.13314-.4046-.17249-.39138-.21184-.37512L98.9988,58.555l-.29046-.33153-.32926-.30517-.36822-.27489-.40663-.24132-.4448-.20471-.48243-.16456-.5199-.12114L95.6,56.8367l-.59109-.02548-3.40509-.00008Zm2.77082,2.72726h.75561l.25213.00945.23429.021.21623.03253.19854.04471.181.0572.16373.07.14714.08292.1315.09663.11719.11112.10341.12691.09059.14454.07768.16352.065.18387.0521.20591.0388.228.02417.24131-.02331.25-.04028.23474-.05578.211-.07087.18852-.085.16713-.09911.14734-.11335.12987-.12806.11337-.14315.09846-.15911.08429-.17523.07083-.19173.0576-.208.045-.224.03269-.23992.021-.2555.00993h-.6367ZM58.7915,53.91048H72.5397V72.39H58.79151V53.91047Zm28.788,0H73.8313V72.39H87.57949Zm16.32311-1.21966H57.50416V73.61005H103.9026ZM88.86675,53.91048H102.615V72.39H88.86675Z"/></g></g></g></svg>