<svg xmlns="http://www.w3.org/2000/svg" viewBox="0 0 283.46 283.46"><defs><style>.cls-1{fill:#ec008c;}.cls-2{fill:#fff;}</style></defs><g id="Layer_2" data-name="Layer 2"><g id="TVP"><g id="tvpkultura"><rect class="cls-1" width="283.46" height="283.46"/><g id="logo"><path class="cls-1" d="M96.68,95.42h87.69V138H96.68Z"/><path class="cls-2" d="M108.17,102.23v28.36h64.72V102.23Zm21.1,27.08H109.61V103.49h19.66Zm21.09,0H130.7V103.49h19.66Zm21.09,0H151.8V103.49h19.65Z"/><path class="cls-2" d="M159.6,120l.77,0c4.8,0,7.16-3.12,7.16-6.2s-2.29-6.05-6.82-6.05h-4.66v17.59h3.55Zm0-8.81h1.28c2,0,3.05.71,3.2,2.73-.12,2.1-1.32,2.77-3.37,2.8H159.6Z"/><polygon class="cls-2" points="148.67 107.53 144.71 107.53 140.67 116.79 140.53 117.36 140.39 116.81 136.34 107.53 132.39 107.53 140.53 125.86 148.67 107.53"/><polygon class="cls-2" points="117.54 125.33 121.32 125.33 121.32 111.16 126.24 111.16 126.24 107.76 112.62 107.76 112.62 111.16 117.54 111.16 117.54 125.33"/><path d="M62.75,182.34c-.39-.35-1-.42-1.35-.87s-.65-1-1-1.53a10,10,0,0,0-1.26-1.73c-.11-.17-.21-.35-.32-.53l.11.07A28.57,28.57,0,0,0,55.18,173c.08-.43-1.29-1.71-1.58-2.27l.06,0a10.71,10.71,0,0,1-1.5-1.91l-.19-.28c.1-.16.2-.32.29-.48a.62.62,0,0,1-.17.43c.63-.93,1.47-2.2,1.68-2.15a77.84,77.84,0,0,0,4.58-6.69l0,.12a17.77,17.77,0,0,1,1.28-2c.06,0,.11-.08.11-.06a8.78,8.78,0,0,1,.69-1.12,1,1,0,0,0,.29-.2,5.83,5.83,0,0,0,.65-.75l.74-.94a2.87,2.87,0,0,0,.39-.39,1.43,1.43,0,0,0,.29-.58,7.63,7.63,0,0,0,.42-.73l.07-.1h0s0-.06.05-.09c.16-.31.51-.85.35-1.18a.24.24,0,0,0-.14,0,2.62,2.62,0,0,0-.09-.38,1.74,1.74,0,0,0-.36-.13l-.15.1a.59.59,0,0,1-.06-.2c-.06,0-.18,0-.26.09a2.57,2.57,0,0,1,0-.48c-.08.08-.22.13-.29.21a1,1,0,0,0-.08-.28l-.54.18c0-.15,0-.3,0-.4a.86.86,0,0,0-.28,0,2.8,2.8,0,0,0,.12-.56,2.78,2.78,0,0,1-.59.37l-.17-.15,0,0a.72.72,0,0,1,0-.25c-.28.12-.62.29-.9.44l0,.16a.72.72,0,0,0-.31.28v0l-.08.11-.26.48c-.08.16-.17.33-.24.5a5,5,0,0,0-1,1c-.21.36-.19.76-.37,1.11a1.2,1.2,0,0,1-.18.26.14.14,0,0,0-.06.07,1.24,1.24,0,0,1-.22.18c0-.13.19-.35,0-.25a5.94,5.94,0,0,1-.39.55l-.13.08,0,0a11.21,11.21,0,0,0-1.33,1.7l-.15-.05c-.79,1.51-2,2.43-2.5,3.49-.93,1.45-1,.67-1.88,2.29l-.57.45c-.48.6-.14.58-.72,1.22-.07-.12-.72.81-.52.34-.19.21-.38.45-.56.68,0-.2-.05-.44-.07-.67a5.36,5.36,0,0,0,0-2.29,2.4,2.4,0,0,0,0-.37c0-.27.07-.3.15.26,0,.12,0,.34,0,.32l.14.18c.26-1.45-.14-2.64-.11-4.08,0,.42,0,1-.13.61l0-1.33.12.27.06-2-.14.27a6.9,6.9,0,0,0,.12-2.42c0-.16-.07-.12-.1,0a28.4,28.4,0,0,0,0-3.69c-.06.08-.22.15-.28.23,0-.11-.12-.18-.12-.34-.11.13-.22.09-.38.16-.36-.58-1.24-.28-2-.1l-.83.05s0,0,0,0a.81.81,0,0,1-.41-.15c-.38.36-.88.08-1.25.36a1.24,1.24,0,0,0-.26,1.37c.13,1.46-.33.52-.18,2.19l-.1-.16.3.46c.28,1.58-.29.86.08,2.61,0-.69.32-.33.26.53l-.14-.21a7.13,7.13,0,0,1,.06.94c-.08-.28-.2-.15-.18.54l-.16-.46.25,1.32c-.15,1,0,2.62-.16,3a12.58,12.58,0,0,0,.12,2.68c-.14-.44-.19.76-.34.42a9,9,0,0,1,.11,2.9l0-.13c-.16,2.48.23,4.24,0,6.45.17-.1.07,1.07.28.79.21,2.29-.42,4.18.23,5a8.37,8.37,0,0,1-.19,1.78l0-.25c0,1,0,1.61,0,2.18v1.27c-.25.56-.08.94.6,1,0,.1,0,.25,0,.36l.54,0h0a3,3,0,0,0,1.44-.19c0,.29,1.7.14,2.05,0,.76-.35.46-.91.33-1.54,0,0,0,0,0,0,0-.51-.05-.64-.06-.58a2.09,2.09,0,0,0,0-.68c0-.66,0-1.29.13-1.36-.05-2.44-.27-4.19-.34-6.21.11-.23.2.25.24.83l0-1.44c.16,0,.09.83.11,1.27.26-1.71-.24-3.53,0-5.54l0-.16.11.12,1.17,1.27c-.32-.45-.15-.36,0-.2a8.45,8.45,0,0,0,.66,1l-.08.12c.15,0,.93.95,1.09,1,.07.31-.57-.53-.73-.57l1.87,2.34c.76.76,0-.25.45.05a18.4,18.4,0,0,1,1.84,2.29l-.08-.37,0,0A16.5,16.5,0,0,0,56,180.64c.34.37.54,1,.86,1.37s.76.71,1,1.14a11.36,11.36,0,0,0,3.27,3.35,2.52,2.52,0,0,1-.12-.29,4.41,4.41,0,0,1,.81.32,3.2,3.2,0,0,0-.15-.37c.4,0,.81.31,1,0,.31.2.8-.15,1,.2.38-.13.27-.83.53-.93-.27-.53-.5-1.09-.79-1.63a5.1,5.1,0,0,0-.73-1.41"/><path d="M91.32,150.65v.61c0,.75,0,1.47,0,2.13,0,0-.07.12-.1.29v0c0,.52,0,1.55,0,2.35a.57.57,0,0,0-.13-.43c.23,1.51-.23,3.18,0,4.75l0-.06c-.11.61.18,2.44-.15,2.72a27.88,27.88,0,0,1,.11,6l0-.11c-.26,2.23-.49,3.8-.68,4.84.33.61-.05,1.86,0,2.41,0,0,.06-.07.1-.08,0,.53,0,1.06,0,1.6.05-.13.13-.26.17-.39a5.37,5.37,0,0,1-.43,1.22c-.15.48,0,1.07-.17,1.5,0-.05,0-.17,0-.22a5.51,5.51,0,0,1-.47,1.05c0,.24-.12.5-.19.77a8.93,8.93,0,0,1-2.78,3l.39,0a13,13,0,0,1-2.85,1.09c-.49.26.82,0-.27.4a14.75,14.75,0,0,1-3.11.15c.13-.09,1.22-.05.92-.19-.16.08-1.46,0-1.55.15l0-.15a5.08,5.08,0,0,1-1.2-.24c-.25,0-.46,0,.12.17a6.38,6.38,0,0,1-3.36-1.16c-.9-.71-.52-.61-.65-.93s-.64-.54-.68-.49l-.06-.13-.37-.31a11.82,11.82,0,0,1-1.68-5.6c0,.45.11,1.3.27,1.28a14.06,14.06,0,0,1-.21-1.47c.08.61.24,1.08.32.83a52.36,52.36,0,0,1-.49-6.2c.21-.1,0-1.59.2-2.42,0,.12-.06.14-.07.13,0,.37-.06.51-.1-.29,0,0,0,0,0,0a1.4,1.4,0,0,0-.08-.35c.08-.64.12-.54.14-.24,0-.47,0-1,.1-.58a7.18,7.18,0,0,0-.29-2.12c0-1.44,0-2,0-3.93l0,.25a8.39,8.39,0,0,0,.18-1.76c-.65-.82,0-2.69-.22-5-.21.29-.12-.87-.29-.77a19.91,19.91,0,0,0,0-3.09V151h0a1.61,1.61,0,0,1,0-.62c0-.06.19-.07.21-.15s-.09-.28-.08-.3c0-.19,0-.47.25-.6s.45,0,.59,0c.38-.05.75-.24,1.12-.28a8.24,8.24,0,0,1,1.48,0,.81.81,0,0,0,0,.15h1c.07.22.15.27.4.24a.94.94,0,0,1,0,.09c.07,0,.09-.07.16-.12a.36.36,0,0,0,.11.14c0-.09.22-.14.29-.21a.7.7,0,0,1,.06.19s.12-.07.11-.08,0,0,.07,0a6,6,0,0,1-.08,2.51,6.85,6.85,0,0,0,.13.94c-.15-.35-.2.84-.33.4a12.29,12.29,0,0,1,.11,2.66c-.19.41,0,2-.16,3l.26,1.29-.17-.46c0,.69-.1.82-.18.54a7.33,7.33,0,0,0,.06.94l-.14-.22c-.06.85.27,1.21.25.52.38,1.74-.18,1,.09,2.58l.3.46-.1-.16c.16,1.74-.35.63-.16,2.37l-.14.06c0,.45,0,.9.19.74,0,1.64-.19,3.57-.29,4.86,0,1,.13-.39.24.11a6.68,6.68,0,0,1-.11,2.38l.15-.27c0,.65-.06,1.34-.06,1.92l-.13-.25a11.92,11.92,0,0,0,.07,1.21c.14.32,0-.17.07-.56a8.72,8.72,0,0,0,1,3.06h-.19s0-.14-.11-.2c-.72-.82.28.76.33.75.27.1,1.08.63,1.61.47a4.89,4.89,0,0,0,4.76-.9c-.14.33.34-.28.41-.22.39-.55.08-.51.3-1.1a3.52,3.52,0,0,0,.33-.54c0-1.63.41-1.06.34-2.73-.24-1.1.2-2.57-.06-4.23l.14-.05c-.12-1.27.15-1.93.06-3,.15-.28.08.25.26.22-.13-1,.31.26.14-.44.18-1.47-.59-2.93-.55-4.34-.22-1.52.34-2.83,0-3.1l0,.78,0-2.09.13,0c-.08-.85.09-2.86-.12-3.92,0,0,0,0,0-.11a18.63,18.63,0,0,0-.13-2.32l0,.1A11.76,11.76,0,0,1,86,151.5l0-.26c-.23-.35.17-1.18.3-1.48a1,1,0,0,1,.12.2.61.61,0,0,0,0-.19c.2-.12.38-.26.57-.39.63.33,1.86-.35,2.45-.23.13,0,.1.08.29,0,.15.16.32.08.48-.1.06.11.16.14.2.25a.78.78,0,0,0,.21,0c0,.13.08.32.07.41l.07-.05a3.75,3.75,0,0,1,.13.58l.17.16a.76.76,0,0,0,.15-.21c0,.11,0,.22,0,.33Z"/><path d="M110,152.25v.17l0,.33a2.27,2.27,0,0,1-.08.67l-.08-.06a10.26,10.26,0,0,1,0,1.92h0c-.31,1.64.14,2.93-.05,4.18-.11-.33-.09.4-.21.38-.1.55.17.4.15.9l-.2.46c.28,1.16-.26.79-.14,1.91.24.72-.2,1.68.06,2.76l-.14,0c.12.82-.15,1.26-.07,1.93-.14.18-.07-.16-.26-.15.13.69-.3-.17-.13.29-.18,1,.59,1.91.55,2.84.23,1-.34,1.84,0,2l0-.51,0,1.37-.13,0a19.41,19.41,0,0,0,.13,2.56s0,0,0,.08c.1.7-.08.89.13,1.51l0-.07a27.33,27.33,0,0,1,.26,4.92,16.58,16.58,0,0,0,2.73,0l0,0c.39.11,1.59-.19,1.78.14a9.5,9.5,0,0,1,2.61-.19l.06-.14c.35,0,1.47-.64,1.6-.06.56-.13,1.08-.38,1.63-.5.14.28.72.34,1,.39a3.12,3.12,0,0,0,1.64-.16.36.36,0,0,1,0,.1l.21-.21c0,.13.08.29.07.44.29-.21,1.07-.59,1,.17a.43.43,0,0,0,.29-.45c.7.9.56,3,.38,4.09a1.81,1.81,0,0,1-1.19.58,6,6,0,0,1-2,0,.37.37,0,0,1-.17-.06l-.67.11a7.52,7.52,0,0,0-2.6-.06l.23.16a8.46,8.46,0,0,0-1.9,0c-.33.16.48.19-.21.33-1.28,0-.64,0-1.92,0,.07-.11.76-.08.57-.22-.11.07-.92.09-1,.22v-.14c-.25.06-.44-.08-.76-.08-.15,0-.27.13.09.15a8.36,8.36,0,0,1-2.11.14c-.65,0-.46-.17-.64-.3s-.48.11-.48.16H110l-.28.12c-1.29-.22-2.47.27-3.58,0,.29,0,.82,0,.83-.12l-.94,0c.39-.05.7-.14.55-.24l-1,.08h-.17l-.66-.66h0v-.06l0-.24-.05-.47c-.06-.65-.13-1.32-.15-2.11.2-.06,0-1,.19-1.58,0,.07,0,.1-.08.08,0,.24,0,.33-.09-.19,0,0,0,0,0,0a1,1,0,0,0-.08-.23c.08-.41.13-.35.14-.15,0-.31,0-.66.1-.39.08-.83-.23-.91-.29-1.38,0-.94,0-1.31-.05-2.57l0,.16a3.49,3.49,0,0,0,.19-1.14c-.66-.54,0-1.76-.23-3.24-.21.19-.12-.57-.28-.51.2-1.43-.19-2.56,0-4.16l0,.08a3.91,3.91,0,0,0-.11-1.87c.15.22.2-.56.33-.28a5.45,5.45,0,0,1-.11-1.72c.19-.28,0-1.32.16-2l-.26-.85.17.3c0-.45.1-.53.18-.35a4,4,0,0,0-.06-.61l.13.14c.07-.56-.27-.79-.25-.34-.38-1.13.19-.67-.08-1.69l-.2-.2c-.16-1.12.35-.41.16-1.54l.14,0c0-.31,0-.59-.19-.5,0-1.07.19-2.33.29-3.17,0-.66-.13.26-.24-.07a1.55,1.55,0,0,1,0-.81l.08-.34,0-.08v0a2.83,2.83,0,0,1,.27-1.26c0,.07.1.18.12.25s.08-.13.12-.21.06.07.06.07,0-.24,0-.35a19.28,19.28,0,0,1,2.08-.18c.66,0,1.08-.13,1.66-.17a2.28,2.28,0,0,0,.29.1c0,.18.11.34.13.52h.15a1.64,1.64,0,0,1,.26-.57,4.49,4.49,0,0,1,0,1,1.68,1.68,0,0,1,.35-.84,3.33,3.33,0,0,1,0,1.18Z"/><path d="M130.64,150.09h.57c1,0,2,0,2.95,0,.06.19,1.08.12,1.82.08a.31.31,0,0,0-.29.11c1-.22,2.14.24,3.21,0l0,0c.41.11,1.65-.19,1.84.14a13.37,13.37,0,0,1,4-.12l-.08.06.76.14a8.13,8.13,0,0,1,2.21-.46,2.49,2.49,0,0,1,.73-.2c0,.1,0,.22,0,.33.65-.23,1.2.47,2-.13.91.68,1.23,2.94.75,3.93a1.2,1.2,0,0,1-1.5.63l-1.21-.27-.92.15a8.06,8.06,0,0,0-2.69-.06l.23.16a9,9,0,0,0-2,.05c-.33.15.43.19-.14.32v.46a1.2,1.2,0,0,1-.1-.45h-.08c0,.27.08.82.18.86l-.14,0c.06.26-.07.45-.07.79,0,.15.12.27.14-.1a8.43,8.43,0,0,1,.14,2.18c0,.67-.17.47-.3.65,0,.21.11.51.17.51l0,.08.13.28c-.23,1.34.26,2.56,0,3.7,0-.3,0-.84-.11-.85l0,1c0-.39-.14-.71-.24-.55.08,1.35.3,2.52.34,4.15-.2.07,0,1.08-.19,1.64,0-.08.06-.1.07-.09,0-.25.05-.35.09.2h0a1.15,1.15,0,0,0,.07.24c-.07.42-.12.36-.14.16,0,.32,0,.67-.1.4-.07.86.24.94.29,1.42,0,1,0,1.35.05,2.66l0-.17a4.2,4.2,0,0,0-.19,1.19c.65.56,0,1.82.22,3.36.21-.2.13.58.29.51-.19,1.49.19,2.66,0,4.31v-.08a4.07,4.07,0,0,0,.11,1.94s-.07,0-.1,0h0c-2.38,2.63-.66.72-1.19,1.31h0l-.05,0-.1,0c-.14,0-.26-.07-.13-.15a5.44,5.44,0,0,1-1.77.3,2,2,0,0,0-.87,0H139c-.55-.5,1.23,1.11-1.23-1.12v-.37a3.32,3.32,0,0,1,.06-.57l-.25-.88.17.31c0-.47.1-.55.18-.37a4.35,4.35,0,0,0-.06-.62l.13.14c.07-.57-.27-.82-.25-.35-.38-1.17.19-.69-.09-1.75l-.29-.31.1.11c-.16-1.17.35-.42.15-1.6l.14,0c0-.3,0-.6-.19-.5,0-1.11.2-2.42.29-3.29,0-.69-.13.26-.23-.07-.21-.74,0-1,.1-1.61l-.14.18.07-1.33.12.19,0-.9c-.1-.26-.09.13-.13.41,0-1-.37-1.75-.11-2.72l.14.12s0,.13,0,.21c.22,1,.13-.71.24-.76-.19-.27,0-1.13-.28-1.5.32-1.7-.13-3,0-4.32.12.33.09-.43.22-.4.09-.57-.18-.41-.14-.93l.18-.47c-.27-1.21.27-.83.15-2-.25-.75.19-1.74-.07-2.86l.15,0c-.12-.86.15-1.31.06-2,.15-.19.08.17.26.15-.12-.71.3.18.14-.29a1.79,1.79,0,0,0,0-.23h0a4.35,4.35,0,0,0-.74.21,4,4,0,0,1-1.46.32,2.88,2.88,0,0,1-.92,0,22.63,22.63,0,0,1-3.4.05,11.54,11.54,0,0,1-1.82,0c-.46-.07-.81-.23-.81-.56a1,1,0,0,1-.27-.1,6.29,6.29,0,0,1,.26-2.42v0c0-.21,0-.44,0-.67v-.13c.1-.1.19-.17.28-.25.16-.58.36-1.37.72-.77Z"/><path d="M180.37,152.3a2.05,2.05,0,0,0-.2-.94l-.13,0c0-.08,0-.15,0-.22s-.09.07-.12.07c0-.58-1.59-.64-2-.55,0-.1-.05-.25,0-.36-.39.45-1,.76-1.38,1.34h0a3.12,3.12,0,0,0-.23-1.13c-.14.29-.34.46-.6.4a2.14,2.14,0,0,0-.22,1.48c-.24.27-.42.46-.34.39v0l0,.48c0,.62.09,1.17.16,1.6l-.05-.12a15.52,15.52,0,0,1,.13,2.32c0,.06,0,.14,0,.13.21,1,0,3.05.12,3.91l-.12.05,0,2.08,0-.77c.36.26-.21,1.58,0,3.1,0,1.41.73,2.87.55,4.34.17.7-.26-.62-.14.43-.17,0-.11-.49-.26-.21.09,1-.18,1.68-.06,2.95l-.14.05c.26,1.66-.18,3.13.06,4.24.08,1.67-.37,1.1-.34,2.74a4.72,4.72,0,0,1-.33.53c-.22.58.09.54-.3,1.09-.06-.05-.55.56-.41.23a4.86,4.86,0,0,1-4.76.89c-.52.16-1.33-.36-1.61-.46-.05,0-1.05-1.57-.32-.76.06.06.15.19.11.2h.18a8.41,8.41,0,0,1-1-3c0,.39.06.88-.08.56s-.06-.81-.06-1.22l.12.26c0-.59,0-1.27.06-1.93l-.15.28a7,7,0,0,0,.12-2.39c-.12-.49-.2.91-.25-.11.1-1.28.25-3.21.3-4.85-.16.15-.16-.29-.2-.74l.15-.06c-.2-1.74.31-.64.15-2.36l-.2-.31c-.27-1.57.3-.85-.08-2.58,0,.69-.32.32-.25-.52l.13.22c0-.47-.08-.63-.06-.94.08.28.21.14.18-.54l.18.46-.25-1.3c.14-1-.05-2.6.15-3a12.29,12.29,0,0,0-.12-2.65c.13.43.18-.76.33-.42a7.85,7.85,0,0,1-.16-1.4l0-.34a2.53,2.53,0,0,0,0-.48v-.28a2.09,2.09,0,0,0-.28-1s-.24.16-.28.21a2,2,0,0,0-.11-.21s-.22,0-.2,0a.56.56,0,0,1-.16.37l-.34-.31h-.66l.12,0-.48,0a.83.83,0,0,0-.45-.07c-.06-.14-.18-.18-.23-.28-.14.18-.41.27-.55.42a.19.19,0,0,1-.08-.19,2.56,2.56,0,0,0-1,.43c0-.09-.07-.23-.08-.3a.7.7,0,0,0-.23.28c-.05,0,0-.14-.14-.12-.43.39-.52.35-.45.8-.76.84.27.13-.16.61v.25l0,.39a21.24,21.24,0,0,1,0,3.09c.16-.1.07,1.06.29.77.21,2.27-.44,4.14.21,5a7.65,7.65,0,0,1-.18,1.75l0-.24c.05,1.93.06,2.5,0,3.93a6.48,6.48,0,0,1,.29,2.11c-.12-.41-.09.11-.09.59,0-.3-.07-.4-.15.23a1.2,1.2,0,0,1,.08.35s0,0,0,0c0,.8.08.67.1.29,0,0,0,0,.07-.12-.15.82,0,2.32-.2,2.42a52.53,52.53,0,0,0,.49,6.2c-.08.25-.24-.23-.31-.83a14.43,14.43,0,0,0,.2,1.47c-.15,0-.22-.84-.27-1.29a11.82,11.82,0,0,0,1.68,5.61l.38.31.06.12a3,3,0,0,1,.67.49c.14.32-.25.23.65.93a6.29,6.29,0,0,0,3.36,1.16c-.58-.13-.37-.17-.12-.17a5.25,5.25,0,0,0,1.2.25l0,.15a13.82,13.82,0,0,1,1.55-.15c.3.14-.8.1-.93.19a14.75,14.75,0,0,0,3.11-.16c1.09-.36-.22-.13.28-.39a12.64,12.64,0,0,0,2.84-1.1l-.38.05a8.9,8.9,0,0,0,2.77-3,13.41,13.41,0,0,0,.51-2.8,20.91,20.91,0,0,0,.26-3.43v-.78a50.27,50.27,0,0,0,.86-5.69l.05.12a28.64,28.64,0,0,0-.1-6c.32-.28,0-2.11.14-2.72l0,.06c-.25-1.57.21-3.24,0-4.76a.71.71,0,0,1,.12.45c0-1.11-.12-2.62.08-2.7,0-.64,0-1.35,0-2.06a4.79,4.79,0,0,0,0-.65Z"/><path class="cls-2" d="M193.8,148.25a1.58,1.58,0,0,0-.78-.11c.13.63-.45.37-.54.75a.72.72,0,0,0,.14.65l-.07.08v.06l0,.62a12.38,12.38,0,0,1-.07,2.76.93.93,0,0,1,.08.22,4.4,4.4,0,0,1,.62,0c-.32.12.41.1.37.21.56.1.42-.16.91-.14l.46.19c1.16-.27.79.26,1.91.15a3,3,0,0,1,1.28,0,.88.88,0,0,1,0-.17c.47,0,.86.37,1-.17.28,0,.32.15.46.18l-.07,0a4.38,4.38,0,0,1,1,0c.19-.06.24-.37.55-.27-.11.11,0,.1.15.11-.08,0-.11.05.05.14a.22.22,0,0,1,.09-.07v0c.2,0,.16-.07.07-.09a.09.09,0,0,0,0-.08c.2.17.56.06.56.26a11.92,11.92,0,0,1,1.49,0c0,.12-.12.15-.26.16a1,1,0,0,1,.3.09c-.07.14-.18,0-.29,0,.23.35.78.09,1,.56l.15,0v0a.23.23,0,0,1,.24,0c0,.14-.22.22,0,.36,0,.21.37.33.58.47,0-.11,0-.12.1-.11s0,.23.1.27l-.15.11c.12-.13.32.14.41.14-.08.13-.2-.08-.3-.06a3.53,3.53,0,0,1,.35.59c.24.17.14-.12.33-.08a1.1,1.1,0,0,1,.31.66l.11-.13a1.06,1.06,0,0,1,.21,1c.15.32.29.59.41.8a6.91,6.91,0,0,1,0,.8v.21a7.35,7.35,0,0,0-1,1.33l0,0a2.12,2.12,0,0,0-.29,1.34c-.32-.08-.23.4-.41.45l0,0c0,.44-.55.39-.62.74,0,0-.06-.1,0-.15-.13.19-.35.42-.48.26-.41.34-1.23.52-1.55.91v-.06c-.16.26-.28.09-.52.24l0,0c-.22.25-.76.13-1,.25l0-.13h0l0,.22.08,0-.08,0v-.05a1.22,1.22,0,0,0-.35-.06c0,.06-.12,0-.23,0a4.27,4.27,0,0,0-.83.11c-.27.21-.54.57-.82.44-.19.17.17-.26-.11-.13,0-.19.13-.12.06-.26-.28.08-.45-.19-.79-.07v-.11h-.08s-.07,0-.12,0l0,0-.56,0c-.28-.25-1.31,0-2-.2l-.85.33.3-.23c-.45,0-.53-.13-.35-.23-.21,0-.31,0-.61.08l.14-.18c-.55-.09-.79.36-.34.33-.91.41-.79,0-1.23,0,0,.56-.08,1.12-.1,1.65.17-.12.16.23.2.59l-.15.05c.2,1.4-.3.51-.15,1.9l.2.25c.28,1.25-.3.68.09,2.07,0-.55.31-.26.25.42l-.13-.18a4.54,4.54,0,0,1,.05.76c-.07-.23-.2-.12-.18.43l-.17-.37.25,1a18.92,18.92,0,0,1-.16,2.42,7.65,7.65,0,0,0,.13,2.13c-.13-.35-.18.6-.34.33a5.73,5.73,0,0,1,.11,2.31v-.1a16.31,16.31,0,0,0,0,2.63l0,.61v.32h-.1c-.06.35-.11.8-.52.93-.17,1.25.87.45,1.41,0l.64.53a.65.65,0,0,0,.44.27c.17,0,.38-.23.62-.22a10.54,10.54,0,0,1,1.19.37,1.35,1.35,0,0,1,.55-.51c.2.29.84.28,1.21.27a4.46,4.46,0,0,0-.16-1.62,1.36,1.36,0,0,1,.12-.12v-.07c0-.41.06-.78.08-1.13a1.94,1.94,0,0,0-.27-1.55,4.9,4.9,0,0,1,.19-1.41l0,.19c-.06-1.55-.07-2-.05-3.15-.06-.58-.36-.67-.29-1.7.12.33.1-.09.1-.48,0,.25.06.32.14-.18a1.15,1.15,0,0,1-.07-.28s0,0,0,0c0-.64-.07-.54-.09-.23,0,0,0,0-.08.1.15-.67,0-1.87.2-1.94,0-1-.1-1.81-.16-2.6l0-.27.71,0c.19.11-.19.2-.67.24l1.16,0c0,.16-.67.08-1,.11,1.36.26,2.8-.18,4.47-.17-.07.12-.17.14.07.71a12.12,12.12,0,0,0,1.14,2.33c-.15-.41,0-.31.09-.15.16.36.12.62.3.88l-.12.08c.14,0,.55.91.66,1,0,.26-.34-.51-.47-.57l.95,2.18c.46.72.1-.21.4.1a12.32,12.32,0,0,1,1,2.13l0-.31c.25.46.45.87.61,1.23v0a7.07,7.07,0,0,0,1.45,4.2c.49.59.35.64.53,1.34s.23.59.83.63c.78,0,2.94-.31,3.19-1.05-.21,0-.33-.16-.54-.17h0l-.05-.12c.06-.41.28-.66.21-1.09s-.52-.7-.74-1.08-.15-1-.34-1.41c-.08-.18-.34-.35-.42-.49q-.24-1.1-.69-2.82l.08.07a18,18,0,0,0-2-4.38c.22-.33-.63-1.58-.72-2.07l0,0a7.05,7.05,0,0,1-.77-1.78c-.07-.25-.16-.5-.25-.74l.27-.14c.41-.23.7-.45.79-.38,2.16-1.32,3.57-4.73,3.34-6.2l0,.11c0-.85.08-1.07,0-2,0,0,.05-.12.05-.11a18.61,18.61,0,0,0-.55-3.3l.1-.09a9.69,9.69,0,0,0-.68-1.68l.25.63c-.39-.07-.32-1.38-1.33-2.33-.72-1.09-2.2-1.29-3.15-2-.6-.12.6,0-.27-.28,0-.18.44.07.28-.17a8.33,8.33,0,0,0-2.44-.74V149c-1.41,0-2.6-.44-3.52-.2-1.39.1-.93-.43-2.36-.15l-.55-.19c-.62,0-.45.23-1.12.14,0-.13-.86-.1-.46-.21a7.64,7.64,0,0,0-1.17-.05l-.24,0a.54.54,0,0,0-.18-.11Z"/><path d="M240.63,184a5.1,5.1,0,0,1-.39-1c0-.14.13-.29.08-.45s-.24-.31-.33-.55c-.27-.68-.21-1.53-.45-2.27,0-.16,0-.33,0-.5l.07.06c0-.33-.11-.64-.17-.93.09-.23,0-.07,0-.07a11.57,11.57,0,0,0-.91-2.94c.26-.27-.32-1.42-.32-1.85l0,0c-.5-1-.32-2.21-.79-3.16,0,0,.12,0,.19.26-.22-.72-.54-1.71-.38-1.81a35.21,35.21,0,0,0-1.57-5.26l.07.06c-.36-.58-.23-.82-.52-1.51,0,0,0-.1,0-.09a21.24,21.24,0,0,1-.76-2.57l.12-.07-.38-1.38.11.53c-.39-.1,0-1.1-.52-2.06-.19-1-1.18-1.74-1.26-2.76-.27-.43.36.35.07-.32.17-.07.19.3.29.09-.24-.61-.13-1.07-.35-1.76a.51.51,0,0,0,.1-.24,1.16,1.16,0,0,0-.24-.65h0c-.22-.36-.54-.71-.68-.94-.46,0-1.06.34-1.43.09-.45.46-1,0-1.59,0-.31,0-.64.19-.9.22s-.33-.44-.77,0a1,1,0,0,0-.25.82s0,0,0,0v.31l-.3.42c-.15.5.14.42-.09,1-.11-.07-.26.68-.29.33-.49,1.23-.37,2.65-1.08,4.24.14.43-.21,1.24-.1,1.55-.11,0-.42,1.69-.41.69,0-.09,0-.23.08-.21l-.11-.15c-.48.9-.28,1.77-.55,2.71.12-.27.19-.64.22-.38l-.23.88-.07-.21-.38,1.3.18-.15c-.22.62-.51.79-.49,1.56,0,.36.34-.56.22.13-.31.83-.76,2.08-1.07,3.17.18-.07.11.22.07.53h-.15c-.09,1.21-.41.36-.53,1.55l.14.25c0,1.1-.42.49-.33,1.73.09-.46.36-.14.16.4l-.1-.16a3,3,0,0,1-.09.63c0-.21-.17-.15-.26.32l-.1-.35.05.93c-.31.63-.39,1.73-.64,2a5.87,5.87,0,0,0-.32,1.79c-.06-.32-.29.46-.39.2a4.11,4.11,0,0,1-.35,1.93v-.08c-.55,1.59-.46,2.83-1,4.24.07,0,.06.13.06.27a2.46,2.46,0,0,0-.11.66,2.26,2.26,0,0,0,0,.26c0,.6-.09.66.54.85a1.36,1.36,0,0,0,.29.06c.12.17.2.27.15.22h0l.54.06.94.19a2,2,0,0,0,1.11,0c.58.15,1.24.23,1.39-.57a.78.78,0,0,0,0-.41c.05-.11.09-.19.12-.27a2.93,2.93,0,0,0,.23-.43v.17c.23-1.31.31-1.69.54-2.64.05-.49-.23-.63,0-1.48.05.3.11-.05.19-.37,0,.21,0,.28.17-.12a1.06,1.06,0,0,1,0-.26h0c.08-.55,0-.47,0-.21,0,0-.05,0-.1.06.28-.52.34-1.55.56-1.57.08-.41.13-.79.19-1.15v-.06a1.9,1.9,0,0,0,.33-.59.8.8,0,0,1-.23,0l0-.17c0-.09.1-.19.14-.28a3.26,3.26,0,0,0,.23-1,.56.56,0,0,1-.09.17.57.57,0,0,1,0-.13l.07-.31a1,1,0,0,0,.07-.26s0,0,0,.06l.56-2.49c-.05-.2.08-.27,0-.55,0,0,.05,0,.06,0a1.25,1.25,0,0,1,0-.19,1.18,1.18,0,0,0,.09-.49,1.27,1.27,0,0,0,.09-.42l.12,0,.12-.57-.09.2c-.31-.16.33-.37.2-.84.15-.37-.51-1-.24-1.31-.11-.23.22.23.17-.09.17,0,.07.16.23.13,0-.3.3-.42.26-.79l.14,0c-.14-.52.4-.8.23-1.16,0-.49.48-.22.33-.77l.24-.13c.07-.2-.19-.21-.05-.42.11,0,.16-.27.25-.1.31-.48,0-1.12.47-1.73-.19-.2,0-.51-.11-.67.1,0,.18-.68.31-.24,0,0,0,.09,0,.08l.12.08c.35-.33,0-.74.17-1.12-.08.11-.1.26-.17.13l.11-.35.09.1.2-.51-.16,0c.15-.24.4-.28.28-.63-.08-.16-.25.21-.23-.08s.23-.41.35-.66l.16,0c.1.27-.06.37-.06.52l0-.06a6.07,6.07,0,0,1,.3,1.06c.1.17.41.13.42.5-.14-.08-.09,0-.06.18,0-.08-.08-.09-.12.1,0,0,.07,0,.1.08h0c.1.21.13.16.12.06s0,0,.06-.05c-.09.26.17.62,0,.7a16.9,16.9,0,0,0,.74,1.58c-.09.09-.22,0-.29-.16l.13.37c-.15,0-.14-.2-.2-.31-.13.52.47.89.38,1.48l.15.09v0c.06,0,.17.08.21.16-.11.1-.3.06-.23.33s.21.58.35.84c0-.15.07-.12.13-.07s-.08.24,0,.33l-.18.06c.16-.1.27.3.35.34-.12.1-.17-.19-.27-.2.15.54.08.27.22.8.2.26.15-.09.33,0,.1.25.29.46.26.78l.12-.13a1.42,1.42,0,0,1,.21,1.09c.18.28.34.5.49.69l.47,1.93.26,4.51a.51.51,0,0,1,0,.09c0,.15,0,.23.08.31s.07.34.23,1,.14-.17.37.14a9,9,0,0,1,.49,1.92l.1-.26a8,8,0,0,1,.55,2.67c.19.47.35.89.51,1.27l0,.1c.11.45,0,2,.36,2.22s1.52-.09,1.91-.14c.56-.08,1.75.1,2-.48a7.58,7.58,0,0,0-.3-1.89"/></g></g></g></g></svg>