<svg id="a6228be3-5aa2-4afe-8fb4-d016112331ac" data-name="Warstwa 2" xmlns="http://www.w3.org/2000/svg" viewBox="0 0 164 164"><defs><style>.a9a04b2a-d86c-45b2-9cfb-59519f278a78,.e063de3b-82af-4ebb-bb3a-feeff066f49b{fill:#ba2a4d;}.bce721ab-775f-46ac-8b0f-7e1613af9629{fill:#fff;}.e063de3b-82af-4ebb-bb3a-feeff066f49b{fill-rule:evenodd;}</style></defs><title>logotypy</title><rect class="a9a04b2a-d86c-45b2-9cfb-59519f278a78" width="164" height="164"/><polygon id="fdfaa82e-c8c8-4f6c-b931-7a81055a184f" data-name=" 291207632" class="bce721ab-775f-46ac-8b0f-7e1613af9629" points="49.112 49.5 112.75 49.5 112.75 80.307 49.112 80.307 49.112 49.5"/><path id="f9751f15-36f1-437f-8e7a-c65e05899ac4" data-name=" 291209000" class="e063de3b-82af-4ebb-bb3a-feeff066f49b" d="M73.79553,55.34241h14.2703V74.00224H73.79553V55.34241Zm15.31024,0h14.26855V74.00224H89.10577Zm3.087,3.072V71.12935h2.58286v-3.883l.5573.01966c3.48024,0,5.18917-2.24928,5.18917-4.48,0-2.1942-1.65578-4.37159-4.95138-4.37159H92.19279Zm2.57788,2.4606h.932c1.47662.02207,2.21193.51994,2.31687,1.984-.09047,1.519-.95423,2.0017-2.44,2.02691h-.80883V60.87506ZM80.92924,71.51527,75.02157,58.26258H77.8901l2.93642,6.70257.10273.39822.10408-.40347,2.9357-6.69732h2.87L80.92925,71.51527ZM70.565,60.87752v-2.4596h-9.8891v2.4596h3.5725V71.12935h2.7433V60.87752H70.565ZM58.48644,55.34239H72.75507V74.00222H58.48644V55.34239Zm-1.04178-.92313H104.4162V74.9256H57.44466V54.41926Z"/><path id="a1962320-10ce-4320-bb26-69da6ea94962" data-name=" 291208832" class="bce721ab-775f-46ac-8b0f-7e1613af9629" d="M120.969,87.55858l-4.20537,1.31182v5.35114h-3.22287v3.66588h3.22287v9.0588a7.48031,7.48031,0,0,0,3.36107,6.51362,6.74749,6.74749,0,0,0,3.49151.99077h2.24619v-4.18838h-2.24619c-1.09387,0-2.64719-.90793-2.64719-3.316v-9.0588h4.89339V94.22155H120.968l.001-6.663Z"/><polygon id="a5e23a05-c12b-4599-885f-3d68f6842e3d" data-name=" 291208496" class="bce721ab-775f-46ac-8b0f-7e1613af9629" points="84.386 114.387 88.667 114.387 88.667 93.198 84.386 93.198 84.386 114.387"/><path id="aa4cd418-0b12-4775-a716-16b9b41aa8e2" data-name=" 291208712" class="bce721ab-775f-46ac-8b0f-7e1613af9629" d="M137.89326,110.65867a6.82948,6.82948,0,1,1,6.4981-6.82176A6.66631,6.66631,0,0,1,137.89326,110.65867Zm.02323-17.46688c-7.54746,0-10.62319,6.219-10.62319,10.65668,0,4.35547,2.78262,10.62266,9.86894,10.62266a10.60457,10.60457,0,0,0,7.05887-2.87776v2.79443H148.5V103.84847c0-7.94317-6.7844-10.65667-10.58351-10.65667Z"/><polygon id="bfc9bc96-f795-4046-9b79-110eea9880cc" data-name=" 291208856" class="bce721ab-775f-46ac-8b0f-7e1613af9629" points="38.595 84.554 32.821 84.554 19.856 97.494 19.856 84.524 15.5 84.525 15.5 114.343 19.856 114.343 19.856 103.219 22.325 100.756 32.377 114.345 37.61 114.345 25.353 97.742 38.595 84.554"/><path id="bec8a785-0bfe-4271-be0e-c028c2ccfa7c" data-name=" 291208304" class="bce721ab-775f-46ac-8b0f-7e1613af9629" d="M86.51549,85.034a2.70047,2.70047,0,1,0,2.71009,2.70052A2.70556,2.70556,0,0,0,86.51549,85.034Z"/><path id="fc343486-5265-4ef3-84e7-79f86208f3f2" data-name=" 291209696" class="bce721ab-775f-46ac-8b0f-7e1613af9629" d="M46.65839,110.64359c-3.89585,0-6.49809-3.0604-6.49809-6.83609a6.53575,6.53575,0,0,1,6.49809-6.83616,6.60358,6.60358,0,0,1,6.498,6.83616C53.15634,107.58319,50.53237,110.64359,46.65839,110.64359Zm-.044-17.463a10.65981,10.65981,0,0,0,0,21.31938,10.65981,10.65981,0,0,0,0-21.31938Z"/><path id="b499dc7b-70e0-4b9a-8528-0b0fc78a80ad" data-name=" 291209048" class="bce721ab-775f-46ac-8b0f-7e1613af9629" d="M70.62905,110.65657a6.83556,6.83556,0,1,1,6.46981-6.82594A6.61181,6.61181,0,0,1,70.62905,110.65657Zm-.01311-17.43889a10.56192,10.56192,0,0,0-6.30375,2.819V84.48957l-4.306-.00668v19.32456a10.55032,10.55032,0,0,0,10.60979,10.69243A10.66767,10.66767,0,0,0,81.259,103.80745c0-5.905-4.222-10.95463-10.64306-10.58981Z"/><path id="fcf71afc-8438-4cd1-8254-23dd9b76fdc6" data-name=" 291209360" class="bce721ab-775f-46ac-8b0f-7e1613af9629" d="M96.0619,101.89441a6.1117,6.1117,0,0,1,6.11668-5.11278,5.58717,5.58717,0,0,1,5.90547,5.11278H96.0619Zm6.24121-8.73555c-6.17888,0-10.27249,4.68257-10.27249,10.49857a10.36531,10.36531,0,0,0,10.45613,10.7332,11.76561,11.76561,0,0,0,7.64471-2.47615l-2.77079-2.62926a8.46132,8.46132,0,0,1-4.52246,1.47552,6.77776,6.77776,0,0,1-6.846-5.44541h16.01929s.00947-1.073.00947-1.60768c0-5.8378-3.05488-10.54875-9.718-10.54875Z"/></svg>