<svg xmlns="http://www.w3.org/2000/svg" viewBox="0 0 283.46 283.46"><defs><style>.cls-1{fill:#fe000c;}.cls-2{fill:#fff;}</style></defs><title>tvpolonia</title><g id="Layer_2" data-name="Layer 2"><g id="TVP"><g id="tvpolonia"><rect class="cls-1" width="283.46" height="283.46"/><g id="logo"><path class="cls-2" d="M70.11,89.46v62.76H213.35V89.46Zm46.69,59.93H73.29V92.28H116.8Zm46.69,0H120V92.28h43.51Zm46.69,0H166.66V92.28h43.52Z"/><path class="cls-2" d="M184,128.72l1.7.06c10.62,0,15.83-6.89,15.83-13.71s-5-13.38-15.1-13.38H176.07V140.6H184Zm0-19.5h2.84c4.5.07,6.75,1.59,7.07,6.07-.28,4.65-2.91,6.13-7.45,6.2h-2.46Z"/><polygon class="cls-2" points="159.75 101.22 151 101.22 142.05 121.72 141.73 122.95 141.42 121.73 132.46 101.22 123.72 101.22 141.73 141.78 159.75 101.22"/><polygon class="cls-2" points="90.86 140.6 99.23 140.6 99.23 109.22 110.13 109.22 110.13 101.69 79.97 101.69 79.97 109.22 90.86 109.22 90.86 140.6"/><g id="g4436"><path id="_144442200" data-name=" 144442200" class="cls-2" d="M211.05,192.9l14.88-30.12h.45l14.56,30.12h-7.29l-1.85-4.25H220l-1.89,4.25ZM222,183.61h7.67l-3.79-9.15Z"/><polygon id="_144439752" data-name=" 144439752" class="cls-2" points="197.75 163.68 204.72 163.68 204.72 192.9 197.75 192.9 197.75 163.68"/><polygon id="_144443616" data-name=" 144443616" class="cls-2" points="169.17 192.9 162.74 192.9 162.74 162.74 163.41 162.74 181.6 179.78 181.6 163.68 188.03 163.68 188.03 194 187.42 194 169.17 176.96 169.17 192.9"/><path id="_144444360" data-name=" 144444360" class="cls-2" d="M125.81,178.29a16.43,16.43,0,0,1,1.12-6.09,14.45,14.45,0,0,1,3.3-5,14.3,14.3,0,0,1,4.77-3.27,14.8,14.8,0,0,1,11.39,0,14.75,14.75,0,0,1,4.86,3.3,14.6,14.6,0,0,1,3.23,5,16.82,16.82,0,0,1,1.11,6.11,17.11,17.11,0,0,1-.77,5.2,14.1,14.1,0,0,1-2.27,4.37,14.66,14.66,0,0,1-5.24,4.41,14.53,14.53,0,0,1-17.08-2.88,15.09,15.09,0,0,1-3.29-5.06,16.21,16.21,0,0,1-1.13-6Zm7.17,0a9.35,9.35,0,0,0,2.24,6.37,7.14,7.14,0,0,0,11,0,10.38,10.38,0,0,0,0-12.82,7.18,7.18,0,0,0-11,0,9.5,9.5,0,0,0-2.22,6.42Z"/><polygon id="_144447768" data-name=" 144447768" class="cls-2" points="111.26 186.63 122.64 186.63 122.64 192.9 104.29 192.9 104.29 163.68 111.26 163.68 111.26 186.63"/><path id="_144444264" data-name=" 144444264" class="cls-2" d="M67.36,178.29a16.43,16.43,0,0,1,1.12-6.09,14.45,14.45,0,0,1,3.3-5,14.3,14.3,0,0,1,4.77-3.27,14.8,14.8,0,0,1,11.39,0,14.75,14.75,0,0,1,4.86,3.3,14.6,14.6,0,0,1,3.23,5,16.82,16.82,0,0,1,1.11,6.11,17.11,17.11,0,0,1-.77,5.2,14.1,14.1,0,0,1-2.27,4.37,14.66,14.66,0,0,1-5.24,4.41,14.53,14.53,0,0,1-17.08-2.88,15.09,15.09,0,0,1-3.29-5.06,16.21,16.21,0,0,1-1.13-6Zm7.17,0a9.35,9.35,0,0,0,2.24,6.37,7.14,7.14,0,0,0,11,0,10.38,10.38,0,0,0,0-12.82,7.18,7.18,0,0,0-11,0A9.5,9.5,0,0,0,74.53,178.29Z"/><path id="_144444096" data-name=" 144444096" class="cls-2" d="M42.52,192.9V163.68H50a23.78,23.78,0,0,1,5.48.5,9.93,9.93,0,0,1,3.62,1.68,8.38,8.38,0,0,1,2.52,3,8.27,8.27,0,0,1,.91,3.79,8.62,8.62,0,0,1-3.15,7q-3.16,2.61-8.56,2.61H49.49V192.9ZM50.44,169h-.95v7.8h1.27a6.75,6.75,0,0,0,4-1,3.41,3.41,0,0,0,1.39-2.93A3.28,3.28,0,0,0,54.81,170a5.56,5.56,0,0,0-1.78-.69,12.08,12.08,0,0,0-2.59-.24Z"/></g></g></g></g></g></svg>