<svg id="e1335be0-5312-466e-8118-5be102882587" data-name="Warstwa 2" xmlns="http://www.w3.org/2000/svg" viewBox="0 0 164 164"><defs><style>.a45f28c0-3b17-4d88-a9cf-8f496ff8f04b,.f55ecc98-f557-4681-9a4b-7db87e335626{fill:#536eaf;}.a9605f78-ccb0-4e54-a105-50141431bc17,.f55ecc98-f557-4681-9a4b-7db87e335626{fill-rule:evenodd;}.a9605f78-ccb0-4e54-a105-50141431bc17{fill:#fff;}</style></defs><title>logotypy</title><rect class="a45f28c0-3b17-4d88-a9cf-8f496ff8f04b" width="164" height="164"/><g id="b1a3cf7c-ca53-4096-a6db-94c801a40e82" data-name="Warstwa_1"><g id="e6dc28bc-a490-44fb-9c8d-f9a049d025d0" data-name=" 290054856"><polygon id="bedb19e3-75c0-485a-a4c3-8c8b030b932a" data-name=" 291212360" class="f55ecc98-f557-4681-9a4b-7db87e335626" points="157.25 92.735 52.613 92.735 52.613 71.978 157.25 71.978 157.25 92.735"/><path id="a7c9b436-8217-4f72-ae7f-70ba565e3db4" data-name=" 291212264" class="a9605f78-ccb0-4e54-a105-50141431bc17" d="M7.34611,70.86584v23h151v-23ZM157.25032,92.73476H52.6137V71.97756H157.25032Z"/><path id="b486c909-c0c3-4297-a1b1-e7dd81947cb7" data-name=" 291212192" class="f55ecc98-f557-4681-9a4b-7db87e335626" d="M18.39661,87.01347h2.0027v-7.653h2.6081V77.52336H15.78757v1.83709h2.609v7.653Zm16.48821-9.60492H32.7897l-2.1413,4.9993-.07573.30182-.07534-.298-2.143-5.0031h-2.094L30.57267,87.302l4.31215-9.89343Zm-21.45591-2.8701v15.3092H47.71846V74.53845Zm11.17684,14.62H14.18889V75.22788H24.60575Zm11.17422,0H25.36581V75.22788H35.78Zm11.17827,0H36.54067V75.22788H46.95824Zm-6.27766-5.04214.4072.01312c2.53975,0,3.78741-1.67852,3.78741-3.34482a3.30393,3.30393,0,0,0-3.61489-3.26319H38.79462v9.492h1.886V84.11631Zm-.0031-4.75764h.67994c1.07721.01636,1.61481.38823,1.69262,1.48036-.06708,1.13416-.6979,1.49469-1.78329,1.514h-.58927Z"/><path id="be7d25b5-921c-4ffd-82f4-40e3bad138a9" data-name=" 291212240" class="a9605f78-ccb0-4e54-a105-50141431bc17" d="M66.72947,80.005a3.41829,3.41829,0,0,1-1.20619,2.74119,4.92758,4.92758,0,0,1-3.3009,1.027q-.34916,0-.52378-.01628v4.18883H59.01652V76.49561H61.9049a5.84568,5.84568,0,0,1,3.50745.85712A3.144,3.144,0,0,1,66.72947,80.005Zm-2.44948.0971q0-1.504-2.2117-1.50425h-.36595v3.05669h.49311q2.08428,0,2.08455-1.55244Z"/><path id="bc935e22-49ce-47b2-8a4c-a3540989218f" data-name=" 291212312" class="a9605f78-ccb0-4e54-a105-50141431bc17" d="M77.03571,87.94575h-2.809l-.71419-1.66468H68.95768l-.72985,1.66468h-2.698l5.72916-11.805h.17444l5.60224,11.805ZM72.6874,84.31109,71.22716,80.7208l-1.49187,3.59029Z"/><path id="f2bc432c-7779-44b8-8357-d021f80d2403" data-name=" 291211448" class="a9605f78-ccb0-4e54-a105-50141431bc17" d="M87.02109,87.94575H83.95788l-2.99965-4.49616h-.38089v4.49616h-2.6027V76.49563H80.863a6.02947,6.02947,0,0,1,3.50793.80845,3.02653,3.02653,0,0,1,1.31687,2.55532A3.24,3.24,0,0,1,83.593,83.02922l3.42806,4.91654ZM83.223,80.13424a1.33219,1.33219,0,0,0-.53221-1.1966,3.07772,3.07772,0,0,0-1.67569-.35583H80.5705v3.16982h.57178q2.08083,0,2.08074-1.61739Z"/><polygon id="a5475820-f000-4c9b-8ea3-9cc9741da46a" data-name=" 291211424" class="a9605f78-ccb0-4e54-a105-50141431bc17" points="95.118 87.946 88.055 87.946 88.055 76.492 90.738 76.492 90.738 85.487 95.118 85.487 95.118 87.946"/><path id="af298e8c-b712-476e-8875-f1d39b1cc217" data-name=" 291211736" class="a9605f78-ccb0-4e54-a105-50141431bc17" d="M106.96466,87.94575h-2.809l-.71419-1.66468H98.88663l-.72992,1.66468h-2.6979l5.72908-11.805h.17452l5.60225,11.805Zm-4.34838-3.63466-1.46017-3.59029-1.49187,3.59029Z"/><polygon id="a099cd3f-4f8d-48f5-9689-4266fb115b96" data-name=" 291211688" class="a9605f78-ccb0-4e54-a105-50141431bc17" points="120.799 87.946 118.244 87.946 117.292 82.727 114.277 88.373 114.102 88.373 110.865 82.646 109.881 87.946 107.484 87.946 109.817 76.125 110.007 76.125 114.245 83.584 118.244 76.125 118.45 76.125 120.799 87.946"/><polygon id="ee9d146b-e999-407c-b6ce-af04f10ea1d5" data-name=" 291211928" class="a9605f78-ccb0-4e54-a105-50141431bc17" points="129.269 87.946 122.282 87.946 122.282 76.492 129.206 76.492 129.206 78.859 124.889 78.859 124.889 80.921 128.587 80.921 128.587 83.273 124.889 83.273 124.889 85.533 129.269 85.533 129.269 87.946"/><polygon id="fc8796df-21a5-496d-87b2-c1c358dd07c6" data-name=" 291211832" class="a9605f78-ccb0-4e54-a105-50141431bc17" points="141.049 88.389 140.811 88.389 133.796 81.707 133.796 87.946 131.323 87.946 131.323 76.125 131.577 76.125 138.577 82.807 138.577 76.492 141.049 76.492 141.049 88.389"/><polygon id="b5441735-4861-4715-9b57-3596f2189150" data-name=" 291211640" class="a9605f78-ccb0-4e54-a105-50141431bc17" points="151.993 78.89 148.439 78.89 148.439 87.946 145.756 87.946 145.756 78.89 142.185 78.89 142.185 76.492 151.993 76.492 151.993 78.89"/></g></g></svg>