<?xml version="1.0" encoding="UTF-8" standalone="no"?>
<!-- Created with Inkscape (http://www.inkscape.org/) -->

<svg
   xmlns:dc="http://purl.org/dc/elements/1.1/"
   xmlns:cc="http://creativecommons.org/ns#"
   xmlns:rdf="http://www.w3.org/1999/02/22-rdf-syntax-ns#"
   xmlns:svg="http://www.w3.org/2000/svg"
   xmlns="http://www.w3.org/2000/svg"
   xmlns:sodipodi="http://sodipodi.sourceforge.net/DTD/sodipodi-0.dtd"
   xmlns:inkscape="http://www.inkscape.org/namespaces/inkscape"
   width="113.50626mm"
   height="16.933331mm"
   viewBox="0 0 113.50626 16.93333"
   version="1.1"
   id="svg8"
   inkscape:version="0.92.2 (5c3e80d, 2017-08-06)"
   sodipodi:docname="tvpparl.svg">
  <defs
     id="defs2" />
  <sodipodi:namedview
     id="base"
     pagecolor="#ffffff"
     bordercolor="#666666"
     borderopacity="1.0"
     inkscape:pageopacity="0.0"
     inkscape:pageshadow="2"
     inkscape:zoom="1"
     inkscape:cx="553.61546"
     inkscape:cy="109.37933"
     inkscape:document-units="mm"
     inkscape:current-layer="layer1"
     showgrid="false"
     inkscape:window-width="1920"
     inkscape:window-height="1018"
     inkscape:window-x="-8"
     inkscape:window-y="-8"
     inkscape:window-maximized="1"
     showguides="true"
     fit-margin-top="0"
     fit-margin-left="0"
     fit-margin-right="0"
     fit-margin-bottom="0">
    <inkscape:grid
       type="xygrid"
       id="grid4513"
       originx="-28.927777"
       originy="-173.56666" />
  </sodipodi:namedview>
  <metadata
     id="metadata5">
    <rdf:RDF>
      <cc:Work
         rdf:about="">
        <dc:format>image/svg+xml</dc:format>
        <dc:type
           rdf:resource="http://purl.org/dc/dcmitype/StillImage" />
        <dc:title />
      </cc:Work>
    </rdf:RDF>
  </metadata>
  <g
     inkscape:label="Layer 1"
     inkscape:groupmode="layer"
     id="layer1"
     transform="translate(-28.927779,-106.5)">
    <path
       style="font-style:normal;font-variant:normal;font-weight:normal;font-stretch:normal;font-size:medium;line-height:1.25;font-family:'Geometr415 Blk BT';-inkscape-font-specification:'Geometr415 Blk BT';letter-spacing:0px;word-spacing:0px;fill:#0f6ead;fill-opacity:1;stroke:none;stroke-width:0.29894486"
       inkscape:connector-curvature="0"
       id="path4498"
       d="m 70.027969,112.2869 h -0.274422 v 2.2596 h 0.367843 q 0.764877,0 1.167753,-0.29193 0.402873,-0.29778 0.402873,-0.85247 0,-0.57803 -0.397035,-0.84662 -0.397037,-0.26858 -1.267012,-0.26858 z M 67.733334,119.2 v -8.46621 h 2.177858 q 1.00427,0 1.593984,0.14597 0.589716,0.14597 1.045141,0.49045 0.472939,0.34449 0.729844,0.86414 0.262745,0.51381 0.262745,1.09185 0,1.28453 -0.916687,2.03773 -0.910846,0.7532 -2.475637,0.7532 -0.163484,0 -0.245228,0 -0.08174,-0.006 -0.151807,-0.0117 v 3.09455 z" />
    <path
       style="font-style:normal;font-variant:normal;font-weight:normal;font-stretch:normal;font-size:medium;line-height:1.25;font-family:'Geometr415 Blk BT';-inkscape-font-specification:'Geometr415 Blk BT';letter-spacing:0px;word-spacing:0px;fill:#0f6ead;fill-opacity:1;stroke:none;stroke-width:0.29894486"
       inkscape:connector-curvature="0"
       id="path4500"
       d="m 75.831703,116.50833 h 2.224571 l -1.097689,-2.6508 z m -3.164612,2.69167 4.31485,-8.72896 h 0.128451 l 4.22143,8.72896 h -2.113633 l -0.537168,-1.23198 H 75.247828 L 74.698983,119.2 Z" />
    <path
       style="font-style:normal;font-variant:normal;font-weight:normal;font-stretch:normal;font-size:medium;line-height:1.25;font-family:'Geometr415 Blk BT';-inkscape-font-specification:'Geometr415 Blk BT';letter-spacing:0px;word-spacing:0px;fill:#0f6ead;fill-opacity:1;stroke:none;stroke-width:0.29894486"
       inkscape:connector-curvature="0"
       id="path4502"
       d="m 84.274561,112.27522 h -0.33281 v 2.34719 h 0.42623 q 0.764877,0 1.167753,-0.30946 0.402874,-0.30945 0.402874,-0.88749 0,-0.60723 -0.391197,-0.87582 -0.391196,-0.27442 -1.27285,-0.27442 z M 81.979926,119.2 v -8.46621 h 2.177858 q 1.045141,0 1.61734,0.14013 0.578036,0.13429 1.021784,0.45542 0.47294,0.33865 0.729844,0.84078 0.262746,0.4963 0.262746,1.05098 0,0.79992 -0.408715,1.40131 -0.402873,0.60139 -1.167753,0.94004 L 88.793767,119.2 h -2.306315 l -2.259601,-3.32226 h -0.2861 V 119.2 Z" />
    <path
       style="font-style:normal;font-variant:normal;font-weight:normal;font-stretch:normal;font-size:medium;line-height:1.25;font-family:'Geometr415 Blk BT';-inkscape-font-specification:'Geometr415 Blk BT';letter-spacing:0px;word-spacing:0px;fill:#0f6ead;fill-opacity:1;stroke:none;stroke-width:0.29894486"
       inkscape:connector-curvature="0"
       id="path4504"
       d="m 89.593678,119.2 v -8.46621 h 2.020213 v 6.65035 h 3.298904 V 119.2 Z" />
    <path
       style="font-style:normal;font-variant:normal;font-weight:normal;font-stretch:normal;font-size:medium;line-height:1.25;font-family:'Geometr415 Blk BT';-inkscape-font-specification:'Geometr415 Blk BT';letter-spacing:0px;word-spacing:0px;fill:#0f6ead;fill-opacity:1;stroke:none;stroke-width:0.29894486"
       inkscape:connector-curvature="0"
       id="path4506"
       d="m 98.509475,116.50833 h 2.224565 l -1.097683,-2.6508 z m -3.164612,2.69167 4.314848,-8.72896 h 0.128453 L 104.00959,119.2 h -2.11363 l -0.53717,-1.23198 H 97.925597 L 97.376752,119.2 Z" />
    <path
       style="font-style:normal;font-variant:normal;font-weight:normal;font-stretch:normal;font-size:medium;line-height:1.25;font-family:'Geometr415 Blk BT';-inkscape-font-specification:'Geometr415 Blk BT';letter-spacing:0px;word-spacing:0px;fill:#0f6ead;fill-opacity:1;stroke:none;stroke-width:0.29894486"
       inkscape:connector-curvature="0"
       id="path4508"
       d="m 104.2669,119.2 1.75747,-8.74064 h 0.14597 l 3.1938,5.5118 3.01281,-5.5118 h 0.15181 L 114.2979,119.2 h -1.92095 l -0.71817,-3.86526 -2.27128,4.17471 h -0.13429 l -2.4406,-4.2331 -0.74153,3.92365 z" />
    <path
       style="font-style:normal;font-variant:normal;font-weight:normal;font-stretch:normal;font-size:medium;line-height:1.25;font-family:'Geometr415 Blk BT';-inkscape-font-specification:'Geometr415 Blk BT';letter-spacing:0px;word-spacing:0px;fill:#0f6ead;fill-opacity:1;stroke:none;stroke-width:0.29894486"
       sodipodi:nodetypes="cccccccccccccc"
       inkscape:connector-curvature="0"
       id="path4510"
       d="m 115.23754,119.2 v -8.46621 h 0.30505 4.90897 v 1.74579 h -3.25219 v 1.52976 h 2.78509 v 1.73411 h -2.78509 v 1.67573 h 3.2989 V 119.2 Z" />
    <path
       style="font-style:normal;font-variant:normal;font-weight:normal;font-stretch:normal;font-size:medium;line-height:1.25;font-family:'Geometr415 Blk BT';-inkscape-font-specification:'Geometr415 Blk BT';letter-spacing:0px;word-spacing:0px;fill:#0f6ead;fill-opacity:1;stroke:none;stroke-width:0.29894486"
       inkscape:connector-curvature="0"
       id="path4512"
       d="m 122.03387,119.2 v -8.74064 h 0.19267 l 5.27241,4.9396 v -4.66517 h 1.86257 v 8.78734 h -0.17517 l -5.28992,-4.93959 V 119.2 Z" />
    <path
       style="font-style:normal;font-variant:normal;font-weight:normal;font-stretch:normal;font-size:medium;line-height:1.25;font-family:'Geometr415 Blk BT';-inkscape-font-specification:'Geometr415 Blk BT';letter-spacing:0px;word-spacing:0px;fill:#0f6ead;fill-opacity:1;stroke:none;stroke-width:0.29894486"
       inkscape:connector-curvature="0"
       id="path4514"
       d="m 133.02827,119.2 v -6.69707 h -2.69168 v -1.76914 h 7.39188 v 1.76914 h -2.67999 V 119.2 Z" />
    <path
       style="fill:#0f6ead;fill-opacity:1;stroke-width:0.35277775"
       d="M 28.927779,106.5 H 142.43404 v 16.93333 H 28.927779 Z m 112.712521,0.88194 -78.493077,-0.1794 v 15.43704 H 141.6403 c -1e-5,0.0881 0,-15.25764 0,-15.25764 z m -82.726411,1.76389 H 33.161112 v 11.2007 H 58.913889 Z M 33.866668,109.675 h 7.672915 v 10.23055 h -7.672915 z m 4.762499,3.17506 h 1.852083 v -1.41111 h -5.556249 v 1.41111 h 1.852082 v 5.64444 h 1.852084 z M 42.06875,109.675 h 7.9375 v 10.23055 h -7.9375 z m 5.55625,1.85208 c -0.474748,1.18178 -1.046398,2.41975 -1.5875,3.57187 -0.568101,-1.14629 -1.066897,-2.40365 -1.5875,-3.57187 h -1.5875 l 3.175,7.07913 3.175,-7.07913 z m 2.910417,-1.85208 c 0,0 5.144675,0.0668 7.672916,0 v 10.23052 h -7.672916 z m 3.086805,6.61458 c 1.940278,0 3.175001,-0.79375 3.175001,-2.40685 0,-1.82648 -1.234723,-2.35565 -3.175001,-2.35565 h -1.411111 v 6.96736 h 1.411111 z m 0,-3.43958 c 1.146528,0 1.675695,0.26458 1.675695,1.05833 0,0.79375 -0.529167,1.05834 -1.675695,1.05753 z"
       id="path4496-3"
       inkscape:connector-curvature="0"
       sodipodi:nodetypes="ccccccccccccccccccccccccccccccccccccccccccccccccccccccccc" />
    <flowRoot
       xml:space="preserve"
       id="flowRoot4515"
       style="font-style:normal;font-variant:normal;font-weight:normal;font-stretch:normal;font-size:40px;line-height:1.25;font-family:DINPro;-inkscape-font-specification:DINPro;letter-spacing:0px;word-spacing:0px;fill:#000000;fill-opacity:1;stroke:none"><flowRegion
         id="flowRegion4517"><rect
           id="rect4519"
           width="593.96973"
           height="262.63965"
           x="127.27922"
           y="296.2149" /></flowRegion><flowPara
         id="flowPara4521" /></flowRoot>  </g>
</svg>
