<svg id="befae5b4-dc8a-4b3d-bdae-f9761206766f" data-name="Warstwa 2" xmlns="http://www.w3.org/2000/svg" viewBox="0 0 164 164"><defs><style>.ae8af76c-e25f-4f72-9323-ee5dc5e465ad{fill:#ec1c2d;}.a2600ea9-fdf0-46da-b64b-c9ac6c27baac{fill:#fff;}.a2600ea9-fdf0-46da-b64b-c9ac6c27baac,.a70c99c7-47d2-44d1-ad8e-f5fec95768ce{fill-rule:evenodd;}.a70c99c7-47d2-44d1-ad8e-f5fec95768ce{fill:#db2b26;}</style></defs><title>logotypy</title><rect class="ae8af76c-e25f-4f72-9323-ee5dc5e465ad" width="164" height="164"/><g id="b7701fbd-47d1-4d55-993b-4ea1d6507535" data-name="Warstwa_1"><g id="f1cfdf84-fb4c-4d0d-bcb7-3f94407d2ef4" data-name=" 290055960"><path id="adb8cd31-575c-4665-b5d7-66301dc1fdf1" data-name=" 104490776" class="a2600ea9-fdf0-46da-b64b-c9ac6c27baac" d="M19.43125,94.95645l-.14056-.10321-.15-.10321-.15-.09375-.15-.08453-.15939-.09374-.16868-.08453-.16885-.07507L18.175,94.234l-.36574-.14066-.375-.14083-.40308-.12189-.41254-.10321-.44058-.10321-.45-.07507-.46888-.07506-.49675-.05621-.5063-.047-.53442-.02807-.54364-.01885-.56255-.0093H7V115.165h5.21257v-7.99337l.18744.01876.2344.00939H13.7313l.48738-.02815.47825-.03753.45925-.05621.45013-.06576.43112-.08436.422-.09391.41237-.12189.197-.05638.19689-.07506.18744-.0656.18752-.07506.18751-.07506.17815-.08445.18743-.08445.16877-.09382.17814-.09375.15939-.09383.16868-.10321.15939-.10321.15947-.11259.15939-.11251.15-.11268.14993-.122.14064-.12189.14063-.13136.13118-.13136.13127-.13144.13126-.1312.12188-.14082.11251-.13136.11243-.15013.11259-.14065.10314-.15013.09368-.15013.09375-.15.09384-.15012.0843-.15951.075-.15951.075-.15959.07492-.1688.06572-.16881.06563-.169.05626-.16889.04687-.17819.0468-.17828.04688-.17827.03759-.17827.03742-.18758.02813-.18765.02813-.18757.01875-.19712.02813-.394.00937-.40346v-.197l-.00937-.19712-.0093-.18757-.01883-.18766-.028-.18757-.02813-.18773-.02812-.18758-.03759-.17827-.04688-.17819-.0468-.169-.04688-.16889-.05625-.17819-.06563-.15959-.06564-.16881-.075-.1595-.075-.15943-.0843-.1595-.08447-.15013-.09367-.15012-.10314-.15013-.10313-.15-.10314-.14083-.11259-.15012-.12181-.13136-.12188-.14066L20.3032,95.707l-.13134-.13135-.14064-.13136-.14055-.13127-.15-.122-.15-.12206-.15939-.11251Zm-6.2625,8.20912h-.95618v-5.8355h.97493l.25314.00946.24378.01869.24369.01876.225.01877.225.03753.21564.03745.20619.03761.197.04692.18743.0563.17806.05629.16885.06568.16876.0656.14993.07506.15.08445.14055.08453.122.09374.12189.10321.11243.10322.11259.10321.09368.122.08438.1126.0843.13127.06571.13136.06563.14083.05626.14066.04688.15012.0375.15.02813.15958.01875.16881.00929.169.00946.17811-.00946.17827-.00929.17828-.01875.169-.02813.16881-.0375.1595-.03751.15013-.05625.15013-.05626.14065-.06563.13136-.07492.13136-.08447.122-.09367.122-.09385.11259-.11242.11251-.1126.09391-.1218.10321-.13135.08436-.13109.08445-.1501.07506-.15.07506-.16877.06568-.16868.06568-.17814.05638-.17814.04683-.19681.03753-.20627.03753-.20627.03745-.21556.02822-.22511.01868-.23431.00947-.24386.00939-.24369.00929Z"/><path id="b89bb60f-a040-4024-9646-b8ec4bbf29fa" data-name=" 104491616" class="a2600ea9-fdf0-46da-b64b-c9ac6c27baac" d="M44.92192,95.92277l-.20627-.19712-.20627-.20626-.21556-.18773-.20627-.18766-.21573-.17827-.22493-.16881-.21557-.16889-.225-.15-.22493-.15959-.23448-.14066-.22494-.14074-.2344-.13144-.23439-.13119-.24377-.12206-.24369-.11251-.24386-.10322-.24369-.10321-.25306-.09383-.25315-.08444-.25315-.08453-.26252-.075-.26244-.06568-.26253-.06576-.26261-.04683-.27181-.05622-.27182-.03761-.2719-.03745-.28119-.02815-.28128-.01885-.28128-.01876-.28127-.0093-.29057-.00939-.29065.00939-.28128.0093-.28128.00946-.28119.02815L35.622,92.686l-.272.03745-.2719.03761-.26236.04692-.272.05613-.26244.06576-.25315.06568-.26252.075-.25315.07506-.25306.09391-.24378.09383-.24377.09375-.24377.11268-.24369.11251L32.05,93.7649l-.24369.13136-.225.13127-.2344.14083L31.122,94.309l-.225.15013-.225.1595-.21564.16881-.21557.169-.21573.17828-.20627.18757-.20627.18765-.2061.197-.20627.20642-.19689.20642-.197.21572-.18743.2251-.18752.22519-.17814.22527-.16869.22518-.16876.2344-.14993.23466-.15948.23456-.14063.24387-.14064.244-.13126.24387-.12181.25325-.12188.25333-.11251.25334-.10314.25333-.10314.26263-.09375.27211-.08439.26263-.08429.27218-.075.272-.06572.28149-.05617.28148-.05626.28132-.04688.28149-.047.29095-.03742.29078-.02813.30017-.01875.29086-.01867.30025-.00946.30963v.6098l.00946.30025.01867.30016.01875.30025.02813.29086.03742.29078.03759.29095.04688.2814.05625.2814.06555.27219.06572.28148.075.272.075.26263.0843.27219.09384.26254.10314.2628.10313.25326.11243.25333.1218.25334.122.24387.13118.244.13126.24387.15.24387.15.23457.14993.22519.16885.23457.16868.22519.17815.2251.17814.21572.18743.22527.197.21572.19689.20643.20627.20642.20627.20642.21557.18757.21564.18774.21556.17827.21557.17819.2251.1689.21556.1595.23448.15943.22494.14082.2344.14066.23431.14074.2344.122.23439.122.24369.1219.24377.10321.25307.10321.24385.09383.25315.09391.25315.07506.26236.075.25315.07506.26252.05621.2719.0563.26252.05637.27182.03754.2719.03744.28128.02823.27181.02815.28128.00929.28128.00939.29065.00947.3187-.00947.32815-.00939.31878-.02806.30932-.02815.31878-.03761.30932-.0563.30941-.05621.3094-.06576.30941-.08428.30923-.08452.30011-.09374.3-.11268.29995-.11251.29057-.12205.30011-.13128.29057-.14074.29065-.15013.28119-.15951.272-.16889.27181-.1688.27182-.17828.25315-.18766.25315-.197.25314-.20642.24369-.20642.2344-.21572.2344-.2251.225-.23466.22493-.23457.20627-.25325.21556-.25334.20627-.26263.13134-.18766.14056-.197.13126-.197.12181-.19712.122-.197.12189-.197.11242-.20642.1126-.20642.10313-.20643.10314-.20633.09368-.21581.09376-.21572.08438-.21588.08438-.21572.075-.21589.075-.2251.06563-.22519.06563-.2251.05618-.23458.05625-.22519.05634-.23457.0468-.23448.03758-.244.03743-.2344.06563-.48791.047-.4972.028-.50667.00938-.50659-.00938-.3191-.00937-.30016-.00938-.30964-.02813-.30016-.02812-.30025-.02805-.29078-.047-.29086-.04688-.29079-.05617-.28148-.05626-.28149-.06571-.272-.075-.28148-.0843-.27219-.08439-.26263-.09376-.26272-.09376-.26263-.10313-.26272-.11251-.25334-.12181-.25333-.12189-.24387-.13126-.244-.13126-.24387-.15-.24387-.15-.23457-.14993-.22518-.15939-.23457-.16876-.22511-.17814-.22518-.17814-.21589-.18752-.21572-.19681-.20642-.19689-.21572Zm-3.78744,13.144-.20627.23457-.21572.21572-.225.197-.22494.18766-.2344.16889-.24377.15951-.25307.14066-.25314.12205-.25315.11251-.27182.09383-.27182.08445-.272.06576-.28127.05621-.29057.02815-.3.02814-.3.00939-.29994-.00939-.30011-.02814-.29057-.03754-.28128-.04682-.2719-.06576-.27182-.08445-.272-.09383-.25306-.11251-.25315-.13136-.25315-.14082-.23431-.15942-.2344-.16889-.2344-.18758-.22493-.20642-.21565-.21588-.20627-.23449-.20627-.24395-.18751-.24387-.17815-.2628-.1593-.26255-.14993-.27211-.14072-.28148-.12189-.29086-.11251-.30025L31.5906,106.59l-.0843-.30963-.07509-.31893-.05617-.3284-.0468-.32831L31.3,104.95743l-.01883-.34708-.0093-.35654.0093-.35654.01883-.34708.02821-.34708.0468-.33778.05617-.32839.07509-.31893.0843-.319.09376-.30024.11251-.30017.12189-.29078.14072-.28149.14993-.27218.1593-.272.17815-.25333.18751-.25334.20627-.24387.20627-.23457.21565-.21572.22493-.19712.2344-.18757.2344-.17827.23431-.15951.25315-.14066.25315-.122L35.05,97.8835l.272-.10321.27182-.075.2719-.07507.28128-.04691.29057-.03761.30011-.028h.59989l.3.028.29057.03761.28127.04691.272.07507.27182.075.27182.10321.25315.11268.25314.122.25307.14066.24377.15951.2344.17827.22494.18757.225.19712.21572.21572.20627.23457.2061.24387.18752.25334.17814.25333.15947.272.14993.27218.14064.28149.12181.29078.11259.30017.09368.30024.08446.319.07493.31893.05634.32839.04679.33778.03751.34708.01883.34708.0093.35654-.0093.36593-.01883.34716-.03751.34708-.04679.33777-.05634.32832-.07493.319-.08446.30963-.09368.30017-.11259.30025-.12181.29086-.14064.28148-.14993.272-.15947.26272-.17814.26264-.18752.244Z"/><polygon id="f73d6664-9087-4647-ada5-184ab47fa307" data-name=" 104491688" class="a2600ea9-fdf0-46da-b64b-c9ac6c27baac" points="67.413 115.165 53.688 115.165 53.688 93.315 58.9 93.315 58.9 110.474 67.413 110.474 67.413 115.165"/><path id="af311215-0893-4a79-b7a3-8c3cc87df5d2" data-name=" 104492216" class="a2600ea9-fdf0-46da-b64b-c9ac6c27baac" d="M89.26576,95.92277l-.20627-.19712-.20627-.20626-.20627-.18773-.21556-.18766-.21573-.17827-.21556-.16881-.22494-.16889-.21573-.15-.2344-.15959-.225-.14066-.23423-.14074-.2344-.13144-.2344-.13119-.23448-.12206-.24369-.11251-.24369-.10322-.25315-.10321-.25315-.09383-.25307-.08444-.25315-.08453-.25315-.075-.26253-.06568-.26252-.06576-.27191-.04683-.26235-.05622-.272-.03761-.28128-.03745-.27182-.02815-.28128-.01885-.28128-.01876-.29057-.0093-.28128-.00939-.29057.00939-.28128.0093-.28127.00946-.28128.02815-.2812.02815-.2719.03745-.27182.03761-.26252.04692-.27191.05613-.26253.06576-.26244.06568-.25315.075-.25306.07506-.25315.09391-.25316.09383-.24377.09375-.24378.11268-.24369.11251-.23439.11259-.2344.13136-.2344.13127-.225.14083L75.475,94.309l-.225.15013-.225.1595-.21565.16881-.21556.169-.21556.17828-.20627.18757-.20627.18765-.20627.197-.20628.20642-.19689.20642-.19681.21572-.1969.2251-.17814.22519-.17806.22527-.17814.22518-.15947.2344-.15939.23466-.15.23456-.14993.24387-.13126.244-.13118.24387-.13126.25325-.12189.25333-.11251.25334-.10314.25333-.10313.26263-.09376.27211-.08439.26263-.075.27218-.075.272-.075.28149-.05626.28148-.05617.28132-.047.28149-.04688.29095-.02812.29078-.02813.30017-.028.29086-.01884.30025-.00929.30963v.6098l.00929.30025.01884.30016.028.30025.02813.29086.02812.29078.04688.29095.047.2814.05617.2814.05626.27219.06571.28148.075.272.0843.26263.08438.27219.09376.26254.09367.2628.1126.25326.10313.25333.1218.25334.12189.24387.13126.244.14072.24387.14056.24387.15.23457.15939.22519.15931.23457.16877.22519.17814.2251.17814.21572.1969.22527.18743.21572.20627.20643.20628.20642.20627.20642.20627.18757.21556.18774.21565.17827.225.17819.21556.1689.22494.1595.225.15943.2344.14082.225.14066.2344.14074.24369.122.2344.122.24378.1219.24377.10321.24369.10321.25315.09383.25315.09391.25316.07506.26252.075.25315.07506.26236.05621.272.0563.26244.05637.27182.03754.272.03744.27182.02823.28128.02815.28128.00929.28128.00939.29057.00947.31869-.00947.31887-.00939.31869-.02806.31878-.02815.3187-.03761.30941-.0563.3094-.05621.30932-.06576.30941-.08428.29995-.08452.3-.09374.29995-.11268.30011-.11251.3-.12205.29057-.13128.29065-.14074.29057-.15013.28128-.15951.28128-.16889.27181-.1688.26253-.17828.26244-.18766.25315-.197.24386-.20642.24369-.20642.24377-.21572.225-.2251.225-.23466.22494-.23457.21556-.25325.20627-.25334.20627-.26263.14064-.18766.13127-.197.13126-.197.13126-.19712.12189-.197.1218-.197.11259-.20642.10314-.20642.10313-.20643.10314-.20633.09367-.21581.09376-.21572.08439-.21588.0843-.21572.075-.21589.07509-.2251.075-.22519.06554-.2251.05634-.23458.05609-.22519.047-.23457.04679-.23448.04688-.244.03742-.2344.06571-.48791.03742-.4972.02812-.50667.00947-.50659v-.3191l-.00947-.30016-.01866-.30964-.01875-.30016-.02813-.30025-.03758-.29078-.0468-.29086-.04688-.29079-.04688-.28148L92.2,101.27981l-.06555-.272-.075-.28148-.075-.27219L91.9,100.19149l-.09367-.26272-.10313-.26263-.10314-.26272-.11251-.25334-.11251-.25333-.12189-.24387-.13126-.244-.14056-.24387-.14072-.24387-.14993-.23457-.1593-.22518-.15947-.23457-.16877-.22511-.16877-.22518-.18743-.21589-.18752-.21572-.18752-.20642-.20619-.21572Zm-3.77815,13.144-.20627.23457-.21564.21572-.22494.197-.2344.18766-.2344.16889-.24378.15951-.24377.14066-.25315.12205-.26244.11251-.26253.09383-.27182.08445-.2719.06576-.29065.05621-.29057.02815-.29065.02814-.3.00939-.3-.00939-.3-.02814-.29065-.03754-.28128-.04682-.28119-.06576-.27191-.08445-.26244-.09383-.26253-.11251-.25315-.13136-.24369-.14082L78.4,110.06125l-.23431-.16889-.22494-.18758-.22511-.20642L77.5,109.28248l-.21556-.23449-.1969-.24395-.18743-.24387-.17815-.2628-.15947-.26255-.14993-.27211-.14064-.28148-.122-.29086-.11243-.30025-.09367-.30017-.08447-.30963-.07492-.31893-.05633-.3284-.0468-.32831-.03758-.34725-.01875-.34708v-.71308l.01875-.34708.03758-.34708.0468-.33778.05633-.32839.07492-.31893.08447-.319.09367-.30024.11243-.30017.122-.29078.14064-.28149.14993-.27218.15947-.272.17815-.25333.18743-.25334.1969-.24387L77.5,99.197l.21564-.21572.22511-.19712.22494-.18757L78.4,98.41832l.24385-.15951.24369-.14066.25315-.122.26253-.11268.26244-.10321.27191-.075.28119-.07507.28128-.04691.29065-.03761.3-.028h.6l.29065.028.29057.03761.29065.04691.2719.07507.27182.075.26253.10321.26244.11268.25315.122.24377.14066.24378.15951.2344.17827.2344.18757.22494.19712.21564.21572.20627.23457.20628.24387.18743.25334.17806.25333.15947.272.14993.27218.14072.28149.12188.29078.11243.30017.09384.30024.0843.319.07492.31893.05633.32839.0468.33778.02821.34708.01866.34708.00946.35654-.00946.36593-.01866.34716L87.1,105.314l-.0468.33777-.05633.32832-.07492.319-.0843.30963-.09384.30017-.11243.30025L86.5095,107.5l-.14072.28148-.14993.272-.15947.26272-.17806.26264-.18743.244Z"/><polygon id="fd67fa1f-d210-46e0-8f65-d0ed54bba544" data-name=" 104492168" class="a2600ea9-fdf0-46da-b64b-c9ac6c27baac" points="116.847 116 116.379 116 102.747 103.25 102.747 115.165 97.937 115.165 97.937 92.602 98.434 92.602 112.038 105.352 112.038 93.315 116.847 93.315 116.847 116"/><polygon id="ac80e74c-c148-4483-a2a9-5c6ec67697e8" data-name=" 104492144" class="a2600ea9-fdf0-46da-b64b-c9ac6c27baac" points="129.681 115.165 124.469 115.165 124.469 93.315 129.681 93.315 129.681 115.165"/><path id="b31e336c-7bc6-4a38-8d93-b60afc45e6fa" data-name=" 104488976" class="a2600ea9-fdf0-46da-b64b-c9ac6c27baac" d="M146.1157,92.63909h-.347l-11.128,22.526h5.24053l1.41558-3.17112h8.85l1.39692,3.17112H157l-10.88429-22.526Zm-3.30943,15.58328,2.90626-6.84875,2.83127,6.84875h-5.73753Z"/><polygon id="fcc11c2f-3f91-49ec-9223-abb0ff43b68d" data-name=" 104488736" class="a70c99c7-47d2-44d1-ad8e-f5fec95768ce" points="106.75 78.407 106.862 77.637 106.975 76.849 107.078 76.052 107.172 75.245 107.265 74.419 107.35 73.585 107.434 72.749 107.51 71.896 107.659 70.179 107.8 68.434 107.922 66.679 108.054 64.916 108.175 63.152 108.306 61.397 108.447 59.652 108.597 57.935 108.672 57.091 108.756 56.247 108.85 55.412 108.944 54.595 109.038 53.789 109.15 52.982 109.262 52.203 109.375 51.424 107.669 51.246 105.962 51.096 104.247 50.955 102.531 50.843 100.816 50.74 99.091 50.655 97.366 50.589 95.64 50.533 93.916 50.486 92.191 50.449 90.456 50.421 88.732 50.402 85.263 50.374 81.803 50.364 78.335 50.355 74.875 50.327 73.141 50.308 71.416 50.28 69.691 50.242 67.966 50.195 66.241 50.139 64.516 50.073 62.8 49.989 61.084 49.886 59.369 49.773 57.663 49.632 55.947 49.473 54.25 49.304 54.128 50.073 54.016 50.861 53.913 51.659 53.809 52.475 53.716 53.301 53.631 54.126 53.547 54.971 53.463 55.825 53.313 57.541 53.181 59.286 53.05 61.041 52.919 62.805 52.797 64.569 52.666 66.323 52.525 68.068 52.385 69.785 52.3 70.639 52.225 71.483 52.131 72.308 52.037 73.134 51.944 73.95 51.841 74.748 51.738 75.536 51.616 76.305 53.322 76.483 55.038 76.643 56.744 76.774 58.459 76.896 60.184 76.99 61.9 77.075 63.625 77.15 65.35 77.206 67.075 77.243 68.8 77.281 70.525 77.309 72.259 77.328 75.719 77.347 79.188 77.356 82.647 77.365 86.106 77.393 87.841 77.412 89.566 77.431 91.291 77.469 93.016 77.515 94.74 77.572 96.466 77.637 98.181 77.722 99.906 77.825 101.622 77.938 103.328 78.078 105.044 78.228 106.75 78.407"/><path id="ae3943a3-e790-47ea-b436-fb725d40d112" data-name=" 104488880" class="a2600ea9-fdf0-46da-b64b-c9ac6c27baac" d="M90.26868,54.29525v18.7076h14.26876V54.29525H90.26868Zm8.12814,3.16167.46879.15012.46871.20642.41254.26272.38441.26264.3562.32839.3.32832.26244.35654.20627.37523.17815.38469.14993.41285.08446.42214.05626.441.03741.41276-.03741.441-.05626.41284-.11259.45029-.15.37531L101.2,63.9023l-.20619.38469-.30011.34708-.29057.32832-.35628.3284-.41253.26271-.4405.23457-.47817.20642-.49692.17828-.56239.122-.20627.02815-.41254.05622-.62809.02815-.41254-.02815V70.282H93.10941V57.22238h3.54367l.6188.02815.17815.02814.38433.05638.56247.1219Z"/><path id="bf01791d-1c9f-427d-8072-82d9bf261dc7" data-name=" 104489000" class="a2600ea9-fdf0-46da-b64b-c9ac6c27baac" d="M59.1157,54.29525v18.7076H73.38446V54.29525H59.1157Zm12.2251,5.70423h-3.572V70.282H64.73139V59.99948H61.18756V57.22235H71.3408v2.77713Z"/><path id="b73f87eb-6129-4dc8-927d-381889a56b72" data-name=" 104489600" class="a2600ea9-fdf0-46da-b64b-c9ac6c27baac" d="M97.45,48H49.07494V79.85158h65.53125V48Zm8.4093,26.2412H57.79373V53.05679h48.06561V74.2412Z"/><path id="b4d05ca6-257c-44f2-941b-dc8d8a6c02c5" data-name=" 104489744" class="a2600ea9-fdf0-46da-b64b-c9ac6c27baac" d="M74.70635,54.29525v18.7076H88.947V54.29525H74.70635Zm13.1718,2.8052L81.822,70.87311,75.80318,57.10045H78.9626l2.8594,6.708,2.84063-6.708h3.21552Z"/><polygon id="e984e628-77c3-4ad2-b3f5-5a9ffb68887d" data-name=" 104489624" class="a2600ea9-fdf0-46da-b64b-c9ac6c27baac" points="97.272 60.028 97.037 59.999 96.766 59.999 95.997 59.999 95.997 63.724 96.653 63.724 96.916 63.696 97.15 63.696 97.384 63.658 97.45 63.63 97.629 63.602 97.806 63.546 97.975 63.48 98.153 63.396 98.303 63.274 98.453 63.189 98.566 63.039 98.66 62.889 98.744 62.72 98.837 62.542 98.894 62.336 98.922 62.092 98.95 61.829 98.922 61.594 98.894 61.36 98.837 61.153 98.744 60.975 98.688 60.797 98.603 60.647 98.481 60.525 98.36 60.412 98.219 60.29 98.069 60.234 97.891 60.15 97.712 60.084 97.506 60.056 97.45 60.028 97.272 60.028"/></g></g></svg>