<svg id="b8e9125e-cf7a-4231-892d-e2818fe7f9a9" data-name="Warstwa 2" xmlns="http://www.w3.org/2000/svg" viewBox="0 0 164 164"><defs><style>.b40ca7e6-578e-4a58-ae1b-3c1cf290ae39,.e1876784-ee6a-4335-973d-0e092336b125{fill:#f0f;}.a44639dc-8d52-4885-b70c-c88119cbf2bc,.e6763155-77e5-4389-befa-b9da4348652c{fill:#fff;}.a44639dc-8d52-4885-b70c-c88119cbf2bc,.e1876784-ee6a-4335-973d-0e092336b125{fill-rule:evenodd;}</style></defs><title>logotypy</title><rect class="b40ca7e6-578e-4a58-ae1b-3c1cf290ae39" width="164" height="164"/><path id="bc2b5300-2923-48e8-9083-46d7d7d75e2f" data-name=" 291211400" class="e6763155-77e5-4389-befa-b9da4348652c" d="M95.43669,61.02882,97.405,65.78771m29.61206,36.00689-2.04161-4.8886,6.51761-8.174h-6.53968l-5.82878,7.76063,4.05689-12.97122h-5.58141l-7.007,22.663h5.53562L119.006,96.906h.0319c.55545,1.49335,2.98125,7.39672,2.98125,7.39672a2.4622,2.4622,0,0,0,2.636,1.88172h4.68233V102.02h-1.77141c-.29825,0-.43177-.03-.549-.22541Zm11.9786.2623a4.466,4.466,0,1,1,4.45983-4.46712A4.46557,4.46557,0,0,1,138.99567,102.0569ZM143.68315,88.732l-.01018,1.93384a6.3679,6.3679,0,0,0-4.6773-1.93384,8.8579,8.8579,0,1,0,0,17.71542,6.8163,6.8163,0,0,0,4.648-2.058v1.795h4.75314V88.732h-4.71361Zm-35.59128.03711L105.212,98.23592l-2.651-9.46679H98.16633L95.5316,98.29026l-2.89813-9.52113H85.499A2.50423,2.50423,0,0,0,82.83344,90.661s-3.2643,9.26617-3.361,9.65717c-.10141-.39856-3.84032-9.66862-3.84032-9.66862a2.45606,2.45606,0,0,0-2.62875-1.88048h-3.242l-.02227,5.24474h1.26745c.38076,0,.4909.04207.6504.43814l5.45545,12.38145L76.572,108.067a2.871,2.871,0,0,1-2.62614,2.07029A3.51758,3.51758,0,0,1,71.641,109.0227l-.30052-.337-2.03287,3.73679.15978.16854A6.855,6.855,0,0,0,74.188,114.5a7.02811,7.02811,0,0,0,6.69918-4.836l6.37117-16.0665c.13971-.35491.26078-.43064.71125-.43064h.6418L92.567,106.18438h4.838l2.94289-10.94645,2.93649,10.94644h4.84189l5.32441-17.41531h-5.35879ZM34.12776,101.9453a4.4673,4.4673,0,1,1,4.46-4.46725A4.46343,4.46343,0,0,1,34.12776,101.9453Zm0-13.39535A8.92905,8.92905,0,1,0,43.04264,97.478,8.92556,8.92556,0,0,0,34.12776,88.55Zm-11.95268.77521a3.82006,3.82006,0,0,0-1.86711,1.904v-2.46H15.39676v17.4153H20.549v-9.001c0-2.21762,1.10547-3.08289,4.115-3.15483V88.80478h-.1397a5.19416,5.19416,0,0,0-2.34921.52034Zm43.32908,0a3.79883,3.79883,0,0,0-1.8658,1.904v-2.46H58.72481v17.4153H63.878v-9.001c0-2.21762,1.10568-3.08289,4.11608-3.15483V88.80478h-.14177a5.197,5.197,0,0,0-2.34818.52034Zm-21.8396,3.39366H50.9994L43.66456,102.624v3.56048h12.9358v-3.9443H49.78622l6.81414-9.4867V88.76917H43.66456v3.94966Z"/><path id="f0ba86be-2130-466a-a213-922965a3b7bd" data-name=" 291211760" class="e1876784-ee6a-4335-973d-0e092336b125" d="M102.77231,78.43417c1.21768-7.76539,1.26993-17.897,2.48761-25.66237-17.27624-1.91662-35.13768-.10162-52.41392-2.01831-1.21767,7.76539-1.26993,17.89705-2.4876,25.6623C67.63464,78.33248,85.49607,76.51748,102.77231,78.43417Z"/><path id="aac375b4-3292-4043-a7c9-0e035b7df0a9" data-name=" 291211976" class="a44639dc-8d52-4885-b70c-c88119cbf2bc" d="M47.93706,49.5h62.29026V79.804H47.93705V49.5Zm21.1581,11.4075V58.28066H59.43855V60.9075h3.3862v9.77757H65.709V60.9075h3.38617ZM79.08372,64.537l2.69366-6.38725h3.06354L79.08454,71.26543,73.3261,58.14971H76.356Zm10.73689-6.25851V70.68507h2.73394V66.98924l.393.013.6064-.02492.56872-.07208.53091-.1167.49275-.15821.45432-.19676.41575-.23222.377-.2643.33785-.29336.29887-.31931.25968-.34175.22021-.361.18089-.37686.142-.38961.10258-.3991.06346-.40544.02441-.40867-.0143-.40861-.05342-.40544-.09226-.39931-.13112-.38974-.17-.377-.20874-.36131-.24737-.34217L96.82,59.639l-.32438-.294-.36274-.26471-.40062-.2325-.4383-.19717-.47529-.15849-.51214-.11669-.54885-.07222-.5824-.02458-3.35465-.00014Zm2.72982,2.62705h.74446l.24833.00916.2308.02017.21307.03132.1956.0431.17828.055.16136.06747.14493.07993.1296.09308.11543.107.10182.12227.08924.13921.07659.15759.064.17707.05136.19828.03823.21969.02378.23243-.023.24082-.03967.22609-.055.20317-.06978.18162-.08381.161-.09756.142-.11172.1251-.12609.10919-.14108.0948-.15675.08124-.17264.06816-.18887.05556-.205.0433-.22069.03147-.23637.02017-.25164.00964h-.6273v-3.546Zm-35.05579-5.421H71.03908V73.28477H57.49464Zm28.36141,0H72.31154V73.28477H85.85605Zm16.08118-1.1748H56.22637V74.46h45.71086Zm-14.813,1.1748h13.54452V73.28477H87.12424Z"/></svg>