<svg id="ba58341d-6e96-4a83-ae64-966fbcae678c" data-name="Warstwa 2" xmlns="http://www.w3.org/2000/svg" viewBox="0 0 164 164"><defs><style>.b6ab9788-9174-44e4-a17e-cf300512770f{fill:#5a2167;}.ed6853ec-a549-44f8-b8a2-800664c38577{fill:#fff;}.ed6853ec-a549-44f8-b8a2-800664c38577,.f76106c0-4880-4456-b9b3-c17254b23add{fill-rule:evenodd;}.f76106c0-4880-4456-b9b3-c17254b23add{fill:#5d1a67;}</style></defs><title>logotypy</title><rect class="b6ab9788-9174-44e4-a17e-cf300512770f" width="164" height="164"/><path class="ed6853ec-a549-44f8-b8a2-800664c38577" d="M36.50171,100.3058a14.95417,14.95417,0,0,1,2.05121-2.49068,9.14248,9.14248,0,0,1,1.57025-1.25907,3.43537,3.43537,0,0,1,1.06311-.33856,1.48488,1.48488,0,0,1,1.01318.14439q.55621.4851.20156,1.9844a4.22886,4.22886,0,0,1-.98582,1.66979A8.96219,8.96219,0,0,1,39.616,101.4917a13.402,13.402,0,0,1-2.27894,1.162,11.59271,11.59271,0,0,1-2.329.67751,12.38232,12.38232,0,0,1,1.49365-3.02536Zm35.09955-4.47029a3.6872,3.6872,0,0,0-1.51513-.30582c-.09352.002-.1865.00392-.2841.00973a10.9214,10.9214,0,0,0-2.7283.55762,22.89321,22.89321,0,0,0-3.13047,1.28342q-1.584.7859-3.11761,1.72923a25.09508,25.09508,0,0,0-2.67577,1.87221c-.28434.25172-.53967.484-.76913.69423a5.44329,5.44329,0,0,0-.685.78484l-.44708.60975v-.7561c0-.38394.00823-.83761.026-1.36782.01732-.53414.05393-1.07661.108-1.63069q.0796-.82464.18548-1.59127.10748-.7646.215-1.33658a2.246,2.246,0,0,0,.03715-.39854,1.326,1.326,0,0,0-.27955-.85951,2.46049,2.46049,0,0,0-.9195-.73946,2.4088,2.4088,0,0,0-.59415-.07812,2.0435,2.0435,0,0,0-.66009.10835,1.26591,1.26591,0,0,0-.77305.94871q-.21355.63949-.42843,1.21125a8.60145,8.60145,0,0,1-.54845,1.1746.85273.85273,0,0,0-.12253.43129.74.74,0,0,0,.01615.15271.39139.39139,0,0,0,.2892.32333l.18556.063-.01819.19511q-.10771,1.13274-.18454,2.61708-.08043,1.47959-.08028,3.1181v2.87563a1.98286,1.98286,0,0,0-.60254-.54639,1.64186,1.64186,0,0,0-1.34165-.07317q-1.1651.341-2.96356,1.01662-1.796.67744-3.79745,1.259a32.19007,32.19007,0,0,1-4.05051.89563,10.12257,10.12257,0,0,1-3.77354-.07318,2.6012,2.6012,0,0,1-1.67177-.89562,2.47405,2.47405,0,0,1-.40546-1.9117,14.14583,14.14583,0,0,0,3.6982-.84773,18.27656,18.27656,0,0,0,3.59441-1.76543,14.0154,14.0154,0,0,0,2.912-2.4434,7.5111,7.5111,0,0,0,1.69647-2.97661,11.09922,11.09922,0,0,0,.27885-1.71855,6.22562,6.22562,0,0,0-.07589-1.69366,4.48179,4.48179,0,0,0-.557-1.47562,3.144,3.144,0,0,0-1.16511-1.11367,3.7073,3.7073,0,0,0-1.41714-.48342A7.07018,7.07018,0,0,0,41.51542,92.66a7.88531,7.88531,0,0,0-1.51891.29121,9.0024,9.0024,0,0,0-1.34227.50777,6.03585,6.03585,0,0,0-1.26592.79858q-.70954.55836-1.41746,1.23419a19.37972,19.37972,0,0,0-1.54454,1.69366,21.60895,21.60895,0,0,0-3.14065,5.22781,14.909,14.909,0,0,0-.988,3.43466q-.75813,3.91974,1.57025,6.04979a6.425,6.425,0,0,0,3.59707,1.59607,16.17527,16.17527,0,0,0,4.75849.07317,31.02368,31.02368,0,0,0,4.60844-.94391q2.17911-.62926,4.00167-1.33124,1.82315-.701,2.987-1.08831a1.92268,1.92268,0,0,0,.90421-.539c.0083.32584.01787.63951.03088.93026a2.64777,2.64777,0,0,0,.57213,1.73754,1.51437,1.51437,0,0,0,1.14684.55362,1.56542,1.56542,0,0,0,1.13084-.46921,2.44323,2.44323,0,0,0,.59032-1.59025q.10854-.89273.26913-1.69609a7.37035,7.37035,0,0,1,.60419-1.73221,5.45119,5.45119,0,0,1,.94607-1.3288,12.42709,12.42709,0,0,1,1.57636-1.42443q1.1229-.82453,2.37764-1.65166a24.19592,24.19592,0,0,1,2.55222-1.47075q1.28211-.63432,2.43981-1.08492a9.94037,9.94037,0,0,1,2.02564-.57992A1.9652,1.9652,0,0,1,69.5405,99.78a2.03962,2.03962,0,0,1,.43211.04483,4.30313,4.30313,0,0,1,1.1194.44487,1.61841,1.61841,0,0,0,.84589.29954.8954.8954,0,0,0,.336-.0658,1.73218,1.73218,0,0,0,.85883-.83713l.00164-.0044a3.179,3.179,0,0,0,.39433-1.58633,1.98523,1.98523,0,0,0-.65083-1.51417,6.00012,6.00012,0,0,0-1.27659-.72588Z"/><path class="ed6853ec-a549-44f8-b8a2-800664c38577" d="M141.10635,99.98876a14.89119,14.89119,0,0,1,2.0229-2.521,9.00406,9.00406,0,0,1,1.54838-1.27266,3.36151,3.36151,0,0,1,1.0494-.343,1.42942,1.42942,0,0,1,.9997.14683q.54939.491.19968,2.00638a4.297,4.297,0,0,1-.97406,1.68879,8.86408,8.86408,0,0,1-1.77368,1.49266,13.10892,13.10892,0,0,1-2.24877,1.17507,11.3997,11.3997,0,0,1-2.29791.68544,12.56,12.56,0,0,1,1.47437-3.05858ZM157.269,107.599a1.93988,1.93988,0,0,0-.77422-.85605,1.58794,1.58794,0,0,0-1.324-.07411q-1.14959.34459-2.923,1.02973-1.77459.68484-3.74845,1.27172a31.01838,31.01838,0,0,1-3.99594.90536,9.74406,9.74406,0,0,1-3.72267-.07412,2.30088,2.30088,0,0,1-2.04853-2.83848,13.7038,13.7038,0,0,0,3.64732-.85622,17.95616,17.95616,0,0,0,3.54824-1.78772,13.82656,13.82656,0,0,0,2.8716-2.47175,7.65788,7.65788,0,0,0,1.67482-3.00927,11.4999,11.4999,0,0,0,.27494-1.73857,6.4666,6.4666,0,0,0-.07479-1.71125,4.631,4.631,0,0,0-.5501-1.49408,3.1368,3.1368,0,0,0-1.14951-1.12536,3.56954,3.56954,0,0,0-1.398-.48931,6.88747,6.88747,0,0,0-1.52431-.02536,7.68551,7.68551,0,0,0-1.49867.29459,8.77425,8.77425,0,0,0-1.32448.51373,5.91045,5.91045,0,0,0-1.2486.80777q-.70073.56343-1.4,1.24832a19.63152,19.63152,0,0,0-1.52376,1.71164A21.6643,21.6643,0,0,0,137.43393,99.18a22.34783,22.34783,0,0,0-1.4746,2.93665,15.31182,15.31182,0,0,0-.97368,3.47558c-.01842.09955-.02594.19118-.04209.2883a11.07888,11.07888,0,0,0-1.38666.3527q-1.467.46167-2.98151,1.05415-1.51551.59121-2.90256,1.10636a13.68768,13.68768,0,0,1-2.261.66927,3.28167,3.28167,0,0,1-2.02948-.07805,1.95422,1.95422,0,0,1-.89934-1.3635,7.109,7.109,0,0,1-.20462-1.38823,6.84079,6.84079,0,0,1,.0334-2.00733c.3302-2.15274,2.37418-5.43218,2.76961-6.66543a21.33133,21.33133,0,0,1,1.15586-2.98438,1.0719,1.0719,0,0,0-.02563-1.21016,2.24658,2.24658,0,0,0-1.10466-.79764,2.86615,2.86615,0,0,0-1.2076-.15365,2.07208,2.07208,0,0,0-1.15554.46292,5.56676,5.56676,0,0,0-.82268,1.10582,11.59973,11.59973,0,0,0-.61666,1.15764,1.9742,1.9742,0,0,0-.10293.61752.405.405,0,0,0,.30755.41268c-.23911.68631-1.18454,2.5805-1.55543,3.37563a17.00959,17.00959,0,0,0-1.58,4.83319,11.65629,11.65629,0,0,0-.08231,2.00489q-.2053.08562-.42639.17219-.84831.33518-1.72375.64493-.87548.30809-1.74947.541a15.10506,15.10506,0,0,1-1.54445.33463,2.51909,2.51909,0,0,1-1.41644-.25808,2.08732,2.08732,0,0,1-.84885-1.18488,5.754,5.754,0,0,1-.33412-1.57275,14.36789,14.36789,0,0,1-.0261-1.93314,2.38983,2.38983,0,0,0-.36038-1.39168,1.64115,1.64115,0,0,0-.97758-.66974,3.03586,3.03586,0,0,0-1.41582.02536,5.32819,5.32819,0,0,0-1.56954.64438,24.91281,24.91281,0,0,0-2.136,1.49517q-1.21062.92771-2.44624,1.93258-1.23484,1.00473-2.39222,1.98543-1.1584.98046-1.93016,1.64976-1.08091.92782-1.64747.4634-.41251-.30951-.3081-1.18582a4.48608,4.48608,0,0,1,.41056-1.49471,14.44637,14.44637,0,0,1,1.51937-2.44874q.952-1.26289,2.03255-2.44875a27.07306,27.07306,0,0,1,2.23849-2.19028,21.56311,21.56311,0,0,1,2.08585-1.625,8.78008,8.78008,0,0,1,3.31971-1.5199,3.21476,3.21476,0,0,1,2.59918.6951,2.124,2.124,0,0,0,1.72367.28336,2.01277,2.01277,0,0,0,1.31366-.95263,2.1861,2.1861,0,0,0,.25612-1.23709,1.81178,1.81178,0,0,0-.71912-1.23757,6.01711,6.01711,0,0,0-2.9859-1.44342,7.57551,7.57551,0,0,0-2.85726.12829,9.49719,9.49719,0,0,0-2.54759,1.03123q-1.18346.69651-2.11134,1.31466-1.07983.7229-2.36588,1.779a29.17684,29.17684,0,0,0-2.54806,2.37117,31.20686,31.20686,0,0,0-2.39293,2.81032,19.30737,19.30737,0,0,0-1.90531,3.041,11.90522,11.90522,0,0,0-.7243,1.81073c-.05158,0-.104.00047-.15655.00392a8.94107,8.94107,0,0,0-2.47015.4287q-1.43886.42586-2.9279.96928c-.99.35952-1.93706.6991-2.84182,1.01128a13.85945,13.85945,0,0,1-2.19489.60684,6.09128,6.09128,0,0,1-1.0247.101,2.03548,2.03548,0,0,1-.88915-.16056c-.46614-.22919-.65131-.14141-.81562-.7185a2.19827,2.19827,0,0,1-.19756-.799c-.01764-.25424-.02642-.29961-.0254-.34249-.001-.0468.00776-.12539.0254-.43953a12.42023,12.42023,0,0,1,.6731-3.219,18.68936,18.68936,0,0,1,1.12575-2.71413,1.26983,1.26983,0,0,0,.18353-.622,1.00835,1.00835,0,0,0-.22029-.619,2.32145,2.32145,0,0,0-1.14088-.77322,3.07488,3.07488,0,0,0-.9779-.157c-.08412,0-.16965.0029-.25462.00871a2.25323,2.25323,0,0,0-1.19733.44982,5.265,5.265,0,0,0-.83764,1.04638,10.75879,10.75879,0,0,0-.61015,1.07213,1.815,1.815,0,0,0-.11321.62.48777.48777,0,0,0,.26749.4473,18.05769,18.05769,0,0,0-.59181,2.021,16.66429,16.66429,0,0,0-.37951,2.422,5.10068,5.10068,0,0,0-.08255.82873c0,.097.002.218.00706.381a2.70591,2.70591,0,0,0,.28128,1.22932c.5421,1.84142,1.42608,3.03706,2.66512,3.54388a5.86918,5.86918,0,0,0,2.22265.38048,13.01074,13.01074,0,0,0,2.80834-.35018c.71152-.15907,1.54344-.38637,2.50315-.68489.95806-.301,1.89684-.60583,2.82222-.921q1.38159-.4698,2.61188-.82245c.557-.16,1.0247-.27559,1.41636-.3556a3.92133,3.92133,0,0,0,1.21544,2.25459,3.71345,3.71345,0,0,0,2.77941.902,6.69168,6.69168,0,0,0,3.65485-1.57173q.82114-.67238,1.749-1.49455.92745-.82478,1.82794-1.60007.89981-.77188,1.69764-1.41657a15.94076,15.94076,0,0,1,1.36454-1.00587.90852.90852,0,0,1,.74617-.23122.5035.5035,0,0,1,.38523.4893,5.74675,5.74675,0,0,0,.28371,1.64977,5.10956,5.10956,0,0,0,2.727,3.19653,8.07385,8.07385,0,0,0,3.47549.25706,18.28737,18.28737,0,0,0,4.14364-1.00485c.68305-.24339,1.32746-.50045,1.94232-.77023a4.43285,4.43285,0,0,0,2.18957,2.47026,8.17643,8.17643,0,0,0,5.05938.02583c.72077-.17219,1.56657-.42139,2.54384-.74684q1.46484-.48946,2.87748-1.00248,1.41121-.51432,2.67154-.90137c.32071-.09767.60662-.17807.87481-.24881a5.26412,5.26412,0,0,0,1.28144,1.842,6.27469,6.27469,0,0,0,3.5477,1.61554,15.60635,15.60635,0,0,0,4.69569.07325,29.95766,29.95766,0,0,0,4.54785-.95326q2.14607-.63869,3.94742-1.34725,1.79751-.70828,2.94765-1.10142a1.60109,1.60109,0,0,0,1.17451-1.02691,1.71128,1.71128,0,0,0-.12566-1.37127Z"/><path class="ed6853ec-a549-44f8-b8a2-800664c38577" d="M80.051,95.87854a2.28551,2.28551,0,1,0-2.28278-2.28582A2.28435,2.28435,0,0,0,80.051,95.87854Z"/><path class="ed6853ec-a549-44f8-b8a2-800664c38577" d="M25.69024,95.52973h.01592a1.91336,1.91336,0,0,0,.09235-3.8256c-.01521,0-.05189-.001-.10826-.001A27.06768,27.06768,0,0,0,17.8575,93.0736a15.22358,15.22358,0,0,0-5.01,2.46446,4.71367,4.71367,0,0,0-1.29469,1.539,2.50013,2.50013,0,0,0-.33216,1.24981,3.03679,3.03679,0,0,0,.67138,1.83758,8.249,8.249,0,0,0,2.98323,2.16876,41.07734,41.07734,0,0,0,6.55147,2.38931,7.5863,7.5863,0,0,1,2.173.91314,6.03938,6.03938,0,0,1-1.38477,1.01614A24.11206,24.11206,0,0,1,12.07066,109.36c-.20336,0-.39362-.00384-.567-.01413-.22836-.01272-.43878-.02788-.63265-.04145a1.90947,1.90947,0,0,0-1.93188-.80833c-.0363.00825-.29955.05465-.64614.15711a3.60639,3.60639,0,0,0-.64965.25651,2.35231,2.35231,0,0,0-.54751.3947,1.99918,1.99918,0,0,0-.01945,2.86393,2.379,2.379,0,0,0,1.01357.58636,14.80884,14.80884,0,0,0,3.19122.41025c.264.01507.52525.02143.78952.02143A27.81884,27.81884,0,0,0,21.464,111.223a16.83634,16.83634,0,0,0,3.93574-2.09268,6.656,6.656,0,0,0,1.44192-1.43856,3.48581,3.48581,0,0,0-.89017-5.07173,10.69578,10.69578,0,0,0-3.46035-1.57267,28.948,28.948,0,0,1-6.87085-2.66639c-.03747-.02285-.07259-.0453-.10763-.06729a13.04914,13.04914,0,0,1,3.51961-1.599,23.27,23.27,0,0,1,6.658-1.185Z"/><polygon class="ed6853ec-a549-44f8-b8a2-800664c38577" points="48 51.78 48 83.834 115.964 83.834 115.964 51.78 48 51.78"/><path class="f76106c0-4880-4456-b9b3-c17254b23add" d="M105.695,77.87983H90.60328V58.06756H105.695V77.87983Zm-16.18511,0H74.41744V58.06756H89.50988Zm-16.18465,0H58.26936V58.06756H73.32523Zm-16.15449-20.925v22.016h49.62312v-22.016Z"/><polygon class="f76106c0-4880-4456-b9b3-c17254b23add" points="64.535 74.644 67.399 74.644 67.399 63.892 71.135 63.892 71.135 61.299 60.8 61.299 60.8 63.892 64.535 63.892 64.535 74.644"/><polygon class="f76106c0-4880-4456-b9b3-c17254b23add" points="88.296 61.299 85.289 61.299 82.266 68.692 82.156 69.101 82.047 68.692 79.024 61.299 76.017 61.299 82.156 75.12 88.296 61.299"/><path class="f76106c0-4880-4456-b9b3-c17254b23add" d="M96.83147,63.87326h.96536c1.54861.03612,2.31618.5482,2.4239,2.08121-.09063,1.60674-1.00119,2.11906-2.55176,2.13508h-.83749V63.87326Zm0,6.69927.93643.01751c3.60883,0,5.39631-2.35422,5.39631-4.70867,0-2.30027-1.73323-4.58209-5.14207-4.58209l-3.97345-.00314V74.64707h2.78279V70.57253Z"/></svg>