<svg id="b766fffb-bdcd-4f3c-b941-bddfd0e9e262" data-name="Warstwa 2" xmlns="http://www.w3.org/2000/svg" viewBox="0 0 164 164"><defs><style>.a7775c69-f2ff-48a2-8e76-b8ea2625a372{fill:#2c273d;}.e9f778e4-33c1-466e-8b71-b050b6a36485{fill:#ebff14;}</style></defs><title>logotypy</title><rect class="a7775c69-f2ff-48a2-8e76-b8ea2625a372" width="164" height="164"/><g id="babb60d6-e5aa-49e2-b78b-03ff91310281" data-name="Warstwa_1"><g id="aff925ee-65ff-43c8-b261-c15a87a68f3a" data-name=" 290057232"><path id="eba3fbca-7eb1-49d8-8568-24059dbe05ff" data-name=" 290057616" class="e9f778e4-33c1-466e-8b71-b050b6a36485" d="M135.67255,73.39773H149.5v3.46633h-4.85949V90.60229h-4.10819V76.86406h-4.85976V73.39773ZM76.31276,91c4.608,0,7.438-2.59656,7.438-5.78684,0-2.06879-1.152-3.66411-3.88175-4.686l-2.12872-.79775c-2.0036-.74753-2.67958-1.22135-2.67958-2.0189,0-.947.85124-1.54521,2.50426-1.54521a8.28075,8.28075,0,0,1,4.08219,1.2713l1.35231-3.1408A11.32013,11.32013,0,0,0,77.79034,73c-3.9819,0-6.81191,2.14334-6.81191,5.40846,0,2.26834,1.37735,3.86332,4.20743,4.91039l1.82828.673c1.90305.69771,2.65448,1.22128,2.65448,2.04364,0,1.07188-1.2772,1.72011-3.00534,1.72011a7.68769,7.68769,0,0,1-4.55794-1.67022l-1.2521,3.365A9.27831,9.27831,0,0,0,76.31277,91Zm33.9402-3.46881c-3.03038,0-4.78349-2.69207-4.78349-5.60824,0-3.11558,1.62786-5.45856,4.73341-5.45856,3.03017,0,4.78342,2.54233,4.78342,5.55827s-1.528,5.50852-4.73333,5.50852ZM110.00231,91c6.08593,0,9.21631-4.36608,9.21631-9.02713,0-4.48639-3.03017-8.97286-8.91567-8.97286a8.66688,8.66688,0,0,0-9.06581,8.97286c0,4.73591,3.10535,9.02713,8.76518,9.02713Zm15.5488-8.77591V76.614h1.72855c2.33,0,3.13129,1.197,3.13129,2.79261s-1.07706,2.81748-3.33164,2.81748Zm2.21615,3.21633,3.11945,5.16191h4.69364l-3.8027-6.28037a5.75674,5.75674,0,0,0,2.86723-4.91535c0-3.36593-2.17936-6.00886-7.29022-6.00886h-5.91227V90.60157h4.10875V85.44042h2.21612Zm-35.78863-12.043H86.06609V90.60229H90.175V85.44086h1.87885c4.60981,0,7.21543-2.94221,7.21543-6.03416,0-3.36606-2.17962-6.00928-7.29057-6.00928ZM90.175,82.22439V76.614h1.72862c2.33005,0,3.13163,1.197,3.13163,2.79274S93.9579,82.22439,91.703,82.22439H90.175Z"/><path id="b45b471e-61f3-4770-b8ba-9ef1587c6717" data-name=" 290057256" class="e9f778e4-33c1-466e-8b71-b050b6a36485" d="M54.4409,82.22465V76.61428h1.72869c2.33005,0,3.13156,1.19689,3.13156,2.79261s-1.07733,2.81776-3.33206,2.81776Zm1.80366-8.82694H50.332V90.60254H54.4409V85.44111H56.32c4.60974,0,7.21521-2.94241,7.21521-6.03429,0-3.36607-2.17955-6.00914-7.29057-6.00914Zm-27.92029-.00027H14.5v3.46695h4.85866V90.60254h4.107V76.86439h4.85866V73.39744Zm11.00444,10.278L44.0312,73.3978h4.439L40.27146,90.60255H38.38564L30.18649,73.3978h4.43878l4.70346,10.27764Z"/></g></g></svg>