<svg xmlns="http://www.w3.org/2000/svg" viewBox="0 0 283.46 283.46"><defs><style>.cls-1{fill:#e75112;}.cls-2{fill:#fff;fill-rule:evenodd;}</style></defs><g id="Layer_2" data-name="Layer 2"><g id="TVP"><g id="tvpsport"><rect class="cls-1" width="283.46" height="283.46"/><g id="logo"><path class="cls-1" d="M101,141.16h81.42V101.6H101v39.56Z"/><path class="cls-2" d="M171.64,134.38H111.45V108.05h60.19v26.33Zm-40.52-1.18H112.8V109.26h18.32V133.2Zm-2.85-16.87v-3.16H115.6v3.16h4.58v13.19h3.51V116.33ZM141.57,130,134,113h3.69l3.83,8.6.1.49.12-.49,3.74-8.6h3.7l-7.56,17Zm17.72-13.65h1.17c1.9,0,2.85.71,3,2.52-.13,2-1.18,2.64-3.1,2.64h-1.05v-5.16ZM156,113.17v16.35h3.28v-5l.72,0c4.45,0,6.63-2.89,6.63-5.77s-2.13-5.63-6.35-5.63Zm14.32,20H152V109.26h18.29V133.2Zm-19.59,0H132.42V109.26h18.32V133.2Z"/><path class="cls-2" d="M61.34,161.65h4c1.92,0,7.73,0,8.42.95l.69.9,5.69-3-1-1.25c-1.52-1.95-4.69-2.74-11-2.74H60c-8.06,0-13,1.17-14.37,7.22-.33,1.5-.64,3.7.69,5.38,2,2.5,6.87,2.68,14.63,2.68h7.25c3.17,0,3.94.38,4.12.59,0,.05.18.33,0,1.28-.46,2.12-1.26,3.05-6.79,3.05H53.68c-3.53-.15-4.12-.64-4.76-1.39l-.64-.76-5.76,2.51.82,1.3c1.56,2.56,6.43,3.46,10.43,3.46H64.36c4.64,0,12.42,0,14-6.89l.33-1.43a5,5,0,0,0-.79-4.39c-1.48-1.86-4.53-2.69-9.86-2.69H56.71c-3.87,0-4.79-.42-5-.68,0,0-.15-.25.08-1.2.54-2.49,2-2.93,9.55-2.93"/><path class="cls-2" d="M92.41,161.91h17.43c2.28,0,2.93.33,3.08.57s.15.53,0,1.07l-.48,2.13c-.23,1-.92,2.1-4.23,2.1H91.07l1.34-5.87Zm18.87-5.12H87l-5.58,24.83H88l2-8.72h17.59c9.23,0,10.61-3.21,11.78-8.45.56-2.46.34-4.29-.69-5.56-1.4-1.74-3.94-2.1-7.32-2.1"/><path class="cls-2" d="M127,173.66l1.87-8.32c.58-2.61,2.43-3.69,6.38-3.69h15.46c2.19,0,3.56.34,4.07,1a2.43,2.43,0,0,1,.22,2.1l-1.88,8.32c-.59,2.62-2.44,3.67-6.4,3.67H131.23c-2.18,0-3.54-.34-4.08-1a2.5,2.5,0,0,1-.17-2.1m24.66-17.12H135.38c-7.79,0-11.75,2.79-13.21,9.35L120.8,172c-.71,3.25-.46,5.54.88,7.17,1.49,1.87,4.22,2.74,8.62,2.74h16.24c7.81,0,11.76-2.8,13.22-9.32l1.35-6.08c.75-3.25.47-5.55-.83-7.18-1.49-1.88-4.25-2.74-8.64-2.74"/><path class="cls-2" d="M174.05,161.91h16.29c3.87,0,4.78.42,5,.67.08.1.1.38,0,1l-.47,2c-.23,1-.87,2.17-5.46,2.17H172.73Zm18.21-5.12H168.63l-5.57,24.83h6.55l2-8.75h16.67c1.18,2.79,3.25,7.87,3.28,7.92l.33.83h7l-.82-1.86s-1.74-4-3.18-7.51a7.2,7.2,0,0,0,6.3-5.75l.4-1.82c.42-1.84.68-3.94-.57-5.54s-3.95-2.35-8.74-2.35"/><path class="cls-2" d="M205.89,156.79l-1.15,5.12H219l-4.44,19.71h6.56l4.43-19.71h14.27l1.12-5.12"/></g></g></g></g></svg>