<svg width="164" height="164" viewBox="0 0 164 164" fill="none" xmlns="http://www.w3.org/2000/svg">
<path d="M164 0H0V164H164V0Z" fill="#001E41"/>
<path d="M50.1812 45.3794H113.819V76.1864H50.1812V45.3794Z" fill="white"/>
<path d="M87.9302 54.3259H85.0501L82.1044 61.0702L81.9997 61.4778L81.8966 61.0764L78.9494 54.3259H76.0708L81.9997 67.6738L87.9302 54.3259Z" fill="#001E41"/>
<path d="M95.8961 63.3752L96.4552 63.3939C99.9476 63.3939 101.663 61.1292 101.663 58.8816C101.663 56.6716 100.001 54.4802 96.6926 54.4802H93.3018V67.2877H95.8961V63.3752ZM95.8961 56.9574H96.8332C98.3139 56.9808 99.0542 57.4822 99.1588 58.955C99.0683 60.4857 98.2014 60.9714 96.7098 60.9964H95.8992L95.8961 56.9574Z" fill="#001E41"/>
<path d="M65.2594 67.2846H68.0131V56.9589H71.5992V54.4802H61.6733V56.9589H65.2594V67.2846Z" fill="#001E41"/>
<path d="M58.4307 50.4556V71.11H105.57V50.4556H58.4307ZM73.795 70.1729H59.4787V51.3849H73.7981L73.795 70.1729ZM89.1546 70.1729H74.8399V51.3849H89.1546V70.1729ZM104.52 70.1729H90.2042V51.3849H104.525L104.52 70.1729Z" fill="#001E41"/>
<path d="M58.2401 107.52C57.1843 107.093 56.2242 106.46 55.4158 105.657C54.6073 104.855 53.9666 103.9 53.5311 102.847C53.0956 101.795 52.874 100.666 52.8792 99.5273C52.8843 98.3883 53.1162 97.2617 53.5612 96.2133C54.0062 95.1648 54.6555 94.2154 55.4712 93.4205C56.2869 92.6256 57.2527 92.001 58.3123 91.5831C59.3719 91.1653 60.5041 90.9626 61.6428 90.9868C62.7815 91.011 63.9041 91.2616 64.9449 91.7241L66.9369 87.0305C63.6125 85.6919 59.8956 85.7113 56.5855 87.0846C53.2753 88.4579 50.6362 91.0754 49.2358 94.3742C47.8354 97.673 47.7855 101.39 49.0969 104.725C50.4082 108.06 52.976 110.747 56.2481 112.209L58.2401 107.52ZM69.0299 82.2238L66.9754 87.0714C73.8438 89.9872 77.0314 98.0176 74.0796 104.973C73.0374 107.455 71.2865 109.574 69.046 111.066C66.8056 112.558 64.1749 113.357 61.483 113.361V113.361C59.6905 113.363 57.9161 113.002 56.2673 112.298L54.2128 117.139C56.5089 118.118 58.9796 118.622 61.4758 118.62C65.2017 118.618 68.8441 117.517 71.9474 115.455C75.0506 113.393 77.4767 110.461 78.9223 107.027C83.0049 97.3921 78.5687 86.2679 69.0299 82.219V82.2238ZM36.8168 99.4851L31.8008 87.0498H26.359L28.3775 92.1018L25.1971 100.062L20.7633 87.0449H14.4746L24.5259 113.027L31.1056 98.9005L36.7832 113.046L46.4567 87.0642H40.6107L36.8168 99.4851ZM112.634 86.8886H107.216V111.345H123.782V106.089H112.634V86.8886ZM148.148 93.3937C147.177 91.4221 145.64 89.7852 143.733 88.6929C141.729 87.49 139.162 86.8838 136.066 86.8838H128.608V111.345H137.231C139.366 111.365 141.474 110.87 143.377 109.902C145.224 108.958 146.775 107.523 147.859 105.754C148.987 103.878 149.564 101.722 149.524 99.5332C149.534 97.4091 149.064 95.3103 148.148 93.3937V93.3937ZM141.943 104.311C140.603 105.49 138.744 106.089 136.41 106.089H134.004V92.1066H137.433C138.4 92.1281 139.353 92.3381 140.24 92.7249C141.291 93.1925 142.186 93.9524 142.817 94.9142C143.538 95.9631 143.923 97.4065 143.923 99.2108C143.952 101.429 143.281 103.147 141.953 104.311H141.943ZM100.338 99.5164C100.978 98.1839 101.307 96.724 101.301 95.2462C101.301 92.6768 100.439 90.6151 98.7409 89.1187C97.0425 87.6223 94.6704 86.8838 91.6488 86.8838H84.0899V111.345H89.5077V103.803H92.0602L97.0545 111.345H103.382L97.7113 102.487C98.8531 101.766 99.7673 100.736 100.348 99.5164H100.338ZM94.9254 97.5797C94.4154 98.2317 93.6046 98.542 92.4475 98.542H89.5004V92.1403H92.4788C93.7538 92.1403 94.6127 92.4771 95.0313 93.1411C95.4712 93.8156 95.7083 94.6021 95.7145 95.4073C95.7134 96.1998 95.438 96.9674 94.935 97.5797H94.9254Z" fill="white"/>
</svg>
