<svg id="bb9842ef-abe7-49bb-a738-dcce6f4efc92" data-name="Warstwa 2" xmlns="http://www.w3.org/2000/svg" viewBox="0 0 164 164"><defs><style>.ac6e77fe-691a-4c48-b6a8-4dbd87f9c8b6,.ac869523-7654-4bbd-ba0f-80f8b4fb509a{fill:#0b3d87;}.a8e792ef-f52a-4abd-a8b9-b1ef39143ea0{fill:#fff;}.a8e792ef-f52a-4abd-a8b9-b1ef39143ea0,.ac6e77fe-691a-4c48-b6a8-4dbd87f9c8b6{fill-rule:evenodd;}</style></defs><title>logotypy</title><rect class="ac869523-7654-4bbd-ba0f-80f8b4fb509a" width="164" height="164"/><path id="b972aeb1-b76a-4e1b-9aa9-578ee7fea13d" data-name=" 291210752" class="a8e792ef-f52a-4abd-a8b9-b1ef39143ea0" d="M32,90.99276h5.33841l3.43834,9.02535a16.08341,16.08341,0,0,1,.754,2.96119,23.04218,23.04218,0,0,1,.81459-2.96119L44.396,94.74345l-1.538-3.75067h5.12727l3.49846,9.02535a17.88007,17.88007,0,0,1,.75409,2.59455,16.27551,16.27551,0,0,1,.69381-2.59455l3.25718-9.02535h4.91646L54.28874,109.6354H50.24736L46.658,100.41248c-.21107.67751-.42224,1.32583-.63337,1.88993l-2.77464,7.333H39.20852L32.00005,90.99274Z"/><polygon id="e75d9527-671a-42e5-a8b9-a2e4d96b6c82" data-name=" 291211232" class="a8e792ef-f52a-4abd-a8b9-b1ef39143ea0" points="64.026 90.993 69.093 90.993 69.093 109.636 64.026 109.636 64.026 90.993"/><polygon id="b71b3620-6b8c-4646-9811-b773889852aa" data-name=" 291210608" class="a8e792ef-f52a-4abd-a8b9-b1ef39143ea0" points="74.068 90.993 79.135 90.993 79.135 105.574 86.946 105.574 86.946 109.636 74.068 109.636 74.068 90.993"/><path id="abf96a1f-39d8-43d8-9b16-5f47764fbd19" data-name=" 291209552" class="a8e792ef-f52a-4abd-a8b9-b1ef39143ea0" d="M90.20117,90.99276h4.91614l5.5195,7.58683c.81427,1.12831,1.86977,2.67941,2.83493,4.17425-.09045-1.66386-.15057-3.46893-.15057-4.82322V90.99277h4.82569v18.64262h-4.94641l-6.1529-8.40484c-.60308-.818-1.41767-2.08681-2.17166-3.35629.0904,1.52341.151,3.07461.151,4.14651v7.61466H90.20115V90.9928Z"/><path id="a6a0a49d-b8f9-4f87-88d0-b2eb387d71b3" data-name=" 291208856" class="a8e792ef-f52a-4abd-a8b9-b1ef39143ea0" d="M112.12392,100.272c0-5.78188,3.4989-9.67442,10.01359-9.67442,6.15247,0,9.86249,3.46894,9.86249,9.44832,0,5.78178-3.4989,9.98454-10.04375,9.98454-6.48434,0-9.83233-4.1179-9.83233-9.75845Zm14.53772-.02856c0-4.06159-1.71919-5.72547-4.55445-5.72547-2.92565,0-4.64484,1.77727-4.64484,5.78183,0,4.06159,1.74936,5.81029,4.58467,5.81029,2.83487,0,4.61462-1.74872,4.61462-5.8667Z"/><path id="b11c012f-2338-490c-beac-1922a726533a" data-name=" 291209000" class="ac6e77fe-691a-4c48-b6a8-4dbd87f9c8b6" d="M104.94291,81.10255c1.151-7.33026,1.20043-16.89425,2.35144-24.22451-16.33063-1.80927-33.21437-.096-49.54488-1.90526C56.5984,62.303,56.549,71.867,55.398,79.19728,71.72861,81.00656,88.61234,79.29327,104.94291,81.10255Z"/><path id="bc923e77-7e4f-4095-b506-141aa6469583" data-name=" 291208904" class="a8e792ef-f52a-4abd-a8b9-b1ef39143ea0" d="M52.92886,53.96952h58.88087v28.606H52.92885v-28.606Zm20,10.76829V62.25817H63.80076v2.47964h3.20087v9.22973H69.728V64.73781h3.2009Zm9.44183,3.42613,2.54621-6.02942h2.89585L82.37154,74.51541,76.92825,62.13452h2.86407l2.57842,6.02942Zm10.14916-5.90789V73.96752h2.58434V70.47874l.37143.01226.57319-.0235.53764-.06808.50184-.11013.4658-.14928.42939-.1858.39305-.21918.35632-.24947.31937-.27694.28254-.30146.24543-.32255.20816-.34083.171-.35577.13417-.36777.097-.37675.06-.38272.02307-.38579L100.26,65.9893l-.0505-.38271-.08722-.377-.1239-.36793-.16069-.35583-.19725-.341-.23387-.32308-.27049-.30141-.30662-.27748-.34288-.24995-.37874-.2194-.41423-.18617-.44929-.1496-.48414-.11019-.51882-.06819-.55045-.02317-3.17108-.00011Zm3.16456,2.97178h.54877l.1831.00734.17009.01629.15709.02523.14414.03468.13147.04431L97.138,65.41l.10685.06431.09549.075.08513.08614.07506.09849.06576.11207.05649.12688.04718.14262.03782.15968.02818.17688.01758.18716-.01695.1939-.02923.18212-.04055.16358-.05145.14624-.06178.12959-.07192.11436-.08236.10069-.093.08793-.104.07633-.11554.06542-.12727.05491-.13923.04472-.1511.03487-.16267.02536-.17424.01624-.18553.00771h-.46239V65.22784ZM61.9633,59.61863H74.76647V76.42157H61.96329V59.61863Zm26.809,0H75.96919V76.42157H88.77232Zm15.201-1.109H60.76444V77.53087h43.20883Zm-14.00219,1.109H102.7742V76.42157H89.97107V59.61863Z"/></svg>