<?xml version="1.0" encoding="UTF-8"?>
<svg width="1e3" height="452.0289612" version="1.1" viewBox="0 0 1e3 452.0289612" xmlns="http://www.w3.org/2000/svg">
    <g transform="translate(-47.13170224 -24.71541033)">
        <g transform="matrix(2.344966569 0 0 2.344966569 -516.4113975 -347.5113923)">
            <path d="m240.320313 217.601563h195.105468v-58.867188h-195.105468z" fill="#e31735"/>
            <path d="m274.660156 328.53125h293.992188v-119.625h-293.992188z" fill="#005199"/>
            <path d="m479.519531 304.285156h-32.21875l25.921875-35.957031-25.476562-34.449219h25.25c6.691406 0 9.644531 3.625 10.703125 4.960938 1.0625 1.394531 21.855469 29.097656 21.855469 29.097656z" fill="#e31735"/>
            <g fill="#fff">
                <path d="m511.90625 272.621094 23.300781 31.664062h-32.050781l-7.078125-9.8125z"/>
                <path d="m495.183594 241.960938 6.355469-8.082032h31.886718l-21.351562 29.542969z"/>
                <path d="m416.917969 230.144531c20.347656 0 36.738281 17.503907 36.738281 39.019532 0 21.574218-16.390625 39.078125-36.738281 39.078125v-25.03125c7.304687 0 13.210937-6.296875 13.210937-14.046875 0-7.746094-5.90625-14.046875-13.210937-14.046875zm-36.789063 39.019532c0-21.515625 16.5-39.019532 36.789063-39.019532v24.972657c-7.300781 0-13.210938 6.300781-13.210938 14.046875 0 7.75 5.910157 14.046875 13.210938 14.046875v25.03125c-20.289063 0-36.789063-17.503907-36.789063-39.078125"/>
                <path d="m330.90625 304.285156-28.261719-70.40625h24.472657c5.738281 0 7.636718 4.125 8.359375 5.964844 0.726562 1.839844 7.191406 22.519531 7.191406 22.519531l9.140625-28.484375h30.882812l-28.207031 70.40625z"/>
            </g>
            <path d="m551.152344 351.5h115.613281v-82.445312h-115.613281z" fill="#e31735"/>
            <g fill="#fff">
                <path d="m625.011719 338.289063h10.257812l21.347657-55.074219h-12.539063l-13.769531 38.515625-13.824219-38.515625h-12.765625z"/>
                <path d="m577.074219 337.898438h11.59375v-43.59375h15.71875l-4.292969-11.089844h-39.074219v11.089844h16.054688z"/>
                <path d="m250.691406 200.65625h5.683594v-23.582031l10.371094 15.441406h0.164062l10.425782-15.550781v23.691406h5.796875v-33h-6.1875l-10.035157 15.609375-10.03125-15.609375h-6.1875zm60.761719 0.5c8.636719 0 14.214844-4.960937 14.214844-14.769531v-18.730469h-5.800781v19.007813c0 6.074218-3.175782 9.140625-8.304688 9.140625-5.183594 0-8.359375-3.289063-8.359375-9.417969v-18.730469h-5.742187v19.007813c0 9.53125 5.460937 14.492187 13.992187 14.492187m40.078125-0.054687c6.914063 0 11.761719-3.679688 11.761719-9.867188v-0.054687c0-5.460938-3.621094-7.972657-10.589844-9.699219-6.300781-1.503906-7.804687-2.621094-7.804687-5.128906v-0.113282c0-2.171875 1.949218-3.898437 5.351562-3.898437 3.007813 0 5.964844 1.167969 8.917969 3.398437l3.121094-4.402343c-3.34375-2.675782-7.132813-4.128907-11.925782-4.128907-6.578125 0-11.261718 3.902344-11.261718 9.535157v0.109375c0 6.078125 3.957031 8.140625 10.925781 9.8125 6.132812 1.449218 7.46875 2.730468 7.46875 5.074218v0.109375c0 2.453125-2.285156 4.125-5.855469 4.125-4.066406 0-7.246094-1.558593-10.421875-4.292968l-3.457031 4.125c3.957031 3.570312 8.695312 5.296875 13.769531 5.296875m25.308594-0.445313h5.742187v-33h-5.742187zm36.234375 0.558594c6.1875 0 9.976562-2.285156 13.378906-5.855469l-3.734375-3.789062c-2.789062 2.675781-5.410156 4.292968-9.421875 4.292968-6.355469 0-10.925781-5.242187-10.925781-11.707031v-0.113281c0-6.464844 4.570312-11.648438 10.925781-11.648438 3.734375 0 6.578125 1.671875 9.195313 4.125l3.734375-4.292968c-3.175782-3.011719-6.796875-5.128907-12.875-5.128907-10.035157 0-17.058594 7.691407-17.058594 17.058594v0.054688c0 9.476562 7.191406 17.003906 16.78125 17.003906"/>
            </g>
        </g>
    </g>
</svg>
