<?xml version="1.0" encoding="iso-8859-1"?>
<!-- Generator: Adobe Illustrator 25.3.1, SVG Export Plug-In . SVG Version: 6.00 Build 0)  -->
<svg version="1.1" id="&#x428;&#x430;&#x440;_1" xmlns="http://www.w3.org/2000/svg" xmlns:xlink="http://www.w3.org/1999/xlink"
	 x="0px" y="0px" viewBox="0 0 1231.5 236.72" style="enable-background:new 0 0 1231.5 236.72;" xml:space="preserve">
<g>
	<g>
		<path style="fill:#9B131C;" d="M147.6,236.62H47.4c-26.2,0-47.4-21.2-47.4-47.4v-94.7c0-26.2,21.2-47.4,47.4-47.4H195v142.1
			C195.1,215.42,173.8,236.62,147.6,236.62z"/>
		<path id="path4915_1_" style="fill:#FFFFFF;" d="M63,72.12l-37.9,37.9h77.1l-77.5,77.5l26.8,26.8l77.5-77.5v77.1l37.9-37.9V72.12
			H63z"/>
	</g>
	<g>
		<g>
			<path style="fill:#17255A;" d="M997.7,94.62v94.7c0,26.2-21.2,47.4-47.4,47.4H264.5c-26.2,0-47.5-21.2-47.4-47.4V0
				c0,26.12,21.26,47.22,47.4,47.22h685.8C976.5,47.22,997.7,68.42,997.7,94.62z"/>
			<g>
				<path style="fill:#FFFFFF;" d="M367.5,105.92l-19.7,71.8h-14.4l-11.6-35.4l-11.6,35.4h-14.3l-19.8-71.8h18.5l9.4,37.9l11.6-37.9
					H328l11.6,37.9l9.4-37.9C349,105.92,367.5,105.92,367.5,105.92z"/>
				<path style="fill:#FFFFFF;" d="M432.4,105.92l-21.7,42.6v29.3H393v-29.3l-21.7-42.6h19.3l11.3,25.8l11.2-25.8L432.4,105.92
					L432.4,105.92z"/>
				<path style="fill:#FFFFFF;" d="M494.4,126.52c0.4,3.1,0.6,8.2,0.6,15.3s-0.2,12.2-0.6,15.3s-1.4,5.9-3,8.5
					c-5,8.1-12.7,12.1-23.3,12.1h-26.6v-71.8h26.6c10.6,0,18.3,4,23.3,12.1C493,120.62,494,123.52,494.4,126.52z M476.9,153.42
					c0.3-1.9,0.4-5.8,0.4-11.6s-0.1-9.7-0.4-11.6c-0.3-1.9-0.8-3.5-1.5-4.5c-1.8-2.7-4.6-4-8.5-4h-7.8v40.4h7.8c3.8,0,6.7-1.3,8.5-4
					C476.1,156.92,476.6,155.42,476.9,153.42z"/>
				<path style="fill:#FFFFFF;" d="M566.3,177.72h-18.5l-3.3-10.7h-22.1l-3.5,10.7h-18.5l26.1-71.8h13.6L566.3,177.72z
					 M539.9,152.32l-6.1-19.2l-6.5,19.2H539.9z"/>
				<path style="fill:#FFFFFF;" d="M634.2,177.72h-20.5l-12.7-26.7h-6v26.7h-17.7v-71.8h28.5c7.6,0,13.6,2.3,18,6.8s6.6,10,6.6,16.3
					c0,4.5-1.1,8.4-3.4,11.6c-2.3,3.2-5,5.6-8.3,7.2L634.2,177.72z M610.6,134.12c1.4-1.4,2.1-3.1,2.1-5.1c0-2-0.7-3.6-2.1-5.1
					s-3.3-2.2-5.5-2.2h-10v14.5h10C607.4,136.32,609.2,135.62,610.6,134.12z"/>
				<path style="fill:#FFFFFF;" d="M690.8,177.72H642v-13.7l27.5-42.4h-26.3v-15.7h47.5v13.7l-27.6,42.4h27.6v15.7H690.8z"/>
				<path style="fill:#FFFFFF;" d="M753.4,177.72h-48.8v-71.8h48.8v15.7h-31.2v12h26.6v15.7h-26.6v12.6h31.2V177.72z"/>
				<path style="fill:#FFFFFF;" d="M825.1,177.72h-15.4l-23-36.1v36.1H769v-71.8h15.4l23,36.1v-36.1h17.7L825.1,177.72L825.1,177.72
					z"/>
				<path style="fill:#FFFFFF;" d="M861.5,177.72h-17.7v-71.8h17.7V177.72z"/>
				<path style="fill:#FFFFFF;" d="M939,177.72h-18.5l-3.3-10.7h-22.1l-3.5,10.7h-18.5l26.1-71.8h13.6L939,177.72z M912.5,152.32
					l-6.1-19.2l-6.5,19.2H912.5z"/>
			</g>
		</g>
		<g>
			<path style="fill:#FFFFFF;" d="M1231.5,94.62v94.7c0,26.2-21.2,47.4-47.4,47.4H950.3c26.2,0,47.4-21.2,47.4-47.4v-94.7
				c0-26.2-21.2-47.4-47.4-47.4h233.8C1210.3,47.22,1231.5,68.42,1231.5,94.62z"/>
			<g>
				<path style="fill:#17255A;" d="M1109.8,211.92h-88.2v-28.5l49.7-53.9c4.6-5,6.9-9.9,6.9-14.6c0-3.9-1.1-6.9-3.2-9.2
					s-5.2-3.5-9.1-3.5c-3.5,0-6.5,1-9,3.1s-3.8,5.5-3.8,10.2h-31.6c0-13,4.3-23.2,12.8-30.6c8.5-7.4,19-11.2,31.5-11.2
					c13,0,23.5,3.7,31.7,11.2s12.2,17.5,12.2,30.2c0,6.7-1.3,12.3-3.9,16.9c-2.6,4.6-6.9,10.2-13.1,16.7l-32.7,34.7h33.8
					c8.7,0,15.8,7.1,15.8,15.8v12.7H1109.8z"/>
				<path style="fill:#17255A;" d="M1202.7,193.82h-10.2v18.1h-30v-18.1h-41c-8.7,0-15.8-7.1-15.8-15.8v-14.2l45.4-88.9h34.7
					l-45.4,88.9h22.1v-18.1h30v18.1h10.2L1202.7,193.82L1202.7,193.82z"/>
			</g>
		</g>
	</g>
</g>
</svg>
