<?xml version="1.0" standalone="yes"?>
<svg xmlns="http://www.w3.org/2000/svg" width="1024" height="1024">
<path style="fill:#474747; stroke:none;" d="M0 0L0 1024L1024 1024L1024 0L0 0z"/>
<path style="fill:#ccaa94; stroke:none;" d="M628.667 157.333L629.333 157.667L628.667 157.333z"/>
<path style="fill:#ef6b23; stroke:none;" d="M615 160L599 167L595 166L581 171L581 173L578 172L565 179L562 178L560 179L536 190L521 198L495 216L467 235L457 247C449.914 248.21 446.078 255.869 441.741 260.996C433.107 271.202 424.18 285.49 414 294L411 298L409 301L404 310L405 312L402 313L398 321L399 323L395 326L393 330L394 333L393 335L391 335L388 340C388.983 342.95 389.487 343.622 387 343L386 346L387 349L381 358L382 362L380 362L375 376L374 381L370 411L368 410C368.656 425.321 363.242 445.579 370 460C365.239 457.53 360.078 453.502 359 448L356 444L350 433L345 418L344 411L342 412L344 393L338 396C337.369 401.388 331.164 407.756 327 411L320 420L321 423L318 424L313 431C313.509 433.547 310.314 438.578 308 438L301 450C301.544 452.722 291.965 471.741 289 471L290 474L283 483C282.991 488.752 279.83 495.745 276 500L274 506L271 512C271.983 514.95 272.487 515.622 270 515L269 519L268 523L264 534L263 539L262 544L258 561L256.218 582L256.553 619L258 640C261.434 640 265.062 659.965 264 664C270.726 664 269.554 680.533 265 683.833C257.92 688.964 242.611 674.681 237.667 670.333C235.3 668.253 232 666.269 232 663L225 660L227 669L228 673C232.639 673.603 236.551 688.523 238 693C256.763 687.04 281.288 680.636 301 680C298.396 647.001 294.245 616.21 296.914 583C297.572 574.816 297.877 554.37 304.43 548.738C308.9 544.895 317.419 544.35 323 543.414C334.767 541.44 346.313 538.411 358 536C362.108 543.696 373.03 551.631 381 555L379 531L399 529L405 520L405 526C410.38 524.986 423.518 525.155 426.971 520.436C430.676 515.374 426.165 500.138 426.015 494C425.502 473.092 427.232 452.307 432.374 432C444.749 383.13 478.07 346.612 519 319C514.847 331.277 510.432 342.962 509.17 356C505.687 391.985 520.625 426.185 539.319 456C544.848 464.818 550.526 473.531 556.579 482C558.829 485.149 561.297 490.187 565.09 491.682C569.108 493.266 575.889 489.996 580 489.197C592.709 486.725 605.242 483.554 618 481.414C622.008 480.741 630.626 477.383 634.211 479.893C641.279 484.841 645.548 501.252 648.85 509C660.983 537.465 673.914 572.706 674 604L675 604C686.821 569.374 704.122 543.07 735 522C730.251 545.021 732.008 565.882 733 589L788 577L788 568L777.1 543L766 523C762.176 523 758.906 516.574 759 513C755.065 511.866 753.574 508.909 753 505C746.674 503.013 740.624 489.286 741 483L736.333 472L735 451L735 441L725 446L718 450L713 454L706 461L699 475L697 475L693 483L692 487L691 490L689 512L688 512L688 509L687 509L688 526L687 526L686 508L685 508L685 510L684 510L681 484L680 478C676.603 478 674.619 463.617 675 460L674 455C670.646 455 668.913 443.29 669 440L667 432C663.478 432 662.596 425.132 663 422L661 422L662 418L661 414C657.489 414 656.603 408.075 657 405L655 405L656 402L655 398C651.426 398 649.671 389.127 650 386C646.784 386 644.597 377.122 645 374L643 374L644 371L641 363L638 362L639 359L637 353C633.304 348.825 630.966 342.578 631 337L625 327L626 324L625 320L619 309L619 301C614.388 295.367 613.888 285.128 612.831 278.089C610.537 262.807 607.438 247.661 609.286 232C610 225.949 609.167 217.982 613 213C612.566 206.403 614.602 196.034 619 191L620 187L625 176L631 164L632 157L615 160z"/>
<path style="fill:#ccaa94; stroke:none;" d="M632 157L631 162L632 162L634 157L632 157M623.667 158.333L624.333 158.667L623.667 158.333M618 159L618 161L620 161L620 159L618 159M613 162L616 162L615 160L613 162M608 163L611 163L610 161L608 163M605.667 163.333L606.333 163.667L605.667 163.333M629 163L630 164L629 163M601.667 164.333L602.333 164.667L601.667 164.333M597 165L597 167L599 167L599 165L597 165M628.333 165.667L628.667 166.333L628.333 165.667M593 166L593 168L595 168L595 166L593 166M589 169L592 169L591 167L589 169M627 168L628 169L627 168M586.667 169.333L587.333 169.667L586.667 169.333M582 170L583 172L584 172L585 170L582 170M626 170L627 171L626 170M579 171L579 173L581 173L581 171L579 171M577.333 172.667L577.667 173.333L577.333 172.667M573 173L573 175L575 175L573 173M625 173L626 174L625 173M569 175L569 176L572 176L569 175M623 175L623 178L625 177L625 176L623 175M567.667 176.333L568.333 176.667L567.667 176.333M563 177L563 179L565 179L565 177L563 177M561.333 178.667L561.667 179.333L561.333 178.667M622.333 178.667L622.667 179.333L622.333 178.667M557 179L560 181L557 179M555.667 181.333L556.333 181.667L555.667 181.333M621 181L622 182L621 181M552.667 182.333L553.333 182.667L552.667 182.333M550 183L551 184L550 183M544 187L548 184L544 187M620 184L619 186L621 186L620 184M541 187L541 188L544 188L541 187M618 187L618 190L620 187L618 187M539.667 188.333L540.333 188.667L539.667 188.333M537 189L537 191L539 189L537 189M535 190L532 193L535 190M617 191L617 193L619 193L619 191L617 191M530.667 193.333L531.333 193.667L530.667 193.333M522 199L529 194L522 199M616 194L616 197L618 196L618 195L616 194M615.333 198.667L615.667 199.333L615.333 198.667M519.667 199.333L520.333 199.667L519.667 199.333M513 202L513 203L518 200L513 202M614 202L613 205L614 202M511 203L507 207L511 203M505 207L504 209L506 209L505 207M613 207L612 210L613 207M501 209L501 211L503 211L503 209L501 209M497.667 212.333L498.333 212.667L497.667 212.333M611 213L611 216L613 213L611 213M494.333 214.667L494.667 215.333L494.333 214.667M491 216L489 219L491 216M485 222L489 219L485 222M610 219L610 224L611 224L610 219M482 222L482 224L484 224L482 222M481 224L482 225L481 224M475 230L479 226L475 230M609 230L609 242L610 242L609 230M468 236L473 231L468 236M459 243L466 237L459 243M458 243L459 244L458 243M608 243L609 257L610 257L608 243M457 244L458 245L457 244M456.333 245.667L456.667 246.333L456.333 245.667M443 258L435 267C438.689 265.278 443.093 262.398 443 258M610 263L610 268L611 268L610 263M432 270L429 274L432 270M611 271L613 275L611 271M425 281L428 277L425 281M612 279L614 282L614 279L612 279M421 285L424 282L421 285M613 283L614 287L615 287L615 283L613 283M419 287L417 290L419 287M615 289L616 292L615 289M416 291L415 294L416 291M616 294L616 297L618 296L618 295L616 294M412 297L415 295L412 297M410 299L410 301L412 301L412 299L410 299M617 299L617 301L619 301L619 299L617 299M408 302L408 305L410 302L408 302M618 302L620 305L618 302M407 305L404 310L407 305M620 307L619 309L621 309L620 307M403 311L403 313L405 311L403 311M620 311L622 313L622 311L620 311M401 317L402 317L403 315L401 317M622 314L622 317L624 316L624 315L622 314z"/>
<path style="fill:#fefbe2; stroke:none;" d="M401 315L402 316L401 315z"/>
<path style="fill:#ccaa94; stroke:none;" d="M399 317L398 321L401 317L399 317M623 318L623 320L625 320L625 318L623 318z"/>
<path style="fill:#fdcb1b; stroke:none;" d="M518 319C478.087 345.927 445.389 381.439 432.884 429C427.42 449.784 425.966 470.6 426 492C426.011 498.819 430.538 513.867 426.958 519.697C423.69 525.016 410.531 524.637 405 526L405 520L399 529L379 531L381 555L358 536C345.503 537.683 333.434 541.5 321 543.586C315.981 544.428 307.54 544.972 303.728 548.738C297.487 554.903 297.667 574.637 296.831 583C293.555 615.761 296.884 647.459 301 680L260 688.157L238 693C250.661 724.494 265.579 755.111 288.286 781C299.478 793.759 313.839 803.505 325 816L327 815L345 829L370 839L370 841L389 846L413 854C433.494 852.693 460.185 859.758 480 865L480 864C461.625 855.815 443.871 848.457 430.374 832.714C393.539 789.75 397.788 719.852 434 678C439.574 695.432 446.813 712.735 460.039 725.961C463.764 729.685 471.668 737.288 477.678 734.393C483.196 731.735 475.419 716.781 473.861 713C465.524 692.767 455.126 666.28 456.098 644.005C456.456 635.812 469.804 635.63 476 634.586C493.116 631.703 509.947 626.999 527 623.74C532.443 622.7 540.213 619.492 545.714 620.35C549.954 621.01 554.165 627.076 556.961 630C566.248 639.714 575.226 649.815 584 660C598.721 677.089 612.161 696.379 619.251 718C633.87 762.582 622.899 829.988 579 855L579 856L615 848L615 846C620.01 846.123 629.777 844.004 633 840L636 841L648 834L651 835L661 828L663 829L687 816L695 811L706 803L717 794L744 768L756 756C759.751 747.156 767.892 738.935 773.444 731C783.552 716.556 793.377 699.76 799 683C780.153 695.876 763.692 712.248 745.039 725.505C737.355 730.966 729.601 737.508 720 739C720.981 727.846 730.297 720.121 738.001 712.911C750.307 701.393 762.979 689.998 772.575 675.996C793.463 645.516 791.495 610.822 790 576C772.304 580.057 749.17 580.885 733 589L735 522C703.949 536.772 683.285 572.057 675 604L674 604C673.979 571.802 660.767 536.324 648.424 507C645.795 500.752 640.08 480.738 632.895 479.042C628.824 478.082 623.064 480.402 619 481.08C606.566 483.155 594.36 486.132 582 488.6C576.734 489.652 567.376 494.082 563.13 489.762C554.729 481.215 548.109 469.148 541.808 459C526.113 433.724 509.765 404.605 509.015 374C508.734 362.546 509.221 351.141 512.156 340C513.769 333.875 519.28 325.184 518 319z"/>
<path style="fill:#ccaa94; stroke:none;" d="M397.667 322.333L398.333 322.667L397.667 322.333M624 322L624 324L626 324L626 322L624 322M396.333 324.667L396.667 325.333L396.333 324.667M625 325L625 327L627 327L627 325L625 325M395 327L396 328L395 327M393.667 329.333L394.333 329.667L393.667 329.333M627 329L628 334L629 334L630 332L627 329M393 331L392 333L394 333L393 331z"/>
<path style="fill:#fefbe2; stroke:none;" d="M628 332L629 333L628 332z"/>
<path style="fill:#ccaa94; stroke:none;" d="M391.667 334.333L392.333 334.667L391.667 334.333M629 335L629 337L631 337L631 335L629 335M390 336L390 338L392 336L390 336M389 338L389 341L390 341L389 338M630 338L633 347L634 347L630 338M387 341L389 344L389 341L387 341M387 344L386 346L388 346L387 344M385 347L385 349L387 349L387 347L385 347M634.333 348.667L634.667 349.333L634.333 348.667M384.333 350.667L384.667 351.333L384.333 350.667M635 350L635 353L636 353L637 353L635 350z"/>
<path style="fill:#fefbe2; stroke:none;" d="M635 351L636 352L635 351z"/>
<path style="fill:#ccaa94; stroke:none;" d="M383.333 353.667L383.667 354.333L383.333 353.667M636 354L639 359L636 354M382 356L383 359L382 356M380 360L380 362L382 362L382 360L380 360M638 360L638 362L640 362L640 360L638 360M379 364L379 366L381 364L379 364M640 364L641 365L640 364M641 366L641 368L643 368L643 366L641 366M378.333 367.667L378.667 368.333L378.333 367.667M642.667 370.333L643.333 370.667L642.667 370.333M377.333 371.667L377.667 372.333L377.333 371.667M643 372L643 374L645 374L645 372L643 372M376 374L377 377L376 374M645 375L646 381L647 381L645 375M374 379L374 381L376 381L376 379L374 379M647 381L649 387L647 381M373 383L373 386L375 386L375 383L373 383M649 387L651 393L652 393L649 387M372 389L372 391L374 389L372 389M338 396L339 397L345 390L338 396M371 393L371 397L372 397L371 393M652 393L653 396L652 393z"/>
<path style="fill:#fefbe2; stroke:none;" d="M339 395L340 396L339 395z"/>
<path style="fill:#ccaa94; stroke:none;" d="M342 395L342 402L344 402L344 395L342 395M335 401L339 397L335 401M653.333 397.667L653.667 398.333L653.333 397.667M370 399L370 404L371 404L370 399M654 399L654 402L655 402L656 402L654 399z"/>
<path style="fill:#fefbe2; stroke:none;" d="M654 400L655 401L654 400z"/>
<path style="fill:#ccaa94; stroke:none;" d="M334 402L335 403L334 402z"/>
<path style="fill:#ef6b23; stroke:none;" d="M369 402L370 403L369 402z"/>
<path style="fill:#ccaa94; stroke:none;" d="M333 403L331 406L333 403M655 403L655 405L657 405L657 403L655 403M342 404L342 412L343 412L344 404L342 404M369 406L369 411L370 411L369 406M330 407L328 411L330 407M656 407L658 412L659 412L656 407M324 416L328 412L324 416M659 412L659 415L660 415L659 412z"/>
<path style="fill:#fefbe2; stroke:none;" d="M659 413L660 414L659 413z"/>
<path style="fill:#ccaa94; stroke:none;" d="M343 415L343 418L345 418L345 415L343 415M367 415L367 421L369 421L369 415L367 415M323 416L320 420L321 421L323 416M660 416L660 418L662 418L662 416L660 416z"/>
<path style="fill:#fefbe2; stroke:none;" d="M321 419L322 420L321 419z"/>
<path style="fill:#ccaa94; stroke:none;" d="M344 420L346 423L346 420L344 420M661 420L661 422L663 422L663 420L661 420M318 424L321 421L318 424M663 423L666 430L665 432L665 433L666 433L663 423M346 424L346 427L347 427L346 424M316 428L319 425L316 428z"/>
<path style="fill:#fefbe2; stroke:none;" d="M316 426L317 427L316 426M664 426L665 427L664 426z"/>
<path style="fill:#ccaa94; stroke:none;" d="M315 428L313 431L315 428M347 428L350 433L347 428M366 430L366 444L368 444L366 430z"/>
<path style="fill:#fefbe2; stroke:none;" d="M665 430L666 431L665 430z"/>
<path style="fill:#ccaa94; stroke:none;" d="M311 435L314 432L311 435M666 433L667 440L669 440L666 433M349 434L351 436L351 434L349 434M310 435L309 439L310 439L310 435M351.333 436.667L351.667 437.333L351.333 436.667z"/>
<path style="fill:#fefbe2; stroke:none;" d="M309 437L310 438L309 437z"/>
<path style="fill:#ccaa94; stroke:none;" d="M307 439L305 444L309 439L307 439M352.333 439.667L352.667 440.333L352.333 439.667M735 440L738 444L738 440L735 440M353 441L356 444L353 441M668 441L670 444L670 441L668 441M727 443L726 447L730 443L734 441L727 443z"/>
<path style="fill:#fefbe2; stroke:none;" d="M730 443L731 444L730 443z"/>
<path style="fill:#ccaa94; stroke:none;" d="M304 445L301 450L304 445M355 445L358 448L355 445M669 445L671 448L671 445L669 445M719 451L725 446L719 451M671 448L671 452L672 452L671 448M735 448L736 469L737 469L737 448L735 448M358 449C360.91 454.033 364.396 458.095 370 460L367 457L369 451L367 451L367 456L358 449z"/>
<path style="fill:#fefbe2; stroke:none;" d="M671 449L672 450L671 449z"/>
<path style="fill:#ccaa94; stroke:none;" d="M300 451L298 456L302 451L300 451M714 455L718 451L714 455M672 453L672 456L674 455L674 454L672 453z"/>
<path style="fill:#fefbe2; stroke:none;" d="M364 455L366 457L364 455z"/>
<path style="fill:#ccaa94; stroke:none;" d="M711 455L706 461L707 462L711 455M713 455L714 456L713 455z"/>
<path style="fill:#474747; stroke:none;" d="M367 456L368 457L367 456z"/>
<path style="fill:#ccaa94; stroke:none;" d="M297.333 457.667L297.667 458.333L297.333 457.667M673 457L673 460L675 460L675 457L673 457M296 459L291 470L292 470L296 459M674 462L676 469L677 469L674 462M698 473L707 462C702.353 464.266 699.614 468.135 698 473z"/>
<path style="fill:#fefbe2; stroke:none;" d="M676 466L677 467L676 466M700 469L701 470L700 469z"/>
<path style="fill:#ccaa94; stroke:none;" d="M289 470L291 472L291 470L289 470M676 470L677 474L678 474L678 470L676 470z"/>
<path style="fill:#fefbe2; stroke:none;" d="M677 471L678 472L677 471z"/>
<path style="fill:#ccaa94; stroke:none;" d="M736 471L737 476L738 476L738 471L736 471M288 472L288 474L290 474L290 472L288 472M678 474L678 479L679 479L678 474M697.667 474.333L698.333 474.667L697.667 474.333M287 475L286 479L289 475L287 475z"/>
<path style="fill:#fefbe2; stroke:none;" d="M678.333 475.667L678.667 476.333L678.333 475.667z"/>
<path style="fill:#ccaa94; stroke:none;" d="M696 476L696 478L698 476L696 476M738 477L739 480L738 477M695.333 478.667L695.667 479.333L695.333 478.667M285 479L285 482L286 482L285 479M694 480L693 483L694 480M739 480L739 484L740 484L739 480M679 481L679 484L681 484L681 481L679 481z"/>
<path style="fill:#fefbe2; stroke:none;" d="M739 481L740 482L739 481z"/>
<path style="fill:#ccaa94; stroke:none;" d="M283 482L285 484L285 482L283 482M282 484L280 492L281 492L284 484L282 484M692 484L692 487L694 487L694 484L692 484M740 484C741.36 491.627 746.316 500.753 752 506L753 505L744 493L740 484M680 485L681 490L682 490L682 485L680 485M691 488L691 490L693 490L693 488L691 488M681 491L682 496L683 496L683 491L681 491M690 491L690 495L691 495L690 491z"/>
<path style="fill:#fefbe2; stroke:none;" d="M690 492L691 493L690 492M744 492L745 493L744 492z"/>
<path style="fill:#ccaa94; stroke:none;" d="M279.333 493.667L279.667 494.333L279.333 493.667z"/>
<path style="fill:#fefbe2; stroke:none;" d="M745 494L746 495L745 494z"/>
<path style="fill:#ccaa94; stroke:none;" d="M277 495L276 500L277 500L278 500L279 495L277 495M689 496L689 502L690 502L691 496L689 496M682 497L683 503L684 503L684 497L682 497z"/>
<path style="fill:#fefbe2; stroke:none;" d="M689 497L690 498L689 497M277 498L278 499L277 498M683 498L684 499L683 498z"/>
<path style="fill:#ccaa94; stroke:none;" d="M275 501L274 506L277 501L275 501M688 503L688 512L689 512L688 503M684 504L684 510L685 510L684 504z"/>
<path style="fill:#fefbe2; stroke:none;" d="M688 504L689 505L688 504M751 504L752 505L751 504M684 505L685 506L684 505z"/>
<path style="fill:#ccaa94; stroke:none;" d="M752 506L758 514L759 513L752 506M273 507L272 513L273 513L272 510L275 507L273 507z"/>
<path style="fill:#fefbe2; stroke:none;" d="M272 510L273 511L272 510z"/>
<path style="fill:#ccaa94; stroke:none;" d="M685 512L687 526L688 526L687 512L685 512z"/>
<path style="fill:#fefbe2; stroke:none;" d="M757 512L758 513L757 512z"/>
<path style="fill:#ccaa94; stroke:none;" d="M270 513L272 516L272 513L270 513M758 514L764 524L765 524L766 522L758 514M270 516L269 519L270 516M268 520L268 523L270 523L270 520L268 520z"/>
<path style="fill:#fefbe2; stroke:none;" d="M764 522L765 523L764 522z"/>
<path style="fill:#ef6b23; stroke:none;" d="M428.333 523.667L428.667 524.333L428.333 523.667z"/>
<path style="fill:#ccaa94; stroke:none;" d="M267 524L267 527L269 524L267 524M765 524L778.139 546L784 554C783.526 558.585 784.24 564.974 788 568C786.428 554.919 777.268 530.23 765 524M266 527L266 531L267 531L266 527z"/>
<path style="fill:#fefbe2; stroke:none;" d="M266 528L267 529L266 528z"/>
<path style="fill:#ef6b23; stroke:none;" d="M265 529L266 530L265 529z"/>
<path style="fill:#fefbe2; stroke:none;" d="M770 530L771 531L770 530z"/>
<path style="fill:#ccaa94; stroke:none;" d="M264 532L266 535L266 532L264 532M264 535L263 539L264 535M262 540L262 544L264 544L264 540L262 540z"/>
<path style="fill:#fefbe2; stroke:none;" d="M776 540L777 541L776 540z"/>
<path style="fill:#ccaa94; stroke:none;" d="M261 545L261 550L262 550L261 545z"/>
<path style="fill:#fefbe2; stroke:none;" d="M261 546L262 547L261 546z"/>
<path style="fill:#ccaa94; stroke:none;" d="M260 551L260 555L261 555L260 551z"/>
<path style="fill:#fefbe2; stroke:none;" d="M782 552L783 553L782 552M783 554L784 555L783 554z"/>
<path style="fill:#fdcb1b; stroke:none;" d="M783 555L784 556L783 555z"/>
<path style="fill:#ccaa94; stroke:none;" d="M258 557L259 562L260 562L260 557L258 557M257 564L257 569L259 569L259 564L257 564z"/>
<path style="fill:#fefbe2; stroke:none;" d="M787 565L788 566L787 565z"/>
<path style="fill:#ccaa94; stroke:none;" d="M787 569L788 576L790 575L790 579L791 579L789 574L789 569L787 569z"/>
<path style="fill:#fdcb1b; stroke:none;" d="M788.333 570.667L788.667 571.333L788.333 570.667M787 572L788 573L787 572z"/>
<path style="fill:#ef6b23; stroke:none;" d="M789.333 572.667L789.667 573.333L789.333 572.667z"/>
<path style="fill:#ccaa94; stroke:none;" d="M256 573L256 579L257 579L258 573L256 573z"/>
<path style="fill:#fefbe2; stroke:none;" d="M789 575L790 576L789 575z"/>
<path style="fill:#ef6b23; stroke:none;" d="M790.333 579.667L790.667 580.333L790.333 579.667z"/>
<path style="fill:#ccaa94; stroke:none;" d="M790 581L791 589L792 589L790 581M255 585L255 619C260.568 614.134 257 592.358 257 585L255 585z"/>
<path style="fill:#ef6b23; stroke:none;" d="M791 589L791 593L792 593L791 589z"/>
<path style="fill:#ccaa94; stroke:none;" d="M791 593L792 612L793 612C793 606.909 795.022 596.514 791 593z"/>
<path style="fill:#fefbe2; stroke:none;" d="M792 612L793 613L792 612z"/>
<path style="fill:#ccaa94; stroke:none;" d="M791.667 613.333L792.333 613.667L791.667 613.333z"/>
<path style="fill:#ef6b23; stroke:none;" d="M791.333 614.667L791.667 615.333L791.333 614.667z"/>
<path style="fill:#ccaa94; stroke:none;" d="M791 616L790 626C792.789 623.563 792.361 619.244 791 616z"/>
<path style="fill:#fefbe2; stroke:none;" d="M255 617L256 618L255 617M434 678C420.448 689.033 412.721 710.545 408.627 727C394.519 783.692 420.896 851.858 483 865.04C500.223 868.696 524.532 862.876 542 860.576C553.476 859.064 569.675 860.837 580 855.197C597.027 845.895 608.602 827.498 615.6 810C638.955 751.605 617.332 695.203 577 651C568.723 641.929 559.029 626.43 548 620.788C542.933 618.196 532.374 622.469 527 623.551C510.646 626.842 494.415 631.168 478 634.076C472.803 634.997 461.465 635.056 457.564 638.883C453.748 642.625 456.861 653.372 457.59 658C460.453 676.183 466.205 693.82 472.684 711C474.388 715.516 482.285 728.987 478.306 733.393C473.714 738.477 464.027 728.909 461.015 725.961C447.037 712.278 441.449 695.309 434 678z"/>
<path style="fill:#ccaa94; stroke:none;" d="M256 622L256 629L258 629L256 622z"/>
<path style="fill:#ef6b23; stroke:none;" d="M790 626L791 627L790 626z"/>
<path style="fill:#ccaa94; stroke:none;" d="M790 627L789 635L790 635L790 627M257 632L257 638L259 638L259 632L257 632z"/>
<path style="fill:#fefbe2; stroke:none;" d="M789.333 632.667L789.667 633.333L789.333 632.667z"/>
<path style="fill:#ef6b23; stroke:none;" d="M789 635L790 636L789 635z"/>
<path style="fill:#ccaa94; stroke:none;" d="M789 636L788 639L789 636z"/>
<path style="fill:#fefbe2; stroke:none;" d="M788 637L789 638L788 637z"/>
<path style="fill:#ccaa94; stroke:none;" d="M259 639L259 644L260 644L259 639z"/>
<path style="fill:#fdcb1b; stroke:none;" d="M259 642L260 643L259 642z"/>
<path style="fill:#fefbe2; stroke:none;" d="M787 642L788 643L787 642z"/>
<path style="fill:#ccaa94; stroke:none;" d="M787 643L788 644L787 643M786 644L786 647L787 647L786 644M260 645L263 663L265 663L260 645z"/>
<path style="fill:#fefbe2; stroke:none;" d="M786 647L787 648L786 647M260 648L261 649L260 648z"/>
<path style="fill:#ccaa94; stroke:none;" d="M785 648L784 654L785 654L787 648L785 648z"/>
<path style="fill:#fefbe2; stroke:none;" d="M784 651L785 652L784 651M261 653L262 654L261 653z"/>
<path style="fill:#ccaa94; stroke:none;" d="M783 654L782 659L783 659L783 654M224 656L224 661L231 664L224 656z"/>
<path style="fill:#fefbe2; stroke:none;" d="M782.333 656.667L782.667 657.333L782.333 656.667z"/>
<path style="fill:#fdcb1b; stroke:none;" d="M224 659L225 660L224 659z"/>
<path style="fill:#fefbe2; stroke:none;" d="M781 659L782 660L781 659z"/>
<path style="fill:#ccaa94; stroke:none;" d="M781 660L782 661L781 660M225 661L228 668L225 661M780.333 661.667L780.667 662.333L780.333 661.667M232 663L231 664C236.745 672.013 249.814 683.3 260 684.616C272.214 686.193 269.469 668.998 265 663L265 671L266 671L266 669L267 669C266.997 696.196 242.14 670.142 232 663M779.333 663.667L779.667 664.333L779.333 663.667z"/>
<path style="fill:#fefbe2; stroke:none;" d="M232 664L233 665L232 664M265 665L266 666L265 665z"/>
<path style="fill:#ccaa94; stroke:none;" d="M778 665L775 673L776 673L778 665M228 668L227 671L228 668z"/>
<path style="fill:#fefbe2; stroke:none;" d="M266.333 669.667L266.667 670.333L266.333 669.667M775 671L776 672L775 671z"/>
<path style="fill:#ccaa94; stroke:none;" d="M229 672L228 673L240 704L241 704C239.339 694.197 235.648 679.535 229 672z"/>
<path style="fill:#fdcb1b; stroke:none;" d="M229 673L230 674L229 673z"/>
<path style="fill:#ccaa94; stroke:none;" d="M774 673L775 674L774 673M773.333 674.667L773.667 675.333L773.333 674.667z"/>
<path style="fill:#fefbe2; stroke:none;" d="M247 676L248 677L247 676z"/>
<path style="fill:#ccaa94; stroke:none;" d="M772 676L773 677L772 676z"/>
<path style="fill:#fefbe2; stroke:none;" d="M230 677L231 678L230 677z"/>
<path style="fill:#ccaa94; stroke:none;" d="M771 677L770 680L771 677z"/>
<path style="fill:#fefbe2; stroke:none;" d="M770 678L771 679L770 678z"/>
<path style="fill:#ccaa94; stroke:none;" d="M769 680L770 681L769 680M799 681L798 683L799 681z"/>
<path style="fill:#fdcb1b; stroke:none;" d="M254 682L255 683L254 682z"/>
<path style="fill:#fefbe2; stroke:none;" d="M257 682L258 683L257 682z"/>
<path style="fill:#fdcb1b; stroke:none;" d="M265 682L266 683L265 682z"/>
<path style="fill:#ef6b23; stroke:none;" d="M301.333 682.667L301.667 683.333L301.333 682.667z"/>
<path style="fill:#fefbe2; stroke:none;" d="M766 684L769 683L766 684M799.333 682.667L799.667 683.333L799.333 682.667z"/>
<path style="fill:#ccaa94; stroke:none;" d="M767 683L768 684L767 683M797 683L798 684L797 683z"/>
<path style="fill:#fdcb1b; stroke:none;" d="M264 684L265 685L264 684z"/>
<path style="fill:#ccaa94; stroke:none;" d="M766 684L767 685L766 684M792 688L797 685L792 688M799 684L800 685L799 684M765 685L766 686L765 685z"/>
<path style="fill:#fefbe2; stroke:none;" d="M795 685L796 686L795 685z"/>
<path style="fill:#ccaa94; stroke:none;" d="M798 685L799 686L798 685z"/>
<path style="fill:#fdcb1b; stroke:none;" d="M234 686L235 687L234 686z"/>
<path style="fill:#ccaa94; stroke:none;" d="M764 686L757 695C760.672 693.282 764.895 690.462 764 686z"/>
<path style="fill:#fefbe2; stroke:none;" d="M794 686L795 687L794 686M797 686L797 688L799 686L797 686M763 687L761 690L763 687M793 687L794 688L793 687z"/>
<path style="fill:#ccaa94; stroke:none;" d="M798 687L799 688L798 687z"/>
<path style="fill:#fdcb1b; stroke:none;" d="M235 688L236 689L235 688z"/>
<path style="fill:#ccaa94; stroke:none;" d="M791 688L792 689L791 688M797 688L794 696L795 696L797 688M790 689L791 690L790 689z"/>
<path style="fill:#fefbe2; stroke:none;" d="M796 689L797 690L796 689z"/>
<path style="fill:#ef6b23; stroke:none;" d="M235 690L236 691L235 690z"/>
<path style="fill:#fefbe2; stroke:none;" d="M788 690L787 693L788 690M759 691L760 692L759 691z"/>
<path style="fill:#ccaa94; stroke:none;" d="M787 691L788 692L787 691z"/>
<path style="fill:#fefbe2; stroke:none;" d="M795 691L796 692L795 691M236 692L237 693L236 692z"/>
<path style="fill:#ccaa94; stroke:none;" d="M786 692L787 693L786 692M785 693L786 694L785 693z"/>
<path style="fill:#fefbe2; stroke:none;" d="M794.333 693.667L794.667 694.333L794.333 693.667z"/>
<path style="fill:#ef6b23; stroke:none;" d="M239.333 694.667L239.667 695.333L239.333 694.667z"/>
<path style="fill:#ccaa94; stroke:none;" d="M784 694L785 695L784 694M756 695L757 696L756 695M783 695L784 696L783 695M755 696L751 701L755 696M780 696L773 703C776.161 701.417 780.086 699.889 780 696z"/>
<path style="fill:#fefbe2; stroke:none;" d="M781.333 696.667L781.667 697.333L781.333 696.667M793 696L794 697L793 696z"/>
<path style="fill:#ccaa94; stroke:none;" d="M793 697L794 698L793 697z"/>
<path style="fill:#ef6b23; stroke:none;" d="M240 698L241 699L240 698z"/>
<path style="fill:#fefbe2; stroke:none;" d="M780 698L781 699L780 698M792 698L793 699L792 698z"/>
<path style="fill:#ccaa94; stroke:none;" d="M792 699L793 700L792 699M791 700L788 708L789 708L791 700M750 701L751 702L750 701z"/>
<path style="fill:#fefbe2; stroke:none;" d="M775 701L776 702L775 701M790 701L791 702L790 701M749 702L750 703L749 702M774 702L775 703L774 702M747 703L742 709L747 703z"/>
<path style="fill:#ccaa94; stroke:none;" d="M746 707L750 703L746 707M772 703L773 704L772 703z"/>
<path style="fill:#fefbe2; stroke:none;" d="M789 703L790 704L789 703z"/>
<path style="fill:#ccaa94; stroke:none;" d="M241 704L243 706L243 704L241 704M771 704L772 705L771 704M766 709L771 706L766 709z"/>
<path style="fill:#fefbe2; stroke:none;" d="M788.333 705.667L788.667 706.333L788.333 705.667M242.333 706.667L242.667 707.333L242.333 706.667M769.667 706.333L770.333 706.667L769.667 706.333z"/>
<path style="fill:#ccaa94; stroke:none;" d="M745 707L746 708L745 707z"/>
<path style="fill:#fefbe2; stroke:none;" d="M768 707L769 708L768 707M787 707L786 710L787 707z"/>
<path style="fill:#ccaa94; stroke:none;" d="M242.667 708.333L243.333 708.667L242.667 708.333M744 708L745 709L744 708z"/>
<path style="fill:#fefbe2; stroke:none;" d="M767 708L768 709L767 708M243 709L244 710L243 709z"/>
<path style="fill:#ccaa94; stroke:none;" d="M741 709L741 710L744 710L741 709M765 709L766 710L765 709M787 709L788 710L787 709M243 710L248 718L243 710M740 710L741 711L740 710M760 714L765 711L760 714M786 710L787 711L786 710M739 711L740 712L739 711z"/>
<path style="fill:#fefbe2; stroke:none;" d="M763 711L764 712L763 711z"/>
<path style="fill:#ccaa94; stroke:none;" d="M785.333 711.667L785.667 712.333L785.333 711.667M738 712L739 713L738 712z"/>
<path style="fill:#fefbe2; stroke:none;" d="M762 712L763 713L762 712z"/>
<path style="fill:#ccaa94; stroke:none;" d="M737 713L738 714L737 713z"/>
<path style="fill:#fefbe2; stroke:none;" d="M761 713L762 714L761 713z"/>
<path style="fill:#ccaa94; stroke:none;" d="M784 713L782 718L784 713z"/>
<path style="fill:#fefbe2; stroke:none;" d="M246 714L247 715L246 714z"/>
<path style="fill:#ccaa94; stroke:none;" d="M736 714L737 715L736 714M759 714L760 715L759 714z"/>
<path style="fill:#fefbe2; stroke:none;" d="M783 714L784 715L783 714z"/>
<path style="fill:#ccaa94; stroke:none;" d="M735 715L736 716L735 715M755 718L759 716L755 718z"/>
<path style="fill:#fefbe2; stroke:none;" d="M733 716L731 719L733 716z"/>
<path style="fill:#ccaa94; stroke:none;" d="M734 716L735 717L734 716z"/>
<path style="fill:#fefbe2; stroke:none;" d="M757 716L758 717L757 716M782 716L783 717L782 716z"/>
<path style="fill:#ccaa94; stroke:none;" d="M733 717L734 718L733 717z"/>
<path style="fill:#fefbe2; stroke:none;" d="M756 717L757 718L756 717z"/>
<path style="fill:#ccaa94; stroke:none;" d="M248.333 718.667L248.667 719.333L248.333 718.667M732 718L733 719L732 718M752 718L752 719L755 719L752 718M781 718L782 719L781 718M731 719L732 720L731 719z"/>
<path style="fill:#fefbe2; stroke:none;" d="M751 721L754 719L751 721z"/>
<path style="fill:#ccaa94; stroke:none;" d="M249 720L251 727L252 727L249 720M730 720L731 721L730 720z"/>
<path style="fill:#fefbe2; stroke:none;" d="M780 720L781 721L780 720z"/>
<path style="fill:#ccaa94; stroke:none;" d="M729 721L730 722L729 721M745 725L751 722L745 725M779 721L778 725L779 725L781 721L779 721M728 722L729 723L728 722z"/>
<path style="fill:#fefbe2; stroke:none;" d="M778.333 722.667L778.667 723.333L778.333 722.667z"/>
<path style="fill:#ccaa94; stroke:none;" d="M727 723L728 724L727 723z"/>
<path style="fill:#fefbe2; stroke:none;" d="M747.667 723.333L748.333 723.667L747.667 723.333z"/>
<path style="fill:#ccaa94; stroke:none;" d="M726 724L727 725L726 724z"/>
<path style="fill:#fefbe2; stroke:none;" d="M746 724L747 725L746 724z"/>
<path style="fill:#ccaa94; stroke:none;" d="M744 725L745 726L744 725M777 725L775 729L777 725z"/>
<path style="fill:#fefbe2; stroke:none;" d="M724.667 726.333L725.333 726.667L724.667 726.333z"/>
<path style="fill:#ccaa94; stroke:none;" d="M742 726L741 728L742 726z"/>
<path style="fill:#fefbe2; stroke:none;" d="M743 726L744 727L743 726M776 726L777 727L776 726z"/>
<path style="fill:#ccaa94; stroke:none;" d="M252 727L254 730L252 727M724 727L720 736L721 736L726 727L724 727z"/>
<path style="fill:#fefbe2; stroke:none;" d="M742 727L743 728L742 727M775 727L776 728L775 727M253 728L254 729L253 728z"/>
<path style="fill:#ccaa94; stroke:none;" d="M734 733L741 729L734 733z"/>
<path style="fill:#fefbe2; stroke:none;" d="M722.333 729.667L722.667 730.333L722.333 729.667M739.667 729.333L740.333 729.667L739.667 729.333M774 729L775 730L774 729M738 730L739 731L738 730z"/>
<path style="fill:#ccaa94; stroke:none;" d="M774 730L775 731L774 730M253 731L254 732L253 731z"/>
<path style="fill:#fefbe2; stroke:none;" d="M254 731L255 732L254 731M721.333 731.667L721.667 732.333L721.333 731.667M736 731L737 732L736 731z"/>
<path style="fill:#ccaa94; stroke:none;" d="M773 731L774 732L773 731M255 732L256 733L255 732z"/>
<path style="fill:#fefbe2; stroke:none;" d="M735 732L736 733L735 732z"/>
<path style="fill:#ccaa94; stroke:none;" d="M772 732L770 738L771 738L772 732z"/>
<path style="fill:#fefbe2; stroke:none;" d="M255 733L256 734L255 733z"/>
<path style="fill:#ccaa94; stroke:none;" d="M731 733L728 735L728 736L731 733z"/>
<path style="fill:#fefbe2; stroke:none;" d="M732.333 733.667L732.667 734.333L732.333 733.667M771 733L772 734L771 733z"/>
<path style="fill:#ccaa94; stroke:none;" d="M255 734L260 743L261 743L255 734z"/>
<path style="fill:#fefbe2; stroke:none;" d="M720 734L721 735L720 734M770 734L771 735L770 734z"/>
<path style="fill:#ccaa94; stroke:none;" d="M725 738L728 737L725 738z"/>
<path style="fill:#fefbe2; stroke:none;" d="M769.333 736.667L769.667 737.333L769.333 736.667z"/>
<path style="fill:#ccaa94; stroke:none;" d="M720 737L720 738L724 738L724 737L720 737z"/>
<path style="fill:#fefbe2; stroke:none;" d="M726 737L727 738L726 737M720 738L721 739L720 738M723 738L724 739L723 738M768 738L769 739L768 738M259 739L260 740L259 739z"/>
<path style="fill:#ccaa94; stroke:none;" d="M768 739L769 740L768 739z"/>
<path style="fill:#fefbe2; stroke:none;" d="M766 740L765 743L766 740z"/>
<path style="fill:#ccaa94; stroke:none;" d="M767.333 740.667L767.667 741.333L767.333 740.667z"/>
<path style="fill:#fefbe2; stroke:none;" d="M260 741L261 742L260 741z"/>
<path style="fill:#ccaa94; stroke:none;" d="M766 742L767 743L766 742M261 743L262 744L261 743M765 743L766 744L765 743M262 744L266 753L267 753L262 744M764 744L761 749L764 744z"/>
<path style="fill:#fefbe2; stroke:none;" d="M763 745L764 746L763 745M762 746L763 747L762 746M264 747L265 748L264 747M761 747L762 748L761 747M759 749L756 754L759 749z"/>
<path style="fill:#ccaa94; stroke:none;" d="M760.333 749.667L760.667 750.333L760.333 749.667z"/>
<path style="fill:#fefbe2; stroke:none;" d="M266 751L267 752L266 751z"/>
<path style="fill:#ccaa94; stroke:none;" d="M759 751L760 752L759 751M758 752L759 753L758 752M267 753L268 754L267 753M757 753L758 754L757 753M268.333 754.667L268.667 755.333L268.333 754.667M756 754L757 755L756 754z"/>
<path style="fill:#fefbe2; stroke:none;" d="M754 755L750 761L754 755z"/>
<path style="fill:#ccaa94; stroke:none;" d="M269 756L270 757L269 756M755 756L756 757L755 756M270 757L272 760L270 757M754 757L755 758L754 757z"/>
<path style="fill:#fefbe2; stroke:none;" d="M271 758L272 759L271 758z"/>
<path style="fill:#ccaa94; stroke:none;" d="M753 758L754 759L753 758M752 759L753 760L752 759M272 760L273 761L272 760M751 760L752 761L751 760M750 761L751 762L750 761z"/>
<path style="fill:#fefbe2; stroke:none;" d="M273 762L274 763L273 762z"/>
<path style="fill:#ccaa94; stroke:none;" d="M749 762L750 763L749 762M274 763L279 770L274 763M748 763L746 768L748 763z"/>
<path style="fill:#fefbe2; stroke:none;" d="M747 764L725 787C730.647 784.365 747.138 770.47 747 764M277 767L278 768L277 767M278 768L279 769L278 768z"/>
<path style="fill:#ccaa94; stroke:none;" d="M279 770L280 771L279 770M743 770L744 771L743 770M280 771L282 774L280 771M741 771L741 773L743 771L741 771z"/>
<path style="fill:#fefbe2; stroke:none;" d="M281 772L282 773L281 772z"/>
<path style="fill:#ccaa94; stroke:none;" d="M740 773L741 774L740 773M282 774L283 775L282 774M283 775L284 776L283 775M284 776L285 777L284 776M734 780L738 776L734 780z"/>
<path style="fill:#fefbe2; stroke:none;" d="M285 777L287 779L285 777z"/>
<path style="fill:#ccaa94; stroke:none;" d="M285 778L286 779L285 778M286 779L287 780L286 779M287 780L288 781L287 780M733 780L734 781L733 780M288 781L289 782L288 781M289 782L290 783L289 782M731 782L732 783L731 782M290 783L291 784L290 783M730 783L731 784L730 783M291 784L292 785L291 784M729 784L730 785L729 784M292 785L298 792L292 785M728 785L729 786L728 785z"/>
<path style="fill:#fefbe2; stroke:none;" d="M293 786L294 787L293 786z"/>
<path style="fill:#ccaa94; stroke:none;" d="M727 786L728 787L727 786z"/>
<path style="fill:#fefbe2; stroke:none;" d="M294 787L295 788L294 787M723 787L717 794L723 787z"/>
<path style="fill:#ccaa94; stroke:none;" d="M724 787L725 788L724 787z"/>
<path style="fill:#fefbe2; stroke:none;" d="M295 788L296 789L295 788z"/>
<path style="fill:#ccaa94; stroke:none;" d="M723 788L724 789L723 788z"/>
<path style="fill:#fefbe2; stroke:none;" d="M296 789L297 790L296 789z"/>
<path style="fill:#ccaa94; stroke:none;" d="M722 789L723 790L722 789z"/>
<path style="fill:#fefbe2; stroke:none;" d="M297 790L298 791L297 790z"/>
<path style="fill:#ccaa94; stroke:none;" d="M721 790L722 791L721 790M720 791L721 792L720 791M298 792L310 803L310 802L298 792z"/>
<path style="fill:#fefbe2; stroke:none;" d="M299 792L300 793L299 792M300 793L301 794L300 793z"/>
<path style="fill:#ccaa94; stroke:none;" d="M718 793L719 794L718 793z"/>
<path style="fill:#fefbe2; stroke:none;" d="M301 794L302 795L301 794M715 794L711 799L715 794z"/>
<path style="fill:#ccaa94; stroke:none;" d="M716.667 794.333L717.333 794.667L716.667 794.333z"/>
<path style="fill:#fefbe2; stroke:none;" d="M302 795L303 796L302 795z"/>
<path style="fill:#ccaa94; stroke:none;" d="M715 795L716 796L715 795z"/>
<path style="fill:#fefbe2; stroke:none;" d="M303 796L304 797L303 796z"/>
<path style="fill:#ccaa94; stroke:none;" d="M714 796L715 797L714 796z"/>
<path style="fill:#fefbe2; stroke:none;" d="M304 797L305 798L304 797z"/>
<path style="fill:#ccaa94; stroke:none;" d="M713 797L714 798L713 797z"/>
<path style="fill:#fefbe2; stroke:none;" d="M305 798L306 799L305 798z"/>
<path style="fill:#ccaa94; stroke:none;" d="M712 798L713 799L712 798z"/>
<path style="fill:#fefbe2; stroke:none;" d="M306 799L307 800L306 799M709 799L706 801L706 802L709 799z"/>
<path style="fill:#ccaa94; stroke:none;" d="M710 799L711 800L710 799z"/>
<path style="fill:#fefbe2; stroke:none;" d="M307 800L308 801L307 800z"/>
<path style="fill:#ccaa94; stroke:none;" d="M709 800L710 801L709 800z"/>
<path style="fill:#fefbe2; stroke:none;" d="M308 801L309 802L308 801z"/>
<path style="fill:#ccaa94; stroke:none;" d="M708 801L709 802L708 801z"/>
<path style="fill:#fefbe2; stroke:none;" d="M704 802L698 807L698 808L704 802z"/>
<path style="fill:#ccaa94; stroke:none;" d="M706.667 802.333L707.333 802.667L706.667 802.333M310 803L311 804L310 803M705 803L706 804L705 803M311 804L312 805L311 804M704 804L705 805L704 804M312 805L313 806L312 805M703 805L704 806L703 805M313 806L318 810L318 809L313 806z"/>
<path style="fill:#fefbe2; stroke:none;" d="M314 806L315 807L314 806z"/>
<path style="fill:#ccaa94; stroke:none;" d="M701 806L702 807L701 806z"/>
<path style="fill:#fefbe2; stroke:none;" d="M315 807L316 808L315 807z"/>
<path style="fill:#ccaa94; stroke:none;" d="M700 807L701 808L700 807z"/>
<path style="fill:#fefbe2; stroke:none;" d="M316 808L317 809L316 808M696 808L694 809L694 810L696 808z"/>
<path style="fill:#ccaa94; stroke:none;" d="M697 808L697 809L700 809L697 808M696 809L697 810L696 809M318 810L319 811L318 810M695 810L696 811L695 810M319 811L324 815L324 814L319 811z"/>
<path style="fill:#fefbe2; stroke:none;" d="M320 811L321 812L320 811M692 811L687 814L687 815L693 812L692 811z"/>
<path style="fill:#ccaa94; stroke:none;" d="M693 811L694 812L693 811z"/>
<path style="fill:#fefbe2; stroke:none;" d="M321 812L322 813L321 812z"/>
<path style="fill:#ccaa94; stroke:none;" d="M692 812L693 813L692 812z"/>
<path style="fill:#fefbe2; stroke:none;" d="M322.667 813.333L323.333 813.667L322.667 813.333z"/>
<path style="fill:#ccaa94; stroke:none;" d="M690.667 813.333L691.333 813.667L690.667 813.333M689 814L690 815L689 814M324 815L325 816L324 815z"/>
<path style="fill:#fefbe2; stroke:none;" d="M326 815L328 818L326 815M685.333 815.667L685.667 816.333L685.333 815.667z"/>
<path style="fill:#ccaa94; stroke:none;" d="M687.667 815.333L688.333 815.667L687.667 815.333M325 816L326 817L325 816M686 816L687 817L686 816M326 817L327 818L326 817z"/>
<path style="fill:#fefbe2; stroke:none;" d="M681 819L684 817L681 819z"/>
<path style="fill:#ccaa94; stroke:none;" d="M684 817L685 818L684 817z"/>
<path style="fill:#fefbe2; stroke:none;" d="M329 818L332 820L329 818z"/>
<path style="fill:#ccaa94; stroke:none;" d="M683 818L684 819L683 818M329 819L330 820L329 819z"/>
<path style="fill:#fefbe2; stroke:none;" d="M668 825L668 826L680 820L668 825z"/>
<path style="fill:#ccaa94; stroke:none;" d="M678 820L678 821L683 820L678 820M330 820L330 821L336 823L336 822L330 820z"/>
<path style="fill:#fefbe2; stroke:none;" d="M333 820L334 821L333 820M334 821L335 822L334 821z"/>
<path style="fill:#ccaa94; stroke:none;" d="M677 821L678 822L677 821M676 822L677 823L676 822M336 823L342 827L342 826L336 823z"/>
<path style="fill:#fefbe2; stroke:none;" d="M337 823L338 824L337 823z"/>
<path style="fill:#ccaa94; stroke:none;" d="M674 823L675 824L674 823z"/>
<path style="fill:#fefbe2; stroke:none;" d="M338.667 824.333L339.333 824.667L338.667 824.333z"/>
<path style="fill:#ccaa94; stroke:none;" d="M672 824L673 825L672 824z"/>
<path style="fill:#fefbe2; stroke:none;" d="M340 825L341 826L340 825z"/>
<path style="fill:#ccaa94; stroke:none;" d="M670.667 825.333L671.333 825.667L670.667 825.333z"/>
<path style="fill:#fefbe2; stroke:none;" d="M663 827L663 828L667 827L663 827z"/>
<path style="fill:#ccaa94; stroke:none;" d="M665 827L665 828L670 827L665 827M342 827L344 829L342 827z"/>
<path style="fill:#fefbe2; stroke:none;" d="M343 827L345 829L345 827L343 827M346 828L346 830L348 830L346 828M661.333 828.667L661.667 829.333L661.333 828.667z"/>
<path style="fill:#ccaa94; stroke:none;" d="M663.667 828.333L664.333 828.667L663.667 828.333M345 829L346 830L345 829M662 829L663 830L662 829M348 830L348 831L355 834L355 833L348 830z"/>
<path style="fill:#fefbe2; stroke:none;" d="M349 830L350 831L349 830M651 833L651 834L660 831L651 833z"/>
<path style="fill:#ccaa94; stroke:none;" d="M660 830L661 831L660 830z"/>
<path style="fill:#fefbe2; stroke:none;" d="M351 831L352 832L351 831z"/>
<path style="fill:#ccaa94; stroke:none;" d="M658.667 831.333L659.333 831.667L658.667 831.333z"/>
<path style="fill:#fefbe2; stroke:none;" d="M353 832L354 833L353 832z"/>
<path style="fill:#ccaa94; stroke:none;" d="M653 833L653 834L658 833L653 833M355.667 834.333L356.333 834.667L355.667 834.333z"/>
<path style="fill:#fefbe2; stroke:none;" d="M648.333 834.667L648.667 835.333L648.333 834.667z"/>
<path style="fill:#ccaa94; stroke:none;" d="M651.667 834.333L652.333 834.667L651.667 834.333M357 835L358 836L357 835z"/>
<path style="fill:#fefbe2; stroke:none;" d="M358 835L359 836L358 835M646 835L642 837L642 838L646 835z"/>
<path style="fill:#ccaa94; stroke:none;" d="M649 835L650 836L649 835M360 836L360 837L368 840L368 839L360 836z"/>
<path style="fill:#fefbe2; stroke:none;" d="M361 836L362 837L361 836z"/>
<path style="fill:#ccaa94; stroke:none;" d="M647 836L648 837L647 836z"/>
<path style="fill:#fefbe2; stroke:none;" d="M363.667 837.333L364.333 837.667L363.667 837.333z"/>
<path style="fill:#ccaa94; stroke:none;" d="M645.667 837.333L646.333 837.667L645.667 837.333z"/>
<path style="fill:#fefbe2; stroke:none;" d="M365.667 838.333L366.333 838.667L365.667 838.333M636 840L641 839L636 840z"/>
<path style="fill:#ccaa94; stroke:none;" d="M641 838L641 839L645 839L641 838z"/>
<path style="fill:#fefbe2; stroke:none;" d="M369 839L370 840L369 839z"/>
<path style="fill:#ccaa94; stroke:none;" d="M639.667 839.333L640.333 839.667L639.667 839.333M368.667 840.333L369.333 840.667L368.667 840.333z"/>
<path style="fill:#fefbe2; stroke:none;" d="M371 840L371 842L373 842L371 840M633 840L633 842L635 842L635 840L633 840z"/>
<path style="fill:#ccaa94; stroke:none;" d="M636 840L637 841L636 840M638 840L639 841L638 840M635 841L636 842L635 841M374 842L374 843L387 847L387 846L374 842z"/>
<path style="fill:#fefbe2; stroke:none;" d="M375 842L376 843L375 842M629.667 842.333L630.333 842.667L629.667 842.333z"/>
<path style="fill:#ccaa94; stroke:none;" d="M631 842L632 843L631 842z"/>
<path style="fill:#fefbe2; stroke:none;" d="M377.667 843.333L378.333 843.667L377.667 843.333M626.667 843.333L627.333 843.667L626.667 843.333z"/>
<path style="fill:#ccaa94; stroke:none;" d="M628 843L628 844L631 844L628 843z"/>
<path style="fill:#fefbe2; stroke:none;" d="M381.667 844.333L382.333 844.667L381.667 844.333M622 844L622 845L625 845L622 844z"/>
<path style="fill:#ccaa94; stroke:none;" d="M618 846L618 847L628 845L618 846z"/>
<path style="fill:#fefbe2; stroke:none;" d="M384.667 845.333L385.333 845.667L384.667 845.333M619.667 845.333L620.333 845.667L619.667 845.333M388.333 846.667L388.667 847.333L388.333 846.667M615 846L615 848L617 848L617 846L615 846z"/>
<path style="fill:#ccaa94; stroke:none;" d="M387 847L388 848L387 847z"/>
<path style="fill:#fefbe2; stroke:none;" d="M392 847L392 849L394 849L392 847M612 847L611 849L613 849L612 847z"/>
<path style="fill:#ccaa94; stroke:none;" d="M617 847L618 848L617 847M391 848L392 849L391 848M613 848L614 849L613 848M392.667 849.333L393.333 849.667L392.667 849.333M395 849L395 850L410 854L410 853L395 849z"/>
<path style="fill:#fefbe2; stroke:none;" d="M396 849L396 850L399 850L396 849M606 849L606 850L610 850L606 849z"/>
<path style="fill:#ccaa94; stroke:none;" d="M610 849L611 850L610 849M612 849L613 850L612 849z"/>
<path style="fill:#fefbe2; stroke:none;" d="M400 850L400 851L403 851L400 850M602 850L602 851L605 851L602 850z"/>
<path style="fill:#ccaa94; stroke:none;" d="M605 850L605 851L610 851L605 850z"/>
<path style="fill:#fefbe2; stroke:none;" d="M404 851L404 852L408 852L404 851M597 851L597 852L600 852L597 851z"/>
<path style="fill:#ccaa94; stroke:none;" d="M601 851L601 852L605 852L601 851z"/>
<path style="fill:#fefbe2; stroke:none;" d="M409 852L409 853L413 854L409 852z"/>
<path style="fill:#ccaa94; stroke:none;" d="M593 852L593 853L601 853L593 852z"/>
<path style="fill:#fefbe2; stroke:none;" d="M415 853L419 855L415 853z"/>
<path style="fill:#ccaa94; stroke:none;" d="M590.667 853.333L591.333 853.667L590.667 853.333M586.667 854.333L587.333 854.667L586.667 854.333M420 855L420 856L445 859L445 858L420 855z"/>
<path style="fill:#fefbe2; stroke:none;" d="M421 855L421 856L427 856L421 855z"/>
<path style="fill:#ccaa94; stroke:none;" d="M582 855L582 856L585 856L582 855z"/>
<path style="fill:#fefbe2; stroke:none;" d="M428 856L428 857L434 857L428 856z"/>
<path style="fill:#ccaa94; stroke:none;" d="M571 857L571 858L582 857L571 857z"/>
<path style="fill:#fefbe2; stroke:none;" d="M437 857L437 858L442 858L437 857M446 858L446 859L451 860L451 858L446 858z"/>
<path style="fill:#ccaa94; stroke:none;" d="M562 858L562 859L571 859L562 858M446 859L447 860L446 859z"/>
<path style="fill:#fefbe2; stroke:none;" d="M454 859L454 861L456 861L454 859z"/>
<path style="fill:#ccaa94; stroke:none;" d="M553 859L553 860L560 860L553 859M453 860L454 861L453 860M542 860L542 861L549 861L542 860z"/>
<path style="fill:#fefbe2; stroke:none;" d="M458 861L458 862L462 862L458 861z"/>
<path style="fill:#ccaa94; stroke:none;" d="M532 861L532 862L539 862L532 861M458 862L458 863L478 865L458 862z"/>
<path style="fill:#fefbe2; stroke:none;" d="M464 862L464 863L469 863L464 862z"/>
<path style="fill:#ccaa94; stroke:none;" d="M502 864L502 865L532 863L502 864z"/>
<path style="fill:#fefbe2; stroke:none;" d="M470 863L470 864L476 864L470 863z"/>
<path style="fill:#ccaa94; stroke:none;" d="M479 865L479 866L486 866L479 865M493 865L493 866L500 866L493 865z"/>
</svg>
