<?xml version="1.0" standalone="yes"?>
<svg xmlns="http://www.w3.org/2000/svg" width="1024" height="1024">
<path style="fill:#abc713; stroke:none;" d="M0 0L0 1024L1024 1024L1024 0L0 0z"/>
<path style="fill:#b8c862; stroke:none;" d="M517 441C528.656 443.775 541.273 440.946 552.83 444.545C560.453 446.918 571.043 453.939 579 452C583.917 458.819 601.17 462.33 608.855 466.883C616.771 471.574 622.727 479.696 630.464 484.569C633.435 486.441 637.411 485.987 637.798 481.941C639.016 469.199 626.583 455.306 618.17 447.464C597.824 428.497 559.703 418.638 532.911 423.745C524.434 425.36 514.287 427.305 508.059 433.889C500.517 441.861 511.871 448.112 517 441z"/>
<path style="fill:#e6e7e5; stroke:none;" d="M637 484C634.272 447.658 591.654 430.168 561.015 425.857C554.259 424.906 549.274 422.475 542 423.058C533.569 423.734 520.268 427.569 513.001 432.05C510.488 433.599 504.894 437.825 507.238 441.397C509.076 444.198 527.674 439.998 532 440C550.305 440.008 574.34 448.267 590.961 456.249C602.038 461.569 612.055 467.401 622 474.545C627.248 478.314 630.118 483.481 637 484z"/>
<path style="fill:#b8c862; stroke:none;" d="M552 527C555.273 532.048 567.289 532.342 572.985 533.143C588.881 535.38 606.797 539.112 621.338 528.589C630.32 522.09 634.049 503.122 624 496C623.517 485.121 605.779 475.972 596.92 471.961C573.916 461.549 551.52 452 526 452C516.596 452 504.717 451.471 497.374 458.394C470.481 483.748 505.945 508.403 527.92 519.401C534.804 522.847 544.215 527.807 552 527z"/>
<path style="fill:#e6e7e5; stroke:none;" d="M510 454.71C481.317 461.92 487.303 491.193 506.985 505.451C534.178 525.151 578.498 541.337 612 531.455C638.022 523.78 627.582 495.384 612.335 482.998C588.031 463.256 541.273 446.849 510 454.71z"/>
<path style="fill:#b8c862; stroke:none;" d="M200 461L200 484C200.001 486.617 199.25 491.109 201.603 492.972C206.864 497.139 224.364 494 231 494C225.353 501.847 215.017 509.851 206.999 515.12C203.18 517.63 196.269 521.138 197.377 526.852C198.166 530.926 203.985 529.999 207 530L236 530L308 530C315.608 530 329.83 532.768 336.682 529.397C339.374 528.072 338.982 524.516 338.999 522C339.034 516.991 341.629 500.168 336.682 497.407C329.054 493.15 313.885 498.115 305 496C312.693 488.308 321.673 480.046 330.424 473.545C333.717 471.098 339.679 469.497 338.624 464.094C337.163 456.606 311.96 460 306 460L238 460C225.532 460 212.287 458.719 200 461M386.09 460.553C370.545 464.618 353.376 469.081 343.018 482.666C331.219 498.14 349.336 515.688 362.285 521.124C375.726 526.767 387.94 525.931 402 527.058C405.79 527.362 409.102 530.03 412.91 529.799C416.453 529.583 419.292 527.173 423.001 527.019C434.992 526.523 446.347 527.897 458 524.455C478.474 518.408 497.72 498.571 481.586 477.681C479.124 474.494 474.055 472.007 470.675 469.79C453.124 458.276 430.017 460 410 460C402.471 460 393.406 458.64 386.09 460.553z"/>
<path style="fill:#e6e7e5; stroke:none;" d="M232 479L254 480L254 481C247.338 482.028 243.846 487.673 239 491.857C229.749 499.843 219.491 506.95 210.004 514.726C207.483 516.793 195.677 522.745 199.711 527.411C203.849 532.196 223.933 529 230 529L307 529C313.411 529 330.29 532.017 335.397 527.972C340.144 524.212 337 503.842 337 498L306.318 498.603L302.397 507.397L285 509C297.897 497.19 313.137 487.934 325.63 475.63C330.418 470.913 336.436 469.472 337 462L242 462C231.943 462 212.323 458.172 203.318 462.603C199.1 464.679 199.643 486.699 201.603 490.682C203.597 494.734 226.972 494.685 230.397 491.972C233.355 489.63 232 482.35 232 479M385 462.88C374.111 466.631 362.409 467.799 352.996 475.299C335.621 489.144 342.083 509.976 360.715 518.562C374.965 525.128 388.843 524.813 403.985 526.058C406.849 526.293 409.307 528.403 412.09 528.403C415.437 528.403 418.516 526.163 422 526.019C434.78 525.493 446.84 526.565 458.996 522.116C476.252 515.8 495.899 498.206 480.451 479.143C477.63 475.663 471.943 472.603 468.09 470.329C450.658 460.041 428.449 462 409 462C401.575 462 392.077 460.442 385 462.88z"/>
<path style="fill:#b8c862; stroke:none;" d="M393 495C396.869 498.936 398.906 503.428 403.91 506.366C413.098 511.759 437.145 506.828 433.692 492.17C428.448 469.903 399.114 479.544 393 495M546.005 480.028C526.405 490.015 553.761 516.308 569.536 508.062C592.191 496.22 563.211 471.26 546.005 480.028z"/>
<path style="fill:#abc713; stroke:none;" d="M233 481L233 494L248 482C243.948 478.93 237.7 479.611 233 481M430 502C431.088 497.616 433.773 494.207 430.677 490.001C428.428 486.945 425.346 484.634 422.09 482.773C413.6 477.922 399.167 480.879 396.814 492C394.775 501.637 407.591 509.066 415.91 507.857C420.885 507.133 425.077 503.226 430 502M564 483C565.047 486.148 567.043 489.585 566.627 493C564.723 508.645 544.31 502.255 552.742 489.015C555.361 484.904 560.275 483.721 563 480C557.718 480 550.163 478.558 545.75 481.993C533.156 491.796 548.471 507.018 560.015 507.942C577.977 509.38 581.543 484.332 564 483z"/>
<path style="fill:#b8c862; stroke:none;" d="M729 530C735.65 526.405 740.546 516.521 739.895 509C739.451 503.873 736.419 498.904 739.603 494.015C743.526 487.992 752.35 485.707 757.721 491.228C759.822 493.387 760.154 497.243 762.563 498.968C765.332 500.95 774.262 501.075 778 502C773.749 497.183 768.993 499.985 764.303 496.972C760.471 494.51 760.755 489.478 755.982 487.394C753.818 486.45 751.35 486.057 749 486.214C730.514 487.443 739.903 503.221 737.464 514C736.152 519.799 731.759 524.818 729 530z"/>
<path style="fill:#b3ba93; stroke:none;" d="M731 530L727 529C726.342 534.919 721.142 541.371 715 541.935C711.124 542.291 702.604 539.216 702 544L694 544L694 545L793 545L793 544L783 544L783 541L752 541C755.229 536.769 757.619 531.11 762.093 528.032C765.956 525.376 770.839 526.288 774.996 524.276C784.962 519.454 782.762 509.492 780 501C776.558 501.149 765.002 500.552 762.563 498.382C758.897 495.12 759.685 490.015 753.995 488.434C733.267 482.673 741.887 504.522 739.525 514C738.081 519.793 733.596 524.7 731 530z"/>
<path style="fill:#688222; stroke:none;" d="M728 531C722.262 523.565 712.045 520.857 706.703 512.985C702.489 506.776 705.401 497.014 696.995 493.742C690.883 491.364 682.058 493.442 679.603 500.004C678.459 503.063 679.823 506.867 677.972 509.686C673.601 516.344 663.232 515.055 666.639 526.999C670.353 540.021 680.773 533.789 690 534.564C699.901 535.396 711.311 548.674 721.671 539.566C724.279 537.274 725.972 533.789 728 531M752 541C759.823 542.863 771.119 543.279 779 541.471C783.116 540.526 786.749 537.613 791 537.306C800.231 536.641 810.204 543.327 814.752 530.985C819.171 518.997 808.618 519.624 804.028 512.683C802.009 509.63 803.597 505.368 802.258 502.04C799.81 495.957 790.659 494.426 785.019 496.603C776.37 499.942 784.828 512.156 780.272 518.981C775.447 526.211 768.434 523.728 762.093 527.434C757.391 530.182 754.551 536.401 752 541z"/>
<path style="fill:#abc713; stroke:none;" d="M291 508L302 508L303 497C297.799 498.476 293.351 503.188 291 508z"/>
<path style="fill:#b8c862; stroke:none;" d="M666 583L666 584C674.534 581.417 674.383 565.363 676.951 558.001C680.953 546.531 690.898 544.092 702 544L702 541C698.068 541 693.845 540.591 690 541.554C667.998 547.063 677.717 570.498 666 583M783 541L783 544C793.107 544.007 803.334 545.39 807.66 556C810.826 563.766 810.275 580.793 819 584C813.706 569.292 813.681 547.021 796 541.684C791.91 540.45 787.227 541 783 541z"/>
<path style="fill:#688222; stroke:none;" d="M555 544.424C537.022 546.814 497.185 564.328 522.093 586.536C538.235 600.927 563.979 601.174 584 597.805C602.985 594.61 628.924 574.592 607.985 556.21C594.568 544.431 572.036 542.16 555 544.424z"/>
<path style="fill:#e6e7e5; stroke:none;" d="M671 583L815 583C812.433 572.607 811.161 554.509 801.957 547.804C791.777 540.388 770.03 546.139 758 545.996C742.662 545.814 726.204 546.878 711 545.91C702.607 545.375 690.507 542.309 683.185 547.854C674.794 554.209 671.864 573.092 671 583z"/>
<path style="fill:#688222; stroke:none;" d="M401 597L377 580C383.636 578.402 390.408 578.144 395.775 573.295C403.595 566.23 399.864 553.391 390.961 549.366C374.856 542.085 348.401 547 331 547C325.783 547 314.946 544.81 310.434 547.407C307.128 549.31 308.001 554.826 308 558L308 587C308.006 590.496 307.406 595.48 311.228 597.258C324.474 603.419 317.211 580.688 330 580.04C338.569 579.606 350.052 578.376 358 582.046C372.78 588.872 383.142 602.279 401 597z"/>
<path style="fill:#b3ba93; stroke:none;" d="M800 546L801 547L800 546z"/>
<path style="fill:#688222; stroke:none;" d="M288 573C290.157 570.314 293.238 568.087 294.821 564.985C299.072 556.657 291.666 549.547 284 547.823C267.594 544.132 247.791 547 231 547C224.555 547 214.104 545.003 208.148 547.603C204.224 549.317 205.002 554.501 205 558L205 586C205.001 589.376 204.203 594.597 207.434 596.821C211.711 599.765 221.018 598 226 598C242.587 598 260.605 599.97 277 597.41C282.832 596.499 289.58 595.554 293.682 590.812C299.212 584.417 295.552 574.982 288 573M427 558C445.269 570.089 464.182 581.576 483 592.799C487.617 595.553 500.123 602.251 504.972 596.258C507.302 593.378 506 586.478 506 583L506 547L494.603 548.028L493 558L492 584C474.462 574.664 458.022 562.868 441 552.601C434.235 548.521 422.521 543.499 414.434 547.603C410.895 549.399 412 555.773 412 559C411.999 567.719 408.184 588.31 413.179 595.566C419.05 604.097 425.987 594.075 426 588L426 578C426 571.341 425.449 564.513 427 558z"/>
<path style="fill:#b3ba93; stroke:none;" d="M801 547L802 548L801 547M679 551L680 552L679 551M807 554L808 555L807 554z"/>
<path style="fill:#abc713; stroke:none;" d="M558 555.424C548.314 556.712 519.818 563.727 533.394 578.79C542.316 588.689 561.788 589.175 574 587.714C582.742 586.669 608.006 580.837 599.258 567.015C591.675 555.034 570.575 553.753 558 555.424M219.603 557.028C216.132 559.777 218.147 566.608 222.059 567.682C234.786 571.177 252.781 568.063 266 567.999C270.228 567.979 277.287 568.243 280.242 564.567C283.663 560.313 279.072 556.571 274.996 556.109C261.676 554.599 247.41 556 234 556C230.269 556 222.698 554.577 219.603 557.028M323.318 556.742C318.718 559.087 320.45 569.186 325.059 570.566C337.315 574.239 355.196 571.021 368 571C372.499 570.993 379.026 571.365 382.771 568.401C388.994 563.474 382.795 556.993 377 556.189C364.775 554.494 351.343 556 339 556C334.537 556 327.391 554.666 323.318 556.742z"/>
<path style="fill:#b3ba93; stroke:none;" d="M677 556L678 557L677 556M676 558L677 559L676 558M809 562L810 563L809 562M672 575L673 576L672 575z"/>
<path style="fill:#abc713; stroke:none;" d="M219.603 577.028C216.041 579.849 218.119 587.338 222.109 588.566C234.491 592.38 253.03 589.062 266 588.999C270.288 588.979 277.338 589.211 280.392 585.567C284.324 580.875 278.274 576.587 274 576.109C260.994 574.652 247.091 576 234 576C230.269 576 222.698 574.577 219.603 577.028z"/>
<path style="fill:#b3ba93; stroke:none;" d="M671 578L672 579L671 578M670 583.011C665.289 583.778 657.324 589.294 664.229 593.543C671.938 598.286 689.135 595 698 595L785 595C793.016 595 815.347 598.863 821.397 593.142C824.993 589.741 821.781 584.863 817.981 583.724C809.63 581.22 798.663 583 790 583L709 583C696.545 583 682.255 581.014 670 583.011z"/>
<path style="fill:#b8c862; stroke:none;" d="M664 584L665 585L664 584M821 584L822 585L821 584M662 585L663 586L662 585M822 585L823 586L822 585M661 587L662 588L661 587z"/>
<path style="fill:#688222; stroke:none;" d="M663 591C675.79 594.045 690.882 592 704 592L784 592L813 592C814.516 591.997 823.202 592.302 820.824 588.545C819.443 586.363 815.148 587.004 813 587L791 587L697 587C689.806 587 665.56 583.287 663 591z"/>
<path style="fill:#b8c862; stroke:none;" d="M823 587L823 592L824 592L823 587M661 591L662 592L661 591M663 593L664 594L663 593M665 594L666 595L665 594M819.667 594.333L820.333 594.667L819.667 594.333z"/>
</svg>
