<?xml version="1.0" standalone="yes"?>
<svg xmlns="http://www.w3.org/2000/svg" width="1024" height="1024">
<path style="fill:#444444; stroke:none;" d="M0 0L0 1024L1024 1024L1024 0L0 0z"/>
<path style="fill:#6aaaef; stroke:none;" d="M464 182C454.741 181.206 446.844 192.926 456 199C452.004 209.963 459.02 229.325 472 230C474.204 240.826 498.153 244.84 505 237L506 237C512.365 245.029 523.824 242.556 525 232C536.318 231.482 534.772 226.225 539.012 218.286C540.757 215.018 543.817 212.956 544.282 209C544.651 205.855 542.59 203.425 542.488 200.424C542.228 192.789 547.007 187.94 538 183C542.93 172.694 531.068 164.873 522.907 160.457C518.431 158.035 514.495 160.613 510 159.706C501.888 158.069 488.009 156.084 480.105 160.457C477.231 162.047 476.164 165.183 473.61 167.067C467.337 171.697 462.723 172.87 464 182z"/>
<path style="fill:#044da9; stroke:none;" d="M538 221C537.017 228.352 532.029 231.382 525 232C522.795 242.919 513.313 243.499 506 237L505 237C496.842 243.574 475.752 240.938 472 230C466.808 229.465 462.702 224.387 457.91 224.473C449.109 224.63 437.258 232.164 430 236.684C406.709 251.19 382.865 275.438 379 304C394.291 293.229 406.332 280.984 424 273.427C473.029 252.46 542.154 252.307 591 274.312C604.887 280.568 613.891 290.47 626 299C616.404 257.545 576.307 231.87 538 221z"/>
<path style="fill:#6aaaef; stroke:none;" d="M351 417L352 417C359.821 400.563 379.751 388.21 394 377.63C447.668 337.78 517.606 332.655 578 360.309C607.326 373.736 630.44 394.434 657 412C660.211 401.141 658.902 389.101 658.089 378C654.933 334.943 632.045 291.45 591 273.873C576.305 267.58 559.764 264.002 544 261.729C490.371 253.998 421.467 258.778 382.09 301C364.294 320.081 355.666 345.633 351.59 371C349.255 385.528 348.302 402.469 351 417z"/>
<path style="fill:#dde6ef; stroke:none;" d="M518 271L518 272C536.125 274.291 554.022 276.108 571 283.428C603.064 297.254 626.228 329.043 637.947 361C642.029 372.131 643.463 383.814 647 395C651.657 383.907 648.748 367.498 646.75 356C645.022 346.054 641.923 336.173 637.691 327C616.109 280.228 564.61 271 518 271z"/>
<path style="fill:#044da9; stroke:none;" d="M378 305L379 306L378 305z"/>
<path style="fill:#6aaaef; stroke:none;" d="M443.667 364.333L444.333 364.667L443.667 364.333z"/>
<path style="fill:#dde6ef; stroke:none;" d="M503 400C491.907 370.741 451.847 354.804 425 371.468C410.254 380.62 401.768 397.635 397.884 414C390.871 443.552 397.27 477.071 414.721 502C420.091 509.67 428.785 521.005 438.17 523.812C451.934 527.929 467.812 526.995 482 527C487.034 527.002 493.144 528.77 498 527.497C508.787 524.669 517.573 516.653 529 514.461C540.386 512.276 550.524 517.729 561 516.502C564.727 516.065 567.864 512.701 571 510.877C578.861 506.301 591.101 504.805 596.185 496.982C614.185 469.282 617.633 429.379 604.988 399C593.124 370.495 562.39 355.415 534 370.32C520.442 377.438 512.638 388.7 503 400z"/>
<path style="fill:#6aaaef; stroke:none;" d="M454.667 364.333L455.333 364.667L454.667 364.333M551.667 364.333L552.333 364.667L551.667 364.333M563 364L564 365L563 364M438.667 365.333L439.333 365.667L438.667 365.333M460.667 365.333L461.333 365.667L460.667 365.333M546.667 365.333L547.333 365.667L546.667 365.333M568.667 365.333L569.333 365.667L568.667 365.333M435 366L436 367L435 366M464 366L465 367L464 366M543 366L544 367L543 366M572 366L573 367L572 366M467 367L468 368L467 367M540 367L541 368L540 367M430 368L431 369L430 368M428 369L429 370L428 369M535 369L536 370L535 369M579 369L580 370L579 369M426 370L427 371L426 370M533 370L534 371L533 370M475 371L476 372L475 371M582 371L583 372L582 371M423 372L424 373L423 372M477 372L478 373L477 372M530 372L531 373L530 372M585 373L586 374L585 373M480 374L481 375L480 374M419 375L420 376L419 375M418 376L419 377L418 376M524 376L525 377L524 376M417 377L418 378L417 377M484 377L485 378L484 377M416 378L417 379L416 378M485 378L486 379L485 378M415 379L416 380L415 379M414 380L415 381L414 380M413 381L414 382L413 381M596 384L597 385L596 384M410 385L411 386L410 385M598 387L599 388L598 387M408 388L409 389L408 388M495 388L496 389L495 388M510 390L511 391L510 390M600 390L601 391L600 390M406 391L407 392L406 391M405 393L406 394L405 393M499 393L500 394L499 393M507 394L508 395L507 394M404 395L405 396L404 395M501 396L502 397L501 396M403 397L404 398L403 397M505 397L506 398L505 397M402 399L403 400L402 399M503 399L504 400L503 399M605 400L606 401L605 400M400 404L401 405L400 404M607 405L608 406L607 405M608 408L609 409L608 408M398 411L399 412L398 411M609 412L610 413L609 412M397 415L398 416L397 415M610 416L611 417L610 416M396 420L397 421L396 420M611 422L612 423L611 422M472 424L472 425L478 425L472 424M526 424L526 425L531 425L526 424M470 425L471 426L470 425z"/>
<path style="fill:#444444; stroke:none;" d="M471.004 425.742C457.727 430.881 465.74 450.832 478.985 446.296C492.999 441.498 484.963 420.34 471.004 425.742z"/>
<path style="fill:#6aaaef; stroke:none;" d="M480 425L481 426L480 425M523 425L524 426L523 425z"/>
<path style="fill:#444444; stroke:none;" d="M524.015 425.742C510.542 431.042 519.746 451.499 532.985 445.991C546.393 440.412 537.414 420.472 524.015 425.742z"/>
<path style="fill:#6aaaef; stroke:none;" d="M533 425L534 426L533 425M468 426L469 427L468 426M395.333 427.667L395.667 428.333L395.333 427.667M467 427L468 428L467 427M520 427L521 428L520 427M536 427L537 428L536 427M466 428L467 429L466 428M465 429L466 430L465 429M485 430L486 431L485 430M518 430L519 431L518 430M464 431L465 432L464 431M517 432L518 433L517 432M539 432L540 433L539 432M612 432L612 443L613 443L612 432M486 433L487 434L486 433M486 437L487 438L486 437M517.333 438.667L517.667 439.333L517.333 438.667M539.333 438.667L539.667 439.333L539.333 438.667M518 441L519 442L518 441M538 441L539 442L538 441M484 442L485 443L484 442M482 444L483 445L482 444M522 445L523 446L522 445M534 445L535 446L534 445M395.333 446.667L395.667 447.333L395.333 446.667M471 446L472 447L471 446M479 446L480 447L479 446M524 446L525 447L524 446M532 446L533 447L532 446z"/>
<path style="fill:#fdba18; stroke:none;" d="M496 450.424C483.788 452.033 461.857 453.147 455.573 466.015C452.253 472.813 456.335 480.556 460.529 486C469.544 497.701 490.852 515.662 507 513.684C522.621 511.771 540.201 498.031 549.471 486C553.665 480.556 557.747 472.813 554.427 466.015C546.539 449.861 511.187 448.424 496 450.424z"/>
<path style="fill:#6aaaef; stroke:none;" d="M611.333 452.667L611.667 453.333L611.333 452.667M396 455L397 456L396 455M610 459L611 460L610 459M397.333 460.667L397.667 461.333L397.333 460.667M609.333 463.667L609.667 464.333L609.333 463.667M398 465L399 466L398 465M608.333 467.667L608.667 468.333L608.333 467.667M607 471L608 472L607 471M400 472L401 473L400 472M606 474L607 475L606 474M401 475L402 476L401 475M605 477L606 478L605 477M402 478L403 479L402 478M604 480L605 481L604 480M603 482L604 483L603 482M404 483L405 484L404 483M405 485L406 486L405 485M407 489L408 490L407 489M408 491L409 492L408 491M409 493L410 494L409 493M597 494L598 495L597 494z"/>
<path style="fill:#044da9; stroke:none;" d="M511 584C481.702 639.602 538.556 691.974 528 748C541.77 754.332 561.34 729.196 572 722.348C582.832 715.389 606.146 716.571 613.397 705.945C620.831 695.049 609.777 674.869 603.562 666C595.806 654.932 586.094 645.168 579.97 633C570.096 613.381 571 594.136 571 573C579.702 574.105 588.179 575.939 597 574.561C614.111 571.889 628.57 563.803 646 563.039C665.41 562.189 676.794 569.488 694 576C690.48 549.884 668.926 540.634 650.004 527.2C639.678 519.869 643.283 506.298 630 501.549C613.199 495.542 591.577 500.518 576 507.89C571.221 510.152 567.023 514.637 562 516.202C558.179 517.393 553.797 514.865 550 514.299C543.666 513.356 537.334 513.364 531 514.299C518.402 516.16 508.844 524.947 497 527.606C486.06 530.063 470.333 527.457 459 526.961C438.36 526.057 415.25 519.788 397 510.11C389.925 506.359 379.342 493.516 371.004 496.127C355.62 500.945 362.138 521.079 356.547 532C352.446 540.011 336.457 546.559 336.457 556C336.457 564.891 351.488 568.769 358 571.189C382.01 580.113 408.607 583.31 434 585.089C459.889 586.904 485.233 584.071 511 584z"/>
<path style="fill:#6aaaef; stroke:none;" d="M596 496L597 497L596 496M412 498L413 499L412 498M594 499L595 500L594 499M414 501L415 502L414 501z"/>
<path style="fill:#444444; stroke:none;" d="M593 501L594 502L593 501z"/>
<path style="fill:#6aaaef; stroke:none;" d="M590.667 502.333L591.333 502.667L590.667 502.333M587 503L588 504L587 503M584 504L585 505L584 504M417 505L418 506L417 505M581 505L582 506L581 505M579 506L580 507L579 506M571 510L572 511L571 510M422 511L423 512L422 511M569 511L570 512L569 511M423 512L424 513L423 512M568 512L569 513L568 512M424 513L425 514L424 513M535 513L535 514L539 514L535 513M542 513L542 514L546 514L542 513M566 513L567 514L566 513M425 514L426 515L425 514M528.667 514.333L529.333 514.667L528.667 514.333M551.667 514.333L552.333 514.667L551.667 514.333M565 514L566 515L565 514M426 515L427 516L426 515M524.667 515.333L525.333 515.667L524.667 515.333M555 515L556 516L555 515M427 516L428 517L427 516M521 516L522 517L521 516M558 516L559 517L558 516M518 517L519 518L518 517M560.667 517.333L561.333 517.667L560.667 517.333M516 518L517 519L516 518M513 519L514 520L513 519M432 520L433 521L432 520M511 520L512 521L511 520M509 521L510 522L509 521M435 522L436 523L435 522M507 522L508 523L507 522M505 523L506 524L505 523M439 524L439 525L442 525L439 524M445 525L445 526L449 526L445 525M502 525L503 526L502 525M454 526L454 527L459 527L454 526M500 526L501 527L500 526M485 527L485 528L492 528L485 527M610 571L611 572L610 571z"/>
<path style="fill:#dde6ef; stroke:none;" d="M572 573C570.092 597.169 571.162 619.994 584.692 641C594.865 656.794 621.923 680.299 615.343 701.999C611.4 715.003 588.58 714.746 578 719.093C566.611 723.771 557.489 733.445 548 740.996C544.461 743.812 534.204 753.464 529.693 747.667C527.108 744.345 529.652 737.787 529.911 734C530.494 725.442 528.584 716.276 526.525 708C520.043 681.95 505.79 658.076 503.17 631C501.528 614.039 506.267 600.136 510 584C471.196 588.904 431.42 587.451 393 580C382.278 598.37 376.439 620.05 373.718 641C371.681 656.688 372.394 673.746 376.71 689C405.181 789.634 544.888 814.56 610.385 735C619.617 723.785 627.186 710.761 631.921 697C638.26 678.581 639.216 659.222 637.05 640C634.326 615.82 624.634 591.643 612 571C598.778 575.228 585.578 576.513 572 573z"/>
<path style="fill:#6aaaef; stroke:none;" d="M606.667 572.333L607.333 572.667L606.667 572.333z"/>
<path style="fill:#444444; stroke:none;" d="M571 573L572 574L571 573z"/>
<path style="fill:#6aaaef; stroke:none;" d="M573.667 573.333L574.333 573.667L573.667 573.333M602.667 573.333L603.333 573.667L602.667 573.333M613 573L614 574L613 573M571 574L571 578L572 578L571 574M578 574L578 575L581 575L578 574M597 574L597 575L600 575L597 574M614 575L615 576L614 575M392 580L393 581L392 580M395.667 580.333L396.333 580.667L395.667 580.333M400.667 581.333L401.333 581.667L400.667 581.333M391 582L392 583L391 582M407.667 582.333L408.333 582.667L407.667 582.333M618 582L619 583L618 582M413 583L413 584L417 584L413 583M390 584L391 585L390 584M421 584L421 585L426 585L421 584M502 584L502 585L507 585L502 584M510 584L511 585L510 584M619 584L620 585L619 584M432 585L432 586L438 586L432 585M490 585L490 586L495 586L490 585z"/>
<path style="fill:#444444; stroke:none;" d="M570 585L570 596L571 596L570 585z"/>
<path style="fill:#6aaaef; stroke:none;" d="M389 586L390 587L389 586M452 586L452 587L475 587L452 586M509 586L510 587L509 586M620 586L621 587L620 586M508 589L509 590L508 589M507 592L508 593L507 592M386 593L387 594L386 593M623 593L624 594L623 593M506 595L507 596L506 595M624 595L625 596L624 595z"/>
<path style="fill:#444444; stroke:none;" d="M506 596L507 597L506 596z"/>
<path style="fill:#6aaaef; stroke:none;" d="M384 598L385 599L384 598M505.333 598.667L505.667 599.333L505.333 598.667M626 600L627 601L626 600M383 601L384 602L383 601M571 602L571 605L572 605L571 602M382 603L383 604L382 603M504 603L505 604L504 603z"/>
<path style="fill:#444444; stroke:none;" d="M571.333 605.667L571.667 606.333L571.333 605.667z"/>
<path style="fill:#6aaaef; stroke:none;" d="M628 605L629 606L628 605M381 606L382 607L381 606M503 608L503 611L504 611L503 608M629 608L630 609L629 608M380 609L381 610L380 609M572.333 610.667L572.667 611.333L572.333 610.667M630 611L631 612L630 611M631 614L632 615L631 614M573 615L574 616L573 615M378 616L379 617L378 616M574 619L575 620L574 619M377 620L378 621L377 620M633 621L634 622L633 621M575 622L576 623L575 622M376 624L377 625L376 624M576 625L577 626L576 625M634 625L635 626L634 625M577 627L578 628L577 627M375 628L376 629L375 628M635.333 629.667L635.667 630.333L635.333 629.667z"/>
<path style="fill:#444444; stroke:none;" d="M503 631L504 632L503 631z"/>
<path style="fill:#6aaaef; stroke:none;" d="M503.333 632.667L503.667 633.333L503.333 632.667z"/>
<path style="fill:#444444; stroke:none;" d="M579 632L580 633L579 632z"/>
<path style="fill:#6aaaef; stroke:none;" d="M374 634L375 635L374 634z"/>
<path style="fill:#444444; stroke:none;" d="M580 634L581 635L580 634z"/>
<path style="fill:#6aaaef; stroke:none;" d="M581 635L582 636L581 635M636 635L637 636L636 635M582 637L583 638L582 637M504 639L505 640L504 639z"/>
<path style="fill:#444444; stroke:none;" d="M583 639L584 640L583 639z"/>
<path style="fill:#6aaaef; stroke:none;" d="M584 640L585 641L584 640M373.333 641.667L373.667 642.333L373.333 641.667M585 642L586 643L585 642M637.333 642.667L637.667 643.333L637.333 642.667z"/>
<path style="fill:#444444; stroke:none;" d="M505 643L506 644L505 643z"/>
<path style="fill:#6aaaef; stroke:none;" d="M586 643L587 644L586 643M505 644L506 645L505 644z"/>
<path style="fill:#444444; stroke:none;" d="M587 645L588 646L587 645z"/>
<path style="fill:#6aaaef; stroke:none;" d="M588 646L589 647L588 646z"/>
<path style="fill:#444444; stroke:none;" d="M506 647L507 648L506 647z"/>
<path style="fill:#6aaaef; stroke:none;" d="M506.333 648.667L506.667 649.333L506.333 648.667z"/>
<path style="fill:#444444; stroke:none;" d="M590 649L591 650L590 649z"/>
<path style="fill:#6aaaef; stroke:none;" d="M591 650L592 651L591 650M372 651L372 665L373 665L372 651z"/>
<path style="fill:#444444; stroke:none;" d="M507 651L508 652L507 651z"/>
<path style="fill:#6aaaef; stroke:none;" d="M507 652L508 653L507 652M638 653L638 662L639 662L638 653M594 654L595 655L594 654M508 655L509 656L508 655M595 655L596 656L595 655M596 656L597 657L596 656M509 658L510 659L509 658M598 659L599 660L598 659M599 660L600 661L599 660z"/>
<path style="fill:#444444; stroke:none;" d="M510 661L511 662L510 661M601 663L602 664L601 663z"/>
<path style="fill:#6aaaef; stroke:none;" d="M511.333 664.667L511.667 665.333L511.333 664.667M602 664L603 665L602 664M512 667L513 668L512 667M604 667L605 668L604 667M605 668L606 669L605 668M513 670L514 671L513 670M606 670L607 671L606 670M373.333 672.667L373.667 673.333L373.333 672.667z"/>
<path style="fill:#444444; stroke:none;" d="M607 672L608 673L607 672z"/>
<path style="fill:#6aaaef; stroke:none;" d="M637.333 672.667L637.667 673.333L637.333 672.667M514 673L515 674L514 673M608 673L609 674L608 673z"/>
<path style="fill:#444444; stroke:none;" d="M515 675L516 676L515 675z"/>
<path style="fill:#6aaaef; stroke:none;" d="M609 675L610 676L609 675z"/>
<path style="fill:#444444; stroke:none;" d="M516 677L517 678L516 677z"/>
<path style="fill:#6aaaef; stroke:none;" d="M610 677L611 678L610 677M516 678L517 679L516 678M374 679L375 680L374 679M611 679L612 680L611 679M636 679L637 680L636 679z"/>
<path style="fill:#444444; stroke:none;" d="M517 680L518 681L517 680M611 680L612 681L611 680z"/>
<path style="fill:#6aaaef; stroke:none;" d="M517 681L518 682L517 681M612 682L613 683L612 682M518 683L519 684L518 683z"/>
<path style="fill:#444444; stroke:none;" d="M612 683L613 684L612 683z"/>
<path style="fill:#6aaaef; stroke:none;" d="M375 684L376 685L375 684M635 684L636 685L635 684M613 685L614 686L613 685M519 686L520 687L519 686M376 688L377 689L376 688M634 688L635 689L634 688M520 689L521 690L520 689M614.333 689.667L614.667 690.333L614.333 689.667M377.333 691.667L377.667 692.333L377.333 691.667M521 691L522 692L521 691M633 691L634 692L633 691M522 694L523 695L522 694M378 695L379 696L378 695M615 695L615 703L616 703L615 695M523 697L524 698L523 697M524 700L525 701L524 700M630 700L631 701L630 700M381 703L382 704L381 703z"/>
<path style="fill:#444444; stroke:none;" d="M525 703L526 704L525 703z"/>
<path style="fill:#6aaaef; stroke:none;" d="M629 703L630 704L629 703M525 704L526 705L525 704M382 705L383 706L382 705M628 705L629 706L628 705z"/>
<path style="fill:#444444; stroke:none;" d="M526 706L527 707L526 706z"/>
<path style="fill:#6aaaef; stroke:none;" d="M613 706L614 707L613 706M383 707L384 708L383 707M526 707L527 708L526 707z"/>
<path style="fill:#444444; stroke:none;" d="M612 707L613 708L612 707z"/>
<path style="fill:#6aaaef; stroke:none;" d="M627 707L628 708L627 707M611 708L612 709L611 708z"/>
<path style="fill:#444444; stroke:none;" d="M527 710L528 711L527 710z"/>
<path style="fill:#6aaaef; stroke:none;" d="M607 710L608 711L607 710M527.333 711.667L527.667 712.333L527.333 711.667z"/>
<path style="fill:#444444; stroke:none;" d="M604 711L605 712L604 711z"/>
<path style="fill:#6aaaef; stroke:none;" d="M605 711L606 712L605 711z"/>
<path style="fill:#444444; stroke:none;" d="M600 712L601 713L600 712z"/>
<path style="fill:#6aaaef; stroke:none;" d="M601 712L602 713L601 712M597 713L598 714L597 713M624 713L625 714L624 713M592.667 714.333L593.333 714.667L592.667 714.333M387 715L388 716L387 715M528 715L528 718L529 718L528 715M588.667 715.333L589.333 715.667L588.667 715.333M623 715L624 716L623 715z"/>
<path style="fill:#444444; stroke:none;" d="M584 716L585 717L584 716z"/>
<path style="fill:#6aaaef; stroke:none;" d="M585 716L586 717L585 716M388 717L389 718L388 717z"/>
<path style="fill:#444444; stroke:none;" d="M581 717L582 718L581 717z"/>
<path style="fill:#6aaaef; stroke:none;" d="M582 717L583 718L582 717M579 718L580 719L579 718z"/>
<path style="fill:#444444; stroke:none;" d="M576 719L577 720L576 719M574 720L575 721L574 720z"/>
<path style="fill:#6aaaef; stroke:none;" d="M620 720L621 721L620 720M573 721L574 722L573 721M391 722L392 723L391 722M529 722L529 725L530 725L529 722M571 722L572 723L571 722M619 722L620 723L619 722M618 723L619 724L618 723M568 724L569 725L568 724M393 725L394 726L393 725M567 725L568 726L567 725z"/>
<path style="fill:#444444; stroke:none;" d="M565 726L566 727L565 726z"/>
<path style="fill:#6aaaef; stroke:none;" d="M564 727L565 728L564 727M563 728L564 729L563 728M396 729L397 730L396 729M614 729L615 730L614 729z"/>
<path style="fill:#444444; stroke:none;" d="M560 730L561 731L560 730M559 731L560 732L559 731z"/>
<path style="fill:#6aaaef; stroke:none;" d="M558 732L559 733L558 732M399 733L400 734L399 733M557 733L558 734L557 733M400 734L401 735L400 734M610 734L611 735L610 734z"/>
<path style="fill:#444444; stroke:none;" d="M553 736L554 737L553 736z"/>
<path style="fill:#6aaaef; stroke:none;" d="M529 737L529 740L530 740L529 737M552 737L553 738L552 737M551 738L552 739L551 738M406 741L407 742L406 741M547 741L548 742L547 741M407 742L408 743L407 742M546 742L547 743L546 742M603 742L604 743L603 742M408 743L409 744L408 743M409 744L410 745L409 744M528.333 744.667L528.667 745.333L528.333 744.667M543 744L544 745L543 744M601 744L602 745L601 744M410 745L411 746L410 745M542 745L543 746L542 745M540 746L541 747L540 746z"/>
<path style="fill:#444444; stroke:none;" d="M538 747L539 748L538 747z"/>
<path style="fill:#6aaaef; stroke:none;" d="M539 747L540 748L539 747M537 748L538 749L537 748M530 749L531 750L530 749M534 749L535 750L534 749M417 751L418 752L417 751M593 751L594 752L593 751M418 752L419 753L418 752M422 755L423 756L422 755M588 755L589 756L588 755M426 758L427 759L426 758M429 760L430 761L429 760M581 760L582 761L581 760M434 763L435 764L434 763M576 763L577 764L576 763z"/>
<path style="fill:#fdba18; stroke:none;" d="M565 836C575.045 857.478 606.446 847.236 612 828C619.846 829.62 627.906 832.435 636 830.467C648.405 827.451 650.541 812.822 645.2 803C639.712 792.908 628.552 786.781 620 779.561C616.146 776.307 608.904 764.54 603.91 764.302C599.691 764.102 592.875 769.002 589 770.769C578.693 775.471 567.946 778.963 557 781.846C551.858 783.2 545.47 783.043 542.414 788.059C536.524 797.722 529.271 812.513 529.054 824C528.811 836.881 541.253 844.167 553 841.471C557.31 840.481 561.131 838.035 565 836z"/>
<path style="fill:#6aaaef; stroke:none;" d="M605 763L606 764L605 763z"/>
<path style="fill:#fdba18; stroke:none;" d="M405 765C395.723 781.052 375.854 787.406 366.88 803C361.459 812.418 361.494 827.42 374 831.347C381.925 833.836 391.412 831.426 399 829C406.702 847.495 435.229 859.501 447 837C458.137 844.929 479.27 847.622 481.811 829C483.514 816.518 475.104 797.2 467.787 787.279C464.494 782.812 455.087 782.679 450 781.37C434.765 777.453 420.154 767.701 405 765z"/>
<path style="fill:#6aaaef; stroke:none;" d="M439 766L440 767L439 766M441 767L442 768L441 767M443 768L444 769L443 768M445 769L446 770L445 769M565 769L566 770L565 769M447 770L448 771L447 770M610 770L611 771L610 770M452 772L453 773L452 772M558 772L559 773L558 772M555 773L556 774L555 773M457 774L458 775L457 774M553 774L554 775L553 774M460 775L461 776L460 775M550 775L551 776L550 775M396 776L397 777L396 776M463 776L464 777L463 776M547 776L548 777L547 776M543 777L544 778L543 777M539 778L540 779L539 778M474.667 779.333L475.333 779.667L474.667 779.333M535.667 779.333L536.333 779.667L535.667 779.333M619 779L620 780L619 779M479.667 780.333L480.333 780.667L479.667 780.333M530.667 780.333L531.333 780.667L530.667 780.333M485.667 781.333L486.333 781.667L485.667 781.333M524.667 781.333L525.333 781.667L524.667 781.333M495 782L495 783L498 783L495 782M513 782L513 783L516 783L513 782M467 785L467 786L470 786L467 785M539 785L539 786L543 787L539 785z"/>
<path style="fill:#dde6ef; stroke:none;" d="M543 785L544 786L543 785z"/>
<path style="fill:#6aaaef; stroke:none;" d="M627 785L627 786L634 786L627 785M378 786L378 787L385 787L378 786z"/>
<path style="fill:#dde6ef; stroke:none;" d="M468 786C470.466 799.831 482.322 811.359 481.945 826C481.658 837.177 469.706 846.061 459 842.779C454.744 841.474 450.914 839.06 447 837C431.179 857.591 410.071 847.947 399 829C391.358 830.752 382.897 833.824 375 831.347C349.108 823.226 371.581 795.734 384 788L384 787C350.868 787.022 313.342 794.543 282 805C273.7 807.769 248.47 816.169 257.518 828.985C268.591 844.672 300.534 848.455 318 851.803C375.531 862.831 434.644 865.556 493 866.985C560.068 868.628 628.822 864.516 695 853.414C711.343 850.672 727.279 846.927 743 841.667C750.65 839.107 759.602 835.832 764.485 828.985C774.048 815.577 746.694 806.902 738 804.28C703.54 793.888 664.121 786.1 628 786L628 787C639.906 795.56 662.129 822.001 636 830.196C627.95 832.721 619.918 829.066 612 828C603.626 847.976 578.718 855.418 565 836C560.277 837.719 556.026 840.798 551 841.671C540.521 843.492 528.873 835.154 529.13 824C529.427 811.167 538.479 798.653 543 787L509 788.911L468 786z"/>
<path style="fill:#6aaaef; stroke:none;" d="M472 786L472 787L477 787L472 786M532 786L532 787L536 787L532 786M636 786L636 787L644 787L636 786M370 787L370 788L375 788L370 787M481 787L481 788L486 788L481 787M523 787L523 788L528 788L523 787M647 787L647 788L652 788L647 787M361 788L361 789L368 789L361 788M496 788L496 789L513 789L496 788M654 788L654 789L661 789L654 788M353 789L353 790L360 790L353 789M662 789L662 790L669 790L662 789M345 790L345 791L351 791L345 790M671 790L671 791L677 791L671 790M339 791L339 792L344 792L339 791M678 791L678 792L683 792L678 791M333 792L333 793L337 793L333 792M685 792L685 793L689 793L685 792M327 793L327 794L332 794L327 793M690 793L690 794L695 794L690 793M321 794L321 795L326 795L321 794M696 794L696 795L701 795L696 794M316 795L316 796L320 796L316 795M702 795L702 796L706 796L702 795M311 796L311 797L315 797L311 796M707 796L707 797L711 797L707 796M307 797L307 798L310 798L307 797M713.667 797.333L714.333 797.667L713.667 797.333M302 798L302 799L306 799L302 798M716 798L716 799L720 799L716 798M298 799L298 800L302 800L298 799M720 799L720 800L724 800L720 799M294 800L294 801L297 801L294 800M725 800L725 801L728 801L725 800M291.667 801.333L292.333 801.667L291.667 801.333M729 801L729 802L732 802L729 801M287 802L287 803L290 803L287 802M732 802L732 803L735 803L732 802M284 803L284 804L287 804L284 803M735 803L735 804L738 804L735 803M281 804L281 805L284 805L281 804M738 804L738 805L741 805L738 804M278 805L278 806L281 806L278 805M742.667 805.333L743.333 805.667L742.667 805.333M276.667 806.333L277.333 806.667L276.667 806.333M745.667 806.333L746.333 806.667L745.667 806.333M273.667 807.333L274.333 807.667L273.667 807.333M747.667 807.333L748.333 807.667L747.667 807.333M271.667 808.333L272.333 808.667L271.667 808.333M749.667 808.333L750.333 808.667L749.667 808.333M269.667 809.333L270.333 809.667L269.667 809.333M751.667 809.333L752.333 809.667L751.667 809.333M267.667 810.333L268.333 810.667L267.667 810.333M754 810L755 811L754 810M265 811L266 812L265 811M756 811L757 812L756 811M263.667 812.333L264.333 812.667L263.667 812.333M757.667 812.333L758.333 812.667L757.667 812.333M262 813L263 814L262 813M759 813L760 814L759 813M261 814L262 815L261 814M760.667 814.333L761.333 814.667L760.667 814.333M259.667 815.333L260.333 815.667L259.667 815.333M762 815L763 816L762 815M258 816L259 817L258 816M763 816L764 817L763 816M257.333 817.667L257.667 818.333L257.333 817.667M764 817L765 818L764 817M256 819L257 820L256 819M765 819L766 820L765 819M255 820L255 823L256 823L255 820M766.333 820.667L766.667 821.333L766.333 820.667M255.333 825.667L255.667 826.333L255.333 825.667M766 825L766 828L767 828L766 825M256 828L257 829L256 828M765 828L766 829L765 828M257 829L258 830L257 829M764 829L765 830L764 829M258 830L259 831L258 830M763 830L764 831L763 830M259 831L260 832L259 831M762 831L763 832L762 831M260 832L261 833L260 832M761 832L762 833L761 832M261 833L262 834L261 833M760 833L761 834L760 833M262.667 834.333L263.333 834.667L262.667 834.333M758.667 834.333L759.333 834.667L758.667 834.333M264 835L265 836L264 835M757 835L758 836L757 835M266 836L267 837L266 836M755.667 836.333L756.333 836.667L755.667 836.333M267.667 837.333L268.333 837.667L267.667 837.333M753.667 837.333L754.333 837.667L753.667 837.333M270.667 838.333L271.333 838.667L270.667 838.333M751.667 838.333L752.333 838.667L751.667 838.333M272.667 839.333L273.333 839.667L272.667 839.333M749 839L750 840L749 839M274.667 840.333L275.333 840.667L274.667 840.333M746.667 840.333L747.333 840.667L746.667 840.333M276 841L276 842L279 842L276 841M743 841L743 842L746 842L743 841M279 842L279 843L282 843L279 842M740 842L740 843L743 843L740 842M282 843L282 844L285 844L282 843M737 843L737 844L740 844L737 843M285 844L285 845L288 845L285 844M734 844L734 845L737 845L734 844M289.667 845.333L290.333 845.667L289.667 845.333M731 845L731 846L734 846L731 845M292 846L292 847L295 847L292 846M727 846L727 847L730 847L727 846M296 847L296 848L299 848L296 847M723 847L723 848L727 848L723 847M300 848L300 849L303 849L300 848M719 848L719 849L722 849L719 848M304 849L304 850L307 850L304 849M715 849L715 850L718 850L715 849M308 850L308 851L311 851L308 850M711 850L711 851L714 851L711 850M313 851L313 852L317 852L313 851M705 851L705 852L709 852L705 851M318 852L318 853L322 853L318 852M700 852L700 853L704 853L700 852M323 853L323 854L328 854L323 853M694 853L694 854L699 854L694 853M329 854L329 855L334 855L329 854M688 854L688 855L693 855L688 854M335 855L335 856L339 856L335 855M683 855L683 856L687 856L683 855M341 856L341 857L346 857L341 856M676 856L676 857L681 857L676 856M348 857L348 858L354 858L348 857M668 857L668 858L674 858L668 857M356 858L356 859L363 859L356 858M659 858L659 859L666 859L659 858M364 859L364 860L371 860L364 859M651 859L651 860L658 860L651 859M373 860L373 861L379 861L373 860M643 860L643 861L649 861L643 860M382 861L382 862L390 862L382 861M632 861L632 862L640 862L632 861M392 862L392 863L403 863L392 862M620 862L620 863L630 863L620 862M405 863L405 864L417 864L405 863M605 863L605 864L617 864L605 863M420 864L420 865L434 865L420 864M588 864L588 865L602 865L588 864M437 865L437 866L451 866L437 865M571 865L571 866L585 866L571 865M459 866L459 867L488 867L459 866M534 866L534 867L563 867L534 866z"/>
</svg>
