<?xml version="1.0" standalone="yes"?>
<svg xmlns="http://www.w3.org/2000/svg" width="1024" height="1024">
<path style="fill:#474747; stroke:none;" d="M0 0L0 1024L1024 1024L1024 0L0 0z"/>
<path style="fill:#bf370d; stroke:none;" d="M270 520L271 520C279.023 486.143 304.502 460.368 331 440L331 439C310.734 411.104 319.75 370.257 357 364.439C366.91 362.891 375.265 365.882 384 370.247C388.513 372.502 394.791 377.206 400 377.041C407.112 376.815 415.762 368.24 423 366.039C437.626 361.593 454.507 364.06 469 367.884C479.241 370.587 489.315 375.129 498 381.208C501.637 383.754 507.362 390.801 512 390.801C516.638 390.801 522.363 383.754 526 381.208C534.988 374.917 545.391 370.348 556 367.63C570.57 363.896 587.301 361.779 602 366.039C609.352 368.17 617.779 376.152 625 376.509C629.915 376.753 635.752 372.369 640 370.247C648.397 366.051 656.447 363.048 666 364.289C703.907 369.216 713.466 410.829 693 439L693 440C719.498 460.368 744.977 486.143 753 520C767.186 494.752 773.119 461.455 776.166 433C783.041 368.779 773.69 298.917 715 260.695C701.515 251.913 686.387 245.354 671 240.72C637.043 230.493 600.031 228.242 565 233.427C553.244 235.168 541.519 237.457 530 240.374C524.049 241.881 517.204 245.219 511 244.775C490.471 243.309 469.879 234.192 449 232.17C384.304 225.905 307.276 241.664 269.698 300C238.665 348.176 241.307 414.21 253.651 468C257.674 485.529 266.993 502.538 270 520z"/>
<path style="fill:#ec6004; stroke:none;" d="M331 439L331 440C312.117 450.513 296.986 467.758 285.811 486C277.073 500.264 271.189 515.824 267.127 532C260.694 557.611 258.21 585.958 263.449 612C275.252 670.665 323.428 720.072 369 755.35C385.222 767.907 403.544 784.877 423 792C423 782.955 425.521 769.511 422.397 761C418.769 751.118 407.265 742.161 401.612 733C389.634 713.589 381.534 691.997 375.735 670C358.864 606.007 364 538.403 364 473L365 473C365.891 483.202 371.544 492.759 375.576 502C386.233 526.428 400.297 550.78 415 573C437.19 546.499 456.337 515.47 465 482C453.369 482 440.465 483.563 429 481.536C406.001 477.471 390.948 459.316 384 438C374.76 444.116 366.683 453.774 365 465L364 465C364.453 443.078 372.296 418.754 383.453 400C388.232 391.966 396.119 385.334 400 377C380.334 371.335 368.768 359.891 347 366.44C318.562 374.995 309.953 418.592 331 439M429 364L429 365L432 365L429 364z"/>
<path style="fill:#ffb850; stroke:none;" d="M364 465L365 465C375.137 422.322 435.442 410.435 461.471 444C472.563 458.303 466.261 477.896 461.848 494C449.713 538.281 389.76 575.574 414.259 626C416.883 631.399 419.989 636.584 424.093 640.996C440.583 658.72 467.583 664.608 490 655.547C497.178 652.646 503.973 644.021 511 642.342C515.945 641.16 525.369 651.413 530 653.73C541.854 659.661 555.094 660.975 568 658.54C600.92 652.329 621.829 618.306 613.522 586C607.902 564.146 591.144 547.323 579.004 529C565.321 508.348 556.114 483.017 556.059 458C556.021 440.745 579.506 427.104 594 424.389C599.872 423.289 606.944 422.15 612 426C631.203 423.105 654.959 447.986 659 465C663.203 454.981 656.557 435.903 653.33 426C639.817 384.532 612.158 358.886 567 365.428C553.644 367.363 540.494 371.935 529 379.066C524.71 381.727 516.892 390.944 512 390.944C507.297 390.944 500.03 382.289 496 379.698C485.8 373.141 473.912 368.484 462 366.261C446.349 363.339 429.879 362.453 415 369.039C381.753 383.756 364.285 430.605 364 465z"/>
<path style="fill:#ec6004; stroke:none;" d="M448 364L448 365L452 365L448 364M572 364L572 365L576 365L572 364M593.667 364.333L594.333 364.667L593.667 364.333M624 377C628.83 383.641 635.088 388.971 639.564 396C652.074 415.646 659.936 441.641 660 465L659 465C657.317 453.774 649.24 444.116 640 438C633.052 459.316 617.999 477.471 595 481.536C583.535 483.563 570.631 482 559 482C567.663 515.47 586.81 546.5 609 573C623.697 550.789 637.772 526.417 648.424 502C652.456 492.759 658.109 483.202 659 473L660 473C660 540.143 664.381 608.336 647.116 674C641.832 694.097 634.094 714.397 622.947 732C617.071 741.278 605.293 750.95 601.603 761C598.479 769.511 601 782.955 601 792C621.432 784.519 641.203 766.491 658 752.999C693.602 724.402 728.331 689.818 748.111 648C779.664 581.291 761.378 478.069 693 440C713.284 412.08 705.2 369.254 667 364.289C650.033 362.084 639.255 372.606 624 377M424.667 365.333L425.333 365.667L424.667 365.333M457.667 365.333L458.333 365.667L457.667 365.333M565.667 365.333L566.333 365.667L565.667 365.333M599.667 365.333L600.333 365.667L599.667 365.333M421 366L422 367L421 366M463 366L464 367L463 366M560 366L561 367L560 366M603 366L604 367L603 366M418 367L419 368L418 367M467 367L468 368L467 367M556 367L557 368L556 367M606 367L607 368L606 367M416 368L417 369L416 368M471 368L472 369L471 368M552 368L553 369L552 368M608.667 368.333L609.333 368.667L608.667 368.333M413 369L414 370L413 369M474 369L475 370L474 369M549 369L550 370L549 369M611 369L612 370L611 369M477 370L478 371L477 370M546 370L547 371L546 370M613 370L614 371L613 370M410 371L411 372L410 371M479 371L480 372L479 371M544 371L545 372L544 371M615 371L616 372L615 371M408 372L409 373L408 372M482 372L483 373L482 372M541 372L542 373L541 372M484 373L485 374L484 373M539 373L540 374L539 373M618 373L619 374L618 373M405 374L406 375L405 374M486 374L487 375L486 374M537 374L538 375L537 374M404 375L405 376L404 375M488 375L489 376L488 375M535 375L536 376L535 375M621 375L622 376L621 375M490 376L491 377L490 376M533 376L534 377L533 376M622 376L623 377L622 376M401 377L402 378L401 377M492 377L493 378L492 377M531 377L532 378L531 377M495 379L496 380L495 379M528 379L529 380L528 379M497 380L498 381L497 380M526 380L527 381L526 380M498 381L499 382L498 381M525 381L526 382L525 381M501 383L502 384L501 383M522 383L523 384L522 383M502 384L503 385L502 384M521 384L522 385L521 384M506 387L507 388L506 387M517 387L518 388L517 387M507 388L508 389L507 388M516 388L517 389L516 388M508 389L509 390L508 389M515 389L516 390L515 389M509 390L510 391L509 390M514 390L515 391L514 390M510 391L511 392L510 391M513 391L514 392L513 391M511.667 392.333L512.333 392.667L511.667 392.333z"/>
<path style="fill:#eeed3e; stroke:none;" d="M453 435C452.838 442.562 449.729 449.565 442 452.145C433.007 455.148 422.32 446.491 423.257 437C423.78 431.7 427.987 427.996 431 424C425.598 423.574 417.359 421.536 412.51 425.024C408.879 427.636 409.002 434.052 409.002 438C409.002 450.838 416.353 462.201 429 465.956C439.574 469.096 465.578 464.527 464.356 449C463.905 443.267 457.291 438.025 453 435M593 424C596.013 427.996 600.22 431.701 600.743 437C601.671 446.393 590.922 455.121 582 452.145C574.271 449.567 571.162 442.56 571 435C566.709 438.025 560.095 443.267 559.643 449C558.421 464.527 584.426 469.096 595 465.956C607.647 462.201 614.998 450.838 614.998 438C614.998 433.936 615.046 427.732 611.351 425.024C606.57 421.519 598.347 423.578 593 424z"/>
<path style="fill:#ec6004; stroke:none;" d="M407 425L408 426L407 425z"/>
<path style="fill:#bf370d; stroke:none;" d="M408 425L409 426L408 425z"/>
<path style="fill:#474747; stroke:none;" d="M465 482C466.836 472.115 468.895 459.796 466 450C459.36 456.876 454.859 464.028 445 466.71C418.284 473.978 406.149 446.209 411 425C403.77 426.496 388.706 429.98 385.132 437.326C383.593 440.488 386.407 445.094 387.604 448C391.753 458.071 398.8 467.494 408 473.452C425.134 484.55 445.564 482 465 482M430.015 426.032C414.147 434.018 428.517 458.848 443.999 451.427C463.266 442.193 444.237 418.874 430.015 426.032z"/>
<path style="fill:#ec6004; stroke:none;" d="M436 425L437 426L436 425M587 425L588 426L587 425z"/>
<path style="fill:#474747; stroke:none;" d="M588 425.522C582.344 426.623 573.694 430.113 571.618 436.015C568.416 445.119 579.733 453.932 588 452.656C603.962 450.192 604.708 422.271 588 425.522M613 425C617.867 446.283 605.774 473.994 579 466.71C569.141 464.028 564.64 456.876 558 450C555.105 459.795 557.164 472.115 559 482C578.779 482 599.741 484.615 617 472.906C625.707 466.998 632.306 457.61 636.385 448C637.604 445.127 640.408 440.466 638.868 437.329C635.304 430.067 620.177 426.485 613 425z"/>
<path style="fill:#ec6004; stroke:none;" d="M615.667 425.333L616.333 425.667L615.667 425.333M404 426L405 427L404 426M439 426L440 427L439 426M584 426L585 427L584 426M619 426L620 427L619 426M401 427L402 428L401 427z"/>
<path style="fill:#ffb850; stroke:none;" d="M410 427L411 428L410 427M427 427L428 428L427 427M596 427L597 428L596 427M613 427L614 428L613 427z"/>
<path style="fill:#ec6004; stroke:none;" d="M622 427L623 428L622 427M399 428L400 429L399 428M624 428L625 429L624 428z"/>
<path style="fill:#ffb850; stroke:none;" d="M409 430L410 431L409 430z"/>
<path style="fill:#ec6004; stroke:none;" d="M447 430L448 431L447 430M576 430L577 431L576 430z"/>
<path style="fill:#ffb850; stroke:none;" d="M614 430L615 431L614 430z"/>
<path style="fill:#ec6004; stroke:none;" d="M450 432L451 433L450 432M573 432L574 433L573 432z"/>
<path style="fill:#bf370d; stroke:none;" d="M632 432L633 433L632 432z"/>
<path style="fill:#ec6004; stroke:none;" d="M389 433L390 434L389 433M572 433L573 434L572 433M634 433L635 434L634 433z"/>
<path style="fill:#ffb850; stroke:none;" d="M423 434L424 435L423 434M600 434L601 435L600 434z"/>
<path style="fill:#ec6004; stroke:none;" d="M386 435L387 436L386 435M408 435L409 436L408 435M615 435L616 436L615 435M637 435L638 436L637 435z"/>
<path style="fill:#ffb850; stroke:none;" d="M408 436L408 440L409 440L408 436M615 436L615 440L616 440L615 436z"/>
<path style="fill:#ec6004; stroke:none;" d="M408.333 440.667L408.667 441.333L408.333 440.667M615 440L616 441L615 440z"/>
<path style="fill:#ffb850; stroke:none;" d="M423 441L424 442L423 441M452 441L453 442L452 441M571 441L572 442L571 441M600 441L601 442L600 441z"/>
<path style="fill:#bf370d; stroke:none;" d="M385 442L386 443L385 442M638 442L639 443L638 442z"/>
<path style="fill:#ffb850; stroke:none;" d="M451 444L452 445L451 444M572 444L573 445L572 444z"/>
<path style="fill:#bf370d; stroke:none;" d="M386 445L387 446L386 445z"/>
<path style="fill:#ffb850; stroke:none;" d="M409 445L410 446L409 445M614 445L615 446L614 445z"/>
<path style="fill:#bf370d; stroke:none;" d="M637 445L638 446L637 445M387 447L388 448L387 447z"/>
<path style="fill:#ffb850; stroke:none;" d="M426 447L427 448L426 447M449 447L450 448L449 447M574 447L575 448L574 447M597 447L598 448L597 447z"/>
<path style="fill:#bf370d; stroke:none;" d="M636 447L637 448L636 447z"/>
<path style="fill:#ffb850; stroke:none;" d="M410 448L411 449L410 448M427 448L428 449L427 448M448 448L449 449L448 448M575 448L576 449L575 448M596 448L597 449L596 448M613 448L614 449L613 448M428 449L429 450L428 449M447 449L448 450L447 449M576 449L577 450L576 449M595 449L596 450L595 449M431 451L432 452L431 451M444 451L445 452L444 451z"/>
<path style="fill:#ec6004; stroke:none;" d="M464 451L465 452L464 451M559 451L560 452L559 451z"/>
<path style="fill:#ffb850; stroke:none;" d="M579 451L580 452L579 451M434 452L435 453L434 452M441 452L442 453L441 452z"/>
<path style="fill:#ec6004; stroke:none;" d="M467 452L467 463L468 463L467 452M556 452L556 463L557 463L556 452z"/>
<path style="fill:#ffb850; stroke:none;" d="M582 452L583 453L582 452M589 452L590 453L589 452z"/>
<path style="fill:#bf370d; stroke:none;" d="M633 453L634 454L633 453z"/>
<path style="fill:#ffb850; stroke:none;" d="M413 454L414 455L413 454M462 454L463 455L462 454M561 454L562 455L561 454M610 454L611 455L610 454z"/>
<path style="fill:#bf370d; stroke:none;" d="M391 455L392 456L391 455M632 455L633 456L632 455M393 458L394 459L393 458z"/>
<path style="fill:#ec6004; stroke:none;" d="M459 458L460 459L459 458M564 458L565 459L564 458z"/>
<path style="fill:#bf370d; stroke:none;" d="M630 458L631 459L630 458z"/>
<path style="fill:#ec6004; stroke:none;" d="M458 459L459 460L458 459M565 459L566 460L565 459M606 459L607 460L606 459z"/>
<path style="fill:#bf370d; stroke:none;" d="M395 461L396 462L395 461M628 461L629 462L628 461z"/>
<path style="fill:#ffb850; stroke:none;" d="M421 462L422 463L421 462M454 462L455 463L454 462M569 462L570 463L569 462M602 462L603 463L602 462z"/>
<path style="fill:#ec6004; stroke:none;" d="M451 464L452 465L451 464M572 464L573 465L572 464z"/>
<path style="fill:#ffb850; stroke:none;" d="M427 465L428 466L427 465M448 465L449 466L448 465M575 465L576 466L575 465M596 465L597 466L596 465z"/>
<path style="fill:#ec6004; stroke:none;" d="M429 466L430 467L429 466z"/>
<path style="fill:#ffb850; stroke:none;" d="M430 466L431 467L430 466M445 466L446 467L445 466z"/>
<path style="fill:#ec6004; stroke:none;" d="M446 466L447 467L446 466M577 466L578 467L577 466z"/>
<path style="fill:#ffb850; stroke:none;" d="M578 466L579 467L578 466M593 466L594 467L593 466z"/>
<path style="fill:#ec6004; stroke:none;" d="M594 466L595 467L594 466M434 467L435 468L434 467z"/>
<path style="fill:#ffb850; stroke:none;" d="M435 467L435 468L441 468L435 467z"/>
<path style="fill:#ec6004; stroke:none;" d="M441 467L442 468L441 467M582 467L583 468L582 467z"/>
<path style="fill:#ffb850; stroke:none;" d="M583 467L583 468L589 468L583 467z"/>
<path style="fill:#ec6004; stroke:none;" d="M589 467L590 468L589 467z"/>
<path style="fill:#bf370d; stroke:none;" d="M405 471L406 472L405 471M466 471L467 472L466 471M557 471L558 472L557 471z"/>
<path style="fill:#ec6004; stroke:none;" d="M466.333 472.667L466.667 473.333L466.333 472.667M557.333 472.667L557.667 473.333L557.333 472.667z"/>
<path style="fill:#bf370d; stroke:none;" d="M364 473C364 538.724 358.781 606.691 375.735 671C381.534 692.997 389.634 714.589 401.612 734C407.265 743.161 418.769 752.118 422.397 762C425.427 770.255 423 783.23 423 792L424 792L424 762C442.655 780.655 463.335 795.958 486 809.397C492.775 813.414 503.89 822.219 512 822.219C519.58 822.219 529.537 814.252 536 810.694C559.56 797.725 581.031 780.969 600 762L600 792L601 792C601 783.23 598.573 770.255 601.603 762C605.293 751.95 617.071 742.278 622.947 733C634.094 715.397 641.832 695.097 647.116 675C664.464 609.018 660 540.465 660 473L659 473C655.022 499.935 634.962 527.758 621.719 551C618.058 557.425 612.551 564.01 610.118 571C607.545 578.392 615.689 591.621 615.957 600C616.793 626.171 596.223 652.162 571 658C570.959 719.915 453.041 719.857 453 658C427.777 652.162 407.207 626.171 408.043 600C408.314 591.528 415.94 579.648 414.196 572C411.534 560.329 400.097 547.544 394.306 537C382.918 516.268 375.149 493.511 364 473M411 475L412 476L411 475M612 475L613 476L612 475M413 476L414 477L413 476M415 477L416 478L415 477M608 477L609 478L608 477M420 479L421 480L420 479z"/>
<path style="fill:#ec6004; stroke:none;" d="M465.333 479.667L465.667 480.333L465.333 479.667M558.333 479.667L558.667 480.333L558.333 479.667z"/>
<path style="fill:#bf370d; stroke:none;" d="M603 479L604 480L603 479M428.667 481.333L429.333 481.667L428.667 481.333M594.667 481.333L595.333 481.667L594.667 481.333M269.333 522.667L269.667 523.333L269.333 522.667M754.333 522.667L754.667 523.333L754.333 522.667M268.333 525.667L268.667 526.333L268.333 525.667M755.333 525.667L755.667 526.333L755.333 525.667M267.333 529.667L267.667 530.333L267.333 529.667M756.333 529.667L756.667 530.333L756.333 529.667M266.333 533.667L266.667 534.333L266.333 533.667M757.333 533.667L757.667 534.333L757.333 533.667M265.333 537.667L265.667 538.333L265.333 537.667M758.333 537.667L758.667 538.333L758.333 537.667M264.333 542.667L264.667 543.333L264.333 542.667M759.333 542.667L759.667 543.333L759.333 542.667M263 547L263 550L264 550L263 547M760 547L760 550L761 550L760 547M262 553L262 557L263 557L262 553M761 554L761 557L762 557L761 554M261 562L261 568L262 568L261 562M762 562L762 568L763 568L762 562z"/>
<path style="fill:#ec6004; stroke:none;" d="M459 571L459 572L463 572L459 571M561 571L561 572L565 572L561 571z"/>
<path style="fill:#474747; stroke:none;" d="M512 640C515.668 634.716 518.554 629.996 524 626.22C539.758 615.295 583.269 604.272 569.347 576.059C565.4 568.059 553.791 573.69 548 576.15C535.101 581.628 521.305 587.26 507 585.829C493.002 584.43 481.21 576.917 468 573.043C461.099 571.019 454.772 572.025 453.329 580C448.284 607.887 481.638 613.79 499 625.52C504.893 629.502 508.057 634.321 512 640z"/>
<path style="fill:#ec6004; stroke:none;" d="M466 572L467 573L466 572M557 572L558 573L557 572M469 573L470 574L469 573M554 573L555 574L554 573M472 574L473 575L472 574M414 575L415 576L414 575M454 575L455 576L454 575M474 575L475 576L474 575M549 575L550 576L549 575M569 575L570 576L569 575M609 575L610 576L609 575z"/>
<path style="fill:#bf370d; stroke:none;" d="M260 576L260 593L261 593L260 576M476 576L477 577L476 576M547 576L548 577L547 576M763 576L763 593L764 593L763 576z"/>
<path style="fill:#ec6004; stroke:none;" d="M413 577L414 578L413 577M479 577L480 578L479 577M544 577L545 578L544 577M610 577L611 578L610 577M453 578L454 579L453 578M481 578L482 579L481 578M542 578L543 579L542 578M570 578L571 579L570 578M412 579L413 580L412 579M484 579L485 580L484 579M539 579L540 580L539 579z"/>
<path style="fill:#bf370d; stroke:none;" d="M570 579L571 580L570 579z"/>
<path style="fill:#ec6004; stroke:none;" d="M611 579L612 580L611 579M486 580L487 581L486 580M537 580L538 581L537 580M489 581L490 582L489 581M534 581L535 582L534 581M411 582L412 583L411 582M492 582L493 583L492 582M531 582L532 583L531 582M612 582L613 583L612 582M495 583L496 584L495 583M528 583L529 584L528 583M499 584L500 585L499 584M524 584L525 585L524 584M410 585L411 586L410 585z"/>
<path style="fill:#bf370d; stroke:none;" d="M504 585L505 586L504 585z"/>
<path style="fill:#ec6004; stroke:none;" d="M505.667 585.333L506.333 585.667L505.667 585.333M517 585L517 586L520 586L517 585M613 585L614 586L613 585M409.333 589.667L409.667 590.333L409.333 589.667M614.333 589.667L614.667 590.333L614.333 589.667M453 591L454 592L453 591M570 591L571 592L570 591M454 594L455 595L454 594M569 594L570 595L569 594M408 595L408 607L409 607L408 595M615 595L615 607L616 607L615 595M456 598L457 599L456 598M567 598L568 599L567 598z"/>
<path style="fill:#bf370d; stroke:none;" d="M762 598L762 603L763 603L762 598M261 599L261 603L262 603L261 599z"/>
<path style="fill:#ec6004; stroke:none;" d="M459 602L460 603L459 602M460 603L461 604L460 603M563 603L564 604L563 603z"/>
<path style="fill:#bf370d; stroke:none;" d="M262 606L262 609L263 609L262 606M761 606L761 609L762 609L761 606z"/>
<path style="fill:#ec6004; stroke:none;" d="M465 607L466 608L465 607M558 607L559 608L558 607M468 609L469 610L468 609M555 609L556 610L555 609M470 610L471 611L470 610M553 610L554 611L553 610M409.333 611.667L409.667 612.333L409.333 611.667M614.333 611.667L614.667 612.333L614.333 611.667z"/>
<path style="fill:#bf370d; stroke:none;" d="M760 611L760 614L761 614L760 611M263.333 612.667L263.667 613.333L263.333 612.667z"/>
<path style="fill:#ec6004; stroke:none;" d="M546 614L547 615L546 614M410.333 615.667L410.667 616.333L410.333 615.667M613.333 615.667L613.667 616.333L613.333 615.667z"/>
<path style="fill:#bf370d; stroke:none;" d="M264.333 616.667L264.667 617.333L264.333 616.667M759.333 616.667L759.667 617.333L759.333 616.667z"/>
<path style="fill:#ec6004; stroke:none;" d="M484 617L485 618L484 617M486 618L487 619L486 618z"/>
<path style="fill:#bf370d; stroke:none;" d="M537 618L538 619L537 618z"/>
<path style="fill:#ec6004; stroke:none;" d="M411 619L412 620L411 619M488 619L489 620L488 619M535 619L536 620L535 619M612 619L613 620L612 619z"/>
<path style="fill:#bf370d; stroke:none;" d="M265.333 620.667L265.667 621.333L265.333 620.667z"/>
<path style="fill:#ec6004; stroke:none;" d="M490 620L491 621L490 620M533 620L534 621L533 620z"/>
<path style="fill:#bf370d; stroke:none;" d="M758.333 620.667L758.667 621.333L758.333 620.667z"/>
<path style="fill:#ec6004; stroke:none;" d="M492 621L493 622L492 621M531 621L532 622L531 621M412 622L413 623L412 622z"/>
<path style="fill:#bf370d; stroke:none;" d="M494 622L495 623L494 622z"/>
<path style="fill:#ec6004; stroke:none;" d="M611 622L612 623L611 622z"/>
<path style="fill:#bf370d; stroke:none;" d="M266.333 623.667L266.667 624.333L266.333 623.667M757.333 623.667L757.667 624.333L757.333 623.667z"/>
<path style="fill:#ec6004; stroke:none;" d="M413 624L414 625L413 624M497 624L498 625L497 624M526 624L527 625L526 624M610 624L611 625L610 624M499 625L500 626L499 625z"/>
<path style="fill:#bf370d; stroke:none;" d="M524 625L525 626L524 625M267.333 626.667L267.667 627.333L267.333 626.667z"/>
<path style="fill:#ec6004; stroke:none;" d="M414 626L415 627L414 626M609 626L610 627L609 626z"/>
<path style="fill:#bf370d; stroke:none;" d="M756.333 626.667L756.667 627.333L756.333 626.667z"/>
<path style="fill:#ec6004; stroke:none;" d="M415 628L416 629L415 628M503 628L504 629L503 628M520 628L521 629L520 628M608 628L609 629L608 628z"/>
<path style="fill:#bf370d; stroke:none;" d="M268.333 629.667L268.667 630.333L268.333 629.667z"/>
<path style="fill:#ec6004; stroke:none;" d="M504 629L505 630L504 629M519 629L520 630L519 629z"/>
<path style="fill:#bf370d; stroke:none;" d="M755.333 629.667L755.667 630.333L755.333 629.667z"/>
<path style="fill:#ec6004; stroke:none;" d="M416 630L417 631L416 630M505 630L506 631L505 630M518 630L519 631L518 630M607 630L608 631L607 630M506 631L507 632L506 631M517 631L518 632L517 631z"/>
<path style="fill:#bf370d; stroke:none;" d="M269.333 632.667L269.667 633.333L269.333 632.667z"/>
<path style="fill:#ec6004; stroke:none;" d="M417 632L418 633L417 632M507 632L508 633L507 632M516 632L517 633L516 632M606 632L607 633L606 632z"/>
<path style="fill:#bf370d; stroke:none;" d="M754.333 632.667L754.667 633.333L754.333 632.667z"/>
<path style="fill:#ec6004; stroke:none;" d="M418 633L419 634L418 633M605 633L606 634L605 633z"/>
<path style="fill:#bf370d; stroke:none;" d="M270 635L271 636L270 635z"/>
<path style="fill:#ec6004; stroke:none;" d="M419 635L420 636L419 635M509 635L510 636L509 635M514 635L515 636L514 635M604 635L605 636L604 635z"/>
<path style="fill:#bf370d; stroke:none;" d="M753 635L754 636L753 635z"/>
<path style="fill:#ec6004; stroke:none;" d="M420 636L421 637L420 636M603 636L604 637L603 636z"/>
<path style="fill:#bf370d; stroke:none;" d="M271.333 637.667L271.667 638.333L271.333 637.667z"/>
<path style="fill:#ec6004; stroke:none;" d="M510 637L511 638L510 637M513 637L514 638L513 637z"/>
<path style="fill:#bf370d; stroke:none;" d="M752.333 637.667L752.667 638.333L752.333 637.667M272 640L273 641L272 640M751 640L752 641L751 640z"/>
<path style="fill:#ec6004; stroke:none;" d="M424 641L425 642L424 641z"/>
<path style="fill:#474747; stroke:none;" d="M453 658C453.036 662.399 452.926 669.18 456.513 672.397C465.03 680.032 489.208 671.963 498 668.124C502.23 666.277 507.279 661.398 512 661.398C516.721 661.398 521.77 666.277 526 668.124C534.792 671.963 558.97 680.032 567.487 672.397C571.074 669.18 570.964 662.399 571 658C557.817 660.557 545.393 660.762 533 654.741C527.246 651.945 517.989 641.787 512 641.787C506.067 641.787 496.758 651.962 491 654.742C478.58 660.736 466.206 660.561 453 658z"/>
<path style="fill:#ec6004; stroke:none;" d="M511.667 641.333L512.333 641.667L511.667 641.333M599 641L600 642L599 641z"/>
<path style="fill:#bf370d; stroke:none;" d="M273 642L274 643L273 642z"/>
<path style="fill:#ec6004; stroke:none;" d="M425 642L426 643L425 642M598 642L599 643L598 642z"/>
<path style="fill:#bf370d; stroke:none;" d="M750 642L751 643L750 642z"/>
<path style="fill:#ec6004; stroke:none;" d="M426 643L427 644L426 643M597 643L598 644L597 643z"/>
<path style="fill:#bf370d; stroke:none;" d="M274.333 644.667L274.667 645.333L274.333 644.667M749.333 644.667L749.667 645.333L749.333 644.667M275 647L276 648L275 647z"/>
<path style="fill:#ec6004; stroke:none;" d="M431 647L432 648L431 647M503 647L504 648L503 647M520 647L521 648L520 647M592 647L593 648L592 647z"/>
<path style="fill:#bf370d; stroke:none;" d="M748 647L749 648L748 647z"/>
<path style="fill:#ec6004; stroke:none;" d="M432 648L433 649L432 648M591 648L592 649L591 648z"/>
<path style="fill:#bf370d; stroke:none;" d="M276 649L277 650L276 649M747 649L748 650L747 649z"/>
<path style="fill:#ec6004; stroke:none;" d="M435 650L436 651L435 650M499 650L500 651L499 650M588 650L589 651L588 650z"/>
<path style="fill:#bf370d; stroke:none;" d="M277 651L278 652L277 651z"/>
<path style="fill:#ec6004; stroke:none;" d="M437 651L438 652L437 651M586 651L587 652L586 651z"/>
<path style="fill:#bf370d; stroke:none;" d="M746 651L747 652L746 651M278.333 652.667L278.667 653.333L278.333 652.667z"/>
<path style="fill:#ec6004; stroke:none;" d="M438 652L439 653L438 652M585 652L586 653L585 652z"/>
<path style="fill:#bf370d; stroke:none;" d="M745.333 652.667L745.667 653.333L745.333 652.667z"/>
<path style="fill:#ec6004; stroke:none;" d="M440 653L441 654L440 653M583 653L584 654L583 653z"/>
<path style="fill:#bf370d; stroke:none;" d="M279 654L280 655L279 654z"/>
<path style="fill:#ec6004; stroke:none;" d="M442 654L443 655L442 654M581 654L582 655L581 654z"/>
<path style="fill:#bf370d; stroke:none;" d="M744 654L745 655L744 654z"/>
<path style="fill:#ec6004; stroke:none;" d="M444.667 655.333L445.333 655.667L444.667 655.333M578.667 655.333L579.333 655.667L578.667 655.333z"/>
<path style="fill:#bf370d; stroke:none;" d="M280 656L281 657L280 656z"/>
<path style="fill:#ec6004; stroke:none;" d="M447 656L448 657L447 656M487 656L488 657L487 656M536 656L537 657L536 656M576 656L577 657L576 656z"/>
<path style="fill:#bf370d; stroke:none;" d="M743 656L744 657L743 656z"/>
<path style="fill:#ec6004; stroke:none;" d="M450.667 657.333L451.333 657.667L450.667 657.333M484 657L485 658L484 657M539 657L540 658L539 657M572.667 657.333L573.333 657.667L572.667 657.333z"/>
<path style="fill:#bf370d; stroke:none;" d="M281 658L282 659L281 658z"/>
<path style="fill:#ec6004; stroke:none;" d="M455 658L456 659L455 658M480 658L481 659L480 658M543 658L544 659L543 658M568 658L569 659L568 658z"/>
<path style="fill:#bf370d; stroke:none;" d="M742 658L743 659L742 658z"/>
<path style="fill:#ec6004; stroke:none;" d="M460 659L460 660L463 660L460 659M473 659L473 660L476 660L473 659M548 659L548 660L551 660L548 659M561 659L561 660L564 660L561 659z"/>
<path style="fill:#bf370d; stroke:none;" d="M282 660L283 661L282 660z"/>
<path style="fill:#ffb850; stroke:none;" d="M456 674C473.587 714.752 550.425 714.722 568 674C555.673 674.102 545.015 674.689 533 670.644C526.676 668.516 518.445 660.838 512 660.838C505.555 660.838 497.324 668.516 491 670.644C478.985 674.689 468.327 674.102 456 674z"/>
<path style="fill:#bf370d; stroke:none;" d="M741 660L742 661L741 660M284 663L285 664L284 663M739 663L740 664L739 663z"/>
<path style="fill:#ec6004; stroke:none;" d="M504 664L505 665L504 664M519 664L520 665L519 664z"/>
<path style="fill:#bf370d; stroke:none;" d="M285 665L286 666L285 665z"/>
<path style="fill:#ec6004; stroke:none;" d="M453 665L453 668L454 668L453 665M570 665L570 668L571 668L570 665z"/>
<path style="fill:#bf370d; stroke:none;" d="M738 665L739 666L738 665M286 667L287 668L286 667M737 667L738 668L737 667M287 668L288 669L287 668M736 668L737 669L736 668z"/>
<path style="fill:#ec6004; stroke:none;" d="M454.333 669.667L454.667 670.333L454.333 669.667M494 669L495 670L494 669M529 669L530 670L529 669M569.333 669.667L569.667 670.333L569.333 669.667z"/>
<path style="fill:#bf370d; stroke:none;" d="M288 670L289 671L288 670z"/>
<path style="fill:#ec6004; stroke:none;" d="M491 670L492 671L491 670M532 670L533 671L532 670z"/>
<path style="fill:#bf370d; stroke:none;" d="M735 670L736 671L735 670M289 671L290 672L289 671z"/>
<path style="fill:#ec6004; stroke:none;" d="M488 671L489 672L488 671M535 671L536 672L535 671z"/>
<path style="fill:#bf370d; stroke:none;" d="M734 671L735 672L734 671z"/>
<path style="fill:#ec6004; stroke:none;" d="M455 672L455 674L457 674L455 672M568 672L567 674L569 674L568 672z"/>
<path style="fill:#bf370d; stroke:none;" d="M290 673L291 674L290 673z"/>
<path style="fill:#ec6004; stroke:none;" d="M480 673L481 674L480 673M543 673L544 674L543 673z"/>
<path style="fill:#bf370d; stroke:none;" d="M733 673L734 674L733 673M291 674L292 675L291 674z"/>
<path style="fill:#ec6004; stroke:none;" d="M463 674L463 675L466 675L463 674M469 674L469 675L473 675L469 674M551 674L551 675L555 675L551 674M558 674L558 675L561 675L558 674z"/>
<path style="fill:#bf370d; stroke:none;" d="M732 674L733 675L732 674z"/>
<path style="fill:#ec6004; stroke:none;" d="M456 675L457 676L456 675M567 675L568 676L567 675z"/>
<path style="fill:#bf370d; stroke:none;" d="M292 676L293 677L292 676M731 676L732 677L731 676M293 677L294 678L293 677z"/>
<path style="fill:#ec6004; stroke:none;" d="M457 677L458 678L457 677M566 677L567 678L566 677z"/>
<path style="fill:#bf370d; stroke:none;" d="M730 677L731 678L730 677M295 680L296 681L295 680z"/>
<path style="fill:#ec6004; stroke:none;" d="M459 680L460 681L459 680M564 680L565 681L564 680z"/>
<path style="fill:#bf370d; stroke:none;" d="M728 680L729 681L728 680M296 681L297 682L296 681M727 681L728 682L727 681M297 683L298 684L297 683M726 683L727 684L726 683M298 684L299 685L298 684z"/>
<path style="fill:#ec6004; stroke:none;" d="M462 684L463 685L462 684M561 684L562 685L561 684z"/>
<path style="fill:#bf370d; stroke:none;" d="M725 684L726 685L725 684z"/>
<path style="fill:#ec6004; stroke:none;" d="M463 685L464 686L463 685M560 685L561 686L560 685M464 686L465 687L464 686M559 686L560 687L559 686z"/>
<path style="fill:#bf370d; stroke:none;" d="M300 687L301 688L300 687z"/>
<path style="fill:#ec6004; stroke:none;" d="M465 687L466 688L465 687M558 687L559 688L558 687z"/>
<path style="fill:#bf370d; stroke:none;" d="M723 687L724 688L723 687M301 688L302 689L301 688z"/>
<path style="fill:#ec6004; stroke:none;" d="M466 688L467 689L466 688M557 688L558 689L557 688z"/>
<path style="fill:#bf370d; stroke:none;" d="M722 688L723 689L722 688M302 689L303 690L302 689M721 689L722 690L721 689z"/>
<path style="fill:#ec6004; stroke:none;" d="M470 691L471 692L470 691M553 691L554 692L553 691z"/>
<path style="fill:#bf370d; stroke:none;" d="M304 692L305 693L304 692z"/>
<path style="fill:#ec6004; stroke:none;" d="M471 692L472 693L471 692M552 692L553 693L552 692z"/>
<path style="fill:#bf370d; stroke:none;" d="M719 692L720 693L719 692M305 693L306 694L305 693z"/>
<path style="fill:#ec6004; stroke:none;" d="M473 693L474 694L473 693z"/>
<path style="fill:#bf370d; stroke:none;" d="M718 693L719 694L718 693M306 694L307 695L306 694z"/>
<path style="fill:#ec6004; stroke:none;" d="M474 694L475 695L474 694M549 694L550 695L549 694z"/>
<path style="fill:#bf370d; stroke:none;" d="M717 694L718 695L717 694z"/>
<path style="fill:#ec6004; stroke:none;" d="M476 695L477 696L476 695M547 695L548 696L547 695M478 696L479 697L478 696M545 696L546 697L545 696z"/>
<path style="fill:#bf370d; stroke:none;" d="M308 697L309 698L308 697z"/>
<path style="fill:#ec6004; stroke:none;" d="M480 697L481 698L480 697M543 697L544 698L543 697z"/>
<path style="fill:#bf370d; stroke:none;" d="M715 697L716 698L715 697M309 698L310 699L309 698z"/>
<path style="fill:#ec6004; stroke:none;" d="M482 698L483 699L482 698M541 698L542 699L541 698z"/>
<path style="fill:#bf370d; stroke:none;" d="M714 698L715 699L714 698M310 699L311 700L310 699z"/>
<path style="fill:#ec6004; stroke:none;" d="M485 699L486 700L485 699M539 699L540 700L539 699z"/>
<path style="fill:#bf370d; stroke:none;" d="M713 699L714 700L713 699M311 700L312 701L311 700z"/>
<path style="fill:#ec6004; stroke:none;" d="M487 700L488 701L487 700M536 700L537 701L536 700z"/>
<path style="fill:#bf370d; stroke:none;" d="M712 700L713 701L712 700z"/>
<path style="fill:#ec6004; stroke:none;" d="M490.667 701.333L491.333 701.667L490.667 701.333M532.667 701.333L533.333 701.667L532.667 701.333M494.667 702.333L495.333 702.667L494.667 702.333M528.667 702.333L529.333 702.667L528.667 702.333M499 703L499 704L502 704L499 703M522 703L522 704L525 704L522 703z"/>
<path style="fill:#bf370d; stroke:none;" d="M314 704L315 705L314 704z"/>
<path style="fill:#ec6004; stroke:none;" d="M509 704L509 705L515 705L509 704z"/>
<path style="fill:#bf370d; stroke:none;" d="M709 704L710 705L709 704M315 705L316 706L315 705M708 705L709 706L708 705M316 706L317 707L316 706M707 706L708 707L707 706M317 707L318 708L317 707M706 707L707 708L706 707M318 708L319 709L318 708M705 708L706 709L705 708M319 709L320 710L319 709M704 709L705 710L704 709M340 730L341 731L340 730M341 731L342 732L341 731M682 731L683 732L682 731M342 732L343 733L342 732M681 732L682 733L681 732M343 733L344 734L343 733M680 733L681 734L680 733M344 734L345 735L344 734M679 734L680 735L679 734M345 735L346 736L345 735M678 735L679 736L678 735M346 736L347 737L346 736M677 736L678 737L677 736M351 740L352 741L351 740M672 740L673 741L672 740M352 741L353 742L352 741M671 741L672 742L671 741M353 742L354 743L353 742M670 742L671 743L670 742M354 743L355 744L354 743M669 743L670 744L669 743M358 746L359 747L358 746M665 746L666 747L665 746M359 747L360 748L359 747M664 747L665 748L664 747M360 748L361 749L360 748M663 748L664 749L663 748M364 751L365 752L364 751M659 751L660 752L659 751M365 752L366 753L365 752M658 752L659 753L658 752M366 753L367 754L366 753M657 753L658 754L657 753M369 755L370 756L369 755M654 755L655 756L654 755M370 756L371 757L370 756M653 756L654 757L653 756M371 757L372 758L371 757M652 757L653 758L652 757M373 758L374 759L373 758M374 759L375 760L374 759M649 759L650 760L649 759M375 760L376 761L375 760M648 760L649 761L648 760M378 762L379 763L378 762M645 762L646 763L645 762M379 763L380 764L379 763M644 763L645 764L644 763M382 765L383 766L382 765M641 765L642 766L641 765M383 766L384 767L383 766M640 766L641 767L640 766M386 768L387 769L386 768M637 768L638 769L637 768M387 769L388 770L387 769M636 769L637 770L636 769M389 770L390 771L389 770M634 770L635 771L634 770M390 771L391 772L390 771M633 771L634 772L633 771M393 773L394 774L393 773M630 773L631 774L630 773M394 774L395 775L394 774M629 774L630 775L629 774M396 775L397 776L396 775M627 775L628 776L627 775M397 776L398 777L397 776M626 776L627 777L626 776M399 777L400 778L399 777M400 778L401 779L400 778M623 778L624 779L623 778M403 780L404 781L403 780M620 780L621 781L620 780M406 782L407 783L406 782M617 782L618 783L617 782M409 784L410 785L409 784M614 784L615 785L614 784M411 785L412 786L411 785M612 785L613 786L612 785M412 786L413 787L412 786M611 786L612 787L611 786M414 787L415 788L414 787M609 787L610 788L609 787M415 788L416 789L415 788M608 788L609 789L608 788M417 789L418 790L417 789M606 789L607 790L606 789M419 790L420 791L419 790M604 790L605 791L604 790M420 791L421 792L420 791M603 791L604 792L603 791M422 792L423 793L422 792M601 792L602 793L601 792z"/>
</svg>
