<?xml version="1.0" standalone="yes"?>
<svg xmlns="http://www.w3.org/2000/svg" width="1024" height="1024">
<path style="fill:#737575; stroke:none;" d="M0 0L0 1024L1024 1024L1024 0L0 0z"/>
<path style="fill:#040404; stroke:none;" d="M296 280L290.906 336L286.043 355L285.657 384.985L270 409C261.3 407.061 263 417.143 263 423C263 436.586 267.991 461.854 246.005 455.427C238.966 453.37 238.002 443.228 237 437C235.171 425.633 232.151 414.154 229.285 403C228.098 398.38 228.197 392.875 224 390C223.667 406.036 218.326 424.396 214.525 440C213.732 443.259 213.231 456.174 207.213 453.744C202.644 451.899 201.544 438.344 200.867 434C198.012 415.709 193.339 397.015 189 379L188 379L176.335 429L169.129 458L169 562L169 753L597 753C595.319 739.522 588.621 730.895 595.323 717C614.454 677.341 682.681 679.806 699.485 720C704.505 732.005 698.569 741.663 696 753L855 753L855 520L853 520L848 528L841 463L823 463C821.848 477.593 820.891 492.492 819.155 507C818.55 512.057 819.24 519.291 817.258 523.937C814.637 530.078 810.267 524.681 809 521L808 521C803.653 544.415 807 570.199 807 594C807 597.815 809.012 617.418 803 615C798.047 616.932 795.641 618.284 791 615L790 615L773 617L772 573L762 578L757 530C752.317 530.869 739.139 528.879 736.179 532.603C731.136 538.951 732.668 557.97 731.714 566C731.386 568.763 731.646 576.493 727.786 576.887C724.859 577.185 721.362 573.428 719 572C716.674 579.869 718.961 587.987 718.999 596C719.083 613.332 719 630.667 719 648C719 653.118 716.354 674.246 706.742 662.682C703.918 659.286 704.301 653.113 703 649L701 649L695.772 663.972L671 665L619 665L596.109 664.258L588 648C587.002 652.192 588.074 658.087 585.821 661.772C583.091 666.237 575.921 665.604 573.893 660.891C571.403 655.101 573 646.198 573 640C573 617.81 579.212 587.611 563.535 570.058C554.702 560.167 538.848 563 527 563C521.978 563 513.22 564.652 510.742 558.891C507.898 552.277 510 541.129 510 534C510 512.806 513.04 491.306 503.414 472C501.199 467.558 499.059 459.652 494.776 456.832C489.418 453.304 475.395 456 469 456L402 456C395.034 456 376.535 459.241 371.603 453.566C367.688 449.061 370 436.661 370 431C370 414.542 369.64 399.409 363 384C351.903 394.824 355 419.907 355 434C355 439.324 357.093 450.407 352.566 454.258C349.809 456.603 345.351 456.004 342 456C320.406 455.972 331.303 426.589 328.852 412.058C327.166 402.064 310.323 395.577 307.434 385C304.81 375.394 307.823 363.896 306.829 354C305.562 341.376 301 331.118 301 318C301 307.14 302.874 289.062 296 280z"/>
<path style="fill:#998c69; stroke:none;" d="M733 401C729.334 394.325 716.896 391.595 711.039 385.91C692.797 368.202 692.091 341.178 708.325 322.004C714.702 314.471 728.611 312.064 733 304C726.476 302.018 720.661 302.715 714 302.99C685.826 304.153 667.949 336.41 672.26 362C675.727 382.577 693.509 399.735 714 402.285C720.62 403.108 726.661 403.374 733 401z"/>
<path style="fill:#d6b645; stroke:none;" d="M730 401C725.466 393.777 712.4 390.197 706.21 382.999C690.043 364.2 692.167 336.474 709.09 319.039C714.768 313.191 726.047 310.538 730 304C714.055 304 700.224 305.36 688.039 317.093C653.184 350.659 684.304 406.775 730 401z"/>
<path style="fill:#f8ce08; stroke:none;" d="M725 400L725 399C684.211 381.928 682.845 321.471 726 306C706.878 297.976 683.327 321.015 677.639 337C665.992 369.731 692.408 400 725 400z"/>
<path style="fill:#737575; stroke:none;" d="M788 629.668C779.735 632.017 767.026 655.836 774.603 663.258C778.637 667.209 797.682 666.127 802.941 664.682C807.907 663.318 807.238 657.069 806.829 653C805.948 644.217 799.991 626.26 788 629.668M285 686L284 687L284 689L287 694C261.429 698.062 274.687 741.619 299 728L299 726L298 725C283.92 728.102 269.846 714.957 281.133 701.533C285.906 695.857 292.836 698.336 299 697L293 692L296 687L285 686M349 693L356 687C351.512 686.335 349.997 688.857 349 693M248 692.702C227.129 696.276 229.347 734.153 251 730.603C272.318 727.107 269.74 688.979 248 692.702M371.603 693.028C369.436 694.745 370.005 698.58 370 701C369.984 708.894 369.343 717.12 370.059 724.981C370.32 727.848 372.285 731.074 375.571 728.953C379.152 726.642 376.875 721.428 379.603 718.589C385.017 712.955 395.623 715.26 395.623 704C395.623 694.271 379.252 686.97 371.603 693.028M413 715C419.866 716.401 422.439 731.982 428.686 729.353C433.703 727.241 428.227 717.453 427.708 714C426.439 705.563 435.763 695.159 421 692.275C403.328 688.823 405.001 700.501 405 714C405 717.724 403.084 726.313 406.525 728.816C414.135 734.354 413 718.277 413 715M451.343 693.028C444.924 697.026 443.235 713.196 440.975 720C440.142 722.508 437.718 727.844 441.321 729.353C448.659 732.426 448.136 718.633 455.982 720.337C460.572 721.334 463.674 733.437 469.393 728.968C472.553 726.498 469.152 720.836 468.285 718C466.377 711.754 462.243 686.239 451.343 693.028M489 715L502 715C502 718.631 501.21 723.468 502.742 726.852C503.96 729.54 507.836 730.839 509.397 727.681C512.242 721.926 510 710.369 510 704C510 688.011 502 692.571 502 706C498.461 706 492.322 707.118 490.028 703.682C488.009 700.659 490.229 691.721 484.104 692.466C480.607 692.892 481.018 697.46 481.001 700C480.95 707.296 478.348 721.118 481.603 727.681C484.843 734.212 488.935 725.2 488.995 722.002C489.04 719.669 489 717.333 489 715M532.34 693.028C525.923 696.996 523.932 713.167 521.81 720C521.007 722.585 518.672 727.825 522.315 729.353C529.156 732.221 529.222 718.83 536.982 720.362C541.34 721.222 544.762 733.568 550.218 728.968C553.058 726.574 550.049 720.719 549.191 718C547.233 711.8 543.052 686.404 532.34 693.028M198 694C196.183 703.312 196.305 719.882 199 729L201 729L202 704L203 704L215.519 723.981L221.721 728.248L224 720L223 694L221 694L220 720C213.418 712.833 207.524 696.737 198 694M311 729C316.907 724.74 313.399 711.726 315 705L317 705C318.448 708.596 320.465 711.763 322.6 715L327.079 721.999C339.847 741.237 341.458 696.642 332 695L331 719C327.505 713.722 319.661 695.941 313.055 694.921C309.299 694.341 310.004 700.883 310 703C309.983 711.304 308.638 721.01 311 729M349 694C346.287 703.177 346.287 719.823 349 729L351 729C353.713 719.823 353.713 703.177 351 694L349 694z"/>
<path style="fill:#040404; stroke:none;" d="M249 696.844C233.307 697.631 234.093 727.345 250 726.485C265.737 725.635 265.143 696.035 249 696.844M378 699L378 709C388.468 708.746 388.351 699.336 378 699M413 699L414 709C423.447 706.435 423.158 699.12 413 699M535 703L533 713L538 713L535 703M454 704L452 713L457 713L456 704L454 704z"/>
</svg>
