<?xml version="1.0" standalone="yes"?>
<svg xmlns="http://www.w3.org/2000/svg" width="1024" height="1024">
<path style="fill:#494e47; stroke:none;" d="M0 0L0 1024L1024 1024L1024 0L0 0z"/>
<path style="fill:#2395ef; stroke:none;" d="M335 347C348.264 341.898 360.233 329.498 372 321.505C396.267 305.021 425.112 290.283 455 289L455 290L451 291L451 292C483.543 282.697 510.963 276.169 544 289.062C553.545 292.787 560.992 299.514 570 304C541.034 233.512 444.81 212.266 385 254.208C354.367 275.69 337.883 310.473 335 347M572 305C602.104 293.324 635.744 290.366 665 307L666 307C672.144 303.059 686.778 311.044 693 313.719C715.828 323.535 738.246 340.144 762 347C762 262.421 651.251 213.545 591.015 275.001C582.688 283.495 576.016 293.777 572 305z"/>
<path style="fill:#9aa9a7; stroke:none;" d="M395 510C428.299 454.887 455.755 391.021 505 348C497.487 361.495 488.982 373.6 483.012 388C469.189 421.339 466.805 460.125 475.526 495C478.631 507.415 483.316 518.69 489.262 530C490.762 532.854 494.043 540.607 498.104 540.079C502.747 539.474 507.828 532.279 510.715 529C520.394 518.006 528.87 506.443 536.576 494C559.328 457.26 569.986 413.712 572.911 371C574.37 349.694 572 328.26 572 307C620.418 355.418 651.087 410.99 684.424 470C694.996 488.713 707.401 506.376 718 525C731.952 517.915 739.658 491.287 742.601 477C752.464 429.129 742.27 380.426 711.195 342C687.479 312.674 648.202 292.473 610 295.089C601.461 295.674 593.184 297.229 585 299.721C581.023 300.931 575.797 304.346 571.576 303.818C567.012 303.247 562.766 298.593 559 296.229C551.884 291.763 544.041 288.218 536 285.77C495.797 273.53 450.482 284.898 419 312.289C376.863 348.95 361.64 405.212 371.424 459C374.017 473.255 381.093 502.89 395 510z"/>
<path style="fill:#2395ef; stroke:none;" d="M449 292L450 293L449 292M447 293L448 294L447 293M445 294L446 295L445 294M443 295L444 296L443 295M441 296L442 297L441 296M438 298L439 299L438 298M436 299L437 300L436 299M435 300L436 301L435 300M433 301L434 302L433 301M432 302L433 303L432 302M430 303L431 304L430 303z"/>
<path style="fill:#494e47; stroke:none;" d="M664 304L665 305L664 304z"/>
<path style="fill:#2395ef; stroke:none;" d="M427 305L428 306L427 305M426 306L427 307L426 306M667 307L668 308L667 307M423 308L424 309L423 308M669.667 308.333L670.333 308.667L669.667 308.333M422 309L423 310L422 309M671 309L672 310L671 309M421 310L422 311L421 310z"/>
<path style="fill:#494e47; stroke:none;" d="M568 310C551.271 329.627 540.889 355.967 532.308 380C514.82 428.978 502.105 483.055 498 535L499 535L549.344 374L563.294 329L568 310z"/>
<path style="fill:#2395ef; stroke:none;" d="M673 310L674 311L673 310M419 311L420 312L419 311M675 311L676 312L675 311M418 312L419 313L418 312M676 312L677 313L676 312M417 313L418 314L417 313M678 313L679 314L678 313M416 314L417 315L416 314M680 314L681 315L680 314M415 315L416 316L415 315M681 315L682 316L681 315M414 316L415 317L414 316M413 317L414 318L413 317M684 317L685 318L684 317M412 318L413 319L412 318M685 318L686 319L685 318M411 319L412 320L411 319M687 319L688 320L687 319M410 320L411 321L410 320M688 320L689 321L688 320M409 321L410 322L409 321M689 321L690 322L689 321M408 322L409 323L408 322M691 322L692 323L691 322M407 323L408 324L407 323M588 323L589 324L588 323M692 323L693 324L692 323M406 324L407 325L406 324M589 324L590 325L589 324M693 324L694 325L693 324M405 325L406 326L405 325M590 325L591 326L590 325M694 325L695 326L694 325M404 326L405 327L404 326M591 326L592 327L591 326M403 327L404 328L403 327M592 327L593 328L592 327M699 329L700 330L699 329M401 330L402 331L401 330M700 330L701 331L700 330M400 331L401 332L400 331M595 331L596 332L595 331M701 331L702 332L701 331M399 332L400 333L399 332M596 332L597 333L596 332M702 332L703 333L702 332M597 333L598 334L597 333M703 333L704 334L703 333M398 334L399 335L398 334M598 334L599 335L598 334M704 334L705 335L704 334M397 335L398 336L397 335M599 335L600 336L599 335M705 335L706 336L705 335M396 336L397 337L396 336M706 336L707 337L706 336M707 337L708 338L707 337M395 338L396 339L395 338M601 338L602 339L601 338M394 339L395 340L394 339M602 339L603 340L602 339M603 340L604 341L603 340M393 341L394 342L393 341M604 341L605 342L604 341M710 341L711 342L710 341M392 342L393 343L392 342M605 342L606 343L605 342M711 342L712 343L711 342M712 343L713 344L712 343M391 344L392 345L391 344M713 344L714 345L713 344M390 345L391 346L390 345M607 345L608 346L607 345M608 346L609 347L608 346M714 346L715 347L714 346M389 347L390 348L389 347M609 347L610 348L609 347M715 347L716 348L715 347M504 348L503 350L504 348M610 348L611 349L610 348M716 348L717 349L716 348M388 349L389 350L388 349z"/>
<path style="fill:#494e47; stroke:none;" d="M504 349L505 350L504 349z"/>
<path style="fill:#2395ef; stroke:none;" d="M387 350L388 351L387 350M717 350L718 351L717 350M500 351L501 352L500 351M612 351L613 352L612 351M718 351L719 352L718 351M386 352L387 353L386 352M499 352L500 353L499 352M613 352L614 353L613 352M719 352L720 353L719 352M498 353L499 354L498 353M614 353L615 354L614 353M385 354L386 355L385 354M497 354L498 355L497 354M720 354L721 355L720 354M496 355L497 356L496 355M615 355L616 356L615 355M384 356L385 357L384 356M495 356L496 357L495 356M616 356L617 357L616 356M721 356L722 357L721 356M494 357L495 358L494 357M617 357L618 358L617 357M722 357L723 358L722 357M383 358L384 359L383 358M493 358L494 359L493 358M492 359L493 360L492 359M618 359L619 360L618 359M382 360L383 361L382 360M491 360L492 361L491 360M619 360L620 361L619 360M724 360L725 361L724 360M490 361L491 362L490 361M620 361L621 362L620 361M381.333 362.667L381.667 363.333L381.333 362.667M489 362L490 363L489 362M725 362L726 363L725 362M488 363L489 364L488 363M621 363L622 364L621 363M380.333 364.667L380.667 365.333L380.333 364.667M487 364L488 365L487 364M622 364L623 365L622 364M726 364L727 365L726 364M486 365L487 366L486 365M485 366L486 367L485 366M623 366L624 367L623 366M379 367L380 368L379 367M484 367L485 368L484 367M624 367L625 368L624 367M728.333 367.667L728.667 368.333L728.333 367.667M625 368L626 369L625 368M729 369L730 370L729 369M378 370L379 371L378 370M626 370L627 371L626 370M481 371L482 372L481 371M627 371L628 372L627 371M730 371L731 372L730 371M377.333 372.667L377.667 373.333L377.333 372.667M480 372L481 373L480 372M479 373L480 374L479 373M628 373L629 374L628 373M731 373L732 374L731 373M376.333 374.667L376.667 375.333L376.333 374.667M478 374L479 375L478 374M629 374L630 375L629 374M732.333 375.667L732.667 376.333L732.333 375.667M630 376L631 377L630 376M476 377L477 378L476 377M631 377L632 378L631 377M733.333 377.667L733.667 378.333L733.333 377.667M375 378L376 379L375 378M475 378L476 379L475 378M474 379L475 380L474 379M632 379L633 380L632 379M633 380L634 381L633 380M734 380L735 381L734 380M374.333 381.667L374.667 382.333L374.333 381.667M472 382L473 383L472 382M634 382L635 383L634 382M735.333 382.667L735.667 383.333L735.333 382.667M471 383L472 384L471 383M635 383L636 384L635 383M373 384L373 387L374 387L373 384M470 384L471 385L470 384M636 385L637 386L636 385M736 385L737 386L736 385M469 386L470 387L469 386M468 387L469 388L468 387M637 387L638 388L637 387M737.333 387.667L737.667 388.333L737.333 387.667M372.333 388.667L372.667 389.333L372.333 388.667M638 388L639 389L638 388M467 389L468 390L467 389M466 390L467 391L466 390M639 390L640 391L639 390M738.333 390.667L738.667 391.333L738.333 390.667M465 391L466 392L465 391M640 391L641 392L640 391M371 392L371 395L372 395L371 392M464 393L465 394L464 393M641 393L642 394L641 393M739.333 393.667L739.667 394.333L739.333 393.667M463 394L464 395L463 394M642 395L643 396L642 395M462 396L463 397L462 396M643 396L644 397L643 396M740.333 396.667L740.667 397.333L740.333 396.667M370 397L370 401L371 401L370 397M461 397L462 398L461 397M644 398L645 399L644 398M460 399L461 400L460 399M459 400L460 401L459 400M645 400L646 401L645 400M741 400L742 401L741 400M646 401L647 402L646 401M369 402L369 407L370 407L369 402M458 402L459 403L458 402M457 403L458 404L457 403M647 403L648 404L647 403M742.333 404.667L742.667 405.333L742.333 404.667M456 405L457 406L456 405M648 405L649 406L648 405M455 406L456 407L455 406M649.333 406.667L649.667 407.333L649.333 406.667M454 408L455 409L454 408M650 408L651 409L650 408M743 408L743 411L744 411L743 408M453 410L454 411L453 410M651 410L652 411L651 410M368 411L368 415L369 415L368 411M452 411L453 412L452 411M652 412L653 413L652 412M744 412L744 415L745 415L744 412M451 413L452 414L451 413M653.333 413.667L653.667 414.333L653.333 413.667M450 415L451 416L450 415M654 415L655 416L654 415M449 416L450 417L449 416M655 417L656 418L655 417M448 418L449 419L448 418M656 419L657 420L656 419M745 419L745 422L746 422L745 419M447 420L448 421L447 420M657 420L658 421L657 420M446 421L447 422L446 421M658 422L659 423L658 422M445 423L446 424L445 423M659 424L660 425L659 424M444 425L445 426L444 425M660 426L661 427L660 426M442 428L443 429L442 428M661 428L662 429L661 428M746 428L746 437L747 437L746 428M441 430L442 431L441 430M663 431L664 432L663 431M440 432L441 433L440 432M664 433L665 434L664 433M439 434L440 435L439 434M438 435L439 436L438 435M665 435L666 436L665 435M437 437L438 438L437 437M666 437L667 438L666 437M368 438L368 443L369 443L368 438M667.333 438.667L667.667 439.333L667.333 438.667M436 439L437 440L436 439M668 440L669 441L668 440M435 441L436 442L435 441M434 442L435 443L434 442M669 442L670 443L669 442M433 444L434 445L433 444M670 444L671 445L670 444M432 446L433 447L432 446M671 446L672 447L671 446M369 447L369 452L370 452L369 447M672 447L673 448L672 447M746 447L746 455L747 455L746 447M431 448L432 449L431 448M430 450L431 451L430 450M673 450L674 451L673 450M674 451L675 452L674 451M370 453L370 457L371 457L370 453M428 453L429 454L428 453M675 453L676 454L675 453M427 455L428 456L427 455M676 455L677 456L676 455M426 457L427 458L426 457M677 457L678 458L677 457M678.333 458.667L678.667 459.333L678.333 458.667M371.333 459.667L371.667 460.333L371.333 459.667M425 459L426 460L425 459M424.333 460.667L424.667 461.333L424.333 460.667M679 460L680 461L679 460M745 461L745 464L746 464L745 461M423 462L424 463L423 462M680 462L681 463L680 462M372.333 464.667L372.667 465.333L372.333 464.667M422 464L423 465L422 464M681 464L682 465L681 464M421 466L422 467L421 466M682 466L683 467L682 466M373 467L373 470L374 470L373 467M420 468L421 469L420 468M683 468L684 469L683 468M419 469L420 470L419 469M744.333 469.667L744.667 470.333L744.333 469.667M684 470L685 471L684 470M374.333 471.667L374.667 472.333L374.333 471.667M418 471L419 472L418 471M685 471L686 472L685 471M743 472L743 476L744 476L743 472M417 473L418 474L417 473M686 473L687 474L686 473M375 475L376 476L375 475M416 475L417 476L416 475M687 475L688 476L687 475M376.333 477.667L376.667 478.333L376.333 477.667M415 477L416 478L415 477M688 477L689 478L688 477M742.333 477.667L742.667 478.333L742.333 477.667M414 478L415 479L414 478M689 478L690 479L689 478M377.333 480.667L377.667 481.333L377.333 480.667M413 480L414 481L413 480M690 480L691 481L690 480M412 482L413 483L412 482M691 482L692 483L691 482M741 482L742 483L741 482M378 483L379 484L378 483M692.333 483.667L692.667 484.333L692.333 483.667M379.333 485.667L379.667 486.333L379.333 485.667M410 485L411 486L410 485M693 485L694 486L693 485M740.333 485.667L740.667 486.333L740.333 485.667M380.333 487.667L380.667 488.333L380.333 487.667M409 487L410 488L409 487M694 487L695 488L694 487M408 488L409 489L408 488M739.333 488.667L739.667 489.333L739.333 488.667M695 489L696 490L695 489M381 490L382 491L381 490M407 490L408 491L407 490M696 490L697 491L696 490M406.333 491.667L406.667 492.333L406.333 491.667M738 491L739 492L738 491M382 492L383 493L382 492M697 492L698 493L697 492M405 493L406 494L405 493M383 494L384 495L383 494M698 494L699 495L698 494M737 494L738 495L737 494M404 495L405 496L404 495M699 495L700 496L699 495M384 496L385 497L384 496M403 496L404 497L403 496M736.333 496.667L736.667 497.333L736.333 496.667M700 497L701 498L700 497M385 498L386 499L385 498M402 498L403 499L402 498M401 499L402 500L401 499M701 499L702 500L701 499M735 499L736 500L735 499M386 500L387 501L386 500M702 500L703 501L702 500M387 501L388 502L387 501M400 501L401 502L400 501M734 501L735 502L734 501M399 502L400 503L399 502M703 502L704 503L703 502M388 503L389 504L388 503M704 503L705 504L704 503M733 503L734 504L733 503M398 504L399 505L398 504M705 505L706 506L705 505M732 505L733 506L732 505M390 506L391 507L390 506M396 507L397 508L396 507M706 507L707 508L706 507M731 507L732 508L731 507M391 508L392 509L391 508M395 508L396 509L395 508M707 508L708 509L707 508M392 509L393 510L392 509M730 509L731 510L730 509M393.667 510.333L394.333 510.667L393.667 510.333M708 510L709 511L708 510M729 511L730 512L729 511M728 512L729 513L728 512M710 513L711 514L710 513M711 514L712 515L711 514M727 514L728 515L727 514M712 516L713 517L712 516M726 516L727 517L726 516M725 517L726 518L725 517M713 518L714 519L713 518M714 519L715 520L714 519M715 520L716 521L715 520M723 520L724 521L723 520M722 521L723 522L722 521M716 522L717 523L716 522M717 523L718 524L717 523M721 523L722 524L721 523M720 524L721 525L720 524M718.667 525.333L719.333 525.667L718.667 525.333z"/>
<path style="fill:#d7b75c; stroke:none;" d="M231 660L231 793L629 793L613 780L627 792L232 792L232 661L244 661L231 660z"/>
<path style="fill:#9aa9a7; stroke:none;" d="M244 660L244 661L250 661L244 660M230 661L230 792L231 792L231 701C231 689.58 234.408 671.504 230 661z"/>
<path style="fill:#fdc009; stroke:none;" d="M232 661L232 792L627 792C620.145 783.579 608.985 777.495 600 771.506C578.969 757.487 556.74 745.536 534 734.576C469.878 703.669 402.015 683.91 332 671.75C299.27 666.065 265.256 661 232 661z"/>
<path style="fill:#d7b75c; stroke:none;" d="M245 661L245 662L255 662L245 661z"/>
<path style="fill:#9aa9a7; stroke:none;" d="M255 661L255 662L261 662L255 661z"/>
<path style="fill:#d7b75c; stroke:none;" d="M260 662L260 663L267 663L260 662z"/>
<path style="fill:#9aa9a7; stroke:none;" d="M267 662L267 663L270 663L267 662z"/>
<path style="fill:#d7b75c; stroke:none;" d="M270 663L270 664L287 665L270 663z"/>
<path style="fill:#9aa9a7; stroke:none;" d="M278 663L278 664L281 664L278 663M287 664L287 665L291 665L287 664z"/>
<path style="fill:#d7b75c; stroke:none;" d="M289 665L289 666L294 666L289 665z"/>
<path style="fill:#9aa9a7; stroke:none;" d="M294.667 665.333L295.333 665.667L294.667 665.333z"/>
<path style="fill:#d7b75c; stroke:none;" d="M298 666L298 667L316 669L298 666z"/>
<path style="fill:#9aa9a7; stroke:none;" d="M303.667 666.333L304.333 666.667L303.667 666.333M311.667 667.333L312.333 667.667L311.667 667.333M316 668L316 669L319 669L316 668z"/>
<path style="fill:#d7b75c; stroke:none;" d="M319 669L319 670L323 670L319 669z"/>
<path style="fill:#9aa9a7; stroke:none;" d="M323.667 669.333L324.333 669.667L323.667 669.333z"/>
<path style="fill:#d7b75c; stroke:none;" d="M325 670L325 671L340 673L325 670z"/>
<path style="fill:#9aa9a7; stroke:none;" d="M330.667 670.333L331.333 670.667L330.667 670.333M336.667 671.333L337.333 671.667L336.667 671.333M340.667 672.333L341.333 672.667L340.667 672.333z"/>
<path style="fill:#d7b75c; stroke:none;" d="M343 673L343 674L346 674L343 673z"/>
<path style="fill:#9aa9a7; stroke:none;" d="M346.667 673.333L347.333 673.667L346.667 673.333z"/>
<path style="fill:#d7b75c; stroke:none;" d="M347 674L347 675L357 676L347 674z"/>
<path style="fill:#9aa9a7; stroke:none;" d="M352.667 674.333L353.333 674.667L352.667 674.333M357.667 675.333L358.333 675.667L357.667 675.333z"/>
<path style="fill:#d7b75c; stroke:none;" d="M358 676L358 677L361 677L358 676z"/>
<path style="fill:#9aa9a7; stroke:none;" d="M361.667 676.333L362.333 676.667L361.667 676.333z"/>
<path style="fill:#d7b75c; stroke:none;" d="M364 677L364 678L375 680L375 679L364 677z"/>
<path style="fill:#9aa9a7; stroke:none;" d="M367 677L368 678L367 677M372 678L373 679L372 678M375.667 679.333L376.333 679.667L375.667 679.333z"/>
<path style="fill:#d7b75c; stroke:none;" d="M377 680L377 681L380 681L377 680z"/>
<path style="fill:#9aa9a7; stroke:none;" d="M380 680L381 681L380 680z"/>
<path style="fill:#d7b75c; stroke:none;" d="M381 681L381 682L389 683L381 681z"/>
<path style="fill:#9aa9a7; stroke:none;" d="M385 681L386 682L385 681M389.667 682.333L390.333 682.667L389.667 682.333z"/>
<path style="fill:#d7b75c; stroke:none;" d="M390.667 683.333L391.333 683.667L390.667 683.333z"/>
<path style="fill:#9aa9a7; stroke:none;" d="M392.667 683.333L393.333 683.667L392.667 683.333z"/>
<path style="fill:#d7b75c; stroke:none;" d="M394 684L394 685L405 687L405 686L394 684z"/>
<path style="fill:#9aa9a7; stroke:none;" d="M397 684L398 685L397 684M401.667 685.333L402.333 685.667L401.667 685.333M405.667 686.333L406.333 686.667L405.667 686.333z"/>
<path style="fill:#d7b75c; stroke:none;" d="M406.667 687.333L407.333 687.667L406.667 687.333z"/>
<path style="fill:#9aa9a7; stroke:none;" d="M408 687L409 688L408 687z"/>
<path style="fill:#d7b75c; stroke:none;" d="M410 688L410 689L419 691L419 690L410 688z"/>
<path style="fill:#9aa9a7; stroke:none;" d="M412 688L413 689L412 688M416.667 689.333L417.333 689.667L416.667 689.333M419.667 690.333L420.333 690.667L419.667 690.333z"/>
<path style="fill:#d7b75c; stroke:none;" d="M420 691L420 692L430 694L430 693L420 691z"/>
<path style="fill:#9aa9a7; stroke:none;" d="M423 691L424 692L423 691M427 692L428 693L427 692M430 693L431 694L430 693z"/>
<path style="fill:#d7b75c; stroke:none;" d="M431.667 694.333L432.333 694.667L431.667 694.333z"/>
<path style="fill:#9aa9a7; stroke:none;" d="M433 694L434 695L433 694z"/>
<path style="fill:#d7b75c; stroke:none;" d="M434 695L434 696L442 698L442 697L434 695z"/>
<path style="fill:#9aa9a7; stroke:none;" d="M436 695L437 696L436 695M440 696L441 697L440 696M442.667 697.333L443.333 697.667L442.667 697.333z"/>
<path style="fill:#d7b75c; stroke:none;" d="M444 698L444 699L452 701L452 700L444 698z"/>
<path style="fill:#9aa9a7; stroke:none;" d="M446 698L447 699L446 698M449 699L450 700L449 699M452 700L453 701L452 700z"/>
<path style="fill:#d7b75c; stroke:none;" d="M453.667 701.333L454.333 701.667L453.667 701.333z"/>
<path style="fill:#9aa9a7; stroke:none;" d="M455 701L456 702L455 701z"/>
<path style="fill:#d7b75c; stroke:none;" d="M456 702L456 703L464 705L464 704L456 702z"/>
<path style="fill:#9aa9a7; stroke:none;" d="M458 702L459 703L458 702M461 703L462 704L461 703M464 704L465 705L464 704z"/>
<path style="fill:#d7b75c; stroke:none;" d="M465 705L466 706L465 705z"/>
<path style="fill:#9aa9a7; stroke:none;" d="M466 705L467 706L466 705z"/>
<path style="fill:#2395ef; stroke:none;" d="M555 705C548.009 717.094 536.926 721.65 526 729C548.021 741.853 571.455 751.822 593 765.692C604.758 773.262 618.259 787.823 631.17 792.436C644.334 797.14 665.995 793 680 793L793 793L793 706C783.842 712.741 777.702 721.593 767 726.68C737.992 740.467 693.224 734.798 676 705L674 705C653.191 733.019 613.383 741.865 582 726.395C571.279 721.11 564.883 710.019 555 705z"/>
<path style="fill:#d7b75c; stroke:none;" d="M467 706L467 707L472 708L472 707L467 706z"/>
<path style="fill:#9aa9a7; stroke:none;" d="M469 706L470 707L469 706M472 707L473 708L472 707z"/>
<path style="fill:#d7b75c; stroke:none;" d="M473 708L474 709L473 708z"/>
<path style="fill:#9aa9a7; stroke:none;" d="M474.667 708.333L475.333 708.667L474.667 708.333z"/>
<path style="fill:#d7b75c; stroke:none;" d="M476 709L477 710L476 709z"/>
<path style="fill:#9aa9a7; stroke:none;" d="M477 709L478 710L477 709z"/>
<path style="fill:#d7b75c; stroke:none;" d="M478 710L478 711L485 713L485 712L478 710z"/>
<path style="fill:#9aa9a7; stroke:none;" d="M480 710L481 711L480 710M483 711L484 712L483 711M485 712L486 713L485 712z"/>
<path style="fill:#d7b75c; stroke:none;" d="M486 713L486 714L493 716L493 715L486 713z"/>
<path style="fill:#9aa9a7; stroke:none;" d="M488 713L489 714L488 713M491 714L492 715L491 714M493 715L494 716L493 715z"/>
<path style="fill:#d7b75c; stroke:none;" d="M494 716L495 717L494 716z"/>
<path style="fill:#9aa9a7; stroke:none;" d="M495 716L496 717L495 716z"/>
<path style="fill:#d7b75c; stroke:none;" d="M496 717L496 718L500 719L500 718L496 717z"/>
<path style="fill:#9aa9a7; stroke:none;" d="M498 717L499 718L498 717M500 718L501 719L500 718z"/>
<path style="fill:#d7b75c; stroke:none;" d="M501 719L502 720L501 719z"/>
<path style="fill:#9aa9a7; stroke:none;" d="M502 719L503 720L502 719z"/>
<path style="fill:#d7b75c; stroke:none;" d="M503 720L503 721L509 723L509 722L503 720z"/>
<path style="fill:#9aa9a7; stroke:none;" d="M505 720L506 721L505 720M508 721L509 722L508 721M509.667 722.333L510.333 722.667L509.667 722.333z"/>
<path style="fill:#d7b75c; stroke:none;" d="M510 723L510 724L515 725L515 724L510 723z"/>
<path style="fill:#9aa9a7; stroke:none;" d="M512 723L513 724L512 723z"/>
<path style="fill:#d7b75c; stroke:none;" d="M515 725L515 726L519 727L519 726L515 725z"/>
<path style="fill:#9aa9a7; stroke:none;" d="M517 725L518 726L517 725z"/>
<path style="fill:#d7b75c; stroke:none;" d="M520 727L520 728L531 733L531 732L520 727z"/>
<path style="fill:#9aa9a7; stroke:none;" d="M521 727L522 728L521 727M523 728L524 729L523 728M525.667 729.333L526.333 729.667L525.667 729.333M527.667 730.333L528.333 730.667L527.667 730.333M529.667 731.333L530.333 731.667L529.667 731.333M531 732L531 733L543 738L543 737L531 732z"/>
<path style="fill:#d7b75c; stroke:none;" d="M532 733L533 734L532 733M533.667 734.333L534.333 734.667L533.667 734.333M535.667 735.333L536.333 735.667L535.667 735.333M538 736L539 737L538 736M540 737L541 738L540 737M542 738L542 739L545 740L542 738z"/>
<path style="fill:#9aa9a7; stroke:none;" d="M544 738L545 739L544 738M545 739L545 740L564 749L564 748L545 739z"/>
<path style="fill:#d7b75c; stroke:none;" d="M546 740L547 741L546 740M548 741L549 742L548 741M549.667 742.333L550.333 742.667L549.667 742.333M552 743L553 744L552 743M554 744L555 745L554 744M555.667 745.333L556.333 745.667L555.667 745.333M557.667 746.333L558.333 746.667L557.667 746.333M559.667 747.333L560.333 747.667L559.667 747.333M561 748L562 749L561 748M563 749L563 750L566 751L563 749z"/>
<path style="fill:#9aa9a7; stroke:none;" d="M565 749L566 750L565 749M566 750L566 751L571 753L571 752L566 750z"/>
<path style="fill:#d7b75c; stroke:none;" d="M567 751L568 752L567 751M568.667 752.333L569.333 752.667L568.667 752.333M570 753L570 754L573 755L570 753z"/>
<path style="fill:#9aa9a7; stroke:none;" d="M572 753L573 754L572 753M573 754L573 755L583 760L583 759L573 754z"/>
<path style="fill:#d7b75c; stroke:none;" d="M574 755L575 756L574 755M575.667 756.333L576.333 756.667L575.667 756.333M577 757L578 758L577 757M579 758L580 759L579 758M580.667 759.333L581.333 759.667L580.667 759.333M582 760L582 761L585 762L582 760z"/>
<path style="fill:#9aa9a7; stroke:none;" d="M584 760L585 761L584 760M585 761L585 762L614 780L614 779L585 761z"/>
<path style="fill:#d7b75c; stroke:none;" d="M586 762L587 763L586 762M587 763L588 764L587 763M588.667 764.333L589.333 764.667L588.667 764.333M590 765L591 766L590 765M592 766L593 767L592 766M593.667 767.333L594.333 767.667L593.667 767.333M595 768L596 769L595 768M597 769L598 770L597 769M598 770L599 771L598 770M599.667 771.333L600.333 771.667L599.667 771.333M601 772L602 773L601 772M603 773L604 774L603 773M604 774L605 775L604 774M605.667 775.333L606.333 775.667L605.667 775.333M607 776L608 777L607 776M608.667 777.333L609.333 777.667L608.667 777.333M610 778L611 779L610 778M611 779L612 780L611 779z"/>
<path style="fill:#9aa9a7; stroke:none;" d="M614 780L615 781L614 780M615.667 781.333L616.333 781.667L615.667 781.333M617 782L618 783L617 782M618 783L621 785L618 783M621 785L622 786L621 785M622 786L623 787L622 786M623.667 787.333L624.333 787.667L623.667 787.333M625 788L626 789L625 788M626 789L627 790L626 789M627 790L629 792L629 790L627 790M629 792L589 793L505 793L232 793L232 794L535 794L607 794L629 792z"/>
</svg>
