<?xml version="1.0" standalone="yes"?>
<svg xmlns="http://www.w3.org/2000/svg" width="1024" height="1024">
<path style="fill:#474747; stroke:none;" d="M0 0L0 1024L1024 1024L1024 0L0 0z"/>
<path style="fill:#299be3; stroke:none;" d="M342 455C347.226 432.205 354.747 409.13 366.8 389C384.231 359.889 407.651 330.221 439 315.32C470.825 300.193 499.123 308.401 532 311.455C542.762 312.455 554.134 309.875 565 310.004C584.606 310.237 604.905 313.142 624 317.654C644.879 322.588 664.958 330.43 684 340.258C692.817 344.809 700.91 351.078 710 355C696.918 319.27 663.871 296.036 632 279.219C558.427 240.398 449.464 222.293 384 287.004C354.878 315.79 338.743 357.172 327.71 396C321.935 416.323 323.24 441.152 342 455z"/>
<path style="fill:#ae86a5; stroke:none;" d="M480 305L480 306L491 306L480 305M468 306L468 307L472 307L468 306z"/>
<path style="fill:#fca11e; stroke:none;" d="M348 464C373.321 446.163 386.827 411.108 403.671 386C431.406 344.655 477.506 312.426 529 312C518.761 305.826 500.685 306 489 306C431.584 306 389.678 344.951 363.781 394C354.543 411.497 335.93 446.254 348 464z"/>
<path style="fill:#ae86a5; stroke:none;" d="M500 306L500 307L504 307L500 306M462.667 307.333L463.333 307.667L462.667 307.333M509 307L509 308L512 308L509 307M457.667 308.333L458.333 308.667L457.667 308.333M516.667 308.333L517.333 308.667L516.667 308.333M454 309L455 310L454 309M521 309L521 310L524 310L521 309M450.667 310.333L451.333 310.667L450.667 310.333M526 310L526 311L529 311L526 310M447.667 311.333L448.333 311.667L447.667 311.333M529.667 311.333L530.333 311.667L529.667 311.333M445 312L446 313L445 312M521 312L521 313L525 313L521 312M443 313L444 314L443 313M515 313L515 314L518 314L515 313M440 314L441 315L440 314M509 314L509 315L512 315L509 314M438 315L439 316L438 315M504 315L504 316L507 316L504 315M436 316L437 317L436 316M500.667 316.333L501.333 316.667L500.667 316.333M434 317L435 318L434 317M496.667 317.333L497.333 317.667L496.667 317.333M492.667 318.333L493.333 318.667L492.667 318.333M431 319L432 320L431 319M489.667 319.333L490.333 319.667L489.667 319.333z"/>
<path style="fill:#299be3; stroke:none;" d="M317 563C334.74 559.707 346.322 571.442 357.13 584C377.682 607.879 395.598 633.706 418 655.999C464.556 702.331 538.3 722.717 602.985 716.941C614.375 715.924 623.254 692.146 627.15 683C634.487 665.774 637.483 646.517 634.561 628C630.169 600.165 615.046 575.54 613.089 547C608.953 486.659 626.643 426.265 607.33 367C603.694 355.841 599.93 344.784 595.281 334C593.694 330.32 592.385 324.576 589.301 321.858C583.998 317.184 568.724 319 562 319C535.685 319 508.746 320.784 484 330.601C453.716 342.615 428.393 362.462 409.427 389C396.042 407.73 386.732 429.023 372.195 447C363.981 457.158 353.622 467.53 341 471.899C335.003 473.975 324.247 471.738 319.529 475.603C314.592 479.648 311.404 489.128 309.345 495C301.281 517.989 304.749 541.931 317 563z"/>
<path style="fill:#ae86a5; stroke:none;" d="M429 320L430 321L429 320M485.667 320.333L486.333 320.667L485.667 320.333M483 321L484 322L483 321M590 323L594 322L590 323M426 322L427 323L426 322M480 322L481 323L480 322z"/>
<path style="fill:#fca11e; stroke:none;" d="M591 322C594.364 334.3 600.773 345.901 604.921 358C612.134 379.038 616.393 400.847 617.911 423C620.625 462.645 609.391 502.292 613.17 542C616.714 579.238 639.467 614.416 635.83 652C633.424 676.87 620.711 694.964 609 716C641.225 716 671.186 706.382 697 686.87C704.551 681.163 715.283 674.634 719.697 666C726.936 651.84 726.042 629.128 723.196 614C722.305 609.263 721.945 602.418 718.911 598.495C714.571 592.881 707.163 590.106 702.789 584C695.737 574.158 693.018 561.938 693 550C692.978 535.679 695.932 521.291 696.911 507C699.201 473.548 700.211 435.266 696.286 402C694.782 389.256 697.315 366.067 689.143 355.39C684.477 349.295 671.911 345.431 665 342.424C642.22 332.514 616.077 323.077 591 322z"/>
<path style="fill:#ae86a5; stroke:none;" d="M596 322L596 323L600 323L596 322M424 323L425 324L424 323M477.667 323.333L478.333 323.667L477.667 323.333M602 323L602 324L606 324L602 323M423 324L424 325L423 324M475 324L476 325L475 324M591.333 324.667L591.667 325.333L591.333 324.667M608 324L608 325L611 325L608 324M472.667 325.333L473.333 325.667L472.667 325.333M613 325L613 326L616 326L613 325M420 326L421 327L420 326M470 326L471 327L470 326M592.333 326.667L592.667 327.333L592.333 326.667M617 326L617 327L620 327L617 326M468 327L469 328L468 327M621 327L621 328L624 328L621 327M417 328L418 329L417 328M466 328L467 329L466 328M625 328L625 329L628 329L625 328M416 329L417 330L416 329M464 329L465 330L464 329M593 329L594 330L593 329M629.667 329.333L630.333 329.667L629.667 329.333M415 330L416 331L415 330M462 330L463 331L462 330M632.667 330.333L633.333 330.667L632.667 330.333M460 331L461 332L460 331M594.333 331.667L594.667 332.333L594.333 331.667M635 331L635 332L638 332L635 331M458 332L459 333L458 332M639.667 332.333L640.333 332.667L639.667 332.333M411 333L412 334L411 333M456 333L457 334L456 333M595.333 333.667L595.667 334.333L595.333 333.667M642.667 333.333L643.333 333.667L642.667 333.333M410 334L411 335L410 334M455 334L456 335L455 334M645 334L646 335L645 334M409 335L410 336L409 335M453 335L454 336L453 335M647.667 335.333L648.333 335.667L647.667 335.333M408 336L409 337L408 336M596 336L597 337L596 336M650.667 336.333L651.333 336.667L650.667 336.333M450 337L451 338L450 337M653 337L654 338L653 337M597.333 338.667L597.667 339.333L597.333 338.667M655.667 338.333L656.333 338.667L655.667 338.333M447 339L448 340L447 339M658 339L659 340L658 339M446 340L447 341L446 340M598.333 340.667L598.667 341.333L598.333 340.667M660.667 340.333L661.333 340.667L660.667 340.333M444 341L445 342L444 341M662.667 341.333L663.333 341.667L662.667 341.333M443 342L444 343L443 342M665 342L666 343L665 342M442 343L443 344L442 343M599.333 343.667L599.667 344.333L599.333 343.667M667.667 343.333L668.333 343.667L667.667 343.333M440 344L441 345L440 344M669.667 344.333L670.333 344.667L669.667 344.333M439 345L440 346L439 345M671.667 345.333L672.333 345.667L671.667 345.333M438 346L439 347L438 346M600 346L601 347L600 346M673.667 346.333L674.333 346.667L673.667 346.333M437 347L438 348L437 347M675.667 347.333L676.333 347.667L675.667 347.333M601.333 348.667L601.667 349.333L601.333 348.667M678 348L679 349L678 348M395 349L396 350L395 349M434 349L435 350L434 349M679.667 349.333L680.333 349.667L679.667 349.333M394 350L395 351L394 350M433 350L434 351L433 350M681.667 350.333L682.333 350.667L681.667 350.333M393 351L394 352L393 351M432 351L433 352L432 351M602.333 351.667L602.667 352.333L602.333 351.667M683.667 351.333L684.333 351.667L683.667 351.333M392 352L393 353L392 352M431 352L432 353L431 352M685 352L686 353L685 352M430 353L431 354L430 353M687 353L688 354L687 353M429 354L430 355L429 354M603.333 354.667L603.667 355.333L603.333 354.667M689 354L690 355L689 354M428 355L429 356L428 355z"/>
<path style="fill:#299be3; stroke:none;" d="M690 355C698.288 384.422 698 415.697 698 446C698 463.875 699.132 482.169 697.911 500C696.612 518.969 692.33 538.988 694.17 558C695.244 569.102 699.482 580.685 707.3 588.826C711.245 592.935 717.749 594.874 720.431 600.043C731.018 620.446 723.834 645.953 721 667C733.953 657.876 743.856 644.148 755 633C778.851 609.139 801.582 587.761 831 571C822.574 555.807 813.923 541.21 816.289 523C817.29 515.3 819.891 507.961 823.258 501C824.713 497.992 828.066 493.592 826.759 490.089C825.358 486.333 820.198 483.019 817.576 479.999C811.159 472.607 805.556 464.95 799.86 457C777.861 426.297 754.402 398.893 724 376.127C714.026 368.658 702.065 358.55 690 355z"/>
<path style="fill:#ae86a5; stroke:none;" d="M389 356L390 357L389 356M427 356L428 357L427 356M604 356L604 359L605 359L604 356M690.333 356.667L690.667 357.333L690.333 356.667M388 357L389 358L388 357M426 357L427 358L426 357M387 358L388 359L387 358M425 358L426 359L425 358M424 359L425 360L424 359M605 359L605 362L606 362L605 359M423 360L424 361L423 360M691 360L691 363L692 363L691 360M385 361L386 362L385 361M422 361L423 362L422 361M384 362L385 363L384 362M421 362L422 363L421 362M383 363L384 364L383 363M606.333 363.667L606.667 364.333L606.333 363.667M692 364L692 368L693 368L692 364M381 366L382 367L381 366M418 366L419 367L418 366M607.333 366.667L607.667 367.333L607.333 366.667M380 367L381 368L380 367M417 367L418 368L417 367M416 368L417 369L416 368M379 369L380 370L379 369M415 369L416 370L415 369M608.333 369.667L608.667 370.333L608.333 369.667M378 370L379 371L378 370M693 370L693 374L694 374L693 370M413 372L414 373L413 372M609 372L609 375L610 375L609 372M194.667 373.333L195.333 373.667L194.667 373.333M376 373L377 374L376 373M412 373L413 374L412 373z"/>
<path style="fill:#fca11e; stroke:none;" d="M194 374C190.424 400.557 180.072 428.058 170.576 453C166.468 463.789 158.958 474.503 157.3 486C154.32 506.675 170.144 525.159 175.975 544C180.92 559.979 175.236 575.176 178.668 591C183.091 611.394 196.84 627.112 208 644L211 644C235.27 609.513 275.748 576.098 316 563C311.401 546.911 302.423 532.48 304.171 515C305.702 499.68 314.541 488.091 319 474C284.131 460.63 256.394 437.039 230.004 410.985C219.109 400.229 207.781 380.562 194 374z"/>
<path style="fill:#ae86a5; stroke:none;" d="M193.333 376.667L193.667 377.333L193.333 376.667M374 376L375 377L374 376M410 376L411 377L410 376M610 376L610 379L611 379L610 376M694 376L694 381L695 381L694 376M409 377L410 378L409 377M200 379L201 380L200 379M372 379L373 380L372 379M201 380L202 381L201 380M407 380L408 381L407 380M611 380L611 383L612 383L611 380M192 381L193 382L192 381M202 381L203 382L202 381M406 381L407 382L406 381M370 382L371 383L370 382M405 383L406 384L405 383M369 384L370 385L369 384M404 384L405 385L404 384M612 384L612 387L613 387L612 384M695 384L695 390L696 390L695 384M191 385L192 386L191 385M403 386L404 387L403 386M367 387L368 388L367 387M402 387L403 388L402 387M208 388L209 389L208 388M190 389L191 390L190 389M209 389L210 390L209 389M366 389L367 390L366 389M401 389L402 390L401 389M613 389L613 392L614 392L613 389M210 390L211 391L210 390M400 390L401 391L400 390M211 391L212 392L211 391M212 392L213 393L212 392M364 392L365 393L364 392M399 392L400 393L399 392M189 393L190 394L189 393M363 394L364 395L363 394M614 394L614 398L615 398L614 394M696 394L696 404L697 404L696 394M397 395L398 396L397 395M188.333 396.667L188.667 397.333L188.333 396.667M362 396L363 397L362 396M396 397L397 398L396 397M361 398L362 399L361 398M395 398L396 399L395 398M187 400L188 401L187 400M360 400L361 401L360 400M394 400L395 401L394 400M615 400L615 405L616 405L615 400M359 402L360 403L359 402M393 402L394 403L393 402M392 403L393 404L392 403M186 404L187 405L186 404M358 404L359 405L358 404M224 405L225 406L224 405M391 405L392 406L391 405M225 406L226 407L225 406M357 406L358 407L357 406M185 407L186 408L185 407M226 407L227 408L226 407M616 407L616 414L617 414L616 407M227 408L228 409L227 408M389 408L390 409L389 408M228 409L229 410L228 409M356 409L357 410L356 409M229 410L230 411L229 410M388 410L389 411L388 410M697 410L697 504L698 504L698 439L697 410M184 411L185 412L184 411M230 411L231 412L230 411M355 411L356 412L355 411M387 411L388 412L387 411M231 412L232 413L231 412M232 413L233 414L232 413M386 413L387 414L386 413M183 414L184 415L183 414M233 414L234 415L233 414M354 414L355 415L354 414M234 415L235 416L234 415M385 415L386 416L385 415M353.333 416.667L353.667 417.333L353.333 416.667M384 416L385 417L384 416M182 418L183 419L182 418M383 418L384 419L383 418M352 419L353 420L352 419M617 419L617 449L618 449L617 419M382 420L383 421L382 420M181 421L182 422L181 421M381 421L382 422L381 421M351 422L352 423L351 422M380 423L381 424L380 423M180 424L181 425L180 424M379 424L380 425L379 424M350 425L351 426L350 425M246 426L247 427L246 426M378 426L379 427L378 426M179 427L180 428L179 427M247 427L248 428L247 427M377 427L378 428L377 427M248 428L249 429L248 428M349 428L350 429L349 428M249 429L250 430L249 429M376 429L377 430L376 429M178 430L179 431L178 430M250 430L251 431L250 430M348 431L349 432L348 431M374 432L375 433L374 432M177 433L178 434L177 433M347.333 434.667L347.667 435.333L347.333 434.667M373 434L374 435L373 434M256 435L257 436L256 435M372 435L373 436L372 435M176 436L177 437L176 436M257 436L258 437L257 436M258 437L259 438L258 437M371 437L372 438L371 437M346 438L347 439L346 438M370 438L371 439L370 438M175 439L176 440L175 439M263 441L264 442L263 441M345.333 441.667L345.667 442.333L345.333 441.667M368 441L369 442L368 441M174 442L175 443L174 442M264 442L265 443L264 442M367 442L368 443L367 442M366 444L367 445L366 444M173 445L174 446L173 445M268 445L269 446L268 445M344 445L345 446L344 445M365 445L366 446L365 445M269 446L270 447L269 446M272 448L273 449L272 448M363 448L364 449L363 448M273 449L274 450L273 449M343 449L344 450L343 449M362 449L363 450L362 449M171 450L172 451L171 450M361 450L362 451L361 450M276 451L277 452L276 451M277 452L278 453L277 452M342.333 452.667L342.667 453.333L342.333 452.667M170 453L171 454L170 453M359 453L360 454L359 453M280 454L281 455L280 454M358 454L359 455L358 454M169 455L170 456L169 455M357 455L358 456L357 455M616 455L616 464L617 464L616 455M283 456L284 457L283 456M342 456L343 457L342 456M356 456L357 457L356 456M355 457L356 458L355 457M168 458L169 459L168 458M286 458L287 459L286 458M354 458L355 459L354 458M353 459L354 460L353 459M167 460L168 461L167 460M289 460L290 461L289 460M345 460L346 461L345 460M352 460L353 461L352 460M346 461L347 462L346 461M351 461L352 462L351 461M166 462L167 463L166 462M347 462L348 463L347 462M350 462L351 463L350 462M294 463L295 464L294 463M349 463L350 464L349 463M296 464L297 465L296 464M165 465L166 466L165 465M164 467L165 468L164 467M304 468L305 469L304 468z"/>
<path style="fill:#474747; stroke:none;" d="M742 516L742 515C723.178 507.11 714.818 478.909 740 472.316C749.125 469.926 757.26 474.927 765 479C751.104 452.453 706.314 476.924 722.482 504C724.39 507.194 726.877 509.993 730.004 512.031C733.671 514.421 737.689 515.621 742 516z"/>
<path style="fill:#ae86a5; stroke:none;" d="M163 469L164 470L163 469M306 469L307 470L306 469M615 469L615 477L616 477L615 469M162 471L163 472L162 471M311 471L312 472L311 471z"/>
<path style="fill:#299be3; stroke:none;" d="M743 471L743 472L746 472L743 471z"/>
<path style="fill:#ae86a5; stroke:none;" d="M314 472L315 473L314 472M738.667 472.333L739.333 472.667L738.667 472.333z"/>
<path style="fill:#f4f5f7; stroke:none;" d="M740 472.529C711.622 479.076 725.989 521.473 752 515.471C781.949 508.559 769.35 465.758 740 472.529z"/>
<path style="fill:#ae86a5; stroke:none;" d="M750.667 472.333L751.333 472.667L750.667 472.333M161 473L162 474L161 473M318 473L320 475L320 473L318 473M736 473L737 474L736 473M754 473L755 474L754 473M734 474L735 475L734 474M756 474L757 475L756 474M160 475L161 476L160 475M732 475L733 476L732 475M758 475L759 476L758 475M318 476L319 477L318 476M731 476L732 477L731 476M760 476L761 477L760 476M159 477L160 478L159 477M762 477L763 478L762 477M763 478L764 479L763 478M316 479L317 480L316 479M728 479L729 480L728 479M158 480L159 481L158 480M727 480L728 481L727 480M746.667 480.333L747.333 480.667L746.667 480.333z"/>
<path style="fill:#474747; stroke:none;" d="M748 480.576C732.462 484.849 739.421 507.879 754.996 503.566C769.248 499.62 762.252 476.658 748 480.576z"/>
<path style="fill:#ae86a5; stroke:none;" d="M754.667 480.333L755.333 480.667L754.667 480.333M766 480L767 481L766 480M315 481L316 482L315 481M744 481L745 482L744 481M757 481L758 482L757 481M743 482L744 483L743 482M758 482L759 483L758 482M767 482L768 483L767 482M157.333 483.667L157.667 484.333L157.333 483.667M314 483L315 484L314 483M614 483L614 490L615 490L614 483z"/>
<path style="fill:#299be3; stroke:none;" d="M725 483L726 484L725 483z"/>
<path style="fill:#ae86a5; stroke:none;" d="M742 483L743 484L742 483M749 483L749 484L753 484L749 483z"/>
<path style="fill:#299be3; stroke:none;" d="M759 483L760 484L759 483z"/>
<path style="fill:#ae86a5; stroke:none;" d="M725 484L726 485L725 484M741 484L742 485L741 484M747 484L746 486L747 484z"/>
<path style="fill:#f4f5f7; stroke:none;" d="M748.229 485.032C742.274 488.567 747.995 497.219 753.721 493.806C759.566 490.321 753.998 481.609 748.229 485.032z"/>
<path style="fill:#ae86a5; stroke:none;" d="M754 484L755 485L754 484M760 484L761 485L760 484M313 485L314 486L313 485M740 485L741 486L740 485M755 485L756 486L755 485M761 485L762 486L761 485M724.333 486.667L724.667 487.333L724.333 486.667z"/>
<path style="fill:#299be3; stroke:none;" d="M745 486L746 487L745 486z"/>
<path style="fill:#ae86a5; stroke:none;" d="M312 487L313 488L312 487M739 487L740 488L739 487M745 487L746 488L745 487M756 487L757 488L756 487M762 487L763 488L762 487M311 489L312 490L311 489M769 489L770 490L769 489M756.333 490.667L756.667 491.333L756.333 490.667M310 491L311 492L310 491z"/>
<path style="fill:#299be3; stroke:none;" d="M723 491L723 494L724 494L723 491z"/>
<path style="fill:#ae86a5; stroke:none;" d="M738 491L738 494L739 494L738 491M745 491L746 492L745 491M763 491L763 494L764 494L763 491M828 491L825 497L826 497L828 491z"/>
<path style="fill:#fca11e; stroke:none;" d="M828 492C818.854 511.595 812.134 530.77 821.287 552C823.128 556.271 826.363 566.051 831.185 567.694C834.169 568.712 837.632 565.625 840 564.204C845.862 560.686 866.051 556.615 866.664 548.957C867.235 541.807 859.031 538.4 855 534C862.231 532.911 869.382 527.69 863.427 520.171C855.968 510.751 838.799 497.029 828 492z"/>
<path style="fill:#ae86a5; stroke:none;" d="M746 493L747 494L746 493M309 494L310 495L309 494M748 494L749 495L748 494M753 494L754 495L753 494M769 495L770 496L769 495M833 495L834 496L833 495M613 496L613 505L614 505L613 496M739 496L740 497L739 496M762 496L763 497L762 496M834 496L835 497L834 496M157.333 497.667L157.667 498.333L157.333 497.667M308 497L309 498L308 497M835 497L836 498L835 497M724 498L725 499L724 498M740 498L741 499L740 498M761 498L762 499L761 498M824 498L825 499L824 498M836 498L837 499L836 498M307 500L308 501L307 500M741 500L742 501L741 500M760 500L761 501L760 500M823 500L824 501L823 500M839 500L840 501L839 500M725 501L726 502L725 501M742 501L743 502L742 501M759 501L760 502L759 501M840 501L841 502L840 501M158 502L159 503L158 502M767 502L768 503L767 502M822.333 502.667L822.667 503.333L822.333 502.667M841 502L842 503L841 502M306 503L307 504L306 503M726 503L727 504L726 503M745 503L746 504L745 503M756 503L757 504L756 503M727 504L728 505L727 504M748 504L748 505L754 505L748 504M766 504L767 505L766 504M821.333 504.667L821.667 505.333L821.333 504.667M844 504L845 505L844 504M159 505L160 506L159 505M845 505L846 506L845 505M846 506L847 507L846 506M305.333 507.667L305.667 508.333L305.333 507.667M820 507L821 508L820 507M763 508L764 509L763 508M849 508L850 509L849 508M732 509L733 510L732 509M762 509L763 510L762 509M819.333 509.667L819.667 510.333L819.333 509.667M850 509L851 510L850 509M161 510L162 511L161 510M696 510L696 520L697 520L696 510M733 510L734 511L733 510M761 510L762 511L761 510M851 510L852 511L851 510z"/>
<path style="fill:#299be3; stroke:none;" d="M734 511L735 512L734 511z"/>
<path style="fill:#ae86a5; stroke:none;" d="M162 512L163 513L162 512M304 512L304 517L305 517L304 512M736 512L737 513L736 512M818 512L818 515L819 515L818 512M854 512L855 513L854 512M738 513L739 514L738 513M855 513L856 514L855 513M612 514L612 537L613 537L612 514M740 514L741 515L740 514M742 515L743 516L742 515M858 515L859 516L858 515M817 516L817 519L818 519L817 516M859 516L860 517L859 516M860 517L861 518L860 517M816 521L816 537L817 537L816 521M864 521L865 522L864 521M865 522L866 523L865 522M304 523L304 527L305 527L304 523M695 524L695 531L696 531L695 524M168 525L169 526L168 525M866.333 525.667L866.667 526.333L866.333 525.667M169 527L170 528L169 527M170 529L171 530L170 529M864 530L865 531L864 530M171 531L172 532L171 531M305.333 531.667L305.667 532.333L305.333 531.667M692 532L693 533L692 532M694 532L694 538L695 538L694 532M861 532L862 533L861 532M858 533L859 534L858 533M855 534L855 536L857 534L855 534M306.333 535.667L306.667 536.333L306.333 535.667M690 535L691 536L690 535M173 536L174 537L173 536M857 536L858 537L857 536M858 537L859 538L858 537M860 538L861 539L860 538M174 539L175 540L174 539M307.333 539.667L307.667 540.333L307.333 539.667M693 539L693 559L694 559L693 539M817 539L817 543L818 543L817 539M861 539L862 540L861 539M175 542L176 543L175 542M308.333 542.667L308.667 543.333L308.333 542.667M864 542L865 543L864 542M686 543L687 544L686 543M865 543L866 544L865 543M613 544L613 551L614 551L613 544M818.333 544.667L818.667 545.333L818.333 544.667M176 545L177 546L176 545M309.333 545.667L309.667 546.333L309.333 545.667M866 545L867 546L866 545M819 547L819 550L820 550L819 547M310 548L311 549L310 548M177 549L178 550L177 549M820.333 550.667L820.667 551.333L820.333 550.667M311 551L312 552L311 551M866 551L867 552L866 551M821 552L822 557L823 557L821 552M312 553L313 554L312 553M864 553L865 554L864 553M614 554L614 559L615 559L614 554M862 554L863 555L862 554M178.333 555.667L178.667 556.333L178.333 555.667M859.667 555.333L860.333 555.667L859.667 555.333M313 556L314 557L313 556M857.667 556.333L858.333 556.667L857.667 556.333M823 557L825 562L826 562L823 557M854.667 557.333L855.333 557.667L854.667 557.333M314 558L315 559L314 558M851.667 558.333L852.333 558.667L851.667 558.333M849.667 559.333L850.333 559.667L849.667 559.333M315 560L316 561L315 560M694 560L694 565L695 565L694 560M846.667 560.333L847.333 560.667L846.667 560.333M844.667 561.333L845.333 561.667L844.667 561.333M316 562L317 563L316 562M615 562L615 565L616 565L615 562M826.333 562.667L826.667 563.333L826.333 562.667M842.667 562.333L843.333 562.667L842.667 562.333M314.667 563.333L315.333 563.667L314.667 563.333M841 563L842 564L841 563M311 564L312 565L311 564M827 564L829 567L827 564M839 564L840 565L839 564M308 565L309 566L308 565M837.667 565.333L838.333 565.667L837.667 565.333M305 566L306 567L305 566M695 566L697 575L698 575L695 566M836 566L837 567L836 566M178 567L178 570L179 570L178 567M302 567L303 568L302 567M616.333 567.667L616.667 568.333L616.333 567.667M829 567L832 570L829 567M834 567L835 568L834 567M300 568L301 569L300 568M833 568L834 569L833 568M298 569L299 570L298 569M617.333 571.667L617.667 572.333L617.333 571.667M292 572L293 573L292 572M290 573L291 574L290 573M177 574L177 578L178 578L177 574M288 574L289 575L288 574M618.333 575.667L618.667 576.333L618.333 575.667M698.333 575.667L698.667 576.333L698.333 575.667M285 576L286 577L285 576M283 577L284 578L283 577M699.333 577.667L699.667 578.333L699.333 577.667M619.333 578.667L619.667 579.333L619.333 578.667M280 579L281 580L280 579M700.333 579.667L700.667 580.333L700.333 579.667M277 581L278 582L277 581z"/>
<path style="fill:#299be3; stroke:none;" d="M538 725C523.423 717.993 504.459 717.177 489 711.189C454.524 697.835 426.1 675.86 401.09 649C386.848 633.705 374.98 616.133 363.117 599C360.38 595.047 355.181 582.577 349.907 582.113C342.332 581.448 327.992 596.413 324.044 602.001C306.662 626.603 308.342 667.117 321.784 693C352.402 751.954 439.008 753.388 495 740.65C509.693 737.308 524.912 732.61 538 725z"/>
<path style="fill:#ae86a5; stroke:none;" d="M620.333 581.667L620.667 582.333L620.333 581.667M701 581L703 584L701 581M177 583L177 586L178 586L177 583M274 583L275 584L274 583M621.333 584.667L621.667 585.333L621.333 584.667M703 584L706 588L703 584M270 586L271 587L270 586M622.333 587.667L622.667 588.333L622.333 587.667M706 588L707 589L706 588M266 589L267 590L266 589M707 589L708 590L707 589M178 590L179 591L178 590M623.333 590.667L623.667 591.333L623.333 590.667M708 590L709 591L708 590M709 591L712 593L709 591M262 592L263 593L262 592M261 593L262 594L261 593M624.333 593.667L624.667 594.333L624.333 593.667M712 593L713 594L712 593M179 594L180 595L179 594M713 594L713 595L719 597L719 596L713 594M625 596L626 597L625 596M180 597L181 598L180 597M256 597L257 598L256 597M719.333 597.667L719.667 598.333L719.333 597.667M255 598L256 599L255 598M254 599L255 600L254 599M626 599L627 600L626 599M720 599L720 602L721 602L720 599M181 600L182 601L181 600M627.333 601.667L627.667 602.333L627.333 601.667M182 602L183 603L182 602M721 602L721 606L722 606L721 602M248 604L249 605L248 604M628.333 604.667L628.667 605.333L628.333 604.667M247 605L248 606L247 605M246 606L247 607L246 606M722 606L723 616L724 616L722 606M184 607L185 608L184 607M245 607L246 608L245 607M629.333 607.667L629.667 608.333L629.333 607.667M244 608L245 609L244 608M185 609L186 610L185 609M630.333 610.667L630.667 611.333L630.333 610.667M186 611L187 612L186 611M631.333 613.667L631.667 614.333L631.333 613.667M189 616L190 617L189 616M632 616L632 619L633 619L632 616M724 616L724 625L725 625L724 616M190 618L191 619L190 618M633 620L633 623L634 623L633 620M192 621L193 622L192 621M193 623L194 624L193 623M634 624L634 628L635 628L634 624M711 624L712 625L711 624M714 625L715 626L714 625M195 626L196 627L195 626M725 627L725 637L726 637L725 627M197 629L198 630L197 629M223 629L224 630L223 629M198 630L199 631L198 630M222 630L223 631L222 630M635 630L635 637L636 637L635 630M221 631L222 632L221 631M220 632L221 633L220 632M200 633L201 634L200 633M219 633L220 634L219 633M203 637L204 638L203 637M214 639L215 640L214 639M724 639L722 660L723 660L724 639M213 640L214 641L213 640M206 641L207 642L206 641M212 641L213 642L212 641M207 642L208 643L207 642M211 642L212 643L211 642M209 644L210 645L209 644M635 647L635 655L636 655L635 647M634 657L634 661L635 661L634 657M721 660L721 664L722 664L721 660M633 662L633 665L634 665L633 662M720 664L720 667L721 667L720 664M632.333 667.667L632.667 668.333L632.333 667.667M719 667L715 672L719 667M631 670L631 673L632 673L631 670M714 672L715 673L714 672M713 673L714 674L713 673M630.333 674.667L630.667 675.333L630.333 674.667M712 674L713 675L712 674M711 675L712 676L711 675M710 676L711 677L710 676M629.333 677.667L629.667 678.333L629.333 677.667M707 679L710 677L707 679M628 679L628 682L629 682L628 679M706 679L707 680L706 679M705 680L706 681L705 680M702 683L705 681L702 683M627 682L625 689L626 689L627 682M701 683L702 684L701 683M700 684L701 685L700 684M697 687L700 685L697 687M696 687L697 688L696 687M694.667 688.333L695.333 688.667L694.667 688.333M624.333 689.667L624.667 690.333L624.333 689.667M693 689L694 690L693 689M692 690L693 691L692 690M623.333 691.667L623.667 692.333L623.333 691.667M690.667 691.333L691.333 691.667L690.667 691.333M689 692L690 693L689 692M622.333 693.667L622.667 694.333L622.333 693.667M687.667 693.333L688.333 693.667L687.667 693.333M684 696L687 694L684 696M621 695L620 698L621 695M682.667 696.333L683.333 696.667L682.667 696.333M681 697L682 698L681 697M619.333 698.667L619.667 699.333L619.333 698.667M679.667 698.333L680.333 698.667L679.667 698.333M677.667 699.333L678.333 699.667L677.667 699.333M618 700L616 705L617 705L618 700M675.667 700.333L676.333 700.667L675.667 700.333M673.667 701.333L674.333 701.667L673.667 701.333M671.667 702.333L672.333 702.667L671.667 702.333M669.667 703.333L670.333 703.667L669.667 703.333M667.667 704.333L668.333 704.667L667.667 704.333M615 705L616 706L615 705M665.667 705.333L666.333 705.667L665.667 705.333M614.333 706.667L614.667 707.333L614.333 706.667M662 706L662 707L665 707L662 706M660.667 707.333L661.333 707.667L660.667 707.333M613 708L614 709L613 708M657.667 708.333L658.333 708.667L657.667 708.333M612 709L611 712L612 709M654 709L654 710L657 710L654 709M650 710L650 711L654 711L650 710M647 711L647 712L650 712L647 711M610 712L607 717L622 717L622 716L609 716L610 712M643 712L643 713L646 713L643 712M638 713L638 714L642 714L638 713M632 714L632 715L637 715L632 714M623 715L623 716L631 716L623 715M651 718L653 720L653 718L651 718M647.667 719.333L648.333 719.667L647.667 719.333z"/>
<path style="fill:#fca11e; stroke:none;" d="M652 719C641.278 720.578 630.799 723.974 620 725.573C600.613 728.442 586.786 727.676 570 739.438C561.809 745.178 548.035 755.04 551.657 766.999C555.605 780.037 576.451 779.054 587 777.41C614.454 773.131 642.223 744.794 652 719z"/>
<path style="fill:#ae86a5; stroke:none;" d="M644.667 720.333L645.333 720.667L644.667 720.333M640.667 721.333L641.333 721.667L640.667 721.333M635 722L635 723L638 723L635 722M650 722L651 723L650 722M630 723L630 724L633 724L630 723M624 724L624 725L627 725L624 724M617 725L617 726L621 726L617 725M648 725L649 726L648 725M607 726L607 727L613 727L607 726M590 727L590 728L599 728L590 727M646 728L647 729L646 728M586 729L587 730L586 729M584 730L585 731L584 730M644 731L645 732L644 731M581 732L582 733L581 732M579 733L580 734L579 733M642 734L643 735L642 734M576 735L577 736L576 735M641 735L642 736L641 735M574 736L575 737L574 736M571 738L572 739L571 738M639 738L640 739L639 738M638 739L639 740L638 739M568 740L569 741L568 740M567 741L568 742L567 741M636 742L637 743L636 742M564 743L565 744L564 743M635 743L636 744L635 743M563 744L564 745L563 744M632 747L633 748L632 747M631 748L632 749L631 748M554 753L555 754L554 753M626 754L627 755L626 754M625 755L626 756L625 755M624 756L625 757L624 756M552 757L553 758L552 757M623 757L624 758L623 757M622 758L623 759L622 758M551.333 759.667L551.667 760.333L551.333 759.667M621 759L622 760L621 759M620 760L621 761L620 760M619 761L620 762L619 761M618 762L619 763L618 762M617 763L618 764L617 763M613 766L614 767L613 766M551 767L552 768L551 767M612 767L613 768L612 767M552 769L553 770L552 769M609 769L610 770L609 769M606 771L607 772L606 771M557 774L558 775L557 774M600 774L601 775L600 774M559 775L560 776L559 775M597 775L598 776L597 775M562 776L563 777L562 776M592.667 776.333L593.333 776.667L592.667 776.333M565.667 777.333L566.333 777.667L565.667 777.333M586.667 777.333L587.333 777.667L586.667 777.333z"/>
</svg>
