<?xml version="1.0" standalone="yes"?>
<svg xmlns="http://www.w3.org/2000/svg" width="1024" height="1024">
<path style="fill:#474747; stroke:none;" d="M0 0L0 1024L1024 1024L1024 0L0 0z"/>
<path style="fill:#686765; stroke:none;" d="M817.667 181.333L818.333 181.667L817.667 181.333z"/>
<path style="fill:#d9a350; stroke:none;" d="M738 382C693.51 333.698 638.789 301.145 573 292.282C540.81 287.946 507.451 290 475 290C439.844 290 403.78 287.6 369 293.435C348.115 296.939 327.546 302.877 308 311.012C299.309 314.628 288.267 323.521 279 324.32C272.432 324.887 264.444 321.689 258 320.4C240.75 316.949 223.451 312.254 206 310C208.871 325.454 210.286 341.391 212.155 357C212.89 363.135 215.79 371.967 214.089 378C210.988 388.999 197.487 400.936 191.449 411C179.306 431.239 170.692 453.098 165.13 476C161.736 489.974 161.427 503.9 159.576 518C158.524 526.006 157.052 533.882 167 534L165 511C160.817 506.068 164.865 490.381 165.92 484C170.529 456.106 182.723 429.209 203.17 409.286C254.606 359.165 331.547 372.727 369.305 432C403.723 486.03 395.014 563.616 347 606.829C287.592 660.297 201.479 628.829 174 558L162 561C171.283 632.885 222.377 698.899 286 731.742C302.425 740.22 319.237 747.38 337 752.576C345.869 755.17 357.705 755.592 365.852 759.703C370.366 761.981 369 768.815 369 773C369 783.902 369.308 797.525 383 799.492C403.554 802.443 400 775.365 400 763L411 763C411 771.369 408.848 783.296 412.573 790.996C417.807 801.817 433.709 802.095 439.772 791.985C444.358 784.336 442 771.614 442 763L546 763C546 771.54 543.624 784.363 548.089 791.985C553.808 801.744 569.007 801.932 574.583 791.985C579.464 783.276 577 769.663 577 760L588 759C588 771.901 582.982 799.653 603 799.653C622.019 799.653 618 775.431 618 763C618 759.173 616.998 753.596 620.318 750.843C624.231 747.599 631.292 746.482 636 744.6C646.265 740.497 656.361 736.021 666 730.576C701.468 710.538 732.157 683.39 754.308 649C780.75 607.947 795.494 555.951 789.714 507C787.653 489.537 784.572 472.717 779 456C777.194 450.581 770.528 439.493 772.201 434C773.934 428.31 780.528 422.59 784.2 418C792.793 407.259 800.873 396.196 808.859 385C832.392 352.007 854.759 313.977 863.576 274C868.029 253.806 869.396 231.318 860.688 212C847.301 182.3 819.592 170.975 795.039 196.015C748.454 243.524 738 318.83 738 382z"/>
<path style="fill:#686765; stroke:none;" d="M830.667 181.333L831.333 181.667L830.667 181.333M814 182L815 183L814 182M833.667 182.333L834.333 182.667L833.667 182.333M812 183L813 184L812 183M836 183L837 184L836 183M810 184L811 185L810 184M838 184L839 185L838 184M808 185L809 186L808 185M839 185L840 186L839 185M806 186L807 187L806 186M841 186L842 187L841 186M805 187L806 188L805 187M842 187L843 188L842 187M843 188L844 189L843 188M802 189L803 190L802 189M801 190L802 191L801 190M796 194L797 195L796 194M849 194L850 195L849 194M795 195L796 196L795 195z"/>
<path style="fill:#d2c4b3; stroke:none;" d="M804 195L804 196L807 196L804 195z"/>
<path style="fill:#686765; stroke:none;" d="M850 195L851 196L850 195M794 196L795 197L794 196z"/>
<path style="fill:#d2c4b3; stroke:none;" d="M802 196L801 199L802 199L802 196z"/>
<path style="fill:#fcfcfc; stroke:none;" d="M803.434 197.047C798.6 200.142 804.033 207.338 808.396 203.968C812.184 201.041 807.627 194.362 803.434 197.047z"/>
<path style="fill:#d2c4b3; stroke:none;" d="M808 196L809 197L808 196z"/>
<path style="fill:#686765; stroke:none;" d="M851 196L852 197L851 196z"/>
<path style="fill:#d2c4b3; stroke:none;" d="M809 197L810 198L809 197M810 198L810 203L811 203L810 198z"/>
<path style="fill:#686765; stroke:none;" d="M853 199L854 200L853 199z"/>
<path style="fill:#d2c4b3; stroke:none;" d="M800 200L801 201L800 200z"/>
<path style="fill:#686765; stroke:none;" d="M854 200L855 201L854 200M790 201L791 202L790 201z"/>
<path style="fill:#d2c4b3; stroke:none;" d="M823 201L823 202L829 202L823 201z"/>
<path style="fill:#686765; stroke:none;" d="M789 202L790 203L789 202z"/>
<path style="fill:#d2c4b3; stroke:none;" d="M820.667 202.333L821.333 202.667L820.667 202.333z"/>
<path style="fill:#fcfcfc; stroke:none;" d="M822.001 202.533C804.952 206.691 811.247 235.359 829 231.467C847.492 227.413 841.289 197.83 822.001 202.533z"/>
<path style="fill:#d2c4b3; stroke:none;" d="M831 202L832 203L831 202z"/>
<path style="fill:#686765; stroke:none;" d="M855 202L856 203L855 202M788 203L789 204L788 203z"/>
<path style="fill:#d2c4b3; stroke:none;" d="M801 203L802 204L801 203M818 203L819 204L818 203M833 203L834 204L833 203z"/>
<path style="fill:#686765; stroke:none;" d="M856 203L857 204L856 203z"/>
<path style="fill:#d2c4b3; stroke:none;" d="M802 204L803 205L802 204M809 204L810 205L809 204M816 204L817 205L816 204M835 204L836 205L835 204M803 205L803 206L808 206L803 205M815 205L816 206L815 205M836 205L837 206L836 205z"/>
<path style="fill:#686765; stroke:none;" d="M857 205L858 206L857 205z"/>
<path style="fill:#d2c4b3; stroke:none;" d="M814.333 206.667L814.667 207.333L814.333 206.667M837 206L838 207L837 206z"/>
<path style="fill:#686765; stroke:none;" d="M785 207L786 208L785 207M858 207L859 208L858 207M784 208L785 209L784 208z"/>
<path style="fill:#d2c4b3; stroke:none;" d="M813 208L814 209L813 208M838 208L839 209L838 208M839.333 209.667L839.667 210.333L839.333 209.667z"/>
<path style="fill:#686765; stroke:none;" d="M859 209L860 210L859 209M783 210L784 211L783 210z"/>
<path style="fill:#d2c4b3; stroke:none;" d="M812.333 210.667L812.667 211.333L812.333 210.667z"/>
<path style="fill:#686765; stroke:none;" d="M782 211L783 212L782 211M860 211L861 212L860 211z"/>
<path style="fill:#d2c4b3; stroke:none;" d="M840 212L840 222L841 222L840 212M811 213L811 221L812 221L811 213z"/>
<path style="fill:#686765; stroke:none;" d="M861 213L862 214L861 213M780 214L781 215L780 214M862 216L863 217L862 216M778 217L779 218L778 217M777 219L778 220L777 219M863 219L864 220L863 219M776 220L777 221L776 220M775 222L776 223L775 222z"/>
<path style="fill:#d2c4b3; stroke:none;" d="M812.333 222.667L812.667 223.333L812.333 222.667z"/>
<path style="fill:#686765; stroke:none;" d="M864.333 222.667L864.667 223.333L864.333 222.667z"/>
<path style="fill:#d2c4b3; stroke:none;" d="M839 223L840 224L839 223z"/>
<path style="fill:#686765; stroke:none;" d="M774 224L775 225L774 224z"/>
<path style="fill:#d2c4b3; stroke:none;" d="M813 225L814 226L813 225M838 225L839 226L838 225M814 226L815 227L814 226M837 226L838 227L837 226z"/>
<path style="fill:#686765; stroke:none;" d="M865.333 226.667L865.667 227.333L865.333 226.667M772 227L773 228L772 227z"/>
<path style="fill:#d2c4b3; stroke:none;" d="M794 231L795 231L798 228L794 231z"/>
<path style="fill:#fcfcfc; stroke:none;" d="M798.091 227.971C792.886 229.203 794.779 237.542 799.903 236.248C804.892 234.989 803.206 226.76 798.091 227.971z"/>
<path style="fill:#d2c4b3; stroke:none;" d="M800.667 227.333L801.333 227.667L800.667 227.333M815 227L816 228L815 227M802 228L803 229L802 228M816 228L817 229L816 228z"/>
<path style="fill:#686765; stroke:none;" d="M771 229L772 230L771 229z"/>
<path style="fill:#d2c4b3; stroke:none;" d="M803 229L803 232L804 232L803 229M817 229L818 230L817 229M834 229L835 230L834 229M851 229L851 230L854 230L851 229M818.667 230.333L819.333 230.667L818.667 230.333M832.667 230.333L833.333 230.667L832.667 230.333M849 230L848 232L849 230z"/>
<path style="fill:#fcfcfc; stroke:none;" d="M850.318 231.047C845.866 233.809 850.201 240.733 854.682 237.953C859.134 235.191 854.799 228.267 850.318 231.047z"/>
<path style="fill:#d2c4b3; stroke:none;" d="M855 230L856 231L855 230z"/>
<path style="fill:#686765; stroke:none;" d="M770 231L771 232L770 231z"/>
<path style="fill:#d2c4b3; stroke:none;" d="M821.667 231.333L822.333 231.667L821.667 231.333M829 231L829 232L832 232L829 231M856 231L857 232L856 231z"/>
<path style="fill:#686765; stroke:none;" d="M866 232L866 235L867 235L866 232M769 233L770 234L769 233z"/>
<path style="fill:#d2c4b3; stroke:none;" d="M794.333 233.667L794.667 234.333L794.333 233.667M803.333 233.667L803.667 234.333L803.333 233.667M847 233L847 237L848 237L847 233M857 233L857 236L858 236L857 233z"/>
<path style="fill:#686765; stroke:none;" d="M768 235L769 236L768 235z"/>
<path style="fill:#d2c4b3; stroke:none;" d="M795 235L796 236L795 235M802 235L803 236L802 235M796 236L797 237L796 236M801 236L802 237L801 236z"/>
<path style="fill:#686765; stroke:none;" d="M767 237L768 238L767 237z"/>
<path style="fill:#d2c4b3; stroke:none;" d="M848 237L849 238L848 237M856 237L857 238L856 237M826 245L827 245L834 239C829.627 237.852 827.324 241.199 826 245z"/>
<path style="fill:#fcfcfc; stroke:none;" d="M834.004 238.627C822.08 240.569 824.741 259.617 836.999 257.756C848.893 255.95 846.124 236.652 834.004 238.627z"/>
<path style="fill:#d2c4b3; stroke:none;" d="M837 238L837 239L840 239L837 238M849 238L850 239L849 238M855 238L856 239L855 238z"/>
<path style="fill:#686765; stroke:none;" d="M766 239L767 240L766 239z"/>
<path style="fill:#d2c4b3; stroke:none;" d="M840 239L841 240L840 239M850 239L850 240L855 240L850 239M842 240L843 241L842 240z"/>
<path style="fill:#686765; stroke:none;" d="M765 241L766 242L765 241z"/>
<path style="fill:#d2c4b3; stroke:none;" d="M843 242L844 243L843 242z"/>
<path style="fill:#686765; stroke:none;" d="M764 243L765 244L764 243z"/>
<path style="fill:#d2c4b3; stroke:none;" d="M811 247L812 247L820 245C816.395 242.286 813.152 243.098 811 247M844.333 243.667L844.667 244.333L844.333 243.667M772.667 244.333L773.333 244.667L772.667 244.333z"/>
<path style="fill:#fcfcfc; stroke:none;" d="M774.004 244.613C762.75 247.308 765.953 266.063 777.985 263.59C789.457 261.233 785.695 241.812 774.004 244.613z"/>
<path style="fill:#d2c4b3; stroke:none;" d="M778.667 244.333L779.333 244.667L778.667 244.333z"/>
<path style="fill:#fcfcfc; stroke:none;" d="M813.437 245.032C809.265 247.868 813.303 254.54 817.686 251.928C822.341 249.154 818.232 241.773 813.437 245.032z"/>
<path style="fill:#686765; stroke:none;" d="M763 245L764 246L763 245z"/>
<path style="fill:#d2c4b3; stroke:none;" d="M770 245L771 246L770 245M781 245L782 246L781 245M769 246L770 247L769 246M782 246L783 247L782 246M820 246L820 251L821 251L820 246M825 246L825 251L826 251L825 246z"/>
<path style="fill:#686765; stroke:none;" d="M762 247L763 248L762 247z"/>
<path style="fill:#d2c4b3; stroke:none;" d="M768 247L769 248L768 247M783 247L784 248L783 247M845 247L845 250L846 250L845 247M767.333 248.667L767.667 249.333L767.333 248.667M784.333 248.667L784.667 249.333L784.333 248.667z"/>
<path style="fill:#686765; stroke:none;" d="M761 250L762 251L761 250z"/>
<path style="fill:#d2c4b3; stroke:none;" d="M766 250L766 258L767 258L766 250M785 250L785 258L786 258L785 250M811 250L812 251L811 250M819 251L820 252L819 251M844.333 251.667L844.667 252.333L844.333 251.667z"/>
<path style="fill:#686765; stroke:none;" d="M760 252L761 253L760 252z"/>
<path style="fill:#d2c4b3; stroke:none;" d="M813 252L814 253L813 252M818 252L819 253L818 252M826.333 252.667L826.667 253.333L826.333 252.667M815.667 253.333L816.333 253.667L815.667 253.333z"/>
<path style="fill:#686765; stroke:none;" d="M759.333 254.667L759.667 255.333L759.333 254.667z"/>
<path style="fill:#d2c4b3; stroke:none;" d="M827 254L828 255L827 254M843 254L844 255L843 254M828 255L829 256L828 255M842 255L843 256L842 255z"/>
<path style="fill:#686765; stroke:none;" d="M866 255L866 259L867 259L866 255z"/>
<path style="fill:#d2c4b3; stroke:none;" d="M829 256L830 257L829 256M841 256L842 257L841 256z"/>
<path style="fill:#686765; stroke:none;" d="M758 257L759 258L758 257z"/>
<path style="fill:#d2c4b3; stroke:none;" d="M830.667 257.333L831.333 257.667L830.667 257.333M839.667 257.333L840.333 257.667L839.667 257.333M833 258L833 259L838 259L833 258M767 259L768 260L767 259M784 259L785 260L784 259z"/>
<path style="fill:#686765; stroke:none;" d="M757 260L758 261L757 260z"/>
<path style="fill:#d2c4b3; stroke:none;" d="M768 260L769 261L768 260M783.333 260.667L783.667 261.333L783.333 260.667z"/>
<path style="fill:#686765; stroke:none;" d="M756.333 262.667L756.667 263.333L756.333 262.667z"/>
<path style="fill:#d2c4b3; stroke:none;" d="M770 262L771 263L770 262M781 262L782 263L781 262M771.667 263.333L772.333 263.667L771.667 263.333M779.667 263.333L780.333 263.667L779.667 263.333M841 271C833.342 273.999 829.891 266.354 838 264C827.974 260.85 831.877 280.27 841 271z"/>
<path style="fill:#686765; stroke:none;" d="M865 263L865 266L866 266L865 263z"/>
<path style="fill:#d2c4b3; stroke:none;" d="M774 264L774 265L778 265L774 264z"/>
<path style="fill:#fcfcfc; stroke:none;" d="M834.315 265.047C829.879 267.826 834.211 274.751 838.679 271.953C842.984 269.257 838.71 262.294 834.315 265.047z"/>
<path style="fill:#d2c4b3; stroke:none;" d="M839 264L840 265L839 264z"/>
<path style="fill:#686765; stroke:none;" d="M755 265L756 266L755 265z"/>
<path style="fill:#d2c4b3; stroke:none;" d="M840.333 265.667L840.667 266.333L840.333 265.667z"/>
<path style="fill:#686765; stroke:none;" d="M754.333 268.667L754.667 269.333L754.333 268.667z"/>
<path style="fill:#d2c4b3; stroke:none;" d="M841 268L842 269L841 268z"/>
<path style="fill:#686765; stroke:none;" d="M864.333 269.667L864.667 270.333L864.333 269.667z"/>
<path style="fill:#d2c4b3; stroke:none;" d="M793 270L793 271L802 271L793 270z"/>
<path style="fill:#686765; stroke:none;" d="M753.333 271.667L753.667 272.333L753.333 271.667z"/>
<path style="fill:#d2c4b3; stroke:none;" d="M789 273L792 272L789 273z"/>
<path style="fill:#fcfcfc; stroke:none;" d="M792.001 271.653C774.336 277.22 784.651 306.304 802.999 299.258C820.269 292.625 809.714 266.07 792.001 271.653z"/>
<path style="fill:#d2c4b3; stroke:none;" d="M803 271L804 272L803 271M805 272L806 273L805 272M787 273L788 274L787 273M806 273L807 274L806 273M786 274L787 275L786 274M807 274L808 275L807 274z"/>
<path style="fill:#686765; stroke:none;" d="M863.333 274.667L863.667 275.333L863.333 274.667M752 275L753 276L752 275z"/>
<path style="fill:#d2c4b3; stroke:none;" d="M785 275L786 276L785 275M808 275L809 276L808 275M809 276L810 277L809 276z"/>
<path style="fill:#686765; stroke:none;" d="M751 277L752 278L751 277z"/>
<path style="fill:#d2c4b3; stroke:none;" d="M767 280L771 278L767 280z"/>
<path style="fill:#fcfcfc; stroke:none;" d="M771.039 278.086C765.429 279.23 767.421 288.009 772.867 286.288C777.438 284.843 776.109 277.053 771.039 278.086z"/>
<path style="fill:#d2c4b3; stroke:none;" d="M772 277L772 278L775 278L772 277M784 277L785 278L784 277M775 278L776 279L775 278M810 278L811 279L810 278z"/>
<path style="fill:#686765; stroke:none;" d="M862.333 278.667L862.667 279.333L862.333 278.667z"/>
<path style="fill:#d2c4b3; stroke:none;" d="M783.333 279.667L783.667 280.333L783.333 279.667z"/>
<path style="fill:#686765; stroke:none;" d="M750 280L751 281L750 280z"/>
<path style="fill:#d2c4b3; stroke:none;" d="M776 280L776 285L777 285L776 280M811 280L811 283L812 283L811 280M782 282L782 289L783 289L782 282M825 282L825 283L832 283L825 282z"/>
<path style="fill:#686765; stroke:none;" d="M861 282L862 283L861 282M749 283L750 284L749 283z"/>
<path style="fill:#d2c4b3; stroke:none;" d="M823 283L819 289L820 289L823 283z"/>
<path style="fill:#fcfcfc; stroke:none;" d="M824.044 284.028C813.452 289.673 822.202 306.538 832.956 300.821C843.65 295.136 835.147 278.11 824.044 284.028z"/>
<path style="fill:#d2c4b3; stroke:none;" d="M833 283L834 284L833 283M767 284L768 285L767 284M835 284L836 285L835 284M775 285L776 286L775 285M836.333 285.667L836.667 286.333L836.333 285.667z"/>
<path style="fill:#686765; stroke:none;" d="M860.333 285.667L860.667 286.333L860.333 285.667M748 286L749 287L748 286z"/>
<path style="fill:#d2c4b3; stroke:none;" d="M769 286L770 287L769 286M774 286L775 287L774 286M771.667 287.333L772.333 287.667L771.667 287.333M837.333 287.667L837.667 288.333L837.333 287.667M811 288L811 291L812 291L811 288z"/>
<path style="fill:#686765; stroke:none;" d="M859.333 288.667L859.667 289.333L859.333 288.667M747.333 289.667L747.667 290.333L747.333 289.667M390 290L390 291L396 291L390 290M548 290L548 291L560 291L548 290z"/>
<path style="fill:#d2c4b3; stroke:none;" d="M783.333 290.667L783.667 291.333L783.333 290.667M838 290L838 295L839 295L838 290z"/>
<path style="fill:#686765; stroke:none;" d="M381 291L381 292L384 292L381 291M566 291L566 292L569 292L566 291z"/>
<path style="fill:#d2c4b3; stroke:none;" d="M818.333 291.667L818.667 292.333L818.333 291.667z"/>
<path style="fill:#686765; stroke:none;" d="M858.333 291.667L858.667 292.333L858.333 291.667M373 292L373 293L376 293L373 292M574 292L574 293L577 293L574 292z"/>
<path style="fill:#d2c4b3; stroke:none;" d="M810 292L811 293L810 292z"/>
<path style="fill:#686765; stroke:none;" d="M367.667 293.333L368.333 293.667L367.667 293.333M580 293L580 294L583 294L580 293M746 293L747 294L746 293z"/>
<path style="fill:#d2c4b3; stroke:none;" d="M753 293L753 294L760 294L753 293M784 293L785 294L784 293z"/>
<path style="fill:#686765; stroke:none;" d="M361 294L361 295L364 295L361 294M586.667 294.333L587.333 294.667L586.667 294.333z"/>
<path style="fill:#d2c4b3; stroke:none;" d="M751 294L749 295L749 296L751 294z"/>
<path style="fill:#fcfcfc; stroke:none;" d="M752.105 294.858C741.13 299.789 749.938 317.678 760.956 311.821C771.685 306.118 763.285 289.835 752.105 294.858z"/>
<path style="fill:#d2c4b3; stroke:none;" d="M761 294L762 295L761 294M809 294L810 295L809 294z"/>
<path style="fill:#686765; stroke:none;" d="M857.333 294.667L857.667 295.333L857.333 294.667M357.667 295.333L358.333 295.667L357.667 295.333M591.667 295.333L592.333 295.667L591.667 295.333z"/>
<path style="fill:#d2c4b3; stroke:none;" d="M762 295L763 296L762 295M785 295L786 296L785 295M808 295L809 296L808 295M819.333 295.667L819.667 296.333L819.333 295.667z"/>
<path style="fill:#686765; stroke:none;" d="M352.667 296.333L353.333 296.667L352.667 296.333M595 296L595 297L598 297L595 296M745.333 296.667L745.667 297.333L745.333 296.667z"/>
<path style="fill:#d2c4b3; stroke:none;" d="M786 296L787 297L786 296M807 296L808 297L807 296M837.333 296.667L837.667 297.333L837.333 296.667z"/>
<path style="fill:#686765; stroke:none;" d="M348.667 297.333L349.333 297.667L348.667 297.333M599 297L599 298L602 298L599 297z"/>
<path style="fill:#d2c4b3; stroke:none;" d="M748 297L749 298L748 297M764 297L765 298L764 297M787 297L788 298L787 297M806 297L807 298L806 297z"/>
<path style="fill:#686765; stroke:none;" d="M856 297L857 298L856 297M344.667 298.333L345.333 298.667L344.667 298.333M604.667 298.333L605.333 298.667L604.667 298.333z"/>
<path style="fill:#d2c4b3; stroke:none;" d="M747.333 298.667L747.667 299.333L747.333 298.667M765.333 298.667L765.667 299.333L765.333 298.667M788.667 298.333L789.333 298.667L788.667 298.333M805 298L806 299L805 298M820 298L821 299L820 298M836 298L837 299L836 298z"/>
<path style="fill:#686765; stroke:none;" d="M340.667 299.333L341.333 299.667L340.667 299.333M607 299L607 300L610 300L607 299z"/>
<path style="fill:#d2c4b3; stroke:none;" d="M790.667 299.333L791.333 299.667L790.667 299.333M803 299L804 300L803 299M821 299L822 300L821 299M835 299L836 300L835 299z"/>
<path style="fill:#686765; stroke:none;" d="M337 300L338 301L337 300M611.667 300.333L612.333 300.667L611.667 300.333M744.333 300.667L744.667 301.333L744.333 300.667z"/>
<path style="fill:#d2c4b3; stroke:none;" d="M793 300L793 301L802 301L793 300M822 300L823 301L822 300M834 300L835 301L834 300z"/>
<path style="fill:#686765; stroke:none;" d="M855 300L856 301L855 300M333.667 301.333L334.333 301.667L333.667 301.333M614.667 301.333L615.333 301.667L614.667 301.333z"/>
<path style="fill:#d2c4b3; stroke:none;" d="M746 301L746 306L747 306L746 301M766 301L766 305L767 305L766 301M823.667 301.333L824.333 301.667L823.667 301.333M832.667 301.333L833.333 301.667L832.667 301.333z"/>
<path style="fill:#686765; stroke:none;" d="M330.667 302.333L331.333 302.667L330.667 302.333M618.667 302.333L619.333 302.667L618.667 302.333z"/>
<path style="fill:#d2c4b3; stroke:none;" d="M826 302L826 303L831 303L826 302z"/>
<path style="fill:#686765; stroke:none;" d="M854.333 302.667L854.667 303.333L854.333 302.667M327.667 303.333L328.333 303.667L327.667 303.333M621.667 303.333L622.333 303.667L621.667 303.333M324.667 304.333L325.333 304.667L324.667 304.333M624.667 304.333L625.333 304.667L624.667 304.333M321.667 305.333L322.333 305.667L321.667 305.333M627 305L628 306L627 305M743.333 305.667L743.667 306.333L743.333 305.667M853 305L854 306L853 305M319 306L320 307L319 306M629.667 306.333L630.333 306.667L629.667 306.333M316 307L317 308L316 307M632.667 307.333L633.333 307.667L632.667 307.333z"/>
<path style="fill:#d2c4b3; stroke:none;" d="M747.333 307.667L747.667 308.333L747.333 307.667M765 307L766 308L765 307z"/>
<path style="fill:#686765; stroke:none;" d="M852.333 307.667L852.667 308.333L852.333 307.667M314 308L315 309L314 308M635 308L636 309L635 308M206.667 309.333L207.333 309.667L206.667 309.333M311 309L312 310L311 309M637.667 309.333L638.333 309.667L637.667 309.333z"/>
<path style="fill:#d2c4b3; stroke:none;" d="M748 309L749 310L748 309M764 309L765 310L764 309z"/>
<path style="fill:#686765; stroke:none;" d="M209 310L209 311L212 311L209 310M309 310L310 311L309 310M640 310L641 311L640 310M742.333 310.667L742.667 311.333L742.333 310.667z"/>
<path style="fill:#d2c4b3; stroke:none;" d="M749 310L750 311L749 310M763 310L764 311L763 310M829 310L829 311L835 314C835.084 310.523 832.001 310.227 829 310z"/>
<path style="fill:#686765; stroke:none;" d="M851 310L852 311L851 310M214 311L214 312L217 312L214 311M306 311L307 312L306 311M642.667 311.333L643.333 311.667L642.667 311.333z"/>
<path style="fill:#d2c4b3; stroke:none;" d="M750 311L751 312L750 311M762 311L763 312L762 311M827 311L828 312L827 311z"/>
<path style="fill:#fcfcfc; stroke:none;" d="M828.603 312.032C824.799 314.987 829.338 321.534 833.563 318.802C838.223 315.789 832.839 308.743 828.603 312.032z"/>
<path style="fill:#686765; stroke:none;" d="M206 312L206 317L207 317L206 312M219 312L219 313L222 313L219 312M304 312L305 313L304 312M645 312L646 313L645 312z"/>
<path style="fill:#d2c4b3; stroke:none;" d="M751.667 312.333L752.333 312.667L751.667 312.333M760.667 312.333L761.333 312.667L760.667 312.333z"/>
<path style="fill:#686765; stroke:none;" d="M850 312L851 313L850 312M224 313L224 314L227 314L224 313M302 313L303 314L302 313M647 313L648 314L647 313z"/>
<path style="fill:#d2c4b3; stroke:none;" d="M754 313L754 314L759 314L754 313M767 313L767 314L773 314L767 313M826 313L826 318L827 318L826 313z"/>
<path style="fill:#686765; stroke:none;" d="M229 314L229 315L232 315L229 314M300 314L301 315L300 314M649 314L650 315L649 314z"/>
<path style="fill:#d2c4b3; stroke:none;" d="M764.667 314.333L765.333 314.667L764.667 314.333z"/>
<path style="fill:#fcfcfc; stroke:none;" d="M766 314.533C748.786 318.718 755.3 347.347 773 343.467C791.493 339.413 785.291 309.844 766 314.533z"/>
<path style="fill:#d2c4b3; stroke:none;" d="M775 314L776 315L775 314z"/>
<path style="fill:#686765; stroke:none;" d="M849 314L850 315L849 314M234 315L234 316L237 316L234 315M298 315L299 316L298 315M651 315L652 316L651 315z"/>
<path style="fill:#d2c4b3; stroke:none;" d="M762 315L763 316L762 315M777 315L778 316L777 315z"/>
<path style="fill:#686765; stroke:none;" d="M239.667 316.333L240.333 316.667L239.667 316.333M295 316L296 317L295 316M653 316L654 317L653 316M741.333 316.667L741.667 317.333L741.333 316.667z"/>
<path style="fill:#d2c4b3; stroke:none;" d="M760 316L761 317L760 316M779 316L780 317L779 316z"/>
<path style="fill:#686765; stroke:none;" d="M243 317L243 318L246 318L243 317M293 317L294 318L293 317z"/>
<path style="fill:#d2c4b3; stroke:none;" d="M759 317L760 318L759 317M780 317L781 318L780 317M835 317L836 318L835 317z"/>
<path style="fill:#686765; stroke:none;" d="M848 317L849 318L848 317M248 318L248 319L251 319L248 318M291 318L292 319L291 318z"/>
<path style="fill:#d2c4b3; stroke:none;" d="M758 318L759 319L758 318M781 318L782 319L781 318M827 318L828 319L827 318z"/>
<path style="fill:#686765; stroke:none;" d="M253 319L253 320L256 320L253 319M659 319L660 320L659 319z"/>
<path style="fill:#d2c4b3; stroke:none;" d="M828 319L829 320L828 319M833.667 319.333L834.333 319.667L833.667 319.333z"/>
<path style="fill:#686765; stroke:none;" d="M847 319L848 320L847 319M207 320L207 325L208 325L207 320M258 320L258 321L261 321L258 320M288 320L289 321L288 320M661 320L662 321L661 320z"/>
<path style="fill:#d2c4b3; stroke:none;" d="M757 320L758 321L757 320M782 320L783 321L782 320M830 320L830 321L833 321L830 320z"/>
<path style="fill:#686765; stroke:none;" d="M263 321L263 322L266 322L263 321M286 321L287 322L286 321M663 321L664 322L663 321z"/>
<path style="fill:#d2c4b3; stroke:none;" d="M783.333 321.667L783.667 322.333L783.333 321.667z"/>
<path style="fill:#686765; stroke:none;" d="M846 321L847 322L846 321M268 322L268 323L271 323L268 322M284 322L285 323L284 322M665 322L666 323L665 322M740 322L740 326L741 326L740 322z"/>
<path style="fill:#d2c4b3; stroke:none;" d="M756 322L757 323L756 322z"/>
<path style="fill:#686765; stroke:none;" d="M272 323L272 324L275 324L272 323M282 323L283 324L282 323M667 323L668 324L667 323M845 323L846 324L845 323M277 324L277 325L281 325L277 324M669 324L670 325L669 324z"/>
<path style="fill:#d2c4b3; stroke:none;" d="M784 324L784 334L785 334L784 324M804 332L805 332C805.777 327.028 808.053 325.453 813 326C807.696 322.465 804.405 326.641 804 332z"/>
<path style="fill:#686765; stroke:none;" d="M670 325L671 326L670 325z"/>
<path style="fill:#d2c4b3; stroke:none;" d="M755 325L755 333L756 333L755 325z"/>
<path style="fill:#fcfcfc; stroke:none;" d="M807.314 326.072C802.659 328.846 806.768 336.227 811.563 332.968C815.735 330.132 811.697 323.46 807.314 326.072z"/>
<path style="fill:#686765; stroke:none;" d="M844 325L845 326L844 325M672 326L673 327L672 326M674 327L675 328L674 327z"/>
<path style="fill:#d2c4b3; stroke:none;" d="M813 327L814 328L813 327z"/>
<path style="fill:#686765; stroke:none;" d="M843 327L844 328L843 327M208 328L208 332L209 332L208 328M675 328L676 329L675 328M677 329L678 330L677 329M842 329L843 330L842 329z"/>
<path style="fill:#d2c4b3; stroke:none;" d="M793 330L793 331L798 331L793 330z"/>
<path style="fill:#686765; stroke:none;" d="M680 331L681 332L680 331z"/>
<path style="fill:#d2c4b3; stroke:none;" d="M787 335L792 332L787 335z"/>
<path style="fill:#fcfcfc; stroke:none;" d="M792.018 331.743C780.342 336.318 788.013 354.95 799.895 349.333C810.271 344.427 803 327.44 792.018 331.743z"/>
<path style="fill:#d2c4b3; stroke:none;" d="M799.667 331.333L800.333 331.667L799.667 331.333M813.333 331.667L813.667 332.333L813.333 331.667z"/>
<path style="fill:#686765; stroke:none;" d="M841 331L842 332L841 331M682 332L683 333L682 332M739 332L739 336L740 336L739 332z"/>
<path style="fill:#d2c4b3; stroke:none;" d="M801 332L802 333L801 332z"/>
<path style="fill:#686765; stroke:none;" d="M683 333L684 334L683 333z"/>
<path style="fill:#d2c4b3; stroke:none;" d="M802 333L803 334L802 333M805 333L806 334L805 333M812 333L813 334L812 333z"/>
<path style="fill:#686765; stroke:none;" d="M840 333L841 334L840 333M685 334L686 335L685 334z"/>
<path style="fill:#d2c4b3; stroke:none;" d="M756.333 334.667L756.667 335.333L756.333 334.667M803 334L804 335L803 334M807 334L807 335L812 335L807 334z"/>
<path style="fill:#686765; stroke:none;" d="M686 335L687 336L686 335z"/>
<path style="fill:#d2c4b3; stroke:none;" d="M783 335L784 336L783 335z"/>
<path style="fill:#686765; stroke:none;" d="M839 335L840 336L839 335M209 336L209 340L210 340L209 336z"/>
<path style="fill:#d2c4b3; stroke:none;" d="M786.333 336.667L786.667 337.333L786.333 336.667M804 336L805 337L804 336z"/>
<path style="fill:#686765; stroke:none;" d="M689 337L690 338L689 337z"/>
<path style="fill:#d2c4b3; stroke:none;" d="M757 337L758 338L757 337M782 337L783 338L782 337z"/>
<path style="fill:#686765; stroke:none;" d="M838 337L839 338L838 337z"/>
<path style="fill:#d2c4b3; stroke:none;" d="M758 338L759 339L758 338M781 338L782 339L781 338z"/>
<path style="fill:#686765; stroke:none;" d="M692 339L693 340L692 339z"/>
<path style="fill:#d2c4b3; stroke:none;" d="M759 339L760 340L759 339M785 339L785 343L786 343L785 339M805 339L805 343L806 343L805 339z"/>
<path style="fill:#686765; stroke:none;" d="M693 340L694 341L693 340z"/>
<path style="fill:#d2c4b3; stroke:none;" d="M760 340L761 341L760 340z"/>
<path style="fill:#686765; stroke:none;" d="M836 340L837 341L836 340z"/>
<path style="fill:#d2c4b3; stroke:none;" d="M761 341L762 342L761 341M778 341L779 342L778 341M813 341L813 342L818 342L813 341z"/>
<path style="fill:#686765; stroke:none;" d="M696 342L697 343L696 342z"/>
<path style="fill:#d2c4b3; stroke:none;" d="M762.667 342.333L763.333 342.667L762.667 342.333M776.667 342.333L777.333 342.667L776.667 342.333M811 342L812 343L811 342z"/>
<path style="fill:#fcfcfc; stroke:none;" d="M812.044 342.743C800.728 347.284 808.556 365.889 819.956 360.552C830.456 355.636 823.383 338.193 812.044 342.743z"/>
<path style="fill:#d2c4b3; stroke:none;" d="M819.667 342.333L820.333 342.667L819.667 342.333z"/>
<path style="fill:#686765; stroke:none;" d="M835 342L836 343L835 342M210 343L210 348L211 348L210 343M697 343L698 344L697 343z"/>
<path style="fill:#d2c4b3; stroke:none;" d="M764 343L764 344L767 344L764 343M773 343L773 344L776 344L773 343M809 343L810 344L809 343M821 343L822 344L821 343z"/>
<path style="fill:#686765; stroke:none;" d="M698 344L699 345L698 344z"/>
<path style="fill:#d2c4b3; stroke:none;" d="M786.333 344.667L786.667 345.333L786.333 344.667M804.333 344.667L804.667 345.333L804.333 344.667M808 344L809 345L808 344z"/>
<path style="fill:#686765; stroke:none;" d="M834 344L835 345L834 344M700 345L701 346L700 345M738 345L738 356L739 356L738 345z"/>
<path style="fill:#d2c4b3; stroke:none;" d="M823 345L824 346L823 345z"/>
<path style="fill:#686765; stroke:none;" d="M701 346L702 347L701 346z"/>
<path style="fill:#d2c4b3; stroke:none;" d="M787 346L788 347L787 346M803 346L804 347L803 346M807 346L808 347L807 346M824 346L825 347L824 346z"/>
<path style="fill:#686765; stroke:none;" d="M833 346L834 347L833 346M702 347L703 348L702 347M832 347L833 348L832 347M703 348L704 349L703 348z"/>
<path style="fill:#d2c4b3; stroke:none;" d="M788 348L789 349L788 348M802 348L803 349L802 348M806.333 348.667L806.667 349.333L806.333 348.667M825 348L825 355L826 355L825 348z"/>
<path style="fill:#686765; stroke:none;" d="M705 349L706 350L705 349z"/>
<path style="fill:#d2c4b3; stroke:none;" d="M790 349L791 350L790 349M800 349L801 350L800 349z"/>
<path style="fill:#686765; stroke:none;" d="M831 349L832 350L831 349M706 350L707 351L706 350z"/>
<path style="fill:#d2c4b3; stroke:none;" d="M792 350L792 351L795 351L792 350M796 350L796 351L799 351L796 350z"/>
<path style="fill:#686765; stroke:none;" d="M211 351L211 356L212 356L211 351M707 351L708 352L707 351M830 351L831 352L830 351M708 352L709 353L708 352M709 353L710 354L709 353z"/>
<path style="fill:#d2c4b3; stroke:none;" d="M806 353L806 356L807 356L806 353z"/>
<path style="fill:#686765; stroke:none;" d="M828 354L829 355L828 354M712 355L713 356L712 355M713 356L714 357L713 356z"/>
<path style="fill:#d2c4b3; stroke:none;" d="M748 358L751 357L748 358z"/>
<path style="fill:#fcfcfc; stroke:none;" d="M751.143 356.89C745.991 358.304 748.51 366.935 753.776 365.149C758.684 363.485 756.061 355.541 751.143 356.89z"/>
<path style="fill:#d2c4b3; stroke:none;" d="M754 356L755 357L754 356M824.333 356.667L824.667 357.333L824.333 356.667z"/>
<path style="fill:#686765; stroke:none;" d="M827 356L828 357L827 356M714 357L715 358L714 357z"/>
<path style="fill:#d2c4b3; stroke:none;" d="M755 357L756 358L755 357M807 357L808 358L807 357z"/>
<path style="fill:#686765; stroke:none;" d="M715 358L716 359L715 358z"/>
<path style="fill:#d2c4b3; stroke:none;" d="M756 358L757 359L756 358M795 358L795 359L798 359L795 358M808 358L809 359L808 358M823 358L824 359L823 358z"/>
<path style="fill:#686765; stroke:none;" d="M212 359L212 364L213 364L212 359M716 359L717 360L716 359z"/>
<path style="fill:#d2c4b3; stroke:none;" d="M747 359L747 363L748 363L747 359M793 359L792 361L793 359z"/>
<path style="fill:#fcfcfc; stroke:none;" d="M794.318 360.047C789.866 362.809 794.201 369.733 798.682 366.953C803.134 364.191 798.799 357.267 794.318 360.047z"/>
<path style="fill:#d2c4b3; stroke:none;" d="M799 359L800 360L799 359M809 359L810 360L809 359M822 359L823 360L822 359z"/>
<path style="fill:#686765; stroke:none;" d="M825 359L826 360L825 359M717 360L718 361L717 360z"/>
<path style="fill:#d2c4b3; stroke:none;" d="M800 360L801 361L800 360M810 360L811 361L810 360M821 360L822 361L821 360z"/>
<path style="fill:#686765; stroke:none;" d="M718 361L719 362L718 361z"/>
<path style="fill:#d2c4b3; stroke:none;" d="M812 361L812 362L815 362L812 361M817 361L817 362L820 362L817 361z"/>
<path style="fill:#686765; stroke:none;" d="M824 361L825 362L824 361M719 362L720 363L719 362z"/>
<path style="fill:#d2c4b3; stroke:none;" d="M791 362L791 366L792 366L791 362M801 362L801 365L802 365L801 362z"/>
<path style="fill:#686765; stroke:none;" d="M823 362L824 363L823 362M720 363L721 364L720 363z"/>
<path style="fill:#d2c4b3; stroke:none;" d="M756 363L757 364L756 363z"/>
<path style="fill:#686765; stroke:none;" d="M721 364L722 365L721 364z"/>
<path style="fill:#d2c4b3; stroke:none;" d="M748 364L749 365L748 364z"/>
<path style="fill:#686765; stroke:none;" d="M822 364L823 365L822 364M722 365L723 366L722 365z"/>
<path style="fill:#d2c4b3; stroke:none;" d="M749.667 365.333L750.333 365.667L749.667 365.333M754 365L755 366L754 365z"/>
<path style="fill:#686765; stroke:none;" d="M723 366L724 367L723 366z"/>
<path style="fill:#d2c4b3; stroke:none;" d="M792 366L793 367L792 366M800 366L801 367L800 366z"/>
<path style="fill:#686765; stroke:none;" d="M213 367L213 372L214 372L213 367M724 367L725 368L724 367z"/>
<path style="fill:#d2c4b3; stroke:none;" d="M793 367L794 368L793 367M799 367L800 368L799 367z"/>
<path style="fill:#686765; stroke:none;" d="M820 367L821 368L820 367M725 368L726 369L725 368z"/>
<path style="fill:#d2c4b3; stroke:none;" d="M794 368L794 369L799 369L794 368z"/>
<path style="fill:#686765; stroke:none;" d="M726 369L727 370L726 369M727 370L728 371L727 370M818 370L819 371L818 370M728 371L729 372L728 371z"/>
<path style="fill:#d2c4b3; stroke:none;" d="M771 371L771 372L780 372L771 371z"/>
<path style="fill:#686765; stroke:none;" d="M729 372L730 373L729 372z"/>
<path style="fill:#d2c4b3; stroke:none;" d="M763 377L770 373L763 377z"/>
<path style="fill:#fcfcfc; stroke:none;" d="M770.001 372.653C752.164 378.274 762.638 407.309 780.999 400.258C798.01 393.725 787.645 367.092 770.001 372.653z"/>
<path style="fill:#d2c4b3; stroke:none;" d="M781 372L782 373L781 372z"/>
<path style="fill:#686765; stroke:none;" d="M730 373L731 374L730 373z"/>
<path style="fill:#d2c4b3; stroke:none;" d="M783 373L784 374L783 373z"/>
<path style="fill:#686765; stroke:none;" d="M816 373L817 374L816 373M731 374L732 375L731 374z"/>
<path style="fill:#d2c4b3; stroke:none;" d="M784 374L785 375L784 374z"/>
<path style="fill:#686765; stroke:none;" d="M214 375L214 379L215 379L214 375z"/>
<path style="fill:#d2c4b3; stroke:none;" d="M785 375L786 376L785 375z"/>
<path style="fill:#686765; stroke:none;" d="M815 375L816 376L815 375z"/>
<path style="fill:#d2c4b3; stroke:none;" d="M786 376L787 377L786 376z"/>
<path style="fill:#686765; stroke:none;" d="M814 376L815 377L814 376z"/>
<path style="fill:#d2c4b3; stroke:none;" d="M272 377L272 378L282 378L272 377M787 377L788 378L787 377M262 378L262 379L265 379L262 378z"/>
<path style="fill:#fcfcfc; stroke:none;" d="M165 512L167 533C173.597 533 180.428 532.482 186.999 533.059C188.868 533.223 192.921 533.954 192.369 536.741C191.494 541.155 171.735 539 168 539L172 552C175.747 551.355 191.471 543.236 193.94 546.678C196.841 550.724 176.686 556.585 174 558C181.031 575.139 190.702 590.951 204.001 603.985C253.26 652.267 330.644 638.747 367.644 583C411.309 517.212 389.256 411.866 311 383.436C238.191 356.985 169.943 422.127 165.09 493C164.13 507.007 171.007 509.394 182 516.319C184.233 517.725 194.189 522.005 192.654 525.617C191.406 528.556 186.481 525.076 185 524.188C178.308 520.175 171.824 515.785 165 512z"/>
<path style="fill:#d2c4b3; stroke:none;" d="M289 378L289 379L292 379L289 378z"/>
<path style="fill:#686765; stroke:none;" d="M734 378L735 379L734 378z"/>
<path style="fill:#d2c4b3; stroke:none;" d="M762 378L763 379L762 378M257.667 379.333L258.333 379.667L257.667 379.333M296.667 379.333L297.333 379.667L296.667 379.333z"/>
<path style="fill:#686765; stroke:none;" d="M735 379L736 380L735 379z"/>
<path style="fill:#d2c4b3; stroke:none;" d="M788.333 379.667L788.667 380.333L788.333 379.667z"/>
<path style="fill:#686765; stroke:none;" d="M812 379L813 380L812 379M213 380L214 381L213 380z"/>
<path style="fill:#d2c4b3; stroke:none;" d="M252.667 380.333L253.333 380.667L252.667 380.333M300.667 380.333L301.333 380.667L300.667 380.333z"/>
<path style="fill:#686765; stroke:none;" d="M736 380L737 381L736 380z"/>
<path style="fill:#d2c4b3; stroke:none;" d="M761 380L762 381L761 380z"/>
<path style="fill:#686765; stroke:none;" d="M212 381L213 382L212 381z"/>
<path style="fill:#d2c4b3; stroke:none;" d="M249 381L250 382L249 381M304.667 381.333L305.333 381.667L304.667 381.333z"/>
<path style="fill:#686765; stroke:none;" d="M737 381L738 382L737 381z"/>
<path style="fill:#d2c4b3; stroke:none;" d="M789 381L789 385L790 385L789 381z"/>
<path style="fill:#686765; stroke:none;" d="M211 382L212 383L211 382z"/>
<path style="fill:#d2c4b3; stroke:none;" d="M245.667 382.333L246.333 382.667L245.667 382.333M308 382L309 383L308 382z"/>
<path style="fill:#686765; stroke:none;" d="M810 382L811 383L810 382z"/>
<path style="fill:#d2c4b3; stroke:none;" d="M243 383L244 384L243 383M311 383L312 384L311 383M760 383L760 390L761 390L760 383M240 384L241 385L240 384M313.667 384.333L314.333 384.667L313.667 384.333M238 385L239 386L238 385M316 385L317 386L316 385z"/>
<path style="fill:#686765; stroke:none;" d="M808 385L809 386L808 385M208 386L209 387L208 386z"/>
<path style="fill:#d2c4b3; stroke:none;" d="M235 386L236 387L235 386M318 386L319 387L318 386z"/>
<path style="fill:#686765; stroke:none;" d="M807 386L808 387L807 386M207 387L208 388L207 387z"/>
<path style="fill:#d2c4b3; stroke:none;" d="M233 387L234 388L233 387M320 387L321 388L320 387M231 388L232 389L231 388M322 388L323 389L322 388M789 388L789 392L790 392L789 388z"/>
<path style="fill:#686765; stroke:none;" d="M806 388L807 389L806 388z"/>
<path style="fill:#d2c4b3; stroke:none;" d="M229 389L230 390L229 389M324 389L325 390L324 389z"/>
<path style="fill:#686765; stroke:none;" d="M805 389L806 390L805 389M205 390L206 391L205 390z"/>
<path style="fill:#d2c4b3; stroke:none;" d="M227 390L228 391L227 390M326 390L327 391L326 390z"/>
<path style="fill:#686765; stroke:none;" d="M204 391L205 392L204 391z"/>
<path style="fill:#d2c4b3; stroke:none;" d="M328 391L329 392L328 391M224 392L225 393L224 392M761.333 392.667L761.667 393.333L761.333 392.667z"/>
<path style="fill:#686765; stroke:none;" d="M803 392L804 393L803 392z"/>
<path style="fill:#d2c4b3; stroke:none;" d="M222 393L223 394L222 393M331 393L332 394L331 393M788 393L789 394L788 393z"/>
<path style="fill:#686765; stroke:none;" d="M802 393L803 394L802 393M202 394L203 395L202 394z"/>
<path style="fill:#d2c4b3; stroke:none;" d="M221 394L222 395L221 394M333 394L334 395L333 394M762 394L763 395L762 394z"/>
<path style="fill:#686765; stroke:none;" d="M201 395L202 396L201 395z"/>
<path style="fill:#d2c4b3; stroke:none;" d="M219 395L220 396L219 395M334 395L335 396L334 395M787 395L788 396L787 395z"/>
<path style="fill:#686765; stroke:none;" d="M801 395L802 396L801 395z"/>
<path style="fill:#d2c4b3; stroke:none;" d="M218 396L219 397L218 396M336 396L337 397L336 396M763 396L764 397L763 396M786 396L787 397L786 396z"/>
<path style="fill:#686765; stroke:none;" d="M800 396L801 397L800 396M200 397L201 398L200 397z"/>
<path style="fill:#d2c4b3; stroke:none;" d="M216 397L217 398L216 397M337 397L338 398L337 397M764 397L765 398L764 397M785 397L786 398L785 397z"/>
<path style="fill:#686765; stroke:none;" d="M199 398L200 399L199 398z"/>
<path style="fill:#d2c4b3; stroke:none;" d="M215 398L216 399L215 398M765 398L766 399L765 398M784 398L785 399L784 398M340 399L341 400L340 399M766.667 399.333L767.333 399.667L766.667 399.333M783 399L784 400L783 399z"/>
<path style="fill:#686765; stroke:none;" d="M798 399L799 400L798 399z"/>
<path style="fill:#d2c4b3; stroke:none;" d="M341 400L342 401L341 400M768.667 400.333L769.333 400.667L768.667 400.333M781 400L782 401L781 400z"/>
<path style="fill:#686765; stroke:none;" d="M797 400L798 401L797 400M197 401L198 402L197 401z"/>
<path style="fill:#d2c4b3; stroke:none;" d="M211 401L212 402L211 401M771 401L771 402L780 402L771 401M210 402L211 403L210 402M209 403L210 404L209 403M345 403L346 404L345 403z"/>
<path style="fill:#686765; stroke:none;" d="M795 403L796 404L795 403M195 404L196 405L195 404z"/>
<path style="fill:#d2c4b3; stroke:none;" d="M346 404L347 405L346 404z"/>
<path style="fill:#686765; stroke:none;" d="M794 404L795 405L794 404z"/>
<path style="fill:#d2c4b3; stroke:none;" d="M347 405L348 406L347 405z"/>
<path style="fill:#686765; stroke:none;" d="M194 406L195 407L194 406z"/>
<path style="fill:#d2c4b3; stroke:none;" d="M348 406L349 407L348 406z"/>
<path style="fill:#686765; stroke:none;" d="M193 407L194 408L193 407z"/>
<path style="fill:#d2c4b3; stroke:none;" d="M349 407L350 408L349 407z"/>
<path style="fill:#686765; stroke:none;" d="M792 407L793 408L792 407z"/>
<path style="fill:#d2c4b3; stroke:none;" d="M203 408L204 409L203 408M350 408L351 409L350 408z"/>
<path style="fill:#686765; stroke:none;" d="M791 408L792 409L791 408M192 409L193 410L192 409z"/>
<path style="fill:#d2c4b3; stroke:none;" d="M202 409L203 410L202 409M351 409L352 410L351 409M201 410L202 411L201 410M352 410L353 411L352 410M353 411L354 412L353 411z"/>
<path style="fill:#686765; stroke:none;" d="M190 412L191 413L190 412z"/>
<path style="fill:#d2c4b3; stroke:none;" d="M354 412L355 413L354 412z"/>
<path style="fill:#686765; stroke:none;" d="M788 412L789 413L788 412z"/>
<path style="fill:#d2c4b3; stroke:none;" d="M355 413L356 414L355 413z"/>
<path style="fill:#686765; stroke:none;" d="M787 413L788 414L787 413M189 414L190 415L189 414z"/>
<path style="fill:#d2c4b3; stroke:none;" d="M356 414L357 415L356 414M357 415L358 416L357 415z"/>
<path style="fill:#686765; stroke:none;" d="M188 416L189 417L188 416z"/>
<path style="fill:#d2c4b3; stroke:none;" d="M196 416L197 417L196 416z"/>
<path style="fill:#686765; stroke:none;" d="M785 416L786 417L785 416M187 417L188 418L187 417z"/>
<path style="fill:#d2c4b3; stroke:none;" d="M195 417L196 418L195 417z"/>
<path style="fill:#686765; stroke:none;" d="M784 417L785 418L784 417z"/>
<path style="fill:#d2c4b3; stroke:none;" d="M194 418L195 419L194 418z"/>
<path style="fill:#686765; stroke:none;" d="M783 418L784 419L783 418M186 419L187 420L186 419z"/>
<path style="fill:#d2c4b3; stroke:none;" d="M360 419L361 420L360 419M361 420L362 421L361 420z"/>
<path style="fill:#686765; stroke:none;" d="M185 421L186 422L185 421M781 421L782 422L781 421z"/>
<path style="fill:#d2c4b3; stroke:none;" d="M191 422L192 423L191 422z"/>
<path style="fill:#686765; stroke:none;" d="M780 422L781 423L780 422M184 423L185 424L184 423z"/>
<path style="fill:#d2c4b3; stroke:none;" d="M190 423L191 424L190 423M363 423L364 424L363 423z"/>
<path style="fill:#686765; stroke:none;" d="M779 423L780 424L779 423z"/>
<path style="fill:#d2c4b3; stroke:none;" d="M364 424L365 425L364 424z"/>
<path style="fill:#686765; stroke:none;" d="M183 425L184 426L183 425z"/>
<path style="fill:#d2c4b3; stroke:none;" d="M189 425L190 426L189 425M188 426L189 427L188 426z"/>
<path style="fill:#686765; stroke:none;" d="M777 426L778 427L777 426M182 427L183 428L182 427z"/>
<path style="fill:#d2c4b3; stroke:none;" d="M366 427L367 428L366 427z"/>
<path style="fill:#686765; stroke:none;" d="M776 427L777 428L776 427M775 428L776 429L775 428M181 429L182 430L181 429z"/>
<path style="fill:#d2c4b3; stroke:none;" d="M186 429L187 430L186 429M368 430L369 431L368 430z"/>
<path style="fill:#686765; stroke:none;" d="M180 431L181 432L180 431z"/>
<path style="fill:#d2c4b3; stroke:none;" d="M185 431L186 432L185 431M184 432L185 433L184 432z"/>
<path style="fill:#686765; stroke:none;" d="M772 432L773 433L772 432M179 433L180 434L179 433z"/>
<path style="fill:#d2c4b3; stroke:none;" d="M370 433L371 434L370 433z"/>
<path style="fill:#686765; stroke:none;" d="M771 433L772 434L771 433z"/>
<path style="fill:#d2c4b3; stroke:none;" d="M183 434L184 435L183 434z"/>
<path style="fill:#686765; stroke:none;" d="M178 435L179 436L178 435z"/>
<path style="fill:#d2c4b3; stroke:none;" d="M371 435L372 436L371 435M182 436L183 437L182 436z"/>
<path style="fill:#686765; stroke:none;" d="M771 436L772 437L771 436z"/>
<path style="fill:#d2c4b3; stroke:none;" d="M372 437L373 438L372 437z"/>
<path style="fill:#686765; stroke:none;" d="M177 438L178 439L177 438M772 438L773 439L772 438z"/>
<path style="fill:#d2c4b3; stroke:none;" d="M180 439L181 440L180 439z"/>
<path style="fill:#686765; stroke:none;" d="M176 440L177 441L176 440z"/>
<path style="fill:#d2c4b3; stroke:none;" d="M374 440L375 441L374 440z"/>
<path style="fill:#686765; stroke:none;" d="M773 440L774 441L773 440z"/>
<path style="fill:#d2c4b3; stroke:none;" d="M179 441L180 442L179 441z"/>
<path style="fill:#686765; stroke:none;" d="M175.333 442.667L175.667 443.333L175.333 442.667z"/>
<path style="fill:#d2c4b3; stroke:none;" d="M375 442L376 443L375 442M178 443L179 444L178 443z"/>
<path style="fill:#686765; stroke:none;" d="M774 443L775 444L774 443z"/>
<path style="fill:#d2c4b3; stroke:none;" d="M376 444L377 445L376 444z"/>
<path style="fill:#686765; stroke:none;" d="M174 445L175 446L174 445z"/>
<path style="fill:#d2c4b3; stroke:none;" d="M177 445L178 446L177 445z"/>
<path style="fill:#686765; stroke:none;" d="M775 445L776 446L775 445M173.333 447.667L173.667 448.333L173.333 447.667z"/>
<path style="fill:#d2c4b3; stroke:none;" d="M377 447L378 448L377 447M176 448L177 449L176 448z"/>
<path style="fill:#686765; stroke:none;" d="M776 448L777 449L776 448z"/>
<path style="fill:#d2c4b3; stroke:none;" d="M378 449L379 450L378 449z"/>
<path style="fill:#686765; stroke:none;" d="M172 450L173 451L172 450z"/>
<path style="fill:#d2c4b3; stroke:none;" d="M175 450L176 451L175 450z"/>
<path style="fill:#686765; stroke:none;" d="M777.333 450.667L777.667 451.333L777.333 450.667z"/>
<path style="fill:#d2c4b3; stroke:none;" d="M379 451L380 452L379 451M174 452L175 453L174 452z"/>
<path style="fill:#686765; stroke:none;" d="M171 453L172 454L171 453M778.333 453.667L778.667 454.333L778.333 453.667z"/>
<path style="fill:#d2c4b3; stroke:none;" d="M380 454L381 455L380 454M173 455L174 456L173 455z"/>
<path style="fill:#686765; stroke:none;" d="M170 456L171 457L170 456z"/>
<path style="fill:#d2c4b3; stroke:none;" d="M381 456L382 457L381 456z"/>
<path style="fill:#686765; stroke:none;" d="M779.333 456.667L779.667 457.333L779.333 456.667z"/>
<path style="fill:#d2c4b3; stroke:none;" d="M172.333 457.667L172.667 458.333L172.333 457.667M201 457L201 458L206 458L201 457M311 457L311 458L315 458L311 457M197 458L198 459L197 458z"/>
<path style="fill:#d9a350; stroke:none;" d="M198 458L199 459L198 458z"/>
<path style="fill:#474747; stroke:none;" d="M199.001 458.653C183.359 463.558 190.915 489.185 206.999 484.195C223.027 479.222 215.417 453.505 199.001 458.653z"/>
<path style="fill:#686765; stroke:none;" d="M207 458L208 459L207 458z"/>
<path style="fill:#d2c4b3; stroke:none;" d="M208 458L209 459L208 458M307 458L308 459L307 458z"/>
<path style="fill:#686765; stroke:none;" d="M308 458L309 459L308 458z"/>
<path style="fill:#474747; stroke:none;" d="M309.001 458.653C293.034 463.658 300.647 489.304 316.996 484.195C332.818 479.251 325.314 453.539 309.001 458.653z"/>
<path style="fill:#686765; stroke:none;" d="M317 458L318 459L317 458z"/>
<path style="fill:#d2c4b3; stroke:none;" d="M318 458L319 459L318 458z"/>
<path style="fill:#686765; stroke:none;" d="M169 459L170 460L169 459M196 459L197 460L196 459z"/>
<path style="fill:#d2c4b3; stroke:none;" d="M210 459L211 460L210 459M305 459L306 460L305 459z"/>
<path style="fill:#686765; stroke:none;" d="M306 459L307 460L306 459M319 459L320 460L319 459z"/>
<path style="fill:#d2c4b3; stroke:none;" d="M320 459L321 460L320 459M382 459L383 460L382 459z"/>
<path style="fill:#686765; stroke:none;" d="M780.333 459.667L780.667 460.333L780.333 459.667z"/>
<path style="fill:#d2c4b3; stroke:none;" d="M171.333 460.667L171.667 461.333L171.333 460.667M194 460L195 461L194 460z"/>
<path style="fill:#686765; stroke:none;" d="M211 460L212 461L211 460z"/>
<path style="fill:#d9a350; stroke:none;" d="M304 460L305 461L304 460z"/>
<path style="fill:#d2c4b3; stroke:none;" d="M321 460L322 461L321 460M193 461L194 462L193 461z"/>
<path style="fill:#686765; stroke:none;" d="M212 461L213 462L212 461M303 461L304 462L303 461z"/>
<path style="fill:#d2c4b3; stroke:none;" d="M322 461L323 462L322 461z"/>
<path style="fill:#686765; stroke:none;" d="M168.333 462.667L168.667 463.333L168.333 462.667z"/>
<path style="fill:#d2c4b3; stroke:none;" d="M192 462L193 463L192 462z"/>
<path style="fill:#d9a350; stroke:none;" d="M213 462L214 463L213 462z"/>
<path style="fill:#d2c4b3; stroke:none;" d="M302 462L303 463L302 462M323 462L324 463L323 462M383 462L384 463L383 462z"/>
<path style="fill:#686765; stroke:none;" d="M781.333 462.667L781.667 463.333L781.333 462.667z"/>
<path style="fill:#d2c4b3; stroke:none;" d="M170.333 463.667L170.667 464.333L170.333 463.667M214 463L215 464L214 463M301 463L302 464L301 463M191 464L192 465L191 464z"/>
<path style="fill:#686765; stroke:none;" d="M214 464L215 465L214 464M301 464L302 465L301 464z"/>
<path style="fill:#d9a350; stroke:none;" d="M324 464L325 465L324 464z"/>
<path style="fill:#d2c4b3; stroke:none;" d="M215 465L216 466L215 465M300 465L301 466L300 465M384.333 465.667L384.667 466.333L384.333 465.667z"/>
<path style="fill:#686765; stroke:none;" d="M167 466L168 467L167 466z"/>
<path style="fill:#d2c4b3; stroke:none;" d="M190 466L191 467L190 466z"/>
<path style="fill:#686765; stroke:none;" d="M215 466L216 467L215 466z"/>
<path style="fill:#d9a350; stroke:none;" d="M300 466L301 467L300 466z"/>
<path style="fill:#d2c4b3; stroke:none;" d="M325 466L326 467L325 466z"/>
<path style="fill:#686765; stroke:none;" d="M782 466L783 467L782 466z"/>
<path style="fill:#d2c4b3; stroke:none;" d="M169 467L170 468L169 467z"/>
<path style="fill:#d9a350; stroke:none;" d="M190 467L191 468L190 467z"/>
<path style="fill:#686765; stroke:none;" d="M325 467L326 468L325 467M190 468L191 469L190 468M166.333 469.667L166.667 470.333L166.333 469.667z"/>
<path style="fill:#d2c4b3; stroke:none;" d="M216 469L216 474L217 474L216 469M299 469L299 474L300 474L299 469M385.333 469.667L385.667 470.333L385.333 469.667M326.333 470.667L326.667 471.333L326.333 470.667z"/>
<path style="fill:#686765; stroke:none;" d="M783 470L784 471L783 470z"/>
<path style="fill:#d2c4b3; stroke:none;" d="M168 471L169 472L168 471z"/>
<path style="fill:#686765; stroke:none;" d="M165.333 473.667L165.667 474.333L165.333 473.667z"/>
<path style="fill:#d2c4b3; stroke:none;" d="M386.333 473.667L386.667 474.333L386.333 473.667z"/>
<path style="fill:#686765; stroke:none;" d="M190 474L191 475L190 474M784 474L785 475L784 474z"/>
<path style="fill:#d2c4b3; stroke:none;" d="M167.333 475.667L167.667 476.333L167.333 475.667M190.333 475.667L190.667 476.333L190.333 475.667z"/>
<path style="fill:#686765; stroke:none;" d="M300 475L301 476L300 475M325 475L326 476L325 475z"/>
<path style="fill:#d9a350; stroke:none;" d="M215 476L216 477L215 476z"/>
<path style="fill:#d2c4b3; stroke:none;" d="M300 476L301 477L300 476M325 476L326 477L325 476z"/>
<path style="fill:#686765; stroke:none;" d="M164.333 477.667L164.667 478.333L164.333 477.667M191 477L192 478L191 477z"/>
<path style="fill:#d2c4b3; stroke:none;" d="M215 477L216 478L215 477M387 477L387 480L388 480L387 477M191 478L192 479L191 478z"/>
<path style="fill:#686765; stroke:none;" d="M214 478L215 479L214 478z"/>
<path style="fill:#d9a350; stroke:none;" d="M301 478L302 479L301 478z"/>
<path style="fill:#d2c4b3; stroke:none;" d="M324 478L325 479L324 478z"/>
<path style="fill:#686765; stroke:none;" d="M785.333 478.667L785.667 479.333L785.333 478.667M192 479L193 480L192 479M323 479L324 480L323 479z"/>
<path style="fill:#d2c4b3; stroke:none;" d="M166.333 480.667L166.667 481.333L166.333 480.667M213 480L214 481L213 480M302 480L303 481L302 480M323 480L324 481L323 480M193 481L194 482L193 481M212 481L213 482L212 481M303 481L304 482L303 481M322 481L323 482L322 481z"/>
<path style="fill:#686765; stroke:none;" d="M163.333 482.667L163.667 483.333L163.333 482.667M195 482L196 483L195 482z"/>
<path style="fill:#d2c4b3; stroke:none;" d="M211 482L212 483L211 482M304 482L305 483L304 482M321 482L322 483L321 482z"/>
<path style="fill:#686765; stroke:none;" d="M786 482L786 485L787 485L786 482z"/>
<path style="fill:#d2c4b3; stroke:none;" d="M196 483L197 484L196 483z"/>
<path style="fill:#686765; stroke:none;" d="M209 483L210 484L209 483z"/>
<path style="fill:#d9a350; stroke:none;" d="M306 483L307 484L306 483M319 483L320 484L319 483z"/>
<path style="fill:#d2c4b3; stroke:none;" d="M388 483L388 486L389 486L388 483M198 484L199 485L198 484z"/>
<path style="fill:#686765; stroke:none;" d="M199 484L200 485L199 484M206 484L207 485L206 484z"/>
<path style="fill:#d2c4b3; stroke:none;" d="M207 484L208 485L207 484M308 484L309 485L308 484z"/>
<path style="fill:#686765; stroke:none;" d="M309 484L310 485L309 484M316 484L317 485L316 484z"/>
<path style="fill:#d2c4b3; stroke:none;" d="M317 484L318 485L317 484M165 486L165 490L166 490L165 486z"/>
<path style="fill:#686765; stroke:none;" d="M162 487L162 490L163 490L162 487M787.333 488.667L787.667 489.333L787.333 488.667z"/>
<path style="fill:#d2c4b3; stroke:none;" d="M389 491L389 496L390 496L389 491z"/>
<path style="fill:#686765; stroke:none;" d="M161 493L161 496L162 496L161 493M788 494L788 497L789 497L788 494z"/>
<path style="fill:#d2c4b3; stroke:none;" d="M164 496L164 506L165 506L164 496z"/>
<path style="fill:#686765; stroke:none;" d="M160 500L160 504L161 504L160 500z"/>
<path style="fill:#d2c4b3; stroke:none;" d="M228 502L229 503L228 502z"/>
<path style="fill:#474747; stroke:none;" d="M229 502C230.47 509.123 232.314 516.351 235.312 523C236.717 526.117 240.832 530.938 240.546 534.424C240.171 539.007 233.983 541.832 230 541.606C224.121 541.271 218.75 537.99 213 537C219.685 548.748 236.545 543.751 245 538C249.745 546.65 259.665 545.357 268 545L267 542C260.736 542.791 247.153 543.287 246.252 533.996C245.932 530.698 249.144 526.937 250.384 524C253.368 516.937 255.452 509.498 257 502L229 502z"/>
<path style="fill:#d2c4b3; stroke:none;" d="M257 502L258 503L257 502z"/>
<path style="fill:#686765; stroke:none;" d="M789 502L789 506L790 506L789 502M229 504L230 505L229 504M256 504L257 505L256 504z"/>
<path style="fill:#d2c4b3; stroke:none;" d="M229.333 505.667L229.667 506.333L229.333 505.667z"/>
<path style="fill:#d9a350; stroke:none;" d="M256 505L257 506L256 505z"/>
<path style="fill:#686765; stroke:none;" d="M163 506L162 508L163 506z"/>
<path style="fill:#474747; stroke:none;" d="M194 526L194 524C186.485 519.027 178.785 514.145 171 509.606C169.544 508.757 164.646 505.432 163.461 508.318C162.32 511.1 168.341 513.644 170.001 514.684C176.483 518.746 186.073 527.812 194 526z"/>
<path style="fill:#686765; stroke:none;" d="M165 506L166 507L165 506z"/>
<path style="fill:#d2c4b3; stroke:none;" d="M166 506L167 507L166 506M256 506L257 507L256 506z"/>
<path style="fill:#686765; stroke:none;" d="M167 507L168 508L167 507z"/>
<path style="fill:#d2c4b3; stroke:none;" d="M169 508L170 509L169 508z"/>
<path style="fill:#686765; stroke:none;" d="M230 508L231 509L230 508M255 508L256 509L255 508M162 509L163 510L162 509M170 509L171 510L170 509z"/>
<path style="fill:#d2c4b3; stroke:none;" d="M171 509L172 510L171 509M230 509L231 510L230 509M255.333 509.667L255.667 510.333L255.333 509.667z"/>
<path style="fill:#d9a350; stroke:none;" d="M172 510L173 511L172 510z"/>
<path style="fill:#d2c4b3; stroke:none;" d="M174 511L175 512L174 511z"/>
<path style="fill:#686765; stroke:none;" d="M159 512L159 519L160 519L159 512z"/>
<path style="fill:#d2c4b3; stroke:none;" d="M164 512L164 516L165 516L164 512z"/>
<path style="fill:#686765; stroke:none;" d="M166 512L167 513L166 512M175 512L176 513L175 512z"/>
<path style="fill:#d2c4b3; stroke:none;" d="M231.333 512.667L231.667 513.333L231.333 512.667z"/>
<path style="fill:#d9a350; stroke:none;" d="M254 512L255 513L254 512z"/>
<path style="fill:#d2c4b3; stroke:none;" d="M167 513L168 514L167 513z"/>
<path style="fill:#686765; stroke:none;" d="M168 513L169 514L168 513z"/>
<path style="fill:#d2c4b3; stroke:none;" d="M177 513L178 514L177 513M254 513L255 514L254 513z"/>
<path style="fill:#686765; stroke:none;" d="M790 513L790 525L791 525L790 513z"/>
<path style="fill:#d2c4b3; stroke:none;" d="M169 514L170 515L169 514z"/>
<path style="fill:#686765; stroke:none;" d="M178 514L179 515L178 514z"/>
<path style="fill:#d2c4b3; stroke:none;" d="M179 514L180 515L179 514M170 515L171 516L170 515z"/>
<path style="fill:#686765; stroke:none;" d="M171 515L172 516L171 515z"/>
<path style="fill:#d9a350; stroke:none;" d="M180 515L181 516L180 515M232 515L233 516L232 515z"/>
<path style="fill:#686765; stroke:none;" d="M253 515L254 516L253 515z"/>
<path style="fill:#d2c4b3; stroke:none;" d="M172 516L173 517L172 516M182 516L183 517L182 516M232 516L233 517L232 516M253 516L254 517L253 516M389 516L389 521L390 521L389 516z"/>
<path style="fill:#686765; stroke:none;" d="M174 517L175 518L174 517M183 517L184 518L183 517z"/>
<path style="fill:#d2c4b3; stroke:none;" d="M175 518L176 519L175 518z"/>
<path style="fill:#686765; stroke:none;" d="M176 518L177 519L176 518z"/>
<path style="fill:#d2c4b3; stroke:none;" d="M185 518L186 519L185 518z"/>
<path style="fill:#d9a350; stroke:none;" d="M233 518L234 519L233 518z"/>
<path style="fill:#686765; stroke:none;" d="M252 518L253 519L252 518z"/>
<path style="fill:#d2c4b3; stroke:none;" d="M325.667 518.333L326.333 518.667L325.667 518.333M177 519L178 520L177 519z"/>
<path style="fill:#686765; stroke:none;" d="M186 519L187 520L186 519z"/>
<path style="fill:#d2c4b3; stroke:none;" d="M187 519L188 520L187 519M233 519L234 520L233 519M252 519L253 520L252 519M323 519L324 520L323 519z"/>
<path style="fill:#686765; stroke:none;" d="M324 519L325 520L324 519z"/>
<path style="fill:#474747; stroke:none;" d="M294 533C301.223 534.804 326.625 526.947 328 519C319.12 520.312 298.975 525.265 294 533z"/>
<path style="fill:#686765; stroke:none;" d="M179 520L180 521L179 520z"/>
<path style="fill:#d9a350; stroke:none;" d="M188 520L189 521L188 520z"/>
<path style="fill:#d2c4b3; stroke:none;" d="M320 520L321 521L320 520z"/>
<path style="fill:#686765; stroke:none;" d="M321 520L322 521L321 520z"/>
<path style="fill:#d2c4b3; stroke:none;" d="M328 520L329 521L328 520M180 521L181 522L180 521M190 521L191 522L190 521M234 521L235 522L234 521z"/>
<path style="fill:#d9a350; stroke:none;" d="M251 521L252 522L251 521z"/>
<path style="fill:#d2c4b3; stroke:none;" d="M317 521L318 522L317 521z"/>
<path style="fill:#686765; stroke:none;" d="M318 521L319 522L318 521z"/>
<path style="fill:#d9a350; stroke:none;" d="M328 521L329 522L328 521z"/>
<path style="fill:#d2c4b3; stroke:none;" d="M165 522L165 526L166 526L165 522z"/>
<path style="fill:#d9a350; stroke:none;" d="M182 522L183 523L182 522z"/>
<path style="fill:#686765; stroke:none;" d="M191 522L192 523L191 522z"/>
<path style="fill:#d2c4b3; stroke:none;" d="M192 522L193 523L192 522M251 522L252 523L251 522M314 522L315 523L314 522z"/>
<path style="fill:#d9a350; stroke:none;" d="M315 522L316 523L315 522z"/>
<path style="fill:#d2c4b3; stroke:none;" d="M328 522L329 523L328 522M183 523L184 524L183 523z"/>
<path style="fill:#686765; stroke:none;" d="M184 523L185 524L184 523z"/>
<path style="fill:#d2c4b3; stroke:none;" d="M193 523L194 524L193 523z"/>
<path style="fill:#686765; stroke:none;" d="M235 523L236 524L235 523M250 523L251 524L250 523z"/>
<path style="fill:#d2c4b3; stroke:none;" d="M312 523L313 524L312 523z"/>
<path style="fill:#686765; stroke:none;" d="M313 523L314 524L313 523M326 523L327 524L326 523z"/>
<path style="fill:#d2c4b3; stroke:none;" d="M327 523L328 524L327 523M185 524L186 525L185 524M235 524L236 525L235 524M250 524L251 525L250 524M309 524L310 525L309 524z"/>
<path style="fill:#686765; stroke:none;" d="M310 524L311 525L310 524M323 524L324 525L323 524z"/>
<path style="fill:#d2c4b3; stroke:none;" d="M324.667 524.333L325.333 524.667L324.667 524.333z"/>
<path style="fill:#686765; stroke:none;" d="M187 525L188 526L187 525M236 525L237 526L236 525z"/>
<path style="fill:#d2c4b3; stroke:none;" d="M306 525L307 526L306 525z"/>
<path style="fill:#d9a350; stroke:none;" d="M307 525L308 526L307 525M321 525L322 526L321 525z"/>
<path style="fill:#d2c4b3; stroke:none;" d="M322 525L323 526L322 525M188 526L189 527L188 526z"/>
<path style="fill:#d9a350; stroke:none;" d="M193 526L194 527L193 526z"/>
<path style="fill:#d2c4b3; stroke:none;" d="M236 526L237 527L236 526M249 526L250 527L249 526M304 526L305 527L304 526z"/>
<path style="fill:#686765; stroke:none;" d="M318 526L319 527L318 526z"/>
<path style="fill:#d2c4b3; stroke:none;" d="M319 526L320 527L319 526M388 526L388 529L389 529L388 526M190 527L191 528L190 527z"/>
<path style="fill:#686765; stroke:none;" d="M191 527L192 528L191 527z"/>
<path style="fill:#d2c4b3; stroke:none;" d="M192 527L193 528L192 527z"/>
<path style="fill:#686765; stroke:none;" d="M237 527L238 528L237 527z"/>
<path style="fill:#d2c4b3; stroke:none;" d="M301 527L302 528L301 527z"/>
<path style="fill:#686765; stroke:none;" d="M302 527L303 528L302 527M315 527L316 528L315 527z"/>
<path style="fill:#d2c4b3; stroke:none;" d="M316 527L317 528L316 527M237 528L238 529L237 528M248 528L249 529L248 528M298 528L299 529L298 528z"/>
<path style="fill:#686765; stroke:none;" d="M299 528L300 529L299 528z"/>
<path style="fill:#d9a350; stroke:none;" d="M313 528L314 529L313 528z"/>
<path style="fill:#d2c4b3; stroke:none;" d="M314 528L315 529L314 528z"/>
<path style="fill:#686765; stroke:none;" d="M790 528L790 540L791 540L790 528M238 529L239 530L238 529M247 529L248 530L247 529z"/>
<path style="fill:#d2c4b3; stroke:none;" d="M295 529L296 530L295 529z"/>
<path style="fill:#d9a350; stroke:none;" d="M296 529L297 530L296 529z"/>
<path style="fill:#686765; stroke:none;" d="M310 529L311 530L310 529z"/>
<path style="fill:#d2c4b3; stroke:none;" d="M311 529L312 530L311 529M166.333 530.667L166.667 531.333L166.333 530.667M294 530L295 531L294 530z"/>
<path style="fill:#686765; stroke:none;" d="M307 530L308 531L307 530z"/>
<path style="fill:#d2c4b3; stroke:none;" d="M308 530L309 531L308 530M239 531L240 532L239 531M246 531L247 532L246 531z"/>
<path style="fill:#686765; stroke:none;" d="M294 531L295 532L294 531M304 531L305 532L304 531z"/>
<path style="fill:#d2c4b3; stroke:none;" d="M305 531L306 532L305 531M240 532L241 533L240 532M245 532L246 533L245 532z"/>
<path style="fill:#d9a350; stroke:none;" d="M302 532L303 533L302 532z"/>
<path style="fill:#d2c4b3; stroke:none;" d="M303 532L304 533L303 532M387 532L387 535L388 535L387 532z"/>
<path style="fill:#686765; stroke:none;" d="M159 533L160 534L159 533z"/>
<path style="fill:#d2c4b3; stroke:none;" d="M167 533L167 534L192 534L167 533z"/>
<path style="fill:#686765; stroke:none;" d="M241 533L242 534L241 533z"/>
<path style="fill:#d9a350; stroke:none;" d="M294 533L295 534L294 533z"/>
<path style="fill:#686765; stroke:none;" d="M299 533L300 534L299 533z"/>
<path style="fill:#d2c4b3; stroke:none;" d="M300 533L301 534L300 533M245 534L246 535L245 534z"/>
<path style="fill:#d9a350; stroke:none;" d="M295 534L296 535L295 534z"/>
<path style="fill:#686765; stroke:none;" d="M296 534L297 535L296 534z"/>
<path style="fill:#d2c4b3; stroke:none;" d="M297 534L298 535L297 534M193 535L194 536L193 535M240 535L241 536L240 535z"/>
<path style="fill:#d9a350; stroke:none;" d="M193 536L194 537L193 536M213 536L214 537L213 536z"/>
<path style="fill:#d2c4b3; stroke:none;" d="M214 536L215 537L214 536z"/>
<path style="fill:#686765; stroke:none;" d="M240 536L241 537L240 536M246 536L247 537L246 536z"/>
<path style="fill:#d2c4b3; stroke:none;" d="M193 537L194 538L193 537M212 537L213 538L212 537M216 537L217 538L216 537M239 537L240 538L239 537z"/>
<path style="fill:#686765; stroke:none;" d="M247 537L248 538L247 537z"/>
<path style="fill:#d2c4b3; stroke:none;" d="M386.333 537.667L386.667 538.333L386.333 537.667z"/>
<path style="fill:#686765; stroke:none;" d="M159 542L160 542L160 539L169 539C164.96 537.305 160.501 537.479 159 542z"/>
<path style="fill:#d9a350; stroke:none;" d="M169 538L169 539L192 539L169 538z"/>
<path style="fill:#d2c4b3; stroke:none;" d="M192 538L193 539L192 538z"/>
<path style="fill:#686765; stroke:none;" d="M212 538L214 540L212 538M218 538L219 539L218 538z"/>
<path style="fill:#d2c4b3; stroke:none;" d="M219 538L220 539L219 538M243 538L244 539L243 538z"/>
<path style="fill:#686765; stroke:none;" d="M244 538L245 539L244 538M248 538L249 539L248 538z"/>
<path style="fill:#d9a350; stroke:none;" d="M160 539L161 556L172 553C169.405 544.884 169.702 539.034 160 539z"/>
<path style="fill:#d2c4b3; stroke:none;" d="M212 539L213 540L212 539M221.667 539.333L222.333 539.667L221.667 539.333M237 539L238 540L237 539M242 539L243 540L242 539z"/>
<path style="fill:#686765; stroke:none;" d="M249 539L250 540L249 539z"/>
<path style="fill:#d2c4b3; stroke:none;" d="M168 540L169 541L168 540M214 540L215 541L214 540z"/>
<path style="fill:#686765; stroke:none;" d="M215 540L216 541L215 540z"/>
<path style="fill:#d9a350; stroke:none;" d="M224 540L225 541L224 540z"/>
<path style="fill:#d2c4b3; stroke:none;" d="M225 540L226 541L225 540M235 540L236 541L235 540z"/>
<path style="fill:#686765; stroke:none;" d="M236 540L237 541L236 540M241 540L242 541L241 540z"/>
<path style="fill:#d2c4b3; stroke:none;" d="M251 540L252 541L251 540M216 541L217 542L216 541z"/>
<path style="fill:#686765; stroke:none;" d="M217 541L218 542L217 541M228 541L228 542L234 542L228 541M240 541L241 542L240 541M247 541L248 542L247 541z"/>
<path style="fill:#d9a350; stroke:none;" d="M253 541L254 542L253 541z"/>
<path style="fill:#d2c4b3; stroke:none;" d="M254 541L255 542L254 541M266 541L267 542L266 541z"/>
<path style="fill:#686765; stroke:none;" d="M296 542L296 543L331 542C322.971 538.631 304.313 539.543 296 542z"/>
<path style="fill:#d2c4b3; stroke:none;" d="M331 541L332 542L331 541M385.333 541.667L385.667 542.333L385.333 541.667M219 542L220 543L219 542z"/>
<path style="fill:#686765; stroke:none;" d="M220 542L221 543L220 542z"/>
<path style="fill:#d9a350; stroke:none;" d="M239 542L240 543L239 542M248 542L249 543L248 542z"/>
<path style="fill:#686765; stroke:none;" d="M256 542L257 543L256 542z"/>
<path style="fill:#d9a350; stroke:none;" d="M257 542L258 543L257 542z"/>
<path style="fill:#d2c4b3; stroke:none;" d="M258 542L258 543L262 543L258 542z"/>
<path style="fill:#d9a350; stroke:none;" d="M262 542L263 543L262 542z"/>
<path style="fill:#686765; stroke:none;" d="M263 542L264 543L263 542z"/>
<path style="fill:#d2c4b3; stroke:none;" d="M267 542L268 543L267 542z"/>
<path style="fill:#474747; stroke:none;" d="M296 543L296 545C302.666 546.97 329.555 549.367 332 542L296 543z"/>
<path style="fill:#d2c4b3; stroke:none;" d="M222 543L223 544L222 543z"/>
<path style="fill:#686765; stroke:none;" d="M223 543L224 544L223 543z"/>
<path style="fill:#d9a350; stroke:none;" d="M237 543L238 544L237 543z"/>
<path style="fill:#d2c4b3; stroke:none;" d="M249 543L250 544L249 543z"/>
<path style="fill:#686765; stroke:none;" d="M250 543L251 544L250 543M267 543L268 544L267 543z"/>
<path style="fill:#d2c4b3; stroke:none;" d="M295 543L296 544L295 543M332.333 543.667L332.667 544.333L332.333 543.667M169 544L170 545L169 544M226.667 544.333L227.333 544.667L226.667 544.333z"/>
<path style="fill:#d9a350; stroke:none;" d="M228 544L229 545L228 544z"/>
<path style="fill:#686765; stroke:none;" d="M229 544L229 545L233 545L229 544z"/>
<path style="fill:#d9a350; stroke:none;" d="M233 544L234 545L233 544z"/>
<path style="fill:#d2c4b3; stroke:none;" d="M234.667 544.333L235.333 544.667L234.667 544.333M251 544L252 545L251 544z"/>
<path style="fill:#686765; stroke:none;" d="M252 544L253 545L252 544z"/>
<path style="fill:#d2c4b3; stroke:none;" d="M191 545L192 546L191 545z"/>
<path style="fill:#686765; stroke:none;" d="M192.667 545.333L193.333 545.667L192.667 545.333z"/>
<path style="fill:#d2c4b3; stroke:none;" d="M194 545L195 546L194 545M254 545L255 546L254 545z"/>
<path style="fill:#d9a350; stroke:none;" d="M255 545L256 546L255 545z"/>
<path style="fill:#686765; stroke:none;" d="M256.667 545.333L257.333 545.667L256.667 545.333M262.667 545.333L263.333 545.667L262.667 545.333z"/>
<path style="fill:#d2c4b3; stroke:none;" d="M264.667 545.333L265.333 545.667L264.667 545.333z"/>
<path style="fill:#d9a350; stroke:none;" d="M296 545L297 546L296 545z"/>
<path style="fill:#686765; stroke:none;" d="M331 545L332 546L331 545z"/>
<path style="fill:#d2c4b3; stroke:none;" d="M384.333 545.667L384.667 546.333L384.333 545.667M188 546L189 547L188 546z"/>
<path style="fill:#686765; stroke:none;" d="M189 546L190 547L189 546z"/>
<path style="fill:#d2c4b3; stroke:none;" d="M297 546L297 547L331 547L297 546M170.333 547.667L170.667 548.333L170.333 547.667M185.667 547.333L186.333 547.667L185.667 547.333M195.333 547.667L195.667 548.333L195.333 547.667M183 548L184 549L183 548z"/>
<path style="fill:#686765; stroke:none;" d="M184 548L185 549L184 548M789 548L789 552L790 552L789 548M160 549L160 553L161 553L160 549z"/>
<path style="fill:#d2c4b3; stroke:none;" d="M180 549L181 550L180 549z"/>
<path style="fill:#686765; stroke:none;" d="M181 549L182 550L181 549M194 549L195 550L194 549z"/>
<path style="fill:#d2c4b3; stroke:none;" d="M383 549L384 550L383 549M171.333 550.667L171.667 551.333L171.333 550.667M177 550L178 551L177 550z"/>
<path style="fill:#d9a350; stroke:none;" d="M178 550L179 551L178 550z"/>
<path style="fill:#686765; stroke:none;" d="M192 550L193 551L192 550z"/>
<path style="fill:#d2c4b3; stroke:none;" d="M193 550L194 551L193 550M175 551L176 552L175 551z"/>
<path style="fill:#686765; stroke:none;" d="M176 551L177 552L176 551M189 551L190 552L189 551z"/>
<path style="fill:#d2c4b3; stroke:none;" d="M190 551L191 552L190 551M172 552L173 553L172 552z"/>
<path style="fill:#686765; stroke:none;" d="M173 552L174 553L173 552M186 552L187 553L186 552z"/>
<path style="fill:#d2c4b3; stroke:none;" d="M187 552L188 553L187 552M296 552L295 554L296 552z"/>
<path style="fill:#686765; stroke:none;" d="M297.667 552.333L298.333 552.667L297.667 552.333z"/>
<path style="fill:#d2c4b3; stroke:none;" d="M299 552L300 553L299 552M382 552L383 553L382 552z"/>
<path style="fill:#686765; stroke:none;" d="M170 553L171 554L170 553z"/>
<path style="fill:#d9a350; stroke:none;" d="M184 553L185 554L184 553z"/>
<path style="fill:#d2c4b3; stroke:none;" d="M185 553L186 554L185 553z"/>
<path style="fill:#474747; stroke:none;" d="M296 553C298.306 560.794 318.982 573.358 327 573C324.459 564.741 304.349 553.906 296 553z"/>
<path style="fill:#686765; stroke:none;" d="M300 553L301 554L300 553M167 554L168 555L167 554M181 554L182 555L181 554z"/>
<path style="fill:#d2c4b3; stroke:none;" d="M182 554L183 555L182 554z"/>
<path style="fill:#d9a350; stroke:none;" d="M295 554L296 555L295 554z"/>
<path style="fill:#d2c4b3; stroke:none;" d="M302 554L303 555L302 554z"/>
<path style="fill:#686765; stroke:none;" d="M164 555L165 556L164 555M178 555L179 556L178 555z"/>
<path style="fill:#d2c4b3; stroke:none;" d="M179 555L180 556L179 555M295 555L296 556L295 555z"/>
<path style="fill:#686765; stroke:none;" d="M303 555L304 556L303 555z"/>
<path style="fill:#d2c4b3; stroke:none;" d="M304 555L305 556L304 555M381 555L382 556L381 555z"/>
<path style="fill:#686765; stroke:none;" d="M161.667 556.333L162.333 556.667L161.667 556.333M175 556L176 557L175 556z"/>
<path style="fill:#d2c4b3; stroke:none;" d="M176 556L177 557L176 556z"/>
<path style="fill:#686765; stroke:none;" d="M296 556L297 557L296 556z"/>
<path style="fill:#d9a350; stroke:none;" d="M305 556L306 557L305 556z"/>
<path style="fill:#686765; stroke:none;" d="M173 557L174 558L173 557z"/>
<path style="fill:#d2c4b3; stroke:none;" d="M174 557L175 558L174 557M297 557L298 558L297 557M307 557L308 558L307 557M380 557L381 558L380 557z"/>
<path style="fill:#686765; stroke:none;" d="M788 557L788 560L789 560L788 557M170 558L171 559L170 558M299 558L300 559L299 558M308 558L309 559L308 558M168 559L169 560L168 559z"/>
<path style="fill:#d2c4b3; stroke:none;" d="M174 559L175 560L174 559M300 559L301 560L300 559z"/>
<path style="fill:#686765; stroke:none;" d="M301 559L302 560L301 559z"/>
<path style="fill:#d2c4b3; stroke:none;" d="M310 559L311 560L310 559z"/>
<path style="fill:#686765; stroke:none;" d="M165 560L166 561L165 560z"/>
<path style="fill:#d9a350; stroke:none;" d="M302 560L303 561L302 560z"/>
<path style="fill:#686765; stroke:none;" d="M311 560L312 561L311 560z"/>
<path style="fill:#d2c4b3; stroke:none;" d="M312 560L313 561L312 560M379 560L380 561L379 560M175 561L176 562L175 561M303 561L304 562L303 561z"/>
<path style="fill:#686765; stroke:none;" d="M304 561L305 562L304 561z"/>
<path style="fill:#d9a350; stroke:none;" d="M313 561L314 562L313 561z"/>
<path style="fill:#d2c4b3; stroke:none;" d="M305 562L306 563L305 562M315 562L316 563L315 562M378 562L379 563L378 562M176.333 563.667L176.667 564.333L176.333 563.667z"/>
<path style="fill:#686765; stroke:none;" d="M307 563L308 564L307 563M316 563L317 564L316 563M787 563L787 566L788 566L787 563M162.333 564.667L162.667 565.333L162.333 564.667z"/>
<path style="fill:#d2c4b3; stroke:none;" d="M308 564L309 565L308 564z"/>
<path style="fill:#686765; stroke:none;" d="M309 564L310 565L309 564z"/>
<path style="fill:#d2c4b3; stroke:none;" d="M318 564L319 565L318 564M310 565L311 566L310 565z"/>
<path style="fill:#686765; stroke:none;" d="M319 565L320 566L319 565z"/>
<path style="fill:#d2c4b3; stroke:none;" d="M320 565L321 566L320 565M177 566L178 567L177 566z"/>
<path style="fill:#686765; stroke:none;" d="M312 566L313 567L312 566z"/>
<path style="fill:#d9a350; stroke:none;" d="M321 566L322 567L321 566z"/>
<path style="fill:#d2c4b3; stroke:none;" d="M313 567L314 568L313 567M323 567L324 568L323 567M376 567L377 568L376 567M178 568L179 569L178 568z"/>
<path style="fill:#d9a350; stroke:none;" d="M315 568L316 569L315 568z"/>
<path style="fill:#686765; stroke:none;" d="M324 568L325 569L324 568M163 569L163 572L164 572L163 569z"/>
<path style="fill:#d2c4b3; stroke:none;" d="M316 569L317 570L316 569z"/>
<path style="fill:#686765; stroke:none;" d="M317 569L318 570L317 569z"/>
<path style="fill:#d2c4b3; stroke:none;" d="M326 569L327 570L326 569M375 569L376 570L375 569z"/>
<path style="fill:#686765; stroke:none;" d="M786.333 569.667L786.667 570.333L786.333 569.667z"/>
<path style="fill:#d2c4b3; stroke:none;" d="M179 570L180 571L179 570M318 570L319 571L318 570z"/>
<path style="fill:#686765; stroke:none;" d="M320 571L321 572L320 571z"/>
<path style="fill:#d2c4b3; stroke:none;" d="M327 571L328 572L327 571M374 571L375 572L374 571M180 572L181 573L180 572M321 572L322 573L321 572z"/>
<path style="fill:#d9a350; stroke:none;" d="M323 573L324 574L323 573z"/>
<path style="fill:#686765; stroke:none;" d="M325 573L326 574L325 573z"/>
<path style="fill:#d2c4b3; stroke:none;" d="M326 573L327 574L326 573M373 573L374 574L373 573z"/>
<path style="fill:#686765; stroke:none;" d="M164.333 574.667L164.667 575.333L164.333 574.667z"/>
<path style="fill:#d2c4b3; stroke:none;" d="M181 574L182 575L181 574M372 574L373 575L372 574z"/>
<path style="fill:#686765; stroke:none;" d="M785.333 574.667L785.667 575.333L785.333 574.667z"/>
<path style="fill:#d2c4b3; stroke:none;" d="M182 575L183 576L182 575M371 576L372 577L371 576M183 577L184 578L183 577z"/>
<path style="fill:#686765; stroke:none;" d="M165.333 578.667L165.667 579.333L165.333 578.667z"/>
<path style="fill:#d2c4b3; stroke:none;" d="M370 578L371 579L370 578z"/>
<path style="fill:#686765; stroke:none;" d="M784.333 578.667L784.667 579.333L784.333 578.667z"/>
<path style="fill:#d2c4b3; stroke:none;" d="M184 579L185 580L184 579M185 580L186 581L185 580M368 581L369 582L368 581z"/>
<path style="fill:#686765; stroke:none;" d="M166.333 582.667L166.667 583.333L166.333 582.667z"/>
<path style="fill:#d2c4b3; stroke:none;" d="M186 582L187 583L186 582z"/>
<path style="fill:#686765; stroke:none;" d="M783.333 582.667L783.667 583.333L783.333 582.667z"/>
<path style="fill:#d2c4b3; stroke:none;" d="M366 584L367 585L366 584M188 585L189 586L188 585z"/>
<path style="fill:#686765; stroke:none;" d="M167.333 586.667L167.667 587.333L167.333 586.667z"/>
<path style="fill:#d2c4b3; stroke:none;" d="M189 586L190 587L189 586z"/>
<path style="fill:#686765; stroke:none;" d="M782 586L783 587L782 586z"/>
<path style="fill:#d2c4b3; stroke:none;" d="M364 587L365 588L364 587M190 588L191 589L190 588M363 588L364 589L363 588M191 589L192 590L191 589z"/>
<path style="fill:#686765; stroke:none;" d="M781.333 589.667L781.667 590.333L781.333 589.667M168 590L169 591L168 590z"/>
<path style="fill:#d2c4b3; stroke:none;" d="M361 591L362 592L361 591M360 592L361 593L360 592z"/>
<path style="fill:#686765; stroke:none;" d="M169 593L170 594L169 593z"/>
<path style="fill:#d2c4b3; stroke:none;" d="M194 593L195 594L194 593z"/>
<path style="fill:#686765; stroke:none;" d="M780 593L781 594L780 593z"/>
<path style="fill:#d2c4b3; stroke:none;" d="M195 594L196 595L195 594M196 595L197 596L196 595z"/>
<path style="fill:#686765; stroke:none;" d="M170 596L171 597L170 596z"/>
<path style="fill:#d2c4b3; stroke:none;" d="M357 596L358 597L357 596z"/>
<path style="fill:#686765; stroke:none;" d="M779 596L780 597L779 596z"/>
<path style="fill:#d2c4b3; stroke:none;" d="M356 597L357 598L356 597M355 598L356 599L355 598z"/>
<path style="fill:#686765; stroke:none;" d="M171 599L172 600L171 599z"/>
<path style="fill:#d2c4b3; stroke:none;" d="M354 599L355 600L354 599z"/>
<path style="fill:#686765; stroke:none;" d="M778 599L779 600L778 599z"/>
<path style="fill:#d2c4b3; stroke:none;" d="M200 600L201 601L200 600M353 600L354 601L353 600M201 601L202 602L201 601M352 601L353 602L352 601z"/>
<path style="fill:#686765; stroke:none;" d="M172 602L173 603L172 602z"/>
<path style="fill:#d2c4b3; stroke:none;" d="M202 602L203 603L202 602M351 602L352 603L351 602z"/>
<path style="fill:#686765; stroke:none;" d="M777 602L778 603L777 602z"/>
<path style="fill:#d2c4b3; stroke:none;" d="M203 603L204 604L203 603M350 603L351 604L350 603M204 604L205 605L204 604M349 604L350 605L349 604z"/>
<path style="fill:#686765; stroke:none;" d="M776.333 604.667L776.667 605.333L776.333 604.667M173 605L174 606L173 605z"/>
<path style="fill:#d2c4b3; stroke:none;" d="M348 605L349 606L348 605M347 606L348 607L347 606z"/>
<path style="fill:#686765; stroke:none;" d="M174 607L175 608L174 607z"/>
<path style="fill:#d2c4b3; stroke:none;" d="M346 607L347 608L346 607z"/>
<path style="fill:#686765; stroke:none;" d="M775 607L776 608L775 607z"/>
<path style="fill:#d2c4b3; stroke:none;" d="M345 608L346 609L345 608M210 609L211 610L210 609z"/>
<path style="fill:#686765; stroke:none;" d="M175 610L176 611L175 610z"/>
<path style="fill:#d2c4b3; stroke:none;" d="M211 610L212 611L211 610z"/>
<path style="fill:#686765; stroke:none;" d="M774 610L775 611L774 610z"/>
<path style="fill:#d2c4b3; stroke:none;" d="M212 611L213 612L212 611M341 611L342 612L341 611z"/>
<path style="fill:#686765; stroke:none;" d="M176 612L177 613L176 612z"/>
<path style="fill:#d2c4b3; stroke:none;" d="M340 612L341 613L340 612z"/>
<path style="fill:#686765; stroke:none;" d="M773 612L774 613L773 612z"/>
<path style="fill:#d2c4b3; stroke:none;" d="M215 613L216 614L215 613M216 614L217 615L216 614M337 614L338 615L337 614z"/>
<path style="fill:#686765; stroke:none;" d="M772 614L773 615L772 614M177 615L178 616L177 615z"/>
<path style="fill:#d2c4b3; stroke:none;" d="M218 615L219 616L218 615M336 615L337 616L336 615M219 616L220 617L219 616M334 616L335 617L334 616z"/>
<path style="fill:#686765; stroke:none;" d="M178 617L179 618L178 617z"/>
<path style="fill:#d2c4b3; stroke:none;" d="M333 617L334 618L333 617z"/>
<path style="fill:#686765; stroke:none;" d="M771 617L772 618L771 617z"/>
<path style="fill:#d2c4b3; stroke:none;" d="M222 618L223 619L222 618M331 618L332 619L331 618z"/>
<path style="fill:#686765; stroke:none;" d="M179 619L180 620L179 619z"/>
<path style="fill:#d2c4b3; stroke:none;" d="M224 619L225 620L224 619M330 619L331 620L330 619z"/>
<path style="fill:#686765; stroke:none;" d="M770 619L771 620L770 619z"/>
<path style="fill:#d2c4b3; stroke:none;" d="M328 620L329 621L328 620z"/>
<path style="fill:#686765; stroke:none;" d="M180 621L181 622L180 621z"/>
<path style="fill:#d2c4b3; stroke:none;" d="M227 621L228 622L227 621M326 621L327 622L326 621z"/>
<path style="fill:#686765; stroke:none;" d="M769 621L770 622L769 621z"/>
<path style="fill:#d2c4b3; stroke:none;" d="M229 622L230 623L229 622M324 622L325 623L324 622z"/>
<path style="fill:#686765; stroke:none;" d="M181 623L182 624L181 623z"/>
<path style="fill:#d2c4b3; stroke:none;" d="M231 623L232 624L231 623M322 623L323 624L322 623z"/>
<path style="fill:#686765; stroke:none;" d="M768 623L769 624L768 623z"/>
<path style="fill:#d2c4b3; stroke:none;" d="M233 624L234 625L233 624M320 624L321 625L320 624z"/>
<path style="fill:#686765; stroke:none;" d="M182 625L183 626L182 625z"/>
<path style="fill:#d2c4b3; stroke:none;" d="M235 625L236 626L235 625M318 625L319 626L318 625z"/>
<path style="fill:#686765; stroke:none;" d="M767 625L768 626L767 625z"/>
<path style="fill:#d2c4b3; stroke:none;" d="M237.667 626.333L238.333 626.667L237.667 626.333M316 626L317 627L316 626z"/>
<path style="fill:#686765; stroke:none;" d="M183 627L184 628L183 627z"/>
<path style="fill:#d2c4b3; stroke:none;" d="M240 627L241 628L240 627M313.667 627.333L314.333 627.667L313.667 627.333z"/>
<path style="fill:#686765; stroke:none;" d="M766 627L767 628L766 627z"/>
<path style="fill:#d2c4b3; stroke:none;" d="M242.667 628.333L243.333 628.667L242.667 628.333M311 628L312 629L311 628z"/>
<path style="fill:#686765; stroke:none;" d="M184 629L185 630L184 629z"/>
<path style="fill:#d2c4b3; stroke:none;" d="M245.667 629.333L246.333 629.667L245.667 629.333M308 629L309 630L308 629z"/>
<path style="fill:#686765; stroke:none;" d="M765 629L766 630L765 629z"/>
<path style="fill:#d2c4b3; stroke:none;" d="M249 630L250 631L249 630M304.667 630.333L305.333 630.667L304.667 630.333z"/>
<path style="fill:#686765; stroke:none;" d="M185 631L186 632L185 631z"/>
<path style="fill:#d2c4b3; stroke:none;" d="M252.667 631.333L253.333 631.667L252.667 631.333M301 631L302 632L301 631z"/>
<path style="fill:#686765; stroke:none;" d="M764 631L765 632L764 631z"/>
<path style="fill:#d2c4b3; stroke:none;" d="M256 632L256 633L259 633L256 632M296.667 632.333L297.333 632.667L296.667 632.333z"/>
<path style="fill:#686765; stroke:none;" d="M186 633L187 634L186 633z"/>
<path style="fill:#d2c4b3; stroke:none;" d="M262 633L262 634L265 634L262 633M290 633L290 634L293 634L290 633z"/>
<path style="fill:#686765; stroke:none;" d="M763 633L764 634L763 633z"/>
<path style="fill:#d2c4b3; stroke:none;" d="M271 634L271 635L283 635L271 634z"/>
<path style="fill:#686765; stroke:none;" d="M187 635L188 636L187 635M762 635L763 636L762 635M188 637L189 638L188 637M760 638L761 639L760 638M190 640L191 641L190 640M759 640L760 641L759 640M191 642L192 643L191 642M758 642L759 643L758 642M757 643L758 644L757 643M193 645L194 646L193 645M756 645L757 646L756 645M194 647L195 648L194 647M195 648L196 649L195 648M754 648L755 649L754 648M196 650L197 651L196 650M753 650L754 651L753 650M197 651L198 652L197 651M752 651L753 652L752 651M198 653L199 654L198 653M751 653L752 654L751 653M199 654L200 655L199 654M750 654L751 655L750 654M200 656L201 657L200 656M201 657L202 658L201 657M748 657L749 658L748 657M747 658L748 659L747 658M203 660L204 661L203 660M746 660L747 661L746 660M204 661L205 662L204 661M745 661L746 662L745 661M206 664L207 665L206 664M743 664L744 665L743 664M207 665L208 666L207 665M742 665L743 666L742 665M741 666L742 667L741 666M209 668L210 669L209 668M210 669L211 670L210 669M739 669L740 670L739 669M211 670L212 671L211 670M738 670L739 671L738 670M737 671L738 672L737 671M214 674L215 675L214 674M215 675L216 676L215 675M734 675L735 676L734 675M216 676L217 677L216 676M733 676L734 677L733 676M217 677L218 678L217 677M732 677L733 678L732 677M218 678L219 679L218 678M731 678L732 679L731 678M730 679L731 680L730 679M224 685L225 686L224 685M225 686L226 687L225 686M226 687L227 688L226 687M227 688L228 689L227 688M228 689L229 690L228 689M229 690L230 691L229 690M230 691L231 692L230 691M713 696L714 697L713 696M237 697L238 698L237 697M712 697L713 698L712 697M238 698L239 699L238 698M711 698L712 699L711 698M239 699L240 700L239 699M710 699L711 700L710 699M240 700L241 701L240 700M709 700L710 701L709 700M244 703L245 704L244 703M705 703L706 704L705 703M245 704L246 705L245 704M704 704L705 705L704 704M246 705L247 706L246 705M703 705L704 706L703 705M249 707L250 708L249 707M700 707L701 708L700 707M250 708L251 709L250 708M699 708L700 709L699 708M251 709L252 710L251 709M698 709L699 710L698 709M254 711L255 712L254 711M695 711L696 712L695 711M255 712L256 713L255 712M694 712L695 713L694 712M692 713L693 714L692 713M258 714L259 715L258 714M691 714L692 715L691 714M261 716L262 717L261 716M688 716L689 717L688 716M262 717L263 718L262 717M687 717L688 718L687 717M264 718L265 719L264 718M685 718L686 719L685 718M265 719L266 720L265 719M684 719L685 720L684 719M267 720L268 721L267 720M682 720L683 721L682 720M268 721L269 722L268 721M681 721L682 722L681 721M270 722L271 723L270 722M679 722L680 723L679 722M271 723L272 724L271 723M273 724L274 725L273 724M676 724L677 725L676 724M275 725L276 726L275 725M674 725L675 726L674 725M276 726L277 727L276 726M673 726L674 727L673 726M278 727L279 728L278 727M671 727L672 728L671 727M280 728L281 729L280 728M669 728L670 729L669 728M667 729L668 730L667 729M283 730L284 731L283 730M666 730L667 731L666 730M285 731L286 732L285 731M664 731L665 732L664 731M287 732L288 733L287 732M662 732L663 733L662 732M289 733L290 734L289 733M660 733L661 734L660 733M291 734L292 735L291 734M658 734L659 735L658 734M293 735L294 736L293 735M656 735L657 736L656 735M295 736L296 737L295 736M654 736L655 737L654 736M297 737L298 738L297 737M652 737L653 738L652 737M299 738L300 739L299 738M650 738L651 739L650 738M301 739L302 740L301 739M648 739L649 740L648 739M303 740L304 741L303 740M646 740L647 741L646 740M306 741L307 742L306 741M643 741L644 742L643 741M308 742L309 743L308 742M641 742L642 743L641 742M310 743L311 744L310 743M638.667 743.333L639.333 743.667L638.667 743.333M313 744L314 745L313 744M636 744L637 745L636 744M315 745L316 746L315 745M633.667 745.333L634.333 745.667L633.667 745.333M318 746L319 747L318 746M631 746L632 747L631 746M321 747L322 748L321 747M628 747L629 748L628 747M323.667 748.333L324.333 748.667L323.667 748.333M625.667 748.333L626.333 748.667L625.667 748.333M326.667 749.333L327.333 749.667L326.667 749.333M622.667 749.333L623.333 749.667L622.667 749.333M329.667 750.333L330.333 750.667L329.667 750.333M619.667 750.333L620.333 750.667L619.667 750.333M332.667 751.333L333.333 751.667L332.667 751.333M618 751C618 761.877 621.497 780.123 616.682 790C610.824 802.016 595.176 802.016 589.318 790C585.361 781.883 588 767.892 588 759L587 759L587 786C584.466 785.8 580.832 784.605 578.418 785.643C574.689 787.246 573.467 793.774 569.957 796.348C559.549 803.979 547.676 795.135 546 784L442 784C439.026 803.054 415.434 803.443 411 785L401 785L401 764L411 764L411 763L400 763C400 772.037 402.602 785.496 396.606 792.981C387.763 804.021 371.5 798.808 370 785L369 785C361.786 790.472 345.842 788.481 337 789.089C312.341 790.788 287.271 793.544 263 798.4C254.128 800.174 236.012 801.867 230.623 810.105C224.662 819.217 247.626 824.076 253 825.346C280.827 831.921 309.639 834.129 338 836.83C407.52 843.451 479.192 844.096 549 841.039C584.672 839.477 620.478 839.92 656 835.714C680.485 832.816 704.863 830.589 729 825.207C735.014 823.866 750.584 821.226 752.248 813.961C754.42 804.483 729.038 800.497 723 799.211C698.199 793.929 673.028 792.711 648 789.424C641.057 788.513 627.11 790.837 621.318 786.972C618.263 784.934 619.001 780.15 619 777C618.997 769.254 621.005 758.162 618 751M336 752L337 753L336 752M339.667 753.333L340.333 753.667L339.667 753.333M343 754L344 755L343 754M346.667 755.333L347.333 755.667L346.667 755.333M351 756L352 757L351 756M355.667 757.333L356.333 757.667L355.667 757.333M360.667 758.333L361.333 758.667L360.667 758.333M365.667 759.333L366.333 759.667L365.667 759.333M582 759L582 760L585 760L582 759z"/>
<path style="fill:#474747; stroke:none;" d="M577 785L587 786L587 759C573.119 761.617 577 772.985 577 785z"/>
<path style="fill:#686765; stroke:none;" d="M577.667 760.333L578.333 760.667L577.667 760.333M442 763L442 764L546 764L514 763L442 763z"/>
<path style="fill:#474747; stroke:none;" d="M401 764L401 785L411 785L411 764L401 764M442 764L442 784L546 784L546 764L442 764z"/>
</svg>
