<?xml version="1.0" standalone="yes"?>
<svg xmlns="http://www.w3.org/2000/svg" width="1024" height="1024">
<path style="fill:#abc713; stroke:none;" d="M0 0L0 1024L1024 1024L1024 0L0 0z"/>
<path style="fill:#d7d191; stroke:none;" d="M531 422L531 423L560 428L568 432C582.509 432.783 603.061 446.908 610.532 459C613.744 464.199 616.141 470.193 618.005 475.999C618.515 477.586 619.759 481.793 616.732 481.793C613.134 481.793 609.313 476.269 607 474.015C600.823 467.994 593.585 462.454 586 458.312C563.608 446.085 529.443 437 504 437L505 439C493.649 439.896 487.422 435.505 501 429.312C510.526 424.968 519.584 423 530 423C520.276 418.919 505.842 423.735 497 428.274C493.63 430.004 486.268 434.924 490.608 439.397C495.346 444.279 513.151 439.061 520 440.25C542.777 444.206 572.02 450.404 591 464.158C597.148 468.614 610.061 485.855 617.852 484.573C622.538 483.802 620.764 476.93 619.757 474C616.561 464.705 611.978 455.201 604.829 448.289C586.11 430.191 556.396 422 531 422z"/>
<path style="fill:#ede7e0; stroke:none;" d="M505 439L504 437C529.007 437 563.018 446.31 585 458.312C593.027 462.695 600.507 468.601 607 475.004C609.412 477.382 612.984 482.364 616.768 482.364C620.258 482.364 619.097 477.951 618.43 475.999C616.337 469.877 613.944 463.523 610.532 458C603.129 446.017 582.344 432.345 568 432C567.354 427.651 555.991 426.103 552 425.13C539.392 422.055 523.49 420.892 511 425.06C505.519 426.889 498.614 428.858 494.083 432.565C488.213 437.368 493.751 440.347 499 439.866C501.009 439.681 502.997 439.238 505 439z"/>
<path style="fill:#849c2b; stroke:none;" d="M793.667 437.333L794.333 437.667L793.667 437.333z"/>
<path style="fill:#8a5d14; stroke:none;" d="M794.804 437.692C780.965 441.119 780.71 471.117 796.91 466.431C809.69 462.733 809.92 433.949 794.804 437.692z"/>
<path style="fill:#849c2b; stroke:none;" d="M796 437L797 438L796 437M799 437L799 438L802 439L799 437M791 438L788 442L791 438z"/>
<path style="fill:#d7d191; stroke:none;" d="M800 438L801 439L800 438z"/>
<path style="fill:#ede7e0; stroke:none;" d="M791 439L792 440L791 439z"/>
<path style="fill:#849c2b; stroke:none;" d="M802 439L804 441L804 439L802 439M804 441L805 442L804 441z"/>
<path style="fill:#d7d191; stroke:none;" d="M543 442L544 443L543 442z"/>
<path style="fill:#849c2b; stroke:none;" d="M787 442L786 445L787 445L787 442M805.333 442.667L805.667 443.333L805.333 442.667z"/>
<path style="fill:#d7d191; stroke:none;" d="M787 443L788 444L787 443z"/>
<path style="fill:#849c2b; stroke:none;" d="M785.333 445.667L785.667 446.333L785.333 445.667M806 445L806 448L807 448L806 445M813 472L814 472C812.247 465.76 811.136 460.003 814.417 454.001C822.305 439.573 833.464 449.743 834 462C836.898 454.895 831.55 444.11 823.001 445.243C811.017 446.832 809.266 463.151 813 472z"/>
<path style="fill:#8a5d14; stroke:none;" d="M821.015 446.859C808.729 451.88 809.059 481.381 824.961 475.106C837.489 470.161 835.82 440.808 821.015 446.859z"/>
<path style="fill:#849c2b; stroke:none;" d="M784 447L784 461L785 461L784 447z"/>
<path style="fill:#ede7e0; stroke:none;" d="M819 447L820 448L819 447z"/>
<path style="fill:#d7d191; stroke:none;" d="M504 449.465C496.732 450.714 487.056 452.088 481.001 456.499C460.971 471.091 477.887 495.911 492 507.381C511.855 523.517 538.153 529.796 563 532.17C572.486 533.076 583.598 534.489 593 532.319C607.078 529.071 616.41 513.869 611.451 500C608.959 493.028 603.165 488.051 598 483.015C579.131 464.615 552.488 456.485 527 452.728C519.562 451.632 511.525 448.171 504 449.465z"/>
<path style="fill:#ede7e0; stroke:none;" d="M580 474C578.85 469.105 572.529 467.388 568 468C567.563 464.714 565.042 464.699 562 465C558.731 460.224 551.399 459.439 546 460C545.389 456.135 530.032 454.782 526 454.259C509.946 452.178 479.975 447.363 473.898 469C470.014 482.827 483.937 498.508 494 506.12C515.762 522.582 546.264 530 573 530C583.077 530 591.945 531.919 600.995 526.528C623.123 513.347 599.292 476.048 580 474z"/>
<path style="fill:#d7d191; stroke:none;" d="M815 451L816 452L815 451M832 452L833 453L832 452z"/>
<path style="fill:#849c2b; stroke:none;" d="M806 453L805 459L806 459L806 453M779 476L778 476C764.716 498.776 745.388 463.834 768 455C749.081 450.647 754.407 500.701 774.811 482.607C776.925 480.733 778.004 478.563 779 476z"/>
<path style="fill:#8a5d14; stroke:none;" d="M767.715 454.717C753.704 457.621 753.126 487.381 768.999 484.424C783.708 481.684 783.024 451.544 767.715 454.717z"/>
<path style="fill:#849c2b; stroke:none;" d="M769 454L770 455L769 454M771 454L771 455L775 456L775 455L771 454z"/>
<path style="fill:#d7d191; stroke:none;" d="M773 455L774 456L773 455z"/>
<path style="fill:#849c2b; stroke:none;" d="M775 456L779 464L780 464L775 456z"/>
<path style="fill:#d7d191; stroke:none;" d="M805 456L806 457L805 456M217 482L216 482L215 489L185 489L185 460L320 460C312.003 481.513 281.078 485.82 271 507L286 506L286 505L274 505L286 496L287 505L288 505L288 496L320 496C320 503.887 322.738 522.787 314 526L314 527C324.3 525.825 326.491 501.996 319.566 495.564C312.847 489.323 296.288 494 288 494C294.189 485.207 306.197 480.87 313.996 472.999C316.802 470.167 322.015 465.76 320.353 461.147C317.502 453.238 297.18 458 291 458L211 458C204.692 458 187.973 455.028 184.179 461.228C180.772 466.796 179.951 485.948 186.228 489.822C194.807 495.115 216.343 493.966 217 482M373 526L373 525C359.06 523.861 343.9 518.158 334.093 507.961C322.454 495.857 326.909 479.075 341 471.313C370.963 454.808 403.881 461.621 436 463L435 465C446.533 465.104 459.911 472.684 465.431 483C470.001 491.539 469.457 504.165 460 509C460 512.555 455.151 513.751 452 514L446.333 517.5L420 525C424.889 526.908 432.064 524.805 437 523.421C451.365 519.391 469.709 512.37 470.787 495C471.843 477.983 455.356 467.026 441 462.91C416.633 455.923 390.474 456.627 366 461.551C355.731 463.617 345.729 464.486 337.004 470.927C333.623 473.423 330.823 476.468 328.549 480C310.198 508.499 350.326 525.532 373 526M812 458L813 459L812 458M777 459L778 460L777 459z"/>
<path style="fill:#ede7e0; stroke:none;" d="M185 460L185 489L215 489C216.189 477.476 225.595 477.254 235 479C223.797 490.609 209.431 502.648 195 510L196 512L193 515C187.865 516.473 185.507 520.503 183 525C214.786 530.901 251.656 525.998 284 526C292.298 526 310.621 531.012 317.397 524.911C322.435 520.374 320 502.365 320 496L288 496L288 505L271 507C279.045 495.221 290.528 487.324 302 479.141C309.642 473.691 317.543 469.72 320 460L185 460M452 514C455.683 513.6 459.127 512.884 460 509C470.184 505.866 469.438 492.016 466.337 484C461.824 472.334 446.846 465.034 435 465L436 463C420.194 461.938 404.956 460 389 460C378.804 460 367.889 461.526 358 464.144C348.571 466.639 336.496 470.881 330.495 479.005C320.118 493.053 331.781 509.124 344 516.389C365.076 528.919 392.556 527.764 416 526C425.08 525.317 435.32 522.38 443.866 519.222C446.794 518.14 451.574 517.083 452 514z"/>
<path style="fill:#849c2b; stroke:none;" d="M804 460L805 461L804 460z"/>
<path style="fill:#ede7e0; stroke:none;" d="M778 461L779 462L778 461z"/>
<path style="fill:#849c2b; stroke:none;" d="M785.333 461.667L785.667 462.333L785.333 461.667M803.333 461.667L803.667 462.333L803.333 461.667z"/>
<path style="fill:#d7d191; stroke:none;" d="M833 462L834 463L833 462z"/>
<path style="fill:#849c2b; stroke:none;" d="M786 463L787 464L786 463M800 466L803 463L800 466M833 463L833 466L834 466L833 463z"/>
<path style="fill:#d7d191; stroke:none;" d="M779 464L780 465L779 464z"/>
<path style="fill:#849c2b; stroke:none;" d="M787 464L788 465L787 464z"/>
<path style="fill:#d7d191; stroke:none;" d="M800 464L801 465L800 464z"/>
<path style="fill:#849c2b; stroke:none;" d="M780 465L780 472L781 472L780 465M788 465L789 466L788 465M789 466L790 467L789 466M791 467L791 468L800 467L791 467z"/>
<path style="fill:#ede7e0; stroke:none;" d="M757 467L758 468L757 467z"/>
<path style="fill:#849c2b; stroke:none;" d="M832.333 467.667L832.667 468.333L832.333 467.667M831 469L829 473L831 469z"/>
<path style="fill:#d7d191; stroke:none;" d="M574.667 470.333L575.333 470.667L574.667 470.333M779 471L780 472L779 471z"/>
<path style="fill:#849c2b; stroke:none;" d="M779.333 473.667L779.667 474.333L779.333 473.667M814 473L815 474L814 473M828 473L829 474L828 473M815 474L816 475L815 474M827 474L828 475L827 474M850 493L849 493C840.921 516.761 815.852 491.489 834.093 477.804C836.552 475.96 839.023 475.323 842 475C817.804 465.583 825.443 523.359 846.467 500.671C848.563 498.409 849.431 495.941 850 493z"/>
<path style="fill:#d7d191; stroke:none;" d="M757 475L758 476L757 475z"/>
<path style="fill:#849c2b; stroke:none;" d="M762 501L763 501C768.395 493.405 776.306 490.223 784 485.536C796.429 477.965 807.082 470.392 814 489C815.678 480.855 806.525 474.079 799 475.214C793.918 475.981 790.062 479.731 786 482.561C778.161 488.024 765.389 491.242 762 501M816.667 475.333L817.333 475.667L816.667 475.333z"/>
<path style="fill:#ede7e0; stroke:none;" d="M824 475L825 476L824 475z"/>
<path style="fill:#849c2b; stroke:none;" d="M825.667 475.333L826.333 475.667L825.667 475.333z"/>
<path style="fill:#8a5d14; stroke:none;" d="M837.004 475.904C823.519 479.611 824.762 507.859 840 503.482C853.67 499.556 853.191 471.453 837.004 475.904z"/>
<path style="fill:#d7d191; stroke:none;" d="M838 475L838 476L841 476L838 475z"/>
<path style="fill:#849c2b; stroke:none;" d="M843 475L846 477L843 475z"/>
<path style="fill:#d7d191; stroke:none;" d="M531 502L531 501C520.019 493.884 526.42 481.142 537 478C526.682 472.054 516.638 497.238 531 502z"/>
<path style="fill:#8a5d14; stroke:none;" d="M797.039 476.765C787.703 479.902 769.216 490.914 763.713 499.093C759.792 504.923 759.209 514.479 765.189 519.08C772.697 524.858 781.462 517.37 790 519.988C799.826 523.002 805.777 534.76 816.985 530.438C834.222 523.791 821.645 505.433 816.934 495C814.658 489.959 813.216 484.311 809.511 480.055C806.274 476.336 801.738 475.186 797.039 476.765z"/>
<path style="fill:#ede7e0; stroke:none;" d="M804 476L805 477L804 476z"/>
<path style="fill:#849c2b; stroke:none;" d="M818 476L818 477L825 477L818 476z"/>
<path style="fill:#abc713; stroke:none;" d="M547 480C547.579 484.3 549.209 488.62 548.88 493C547.798 507.409 527.923 500.525 537.417 488.005C539.272 485.559 541.524 483.749 544 482C540.531 471.019 525.225 481.722 525.083 490C524.602 518.151 576.684 504.652 554.001 484.85C551.723 482.861 549.725 481.269 547 480z"/>
<path style="fill:#d7d191; stroke:none;" d="M541 477L541 478L544 482C541.717 483.068 539.936 484.127 538.22 486.059C525.473 500.406 550.22 509.256 548.909 490C548.678 486.61 547.684 483.316 547 480L560 490C557.067 481.374 549.609 477.686 541 477z"/>
<path style="fill:#849c2b; stroke:none;" d="M846 477L847 478L846 477z"/>
<path style="fill:#d7d191; stroke:none;" d="M219 479L219 480L231 480L218 494C224.939 491.062 230.765 485.143 235 479L219 479M377 490L389 480.995L403 479C392.413 474.557 381.95 480.756 377 490z"/>
<path style="fill:#849c2b; stroke:none;" d="M847 478L848 479L847 478z"/>
<path style="fill:#abc713; stroke:none;" d="M394 479.479C370.684 482.205 378.845 509.207 399 506.496C423.578 503.19 415.998 476.908 394 479.479z"/>
<path style="fill:#ede7e0; stroke:none;" d="M792 479L793 480L792 479z"/>
<path style="fill:#849c2b; stroke:none;" d="M848.333 479.667L848.667 480.333L848.333 479.667z"/>
<path style="fill:#d7d191; stroke:none;" d="M217 480L218 481L217 480M403.667 480.333L404.333 480.667L403.667 480.333M406 481L406 482L409 483L406 481M555 481L556 482L555 481M810 481L811 482L810 481z"/>
<path style="fill:#849c2b; stroke:none;" d="M849.333 481.667L849.667 482.333L849.333 481.667z"/>
<path style="fill:#d7d191; stroke:none;" d="M788 482L789 483L788 482M762 483L763 484L762 483M411 484L412 485L411 484M412 485L412 486L415 487L415 484L412 485M558 484L559 485L558 484M769 484L770 485L769 484M828 484L829 485L828 484z"/>
<path style="fill:#849c2b; stroke:none;" d="M850 484L849 492L850 484z"/>
<path style="fill:#ede7e0; stroke:none;" d="M413 485L414 486L413 485M812 485L813 486L812 485z"/>
<path style="fill:#d7d191; stroke:none;" d="M849 485L850 486L849 485M415.333 489.667L415.667 490.333L415.333 489.667M827 489L828 490L827 489M560 490L561 491L560 490z"/>
<path style="fill:#849c2b; stroke:none;" d="M815 490L816 494L817 494L815 490z"/>
<path style="fill:#ede7e0; stroke:none;" d="M827.333 490.667L827.667 491.333L827.333 490.667M849 490L850 491L849 490z"/>
<path style="fill:#d7d191; stroke:none;" d="M377 491L378 492L377 491M815 492L816 493L815 492M416 493L416 496L417 496L416 493M217 494L218 495L217 494M378 494L379 495L378 494M561 494C557.072 500.628 553.444 504.497 546 507L546 508L559 504L562 501L562 500L560 499L561 494z"/>
<path style="fill:#849c2b; stroke:none;" d="M817 494L817 497L818 497L817 494z"/>
<path style="fill:#d7d191; stroke:none;" d="M215.667 495.333L216.333 495.667L215.667 495.333z"/>
<path style="fill:#ede7e0; stroke:none;" d="M767 495L768 496L767 495z"/>
<path style="fill:#d7d191; stroke:none;" d="M214 496L215 497L214 496z"/>
<path style="fill:#abc713; stroke:none;" d="M274 505L286 505L286 496L274 505z"/>
<path style="fill:#d7d191; stroke:none;" d="M379 496L380 497L379 496M213 497L214 498L213 497M415 497L413 501L415 497z"/>
<path style="fill:#849c2b; stroke:none;" d="M690 507L691 507C697.968 486.572 723.52 514.771 706 528C710.878 528.104 713.205 522.318 713.66 518C715.167 503.672 694.018 487.1 690 507M818.333 497.667L818.667 498.333L818.333 497.667z"/>
<path style="fill:#d7d191; stroke:none;" d="M211 498L212 499L211 498M380 498L381 499L380 498z"/>
<path style="fill:#8a5d14; stroke:none;" d="M698.04 498.663C683.464 501.565 691.035 530.54 704.91 528.261C719.076 525.934 711.83 495.917 698.04 498.663z"/>
<path style="fill:#d7d191; stroke:none;" d="M210 499L211 500L210 499M381 499L382 500L381 499z"/>
<path style="fill:#849c2b; stroke:none;" d="M819 499L821 502L819 499z"/>
<path style="fill:#d7d191; stroke:none;" d="M208 500L209 501L208 500M382 500L383 501L382 500M830 500L831 501L830 500M207 501L208 502L207 501M381 501L382 502L381 501M383 501L384 502L383 501M412 501L413 502L412 501z"/>
<path style="fill:#ede7e0; stroke:none;" d="M693 501L694 502L693 501M831 501L832 502L831 501z"/>
<path style="fill:#d7d191; stroke:none;" d="M384 502L385 503L384 502M409 504L412 502L409 504M532 502L533 503L532 502z"/>
<path style="fill:#849c2b; stroke:none;" d="M662 510L663 510C664.444 508 665.811 506.043 668.018 504.778C688.438 493.074 687.768 548.904 667.468 528.66C665.235 526.433 663.973 523.932 663 521C659.816 532.996 681.323 539.263 684.606 525C687.81 511.076 668.571 491.124 662 510M761 502L761 505L762 505L761 502M821.333 502.667L821.667 503.333L821.333 502.667z"/>
<path style="fill:#d7d191; stroke:none;" d="M842 502L843 503L842 502M204 503L205 504L204 503M382.667 503.333L383.333 503.667L382.667 503.333M386 503L387 504L386 503M534 503L535 504L534 503z"/>
<path style="fill:#8a5d14; stroke:none;" d="M669.004 503.898C655.053 508.915 663.457 537.246 677.815 532.131C690.609 527.574 682.383 499.087 669.004 503.898z"/>
<path style="fill:#d7d191; stroke:none;" d="M387.667 504.333L388.333 504.667L387.667 504.333M399 506L399 507L409 504L399 506M535.667 504.333L536.333 504.667L535.667 504.333M667 504L668 505L667 504z"/>
<path style="fill:#849c2b; stroke:none;" d="M822 504L824 509L825 509L822 504z"/>
<path style="fill:#d7d191; stroke:none;" d="M201 505L202 506L201 505M390 505L391 506L390 505M535 506L535 507L539 506L535 506z"/>
<path style="fill:#849c2b; stroke:none;" d="M760 505L760 509L761 509L760 505z"/>
<path style="fill:#d7d191; stroke:none;" d="M388.667 506.333L389.333 506.667L388.667 506.333M392 506L392 507L395 507L392 506M539.667 506.333L540.333 506.667L539.667 506.333M198 507L199 508L198 507M542.333 507.667L542.667 508.333L542.333 507.667M823 507L824 508L823 507M197 508L196 510L198 510L197 508M394 509L394 510L397 510L394 509M544 509L545 510L544 509z"/>
<path style="fill:#849c2b; stroke:none;" d="M689 509L689 513L690 513L689 509z"/>
<path style="fill:#d7d191; stroke:none;" d="M193 512L196 512L195 510L193 512M681 510L682 511L681 510M711 510L712 511L711 510z"/>
<path style="fill:#849c2b; stroke:none;" d="M760 510L760 514L761 514L760 510M825 510L826 520L827 520L825 510M661 511L661 520L662 520L661 511z"/>
<path style="fill:#ede7e0; stroke:none;" d="M662 511L663 512L662 511z"/>
<path style="fill:#d7d191; stroke:none;" d="M181 527L313 528L313 527L240 526L183 525L193 515L193 512C186.562 515.004 183.231 520.46 181 527M682 512L683 513L682 512z"/>
<path style="fill:#849c2b; stroke:none;" d="M690 514L690 518L691 518L690 514M761 515L762 516L761 515z"/>
<path style="fill:#ede7e0; stroke:none;" d="M691 516L692 517L691 516z"/>
<path style="fill:#849c2b; stroke:none;" d="M762.333 516.667L762.667 517.333L762.333 516.667M718 535C713.652 516.685 735.621 512.928 739.453 531C740.514 536.002 737.834 540.529 736 545C745.694 536.533 739.56 514.77 725.001 517.232C718.22 518.379 712.135 529.875 718 535M691 518L694 525L695 525L691 518z"/>
<path style="fill:#8a5d14; stroke:none;" d="M723.188 518.704C710.004 523.768 718.903 550.336 732.957 545.693C746.885 541.091 737.884 513.059 723.188 518.704z"/>
<path style="fill:#d7d191; stroke:none;" d="M730 518L731 519L730 518z"/>
<path style="fill:#849c2b; stroke:none;" d="M763 518L764 519L763 518M764 519L764 520L769 522L769 521L764 519z"/>
<path style="fill:#ede7e0; stroke:none;" d="M779 519L780 520L779 519z"/>
<path style="fill:#849c2b; stroke:none;" d="M781 519L781 520L789 520L781 519z"/>
<path style="fill:#d7d191; stroke:none;" d="M720 520L721 521L720 520z"/>
<path style="fill:#ede7e0; stroke:none;" d="M733 520L734 521L733 520z"/>
<path style="fill:#849c2b; stroke:none;" d="M776 520L776 521L779 521L776 520M789 520L789 521L794 522L794 521L789 520z"/>
<path style="fill:#ede7e0; stroke:none;" d="M792 520L793 521L792 520z"/>
<path style="fill:#849c2b; stroke:none;" d="M774.667 521.333L775.333 521.667L774.667 521.333M825 521L825 524L826 524L825 521M769 522L769 523L774 523L769 522M794.667 522.333L795.333 522.667L794.667 522.333z"/>
<path style="fill:#d7d191; stroke:none;" d="M718 523L719 524L718 523z"/>
<path style="fill:#849c2b; stroke:none;" d="M796 523L796 524L799 525L796 523z"/>
<path style="fill:#ede7e0; stroke:none;" d="M798 523L799 524L798 523z"/>
<path style="fill:#849c2b; stroke:none;" d="M824.333 524.667L824.667 525.333L824.333 524.667M695 525L696 526L695 525z"/>
<path style="fill:#d7d191; stroke:none;" d="M709 525L710 526L709 525z"/>
<path style="fill:#849c2b; stroke:none;" d="M799 525L804 530L799 525z"/>
<path style="fill:#d7d191; stroke:none;" d="M376 526L376 527L381 527L376 526M411 526L411 527L416 527L411 526z"/>
<path style="fill:#849c2b; stroke:none;" d="M696.667 526.333L697.333 526.667L696.667 526.333z"/>
<path style="fill:#d7d191; stroke:none;" d="M708 526L709 527L708 526z"/>
<path style="fill:#ede7e0; stroke:none;" d="M717 526L718 527L717 526z"/>
<path style="fill:#849c2b; stroke:none;" d="M822 526L822 528L824 526L822 526z"/>
<path style="fill:#d7d191; stroke:none;" d="M391 527L391 528L401 528L391 527z"/>
<path style="fill:#849c2b; stroke:none;" d="M698 527L701 529L698 527z"/>
<path style="fill:#d7d191; stroke:none;" d="M738 527L739 528L738 527z"/>
<path style="fill:#849c2b; stroke:none;" d="M702 528L703 529L702 528z"/>
<path style="fill:#d7d191; stroke:none;" d="M703.667 528.333L704.333 528.667L703.667 528.333z"/>
<path style="fill:#849c2b; stroke:none;" d="M821 528L822 529L821 528z"/>
<path style="fill:#d7d191; stroke:none;" d="M819 529L820 530L819 529z"/>
<path style="fill:#849c2b; stroke:none;" d="M820 529L821 530L820 529M645 538L646 538C647.104 535.935 648.065 534.173 650.108 532.853C672.41 518.447 672.111 576.114 651.105 556.782C648.711 554.579 647.286 551.924 646 549C643.978 561.446 665.396 566.898 668.606 552.999C670.119 546.449 668.715 538.905 663.892 534.109C657.421 527.672 647.983 529.305 645 538z"/>
<path style="fill:#d7d191; stroke:none;" d="M680 530L681 531L680 530z"/>
<path style="fill:#849c2b; stroke:none;" d="M804 530L804 531L809 532L809 531L804 530z"/>
<path style="fill:#ede7e0; stroke:none;" d="M806 530L807 531L806 530z"/>
<path style="fill:#d7d191; stroke:none;" d="M817 530L818 531L817 530z"/>
<path style="fill:#849c2b; stroke:none;" d="M818.667 530.333L819.333 530.667L818.667 530.333z"/>
<path style="fill:#8a5d14; stroke:none;" d="M652.015 531.573C637.836 535.688 646.726 564.915 660.995 560.127C674.925 555.452 667.101 527.195 652.015 531.573z"/>
<path style="fill:#849c2b; stroke:none;" d="M809 532L809 533L818 532L809 532z"/>
<path style="fill:#ede7e0; stroke:none;" d="M739 532L740 533L739 532z"/>
<path style="fill:#849c2b; stroke:none;" d="M691 534L691 535L698 536L691 534M681 545L682 545L690 536C684.997 535.584 682.345 540.8 681 545z"/>
<path style="fill:#8a5d14; stroke:none;" d="M690.001 535.873C683.142 538.492 681.049 546.149 677.88 551.985C672.492 561.912 656.237 580.29 672.301 589.808C683.362 596.362 689.891 581.936 700.3 580.833C707.356 580.086 715.26 584.579 721.83 582.312C747.594 573.419 716.105 550.832 708.424 543.989C703.64 539.727 697.142 533.145 690.001 535.873z"/>
<path style="fill:#d7d191; stroke:none;" d="M739 535L740 536L739 535z"/>
<path style="fill:#ede7e0; stroke:none;" d="M664 536L665 537L664 536z"/>
<path style="fill:#d7d191; stroke:none;" d="M688 536L689 537L688 536z"/>
<path style="fill:#849c2b; stroke:none;" d="M699 536L700 537L699 536M717.333 536.667L717.667 537.333L717.333 536.667M701 537L703 539L701 537z"/>
<path style="fill:#d7d191; stroke:none;" d="M701 538L702 539L701 538z"/>
<path style="fill:#849c2b; stroke:none;" d="M718.333 538.667L718.667 539.333L718.333 538.667M644 539L644 548L645 548L644 539M703 539L707 542L703 539z"/>
<path style="fill:#d7d191; stroke:none;" d="M645 540L646 541L645 540z"/>
<path style="fill:#849c2b; stroke:none;" d="M719 540C721.14 544.351 724.29 546.147 729 547L729 546L719 540M543 542.425C527.445 544.543 489.704 555.016 499.009 578C507.535 599.06 541.148 600.969 560 598.714C575.039 596.916 606.512 585.725 599.03 565C592.049 545.661 560.805 540.002 543 542.425M707 542L708 543L707 542M708 543L711 546L708 543M272 573C273.966 569.455 276.711 566.019 277.606 562C279.554 553.258 272.71 548.122 265 546.239C249.72 542.508 234.401 544.813 219 544.996C210.62 545.096 199.91 541.779 192.059 545.653C183.744 549.756 187.996 576.762 188 585C188.002 588.973 187.471 593.551 191.148 596.142C196.442 599.873 204.139 597.296 210 597.039C224.646 596.398 239.337 599.445 254 597.714C261.546 596.824 269.037 596.3 274.895 590.787C281.499 584.572 280.947 576.07 272 573M305 580L339 581.699L363 595.007L384 597L384 596L361 580C372.23 576.197 394.903 566.357 378.786 551.39C363.852 537.522 333.143 544.998 315 544.998C308.07 544.998 298.035 541.494 292.514 547.419C287.035 553.299 290.583 565.891 290.896 573C291.182 579.513 287.692 587.941 291.858 593.852C301.151 607.038 305 585.829 305 580M476 583C452.364 569.205 425.187 542.553 396 546C395.999 558.335 394.856 570.606 395.004 583C395.059 587.625 395.137 594.302 400.059 596.526C403.545 598.102 407.642 596.775 408.682 592.945C411.483 582.63 409.149 568.781 410 558C428.031 566.53 444.935 579.756 462 590.189C468.296 594.038 478.171 600.413 485.891 597.106C490.449 595.154 489.947 590.154 490.004 586C490.139 576.029 492.698 565.927 491.271 556C490.702 552.045 490.192 545.178 484.96 544.662C480.506 544.223 477.52 549.337 476.558 553C474.171 562.082 476 573.635 476 583z"/>
<path style="fill:#d7d191; stroke:none;" d="M724 544L725 545L724 544z"/>
<path style="fill:#ede7e0; stroke:none;" d="M709 545L710 546L709 545M726 545L727 546L726 545z"/>
<path style="fill:#849c2b; stroke:none;" d="M734 545L735 546L734 545z"/>
<path style="fill:#d7d191; stroke:none;" d="M645 546L646 547L645 546z"/>
<path style="fill:#849c2b; stroke:none;" d="M680 546L681 547L680 546M711 546L712 547L711 546M730 546L730 547L734 547L730 546M712.667 547.333L713.333 547.667L712.667 547.333M679 548L680 549L679 548M714 548L715 549L714 548M678 549L677 553L678 553L678 549M715 549L716 550L715 549M716.667 550.333L717.333 550.667L716.667 550.333z"/>
<path style="fill:#ede7e0; stroke:none;" d="M678 551L679 552L678 551z"/>
<path style="fill:#849c2b; stroke:none;" d="M718.667 551.333L719.333 551.667L718.667 551.333z"/>
<path style="fill:#d7d191; stroke:none;" d="M647 552L648 553L647 552z"/>
<path style="fill:#849c2b; stroke:none;" d="M720.667 552.333L721.333 552.667L720.667 552.333M676 553L674 557L676 553M722 553L724 555L722 553z"/>
<path style="fill:#abc713; stroke:none;" d="M541 554.439C530.933 556.024 502.512 566.124 518.105 579.471C529.672 589.372 547.919 588.798 562 586.701C572.212 585.179 592.923 574.254 579.811 562.529C570.237 553.968 553.155 552.526 541 554.439z"/>
<path style="fill:#d7d191; stroke:none;" d="M722 554L723 555L722 554z"/>
<path style="fill:#abc713; stroke:none;" d="M202 555C201.568 558.443 200.223 562.772 203.319 565.397C206.759 568.314 213.811 567 218 567C229.927 567.001 249.127 572.313 259.941 565.86C264.156 563.346 264.681 558.194 259.891 556.009C254.856 553.713 247.411 555 242 555L226 555L202 555M308.109 555.742C301.986 558.375 303.3 567.733 309.044 569.852C320.921 574.234 336.687 570.001 349 570C353.86 570 360.637 571.114 364.852 568.142C371.972 563.121 364.763 556.586 359 555.468C347.967 553.328 335.223 555 324 555C319.242 555 312.562 553.827 308.109 555.742z"/>
<path style="fill:#849c2b; stroke:none;" d="M724 555L725 556L724 555z"/>
<path style="fill:#ede7e0; stroke:none;" d="M675 556L676 557L675 556z"/>
<path style="fill:#849c2b; stroke:none;" d="M725 556L726 557L725 556M673 557L671 561L673 557M726 557L728 559L726 557z"/>
<path style="fill:#ede7e0; stroke:none;" d="M726 558L727 559L726 558z"/>
<path style="fill:#849c2b; stroke:none;" d="M728.333 559.667L728.667 560.333L728.333 559.667z"/>
<path style="fill:#d7d191; stroke:none;" d="M672 560L673 561L672 560z"/>
<path style="fill:#849c2b; stroke:none;" d="M670.333 561.667L670.667 562.333L670.333 561.667M729 561L731 573L732 573L729 561M669.333 563.667L669.667 564.333L669.333 563.667z"/>
<path style="fill:#ede7e0; stroke:none;" d="M729 563L730 564L729 563z"/>
<path style="fill:#849c2b; stroke:none;" d="M668 565L669 566L668 565M667.333 566.667L667.667 567.333L667.333 566.667z"/>
<path style="fill:#ede7e0; stroke:none;" d="M730 567L731 568L730 567z"/>
<path style="fill:#849c2b; stroke:none;" d="M666.333 568.667L666.667 569.333L666.333 568.667M665 570L665 582L666 582L665 570M730 573L730 576L731 576L730 573z"/>
<path style="fill:#abc713; stroke:none;" d="M204.228 576.742C197.67 579.812 203.342 587.07 208.015 588.177C219.968 591.007 232.927 588.001 245 588C250.188 588 257.262 589.095 261.768 585.911C267.991 581.512 260.739 576.579 256 576.105C244.23 574.928 231.83 576 220 576C215.388 576 208.496 574.745 204.228 576.742z"/>
<path style="fill:#849c2b; stroke:none;" d="M729.333 576.667L729.667 577.333L729.333 576.667M728 578L729 579L728 578M727 579L728 580L727 579z"/>
<path style="fill:#ede7e0; stroke:none;" d="M666 580L667 581L666 580M698 580L699 581L698 580z"/>
<path style="fill:#849c2b; stroke:none;" d="M702 580L702 581L705 581L702 580M708 580L714 583L714 582L708 580z"/>
<path style="fill:#ede7e0; stroke:none;" d="M709 580L710 581L709 580M724 580L725 581L724 580z"/>
<path style="fill:#849c2b; stroke:none;" d="M725.667 580.333L726.333 580.667L725.667 580.333z"/>
<path style="fill:#d7d191; stroke:none;" d="M695 581L696 582L695 581z"/>
<path style="fill:#849c2b; stroke:none;" d="M697 581L697 582L700 582L697 581z"/>
<path style="fill:#d7d191; stroke:none;" d="M712 581L713 582L712 581z"/>
<path style="fill:#849c2b; stroke:none;" d="M724 581L725 582L724 581M666 582L666 585L667 585L666 582M694.667 582.333L695.333 582.667L694.667 582.333M722 582L723 583L722 582M692.667 583.333L693.333 583.667L692.667 583.333M715 583L715 584L721 584L715 583M690.667 584.333L691.333 584.667L690.667 584.333M667.333 585.667L667.667 586.333L667.333 585.667M689 585L690 586L689 585M688 586L689 587L688 586M668 587L671 590L668 587M687 587L688 588L687 587M686 588L687 589L686 588M685 589L686 590L685 589M671 590L671 591L676 592L676 591L671 590z"/>
<path style="fill:#d7d191; stroke:none;" d="M683 590L684 591L683 590z"/>
<path style="fill:#849c2b; stroke:none;" d="M684 590L685 591L684 590M678.667 591.333L679.333 591.667L678.667 591.333M682.667 591.333L683.333 591.667L682.667 591.333z"/>
</svg>
