<?xml version="1.0" standalone="yes"?>
<svg xmlns="http://www.w3.org/2000/svg" width="1024" height="1024">
<path style="fill:#aac613; stroke:none;" d="M0 0L0 1024L1024 1024L1024 0L0 0z"/>
<path style="fill:#c5ca67; stroke:none;" d="M527 421L527 422L536 422L527 421M490 438L489 440L496 442L496 441C482.039 432.53 513.138 423.565 520 423C512.864 420.034 501.313 425.346 495.004 428.904C491.918 430.644 486.461 434.558 490 438z"/>
<path style="fill:#dcd5a3; stroke:none;" d="M510 425L510 426C524.089 422.039 536.726 423.187 551 425C540.731 418.808 520.757 420.964 510 425z"/>
<path style="fill:#c5ca67; stroke:none;" d="M543 422L543 423L546 423L543 422z"/>
<path style="fill:#f2ede9; stroke:none;" d="M505 439L504 437C530.298 437 565.218 446.689 588 459.876C598.591 466.006 606.711 479.162 618 483C620.793 477.414 616.739 470.695 614 466C606.306 452.81 599.073 445.626 586 438C582.011 435.673 568.556 431.774 569 430C552.115 428.025 537.771 420.663 520 423.439C511.995 424.689 502.99 427.114 496.019 431.363C484.268 438.527 499.605 439.426 505 439z"/>
<path style="fill:#c5ca67; stroke:none;" d="M548.667 423.333L549.333 423.667L548.667 423.333M551 424L551 425C583.028 431.611 613.041 449.412 621 483L614 484C606.835 469.218 587.622 458.749 573 453.192C567.685 451.172 561.718 448.154 556 449L556 450L579 456C579.523 459.575 585.981 461.119 589 463.06C597.341 468.421 603.358 476.322 611.134 482.329C613.69 484.303 618.823 486.334 621.106 482.769C624.381 477.656 616.63 465.567 614.227 461C603.409 440.442 574.198 424.724 551 424z"/>
<path style="fill:#dcd5a3; stroke:none;" d="M552.667 425.333L553.333 425.667L552.667 425.333M507 426L508 427L507 426M556.667 426.333L557.333 426.667L556.667 426.333M504 427L505 428L504 427M560.667 427.333L561.333 427.667L560.667 427.333M499 430L503 429L499 430M563 428L563 429L566 429L563 428M566 429L568 431L568 429L566 429M497 430L498 431L497 430M568 431L568 432L573 432L568 431M493 431L494 432L493 431M495 431L496 432L495 431M574 432L575 433L574 432M492 433L493 434L492 433M576 433L577 434L576 433M491 434L492 435L491 434M577 434L577 435L580 435L577 434M580 435L581 436L580 435M490 436L491 437L490 436M582 436L583 437L582 436M504 437L504 438L516 438L504 437M584 437L584 438L587 439L584 437z"/>
<path style="fill:#6c7552; stroke:none;" d="M787 443L800 438C794.579 435.747 790.241 438.651 787 443z"/>
<path style="fill:#dcd5a3; stroke:none;" d="M489 438L490 439L489 438M491 438L492 439L491 438z"/>
<path style="fill:#c5ca67; stroke:none;" d="M504 439L504 440L534 443C525.276 438.328 513.59 437.219 504 439z"/>
<path style="fill:#dcd5a3; stroke:none;" d="M518.667 438.333L519.333 438.667L518.667 438.333z"/>
<path style="fill:#f2ede9; stroke:none;" d="M793.015 438.743C781.306 443.274 782.328 471.683 796.999 466.254C809.882 461.487 808.714 432.668 793.015 438.743z"/>
<path style="fill:#c5ca67; stroke:none;" d="M800 438L801 439L800 438z"/>
<path style="fill:#6c7552; stroke:none;" d="M801 438L802 439L801 438z"/>
<path style="fill:#dcd5a3; stroke:none;" d="M492 439L493 440L492 439M500 439L500 440L504 440L500 439M522.667 439.333L523.333 439.667L522.667 439.333M587.667 439.333L588.333 439.667L587.667 439.333z"/>
<path style="fill:#6c7552; stroke:none;" d="M802 439L803 440L802 439z"/>
<path style="fill:#dcd5a3; stroke:none;" d="M495.667 440.333L496.333 440.667L495.667 440.333z"/>
<path style="fill:#c5ca67; stroke:none;" d="M497 440L497 441L503 441L497 440z"/>
<path style="fill:#dcd5a3; stroke:none;" d="M526.667 440.333L527.333 440.667L526.667 440.333M590 440L591 441L590 440z"/>
<path style="fill:#6c7552; stroke:none;" d="M803 440L804 441L803 440z"/>
<path style="fill:#dcd5a3; stroke:none;" d="M530.667 441.333L531.333 441.667L530.667 441.333M540 441L540 442L544 443L544 442L540 441M591 441L592 442L591 441z"/>
<path style="fill:#6c7552; stroke:none;" d="M804.333 441.667L804.667 442.333L804.333 441.667z"/>
<path style="fill:#dcd5a3; stroke:none;" d="M534 442L534 443L537 443L534 442M593 442L594 443L593 442z"/>
<path style="fill:#c5ca67; stroke:none;" d="M535 443L535 444L555 449L535 443z"/>
<path style="fill:#dcd5a3; stroke:none;" d="M539.667 443.333L540.333 443.667L539.667 443.333M787 443L788 444L787 443z"/>
<path style="fill:#6c7552; stroke:none;" d="M805.333 443.667L805.667 444.333L805.333 443.667z"/>
<path style="fill:#dcd5a3; stroke:none;" d="M543.667 444.333L544.333 444.667L543.667 444.333M596 444L599 446L599 445L596 444z"/>
<path style="fill:#6c7552; stroke:none;" d="M786 444L787 445L786 444z"/>
<path style="fill:#dcd5a3; stroke:none;" d="M546 445L546 446L551 446L546 445z"/>
<path style="fill:#6c7552; stroke:none;" d="M822 445L822 446L826 446L822 445z"/>
<path style="fill:#dcd5a3; stroke:none;" d="M551 446L551 447L557 449L551 446M599 446L600 447L599 446z"/>
<path style="fill:#6c7552; stroke:none;" d="M785.333 446.667L785.667 447.333L785.333 446.667M806 446L806 456L807 456L806 446M820 446L821 447L820 446z"/>
<path style="fill:#f2ede9; stroke:none;" d="M821.015 446.746C808.27 451.563 809.945 481.425 824.96 475.141C837.005 470.101 836.19 441.01 821.015 446.746z"/>
<path style="fill:#6c7552; stroke:none;" d="M827.667 446.333L828.333 446.667L827.667 446.333z"/>
<path style="fill:#dcd5a3; stroke:none;" d="M600 447L601 448L600 447z"/>
<path style="fill:#6c7552; stroke:none;" d="M818 447L819 448L818 447M829 447L830 448L829 447z"/>
<path style="fill:#dcd5a3; stroke:none;" d="M559.667 448.333L560.333 448.667L559.667 448.333z"/>
<path style="fill:#6c7552; stroke:none;" d="M817 448L818 449L817 448M830 448L831 449L830 448z"/>
<path style="fill:#c5ca67; stroke:none;" d="M559 531L559 530L518 521L518 520L520 520L520 519C502.722 515.25 486.712 501.524 477.38 487C470.954 476.998 471.827 463.862 483.004 457.367C487.496 454.756 492.989 453.799 498 452.651C504.722 451.111 510.232 451.466 517 452C503.343 440.821 470.793 456.241 471.261 474C471.548 484.886 478.671 494.614 486.004 501.999C503.554 519.675 533.86 532.465 559 531z"/>
<path style="fill:#dcd5a3; stroke:none;" d="M562.667 449.333L563.333 449.667L562.667 449.333M603 449L604 450L603 449z"/>
<path style="fill:#6c7552; stroke:none;" d="M784 449L784 459L785 459L784 449M816 449L817 450L816 449M831.333 449.667L831.667 450.333L831.333 449.667z"/>
<path style="fill:#dcd5a3; stroke:none;" d="M565.667 450.333L566.333 450.667L565.667 450.333M604 450L605 451L604 450z"/>
<path style="fill:#6c7552; stroke:none;" d="M815 450L816 451L815 450z"/>
<path style="fill:#dcd5a3; stroke:none;" d="M503.667 451.333L504.333 451.667L503.667 451.333z"/>
<path style="fill:#f2ede9; stroke:none;" d="M580 474C579.569 470.886 576.913 471.103 574 471L569 466L546 460L547 458C526.681 455.432 498.233 444.035 480.174 459.532C468.926 469.186 474.249 484.304 482.326 494C497.291 511.965 523.183 523.443 546 527.739C561.482 530.654 590.048 535.497 602.985 524.661C620.89 509.662 598.731 476.55 580 474z"/>
<path style="fill:#dcd5a3; stroke:none;" d="M511.667 451.333L512.333 451.667L511.667 451.333M515 452L515 453L525 454L525 453L518 451L515 452z"/>
<path style="fill:#c5ca67; stroke:none;" d="M518 451C521.381 454.889 531.002 454.669 536 455.611C548.086 457.89 559.983 461.774 571 467.248C581.245 472.337 593.428 478.878 600.34 488.3C604.514 493.989 607.048 504.839 612 509L610 514C614.208 511.272 613.282 505.414 612.072 501C609.652 492.172 598.193 478.564 589 477C585.708 470.984 577.956 468.14 572 465.258C555.239 457.149 536.366 453.333 518 451z"/>
<path style="fill:#dcd5a3; stroke:none;" d="M568.667 451.333L569.333 451.667L568.667 451.333M605 451L606 452L605 451M815 451L816 452L815 451z"/>
<path style="fill:#6c7552; stroke:none;" d="M832 451L833 452L832 451z"/>
<path style="fill:#dcd5a3; stroke:none;" d="M498 452L498 453L501 453L498 452M571.667 452.333L572.333 452.667L571.667 452.333M606 452L607 453L606 452z"/>
<path style="fill:#6c7552; stroke:none;" d="M814 452L815 453L814 452z"/>
<path style="fill:#dcd5a3; stroke:none;" d="M832 452L833 453L832 452M494 453L494 454L497 454L494 453M573.667 453.333L574.333 453.667L573.667 453.333z"/>
<path style="fill:#6c7552; stroke:none;" d="M833 453L833 456L834 456L833 453z"/>
<path style="fill:#dcd5a3; stroke:none;" d="M490.667 454.333L491.333 454.667L490.667 454.333M526 454L526 455L530 455L526 454M576.667 454.333L577.333 454.667L576.667 454.333z"/>
<path style="fill:#6c7552; stroke:none;" d="M757 467L758 467C760.239 459.463 765.114 455.191 773 455C764.87 451.621 758.329 459.663 757 467M813 454L814 455L813 454z"/>
<path style="fill:#dcd5a3; stroke:none;" d="M486.667 455.333L487.333 455.667L486.667 455.333M533 455L533 456L541 457L541 456L533 455M579 455L580 456L579 455M608 455L609 456L608 455z"/>
<path style="fill:#f2ede9; stroke:none;" d="M766.004 455.743C753.389 460.561 754.698 489.509 769.999 484.091C783.775 479.213 782.191 449.561 766.004 455.743z"/>
<path style="fill:#c5ca67; stroke:none;" d="M773 455L774 456L773 455z"/>
<path style="fill:#6c7552; stroke:none;" d="M774 455L775 456L774 455z"/>
<path style="fill:#dcd5a3; stroke:none;" d="M484 456L485 457L484 456M576 456L576 457L579 457L576 456M581 456L582 457L581 456M609 456L610 457L609 456z"/>
<path style="fill:#6c7552; stroke:none;" d="M775 456L776 457L775 456z"/>
<path style="fill:#dcd5a3; stroke:none;" d="M805 456L806 457L805 456z"/>
<path style="fill:#6c7552; stroke:none;" d="M812.333 456.667L812.667 457.333L812.333 456.667z"/>
<path style="fill:#c5ca67; stroke:none;" d="M192 457L192 458C224.579 458.022 257.337 459 290 459C294.731 459 319.425 456.235 319.248 463.109C319.093 469.152 310.458 473.353 306.17 476.141C295.167 483.295 278.693 492.792 273 505L285 506L285 505L275 505L286 496L286 503L287 503L288 495C294.596 495 314.693 492.934 319.397 497.603C323.179 501.357 322 511.121 322 516L323 516C323 510.211 324.536 500.311 320.262 495.653C314.083 488.92 296.031 493.934 288 494L294 486C302.838 486.395 311.832 476.329 317.065 469.985C319.965 466.47 323.88 460.804 317.89 458.148C307.881 453.71 291.74 458 281 458C251.325 458 221.597 457 192 457z"/>
<path style="fill:#dcd5a3; stroke:none;" d="M482 457L483 458L482 457M543.667 457.333L544.333 457.667L543.667 457.333M583 457L584 458L583 457z"/>
<path style="fill:#6c7552; stroke:none;" d="M776 457L777 458L776 457M805.333 457.667L805.667 458.333L805.333 457.667z"/>
<path style="fill:#c5ca67; stroke:none;" d="M217 483L216 483L215 489C207.897 489.561 192.364 493.291 186.434 488.258C179.566 482.429 181.608 462.018 190 459C182.042 456.909 182.025 468.813 182.001 474C181.978 478.718 181.067 486.648 185.43 489.86C193.159 495.553 216.372 494.359 217 483z"/>
<path style="fill:#dcd5a3; stroke:none;" d="M187 459L187 460L318 460C307.973 455.792 290.896 459 280 459L217 459C206.96 459 196.927 457.157 187 459z"/>
<path style="fill:#c5ca67; stroke:none;" d="M354 463L354 464L382 459.108L412 460C393.93 452.415 372.23 461.559 354 463z"/>
<path style="fill:#dcd5a3; stroke:none;" d="M402 458L402 459L412 459L412 460L409 460L409 461L420 461L402 458z"/>
<path style="fill:#c5ca67; stroke:none;" d="M413 458L413 459L416 459L413 458z"/>
<path style="fill:#dcd5a3; stroke:none;" d="M480.667 458.333L481.333 458.667L480.667 458.333M546 459L546 460L552 460L546 459M585 458L588 460L588 459L585 458M610 458L611 459L610 458z"/>
<path style="fill:#6c7552; stroke:none;" d="M777 458L778 459L777 458z"/>
<path style="fill:#dcd5a3; stroke:none;" d="M812 458L813 459L812 458M376 460L376 461L389 460L376 460z"/>
<path style="fill:#c5ca67; stroke:none;" d="M418 459L418 460C432.895 463.556 448.092 463.877 459.907 475.184C484.611 498.83 452.002 520.603 429 524C433.839 525.884 440.337 522.958 445 521.186C459.024 515.856 473.297 507.208 470.482 490C466.706 466.912 437.923 459.165 418 459z"/>
<path style="fill:#dcd5a3; stroke:none;" d="M479 459L480 460L479 459M611 459L612 460L611 459z"/>
<path style="fill:#c5ca67; stroke:none;" d="M777 459L778 460L777 459z"/>
<path style="fill:#6c7552; stroke:none;" d="M804.333 459.667L804.667 460.333L804.333 459.667z"/>
<path style="fill:#f2ede9; stroke:none;" d="M185 460L185 489L215 489C216.195 477.413 225.49 476.658 235 479L211 499.051L199 510L193 515C188.065 516.448 185.576 520.247 184 525C215.167 530.786 251.287 526 283 526C291.549 526 309.553 530.805 316.682 525.142C321.636 521.207 319.999 502.159 320 496L288 496C288 499.925 289.119 504.78 286 504C286 509.776 274.734 507 271 507C280.277 486.08 313.53 481.783 320 460L185 460M379 460.464C370.402 461.97 361.257 462.969 353 465.865C345.391 468.534 336.792 471.655 331.533 478.09C320.729 491.312 330.881 508.158 343 515.536C363.784 528.189 395.532 529.958 419 525.532C438.883 521.783 476.598 513.382 466.451 485C465.102 481.226 462.904 477.906 459.957 475.188C441.939 458.568 402.054 456.426 379 460.464z"/>
<path style="fill:#dcd5a3; stroke:none;" d="M478 460L479 461L478 460M554 460L555 461L554 460M589 460L590 461L589 460z"/>
<path style="fill:#6c7552; stroke:none;" d="M778 460L779 461L778 460M785.333 460.667L785.667 461.333L785.333 460.667M811 460L811 466L812 466L811 460z"/>
<path style="fill:#dcd5a3; stroke:none;" d="M372 461L372 462L375 462L372 461M424 461L424 462L428 462L424 461M477.333 461.667L477.667 462.333L477.333 461.667M557 461L558 462L557 461M590 461L591 462L590 461M612 461L613 462L612 461z"/>
<path style="fill:#6c7552; stroke:none;" d="M803 461L804 462L803 461z"/>
<path style="fill:#dcd5a3; stroke:none;" d="M184 462L184 487L185 487L184 462M319 462L311 473C315.206 471.033 320.343 467.134 319 462M365 462L365 463L369 463L365 462M431.667 462.333L432.333 462.667L431.667 462.333M559.667 462.333L560.333 462.667L559.667 462.333M592 462L593 463L592 462z"/>
<path style="fill:#6c7552; stroke:none;" d="M779.333 462.667L779.667 463.333L779.333 462.667M786.333 462.667L786.667 463.333L786.333 462.667M802 462L801 465L802 462z"/>
<path style="fill:#c5ca67; stroke:none;" d="M833 462L834 463L833 462z"/>
<path style="fill:#dcd5a3; stroke:none;" d="M359 463L359 464L362 464L359 463M435 463L441 465L441 464L435 463M476 463L477 464L476 463M562 463L566 465L566 464L562 463M593 463L594 464L593 463M613.333 463.667L613.667 464.333L613.333 463.667z"/>
<path style="fill:#6c7552; stroke:none;" d="M833.333 463.667L833.667 464.333L833.333 463.667z"/>
<path style="fill:#c5ca67; stroke:none;" d="M326 484L338.09 472.503L353 464C340.858 465.793 331.71 473.33 326 484z"/>
<path style="fill:#dcd5a3; stroke:none;" d="M353 466L358 465L353 466M779 464L780 465L779 464z"/>
<path style="fill:#6c7552; stroke:none;" d="M787 464L788 465L787 464z"/>
<path style="fill:#c5ca67; stroke:none;" d="M800 464L801 465L800 464z"/>
<path style="fill:#dcd5a3; stroke:none;" d="M442 465L442 466L446 467L442 465M566 465L568 467L568 465L566 465M596 465L597 466L596 465M614.333 465.667L614.667 466.333L614.333 465.667z"/>
<path style="fill:#6c7552; stroke:none;" d="M788 465L789 466L788 465M799 465L800 466L799 465z"/>
<path style="fill:#dcd5a3; stroke:none;" d="M350.667 466.333L351.333 466.667L350.667 466.333M474.333 466.667L474.667 467.333L474.333 466.667M568 467L568 468L572 468L568 467M597 466L600 468L597 466z"/>
<path style="fill:#6c7552; stroke:none;" d="M789.667 466.333L790.333 466.667L789.667 466.333M797.667 466.333L798.333 466.667L797.667 466.333M832.333 466.667L832.667 467.333L832.333 466.667z"/>
<path style="fill:#dcd5a3; stroke:none;" d="M344 467L345 468L344 467M348 467L349 468L348 467M446 467L446 468L449 468L446 467M615 467L616 468L615 467z"/>
<path style="fill:#6c7552; stroke:none;" d="M792 467L792 468L796 468L792 467M812 467L812 470L813 470L812 467z"/>
<path style="fill:#dcd5a3; stroke:none;" d="M345.667 468.333L346.333 468.667L345.667 468.333M450 468L451 469L450 468M573 468L574 469L573 468z"/>
<path style="fill:#6c7552; stroke:none;" d="M756 468L756 475L757 475L756 468M831.333 468.667L831.667 469.333L831.333 468.667z"/>
<path style="fill:#dcd5a3; stroke:none;" d="M343 469L344 470L343 469M452 469L452 471L454 471L452 469M473 469L473 472L474 472L473 469M574 470L574 471L578 471L574 470M601 469L601 471L603 471L601 469M341 470L342 471L341 470M616 470L617 471L616 470z"/>
<path style="fill:#6c7552; stroke:none;" d="M813.333 470.667L813.667 471.333L813.333 470.667M830 470L829 473L830 470z"/>
<path style="fill:#dcd5a3; stroke:none;" d="M339 471L340 472L339 471M455 471L456 472L455 471M579 471L580 472L579 471M603 471L603 473L605 473L603 471M779 471L780 472L779 471M456 472L457 473L456 472M617 472L617 475L618 475L617 472z"/>
<path style="fill:#6c7552; stroke:none;" d="M779.333 472.667L779.667 473.333L779.333 472.667M814 472L815 473L814 472z"/>
<path style="fill:#dcd5a3; stroke:none;" d="M308 475L311 473L308 475M335 473L335 475L337 473L335 473M458 473L459 474L458 473M580 473L580 474L583 474L580 473M605 473L606 474L605 473z"/>
<path style="fill:#6c7552; stroke:none;" d="M815 473L816 474L815 473M828 473L829 474L828 473z"/>
<path style="fill:#dcd5a3; stroke:none;" d="M459 474L460 475L459 474M473 474L474 482L475 482L473 474M584 474L584 476L586 476L584 474M606 474L606 476L608 476L606 474z"/>
<path style="fill:#6c7552; stroke:none;" d="M816 474L817 475L816 474M826.667 474.333L827.333 474.667L826.667 474.333z"/>
<path style="fill:#dcd5a3; stroke:none;" d="M306 475L307 476L306 475M460 475L461 476L460 475M618 475L619 476L618 475M757 475L758 476L757 475z"/>
<path style="fill:#6c7552; stroke:none;" d="M778.333 475.667L778.667 476.333L778.333 475.667M789 482C800.974 474.792 809.039 475.458 814 490C817.155 474.747 796.694 472.061 789 482M817 475L818 476L817 475M825 475L826 476L825 475M828 484L829 484L838 476C832.84 474.649 829.657 479.735 828 484z"/>
<path style="fill:#c5ca67; stroke:none;" d="M838 475L839 476L838 475z"/>
<path style="fill:#dcd5a3; stroke:none;" d="M839.667 475.333L840.333 475.667L839.667 475.333z"/>
<path style="fill:#6c7552; stroke:none;" d="M841 475L841 476L849 485L850 485C848.966 479.67 846.356 476.301 841 475z"/>
<path style="fill:#dcd5a3; stroke:none;" d="M305 476L306 477L305 476M461 476L462 477L461 476M530 480L536 476L530 480M589 476L590 477L589 476M608 476L609 477L608 476z"/>
<path style="fill:#6c7552; stroke:none;" d="M757.333 476.667L757.667 477.333L757.333 476.667z"/>
<path style="fill:#f2ede9; stroke:none;" d="M798 476.639C793.41 477.941 789.832 481.305 786 483.961C777.076 490.146 746.873 505.408 766.044 519.346C773.116 524.488 782.727 517.605 791 520.363C800.417 523.502 805.916 533.911 816.985 530.347C835.241 524.47 820.163 502.727 815.862 493C813.94 488.653 812.62 483.782 809.468 480.109C806.495 476.644 802.404 475.389 798 476.639z"/>
<path style="fill:#6c7552; stroke:none;" d="M819 476L819 477L824 477L819 476z"/>
<path style="fill:#f2ede9; stroke:none;" d="M835.04 476.858C823.136 481.927 826.297 508.818 840.996 502.987C854.565 497.604 850.953 470.083 835.04 476.858z"/>
<path style="fill:#dcd5a3; stroke:none;" d="M220 478L220 479L234 479L227 488L235 479L220 478M303 477L302 479L304 479L303 477M377 490L388 480.367L404 479C393.454 473.932 381.457 479.867 377 490M462 477L463 478L462 477z"/>
<path style="fill:#c5ca67; stroke:none;" d="M536.667 477.333L537.333 477.667L536.667 477.333z"/>
<path style="fill:#aac613; stroke:none;" d="M547 480C547.822 483.984 548.997 487.896 548.97 492C548.867 507.92 528.111 501.492 537.109 488.015C538.981 485.21 541.434 483.135 544 481C534.283 470.103 518.019 489.247 528.43 499.363C531.835 502.671 540.14 507.63 545 507.258C564.474 505.764 561.201 486.623 547 480z"/>
<path style="fill:#c5ca67; stroke:none;" d="M540 477L540 478L544 480L544 481C541.586 482.426 539.529 483.837 537.788 486.094C526.141 501.191 550.443 509.998 548.91 489C548.684 485.908 547.834 482.969 547 480L561 492C556.989 482.433 550.078 478.358 540 477z"/>
<path style="fill:#dcd5a3; stroke:none;" d="M543 477L543 478L546 478L543 477M547 477L550 479L550 478L547 477M588 477L589 478L588 477M609 477L609 479L611 479L609 477M619 477L620 483L621 483L619 477z"/>
<path style="fill:#6c7552; stroke:none;" d="M777.333 477.667L777.667 478.333L777.333 477.667z"/>
<path style="fill:#c5ca67; stroke:none;" d="M533 478L534 479L533 478z"/>
<path style="fill:#dcd5a3; stroke:none;" d="M589 478L590 479L589 478M218 479L219 480L218 479z"/>
<path style="fill:#c5ca67; stroke:none;" d="M219 479L219 480L231 480L218 494L234 479L219 479z"/>
<path style="fill:#dcd5a3; stroke:none;" d="M301 479L302 480L301 479M330 479L331 480L330 479z"/>
<path style="fill:#c5ca67; stroke:none;" d="M379 489C386.696 482.982 390.975 480.001 401 480C392.769 476.546 381.93 480.458 379 489M531 479L532 480L531 479z"/>
<path style="fill:#dcd5a3; stroke:none;" d="M550 479L551 480L550 479M611 479L612 480L611 479z"/>
<path style="fill:#6c7552; stroke:none;" d="M758 479L759 480L758 479M776 479L777 480L776 479z"/>
<path style="fill:#dcd5a3; stroke:none;" d="M217 480L218 481L217 480M299 480L300 481L299 480M329 480L330 481L329 480z"/>
<path style="fill:#aac613; stroke:none;" d="M390 480.649C366.278 487.816 387.172 510.568 405 504.775C428.174 497.245 407.24 475.44 390 480.649z"/>
<path style="fill:#c5ca67; stroke:none;" d="M403 480L404 481L403 480z"/>
<path style="fill:#dcd5a3; stroke:none;" d="M404 480L405 481L404 480M464 480L465 481L464 480M528 480L525 484L528 480z"/>
<path style="fill:#c5ca67; stroke:none;" d="M529.667 480.333L530.333 480.667L529.667 480.333z"/>
<path style="fill:#dcd5a3; stroke:none;" d="M552 480L552 481L556 482L552 480M612 480L612 482L614 482L612 480z"/>
<path style="fill:#6c7552; stroke:none;" d="M759.333 480.667L759.667 481.333L759.333 480.667M775 480L774 482L776 482L775 480z"/>
<path style="fill:#dcd5a3; stroke:none;" d="M298 481L299 482L298 481z"/>
<path style="fill:#c5ca67; stroke:none;" d="M406 481L407 482L406 481z"/>
<path style="fill:#dcd5a3; stroke:none;" d="M407 481L407 482L410 482L407 481z"/>
<path style="fill:#c5ca67; stroke:none;" d="M528 481L529 482L528 481z"/>
<path style="fill:#dcd5a3; stroke:none;" d="M593 481L595 483L595 481L593 481M810 481L811 482L810 481M216 482L217 483L216 482M328 482L329 483L328 482z"/>
<path style="fill:#c5ca67; stroke:none;" d="M408 482L409 483L408 482z"/>
<path style="fill:#dcd5a3; stroke:none;" d="M465 482L466 483L465 482z"/>
<path style="fill:#c5ca67; stroke:none;" d="M527 482L528 483L527 482z"/>
<path style="fill:#dcd5a3; stroke:none;" d="M614 482L614 484L616 482L614 482M618 482L619 483L618 482z"/>
<path style="fill:#6c7552; stroke:none;" d="M760 482L761 483L760 482M773 482L774 483L773 482M787 482L788 483L787 482z"/>
<path style="fill:#dcd5a3; stroke:none;" d="M788 482L789 483L788 482M295 483L296 484L295 483M327 483L326 503L327 503L327 483M410 483L411 484L410 483M475.333 483.667L475.667 484.333L475.333 483.667z"/>
<path style="fill:#c5ca67; stroke:none;" d="M526 483L527 484L526 483z"/>
<path style="fill:#dcd5a3; stroke:none;" d="M595 483L596 484L595 483z"/>
<path style="fill:#6c7552; stroke:none;" d="M761 483L762 484L761 483z"/>
<path style="fill:#dcd5a3; stroke:none;" d="M762 483L763 484L762 483z"/>
<path style="fill:#6c7552; stroke:none;" d="M772 483L773 484L772 483M786 483L787 484L786 483z"/>
<path style="fill:#dcd5a3; stroke:none;" d="M215.333 484.667L215.667 485.333L215.333 484.667M294 484L295 485L294 484M411 484L412 485L411 484M413 484L414 488L415 488L415 484L413 484M466 484L467 485L466 484z"/>
<path style="fill:#c5ca67; stroke:none;" d="M525 484C523.774 489.163 523.359 496.483 528 500L525 484z"/>
<path style="fill:#dcd5a3; stroke:none;" d="M557 484L558 487L559 487L559 484L557 484M596 484L598 486L598 484L596 484M616.667 484.333L617.333 484.667L616.667 484.333z"/>
<path style="fill:#6c7552; stroke:none;" d="M763.667 484.333L764.333 484.667L763.667 484.333z"/>
<path style="fill:#dcd5a3; stroke:none;" d="M769 484L770 485L769 484z"/>
<path style="fill:#6c7552; stroke:none;" d="M770 484L771 485L770 484M784.667 484.333L785.333 484.667L784.667 484.333z"/>
<path style="fill:#dcd5a3; stroke:none;" d="M828 484L829 485L828 484M292 485L293 486L292 485z"/>
<path style="fill:#c5ca67; stroke:none;" d="M412 485L413 486L412 485z"/>
<path style="fill:#dcd5a3; stroke:none;" d="M467 485L467 489L468 489L467 485M476 485L477 486L476 485M524 485L525 486L524 485z"/>
<path style="fill:#6c7552; stroke:none;" d="M767 485L768 486L767 485M783 485L784 486L783 485M827 485L826 492L827 492L827 485z"/>
<path style="fill:#dcd5a3; stroke:none;" d="M849 485L850 486L849 485M291 486L292 487L291 486M294.667 486.333L295.333 486.667L294.667 486.333z"/>
<path style="fill:#c5ca67; stroke:none;" d="M325 486L325 503L326 503L325 486z"/>
<path style="fill:#dcd5a3; stroke:none;" d="M598 486L599 487L598 486z"/>
<path style="fill:#6c7552; stroke:none;" d="M781.667 486.333L782.333 486.667L781.667 486.333M850 486L850 491L851 491L850 486z"/>
<path style="fill:#dcd5a3; stroke:none;" d="M290 487L291 488L290 487M477 487L478 488L477 487M559.333 487.667L559.667 488.333L559.333 487.667M599 487L601 489L601 487L599 487z"/>
<path style="fill:#6c7552; stroke:none;" d="M779.667 487.333L780.333 487.667L779.667 487.333z"/>
<path style="fill:#dcd5a3; stroke:none;" d="M288 488L289 489L288 488M478 488L479 489L478 488M523 488L523 492L524 492L523 488z"/>
<path style="fill:#6c7552; stroke:none;" d="M777.667 488.333L778.333 488.667L777.667 488.333z"/>
<path style="fill:#dcd5a3; stroke:none;" d="M187 489L187 490L211 490L187 489M224 489L225 490L224 489M287 489L286 491L288 491L287 489M415 489L416 490L415 489M468 489L468 499L469 499L468 489M476 489L477 490L476 489z"/>
<path style="fill:#6c7552; stroke:none;" d="M775.667 489.333L776.333 489.667L775.667 489.333z"/>
<path style="fill:#dcd5a3; stroke:none;" d="M827 489L828 490L827 489M223 490L224 491L223 490z"/>
<path style="fill:#c5ca67; stroke:none;" d="M415 490L416 491L415 490z"/>
<path style="fill:#dcd5a3; stroke:none;" d="M479 490L480 491L479 490M560 490L561 491L560 490M601 490L602 491L601 490M603 490L604 491L603 490z"/>
<path style="fill:#6c7552; stroke:none;" d="M774 490L775 491L774 490z"/>
<path style="fill:#dcd5a3; stroke:none;" d="M222 491L223 492L222 491z"/>
<path style="fill:#c5ca67; stroke:none;" d="M377.333 491.667L377.667 492.333L377.333 491.667z"/>
<path style="fill:#dcd5a3; stroke:none;" d="M480 491L481 492L480 491M602 491L603 492L602 491z"/>
<path style="fill:#6c7552; stroke:none;" d="M772 491L773 492L772 491M815 491L816 492L815 491M849 491L849 495L850 495L849 491z"/>
<path style="fill:#dcd5a3; stroke:none;" d="M283 492L284 493L283 492M416 492L416 497L417 497L416 492z"/>
<path style="fill:#6c7552; stroke:none;" d="M770.667 492.333L771.333 492.667L770.667 492.333z"/>
<path style="fill:#dcd5a3; stroke:none;" d="M815 492L816 493L815 492z"/>
<path style="fill:#6c7552; stroke:none;" d="M827 492L827 497L828 497L827 492z"/>
<path style="fill:#dcd5a3; stroke:none;" d="M219 493L220 494L219 493M282 493L283 494L282 493M470.333 493.667L470.667 494.333L470.333 493.667M524 493L524 496L525 496L524 493M561 493L561 497L562 497L561 493z"/>
<path style="fill:#6c7552; stroke:none;" d="M769 493L770 494L769 493M816.333 493.667L816.667 494.333L816.333 493.667z"/>
<path style="fill:#c5ca67; stroke:none;" d="M214 497L218 495L214 497z"/>
<path style="fill:#dcd5a3; stroke:none;" d="M281 494L282 495L281 494z"/>
<path style="fill:#c5ca67; stroke:none;" d="M378 494L379 495L378 494z"/>
<path style="fill:#dcd5a3; stroke:none;" d="M482 494L483 495L482 494z"/>
<path style="fill:#c5ca67; stroke:none;" d="M560 494L552 504L552 505C557.111 503.654 561.997 499.775 560 494z"/>
<path style="fill:#dcd5a3; stroke:none;" d="M604 494L605 495L604 494z"/>
<path style="fill:#6c7552; stroke:none;" d="M767.667 494.333L768.333 494.667L767.667 494.333z"/>
<path style="fill:#dcd5a3; stroke:none;" d="M216 495L217 496L216 495M280 495L281 496L280 495M288 495L288 496L302 496L288 495M378 495L379 496L378 495M483 495L484 496L483 495M608 495L609 496L608 495z"/>
<path style="fill:#6c7552; stroke:none;" d="M766 495L767 496L766 495M817.333 495.667L817.667 496.333L817.333 495.667M848.333 495.667L848.667 496.333L848.333 495.667z"/>
<path style="fill:#dcd5a3; stroke:none;" d="M215 496L216 497L215 496M279 496L280 497L279 496z"/>
<path style="fill:#aac613; stroke:none;" d="M275 505L286 505L286 496L275 505z"/>
<path style="fill:#c5ca67; stroke:none;" d="M379 496L382 499L379 496M415 496L408 503L408 504C411.651 502.731 415.665 500.301 415 496z"/>
<path style="fill:#dcd5a3; stroke:none;" d="M484 496L485 497L484 496z"/>
<path style="fill:#6c7552; stroke:none;" d="M765 496L766 497L765 496z"/>
<path style="fill:#c5ca67; stroke:none;" d="M212 497L213 498L212 497z"/>
<path style="fill:#dcd5a3; stroke:none;" d="M213 497L214 498L213 497M278 497L279 498L278 497M320 497L317 526C324.583 521.089 323.19 504.396 320 497M379 497L380 498L379 497M485 497L486 498L485 497M525.333 497.667L525.667 498.333L525.333 497.667M606 497L607 498L606 497z"/>
<path style="fill:#6c7552; stroke:none;" d="M764 497L765 498L764 497M828.333 497.667L828.667 498.333L828.333 497.667M847.333 497.667L847.667 498.333L847.333 497.667z"/>
<path style="fill:#c5ca67; stroke:none;" d="M211 498L212 499L211 498z"/>
<path style="fill:#dcd5a3; stroke:none;" d="M277 498L278 499L277 498M380 498L381 499L380 498M415 498L416 499L415 498M486 498L487 499L486 498M560 498L559 501L562 501L560 498z"/>
<path style="fill:#6c7552; stroke:none;" d="M703 529L703 528C678.359 519.618 699.199 483.174 711 510C712.209 502.559 701.819 495.462 695.105 499.179C682.938 505.915 692.077 526.796 703 529M763.333 498.667L763.667 499.333L763.333 498.667M818 498L819 499L818 498z"/>
<path style="fill:#dcd5a3; stroke:none;" d="M210 499L211 500L210 499M276 499L277 500L276 499M287 499L287 505L288 505L287 499M381 499L382 500L381 499M467 499L467 503L468 503L467 499M487 499L488 500L487 499M607 499L608 500L607 499M609 499L610 500L609 499z"/>
<path style="fill:#f2ede9; stroke:none;" d="M696.105 499.743C684.438 504.626 692.684 532.264 705.985 527.393C719.019 522.619 710.088 493.891 696.105 499.743z"/>
<path style="fill:#6c7552; stroke:none;" d="M829 499L830 500L829 499M846 499L847 500L846 499z"/>
<path style="fill:#c5ca67; stroke:none;" d="M208 500L209 501L208 500z"/>
<path style="fill:#dcd5a3; stroke:none;" d="M275 500L276 501L275 500z"/>
<path style="fill:#c5ca67; stroke:none;" d="M327 500C325.402 513.48 346.993 522.374 358 524L349 521C348.44 516.75 341.922 514.79 338 515L327 500z"/>
<path style="fill:#dcd5a3; stroke:none;" d="M380 501L386 504L380 501M413 500L413 502L415 500L413 500M488 500L489 501L488 500M526 500L526 501L530 502L530 501L526 500z"/>
<path style="fill:#c5ca67; stroke:none;" d="M529 500L530 501L529 500z"/>
<path style="fill:#6c7552; stroke:none;" d="M762.333 500.667L762.667 501.333L762.333 500.667M819 500L820 501L819 500z"/>
<path style="fill:#dcd5a3; stroke:none;" d="M830 500L831 501L830 500z"/>
<path style="fill:#6c7552; stroke:none;" d="M845 500L846 501L845 500z"/>
<path style="fill:#dcd5a3; stroke:none;" d="M207 501L208 502L207 501M274 501L275 502L274 501M328 501L329 502L328 501z"/>
<path style="fill:#f2ede9; stroke:none;" d="M382 501L382 503L384 503L382 501z"/>
<path style="fill:#dcd5a3; stroke:none;" d="M489 501L490 502L489 501z"/>
<path style="fill:#c5ca67; stroke:none;" d="M530 501L530 502L537 505L537 504L530 501z"/>
<path style="fill:#dcd5a3; stroke:none;" d="M608.333 501.667L608.667 502.333L608.333 501.667z"/>
<path style="fill:#6c7552; stroke:none;" d="M820.333 501.667L820.667 502.333L820.333 501.667M830 501L831 502L830 501M844 501L845 502L844 501z"/>
<path style="fill:#c5ca67; stroke:none;" d="M205 502L206 503L205 502z"/>
<path style="fill:#dcd5a3; stroke:none;" d="M273 502L274 503L273 502M329 502L330 503L329 502z"/>
<path style="fill:#c5ca67; stroke:none;" d="M385 502L386 503L385 502z"/>
<path style="fill:#dcd5a3; stroke:none;" d="M490 502L491 503L490 502M531 502L532 503L531 502M558 502L557 504L559 504L558 502z"/>
<path style="fill:#6c7552; stroke:none;" d="M761 502L761 505L762 505L761 502M832 502L833 503L832 502z"/>
<path style="fill:#c5ca67; stroke:none;" d="M842 502L843 503L842 502z"/>
<path style="fill:#6c7552; stroke:none;" d="M843 502L844 503L843 502z"/>
<path style="fill:#dcd5a3; stroke:none;" d="M204 503L205 504L204 503z"/>
<path style="fill:#c5ca67; stroke:none;" d="M386 503L387 504L386 503z"/>
<path style="fill:#dcd5a3; stroke:none;" d="M410.667 503.333L411.333 503.667L410.667 503.333M466 503L467 504L466 503M491 503L492 504L491 503M533 503L534 504L533 503z"/>
<path style="fill:#6c7552; stroke:none;" d="M662 511L663 511C668.243 501.012 674.594 504.962 682 510C676.191 501.952 665.711 500.124 662 511M821 503L822 504L821 503M833.667 503.333L834.333 503.667L833.667 503.333M840.667 503.333L841.333 503.667L840.667 503.333z"/>
<path style="fill:#c5ca67; stroke:none;" d="M202 504L203 505L202 504z"/>
<path style="fill:#dcd5a3; stroke:none;" d="M203 504L204 505L203 504M271 504C274.321 508.422 280.055 507.904 285 507L285 506L271 504M330 504L331 505L330 504M387 504L388 505L387 504z"/>
<path style="fill:#c5ca67; stroke:none;" d="M388 504L389 505L388 504M406 504L407 505L406 504z"/>
<path style="fill:#dcd5a3; stroke:none;" d="M402 506L402 507L409 504L402 506M492 504L493 505L492 504M535 504L536 505L535 504M549 508L556 504L549 508M609.333 504.667L609.667 505.333L609.333 504.667M667 504L668 505L667 504z"/>
<path style="fill:#f2ede9; stroke:none;" d="M668.043 504.743C654.993 509.961 664.883 537.603 677.982 531.642C690.598 525.9 681.897 499.204 668.043 504.743z"/>
<path style="fill:#6c7552; stroke:none;" d="M822.333 504.667L822.667 505.333L822.333 504.667M836 504L836 505L839 505L836 504z"/>
<path style="fill:#dcd5a3; stroke:none;" d="M201 505L202 506L201 505M285.667 505.333L286.333 505.667L285.667 505.333M331 505L332 506L331 505M388 507L391 507L390 505L388 507z"/>
<path style="fill:#c5ca67; stroke:none;" d="M390.667 505.333L391.333 505.667L390.667 505.333M402.667 505.333L403.333 505.667L402.667 505.333z"/>
<path style="fill:#dcd5a3; stroke:none;" d="M465 505L466 506L465 505M493 505L494 506L493 505M535 506L535 507L540 507L535 506z"/>
<path style="fill:#c5ca67; stroke:none;" d="M538 505L539 506L538 505M550 505L551 506L550 505M199 506L200 507L199 506z"/>
<path style="fill:#dcd5a3; stroke:none;" d="M200 506L201 507L200 506z"/>
<path style="fill:#c5ca67; stroke:none;" d="M271 506L271 507L274 507L271 506z"/>
<path style="fill:#dcd5a3; stroke:none;" d="M392.667 506.333L393.333 506.667L392.667 506.333z"/>
<path style="fill:#c5ca67; stroke:none;" d="M394 506L394 507L402 507L394 506z"/>
<path style="fill:#dcd5a3; stroke:none;" d="M464 506L465 507L464 506M494 506L495 507L494 506z"/>
<path style="fill:#c5ca67; stroke:none;" d="M540 506L541 507L540 506M548 506L545 507L545 508L548 506z"/>
<path style="fill:#6c7552; stroke:none;" d="M760 506L760 513L761 513L760 506M823 506L824 507L823 506z"/>
<path style="fill:#c5ca67; stroke:none;" d="M198 507L199 508L198 507z"/>
<path style="fill:#dcd5a3; stroke:none;" d="M398.667 507.333L399.333 507.667L398.667 507.333M542 507L542 509L544 509L542 507M823 507L824 508L823 507M197 508L194 512L199 509L197 508M497 508L498 509L497 508z"/>
<path style="fill:#6c7552; stroke:none;" d="M824.333 508.667L824.667 509.333L824.333 508.667z"/>
<path style="fill:#c5ca67; stroke:none;" d="M195 509L196 510L195 509z"/>
<path style="fill:#dcd5a3; stroke:none;" d="M394 509L394 510L398 510L394 509M460 509L460 511L462 509L460 509M496 509L497 510L496 509M499 509L500 510L499 509M544.667 509.333L545.333 509.667L544.667 509.333M610 509L610 512L612 509L610 509z"/>
<path style="fill:#c5ca67; stroke:none;" d="M194 510L195 511L194 510z"/>
<path style="fill:#dcd5a3; stroke:none;" d="M500.667 510.333L501.333 510.667L500.667 510.333M681 510L682 511L681 510M711 510L712 511L711 510z"/>
<path style="fill:#c5ca67; stroke:none;" d="M181 527L190 527L190 526L183 525L183 522L194 512C187.323 511.859 182.368 521.309 181 527z"/>
<path style="fill:#dcd5a3; stroke:none;" d="M337 511L338 512L337 511M459 511L460 512L459 511M502.667 511.333L503.333 511.667L502.667 511.333z"/>
<path style="fill:#6c7552; stroke:none;" d="M682 511L683 512L682 511M712 511L712 522L713 522L712 511M825 511L825 514L826 514L825 511z"/>
<path style="fill:#dcd5a3; stroke:none;" d="M338 512L339 513L338 512M505 512L506 513L505 512M682 512L683 513L682 512M190 515L193 515L192 513L190 515M339 513L338 515L340 515L339 513M456 513L457 514L456 513M507 513L510 515L510 514L507 513z"/>
<path style="fill:#6c7552; stroke:none;" d="M661 513L661 519L662 519L661 513M683 513L683 516L684 516L683 513z"/>
<path style="fill:#dcd5a3; stroke:none;" d="M341 514L342 515L341 514M452 516L455 515L452 516M609 517L610 517L612 515L609 517z"/>
<path style="fill:#6c7552; stroke:none;" d="M761.333 514.667L761.667 515.333L761.333 514.667z"/>
<path style="fill:#dcd5a3; stroke:none;" d="M342 515L343 516L342 515M511 515L512 516L511 515z"/>
<path style="fill:#c5ca67; stroke:none;" d="M610 515C601.285 534.813 579.857 532 562 532L562 533C580.908 533 603.82 536.949 612 515L610 515z"/>
<path style="fill:#dcd5a3; stroke:none;" d="M344 516L345 517L344 516M450 516L451 517L450 516M513 516L517 518L517 517L513 516z"/>
<path style="fill:#6c7552; stroke:none;" d="M684 516L684 525L685 525L684 516M762 516L763 517L762 516z"/>
<path style="fill:#dcd5a3; stroke:none;" d="M346 517L347 518L346 517M446 519L449 518L446 519z"/>
<path style="fill:#6c7552; stroke:none;" d="M724 517L724 518L729 518L724 517M763 517L763 519L765 519L763 517z"/>
<path style="fill:#dcd5a3; stroke:none;" d="M187 518L188 519L187 518M348 518L349 519L348 518M517.667 518.333L518.333 518.667L517.667 518.333M608 518L609 519L608 518z"/>
<path style="fill:#6c7552; stroke:none;" d="M722 518C713.033 526.096 714.784 540.722 726 546L726 545C716.766 538.339 714.054 527.076 723 519L722 518z"/>
<path style="fill:#f2ede9; stroke:none;" d="M723.043 519.029C710.235 525.754 720.369 552.039 733.956 544.821C746.179 538.328 736.396 512.017 723.043 519.029z"/>
<path style="fill:#dcd5a3; stroke:none;" d="M730 518L731 519L730 518z"/>
<path style="fill:#6c7552; stroke:none;" d="M731 518L732 519L731 518z"/>
<path style="fill:#dcd5a3; stroke:none;" d="M186 519L187 520L186 519z"/>
<path style="fill:#c5ca67; stroke:none;" d="M321 519L321 522L322 522L321 519z"/>
<path style="fill:#dcd5a3; stroke:none;" d="M349 520L349 521L354 521L349 520M443.667 519.333L444.333 519.667L443.667 519.333M518 520L518 521L524 521L518 520z"/>
<path style="fill:#6c7552; stroke:none;" d="M732.667 519.333L733.333 519.667L732.667 519.333M765 519L766 520L765 519M780 519L780 520L789 520L780 519z"/>
<path style="fill:#dcd5a3; stroke:none;" d="M185 520L186 521L185 520M437 521L437 522L442 521L437 521M607 520L608 521L607 520z"/>
<path style="fill:#6c7552; stroke:none;" d="M662 520L662 523L663 523L662 520z"/>
<path style="fill:#c5ca67; stroke:none;" d="M720 520L721 521L720 520z"/>
<path style="fill:#6c7552; stroke:none;" d="M734 520L735 521L734 520M766.667 520.333L767.333 520.667L766.667 520.333M776.667 520.333L777.333 520.667L776.667 520.333M790.667 520.333L791.333 520.667L790.667 520.333M825 520L825 523L826 523L825 520z"/>
<path style="fill:#dcd5a3; stroke:none;" d="M355.667 521.333L356.333 521.667L355.667 521.333M525 521L526 522L525 521M606 521L607 522L606 521z"/>
<path style="fill:#6c7552; stroke:none;" d="M735 521L736 522L735 521M768.667 521.333L769.333 521.667L768.667 521.333M773.667 521.333L774.333 521.667L773.667 521.333M793.667 521.333L794.333 521.667L793.667 521.333z"/>
<path style="fill:#dcd5a3; stroke:none;" d="M183.667 522.333L184.333 522.667L183.667 522.333M358 522L368 525L368 524L358 522M434.667 522.333L435.333 522.667L434.667 522.333M527 522L527 523L531 524L531 523L527 522M605 522L606 523L605 522z"/>
<path style="fill:#6c7552; stroke:none;" d="M711.333 522.667L711.667 523.333L711.333 522.667M736.333 522.667L736.667 523.333L736.333 522.667M771 522L772 523L771 522M795.667 522.333L796.333 522.667L795.667 522.333z"/>
<path style="fill:#c5ca67; stroke:none;" d="M320.333 523.667L320.667 524.333L320.333 523.667z"/>
<path style="fill:#dcd5a3; stroke:none;" d="M423 524L423 525L433 524L423 524M604 523L605 524L604 523M606.333 523.667L606.667 524.333L606.333 523.667z"/>
<path style="fill:#6c7552; stroke:none;" d="M663.333 523.667L663.667 524.333L663.333 523.667z"/>
<path style="fill:#dcd5a3; stroke:none;" d="M718 523L719 524L718 523z"/>
<path style="fill:#6c7552; stroke:none;" d="M797 523L798 524L797 523M824.333 523.667L824.667 524.333L824.333 523.667z"/>
<path style="fill:#dcd5a3; stroke:none;" d="M183 524L184 525L183 524z"/>
<path style="fill:#c5ca67; stroke:none;" d="M359 524L359 525L371 526L359 524z"/>
<path style="fill:#dcd5a3; stroke:none;" d="M533 524L534 525L533 524M603 524L604 525L603 524z"/>
<path style="fill:#6c7552; stroke:none;" d="M710 524L711 525L710 524M737 524L738 525L737 524M798.667 524.333L799.333 524.667L798.667 524.333z"/>
<path style="fill:#dcd5a3; stroke:none;" d="M184 525L184 526L187 526L184 525z"/>
<path style="fill:#c5ca67; stroke:none;" d="M316 526L316 527L320 526L316 526z"/>
<path style="fill:#dcd5a3; stroke:none;" d="M371 525L371 526L374 526L371 525M419 525L419 526L422 526L419 525z"/>
<path style="fill:#c5ca67; stroke:none;" d="M422 525L422 526L427 526L422 525z"/>
<path style="fill:#dcd5a3; stroke:none;" d="M536.667 525.333L537.333 525.667L536.667 525.333M602 525L603 526L602 525z"/>
<path style="fill:#6c7552; stroke:none;" d="M664.333 525.667L664.667 526.333L664.333 525.667M683.333 525.667L683.667 526.333L683.333 525.667z"/>
<path style="fill:#dcd5a3; stroke:none;" d="M709 525L708 527L709 525z"/>
<path style="fill:#6c7552; stroke:none;" d="M738.333 525.667L738.667 526.333L738.333 525.667M800 525L801 526L800 525M823 525L822 528L823 525z"/>
<path style="fill:#dcd5a3; stroke:none;" d="M190 526L190 527L208 527L190 526z"/>
<path style="fill:#c5ca67; stroke:none;" d="M208 526L208 527L306 528L274 526L208 526z"/>
<path style="fill:#dcd5a3; stroke:none;" d="M290 526L290 527L297 527L290 526M314.667 526.333L315.333 526.667L314.667 526.333z"/>
<path style="fill:#c5ca67; stroke:none;" d="M374 526L374 527L378 527L374 526z"/>
<path style="fill:#dcd5a3; stroke:none;" d="M378 526L378 527L383 527L378 526M410 526L410 527L414 527L410 526z"/>
<path style="fill:#c5ca67; stroke:none;" d="M414 526L414 527L418 527L414 526z"/>
<path style="fill:#dcd5a3; stroke:none;" d="M539.667 526.333L540.333 526.667L539.667 526.333M600 526L601 527L600 526z"/>
<path style="fill:#6c7552; stroke:none;" d="M709 526L710 527L709 526M801 526L802 527L801 526z"/>
<path style="fill:#dcd5a3; stroke:none;" d="M306.667 527.333L307.333 527.667L306.667 527.333z"/>
<path style="fill:#c5ca67; stroke:none;" d="M308 527L308 528L315 528L308 527M389 527L389 528L404 528L389 527z"/>
<path style="fill:#dcd5a3; stroke:none;" d="M543 527L551 529L551 528L543 527M599 527L600 528L599 527z"/>
<path style="fill:#6c7552; stroke:none;" d="M665 527L666 528L665 527M707.667 527.333L708.333 527.667L707.667 527.333z"/>
<path style="fill:#dcd5a3; stroke:none;" d="M738 527L739 528L738 527z"/>
<path style="fill:#6c7552; stroke:none;" d="M802 527L803 528L802 527z"/>
<path style="fill:#dcd5a3; stroke:none;" d="M596.667 528.333L597.333 528.667L596.667 528.333z"/>
<path style="fill:#6c7552; stroke:none;" d="M666 528L667 529L666 528M682 528L683 529L682 528z"/>
<path style="fill:#dcd5a3; stroke:none;" d="M703 528L704 529L703 528z"/>
<path style="fill:#c5ca67; stroke:none;" d="M704 528L705 529L704 528z"/>
<path style="fill:#6c7552; stroke:none;" d="M705.667 528.333L706.333 528.667L705.667 528.333M739 528L739 532L740 532L739 528M803 528L804 529L803 528M821 528L822 529L821 528z"/>
<path style="fill:#dcd5a3; stroke:none;" d="M553 529L553 530L556 530L553 529M595 529L596 530L595 529z"/>
<path style="fill:#6c7552; stroke:none;" d="M667 529L668 530L667 529M681 529L682 530L681 529M804 529L805 530L804 529z"/>
<path style="fill:#c5ca67; stroke:none;" d="M819 529L820 530L819 529z"/>
<path style="fill:#6c7552; stroke:none;" d="M820 529L821 530L820 529z"/>
<path style="fill:#dcd5a3; stroke:none;" d="M554 531L554 532L593 531C582.318 526.762 565.237 530.113 554 531z"/>
<path style="fill:#6c7552; stroke:none;" d="M645 540L646 540C649.667 529.244 657.112 531.257 665 536C658.408 527.607 647.154 528.9 645 540M668 530L669 531L668 530z"/>
<path style="fill:#c5ca67; stroke:none;" d="M680 530L681 531L680 530z"/>
<path style="fill:#6c7552; stroke:none;" d="M805 530L806 531L805 530z"/>
<path style="fill:#dcd5a3; stroke:none;" d="M817 530L818 531L817 530z"/>
<path style="fill:#6c7552; stroke:none;" d="M818 530L819 531L818 530z"/>
<path style="fill:#f2ede9; stroke:none;" d="M652.015 531.746C638.233 536.988 647.223 565.155 661.956 559.397C674.737 554.401 666.158 526.367 652.015 531.746z"/>
<path style="fill:#6c7552; stroke:none;" d="M669.667 531.333L670.333 531.667L669.667 531.333M679 531L680 532L679 531M807 531L807 532L817 532L807 531M671 532L671 533L674 533L671 532M676 532L676 533L679 533L676 532M740 532L739 540L740 540L740 532M674.667 533.333L675.333 533.667L674.667 533.333M689.667 535.333L690.333 535.667L689.667 535.333z"/>
<path style="fill:#f2ede9; stroke:none;" d="M691.001 535.693C684.371 537.455 682.087 544.704 678.988 550C673.099 560.067 656.594 579.09 672.044 589.258C682.27 595.988 691.761 581.168 702 580.177C708.433 579.555 714.796 584.208 721 582.343C729.717 579.724 732.627 569.706 728.95 562.001C724.737 553.175 709.98 544.334 702 538.799C698.873 536.63 694.893 534.658 691.001 535.693z"/>
<path style="fill:#6c7552; stroke:none;" d="M695 535L695 536L698 536L695 535z"/>
<path style="fill:#dcd5a3; stroke:none;" d="M739 535L740 536L739 535z"/>
<path style="fill:#6c7552; stroke:none;" d="M687 536L688 537L687 536z"/>
<path style="fill:#dcd5a3; stroke:none;" d="M688 536L689 537L688 536z"/>
<path style="fill:#6c7552; stroke:none;" d="M698.667 536.333L699.333 536.667L698.667 536.333M665 537L666 538L665 537M686 537L687 538L686 537M700 537L701 538L700 537M666.333 538.667L666.667 539.333L666.333 538.667M685 538L686 539L685 538z"/>
<path style="fill:#dcd5a3; stroke:none;" d="M701 538L702 539L701 538z"/>
<path style="fill:#6c7552; stroke:none;" d="M702 538L703 539L702 538M684 539L685 540L684 539M703 539L704 540L703 539z"/>
<path style="fill:#dcd5a3; stroke:none;" d="M645 540L646 541L645 540z"/>
<path style="fill:#6c7552; stroke:none;" d="M667 540L668 552L669 552L667 540M683.333 540.667L683.667 541.333L683.333 540.667M704 540L705 541L704 540M738.333 540.667L738.667 541.333L738.333 540.667M644 541L644 546L645 546L644 541M705 541L706 542L705 541M548 542.464C532.103 543.855 496.23 550.814 498.109 573C500.197 597.652 539.863 600.585 558 598.83C572.904 597.388 602.741 588.033 599.656 568C596.605 548.189 564.51 541.019 548 542.464M682.333 542.667L682.667 543.333L682.333 542.667M706 542L707 543L706 542M737 542L738 543L737 542M707 543L708 544L707 543M736 543L737 544L736 543M271 572C280.866 561.157 279.164 549.824 264 546.425C247.561 542.74 230.676 545 214 545C207.537 545 198.141 543.299 192.109 545.894C187.911 547.699 188.021 552.074 188.001 556C187.95 565.666 187.984 575.334 188 585C188.006 588.805 187.562 593.486 191.228 595.836C196.545 599.243 205.053 597 211 597C227.075 596.999 243.009 598.083 259 596.91C272.499 595.919 289.135 580.707 271 572M305 580L339 581.46L364 595.182L383 597L361 579C367.171 578.509 374.222 577.359 378.786 572.786C386.344 565.214 383.058 553.114 374 548.558C356.244 539.625 332.925 545 314 545C308.411 545 296.823 542.803 292.728 547.434C287.091 553.807 291 566.421 291 574C291 579.93 288.589 588.433 292.013 593.772C300.473 606.963 304.996 585.375 305 580M476 583C448.486 569.962 428.091 546 396 546C396 559.557 393.559 573.499 395.425 587C396.157 592.299 399.597 600.598 406.566 595.821C409.799 593.605 408.999 588.37 409 585C409.004 575.593 408.82 566.335 410 557C426.826 569.839 446.445 581.498 465 591.688C470.815 594.882 481.151 600.916 487.566 595.911C491.121 593.137 489.982 586.948 490.001 583C490.048 573.161 495.116 555.563 488.297 547.164C478.927 535.622 476 561.586 476 566L476 583M681.333 544.667L681.667 545.333L681.333 544.667M708 544L709 545L708 544z"/>
<path style="fill:#dcd5a3; stroke:none;" d="M724 544L725 545L724 544z"/>
<path style="fill:#6c7552; stroke:none;" d="M735 544L736 545L735 544M710 545L711 546L710 545M733.667 545.333L734.333 545.667L733.667 545.333z"/>
<path style="fill:#dcd5a3; stroke:none;" d="M645 546L646 547L645 546z"/>
<path style="fill:#6c7552; stroke:none;" d="M680.333 546.667L680.667 547.333L680.333 546.667M711 546L712 547L711 546M727 546L727 547L733 547L727 546M645 547L645 550L646 550L645 547M712 547L713 548L712 547M679.333 548.667L679.667 549.333L679.333 548.667M713 548L716 550L713 548M646 550L647 554L648 554L646 550M678 550L679 551L678 550M716 550L717 551L716 550M717.667 551.333L718.333 551.667L717.667 551.333z"/>
<path style="fill:#dcd5a3; stroke:none;" d="M647 552L648 553L647 552z"/>
<path style="fill:#6c7552; stroke:none;" d="M667 552L667 555L668 555L667 552M677 552L678 553L677 552M719.667 552.333L720.333 552.667L719.667 552.333M676.333 553.667L676.667 554.333L676.333 553.667M721 553L722 554L721 553z"/>
<path style="fill:#aac613; stroke:none;" d="M337 554.424C328.932 555.484 314.155 551.793 307.228 556.028C300.536 560.12 304.533 569.486 311.004 570.671C325.151 573.261 348.028 572.9 361.985 569.606C369.913 567.735 369.766 559.907 362.995 556.457C356.256 553.022 344.343 553.46 337 554.424M539 554.464C525.244 556.94 501.352 570.044 522 582.521C533.494 589.466 550.244 589.177 563 586.738C574.636 584.514 593.569 572.062 577.985 560.8C567.74 553.397 551.112 552.285 539 554.464z"/>
<path style="fill:#6c7552; stroke:none;" d="M648.333 554.667L648.667 555.333L648.333 554.667z"/>
<path style="fill:#c5ca67; stroke:none;" d="M722 554L723 555L722 554z"/>
<path style="fill:#6c7552; stroke:none;" d="M723 554L724 555L723 554z"/>
<path style="fill:#aac613; stroke:none;" d="M202.742 556.028C199.289 558.823 201.227 565.371 205.109 566.566C209.647 567.964 215.299 566.833 220 567.039C230.589 567.503 254.295 574.007 262.396 564.442C266.2 559.95 261.517 555.617 256.999 555.109C243.997 553.646 230.088 555 217 555C213.325 555 205.772 553.575 202.742 556.028z"/>
<path style="fill:#6c7552; stroke:none;" d="M666.333 555.667L666.667 556.333L666.333 555.667M675 555L676 556L675 555M724 555L725 556L724 555M649 556L650 557L649 556M674.333 556.667L674.667 557.333L674.333 556.667M725 556L726 557L725 556M650 557L651 558L650 557M665 557L666 558L665 557M726 557L727 558L726 557M651 558L652 559L651 558M664 558L665 559L664 558M673 558L674 559L673 558M727.333 558.667L727.667 559.333L727.333 558.667M652.667 559.333L653.333 559.667L652.667 559.333M663 559L664 560L663 559M672 559L673 560L672 559M654 560L654 561L663 561L654 560z"/>
<path style="fill:#dcd5a3; stroke:none;" d="M672 560L673 561L672 560z"/>
<path style="fill:#6c7552; stroke:none;" d="M728 560L729 561L728 560M671 561L672 562L671 561M729.333 561.667L729.667 562.333L729.333 561.667M670 562L671 563L670 562M730 563L730 567L731 567L730 563M669 564L670 565L669 564M668.333 565.667L668.667 566.333L668.333 565.667M667.333 567.667L667.667 568.333L667.333 567.667M731 567L730 575L731 575L731 567M666.333 569.667L666.667 570.333L666.333 569.667M665 571L665 581L666 581L665 571z"/>
<path style="fill:#aac613; stroke:none;" d="M235 575.424C227.715 576.381 207.825 572.339 202.604 577.603C196.854 583.401 206.241 588.514 211 588.907C225.327 590.088 243.944 590.558 257.999 587.656C264.228 586.37 266.964 579.544 259.981 576.742C253.053 573.963 242.274 574.469 235 575.424z"/>
<path style="fill:#6c7552; stroke:none;" d="M729.333 575.667L729.667 576.333L729.333 575.667M728 577L729 578L728 577M727 578L728 579L727 578M726 579L727 580L726 579M699 580L699 581L709 581L699 580M725 580L726 581L725 580M666 581L666 584L667 584L666 581z"/>
<path style="fill:#dcd5a3; stroke:none;" d="M695 581L696 582L695 581z"/>
<path style="fill:#6c7552; stroke:none;" d="M696.667 581.333L697.333 581.667L696.667 581.333M709 581L709 582L712 582L709 581z"/>
<path style="fill:#c5ca67; stroke:none;" d="M712 581L713 582L712 581z"/>
<path style="fill:#6c7552; stroke:none;" d="M723.667 581.333L724.333 581.667L723.667 581.333M693.667 582.333L694.333 582.667L693.667 582.333M713.667 582.333L714.333 582.667L713.667 582.333M721.667 582.333L722.333 582.667L721.667 582.333M691.667 583.333L692.333 583.667L691.667 583.333M716 583L716 584L720 584L716 583M667.333 584.667L667.667 585.333L667.333 584.667M690 584L691 585L690 584M688.667 585.333L689.333 585.667L688.667 585.333M668 586L669 587L668 586M687 586L688 587L687 586M669 587L672 590L669 587M686 587L687 588L686 587M685 588L686 589L685 588M684.333 589.667L684.667 590.333L684.333 589.667M672.667 590.333L673.333 590.667L672.667 590.333z"/>
<path style="fill:#dcd5a3; stroke:none;" d="M683 590L684 591L683 590z"/>
<path style="fill:#6c7552; stroke:none;" d="M674 591L674 592L683 592L674 591z"/>
</svg>
