<?xml version="1.0" standalone="yes"?>
<svg xmlns="http://www.w3.org/2000/svg" width="1024" height="1024">
<path style="fill:#abc713; stroke:none;" d="M0 0L0 1024L1024 1024L1024 0L0 0z"/>
<path style="fill:#c2c963; stroke:none;" d="M511.424 422.844C506.346 424.674 484.986 429.878 488.647 438.686C491.363 445.218 508.014 438.476 513 439.26C536.69 442.984 559.366 449.455 581.715 458.883C592.032 463.236 600.219 471.272 608 478.999C610.58 481.562 614.594 486.758 618.852 485.338C624.119 483.581 621.2 477.014 619.879 473.715C615.753 463.412 611.318 453.3 602.335 445.998C582.942 430.237 556.74 422 532 422C525.622 422 517.483 420.661 511.424 422.844M708 505C697.914 535.997 721.941 566.568 709 598C722.131 600.819 717.766 576.633 720 568L721 568C724.13 579.137 721.93 587.133 720 598C731.228 599.953 728.661 590.844 727.439 583C725.983 573.658 726.184 561.335 727.286 552C727.674 548.712 727.723 543.934 730.434 541.604C737.915 535.173 741.898 549.574 743.731 554C748.23 564.865 751.917 578.09 749.772 590C749.047 594.02 746.066 597.077 745 601L762 601C761.276 585.161 760.457 570.034 762.174 554C763.419 542.364 768.606 530.382 763.175 519C756.622 505.265 740.081 505.943 733.032 493C727.015 481.95 749.628 474.182 732 468C739.495 467.586 745.441 474.561 751.001 478.888C756.618 483.259 765.123 489.297 768.062 496.015C770.037 500.528 768.691 506.199 769.439 511C772.223 528.867 772 546.918 772 565C772 573.719 770.955 582.286 771.001 591C771.016 593.838 770.561 599.094 774.21 600.029C777.816 600.954 779.425 596.748 779.811 593.996C781.092 584.872 781.955 574.217 781.999 565C782.107 542.7 787.353 520.029 790.579 498C791.841 489.389 792.596 477.652 799.478 471.434C805.549 465.95 818.404 470.706 825.996 466.672C832.379 463.281 846.133 448.289 840.431 441.209C829.341 427.44 813.718 419.292 796 422.224C791.016 423.048 787.141 426.474 782 426.961C774.734 427.649 768.112 425.557 761 426.094C752.22 426.758 741.733 429.769 733 431.514C725.984 432.916 713.643 439.588 707.04 438.574C699.941 437.484 701.356 426.087 694.717 423.847C690.414 422.396 673.19 440.953 676.136 445.357C678.855 449.422 689.36 443.56 693.436 447.523C695.935 449.953 697.187 455.799 694.592 458.486C689.837 463.408 678.16 460.698 672 461.043C663.724 461.507 658.532 465.497 652.545 470.431C649.997 472.53 644.349 473.552 644.921 477.95C645.565 482.89 652.582 482.52 656 483.839C663.766 486.835 678.817 490.019 683.772 497.148C697.587 517.022 691 553.196 691 576C691 580.83 687.936 602.637 697.772 598.392C703.642 595.859 701 580.221 701 575C701 559.044 700.18 543.008 699.996 527C699.904 518.985 699.99 509.516 708 505z"/>
<path style="fill:#e1d29b; stroke:none;" d="M510 425L510 426C522.328 422.153 540.672 422.153 553 426C546.869 419.555 517.63 421.03 510 425M730 487L737.654 474.988L728 465L745 470C752.572 456.224 762.971 477.459 767 483L759 482C761.607 486.894 767.367 489.84 769.299 495.093C777.053 516.176 773 544.954 773 567C773 574.613 773.518 582.437 772.576 590C772.276 592.411 771.447 596.391 774.259 597.744C779.193 600.117 777.967 588.13 778.17 586C779.436 572.69 780.18 559.252 782 546C784.111 530.627 786.158 515.311 788.714 500C789.975 492.453 790.211 482.792 793.863 476C795.482 472.988 797.683 469.849 801.005 468.603C806.526 466.533 813.229 468.7 819 467.24C828.126 464.931 828.785 460.652 834.299 454.464C836.539 451.949 840.348 449.87 840.172 445.989C839.991 441.99 835.177 438.65 832.576 436.065C829.372 432.881 825.418 430.146 821.714 427.556C809.449 418.979 798.527 425.057 786 427.741C776.788 429.714 768.126 427.15 759 428.174C752.737 428.877 747.406 432.431 741 432.911C731.267 433.641 715.421 434.43 707.608 441.164C704.437 443.897 708.335 450.906 709.424 454C713.09 464.419 718.598 482.938 730 487z"/>
<path style="fill:#ece7e0; stroke:none;" d="M513 424.71C509.678 425.545 486.78 432.4 491.086 438.297C495.241 443.988 508.928 435.835 515 437.545C538.646 444.203 563.495 446.909 586 458.772C595.329 463.69 602.55 470.688 610 477.995C611.716 479.678 615.498 484.422 618.396 482.824C621.733 480.983 618.287 475.317 617.525 473.015C614.535 463.977 608.901 453.231 601 447.545C577.544 430.661 542.474 417.301 513 424.71z"/>
<path style="fill:#e1d29b; stroke:none;" d="M504 426L505 427L504 426M558 426L559 427L558 426M503 427L504 428L503 427M559 427L566 429L566 428L559 427M499 428L499 429L503 429L499 428M498 429L499 430L498 429M566 429L568 431L568 429L566 429M497 430L493 431L493 432L497 430M568 431L568 432L575 432L568 431M492.333 432.667L492.667 433.333L492.333 432.667M575 432L576 433L575 432M576 433L577 434L576 433M490.667 434.333L491.333 434.667L490.667 434.333M577 434L577 435L584 435L577 434M584.333 435.667L584.667 436.333L584.333 435.667M489 436L489 439L490 439L489 436M504 437L504 438L517 438L504 437M585 437L587 439L587 437L585 437M503 438L502 440L504 440L503 438M517 438L518 439L517 438M490.667 439.333L491.333 439.667L490.667 439.333M518 439L519 440L518 439M587 439L587 440L591 440L587 439M536 440L537 441L536 440M591 440L592 441L591 440M537 441L544 443L544 442L537 441M592 441L593 442L592 441M593 442L594 443L593 442M544 443L545 444L544 443M594 443L595 444L594 443M545 444L546 445L545 444M595 444L596 445L595 444M546 445L546 446L553 446L546 445M596 445L596 446L600 446L596 445M553 446L553 448L555 448L553 446M600 446L601 447L600 446M601 447L602 448L601 447M555 448L555 449L562 450L555 448M602 448L603 449L602 448z"/>
<path style="fill:#c2c963; stroke:none;" d="M502.17 449.684C494.686 452.123 486.161 451.701 479.748 457.013C459.685 473.636 479.451 498.133 494.424 509.291C514.97 524.601 547.047 533 572 533C579.066 533 588.293 534.549 595 532.116C609.823 526.738 618.002 510.936 609.991 496C607.304 490.991 601.97 486.982 598.001 483C579.295 464.235 548.507 455.034 523 451.867C515.818 450.976 509.735 447.218 502.17 449.684z"/>
<path style="fill:#e1d29b; stroke:none;" d="M603 449L604 450L603 449M562 450L563 451L562 450M604 450L605 451L604 450M501 451C491.823 455.898 483.082 453.063 476 463L497.935 453.917L501 451z"/>
<path style="fill:#ece7e0; stroke:none;" d="M502.285 451.88C494.707 454.839 486.7 453.64 480.135 459.478C462.86 474.841 481.049 493.8 492.627 504.88C497.823 509.852 504.648 512.12 510.999 515.251C530.305 524.768 550.442 531 572 531C579.172 531 588.282 532.5 595 529.696C619.53 519.458 610.749 498.719 596 484C578.448 466.484 547.145 455.88 523 453.942C515.818 453.366 509.807 448.942 502.285 451.88z"/>
<path style="fill:#e1d29b; stroke:none;" d="M516 451L518 453L518 451L516 451M569 451L570 452L569 451M605 451L606 452L605 451M570 452L574 454L574 453L570 452M606 452L607 453L606 452M518 453L518 454L533 454L518 453M607 453L608 454L607 453M533 454L534 455L533 454M575.333 454.667L575.667 455.333L575.333 454.667M608 454L609 455L608 454M534 455L535 456L534 455M535 456L535 457L545 457L535 456M576 456L576 457L583 457L576 456M545.333 457.667L545.667 458.333L545.333 457.667M583 457L584 458L583 457M609.333 457.667L609.667 458.333L609.333 457.667z"/>
<path style="fill:#c2c963; stroke:none;" d="M217 480L231 480C224.267 489.256 208.676 500.891 198.739 507.12C192.013 511.337 181.653 518.405 181 527L276 527C288.731 527 306.671 530.298 318.852 526.682C323.707 525.241 324.272 498.097 320.397 495.028C314.72 490.532 295.196 494 288 494L292 488C299.177 488.272 313.007 474.395 317.941 469C320.096 466.645 324.34 460.902 319.682 458.603C312.411 455.016 297.09 458 289 458L214 458C208.4 458 185.177 454.885 183.318 461.148C181.963 465.712 180.767 486.934 184.603 489.972C188.171 492.798 211.829 492.798 215.397 489.972C217.915 487.977 217 482.819 217 480M376 458.88C365.239 462.586 353.597 461.707 342.999 467.019C330.38 473.344 318.601 489.146 326.028 504C330.082 512.108 340.228 517.729 348.286 521.124C362.692 527.194 378.602 527 394 527C411.474 527 428.524 527.41 445.001 521.12C451.27 518.727 460.571 514.506 465.116 509.451C476.767 496.493 469.754 478.395 456.7 469.794C439.98 458.778 416.328 458 397 458C390.426 458 382.276 456.718 376 458.88z"/>
<path style="fill:#e1d29b; stroke:none;" d="M584 458L585 459L584 458M216 479L234 479L227 486L227 487L235 479C223.855 475.706 215.001 476.536 215 489L185 489L185 460L320 460L308 476C311.137 473.791 323.003 465.327 319.914 460.603C318.132 457.88 311.736 459 309 459L279 459L210 459C204.343 459 190.15 456.427 185.603 460.028C181.901 462.96 183.022 482.488 184.318 486.852C185.746 491.664 194.17 490 198 490C209.182 490 215.999 492.056 216 479M375 462C385.896 457.383 411.104 457.383 422 462C415.392 455.252 395.095 458.999 386 459C381.704 459 377.698 458.26 375 462M546 459L546 460L553 460L546 459M585 459L585 460L589 460L585 459M610 459L611 460L610 459z"/>
<path style="fill:#ece7e0; stroke:none;" d="M185 460L185 489L215 489C215.01 476.353 224.238 476.438 235 479C222.102 497.246 193.263 504.436 183 525C193.242 528.027 206.338 526 217 526L285 526C292.348 526 312.596 529.566 318.397 524.972C323.05 521.287 320 501.703 320 496L288 496C287.965 508.226 281.315 507 271 507C275.955 496.382 294.48 484.383 304 477.545C310.403 472.946 318.685 468.519 320 460L185 460M377 460.71C368.572 462.811 360.54 462.475 352.285 465.875C345.063 468.849 336.55 471.86 331.299 478.055C316.78 495.184 334.099 512.419 349.424 519.12C373.366 529.59 410.166 529.451 435 522.455C444.071 519.9 457.687 514.798 463.95 507.455C473.519 496.235 467.87 480.28 457 472.546C440.422 460.749 417.537 460 398 460C391.211 460 383.621 459.059 377 460.71z"/>
<path style="fill:#e1d29b; stroke:none;" d="M553 460L554 461L553 460M589 460L590 461L589 460M611 460L612 461L611 460M554 461L555 462L554 461M590 461L591 462L590 461M612 461L613 462L612 461M360 462L361 463L360 462M433 462L434 463L433 462M560.667 462.333L561.333 462.667L560.667 462.333M591 462L592 463L591 462M613 462L614 467L615 467L613 462M646 479C666.189 487.972 687.2 488.265 691.671 514C695.118 533.836 692 556.854 692 577C692 583.792 689.167 596.558 698 598L698.213 518L706 499L703 502L698 501L697 509L696 509L691 494L696 497L697 497L703 498L698 462C681.803 462 666.567 460.734 653.741 471.517C650.505 474.237 647.347 474.696 646 479z"/>
<path style="fill:#c2c963; stroke:none;" d="M769 465L759 463C759.469 469.511 764.24 477.755 770 481C769.408 477.05 767.893 474.28 764 473L765 469L766 469L767 472L770 472L771 469L772 469C772.139 473.172 772.747 475.072 777 476C778.457 469.88 777.831 456.76 769 465M782 462L781 470C784.145 467.776 784.241 465.006 782 462z"/>
<path style="fill:#e1d29b; stroke:none;" d="M359 463L360 464L359 463M434 463L435 464L434 463M592 463L593 464L592 463M353 464L353 465L359 465L353 464M435 464L435 465L444 465L435 464M562 464L562 465L566 465L562 464M593.667 464.333L594.333 464.667L593.667 464.333z"/>
<path style="fill:#abc713; stroke:none;" d="M772 464L774 471L775 471L776 464L772 464z"/>
<path style="fill:#e1d29b; stroke:none;" d="M351 465L352 466L351 465M444 465L446 467L446 465L444 465M475.333 465.667L475.667 466.333L475.333 465.667M566 465L568 467L568 465L566 465M597 465L598 466L597 465z"/>
<path style="fill:#c2c963; stroke:none;" d="M787 465L781.39 482L779 524C780.714 519.915 779.633 515.342 780.304 511C781.497 503.279 784.231 494.417 786.795 487C788.589 481.808 794.804 473.588 794.408 468.228C794.151 464.743 789.475 465.06 787 465z"/>
<path style="fill:#e1d29b; stroke:none;" d="M350 466L344 467L344 468L350 466M598 466L598 468L600 468L598 466z"/>
<path style="fill:#abc713; stroke:none;" d="M782 493L790.085 474L791.4 467.176L786.707 472.005L782 493z"/>
<path style="fill:#e1d29b; stroke:none;" d="M446 467L446 468L450 468L446 467M474 467L475 468L474 467M568 467L568 468L572 468L568 467M615.667 467.333L616.333 467.667L615.667 467.333z"/>
<path style="fill:#abc713; stroke:none;" d="M749 468C751.691 473.725 757.354 478.261 763 481L755 467L749 468z"/>
<path style="fill:#e1d29b; stroke:none;" d="M343 468L344 469L343 468M450 468L451 469L450 468M473.333 468.667L473.667 469.333L473.333 468.667M572 468L573 469L572 468M600 468L601 469L600 468M617 468L617 475L618 475L617 468M342 469L343 470L342 469M451 469L452 470L451 469M573 469L574 470L573 469M601 469L601 471L603 471L601 469M341 470L342 471L341 470M452 470L452 471L456 471L452 470M574 470L574 471L578 471L574 470M340 471L341 472L340 471M456 471L457 472L456 471M473 471L473 481L474 481L473 471M578 471L579 472L578 471M603 471L603 473L605 473L603 471M745 471L747 473L747 471L745 471M339 472L340 473L339 472M457 472L458 473L457 472M579 472L580 473L579 472M335 473L335 474L338 474L335 473M458 473L459 474L458 473M580 473L580 474L584 474L580 473M605 473L606 474L605 473M334 474L335 475L334 474M459 474L460 475L459 474M584 474L584 476L586 476L584 474M606 474L606 476L608 476L606 474M333 475L334 476L333 475M460 475L461 476L460 475M618 475L619 476L618 475M304.667 476.333L305.333 476.667L304.667 476.333M332 476L333 477L332 476M461 476L462 477L461 476M534 476C528.051 481.144 523.103 483.281 523 492L524 492C524.289 483.11 530.733 481.622 536 476L534 476z"/>
<path style="fill:#c2c963; stroke:none;" d="M526 500C531.937 501.662 536.864 505.801 543 507.657C550.25 509.849 561.548 502.876 561.404 495.015C561.159 481.612 542.836 472.993 532 478.773C528.147 480.828 524.938 483.529 524.074 488C523.237 492.335 525.083 495.893 526 500z"/>
<path style="fill:#e1d29b; stroke:none;" d="M544 476L545 477L544 476M588 476L590 478L590 476L588 476M608 476L609 477L608 476M619 476L620 477L619 476M303 477L302 479L304 479L303 477M331 477L332 478L331 477M462 477L463 478L462 477z"/>
<path style="fill:#abc713; stroke:none;" d="M527 499L544 508C554.023 504.081 558.354 502.926 561 492L548 480L547 481C550.169 487.056 552.142 505.878 539.044 502.288C526.9 498.959 537.627 483.706 544 481C541.358 473.041 529.419 479.937 526.303 484.75C523.479 489.111 526.073 494.483 527 499z"/>
<path style="fill:#e1d29b; stroke:none;" d="M545 477L550 479L550 478L545 477M609 477L609 479L611 479L609 477M620 477L620 483L621 483L620 477M330 478L331 479L330 478M379 486C387.77 479.673 394.403 479 405 479C397.098 475.684 383.078 477.762 379 486M463 478L464 479L463 478M590 478L593 481L590 478M301 479L299 482L301 479M329 479L330 480L329 479z"/>
<path style="fill:#c2c963; stroke:none;" d="M388.286 479.88C363.547 489.789 388.143 513.92 407 505.454C430.294 494.997 405.592 472.949 388.286 479.88z"/>
<path style="fill:#e1d29b; stroke:none;" d="M406.333 479.667L406.667 480.333L406.333 479.667M464 479L465 480L464 479M550 479L551 480L550 479M611 479L612 480L611 479z"/>
<path style="fill:#abc713; stroke:none;" d="M377 492C383.149 502.941 391.757 508.855 403.961 505.244C408.503 503.9 414.845 500.143 415.667 494.866C417.626 482.278 399.038 477.76 390.17 480.545C383.173 482.742 381.584 487.239 377 492z"/>
<path style="fill:#e1d29b; stroke:none;" d="M465 480L466 481L465 480M551 480L556 482L556 481L551 480M612 480L612 482L614 482L612 480M757 480L758 481L757 480M407 481L407 482L411 482L407 481M466 481L467 482L466 481M593 481L595 483L595 481L593 481M298 482L296 485L298 482M328.333 482.667L328.667 483.333L328.333 482.667M411 482L412 483L411 482M467 482L467 489L468 489L467 482M473.333 482.667L473.667 483.333L473.333 482.667M556.333 482.667L556.667 483.333L556.333 482.667M614 482L614 484L616 484L614 482z"/>
<path style="fill:#c2c963; stroke:none;" d="M771 482L772 483L771 482z"/>
<path style="fill:#e1d29b; stroke:none;" d="M412 483L413 484L412 483M595 483L596 484L595 483M619 483L620 484L619 483M326 484L326 503L327 503L328 484L326 484M413 484L414 487L415 487L415 484L413 484M474 484L476 486L476 484L474 484M557 484L559 486L559 484L557 484M596 484L598 486L598 484L596 484M616 484L616 485L619 485L616 484M295 485L294 487L296 487L295 485M598 486L599 487L598 486M224 487L225 488L224 487M290 487L290 489L292 487L290 487M559 487L561 490L559 487M599 487L601 489L601 487L599 487M223 488L224 489L223 488M378 488L377 490L379 490L378 488M476 488L476 490L478 490L476 488M222 489L223 490L222 489M289 489L290 490L289 489M415.667 489.333L416.333 489.667L415.667 489.333M468 489L469 490L468 489M601 489L602 490L601 489M221 490L222 491L221 490M287 490L287 492L289 490L287 490M376.333 490.667L376.667 491.333L376.333 490.667M417 490L416 498L417 490M469 490L470 491L469 490M478.333 490.667L478.667 491.333L478.333 490.667M561.333 490.667L561.667 491.333L561.333 490.667M602 490L604 492L604 490L602 490M220 491L221 492L220 491M470 491L470 495L471 495L470 491M219 492L220 493L219 492M285.667 492.333L286.333 492.667L285.667 492.333M479.667 492.333L480.333 492.667L479.667 492.333M604 492L607 495L604 492M218 493L219 494L218 493M284.333 493.667L284.667 494.333L284.333 493.667M376.333 493.667L376.667 494.333L376.333 493.667M481.333 493.667L481.667 494.333L481.333 493.667M523.333 493.667L523.667 494.333L523.333 493.667M561 493L561 497L562 497L561 493M217 494L218 495L217 494M216 495L217 496L216 495M281 498L284 495L281 498M288 495L288 496L320 496L288 495M377 495L378 496L377 495M468.667 495.333L469.333 495.667L468.667 495.333M482.667 495.333L483.333 495.667L482.667 495.333M524 495L525 496L524 495M607 495L609 497L609 495L607 495M215 496L216 497L215 496z"/>
<path style="fill:#c2c963; stroke:none;" d="M283 496L272 506L286 506L286 505L274 505L283 496z"/>
<path style="fill:#abc713; stroke:none;" d="M284 496L274 505L286 505L286 496L284 496z"/>
<path style="fill:#e1d29b; stroke:none;" d="M287 496L287 505L288 505L287 496M320 496L319 526C323.416 522.141 322.23 501.315 320 496M378 496L379 497L378 496M467 496L467 503L468 503L467 496M484.333 496.667L484.667 497.333L484.333 496.667M525.333 496.667L525.667 497.333L525.333 496.667M214 497L215 498L214 497M609 497L609 500L610 500L609 497M210.667 498.333L211.333 498.667L210.667 498.333M277 498L277 499L280 499L277 498M415 498L416 499L415 498M485 498L487 500L487 498L485 498M209 499L210 500L209 499M276 499L277 500L276 499M414 499L413 501L415 501L414 499M561 499L560 501L562 501L561 499M208 500L209 501L208 500M275 500L276 501L275 500M379 500L380 501L379 500M487 500L488 501L487 500M526 500L526 501L530 501L526 500M207 501L208 502L207 501M274 501L275 502L274 501M380 501L382 503L382 501L380 501M412 501L413 502L412 501M489.333 501.667L489.667 502.333L489.333 501.667M530 501L531 502L530 501M559 501L560 502L559 501M609.333 501.667L609.667 502.333L609.333 501.667M206 502L207 503L206 502M273 502L274 503L273 502M411 502L410 504L412 504L411 502M531 502L532 503L531 502M558 502L557 504L559 504L558 502M205 503L206 504L205 503M272 503L273 504L272 503M327 503L328 504L327 503M382 503L382 504L386 504L382 503M466 503L467 504L466 503M490.667 503.333L491.333 503.667L490.667 503.333M532 503L533 504L532 503M610 503L611 504L610 503M204 504L205 505L204 504M271 504C271.982 508.584 284.921 508.608 287 505C281.601 506.285 275.975 506.767 271 504M328 504L329 505L328 504M386 504L387 505L386 504M409 504L402 506L402 507C404.655 506.989 409.59 507.58 409 504M465 504L466 505L465 504M492.333 504.667L492.667 505.333L492.333 504.667M533 504L534 505L533 504M556 504L549 506L549 507C551.655 506.989 556.59 507.58 556 504M611.333 504.667L611.667 505.333L611.333 504.667M203 505L204 506L203 505M329 505L330 506L329 505M387 505L388 506L387 505M534 505L535 506L534 505M202 506L203 507L202 506M330 506L331 507L330 506M388 506L388 507L392 507L388 506M493.667 506.333L494.333 506.667L493.667 506.333M535 506L535 507L542 507L535 506M201 507L202 508L201 507M331 507L332 508L331 507M392 507L393 508L392 507M401 507L402 508L401 507M464.333 507.667L464.667 508.333L464.333 507.667M495.333 507.667L495.667 508.333L495.333 507.667M542 507L542 509L544 509L542 507M548 507L549 508L548 507M611 507L611 511L612 511L611 507M200 508L201 509L200 508M332 508L333 509L332 508M393 508L394 509L393 508M400 508L401 509L400 508M547 508L548 509L547 508M196 509L196 510L200 510L196 509M333 509L334 510L333 509M394 509L394 510L400 510L394 509M460 509L460 510L464 510L460 509M496 509L496 510L501 511L496 509M544 509L544 510L547 510L544 509M195 510L194 512L196 512L195 510M334 510L335 511L334 510M459 510L460 511L459 510M335 511L336 512L335 511M458 511L459 512L458 511M501 511L502 512L501 511M193 512L194 513L193 512M336 512L337 513L336 512M457 512L458 513L457 512M505 512L506 513L505 512M192 513L191 515L193 515L192 513M337 513L338 514L337 513M456 513L457 514L456 513M506 513L507 514L506 513M611 513L610 515L612 515L611 513M338 514L338 515L341 515L338 514M452 514L452 515L456 515L452 514M507 514L507 515L511 515L507 514M190 515L188 518L190 515M342 515L349 520L342 515M451 515L452 516L451 515M511 515L512 516L511 515M609.333 515.667L609.667 516.333L609.333 515.667M450 516L451 517L450 516M512 516L513 517L512 516M446 517L446 518L450 518L446 517M513 517L513 518L517 518L513 517M187 518L185 521L187 518M445.333 518.667L445.667 519.333L445.333 518.667M517.333 518.667L517.667 519.333L517.333 518.667M608 519L609 520L608 519M349 520L349 521L356 521L349 520M438 520L438 521L445 521L438 520M518 520L518 521L525 521L518 520M607 520L608 521L607 520M184 521L183 523L185 523L184 521M356 521L357 522L356 521M437 521L438 522L437 521M525 521L526 522L525 521M606 521L606 525L607 525L606 521M357 522L358 523L357 522M436 522L437 523L436 522M526 522L527 523L526 522M182 523L184 526L182 523M358 523L358 524L370 524L358 523M423 525L435 524C431.479 522.522 425.661 521.955 423 525M528 523L528 524L531 524L528 523M370 524L371 525L370 524M531 524L532 525L531 524M371.667 525.333L372.333 525.667L371.667 525.333M421.667 525.333L422.333 525.667L421.667 525.333M532 525L533 526L532 525M539 525L540 526L539 525M604.667 525.333L605.333 525.667L604.667 525.333M541 526L542 527L541 526M601 526L602 527L601 526M542 527L543 528L542 527M600 527L601 528L600 527M543 528L543 529L553 529L543 528M596 528L596 529L600 529L596 528M553.333 529.667L553.667 530.333L553.333 529.667M595 529L596 530L595 529M594 530L595 531L594 530M554 531L554 532L594 532C583.488 527.589 565.434 531 554 531z"/>
<path style="fill:#668023; stroke:none;" d="M537 543.464C518.317 546.736 481.047 564.394 506.093 586.532C521.375 600.039 546.933 601.021 566 597.679C583.231 594.659 612.956 576.839 593.696 557.3C580.461 543.873 554.915 540.326 537 543.464M271 572C281.138 562.457 281.516 550.531 266 546.75C249.302 542.681 230.072 545 213 545C206.645 545 197.038 543.229 191.148 545.894C187.242 547.661 188.002 552.44 188 556L188 585C188 588.341 187.063 593.8 190.318 595.972C194.739 598.923 204.852 597 210 597C226.765 597 244.321 598.498 261 596.829C274.37 595.492 289.856 579.425 271 572M305 580L339 580.649L365 596.005L384 597L360 579C366.424 578.723 374.032 577.392 378.867 572.775C386.433 565.55 384.159 553.575 374.96 549.046C357.801 540.597 331.598 545 313 545C307.822 545 296.79 542.96 292.742 546.858C288.111 551.318 291 567.917 291 574C291 579.361 288.962 590.088 292.028 594.682C294.044 597.704 301.644 598.244 303.397 594.682C305.219 590.979 304.472 584.179 305 580M396 546C396 560.993 393.632 578.176 396.148 592.941C396.915 597.443 405.164 598.942 407.972 595.397C410.046 592.779 409 587.121 409 584C409 575.023 408.356 565.855 410 557C427.279 568.647 445.368 579.212 463 590.319C469.397 594.348 479.607 600.436 487.566 596.397C491.105 594.601 490 588.227 490 585C490.001 575.303 493.565 557.05 489.397 548.303C484.498 538.024 476.01 549.809 476 556L476 566L476 583C448.546 572.949 427.135 542.065 396 546z"/>
<path style="fill:#abc713; stroke:none;" d="M718 546L718 556L720 556L718 546M540 554.464C529.349 556.333 501.057 566.713 519.044 580.362C530.588 589.122 549.432 588.958 563 586.674C573.148 584.967 593.447 574.164 579.891 562.532C570.261 554.27 552.065 552.347 540 554.464M202 555C201.424 558.107 199.777 563.572 202.742 565.972C205.772 568.425 213.325 567 217 567C228.395 567 250.899 571.33 260.941 565.821C265.294 563.433 265.568 558.142 260.891 556.009C255.856 553.713 248.411 555 243 555L227 555L202 555M306.434 556.028C302.909 558.454 302.511 568.305 307.148 569.682C319.884 573.463 338.686 570 352 570C356.652 570 362.924 571.029 366.566 567.427C372.309 561.749 365.56 556.349 359.999 555.44C347.515 553.398 333.64 555 321 555C317.004 555 309.881 553.655 306.434 556.028M754 573L754 589L755 589L754 573M202.603 577.028C199.185 579.737 201.278 586.601 205.109 587.682C217.763 591.254 235.829 588.005 249 588C253.284 587.998 260.09 588.672 263.396 585.272C267.533 581.018 262.17 576.578 257.999 576.109C244.673 574.609 230.414 576 217 576C213.27 576 205.697 574.576 202.603 577.028z"/>
</svg>
