<?xml version="1.0" standalone="yes"?>
<svg xmlns="http://www.w3.org/2000/svg" width="1024" height="1024">
<path style="fill:#abc713; stroke:none;" d="M0 0L0 1024L1024 1024L1024 0L0 0z"/>
<path style="fill:#bfcd63; stroke:none;" d="M524 425C531.574 421.791 542.426 421.791 550 425C546.332 419.913 527.668 419.914 524 425z"/>
<path style="fill:#cbd79c; stroke:none;" d="M495 443C506.859 442.991 518.456 439.547 530.675 440.99C551.395 443.436 578.239 452.777 596.039 463.865C604.055 468.858 610.059 474.616 617 480.941C618.792 482.575 622.609 486.168 624.972 483.377C632.411 474.594 613.072 455.062 608 450C588.45 430.489 549.963 418.614 523 424.546C512.555 426.843 495.438 429.498 495 443z"/>
<path style="fill:#bfcd63; stroke:none;" d="M516 424L516 425L522 425L516 424z"/>
<path style="fill:#eaebe9; stroke:none;" d="M496 442C506.791 441.874 516.677 438.15 528 439.058C546.761 440.562 568.745 449.872 586.001 457.304C593.158 460.387 601.44 464.442 607.251 469.68C612.567 474.472 617.595 482.867 625 484C624.633 451.09 587.162 435.944 561.17 428.505C553.509 426.313 546.13 424.004 538 424C525.984 423.995 498.305 427.066 496 442z"/>
<path style="fill:#bfcd63; stroke:none;" d="M552 424L552 425L558 425L552 424M507 427L507 428L516 425L507 427M558 425L560 427L560 425L558 425M560 427L560 428L570 428L560 427M505 428L505 430L507 428L505 428M570 428L571 429L570 428M571 429L580 433L571 429M501 430L501 431L505 431L501 430M500 431L501 432L500 431M499 432L498 434L500 434L499 432M580 433L580 434L585 435L580 433M497 434L495 437L497 434M585 435L586 436L585 435M586 436L586 437L590 437L586 436M494 437L494 443L495 443L494 437M590 437L602 444L590 437M506 440L507 441L506 440M531 440L532 441L531 440M504 441L504 443L506 441L504 441M532 441L534 443L534 441L532 441M495 443L495 444L504 444L495 443M534 443L534 444L544 444L534 443M544 444C546.48 447.825 550.808 447 555 447L555 446L544 444M602 444L605 447L602 444M555 447L555 449L557 449L555 447M605 447L608 450L605 447M557 449L557 450L564 451L557 449M608 450L610 452L610 450L608 450M564.667 451.333L565.333 451.667L564.667 451.333M539 527L539 526C517.152 516.679 486.421 507.763 478.545 481.911C474.732 469.395 485.004 459.047 496 455.475C515.063 449.281 539.837 453.303 558 461C554.826 456.104 543.503 456.019 538 454.455C523.83 450.429 504.089 449.508 490.285 455.599C472.937 463.253 474.447 484.82 484.998 497.251C491.22 504.581 499.995 509.4 507.996 514.512C516.822 520.151 528.795 524.602 539 527M566 452L566 453L569 453L566 452M571 452L572 453L571 452M610 452L611 453L610 452z"/>
<path style="fill:#cbd79c; stroke:none;" d="M499 453.88C491.028 456.629 482.945 460.096 478.938 468.286C473.547 479.305 483.267 496.138 491.996 502.454C514.904 519.031 540.277 528.352 568 532.143C580.358 533.834 590.559 535.635 603 531.116C629.696 521.419 614.544 493.734 600.001 481.143C580.873 464.584 545.871 453 521 453C514.144 453 505.541 451.623 499 453.88z"/>
<path style="fill:#bfcd63; stroke:none;" d="M572 453L577 455L577 454L572 453M611 453L613 455L613 453L611 453z"/>
<path style="fill:#eaebe9; stroke:none;" d="M499.285 454.88C491.768 457.82 483.927 461.202 480.028 469C474.656 479.744 484.631 496.415 493.464 502.294C517.005 517.963 541.277 527.184 568.961 531.143C580.278 532.762 591.156 534.891 602.576 530.116C626.804 519.985 614.611 494.75 600 482.143C581.277 465.99 545.371 454 521 454C514.405 454 505.494 452.452 499.285 454.88z"/>
<path style="fill:#bfcd63; stroke:none;" d="M577 455L586 459L577 455M613 455L616 458L613 455M616 458L623 467L616 458M586 459L587 460L586 459M587 460L587 461L592 462L587 460M192 463L195 462L192 463z"/>
<path style="fill:#cbd79c; stroke:none;" d="M221 493C221 478.463 228.265 476.73 242 480L242 481C234.901 482.095 231.327 488.479 226 492.701C215.442 501.07 204.721 510.69 193.449 517.88C190.555 519.725 183.585 526.741 190.148 528.682C199.286 531.384 212.468 529 222 529L292 529C299.348 529 319.596 532.566 325.397 527.972C328.967 525.144 328.679 500.57 324.682 498.269C320.532 495.878 303.953 496.885 299.059 497.719C293.396 498.684 296.59 505.365 292.682 507.972C288.597 510.698 279.755 509 275 509L275 507C281.042 506.075 283.681 500.71 288.449 497.4C299.875 489.468 312.827 480.441 322.941 470.857C327.033 466.979 327.697 461.653 320.995 461.059C291.835 458.471 261.288 461 232 461C221.937 461 204.343 457.583 195.148 461.742C190.297 463.937 189.669 488.677 193.742 491.972C198.613 495.913 214.827 493 221 493z"/>
<path style="fill:#bfcd63; stroke:none;" d="M325 461L327 467L328 467L325 461M347 472L348 472L375 462C366.887 460.96 351.57 464.641 347 472z"/>
<path style="fill:#cbd79c; stroke:none;" d="M375.17 461.684C367.28 464.255 360.091 464.628 352.59 468.714C345.058 472.816 336.118 476.819 332.028 485C326.059 496.937 335.81 512.775 346.996 517.416C368.055 526.152 386.294 526 409 526C420.766 526 432.524 527 443.83 523.455C461.121 518.034 487.642 502.302 472.454 481C470.473 478.221 467.878 475.719 465 473.884C444.944 461.099 422.88 461 400 461C392.401 461 382.439 459.314 375.17 461.684z"/>
<path style="fill:#bfcd63; stroke:none;" d="M433.667 461.333L434.333 461.667L433.667 461.333M563 461L563 462L571 465L571 464L563 461M435 462L445 464L445 463L435 462M592 462L593 463L592 462M674 549C665.336 552.631 658.296 558.004 658 568L659 568C660.753 558.317 668.802 552.186 678 550C679.092 539.046 685.471 529.997 696 526.247C699.644 524.949 704.472 525.953 707.737 523.972C711.266 521.831 713.04 516.651 715.899 513.666C722.61 506.66 733.217 501.971 743 503.185C750.201 504.079 758.636 507.206 763.996 512.105C767.049 514.895 769.547 519.999 773.209 521.887C779.507 525.133 785.866 523.9 791.907 529.329C795.947 532.96 796.726 539.998 800.702 542.972C806.452 547.274 815.411 542.158 821.699 548.228C829.958 556.199 830.793 567.447 822.79 575.895C817.663 581.307 811.951 579.808 806.286 583.028C799.816 586.705 796.907 592.515 789 594.235C784.53 595.208 780.317 592.772 776 594.569C765.58 598.909 757.113 602.876 746 597.319C741.024 594.831 737.442 590.482 732 589C724.794 599.143 712.158 603.594 701.04 596.674C697.806 594.661 694.575 588.743 690.816 588.236C687.388 587.774 683.529 590.558 680 590.787C670.036 591.433 660.742 583.617 659 574L658 574C658.557 592.774 678.574 593.932 692 589C699.703 605.476 724.487 606.07 733 590C741.31 597.74 752.152 604.115 764 601.61C768.967 600.56 773.138 597.09 778 596.008C782.591 594.987 787.35 596.624 792 595.271C798.727 593.314 801.768 588.345 807.17 584.603C811.191 581.817 816.682 582.863 820.985 580.03C832.99 572.127 830.652 558.787 825 548L831 542C822.23 542.716 811.392 545.097 803.059 540.543C799.036 538.345 798.353 533.415 795.517 530.093C792.276 526.297 786.869 524.585 784.653 519.957C777.294 504.593 788.253 485.563 802 478.328C812.08 473.023 820.484 475.782 831 476C827.957 466.625 811.713 463.225 803 463.015C775.697 462.354 760.368 480.388 754 505L745 502C744.423 477.332 716.366 458.507 693 462.325C669.724 466.128 652.961 484.365 652.04 508C651.749 515.469 653.268 523.32 656.608 530C660.674 538.132 666.568 543.924 674 549z"/>
<path style="fill:#eaebe9; stroke:none;" d="M193 464L194.832 490.972L220 492C220 488.427 219.123 483.262 221.603 480.318C225.676 475.484 240.145 476.823 243 482C235.904 482.539 232.183 488.874 227.251 493.32C218.715 501.015 208.749 507.322 200 514.857C194.964 519.193 189.129 520.683 188 528L288 528L314 528C316.91 528 321.948 528.912 324.397 526.972C328.954 523.362 326 504.563 326 499L296 499C295.99 512.545 284.103 511.643 273 509L273 507C287.722 502.385 302.157 485.6 313.888 475.629C318.735 471.509 324.137 469.635 326 463L236 463L193 464M374 463.71C355.969 468.205 313.424 484.093 338.449 508.662C340.927 511.095 343.381 514.387 346.464 516.066C365.428 526.4 386.094 525 407 525C419.056 525 431.326 525.768 443 522.455C460.994 517.348 488.141 499.1 468.942 479.018C466.4 476.36 463.511 474.362 460.285 472.63C441.054 462.305 421.22 463 400 463C391.689 463 382.095 461.692 374 463.71z"/>
<path style="fill:#bfcd63; stroke:none;" d="M593 463L593 464L597 464L593 463M445 464L446 465L445 464M597 464L597 466L599 466L597 464M446 465L455 469L446 465M571 465L580 469L571 465M599 466L600 467L599 466M326 467L325 469L327 469L326 467M600 467L605 469L605 468L600 467M623.333 467.667L623.667 468.333L623.333 467.667M324 469L325 470L324 469M455 469L455 470L460 471L455 469M580 469L580 470L585 471L580 469M605 469L608 472L605 469M323 470L324 471L323 470M322 471L323 472L322 471M460 471L461 472L460 471M585 471L586 472L585 471M321 472L320 474L322 474L321 472M342 474L346 473L342 474M461 472L461 473L466 474L461 472M586 472L588 474L588 472L586 472M608 472L608 474L610 474L608 472M316 474L316 475L320 475L316 474M341 474L342 475L341 474M466 474L467 475L466 474M588 474L588 475L593 476L588 474M610 474L611 475L610 474M624 474L625 475L624 474M315 475L314 477L316 477L315 475M339 475L339 477L341 475L339 475M467 475L468 476L467 475M611 475L611 477L613 477L611 475M625 475C626.29 480.5 625.632 485.338 619 483C623.959 490.642 630.402 479.72 625 475M468 476L469 477L468 476M593 476L599 480L593 476M313 477L314 478L313 477M338 477L339 478L338 477M469 477L470 478L469 477M613 477L616 480L613 477M312 478L311 480L313 480L312 478M336 478L336 480L338 478L336 478z"/>
<path style="fill:#cbd79c; stroke:none;" d="M396.286 478.88C373.505 488.003 388.529 517.267 408.715 508.965C415.088 506.343 422.652 502.665 423.644 495C425.178 483.129 405.538 475.175 396.286 478.88z"/>
<path style="fill:#bfcd63; stroke:none;" d="M470 478L471 479L470 478z"/>
<path style="fill:#cbd79c; stroke:none;" d="M535.001 479.028C515.135 489.029 541.196 515.825 556.576 508.556C582.949 496.092 553.766 469.58 535.001 479.028z"/>
<path style="fill:#bfcd63; stroke:none;" d="M221 493C213.351 493 199.218 495.711 193 491L192 491C193.64 498.654 214.709 490.709 220 496L242 481C238.673 478.479 225.056 476.78 222.028 480.603C219.821 483.389 221 489.643 221 493M420 485C414.23 484.14 409.937 479.495 404 479.059C380.605 477.341 379.251 509.52 403 508.976C407.307 508.878 410.937 506.907 414.571 504.753C417.929 502.763 420.628 500.458 422.111 496.714C423.756 492.565 420.602 489.04 420 485M471 479L472 480L471 479M536.001 480.028C516.295 489.949 542.952 514.429 557.96 506.735C580.49 495.185 552.265 471.839 536.001 480.028z"/>
<path style="fill:#abc713; stroke:none;" d="M222 494C228.01 492.198 233.934 485.334 237 480C224.143 480 222 480.853 222 494z"/>
<path style="fill:#bfcd63; stroke:none;" d="M310 480L308 483L310 480M333 483L336 480L333 483z"/>
<path style="fill:#abc713; stroke:none;" d="M419 502L419 486C412.375 484.35 407.311 479.097 400.09 480.143C382.872 482.639 382.397 501.008 397.425 507.12C405.511 510.408 411.618 503.838 419 502z"/>
<path style="fill:#bfcd63; stroke:none;" d="M472 480L473 481L472 480z"/>
<path style="fill:#abc713; stroke:none;" d="M554 483C554.694 485.621 555.736 488.27 555.877 491C556.896 510.841 528.787 499.221 545.042 485.344C547.197 483.505 549.309 482.64 552 482L552 480C546.428 480 538.658 478.543 534.059 482.318C522.16 492.084 539.855 506.794 550.025 507.837C566.368 509.515 571.38 485.762 554 483z"/>
<path style="fill:#bfcd63; stroke:none;" d="M599 480L602 483L599 480M616 480L619 483L616 480M473 481L474 482L473 481M474 482L474 486L475 486L474 482M307 483L300 488C302.685 487.163 307.536 486.273 307 483M331 483C329.39 488.448 327.722 501.578 333 505C330.092 498.137 330.092 489.863 333 483L331 483M602 483L605 486L602 483M475 486L477 488L477 486L475 486M605 486L610 491L605 486M299 488L297 491L299 488M296 491L294 494L296 491M610.667 491.333L611.333 491.667L610.667 491.333M612 492L612 496L613 496L612 492M293.333 494.667L293.667 495.333L293.333 494.667M219 496L220 497L219 496M288 498L293 497L288 498M613 496L613 498L615 498L613 496M217 497L217 499L219 497L217 497M294 508L295 508L298 498C292.844 496.842 294 504.637 294 508M300 497L300 498L322 498L300 497M324 497L324 498C330.086 503.96 327 519.877 327 528L328 528C328 521.081 331.521 499.496 324 497M476 497L475 499L477 499L476 497M287 498L288 499L287 498M615 498L615 502L616 502L615 498M216 499L217 500L216 499M285 499L285 501L287 499L285 499M474 499L474 506L475 506L474 499M214 500L214 502L216 500L214 500M282 504L285 501L282 504M213 502L214 503L213 502M616 502L617 503L616 502M211 503L211 505L213 503L211 503M617 503L616 519C620.083 516.353 620.707 506.24 617 503z"/>
<path style="fill:#cbd79c; stroke:none;" d="M678 550C662.269 552.358 651.45 570.707 663.214 583.96C667.984 589.334 674.893 591.72 682 590.698C684.68 590.313 688.61 587.863 691.24 588.67C694.877 589.785 697.551 595.271 701.04 597.25C711.468 603.166 726.654 600.368 732 589C736.761 591.121 740.344 594.991 745 597.319C757.034 603.337 765.592 598.654 777 594.714C781.172 593.273 785.634 595.292 790 594.249C797.872 592.37 800.67 586.629 807.17 583.028C811.995 580.354 817.261 581.616 821.896 577.61C830.909 569.819 830.689 556.501 822.532 548.228C816.269 541.875 807.618 547.002 801.419 542.968C797.282 540.277 796.621 532.92 792.815 529.329C786.758 523.613 779.326 525.071 773.209 521.228C769.547 518.927 767.329 514.075 763.996 511.213C759.034 506.952 751.404 504.441 745 503.329C734.636 501.529 723.242 505.452 715.899 512.889C712.72 516.108 710.815 521.738 706.87 523.972C703.459 525.904 698.736 524.916 695 526.247C684.53 529.977 678.559 539.079 678 550z"/>
<path style="fill:#bfcd63; stroke:none;" d="M280 504L280 506L282 504L280 504z"/>
<path style="fill:#eaebe9; stroke:none;" d="M799 547C796.809 538.111 794.605 529.66 785 526.133C781.244 524.754 776.594 525.928 773.129 523.972C769.498 521.923 767.735 517.082 764.826 514.174C759.017 508.369 750.089 505.431 742 504.785C732.6 504.033 722.635 508.205 716.301 515.09C713.465 518.173 711.954 522.91 708.726 525.512C703.743 529.529 694.998 527.076 689.174 531.248C682.097 536.317 683.47 544.042 678.486 549.722C672.793 556.211 663.881 555.047 660.803 565C657.121 576.908 665.566 588.977 678 589.286C682.321 589.394 689.102 585.548 692.791 587.697C702.941 593.609 707.376 601.921 721 597.15C725.076 595.722 730.242 587.44 734.015 587.917C739.784 588.647 744.455 596.542 751 597.826C762.079 600.001 767.98 594.943 778 592.639C782.537 591.596 787.279 593.327 792 592.152C798.458 590.544 800.696 584.95 806.089 582.027C810.45 579.664 815.648 580.38 819.957 577.301C829.316 570.612 829.341 554.637 819.826 547.995C813.682 543.706 805.61 544.591 799 547z"/>
<path style="fill:#bfcd63; stroke:none;" d="M206 507L211 506L206 507M333 505L336 508L333 505M275 507L275 509L294 509L294 508L280 506L275 507M473 506L474 507L473 506M205 507L206 508L205 507M471 507L471 509L473 507L471 507M204 508L205 509L204 508M336 508L336 510L338 510L336 508M203 509L204 510L203 509M470 509L471 510L470 509M202 510L203 511L202 510M338 510L339 511L338 510M468 510L468 512L470 510L468 510M201 511L202 512L201 511M339 511L339 513L341 513L339 511M200 512L199 514L201 514L200 512M467 512L468 513L467 512M341 513L342 514L341 513M466 513L467 514L466 513M198 514L199 515L198 514M342 514L342 516L344 516L342 514M465 514L461 515L461 516L465 514M197 515L193 516L193 517L197 515M344 516L353 520L344 516M460 516L461 517L460 516M192 517L190 520L192 517M459 517L455 518L455 519L459 517M454 519L446 523C448.723 522.311 454.584 522.542 454 519M615 519L614 524L615 519M189 520L187 523L189 520M353 520L354 521L353 520M354 521L354 522L359 523L354 521M186 523C186.373 534.349 206.548 530 215 530L298 530C304.586 530 322.574 533.065 327 528C315.396 530.763 301.895 529 290 529L220 529C209.746 529 191.4 533.083 186 523M359 523L360 524L359 523M445 523L446 524L445 523M360 524L360 525L370 526L360 524M432 526L432 527L445 525L432 526M613 524L614 525L613 524M612 525L611 527L613 527L612 525M370 526L370 527L373 527L370 526M374 526L374 527L430 527L412 526L374 526M541.667 526.333L542.333 526.667L541.667 526.333M543 527L545 529L545 527L543 527M610 527L611 528L610 527M609 528L605 529L605 530L609 528M545 529L545 530L555 530L545 529M555 530C558.151 534.86 566.769 533 572 533L572 532L555 530M604 530L591 532L591 533C594.119 533 604.756 534.586 604 530M572 533C575.151 537.86 583.769 536 589 536L589 535L572 533M590 533L589 535L591 535L590 533z"/>
<path style="fill:#657f23; stroke:none;" d="M548 543.428C540.862 544.45 533.833 545.486 527 547.837C508.496 554.205 494.178 574.773 515.004 588.699C530.828 599.281 552.696 600.695 571 597.675C587.948 594.879 617.094 579.313 600.468 559.09C589.482 545.728 564.36 541.086 548 543.428M277 572C285.531 564.479 289.059 552.177 274.999 547.935C257.672 542.708 235.959 546 218 546C212.357 546 202.438 544.084 197.318 546.603C193.791 548.339 195 554.811 195 558L195 586C195.001 589.15 194.263 593.934 197.318 595.972C201.565 598.807 211.066 597 216 597C232.352 597 249.77 598.707 266 596.714C271.27 596.067 277.717 595.382 281.775 591.606C289.048 584.839 285.196 575.227 277 572M389 597L366 579C380.663 578.369 401.492 562.478 381.985 550.147C366.921 540.625 338.109 546 321 546C315.357 546 305.438 544.084 300.318 546.603C296.964 548.254 298 553.963 298 557L298 586C298 589.036 296.964 594.748 300.318 596.397C311.596 601.94 308.292 588.023 311.179 583.148C313.088 579.925 316.691 580.024 320 580.001C327.706 579.948 337.581 578.414 345 580.649C354.847 583.615 362.306 592.578 372 596.031C377.209 597.886 383.548 597 389 597M416 557C433.362 569.623 452.732 580.285 471 591.576C476.459 594.95 487.137 600.398 493.566 595.972C496.802 593.746 495.999 588.373 496 585C496.004 575.877 499.733 556.094 494.682 548.318C489.061 539.664 482.032 550.124 482.001 556L482 566L482 583C466.019 578.297 450.058 564.553 436 555.681C426.683 549.801 417.616 543.921 406.059 546.228C400.913 547.255 402 552.947 402 557C401.999 566.658 398.242 585.973 402.603 594.566C407.48 604.174 414.991 592.593 415 587L415 576C415 569.654 414.522 563.208 416 557z"/>
<path style="fill:#abc713; stroke:none;" d="M549 554.428C539.516 555.786 508.837 562.55 522.279 577.896C532.574 589.649 555.051 589.067 569 586.675C579.97 584.794 599.162 574.164 584.956 562.394C576.207 555.145 559.948 552.861 549 554.428M209.318 556.028C206.006 558.238 205.999 565.45 210.148 566.682C222.607 570.381 240.978 567 254 567C258.364 567 264.978 568.179 268.566 565.106C274.016 560.439 267.76 555.791 262.999 555.185C250.381 553.58 236.721 555 224 555C219.935 555 212.852 553.669 209.318 556.028M311.742 557.028C308.653 559.527 309.032 568.46 313.148 569.682C325.884 573.463 344.686 570 358 570C362.598 570 369.059 571.089 372.682 567.566C377.255 563.12 373.316 557.204 367.999 556.228C354.857 553.817 339.368 556 326 556C322.324 556 314.773 554.576 311.742 557.028z"/>
<path style="fill:#bfcd63; stroke:none;" d="M657 569L657 573L658 573L657 569z"/>
<path style="fill:#abc713; stroke:none;" d="M208.603 577.028C205.132 579.777 207.147 586.608 211.059 587.682C223.827 591.189 241.739 588.001 255 588C259.253 588 266.165 588.927 269.396 585.436C273.44 581.067 268.33 576.596 263.999 576.109C250.673 574.609 236.414 576 223 576C219.269 576 211.698 574.577 208.603 577.028z"/>
</svg>
