<?xml version="1.0" standalone="yes"?>
<svg xmlns="http://www.w3.org/2000/svg" width="1024" height="1024">
<path style="fill:#c70125; stroke:none;" d="M0 0L0 1024L1024 1024L1024 0L0 0z"/>
<path style="fill:#ffffff; stroke:none;" d="M157 393L157 473L235 473L235 550L157 550L157 630L394 630L394 551L472 551L472 630L552 630L552 551L630 551L630 630L867 630L867 550L789 550L789 393L630 393L630 472L552 472L552 393L472 393L472 472L393 472L393 550L315 550L315 393L157 393z"/>
<path style="fill:#c70125; stroke:none;" d="M631 473L631 550L709 550L709 473L631 473z"/>
</svg>
