<svg xmlns="http://www.w3.org/2000/svg" viewBox="0 0 283.46 283.46"><defs><style>.cls-1{fill:#fe0000;}.cls-2{fill:#fff;}</style></defs><title>360tunebox</title><g id="Layer_2" data-name="Layer 2"><g id="Filmbox"><g id="_360tunebox" data-name="360tunebox"><rect class="cls-1" width="283.46" height="283.46"/><path id="logo" class="cls-2" d="M141.73,42.52a99.22,99.22,0,0,0-82.85,153.8v28.26H87.14A99.21,99.21,0,1,0,141.73,42.52Zm-21.81,49.9a9.67,9.67,0,0,1,6.24,1.81,5.89,5.89,0,0,1,2.24,4.83,5.12,5.12,0,0,1-4.07,5.3,5.8,5.8,0,0,1,3.75,2.07,6.66,6.66,0,0,1,1.34,4.28,7.74,7.74,0,0,1-2.67,6.1,11.61,11.61,0,0,1-14.08-.07,8.35,8.35,0,0,1-2.65-6.49v-.36h6.53v.43q0,3.43,3.14,3.43,3.35,0,3.35-3.23,0-3.44-3.82-3.44c-.33,0-.6,0-.79,0V103h.36q3.68,0,3.68-3a2.46,2.46,0,0,0-.82-1.92,2.88,2.88,0,0,0-2-.74c-1.9,0-2.85.93-2.85,2.77H110.5A7,7,0,0,1,113,94.42a10.59,10.59,0,0,1,6.89-2Zm45,0A8.35,8.35,0,0,1,172,96q2.58,3.54,2.58,10.06,0,6.17-2.61,9.65a9,9,0,0,1-14.27-.05q-2.63-3.54-2.63-9.85T157.74,96A8.43,8.43,0,0,1,164.89,92.42Zm-24,.51H148L142,102a10,10,0,0,1,2.71-.4,7.16,7.16,0,0,1,5.39,2.29,8.18,8.18,0,0,1,2.18,5.86,9,9,0,0,1-2.67,6.78,9.86,9.86,0,0,1-7.22,2.6,9.77,9.77,0,0,1-7.15-2.56,9,9,0,0,1-2.62-6.78,13.48,13.48,0,0,1,1.34-5.63,46.66,46.66,0,0,1,3.28-5.66Zm24,4.73a2.63,2.63,0,0,0-2.53,2,18.57,18.57,0,0,0-.75,6.14q0,8.11,3.28,8.11t3.25-8.11Q168.13,97.66,164.89,97.65Zm-22.54,8.48a3.82,3.82,0,0,0-2.84,1.06,4,4,0,0,0-1,2.9,3.9,3.9,0,0,0,1,2.88,4.39,4.39,0,0,0,5.69,0,3.9,3.9,0,0,0,1-2.88,4,4,0,0,0-1-2.9A3.82,3.82,0,0,0,142.34,106.13ZM93.43,128.62H112v6.06H106.2v19.73h-7V134.68H93.43Zm21.82,0h7v14c0,2.4.29,4.07.86,5s1.83,1.55,3.57,1.55c2,0,3.26-.67,3.82-2q.62-1.48.62-6.17V128.62h7V144q0,5.88-2.69,8.51t-8.78,2.63q-6.49,0-9.23-3.13a8.51,8.51,0,0,1-1.88-4.07,29.36,29.36,0,0,1-.36-5.34Zm28.27,0h6.78L160,141.89a34.6,34.6,0,0,1,2.34,4.55,43.17,43.17,0,0,1-.4-5.09V128.62h6.74v25.79H162l-9.74-13.3a38.28,38.28,0,0,1-2.34-4.51,42.85,42.85,0,0,1,.39,5.08v12.73h-6.78V128.62Zm30.73,0H190v5.66h-8.94v4.47h8.44v5.53h-8.44v4.36H190v5.77H174.24Zm-32,35.38a13.47,13.47,0,0,1,9.73,3.93,13.41,13.41,0,0,1,0,19.19,13.43,13.43,0,0,1-9.73,3.93,13.71,13.71,0,0,1-8.76-3.1,12.72,12.72,0,0,1-5-10.42,12.86,12.86,0,0,1,4.06-9.57A13.41,13.41,0,0,1,142.24,164Zm-37.14.58h7.82q5.55,0,7.61.9a5.65,5.65,0,0,1,3.64,5.55,5.19,5.19,0,0,1-1.09,3.48,7.1,7.1,0,0,1-3.59,2,6.15,6.15,0,0,1,4.31,1.95,6.66,6.66,0,0,1,1.53,4.58c0,2.86-1.12,4.88-3.35,6.06a12,12,0,0,1-4.08,1.12q-1.77.17-5.52.18H105.1V179.47h-2.44v-4.58h2.44V164.58Zm51.64,0h8.37l3.1,6a11.74,11.74,0,0,1,.87,2.12,10.82,10.82,0,0,1,.9-2.12l3.1-6h8.33L172.78,177l9.52,13.38h-8L170,182.72a8.35,8.35,0,0,1-.9-2.13,8,8,0,0,1-.87,2.13l-4.4,7.64h-8l9.56-13.52-8.66-12.26Zm-45.11,5.12v5.19H113a8.65,8.65,0,0,0,3.39-.47,2.13,2.13,0,0,0,1.16-2.09A2.2,2.2,0,0,0,116.1,170a9.09,9.09,0,0,0-3-.33h-1.51Zm30.61.25a6.15,6.15,0,0,0-4.83,2.18,7.91,7.91,0,0,0-1.91,5.39,8,8,0,0,0,1.86,5.41,6.53,6.53,0,0,0,9.73,0,8.56,8.56,0,0,0,0-10.76,6.12,6.12,0,0,0-4.83-2.2Zm-30.62,9.52v5.63h2.45a7.68,7.68,0,0,0,3.48-.6,2.2,2.2,0,0,0,1.1-2.11,2.44,2.44,0,0,0-1-2.34,7.53,7.53,0,0,0-3.44-.58h-2.56Z"/></g></g></g></svg>