<svg xmlns="http://www.w3.org/2000/svg" viewBox="0 0 283.46 283.46"><defs><style>.cls-1{fill:#fe0000;}.cls-2{fill:#fff;}</style></defs><g id="Layer_2" data-name="Layer 2"><g id="Filmbox"><g id="_360tunebox" data-name="360tunebox"><rect class="cls-1" width="283.46" height="283.46"/><path id="logo" class="cls-2" d="M141.73,42.52a99.22,99.22,0,0,0-82.85,153.8v28.26H87.14A99.21,99.21,0,1,0,141.73,42.52Zm-21.81,49.9a9.7,9.7,0,0,1,6.24,1.81,5.88,5.88,0,0,1,2.23,4.83,5.11,5.11,0,0,1-4.07,5.3,5.75,5.75,0,0,1,3.74,2.07,6.64,6.64,0,0,1,1.34,4.28,7.72,7.72,0,0,1-2.67,6.09,11.62,11.62,0,0,1-14.08-.07,8.33,8.33,0,0,1-2.65-6.49v-.36h6.53v.43q0,3.43,3.13,3.43c2.24,0,3.35-1.08,3.35-3.23,0-2.3-1.27-3.44-3.82-3.44-.33,0-.6,0-.79,0V103h.36c2.46,0,3.68-1,3.68-3a2.47,2.47,0,0,0-.81-1.92,2.88,2.88,0,0,0-2-.74c-1.9,0-2.85.92-2.85,2.77H110.5A7.07,7.07,0,0,1,113,94.42a10.63,10.63,0,0,1,6.89-2Zm45,0A8.35,8.35,0,0,1,172,96q2.58,3.54,2.58,10.06,0,6.17-2.61,9.65a9,9,0,0,1-14.27,0q-2.62-3.54-2.63-9.86t2.63-9.8A8.44,8.44,0,0,1,164.89,92.42Zm-24,.51h7.19L142,102a9.78,9.78,0,0,1,2.71-.4,7.14,7.14,0,0,1,5.39,2.29,8.17,8.17,0,0,1,2.18,5.86,9,9,0,0,1-2.67,6.78,11.33,11.33,0,0,1-14.37,0,9.08,9.08,0,0,1-2.61-6.78,13.54,13.54,0,0,1,1.33-5.63,47,47,0,0,1,3.28-5.66Zm24,4.72a2.61,2.61,0,0,0-2.53,2,18.47,18.47,0,0,0-.76,6.15c0,5.4,1.1,8.11,3.29,8.11s3.24-2.71,3.24-8.11S167.05,97.65,164.89,97.65Zm-22.55,8.48a3.83,3.83,0,0,0-2.84,1.06,4,4,0,0,0-1.05,2.9,3.9,3.9,0,1,0,7.79,0,4,4,0,0,0-1.05-2.9A3.84,3.84,0,0,0,142.34,106.13ZM93.43,128.62H112v6.06H106.2v19.73h-7V134.68H93.43Zm21.82,0h7v14c0,2.4.28,4.07.86,5s1.83,1.55,3.57,1.55c2,0,3.26-.67,3.83-2q.61-1.47.61-6.17V128.62h7V144q0,5.88-2.68,8.51c-1.8,1.75-4.72,2.63-8.79,2.63q-6.48,0-9.23-3.13a8.6,8.6,0,0,1-1.87-4.08,28.48,28.48,0,0,1-.36-5.34Zm28.26,0h6.78L160,141.89a37.09,37.09,0,0,1,2.35,4.55,41.94,41.94,0,0,1-.4-5.09V128.62h6.74v25.79H162l-9.74-13.31a38.58,38.58,0,0,1-2.34-4.5,41.59,41.59,0,0,1,.39,5.08v12.73h-6.78V128.62Zm30.73,0H190v5.66h-8.95v4.47h8.44v5.53h-8.44v4.36H190v5.77h-15.8Zm-32,35.38a13.48,13.48,0,0,1,9.73,3.93,13.41,13.41,0,0,1,0,19.19,13.43,13.43,0,0,1-9.73,3.92,13.71,13.71,0,0,1-8.76-3.09,12.73,12.73,0,0,1-5-10.43,12.86,12.86,0,0,1,4.07-9.57A13.42,13.42,0,0,1,142.24,164Zm-37.14.58h7.82q5.55,0,7.61.9a5.64,5.64,0,0,1,3.64,5.55,5.22,5.22,0,0,1-1.09,3.48,7.11,7.11,0,0,1-3.59,2,6.16,6.16,0,0,1,4.3,1.94,6.7,6.7,0,0,1,1.54,4.59q0,4.29-3.35,6.06a11.94,11.94,0,0,1-4.09,1.11c-1.17.12-3,.18-5.51.18H105.1V179.47h-2.44v-4.58h2.44V164.58Zm51.63,0h8.37l3.1,6a11.85,11.85,0,0,1,.87,2.12,10.65,10.65,0,0,1,.9-2.12l3.1-6h8.33L172.78,177l9.52,13.38h-8L170,182.72a8.21,8.21,0,0,1-.9-2.13,8.15,8.15,0,0,1-.87,2.13l-4.4,7.64h-8l9.56-13.52-8.66-12.26Zm-45.1,5.12v5.19H113a8.58,8.58,0,0,0,3.39-.47,2.12,2.12,0,0,0,1.16-2.09A2.21,2.21,0,0,0,116.1,170a9.44,9.44,0,0,0-3-.32Zm30.61.25a6.15,6.15,0,0,0-4.83,2.18,7.88,7.88,0,0,0-1.91,5.39,8,8,0,0,0,1.85,5.41,6.55,6.55,0,0,0,9.74,0,8.57,8.57,0,0,0,0-10.76,6.13,6.13,0,0,0-4.83-2.2Zm-30.62,9.52v5.63h2.46a7.65,7.65,0,0,0,3.48-.6,2.19,2.19,0,0,0,1.1-2.11,2.43,2.43,0,0,0-1-2.34,7.56,7.56,0,0,0-3.45-.58Z"/></g></g></g></svg>