<svg xmlns="http://www.w3.org/2000/svg" viewBox="0 0 283.46 283.46"><defs><style>.cls-1{fill:#dee1e1;}.cls-2{fill:#007ac2;}</style></defs><title>abcnews</title><g id="Layer_2" data-name="Layer 2"><g id="ABC"><g id="abcnews"><rect width="283.46" height="283.46"/><g id="logo"><path class="cls-1" d="M75,174.17a32.44,32.44,0,1,1,32.42-32.51A32.49,32.49,0,0,1,75,174.17"/><path d="M101.35,140.88a5.51,5.51,0,0,0-5.4-4.21,5.61,5.61,0,1,0,5.22,7.65l4.44,0A9.78,9.78,0,0,1,96,152.15a9.85,9.85,0,1,1,9.75-11.31l-4.4,0"/><path d="M54,147.21a5.47,5.47,0,1,1,5.5-5.49A5.5,5.5,0,0,1,54,147.21Zm0-15.52a10,10,0,0,0,0,20.06,10.33,10.33,0,0,0,5.26-1.56v1.69H64L64,141.67a10,10,0,0,0-10-10"/><path d="M75.33,147.68a5.59,5.59,0,1,1,5.59-5.58A5.58,5.58,0,0,1,75.33,147.68Zm-.13-15.75a9.37,9.37,0,0,0-5.5,1.6l-.14-6.5H64.94L65,142.1A10.17,10.17,0,1,0,75.2,131.93"/><path class="cls-2" d="M114.13,129.63c-1.51-1.56-3.07-2.52-4.17-2.52h-1v-.87h.87l5.36.23,3.25-.23h.91l21,23V131.1c0-2.89-1.24-4-4.44-4h-1v-.87h1l5.27.23,4.3-.23h.6l0,.87c-2.93.23-3.71,1-3.71,3.53V159.3h-1l-25.14-27.43v20.65c0,4.31,1,5.5,4.67,5.5h.92v.91h-1.05l-5.45-.18-4.81.18h-.92V158c3.71-.37,4.49-1,4.49-3.62V129.63"/><path class="cls-2" d="M152.22,130c0-2.2-.82-2.84-3.43-2.84H148v-.87h2.15c1.46,0,9.57.23,9.61.23,1.19,0,8.89-.23,10.49-.23h2.24l.1,7.15h-.87c-.14-3.71-1.84-5.22-5.68-5.22h-7.74v12.59H165c2.61,0,4-1.24,4.39-3.85l1,.05v9.93h-1c-.41-3.06-2-4.3-5.91-4.3h-5.31v11.49A2.52,2.52,0,0,0,161,157h5.54A7.94,7.94,0,0,0,174.3,152h1l-2.34,7c-1.6,0-9.2-.19-11.72-.19-1.74,0-10,.14-11.86.19h-1.46v-.92h.91c2.61-.05,3.44-.73,3.44-2.88V130"/><path class="cls-2" d="M205.44,159.4h-1.56l-6.32-17.21-6.5,17.21H189.6l-10.81-28.89c-.82-2.24-1.6-3.11-3-3.39v-.82h.92l4.34.23,4.45-.23h1v.87c-1.6,0-2.24.5-2.24,1.37l.41,2,7.6,20.51,4.31-11.72-2.8-7.83c-1.23-3.39-2.29-4.31-4.94-4.35v-.87h.87l5.72.23,5.63-.23h1.33v.87H201c-1.83,0-2.7.46-2.7,1.37l.55,2.29,7.37,20.38L212,134a17.88,17.88,0,0,0,1.1-4.54c0-1.6-.78-2.24-2.52-2.24h-1v-.87h.27c.82,0,2.75.23,3.89.23l3.76-.23h.41v.87c-1.38.41-2.11,1.37-3.25,4.76l-9.25,27.47"/><path class="cls-2" d="M218.1,151.43a8.68,8.68,0,0,0,3.16,4.21,11.35,11.35,0,0,0,7.09,2.2c4.77,0,8-2.52,8-6.09,0-2.65-1.56-4.12-7.28-6.82-5.49-2.66-6.91-4-8.06-5.08a7.81,7.81,0,0,1-2.42-5.72c0-5.09,4.12-8.43,10.39-8.43a25.34,25.34,0,0,1,6.13.82l2.29.32.83-.5h1l.14,7h-.83a8.18,8.18,0,0,0-1.55-3.3c-1.56-1.83-4-2.79-7.15-2.79-3.93,0-6.54,1.87-6.54,4.67,0,2.42,1.51,3.8,6.82,6.22,6.77,3.16,10.89,6,10.89,11.22,0,5.95-4.89,10-12.13,10a25.82,25.82,0,0,1-5.86-.73l-2-.27-1.33.64h-.91l-.14-.78c-.41-2.52-1-4.9-1.33-6.55l.83-.23"/></g></g></g></g></svg>