<svg xmlns="http://www.w3.org/2000/svg" viewBox="0 0 283.46 283.46"><defs><style>.cls-1{fill:#e74c3d;}.cls-2{fill:#fff;}</style></defs><g id="Layer_2" data-name="Layer 2"><g id="MWE_Networks_International" data-name="MWE Networks International"><g id="adventuretv"><rect class="cls-1" width="283.46" height="283.46"/><g id="logo"><path class="cls-2" d="M160.91,151.05l-2.23.46a5.5,5.5,0,0,1-5-3.24l-3.51-7.9H134.08a5.48,5.48,0,0,1,0-11h11.21L137.53,112l0,0-.11-.26,0-.07a13.35,13.35,0,0,1,.07-10.45l0-.06.27-1.38a3.7,3.7,0,0,0-7.39,0l.31,1.46,0,.06a13.38,13.38,0,0,1,0,10.39l0,.11-.11.25L114.5,148.26a5.48,5.48,0,0,1-10-4.43l16.15-36.5.16-.87-.19-.93,0-.07a14.65,14.65,0,1,1,26.94.05l0,.1-.16.85.16.88.07.19,16.14,36.29a5.48,5.48,0,0,1-2.78,7.23m-26.85-80.7a52.12,52.12,0,1,0,52.12,52.12,52.11,52.11,0,0,0-52.12-52.12"/><path class="cls-2" d="M54.23,191.62l-.46-.53-.5.53-2.17,9.82h5.29Zm10.14,21.17h-5l-.71-.65-1.28-5.83H50.1l-1.28,5.83-.7.65h-5l-.6-.57,0-.11L47.86,190c.82-3.42,3.45-4,5.91-4s5,.53,5.87,4l5.29,22,0,.18-.6.57"/><path class="cls-2" d="M79,197.06l-2.92-.17c-2.53,0-3.17,1.84-3.17,4.33V204c0,2.53.64,4.38,3.17,4.38a19.24,19.24,0,0,0,2.92-.22Zm4.66,15.12a33.3,33.3,0,0,1-7.58.92c-5.76,0-8.92-3.33-8.92-9.1v-2.78c0-5.59,2.92-9.1,8.92-9.1a25.18,25.18,0,0,1,2.92.25v-6.15l.7-.72H84l.75.72v24.93c0,.56-.16.83-1.11,1"/><path class="cls-2" d="M106.92,193.23l-4.48,16.14c-.89,3.17-3.06,3.74-5.16,3.74s-4.23-.57-5.13-3.74l-4.44-16.14,0-.15.58-.67h4.69l.75.74,3,13.95.54.74.58-.74,3-13.95.76-.74h4.69l.6.6,0,.22"/><path class="cls-2" d="M121.46,200.69c0-2.63-1.2-3.93-3.2-3.93s-3.26,1.35-3.26,3.93v.14h6.46Zm4.88,3.71H115v.06c0,2,.85,3.88,3.66,3.88,2.24,0,5.4-.17,6.82-.31h.12l.67.57v2.7l-.75.95a26.7,26.7,0,0,1-7.29.86c-4.31,0-8.93-2.28-8.93-9.13v-2.51c0-5.72,3.34-9.34,9-9.34,5.83,0,8.79,4,8.79,9.34v2.07l-.75.86"/><path class="cls-2" d="M147.57,212.8h-4.29l-.73-.76V200.2c0-2.48-.45-3.3-2.63-3.3a7.65,7.65,0,0,0-3.34,1.13v14l-.7.76h-4.32l-.74-.76V193.12l.71-.71h4l.71.71V194a9,9,0,0,1,5.79-1.85c5.16,0,6.3,3.58,6.3,8.07V212l-.75.76"/><path class="cls-2" d="M163.65,212.82a15,15,0,0,1-2.8.29c-3.92,0-6-1-6-6.09V196.7l-2.83-.46-.76-.75v-2.34l.76-.74h2.83v-2.92l.72-.7,4.34-.75H160l.64.6v3.77h2.91l.71.7V196l-.71.69h-2.91v10.36c0,1.43.11,1.67,1.17,1.67h1.74l.75.61v2.77l-.68.71"/><path class="cls-2" d="M184.37,212.8h-4l-.71-.72v-.85a9,9,0,0,1-5.8,1.85c-5.16,0-6.29-3.61-6.29-8.09V193.16l.74-.75h4.3l.71.75V205c0,2.5.47,3.31,2.64,3.31a7.65,7.65,0,0,0,3.34-1.13v-14l.71-.75h4.31l.75.75v18.92l-.71.72"/><path class="cls-2" d="M200,196.9h-.28a9.51,9.51,0,0,0-4.6,1.23V212l-.7.76h-4.31l-.75-.76V193.12l.71-.71h4.24l.7.71v.72a7.68,7.68,0,0,1,4.81-1.71l.71.72v3.36l-.53.69"/><path class="cls-2" d="M215.06,200.69c0-2.63-1.21-3.93-3.2-3.93s-3.28,1.35-3.28,3.93v.14h6.48Zm4.88,3.71H208.58v.06c0,2,.86,3.88,3.67,3.88,2.25,0,5.41-.17,6.84-.31h.11l.66.57v2.7l-.74.95a26.75,26.75,0,0,1-7.29.86c-4.31,0-8.93-2.28-8.93-9.13v-2.51c0-5.72,3.34-9.34,9-9.34,5.83,0,8.79,4,8.79,9.34v2.07l-.75.86"/><path class="cls-2" d="M238.59,186.49a1.23,1.23,0,0,0-.75.25,1.19,1.19,0,0,0-.39.52L236,191.34l-1.48-4.08a1.15,1.15,0,0,0-.42-.55,1.28,1.28,0,0,0-.73-.22h-8.71v2.62H227v6.68h3v-6.68h2.1l2.68,6.68h2.47l3.73-9.3Z"/></g></g></g></g></svg>