<svg xmlns="http://www.w3.org/2000/svg" viewBox="0 0 283.46 283.46"><defs><style>.cls-1{fill:#fa9000;}.cls-2{fill:#fff;}</style></defs><g id="Layer_2" data-name="Layer 2"><g id="News"><g id="aljazeera"><rect class="cls-1" width="283.46" height="283.46"/><g id="logo"><path class="cls-2" d="M142.63,43.64c-2.4,1.7-4.39,5.56-4.37,11.46A26.15,26.15,0,0,0,142,67.91c-3.69,5.12-4.36,9.83-2.8,14.34,1.18,3.42,1.8,4.31,2.34,6.36,1.36,5.22-.15,11.48-4.2,21.12-3.28,7.86-7.55,16.09-7.55,26.12a49.53,49.53,0,0,0,.53,6.72c.38-.37,1.19-1.15,2.18-2.07-.48-7.86,2.6-15.75,6.37-22.84,5.51-10.35,6.2-20.88,5.13-26.65,3.87,4.19,10.37,10.45,14.18,16.88a15,15,0,0,1,2.25,6.29,16.65,16.65,0,0,1-4.46,12.3,6.37,6.37,0,0,0-1.6,6.19c.2.86,1.26,4.15,2,6.29,2.88-5.72,10.83-9,14.43-13.71.84,5.87-3.52,11.44-6.74,15.18-.76.84-1.6,1.71-2.55,2.63-6.11,5.92-10.12,10-12.25,13.77a20.12,20.12,0,0,0-1.86,4.17,51.57,51.57,0,0,0-2.08,10.29c-.5,3.19-1.07,7-1.26,8.7-.42,3.87-1.56,10-6.24,11.76a5.2,5.2,0,0,1-.77.22v0c-4.46,1-9-2.8-12.34-9.62a11.61,11.61,0,0,1-2.25,1.36c4.49,10.78,11.27,15.74,17.2,15.74,4.49,0,8-2.29,9.18-9,.59-3.38,1-7.12,1.38-10.75.17-1.75,1-11.63,2.59-15.21,1.93-4,6.17-7.9,12.48-14.49,3.9-4.1,6-7.5,7.13-10.25,3.68-6.82-.88-23-1.76-26,0-.11,0-.14-.09-.14s-.12,0-.19.15l0,.07c-1.63,2.68-4.53,5.14-7.23,7.13a17,17,0,0,0,.51-10.14v0c0-.15-.09-.31-.12-.46v0C160.8,99.66,149.94,90.07,145,84.55c-6.36-7.16-4.19-11.77-1.84-14.7.44.66.89,1.35,1.4,2.05,8.66,11.9,25,30.79,33.51,48.76a62.16,62.16,0,0,1,4.74,13.27c3.36,18.63-9.45,37.58-28.69,32.25h0l-.37-.1a51.35,51.35,0,0,0-1.5,7.9,26.55,26.55,0,0,0,9.14,2.14l.68,0c15.79.18,28.16-11.82,25.88-37a69.5,69.5,0,0,0-6.29-21.5c-8.55-19.37-24.35-38.53-34.06-50.91a32.71,32.71,0,0,1-5.79-10.28c-1.83-5.72-.67-10.15,1.67-12.1a9.38,9.38,0,0,1,1.69-1.19.34.34,0,0,0,0-.64l-.21,0a4.39,4.39,0,0,0-2.33,1.12m-11.69,33.7a4.76,4.76,0,1,0,3.73,7.79l.1-.12c.55,3.78-1.22,6.8-5.38,10.3s-14.16,8.37-21.22,14c-9.94,8-12.29,16.67-12.89,23.71a35.79,35.79,0,0,0,1,10.68,46.21,46.21,0,0,0,2.58,7.58s.08.13.2.37c-.25,4.66.21,12.78,2.79,18.93,3.47,7.92,9.71,14.4,18.66,12.49,9-2.15,10-17.08,11.08-28,.27-1.78.54-2.09,1.07-2.55,1.46-1.25,5-4.61,6.65-6.11a9.92,9.92,0,0,0,2.53-3,5.81,5.81,0,0,0,.36-3.35l-1-7.18c-.26,1-1.48,2.45-3.21,4.21s-6.6,6-7,6.49-2,1.6-2.66,7.07c-1.74,14.91-4.62,21.94-9.81,24.31a11.38,11.38,0,0,1-4.61,1c-9.5-.1-12-11.86-12-18.3,0-.38,0-.78,0-1.13,2.21,3,5.47,6,9.5,5.39,6.42-1,4.41-12,3.48-14.54s-3.39-10.21-8.78-9.84c-3.81.27-5.58,4.8-6.39,8.65a31.27,31.27,0,0,1-.89-9.38c.56-6.66,2.81-15,12.34-23.15,6.79-5.82,14.49-10,18.76-13.41a17.54,17.54,0,0,0,5.38-6.91,31.58,31.58,0,0,1-1.86,7.43c-3.95,10.57-15.94,28-16.1,52.65a95.65,95.65,0,0,0,1.88,19.7,8.63,8.63,0,0,0,1.85-1.75,64.28,64.28,0,0,1-1.33-13.15c0-24.6,11.92-42,15.79-52.55a35.37,35.37,0,0,0,2.09-13.59c0-4.9-1.07-10-2.08-12a4.72,4.72,0,0,0-4.45-2.77Zm-28.22,74.82a9.73,9.73,0,0,1,4.37-5.82c3.79-1.8,5.28,2.8,5.28,2.8a5,5,0,0,1-5.2,4.76,6.76,6.76,0,0,1-4.45-1.74m22.17-66.68a4.73,4.73,0,1,0,.15,0Zm27.88,28c-.45.48-2.58,2.86-4.64,5.15-1.84,2-3.59,4-4,4.41a3.65,3.65,0,0,0-1.22,2.49l.53,2.66a6.9,6.9,0,0,1,1.32-2.1l4.63-5.14c1.83-2,3.58-4,4-4.43a3.6,3.6,0,0,0,1.23-2.47l-.54-2.68a6.86,6.86,0,0,1-1.31,2.11m-36.93,4a17.66,17.66,0,0,0-5.27,6.29,7.93,7.93,0,0,0-.33,5.7c.53,1.15,1.78,2.24,3.4.93a5.74,5.74,0,0,0,1.88-3.32,6.44,6.44,0,0,0,.21-1.39c0-.4-.13-.75-.5-.64-1.09.36-.45,1.85-1.22,2.56a1.75,1.75,0,0,1-2.42-1.37c-.3-1.52.86-3.49,1.91-4.8a35,35,0,0,1,2.91-3s1.33-1.1.88-1.65c0,0-.08,0-.13,0-.38,0-1.32.76-1.32.76m29,28.61,6,2.88,3.32-7.19-6-2.88Zm-11.41,7.7a41.45,41.45,0,0,0,10.82,15.12,51.12,51.12,0,0,1,1.43-7,35,35,0,0,1-9.83-10.38Zm31.12,5,6,2.9,3.32-7.18-6-2.88Zm-32.69,15,5.11,4.29,5-6.08-5.12-4.32Zm-1.15,10.68,5.13,4.29,5-6.11-5.12-4.3Zm24.1-4.51c-.24.11-.32.51-.16,1s1.05,2.85,1.05,2.85a10.43,10.43,0,0,0,3.13,4.79c1.53,1.1,2.32.71,2.63.6a2,2,0,0,0,.86-2.33,9.9,9.9,0,0,0-.89-2.74c-.3-.61-.7-1-.95-.9s0,.59,0,.93a1.31,1.31,0,0,1-.73,1.3,1.68,1.68,0,0,1-2.39-.93,28,28,0,0,1-1.57-3.5c-.2-.52-.52-1.15-.84-1.15l-.12,0"/><path class="cls-2" d="M144.72,222.17v-4.28H133.13v3.68h6L133,230.39v4.31h11.9V231H138.6Zm40.83,2c-.24.3-.6.44-1.42.52h-1.66v-3.16h1.6a2.38,2.38,0,0,1,1.22.29,1.59,1.59,0,0,1,.26,2.34m3.62,4.39c-.63-1.49-.86-1.79-1.46-2.08a.89.89,0,0,0,.29-.12c1.87-.86,2.78-3,2.07-5.43-.59-2-2.12-3.08-5-3.08h-6.81V234.7h4.32v-6.29h1c.71,0,1.12.3,1.49,1.2l.23.53.11.31L187,234.7h4.47l-2.09-5.51c-.08-.22-.14-.39-.23-.59m10.08-.81,1.58-5.34,1.59,5.34Zm4-9.9h-4.76l-5.74,16.81h4.33l1-3.08h5.53l.94,3.08h4.58Zm-82.86,9.9,1.58-5.34,1.6,5.34Zm-.79-9.9-5.74,16.81h4.33l1-3.08h5.51l.94,3.08h4.6l-5.85-16.81Zm-38.67,9.9,1.59-5.34,1.6,5.34Zm-.78-9.9L74.39,234.7h4.32l1-3.08h5.53l.93,3.08h4.59L84.9,217.89Zm87.58,10.32h5.61v-3.59H167.7v-3.05h6.53v-3.68H163.39V234.7H174.8v-3.58h-7.1Zm-14.89,0h5.64v-3.59h-5.64v-3.05h6.55v-3.68H148.51V234.7h11.42v-3.58h-7.12ZM107,233.63c0,2.57-.93,3.51-3,2.91a1.5,1.5,0,0,1-.34-.11l-1,3.65c.23.11.46.2.71.3,4.81,1.8,8-.87,8-5.54v-17H107Zm-3.84-2.69H97.83V217.89H93.49V234.7h9.63Z"/></g></g></g></g></svg>