<svg xmlns="http://www.w3.org/2000/svg" viewBox="0 0 283.46 283.46"><defs><style>.cls-1{fill:#fff;}</style></defs><g id="Layer_2" data-name="Layer 2"><g id="AMC_Networks_International" data-name="AMC Networks International"><g id="amc"><rect width="283.46" height="283.46"/><g id="logo"><path id="path2998" class="cls-1" d="M71.85,109.52c-20.35,0-27,12.84-27,20h14c.47-3.76,4.39-8.07,13.44-8.07,9.21,0,12.82,5.79,12.82,13.11H78.29c-22.87,0-35.77,6.34-35.77,20.41,0,10.05,9.89,19,22.75,19,8.1,0,17.25-3.85,20.26-6.3l.2,4.68H98.91V137.7C98.91,120.29,92,109.52,71.85,109.52Zm8.5,36h5v3.46c0,7.22-7.08,13-17.19,13-6.18,0-11.35-2.25-11.35-6.6C56.78,149.36,61.49,145.48,80.35,145.48Z"/><path id="path3007" class="cls-1" d="M107.56,172.29V111.14h21.82l12,44.42,11.52-44.42h22.24v61.15H161V125.7l-13.1,46.59H134.54l-13-46.49v46.49Z"/><path id="path3011" class="cls-1" d="M226.83,149.24h14.11c-2.09,11.61-12.61,24.7-29.15,24.7-20.84,0-30-18.05-30-32.06,0-19,12-32.32,29.89-32.32,15.73,0,26.77,11.42,29.08,24.64H226.9c-1.62-5.09-6.59-11.95-15.22-11.95-9.73,0-16.36,9.69-16.36,19.34,0,11.59,7.89,19.59,16.32,19.59,7.71,0,13.34-6,15.19-11.94Z"/></g></g></g></g></svg>