<svg xmlns="http://www.w3.org/2000/svg" viewBox="0 0 283.46 283.46"><defs><style>.cls-1{fill:#007dc5;}.cls-2{fill:#fff;}</style></defs><title>animax</title><g id="Layer_2" data-name="Layer 2"><g id="AXN"><g id="animax"><rect class="cls-1" width="283.46" height="283.46"/><g id="logo"><path id="path8626" class="cls-2" d="M211.6,151.84l-9.78-10.77,14-18c4.47,3.52,7,7.6,7,12.1,0,5.77-4.1,11.49-11.21,16.65m-32.94-4.7h-8.4l4.75-7.86Zm-94.73,0,4.66-7.7,3.56,7.7H83.94Zm12.24,23.06c-8-1.56-15.66-3.93-21.71-7.13l7.39-12.27h12l1,2.15a5.7,5.7,0,0,0,4.87,2.84,1.36,1.36,0,0,0,.36,0h.55l0,0c3.09-.25,4.86-2.46,4.86-4.6V141.11s9,10.63,9.57,11.39c1.49,1.86,2.47,3.35,5.33,3.35,2,0,3.65-1.5,3.68-4.07v-19a2.33,2.33,0,1,0-4.67,0v13.47l-.07-.09-10.34-12.76c-1.12-1.23-2.11-3-4.66-3-3,0-3.54,2.84-3.54,4.41v13.89c-2.55-5.71-6.86-15.28-7.4-16.26a3.94,3.94,0,0,0-3.52-2,4.15,4.15,0,0,0-3.46,1.92l-16.58,27.9C65,156.77,62,152.48,62,147.44c0-11.07,15-21.17,33.42-27.69a185.67,185.67,0,0,1,47-9.44c29.22-2.22,54.82,1.84,68.9,9.76L198.1,137l-3-3.26c-1.6-1.76-3.48-3.25-5.24-3.25h-3.33c-1.77,0-2.88,1.49-1.27,3.25l8.25,9.11L188,150l-8.16-17.48a3.89,3.89,0,0,0-3.57-2,4.1,4.1,0,0,0-3.41,1.92l-8.3,14.09V134.89c0-2.06-1-4.41-3.63-4.41-2.14,0-3.31,1.85-4.39,3.42l-5,7.32-5.63-7.08c-1.22-1.5-2.87-3.66-5.12-3.66-4.07,0-3.69,4.16-3.69,5v18a2.33,2.33,0,1,0,4.67,0V141.05l.06.06s4.6,5.35,5.24,6.21a3.39,3.39,0,0,0,2.65,1.48c1.89,0,2.65-1.23,3.55-2.31s3.85-5.38,3.85-5.38V151c0,3.75,2.17,4.85,4.24,4.85h.61c2.52,0,4-1.51,5.08-3.05l1.4-2h11.88l1,2.15c1.19,2,2.36,2.88,5.93,2.88a5.85,5.85,0,0,0,4.77-2.11l5.3-6.81,5.28,5.83a12,12,0,0,0,3.31,2.77c-14.73,8.4-37.67,14.83-63.46,16.79-17.2,1.31-33.13.43-46.21-2.12m59.4-62.49q-6.8.08-13.86.49C87,111.42,42.52,129,42.52,147.55s44.43,30.92,99.2,27.7c29.27-1.71,55.57-7.54,73.73-15.41,15.84-6.87,25.49-15.3,25.49-23.93,0-16.93-37.13-28.75-85.36-28.2"/><path id="path8630" class="cls-2" d="M130.51,130.47a3.47,3.47,0,0,0-3.45,3.45V152.4a3.45,3.45,0,0,0,6.91,0V133.93a3.46,3.46,0,0,0-3.45-3.45"/></g></g></g></g></svg>