<svg xmlns="http://www.w3.org/2000/svg" viewBox="0 0 283.46 283.46"><defs><style>.cls-1{fill:#37a73e;}.cls-2{fill:#eee;}.cls-3{fill:#fff;}.cls-4{fill:#ddd;}</style></defs><title>animalplanet</title><g id="Layer_2" data-name="Layer 2"><g id="Discovery_Group" data-name="Discovery Group"><g id="animalplanet"><rect class="cls-1" width="283.46" height="283.46"/><g id="logo"><path id="path7" class="cls-2" d="M55.32,93.32c7.7,0,15.41,0,23.11,0q6.51,48.42,13.06,96.83c-6.68,0-13.36,0-20,0-.52-5-.77-10.1-1.29-15.13H61.53c-.7,5-1.21,10.09-1.86,15.13H42.52c1.31-10.4,2.75-20.79,4.1-31.18Q51,126.14,55.32,93.32Zm11.32,33c-1.13,10.51-2.44,21-3.54,31.51h6c-.68-9.63-1.46-19.25-2.17-28.87C66.86,128.08,66.79,127.19,66.64,126.32Z"/><path id="path9" class="cls-2" d="M88.15,93.31c2.24,0,4.48,0,6.72,0q2.52,14,5.05,28c.18,1,.34,2,.61,3,0-10.35,0-20.69,0-31h5.39q0,28.23,0,56.47h-5.46c-2-9.06-4-18.12-6-27.18-.25-1.11-.45-2.24-.79-3.33-.08,10.17,0,20.34-.05,30.51H88.17q0-28.24,0-56.48Z"/><path id="path11" class="cls-2" d="M109.54,93.31h15.13c.05,15,0,30,0,45.07,0,3.8,0,7.6,0,11.4-5,0-10.09,0-15.13,0q0-28.24,0-56.48Z"/><path id="path13" class="cls-3" d="M128,93.31q33.85,0,67.7,0c0,7.69,0,15.37,0,23.05-10.24,1.85-20.48,3.67-30.72,5.53,10.21,2.08,20.47,3.95,30.7,5.94.05,7.31,0,14.62,0,21.93q-33.84,0-67.69,0c0-5,0-10,0-15.06,10.52,0,21,0,31.54,0,3.68,0,7.37.07,11-.05-4.89-1.19-9.84-2.17-14.75-3.27L128,125.32c0-3.29,0-6.58,0-9.87,9.89-2,19.8-3.89,29.7-5.84,4.37-.89,8.77-1.65,13.12-2.63-14.27,0-28.54,0-42.81,0C128,102.4,128,97.86,128,93.31Z"/><path id="path17" class="cls-2" d="M202.92,93.32c2.51,0,5,0,7.53,0q2.67,27.88,5.28,55.77l-.13.67c-2.14.07-4.29,0-6.44,0-.25-3.42-.42-6.84-.65-10.26H204.3q-.39,5.12-.76,10.24c-2,0-4,0-5.94,0,.25-4.07.75-8.13,1.11-12.19Q200.81,115.46,202.92,93.32Zm3.44,17.92c-.48,7-1,14.09-1.48,21.14H208c-.39-7.84-1-15.67-1.36-23.51A19.4,19.4,0,0,0,206.36,111.24Z"/><path id="path19" class="cls-2" d="M217.58,93.32c4.23,0,8.47,0,12.7,0,0,15.12,0,30.24,0,45.36,3.54,0,7.09,0,10.63,0,0,3.69,0,7.39,0,11.08-7.78,0-15.56,0-23.34,0q0-28.22,0-56.44Z"/><path id="path23" class="cls-4" d="M93.39,152.47c4.42,0,8.84,0,13.27,0a10.86,10.86,0,0,1,6.26,1.81,7.25,7.25,0,0,1,3.3,5.76c0,3,0,6.09,0,9.14a7.06,7.06,0,0,1-1.62,4.56,9.8,9.8,0,0,1-6.41,3.25c-1.56.15-3.14.07-4.7.09-.09,4.36,0,8.73,0,13.1-3.35,0-6.7,0-10,0,0-12.56,0-25.13,0-37.69Zm10.1,7.62c-.05,3.11,0,6.22,0,9.33a7,7,0,0,0,2.69-.23c.84-.47.62-1.57.66-2.38-.08-1.94.14-3.91-.12-5.84-.51-1.26-2.16-.8-3.23-.89Z"/><path id="path25" class="cls-4" d="M118.23,152.47c3.37-.1,6.75,0,10.12,0,0,9.84,0,19.68,0,29.52,2.95.06,5.9,0,8.84,0,0,2.71,0,5.42,0,8.13-6,0-12,0-18.05,0-.32,0-1,.12-.92-.42,0-12.41,0-24.83,0-37.24Z"/><path id="path29" class="cls-4" d="M145.45,152.43c4.15,0,8.3-.08,12.45.06,2.26,12.55,4.63,25.07,6.89,37.62-3.36,0-6.72.06-10.07,0l-.14-.15c-.31-1.65-.38-3.35-.71-5-1.68,0-3.36,0-5,0-.33,1.71-.44,3.46-.71,5.18q-4.79,0-9.58,0,3.39-18.85,6.9-37.68Zm4.26,25.22H153c-.54-4.24-1.12-8.47-1.63-12.71-.67,4.22-1.1,8.48-1.63,12.71Z"/><path id="path31" class="cls-4" d="M166.35,152.47c2.62,0,5.24,0,7.86,0,.31.06.82-.09,1,.28,3.14,5.85,6.18,11.78,9.4,17.59.08-6,0-11.91,0-17.86q4.47,0,8.93,0c0,7.91,0,15.81,0,23.72,0,4.66.07,9.31-.05,14-2.75,0-5.49,0-8.24,0-3.32-5.87-6.59-11.78-9.95-17.63-.06,5.88.07,11.77-.07,17.65q-4.44,0-8.88,0c-.11-12.56,0-25.13,0-37.69Z"/><path id="path33" class="cls-4" d="M195.76,152.47h19.89c0,2.52,0,5,0,7.55-3.27,0-6.55,0-9.82,0,0,2.4,0,4.8,0,7.2,3.19,0,6.39,0,9.58,0q0,3.57,0,7.14c-3.19,0-6.38,0-9.58,0q0,3.89,0,7.78c3.36.08,6.71,0,10.07,0,0,2.64,0,5.28,0,7.92q-10,0-20.09,0c-.12-4.57,0-9.14-.05-13.71,0-8,0-16,0-24Z"/><path id="path35" class="cls-4" d="M217.45,152.47c7.8,0,15.59,0,23.39,0,0,2.5,0,5,0,7.51-2.22.05-4.43,0-6.65,0,0,10,.06,20.09,0,30.13-3.35,0-6.69,0-10,0,0-10,0-20.08,0-30.13-2.22,0-4.43,0-6.65,0C217.43,157.49,217.44,155,217.45,152.47Z"/></g></g></g></g></svg>