<svg xmlns="http://www.w3.org/2000/svg" viewBox="0 0 283.46 283.46"><defs><style>.cls-1{fill:#0074ff;}.cls-2{fill:#eee;}</style></defs><g id="Layer_2" data-name="Layer 2"><g id="Discovery_Group" data-name="Discovery Group"><g id="animalplanet"><rect class="cls-1" width="283.46" height="283.46"/><g id="logo"><path id="path17862-8" class="cls-2" d="M49.8,179.32c-4.49,0-7.28,3.62-7.28,7.61,0,4.59,3.33,7.84,7.35,7.84a6.79,6.79,0,0,0,4.81-2.16v1.65H59.4v-14.4H54.68v1.78a6.11,6.11,0,0,0-4.88-2.32Zm1.39,4A3.9,3.9,0,0,1,54.82,187a3.69,3.69,0,0,1-7.37,0,3.77,3.77,0,0,1,3.74-3.74Z"/><path id="path17866-0" class="cls-2" d="M62.77,194.25v-14.4h4.75v1.89a6.14,6.14,0,0,1,5.06-2.44c3.94,0,5.28,2.5,5.28,5.63v9.32H73.11v-7.68c0-2.42-.93-3.42-2.49-3.42-1.79,0-3.1,1.54-3.1,4v7.13Z"/><path id="path17869-1" class="cls-2" d="M81,194.25v-14.4h4.8v14.4Z"/><circle id="path17871-9" class="cls-2" cx="83.4" cy="174.51" r="2.79"/><path id="path17873-9" class="cls-2" d="M104.19,187.4v6.85H99.45v-7.68c0-2.42-.94-3.42-2.5-3.42-1.79,0-3.1,1.54-3.1,4v7.13H89.1v-14.4h4.75v1.89a6.14,6.14,0,0,1,5.06-2.44c2.42,0,3.86.94,4.61,2.39,0,0,1.55-2.4,5.53-2.4,3.74,0,5.56,2.27,5.56,5.36v9.6h-4.74v-7.68c0-1.87-.74-3.47-2.5-3.47s-3.18,1.63-3.18,4.3Z"/><path id="path17877-9" class="cls-2" d="M123.76,179.32c-4.49,0-7.28,3.62-7.28,7.61,0,4.59,3.33,7.84,7.35,7.84a6.79,6.79,0,0,0,4.81-2.16v1.65h4.72v-14.4h-4.72v1.78a6.11,6.11,0,0,0-4.88-2.32Zm1.39,4a3.9,3.9,0,0,1,3.63,3.72,3.69,3.69,0,0,1-7.37,0,3.77,3.77,0,0,1,3.74-3.74Z"/><path id="path17879-8" class="cls-2" d="M136.73,194.25V174.09h4.79v20.16Z"/><path id="path17881-5" class="cls-2" d="M183.91,179.32c-4.48,0-7.27,3.62-7.27,7.61,0,4.59,3.32,7.84,7.35,7.84a6.79,6.79,0,0,0,4.81-2.16v1.65h4.71v-14.4H188.8v1.78a6.12,6.12,0,0,0-4.89-2.32Zm1.39,4a3.91,3.91,0,0,1,3.64,3.72,3.69,3.69,0,0,1-7.37,0,3.77,3.77,0,0,1,3.73-3.74Z"/><path id="path17883-9" class="cls-2" d="M169.82,194.25V174.09h4.8v20.16Z"/><path id="path17885-4" class="cls-2" d="M160.64,179.32c4.49,0,7.28,3.62,7.28,7.61,0,4.59-3.33,7.84-7.36,7.84a6.78,6.78,0,0,1-4.8-2.16V200H151V179.86h4.72v1.78A6.11,6.11,0,0,1,160.64,179.32Zm-1.39,4a3.9,3.9,0,0,0-3.63,3.72,3.69,3.69,0,0,0,7.37,0,3.77,3.77,0,0,0-3.74-3.74Z"/><path id="path17887-5" class="cls-2" d="M196.9,194.25v-14.4h4.74v1.89a6.15,6.15,0,0,1,5.07-2.44c3.93,0,5.27,2.5,5.27,5.63v9.32h-4.74v-7.68c0-2.42-.94-3.42-2.5-3.42-1.79,0-3.1,1.54-3.1,4v7.13Z"/><path id="path17889-4" class="cls-2" d="M221.61,179.32c-4.49,0-7.72,2.9-7.72,7.72s3.26,7.71,8.59,7.71a14.66,14.66,0,0,0,5.23-1.17l-1.05-3.41a9.32,9.32,0,0,1-3.79.91c-2.53,0-3.71-1.43-4-2.72h10.42c.15-4.92-1.88-9-7.65-9Zm.21,3.46a3.06,3.06,0,0,1,3.08,2.7h-6.14A3.11,3.11,0,0,1,221.82,182.78Z"/><path id="path17893-0" class="cls-2" d="M237.22,176.43v3.42h3.29v3.71h-3.29v5.76c0,1.17.48,1.75,1.88,1.75a7,7,0,0,0,1.44-.21l.4,3.43a8.78,8.78,0,0,1-3,.42c-3.61,0-5.53-1.78-5.53-5.12v-6h-2.14v-3.71h2.14v-3.42Z"/><path id="path17895-7" class="cls-2" d="M153.61,83.45V106.3a37.2,37.2,0,0,1,5.24,5.24c-8.69-5.67-17.93-8.06-29.16-8.06-18.49,0-35.32,8.57-43.63,22.75l1.07,2s3.62-4.34,12-8.61c-9.12,9-12.94,16.18-18.55,32.74l8.9,8.87a64.28,64.28,0,0,1,93.81-2.56l9.58-9.62a136,136,0,0,0-17.9-23.57c5.74,3.28,14.91,5.15,23.66,5.15,15.31,0,26.56-8.24,26.56-19.47,0-13.83-11.85-22.24-31.19-25.44L190.84,91c9.73,1.74,24.87,7.4,24.87,17.52a10.15,10.15,0,0,1-10.48,10.21c-7.64,0-14-8.53-17.85-16.06l-5.91-.14c-6.78-8.39-17.73-16.57-27.86-19Z"/></g></g></g></g></svg>