<svg xmlns="http://www.w3.org/2000/svg" viewBox="0 0 283.46 283.46"><defs><style>.cls-1{fill:#fff;}.cls-2{fill:#0a50c2;}</style></defs><title>arenasport2</title><g id="Layer_2" data-name="Layer 2"><g id="Sport"><g id="arenasport2"><rect width="283.46" height="283.46"/><g id="logo"><path class="cls-1" d="M223.71,126.69c-3.44,0-6.8,0-10.25,0,.13-.78.23-1.47.35-2.15a32.13,32.13,0,0,1,1.31-5.61c1.9-5.18,5.47-8.44,11-9.31a18.77,18.77,0,0,1,7.8.41,9.2,9.2,0,0,1,7,9.12,19.43,19.43,0,0,1-2,8.42,40.36,40.36,0,0,1-4.51,7.3c-3.59,4.86-7.39,9.55-11.21,14.24-.3.37-.59.75-1,1.2a3.83,3.83,0,0,0,.58.13c.41,0,.83,0,1.25,0h10.64a5.27,5.27,0,0,1,0,.8q-.56,3.4-1.15,6.79c-.08.49-.13.52-.64.55H209.49c-.46,0-.91,0-1.44,0,.09-.63.17-1.18.26-1.73.25-1.51.52-3,.77-4.52a2.38,2.38,0,0,1,.48-1.06q6.52-8.73,13-17.47a82.67,82.67,0,0,0,5.13-7.54,22.7,22.7,0,0,0,2-4.26,8.71,8.71,0,0,0,.47-2.83c0-.07,0-.13,0-.2A2.15,2.15,0,0,0,226.9,117a2.74,2.74,0,0,0-1.41,1.58,23,23,0,0,0-.81,2.83c-.31,1.5-.54,3-.8,4.52C223.84,126.18,223.78,126.39,223.71,126.69Z"/><path class="cls-2" d="M138.75,127.15a26.35,26.35,0,0,0-11.71,3c-9,4.7-14.72,15.81-10.86,23.16s16.25,8.16,25.22,3.46,14.38-15.94,10.53-23.3c-2.29-4.36-7.47-6.38-13.18-6.31Zm-2.6,9a5.09,5.09,0,0,1,5.48,4.93c.21,3.77-3.27,8.09-7.34,9.25s-7.55-.57-7.75-4.34,3.33-8.36,7.41-9.51a8.3,8.3,0,0,1,2.21-.33Z"/><path class="cls-2" d="M102.87,127.22a19.94,19.94,0,0,0-11.26,4.18l1-3.35H82.2l-13.79,46H79l5.38-18.25A9.57,9.57,0,0,0,87,158c6.48,3.75,16.81.62,22.81-7.49s5.75-18-.73-21.74a11.8,11.8,0,0,0-6.16-1.5Zm-5.72,9c2.45,0,4.56,1,5.2,3.33,1,3.48-1.81,8.48-5.65,10.18s-7.94,1-8.92-2.5,1.55-8.42,5.39-10.11a10.18,10.18,0,0,1,4-.9Z"/><path class="cls-2" d="M182,127.17a11.77,11.77,0,0,0-4.93,1.1,21.36,21.36,0,0,0-6.06,4.35l1.36-4.56H161.88l-9.18,30.59h10.54l4.92-16.5a13.94,13.94,0,0,1,1.46-2.43,8.57,8.57,0,0,1,3.9-2.92,8.06,8.06,0,0,1,4.86-.21,7.22,7.22,0,0,1,2.77,1.37l7.14-8.84a9.58,9.58,0,0,0-6.28-2Z"/><path class="cls-2" d="M65.73,127.08a19.93,19.93,0,0,0-5.37.84c-7.49,2.23-11.92,8.18-10,13.65a5.17,5.17,0,0,0,.56,1.22,9.9,9.9,0,0,0,3.86,3.12c1,.43,2.1.85,3.09,1.28,1.34.61,1.77,1.17,1.77,1.89,0,1.67-1.92,3.1-4.5,2.69a7.83,7.83,0,0,1-3.58-1.52,26.29,26.29,0,0,1-2.44-1.93l-6.56,7.25c4.21,4.48,12.12,4.64,17.88,3.26a14.22,14.22,0,0,0,10.34-9.14h0a11,11,0,0,0,.55-3.36c-.37-4.66-4.1-6-7.3-7.1-2.15-.72-3.55-1.25-3.46-2.82.29-1.38,2.48-2.15,4.95-1.7a13.41,13.41,0,0,1,5.09,1.84l5.57-7a22.2,22.2,0,0,0-10.43-2.43Z"/><path class="cls-2" d="M207.06,116.6H196.5L192.93,128H188.6l-2.36,8.16h4.33l-3.75,12.93a14.51,14.51,0,0,0-.37,4.41,5.76,5.76,0,0,0,5.07,5.87,15.8,15.8,0,0,0,7.85-.66l3-1-.06-8.51-1.23.53a8.54,8.54,0,0,1-1.43.35c-1.48.12-2-.78-2-2a4.68,4.68,0,0,1,.26-1.27l3.17-10.65h6.44l2.46-8.15h-6.37Z"/><path class="cls-1" d="M118.76,109.5a5.89,5.89,0,0,0-2.71.64,10.51,10.51,0,0,0-2.7,1.91l.46-2.06-5.18.06-4.43,15,5.09,0,2.17-7.33a15.76,15.76,0,0,1,1-1.9,4,4,0,0,1,2-1.56,3.9,3.9,0,0,1,2.55-.23,3.1,3.1,0,0,1,1.45.73l3.37-4.32c-.64-.86-3-1-3-1Z"/><path class="cls-1" d="M95.22,109.5A10.69,10.69,0,0,0,87,114c-3,4-2.86,8.94.36,10.8a5.86,5.86,0,0,0,3.06.74A9.9,9.9,0,0,0,96,123.47l-.49,1.66h5.17l4.52-15.1H99.94l-.38,1.3a4.75,4.75,0,0,0-1.26-1.05,6.16,6.16,0,0,0-3.08-.78Zm0,4.43a2.42,2.42,0,0,1,2.65,1.68,4.74,4.74,0,0,1-2.67,5,5.06,5.06,0,0,1-2,.45,2.43,2.43,0,0,1-2.58-1.66c-.48-1.73.9-4.21,2.81-5.06a5,5,0,0,1,1.77-.43Z"/><path class="cls-1" d="M167.67,109.53a10.69,10.69,0,0,0-8.25,4.5c-3,4-2.86,8.94.36,10.8a5.86,5.86,0,0,0,3.06.74,9.9,9.9,0,0,0,5.59-2.08l-.49,1.66h5.17l4.52-15.1H172.4l-.38,1.3a4.75,4.75,0,0,0-1.26-1.05,6.16,6.16,0,0,0-3.08-.78Zm0,4.43a2.42,2.42,0,0,1,2.65,1.68,4.74,4.74,0,0,1-2.67,5,5.06,5.06,0,0,1-2,.45,2.43,2.43,0,0,1-2.58-1.66c-.48-1.73.9-4.21,2.81-5.06a5,5,0,0,1,1.77-.43Z"/><path class="cls-1" d="M151.19,109.54a10.25,10.25,0,0,0-2.53.63,6.89,6.89,0,0,0-2.45,1.48l.34-1.61-5.18.06-4.43,15,5.09,0,2.17-7.33a18.68,18.68,0,0,1,.92-2.14A4.32,4.32,0,0,1,147,114a3.67,3.67,0,0,1,2.47-.3,2.23,2.23,0,0,1,.42.23,1.87,1.87,0,0,1,.78,1.75,3.07,3.07,0,0,1-.13.81L148.05,125l5.09,0s1.8-6.06,2.32-7.73a12.49,12.49,0,0,0,.94-4.29,3.41,3.41,0,0,0-2.06-2.89,7.33,7.33,0,0,0-3.15-.63Z"/><path class="cls-1" d="M131.43,109.38q-.44,0-.9,0c-5,.37-9.8,4.32-10.73,8.82s2.38,7.86,7.37,7.49a12.71,12.71,0,0,0,8.07-4l-3.36-2a7.29,7.29,0,0,1-1.34,1.11,4.91,4.91,0,0,1-2.54.64,3.82,3.82,0,0,1-2.08-.61,2.53,2.53,0,0,1-.56-2.65h11.11v-.05a8,8,0,0,0,.48-5.06,5.42,5.42,0,0,0-4.21-3.59h-.11l-.13,0a8.94,8.94,0,0,0-1.09-.1ZM130,112.81a2.21,2.21,0,0,1,2.16,1.38,4.11,4.11,0,0,1,.09,1.14h-5.74a3.22,3.22,0,0,1,2.13-2.29,3.69,3.69,0,0,1,1.14-.23H130Z"/></g></g></g></g></svg>