<svg xmlns="http://www.w3.org/2000/svg" viewBox="0 0 283.46 283.46"><defs><style>.cls-1{fill:#0a50c2;}.cls-2{fill:#fff;}</style></defs><title>arenasport1</title><g id="Layer_2" data-name="Layer 2"><g id="Sport"><g id="arenasport1"><rect width="283.46" height="283.46"/><g id="logo"><path class="cls-1" d="M140.39,126.89a26.8,26.8,0,0,0-11.91,3c-9.12,4.78-15,16.08-11,23.56s16.53,8.3,25.65,3.52,14.63-16.22,10.71-23.69c-2.33-4.44-7.6-6.49-13.41-6.41ZM137.74,136a5.18,5.18,0,0,1,5.57,5c.21,3.83-3.32,8.23-7.47,9.4s-7.68-.58-7.88-4.41,3.39-8.5,7.54-9.68a8.44,8.44,0,0,1,2.24-.33Z"/><path class="cls-1" d="M103.91,127a20.28,20.28,0,0,0-11.45,4.25l1-3.4H82.88l-14,46.82H79.67l5.47-18.56a9.73,9.73,0,0,0,2.58,2.15c6.59,3.82,17.09.63,23.2-7.62s5.85-18.3-.74-22.12a12,12,0,0,0-6.27-1.52Zm-5.81,9.16c2.5,0,4.63,1.07,5.28,3.39,1,3.54-1.84,8.63-5.75,10.35s-8.08,1-9.07-2.55,1.57-8.56,5.48-10.28a10.35,10.35,0,0,1,4.06-.91Z"/><path class="cls-1" d="M184.39,126.92a12,12,0,0,0-5,1.12,21.73,21.73,0,0,0-6.17,4.43l1.38-4.64H163.92l-9.33,31.11h10.72l5-16.78a14.18,14.18,0,0,1,1.48-2.48,8.72,8.72,0,0,1,4-3,8.2,8.2,0,0,1,4.94-.21,7.34,7.34,0,0,1,2.81,1.4l7.26-9a9.74,9.74,0,0,0-6.38-2Z"/><path class="cls-2" d="M235.56,108.93l-17,9.22-3.26,11.28,9.74-5.18-10.3,34.63,11.3,0L240.94,109l-5.39-.08Z"/><path class="cls-1" d="M66.12,126.83a20.27,20.27,0,0,0-5.46.85C53,130,48.53,136,50.45,141.56A5.25,5.25,0,0,0,51,142.8,10.07,10.07,0,0,0,54.95,146c1,.44,2.13.86,3.14,1.3,1.36.62,1.8,1.19,1.8,1.92.05,1.7-2,3.15-4.58,2.73a8,8,0,0,1-3.64-1.55,26.74,26.74,0,0,1-2.48-2l-6.67,7.37c4.28,4.56,12.33,4.72,18.19,3.32a14.47,14.47,0,0,0,10.52-9.29h0a11.15,11.15,0,0,0,.56-3.42c-.38-4.74-4.17-6.06-7.43-7.22-2.18-.73-3.61-1.27-3.52-2.87.3-1.41,2.52-2.19,5-1.73a13.64,13.64,0,0,1,5.18,1.87l5.67-7.15a22.58,22.58,0,0,0-10.61-2.48Z"/><path class="cls-1" d="M209.88,116.17H199.13l-3.62,11.62H191.1l-2.4,8.3h4.4l-3.82,13.15a14.76,14.76,0,0,0-.38,4.49,5.86,5.86,0,0,0,5.16,6,16.07,16.07,0,0,0,8-.67l3.1-1-.07-8.65-1.25.54a8.69,8.69,0,0,1-1.45.36c-1.5.12-2-.79-2-2a4.76,4.76,0,0,1,.27-1.29l3.22-10.83h6.55l2.5-8.29h-6.48Z"/><path class="cls-2" d="M120.06,108.94a6,6,0,0,0-2.76.66,10.69,10.69,0,0,0-2.74,1.94l.46-2.09-5.27.06-4.5,15.25,5.18,0,2.21-7.45a16,16,0,0,1,1-1.94,4.07,4.07,0,0,1,2-1.59,4,4,0,0,1,2.6-.23,3.15,3.15,0,0,1,1.48.74l3.42-4.4c-.65-.88-3-1-3-1Z"/><path class="cls-2" d="M96.12,108.94a10.88,10.88,0,0,0-8.39,4.58c-3,4.1-2.91,9.09.37,11a6,6,0,0,0,3.11.76,10.07,10.07,0,0,0,5.69-2.11l-.5,1.69h5.26l4.6-15.36h-5.33l-.39,1.32a4.83,4.83,0,0,0-1.28-1.07,6.26,6.26,0,0,0-3.13-.8Zm0,4.5a2.46,2.46,0,0,1,2.7,1.71,4.82,4.82,0,0,1-2.72,5.11,5.14,5.14,0,0,1-2,.45A2.47,2.47,0,0,1,91.47,119c-.49-1.76.92-4.29,2.86-5.14a5,5,0,0,1,1.81-.44Z"/><path class="cls-2" d="M169.81,109a10.88,10.88,0,0,0-8.39,4.58c-3,4.1-2.91,9.09.37,11a6,6,0,0,0,3.11.76,10.07,10.07,0,0,0,5.69-2.11l-.5,1.69h5.26l4.6-15.36h-5.33l-.39,1.32a4.83,4.83,0,0,0-1.28-1.07,6.26,6.26,0,0,0-3.13-.8Zm0,4.5a2.46,2.46,0,0,1,2.7,1.71,4.82,4.82,0,0,1-2.72,5.11,5.14,5.14,0,0,1-2,.45,2.47,2.47,0,0,1-2.63-1.68c-.49-1.76.92-4.29,2.86-5.14a5,5,0,0,1,1.81-.44Z"/><path class="cls-2" d="M153,109a10.42,10.42,0,0,0-2.57.64,7,7,0,0,0-2.49,1.5l.35-1.64-5.27.06-4.5,15.25,5.18,0,2.21-7.45a19,19,0,0,1,.93-2.17,4.39,4.39,0,0,1,2-1.72,3.74,3.74,0,0,1,2.51-.3,2.27,2.27,0,0,1,.43.24,1.9,1.9,0,0,1,.8,1.78,3.12,3.12,0,0,1-.13.82l-2.58,8.74,5.18,0s1.83-6.17,2.36-7.86a12.71,12.71,0,0,0,1-4.36,3.47,3.47,0,0,0-2.1-2.94A7.46,7.46,0,0,0,153,109Z"/><path class="cls-2" d="M133,108.82q-.45,0-.91,0c-5.08.37-10,4.39-10.91,9s2.42,8,7.5,7.62a12.93,12.93,0,0,0,8.21-4l-3.41-2a7.42,7.42,0,0,1-1.37,1.13,5,5,0,0,1-2.58.65,3.88,3.88,0,0,1-2.11-.62,2.57,2.57,0,0,1-.57-2.69h11.3v-.05a8.16,8.16,0,0,0,.49-5.15A5.51,5.51,0,0,0,134.3,109h0l-.11,0-.13,0a9.09,9.09,0,0,0-1.11-.1Zm-1.41,3.49a2.25,2.25,0,0,1,2.2,1.4,4.18,4.18,0,0,1,.09,1.16H128a3.28,3.28,0,0,1,2.16-2.33,3.75,3.75,0,0,1,1.16-.24h.22Z"/></g></g></g></g></svg>