<svg xmlns="http://www.w3.org/2000/svg" viewBox="0 0 283.46 283.46"><defs><style>.cls-1{fill:#0a50c2;}.cls-2{fill:#fff;}</style></defs><g id="Layer_2" data-name="Layer 2"><g id="Sport"><g id="arenasport1"><rect width="283.46" height="283.46"/><g id="logo"><path class="cls-1" d="M140.39,126.89a26.79,26.79,0,0,0-11.91,3c-9.12,4.78-15,16.08-11,23.55S134,161.79,143.09,157s14.63-16.22,10.71-23.69c-2.33-4.44-7.6-6.49-13.41-6.42Zm-2.65,9.16a5.17,5.17,0,0,1,5.57,5c.21,3.84-3.32,8.24-7.46,9.41s-7.68-.58-7.89-4.41,3.39-8.51,7.54-9.68a8.27,8.27,0,0,1,2.24-.33Z"/><path class="cls-1" d="M103.91,127a20.22,20.22,0,0,0-11.45,4.25l1-3.41H82.88l-14,46.82H79.67l5.46-18.56a9.86,9.86,0,0,0,2.58,2.15c6.6,3.82,17.1.63,23.21-7.62s5.85-18.3-.75-22.11a12,12,0,0,0-6.26-1.53Zm-5.82,9.16c2.5,0,4.64,1.07,5.29,3.39,1,3.54-1.85,8.63-5.75,10.35s-8.08,1-9.07-2.54,1.57-8.56,5.48-10.29a10.37,10.37,0,0,1,4-.91Z"/><path class="cls-1" d="M184.39,126.92a12,12,0,0,0-5,1.13,21.62,21.62,0,0,0-6.17,4.42l1.39-4.64H163.92l-9.33,31.11h10.72l5-16.78a14.89,14.89,0,0,1,1.48-2.48,8.81,8.81,0,0,1,4-3,8.13,8.13,0,0,1,4.94-.21,7.28,7.28,0,0,1,2.81,1.4l7.26-9a9.68,9.68,0,0,0-6.38-2Z"/><path class="cls-2" d="M235.56,108.93l-17,9.22-3.25,11.28,9.74-5.18-10.3,34.63,11.3,0L240.94,109l-5.38-.08Z"/><path class="cls-1" d="M66.12,126.83a20.77,20.77,0,0,0-5.46.85C53,130,48.53,136,50.45,141.56A4.88,4.88,0,0,0,51,142.8,10,10,0,0,0,55,146c1,.44,2.13.87,3.14,1.31,1.36.62,1.81,1.19,1.81,1.92.05,1.7-2,3.16-4.59,2.74a8,8,0,0,1-3.64-1.55,27.66,27.66,0,0,1-2.48-2l-6.67,7.37c4.28,4.56,12.33,4.73,18.19,3.32a14.44,14.44,0,0,0,10.51-9.29h0a10.94,10.94,0,0,0,.56-3.42c-.37-4.75-4.17-6.06-7.42-7.23-2.18-.73-3.62-1.26-3.52-2.86.29-1.41,2.52-2.19,5-1.73a13.71,13.71,0,0,1,5.18,1.87l5.67-7.14a22.54,22.54,0,0,0-10.61-2.48Z"/><path class="cls-1" d="M209.88,116.17H199.13l-3.62,11.62H191.1l-2.4,8.3h4.4l-3.82,13.16a14.82,14.82,0,0,0-.38,4.48,5.86,5.86,0,0,0,5.16,6,16.14,16.14,0,0,0,8-.67l3.1-1-.06-8.65-1.25.54a8.54,8.54,0,0,1-1.45.36c-1.51.12-2-.79-2-2a4.58,4.58,0,0,1,.27-1.29l3.22-10.83,6.56,0,2.5-8.3h-6.48Z"/><path class="cls-2" d="M120.06,108.94a6.16,6.16,0,0,0-2.76.66,10.84,10.84,0,0,0-2.74,1.94l.46-2.09-5.27.06-4.5,15.25,5.18,0,2.2-7.45a16.71,16.71,0,0,1,1-1.94,4.1,4.1,0,0,1,2-1.59,4,4,0,0,1,2.6-.23,3.18,3.18,0,0,1,1.48.74l3.42-4.4c-.65-.88-3-1-3-1Z"/><path class="cls-2" d="M96.12,108.94a10.89,10.89,0,0,0-8.39,4.58c-3,4.1-2.91,9.09.37,11a6,6,0,0,0,3.11.76,10.06,10.06,0,0,0,5.69-2.11l-.5,1.69h5.25l4.61-15.36h-5.34l-.39,1.32a4.62,4.62,0,0,0-1.28-1.07,6.22,6.22,0,0,0-3.13-.79Zm0,4.51a2.45,2.45,0,0,1,2.7,1.7c.5,1.76-.78,4.25-2.72,5.11a4.92,4.92,0,0,1-2,.45A2.47,2.47,0,0,1,91.47,119c-.49-1.76.92-4.29,2.86-5.14a4.85,4.85,0,0,1,1.8-.44Z"/><path class="cls-2" d="M169.81,109a10.84,10.84,0,0,0-8.39,4.58c-3,4.09-2.91,9.09.37,11a6,6,0,0,0,3.11.76,10.06,10.06,0,0,0,5.69-2.11l-.5,1.69h5.26l4.6-15.36h-5.33l-.39,1.32a4.77,4.77,0,0,0-1.28-1.07,6.26,6.26,0,0,0-3.14-.79Zm0,4.5a2.45,2.45,0,0,1,2.7,1.7,4.82,4.82,0,0,1-2.72,5.11,5.19,5.19,0,0,1-2,.46,2.47,2.47,0,0,1-2.62-1.69c-.5-1.76.91-4.28,2.85-5.14a4.94,4.94,0,0,1,1.81-.44Z"/><path class="cls-2" d="M153.05,109a10.09,10.09,0,0,0-2.57.64,7,7,0,0,0-2.49,1.5l.34-1.64-5.27.06-4.5,15.25,5.18,0,2.21-7.45a17.93,17.93,0,0,1,.93-2.17,4.34,4.34,0,0,1,2-1.72,3.76,3.76,0,0,1,2.52-.31,2.62,2.62,0,0,1,.42.24,1.91,1.91,0,0,1,.8,1.78,3.26,3.26,0,0,1-.13.82l-2.58,8.74,5.17,0s1.83-6.17,2.36-7.86a12.82,12.82,0,0,0,1-4.36,3.48,3.48,0,0,0-2.1-2.95,7.39,7.39,0,0,0-3.2-.63Z"/><path class="cls-2" d="M133,108.82l-.91,0c-5.08.37-10,4.39-10.91,9s2.42,8,7.5,7.61a12.91,12.91,0,0,0,8.21-4l-3.41-2.05a7.27,7.27,0,0,1-1.37,1.13,5,5,0,0,1-2.58.65,3.9,3.9,0,0,1-2.11-.62,2.59,2.59,0,0,1-.57-2.7h11.3v0a8.26,8.26,0,0,0,.49-5.15A5.52,5.52,0,0,0,134.3,109h-.11l-.13,0a10,10,0,0,0-1.11-.1Zm-1.41,3.5a2.23,2.23,0,0,1,2.2,1.4,4.71,4.71,0,0,1,.09,1.16H128a3.29,3.29,0,0,1,2.16-2.33,3.68,3.68,0,0,1,1.16-.23Z"/></g></g></g></g></svg>