<svg xmlns="http://www.w3.org/2000/svg" viewBox="0 0 283.46 283.46"><defs><style>.cls-1{fill:#fff;}.cls-2{fill:#0a50c2;}</style></defs><g id="Layer_2" data-name="Layer 2"><g id="Sport"><g id="arenasport2"><rect width="283.46" height="283.46"/><g id="logo"><path class="cls-1" d="M223.71,126.69c-3.44,0-6.8,0-10.26,0,.13-.78.23-1.46.35-2.15a32.64,32.64,0,0,1,1.31-5.61c1.9-5.18,5.47-8.43,11-9.31a18.83,18.83,0,0,1,7.8.41,9.2,9.2,0,0,1,7,9.12,19.34,19.34,0,0,1-2,8.42,40.36,40.36,0,0,1-4.52,7.3c-3.59,4.86-7.39,9.55-11.2,14.24l-.95,1.2a3.16,3.16,0,0,0,.58.13c.41,0,.83,0,1.24,0h10.64a5.23,5.23,0,0,1,0,.8c-.37,2.27-.76,4.53-1.14,6.79-.09.49-.14.53-.65.55H209.49l-1.44,0c.1-.63.17-1.18.26-1.74.26-1.5.52-3,.77-4.52a2.49,2.49,0,0,1,.48-1.06q6.52-8.72,13-17.47a82.64,82.64,0,0,0,5.13-7.54,22.36,22.36,0,0,0,2-4.25,8.59,8.59,0,0,0,.47-2.84V119A2.15,2.15,0,0,0,226.9,117a2.74,2.74,0,0,0-1.41,1.58,22.88,22.88,0,0,0-.81,2.83c-.32,1.49-.54,3-.81,4.52C223.84,126.18,223.78,126.39,223.71,126.69Z"/><path class="cls-2" d="M138.75,127.15a26.25,26.25,0,0,0-11.71,3c-9,4.7-14.72,15.81-10.86,23.16s16.25,8.16,25.22,3.46,14.38-15.95,10.53-23.3c-2.29-4.36-7.47-6.38-13.19-6.31Zm-2.61,9a5.09,5.09,0,0,1,5.48,4.93c.21,3.77-3.27,8.09-7.34,9.24s-7.55-.57-7.75-4.33,3.33-8.36,7.41-9.52a8.3,8.3,0,0,1,2.2-.32Z"/><path class="cls-2" d="M102.87,127.22a20,20,0,0,0-11.25,4.18l1-3.34H82.2l-13.79,46H79l5.38-18.25A9.71,9.71,0,0,0,87,158c6.49,3.75,16.81.62,22.82-7.49s5.75-18-.73-21.75a12,12,0,0,0-6.17-1.5Zm-5.71,9c2.45,0,4.55,1.05,5.19,3.34,1,3.48-1.81,8.48-5.65,10.18s-7.94,1-8.91-2.51,1.54-8.41,5.38-10.11a10.05,10.05,0,0,1,4-.89Z"/><path class="cls-2" d="M182,127.17a11.69,11.69,0,0,0-4.93,1.11,21.27,21.27,0,0,0-6.06,4.35l1.36-4.56H161.88l-9.18,30.58h10.54l4.92-16.49a14.71,14.71,0,0,1,1.46-2.44,8.61,8.61,0,0,1,3.9-2.92,8.1,8.1,0,0,1,4.86-.2,7.23,7.23,0,0,1,2.76,1.37l7.14-8.84a9.53,9.53,0,0,0-6.28-1.95Z"/><path class="cls-2" d="M65.73,127.08a20,20,0,0,0-5.37.84c-7.49,2.23-11.93,8.18-10,13.65a5.48,5.48,0,0,0,.57,1.22,9.81,9.81,0,0,0,3.86,3.11c1,.44,2.1.85,3.09,1.29,1.34.6,1.77,1.17,1.77,1.89,0,1.67-1.92,3.1-4.5,2.69a7.89,7.89,0,0,1-3.58-1.53,24.72,24.72,0,0,1-2.45-1.93l-6.55,7.25c4.21,4.48,12.12,4.64,17.88,3.26a14.22,14.22,0,0,0,10.34-9.14h0a10.84,10.84,0,0,0,.55-3.36c-.37-4.66-4.1-6-7.3-7.1-2.15-.72-3.55-1.25-3.46-2.82.29-1.38,2.48-2.15,4.95-1.7a13.53,13.53,0,0,1,5.09,1.84l5.57-7a22.29,22.29,0,0,0-10.43-2.44Z"/><path class="cls-2" d="M207.06,116.6H196.5L192.93,128H188.6l-2.36,8.16h4.33l-3.76,12.93a14.68,14.68,0,0,0-.37,4.41,5.75,5.75,0,0,0,5.07,5.87,15.84,15.84,0,0,0,7.85-.66l3-1-.07-8.5-1.22.52a8.55,8.55,0,0,1-1.43.36c-1.48.12-2-.78-2-2a4.52,4.52,0,0,1,.26-1.27l3.17-10.64h6.44l2.46-8.15h-6.37Z"/><path class="cls-1" d="M118.76,109.5a5.78,5.78,0,0,0-2.71.64,10.35,10.35,0,0,0-2.7,1.91l.45-2.06-5.18.06-4.42,15,5.09,0,2.17-7.32a14.76,14.76,0,0,1,1-1.91,4,4,0,0,1,2-1.56,3.9,3.9,0,0,1,2.55-.23,3.14,3.14,0,0,1,1.46.73l3.36-4.32c-.63-.86-3-1-3-1Z"/><path class="cls-1" d="M95.22,109.5A10.69,10.69,0,0,0,87,114c-3,4-2.86,8.94.36,10.8a5.87,5.87,0,0,0,3.06.75A9.94,9.94,0,0,0,96,123.47l-.49,1.66h5.17l4.52-15.1H99.94l-.38,1.3a5,5,0,0,0-1.26-1,6.16,6.16,0,0,0-3.08-.78Zm0,4.42a2.43,2.43,0,0,1,2.66,1.68,4.74,4.74,0,0,1-2.68,5,5,5,0,0,1-2,.45,2.43,2.43,0,0,1-2.58-1.66c-.49-1.73.9-4.21,2.81-5a5.11,5.11,0,0,1,1.77-.44Z"/><path class="cls-1" d="M167.67,109.53a10.72,10.72,0,0,0-8.25,4.5c-3,4-2.86,8.94.36,10.8a5.93,5.93,0,0,0,3.07.75,10,10,0,0,0,5.59-2.08l-.49,1.66h5.17l4.52-15.1H172.4l-.39,1.3a4.64,4.64,0,0,0-1.26-1,6.13,6.13,0,0,0-3.08-.78Zm0,4.42a2.42,2.42,0,0,1,2.65,1.68,4.73,4.73,0,0,1-2.67,5,5,5,0,0,1-2,.45,2.44,2.44,0,0,1-2.59-1.66c-.48-1.73.91-4.21,2.81-5a5.22,5.22,0,0,1,1.78-.44Z"/><path class="cls-1" d="M151.19,109.54a10,10,0,0,0-2.53.63,7,7,0,0,0-2.45,1.47l.34-1.61-5.18.07-4.42,15,5.09,0,2.17-7.33a18.93,18.93,0,0,1,.91-2.13A4.4,4.4,0,0,1,147,114a3.7,3.7,0,0,1,2.48-.29,2.23,2.23,0,0,1,.42.23,1.89,1.89,0,0,1,.78,1.75,3.26,3.26,0,0,1-.13.81l-2.54,8.59,5.09,0s1.8-6.06,2.32-7.72a12.47,12.47,0,0,0,.94-4.29,3.4,3.4,0,0,0-2.06-2.89,7.18,7.18,0,0,0-3.15-.63Z"/><path class="cls-1" d="M131.43,109.38a8.88,8.88,0,0,0-.89,0c-5,.37-9.81,4.32-10.73,8.82s2.38,7.86,7.37,7.49a12.71,12.71,0,0,0,8.08-4l-3.36-2a7.69,7.69,0,0,1-1.34,1.11,4.92,4.92,0,0,1-2.54.64,3.84,3.84,0,0,1-2.08-.62,2.53,2.53,0,0,1-.56-2.64h11.11v0a8,8,0,0,0,.48-5.07,5.42,5.42,0,0,0-4.21-3.59h-.11l-.13,0a9.42,9.42,0,0,0-1.09-.09ZM130,112.81a2.21,2.21,0,0,1,2.16,1.38,3.77,3.77,0,0,1,.09,1.14h-5.73a3.2,3.2,0,0,1,2.13-2.29,3.81,3.81,0,0,1,1.14-.24Z"/></g></g></g></g></svg>