<?xml version="1.0" standalone="yes"?>
<svg xmlns="http://www.w3.org/2000/svg" width="1024" height="1024">
<path style="fill:#fb0123; stroke:none;" d="M0 0L0 1024L1024 1024L1024 0L0 0z"/>
<path style="fill:#ffffff; stroke:none;" d="M423 420.558C407.067 424.737 403.969 453.003 424 448.47C441.915 444.416 444.596 414.893 423 420.558M239 554C245.306 554 261.222 556.9 266.272 552.972C270.855 549.408 271.899 535.488 273.424 530C279.449 508.325 290.49 479.797 269.996 462.213C238.754 435.407 187.067 461.241 168.004 490C158.238 504.732 150.507 527.571 163.329 542.996C179.609 562.58 208.665 554.51 226 540.985C230.105 537.781 239.419 531.588 240.079 526C240.659 521.078 224.745 506.163 220 507.346C216.85 508.131 214.273 511.809 212 513.91C205.449 519.964 178.984 536.048 178.363 516C177.713 495.056 203.001 474.803 221 469.44C231.259 466.383 243.845 467.388 250.297 477.004C255.161 484.253 253.618 494.01 251.996 502C248.489 519.276 240.438 536.399 239 554M575 510L574 510C567.338 517.563 559.111 525.356 549 527.826C542.838 529.332 536.416 525.901 536.202 519C535.63 500.54 558.953 481.5 575 477.159C584.361 474.627 595.437 475.271 601.297 484.004C605.937 490.918 604.252 501.436 602.373 509C598.746 523.605 592.306 539.021 591 554L617 554C620.502 537.035 627.979 520.24 629.826 503C632.64 476.738 613.874 460.094 588 461.375C561.742 462.675 538.057 476.192 524.453 499C515.141 514.612 510.948 537.151 528.001 549.362C544 560.818 566.091 552.399 580 541.764C583.699 538.936 592.969 532.729 592.093 527.17C591.15 521.182 579.393 513.838 575 510M830 542C827.797 558.36 820.359 575.239 806 584.289C799.225 588.559 784.689 586.573 779.854 591.603C777.343 594.216 776.955 599.611 776 603C786.405 603 796.831 603.691 807 601.104C844.261 591.624 853.092 557.7 861.374 525C865.307 509.472 872.792 488.36 861.606 474.001C851.957 461.612 835.687 459.296 821 461.59C792.696 466.011 766.948 486.503 759.899 515C758.798 519.452 757.75 524.411 758.293 529C762.508 564.604 809.704 560.262 830 542M288 554L314 554C317.682 536.159 323.253 518.615 327.884 501C330.039 492.804 331.236 483.837 339.001 478.995C351.776 471.026 368.682 480.307 382 475.397C387.245 473.463 391.884 467.424 395 463C374.037 463 343.294 457.352 324 466.324C301.766 476.663 299.677 507.846 294.116 529C291.968 537.169 288.735 545.57 288 554M380 554L406 554C410.074 523.773 421.723 492.383 430 463C423.894 463 409.564 460.334 404.564 464.028C399.916 467.462 398.625 481.551 397.151 487C391.369 508.375 381.801 531.947 380 554M428 554C434.106 554 448.436 556.666 453.436 552.972C457.393 550.049 458.162 539.541 459.424 535C462.843 522.703 466.192 510.361 469.37 498C471.076 491.366 472.142 484.133 478.043 479.803C490.574 470.61 508.316 479.882 522 475.436C527.729 473.575 532.657 467.745 536 463C512.247 463 474.266 455.546 455.093 472.468C447.245 479.394 445.426 489.432 442.71 499C437.529 517.254 433.145 535.736 428 554M661 463C656.925 493.263 645.34 524.61 637 554L662.487 552.972L669.116 533L684 476C693.555 476 714.391 472.107 721.682 479.419C726.522 484.272 722.032 493.448 720.626 499C715.981 517.337 709.833 535.481 706 554C712.106 554 726.436 556.666 731.436 552.972C735.552 549.931 736.662 537.815 737.873 533C741.407 518.951 745.771 505.093 749.116 491C750.894 483.506 751.757 475.218 745.786 469.213C738.587 461.973 728.307 463 719 463L661 463z"/>
<path style="fill:#ffdfdf; stroke:none;" d="M568 464L569 465L568 464M608 464L609 465L608 464M857 469L858 470L857 469M858 470L859 471L858 470M552 471L553 472L552 471M621 472L622 473L621 472M525 473L526 474L525 473M181 474L182 475L181 474M426 475L427 476L426 475z"/>
<path style="fill:#fb0123; stroke:none;" d="M816 475.518C799.863 478.961 786.067 493.469 781.44 509C775.939 527.461 791.693 538.797 809 535.532C824.779 532.556 836.792 519.017 840.841 504C845.972 484.968 836.679 471.106 816 475.518z"/>
<path style="fill:#ffdfdf; stroke:none;" d="M570 478L571 479L570 478M471 489L472 490L471 489M531 489L532 490L531 489M166 492L167 493L166 492M181 503L182 504L181 503M866 504L867 505L866 504M628 509L629 510L628 509M838 510L839 511L838 510M743 511L744 512L743 511M577 512L578 513L577 512M568 516L569 517L568 516M862 520L863 521L862 520M246 523L247 524L246 523M671 523L672 524L671 523M321 524L322 525L321 524M590 524L591 525L590 524M411 531L412 532L411 531M590 531L591 532L590 531M595 535L596 536L595 535M620 539L621 540L620 539M161 540L162 541L161 540M270 540L271 541L270 540z"/>
<path style="fill:#fb0123; stroke:none;" d="M830 541L831 542L830 541z"/>
<path style="fill:#ffdfdf; stroke:none;" d="M456 545L457 546L456 545M808 553L809 554L808 553M827 553L828 554L827 553M804 554L805 555L804 554M852 557L853 558L852 557M823 564L824 565L823 564M817 574L818 575L817 574z"/>
</svg>
