<?xml version="1.0" standalone="yes"?>
<svg xmlns="http://www.w3.org/2000/svg" width="1024" height="1024">
<path style="fill:#f57315; stroke:none;" d="M0 0L0 1024L1024 1024L1024 0L0 0z"/>
<path style="fill:#09aeef; stroke:none;" d="M273 548L293 544C291.494 541.902 288.442 540.488 287.711 537.892C285.569 530.275 299.193 521.813 304 518.003C321.375 504.232 341.429 493.107 361 482.781C388.476 468.283 416.724 454.763 446 444.308C458.335 439.903 472.653 433.904 486 434.259C520.783 435.185 546.706 449.313 576 466C568.511 455.457 554.796 447.798 544 440.947C528.281 430.972 508.28 415.279 489 414.094C474.699 413.215 459.712 421.508 447 427C411.598 442.295 377.981 463.787 346 485.167C326.798 498.005 307.489 511.149 290 526.282C283.256 532.118 274.056 538.507 273 548z"/>
<path style="fill:#e02c24; stroke:none;" d="M158 554L187 546C177.118 526.339 208.075 506.954 222 497.667C248.754 479.822 284.742 457.952 318 457.129C335.187 456.703 350.671 464.222 367 468C359.106 451.12 328.97 443.062 312 446.888C269.381 456.496 227.683 487.66 194 514.211C182.221 523.496 159.755 537.837 158 554z"/>
<path style="fill:#fdfbfb; stroke:none;" d="M353 549C357.279 549 364.89 550.459 368.57 547.972C374.188 544.176 371.134 536.405 380.001 536.019C385.002 535.801 395.415 534.181 399.443 537.603C402.855 540.503 402.834 546.491 407.213 548.397C412.471 550.685 421.316 549 427 549C422.516 534.277 414.566 518.65 407.427 505C405.284 500.902 404.336 493.804 400.363 491.028C396.684 488.458 380.137 488.561 376.803 491.603C373.09 494.993 371.733 502.478 369.694 507C364.02 519.589 354.408 535.244 353 549M434 490L434 549L455 549L455 525L466.674 526.028L481.39 547.972L503 549L488 522C500.791 517.15 505.872 498.767 490.999 492.479C475.022 485.724 451.109 490 434 490M513 490L513 549L529 549L529 504L530 504L548 549L561.301 547.972L567.117 536L581 503L582 503L582 549L601 549L601 490C593.937 490 577.484 486.926 571.638 491.028C564.511 496.028 559.759 515.069 556 523L544 490L513 490M617 490L617 549L676 549L676 536L637 536L637 523L667 523L667 511L637 511L637 500L675 500L675 490L617 490M686 490L686 549L701 549L702 511L724.08 538L734.17 548.397L749 549L749 490L734 490L734 522L715.46 500.015L706.74 490.6L686 490M764 490L764 549L784 549L784 490L764 490M792 549C803.885 549 811.544 549.78 814 536L837.895 536.603L846.498 547.972L867 549C862.92 534.831 854.455 521.666 848.923 508C846.988 503.222 844.704 494.136 840.351 491.028C836.853 488.531 822.141 488.787 818.302 490.603C814.148 492.57 811.769 501.973 810.19 506C804.583 520.298 796.211 534.274 792 549z"/>
<path style="fill:#f57315; stroke:none;" d="M454 500C454 503.565 452.694 510.45 455.028 513.397C463.38 523.942 494.053 504.67 473 500.344C470.72 499.876 468.313 500.004 466 500L454 500M386 507L379 525L395 525L388 507L386 507M826 507L819 525L835 525C833.399 519.133 831.22 510.53 826 507z"/>
<path style="fill:#2f2321; stroke:none;" d="M158 585L158 587L168 587L168 608L171 608C171 597.886 168.011 587.046 181 587L181 585L158 585z"/>
<path style="fill:#e02c24; stroke:none;" d="M230 585L231 586L230 585z"/>
<path style="fill:#2f2321; stroke:none;" d="M231 585C232.236 589.292 237.93 607.364 243.169 607.364C248.745 607.364 254.685 589.563 256 585C249.323 587.102 245.516 599.618 244 606C240.433 599.732 238.384 587.311 231 585z"/>
<path style="fill:#e02c24; stroke:none;" d="M234 585L235 586L234 585z"/>
<path style="fill:#2f2321; stroke:none;" d="M397 601C393.139 602.049 389.995 605.258 386 605.728C368.248 607.816 379.52 574.994 393 592L397 591C389.994 581.598 370.447 583.385 372.37 598C374.028 610.604 392.03 611.4 397 601z"/>
<path style="fill:#e02c24; stroke:none;" d="M457 585L458 586L457 585z"/>
<path style="fill:#2f2321; stroke:none;" d="M458.001 585.573C440.53 590.61 453.29 612.341 468.996 607.347C485.572 602.077 473.043 581.235 458.001 585.573M530 585L530 608L533 608L533 589L534 589C536.417 595.231 538.548 606.768 546 608L553 589L554 589L554 608L557 608L557 585L552 585L544 605C540.772 597.754 539.306 585.309 530 585z"/>
<path style="fill:#e02c24; stroke:none;" d="M557 585L557 608L558 608L557 585z"/>
<path style="fill:#2f2321; stroke:none;" d="M612 585L612 608L615 608L615 599C619.822 599 642.772 595.649 630.771 586.858C626.085 583.426 617.486 585 612 585z"/>
<path style="fill:#e02c24; stroke:none;" d="M628 585L629 586L628 585M691 585L692 586L691 585z"/>
<path style="fill:#2f2321; stroke:none;" d="M681 608L691.044 601.148L707 608C705.8 603.833 698.549 584.267 693.158 585.752C687.345 587.353 683.093 602.898 681 608M759 585L759 608L762 608L762 590C767.393 595.635 772.924 606.698 781 608L781 585L778 585L778 603C772.817 597.062 767.237 586.298 759 585z"/>
<path style="fill:#e02c24; stroke:none;" d="M781 585L781 608L782 608L781 585z"/>
<path style="fill:#2f2321; stroke:none;" d="M834 585C838.55 593.818 843.999 597.46 844 608L848 608C848.007 597.49 853.481 593.343 859 585C853.107 585.928 849.614 590.934 847 596C843.125 591.55 840.177 585.973 834 585z"/>
<path style="fill:#e02c24; stroke:none;" d="M834 586L835 587L834 586M158 587L158 588L168 588L158 587M172 587L172 588L181 588L172 587M231 587L232 588L231 587M255 587L256 588L255 587M394 587L395 588L394 587M453 587L454 588L453 587M459 587L460 588L459 587z"/>
<path style="fill:#f57315; stroke:none;" d="M460.005 587.657C447.872 591.375 454.084 608.718 465.996 605.562C478.352 602.29 472.14 583.938 460.005 587.657z"/>
<path style="fill:#e02c24; stroke:none;" d="M466 587L467 588L466 587M472 587L473 588L472 587M551 587L552 588L551 587M615 596L616 596L616 588L626 588C618.32 584.778 615.026 588.669 615 596M690 587L691 588L690 587M171 588L171 608L172 608L171 588M395 588L396 589L395 588M452 588L453 589L452 588M457 588L458 589L457 588z"/>
<path style="fill:#f57315; stroke:none;" d="M616 588L616 596C631.571 596 631.58 588 616 588z"/>
<path style="fill:#e02c24; stroke:none;" d="M628 588L629 589L628 588z"/>
<path style="fill:#f57315; stroke:none;" d="M693 588L689 599L698 599L693 588z"/>
<path style="fill:#e02c24; stroke:none;" d="M697 588L698 589L697 588M765 588L766 589L765 588M840 588L841 589L840 588M852 588L853 589L852 588M856 588L857 589L856 588M232 589L233 590L232 589M254 589L255 590L254 589M378 589L379 590L378 589M474 589L475 590L474 589M533 589L533 608L534 608L533 589M537 589L538 590L537 589M550 589L551 590L550 589M553 589L554 590L553 589M633 589L634 590L633 589M689 589L690 590L689 589M766 589L767 590L766 589M851 589L852 590L851 589M855 589L856 590L855 589M250 590L251 591L250 590M692 590L693 591L692 590M698 590L699 591L698 590M762 590L763 591L762 590M233 591L234 592L233 591M253 591L254 592L253 591M395 591L396 592L395 591M450 591L451 592L450 591M552 591L553 592L552 591M695 591L696 592L695 591M237 592L238 593L237 592M249 592L250 593L249 592M376 592L377 593L376 592M472 592L473 593L472 592M535 592L536 593L535 592M699 592L700 593L699 592M839 592L840 593L839 592M234 593L235 594L234 593M252 593L253 594L252 593M372 593L373 594L372 593M453 593L454 594L453 593M476 593L477 594L476 593M633 593L634 594L633 593M696 593L697 594L696 593M765 593L766 594L765 593M844 593L845 594L844 593M238 594L239 595L238 594M248 594L249 595L248 594M449 594L450 595L449 594M539 594L540 595L539 594M548 594L549 595L548 594M766 594L767 595L766 594M770 594L771 595L770 594M251 595L252 596L251 595M627 595L628 596L627 595M632 595L633 596L632 595M697 595L698 596L697 595M771 595L772 596L771 595M850 595L851 596L850 595M247 596L248 597L247 596M547 596L548 597L547 596M631 596L632 597L631 596M849 596L850 597L849 596M236 597L237 598L236 597M250 597L251 598L250 597M537 597L538 598L537 597M698.333 597.667L698.667 598.333L698.333 597.667M449 598L450 599L449 598M549 598L550 599L549 598M625.667 598.333L626.333 598.667L625.667 598.333M249 599L250 600L249 599M372 599L373 600L372 599M453 599L454 600L453 599M476 599L477 600L476 599M615 599L615 608L616 608L615 599M770 599L771 600L770 599M376 600L377 601L376 600M394.667 600.333L395.333 600.667L394.667 600.333M472 600L473 601L472 600M771 600L772 601L771 600M775 600L776 601L775 600M241 601L242 602L241 601M248 601L249 602L248 601M393 601L394 602L393 601M397 601L398 602L397 601M450 601L451 602L450 601M545 601L546 602L545 601M687 601L688 602L687 601M373 602L374 603L373 602M377 602L378 603L377 602M471 602L472 603L471 602M683 602L684 603L683 602M242 603L243 604L242 603M244 603L245 604L244 603M451 603L452 604L451 603M470 603L471 604L470 603M686 603L687 604L686 603M379 604L380 605L379 604M395 604L396 605L395 604M452 604L453 605L452 604M540 604L541 605L540 604M543 604L544 605L543 604M682 604L683 605L682 604M243 605L244 606L243 605M381 605L382 606L381 605M394 605L395 606L394 605M453 605L454 606L453 605M459 605L460 606L459 605M546 605L547 606L546 605M775 605L776 606L775 605M393 606L394 607L393 606M471 606L472 607L471 606M681 606L682 607L681 606M702 606L703 607L702 606M245 607L246 608L245 607M391 607L392 608L391 607M383 608L383 609L388 609L383 608M461 608L461 609L465 609L461 608z"/>
</svg>
