<svg xmlns="http://www.w3.org/2000/svg" viewBox="0 0 283.46 283.46"><defs><style>.cls-1{fill:#ed1c24;}.cls-2{fill:#fff;}</style></defs><g id="Layer_2" data-name="Layer 2"><g id="Sport"><g id="automotorsport"><rect class="cls-1" width="283.46" height="283.46"/><g id="logo"><path class="cls-2" d="M42.52,117.35v48.77H240.94V117.35Zm100.09,1.3h97.06v46.17H142.61V118.65Z"/><path class="cls-2" d="M158.18,145.08l-2.48-1.32c-.57,1-1,1.49-1.88,1.49-1.28,0-1.8-1.28-1.8-2.91s.54-2.89,1.76-2.89c1,0,1.33.61,1.72,1.59l2.65-1c-.72-2-1.75-3.11-4.35-3.11-2.86,0-4.84,2-4.84,5.45,0,3.13,1.68,5.47,4.82,5.47a4.54,4.54,0,0,0,4.4-2.73"/><path class="cls-2" d="M170.57,147.64V137.06h-3v3.84h-3.31v-3.84h-3v10.58h3v-4.17h3.31v4.17Z"/><path class="cls-2" d="M177.44,137.06l-3.85,10.58h3.14l.57-1.86h3.19l.57,1.86h3.18l-3.85-10.58Zm1.46,3.05a26.7,26.7,0,0,0,.69,2.64l.18.72H178l.2-.72C178.6,141.4,178.76,140.83,178.9,140.11Z"/><path class="cls-2" d="M196.25,147.64V137.06h-2.81V140a24.13,24.13,0,0,0,.09,2.74c-.24-.46-1.18-1.85-1.65-2.51l-2.33-3.12H187v10.58h2.81v-3.23a24.13,24.13,0,0,0-.09-2.74c.27.47,1.18,1.83,1.65,2.48l2.53,3.49Z"/><path class="cls-2" d="M209.19,147.64V137.06h-2.8V140a27.13,27.13,0,0,0,.08,2.74,27.53,27.53,0,0,0-1.64-2.51l-2.34-3.12h-2.58v10.58h2.82v-3.23a26.33,26.33,0,0,0-.1-2.74c.26.47,1.17,1.83,1.64,2.48l2.54,3.49Z"/><path class="cls-2" d="M221.07,147.64v-2.47h-5.31v-1.81h3.12v-2.44h-3.12v-1.41H221v-2.45h-8.11v10.58Z"/><path class="cls-2" d="M232.1,147.64v-2.55h-4.67v-8h-3v10.58Z"/><path class="cls-1" d="M80.47,136.54h5.31V124.3H80.46s0,2.88,0,5.3c0,1.44-.12,2.52-.93,3.29a3.81,3.81,0,0,1-4.7,0c-.92-.75-.94-2.5-1-3.39,0-2.11,0-5.15,0-5.15H68.53v6.77a18.75,18.75,0,0,0,.12,2.27c.54,3.75,5.84,3.83,5.84,3.83a9.08,9.08,0,0,0,6-1.8v1.17Z"/><path class="cls-1" d="M95.14,121.55H89.7v2.75H88.57v2.83h1.3s0,3.68,0,6.37a4.15,4.15,0,0,0,.82,2.75c1.18,1,2.77,1.29,5.93.37v-2.53s-1.58.41-1.5-1.61v-5.35h1.18v-2.81H95.14v-2.77Z"/><path class="cls-1" d="M108.13,123.4c-6.43.11-9.49,2.42-9.45,6.88,0,3.82,2.21,7,9.33,6.9,7.93,0,9.78-3.12,9.76-7.08,0-4.17-3.17-6.81-9.64-6.7Zm.14,3.94c2.18,0,3.44,1.18,3.42,2.79,0,2.19-1.29,3-3.51,3-2,0-3.47-.85-3.37-3C104.89,128.37,106.17,127.27,108.27,127.34Z"/><path class="cls-1" d="M56.9,123.35h-.27c-6.42.17-8.65,2.27-8.65,4.57h5.84c.26-1.11,3.06-1.15,3.06-1.15,3.41.08,2.92,1.83,2.92,1.83-1.63.14-6,.35-6,.35-6.54.25-6.6,3.4-6.6,3.4-1,6.12,10.31,5.71,12.69,3a11.34,11.34,0,0,0,.44,1.17h5.59a2.31,2.31,0,0,1-.52-1.33s-.15-4.37-.2-7.47a3.4,3.4,0,0,0-.66-2c-1.46-2.31-6.39-2.37-7.6-2.36Zm1,7.69c.56,0,1.19,0,1.89.05.17,1.94-1.78,2.91-3.58,3-2.58.09-3.09-.52-3.07-1.3S54,131,57.93,131Z"/><path class="cls-1" d="M124.65,140.72h-3.53v8.59h3.53v-5.09c0-1.8,3.17-1.82,3.17.12h3.43c.52-3.64-3.26-5.47-6.6-2.58v-1Z"/><path class="cls-1" d="M91.08,140.47c-4.38.06-6.45,1.64-6.43,4.65,0,2.6,1.51,4.74,6.35,4.69,5.37,0,6.61-2.11,6.6-4.8s-2.15-4.62-6.52-4.54Zm.08,2.67c1.48,0,2.34.8,2.32,1.89,0,1.49-.87,2-2.38,2-1.36,0-2.36-.56-2.29-2C88.86,143.83,89.74,143.11,91.16,143.14Z"/><path class="cls-1" d="M103.61,139.06H99.87V141H99.1v2H100s0,2.52,0,4.38a2.85,2.85,0,0,0,.57,1.89c.81.71,1.9.89,4.08.27v-1.75s-1.09.26-1-1.11V142.9h.82V141h-.79Z"/><path class="cls-1" d="M112.63,140.47c-4.38.06-6.45,1.64-6.43,4.65,0,2.6,1.51,4.72,6.35,4.69,5.37,0,6.61-2.11,6.6-4.8,0-2.84-2.15-4.62-6.52-4.54Zm.08,2.67c1.48,0,2.34.8,2.32,1.89,0,1.49-.87,2-2.38,2s-2.35-.56-2.29-2C110.41,143.83,111.29,143.11,112.71,143.14Z"/><path class="cls-1" d="M73.89,141.65s-3.07-2.48-7.72-.2v-.75H62.82v8.63h3.35v-4.25c0-2.8,4.63-2.79,4.63,0v4.28h3.61l0-4.25c0-2.8,4.62-2.79,4.62,0v4.28h3.51v-5.18c0-3.48-4.5-4.89-8.67-2.5"/><path class="cls-1" d="M116.06,152.85c-3.62.06-5.36,1.37-5.34,3.87,0,2.17,1.26,3.94,5.27,3.91,4.49,0,5.53-1.75,5.51-4S119.71,152.77,116.06,152.85Zm.09,2.23c1.22,0,1.94.66,1.93,1.58,0,1.22-.72,1.69-2,1.69s-2-.49-1.92-1.69C114.23,155.64,115,155.05,116.15,155.08Z"/><path class="cls-1" d="M136.53,152h-3v1.52h-.62v1.56h.71v3.52a2.2,2.2,0,0,0,.45,1.51c.64.58,1.53.72,3.28.22v-1.4s-.88.21-.83-.88v-3h.64v-1.53h-.62V152Z"/><path class="cls-1" d="M104.48,152.85a3.91,3.91,0,0,0-2.7,1v-.62H99v9h2.82v-2.58a4.64,4.64,0,0,0,3.14,1,4.06,4.06,0,0,0,4.4-3.91c0-2.22-1.88-3.75-4.35-3.86Zm-.55,2a2.08,2.08,0,0,1,2.18,1.94,2.14,2.14,0,0,1-2.17,2,2.09,2.09,0,0,1-2.13-2A2,2,0,0,1,103.93,154.8Z"/><path class="cls-1" d="M126.13,153.17h-3v7.19h3v-4.28c0-1.48,2.64-1.5,2.64.13h2.89c.42-3-2.74-4.58-5.54-2.18Z"/><path class="cls-1" d="M92.44,155.74c-2.35.15-2.19-1.14-1.35-1.33,0,0,1.8-.36,2.17.4h3.46c-.29-2.56-6.3-2.36-7.93-1.56a2,2,0,0,0-1.32,2.44s.21,1.45,2.63,1.64l2.61.3c1.66.15,1.1,1.28-.16,1.26,0,0-1.27.11-1.79-.62l-3.5,0c.69,2.77,6.91,3.16,9.07,1.54a2,2,0,0,0-.1-3.41s-1.07-.82-3.79-.64"/><path class="cls-1" d="M79.75,156.75h.34v-2.36h-.34v1.52a.77.77,0,0,1-.1.42.47.47,0,0,1-.4.2c-.24,0-.31-.11-.31-.29v-1.85h-.33v1.83c0,.42.22.61.57.61a.59.59,0,0,0,.55-.39h0v.31Z"/><path class="cls-1" d="M81.05,154.39h-.33v2.36h.35v-1.58a.55.55,0,0,1,.15-.43.46.46,0,0,1,.32-.13c.28,0,.35.17.35.42v1.72h.35v-1.83a.52.52,0,0,0-.58-.59.75.75,0,0,0-.61.31Z"/><path class="cls-1" d="M84,153.55v1.08a.65.65,0,0,0-.55-.3c-.51,0-.74.55-.71,1.23,0,.21,0,1.27.69,1.27a.53.53,0,0,0,.57-.39h0v.33h.32v-3.22Zm-.45,1.06c.45,0,.45.61.45.92v.32c0,.26-.1.7-.45.7s-.47-.47-.47-1c0-.73.18-.95.47-.95Z"/></g></g></g></g></svg>