<svg id="aa2df3a6-ec04-49dd-ac20-710deea21332" data-name="Layer 1" xmlns="http://www.w3.org/2000/svg" width="1024" height="210" viewBox="0 0 1024 210"><defs><style>.a650967d-552f-4762-b378-1011986c7ef5{fill:#55d6c5;}</style></defs><path d="M0,.18C9,2,17,9.74,17,19.23V76.3C31.7,57.06,52,40.77,76.52,37c38.32-7.28,81.51,11,98.76,46.94,14.9,29.29,9.91,67.25-12,91.7-27.3,31.54-76,38.93-113.36,22.48-29.6-13-49.52-44-49.88-76.2V.18M80.61,51.41c-25.14,3.76-48.56,20.38-58.09,44.3-10.18,24-4.26,53.16,12.91,72.43,29.9,34.11,91.23,30.84,117.64-5.95,17.17-23,18-56.51,1.58-80.1C138.87,58.27,108.41,46.87,80.61,51.41Z"/><path d="M197.57,51.1c32.84-14.59,71.07-21.73,105.82-9.58,21.21,7.51,37,27.8,38.07,50.42,1.08,37.3.7,46.89.7,112-5.4-.66-11.36-1.91-14.46-6.89-5.06-6-2.77-14.29-3-21.43a87.57,87.57,0,0,1-65.59,30.84c-23.18.94-48.68-5.31-64.35-23.45-14.45-16-13.45-42.58.56-58.56,9.8-11.6,24.53-17.61,39-20.79,29.87-6.18,60.8-2.55,90.29,4,.44-14.07-1.14-29.52-11.35-40.2C299.6,53,278.22,49.91,259.23,50.71c-15.31-.05-29.88,4.85-44.19,9.67-7.25,2.57-14.59-2.83-17.47-9.28M214,129c-12.82,10.58-15,31.68-4,44.33,13.23,15.53,35.44,19.44,54.82,17.75,21.37-2,44.35-11.1,55.32-30.68,6.84-11.44,4.1-25.28,4.79-37.91C305.14,118,285,114.62,264.74,115,247.13,114.76,227.83,117.06,214,129Z"/><path d="M555.85,66.8c28.16-35.44,85.42-42,120.72-13.68,22.21,17.36,32,46.75,30.57,74.28H554.91c2,18.91,11,37.33,26.28,49,19.16,15.31,45.63,18.05,68.94,12.63,17.2-4.49,31.79-15.51,44.75-27.22a134.6,134.6,0,0,0,73.65,29.4c15.31,1.14,32-1.32,44-11.65,9.17-8,12.08-23.76,3.52-33.2C805.85,135,790.18,132,776.2,128c-19.16-5.62-40.07-8.25-56.35-20.71A31.78,31.78,0,0,1,707,77.46c1.55-20.29,20.13-34.75,38.76-39.18,33-7.64,68.2,1.47,96.22,19.61-5,5.15-12.15,10.43-19.66,7-16.91-7.75-34.91-14.56-53.82-14.23-12.38-.22-25.59,2.47-34.95,11-7.42,6.26-10.74,17.58-6.31,26.47,5,8.61,14.65,12.79,23.59,16.09,20.82,7.22,43,10.22,63.16,19.41,12.38,6,24.92,16.67,25.31,31.53,1.71,16.48-8,32.45-22,40.6-18.63,11.49-41.56,12.34-62.66,9.38-21-3.79-41.67-11.21-59.25-23.59-14.2,11.13-30.24,21-48.43,23.59-18.82,2.6-38.62,2.19-56.4-5.18-21.9-8.39-40.39-26-48.51-48.12-10.52-28.13-5.51-61.8,13.76-85m23.51-1.19c-14.12,12.07-22.12,29.85-24.5,48H688.4c-1.53-19.1-9.56-38.32-24.78-50.48-24-18.91-61.22-17.41-84.26,2.44Z"/><path class="a650967d-552f-4762-b378-1011986c7ef5" d="M347.53,1.37c8.89-1,16.39,9.17,16.58,17.64V76.85C376.55,61,391.64,46.59,411.21,40.3c29-9.66,62.74-4.43,87.08,14.15,21.43,16.14,34.28,43.06,33,69.92-1.21,32.69-23.42,62.9-53.77,74.78-30,11.82-66.5,10-93.47-8.53a85,85,0,0,1-36.52-68.94V1.37M431.62,51c-18.72,2.08-36.83,10.72-49.32,24.95-14.42,15.81-20.6,38.73-15.75,59.61,4.82,25.61,25.33,47.4,50.67,53.66,25.06,6.15,53.83,1.66,73.29-16.11,25-21.24,30.62-60.86,13.15-88.44C489.07,60.38,459.36,47.67,431.62,51Z"/><path class="a650967d-552f-4762-b378-1011986c7ef5" d="M852.12,37.37c5.65.8,12.39,4.05,12.76,10.24V80.9c16.28.19,32.61-.61,48.89,0,15.15,35.74,31.54,71.21,46.24,107.15,15.45-32,28.38-65.29,43.42-97.52A17.72,17.72,0,0,1,1024,81.75c-4.12,2.22-5.68,5.31-7.34,9.14Q993.85,143.76,971,196.63c-3,6.09-5.81,15.4-14.59,12.71-19.27-38.4-34.28-78.83-52.25-117.9H864.87v66.12c.36,12.13,3.8,26.5,15.76,32.26,9.5,6,26.36,1.05,28.41,15.89-13.9.09-28.66-1.57-40.43-9.63-11.29-7.87-16.74-22.07-16.49-35.5-.06-23,0-46.1,0-69.14h-27c1.37-12.09,14-10.55,27-10.55-.11-14.51.36-29,0-43.53Z"/></svg>