<svg xmlns="http://www.w3.org/2000/svg" xmlns:xlink="http://www.w3.org/1999/xlink" viewBox="0 0 283.46 283.46"><defs><style>.cls-1{fill-opacity:1;fill:url(#linear-gradient);}.cls-2{fill:#fff;}</style><linearGradient id="linear-gradient" x1="163.37" y1="-1211.4" x2="295.74" y2="-1067.33" gradientTransform="matrix(2.05, 0, 0, -2.05, -327.45, -2191.51)" gradientUnits="userSpaceOnUse"><stop offset="0" stop-color="#44805f"/><stop offset="0.1" stop-color="#48854a"/><stop offset="0.2" stop-color="#418758"/><stop offset="0.3" stop-color="#3f8764"/><stop offset="0.4" stop-color="#2f8d7b"/><stop offset="0.5" stop-color="#22908b"/><stop offset="0.6" stop-color="#1e979f"/><stop offset="0.7" stop-color="#0f97ae"/><stop offset="0.8" stop-color="#0799c0"/><stop offset="0.9" stop-color="#009ccc"/><stop offset="1" stop-color="#009ccc"/></linearGradient></defs><g id="Layer_2" data-name="Layer 2"><g id="BBC"><g id="bbcearth"><rect id="background" class="cls-1" width="283.46" height="283.46"/><g id="logo"><path id="path3142" class="cls-2" d="M68.11,145.2a25.63,25.63,0,0,0-.06,51.25,25.34,25.34,0,0,0,23.48-15.21H85a19.84,19.84,0,0,1-36.53-7.61H93.62a18,18,0,0,0,.27-3.21A25.59,25.59,0,0,0,68.11,145.2Zm.06,5.7a19.92,19.92,0,0,1,19.71,17H48.52A19.86,19.86,0,0,1,68.17,150.9Z"/><path id="path3146" class="cls-2" d="M122.57,145.18a25.64,25.64,0,1,0,0,51.28c8.54,0,15-3.74,20-11.17v9.78h5.78V146.65h-5.78v9.68c-4.59-6.92-11.21-11.15-20-11.15Zm0,5.73a19.89,19.89,0,1,1-20.09,19.82A19.88,19.88,0,0,1,122.6,150.91Z"/><path id="path3152" class="cls-2" d="M155.37,195.07V146.65h5.73v7.65c1.8-3.52,6.77-7.65,14.23-7.65H180v-11h5.78v11h10v5.63h-10v31.23a5.62,5.62,0,0,0,5.68,5.73h4.35v5.83h-4.45A11.48,11.48,0,0,1,180,183.71V152.28h-4c-9.5,0-14.83,7.25-14.83,13.34v29.45Z"/><path id="path3154" class="cls-2" d="M199.44,195.07V130.94h5.78v23.81c1.71-3.88,8.08-9.57,16.36-9.57,11.56,0,19.36,7.37,19.36,19.36v30.53h-5.63V164.54c0-8.08-5.43-13.65-13.68-13.65-9.18,0-16.41,7.37-16.41,14.57v29.61Z"/><g id="g3182"><g id="g3184"><path id="path3186" class="cls-2" d="M122.05,112.59c0,4.3-5.35,4-5.35,4h-5.35v-7.78h5.35c5.51,0,5.35,3.73,5.35,3.73M111.35,97h4.08c4.23.22,4.07,3.38,4.07,3.38,0,3.92-4.68,4-4.68,4h-3.47Zm9.71,8.89a6.32,6.32,0,0,0,3.64-5.7s.55-6.79-8.44-7.62h-10V121h11.44s9.56,0,9.56-8c0,0,.22-5.48-6.22-7.1M95.24,87h42v39.58h-42Z"/></g><g id="g3188"><path id="path3190" class="cls-2" d="M73.61,112.59c0,4.3-5.35,4-5.35,4H62.91v-7.78h5.35c5.51,0,5.35,3.73,5.35,3.73M62.91,97H67c4.23.22,4.07,3.38,4.07,3.38,0,3.92-4.68,4-4.68,4H62.91Zm9.72,8.89a6.32,6.32,0,0,0,3.63-5.7s.55-6.79-8.44-7.62h-10V121H69.28s9.56,0,9.56-8c0,0,.22-5.48-6.21-7.1M46.8,87h42v39.58h-42Z"/></g><g id="g3192"><path id="path3194" class="cls-2" d="M177.12,94.62v5.26a24,24,0,0,0-10.8-3.22s-10.58-.21-11.06,10.14c0,0-.38,9.52,10.93,10.06,0,0,4.75.57,11.18-3.54v5.45A22.67,22.67,0,0,1,158.74,120,14.41,14.41,0,0,1,150,106.8s-.35-10.36,10.86-13.8c0,0,3-1.15,8.38-.64a30.54,30.54,0,0,1,7.87,2.26m-33.44,32h42V87h-42Z"/></g></g></g></g></g></g></svg>