<svg xmlns="http://www.w3.org/2000/svg" viewBox="0 0 283.46 283.46"><defs><style>.cls-1{fill:#c02519;}.cls-2{fill:#fff;}</style></defs><title>bbcworldnews</title><g id="Layer_2" data-name="Layer 2"><g id="News"><g id="bbcworldnews"><rect class="cls-1" width="283.46" height="283.46"/><g id="logo"><path id="path2418" class="cls-2" d="M95.75,173.07h5v36.85H96.22L71.58,181.53v28.38h-5V173.07H70.9l24.85,28.62Z"/><path id="path2420" class="cls-2" d="M110.27,173.07h20.89v4.69H115.54V189h15.09v4.72H115.54v11.45h16.12v4.7H110.27v-36.8Z"/><path id="path2422" class="cls-2" d="M187.47,173.07h5.26l-14.9,37h-1.16l-12-30-12.17,30h-1.13l-14.85-37h5.32l10.16,25.4,10.23-25.4h5l10.27,25.4,10.05-25.4Z"/><path id="path2424" class="cls-2" d="M207,194.48,203,192a18.21,18.21,0,0,1-5.37-4.53,8.59,8.59,0,0,1-1.6-5.13,9.06,9.06,0,0,1,3-7.07,11.28,11.28,0,0,1,7.85-2.72,14.87,14.87,0,0,1,8.47,2.59v6a12.21,12.21,0,0,0-8.57-3.83,7.1,7.1,0,0,0-4.25,1.2,3.63,3.63,0,0,0-1.66,3.06,4.72,4.72,0,0,0,1.22,3.1,15.34,15.34,0,0,0,3.94,3l4,2.39q6.74,4,6.74,10.25a9.4,9.4,0,0,1-3,7.2,10.86,10.86,0,0,1-7.72,2.77,16.2,16.2,0,0,1-9.94-3.36v-6.7q4.27,5.42,9.89,5.42a6.21,6.21,0,0,0,4.13-1.38,4.32,4.32,0,0,0,1.65-3.46q0-3.36-4.86-6.38"/><path id="path2426" class="cls-2" d="M93.53,122.86h5.26l-14.9,37H82.73l-12-30-12.17,30H57.37l-14.85-37h5.32L58,148.27l10.22-25.41h5l10.27,25.41,10.05-25.41Z"/><path id="path2428" class="cls-2" d="M119.56,127.35a14.31,14.31,0,0,0-10.4,4,13.48,13.48,0,0,0-4.07,10.1,13.24,13.24,0,0,0,4.09,9.92,15.17,15.17,0,0,0,20.52-.08,13.49,13.49,0,0,0,4.12-10.05,13.18,13.18,0,0,0-4.12-9.85,14,14,0,0,0-10.13-4m-.21-5a19.81,19.81,0,0,1,14.22,5.41,17.94,17.94,0,0,1,5.68,13.56,17.66,17.66,0,0,1-5.73,13.5,20.39,20.39,0,0,1-14.46,5.34,19.22,19.22,0,0,1-13.88-5.34,17.81,17.81,0,0,1-5.55-13.39,18.21,18.21,0,0,1,5.59-13.66,19.5,19.5,0,0,1,14.13-5.41"/><path id="path2430" class="cls-2" d="M152.21,127.35h-1.58V139h2a14.85,14.85,0,0,0,5.5-.69,5.16,5.16,0,0,0,2.32-2.07,6,6,0,0,0,.83-3.16,5.64,5.64,0,0,0-.92-3.15,4.93,4.93,0,0,0-2.6-2,18.7,18.7,0,0,0-5.55-.58m-6.86,32.37V122.86h9.23q5.59,0,8.88,2.77a9.29,9.29,0,0,1,3.28,7.49,9.21,9.21,0,0,1-6.22,9.08,16.3,16.3,0,0,1,3.46,3.17,63.5,63.5,0,0,1,4.75,7q1.93,3.14,3.09,4.72l2,2.64h-6.28l-1.61-2.43c-.05-.09-.16-.24-.32-.45l-1-1.45-1.63-2.69-1.77-2.88a28.65,28.65,0,0,0-3-3.61,11.49,11.49,0,0,0-2.46-1.94,8.33,8.33,0,0,0-3.69-.59h-1.37v16h-5.28Z"/><path id="path2432" class="cls-2" d="M178.91,122.86h5.28v32.05h16.59v4.8H178.91Z"/><path id="path2434" class="cls-2" d="M218.94,127.56h-6.6V155h6.75a27,27,0,0,0,6.15-.54,14.54,14.54,0,0,0,3.65-1.37,12.55,12.55,0,0,0,2.68-2,13.65,13.65,0,0,0,3.9-10,12.65,12.65,0,0,0-4-9.68,12.79,12.79,0,0,0-3.39-2.3,14.26,14.26,0,0,0-3.63-1.19,37,37,0,0,0-5.51-.29m-11.87,32.1v-36.8H219.5q7.52,0,11.9,2.26a17,17,0,0,1,7,6.63,18.44,18.44,0,0,1,2.59,9.55,18.07,18.07,0,0,1-5.49,13,17.8,17.8,0,0,1-6.25,4,18.6,18.6,0,0,1-3.83,1.1,51.11,51.11,0,0,1-6.65.28H207.07Z"/><path id="path2436" class="cls-2" d="M146.59,94.6a2.82,2.82,0,0,1-1,2.2,5.83,5.83,0,0,1-3.94,1.09h-4.06V91.38h3.88a6.76,6.76,0,0,1,3.9.94,2.66,2.66,0,0,1,1.17,2.28"/><path id="path2438" class="cls-2" d="M143.3,86.81a2.78,2.78,0,0,0,1.12-2.47,2.52,2.52,0,0,0-.8-2,4.58,4.58,0,0,0-3.11-.87h-2.87v6.17h2a6.38,6.38,0,0,0,3.69-.85"/><path id="path2440" class="cls-2" d="M151,95.08c0-3-2-5.3-5.2-6.17a5.87,5.87,0,0,0,2.05-1.64,5.17,5.17,0,0,0,1-3.23,5.76,5.76,0,0,0-1.92-4.32,8.74,8.74,0,0,0-6-1.95h-7.5v23.85h8.8c3.14,0,5.35-.85,6.76-2.11a5.88,5.88,0,0,0,2-4.42m8.36,11.16H124.14V73.13h35.19Z"/><path id="path2442" class="cls-2" d="M102.75,86.81a2.79,2.79,0,0,0,1.13-2.47,2.51,2.51,0,0,0-.8-2,4.59,4.59,0,0,0-3.11-.87H97.09v6.17h2a6.38,6.38,0,0,0,3.69-.85"/><path id="path2444" class="cls-2" d="M104.87,92.32a6.75,6.75,0,0,0-3.9-.94H97.09v6.51h4.06a5.83,5.83,0,0,0,3.94-1.09,2.81,2.81,0,0,0,1-2.2,2.66,2.66,0,0,0-1.17-2.28"/><path id="path2446" class="cls-2" d="M110.42,95.08c0-3-2-5.3-5.2-6.17a5.86,5.86,0,0,0,2-1.64,5.17,5.17,0,0,0,1-3.23,5.77,5.77,0,0,0-1.92-4.32,8.73,8.73,0,0,0-6-1.95h-7.5v23.85h8.8c3.14,0,5.35-.85,6.76-2.11a5.88,5.88,0,0,0,2-4.42m8.36,11.16H83.59V73.13h35.19Z"/><path id="path2448" class="cls-2" d="M192.89,95.23l-.56.35a16.42,16.42,0,0,1-8.38,2.55c-5.76,0-9.56-3.44-9.57-8.41s4-8.46,9.43-8.47a16.55,16.55,0,0,1,8.29,2.36l.55.3V79.48l-.24-.09a22.83,22.83,0,0,0-8.57-1.92A14.58,14.58,0,0,0,173.91,81,12,12,0,0,0,170,90a11.67,11.67,0,0,0,3.27,7.84,13.79,13.79,0,0,0,10.35,4.06h0a19.26,19.26,0,0,0,9-2.07l.21-.1V95.23Zm7,11H164.68V73.13h35.19Z"/></g></g></g></g></svg>