<svg xmlns="http://www.w3.org/2000/svg" viewBox="0 0 283.46 283.46"><defs><style>.cls-1{fill:#c02519;}.cls-2{fill:#fff;}</style></defs><g id="Layer_2" data-name="Layer 2"><g id="BBC"><g id="bbcworldnews"><rect class="cls-1" width="283.46" height="283.46"/><g id="logo"><path id="path2418" class="cls-2" d="M95.75,173.07h5v36.85H96.22L71.58,181.53v28.39h-5V173.07H70.9l24.85,28.62Z"/><path id="path2420" class="cls-2" d="M110.27,173.07h20.89v4.69H115.54V189h15.09v4.72H115.54v11.45h16.12v4.7H110.27v-36.8Z"/><path id="path2422" class="cls-2" d="M187.47,173.07h5.26l-14.9,37h-1.16l-12-30-12.17,30h-1.14l-14.85-37h5.32l10.15,25.4,10.23-25.4h5l10.27,25.4,10.05-25.4Z"/><path id="path2424" class="cls-2" d="M207,194.48,203,192a18,18,0,0,1-5.37-4.53,8.63,8.63,0,0,1-1.6-5.13,9.06,9.06,0,0,1,3-7.07,11.31,11.31,0,0,1,7.85-2.72,14.84,14.84,0,0,1,8.47,2.59v6a12.21,12.21,0,0,0-8.57-3.83,7.14,7.14,0,0,0-4.25,1.19,3.63,3.63,0,0,0-1.66,3.07,4.76,4.76,0,0,0,1.22,3.1,15.55,15.55,0,0,0,3.94,3l4,2.39q6.74,4,6.74,10.25a9.4,9.4,0,0,1-3,7.2,10.82,10.82,0,0,1-7.71,2.77,16.21,16.21,0,0,1-9.95-3.36v-6.7q4.28,5.41,9.9,5.42a6.2,6.2,0,0,0,4.12-1.38,4.32,4.32,0,0,0,1.65-3.46q0-3.36-4.85-6.38"/><path id="path2426" class="cls-2" d="M93.53,122.86h5.26l-14.9,37H82.73l-12-30-12.17,30H57.37l-14.85-37h5.32L58,148.27l10.23-25.41h5l10.27,25.41,10-25.41Z"/><path id="path2428" class="cls-2" d="M119.56,127.35a14.32,14.32,0,0,0-10.4,4,13.48,13.48,0,0,0-4.08,10.11,13.27,13.27,0,0,0,4.09,9.92,15.19,15.19,0,0,0,20.52-.08,13.48,13.48,0,0,0,4.12-10.05,13.19,13.19,0,0,0-4.12-9.86,14,14,0,0,0-10.13-4m-.22-5a19.85,19.85,0,0,1,14.23,5.41,18,18,0,0,1,5.68,13.56,17.65,17.65,0,0,1-5.74,13.5,20.38,20.38,0,0,1-14.46,5.34,19.23,19.23,0,0,1-13.88-5.34,17.83,17.83,0,0,1-5.55-13.39,18.24,18.24,0,0,1,5.59-13.67,19.53,19.53,0,0,1,14.13-5.41"/><path id="path2430" class="cls-2" d="M152.21,127.35h-1.58V139h2a14.83,14.83,0,0,0,5.5-.69,5.12,5.12,0,0,0,2.32-2.07,6,6,0,0,0,.83-3.15,5.67,5.67,0,0,0-.92-3.15,5,5,0,0,0-2.6-2,18.68,18.68,0,0,0-5.56-.58m-6.85,32.37V122.86h9.23q5.59,0,8.88,2.77a9.28,9.28,0,0,1,3.28,7.49,9.22,9.22,0,0,1-6.23,9.08,16.2,16.2,0,0,1,3.46,3.17,62.4,62.4,0,0,1,4.75,7c1.28,2.1,2.31,3.67,3.08,4.73l2,2.64h-6.28l-1.61-2.43a4.82,4.82,0,0,0-.32-.45l-1-1.45-1.64-2.7-1.76-2.87a29.37,29.37,0,0,0-3-3.62,11.46,11.46,0,0,0-2.46-1.93,8.24,8.24,0,0,0-3.69-.59h-1.37v16Z"/><path id="path2432" class="cls-2" d="M178.91,122.86h5.28v32.05h16.59v4.81H178.91Z"/><path id="path2434" class="cls-2" d="M218.94,127.56h-6.59V155h6.75a27.07,27.07,0,0,0,6.15-.54,14.22,14.22,0,0,0,3.65-1.38,12.26,12.26,0,0,0,2.68-2,13.66,13.66,0,0,0,3.9-10,12.62,12.62,0,0,0-4-9.68,12.75,12.75,0,0,0-3.39-2.3,14.24,14.24,0,0,0-3.62-1.18,36.1,36.1,0,0,0-5.52-.29m-11.87,32.1v-36.8H219.5q7.51,0,11.9,2.26a16.94,16.94,0,0,1,7,6.63,18.47,18.47,0,0,1,2.58,9.55,18.13,18.13,0,0,1-11.74,17,18.47,18.47,0,0,1-3.82,1.1,52.56,52.56,0,0,1-6.65.27Z"/><path id="path2436" class="cls-2" d="M146.59,94.6a2.85,2.85,0,0,1-1,2.2,5.84,5.84,0,0,1-3.94,1.09h-4.06V91.38h3.88a6.79,6.79,0,0,1,3.9.94,2.69,2.69,0,0,1,1.17,2.28"/><path id="path2438" class="cls-2" d="M143.3,86.81a2.79,2.79,0,0,0,1.12-2.47,2.52,2.52,0,0,0-.8-2,4.56,4.56,0,0,0-3.11-.87h-2.87v6.17h2a6.37,6.37,0,0,0,3.69-.85"/><path id="path2440" class="cls-2" d="M151,95.08c0-3-2-5.3-5.21-6.17a5.94,5.94,0,0,0,2.06-1.65,5.11,5.11,0,0,0,1-3.23,5.71,5.71,0,0,0-1.91-4.31,8.71,8.71,0,0,0-6-2h-7.5v23.85h8.8c3.14,0,5.35-.85,6.77-2.11a5.9,5.9,0,0,0,2-4.43m8.36,11.16H124.14V73.13h35.19Z"/><path id="path2442" class="cls-2" d="M102.75,86.81a2.79,2.79,0,0,0,1.13-2.47,2.52,2.52,0,0,0-.8-2,4.61,4.61,0,0,0-3.12-.87H97.09v6.17h2a6.37,6.37,0,0,0,3.69-.85"/><path id="path2444" class="cls-2" d="M104.87,92.32a6.79,6.79,0,0,0-3.9-.94H97.09v6.51h4.06a5.84,5.84,0,0,0,3.94-1.09,2.81,2.81,0,0,0,1-2.2,2.69,2.69,0,0,0-1.17-2.28"/><path id="path2446" class="cls-2" d="M110.42,95.08c0-3-2-5.3-5.2-6.17a6,6,0,0,0,2-1.65,5.17,5.17,0,0,0,1-3.23,5.76,5.76,0,0,0-1.92-4.31,8.71,8.71,0,0,0-6-2h-7.5v23.85h8.8c3.15,0,5.35-.85,6.77-2.11a5.9,5.9,0,0,0,2-4.43m8.36,11.16H83.59V73.13h35.19Z"/><path id="path2448" class="cls-2" d="M192.89,95.23l-.57.35a16.36,16.36,0,0,1-8.38,2.55c-5.76,0-9.56-3.43-9.57-8.4s4-8.46,9.42-8.48a16.55,16.55,0,0,1,8.29,2.37l.55.3V79.48l-.23-.09a22.76,22.76,0,0,0-8.57-1.93A14.63,14.63,0,0,0,173.91,81,12,12,0,0,0,170,90a11.67,11.67,0,0,0,3.27,7.84,13.8,13.8,0,0,0,10.35,4.06h0a19.23,19.23,0,0,0,9.05-2.08l.21-.1V95.23Zm7,11H164.68V73.13h35.19Z"/></g></g></g></g></svg>