<svg xmlns="http://www.w3.org/2000/svg" viewBox="0 0 283.46 283.46"><defs><style>.cls-1{fill:#e4003c;}.cls-2{fill:#fff;}</style></defs><title>be2can</title><g id="Layer_2" data-name="Layer 2"><g id="Film_Europe" data-name="Film Europe"><g id="be2can"><rect class="cls-1" width="283.46" height="283.46"/><g id="logo"><path class="cls-2" d="M52.46,153.11h7c2.93,0,4.55-1.56,4.55-3.84s-1.62-3.9-4.55-3.9h-7Zm6-15.54c3.06,0,4.68-1.17,4.68-3.64s-1.62-3.57-4.68-3.57h-6v7.21Zm15.67,12.94c0,7.21-4.94,11.18-13.26,11.18H42.52V121.78H59.61c8.32,0,13.33,3.7,13.33,10.85,0,4.29-2.41,7.41-5.33,8.45a9.76,9.76,0,0,1,6.5,9.43"/><path class="cls-2" d="M86.91,143.94h8.84c-.13-2.4-1.62-4.22-4.16-4.22s-4,1.49-4.68,4.22m18.59,7.54c-1,6.76-6.11,10.86-13.71,10.86-9,0-14.89-6.18-14.89-15.28s6.24-15.27,14.69-15.27c9,0,14,6,14,14.69V149H86.72c.32,3.51,2.14,5.4,5.07,5.4a4.06,4.06,0,0,0,4.29-2.93Z"/><path class="cls-2" d="M123.3,130.49c-2.47,0-3.77,1.82-3.9,4H108.61c.79-7.41,6.18-13.32,14.69-13.32,8.78,0,14.3,5,14.3,12.41,0,5.14-3.64,8.78-7.67,12.68l-6.56,6.5h14.36v9H108.81V155l13.71-13.65c2.73-2.79,4.56-4.81,4.56-7.15a3.54,3.54,0,0,0-3.78-3.7"/><path class="cls-2" d="M160.16,121.13c9.94,0,15.79,5.91,17.22,14H167a6.74,6.74,0,0,0-6.82-4.88c-5.53,0-8.65,4.88-8.65,11.44s3.12,11.44,8.65,11.44a6.72,6.72,0,0,0,6.82-4.94h10.4c-1.43,8.19-7.28,14.11-17.22,14.11-11.18,0-19.18-8.52-19.18-20.61s8-20.6,19.18-20.6"/><path class="cls-2" d="M197.72,151.81c-.65-1.24-2.4-2-4.29-2s-4,.85-4,2.8,2,2.86,4,2.86,3.64-.78,4.29-1.95Zm0,9.88v-1.5c-1,1-3.9,2-7,2-5.78,0-10.66-3.25-10.66-9.43,0-5.65,4.88-9.29,11.25-9.29a13.19,13.19,0,0,1,6.43,1.62v-1.88a3.68,3.68,0,0,0-7-1.37h-9.62c.85-5.65,5.85-10.14,13.39-10.14,8.32,0,13.07,4.42,13.07,12v17.94Z"/><path class="cls-2" d="M212.54,132.44h10.21V135a10.58,10.58,0,0,1,7.86-3.18c6.5,0,10.33,4.22,10.33,10.72v19.18H230.81V145c0-2.4-1.24-4.16-3.84-4.16a4.17,4.17,0,0,0-4.22,3.19v17.68H212.54Z"/></g></g></g></g></svg>