<?xml version="1.0" encoding="UTF-8" standalone="no"?>
<svg xmlns:dc="http://purl.org/dc/elements/1.1/" xmlns:cc="http://creativecommons.org/ns#" xmlns:rdf="http://www.w3.org/1999/02/22-rdf-syntax-ns#" xmlns:svg="http://www.w3.org/2000/svg" xmlns="http://www.w3.org/2000/svg" id="svg3834" version="1.1" viewBox="0 0 264.5833272454602 89.55397585562179" height="338.4717102050781" width="1000">
 <defs id="defs3828">
  <clipPath id="clipPath1248" clipPathUnits="userSpaceOnUse">
   <path id="path1246" d="M 40.315,382.547 H 67.703 V 393.846 H 40.315 Z" />
  </clipPath>
  <clipPath id="clipPath1260" clipPathUnits="userSpaceOnUse">
   <path id="path1258" d="M 40.315,383.561 H 67.703 V 392.831 H 40.315 Z" />
  </clipPath>
  <clipPath id="clipPath1272" clipPathUnits="userSpaceOnUse">
   <path id="path1270" d="M 40.315,382.547 H 67.703 V 393.846 H 40.315 Z" />
  </clipPath>
  <clipPath id="clipPath1284" clipPathUnits="userSpaceOnUse">
   <path id="path1282" d="M 40.315,383.561 H 67.703 V 392.831 H 40.315 Z" />
  </clipPath>
  <clipPath id="clipPath1296" clipPathUnits="userSpaceOnUse">
   <path id="path1294" d="M 40.315,382.547 H 67.703 V 393.846 H 40.315 Z" />
  </clipPath>
  <clipPath id="clipPath1328" clipPathUnits="userSpaceOnUse">
   <path id="path1326" d="M 40.315,383.561 H 67.703 V 392.831 H 40.315 Z" />
  </clipPath>
  <clipPath id="clipPath1352" clipPathUnits="userSpaceOnUse">
   <path id="path1350" d="M 40.315,382.547 H 67.703 V 393.846 H 40.315 Z" />
  </clipPath>
 </defs>
 <metadata id="metadata3831">
  <rdf:RDF>
   <cc:Work rdf:about="">
    <dc:format>image/svg+xml</dc:format>
    <dc:type rdf:resource="http://purl.org/dc/dcmitype/StillImage" />
    <dc:title></dc:title>
   </cc:Work>
  </rdf:RDF>
 </metadata>
 <g transform="translate(-45.06214913709979,-40.50370226324815)" id="layer1">
  <g id="g3729" transform="matrix(9.661018660114507,0,0,-9.661018660114507,-344.4228706529071,3835.65132353469)">
   <g id="g1242">
    <g id="g1244" clip-path="url(#clipPath1248)">
     <g id="g1250" transform="translate(42.463,391.3298)">
      <path d="M 0,0 C -0.083,0.092 -0.185,0.136 -0.306,0.136 H -0.9339999999999999 L -1.09,-1.057 C -1.105,-1.178 -1.076,-1.285 -0.998,-1.373 -0.915,-1.465 -0.8129999999999999,-1.509 -0.6909999999999999,-1.509 H -0.516 C -0.3950000000000001,-1.509 -0.283,-1.465 -0.181,-1.378 -0.079,-1.285 -0.02,-1.178 -0.006,-1.057 L 0.092,-0.3160000000000001 C 0.107,-0.195 0.078,-0.088 0,0 M 0.9280000000000001,-0.794 C 0.889,-1.119 0.758,-1.392 0.544,-1.61 0.3200000000000001,-1.834 0.053,-1.946 -0.263,-1.946 H -1.639 C -1.765,-1.946 -1.867,-1.902 -1.945,-1.81 -2.028,-1.717 -2.057,-1.61 -2.042,-1.484 L -1.688,1.399 H -1.051 C -0.9,1.399 -0.8270000000000001,1.302 -0.8270000000000001,1.103 -0.8270000000000001,1.068 -0.832,1.03 -0.8369999999999999,0.9859999999999999 -0.8459999999999999,0.913 -0.8610000000000001,0.782 -0.8850000000000001,0.5969999999999997 H 0.048 C 0.3350000000000001,0.5969999999999997 0.559,0.504 0.729,0.3150000000000001 0.889,0.135 0.9670000000000001,-0.094 0.9670000000000001,-0.3800000000000001 0.9670000000000001,-0.4390000000000001 0.9670000000000001,-0.497 0.957,-0.56 Z" style="fill:#127bca" id="path1252" />
     </g>
    </g>
   </g>
   <g id="g1254">
    <g id="g1256" clip-path="url(#clipPath1260)">
     <g id="g1262" transform="translate(42.463,391.3298)">
      <path d="M 0,0 C -0.083,0.092 -0.185,0.136 -0.306,0.136 H -0.9339999999999999 L -1.09,-1.057 C -1.105,-1.178 -1.076,-1.285 -0.998,-1.373 -0.915,-1.465 -0.8129999999999999,-1.509 -0.6909999999999999,-1.509 H -0.516 C -0.3950000000000001,-1.509 -0.283,-1.465 -0.181,-1.378 -0.079,-1.285 -0.02,-1.178 -0.006,-1.057 L 0.092,-0.3160000000000001 C 0.107,-0.195 0.078,-0.088 0,0 Z M 0.9280000000000001,-0.794 C 0.889,-1.119 0.758,-1.392 0.544,-1.61 0.3200000000000001,-1.834 0.053,-1.946 -0.263,-1.946 H -1.639 C -1.765,-1.946 -1.867,-1.902 -1.945,-1.81 -2.028,-1.717 -2.057,-1.61 -2.042,-1.484 L -1.688,1.399 H -1.051 C -0.9,1.399 -0.8270000000000001,1.302 -0.8270000000000001,1.103 -0.8270000000000001,1.068 -0.832,1.03 -0.8369999999999999,0.9859999999999999 -0.8459999999999999,0.913 -0.8610000000000001,0.782 -0.8850000000000001,0.5969999999999997 H 0.048 C 0.3350000000000001,0.5969999999999997 0.559,0.504 0.729,0.3150000000000001 0.889,0.135 0.9670000000000001,-0.094 0.9670000000000001,-0.3800000000000001 0.9670000000000001,-0.4390000000000001 0.9670000000000001,-0.497 0.957,-0.56 Z" style="fill:none;stroke:#d3d2d2;stroke-width:0.2049999982" id="path1264" />
     </g>
    </g>
   </g>
   <g id="g1266">
    <g id="g1268" clip-path="url(#clipPath1272)">
     <g id="g1274" transform="translate(44.64180000000001,389.3839)">
      <path d="M 0,0 H -0.908 L -0.4990000000000001,3.338 H 0.109 C 0.192,3.338 0.255,3.318999999999999 0.308,3.28 0.362,3.236 0.3910000000000001,3.188 0.3810000000000001,3.124 L 0.059,0.5009999999999998 H 0.058 Z" style="fill:#127bca" id="path1276" />
     </g>
    </g>
   </g>
   <g id="g1278">
    <g id="g1280" clip-path="url(#clipPath1284)">
     <g id="g1286" transform="translate(44.64180000000001,389.3839)">
      <path d="M 0,0 H -0.908 L -0.4990000000000001,3.338 H 0.109 C 0.192,3.338 0.255,3.318999999999999 0.308,3.28 0.362,3.236 0.3910000000000001,3.188 0.3810000000000001,3.124 L 0.059,0.5009999999999998 H 0.058 Z" style="fill:none;stroke:#d3d2d2;stroke-width:0.2049999982" id="path1288" />
     </g>
    </g>
   </g>
   <g id="g1290">
    <g id="g1292" clip-path="url(#clipPath1296)">
     <g id="g1298" transform="translate(48.0664,389.7292)">
      <path d="M 0,0 C -0.01,-0.097 -0.068,-0.18 -0.17,-0.243 -0.272,-0.306 -0.3840000000000001,-0.3400000000000001 -0.506,-0.3400000000000001 H -2.47 C -2.587,-0.3400000000000001 -2.689,-0.306 -2.776,-0.243 -2.864,-0.18 -2.898,-0.097 -2.888,0 L -2.62,2.198 H -1.716 L -1.931,0.467 C -1.96,0.219 -1.766,0.097 -1.343,0.097 -1.236,0.097 -1.134,0.126 -1.041,0.185 -0.925,0.258 -0.8619999999999999,0.35 -0.8469999999999997,0.467 L -0.6560000000000001,1.984 C -0.6470000000000001,2.047 -0.6129999999999999,2.095 -0.549,2.134 -0.4860000000000001,2.178 -0.413,2.198 -0.3310000000000001,2.198 H 0.267 Z" style="fill:#127bca" id="path1300" />
     </g>
     <g id="g1302" transform="translate(48.0664,389.7292)">
      <path d="M 0,0 C -0.01,-0.097 -0.068,-0.18 -0.17,-0.243 -0.272,-0.306 -0.3840000000000001,-0.3400000000000001 -0.506,-0.3400000000000001 H -2.47 C -2.587,-0.3400000000000001 -2.689,-0.306 -2.776,-0.243 -2.864,-0.18 -2.898,-0.097 -2.888,0 L -2.62,2.198 H -1.716 L -1.931,0.467 C -1.96,0.219 -1.766,0.097 -1.343,0.097 -1.236,0.097 -1.134,0.126 -1.041,0.185 -0.925,0.258 -0.8619999999999999,0.35 -0.8469999999999997,0.467 L -0.6560000000000001,1.984 C -0.6470000000000001,2.047 -0.6129999999999999,2.095 -0.549,2.134 -0.4860000000000001,2.178 -0.413,2.198 -0.3310000000000001,2.198 H 0.267 Z" style="fill:none;stroke:#d3d2d2;stroke-width:0.2049999982" id="path1304" />
     </g>
     <g id="g1306" transform="translate(50.91770000000001,391.5193)">
      <path d="M 0,0 C -0.024,-0.044 -0.034,-0.068 -0.039,-0.073 -0.073,-0.068 -0.146,-0.063 -0.258,-0.049 -0.35,-0.039 -0.4230000000000001,-0.029 -0.481,-0.029 -0.9919999999999998,-0.029 -1.264,-0.155 -1.293,-0.413 L -1.314,-0.559 H -0.3950000000000001 C -0.3950000000000001,-0.559 -0.171,-0.545 -0.205,-0.785 -0.237,-1.018 -0.454,-1 -0.454,-1 H -1.373 L -1.411,-1.309 C -1.43,-1.474 -1.348,-1.586 -1.168,-1.644 -1.066,-1.678 -0.9099999999999999,-1.693 -0.6909999999999999,-1.693 -0.6379999999999999,-1.693 -0.56,-1.688 -0.463,-1.674 -0.351,-1.659 -0.278,-1.654 -0.239,-1.649 -0.215,-1.751 -0.219,-1.926 -0.219,-1.921 -0.229,-2.014 -0.3940000000000001,-2.082 -0.7099999999999998,-2.131 -0.9339999999999999,-2.165 -1.148,-2.179 -1.357,-2.179 -1.722,-2.179 -1.97,-2.145 -2.096,-2.082 -2.256,-1.999 -2.334,-1.839 -2.334,-1.591 -2.334,-1.523 -2.329,-1.445 -2.32,-1.362 L -2.193,-0.3410000000000001 C -2.15,0.009 -2.042,0.237 -1.868,0.3490000000000001 -1.722,0.4410000000000001 -1.444,0.4850000000000001 -1.031,0.4850000000000001 -0.832,0.4850000000000001 -0.6280000000000001,0.4709999999999999 -0.414,0.4360000000000001 -0.098,0.3880000000000001 0.058,0.3200000000000001 0.043,0.2280000000000001 0.043,0.223 0.019,0.044 0,0" style="fill:#127bca" id="path1308" />
     </g>
     <g id="g1310" transform="translate(50.91770000000001,391.5193)">
      <path d="M 0,0 C -0.024,-0.044 -0.034,-0.068 -0.039,-0.073 -0.073,-0.068 -0.146,-0.063 -0.258,-0.049 -0.35,-0.039 -0.4230000000000001,-0.029 -0.481,-0.029 -0.9919999999999998,-0.029 -1.264,-0.155 -1.293,-0.413 L -1.314,-0.559 H -0.3950000000000001 C -0.3950000000000001,-0.559 -0.171,-0.545 -0.205,-0.785 -0.237,-1.018 -0.454,-1 -0.454,-1 H -1.373 L -1.411,-1.309 C -1.43,-1.474 -1.348,-1.586 -1.168,-1.644 -1.066,-1.678 -0.9099999999999999,-1.693 -0.6909999999999999,-1.693 -0.6379999999999999,-1.693 -0.56,-1.688 -0.463,-1.674 -0.351,-1.659 -0.278,-1.654 -0.239,-1.649 -0.215,-1.751 -0.219,-1.926 -0.219,-1.921 -0.229,-2.014 -0.3940000000000001,-2.082 -0.7099999999999998,-2.131 -0.9339999999999999,-2.165 -1.148,-2.179 -1.357,-2.179 -1.722,-2.179 -1.97,-2.145 -2.096,-2.082 -2.256,-1.999 -2.334,-1.839 -2.334,-1.591 -2.334,-1.523 -2.329,-1.445 -2.32,-1.362 L -2.193,-0.3410000000000001 C -2.15,0.009 -2.042,0.237 -1.868,0.3490000000000001 -1.722,0.4410000000000001 -1.444,0.4850000000000001 -1.031,0.4850000000000001 -0.832,0.4850000000000001 -0.6280000000000001,0.4709999999999999 -0.414,0.4360000000000001 -0.098,0.3880000000000001 0.058,0.3200000000000001 0.043,0.2280000000000001 0.043,0.223 0.019,0.044 0,0 Z" style="fill:none;stroke:#d3d2d2;stroke-width:0.2049999982" id="path1312" />
     </g>
     <g id="g1314" transform="translate(41.89830000000002,389.1782)">
      <path d="M 0,0 V -5.153 H 0.912 V -3.053 H 2.657 V -5.153 H 3.556 V 0.007 H 2.65 V -2.154 H 0.906 V 0 Z" style="fill:#d3d2d2" id="path1316" />
     </g>
     <g id="g1318" transform="translate(45.2128,388.9433)">
      <path d="M 0,0 V -4.677 H -0.4160000000000001 V -2.576 H -2.644 V -4.677 H -3.073 V -0.007 H -2.65 V -2.16 H -0.4230000000000001 V 0 Z M 0.242,0.483 H -0.906 V -1.677 H -2.167 V 0.476 H -3.556 V -5.160000000000001 H -2.16 V -3.06 H -0.8990000000000001 V -5.160000000000001 H 0.483 V 0.483 Z" style="fill:#d3d2d2" id="path1320" />
     </g>
    </g>
   </g>
   <g id="g1322">
    <g id="g1324" clip-path="url(#clipPath1328)">
     <g id="g1330" transform="translate(45.73940000000001,389.1782)">
      <path d="M 0,0 0.003,-3.69 C 0.003,-3.69 0.044,-5.374 1.761,-5.374 1.761,-5.374 3.465,-5.468 3.553,-3.69 V 0.007 H 2.64 V -3.69 C 2.64,-3.69 2.566,-4.515 1.802,-4.515 1.802,-4.515 1.003,-4.576000000000004 0.923,-3.69 V 0 Z" style="fill:#d3d2d2" id="path1332" />
     </g>
     <g id="g1334" transform="translate(47.54140000000001,384.4212999999999)">
      <path d="M 0,0 C 0,0 0,0 0,0 L 0.018,0.001 C 0.012,0 0.006,0 0,0 M 1.509,4.522000000000002 V 1.076 C 1.435,-0.404 0.121,-0.383 -0.028,-0.3760000000000001 H -0.034 -0.041 C -1.496,-0.3760000000000001 -1.555,1.014 -1.557,1.073 -1.557,1.073 -1.56,3.708 -1.56,4.515 H -1.121 V 1.056 L -1.12,1.045 C -1.038,0.141 -0.3,-0.015 0,0 0.779,0 1.046,0.684 1.079,1.045 L 1.08,1.056 V 4.522000000000002 Z M 1.751,5.005 H 0.5969999999999997 V 1.082 C 0.5879999999999999,1.001 0.5099999999999996,0.483 0,0.483 H -0.007 L -0.017,0.4820000000000001 C -0.111,0.4770000000000001 -0.5799999999999998,0.481 -0.6379999999999999,1.083 V 4.998000000000001 H -2.044 L -2.04,1.066 C -2.024,0.3970000000000001 -1.586,-0.8590000000000001 -0.041,-0.8590000000000001 H -0.054 C -0.02,-0.8600000000000001 0.789,-0.898 1.386,-0.36 1.759,-0.025 1.962,0.451 1.992,1.055 V 1.061 5.005 Z" style="fill:#d3d2d2" id="path1336" />
     </g>
     <g id="g1338" transform="translate(52.9153,388.628)">
      <path d="M 0,0 C 0,0 -0.503,0.6440000000000001 -1.268,0.7039999999999998 -1.268,0.7039999999999998 -2.06,0.866 -2.764,0.362 -2.764,0.362 -3.147,0.107 -3.281,-0.45 -3.281,-0.45 -3.415,-1.08 -3.133,-1.503 -3.133,-1.503 -2.805,-2.006 -2.154,-2.248 L -1.355,-2.543 C -1.355,-2.543 -0.839,-2.751 -0.7650000000000001,-2.971999999999999 -0.7650000000000001,-2.971999999999999 -0.5839999999999998,-3.308 -0.872,-3.657 -0.872,-3.657 -1.08,-3.911999999999999 -1.537,-3.911999999999999 -1.537,-3.911999999999999 -1.919,-3.945 -2.322,-3.616 -2.322,-3.616 -2.644,-3.361 -2.737,-3.16 L -3.328,-3.704 C -3.328,-3.704 -3.107,-4.146 -2.691,-4.435000000000004 -2.691,-4.435000000000004 -2.334999999999999,-4.698000000000003 -1.704,-4.777000000000001 -1.704,-4.777000000000001 -1.067,-4.863999999999999 -0.5639999999999999,-4.549000000000003 -0.5639999999999999,-4.549000000000003 0.047,-4.227000000000002 0.208,-3.583 0.208,-3.583 0.3150000000000001,-2.986 0.154,-2.63 0.154,-2.63 0.013,-2.221 -0.3960000000000001,-1.959 -0.3960000000000001,-1.959 -0.6310000000000001,-1.758 -1.261,-1.597 -1.261,-1.597 -1.859,-1.469 -2.147,-1.201 -2.147,-1.201 -2.489,-0.9530000000000001 -2.314999999999999,-0.503 -2.314999999999999,-0.503 -2.207,-0.195 -1.758,-0.094 -1.758,-0.094 -1.255,-0.04 -0.9389999999999998,-0.302 -0.9389999999999998,-0.302 -0.678,-0.5099999999999996 -0.637,-0.604 Z" style="fill:#d3d2d2" id="path1340" />
     </g>
     <g id="g1342" transform="translate(52.3702,385.751)">
      <path d="M 0,0 C 0.003,-0.006 0.007,-0.012 0.009,-0.019 L -0.007,0.02 C -0.005,0.014 -0.003,0.006 0,0 M -1.744,1.481 C -1.746,1.482 -1.748,1.484 -1.749,1.485 -1.755,1.49 -1.761,1.494 -1.767,1.499 Z M -0.7200000000000001,0.558 C -0.7270000000000001,0.561 -1.525,0.856 -1.525,0.856 -2.088,1.065 -2.384,1.503 -2.387,1.507 -2.499,1.675 -2.527,1.895 -2.527,2.072 -2.527,2.244 -2.5,2.375 -2.5,2.378 -2.393,2.822 -2.096,3.031 -2.084,3.039 -1.473,3.475 -0.777,3.346 -0.77,3.345 L -0.7570000000000001,3.342 -0.7419999999999999,3.341 C -0.3160000000000001,3.307 0.019,3.056 0.203,2.885 0.091,2.779 0.037,2.728 -0.077,2.62 -0.133,2.672 -0.191,2.722 -0.244,2.764 -0.6230000000000001,3.079 -1.177,3.03 -1.239,3.023 L -1.252,3.022 -1.266,3.019 C -1.83,2.891999999999999 -1.982,2.498 -1.998,2.453 -2.043,2.337 -2.062,2.228 -2.062,2.127 -2.062,1.812 -1.879,1.582 -1.749,1.485 -1.425,1.197 -0.8619999999999999,1.065 -0.775,1.046 -0.223,0.905 -0.008,0.7339999999999998 -0.005,0.7320000000000001 L 0.005,0.7240000000000001 0.019,0.7139999999999997 C 0.3480000000000001,0.504 0.4700000000000001,0.17 0.4709999999999999,0.167 L 0.475,0.158 0.479,0.147 C 0.531,0.034 0.547,-0.126 0.547,-0.277 0.547,-0.4310000000000001 0.53,-0.5739999999999999 0.5169999999999999,-0.6520000000000001 0.383,-1.176 -0.127,-1.456 -0.132,-1.459 L -0.139,-1.463 -0.147,-1.467 C -0.5669999999999999,-1.73 -1.122,-1.661 -1.127,-1.661 -1.681,-1.591 -2,-1.365 -2.003,-1.363 -2.223,-1.21 -2.382,-1.008 -2.474,-0.871 -2.383,-0.787 -2.338999999999999,-0.7459999999999999 -2.229,-0.6450000000000001 -2.104,-0.785 -1.965,-0.898 -1.926,-0.929 -1.456,-1.313 -0.99,-1.277 -0.9699999999999999,-1.275 L -0.9919999999999998,-1.276 C -0.437,-1.276 -0.169,-0.9670000000000001 -0.14,-0.932 0.025,-0.733 0.079,-0.5259999999999998 0.079,-0.3490000000000001 0.079,-0.204 0.041,-0.083 0,0 -0.111,0.2850000000000001 -0.538,0.4850000000000001 -0.7200000000000001,0.558 M -2.36,3.435999999999999 C -2.371999999999999,3.428 -2.815999999999999,3.125 -2.971,2.484 -2.979,2.448 -3.124,1.742 -2.789,1.24 -2.775,1.219 -2.41,0.6690000000000001 -1.693,0.4030000000000001 -1.693,0.4030000000000001 -0.8940000000000001,0.108 -0.8940000000000001,0.108 -0.7,0.029 -0.48,-0.11 -0.4480000000000002,-0.175 L -0.4440000000000001,-0.185 -0.4350000000000001,-0.206 C -0.4240000000000001,-0.227 -0.3400000000000001,-0.4160000000000001 -0.5129999999999999,-0.6260000000000001 -0.5179999999999997,-0.6299999999999998 -0.6660000000000001,-0.793 -0.9919999999999998,-0.793 H -0.999 L -1.01,-0.794 C -1.022,-0.794 -1.309,-0.8089999999999999 -1.624,-0.552 -1.742,-0.458 -1.926,-0.283 -1.974,-0.181 L -2.113,0.118 -3.08,-0.772 -2.999,-0.9350000000000001 C -2.989,-0.9549999999999998 -2.745,-1.436 -2.283,-1.756 -2.273,-1.764 -1.875,-2.054 -1.189,-2.14 -1.162,-2.143 -0.4610000000000001,-2.234 0.11,-1.877 L 0.094,-1.886 C 0.123,-1.87 0.8019999999999999,-1.505 0.9869999999999999,-0.7640000000000001 L 0.989,-0.7570000000000001 0.991,-0.7490000000000001 C 1.003,-0.68 1.106,-0.066 0.9190000000000001,0.3460000000000001 L 0.9280000000000001,0.3260000000000001 C 0.921,0.3450000000000001 0.758,0.8 0.3030000000000001,1.104 0.267,1.134 -0.002,1.347 -0.6570000000000001,1.514 L -0.6660000000000001,1.516 C -0.8139999999999998,1.548 -1.242,1.671 -1.438,1.853 L -1.445,1.86 -1.457,1.869 C -1.481,1.888 -1.577,1.973 -1.577,2.125 -1.577,2.172 -1.568,2.226 -1.545,2.286 -1.541,2.296 -1.464,2.473 -1.174,2.543 -1.051,2.553 -0.7339999999999998,2.543 -0.549,2.389 -0.4440000000000001,2.306 -0.3310000000000001,2.2 -0.308,2.165 L -0.3150000000000001,2.178 -0.1680000000000001,1.889 0.074,2.098 0.871,2.853 0.7350000000000001,3.026 C 0.7119999999999998,3.055 0.157,3.754 -0.7039999999999998,3.822 L -0.6750000000000001,3.817999999999999 C -0.7110000000000001,3.826 -1.579,3.994 -2.36,3.435999999999999" style="fill:#d3d2d2" id="path1344" />
     </g>
    </g>
   </g>
   <g id="g1346">
    <g id="g1348" clip-path="url(#clipPath1352)">
     <g id="g1354" transform="translate(53.17010000000001,389.1782)">
      <path d="M 0,0 V -0.9389999999999998 H 1.376 V -5.206000000000003 H 2.301 V -0.9459999999999999 H 3.65 V 0 Z" style="fill:#d3d2d2" id="path1356" />
     </g>
     <g id="g1358" transform="translate(56.5786,388.9365999999999)">
      <path d="M 0,0 V -0.463 H -1.349 V -4.723 H -1.791 V -0.456 H -3.167 V 0 Z M 0.242,0.483 H -3.65 V -0.9389999999999998 H -2.275 V -5.206000000000003 H -0.865 V -0.9459999999999999 H 0.483 V 0.483 Z" style="fill:#d3d2d2" id="path1360" />
     </g>
     <g id="g1362" transform="translate(57.12200000000001,389.1787)">
      <path d="M 0,0 V -5.18 H 2.885 V -4.274 H 0.9190000000000001 V 0 Z" style="fill:#d3d2d2" id="path1364" />
     </g>
     <g id="g1366" transform="translate(57.79960000000001,388.9372)">
      <path d="M 0,0 V -4.274 H 1.966 V -4.697 H -0.4360000000000001 V 0 Z M 0.242,0.483 H -0.9190000000000001 V -5.18 H 2.449 V -3.791 H 0.483 V 0.483 Z" style="fill:#d3d2d2" id="path1368" />
     </g>
     <g id="g1370" transform="translate(60.32250000000001,389.2051)">
      <path d="M 0,0 V -5.213 H 2.871999999999999 V -4.321 H 0.8990000000000001 V -3.033 H 2.845 V -2.161 H 0.8990000000000001 V -0.933 H 2.858 V 0 Z" style="fill:#d3d2d2" id="path1372" />
     </g>
     <g id="g1374" transform="translate(62.9392,388.9635)">
      <path d="M 0,0 V -0.45 H -1.959 V -2.16 H -0.013 V -2.55 H -1.959 V -4.321 H 0.013 V -4.730000000000003 H -2.375 V 0 Z M 0.242,0.483 H -2.858 V -5.213 H 0.496 V -3.838 H -1.476 V -3.033 H 0.4700000000000001 V -1.677 H -1.476 V -0.933 H 0.483 V 0.483 Z" style="fill:#d3d2d2" id="path1376" />
     </g>
     <g id="g1378" transform="translate(64.48909999999999,388.2925)">
      <path d="M 0,0 V -1.228 H 0.7650000000000001 C 0.7650000000000001,-1.228 1.442,-1.194 1.442,-0.6110000000000001 1.442,-0.6110000000000001 1.493,-0.074 0.7350000000000001,0 Z M 0.7510000000000001,0.914 C 1.167,0.908 1.543,0.785 1.543,0.785 2.489,0.3890000000000001 2.415,-0.55 2.415,-0.55 2.415,-1.885 1.073,-2.087 1.073,-2.087 L 2.731,-4.301000000000001 H 1.617 L -0.013,-2.234 V -4.301000000000001 H -1.006 V 0.914 Z" style="fill:#d3d2d2" id="path1380" />
     </g>
     <g id="g1382" transform="translate(67.14579999999999,387.7402)">
      <path d="M 0,0 C 0,-0.005 0,-0.012 -0.001,-0.017 L 0,0.002 C 0,0.001 0,0.001 0,0 M -1.909,1.225 C -1.566,1.22 -1.249,1.128 -1.204,1.113 -0.5259999999999998,0.8270000000000001 -0.481,0.212 -0.481,0.055 -0.481,0.036 -0.4820000000000001,0.023 -0.4820000000000001,0.02 L -0.483,0.012 V 0.002 C -0.483,-1.104 -1.574,-1.288 -1.62,-1.296 L -2.016,-1.358 -1.777,-1.679 C -1.777,-1.679 -0.8030000000000001,-2.98 -0.4089999999999999,-3.507 H -0.923 C -1.055,-3.338999999999999 -2.911999999999999,-0.9859999999999999 -2.911999999999999,-0.9859999999999999 V -3.507 H -3.422 V 1.225 Z M -1.905,1.708 H -3.905 V -3.99 H -2.429 V -2.378 C -1.962,-2.969 -1.157,-3.99 -1.157,-3.99 H 0.556 C 0.556,-3.99 -0.855,-2.104 -1.178,-1.673 -0.6459999999999999,-1.471 -0.001,-0.973 0,0 0.001,0.022 0.003,0.044 0.003,0.068 0.003,0.479 -0.204,1.219 -1.02,1.56 L -1.026,1.563 -1.032,1.565 C -1.049,1.571 -1.451,1.701 -1.901,1.708 H -1.903 Z" style="fill:#d3d2d2" id="path1384" />
     </g>
     <g id="g1386" transform="translate(66.17309999999999,387.6815)">
      <path d="M 0,0 C -0.001,-0.007 0,-0.015 -0.001,-0.022 Z M -0.966,0.3690000000000001 C -0.515,0.3230000000000001 -0.4820000000000001,0.091 -0.4820000000000001,0.026 -0.4820000000000001,0.023 -0.483,0 -0.483,0 -0.483,-0.3270000000000001 -0.848,-0.3700000000000001 -0.929,-0.375 H -1.442 V 0.3690000000000001 Z M -0.949,0.841 H -1.926 V -0.8580000000000001 H -0.913 -0.907 C -0.5929999999999997,-0.8430000000000001 0,-0.6430000000000001 0,0 0,0.01 0.001,0.021 0.001,0.032 0.001,0.3110000000000001 -0.186,0.7680000000000001 -0.9259999999999999,0.84 L -0.9379999999999999,0.841 Z" style="fill:#d3d2d2" id="path1388" />
     </g>
     <g id="g1390" transform="translate(41.89830000000002,389.1782)">
      <path d="M 0,0 V -5.153 H 0.912 V -3.053 H 2.657 V -5.153 H 3.556 V 0.007 H 2.65 V -2.154 H 0.906 V 0 Z" style="fill:#231f20" id="path1392" />
     </g>
     <g id="g1394" transform="translate(45.73940000000001,389.1782)">
      <path d="M 0,0 0.003,-3.69 C 0.003,-3.69 0.044,-5.374 1.761,-5.374 1.761,-5.374 3.465,-5.468 3.553,-3.69 V 0.007 H 2.64 V -3.69 C 2.64,-3.69 2.566,-4.515 1.802,-4.515 1.802,-4.515 1.003,-4.576000000000004 0.923,-3.69 V 0 Z" style="fill:#231f20" id="path1396" />
     </g>
     <g id="g1398" transform="translate(52.9153,388.628)">
      <path d="M 0,0 C 0,0 -0.503,0.6440000000000001 -1.268,0.7039999999999998 -1.268,0.7039999999999998 -2.06,0.866 -2.764,0.362 -2.764,0.362 -3.147,0.107 -3.281,-0.45 -3.281,-0.45 -3.415,-1.08 -3.133,-1.503 -3.133,-1.503 -2.805,-2.006 -2.154,-2.248 L -1.355,-2.543 C -1.355,-2.543 -0.839,-2.751 -0.7650000000000001,-2.971999999999999 -0.7650000000000001,-2.971999999999999 -0.5839999999999998,-3.308 -0.872,-3.657 -0.872,-3.657 -1.08,-3.911999999999999 -1.537,-3.911999999999999 -1.537,-3.911999999999999 -1.919,-3.945 -2.322,-3.616 -2.322,-3.616 -2.644,-3.361 -2.737,-3.16 L -3.328,-3.704 C -3.328,-3.704 -3.107,-4.146 -2.691,-4.435000000000004 -2.691,-4.435000000000004 -2.334999999999999,-4.698000000000003 -1.704,-4.777000000000001 -1.704,-4.777000000000001 -1.067,-4.863999999999999 -0.5639999999999999,-4.549000000000003 -0.5639999999999999,-4.549000000000003 0.047,-4.227000000000002 0.208,-3.583 0.208,-3.583 0.3150000000000001,-2.986 0.154,-2.63 0.154,-2.63 0.013,-2.221 -0.3960000000000001,-1.959 -0.3960000000000001,-1.959 -0.6310000000000001,-1.758 -1.261,-1.597 -1.261,-1.597 -1.859,-1.469 -2.147,-1.201 -2.147,-1.201 -2.489,-0.9530000000000001 -2.314999999999999,-0.503 -2.314999999999999,-0.503 -2.207,-0.195 -1.758,-0.094 -1.758,-0.094 -1.255,-0.04 -0.9389999999999998,-0.302 -0.9389999999999998,-0.302 -0.678,-0.5099999999999996 -0.637,-0.604 Z" style="fill:#231f20" id="path1400" />
     </g>
     <g id="g1402" transform="translate(53.17010000000001,389.1782)">
      <path d="M 0,0 V -0.9389999999999998 H 1.376 V -5.206000000000003 H 2.301 V -0.9459999999999999 H 3.65 V 0 Z" style="fill:#231f20" id="path1404" />
     </g>
     <g id="g1406" transform="translate(57.12200000000001,389.1787)">
      <path d="M 0,0 V -5.18 H 2.885 V -4.274 H 0.9190000000000001 V 0 Z" style="fill:#231f20" id="path1408" />
     </g>
     <g id="g1410" transform="translate(60.32250000000001,389.2051)">
      <path d="M 0,0 V -5.213 H 2.871999999999999 V -4.321 H 0.8990000000000001 V -3.033 H 2.845 V -2.161 H 0.8990000000000001 V -0.933 H 2.858 V 0 Z" style="fill:#231f20" id="path1412" />
     </g>
     <g id="g1414" transform="translate(64.48909999999999,388.2925)">
      <path d="M 0,0 V -1.228 H 0.7650000000000001 C 0.7650000000000001,-1.228 1.442,-1.194 1.442,-0.6110000000000001 1.442,-0.6110000000000001 1.493,-0.074 0.7350000000000001,0 Z M 0.7510000000000001,0.914 C 1.167,0.908 1.543,0.785 1.543,0.785 2.489,0.3890000000000001 2.415,-0.55 2.415,-0.55 2.415,-1.885 1.073,-2.087 1.073,-2.087 L 2.731,-4.301000000000001 H 1.617 L -0.013,-2.234 V -4.301000000000001 H -1.006 V 0.914 Z" style="fill:#231f20" id="path1416" />
     </g>
    </g>
   </g>
  </g>
 </g>
</svg>
