<svg xmlns="http://www.w3.org/2000/svg" viewBox="0 0 283.46 283.46"><defs><style>.cls-1{fill:#ec008c;}.cls-2{fill:#fff;}.cls-3{fill:#231f20;}.cls-4{fill:#040606;}</style></defs><title>boomerang</title><g id="Layer_2" data-name="Layer 2"><g id="Kids"><g id="boomerang"><rect class="cls-1" width="283.46" height="283.46"/><g id="logo"><path class="cls-2" d="M141.73,181.29,42.52,123.83v35.82l99.21,57.46,99.21-57.46V123.83Z"/><path class="cls-3" d="M141.73,66.35l99.21,57.46-99.21,57.48L42.52,123.81Z"/><path class="cls-3" d="M228.5,135.05c3.55-2.26,8.4-4.28,8.12.69a4.78,4.78,0,0,1-1.21,2.79,6,6,0,0,1-2.56,1.66,8.39,8.39,0,0,0-4.26,3.67,10,10,0,0,0-1.25,4.64c0,1,.3,4.56,3.11,2.83a7.56,7.56,0,0,0,.93-.69,4.31,4.31,0,0,0,1.41-2.71l-1.21.73c-1.41.87-1.37-1.51-1.37-1.62,0-2.64,1.29-3.43,1.35-3.47l4.87-3.05c.06,0,1.47-.93,1.43,1.66-.18,8.8-2.42,15.12-8.32,18.7-4.48,2.67-9.11,0-9.13-8.12s3.47-14.8,8.08-17.71"/><path class="cls-3" d="M102.29,179.58c1.9.93,2.73-.5,2.56-2.75s-1.25-4.7-3.23-5.69-2.73.53-2.56,2.83,1.33,4.68,3.23,5.61m-.48-17.65a24.15,24.15,0,0,1,11,20.11c-.06,8.16-5,10.52-11.18,6.8-5.75-3.47-10.78-11.25-10.72-19.85,0-8.42,4.87-10.68,10.88-7.05"/><path class="cls-3" d="M135,181.1a3.05,3.05,0,0,0-3.53,0l-4.5,3.51L122,175.41a9.57,9.57,0,0,0-3.23-3.73,4.55,4.55,0,0,0-2.16-.69c-2.44,0-2.54,3.33-2.54,3.71l-.08,16a8.07,8.07,0,0,0,3.8,7.53,2.09,2.09,0,0,0,1.11.36c2.08,0,2.66-3.63,2.66-5.75l0-2.6,3.92,6.48a2.69,2.69,0,0,0,1.05,1.11,1.47,1.47,0,0,0,1.74-.26l3-2.1,0,4.42c0,2.89.32,6.9,3.15,8.48a4.37,4.37,0,0,0,2.14.67c1.86,0,2.54-2,2.54-3.73l.1-16.41c0-.54-.1-5.35-4.26-7.77"/><path class="cls-3" d="M57.11,146.82c1.07.63,1.62,0,1.62-1.07A3.4,3.4,0,0,0,57.05,143l-2.26-1.31,0,3.82,2.34,1.35M57,155.87c1.23.71,1.7,0,1.7-.83a3.37,3.37,0,0,0-1.6-2.93l-2.32-1.35,0,3.8L57,155.87m6.52-2.66A9.45,9.45,0,0,1,67,160.9c0,4.28-2.38,5.88-8.1,2.54l-7.75-4.54A9.34,9.34,0,0,1,46.35,151l.1-15.57c0-.2,0-5.09,4.87-2.26l7.75,4.54c5.73,3.33,8,7.63,8,11.91,0,1.84-.28,4.46-3.59,3.57"/><path class="cls-3" d="M79.34,166.74c1.94.83,2.69-.65,2.38-2.89s-1.51-4.62-3.55-5.49-2.69.67-2.38,3,1.6,4.58,3.55,5.41m-.08-17.46C85.42,153,90.08,161,90,169.43c-.06,8.16-4.76,10.5-10.94,6.76a24.57,24.57,0,0,1-11.14-20c.06-8.42,5.29-10.5,11.29-6.88"/><path class="cls-3" d="M206.2,148.54a1.79,1.79,0,0,1,2.42.38l4.36,5.43,0-4.56c0-.18-.46-5.05,2.73-6.9s3.21,3,3.21,3.21l0,15.93c0,.24,0,5.11-3.17,7-.67.4-1.23.26-1.92-.53l-4.4-5.63,0,4.85c0,.22,0,5.09-3.19,7s-3.19-3.05-3.19-3.27L203,155.44c0-.18,0-5.05,3.17-6.9"/><path class="cls-3" d="M157.82,176.84c.26-.16,3.21-1.82,3.21,2.08a6.85,6.85,0,0,1-3.19,5.87l-5.43,3.13,0,2.26,5.61-3.25c1-.55,2.12-.61,2.12,1.39a4.26,4.26,0,0,1-2.1,3.94l-5.63,3.25,0,2.24,5.43-3.13c.26-.16,3.19-1.82,3.21,2.08a6.9,6.9,0,0,1-3.19,5.87l-9,5.19c-4.36,2.52-4.34-2.38-4.34-2.62l-.06-15.53a9.13,9.13,0,0,1,4.54-7.69Z"/><path class="cls-3" d="M190.54,173.94l4-2.18-1.86-6-2.1,8.16m11.18-4a5.56,5.56,0,0,1,.63,2.58,7.87,7.87,0,0,1-3.61,6.36,1.76,1.76,0,0,1-2.66-.81l-.63-1.6-6.54,3.78-.85,3a6.92,6.92,0,0,1-2.66,3.88c-1.62.93-3.94.42-4-2.38a9.54,9.54,0,0,1,.55-3l6.7-20.8a7.06,7.06,0,0,1,3-4.08c2-1.17,3.15-.12,3.45.44Z"/><path class="cls-2" d="M194.5,109.42l-45.18-25.6-4.24-2.38a13.84,13.84,0,0,0-11.25.89L71.52,118.57s-5.75,3-1.57,6.54l51.1,29.44c15,9,31.58,10.07,45.55,2.56,9.19-4.91,9.19-13.32,4.62-18.74a36.4,36.4,0,0,0,26.19-2.79c14.58-7.85,13-17.18-2.91-26.16"/><path class="cls-4" d="M161.8,113.51l-7.49-4.3L154,109a3.33,3.33,0,0,0-3.19-.44l-.61.36-.1.08,0,0-6.2,3.45,0,0s-1.47,1.15,0,2.1l0,0,7.75,4.48c3.84,2.22,7.81,2.48,11.16.63s2.85-4-1-6.22"/><path class="cls-4" d="M135.52,129.73l-8.78-5.13a1.73,1.73,0,0,1-.59-.28,3.68,3.68,0,0,0-2.56-.61l-8.28,4.6a1.05,1.05,0,0,0,.4,1.66,0,0,0,0,0,0,0l9.33,5.51a11.33,11.33,0,0,0,11,.55c3.29-1.8,3.17-4.16-.5-6.32"/><path class="cls-3" d="M172.82,178.25a3.35,3.35,0,0,0,1.51-2.87c0-.83-.46-2.1-1.6-1.45l-2.93,1.86v4.36l2.12-1.29m6-.91c2.66-.28,2.64,1.57,2.64,4.76v1.84c0,.24,0,4.85-3.92,7.13s-3.27-3-3.27-3.25V185c0-2-.48-2.1-.93-1.84l-2,1.43,0,5.92c0,.24-.08,4.78-3.88,7s-3.9-2.24-3.9-2.48l-.06-15.91a9.11,9.11,0,0,1,4.5-7.67l7.17-4.24c5.35-3.09,6.84-1,6.84,3.29a9.69,9.69,0,0,1-3.21,7.49"/><path class="cls-3" d="M236.88,157v.48l-.69.42v2.22l-.5.28v-2.22l-.71.4v-.48Z"/><path class="cls-3" d="M239.61,155.46v2.69l-.46.28v-2.28l-.44,2.52-.48.28-.46-2v.44l0,1.82-.46.26,0-2.69.71-.42.44,1.88.42-2.36Z"/></g></g></g></g></svg>