<?xml version="1.0" standalone="yes"?>
<svg xmlns="http://www.w3.org/2000/svg" width="1024" height="1024">
<path style="fill:#242328; stroke:none;" d="M0 0L0 1024L1024 1024L1024 0L0 0z"/>
<path style="fill:#1d6a26; stroke:none;" d="M229.667 369.333L230.333 369.667L229.667 369.333z"/>
<path style="fill:#9bb69c; stroke:none;" d="M231 369L231 370L244 370L231 369z"/>
<path style="fill:#1d6a26; stroke:none;" d="M244.667 369.333L245.333 369.667L244.667 369.333M223 370L224 371L223 370z"/>
<path style="fill:#9bb69c; stroke:none;" d="M224.667 370.333L225.333 370.667L224.667 370.333z"/>
<path style="fill:#fefefe; stroke:none;" d="M258 444C245.461 446.901 232.682 451.592 221.015 443.061C201.095 428.495 212.215 398.602 234 393.68C246.127 390.94 255.121 397.558 266 401C267.055 395.562 271.423 384.31 268.883 379.188C264.879 371.116 247.666 370.003 240 370C212.826 369.99 188.234 383.795 184.289 413C181.964 430.205 185.509 449.837 200.015 461.1C211.088 469.698 225.29 472.801 239 471.155C243.328 470.635 249.944 470.422 253.262 467.157C257.539 462.946 257.753 449.748 258 444z"/>
<path style="fill:#9bb69c; stroke:none;" d="M249.667 370.333L250.333 370.667L249.667 370.333z"/>
<path style="fill:#1d6a26; stroke:none;" d="M219 371L220 372L219 371z"/>
<path style="fill:#9bb69c; stroke:none;" d="M220 371L221 372L220 371M253.667 371.333L254.333 371.667L253.667 371.333z"/>
<path style="fill:#fefefe; stroke:none;" d="M686 371L686 404L650 404L650 431L686 431L686 469L714 469L714 431L749 431L749 404L714 404L714 381L712.397 372.028L686 371z"/>
<path style="fill:#9bb69c; stroke:none;" d="M713 371L714 372L713 371z"/>
<path style="fill:#1d6a26; stroke:none;" d="M216 372L217 373L216 372z"/>
<path style="fill:#9bb69c; stroke:none;" d="M217 372L218 373L217 372M257 372L258 373L257 372z"/>
<path style="fill:#1d6a26; stroke:none;" d="M258 372L259 373L258 372z"/>
<path style="fill:#9bb69c; stroke:none;" d="M214 373L215 374L214 373M260 373L261 374L260 373M309 373L310 374L309 373z"/>
<path style="fill:#fefefe; stroke:none;" d="M263 469C270.256 469 283.021 471.496 289.61 468.397C294.982 465.869 294.737 457.155 299.275 453.603C303.685 450.152 328.27 449.808 332.486 453.603C335.915 456.69 336.415 464.655 337 469L361 469C360.512 445.363 351.244 420.176 346.6 397C345.58 391.906 344.752 376.012 339.697 373.603C334.891 371.314 313.65 371.066 309.637 374.603C303.254 380.23 299.542 393.423 295.753 401C284.915 422.676 269.711 445.704 263 469z"/>
<path style="fill:#9bb69c; stroke:none;" d="M341 373L342 374L341 373z"/>
<path style="fill:#1d6a26; stroke:none;" d="M386 373L387 374L386 373z"/>
<path style="fill:#fefefe; stroke:none;" d="M373 468C377.876 469.441 393.04 471.375 397.258 467.972C400.409 465.429 400.024 456.747 400.579 453C402.683 438.786 403.636 423.969 407 410L408 410C413.781 423.811 422.57 436.997 430.001 450C433.024 455.29 435.919 463.416 440.61 467.397C443.943 470.226 463.077 470.973 465.976 467.397C470.151 462.248 469.329 447.536 470.271 441C473.482 418.712 475.876 396.136 480 374L454 373L446 427L444 427C439.806 413.747 430.142 401.067 423.281 389C420.769 384.581 418.055 376.799 413.621 374.028C409.931 371.722 389.878 371.083 387.024 374.603C382.952 379.626 383.644 393.65 382.729 400C379.469 422.622 377.187 445.528 373 468z"/>
<path style="fill:#1d6a26; stroke:none;" d="M414 373L415 374L414 373z"/>
<path style="fill:#9bb69c; stroke:none;" d="M458 373L458 374L480 374L458 373M526 373L525 375L526 373z"/>
<path style="fill:#fefefe; stroke:none;" d="M479 469C486.256 469 499.021 471.496 505.61 468.397C510.915 465.901 510.925 457.2 515.39 453.603C520.641 449.374 537.444 451.471 543.985 452.059C553.254 452.892 548.074 463.77 553.589 467.972C558.162 471.457 571.378 469 577 469C575.116 445.325 567.456 421.283 562.8 398C561.666 392.328 561.333 377.646 556.436 374.028C552.023 370.767 529.376 371.407 525.637 375.318C518.474 382.813 514.383 396.741 509.753 406C499.716 426.073 485.209 447.447 479 469z"/>
<path style="fill:#9bb69c; stroke:none;" d="M557 373L558 374L557 373M602 373L603 374L602 373z"/>
<path style="fill:#fefefe; stroke:none;" d="M589 469L629 469L644.258 467.972L648 448L619 448L629 373L603.603 374.028L598.87 399L589 469z"/>
<path style="fill:#9bb69c; stroke:none;" d="M212 374L213 375L212 374M262 374L263 375L262 374z"/>
<path style="fill:#1d6a26; stroke:none;" d="M263 374L264 375L263 374M453 374L454 375L453 374z"/>
<path style="fill:#9bb69c; stroke:none;" d="M210 375L211 376L210 375z"/>
<path style="fill:#1d6a26; stroke:none;" d="M265 375L266 376L265 375z"/>
<path style="fill:#9bb69c; stroke:none;" d="M308 375L309 376L308 375M415 375L416 376L415 375M453.333 375.667L453.667 376.333L453.333 375.667z"/>
<path style="fill:#1d6a26; stroke:none;" d="M558 375L559 376L558 375z"/>
<path style="fill:#9bb69c; stroke:none;" d="M208 376L209 377L208 376M266 376L267 377L266 376z"/>
<path style="fill:#1d6a26; stroke:none;" d="M342 376L343 377L342 376z"/>
<path style="fill:#9bb69c; stroke:none;" d="M479 376L479 379L480 379L479 376M524 376L525 377L524 376M558.333 376.667L558.667 377.333L558.333 376.667z"/>
<path style="fill:#1d6a26; stroke:none;" d="M206 377L207 378L206 377z"/>
<path style="fill:#9bb69c; stroke:none;" d="M268 377L269 378L268 377M307 377L308 378L307 377M342 377L343 378L342 377z"/>
<path style="fill:#1d6a26; stroke:none;" d="M385 377L386 378L385 377z"/>
<path style="fill:#9bb69c; stroke:none;" d="M416 377L417 378L416 377z"/>
<path style="fill:#1d6a26; stroke:none;" d="M601.333 377.667L601.667 378.333L601.333 377.667z"/>
<path style="fill:#9bb69c; stroke:none;" d="M628 377L628 380L629 380L628 377M205 378L206 379L205 378M269 378L270 379L269 378M385 378L385 381L386 381L385 378z"/>
<path style="fill:#1d6a26; stroke:none;" d="M417 378L418 379L417 378z"/>
<path style="fill:#9bb69c; stroke:none;" d="M523 378L524 379L523 378z"/>
<path style="fill:#1d6a26; stroke:none;" d="M270 379L271 380L270 379z"/>
<path style="fill:#9bb69c; stroke:none;" d="M306 379L307 380L306 379z"/>
<path style="fill:#1d6a26; stroke:none;" d="M479 379L480 380L479 379z"/>
<path style="fill:#9bb69c; stroke:none;" d="M601.333 379.667L601.667 380.333L601.333 379.667z"/>
<path style="fill:#1d6a26; stroke:none;" d="M202 380L203 381L202 380M343 380L344 381L343 380M418 380L419 381L418 380z"/>
<path style="fill:#9bb69c; stroke:none;" d="M522 380L523 381L522 380z"/>
<path style="fill:#1d6a26; stroke:none;" d="M559 380L560 381L559 380M628 380L629 381L628 380z"/>
<path style="fill:#9bb69c; stroke:none;" d="M201 381L202 382L201 381M305 381L306 382L305 381M343.333 381.667L343.667 382.333L343.333 381.667z"/>
<path style="fill:#1d6a26; stroke:none;" d="M452 381L453 382L452 381z"/>
<path style="fill:#9bb69c; stroke:none;" d="M559 381L560 382L559 381M200 382L201 383L200 382M269.333 382.667L269.667 383.333L269.333 382.667M419 382L420 383L419 382M452.333 382.667L452.667 383.333L452.333 382.667M521 382L522 383L521 382M304 383L305 384L304 383M478 383L478 386L479 386L478 383z"/>
<path style="fill:#1d6a26; stroke:none;" d="M269 384L270 385L269 384M384 384L385 385L384 384z"/>
<path style="fill:#9bb69c; stroke:none;" d="M420 384L421 385L420 384M520 384L521 385L520 384z"/>
<path style="fill:#1d6a26; stroke:none;" d="M600.333 384.667L600.667 385.333L600.333 384.667z"/>
<path style="fill:#9bb69c; stroke:none;" d="M627 384L627 387L628 387L627 384M303 385L304 386L303 385z"/>
<path style="fill:#1d6a26; stroke:none;" d="M344 385L345 386L344 385z"/>
<path style="fill:#9bb69c; stroke:none;" d="M384 385L384 388L385 388L384 385z"/>
<path style="fill:#1d6a26; stroke:none;" d="M421 385L422 386L421 385M560 385L561 386L560 385z"/>
<path style="fill:#9bb69c; stroke:none;" d="M344.333 386.667L344.667 387.333L344.333 386.667z"/>
<path style="fill:#1d6a26; stroke:none;" d="M478 386L479 387L478 386z"/>
<path style="fill:#9bb69c; stroke:none;" d="M519 386L520 387L519 386M560 386L561 387L560 386M600.333 386.667L600.667 387.333L600.333 386.667M195 387L196 388L195 387M268.333 387.667L268.667 388.333L268.333 387.667M302 387L303 388L302 387z"/>
<path style="fill:#1d6a26; stroke:none;" d="M422 387L423 388L422 387M451.333 387.667L451.667 388.333L451.333 387.667M627 387L628 388L627 387z"/>
<path style="fill:#9bb69c; stroke:none;" d="M194 388L195 389L194 388M518 388L519 389L518 388z"/>
<path style="fill:#1d6a26; stroke:none;" d="M193 389L194 390L193 389M268 389L269 390L268 389z"/>
<path style="fill:#9bb69c; stroke:none;" d="M301 389L302 390L301 389M423 389L424 390L423 389M451.333 389.667L451.667 390.333L451.333 389.667z"/>
<path style="fill:#1d6a26; stroke:none;" d="M561 389L562 390L561 389M345 390L346 391L345 390z"/>
<path style="fill:#9bb69c; stroke:none;" d="M477 390L477 393L478 393L477 390M517 390L518 391L517 390M561.333 390.667L561.667 391.333L561.333 390.667M192 391L193 392L192 391M300 391L301 392L300 391M345 391L346 392L345 391z"/>
<path style="fill:#1d6a26; stroke:none;" d="M383 391L384 392L383 391z"/>
<path style="fill:#9bb69c; stroke:none;" d="M424 391L425 392L424 391z"/>
<path style="fill:#1d6a26; stroke:none;" d="M599.333 391.667L599.667 392.333L599.333 391.667z"/>
<path style="fill:#9bb69c; stroke:none;" d="M626 391L626 394L627 394L626 391z"/>
<path style="fill:#1d6a26; stroke:none;" d="M191 392L192 393L191 392z"/>
<path style="fill:#9bb69c; stroke:none;" d="M383 392L383 395L384 395L383 392z"/>
<path style="fill:#1d6a26; stroke:none;" d="M425 392L426 393L425 392z"/>
<path style="fill:#9bb69c; stroke:none;" d="M516 392L517 393L516 392M234 393L234 394L237 394L234 393z"/>
<path style="fill:#1d6a26; stroke:none;" d="M237 393L237 394L243 394L237 393z"/>
<path style="fill:#9bb69c; stroke:none;" d="M243 393L243 394L246 394L243 393M267 393L268 394L267 393M299 393L300 394L299 393z"/>
<path style="fill:#1d6a26; stroke:none;" d="M477 393L478 394L477 393z"/>
<path style="fill:#9bb69c; stroke:none;" d="M599.333 393.667L599.667 394.333L599.333 393.667M190 394L191 395L190 394M230.667 394.333L231.333 394.667L230.667 394.333M249.667 394.333L250.333 394.667L249.667 394.333z"/>
<path style="fill:#1d6a26; stroke:none;" d="M267 394L268 395L267 394M426 394L427 395L426 394M450.333 394.667L450.667 395.333L450.333 394.667z"/>
<path style="fill:#9bb69c; stroke:none;" d="M515 394L516 395L515 394z"/>
<path style="fill:#1d6a26; stroke:none;" d="M562 394L563 395L562 394M626 394L627 395L626 394M228 395L229 396L228 395z"/>
<path style="fill:#9bb69c; stroke:none;" d="M253 395L254 396L253 395M298 395L299 396L298 395M346.333 395.667L346.667 396.333L346.333 395.667M562.333 395.667L562.667 396.333L562.333 395.667M189 396L190 397L189 396M225 396L226 397L225 396z"/>
<path style="fill:#1d6a26; stroke:none;" d="M255 396L256 397L255 396z"/>
<path style="fill:#9bb69c; stroke:none;" d="M256 396L257 397L256 396M427 396L428 397L427 396M450.333 396.667L450.667 397.333L450.333 396.667M514 396L515 397L514 396M223 397L224 398L223 397M258 397L259 398L258 397M297 397L298 398L297 397M476 397L476 400L477 400L476 397M188 398L189 399L188 398z"/>
<path style="fill:#1d6a26; stroke:none;" d="M222 398L223 399L222 398z"/>
<path style="fill:#9bb69c; stroke:none;" d="M260 398L261 399L260 398M266.333 398.667L266.667 399.333L266.333 398.667z"/>
<path style="fill:#1d6a26; stroke:none;" d="M382 398L383 399L382 398z"/>
<path style="fill:#9bb69c; stroke:none;" d="M428 398L429 399L428 398M513 398L514 399L513 398z"/>
<path style="fill:#1d6a26; stroke:none;" d="M598.333 398.667L598.667 399.333L598.333 398.667z"/>
<path style="fill:#9bb69c; stroke:none;" d="M296 399L297 400L296 399z"/>
<path style="fill:#1d6a26; stroke:none;" d="M347 399L348 400L347 399z"/>
<path style="fill:#9bb69c; stroke:none;" d="M382 399L382 402L383 402L382 399z"/>
<path style="fill:#1d6a26; stroke:none;" d="M429 399L430 400L429 399M563 399L564 400L563 399z"/>
<path style="fill:#9bb69c; stroke:none;" d="M625.333 399.667L625.667 400.333L625.333 399.667z"/>
<path style="fill:#1d6a26; stroke:none;" d="M187 400L188 401L187 400z"/>
<path style="fill:#9bb69c; stroke:none;" d="M219 400L220 401L219 400M263 400L264 401L263 400z"/>
<path style="fill:#1d6a26; stroke:none;" d="M266 400L267 401L266 400z"/>
<path style="fill:#9bb69c; stroke:none;" d="M347.333 400.667L347.667 401.333L347.333 400.667z"/>
<path style="fill:#1d6a26; stroke:none;" d="M476 400L477 401L476 400z"/>
<path style="fill:#9bb69c; stroke:none;" d="M512 400L513 401L512 400M563.333 400.667L563.667 401.333L563.333 400.667M598.333 400.667L598.667 401.333L598.333 400.667M218 401L219 402L218 401M265 401L266 402L265 401M295 401L296 402L295 401z"/>
<path style="fill:#242328; stroke:none;" d="M321 401L309 431L328 431L321 401z"/>
<path style="fill:#1d6a26; stroke:none;" d="M430 401L431 402L430 401M449.333 401.667L449.667 402.333L449.333 401.667M537 401L539 403L537 401z"/>
<path style="fill:#9bb69c; stroke:none;" d="M538 401L539 402L538 401z"/>
<path style="fill:#1d6a26; stroke:none;" d="M625 401L626 402L625 401z"/>
<path style="fill:#9bb69c; stroke:none;" d="M217 402L218 403L217 402M320 402L321 403L320 402M511 402L512 403L511 402z"/>
<path style="fill:#242328; stroke:none;" d="M537 402L525 431L544 431C543.653 422.927 542.162 408.305 537 402z"/>
<path style="fill:#9bb69c; stroke:none;" d="M186 403L187 404L186 403M294 403L295 404L294 403M322 403L323 404L322 403M431 403L432 404L431 403M449.333 403.667L449.667 404.333L449.333 403.667M536 403L537 404L536 403z"/>
<path style="fill:#1d6a26; stroke:none;" d="M650 403L650 404L685 404L650 403z"/>
<path style="fill:#9bb69c; stroke:none;" d="M685 403L686 404L685 403M714 403L714 404L749 404L714 403z"/>
<path style="fill:#1d6a26; stroke:none;" d="M322 404L323 405L322 404M348 404L349 405L348 404z"/>
<path style="fill:#9bb69c; stroke:none;" d="M475 404L475 407L476 407L475 404M510 404L511 405L510 404z"/>
<path style="fill:#1d6a26; stroke:none;" d="M564 404L565 405L564 404M749 404L749 431L750 431L749 404M215 405L216 406L215 405z"/>
<path style="fill:#9bb69c; stroke:none;" d="M293 405L294 406L293 405z"/>
<path style="fill:#1d6a26; stroke:none;" d="M319 405L320 406L319 405z"/>
<path style="fill:#9bb69c; stroke:none;" d="M348.333 405.667L348.667 406.333L348.333 405.667z"/>
<path style="fill:#1d6a26; stroke:none;" d="M381.333 405.667L381.667 406.333L381.333 405.667z"/>
<path style="fill:#9bb69c; stroke:none;" d="M432 405L433 406L432 405M535 405L536 406L535 405M539.333 405.667L539.667 406.333L539.333 405.667M564.333 405.667L564.667 406.333L564.333 405.667z"/>
<path style="fill:#1d6a26; stroke:none;" d="M597.333 405.667L597.667 406.333L597.333 405.667z"/>
<path style="fill:#9bb69c; stroke:none;" d="M185 406L186 407L185 406M214 406L215 407L214 406M509 406L510 407L509 406M624.333 406.667L624.667 407.333L624.333 406.667M292 407L293 408L292 407M318 407L319 408L318 407M323.333 407.667L323.667 408.333L323.333 407.667M381.333 407.667L381.667 408.333L381.333 407.667z"/>
<path style="fill:#1d6a26; stroke:none;" d="M475 407L476 408L475 407z"/>
<path style="fill:#9bb69c; stroke:none;" d="M534 407L535 408L534 407M597.333 407.667L597.667 408.333L597.333 407.667M213 408L214 409L213 408z"/>
<path style="fill:#1d6a26; stroke:none;" d="M434 408L435 409L434 408M448.333 408.667L448.667 409.333L448.333 408.667z"/>
<path style="fill:#9bb69c; stroke:none;" d="M508 408L509 409L508 408z"/>
<path style="fill:#1d6a26; stroke:none;" d="M534 408L535 409L534 408M624.333 408.667L624.667 409.333L624.333 408.667M184 409L185 410L184 409M213 409L214 410L213 409z"/>
<path style="fill:#9bb69c; stroke:none;" d="M291 409L292 410L291 409M317 409L318 410L317 409z"/>
<path style="fill:#1d6a26; stroke:none;" d="M323 409L324 410L323 409M349 409L350 410L349 409M565 409L566 410L565 409z"/>
<path style="fill:#9bb69c; stroke:none;" d="M184.333 410.667L184.667 411.333L184.333 410.667M349 410L350 411L349 410M435 410L436 411L435 410M448.333 410.667L448.667 411.333L448.333 410.667M507 410L508 411L507 410z"/>
<path style="fill:#1d6a26; stroke:none;" d="M533 410L534 411L533 410z"/>
<path style="fill:#9bb69c; stroke:none;" d="M540 410L541 411L540 410M565 410L566 411L565 410M212 411L213 412L212 411M290 411L291 412L290 411M316 411L317 412L316 411M406.333 411.667L406.667 412.333L406.333 411.667M408 411L409 412L408 411M474 411L474 414L475 414L474 411z"/>
<path style="fill:#1d6a26; stroke:none;" d="M540 411L541 412L540 411M316 412L317 413L316 412z"/>
<path style="fill:#9bb69c; stroke:none;" d="M324 412L325 413L324 412z"/>
<path style="fill:#1d6a26; stroke:none;" d="M380.333 412.667L380.667 413.333L380.333 412.667z"/>
<path style="fill:#9bb69c; stroke:none;" d="M436 412L437 413L436 412M506 412L507 413L506 412M532 412L533 413L532 412z"/>
<path style="fill:#1d6a26; stroke:none;" d="M596.333 412.667L596.667 413.333L596.333 412.667z"/>
<path style="fill:#9bb69c; stroke:none;" d="M289 413L290 414L289 413z"/>
<path style="fill:#1d6a26; stroke:none;" d="M324 413L325 414L324 413M350 413L351 414L350 413M406.333 413.667L406.667 414.333L406.333 413.667z"/>
<path style="fill:#9bb69c; stroke:none;" d="M409 413L410 414L409 413M623 413L623 416L624 416L623 413z"/>
<path style="fill:#1d6a26; stroke:none;" d="M183.333 414.667L183.667 415.333L183.333 414.667z"/>
<path style="fill:#9bb69c; stroke:none;" d="M211.333 414.667L211.667 415.333L211.333 414.667z"/>
<path style="fill:#1d6a26; stroke:none;" d="M315 414L316 415L315 414z"/>
<path style="fill:#9bb69c; stroke:none;" d="M350.333 414.667L350.667 415.333L350.333 414.667M380.333 414.667L380.667 415.333L380.333 414.667z"/>
<path style="fill:#1d6a26; stroke:none;" d="M474 414L475 415L474 414z"/>
<path style="fill:#9bb69c; stroke:none;" d="M505 414L506 415L505 414M531 414L532 415L531 414M541.333 414.667L541.667 415.333L541.333 414.667z"/>
<path style="fill:#1d6a26; stroke:none;" d="M566 414L567 415L566 414z"/>
<path style="fill:#9bb69c; stroke:none;" d="M596.333 414.667L596.667 415.333L596.333 414.667z"/>
<path style="fill:#1d6a26; stroke:none;" d="M288 415L289 416L288 415M410 415L411 416L410 415M438 415L439 416L438 415M447 415L448 416L447 415z"/>
<path style="fill:#9bb69c; stroke:none;" d="M566 415L567 416L566 415M183 416L183 421L184 421L183 416z"/>
<path style="fill:#1d6a26; stroke:none;" d="M211 416L212 417L211 416z"/>
<path style="fill:#9bb69c; stroke:none;" d="M314 416L315 417L314 416M325.333 416.667L325.667 417.333L325.333 416.667M447 416L447 419L448 419L447 416M504 416L505 417L504 416M530 416L531 417L530 416z"/>
<path style="fill:#1d6a26; stroke:none;" d="M541 416L542 417L541 416M623 416L624 417L623 416M287 417L288 418L287 417M411 417L412 418L411 417z"/>
<path style="fill:#9bb69c; stroke:none;" d="M439 417L440 418L439 417z"/>
<path style="fill:#1d6a26; stroke:none;" d="M530 417L531 418L530 417z"/>
<path style="fill:#9bb69c; stroke:none;" d="M313 418L314 419L313 418z"/>
<path style="fill:#1d6a26; stroke:none;" d="M325 418L326 419L325 418M351 418L352 419L351 418z"/>
<path style="fill:#9bb69c; stroke:none;" d="M405 418L405 421L406 421L405 418M412 418L413 419L412 418M473 418L473 421L474 421L473 418M503 418L504 419L503 418z"/>
<path style="fill:#1d6a26; stroke:none;" d="M567 418L568 419L567 418M286 419L287 420L286 419z"/>
<path style="fill:#9bb69c; stroke:none;" d="M351.333 419.667L351.667 420.333L351.333 419.667M440 419L441 420L440 419z"/>
<path style="fill:#1d6a26; stroke:none;" d="M529 419L530 420L529 419z"/>
<path style="fill:#9bb69c; stroke:none;" d="M542 419L543 420L542 419M567.333 419.667L567.667 420.333L567.333 419.667z"/>
<path style="fill:#1d6a26; stroke:none;" d="M595.333 419.667L595.667 420.333L595.333 419.667z"/>
<path style="fill:#9bb69c; stroke:none;" d="M312 420L313 421L312 420z"/>
<path style="fill:#1d6a26; stroke:none;" d="M379 420L380 421L379 420z"/>
<path style="fill:#9bb69c; stroke:none;" d="M413 420L414 421L413 420M502 420L503 421L502 420z"/>
<path style="fill:#1d6a26; stroke:none;" d="M542 420L543 421L542 420z"/>
<path style="fill:#9bb69c; stroke:none;" d="M622 420L622 423L623 423L622 420M210.333 421.667L210.667 422.333L210.333 421.667z"/>
<path style="fill:#1d6a26; stroke:none;" d="M285 421L286 422L285 421M312 421L313 422L312 421z"/>
<path style="fill:#9bb69c; stroke:none;" d="M326 421L327 422L326 421M379 421L379 424L380 424L379 421z"/>
<path style="fill:#1d6a26; stroke:none;" d="M405 421L406 422L405 421z"/>
<path style="fill:#9bb69c; stroke:none;" d="M441 421L442 422L441 421z"/>
<path style="fill:#1d6a26; stroke:none;" d="M473 421L474 422L473 421z"/>
<path style="fill:#9bb69c; stroke:none;" d="M528 421L529 422L528 421M595.333 421.667L595.667 422.333L595.333 421.667z"/>
<path style="fill:#1d6a26; stroke:none;" d="M326 422L327 423L326 422z"/>
<path style="fill:#9bb69c; stroke:none;" d="M414 422L415 423L414 422z"/>
<path style="fill:#1d6a26; stroke:none;" d="M442 422L443 423L442 422M446 422L447 423L446 422z"/>
<path style="fill:#9bb69c; stroke:none;" d="M501 422L502 423L501 422z"/>
<path style="fill:#1d6a26; stroke:none;" d="M284 423L285 424L284 423z"/>
<path style="fill:#9bb69c; stroke:none;" d="M311 423L312 424L311 423z"/>
<path style="fill:#1d6a26; stroke:none;" d="M352 423L353 424L352 423z"/>
<path style="fill:#9bb69c; stroke:none;" d="M446 423L446 426L447 426L446 423M527 423L528 424L527 423M543.333 423.667L543.667 424.333L543.333 423.667z"/>
<path style="fill:#1d6a26; stroke:none;" d="M568 423L569 424L568 423M622 423L623 424L622 423z"/>
<path style="fill:#9bb69c; stroke:none;" d="M352 424L353 425L352 424z"/>
<path style="fill:#1d6a26; stroke:none;" d="M415 424L416 425L415 424z"/>
<path style="fill:#9bb69c; stroke:none;" d="M443 424L444 425L443 424M500 424L501 425L500 424M568.333 424.667L568.667 425.333L568.333 424.667M183 425L183 429L184 429L183 425z"/>
<path style="fill:#1d6a26; stroke:none;" d="M283 425L284 426L283 425z"/>
<path style="fill:#9bb69c; stroke:none;" d="M310 425L311 426L310 425M327.333 425.667L327.667 426.333L327.333 425.667M404 425L404 428L405 428L404 425M416 425L417 426L416 425M472 425L472 428L473 428L472 425M526 425L527 426L526 425z"/>
<path style="fill:#1d6a26; stroke:none;" d="M543 425L544 426L543 425z"/>
<path style="fill:#9bb69c; stroke:none;" d="M444 426L445 427L444 426M499 426L500 427L499 426z"/>
<path style="fill:#1d6a26; stroke:none;" d="M526 426L527 427L526 426M594 426L595 427L594 426M282 427L283 428L282 427z"/>
<path style="fill:#9bb69c; stroke:none;" d="M309 427L310 428L309 427z"/>
<path style="fill:#1d6a26; stroke:none;" d="M353 427L354 428L353 427M378 427L379 428L378 427z"/>
<path style="fill:#9bb69c; stroke:none;" d="M417 427L418 428L417 427M594 427L594 430L595 430L594 427M621 427L621 430L622 430L621 427z"/>
<path style="fill:#1d6a26; stroke:none;" d="M211 428L212 429L211 428M309 428L310 429L309 428z"/>
<path style="fill:#9bb69c; stroke:none;" d="M353.333 428.667L353.667 429.333L353.333 428.667M378 428L378 431L379 431L378 428z"/>
<path style="fill:#1d6a26; stroke:none;" d="M404 428L405 429L404 428M472 428L473 429L472 428z"/>
<path style="fill:#9bb69c; stroke:none;" d="M498 428L499 429L498 428M525 428L526 429L525 428M544.333 428.667L544.667 429.333L544.333 428.667z"/>
<path style="fill:#1d6a26; stroke:none;" d="M569 428L570 429L569 428M183.333 429.667L183.667 430.333L183.333 429.667z"/>
<path style="fill:#9bb69c; stroke:none;" d="M211 429L212 430L211 429z"/>
<path style="fill:#1d6a26; stroke:none;" d="M281 429L282 430L281 429z"/>
<path style="fill:#9bb69c; stroke:none;" d="M418 429L419 430L418 429M569.333 429.667L569.667 430.333L569.333 429.667z"/>
<path style="fill:#1d6a26; stroke:none;" d="M308 430L309 431L308 430z"/>
<path style="fill:#9bb69c; stroke:none;" d="M328 430L309 431L309 432L328 430M497 430L498 431L497 430M524 430L524 432L526 432L524 430z"/>
<path style="fill:#1d6a26; stroke:none;" d="M544 430L545 431L544 430M621 430L622 431L621 430M212 431L213 432L212 431M280 431L281 432L280 431M419 431L420 432L419 431M526 431L526 432L534 432L526 431z"/>
<path style="fill:#9bb69c; stroke:none;" d="M534 431L534 432L545 432L534 431M650 431L650 432L686 432C676.44 427.989 660.387 431 650 431M714 431L714 432L749 432L714 431M212 432L213 433L212 432z"/>
<path style="fill:#1d6a26; stroke:none;" d="M354 432L355 433L354 432z"/>
<path style="fill:#9bb69c; stroke:none;" d="M403 432L403 435L404 435L403 432M471 432L471 435L472 435L471 432M496 432L497 433L496 432z"/>
<path style="fill:#1d6a26; stroke:none;" d="M279 433L280 434L279 433z"/>
<path style="fill:#9bb69c; stroke:none;" d="M354.333 433.667L354.667 434.333L354.333 433.667z"/>
<path style="fill:#1d6a26; stroke:none;" d="M420 433L421 434L420 433M570 433L571 434L570 433M593 433L594 434L593 433z"/>
<path style="fill:#9bb69c; stroke:none;" d="M184 434L185 435L184 434M213 434L214 435L213 434z"/>
<path style="fill:#1d6a26; stroke:none;" d="M377 434L378 435L377 434z"/>
<path style="fill:#9bb69c; stroke:none;" d="M421 434L422 435L421 434M495 434L496 435L495 434M570.333 434.667L570.667 435.333L570.333 434.667M593 434L593 437L594 437L593 434z"/>
<path style="fill:#1d6a26; stroke:none;" d="M184 435L185 436L184 435M278 435L279 436L278 435z"/>
<path style="fill:#9bb69c; stroke:none;" d="M377 435L377 438L378 438L377 435z"/>
<path style="fill:#1d6a26; stroke:none;" d="M403 435L404 436L403 435M471 435L472 436L471 435z"/>
<path style="fill:#9bb69c; stroke:none;" d="M620.333 435.667L620.667 436.333L620.333 435.667M214 436L215 437L214 436M422 436L423 437L422 436M494 436L495 437L494 436z"/>
<path style="fill:#1d6a26; stroke:none;" d="M215 437L216 438L215 437M277 437L278 438L277 437M355 437L356 438L355 437M620.333 437.667L620.667 438.333L620.333 437.667z"/>
<path style="fill:#9bb69c; stroke:none;" d="M185 438L186 439L185 438M355 438L356 439L355 438M423 438L424 439L423 438M493 438L494 439L493 438z"/>
<path style="fill:#1d6a26; stroke:none;" d="M571 438L572 439L571 438M185 439L186 440L185 439z"/>
<path style="fill:#9bb69c; stroke:none;" d="M216 439L217 440L216 439z"/>
<path style="fill:#1d6a26; stroke:none;" d="M276 439L277 440L276 439z"/>
<path style="fill:#9bb69c; stroke:none;" d="M402 439L402 442L403 442L402 439M470 439L470 442L471 442L470 439M571 439L572 440L571 439M217 440L218 441L217 440z"/>
<path style="fill:#1d6a26; stroke:none;" d="M424 440L425 441L424 440z"/>
<path style="fill:#9bb69c; stroke:none;" d="M492 440L493 441L492 440z"/>
<path style="fill:#1d6a26; stroke:none;" d="M592 440L593 441L592 440z"/>
<path style="fill:#9bb69c; stroke:none;" d="M186 441L187 442L186 441M218 441L219 442L218 441z"/>
<path style="fill:#1d6a26; stroke:none;" d="M275 441L276 442L275 441M376 441L377 442L376 441z"/>
<path style="fill:#9bb69c; stroke:none;" d="M425 441L426 442L425 441M592 441L592 444L593 444L592 441z"/>
<path style="fill:#1d6a26; stroke:none;" d="M186 442L187 443L186 442z"/>
<path style="fill:#9bb69c; stroke:none;" d="M356.333 442.667L356.667 443.333L356.333 442.667M376 442L376 445L377 445L376 442z"/>
<path style="fill:#1d6a26; stroke:none;" d="M402 442L403 443L402 442M470 442L471 443L470 442z"/>
<path style="fill:#9bb69c; stroke:none;" d="M491 442L492 443L491 442M619.333 442.667L619.667 443.333L619.333 442.667z"/>
<path style="fill:#1d6a26; stroke:none;" d="M221 443L222 444L221 443z"/>
<path style="fill:#9bb69c; stroke:none;" d="M257 443L258 446L259 446L259 443L257 443z"/>
<path style="fill:#1d6a26; stroke:none;" d="M274 443L275 444L274 443z"/>
<path style="fill:#9bb69c; stroke:none;" d="M426 443L427 444L426 443M572.333 443.667L572.667 444.333L572.333 443.667M187 444L188 445L187 444M222 444L223 445L222 444z"/>
<path style="fill:#1d6a26; stroke:none;" d="M254 444L255 445L254 444z"/>
<path style="fill:#9bb69c; stroke:none;" d="M255 444L256 445L255 444M490 444L491 445L490 444z"/>
<path style="fill:#1d6a26; stroke:none;" d="M619.333 444.667L619.667 445.333L619.333 444.667z"/>
<path style="fill:#9bb69c; stroke:none;" d="M224 445L225 446L224 445z"/>
<path style="fill:#1d6a26; stroke:none;" d="M225 445L226 446L225 445z"/>
<path style="fill:#9bb69c; stroke:none;" d="M252 445L253 446L252 445z"/>
<path style="fill:#1d6a26; stroke:none;" d="M273 445L274 446L273 445z"/>
<path style="fill:#9bb69c; stroke:none;" d="M427 445L428 446L427 445M188 446L189 447L188 446M227 446L228 447L227 446z"/>
<path style="fill:#1d6a26; stroke:none;" d="M248 446L249 447L248 446z"/>
<path style="fill:#9bb69c; stroke:none;" d="M249 446L250 447L249 446z"/>
<path style="fill:#1d6a26; stroke:none;" d="M258 446L259 447L258 446M357 446L358 447L357 446z"/>
<path style="fill:#9bb69c; stroke:none;" d="M401 446L401 449L402 449L401 446M469 446L469 449L470 449L469 446M489 446L490 447L489 446M230.667 447.333L231.333 447.667L230.667 447.333z"/>
<path style="fill:#1d6a26; stroke:none;" d="M232 447L233 448L232 447M243 447L244 448L243 447z"/>
<path style="fill:#9bb69c; stroke:none;" d="M244.667 447.333L245.333 447.667L244.667 447.333z"/>
<path style="fill:#1d6a26; stroke:none;" d="M272 447L273 448L272 447z"/>
<path style="fill:#9bb69c; stroke:none;" d="M357.333 447.667L357.667 448.333L357.333 447.667z"/>
<path style="fill:#1d6a26; stroke:none;" d="M428 447L429 448L428 447M573 447L574 448L573 447M591 447L592 448L591 447z"/>
<path style="fill:#9bb69c; stroke:none;" d="M619 447L619 448L648 448L619 447M189 448L190 449L189 448M272 448L273 449L272 448z"/>
<path style="fill:#1d6a26; stroke:none;" d="M375.333 448.667L375.667 449.333L375.333 448.667z"/>
<path style="fill:#9bb69c; stroke:none;" d="M488 448L489 449L488 448M573.333 448.667L573.667 449.333L573.333 448.667M591 448L591 451L592 451L591 448M257.333 449.667L257.667 450.333L257.333 449.667z"/>
<path style="fill:#1d6a26; stroke:none;" d="M271 449L272 450L271 449M401 449L402 450L401 449M429 449L430 450L429 449M469 449L470 450L469 449z"/>
<path style="fill:#9bb69c; stroke:none;" d="M190 450L191 451L190 450M271 450L272 451L271 450M375.333 450.667L375.667 451.333L375.333 450.667M430 450L431 451L430 450M487 450L488 451L487 450M191 451L192 452L191 451z"/>
<path style="fill:#1d6a26; stroke:none;" d="M257.333 451.667L257.667 452.333L257.333 451.667M270 451L271 452L270 451M358 451L359 452L358 451z"/>
<path style="fill:#9bb69c; stroke:none;" d="M270 452L271 453L270 452z"/>
<path style="fill:#1d6a26; stroke:none;" d="M299 452L300 453L299 452z"/>
<path style="fill:#9bb69c; stroke:none;" d="M358.333 452.667L358.667 453.333L358.333 452.667M431 452L432 453L431 452M486 452L487 453L486 452z"/>
<path style="fill:#1d6a26; stroke:none;" d="M548 452L549 453L548 452M574 452L575 453L574 452z"/>
<path style="fill:#9bb69c; stroke:none;" d="M647.333 452.667L647.667 453.333L647.333 452.667z"/>
<path style="fill:#1d6a26; stroke:none;" d="M192 453L193 454L192 453M269 453L270 454L269 453M298 453L299 454L298 453z"/>
<path style="fill:#9bb69c; stroke:none;" d="M333 453L334 454L333 453M400 453L400 456L401 456L400 453M468 453L468 456L469 456L468 453z"/>
<path style="fill:#1d6a26; stroke:none;" d="M514 453L515 454L514 453z"/>
<path style="fill:#9bb69c; stroke:none;" d="M574.333 453.667L574.667 454.333L574.333 453.667M193 454L194 455L193 454M269 454L270 455L269 454M297 454L298 455L297 454z"/>
<path style="fill:#1d6a26; stroke:none;" d="M333 454L334 455L333 454z"/>
<path style="fill:#9bb69c; stroke:none;" d="M432 454L433 455L432 454M485 454L486 455L485 454M549.333 454.667L549.667 455.333L549.333 454.667z"/>
<path style="fill:#1d6a26; stroke:none;" d="M590 454L591 455L590 454M647.333 454.667L647.667 455.333L647.333 454.667z"/>
<path style="fill:#9bb69c; stroke:none;" d="M194 455L195 456L194 455M256.333 455.667L256.667 456.333L256.333 455.667z"/>
<path style="fill:#1d6a26; stroke:none;" d="M268 455L269 456L268 455M297 455L298 456L297 455M374.333 455.667L374.667 456.333L374.333 455.667M513 455L514 456L513 455z"/>
<path style="fill:#9bb69c; stroke:none;" d="M590 455L590 458L591 458L590 455M268 456L269 457L268 456M334.333 456.667L334.667 457.333L334.333 456.667z"/>
<path style="fill:#1d6a26; stroke:none;" d="M359 456L360 457L359 456M400 456L401 457L400 456M433 456L434 457L433 456M468 456L469 457L468 456z"/>
<path style="fill:#9bb69c; stroke:none;" d="M484 456L485 457L484 456z"/>
<path style="fill:#1d6a26; stroke:none;" d="M256 457L257 458L256 457M267 457L268 458L267 457M296 457L297 458L296 457z"/>
<path style="fill:#9bb69c; stroke:none;" d="M359 457L360 458L359 457M374.333 457.667L374.667 458.333L374.333 457.667M434 457L435 458L434 457z"/>
<path style="fill:#1d6a26; stroke:none;" d="M512 457L513 458L512 457M575 457L576 458L575 457z"/>
<path style="fill:#9bb69c; stroke:none;" d="M267 458L268 459L267 458z"/>
<path style="fill:#1d6a26; stroke:none;" d="M334 458L335 459L334 458z"/>
<path style="fill:#9bb69c; stroke:none;" d="M483 458L484 459L483 458M575.333 458.667L575.667 459.333L575.333 458.667z"/>
<path style="fill:#1d6a26; stroke:none;" d="M266 459L267 460L266 459z"/>
<path style="fill:#9bb69c; stroke:none;" d="M295 459L296 460L295 459M435 459L436 460L435 459M511 459L512 460L511 459M550 459L551 460L550 459M646 459L646 462L647 462L646 459M199 460L200 461L199 460M266 460L267 461L266 460z"/>
<path style="fill:#1d6a26; stroke:none;" d="M360 460L361 461L360 460z"/>
<path style="fill:#9bb69c; stroke:none;" d="M399 460L399 463L400 463L399 460M482 460L483 461L482 460z"/>
<path style="fill:#1d6a26; stroke:none;" d="M550 460L551 461L550 460z"/>
<path style="fill:#9bb69c; stroke:none;" d="M200 461L201 462L200 461M255.333 461.667L255.667 462.333L255.333 461.667z"/>
<path style="fill:#1d6a26; stroke:none;" d="M265 461L266 462L265 461z"/>
<path style="fill:#9bb69c; stroke:none;" d="M294 461L295 462L294 461M335 461L336 462L335 461M360.333 461.667L360.667 462.333L360.333 461.667M436 461L437 462L436 461M467.333 461.667L467.667 462.333L467.333 461.667M510 461L511 462L510 461z"/>
<path style="fill:#1d6a26; stroke:none;" d="M589 461L590 462L589 461M201 462L202 463L201 462z"/>
<path style="fill:#9bb69c; stroke:none;" d="M265 462L266 463L265 462z"/>
<path style="fill:#1d6a26; stroke:none;" d="M335 462L336 463L335 462z"/>
<path style="fill:#9bb69c; stroke:none;" d="M481 462L482 463L481 462z"/>
<path style="fill:#1d6a26; stroke:none;" d="M576 462L577 463L576 462z"/>
<path style="fill:#9bb69c; stroke:none;" d="M589 462L589 465L590 465L589 462z"/>
<path style="fill:#1d6a26; stroke:none;" d="M646 462L647 463L646 462z"/>
<path style="fill:#9bb69c; stroke:none;" d="M203 463L204 464L203 463z"/>
<path style="fill:#1d6a26; stroke:none;" d="M255 463L256 464L255 463M264 463L265 464L264 463z"/>
<path style="fill:#9bb69c; stroke:none;" d="M293 463L294 464L293 463z"/>
<path style="fill:#1d6a26; stroke:none;" d="M373 463L374 464L373 463M399 463L400 464L399 463M437 463L438 464L437 463M467 463L468 464L467 463z"/>
<path style="fill:#9bb69c; stroke:none;" d="M509 463L510 464L509 463M551.333 463.667L551.667 464.333L551.333 463.667M576.333 463.667L576.667 464.333L576.333 463.667z"/>
<path style="fill:#1d6a26; stroke:none;" d="M204 464L205 465L204 464z"/>
<path style="fill:#9bb69c; stroke:none;" d="M264 464L265 465L264 464M373.333 464.667L373.667 465.333L373.333 464.667M438 464L439 465L438 464M480 464L481 465L480 464M206 465L207 466L206 465z"/>
<path style="fill:#1d6a26; stroke:none;" d="M263 465L264 466L263 465z"/>
<path style="fill:#9bb69c; stroke:none;" d="M292 465L293 466L292 465M336 465L337 466L336 465z"/>
<path style="fill:#1d6a26; stroke:none;" d="M361 465L362 466L361 465M438 465L439 466L438 465z"/>
<path style="fill:#9bb69c; stroke:none;" d="M508 465L509 466L508 465z"/>
<path style="fill:#1d6a26; stroke:none;" d="M551 465L552 466L551 465z"/>
<path style="fill:#9bb69c; stroke:none;" d="M208 466L209 467L208 466M254 466L255 467L254 466M263 466L264 467L263 466z"/>
<path style="fill:#1d6a26; stroke:none;" d="M336 466L337 467L336 466z"/>
<path style="fill:#9bb69c; stroke:none;" d="M361 466L361 469L362 469L361 466M439 466L440 467L439 466M479 466L480 467L479 466M210 467L211 468L210 467z"/>
<path style="fill:#1d6a26; stroke:none;" d="M254 467L255 468L254 467z"/>
<path style="fill:#9bb69c; stroke:none;" d="M291 467L292 468L291 467M398.333 467.667L398.667 468.333L398.333 467.667M507 467L508 468L507 467z"/>
<path style="fill:#1d6a26; stroke:none;" d="M577 467L578 468L577 467z"/>
<path style="fill:#9bb69c; stroke:none;" d="M645.333 467.667L645.667 468.333L645.333 467.667z"/>
<path style="fill:#1d6a26; stroke:none;" d="M212 468L213 469L212 468z"/>
<path style="fill:#9bb69c; stroke:none;" d="M213 468L214 469L213 468M251 468L252 469L251 468z"/>
<path style="fill:#1d6a26; stroke:none;" d="M252 468L253 469L252 468z"/>
<path style="fill:#9bb69c; stroke:none;" d="M262 468L263 469L262 468M373 468L374 469L373 468M440 468L441 469L440 468M466 468L467 469L466 468M478 468L479 469L478 468M552 468L553 469L552 468M577 468L578 469L577 468z"/>
<path style="fill:#1d6a26; stroke:none;" d="M215 469L216 470L215 469z"/>
<path style="fill:#9bb69c; stroke:none;" d="M216 469L217 470L216 469M248 469L249 470L248 469z"/>
<path style="fill:#1d6a26; stroke:none;" d="M249 469L250 470L249 469M553 469L553 470L577 470L553 469z"/>
<path style="fill:#9bb69c; stroke:none;" d="M219.667 470.333L220.333 470.667L219.667 470.333M244.667 470.333L245.333 470.667L244.667 470.333z"/>
<path style="fill:#1d6a26; stroke:none;" d="M246 470L247 471L246 470M224 471L225 472L224 471z"/>
<path style="fill:#9bb69c; stroke:none;" d="M225 471L225 472L228 472L225 471M236 471L236 472L240 472L236 471z"/>
<path style="fill:#1d6a26; stroke:none;" d="M240 471L241 472L240 471M776 483L775 502L838 502L838 633C843.37 632.889 862.645 633.638 865.971 629.397C868.172 626.59 866.194 621.207 866.039 618C865.538 607.712 864.766 597.216 863.424 587C858.703 551.062 854.1 512.233 854 476C828.953 476.207 800.622 478.429 776 483z"/>
<path style="fill:#0fa50d; stroke:none;" d="M361 502L361 657L838 657L838 502L361 502z"/>
<path style="fill:#1d6a26; stroke:none;" d="M333 521C333 572.458 341.952 624.71 346 676C416.702 674.54 487.274 658.008 558 658L558 657L361 657L361 519L333 521z"/>
<path style="fill:#9bb69c; stroke:none;" d="M601 524L601 525L610 525L601 524M435 525L435 526L444 526L435 525M594 525L594 526L597 526L594 525z"/>
<path style="fill:#fefefe; stroke:none;" d="M597 525.439C549.273 532.952 544.661 601.198 591 614.958C597.996 617.035 605.779 617.609 613 616.572C660.848 609.702 669.354 540.771 621 526.91C613.385 524.727 604.851 524.203 597 525.439z"/>
<path style="fill:#9bb69c; stroke:none;" d="M615.667 525.333L616.333 525.667L615.667 525.333M430.667 526.333L431.333 526.667L430.667 526.333z"/>
<path style="fill:#fefefe; stroke:none;" d="M416 589L408 607C431.927 621.499 477.357 617.443 468.471 579C464.348 561.164 445.974 566.154 436.319 555.66C431.915 550.873 436.587 545.09 442 544.243C447.84 543.33 452.73 547.335 458 549L466 532C455.278 527.864 443.651 524.028 432 526.518C415.539 530.035 406.358 549.627 412.955 564.996C418.824 578.668 434.612 574.577 443.605 583.532C449.292 589.195 443.756 596.215 437 596.887C428.652 597.718 423.118 591.993 416 589z"/>
<path style="fill:#9bb69c; stroke:none;" d="M448 526L448 527L451 527L448 526M590.667 526.333L591.333 526.667L590.667 526.333M619.667 526.333L620.333 526.667L619.667 526.333M427.667 527.333L428.333 527.667L427.667 527.333M453.667 527.333L454.333 527.667L453.667 527.333M485 527L485 528L524 528C513.726 523.689 496.172 527 485 527M588 527L589 528L588 527M623 527L624 528L623 527M673 527L673 528L706 528L673 527M761 547L761 546L743 546L743 528L802 528C790.782 523.293 771.206 527 759 527C754.845 527 748.122 525.732 744.318 527.603C740.672 529.397 740.565 543.566 743.603 545.972C747.161 548.79 756.637 547 761 547M425 528L426 529L425 528M456.667 528.333L457.333 528.667L456.667 528.333z"/>
<path style="fill:#fefefe; stroke:none;" d="M485 528L485 614L507 614L507 585C517.908 585 529.506 586.498 538.96 579.895C553.32 569.866 551.607 542.453 537.996 532.638C524.994 523.262 500.265 528 485 528z"/>
<path style="fill:#9bb69c; stroke:none;" d="M528.667 528.333L529.333 528.667L528.667 528.333M585 528L586 529L585 528M625 528L626 529L625 528z"/>
<path style="fill:#fefefe; stroke:none;" d="M673 528L663 614L683.258 612.972L685.576 604L688 580L703.2 604L710.329 613.397L734 614L714 580C731.787 572.592 740.635 543.583 720.985 531.955C708.017 524.281 687.5 528 673 528z"/>
<path style="fill:#9bb69c; stroke:none;" d="M711.667 528.333L712.333 528.667L711.667 528.333z"/>
<path style="fill:#fefefe; stroke:none;" d="M743 528L743 546L761 546L761 614L783 614L783 546L802 546L802 528L743 528z"/>
<path style="fill:#9bb69c; stroke:none;" d="M459 529L460 530L459 529M532 529L533 530L532 529M583 529L584 530L583 529M628 529L629 530L628 529M715 529L716 530L715 529M422 530L423 531L422 530M462 530L463 531L462 530M534 530L535 531L534 530M581 530L582 531L581 530M630 530L631 531L630 530M718 530L719 531L718 530M464 531L465 532L464 531M536 531L537 532L536 531M579 531L580 532L579 531M720 531L721 532L720 531M633 532L634 533L633 532M672 532L672 535L673 535L672 532M722 532L723 533L722 532M465 533L466 534L465 533M539 533L540 534L539 533M576 533L577 534L576 533M723 533L724 534L723 533M540 534L541 535L540 534M575 534L576 535L575 534M636 534L637 535L636 534M724 534L725 535L724 534M464 535L465 536L464 535M541 535L542 536L541 535M637 535L638 536L637 535M416 536L417 537L416 536M542 536L543 537L542 536M726 536L727 537L726 536M415 537L416 538L415 537M463 537L464 538L463 537M727 537L728 538L727 537M414 539L415 540L414 539M462 539L463 540L462 539M544 539L545 540L544 539M728 539L729 540L728 539M671 540L671 543L672 543L671 540M413 541L414 542L413 541M461 541L462 542L461 541M545 541L546 542L545 541M729 541L730 542L729 541M567 542L568 543L567 542M644 542L645 543L644 542M412.333 543.667L412.667 544.333L412.333 543.667M460 543L461 544L460 543M546 543L547 544L546 543M566 543L567 544L566 543M645 543L646 544L645 543M730.333 543.667L730.667 544.333L730.333 543.667M439.667 544.333L440.333 544.667L439.667 544.333M446.667 544.333L447.333 544.667L446.667 544.333M603 544L603 545L609 545L603 544M437 545L438 546L437 545M450 545L451 546L450 545M459 545L460 546L459 545M507 545L507 546L516 546L507 545M547.333 545.667L547.667 546.333L547.333 545.667M598.667 545.333L599.333 545.667L598.667 545.333z"/>
<path style="fill:#0fa50d; stroke:none;" d="M600 545.529C567.967 552.883 580.421 601.607 612 594.319C643.748 586.993 631.584 538.279 600 545.529z"/>
<path style="fill:#9bb69c; stroke:none;" d="M612.667 545.333L613.333 545.667L612.667 545.333M452 546L453 547L452 546z"/>
<path style="fill:#0fa50d; stroke:none;" d="M507 546L507 567C511.798 567 517.685 567.854 521.867 564.991C527.679 561.01 527.097 550.671 520.895 547.318C516.916 545.167 511.364 546 507 546z"/>
<path style="fill:#9bb69c; stroke:none;" d="M519 546L520 547L519 546M564 546L565 547L564 546M596 546L597 547L596 546M615 546L616 547L615 546M647 546L648 547L647 546z"/>
<path style="fill:#0fa50d; stroke:none;" d="M693 546L691 566C695.538 565.641 701.201 565.354 704.941 562.486C717.116 553.149 701.592 546.071 693 546z"/>
<path style="fill:#9bb69c; stroke:none;" d="M700 546L700 547L703 547L700 546M783 546L783 547L802 547L783 546M411.333 547.667L411.667 548.333L411.333 547.667M458 547L459 548L458 547M594 547L595 548L594 547M617 547L618 548L617 547M704 547L705 548L704 547M731 547L731 550L732 550L731 547M434 548L435 549L434 548M455 548L456 549L455 548M563 548L564 549L563 548M592 548L593 549L592 548M619 548L620 549L619 548M648 548L649 549L648 548M670 548L670 552L671 552L670 548M692 548L692 551L693 551L692 548M706 548L707 549L706 548M456.667 549.333L457.333 549.667L456.667 549.333M548 549L548 553L549 553L548 549M707 549L708 550L707 549M524 550L525 551L524 550M562 550L563 551L562 550M589 550L590 551L589 550M622 550L623 551L622 550M649 550L650 551L649 550M708 550L709 551L708 550M588 551L589 552L588 551M623 551L624 552L623 551M525 552L526 553L525 552M561 552L562 553L561 552M587 552L588 553L587 552M624 552L625 553L624 552M650 552L651 553L650 552M586 553L587 554L586 553M625 553L626 554L625 553M709 553L709 557L710 557L709 553M434 554L435 555L434 554M560.333 554.667L560.667 555.333L560.333 554.667M585 554L586 555L585 554M435 555L436 556L435 555M651 555L652 556L651 555M691 555L691 558L692 558L691 555M436 556L437 557L436 556M627 556L628 557L627 556M669 556L669 560L670 560L669 556M559.333 557.667L559.667 558.333L559.333 557.667M583 557L584 558L583 557M652.333 557.667L652.667 558.333L652.333 557.667M731 557L731 561L732 561L731 557M439.667 558.333L440.333 558.667L439.667 558.333M628 558L629 559L628 558M442.667 559.333L443.333 559.667L442.667 559.333M582 559L583 560L582 559M708 559L709 560L708 559M411.333 560.667L411.667 561.333L411.333 560.667M446 560L447 561L446 560M525 560L526 561L525 560M548 560L548 564L549 564L548 560M629 560L630 561L629 560M707 560L708 561L707 560M449 561L450 562L449 561M558 561L558 564L559 564L558 561M706 561L707 562L706 561M452 562L453 563L452 562M581 562L582 563L581 562M630.333 562.667L630.667 563.333L630.333 562.667M653.333 562.667L653.667 563.333L653.333 562.667M690 562L690 566L691 566L690 562M705 562L706 563L705 562M454 563L455 564L454 563M730.333 563.667L730.667 564.333L730.333 563.667M412 564L413 565L412 564M456 564L457 565L456 564M668 564L668 568L669 568L668 564M701 564L702 565L701 564M458 565L459 566L458 565M521 565L522 566L521 565M695 565L695 566L699 566L695 565M413 566L414 567L413 566M460 566L461 567L460 566M519 566L520 567L519 566M547.333 566.667L547.667 567.333L547.333 566.667M580 566L580 573L581 573L580 566M729 566L730 567L729 566M461 567L462 568L461 567M631 567L631 572L632 572L631 567M414 568L415 569L414 568M462 568L463 569L462 568M728 568L729 569L728 568M415 569L416 570L415 569M463 569L464 570L463 569M464 570L465 571L464 570M546 570L547 571L546 570M727 570L728 571L727 570M417 571L418 572L417 571M465 571L466 572L465 571M557 571L558 572L557 571M726 571L727 572L726 571M418 572L419 573L418 572M545 572L546 573L545 572M667 572L667 576L668 576L667 572M466 573L467 574L466 573M424 575L425 576L424 575M467 575L468 576L467 575M543 575L544 576L543 575M426 576L427 577L426 576M581.333 576.667L581.667 577.333L581.333 576.667M630 576L631 577L630 576M721 576L722 577L721 576M429 577L430 578L429 577M468.333 577.667L468.667 578.333L468.333 577.667M653 577L653 580L654 580L653 577M719 577L720 578L719 577M432 578L433 579L432 578M717 578L718 579L717 578M435.667 579.333L436.333 579.667L435.667 579.333M539 579L540 580L539 579M558.333 579.667L558.667 580.333L558.333 579.667M582 579L583 580L582 579M629 579L630 580L629 579M715 579L716 580L715 579M438.667 580.333L439.333 580.667L438.667 580.333M538 580L539 581L538 580M688 580L688 583L689 583L688 580M441 581L442 582L441 581M536 581L537 582L536 581M583 581L584 582L583 581M628 581L629 582L628 581M666 581L666 584L667 584L666 581M469 582L469 588L470 588L469 582M534 582L535 583L534 582M652.333 582.667L652.667 583.333L652.333 582.667M690 582L691 583L690 582M444 583L445 584L444 583M532 583L533 584L532 583M559.333 583.667L559.667 584.333L559.333 583.667M584 583L585 584L584 583M627 583L628 584L627 583M715 583L716 584L715 583M528.667 584.333L529.333 584.667L528.667 584.333M626 584L627 585L626 584M691 584L692 585L691 584M507 585L507 586L521 586L507 585M651 586L652 587L651 586M717 586L718 587L717 586M446 587L446 591L447 591L446 587M560 587L561 588L560 587M587 587L588 588L587 587M687 587L687 591L688 591L687 587M693 587L694 588L693 587M588 588L589 589L588 588M718 588L719 589L718 588M561 589L562 590L561 589M650 589L651 590L650 589M665 589L665 592L666 592L665 589M694 589L695 590L694 589M419 590L420 591L419 590M620 590L621 591L620 590M420 591L421 592L420 591M562 591L563 592L562 591M592 591L593 592L592 591M619 591L620 592L619 591M649 591L650 592L649 591M720 591L721 592L720 591M414 592L415 593L414 592M445 592L446 593L445 592M594 592L595 593L594 592M617 592L618 593L617 592M696 592L697 593L696 592M423 593L424 594L423 593M468.333 593.667L468.667 594.333L468.333 593.667M563 593L564 594L563 593M596 593L597 594L596 593M615 593L616 594L615 593M648 593L649 594L648 593M413 594L414 595L413 594M425 594L426 595L425 594M599.667 594.333L600.333 594.667L599.667 594.333M611.667 594.333L612.333 594.667L611.667 594.333M697 594L698 595L697 594M722 594L723 595L722 594M427 595L428 596L427 595M442 595L443 596L442 595M564 595L565 596L564 595M412 596L413 597L412 596M430.667 596.333L431.333 596.667L430.667 596.333M440 596L441 597L440 596M646 596L647 597L646 596M686 596L686 599L687 599L686 596M723 596L724 597L723 596M467.333 597.667L467.667 598.333L467.333 597.667M664 597L664 600L665 600L664 597M699 597L700 598L699 597M724 597L725 598L724 597M411 598L412 599L411 598M566 598L567 599L566 598M567 599L568 600L567 599M644 599L645 600L644 599M700 599L701 600L700 599M725 599L726 600L725 599M410 600L411 601L410 600M466 600L467 601L466 600M643 600L644 601L643 600M642 601L643 602L642 601M409 602L410 603L409 602M465 602L466 603L465 602M702 602L703 603L702 602M727 602L728 603L727 602M408 604L409 605L408 604M639 604L640 605L639 604M685 604L685 608L686 608L685 604M703 604L704 605L703 604M463 605L464 606L463 605M573 605L574 606L573 605M638 605L639 606L638 605M663 605L663 609L664 609L663 605M729 605L730 606L729 605M462 606L463 607L462 606M574 606L575 607L574 606M637 606L638 607L637 606M461 607L462 608L461 607M575 607L576 608L575 607M636 607L637 608L636 607M705 607L706 608L705 607M730 607L731 608L730 607M410 608L411 609L410 608M460 608L461 609L460 608M634 608L635 609L634 608M731 608L732 609L731 608M412 609L413 610L412 609M578 609L579 610L578 609M633 609L634 610L633 609M706 609L707 610L706 609M457 610L458 611L457 610M580 610L581 611L580 610M631 610L632 611L631 610M732 610L733 611L732 610M416 611L417 612L416 611M629 611L630 612L629 611M418 612L419 613L418 612M454 612L455 613L454 612M584 612L585 613L584 612M627 612L628 613L627 612M684.333 612.667L684.667 613.333L684.333 612.667M708 612L709 613L708 612M421 613L422 614L421 613M451 613L452 614L451 613M586 613L587 614L586 613M625 613L626 614L625 613M662 613L663 614L662 613M734 613L735 614L734 613M424 614L425 615L424 614M448.667 614.333L449.333 614.667L448.667 614.333M589 614L590 615L589 614M622.667 614.333L623.333 614.667L622.667 614.333M427 615L427 616L430 616L427 615M444.667 615.333L445.333 615.667L444.667 615.333M592 615L593 616L592 615M619 615L620 616L619 615M436.667 616.333L437.333 616.667L436.667 616.333M596 616L596 617L599 617L596 616M613 616L613 617L616 617L613 616z"/>
</svg>
