<?xml version="1.0" standalone="yes"?>
<svg xmlns="http://www.w3.org/2000/svg" width="1024" height="1024">
<path style="fill:#242328; stroke:none;" d="M0 0L0 1024L1024 1024L1024 0L0 0z"/>
<path style="fill:#1c6a25; stroke:none;" d="M231 369L231 370L240 370L231 369M223 370L224 371L223 370z"/>
<path style="fill:#a3bfa3; stroke:none;" d="M224 370L224 371L227 371L224 370z"/>
<path style="fill:#fefefe; stroke:none;" d="M256 443C246.298 444.433 238.021 448.916 228 445.779C206.409 439.021 203.943 410.037 222 397.85C236.199 388.268 250.239 395.101 264 401C264.728 395.359 269.288 384.478 266.802 379.213C263.213 371.613 245.217 370.09 238 370.004C209.256 369.662 186.031 387.43 183.17 417C181.504 434.209 188.169 452.395 203 461.91C213.498 468.644 240.879 475.951 251.411 465.297C255.568 461.092 255.757 448.666 256 443z"/>
<path style="fill:#a3bfa3; stroke:none;" d="M244 370L244 371L247 371L244 370z"/>
<path style="fill:#1c6a25; stroke:none;" d="M247 370L248 371L247 370M219 371L220 372L219 371z"/>
<path style="fill:#a3bfa3; stroke:none;" d="M220 371L221 372L220 371M250 371L251 372L250 371z"/>
<path style="fill:#1c6a25; stroke:none;" d="M251 371L252 372L251 371M675 371L676 372L675 371z"/>
<path style="fill:#a3bfa3; stroke:none;" d="M676 371L676 372L702 372L702 403C703.955 398.341 705.624 375.376 701.397 372.028C696.694 368.303 681.887 371 676 371z"/>
<path style="fill:#1c6a25; stroke:none;" d="M216 372L217 373L216 372z"/>
<path style="fill:#a3bfa3; stroke:none;" d="M217 372L218 373L217 372M254 372L255 373L254 372z"/>
<path style="fill:#1c6a25; stroke:none;" d="M255 372L256 373L255 372z"/>
<path style="fill:#fefefe; stroke:none;" d="M675 372L675 403L640 403L640 430L675 430L675 467L702 467L702 442C702 438.899 701.178 434.029 703.603 431.603C708.764 426.443 729.893 430 737 430L737 403L702 403L702 372L675 372z"/>
<path style="fill:#a3bfa3; stroke:none;" d="M214 373L215 374L214 373M257 373L258 374L257 373z"/>
<path style="fill:#1c6a25; stroke:none;" d="M258 373L259 374L258 373M306 373L307 374L306 373z"/>
<path style="fill:#a3bfa3; stroke:none;" d="M307 373L307 374L338 374L307 373M381 377L382 377L382 374L410 375C405.068 371.263 383.196 370.384 381 377M448 373L448 374L457 374L448 373z"/>
<path style="fill:#1c6a25; stroke:none;" d="M457 373L457 374L473 374L457 373z"/>
<path style="fill:#a3bfa3; stroke:none;" d="M519 373L519 374L549 374L519 373z"/>
<path style="fill:#1c6a25; stroke:none;" d="M549 373L550 374L549 373z"/>
<path style="fill:#a3bfa3; stroke:none;" d="M593 373L593 374L620 375C613.935 370.405 600.45 373 593 373z"/>
<path style="fill:#1c6a25; stroke:none;" d="M619 373L620 374L619 373M211 374L212 375L211 374z"/>
<path style="fill:#a3bfa3; stroke:none;" d="M212 374L213 375L212 374M260 374L261 375L260 374z"/>
<path style="fill:#fefefe; stroke:none;" d="M261 467C268.242 467 280.117 469.298 286.787 466.397C292.454 463.931 292.241 455.136 297.133 451.603C302.658 447.613 316.401 449.732 322.999 450.019C333.979 450.497 328.512 461.138 334.728 465.972C339.062 469.343 351.646 467 357 467C355.678 436.301 343.852 404.178 338 374C330.515 374 312.825 370.708 306.637 375.028C300.7 379.173 296.956 392.594 293.753 399C283.009 420.489 267.637 443.963 261 467M382 374C376.421 403.945 370.306 436.582 369 467L392.397 465.972L395.729 451L402 409L425.421 450L435.39 465.972L460 467C465.577 437.066 471.694 404.406 473 374L448 374L440 427L418.421 390L408.671 375.028L382 374z"/>
<path style="fill:#1c6a25; stroke:none;" d="M447 374L448 375L447 374z"/>
<path style="fill:#a3bfa3; stroke:none;" d="M473 374L474 375L473 374z"/>
<path style="fill:#fefefe; stroke:none;" d="M472 467C479.256 467 492.021 469.496 498.61 466.397C503.982 463.869 503.737 455.155 508.275 451.603C513.534 447.488 529.515 449.477 535.985 450.059C545.308 450.897 539.931 461.802 545.564 465.972C550.253 469.443 563.293 467 569 467C561.393 437.599 552.408 404.25 550 374C542.515 374 524.825 370.708 518.637 375.028C512.281 379.465 508.19 394.125 504.753 401C493.838 422.83 481.379 444.473 472 467M593 374L580 467L619 467L634.258 465.972L638 446L609 446C614.356 423.76 618.528 396.865 619 374L593 374z"/>
<path style="fill:#1c6a25; stroke:none;" d="M209 375L210 376L209 375z"/>
<path style="fill:#a3bfa3; stroke:none;" d="M262 375L263 376L262 375z"/>
<path style="fill:#1c6a25; stroke:none;" d="M305 375L306 376L305 375M338 375L339 376L338 375z"/>
<path style="fill:#a3bfa3; stroke:none;" d="M447 375L447 378L448 378L447 375z"/>
<path style="fill:#1c6a25; stroke:none;" d="M473 375L474 376L473 375M517 375L518 376L517 375M619 375L620 376L619 375z"/>
<path style="fill:#a3bfa3; stroke:none;" d="M208 376L209 377L208 376M264 376L265 377L264 376M338 376L339 377L338 376M410 376L411 377L410 376z"/>
<path style="fill:#1c6a25; stroke:none;" d="M550 376L551 377L550 376z"/>
<path style="fill:#a3bfa3; stroke:none;" d="M206 377L207 378L206 377z"/>
<path style="fill:#1c6a25; stroke:none;" d="M304 377L305 378L304 377M411 377L412 378L411 377M516 377L517 378L516 377z"/>
<path style="fill:#a3bfa3; stroke:none;" d="M550.333 377.667L550.667 378.333L550.333 377.667z"/>
<path style="fill:#1c6a25; stroke:none;" d="M592 377L593 378L592 377M204 378L205 379L204 378M267 378L268 379L267 378z"/>
<path style="fill:#a3bfa3; stroke:none;" d="M592 378L592 381L593 381L592 378M203 379L204 380L203 379z"/>
<path style="fill:#1c6a25; stroke:none;" d="M303 379L304 380L303 379M339 379L340 380L339 379z"/>
<path style="fill:#a3bfa3; stroke:none;" d="M412 379L413 380L412 379M472 379L472 382L473 382L472 379z"/>
<path style="fill:#1c6a25; stroke:none;" d="M515 379L516 380L515 379z"/>
<path style="fill:#a3bfa3; stroke:none;" d="M339.333 380.667L339.667 381.333L339.333 380.667z"/>
<path style="fill:#1c6a25; stroke:none;" d="M380 380L381 381L380 380z"/>
<path style="fill:#a3bfa3; stroke:none;" d="M618.333 380.667L618.667 381.333L618.333 380.667z"/>
<path style="fill:#1c6a25; stroke:none;" d="M200 381L201 382L200 381z"/>
<path style="fill:#a3bfa3; stroke:none;" d="M267.333 381.667L267.667 382.333L267.333 381.667z"/>
<path style="fill:#1c6a25; stroke:none;" d="M302 381L303 382L302 381z"/>
<path style="fill:#a3bfa3; stroke:none;" d="M380 381L380 384L381 384L380 381M413 381L414 382L413 381z"/>
<path style="fill:#1c6a25; stroke:none;" d="M446 381L447 382L446 381M514 381L515 382L514 381M551 381L552 382L551 381z"/>
<path style="fill:#a3bfa3; stroke:none;" d="M199 382L200 383L199 382M446 382L446 385L447 385L446 382z"/>
<path style="fill:#1c6a25; stroke:none;" d="M472 382L473 383L472 382z"/>
<path style="fill:#a3bfa3; stroke:none;" d="M551.333 382.667L551.667 383.333L551.333 382.667z"/>
<path style="fill:#1c6a25; stroke:none;" d="M618.333 382.667L618.667 383.333L618.333 382.667z"/>
<path style="fill:#a3bfa3; stroke:none;" d="M198 383L199 384L198 383z"/>
<path style="fill:#1c6a25; stroke:none;" d="M267 383L268 384L267 383M301 383L302 384L301 383z"/>
<path style="fill:#a3bfa3; stroke:none;" d="M414 383L415 384L414 383z"/>
<path style="fill:#1c6a25; stroke:none;" d="M513 383L514 384L513 383z"/>
<path style="fill:#a3bfa3; stroke:none;" d="M197 384L198 385L197 384z"/>
<path style="fill:#1c6a25; stroke:none;" d="M340 384L341 385L340 384M415 384L416 385L415 384M591 384L592 385L591 384z"/>
<path style="fill:#a3bfa3; stroke:none;" d="M196 385L197 386L196 385z"/>
<path style="fill:#1c6a25; stroke:none;" d="M300 385L301 386L300 385z"/>
<path style="fill:#a3bfa3; stroke:none;" d="M340.333 385.667L340.667 386.333L340.333 385.667z"/>
<path style="fill:#1c6a25; stroke:none;" d="M512 385L513 386L512 385z"/>
<path style="fill:#a3bfa3; stroke:none;" d="M591 385L591 388L592 388L591 385M195 386L196 387L195 386M266.333 386.667L266.667 387.333L266.333 386.667M416 386L417 387L416 386M471 386L471 389L472 389L471 386z"/>
<path style="fill:#1c6a25; stroke:none;" d="M552 386L553 387L552 386z"/>
<path style="fill:#a3bfa3; stroke:none;" d="M194 387L195 388L194 387z"/>
<path style="fill:#1c6a25; stroke:none;" d="M299 387L300 388L299 387M379 387L380 388L379 387M511 387L512 388L511 387z"/>
<path style="fill:#a3bfa3; stroke:none;" d="M552 387L553 388L552 387M617.333 387.667L617.667 388.333L617.333 387.667z"/>
<path style="fill:#1c6a25; stroke:none;" d="M193 388L194 389L193 388M266 388L267 389L266 388z"/>
<path style="fill:#a3bfa3; stroke:none;" d="M379 388L379 391L380 391L379 388M417 388L418 389L417 388z"/>
<path style="fill:#1c6a25; stroke:none;" d="M445 388L446 389L445 388M298 389L299 390L298 389M341 389L342 390L341 389z"/>
<path style="fill:#a3bfa3; stroke:none;" d="M445 389L445 392L446 392L445 389z"/>
<path style="fill:#1c6a25; stroke:none;" d="M471 389L472 390L471 389M510 389L511 390L510 389M617.333 389.667L617.667 390.333L617.333 389.667z"/>
<path style="fill:#a3bfa3; stroke:none;" d="M192 390L193 391L192 390M341 390L342 391L341 390M418 390L419 391L418 390z"/>
<path style="fill:#1c6a25; stroke:none;" d="M191 391L192 392L191 391M297 391L298 392L297 391M419 391L420 392L419 391M509 391L510 392L509 391M553 391L554 392L553 391M590 391L591 392L590 391z"/>
<path style="fill:#a3bfa3; stroke:none;" d="M265 392L266 393L265 392M553 392L554 393L553 392M590 392L590 395L591 395L590 392M190 393L191 394L190 393M232.667 393.333L233.333 393.667L232.667 393.333z"/>
<path style="fill:#1c6a25; stroke:none;" d="M234.667 393.333L235.333 393.667L234.667 393.333M241.667 393.333L242.333 393.667L241.667 393.333z"/>
<path style="fill:#a3bfa3; stroke:none;" d="M243 393L243 394L246 394L243 393z"/>
<path style="fill:#1c6a25; stroke:none;" d="M265.333 393.667L265.667 394.333L265.333 393.667M296 393L297 394L296 393M342 393L343 394L342 393z"/>
<path style="fill:#a3bfa3; stroke:none;" d="M420 393L421 394L420 393M470 393L470 396L471 396L470 393z"/>
<path style="fill:#1c6a25; stroke:none;" d="M508 393L509 394L508 393z"/>
<path style="fill:#a3bfa3; stroke:none;" d="M228 394L229 395L228 394z"/>
<path style="fill:#1c6a25; stroke:none;" d="M229 394L230 395L229 394M248 394L249 395L248 394z"/>
<path style="fill:#a3bfa3; stroke:none;" d="M249 394L250 395L249 394M342.333 394.667L342.667 395.333L342.333 394.667z"/>
<path style="fill:#1c6a25; stroke:none;" d="M378 394L379 395L378 394z"/>
<path style="fill:#a3bfa3; stroke:none;" d="M616 394L616 397L617 397L616 394M189 395L190 396L189 395M226 395L227 396L226 395z"/>
<path style="fill:#1c6a25; stroke:none;" d="M251 395L252 396L251 395z"/>
<path style="fill:#a3bfa3; stroke:none;" d="M252 395L253 396L252 395z"/>
<path style="fill:#1c6a25; stroke:none;" d="M295 395L296 396L295 395z"/>
<path style="fill:#a3bfa3; stroke:none;" d="M378 395L378 398L379 398L378 395M421 395L422 396L421 395z"/>
<path style="fill:#1c6a25; stroke:none;" d="M444 395L445 396L444 395M507 395L508 396L507 395M554 395L555 396L554 395z"/>
<path style="fill:#a3bfa3; stroke:none;" d="M223 396L224 397L223 396z"/>
<path style="fill:#1c6a25; stroke:none;" d="M224 396L225 397L224 396M254 396L255 397L254 396z"/>
<path style="fill:#a3bfa3; stroke:none;" d="M444.333 396.667L444.667 397.333L444.333 396.667z"/>
<path style="fill:#1c6a25; stroke:none;" d="M470 396L471 397L470 396z"/>
<path style="fill:#a3bfa3; stroke:none;" d="M554.333 396.667L554.667 397.333L554.333 396.667M188 397L189 398L188 397z"/>
<path style="fill:#1c6a25; stroke:none;" d="M222 397L223 398L222 397M256 397L257 398L256 397z"/>
<path style="fill:#a3bfa3; stroke:none;" d="M257 397L258 398L257 397M264.333 397.667L264.667 398.333L264.333 397.667z"/>
<path style="fill:#1c6a25; stroke:none;" d="M294 397L295 398L294 397z"/>
<path style="fill:#a3bfa3; stroke:none;" d="M422 397L423 398L422 397z"/>
<path style="fill:#1c6a25; stroke:none;" d="M506 397L507 398L506 397M616 397L617 398L616 397z"/>
<path style="fill:#a3bfa3; stroke:none;" d="M220 398L221 399L220 398z"/>
<path style="fill:#1c6a25; stroke:none;" d="M258 398L259 399L258 398M343 398L344 399L343 398M423 398L424 399L423 398M589 398L590 399L589 398z"/>
<path style="fill:#a3bfa3; stroke:none;" d="M187 399L188 400L187 399z"/>
<path style="fill:#1c6a25; stroke:none;" d="M219 399L220 400L219 399z"/>
<path style="fill:#a3bfa3; stroke:none;" d="M260 399L261 400L260 399z"/>
<path style="fill:#1c6a25; stroke:none;" d="M264 399L265 400L264 399M293 399L294 400L293 399z"/>
<path style="fill:#a3bfa3; stroke:none;" d="M343.333 399.667L343.667 400.333L343.333 399.667z"/>
<path style="fill:#1c6a25; stroke:none;" d="M505 399L506 400L505 399z"/>
<path style="fill:#a3bfa3; stroke:none;" d="M589 399L589 402L590 402L589 399z"/>
<path style="fill:#1c6a25; stroke:none;" d="M218 400L219 401L218 400z"/>
<path style="fill:#a3bfa3; stroke:none;" d="M262 400L263 401L262 400M318 400L317 402L318 400M424 400L425 401L424 400M469 400L469 403L470 403L469 400M530 400L529 402L530 400z"/>
<path style="fill:#1c6a25; stroke:none;" d="M555 400L556 401L555 400M186 401L187 402L186 401M292 401L293 402L292 401z"/>
<path style="fill:#242328; stroke:none;" d="M318 401L306 430L325 430L318 401z"/>
<path style="fill:#1c6a25; stroke:none;" d="M377.333 401.667L377.667 402.333L377.333 401.667M443.333 401.667L443.667 402.333L443.333 401.667M504 401L505 402L504 401z"/>
<path style="fill:#242328; stroke:none;" d="M530 401L517 430L537 430L530 401z"/>
<path style="fill:#a3bfa3; stroke:none;" d="M555.333 401.667L555.667 402.333L555.333 401.667M615 401L615 404L616 404L615 401M186 402L187 403L186 402z"/>
<path style="fill:#1c6a25; stroke:none;" d="M216 402L217 403L216 402M317 402L318 403L317 402z"/>
<path style="fill:#a3bfa3; stroke:none;" d="M425 402L426 403L425 402M215 403L216 404L215 403z"/>
<path style="fill:#1c6a25; stroke:none;" d="M291 403L292 404L291 403z"/>
<path style="fill:#a3bfa3; stroke:none;" d="M319.333 403.667L319.667 404.333L319.333 403.667z"/>
<path style="fill:#1c6a25; stroke:none;" d="M344 403L345 404L344 403z"/>
<path style="fill:#a3bfa3; stroke:none;" d="M377.333 403.667L377.667 404.333L377.333 403.667M443.333 403.667L443.667 404.333L443.333 403.667z"/>
<path style="fill:#1c6a25; stroke:none;" d="M469 403L470 404L469 403M503 403L504 404L503 403z"/>
<path style="fill:#a3bfa3; stroke:none;" d="M528 403L529 404L528 403M531.333 403.667L531.667 404.333L531.333 403.667M185.333 404.667L185.667 405.333L185.333 404.667M214 404L215 405L214 404z"/>
<path style="fill:#1c6a25; stroke:none;" d="M316 404L317 405L316 404z"/>
<path style="fill:#a3bfa3; stroke:none;" d="M344 404L345 405L344 404M426 404L427 405L426 404z"/>
<path style="fill:#1c6a25; stroke:none;" d="M615 404L616 405L615 404M639 404L639 429L640 429L639 404M290 405L291 406L290 405M319 405L320 406L319 405M427 405L428 406L427 405M502 405L503 406L502 405z"/>
<path style="fill:#a3bfa3; stroke:none;" d="M527 405L528 406L527 405z"/>
<path style="fill:#1c6a25; stroke:none;" d="M531 405L532 406L531 405M556 405L557 406L556 405M588 405L589 406L588 405z"/>
<path style="fill:#a3bfa3; stroke:none;" d="M213 406L214 407L213 406M315 406L316 407L315 406z"/>
<path style="fill:#1c6a25; stroke:none;" d="M527 406L528 407L527 406z"/>
<path style="fill:#a3bfa3; stroke:none;" d="M556.333 406.667L556.667 407.333L556.333 406.667M588 406L588 409L589 409L588 406z"/>
<path style="fill:#1c6a25; stroke:none;" d="M184 407L185 408L184 407M289 407L290 408L289 407M345 407L346 408L345 407z"/>
<path style="fill:#a3bfa3; stroke:none;" d="M428 407L429 408L428 407M468 407L468 410L469 410L468 407z"/>
<path style="fill:#1c6a25; stroke:none;" d="M501 407L502 408L501 407z"/>
<path style="fill:#a3bfa3; stroke:none;" d="M184 408L185 409L184 408M212 408L213 409L212 408M314 408L315 409L314 408M320 408L321 409L320 408M345.333 408.667L345.667 409.333L345.333 408.667z"/>
<path style="fill:#1c6a25; stroke:none;" d="M376.333 408.667L376.667 409.333L376.333 408.667M442.333 408.667L442.667 409.333L442.333 408.667M526 408L527 409L526 408z"/>
<path style="fill:#a3bfa3; stroke:none;" d="M532.333 408.667L532.667 409.333L532.333 408.667M614 408L614 411L615 411L614 408z"/>
<path style="fill:#1c6a25; stroke:none;" d="M288 409L289 410L288 409M320 409L321 410L320 409z"/>
<path style="fill:#a3bfa3; stroke:none;" d="M402 409L403 410L402 409M429 409L430 410L429 409z"/>
<path style="fill:#1c6a25; stroke:none;" d="M500 409L501 410L500 409z"/>
<path style="fill:#a3bfa3; stroke:none;" d="M211 410L212 411L211 410M313 410L314 411L313 410M376.333 410.667L376.667 411.333L376.333 410.667M401 410L401 413L402 413L401 410M442.333 410.667L442.667 411.333L442.333 410.667z"/>
<path style="fill:#1c6a25; stroke:none;" d="M468 410L469 411L468 410z"/>
<path style="fill:#a3bfa3; stroke:none;" d="M525 410L526 411L525 410z"/>
<path style="fill:#1c6a25; stroke:none;" d="M532 410L533 411L532 410M557 410L558 411L557 410M183.333 411.667L183.667 412.333L183.333 411.667M211 411L212 412L211 411M287 411L288 412L287 411M313 411L314 412L313 411M403 411L404 412L403 411z"/>
<path style="fill:#a3bfa3; stroke:none;" d="M430 411L431 412L430 411z"/>
<path style="fill:#1c6a25; stroke:none;" d="M499 411L500 412L499 411z"/>
<path style="fill:#a3bfa3; stroke:none;" d="M557.333 411.667L557.667 412.333L557.333 411.667z"/>
<path style="fill:#1c6a25; stroke:none;" d="M614 411L615 412L614 411z"/>
<path style="fill:#a3bfa3; stroke:none;" d="M321.333 412.667L321.667 413.333L321.333 412.667z"/>
<path style="fill:#1c6a25; stroke:none;" d="M346 412L347 413L346 412z"/>
<path style="fill:#a3bfa3; stroke:none;" d="M404 412L405 413L404 412z"/>
<path style="fill:#1c6a25; stroke:none;" d="M431 412L432 413L431 412z"/>
<path style="fill:#a3bfa3; stroke:none;" d="M524 412L525 413L524 412z"/>
<path style="fill:#1c6a25; stroke:none;" d="M587 412L588 413L587 412z"/>
<path style="fill:#a3bfa3; stroke:none;" d="M183.333 413.667L183.667 414.333L183.333 413.667M210.333 413.667L210.667 414.333L210.333 413.667z"/>
<path style="fill:#1c6a25; stroke:none;" d="M286 413L287 414L286 413M312 413L313 414L312 413z"/>
<path style="fill:#a3bfa3; stroke:none;" d="M346.333 413.667L346.667 414.333L346.333 413.667z"/>
<path style="fill:#1c6a25; stroke:none;" d="M401 413L402 414L401 413M404 413L405 414L404 413M498 413L499 414L498 413z"/>
<path style="fill:#a3bfa3; stroke:none;" d="M533 413L534 414L533 413M587 413L587 416L588 416L587 413z"/>
<path style="fill:#1c6a25; stroke:none;" d="M321 414L322 415L321 414z"/>
<path style="fill:#a3bfa3; stroke:none;" d="M405 414L406 415L405 414M432 414L433 415L432 414M467 414L467 417L468 417L467 414M523 414L524 415L523 414z"/>
<path style="fill:#1c6a25; stroke:none;" d="M533 414L534 415L533 414M210 415L211 416L210 415M285 415L286 416L285 415z"/>
<path style="fill:#a3bfa3; stroke:none;" d="M311 415L312 416L311 415z"/>
<path style="fill:#1c6a25; stroke:none;" d="M375.333 415.667L375.667 416.333L375.333 415.667M441.333 415.667L441.667 416.333L441.333 415.667M497 415L498 416L497 415M523 415L524 416L523 415M558 415L559 416L558 415z"/>
<path style="fill:#a3bfa3; stroke:none;" d="M613 415L613 418L614 418L613 415M406 416L407 417L406 416M433 416L434 417L433 416M558 416L559 417L558 416z"/>
<path style="fill:#1c6a25; stroke:none;" d="M284 417L285 418L284 417z"/>
<path style="fill:#a3bfa3; stroke:none;" d="M310 417L311 418L310 417M322 417L323 418L322 417z"/>
<path style="fill:#1c6a25; stroke:none;" d="M347 417L348 418L347 417z"/>
<path style="fill:#a3bfa3; stroke:none;" d="M375 417L375 420L376 420L375 417M400 417L400 420L401 420L400 417M441.333 417.667L441.667 418.333L441.333 417.667z"/>
<path style="fill:#1c6a25; stroke:none;" d="M467 417L468 418L467 417M496 417L497 418L496 417M522 417L523 418L522 417z"/>
<path style="fill:#a3bfa3; stroke:none;" d="M534.333 417.667L534.667 418.333L534.333 417.667z"/>
<path style="fill:#1c6a25; stroke:none;" d="M322 418L323 419L322 418z"/>
<path style="fill:#a3bfa3; stroke:none;" d="M347 418L348 419L347 418z"/>
<path style="fill:#1c6a25; stroke:none;" d="M407 418L408 419L407 418z"/>
<path style="fill:#a3bfa3; stroke:none;" d="M434 418L435 419L434 418z"/>
<path style="fill:#1c6a25; stroke:none;" d="M613.333 418.667L613.667 419.333L613.333 418.667M283 419L284 420L283 419M435 419L436 420L435 419M495 419L496 420L495 419z"/>
<path style="fill:#a3bfa3; stroke:none;" d="M521 419L522 420L521 419z"/>
<path style="fill:#1c6a25; stroke:none;" d="M534 419L535 420L534 419M559 419L560 420L559 419M586 419L587 420L586 419z"/>
<path style="fill:#a3bfa3; stroke:none;" d="M209.333 420.667L209.667 421.333L209.333 420.667M283 420L284 421L283 420z"/>
<path style="fill:#1c6a25; stroke:none;" d="M309 420L310 421L309 420M400 420L401 421L400 420M408 420L409 421L408 420z"/>
<path style="fill:#a3bfa3; stroke:none;" d="M559.333 420.667L559.667 421.333L559.333 420.667M586 420L586 423L587 423L586 420z"/>
<path style="fill:#1c6a25; stroke:none;" d="M282 421L283 422L282 421z"/>
<path style="fill:#a3bfa3; stroke:none;" d="M323.333 421.667L323.667 422.333L323.333 421.667z"/>
<path style="fill:#1c6a25; stroke:none;" d="M348 421L349 422L348 421z"/>
<path style="fill:#a3bfa3; stroke:none;" d="M409 421L410 422L409 421M436 421L437 422L436 421M466 421L466 424L467 424L466 421z"/>
<path style="fill:#1c6a25; stroke:none;" d="M494 421L495 422L494 421z"/>
<path style="fill:#a3bfa3; stroke:none;" d="M520 421L521 422L520 421M282 422L283 423L282 422M308 422L309 423L308 422M348.333 422.667L348.667 423.333L348.333 422.667z"/>
<path style="fill:#1c6a25; stroke:none;" d="M440.333 422.667L440.667 423.333L440.333 422.667z"/>
<path style="fill:#a3bfa3; stroke:none;" d="M535.333 422.667L535.667 423.333L535.333 422.667z"/>
<path style="fill:#1c6a25; stroke:none;" d="M281 423L282 424L281 423M323 423L324 424L323 423M374 423L375 424L374 423z"/>
<path style="fill:#a3bfa3; stroke:none;" d="M410 423L411 424L410 423M437 423L438 424L437 423z"/>
<path style="fill:#1c6a25; stroke:none;" d="M493 423L494 424L493 423z"/>
<path style="fill:#a3bfa3; stroke:none;" d="M519 423L520 424L519 423M612.333 423.667L612.667 424.333L612.333 423.667M281 424L282 425L281 424M307 424L308 425L307 424M374 424L374 427L375 427L374 424M399 424L399 427L400 427L399 424M440.333 424.667L440.667 425.333L440.333 424.667z"/>
<path style="fill:#1c6a25; stroke:none;" d="M466 424L467 425L466 424M519 424L520 425L519 424M535 424L536 425L535 424M560 424L561 425L560 424M280 425L281 426L280 425z"/>
<path style="fill:#a3bfa3; stroke:none;" d="M411 425L412 426L411 425M438 425L439 426L438 425z"/>
<path style="fill:#1c6a25; stroke:none;" d="M492 425L493 426L492 425z"/>
<path style="fill:#a3bfa3; stroke:none;" d="M560.333 425.667L560.667 426.333L560.333 425.667z"/>
<path style="fill:#1c6a25; stroke:none;" d="M612.333 425.667L612.667 426.333L612.333 425.667z"/>
<path style="fill:#a3bfa3; stroke:none;" d="M280 426L281 427L280 426M306 426L307 427L306 426M324 426L325 427L324 426z"/>
<path style="fill:#1c6a25; stroke:none;" d="M349 426L350 427L349 426z"/>
<path style="fill:#a3bfa3; stroke:none;" d="M439 426L440 427L439 426z"/>
<path style="fill:#1c6a25; stroke:none;" d="M518 426L519 427L518 426M585 426L586 427L585 426M210 427L211 428L210 427M279 427L280 428L279 427M306 427L307 428L306 427M324 427L325 428L324 427z"/>
<path style="fill:#a3bfa3; stroke:none;" d="M349.333 427.667L349.667 428.333L349.333 427.667z"/>
<path style="fill:#1c6a25; stroke:none;" d="M399 427L400 428L399 427M412 427L413 428L412 427M491 427L492 428L491 427z"/>
<path style="fill:#a3bfa3; stroke:none;" d="M536 427L537 428L536 427M585 427L585 430L586 430L585 427M210 428L211 429L210 428M279 428L280 429L279 428M413 428L414 429L413 428M465 428L465 431L466 431L465 428M517 428L518 429L517 428z"/>
<path style="fill:#1c6a25; stroke:none;" d="M536 428L537 429L536 428z"/>
<path style="fill:#a3bfa3; stroke:none;" d="M183.333 429.667L183.667 430.333L183.333 429.667z"/>
<path style="fill:#1c6a25; stroke:none;" d="M278 429L279 430L278 429M305 429L306 430L305 429M490 429L491 430L490 429M561 429L562 430L561 429M211 430L212 431L211 430z"/>
<path style="fill:#a3bfa3; stroke:none;" d="M278 430L279 431L278 430M306 430L306 431L325 431L306 430z"/>
<path style="fill:#1c6a25; stroke:none;" d="M373 430L374 431L373 430z"/>
<path style="fill:#a3bfa3; stroke:none;" d="M414 430L415 431L414 430M517 430L518 431L517 430z"/>
<path style="fill:#1c6a25; stroke:none;" d="M518.667 430.333L519.333 430.667L518.667 430.333z"/>
<path style="fill:#a3bfa3; stroke:none;" d="M520 430L520 431L537 431L520 430M561.333 430.667L561.667 431.333L561.333 430.667M611.333 430.667L611.667 431.333L611.333 430.667z"/>
<path style="fill:#1c6a25; stroke:none;" d="M640 430L641 431L640 430z"/>
<path style="fill:#a3bfa3; stroke:none;" d="M641 430L641 431L675 431L641 430M703 430L703 431L736 431L703 430z"/>
<path style="fill:#1c6a25; stroke:none;" d="M736 430L737 431L736 430M183 431L184 432L183 431z"/>
<path style="fill:#a3bfa3; stroke:none;" d="M211 431L212 432L211 431z"/>
<path style="fill:#1c6a25; stroke:none;" d="M277 431L278 432L277 431M350 431L351 432L350 431z"/>
<path style="fill:#a3bfa3; stroke:none;" d="M373 431L373 434L374 434L373 431M398 431L398 434L399 434L398 431z"/>
<path style="fill:#1c6a25; stroke:none;" d="M465 431L466 432L465 431M489 431L490 432L489 431z"/>
<path style="fill:#a3bfa3; stroke:none;" d="M702 431L702 466L703 466L702 431M277 432L278 433L277 432M350.333 432.667L350.667 433.333L350.333 432.667M415 432L416 433L415 432z"/>
<path style="fill:#1c6a25; stroke:none;" d="M611.333 432.667L611.667 433.333L611.333 432.667z"/>
<path style="fill:#a3bfa3; stroke:none;" d="M212 433L213 434L212 433z"/>
<path style="fill:#1c6a25; stroke:none;" d="M276 433L277 434L276 433M488 433L489 434L488 433M584 433L585 434L584 433z"/>
<path style="fill:#a3bfa3; stroke:none;" d="M184.333 434.667L184.667 435.333L184.333 434.667M276 434L277 435L276 434z"/>
<path style="fill:#1c6a25; stroke:none;" d="M398 434L399 435L398 434M416 434L417 435L416 434M562 434L563 435L562 434z"/>
<path style="fill:#a3bfa3; stroke:none;" d="M584 434L584 437L585 437L584 434M213 435L214 436L213 435z"/>
<path style="fill:#1c6a25; stroke:none;" d="M275 435L276 436L275 435z"/>
<path style="fill:#a3bfa3; stroke:none;" d="M487 435L488 436L487 435M562.333 435.667L562.667 436.333L562.333 435.667z"/>
<path style="fill:#1c6a25; stroke:none;" d="M184 436L185 437L184 436M214 436L215 437L214 436z"/>
<path style="fill:#a3bfa3; stroke:none;" d="M275 436L276 437L275 436z"/>
<path style="fill:#1c6a25; stroke:none;" d="M351 436L352 437L351 436M417 436L418 437L417 436z"/>
<path style="fill:#a3bfa3; stroke:none;" d="M464.333 436.667L464.667 437.333L464.333 436.667z"/>
<path style="fill:#1c6a25; stroke:none;" d="M274 437L275 438L274 437z"/>
<path style="fill:#a3bfa3; stroke:none;" d="M351 437L352 438L351 437z"/>
<path style="fill:#1c6a25; stroke:none;" d="M372 437L373 438L372 437z"/>
<path style="fill:#a3bfa3; stroke:none;" d="M418 437L419 438L418 437M486 437L487 438L486 437M610 437L610 440L611 440L610 437M185.333 438.667L185.667 439.333L185.333 438.667M274 438L275 439L274 438M372 438L372 441L373 441L372 438M397 438L397 441L398 441L397 438z"/>
<path style="fill:#1c6a25; stroke:none;" d="M464 438L465 439L464 438M273 439L274 440L273 439z"/>
<path style="fill:#a3bfa3; stroke:none;" d="M419 439L420 440L419 439M485 439L486 440L485 439z"/>
<path style="fill:#1c6a25; stroke:none;" d="M563 439L564 440L563 439z"/>
<path style="fill:#a3bfa3; stroke:none;" d="M273 440L274 441L273 440z"/>
<path style="fill:#1c6a25; stroke:none;" d="M352 440L353 441L352 440z"/>
<path style="fill:#a3bfa3; stroke:none;" d="M563 440L564 441L563 440z"/>
<path style="fill:#1c6a25; stroke:none;" d="M583 440L584 441L583 440M610 440L611 441L610 440z"/>
<path style="fill:#a3bfa3; stroke:none;" d="M186 441L187 442L186 441z"/>
<path style="fill:#1c6a25; stroke:none;" d="M219 441L220 442L219 441M272 441L273 442L272 441z"/>
<path style="fill:#a3bfa3; stroke:none;" d="M352.333 441.667L352.667 442.333L352.333 441.667z"/>
<path style="fill:#1c6a25; stroke:none;" d="M397 441L398 442L397 441z"/>
<path style="fill:#a3bfa3; stroke:none;" d="M420 441L421 442L420 441M484 441L485 442L484 441M583.333 441.667L583.667 442.333L583.333 441.667z"/>
<path style="fill:#1c6a25; stroke:none;" d="M186 442L187 443L186 442z"/>
<path style="fill:#a3bfa3; stroke:none;" d="M220 442L221 443L220 442z"/>
<path style="fill:#1c6a25; stroke:none;" d="M254 442L255 443L254 442z"/>
<path style="fill:#a3bfa3; stroke:none;" d="M255 442L256 445L257 445L257 442L255 442M272 442L273 443L272 442z"/>
<path style="fill:#1c6a25; stroke:none;" d="M222 443L223 444L222 443M251 443L252 444L251 443z"/>
<path style="fill:#a3bfa3; stroke:none;" d="M252 443L253 444L252 443z"/>
<path style="fill:#1c6a25; stroke:none;" d="M271 443L272 444L271 443M421 443L422 444L421 443z"/>
<path style="fill:#a3bfa3; stroke:none;" d="M463.333 443.667L463.667 444.333L463.333 443.667M483 443L484 444L483 443M187 444L188 445L187 444M224 444L225 445L224 444M249 444L250 445L249 444M271 444L272 445L271 444z"/>
<path style="fill:#1c6a25; stroke:none;" d="M371.333 444.667L371.667 445.333L371.333 444.667z"/>
<path style="fill:#a3bfa3; stroke:none;" d="M422 444L423 445L422 444z"/>
<path style="fill:#1c6a25; stroke:none;" d="M564 444L565 445L564 444z"/>
<path style="fill:#a3bfa3; stroke:none;" d="M609.333 444.667L609.667 445.333L609.333 444.667M226.667 445.333L227.333 445.667L226.667 445.333z"/>
<path style="fill:#1c6a25; stroke:none;" d="M245 445L246 446L245 445z"/>
<path style="fill:#a3bfa3; stroke:none;" d="M246 445L247 446L246 445z"/>
<path style="fill:#1c6a25; stroke:none;" d="M256 445L257 446L256 445M270 445L271 446L270 445M353 445L354 446L353 445z"/>
<path style="fill:#a3bfa3; stroke:none;" d="M396 445L396 448L397 448L396 445z"/>
<path style="fill:#1c6a25; stroke:none;" d="M463.333 445.667L463.667 446.333L463.333 445.667z"/>
<path style="fill:#a3bfa3; stroke:none;" d="M482 445L483 446L482 445M564 445L565 446L564 445M188 446L189 447L188 446M230 446L230 447L233 447L230 446z"/>
<path style="fill:#1c6a25; stroke:none;" d="M233.667 446.333L234.333 446.667L233.667 446.333M238.667 446.333L239.333 446.667L238.667 446.333z"/>
<path style="fill:#a3bfa3; stroke:none;" d="M240 446L240 447L243 447L240 446M270 446L271 447L270 446M353.333 446.667L353.667 447.333L353.333 446.667M371.333 446.667L371.667 447.333L371.333 446.667M423 446L424 447L423 446z"/>
<path style="fill:#1c6a25; stroke:none;" d="M269 447L270 448L269 447z"/>
<path style="fill:#a3bfa3; stroke:none;" d="M481 447L482 448L481 447z"/>
<path style="fill:#1c6a25; stroke:none;" d="M582 447L583 448L582 447M189 448L190 449L189 448z"/>
<path style="fill:#a3bfa3; stroke:none;" d="M255.333 448.667L255.667 449.333L255.333 448.667M269 448L270 449L269 448z"/>
<path style="fill:#1c6a25; stroke:none;" d="M396 448L397 449L396 448z"/>
<path style="fill:#a3bfa3; stroke:none;" d="M424 448L425 449L424 448z"/>
<path style="fill:#1c6a25; stroke:none;" d="M565 448L566 449L565 448z"/>
<path style="fill:#a3bfa3; stroke:none;" d="M582.333 448.667L582.667 449.333L582.333 448.667M190 449L191 450L190 449z"/>
<path style="fill:#1c6a25; stroke:none;" d="M268 449L269 450L268 449z"/>
<path style="fill:#a3bfa3; stroke:none;" d="M480 449L481 450L480 449M565.333 449.667L565.667 450.333L565.333 449.667z"/>
<path style="fill:#1c6a25; stroke:none;" d="M255 450L256 451L255 450z"/>
<path style="fill:#a3bfa3; stroke:none;" d="M268 450L269 451L268 450M297 450L297 451L329 451L297 450z"/>
<path style="fill:#1c6a25; stroke:none;" d="M354 450L355 451L354 450M425 450L426 451L425 450z"/>
<path style="fill:#a3bfa3; stroke:none;" d="M462.333 450.667L462.667 451.333L462.333 450.667z"/>
<path style="fill:#1c6a25; stroke:none;" d="M508 450L508 451L540 451L508 450z"/>
<path style="fill:#a3bfa3; stroke:none;" d="M540 450L541 451L540 450M637.333 450.667L637.667 451.333L637.333 450.667z"/>
<path style="fill:#1c6a25; stroke:none;" d="M191 451L192 452L191 451z"/>
<path style="fill:#a3bfa3; stroke:none;" d="M354 451L355 452L354 451z"/>
<path style="fill:#1c6a25; stroke:none;" d="M370.333 451.667L370.667 452.333L370.333 451.667z"/>
<path style="fill:#a3bfa3; stroke:none;" d="M426 451L427 452L426 451M479 451L480 452L479 451z"/>
<path style="fill:#1c6a25; stroke:none;" d="M507 451L508 452L507 451z"/>
<path style="fill:#a3bfa3; stroke:none;" d="M192 452L193 453L192 452M267 452L268 453L267 452z"/>
<path style="fill:#1c6a25; stroke:none;" d="M295 452L296 453L295 452z"/>
<path style="fill:#a3bfa3; stroke:none;" d="M395 452L395 455L396 455L395 452z"/>
<path style="fill:#1c6a25; stroke:none;" d="M426 452L427 453L426 452M462.333 452.667L462.667 453.333L462.333 452.667z"/>
<path style="fill:#a3bfa3; stroke:none;" d="M506 452L507 453L506 452M541.333 452.667L541.667 453.333L541.333 452.667z"/>
<path style="fill:#1c6a25; stroke:none;" d="M637.333 452.667L637.667 453.333L637.333 452.667z"/>
<path style="fill:#a3bfa3; stroke:none;" d="M193 453L194 454L193 453M294 453L295 454L294 453M330 453L331 454L330 453M370.333 453.667L370.667 454.333L370.333 453.667M427 453L428 454L427 453M478 453L479 454L478 453z"/>
<path style="fill:#1c6a25; stroke:none;" d="M506 453L507 454L506 453M566 453L567 454L566 453M581.333 453.667L581.667 454.333L581.333 453.667z"/>
<path style="fill:#a3bfa3; stroke:none;" d="M254.333 454.667L254.667 455.333L254.333 454.667M266 454L267 455L266 454z"/>
<path style="fill:#1c6a25; stroke:none;" d="M294 454L295 455L294 454M330 454L331 455L330 454M355 454L356 455L355 454M541 454L542 455L541 454z"/>
<path style="fill:#a3bfa3; stroke:none;" d="M566.333 454.667L566.667 455.333L566.333 454.667M355.333 455.667L355.667 456.333L355.333 455.667z"/>
<path style="fill:#1c6a25; stroke:none;" d="M395 455L396 456L395 455z"/>
<path style="fill:#a3bfa3; stroke:none;" d="M428 455L429 456L428 455M477 455L478 456L477 455z"/>
<path style="fill:#1c6a25; stroke:none;" d="M505 455L506 456L505 455z"/>
<path style="fill:#a3bfa3; stroke:none;" d="M581.333 455.667L581.667 456.333L581.333 455.667z"/>
<path style="fill:#1c6a25; stroke:none;" d="M254 456L255 457L254 456z"/>
<path style="fill:#a3bfa3; stroke:none;" d="M265 456L266 457L265 456z"/>
<path style="fill:#1c6a25; stroke:none;" d="M293 456L294 457L293 456z"/>
<path style="fill:#a3bfa3; stroke:none;" d="M331 457L332 458L331 457M429 457L430 458L429 457M461.333 457.667L461.667 458.333L461.333 457.667M476 457L477 458L476 457z"/>
<path style="fill:#1c6a25; stroke:none;" d="M504 457L505 458L504 457z"/>
<path style="fill:#a3bfa3; stroke:none;" d="M542.333 457.667L542.667 458.333L542.333 457.667M636 457L636 460L637 460L636 457M198 458L199 459L198 458M264 458L265 459L264 458z"/>
<path style="fill:#1c6a25; stroke:none;" d="M292 458L293 459L292 458M331 458L332 459L331 458M369.333 458.667L369.667 459.333L369.333 458.667M567 458L568 459L567 458z"/>
<path style="fill:#a3bfa3; stroke:none;" d="M199 459L200 460L199 459z"/>
<path style="fill:#1c6a25; stroke:none;" d="M356 459L357 460L356 459z"/>
<path style="fill:#a3bfa3; stroke:none;" d="M394 459L394 462L395 462L394 459z"/>
<path style="fill:#1c6a25; stroke:none;" d="M430 459L431 460L430 459M461.333 459.667L461.667 460.333L461.333 459.667z"/>
<path style="fill:#a3bfa3; stroke:none;" d="M475 459L476 460L475 459M503 459L504 460L503 459z"/>
<path style="fill:#1c6a25; stroke:none;" d="M542 459L543 460L542 459z"/>
<path style="fill:#a3bfa3; stroke:none;" d="M567.333 459.667L567.667 460.333L567.333 459.667z"/>
<path style="fill:#1c6a25; stroke:none;" d="M200 460L201 461L200 460z"/>
<path style="fill:#a3bfa3; stroke:none;" d="M253.333 460.667L253.667 461.333L253.333 460.667M263 460L264 461L263 460M291 460L292 461L291 460M356.333 460.667L356.667 461.333L356.333 460.667M369.333 460.667L369.667 461.333L369.333 460.667M431 460L432 461L431 460z"/>
<path style="fill:#1c6a25; stroke:none;" d="M580.333 460.667L580.667 461.333L580.333 460.667M636 460L637 461L636 460z"/>
<path style="fill:#a3bfa3; stroke:none;" d="M202 461L203 462L202 461M332.333 461.667L332.667 462.333L332.333 461.667M474 461L475 462L474 461M502 461L503 462L502 461M203 462L204 463L203 462z"/>
<path style="fill:#1c6a25; stroke:none;" d="M253 462L254 463L253 462z"/>
<path style="fill:#a3bfa3; stroke:none;" d="M262 462L263 463L262 462M290 462L291 463L290 462z"/>
<path style="fill:#1c6a25; stroke:none;" d="M394 462L395 463L394 462z"/>
<path style="fill:#a3bfa3; stroke:none;" d="M432 462L433 463L432 462M543 462L544 463L543 462M580.333 462.667L580.667 463.333L580.333 462.667M205 463L206 464L205 463M473 463L474 464L473 463M501 463L502 464L501 463z"/>
<path style="fill:#1c6a25; stroke:none;" d="M543 463L544 464L543 463M568 463L569 464L568 463z"/>
<path style="fill:#a3bfa3; stroke:none;" d="M207 464L208 465L207 464M261 464L262 465L261 464M289 464L290 465L289 464z"/>
<path style="fill:#1c6a25; stroke:none;" d="M357 464L358 465L357 464z"/>
<path style="fill:#a3bfa3; stroke:none;" d="M433 464L434 465L433 464M460.333 464.667L460.667 465.333L460.333 464.667M568.333 464.667L568.667 465.333L568.333 464.667M209 465L210 466L209 465M252 465L253 466L252 465M333.333 465.667L333.667 466.333L333.333 465.667M357.333 465.667L357.667 466.333L357.333 465.667M472 465L473 466L472 465M500 465L501 466L500 465M635.333 465.667L635.667 466.333L635.333 465.667z"/>
<path style="fill:#1c6a25; stroke:none;" d="M211 466L212 467L211 466z"/>
<path style="fill:#a3bfa3; stroke:none;" d="M250 466L251 467L250 466M260 466L261 467L260 466M288 466L289 467L288 466M393 466L394 467L393 466z"/>
<path style="fill:#1c6a25; stroke:none;" d="M434 466L435 467L434 466M460 466L461 467L460 466z"/>
<path style="fill:#a3bfa3; stroke:none;" d="M544 466L545 467L544 466z"/>
<path style="fill:#1c6a25; stroke:none;" d="M702 466L703 467L702 466z"/>
<path style="fill:#a3bfa3; stroke:none;" d="M214.667 467.333L215.333 467.667L214.667 467.333M247 467L248 468L247 467z"/>
<path style="fill:#1c6a25; stroke:none;" d="M248 467L249 468L248 467M435 467L435 468L460 468L435 467M472 467L472 468L499 468L472 467M545 467L545 468L569 468L545 467M581 467L581 468L635 468L617 467L581 467M217 468L218 469L217 468z"/>
<path style="fill:#a3bfa3; stroke:none;" d="M218.667 468.333L219.333 468.667L218.667 468.333M243 468L244 469L243 468z"/>
<path style="fill:#1c6a25; stroke:none;" d="M244 468L245 469L244 468M222 469L223 470L222 469z"/>
<path style="fill:#a3bfa3; stroke:none;" d="M223 469L223 470L226 470L223 469M235 469L235 470L239 470L235 469z"/>
<path style="fill:#1c6a25; stroke:none;" d="M239 469L240 470L239 469M763 481L763 499L287 499L287 500L827 499L827 627L867 624L854 473L763 481z"/>
<path style="fill:#0fa50d; stroke:none;" d="M287 500L287 610L287 638L288.028 649.397L297 651L321 651L420 651L827 650L827 499L287 500z"/>
<path style="fill:#a3bfa3; stroke:none;" d="M517 521L517 522L529 522L517 521z"/>
<path style="fill:#1c6a25; stroke:none;" d="M286 522L256 525C256 562.47 260.879 601.779 265.285 639C266.347 647.965 266.97 657.008 267.83 666C268.082 668.637 267.221 673.103 269.603 674.971C273.132 677.739 284.719 674.986 289 674.424C305.374 672.275 322.502 670.841 339 670.039C409.854 666.594 481.069 652 552 652L552 651L353 651L305 651C300.688 651 290.803 652.841 288.028 648.682C283.719 642.225 287 624.676 287 617L287 551C287 542.466 289.306 529.879 286 522z"/>
<path style="fill:#a3bfa3; stroke:none;" d="M355 522L355 523L367 523L355 522M512.667 522.333L513.333 522.667L512.667 522.333z"/>
<path style="fill:#fefefe; stroke:none;" d="M514 522.439C456.338 531.519 471.938 619.746 529 611.572C536.925 610.437 544.211 608.271 551 603.91C574.007 589.133 577.195 554.269 557.96 535.04C546.637 523.721 529.5 519.998 514 522.439z"/>
<path style="fill:#a3bfa3; stroke:none;" d="M533.667 522.333L534.333 522.667L533.667 522.333M351.667 523.333L352.333 523.667L351.667 523.333z"/>
<path style="fill:#fefefe; stroke:none;" d="M338 584L330 602C352.422 616.651 395.273 612.826 389.56 577C386.409 557.241 367.694 563.04 357.322 551.66C350.569 544.251 363.068 539.414 369 541.228C372.465 542.287 375.452 544.188 379 545L386 529C362.963 516.731 323.561 525.287 334.055 559C338.998 574.879 357.021 569.223 365.552 580.108C370.069 585.872 364.054 592.014 358 592.5C350.401 593.11 344.033 587.72 338 584z"/>
<path style="fill:#a3bfa3; stroke:none;" d="M370.667 523.333L371.333 523.667L370.667 523.333M508 523L509 524L508 523M537.667 523.333L538.333 523.667L537.667 523.333M348.667 524.333L349.333 524.667L348.667 524.333M375 524L376 525L375 524M405 524L405 609L406 609L406 525L446 525C435.25 520.489 416.696 524 405 524M505 524L506 525L505 524M541 524L542 525L541 524M589 527L590 527C597.12 521.606 615.175 525 624 525C617.861 521.463 604.213 524 597 524C593.47 524 589.855 523.008 589 527M657 524L657 543L658 543L658 525L715 525L715 543L716 543L716 524L657 524M755 524L755 525L760 525L755 524z"/>
<path style="fill:#fefefe; stroke:none;" d="M732 555L753 555C753.281 543.052 768.291 536.449 770.768 551C772.006 558.274 767.079 565.409 763.09 571C753.49 584.458 739.718 595.062 731 609L776 609L791.972 607.397L793 591L769 591C776.395 583.544 785.398 574.891 789.37 565C802.642 531.955 754.164 507.342 736.363 538C733.388 543.125 732.252 549.149 732 555z"/>
<path style="fill:#a3bfa3; stroke:none;" d="M765 524L765 525L768 525L765 524M346 525L347 526L346 525M378 525L379 526L378 525z"/>
<path style="fill:#fefefe; stroke:none;" d="M406 525L406 609L426 609L426 581C435.751 581 448.511 582.024 456.996 576.298C471.837 566.281 470.842 539.411 456.91 529.224C444.725 520.314 420.448 525 406 525z"/>
<path style="fill:#a3bfa3; stroke:none;" d="M449 525L450 526L449 525M503 525L504 526L503 525M543 525L544 526L543 525z"/>
<path style="fill:#fefefe; stroke:none;" d="M580 609L599.258 607.972L601.424 600L604 576L625.329 607.972L649 609L629 576C645.652 569.03 655.249 543.794 638.957 530.394C630.725 523.622 618.903 525 609 525C604.551 525 594.356 523.106 590.742 526.028C586.917 529.121 587.477 542.308 586.95 547C584.654 567.446 580.014 588.416 580 609z"/>
<path style="fill:#a3bfa3; stroke:none;" d="M627.667 525.333L628.333 525.667L627.667 525.333z"/>
<path style="fill:#fefefe; stroke:none;" d="M658 525L658 543L676 543L676 609L697 609L697 543L715 543L715 525L658 525z"/>
<path style="fill:#a3bfa3; stroke:none;" d="M752 525L753 526L752 525M771 525L772 526L771 525M380.667 526.333L381.333 526.667L380.667 526.333M452 526L453 527L452 526M501 526L502 527L501 526M545 526L546 527L545 526M631.667 526.333L632.333 526.667L631.667 526.333M749 526L750 527L749 526M774 526L775 527L774 526M343 527L344 528L343 527M383 527L384 528L383 527M454 527L455 528L454 527M499 527L500 528L499 527M547 527L548 528L547 527M634 527L635 528L634 527M747 527L748 528L747 527M776 527L777 528L776 527M342 528L343 529L342 528M385 528L386 529L385 528M497 528L498 529L497 528M549 528L550 529L549 528M636 528L637 529L636 528M745 528L746 529L745 528M778 528L779 529L778 528M386 529L387 530L386 529M457 529L458 530L457 529M551 529L552 530L551 529M458 530L459 531L458 530M494 530L495 531L494 530M552 530L553 531L552 530M639 530L640 531L639 530M742 530L743 531L742 530M781 530L782 531L781 530M385 531L386 532L385 531M588 531L588 535L589 535L588 531M640 531L641 532L640 531M741 531L742 532L741 531M782 531L783 532L782 531M338 532L339 533L338 532M460 532L461 533L460 532M555 532L556 533L555 532M641 532L642 533L641 532M740 532L741 533L740 532M783 532L784 533L783 532M337 533L338 534L337 533M384 533L385 534L384 533M461 533L462 534L461 533M556 533L557 534L556 533M739 533L740 534L739 533M784 533L785 534L784 533M462 534L463 535L462 534M557 534L558 535L557 534M785 534L786 535L785 534M336 535L337 536L336 535M383 535L384 536L383 535M558 535L559 536L558 535M643 535L644 536L643 535M559 536L560 537L559 536M335 537L336 538L335 537M382 537L383 538L382 537M464 537L465 538L464 537M560 537L561 538L560 537M644 537L645 538L644 537M736 537L737 538L736 537M787 537L788 538L787 537M334 539L335 540L334 539M381 539L382 540L381 539M465 539L466 540L465 539M485 539L486 540L485 539M587 539L587 543L588 543L587 539M645.333 539.667L645.667 540.333L645.333 539.667M735 539L736 540L735 539M362 540L362 541L367 541L362 540M484 540L485 541L484 540M562 540L563 541L562 540M359 541L360 542L359 541M369.667 541.333L370.333 541.667L369.667 541.333M380 541L381 542L380 541M518.667 541.333L519.333 541.667L518.667 541.333z"/>
<path style="fill:#0fa50d; stroke:none;" d="M520 541.465C487.316 547.203 496.7 595.345 529 589.671C559.302 584.348 550.343 536.139 520 541.465z"/>
<path style="fill:#a3bfa3; stroke:none;" d="M527 541L527 542L530 542L527 541M563 541L564 542L563 541M734 541L735 542L734 541M789 541L790 542L789 541M333.333 542.667L333.667 543.333L333.333 542.667M372 542L373 543L372 542M426 542L426 563L427 563L426 542z"/>
<path style="fill:#0fa50d; stroke:none;" d="M427 542L427 563C431.151 563 436.145 563.661 439.956 561.682C445.792 558.652 446.983 548.92 441.772 544.703C437.72 541.424 431.866 542 427 542z"/>
<path style="fill:#a3bfa3; stroke:none;" d="M437.667 542.333L438.333 542.667L437.667 542.333M466.333 542.667L466.667 543.333L466.333 542.667M483 542L484 543L483 542M514.667 542.333L515.333 542.667L514.667 542.333M532 542L533 543L532 542M608 546L609 546L609 543L617 543C613.117 541.375 609.409 541.755 608 546M758.667 542.333L759.333 542.667L758.667 542.333M764 542L765 543L764 542M356 543L357 544L356 543M374 543L375 544L374 543M379 543L380 544L379 543M440 543L441 544L440 543M512 543L513 544L512 543M534 543L535 544L534 543M564 543L565 544L564 543z"/>
<path style="fill:#0fa50d; stroke:none;" d="M609 543L606 561C614.075 563.04 633.702 553.693 621.772 545.009C618.185 542.399 613.18 543 609 543z"/>
<path style="fill:#a3bfa3; stroke:none;" d="M619 543L620 544L619 543M646 543L646 546L647 546L646 543M675 543L675 609L676 609L676 564L675 543M697 543L697 608L698 608L698 564L697 543M756 543L757 544L756 543M766 543L767 544L766 543M790 543L791 544L790 543M442 544L443 545L442 544M510 544L511 545L510 544M536 544L537 545L536 544M621 544L622 545L621 544M733 544L734 545L733 544M755 544L756 545L755 544M767 544L768 545L767 544M355 545L356 546L355 545M377.667 545.333L378.333 545.667L377.667 545.333M443 545L444 546L443 545M481 545L482 546L481 545M509 545L510 546L509 545M768 545L769 546L768 545M467 546L467 551L468 551L467 546M539 546L540 547L539 546M754 546L755 547L754 546M769 546L770 547L769 546M444 547L445 548L444 547M480 547L481 548L480 547M506 547L507 548L506 547M540 547L541 548L540 547M566 547L567 548L566 547M586 547L586 551L587 551L586 547M624 547L625 548L624 547M732 547L732 550L733 550L732 547M791.333 547.667L791.667 548.333L791.333 547.667M505 548L506 549L505 548M541 548L542 549L541 548M753.333 548.667L753.667 549.333L753.333 548.667M770.333 548.667L770.667 549.333L770.333 548.667M355.333 549.667L355.667 550.333L355.333 549.667M542 549L543 550L542 549M567 549L568 550L567 549M332.333 550.667L332.667 551.333L332.333 550.667M445 550L445 555L446 555L445 550M479 550L480 551L479 550M543 550L544 551L543 550M607 550L607 553L608 553L607 550M356 551L357 552L356 551M568.333 551.667L568.667 552.333L568.333 551.667M357 552L358 553L357 552M502 552L503 553L502 552M478 553L479 554L478 553M545 553L546 554L545 553M360 554L361 555L360 554M467 554L467 559L468 559L467 554M501 554L502 555L501 554M624 554L625 555L624 554M646 554L646 557L647 557L646 554M363 555L364 556L363 555M546 555L547 556L546 555M569 555L570 556L569 555M732 555L732 556L753 556L732 555M366.667 556.333L367.333 556.667L366.667 556.333M477.333 556.667L477.667 557.333L477.333 556.667M500 556L501 557L500 556M585 556L585 559L586 559L585 556M623 556L624 557L623 556M770.333 556.667L770.667 557.333L770.333 556.667M333.333 557.667L333.667 558.333L333.333 557.667M369.667 557.333L370.333 557.667L369.667 557.333M444 557L445 558L444 557M606 557L606 560L607 560L606 557M622 557L623 558L622 557M791.333 557.667L791.667 558.333L791.333 557.667M372.667 558.333L373.333 558.667L372.667 558.333M499.333 558.667L499.667 559.333L499.333 558.667M547 558L548 559L547 558M621 558L622 559L621 558M375 559L376 560L375 559M443 559L444 560L443 559M570 559L570 564L571 564L570 559M619 559L620 560L619 559M334.333 560.667L334.667 561.333L334.333 560.667M377 560L378 561L377 560M442 560L443 561L442 560M617 560L618 561L617 560M645 560L646 561L645 560M769 560L770 561L769 560M379 561L380 562L379 561M441 561L442 562L441 561M606 561L607 562L606 561M611 561L611 562L615 562L611 561M438.667 562.333L439.333 562.667L438.667 562.333M466.333 562.667L466.667 563.333L466.333 562.667M476 562L476 573L477 573L476 562M548 562L548 570L549 570L548 562M644.333 562.667L644.667 563.333L644.333 562.667M768 562L769 563L768 562M790 562L791 563L790 562M382 563L383 564L382 563M336 564L337 565L336 564M383 564L384 565L383 564M498 564L498 567L499 567L498 564M584 564L584 567L585 567L584 564M767 564L768 565L767 564M789.333 564.667L789.667 565.333L789.333 564.667M384 565L385 566L384 565M465 565L466 566L465 565M385 566L386 567L385 566M642 566L643 567L642 566M641 567L642 568L641 567M765 567L766 568L765 567M788 567L789 568L788 567M340 568L341 569L340 568M342 569L343 570L342 569M387 569L388 570L387 569M463 569L464 570L463 569M570 569L570 574L571 574L570 569M764 569L765 570L764 569M763 570L764 571L763 570M786 570L787 571L786 570M346 571L347 572L346 571M388 571L389 572L388 571M462 571L463 572L462 571M499.333 571.667L499.667 572.333L499.333 571.667M637 571L638 572L637 571M348.667 572.333L349.333 572.667L348.667 572.333M461 572L462 573L461 572M547.333 572.667L547.667 573.333L547.333 572.667M583 572L583 575L584 575L583 572M636 572L637 573L636 572M351.667 573.333L352.333 573.667L351.667 573.333M460 573L461 574L460 573M634 573L635 574L634 573M761 573L762 574L761 573M784 573L785 574L784 573M355 574L356 575L355 574M389 574L389 577L390 577L389 574M459 574L460 575L459 574M500 574L501 575L500 574M632 574L633 575L632 574M760 574L761 575L760 574M783 574L784 575L783 574M358 575L359 576L358 575M458 575L459 576L458 575M546 575L547 576L546 575M630 575L631 576L630 575M782 575L783 576L782 575M361 576L362 577L361 576M477.333 576.667L477.667 577.333L477.333 576.667M604 576L604 578L606 576L604 576M629 576L630 577L629 576M363 577L364 578L363 577M455 577L456 578L455 577M501 577L502 578L501 577M545 577L546 578L545 577M569.333 577.667L569.667 578.333L569.333 577.667M758 577L759 578L758 577M364 578L365 579L364 578M452.667 578.333L453.333 578.667L452.667 578.333M502 578L503 579L502 578M606 578L607 579L606 578M630 578L631 579L630 578M757 578L758 579L757 578M449.667 579.333L450.333 579.667L449.667 579.333M544 579L545 580L544 579M756 579L757 580L756 579M779 579L780 580L779 579M366 580L367 581L366 580M441 580L441 581L447 581L441 580M478.333 580.667L478.667 581.333L478.333 580.667M503 580L504 581L503 580M543 580L544 581L543 580M582 580L582 584L583 584L582 580M778 580L779 581L778 580M426 581L426 609L427 609L426 581M504 581L505 582L504 581M568 581L569 582L568 581M608 581L609 582L608 581M632 581L633 582L632 581M777 581L778 582L777 581M367 582L367 586L368 586L367 582M505 582L506 583L505 582M776 582L777 583L776 582M479 583L480 584L479 583M506 583L507 584L506 583M567.333 583.667L567.667 584.333L567.333 583.667M603 583L603 586L604 586L603 583M609 583L610 584L609 583M633 583L634 584L633 583M753 583L754 584L753 583M507 584L508 585L507 584M634 584L635 585L634 584M752 584L753 585L752 584M337 585L338 586L337 585M340 585L341 586L340 585M389 585L389 588L390 588L389 585M480 585L481 586L480 585M508 585L509 586L508 585M538 585L539 586L538 585M751 585L752 586L751 585M341 586L342 587L341 586M537 586L538 587L537 586M566 586L567 587L566 586M611 586L612 587L611 586M635 586L636 587L635 586M750 586L751 587L750 586M336 587L337 588L336 587M481 587L482 588L481 587M511 587L512 588L511 587M535 587L536 588L535 587M344 588L345 589L344 588M366 588L367 589L366 588M513 588L514 589L513 588M533 588L534 589L533 588M565 588L566 589L565 588M581 588L581 592L582 592L581 588M612 588L613 589L612 588M771 588L772 589L771 588M335 589L336 590L335 589M346 589L347 590L346 589M365 589L366 590L365 589M482 589L483 590L482 589M516.667 589.333L517.333 589.667L516.667 589.333M530 589L531 590L530 589M637 589L638 590L637 589M770 589L771 590L770 589M348 590L349 591L348 590M364 590L365 591L364 590M520 590L520 591L527 591L520 590M769 590L770 591L769 590M334 591L335 592L334 591M350.667 591.333L351.333 591.667L350.667 591.333M362 591L363 592L362 591M388 591L389 592L388 591M483 591L484 592L483 591M563 591L564 592L563 591M602 591L602 595L603 595L602 591M614 591L615 592L614 591M355 592L355 593L360 593L355 592M484 592L485 593L484 592M639 592L640 593L639 592M333 593L334 594L333 593M615 593L616 594L615 593M744 593L745 594L744 593M387 594L388 595L387 594M561 594L562 595L561 594M640 594L641 595L640 594M743 594L744 595L743 594M332 595L333 596L332 595M486 595L487 596L486 595M560 595L561 596L560 595M641 595L642 596L641 595M742 595L743 596L742 595M487 596L488 597L487 596M559 596L560 597L559 596M580 596L580 600L581 600L580 596M617 596L618 597L617 596M741 596L742 597L741 596M331 597L332 598L331 597M488 597L489 598L488 597M642 597L643 598L642 597M740 597L741 598L740 597M385 598L386 599L385 598M489 598L490 599L489 598M618 598L619 599L618 598M739 598L740 599L739 598M330 599L331 600L330 599M490 599L491 600L490 599M601 599L601 603L602 603L601 599M491 600L492 601L491 600M555 600L556 601L555 600M644 600L645 601L644 600M329 601L330 602L329 601M554 601L555 602L554 601M620 601L621 602L620 601M553 602L554 603L553 602M332 603L333 604L332 603M495 603L496 604L495 603M551 603L552 604L551 603M621 603L622 604L621 603M646 603L647 604L646 603M550 604L551 605L550 604M579 604L579 609L580 609L579 604M335 605L336 606L335 605M378 605L379 606L378 605M498 605L499 606L498 605M548 605L549 606L548 605M647 605L648 606L647 605M733 605L734 606L733 605M338 606L339 607L338 606M376 606L377 607L376 606M500 606L501 607L500 606M546 606L547 607L546 606M623 606L624 607L623 606M648 606L649 607L648 606M732 606L733 607L732 606M340 607L341 608L340 607M374 607L375 608L374 607M502 607L503 608L502 607M544 607L545 608L544 607M600.333 607.667L600.667 608.333L600.333 607.667M731 607L732 608L731 607M343 608L344 609L343 608M372 608L373 609L372 608M504 608L505 609L504 608M542 608L543 609L542 608M624 608L625 609L624 608M649 608L650 609L649 608M730 608L731 609L730 608M792 608L793 609L792 608M346 609L347 610L346 609M369 609L370 610L369 609M507 609L508 610L507 609M539 609L540 610L539 609M350.667 610.333L351.333 610.667L350.667 610.333M364.667 610.333L365.333 610.667L364.667 610.333M510.667 610.333L511.333 610.667L510.667 610.333M535.667 610.333L536.333 610.667L535.667 610.333M515 611L515 612L518 612L515 611M529 611L529 612L532 612L529 611z"/>
<path style="fill:#1c6a25; stroke:none;" d="M566 650L566 651L827 651L803 650L750 650L566 650z"/>
</svg>
