<svg xmlns="http://www.w3.org/2000/svg" viewBox="0 0 283.46 283.46"><defs><style>.cls-1{fill:#26252a;}.cls-2,.cls-3{fill:#009cb5;}.cls-2{isolation:isolate;opacity:0.5;}.cls-4{fill:#fff;}</style></defs><g id="Layer_2" data-name="Layer 2"><g id="M7_Group" data-name="M7 Group"><g id="canalplusdomo"><rect class="cls-1" width="283.46" height="283.46"/><g id="logo"><polygon class="cls-2" points="236.29 131.66 240.94 172.04 120.88 186.03 116.31 145.65 236.29 131.66"/><rect class="cls-3" x="123.28" y="138.13" width="109.79" height="40.81"/><path d="M42.52,97.44H205.29v40.69H42.52Z"/><path class="cls-4" d="M68.37,128.79a.85.85,0,0,1-.19.42.71.71,0,0,1-.43.2,15.23,15.23,0,0,1-6.94,1c-5.89-.82-9.73-4.5-11-9a16.09,16.09,0,0,1,2.64-13.21A15.1,15.1,0,0,1,61,103.56a17.4,17.4,0,0,1,8.34.81,8.36,8.36,0,0,1,2.44,1.24,2,2,0,0,1,.62.43l-.2.62-.81,5.08a.85.85,0,0,1-.19.42s-.2,0-.62-.42a12.1,12.1,0,0,0-6.75-1.9c-2.63.19-5.89,1.62-6.93,5.07A7.64,7.64,0,0,0,59,122.66a8.93,8.93,0,0,0,5.5,1.63,10.92,10.92,0,0,0,4.07-1.24h.2a1.74,1.74,0,0,1,.62-.19v.42ZM85.85,111.7l-3.45,7.75v.19h5.27v-.19l-1.82-7.75m57-.24-.2.2-3.25,7.75-.2.19.2.2h5.08v-.2l-1.63-7.94v-.2M96.23,129.6H89.92v-.42l-1-3.88v-.19H80.15a.19.19,0,0,0-.19.19.68.68,0,0,0-.2.43l-1.82,3.68v.19H70.42v-.42l12.21-24.61.19-.2h8.34a.19.19,0,0,1,.19.2l5.31,24.84a.19.19,0,0,1-.19.19h-.24m27.48,0H117.2l-8.76-15.46h-.19L106,129.41v.19H99.49a.68.68,0,0,1-.19-.42l3.44-24.42v-.19a.71.71,0,0,1,.43-.2h6.94l.19.2v.19l8,13.64.19.2s.19,0,.19-.43l2.06-13.64v-.2h6.9v.2l-3.45,24.84v.19a3,3,0,0,1-.43,0m29.49,0h-6.31c-.2.2-.2,0-.2,0l-.19-.19-.81-3.88c0-.42-.2-.42-.2-.42h-8.72a.68.68,0,0,0-.19.42l-1.82,3.88a.19.19,0,0,0-.2.19H127a.71.71,0,0,1,.2-.42l12.4-24.85.19-.19h7.95a.19.19,0,0,1,.19.19l5.31,25-.08.23m17.91-.42v.42H156.27s-.2-.19,0-.62l3.44-24.22v-.43h7.14v.2l-2.64,19.14a.19.19,0,0,0,.19.2h7.33a.19.19,0,0,1,.19.19v.19Zm27.28-9.58a.19.19,0,0,1-.19.2h-8.95a.19.19,0,0,0-.2.19v9.57h-7.32V119.8h-9.34v-7.37h9.38v-8.52h7.32v8.33H198c.43,0,.43.19.43.19v6.9l-.08.27"/><path class="cls-4" d="M131.58,169.6h8.87a12,12,0,1,0,0-24h-8.87Zm6.28-18.72h1.47c4,0,6.86,2.4,6.86,6.7,0,4.69-3.18,6.71-6.94,6.71h-1.39Z"/><path class="cls-4" d="M164.83,152.82c-5.12,0-9.53,3.14-9.53,8.64s4.49,8.6,9.53,8.6,9.53-3.14,9.53-8.6S170,152.82,164.83,152.82Zm0,5a3.46,3.46,0,0,1,3.6,3.64,3.6,3.6,0,1,1-7.2,0A3.46,3.46,0,0,1,164.83,157.78Z"/><path class="cls-4" d="M183.24,153.55h-5.78v16h5.78v-7.68c0-1.78,0-4.49,2.56-4.49s2.55,2.71,2.55,4.49v7.68h5.78v-7.68c0-1.9.08-4.38,2.75-4.38,2.44,0,2.36,2.72,2.36,4.38v7.68H205V159.37c0-3.69-1.43-6.36-5.54-6.36a6.23,6.23,0,0,0-5.51,3.06,5.91,5.91,0,0,0-5.54-3.06,6,6,0,0,0-5.11,2.52h-.08Z"/><path class="cls-4" d="M217.73,152.85c-5.11,0-9.61,3.11-9.61,8.61s4.5,8.6,9.61,8.6,9.61-3.1,9.61-8.6S222.85,152.85,217.73,152.85Zm0,5a3.49,3.49,0,0,1,3.64,3.64,3.64,3.64,0,0,1-7.28,0A3.47,3.47,0,0,1,217.73,157.82Z"/></g></g></g></g></svg>