<?xml version="1.0" standalone="yes"?>
<svg xmlns="http://www.w3.org/2000/svg" width="1024" height="1024">
<path style="fill:#252429; stroke:none;" d="M0 0L0 1024L1024 1024L1024 0L0 0z"/>
<path style="fill:#54a665; stroke:none;" d="M227.667 371.333L228.333 371.667L227.667 371.333z"/>
<path style="fill:#94b79b; stroke:none;" d="M229 371L229 372L240 372L229 371z"/>
<path style="fill:#54a665; stroke:none;" d="M240.667 371.333L241.333 371.667L240.667 371.333z"/>
<path style="fill:#94b79b; stroke:none;" d="M221.667 372.333L222.333 372.667L221.667 372.333z"/>
<path style="fill:#fefefe; stroke:none;" d="M255 443C242.609 445.867 230.663 450.773 219.004 442.362C197.764 427.039 212.137 397 235 394.293C245.048 393.104 253.074 398.752 262 402L266 380C255.181 374.331 245.17 371.999 233 372C223.15 372.001 214.605 373.892 206 378.876C180.47 393.662 173.82 435.473 195.174 456.826C205.698 467.35 222.494 471.675 237 469.41C240.909 468.799 247.291 468.528 250.062 465.297C254.078 460.613 253.874 448.975 255 443z"/>
<path style="fill:#94b79b; stroke:none;" d="M245.667 372.333L246.333 372.667L245.667 372.333z"/>
<path style="fill:#54a665; stroke:none;" d="M247 372L248 373L247 372M217 373L218 374L217 373z"/>
<path style="fill:#94b79b; stroke:none;" d="M218 373L219 374L218 373M250 373L251 374L250 373z"/>
<path style="fill:#54a665; stroke:none;" d="M251 373L252 374L251 373z"/>
<path style="fill:#fefefe; stroke:none;" d="M667 373C667 379.622 670.241 398.552 665.397 403.397C660.237 408.557 639.107 405 632 405L632 431L667 431L667 467L693 467C693 458.878 689.487 440.123 694.028 433.318C699.571 425.011 719.158 435.705 726.397 429.972C729.216 427.739 728 421.151 728 418C728 414.672 729.175 408.385 726.972 405.603C725.109 403.25 720.617 404.001 718 404L693 404L693 373L667 373z"/>
<path style="fill:#94b79b; stroke:none;" d="M693 373L693 404L694 404L693 373z"/>
<path style="fill:#54a665; stroke:none;" d="M214 374L215 375L214 374z"/>
<path style="fill:#94b79b; stroke:none;" d="M253 374L254 375L253 374z"/>
<path style="fill:#54a665; stroke:none;" d="M254 374L255 375L254 374z"/>
<path style="fill:#94b79b; stroke:none;" d="M212 375L213 376L212 375M256 375L257 376L256 375z"/>
<path style="fill:#54a665; stroke:none;" d="M257 375L258 376L257 375z"/>
<path style="fill:#fefefe; stroke:none;" d="M259 467C266.241 467 278.119 469.299 284.787 466.397C290.134 464.07 289.686 455.99 294.214 452.603C299.729 448.478 314.325 450.727 320.996 451.019C331.055 451.461 325.918 461.454 331.728 465.972C336.062 469.343 348.646 467 354 467L335 375C327.717 375 310.666 371.819 304.637 376.028C298.7 380.173 294.956 393.594 291.753 400C281.086 421.334 265.598 444.096 259 467M378 375L366 467L390 467L398 410L420.694 450L431.379 466.397L455 467L468 376L443 375L436 427C425.841 418.298 419.478 400.612 412.85 389C410.627 385.107 408.338 378.536 404.471 376.028C398.749 372.316 384.719 375 378 375z"/>
<path style="fill:#94b79b; stroke:none;" d="M457 375L457 376L468 376L457 375z"/>
<path style="fill:#54a665; stroke:none;" d="M512 375L513 376L512 375z"/>
<path style="fill:#fefefe; stroke:none;" d="M467 467L493.61 465.972L504.105 451.603L535 451L538 467L562 467C559.077 444.369 553.233 421.249 548.119 399C546.886 393.635 546.686 379.54 542.262 376.028C538.179 372.787 515.334 373.45 511.966 377.318C505.236 385.046 501.335 397.837 496.753 407C486.83 426.846 475.527 446.52 467 467M586 375C585.383 404.91 578.482 437.58 573 467L628 467L630 447L602 447L612 375L586 375z"/>
<path style="fill:#94b79b; stroke:none;" d="M210 376L211 377L210 376M259 376L260 377L259 376M303 376L304 377L303 376z"/>
<path style="fill:#54a665; stroke:none;" d="M335 376L336 377L335 376z"/>
<path style="fill:#94b79b; stroke:none;" d="M405 376L406 377L405 376M543 376L544 377L543 376M208 377L209 378L208 377M261 377L262 378L261 377M335.333 377.667L335.667 378.333L335.333 377.667z"/>
<path style="fill:#54a665; stroke:none;" d="M377 377L378 378L377 377M406 377L407 378L406 377z"/>
<path style="fill:#94b79b; stroke:none;" d="M511 377L512 378L511 377M206 378L207 379L206 378z"/>
<path style="fill:#54a665; stroke:none;" d="M263 378L264 379L263 378z"/>
<path style="fill:#94b79b; stroke:none;" d="M302 378L303 379L302 378M377.333 378.667L377.667 379.333L377.333 378.667z"/>
<path style="fill:#54a665; stroke:none;" d="M442 378L443 379L442 378M585.333 378.667L585.667 379.333L585.333 378.667z"/>
<path style="fill:#94b79b; stroke:none;" d="M611.333 378.667L611.667 379.333L611.333 378.667z"/>
<path style="fill:#54a665; stroke:none;" d="M204 379L205 380L204 379z"/>
<path style="fill:#94b79b; stroke:none;" d="M264 379L265 380L264 379z"/>
<path style="fill:#54a665; stroke:none;" d="M407 379L408 380L407 379z"/>
<path style="fill:#94b79b; stroke:none;" d="M442.333 379.667L442.667 380.333L442.333 379.667M510 379L511 380L510 379M203 380L204 381L203 380M301 380L302 381L301 380M467.333 380.667L467.667 381.333L467.333 380.667z"/>
<path style="fill:#54a665; stroke:none;" d="M544 380L545 381L544 380z"/>
<path style="fill:#94b79b; stroke:none;" d="M585.333 380.667L585.667 381.333L585.333 380.667z"/>
<path style="fill:#54a665; stroke:none;" d="M611 380L612 381L611 380M201 381L202 382L201 381M336 381L337 382L336 381z"/>
<path style="fill:#94b79b; stroke:none;" d="M408 381L409 382L408 381M509 381L510 382L509 381M544 381L545 382L544 381M200 382L201 383L200 382M300 382L301 383L300 382M336 382L337 383L336 382z"/>
<path style="fill:#54a665; stroke:none;" d="M467 382L468 383L467 382z"/>
<path style="fill:#94b79b; stroke:none;" d="M199 383L200 384L199 383M265.333 383.667L265.667 384.333L265.333 383.667M409 383L410 384L409 383M508 383L509 384L508 383M299 384L300 385L299 384z"/>
<path style="fill:#54a665; stroke:none;" d="M376 384L377 385L376 384M410 384L411 385L410 384M441.333 384.667L441.667 385.333L441.333 384.667M265 385L266 386L265 385z"/>
<path style="fill:#94b79b; stroke:none;" d="M376.333 385.667L376.667 386.333L376.333 385.667M507 385L508 386L507 385M545.333 385.667L545.667 386.333L545.333 385.667z"/>
<path style="fill:#54a665; stroke:none;" d="M584.333 385.667L584.667 386.333L584.333 385.667z"/>
<path style="fill:#94b79b; stroke:none;" d="M610.333 385.667L610.667 386.333L610.333 385.667M298 386L299 387L298 386z"/>
<path style="fill:#54a665; stroke:none;" d="M337 386L338 387L337 386M411 386L412 387L411 386z"/>
<path style="fill:#94b79b; stroke:none;" d="M441.333 386.667L441.667 387.333L441.333 386.667M337 387L338 388L337 387M466.333 387.667L466.667 388.333L466.333 387.667M506 387L507 388L506 387M584.333 387.667L584.667 388.333L584.333 387.667z"/>
<path style="fill:#54a665; stroke:none;" d="M610.333 387.667L610.667 388.333L610.333 387.667z"/>
<path style="fill:#94b79b; stroke:none;" d="M297 388L298 389L297 388M412 388L413 389L412 388M193 389L194 390L193 389M264 389L265 390L264 389z"/>
<path style="fill:#54a665; stroke:none;" d="M466 389L467 390L466 389z"/>
<path style="fill:#94b79b; stroke:none;" d="M505 389L506 390L505 389z"/>
<path style="fill:#54a665; stroke:none;" d="M546 389L547 390L546 389M192 390L193 391L192 390M264 390L265 391L264 390z"/>
<path style="fill:#94b79b; stroke:none;" d="M296 390L297 391L296 390M413 390L414 391L413 390M546.333 390.667L546.667 391.333L546.333 390.667M338.333 391.667L338.667 392.333L338.333 391.667z"/>
<path style="fill:#54a665; stroke:none;" d="M375 391L376 392L375 391M414 391L415 392L414 391M440.333 391.667L440.667 392.333L440.333 391.667z"/>
<path style="fill:#94b79b; stroke:none;" d="M504 391L505 392L504 391M295 392L296 393L295 392M375.333 392.667L375.667 393.333L375.333 392.667z"/>
<path style="fill:#54a665; stroke:none;" d="M583.333 392.667L583.667 393.333L583.333 392.667z"/>
<path style="fill:#94b79b; stroke:none;" d="M609.333 392.667L609.667 393.333L609.333 392.667z"/>
<path style="fill:#54a665; stroke:none;" d="M190 393L191 394L190 393M415 393L416 394L415 393z"/>
<path style="fill:#94b79b; stroke:none;" d="M440.333 393.667L440.667 394.333L440.333 393.667M503 393L504 394L503 393M233.667 394.333L234.333 394.667L233.667 394.333z"/>
<path style="fill:#54a665; stroke:none;" d="M235 394L235 395L239 395L235 394z"/>
<path style="fill:#94b79b; stroke:none;" d="M239 394L239 395L242 395L239 394M263 394L264 395L263 394M294 394L295 395L294 394M465.333 394.667L465.667 395.333L465.333 394.667z"/>
<path style="fill:#54a665; stroke:none;" d="M547 394L548 395L547 394z"/>
<path style="fill:#94b79b; stroke:none;" d="M583.333 394.667L583.667 395.333L583.333 394.667z"/>
<path style="fill:#54a665; stroke:none;" d="M609.333 394.667L609.667 395.333L609.333 394.667z"/>
<path style="fill:#94b79b; stroke:none;" d="M189 395L190 396L189 395M228 395L229 396L228 395z"/>
<path style="fill:#54a665; stroke:none;" d="M229 395L230 396L229 395M245 395L246 396L245 395z"/>
<path style="fill:#94b79b; stroke:none;" d="M246 395L247 396L246 395z"/>
<path style="fill:#54a665; stroke:none;" d="M263 395L264 396L263 395M339 395L340 396L339 395z"/>
<path style="fill:#94b79b; stroke:none;" d="M416 395L417 396L416 395M502 395L503 396L502 395M547.333 395.667L547.667 396.333L547.333 395.667M225 396L226 397L225 396z"/>
<path style="fill:#54a665; stroke:none;" d="M226 396L227 397L226 396M249 396L250 397L249 396z"/>
<path style="fill:#94b79b; stroke:none;" d="M250 396L251 397L250 396M293 396L294 397L293 396M339 396L340 397L339 396z"/>
<path style="fill:#54a665; stroke:none;" d="M465 396L466 397L465 396z"/>
<path style="fill:#94b79b; stroke:none;" d="M188 397L189 398L188 397z"/>
<path style="fill:#54a665; stroke:none;" d="M223 397L224 398L223 397z"/>
<path style="fill:#94b79b; stroke:none;" d="M252 397L253 398L252 397M417 397L418 398L417 397M501 397L502 398L501 397M221 398L222 399L221 398z"/>
<path style="fill:#54a665; stroke:none;" d="M254 398L255 399L254 398z"/>
<path style="fill:#94b79b; stroke:none;" d="M292 398L293 399L292 398z"/>
<path style="fill:#54a665; stroke:none;" d="M374 398L375 399L374 398M418 398L419 399L418 398M439 398L440 399L439 398z"/>
<path style="fill:#94b79b; stroke:none;" d="M187 399L188 400L187 399M219 399L220 400L219 399z"/>
<path style="fill:#54a665; stroke:none;" d="M256 399L257 400L256 399z"/>
<path style="fill:#94b79b; stroke:none;" d="M262.333 399.667L262.667 400.333L262.333 399.667M374 399L374 402L375 402L374 399M439 399L439 402L440 402L439 399M500 399L501 400L500 399z"/>
<path style="fill:#54a665; stroke:none;" d="M548 399L549 400L548 399M582.333 399.667L582.667 400.333L582.333 399.667z"/>
<path style="fill:#94b79b; stroke:none;" d="M608 399L608 402L609 402L608 399M218 400L219 401L218 400M258 400L259 401L258 400M291 400L292 401L291 400z"/>
<path style="fill:#54a665; stroke:none;" d="M340 400L341 401L340 400M419 400L420 401L419 400z"/>
<path style="fill:#94b79b; stroke:none;" d="M548 400L549 401L548 400M186 401L187 402L186 401z"/>
<path style="fill:#54a665; stroke:none;" d="M217 401L218 402L217 401z"/>
<path style="fill:#94b79b; stroke:none;" d="M340 401L341 402L340 401M464.333 401.667L464.667 402.333L464.333 401.667M499 401L500 402L499 401M524 401L523 403L524 401M582.333 401.667L582.667 402.333L582.333 401.667z"/>
<path style="fill:#54a665; stroke:none;" d="M216 402L217 403L216 402M261 402L262 403L261 402z"/>
<path style="fill:#94b79b; stroke:none;" d="M290 402L291 403L290 402z"/>
<path style="fill:#252429; stroke:none;" d="M315 402L303 431L322 431L315 402z"/>
<path style="fill:#94b79b; stroke:none;" d="M420 402L421 403L420 402z"/>
<path style="fill:#54a665; stroke:none;" d="M524 402L525 403L524 402M608 402L609 403L608 402M185 403L186 404L185 403M215 403L216 404L215 403z"/>
<path style="fill:#94b79b; stroke:none;" d="M314 403L315 404L314 403M316.333 403.667L316.667 404.333L316.333 403.667z"/>
<path style="fill:#54a665; stroke:none;" d="M464.333 403.667L464.667 404.333L464.333 403.667z"/>
<path style="fill:#94b79b; stroke:none;" d="M498 403L499 404L498 403z"/>
<path style="fill:#252429; stroke:none;" d="M523 403L511 431L530 431L525 403L523 403z"/>
<path style="fill:#94b79b; stroke:none;" d="M185 404L186 405L185 404M214 404L215 405L214 404M289 404L290 405L289 404M421 404L422 405L421 404M522 404L523 405L522 404z"/>
<path style="fill:#54a665; stroke:none;" d="M549 404L550 405L549 404z"/>
<path style="fill:#94b79b; stroke:none;" d="M632 404L632 405L666 405L632 404M727 404L728 405L727 404M213 405L214 406L213 405z"/>
<path style="fill:#54a665; stroke:none;" d="M316 405L317 406L316 405z"/>
<path style="fill:#94b79b; stroke:none;" d="M341.333 405.667L341.667 406.333L341.333 405.667z"/>
<path style="fill:#54a665; stroke:none;" d="M373.333 405.667L373.667 406.333L373.333 405.667M438 405L439 406L438 405z"/>
<path style="fill:#94b79b; stroke:none;" d="M497 405L498 406L497 405M525.333 405.667L525.667 406.333L525.333 405.667M549 405L550 406L549 405z"/>
<path style="fill:#54a665; stroke:none;" d="M184 406L185 407L184 406z"/>
<path style="fill:#94b79b; stroke:none;" d="M288 406L289 407L288 406z"/>
<path style="fill:#54a665; stroke:none;" d="M313 406L314 407L313 406z"/>
<path style="fill:#94b79b; stroke:none;" d="M438.333 406.667L438.667 407.333L438.333 406.667M521 406L522 407L521 406z"/>
<path style="fill:#54a665; stroke:none;" d="M581 406L582 407L581 406z"/>
<path style="fill:#94b79b; stroke:none;" d="M184 407L185 408L184 407M212 407L213 408L212 407M373.333 407.667L373.667 408.333L373.333 407.667z"/>
<path style="fill:#54a665; stroke:none;" d="M423 407L424 408L423 407z"/>
<path style="fill:#94b79b; stroke:none;" d="M496 407L497 408L496 407M581 407L581 410L582 410L581 407M607.333 407.667L607.667 408.333L607.333 407.667M287 408L288 409L287 408M312 408L313 409L312 408M317 408L318 409L317 408M463.333 408.667L463.667 409.333L463.333 408.667M211 409L212 410L211 409z"/>
<path style="fill:#54a665; stroke:none;" d="M317 409L318 410L317 409M342 409L343 410L342 409z"/>
<path style="fill:#94b79b; stroke:none;" d="M424 409L425 410L424 409M495 409L496 410L495 409z"/>
<path style="fill:#54a665; stroke:none;" d="M520 409L521 410L520 409M550 409L551 410L550 409M607 409L608 410L607 409M183 410L184 411L183 410z"/>
<path style="fill:#94b79b; stroke:none;" d="M286 410L287 411L286 410M311 410L312 411L311 410M342.333 410.667L342.667 411.333L342.333 410.667M398 410L399 411L398 410z"/>
<path style="fill:#54a665; stroke:none;" d="M463.333 410.667L463.667 411.333L463.333 410.667z"/>
<path style="fill:#94b79b; stroke:none;" d="M526 410L527 411L526 410M550 410L551 411L550 410M183 411L184 412L183 411M210 411L211 412L210 411M397.333 411.667L397.667 412.333L397.333 411.667M425 411L426 412L425 411M494 411L495 412L494 411M519 411L520 412L519 411z"/>
<path style="fill:#54a665; stroke:none;" d="M526 411L527 412L526 411M210 412L211 413L210 412z"/>
<path style="fill:#94b79b; stroke:none;" d="M285 412L286 413L285 412M310 412L311 413L310 412M318.333 412.667L318.667 413.333L318.333 412.667z"/>
<path style="fill:#54a665; stroke:none;" d="M372.333 412.667L372.667 413.333L372.333 412.667M399 412L400 413L399 412M437 412L438 413L437 412M397.333 413.667L397.667 414.333L397.333 413.667z"/>
<path style="fill:#94b79b; stroke:none;" d="M437.333 413.667L437.667 414.333L437.333 413.667M493 413L494 414L493 413M518 413L519 414L518 413z"/>
<path style="fill:#54a665; stroke:none;" d="M580 413L581 414L580 413z"/>
<path style="fill:#94b79b; stroke:none;" d="M284 414L285 415L284 414z"/>
<path style="fill:#54a665; stroke:none;" d="M343 414L344 415L343 414z"/>
<path style="fill:#94b79b; stroke:none;" d="M372.333 414.667L372.667 415.333L372.333 414.667z"/>
<path style="fill:#54a665; stroke:none;" d="M400 414L401 415L400 414M427 414L428 415L427 414z"/>
<path style="fill:#94b79b; stroke:none;" d="M527.333 414.667L527.667 415.333L527.333 414.667M551.333 414.667L551.667 415.333L551.333 414.667M580 414L580 417L581 417L580 414M606.333 414.667L606.667 415.333L606.333 414.667z"/>
<path style="fill:#54a665; stroke:none;" d="M182.333 415.667L182.667 416.333L182.333 415.667z"/>
<path style="fill:#94b79b; stroke:none;" d="M209 415L210 416L209 415z"/>
<path style="fill:#54a665; stroke:none;" d="M309 415L310 416L309 415z"/>
<path style="fill:#94b79b; stroke:none;" d="M343 415L344 416L343 415M401 415L402 416L401 415M462.333 415.667L462.667 416.333L462.333 415.667M492 415L493 416L492 415M517 415L518 416L517 415z"/>
<path style="fill:#54a665; stroke:none;" d="M209 416L210 417L209 416z"/>
<path style="fill:#94b79b; stroke:none;" d="M283 416L284 417L283 416M428 416L429 417L428 416z"/>
<path style="fill:#54a665; stroke:none;" d="M517 416L518 417L517 416M527 416L528 417L527 416M606 416L607 417L606 416z"/>
<path style="fill:#94b79b; stroke:none;" d="M182 417L182 428L183 428L182 417M308 417L309 418L308 417M319 417L320 418L319 417M402 417L403 418L402 417z"/>
<path style="fill:#54a665; stroke:none;" d="M462.333 417.667L462.667 418.333L462.333 417.667z"/>
<path style="fill:#94b79b; stroke:none;" d="M491 417L492 418L491 417M282 418L283 419L282 418z"/>
<path style="fill:#54a665; stroke:none;" d="M319 418L320 419L319 418z"/>
<path style="fill:#94b79b; stroke:none;" d="M396.333 418.667L396.667 419.333L396.333 418.667M429 418L430 419L429 418z"/>
<path style="fill:#54a665; stroke:none;" d="M516 418L517 419L516 418M552 418L553 419L552 418z"/>
<path style="fill:#94b79b; stroke:none;" d="M307 419L308 420L307 419z"/>
<path style="fill:#54a665; stroke:none;" d="M344 419L345 420L344 419z"/>
<path style="fill:#94b79b; stroke:none;" d="M403 419L404 420L403 419z"/>
<path style="fill:#54a665; stroke:none;" d="M436 419L437 420L436 419z"/>
<path style="fill:#94b79b; stroke:none;" d="M490 419L491 420L490 419M528 419L529 420L528 419M552.333 419.667L552.667 420.333L552.333 419.667M281 420L282 421L281 420M344 420L345 421L344 420z"/>
<path style="fill:#54a665; stroke:none;" d="M371 420L372 421L371 420M396.333 420.667L396.667 421.333L396.333 420.667z"/>
<path style="fill:#94b79b; stroke:none;" d="M436.333 420.667L436.667 421.333L436.333 420.667M515 420L516 421L515 420z"/>
<path style="fill:#54a665; stroke:none;" d="M528 420L529 421L528 420M579 420L580 421L579 420z"/>
<path style="fill:#94b79b; stroke:none;" d="M306 421L307 422L306 421M320.333 421.667L320.667 422.333L320.333 421.667M371.333 421.667L371.667 422.333L371.333 421.667z"/>
<path style="fill:#54a665; stroke:none;" d="M404 421L405 422L404 421M431 421L432 422L431 421z"/>
<path style="fill:#94b79b; stroke:none;" d="M489 421L490 422L489 421M579 421L579 424L580 424L579 421M605.333 421.667L605.667 422.333L605.333 421.667M280 422L281 423L280 422z"/>
<path style="fill:#54a665; stroke:none;" d="M306 422L307 423L306 422z"/>
<path style="fill:#94b79b; stroke:none;" d="M461.333 422.667L461.667 423.333L461.333 422.667M514 422L515 423L514 422z"/>
<path style="fill:#54a665; stroke:none;" d="M345 423L346 424L345 423z"/>
<path style="fill:#94b79b; stroke:none;" d="M432 423L433 424L432 423M488 423L489 424L488 423z"/>
<path style="fill:#54a665; stroke:none;" d="M553 423L554 424L553 423M605 423L606 424L605 423z"/>
<path style="fill:#94b79b; stroke:none;" d="M279 424L280 425L279 424z"/>
<path style="fill:#54a665; stroke:none;" d="M305 424L306 425L305 424z"/>
<path style="fill:#94b79b; stroke:none;" d="M345.333 424.667L345.667 425.333L345.333 424.667M406 424L407 425L406 424z"/>
<path style="fill:#54a665; stroke:none;" d="M461.333 424.667L461.667 425.333L461.333 424.667z"/>
<path style="fill:#94b79b; stroke:none;" d="M513 424L514 425L513 424M529 424L530 425L529 424M553.333 424.667L553.667 425.333L553.333 424.667M395.333 425.667L395.667 426.333L395.333 425.667M433 425L434 426L433 425M487 425L488 426L487 425z"/>
<path style="fill:#54a665; stroke:none;" d="M513 425L514 426L513 425M529 425L530 426L529 425z"/>
<path style="fill:#94b79b; stroke:none;" d="M278 426L279 427L278 426M304 426L305 427L304 426M321 426L322 427L321 426M407 426L408 427L407 426M435 426L436 427L435 426z"/>
<path style="fill:#54a665; stroke:none;" d="M209 427L210 428L209 427M321 427L322 428L321 427M370 427L371 428L370 427M395.333 427.667L395.667 428.333L395.333 427.667z"/>
<path style="fill:#94b79b; stroke:none;" d="M486 427L487 428L486 427z"/>
<path style="fill:#54a665; stroke:none;" d="M512 427L513 428L512 427M578 427L579 428L578 427M182.333 428.667L182.667 429.333L182.333 428.667z"/>
<path style="fill:#94b79b; stroke:none;" d="M209.333 428.667L209.667 429.333L209.333 428.667M277 428L278 429L277 428M303 428L304 429L303 428z"/>
<path style="fill:#54a665; stroke:none;" d="M346 428L347 429L346 428z"/>
<path style="fill:#94b79b; stroke:none;" d="M370.333 428.667L370.667 429.333L370.333 428.667z"/>
<path style="fill:#54a665; stroke:none;" d="M408 428L409 429L408 428z"/>
<path style="fill:#94b79b; stroke:none;" d="M530.333 428.667L530.667 429.333L530.333 428.667z"/>
<path style="fill:#54a665; stroke:none;" d="M554 428L555 429L554 428z"/>
<path style="fill:#94b79b; stroke:none;" d="M578.333 428.667L578.667 429.333L578.333 428.667M604.333 428.667L604.667 429.333L604.333 428.667M346 429L347 430L346 429M460.333 429.667L460.667 430.333L460.333 429.667M485 429L486 430L485 429M511 429L512 430L511 429M554 429L555 430L554 429M276 430L277 431L276 430M322 430L323 431L322 430z"/>
<path style="fill:#54a665; stroke:none;" d="M409 430L410 431L409 430M530 430L531 431L530 430M604.333 430.667L604.667 431.333L604.333 430.667z"/>
<path style="fill:#94b79b; stroke:none;" d="M727 430L728 431L727 430z"/>
<path style="fill:#54a665; stroke:none;" d="M210 431L211 432L210 431z"/>
<path style="fill:#94b79b; stroke:none;" d="M410 431L411 432L410 431z"/>
<path style="fill:#54a665; stroke:none;" d="M460.333 431.667L460.667 432.333L460.333 431.667z"/>
<path style="fill:#94b79b; stroke:none;" d="M484 431L485 432L484 431M512 431L512 432L528 432L512 431M666 431L667 432L666 431z"/>
<path style="fill:#54a665; stroke:none;" d="M694 431L695 432L694 431z"/>
<path style="fill:#94b79b; stroke:none;" d="M210 432L211 433L210 432M275 432L276 433L275 432M394.333 432.667L394.667 433.333L394.333 432.667M693 432L693 467L694 467L693 432M183.333 433.667L183.667 434.333L183.333 433.667z"/>
<path style="fill:#54a665; stroke:none;" d="M347 433L348 434L347 433z"/>
<path style="fill:#94b79b; stroke:none;" d="M411 433L412 434L411 433M483 433L484 434L483 433z"/>
<path style="fill:#54a665; stroke:none;" d="M555 433L556 434L555 433z"/>
<path style="fill:#94b79b; stroke:none;" d="M211 434L212 435L211 434M274 434L275 435L274 434M347 434L348 435L347 434z"/>
<path style="fill:#54a665; stroke:none;" d="M369 434L370 435L369 434M394.333 434.667L394.667 435.333L394.333 434.667z"/>
<path style="fill:#94b79b; stroke:none;" d="M555 434L556 435L555 434z"/>
<path style="fill:#54a665; stroke:none;" d="M577 434L578 435L577 434z"/>
<path style="fill:#94b79b; stroke:none;" d="M369.333 435.667L369.667 436.333L369.333 435.667M412 435L413 436L412 435M482 435L483 436L482 435M577.333 435.667L577.667 436.333L577.333 435.667M603 435L603 438L604 438L603 435M273 436L274 437L273 436M459.333 436.667L459.667 437.333L459.333 436.667M213 437L214 438L213 437z"/>
<path style="fill:#54a665; stroke:none;" d="M348 437L349 438L348 437M413 437L414 438L413 437z"/>
<path style="fill:#94b79b; stroke:none;" d="M481 437L482 438L481 437M184 438L185 439L184 438z"/>
<path style="fill:#54a665; stroke:none;" d="M214 438L215 439L214 438M272 438L273 439L272 438z"/>
<path style="fill:#94b79b; stroke:none;" d="M348.333 438.667L348.667 439.333L348.333 438.667z"/>
<path style="fill:#54a665; stroke:none;" d="M459.333 438.667L459.667 439.333L459.333 438.667z"/>
<path style="fill:#94b79b; stroke:none;" d="M556.333 438.667L556.667 439.333L556.333 438.667z"/>
<path style="fill:#54a665; stroke:none;" d="M603 438L604 439L603 438M215 439L216 440L215 439z"/>
<path style="fill:#94b79b; stroke:none;" d="M393.333 439.667L393.667 440.333L393.333 439.667M480 439L481 440L480 439z"/>
<path style="fill:#54a665; stroke:none;" d="M216 440L217 441L216 440M271 440L272 441L271 440z"/>
<path style="fill:#94b79b; stroke:none;" d="M415 440L416 441L415 440M185 441L186 442L185 441z"/>
<path style="fill:#54a665; stroke:none;" d="M217 441L218 442L217 441M368 441L369 442L368 441M393.333 441.667L393.667 442.333L393.333 441.667z"/>
<path style="fill:#94b79b; stroke:none;" d="M479 441L480 442L479 441z"/>
<path style="fill:#54a665; stroke:none;" d="M576 441L577 442L576 441z"/>
<path style="fill:#94b79b; stroke:none;" d="M218 442L219 443L218 442z"/>
<path style="fill:#54a665; stroke:none;" d="M254 442L255 443L254 442M270 442L271 443L270 442M349 442L350 443L349 442z"/>
<path style="fill:#94b79b; stroke:none;" d="M368.333 442.667L368.667 443.333L368.333 442.667M416 442L417 443L416 442z"/>
<path style="fill:#54a665; stroke:none;" d="M557 442L558 443L557 442z"/>
<path style="fill:#94b79b; stroke:none;" d="M576.333 442.667L576.667 443.333L576.333 442.667M186 443L187 444L186 443z"/>
<path style="fill:#54a665; stroke:none;" d="M220 443L221 444L220 443M251 443L252 444L251 443z"/>
<path style="fill:#94b79b; stroke:none;" d="M252 443L253 444L252 443M349 443L350 444L349 443M458.333 443.667L458.667 444.333L458.333 443.667M478 443L479 444L478 443M557.333 443.667L557.667 444.333L557.333 443.667M602.333 443.667L602.667 444.333L602.333 443.667z"/>
<path style="fill:#54a665; stroke:none;" d="M186 444L187 445L186 444M222 444L223 445L222 444z"/>
<path style="fill:#94b79b; stroke:none;" d="M249 444L250 445L249 444z"/>
<path style="fill:#54a665; stroke:none;" d="M269 444L270 445L269 444M417 444L418 445L417 444z"/>
<path style="fill:#94b79b; stroke:none;" d="M224 445L225 446L224 445z"/>
<path style="fill:#54a665; stroke:none;" d="M245 445L246 446L245 445z"/>
<path style="fill:#94b79b; stroke:none;" d="M246 445L247 446L246 445M254.333 445.667L254.667 446.333L254.333 445.667z"/>
<path style="fill:#54a665; stroke:none;" d="M458.333 445.667L458.667 446.333L458.333 445.667z"/>
<path style="fill:#94b79b; stroke:none;" d="M477 445L478 446L477 445z"/>
<path style="fill:#54a665; stroke:none;" d="M602 445L602 446L630 447L630 446L602 445M187 446L188 447L187 446z"/>
<path style="fill:#94b79b; stroke:none;" d="M227 446L228 447L227 446z"/>
<path style="fill:#54a665; stroke:none;" d="M228 446L229 447L228 446M241 446L242 447L241 446z"/>
<path style="fill:#94b79b; stroke:none;" d="M242.667 446.333L243.333 446.667L242.667 446.333z"/>
<path style="fill:#54a665; stroke:none;" d="M268 446L269 447L268 446z"/>
<path style="fill:#94b79b; stroke:none;" d="M392.333 446.667L392.667 447.333L392.333 446.667z"/>
<path style="fill:#54a665; stroke:none;" d="M418 446L419 447L418 446z"/>
<path style="fill:#94b79b; stroke:none;" d="M602 446L603 447L602 446M234 447L234 448L237 448L234 447z"/>
<path style="fill:#54a665; stroke:none;" d="M254 447L255 448L254 447M350 447L351 448L350 447z"/>
<path style="fill:#94b79b; stroke:none;" d="M419 447L420 448L419 447M476 447L477 448L476 447z"/>
<path style="fill:#54a665; stroke:none;" d="M558 447L559 448L558 447M630 447L631 448L630 447M267 448L268 449L267 448z"/>
<path style="fill:#94b79b; stroke:none;" d="M350 448L351 449L350 448z"/>
<path style="fill:#54a665; stroke:none;" d="M367 448L368 449L367 448M392.333 448.667L392.667 449.333L392.333 448.667z"/>
<path style="fill:#94b79b; stroke:none;" d="M558.333 448.667L558.667 449.333L558.333 448.667z"/>
<path style="fill:#54a665; stroke:none;" d="M575 448L576 449L575 448z"/>
<path style="fill:#94b79b; stroke:none;" d="M189 449L190 450L189 449M367 449L367 452L368 452L367 449M420 449L421 450L420 449M475 449L476 450L475 449M575.333 449.667L575.667 450.333L575.333 449.667z"/>
<path style="fill:#54a665; stroke:none;" d="M266 450L267 451L266 450z"/>
<path style="fill:#94b79b; stroke:none;" d="M457.333 450.667L457.667 451.333L457.333 450.667z"/>
<path style="fill:#54a665; stroke:none;" d="M190 451L191 452L190 451z"/>
<path style="fill:#94b79b; stroke:none;" d="M253 451L254 452L253 451M421 451L422 452L421 451M474 451L475 452L474 451M534 451L535 452L534 451M191 452L192 453L191 452z"/>
<path style="fill:#54a665; stroke:none;" d="M253 452L254 453L253 452M265 452L266 453L265 452z"/>
<path style="fill:#94b79b; stroke:none;" d="M351.333 452.667L351.667 453.333L351.333 452.667z"/>
<path style="fill:#54a665; stroke:none;" d="M457.333 452.667L457.667 453.333L457.333 452.667M559 452L560 453L559 452z"/>
<path style="fill:#94b79b; stroke:none;" d="M629.333 452.667L629.667 453.333L629.333 452.667M192 453L193 454L192 453M292 453L293 454L292 453M327 453L328 454L327 453M391 453L391 456L392 456L391 453z"/>
<path style="fill:#54a665; stroke:none;" d="M422 453L423 454L422 453z"/>
<path style="fill:#94b79b; stroke:none;" d="M473 453L474 454L473 453M559 453L560 454L559 453z"/>
<path style="fill:#54a665; stroke:none;" d="M264 454L265 455L264 454M327 454L328 455L327 454M500 454L501 455L500 454z"/>
<path style="fill:#94b79b; stroke:none;" d="M535 454L536 455L535 454z"/>
<path style="fill:#54a665; stroke:none;" d="M629.333 454.667L629.667 455.333L629.333 454.667z"/>
<path style="fill:#94b79b; stroke:none;" d="M291 455L292 456L291 455z"/>
<path style="fill:#54a665; stroke:none;" d="M366.333 455.667L366.667 456.333L366.333 455.667z"/>
<path style="fill:#94b79b; stroke:none;" d="M472 455L473 456L472 455z"/>
<path style="fill:#54a665; stroke:none;" d="M535 455L536 456L535 455M574 455L575 456L574 455z"/>
<path style="fill:#94b79b; stroke:none;" d="M252.333 456.667L252.667 457.333L252.333 456.667z"/>
<path style="fill:#54a665; stroke:none;" d="M263 456L264 457L263 456M352 456L353 457L352 456M391 456L392 457L391 456z"/>
<path style="fill:#94b79b; stroke:none;" d="M424 456L425 457L424 456z"/>
<path style="fill:#54a665; stroke:none;" d="M499 456L500 457L499 456z"/>
<path style="fill:#94b79b; stroke:none;" d="M574.333 456.667L574.667 457.333L574.333 456.667M290 457L291 458L290 457M328 457L329 458L328 457M352.333 457.667L352.667 458.333L352.333 457.667M366.333 457.667L366.667 458.333L366.333 457.667M456 457L456 460L457 460L456 457M471 457L472 458L471 457z"/>
<path style="fill:#54a665; stroke:none;" d="M560 457L561 458L560 457M252 458L253 459L252 458M262 458L263 459L262 458M328 458L329 459L328 458z"/>
<path style="fill:#94b79b; stroke:none;" d="M425 458L426 459L425 458z"/>
<path style="fill:#54a665; stroke:none;" d="M498 458L499 459L498 458z"/>
<path style="fill:#94b79b; stroke:none;" d="M560 458L561 459L560 458M198 459L199 460L198 459M470 459L471 460L470 459M536 459L537 460L536 459M199 460L200 461L199 460z"/>
<path style="fill:#54a665; stroke:none;" d="M261 460L262 461L261 460M289 460L290 461L289 460z"/>
<path style="fill:#94b79b; stroke:none;" d="M390 460L390 463L391 463L390 460z"/>
<path style="fill:#54a665; stroke:none;" d="M426 460L427 461L426 460M456 460L457 461L456 460z"/>
<path style="fill:#94b79b; stroke:none;" d="M497 460L498 461L497 460z"/>
<path style="fill:#54a665; stroke:none;" d="M536 460L537 461L536 460z"/>
<path style="fill:#94b79b; stroke:none;" d="M628.333 460.667L628.667 461.333L628.333 460.667z"/>
<path style="fill:#54a665; stroke:none;" d="M200 461L201 462L200 461z"/>
<path style="fill:#94b79b; stroke:none;" d="M329 461L330 462L329 461z"/>
<path style="fill:#54a665; stroke:none;" d="M353 461L354 462L353 461z"/>
<path style="fill:#94b79b; stroke:none;" d="M469 461L470 462L469 461M202 462L203 463L202 462M251.333 462.667L251.667 463.333L251.333 462.667z"/>
<path style="fill:#54a665; stroke:none;" d="M260 462L261 463L260 462M288 462L289 463L288 462M329 462L330 463L329 462z"/>
<path style="fill:#94b79b; stroke:none;" d="M353 462L354 463L353 462z"/>
<path style="fill:#54a665; stroke:none;" d="M365.333 462.667L365.667 463.333L365.333 462.667z"/>
<path style="fill:#94b79b; stroke:none;" d="M496 462L497 463L496 462z"/>
<path style="fill:#54a665; stroke:none;" d="M561 462L562 463L561 462M573 462L574 463L573 462M628 462L629 463L628 462M390 463L391 464L390 463z"/>
<path style="fill:#94b79b; stroke:none;" d="M428 463L429 464L428 463M468 463L469 464L468 463M537.333 463.667L537.667 464.333L537.333 463.667M561 463L562 464L561 463M573.333 463.667L573.667 464.333L573.333 463.667z"/>
<path style="fill:#54a665; stroke:none;" d="M205 464L206 465L205 464M251 464L252 465L251 464M259 464L260 465L259 464z"/>
<path style="fill:#94b79b; stroke:none;" d="M287 464L288 465L287 464M365 464L365 467L366 467L365 464M455.333 464.667L455.667 465.333L455.333 464.667M495 464L496 465L495 464z"/>
<path style="fill:#54a665; stroke:none;" d="M207 465L208 466L207 465z"/>
<path style="fill:#94b79b; stroke:none;" d="M330.333 465.667L330.667 466.333L330.333 465.667M429 465L430 466L429 465M467 465L468 466L467 465z"/>
<path style="fill:#54a665; stroke:none;" d="M537 465L538 466L537 465z"/>
<path style="fill:#94b79b; stroke:none;" d="M210 466L211 467L210 466M249 466L250 467L249 466M286 466L287 467L286 466z"/>
<path style="fill:#54a665; stroke:none;" d="M354 466L355 467L354 466M455 466L456 467L455 466z"/>
<path style="fill:#94b79b; stroke:none;" d="M494 466L495 467L494 466z"/>
<path style="fill:#54a665; stroke:none;" d="M212 467L213 468L212 467z"/>
<path style="fill:#94b79b; stroke:none;" d="M213 467L214 468L213 467M246 467L247 468L246 467z"/>
<path style="fill:#54a665; stroke:none;" d="M331 467L331 468L348 468L331 467z"/>
<path style="fill:#94b79b; stroke:none;" d="M431 467L431 468L455 468L431 467M467 467L467 468L493 468L467 467z"/>
<path style="fill:#54a665; stroke:none;" d="M493 467L494 468L493 467z"/>
<path style="fill:#94b79b; stroke:none;" d="M538 467L538 468L562 468L538 467z"/>
<path style="fill:#54a665; stroke:none;" d="M574 467L575 468L574 467z"/>
<path style="fill:#94b79b; stroke:none;" d="M575 467L575 468L627 468L610 467L575 467z"/>
<path style="fill:#54a665; stroke:none;" d="M667 467L667 468L693 468L667 467z"/>
<path style="fill:#94b79b; stroke:none;" d="M216.667 468.333L217.333 468.667L216.667 468.333M242 468L243 469L242 468z"/>
<path style="fill:#54a665; stroke:none;" d="M243 468L244 469L243 468M220 469L221 470L220 469z"/>
<path style="fill:#94b79b; stroke:none;" d="M221.667 469.333L222.333 469.667L221.667 469.333M236.667 469.333L237.333 469.667L236.667 469.333z"/>
<path style="fill:#54a665; stroke:none;" d="M238.667 469.333L239.333 469.667L238.667 469.333z"/>
<path style="fill:#0f9a14; stroke:none;" d="M753 482L753 499L296 499L296 522L266 525C266.024 561.922 270.765 601.383 275.576 638C276.662 646.273 277.036 654.694 277.83 663C278.069 665.492 277.184 670.229 279.603 671.883C281.872 673.434 287.375 672.104 290 671.911C299.678 671.202 309.338 670.093 319 669.17C353.597 665.864 388.338 662.63 423 660.089C468.96 656.72 514.973 650.055 561 648.039C649.618 644.159 739.286 648 828 648L829.028 626.434L840 623.83L867 621L860.83 552L854 473C822.151 478.913 785.397 481.732 753 482z"/>
<path style="fill:#54a665; stroke:none;" d="M525 520L525 521L533 521L525 520M365 521L365 522L373 522L365 521M518 521L519 522L518 521z"/>
<path style="fill:#94b79b; stroke:none;" d="M519.667 521.333L520.333 521.667L519.667 521.333z"/>
<path style="fill:#fefefe; stroke:none;" d="M521 521.439C514.624 522.443 508.447 524.604 503 528.09C462.788 553.83 488.955 616.183 535 609.572C542.821 608.449 550.409 606.085 557 601.64C577.952 587.512 581.526 554.865 564.815 536.004C554.252 524.082 536.562 518.99 521 521.439z"/>
<path style="fill:#94b79b; stroke:none;" d="M536 521L536 522L539 522L536 521z"/>
<path style="fill:#54a665; stroke:none;" d="M539 521L540 522L539 521M761 521L761 522L764 522L761 521M360 522L361 523L360 522z"/>
<path style="fill:#94b79b; stroke:none;" d="M361 522L362 523L361 522z"/>
<path style="fill:#fefefe; stroke:none;" d="M347 583L338 600C358.354 610.71 396.598 615.468 396.996 582C397.048 577.672 397.343 573.012 395.427 569C390.841 559.393 380.879 557.792 372 554.289C368.751 553.008 363.487 550.269 364.06 546.004C365.604 534.526 380.896 541.959 386 545L394 528C373.499 519.591 344.266 517.996 341.758 547C341.416 550.95 341.59 555.237 342.969 559C348.164 573.177 365.087 568.724 373.562 578.34C378.487 583.927 371.825 590.25 366 590.771C359.022 591.395 352.736 586.181 347 583z"/>
<path style="fill:#94b79b; stroke:none;" d="M376 522L376 523L379 523L376 522z"/>
<path style="fill:#54a665; stroke:none;" d="M379 522L380 523L379 522M514 522L515 523L514 522z"/>
<path style="fill:#94b79b; stroke:none;" d="M515 522L516 523L515 522M541.667 522.333L542.333 522.667L541.667 522.333z"/>
<path style="fill:#54a665; stroke:none;" d="M543 522L544 523L543 522M753 522L754 523L753 522z"/>
<path style="fill:#94b79b; stroke:none;" d="M754.667 522.333L755.333 522.667L754.667 522.333z"/>
<path style="fill:#fefefe; stroke:none;" d="M733 549L752 549C755.676 528.72 778.187 546.706 764.894 554.86C762.832 556.125 760.325 556.512 758 557L758 570C760.982 570.58 764.254 570.977 766.956 572.453C780.867 580.053 763.214 601.537 752.653 587.894C751.029 585.795 750.459 583.536 750 581L728 581C728.837 587.484 730.297 593.747 734.681 598.826C745.966 611.903 770.377 614.414 783.996 603.61C798.769 591.891 794.921 570.848 780 562C791.397 555.557 791.477 538.138 782.671 529.329C765.134 511.783 734.03 525.372 733 549z"/>
<path style="fill:#94b79b; stroke:none;" d="M768.667 522.333L769.333 522.667L768.667 522.333z"/>
<path style="fill:#54a665; stroke:none;" d="M770 522L771 523L770 522M357 523L358 524L357 523z"/>
<path style="fill:#94b79b; stroke:none;" d="M358 523L359 524L358 523M381.667 523.333L382.333 523.667L381.667 523.333z"/>
<path style="fill:#54a665; stroke:none;" d="M383 523L384 524L383 523M412 523L412 607L413 607L413 524L451 524C440.726 519.689 423.172 523 412 523M511 523L512 524L511 523z"/>
<path style="fill:#94b79b; stroke:none;" d="M512 523L513 524L512 523M545 523L546 524L545 523z"/>
<path style="fill:#54a665; stroke:none;" d="M546 523L547 524L546 523z"/>
<path style="fill:#94b79b; stroke:none;" d="M594 523L594 524L622 524L594 523z"/>
<path style="fill:#54a665; stroke:none;" d="M622 523L622 524L627 524L622 523z"/>
<path style="fill:#94b79b; stroke:none;" d="M661 523L661 524L718 524L700 523L661 523M750.667 523.333L751.333 523.667L750.667 523.333M773 523L774 524L773 523M355 524L356 525L355 524M385 524L386 525L385 524z"/>
<path style="fill:#54a665; stroke:none;" d="M386 524L387 525L386 524z"/>
<path style="fill:#fefefe; stroke:none;" d="M413 524L413 607L434 607L434 579C444.517 579 455.864 580.438 464.907 573.895C478.336 564.177 476.836 538.025 463.985 528.638C451.435 519.47 427.76 524 413 524z"/>
<path style="fill:#94b79b; stroke:none;" d="M454.667 524.333L455.333 524.667L454.667 524.333z"/>
<path style="fill:#54a665; stroke:none;" d="M456 524L457 525L456 524z"/>
<path style="fill:#94b79b; stroke:none;" d="M509 524L510 525L509 524M548 524L549 525L548 524z"/>
<path style="fill:#fefefe; stroke:none;" d="M594 524L584 607L605 607L609 575L610 575C613.579 582.657 622.231 603.047 630.185 606.397C636.249 608.95 646.462 607 653 607L633 574C650.487 568.951 657.939 540.584 641.907 529.108C629.413 520.165 608.504 524 594 524z"/>
<path style="fill:#94b79b; stroke:none;" d="M630.667 524.333L631.333 524.667L630.667 524.333z"/>
<path style="fill:#54a665; stroke:none;" d="M632 524L633 525L632 524z"/>
<path style="fill:#fefefe; stroke:none;" d="M661 524L661 542L679 542L679 607L700 607L700 542L718 542L718 524L661 524z"/>
<path style="fill:#54a665; stroke:none;" d="M718 524L718 542L719 542L718 524M747 524L748 525L747 524z"/>
<path style="fill:#94b79b; stroke:none;" d="M748 524L749 525L748 524M775 524L776 525L775 524z"/>
<path style="fill:#54a665; stroke:none;" d="M776 524L777 525L776 524M353 525L354 526L353 525z"/>
<path style="fill:#94b79b; stroke:none;" d="M388 525L389 526L388 525M458 525L459 526L458 525z"/>
<path style="fill:#54a665; stroke:none;" d="M459 525L460 526L459 525z"/>
<path style="fill:#94b79b; stroke:none;" d="M507 525L508 526L507 525M550 525L551 526L550 525z"/>
<path style="fill:#54a665; stroke:none;" d="M551 525L552 526L551 525M593.333 525.667L593.667 526.333L593.333 525.667z"/>
<path style="fill:#94b79b; stroke:none;" d="M634 525L635 526L634 525z"/>
<path style="fill:#54a665; stroke:none;" d="M635 525L636 526L635 525M745 525L746 526L745 525z"/>
<path style="fill:#94b79b; stroke:none;" d="M746 525L747 526L746 525M777 525L778 526L777 525z"/>
<path style="fill:#54a665; stroke:none;" d="M778 525L779 526L778 525z"/>
<path style="fill:#94b79b; stroke:none;" d="M352 526L353 527L352 526M390 526L391 527L390 526z"/>
<path style="fill:#54a665; stroke:none;" d="M391 526L392 527L391 526z"/>
<path style="fill:#94b79b; stroke:none;" d="M460 526L461 527L460 526z"/>
<path style="fill:#54a665; stroke:none;" d="M461 526L462 527L461 526z"/>
<path style="fill:#94b79b; stroke:none;" d="M505 526L506 527L505 526M552 526L553 527L552 526M637 526L638 527L637 526z"/>
<path style="fill:#54a665; stroke:none;" d="M638 526L639 527L638 526z"/>
<path style="fill:#94b79b; stroke:none;" d="M744 526L745 527L744 526M779 526L780 527L779 526z"/>
<path style="fill:#54a665; stroke:none;" d="M350 527L351 528L350 527z"/>
<path style="fill:#94b79b; stroke:none;" d="M392 527L393 528L392 527z"/>
<path style="fill:#54a665; stroke:none;" d="M393 527L394 528L393 527z"/>
<path style="fill:#94b79b; stroke:none;" d="M462 527L463 528L462 527z"/>
<path style="fill:#54a665; stroke:none;" d="M503 527L504 528L503 527z"/>
<path style="fill:#94b79b; stroke:none;" d="M554 527L555 528L554 527M593 527L593 530L594 530L593 527M639 527L640 528L639 527z"/>
<path style="fill:#54a665; stroke:none;" d="M640 527L641 528L640 527M742 527L743 528L742 527z"/>
<path style="fill:#94b79b; stroke:none;" d="M780 527L781 528L780 527z"/>
<path style="fill:#54a665; stroke:none;" d="M349 528L350 529L349 528M394 528L395 529L394 528M464 528L465 529L464 528z"/>
<path style="fill:#94b79b; stroke:none;" d="M502 528L503 529L502 528z"/>
<path style="fill:#54a665; stroke:none;" d="M556 528L557 529L556 528z"/>
<path style="fill:#94b79b; stroke:none;" d="M641 528L642 529L641 528z"/>
<path style="fill:#54a665; stroke:none;" d="M741 528L742 529L741 528M782 528L783 529L782 528M348 529L349 530L348 529M465 529L466 530L465 529M500 529L501 530L500 529z"/>
<path style="fill:#94b79b; stroke:none;" d="M557 529L558 530L557 529M642 529L643 530L642 529z"/>
<path style="fill:#54a665; stroke:none;" d="M740 529L741 530L740 529M783 529L784 530L783 529M347 530L348 531L347 530z"/>
<path style="fill:#94b79b; stroke:none;" d="M393 530L394 531L393 530z"/>
<path style="fill:#54a665; stroke:none;" d="M466 530L467 531L466 530z"/>
<path style="fill:#94b79b; stroke:none;" d="M499 530L500 531L499 530z"/>
<path style="fill:#54a665; stroke:none;" d="M559 530L560 531L559 530M739 530L740 531L739 530M467 531L468 532L467 531z"/>
<path style="fill:#94b79b; stroke:none;" d="M498 531L499 532L498 531z"/>
<path style="fill:#54a665; stroke:none;" d="M560 531L561 532L560 531z"/>
<path style="fill:#94b79b; stroke:none;" d="M784 531L785 532L784 531M346 532L347 533L346 532M392 532L393 533L392 532z"/>
<path style="fill:#54a665; stroke:none;" d="M468 532L469 533L468 532M561 532L562 533L561 532z"/>
<path style="fill:#94b79b; stroke:none;" d="M645 532L646 533L645 532M785 532L786 533L785 532M345 533L346 534L345 533z"/>
<path style="fill:#54a665; stroke:none;" d="M495 533L496 534L495 533z"/>
<path style="fill:#94b79b; stroke:none;" d="M562 533L563 534L562 533z"/>
<path style="fill:#54a665; stroke:none;" d="M592.333 533.667L592.667 534.333L592.333 533.667z"/>
<path style="fill:#94b79b; stroke:none;" d="M646 533L647 534L646 533M737 533L738 534L737 533z"/>
<path style="fill:#54a665; stroke:none;" d="M786 533L787 534L786 533z"/>
<path style="fill:#94b79b; stroke:none;" d="M391 534L392 535L391 534M469 534L470 535L469 534M563 534L564 535L563 534z"/>
<path style="fill:#54a665; stroke:none;" d="M647 534L648 535L647 534z"/>
<path style="fill:#94b79b; stroke:none;" d="M786 534L787 535L786 534M344 535L345 536L344 535z"/>
<path style="fill:#54a665; stroke:none;" d="M470 535L471 536L470 535M564 535L565 536L564 535z"/>
<path style="fill:#94b79b; stroke:none;" d="M592 535L592 538L593 538L592 535M647 535L648 536L647 535M736 535L737 536L736 535z"/>
<path style="fill:#54a665; stroke:none;" d="M787 535L788 536L787 535z"/>
<path style="fill:#94b79b; stroke:none;" d="M390 536L391 537L390 536z"/>
<path style="fill:#54a665; stroke:none;" d="M565 536L566 537L565 536M648 536L649 537L648 536M735 536L736 537L735 536z"/>
<path style="fill:#94b79b; stroke:none;" d="M787 536L788 537L787 536M343 537L344 538L343 537M471 537L472 538L471 537M492 537L493 538L492 537z"/>
<path style="fill:#54a665; stroke:none;" d="M566 537L567 538L566 537z"/>
<path style="fill:#94b79b; stroke:none;" d="M648 537L649 538L648 537M735 537L736 538L735 537M389 538L390 539L389 538z"/>
<path style="fill:#54a665; stroke:none;" d="M491 538L492 539L491 538M734 538L735 539L734 538M788 538L789 539L788 538M342 539L343 540L342 539z"/>
<path style="fill:#94b79b; stroke:none;" d="M371 539L371 540L374 540L371 539z"/>
<path style="fill:#54a665; stroke:none;" d="M472 539L473 540L472 539M490 539L491 540L490 539z"/>
<path style="fill:#94b79b; stroke:none;" d="M567 539L568 540L567 539z"/>
<path style="fill:#54a665; stroke:none;" d="M649 539L650 540L649 539z"/>
<path style="fill:#94b79b; stroke:none;" d="M734 539L735 540L734 539M757.667 539.333L758.333 539.667L757.667 539.333z"/>
<path style="fill:#54a665; stroke:none;" d="M759 539L759 540L763 540L759 539z"/>
<path style="fill:#94b79b; stroke:none;" d="M763.667 539.333L764.333 539.667L763.667 539.333M788.333 539.667L788.667 540.333L788.333 539.667M342 540L343 541L342 540M367 540L368 541L367 540z"/>
<path style="fill:#54a665; stroke:none;" d="M368 540L369 541L368 540M376 540L377 541L376 540z"/>
<path style="fill:#94b79b; stroke:none;" d="M377 540L378 541L377 540M388 540L389 541L388 540M472 540L473 541L472 540M524.667 540.333L525.333 540.667L524.667 540.333z"/>
<path style="fill:#54a665; stroke:none;" d="M526 540L526 541L529 541L526 540z"/>
<path style="fill:#0f9a14; stroke:none;" d="M529 540.711C496.726 541.151 498.914 588.773 531 587.985C561.181 587.244 559.14 540.301 529 540.711z"/>
<path style="fill:#54a665; stroke:none;" d="M530 540L530 541L533 541L530 540z"/>
<path style="fill:#94b79b; stroke:none;" d="M533.667 540.333L534.333 540.667L533.667 540.333z"/>
<path style="fill:#54a665; stroke:none;" d="M568 540L569 541L568 540z"/>
<path style="fill:#94b79b; stroke:none;" d="M649 540L650 541L649 540M755 540L756 541L755 540z"/>
<path style="fill:#54a665; stroke:none;" d="M756 540L757 541L756 540z"/>
<path style="fill:#94b79b; stroke:none;" d="M766 540L767 541L766 540z"/>
<path style="fill:#54a665; stroke:none;" d="M366 541L367 542L366 541M379 541L380 542L379 541z"/>
<path style="fill:#94b79b; stroke:none;" d="M380 541L381 542L380 541z"/>
<path style="fill:#0f9a14; stroke:none;" d="M434 541L434 561C438.237 561 444.013 561.982 447.786 559.682C453.243 556.357 453.125 546.7 447.775 543.314C444 540.924 438.311 541.036 434 541z"/>
<path style="fill:#54a665; stroke:none;" d="M441 541L441 542L444 542L441 541z"/>
<path style="fill:#94b79b; stroke:none;" d="M444.667 541.333L445.333 541.667L444.667 541.333M489 541L490 542L489 541M520 541L521 542L520 541z"/>
<path style="fill:#54a665; stroke:none;" d="M521 541L522 542L521 541M536 541L537 542L536 541z"/>
<path style="fill:#94b79b; stroke:none;" d="M537 541L538 542L537 541z"/>
<path style="fill:#54a665; stroke:none;" d="M591.333 541.667L591.667 542.333L591.333 541.667z"/>
<path style="fill:#94b79b; stroke:none;" d="M613 541L613 542L620 542L613 541z"/>
<path style="fill:#54a665; stroke:none;" d="M733 541L734 542L733 541z"/>
<path style="fill:#94b79b; stroke:none;" d="M754 541L755 542L754 541M767 541L768 542L767 541z"/>
<path style="fill:#54a665; stroke:none;" d="M365 542L366 543L365 542M381 542L382 543L381 542z"/>
<path style="fill:#94b79b; stroke:none;" d="M382 542L383 543L382 542M387 542L388 543L387 542M447 542L448 543L447 542z"/>
<path style="fill:#54a665; stroke:none;" d="M473 542L474 543L473 542z"/>
<path style="fill:#94b79b; stroke:none;" d="M518 542L519 543L518 542z"/>
<path style="fill:#54a665; stroke:none;" d="M519 542L520 543L519 542M539 542L540 543L539 542z"/>
<path style="fill:#94b79b; stroke:none;" d="M569 542L570 543L569 542z"/>
<path style="fill:#0f9a14; stroke:none;" d="M613 542L611 560C629.937 559.948 634.012 542.014 613 542z"/>
<path style="fill:#54a665; stroke:none;" d="M622 542L623 543L622 542z"/>
<path style="fill:#94b79b; stroke:none;" d="M623 542L624 543L623 542M678 542L678 607L679 607L679 563L678 542z"/>
<path style="fill:#54a665; stroke:none;" d="M700 542L700 606L701 606L701 562L700 542z"/>
<path style="fill:#94b79b; stroke:none;" d="M733.333 542.667L733.667 543.333L733.333 542.667z"/>
<path style="fill:#54a665; stroke:none;" d="M341 543L342 544L341 543M364 543L365 544L364 543z"/>
<path style="fill:#94b79b; stroke:none;" d="M383 543L384 544L383 543z"/>
<path style="fill:#54a665; stroke:none;" d="M448 543L449 544L448 543z"/>
<path style="fill:#94b79b; stroke:none;" d="M473.333 543.667L473.667 544.333L473.333 543.667M488 543L489 544L488 543M516 543L517 544L516 543z"/>
<path style="fill:#54a665; stroke:none;" d="M517 543L518 544L517 543M541 543L542 544L541 543M570 543L571 544L570 543z"/>
<path style="fill:#94b79b; stroke:none;" d="M591 543L591 546L592 546L591 543M625 543L626 544L625 543z"/>
<path style="fill:#54a665; stroke:none;" d="M650.333 543.667L650.667 544.333L650.333 543.667M753 543L754 544L753 543z"/>
<path style="fill:#94b79b; stroke:none;" d="M768 543L769 544L768 543M341 544L341 549L342 549L341 544z"/>
<path style="fill:#54a665; stroke:none;" d="M384 544L385 545L384 544z"/>
<path style="fill:#94b79b; stroke:none;" d="M386 544L387 545L386 544z"/>
<path style="fill:#54a665; stroke:none;" d="M487 544L488 545L487 544M515 544L516 545L515 544z"/>
<path style="fill:#94b79b; stroke:none;" d="M543 544L544 545L543 544M570 544L571 545L570 544M612.333 544.667L612.667 545.333L612.333 544.667z"/>
<path style="fill:#54a665; stroke:none;" d="M626 544L627 545L626 544z"/>
<path style="fill:#94b79b; stroke:none;" d="M363 545L364 546L363 545z"/>
<path style="fill:#54a665; stroke:none;" d="M450 545L451 546L450 545z"/>
<path style="fill:#94b79b; stroke:none;" d="M487 545L488 546L487 545M513 545L514 546L513 545M544 545L545 546L544 545z"/>
<path style="fill:#54a665; stroke:none;" d="M571 545L572 546L571 545M627 545L628 546L627 545z"/>
<path style="fill:#94b79b; stroke:none;" d="M650 545L650 553L651 553L650 545M752 545L753 546L752 545z"/>
<path style="fill:#54a665; stroke:none;" d="M363.333 546.667L363.667 547.333L363.333 546.667z"/>
<path style="fill:#94b79b; stroke:none;" d="M451.333 546.667L451.667 547.333L451.333 546.667z"/>
<path style="fill:#54a665; stroke:none;" d="M486 546L487 547L486 546z"/>
<path style="fill:#94b79b; stroke:none;" d="M512 546L513 547L512 546z"/>
<path style="fill:#54a665; stroke:none;" d="M545 546L546 547L545 546z"/>
<path style="fill:#94b79b; stroke:none;" d="M571 546L572 547L571 546z"/>
<path style="fill:#54a665; stroke:none;" d="M612.333 546.667L612.667 547.333L612.333 546.667z"/>
<path style="fill:#94b79b; stroke:none;" d="M628 546L629 547L628 546z"/>
<path style="fill:#54a665; stroke:none;" d="M732 546L733 547L732 546M752.333 546.667L752.667 547.333L752.333 546.667z"/>
<path style="fill:#94b79b; stroke:none;" d="M769 546L769 549L770 549L769 546M486 547L487 548L486 547M511 547L512 548L511 547z"/>
<path style="fill:#54a665; stroke:none;" d="M546 547L547 548L546 547M572 547L573 548L572 547M628 547L629 548L628 547z"/>
<path style="fill:#94b79b; stroke:none;" d="M732.333 547.667L732.667 548.333L732.333 547.667M363 548L364 549L363 548z"/>
<path style="fill:#54a665; stroke:none;" d="M451 548L452 549L451 548M474 548L474 555L475 555L474 548z"/>
<path style="fill:#94b79b; stroke:none;" d="M510 548L511 549L510 548z"/>
<path style="fill:#54a665; stroke:none;" d="M547 548L548 549L547 548z"/>
<path style="fill:#94b79b; stroke:none;" d="M572 548L573 549L572 548z"/>
<path style="fill:#54a665; stroke:none;" d="M485 549L486 550L485 549z"/>
<path style="fill:#94b79b; stroke:none;" d="M548 549L549 550L548 549z"/>
<path style="fill:#54a665; stroke:none;" d="M590.333 549.667L590.667 550.333L590.333 549.667z"/>
<path style="fill:#94b79b; stroke:none;" d="M485 550L486 551L485 550z"/>
<path style="fill:#54a665; stroke:none;" d="M509 550L510 551L509 550z"/>
<path style="fill:#94b79b; stroke:none;" d="M549 550L550 551L549 550z"/>
<path style="fill:#54a665; stroke:none;" d="M573 550L574 551L573 550z"/>
<path style="fill:#94b79b; stroke:none;" d="M788 550L789 551L788 550M341 551L341 555L342 555L341 551z"/>
<path style="fill:#54a665; stroke:none;" d="M366 551L367 552L366 551z"/>
<path style="fill:#94b79b; stroke:none;" d="M508 551L509 552L508 551M573 551L574 552L573 551M590 551L590 554L591 554L590 551M611.333 551.667L611.667 552.333L611.333 551.667z"/>
<path style="fill:#54a665; stroke:none;" d="M628.333 551.667L628.667 552.333L628.333 551.667M768 551L769 552L768 551M788 551L789 552L788 551z"/>
<path style="fill:#94b79b; stroke:none;" d="M367 552L368 553L367 552M484.333 552.667L484.667 553.333L484.333 552.667M550 552L551 553L550 552M369 553L370 554L369 553z"/>
<path style="fill:#54a665; stroke:none;" d="M370 553L371 554L370 553M507 553L508 554L507 553M574 553L575 554L574 553M611.333 553.667L611.667 554.333L611.333 553.667z"/>
<path style="fill:#94b79b; stroke:none;" d="M628 553L629 554L628 553z"/>
<path style="fill:#54a665; stroke:none;" d="M650.333 553.667L650.667 554.333L650.333 553.667z"/>
<path style="fill:#94b79b; stroke:none;" d="M767 553L768 554L767 553M787 553L788 554L787 553M372 554L373 555L372 554z"/>
<path style="fill:#54a665; stroke:none;" d="M373 554L374 555L373 554z"/>
<path style="fill:#94b79b; stroke:none;" d="M551 554L552 555L551 554M574.333 554.667L574.667 555.333L574.333 554.667z"/>
<path style="fill:#54a665; stroke:none;" d="M627 554L628 555L627 554z"/>
<path style="fill:#94b79b; stroke:none;" d="M766 554L767 555L766 554z"/>
<path style="fill:#54a665; stroke:none;" d="M787 554L788 555L787 554M341 555L342 556L341 555z"/>
<path style="fill:#94b79b; stroke:none;" d="M375 555L376 556L375 555z"/>
<path style="fill:#54a665; stroke:none;" d="M376 555L377 556L376 555M451 555L452 556L451 555M483 555L484 556L483 555M506 555L507 556L506 555M763 555L764 556L763 555z"/>
<path style="fill:#94b79b; stroke:none;" d="M764 555L765 556L764 555M378 556L379 557L378 556z"/>
<path style="fill:#54a665; stroke:none;" d="M379 556L380 557L379 556z"/>
<path style="fill:#94b79b; stroke:none;" d="M451 556L452 557L451 556M483 556L483 559L484 559L483 556M552 556L553 557L552 556z"/>
<path style="fill:#54a665; stroke:none;" d="M757 556L757 571L758 571L757 556z"/>
<path style="fill:#94b79b; stroke:none;" d="M758 556L758 557L761 557L758 556z"/>
<path style="fill:#54a665; stroke:none;" d="M786 556L787 557L786 556z"/>
<path style="fill:#94b79b; stroke:none;" d="M381 557L382 558L381 557z"/>
<path style="fill:#54a665; stroke:none;" d="M382 557L383 558L382 557M450 557L451 558L450 557z"/>
<path style="fill:#94b79b; stroke:none;" d="M505 557L506 558L505 557z"/>
<path style="fill:#54a665; stroke:none;" d="M552 557L553 558L552 557M589.333 557.667L589.667 558.333L589.333 557.667M624 557L625 558L624 557z"/>
<path style="fill:#94b79b; stroke:none;" d="M649 557L650 558L649 557M785 557L786 558L785 557M342 558L343 559L342 558z"/>
<path style="fill:#54a665; stroke:none;" d="M384 558L385 559L384 558z"/>
<path style="fill:#94b79b; stroke:none;" d="M473.333 558.667L473.667 559.333L473.333 558.667z"/>
<path style="fill:#54a665; stroke:none;" d="M505.333 558.667L505.667 559.333L505.333 558.667M575.333 558.667L575.667 559.333L575.333 558.667z"/>
<path style="fill:#94b79b; stroke:none;" d="M610.333 558.667L610.667 559.333L610.333 558.667z"/>
<path style="fill:#54a665; stroke:none;" d="M622 558L623 559L622 558z"/>
<path style="fill:#94b79b; stroke:none;" d="M623 558L624 559L623 558z"/>
<path style="fill:#54a665; stroke:none;" d="M649 558L650 559L649 558z"/>
<path style="fill:#94b79b; stroke:none;" d="M784 558L785 559L784 558z"/>
<path style="fill:#54a665; stroke:none;" d="M342 559L343 560L342 559M386 559L387 560L386 559M448 559L449 560L448 559z"/>
<path style="fill:#94b79b; stroke:none;" d="M589 559L589 562L590 562L589 559z"/>
<path style="fill:#54a665; stroke:none;" d="M619 559L620 560L619 559z"/>
<path style="fill:#94b79b; stroke:none;" d="M620 559L621 560L620 559M343 560L344 561L343 560z"/>
<path style="fill:#54a665; stroke:none;" d="M388 560L389 561L388 560z"/>
<path style="fill:#94b79b; stroke:none;" d="M447 560L448 561L447 560z"/>
<path style="fill:#54a665; stroke:none;" d="M473 560L474 561L473 560z"/>
<path style="fill:#94b79b; stroke:none;" d="M553 560L553 563L554 563L553 560M575 560L575 571L576 571L575 560M611 560L611 561L617 561L611 560M648 560L649 561L648 560z"/>
<path style="fill:#54a665; stroke:none;" d="M343 561L344 562L343 561M389 561L390 562L389 561M434 561L434 562L444 562L434 561z"/>
<path style="fill:#94b79b; stroke:none;" d="M444.667 561.333L445.333 561.667L444.667 561.333z"/>
<path style="fill:#54a665; stroke:none;" d="M648 561L649 562L648 561z"/>
<path style="fill:#94b79b; stroke:none;" d="M781 561L782 562L781 561M344 562L345 563L344 562M390 562L391 563L390 562M472.333 562.667L472.667 563.333L472.333 562.667z"/>
<path style="fill:#54a665; stroke:none;" d="M482 562L482 570L483 570L482 562z"/>
<path style="fill:#94b79b; stroke:none;" d="M504 562L504 566L505 566L504 562M780 562L781 563L780 562M391 563L392 564L391 563z"/>
<path style="fill:#54a665; stroke:none;" d="M553 563L553 566L554 566L553 563M647 563L648 564L647 563z"/>
<path style="fill:#94b79b; stroke:none;" d="M782 563L783 564L782 563z"/>
<path style="fill:#54a665; stroke:none;" d="M783 563L784 564L783 563M345 564L346 565L345 564z"/>
<path style="fill:#94b79b; stroke:none;" d="M392 564L393 565L392 564M646 564L647 565L646 564M784 564L785 565L784 564z"/>
<path style="fill:#54a665; stroke:none;" d="M346 565L347 566L346 565z"/>
<path style="fill:#94b79b; stroke:none;" d="M393 565L394 566L393 565M471 565L472 566L471 565z"/>
<path style="fill:#54a665; stroke:none;" d="M786 565L787 566L786 565M347 566L348 567L347 566M394 566L395 567L394 566M471 566L472 567L471 566z"/>
<path style="fill:#94b79b; stroke:none;" d="M553 566L553 569L554 569L553 566z"/>
<path style="fill:#54a665; stroke:none;" d="M588.333 566.667L588.667 567.333L588.333 566.667M645 566L646 567L645 566M787 566L788 567L787 566z"/>
<path style="fill:#94b79b; stroke:none;" d="M349 567L350 568L349 567M470 567L471 568L470 567z"/>
<path style="fill:#54a665; stroke:none;" d="M644 567L645 568L644 567M788 567L789 568L788 567M350 568L351 569L350 568z"/>
<path style="fill:#94b79b; stroke:none;" d="M351 568L352 569L351 568z"/>
<path style="fill:#54a665; stroke:none;" d="M395 568L396 569L395 568z"/>
<path style="fill:#94b79b; stroke:none;" d="M588 568L588 571L589 571L588 568z"/>
<path style="fill:#54a665; stroke:none;" d="M643 568L644 569L643 568M352 569L353 570L352 569z"/>
<path style="fill:#94b79b; stroke:none;" d="M353 569L354 570L353 569z"/>
<path style="fill:#54a665; stroke:none;" d="M469 569L470 570L469 569M505 569L506 570L505 569M642 569L643 570L642 569z"/>
<path style="fill:#94b79b; stroke:none;" d="M789 569L790 570L789 569M355 570L356 571L355 570z"/>
<path style="fill:#54a665; stroke:none;" d="M396 570L397 571L396 570z"/>
<path style="fill:#94b79b; stroke:none;" d="M468 570L469 571L468 570M505 570L506 571L505 570z"/>
<path style="fill:#54a665; stroke:none;" d="M641 570L642 571L641 570z"/>
<path style="fill:#94b79b; stroke:none;" d="M758 570L758 571L761 571L758 570z"/>
<path style="fill:#54a665; stroke:none;" d="M790 570L791 571L790 570M357 571L358 572L357 571z"/>
<path style="fill:#94b79b; stroke:none;" d="M358 571L359 572L358 571M396 571L397 572L396 571z"/>
<path style="fill:#54a665; stroke:none;" d="M552 571L553 572L552 571M575.333 571.667L575.667 572.333L575.333 571.667z"/>
<path style="fill:#94b79b; stroke:none;" d="M639 571L640 572L639 571z"/>
<path style="fill:#54a665; stroke:none;" d="M764 571L765 572L764 571z"/>
<path style="fill:#94b79b; stroke:none;" d="M765 571L766 572L765 571z"/>
<path style="fill:#54a665; stroke:none;" d="M360 572L361 573L360 572z"/>
<path style="fill:#94b79b; stroke:none;" d="M361 572L362 573L361 572z"/>
<path style="fill:#54a665; stroke:none;" d="M506 572L507 573L506 572z"/>
<path style="fill:#94b79b; stroke:none;" d="M552 572L553 573L552 572M637 572L638 573L637 572z"/>
<path style="fill:#54a665; stroke:none;" d="M767 572L768 573L767 572M791 572L792 573L791 572z"/>
<path style="fill:#94b79b; stroke:none;" d="M364.667 573.333L365.333 573.667L364.667 573.333z"/>
<path style="fill:#54a665; stroke:none;" d="M397.333 573.667L397.667 574.333L397.333 573.667z"/>
<path style="fill:#94b79b; stroke:none;" d="M465 573L466 574L465 573M483.333 573.667L483.667 574.333L483.333 573.667M506 573L507 574L506 573M635 573L636 574L635 573M769 573L770 574L769 573M367 574L368 575L367 574M464 574L465 575L464 574M551 574L552 575L551 574z"/>
<path style="fill:#54a665; stroke:none;" d="M587.333 574.667L587.667 575.333L587.333 574.667M633 574L634 575L633 574z"/>
<path style="fill:#94b79b; stroke:none;" d="M770 574L771 575L770 574z"/>
<path style="fill:#54a665; stroke:none;" d="M792 574L793 575L792 574M369 575L370 576L369 575z"/>
<path style="fill:#94b79b; stroke:none;" d="M370 575L371 576L370 575M397 575L397 584L398 584L397 575M462 575L463 576L462 575z"/>
<path style="fill:#54a665; stroke:none;" d="M463 575L464 576L463 575M483 575L484 576L483 575z"/>
<path style="fill:#94b79b; stroke:none;" d="M507 575L508 576L507 575M574 575L575 576L574 575z"/>
<path style="fill:#54a665; stroke:none;" d="M609 575L610 576L609 575z"/>
<path style="fill:#94b79b; stroke:none;" d="M633 575L634 576L633 575M792 575L793 576L792 575z"/>
<path style="fill:#54a665; stroke:none;" d="M371 576L372 577L371 576z"/>
<path style="fill:#94b79b; stroke:none;" d="M460 576L461 577L460 576z"/>
<path style="fill:#54a665; stroke:none;" d="M461 576L462 577L461 576z"/>
<path style="fill:#94b79b; stroke:none;" d="M550 576L551 577L550 576z"/>
<path style="fill:#54a665; stroke:none;" d="M574 576L575 577L574 576z"/>
<path style="fill:#94b79b; stroke:none;" d="M587 576L587 579L588 579L587 576M608 576L608 579L609 579L608 576M610 576L611 577L610 576z"/>
<path style="fill:#54a665; stroke:none;" d="M634 576L635 577L634 576z"/>
<path style="fill:#94b79b; stroke:none;" d="M771 576L772 577L771 576M373 577L374 578L373 577M458 577L459 578L458 577z"/>
<path style="fill:#54a665; stroke:none;" d="M459 577L460 578L459 577z"/>
<path style="fill:#94b79b; stroke:none;" d="M508 577L509 578L508 577z"/>
<path style="fill:#54a665; stroke:none;" d="M549 577L550 578L549 577M771 577L772 578L771 577z"/>
<path style="fill:#94b79b; stroke:none;" d="M374 578L375 579L374 578M454 578L455 579L454 578z"/>
<path style="fill:#54a665; stroke:none;" d="M455.667 578.333L456.333 578.667L455.667 578.333z"/>
<path style="fill:#94b79b; stroke:none;" d="M484 578L485 579L484 578z"/>
<path style="fill:#54a665; stroke:none;" d="M509 578L510 579L509 578M611 578L612 579L611 578z"/>
<path style="fill:#94b79b; stroke:none;" d="M635 578L636 579L635 578z"/>
<path style="fill:#54a665; stroke:none;" d="M793.333 578.667L793.667 579.333L793.333 578.667M374 579L375 580L374 579M434 579L434 580L451 580L434 579M484 579L485 580L484 579M510 579L511 580L510 579z"/>
<path style="fill:#94b79b; stroke:none;" d="M548 579L549 580L548 579M573 579L574 580L573 579z"/>
<path style="fill:#54a665; stroke:none;" d="M608.333 579.667L608.667 580.333L608.333 579.667z"/>
<path style="fill:#94b79b; stroke:none;" d="M612 579L613 580L612 579M375.333 580.667L375.667 581.333L375.333 580.667M547 580L548 581L547 580z"/>
<path style="fill:#54a665; stroke:none;" d="M573 580L574 581L573 580M612 580L613 581L612 580z"/>
<path style="fill:#94b79b; stroke:none;" d="M636 580L637 581L636 580M728 580L728 581L749 581L728 580z"/>
<path style="fill:#54a665; stroke:none;" d="M749 580L750 581L749 580z"/>
<path style="fill:#94b79b; stroke:none;" d="M793 580L793 587L794 587L793 580M485 581L486 582L485 581M511 581L512 582L511 581z"/>
<path style="fill:#54a665; stroke:none;" d="M546 581L547 582L546 581z"/>
<path style="fill:#94b79b; stroke:none;" d="M613 581L614 582L613 581z"/>
<path style="fill:#54a665; stroke:none;" d="M637 581L638 582L637 581z"/>
<path style="fill:#94b79b; stroke:none;" d="M772 581L773 582L772 581z"/>
<path style="fill:#54a665; stroke:none;" d="M346.667 582.333L347.333 582.667L346.667 582.333M375 582L376 583L375 582z"/>
<path style="fill:#94b79b; stroke:none;" d="M545 582L546 583L545 582M572 582L573 583L572 582z"/>
<path style="fill:#54a665; stroke:none;" d="M586.333 582.667L586.667 583.333L586.333 582.667z"/>
<path style="fill:#94b79b; stroke:none;" d="M346 583L347 584L346 583M348 583L349 584L348 583M375.333 583.667L375.667 584.333L375.333 583.667M486 583L487 584L486 583z"/>
<path style="fill:#54a665; stroke:none;" d="M514 583L515 584L514 583z"/>
<path style="fill:#94b79b; stroke:none;" d="M544 583L545 584L544 583z"/>
<path style="fill:#54a665; stroke:none;" d="M614 583L615 584L614 583z"/>
<path style="fill:#94b79b; stroke:none;" d="M638 583L639 584L638 583z"/>
<path style="fill:#54a665; stroke:none;" d="M750 583L751 584L750 583M345 584L346 585L345 584z"/>
<path style="fill:#94b79b; stroke:none;" d="M349 584L350 585L349 584z"/>
<path style="fill:#54a665; stroke:none;" d="M397.333 584.667L397.667 585.333L397.333 584.667M486 584L487 585L486 584z"/>
<path style="fill:#94b79b; stroke:none;" d="M515 584L516 585L515 584z"/>
<path style="fill:#54a665; stroke:none;" d="M542 584L543 585L542 584z"/>
<path style="fill:#94b79b; stroke:none;" d="M571 584L572 585L571 584M586 584L586 587L587 587L586 584M607 584L607 587L608 587L607 584M615 584L616 585L615 584z"/>
<path style="fill:#54a665; stroke:none;" d="M639 584L640 585L639 584z"/>
<path style="fill:#94b79b; stroke:none;" d="M728.333 584.667L728.667 585.333L728.333 584.667M750 584L751 585L750 584z"/>
<path style="fill:#54a665; stroke:none;" d="M771 584L772 585L771 584z"/>
<path style="fill:#94b79b; stroke:none;" d="M345 585L346 586L345 585z"/>
<path style="fill:#54a665; stroke:none;" d="M351 585L352 586L351 585z"/>
<path style="fill:#94b79b; stroke:none;" d="M487 585L488 586L487 585z"/>
<path style="fill:#54a665; stroke:none;" d="M517 585L518 586L517 585z"/>
<path style="fill:#94b79b; stroke:none;" d="M541 585L542 586L541 585z"/>
<path style="fill:#54a665; stroke:none;" d="M615 585L616 586L615 585z"/>
<path style="fill:#94b79b; stroke:none;" d="M771 585L772 586L771 585z"/>
<path style="fill:#54a665; stroke:none;" d="M344 586L345 587L344 586z"/>
<path style="fill:#94b79b; stroke:none;" d="M352 586L353 587L352 586M374 586L375 587L374 586z"/>
<path style="fill:#54a665; stroke:none;" d="M487 586L488 587L487 586z"/>
<path style="fill:#94b79b; stroke:none;" d="M518 586L519 587L518 586z"/>
<path style="fill:#54a665; stroke:none;" d="M519 586L520 587L519 586z"/>
<path style="fill:#94b79b; stroke:none;" d="M539 586L540 587L539 586M570 586L571 587L570 586M616 586L617 587L616 586M640 586L641 587L640 586z"/>
<path style="fill:#54a665; stroke:none;" d="M728 586L729 587L728 586M751 586L752 587L751 586M354 587L355 588L354 587M373 587L374 588L373 587z"/>
<path style="fill:#94b79b; stroke:none;" d="M488 587L489 588L488 587M521 587L522 588L521 587z"/>
<path style="fill:#54a665; stroke:none;" d="M522 587L523 588L522 587M536 587L537 588L536 587z"/>
<path style="fill:#94b79b; stroke:none;" d="M537 587L538 588L537 587z"/>
<path style="fill:#54a665; stroke:none;" d="M607.333 587.667L607.667 588.333L607.333 587.667M641 587L642 588L641 587z"/>
<path style="fill:#94b79b; stroke:none;" d="M770 587L771 588L770 587z"/>
<path style="fill:#54a665; stroke:none;" d="M793.333 587.667L793.667 588.333L793.333 587.667M343 588L344 589L343 588M356 588L357 589L356 588M372 588L373 589L372 588z"/>
<path style="fill:#94b79b; stroke:none;" d="M396 588L397 589L396 588M524 588L524 589L527 589L524 588z"/>
<path style="fill:#54a665; stroke:none;" d="M527 588L527 589L532 589L527 588z"/>
<path style="fill:#94b79b; stroke:none;" d="M532.667 588.333L533.333 588.667L532.667 588.333z"/>
<path style="fill:#54a665; stroke:none;" d="M569 588L570 589L569 588M617 588L618 589L617 588z"/>
<path style="fill:#94b79b; stroke:none;" d="M752 588L753 589L752 588z"/>
<path style="fill:#54a665; stroke:none;" d="M769 588L770 589L769 588z"/>
<path style="fill:#94b79b; stroke:none;" d="M358 589L359 590L358 589z"/>
<path style="fill:#54a665; stroke:none;" d="M359 589L360 590L359 589M370 589L371 590L370 589z"/>
<path style="fill:#94b79b; stroke:none;" d="M371 589L372 590L371 589z"/>
<path style="fill:#54a665; stroke:none;" d="M396 589L397 590L396 589z"/>
<path style="fill:#94b79b; stroke:none;" d="M489 589L490 590L489 589M618 589L619 590L618 589z"/>
<path style="fill:#54a665; stroke:none;" d="M642 589L643 590L642 589z"/>
<path style="fill:#94b79b; stroke:none;" d="M729 589L730 590L729 589M753 589L754 590L753 589z"/>
<path style="fill:#54a665; stroke:none;" d="M768 589L769 590L768 589M342 590L343 591L342 590z"/>
<path style="fill:#94b79b; stroke:none;" d="M361 590L361 591L364 591L361 590z"/>
<path style="fill:#54a665; stroke:none;" d="M364 590L364 591L367 591L364 590z"/>
<path style="fill:#94b79b; stroke:none;" d="M367.667 590.333L368.333 590.667L367.667 590.333z"/>
<path style="fill:#54a665; stroke:none;" d="M568 590L569 591L568 590M585.333 590.667L585.667 591.333L585.333 590.667M618 590L619 591L618 590M729 590L730 591L729 590z"/>
<path style="fill:#94b79b; stroke:none;" d="M754 590L755 591L754 590z"/>
<path style="fill:#54a665; stroke:none;" d="M767 590L768 591L767 590M490 591L491 592L490 591M567 591L568 592L567 591z"/>
<path style="fill:#94b79b; stroke:none;" d="M619 591L620 592L619 591M643 591L644 592L643 591M756 591L757 592L756 591z"/>
<path style="fill:#54a665; stroke:none;" d="M765 591L766 592L765 591z"/>
<path style="fill:#94b79b; stroke:none;" d="M766 591L767 592L766 591M792 591L793 592L792 591z"/>
<path style="fill:#54a665; stroke:none;" d="M341 592L342 593L341 592z"/>
<path style="fill:#94b79b; stroke:none;" d="M395 592L396 593L395 592z"/>
<path style="fill:#54a665; stroke:none;" d="M491 592L492 593L491 592z"/>
<path style="fill:#94b79b; stroke:none;" d="M566 592L567 593L566 592M585 592L585 595L586 595L585 592M606 592L606 595L607 595L606 592z"/>
<path style="fill:#54a665; stroke:none;" d="M644 592L645 593L644 592z"/>
<path style="fill:#94b79b; stroke:none;" d="M730 592L731 593L730 592M759 592L759 593L764 593L759 592z"/>
<path style="fill:#54a665; stroke:none;" d="M792 592L793 593L792 592z"/>
<path style="fill:#94b79b; stroke:none;" d="M492 593L493 594L492 593z"/>
<path style="fill:#54a665; stroke:none;" d="M620 593L621 594L620 593z"/>
<path style="fill:#94b79b; stroke:none;" d="M340 594L341 595L340 594M394 594L395 595L394 594M493 594L494 595L493 594z"/>
<path style="fill:#54a665; stroke:none;" d="M565 594L566 595L565 594z"/>
<path style="fill:#94b79b; stroke:none;" d="M621 594L622 595L621 594M645 594L646 595L645 594M731 594L732 595L731 594M791 594L792 595L791 594z"/>
<path style="fill:#54a665; stroke:none;" d="M394 595L395 596L394 595z"/>
<path style="fill:#94b79b; stroke:none;" d="M494 595L495 596L494 595z"/>
<path style="fill:#54a665; stroke:none;" d="M564 595L565 596L564 595M606.333 595.667L606.667 596.333L606.333 595.667M621 595L622 596L621 595M646 595L647 596L646 595z"/>
<path style="fill:#94b79b; stroke:none;" d="M339 596L340 597L339 596M393 596L394 597L393 596M495 596L496 597L495 596z"/>
<path style="fill:#54a665; stroke:none;" d="M563 596L564 597L563 596z"/>
<path style="fill:#94b79b; stroke:none;" d="M622 596L623 597L622 596z"/>
<path style="fill:#54a665; stroke:none;" d="M732 596L733 597L732 596z"/>
<path style="fill:#94b79b; stroke:none;" d="M790 596L791 597L790 596M496 597L497 598L496 597z"/>
<path style="fill:#54a665; stroke:none;" d="M562 597L563 598L562 597z"/>
<path style="fill:#94b79b; stroke:none;" d="M647 597L648 598L647 597M733 597L734 598L733 597M338 598L339 599L338 598z"/>
<path style="fill:#54a665; stroke:none;" d="M392 598L393 599L392 598z"/>
<path style="fill:#94b79b; stroke:none;" d="M497 598L498 599L497 598z"/>
<path style="fill:#54a665; stroke:none;" d="M561 598L562 599L561 598M584.333 598.667L584.667 599.333L584.333 598.667M623 598L624 599L623 598M648 598L649 599L648 598z"/>
<path style="fill:#94b79b; stroke:none;" d="M734 598L735 599L734 598z"/>
<path style="fill:#54a665; stroke:none;" d="M789 598L790 599L789 598M391 599L392 600L391 599z"/>
<path style="fill:#94b79b; stroke:none;" d="M498 599L499 600L498 599M624 599L625 600L624 599M648 599L649 600L648 599z"/>
<path style="fill:#54a665; stroke:none;" d="M788 599L789 600L788 599z"/>
<path style="fill:#94b79b; stroke:none;" d="M339 600L340 601L339 600z"/>
<path style="fill:#54a665; stroke:none;" d="M390 600L391 601L390 600M499 600L500 601L499 600z"/>
<path style="fill:#94b79b; stroke:none;" d="M558 600L559 601L558 600M584 600L584 603L585 603L584 600M605 600L605 603L606 603L605 600z"/>
<path style="fill:#54a665; stroke:none;" d="M624 600L625 601L624 600M649 600L650 601L649 600z"/>
<path style="fill:#94b79b; stroke:none;" d="M787 600L788 601L787 600z"/>
<path style="fill:#54a665; stroke:none;" d="M340 601L341 602L340 601M389 601L390 602L389 601z"/>
<path style="fill:#94b79b; stroke:none;" d="M501 601L502 602L501 601z"/>
<path style="fill:#54a665; stroke:none;" d="M557 601L558 602L557 601z"/>
<path style="fill:#94b79b; stroke:none;" d="M625 601L626 602L625 601M737 601L738 602L737 601M786 601L787 602L786 601M342 602L343 603L342 602z"/>
<path style="fill:#54a665; stroke:none;" d="M502 602L503 603L502 602z"/>
<path style="fill:#94b79b; stroke:none;" d="M555 602L556 603L555 602M650 602L651 603L650 602M738 602L739 603L738 602M785 602L786 603L785 602z"/>
<path style="fill:#54a665; stroke:none;" d="M343 603L344 604L343 603z"/>
<path style="fill:#94b79b; stroke:none;" d="M344 603L345 604L344 603M386 603L387 604L386 603M504 603L505 604L504 603z"/>
<path style="fill:#54a665; stroke:none;" d="M554 603L555 604L554 603M605.333 603.667L605.667 604.333L605.333 603.667M626 603L627 604L626 603M651 603L652 604L651 603M739 603L740 604L739 603M784 603L785 604L784 603M345 604L346 605L345 604z"/>
<path style="fill:#94b79b; stroke:none;" d="M346 604L347 605L346 604M384 604L385 605L384 604z"/>
<path style="fill:#54a665; stroke:none;" d="M385 604L386 605L385 604M505 604L506 605L505 604z"/>
<path style="fill:#94b79b; stroke:none;" d="M506 604L507 605L506 604M552 604L553 605L552 604M627 604L628 605L627 604M741 604L742 605L741 604z"/>
<path style="fill:#54a665; stroke:none;" d="M783 604L784 605L783 604z"/>
<path style="fill:#94b79b; stroke:none;" d="M348 605L349 606L348 605M382 605L383 606L382 605z"/>
<path style="fill:#54a665; stroke:none;" d="M383 605L384 606L383 605M507 605L508 606L507 605z"/>
<path style="fill:#94b79b; stroke:none;" d="M508 605L509 606L508 605M550 605L551 606L550 605z"/>
<path style="fill:#54a665; stroke:none;" d="M627 605L628 606L627 605z"/>
<path style="fill:#94b79b; stroke:none;" d="M652 605L653 606L652 605z"/>
<path style="fill:#54a665; stroke:none;" d="M742 605L743 606L742 605z"/>
<path style="fill:#94b79b; stroke:none;" d="M743 605L744 606L743 605M781 605L782 606L781 605z"/>
<path style="fill:#54a665; stroke:none;" d="M350 606L351 607L350 606z"/>
<path style="fill:#94b79b; stroke:none;" d="M351 606L352 607L351 606M380 606L381 607L380 606z"/>
<path style="fill:#54a665; stroke:none;" d="M381 606L382 607L381 606z"/>
<path style="fill:#94b79b; stroke:none;" d="M510 606L511 607L510 606M547 606L548 607L547 606z"/>
<path style="fill:#54a665; stroke:none;" d="M548 606L549 607L548 606M583 606L584 607L583 606z"/>
<path style="fill:#94b79b; stroke:none;" d="M628 606L629 607L628 606z"/>
<path style="fill:#54a665; stroke:none;" d="M744 606L745 607L744 606z"/>
<path style="fill:#94b79b; stroke:none;" d="M779 606L780 607L779 606z"/>
<path style="fill:#54a665; stroke:none;" d="M353 607L354 608L353 607z"/>
<path style="fill:#94b79b; stroke:none;" d="M354 607L355 608L354 607M377 607L378 608L377 607z"/>
<path style="fill:#54a665; stroke:none;" d="M378 607L379 608L378 607M512 607L513 608L512 607z"/>
<path style="fill:#94b79b; stroke:none;" d="M513 607L514 608L513 607M544.667 607.333L545.333 607.667L544.667 607.333z"/>
<path style="fill:#54a665; stroke:none;" d="M746 607L747 608L746 607z"/>
<path style="fill:#94b79b; stroke:none;" d="M747 607L748 608L747 607M777 607L778 608L777 607z"/>
<path style="fill:#54a665; stroke:none;" d="M357 608L358 609L357 608z"/>
<path style="fill:#94b79b; stroke:none;" d="M358.667 608.333L359.333 608.667L358.667 608.333M372.667 608.333L373.333 608.667L372.667 608.333z"/>
<path style="fill:#54a665; stroke:none;" d="M374.667 608.333L375.333 608.667L374.667 608.333M515 608L516 609L515 608z"/>
<path style="fill:#94b79b; stroke:none;" d="M516.667 608.333L517.333 608.667L516.667 608.333M541 608L542 609L541 608z"/>
<path style="fill:#54a665; stroke:none;" d="M542 608L543 609L542 608z"/>
<path style="fill:#94b79b; stroke:none;" d="M749 608L750 609L749 608M774 608L775 609L774 608z"/>
<path style="fill:#54a665; stroke:none;" d="M775 608L776 609L775 608M365.667 609.333L366.333 609.667L365.667 609.333M519.667 609.333L520.333 609.667L519.667 609.333z"/>
<path style="fill:#94b79b; stroke:none;" d="M521 609L521 610L524 610L521 609M535.667 609.333L536.333 609.667L535.667 609.333z"/>
<path style="fill:#54a665; stroke:none;" d="M537.667 609.333L538.333 609.667L537.667 609.333M752 609L753 610L752 609z"/>
<path style="fill:#94b79b; stroke:none;" d="M753 609L754 610L753 609M770.667 609.333L771.333 609.667L770.667 609.333z"/>
<path style="fill:#54a665; stroke:none;" d="M772 609L773 610L772 609M756 610L756 611L759 611L756 610z"/>
<path style="fill:#94b79b; stroke:none;" d="M759 610L759 611L765 611L759 610z"/>
<path style="fill:#54a665; stroke:none;" d="M765 610L765 611L768 611L765 610z"/>
</svg>
