<svg xmlns="http://www.w3.org/2000/svg" viewBox="0 0 283.46 283.46"><defs><style>.cls-1{fill:#b21d23;}.cls-2{fill:#ef3620;}.cls-3{fill:#fff;}</style></defs><title>cbsaction</title><g id="Layer_2" data-name="Layer 2"><g id="AMC_Networks_International" data-name="AMC Networks International"><g id="cbsaction"><rect class="cls-1" width="283.46" height="283.46"/><g id="logo"><path class="cls-2" d="M139.75,134.77a8.42,8.42,0,0,1,6.24,2.66v-2.24h6.49v21.75h-6.6v-2.13a9.09,9.09,0,0,1-6.48,2.66c-6,0-10.15-4.32-10.15-11.3,0-6.06,4.48-11.4,10.5-11.4m-3.84,11.3c0,3,1.9,5.49,4.93,5.49a5.23,5.23,0,0,0,5.36-5.32,5.11,5.11,0,0,0-5.15-5.38,5,5,0,0,0-5.14,5.21"/><path class="cls-2" d="M170.33,156.23a18.79,18.79,0,0,1-5.25,1.24,10.75,10.75,0,0,1-11.18-11.19c0-6.3,4.58-11.51,11.28-11.51a10.66,10.66,0,0,1,5,1.07v6.83a7.73,7.73,0,0,0-4.8-1.77c-2.86,0-5,2.66-5,5.56a5,5,0,0,0,5.25,4.92,9.13,9.13,0,0,0,4.62-1.45v6.3Z"/><path class="cls-2" d="M174,156.93V141.17h-2.15v-6H174V129.8h6.59v5.38h3.49v6H180.6v15.72Z"/><path class="cls-2" d="M189.88,125.67a4,4,0,0,1,4,3.94,4,4,0,0,1-4.05,4,3.9,3.9,0,0,1-3.88-4,4,4,0,0,1,3.95-4m-3.32,9.53h6.56v21.74h-6.56Z"/><path class="cls-2" d="M207.09,134.77c6.55,0,11.67,4.74,11.67,11.3S214,157.68,207,157.68a11.7,11.7,0,0,1-11.71-11.51c0-6.51,5.18-11.4,11.85-11.4m-5.29,11.51a5.1,5.1,0,0,0,5.22,5.17c3.24,0,5.21-2.09,5.21-5.49a4.93,4.93,0,0,0-5.18-5,5.09,5.09,0,0,0-5.25,5.31"/><path class="cls-2" d="M220.29,156.93V135.18h6.55V138a7.8,7.8,0,0,1,6.32-3.26c4.3,0,7.78,3.12,7.78,7.22v15h-6.76V144.18c0-1.81-.5-3.51-3.39-3.51a3.89,3.89,0,0,0-3.88,3.82v12.44Z"/><path class="cls-3" d="M57.69,141.05a4.85,4.85,0,0,0-1.09-1.22,5,5,0,0,0-1.47-.83,5.22,5.22,0,0,0-1.72-.29,5.7,5.7,0,0,0-2.79.63,5.39,5.39,0,0,0-1.87,1.71,7.52,7.52,0,0,0-1,2.44,12,12,0,0,0-.33,2.82,11.05,11.05,0,0,0,.33,2.71,7.38,7.38,0,0,0,1,2.38,5.34,5.34,0,0,0,1.87,1.69,5.7,5.7,0,0,0,2.79.63,4.51,4.51,0,0,0,3.49-1.36,6.25,6.25,0,0,0,1.53-3.6h4.72a11.24,11.24,0,0,1-1,3.75,9,9,0,0,1-2,2.86,8.9,8.9,0,0,1-3,1.8,11,11,0,0,1-3.75.62,11.37,11.37,0,0,1-4.58-.89,9.86,9.86,0,0,1-3.42-2.43,10.91,10.91,0,0,1-2.15-3.65,13.5,13.5,0,0,1-.74-4.51,14.06,14.06,0,0,1,.74-4.61,11.15,11.15,0,0,1,2.15-3.7,9.73,9.73,0,0,1,3.42-2.48,12,12,0,0,1,8-.38,9.33,9.33,0,0,1,2.91,1.54,8.21,8.21,0,0,1,2.13,2.5A8.8,8.8,0,0,1,63,142.59H58.25a4.13,4.13,0,0,0-.56-1.54"/><path class="cls-3" d="M75.49,135.13a14.24,14.24,0,0,1,2.89.28,6.16,6.16,0,0,1,2.23.92A4.27,4.27,0,0,1,82.06,138a5.94,5.94,0,0,1,.51,2.6,4.94,4.94,0,0,1-.76,2.8,5.64,5.64,0,0,1-2.25,1.83,5.31,5.31,0,0,1,3,2.06,6.08,6.08,0,0,1,1,3.55,6.14,6.14,0,0,1-.65,2.9,5.56,5.56,0,0,1-1.75,2,7.74,7.74,0,0,1-2.52,1.15,11.17,11.17,0,0,1-2.89.37H65.07V135.13Zm-.61,9a3.49,3.49,0,0,0,2.13-.62,2.36,2.36,0,0,0,.84-2,2.52,2.52,0,0,0-.28-1.27,2.06,2.06,0,0,0-.74-.78,3.48,3.48,0,0,0-1.07-.39,7.31,7.31,0,0,0-1.26-.1H69.94v5.18Zm.27,9.4a6.77,6.77,0,0,0,1.37-.14,3.48,3.48,0,0,0,1.15-.47,2.33,2.33,0,0,0,.79-.88,3.13,3.13,0,0,0,.29-1.43,2.84,2.84,0,0,0-1-2.43,4.07,4.07,0,0,0-2.54-.73H69.94v6.08Z"/><path class="cls-3" d="M90.4,151.83a3.56,3.56,0,0,0,1.07,1.26,4.6,4.6,0,0,0,1.57.71,7.19,7.19,0,0,0,1.86.24,10.22,10.22,0,0,0,1.4-.11,5,5,0,0,0,1.39-.42,3.06,3.06,0,0,0,1.09-.85,2.18,2.18,0,0,0,.43-1.39,1.93,1.93,0,0,0-.57-1.45,4.46,4.46,0,0,0-1.51-.93,14.1,14.1,0,0,0-2.1-.65c-.79-.19-1.59-.4-2.39-.63a19.42,19.42,0,0,1-2.42-.75,8.13,8.13,0,0,1-2.11-1.17A5.17,5.17,0,0,1,86,141.32a5.79,5.79,0,0,1,.73-3,6.66,6.66,0,0,1,1.9-2.09A8.38,8.38,0,0,1,91.33,135a11.37,11.37,0,0,1,3-.4,14.61,14.61,0,0,1,3.34.38,8.27,8.27,0,0,1,2.83,1.26,6.41,6.41,0,0,1,2,2.22,6.87,6.87,0,0,1,.72,3.27H98.47a3.83,3.83,0,0,0-.42-1.64,2.6,2.6,0,0,0-1-1,3.67,3.67,0,0,0-1.35-.53,7.79,7.79,0,0,0-1.66-.16,5.33,5.33,0,0,0-1.18.13,2.92,2.92,0,0,0-1.06.43,2.8,2.8,0,0,0-.8.77,2.18,2.18,0,0,0-.31,1.18A2.05,2.05,0,0,0,91,142a2.16,2.16,0,0,0,1,.74,11.43,11.43,0,0,0,2,.68l3.36.87c.41.09,1,.24,1.72.45a8.55,8.55,0,0,1,2.19,1,6.85,6.85,0,0,1,1.88,1.91,5.52,5.52,0,0,1,.79,3.06,6.82,6.82,0,0,1-.59,2.82,6.06,6.06,0,0,1-1.76,2.25,8.32,8.32,0,0,1-2.88,1.47,13.72,13.72,0,0,1-4,.53,14,14,0,0,1-3.55-.45,9,9,0,0,1-3-1.41A7,7,0,0,1,86,153.48a7.28,7.28,0,0,1-.75-3.54H90a4,4,0,0,0,.4,1.89"/><path class="cls-3" d="M116.53,135.23a11.15,11.15,0,1,0,11.15,11.15,11.15,11.15,0,0,0-11.15-11.15m0,17.71c-4.58,0-8.3-3-10.28-6.63,2-3.58,5.74-6.5,10.28-6.5a11.88,11.88,0,0,1,10.28,6.5c-2,3.6-5.62,6.65-10.28,6.63"/><path class="cls-3" d="M116.53,152.3a5.92,5.92,0,1,0-5.92-5.92,5.92,5.92,0,0,0,5.92,5.92"/></g></g></g></g></svg>