<svg xmlns="http://www.w3.org/2000/svg" viewBox="0 0 283.46 283.46"><defs><style>.cls-1{fill:#162b48;}.cls-2{fill:#fff;}.cls-3{fill:#0095c4;}</style></defs><title>cbsdrama</title><g id="Layer_2" data-name="Layer 2"><g id="AMC_Networks_International" data-name="AMC Networks International"><g id="cbsdrama"><rect class="cls-1" width="283.46" height="283.46"/><g id="logo"><path class="cls-2" d="M57.06,139.13A4.61,4.61,0,0,0,56,138a4.75,4.75,0,0,0-1.41-.79,4.85,4.85,0,0,0-1.65-.28,5.44,5.44,0,0,0-2.68.61,5,5,0,0,0-1.78,1.63,7.23,7.23,0,0,0-1,2.34,11.47,11.47,0,0,0-.31,2.7,10.72,10.72,0,0,0,.31,2.61,7,7,0,0,0,1,2.27,5,5,0,0,0,1.78,1.62,5.44,5.44,0,0,0,2.68.61A4.29,4.29,0,0,0,56.3,150a6,6,0,0,0,1.48-3.45H62.3a10.71,10.71,0,0,1-.93,3.6,8.56,8.56,0,0,1-2,2.74,8.24,8.24,0,0,1-2.85,1.72,10.38,10.38,0,0,1-3.6.6,10.81,10.81,0,0,1-4.39-.85A9.41,9.41,0,0,1,45.29,152a10.29,10.29,0,0,1-2.06-3.5,13,13,0,0,1-.71-4.33,13.41,13.41,0,0,1,.71-4.41,10.66,10.66,0,0,1,2.06-3.56,9.41,9.41,0,0,1,3.28-2.38A10.81,10.81,0,0,1,53,133a10.57,10.57,0,0,1,3.31.51,8.92,8.92,0,0,1,2.8,1.47,8,8,0,0,1,2,2.39,8.7,8.7,0,0,1,1,3.28H57.6a3.82,3.82,0,0,0-.54-1.48"/><path class="cls-2" d="M64.14,133.47v21.24H74.43a10.76,10.76,0,0,0,2.78-.36,7.38,7.38,0,0,0,2.41-1.1,5.38,5.38,0,0,0,1.68-1.92,5.91,5.91,0,0,0,.63-2.78,5.82,5.82,0,0,0-1-3.4,5,5,0,0,0-2.92-2,5.42,5.42,0,0,0,2.16-1.76,4.62,4.62,0,0,0,.72-2.68,5.76,5.76,0,0,0-.48-2.49A4.13,4.13,0,0,0,79,134.62a5.84,5.84,0,0,0-2.14-.88,13.14,13.14,0,0,0-2.77-.27Zm4.67,3.63h4.37a6.7,6.7,0,0,1,1.2.1,2.94,2.94,0,0,1,1,.38,2,2,0,0,1,.72.74,2.45,2.45,0,0,1,.27,1.22,2.24,2.24,0,0,1-.81,1.93,3.36,3.36,0,0,1-2.06.6H68.81v-5Zm0,8.15H73.9a3.88,3.88,0,0,1,2.43.7,2.71,2.71,0,0,1,.92,2.33,3.08,3.08,0,0,1-.27,1.38,2.2,2.2,0,0,1-.77.83,3.23,3.23,0,0,1-1.09.46,6.29,6.29,0,0,1-1.32.13h-5v-5.83Z"/><path class="cls-2" d="M88.43,149.47a3.15,3.15,0,0,0,1,1.2,4.49,4.49,0,0,0,1.5.69,7.08,7.08,0,0,0,1.79.22,9.31,9.31,0,0,0,1.34-.1,4.58,4.58,0,0,0,1.33-.41,2.91,2.91,0,0,0,1-.81,2.11,2.11,0,0,0,.41-1.33,1.83,1.83,0,0,0-.55-1.39,4.43,4.43,0,0,0-1.44-.9,16.19,16.19,0,0,0-2-.62c-.76-.18-1.52-.38-2.29-.59a21.61,21.61,0,0,1-2.32-.73,8,8,0,0,1-2-1.12,5.43,5.43,0,0,1-1.44-1.71,5.13,5.13,0,0,1-.55-2.48,5.51,5.51,0,0,1,.7-2.84,6.3,6.3,0,0,1,1.83-2,7.92,7.92,0,0,1,2.56-1.19,10.75,10.75,0,0,1,2.85-.39,14,14,0,0,1,3.2.37,8.1,8.1,0,0,1,2.72,1.21,6.16,6.16,0,0,1,1.89,2.13,6.46,6.46,0,0,1,.7,3.13H96.16a3.85,3.85,0,0,0-.4-1.57,2.61,2.61,0,0,0-.91-1,3.87,3.87,0,0,0-1.29-.51,8,8,0,0,0-1.6-.15,5.5,5.5,0,0,0-1.13.12,3.06,3.06,0,0,0-1,.42,2.44,2.44,0,0,0-.76.74,2,2,0,0,0-.3,1.13,1.86,1.86,0,0,0,.24,1,2.12,2.12,0,0,0,.94.72,12.92,12.92,0,0,0,1.93.65c.82.22,1.9.5,3.23.83.39.08.94.23,1.65.43a8,8,0,0,1,2.1,1,6.38,6.38,0,0,1,1.79,1.83,5.16,5.16,0,0,1,.76,2.93,6.64,6.64,0,0,1-.56,2.71,5.91,5.91,0,0,1-1.68,2.15,8,8,0,0,1-2.77,1.41,12.94,12.94,0,0,1-3.82.51,13.34,13.34,0,0,1-3.41-.43,8.48,8.48,0,0,1-2.91-1.36,6.71,6.71,0,0,1-2-2.34,7.13,7.13,0,0,1-.71-3.4H88a3.89,3.89,0,0,0,.39,1.82"/><path class="cls-2" d="M113.48,133.57a10.69,10.69,0,1,0,10.68,10.69A10.7,10.7,0,0,0,113.48,133.57Zm0,4.39a11.36,11.36,0,0,1,9.85,6.23c-1.87,3.45-5.39,6.37-9.85,6.36s-8-2.91-9.85-6.36a11.53,11.53,0,0,1,9.85-6.23Zm0,.65a5.67,5.67,0,1,0,5.66,5.66A5.68,5.68,0,0,0,113.48,138.61Z"/><path class="cls-3" d="M142.05,128.28v7.16a9.23,9.23,0,0,0-6-2.39c-6.14,0-10,5.35-10,11s3.59,10.79,9.46,10.79a8.74,8.74,0,0,0,6.68-2.69v2.18h6.18V128.28Zm-4.61,10.66a4.81,4.81,0,0,1,4.92,5.1,4.86,4.86,0,0,1-5.11,5.18c-2.89,0-4.82-2.34-4.82-5.24A4.85,4.85,0,0,1,137.44,138.94Z"/><path class="cls-3" d="M172.57,133.05c-5.8,0-10.11,5.14-10.11,11,0,6.71,4,10.87,9.77,10.87a8.78,8.78,0,0,0,6.24-2.56v2.05h6.34V133.46h-6.25v2.14a8.06,8.06,0,0,0-6-2.55Zm1.25,5.86a4.91,4.91,0,0,1,5,5.18,5,5,0,0,1-5.16,5.1c-2.91,0-4.74-2.38-4.74-5.28A4.8,4.8,0,0,1,173.82,138.91Z"/><path class="cls-3" d="M217.76,140.06v14.37h-6.34V142.18c0-2.35-.82-3.31-2.85-3.31s-3.39,1.57-3.39,4.09v11.41h-6.41V142.11c0-2.28-.74-3.24-2.71-3.24s-3.39,1.47-3.39,4.06v11.44h-6.34V133.46h6.2v2.72s2.35-3.13,5.87-3.13a6.44,6.44,0,0,1,5.87,3.34c1.65-1.74,3-3.34,6.81-3.34,4.13,0,6.68,3.06,6.68,7"/><path class="cls-3" d="M228.71,133.05c-5.8,0-10.11,5.14-10.11,11,0,6.71,4,10.87,9.77,10.87a8.8,8.8,0,0,0,6.24-2.56v2.05h6.33V133.46H234.7v2.14a8.06,8.06,0,0,0-6-2.55Zm1.25,5.86a4.91,4.91,0,0,1,4.95,5.18,5,5,0,0,1-5.15,5.1c-2.91,0-4.74-2.38-4.74-5.28a4.79,4.79,0,0,1,4.94-5Z"/><path class="cls-3" d="M156.28,144.7v9.66h-6.42v-21H156v3.31a5.67,5.67,0,0,1,5-3.72h1.43v6.55a5.11,5.11,0,0,0-2.21-.41c-2.46,0-4,1.51-4,5.57"/></g></g></g></g></svg>