<svg xmlns="http://www.w3.org/2000/svg" viewBox="0 0 283.46 283.46"><defs><style>.cls-1{fill:#231f20;}.cls-2{fill:#fff;fill-rule:evenodd;}</style></defs><title>cbsnews</title><g id="Layer_2" data-name="Layer 2"><g id="News"><g id="cbsnews"><rect class="cls-1" width="283.46" height="283.46"/><g id="logo"><path class="cls-2" d="M72.27,125.27c-12.22-.06-22.15-8.14-27.41-17.84C50.17,97.79,60.16,90,72.27,90c12.33,0,22.21,7.76,27.41,17.46C94.48,117.13,84.7,125.32,72.27,125.27Zm0-47.63a30,30,0,1,0,29.75,30,29.88,29.88,0,0,0-29.75-30"/><path class="cls-2" d="M72.27,122.87a15.23,15.23,0,1,0-15.1-15.23,15.17,15.17,0,0,0,15.1,15.23"/><path class="cls-2" d="M118,107.53C118,85.77,124.2,78,131.56,78c10.42,0,16.12,15.68,17.92,21.76V78.71c-1.8,1.41-2.63,2.12-4.58,2.12A14.7,14.7,0,0,1,138.65,79a14.92,14.92,0,0,0-7-1.55c-9.17,0-25.15,12.29-25.15,30.09,0,21.05,14.17,30.09,25.15,30.09a15.81,15.81,0,0,0,7.23-2,13.54,13.54,0,0,1,6-2c1.95,0,2.78.71,4.58,2.12V114.59c-1.52,8.19-7.5,22.46-17.92,22.46-3,0-7.08-1.41-9-3.39-.58-.61-4.65-3.53-4.65-26.13"/><path class="cls-2" d="M179.28,136.32h-8.39v-.13h.83V105.57h8c5.89.15,10.61,3,10.61,15.52s-4.27,15.23-11.05,15.23Zm8.84-44c0,12.07-4.05,12.64-7.88,12.64h-8.52V79h6.38C183.26,79,188.12,80.29,188.12,92.36Zm-3.68,12.93C195.92,102.84,198,97.82,198,92.5c0-7.11-8.1-14.08-19.73-14.08H150.86V79H160v57.33h-9.13v.58h28.72c8.68,0,21.35-5.46,21.35-16.67s-12.08-14.37-16.49-14.94"/><path class="cls-2" d="M235.37,99.65h.75L236,77.76h-.66a6.81,6.81,0,0,1-4.53,2.08c-2.64,0-6.7-2.55-11-2.55S204,81.91,204,95,212.82,110.4,217,112.1s17.17,4.44,17.17,13.12-6.13,11.7-11.32,11.7-11.51-3.78-15-11.61-3.59-11.51-3.59-11.51h-.85v22.36H204a5.2,5.2,0,0,1,3.68-2.07c2.17,0,9.53,3.87,15.38,3.87s17.83-6,17.83-19.25-10-14.72-13.49-15.95-17.26-3.58-17.26-13.4,10.09-13.3,16-9,9,16.13,9.15,19.34"/><path class="cls-2" d="M207.48,145.28H194.16V147h5.91l-12.94,42.08L174.64,147h6.43v-1.69h-21.4V147h3.75L169,164.74l-7.43,24.48L149.24,147h4.94v-1.69H77.24V147h6.59v37L60.25,145.28H43V147h6.55v55.57H43V204H57.58v-1.46H51.36V152.41l31.18,51.51H85V147H96.67v55.57H90.13V204H135.6V185.58h-1.13s-2.18,10.34-6.78,13.65a23,23,0,0,1-6.67,3.31H107.17V173.47h4.36a8.44,8.44,0,0,1,6.46,2.58c2,2,3.72,9.29,3.72,9.29H123V160h-1.29s-.89,3.31-2.1,7-5.82,5.08-8,5.08c-1.55,0-3.46,0-4.44.07V147h12.6c2.57.75,6.09,2.11,7.92,4.37a20.69,20.69,0,0,1,3.87,8.4h1.29V147h5l17.77,59.21h2.18l11.95-38.61,11.55,38.61h2.26L202.06,147h5.42Zm20,24.77c-3.49-1.23-17.26-3.59-17.26-13.4s10.09-13.3,16-9.06,9,16.14,9.15,19.34h.75L236,145h-.66a6.81,6.81,0,0,1-4.53,2.08c-2.64,0-6.7-2.55-11-2.55s-15.76,4.63-15.76,17.74,8.78,15.38,12.93,17.08,17.17,4.43,17.17,13.11-6.13,11.7-11.32,11.7-11.51-3.77-15-11.6-3.59-11.52-3.59-11.52h-.85v22.37h.66a5.2,5.2,0,0,1,3.68-2.08c2.17,0,9.53,3.87,15.38,3.87s17.83-6,17.83-19.25-10-14.72-13.49-15.94"/></g></g></g></g></svg>