<svg xmlns="http://www.w3.org/2000/svg" viewBox="0 0 283.46 283.46"><defs><style>.cls-1{fill:#f3a91d;}.cls-2{fill:#fff;}</style></defs><g id="Layer_2" data-name="Layer 2"><g id="AMC_Networks_International" data-name="AMC Networks International"><g id="cbsreality"><rect class="cls-1" width="283.46" height="283.46"/><g id="logo"><g id="g34"><g id="g40"><path id="path42" class="cls-2" d="M57.64,136.89a4.93,4.93,0,0,0-2.55-2,5.22,5.22,0,0,0-1.72-.29,5.68,5.68,0,0,0-2.78.63,5.21,5.21,0,0,0-1.85,1.7,7.39,7.39,0,0,0-1,2.43,11.94,11.94,0,0,0-.33,2.81,11.11,11.11,0,0,0,.33,2.71,7.25,7.25,0,0,0,1,2.37,5.25,5.25,0,0,0,1.85,1.68,5.68,5.68,0,0,0,2.78.64,4.48,4.48,0,0,0,3.48-1.37,6.19,6.19,0,0,0,1.53-3.58h4.7a11.24,11.24,0,0,1-.95,3.74,9,9,0,0,1-2.05,2.84,8.5,8.5,0,0,1-3,1.8,11,11,0,0,1-3.75.62,11.45,11.45,0,0,1-4.56-.88,9.73,9.73,0,0,1-3.41-2.43,10.75,10.75,0,0,1-2.14-3.64,13.44,13.44,0,0,1-.74-4.5,13.94,13.94,0,0,1,.74-4.59,11.08,11.08,0,0,1,2.14-3.69,9.72,9.72,0,0,1,3.41-2.48,11.94,11.94,0,0,1,8-.37,9.41,9.41,0,0,1,2.91,1.53A8.4,8.4,0,0,1,61.85,135a9.16,9.16,0,0,1,1,3.4H58.2a4,4,0,0,0-.56-1.53"/></g><g id="g44"><path id="path46" class="cls-2" d="M75.39,131a13.53,13.53,0,0,1,2.88.28,6.36,6.36,0,0,1,2.22.91,4.31,4.31,0,0,1,1.44,1.69,5.91,5.91,0,0,1,.51,2.6,4.79,4.79,0,0,1-.76,2.78,5.44,5.44,0,0,1-2.24,1.82,5.31,5.31,0,0,1,3,2.06,6.12,6.12,0,0,1,1,3.54,6,6,0,0,1-.65,2.89,5.61,5.61,0,0,1-1.74,2,8,8,0,0,1-2.51,1.14,11.17,11.17,0,0,1-2.89.37H65V131Zm-.62,8.94a3.52,3.52,0,0,0,2.14-.62,2.35,2.35,0,0,0,.83-2,2.54,2.54,0,0,0-.28-1.27,2,2,0,0,0-.74-.77,3,3,0,0,0-1.07-.39,7.27,7.27,0,0,0-1.25-.11H69.85v5.17Zm.28,9.37a6.67,6.67,0,0,0,1.36-.14,3.47,3.47,0,0,0,1.15-.46,2.25,2.25,0,0,0,.78-.89,3,3,0,0,0,.3-1.42,2.87,2.87,0,0,0-1-2.43,4.14,4.14,0,0,0-2.54-.72H69.85v6.06Z"/></g><g id="g48"><path id="path50" class="cls-2" d="M90.25,147.64a3.62,3.62,0,0,0,1.07,1.25,4.47,4.47,0,0,0,1.56.71,7.18,7.18,0,0,0,1.86.23,10,10,0,0,0,1.39-.1,5,5,0,0,0,1.39-.42,3.12,3.12,0,0,0,1.08-.85,2.13,2.13,0,0,0,.44-1.38,1.94,1.94,0,0,0-.58-1.45,4.57,4.57,0,0,0-1.5-.93,15.38,15.38,0,0,0-2.1-.65c-.78-.18-1.58-.39-2.38-.62a21.09,21.09,0,0,1-2.41-.75A8.41,8.41,0,0,1,88,141.52a5.77,5.77,0,0,1-1.5-1.78,5.4,5.4,0,0,1-.57-2.58,5.75,5.75,0,0,1,.73-3,6.66,6.66,0,0,1,1.9-2.09,8.43,8.43,0,0,1,2.66-1.23,11.24,11.24,0,0,1,3-.4,13.91,13.91,0,0,1,3.32.38,8.36,8.36,0,0,1,2.83,1.25,6.38,6.38,0,0,1,2,2.22,6.8,6.8,0,0,1,.72,3.26h-4.7a4,4,0,0,0-.41-1.64,2.83,2.83,0,0,0-.95-1,4.09,4.09,0,0,0-1.34-.53,8.61,8.61,0,0,0-1.66-.15,5.81,5.81,0,0,0-1.17.12,3.07,3.07,0,0,0-1.07.44,2.64,2.64,0,0,0-.79.77,2.12,2.12,0,0,0-.31,1.17,1.9,1.9,0,0,0,.25,1.05,2.21,2.21,0,0,0,1,.75,14,14,0,0,0,2,.68l3.36.86c.41.09,1,.24,1.72.45a8.32,8.32,0,0,1,2.18,1,6.65,6.65,0,0,1,1.87,1.9,5.46,5.46,0,0,1,.79,3.05,6.77,6.77,0,0,1-.59,2.81,6.11,6.11,0,0,1-1.75,2.24,8.32,8.32,0,0,1-2.88,1.47,13.53,13.53,0,0,1-4,.53,13.85,13.85,0,0,1-3.54-.45,9,9,0,0,1-3-1.41,7,7,0,0,1-2.09-2.44,7.38,7.38,0,0,1-.74-3.53h4.7a4.06,4.06,0,0,0,.4,1.89"/></g><g id="g52"><path id="path54" class="cls-2" d="M116.3,131.1a11.12,11.12,0,1,0,11.12,11.12A11.13,11.13,0,0,0,116.3,131.1m0,17.66c-4.57,0-8.28-3-10.25-6.61,2-3.57,5.72-6.48,10.25-6.48a11.8,11.8,0,0,1,10.24,6.48c-1.94,3.59-5.6,6.63-10.24,6.61"/></g><g id="g56"><path id="path58" class="cls-2" d="M116.3,148.12a5.9,5.9,0,1,0-5.9-5.9,5.9,5.9,0,0,0,5.9,5.9"/></g><g id="g60"><path id="path62" class="cls-2" d="M153.51,130.49c6.25,0,10.67,4.15,10.67,11.92,0,.54,0,.82,0,1.32H148.91a4.81,4.81,0,0,0,5.09,3.83c2.16,0,3.57-1.52,4.7-3,0,0,3.93,2.28,5.13,3a11.33,11.33,0,0,1-10.14,5.68c-6.69,0-11.28-4.08-11.28-11.39,0-6.61,4.7-11.36,11.1-11.36m-4.35,8.62h8.24c-.78-2.09-1.91-3.08-4-3.08-2.22,0-3.46,1.06-4.28,3.08"/></g><g id="g64"><path id="path66" class="cls-2" d="M175.71,130.49a8.42,8.42,0,0,1,6.26,2.66v-2.24h6.5v21.8h-6.6v-2.13a9.18,9.18,0,0,1-6.51,2.66c-6,0-10.18-4.33-10.18-11.32,0-6.07,4.49-11.43,10.53-11.43m-3.85,11.32c0,3,1.91,5.5,4.95,5.5a5.23,5.23,0,0,0,5.37-5.32,5.12,5.12,0,0,0-5.16-5.4,5,5,0,0,0-5.16,5.22"/></g></g><path id="path68" class="cls-2" d="M190.42,125.52H197v27.19h-6.57Z"/><g id="g72"><g id="g78"><path id="path80" class="cls-2" d="M202.61,121.36a4,4,0,0,1,4,3.94,4.05,4.05,0,0,1-4.07,4,3.91,3.91,0,0,1-3.89-4,4,4,0,0,1,4-4m-3.32,9.55h6.57v21.8h-6.57Z"/></g></g><g id="g82"><path id="path84" class="cls-2" d="M209.23,152.71v-15.8h-2.16v-6h2.16v-5.39h6.6v5.39h3.5v6h-3.5v15.76Z"/></g><g id="g88"><g id="g94"><path id="path96" class="cls-2" d="M234.51,130.84v12.67a3.32,3.32,0,0,1-3.67,3.59,3.47,3.47,0,0,1-3.72-3.76v-12.5h-6.57v12.67c0,6,4,9.66,10.22,9.66a13.65,13.65,0,0,0,4-.55v.22c0,2.38-2,3.44-4.17,3.44a3.13,3.13,0,0,1-3.27-1.78h-7c.66,4.9,5.07,7.6,10.12,7.6,5.74,0,10.51-3.51,10.51-10.26v-21Z"/></g><g id="g98"><path id="path100" class="cls-2" d="M136,142.66v10.05h-6.67v-21.8h6.43v3.45a5.88,5.88,0,0,1,5.18-3.88h1.49v6.82a5.46,5.46,0,0,0-2.31-.42c-2.55,0-4.12,1.56-4.12,5.78"/></g></g></g></g></g></g></svg>