<?xml version="1.0" standalone="yes"?>
<svg xmlns="http://www.w3.org/2000/svg" width="1024" height="1024">
<path style="fill:#bfaf63; stroke:none;" d="M0 0L0 1024L1024 1024L1024 0L0 0z"/>
<path style="fill:#ffffff; stroke:none;" d="M325 589C322.598 580.2 319.04 571.532 315.808 563C314.847 560.463 314.075 555.564 311.49 554.136C308.844 552.674 305.309 555.429 303 556.515C296.267 559.681 289.195 562.362 282 564.265C259.928 570.104 234.015 567.674 217.171 550.829C188.679 522.338 201.442 472.958 239 460.079C263.344 451.731 283.147 461.419 306 468C312.037 457.657 320.885 444.867 323 433C277.866 414.209 224.017 407.374 185.004 444.089C146.859 479.988 147.932 546.618 186 581.91C205.299 599.801 232.181 607.04 258 607C282.37 606.962 303.025 598.149 325 589M462 510L462 546C462 550.099 463.335 557.176 460.397 560.49C454.328 567.336 438.26 567.013 430 567C392.015 566.939 364.292 532.019 376.358 495C386.933 462.556 420.147 452.89 451 458.25C458.487 459.551 473.958 467.936 480.787 466.184C484.003 465.359 485.413 460.59 486.781 458C491.06 449.901 496.449 441.855 499 433C454.473 411.926 398.363 409.064 359.001 442.439C310.143 483.865 323.347 567.572 379 595.398C407.603 609.7 442.893 610.143 473 600.33C481.895 597.431 495.234 593.876 501.397 586.32C504.516 582.495 503 574.635 503 570L503 528C503 524.062 504.829 513.746 501.397 511.028C498.779 508.954 493.122 510 490 510L462 510z"/>
<path style="fill:#cfc395; stroke:none;" d="M234 419L235 420L234 419z"/>
<path style="fill:#ffffff; stroke:none;" d="M512 420L512 456L572 456L572 604L615 604L615 456L674 456L674 420L512 420M692 420L692 604L734 604L734 490C757.243 515.237 778.635 542.625 800.586 569C808.721 578.773 818.859 596.791 830.089 602.821C838.856 607.529 857.134 604 867 604L867 420L824 420L824 532C802.736 505.867 780.271 480.646 758.421 455C750.037 445.159 739.619 426.866 727.999 421.028C719.228 416.621 701.76 420 692 420z"/>
<path style="fill:#cfc395; stroke:none;" d="M219 423L220 424L219 423M758 455L759 456L758 455M240 459L241 460L240 459M232 462L233 463L232 462M169 464L170 465L169 464M775 475L776 476L775 475M787 489L788 490L787 489M205 490L206 491L205 490z"/>
<path style="fill:#cfc195; stroke:none;" d="M737 493L738 494L737 493M201 509L202 510L201 509z"/>
<path style="fill:#cfc395; stroke:none;" d="M753 512L754 513L753 512M810 516L811 517L810 516z"/>
<path style="fill:#cfc195; stroke:none;" d="M758 518L759 519L758 518z"/>
<path style="fill:#cfc395; stroke:none;" d="M822 530L823 531L822 530M774 537L775 538L774 537z"/>
<path style="fill:#cfc195; stroke:none;" d="M779 543L780 544L779 543z"/>
<path style="fill:#cfc395; stroke:none;" d="M163 548L164 549L163 548M215 549L216 550L215 549M218 552L219 553L218 552z"/>
<path style="fill:#cfc195; stroke:none;" d="M305 555L306 556L305 555z"/>
<path style="fill:#cfc395; stroke:none;" d="M223 556L224 557L223 556z"/>
<path style="fill:#cfc195; stroke:none;" d="M303 556L304 557L303 556z"/>
<path style="fill:#cfc395; stroke:none;" d="M226 558L227 559L226 558M315 562L316 563L315 562M795 562L796 563L795 562z"/>
<path style="fill:#cfc195; stroke:none;" d="M800 568L801 569L800 568z"/>
<path style="fill:#cfc395; stroke:none;" d="M190 585L191 586L190 585M816 587L817 588L816 587M319 591L320 592L319 591z"/>
<path style="fill:#cfc195; stroke:none;" d="M821 593L822 594L821 593z"/>
<path style="fill:#cfc395; stroke:none;" d="M212 598L213 599L212 598z"/>
<path style="fill:#cfc195; stroke:none;" d="M232 604L233 605L232 604z"/>
<path style="fill:#cfc395; stroke:none;" d="M266 606L267 607L266 606z"/>
</svg>
