<svg xmlns="http://www.w3.org/2000/svg" viewBox="0 0 283.46 283.46"><defs><style>.cls-1{fill:#fab813;}.cls-2{fill:#1c1a1b;}</style></defs><g id="Layer_2" data-name="Layer 2"><g id="HBO_Cinemax" data-name="HBO &amp; Cinemax"><g id="cinemax"><rect class="cls-1" width="283.46" height="283.46"/><path id="logo" class="cls-2" d="M63,159.14c-.22,2.17,2,4,4.94,3.6h0l14.65-1.81,1-6.79-10,1.23c-1.31.16-2.51-.26-2.27-2l.88-6.17c.26-1.95,1.91-2.47,3.64-2.69l9.23-1.11,1-6.82-16.23,2a5.14,5.14,0,0,0-4.55,3.84Zm33.35-23.77-7.85.95-3.43,24.29,7.86-1Zm-1,24,7.8-.95,1.71-12.08,7,11,7-.86,3.43-24.28-7.8.95-1.64,11.59-6.72-10.56-7.36.91Zm35.82-19.29.34-2.47,12.33-1.51,1-6.66-20,2.46-3.43,24.29,20-2.47.92-6.66L130,148.55l.4-2.64,11.48-1.41.81-5.86ZM214,132.58l8.73-12.74-9.1,1.12-4.07,6.3-3.39-5.38-8.49,1.05,6.88,10.47-7.87,11.47-5.88-21.06-7.8.94-12.51,23.84,3.2-22.73-8.63,1.07-6.24,9.15L155,128.15l-7.76,1-3.42,24.29,7.68-.94,1.7-12,4.18,8h.14l6.62-9.31-1.68,12,7.18-.88.64-.08,7.92-1,1.67-3.42,8.23-1,.78,3.1,6.29-.77,2.08-.25,7-.87,4.79-7.33,3.68,6.3,8.5-1Zm26.92-25.24-6.34,45.2L42.52,176.12l6.36-45.19Zm-55.28,26.27,1.34,5.64-4.31.51Z"/></g></g></g></svg>