<svg xmlns="http://www.w3.org/2000/svg" viewBox="0 0 283.46 283.46"><defs><style>.cls-1{fill:#fab813;}.cls-2{fill:#1c1a1b;}</style></defs><title>cinemax2</title><g id="Layer_2" data-name="Layer 2"><g id="HBO_Cinemax" data-name="HBO &amp; Cinemax"><g id="cinemax2"><rect class="cls-1" width="283.46" height="283.46"/><g id="logo"><path class="cls-2" d="M126.14,153.31l.77-5.56L116.64,149l.33-2.19,9.57-1.18.68-4.89-9.57,1.18.28-2.06,10.28-1.26.8-5.56-16.72,2-2.86,20.25Z"/><path class="cls-2" d="M94.28,157.22l1.44-10.07,5.84,9.17,5.83-.72,2.86-20.24-6.5.79-1.37,9.67L96.78,137l-6.13.75L87.78,158Z"/><path class="cls-2" d="M163.06,136.54l1.12,4.7-3.59.44Zm-28.46,15.72,1.41-10,3.49,6.65h.12l5.52-7.76-1.41,10,6-.74.53-.06,6.62-.81,1.38-2.85,6.86-.84.66,2.59,5.24-.65,1.73-.21,5.86-.72,4-6.12,3.07,5.26,7.09-.87-6-9.44L194,125.07l-7.59.93L183,131.26l-2.83-4.49-7.09.86,5.75,8.74-6.56,9.57-4.91-17.57-6.5.79L150.43,149l2.67-18.95-7.19.88-5.2,7.63L137.52,132l-6.48.8-2.85,20.25Z"/><path class="cls-2" d="M64.92,160.83h0l12.22-1.5.84-5.66-8.3,1c-1.1.14-2.1-.2-1.9-1.62l.73-5.13c.21-1.62,1.59-2.06,3-2.24l7.69-.94.81-5.68-13.53,1.66a4.31,4.31,0,0,0-3.79,3.2l-1.93,13.91c-.19,1.8,1.66,3.29,4.11,3"/><path class="cls-2" d="M85.77,158.26,88.63,138l-6.56.8-2.86,20.25Z"/><path class="cls-2" d="M226.93,137.33l-.74,5.13-17.46,2.14.71-4.87,10.3-8.68c1.77-1.52,2.28-2.54,2.15-3.58s-1-1.71-2.37-1.53c-1.57.19-3.17,1.47-4.66,3.36l-4-3.31a12.09,12.09,0,0,1,8.6-5.4c4.79-.59,8.07,1.66,8.51,5.35.34,2.71-.71,5.1-4.84,8.38l-5,4.1Zm-30,14.72L43.9,171.3l5-35.83L202,116.22Zm6-37.16h0L47.9,134.41l-5.38,38.26,155.15-19.51,38-4.67,5.32-37.69Z"/></g></g></g></g></svg>