<svg xmlns="http://www.w3.org/2000/svg" viewBox="0 0 283.46 283.46"><defs><style>.cls-1{fill:#fab813;}.cls-2{fill:#1c1a1b;}</style></defs><title>cinemax</title><g id="Layer_2" data-name="Layer 2"><g id="HBO_Cinemax" data-name="HBO &amp; Cinemax"><g id="cinemax"><rect class="cls-1" width="283.46" height="283.46"/><path id="logo" class="cls-2" d="M63,159.14c-.22,2.17,2,4,4.94,3.6h0l14.65-1.81,1-6.79-10,1.23c-1.31.16-2.51-.26-2.27-2l.88-6.16c.26-2,1.9-2.47,3.63-2.69l9.23-1.12,1-6.82-16.23,2a5.13,5.13,0,0,0-4.54,3.84Zm33.35-23.77-7.86,1-3.43,24.29,7.86-1Zm-1,24,7.8-.95,1.72-12.08,7,11,7-.86,3.43-24.28-7.8.95-1.65,11.59-6.72-10.56-7.36.91Zm35.82-19.29.34-2.47,12.33-1.51,1-6.66-20.05,2.46-3.43,24.29,20-2.47.92-6.66L130,148.55l.39-2.64,11.48-1.41.81-5.86ZM214,132.58l8.73-12.73-9.1,1.12-4.06,6.3-3.39-5.38-8.5,1,6.89,10.47-7.87,11.47-5.88-21.06-7.8.95-12.51,23.83,3.2-22.73-8.63,1.07-6.24,9.15L155,128.15l-7.76,1-3.43,24.29,7.69-.95,1.69-12,4.19,8h.14l6.62-9.31-1.68,12,7.18-.87.64-.09,7.92-1,1.67-3.41,8.23-1,.79,3.11,6.29-.77,2.08-.25,7-.87,4.79-7.33,3.68,6.3,8.5-1Zm26.93-25.24-6.35,45.2L42.52,176.12l6.36-45.19Zm-55.28,26.27,1.34,5.64-4.31.52Z"/></g></g></g></svg>