<svg xmlns="http://www.w3.org/2000/svg" viewBox="0 0 283.46 283.46"><defs><style>.cls-1{fill:#00adef;}.cls-2{fill:#fff;}</style></defs><g id="Layer_2" data-name="Layer 2"><g id="Other_music" data-name="Other music"><g id="classica"><rect class="cls-1" width="283.46" height="283.46"/><g id="logo"><path class="cls-2" d="M93.45,149.78h0v0Z"/><path class="cls-2" d="M106.45,125.69h-1.64L94.57,147.4l1.07,2.34,10-20.88,13.23,28.95H121Z"/><path class="cls-2" d="M130.15,129.55a7.44,7.44,0,0,1,5.13-1.8h.06a11.17,11.17,0,0,1,6.1,1.94l0,0-1.33-3.11a12.61,12.61,0,0,0-4.77-.91h-.07c-5.32,0-9.17,3.55-9.15,8.37,0,4.35,4,6.35,7.79,8.29,3.58,1.82,7,3.53,7,7a6,6,0,0,1-1.86,4.46,7.78,7.78,0,0,1-5.45,1.93h-.06a14.56,14.56,0,0,1-8.13-2.69l-.18-.14V153l1.4,3.25a16.59,16.59,0,0,0,6.84,1.56h.06a10,10,0,0,0,7.14-2.68,8.35,8.35,0,0,0,2.49-6c0-4.59-4.08-6.62-8-8.58-3.48-1.74-6.78-3.39-6.79-6.68a5.72,5.72,0,0,1,1.79-4.29"/><path class="cls-2" d="M58.18,155.8a14.1,14.1,0,1,1,12-22.11l1-2a16.07,16.07,0,1,0-1,21.15v-3.11a14.05,14.05,0,0,1-12,6.08"/><path class="cls-2" d="M99.14,157.83l-.93-2H80.4V126.66l-2-1v32.13Z"/><path class="cls-2" d="M175.74,157.83h2V126.69l-2-1Z"/><path class="cls-2" d="M153.69,129.55a7.44,7.44,0,0,1,5.13-1.8h.06a11.17,11.17,0,0,1,6.1,1.94l0,0-1.33-3.11a12.65,12.65,0,0,0-4.77-.91h-.07c-5.32,0-9.17,3.55-9.15,8.37,0,4.35,4,6.35,7.79,8.29,3.58,1.82,7,3.53,7,7a6,6,0,0,1-1.86,4.46,7.78,7.78,0,0,1-5.45,1.93h-.06a14.56,14.56,0,0,1-8.13-2.69l-.18-.14V153l1.4,3.25a16.59,16.59,0,0,0,6.84,1.56h.06a10,10,0,0,0,7.14-2.68,8.35,8.35,0,0,0,2.49-6c0-4.59-4.08-6.62-8-8.58-3.48-1.74-6.78-3.39-6.79-6.68a5.72,5.72,0,0,1,1.79-4.29"/><path class="cls-2" d="M238.78,157.83h2.16L226.39,125.7h-1.63l-7.55,16,1.07,2.39,7.27-15.21Z"/><path class="cls-2" d="M201.84,155.85a14.1,14.1,0,1,1,11.53-22.11l.95-2a16.07,16.07,0,1,0,0,20.1l-.93-2.06a14.05,14.05,0,0,1-11.52,6.09"/></g></g></g></g></svg>