<svg xmlns="http://www.w3.org/2000/svg" viewBox="0 0 283.46 283.46"><defs><style>.cls-1{fill:#00adef;}.cls-2{fill:#fff;}</style></defs><title>classica</title><g id="Layer_2" data-name="Layer 2"><g id="Other_music" data-name="Other music"><g id="classica"><rect class="cls-1" width="283.46" height="283.46"/><g id="logo"><path class="cls-2" d="M93.45,149.78h0Z"/><path class="cls-2" d="M106.45,125.69h-1.63L94.57,147.4l1.06,2.34,10-20.87,13.23,28.95H121Z"/><path class="cls-2" d="M130.15,129.55a7.41,7.41,0,0,1,5.13-1.8h.05a11.23,11.23,0,0,1,6.11,1.93l0,0-1.34-3.11a12.53,12.53,0,0,0-4.76-.92h-.07c-5.33,0-9.18,3.55-9.15,8.38,0,4.35,4,6.35,7.79,8.29,3.58,1.82,7,3.53,7,7a6,6,0,0,1-1.86,4.45,7.78,7.78,0,0,1-5.45,1.93h-.06a14.52,14.52,0,0,1-8.13-2.7l-.18-.14V153l1.4,3.25a16.58,16.58,0,0,0,6.84,1.56h.06a10,10,0,0,0,7.13-2.68,8.33,8.33,0,0,0,2.49-6c0-4.58-4.08-6.61-8-8.58-3.48-1.74-6.78-3.39-6.79-6.68a5.73,5.73,0,0,1,1.79-4.29"/><path class="cls-2" d="M58.18,155.8a14.1,14.1,0,1,1,12-22.11l1-2a16.07,16.07,0,1,0-1,21.15v-3.11a14.08,14.08,0,0,1-12,6.08"/><path class="cls-2" d="M99.14,157.83l-.93-2H80.4V126.66l-2-1v32.12Z"/><path class="cls-2" d="M175.74,157.83h2V126.69l-2-1Z"/><path class="cls-2" d="M153.69,129.55a7.41,7.41,0,0,1,5.13-1.8h.05a11.23,11.23,0,0,1,6.11,1.93l0,0-1.34-3.11a12.53,12.53,0,0,0-4.76-.92h-.07c-5.33,0-9.18,3.55-9.15,8.38,0,4.35,4,6.35,7.79,8.29,3.58,1.82,7,3.53,7,7a6,6,0,0,1-1.86,4.45,7.78,7.78,0,0,1-5.45,1.93h-.06a14.52,14.52,0,0,1-8.13-2.7l-.18-.14V153l1.4,3.25a16.58,16.58,0,0,0,6.84,1.56h.06a10,10,0,0,0,7.13-2.68,8.33,8.33,0,0,0,2.49-6c0-4.58-4.08-6.61-8-8.58-3.48-1.74-6.78-3.39-6.79-6.68a5.73,5.73,0,0,1,1.79-4.29"/><path class="cls-2" d="M238.78,157.83h2.16L226.39,125.7h-1.63l-7.55,16,1.07,2.39,7.27-15.21Z"/><path class="cls-2" d="M201.84,155.85a14.1,14.1,0,1,1,11.53-22.11l1-2a16.07,16.07,0,1,0,0,20.1l-.92-2.06a14.09,14.09,0,0,1-11.52,6.09"/></g></g></g></g></svg>