<?xml version="1.0" encoding="UTF-8"?>
<svg width="1024" height="973.153" version="1.1" viewBox="0 0 1024 973.153" xmlns="http://www.w3.org/2000/svg">
    <defs/>
    <g transform="matrix(1.02422 0 0 1.02422 -.112024 -25.5335)">
        <path d="m0.109375 975.07h999.782v-950.14h-999.782z" style="fill:#00fff5"/>
        <path d="m846.293 760.805c-4.387 16.218-6.043 28.582-6.422 44.675-0.644 27.54-39.855 38.473-61.586 7.207-17.887-25.734-38.406-117.558-40.805-128.457-9.804-44.535-13.593-60.757-14.828-77.222-1.582-21.098 6.914-33.082 25.657-37.934 19.418-5.027 35.207 4.649 36.781 25.93 2.957 40.008 5.387 71.215 9.246 89.422 1.293 6.094 4.883 8.293 8.734 8.293 5.024 0 7.957-3.504 9.735-7.332 7.343-15.817 26.16-83.321 88.043-161.766v-161.133h-298.653l-102.265 102.262-102.27-102.262h-298.656v524.395h301.945v-180.77l98.977 98.973 98.972-98.973v180.77h40.567c0.402-14.207 0.691-33.125 0.433-41.153-0.371-8.378-0.781-28.511-0.781-39.394 0-60.531 5.297-75.363 5.297-162.602 0-26.086-5.84-32.425-14.254-32.425-9.402 0-33.18 17.875-50.699 30.347-28.094 19.969-43.227 35.883-61.411 35.883-10.738 0-16.863-4.734-23.679-13.453-1.274-1.609-4.891-8.824-4.891-14.57 0-6.446 2.578-15.368 12.481-21.34 10.707-6.442 22.531-5.211 47.922-20.535 30.109-18.172 66.105-39.25 71.902-42.918 10.348-5.442 7.875-13.817 7.887-21.571 0-16.886 15.136-22.726 28.125-22.726 12.457 0 20.187 4.605 22.054 5.453 4.664-2.586 16.778-9.371 39.461-23.359 27.899-17.208 27.414-30.817 44.805-34.547 19.285-4.133 31.5 14.679 31.5 27.82 0 19.715-25.188 31.172-37.875 38.336-35.52 20.058-48.074 28.512-60.727 36.695 0.672 7.906 0.664 26.262 0.676 42.125 0 26.41 7.926 75.707 7.926 103.028 0 32.421-1.352 72.625-1.352 82.625 0 16.125 1.825 34.445 3.325 47.128 0.976 10.379 2.308 27.383 3.039 41.153h190.207v-252.723c-0.332 0.652-0.664 1.301-0.996 1.961-16.461 32.789-37.5 69.191-53.559 124.684"/>
        <g transform="translate(271.035,282.768)">
            <path d="m83.8125-26.5156c-26.7344 0-42.4687-18.6563-42.4687-53.0313 0-33.4841 16.1875-51.2341 41.7968-51.2341 19.5474 0 32.3594 10.562 37.7504 28.312l31.906-6.969c-6.516-28.749-29.438-52.343-69.4376-52.343-47.625 0-76.625 35.047-76.625 82.2341 0 48.3125 28.5469 84.0469 77.0781 84.0469 39.3285 0 62.2495-20.4531 69.6565-53.4844l-31.672-7.1875c-5.406 19.7656-18.203 29.6563-37.9845 29.6563z"/>
        </g>
        <g transform="translate(428.104,282.768)">
            <path d="m41.125 0v-158.422h-31.4688v158.422z"/>
        </g>
        <g transform="translate(479.337,282.768)">
            <path d="m47.6406 4.5c17.2969 0 28.5313-9.21875 34.375-18.2031v13.7031h30.5624v-113.25h-30.5624v63.5937c0 16.625-6.5156 27.8594-22.9218 27.8594-13.4844 0-20.2188-7.4219-20.2188-24.7187v-66.7344h-30.5625v72.5781c0 27.8594 13.2656 45.1719 39.3281 45.1719z"/>
        </g>
        <g transform="translate(601.128,282.768)">
            <path d="m122.469-56.625c0-42.4688-21.125-61.125-47.4221-61.125-17.75 0-29.875 9-35.2813 17.75v-58.422h-30.5468v158.422h30.5468v-14.375c5.1719 9.65625 17.0782 18.875 34.1563 18.875 30.5621 0 48.5471-24.5 48.5471-61.125zm-82.7034-0.4531c0-20.4375 9-32.7969 26.0782-32.7969 16.8437 0 25.6093 12.3594 25.6093 32.7969 0 20.6718-8.7656 33.7031-25.6093 33.7031-17.0782 0-26.0782-13.0313-26.0782-33.7031z"/>
        </g>
    </g>
</svg>