<svg xmlns="http://www.w3.org/2000/svg" viewBox="0 0 283.46 283.46"><defs><style>.cls-1{fill:#ed192d;}.cls-2{fill:#fff;}</style></defs><title>cnn</title><g id="Layer_2" data-name="Layer 2"><g id="News"><g id="cnn"><rect class="cls-1" width="283.46" height="283.46"/><g id="logo"><path class="cls-2" d="M229,94.74h.27V170c0,3.54-2,5.43-3.81,6a5.58,5.58,0,0,1-6.25-2.47l-.1-.12c-3.18-5.08-31.28-50.11-38.52-61.94a2.25,2.25,0,0,0-2.51-1c-.92.29-1.48,1.29-1.47,2.68V170c0,3.57-1.94,5.45-3.77,6a5.52,5.52,0,0,1-6.17-2.47l-.07-.12c-3.19-5.09-31.3-50.11-38.53-61.94a2.25,2.25,0,0,0-2.51-1c-.94.29-1.48,1.3-1.48,2.68v56.51a6.5,6.5,0,0,1-6.49,6.48H90.33c-24.83,0-36.17-18-36.17-34.69,0-17.34,12-34.92,35-34.94H106V94.74H91.22c-33.45,0-48.69,23.93-48.7,46.16,0,22.64,15.5,47,49.56,47h25.53c5.55,0,10.16-1.68,13.32-4.84s4.95-8,4.95-13.88V146.66l19.43,32.19c4.77,7.87,13.68,11.8,21.67,9.57,7.16-2,11.43-8.23,11.43-16.68V146.68l19.43,32.19c4.77,7.87,13.68,11.8,21.67,9.57,7.17-2,11.46-8.28,11.43-16.75V94.74Z"/><path class="cls-2" d="M69.22,141.56c0-9.7,7.17-20,20.52-20H106V109.94H89.19c-20.73,0-31.57,15.85-31.55,31.46,0,15,10.24,31.21,32.69,31.21h27.29a3,3,0,0,0,3-3v-56.5c0-3,1.48-5.25,3.9-6a5.84,5.84,0,0,1,6.49,2.45c4.48,7.34,17.45,28.21,37.52,60.35l1.06,1.71a2.08,2.08,0,0,0,2.24,1.06c.83-.26,1.33-1.27,1.33-2.71V113.11c0-2.94,1.48-5.24,3.9-6a5.86,5.86,0,0,1,6.48,2.47c4.48,7.34,17.45,28.21,37.52,60.35,0,0,1.06,1.7,1.06,1.71a2.16,2.16,0,0,0,2.32,1.06c.86-.27,1.38-1.29,1.38-2.71V94.74H214.1v43.07c-.94-1.62-18.45-31.55-18.45-31.55-6.39-11-15.48-13-21.88-11.3-7.39,2-12.36,8.81-12.36,17v25.88l-18.28-31.54c-6.39-11-15.5-13-21.9-11.29-7.4,2-12.38,8.79-12.38,16.93v46.25a2.93,2.93,0,0,1-.83,2.07,2.67,2.67,0,0,1-2,.8H91.6C76.16,161,69.23,151.25,69.22,141.56Z"/></g></g></g></g></svg>