<svg xmlns="http://www.w3.org/2000/svg" viewBox="0 0 283.46 283.46"><defs><style>.cls-1{fill:#dee327;}.cls-2{fill:#fff;}</style></defs><title>comedycentral</title><g id="Layer_2" data-name="Layer 2"><g id="Viacom"><g id="comedycentral"><rect width="283.46" height="283.46"/><g id="logo"><path id="path3120" class="cls-1" d="M139.73,45.68A82.74,82.74,0,0,0,67.17,88.61l15.74,8.44a64.82,64.82,0,1,1-.42,62.41l-15.56,8.35a82.76,82.76,0,1,0,72.8-122.13Zm-.2,43a40,40,0,1,0,35.3,58.84l-16.29-8.73a21.88,21.88,0,1,1-.42-21L174.41,109A40,40,0,0,0,139.53,88.64Z"/><path id="path3062" class="cls-2" d="M78,224a.51.51,0,0,0-.49.42l-2.12,12.49c-.06.34.12.63.37.63H77.9c.25,0,.42-.29.47-.63l.75-5.69,3.25,6.19a.63.63,0,0,0,1,0l3.29-6.09.76,5.59c0,.34.07.63.43.63h2.31c.19,0,.3-.29.24-.63l-2.15-12.49a.51.51,0,0,0-.88-.25l-4.5,8.25-4.49-8.25A.44.44,0,0,0,78,224Zm-28.65.05a6.79,6.79,0,0,0-6.81,6.73v.15a6.79,6.79,0,0,0,6.81,6.73A6.68,6.68,0,0,0,54,235.8a.23.23,0,0,0,0-.37l-1.75-1.75c-.11-.12-.23-.11-.36,0a4.29,4.29,0,0,1-2.57,1,3.77,3.77,0,0,1-3.81-3.74v-.15a3.76,3.76,0,0,1,3.81-3.73,4.17,4.17,0,0,1,2.57,1,.24.24,0,0,0,.36,0L54,226.31a.24.24,0,0,0,0-.38,6.77,6.77,0,0,0-4.69-1.87Zm15.24,0a6.81,6.81,0,1,0,6.8,6.81A6.81,6.81,0,0,0,64.57,224.06Zm31.21.12a.42.42,0,0,0-.42.43v12.52a.42.42,0,0,0,.42.42h7.77a.42.42,0,0,0,.42-.42v-2a.41.41,0,0,0-.42-.42h-5.2v-2.5h4.33a.42.42,0,0,0,.42-.42v-2a.42.42,0,0,0-.42-.43H98.35v-2.24h5.2a.42.42,0,0,0,.42-.42v-2a.42.42,0,0,0-.42-.43Zm13.72,0a.51.51,0,0,0-.51.52V237a.51.51,0,0,0,.51.52h4.83l.15,0a6.68,6.68,0,0,0,0-13.31.4.4,0,0,0-.15,0H109.5Zm14.13,0c-.34,0-.46.23-.27.52l3.38,5.1.71,1.06.13.2v5.87a.62.62,0,0,0,.62.62h1.89a.61.61,0,0,0,.61-.62v-5.85l.15-.22.69-1,0,0,3.38-5.1c.19-.29.07-.52-.27-.52H132.5a1.26,1.26,0,0,0-1,.52l-2.39,3.59-2.39-3.59a1.28,1.28,0,0,0-1-.52Zm-59.06,2.88a3.81,3.81,0,1,1-3.81,3.81A3.81,3.81,0,0,1,64.57,227.06Zm47.4,0h1.68a3.81,3.81,0,0,1,0,7.62H112Z"/><path id="rect3041" class="cls-2" d="M200.46,224c-.34,0-.84.21-.84.46v12.47a.62.62,0,0,0,.62.62h1.89a.62.62,0,0,0,.62-.62v-6.54l7.37,7.24c.25.24,1.12,0,1.12-.36V224.8a.62.62,0,0,0-.62-.62h-1.89a.61.61,0,0,0-.61.62v6.78l-7.38-7.48a.45.45,0,0,0-.28-.1Zm33.68.06a6.71,6.71,0,0,0-4.69,1.87.23.23,0,0,0,0,.38l1.75,1.75a.24.24,0,0,0,.36,0,4.18,4.18,0,0,1,2.58-1,3.77,3.77,0,0,1,3.81,3.73v.15a3.78,3.78,0,0,1-3.81,3.74,4.3,4.3,0,0,1-2.58-1,.23.23,0,0,0-.36,0l-1.75,1.75a.22.22,0,0,0,0,.37,6.66,6.66,0,0,0,4.69,1.87,6.78,6.78,0,0,0,6.8-6.73v-.15A6.79,6.79,0,0,0,234.14,224.06Zm-90.19.12a.41.41,0,0,0-.41.41v2.06a.41.41,0,0,0,.41.41h4.46v10.08a.41.41,0,0,0,.41.41h2.31a.4.4,0,0,0,.4-.41V224.59a.4.4,0,0,0-.4-.41Zm11.76,0a.27.27,0,0,0-.26.41l6,13a.48.48,0,0,0,.82,0l6-13a.27.27,0,0,0-.26-.41h-2.14a.8.8,0,0,0-.65.41l-.73,1.59h-5.28l-.74-1.59a.79.79,0,0,0-.64-.41Zm16.22,0a.28.28,0,0,0-.27.46l2.68,5a4.06,4.06,0,0,0,1.24,7.93h5.67a.51.51,0,0,0,.51-.52V224.7a.51.51,0,0,0-.51-.52h-2a.52.52,0,0,0-.52.52v4.73H177.6L175,224.64a1,1,0,0,0-.76-.46Zm17.74,0a.41.41,0,0,0-.41.41v10.09h-2.72a.41.41,0,0,0-.41.41v2a.41.41,0,0,0,.41.41H195a.41.41,0,0,0,.41-.41v-2a.41.41,0,0,0-.41-.41h-2.72V224.59a.41.41,0,0,0-.41-.41Zm27,0a.42.42,0,0,0-.42.43v2a.42.42,0,0,0,.42.42h5.2v2.49h-4.33a.42.42,0,0,0-.42.43v2a.42.42,0,0,0,.42.42h4.33v2.25h-5.2a.41.41,0,0,0-.42.42v2a.42.42,0,0,0,.42.42h7.77a.42.42,0,0,0,.43-.42V224.61a.43.43,0,0,0-.43-.43Zm-56.19,4.63h2.83l-1.41,3Zm15.55,3h2.74v3H176a1.5,1.5,0,0,1,0-3Z"/></g></g></g></g></svg>