<svg xmlns="http://www.w3.org/2000/svg" viewBox="0 0 283.46 283.46"><defs><style>.cls-1{fill:#dee327;}.cls-2{fill:#fff;}</style></defs><title>comedycentral</title><g id="Layer_2" data-name="Layer 2"><g id="Viacom"><g id="comedycentral"><rect width="283.46" height="283.46"/><g id="logo"><path id="path3120" class="cls-1" d="M139.73,45.68A82.74,82.74,0,0,0,67.17,88.61L82.91,97a64.83,64.83,0,1,1-.42,62.41l-15.57,8.35A82.76,82.76,0,1,0,139.73,45.68Zm-.2,43a40,40,0,1,0,35.29,58.84l-16.29-8.73a21.88,21.88,0,1,1-.42-21L174.41,109A40,40,0,0,0,139.53,88.64Z"/><path id="path3062" class="cls-2" d="M78,224a.49.49,0,0,0-.49.42l-2.12,12.49c-.06.34.12.62.37.62H77.9c.25,0,.42-.28.47-.62l.75-5.7,3.25,6.2a.64.64,0,0,0,1,0l3.29-6.09.76,5.59c0,.34.07.62.43.62h2.31c.2,0,.3-.28.25-.62l-2.16-12.49a.5.5,0,0,0-.87-.25l-4.5,8.24-4.5-8.24A.42.42,0,0,0,78,224Zm-28.65,0a6.8,6.8,0,0,0-6.81,6.73v.15a6.8,6.8,0,0,0,6.81,6.73A6.73,6.73,0,0,0,54,235.8a.23.23,0,0,0,0-.37l-1.75-1.75a.24.24,0,0,0-.36,0,4.2,4.2,0,0,1-2.57,1,3.77,3.77,0,0,1-3.81-3.74v-.15a3.77,3.77,0,0,1,3.81-3.74,4.2,4.2,0,0,1,2.57,1,.24.24,0,0,0,.36,0L54,226.31a.23.23,0,0,0,0-.37,6.73,6.73,0,0,0-4.69-1.87Zm15.24,0a6.81,6.81,0,1,0,6.81,6.81A6.81,6.81,0,0,0,64.57,224.06Zm31.21.12a.42.42,0,0,0-.42.42v12.52a.42.42,0,0,0,.42.42h7.78a.42.42,0,0,0,.42-.42v-2a.42.42,0,0,0-.42-.42h-5.2v-2.5h4.32a.42.42,0,0,0,.42-.42v-2a.42.42,0,0,0-.42-.42H98.35v-2.25h5.2a.42.42,0,0,0,.42-.42v-2a.42.42,0,0,0-.42-.42Zm13.72,0a.52.52,0,0,0-.52.52V237a.52.52,0,0,0,.52.52h4.82l.16,0a6.68,6.68,0,0,0,0-13.31l-.16,0H109.5Zm14.13,0c-.34,0-.46.23-.27.52l3.38,5.1.71,1.06.13.2v5.87a.62.62,0,0,0,.62.62h1.89a.62.62,0,0,0,.62-.62v-5.85l.15-.22.69-1,0,0,3.38-5.1c.19-.28.06-.52-.28-.52H132.5a1.28,1.28,0,0,0-1,.52l-2.39,3.6-2.39-3.6a1.29,1.29,0,0,0-1-.52h-2.17Zm-59.07,2.87a3.81,3.81,0,1,1-3.81,3.81A3.81,3.81,0,0,1,64.57,227.06Zm47.4,0h1.69a3.81,3.81,0,0,1,0,7.62H112Z"/><path id="rect3041" class="cls-2" d="M200.46,224c-.35,0-.84.2-.84.46v12.47a.62.62,0,0,0,.62.62h1.89a.62.62,0,0,0,.62-.62v-6.54l7.38,7.24c.24.24,1.12,0,1.12-.37V224.8a.62.62,0,0,0-.62-.62h-1.89a.62.62,0,0,0-.62.62v6.78l-7.38-7.48a.41.41,0,0,0-.28-.09Zm33.67.05a6.72,6.72,0,0,0-4.69,1.87.23.23,0,0,0,0,.37l1.75,1.75a.24.24,0,0,0,.36,0,4.2,4.2,0,0,1,2.57-1,3.77,3.77,0,0,1,3.81,3.74s0,.1,0,.15a3.77,3.77,0,0,1-3.81,3.74,4.2,4.2,0,0,1-2.57-1,.24.24,0,0,0-.36,0l-1.75,1.75a.23.23,0,0,0,0,.37,6.81,6.81,0,0,0,11.5-4.86v-.15A6.8,6.8,0,0,0,234.14,224.06Zm-90.19.12a.41.41,0,0,0-.41.41v2.05a.41.41,0,0,0,.41.41h4.46v10.08a.41.41,0,0,0,.41.41h2.3a.41.41,0,0,0,.41-.41c0-3,0-8.49,0-12.55a.4.4,0,0,0-.41-.41H144Zm11.76,0a.27.27,0,0,0-.26.41l6,13a.48.48,0,0,0,.82,0l6-13a.27.27,0,0,0-.26-.41h-2.14a.77.77,0,0,0-.64.41l-.74,1.59h-5.28l-.74-1.59a.77.77,0,0,0-.64-.41Zm16.22,0c-.28,0-.4.2-.27.45l2.69,5a4.06,4.06,0,0,0,1.24,7.93h5.67a.52.52,0,0,0,.52-.52V224.7a.52.52,0,0,0-.52-.52h-2a.52.52,0,0,0-.52.52v4.73H177.6L175,224.64a.94.94,0,0,0-.76-.45h-2.33Zm17.74,0a.41.41,0,0,0-.41.41v10.08h-2.71a.41.41,0,0,0-.41.41v2.05a.41.41,0,0,0,.41.41H195a.41.41,0,0,0,.41-.41v-2.05a.41.41,0,0,0-.41-.41h-2.71V224.59a.41.41,0,0,0-.41-.41h-2.18Zm27,0a.42.42,0,0,0-.42.42v2a.42.42,0,0,0,.42.42h5.2v2.5h-4.32a.42.42,0,0,0-.42.42v2a.42.42,0,0,0,.42.42h4.32v2.25h-5.2a.42.42,0,0,0-.42.42v2a.42.42,0,0,0,.42.42h7.78a.42.42,0,0,0,.42-.42V224.61a.42.42,0,0,0-.42-.42h-7.78Zm-56.19,4.62h2.83l-1.42,3Zm15.55,3h2.75v3H176a1.5,1.5,0,1,1,0-3Z"/></g></g></g></g></svg>