<svg xmlns="http://www.w3.org/2000/svg" viewBox="0 0 283.46 283.46"><defs><style>.cls-1{fill:#f8ba0f;}</style></defs><g id="Layer_2" data-name="Layer 2"><g id="Viacom"><g id="comedycentralextra"><rect width="283.46" height="283.46"/><g id="logo"><path class="cls-1" d="M137.22,42.52A75,75,0,0,0,71.45,81.43l14.27,7.65a58.76,58.76,0,1,1-.38,56.57l-14.11,7.57a75,75,0,1,0,66-110.7ZM137,81.46a36.26,36.26,0,1,0,32,53.33l-14.77-7.91a19.83,19.83,0,1,1-.38-19l14.77-7.93A36.26,36.26,0,0,0,137,81.46Z"/><path class="cls-1" d="M82.07,240.94V215.18h19.1v4.36H87.27v5.71H100.2v4.34H87.27v7h14.39v4.34Z"/><path class="cls-1" d="M103.49,240.94l8.81-13.44-8-12.32h6.08l5.16,8.28,5.07-8.28h6l-8,12.51,8.8,13.25h-6.27l-5.71-8.9-5.73,8.9Z"/><path class="cls-1" d="M136,240.94v-21.4h-7.64v-4.36h20.47v4.36h-7.63v21.4Z"/><path class="cls-1" d="M152.17,240.94V215.18h11a18.86,18.86,0,0,1,6,.69,6,6,0,0,1,3,2.47,7.44,7.44,0,0,1,1.12,4.06,6.9,6.9,0,0,1-1.7,4.79,8.16,8.16,0,0,1-5.1,2.38,12.43,12.43,0,0,1,2.79,2.17,29.47,29.47,0,0,1,3,4.18l3.14,5h-6.22l-3.76-5.6a36.67,36.67,0,0,0-2.74-3.79,3.9,3.9,0,0,0-1.57-1.07,8.64,8.64,0,0,0-2.61-.29h-1.06v10.75Zm5.2-14.86h3.85a19.93,19.93,0,0,0,4.68-.32,2.75,2.75,0,0,0,1.45-1.09,3.28,3.28,0,0,0,.53-1.93,3.09,3.09,0,0,0-.69-2.1,3.18,3.18,0,0,0-2-1c-.42-.06-1.69-.09-3.8-.09h-4.06Z"/><path class="cls-1" d="M201.4,240.94h-5.66l-2.25-5.85h-10.3l-2.13,5.85h-5.51l10-25.76h5.5Zm-9.58-10.19-3.55-9.56-3.48,9.56Z"/></g></g></g></g></svg>