<svg xmlns="http://www.w3.org/2000/svg" viewBox="0 0 283.46 283.46"><defs><style>.cls-1{fill:#dee327;}</style></defs><title>comedycentralextra</title><g id="Layer_2" data-name="Layer 2"><g id="Viacom"><g id="comedycentralextra"><rect width="283.46" height="283.46"/><g id="logo"><path id="path3120" class="cls-1" d="M136.92,42.52A80.06,80.06,0,0,0,66.69,84.07l15.23,8.17a62.74,62.74,0,1,1-.41,60.4l-15.06,8.09A80.11,80.11,0,1,0,136.92,42.52Zm-.19,41.58a38.71,38.71,0,1,0,34.16,57l-15.77-8.45a21.19,21.19,0,1,1-.41-20.3l15.77-8.47A38.7,38.7,0,0,0,136.73,84.1Z"/><g id="text2996"><path id="path3001" class="cls-1" d="M78,240.94v-27.5h20.4v4.65H83.58v6.1H97.39v4.63H83.58v7.49H99v4.63Z"/><path id="path3003" class="cls-1" d="M100.9,240.94l9.4-14.35-8.52-13.15h6.49l5.52,8.83,5.41-8.83h6.43l-8.56,13.36,9.41,14.14h-6.7l-6.1-9.51-6.12,9.51Z"/><path id="path3005" class="cls-1" d="M135.56,240.94V218.09H127.4v-4.65h21.86v4.65h-8.15v22.85Z"/><path id="path3007" class="cls-1" d="M152.88,240.94v-27.5h11.69a19.85,19.85,0,0,1,6.41.74,6.31,6.31,0,0,1,3.2,2.63,8,8,0,0,1,1.2,4.34,7.35,7.35,0,0,1-1.82,5.11,8.73,8.73,0,0,1-5.44,2.54,12.85,12.85,0,0,1,3,2.31,31.19,31.19,0,0,1,3.16,4.47l3.36,5.36H171l-4-6a39.72,39.72,0,0,0-2.92-4.05,4.46,4.46,0,0,0-1.67-1.14,9.06,9.06,0,0,0-2.8-.31h-1.13v11.48Zm5.55-15.87h4.11a20.83,20.83,0,0,0,5-.34,2.92,2.92,0,0,0,1.56-1.16,3.55,3.55,0,0,0,.56-2.07,3.27,3.27,0,0,0-.74-2.24,3.38,3.38,0,0,0-2.09-1.08q-.67-.09-4-.09h-4.34Z"/><path id="path3009" class="cls-1" d="M205.44,240.94h-6L197,234.7H186l-2.27,6.24h-5.89l10.71-27.5h5.88Zm-10.23-10.88-3.79-10.21-3.71,10.21Z"/></g></g></g></g></g></svg>