<svg xmlns="http://www.w3.org/2000/svg" viewBox="0 0 283.46 283.46"><defs><style>.cls-1{fill:#fff;}.cls-1,.cls-2{fill-rule:evenodd;}.cls-2{fill:#f8ba0f;fill-opacity:0.94;}</style></defs><g id="Layer_2" data-name="Layer 2"><g id="Viacom"><g id="comedycentral"><rect width="283.46" height="283.46"/><g id="logo"><path class="cls-1" d="M214.15,144.56l-7.61,26.35H212l.79-3.36h7.08l.7,3.36h5.57l-7.69-26.35Zm2.21,7.16a8.38,8.38,0,0,0,.22,1.6c.15.7.28,1.35.4,1.94l1.77,7.69h-4.87l1.86-7.69c.12-.59.25-1.24.4-1.94a8.38,8.38,0,0,0,.22-1.6Z"/><path class="cls-1" d="M188.77,144.47v26.44h5.31v-8.4h2.3l3.54,8.4h5.21l-3.71-9.46a8.67,8.67,0,0,0,2.74-3.14,9.49,9.49,0,0,0,1.06-4.55v-.62A8.85,8.85,0,0,0,203,147a7.5,7.5,0,0,0-5.79-2.48Zm5.31,5h2.57a3.31,3.31,0,0,1,2.38.92,3.81,3.81,0,0,1,1,2.88v.17a4.38,4.38,0,0,1-1,3.19,3.27,3.27,0,0,1-2.38,1h-2.57Z"/><path class="cls-1" d="M202.92,112.64v26.44h8.49a8.87,8.87,0,0,0,3.76-.8,7.89,7.89,0,0,0,2.88-2.21,10.46,10.46,0,0,0,1.81-3.58,15.82,15.82,0,0,0,.66-4.64v-4.78a12.84,12.84,0,0,0-.66-4.15,10.8,10.8,0,0,0-1.81-3.36,7.48,7.48,0,0,0-2.88-2.17,9.32,9.32,0,0,0-3.76-.75Zm5.31,5h2.56a4.72,4.72,0,0,1,2,.36,3.34,3.34,0,0,1,1.33,1.06,5,5,0,0,1,.88,1.85,9.76,9.76,0,0,1,.27,2.39v4.24a14.53,14.53,0,0,1-.27,3,5.87,5.87,0,0,1-.88,2.16,4.09,4.09,0,0,1-1.33,1.15,3.91,3.91,0,0,1-2,.44h-2.56Z"/><path class="cls-1" d="M143.06,112.29a9.77,9.77,0,0,0-3.23.48,11.09,11.09,0,0,0-2.52,1.29,10.22,10.22,0,0,0-2.65,4,17.06,17.06,0,0,0-1,6.19v3.19a18,18,0,0,0,1,6.36,8.75,8.75,0,0,0,2.65,3.89,9.37,9.37,0,0,0,2.52,1.38,9.77,9.77,0,0,0,3.23.48,9.21,9.21,0,0,0,3.05-.48,9.37,9.37,0,0,0,2.52-1.38,7.89,7.89,0,0,0,2.65-3.89,19.34,19.34,0,0,0,.88-6.27v-3.28a18.66,18.66,0,0,0-.88-6.19,9.07,9.07,0,0,0-2.65-4,11.09,11.09,0,0,0-2.52-1.29A9.21,9.21,0,0,0,143.06,112.29Zm0,4.95a3.65,3.65,0,0,1,1.41.26,2.79,2.79,0,0,1,1.06.8,5,5,0,0,1,1,2.17,17.71,17.71,0,0,1,.35,3.93v3a17.13,17.13,0,0,1-.35,3.89,5,5,0,0,1-1,2.12,2.82,2.82,0,0,1-1.1.93,3.15,3.15,0,0,1-1.37.31,3.86,3.86,0,0,1-1.59-.31,2.7,2.7,0,0,1-1.15-.93,5,5,0,0,1-1-2.12,17.13,17.13,0,0,1-.35-3.89v-3a17.71,17.71,0,0,1,.35-3.93,5,5,0,0,1,1-2.17,2.68,2.68,0,0,1,1.15-.8,4.65,4.65,0,0,1,1.59-.26Z"/><path class="cls-1" d="M228,144.47v26.44h13v-4.86h-7.69V144.47Z"/><path class="cls-1" d="M175.78,149.43v21.48H181V149.43h5v-5H170.82v5Z"/><path class="cls-1" d="M151.55,144.47v26.44h4.77v-15.3l7.16,15.3h4.69V144.47h-4.86V160l-7.17-15.48Z"/><path class="cls-1" d="M134.21,144.47v26.44h13.45v-4.86h-8.14V160h6.9v-5h-6.9v-5.56h8.14v-5Z"/><path class="cls-1" d="M120.42,150.22a2.2,2.2,0,0,1,1.1-.84,4.57,4.57,0,0,1,3.54.31,3.76,3.76,0,0,1,1.63,2.12l4.69-1.94a8.58,8.58,0,0,0-3.4-4.42,9.53,9.53,0,0,0-8.14-.89,8.56,8.56,0,0,0-2.52,1.42,9.15,9.15,0,0,0-2.61,3.89,17.74,17.74,0,0,0-.93,6.19v3.27a18.09,18.09,0,0,0,.93,6.28,9.21,9.21,0,0,0,2.61,3.89,7.05,7.05,0,0,0,2.52,1.32,10.64,10.64,0,0,0,3.14.45,9.36,9.36,0,0,0,5.09-1.37,8.66,8.66,0,0,0,3.31-4.12l-4.69-2.12a3.85,3.85,0,0,1-1.59,2.12,4.28,4.28,0,0,1-2.12.53,4.52,4.52,0,0,1-1.46-.22,2.09,2.09,0,0,1-1.1-.84,4.33,4.33,0,0,1-1-2.08,17.71,17.71,0,0,1-.35-3.93v-2.92a18.24,18.24,0,0,1,.35-4.07,4.32,4.32,0,0,1,1-2Z"/><path class="cls-2" d="M80.37,146.33a8.74,8.74,0,0,1-3.32,3.4A9.06,9.06,0,0,1,72.32,151a9.22,9.22,0,0,1-9.2-9.2,9,9,0,0,1,2.7-6.54,8.79,8.79,0,0,1,6.5-2.74,8.61,8.61,0,0,1,4.73,1.37,9.63,9.63,0,0,1,3.32,3.4l7.16-4.07a17.4,17.4,0,0,0-15.21-8.84,16.86,16.86,0,0,0-6.72,1.37A17.23,17.23,0,0,0,56.36,135a17.61,17.61,0,0,0,0,13.62,17.23,17.23,0,0,0,9.24,9.24,17.17,17.17,0,0,0,15.61-1.11,17.5,17.5,0,0,0,6.32-6.36Z"/><path class="cls-1" d="M165.52,139.08h4.33l3.89-14.41,1.68,14.41h4.87l-3-26.44h-4.95l-4.6,16.62-4.6-16.62h-5L155,139.08H160l1.59-14.41Z"/><path class="cls-1" d="M184.44,112.64v26.44h14v-4.87h-8.75v-6.1h7.69v-5h-7.69v-5.48h8.75v-5Z"/><path class="cls-1" d="M228,126.35v12.73h5.3V126.35l7.43-13.71h-5.75L230.51,121l-4.24-8.31h-5.75Z"/><path class="cls-1" d="M120.42,118.3a2.77,2.77,0,0,1,1.1-.8,4,4,0,0,1,1.46-.26,4.21,4.21,0,0,1,2.08.57,4.08,4.08,0,0,1,1.63,2.26l4.69-2.12a8.17,8.17,0,0,0-3.4-4.34,9.73,9.73,0,0,0-5-1.32,10,10,0,0,0-3.14.48,9,9,0,0,0-2.52,1.28,10,10,0,0,0-2.61,4,17.82,17.82,0,0,0-.93,6.19v3.19a18.82,18.82,0,0,0,.93,6.36,8.46,8.46,0,0,0,2.61,3.89,7.86,7.86,0,0,0,2.52,1.38,10,10,0,0,0,3.14.48,9.36,9.36,0,0,0,5.09-1.37,8.55,8.55,0,0,0,3.31-4.2l-4.69-2A4.35,4.35,0,0,1,125.1,134a3.89,3.89,0,0,1-2.12.62,3.35,3.35,0,0,1-1.46-.31,2.82,2.82,0,0,1-1.1-.93,5,5,0,0,1-1-2.12,17.19,17.19,0,0,1-.35-3.89v-3a17.71,17.71,0,0,1,.35-3.93,5,5,0,0,1,1-2.17Z"/><path class="cls-2" d="M106.54,141.64a33.48,33.48,0,0,1-2.7,13.36,35.18,35.18,0,0,1-7.29,10.92,34.17,34.17,0,0,1-10.88,7.34A33.59,33.59,0,0,1,72.32,176a32.75,32.75,0,0,1-17.47-4.86,34.81,34.81,0,0,1-12.33-12.73l7.16-3.9a25.32,25.32,0,0,0,9.37,9.47,26.09,26.09,0,0,0,23.35,1.59A26,26,0,0,0,90.67,160a26.77,26.77,0,0,0,5.57-8.22,25,25,0,0,0,2.08-10.13v.18a24.94,24.94,0,0,0-2.08-10.12,26.7,26.7,0,0,0-5.57-8.23A25.84,25.84,0,0,0,82.4,118a26.12,26.12,0,0,0-32.72,11l-7.16-3.89a34.73,34.73,0,0,1,12.33-12.73,32.67,32.67,0,0,1,17.47-4.87,33.43,33.43,0,0,1,13.35,2.7,34,34,0,0,1,10.88,7.34,35,35,0,0,1,7.29,10.92,33.39,33.39,0,0,1,2.7,13.35Z"/></g></g></g></g></svg>