<svg xmlns="http://www.w3.org/2000/svg" viewBox="0 0 283.46 283.46"><defs><style>.cls-1{fill:#333;}.cls-2{fill:#fff;}.cls-3{fill:#ed1d3a;}</style></defs><g id="Layer_2" data-name="Layer 2"><g id="History"><g id="crimeandinvestigation"><rect class="cls-1" width="283.46" height="283.46"/><g id="logo"><path class="cls-2" d="M133.66,117.06h9.46V90.74h.11l7.86,20.75h7l7.8-20.8h.12v26.37h9.46V75.64H163L154.82,97h-.11l-8.32-21.38H133.66Zm-15.44,0h10.25V75.64H118.22Zm-37.67,0H90.81V102.42h4.65l8.08,14.64h11.18l-9.35-16.15c5.28-2.21,7.69-7.14,7.69-12.19,0-7.67-5.34-13.08-14.62-13.08H80.55ZM90.81,94.75v-11h6.31c3.67,0,6,1.92,6,5.45,0,3.38-2.23,5.52-6,5.52Zm-48.29,8.08c0,10.34,8.43,14.92,17.43,14.92,7.91,0,16.34-4.07,16.34-13.59v-2H66.65v1c0,4.29-3.49,6.16-6.64,6.16-4.19,0-7.23-2.44-7.23-6.69V90.05c0-4.7,3.49-6.62,7.11-6.62,3.16,0,6.76,1.8,6.76,6.16v.92h9.64V88.6C76.29,79,67.63,75,59.72,75c-9.06,0-17.2,5-17.2,15.22v12.66m33.61,105h9.7l2.52-7.73H103l2.47,7.73h10.5l-14.34-41.47h-11ZM90.81,192l4.76-15h.17l4.7,15Zm139.88-25.56v22.4l-15.51-22.38h-9.92v41.41h10.26V184.54l15.91,23.28h9.51V166.39Zm-65,27c0,10.68,8.31,15.16,17.49,15.16,8.53,0,17.31-4.88,17.31-15.69V181.33c0-10.69-8.43-15.63-17.55-15.63-8.77,0-17.25,5.18-17.25,15.69v12m24.53-.17c0,4.7-3.43,6.79-7,6.79-4.19,0-7.23-2.44-7.23-6.85V181c0-4.82,3.39-6.79,7.05-6.79,3.84,0,7.22,2.38,7.22,6.73v12.26m-39.54,14.63H161V166.4H150.71ZM42.52,193.58c0,10.34,8.38,14.93,17.43,14.93,7.91,0,16.51-4.07,16.51-13.59v-9.53H58.4v7.67h8.25v1.05c0,4.35-2.86,6.1-6.64,6.1-4.19,0-7.23-2.62-7.23-6.86V180.57c0-4.7,3.68-6.62,7.23-6.62,3.15,0,6.82,1.57,6.82,5.87v.81h9.63v-1.51c0-9.64-8.83-13.42-16.74-13.42-9.06,0-17.2,5.05-17.2,15.22v12.66m80.34,14.2h10.27V174.67h12.44v-8.3H110.42v8.3h12.44ZM80.55,121v22.4L66,121.07H56v41.4H66.31V139.19l15,23.28h9.52V121Zm150.14,41.41h10.25V121H230.69Zm-25.43,0h10.26V129.34H228V121H192.82v8.3h12.44Zm-45.8-6.8c3.9,5.52,10.14,7.5,17.31,7.5,8.43,0,16.46-4.54,16.46-13.53,0-6.45-4-10-9.8-11.51L177,136.37c-3.1-.81-5.56-1.62-5.56-4,0-2.85,2.57-3.89,5.56-3.89a11,11,0,0,1,8.66,3.84l6.47-5.69c-3.61-4.48-7.91-6.28-15.13-6.28-9.07,0-15.6,5.58-15.6,13.31,0,6.67,4.12,9.92,9.69,11.43l7.05,1.86c2.52.7,4.59,1.62,4.59,4.19,0,2.89-3.33,3.88-6.42,3.88a12.88,12.88,0,0,1-10.38-5.22l-6.48,5.86m21.23-38.59h28.64v-8.48H191v-8.25h16.48V92H191v-7.9h18.25V75.64H180.69ZM130,162.45h28.64V154H140.24v-8.25h16.48v-8.36H140.24v-7.9h18.25V121H130Zm-25,0h10.49l13-41.42H118.7l-7.94,29.21h-.16L102.89,121H92.34ZM42.52,121H52.78v41.41H42.52Z"/><path class="cls-3" d="M240.91,95.08H225.45V79.61h-2.56V95.08H207.41v2.56h15.47v15.48h2.57V97.64h15.46Z"/></g></g></g></g></svg>