<svg xmlns="http://www.w3.org/2000/svg" xmlns:xlink="http://www.w3.org/1999/xlink" viewBox="0 0 283.46 283.46"><defs><style>.cls-1,.cls-29,.cls-48{fill:none;}.cls-2{fill:#1e1347;}.cls-3{fill:#17142b;}.cls-4{fill:#7fcce6;}.cls-5{fill:#4f5163;}.cls-6{fill:#283f5c;}.cls-7{fill:#477db3;}.cls-8{fill:#3da1dc;}.cls-9{fill:#e3338a;}.cls-10{fill:#3d235c;}.cls-11{fill:#a82e73;}.cls-12{fill:#283d66;}.cls-13{fill:#264566;}.cls-14{fill:#4a78ae;}.cls-15{fill:#c72e7f;}.cls-16{fill:#b8dee8;}.cls-17{fill:#4c879c;}.cls-18{fill:#73c7d9;}.cls-19{fill:#1e3f57;}.cls-20{fill:#1e2147;}.cls-21{fill:#4c87c7;}.cls-22{fill:#3f85c5;}.cls-23{fill:#3061ab;}.cls-24{fill:#87b8e3;}.cls-25{fill:#fff;}.cls-26{fill:#213a82;}.cls-27{fill:#3d63ab;}.cls-28{fill:#7094cf;}.cls-29,.cls-48{stroke:#999;stroke-miterlimit:10;}.cls-29{stroke-width:0.26px;}.cls-30{clip-path:url(#clip-path);}.cls-31{clip-path:url(#clip-path-2);}.cls-32{clip-path:url(#clip-path-4);}.cls-33{clip-path:url(#clip-path-6);}.cls-34{fill:url(#linear-gradient);}.cls-35{clip-path:url(#clip-path-7);}.cls-36{clip-path:url(#clip-path-8);}.cls-37{clip-path:url(#clip-path-10);}.cls-38{clip-path:url(#clip-path-12);}.cls-39{fill:url(#linear-gradient-2);}.cls-40{clip-path:url(#clip-path-13);}.cls-41{clip-path:url(#clip-path-14);}.cls-42{clip-path:url(#clip-path-16);}.cls-43{clip-path:url(#clip-path-17);}.cls-44{clip-path:url(#clip-path-18);}.cls-45{fill:url(#linear-gradient-3);}.cls-46{clip-path:url(#clip-path-19);}.cls-47{clip-path:url(#clip-path-20);}.cls-48{stroke-width:0.26px;}.cls-49{clip-path:url(#clip-path-21);}.cls-50{clip-path:url(#clip-path-22);}.cls-51{clip-path:url(#clip-path-24);}.cls-52{clip-path:url(#clip-path-26);}.cls-53{fill:url(#linear-gradient-4);}</style><clipPath id="clip-path"><rect class="cls-1" x="104.85" y="136.9" width="7.18" height="11.12"/></clipPath><clipPath id="clip-path-2"><rect class="cls-1" x="105.17" y="137.41" width="6.65" height="10.5"/></clipPath><clipPath id="clip-path-4"><path class="cls-1" d="M105.5,138.4l-.18,9a.42.42,0,0,0,.44.43h5.55a.41.41,0,0,0,.44-.43l-.25-9.71Z"/></clipPath><clipPath id="clip-path-6"><rect class="cls-1" x="105.32" y="137.7" width="6.43" height="10.14"/></clipPath><linearGradient id="linear-gradient" x1="481.17" y1="-106.95" x2="481.2" y2="-106.95" gradientTransform="matrix(207.81, 0, 0, -204.71, -99884.55, -21750.8)" gradientUnits="userSpaceOnUse"><stop offset="0" stop-color="#cfcfcf"/><stop offset="0.5" stop-color="#cfcfcf"/><stop offset="1" stop-color="#d0d0d0"/></linearGradient><clipPath id="clip-path-7"><rect class="cls-1" x="77.14" y="139.94" width="26.68" height="8.09"/></clipPath><clipPath id="clip-path-8"><rect class="cls-1" x="77.87" y="140.56" width="25.9" height="7.35"/></clipPath><clipPath id="clip-path-10"><path class="cls-1" d="M97.63,140.74a.41.41,0,0,0-.44.43l-.11,5.21H89.35c-1.9,0-5.1-1.57-5.1-5,0-.2,0-.39,0-.57l-6.31.77a6.39,6.39,0,0,0,6.48,6.21h18.61a.41.41,0,0,0,.44-.44l-.12-6.22a.42.42,0,0,0-.44-.44Z"/></clipPath><clipPath id="clip-path-12"><rect class="cls-1" x="77.97" y="140.74" width="25.54" height="7.1"/></clipPath><linearGradient id="linear-gradient-2" x1="481.08" y1="-106.92" x2="481.2" y2="-106.92" gradientTransform="matrix(210.06, 0, 0, -206.93, -100976.43, -21980.4)" gradientUnits="userSpaceOnUse"><stop offset="0" stop-color="#c8c8c8"/><stop offset="0.13" stop-color="#c8c8c8"/><stop offset="0.25" stop-color="#c9c9c9"/><stop offset="0.38" stop-color="#cacaca"/><stop offset="0.5" stop-color="#cbcbcb"/><stop offset="0.63" stop-color="#ccc"/><stop offset="0.75" stop-color="#cdcdcd"/><stop offset="0.88" stop-color="#cdcdcd"/><stop offset="1" stop-color="#cecece"/></linearGradient><clipPath id="clip-path-13"><rect class="cls-1" x="68.93" y="140.95" width="8.21" height="7.08"/></clipPath><clipPath id="clip-path-14"><rect class="cls-1" x="69.47" y="141.61" width="6.65" height="6.3"/></clipPath><clipPath id="clip-path-16"><path class="cls-1" d="M69.83,142.57l-.14,4.83a.41.41,0,0,0,.44.44h5.55a.41.41,0,0,0,.44-.44L76,141.84Z"/></clipPath><clipPath id="clip-path-17"><rect class="cls-1" x="69.47" y="141.61" width="7" height="6.3"/></clipPath><clipPath id="clip-path-18"><rect class="cls-1" x="69.7" y="141.84" width="6.43" height="6"/></clipPath><linearGradient id="linear-gradient-3" x1="480.9" y1="-107.01" x2="480.93" y2="-107.01" gradientTransform="matrix(198.01, 0, 0, -195.06, -95152.17, -20727.45)" gradientUnits="userSpaceOnUse"><stop offset="0" stop-color="#c5c5c5"/><stop offset="0.5" stop-color="#c6c6c6"/><stop offset="1" stop-color="#c7c7c7"/></linearGradient><clipPath id="clip-path-19"><rect class="cls-1" x="42.52" y="132.86" width="27.44" height="17.19"/></clipPath><clipPath id="clip-path-20"><rect class="cls-1" x="42.52" y="134.6" width="25.9" height="13.65"/></clipPath><clipPath id="clip-path-21"><rect class="cls-1" x="42.52" y="141.96" width="25.38" height="6.07"/></clipPath><clipPath id="clip-path-22"><rect class="cls-1" x="42.52" y="142.66" width="25.2" height="5.25"/></clipPath><clipPath id="clip-path-24"><path class="cls-1" d="M61.15,143.51a5.12,5.12,0,0,1-4.43,2.9H49.1L49.05,145l-6.34.76,0,1.68a.42.42,0,0,0,.45.43H61.5a6.24,6.24,0,0,0,6.22-5.06Z"/></clipPath><clipPath id="clip-path-26"><rect class="cls-1" x="42.67" y="142.79" width="25.05" height="5.06"/></clipPath><linearGradient id="linear-gradient-4" x1="480.93" y1="-106.92" x2="481.05" y2="-106.92" gradientTransform="matrix(208.55, 0, 0, -205.44, -100253.7, -21820.59)" gradientUnits="userSpaceOnUse"><stop offset="0" stop-color="silver"/><stop offset="0.03" stop-color="silver"/><stop offset="0.06" stop-color="#c1c1c1"/><stop offset="0.09" stop-color="#c1c1c1"/><stop offset="0.13" stop-color="#c2c2c2"/><stop offset="0.16" stop-color="#c2c2c2"/><stop offset="0.19" stop-color="#c3c3c3"/><stop offset="0.22" stop-color="#c4c4c4"/><stop offset="0.25" stop-color="#c4c4c4"/><stop offset="0.28" stop-color="#c5c5c5"/><stop offset="0.31" stop-color="#c5c5c5"/><stop offset="0.34" stop-color="#c6c6c6"/><stop offset="0.38" stop-color="#c6c6c6"/><stop offset="0.41" stop-color="#c7c7c7"/><stop offset="0.44" stop-color="#c7c7c7"/><stop offset="0.47" stop-color="#c8c8c8"/><stop offset="0.5" stop-color="#c8c8c8"/><stop offset="0.53" stop-color="#c9c9c9"/><stop offset="0.56" stop-color="#c9c9c9"/><stop offset="0.59" stop-color="#cacaca"/><stop offset="0.63" stop-color="#cacaca"/><stop offset="0.66" stop-color="#cbcbcb"/><stop offset="0.69" stop-color="#ccc"/><stop offset="0.72" stop-color="#ccc"/><stop offset="0.75" stop-color="#cdcdcd"/><stop offset="0.78" stop-color="#cdcdcd"/><stop offset="0.81" stop-color="#cecece"/><stop offset="0.84" stop-color="#cecece"/><stop offset="0.88" stop-color="#cfcfcf"/><stop offset="0.91" stop-color="#cfcfcf"/><stop offset="0.94" stop-color="#d0d0d0"/><stop offset="0.97" stop-color="#d0d0d0"/><stop offset="1" stop-color="#d1d1d1"/></linearGradient></defs><g id="Layer_2" data-name="Layer 2"><g id="Sport"><g id="digisport1"><rect class="cls-2" width="283.46" height="283.46"/><g id="logo"><path class="cls-3" d="M240.94,141.54A21.93,21.93,0,1,1,219,119.61a21.92,21.92,0,0,1,21.92,21.93"/><path class="cls-4" d="M227.12,155.36c-2.63,3.57-1.69,5.89,1.78,4.8a14,14,0,0,0,7.15-6.11c1.1-2.11.65-3.68-1.13-3.7-2.08,0-5.58,2-7.8,5"/><path class="cls-5" d="M219,119.57a21.85,21.85,0,0,0-15.74,6.63c-2.71,3.21-3.44,4.93-4,6.65-.58,1.91-.37,3.55,1.67,3.21s4-2.84,6.7-6.05a21.42,21.42,0,0,1,11.07-6.68c4.36-1.07,6.78-.58,12.32,1v-1.15a22,22,0,0,0-12.06-3.6"/><path class="cls-6" d="M238.3,135.47c.8.45,1.35.06,1.2-.94a17.45,17.45,0,0,0-1.2-3.08,25.07,25.07,0,0,0-7-8,26.73,26.73,0,0,0-6.76-3.18,21.61,21.61,0,0,0-5.53-.71h-.74a13.84,13.84,0,0,1,3,.52,12.55,12.55,0,0,1,4.57,2.59,20.38,20.38,0,0,1,2,2c1.12,1.28,2,2.35,3.16,3.83a46.19,46.19,0,0,0,3.78,4.52c1.46,1.46,2.58,2.32,3.45,2.45"/><path class="cls-7" d="M239.44,134.72l-.34.7c-.32.21-.84,0-1.62-.54a19.06,19.06,0,0,1-2.9-2.51c-1.12-1.15-2.66-3-3.78-4.33l-.55-.68,0,0a39,39,0,0,0-4.62-4.9,12.49,12.49,0,0,0-3.83-2.25,13.54,13.54,0,0,0-3-.6h-.57a13.94,13.94,0,0,1,3,.52,12.53,12.53,0,0,1,4.56,2.59,20.38,20.38,0,0,1,2,2l1.41,1.64.91,1.1,0,0,.55.68c1.12,1.33,2.66,3.18,3.79,4.33a20.18,20.18,0,0,0,2.92,2.53,2.94,2.94,0,0,0,1.38.65l.34-.11.23-.31.06-.5"/><path class="cls-8" d="M213.68,163.12a1.62,1.62,0,0,0,1.36,1.15c.67,0,1.3-.42,2.14-1.2a30.79,30.79,0,0,0,3.23-4.38c.55-.81,2.3-3.29,2.85-3.94a33.54,33.54,0,0,1,3.91-3.92,12.15,12.15,0,0,1,6.06-2.56c2.21-.15,3.6.58,4.38,2.2s.29,4.33-.94,6.05a18.6,18.6,0,0,1-7.18,5.48,25.48,25.48,0,0,1-8.35,2.43,25.82,25.82,0,0,1-4.69.13,6.43,6.43,0,0,1-1.67-.21l-.94-.75-.24-.47Z"/><path class="cls-9" d="M217.09,162.94l.53-.55a18.77,18.77,0,0,1-3-.55,23,23,0,0,1-7.07-3.34A23.85,23.85,0,0,1,202,153a29.49,29.49,0,0,1-3.06-5.54c-.62-1.48-.78-2-.81-1.77a16.08,16.08,0,0,0,1.05,3.94c-.73-1.57-1.1-2.48-1.33-3.11s-.42-1.07-.4-.57a19.92,19.92,0,0,0,1.8,5.48,22.41,22.41,0,0,0,10.52,10.26,23.89,23.89,0,0,0,6.6,1.85l.68-.6"/><path class="cls-10" d="M207.62,158.58a23.94,23.94,0,0,1-5.54-5.51,28.69,28.69,0,0,1-3.05-5.53c-.63-1.49-.78-2-.81-1.77a16.07,16.07,0,0,0,1,3.73l.34.73a25.78,25.78,0,0,0,2.14,3.39,24.17,24.17,0,0,0,3.23,3.55,21,21,0,0,0,5.25,3.63,23.65,23.65,0,0,0,6.76,2.22l.21,0,0,0,.52-.55a19.4,19.4,0,0,1-3-.55,23.08,23.08,0,0,1-7.07-3.34"/><path class="cls-11" d="M216.89,163.31c-.41-.05-.94-.15-1.72-.31a21.6,21.6,0,0,1-7.57-3.08,18.16,18.16,0,0,1-5.37-4.91,18.9,18.9,0,0,1-2.82-5.09l-.29-.7.19.5c-.73-1.57-1.1-2.48-1.33-3.11s-.42-1.07-.39-.57a19.65,19.65,0,0,0,1.8,5.48,22.46,22.46,0,0,0,4.67,6.29,22.07,22.07,0,0,0,5.84,4,23.87,23.87,0,0,0,6.61,1.86l.39-.32"/><path class="cls-12" d="M231.48,147.6c-3,.39-6.08,3-7.6,4.59a59.93,59.93,0,0,0-4.51,5.9,29.43,29.43,0,0,1-2.35,3l-1,1a15.09,15.09,0,0,0,1.75.29l.91-1.2.13-.19,0,0c.68-1,1.36-2,1.64-2.43.55-.81,2.3-3.29,2.85-3.94a34.34,34.34,0,0,1,3.91-3.92,12,12,0,0,1,6.08-2.55,5.92,5.92,0,0,1,1.65.07c-.37-.34-1.31-.88-3.45-.62"/><path class="cls-12" d="M217.66,162.37l-.13.15Z"/><path class="cls-12" d="M217.09,163.12l.1-.09Z"/><path class="cls-13" d="M213.68,163.12a1.62,1.62,0,0,0,1.36,1.15l1.46-.6a27.87,27.87,0,0,1-2.82-.55"/><path class="cls-14" d="M234.32,148a5.53,5.53,0,0,0-1.6-.34,10.52,10.52,0,0,0-6.08,2.15l-1,.78-.21.19L224,152.1l-.19.19a60,60,0,0,0-4.52,5.9,22.53,22.53,0,0,1-1.54,2.06l-.54.66-.27.31-1,1,.08,0a7.87,7.87,0,0,0,1.09-1l.14-.13a22.52,22.52,0,0,0,1.8-2.33l1.56-2.21a28.58,28.58,0,0,1,5-5.72c2.35-2,5-3.16,7.23-3a4.18,4.18,0,0,1,1.93.52l.15,0-.49-.34"/><path class="cls-15" d="M216.52,163.69l.28-.23-1.51-.27a22.11,22.11,0,0,1-8.24-3.28,20.55,20.55,0,0,1-5.77-5.46,21.1,21.1,0,0,1-2.85-5.5,20.48,20.48,0,0,1-.8-2.93l0-.05v.13a19.65,19.65,0,0,0,1.8,5.48,22.33,22.33,0,0,0,10.51,10.26,24.12,24.12,0,0,0,6.61,1.85"/><path class="cls-16" d="M237,155.93a8.09,8.09,0,0,0,.8-2.11,4.85,4.85,0,0,0-1.09-4.52c-1.38-1.38-3.73-1.22-5.48-.6a15.33,15.33,0,0,0-6,4.26,44.29,44.29,0,0,0-3.81,4.9,45.63,45.63,0,0,1-3.58,4.93c-1.22,1.34-2,1.54-2.81,1.47l-.42-.06.19.06.62.13a3.57,3.57,0,0,0,2.51-1.54,40.32,40.32,0,0,0,3.6-4.91,41.79,41.79,0,0,1,3.78-4.9,15.48,15.48,0,0,1,6-4.23c1.69-.6,4-.78,5.35.6s1.27,2.92,1.07,4.41a7.84,7.84,0,0,1-.71,2.11"/><path class="cls-17" d="M239.44,131.69a23,23,0,0,0-2.82-4.23,23.53,23.53,0,0,0-4.15-3.91,23.1,23.1,0,0,0-5.51-3.08,26.2,26.2,0,0,0-5.48-1.49,7.4,7.4,0,0,0-4.72.79l.34,0a6.73,6.73,0,0,1,2.92-.66,8.51,8.51,0,0,1,4.31,1.28,18.79,18.79,0,0,1,5,4.49c2.14,2.51,2.64,3.34,4.54,5.72a20.77,20.77,0,0,0,4.07,4.2c1.05.81,2.33,1.23,2.25-.13a4.88,4.88,0,0,0-.78-3"/><path class="cls-18" d="M240.19,134.53a4.9,4.9,0,0,0-.78-2.95,22.46,22.46,0,0,0-2.82-4.23,24.49,24.49,0,0,0-9.66-7,26,26,0,0,0-5.48-1.49l-.26,0a9.64,9.64,0,0,1,4.1,1.57,19.26,19.26,0,0,1,3.76,3.34c.83,1,2.08,2.51,3.6,4.57a43,43,0,0,0,3.86,4.8,6.93,6.93,0,0,0,2.59,1.93.75.75,0,0,0,1.09-.52"/><path class="cls-19" d="M219.93,119a6.73,6.73,0,0,0-2.92.66h-.14c.68-.06,1.39-.08,2.09-.08a22.27,22.27,0,0,1,5.12.6,8.4,8.4,0,0,0-4.15-1.17"/><path class="cls-20" d="M214.81,126.2c.42.28.76,2.87-4,6.42s-6.52,2.87-7,2.34c-.81.12-2.4-.7-1.28-3.88s4.78-5.72,6.87-6.42a6.48,6.48,0,0,1,4.2-.37,1.82,1.82,0,0,1,1.25,1.54v.37"/><path class="cls-21" d="M129.18,138.12H118.77L128,143l.47,1.36-.91,2.53c-.39.78-1.31,1.07-2.74,1.07H114.54l.57-3.23H125.5L116,139.89c-.47-.26-.63-.62-.39-1.33l.83-2.48c.29-.68,1-1.17,2.69-1.17h10.59Zm55.4-7.05h3.16l-.7,3.84h6.34l-.52,3.13-7.55,0v.05s1.18.21,1,1.21l-1,5.53,6.31,0-.54,3.1H184.5a2.41,2.41,0,0,1-2.45-2.92l1.33-7.2ZM170.93,148l1.52-8.64c.15-1-1.1-1.22-1.1-1.22v-.06l7.62,0,.6-3.13h-6.5a3.72,3.72,0,0,0-3.49,2.92L167.78,148Zm-28.08-3.42-.36.32-7.1,0,1-5.54c.15-1-1.07-1.2-1.07-1.2v-.05h8.72ZM134.76,148h7.7a3.64,3.64,0,0,0,3.47-2.87l1.34-7.25a2.5,2.5,0,0,0-2.62-3H137a3.72,3.72,0,0,0-3.5,2.89l-2.5,14h3.08Zm26.18-3.42-.39.32-7.07,0,1-5.54c.19-1-1-1.2-1-1.2v-.05h8.69Zm1.8-9.65h-7.67a3.75,3.75,0,0,0-3.5,2.89l-1.3,7.23a2.43,2.43,0,0,0,2.45,2.95h7.83a3.67,3.67,0,0,0,3.47-2.87l1.3-7.25a2.47,2.47,0,0,0-2.58-3"/><path class="cls-22" d="M135.5,144.65l6.91,0,.21-.2,1.17-6.35h-7.85l.55,1.15Zm6.91.31-7.28,0,1-5.71c.14-.84-.89-1-.94-1l-.15,0,.06-.34h9l-1.23,6.68Zm11.17-.31,6.89,0,.23-.2,1.15-6.35H154l.55,1.15Zm6.92.31-7.29,0,1-5.71c.13-.84-.89-1-.94-1l-.13,0v-.34h9l-1.2,6.68ZM155,135.05a3.53,3.53,0,0,0-3.34,2.76L150.34,145a2.17,2.17,0,0,0,.47,1.9,2.32,2.32,0,0,0,1.83.79h7.83a3.45,3.45,0,0,0,3.31-2.72l1.34-7.17a2.39,2.39,0,0,0-.47-1.91,2.8,2.8,0,0,0-2-.83Zm5.37,12.83h-7.72a2.61,2.61,0,0,1-2.06-.83,2.47,2.47,0,0,1-.55-2.14l1.31-7.13a3.82,3.82,0,0,1,3.65-2.95h7.67a3,3,0,0,1,2.22.89,2.55,2.55,0,0,1,.52,2.14L164,145a3.73,3.73,0,0,1-3.68,2.87m24.27-16.67-1.17,6.63L182.13,145a2.22,2.22,0,0,0,.47,1.91,2.43,2.43,0,0,0,1.83.76h6.42l.49-2.74H185l1-5.72c.14-.83-.88-1-.91-1l-.13,0v-.33h7.62l.47-2.8h-6.32l.71-3.83Zm6.48,16.67h-6.68a2.65,2.65,0,0,1-2.07-.83,2.52,2.52,0,0,1-.52-2.14l1.31-7.2,1.22-6.92h3.47l-.7,4h6.34l-.63,3.34h-7l.55,1.14-1,5.35,6.31-.05Zm-76.47-.21h10.13c1.49,0,2.27-.26,2.58-.93l.92-2.51-.4-1.17-9.81-5.22H129l.52-2.79H119.08c-1.91,0-2.35.62-2.53,1.06l-.84,2.46c-.28.73,0,1,.32,1.15l10,5.19H115.16Zm10.13.45H114.28l.62-3.42h9.89L115.87,140a1.09,1.09,0,0,1-.44-1.54l.83-2.43c.34-.86,1.23-1.23,2.82-1.23h10.78l-.63,3.21h-9.94l8.74,4.7a1.23,1.23,0,0,1,.52,1.59l-.91,2.56c-.39.81-1.25,1.23-2.87,1.23m43.11-.45h2.84l1.52-8.45c.15-.84-.89-1-.94-1l-.1,0,0-.34h7.65l.5-2.79H173a3.49,3.49,0,0,0-3.34,2.74Zm3.1.45h-3.47l1.83-10.28a3.84,3.84,0,0,1,3.63-3h6.71l-.6,3.34H172l.55,1.2Zm-39.87,3.42h2.77l.7-3.87h7.8A3.44,3.44,0,0,0,145.7,145l1.33-7.18a2.38,2.38,0,0,0-.47-1.9,2.74,2.74,0,0,0-2-.84h-7.65a3.5,3.5,0,0,0-3.37,2.72Zm3,.41h-3.4l2.54-14.14a3.78,3.78,0,0,1,3.62-3h7.68a3,3,0,0,1,2.21.89,2.53,2.53,0,0,1,.55,2.14L146,145a3.73,3.73,0,0,1-3.63,2.89h-7.54Z"/><polygon class="cls-23" points="154.03 142.86 153.72 142.86 153.32 144.95 153.69 144.66 154.03 142.86"/><polygon class="cls-23" points="171.45 146.27 171.14 146.13 170.85 147.68 168.01 147.68 167.64 148.12 171.11 148.12 171.45 146.27"/><path class="cls-23" d="M163.68,146.08l-.23-.1a3.54,3.54,0,0,1-2.95,1.75h-7.83a2.33,2.33,0,0,1-1.83-.81l-.47-.94-.28.1.52,1a2.63,2.63,0,0,0,2.06.86h7.72a3.88,3.88,0,0,0,3.29-1.85"/><polygon class="cls-23" points="185.09 137.93 185.89 138.27 192.94 138.27 192.71 137.93 185.09 137.93"/><path class="cls-23" d="M191,147.79h-6.42a2.36,2.36,0,0,1-1.83-.79l-.49-1.48h-.32a2.43,2.43,0,0,0,.57,1.64,2.67,2.67,0,0,0,2.07.86h6.68Z"/><polygon class="cls-23" points="178.84 137.93 171.19 137.93 172.02 138.27 179.1 138.27 178.84 137.93"/><path class="cls-23" d="M127.71,146.84l.91-2.55a1.24,1.24,0,0,0-.52-1.6L119.36,138l-1.23-.21,9.81,5.22.39,1.17-.91,2.51c-.34.67-1.1.94-2.61.94h-10.1l-.36.44h10.46c1.64,0,2.51-.42,2.9-1.23"/><path class="cls-23" d="M165,135.66a3,3,0,0,0-2.21-.89h-7.68a3.83,3.83,0,0,0-3.36,2.14l.26.14a3.48,3.48,0,0,1,3.1-2h7.68a2.75,2.75,0,0,1,2,.81l.29.42.23-.14-.29-.44"/><polygon class="cls-23" points="133.95 151.58 131.18 151.58 130.82 151.99 134.21 151.99 133.95 151.58"/><path class="cls-23" d="M146.07,145l.6-3.26h-.31l-.6,3.23a3.45,3.45,0,0,1-3.31,2.74h-7.81l.26.21h7.55a3.74,3.74,0,0,0,3.62-2.92"/><path class="cls-23" d="M135.28,145l.36-.29,1-5.35-.55-1.15-.86,0,.15,0c.06,0,1.07.19.94,1Z"/><polygon class="cls-24" points="153.27 138.13 153.42 138 153.21 137.79 153.21 138.13 153.27 138.13"/><path class="cls-24" d="M146.83,136.24a2.37,2.37,0,0,1,.28,1.67l-.73,3.91h.32l.7-3.83a2.55,2.55,0,0,0-.34-1.91Z"/><polygon class="cls-24" points="154.6 139.26 154.46 138.56 154.2 138.69 154.28 139.21 153.62 142.81 153.94 142.81 154.6 139.26"/><polygon class="cls-24" points="165.2 136.05 164.94 136.16 165.2 136.84 165.49 136.76 165.2 136.05"/><polygon class="cls-24" points="151.37 137.75 151.66 137.82 151.66 137.8 151.87 137.12 151.61 136.99 151.37 137.75"/><polygon class="cls-24" points="186.79 135.1 187.16 134.86 187.86 130.79 187.5 131.23 186.79 135.1"/><polygon class="cls-24" points="185.09 138.13 185.22 138 185.01 137.79 185.01 138.13 185.09 138.13"/><polygon class="cls-24" points="181.86 144.95 181.8 145.26 182.12 145.26 182.14 145.05 183.44 137.88 184.64 131.25 184.38 130.83 183.15 137.74 181.86 144.95"/><polygon class="cls-24" points="171.26 138.13 171.42 137.98 171.23 137.79 171.23 138.13 171.26 138.13"/><polygon class="cls-24" points="135.28 137.93 135.22 138.27 135.28 138.27 135.47 138.08 135.28 137.93"/><polygon class="cls-24" points="143.05 144.56 144.27 137.88 143.91 138.19 142.73 144.54 142.68 144.67 142.81 144.93 143.05 144.56"/><polygon class="cls-24" points="179.4 135.1 178.9 137.86 179.17 138.2 179.77 134.86 179.4 135.1"/><polygon class="cls-24" points="193.23 135.1 192.73 137.86 192.97 138.2 193.6 134.86 193.23 135.1"/><polygon class="cls-24" points="131.49 150.25 131.2 150.23 130.89 152.03 131.25 151.61 131.49 150.25"/><polygon class="cls-24" points="191.34 144.95 190.84 147.69 191.1 147.92 191.7 144.61 191.34 144.95"/><polygon class="cls-24" points="129.59 135.1 129.07 137.86 129.33 138.07 129.98 134.86 129.59 135.1"/><polygon class="cls-24" points="128.65 143.43 128.36 143.54 128.42 143.88 128.73 143.98 128.65 143.43"/><path class="cls-24" d="M115.39,139.45l.29-.13.06-.81.83-2.45a1.51,1.51,0,0,1,1.1-.89l-.07-.21a1.78,1.78,0,0,0-1.31,1l-.83,2.4-.06,1"/><polygon class="cls-24" points="115.21 144.95 114.94 144.74 114.32 148.16 114.68 147.72 115.21 144.95"/><path class="cls-25" d="M213.49,155.17s1.07-5.12,2.51-11.77c1-4.57,2-9.94,2-9.94l-5.77.19v-4.1c1.88-.63,8.07-2.19,10.94-2.19H226s-1,6.65-2.46,13.9c-1,4.81-3,13.92-3,13.92Z"/><path class="cls-26" d="M214.81,126.2v-.37a1.84,1.84,0,0,0-1.25-1.54,6.48,6.48,0,0,0-4.2.37c-2.09.7-5.74,3.23-6.87,6.42s.47,4,1.28,3.88c1.46-.2,2.85-.26,6.53-3.13s4.41-4.75,4.51-5.63"/><path class="cls-27" d="M214.81,126c-.13.91-.83,2.84-4.54,5.79-3.08,2.48-4.57,2.92-5.82,3.13,1.25-.19,2.71-.6,5.85-3,3.7-2.88,4.41-4.75,4.51-5.64V126"/><path class="cls-28" d="M213.68,124.3a6.48,6.48,0,0,0-4.2.37c-2.09.7-5.74,3.23-6.87,6.42a5.81,5.81,0,0,0-.36,2.32l0,.06c.21.78,1,.47,1.54.07a22.23,22.23,0,0,0,3.1-3.29,31.63,31.63,0,0,1,5.07-4.72,4.73,4.73,0,0,1,2.16-.84l.31.1-.78-.5"/><path class="cls-25" d="M111.38,134.92h-5.73a.41.41,0,0,0-.44.43l0,12.15a.41.41,0,0,0,.44.44h5.73a.41.41,0,0,0,.44-.44l0-12.15a.41.41,0,0,0-.44-.43"/><path class="cls-29" d="M111.38,134.92h-5.73a.41.41,0,0,0-.44.43l0,12.15a.41.41,0,0,0,.44.44h5.73a.41.41,0,0,0,.44-.44l0-12.15a.41.41,0,0,0-.44-.43"/><g class="cls-30"><g class="cls-31"><g class="cls-31"><g class="cls-32"><g class="cls-31"><g class="cls-33"><rect class="cls-34" x="105.32" y="137.7" width="6.43" height="10.14"/></g></g></g></g></g></g><path class="cls-25" d="M97.32,134.89H84.44a6.51,6.51,0,1,0,0,13h18.7a.4.4,0,0,0,.43-.44V141a.42.42,0,0,0-.44-.44H97.42A.41.41,0,0,0,97,141v5.24H89.41a4.94,4.94,0,0,1-5-4.86,4.81,4.81,0,0,1,4.94-4.91h7.49a.4.4,0,0,0,.34-.19l.48-.81a.41.41,0,0,0-.38-.62"/><path class="cls-29" d="M97.32,134.89H84.44a6.51,6.51,0,1,0,0,13h18.7a.4.4,0,0,0,.43-.44V141a.42.42,0,0,0-.44-.44H97.42A.41.41,0,0,0,97,141v5.24H89.41a4.94,4.94,0,0,1-5-4.86,4.81,4.81,0,0,1,4.94-4.91h7.49a.4.4,0,0,0,.34-.19l.48-.81a.41.41,0,0,0-.38-.62"/><g class="cls-35"><g class="cls-36"><g class="cls-36"><g class="cls-37"><g class="cls-36"><g class="cls-38"><rect class="cls-39" x="77.97" y="140.74" width="25.54" height="7.1"/></g></g></g></g></g></g><path class="cls-25" d="M75.75,134.89H70a.41.41,0,0,0-.44.43v12.16a.41.41,0,0,0,.44.43h5.73a.41.41,0,0,0,.44-.43l0-12.16a.41.41,0,0,0-.44-.43"/><path class="cls-29" d="M75.75,134.89H70a.41.41,0,0,0-.44.43v12.16a.41.41,0,0,0,.44.43h5.73a.41.41,0,0,0,.44-.43l0-12.16a.41.41,0,0,0-.44-.43"/><g class="cls-40"><g class="cls-41"><g class="cls-41"><g class="cls-42"><g class="cls-43"><g class="cls-44"><rect class="cls-45" x="69.7" y="141.84" width="6.43" height="6"/></g></g></g></g></g></g><path class="cls-25" d="M49.19,146.32v-9.77h7.36a4.88,4.88,0,1,1,0,9.76H49.19m12.29-11.4H43a.41.41,0,0,0-.45.43l0,12.15a.42.42,0,0,0,.45.44H61.49a6.51,6.51,0,1,0,0-13"/><g class="cls-46"><g class="cls-47"><path class="cls-48" d="M49.19,146.33l0-9.78h7.37a4.89,4.89,0,1,1,0,9.77H49.19m12.28-11.41H43a.42.42,0,0,0-.45.44l0,12.14a.41.41,0,0,0,.44.44H61.49a6.51,6.51,0,1,0,0-13"/></g></g><g class="cls-49"><g class="cls-50"><g class="cls-50"><g class="cls-51"><g class="cls-50"><g class="cls-52"><rect class="cls-53" x="42.67" y="142.79" width="25.05" height="5.06"/></g></g></g></g></g></g></g></g></g></g></svg>