<svg xmlns="http://www.w3.org/2000/svg" viewBox="0 0 283.46 283.46"><defs><style>.cls-1{fill:#5c9fd3;}.cls-2{fill:#fff;}</style></defs><g id="Layer_2" data-name="Layer 2"><g id="Discovery_Group" data-name="Discovery Group"><g id="discoveryscience"><rect class="cls-1" width="283.46" height="283.46"/><path class="cls-2" d="M65.4,93.84,42.52,116.77v72.85h72.85l22.93-22.93V93.84ZM85.06,113a4.32,4.32,0,0,0-4-1.86,5,5,0,0,0-2.51.56,4.31,4.31,0,0,0-1.5,1.5,6.28,6.28,0,0,0-.76,2.11,14.06,14.06,0,0,0-.18,2.45,18,18,0,0,0,.11,2.61,4.45,4.45,0,0,0,.55,1.81,3.55,3.55,0,0,0,1.26,1.3,9.33,9.33,0,0,0,2.25,1.16l5.62,2.26a13.2,13.2,0,0,1,4,2.2,8.94,8.94,0,0,1,2.31,3A12.38,12.38,0,0,1,93.37,136a40.55,40.55,0,0,1,.29,5,28.41,28.41,0,0,1-.65,6,12.45,12.45,0,0,1-2.16,4.77,10.11,10.11,0,0,1-3.91,3.11,13.8,13.8,0,0,1-6,1.15,13.49,13.49,0,0,1-5-.9,12.69,12.69,0,0,1-4-2.56,12,12,0,0,1-2.66-3.86,12.1,12.1,0,0,1-1-4.87V141.1H75.7v2.36a5.91,5.91,0,0,0,1.2,3.61,4.68,4.68,0,0,0,4,1.66,6.36,6.36,0,0,0,3-.56,3.8,3.8,0,0,0,1.55-1.5,6.33,6.33,0,0,0,.71-2.46,30.49,30.49,0,0,0,.14-3.16,30,30,0,0,0-.14-3.31,5.62,5.62,0,0,0-.61-2.11,4.14,4.14,0,0,0-1.3-1.3A11.49,11.49,0,0,0,82,133.28l-5.26-2.21c-3.21-1.3-5.32-3-6.43-5.17a18,18,0,0,1-1.6-8,17.59,17.59,0,0,1,.8-5.46,12.63,12.63,0,0,1,2.31-4.52,11.3,11.3,0,0,1,4-3,13.87,13.87,0,0,1,10.59-.1,12.73,12.73,0,0,1,3.91,2.71,11.45,11.45,0,0,1,2.46,3.71,10.33,10.33,0,0,1,.9,4.22l0,3.61H86.27v-1.66A7.62,7.62,0,0,0,85.06,113Zm36,31.15a11.64,11.64,0,0,1-.9,4.57,11.43,11.43,0,0,1-2.51,3.76A12,12,0,0,1,114,155.1a10.92,10.92,0,0,1-4.57,1,16.46,16.46,0,0,1-4.26-.6,10.41,10.41,0,0,1-6.78-5.72,13.11,13.11,0,0,1-1.1-5.82V115.62a11.89,11.89,0,0,1,.85-4.66,10.72,10.72,0,0,1,2.46-3.77,11.51,11.51,0,0,1,3.76-2.5,12.83,12.83,0,0,1,4.92-.91,11.74,11.74,0,0,1,4.66.91,11.55,11.55,0,0,1,3.77,2.5,12.23,12.23,0,0,1,2.5,3.92,13.26,13.26,0,0,1,.91,5v2.86h-7.38v-2.41a5.78,5.78,0,0,0-1.25-3.76,4,4,0,0,0-3.31-1.61c-1.81,0-3.06.56-3.66,1.71a9,9,0,0,0-.85,4.27v26.34a6.66,6.66,0,0,0,1,3.71c.65,1,1.81,1.55,3.51,1.55a6.8,6.8,0,0,0,1.56-.25,4.16,4.16,0,0,0,1.5-.85,4.25,4.25,0,0,0,1.1-1.61,6.05,6.05,0,0,0,.46-2.51V141h7.37Zm11.08,11.54h-7.12V104.28h7.12Z"/><path class="cls-2" d="M157.71,124.4h3.06V104.23h-3.06Z"/><path class="cls-2" d="M171.86,129.77a5.83,5.83,0,0,0-2-1.41,7,7,0,0,0-2.56-.45,7.38,7.38,0,0,0-2.61.45,7.76,7.76,0,0,0-2.06,1.36,6.56,6.56,0,0,0-1.3,2,7.24,7.24,0,0,0-.5,2.51v15.2a7.78,7.78,0,0,0,.6,3.11,6.64,6.64,0,0,0,1.56,2,6,6,0,0,0,2.11,1.1,10.42,10.42,0,0,0,2.3.29,5.42,5.42,0,0,0,2.46-.55,6.65,6.65,0,0,0,2-1.36,6.54,6.54,0,0,0,1.85-4.51v-1.71h-4v1.36a4.12,4.12,0,0,1-.25,1.4,2,2,0,0,1-.61.8,1.56,1.56,0,0,1-.8.45,2.46,2.46,0,0,1-.85.15,2.12,2.12,0,0,1-1.91-.8,3.64,3.64,0,0,1-.5-2v-14.1a4.38,4.38,0,0,1,.5-2.3,2,2,0,0,1,2-.91,2.12,2.12,0,0,1,1.8.85,3.35,3.35,0,0,1,.65,2V136h4v-1.55a6.47,6.47,0,0,0-.51-2.66,5.14,5.14,0,0,0-1.35-2.05"/><path class="cls-2" d="M157.11,129.87a6.79,6.79,0,0,0-2.11-1.41,6.27,6.27,0,0,0-2.71-.55,7.34,7.34,0,0,0-3,.6,7.1,7.1,0,0,0-2.16,1.61,6.83,6.83,0,0,0-1.25,2.4,11.15,11.15,0,0,0,.45,7.23,6.48,6.48,0,0,0,3.47,2.81l2.85,1.15c.46.19.86.4,1.16.56a2.22,2.22,0,0,1,.7.7,2.89,2.89,0,0,1,.36,1.15c0,.45.11,1.06.11,1.76a11.43,11.43,0,0,1-.11,1.71,3.91,3.91,0,0,1-.36,1.3,2.07,2.07,0,0,1-.9.8,3.34,3.34,0,0,1-1.56.3,2.55,2.55,0,0,1-2.16-.86,3.16,3.16,0,0,1-.65-1.95v-1.25h-4v1.45a6.2,6.2,0,0,0,.5,2.61,6.3,6.3,0,0,0,1.46,2.06,6.13,6.13,0,0,0,2.11,1.4,8.09,8.09,0,0,0,2.7.51,6.73,6.73,0,0,0,3.22-.65,5.63,5.63,0,0,0,2.15-1.66,7.35,7.35,0,0,0,1.16-2.56,14.92,14.92,0,0,0,.36-3.26,19.07,19.07,0,0,0-.14-2.66,8.92,8.92,0,0,0-.61-2.11,4.83,4.83,0,0,0-1.3-1.6,6.56,6.56,0,0,0-2.16-1.16l-3-1.2a4.29,4.29,0,0,1-1.25-.66,1.93,1.93,0,0,1-.66-.7,2.65,2.65,0,0,1-.29-1c0-.37,0-.85,0-1.36a7,7,0,0,1,.11-1.35,5.12,5.12,0,0,1,.4-1.1,1.93,1.93,0,0,1,.85-.8,2.77,2.77,0,0,1,1.3-.3,2.43,2.43,0,0,1,2.21,1,4.47,4.47,0,0,1,.65,2.36v.9h4v-1.95a5.11,5.11,0,0,0-.5-2.26,6.32,6.32,0,0,0-1.3-2"/><path class="cls-2" d="M176.27,155.7h4V128.11h-4Z"/><path class="cls-2" d="M148.63,106.94H150a2.15,2.15,0,0,1,1.81.65,2.86,2.86,0,0,1,.5,1.86v9.73a2.87,2.87,0,0,1-.5,1.91,2.32,2.32,0,0,1-1.81.6h-1.4ZM154,123a5.43,5.43,0,0,0,1.45-4.16v-9.43a4.73,4.73,0,0,0-5.32-5.22h-4.51V124.4h4.21A5.83,5.83,0,0,0,154,123"/><path class="cls-2" d="M184.2,119.88v-1.2h-3.06v.95a2.66,2.66,0,0,1-.15,1,2.84,2.84,0,0,1-.45.65,1.65,1.65,0,0,1-.65.29,1.48,1.48,0,0,1-.65.11,1.55,1.55,0,0,1-1.41-.6,2.33,2.33,0,0,1-.4-1.46V109.3a3.34,3.34,0,0,1,.37-1.71,1.55,1.55,0,0,1,1.5-.65,1.59,1.59,0,0,1,1.35.6,2.28,2.28,0,0,1,.51,1.51v1h3.06v-1.1a5,5,0,0,0-.4-2,4.41,4.41,0,0,0-2.56-2.56,6.69,6.69,0,0,0-1.91-.29,6.84,6.84,0,0,0-2,.29,5,5,0,0,0-1.56,1,4.32,4.32,0,0,0-1,1.45,6.46,6.46,0,0,0-.36,1.86v11.14a4.88,4.88,0,0,0,.45,2.25,4.61,4.61,0,0,0,1.2,1.51,4.26,4.26,0,0,0,1.61.75,7.06,7.06,0,0,0,1.75.26,4.56,4.56,0,0,0,1.86-.4,5.74,5.74,0,0,0,1.56-1,6,6,0,0,0,1-1.5,4.39,4.39,0,0,0,.4-1.81"/><path class="cls-2" d="M218.07,121.54h-6v-5.92h5.21v-2.76H212.1v-5.92h6v-2.71h-9V124.4h9Z"/><path class="cls-2" d="M164,123.19a4.27,4.27,0,0,0,1.66,1,5.17,5.17,0,0,0,2.05.41,6,6,0,0,0,2.46-.46,4.4,4.4,0,0,0,1.61-1.25,5.37,5.37,0,0,0,.9-1.86,11.68,11.68,0,0,0,.26-2.36,11.08,11.08,0,0,0-.15-2,3.15,3.15,0,0,0-.45-1.51,3.4,3.4,0,0,0-1-1.2,6.94,6.94,0,0,0-1.65-.86l-2.31-.85a3.11,3.11,0,0,1-.9-.45,2,2,0,0,1-.56-.55,2.76,2.76,0,0,1-.22-.7,9.87,9.87,0,0,1,0-1,3.54,3.54,0,0,1,.11-1,1.87,1.87,0,0,1,.29-.86,1.59,1.59,0,0,1,.6-.55,1.66,1.66,0,0,1,1.05-.25,1.88,1.88,0,0,1,1.66.75,3.19,3.19,0,0,1,.5,1.71V110h3v-1.46a4.46,4.46,0,0,0-.36-1.65,5.91,5.91,0,0,0-1.05-1.46,6.59,6.59,0,0,0-1.61-1,5.18,5.18,0,0,0-2.06-.4,5.64,5.64,0,0,0-2.31.45,5.22,5.22,0,0,0-1.6,1.2,5.05,5.05,0,0,0-.95,1.76,7.83,7.83,0,0,0-.3,2.16,6.84,6.84,0,0,0,.66,3.16,4.6,4.6,0,0,0,2.61,2l2.16.86c.4.14.7.29,1,.4a1.52,1.52,0,0,1,.5.55,2.21,2.21,0,0,1,.26.8c0,.37.11.81.11,1.31a6.68,6.68,0,0,1-.11,1.25,2.41,2.41,0,0,1-.26,1,1.79,1.79,0,0,1-.65.6,2.91,2.91,0,0,1-1.21.18A1.78,1.78,0,0,1,166,121a2,2,0,0,1-.5-1.41v-.9h-3v1a4.77,4.77,0,0,0,1.46,3.41"/><path class="cls-2" d="M233.77,124.4h3.06v-8.53l4.11-11.64h-3.16l-2.45,8h0l-2.46-8h-3.21l4.17,11.64Z"/><path class="cls-2" d="M183.35,155.7h11.84v-4h-7.88v-8.08h6.87V140h-6.87v-8.08h7.88v-3.76H183.35Z"/><path class="cls-2" d="M226.54,111.45a2,2,0,0,1-.36,1,1.22,1.22,0,0,1-.7.6,3.47,3.47,0,0,1-1.31.25h-1.7v-6.32H224a3.06,3.06,0,0,1,1.36.22,1.55,1.55,0,0,1,.75.6,2.29,2.29,0,0,1,.4,1,12.72,12.72,0,0,1,.11,1.35,7.84,7.84,0,0,1-.11,1.35m.5,3.77a4.81,4.81,0,0,0,2.06-2.06,7.7,7.7,0,0,0,.55-3c0-4-1.75-5.92-5.32-5.92h-4.86v20.17h3v-8.63h1.8l2.82,8.63h3.21Z"/><path class="cls-2" d="M224.29,129.77a6.46,6.46,0,0,0-2-1.41,7.49,7.49,0,0,0-2.56-.45,7.38,7.38,0,0,0-2.61.45,7,7,0,0,0-2.06,1.36,6.56,6.56,0,0,0-1.3,2,5.93,5.93,0,0,0-.5,2.51v15.2a6.74,6.74,0,0,0,.6,3.11,5.93,5.93,0,0,0,1.55,2,5.69,5.69,0,0,0,2.11,1.1,10.51,10.51,0,0,0,2.31.29,6.26,6.26,0,0,0,2.46-.55,6.33,6.33,0,0,0,3.36-3.41,7,7,0,0,0,.5-2.46v-1.71h-4v1.36a3.35,3.35,0,0,1-.22,1.4,2,2,0,0,1-.6.8,1.57,1.57,0,0,1-.86.45,2.2,2.2,0,0,1-.8.15,2.11,2.11,0,0,1-1.9-.8,3.57,3.57,0,0,1-.51-2V135.07a5.11,5.11,0,0,1,.45-2.31,2.14,2.14,0,0,1,2-.91,2,2,0,0,1,1.76.86,3,3,0,0,1,.65,2V136h4v-1.56a7.2,7.2,0,0,0-.5-2.66,6.85,6.85,0,0,0-1.36-2.05"/><path class="cls-2" d="M228.6,155.7h11.84v-4h-7.88v-8.08h6.88V140h-6.88v-8.08h7.88v-3.76H228.6Z"/><path class="cls-2" d="M193,119.63a1.82,1.82,0,0,1-.6,1.56,2,2,0,0,1-1.41.5,2.05,2.05,0,0,1-1.45-.5,1.87,1.87,0,0,1-.6-1.56V109a1.9,1.9,0,0,1,2.05-2.06,2,2,0,0,1,1.41.5A2,2,0,0,1,193,109Zm1.41-14.35a4.71,4.71,0,0,0-1.61-.9,4.83,4.83,0,0,0-3.66,0,5.81,5.81,0,0,0-1.66.9,4.69,4.69,0,0,0-1.15,1.56,4.86,4.86,0,0,0-.45,2.16v10.63a5,5,0,0,0,.45,2.21,4.83,4.83,0,0,0,1.15,1.5,6.66,6.66,0,0,0,1.66,1,5.92,5.92,0,0,0,3.66,0,6.14,6.14,0,0,0,1.61-1,4.43,4.43,0,0,0,1.2-1.5,5.28,5.28,0,0,0,.45-2.21V109a4.6,4.6,0,0,0-.45-2.16,4.11,4.11,0,0,0-1.2-1.56"/><path class="cls-2" d="M206.73,144.77h-.11l-6-16.66h-3.87v27.6h4V139.15h0l6.07,16.56h3.77v-27.6h-4Z"/><path class="cls-2" d="M203.52,124.4l4.31-20.17h-3.21l-2.41,14.1h0l-2.41-14.1h-3.21l4.31,20.17Z"/></g></g></g></svg>