<svg xmlns="http://www.w3.org/2000/svg" viewBox="0 0 283.46 283.46"><defs><style>.cls-1{fill:#1a69cd;}.cls-2{fill:#f5f5f5;}</style></defs><g id="Layer_2" data-name="Layer 2"><g id="Kids"><g id="disneychannel"><rect class="cls-1" width="283.46" height="283.46"/><g id="logo"><path class="cls-2" d="M61.13,100.69c-7.93.23-14.3,1.21-15.73,2.74-1.25,1.38-2.85,2.49-2.88,4.34s2.07,2,3.34,1.94,2.43-.11,2.41-.87c0-1-1.71-.81-1.71-1.88s6.56-1.48,9.83-1.48c28-.1,60.32,19.35,60.37,35.85C116.8,154.13,100.14,157,91,157a47.53,47.53,0,0,1-9.44-.91c-.15-4.08-.38-12.62-.49-18,1.06,0,2.06,0,2.9,0,6.81,0,15.75,2.4,15.76,4,0,1.36-2.38,2.31-2.38,3.61,0,1,2.2.78,4.08.93.35,0,4.19-2.12,4.19-5.53,0-4.49-5.62-9.8-23.88-9.73h-.8c-.17-5.06-.9-13-3.79-13-2.37,0-3.06,8.78-3.26,13.57-10.25,1.58-19.35,5.74-19.33,9.85,0,3.37,7.33,11.82,19.17,17,.21,3.81.93,6.42,4.32,6.4,2.45,0,3.27-1.8,3.53-3.7a49.53,49.53,0,0,0,12.4,1.55c17.18-.05,31-9.25,30.94-21.85,0-16.92-34.09-41.21-63.74-40.39m-4.62,42.08c0-2.94,8.92-4.08,17.19-4.5,0,4.62-.11,11.24-.1,15.69-10.17-3.59-17.09-9.29-17.09-11.19"/><path class="cls-2" d="M130.41,131c-2.86,0-2.94,11.72-3,16-.2,9.71,1.23,10.85,3.78,10.85,2.29,0,3.07-.28,2.87-8.42C133.68,134,132.65,131,130.41,131"/><path class="cls-2" d="M164.44,133.67c0-2.69-7-2.66-10.91-2.66-2.95,0-17.9.36-17.88,8.67,0,5.62,8.38,4.24,13.94,4.8,4.51.45,10,1.94,10,3.4,0,3.31-12,4.62-14.44,4.62-5.09,0-5.19-1.43-5.19-2.18s.84-2,2.76-2,5.81,2.41,8.52,2.4,4.94-1.2,4.94-2.4c0-2.22-8.95-3.27-11.73-3.27s-7.09,1.2-7.07,5.55c0,2.26,3.71,7.59,14.12,7.55,10.26,0,12.85-5.84,12.84-8.83,0-7.26-7-8.1-13-8.62-4.53-.39-9.39-.61-9.37-1.6,0-3.33,22.44-.89,22.44-5.41"/><path class="cls-2" d="M181.13,127.41c-.84,0-1,.9-1,1.84,0,2.88,4,12.79,4,16.61,0,.78-.06,2.18-.68,2.38-.95.27-9.22-14.79-12.64-15.05s-5.43,14.78-5.41,18.48.67,6.18,3.43,6.16c4.07,0,2-15,3.6-15,1.21,0,7.87,13.75,11.58,13.73,4,0,6.39-5.89,6.39-9.71,0-8.75-5.86-19.43-9.24-19.41"/><path class="cls-2" d="M208.27,150.64c-1.41,0-9.36,1.78-9.89,1.31s.47-5.12,1.46-5.42,7.22-.23,8.21-.3c2.89-.16,2.34-4.09.56-4.24-.91-.08-6.52-.1-6.84-.62s.1-3.14.71-3.41c1.3-.55,9.83-.76,10.47-.92a2.68,2.68,0,0,0,2.1-1.76c.25-.92-3-4.66-7-4.24-6.85.75-15.72.71-15.72,3s4.17,3,4.28,3.56a13.35,13.35,0,0,1-.78,3.46c-.25.73-3.23,1-3.43,3,0,.48.75,1.22.61,1.81-.47,1.74-1.9,5.32-1.89,6.8,0,2.3,1.69,7.41,6.32,7.23,7.36-.22,13.93-5.39,14-6.3.15-1.36-1.86-2.94-3.27-2.94"/><path class="cls-2" d="M235,132.83c-4,.22-11.68,8.73-16.17,14.46a4,4,0,0,1-.44-1.66c0-2.44,4.54-9.7,5.39-11.52s-.11-4.4-1.22-3.49c-2.13,1.75-8.95,9.74-8.94,17.18a13.19,13.19,0,0,0,1.39,5.69c-1.51,5-5.25,16.09-5.13,22.81.07,3.47,3.57,6.89,5.68,6.46.8-.2,1-4.76,2-7.84,1.46-4.45,3.84-12.59,4.65-16a11.17,11.17,0,0,0,1.18.07c8.34,0,17.59-9,17.57-16.66s-4.57-9.54-6-9.45m-9.62,19c3.36-5.84,8.24-13.58,10-13.55,1.26,0,1.75,1.29,1.75,3.18,0,5.71-6.87,10.45-11.79,10.37"/><path class="cls-2" d="M139.77,112.65"/><path class="cls-2" d="M158.05,162.27a1.31,1.31,0,0,0-1.34,1.23l-.09,1.69c-.13,2.5-.31,5-.3,7.52,0,.09,0,.18,0,.42-.17-.17-.26-.24-.32-.32s-.31-.45-.48-.67L153,168.88c-.76-1-1.52-1.95-2.3-2.91a7.56,7.56,0,0,0-1-1,1.41,1.41,0,0,0-2.26.85c0,.16-.06.31-.06.47,0,1-.11,2-.1,3,0,2.44.06,4.88.11,7.32a3.64,3.64,0,0,0,.06.74,1.13,1.13,0,0,0,.78.89,1.26,1.26,0,0,0,1.3-.28,1.46,1.46,0,0,0,.54-1.2c0-1.36-.06-2.72-.09-4.07,0-.93,0-1.85-.06-2.78,0-.1,0-.23.11-.32.22.09.32.3.46.47l3.47,4.44c.43.54.88,1.06,1.34,1.57a3.84,3.84,0,0,0,.78.67,1.67,1.67,0,0,0,2.25-.42,2.67,2.67,0,0,0,.58-1.36c.06-.63.11-1.26.14-1.89.06-2,.1-3.94.18-5.9,0-1,.15-2,.22-3a3.89,3.89,0,0,0,0-.68A1.34,1.34,0,0,0,158.05,162.27Z"/><path class="cls-2" d="M186.89,173.08a6.56,6.56,0,0,0-.89.11c-1.18.19-2.36.41-3.55.57-.82.1-1.65.13-2.47.18a3.29,3.29,0,0,1-.54-.05,6.1,6.1,0,0,1-.33-2.11l1.92-.11a37.79,37.79,0,0,0,4-.41,2.16,2.16,0,0,0,1.11-.52,1.05,1.05,0,0,0,.33-1.05,1.32,1.32,0,0,0-1.36-1c-.27,0-.54.09-.82.11l-4.89.38H179a.28.28,0,0,1-.29-.24,6.54,6.54,0,0,1-.17-.86,2.63,2.63,0,0,1,0-1,4.12,4.12,0,0,1,.48-.05l4.49-.13c.76,0,1.51-.1,2.27-.15a1.78,1.78,0,0,0,1.23-.55,1.05,1.05,0,0,0,.3-1.11,1.43,1.43,0,0,0-1.44-1c-.41,0-.83.09-1.24.1l-5,.17c-.44,0-.88,0-1.31,0a6.5,6.5,0,0,0-1.09.15,1.69,1.69,0,0,0-1.09.77,2.29,2.29,0,0,0-.34,1.49c.19,2.13.36,4.27.71,6.39.12.69.29,1.37.45,2.05a1.61,1.61,0,0,0,1.36,1.26,7.56,7.56,0,0,0,2.07.06l1.93-.11c.87,0,1.75-.07,2.62-.14.55-.05,1.09-.16,1.63-.26a2.84,2.84,0,0,0,1.17-.57,1.29,1.29,0,0,0,.38-1.53A1.19,1.19,0,0,0,186.89,173.08Z"/><path class="cls-2" d="M115.92,172.8a3,3,0,0,0-.41.08c-.56.11-1.13.26-1.7.33-2.33.31-4.67.44-7,.55-.81,0-1.62,0-2.44,0a3.54,3.54,0,0,1-1.85-.52c-.65-.41-.86-.54-.33-1.39a5.1,5.1,0,0,1,1.18-1.27c.91-.73,1.82-1.44,2.76-2.13a14,14,0,0,1,2.4-1.39,7.77,7.77,0,0,1,2.46-.73c.42-.05.78,0,1,.43a1,1,0,0,0,.71.52,1.56,1.56,0,0,0,1.46-.45,1.24,1.24,0,0,0,.3-1.35,2.42,2.42,0,0,0-1-1.37,3.13,3.13,0,0,0-1.63-.53,8,8,0,0,0-2.07.21,12.12,12.12,0,0,0-3.8,1.5,29.29,29.29,0,0,0-4.82,3.54,11.7,11.7,0,0,0-.91.95,5.18,5.18,0,0,0-.89,1.41,3.13,3.13,0,0,0,.53,3.38,5.05,5.05,0,0,0,2.27,1.56,7.52,7.52,0,0,0,2.74.38c.74,0,1.49,0,2.23-.07v0c1.67-.12,3.34-.22,5-.35.76-.06,1.52-.16,2.28-.27a11.78,11.78,0,0,0,1.44-.27,3.32,3.32,0,0,0,1-.38,1.19,1.19,0,0,0,.54-1.49A1.26,1.26,0,0,0,115.92,172.8Z"/><path class="cls-2" d="M144.68,172.81c-.41-.82-.84-1.64-1.3-2.54,0-.13.09-.28.13-.44a1.18,1.18,0,0,0-.58-1.35.82.82,0,0,0-.25-.12.8.8,0,0,1-.6-.5c-.35-.63-.69-1.25-1.06-1.86-.49-.78-1-1.55-1.53-2.3a4.3,4.3,0,0,0-.82-.83,1.46,1.46,0,0,0-1.44-.22,1.42,1.42,0,0,0-.82.7,16,16,0,0,0-.77,1.62,55,55,0,0,0-1.67,5.48c-.07.24-.14.48-.21.74l-.91.37a3.89,3.89,0,0,0-.61.31,1.08,1.08,0,0,0-.49,1,1.37,1.37,0,0,0,1,1.37,2.12,2.12,0,0,1,.27.13c0,.14,0,.28-.06.41-.1.4-.21.8-.32,1.2a2,2,0,0,0,0,1.22,1.17,1.17,0,0,0,.75.75,1.38,1.38,0,0,0,1.63-.81,4.08,4.08,0,0,0,.16-.6c.23-.94.46-1.88.67-2.83a.79.79,0,0,1,.54-.64l4.09-1.46a1.68,1.68,0,0,1,.4-.05c.13.22.25.42.35.62q1,2,2.09,4.05c.09.17.16.34.26.49a1.21,1.21,0,0,0,2.11.05,1.53,1.53,0,0,0,.13-1.69C145.44,174.34,145.07,173.57,144.68,172.81ZM137,169.94a3.25,3.25,0,0,1,0-.33,10.64,10.64,0,0,1,1-3.05,9.65,9.65,0,0,1,1.47,2.51A10.46,10.46,0,0,1,137,169.94Z"/><path class="cls-2" d="M129.85,167.52l-.71-.1c0-.12,0-.23,0-.35,0-.95-.08-1.9-.14-2.86a3.24,3.24,0,0,0-.11-.82,1.28,1.28,0,0,0-1.52-.91,1.25,1.25,0,0,0-1.22,1.34c0,.12,0,.24,0,.35.07,1.23.13,2.47.19,3.7a2.86,2.86,0,0,1-.06.48c-1.25.25-2.41.73-3.63,1a1.13,1.13,0,0,1-.11-.71c0-1,0-2.05,0-3.07a3.85,3.85,0,0,0-.1-.83,1.16,1.16,0,0,0-.63-.79,1.45,1.45,0,0,0-2.16,1.24c0,.35.06.7.06,1.05q0,1.81,0,3.63a3.1,3.1,0,0,1,0,.45c-.46.14-.89.26-1.3.41a1.23,1.23,0,0,0-.82.89,1.41,1.41,0,0,0,1.56,1.7l.51-.1a1.38,1.38,0,0,1,.11.73c0,.56,0,1.12,0,1.67a1.68,1.68,0,0,0,.26.93,1.17,1.17,0,0,0,1.45.5,1.45,1.45,0,0,0,1-1.41c0-.72,0-1.44,0-2.16l0-.84a.39.39,0,0,1,.31-.41l.26-.08,3-.87a4.22,4.22,0,0,1,.52-.11c0,.26.06.49.07.72.08,1.41.15,2.83.21,4.25a2.61,2.61,0,0,0,.18.88,1.19,1.19,0,0,0,1.5.68,1.5,1.5,0,0,0,1.08-1.59c0-.42-.06-.84-.07-1.26a40.32,40.32,0,0,0-.27-4.11,1.7,1.7,0,0,1,0-.24c0-.05.05-.07.07-.08l.45-.16a2.08,2.08,0,0,0,.92-.6A1.33,1.33,0,0,0,129.85,167.52Z"/><path class="cls-2" d="M173.92,173.55c-.11-1.16-.21-2.32-.33-3.48s-.24-2.4-.37-3.61c-.08-.76-.17-1.52-.25-2.29a1.39,1.39,0,0,0-.66-1.08,1.2,1.2,0,0,0-1.84.53,1.64,1.64,0,0,0-.16.95l.21,2,.6,5.76c0,.21,0,.41,0,.74-.19-.15-.29-.22-.37-.3-.75-.77-1.51-1.55-2.26-2.34l-3.08-3.28c-.38-.4-.77-.79-1.18-1.16a3.4,3.4,0,0,0-.73-.53,1.31,1.31,0,0,0-1.88.87,4,4,0,0,0-.1.76c0,.56,0,1.12,0,1.68.15,2.51.31,5,.46,7.53a3.5,3.5,0,0,0,.09.55,1.16,1.16,0,0,0,1.18.88,1.42,1.42,0,0,0,1.35-1.32,3.46,3.46,0,0,0,0-.56c-.07-1.07-.15-2.14-.23-3.21-.05-.64-.12-1.29-.18-1.94,0-.22,0-.45,0-.75a2,2,0,0,1,.28.18l.76.81c1.36,1.48,2.73,3,4.23,4.29.43.38.87.74,1.34,1.09a3.6,3.6,0,0,0,.84.46,1.77,1.77,0,0,0,2.42-1.57c0-.23,0-.47,0-.7S174,173.87,173.92,173.55Z"/><path class="cls-2" d="M204.19,174.49a1.79,1.79,0,0,0-.92-.41c-.47-.05-1-.11-1.42-.12q-1.46,0-2.91,0a23.05,23.05,0,0,0-4.83.53,1.11,1.11,0,0,1-.7,0c0-.1,0-.21,0-.32,0-.63-.05-1.25-.07-1.87,0-2.52-.09-5-.14-7.56a1.47,1.47,0,0,0-1.2-1.54.92.92,0,0,0-.89.2,1.68,1.68,0,0,0-.69,1.43c0,.09,0,.19,0,.28.06,3.19.13,6.38.19,9.57,0,.23,0,.47.05.69a2.26,2.26,0,0,0,1.81,2,3.19,3.19,0,0,0,1.34,0l1.93-.36a30.63,30.63,0,0,1,7.16-.17,2,2,0,0,0,1.16-.24A1.29,1.29,0,0,0,204.19,174.49Z"/><path class="cls-2" d="M151,112.94c-.52-3.34-3.61-5-6.37-5.06a5.19,5.19,0,0,0-5,4.65,4.2,4.2,0,0,1-.49-.37,7.17,7.17,0,0,0-4.14-1.75,7.43,7.43,0,0,0,1.07-3.15c0-3-2.28-5-5.64-5.08a5.39,5.39,0,0,0-5.65,5.08c0,1.82,1.67,3.69,3.3,4.6a13.76,13.76,0,0,0-1.84,1.1l-.47.34a11.82,11.82,0,0,0-3.7,4.48,5.17,5.17,0,0,0-.5,2.15,5.81,5.81,0,0,0,1.14,3.57s0,0,0,0A6.8,6.8,0,0,0,127,126.2h0l.11,0a14,14,0,0,0,2.74.39,10.24,10.24,0,0,0,3.34-.41,18.17,18.17,0,0,0,8.12-5.13,9.61,9.61,0,0,0,1.58-2.23,5.76,5.76,0,0,0,3.12.51C149.91,118.76,151.39,116.11,151,112.94Zm-24.22,5c-.43.4-.84.81-1.26,1.25l-.51.58a3.15,3.15,0,0,1-.09-.42,1.11,1.11,0,0,1,0-.44c.1-1.51,2.31-3.77,6.6-4.47A28.9,28.9,0,0,0,126.79,118Zm4.33,4.89a9.59,9.59,0,0,1-2.92-.42c.08-.1.18-.2.27-.3a3.39,3.39,0,0,1,.31-.34l.85-.85.31-.3.37-.35.17-.15c.39-.36.77-.7,1.17-1,2.34-2,5.06-3.87,6.71-3.88a1.86,1.86,0,0,1,2,1.89C140.37,120.25,133.91,122.84,131.12,122.85Z"/></g></g></g></g></svg>