<svg xmlns="http://www.w3.org/2000/svg" viewBox="0 0 283.46 283.46"><defs><style>.cls-1{fill:#1a69cd;}.cls-2{fill:#f5f5f5;}</style></defs><title>disneychannel</title><g id="Layer_2" data-name="Layer 2"><g id="Kids"><g id="disneychannel"><rect class="cls-1" width="283.46" height="283.46"/><g id="logo"><path class="cls-2" d="M61.13,100.69c-7.93.23-14.3,1.21-15.73,2.73-1.25,1.38-2.85,2.49-2.88,4.34s2.07,2,3.34,1.95,2.43-.11,2.41-.88c0-1-1.71-.81-1.71-1.88s6.56-1.48,9.82-1.48c28-.1,60.32,19.35,60.38,35.85C116.8,154.13,100.14,157,91,157a47.85,47.85,0,0,1-9.44-.91c-.15-4.08-.39-12.62-.49-18,1.06,0,2.05,0,2.89,0,6.82,0,15.76,2.4,15.76,4,0,1.36-2.38,2.32-2.38,3.62,0,1,2.21.77,4.08.93.35,0,4.19-2.12,4.19-5.53,0-4.5-5.61-9.8-23.88-9.73h-.8c-.17-5.06-.9-13-3.79-13-2.36,0-3.06,8.78-3.26,13.57-10.25,1.58-19.35,5.74-19.34,9.85,0,3.36,7.34,11.82,19.18,17,.21,3.82.93,6.43,4.31,6.41,2.46,0,3.28-1.8,3.53-3.7a49.31,49.31,0,0,0,12.4,1.54c17.19,0,31-9.25,30.95-21.85,0-16.92-34.09-41.21-63.75-40.39m-4.62,42.07c0-2.94,8.92-4.08,17.19-4.5-.05,4.63-.11,11.24-.1,15.7-10.17-3.59-17.09-9.29-17.09-11.2"/><path class="cls-2" d="M130.41,131c-2.85,0-2.94,11.71-3,16-.19,9.72,1.23,10.85,3.79,10.85,2.28,0,3.06-.28,2.87-8.42C133.68,134,132.65,131,130.41,131"/><path class="cls-2" d="M164.44,133.67c0-2.68-7-2.66-10.91-2.65-2.95,0-17.89.35-17.88,8.67,0,5.61,8.38,4.24,13.94,4.8,4.51.45,10,1.93,10,3.4,0,3.31-12,4.62-14.44,4.62-5.09,0-5.2-1.43-5.2-2.18s.84-2,2.76-2,5.81,2.41,8.53,2.4,4.94-1.2,4.94-2.41c0-2.21-8.95-3.27-11.72-3.27s-7.1,1.2-7.07,5.55c0,2.26,3.71,7.59,14.11,7.55s12.86-5.84,12.84-8.82c0-7.26-6.95-8.11-13-8.62-4.53-.39-9.39-.61-9.37-1.6,0-3.32,22.44-.89,22.44-5.41"/><path class="cls-2" d="M181.13,127.41c-.85,0-1,.9-1,1.84,0,2.88,4,12.79,4,16.61,0,.78-.06,2.18-.68,2.38-.95.27-9.22-14.79-12.64-15s-5.43,14.78-5.41,18.48.67,6.17,3.42,6.16c4.07,0,2-15,3.6-15,1.22,0,7.87,13.74,11.58,13.73,4,0,6.39-5.9,6.39-9.72,0-8.74-5.86-19.43-9.23-19.4"/><path class="cls-2" d="M208.27,150.64c-1.41,0-9.36,1.78-9.89,1.31s.47-5.12,1.46-5.42,7.22-.23,8.21-.29c2.89-.16,2.34-4.1.56-4.24-.91-.09-6.52-.1-6.84-.62s.1-3.13.72-3.4c1.29-.55,9.83-.76,10.47-.92a2.67,2.67,0,0,0,2.09-1.76c.25-.92-3-4.66-6.95-4.24-6.85.75-15.72.71-15.72,3s4.17,3,4.27,3.56a13.13,13.13,0,0,1-.78,3.45c-.25.74-3.22,1-3.42,3,0,.48.74,1.22.61,1.82-.47,1.73-1.9,5.32-1.9,6.8,0,2.3,1.69,7.4,6.33,7.23,7.35-.23,13.93-5.39,14-6.31.15-1.35-1.86-2.94-3.27-2.94"/><path class="cls-2" d="M235,132.83c-4,.22-11.68,8.72-16.17,14.46a3.9,3.9,0,0,1-.44-1.66c0-2.45,4.54-9.7,5.39-11.53s-.11-4.4-1.22-3.49c-2.13,1.75-8.95,9.74-8.93,17.18a13.22,13.22,0,0,0,1.39,5.69c-1.51,5-5.25,16.09-5.13,22.81.07,3.47,3.57,6.88,5.68,6.45.8-.19,1-4.75,2-7.84,1.47-4.45,3.84-12.58,4.65-16.05a11,11,0,0,0,1.18.07c8.33,0,17.59-9,17.57-16.65s-4.57-9.55-6-9.45m-9.62,19c3.36-5.85,8.25-13.58,10-13.55,1.26,0,1.74,1.29,1.74,3.18,0,5.72-6.86,10.45-11.79,10.37"/><path class="cls-2" d="M139.77,112.65"/><path class="cls-2" d="M158,162.27a1.29,1.29,0,0,0-1.33,1.22c0,.56-.07,1.13-.1,1.69-.12,2.51-.3,5-.3,7.52,0,.09,0,.18,0,.42a4.28,4.28,0,0,1-.32-.31c-.16-.22-.31-.45-.48-.67L153,168.88c-.76-1-1.52-2-2.3-2.91a7.79,7.79,0,0,0-1-1,1.42,1.42,0,0,0-2.26.85c0,.16-.06.31-.07.47,0,1-.11,2-.1,3,0,2.44.07,4.88.11,7.32a4.51,4.51,0,0,0,.06.74,1.12,1.12,0,0,0,.79.88,1.24,1.24,0,0,0,1.3-.28,1.47,1.47,0,0,0,.54-1.2c0-1.36-.06-2.71-.09-4.07,0-.93,0-1.85-.06-2.78,0-.1,0-.23.11-.31.22.09.32.3.46.47,1.16,1.48,2.31,3,3.48,4.43q.64.81,1.34,1.57a3.77,3.77,0,0,0,.78.67,1.67,1.67,0,0,0,2.24-.42,2.64,2.64,0,0,0,.58-1.36c.06-.63.11-1.26.14-1.89.07-2,.11-3.93.18-5.9,0-1,.15-2,.22-3a4.27,4.27,0,0,0,0-.68A1.34,1.34,0,0,0,158,162.27Z"/><path class="cls-2" d="M186.89,173.08a6.53,6.53,0,0,0-.89.11c-1.18.19-2.36.41-3.54.57-.82.11-1.65.14-2.48.19a3.36,3.36,0,0,1-.54-.06,6.39,6.39,0,0,1-.33-2.1l1.92-.11a36.47,36.47,0,0,0,4-.41,2.11,2.11,0,0,0,1.1-.52,1,1,0,0,0,.33-1,1.32,1.32,0,0,0-1.36-1c-.27,0-.54.09-.82.11l-4.89.38H179a.29.29,0,0,1-.29-.24,7.78,7.78,0,0,1-.17-.86,2.53,2.53,0,0,1,0-1c.16,0,.32-.05.47-.05,1.5,0,3-.07,4.49-.13.76,0,1.52-.1,2.28-.14a1.83,1.83,0,0,0,1.23-.55,1.06,1.06,0,0,0,.3-1.12,1.43,1.43,0,0,0-1.44-1c-.41,0-.82.08-1.24.1l-5,.17c-.44,0-.88,0-1.31,0a6.87,6.87,0,0,0-1.09.15,1.69,1.69,0,0,0-1.08.78,2.26,2.26,0,0,0-.34,1.48c.19,2.14.36,4.27.71,6.39.11.69.29,1.37.44,2a1.6,1.6,0,0,0,1.37,1.26,7.61,7.61,0,0,0,2.06.07l1.93-.12c.87,0,1.75-.07,2.62-.14a15.4,15.4,0,0,0,1.63-.26,2.76,2.76,0,0,0,1.17-.57,1.29,1.29,0,0,0,.38-1.53A1.2,1.2,0,0,0,186.89,173.08Z"/><path class="cls-2" d="M115.92,172.8a4,4,0,0,0-.41.08c-.57.11-1.13.26-1.71.33-2.32.3-4.67.44-7,.55-.81,0-1.62,0-2.44,0a3.45,3.45,0,0,1-1.85-.52c-.65-.4-.85-.54-.33-1.39a5.07,5.07,0,0,1,1.18-1.27c.91-.72,1.82-1.44,2.76-2.12a13.94,13.94,0,0,1,2.4-1.4,8,8,0,0,1,2.46-.72c.42,0,.78,0,1,.43a.93.93,0,0,0,.71.52,1.57,1.57,0,0,0,1.46-.45,1.26,1.26,0,0,0,.3-1.35,2.45,2.45,0,0,0-1-1.37,3.21,3.21,0,0,0-1.63-.54,8.21,8.21,0,0,0-2.07.21,12.51,12.51,0,0,0-3.8,1.5,29,29,0,0,0-4.82,3.54,10.17,10.17,0,0,0-.92,1,5.21,5.21,0,0,0-.88,1.41,3.11,3.11,0,0,0,.53,3.38,5,5,0,0,0,2.27,1.55,7.58,7.58,0,0,0,2.74.38l2.23-.07v0c1.67-.12,3.33-.22,5-.35.76-.06,1.52-.16,2.28-.26a12.77,12.77,0,0,0,1.43-.27,3.7,3.7,0,0,0,1-.38,1.21,1.21,0,0,0,.54-1.49A1.27,1.27,0,0,0,115.92,172.8Z"/><path class="cls-2" d="M144.68,172.81l-1.31-2.54c0-.13.09-.28.13-.44a1.18,1.18,0,0,0-.58-1.35.72.72,0,0,0-.25-.12.81.81,0,0,1-.6-.51c-.34-.62-.69-1.25-1.06-1.86-.49-.78-1-1.55-1.53-2.3a4.18,4.18,0,0,0-.82-.83,1.47,1.47,0,0,0-1.44-.22,1.4,1.4,0,0,0-.82.69,15.67,15.67,0,0,0-.77,1.62,54.76,54.76,0,0,0-1.67,5.48l-.21.74c-.31.13-.61.24-.9.37a3.4,3.4,0,0,0-.61.31,1.06,1.06,0,0,0-.49,1,1.38,1.38,0,0,0,1,1.37,1.65,1.65,0,0,1,.27.13,4,4,0,0,1-.06.41c-.1.4-.21.8-.32,1.2a2,2,0,0,0,0,1.22,1.2,1.2,0,0,0,.75.75,1.37,1.37,0,0,0,1.63-.82,4.15,4.15,0,0,0,.17-.6c.22-.94.45-1.88.66-2.83a.78.78,0,0,1,.55-.64l4.09-1.47a1.87,1.87,0,0,1,.4,0c.13.23.25.42.36.62l2.09,4.05c.08.16.16.33.25.49a1.22,1.22,0,0,0,2.11,0,1.54,1.54,0,0,0,.13-1.69C145.44,174.34,145.07,173.57,144.68,172.81ZM137,169.94a1.68,1.68,0,0,1,0-.32,10.41,10.41,0,0,1,1-3,9.52,9.52,0,0,1,1.47,2.51A10.14,10.14,0,0,1,137,169.94Z"/><path class="cls-2" d="M129.85,167.52c-.22,0-.45-.07-.7-.1,0-.12,0-.23-.05-.35,0-1-.09-1.91-.14-2.86a3.76,3.76,0,0,0-.11-.83,1.29,1.29,0,0,0-1.52-.91,1.26,1.26,0,0,0-1.22,1.35c0,.12,0,.23,0,.35.06,1.23.13,2.46.18,3.7a3.05,3.05,0,0,1-.05.48c-1.26.25-2.42.73-3.63,1a1.12,1.12,0,0,1-.11-.71c0-1,0-2,0-3.07a4.31,4.31,0,0,0-.1-.83,1.18,1.18,0,0,0-.63-.79,1.46,1.46,0,0,0-2.16,1.25c0,.35.06.7.06,1,0,1.21,0,2.42,0,3.63a3.35,3.35,0,0,1-.06.45c-.46.14-.88.26-1.3.41a1.23,1.23,0,0,0-.82.88,1.42,1.42,0,0,0,1.56,1.7l.51-.1a1.32,1.32,0,0,1,.11.73c0,.56,0,1.12,0,1.68a1.71,1.71,0,0,0,.27.93,1.16,1.16,0,0,0,1.45.5,1.45,1.45,0,0,0,1-1.42c0-.72,0-1.44,0-2.16,0-.28,0-.56,0-.84a.38.38,0,0,1,.31-.41l.27-.09,2.94-.87c.15,0,.31-.06.52-.1,0,.26.06.49.08.71q.11,2.13.21,4.25a2.42,2.42,0,0,0,.18.88,1.18,1.18,0,0,0,1.5.67,1.5,1.5,0,0,0,1.08-1.59c0-.42-.06-.84-.07-1.26-.05-1.37-.08-2.75-.26-4.11a1.24,1.24,0,0,1,0-.24s0-.07.07-.08l.45-.16a2,2,0,0,0,.92-.6A1.33,1.33,0,0,0,129.85,167.52Z"/><path class="cls-2" d="M173.92,173.55c-.11-1.16-.21-2.32-.33-3.48s-.25-2.41-.37-3.61c-.08-.76-.17-1.53-.25-2.29a1.41,1.41,0,0,0-.66-1.09,1.22,1.22,0,0,0-1.85.53,1.7,1.7,0,0,0-.16.95q.11,1,.21,2,.3,2.88.59,5.76c0,.2,0,.41,0,.74-.19-.16-.29-.22-.37-.3-.76-.78-1.52-1.55-2.26-2.34-1-1.09-2-2.19-3.08-3.28q-.57-.6-1.18-1.17a3.59,3.59,0,0,0-.72-.52,1.3,1.3,0,0,0-1.88.87,3.8,3.8,0,0,0-.1.76c0,.56,0,1.12,0,1.68.14,2.51.3,5,.46,7.53a2.73,2.73,0,0,0,.09.55,1.16,1.16,0,0,0,1.17.88,1.42,1.42,0,0,0,1.35-1.32,4.61,4.61,0,0,0,0-.56c-.08-1.07-.15-2.14-.23-3.2-.05-.65-.12-1.3-.18-1.95,0-.22,0-.45,0-.75a2,2,0,0,1,.28.19l.76.81c1.36,1.48,2.73,2.95,4.23,4.29.43.38.88.75,1.34,1.09a4.23,4.23,0,0,0,.84.47,1.78,1.78,0,0,0,2.42-1.58c0-.23,0-.46,0-.7S174,173.87,173.92,173.55Z"/><path class="cls-2" d="M204.19,174.49a1.71,1.71,0,0,0-.92-.41c-.47,0-.94-.11-1.42-.12-1,0-1.94,0-2.91,0a22.66,22.66,0,0,0-4.83.53,1.07,1.07,0,0,1-.7,0,2.77,2.77,0,0,1,0-.32c0-.62-.06-1.25-.07-1.87-.05-2.52-.09-5-.15-7.56a1.47,1.47,0,0,0-1.2-1.54.93.93,0,0,0-.89.2,1.69,1.69,0,0,0-.69,1.43,2.75,2.75,0,0,1,0,.28q.1,4.79.2,9.57a5.88,5.88,0,0,0,0,.69,2.25,2.25,0,0,0,1.8,2,3.26,3.26,0,0,0,1.34,0c.64-.12,1.28-.26,1.93-.36a30.33,30.33,0,0,1,7.16-.17,2.15,2.15,0,0,0,1.17-.24A1.29,1.29,0,0,0,204.19,174.49Z"/><path class="cls-2" d="M151,112.94c-.53-3.34-3.62-5-6.38-5.06a5.17,5.17,0,0,0-5,4.65,3.85,3.85,0,0,1-.49-.36,7.18,7.18,0,0,0-4.14-1.75,7.51,7.51,0,0,0,1.07-3.15c0-3-2.29-4.95-5.65-5.08a5.39,5.39,0,0,0-5.65,5.08c0,1.82,1.67,3.69,3.3,4.6a14.06,14.06,0,0,0-1.84,1.1l-.47.34a11.72,11.72,0,0,0-3.7,4.48,5.28,5.28,0,0,0-.5,2.14,5.9,5.9,0,0,0,1.14,3.57l0,0A6.83,6.83,0,0,0,127,126.2h0l.1,0a13.72,13.72,0,0,0,2.75.38,10,10,0,0,0,3.34-.41,18.12,18.12,0,0,0,8.11-5.13,9.69,9.69,0,0,0,1.58-2.23,5.66,5.66,0,0,0,3.12.51C149.91,118.76,151.39,116.11,151,112.94Zm-24.22,5q-.64.6-1.25,1.25l-.51.58a3.48,3.48,0,0,1-.1-.42,1.19,1.19,0,0,1,0-.44c.1-1.51,2.31-3.78,6.59-4.48A29.17,29.17,0,0,0,126.79,118Zm4.33,4.89a9.64,9.64,0,0,1-2.93-.41l.28-.3a2.39,2.39,0,0,1,.31-.34l.85-.85.31-.3.37-.35.17-.16q.57-.53,1.17-1c2.34-2,5.06-3.87,6.71-3.88a1.87,1.87,0,0,1,2,1.89C140.37,120.25,133.91,122.84,131.12,122.85Z"/></g></g></g></g></svg>