<?xml version="1.0" standalone="yes"?>
<svg xmlns="http://www.w3.org/2000/svg" width="1024" height="1024">
<path style="fill:#41cbff; stroke:none;" d="M0 0L0 1024L1024 1024L1024 0L0 0z"/>
<path style="fill:#347ea9; stroke:none;" d="M212 368L212 369L222 369L212 368z"/>
<path style="fill:#2d2e5e; stroke:none;" d="M174 397C172.851 395.141 170.171 393.152 169.917 390.911C169.057 383.339 184.428 383.246 189 382.911C208.6 381.474 227.54 382.405 247 385.272C296.767 392.603 350.541 413.836 388 448C402.77 461.471 417.409 477.175 422.842 497C436.615 547.26 378.575 563.838 341 568.286C329.758 569.616 318.19 568.865 307 567.271C303.649 566.793 298.14 566.984 295.603 564.401C292.006 560.735 294.168 550.744 293.961 546C293.247 529.698 292 513.336 292 497C310.313 497 328.231 497.357 346 502.427C351.28 503.934 360.774 506.002 362.744 512.015C364.252 516.621 357.229 521.621 356 526C360.389 526.003 365.952 527.336 369.999 525.388C387.524 516.952 379.957 497.468 367 489.468C345.654 476.289 315.152 477 291 477C291 465.357 290.532 453.189 286.971 442C285.96 438.823 283.766 431.259 279.198 431.921C275.152 432.508 274.208 439.897 273.612 443C271.302 455.018 270.034 467.777 270 480C251.894 480.777 230.18 487.867 215 497.699C207.395 502.625 199.902 509.35 203.764 519C215.084 547.286 246.324 554.331 267.852 570.966C274.858 576.38 268.905 588.955 278.044 593.821C288.493 599.384 294.809 588.955 295 580C334.422 588.132 376.11 588.116 412 567.573C439.977 551.558 457.489 520.667 445.575 489C441.668 478.614 435.708 469.621 428.8 461C417.721 447.173 404.236 435.364 390 424.884C341.632 389.277 278.637 364.758 218 368.911C202.986 369.939 183.629 368.983 170 376.417C165.591 378.822 152.458 390.715 160.318 395.972C163.67 398.214 170.134 397 174 397z"/>
<path style="fill:#347ea9; stroke:none;" d="M235 368L235 369L244 369L235 368M201 369L201 370L206 370L201 369M250 369L250 370L255 370L250 369M193 370L193 371L197 371L193 370M259 370L259 371L262 371L259 370M186 371L186 372L189 372L186 371M265 371L265 372L268 372L265 371M181 372L181 373L184 373L181 372M271 372L271 373L274 373L271 372M177.667 373.333L178.333 373.667L177.667 373.333M276.667 373.333L277.333 373.667L276.667 373.333M174 374L175 375L174 374M281.667 374.333L282.333 374.667L281.667 374.333M171 375L172 376L171 375M285.667 375.333L286.333 375.667L285.667 375.333M169 376L170 377L169 376M289.667 376.333L290.333 376.667L289.667 376.333M292.667 377.333L293.333 377.667L292.667 377.333M166 378L167 379L166 378M296.667 378.333L297.333 378.667L296.667 378.333M165 379L166 380L165 379M299.667 379.333L300.333 379.667L299.667 379.333M164 380L165 381L164 380M302.667 380.333L303.333 380.667L302.667 380.333M163 381L164 382L163 381M306 381L307 382L306 381M162 382L163 383L162 382M192 382L192 383L223 383L192 382M309 382L310 383L309 382M161 383L162 384L161 383M181 383L181 384L185 384L181 383M229 383L229 384L235 384L229 383M311.667 383.333L312.333 383.667L311.667 383.333z"/>
<path style="fill:#ffffff; stroke:none;" d="M483 383.439C462.859 386.609 438.423 399.042 434.465 421C432.319 432.901 439.228 438.435 440.86 449C441.635 454.024 442.35 463.714 450.003 462.458C454.16 461.775 456.065 457.187 460.09 456.407C465.308 455.396 471.551 457.358 477 456.83C492.727 455.308 510.215 446.916 520.711 434.996C528.413 426.249 536.76 411.836 530.547 400.015C526.666 392.631 519.072 391.972 512 389.776C501.043 386.374 495.424 381.483 483 383.439z"/>
<path style="fill:#347ea9; stroke:none;" d="M160 384L161 385L160 384M176.667 384.333L177.333 384.667L176.667 384.333M239 384L239 385L242 385L239 384M314.667 384.333L315.333 384.667L314.667 384.333M173 385L174 386L173 385M246 385L246 386L249 386L246 385M317 385L318 386L317 385M159 386L160 387L159 386M171 386L172 387L171 386M252 386L252 387L255 387L252 386M319.667 386.333L320.333 386.667L319.667 386.333M257 387L257 388L260 388L257 387M322 387L323 388L322 387M158 388L159 389L158 388M262 388L262 389L265 389L262 388M324.667 388.333L325.333 388.667L324.667 388.333M267.667 389.333L268.333 389.667L267.667 389.333M327 389L328 390L327 389M271.667 390.333L272.333 390.667L271.667 390.333M329 390L330 391L329 390M275.667 391.333L276.333 391.667L275.667 391.333M331.667 391.333L332.333 391.667L331.667 391.333M157.333 392.667L157.667 393.333L157.333 392.667M169 392L170 393L169 392M279.667 392.333L280.333 392.667L279.667 392.333M334 392L335 393L334 392M170 393L171 394L170 393M282.667 393.333L283.333 393.667L282.667 393.333M336 393L337 394L336 393M172 394L173 395L172 394M286 394L287 395L286 394M338 394L339 395L338 394M158 395L159 396L158 395M174.333 395.667L174.667 396.333L174.333 395.667M289.667 395.333L290.333 395.667L289.667 395.333M340 395L341 396L340 395M159 396L160 397L159 396M292.667 396.333L293.333 396.667L292.667 396.333M342 396L343 397L342 396M162 397L162 398L173 398L162 397M295.667 397.333L296.333 397.667L295.667 397.333M344 397L345 398L344 397M298.667 398.333L299.333 398.667L298.667 398.333M346 398L347 399L346 398M301.667 399.333L302.333 399.667L301.667 399.333M348 399L349 400L348 399M304 400L305 401L304 400M350 400L351 401L350 400z"/>
<path style="fill:#41cbff; stroke:none;" d="M449 429L450 429C457.056 418.543 464.858 407.441 476 401C462.809 395.622 442.948 416.349 449 429z"/>
<path style="fill:#347ea9; stroke:none;" d="M307 401L308 402L307 401M352 401L353 402L352 401M309.667 402.333L310.333 402.667L309.667 402.333M354 402L355 403L354 402M312 403L313 404L312 403M356 403L357 404L356 403M314.667 404.333L315.333 404.667L314.667 404.333M358 404L359 405L358 404M317 405L318 406L317 405M359 405L360 406L359 405z"/>
<path style="fill:#41cbff; stroke:none;" d="M466 439C481.194 439 497.909 437.121 509.96 426.671C514.25 422.951 520.335 415.197 516.82 409.214C513.327 403.268 504.42 405.002 499 406.49C485.377 410.23 469.901 425.49 466 439z"/>
<path style="fill:#347ea9; stroke:none;" d="M319.667 406.333L320.333 406.667L319.667 406.333M361 406L362 407L361 406M322 407L323 408L322 407M363 407L364 408L363 407M324 408L325 409L324 408M326 409L327 410L326 409M366 409L367 410L366 409M328.667 410.333L329.333 410.667L328.667 410.333M368 410L369 411L368 410M331 411L332 412L331 411M333 412L334 413L333 412M371 412L372 413L371 412M335 413L336 414L335 413M373 413L374 414L373 413M337 414L338 415L337 414M374 414L375 415L374 414M339 415L340 416L339 415M376 415L377 416L376 415M341 416L342 417L341 416M377 416L378 417L377 416M343 417L344 418L343 417M379 417L380 418L379 417M345 418L346 419L345 418M380 418L381 419L380 418M346 419L347 420L346 419M382 419L383 420L382 419M348 420L349 421L348 420M383 420L384 421L383 420M350 421L351 422L350 421M385 421L386 422L385 421M352 422L353 423L352 422M386 422L387 423L386 422M355 424L356 425L355 424M389 424L390 425L389 424M357 425L358 426L357 425M390 425L391 426L390 425M358 426L359 427L358 426M360 427L361 428L360 427M393 427L394 428L393 427M362 428L363 429L362 428M394 428L395 429L394 428M363 429L364 430L363 429M365 430L366 431L365 430M397 430L398 431L397 430M281 431L282 432L281 431M366 431L367 432L366 431M398 431L399 432L398 431M282 432L283 433L282 432M368 432L369 433L368 432M399 432L400 433L399 432M276 433L277 434L276 433M283 433L284 434L283 433M369 433L370 434L369 433M275 435L276 436L275 435M284 435L285 436L284 435M372 435L373 436L372 435M403 435L404 436L403 435M373 436L374 437L373 436M404 436L405 437L404 436M285 437L286 438L285 437M375 437L376 438L375 437M405 437L406 438L405 437M274 438L275 439L274 438M376 438L377 439L376 438M286.333 439.667L286.667 440.333L286.333 439.667M377 439L378 440L377 439M379 440L380 441L379 440M273 441L273 444L274 444L273 441M380 441L381 442L380 441M410 441L411 442L410 441M287.333 442.667L287.667 443.333L287.333 442.667M381 442L382 443L381 442M411 442L412 443L411 442M412 443L413 444L412 443M384 444L385 445L384 444M413 444L414 445L413 444M385 445L386 446L385 445M414 445L415 446L414 445M272 446L272 450L273 450L272 446M288.333 446.667L288.667 447.333L288.333 446.667M386 446L387 447L386 446M415 446L416 447L415 446M387 447L388 448L387 447M416 447L417 448L416 447M417 448L418 449L417 448M418 449L419 450L418 449M419 450L420 451L419 450M289 451L289 454L290 454L289 451M420 451L421 452L420 451M393 452L394 453L393 452M421 452L422 453L421 452M271 453L271 458L272 458L271 453M394 453L395 454L394 453M422 453L423 454L422 453M395 454L396 455L395 454M396 455L397 456L396 455M397 456L398 457L397 456M651.667 456.333L652.333 456.667L651.667 456.333M398 457L399 458L398 457z"/>
<path style="fill:#2d2e5e; stroke:none;" d="M662 532C648.812 522.286 640.924 503.618 630.536 491C627.104 486.831 620.995 478.659 615.015 478.507C606.715 478.296 603.865 494.041 602.375 500C598.253 516.484 592.568 541.46 598.483 557.999C600.728 564.275 609.347 569.208 613.721 561.891C617.612 555.384 617.407 545.351 617.911 538C618.544 528.746 617.453 520.062 620 511C631.61 519.356 638.185 535.764 646.888 547C650.285 551.385 654.646 557.215 660 559.258C673.521 564.418 682.117 546.382 684.331 536C688.466 516.613 680.908 495.035 672.244 478C669.809 473.213 658.206 452.38 650.742 458.043C646.008 461.635 651.294 474.625 652.659 479C657.536 494.63 667.906 515.796 662 532z"/>
<path style="fill:#347ea9; stroke:none;" d="M655 457L656 458L655 457M290 458L290 463L291 463L290 458M399 458L400 459L399 458M426 458L427 459L426 458M649 458L650 459L649 458M657 458L658 459L657 458M427 459L428 460L427 459M658 459L659 460L658 459M428 460L429 461L428 460M659 460L660 461L659 460M660 461L661 462L660 461M661 462L662 463L661 462M403 463L404 464L403 463M430 463L431 464L430 463M662 463L663 464L662 463M270 464L270 472L271 472L270 464M404 464L405 465L404 464M431 464L432 465L431 464M663 464L664 465L663 464M405 465L406 466L405 465M432 465L433 466L432 465M664 465L665 466L664 465M649 466L649 469L650 469L649 466M800 467L799 469L800 467z"/>
<path style="fill:#2d2e5e; stroke:none;" d="M777 655L784.424 625L800 567C828.368 566.997 857.341 547.313 864.622 519C868.116 505.412 864.372 471.063 843 475.394C817.758 480.51 805.568 512.757 787 527C783.85 513.767 793.214 500.269 799.309 489C802.161 483.726 807.309 476.547 804.397 470.167C801.857 464.602 796.014 471.731 794.001 474.015C786.552 482.463 779.871 492.557 775.603 503C771.477 513.099 768.992 523.001 770.174 534C770.752 539.381 774.271 544.615 773.922 550C773.371 558.519 769.041 567.794 766.71 576C762.441 591.025 758.653 606.426 757.17 622C755.724 637.179 760.666 651.575 777 655z"/>
<path style="fill:#347ea9; stroke:none;" d="M803 467L804 468L803 467M407 468L408 469L407 468M434 468L435 469L434 468M666 468L667 469L666 468M804 468L805 469L804 468M408 469L409 470L408 469M667 469L668 470L667 469M745 469L745 470L756 470L745 469M409 470L410 471L409 470M738 470L738 471L741 471L738 470z"/>
<path style="fill:#2d2e5e; stroke:none;" d="M714 544C714.008 540.961 714.031 537.987 714.669 535C719.442 512.642 739.366 529.42 752.606 520.821C756.85 518.064 756.423 510.845 751.786 508.742C745.042 505.683 733.477 507.945 726 507C726.154 488.66 741.229 490.007 756 490C760.869 489.998 768.966 490.906 771.802 485.775C775.632 478.846 763.239 471.781 758 470.532C743.086 466.979 725.059 472.99 710 474.025C706.018 474.298 696.245 474.614 694.662 479.228C691.528 488.362 709.352 487.007 708.275 496.004C707.061 506.157 698.91 505.62 695.222 513.105C693.527 516.546 696.008 520.362 695.439 524C693.247 538.011 685.954 548.339 694.966 561.996C706.157 578.956 732.154 568.202 746 560.691C750.597 558.198 758.758 554.447 760.338 548.985C761.989 543.28 754.608 539.467 750 539.12C738.111 538.224 726.019 543.967 714 544z"/>
<path style="fill:#347ea9; stroke:none;" d="M758 470L759 471L758 470M805 470L805 477L806 477L805 470M436 471L437 472L436 471M548 471L548 472L571 472L548 471M650.333 471.667L650.667 472.333L650.333 471.667M668 471L669 472L668 471M730 471L730 472L734 472L730 471M761 471L762 472L761 471M796 471L797 472L796 471M291 472L291 477L292 477L291 472M410 472L411 473L410 472M468 472L467 474L468 472z"/>
<path style="fill:#2d2e5e; stroke:none;" d="M469.213 473.072C463.539 476.03 463.36 486.549 462.579 492C459.761 511.685 459.218 534.318 462.296 554C463.578 562.195 470.398 571.494 479.856 565.972C485.601 562.618 484 552.539 484 547C484 528.016 483.628 508.791 480.725 490C479.995 485.274 477.505 468.749 469.213 473.072z"/>
<path style="fill:#347ea9; stroke:none;" d="M473 472L474 473L473 472M536 472L536 473L541 473L536 472z"/>
<path style="fill:#2d2e5e; stroke:none;" d="M541 472.424C532.513 473.542 524.217 474.424 516 477.029C503.31 481.05 475.903 503.988 499.004 514.811C514.837 522.229 536.855 517.44 554 520.804C558.845 521.754 577.648 525.119 574.824 532.989C573.081 537.847 566.394 540.333 562 541.945C550.344 546.223 533.44 550.091 521 548.71C516.609 548.223 510.454 547.631 507.608 543.775C503.027 537.571 512.067 532.464 517.424 532.958C529.561 534.078 539.301 542.775 552 539.985C555.521 539.211 562.129 537.633 562.248 533C562.39 527.518 552.885 526.066 549 525.13C536.185 522.043 516.606 518.306 505.015 526.649C492.785 535.452 498.443 550.476 509.001 557.64C524.286 568.013 546.346 569.311 564 565.335C584.729 560.666 604.3 534.118 583.957 516.329C572.1 505.96 553.638 507.224 539 505.83C532.38 505.2 525.493 505.097 519.002 503.532C517.27 503.115 513.296 502.168 513.782 499.623C514.875 493.908 528.673 493.454 533 492.754C549.637 490.06 570.459 493.14 585.995 486.03C591.661 483.437 593.326 477.796 586.981 474.804C579.448 471.252 570.08 472 562 472C555.05 472 547.9 471.516 541 472.424z"/>
<path style="fill:#347ea9; stroke:none;" d="M577 472L577 473L580 473L577 472M669 472L670 473L669 472M721 472L721 473L726 473L721 472M763 472L764 473L763 472M795 472L796 473L795 472M411 473L412 474L411 473M529 473L529 474L532 474L529 473M583.667 473.333L584.333 473.667L583.667 473.333M711 473L711 474L716 474L711 473M764 473L765 474L764 473M794 473L795 474L794 473M438 474L439 475L438 474M524.667 474.333L525.333 474.667L524.667 474.333M586 474L587 475L586 474M670 474L671 475L670 474M703 474L703 475L706 475L703 474M766 474L767 475L766 474M793 474L794 475L793 474M844 474L844 475L847 475L844 474M466 475L467 476L466 475M476 475L477 476L476 475M520.667 475.333L521.333 475.667L520.667 475.333M651 475L652 476L651 475M699.667 475.333L700.333 475.667L699.667 475.333M767 475L768 476L767 475M792 475L793 476L792 475M841 475L842 476L841 475M849 475L850 476L849 475M413 476L414 477L413 476M439 476L440 477L439 476M477 476L478 477L477 476M516.667 476.333L517.333 476.667L516.667 476.333M590 476L591 477L590 476M671 476L672 477L671 476M696 476L697 477L696 476M768 476L769 477L768 476M839 476L840 477L839 476M851 476L852 477L851 476M311 477L311 478L320 478L311 477M465 477L466 478L465 477M513.667 477.333L514.333 477.667L513.667 477.333M694 477L695 478L694 477M837 477L838 478L837 477M853 477L854 478L853 477M326 478L326 479L331 479L326 478M414 478L415 479L414 478M511 478L512 479L511 478M612 478L613 479L612 478M617 478L618 479L617 478M652.333 478.667L652.667 479.333L652.333 478.667M672 478L673 479L672 478M770 478L771 479L770 478M790 478L791 479L790 478M835 478L836 479L835 478M854 478L855 479L854 478M267 479L267 480L270 480L267 479M334 479L334 480L337 480L334 479M415 479L416 480L415 479M441 479L442 480L441 479M478 479L479 480L478 479M508.667 479.333L509.333 479.667L508.667 479.333M618 479L619 480L618 479M693 479L693 482L694 482L693 479M771 479L772 480L771 479M789 479L790 480L789 479M804 479L805 480L804 479M833 479L834 480L833 479M262 480L262 481L265 481L262 480M340.667 480.333L341.333 480.667L340.667 480.333M464 480L465 481L464 480M506 480L507 481L506 480M620 480L621 481L620 480M673 480L674 481L673 480M772 480L773 481L772 480M832 480L833 481L832 480M257.667 481.333L258.333 481.667L257.667 481.333M345.667 481.333L346.333 481.667L345.667 481.333M416 481L417 482L416 481M442 481L443 482L442 481M504 481L505 482L504 481M609 481L610 482L609 481M621 481L622 482L621 481M653.333 481.667L653.667 482.333L653.333 481.667M803 481L804 482L803 481M253.667 482.333L254.333 482.667L253.667 482.333M349.667 482.333L350.333 482.667L349.667 482.333M479.333 482.667L479.667 483.333L479.333 482.667M503 482L504 483L503 482M591 482L592 483L591 482M608 482L609 483L608 482M622 482L623 483L622 482M674 482L675 483L674 482M787 482L788 483L787 482M829 482L830 483L829 482M858 482L859 483L858 482M249.667 483.333L250.333 483.667L249.667 483.333M352.667 483.333L353.333 483.667L352.667 483.333M417 483L418 484L417 483M443 483L444 484L443 483M463 483L463 486L464 486L463 483M501 483L502 484L501 483M590 483L591 484L590 483M623 483L624 484L623 483M694 483L695 484L694 483M773 483L774 484L773 483M786 483L787 484L786 483M802 483L803 484L802 483M828 483L829 484L828 483M859 483L860 484L859 483M246 484L247 485L246 484M355.667 484.333L356.333 484.667L355.667 484.333M500 484L501 485L500 484M589 484L590 485L589 484M607 484L608 485L607 484M624 484L625 485L624 484M675 484L676 485L675 484M695 484L696 485L695 484M827 484L828 485L827 484M242.667 485.333L243.333 485.667L242.667 485.333M358 485L359 486L358 485M418 485L419 486L418 485M444.333 485.667L444.667 486.333L444.333 485.667M587 485L588 486L587 485M625 485L626 486L625 485M654 485L655 486L654 485M696 485L697 486L696 485M772 485L773 486L772 485M785 485L786 486L785 485M801 485L802 486L801 485M239.667 486.333L240.333 486.667L239.667 486.333M361 486L362 487L361 486M480 486L480 489L481 489L480 486M585 486L586 487L585 486M606 486L607 487L606 486M626 486L627 487L626 486M676 486L677 487L676 486M784 486L785 487L784 486M800 486L801 487L800 486M861 486L862 487L861 486M236.667 487.333L237.333 487.667L236.667 487.333M363 487L364 488L363 487M419 487L420 488L419 487M581.667 487.333L582.333 487.667L581.667 487.333M627 487L628 488L627 487M699 487L700 488L699 487M823 487L824 488L823 487M234 488L235 489L234 488M365 488L366 489L365 488M445 488L446 489L445 488M576 488L576 489L579 489L576 488M628 488L629 489L628 488M655.333 488.667L655.667 489.333L655.333 488.667M677.333 488.667L677.667 489.333L677.333 488.667M701.667 488.333L702.333 488.667L701.667 488.333M769 488L770 489L769 488M783 488L784 489L783 488M799 488L800 489L799 488M822 488L823 489L822 488M862 488L863 489L862 488M231 489L232 490L231 489M462 489L462 493L463 493L462 489M495 489L496 490L495 489M568 489L568 490L573 490L568 489M605 489L606 490L605 489M704.667 489.333L705.333 489.667L704.667 489.333M766.667 489.333L767.333 489.667L766.667 489.333M782 489L783 490L782 489M821 489L822 490L821 489M229 490L230 491L229 490M368 490L369 491L368 490M420 490L421 491L420 490M446.333 490.667L446.667 491.333L446.333 490.667M494 490L495 491L494 490M555 490L555 491L562 491L555 490M707 490L708 491L707 490M746 490L746 491L762 491L746 490M798 490L799 491L798 490M820 490L821 491L820 490M845 490L845 491L849 491L845 490M863.333 490.667L863.667 491.333L863.333 490.667M226 491L227 492L226 491M543 491L543 492L548 492L543 491M604.333 491.667L604.667 492.333L604.333 491.667M656.333 491.667L656.667 492.333L656.333 491.667M678 491L679 492L678 491M708 491L708 496L709 496L708 491M732 491L732 492L738 492L732 491M781 491L782 492L781 491M819 491L820 492L819 491M843 491L844 492L843 491z"/>
<path style="fill:#41cbff; stroke:none;" d="M807 545C825.842 545 843.664 537.916 852.622 520C856.101 513.041 859.529 496.965 850.892 492.18C843.828 488.266 837.818 496.218 834.004 501C823.687 513.933 813.401 529.707 807 545z"/>
<path style="fill:#347ea9; stroke:none;" d="M850 491L851 492L850 491M224 492L225 493L224 492M371 492L372 493L371 492M421 492L422 493L421 492M481 492L481 496L482 496L481 492M493 492L494 493L493 492M534 492L534 493L538 493L534 492M631 492L632 493L631 492M797 492L798 493L797 492M818 492L819 493L818 492M852 492L853 493L852 492M222 493L223 494L222 493M372 493L373 494L372 493M447.333 493.667L447.667 494.333L447.333 493.667M528 493L528 494L531 494L528 493M632 493L633 494L632 493M728 493L729 494L728 493M780 493L781 494L780 493M817 493L818 494L817 493M853 493L854 494L853 493M864.333 493.667L864.667 494.333L864.333 493.667M220 494L221 495L220 494M373 494L374 495L373 494M492 494L493 495L492 494M522.667 494.333L523.333 494.667L522.667 494.333M679 494L680 495L679 494M796 494L797 495L796 494M816 494L817 495L816 494M839 494L840 495L839 494M218 495L219 496L218 495M374 495L375 496L374 495M422.333 495.667L422.667 496.333L422.333 495.667M518.667 495.333L519.333 495.667L518.667 495.333M603 495L604 496L603 495M657 495L658 496L657 495M815 495L816 496L815 495M838 495L839 496L838 495M854 495L855 496L854 495M216 496L217 497L216 496M375 496L376 497L375 496M491.333 496.667L491.667 497.333L491.333 496.667M516 496L517 497L516 496M634 496L635 497L634 496M680.333 496.667L680.667 497.333L680.333 496.667M727 496L728 497L727 496M778 496L779 497L778 496M795 496L796 497L795 496M814 496L815 497L814 496M215 497L216 498L215 497M292 497L292 513L293 513C293 508.087 291.436 500.959 296 498L292 497M312 497L312 498L319 498L312 497M376 497L377 498L376 497M448.333 497.667L448.667 498.333L448.333 497.667M514 497L515 498L514 497M635 497L636 498L635 497M813 497L814 498L813 497M855.333 497.667L855.667 498.333L855.333 497.667M213 498L214 499L213 498M266 498L266 499L270 499L266 498M324 498L324 499L327 499L324 498M513 498L514 499L513 498M602.333 498.667L602.667 499.333L602.333 498.667M658 498L659 499L658 498M777 498L778 499L777 498M794 498L795 499L794 498M812 498L813 499L812 498M865.333 498.667L865.667 499.333L865.333 498.667M212 499L213 500L212 499M254 499L254 500L259 500L254 499z"/>
<path style="fill:#41cbff; stroke:none;" d="M270 558L270 499C254.249 499 237.219 500.787 222 505.012C216.807 506.453 208.932 508.446 206.746 514.043C203.837 521.493 213.006 528.396 218 532.331C232.043 543.396 252.044 555.348 270 558z"/>
<path style="fill:#347ea9; stroke:none;" d="M331 499L331 500L334 500L331 499M423.333 499.667L423.667 500.333L423.333 499.667M461 499L461 506L462 506L461 499M707 499L708 500L707 499M726 499L726 502L727 502L726 499M811 499L812 500L811 499M835 499L836 500L835 499M244 500L244 501L249 501L244 500M337.667 500.333L338.333 500.667L337.667 500.333M378 500L379 501L378 500M512 500L513 501L512 500M637 500L638 501L637 500M681 500L682 501L681 500M776 500L777 501L776 500M793 500L794 501L793 500M810 500L811 501L810 500M834 500L835 501L834 500M209 501L210 502L209 501M237 501L237 502L241 502L237 501M341.667 501.333L342.333 501.667L341.667 501.333M482 501L482 507L483 507L482 501M513 501L514 502L513 501M638 501L639 502L638 501M659.333 501.667L659.667 502.333L659.333 501.667M809 501L810 502L809 501M833 501L834 502L833 501M208 502L209 503L208 502M231 502L231 503L234 503L231 502M345.667 502.333L346.333 502.667L345.667 502.333M379 502L380 503L379 502M449 502L449 506L450 506L449 502M514.667 502.333L515.333 502.667L514.667 502.333M601.333 502.667L601.667 503.333L601.333 502.667M706.333 502.667L706.667 503.333L706.333 502.667M775.333 502.667L775.667 503.333L775.333 502.667M792 502L793 503L792 502M207 503L208 504L207 503M226 503L226 504L229 504L226 503M348.667 503.333L349.333 503.667L348.667 503.333M518.667 503.333L519.333 503.667L518.667 503.333M682.333 503.667L682.667 504.333L682.333 503.667M206 504L207 505L206 504M222.667 504.333L223.333 504.667L222.667 504.333M352 504L353 505L352 504M424 504L424 517L425 517L424 504M524 504L524 505L529 505L524 504M640 504L641 505L640 504M791 504L792 505L791 504M831 504L832 505L831 504M205 505L206 506L205 505M219.667 505.333L220.333 505.667L219.667 505.333M355 505L356 506L355 505M380.333 505.667L380.667 506.333L380.333 505.667M536 505L536 506L543 506L536 505M641 505L642 506L641 505M660 505L661 506L660 505M705 505L706 506L705 505M774 505L775 506L774 505M830 505L831 506L830 505M204 506L205 507L204 506M216 506L217 507L216 506M357 506L358 507L357 506M491.333 506.667L491.667 507.333L491.333 506.667M549 506L549 507L555 507L549 506M704 506L705 507L704 506M726 506L727 507L726 506M790 506L791 507L790 506M805 506L806 507L805 506M214 507L215 508L214 507M359 507L360 508L359 507M559 507L559 508L562 508L559 507M600.333 507.667L600.667 508.333L600.333 507.667M642 507L643 508L642 507M683 507L683 510L684 510L683 507M702 507L703 508L702 507M729 507L729 508L738 508L729 507M773.333 507.667L773.667 508.333L773.333 507.667M804 507L805 508L804 507M866 507L866 510L867 510L866 507M203 508L204 509L203 508M212 508L213 509L212 508M360 508L361 509L360 508M565.667 508.333L566.333 508.667L565.667 508.333M643 508L644 509L643 508M661.333 508.667L661.667 509.333L661.333 508.667M699.667 508.333L700.333 508.667L699.667 508.333M752 508L753 509L752 508M789 508L790 509L789 508M803 508L804 509L803 508M828 508L829 509L828 508M210 509L211 510L210 509M492 509L493 510L492 509M570 509L571 510L570 509M698 509L699 510L698 509M802 509L803 510L802 509M202 510L203 511L202 510M573 510L574 511L573 510M696 510L697 511L696 510M754 510L755 511L754 510M772 510L773 511L772 510M788 510L789 511L788 510M801 510L802 511L801 510M363 511L363 515L364 515L363 511M380.333 511.667L380.667 512.333L380.333 511.667M576 511L577 512L576 511M620.667 511.333L621.333 511.667L620.667 511.333M645 511L646 512L645 511M695 511L696 512L695 511M826 511L827 512L826 511M855 511L855 514L856 514L855 511M578 512L579 513L578 512M599 512L599 515L600 515L599 512M619.333 512.667L619.667 513.333L619.333 512.667M622 512L623 513L622 512M662 512L662 515L663 515L662 512M684 512L684 515L685 515L684 512M755 512L756 513L755 512M206 513L207 514L206 513M449 513L449 518L450 518L449 513M496 513L497 514L496 513M580 513L581 514L580 513M623 513L624 514L623 513M694 513L695 514L694 513M771.333 513.667L771.667 514.333L771.333 513.667M787 513L788 514L787 513M483 514L483 523L484 523L483 514M581 514L582 515L581 514M624 514L625 515L624 514M647 514L648 515L647 514M798 514L799 515L798 514M824 514L825 515L824 514M202.333 515.667L202.667 516.333L202.333 515.667M205 515L205 518L206 518L205 515M379 515L380 516L379 515M500 515L501 516L500 515M583 515L584 516L583 515M625 515L626 516L625 515M648 515L649 516L648 515M786.333 515.667L786.667 516.333L786.333 515.667M797 515L798 516L797 515M854.333 515.667L854.667 516.333L854.333 515.667M865.333 515.667L865.667 516.333L865.333 515.667M362 516L363 517L362 516M503 516L504 517L503 516M584 516L585 517L584 516M618 516L618 524L619 524L618 516M796 516L797 517L796 516M823 516L824 517L823 516M361 517L362 518L361 517M378 517L379 518L378 517M507 517L507 518L511 518L507 517M585 517L586 518L585 517M626 517L627 518L626 517M649 517L650 518L649 517M663 517L663 522L664 522L663 517M694 517L695 518L694 517M755.333 517.667L755.667 518.333L755.333 517.667M770.333 517.667L770.667 518.333L770.333 517.667M822 517L823 518L822 517M203.333 518.667L203.667 519.333L203.333 518.667M360 518L361 519L360 518M377 518L378 519L377 518M520 518L520 519L537 519L520 518M586 518L587 519L586 518M627 518L628 519L627 518M650 518L651 519L650 518M853 518L854 519L853 518M543 519L543 520L547 520L543 519M598 519L598 522L599 522L598 519M685 519L685 532L686 532L685 519M695 519L696 520L695 519M754 519L755 520L754 519M821 519L822 520L821 519M864.333 519.667L864.667 520.333L864.333 519.667M206 520L207 521L206 520M423.333 520.667L423.667 521.333L423.333 520.667M550 520L550 521L553 521L550 520M628 520L629 521L628 520M793 520L794 521L793 520M852 520L853 521L852 520M204 521L205 522L204 521M448.333 521.667L448.667 522.333L448.333 521.667M522 521L523 522L522 521M556.667 521.333L557.333 521.667L556.667 521.333M588 521L589 522L588 521M629 521L630 522L629 521M652 521L653 522L652 521M752 521L753 522L752 521M792 521L793 522L792 521M205 522L206 523L205 522M514 522L514 523L517 523L514 522M532 522L532 523L536 523L532 522M560.667 522.333L561.333 522.667L560.667 522.333M723 522L724 523L723 522M729 522L729 523L750 523L729 522M819 522L820 523L819 522M851 522L852 523L851 522M208 523L209 524L208 523M510.667 523.333L511.333 523.667L510.667 523.333M540 523L540 524L543 524L540 523M564 523L565 524L564 523M589 523L590 524L589 523M630 523L631 524L630 523M695.333 523.667L695.667 524.333L695.333 523.667M719 523L720 524L719 523M769 523L769 533L770 533L769 523M850 523L851 524L850 523M863 523L864 524L863 523M206 524L207 525L206 524M209 524L210 525L209 524M355.333 524.667L355.667 525.333L355.333 524.667M371 524L372 525L371 524M422 524L423 525L422 524M508 524L509 525L508 524M546.667 524.333L547.333 524.667L546.667 524.333M567 524L568 525L567 524M631 524L632 525L631 524M654 524L655 525L654 524M718 524L719 525L718 524M786.333 524.667L786.667 525.333L786.333 524.667M790 524L791 525L790 524M818 524L819 525L818 524M207 525L208 526L207 525M210 525L211 526L210 525M370 525L371 526L370 525M447.333 525.667L447.667 526.333L447.333 525.667M506 525L507 526L506 525M550.667 525.333L551.333 525.667L550.667 525.333M569 525L570 526L569 525M590 525L591 526L590 525M655 525L656 526L655 525M789 525L790 526L789 525M849 525L850 526L849 525M862 525L863 526L862 525M211 526L212 527L211 526M358 526L358 527L366 527L358 526M368 526L369 527L368 526M504 526L505 527L504 526M554.667 526.333L555.333 526.667L554.667 526.333M571 526L572 527L571 526M597 526L597 531L598 531L597 526M632 526L633 527L632 526M663 526L663 529L664 529L663 526M694.333 526.667L694.667 527.333L694.333 526.667M717 526L718 527L717 526M787.667 526.333L788.333 526.667L787.667 526.333M848 526L849 527L848 526M208 527L209 528L208 527M212 527L213 528L212 527M421 527L422 528L421 527M503 527L504 528L503 527M557 527L558 528L557 527M573 527L574 528L573 527M633 527L634 528L633 527M816 527L817 528L816 527M847 527L848 528L847 527M861 527L862 528L861 527M209 528L210 529L209 528M213 528L214 529L213 528M293 528L293 542L294 542L293 528M446 528L447 529L446 528M502 528L503 529L502 528M559 528L560 529L559 528M591.333 528.667L591.667 529.333L591.333 528.667M657 528L658 529L657 528M716 528L717 529L716 528M210 529L211 530L210 529M214 529L215 530L214 529M420 529L421 530L420 529M501 529L502 530L501 529M561 529L562 530L561 529M575 529L576 530L575 529M634 529L635 530L634 529M658 529L659 530L658 529M815 529L816 530L815 529M860 529L861 530L860 529M215 530L216 531L215 530M500 530L501 531L500 530M562 530L563 531L562 530M635 530L636 531L635 530M659 530L660 531L659 530M662 530L663 531L662 530M693 530L694 531L693 530M419 531L420 532L419 531M445 531L446 532L445 531M660.667 531.333L661.333 531.667L660.667 531.333M715.333 531.667L715.667 532.333L715.333 531.667M814 531L815 532L814 531M844 531L845 532L844 531M859 531L860 532L859 531M218 532L219 533L218 532M499 532L500 533L499 532M516 532L517 533L516 532M563 532L564 533L563 532M636 532L637 533L636 532M813 532L814 533L813 532M213 533L214 534L213 533M219 533L220 534L219 533M418 533L419 534L418 533M444 533L445 534L444 533M511 533L512 534L511 533M520 533L521 534L520 533M575 533L576 534L575 533M637 533L638 534L637 533M692 533L693 534L692 533M858 533L859 534L858 533M214 534L215 535L214 534M498 534L499 535L498 534M509 534L510 535L509 534M523 534L524 535L523 534M562 534L563 535L562 534M592 534L592 538L593 538L592 534M812 534L813 535L812 534M840 534L841 535L840 534M857 534L858 535L857 534M215 535L216 536L215 535M222 535L223 536L222 535M443 535L444 536L443 535M484 535L484 556L485 556L484 535M508 535L509 536L508 535M526 535L527 536L526 535M638 535L639 536L638 535M684.333 535.667L684.667 536.333L684.333 535.667M714 535L714 538L715 538L714 535M839 535L840 536L839 535M216 536L217 537L216 536M223 536L224 537L223 536M416 536L417 537L416 536M507 536L508 537L507 536M528.667 536.333L529.333 536.667L528.667 536.333M639 536L640 537L639 536M691.333 536.667L691.667 537.333L691.333 536.667M770.333 536.667L770.667 537.333L770.333 536.667M811 536L812 537L811 536M856 536L857 537L856 536M217 537L218 538L217 537M225 537L226 538L225 537M415 537L416 538L415 537M442 537L443 538L442 537M497 537L497 544L498 544L497 537M506 537L507 538L506 537M531.667 537.333L532.333 537.667L531.667 537.333M559 537L560 538L559 537M571 537L572 538L571 537M596 537L596 550L597 550L596 537M836 537L837 538L836 537M855 537L856 538L855 537M218 538L219 539L218 538M226 538L227 539L226 538M534 538L535 539L534 538M557 538L558 539L557 538M640 538L641 539L640 538M748 538L748 539L752 539L748 538M219 539L220 540L219 539M228 539L229 540L228 539M441 539L442 540L441 539M537.667 539.333L538.333 539.667L537.667 539.333M554.667 539.333L555.333 539.667L554.667 539.333M568 539L569 540L568 539M641 539L642 540L641 539M683 539L684 540L683 539M742 539L742 540L745 540L742 539M753.667 539.333L754.333 539.667L753.667 539.333M809 539L810 540L809 539M833 539L834 540L833 539M220 540L221 541L220 540M413 540L414 541L413 540M541.667 540.333L542.333 540.667L541.667 540.333M549 540L549 541L552 541L549 540M565 540L566 541L565 540M690 540L691 541L690 540M737.667 540.333L738.333 540.667L737.667 540.333M755 540L756 541L755 540M771 540L772 541L771 540M831 540L832 541L831 540M853 540L854 541L853 540M221 541L222 542L221 541M231 541L232 542L231 541M412 541L413 542L412 541M562.667 541.333L563.333 541.667L562.667 541.333M591.333 541.667L591.667 542.333L591.333 541.667M617 541L617 548L618 548L617 541M731 541L731 542L734 542L731 541M757 541L758 542L757 541M808 541L809 542L808 541M829 541L830 542L829 541M852 541L853 542L852 541M233 542L234 543L233 542M411 542L412 543L411 542M439 542L440 543L439 542M559.667 542.333L560.333 542.667L559.667 542.333M643 542L644 543L643 542M682 542L683 543L682 542M726 542L726 543L729 543L726 542M758 542L759 543L758 542M827 542L828 543L827 542M851 542L852 543L851 542M235 543L236 544L235 543M410 543L411 544L410 543M506 543L507 544L506 543M556.667 543.333L557.333 543.667L556.667 543.333M644 543L645 544L644 543M714 543L715 544L714 543M720 543L720 544L723 544L720 543M759 543L760 544L759 543M772 543L773 544L772 543M807 543L808 544L807 543M824 543L825 544L824 543M225 544L226 545L225 544M236 544L237 545L236 544M409 544L410 545L409 544M507 544L508 545L507 544M551 544L551 545L554 545L551 544M590.333 544.667L590.667 545.333L590.333 544.667M681.333 544.667L681.667 545.333L681.333 544.667M689 544L689 548L690 548L689 544M820.667 544.333L821.333 544.667L820.667 544.333M226 545L227 546L226 545M238 545L239 546L238 545M408 545L409 546L408 545M437 545L438 546L437 545M498 545L499 546L498 545M508 545L509 546L508 545M546 545L546 546L549 546L546 545M645 545L646 546L645 545M773 545L774 546L773 545M808 545L808 546L818 546L808 545M227 546L228 547L227 546M240 546L241 547L240 546M436 546L437 547L436 546M510 546L511 547L510 546M540 546L540 547L543 547L540 546M646 546L647 547L646 546M242 547L243 548L242 547M405 547L406 548L405 547M461 547L461 552L462 552L461 547M499 547L500 548L499 547M513.667 547.333L514.333 547.667L513.667 547.333M533 547L533 548L537 548L533 547M589 547L590 548L589 547M647 547L648 548L647 547M680 547L681 548L680 547M761.333 547.667L761.667 548.333L761.333 547.667M230 548L231 549L230 548M244 548L245 549L244 548M404 548L405 549L404 548M519 548L519 549L528 549L519 548M774.333 548.667L774.667 549.333L774.333 548.667M231 549L232 550L231 549M246 549L247 550L246 549M403 549L404 550L403 549M500 549L501 550L500 549M588 549L589 550L588 549M679 549L680 550L679 549M232 550L233 551L232 550M248 550L249 551L248 550M401 550L402 551L401 550M433 550L434 551L433 550M501 550L502 551L501 550M587 550L588 551L587 550M678 550L679 551L678 550M843 550L844 551L843 550M234 551L235 552L234 551M250 551L251 552L250 551M400 551L401 552L400 551M432 551L433 552L432 551M650 551L651 552L650 551M690.333 551.667L690.667 552.333L690.333 551.667M759 551L760 552L759 551M842 551L843 552L842 551M235 552L236 553L235 552M253 552L254 553L253 552M398 552L399 553L398 552M431 552L432 553L431 552M616 552L616 555L617 555L616 552M651 552L652 553L651 552M677 552L678 553L677 552M773 552L774 553L773 552M841 552L842 553L841 552M255 553L256 554L255 553M396 553L397 554L396 553M430 553L431 554L430 553M585 553L586 554L585 553M652 553L653 554L652 553M676 553L677 554L676 553M238 554L239 555L238 554M257.667 554.333L258.333 554.667L257.667 554.333M394 554L395 555L394 554M429 554L430 555L429 554M584 554L585 555L584 554M597.333 554.667L597.667 555.333L597.333 554.667M653 554L654 555L653 554M675 554L676 555L675 554M755 554L756 555L755 554M838 554L839 555L838 554M260 555L261 556L260 555M392 555L393 556L392 555M428 555L429 556L428 555M462.333 555.667L462.667 556.333L462.333 555.667M583 555L584 556L583 555M654 555L655 556L654 555M674 555L675 556L674 555M691 555L692 556L691 555M754 555L755 556L754 555M772.333 555.667L772.667 556.333L772.333 555.667M837 555L838 556L837 555M241 556L242 557L241 556M263 556L264 557L263 556M390 556L391 557L390 556M427 556L428 557L427 556M507 556L508 557L507 556M582 556L583 557L582 556M655 556L656 557L655 556M673 556L674 557L673 556M243 557L244 558L243 557M265.667 557.333L266.333 557.667L265.667 557.333M294 557L294 565L295 565L294 557M388 557L389 558L388 557M426 557L427 558L426 557M508 557L509 558L508 557M615.333 557.667L615.667 558.333L615.333 557.667M656 557L657 558L656 557M672 557L673 558L672 557M692 557L693 558L692 557M751 557L752 558L751 557M834 557L835 558L834 557M244 558L245 559L244 558M269 558L270 559L269 558M385.667 558.333L386.333 558.667L385.667 558.333M510 558L511 559L510 558M579 558L580 559L579 558M598 558L599 559L598 558M749 558L750 559L749 558M771.333 558.667L771.667 559.333L771.333 558.667M832 558L833 559L832 558M246 559L247 560L246 559M383 559L384 560L383 559M423 559L424 560L423 559M463 559L464 560L463 559M511 559L512 560L511 559M578 559L579 560L578 559M659 559L660 560L659 559M669 559L670 560L669 559M693 559L694 560L693 559M748 559L749 560L748 559M831 559L832 560L831 559M380.667 560.333L381.333 560.667L380.667 560.333M422 560L423 561L422 560M483.333 560.667L483.667 561.333L483.333 560.667M513 560L514 561L513 560M576 560L577 561L576 560M614.333 560.667L614.667 561.333L614.333 560.667M661 560L661 561L667 561L661 560M746 560L747 561L746 560M829 560L830 561L829 560M249 561L250 562L249 561M377.667 561.333L378.333 561.667L377.667 561.333M421 561L422 562L421 561M515 561L516 562L515 561M574 561L575 562L574 561M694 561L695 562L694 561M744 561L745 562L744 561M827 561L828 562L827 561M251 562L252 563L251 562M374 562L375 563L374 562M464 562L465 563L464 562M517 562L518 563L517 562M572 562L573 563L572 562M600 562L601 563L600 562M742 562L743 563L742 562M770 562L771 563L770 562M824.667 562.333L825.333 562.667L824.667 562.333M253 563L254 564L253 563M370.667 563.333L371.333 563.667L370.667 563.333M418 563L419 564L418 563M465 563L466 564L465 563M520 563L521 564L520 563M570 563L571 564L570 563M601 563L602 564L601 563M740 563L741 564L740 563M822 563L823 564L822 563M255 564L256 565L255 564M366.667 564.333L367.333 564.667L366.667 564.333M482 564L483 565L482 564M523 564L524 565L523 564M567 564L568 565L567 564M602 564L603 565L602 564M612 564L613 565L612 564M696 564L697 565L696 564M738 564L739 565L738 564M819 564L820 565L819 564M257 565L258 566L257 565M295 565L295 566L298 566L295 565M361.667 565.333L362.333 565.667L361.667 565.333M415 565L416 566L415 565M481 565L482 566L481 565M527.667 565.333L528.333 565.667L527.667 565.333M563.667 565.333L564.333 565.667L563.667 565.333M604.667 565.333L605.333 565.667L604.667 565.333M610 565L611 566L610 565M697 565L698 566L697 565M736 565L737 566L736 565M769.333 565.667L769.667 566.333L769.333 565.667M815.667 565.333L816.333 565.667L815.667 565.333M259 566L260 567L259 566M301 566L301 567L304 567L301 566M355 566L355 567L358 567L355 566M413 566L414 567L413 566M468 566L469 567L468 566M480 566L481 567L480 566M532 566L532 567L535 567L532 566M557 566L557 567L560 567L557 566M698 566L699 567L698 566M733 566L734 567L733 566M810 566L810 567L813 567L810 566M261 567L262 568L261 567M308 567L308 568L313 568L308 567M347 567L347 568L351 568L347 567M412 567L413 568L412 567M471 567L471 568L479 568L471 567M540 567L540 568L551 568L540 567M730.667 567.333L731.333 567.667L730.667 567.333M800 567L801 568L800 567M803.667 567.333L804.333 567.667L803.667 567.333M263 568L264 569L263 568M320 568L320 569L340 569L320 568M410 568L411 569L410 568M701 568L702 569L701 568M727 568L728 569L727 568M265 569L266 570L265 569M408 569L409 570L408 569M703 569L704 570L703 569M723.667 569.333L724.333 569.667L723.667 569.333M768 569L769 570L768 569M267 570L268 571L267 570M406 570L407 571L406 570M705.667 570.333L706.333 570.667L705.667 570.333M716 570L716 571L720 571L716 570M799.333 570.667L799.667 571.333L799.333 570.667M269 571L270 572L269 571M404 571L405 572L404 571M270 572L270 575L271 575L270 572M402 572L403 573L402 572M767.333 572.667L767.667 573.333L767.333 572.667M400 573L401 574L400 573M398 574L399 575L398 574M798.333 574.667L798.667 575.333L798.333 574.667M395.667 575.333L396.333 575.667L395.667 575.333M393 576L394 577L393 576M766 576L767 577L766 576M390 577L391 578L390 577M387 578L388 579L387 578M797.333 578.667L797.667 579.333L797.333 578.667M384 579L385 580L384 579M765.333 579.667L765.667 580.333L765.333 579.667M295 580L295 581L298 581L295 580M380.667 580.333L381.333 580.667L380.667 580.333M271 581L271 584L272 584L271 581M300.667 581.333L301.333 581.667L300.667 581.333M376.667 581.333L377.333 581.667L376.667 581.333z"/>
<path style="fill:#ffffff; stroke:none;" d="M567 619C560.845 611.932 555.519 604.207 549.536 597.001C547.279 594.281 544.036 590.086 540.019 590.582C533.521 591.383 535 600.469 535 605C535 613.789 532.099 628.8 535.742 636.852C537.514 640.769 543.368 640.81 545.103 636.852C546.85 632.864 545.021 627.239 545.001 623L545 610C550.518 616.377 559.699 634.921 569.014 635.377C573.658 635.605 576.256 631.002 576.811 627C578.23 616.77 581.384 594.658 577.397 585.11C572.883 574.3 568.088 589.112 567.576 593C567.134 596.355 567.001 599.616 567 603L567 619z"/>
<path style="fill:#347ea9; stroke:none;" d="M305.667 582.333L306.333 582.667L305.667 582.333M371 582L371 583L374 583L371 582z"/>
<path style="fill:#a3dfff; stroke:none;" d="M576 582L577 583L576 582z"/>
<path style="fill:#347ea9; stroke:none;" d="M796.333 582.667L796.667 583.333L796.333 582.667M310 583L310 584L314 584L310 583M366 583L366 584L369 584L366 583M764.333 583.667L764.667 584.333L764.333 583.667M317 584L317 585L322 585L317 584M358 584L358 585L362 585L358 584z"/>
<path style="fill:#ffffff; stroke:none;" d="M447 609C447 604.187 448.713 595.221 445.397 591.319C442.655 588.093 438.254 589.447 436.742 593.059C434.656 598.041 435.513 606.968 437 612C428.522 614.057 426.665 624.314 437 623C437 626.415 438.996 644.411 445.821 634.566C448.661 630.469 445.158 624.359 448.603 620.513C451.271 617.535 457.273 616.854 461 616L461.001 626C461.021 630.253 465.054 645.785 470.972 635.851C474.494 629.939 469.791 622.229 471.321 616.043C472.253 612.273 477.261 610.373 476.458 606.093C475.838 602.793 472.773 602.316 470 602C470 598.346 469.371 576.476 460.742 586.438C456.669 591.14 461.646 597.644 459.396 602.775C457.599 606.873 450.701 607.407 447 609M484 626C482.344 630.421 482.24 644.444 490.57 637.396C494.317 634.225 494.802 626.55 495 622C499.403 621.242 507.381 616.17 511.61 618.212C516.872 620.754 520.262 640.948 528.682 635.802C533.984 632.561 528.836 624.575 526.861 621C521.587 611.456 517.689 603.218 511.656 594C509.232 590.297 506.138 584.296 501.003 584.296C490.482 584.296 490.437 605.327 486.697 611.892C484.87 615.099 480.241 616.182 479.542 620.039C478.926 623.443 481.287 624.962 484 626M620 619L607 606C604.344 603.344 601.741 600.614 599 598.044C580.522 580.722 583.532 624.547 587.742 633.852C589.495 637.726 595.542 637.869 597.243 633.852C598.68 630.458 597.063 625.593 597.003 622C596.941 618.265 596.467 614.696 596 611C602.04 617.04 616.738 637.169 626.941 633.381C631.268 631.775 631.071 626.829 630.985 623C630.778 613.778 631.287 595.123 626.682 587.148C621.488 578.152 616.747 589.794 617.424 595C617.814 597.996 618.026 601.006 618.424 604C619.084 608.96 619.606 614.013 620 619M699 624C699 618.338 699.124 612.66 698.985 607C698.903 603.636 698.187 600.356 698.039 597C697.886 593.502 693.708 575.928 688.603 587.228C684.749 595.762 687.947 612.875 688.83 622C689.176 625.573 688.557 629.629 691.434 632.347C698.408 638.938 716.212 632.255 725 632.455C728.773 632.541 733.289 633.98 736.768 631.821C747.041 625.445 730.018 622.002 726 622C722.677 621.999 719.312 621.855 716 622.17C710.332 622.709 704.69 623.756 699 624z"/>
<path style="fill:#347ea9; stroke:none;" d="M328 585L328 586L352 586L328 585M272.333 586.667L272.667 587.333L272.333 586.667M294.333 586.667L294.667 587.333L294.333 586.667M795 586L796 587L795 586z"/>
<path style="fill:#a3dfff; stroke:none;" d="M663 587L664 588L663 587z"/>
<path style="fill:#ffffff; stroke:none;" d="M650 623L649 616C652.686 615.709 656.293 615.088 660 615C663.406 614.919 682.02 611.312 672.681 605.028C665.468 600.174 649.016 611.642 647 599C654.995 598.369 664.216 599.248 671.995 597.517C675.465 596.745 678.944 594.18 677.377 590.147C675.967 586.516 671.174 586.907 668 587.039C660.62 587.347 639.973 585.016 636.743 593.044C635.044 597.267 636.727 603.582 637.169 608C637.829 614.595 637.534 628.126 644.109 631.821C650.515 635.421 668.169 633.146 674.995 631.057C678.623 629.947 683.14 625.658 679.971 621.603C675.877 616.365 656.086 622.95 650 623z"/>
<path style="fill:#347ea9; stroke:none;" d="M763.333 587.667L763.667 588.333L763.333 587.667M273 589L274 590L273 589M293 589L294 590L293 589z"/>
<path style="fill:#ffffff; stroke:none;" d="M408 599C412.98 607.517 422.06 597.754 414.772 591.514C410.398 587.769 403.098 588.78 398 590.159C385.946 593.42 365.253 605.486 363.215 619C359.775 641.8 396.463 635.093 409 634.086C414.16 633.671 424.988 634.275 427.777 628.857C430.664 623.247 424.112 621.463 420 622.04C408.485 623.655 357.222 630.954 384 610.503C386.86 608.319 389.903 606.285 393 604.454C397.714 601.666 402.669 600.103 408 599z"/>
<path style="fill:#347ea9; stroke:none;" d="M794.333 589.667L794.667 590.333L794.333 589.667M292 591L293 592L292 591M762.333 591.667L762.667 592.333L762.333 591.667M275 592L276 593L275 592M291 592L292 593L291 592M276 593L277 594L276 593M290 593L291 594L290 593M793.333 593.667L793.667 594.333L793.333 593.667M278 594L279 595L278 594M288 594L289 595L288 594M281 595L281 596L286 596L281 595M761.333 595.667L761.667 596.333L761.333 595.667M792 597L793 598L792 597M760.333 599.667L760.667 600.333L760.333 599.667z"/>
<path style="fill:#41cbff; stroke:none;" d="M501 600L499 610L507 608L503 600L501 600z"/>
<path style="fill:#347ea9; stroke:none;" d="M791.333 600.667L791.667 601.333L791.333 600.667z"/>
<path style="fill:#a3dfff; stroke:none;" d="M618 604L619 605L618 604z"/>
<path style="fill:#347ea9; stroke:none;" d="M759.333 604.667L759.667 605.333L759.333 604.667M790 604L791 605L790 604M789.333 607.667L789.667 608.333L789.333 607.667M758 609L758 612L759 612L758 609z"/>
<path style="fill:#a3dfff; stroke:none;" d="M436 611L437 612L436 611z"/>
<path style="fill:#347ea9; stroke:none;" d="M788.333 611.667L788.667 612.333L788.333 611.667M787.333 614.667L787.667 615.333L787.333 614.667M757 615L757 620L758 620L757 615M786 618L787 619L786 618M785 621L786 622L785 621M784.333 624.667L784.667 625.333L784.333 624.667M756 626L756 633L757 633L756 626M783 628L784 629L783 628M782.333 631.667L782.667 632.333L782.333 631.667z"/>
<path style="fill:#a3dfff; stroke:none;" d="M574 633L575 634L574 633M709 633L710 634L709 633z"/>
<path style="fill:#347ea9; stroke:none;" d="M757.333 636.667L757.667 637.333L757.333 636.667M781.333 636.667L781.667 637.333L781.333 636.667M758 640L759 641L758 640M780 641L780 644L781 644L780 641M759 642L760 643L759 642M760 643L761 644L760 643M761 645L762 646L761 645M762 646L763 647L762 646M779.333 647.667L779.667 648.333L779.333 647.667M767 651L768 652L767 651M778.333 651.667L778.667 652.333L778.333 651.667M768 652L769 653L768 652M770 653L771 654L770 653M773.667 654.333L774.333 654.667L773.667 654.333z"/>
</svg>
