<?xml version="1.0" standalone="yes"?>
<svg xmlns="http://www.w3.org/2000/svg" width="1024" height="1024">
<path style="fill:#41cbff; stroke:none;" d="M0 0L0 1024L1024 1024L1024 0L0 0z"/>
<path style="fill:#322828; stroke:none;" d="M178 407L178 405L169 401C177.772 392.746 198.291 397.203 209 399.084C242.07 404.891 270.593 418.979 293.985 443C316.885 466.515 299.589 490.169 272 496.5C260.97 499.031 249.241 498 238 498C238 490.706 233.227 468.882 238.603 463.607C241 461.256 245.093 462.682 248 462.914C255.878 463.544 279.603 464.771 265 475L265 477C274.804 481.921 297.588 478.216 287.297 463.015C277.746 448.906 255.212 448 240 448C239.69 440.778 239.762 429.779 234.721 424.108C232.705 421.839 228.54 418.644 225.433 420.789C219.762 424.703 220.802 442.651 220 449C209.793 449.807 177.008 455.248 181.518 471C185.723 485.689 205.252 492.99 215.941 501.613C220.406 505.215 219.195 512.936 224.225 515.436C234.26 520.425 235.937 510.679 244.005 510.062C266.312 508.358 286.394 514.662 307 501.301C329.865 486.475 326.21 458.586 310.916 440C286.294 410.078 246.099 390.842 208 386.286C195.568 384.799 173.88 383.452 163.019 390.728C146.773 401.61 167.344 409.53 178 407z"/>
<path style="fill:#ae81a2; stroke:none;" d="M339 398L340 399L339 398z"/>
<path style="fill:#322828; stroke:none;" d="M340 398.465C323.631 401.416 310.343 415.393 316.702 432C317.981 435.339 318.66 439.968 322.133 441.802C325.547 443.603 339.656 441.4 344 440.674C355.534 438.748 376.416 426.249 373.337 412.004C370.933 400.884 349.268 396.793 340 398.465z"/>
<path style="fill:#ae81a2; stroke:none;" d="M353 398L354 399L353 398M266 405L267 406L266 405z"/>
<path style="fill:#41cbff; stroke:none;" d="M334 430C342.666 430 350.939 429.229 357.956 423.471C360.568 421.327 364.356 416.959 361.957 413.357C359.912 410.287 355.445 412.401 353 413.705C345.895 417.495 338.634 423.439 334 430z"/>
<path style="fill:#ae81a2; stroke:none;" d="M362 412L363 413L362 412z"/>
<path style="fill:#41cbff; stroke:none;" d="M330 414L327 418L330 414z"/>
<path style="fill:#ae81a2; stroke:none;" d="M261 416L262 417L261 416M362 418L363 419L362 418M314 425L315 426L314 425M318 437L319 438L318 437z"/>
<path style="fill:#322828; stroke:none;" d="M435 438L443 483L442 483C438.113 474.782 427.563 449.988 416.043 451.451C406.45 452.67 406.059 477.894 406 485L405 485C403.204 465.065 375.047 466.188 360 465L360 464C366.931 462.57 373.888 461.1 381 461.004C384.739 460.953 388.293 460.599 392 460.155C395.197 459.772 409.925 458.777 405.338 452.389C402.567 448.529 395.353 447.606 391 447.171C379.364 446.006 344.331 446.232 346.191 464.996C347.55 478.702 372.189 474.317 381 475.17C386.888 475.74 394.659 476.547 392 484L391 484C384.871 476.982 367.891 474.371 359 476.533C353.428 477.888 347.797 482.815 350.244 488.985C357.148 506.396 402.559 509.914 405 488L406 488C406.003 492.782 411.382 510.556 417.822 499.851C422.238 492.51 420 479.215 420 471C428.143 479.033 430.753 496.143 443 499.886C452.312 502.731 455.177 488.295 455.674 482C456.785 467.962 449.569 442.953 435 438z"/>
<path style="fill:#ae81a2; stroke:none;" d="M434 439L435 440L434 439M319 440L320 441L319 440M320 441L321 442L320 441M577 443L578 444L577 443z"/>
<path style="fill:#322828; stroke:none;" d="M584 474C581.415 478.933 579.137 483.308 579.015 489C578.4 517.905 620.323 522.943 627.1 495C628.305 490.031 627.353 485.813 626 481C629.303 481.786 632.591 482.23 636 481.895C660.522 479.485 645.76 439.311 624.015 453.728C621.678 455.277 619.784 457.475 618.573 460.001C617.058 463.158 617.029 466.58 617 470C610.577 466.384 604.196 465.287 597 467C598.449 463.989 599.036 461.374 598.981 458C598.444 425.248 547.152 453.824 574.015 471.005C577.077 472.964 580.448 473.688 584 474M510 553C513.171 541.721 515.909 530.304 519.011 519C520.078 515.109 520.762 508.531 523.728 505.603C526.73 502.637 534.051 502.689 538 500.957C547.201 496.92 555.178 489.282 559.12 480C563.394 469.937 560.012 445.736 544 450.857C531.956 454.709 523.448 468.374 515 477C517.492 469.682 528.411 456.681 526.523 449.134C525.228 443.96 520.177 446.724 517.755 449.193C512.644 454.403 508.638 461.195 506.066 468C502.542 477.322 506.579 484.966 505.389 494C503.254 510.214 482.059 548.016 510 553z"/>
<path style="fill:#ae81a2; stroke:none;" d="M573 445L574 446L573 445M520 446L521 447L520 446M393 447L394 448L393 447M491 447L491 448L494 448L491 447M479 448L480 449L479 448z"/>
<path style="fill:#322828; stroke:none;" d="M474 490L473 489C477.306 474.297 485.539 484.109 494.681 477.972C504.667 471.269 483.014 469 480 469C482.241 460.517 489.547 461.183 497 460.985C499.943 460.907 506.069 460.765 506.534 456.779C507.076 452.129 500.649 449.186 497 448.39C489.473 446.75 467.395 446.352 461.427 451.853C456.962 455.969 467.273 459.068 467.11 463.1C466.938 467.334 462.088 468.819 460.628 472.325C458.729 476.885 457.246 485.995 457.13 491C456.718 508.86 477.734 507.581 489 502.215C492.438 500.578 498.287 498.13 499.248 493.975C501.783 483.022 478.467 488.9 474 490z"/>
<path style="fill:#ae81a2; stroke:none;" d="M518 448L519 449L518 448z"/>
<path style="fill:#322828; stroke:none;" d="M332.21 450.137C327.537 450.996 327.315 459.422 327 463C326.065 473.628 324.556 485.409 326.62 495.999C327.585 500.952 331.129 505.866 336.941 504.639C341.483 503.68 341.795 497.749 341.961 494C342.447 483.016 341.527 470.863 339.866 460C339.286 456.208 337.582 449.149 332.21 450.137z"/>
<path style="fill:#ae81a2; stroke:none;" d="M463 450L464 451L463 450M544 450L545 451L544 450M329 451L330 452L329 451M356 451L357 452L356 451M629 451L630 452L629 451M354 452L355 453L354 452M643 454L644 455L643 454M599 457L599 460L600 460L599 457M327 458L328 459L327 458M347 458L348 459L347 458M648 461L649 462L648 461z"/>
<path style="fill:#41cbff; stroke:none;" d="M531 488C543.534 486.114 553.801 474.86 550 462C541.57 466.57 533.857 478.973 531 488M220 491L220 463C213.487 463.28 196.411 463.842 192.752 470.225C190.831 473.574 194.867 476.883 197.005 478.96C203.249 485.027 211.078 490.79 220 491z"/>
<path style="fill:#ae81a2; stroke:none;" d="M364 465L365 466L364 465M551 466L551 469L552 469L551 466z"/>
<path style="fill:#41cbff; stroke:none;" d="M597 466L598 467L597 466z"/>
<path style="fill:#ae81a2; stroke:none;" d="M598 466L599 467L598 466M649 466L650 467L649 466M326 467L327 468L326 467M480 468L481 469L480 468M614 468L615 469L614 468M490 469L491 470L490 469M505 469L506 470L505 469M461 470L462 471L461 470M574 471L575 472L574 471M576 472L577 473L576 472M583 475L584 476L583 475M406 477L407 478L406 477M425 478L426 479L425 478M503 478L503 482L504 482L503 478M626 482L627 483L626 482z"/>
<path style="fill:#41cbff; stroke:none;" d="M384 488C380.164 486.375 358.979 479.442 358.752 486.975C358.502 495.248 380.207 489.205 384 488z"/>
<path style="fill:#e53737; stroke:none;" d="M319 488C315.034 493.516 310.23 497.916 310 505L320 505L319 488z"/>
<path style="fill:#ae81a2; stroke:none;" d="M405 488L406 489L405 488M374 490L375 491L374 490M433 491L434 492L433 491M627 493L628 494L627 493M354 494L355 495L354 494M505 494L506 495L505 494M326 495L327 496L326 495M579 496L580 497L579 496M626 497L627 498L626 497M309 499L309 591L310 591L310 527L309 499M459 499L460 500L459 499z"/>
<path style="fill:#e53737; stroke:none;" d="M308 500C290.236 511.715 271.307 511 251 511L251 554C251 563.788 252.038 571.823 246 580L245 580C242.807 577.098 240.138 573.85 237.255 571.589C221.591 559.305 209.713 589.907 204.576 599C201.357 604.697 192.07 615.336 198.152 621.192C222.15 644.299 279.58 644.072 299.012 616C315.204 592.606 309 559.229 309 532C309 522.678 311.607 508.596 308 500z"/>
<path style="fill:#ae81a2; stroke:none;" d="M581 501L582 502L581 501M623 503L624 504L623 503z"/>
<path style="fill:#322828; stroke:none;" d="M310 505C310 546.796 321.609 601.345 284 630L284 631C295.903 626.947 310.211 618.463 314.875 606C317.147 599.928 313.011 590.567 313 584L313 522L320 522L320 505L310 505z"/>
<path style="fill:#ae81a2; stroke:none;" d="M501 507L502 508L501 507M250 510L250 574L251 574L251 530L250 510M608 513L609 514L608 513M529 520L529 521L543 521L529 520M687 521L687 522L713 521C705.737 517.952 694.649 520.033 687 521M843 520L843 521L848 521L848 522L843 523L843 524L867 521L843 520M524 521L524 522L527 522L524 521z"/>
<path style="fill:#e53737; stroke:none;" d="M510 553C494.402 548.496 495.956 536.228 497 523L447 523L447 635L501 635C501 619.051 500.315 602.932 501.039 587C501.291 581.455 503.244 573.816 510.001 573.337C517.028 572.839 519.834 580.309 519.985 586C520.418 602.309 520 618.685 520 635L575 635L575 580C575 566.041 575.642 551.863 569.19 539C562.108 524.882 532.516 511.655 518.51 524.703C512.496 530.305 511.593 545.276 510 553z"/>
<path style="fill:#ae81a2; stroke:none;" d="M545 521L545 522L548 522L545 521M682 523L685 521L682 523z"/>
<path style="fill:#322828; stroke:none;" d="M685.667 521.333L686.333 521.667L685.667 521.333z"/>
<path style="fill:#e53737; stroke:none;" d="M647 543C643.748 557.514 634.891 567.657 635.799 584C636.433 595.398 643.59 603.588 646 614C657.06 621.784 666.274 631.085 680 634.394C717.752 643.497 771.444 628.458 771.996 582C772.069 575.864 771.86 569.882 770 564L774 564L774 524L751 531L751 535C726.667 518.598 693.725 515.917 667 528.489C659.291 532.116 653.828 538.195 647 543z"/>
<path style="fill:#ae81a2; stroke:none;" d="M716 521L716 522L719 522L716 521M834 521L834 522L837 522L834 521z"/>
<path style="fill:#e53737; stroke:none;" d="M828 523L829 537L827 523L775 523L775 635L829 635C829 612.809 820.282 568.189 854 569.015C858.599 569.127 862.673 570.592 867 572L867 521L843 524L843 523L848 522L828 523M313 522C313 548.894 305.55 588.492 320.7 612C343.523 647.413 416.736 646.646 437.099 609C442.871 598.329 442 586.701 442 575L442 523L388 523C388 540.6 388.822 558.422 387.96 576C387.659 582.142 384.327 589.377 377.001 588.677C369.726 587.983 368.077 579.932 368.004 574C367.795 557.006 368 539.996 368 523L313 522z"/>
<path style="fill:#ae81a2; stroke:none;" d="M320 522L320 523L368 523L368 581L369 581C369 562.384 365.686 540.119 370 522L320 522M387 522L387 581L388 581L388 523L442 523L442 594L443 594L443 522L387 522M521.667 522.333L522.333 522.667L521.667 522.333M549.667 522.333L550.333 522.667L549.667 522.333M677 522L677 523L681 524L681 523L677 522z"/>
<path style="fill:#322828; stroke:none;" d="M679 522L679 523L682 523L679 522z"/>
<path style="fill:#ae81a2; stroke:none;" d="M722 522L722 523L725 523L722 522M829.667 522.333L830.333 522.667L829.667 522.333z"/>
<path style="fill:#322828; stroke:none;" d="M369 523L369 565C369 570.67 367.575 578.77 370.318 583.942C373.096 589.182 378.993 588.888 384 588L384 587C376.434 584.397 376.089 577.152 376.004 570C375.821 554.672 376 539.33 376 524L369 523z"/>
<path style="fill:#ae81a2; stroke:none;" d="M373 523L373 524L376 524L373 523z"/>
<path style="fill:#322828; stroke:none;" d="M443 523C443 551.104 447.922 583.725 437 610L438 610C448.816 591.47 446 570.706 446 550C446 541.393 447.448 531.28 445 523L443 523z"/>
<path style="fill:#ae81a2; stroke:none;" d="M445 523L446 561L446 635L447 635L447 552C447 545.414 450.065 527.426 445 523M519 523L520 524L519 523M552 523L553 524L552 523z"/>
<path style="fill:#322828; stroke:none;" d="M577 633L578 633L578 552L633 552L633 523L592 523C587.947 523 579.975 521.509 576.603 524.179C572.258 527.621 575 544.769 575 550L575 602C575 612.231 573.879 623.131 577 633z"/>
<path style="fill:#ae81a2; stroke:none;" d="M673 523L673 524C674.96 524.653 675.554 525 673 525L673 526L677 525L677 524L673 523z"/>
<path style="fill:#322828; stroke:none;" d="M675 523L675 524L678 524L675 523z"/>
<path style="fill:#ae81a2; stroke:none;" d="M726.667 523.333L727.333 523.667L726.667 523.333M772 523L772 524C776.354 529.747 774 541.971 774 549L774 610C774 616.828 776.236 628.409 772 634L772 635C777.766 633.764 775 613.405 775 608L775 523L772 523M827 523L829 537L827 523M376 524L376 577L377 577L377 541L376 524M554.667 524.333L555.333 524.667L554.667 524.333M670 524L671 525L670 524z"/>
<path style="fill:#322828; stroke:none;" d="M679 635L679 634C623.19 620.744 622.245 542.964 675 525C662.015 520.394 637.357 541.183 634.419 553C631.505 564.717 634 579.93 634 592C634 597.066 633.016 603.321 635.303 608C642.677 623.085 663.08 632.854 679 635z"/>
<path style="fill:#ae81a2; stroke:none;" d="M730.667 524.333L731.333 524.667L730.667 524.333M770 524L771 525L770 524M841 524L842 525L841 524M556 525L557 526L556 525M667 525L668 526L667 525M733 525L734 526L733 525M767 525L768 526L767 525M839 525L838 527L839 525M558 526L559 527L558 526M664 526L665 527L664 526M670.667 526.333L671.333 526.667L670.667 526.333M735.667 526.333L736.333 526.667L735.667 526.333M764 526L765 527L764 526M496.333 527.667L496.667 528.333L496.333 527.667M559 527L560 528L559 527M662 527L663 528L662 527M668.667 527.333L669.333 527.667L668.667 527.333M738 527L739 528L738 527M761 527L762 528L761 527M836 527L830 534L836 527M659 528L660 529L659 528M666 528L667 529L666 528M740 528L741 529L740 528M758 528L759 529L758 528M562 529L563 530L562 529M664 529L665 530L664 529M742 529L743 530L742 529M755 529L756 530L755 529M563 530L564 531L563 530M662.667 530.333L663.333 530.667L662.667 530.333M744 530L745 531L744 530M752.667 530.333L753.333 530.667L752.667 530.333M654 531L655 532L654 531M661 531L662 532L661 531M745 531L746 532L745 531M652 532L653 533L652 532M659 532L660 533L659 532M747 532L748 533L747 532M651 533L652 534L651 533M658 533L659 534L658 533M748 533L749 534L748 533M566 534L567 535L566 534M657 534L658 535L657 534M567 535L568 536L567 535M648 535L649 536L648 535M655 535L656 536L655 535M829 535L830 536L829 535M647 536L648 537L647 536M654 536L655 537L654 536M568 537L569 538L568 537M653 537L654 538L653 537M652 538L653 539L652 538M569 539L570 540L569 539M651 539L652 540L651 539M650 540L651 541L650 540M570 541L571 542L570 541M649 541L650 542L649 541M648 542L649 543L648 542M571.333 543.667L571.667 544.333L571.333 543.667M639 544L640 545L639 544M647 544L648 545L647 544M638 545L639 546L638 545M646 545L647 546L646 545M572.333 546.667L572.667 547.333L572.333 546.667M645 546L646 547L645 546M636 548L637 549L636 548M644 548L645 549L644 548M573 549L573 552L574 552L573 549M635 549L636 550L635 549M643 549L644 550L643 549M634 551L635 552L634 551M642 551L643 552L642 551M578 552L578 635L579 635L579 553C596.396 553 617.064 549.968 634 554L619 552L578 552z"/>
<path style="fill:#e53737; stroke:none;" d="M579 553L579 635L633 635L634 574L632.397 554.028L618 553L579 553z"/>
<path style="fill:#ae81a2; stroke:none;" d="M641 553L642 554L641 553M574 554L574 558L575 558L574 554M640.333 555.667L640.667 556.333L640.333 555.667M639.333 557.667L639.667 558.333L639.333 557.667M593 560L593 561L596 561L593 560M617.667 560.333L618.333 560.667L617.667 560.333M638.333 560.667L638.667 561.333L638.333 560.667M591 561L590 563L591 561z"/>
<path style="fill:#fcdd4c; stroke:none;" d="M592.151 562.043C586.888 565.036 591.652 572.783 596.718 569.802C601.971 566.711 597.565 558.965 592.151 562.043z"/>
<path style="fill:#ae81a2; stroke:none;" d="M597 561L598 562L597 561z"/>
<path style="fill:#fcdd4c; stroke:none;" d="M615.319 562.032C610.533 565.142 615.837 572.792 620.566 569.802C625.7 566.556 620.465 558.688 615.319 562.032z"/>
<path style="fill:#ae81a2; stroke:none;" d="M637 563L637 566L638 566L637 563M699 563L699 564L705 568L699 563z"/>
<path style="fill:#322828; stroke:none;" d="M702 563C706.506 573.874 712.133 586.088 697 592C711.528 601.925 724.761 579.995 714.442 568.214C711.283 564.607 706.529 563.613 702 563z"/>
<path style="fill:#ae81a2; stroke:none;" d="M705 563L705 564L708 564L705 563M599 564L600 565L599 564M695 566L698 565L695 566z"/>
<path style="fill:#41cbff; stroke:none;" d="M698.003 564.801C686.339 566.679 685.656 593.491 698.003 591.458C710.381 589.419 710.425 562.801 698.003 564.801z"/>
<path style="fill:#ae81a2; stroke:none;" d="M709.667 564.333L710.333 564.667L709.667 564.333z"/>
<path style="fill:#322828; stroke:none;" d="M770 564C773.616 578.678 772.255 593.758 764.663 607C759.951 615.219 751.119 619.919 751 630L774 634L774 564L770 564z"/>
<path style="fill:#ae81a2; stroke:none;" d="M623 565L624 566L623 565M711 565L712 566L711 565M599.333 566.667L599.667 567.333L599.333 566.667M713 566L714 567L713 566M589 567L590 568L589 567M714 567L715 568L714 567M613 568L614 569L613 568M622 568L623 569L622 568M636 568L636 572L637 572L636 568M235 569L236 570L235 569M614 569L615 570L614 569M691 569L692 570L691 569M705 569L706 570L705 569M715 569L716 570L715 569M845 569L845 570L849 570L845 569M856 569L856 570L860 570L856 569M222 570L222 571L229 571L222 570M596 570L597 571L596 570M620 570L621 571L620 570M716 570L717 571L716 570M842.667 570.333L843.333 570.667L842.667 570.333M861.667 570.333L862.333 570.667L861.667 570.333M220 571L221 572L220 571M237 571L238 572L237 571M690 571L691 572L690 571M706 571L707 572L706 571M840 571L841 572L840 571M864.667 571.333L865.333 571.667L864.667 571.333M219 572L220 573L219 572M221 572L222 573L221 572M238 572L239 573L238 572M717.333 572.667L717.667 573.333L717.333 572.667M838 572L839 573L838 572M218 573L219 574L218 573M507.667 573.333L508.333 573.667L507.667 573.333M512.667 573.333L513.333 573.667L512.667 573.333M689 573L690 574L689 573M837 573L838 574L837 573M222 574L223 575L222 574M239 574L240 575L239 574M505 574L506 575L505 574M515 574L516 575L515 574M707.333 574.667L707.667 575.333L707.333 574.667M718 574L718 578L719 578L718 574M836 574L837 575L836 574M217 575L218 576L217 575M240 575L241 576L240 575M249 575L250 576L249 575M504 575L505 576L504 575M503 576L504 577L503 576M517 576L518 577L517 576M635 576L635 584L636 584L635 576M688 576L688 583L689 583L688 576M834 576L835 577L834 576M216 577L217 578L216 577M243 577L244 578L243 577M248 577L249 578L248 577M518 577L519 578L518 577M833 577L834 578L833 577M226 578L228 580L226 578M244 578L245 579L244 578M502.333 578.667L502.667 579.333L502.333 578.667M832 578L833 579L832 578M215 579L216 580L215 579M245 579L246 580L245 579M718 579L718 584L719 584L718 579M229.667 580.333L230.333 580.667L229.667 580.333M519 580L519 583L520 583L519 580M707 580L708 581L707 580M831 580L832 581L831 580M214 581L215 582L214 581M233 581L233 582L239 582L233 581M213 582L214 583L213 582M369.333 582.667L369.667 583.333L369.333 582.667M501 582L501 635L502 635L502 599L501 582M830.333 582.667L830.667 583.333L830.333 582.667M377 583L378 584L377 583M386 583L387 584L386 583M706 583L707 584L706 583M212 584L213 585L212 584M378 584L379 585L378 584M689.333 584.667L689.667 585.333L689.333 584.667M370 585L371 586L370 585M379 585L380 586L379 585M385 585L386 586L385 585M705 585L706 586L705 585M717 585L718 586L717 585M829 585L829 588L830 588L829 585M211 586L212 587L211 586M371 586L372 587L371 586M381 586L382 587L381 586M384 586L385 587L384 586M372 587L373 588L372 587M636 587L636 592L637 592L636 587M690 587L691 588L690 587M716 587L717 588L716 587M210 588L211 589L210 588M374 588L374 589L377 589L374 588M691 588L692 589L691 588M703 588L704 589L703 588M715.333 588.667L715.667 589.333L715.333 588.667M702 589L703 590L702 589M209 590L210 591L209 590M714 590L715 591L714 590M208 591L209 592L208 591M694 591L695 592L694 591M699 591L700 592L699 591M713 591L714 592L713 591M695.667 592.333L696.333 592.667L695.667 592.333M711 592L712 593L711 592M207 593L208 594L207 593M637 593L637 596L638 596L637 593M697.667 593.333L698.333 593.667L697.667 593.333M709.667 593.333L710.333 593.667L709.667 593.333M699 594L699 595L708 595L699 594M206 595L207 596L206 595M441 596L441 599L442 599L441 596M444 596L445 597L444 596M205 597L206 598L205 597M638.333 597.667L638.667 598.333L638.333 597.667M204.333 598.667L204.667 599.333L204.333 598.667M443 599L444 600L443 599M203 600L204 601L203 600M440 600L440 603L441 603L440 600M639.333 600.667L639.667 601.333L639.333 600.667M442 601L443 602L442 601M202 602L203 603L202 602M640.333 602.667L640.667 603.333L640.333 602.667M316.333 603.667L316.667 604.333L316.333 603.667M439.333 603.667L439.667 604.333L439.333 603.667M441 603L442 604L441 603M201 604L202 605L201 604M305 604L306 605L305 604M641.333 604.667L641.667 605.333L641.333 604.667M440 605L441 606L440 605M633.333 605.667L633.667 606.333L633.333 605.667M200 606L201 607L200 606M304 606L305 607L304 606M317 606L318 607L317 606M438 606L439 607L438 606M642.333 606.667L642.667 607.333L642.333 606.667M199.333 607.667L199.667 608.333L199.333 607.667M439 607L440 608L439 607M303 608L304 609L303 608M313 608L314 609L313 608M318 608L319 609L318 608M437 608L438 609L437 608M635 608L636 609L635 608M643 608L644 609L643 608M198 609L199 610L198 609M302 609L303 610L302 609M438 609L439 610L438 609M319 610L320 611L319 610M436 610L433 615L438 611L436 610M644 610L645 611L644 610M197 611L198 612L197 611M301 611L302 612L301 611M311 611L312 612L311 611M320 611L321 612L320 611z"/>
<path style="fill:#322828; stroke:none;" d="M436 611L437 612L436 611z"/>
<path style="fill:#ae81a2; stroke:none;" d="M637 611L638 612L637 611M645 611L646 612L645 611M638 612L639 613L638 612M646 612L647 613L646 612M196 613L197 614L196 613M321 613L322 614L321 613M309 614L310 615L309 614M322 614L323 615L322 614z"/>
<path style="fill:#322828; stroke:none;" d="M434 614L435 615L434 614z"/>
<path style="fill:#ae81a2; stroke:none;" d="M647 614L648 615L647 614M195 615L196 616L195 615M308 615L309 616L308 615z"/>
<path style="fill:#322828; stroke:none;" d="M433 615L434 616L433 615z"/>
<path style="fill:#ae81a2; stroke:none;" d="M648 615L649 616L648 615M194.333 616.667L194.667 617.333L194.333 616.667M307 616L308 617L307 616M427 622L434 616L427 622M649 616L650 617L649 616M306 617L307 618L306 617M324 617L325 618L324 617M650 617L651 618L650 617M305 618L306 619L305 618M325 618L326 619L325 618M651 618L652 619L651 618M304 619L305 620L304 619M326 619L327 620L326 619M652 619L653 620L652 619M197 620L198 621L197 620M303 620L304 621L303 620M327 620L328 621L327 620M646 620L647 621L646 620M653 620L654 621L653 620M198 621L199 622L198 621M328 621L329 622L328 621M647 621L648 622L647 621M654 621L655 622L654 621M199 622L200 623L199 622M300 622L301 623L300 622M426 622L427 623L426 622M648 622L649 623L648 622M656 622L657 623L656 622M299 623L300 624L299 623M331 623L332 624L331 623M424.667 623.333L425.333 623.667L424.667 623.333M650 623L651 624L650 623M657 623L658 624L657 623M749 623L750 624L749 623M202 624L203 625L202 624M332 624L333 625L332 624M423 624L424 625L423 624M651 624L652 625L651 624M658 624L659 625L658 624M748 624L749 625L748 624M203 625L204 626L203 625M296 625L297 626L296 625M333 625L334 626L333 625M422 625L423 626L422 625M653 625L654 626L653 625M660 625L661 626L660 625M746 625L747 626L746 625M205 626L206 627L205 626M294 626L295 627L294 626M335 626L336 627L335 626M420 626L421 627L420 626M575 626L575 632L576 632L575 626M661.667 626.333L662.333 626.667L661.667 626.333M745 626L746 627L745 626M206.667 627.333L207.333 627.667L206.667 627.333M292 627L293 628L292 627M337 627L338 628L337 627M418 627L419 628L418 627M656 627L657 628L656 627M663 627L664 628L663 627M743 627L744 628L743 627M208 628L209 629L208 628M290 628L291 629L290 628M338 628L339 629L338 628M417 628L418 629L417 628M658 628L659 629L658 628M665 628L666 629L665 628M741 628L742 629L741 628M210 629L211 630L210 629M288 629L289 630L288 629M340.667 629.333L341.333 629.667L340.667 629.333M415 629L416 630L415 629M660 629L661 630L660 629M667 629L668 630L667 629M739 629L740 630L739 629M212.667 630.333L213.333 630.667L212.667 630.333M285 630L286 631L285 630M342.667 630.333L343.333 630.667L342.667 630.333M412.667 630.333L413.333 630.667L412.667 630.333M669 630L670 631L669 630M737 630L738 631L737 630M753.667 630.333L754.333 630.667L753.667 630.333M215 631L216 632L215 631M282 631L283 632L282 631M345 631L346 632L345 631M410 631L411 632L410 631M665 631L666 632L665 631M671.667 631.333L672.333 631.667L671.667 631.333M735 631L736 632L735 631M758 631L759 632L758 631M217.667 632.333L218.333 632.667L217.667 632.333M278.667 632.333L279.333 632.667L278.667 632.333M347.667 632.333L348.333 632.667L347.667 632.333M407.667 632.333L408.333 632.667L407.667 632.333M668 632L669 633L668 632M673.667 632.333L674.333 632.667L673.667 632.333M732 632L733 633L732 632M763 632L764 633L763 632M220.667 633.333L221.333 633.667L220.667 633.333M275.667 633.333L276.333 633.667L275.667 633.333M350.667 633.333L351.333 633.667L350.667 633.333M404.667 633.333L405.333 633.667L404.667 633.333M671 633L672 634L671 633M676.667 633.333L677.333 633.667L676.667 633.333M729.667 633.333L730.333 633.667L729.667 633.333M768 633L769 634L768 633M224 634L224 635L227 635L224 634M271 634L271 635L274 635L271 634M353.667 634.333L354.333 634.667L353.667 634.333M400 634L400 635L403 635L400 634M674.667 634.333L675.333 634.667L674.667 634.333M679 636L682 634L679 636M725.667 634.333L726.333 634.667L725.667 634.333M229 635L229 636L233 636L229 635M266 635L266 636L269 636L266 635M356 635L356 636L360 636L356 635M396 635L396 636L399 636L396 635z"/>
<path style="fill:#322828; stroke:none;" d="M681.667 635.333L682.333 635.667L681.667 635.333z"/>
<path style="fill:#ae81a2; stroke:none;" d="M683 635L683 636L694 637L683 635M721.667 635.333L722.333 635.667L721.667 635.333M236 636L236 637L244 637L236 636M256 636L256 637L263 637L256 636M362 636L362 637L367 637L362 636M389 636L389 637L393 637L389 636M714 636L714 637L718 637L714 636M372 637L372 638L384 638L372 637M697 637L697 638L709 638L697 637z"/>
</svg>
