<svg xmlns="http://www.w3.org/2000/svg" viewBox="0 0 283.46 283.46"><defs><style>.cls-1{fill:#52ae32;}.cls-2{fill:#fff;}</style></defs><g id="Layer_2" data-name="Layer 2"><g id="Filmbox"><g id="docubox"><rect class="cls-1" width="283.46" height="283.46"/><g id="logo"><path class="cls-2" d="M153.94,98.1v77.35l87,9.92L231.29,98.1Z"/><path d="M217.13,140.43l-5.16,9.1h-5.65l8.27-13.05-8-12.68h5.66l4.92,9,5-9h5.65l-8,12.68,8.2,13.05h-5.65l-5.23-9.1Z"/><path d="M169.81,138.23h-4.27v6.86h4.27v4.55h-9V138.23h-3.5v-4.1h3.5V123.69h9v4.55h-4.27v5.89h4.27Zm.13,0h-.13v-4.1h.13a3.22,3.22,0,0,0,3.14-3,3.05,3.05,0,0,0-3.14-2.91h-.13v-4.55h.13c6.35,0,8,5.07,8,7.38a5.68,5.68,0,0,1-2.67,4.78,6,6,0,0,1,4.1,6c0,1.79-1.59,7.75-9.33,7.75h-.23v-4.55h.13c2.55,0,4.1-1.63,4.1-3.35s-1.19-3.51-4.1-3.51"/><path d="M194.74,145a8.35,8.35,0,1,1,0-16.7v-5.07h-.16a13.42,13.42,0,1,0,0,26.84h.16V145h0v5.07a13.42,13.42,0,0,0,0-26.84v5.07a8.35,8.35,0,0,1,0,16.7Z"/><path class="cls-2" d="M83.26,123.27a13.85,13.85,0,1,0,13.86,13.84A13.85,13.85,0,0,0,83.26,123.27Zm0,.26a13.59,13.59,0,1,1-13.59,13.58A13.59,13.59,0,0,1,83.26,123.53Z"/><path class="cls-2" d="M96.82,136.14c0,.16.1.15.1-.26s0-.39-.13-1.16c-.07-.39-.1-.42-.27-1.17a9.11,9.11,0,0,0-.33-1.07,11.07,11.07,0,0,0-.43-1.06c-.16-.36-.16-.34-.49-1-.2-.34-.23-.36-.63-1-.2-.32-.2-.29-.63-.88-.26-.31-.26-.29-.73-.85-.29-.29-.33-.31-.86-.81a7.56,7.56,0,0,0-.92-.76c-.33-.27-.5-.35-1.09-.76-.27-.17-.43-.24-.7-.39a2,2,0,0,0-.3-.16c-.33-.18-.23-.08-.39-.13l.39.26h0a4.63,4.63,0,0,0-1-.39l-.07,0-.56-.16.13,0a1.5,1.5,0,0,0-.76-.13c.49.26,1.09.23,1.62.48h-.13a13.88,13.88,0,0,1,1.29.83l-.14,0c.4.39,1.23.33,1.29,1.09-.86-.68-.86-.68-1.22-.94l-.13,0c.56.48.56.48.66.65a.75.75,0,0,0-.23-.07l.3.35s0,0-.17.49c-.17-.05-.17-.05-.36-.25h-.14a6,6,0,0,1,.5.52v.14c-.6-.17-1-.57-1.62-.75l-.1.08c0,.23,0,.23-.13.32s0,.1,0,.14l-.13-.06,0,.1a2.77,2.77,0,0,0,.1.26c-.2.31.13.69-.14,1,0,.1,0,.23.07.33s-.27.17-.33.28a4.45,4.45,0,0,0,.43,1,.73.73,0,0,0,.3-.19h.13c.2.22.2.58.56.67.23-.36-.13-.77.07-1.13-.37-.82-.37-.82-.17-1,.66.63.66.63,1,.76-.06.13-.2.23-.26.35a.25.25,0,0,1-.1.33c0,.87,0,.87-.1,1l-.1,0c-.26,0-.46.14-.69.11-.14-.22-.1-.49-.27-.69l-.13,0c-.2,1.58-.2,1.58-1.49,2.29V133a.63.63,0,0,1,.17.77c-.2.3-.6,0-.83.23a6.08,6.08,0,0,0-.4,1.59c.07.14.07.14,1.09-.06h.14c.89-.24.39-1.6,1.45-1.73.13.36,0,.73.17,1.08a.65.65,0,0,0,.13,0c.13-.14.13-.14.13-.87l.17,0a.87.87,0,0,1,.39.87.5.5,0,0,1-.13,0,.88.88,0,0,0-.06.26c.06.48.06.48.86-.57l.09,0c.1.39.1.39.27.54.33,0,.4-.4.69-2.39l.1,0c.47.31.47.31.57.25s-.07-.26-.07-.39h.13c.07.31.56.33.5.72,0,.07,0,.07-.7.28-.1,0-.72.78-.66,1,0,0,0,0,1,.42.37,1-1.45.57-1.82,1.33a3.38,3.38,0,0,1-.92-.21c-.23-.2-.07-.46-.13-.69-.17-.52-2.62.45-3,.74a7,7,0,0,0-1.79,2.55,7.83,7.83,0,0,0-.4,2.48c.47,1,1.16,2,2,1.51,0,0,2.34-1.19,2.38.22,0,.63.53,1.11.56,1.75s-.4,1.13-.46,1.73a13.75,13.75,0,0,0,0,1.68c.13.2.16.43.33.41l.53-.15a3.1,3.1,0,0,0,1.62-1.78c.3-.48.69-.9,1-1.37s.27-.36.37-1.58c.13-1.39,1.55-2.2,1.72-3.58l-.13-.06a3.71,3.71,0,0,1-.4.19c-.53.2-1.09-3.33-1.06-3.38.83.69.56,1.78,1,2.62.46,0,1.78-1.84,1.38-2.59l-.13,0c-.23-.44-.26-.23.6-.42.76.85.33,1.77.69,2.71.37-1.1-.06-2.3.4-3.39.1.38,0,.45,0,.42"/><path class="cls-2" d="M88.82,125.92h0s0,0-.13-.1a.91.91,0,0,0-.37-.13.46.46,0,0,0,0,.17,1.41,1.41,0,0,0,.19.34l.1.08a2.34,2.34,0,0,0,.33.3c.07.06.1.13.17.19a3.77,3.77,0,0,0,.63.39c.06,0,.06,0,0-.08a1.71,1.71,0,0,0-.3-.24c-.1-.09-.49-.4-.59-.52s0,0,0-.08-.13-.18-.13-.28,0,0,0,0"/><path class="cls-2" d="M83.56,125.85h0Zm-2,18.41c-.36,0-.39-.16-.43-.35-1-.26-1-.27-1-.69,0-.23,0-.32-.3-.58s-.53-.26-.73-.44a.75.75,0,0,1-.16-.13.41.41,0,0,1-.13-.17l-.2,0c-.17-1-1.43-.68-1.92-1.31-.86.07-.86.07-1.09.2l-.1-.09a2,2,0,0,0-.23.17.46.46,0,0,1-.33-.4c.06-.94-.27-1.25-.83-1.45.07-.35.2-.68.26-1l-.82.41-.14-.07a2.11,2.11,0,0,1-.13-2.17c.43-.57,1.06.15,1.59.15.23.35-.1.81.26,1.13.1,0,.4.15.5.09a7,7,0,0,1,1.49-3.28l.13,0c.13-.42.23-.48.53-.61l.13.05V134a7.45,7.45,0,0,0,1-.45l.1.12c.24,0,.43-.28.7-.1.2-.34-.23-.61-.17-.94l-.23,0c-.4.64-.4.64-1.06.84,0-.2-.16-.36-.13-.55.4-.1,2.08-.73,1.29-1.21a.21.21,0,0,1,0-.13c-.66-.32-.13-1-.53-1.39-.19.17-.29.4-.46.57l0-1-.13-.07c0-.1,0-.22,0-.31l-.5,0a22.84,22.84,0,0,1-1.12,2.14,6.72,6.72,0,0,1,.1-.73c-.27-.29-.23-.75-.7-.9l.1-.38a18.49,18.49,0,0,0,2.62-1.92.94.94,0,0,1,.26.18c-.1.2-.1.2-.5.53,0,.05,0,.11,0,.16a.31.31,0,0,0,.23,0v0c-.76.61-.76.61-.66.82l.33-.19c.06.56.23.67.43.74a1,1,0,0,0,.36-.52c-.06-.07-.1-.16-.16-.23s.1-.09.13-.13a.6.6,0,0,1,.23.13l.33-.38a.32.32,0,0,0-.23-.14.82.82,0,0,0-.07-.3,3.62,3.62,0,0,0,.2-.33c-.2-.48-.2-.48,0-1a.5.5,0,0,1-.23-.1c.23-.13.23-.13.33-.29l1.82-.78-1.16.79s0,0,.07,0a.11.11,0,0,1,0,.07s0,0,0,0h0v0l-.1.08.07,0h0a.38.38,0,0,1,.13,0,.27.27,0,0,1,.2,0,.22.22,0,0,1,.1.11c.07.17.07.35.13.52s-.13.15-.19.22a.67.67,0,0,0-.07.17v0a.52.52,0,0,1,.13.12.39.39,0,0,1-.1.08s-.06,0-.06.07a.46.46,0,0,0-.1.2h0a.76.76,0,0,0,.16.09s0,0,0,0,0,0,0,0,0,.08-.1.11a1.44,1.44,0,0,0-.33.63.44.44,0,0,1,.07.19c0,.28,0,.56,0,.83v.12c0,.08,0,.14.06.2s0,.06.07.09a.89.89,0,0,0,.13.18.53.53,0,0,0,.5,0,.88.88,0,0,0,.36-.76c0,.05-.1.11-.16.2a2.17,2.17,0,0,1,.33-.63,0,0,0,0,1,0,0v0h0s0,0,0,0,0,0,.06-.06a1.36,1.36,0,0,1,.4-.22.29.29,0,0,1,.23,0h.1c.27,0,.33.06.5-.18l-.2-.2h0l.16-.14s0,0,0,.05a0,0,0,0,0,0,0,.5.5,0,0,1,.13-.07c0-.13,0-.13-.26-.38,0,0,0,0,.06,0h0s0,0,.07-.05c.46-.47.46-.5.33-.85a.17.17,0,0,0,.06-.11s0-.13.07-.19-.1,0-.1-.07a4.85,4.85,0,0,0,.13-.48l.27-.06a.42.42,0,0,0,.1-.25,1.19,1.19,0,0,1-.23.07H84a.2.2,0,0,1-.13,0,.85.85,0,0,0-.34.08v0a.55.55,0,0,1,.17-.17l-.13-.06-.07,0h0s0,0,0-.07l.06,0h0v0c.13-.07.3,0,.43-.13a.07.07,0,0,0,0-.06h-.13v0a.15.15,0,0,1-.07-.11h0l-.14,0c-.06,0-.09,0-.06-.06h0s0,0,.06,0a.11.11,0,0,1,0-.09,1.74,1.74,0,0,0-.63.25,1.28,1.28,0,0,0,.14-.25l-.3.1a.27.27,0,0,0,0-.15.85.85,0,0,1-.33.1.71.71,0,0,0,.07-.26,1.5,1.5,0,0,1-.27.07.2.2,0,0,1-.06-.11,6.33,6.33,0,0,0-2.22.54v-.1a.45.45,0,0,0-.23.19l.13-.05c-.07.05-.07.05-1.49.72l-.06.08a2.83,2.83,0,0,1-.43.2l.46-.46a.9.9,0,0,0-.3.12.32.32,0,0,1-.13-.07.58.58,0,0,0,.16-.37c-.13,0-.79.14-.86.48a1.11,1.11,0,0,0,.3-.07c-.23.17-.3.48-.56.61,0-.3,0-.3,0-.41l-.29,0a1,1,0,0,0,.16-.25l-.43.19.1-.11-.13,0a10.33,10.33,0,0,0,.59-.89,4.47,4.47,0,0,0-.82.31,11,11,0,0,0-1.13.74,4.54,4.54,0,0,0-.63.41,2.28,2.28,0,0,0-.36.33c.07,0,.13-.11.2-.15l-.33.3.06,0-.79.66s0,0,0,.06c.26-.2.59-.34.86-.53v.13l.16,0a19.27,19.27,0,0,1-1.25,2.81s-.07-.07-.07-.09a.56.56,0,0,0-.13.22.37.37,0,0,1,0,.25c-.17.57-.66,1-.83,1.53s-.1,1.31-.33,2c-.13.47-.1.53,0,.74a1.62,1.62,0,0,0,.2,1.5,3.88,3.88,0,0,1,.1-1.22c.4,2.24.4,2.24,1,3.13,1,0,.73,1.14,1.45,1.4,0,.38,0,.59.9,1.12l.13-.09.17,0a1.46,1.46,0,0,1,.09,1.23l-.09,0c-.24.41-.27.6-.1.92l-.17,0a6.65,6.65,0,0,0,2,2.91c.07,1.4.1,1.48.3,1.73a2.22,2.22,0,0,0,2.08,2.36v-.08s-.13.06-.13,0c-.33-.15-.46-.38-.73-.57,0-.28,0-.28-.06-.46l.16,0s0-.09.07-.12c.4,0,.4,0,.46-.06-.13-.3-.13-.3-.13-.4.56.33,1.06-.45,1.09-.55.1-.56.89-.17,1.12-.57a17.55,17.55,0,0,1,1-1.8l.23-.23a2.2,2.2,0,0,1,.3-.32,2,2,0,0,0-1.33-.73"/><path class="cls-2" d="M85.18,129.58l-.1,0c-.13,0-.26,0-.39-.06a1.66,1.66,0,0,0-.27-.13h-.07c-.13.37-.33,1,0,1a.2.2,0,0,0,.16-.05s0,0,0,0,0,0,0,0,.16-.16.26-.22.37-.06.43-.26a.19.19,0,0,0-.13-.2"/><path class="cls-2" d="M86.7,131.69s-.16.13-.13.22a.36.36,0,0,0,.1.25.33.33,0,0,1,0,.15c0,.15-.3.16-.23.34.2,0,.3-.24.5-.23s.16.06.26,0l0,0a.27.27,0,0,0,.14-.26,3.35,3.35,0,0,0-.33-.75c-.07-.15,0-.33-.1-.49s-.27-.5-.27-.51h-.06a.42.42,0,0,0-.33.31c0,.32.29.44.39.7s0,.23,0,.25"/><path class="cls-2" d="M86,132.15l.17,0h0a.11.11,0,0,0,.1,0s.17-.07.07-.4-.2-.53-.27-.53,0,0-.06.06a.3.3,0,0,0-.1.09.53.53,0,0,0-.1.06v.18a.19.19,0,0,1-.17.26h0c0,.11,0,.18.1.21s.17,0,.26,0"/><path class="cls-2" d="M53.63,144.57a7.62,7.62,0,0,0,7.91-7.94,7.82,7.82,0,0,0-8-8.15h-6v16.09Zm-.06-20.85c7.3,0,13.22,5.23,13.22,12.91s-5.88,12.7-13.16,12.7H42.52V123.72Z"/><path class="cls-2" d="M119.81,131.33a8.1,8.1,0,0,0-6.45-3.11c-4.8,0-8,3.44-8,8.3s3.4,8.23,8,8.23a8,8,0,0,0,6.91-3.77l5.13,1.36A13.33,13.33,0,1,1,125,130l-5.19,1.35Z"/><path class="cls-2" d="M150.36,123.72v14.49c0,7.53-4.33,11.63-11,11.63s-11-4.1-11-11.63V123.72h5.1v14.41c0,4.76,2,7,5.95,7s5.92-2.19,5.92-7V123.72Z"/></g></g></g></g></svg>