<svg xmlns="http://www.w3.org/2000/svg" viewBox="0 0 283.46 283.46"><defs><style>.cls-1{fill:#251a06;}.cls-2{fill:#017dc3;}.cls-3{fill:#fff;}</style></defs><title>doq</title><g id="Layer_2" data-name="Layer 2"><g id="Ostatni"><g id="doq"><rect class="cls-1" width="283.46" height="283.46"/><g id="logo"><path id="path4148" class="cls-2" d="M156.23,222.48a87.86,87.86,0,0,1-13.78-1.89,79.78,79.78,0,0,1-39-21.18,70.06,70.06,0,0,1-7.73-8.74l-1.44-1.9,2.24-1.21a48.43,48.43,0,0,0,12.13-9.09,58,58,0,0,0,4.47-5c.86-1.15,1.6-2.14,1.65-2.19s.18.07.3.28c1.22,2.19,7.46,9.21,10,11.31A55.44,55.44,0,0,0,145,193.57a61.92,61.92,0,0,0,10,1.89,74,74,0,0,0,12.89-.31,62.19,62.19,0,0,0,10-2.5l2.6-.92c.19-.06,3.82,3.43,10.26,9.87l10,10-1.27.75c-1.59.93-6.31,3.22-8.56,4.15a83.7,83.7,0,0,1-22.46,5.64,117.06,117.06,0,0,1-12.18.38Z"/><path id="path4146" class="cls-2" d="M202.91,203.48,187.5,188.16l1.58-.95a53.87,53.87,0,0,0,16-75.17,47.94,47.94,0,0,0-8.37-9.84A54.36,54.36,0,0,0,172.6,89.25a45.81,45.81,0,0,0-11.18-1.37,51.68,51.68,0,0,0-23.23,4.5A58.09,58.09,0,0,0,124.68,101c-3.31,2.89-8.36,8.62-9.46,10.74-.13.25-.3.45-.39.45a14,14,0,0,1-1.61-1.91,58.4,58.4,0,0,0-8.7-9,69.68,69.68,0,0,0-8.34-5.49,6.29,6.29,0,0,1-1.74-1.11A34.89,34.89,0,0,1,97.91,90c.67-.82,2.64-3,4.39-4.74A80.76,80.76,0,0,1,206,75.21a71.69,71.69,0,0,1,11.38,9.52A75.24,75.24,0,0,1,227.5,97.18a79.75,79.75,0,0,1,12.79,34.32,80.87,80.87,0,0,1-12.76,54.76c-.78,1.15-1.44,2.17-1.48,2.26s2.49,2.71,5.61,5.83l5.68,5.67-9.41,9.4c-5.18,5.17-9.45,9.4-9.5,9.4s-7-6.9-15.51-15.32Z"/><path id="path4144" class="cls-3" d="M160.2,95.1a48.38,48.38,0,0,0-12,1.53,47.06,47.06,0,0,0-27.11,19.45,57.09,57.09,0,0,0-5.19,10.58l-.82,2.48c-.05.16-.41-.65-.8-1.8a53.71,53.71,0,0,0-4.8-9.85,44.77,44.77,0,0,0-26.24-19c-5.5-1.41-5.06-1.38-23.8-1.47L42.52,97v89.48H58.88c13.54,0,16.77-.05,18.72-.31a45.05,45.05,0,0,0,25.08-11.88,46.08,46.08,0,0,0,11.45-17.68,15.72,15.72,0,0,1,.87-2.28,21.8,21.8,0,0,1,1,2.65,43.88,43.88,0,0,0,6.93,13,46.61,46.61,0,0,0,31.5,18.15,57.16,57.16,0,0,0,11.22,0,46.76,46.76,0,0,0,39.92-35.26,38.44,38.44,0,0,0,1.22-11,38.61,38.61,0,0,0-1-10.38A46.87,46.87,0,0,0,192.41,108,46.28,46.28,0,0,0,160.2,95.1ZM71,121.81a22.74,22.74,0,0,1,5.69.88,20.34,20.34,0,0,1,14,15.45,21,21,0,0,1-.24,8.49A20.57,20.57,0,0,1,75,161.32c-1.88.39-6.18.53-6.67.22-.2-.13-.24-4.22-.2-19.81l.05-19.65,1.3-.18a10,10,0,0,1,1.55-.07Zm89.31,0a20.27,20.27,0,0,1,4.49.49,24.46,24.46,0,0,1,6.71,3,21.29,21.29,0,0,1,7,8.52,16.43,16.43,0,0,1,1.48,7.84,15.16,15.16,0,0,1-.45,5,25.84,25.84,0,0,1-2.85,6.32,27.34,27.34,0,0,1-4.87,5,20.75,20.75,0,0,1-9.36,3.6l-1.92.16a22.06,22.06,0,0,1-5.89-.78,19,19,0,0,1-8.36-4.87,18.18,18.18,0,0,1-4.21-5.82c-1.5-3.11-1.78-4.49-1.79-8.57,0-3.24,0-3.62.54-5.29a19.55,19.55,0,0,1,19.51-14.59Z"/></g></g></g></g></svg>