<svg xmlns="http://www.w3.org/2000/svg" viewBox="0 0 283.46 283.46"><defs><style>.cls-1{fill:#251a06;}.cls-2{fill:#017dc3;}.cls-3{fill:#fff;}</style></defs><g id="Layer_2" data-name="Layer 2"><g id="Other"><g id="doq"><rect class="cls-1" width="283.46" height="283.46"/><g id="logo"><path id="path4148" class="cls-2" d="M156.23,222.48a87.75,87.75,0,0,1-13.78-1.89,79.71,79.71,0,0,1-39-21.18,70.94,70.94,0,0,1-7.73-8.73l-1.44-1.9,2.24-1.22a48.54,48.54,0,0,0,12.13-9.08,59.09,59.09,0,0,0,4.47-5l1.65-2.2c.05-.05.18.08.3.28,1.22,2.19,7.46,9.21,10,11.32A55.67,55.67,0,0,0,145,193.57a62.62,62.62,0,0,0,10,1.88,73.82,73.82,0,0,0,12.89-.3,62.25,62.25,0,0,0,10-2.5c1.27-.46,2.44-.87,2.6-.92s3.82,3.42,10.26,9.87l10,10-1.28.75c-1.59.93-6.31,3.22-8.56,4.14a83.59,83.59,0,0,1-22.46,5.64,117.48,117.48,0,0,1-12.18.38Z"/><path id="path4146" class="cls-2" d="M202.91,203.48,187.5,188.16l1.58-.95a53.89,53.89,0,0,0,16-75.18,48.07,48.07,0,0,0-8.36-9.84A54.5,54.5,0,0,0,172.6,89.25a46.06,46.06,0,0,0-11.18-1.37,51.7,51.7,0,0,0-23.23,4.51,58.24,58.24,0,0,0-13.51,8.6c-3.3,2.89-8.35,8.62-9.46,10.74-.13.25-.3.45-.39.45a15,15,0,0,1-1.61-1.91,58.43,58.43,0,0,0-8.7-9,69.74,69.74,0,0,0-8.34-5.48,6.22,6.22,0,0,1-1.74-1.12A35.08,35.08,0,0,1,97.91,90c.67-.82,2.64-3,4.39-4.74A80.74,80.74,0,0,1,206,75.21a71.16,71.16,0,0,1,11.38,9.51A75.13,75.13,0,0,1,227.5,97.18a79.78,79.78,0,0,1,12.79,34.32,80.93,80.93,0,0,1-12.76,54.76c-.78,1.15-1.44,2.17-1.48,2.25s2.48,2.71,5.61,5.83l5.68,5.67-9.42,9.4c-5.17,5.16-9.45,9.39-9.5,9.39s-7-6.89-15.51-15.32Z"/><path id="path4144" class="cls-3" d="M160.2,95.1a48.56,48.56,0,0,0-12,1.52,47.07,47.07,0,0,0-27.11,19.45,57.59,57.59,0,0,0-5.19,10.58l-.82,2.49c0,.16-.41-.65-.8-1.8a54.33,54.33,0,0,0-4.8-9.85,44.8,44.8,0,0,0-26.23-19c-5.51-1.41-5.06-1.38-23.81-1.46L42.52,97v89.48H58.88c13.54,0,16.77-.06,18.72-.31a45.06,45.06,0,0,0,25.08-11.88,46.07,46.07,0,0,0,11.45-17.68,14.41,14.41,0,0,1,.87-2.27,21.9,21.9,0,0,1,1,2.64,43.65,43.65,0,0,0,6.93,13,46.59,46.59,0,0,0,31.5,18.15,56.74,56.74,0,0,0,11.21,0,46.76,46.76,0,0,0,39.92-35.26,38.17,38.17,0,0,0,1.22-11,38.42,38.42,0,0,0-1-10.38A46.91,46.91,0,0,0,192.41,108,46.24,46.24,0,0,0,160.2,95.1ZM71,121.81a22.31,22.31,0,0,1,5.69.88,20.34,20.34,0,0,1,14,15.45,20.87,20.87,0,0,1-.25,8.48A20.56,20.56,0,0,1,75,161.32c-1.88.38-6.17.52-6.66.21-.2-.12-.24-4.22-.2-19.81l.05-19.66,1.29-.18a10.36,10.36,0,0,1,1.55-.07Zm89.3,0a20.07,20.07,0,0,1,4.49.49,24.13,24.13,0,0,1,6.71,3,21.32,21.32,0,0,1,7,8.52,16.42,16.42,0,0,1,1.48,7.84,15.2,15.2,0,0,1-.45,5,25.87,25.87,0,0,1-2.85,6.32,28,28,0,0,1-4.87,5,20.91,20.91,0,0,1-9.37,3.6l-1.92.16a22.15,22.15,0,0,1-5.89-.77,19,19,0,0,1-8.35-4.88,18.05,18.05,0,0,1-4.21-5.82c-1.5-3.11-1.79-4.48-1.79-8.57,0-3.24,0-3.62.54-5.29a20.38,20.38,0,0,1,15-14.21,20.15,20.15,0,0,1,4.5-.38Z"/></g></g></g></g></svg>