<?xml version="1.0" encoding="UTF-8" standalone="no"?>
<!-- Generator: Adobe Illustrator 25.0.0, SVG Export Plug-In . SVG Version: 6.00 Build 0)  -->

<svg version="1.1" id="Calque_1" x="0px" y="0px" viewBox="0 0 1040 148.46896" xml:space="preserve" width="1040" height="148.46896" xmlns="http://www.w3.org/2000/svg" xmlns:svg="http://www.w3.org/2000/svg"><defs id="defs19" />
<style type="text/css" id="style2">
	.st0{enable-background:new    ;}
	.st1{fill:#D0006F;}
</style>
<g id="g847" transform="matrix(7.1724138,0,0,7.1724138,-49.489655,-43.034483)"><path class="st1" d="M 135.2,14.8 V 7.5 h -3.9 V 6 h 9.5 v 1.5 h -3.9 v 7.3 z" id="path4" /><path class="st1" d="M 145.6,14.8 141.4,6 h 1.9 l 2.5,5.3 c 0.1,0.2 0.2,0.4 0.3,0.6 0.1,0.2 0.2,0.5 0.3,0.7 0.1,0.2 0.2,0.4 0.3,0.6 h 0.1 c 0.1,-0.2 0.1,-0.3 0.2,-0.6 0.1,-0.3 0.2,-0.5 0.3,-0.7 0.1,-0.2 0.2,-0.4 0.3,-0.6 L 150.1,6 h 1.8 l -4.2,8.8 z" id="path6" /><path d="m 16.9,6.4 h -10 c 1.6,0 1.8,1.2 1.8,3.3 v 16.6 h 4.5 V 9.7 c 0,-2.1 0,-2.8 1.8,-2.8 3.5,0 6.9,2.9 6.9,9.5 0,6.4 -2.1,9.2 -5.2,9.7 -0.4,0.1 -0.9,0.2 -1.3,0.2 h 1.4 c 6.2,0 10,-4.2 10,-9.9 0,-5.9 -3.7,-10 -9.9,-10 z M 72.4,21.8 C 71.1,19 70.3,16.8 67,16.2 69.8,15.9 72.7,14.6 72.7,11.3 72.7,8.1 70.6,6.4 66,6.4 H 55.6 c 1.6,0 1.8,1.2 1.8,3.3 v 16.6 h 4.5 V 9.6 c 0,-2.1 0.4,-2.8 2.1,-2.8 2.8,0 4.2,2 4.2,4.7 0,3.1 -2.5,5 -3.8,5.2 1.1,0.1 1.7,1.1 2,1.7 0.8,1.9 1.2,4.8 2.8,6.6 1.1,1.3 3,1.3 4.2,1.3 h 3.3 c -2,-0.1 -3.5,-2.6 -4.3,-4.5 z m 30.4,-5.5 v 0 0 c 2.9,0.1 5.3,1.4 5.3,3.1 v -6.2 c 0,1.7 -2.3,3 -5.3,3.1 z m 1.2,9.5 c -1.6,0 -1.7,-0.7 -1.8,-2.8 V 9.6 c 0,-2.1 0.2,-2.8 1.8,-2.8 3.2,0 6.8,2.1 7.6,3.9 L 110.2,6.3 H 95.9 c 1.6,0 1.8,1.2 1.8,3.3 v 16.6 h 13.9 l 1.4,-4.8 c -0.8,1.9 -5.7,4.4 -9,4.4 z m 18.1,-0.1 c -1.6,0 -1.7,-0.6 -1.8,-2.7 V 9.2 c 0,-1.8 0.3,-2.8 1.8,-2.8 H 114 c 1.6,0 1.8,1.2 1.8,3.3 v 13.4 3.3 h 13.9 l 1.4,-4.8 c -0.8,1.7 -5.8,4.1 -9,4.1 z M 34.3,14.3 c 0,-1.4 -0.1,-7.5 2.9,-8.2 -4.3,0.3 -7.8,3.1 -7.8,8.1 0,6.1 5,11 11.9,12.5 -3.3,-0.8 -7,-4.6 -7,-12.4 z M 46.2,6.1 c 3,0.8 2.9,6.8 2.9,8.2 0,7.8 -3.8,11.5 -6.9,12.4 6.9,-1.4 11.9,-6.4 11.9,-12.5 0,-5 -3.6,-7.8 -7.9,-8.1 z M 88,26 c -5.3,0 -7.4,-4.3 -7.4,-9.9 0,-5.3 1.8,-9.7 7,-9.7 3.7,0 6,2.6 6.5,6.4 V 7.5 C 92.6,6.7 89.8,6 87.5,6 80.4,6 75.8,9.4 75.8,16.5 c 0,6.5 4.7,10 11.8,10 2.9,0 5.6,-0.9 6.8,-1.6 0,0 0,-3.1 0,-4.2 -0.7,2.9 -3,5.3 -6.4,5.3 z" id="path10" /></g>
</svg>
