<svg xmlns="http://www.w3.org/2000/svg" viewBox="0 0 283.46 283.46"><defs><style>.cls-1{fill:#bfce16;}.cls-2{fill:#1f325c;}.cls-3{fill:#f1495f;}.cls-4{fill:#fff;}.cls-5{fill:#f2541b;}.cls-6{fill:#962c1e;}.cls-7{fill:#231f20;}</style></defs><g id="Layer_2" data-name="Layer 2"><g id="Kids"><g id="ducktv"><rect class="cls-1" width="283.46" height="283.46"/><g id="logo"><path class="cls-1" d="M187.51,128.8c9.55.71,17.62,3.73,24.28,9.07,9.63,4.15,18.93,4.7,27.88,1.58a.92.92,0,0,1,.69,0,.83.83,0,0,1,.48.39.69.69,0,0,1,.07.57,1.8,1.8,0,0,1-.23.58q-12.44,11.16-17.11,23.48-1.68,11.55-12.83,19.08a41,41,0,0,1-13.75,6c-2.65,3.12-3.91,6.05-3.75,8.84s1.9,5.5,5,8a10.58,10.58,0,0,1,3.62,4.08,3,3,0,0,1-1,3.76c-1.87,1.58-6.55,2.45-14,2.61-4.1.94-8.09,1.67-12,2.22a100.89,100.89,0,0,1-17.65.74q-14.56-.74-21-6a.84.84,0,0,0-.16-.07,17.06,17.06,0,0,1-3.43-6.39,8.68,8.68,0,0,1,.57-5.57,7.66,7.66,0,0,1,3.85-3.94,3.63,3.63,0,0,1,3.69.11,8.11,8.11,0,0,1,3.5,3.6,13.48,13.48,0,0,0,4.45,5.15c2.13,1.24,5.08,1.88,8.91,1.95l19.54-3.6A24.6,24.6,0,0,0,175,194.48a30.85,30.85,0,0,0-4-6.37,38.55,38.55,0,0,1-14.64-8.68c-5.18-4.72-8.32-10-9.42-15.76-.09-.62-.18-1.19-.25-1.81v-.09q-7.28-46.25-24.92-49.84a28.77,28.77,0,0,1-5.25,0h-.09c-7.44-1.08-13-2.94-16.86-5.46a12.55,12.55,0,0,1-1.81-1.07c-7.67,4.53-14.55,7-20.57,7.6-6.83.6-11.78-1.33-14.92-5.79a12.94,12.94,0,0,1-2.47-6.46v-.12a9.54,9.54,0,0,1,1.17-5.29c.94-1.65,2.06-2.52,3.44-2.63s2.86.57,4,2.38c1.88,2.88,4.9,4,9.12,3.34,4.4-.71,10-3.25,16.84-7.6v-.48Q92.73,76.6,101,69.64a25,25,0,0,1,19.13-6,27,27,0,0,1,18.24,8.5,22.63,22.63,0,0,1,6.53,17.75,23,23,0,0,1-3.26,10.91q3.93,24.84,33.36,27.63c2.11.16,4.28.27,6.57.34a42.92,42.92,0,0,1,6,.07Z"/><path class="cls-2" d="M52.78,137.06v7.68a5.29,5.29,0,0,0-1.85-1.44,5.68,5.68,0,0,0-2.35-.48,5.34,5.34,0,0,0-4.36,2.11,9.5,9.5,0,0,0-1.7,6.09,11.21,11.21,0,0,0,1.53,6,5,5,0,0,0,4.51,2.49,5.1,5.1,0,0,0,2.66-.71,7.33,7.33,0,0,0,2-2v2.38h5.15V137.06Zm-2.5,10.34a2.21,2.21,0,0,1,1.83.91,4.51,4.51,0,0,1,.71,2.82,4.84,4.84,0,0,1-.71,3,2.1,2.1,0,0,1-1.76.93,2,2,0,0,1-1.65-.93,4.7,4.7,0,0,1-.69-2.86,5.05,5.05,0,0,1,.67-3,1.92,1.92,0,0,1,1.6-.89Z"/><path class="cls-2" d="M76.9,159.2H71.75v-2.61a7.79,7.79,0,0,1-2.32,2.29,5.56,5.56,0,0,1-2.88.69A4.49,4.49,0,0,1,63,158.05a7.09,7.09,0,0,1-1.3-4.67V143.16h5.57V152a3.4,3.4,0,0,0,.5,2.13,1.63,1.63,0,0,0,1.4.65,1.91,1.91,0,0,0,1.62-.85,5.3,5.3,0,0,0,.62-3v-7.72H76.9v16"/><path class="cls-2" d="M91,152.92l5.25.67a8.78,8.78,0,0,1-1.42,3.16,6.73,6.73,0,0,1-2.52,2.06,8.83,8.83,0,0,1-3.92.76,13,13,0,0,1-3.83-.48,6.63,6.63,0,0,1-2.61-1.54,8.07,8.07,0,0,1-1.74-2.5,11.74,11.74,0,0,1,.14-7.92A8.09,8.09,0,0,1,81.87,145a6.87,6.87,0,0,1,2-1.42A9.87,9.87,0,0,1,88,142.8a8.67,8.67,0,0,1,5.36,1.42,7.4,7.4,0,0,1,2.61,4.1l-5.2.76a2.64,2.64,0,0,0-.89-1.54,2.48,2.48,0,0,0-1.72-.53,2.68,2.68,0,0,0-2.22,1.1,5.29,5.29,0,0,0-.85,3.3,4.55,4.55,0,0,0,.85,3,2.6,2.6,0,0,0,2.13,1,2.77,2.77,0,0,0,1.83-.61,4,4,0,0,0,1.1-1.91"/><path class="cls-2" d="M98.78,137.07h5.66v11.41l4.1-5.32h6.8l-5.17,5.62,5.47,10.42h-6.23l-2.91-6.41L104.44,155v4.17H98.78V137.07"/><path class="cls-3" d="M138.26,142.29a1.47,1.47,0,0,0-.92.64A29.84,29.84,0,0,0,133,153.24a6.14,6.14,0,0,1-2.45-5.68,1.34,1.34,0,0,0-.37-1,1.18,1.18,0,0,0-1-.48,1.52,1.52,0,0,0-1.06.32,1.47,1.47,0,0,0-.48,1,9.82,9.82,0,0,0,.8,4.85,1.79,1.79,0,0,0-.55-.2,1.5,1.5,0,0,0-1.1.23c-2.1,1.51-3.66,2.31-4.65,2.36,0,0,0,0-.06,0a2.38,2.38,0,0,1-.14-1v-.05l.55-6.41a81.36,81.36,0,0,1,11.41-3,1.3,1.3,0,0,0,.91-.61,1.43,1.43,0,0,0,.19-1.1,1.43,1.43,0,0,0-1.7-1.1A103.05,103.05,0,0,0,122.79,144l.23-2.74a1.37,1.37,0,0,0-.34-1,1.44,1.44,0,0,0-1-.52,1.34,1.34,0,0,0-1.06.34,1.45,1.45,0,0,0-.53,1l-.34,4.21a12,12,0,0,0-5.06,4.24,1.34,1.34,0,0,0-.19,1.1,1.37,1.37,0,0,0,.67.87,1.21,1.21,0,0,0,1.08.18,1.37,1.37,0,0,0,.89-.64,7.86,7.86,0,0,1,2.29-2.22l-.37,4.6a.47.47,0,0,0,0,.16,4.39,4.39,0,0,0,.55,2.71,2.77,2.77,0,0,0,2.54,1.33c1.4,0,3.51-.9,6.33-2.89a1.49,1.49,0,0,0,.59-.94.64.64,0,0,0,0-.3,10.05,10.05,0,0,0,4.53,3.51,1.29,1.29,0,0,0,.92.07,1.35,1.35,0,0,0,.78-.51,1.27,1.27,0,0,0,.32-.84c.16-3.28,1.53-7,4.14-11.16a1.4,1.4,0,0,0-.45-2,1.36,1.36,0,0,0-1.1-.21"/><path class="cls-4" d="M210.74,139.48q-9.66-7.8-23.41-8.76c-2-.16-3.9-.22-5.8-.2h-.09c-2.22,0-4.38-.16-6.46-.32q-31.41-2.76-35.26-29.53l.09-.58V100a21.85,21.85,0,0,0,3.28-10.34A20.86,20.86,0,0,0,137,73.43a25.31,25.31,0,0,0-17.09-8A22.88,22.88,0,0,0,102.17,71c-5,4.31-7,10.73-6,19.18,0,.32.1.64.16,1v.16a29.07,29.07,0,0,1,1.4,12,.86.86,0,0,1,.32,0,.85.85,0,0,1,.58.25,4.78,4.78,0,0,0,1.8,1.24.35.35,0,0,1,.17.07c3.62,2.4,9,4.1,16.1,5.18a43.67,43.67,0,0,0,4.56,0,.76.76,0,0,1,.6,0H122q19,3.33,26.5,51.43v.09a12.42,12.42,0,0,0,.35,1.69c1,5.41,4,10.38,8.75,14.85a38.31,38.31,0,0,0,14.16,8.27l.16.05c1,.32,2,.61,3.09.91a49.61,49.61,0,0,0,5.73,1c.75.09,1.53.2,2.31.23a47.19,47.19,0,0,0,13.24-.81h.07A40,40,0,0,0,209.76,182c6.89-4.75,10.9-10.68,12-17.83a.46.46,0,0,1,.07-.25c2.87-7.56,7.75-14.78,14.73-21.58q-12.51,3-25.61-2.7l-.16-.16"/><path class="cls-5" d="M96.19,91.66a1.91,1.91,0,0,1-.32.42c-7.38,4.74-13.42,7.49-18.17,8.27-5.06.78-8.72-.64-11-4.24-.66-1.08-1.37-1.56-2.15-1.49a2.8,2.8,0,0,0-2,1.72,7.38,7.38,0,0,0-.91,4.26,10.23,10.23,0,0,0,2,5.47C66.5,110,70.9,111.71,77,111.23S89.8,108,97.41,103.46a.54.54,0,0,1,.27-.09,29.07,29.07,0,0,0-1.4-12,.58.58,0,0,0-.09.32"/><path class="cls-6" d="M174,189c.32.48.64,1,1,1.49a27.39,27.39,0,0,1,4.12,14.29l6.53-1.21c.67-3.28-1.17-7.72-5.47-13.36-1.79-.27-3.53-.59-5.18-1-.32-.07-.64-.16-1-.25"/><path class="cls-5" d="M182.86,190.52h-.25c4.3,5.95,5.84,10.65,4.65,14.16a1.49,1.49,0,0,1-.26.41.77.77,0,0,1-.38.23L158,210.63h-.23c-4.26,0-7.56-.82-9.9-2.29a15.44,15.44,0,0,1-5.09-5.8,6.55,6.55,0,0,0-2.7-2.86,2.06,2.06,0,0,0-2-.09,6.53,6.53,0,0,0-3.34,7.47,12.7,12.7,0,0,0,2.91,5.45q6,4.85,19.82,5.48a98.28,98.28,0,0,0,17.57-.74c3.75-.55,7.65-1.26,11.64-2.13a.52.52,0,0,1,.22-.07c6.9-.09,11.21-.82,12.95-2.22a1.16,1.16,0,0,0,.41-1.53,10.28,10.28,0,0,0-3-3.35c-3.67-2.95-5.57-6.07-5.73-9.32-.3-2.75.64-5.59,2.77-8.53a50.7,50.7,0,0,1-11.36.42"/><path class="cls-7" d="M107.6,77c-.37-1.69-1.14-2.7-2.31-3s-2.45-.16-3.78.89A7.61,7.61,0,0,0,99,78.67a7.8,7.8,0,0,0-.44,4.56,3.56,3.56,0,0,0,2.39,3c1.14.48,2.36.18,3.66-.87a8.12,8.12,0,0,0,2.55-3.85A8,8,0,0,0,107.6,77"/><path class="cls-7" d="M160.82,147.06a1.13,1.13,0,0,0-.07.73c2.22,8.32,7,14.14,14.23,17.5a41.76,41.76,0,0,0,15.94,3.56H191q7.23,0,9.6-4.2c1.58-2.68,1.54-6.66-.09-11.93a.5.5,0,0,0-.11-.09q-6.94-15.3-25.43-16.55c-.64,0-1.33-.06-2-.06a.86.86,0,0,0-.64.27.54.54,0,0,0-.25.64.55.55,0,0,0,.25.64.71.71,0,0,0,.64.32c.64,0,1.33,0,2,.1q17.22,1.15,23.73,15.3c1.42,4.65,1.51,8.11.25,10.47-1.37,2.11-4,3.18-8,3.18-6.39-.27-11.72-1.51-16-3.78-6.28-3.2-10.4-8.47-12.42-15.85a.82.82,0,0,0-.41-.57.76.76,0,0,0-.76-.07.77.77,0,0,0-.57.39"/><path class="cls-7" d="M117.38,63.5A24.71,24.71,0,0,0,101,69.65q-8.22,7-6.65,20.73v.48c-6.8,4.33-12.44,6.87-16.84,7.58-4.21.69-7.24-.45-9.11-3.34-1.13-1.81-2.48-2.61-4-2.38a4.56,4.56,0,0,0-3.44,2.63,9.62,9.62,0,0,0-1.16,5.32v.08a12.6,12.6,0,0,0,2.49,6.47c3.12,4.49,8.07,6.41,14.9,5.79,6-.55,12.89-3,20.56-7.58a12.73,12.73,0,0,0,1.82,1.06c3.82,2.54,9.42,4.37,16.86,5.47h.09a28.77,28.77,0,0,0,5.25,0q13.29,2.79,20.78,29.78a190.6,190.6,0,0,1,4.16,20v.09c0,.62.16,1.19.26,1.81,1.1,5.75,4.23,11,9.41,15.74a38.59,38.59,0,0,0,14.64,8.7,29.74,29.74,0,0,1,4,6.38,24.31,24.31,0,0,1,2.31,10.63l-19.54,3.61c-3.83-.06-6.81-.71-8.92-2a13.4,13.4,0,0,1-4.44-5.15,8.3,8.3,0,0,0-3.5-3.59,3.66,3.66,0,0,0-3.71-.1,7.68,7.68,0,0,0-3.82,3.92,8.7,8.7,0,0,0-.58,5.57,17,17,0,0,0,3.44,6.41l.16,0c4.26,3.51,11.22,5.5,20.94,6a98.06,98.06,0,0,0,17.66-.73c3.89-.55,7.88-1.28,12-2.22,7.44-.16,12.11-1,14-2.59a3,3,0,0,0,1-3.78c-.42-1.19-1.63-2.56-3.6-4.08-3.14-2.52-4.81-5.17-5-8s1.07-5.74,3.75-8.85a40.56,40.56,0,0,0,13.74-6q11.13-7.52,12.84-19.06c3-8,8.38-15.56,16.22-22.75h0a5.23,5.23,0,0,1,.9-.73,1.53,1.53,0,0,0,.22-.6.7.7,0,0,0-.06-.57.94.94,0,0,0-.49-.39.84.84,0,0,0-.66,0c-9,3.14-18.28,2.59-27.9-1.56q-10-8-24.29-9.07a41.46,41.46,0,0,0-6-.07c-2.29-.07-4.47-.21-6.55-.37q-29.46-2.75-33.38-27.63a22.89,22.89,0,0,0,3.25-10.9,22.66,22.66,0,0,0-6.52-17.75,27.09,27.09,0,0,0-18.24-8.51c-.92-.07-1.82-.1-2.71-.09Zm0,1.87a24.14,24.14,0,0,1,2.53.11A25.28,25.28,0,0,1,137,73.42a20.83,20.83,0,0,1,6.08,16.28A22.11,22.11,0,0,1,139.81,100v.08l-.09.57q3.84,26.77,35.26,29.53c2.08.16,4.23.29,6.45.31h.1c1.9,0,3.83,0,5.8.19q13.74,1,23.41,8.75a.48.48,0,0,0,.16.16,44,44,0,0,0,6,2.13h0a38,38,0,0,0,19.54.57q-10.44,10.24-14.72,21.59a.66.66,0,0,0-.08.27c-1.05,7.13-5,13.08-12,17.8a39.15,39.15,0,0,1-13.4,5.85h-.06a47.3,47.3,0,0,1-13.26.8c-.76,0-1.55-.14-2.33-.23a47.51,47.51,0,0,1-5.72-1c-1.06-.27-2.09-.57-3.1-.89a.46.46,0,0,0-.16-.07,38,38,0,0,1-14.13-8.27q-7.22-6.71-8.75-14.82a12.83,12.83,0,0,1-.37-1.7v-.12a175.14,175.14,0,0,0-4.08-19.77h0q-7.77-29-22.4-31.66h-.16a.91.91,0,0,0-.6.07,36.9,36.9,0,0,1-4.56-.07c-7.1-1-12.48-2.75-16.13-5.18a.42.42,0,0,0-.16,0,5.29,5.29,0,0,1-1.79-1.24.81.81,0,0,0-.57-.25,1,1,0,0,0-.34,0,.32.32,0,0,0-.25.09C89.78,108,83,110.61,77,111.23S66.5,110,63.7,106.08a10.24,10.24,0,0,1-2-5.48,7.49,7.49,0,0,1,.92-4.29,2.71,2.71,0,0,1,2-1.69c.78-.07,1.49.41,2.16,1.49,2.22,3.6,5.88,5,10.95,4.23q7.11-1.17,18.16-8.27a2.1,2.1,0,0,0,.33-.41.55.55,0,0,1,.08-.32v-.16a8,8,0,0,1-.16-1c-.94-8.48,1.06-14.86,6.06-19.17a22.46,22.46,0,0,1,15.21-5.68ZM174,189c.32.1.65.19,1,.26,1.65.37,3.39.69,5.17,1,4.31,5.64,6.15,10.09,5.48,13.36l-6.53,1.21A27.39,27.39,0,0,0,175,190.52c-.32-.48-.65-1-1-1.5Zm20.21,1.09q-3.19,4.39-2.77,8.52c.16,3.25,2.06,6.36,5.73,9.32a10.28,10.28,0,0,1,3,3.35,1.18,1.18,0,0,1-.41,1.54q-2.61,2.08-12.95,2.21a.44.44,0,0,0-.22.08c-4,.87-7.88,1.58-11.64,2.13a97.29,97.29,0,0,1-17.57.73c-9.16-.41-15.79-2.25-19.82-5.48a12.81,12.81,0,0,1-2.91-5.45,6.51,6.51,0,0,1,3.35-7.47,2.06,2.06,0,0,1,2,.09,6.6,6.6,0,0,1,2.7,2.86,15.5,15.5,0,0,0,5.08,5.8c2.33,1.47,5.64,2.25,9.9,2.29H158l28.66-5.31a.73.73,0,0,0,.39-.23,1.79,1.79,0,0,0,.25-.42c1.19-3.5-.34-8.19-4.65-14.15h.25a50.13,50.13,0,0,0,11.36-.41Z"/></g></g></g></g></svg>