<svg xmlns="http://www.w3.org/2000/svg" viewBox="0 0 283.46 283.46"><defs><style>.cls-1{fill:#e81d0f;}.cls-2{fill:#fff;}</style></defs><title>edgesport</title><g id="Layer_2" data-name="Layer 2"><g id="Sport"><g id="edgesport"><rect width="283.46" height="283.46"/><g id="logo"><path class="cls-1" d="M199.8,170.59l1.47-1.31a4.22,4.22,0,0,0-3.87-1.86,3.38,3.38,0,0,0-3.33,3.06c0,.77.43,2.13,2.78,2.78,2,.57,1.81,1.16,1.8,1.42,0,.54-1.45,1.95-4.36-.33l-1.53,1.16a5.74,5.74,0,0,0,4.09,2c2.4-.06,3.74-1.55,3.76-3s-.48-2.51-3.27-3.28,0-3.59,2.46-.7"/><path class="cls-1" d="M228.92,167.61h7.51l-.43,2.08h-2.69L232,177.44H230l1.28-7.75H228.5Z"/><path class="cls-1" d="M216.14,174.49a4.26,4.26,0,0,0,.88-2.69c0-1.43-.83-2.43-2.19-2.38a2.5,2.5,0,0,0-1.9,1,4.12,4.12,0,0,0-.88,2.68c0,1.43.81,2.42,2.19,2.39a2.62,2.62,0,0,0,1.9-1m2.78-2.89a6.16,6.16,0,0,1-1.34,4.06,4.58,4.58,0,0,1-3.5,1.79c-2.3.07-3.87-1.72-4-4.14a6.24,6.24,0,0,1,1.36-4.07,4.6,4.6,0,0,1,3.49-1.78c2.3-.08,3.87,1.73,3.94,4.14"/><path class="cls-1" d="M207.71,170.91c-.17,1.12-1.64,1-1.64,1H204l.39-2.39h2.19a1.07,1.07,0,0,1,1.15,1.36m-1.86-3.35h-3.22L201,177.35h2.11l.57-3.48H206s3.57.32,3.88-3.14c.29-3.28-3.47-3.16-4-3.16"/><path class="cls-1" d="M223.53,172c-.77,0-1.46,0-1.81,0l.44-2.55h2s1.55,0,1.64,1.14-1.18,1.46-2.3,1.46m4.31-1.51c.28-2.51-2.18-2.95-3.92-2.95s-3.39,0-3.39,0l-1.64,9.7h1.91l.6-3.44h2.19l1,3.44h2.13l-1.14-3.66a3.52,3.52,0,0,0,2.28-3.11"/><path class="cls-2" d="M86.59,118.45c-.2.56-.42.93-1,.93H43.46a.93.93,0,0,1-.94-.93V106.89a.93.93,0,0,1,.94-.94H89.84a.89.89,0,0,1,.8,1.26Z"/><path class="cls-2" d="M139.52,133.83c0-16.87-11-27.16-23.47-27.83l-19.37,0a.94.94,0,0,0-.94.94v11.56a1,1,0,0,0,.94.94s15.59,0,15.64,0,.21,0,.32,0c7.57.34,13.06,3.77,13.06,14.62,0,8.8-4.66,14-12.79,14.13H96.68a1,1,0,0,0-1,1V160.7a1,1,0,0,0,1,1s15.57,0,16.07,0l3.69,0c12.27-.9,23.08-11.64,23.08-27.8"/><path class="cls-2" d="M186.71,135.43v-7.16a.88.88,0,0,0-.88-.88H166.09c-.49,0-.69.35-.89.88l-3.77,9.94a1.23,1.23,0,0,0,.81,1.77h12.43c-1.18,5.36-4.6,8.22-12.7,8.22H145.74a.94.94,0,0,0-1,.95V160.7a.94.94,0,0,0,1,.93s12.77,0,13.26,0h5.4c8.25,0,16.34-4.6,19.39-10.13,3.23-5.86,2.92-16.06,2.92-16.06"/><path class="cls-2" d="M73.79,139.41c-.14.55-.42,1-.94,1H43.47a1,1,0,0,1-.95-1V127.86a.94.94,0,0,1,.95-1H77a.93.93,0,0,1,.93,1Z"/><path class="cls-2" d="M86.59,160.7a1,1,0,0,1-1,1H43.46a1,1,0,0,1-.94-1V149.14a1,1,0,0,1,.94-.94H89.75a.94.94,0,0,1,.94.94Z"/><path class="cls-2" d="M236.81,118.45c-.19.56-.41.93-.94.93H193.69a.93.93,0,0,1-.94-.93V106.89a.93.93,0,0,1,.94-.94h46.38a.89.89,0,0,1,.8,1.26Z"/><path class="cls-2" d="M224,139.41c-.18.55-.42,1-1,1H193.69a.94.94,0,0,1-.94-1V127.86a.93.93,0,0,1,.94-1h33.5a.94.94,0,0,1,.93,1Z"/><path class="cls-2" d="M236.81,160.7a.94.94,0,0,1-.94,1H193.69a1,1,0,0,1-.94-1V149.14a1,1,0,0,1,.94-.94H240a.94.94,0,0,1,.94.94Z"/><path class="cls-2" d="M179.91,110.55c-3.47-3.26-8.35-4.55-14.81-4.55-.07,0-19.37,0-19.37,0a.93.93,0,0,0-.94.94v11.56a1,1,0,0,0,.94.94l.19,0H165.2c2.53,0,4.7.63,8.12,2.6,2.26,1.3,2.51.21,2.93-.82s1.55-3.65,3-7.5c.52-1.33,1.14-2.6.63-3.11"/></g></g></g></g></svg>