<svg xmlns="http://www.w3.org/2000/svg" viewBox="0 0 283.46 283.46"><defs><style>.cls-1{fill:#e81d0f;}.cls-2{fill:#fff;}</style></defs><title>edgesport</title><g id="Layer_2" data-name="Layer 2"><g id="Sport"><g id="edgesport"><rect width="283.46" height="283.46"/><g id="logo"><path class="cls-1" d="M199.8,170.59l1.47-1.31a4.23,4.23,0,0,0-3.87-1.86,3.38,3.38,0,0,0-3.33,3.06c0,.77.43,2.13,2.78,2.78,2,.57,1.81,1.15,1.8,1.42,0,.54-1.45,1.95-4.37-.33l-1.53,1.15a5.72,5.72,0,0,0,4.09,2c2.4-.05,3.74-1.55,3.76-2.95s-.48-2.51-3.27-3.28,0-3.6,2.45-.7"/><path class="cls-1" d="M228.92,167.61h7.51l-.43,2.08h-2.69L232,177.44H230l1.28-7.75H228.5Z"/><path class="cls-1" d="M216.14,174.49a4.21,4.21,0,0,0,.88-2.68c0-1.43-.82-2.43-2.19-2.39a2.54,2.54,0,0,0-1.9,1,4.21,4.21,0,0,0-.88,2.68c0,1.43.81,2.42,2.19,2.39a2.56,2.56,0,0,0,1.9-1m2.78-2.88a6.13,6.13,0,0,1-1.34,4.06,4.6,4.6,0,0,1-3.5,1.79c-2.3.07-3.87-1.73-3.95-4.15a6.25,6.25,0,0,1,1.35-4.07,4.62,4.62,0,0,1,3.5-1.78c2.3-.08,3.87,1.73,3.94,4.15"/><path class="cls-1" d="M207.71,170.91c-.16,1.12-1.64,1-1.64,1H204l.38-2.4h2.2a1.07,1.07,0,0,1,1.14,1.36m-1.86-3.35h-3.22l-1.64,9.8h2.11l.57-3.49H206s3.57.32,3.88-3.13c.29-3.29-3.47-3.17-4-3.17"/><path class="cls-1" d="M223.53,172c-.77,0-1.46,0-1.81,0l.44-2.55h2s1.55,0,1.64,1.14-1.18,1.45-2.3,1.45m4.31-1.51c.27-2.51-2.18-2.95-3.93-2.95s-3.39,0-3.39,0l-1.64,9.7h1.91l.59-3.44h2.19l1,3.44h2.13l-1.14-3.66a3.54,3.54,0,0,0,2.29-3.11"/><path class="cls-2" d="M86.59,118.45c-.2.56-.42.93-.95.93H43.46a.93.93,0,0,1-.93-.93V106.89a.94.94,0,0,1,.93-.95H89.84a.9.9,0,0,1,.8,1.26Z"/><path class="cls-2" d="M139.52,133.83c0-16.87-11-27.16-23.48-27.83-.05,0-19.36,0-19.36,0a1,1,0,0,0-.95.95v11.56a1,1,0,0,0,.95.95s15.59,0,15.64,0a3.18,3.18,0,0,1,.32,0c7.58.34,13.06,3.77,13.06,14.62,0,8.8-4.66,14-12.79,14.13H96.68a1,1,0,0,0-.95.95V160.7a1,1,0,0,0,.95.95s15.57,0,16.07,0c0,0,3.67,0,3.69,0,12.27-.9,23.08-11.63,23.08-27.8"/><path class="cls-2" d="M186.71,135.43v-7.16a.88.88,0,0,0-.88-.88H166.09c-.49,0-.69.35-.89.88l-3.77,9.94a1.23,1.23,0,0,0,.81,1.77h12.43c-1.18,5.36-4.6,8.22-12.7,8.22H145.74a.94.94,0,0,0-.95.95V160.7a.94.94,0,0,0,.95.93s12.77,0,13.26,0h5.4c8.25,0,16.34-4.6,19.39-10.13,3.23-5.86,2.92-16.07,2.92-16.07"/><path class="cls-2" d="M73.79,139.41c-.14.55-.42.95-.95.95H43.47a1,1,0,0,1-.95-.95V127.86a.94.94,0,0,1,.95-.95H77a.94.94,0,0,1,.93.95Z"/><path class="cls-2" d="M86.59,160.7a1,1,0,0,1-.95.95H43.46a.94.94,0,0,1-.93-.95V149.14a.94.94,0,0,1,.93-.95H89.75a.94.94,0,0,1,.93.95Z"/><path class="cls-2" d="M236.81,118.45c-.2.56-.42.93-.95.93H193.69a.93.93,0,0,1-.93-.93V106.89a.94.94,0,0,1,.93-.95h46.38a.9.9,0,0,1,.8,1.26Z"/><path class="cls-2" d="M224,139.41c-.18.55-.42.95-.95.95H193.69a1,1,0,0,1-.95-.95V127.86a.94.94,0,0,1,.95-.95h33.49a.94.94,0,0,1,.93.95Z"/><path class="cls-2" d="M236.81,160.7a1,1,0,0,1-.95.95H193.69a.94.94,0,0,1-.93-.95V149.14a.94.94,0,0,1,.93-.95H240a.94.94,0,0,1,.93.95Z"/><path class="cls-2" d="M179.91,110.55c-3.47-3.27-8.35-4.55-14.81-4.55-.07,0-19.36,0-19.36,0a.94.94,0,0,0-.95.95v11.56a1,1,0,0,0,.95.95l.19,0H165.2c2.53,0,4.71.63,8.13,2.6,2.25,1.31,2.51.21,2.92-.81s1.55-3.65,3-7.5c.52-1.33,1.13-2.61.63-3.11"/></g></g></g></g></svg>