<?xml version="1.0" encoding="utf-8"?>
<!-- Generator: Adobe Illustrator 23.1.0, SVG Export Plug-In . SVG Version: 6.00 Build 0)  -->
<svg version="1.1" id="Layer_2" xmlns="http://www.w3.org/2000/svg" xmlns:xlink="http://www.w3.org/1999/xlink" x="0px" y="0px"
	 width="950.0317993px" height="1000px" viewBox="0 0 950.0317993 1000" enable-background="new 0 0 950.0317993 1000"
	 xml:space="preserve">
<path fill-rule="evenodd" clip-rule="evenodd" fill="#FFFFFF" d="M950.0317993,379.5090942L950.0317993,379.5090942v402.2870483
	C950.0317993,901.881958,851.9199219,1000,731.8279419,1000H341.5738831h-13.8599243H218.2046051
	C104.4090118,1000,8.8515759,911.2816772,0.64943,797.7566528c-0.1824589-2.644104-0.3649178-5.288208-0.4561473-7.932312
	L0,784.8036499l0.0912294-0.3634033v-2.4616089L0,780.2359619c0-1.2756348,0-2.5528564,0.0912294-3.8284912L0,623.4063721
	v-405.296875C0,98.1126328,98.2023163,0,218.2046051,0h109.5093536h13.8599243h390.2540588
	c95.9223633,0,181.0889282,63.4632263,208.7979126,155.1913452c4.8336182,15.7749634,7.8426514,32.0965271,8.8446045,48.5085449
	l0.0912476,0.9115295c0.0912476,1.3676605,0.1824341,2.7353363,0.1824341,4.1029968l0.0912476,1.0939789v0.8210754
	c0.0912476,1.3676605,0.0912476,2.7353363,0.0912476,4.1029968l0.0912476,2.0062866l-0.4561768,150.9963226v0.3649292
	c0.0912476,1.2764282,0.1824341,2.644104,0.1824341,4.0117798l0.0912476,1.0939636v0.8210754
	c0.0912476,1.3676758,0.0912476,2.735321,0.0912476,4.1029968l0.0912476,1.3676758L950.0317993,379.5090942z"/>
<path fill-rule="evenodd" clip-rule="evenodd" fill="#E63641" d="M327.7193604,563.6866455h13.8591614h390.8076477
	c100.026123,1.2772217,180.9002686-83.4308777,181.62854-182.2779846v-0.820282v-0.2736816v-1.7325745
	c-0.0912476-1.0939941-0.0912476-2.1879883-0.0912476-3.2827148l-0.0912476-0.8203125v-0.911499
	c0-1.0947571-0.0911865-2.1887512-0.1824341-3.1914978l-0.0912476-1.5501404l0.4561768-151.9086151v-1.7325897
	c-0.0912476-1.0947571-0.0912476-2.188736-0.0912476-3.2827148l-0.0912476-0.9115143v-0.8210754
	c0-1.0939789-0.0911865-2.1879578-0.1824341-3.2827148v-0.9115143c-0.9107666-13.6774597-3.4651489-27.2644653-7.3849487-40.3937683
	c-23.133606-76.4873886-94.2585449-129.6478729-174.4090576-129.6478729H341.602478h-13.8599243H218.2332153
	c-100.1181412,0-182.1828918,82.0632095-182.1828918,182.1828918v405.2961426v38.7523804
	c39.1173363-59.2681885,106.3186493-98.4752197,182.1828918-98.4752197h28.72258h64.0090485h16.77771L327.7193604,563.6866455z"/>
<path fill-rule="evenodd" clip-rule="evenodd" fill="#0A4D90" d="M327.7193604,963.9782715h13.8591614h390.2540588
	c100.2086182,0,182.1821289-81.9719849,182.1821289-182.1821289V500.5891113
	c-39.1173706,59.9973145-106.3178711,100.1181641-182.0878296,99.114624h-0.1824341H341.5700073h-13.8591309H218.2015076
	c-99.4802933,0-181.1855469,80.9684448-182.1828918,180.3621826v1.640564c0,1.3684692,0.0912285,2.7353516,0.0912285,4.1950073
	l0.0912285,2.4616699v0.1824341c0,2.1879883,0.1824608,4.3759155,0.3649178,6.5654297
	c6.8383446,94.737915,86.6231384,168.8657227,181.6285553,168.8657227h109.5093689L327.7193604,963.9782715z"/>
<path fill-rule="evenodd" clip-rule="evenodd" fill="#FFFFFF" d="M414.9470825,180.3683472
	c-3.3059082,0.0943298-6.2584839,0.4422302-8.8569641,0.9896088c-3.4651794,0.7290649-6.5592651,1.9629822-9.2033691,3.5131073
	c-2.644104,1.6413574-5.1351318,3.7883453-7.3230896,6.4324493c-1.6413574,1.9142761-3.0700989,3.9468384-4.2553101,6.1355743
	c-1.1852112,2.0967255-2.0990601,4.5305481-2.919342,7.1746521c-0.6386108,2.644104-1.2192383,5.6886902-1.583374,9.1538696
	c-0.3649292,3.3731689-0.544281,7.2998962-0.544281,11.6773682c0,7.841095,0.5380859,14.5758362,1.632843,20.1385193
	c1.1852112,5.6531219,2.9309387,10.272583,5.3926086,14.1018982c1.8237915,2.644104,3.7496643,4.8746033,5.9376221,6.3334961
	c2.0975037,1.6413574,4.2599487,2.7337952,6.6303711,3.463623c2.3712158,0.7290649,4.7624817,1.2524719,7.2241516,1.4349365
	c2.4624023,0.1824646,4.9031982,0.296875,7.2743835,0.296875h28.9947205
	c-0.2736816,1.1852112-0.7058716,2.4685974-1.4349365,3.5625916c-0.6385803,1.1852112-1.5625,2.1400146-2.473999,2.869873
	c-1.1860046,0.820282-2.4500732,1.4658508-3.909729,1.8307495c-1.4588928,0.2737122-2.9448547,0.453064-4.4029846,0.544281
	c-1.4588928,0.0912476-2.7809448,0.0989685-4.0574036,0.0989685h-40.4254456v21.8695679h50.8658142
	c7.020813,0.091217,13.2406311-0.8063965,18.8025513-2.7214355c5.4706726-1.823822,9.9440002-4.9178772,13.4091797-9.2033386
	c1.9150391-2.4616394,3.45047-5.1057739,4.4532471-8.1147766c1.0939636-2.9178162,1.8121948-6.0930481,2.177124-9.6486816
	c0.4561462-3.4651794,0.6849976-7.2202759,0.59375-11.2320557v-62.8903351
	c0.0912476-1.3676605-0.1144104-2.8536224-0.296875-4.4037476c-0.2736816-1.6413574-0.8040466-3.2572021-1.5338745-4.8985596
	c-0.8203125-1.6413574-1.9135132-3.1273041-3.463623-4.4037476c-1.4589233-1.2764435-3.1242371-2.1740417-4.9480591-2.7214203
	c-1.7325745-0.6378326-3.6190186-1.0050812-5.4428406-1.1875305c-1.9142761-0.1824646-3.7674561-0.2891541-5.5912781-0.1979218
	h-37.3074341c-1.1852112-0.0224152-2.3116455-0.0317078-3.4141541,0V180.3683472z M429.2964172,204.7126923
	c0.8094482-0.03479,1.5996094-0.0456085,2.3750305,0h3.8594971c0.820282-0.0912323,1.7109375,0.0154724,2.6224365,0.1979218
	c0.9115295,0.1824646,1.7596436,0.5489197,2.6719666,1.1875305c1.0939636,0.7290649,1.7132568,1.5199738,2.0781555,2.5234985
	c0.3641357,0.9115295,0.445343,2.0387573,0.445343,3.3151855v34.932373h-9.5497131
	c-1.6413574,0-3.3716431-0.0077209-5.1954651-0.0989532c-1.8237915-0.0912323-3.6607666-0.4584656-5.3933411-1.1875305
	c-1.823822-0.5473785-3.3901978-1.7233124-4.8490906-3.3646698c-1.2764282-1.2764435-2.1817627-3.2780762-2.8203735-5.7397156
	c-0.6378479-2.552887-0.989624-5.8348236-0.989624-9.8466034c0.0912476-3.6476288,0.1878967-6.5777893,0.6432495-8.8569794
	c0.3649292-2.2799683,0.8388672-4.0179749,1.3854675-5.2944031c0.5473633-1.2772217,1.0862427-2.1825562,1.632843-2.8203888
	c1.1852112-1.5501251,2.5490112-2.6356049,4.0079041-3.3646545c1.4588928-0.6386108,3.0097961-1.1125488,4.6511536-1.3854523
	c0.8203125-0.0912323,1.6150818-0.1639099,2.4245605-0.1979218V204.7126923z"/>
<rect x="493.9726563" y="151.1942596" fill-rule="evenodd" clip-rule="evenodd" fill="#FFFFFF" width="33.5554276" height="119.9961014"/>
<rect x="544.5911255" y="151.1942596" fill-rule="evenodd" clip-rule="evenodd" fill="#FFFFFF" width="33.5538826" height="20.0596542"/>
<rect x="544.5772095" y="180.3729858" fill-rule="evenodd" clip-rule="evenodd" fill="#FFFFFF" width="33.5554276" height="90.8173676"/>
<path fill-rule="evenodd" clip-rule="evenodd" fill="#FFFFFF" d="M599.2993774,271.1903687h64.9213867
	c1.5493164,0,3.1914673-0.0912476,4.8320313-0.2737122c1.7333984-0.1824341,3.3739624-0.6378174,5.1057739-1.2764282
	c1.7333374-0.5473633,3.3739624-1.5501099,5.0160522-2.735321c2.0054932-1.732605,3.5563965-3.647644,4.6495972-5.7443848
	c1.0947876-2.1887207,1.824646-4.3766785,2.2792358-6.747879c0.3649292-2.3704224,0.6386108-4.6503754,0.5473633-6.9295654
	c0.0912476-1.2764435,0-2.9178009-0.2736816-4.83284c-0.0912476-2.0055084-0.5473633-4.0117798-1.1844482-6.1997375
	c-0.7298584-2.188736-1.7333374-4.2854767-3.1002808-6.3829803c-1.4596558-2.0975037-3.1914673-3.9205475-5.2897339-5.288208
	c-2.0054932-1.4588928-4.284668-2.7353363-6.928772-3.8300934c-2.644165-1.0939789-5.5619507-2.1879578-8.753418-3.2827148
	l-22.9790039-7.6586304c-0.9107666-0.3649139-1.640564-0.6386108-2.0967407-0.8210754
	c-0.4561157-0.1824493-0.9122925-0.3649139-1.2756348-0.455368c-0.2736816-0.1824646-0.7298584-0.3649139-1.1859741-0.5473785
	c-0.5474243-0.1824493-1.2772217-0.4561462-2.2792358-0.7298279c-0.5473633-0.1816864-0.9122925-0.364151-1.3684082-0.7290649
	c-0.2736816-0.1824646-0.5473633-0.7298431-0.5473633-1.3676758c0-0.5473785,0.1824341-1.0027466,0.5473633-1.1852112
	c0.2736816-0.1824493,0.6386108-0.2736816,1.00354-0.3649139c0.7297974-0.1824493,1.3668823-0.1824493,2.0966797-0.1824493
	h1.9143066h49.3303833v-23.2519226h-60.6351318c-3.1914673-0.0912323-6.0180054,0.1824646-8.6621704,0.6386108
	c-2.5528564,0.364151-4.9232788,1.2764435-6.9302979,2.4616547c-2.0967407,1.2764282-3.9197998,3.1002502-5.5619507,5.4706726
	c-1.5493164,2.3711853-2.644104,5.0152893-3.3739014,7.7506256c-0.5458374,2.8265686-0.9107666,5.6531372-0.9107666,8.4797058
	c0,1.5501251,0.1824341,3.1914825,0.3649292,5.0153046c0.1824341,1.8238068,0.5458374,3.6476288,1.0932007,5.3794403
	c0.4561768,1.823822,1.1859741,3.3739471,2.007019,4.9240723c1.1844482,1.823822,2.644165,3.4651794,4.5584106,5.0153046
	c1.824585,1.4588928,4.0125732,2.7353363,6.3829956,3.8293152c2.3703613,1.1852112,5.0145264,2.1879578,7.7498169,3.1002502
	l19.513855,6.3829651c2.3704224,0.7290649,4.2862549,1.3676758,5.6531372,1.8230438
	c1.3684082,0.4561462,2.3704224,0.7298431,3.0090332,1.0035248c0.7297974,0.2729187,1.2771606,0.5466003,1.6420898,0.7290649
	s0.7283325,0.3649139,1.0020142,0.7298431c0.3648682,0.2729034,0.5473633,0.7290497,0.5473633,1.3676605
	c0,0.364151-0.0912476,0.7290649-0.2736816,1.0027466c-0.0912476,0.2736969-0.3649292,0.5473785-0.6386108,0.6378326
	c-0.2721558,0.1824646-0.5458374,0.3649292-1.0020142,0.5473785c-0.3648682,0.0912323-0.7297974,0.1824646-1.003479,0.1824646
	h-49.5112915v24.3459015H599.2993774z"/>
<path fill-rule="evenodd" clip-rule="evenodd" fill="#FFFFFF" d="M701.6000977,271.1903687h33.6466064v-67.2013245h10.5780029
	c1.5493774,0,3.1914673,0.0912323,4.7408447,0.364151c1.6421509,0.2736816,3.1914673,0.8210602,4.7423706,1.5501251
	c1.5493774,0.8210602,3.1002808,1.9150391,4.4671631,3.3739471c1.5509033,1.7325745,2.7353516,3.4651642,3.3739624,5.2889862
	c0.8210449,1.9142761,1.2771606,3.7380829,1.4581299,5.4706726c0.1824341,1.8238068,0.2736816,3.3739471,0.2736816,4.83284
	v46.319809h33.5554199v-59.2689819c0-3.0090179-0.4561768-6.0180511-1.3684692-9.0270691
	c-0.9107056-3.1002655-2.2791748-5.9268188-4.1022339-8.6621704c-1.9142456-2.7353363-4.1950073-5.1065216-7.0215454-7.2032471
	c-3.1915283-2.2799683-6.4742432-3.9205475-9.9378662-4.8328552c-3.3739014-1.0027466-6.8391113-1.5501251-10.3042603-1.6413422
	c-3.4651489-0.1824646-7.0216064-0.2736969-10.3939819-0.1824646H735.248291v-29.1779633h-33.6466675v119.9953308
	L701.6000977,271.1903687z"/>
<path fill-rule="evenodd" clip-rule="evenodd" fill="#FFFFFF" d="M258.636261,271.1903687v-29.1787415h-58.6288452
	c-1.2764282,0.0912323-2.5528717,0-3.9205475-0.0912323c-1.3676605-0.1816864-2.5528717-0.6378326-3.4651642-1.4588928
	c-0.4561462-0.2729187-0.8202972-0.8202972-1.1852112-1.5493622c-0.3649139-0.7298279-0.5473785-1.6413574-0.5473785-2.8273315
	v-13.0388641h65.4694977v-26.0776978h-65.4694977v-9.1183014c0-0.5473785,0-1.0947571,0.0912323-1.823822
	c0-0.7298431,0.1824646-1.3676758,0.4561462-2.0975037c0.2736816-0.7290649,0.7290649-1.3676758,1.3676758-1.9142761
	c0.7290497-0.5473785,1.5501251-1.0035248,2.644104-1.2764435c1.0939789-0.2736816,2.188736-0.3649139,3.3739471-0.3649139
	h59.2689667v-29.1787262h-86.257431c-1.4588928,0-2.9178009,0.0912323-4.6503754,0.3649139
	c-1.6413574,0.1824646-3.3739471,0.6386108-5.1065369,1.3676605c-1.6413574,0.7298431-3.2819366,1.7325897-4.7408295,3.1002655
	c-1.4589081,1.3676605-2.6448822,2.8265686-3.3739471,4.2854614c-0.7298431,1.5501251-1.1852112,3.1002502-1.4589081,4.6503754
	c-0.2736816,1.6413574-0.3649139,3.1914978-0.3649139,4.7416229v82.2464294c0,1.9150543,0.0912323,3.7388611,0.1824646,5.4706726
	c0.1824493,1.6413574,0.7290649,3.3739624,1.4588928,4.9240723c0.8202972,1.6413574,2.0975037,3.1914978,3.8293152,4.7416077
	c1.5501404,1.1852112,3.1914825,2.0967407,4.7416229,2.7353516c1.6413574,0.5473633,3.2827148,0.9115295,4.9240723,1.0939636
	c1.6413422,0.1824646,3.2826996,0.2737122,4.924057,0.2737122h86.4406738H258.636261z"/>
<path fill-rule="evenodd" clip-rule="evenodd" fill="#FFFFFF" d="M365.4033203,271.1903687v-49.512085
	c0-4.6503906-0.2736816-8.9358521-0.9115295-13.1300812c-0.6386108-4.1030121-1.823822-7.9331055-3.4651794-11.3975067
	c-1.6413574-3.4651642-4.0117493-6.4741974-7.11203-9.1183014c-1.5501099-1.2764435-3.4651489-2.5528717-5.8355713-3.7388611
	c-2.2799683-1.1852112-5.1065369-2.0967255-8.2980347-2.8265686c-3.2819214-0.7290649-7.0207825-1.0939789-11.3062439-1.0939789
	h-9.8473816h-6.8391113h-17.5067749c-1.2772217-0.0912323-2.8273315,0-4.467926,0.1824646
	c-1.7325745,0.1824493-3.4651794,0.5466003-5.2890015,1.1852112c-1.7325745,0.5473785-3.464386,1.4588928-5.0145264,2.7353363
	c-1.6413574,1.3676605-2.8273315,2.8265686-3.6476135,4.3766937c-0.8203125,1.6413574-1.3676758,3.1914825-1.6413574,4.9240723
	c-0.2736816,1.6413574-0.3649292,3.3739319-0.3649292,5.1057587v72.3078461h33.1905212v-66.3794861h6.1092834
	c0.5473633-0.0912323,1.1852112-0.0912323,1.8237915-0.0912323h0.2737122h0.091217c0.6378479,0,1.2764282,0,2.0054932,0.0912323
	h2.2799683c6.9295654,0,12.5827026,5.6531372,12.5827026,12.5834808v53.7960052h33.1912842H365.4033203z"/>
<path fill-rule="evenodd" clip-rule="evenodd" fill="#FFFFFF" d="M525.4190063,442.1628418V412.346283h-33.2817383
	c-3.1914978,0-6.2901917,0-9.2080078-0.1824646c-2.919342-0.091217-5.7459106-0.4553833-8.2067871-1.0027466
	c-2.5536499-0.5473633-4.8328247-1.5501404-6.7478638-2.8265686c-2.0055237-1.2764282-3.6468811-3.1002502-4.9233093-5.3794556
	c-0.3649292-0.7298279-0.8210754-1.7325745-1.1859741-3.1002502c-0.4553833-1.4588928-0.9115295-3.4651489-1.2764587-6.2005005
	c-0.2736816-2.644104-0.4553528-6.2005005-0.4553528-10.5772095c0-1.5501099,0-3.1914673,0.091217-5.0152893
	c0.0904541-1.8230591,0.2729187-3.8293152,0.5466003-5.7443542c0.2736816-2.0055237,0.7298279-3.9205627,1.2764587-5.7443848
	c0.4561462-1.9150391,1.1851807-3.6468506,2.0062561-5.1065369c1.3676758-2.3703918,2.9177856-4.2854614,4.7416077-5.5618896
	c1.8230591-1.2764282,3.9205627-2.2791748,6.1997375-2.8265686c2.2792053-0.5466003,4.8336182-0.820282,7.5689697-0.9115295
	c2.735321-0.1824341,5.7443542-0.1824341,8.9358521-0.1824341h32.0044861V322.167511h-50.6972656
	c-3.3731689,0-7.0207825,0.1824646-10.7588806,0.4561462c-3.7388611,0.3641663-7.4769592,1.0939941-11.2158203,2.0967407
	c-3.7380676,1.0035095-7.2944946,2.644104-10.7588806,4.7416077c-3.3739319,2.0062866-6.4742126,4.8328552-9.3007813,8.2972412
	c-2.8265686,3.647644-4.9240723,7.7506409-6.4741821,12.3097839c-1.5501404,4.5591736-2.552887,9.6656799-3.1002502,15.2276001
	c-0.6378479,5.5618896-0.9115295,11.7624207-0.8203125,18.4190674c0,5.7443542,0.1824646,10.8508911,0.7290649,15.2276001
	c0.4561462,4.4678955,1.0939941,8.4796753,2.0062866,11.9448547c0.9115295,3.3731689,2.0967407,6.4734192,3.464386,9.1183167
	c1.3684387,2.735321,2.9185791,5.196991,4.7416382,7.3857117c3.1914673,4.0117798,6.8391113,7.11203,10.7596436,9.2999878
	c4.0117798,2.0975037,8.4797058,3.5563965,13.4949951,4.376709c4.9240723,0.7298279,10.4859924,1.0947571,16.68573,1.0947571
	h53.1589355V442.1628418z"/>
<rect x="542.4711914" y="322.166748" fill-rule="evenodd" clip-rule="evenodd" fill="#FFFFFF" width="33.5554276" height="119.9961014"/>
<path fill-rule="evenodd" clip-rule="evenodd" fill="#FFFFFF" d="M592.9813843,351.3408508v49.5120544
	c0,4.5591736,0.2736816,8.9358521,0.9122925,13.0388794c0.6370239,4.1942139,1.822998,8.0243225,3.463623,11.4887085
	c1.6420898,3.4651794,4.0125122,6.4742126,7.112793,9.0270691c1.5509033,1.3676758,3.4651489,2.644104,5.8355713,3.7388611
	c2.2792358,1.1852112,5.1057739,2.1879578,8.2972412,2.9178162c3.2827148,0.7290649,7.0216064,1.0939636,11.3062744,1.0939636
	h9.756897h6.9303589h17.5067749c1.2772217,0,2.8265991-0.091217,4.468689-0.1824646
	c1.7318115-0.1824341,3.46521-0.5473633,5.288208-1.1852112c1.7318115-0.6385803,3.46521-1.5501099,5.0145264-2.735321
	c1.6421509-1.3676758,2.8265991-2.8265686,3.647644-4.467926c0.821106-1.5501404,1.3668823-3.1002502,1.640625-4.8328552
	c0.2736816-1.6413574,0.3648682-3.3739319,0.3648682-5.1065063v-72.3078613h-33.1904907v66.380249h-6.1092529
	c-0.5474243,0.0912476-1.1844482,0.0912476-1.8230591,0.0912476h-0.2736816h-0.0912476
	c-0.6386108,0-1.2772217,0-2.0054932-0.0912476h-2.2807617c-6.928772,0-12.5819092-5.6531372-12.5819092-12.5834656v-53.7967834
	h-33.1904907V351.3408508z"/>
<path fill-rule="evenodd" clip-rule="evenodd" fill="#FFFFFF" d="M701.8536377,322.1752625V425.736908
	c0,2.0975037,0.2938232,4.1138306,0.8411865,5.9376526c0.6386108,1.823822,1.6096802,3.5540771,3.0678101,5.1954346
	c1.5509033,1.5501404,3.1172485,2.7337952,4.8490601,3.463623c1.6421509,0.820282,3.265686,1.2601929,4.9974976,1.533905
	c1.6421509,0.1824341,3.2919922,0.296875,4.7501221,0.296875h39.9306641c2.2807617,0,4.8428955-0.0804138,7.6694946-0.4453125
	c2.828064-0.2737122,5.7427979-1.0259705,8.6605835-2.028717c3.0090332-1.0027466,5.8232422-2.5458984,8.5585327-4.5521851
	c2.7369385-2.0062866,5.1274414-4.6418762,7.2241821-8.0158081c1.1859741-2.0975342,2.2559814-4.5460205,3.166748-7.3725891
	c0.9122925-2.8265686,1.5817871-6.2066956,2.1291504-9.9455566c0.4546509-3.8293152,0.7422485-8.2454529,0.7422485-13.2607422
	c0-3.1002502-0.1237183-6.3396606-0.395874-9.8960876c-0.1824341-3.464386-0.7221069-7.0323792-1.6328125-10.5887756
	c-0.9122925-3.4644165-2.2915649-6.8530579-4.2058716-10.0445251c-2.1895142-3.4644165-4.6295166-6.207489-7.2736206-8.2137451
	c-2.7352905-2.0054932-5.5928345-3.4419861-8.5106201-4.3542786c-3.0090332-0.9115295-5.881958-1.5570984-8.7085571-1.83078
	c-2.8265381-0.1824646-5.4969482-0.388092-7.8673706-0.296875h-24.3442993v-29.143158h-33.6466675H701.8536377z
	 M735.5003052,374.9708252h15.2399902c0.9122925,0,2.0966797,0.0726624,3.463623,0.346344
	c1.3684082,0.2736816,2.7399292,1.0259399,4.1068726,2.028717c1.3684082,1.0027466,2.5606079,2.5536499,3.562561,4.6511536
	c0.2736816,0.5473633,0.5257568,1.3305359,0.890625,2.42453c0.3649292,1.1852112,0.6664429,2.7361145,0.9401245,4.6511536
	c0.2737427,1.9150391,0.4453735,4.2986145,0.4453735,7.1251831c0,3.0090027-0.1716309,5.564209-0.4453735,7.5704956
	c-0.1824341,2.0054932-0.5751953,3.6716003-0.9401245,4.9480286c-0.3648682,1.2764282-0.7236328,2.2807312-1.088562,2.919342
	c-0.5473633,1.2764282-1.371521,2.3534241-2.375061,3.2657166c-0.9107056,0.911499-2.2018433,1.6297607-3.661499,2.177124
	c-1.5493774,0.4561462-3.3600464,0.742218-5.6408081,0.742218h-6.8282471c-0.819519,0-1.824585-0.0162354-2.9193726-0.197937
	c-1.0932007-0.1824646-2.2049561-0.6069031-3.1172485-1.335968c-0.5473633-0.5473633-0.9138794-1.307373-1.187561-2.127655
	c-0.1824341-0.9122925-0.3540649-1.7032166-0.4453125-2.5234985v-2.0286865V374.9708252z"/>
<path fill="#FFFFFF" d="M649.8080444,699.9680176h-21.1528931h-39.2085571H447.5678101v43.4019775h62.3684692v131.2095947
	h56.3504028V743.3699951h40.9419556l42.8562012,104.9494629c1.5493164,3.8300781,3.3723755,7.4777222,5.5618896,10.8516235
	c2.1879272,3.3739624,5.0145264,6.3829956,8.2972412,8.9358521c3.3739014,2.644104,7.4761353,4.6496582,12.3097534,6.109314
	c4.9233398,1.5493164,10.7589111,2.2791748,17.68927,2.2791748c6.928772,0,12.7644043-0.7298584,17.689209-2.2791748
	c4.9233398-1.4596558,8.9358521-3.46521,12.3098145-6.109314c3.3723755-2.5528564,6.1092529-5.5618896,8.2972412-8.9358521
	c2.2791748-3.3739014,4.1022339-7.0215454,5.6531372-10.8516235l60.5454102-148.3514404h-60.3629761l-40.850708,118.4451904
	c-0.5457764,1.4596558-1.0932007,2.4616089-1.7318115,3.0090332c-0.6385498,0.5473633-1.0947266,0.8210449-1.5493164,0.7297974
	c-0.3649292,0.0912476-0.9122925-0.1824341-1.5509033-0.7297974c-0.6386108-0.5474243-1.1859741-1.5493774-1.640564-3.0090332
	l-40.9419556-118.4451904H649.8080444z"/>
</svg>
