<svg xmlns="http://www.w3.org/2000/svg" xmlns:xlink="http://www.w3.org/1999/xlink" viewBox="0 0 283.46 283.46"><defs><style>.cls-1{fill:url(#linear-gradient);}.cls-2{fill:#fff;}.cls-3{fill:#2f1653;}</style><linearGradient id="linear-gradient" x1="-10.81" y1="233.02" x2="283.36" y2="56.97" gradientUnits="userSpaceOnUse"><stop offset="0" stop-color="#2f1653"/><stop offset="1" stop-color="#b067a9"/></linearGradient></defs><g id="Layer_2" data-name="Layer 2"><g id="Viasat"><g id="epicdrama"><rect class="cls-1" width="283.46" height="283.46"/><g id="logo"><path class="cls-2" d="M72.85,220.7h6.67c6.23,0,10.68,4.45,10.68,10s-4.45,10-10.68,10H72.85v-20Zm6.67,18.91c5.56,0,9.12-3.78,9.12-8.67,0-4.68-3.56-8.68-9.12-8.68H74.4v17.35Z"/><path class="cls-2" d="M100.87,220.7h8.46c2.44,0,4.44.67,5.56,2a5.35,5.35,0,0,1,1.55,3.78c0,3.33-2.44,5.34-6,5.78l6.67,8.67h-2l-6.45-8.22H102v8.22h-1.12Zm8.46,10.46c3.33,0,5.78-1.78,5.78-4.67,0-2.67-2.23-4.45-5.78-4.45h-6.9v9.12Z"/><path class="cls-2" d="M137.57,220.7h1.34l9.34,20.24h-1.56L144,235.38H132.24l-2.45,5.56h-1.56Zm6,13.13-5.34-11.57-5.34,11.57Z"/><path class="cls-2" d="M159.59,220.7h1.34l8,12,8-12h1.34v20h-1.56V223.15l-8,11.57h-.22l-7.56-11.35v17.57h-1.34Z"/><path class="cls-2" d="M199.41,220.7H201l9.35,20.24h-1.56l-2.67-5.56H194.29l-2.67,5.56h-1.55Zm6,13.13-5.33-11.57-5.34,11.57Z"/><rect class="cls-3" x="72.18" y="187.12" width="139.24" height="27.14"/><path class="cls-2" d="M80.19,191.13h14.9v4.45H85.3v2.67h8.9v4H85.3v2.89h10v4.45H80.19Z"/><path class="cls-2" d="M118.44,191.56h8c4.67,0,7.56,2.45,7.56,6.45,0,4.45-3.33,6.67-8,6.67h-2.45V210h-5.12Zm7.57,9.12c1.78,0,2.89-.89,2.89-2.45s-1.11-2.44-2.89-2.44h-2.45v4.89Z"/><path class="cls-2" d="M156.7,191.56h5.12V210H156.7Z"/><path class="cls-2" d="M185.39,200.69a9.55,9.55,0,0,1,9.79-9.57,8.91,8.91,0,0,1,7.79,3.79l-3.79,2.89a5,5,0,0,0-4-2.23c-2.67,0-4.45,2.23-4.45,4.9s1.78,4.89,4.45,4.89a5.09,5.09,0,0,0,4.23-2.22l3.78,2.66A9.23,9.23,0,0,1,195,210a9.05,9.05,0,0,1-9.57-9.34Z"/><path class="cls-2" d="M170.94,126c5.34-2.45,16.23-8.23,19.35-9.56,2.67-1.12,7.12-3.12,12.23-2.89a9.17,9.17,0,0,1,6.23,3.33c4.23,5.56,3.78,11.57-2.45,16.24-3.56,2.67-9.34,1.56-10-1.78-.44-3.11-3.33-.45-6.45,1.78-2,1.33-20.68,14-29.8,20.24s-25.8,18.68-40.26,24.47c-9.57,4.44-17.57,4-22.47,3.78C82.63,181.11,72.4,172,72,158.2c-.67-16.23,23.8-29.36,25.35-30.47,5.34-3.56,19.58-10.68,25.14-13.79l-4.9-.22c-19.57.44-24.46-11.35-23.8-20.91.45-6.67,5.79-17.35,36.48-33.14,2-1.11,16.46-8.9,26.91-12.9,7.34-2.89,14.91-4.45,18.47-4.23,8,.45,14.9,8.68,14.45,15.13-.66,8-3.78,13.79-6.67,14.9-4,1.78-8,.44-11.12.44s-5.56.23-14.9,4c-1.78.66-8.9,3.78-14.24,6.45-5.56,2.67-12.23,6.45-12.23,8-.22,2.9,10,.45,14.23-.22,4.45-.44,6-1.33,10.68-1.33,5.12,0,15.57.66,11.57,15.79-1.56,5.78-1.12,7.34-3.12,8.9-1.11,1.33-2.22,1.33-5.11.89-2.67-.45-11.57,5.78-26.69,16.9-15.8,11.57-21.14,16.9-21.58,18.46-.67,2.23.44,4.89,23.13-6C156.92,134,165.6,128.17,170.93,126Z"/></g></g></g></g></svg>