<?xml version="1.0" encoding="utf-8"?>
<!-- Generator: Adobe Illustrator 22.0.1, SVG Export Plug-In . SVG Version: 6.00 Build 0)  -->
<svg version="1.1" id="Layer_1" xmlns="http://www.w3.org/2000/svg" xmlns:xlink="http://www.w3.org/1999/xlink" x="0px" y="0px"
	 width="1000px" height="1003.6715088px" viewBox="0 0 1000 1003.6715088" enable-background="new 0 0 1000 1003.6715088"
	 xml:space="preserve">
<g>
	<path fill="#D91D52" d="M879.1896362,177.9656067c11.3818359-9.6100769,21.5540771-16.3961334,26.7887573-16.664505
		c31.2512207-1.6012878,15.5698242,46.9241791,58.5296021,44.723053
		c24.9962769-1.2801819,35.0428467-20.8440399,35.4920044-44.0530548V27.0839329
		c-0.461853-9.0107136-3.3122559-15.5312157-7.7366333-20.2282009C987.3794556,2.6375809,980.7416992,0.0720368,971.7196655,0
		L830.1844482,0.235885c-23.4651489-0.1873897-42.3293457,11.3874559-42.5289917,36.4157524
		c-0.3432617,43.0144157,47.4594727,25.2524109,47.2089844,56.5431938
		c-0.0404663,5.0924835-6.013855,15.1027679-14.7086792,26.47892C733.4174194,47.2772942,621.8155518,3.67152,500.0004578,3.67152
		C223.8577271,3.67152,0,227.5287781,0,503.6719971c0,276.1422729,223.8577271,499.9995117,500.0004578,499.9995117
		C776.1427612,1003.6715088,1000,779.81427,1000,503.6719971C1000,379.2160339,954.4238281,265.4737854,879.1896362,177.9656067z"/>
	<g>
		<path fill="#FFFFFF" d="M282.0831909,545.1953125v36.1643066H142.716568V386.6381836h137.6956635v36.161499h-99.0284119
			v41.4493713h78.1669312v33.9354248h-78.1669312v47.0108337H282.0831909z"/>
		<path fill="#FFFFFF" d="M433.1155396,581.3596191L394.4482727,514.87677c-0.8347778,0-1.3880005,0-2.2223206,0h-29.4865723
			v66.4828491h-38.6672363V386.6381836h68.1538086c47.8455811,0,76.4955139,25.8701172,76.4955139,65.0929565
			c0,26.7049255-13.0735168,46.1764832-36.7171021,55.9127502l44.5079041,73.7157288H433.1155396z M362.7393799,480.3810425
			h34.4928894c21.4175415,0,31.4343872-13.9078064,31.4343872-28.6499023c0-15.3000488-10.2937012-28.9314575-31.4343872-28.9314575
			h-34.4928894V480.3810425z"/>
		<path fill="#FFFFFF" d="M589.9946289,382.7425232c55.9127197,0,101.2549438,42.5605469,101.2549438,101.2573242
			c0,58.6925354-45.3422241,101.2549133-101.2549438,101.2549133c-55.9122925,0-100.9804688-42.5623779-100.9804688-101.2549133
			C489.0141602,425.3030701,534.0823364,382.7425232,589.9946289,382.7425232z M589.9946289,547.1454468
			c35.8832397,0,60.9190674-25.8706055,60.9190674-63.1455994c0-37.5537415-25.0358276-63.147522-60.9190674-63.147522
			c-35.605957,0-60.6445923,25.5937805-60.6445923,63.147522
			C529.3500366,521.2748413,554.3886719,547.1454468,589.9946289,547.1454468z"/>
		<path fill="#FFFFFF" d="M785.5301514,514.0424805c-0.2768555,0-10.8469849,18.0793457-14.1846924,23.0856323
			l-31.1575317,44.2315063h-46.1769409l68.1519165-99.8627014l-64.2567749-94.8587341h46.4533691l30.0426025,44.7842407
			c2.7839966,4.4507446,10.8511963,18.9164734,11.1280518,18.9164734h0.2810669
			c0.2763672,0,8.0671387-14.4657288,10.8469238-18.9164734l30.0421753-44.7842407h46.734436l-64.5374146,94.8587341
			l68.1514893,99.8627014h-46.1765137l-31.1533203-44.2315063c-3.3372192-5.0062866-13.6314087-23.0856323-13.9077759-23.0856323
			H785.5301514z"/>
	</g>
</g>
</svg>
