<?xml version="1.0" encoding="utf-8"?>
<!-- Generator: Adobe Illustrator 22.0.1, SVG Export Plug-In . SVG Version: 6.00 Build 0)  -->
<svg version="1.1" id="Layer_1" xmlns="http://www.w3.org/2000/svg" xmlns:xlink="http://www.w3.org/1999/xlink" x="0px" y="0px"
	 width="1000px" height="1003.6715088px" viewBox="0 0 1000 1003.6715088" enable-background="new 0 0 1000 1003.6715088"
	 xml:space="preserve">
<g>
	<path fill="#D91D52" d="M879.1896362,177.9656067c11.3823242-9.6100769,21.5540771-16.3961334,26.7887573-16.664505
		c31.2512207-1.6012878,15.5698242,46.9241791,58.5300903,44.723053
		c24.9957886-1.2801819,35.0423584-20.8440399,35.4915161-44.0530548V27.0839329
		c-0.461853-9.0107136-3.3122559-15.5312157-7.7366333-20.2282009C987.3794556,2.6375809,980.7416992,0.0720368,971.7196655,0
		l-141.53479,0.235885c-23.4655762-0.1873897-42.3297729,11.3874559-42.5289307,36.4157524
		c-0.34375,43.0144157,47.4589844,25.2524109,47.2084961,56.5431938c-0.039978,5.0924835-6.013855,15.1027679-14.7086792,26.47892
		C733.4174194,47.2772942,621.8155518,3.67152,500.0004578,3.67152C223.8582001,3.67152,0,227.5287781,0,503.6719971
		c0,276.1422729,223.8582001,499.9995117,500.0004578,499.9995117S1000,779.81427,1000,503.6719971
		C1000,379.2160339,954.4238281,265.4737854,879.1896362,177.9656067z"/>
	<g>
		<path fill="#FFFFFF" d="M369.1021729,405.199646v36.1638489H229.7374268V246.6420593H367.433075v36.1619568h-99.0283813
			v41.4489136h78.1645813v33.9354248h-78.1645813v47.0112915H369.1021729z"/>
		<path fill="#FFFFFF" d="M520.1340332,441.3634949l-38.6630249-66.4828491c-0.8390198,0-1.3917542,0-2.226532,0h-29.4889221
			v66.4828491h-38.6625671V246.6420593h68.1514893c47.8455505,0,76.4959412,25.8701172,76.4959412,65.0929565
			c0,26.7049255-13.0734863,46.1769714-36.7175293,55.9127502l44.5078735,73.7157288H520.1340332z M449.7555542,340.3854065
			h34.4952393c21.417511,0,31.4343872-13.9078064,31.4343872-28.6503906c0-15.3000488-10.2937317-28.9309998-31.4343872-28.9309998
			h-34.4952393V340.3854065z"/>
		<path fill="#FFFFFF" d="M677.0112305,242.7468872c55.9122925,0,101.2549438,42.5600586,101.2549438,101.2572937
			c0,58.6920776-45.3426514,101.2549438-101.2549438,101.2549438c-55.9127197,0-100.9785767-42.5628662-100.9785767-101.2549438
			C576.0326538,285.3069458,621.0985107,242.7468872,677.0112305,242.7468872z M677.0112305,407.149353
			c35.8828125,0,60.9186401-25.8701477,60.9186401-63.1451721c0-37.5541992-25.0358276-63.1479797-60.9186401-63.1479797
			c-35.6063843,0-60.6427002,25.5937805-60.6427002,63.1479797
			C616.3685303,381.2792053,641.4048462,407.149353,677.0112305,407.149353z"/>
	</g>
	<g>
		<path fill="#FFFFFF" d="M314.3048096,631.3117065c-0.2810974,0-10.8516541,18.0797729-14.1889038,23.0861206
			l-31.1556396,44.2315063h-46.1764984l68.1538239-99.8631592l-64.258667-94.8564148h46.4556885l30.0421753,44.7799988
			c2.7797546,4.453125,10.8469238,18.9188232,11.1280212,18.9188232h0.2768555
			c0.2763672,0,8.0671692-14.4656982,10.8469238-18.9188232l30.046875-44.7799988h46.7297058l-64.5331421,94.8564148
			l68.1519165,99.8631592h-46.1769409l-31.1575623-44.2315063c-3.3377075-5.0063477-13.6314087-23.0861206-13.9077759-23.0861206
			H314.3048096z"/>
		<path fill="#FFFFFF" d="M503.9996948,631.3117065c-0.2768555,0-10.8469543,18.0797729-14.1846619,23.0861206l-31.15802,44.2315063
			h-46.1764832l68.1514587-99.8631592l-64.2562866-94.8564148h46.4533386l30.0421448,44.7799988
			c2.7844849,4.453125,10.8516541,18.9188232,11.1285095,18.9188232h0.2810669
			c0.2763977,0,8.0671997-14.4656982,10.8469849-18.9188232l30.0444946-44.7799988h46.734436l-64.5397949,94.8564148
			l68.1538696,99.8631592h-46.1765137l-31.1556396-44.2315063c-3.3377075-5.0063477-13.6314392-23.0861206-13.9078369-23.0861206
			H503.9996948z"/>
		<path fill="#FFFFFF" d="M693.7011719,631.3117065c-0.2768555,0-10.8469238,18.0797729-14.1846313,23.0861206l-31.15802,44.2315063
			h-46.1765137l68.1514893-99.8631592l-64.2563477-94.8564148h46.4533691l30.0421753,44.7799988
			c2.7844238,4.453125,10.8516235,18.9188232,11.128479,18.9188232h0.2810669
			c0.2763672,0,8.0671997-14.4656982,10.8469238-18.9188232l30.0421753-44.7799988h46.734436l-64.5374146,94.8564148
			l68.1514893,99.8631592H739.043335l-31.1532593-44.2315063c-3.3377075-5.0063477-13.6314697-23.0861206-13.9078369-23.0861206
			H693.7011719z"/>
	</g>
</g>
</svg>
