<svg xmlns="http://www.w3.org/2000/svg" viewBox="0 0 283.46 283.46"><defs><style>.cls-1{fill:#fff;}.cls-2{fill:#469cdb;}</style></defs><g id="Layer_2" data-name="Layer 2"><g id="Sport"><g id="esportstv"><rect width="283.46" height="283.46"/><g id="logo"><circle class="cls-1" cx="141.55" cy="121.07" r="56.65"/><path class="cls-2" d="M141.78,64.2A56.74,56.74,0,0,0,97.81,85h37.44v15.37H88.78a56.52,56.52,0,0,0-3.43,13.51h34v15.38H85.5a55.53,55.53,0,0,0,3.7,13.51h46.05v15.38H98.67a56.87,56.87,0,1,0,43.11-94"/><path class="cls-1" d="M42.52,218.91V195H60.14v4.56H47.75v5H58.44v4.25H47.75v5.67H60.48v4.52Z"/><path class="cls-1" d="M80.55,212.06a6.49,6.49,0,0,1-2.4,5.14,9.27,9.27,0,0,1-6.27,2.06,13.42,13.42,0,0,1-3.24-.38,12.05,12.05,0,0,1-2.58-.89,16.41,16.41,0,0,1-1.81-1,7.68,7.68,0,0,1-1.16-.91l-.35-.38,3.09-3.32c.06.07.17.16.3.29a8.4,8.4,0,0,0,.86.65,9.22,9.22,0,0,0,1.35.8,10.75,10.75,0,0,0,1.75.64,7.81,7.81,0,0,0,2.07.28,3.45,3.45,0,0,0,2.2-.66,2.05,2.05,0,0,0,.85-1.7A2.72,2.72,0,0,0,74,210.5a18.41,18.41,0,0,0-4.28-2.21Q64,206.07,64,201.41a6.11,6.11,0,0,1,2.29-4.9,9.1,9.1,0,0,1,6-1.92,12.07,12.07,0,0,1,2.84.33,10.43,10.43,0,0,1,2.28.77,16.16,16.16,0,0,1,1.63.89,6.41,6.41,0,0,1,1,.75l.35.34L77.4,201l-.64-.59a8,8,0,0,0-1.71-1,6.08,6.08,0,0,0-2.62-.6,3.49,3.49,0,0,0-2.24.65,1.9,1.9,0,0,0-.8,1.5,2.33,2.33,0,0,0,.9,1.84,13,13,0,0,0,3.41,1.73c4.57,1.78,6.85,4.29,6.85,7.5"/><path class="cls-1" d="M86.35,196.15V208.3h7.77A7,7,0,0,0,99,206.59a5.6,5.6,0,0,0,1.88-4.35A5.66,5.66,0,0,0,99,197.88a7,7,0,0,0-4.89-1.73ZM85,195h9.34A8.08,8.08,0,0,1,100,197a7.13,7.13,0,0,1,0,10.38,8.15,8.15,0,0,1-5.75,2.09h-7.9v9.41H85Z"/><path class="cls-1" d="M110.57,214.8a11.13,11.13,0,0,0,15.58,0,11.38,11.38,0,0,0,0-15.74,11.13,11.13,0,0,0-15.58,0,11.38,11.38,0,0,0,0,15.74m-.94-16.6a12.48,12.48,0,0,1,17.49,0,11.83,11.83,0,0,1,3.56,8.73,12.32,12.32,0,1,1-21.05-8.7"/><path class="cls-1" d="M167.16,196.15v22.76h-1.37V196.15H157.4V195h18.14v1.2Z"/><path class="cls-1" d="M137.88,196.15v11.63h8.05a6.71,6.71,0,0,0,4.7-1.63,5.75,5.75,0,0,0,0-8.36,6.67,6.67,0,0,0-4.7-1.64Zm-1.37-1.2h9.62a7.83,7.83,0,0,1,5.53,2,6.53,6.53,0,0,1,2.14,5,6.67,6.67,0,0,1-1.78,4.64,7.64,7.64,0,0,1-4.66,2.34l7.46,10h-1.71L145.69,209h-7.81v9.93h-1.37Z"/><path class="cls-1" d="M181.74,203.45a11.29,11.29,0,0,0,4.45,2.17,14.13,14.13,0,0,1,5.63,2.88,5.7,5.7,0,0,1,1.87,4.35,5.85,5.85,0,0,1-2.06,4.59,8.15,8.15,0,0,1-5.57,1.8,12.65,12.65,0,0,1-2.93-.32,11.5,11.5,0,0,1-2.29-.77,15.08,15.08,0,0,1-1.59-.89,6.47,6.47,0,0,1-1-.76l-.3-.34,1-1,.28.3c.14.12.43.35.9.68a9.8,9.8,0,0,0,1.48.85,11.33,11.33,0,0,0,2.08.67,11.58,11.58,0,0,0,2.68.31,6.4,6.4,0,0,0,4.33-1.42,4.47,4.47,0,0,0,1.66-3.54,4.78,4.78,0,0,0-1.52-3.65,14.15,14.15,0,0,0-5.3-2.59,12.29,12.29,0,0,1-4.79-2.54,4.89,4.89,0,0,1-1.74-3.75,5.28,5.28,0,0,1,2-4.19,7.93,7.93,0,0,1,5.3-1.69,11.44,11.44,0,0,1,3.9.64,8.35,8.35,0,0,1,2.49,1.27l.69.65-1,1a6.08,6.08,0,0,0-.71-.66,9.06,9.06,0,0,0-2-1,8.82,8.82,0,0,0-3.34-.63,6.49,6.49,0,0,0-4.43,1.36,4,4,0,0,0-1.56,3.09,4.11,4.11,0,0,0,1.4,3.13"/><path class="cls-1" d="M208.45,199.5v19.4h-5.19V199.5h-7V195h19.17v4.55Z"/><path class="cls-1" d="M216.64,195h5.88l6.41,17.22,6.4-17.22h5.61l-9.55,24h-5.2Z"/></g></g></g></g></svg>