<?xml version="1.0" encoding="utf-8"?>
<!-- Generator: Adobe Illustrator 23.0.3, SVG Export Plug-In . SVG Version: 6.00 Build 0)  -->
<svg version="1.1" id="Layer_1" xmlns="http://www.w3.org/2000/svg" xmlns:xlink="http://www.w3.org/1999/xlink" x="0px" y="0px"
	 viewBox="0 0 1000 100.5" style="enable-background:new 0 0 1000 100.5;" xml:space="preserve">
<style type="text/css">
	.st0{fill:#1D0F44;}
	.st1{fill:#E40138;}
	.st2{display:none;fill:#FFFFFF;}
	.st3{fill:#FFFFFF;}
</style>
<g>
	<polygon class="st0" points="86.1,98.7 53.6,77.4 3.3,98.7 32.9,63.9 0,42.3 51.3,42.3 86.1,1.5 86.1,42.3 135.8,42.3 86.1,63.5 	
		"/>
	<path class="st0" d="M147.8,21.5c1.7,0,3.2-1.4,3.2-3.2l0-13.7c0-1.7-1.4-3.2-3.2-3.2H94.5v20L147.8,21.5z"/>
	<path class="st0" d="M147.8,98.9c1.7,0,3.2-1.4,3.2-3.2l0-13.7c0-1.7-1.4-3.2-3.2-3.2H94.5v20L147.8,98.9z"/>
	<path class="st0" d="M862.9,1.5h-66.6c-1.7,0-3.2,1.4-3.2,3.2v13.7c0,1.7,1.4,3.2,3.2,3.2h23.3V96c0,1.7,1.4,3.2,3.2,3.2h13.7
		c1.7,0,3.2-1.4,3.2-3.2V21.6h23.3c1.7,0,3.2-1.4,3.2-3.2V4.7C866,3,864.6,1.5,862.9,1.5"/>
	<path class="st0" d="M597.5,23.3c-1.6-4.3-3.9-8.1-7-11.3c-3.1-3.2-6.8-5.8-11.2-7.7c-4.4-1.9-9.4-2.9-14.8-2.9h-36.2
		c-1.7,0-3.2,1.4-3.2,3.2v91.2c0,1.7,1.4,3.2,3.2,3.2H542c1.7,0,3.2-1.4,3.2-3.2l0-23.4h19.4c5.4,0,10.4-0.9,14.7-2.8
		c4.3-1.9,8.1-4.4,11.1-7.6c3.1-3.2,5.4-6.9,7-11.1c1.6-4.2,2.4-9.5,2.4-14.1C599.9,32.1,599.1,27.6,597.5,23.3 M578.7,43.2
		c-0.7,1.9-1.7,3.6-3,5c-1.3,1.4-2.7,2.2-4.4,3c-1.7,0.8-4.7,1.2-10.7,1.2h-15.4V21.5h20.2c2.2,0,4.1,0.4,5.9,1.2
		c1.8,0.8,3.3,1.9,4.6,3.2c1.3,1.3,2.2,2.9,2.9,4.8c0.7,1.9,1.1,4.1,1.1,6.3C579.8,39.1,579.4,41.2,578.7,43.2"/>
	<path class="st0" d="M461.4,29.4c-0.1,2,0.4,3.2,1.2,4.3c0.9,1.2,2.1,2.3,3.6,3.1c1.7,0.9,3.7,1.6,6,2.1c2.5,0.5,5,1,7.6,1.5
		c4.6,0.7,9.2,1.6,13.6,2.7c4.6,1.1,8.6,2.8,12.1,5c3.6,2.3,6.4,5.4,8.4,9.1c2.1,3.8,3,8.6,2.7,14.3c-0.2,5.6-1.7,10.3-4.2,14.1
		c-2.5,3.7-5.8,6.8-9.6,9c-3.8,2.2-7.6,3.9-12.2,4.7c-4.6,0.8-9.7,1.1-14.1,0.9c-11.1-0.5-27.4-6.9-35.7-18.1
		c-0.6-0.9-1.5-2.4,0.3-4.2c1.8-1.8,10.2-10.4,10.2-10.4c1.7-1.8,3.4-0.5,4.1,0.5c4.8,7,14.4,12.3,21.9,12.6c3.9,0.2,4.4,0,6.9-0.3
		c2.2-0.3,4.2-0.9,6.1-1.7c1.7-0.8,3.1-1.8,4.3-3.3c1-1.3,1.6-3.2,1.8-5.4c0.1-2.1-0.4-3.8-1.4-5.2c-1.1-1.5-2.5-2.6-4.3-3.5
		c-2-1-4.2-1.7-6.7-2.1c-2.7-0.5-5.3-0.9-7.9-1.3c-4.3-0.5-8.5-1.4-12.6-2.6c-4.2-1.2-8-2.9-11.3-5.1c-3.4-2.2-6.1-5.2-8.1-8.6
		c-2-3.6-3-7.6-2.7-12.8c0.2-5.2,1.5-9.7,3.8-13.5c2.3-3.7,5.3-6.8,8.9-9.2c3.5-2.3,7.6-4,12.1-5c8.7-2,17.5-1.7,26.2,1.1
		c9.3,3,16.9,10.1,20.3,15.2c0.6,0.9,1.3,2.4-0.1,3.9c-1.4,1.5-9.6,9.6-9.6,9.6c-1.8,1.7-3.6,1.3-4.6-0.2
		c-5.1-7.4-11.6-10.8-19.1-11.3C470.9,19.1,461.8,20.9,461.4,29.4"/>
	<path class="st0" d="M419.6,13.2c-4.5-4.3-9.8-7.6-15.8-9.8C397.9,1.2,391.5,0,384.9,0c-6.5,0-12.8,1.1-18.8,3.3
		c-6,2.2-11.4,5.5-15.9,9.8c-4.6,4.3-8.2,9.6-10.9,15.9c-2.7,6.2-4,13.3-4,21.2c0,7.9,1.3,15.1,4,21.2c2.6,6.2,6.3,11.5,10.8,15.8
		c4.5,4.3,9.8,7.6,15.8,9.8c5.9,2.2,12.3,3.3,18.9,3.3c7.2,0,14-1.2,20.1-3.6c6.1-2.4,11.4-5.9,15.8-10.4c4.4-4.4,7.8-9.8,10.3-15.9
		c2.4-6.1,3.7-13,3.7-20.3c0-7.8-1.4-14.9-4-21.2C427.7,22.9,424.1,17.5,419.6,13.2 M411.6,63.8c-1.5,3.8-3.6,6.9-6.3,9.5
		c-2.6,2.5-5.7,4.5-9.2,5.7c-3.5,1.3-7.4,2-11.4,2c-4.1,0-8-0.7-11.5-2c-3.5-1.3-6.5-3.2-9-5.7c-2.6-2.5-4.6-5.7-6.2-9.5
		c-1.5-3.8-2.3-8.3-2.3-13.4c0-5.1,0.8-9.6,2.3-13.4c1.5-3.8,3.6-7,6.2-9.5c2.6-2.5,5.7-4.5,9.2-5.8c3.5-1.3,7.4-2,11.5-2
		c4,0,7.8,0.7,11.3,2c3.5,1.3,6.6,3.3,9.1,5.8c2.6,2.6,4.7,5.8,6.3,9.6c1.6,3.8,2.3,8.3,2.3,13.2C414,55.5,413.2,60,411.6,63.8"/>
	<path class="st0" d="M691.1,13.2c-4.5-4.3-9.8-7.6-15.8-9.8C669.4,1.2,663,0,656.4,0c-6.5,0-12.8,1.1-18.8,3.3
		c-6,2.2-11.4,5.5-15.9,9.8c-4.6,4.3-8.2,9.6-10.9,15.9c-2.7,6.2-4,13.3-4,21.2c0,7.9,1.3,15.1,4,21.2c2.6,6.2,6.3,11.5,10.8,15.8
		c4.5,4.3,9.8,7.6,15.8,9.8c5.9,2.2,12.3,3.3,18.9,3.3c7.2,0,14-1.2,20.1-3.6c6.1-2.4,11.4-5.9,15.8-10.4c4.4-4.4,7.8-9.8,10.3-15.9
		c2.4-6.1,3.7-13,3.7-20.3c0-7.8-1.4-14.9-4-21.2C699.2,22.9,695.6,17.5,691.1,13.2 M683.1,63.8c-1.5,3.8-3.6,6.9-6.3,9.5
		c-2.6,2.5-5.7,4.5-9.2,5.7c-3.5,1.3-7.4,2-11.4,2c-4.1,0-8-0.7-11.5-2c-3.5-1.3-6.5-3.2-9-5.7c-2.6-2.5-4.6-5.7-6.2-9.5
		c-1.5-3.8-2.3-8.3-2.3-13.4c0-5.1,0.8-9.6,2.3-13.4c1.5-3.8,3.6-7,6.2-9.5c2.6-2.5,5.7-4.5,9.2-5.8c3.5-1.3,7.4-2,11.5-2
		c4,0,7.8,0.7,11.3,2c3.5,1.3,6.6,3.3,9.1,5.8c2.6,2.6,4.7,5.8,6.3,9.6c1.6,3.8,2.3,8.3,2.3,13.2C685.4,55.5,684.7,60,683.1,63.8"/>
	<path class="st0" d="M235.5,1.4h-13.7c-1.7,0-3.2,1.4-3.2,3.2V65c0,2.6-0.4,4.8-1.3,6.7c-0.8,1.9-2,3.5-3.5,4.7
		c-1.5,1.3-3.3,2.3-5.4,3c-2.1,0.7-5.7,1.1-8.3,1.1c-2.5,0-6.3-0.4-8.5-1.1c-2.1-0.7-4-1.7-5.5-3c-1.5-1.2-2.7-2.8-3.5-4.7
		c-0.8-1.9-1.3-4.1-1.3-6.7V4.6c0-1.7-1.4-3.2-3.2-3.2h-13.7c-1.7,0-3.2,1.4-3.2,3.2v60.8c0,5.6,1,10.6,3.1,14.9
		c2.1,4.3,4.9,8,8.5,11c3.6,3,7.7,5.3,12.4,6.8c4.6,1.5,9.6,2.2,14.8,2.2c5.2,0,10.1-0.8,14.7-2.2c4.7-1.5,8.8-3.8,12.3-6.8
		c3.5-3,6.3-6.7,8.3-11c2.1-4.3,3.1-9.3,3.1-14.9V4.6C238.6,2.9,237.2,1.4,235.5,1.4"/>
	<path class="st0" d="M331.7,93.6l-22.2-27.6c0,0,17.9-6.5,17.9-29.3c0-4.7-0.8-9.2-2.3-13.5c-1.6-4.3-3.9-8.1-7-11.3
		c-3.1-3.2-6.8-5.8-11.2-7.7c-4.4-1.9-9.4-2.9-14.8-2.9h-36.2c-1.7,0-3.2,1.4-3.2,3.2v91.2c0,1.8,1.4,3.2,3.2,3.2h13.6
		c1.7,0,3.2-1.4,3.2-3.2l0-74.3H293c2.2,0,4.1,0.4,5.9,1.2c1.8,0.8,3.3,1.9,4.6,3.2c1.2,1.3,2.2,2.9,2.9,4.8c0.7,2,1.1,4.1,1.1,6.3
		c0,2.2-0.4,4.3-1.1,6.2c-0.7,1.9-1.7,3.6-3,5c-1.3,1.4-2.7,2.2-4.4,3c-1.7,0.8-4.7,1.2-10.7,1.2h-8.5c-1.7,0-3,1.5-1.7,3.6
		l31.7,41.7c0.6,0.8,1.6,1.3,2.6,1.3h17.5C332.3,98.9,334.1,96.6,331.7,93.6"/>
	<path class="st0" d="M794.3,93.6l-22.2-27.6c0,0,18-6.5,18-29.3c0-4.7-0.8-9.2-2.3-13.5c-1.6-4.3-3.9-8.1-7-11.3
		c-3.1-3.2-6.8-5.8-11.2-7.7c-4.4-1.9-9.4-2.9-14.8-2.9h-36.2c-1.7,0-3.2,1.4-3.2,3.2v91.2c0,1.8,1.4,3.2,3.2,3.2h13.6
		c1.7,0,3.2-1.4,3.2-3.2l0-74.3h20.3c2.2,0,4.1,0.4,5.9,1.2c1.8,0.8,3.3,1.9,4.6,3.2c1.2,1.3,2.2,2.9,2.9,4.8c0.7,2,1.1,4.1,1.1,6.3
		c0,2.2-0.4,4.3-1.1,6.2c-0.7,1.9-1.7,3.6-3,5c-1.3,1.4-2.7,2.2-4.4,3c-1.7,0.8-4.7,1.2-10.7,1.2h-8.5c-1.7,0-3,1.5-1.7,3.6
		l31.7,41.7c0.6,0.8,1.6,1.3,2.6,1.3h17.5C795,98.9,796.7,96.6,794.3,93.6"/>
	<path class="st1" d="M996.7,100.5h-90.8c-1.8,0-3.3-1.5-3.3-3.3v-94c0-1.8,1.5-3.3,3.3-3.3h90.8c1.8,0,3.3,1.5,3.3,3.3v94
		C1000,99,998.5,100.5,996.7,100.5"/>
	<path class="st2" d="M962.4,17.8c0-1.2-1-2.3-2.3-2.3h-22.8c-1.2,0-2.3,1-2.3,2.3v9.8c0,1.3,0.8,2.3,2.2,2.3h9.7l0,52.9
		c0,1.2,0.9,2.3,2.1,2.3h11.1c1.2,0,2.1-1,2.1-2.3L962.4,17.8z"/>
</g>
<g>
	<path class="st2" d="M975.8,18.2c0,1.6-0.4,3-1.3,4.3l-13.1,18.4c4.2,1.6,7.5,4.1,9.9,7.5c2.4,3.4,3.6,7.7,3.6,12.7
		c0,7.2-2.3,13.1-7,17.4c-4.6,4.4-10.4,6.6-17.2,6.6c-4.4,0-8.4-0.9-12-2.6c-3.6-1.7-6.5-4.2-8.7-7.5c-2.2-3.3-3.2-7.1-3.2-11.4
		c0.1-0.1,0.1-0.2,0.1-0.3c0-0.1,0.1-0.2,0.1-0.3c0.1-0.1,0.1-0.2,0.2-0.3c0.1-0.1,0.2-0.3,0.3-0.4c0.1-0.1,0.2-0.2,0.3-0.3
		c0.1-0.1,0.2-0.2,0.3-0.3c0.1-0.1,0.3-0.2,0.4-0.2c0.1-0.1,0.3-0.1,0.4-0.1h9.5c0.1,0,0.3,0,0.4,0.1c0.2,0.1,0.3,0.1,0.4,0.2
		c0.1,0.1,0.2,0.2,0.3,0.3c0.1,0.1,0.2,0.2,0.3,0.3c0.1,0.1,0.2,0.3,0.3,0.4c0.1,0.1,0.2,0.2,0.2,0.3c0.1,0.1,0.1,0.2,0.1,0.3
		c0,0.1,0.1,0.2,0.1,0.3c0,2,1,3.8,2.9,5.3c1.9,1.5,4.3,2.2,7.1,2.2s5.1-1,7.1-3c1.9-2,2.9-4.3,2.9-7.1c0-2-0.6-3.9-1.9-5.6
		c-1.2-1.7-3-3-5.2-3.8c-1.8-0.7-3.7-1-5.8-1c-2.7,0-4.8,0.3-6.3,0.9c-0.5,0.2-1,0.1-1.3-0.2c-0.4-0.3-0.6-0.7-0.6-1.1v-2.5
		c0-0.9,0.5-2,1.4-3.2l3.7-4.8l6.3-8.2c0.4-0.5,0.5-1,0.3-1.3c-0.2-0.4-0.6-0.6-1.2-0.6h-18.6c-0.6,0-1.2-0.2-1.7-0.7
		c-0.5-0.4-0.7-1-0.7-1.6V18c0-0.6,0.2-1.2,0.7-1.7s1-0.7,1.7-0.7h41.8c0.7,0,1.3,0.2,1.7,0.7c0.4,0.5,0.7,1,0.7,1.7V18.2z"/>
</g>
<g>
	<path class="st3" d="M973.4,57.2c0.6,0,1.2,0.2,1.7,0.7c0.5,0.5,0.7,1,0.7,1.7v10.3c0,0.7-0.2,1.3-0.7,1.7c-0.5,0.4-1,0.7-1.7,0.7
		h-3.6v10.4c0,0.6-0.2,1.2-0.7,1.7s-1,0.7-1.7,0.7h-10.3c-0.7,0-1.3-0.2-1.7-0.7c-0.4-0.5-0.7-1-0.7-1.7V72.2h-30.5
		c-0.7,0-1.3-0.2-1.8-0.7c-0.5-0.4-0.7-1-0.7-1.7v-3.9c0-1.7,0.4-3.1,1.3-4.4l29-44c0.4-0.6,0.9-1,1.7-1.4c0.7-0.4,1.4-0.6,2-0.6
		h11.6c0.6,0,1.2,0.2,1.7,0.7c0.5,0.5,0.7,1,0.7,1.7v39.3H973.4z M943,57.2h11.7V39.5L943,57.2z"/>
</g>
</svg>
