<?xml version="1.0" encoding="utf-8"?>
<!-- Generator: Adobe Illustrator 16.0.0, SVG Export Plug-In . SVG Version: 6.00 Build 0)  -->
<!DOCTYPE svg PUBLIC "-//W3C//DTD SVG 1.1//EN" "http://www.w3.org/Graphics/SVG/1.1/DTD/svg11.dtd">
<svg version="1.1" id="Layer_1" xmlns="http://www.w3.org/2000/svg" xmlns:xlink="http://www.w3.org/1999/xlink" x="0px" y="0px"
	 width="1000px" height="509.137px" viewBox="0 0 1000 509.137" enable-background="new 0 0 1000 509.137" xml:space="preserve">
<g>
	<path fill="#003865" d="M185.903,168.256c-16.226,23.2-42.294,37.065-69.934,37.065c-40.216,0-75.649-29.468-84.247-70.061
		l-0.314-1.477h149.066h41.686h5.826c1.178-7.98,0.844-16.682,0.844-16.682l-0.007,0.016c0-0.249,0.018-0.511,0.018-0.769
		C228.84,52.199,178.203,0,115.969,0C53.75,0,3.119,52.199,3.119,116.349c0,64.178,50.631,116.373,112.851,116.373
		c42.391,0,80.839-24.174,100.358-63.089l2.789-5.667h-30.405C187.652,165.702,186.636,167.211,185.903,168.256 M30.425,105.019
		c5.545-44.263,42.316-77.624,85.544-77.624c43.241,0,80.021,33.361,85.54,77.624l0.176,1.354H30.261L30.425,105.019z"/>
	<path fill="#003865" d="M369.978,232.776c-12.522,0-24.504-2.239-35.609-6.663c-11.023-4.4-20.768-10.777-28.98-18.949
		c-8.381-8.311-14.904-18.207-19.389-29.396c-4.649-11.683-6.523-24.421-6.463-37.873L279.535,4.509h26.114l-0.005,133.186
		c-0.038,10.417,1.233,20.163,4.656,28.971c3.248,8.384,7.956,15.799,14,22.042c5.877,6.066,12.805,10.788,20.588,14.037
		c7.896,3.29,16.323,4.962,25.033,4.962c8.908-0.01,17.367-1.685,25.254-4.985c7.818-3.278,14.773-8.013,20.667-14.088
		c6.044-6.211,10.788-13.618,14.103-22.022c3.494-8.854,5.623-18.599,5.642-28.942V4.509h26.063l-0.004,135.408
		c-0.043,13.488-2.79,26.209-7.498,37.812c-4.554,11.195-11.111,21.082-19.504,29.389c-8.284,8.185-18.05,14.558-29.041,18.953
		c-11.104,4.437-23.091,6.692-35.621,6.708h-0.004V232.776z"/>
	<path fill="#003865" d="M517.516,226.724V98.569c0.014-9.532,1.145-18.859,3.366-27.729c3.056-12.295,8.123-23.261,15.062-32.592
		c8.629-11.614,20.169-20.737,34.3-27.107c16.363-7.354,36.412-11.077,59.58-11.077h4.381v27.855l-4.271-0.003
		c-16.896,0-31.393,2.223-43.165,6.6c-10.36,3.842-18.883,9.424-25.328,16.586c-5.614,6.252-9.789,13.84-12.407,22.54
		c-2.241,7.455-3.396,15.848-3.423,24.949v128.13h-28.094V226.724z"/>
	<path fill="#003865" d="M153.947,503.383V389.607c0.034-8.813-0.896-16.998-3.729-24.328c-2.615-6.813-6.395-12.811-11.23-17.836
		c-4.639-4.822-10.107-8.576-16.254-11.156c-6.297-2.641-13.032-3.979-20.018-3.979c-7.105,0.004-13.904,1.348-20.204,4.004
		c-6.181,2.605-11.683,6.383-16.356,11.219c-4.851,5.012-8.66,11.02-11.341,17.859c-2.886,7.379-4.738,15.553-4.749,24.301
		l-0.005,113.691H0.002L0,387.416c0.047-14.977,3.09-29.143,8.321-42.111c5.118-12.666,12.503-23.859,21.95-33.277
		c9.347-9.289,20.348-16.523,32.705-21.5c12.406-4.982,25.748-7.523,39.664-7.545c13.941,0,27.289,2.525,39.688,7.496
		c12.416,4.988,23.414,12.23,32.689,21.527c9.434,9.428,16.78,20.633,21.83,33.305c5.171,13.076,7.266,27.271,7.194,42.211v115.861
		H153.947z"/>
	<path fill="#003865" d="M318.873,509.137c-60.48,0-109.656-50.721-109.656-113.066c0-62.361,49.176-113.09,109.656-113.09
		c60.455,0,109.64,50.729,109.64,113.09c0,5.766-0.426,11.559-1.272,17.26l-0.26,1.707H255.742l0.732,2.32
		c8.879,27.766,33.965,46.43,62.398,46.43c15.447,0,29.997-5.463,41.979-15.785c0,0,3.205-2.758,3.607-3.139h53.369l-1.501,3.004
		C397.385,485.648,360.031,509.137,318.873,509.137 M318.873,328.322c-28.434,0-53.514,18.656-62.398,46.445l-0.732,2.318h126.225
		l-0.732-2.318C372.362,346.979,347.306,328.322,318.873,328.322"/>
	<path fill="#003865" d="M420.896,288.727v-1.285h54.271c6.631,52.076,23.664,134.643,38.388,171.969
		c15.584-37.326,33.763-119.896,40.414-171.969h45.018c6.936,52.076,24.835,131.184,40.702,171.969
		c14.727-40.785,31.461-119.896,38.396-171.969h53.975v1.289c-12.409,81.301-36.082,164.895-56.29,214.652h-67.538
		c-11.254-27.191-24.823-68.852-31.752-106.17c-6.64,37.318-21.356,81.295-31.461,106.17h-67.546
		C453.784,449,428.052,357.787,420.896,288.727"/>
	<path fill="#003865" d="M728.502,493.904V452.66h2.267c12.233,3.709,38.684,8.828,57.738,8.828h11.106
		c17.616,0,30.99-5.402,30.99-23.326c0-13.361-11.664-18.756-24.465-22.178l-33.274-8.814
		c-24.456-6.252-44.362-23.328-44.362-60.018c0-43.219,35.552-61.141,78.768-61.141h11.104c13.354,0,40.097,3.42,52.319,7.967
		v40.955h-2.273c-11.094-3.135-37.819-6.541-50.057-6.541h-9.953c-15.636,0-29.01,3.119-29.01,18.76
		c0,12.242,9.104,17.068,20.203,19.912l33.276,9.1c32.121,8.531,48.901,27.588,48.901,61.998c0,47.783-34.404,65.699-82.181,65.699
		h-11.097C771.716,503.861,743.857,499.316,728.502,493.904"/>
	<path fill="#003865" d="M1000,458.324c0,25.172-20.41,45.574-45.577,45.574c-25.169,0-45.571-20.404-45.571-45.574
		c0-25.172,20.407-45.57,45.571-45.57C979.589,412.754,1000,433.158,1000,458.324"/>
	<path fill="#003865" d="M765.074,0.447c-62.704,0-113.536,52.095-113.536,116.358c0,64.267,50.832,116.361,113.536,116.361
		c62.705,0,113.537-52.097,113.537-116.361C878.611,52.546,827.779,0.447,765.074,0.447 M765.074,201.43
		c-43.746,0-79.338-37.961-79.338-84.627c0-46.661,35.592-84.626,79.338-84.626c43.744,0,79.339,37.965,79.339,84.626
		C844.413,163.469,808.818,201.43,765.074,201.43"/>
</g>
</svg>
