<svg xmlns="http://www.w3.org/2000/svg" viewBox="0 0 283.46 283.46"><defs><style>.cls-1{fill:#131b4d;}.cls-2{fill:#fff;}.cls-3{fill:#d50032;}</style></defs><g id="Layer_2" data-name="Layer 2"><g id="Sport"><g id="eurosport2"><rect class="cls-1" width="283.46" height="283.46"/><g id="logo"><path class="cls-2" d="M59.61,151.36l-6.46-4.25-10,4.23,5.88-6.9-6.53-4.27H52.7l6.91-8.1v8.1h9.85l-9.85,4.2v7"/><path class="cls-2" d="M71.85,136a.63.63,0,0,0,.62-.63v-2.71a.62.62,0,0,0-.62-.62H61.28v4H71.85"/><path class="cls-2" d="M71.85,151.39a.62.62,0,0,0,.62-.62v-2.71a.63.63,0,0,0-.62-.63H61.28v4H71.85"/><path class="cls-2" d="M213.74,132.05H200.53a.64.64,0,0,0-.64.62v2.72a.65.65,0,0,0,.64.63h4.61v14.76a.63.63,0,0,0,.63.63h2.73a.63.63,0,0,0,.62-.63V136h4.62a.64.64,0,0,0,.63-.63v-2.72a.63.63,0,0,0-.63-.62"/><path class="cls-2" d="M157.34,140.33a2.88,2.88,0,0,1-.6,1,2.51,2.51,0,0,1-.87.6,5.92,5.92,0,0,1-2.13.23h-3V136h4a2.74,2.74,0,0,1,1.16.24,2.63,2.63,0,0,1,.9.62,2.38,2.38,0,0,1,.58,1,3.32,3.32,0,0,1,.22,1.23,3.27,3.27,0,0,1-.23,1.25Zm3.75-4a6.4,6.4,0,0,0-1.39-2.24,7,7,0,0,0-2.22-1.52,7.24,7.24,0,0,0-2.94-.57h-7.18a.63.63,0,0,0-.64.62v18.1a.63.63,0,0,0,.64.62h2.72a.62.62,0,0,0,.62-.62v-4.64h3.84a7.57,7.57,0,0,0,2.93-.55,6.63,6.63,0,0,0,3.61-3.72,8.45,8.45,0,0,0,.48-2.8,7.79,7.79,0,0,0-.47-2.68"/><path class="cls-2" d="M134.07,137.61a1.31,1.31,0,0,0,.24.85,2,2,0,0,0,.72.61,4.89,4.89,0,0,0,1.19.41c.51.11,1,.22,1.51.3.92.15,1.83.33,2.69.54a7.77,7.77,0,0,1,2.4,1,5,5,0,0,1,1.67,1.81,6.22,6.22,0,0,1-.3,5.65,5.94,5.94,0,0,1-1.91,1.79,7.13,7.13,0,0,1-2.44.94,12.6,12.6,0,0,1-2.8.18,10.17,10.17,0,0,1-7.08-3.58.58.58,0,0,1,.07-.84c.34-.36,2-2.06,2-2.06a.48.48,0,0,1,.81.1,6.18,6.18,0,0,0,4.35,2.5,5.36,5.36,0,0,0,1.37-.07,4.51,4.51,0,0,0,1.2-.33,2.5,2.5,0,0,0,.85-.65,2,2,0,0,0,.35-1.08,1.49,1.49,0,0,0-.28-1,2.27,2.27,0,0,0-.85-.7,5,5,0,0,0-1.33-.43c-.54-.1-1.06-.19-1.57-.26a16.18,16.18,0,0,1-2.51-.51,8.27,8.27,0,0,1-2.23-1,5,5,0,0,1-1.6-1.73,4.31,4.31,0,0,1-.54-2.52,5.57,5.57,0,0,1,.75-2.68,5.5,5.5,0,0,1,1.77-1.82,7.11,7.11,0,0,1,2.39-1,9.78,9.78,0,0,1,5.2.22,8.37,8.37,0,0,1,4,3,.59.59,0,0,1,0,.79c-.27.3-1.91,1.9-1.91,1.9a.55.55,0,0,1-.91,0,4.79,4.79,0,0,0-3.81-2.23c-1.61-.1-3.41.26-3.49,2"/><path class="cls-2" d="M124.2,144.42a5.25,5.25,0,0,1-3.07,3,6.83,6.83,0,0,1-4.55,0,5,5,0,0,1-1.79-1.14,5.37,5.37,0,0,1-1.22-1.87,7.73,7.73,0,0,1,0-5.31,5.48,5.48,0,0,1,1.23-1.89,5.18,5.18,0,0,1,1.81-1.15,6.58,6.58,0,0,1,2.28-.4,6.41,6.41,0,0,1,2.25.4,5.11,5.11,0,0,1,1.81,1.16,5.52,5.52,0,0,1,1.25,1.9,7.1,7.1,0,0,1,.45,2.63,7.23,7.23,0,0,1-.45,2.66Zm1.59-10a9.48,9.48,0,0,0-3.15-1.95,10.9,10.9,0,0,0-7.47,0,9.52,9.52,0,0,0-3.16,1.95,9.34,9.34,0,0,0-2.16,3.15,11.59,11.59,0,0,0,0,8.41,9.5,9.5,0,0,0,2.14,3.14A9.14,9.14,0,0,0,115.1,151a10.61,10.61,0,0,0,3.75.66,10.75,10.75,0,0,0,4-.71,9.22,9.22,0,0,0,3.14-2.06,9.46,9.46,0,0,0,2-3.15,10.83,10.83,0,0,0,.74-4,10.45,10.45,0,0,0-.81-4.2,9.37,9.37,0,0,0-2.13-3.15"/><path class="cls-2" d="M178.06,144.42a5.23,5.23,0,0,1-1.24,1.87,5.33,5.33,0,0,1-1.83,1.14,6.73,6.73,0,0,1-2.25.39,6.84,6.84,0,0,1-2.29-.39,4.94,4.94,0,0,1-1.79-1.14,5.54,5.54,0,0,1-1.23-1.87,7.89,7.89,0,0,1,0-5.31,5.63,5.63,0,0,1,1.23-1.89,5.45,5.45,0,0,1,1.83-1.15,6.58,6.58,0,0,1,4.52,0,5.2,5.2,0,0,1,1.81,1.16,5.36,5.36,0,0,1,1.24,1.9,6.71,6.71,0,0,1,.47,2.63,6.83,6.83,0,0,1-.47,2.66Zm1.59-10a9.29,9.29,0,0,0-3.13-1.95,11,11,0,0,0-7.49,0,9.18,9.18,0,0,0-5.32,5.1,10.8,10.8,0,0,0-.79,4.2,10.68,10.68,0,0,0,.79,4.21A8.93,8.93,0,0,0,169,151a11.19,11.19,0,0,0,7.71-.05,8.94,8.94,0,0,0,3.14-2.06,9.51,9.51,0,0,0,2-3.15,11,11,0,0,0,.72-4,10.8,10.8,0,0,0-.79-4.2,9.72,9.72,0,0,0-2.15-3.15"/><path class="cls-2" d="M89.25,132.05H86.52a.63.63,0,0,0-.63.62v12a3.21,3.21,0,0,1-.25,1.34,2.52,2.52,0,0,1-.69.93,3.19,3.19,0,0,1-1.07.6,6.57,6.57,0,0,1-1.64.21,7,7,0,0,1-1.68-.21,3.29,3.29,0,0,1-1.11-.6,2.79,2.79,0,0,1-.69-.93,3.2,3.2,0,0,1-.26-1.34v-12a.62.62,0,0,0-.62-.62H75.16a.62.62,0,0,0-.62.62v12.07a6.85,6.85,0,0,0,.61,3,6.68,6.68,0,0,0,1.68,2.18,7.48,7.48,0,0,0,2.47,1.34,9.76,9.76,0,0,0,5.86,0,7,7,0,0,0,2.45-1.35,6.59,6.59,0,0,0,1.65-2.17,6.85,6.85,0,0,0,.61-3V132.67a.62.62,0,0,0-.62-.62"/><path class="cls-2" d="M108.33,150.34l-4.4-5.47a6,6,0,0,0,3.55-5.81,7.56,7.56,0,0,0-.47-2.68,6.38,6.38,0,0,0-1.38-2.24,7,7,0,0,0-2.21-1.52,7.39,7.39,0,0,0-3-.57H93.3a.62.62,0,0,0-.63.62v18.1a.62.62,0,0,0,.63.62H96a.63.63,0,0,0,.64-.62V136h4a2.92,2.92,0,0,1,2.07.86,2.91,2.91,0,0,1,.58,1,3.53,3.53,0,0,1,.21,1.23,3.7,3.7,0,0,1-.23,1.25,3,3,0,0,1-.59,1,2.65,2.65,0,0,1-.88.6,5.89,5.89,0,0,1-2.12.23H98c-.32,0-.58.3-.32.72l6.28,8.27a.63.63,0,0,0,.51.26H108c.52,0,.86-.47.38-1"/><path class="cls-2" d="M200.13,150.34l-4.41-5.47a6,6,0,0,0,3.56-5.81,7.78,7.78,0,0,0-.46-2.68,6.26,6.26,0,0,0-1.39-2.24,7,7,0,0,0-2.22-1.52,7.29,7.29,0,0,0-2.93-.57H185.1a.63.63,0,0,0-.64.62v18.1a.63.63,0,0,0,.64.62h2.7a.63.63,0,0,0,.63-.62V136h4a2.92,2.92,0,0,1,2.08.86,2.58,2.58,0,0,1,.56,1,3.13,3.13,0,0,1,.22,1.23,3.46,3.46,0,0,1-.22,1.25,3.2,3.2,0,0,1-.59,1,2.65,2.65,0,0,1-.88.6,5.89,5.89,0,0,1-2.12.23h-1.69c-.32,0-.58.3-.32.72l6.28,8.27a.64.64,0,0,0,.51.26h3.47c.52,0,.86-.47.38-1"/><path class="cls-2" d="M59.61,151.36l-6.46-4.25-10,4.23,5.88-6.9-6.53-4.27H52.7l6.91-8.1v8.1h9.85l-9.85,4.2v7"/><path class="cls-2" d="M71.85,136a.63.63,0,0,0,.62-.63v-2.71a.62.62,0,0,0-.62-.62H61.28v4H71.85"/><path class="cls-2" d="M71.85,151.39a.62.62,0,0,0,.62-.62v-2.71a.63.63,0,0,0-.62-.63H61.28v4H71.85"/><path class="cls-2" d="M213.74,132.05H200.53a.64.64,0,0,0-.64.62v2.72a.65.65,0,0,0,.64.63h4.61v14.76a.63.63,0,0,0,.63.63h2.73a.63.63,0,0,0,.62-.63V136h4.62a.64.64,0,0,0,.63-.63v-2.72a.63.63,0,0,0-.63-.62"/><path class="cls-2" d="M157.34,140.33a2.88,2.88,0,0,1-.6,1,2.51,2.51,0,0,1-.87.6,5.92,5.92,0,0,1-2.13.23h-3V136h4a2.74,2.74,0,0,1,1.16.24,2.63,2.63,0,0,1,.9.62,2.38,2.38,0,0,1,.58,1,3.32,3.32,0,0,1,.22,1.23,3.27,3.27,0,0,1-.23,1.25Zm3.75-4a6.4,6.4,0,0,0-1.39-2.24,7,7,0,0,0-2.22-1.52,7.24,7.24,0,0,0-2.94-.57h-7.18a.63.63,0,0,0-.64.62v18.1a.63.63,0,0,0,.64.62h2.72a.62.62,0,0,0,.62-.62v-4.64h3.84a7.57,7.57,0,0,0,2.93-.55,6.63,6.63,0,0,0,3.61-3.72,8.45,8.45,0,0,0,.48-2.8,7.79,7.79,0,0,0-.47-2.68"/><path class="cls-2" d="M134.07,137.61a1.31,1.31,0,0,0,.24.85,2,2,0,0,0,.72.61,4.89,4.89,0,0,0,1.19.41c.51.11,1,.22,1.51.3.92.15,1.83.33,2.69.54a7.77,7.77,0,0,1,2.4,1,5,5,0,0,1,1.67,1.81,6.22,6.22,0,0,1-.3,5.65,5.94,5.94,0,0,1-1.91,1.79,7.13,7.13,0,0,1-2.44.94,12.6,12.6,0,0,1-2.8.18,10.17,10.17,0,0,1-7.08-3.58.58.58,0,0,1,.07-.84c.34-.36,2-2.06,2-2.06a.48.48,0,0,1,.81.1,6.18,6.18,0,0,0,4.35,2.5,5.36,5.36,0,0,0,1.37-.07,4.51,4.51,0,0,0,1.2-.33,2.5,2.5,0,0,0,.85-.65,2,2,0,0,0,.35-1.08,1.49,1.49,0,0,0-.28-1,2.27,2.27,0,0,0-.85-.7,5,5,0,0,0-1.33-.43c-.54-.1-1.06-.19-1.57-.26a16.18,16.18,0,0,1-2.51-.51,8.27,8.27,0,0,1-2.23-1,5,5,0,0,1-1.6-1.73,4.31,4.31,0,0,1-.54-2.52,5.57,5.57,0,0,1,.75-2.68,5.5,5.5,0,0,1,1.77-1.82,7.11,7.11,0,0,1,2.39-1,9.78,9.78,0,0,1,5.2.22,8.37,8.37,0,0,1,4,3,.59.59,0,0,1,0,.79c-.27.3-1.91,1.9-1.91,1.9a.55.55,0,0,1-.91,0,4.79,4.79,0,0,0-3.81-2.23c-1.61-.1-3.41.26-3.49,2"/><path class="cls-2" d="M124.2,144.42a5.25,5.25,0,0,1-3.07,3,6.83,6.83,0,0,1-4.55,0,5,5,0,0,1-1.79-1.14,5.37,5.37,0,0,1-1.22-1.87,7.73,7.73,0,0,1,0-5.31,5.48,5.48,0,0,1,1.23-1.89,5.18,5.18,0,0,1,1.81-1.15,6.58,6.58,0,0,1,2.28-.4,6.41,6.41,0,0,1,2.25.4,5.11,5.11,0,0,1,1.81,1.16,5.52,5.52,0,0,1,1.25,1.9,7.1,7.1,0,0,1,.45,2.63,7.23,7.23,0,0,1-.45,2.66Zm1.59-10a9.48,9.48,0,0,0-3.15-1.95,10.9,10.9,0,0,0-7.47,0,9.52,9.52,0,0,0-3.16,1.95,9.34,9.34,0,0,0-2.16,3.15,11.59,11.59,0,0,0,0,8.41,9.5,9.5,0,0,0,2.14,3.14A9.14,9.14,0,0,0,115.1,151a10.61,10.61,0,0,0,3.75.66,10.75,10.75,0,0,0,4-.71,9.22,9.22,0,0,0,3.14-2.06,9.46,9.46,0,0,0,2-3.15,10.83,10.83,0,0,0,.74-4,10.45,10.45,0,0,0-.81-4.2,9.37,9.37,0,0,0-2.13-3.15"/><path class="cls-2" d="M178.06,144.42a5.23,5.23,0,0,1-1.24,1.87,5.33,5.33,0,0,1-1.83,1.14,6.73,6.73,0,0,1-2.25.39,6.84,6.84,0,0,1-2.29-.39,4.94,4.94,0,0,1-1.79-1.14,5.54,5.54,0,0,1-1.23-1.87,7.89,7.89,0,0,1,0-5.31,5.63,5.63,0,0,1,1.23-1.89,5.45,5.45,0,0,1,1.83-1.15,6.58,6.58,0,0,1,4.52,0,5.2,5.2,0,0,1,1.81,1.16,5.36,5.36,0,0,1,1.24,1.9,6.71,6.71,0,0,1,.47,2.63,6.83,6.83,0,0,1-.47,2.66Zm1.59-10a9.29,9.29,0,0,0-3.13-1.95,11,11,0,0,0-7.49,0,9.18,9.18,0,0,0-5.32,5.1,10.8,10.8,0,0,0-.79,4.2,10.68,10.68,0,0,0,.79,4.21A8.93,8.93,0,0,0,169,151a11.19,11.19,0,0,0,7.71-.05,8.94,8.94,0,0,0,3.14-2.06,9.51,9.51,0,0,0,2-3.15,11,11,0,0,0,.72-4,10.8,10.8,0,0,0-.79-4.2,9.72,9.72,0,0,0-2.15-3.15"/><path class="cls-2" d="M89.25,132.05H86.52a.63.63,0,0,0-.63.62v12a3.21,3.21,0,0,1-.25,1.34,2.52,2.52,0,0,1-.69.93,3.19,3.19,0,0,1-1.07.6,6.57,6.57,0,0,1-1.64.21,7,7,0,0,1-1.68-.21,3.29,3.29,0,0,1-1.11-.6,2.79,2.79,0,0,1-.69-.93,3.2,3.2,0,0,1-.26-1.34v-12a.62.62,0,0,0-.62-.62H75.16a.62.62,0,0,0-.62.62v12.07a6.85,6.85,0,0,0,.61,3,6.68,6.68,0,0,0,1.68,2.18,7.48,7.48,0,0,0,2.47,1.34,9.76,9.76,0,0,0,5.86,0,7,7,0,0,0,2.45-1.35,6.59,6.59,0,0,0,1.65-2.17,6.85,6.85,0,0,0,.61-3V132.67a.62.62,0,0,0-.62-.62"/><path class="cls-2" d="M108.33,150.34l-4.4-5.47a6,6,0,0,0,3.55-5.81,7.56,7.56,0,0,0-.47-2.68,6.38,6.38,0,0,0-1.38-2.24,7,7,0,0,0-2.21-1.52,7.39,7.39,0,0,0-3-.57H93.3a.62.62,0,0,0-.63.62v18.1a.62.62,0,0,0,.63.62H96a.63.63,0,0,0,.64-.62V136h4a2.92,2.92,0,0,1,2.07.86,2.91,2.91,0,0,1,.58,1,3.53,3.53,0,0,1,.21,1.23,3.7,3.7,0,0,1-.23,1.25,3,3,0,0,1-.59,1,2.65,2.65,0,0,1-.88.6,5.89,5.89,0,0,1-2.12.23H98c-.32,0-.58.3-.32.72l6.28,8.27a.63.63,0,0,0,.51.26H108c.52,0,.86-.47.38-1"/><path class="cls-2" d="M200.13,150.34l-4.41-5.47a6,6,0,0,0,3.56-5.81,7.78,7.78,0,0,0-.46-2.68,6.26,6.26,0,0,0-1.39-2.24,7,7,0,0,0-2.22-1.52,7.29,7.29,0,0,0-2.93-.57H185.1a.63.63,0,0,0-.64.62v18.1a.63.63,0,0,0,.64.62h2.7a.63.63,0,0,0,.63-.62V136h4a2.92,2.92,0,0,1,2.08.86,2.58,2.58,0,0,1,.56,1,3.13,3.13,0,0,1,.22,1.23,3.46,3.46,0,0,1-.22,1.25,3.2,3.2,0,0,1-.59,1,2.65,2.65,0,0,1-.88.6,5.89,5.89,0,0,1-2.12.23h-1.69c-.32,0-.58.3-.32.72l6.28,8.27a.64.64,0,0,0,.51.26h3.47c.52,0,.86-.47.38-1"/><path class="cls-3" d="M240.29,151.71h-18a.65.65,0,0,1-.65-.65V132.41a.66.66,0,0,1,.65-.65h18a.66.66,0,0,1,.65.65v18.65a.65.65,0,0,1-.65.65"/><path class="cls-2" d="M226.92,147.81v.38a.43.43,0,0,0,.42.45h8.38a.44.44,0,0,0,.43-.45v-1.93a.45.45,0,0,0-.44-.44h-3.92l2.44-3.28a5.31,5.31,0,0,0,1-5.57,4,4,0,0,0-3.85-2.11c-2.77,0-4.34,1.52-4.4,4.26l0,.64a.43.43,0,0,0,.47.43h1.87a.44.44,0,0,0,.45-.45l0-.58a1.46,1.46,0,0,1,1.53-1.6,1.32,1.32,0,0,1,1.47,1.25,2.78,2.78,0,0,1-.75,2l-4.87,6.42a.81.81,0,0,0-.22.58"/></g></g></g></g></svg>