<svg xmlns="http://www.w3.org/2000/svg" viewBox="0 0 283.46 283.46"><defs><style>.cls-1{fill:#131b4d;}.cls-2{fill:#fff;}.cls-3{fill:#d50032;}</style></defs><title>eurosport1</title><g id="Layer_2" data-name="Layer 2"><g id="Sport"><g id="eurosport1"><rect class="cls-1" width="283.46" height="283.46"/><g id="logo"><path class="cls-2" d="M59.59,151.35l-6.46-4.25-10,4.23L49,144.45l-6.51-4.29H52.68l6.91-8.08v8.08h9.87l-9.87,4.22v7"/><path class="cls-2" d="M71.84,136a.64.64,0,0,0,.64-.62v-2.72a.62.62,0,0,0-.64-.62H61.28v4H71.84"/><path class="cls-2" d="M71.84,151.4a.64.64,0,0,0,.64-.62v-2.72a.62.62,0,0,0-.64-.62H61.28v4H71.84"/><path class="cls-2" d="M213.74,132H200.53a.63.63,0,0,0-.62.62v2.73a.64.64,0,0,0,.62.62h4.63v14.77a.62.62,0,0,0,.62.62h2.7a.63.63,0,0,0,.64-.62V136h4.62a.63.63,0,0,0,.62-.62v-2.73a.62.62,0,0,0-.62-.62"/><path class="cls-2" d="M157.33,140.31a2.42,2.42,0,0,1-.59,1,2.39,2.39,0,0,1-.88.61,6,6,0,0,1-2.11.23h-3V136h4a2.79,2.79,0,0,1,1.16.23,2.82,2.82,0,0,1,.92.64,2.65,2.65,0,0,1,.57.95,3.6,3.6,0,0,1,.21,1.25,3.18,3.18,0,0,1-.23,1.23Zm3.75-3.94a6.4,6.4,0,0,0-1.39-2.24,6.66,6.66,0,0,0-2.22-1.51,7,7,0,0,0-2.93-.58h-7.19a.63.63,0,0,0-.62.62v18.11a.64.64,0,0,0,.62.62h2.72a.65.65,0,0,0,.64-.62v-4.64h3.84a7.15,7.15,0,0,0,2.92-.57,6.4,6.4,0,0,0,2.22-1.51,6.8,6.8,0,0,0,1.39-2.19,8.1,8.1,0,0,0,.48-2.8,7.77,7.77,0,0,0-.47-2.68"/><path class="cls-2" d="M134.07,137.59a1.28,1.28,0,0,0,.24.86,1.86,1.86,0,0,0,.71.61,4.62,4.62,0,0,0,1.2.41c.5.11,1,.21,1.5.31.92.13,1.83.31,2.7.52a8,8,0,0,1,2.38,1,5.17,5.17,0,0,1,1.68,1.81A5.63,5.63,0,0,1,145,146a5.49,5.49,0,0,1-.84,2.79,6,6,0,0,1-1.93,1.81,7.52,7.52,0,0,1-2.44.93,12.38,12.38,0,0,1-2.79.18,10.12,10.12,0,0,1-7.08-3.58.59.59,0,0,1,.06-.85l2-2.05a.48.48,0,0,1,.81.1,6.12,6.12,0,0,0,4.35,2.49,5.42,5.42,0,0,0,1.36-.06,4.31,4.31,0,0,0,1.22-.34,2.1,2.1,0,0,0,.84-.65,2,2,0,0,0,.37-1.08,1.58,1.58,0,0,0-.3-1,2.64,2.64,0,0,0-.85-.71,5.13,5.13,0,0,0-1.32-.42c-.54-.1-1.06-.18-1.59-.25a16.37,16.37,0,0,1-2.51-.51,7.89,7.89,0,0,1-2.24-1,4.89,4.89,0,0,1-1.6-1.71,4.58,4.58,0,0,1-.54-2.52,5.53,5.53,0,0,1,.75-2.68,5.6,5.6,0,0,1,1.77-1.83,7.46,7.46,0,0,1,2.41-1,9.83,9.83,0,0,1,5.2.23,8.26,8.26,0,0,1,4,3,.61.61,0,0,1,0,.79c-.28.3-1.93,1.9-1.93,1.9a.55.55,0,0,1-.91,0,4.77,4.77,0,0,0-3.79-2.24c-1.61-.1-3.43.25-3.5,1.94"/><path class="cls-2" d="M124.19,144.4a5.4,5.4,0,0,1-1.25,1.9,5.51,5.51,0,0,1-1.83,1.13,6.59,6.59,0,0,1-2.25.38,6.72,6.72,0,0,1-2.29-.38,5.19,5.19,0,0,1-1.78-1.13,5.79,5.79,0,0,1-1.23-1.9,7.73,7.73,0,0,1,0-5.29,5.58,5.58,0,0,1,1.23-1.88,5.36,5.36,0,0,1,1.83-1.16,6.58,6.58,0,0,1,2.28-.4,6.46,6.46,0,0,1,2.24.4,5.36,5.36,0,0,1,1.83,1.16,5.77,5.77,0,0,1,1.23,1.91,7.65,7.65,0,0,1,0,5.27Zm1.59-10a9.2,9.2,0,0,0-3.13-2,11.09,11.09,0,0,0-7.49,0,9.32,9.32,0,0,0-3.16,2,9.12,9.12,0,0,0-2.15,3.16,10.44,10.44,0,0,0-.81,4.19,10.68,10.68,0,0,0,.79,4.22,9.21,9.21,0,0,0,2.12,3.13,9.34,9.34,0,0,0,3.14,2,11.08,11.08,0,0,0,7.72-.06,8.84,8.84,0,0,0,3.14-2.05,9.63,9.63,0,0,0,2-3.16,10.88,10.88,0,0,0,.72-4,10.68,10.68,0,0,0-.79-4.19,9.53,9.53,0,0,0-2.15-3.16"/><path class="cls-2" d="M178.06,144.4a5.12,5.12,0,0,1-3.07,3,6.54,6.54,0,0,1-2.25.38,6.64,6.64,0,0,1-2.28-.38,5.25,5.25,0,0,1-1.8-1.13,5.54,5.54,0,0,1-1.22-1.9,7.52,7.52,0,0,1,0-5.29,5.16,5.16,0,0,1,3-3,6.7,6.7,0,0,1,2.28-.4,6.6,6.6,0,0,1,2.25.4,5.3,5.3,0,0,1,1.81,1.16,5.77,5.77,0,0,1,1.23,1.91,7.65,7.65,0,0,1,0,5.27Zm1.59-10a9.06,9.06,0,0,0-3.13-2,11.05,11.05,0,0,0-7.47,0,9.24,9.24,0,0,0-3.17,2,9.53,9.53,0,0,0-2.15,3.16,11.45,11.45,0,0,0,0,8.41,9.24,9.24,0,0,0,2.14,3.13,9.42,9.42,0,0,0,3.13,2,10.66,10.66,0,0,0,3.74.67,10.76,10.76,0,0,0,4-.72,9,9,0,0,0,3.14-2.05,9.59,9.59,0,0,0,2-3.16,10.89,10.89,0,0,0,.74-4,10.68,10.68,0,0,0-.81-4.19,9.53,9.53,0,0,0-2.15-3.16"/><path class="cls-2" d="M89.24,132H86.52a.63.63,0,0,0-.64.62v12a3.19,3.19,0,0,1-.25,1.33,2.65,2.65,0,0,1-.68.93,3.3,3.3,0,0,1-1.08.59,6,6,0,0,1-1.63.21,6.57,6.57,0,0,1-1.7-.21,3.23,3.23,0,0,1-1.09-.59,2.73,2.73,0,0,1-.71-.93,3.19,3.19,0,0,1-.25-1.33v-12a.62.62,0,0,0-.62-.62H75.15a.63.63,0,0,0-.62.62v12.08a7,7,0,0,0,.61,3,6.6,6.6,0,0,0,1.7,2.19,7.46,7.46,0,0,0,2.45,1.33,9.59,9.59,0,0,0,3,.45,9.45,9.45,0,0,0,2.92-.45,7,7,0,0,0,2.44-1.34,6.65,6.65,0,0,0,1.66-2.18,6.83,6.83,0,0,0,.62-3V132.67a.63.63,0,0,0-.64-.62"/><path class="cls-2" d="M108.34,150.35l-4.42-5.48a6,6,0,0,0,3.57-5.82,7.77,7.77,0,0,0-.47-2.68,6.4,6.4,0,0,0-1.39-2.24,6.66,6.66,0,0,0-2.22-1.51,7,7,0,0,0-2.94-.58H93.29a.63.63,0,0,0-.62.62v18.11a.64.64,0,0,0,.62.62H96a.64.64,0,0,0,.62-.62V136h4a2.79,2.79,0,0,1,1.16.23,2.82,2.82,0,0,1,.92.64,2.65,2.65,0,0,1,.57.95,3.6,3.6,0,0,1,.21,1.25,3.46,3.46,0,0,1-.21,1.23,2.79,2.79,0,0,1-.61,1,2.28,2.28,0,0,1-.88.61,6,6,0,0,1-2.11.23H98c-.34,0-.59.31-.34.72l6.3,8.27a.6.6,0,0,0,.51.27H108c.51,0,.85-.48.38-1"/><path class="cls-2" d="M200.14,150.35l-4.42-5.48a6,6,0,0,0,3.57-5.82,8.12,8.12,0,0,0-.47-2.68,6.42,6.42,0,0,0-3.61-3.75,7.1,7.1,0,0,0-2.94-.58H185.1a.64.64,0,0,0-.64.62v18.11a.65.65,0,0,0,.64.62h2.7a.63.63,0,0,0,.62-.62V136h4a2.9,2.9,0,0,1,1.18.23,2.7,2.7,0,0,1,.89.64,2.49,2.49,0,0,1,.58.95,3.6,3.6,0,0,1,.21,1.25,3.18,3.18,0,0,1-.23,1.23,2.76,2.76,0,0,1-.59,1,2.39,2.39,0,0,1-.88.61,6,6,0,0,1-2.11.23h-1.7c-.33,0-.58.31-.33.72l6.29,8.27a.63.63,0,0,0,.52.27h3.45c.51,0,.86-.48.4-1"/><path class="cls-2" d="M59.59,151.35l-6.46-4.25-10,4.23L49,144.45l-6.51-4.29H52.68l6.91-8.08v8.08h9.87l-9.87,4.22v7"/><path class="cls-2" d="M71.84,136a.64.64,0,0,0,.64-.62v-2.72a.62.62,0,0,0-.64-.62H61.28v4H71.84"/><path class="cls-2" d="M71.84,151.4a.64.64,0,0,0,.64-.62v-2.72a.62.62,0,0,0-.64-.62H61.28v4H71.84"/><path class="cls-2" d="M213.74,132H200.53a.63.63,0,0,0-.62.62v2.73a.64.64,0,0,0,.62.62h4.63v14.77a.62.62,0,0,0,.62.62h2.7a.63.63,0,0,0,.64-.62V136h4.62a.63.63,0,0,0,.62-.62v-2.73a.62.62,0,0,0-.62-.62"/><path class="cls-2" d="M157.33,140.31a2.42,2.42,0,0,1-.59,1,2.39,2.39,0,0,1-.88.61,6,6,0,0,1-2.11.23h-3V136h4a2.79,2.79,0,0,1,1.16.23,2.82,2.82,0,0,1,.92.64,2.65,2.65,0,0,1,.57.95,3.6,3.6,0,0,1,.21,1.25,3.18,3.18,0,0,1-.23,1.23Zm3.75-3.94a6.4,6.4,0,0,0-1.39-2.24,6.66,6.66,0,0,0-2.22-1.51,7,7,0,0,0-2.93-.58h-7.19a.63.63,0,0,0-.62.62v18.11a.64.64,0,0,0,.62.62h2.72a.65.65,0,0,0,.64-.62v-4.64h3.84a7.15,7.15,0,0,0,2.92-.57,6.4,6.4,0,0,0,2.22-1.51,6.8,6.8,0,0,0,1.39-2.19,8.1,8.1,0,0,0,.48-2.8,7.77,7.77,0,0,0-.47-2.68"/><path class="cls-2" d="M134.07,137.59a1.28,1.28,0,0,0,.24.86,1.86,1.86,0,0,0,.71.61,4.62,4.62,0,0,0,1.2.41c.5.11,1,.21,1.5.31.92.13,1.83.31,2.7.52a8,8,0,0,1,2.38,1,5.17,5.17,0,0,1,1.68,1.81A5.63,5.63,0,0,1,145,146a5.49,5.49,0,0,1-.84,2.79,6,6,0,0,1-1.93,1.81,7.52,7.52,0,0,1-2.44.93,12.38,12.38,0,0,1-2.79.18,10.12,10.12,0,0,1-7.08-3.58.59.59,0,0,1,.06-.85l2-2.05a.48.48,0,0,1,.81.1,6.12,6.12,0,0,0,4.35,2.49,5.42,5.42,0,0,0,1.36-.06,4.31,4.31,0,0,0,1.22-.34,2.1,2.1,0,0,0,.84-.65,2,2,0,0,0,.37-1.08,1.58,1.58,0,0,0-.3-1,2.64,2.64,0,0,0-.85-.71,5.13,5.13,0,0,0-1.32-.42c-.54-.1-1.06-.18-1.59-.25a16.37,16.37,0,0,1-2.51-.51,7.89,7.89,0,0,1-2.24-1,4.89,4.89,0,0,1-1.6-1.71,4.58,4.58,0,0,1-.54-2.52,5.53,5.53,0,0,1,.75-2.68,5.6,5.6,0,0,1,1.77-1.83,7.46,7.46,0,0,1,2.41-1,9.83,9.83,0,0,1,5.2.23,8.26,8.26,0,0,1,4,3,.61.61,0,0,1,0,.79c-.28.3-1.93,1.9-1.93,1.9a.55.55,0,0,1-.91,0,4.77,4.77,0,0,0-3.79-2.24c-1.61-.1-3.43.25-3.5,1.94"/><path class="cls-2" d="M124.19,144.4a5.4,5.4,0,0,1-1.25,1.9,5.51,5.51,0,0,1-1.83,1.13,6.59,6.59,0,0,1-2.25.38,6.72,6.72,0,0,1-2.29-.38,5.19,5.19,0,0,1-1.78-1.13,5.79,5.79,0,0,1-1.23-1.9,7.73,7.73,0,0,1,0-5.29,5.58,5.58,0,0,1,1.23-1.88,5.36,5.36,0,0,1,1.83-1.16,6.58,6.58,0,0,1,2.28-.4,6.46,6.46,0,0,1,2.24.4,5.36,5.36,0,0,1,1.83,1.16,5.77,5.77,0,0,1,1.23,1.91,7.65,7.65,0,0,1,0,5.27Zm1.59-10a9.2,9.2,0,0,0-3.13-2,11.09,11.09,0,0,0-7.49,0,9.32,9.32,0,0,0-3.16,2,9.12,9.12,0,0,0-2.15,3.16,10.44,10.44,0,0,0-.81,4.19,10.68,10.68,0,0,0,.79,4.22,9.21,9.21,0,0,0,2.12,3.13,9.34,9.34,0,0,0,3.14,2,11.08,11.08,0,0,0,7.72-.06,8.84,8.84,0,0,0,3.14-2.05,9.63,9.63,0,0,0,2-3.16,10.88,10.88,0,0,0,.72-4,10.68,10.68,0,0,0-.79-4.19,9.53,9.53,0,0,0-2.15-3.16"/><path class="cls-2" d="M178.06,144.4a5.12,5.12,0,0,1-3.07,3,6.54,6.54,0,0,1-2.25.38,6.64,6.64,0,0,1-2.28-.38,5.25,5.25,0,0,1-1.8-1.13,5.54,5.54,0,0,1-1.22-1.9,7.52,7.52,0,0,1,0-5.29,5.16,5.16,0,0,1,3-3,6.7,6.7,0,0,1,2.28-.4,6.6,6.6,0,0,1,2.25.4,5.3,5.3,0,0,1,1.81,1.16,5.77,5.77,0,0,1,1.23,1.91,7.65,7.65,0,0,1,0,5.27Zm1.59-10a9.06,9.06,0,0,0-3.13-2,11.05,11.05,0,0,0-7.47,0,9.24,9.24,0,0,0-3.17,2,9.53,9.53,0,0,0-2.15,3.16,11.45,11.45,0,0,0,0,8.41,9.24,9.24,0,0,0,2.14,3.13,9.42,9.42,0,0,0,3.13,2,10.66,10.66,0,0,0,3.74.67,10.76,10.76,0,0,0,4-.72,9,9,0,0,0,3.14-2.05,9.59,9.59,0,0,0,2-3.16,10.89,10.89,0,0,0,.74-4,10.68,10.68,0,0,0-.81-4.19,9.53,9.53,0,0,0-2.15-3.16"/><path class="cls-2" d="M89.24,132H86.52a.63.63,0,0,0-.64.62v12a3.19,3.19,0,0,1-.25,1.33,2.65,2.65,0,0,1-.68.93,3.3,3.3,0,0,1-1.08.59,6,6,0,0,1-1.63.21,6.57,6.57,0,0,1-1.7-.21,3.23,3.23,0,0,1-1.09-.59,2.73,2.73,0,0,1-.71-.93,3.19,3.19,0,0,1-.25-1.33v-12a.62.62,0,0,0-.62-.62H75.15a.63.63,0,0,0-.62.62v12.08a7,7,0,0,0,.61,3,6.6,6.6,0,0,0,1.7,2.19,7.46,7.46,0,0,0,2.45,1.33,9.59,9.59,0,0,0,3,.45,9.45,9.45,0,0,0,2.92-.45,7,7,0,0,0,2.44-1.34,6.65,6.65,0,0,0,1.66-2.18,6.83,6.83,0,0,0,.62-3V132.67a.63.63,0,0,0-.64-.62"/><path class="cls-2" d="M108.34,150.35l-4.42-5.48a6,6,0,0,0,3.57-5.82,7.77,7.77,0,0,0-.47-2.68,6.4,6.4,0,0,0-1.39-2.24,6.66,6.66,0,0,0-2.22-1.51,7,7,0,0,0-2.94-.58H93.29a.63.63,0,0,0-.62.62v18.11a.64.64,0,0,0,.62.62H96a.64.64,0,0,0,.62-.62V136h4a2.79,2.79,0,0,1,1.16.23,2.82,2.82,0,0,1,.92.64,2.65,2.65,0,0,1,.57.95,3.6,3.6,0,0,1,.21,1.25,3.46,3.46,0,0,1-.21,1.23,2.79,2.79,0,0,1-.61,1,2.28,2.28,0,0,1-.88.61,6,6,0,0,1-2.11.23H98c-.34,0-.59.31-.34.72l6.3,8.27a.6.6,0,0,0,.51.27H108c.51,0,.85-.48.38-1"/><path class="cls-2" d="M200.14,150.35l-4.42-5.48a6,6,0,0,0,3.57-5.82,8.12,8.12,0,0,0-.47-2.68,6.42,6.42,0,0,0-3.61-3.75,7.1,7.1,0,0,0-2.94-.58H185.1a.64.64,0,0,0-.64.62v18.11a.65.65,0,0,0,.64.62h2.7a.63.63,0,0,0,.62-.62V136h4a2.9,2.9,0,0,1,1.18.23,2.7,2.7,0,0,1,.89.64,2.49,2.49,0,0,1,.58.95,3.6,3.6,0,0,1,.21,1.25,3.18,3.18,0,0,1-.23,1.23,2.76,2.76,0,0,1-.59,1,2.39,2.39,0,0,1-.88.61,6,6,0,0,1-2.11.23h-1.7c-.33,0-.58.31-.33.72l6.29,8.27a.63.63,0,0,0,.52.27h3.45c.51,0,.86-.48.4-1"/><path class="cls-3" d="M240.31,151.71h-18a.65.65,0,0,1-.65-.65V132.41a.65.65,0,0,1,.65-.65h18a.64.64,0,0,1,.64.65v18.64a.64.64,0,0,1-.64.65"/><path class="cls-2" d="M233.48,135.29a.44.44,0,0,0-.44-.44h-4.52a.44.44,0,0,0-.45.44v1.94a.42.42,0,0,0,.44.45h1.93v10.5a.43.43,0,0,0,.42.44h2.19a.42.42,0,0,0,.42-.44v-12.9"/></g></g></g></g></svg>