<?xml version="1.0" encoding="utf-8"?>
<!-- Generator: Adobe Illustrator 23.0.0, SVG Export Plug-In . SVG Version: 6.00 Build 0)  -->
<svg version="1.1" id="Layer_1" xmlns="http://www.w3.org/2000/svg" xmlns:xlink="http://www.w3.org/1999/xlink" x="0px" y="0px"
	 viewBox="0 0 492.5 46.7" style="enable-background:new 0 0 492.5 46.7;" xml:space="preserve">
<style type="text/css">
	.st0{fill:#1E2248;}
	.st1{fill:#C1003A;}
	.st2{fill:#FFFFFF;}
</style>
<g>
	<g id="XMLID_18_">
		<polygon id="XMLID_63_" class="st0" points="40,45.9 24.9,36 1.5,45.9 15.3,29.7 0,19.7 23.8,19.7 40,0.7 40,19.7 63.2,19.7 
			40,29.5 		"/>
		<path id="XMLID_62_" class="st0" d="M68.8,10c0.8,0,1.5-0.7,1.5-1.5l0-6.4c0-0.8-0.7-1.5-1.5-1.5H44V10L68.8,10z"/>
		<path id="XMLID_60_" class="st0" d="M68.8,46c0.8,0,1.5-0.7,1.5-1.5l0-6.4c0-0.8-0.7-1.5-1.5-1.5H44V46L68.8,46z"/>
		<path id="XMLID_56_" class="st0" d="M401.4,0.7h-31c-0.8,0-1.5,0.7-1.5,1.5v6.4c0,0.8,0.7,1.5,1.5,1.5h10.8v34.6
			c0,0.8,0.7,1.5,1.5,1.5h6.4c0.8,0,1.5-0.7,1.5-1.5V10h10.8c0.8,0,1.5-0.7,1.5-1.5V2.2C402.8,1.4,402.2,0.7,401.4,0.7z"/>
		<path id="XMLID_49_" class="st0" d="M277.9,10.8c-0.7-2-1.8-3.8-3.3-5.3c-1.4-1.5-3.2-2.7-5.2-3.6c-2-0.9-4.4-1.3-6.9-1.3h-16.8
			c-0.8,0-1.5,0.7-1.5,1.5v42.4c0,0.8,0.7,1.5,1.5,1.5h6.4c0.8,0,1.5-0.7,1.5-1.5l0-10.9h9c2.5,0,4.8-0.4,6.9-1.3
			c2-0.9,3.8-2.1,5.2-3.5c1.4-1.5,2.5-3.2,3.3-5.2c0.7-1.9,1.1-4.4,1.1-6.5C279,14.9,278.7,12.8,277.9,10.8z M269.2,20.1
			c-0.3,0.9-0.8,1.7-1.4,2.3c-0.6,0.6-1.3,1-2.1,1.4c-0.8,0.4-2.2,0.6-5,0.6h-7.2V10h9.4c1,0,1.9,0.2,2.7,0.5
			c0.8,0.4,1.5,0.9,2.1,1.5c0.6,0.6,1,1.4,1.3,2.2c0.3,0.9,0.5,1.9,0.5,2.9C269.7,18.2,269.5,19.2,269.2,20.1z"/>
		<path id="XMLID_39_" class="st0" d="M214.6,13.7c0,0.9,0.2,1.5,0.6,2c0.4,0.6,1,1.1,1.7,1.4c0.8,0.4,1.7,0.7,2.8,1
			c1.2,0.3,2.3,0.5,3.5,0.7c2.1,0.3,4.3,0.8,6.3,1.3c2.1,0.5,4,1.3,5.6,2.3c1.7,1.1,3,2.5,3.9,4.2c1,1.8,1.4,4,1.3,6.7
			c-0.1,2.6-0.8,4.8-2,6.6c-1.2,1.7-2.7,3.1-4.5,4.2c-1.8,1-3.5,1.8-5.7,2.2c-2.1,0.4-4.5,0.5-6.6,0.4c-5.2-0.2-12.8-3.2-16.6-8.4
			c-0.3-0.4-0.7-1.1,0.1-2c0.8-0.8,4.7-4.8,4.7-4.8c0.8-0.8,1.6-0.2,1.9,0.2c2.2,3.3,6.7,5.7,10.2,5.9c1.8,0.1,2.1,0,3.2-0.1
			c1-0.1,2-0.4,2.8-0.8c0.8-0.4,1.5-0.8,2-1.5c0.5-0.6,0.8-1.5,0.8-2.5c0.1-1-0.2-1.8-0.7-2.4c-0.5-0.7-1.2-1.2-2-1.6
			c-0.9-0.5-2-0.8-3.1-1c-1.2-0.2-2.5-0.4-3.7-0.6c-2-0.3-4-0.7-5.9-1.2c-2-0.6-3.7-1.4-5.2-2.4c-1.6-1-2.8-2.4-3.8-4
			c-0.9-1.7-1.4-3.6-1.3-5.9c0.1-2.4,0.7-4.5,1.8-6.3c1.1-1.7,2.4-3.2,4.1-4.3c1.6-1.1,3.5-1.9,5.6-2.3c4.1-0.9,8.1-0.8,12.2,0.5
			c4.3,1.4,7.8,4.7,9.4,7.1c0.3,0.4,0.6,1.1,0,1.8c-0.6,0.7-4.5,4.5-4.5,4.5c-0.8,0.8-1.7,0.6-2.1-0.1c-2.4-3.5-5.4-5-8.9-5.2
			C219,8.9,214.8,9.7,214.6,13.7z"/>
		<path id="XMLID_36_" class="st0" d="M195.2,6.2c-2.1-2-4.6-3.5-7.3-4.6c-2.8-1-5.7-1.6-8.8-1.6c-3,0-6,0.5-8.7,1.6
			c-2.8,1-5.3,2.6-7.4,4.6c-2.1,2-3.8,4.5-5.1,7.4c-1.2,2.9-1.9,6.2-1.9,9.8c0,3.7,0.6,7,1.8,9.9c1.2,2.9,2.9,5.3,5,7.3
			c2.1,2,4.6,3.5,7.3,4.6c2.8,1,5.7,1.6,8.8,1.6c3.4,0,6.5-0.6,9.3-1.7c2.8-1.1,5.3-2.7,7.4-4.8c2-2.1,3.6-4.5,4.8-7.4
			c1.1-2.8,1.7-6,1.7-9.4c0-3.6-0.6-7-1.9-9.8C199,10.6,197.3,8.2,195.2,6.2z M191.5,29.7c-0.7,1.7-1.7,3.2-2.9,4.4
			c-1.2,1.2-2.7,2.1-4.3,2.7c-1.6,0.6-3.4,0.9-5.3,0.9c-1.9,0-3.7-0.3-5.3-0.9c-1.6-0.6-3-1.5-4.2-2.7c-1.2-1.2-2.2-2.7-2.9-4.4
			c-0.7-1.8-1.1-3.9-1.1-6.2c0-2.4,0.4-4.5,1.1-6.2c0.7-1.8,1.7-3.2,2.9-4.4c1.2-1.2,2.6-2.1,4.3-2.7c1.6-0.6,3.4-0.9,5.3-0.9
			c1.9,0,3.6,0.3,5.3,0.9c1.6,0.6,3,1.5,4.3,2.7c1.2,1.2,2.2,2.7,2.9,4.4c0.7,1.8,1.1,3.8,1.1,6.2C192.5,25.8,192.2,27.9,191.5,29.7
			z"/>
		<path id="XMLID_24_" class="st0" d="M321.4,6.2c-2.1-2-4.6-3.5-7.3-4.6c-2.8-1-5.7-1.6-8.8-1.6c-3,0-6,0.5-8.7,1.6
			c-2.8,1-5.3,2.6-7.4,4.6c-2.1,2-3.8,4.5-5.1,7.4c-1.2,2.9-1.9,6.2-1.9,9.8c0,3.7,0.6,7,1.8,9.9c1.2,2.9,2.9,5.3,5,7.3
			c2.1,2,4.6,3.5,7.3,4.6c2.8,1,5.7,1.6,8.8,1.6c3.4,0,6.5-0.6,9.3-1.7c2.8-1.1,5.3-2.7,7.4-4.8c2-2.1,3.6-4.5,4.8-7.4
			c1.1-2.8,1.7-6,1.7-9.4c0-3.6-0.6-7-1.9-9.8C325.2,10.6,323.5,8.2,321.4,6.2z M317.7,29.7c-0.7,1.7-1.7,3.2-2.9,4.4
			c-1.2,1.2-2.7,2.1-4.3,2.7c-1.6,0.6-3.4,0.9-5.3,0.9c-1.9,0-3.7-0.3-5.3-0.9c-1.6-0.6-3-1.5-4.2-2.7c-1.2-1.2-2.2-2.7-2.9-4.4
			c-0.7-1.8-1.1-3.9-1.1-6.2c0-2.4,0.4-4.5,1.1-6.2c0.7-1.8,1.7-3.2,2.9-4.4c1.2-1.2,2.6-2.1,4.3-2.7c1.6-0.6,3.4-0.9,5.3-0.9
			c1.9,0,3.6,0.3,5.3,0.9c1.6,0.6,3,1.5,4.3,2.7c1.2,1.2,2.2,2.7,2.9,4.4c0.7,1.8,1.1,3.8,1.1,6.2C318.8,25.8,318.5,27.9,317.7,29.7
			z"/>
		<path id="XMLID_23_" class="st0" d="M109.5,0.7h-6.4c-0.8,0-1.5,0.7-1.5,1.5v28.1c0,1.2-0.2,2.2-0.6,3.1c-0.4,0.9-0.9,1.6-1.6,2.2
			c-0.7,0.6-1.5,1.1-2.5,1.4c-1,0.3-2.7,0.5-3.8,0.5c-1.2,0-2.9-0.2-4-0.5c-1-0.3-1.9-0.8-2.6-1.4c-0.7-0.6-1.2-1.3-1.6-2.2
			c-0.4-0.9-0.6-1.9-0.6-3.1V2.1c0-0.8-0.7-1.5-1.5-1.5h-6.4c-0.8,0-1.5,0.7-1.5,1.5v28.3c0,2.6,0.5,4.9,1.4,6.9c1,2,2.3,3.7,4,5.1
			c1.7,1.4,3.6,2.5,5.8,3.2c2.1,0.7,4.5,1,6.9,1c2.4,0,4.7-0.4,6.8-1c2.2-0.7,4.1-1.8,5.7-3.2c1.6-1.4,2.9-3.1,3.9-5.1
			c1-2,1.4-4.3,1.4-6.9V2.1C111,1.3,110.3,0.7,109.5,0.7z"/>
		<path id="XMLID_21_" class="st0" d="M154.3,43.6l-10.3-12.8c0,0,8.3-3,8.3-13.6c0-2.2-0.4-4.3-1.1-6.3c-0.7-2-1.8-3.8-3.3-5.3
			c-1.4-1.5-3.2-2.7-5.2-3.6c-2-0.9-4.4-1.3-6.9-1.3H119c-0.8,0-1.5,0.7-1.5,1.5v42.4c0,0.8,0.7,1.5,1.5,1.5h6.3
			c0.8,0,1.5-0.7,1.5-1.5l0-34.6h9.4c1,0,1.9,0.2,2.7,0.5c0.8,0.4,1.5,0.9,2.1,1.5c0.6,0.6,1,1.4,1.3,2.2c0.3,0.9,0.5,1.9,0.5,2.9
			c0,1-0.2,2-0.5,2.9c-0.3,0.9-0.8,1.7-1.4,2.3c-0.6,0.6-1.3,1-2.1,1.4c-0.8,0.4-2.2,0.6-5,0.6c0,0-3.2,0-3.9,0s-1.4,0.7-0.8,1.7
			L144,45.4c0.3,0.4,0.7,0.6,1.2,0.6h8.1C154.6,46,155.4,44.9,154.3,43.6z"/>
		<path id="XMLID_19_" class="st0" d="M369.5,43.6l-10.3-12.8c0,0,8.3-3,8.3-13.6c0-2.2-0.4-4.3-1.1-6.3c-0.7-2-1.8-3.8-3.3-5.3
			c-1.4-1.5-3.2-2.7-5.2-3.6c-2-0.9-4.4-1.3-6.9-1.3h-16.8c-0.8,0-1.5,0.7-1.5,1.5v42.4c0,0.8,0.7,1.5,1.5,1.5h6.3
			c0.8,0,1.5-0.7,1.5-1.5l0-34.6h9.4c1,0,1.9,0.2,2.7,0.5c0.8,0.4,1.5,0.9,2.1,1.5c0.6,0.6,1,1.4,1.3,2.2c0.3,0.9,0.5,1.9,0.5,2.9
			c0,1-0.2,2-0.5,2.9c-0.3,0.9-0.8,1.7-1.4,2.3c-0.6,0.6-1.3,1-2.1,1.4c-0.8,0.4-2.2,0.6-5,0.6c0,0-3.2,0-3.9,0
			c-0.8,0-1.4,0.7-0.8,1.7l14.7,19.4c0.3,0.4,0.7,0.6,1.2,0.6h8.1C369.8,46,370.6,44.9,369.5,43.6z"/>
	</g>
	<g>
		<path id="XMLID_2_" class="st1" d="M491,46.7h-69.7c-0.8,0-1.5-0.7-1.5-1.5V1.5c0-0.8,0.7-1.5,1.5-1.5H491c0.8,0,1.5,0.7,1.5,1.5
			v43.7C492.5,46.1,491.8,46.7,491,46.7z"/>
		<g>
			<path class="st2" d="M452,27.1h-4.2l0-1.2V8.4c0-0.6-0.5-1.2-1.2-1.2H441c-0.6,0-1.5,0.4-1.8,0.9l-12.2,16.7
				c-0.4,0.5-0.7,1.5-0.7,2.1v4.4c0,0.6,0.5,1.2,1.2,1.2h14.2c0,0,0,0.5,0,1.2v4.6c0,0.6,0.5,1.2,1.2,1.2h3.9c0.6,0,1.2-0.5,1.2-1.2
				v-4.6l0-1.2h4.2c0.6,0,1.2-0.5,1.2-1.2v-3.2C453.1,27.6,452.6,27.1,452,27.1z M441.6,27.1h-9.7l9.7-13.4V27.1z"/>
			<path class="st2" d="M465.3,38.3c0,0.6-0.5,1.2-1.2,1.2h-4c-0.6,0-1.2-0.5-1.2-1.2v-30c0-0.6,0.5-1.2,1.2-1.2h4
				c0.6,0,1.2,0.5,1.2,1.2v13.5l12.2-13.7c0.4-0.5,1.3-0.9,1.9-0.9h5.9c0.6,0,0.8,0.4,0.4,0.9l-12,13.2l12.2,17.3
				c0.4,0.5,0.1,0.9-0.5,0.9h-5.6c-0.6,0-1.5-0.4-1.8-0.9l-8.7-12.4l-4,4.4V38.3z"/>
		</g>
	</g>
</g>
</svg>
