<svg xmlns="http://www.w3.org/2000/svg" viewBox="0 0 283.46 283.46"><defs><style>.cls-1{fill:#131b4d;}.cls-2{fill:#fff;}.cls-3{fill:#d50032;}</style></defs><title>eurosport2</title><g id="Layer_2" data-name="Layer 2"><g id="Sport"><g id="eurosport2"><rect class="cls-1" width="283.46" height="283.46"/><g id="logo"><path class="cls-2" d="M59.61,151.36l-6.46-4.25-10,4.24,5.87-6.9-6.53-4.28H52.7l6.91-8.1v8.1h9.85l-9.85,4.2v7"/><path class="cls-2" d="M71.85,136a.63.63,0,0,0,.62-.63v-2.71a.62.62,0,0,0-.62-.62H61.28v4H71.85"/><path class="cls-2" d="M71.85,151.39a.63.63,0,0,0,.62-.62v-2.71a.62.62,0,0,0-.62-.63H61.28v4H71.85"/><path class="cls-2" d="M213.74,132H200.53a.64.64,0,0,0-.64.62v2.73a.64.64,0,0,0,.64.63h4.61v14.76a.62.62,0,0,0,.62.63h2.73a.62.62,0,0,0,.62-.63V136h4.61a.64.64,0,0,0,.64-.63v-2.73a.64.64,0,0,0-.64-.62"/><path class="cls-2" d="M157.34,140.33a3,3,0,0,1-.59,1,2.52,2.52,0,0,1-.88.6,5.83,5.83,0,0,1-2.12.24h-3V136h4a2.68,2.68,0,0,1,1.16.24,2.59,2.59,0,0,1,.91.62,2.54,2.54,0,0,1,.58,1,3.58,3.58,0,0,1,.21,1.24,3.35,3.35,0,0,1-.23,1.25Zm3.75-3.95a6.41,6.41,0,0,0-1.39-2.24,6.79,6.79,0,0,0-2.22-1.52,7.36,7.36,0,0,0-2.94-.57h-7.18a.63.63,0,0,0-.64.62v18.1a.63.63,0,0,0,.64.62h2.72a.63.63,0,0,0,.62-.62v-4.64h3.84a7.51,7.51,0,0,0,2.93-.55,6.88,6.88,0,0,0,2.21-1.52,6.6,6.6,0,0,0,1.4-2.2,8.37,8.37,0,0,0,.48-2.8,7.74,7.74,0,0,0-.47-2.67"/><path class="cls-2" d="M134.07,137.61a1.32,1.32,0,0,0,.24.85,2,2,0,0,0,.72.61,5.12,5.12,0,0,0,1.19.41c.51.11,1,.21,1.51.3.92.15,1.83.33,2.69.54a8,8,0,0,1,2.39,1,5,5,0,0,1,1.67,1.81,6.17,6.17,0,0,1-.3,5.65,5.87,5.87,0,0,1-1.91,1.79,6.92,6.92,0,0,1-2.43.94,12.51,12.51,0,0,1-2.8.19,10.15,10.15,0,0,1-7.08-3.59.58.58,0,0,1,.07-.84c.34-.36,2-2.06,2-2.06a.48.48,0,0,1,.81.1,6.16,6.16,0,0,0,4.35,2.5,5.48,5.48,0,0,0,1.37-.06,4.51,4.51,0,0,0,1.2-.34,2.29,2.29,0,0,0,.85-.65,2,2,0,0,0,.35-1.07,1.52,1.52,0,0,0-.28-1,2.46,2.46,0,0,0-.85-.7,5.06,5.06,0,0,0-1.33-.42l-1.57-.26a15.27,15.27,0,0,1-2.51-.51,8,8,0,0,1-2.24-1,5.09,5.09,0,0,1-1.6-1.72,4.34,4.34,0,0,1-.54-2.53,5.41,5.41,0,0,1,2.52-4.5,7.34,7.34,0,0,1,2.39-1,9.79,9.79,0,0,1,5.2.22,8.29,8.29,0,0,1,4,3,.59.59,0,0,1,0,.79c-.27.3-1.91,1.9-1.91,1.9a.54.54,0,0,1-.91,0,4.78,4.78,0,0,0-3.81-2.24c-1.61-.1-3.41.26-3.5,1.95"/><path class="cls-2" d="M124.2,144.42a5.55,5.55,0,0,1-1.25,1.88,5.48,5.48,0,0,1-1.83,1.14,6.85,6.85,0,0,1-4.54,0,5.06,5.06,0,0,1-1.8-1.14,5.37,5.37,0,0,1-1.22-1.88,7,7,0,0,1-.47-2.66,6.93,6.93,0,0,1,.47-2.65,5.45,5.45,0,0,1,1.23-1.89,5.2,5.2,0,0,1,1.81-1.15,6.54,6.54,0,0,1,2.28-.4,6.38,6.38,0,0,1,2.25.4,5.23,5.23,0,0,1,1.81,1.16,5.65,5.65,0,0,1,1.25,1.9,7.14,7.14,0,0,1,.45,2.62,7.29,7.29,0,0,1-.45,2.66Zm1.59-10a9.42,9.42,0,0,0-3.14-1.95,10.87,10.87,0,0,0-7.47,0,9.14,9.14,0,0,0-5.32,5.1,11.65,11.65,0,0,0,0,8.41,9.42,9.42,0,0,0,2.14,3.14A9.16,9.16,0,0,0,115.1,151a10.71,10.71,0,0,0,3.75.66,10.83,10.83,0,0,0,4-.71,9.15,9.15,0,0,0,3.14-2.06,9.37,9.37,0,0,0,2-3.15,11,11,0,0,0,.74-4,10.48,10.48,0,0,0-.81-4.2,9.47,9.47,0,0,0-2.14-3.15"/><path class="cls-2" d="M178.06,144.42a5.19,5.19,0,0,1-3.07,3,6.7,6.7,0,0,1-2.25.39,6.83,6.83,0,0,1-2.29-.39,4.88,4.88,0,0,1-1.78-1.14,5.6,5.6,0,0,1-1.23-1.88,7,7,0,0,1-.47-2.66,6.93,6.93,0,0,1,.47-2.65,5.66,5.66,0,0,1,1.23-1.89,5.4,5.4,0,0,1,1.83-1.15,6.42,6.42,0,0,1,2.28-.4,6.36,6.36,0,0,1,2.24.4,5.23,5.23,0,0,1,1.81,1.16,5.45,5.45,0,0,1,1.25,1.9,6.85,6.85,0,0,1,.47,2.62,7,7,0,0,1-.47,2.66Zm1.59-10a9.36,9.36,0,0,0-3.13-1.95,10.91,10.91,0,0,0-7.49,0,9.14,9.14,0,0,0-5.32,5.1,11.55,11.55,0,0,0,0,8.41A9,9,0,0,0,169,151a11.17,11.17,0,0,0,7.72,0,9,9,0,0,0,3.14-2.06,9.63,9.63,0,0,0,2-3.15,11,11,0,0,0,.72-4,10.73,10.73,0,0,0-.79-4.2,9.72,9.72,0,0,0-2.15-3.15"/><path class="cls-2" d="M89.25,132H86.52a.63.63,0,0,0-.62.62v12a3.24,3.24,0,0,1-.25,1.34,2.45,2.45,0,0,1-.69.92,3,3,0,0,1-1.06.6,6.32,6.32,0,0,1-1.64.21,6.65,6.65,0,0,1-1.68-.21,3.22,3.22,0,0,1-1.1-.6,2.65,2.65,0,0,1-.69-.92,3.24,3.24,0,0,1-.25-1.34v-12a.63.63,0,0,0-.62-.62H75.16a.62.62,0,0,0-.62.62v12.08a6.81,6.81,0,0,0,.61,3,6.6,6.6,0,0,0,1.68,2.19,7.47,7.47,0,0,0,2.46,1.34,9.76,9.76,0,0,0,5.86,0,7,7,0,0,0,2.45-1.35,6.55,6.55,0,0,0,1.66-2.18,6.81,6.81,0,0,0,.61-3V132.67a.63.63,0,0,0-.62-.62"/><path class="cls-2" d="M108.33,150.34l-4.4-5.47a6,6,0,0,0,3.55-5.81,7.74,7.74,0,0,0-.47-2.67,6.41,6.41,0,0,0-1.39-2.24,6.73,6.73,0,0,0-2.21-1.52,7.46,7.46,0,0,0-2.94-.57H93.3a.62.62,0,0,0-.62.62v18.1a.62.62,0,0,0,.62.62H96a.63.63,0,0,0,.64-.62V136h4a2.73,2.73,0,0,1,1.16.24,2.59,2.59,0,0,1,.91.62,2.74,2.74,0,0,1,.58,1,3.58,3.58,0,0,1,.21,1.24,3.66,3.66,0,0,1-.23,1.25,3,3,0,0,1-.59,1,2.52,2.52,0,0,1-.88.6,5.83,5.83,0,0,1-2.12.24H98c-.33,0-.58.3-.33.71l6.29,8.28a.63.63,0,0,0,.51.26h3.47c.52,0,.86-.48.38-1.05"/><path class="cls-2" d="M200.13,150.34l-4.42-5.47a6,6,0,0,0,3.57-5.81,7.74,7.74,0,0,0-.47-2.67,6.21,6.21,0,0,0-1.39-2.24,6.79,6.79,0,0,0-2.22-1.52,7.34,7.34,0,0,0-2.93-.57H185.1a.63.63,0,0,0-.64.62v18.1a.63.63,0,0,0,.64.62h2.7a.63.63,0,0,0,.62-.62V136h4a2.87,2.87,0,0,1,2.08.86,2.71,2.71,0,0,1,.57,1,3.28,3.28,0,0,1,.21,1.24,3.65,3.65,0,0,1-.21,1.25,3.22,3.22,0,0,1-.59,1,2.52,2.52,0,0,1-.88.6,5.83,5.83,0,0,1-2.12.24h-1.68c-.33,0-.58.3-.33.71l6.29,8.28a.63.63,0,0,0,.51.26h3.47c.52,0,.86-.48.38-1.05"/><path class="cls-2" d="M59.61,151.36l-6.46-4.25-10,4.24,5.87-6.9-6.53-4.28H52.7l6.91-8.1v8.1h9.85l-9.85,4.2v7"/><path class="cls-2" d="M71.85,136a.63.63,0,0,0,.62-.63v-2.71a.62.62,0,0,0-.62-.62H61.28v4H71.85"/><path class="cls-2" d="M71.85,151.39a.63.63,0,0,0,.62-.62v-2.71a.62.62,0,0,0-.62-.63H61.28v4H71.85"/><path class="cls-2" d="M213.74,132H200.53a.64.64,0,0,0-.64.62v2.73a.64.64,0,0,0,.64.63h4.61v14.76a.62.62,0,0,0,.62.63h2.73a.62.62,0,0,0,.62-.63V136h4.61a.64.64,0,0,0,.64-.63v-2.73a.64.64,0,0,0-.64-.62"/><path class="cls-2" d="M157.34,140.33a3,3,0,0,1-.59,1,2.52,2.52,0,0,1-.88.6,5.83,5.83,0,0,1-2.12.24h-3V136h4a2.68,2.68,0,0,1,1.16.24,2.59,2.59,0,0,1,.91.62,2.54,2.54,0,0,1,.58,1,3.58,3.58,0,0,1,.21,1.24,3.35,3.35,0,0,1-.23,1.25Zm3.75-3.95a6.41,6.41,0,0,0-1.39-2.24,6.79,6.79,0,0,0-2.22-1.52,7.36,7.36,0,0,0-2.94-.57h-7.18a.63.63,0,0,0-.64.62v18.1a.63.63,0,0,0,.64.62h2.72a.63.63,0,0,0,.62-.62v-4.64h3.84a7.51,7.51,0,0,0,2.93-.55,6.88,6.88,0,0,0,2.21-1.52,6.6,6.6,0,0,0,1.4-2.2,8.37,8.37,0,0,0,.48-2.8,7.74,7.74,0,0,0-.47-2.67"/><path class="cls-2" d="M134.07,137.61a1.32,1.32,0,0,0,.24.85,2,2,0,0,0,.72.61,5.12,5.12,0,0,0,1.19.41c.51.11,1,.21,1.51.3.92.15,1.83.33,2.69.54a8,8,0,0,1,2.39,1,5,5,0,0,1,1.67,1.81,6.17,6.17,0,0,1-.3,5.65,5.87,5.87,0,0,1-1.91,1.79,6.92,6.92,0,0,1-2.43.94,12.51,12.51,0,0,1-2.8.19,10.15,10.15,0,0,1-7.08-3.59.58.58,0,0,1,.07-.84c.34-.36,2-2.06,2-2.06a.48.48,0,0,1,.81.1,6.16,6.16,0,0,0,4.35,2.5,5.48,5.48,0,0,0,1.37-.06,4.51,4.51,0,0,0,1.2-.34,2.29,2.29,0,0,0,.85-.65,2,2,0,0,0,.35-1.07,1.52,1.52,0,0,0-.28-1,2.46,2.46,0,0,0-.85-.7,5.06,5.06,0,0,0-1.33-.42l-1.57-.26a15.27,15.27,0,0,1-2.51-.51,8,8,0,0,1-2.24-1,5.09,5.09,0,0,1-1.6-1.72,4.34,4.34,0,0,1-.54-2.53,5.41,5.41,0,0,1,2.52-4.5,7.34,7.34,0,0,1,2.39-1,9.79,9.79,0,0,1,5.2.22,8.29,8.29,0,0,1,4,3,.59.59,0,0,1,0,.79c-.27.3-1.91,1.9-1.91,1.9a.54.54,0,0,1-.91,0,4.78,4.78,0,0,0-3.81-2.24c-1.61-.1-3.41.26-3.5,1.95"/><path class="cls-2" d="M124.2,144.42a5.55,5.55,0,0,1-1.25,1.88,5.48,5.48,0,0,1-1.83,1.14,6.85,6.85,0,0,1-4.54,0,5.06,5.06,0,0,1-1.8-1.14,5.37,5.37,0,0,1-1.22-1.88,7,7,0,0,1-.47-2.66,6.93,6.93,0,0,1,.47-2.65,5.45,5.45,0,0,1,1.23-1.89,5.2,5.2,0,0,1,1.81-1.15,6.54,6.54,0,0,1,2.28-.4,6.38,6.38,0,0,1,2.25.4,5.23,5.23,0,0,1,1.81,1.16,5.65,5.65,0,0,1,1.25,1.9,7.14,7.14,0,0,1,.45,2.62,7.29,7.29,0,0,1-.45,2.66Zm1.59-10a9.42,9.42,0,0,0-3.14-1.95,10.87,10.87,0,0,0-7.47,0,9.14,9.14,0,0,0-5.32,5.1,11.65,11.65,0,0,0,0,8.41,9.42,9.42,0,0,0,2.14,3.14A9.16,9.16,0,0,0,115.1,151a10.71,10.71,0,0,0,3.75.66,10.83,10.83,0,0,0,4-.71,9.15,9.15,0,0,0,3.14-2.06,9.37,9.37,0,0,0,2-3.15,11,11,0,0,0,.74-4,10.48,10.48,0,0,0-.81-4.2,9.47,9.47,0,0,0-2.14-3.15"/><path class="cls-2" d="M178.06,144.42a5.19,5.19,0,0,1-3.07,3,6.7,6.7,0,0,1-2.25.39,6.83,6.83,0,0,1-2.29-.39,4.88,4.88,0,0,1-1.78-1.14,5.6,5.6,0,0,1-1.23-1.88,7,7,0,0,1-.47-2.66,6.93,6.93,0,0,1,.47-2.65,5.66,5.66,0,0,1,1.23-1.89,5.4,5.4,0,0,1,1.83-1.15,6.42,6.42,0,0,1,2.28-.4,6.36,6.36,0,0,1,2.24.4,5.23,5.23,0,0,1,1.81,1.16,5.45,5.45,0,0,1,1.25,1.9,6.85,6.85,0,0,1,.47,2.62,7,7,0,0,1-.47,2.66Zm1.59-10a9.36,9.36,0,0,0-3.13-1.95,10.91,10.91,0,0,0-7.49,0,9.14,9.14,0,0,0-5.32,5.1,11.55,11.55,0,0,0,0,8.41A9,9,0,0,0,169,151a11.17,11.17,0,0,0,7.72,0,9,9,0,0,0,3.14-2.06,9.63,9.63,0,0,0,2-3.15,11,11,0,0,0,.72-4,10.73,10.73,0,0,0-.79-4.2,9.72,9.72,0,0,0-2.15-3.15"/><path class="cls-2" d="M89.25,132H86.52a.63.63,0,0,0-.62.62v12a3.24,3.24,0,0,1-.25,1.34,2.45,2.45,0,0,1-.69.92,3,3,0,0,1-1.06.6,6.32,6.32,0,0,1-1.64.21,6.65,6.65,0,0,1-1.68-.21,3.22,3.22,0,0,1-1.1-.6,2.65,2.65,0,0,1-.69-.92,3.24,3.24,0,0,1-.25-1.34v-12a.63.63,0,0,0-.62-.62H75.16a.62.62,0,0,0-.62.62v12.08a6.81,6.81,0,0,0,.61,3,6.6,6.6,0,0,0,1.68,2.19,7.47,7.47,0,0,0,2.46,1.34,9.76,9.76,0,0,0,5.86,0,7,7,0,0,0,2.45-1.35,6.55,6.55,0,0,0,1.66-2.18,6.81,6.81,0,0,0,.61-3V132.67a.63.63,0,0,0-.62-.62"/><path class="cls-2" d="M108.33,150.34l-4.4-5.47a6,6,0,0,0,3.55-5.81,7.74,7.74,0,0,0-.47-2.67,6.41,6.41,0,0,0-1.39-2.24,6.73,6.73,0,0,0-2.21-1.52,7.46,7.46,0,0,0-2.94-.57H93.3a.62.62,0,0,0-.62.62v18.1a.62.62,0,0,0,.62.62H96a.63.63,0,0,0,.64-.62V136h4a2.73,2.73,0,0,1,1.16.24,2.59,2.59,0,0,1,.91.62,2.74,2.74,0,0,1,.58,1,3.58,3.58,0,0,1,.21,1.24,3.66,3.66,0,0,1-.23,1.25,3,3,0,0,1-.59,1,2.52,2.52,0,0,1-.88.6,5.83,5.83,0,0,1-2.12.24H98c-.33,0-.58.3-.33.71l6.29,8.28a.63.63,0,0,0,.51.26h3.47c.52,0,.86-.48.38-1.05"/><path class="cls-2" d="M200.13,150.34l-4.42-5.47a6,6,0,0,0,3.57-5.81,7.74,7.74,0,0,0-.47-2.67,6.21,6.21,0,0,0-1.39-2.24,6.79,6.79,0,0,0-2.22-1.52,7.34,7.34,0,0,0-2.93-.57H185.1a.63.63,0,0,0-.64.62v18.1a.63.63,0,0,0,.64.62h2.7a.63.63,0,0,0,.62-.62V136h4a2.87,2.87,0,0,1,2.08.86,2.71,2.71,0,0,1,.57,1,3.28,3.28,0,0,1,.21,1.24,3.65,3.65,0,0,1-.21,1.25,3.22,3.22,0,0,1-.59,1,2.52,2.52,0,0,1-.88.6,5.83,5.83,0,0,1-2.12.24h-1.68c-.33,0-.58.3-.33.71l6.29,8.28a.63.63,0,0,0,.51.26h3.47c.52,0,.86-.48.38-1.05"/><path class="cls-3" d="M240.29,151.71h-18a.64.64,0,0,1-.65-.65V132.41a.65.65,0,0,1,.65-.65h18a.66.66,0,0,1,.65.65v18.65a.65.65,0,0,1-.65.65"/><path class="cls-2" d="M226.92,147.81v.39a.43.43,0,0,0,.42.45h8.38a.43.43,0,0,0,.42-.45v-1.94a.45.45,0,0,0-.44-.44h-3.92l2.45-3.27c1.44-1.88,1.77-4,1-5.57a4,4,0,0,0-3.85-2.11c-2.77,0-4.35,1.52-4.4,4.26v.64a.43.43,0,0,0,.47.44h1.87a.46.46,0,0,0,.45-.45l0-.59a1.45,1.45,0,0,1,1.53-1.6,1.32,1.32,0,0,1,1.47,1.25,2.78,2.78,0,0,1-.75,2l-4.87,6.43a.77.77,0,0,0-.23.57"/></g></g></g></g></svg>