<svg xmlns="http://www.w3.org/2000/svg" viewBox="0 0 283.46 283.46"><defs><style>.cls-1{fill:#131b4d;}.cls-2{fill:#fff;}.cls-3{fill:#d50032;}</style></defs><g id="Layer_2" data-name="Layer 2"><g id="Sport"><g id="eurosport1"><rect class="cls-1" width="283.46" height="283.46"/><g id="logo"><path class="cls-2" d="M59.59,151.35l-6.45-4.24-10,4.23L49,144.45l-6.51-4.29H52.68l6.91-8.09v8.09h9.87l-9.87,4.21v7"/><path class="cls-2" d="M71.84,136a.65.65,0,0,0,.64-.62v-2.72a.63.63,0,0,0-.64-.62H61.28v4H71.84"/><path class="cls-2" d="M71.84,151.4a.65.65,0,0,0,.64-.63v-2.71a.63.63,0,0,0-.64-.63H61.28v4H71.84"/><path class="cls-2" d="M213.74,132H200.53a.64.64,0,0,0-.63.63v2.73a.65.65,0,0,0,.63.62h4.63v14.77a.61.61,0,0,0,.62.62h2.7a.63.63,0,0,0,.64-.62V136h4.62a.63.63,0,0,0,.62-.62v-2.73a.63.63,0,0,0-.62-.63"/><path class="cls-2" d="M157.33,140.31a2.3,2.3,0,0,1-.59,1,2.33,2.33,0,0,1-.88.61,6,6,0,0,1-2.11.23h-3V136h4a2.81,2.81,0,0,1,2.08.87,2.69,2.69,0,0,1,.57.94,3.69,3.69,0,0,1,.21,1.25,3.1,3.1,0,0,1-.23,1.23Zm3.75-3.93a6.38,6.38,0,0,0-1.38-2.24,6.64,6.64,0,0,0-2.23-1.52,7.06,7.06,0,0,0-2.93-.58h-7.19a.63.63,0,0,0-.62.63v18.1a.64.64,0,0,0,.62.63h2.72a.66.66,0,0,0,.64-.63v-4.64h3.83a7,7,0,0,0,2.92-.57,6.34,6.34,0,0,0,2.22-1.51,6.54,6.54,0,0,0,1.39-2.2,8,8,0,0,0,.48-2.8,7.55,7.55,0,0,0-.47-2.67"/><path class="cls-2" d="M134.07,137.59a1.37,1.37,0,0,0,.24.87,1.94,1.94,0,0,0,.71.61,4.77,4.77,0,0,0,1.21.41l1.5.31c.92.13,1.82.31,2.7.52a8.14,8.14,0,0,1,2.38,1,5,5,0,0,1,1.68,1.81,6.14,6.14,0,0,1-.29,5.63,6.2,6.2,0,0,1-1.93,1.82,7.63,7.63,0,0,1-2.43.93,12,12,0,0,1-2.79.18,10.13,10.13,0,0,1-7.08-3.58.59.59,0,0,1,.05-.85c.36-.35,2-2,2-2,.34-.37.66-.1.81.1a6.09,6.09,0,0,0,4.34,2.49,5.34,5.34,0,0,0,1.36-.06,4.08,4.08,0,0,0,1.22-.34,2,2,0,0,0,.83-.65,1.87,1.87,0,0,0,.37-1.07,1.55,1.55,0,0,0-.3-1,2.56,2.56,0,0,0-.84-.71,4.86,4.86,0,0,0-1.32-.42c-.54-.1-1.06-.19-1.59-.26a15.82,15.82,0,0,1-2.5-.51,7.79,7.79,0,0,1-2.24-1,5,5,0,0,1-1.6-1.71,4.59,4.59,0,0,1-.54-2.52,5.68,5.68,0,0,1,.75-2.68,5.6,5.6,0,0,1,1.77-1.82,7.41,7.41,0,0,1,2.41-1,9.89,9.89,0,0,1,5.2.23,8.28,8.28,0,0,1,4,3,.64.64,0,0,1,0,.8l-1.93,1.89a.55.55,0,0,1-.91,0,4.77,4.77,0,0,0-3.79-2.24c-1.61-.1-3.43.26-3.5,1.94"/><path class="cls-2" d="M124.19,144.4a5.5,5.5,0,0,1-1.24,1.9,5.56,5.56,0,0,1-1.83,1.13,6.8,6.8,0,0,1-4.54,0,5.19,5.19,0,0,1-1.79-1.13,5.77,5.77,0,0,1-1.23-1.9,6.84,6.84,0,0,1-.47-2.64,6.93,6.93,0,0,1,.47-2.65,5.48,5.48,0,0,1,1.23-1.88,5.41,5.41,0,0,1,1.83-1.17,6.69,6.69,0,0,1,2.28-.39,6.53,6.53,0,0,1,2.23.39,5.31,5.31,0,0,1,1.83,1.17,5.77,5.77,0,0,1,1.23,1.91,7.59,7.59,0,0,1,0,5.26Zm1.59-10a9.23,9.23,0,0,0-3.13-1.95,11.11,11.11,0,0,0-7.49,0,9.36,9.36,0,0,0-3.16,1.95,9.13,9.13,0,0,0-2.15,3.16,10.37,10.37,0,0,0-.81,4.19,10.62,10.62,0,0,0,.8,4.22A9,9,0,0,0,115.1,151a11.15,11.15,0,0,0,7.72-.06,8.78,8.78,0,0,0,3.14-2.05,9.77,9.77,0,0,0,2-3.16,10.9,10.9,0,0,0,.72-4,10.72,10.72,0,0,0-.79-4.19,9.56,9.56,0,0,0-2.15-3.16"/><path class="cls-2" d="M178.06,144.4a5.38,5.38,0,0,1-1.25,1.9,5.32,5.32,0,0,1-1.82,1.13,6.77,6.77,0,0,1-4.53,0,5.14,5.14,0,0,1-1.8-1.13,5.6,5.6,0,0,1-1.22-1.9,6.84,6.84,0,0,1-.48-2.64,6.93,6.93,0,0,1,.48-2.65,5.22,5.22,0,0,1,3.05-3.05,6.77,6.77,0,0,1,4.53,0,5.32,5.32,0,0,1,1.81,1.17,5.77,5.77,0,0,1,1.23,1.91,7.59,7.59,0,0,1,0,5.26Zm1.58-10a9,9,0,0,0-3.12-1.95,11.08,11.08,0,0,0-7.48,0,9.31,9.31,0,0,0-3.17,1.95,9.56,9.56,0,0,0-2.15,3.16,10.54,10.54,0,0,0-.81,4.19,10.8,10.8,0,0,0,.79,4.22A9.18,9.18,0,0,0,169,151a10.67,10.67,0,0,0,3.74.66,10.8,10.8,0,0,0,4-.72,8.87,8.87,0,0,0,3.14-2.05,9.59,9.59,0,0,0,2-3.16,10.91,10.91,0,0,0,.73-4,10.72,10.72,0,0,0-.8-4.19,9.43,9.43,0,0,0-2.16-3.16"/><path class="cls-2" d="M89.24,132H86.52a.64.64,0,0,0-.64.63v12a3.16,3.16,0,0,1-.25,1.33,2.8,2.8,0,0,1-.68.94,3.41,3.41,0,0,1-1.08.59,5.68,5.68,0,0,1-1.63.22,6.11,6.11,0,0,1-1.69-.22,3.16,3.16,0,0,1-1.09-.59,2.75,2.75,0,0,1-.71-.94,3.15,3.15,0,0,1-.26-1.33v-12a.63.63,0,0,0-.62-.63H75.15a.63.63,0,0,0-.62.63v12.07a6.92,6.92,0,0,0,.61,3,6.52,6.52,0,0,0,1.7,2.2,7.44,7.44,0,0,0,2.45,1.33,9.79,9.79,0,0,0,2.95.45,9.69,9.69,0,0,0,2.92-.45,7.09,7.09,0,0,0,2.44-1.35,6.62,6.62,0,0,0,1.65-2.18,6.81,6.81,0,0,0,.62-3V132.67a.63.63,0,0,0-.63-.63"/><path class="cls-2" d="M108.34,150.35l-4.42-5.48a6,6,0,0,0,3.57-5.82,7.78,7.78,0,0,0-.47-2.67,6.4,6.4,0,0,0-1.39-2.24,6.7,6.7,0,0,0-2.22-1.52,7.13,7.13,0,0,0-3-.58H93.29a.64.64,0,0,0-.63.63v18.1a.65.65,0,0,0,.63.63H96a.65.65,0,0,0,.62-.63V136h4a2.73,2.73,0,0,1,1.16.23,2.82,2.82,0,0,1,.92.64,2.69,2.69,0,0,1,.57.94,3.69,3.69,0,0,1,.21,1.25,3.49,3.49,0,0,1-.21,1.23,3,3,0,0,1-.61,1,2.18,2.18,0,0,1-.88.61,6,6,0,0,1-2.11.23H98c-.34,0-.6.31-.34.72l6.3,8.27a.59.59,0,0,0,.51.27H108c.51,0,.85-.48.39-1.05"/><path class="cls-2" d="M200.14,150.35l-4.41-5.48a6,6,0,0,0,3.56-5.82,8.28,8.28,0,0,0-.46-2.67,6.46,6.46,0,0,0-3.61-3.76,7.22,7.22,0,0,0-2.95-.58H185.1a.65.65,0,0,0-.64.63v18.1a.66.66,0,0,0,.64.63h2.7a.63.63,0,0,0,.62-.63V136h4a2.81,2.81,0,0,1,1.17.23,2.6,2.6,0,0,1,.89.64,2.33,2.33,0,0,1,.58.94,3.46,3.46,0,0,1,.22,1.25,3.1,3.1,0,0,1-.23,1.23,2.78,2.78,0,0,1-.59,1,2.33,2.33,0,0,1-.88.61,6.07,6.07,0,0,1-2.11.23h-1.7c-.33,0-.58.31-.33.72l6.29,8.27a.62.62,0,0,0,.52.27h3.46c.51,0,.86-.48.39-1.05"/><path class="cls-2" d="M59.59,151.35l-6.45-4.24-10,4.23L49,144.45l-6.51-4.29H52.68l6.91-8.09v8.09h9.87l-9.87,4.21v7"/><path class="cls-2" d="M71.84,136a.65.65,0,0,0,.64-.62v-2.72a.63.63,0,0,0-.64-.62H61.28v4H71.84"/><path class="cls-2" d="M71.84,151.4a.65.65,0,0,0,.64-.63v-2.71a.63.63,0,0,0-.64-.63H61.28v4H71.84"/><path class="cls-2" d="M213.74,132H200.53a.64.64,0,0,0-.63.63v2.73a.65.65,0,0,0,.63.62h4.63v14.77a.61.61,0,0,0,.62.62h2.7a.63.63,0,0,0,.64-.62V136h4.62a.63.63,0,0,0,.62-.62v-2.73a.63.63,0,0,0-.62-.63"/><path class="cls-2" d="M157.33,140.31a2.3,2.3,0,0,1-.59,1,2.33,2.33,0,0,1-.88.61,6,6,0,0,1-2.11.23h-3V136h4a2.81,2.81,0,0,1,2.08.87,2.69,2.69,0,0,1,.57.94,3.69,3.69,0,0,1,.21,1.25,3.1,3.1,0,0,1-.23,1.23Zm3.75-3.93a6.38,6.38,0,0,0-1.38-2.24,6.64,6.64,0,0,0-2.23-1.52,7.06,7.06,0,0,0-2.93-.58h-7.19a.63.63,0,0,0-.62.63v18.1a.64.64,0,0,0,.62.63h2.72a.66.66,0,0,0,.64-.63v-4.64h3.83a7,7,0,0,0,2.92-.57,6.34,6.34,0,0,0,2.22-1.51,6.54,6.54,0,0,0,1.39-2.2,8,8,0,0,0,.48-2.8,7.55,7.55,0,0,0-.47-2.67"/><path class="cls-2" d="M134.07,137.59a1.37,1.37,0,0,0,.24.87,1.94,1.94,0,0,0,.71.61,4.77,4.77,0,0,0,1.21.41l1.5.31c.92.13,1.82.31,2.7.52a8.14,8.14,0,0,1,2.38,1,5,5,0,0,1,1.68,1.81,6.14,6.14,0,0,1-.29,5.63,6.2,6.2,0,0,1-1.93,1.82,7.63,7.63,0,0,1-2.43.93,12,12,0,0,1-2.79.18,10.13,10.13,0,0,1-7.08-3.58.59.59,0,0,1,.05-.85c.36-.35,2-2,2-2,.34-.37.66-.1.81.1a6.09,6.09,0,0,0,4.34,2.49,5.34,5.34,0,0,0,1.36-.06,4.08,4.08,0,0,0,1.22-.34,2,2,0,0,0,.83-.65,1.87,1.87,0,0,0,.37-1.07,1.55,1.55,0,0,0-.3-1,2.56,2.56,0,0,0-.84-.71,4.86,4.86,0,0,0-1.32-.42c-.54-.1-1.06-.19-1.59-.26a15.82,15.82,0,0,1-2.5-.51,7.79,7.79,0,0,1-2.24-1,5,5,0,0,1-1.6-1.71,4.59,4.59,0,0,1-.54-2.52,5.68,5.68,0,0,1,.75-2.68,5.6,5.6,0,0,1,1.77-1.82,7.41,7.41,0,0,1,2.41-1,9.89,9.89,0,0,1,5.2.23,8.28,8.28,0,0,1,4,3,.64.64,0,0,1,0,.8l-1.93,1.89a.55.55,0,0,1-.91,0,4.77,4.77,0,0,0-3.79-2.24c-1.61-.1-3.43.26-3.5,1.94"/><path class="cls-2" d="M124.19,144.4a5.5,5.5,0,0,1-1.24,1.9,5.56,5.56,0,0,1-1.83,1.13,6.8,6.8,0,0,1-4.54,0,5.19,5.19,0,0,1-1.79-1.13,5.77,5.77,0,0,1-1.23-1.9,6.84,6.84,0,0,1-.47-2.64,6.93,6.93,0,0,1,.47-2.65,5.48,5.48,0,0,1,1.23-1.88,5.41,5.41,0,0,1,1.83-1.17,6.69,6.69,0,0,1,2.28-.39,6.53,6.53,0,0,1,2.23.39,5.31,5.31,0,0,1,1.83,1.17,5.77,5.77,0,0,1,1.23,1.91,7.59,7.59,0,0,1,0,5.26Zm1.59-10a9.23,9.23,0,0,0-3.13-1.95,11.11,11.11,0,0,0-7.49,0,9.36,9.36,0,0,0-3.16,1.95,9.13,9.13,0,0,0-2.15,3.16,10.37,10.37,0,0,0-.81,4.19,10.62,10.62,0,0,0,.8,4.22A9,9,0,0,0,115.1,151a11.15,11.15,0,0,0,7.72-.06,8.78,8.78,0,0,0,3.14-2.05,9.77,9.77,0,0,0,2-3.16,10.9,10.9,0,0,0,.72-4,10.72,10.72,0,0,0-.79-4.19,9.56,9.56,0,0,0-2.15-3.16"/><path class="cls-2" d="M178.06,144.4a5.38,5.38,0,0,1-1.25,1.9,5.32,5.32,0,0,1-1.82,1.13,6.77,6.77,0,0,1-4.53,0,5.14,5.14,0,0,1-1.8-1.13,5.6,5.6,0,0,1-1.22-1.9,6.84,6.84,0,0,1-.48-2.64,6.93,6.93,0,0,1,.48-2.65,5.22,5.22,0,0,1,3.05-3.05,6.77,6.77,0,0,1,4.53,0,5.32,5.32,0,0,1,1.81,1.17,5.77,5.77,0,0,1,1.23,1.91,7.59,7.59,0,0,1,0,5.26Zm1.58-10a9,9,0,0,0-3.12-1.95,11.08,11.08,0,0,0-7.48,0,9.31,9.31,0,0,0-3.17,1.95,9.56,9.56,0,0,0-2.15,3.16,10.54,10.54,0,0,0-.81,4.19,10.8,10.8,0,0,0,.79,4.22A9.18,9.18,0,0,0,169,151a10.67,10.67,0,0,0,3.74.66,10.8,10.8,0,0,0,4-.72,8.87,8.87,0,0,0,3.14-2.05,9.59,9.59,0,0,0,2-3.16,10.91,10.91,0,0,0,.73-4,10.72,10.72,0,0,0-.8-4.19,9.43,9.43,0,0,0-2.16-3.16"/><path class="cls-2" d="M89.24,132H86.52a.64.64,0,0,0-.64.63v12a3.16,3.16,0,0,1-.25,1.33,2.8,2.8,0,0,1-.68.94,3.41,3.41,0,0,1-1.08.59,5.68,5.68,0,0,1-1.63.22,6.11,6.11,0,0,1-1.69-.22,3.16,3.16,0,0,1-1.09-.59,2.75,2.75,0,0,1-.71-.94,3.15,3.15,0,0,1-.26-1.33v-12a.63.63,0,0,0-.62-.63H75.15a.63.63,0,0,0-.62.63v12.07a6.92,6.92,0,0,0,.61,3,6.52,6.52,0,0,0,1.7,2.2,7.44,7.44,0,0,0,2.45,1.33,9.79,9.79,0,0,0,2.95.45,9.69,9.69,0,0,0,2.92-.45,7.09,7.09,0,0,0,2.44-1.35,6.62,6.62,0,0,0,1.65-2.18,6.81,6.81,0,0,0,.62-3V132.67a.63.63,0,0,0-.63-.63"/><path class="cls-2" d="M108.34,150.35l-4.42-5.48a6,6,0,0,0,3.57-5.82,7.78,7.78,0,0,0-.47-2.67,6.4,6.4,0,0,0-1.39-2.24,6.7,6.7,0,0,0-2.22-1.52,7.13,7.13,0,0,0-3-.58H93.29a.64.64,0,0,0-.63.63v18.1a.65.65,0,0,0,.63.63H96a.65.65,0,0,0,.62-.63V136h4a2.73,2.73,0,0,1,1.16.23,2.82,2.82,0,0,1,.92.64,2.69,2.69,0,0,1,.57.94,3.69,3.69,0,0,1,.21,1.25,3.49,3.49,0,0,1-.21,1.23,3,3,0,0,1-.61,1,2.18,2.18,0,0,1-.88.61,6,6,0,0,1-2.11.23H98c-.34,0-.6.31-.34.72l6.3,8.27a.59.59,0,0,0,.51.27H108c.51,0,.85-.48.39-1.05"/><path class="cls-2" d="M200.14,150.35l-4.41-5.48a6,6,0,0,0,3.56-5.82,8.28,8.28,0,0,0-.46-2.67,6.46,6.46,0,0,0-3.61-3.76,7.22,7.22,0,0,0-2.95-.58H185.1a.65.65,0,0,0-.64.63v18.1a.66.66,0,0,0,.64.63h2.7a.63.63,0,0,0,.62-.63V136h4a2.81,2.81,0,0,1,1.17.23,2.6,2.6,0,0,1,.89.64,2.33,2.33,0,0,1,.58.94,3.46,3.46,0,0,1,.22,1.25,3.1,3.1,0,0,1-.23,1.23,2.78,2.78,0,0,1-.59,1,2.33,2.33,0,0,1-.88.61,6.07,6.07,0,0,1-2.11.23h-1.7c-.33,0-.58.31-.33.72l6.29,8.27a.62.62,0,0,0,.52.27h3.46c.51,0,.86-.48.39-1.05"/><path class="cls-3" d="M240.31,151.71h-18a.65.65,0,0,1-.65-.65V132.41a.65.65,0,0,1,.65-.65h18a.63.63,0,0,1,.63.65v18.65a.63.63,0,0,1-.63.65"/><path class="cls-2" d="M233.48,135.29a.44.44,0,0,0-.43-.44h-4.52a.44.44,0,0,0-.45.44v1.94a.42.42,0,0,0,.43.45h1.93v10.5a.43.43,0,0,0,.43.44h2.19a.42.42,0,0,0,.42-.44V135.29"/></g></g></g></g></svg>