<svg xmlns="http://www.w3.org/2000/svg" viewBox="0 0 283.46 283.46"><defs><style>.cls-1{fill:#221e1f;}.cls-2{fill:#fff;}</style></defs><g id="Layer_2" data-name="Layer 2"><g id="Sport"><g id="extremesports"><rect class="cls-1" width="283.46" height="283.46"/><g id="logo"><path id="path7196" class="cls-2" d="M56.86,217.87a5.85,5.85,0,0,1-3.42-.79l1.4-.93a4.13,4.13,0,0,0,2,.42c.88,0,1.3-.19,1.3-.54a.36.36,0,0,0-.17-.35,1.52,1.52,0,0,0-.61-.18l-1.09-.1a4,4,0,0,1-1.78-.52,1.39,1.39,0,0,1-.63-1.21c0-1.08,1.24-1.9,3.29-1.9a5.2,5.2,0,0,1,3,.74l-1.41.9a3.1,3.1,0,0,0-1.68-.35c-.78,0-1.09.31-1.09.56a.39.39,0,0,0,.17.29,1.56,1.56,0,0,0,.61.17l1.11.1a4.17,4.17,0,0,1,1.76.49,1.43,1.43,0,0,1,.67,1.32c0,1.21-1.59,1.88-3.48,1.88"/><path id="path7199" class="cls-2" d="M71.58,213.76c0,.31-.36.61-1,.61H69.37v-1.23h1.22c.63,0,1,.32,1,.62Zm2.2,0c0-1-1.07-1.92-3.06-1.92H67.15v6h2.22v-2.15h1.35c2,0,3.06-.95,3.06-1.93"/><path id="path7201" class="cls-2" d="M84.78,214.83c0,1.08-.14,1.29-.33,1.47a1.59,1.59,0,0,1-1.77,0c-.21-.18-.33-.39-.33-1.47s.12-1.29.33-1.46a1.54,1.54,0,0,1,1.77,0C84.64,213.54,84.78,213.72,84.78,214.83Zm2.21,0c0-.91,0-1.74-.91-2.37a4.93,4.93,0,0,0-5,0c-1,.63-.93,1.46-.93,2.37s0,1.74.93,2.37a5.06,5.06,0,0,0,5,0c1-.63.91-1.46.91-2.37"/><path id="path7203" class="cls-2" d="M210.27,217.84v-6h6.11v1.3h-3.9v1h3.33v1.32h-3.33v1h3.9v1.34"/><path id="path7205" class="cls-2" d="M223.29,217.84v-6h2.24v4.66h3.74v1.34"/><path id="path7207" class="cls-2" d="M141.72,65.59c-54.8,0-99.2,23-99.2,53s44.4,53,99.2,53,99.22-23,99.22-53-44.42-53-99.22-53Zm.11,101.12C98.74,166.71,64,145.79,64,118.34S98.74,70.7,141.83,70.7s77.64,20.22,77.64,47.64-34.56,48.37-77.64,48.37"/><path id="path7209" class="cls-2" d="M141.72,123.55l57.07-17.36v16L168.22,131l28,6.67L192.64,151l-50.9-11.78L90.89,150.79l-3.65-13.13L115.29,131l-30.55-9V106.19"/><path id="path7211" class="cls-2" d="M128.31,89.39h26.13c3.39,0,4.12-1,1.62-2.28,0,0-5.29-2.66-14.23-2.66-9.7,0-15.12,2.68-15.12,2.68C124.17,88.37,124.88,89.39,128.31,89.39ZM100,95.85c0-9.54,21-19.63,41.57-19.14s37.64,10.7,38.4,20c0,.22,0,.7,0,.72l-53.43,0c-3.74,0-5.11,1.84-2.29,3.48a37.91,37.91,0,0,0,16.79,3.88,34.93,34.93,0,0,0,14-2.71h24.58l-.75.78c-6.81,6.93-21.42,11.71-37,11.71-20.61,0-42-8.19-42-18.77"/><path id="path7213" class="cls-2" d="M98.3,213.76c0,.31-.35.61-1,.61H96.08v-1.23h1.26c.61,0,1,.32,1,.62Zm2.69,4.08L99,215.31c.71-.22,1.47-.73,1.47-1.55,0-1-1.07-1.92-3.09-1.92H93.89v6h2.19V215.6h.75l1.6,2.24"/><path id="path7215" class="cls-2" d="M111.36,213.14v4.7h-2.2v-4.7h-2.23v-1.3h6.64v1.3"/><path id="path7217" class="cls-2" d="M122.78,217.87a5.7,5.7,0,0,1-3.4-.79l1.41-.93a4,4,0,0,0,2,.42c.86,0,1.28-.19,1.28-.54a.38.38,0,0,0-.17-.35,1.78,1.78,0,0,0-.61-.18l-1.07-.1a4.2,4.2,0,0,1-1.83-.52,1.41,1.41,0,0,1-.61-1.21c0-1.08,1.24-1.9,3.3-1.9a5.15,5.15,0,0,1,3,.74l-1.38.9a3.27,3.27,0,0,0-1.72-.35c-.76,0-1.08.31-1.08.56a.4.4,0,0,0,.19.29,1.55,1.55,0,0,0,.59.17l1.09.1a4.06,4.06,0,0,1,1.79.49,1.45,1.45,0,0,1,.67,1.32c0,1.21-1.58,1.88-3.49,1.88"/><path id="path7219" class="cls-2" d="M144.35,217.87a4.47,4.47,0,0,1-2.5-.67c-.95-.63-.91-1.46-.91-2.37s0-1.74.91-2.37a4.47,4.47,0,0,1,2.5-.69c1.72,0,3.08.64,3.42,1.95h-2.25a1.1,1.1,0,0,0-1.15-.63,1.29,1.29,0,0,0-.86.26c-.19.17-.36.37-.36,1.48s.17,1.31.36,1.48a1.24,1.24,0,0,0,.86.26,1.09,1.09,0,0,0,1.15-.66h2.25c-.34,1.34-1.7,2-3.42,2"/><path id="path7221" class="cls-2" d="M158.85,217.84v-2.39H156.5v2.39h-2.2v-6h2.2v2.29h2.35v-2.29h2.21v6"/><path id="path7223" class="cls-2" d="M172.27,215.69H170.7l.81-1.59Zm3.32,2.15-3.28-6h-1.72l-3.28,6h2.31l.47-.91h2.75l.44.91"/><path id="path7225" class="cls-2" d="M187,217.84l-2.88-3v3h-2.23v-6h1.94l2.87,3v-3h2.23v6"/><path id="path7227" class="cls-2" d="M201.16,217.84l-2.88-3v3h-2.22v-6H198l2.9,3v-3h2.18v6"/><path id="path7229" class="cls-2" d="M53.86,186.46v18.4H68.3v-4.2H59.23v-3H67v-4.22H59.23v-2.74H68.3v-4.27h-.12"/><path id="path7231" class="cls-2" d="M96,186.46H89.82s-2.77,4.64-3,5c-.21-.37-3-5-3-5H77.71s6.07,8.83,6.19,9c-.12.14-6.61,9.41-6.61,9.41h6.19l3.36-5.45,3.36,5.45h6.19l-6.61-9.41c.1-.16,6.19-9,6.19-9"/><path id="path7233" class="cls-2" d="M104.71,186.46v4.27h5.12v14.13h5.35V190.73h5.17v-4.27h-.15"/><path id="path7235" class="cls-2" d="M146.59,192.45a5.42,5.42,0,0,0-1.84-4.12,7.81,7.81,0,0,0-5.4-1.87H131v18.4h5.4v-6.72h1.51c.06.13,3.69,6.72,3.69,6.72h6.26s-4.39-7.39-4.56-7.63A5,5,0,0,0,146.59,192.45Zm-10.24-1.72h2.77a2.4,2.4,0,0,1,1.53.5,1.57,1.57,0,0,1,.57,1.22,1.52,1.52,0,0,1-.57,1.17,2.27,2.27,0,0,1-1.53.49h-2.77v-3.38"/><path id="path7237" class="cls-2" d="M157.91,186.46v18.4h14.46v-4.2h-9.09v-3h7.77v-4.22h-7.77v-2.74h9.09v-4.27h-.14"/><path id="path7239" class="cls-2" d="M198.05,186.46s-4.39,7.51-4.62,7.87l-4.6-7.87h-5.24v18.4H189v-8.33l4.45,6.85s4.07-6.2,4.52-6.87v8.35h5.39v-18.4h-.15"/><path id="path7242" class="cls-2" d="M229.46,190.73v-4.27H215v18.4h14.44v-4.2h-9.07v-3h7.77v-4.22h-7.77v-2.74h9.07"/></g></g></g></g></svg>