<svg xmlns="http://www.w3.org/2000/svg" viewBox="0 0 283.46 283.46"><defs><style>.cls-1{fill:#006fe8;}.cls-2{fill:#fff;}</style></defs><g id="Layer_2" data-name="Layer 2"><g id="Travel_Lifestyle" data-name="Travel &amp; Lifestyle"><g id="fashiontv"><rect class="cls-1" width="283.46" height="283.46"/><g id="logo"><path class="cls-2" d="M61.89,156.43,42.52,137.06l10-10h18.8l10,10ZM45.22,137.06l16.67,16.67,16.67-16.67L70.5,129H53.28Z"/><path class="cls-2" d="M64.94,138.35V139H62.8v9.26h2.14v.61H58.69v-.61h2V139h-2v-.61h2v-1.3c0-4.53,1.88-6.43,4.43-6.43,1,0,2.22.47,2.22,1.72a1,1,0,0,1-1,.87c-.72,0-1.09-.5-1.09-1.22,0-.29.22-.31.22-.66,0-.13-.45-.16-.64-.16-1.27,0-2.09,1.54-2.09,4.18v3Z"/><path class="cls-2" d="M69.45,138.61a1,1,0,1,1-1-1,1,1,0,0,1,1,1"/><path class="cls-2" d="M98.88,139.26v1.06H95.13v16.19h3.75v1.06H88v-1.06h3.56V140.32H88v-1.06h3.56V137a19.87,19.87,0,0,1,.58-5.09,10.27,10.27,0,0,1,1.62-3.49,6.49,6.49,0,0,1,2.45-2,7.33,7.33,0,0,1,3.08-.65,6.07,6.07,0,0,1,1.39.17,3.53,3.53,0,0,1,1.24.53,3,3,0,0,1,.91.92,2.58,2.58,0,0,1,.34,1.39,1.32,1.32,0,0,1-.55,1.11,1.9,1.9,0,0,1-1.16.42,1.71,1.71,0,0,1-1.41-.6,2.39,2.39,0,0,1-.48-1.53.68.68,0,0,1,.18-.53.84.84,0,0,0,.19-.63c0-.12-.15-.2-.44-.23s-.52,0-.67,0a3,3,0,0,0-2.66,1.91,11.82,11.82,0,0,0-1,5.39v5.23Z"/><path class="cls-2" d="M119.49,154.38a4,4,0,0,1-1.2,2.71,3.76,3.76,0,0,1-2.73,1.08,2.72,2.72,0,0,1-2-.76,3.9,3.9,0,0,1-1-2.06,7,7,0,0,1-2.84,2.15,8.88,8.88,0,0,1-3.4.67,8.67,8.67,0,0,1-2.08-.23,4.75,4.75,0,0,1-1.71-.76,3.72,3.72,0,0,1-1.18-1.39,4.73,4.73,0,0,1-.44-2.15,5.62,5.62,0,0,1,3.19-5,17.26,17.26,0,0,1,8.42-1.73v-4.4a2.74,2.74,0,0,0-.3-1.36,2.57,2.57,0,0,0-.77-.86,3,3,0,0,0-1.06-.46,5.46,5.46,0,0,0-1.2-.14c-.25,0-.61,0-1.09.07a10.2,10.2,0,0,0-1.43.25,4.94,4.94,0,0,0-1.25.51,1,1,0,0,0-.53.84c0,.09.07.18.2.27s.31.21.49.35a1.78,1.78,0,0,1,.49.58,2.23,2.23,0,0,1-.3,2.33,1.83,1.83,0,0,1-1.39.54,1.75,1.75,0,0,1-1.44-.63,2.44,2.44,0,0,1-.5-1.59,3.2,3.2,0,0,1,.39-1.39,4.32,4.32,0,0,1,1.25-1.46,7.33,7.33,0,0,1,2.26-1.13,14.34,14.34,0,0,1,7.13,0,4.29,4.29,0,0,1,1.87,1.13,2.69,2.69,0,0,1,.69,1.48,13,13,0,0,1,.09,1.48v11a7.8,7.8,0,0,0,.12,1.59c.08.36.36.53.86.53a1.15,1.15,0,0,0,1.06-.74,8.1,8.1,0,0,0,.55-1.34Zm-7-6.47a21.82,21.82,0,0,0-2.52.16,10.08,10.08,0,0,0-2.66.67,5.63,5.63,0,0,0-2.11,1.46,4.17,4.17,0,0,0,.12,5.2,3.49,3.49,0,0,0,2.59,1,5.53,5.53,0,0,0,1.92-.3,5.27,5.27,0,0,0,1.64-1,7.79,7.79,0,0,0,.65-.81,3.87,3.87,0,0,0,.37-2Z"/><path class="cls-2" d="M133.48,139.26v5.18h-1a7.26,7.26,0,0,0-1.73-3.33,4.65,4.65,0,0,0-3.31-1.39,4.52,4.52,0,0,0-2.29.42,4.23,4.23,0,0,0-1.32,1,3.19,3.19,0,0,0-.6,1.15,4.54,4.54,0,0,0-.14.77,2.29,2.29,0,0,0,.17.9,1.85,1.85,0,0,0,.9.79,11.39,11.39,0,0,0,2.24.8c1,.28,2.38.61,4.14,1a6.58,6.58,0,0,1,3.75,1.8,5.18,5.18,0,0,1,1.06,3.47,6.51,6.51,0,0,1-.53,2.66,5.92,5.92,0,0,1-1.44,2,6.31,6.31,0,0,1-2.1,1.24,7.3,7.3,0,0,1-2.59.44,7.63,7.63,0,0,1-2.89-.57,6.78,6.78,0,0,1-2.43-1.69l-1,1.66h-1v-6.1h1.06a8.8,8.8,0,0,0,2.31,4.14,5.83,5.83,0,0,0,4.26,1.64,4.57,4.57,0,0,0,1.57-.28,4.52,4.52,0,0,0,1.43-.81,4.42,4.42,0,0,0,1.07-1.25,3.27,3.27,0,0,0,.41-1.64c0-.89-.57-1.59-1.73-2.1a31.46,31.46,0,0,0-4.65-1.51c-.77-.18-1.5-.37-2.2-.55a6.18,6.18,0,0,1-1.82-.81,3.71,3.71,0,0,1-1.25-1.41,5.22,5.22,0,0,1-.46-2.41,6.52,6.52,0,0,1,.27-1.71,5.44,5.44,0,0,1,1-1.85,5.81,5.81,0,0,1,1.89-1.5,6.68,6.68,0,0,1,3.1-.62,6.84,6.84,0,0,1,4.3,1.71l.83-1.25Z"/><path class="cls-2" d="M139.32,126.77h-2.54v-1.06h1q1.29,0,2.61-.09a23.42,23.42,0,0,0,2.57-.33V143.7H143a10.22,10.22,0,0,1,2.45-3.56,5.75,5.75,0,0,1,4-1.34,14.67,14.67,0,0,1,1.55.11,5.06,5.06,0,0,1,1.83.6,4.13,4.13,0,0,1,2.13,3.91v13.09h2.5v1.06H149v-1.06h2.4V144a9.08,9.08,0,0,0-.18-2,2.66,2.66,0,0,0-.58-1.18,1.85,1.85,0,0,0-.93-.55,4.5,4.5,0,0,0-1.22-.14,3.73,3.73,0,0,0-2.2.71,7.42,7.42,0,0,0-1.76,1.85,9.71,9.71,0,0,0-1.18,2.52,9.61,9.61,0,0,0-.41,2.69v8.6h2.5v1.06h-8.65v-1.06h2.54Z"/><path class="cls-2" d="M159.51,157.57v-1.06h3.1V140.32h-3.1v-1.06H161c.87,0,1.74,0,2.62-.07a13.52,13.52,0,0,0,2.56-.39v17.71h2.73v1.06Zm2.63-28.3a2.12,2.12,0,0,1,.67-1.57,2.19,2.19,0,0,1,1.55-.65,2.46,2.46,0,0,1,1.6.65,2,2,0,0,1,.76,1.57,2.43,2.43,0,0,1-.67,1.76,2.26,2.26,0,0,1-1.69.69,2,2,0,0,1-1.61-.72,2.54,2.54,0,0,1-.61-1.73"/><path class="cls-2" d="M179.09,138.8a8.58,8.58,0,0,1,6.29,2.72,10,10,0,0,1,1.92,3.08,10.85,10.85,0,0,1,0,7.72,9.92,9.92,0,0,1-1.92,3.08,8.67,8.67,0,0,1-2.85,2,8.39,8.39,0,0,1-6.89,0,8.74,8.74,0,0,1-2.84-2,9.92,9.92,0,0,1-1.92-3.08,10.71,10.71,0,0,1,0-7.72,10,10,0,0,1,1.92-3.08,8.54,8.54,0,0,1,6.29-2.72m0,.92a4,4,0,0,0-2.71.83,5.1,5.1,0,0,0-1.41,2.11,9.55,9.55,0,0,0-.53,2.82c-.05,1-.07,2-.07,3s0,2,.07,3a9.55,9.55,0,0,0,.53,2.82,5.1,5.1,0,0,0,1.41,2.11,4.82,4.82,0,0,0,5.41,0,5,5,0,0,0,1.42-2.11,9.88,9.88,0,0,0,.53-2.82c0-1,.07-2,.07-3s0-2-.07-3a9.88,9.88,0,0,0-.53-2.82,5,5,0,0,0-1.42-2.11,4,4,0,0,0-2.7-.83"/><path class="cls-2" d="M191.8,140.32h-2.55v-1.06h2.27a9.32,9.32,0,0,0,1.29-.09c.44,0,.87-.08,1.3-.14s.86-.14,1.29-.23v4.9h.1a10.09,10.09,0,0,1,2.45-3.56,5.73,5.73,0,0,1,4-1.34,12.52,12.52,0,0,1,1.55.11,5.18,5.18,0,0,1,1.83.6,4.56,4.56,0,0,1,1.5,1.41,4.39,4.39,0,0,1,.63,2.5v13.09H210v1.06h-8.51v-1.06h2.41V144a8.44,8.44,0,0,0-.19-2,2.47,2.47,0,0,0-.58-1.18,1.87,1.87,0,0,0-.92-.55,4.57,4.57,0,0,0-1.23-.14,3.7,3.7,0,0,0-2.19.71A7.25,7.25,0,0,0,197,142.7a9.4,9.4,0,0,0-1.18,2.52,9.28,9.28,0,0,0-.42,2.69v8.6h2.5v1.06h-8.65v-1.06h2.55Z"/><path class="cls-2" d="M210.11,139.26h2.72v-5.69l1.79,0a13,13,0,0,0,1.73-.17v5.88h4.07v1.06h-4.07v14.15c0,.22,0,.45,0,.7a1.68,1.68,0,0,0,.19.67,1.31,1.31,0,0,0,.53.51,2.08,2.08,0,0,0,1,.2,2,2,0,0,0,1.48-.53,14.19,14.19,0,0,0,1.11-1.18l.74.51a4.48,4.48,0,0,1-2.13,2.08,6.32,6.32,0,0,1-2.87.74,5,5,0,0,1-2-.32,2.59,2.59,0,0,1-1.11-.86,2.93,2.93,0,0,1-.48-1.27,9.81,9.81,0,0,1-.12-1.57V140.32h-2.63Z"/><polygon class="cls-2" points="222.35 140.32 222.35 139.26 230.68 139.26 230.68 140.32 228.23 140.32 232.71 153.59 232.81 153.59 237.48 140.32 234.66 140.32 234.66 139.26 240.94 139.26 240.94 140.32 238.72 140.32 232.34 158.17 230.77 158.17 224.57 140.32 222.35 140.32"/></g></g></g></g></svg>