<svg xmlns="http://www.w3.org/2000/svg" viewBox="0 0 283.46 283.46"><defs><style>.cls-1{fill:#c70c6f;}.cls-2{fill:#fff;}</style></defs><g id="Layer_2" data-name="Layer 2"><g id="Filmbox"><g id="fashionbox"><rect class="cls-1" width="283.46" height="283.46"/><g id="logo"><path class="cls-2" d="M156.58,99.41v75l84.36,9.62v0l-9.35-84.61Z"/><polygon points="220.44 136.63 228.18 124.34 222.69 124.34 217.86 133.02 213.07 124.34 207.58 124.34 215.38 136.63 207.34 149.29 212.87 149.29 217.86 140.47 217.86 140.47 222.92 149.29 228.41 149.29 220.44 136.63"/><path d="M177.25,136a5.47,5.47,0,0,0,2.58-4.63c0-2.24-1.59-7.16-7.74-7.16H163.2v10.13h-3.41v4h3.41V149.4h9c7.54,0,9.06-5.79,9.06-7.52A5.83,5.83,0,0,0,177.25,136Zm-9.42-7.37h4.26a3,3,0,0,1,3,2.82,3.14,3.14,0,0,1-3,2.89h-4.26ZM172.09,145h-4.26v-6.65h4.26c2.85,0,4,1.8,4,3.4S174.57,145,172.09,145Z"/><path d="M196.13,123.8H196a13,13,0,0,0,0,26h.16a13,13,0,0,0,0-26Zm0,21.12a8.1,8.1,0,1,1,8.11-8.1A8.09,8.09,0,0,1,196.13,144.92Z"/><path class="cls-2" d="M152.94,144.08l-.59-.36a23.31,23.31,0,0,1-2.28,4.15c-.7.93-1.36,1.39-2,1.39a.79.79,0,0,1-.59-.26,1.19,1.19,0,0,1-.2-.75c0-.13,0-.33.06-.62s.14-.66.27-1.08l2.55-8.3a12,12,0,0,0,.39-1.6,10.09,10.09,0,0,0,.1-1.39,4.85,4.85,0,0,0-.36-2,3,3,0,0,0-1.06-1.31,2.81,2.81,0,0,0-1.62-.47c-1.16,0-2.35.67-3.64,2a22.64,22.64,0,0,0-3.7,5.94,22.86,22.86,0,0,0,.69-4.73,4.35,4.35,0,0,0-.56-2.39,1.83,1.83,0,0,0-1.62-.81,4,4,0,0,0-3.08,1.71,18,18,0,0,0-2.54,5.13l.69.25A25.45,25.45,0,0,1,136,134.2c.63-1,1.25-1.45,1.92-1.45a.61.61,0,0,1,.56.28,1.6,1.6,0,0,1,.2.89,14.89,14.89,0,0,1-.14,1.74c-.09.79-.23,1.76-.46,2.92s-.56,2.46-1,3.92L135,149.75h2.74l1-3.44c.23-.81.49-1.66.76-2.55s.59-1.79.92-2.73a25.05,25.05,0,0,1,1.33-2.86,20.43,20.43,0,0,1,1.85-2.95,9.63,9.63,0,0,1,1.82-2,2.78,2.78,0,0,1,1.65-.66,1.11,1.11,0,0,1,.93.41,1.86,1.86,0,0,1,.33,1.21,7.16,7.16,0,0,1-.14,1.33,12.6,12.6,0,0,1-.49,1.82l-2.09,6.44c-.23.68-.39,1.32-.56,1.91a10.54,10.54,0,0,0-.23,1.73,3.28,3.28,0,0,0,.66,2.13,2.2,2.2,0,0,0,1.79.74,4,4,0,0,0,2.71-1.12,8.93,8.93,0,0,0,2.22-3.37l.72-1.74Zm-23.18-7.81a16.08,16.08,0,0,1-.13,2.08c-.1.78-.27,1.61-.46,2.49s-.43,1.77-.73,2.68a25.87,25.87,0,0,1-1,2.7,7,7,0,0,1-1.72,2.49,3.21,3.21,0,0,1-2.08.83,2.4,2.4,0,0,1-2-.93,4.12,4.12,0,0,1-.73-2.63,13.39,13.39,0,0,1,.14-1.86q.15-1.06.39-2.31c.2-.83.43-1.68.7-2.56a25.14,25.14,0,0,1,1-2.62,10.84,10.84,0,0,1,2-3.24,3.19,3.19,0,0,1,2.22-1.09,2,2,0,0,1,1.85,1,5.54,5.54,0,0,1,.63,3m2.55,1.78a9.15,9.15,0,0,0-.63-3.47,5.08,5.08,0,0,0-1.72-2.3,4.21,4.21,0,0,0-2.55-.83,5.56,5.56,0,0,0-2.18.47,8.14,8.14,0,0,0-2.15,1.36,11.52,11.52,0,0,0-2,2.22,16.89,16.89,0,0,0-2.12,4.25,15.55,15.55,0,0,0-.69,4.58,8,8,0,0,0,.59,3.22,4.6,4.6,0,0,0,1.76,2,5.25,5.25,0,0,0,2.77.71,6.58,6.58,0,0,0,3.21-.87,8.59,8.59,0,0,0,2.68-2.45,15.38,15.38,0,0,0,2.22-4.29,14.9,14.9,0,0,0,.76-4.65m-15.12,6.11-.53-.36a31.52,31.52,0,0,1-1.58,2.95,9.54,9.54,0,0,1-1.39,1.79,1.91,1.91,0,0,1-1.26.6.67.67,0,0,1-.53-.25,1,1,0,0,1-.2-.64,5.7,5.7,0,0,1,.37-1.7c.23-.79.56-1.8,1-3l1.09-3.11c.5-1.3.86-2.44,1.13-3.42a10.43,10.43,0,0,0,.4-2.57,3.23,3.23,0,0,0-.67-2.13,2.08,2.08,0,0,0-1.72-.79,3.51,3.51,0,0,0-2.58,1.47,16.71,16.71,0,0,0-2.48,4.4l.67.28a17.15,17.15,0,0,1,2.11-3.77c.66-.83,1.23-1.24,1.69-1.24a.63.63,0,0,1,.5.26,1.13,1.13,0,0,1,.19.71,6,6,0,0,1-.33,1.7c-.2.73-.49,1.62-.89,2.67l-1.42,3.88c-.43,1.13-.76,2.16-1,3.09a10.76,10.76,0,0,0-.36,2.54,2.94,2.94,0,0,0,.63,2,2.18,2.18,0,0,0,1.72.72,3.76,3.76,0,0,0,2.84-1.52,15.11,15.11,0,0,0,2.61-4.55m.27-20.8a1.86,1.86,0,0,0-.2-.87,1.67,1.67,0,0,0-.6-.61,1.4,1.4,0,0,0-.79-.22,1.67,1.67,0,0,0-.86.22,1.92,1.92,0,0,0-.59.61,2.33,2.33,0,0,0-.24.87,1.88,1.88,0,0,0,.47,1.21,1.7,1.7,0,0,0,1.15.49,1.78,1.78,0,0,0,1.46-.83,1.89,1.89,0,0,0,.2-.87M107.7,143.8l-.63-.37a22.62,22.62,0,0,1-2.18,4.1c-.66.92-1.26,1.37-1.82,1.37a.73.73,0,0,1-.56-.24,1.08,1.08,0,0,1-.2-.7,2.63,2.63,0,0,1,.07-.7,3.68,3.68,0,0,1,.23-.91l2.12-6.68a21.16,21.16,0,0,0,.69-2.75,11.65,11.65,0,0,0,.2-1.82,4,4,0,0,0-.79-2.67,2.77,2.77,0,0,0-2.19-.94,4.84,4.84,0,0,0-3.21,1.63A24.27,24.27,0,0,0,95.8,138l4.46-17.36-6,.77-.23,1,.49,0a2.27,2.27,0,0,1,.43,0,2.66,2.66,0,0,1,1.29.2.75.75,0,0,1,.43.77,2.63,2.63,0,0,1-.06.48c0,.15-.07.31-.1.45L90,149.75h2.65a60.26,60.26,0,0,1,2.18-7.49,32.12,32.12,0,0,1,2.48-5.34,12.18,12.18,0,0,1,2.51-3.18,3.63,3.63,0,0,1,2.28-1.07,1,1,0,0,1,.86.38,1.8,1.8,0,0,1,.3,1.12,6,6,0,0,1-.13,1.17,14.29,14.29,0,0,1-.46,1.78l-2.12,6.76c-.2.6-.36,1.19-.5,1.74a7.38,7.38,0,0,0-.2,1.66,3.07,3.07,0,0,0,.6,2.08,2.14,2.14,0,0,0,1.75.71,3.79,3.79,0,0,0,3-1.56,16,16,0,0,0,2.51-4.71m-18.22-10a1.73,1.73,0,0,0-.43-1.14,2.81,2.81,0,0,0-1.19-.89,4.9,4.9,0,0,0-1.89-.36,5.41,5.41,0,0,0-2.61.66,5.18,5.18,0,0,0-1.82,1.72,4.72,4.72,0,0,0-.66,2.44,5,5,0,0,0,.37,1.9,10.81,10.81,0,0,0,1,1.77c.43.58.86,1.2,1.39,1.87.39.52.76,1,1.06,1.51a6.06,6.06,0,0,1,.76,1.47,4.59,4.59,0,0,1,.29,1.64,3.19,3.19,0,0,1-.43,1.63,2.79,2.79,0,0,1-1.25,1.09,4.43,4.43,0,0,1-2,.39,3.9,3.9,0,0,1-1.72-.33c-.4-.21-.63-.46-.63-.76a5.06,5.06,0,0,1,.06-.69,3.46,3.46,0,0,0,.07-.61,1.59,1.59,0,0,0-.3-1,1,1,0,0,0-.79-.39,1.1,1.1,0,0,0-.6.2,2,2,0,0,0-.43.54,2,2,0,0,0-.16.8,2.4,2.4,0,0,0,.53,1.56,3.23,3.23,0,0,0,1.49,1.07,6.34,6.34,0,0,0,2.34.4,6.7,6.7,0,0,0,3.11-.7,5.25,5.25,0,0,0,2.09-1.89,5.44,5.44,0,0,0,.72-2.75,5.57,5.57,0,0,0-.33-1.94,8.94,8.94,0,0,0-.92-1.9c-.4-.64-.86-1.32-1.39-2s-.83-1.1-1.16-1.57a9.07,9.07,0,0,1-.86-1.34,3,3,0,0,1-.3-1.3,2.6,2.6,0,0,1,.37-1.37,2.52,2.52,0,0,1,1-1,3.21,3.21,0,0,1,1.49-.35,2.08,2.08,0,0,1,1.25.32.8.8,0,0,1,.43.7,1.46,1.46,0,0,1,0,.36c0,.13,0,.26,0,.4a1,1,0,0,0,.29.77.92.92,0,0,0,.7.29.94.94,0,0,0,.79-.32,1.25,1.25,0,0,0,.3-.9m-16.34.85a12.47,12.47,0,0,1-.33,2.55,27.39,27.39,0,0,1-1.09,3.6,34.46,34.46,0,0,1-1.92,4.29,13.94,13.94,0,0,1-2.21,3.25,3.32,3.32,0,0,1-2.35,1.08,1.94,1.94,0,0,1-1.13-.35,2.24,2.24,0,0,1-.82-1,4.14,4.14,0,0,1-.27-1.53,13.33,13.33,0,0,1,.7-4A35.9,35.9,0,0,1,66,137.36a15.7,15.7,0,0,1,2.61-3.79,3.77,3.77,0,0,1,2.58-1.27,1.78,1.78,0,0,1,1.42.65,2.61,2.61,0,0,1,.56,1.74m4.73,8.7-.59-.24a21.88,21.88,0,0,1-2,4.52c-.63,1-1.19,1.51-1.72,1.51a.86.86,0,0,1-.63-.28,1.07,1.07,0,0,1-.26-.74,7.66,7.66,0,0,1,.13-1.37,16.18,16.18,0,0,1,.36-1.82l3.24-11.77c0-.16.07-.3.1-.44s0-.27,0-.38-.17-.39-.43-.51A2.87,2.87,0,0,0,75,131.7a.84.84,0,0,0-.33.06.55.55,0,0,0-.16.26l-.6,2.15a3.61,3.61,0,0,0-1.09-2,2.81,2.81,0,0,0-1.92-.7,5.52,5.52,0,0,0-2.25.57,10.38,10.38,0,0,0-2.51,1.68,15.79,15.79,0,0,0-2.48,2.77,19.91,19.91,0,0,0-1.75,3.06,17.22,17.22,0,0,0-1.1,2.94,11.11,11.11,0,0,0-.33,2.62,7,7,0,0,0,.5,2.78,3.82,3.82,0,0,0,3.64,2.4,5.16,5.16,0,0,0,3.6-1.4,10.94,10.94,0,0,0,2.65-4.22,16.15,16.15,0,0,0-.4,1.95,6.66,6.66,0,0,0-.13,1.24,2.54,2.54,0,0,0,.59,1.81,2.37,2.37,0,0,0,1.76.62,3.75,3.75,0,0,0,3-1.75,14.34,14.34,0,0,0,2.25-5.17M66.3,123.56a1.92,1.92,0,0,0-.5-1.29,3.2,3.2,0,0,0-1.32-.91,5.82,5.82,0,0,0-5.19.61,8.65,8.65,0,0,0-2.55,2.9,26.35,26.35,0,0,0-2,4.84l-.92,3H50.39l-.16,1h3.4L49.3,153.3c-.33,1.49-.63,2.78-.89,3.77a8.47,8.47,0,0,1-1,2.31,1.68,1.68,0,0,1-1.39.76,1.29,1.29,0,0,1-.8-.23,1.69,1.69,0,0,1-.39-.63c-.07-.23-.13-.49-.23-.79a1.55,1.55,0,0,0-.47-.7,1.14,1.14,0,0,0-.72-.29,1,1,0,0,0-.7.29,1.28,1.28,0,0,0-.23.83,2.07,2.07,0,0,0,.76,1.66,3.39,3.39,0,0,0,2.25.62,4.77,4.77,0,0,0,2.61-.69A5.58,5.58,0,0,0,50,158.13a20.68,20.68,0,0,0,1.45-3.64c.43-1.46.86-3.18,1.32-5.19l3.61-15.66h3.87l.1-1H56.64l.86-3.8a16.49,16.49,0,0,1,2-5.29,3.36,3.36,0,0,1,2.78-1.75,2.85,2.85,0,0,1,1,.13,1.32,1.32,0,0,1,.52.39,2.65,2.65,0,0,1,.27.56,6.77,6.77,0,0,0,.16.69,2,2,0,0,0,.43.72,1,1,0,0,0,.7.25,1,1,0,0,0,.69-.31,1,1,0,0,0,.27-.7"/></g></g></g></g></svg>