<svg xmlns="http://www.w3.org/2000/svg" viewBox="0 0 283.46 283.46"><defs><style>.cls-1{fill:#e67929;}.cls-2{fill:#fff;}</style></defs><g id="Layer_2" data-name="Layer 2"><g id="Filmbox"><g id="fastandfunbox"><rect class="cls-1" width="283.46" height="283.46"/><g id="logo"><path class="cls-2" d="M140,91.08v89.79l101,11.52L229.75,91.08Z"/><path d="M211.64,140.13l-5.86,10.37h-6.46l9.43-14.87-9.17-14.44H206l5.61,10.19,5.69-10.19h6.45l-9.08,14.44L224,150.5h-6.45Z"/><path d="M157.44,137.5H152.6v7.81h4.84v5.19H147.16v-13h-4v-4.67h4V120.94h10.28v5.18H152.6v6.71h4.84Zm.17,0h-.17v-4.67h.17a3.68,3.68,0,0,0,3.57-3.4,3.49,3.49,0,0,0-3.57-3.31h-.17v-5.18h.17c7.22,0,9.09,5.77,9.09,8.41a6.39,6.39,0,0,1-3.06,5.43,6.87,6.87,0,0,1,4.68,6.88c0,2-1.79,8.84-10.62,8.84h-.26v-5.19h.17c2.89,0,4.67-1.86,4.67-3.82s-1.35-4-4.67-4"/><path d="M185.81,145a9.52,9.52,0,0,1,0-19v-5.77h-.16a15.29,15.29,0,1,0,0,30.57h.16a15.29,15.29,0,0,0,0-30.57V126a9.52,9.52,0,1,1,0,19Z"/><path class="cls-2" d="M47.25,125.62v8.65H59.4v4.26H47.25V151H42.52V121.19H62.6v4.43Z"/><path class="cls-2" d="M79.35,140.11l-3.84-9.33c-.64-1.62-1.36-3.88-1.4-3.88h0s-.77,2.26-1.4,3.88l-3.84,9.33Zm1.7,4.14H67.11L64.34,151H59.27l12.62-29.83h4.39L88.89,151H83.82Z"/><path class="cls-2" d="M106.76,129.88a6.52,6.52,0,0,0-6.69-5.2c-3.33,0-5.59,1.62-5.59,4,0,2.86,3.75,3.79,7.59,5,4.26,1.36,9.59,3.45,9.59,9,0,5.16-4.48,8.91-11.12,8.91-6.36,0-10.53-3.66-11.81-8.86l4.51-1.24a7.18,7.18,0,0,0,7.46,5.88c3.8,0,6-2,6-4.51,0-3.71-4.61-4.48-8.83-5.89-3.49-1.19-8.23-2.85-8.23-8.05,0-4.65,4.48-8.36,10.62-8.36,5.54,0,9.89,3.28,11,8.06Z"/><path class="cls-2" d="M136.3,121.19v4.43h-9.68V151h-4.69V125.62H112.3v-4.43Z"/><path class="cls-2" d="M58.07,160.08a2.24,2.24,0,0,0-.74-1.8,2.79,2.79,0,0,0-1.91-.66A2.17,2.17,0,0,0,53,160.08a3.13,3.13,0,0,0,.78,1.92,14,14,0,0,0,1.5,1.52,9.76,9.76,0,0,0,1.93-1.4,2.85,2.85,0,0,0,.9-2m2.68,12.16-6-6c-2.1,1.36-3.14,2.91-3.14,4.64a3.78,3.78,0,0,0,1.35,3.05A4.87,4.87,0,0,0,56.15,175c1.74,0,3.28-.93,4.6-2.78m6.5,2.95-1.72,1.71-3.05-3a8.3,8.3,0,0,1-6.63,3.47A6.92,6.92,0,0,1,51,175.57,6,6,0,0,1,49,171c0-2.37,1.32-4.49,3.95-6.38q-2.55-2.69-2.55-4.49a4.4,4.4,0,0,1,1.47-3.43,5.13,5.13,0,0,1,3.59-1.3,5.3,5.3,0,0,1,3.61,1.28,4.4,4.4,0,0,1,1.53,3.45c0,1.68-1.23,3.34-3.71,5l5.25,5.2a11.93,11.93,0,0,0,.91-5.19h2.26a14,14,0,0,1-1.49,6.71Z"/><path class="cls-2" d="M73.89,159v6.13H82.5v3H73.89V177H70.54V155.89H84.76V159Z"/><path class="cls-2" d="M105,155.89v12.17c0,6.1-3.35,9.39-8.91,9.39s-8.88-3.29-8.88-9.39V155.89h3.35V168c0,4.25,1.88,6.31,5.53,6.31s5.58-2.06,5.58-6.31V155.89Z"/><path class="cls-2" d="M126.54,155.89V177h-3.15l-7.7-10.39c-1.87-2.57-3.68-5.2-3.71-5.2h0s.06,2.84.06,6.62v9h-3.36V155.89h3.14l7.77,10.42c1.51,2.05,3.62,5,3.65,5h0s-.07-3.11-.07-6.43v-9Z"/></g></g></g></g></svg>