<svg xmlns="http://www.w3.org/2000/svg" viewBox="0 0 283.46 283.46"><defs><style>.cls-1{fill:#164194;}.cls-2{fill:#fff;}</style></defs><g id="Layer_2" data-name="Layer 2"><g id="Filmbox"><g id="fightbox"><rect class="cls-1" width="283.46" height="283.46"/><g id="logo"><path class="cls-2" d="M155.56,98.9v75.93l85.38,9.73L231.49,98.9Z"/><path d="M217.56,140.46l-5.06,8.92H207l8.13-12.8-7.9-12.44h5.56l4.82,8.78,4.93-8.78h5.56l-7.84,12.44,8,12.8h-5.56l-5.13-8.92Z"/><path d="M171.13,138.3H167V145h4.16v4.47h-8.86V138.3h-3.44v-4h3.44V124h8.86v4.46H167v5.78h4.16Zm.13,0h-.13v-4h.13a3.16,3.16,0,0,0,3.08-2.92,3,3,0,0,0-3.08-2.86h-.13V124h.13c6.22,0,7.84,5,7.84,7.25a5.5,5.5,0,0,1-2.64,4.68,5.91,5.91,0,0,1,4,5.93c0,1.75-1.52,7.61-9.16,7.61h-.2V145h.13c2.48,0,4-1.61,4-3.29s-1.16-3.44-4-3.44"/><path d="M195.57,145a8.2,8.2,0,0,1,0-16.4v-5h-.13a13.17,13.17,0,0,0,0,26.34h.13v-5h0v5a13.17,13.17,0,0,0,0-26.34v5a8.2,8.2,0,1,1,0,16.4Z"/><path class="cls-2" d="M58.63,136.36v-.2a.58.58,0,0,0-.14-.12l-.39.21-.63.21A2.79,2.79,0,0,1,58,136h.1c.29-.1.53-.21.53-.21v.33c0,.07.06.13,0,.2m-1.56.93h-.33l.1-.52c0,.21.1.31.23.31s.3.11.4.21Zm-.86.83h-.1c-.1,0-.2,0-.2-.1s0-.21-.1-.21h-.09l-.1-.11a.1.1,0,0,1,.1-.1.34.34,0,0,1,.29-.1v.31h.73a.56.56,0,0,1-.53.31m-.59-1.35h.1v.31h-.1Zm-2.52.62c0-.1,0-.1-.1-.1h.3Zm-3.54-4.14c-.1,0-.19.09-.29.09l.29-.31.14-.1.19.1c0,.11-.09.11-.33.22m-.82.82h-.1v-.72h.1Zm-2.38-.21-.2.21.2-.42h.1Zm0,3.33-.2.2a.35.35,0,0,1-.1-.2v-.42h-.43l.1-.21.13-.1.2.2s0,.11.1.11.1.21.2.31Zm-.3.83-.33.2-.1.11.1-.21.33-.42.1.11Zm-.43-3v-.32h.43l-.33.21-.1.11v.31l-.1-.22Zm-.3-2.08a.4.4,0,0,1-.1-.32c0,.11.1.11.3.22h.2l.13.1s0,.1-.13.1h-.2c0-.1-.1-.1-.2-.1m1.36,5.19h.2v.62h-.2ZM43.45,134l-.3.1.3-.21.23-.1h.1ZM54,127.43l.13.1v.31l-.13-.31-.1-.31Zm4.46,7.89c0-.22.14-.22.33-.22l-.19-.1a1.27,1.27,0,0,1,.19-.31h-.19a.63.63,0,0,0-.53.21c-.1.1-.2.2-.3.2l-.33-.72h-.3c0,.11,0,.11-.1.11h-.23a.35.35,0,0,1-.3-.11c0-.2.2-.31.53-.41s.4-.11.4-.21c-.1.1-.2.1-.4.1h-.86a1.09,1.09,0,0,1-.5-.1h-.09a6.73,6.73,0,0,0-1.16-.21H54c-.1,0-.3.1-.4.1-.1.21-.2.32-.33.32a.3.3,0,0,1-.2-.11c-.1,0-.2-.1-.3-.21s-.33,0-.52.32c-.1-.11-.3-.21-.3-.42a.88.88,0,0,1-.23-.62.68.68,0,0,1,.13-.42V132c0-.52-.23-.73-.73-.84,0-.1-.13-.1-.13-.1h.13l.1-.1.1.1c.1.1.2,0,.3,0a.22.22,0,0,1,.23-.2,1.46,1.46,0,0,0-.23-.94,1,1,0,0,1,.33-.83c.1-.21.39-.31.82-.31h.93c.1,0,.2-.11.3-.11s.43,0,.53-.1a.29.29,0,0,1,.2.31h1a.88.88,0,0,0,.49-.1h1.06a2.36,2.36,0,0,1,.83.1h.1v-1.14a1.43,1.43,0,0,1,.09-.94.92.92,0,0,0-.19-.72H58l.1-.11.19-.21v-.41c0-.21,0-.31-.09-.41h-.1c-.3,0-.73-.11-1-.11s-.53-.1-.86-.1-.3-.11-.49-.11c-.63,0-1.16-.1-1.69-.1a2.86,2.86,0,0,0-.93-.1h-.63a.84.84,0,0,0-.49-.31,2.47,2.47,0,0,0-.83-.21c-.23.1-.43.1-.63.21a.1.1,0,0,1-.1-.11c-.23,0-.33,0-.43-.1a.69.69,0,0,1-.43-.11,3,3,0,0,1-.92-.1h-.2c-.53,0-.93-.1-1.46-.1H42.82l-.2,6.22.53.52-.2.21.5.21.23.11-.23.1c.09.31.33.52.43.83a.92.92,0,0,0,.82.41l-.3.21c.2.1.3.31.5.62.1.11.1.22.2.22a.8.8,0,0,0,.43.09l-.3.31.3.32v.62c0,.1-.2.21-.43.21H45a8.84,8.84,0,0,0-1.55-2.6c-.2-.2-.4-.41-.63-.62a2,2,0,0,0-.2.72,3.33,3.33,0,0,0,.2.84A2.06,2.06,0,0,1,43,134a1.07,1.07,0,0,1-.13.62h.63l.43.1a2,2,0,0,0,.29,1.35,2.31,2.31,0,0,0-.29,1.25,7.54,7.54,0,0,0,.19,1.24c.63,0,.93.11.93.32h.1l.43.1h1.26l1,.1a.83.83,0,0,0-.1-.52,1.72,1.72,0,0,1-.2-.51.43.43,0,0,1-.33.1.38.38,0,0,1-.39-.21c-.33-.21-.43-.31-.43-.41s.1-.11.43-.11h.1l.09.11v.2a.94.94,0,0,0,.1-.51,3.6,3.6,0,0,0-.29-1,.41.41,0,0,1-.1-.32,1.51,1.51,0,0,1-.33-.83v-.31a.39.39,0,0,1,.33-.1h.1c.1,0,.19.1.29.31s.2.42.33.42l.2-.22c.1.11,0,.22-.1.32l-.23.21.63.52-.1.21a1.43,1.43,0,0,1-.3-.21l.4.93.53-.21v-.1a.39.39,0,0,0,.1.31.35.35,0,0,0,.1.21.22.22,0,0,1-.2.21l-.2-.11v.83c0,.11,0,.11.2.22s.2.09.2.2-.1.1-.2.21l.2.2.33.21.3-.52a1.52,1.52,0,0,0,.29.42.69.69,0,0,0,.43.2c.1.11.2.11.43.11s.2.1.3.1H52a3.36,3.36,0,0,1,1,.2l-.53-.2a1.34,1.34,0,0,1,.63-.93c.43-.31.63-.52.63-.62s.2.1.2.42h1.79l.49.09h2.28l-.39-.2-.43-.31c0-.11.13-.11.23-.11h0l-.26-.42h.43l.92-.21a.39.39,0,0,1-.1-.31,1.14,1.14,0,0,1,.1-.52V136a.68.68,0,0,0-.53-.72"/><path class="cls-2" d="M51.15,143.1v.1l-.23.11c0-.11.1-.31.23-.31s.1,0,.2.1ZM50.42,147c-.13.11-.23.11-.33.22l.33-.32-.33-.31h.43l-.1-1.07v0c0,.1,0,.21.1.34a1.92,1.92,0,0,1,.1.62.78.78,0,0,1-.2.52m-.43-.72-.29.2-.14-.31h.53Zm-.1-2.39h.2v1h-.2Zm-.62-1c-.1,0-.2,0-.3-.21s-.23-.2-.33-.31l.92.52Zm2.28.21c.1-.1.2-.1.33-.21-.13-.21-.23-.31-.23-.52a1.21,1.21,0,0,1,.1-.52v-.51a.41.41,0,0,0-.1-.32h-.73a1.09,1.09,0,0,0-.5-.1H50c-.19,0-.29.1-.43.1a1.52,1.52,0,0,0-.29.42.55.55,0,0,1-.2-.42h-.93v.21h.5c-.1.11-.2.21-.2.31s-.2.21-.2.31a1,1,0,0,0,.2.52c0,.11,0,.11.1.21s.1.1.1.21v.1c.1.11.23.21.23.31a.12.12,0,0,1-.13.11l.53-.11v.53a.79.79,0,0,1,.1.41c0,.21-.2.31-.4.42l.59.2.14.1s0,.11-.14.11a.33.33,0,0,1-.29.11,1.24,1.24,0,0,0-.3.2,4.36,4.36,0,0,1,.4,1.66,1.41,1.41,0,0,1-.1.63h.29l.43.1h.1l-.1.1-.1.1H50l.43.32.1.1-.1.11-.33.2v.21c0,.2.1.31.33.42h.73a.46.46,0,0,1,.3-.11c.1,0,.2,0,.2.11.1-.11,0-.22-.1-.42l.33-.21h-.73c-.13-.1-.23-.1-.23-.2a.22.22,0,0,1,.23-.21c.1,0,.1-.1.3-.1s.43,0,.43-.22v-.2c-.33,0-.43,0-.53-.1l.53-.31c0-.22-.13-.32-.23-.32a.1.1,0,0,1-.1.1l-.2.22c-.1,0-.1-.11-.1-.22s0-.3.1-.41.3-.31.53-.42l-.53-.52c0-.1.1-.1.2-.1a.48.48,0,0,0,.33.1c-.13,0-.13-.1-.23-.1l-.4-.83h.63l-.53-.51c.2,0,.3-.11.3-.32s.1-.42.23-.42l-.53-.2c0-.11,0-.21.2-.21"/><path class="cls-2" d="M58.29,138c.1.1.34.1.43.2a.1.1,0,0,1,.1-.1l-.19-.42c0,.11-.14.11-.24.11l-.1-.11H58.2l-.1.11c-.1,0-.1.06-.1.13l.1.08Z"/><path class="cls-2" d="M58,137.94l-.07,0,.07.1v-.08"/><path class="cls-2" d="M47.61,148.81l-.1-.06-.23,0a.52.52,0,0,1-.49.31h-.1a.4.4,0,0,1-.33-.11c-.1,0-.1,0-.2-.1.1,0,.1-.11.2-.11a.43.43,0,0,1,.33-.1h.1a.73.73,0,0,1,.39.1h.1v-.11l.23.15c.07,0,.1,0,.1-.05Zm-1.55-2.7-.23.14c0,.06,0,.07-.1.07s0,.1-.1.2h.1l.1.11c0,.11,0,.11-.1.11v.1a.22.22,0,0,0-.2.21v-.11l-.1-.1-.07-.05,0,.05-.1-.21a1.18,1.18,0,0,1,.13.16l.17-.16.2-.31.1-.07v0a1.57,1.57,0,0,0,.23-.2h0l.07-.1.2.1h-.27Zm-.93.1H45v-.62h.23v.62Zm1.33.63v.21l-.1-.21-.2-.21h.2c0,.11.1.11.1.21m-2,.21c-.1,0-.1,0-.23-.11h-.2c-.1,0-.19.11-.19.32a.68.68,0,0,1-.43-.11l-.2-.21c0-.1.1-.1.2-.1h.43c.09,0,.19.1.29.1s.23-.1.33-.31a.34.34,0,0,1,.1.21.39.39,0,0,1-.1.21m1.56-5.4v-.11c.1.11.1.22.1.42h-.33Zm2.38,4.46a4.84,4.84,0,0,1-.2-1l-1.45.72-.1.11-.33-.32-.3-.31v.21H46a1.57,1.57,0,0,0-.23.2h-.1a.31.31,0,0,0-.1-.2.5.5,0,0,0-.4-.21c-.13,0-.13-.11-.23-.11a1.75,1.75,0,0,1-1.12-.41l.1-.2h-.43l-.2-.21c0-.11.1-.21.2-.42s.13-.2.23-.31l.82.52-.62-.52c.09-.42.52-.83,1.25-1.35.1-.1.3-.21.4-.31l.2.41.1.11.23-.11.3-.1.43-.21.1-.1c0,.1,0,.1.09.21l.63-.21a.77.77,0,0,0-.82-.83h-.43a.37.37,0,0,0-.3.1h-.33c0,.11,0,.11-.1.11h-.1a.6.6,0,0,1-.4.1.91.91,0,0,1-.43.1v-.31a4.42,4.42,0,0,0-1-.1h-.23a1.17,1.17,0,0,0-.83.31A.61.61,0,0,1,43,142a1,1,0,0,1-.13.52.8.8,0,0,0-.1.42c0,.3.23.51.53.72,0,.11-.1.21-.3.21h-.33a.38.38,0,0,0-.1.31,1,1,0,0,0,.3.52,6,6,0,0,1,.43.42c-.1.2-.1.2-.2.2a.4.4,0,0,1-.23-.11.36.36,0,0,1-.2-.09,1.9,1.9,0,0,1,.2.72,2.58,2.58,0,0,1-.2.83,1.1,1.1,0,0,0,.2.94H43a.76.76,0,0,1,.4.1l.1.1a.34.34,0,0,1,.23.11h-.23l-.83.1c.2.11.33.11.33.21s-.13.1-.13.21a.31.31,0,0,0-.1.2.1.1,0,0,0,.1.1.65.65,0,0,1,.43-.2.35.35,0,0,0,.2.1.49.49,0,0,1,.33.21.84.84,0,0,0,.49.31c.13,0,.23,0,.23-.1l.2-.42a.77.77,0,0,1,.3-.1h.13c.1,0,.1.1.1.2v.42c0,.11,0,.11.1.11l.2-.21.1.21h.1a.43.43,0,0,1,.33.1h.73a1.49,1.49,0,0,0,1.35-.52l.3.31v.11a2.05,2.05,0,0,0,.2-.73v-1a5.73,5.73,0,0,0-.2-.94v-.41Z"/><path class="cls-2" d="M45.33,142.58v.52h.3c.1-.1,0-.2-.1-.31s-.1-.21-.2-.21"/><path class="cls-2" d="M49.46,148.7a.31.31,0,0,1,.1-.2v-.1c0-.11.14-.21.14-.31s-.14,0-.14-.11h-.19c.09.11.19.11.19.21s-.1.21-.19.31a1.24,1.24,0,0,0-.3.2c.1.11.1.21.1.42s.1.21.29.21h.24a.29.29,0,0,0,.19-.31.46.46,0,0,1-.33-.11c-.1,0-.1-.1-.1-.21"/><path class="cls-2" d="M46.79,142.48l.72.1-.53-.41v.1a.22.22,0,0,1-.19.21"/><path class="cls-2" d="M46.06,139.68a.1.1,0,0,1,.1-.11h-.43a.31.31,0,0,1-.2-.1h-.1a.35.35,0,0,1-.3-.11H44.6c-.2,0-.43,0-.53.11a2.32,2.32,0,0,1-.39,1,1.94,1.94,0,0,0,.49-.1,3.86,3.86,0,0,1,1-.1.6.6,0,0,1,.4.1c0-.31,0-.41.1-.52s.1.11.1.11.1.1.1.2v.32h.33c0-.21.1-.42.2-.42s.1-.1.23-.1.1.1.1.31,0,.1.1.21h.1c.09,0,.09-.11.09-.21V140c0-.11,0-.11.2-.11h.33a1.26,1.26,0,0,0,.93.42c0,.1.1.1.2.1h1.78a1.17,1.17,0,0,1,.6.11.63.63,0,0,0-.6-.52.73.73,0,0,1-.43.1.76.76,0,0,1-.43.1h-.1a.51.51,0,0,1-.49-.41v.41a.4.4,0,0,1-.33.11c-.1,0-.2,0-.2-.11s-.2-.1-.3-.31a1.92,1.92,0,0,0-.63-.31c-.23,0-.33-.1-.43-.1a.35.35,0,0,0-.29.1c-.1,0-.1.11-.2.11a2.64,2.64,0,0,0-.23.2c-.1,0-.2.11-.3.11s-.1-.11-.23-.11v-.1c.13-.1.13-.1.23-.1"/><path class="cls-2" d="M43.68,140.51h0Z"/><path class="cls-2" d="M42.82,140c-.2.2-.2.31-.2.31a1,1,0,0,0,.73.21h.29l-.19-.1Z"/><path class="cls-2" d="M56.21,124.11l.86.1,1,.1.19.11V124c0-.21,0-.31-.09-.41h-4v.31l1.56.21Z"/><path class="cls-2" d="M71.49,136.15h-.1l-.07-.06-.26.06a.22.22,0,0,0-.2-.21.1.1,0,0,0-.1-.11v-.21l.56.47.17-.05.1-.1-.1.21ZM71,138.64h-.3c0-.21,0-.31.1-.42H71Zm-.2,1.25-.23.2-.2.21.2-.31.23-.31Zm-.63-.21-.29-.11-.24-.21h.53Zm-.62-4.36v.1a.35.35,0,0,0-.2.1v.31c-.1-.1-.2-.21-.2-.31a.22.22,0,0,1,.2-.2.34.34,0,0,1,.2-.11h.33c-.14,0-.24,0-.33.11m-.63,3.21c-.1,0-.2.11-.3.21s-.1.11-.1.21l-.16-.14s0,0,0,0l-.13-.11-.2-.1h.2c0,.1.13.1.13.1s0,0,0,.07c.16-.09.16-.19.26-.28a.38.38,0,0,0,.1-.31c.1-.31.2-.52.43-.41a.39.39,0,0,1,.1.31c0,.1-.1.21-.33.41M68,140l-.1-.1-.33-.32.33.11H68Zm3.94-5.51a2.64,2.64,0,0,1,.23-.2.37.37,0,0,1,.3-.1,4.05,4.05,0,0,0,.1-1.57c-.1-.83-.2-1.34-.2-1.34a2,2,0,0,1,.2-.83,2.71,2.71,0,0,0-.63-.21h-.1a.35.35,0,0,0-.3-.11h-.73a1.17,1.17,0,0,1-.23.21c-.1,0-.1,0-.1.11a1.32,1.32,0,0,0-.59-.21.46.46,0,0,0-.33-.11.36.36,0,0,1-.2-.09c-.2,0-.53-.11-.73-.11h-.43a.35.35,0,0,0-.3-.11h-2l-.1-.1a2.16,2.16,0,0,0-1.13,0h-.1a1.45,1.45,0,0,1-1.15-.21v5.3c.63,0,.92-.11,1-.32,0,0,.13.11.13.21a13.52,13.52,0,0,1,.2,2.18v1.66a13.68,13.68,0,0,0-.1,1.66h-.1a1,1,0,0,0-1.15.32l-.1.1.1.1c.3,0,.73.11,1.15.11a3.5,3.5,0,0,0,1,.1h.2a7.37,7.37,0,0,0,1.16-.1h1.22a.6.6,0,0,0,.43-.11h.2a4.72,4.72,0,0,0,.53.11h.2a.09.09,0,0,0,.09.1h.24a1.88,1.88,0,0,0,.69.1h.23a.64.64,0,0,0,.63-.31l.1.11c0,.1.2.2.3.2h.43a.77.77,0,0,1,.3-.1.84.84,0,0,0-.1-.31l-.2-.21a.22.22,0,0,1,.2-.21h1.25a.31.31,0,0,0,.1-.2c0-.1-.1-.21-.1-.42a.39.39,0,0,1-.1-.31c0-.1.1-.21.3-.31a.44.44,0,0,1-.2-.73,3.9,3.9,0,0,1-.53-.1c.1-.1.3-.21.43-.31s.2-.21.3-.21V137a.84.84,0,0,1-.2-.52c0-.1.1-.31.2-.73v-.83c-.3,0-.73-.1-1-.1a1.75,1.75,0,0,1-1-.32"/><path class="cls-2" d="M64.54,129.09a10.5,10.5,0,0,0,1.23.21,5,5,0,0,1,1.16.1h1.22a.73.73,0,0,0,.43.1h.93a.46.46,0,0,1,.33.11h.92c.2,0,.5.1.73.1h.3a1.27,1.27,0,0,0,.53.1v-6.22H63.39v2.69l-.1,2.6h.1a3.52,3.52,0,0,0,1.15.21"/><path class="cls-2" d="M64.54,148.6h-.13l.13-.2.1-.22.1.11c.1.11.2.21.3.11l.2-.11.13.11a2.86,2.86,0,0,0-.82.2m5,.52c-.1,0-.2,0-.2-.1h-.2a5.31,5.31,0,0,1-.53-.32,1,1,0,0,1-.43-.2c-.1-.1-.2-.1-.3-.21h-.3a.5.5,0,0,1-.23-.41c.23-.21.33-.21.33-.21a2.94,2.94,0,0,0-.53-.32h-.43l.1.22-.59.31-.1-.63v.1c-.13.11-.23.22-.33.32a1.43,1.43,0,0,1-.63.21.78.78,0,0,1-.4-.21l.2-.1a.35.35,0,0,0,.3-.11c.23-.21.23-.31.23-.42a.1.1,0,0,0-.1-.1l-.83-.2-1.15-.21.43.21a1.19,1.19,0,0,0-.43.93,1.38,1.38,0,0,0,.1.51v.52a1,1,0,0,1-.1.53l.53-.53a1.16,1.16,0,0,0,.2.32,1,1,0,0,0,.42.1c.1,0,.1,0,.2.11.3,0,.5.1.73.1a.37.37,0,0,0,.3-.1h.1v.1a2.5,2.5,0,0,1,1.06-.1h.19c.3,0,.53-.11.53-.21.1.1.1.1.2.1s.2.11.3.21h2.41a2,2,0,0,1-.72-.1c-.14,0-.24,0-.33-.11"/><path class="cls-2" d="M72.12,145.18h-.53l.2-.32.33-.31ZM71,143.93l.1-.42.43.32.3.31-.3-.1-.53-.11Zm-.4-.93-.43-.11c0-.1.1-.21.3-.21l.13.11c.1,0,.2,0,.2-.11v.11c0,.1.1.1.2.21h-.4Zm-1,.41c-.1.1-.1.21-.2.32a.85.85,0,0,1-.53.2c.33-.1.43-.42.53-.73V143h.29c0,.2-.09.31-.09.41m-.2-1.14.2-.42v.73h-.4Zm-.63.73-.1-.21-.1-.42h.2Zm-.3.73a2.77,2.77,0,0,1-.23.2h-.3v-.31l.1.11.2-.32.13-.21c.1.11.2.11.2.21s0,.1-.1.32m-1.26-1.46H67l.09.1a.34.34,0,0,1,.1.21h-.53c0-.1.1-.21.24-.31s.1-.1.19-.1a1.36,1.36,0,0,1,.43-.32Zm-.33,1.87v-.63H67v.63h-.24Zm.33.94h-.19l-.24.1.24-.21.1-.11h.09l.43.11-.43.11Zm-1-.83-.33-.21-.4-.31.4-.11.33-.11a.26.26,0,0,1-.23.22.31.31,0,0,0-.1.2Zm-1.46-.52h-.23V143h.23Zm7.88.41c0-.41-.2-.63-.63-.52v-.21c0-.1.13-.21.33-.21h.3a10.53,10.53,0,0,1-.1-1.55c-.2,0-.4-.11-.63-.11H70.56a1.52,1.52,0,0,1-.72.11h-.43l-.1-.11H69a.27.27,0,0,0-.3.31l-.1-.1a.32.32,0,0,1-.1-.21H65.24a2.52,2.52,0,0,1-.73-.1,1.71,1.71,0,0,0-.59-.1.78.78,0,0,0-.53.2l-.1.11.1.1c.43.21.63.42.63.73a1.6,1.6,0,0,1-.43.93.81.81,0,0,0-.2.42,1,1,0,0,0-.1,1h.1a.55.55,0,0,1,.43.11l-.43.42h-.1c0,.1,0,.1.1.2v.1l.2-.41h.33c.2,0,.29,0,.29.11v-.53l.2.11.1-.21.13-.21a.27.27,0,0,1,.3.31c0,.11-.1.22-.3.53,0,.1-.13.2-.13.2a.39.39,0,0,0-.1.31.94.94,0,0,1-.29-.21,1.21,1.21,0,0,0,.39.32c.13,0,.33.1.43.1h.83c0,.1,0,.1.1.1l-.1.11,1,.21v.21h.14l.19-.11.43-.1c-.23-.1-.33-.1-.43-.21s-.09-.21-.19-.21V146a1.36,1.36,0,0,1-.14-.73h.33a1.06,1.06,0,0,0,.53-.1c.1-.1.1-.1.2-.1a.35.35,0,0,1,.3-.11h.33a4.4,4.4,0,0,1,.1-.52c.1-.1.1-.2.2-.2a1,1,0,0,1,.53.3l.1.11h.1a2.53,2.53,0,0,0,.33.31c.1,0,.19.11.29.11a.34.34,0,0,1,.2-.11c-.2-.11-.2-.21-.2-.31,0-.31.1-.52.43-.52h.1l.1.11.3.3c.2.11.2.21.2.31s-.1.32-.5.42l.73.21.3.1.53.1-.1-.1.2-.2c.1-.11.19-.11.1-.21v-1Z"/><path class="cls-2" d="M63.39,142.58h-.1l.1.32Z"/><path class="cls-2" d="M91.3,147.42a.36.36,0,0,0,.1.25.28.28,0,0,0-.1-.25"/><path class="cls-2" d="M84.55,125.14h.23a.31.31,0,0,0-.13.21h-.1l-.2-.21Zm5-.72h.29l-.19.1-.1.1Zm-8,1.24H82c.2,0,.3,0,.4-.1h.23c.1,0,.2-.11.3-.11H83c.1,0,.23,0,.23.11v.1h.4a.36.36,0,0,0,.29.1c.14.11.14.11.24.11s.1.1.19.1v-.41c.1,0,.1,0,.2.1a1.71,1.71,0,0,1,.73.21c.23,0,.43.1.63.1a1.28,1.28,0,0,0,.63.11,1.12,1.12,0,0,0,.53.1c.29,0,.49.1.72.1v-.2l.5.1,1.06.21.2-.73h.1c.19,0,.29.1.29.21a.39.39,0,0,0-.1.31c0,.21.24.31.53.31h1c.13,0,.23.11.33.21a.1.1,0,0,0,.1-.1h.3c.23,0,.33-.11.53-.32l.33.42h1c.2.11.53.11.73.21h.2a1.39,1.39,0,0,0,.63.1.76.76,0,0,0,.43.1h1c.2,0,.43-.1.63-.1a4.74,4.74,0,0,0-.63-.73,2.63,2.63,0,0,1-.63-.52.52.52,0,0,0-.39-.2,2.51,2.51,0,0,0-.43-.31c-.2-.11-.43-.21-.63-.31s-.1-.11-.1-.11a5.87,5.87,0,0,0-.83-.31c-.2-.1-.43-.1-.63-.21s-.2-.1-.39-.1a4,4,0,0,0-1.16-.21.64.64,0,0,0-.43-.1,1.17,1.17,0,0,0-.6-.11,4.11,4.11,0,0,0-1.15-.1h-.1c-.2-.1-.43,0-.73.1a1.62,1.62,0,0,1-.53.21c-.1,0-.2-.1-.3-.21H85.91a1.34,1.34,0,0,0-.63.11,1.92,1.92,0,0,0-.73.1.54.54,0,0,0-.39.11c-.24,0-.33.1-.53.1a.35.35,0,0,1-.2.1,3,3,0,0,0-.53.31.37.37,0,0,0-.3.1,2.1,2.1,0,0,0-.63.42l-.1.11c-.1-.11-.23-.21-.23-.31v.1l-.1.1-.2.11-.09.1c0,.1,0,.1.09.21a.31.31,0,0,1,.2.1"/><path class="cls-2" d="M85.91,149.23l-.4-.31c.1.2.2.31.4.31"/><path class="cls-2" d="M81.54,137.6a.22.22,0,0,1-.2-.21c0-.1.1-.2.2-.31s0-.1.1-.1a.39.39,0,0,0-.1.31Zm-.2,8.3h-.42l.13-.1h.3l.19.1h-.2Zm-.62.94-.3-.1.16-.18s0,0,0,0l0,0s.07.11.14.18a1.31,1.31,0,0,1,.13.16Zm.33-5.71h.2v.62h-.2Zm-.13-1.25-.2-.31h.33v.53Zm-.3-7.37v-.41c0-.1.1,0,.1,0s.1.1.2.1l-.2.11Zm-.73,1.14h-.3l.3-.3.1-.11.1.41Zm.2,3.85v.3H80c.1,0,.1-.08.1-.31s-.1-.2-.2-.3a.1.1,0,0,0-.1-.11h.1c.1,0,.2.11.2.31v.1h0m1.06-4.26.19-.21v.21a.21.21,0,0,0,.2.2.36.36,0,0,1-.2-.09h-.29Zm.49,2.28a1.2,1.2,0,0,1,.23.21.1.1,0,0,1,.1.1l.1.13a1.69,1.69,0,0,1,.3.6.52.52,0,0,1-.2-.41.41.41,0,0,0-.1-.19l-.1-.13-.1-.1c-.13,0-.13.1-.23.1Zm.33-5.08.2.2v.11l-.2-.21-.33-.41Zm-.1-3.74h.3V127h-.3Zm.1,13.18v-.1l.2-.21.33.42Zm.53-6.53.1.09.2.21h-.3Zm.4,7.05A.79.79,0,0,1,83,140c.1-.42.2-.63.43-.63v.32c-.1.1-.1.2-.23.31s-.3.31-.3.41-.1.21-.1.11l.1-.11Zm.73-11.73c.2-.1.2-.21.2-.21v-.11l-.1-.09a.09.09,0,0,1,.1.09l.19.22-.39.21-.1.1h-.1a.22.22,0,0,0,.2-.21m.53,2.19.19-.11.2.41v.11c-.1-.21-.29-.41-.39-.41L84,131a.33.33,0,0,0-.07.18h-.19L84,131a.18.18,0,0,1,.17-.12m.82,1.86a.48.48,0,0,1,.1.31c-.1.11-.3,0-.53-.1l.43-.21Zm-.2-3.32a.75.75,0,0,1,.5.1c0,.11,0,.11.1.11a1.55,1.55,0,0,0,.3.35.83.83,0,0,1,.13.07s-.07,0-.13-.07a1.19,1.19,0,0,0-.4-.15,1.6,1.6,0,0,0-.5.22l.3-.42-.3-.21Zm1.33,8v.41h-.3l.1-.1.2-.2h-.2l-.1-.11h.3Zm.33,1v.1a.63.63,0,0,1-.23.42c-.1.21-.2.31-.1.41-.1,0-.1,0-.2-.1h-.3c.1-.1.2-.1.3-.21.3-.2.53-.41.53-.62m.1-2.39.1-.21a.39.39,0,0,1,.1.21v.21c0,.11,0,.11-.2.11h-.1l.1-.32Zm-.63,5.71v-.1l.2-.21.33.52Zm-.76-10.34.13.06.33.31h-.23a.1.1,0,0,1-.1-.1l-.1-.1c0-.07,0-.14,0-.17m.13,7.33h.33l-.33.21-.2-.1Zm0,4.67c0,.1-.1.1-.2.21.1-.11.1-.21.2-.42a.22.22,0,0,1,.23-.2c0,.1-.13.2-.23.41m-.73-4.15h.23l-.13.1a.1.1,0,0,1-.1-.1h-.29v-.21h.29c-.1.11,0,.11,0,.21m.23.62h-.23a.1.1,0,0,1-.1-.1.31.31,0,0,1-.19-.1H85c-.1.2-.1.2-.2.2m-.13,4.57h-.3l.2-.41.1-.21Zm-1.22-2.8-.23.52v-.52c0-.11.13-.21.23-.31s.1-.11.1-.21Zm-.63,3.53h-.2l-.23-.1h.43Zm-3.21.21-.23-.21.13-.1h.1c.1,0,.2.1.2.41l-.2-.1ZM78.86,142l-.13-.31c0-.11.13-.11.13-.11l.2.21-.2.21m.63-11.83h-.33l-.3-.1h.63Zm11.71-.94h.33l-.13.11-.2.1Zm2.08-.73.1.21v.21h-.1Zm1.56,3.85h.1v.1h-.1Zm.73-3.12h.09c0,.05,0,.16-.09.31v.11c.09,0,.09.1.19.1h-.29Zm1.45.62h.2v.52l-.2-.2-.2-.32Zm.63-1.14.1.11c.1,0,.2,0,.2.1h.1c.23.11.33.21.33.31s0,.21-.1.21H98l.23-.21A1.57,1.57,0,0,1,98,129v-.11h-.3Zm-10.58,9.24s0,.06.06.09a.69.69,0,0,1,.66.22v.31c-.33-.24-.53-.42-.66-.53l-.06,0Zm0-.72.1-.42v.93h-.1ZM82,146.74c.1,0,.1,0,.2-.11l-.2-.1-.1-.21.1-.11.53-.41v.73a.1.1,0,0,1,.1-.1c.1-.11.2-.11.3-.22a2.17,2.17,0,0,1,.53-.31.35.35,0,0,0,.2-.1,5.78,5.78,0,0,0,.53-.31.75.75,0,0,1,.39-.21,3.2,3.2,0,0,0,.73-.52c.23-.1.43-.21.63-.31a2.26,2.26,0,0,1,.63-.41,6.16,6.16,0,0,1,.53-.42h.1c0-.11,0-.11-.1-.21a.23.23,0,0,0-.24-.21l-.29-.31v-.31c.1-.1.1-.1.1-.21l.19.21c.24-.1.24-.31.14-.62s-.33-.42-.33-.52.19-.31.43-.42l-.43-.31.43-.31v-.3a1.62,1.62,0,0,1,1.22-.32v-.21c0-.1-.1-.21-.3-.31a.35.35,0,0,1-.33-.31c0-.1.13-.1.43-.1,0-.11-.1-.21-.1-.32s.1-.41.1-.62a3.7,3.7,0,0,1,.1-.62c0-.42-.2-.62-.73-.62h-.29c0-.21.09-.42.19-.42a.1.1,0,0,1,.1-.1c.1,0,.2.1.33.21s.1.2.2.2.2-.2.2-.31-.1-.21-.2-.42-.2-.31-.2-.41.1-.32.5-.52a3.42,3.42,0,0,1-1.22-.21h-.24a7.55,7.55,0,0,1-.09-2.18,4.73,4.73,0,0,0-.1-2.07.27.27,0,0,0,.19-.11h.24a.39.39,0,0,1-.24-.41.62.62,0,0,1,.24-.52v-.1c.1-.11.19-.21.19-.31a.55.55,0,0,0-.19-.32v-.1a1.27,1.27,0,0,1,.59-.52c.23-.1.43-.21.63-.31h.1c.1,0,.53.21,1.06.31.1,0,.1.1.2.1s.29.21.29.42-.1.21-.1.42a16.22,16.22,0,0,0,.33,4.25l.1-.21a1.4,1.4,0,0,0,.53.21.83.83,0,0,0,.5.11h.1c.13,0,.33-.11.43-.11l.92-.31H93l.1.1-.1.11v.1c.1-.1.19-.1.39-.1h.1A1.17,1.17,0,0,1,94,133h.1a2,2,0,0,1,.73.21h.1a3.76,3.76,0,0,0,.63.11,1.27,1.27,0,0,0,.43-.11c.09-.1.09-.1.09-.21.1.11.2.21.3.21s.33.11.53.11H97c.2,0,.4-.11.73-.11a.1.1,0,0,1,.1-.1H98a1.9,1.9,0,0,0,.53-.11h.1s0,.11-.1.11-.1.1,0,.21v-.11l.29-.31a.1.1,0,0,1-.1-.1c0-.11.1-.11.1-.32s.1-.1.1-.2-.1-.21-.29-.21a2.84,2.84,0,0,0,.19-.83,6.93,6.93,0,0,0-.19-1,.4.4,0,0,0-.1-.31,3.7,3.7,0,0,0-.1-.62c0-.11.1-.31.1-.42v-.42a.65.65,0,0,0-.53-.72h-.2a.63.63,0,0,0-.43-.11H97c-.1,0-.2.11-.3.11H95.57c-.1-.11-.3-.11-.43-.21v-.1H93.38c-.1-.11-.2-.11-.39-.11a5.11,5.11,0,0,1-1.16-.21l-.3.32-.13-.11c-.2,0-.4-.1-.6-.1s-.72-.21-1.15-.31h-.53a2.45,2.45,0,0,1-.83-.1,3.86,3.86,0,0,1-1.22-.11h-.53a1.9,1.9,0,0,1-.63-.1,1.34,1.34,0,0,1-.63-.11h-.73a.57.57,0,0,0-.39-.1H82.6a3.76,3.76,0,0,0-.63-.11c0-.1-.1-.1-.23-.1h-.1a.1.1,0,0,1-.1-.1h-.39c-.1-.11-.1-.11-.23-.11h-.2a2,2,0,0,0-.83.21l-.1.1c-.1,0-.1.11-.2.21a.77.77,0,0,0-.43.42c-.1.1-.1.2-.2.31s-.1.1-.1.21c-.13.31-.33.52-.43.83-.19,1.66-.29,2.49-.29,2.49a2.55,2.55,0,0,0,.29,1.35H78a4.87,4.87,0,0,0,.2.83,2.57,2.57,0,0,1,.19.72,1.09,1.09,0,0,1-.39.84c.1.2.2.31.39.31a.84.84,0,0,0,.43-.11h.3a.82.82,0,0,1,.2.41,1.54,1.54,0,0,1,.13.52,1.69,1.69,0,0,0-.13,1.15,1,1,0,0,1,0,1l.23.22v.1c.1.1.1.1,0,.21h-.1a.28.28,0,0,0-.13.2l.23.21v.11c-.23.1-.23.1-.23.2a.67.67,0,0,0,.13.42.1.1,0,0,0,.1.1v.31l-.43.11-.3.11h-.13l.13.09h.73l.3.11.83.1h.33a.33.33,0,0,1-.13.31c-.1,0-.1.11-.2.11a1.41,1.41,0,0,1-.63.2h-.2a.37.37,0,0,1-.3-.1h-.73a.4.4,0,0,0-.33.1c.1.42,0,.63-.29.63H78v.52a.77.77,0,0,1,.3-.1c.19,0,.19.1.19.2v.21c0,.1.1.2.33.2l-.82.62h.49c.1.11.2.21.2.32h-.3a.22.22,0,0,0-.19.21.57.57,0,0,1,.39.1.34.34,0,0,0,.23.11c.1.1.1.1.2.1l-.2.21-.13.1-.3-.31a.58.58,0,0,0,.3.72l.13-.1c.2.1.3.21.3.32l-.2.2a.35.35,0,0,1-.1.21v.1h.63c0,.1.1.1.1.21s-.1.1-.23.21l-.2.2h.43c.1,0,.2,0,.2.11s0,.11-.2.31l.3.21.1.1a1.64,1.64,0,0,0,.73.41c.1,0,.1,0,.19-.1h.24c.1,0,.1,0,.19-.1a.3.3,0,0,0,.2-.11h.1l.33-.3"/><path class="cls-2" d="M86.11,149.33l.1-.1h-.3Z"/><path class="cls-2" d="M98,142.37l-.2.31-.2.21.2-.31.2-.31Zm-1.56,2.91-.06-.3h0a.15.15,0,0,1,0-.21l0,.22a.12.12,0,0,1,.06.1.31.31,0,0,0,.2.1l-.2.1Zm-1.45-1.66h-.1v-.21l.1.1Zm-.83,3.12H94l-.1-.11.1-.11.53-.31-.43.53Zm-.43-2.6-.3-.63-.1-.1h.1l.3.31Zm-.59,1.35H93v-.63h.1Zm-1.56-.63H91.4l-.5-.1h.4c0-.1,0-.1.1-.1h.13Zm-3.14,1.66h-.3l.2-.2.33-.11c-.23.11-.23.22-.23.31m-1.32-1.24-.17,0-.07,0-.19-.1.26.06.17-.16.29-.22.43.42Zm3.73-6.95c-.13,0-.23-.21-.33-.53,0-.05-.1-.11-.13-.16l-.07.06-.29-.31c.13,0,.23.11.36.25l.23-.25v.21c0,.1,0,.2.23.31s.3.11.4.21a.78.78,0,0,1-.4.21m0-1.87.3.2v.42l-.3-.42-.23-.41ZM99,137.7a.7.7,0,0,0-.52.21.82.82,0,0,0-.2.52h-.53a2.49,2.49,0,0,0-.73.42,4.21,4.21,0,0,0-.63.72l-.1-.21-.29.32a.4.4,0,0,0,.29.1l-.29.31-.24.21.24.1-.34.31h-.09l-.43-.41.33-.31h-.93a.57.57,0,0,1,.3-.52c0-.11,0-.11.1-.11a2,2,0,0,1,.63-.31V139c.19,0,.29-.1.43-.1a1.48,1.48,0,0,0,.39-.32.55.55,0,0,0,.3-.41l-.1-.1.23-.32c.1.1.2.1.2.21V138a2.29,2.29,0,0,1,.73-.42.35.35,0,0,0,.2-.1h.1a1.36,1.36,0,0,0,.43-.31,2,2,0,0,0,.39-.53c.13.11.23.21.33.11a.52.52,0,0,1,.2-.41.35.35,0,0,1,.1.2.43.43,0,0,0,.33.1.52.52,0,0,0,.2-.41c-.1,0-.2,0-.3-.21,0,0,.1,0,.2-.21.1,0,.1-.1.1-.21l-1.26-.1-.2.52h-.29a.39.39,0,0,1-.33-.1c.1,0,.1-.11.19-.21s.14-.11.14-.21H95.57a1.39,1.39,0,0,0-.63.1H94c-.2,0-.43.11-.63.11H93a7.77,7.77,0,0,0-.86.21v-.11a.71.71,0,0,1,.53-.21,1.33,1.33,0,0,0-.63-.1h-.2a.73.73,0,0,0-.43.1c-.2,0-.3.11-.5.21,0-.1,0-.1-.1-.21a.47.47,0,0,0-.33-.1,1.27,1.27,0,0,0-.49.1c-.14.11-.24.11-.33.21h-.1a.39.39,0,0,1,.1.21.9.9,0,0,1,.19.52,3,3,0,0,1-.19.73c-.1.41-.2.62-.1.83h.1l.33.1a.31.31,0,0,1-.14.31.29.29,0,0,1-.19.11.32.32,0,0,0-.1.21c0,.1.1.1.1.2a.76.76,0,0,0,.43.21.75.75,0,0,0,.39-.1h.33a1.42,1.42,0,0,1,.6.2v.53c-.1.1-.1.2-.2.2a1.81,1.81,0,0,0-.3.42l-.1-.11v-.31h-.53v1.56c.2,0,.3-.11.53-.21a2,2,0,0,0,.6-.42,2.46,2.46,0,0,0,.33-.31l.1-.1a3.64,3.64,0,0,1,1.16-.72h.39a.8.8,0,0,1,.63.2h.2l-.2.1-.63.42-.39.21-.63.41a.68.68,0,0,1-.53.62c-.1,0-.2.11-.43.11a1.17,1.17,0,0,0-.6.11.88.88,0,0,0-.63.61v.73c0,.31.1.42.3.42A.58.58,0,0,1,90,144l.19.1a2.85,2.85,0,0,1-.52.62c-.1,0-.2.1-.3.1-.53.32-.83.42-1,.63,0,0,0-.11-.1-.11a1.57,1.57,0,0,0-1.22-.72c-.14,0-.33.1-.53.1a2.1,2.1,0,0,0-.63.42c-.2.1-.4.31-.63.41,0,.1,0,.1-.1.1a2.63,2.63,0,0,1-.63.52c-.1.11-.29.22-.39.31s-.33.22-.53.32a.35.35,0,0,1-.2.1l-.23-.2-.3.3-.3.22-.63.51-.33.32c0,.1.13.1.23.1H82a.35.35,0,0,0,.2-.1c.2-.22.33-.22.43-.32l.2.21a.22.22,0,0,0-.2.21v.31c.1,0,.2.1.3.1a.79.79,0,0,0,.53.21.31.31,0,0,0,.2.1,1.2,1.2,0,0,0,.53.1h.39a.64.64,0,0,0,.53-.61l-.53-.31c-.1,0-.2-.11-.39-.22s-.33-.2-.53-.3-.2-.22-.2-.31l.2-.11h.53l.39-.11h.1l-.1-.1-.29-.31c.09-.11.19-.2.29-.31.33-.21.53-.42.73-.52h.33a.55.55,0,0,1,.3.41v.11a.53.53,0,0,0,.63.11c.29-.11.53-.22.53-.22.19,0,.29.11.39.31l-.29.22c.09,0,.19-.11.29-.11a1.21,1.21,0,0,1,.63.41.35.35,0,0,1,.2-.1h.33c0-.2,0-.42.1-.42l.3.22v-.31a.23.23,0,0,1,.2-.22,1.54,1.54,0,0,1,.43.53l.19.2.63-.42.33.22-.53.3c.3,0,.4,0,.53-.1v.63c.1,0,.1-.11.1-.11a.35.35,0,0,1,.3-.11c.07,0,.1.05.1.07v-.07a.09.09,0,0,1,.1-.09.62.62,0,0,1,.43-.22h.1a.62.62,0,0,0,.63-.3v.52a.84.84,0,0,0,.19.51v-.51c.1,0,.24,0,.24.09a.6.6,0,0,1,.29.52v.94h2.29c.19,0,.29-.11.43-.11s.19-.1.29-.2c0,.1.1.1.1.2v.11a1.39,1.39,0,0,0,.63.1h.73c.1,0,.2,0,.2-.1a.6.6,0,0,0,.53-.31v.2l.09.21a.41.41,0,0,0,.2-.41v-.63a1,1,0,0,1,.1-.52l-.39-.09v-.52l.1-.11c.19.11.29.21.29.11a2.23,2.23,0,0,1-.2-.94.82.82,0,0,1,.1-.42V145a1.89,1.89,0,0,0-.29-1v-.1a1.87,1.87,0,0,0,.39-1.35v-1.77l-.29-.62c.19.1.42,0,.62-.2a1.6,1.6,0,0,1,.63-.32.34.34,0,0,0,.2.11c-.1,0-.1-.11-.1-.21a2.85,2.85,0,0,1,.1-.73,5.16,5.16,0,0,0,.2-.94.79.79,0,0,0-.2-.51,2.92,2.92,0,0,0-1,.41"/><path class="cls-2" d="M125.16,148.09h.1v-.21h-.63c0,.1,0,.21.2.21Z"/><path class="cls-2" d="M125.46,149h-.1l-.1.1h-.1v-.31l-.53.42c-.09-.11-.19-.11-.19-.21a.35.35,0,0,0,.1-.21.36.36,0,0,0,.09-.21.58.58,0,0,1-.52-.2l-.3.3.49.22-.19.41h.72c.1.1.2.1.33,0s.3,0,.4-.1,0-.21-.1-.21"/><path class="cls-2" d="M125.16,147.15l-.23.2h.63l-.3-.3-.1.1Z"/><path class="cls-2" d="M125.16,143.2l-.1,0,.1,0"/><path class="cls-2" d="M123.58,143.31h.13l.3-.42h-.73c0,.11-.1.11-.1.21l.1.1Z"/><path class="cls-2" d="M120.37,145.07h.33l-.23.1-.2.11.1-.21Zm-2.48-2.9-1.26-.41,1.06.72c.1.1.1.2.2.31a4.22,4.22,0,0,0,1,1.56c.33.41.63.82.93,1.24a2.4,2.4,0,0,1,.53.62h.33l-.13-.2a.31.31,0,0,1,.13-.21c0-.11.1-.11.2-.21a2.32,2.32,0,0,0,.92.32l.2-.94c-.1.1-.1.2-.2.41s-.1.21-.29.21h-.14c-.29-.21-.39-.31-.39-.52s.2-.2.63-.31.52-.31.52-.52c.2.11.2.11.2.32v.31h.4v.1c.1,0,.23-.1.43-.1h.1a.38.38,0,0,1,.33-.11c.1,0,.1,0,.2.11l-.1.1a1,1,0,0,1,.4.1l.19-.1a2.31,2.31,0,0,0-.69-.52h-.33a.1.1,0,0,1-.1.11.85.85,0,0,1,.1-.32h-.93s0-.1.2-.31a.6.6,0,0,0-.4-.1h-.43c-.19,0-.43-.1-.33-.52l-.29.31c-.1-.11-.1-.31-.2-.42s-.2-.1-.43-.2a.7.7,0,0,1-.4-.11h-.23a6.14,6.14,0,0,1-.93-.1l.23-.21-1.25-.41Z"/><path class="cls-2" d="M119.84,128.57a1.33,1.33,0,0,1,.63.1H121a8.69,8.69,0,0,1,1.75.11h.83a6.52,6.52,0,0,1,1.58.1h.3v-5.29h-8.93l-.2,4.67c.5.1.93.1,1.56.2s1.22.11,2,.11"/><path class="cls-2" d="M124.44,147.57l-.83-.22h-.23v-1h-.1l-.53.72h-.1l-.3-.2.2-.21a1.43,1.43,0,0,0-.3.21c0,.1.1.2.3.2l.2.22.1.09c.13.11.33.11.43.22s.2.1.33.1.3.1.5.1.33-.1.33-.2"/><path class="cls-2" d="M122.55,145.28v.31l.2-.21.13-.1h-.33Z"/><path class="cls-2" d="M124.93,143.1h0"/><path class="cls-2" d="M125.26,142h-.1v-.42h.1Zm0-.83h-.1c-.53,0-1-.11-1.58-.11h-.83a12.78,12.78,0,0,0-1.85-.1h-.43a1.27,1.27,0,0,1-.6-.1h-.76a4.63,4.63,0,0,0-1.22-.21,3.89,3.89,0,0,1-1.36-.21c-.1.11-.2.11-.2.21s.1.1.3.21.43.2.43.31l.3-.31.53.42.3.3a2.19,2.19,0,0,0,.82.31,3.21,3.21,0,0,1,.63.11l.1-.11c0,.11.13.11.13.22a1.54,1.54,0,0,0,.6.41h.33a.1.1,0,0,1,.1.1,1.79,1.79,0,0,1,1.12.52c.23-.31.33-.52.53-.62s.1-.1.2-.1a.56.56,0,0,1,.43-.21c0-.21,0-.42.1-.42h.1l.1.1s0,.11.1.11a.4.4,0,0,1,0,.52l.72-.63.1.11-.39.52c.1.1.1.1.19.1a.1.1,0,0,0,.1-.1c.1-.1.1-.21.33-.21s.3.21.3.31-.1.21-.2.42a1.07,1.07,0,0,0-.33.31c.14,0,.14,0,.23-.11a.37.37,0,0,1,.3-.1c.1-.1.1-.21.23-.21h.3a1,1,0,0,0,.1-.51,2.11,2.11,0,0,0-.1-.73,4.66,4.66,0,0,0-.2-.52"/><path class="cls-2" d="M119.84,148.18c-.2-.09-.2-.2-.2-.2s0-.1.1-.1l.1.1.23.31a.4.4,0,0,1-.23-.11m-2-.93-.43.32-.3-.73.2.2c.1.11.3,0,.53-.1v-.1c.2-.21.4-.32.63-.21l-.63.62Zm5.19.84a.38.38,0,0,0-.33-.11.6.6,0,0,0-.4-.1l-.23.72a1,1,0,0,1-.49-.72.48.48,0,0,0-.43-.53h-.3v.11c0,.11-.1.11-.2.21s-.13-.1-.13-.21V147h-.1a2.07,2.07,0,0,0-.63-.41c-.1-.11-.2-.21-.3-.21a1.05,1.05,0,0,0-.73-.41h-.19l.29-.52c-.1-.21-.19-.21-.39-.21a.85.85,0,0,0-.43.1c-.1,0-.2,0-.2.11h-.23v-.21c0-.1,0-.21.23-.21h.1c.2-.1.3-.21.3-.31l-.2-.2-.2.3-.23.11-.2-.11c0-.1.1-.2.2-.3l.23-.21.1-.11-.1-.1-.53-.21.1-.1a1.63,1.63,0,0,0-1.13-1c0,.94.1,1.56.5,1.77a.64.64,0,0,0-.5.62,1,1,0,0,1,.1.31.79.79,0,0,1,.1.31c0,.21,0,.31-.2.41l.3.31-.3.32c.3,0,.5,0,.5.1l-.4.31c0,.1-.1.1-.1.21s.2.21.5.21a.48.48,0,0,1,.53.42,1.68,1.68,0,0,1-.63.31.34.34,0,0,1-.2-.11v.94l1.36-.42.2-.11v.53h.53v.1h.29a1,1,0,0,0,.63-.21,1.49,1.49,0,0,1,.2-.72c0,.1.1.2.1.3a.12.12,0,0,1,.13.11c0,.11.2.11.4.21l-.1.21h.63c.2,0,.39-.11.63-.11.39-.2.72-.2.82-.31l-.23.21.63.1.23.11a1.34,1.34,0,0,0,.1-.53c.1-.2.1-.3.2-.3h.2l-.2-.22c0-.09-.1-.09-.2-.09"/><path class="cls-2" d="M106.05,127.43a1,1,0,0,0,.53.1h.73a7.83,7.83,0,0,1,1.75.21,1.83,1.83,0,0,1,.92.21h.73c.1,0,.63.1,1.46.2.33,0,.72.11,1.25.11v-.52a7.72,7.72,0,0,1,.1-1.35,8.75,8.75,0,0,0,.1-1.45,5.4,5.4,0,0,0-.2-1.35h-8.83v3.73a3.76,3.76,0,0,0,.63.11Z"/><path class="cls-2" d="M113.09,148.29l-.92-.83-.1-.11h.73a.42.42,0,0,0-.1.32l.19.21c.2.1.2.2.2.41m-.92-5.4.33-.31v.52h-.33l-.3.1Zm-1.46-3.53-.2.11v-.31h.3Zm-.4,9.56-.33.1.24-.32h.29Zm-4.26-3.74H106c-.07,0-.13,0-.23.15s0,.16,0,.26c0-.1-.13-.1-.13-.1a.74.74,0,0,1,.1-.16c0-.16,0-.26-.1-.26h.86a.69.69,0,0,1-.43.11m.1,3.63H106v-.41h.2Zm-.83-2.6-.1-.2-.2-.32.2.21.1.11ZM114.88,135h-4.17a.75.75,0,0,1-.39.1c-.43,0-.83.11-1.26.11a19.53,19.53,0,0,0-2.48.52.88.88,0,0,0-.53.11h-.2a2.42,2.42,0,0,0,.5.21l-.3.3a2.24,2.24,0,0,0-.3,1.77,3.65,3.65,0,0,1-.13,2.07c-.1-.1-.2-.1-.4-.1-.43,0-.73.1-.82.42l.39.51a.3.3,0,0,1-.2.11l-.19,2.49.39.52c-.2,0-.2,0-.2.1l.2.21c.1.11,0,.21-.1.31h-.1a5.06,5.06,0,0,0-.19,1.14c0,.52.19.73.72.63,0,.1-.1.1-.33.1s-.49.11-.39.31c.19,0,.39.1.39.21a2.73,2.73,0,0,0-.2,1.35,2.1,2.1,0,0,0,.1.83,2.73,2.73,0,0,0,.53-.63c0-.1.1-.2.1-.3l.3.62c.13.21.23.31.43.31h.53c.2,0,.3-.1.39-.31a6.4,6.4,0,0,0,.73.1,2.84,2.84,0,0,0,.83.11h.53c.43,0,.83.1,1.25.1h1.86a2.23,2.23,0,0,0,1.25-.31.35.35,0,0,1-.1-.21c0-.11.1-.21.2-.52a4.86,4.86,0,0,1,.1-.52c0-.2-.2-.42-.53-.52l.53-.31c-.2-.1-.3-.2-.3-.41a.56.56,0,0,1,.1-.32.79.79,0,0,0,.1-.41.29.29,0,0,0-.1-.2c-.19,0-.43,0-.53-.11l.2-.21a.91.91,0,0,0,.43.1.1.1,0,0,0,.1-.1c0-.1,0-.1-.1-.21v-.31c0-.1,0-.2.1-.2a11.51,11.51,0,0,0-.53-1.77,1.28,1.28,0,0,0,.33-.21c.2-.2.2-.51.2-.93a1.59,1.59,0,0,0-.3-1,1.13,1.13,0,0,0,.1-.42.22.22,0,0,1,.2-.2c.1,0,.2.1.33.1-.13-.1-.23-.21-.23-.31s.1-.21.23-.42a.52.52,0,0,0,.1-.31c.3.21.4.31.6.31s.23-.2.43-.62.33-.62.53-.62l.29.41a3.66,3.66,0,0,0,.1-1.14,8.92,8.92,0,0,0-.29-2.29c-.3.32-.53.21-.83-.1"/><path class="cls-2" d="M123,137.91h-.23s0-.06-.07-.07,0,0,0,.07l-.2.21-.1-.1.2-.21c.07,0,.1,0,.13,0a.17.17,0,0,0,.07-.14H123c.1,0,.1,0,.2.11s-.1.1-.2.1m-.1.73c0,.1-.13.1-.13.21h-.4l-.1-.11h.4a.1.1,0,0,1,.1-.1c.23,0,.23-.11.23-.21.1.1,0,.21-.1.21m3.84-3.43a.52.52,0,0,1,.2-.41,1.38,1.38,0,0,1-.33.2c-.2,0-.3-.1-.5-.2s-.33-.31-.53-.21l-.1-5.29h-.3a9.45,9.45,0,0,1-1.58-.1h-1.86a1.86,1.86,0,0,0-.82-.11h-.43a1.27,1.27,0,0,1-.6-.1h-2a6.56,6.56,0,0,0-1.46.1c0-.1-.1.11-.1.62,0,.31.1.52.3.52a3.17,3.17,0,0,0-.3,1.14,4.06,4.06,0,0,1-.1,1.35h-2.51a1.29,1.29,0,0,1-.3-.94c0-.51,0-.83-.1-.93a1.42,1.42,0,0,0,.3-1,2.77,2.77,0,0,0-.2-1.14,2.4,2.4,0,0,1-1.25,0,7.17,7.17,0,0,1-1.46-.1h-.4c-.43-.11-.82-.11-1.25-.21H109a10.51,10.51,0,0,0-2.38-.31c-.23,0-.33-.1-.53-.1H104.4v1.35a2.4,2.4,0,0,0,.29,1.34,6.31,6.31,0,0,0-.39,1.88,19,19,0,0,0,.29,2.17h.2c0-.2.1-.42.23-.42s.2.22.1.32c.1,0,.1,0,.1-.1h.1c.2,0,.3.1.3.31s.13.41.23.51.1-.1.2-.1a1,1,0,0,0,.53-.11,23.31,23.31,0,0,1,2.48-.41c.43,0,.82-.1,1.25-.1a.76.76,0,0,0,.4-.1h2.38a18.52,18.52,0,0,1,3.44.2v1.36a15.83,15.83,0,0,1,.1,2.48.47.47,0,0,0,.33-.1.31.31,0,0,1,.2-.1c.3.1.5.31.5.52v.51c0,.21,0,.32.13.42h.1c.39,0,1,.1,2,.21.2,0,.4.1.6.1h.43a2.08,2.08,0,0,0,.82.1c.3.1.73.1,1,.21h.83a7.64,7.64,0,0,0,1.58.11h.4l-.1-.42,1.46-.21v-4c-.33,0-.53,0-.53-.11a.82.82,0,0,1,.33-.1v-.42Z"/><path class="cls-2" d="M125.16,143.31h.1v-.11h-.1l-.23.11Z"/><path class="cls-2" d="M123.48,142.53l-.1.05c.06,0,.1,0,.1-.05"/><path class="cls-2" d="M123.58,142.48a.19.19,0,0,0-.1.05Z"/><path class="cls-2" d="M145.8,127.43c-.1.31-.3.52-.53.52l-.73-.52-.1.72c.1,0,.24.11.43.11v.52c0-.42-.33-.63-.92-.63l-.23.11-.1-.11c0-.1.1-.2.23-.31s.3-.21.3-.31l-.2-.21h0a1.55,1.55,0,0,1-.73.63h-.43c-.3.1-.53.1-.53.2,0-.1.13-.1.13-.2s-.13-.11-.43-.32a.28.28,0,0,1-.19-.1c-.53-.21-.83-.31-.83-.31l-.23-.21.43-.31.1.52.72-.31h.3l-.2-.21c.33.31.53.41.63.31h.1l.1-.1-.1-.11a.31.31,0,0,0-.2-.1h.93a.9.9,0,0,1-.3.62l-.13.11c0,.1.13.1.13.2h.2a1,1,0,0,0,.53-.31h0a.94.94,0,0,1,.1-.1.34.34,0,0,1-.1-.21.22.22,0,0,1,.2-.21.49.49,0,0,0,.29-.34.14.14,0,0,1,0-.18v.18l.1.14a.45.45,0,0,0,.23.1h.5c-.3,0-.5.1-.5.21s.2.2.4.2a.53.53,0,0,0,.43-.2l.2-.21a.1.1,0,0,1,.1-.1,2.72,2.72,0,0,1-.1.83M142,125.56h.1c.1-.11.2,0,.33.1l.2-.1-.33.31.53.1.43.11c.63,0,.83.1.73.2l-.73-.2h-.43c-.3,0-.63.1-.83.1l-.19.21a3,3,0,0,1-.24-.21c0-.21.24-.41.43-.62m10,1.24a1.09,1.09,0,0,1-.4-.2.72.72,0,0,1,.5-.21l-.1-2.28c-.1,0-.2-.11-.3-.11s-.2.11-.3.42a.65.65,0,0,1-.43.31l-.2-.62a2.09,2.09,0,0,0-.95-.21c-.3,0-.6.1-1.13.1a4.37,4.37,0,0,1-.92.11h-.43V124h-.83a1.9,1.9,0,0,0-.63-.1.87.87,0,0,0-.53.21l-.4-.32H142c-.19.11-.43.11-.62.21l-.83-.41c-.1.1-.1.2-.2.2s-.1.21-.1.42-.1.31-.33.41a3.54,3.54,0,0,0-.2-.62.22.22,0,0,1,.2-.21,4.79,4.79,0,0,1-.93-.1c-.43,0-.82-.1-1-.1a1.59,1.59,0,0,0-.83.2v.63c-.23,0-.33-.11-.43-.31s-.2-.42-.33-.52H133a4.48,4.48,0,0,0-2,.2v5l5.52.1a.66.66,0,0,1,.1.41v.84a.89.89,0,0,0,.43.62,1.09,1.09,0,0,0-.33.83,2.58,2.58,0,0,1,0,.93l1.46.21c.2,0,.92.11,2.08.11h1c.19,0,.43.1.62.1h.83c.1,0,.3.1.43.1.5.11.93.21,1.32.32l-.29.3a.37.37,0,0,0-.3-.1,1.2,1.2,0,0,0-.53.1c-.1,0-.1.11-.2.11s-.23.1-.33.1a.1.1,0,0,1-.1-.1c-.1,0-.2,0-.2-.11l-.63.11-1.65.2-2.18.31.1,1.88a.51.51,0,0,1,.53-.42h.82a2.71,2.71,0,0,0,.73-.21,8.59,8.59,0,0,0,1.65-.62h.2a1.73,1.73,0,0,1,.63-.21c.1-.1.3-.1.43-.2a4.81,4.81,0,0,1,1.65-.22,2.49,2.49,0,0,1,.93-.31c.23,0,.43-.1.63-.1a3.49,3.49,0,0,0,1.16-.51h-.43c-.1,0-.2,0-.2-.11l-.43.41a.81.81,0,0,1-.3-.72c-.1-.42-.2-.62-.33-.62a1.74,1.74,0,0,0,.53-1.36c0-.09-.1-.62-.2-1.45a1.42,1.42,0,0,1,1.36-.72,4.92,4.92,0,0,1,1.65.1,3,3,0,0,0,1.45-.1v.1h1.23v-1.66h.1a.31.31,0,0,0,.13-.21.26.26,0,0,0-.23-.21"/><path class="cls-2" d="M140.71,133.35h-.4l-2.08-.11v.41a16.23,16.23,0,0,0,2.08-.21.65.65,0,0,1,.4-.09"/><path class="cls-2" d="M147.59,136.25v-2.18c-.43.1-1.06.31-1.79.52s-1.55.41-2.58.72c-.1.11-.33.11-.43.21a2.16,2.16,0,0,1-.83.21,12.79,12.79,0,0,1-1.65.52,18.12,18.12,0,0,1-2.18.62v4c.39.1,1.12.31,2.18.52a1.46,1.46,0,0,1,.63.1c.4,0,.73.11,1,.11s.53.1.83.2a.63.63,0,0,1,.43.11,4,4,0,0,1,.5.11l.33-.42.49.62h.33a3.33,3.33,0,0,1,.93.11h.1a8.67,8.67,0,0,0,1.06.2c.1-.1.1-.2.1-.51s.2-.32.29-.32.1,0,.24.1V140.3a1,1,0,0,1-.14-.62,2.73,2.73,0,0,1,.14-.94,8.28,8.28,0,0,0,.19-1,1.65,1.65,0,0,0-.52-1.24.28.28,0,0,1,.33-.21"/><path class="cls-2" d="M145.6,147.46l-.2-.11h.4a.34.34,0,0,0-.2.11m.3-4.26c0-.1,0-.2-.1-.2a.35.35,0,0,0-.3-.11.83.83,0,0,1-.63-.21h-1.65c-.1,0-.33-.1-.43-.1-.3-.1-.53-.1-.83-.21s-.72-.2-1.12-.3a.88.88,0,0,1-.53-.11,16.78,16.78,0,0,0-2-.21,2.36,2.36,0,0,0-.83.1c0,.42.1.73.1.94a1.45,1.45,0,0,0,.63.72l-.1.11c-.33,0-.53,0-.63-.11a1.89,1.89,0,0,1,.1.74c0,.3-.1.83-.1,1.55a12.27,12.27,0,0,0-.2,1.66,3,3,0,0,0,.1.94c.2.1.3.1.3.2s-.1.31-.4.52a.34.34,0,0,0,.2-.11l.2-.1c.1,0,.23.21.23.42h6a1.86,1.86,0,0,1,.82-.21c.1,0,.4.11,1,.21a1.47,1.47,0,0,0,1.16-.1,21,21,0,0,0,.1-2.81,30.55,30.55,0,0,0-.1-3.22Z"/></g></g></g></g></svg>