<svg xmlns="http://www.w3.org/2000/svg" viewBox="0 0 283.46 283.46"><defs><style>.cls-1{fill:#164194;}.cls-2{fill:#fff;}</style></defs><title>fightbox</title><g id="Layer_2" data-name="Layer 2"><g id="Filmbox"><g id="fightbox"><rect class="cls-1" width="283.46" height="283.46"/><g id="logo"><path class="cls-2" d="M155.56,98.9v75.92l85.39,9.74L231.49,98.9H155.56Z"/><path d="M217.56,140.46l-5.06,8.93h-5.56l8.14-12.81-7.9-12.44h5.56l4.83,8.78,4.93-8.78H228l-7.84,12.44,8,12.81h-5.56l-5.13-8.93Z"/><path d="M171.13,138.3H167V145h4.17v4.46h-8.86V138.3h-3.44v-4h3.44V124h8.86v4.46H167v5.78h4.17Zm.13,0h-.13v-4h.13a3.17,3.17,0,0,0,3.08-2.93,3,3,0,0,0-3.08-2.86h-.13V124h.13c6.22,0,7.84,5,7.84,7.25a5.49,5.49,0,0,1-2.65,4.68,5.91,5.91,0,0,1,4,5.93c0,1.75-1.52,7.61-9.16,7.61h-.2V145h.13c2.48,0,4-1.61,4-3.29s-1.16-3.44-4-3.44"/><path d="M195.57,145a8.2,8.2,0,0,1,0-16.4v-5h-.13a13.17,13.17,0,0,0,0,26.35h.13v-5h0v5a13.17,13.17,0,0,0,0-26.35v5a8.2,8.2,0,1,1,0,16.4Z"/><path class="cls-2" d="M58.63,136.36v-.2a.53.53,0,0,0-.13-.12l-.4.21-.63.21A2.56,2.56,0,0,1,58,136h.1c.3-.11.53-.21.53-.21v.33c0,.07.07.13,0,.2m-1.55.93h-.33l.1-.52c0,.21.1.31.23.31s.3.1.4.21Zm-.86.83h-.1c-.1,0-.2,0-.2-.1s0-.21-.1-.21h-.1l-.1-.11a.1.1,0,0,1,.1-.1.35.35,0,0,1,.3-.11v.31h.73a.56.56,0,0,1-.53.31m-.6-1.35h.1v.31h-.1Zm-2.51.62c0-.1,0-.1-.1-.1h.3Zm-3.54-4.14c-.1,0-.2.1-.3.1l.3-.31.13-.11.2.11c0,.1-.1.1-.33.21m-.83.83h-.1v-.72h.1Zm-2.38-.21-.2.21.2-.42h.1Zm0,3.32-.2.21a.35.35,0,0,1-.1-.21v-.42h-.43l.1-.21.13-.1.2.21s0,.11.1.11.1.21.2.31Zm-.3.83-.33.21-.1.1.1-.21.33-.42.1.11Zm-.43-3v-.31h.43l-.33.21-.1.11v.31l-.1-.21Zm-.3-2.08a.4.4,0,0,1-.1-.31c0,.11.1.11.3.21h.2l.13.1s0,.11-.13.11h-.2c0-.11-.1-.11-.2-.11m1.36,5.19h.2v.62h-.2ZM43.45,134l-.3.11.3-.21.23-.1h.1ZM54,127.43l.13.11v.31l-.13-.31-.1-.31Zm4.46,7.89c0-.21.13-.21.33-.21l-.2-.1a1.35,1.35,0,0,1,.2-.31h-.2a.65.65,0,0,0-.53.21c-.1.1-.2.21-.3.21l-.33-.72h-.3c0,.11,0,.11-.1.11h-.23a.35.35,0,0,1-.3-.11c0-.21.2-.31.53-.41s.4-.11.4-.21c-.1.1-.2.1-.4.1h-.86a1.08,1.08,0,0,1-.5-.1h-.1a6.94,6.94,0,0,0-1.16-.21H54c-.1,0-.3.11-.4.11-.1.21-.2.31-.33.31a.3.3,0,0,1-.2-.11c-.1,0-.2-.1-.3-.21s-.33,0-.53.31c-.1-.11-.3-.21-.3-.42a.87.87,0,0,1-.23-.62.66.66,0,0,1,.13-.42V132c0-.52-.23-.73-.73-.84,0-.1-.13-.1-.13-.1h.13l.1-.1.1.1c.1.1.2,0,.3,0a.22.22,0,0,1,.23-.2,1.46,1.46,0,0,0-.23-.93,1,1,0,0,1,.33-.84c.1-.2.4-.31.83-.31h.93c.1,0,.2-.11.3-.11s.43,0,.53-.11a.3.3,0,0,1,.2.32h1a.85.85,0,0,0,.5-.11h1.06a2.23,2.23,0,0,1,.83.11h.1v-1.14a1.35,1.35,0,0,1,.1-.94.9.9,0,0,0-.2-.72H58l.1-.11.2-.21v-.41c0-.21,0-.31-.1-.42h-.1c-.3,0-.73-.1-1-.1s-.53-.11-.86-.11-.3-.11-.5-.11c-.63,0-1.16-.1-1.69-.1a2.76,2.76,0,0,0-.93-.1h-.63a.91.91,0,0,0-.5-.31,2.66,2.66,0,0,0-.83-.21c-.23.11-.43.11-.63.21a.1.1,0,0,1-.1-.1c-.23,0-.33,0-.43-.11a.72.72,0,0,1-.43-.1,2.87,2.87,0,0,1-.93-.11h-.2c-.53,0-.93-.1-1.46-.1H42.82l-.2,6.23.53.52-.2.21.5.21.23.1-.23.1c.1.31.33.52.43.83a.94.94,0,0,0,.83.41l-.3.21c.2.1.3.31.5.63.1.1.1.21.2.21a.76.76,0,0,0,.43.1l-.3.31.3.31v.63c0,.1-.2.21-.43.21H45a8.67,8.67,0,0,0-1.55-2.6c-.2-.2-.4-.41-.63-.62a2,2,0,0,0-.2.72,3.34,3.34,0,0,0,.2.83,2,2,0,0,1,.13.83,1.08,1.08,0,0,1-.13.63h.63l.43.1a2,2,0,0,0,.3,1.35,2.3,2.3,0,0,0-.3,1.25,8,8,0,0,0,.2,1.24c.63,0,.93.11.93.31h.1l.43.1h1.26l1,.1a.8.8,0,0,0-.1-.52,1.82,1.82,0,0,1-.2-.52.42.42,0,0,1-.33.1.39.39,0,0,1-.4-.21c-.33-.21-.43-.31-.43-.42s.1-.11.43-.11h.1l.1.11v.21a1,1,0,0,0,.1-.52,3.48,3.48,0,0,0-.3-1,.4.4,0,0,1-.1-.31,1.49,1.49,0,0,1-.33-.83v-.31a.4.4,0,0,1,.33-.1h.1c.1,0,.2.1.3.31s.2.42.33.42l.2-.21c.1.11,0,.21-.1.32s-.1.1-.23.21l.63.52-.1.21a1.35,1.35,0,0,1-.3-.21l.4.94.53-.21v-.11a.4.4,0,0,0,.1.31.38.38,0,0,0,.1.21.22.22,0,0,1-.2.21l-.2-.11v.83c0,.1,0,.1.2.21s.2.1.2.21-.1.1-.2.21l.2.21.33.21.3-.52a1.46,1.46,0,0,0,.3.42.63.63,0,0,0,.43.21c.1.11.2.11.43.11s.2.11.3.11H52a3.22,3.22,0,0,1,1,.2l-.53-.2a1.31,1.31,0,0,1,.63-.93c.43-.31.63-.52.63-.63s.2.1.2.42h1.79l.5.1h2.28l-.4-.21-.43-.31c0-.1.13-.1.23-.1h0l-.26-.43h.43l.93-.21a.4.4,0,0,1-.1-.31,1.17,1.17,0,0,1,.1-.52V136a.68.68,0,0,0-.53-.73"/><path class="cls-2" d="M51.15,143.1v.1l-.23.11c0-.11.1-.31.23-.31s.1,0,.2.1ZM50.42,147c-.13.11-.23.11-.33.21l.33-.31-.33-.31h.43l-.1-1.07v0a1.93,1.93,0,0,0,.1.34,1.91,1.91,0,0,1,.1.62.8.8,0,0,1-.2.52m-.43-.72-.3.21-.13-.31h.53Zm-.1-2.38h.2v1h-.2Zm-.63-1c-.1,0-.2,0-.3-.21s-.23-.21-.33-.31l.93.52Zm2.28.21c.1-.1.2-.1.33-.21-.13-.21-.23-.31-.23-.52a1.19,1.19,0,0,1,.1-.52v-.52a.4.4,0,0,0-.1-.31h-.73a1.08,1.08,0,0,0-.5-.1H50c-.2,0-.3.1-.43.1a1.51,1.51,0,0,0-.3.42.54.54,0,0,1-.2-.42h-.93v.21h.5c-.1.1-.2.21-.2.31s-.2.21-.2.31.1.31.2.52,0,.11.1.21.1.1.1.21v.1c.1.11.23.21.23.31s0,.11-.13.11l.53-.11v.53a.81.81,0,0,1,.1.41c0,.21-.2.31-.4.42l.6.21.13.1s0,.11-.13.11a.35.35,0,0,1-.3.11,1.18,1.18,0,0,0-.3.21,4.37,4.37,0,0,1,.4,1.66,1.41,1.41,0,0,1-.1.63h.3l.43.1h.1l-.1.1-.1.1H50l.43.31.1.1-.1.11-.33.2v.21c0,.21.1.31.33.42h.73a.47.47,0,0,1,.3-.11c.1,0,.2,0,.2.11.1-.11,0-.21-.1-.42l.33-.21h-.73c-.13-.1-.23-.1-.23-.2a.22.22,0,0,1,.23-.21c.1,0,.1-.1.3-.1s.43,0,.43-.21v-.21c-.33,0-.43,0-.53-.1l.53-.31c0-.21-.13-.31-.23-.31a.1.1,0,0,1-.1.1l-.2.21c-.1,0-.1-.11-.1-.21s0-.31.1-.41.3-.31.53-.42l-.53-.52c0-.1.1-.1.2-.1a.47.47,0,0,0,.33.1c-.13,0-.13-.1-.23-.1l-.4-.83h.63l-.53-.52c.2,0,.3-.11.3-.31s.1-.42.23-.42l-.53-.21c0-.11,0-.21.2-.21"/><path class="cls-2" d="M58.29,138c.1.1.33.1.43.21a.1.1,0,0,1,.1-.11l-.2-.42c0,.11-.13.11-.23.11l-.1-.11h-.1l-.1.11c-.1,0-.1.06-.1.14a.27.27,0,0,1,.1.07h.2Z"/><path class="cls-2" d="M58,137.94l-.07,0,.07.1v-.07"/><path class="cls-2" d="M47.61,148.81l-.1-.06-.23,0a.54.54,0,0,1-.5.31h-.1a.42.42,0,0,1-.33-.11c-.1,0-.1,0-.2-.1.1,0,.1-.11.2-.11a.42.42,0,0,1,.33-.1h.1a.73.73,0,0,1,.4.1h.1v-.11l.23.15c.07,0,.1,0,.1,0Zm-1.55-2.7-.23.14c0,.06,0,.07-.1.07s0,.1-.1.21h.1l.1.11c0,.11,0,.11-.1.11v.11a.21.21,0,0,0-.2.21v-.11l-.1-.1-.07-.06,0,.06-.1-.21.13.16.17-.16.2-.31.1-.07v0a1.3,1.3,0,0,0,.23-.2h0l.07-.11.2.11h-.26Zm-.93.1H45v-.62h.23v.62Zm1.32.63V147l-.1-.21-.2-.21h.2c0,.11.1.11.1.21m-2,.21c-.1,0-.1,0-.23-.11h-.2c-.1,0-.2.11-.2.31a.7.7,0,0,1-.43-.11l-.2-.21c0-.1.1-.1.2-.1h.43c.1,0,.2.1.3.1s.23-.1.33-.31a.34.34,0,0,1,.1.21.38.38,0,0,1-.1.21m1.55-5.4v-.11c.1.11.1.21.1.41h-.33Zm2.38,4.46a4.85,4.85,0,0,1-.2-1l-1.46.72-.1.11-.33-.31-.3-.31v.21H46a1.64,1.64,0,0,0-.23.21h-.1a.33.33,0,0,0-.1-.21.51.51,0,0,0-.4-.21c-.13,0-.13-.11-.23-.11a1.86,1.86,0,0,1-1.12-.41l.1-.21h-.43l-.2-.21c0-.11.1-.21.2-.41s.13-.21.23-.31l.83.52-.63-.52c.1-.42.53-.83,1.26-1.35.1-.11.3-.21.4-.31l.2.42.1.11.23-.11.3-.1.43-.21.1-.11c0,.11,0,.11.1.21l.63-.21a.77.77,0,0,0-.83-.83h-.43a.35.35,0,0,0-.3.11h-.33c0,.1,0,.1-.1.1h-.1a.58.58,0,0,1-.4.1.87.87,0,0,1-.43.11v-.31a4.23,4.23,0,0,0-1-.11h-.23a1.19,1.19,0,0,0-.83.31.62.62,0,0,1,.33.52.93.93,0,0,1-.13.52.81.81,0,0,0-.1.42c0,.31.23.51.53.72,0,.11-.1.21-.3.21h-.33a.39.39,0,0,0-.1.31,1,1,0,0,0,.3.52c.23.21.33.31.43.42-.1.21-.1.21-.2.21a.41.41,0,0,1-.23-.11.35.35,0,0,1-.2-.1,2,2,0,0,1,.2.72,2.58,2.58,0,0,1-.2.83,1.1,1.1,0,0,0,.2.94h.13a.71.71,0,0,1,.4.11l.1.1a.35.35,0,0,1,.23.11h-.23l-.83.1c.2.11.33.11.33.21s-.13.11-.13.21a.31.31,0,0,0-.1.2.1.1,0,0,0,.1.1.65.65,0,0,1,.43-.21.34.34,0,0,0,.2.1.49.49,0,0,1,.33.21.9.9,0,0,0,.5.31c.13,0,.23,0,.23-.11l.2-.42a.75.75,0,0,1,.3-.1h.13c.1,0,.1.1.1.21v.42c0,.11,0,.11.1.11l.2-.21.1.21h.1a.42.42,0,0,1,.33.1h.73a1.5,1.5,0,0,0,1.36-.52l.3.31v.11a2,2,0,0,0,.2-.73v-1a5.57,5.57,0,0,0-.2-.94v-.41Z"/><path class="cls-2" d="M45.33,142.58v.52h.3c.1-.1,0-.2-.1-.31s-.1-.21-.2-.21"/><path class="cls-2" d="M49.46,148.7a.32.32,0,0,1,.1-.21v-.1c0-.11.13-.21.13-.31s-.13,0-.13-.11h-.2c.1.11.2.11.2.21s-.1.21-.2.31a1.23,1.23,0,0,0-.3.21c.1.11.1.21.1.42s.1.21.3.21h.23a.29.29,0,0,0,.2-.31.45.45,0,0,1-.33-.11c-.1,0-.1-.1-.1-.21"/><path class="cls-2" d="M46.79,142.48l.73.1-.53-.42v.11a.22.22,0,0,1-.2.21"/><path class="cls-2" d="M46.06,139.68a.1.1,0,0,1,.1-.11h-.43a.31.31,0,0,1-.2-.1h-.1a.35.35,0,0,1-.3-.11H44.6c-.2,0-.43,0-.53.11a2.27,2.27,0,0,1-.4,1,1.85,1.85,0,0,0,.5-.09,3.64,3.64,0,0,1,1-.11.57.57,0,0,1,.4.11c0-.31,0-.41.1-.52s.1.11.1.11.1.1.1.21v.31h.33c0-.21.1-.42.2-.42s.1-.1.23-.1.1.1.1.31,0,.11.1.21h.1c.1,0,.1-.11.1-.21V140c0-.11,0-.11.2-.11h.33a1.25,1.25,0,0,0,.93.41c0,.11.1.11.2.11h1.79a1.19,1.19,0,0,1,.6.11.63.63,0,0,0-.6-.52.72.72,0,0,1-.43.1.77.77,0,0,1-.43.1h-.1a.51.51,0,0,1-.5-.42v.42a.42.42,0,0,1-.33.1c-.1,0-.2,0-.2-.1s-.2-.1-.3-.31a1.8,1.8,0,0,0-.63-.31c-.23,0-.33-.1-.43-.1a.36.36,0,0,0-.3.1c-.1,0-.1.11-.2.11a2.21,2.21,0,0,0-.23.21c-.1,0-.2.11-.3.11s-.1-.11-.23-.11v-.11c.13-.1.13-.1.23-.1"/><path class="cls-2" d="M43.68,140.51h0Z"/><path class="cls-2" d="M42.82,140c-.2.21-.2.31-.2.31a1,1,0,0,0,.73.21h.3l-.2-.1Z"/><path class="cls-2" d="M56.21,124.11l.86.11,1,.1.2.11V124c0-.21,0-.31-.1-.42h-4v.31l1.55.21h.5Z"/><path class="cls-2" d="M71.49,136.15h-.1l-.07-.06-.26.06a.22.22,0,0,0-.2-.21.1.1,0,0,0-.1-.11v-.21l.56.46.17,0,.1-.11-.1.21ZM71,138.64h-.3c0-.21,0-.31.1-.42H71Zm-.2,1.25-.23.21-.2.21.2-.3.23-.31Zm-.63-.21-.3-.11-.23-.21h.53Zm-.63-4.36v.11a.34.34,0,0,0-.2.1v.31c-.1-.1-.2-.21-.2-.31a.22.22,0,0,1,.2-.21.34.34,0,0,1,.2-.11h.33a.38.38,0,0,0-.33.11m-.63,3.21c-.1,0-.2.11-.3.21s-.1.11-.1.21l-.17-.14s0,0,0,0l-.13-.11-.2-.1h.2c0,.1.13.1.13.1s0,0,0,.06c.17-.09.17-.18.26-.27a.38.38,0,0,0,.1-.31c.1-.31.2-.52.43-.42a.39.39,0,0,1,.1.31c0,.11-.1.21-.33.41M68,140l-.1-.11-.33-.31.33.11H68Zm3.94-5.51s.1-.1.23-.21a.36.36,0,0,1,.3-.1,3.85,3.85,0,0,0,.1-1.56c-.1-.83-.2-1.35-.2-1.35a2,2,0,0,1,.2-.83,3,3,0,0,0-.63-.21h-.1a.36.36,0,0,0-.3-.1h-.73a1.64,1.64,0,0,1-.23.21c-.1,0-.1,0-.1.11a1.35,1.35,0,0,0-.6-.21.46.46,0,0,0-.33-.1.35.35,0,0,1-.2-.1c-.2,0-.53-.1-.73-.1h-.43a.34.34,0,0,0-.3-.11h-2l-.1-.11a2.15,2.15,0,0,0-1.12,0h-.1a1.46,1.46,0,0,1-1.16-.21v5.29c.63,0,.93-.11,1-.31,0,0,.13.11.13.21a13.6,13.6,0,0,1,.2,2.18v1.66a13.81,13.81,0,0,0-.1,1.66h-.1a1.06,1.06,0,0,0-1.16.31l-.1.11.1.1c.3,0,.73.1,1.16.1a3.28,3.28,0,0,0,1,.11h.2a6.94,6.94,0,0,0,1.16-.11h1.22a.63.63,0,0,0,.43-.1h.2a5,5,0,0,0,.53.1h.2a.1.1,0,0,0,.1.11h.23a1.94,1.94,0,0,0,.69.1h.23a.64.64,0,0,0,.63-.31l.1.1c0,.11.2.21.3.21h.43a.77.77,0,0,1,.3-.1.82.82,0,0,0-.1-.31l-.2-.21a.22.22,0,0,1,.2-.21h1.26a.32.32,0,0,0,.1-.2c0-.11-.1-.21-.1-.42a.4.4,0,0,1-.1-.31c0-.11.1-.21.3-.31a.44.44,0,0,1-.2-.72,3.62,3.62,0,0,1-.53-.11,4.84,4.84,0,0,1,.43-.31c.1-.1.2-.21.3-.21V137a.82.82,0,0,1-.2-.52c0-.1.1-.31.2-.73v-.83c-.3,0-.73-.1-1-.1a1.75,1.75,0,0,1-1-.31"/><path class="cls-2" d="M64.54,129.09a12,12,0,0,0,1.22.21,5,5,0,0,1,1.16.1h1.22a.72.72,0,0,0,.43.1h.93a.45.45,0,0,1,.33.11h.93c.2,0,.5.1.73.1h.3a1.24,1.24,0,0,0,.53.1v-6.22H63.39v2.7l-.1,2.6h.1a3.62,3.62,0,0,0,1.16.21"/><path class="cls-2" d="M64.54,148.6h-.13l.13-.2.1-.21.1.11c.1.11.2.21.3.11l.2-.11.13.11a2.88,2.88,0,0,0-.83.2m5,.52c-.1,0-.2,0-.2-.1h-.2c-.23-.1-.33-.21-.53-.31a1,1,0,0,1-.43-.21c-.1-.1-.2-.1-.3-.21h-.3a.49.49,0,0,1-.23-.41c.23-.21.33-.21.33-.21a2.47,2.47,0,0,0-.53-.32h-.43l.1.21-.6.31-.1-.63v.1a3.06,3.06,0,0,0-.33.32,1.37,1.37,0,0,1-.63.21.74.74,0,0,1-.4-.21l.2-.11a.35.35,0,0,0,.3-.11c.23-.21.23-.31.23-.42s0-.11-.1-.11l-.83-.2-1.16-.21.43.21a1.21,1.21,0,0,0-.43.94,1.41,1.41,0,0,0,.1.51v.52a1,1,0,0,1-.1.52l.53-.52a1.24,1.24,0,0,0,.2.31,1,1,0,0,0,.43.1c.1,0,.1,0,.2.11.3,0,.5.1.73.1a.36.36,0,0,0,.3-.1h.1v.1a2.43,2.43,0,0,1,1.06-.1h.2c.3,0,.53-.11.53-.21.1.1.1.1.2.1s.2.11.3.21h2.41a2,2,0,0,1-.73-.1.38.38,0,0,1-.33-.11"/><path class="cls-2" d="M72.12,145.18h-.53l.2-.31.33-.31ZM71,143.93l.1-.42.43.31.3.31-.3-.1-.53-.1Zm-.4-.94-.43-.11c0-.1.1-.21.3-.21l.13.11c.1,0,.2,0,.2-.11v.11c0,.1.1.1.2.21h-.4Zm-1.06.41c-.1.11-.1.21-.2.32a.84.84,0,0,1-.53.21c.33-.11.43-.42.53-.73V143h.3c0,.21-.1.31-.1.41m-.2-1.13.2-.42v.73h-.4Zm-.63.72-.1-.21-.1-.42h.2Zm-.3.73a2.91,2.91,0,0,1-.23.21h-.3v-.31l.1.11.2-.32.13-.21c.1.1.2.1.2.21s0,.11-.1.32m-1.26-1.45H67l.1.1a.33.33,0,0,1,.1.21h-.53c0-.1.1-.21.23-.31s.1-.11.2-.11a1.24,1.24,0,0,1,.43-.31Zm-.33,1.87v-.63H67v.63h-.23Zm.33.94h-.2l-.23.1.23-.21.1-.11h.1l.43.11-.43.11Zm-1-.83-.33-.21-.4-.31.4-.11.33-.11a.25.25,0,0,1-.23.21.33.33,0,0,0-.1.21Zm-1.46-.52h-.23V143h.23Zm7.87.41c0-.41-.2-.63-.63-.52v-.21c0-.1.13-.21.33-.21h.3a10.69,10.69,0,0,1-.1-1.55c-.2,0-.4-.11-.63-.11H70.56a1.59,1.59,0,0,1-.73.11h-.43l-.1-.11H69c-.2,0-.3.11-.3.31l-.1-.1a.33.33,0,0,1-.1-.21H65.24a2.38,2.38,0,0,1-.73-.11,1.69,1.69,0,0,0-.6-.1.75.75,0,0,0-.53.21l-.1.11.1.1c.43.21.63.42.63.73a1.59,1.59,0,0,1-.43.93.83.83,0,0,0-.2.42.79.79,0,0,0-.2.62.81.81,0,0,0,.1.41h.1a.57.57,0,0,1,.43.11l-.43.42h-.1c0,.1,0,.1.1.21v.1l.2-.41h.33c.2,0,.3,0,.3.1v-.52l.2.11.1-.21.13-.21c.2,0,.3.1.3.31s-.1.21-.3.52c0,.1-.13.21-.13.21a.39.39,0,0,0-.1.31,1.29,1.29,0,0,1-.3-.21,1.44,1.44,0,0,0,.4.31c.13,0,.33.11.43.11h.83c0,.1,0,.1.1.1l-.1.11,1,.21v.21h.13l.2-.11.43-.1c-.23-.1-.33-.1-.43-.21s-.1-.21-.2-.21V146a1.43,1.43,0,0,1-.13-.72h.33a1,1,0,0,0,.53-.11c.1-.1.1-.1.2-.1a.35.35,0,0,1,.3-.11h.33a4.59,4.59,0,0,1,.1-.52c.1-.1.1-.21.2-.21a1,1,0,0,1,.53.31l.1.1h.1a3,3,0,0,0,.33.31c.1,0,.2.11.3.11a.34.34,0,0,1,.2-.11.3.3,0,0,1-.2-.31c0-.3.1-.52.43-.52h.1l.1.11.3.31a.29.29,0,0,1,.2.31c0,.11-.1.31-.5.42l.73.2.3.11.53.1-.1-.1.2-.21c.1-.1.2-.1.1-.21v-1Z"/><path class="cls-2" d="M63.39,142.58h-.1l.1.31Z"/><path class="cls-2" d="M91.3,147.42a.4.4,0,0,0,.1.25.27.27,0,0,0-.1-.25"/><path class="cls-2" d="M84.55,125.14h.23a.29.29,0,0,0-.13.21h-.1l-.2-.21h.2Zm5-.73h.3l-.2.11-.1.1Zm-8,1.25H82c.2,0,.3,0,.4-.11h.23c.1,0,.2-.11.3-.11H83c.1,0,.23,0,.23.11v.11h.4a.36.36,0,0,0,.3.1c.13.11.13.11.23.11s.1.1.2.1v-.41c.1,0,.1,0,.2.11a1.74,1.74,0,0,1,.73.21c.23,0,.43.1.63.1a1.32,1.32,0,0,0,.63.11,1.07,1.07,0,0,0,.53.11c.3,0,.5.1.73.1v-.21l.5.11,1.06.21.2-.72h.1c.2,0,.3.1.3.21a.4.4,0,0,0-.1.31c0,.21.23.31.53.31h1c.13,0,.23.11.33.21a.1.1,0,0,0,.1-.1h.3c.23,0,.33-.11.53-.31l.33.42h1c.2.11.53.11.73.21h.2a1.35,1.35,0,0,0,.63.1.77.77,0,0,0,.43.1h1c.2,0,.43-.1.63-.1a4.71,4.71,0,0,0-.63-.72,2.74,2.74,0,0,1-.63-.52.52.52,0,0,0-.4-.21,2.41,2.41,0,0,0-.43-.31l-.63-.31c-.1,0-.1-.11-.1-.11a6.85,6.85,0,0,0-.83-.31c-.2-.11-.43-.11-.63-.21s-.2-.1-.4-.1a3.8,3.8,0,0,0-1.16-.21.61.61,0,0,0-.43-.11,1.22,1.22,0,0,0-.6-.1,3.94,3.94,0,0,0-1.16-.11h-.1c-.2-.1-.43,0-.73.11a1.78,1.78,0,0,1-.53.21c-.1,0-.2-.11-.3-.21H85.91a1.42,1.42,0,0,0-.63.1,1.82,1.82,0,0,0-.73.11.58.58,0,0,0-.4.1c-.23,0-.33.11-.53.11a.34.34,0,0,1-.2.1,2.48,2.48,0,0,0-.53.31.36.36,0,0,0-.3.1,1.86,1.86,0,0,0-.63.42l-.1.1c-.1-.1-.23-.21-.23-.31v.1l-.1.11-.2.1-.1.11c0,.1,0,.1.1.21a.3.3,0,0,1,.2.11"/><path class="cls-2" d="M85.91,149.23l-.4-.31c.1.21.2.31.4.31"/><path class="cls-2" d="M81.54,137.6a.22.22,0,0,1-.2-.21c0-.1.1-.21.2-.31s0-.11.1-.11a.4.4,0,0,0-.1.31Zm-.2,8.3h-.43l.13-.11h.3l.2.11h-.2Zm-.63.94-.3-.1.17-.17s0,0,0,0l0,0s.07.1.13.17a1.58,1.58,0,0,1,.13.17Zm.33-5.71h.2v.63H81Zm-.13-1.24-.2-.31H81v.53Zm-.3-7.37v-.41c0-.1.1,0,.1,0s.1.1.2.1l-.2.11Zm-.73,1.14h-.3l.3-.31.1-.1.1.41h-.2Zm.2,3.84v.31H80c.1,0,.1-.09.1-.31s-.1-.21-.2-.31a.1.1,0,0,0-.1-.1h.1c.1,0,.2.1.2.31v.1h0m1.06-4.25.2-.21v.21a.21.21,0,0,0,.2.2.35.35,0,0,1-.2-.1H81Zm.5,2.28a1.45,1.45,0,0,1,.23.21.1.1,0,0,1,.1.1,1.09,1.09,0,0,0,.1.13,1.59,1.59,0,0,1,.3.6.53.53,0,0,1-.2-.41.48.48,0,0,0-.1-.19l-.1-.13-.1-.1c-.13,0-.13.1-.23.1Zm.33-5.09.2.21v.11l-.2-.21-.33-.41Zm-.1-3.74h.3V127h-.3Zm.1,13.18v-.11l.2-.21.33.42Zm.53-6.54.1.1.2.21h-.3Zm.4,7.06A.79.79,0,0,1,83,140c.1-.42.2-.63.43-.63v.32c-.1.1-.1.21-.23.31s-.3.31-.3.41-.1.21-.1.1l.1-.1Zm.73-11.73c.2-.11.2-.21.2-.21v-.11l-.1-.1a.09.09,0,0,1,.1.1l.2.21-.4.21-.1.11h-.1a.22.22,0,0,0,.2-.21m.53,2.18.2-.11.2.41v.1c-.1-.21-.3-.41-.4-.41L84,131a.32.32,0,0,0-.07.19h-.2L84,131a.18.18,0,0,1,.17-.12m.83,1.87a.47.47,0,0,1,.1.31c-.1.11-.3,0-.53-.1l.43-.21Zm-.2-3.32c.2,0,.4,0,.5.11s0,.11.1.11a1.76,1.76,0,0,0,.3.35l.13.06s-.07,0-.13-.06a1.15,1.15,0,0,0-.4-.15,1.62,1.62,0,0,0-.5.21l.3-.42-.3-.21Zm1.32,8v.41h-.3l.1-.1.2-.21h-.2l-.1-.11h.3Zm.33,1v.1a.61.61,0,0,1-.23.42c-.1.21-.2.31-.1.41-.1,0-.1,0-.2-.1h-.3c.1-.11.2-.11.3-.21.3-.2.53-.41.53-.62m.1-2.39.1-.21a.38.38,0,0,1,.1.21v.21c0,.11,0,.11-.2.11h-.1l.1-.31Zm-.63,5.71v-.1l.2-.21.33.52Zm-.76-10.34.13.07.33.31h-.23a.1.1,0,0,1-.1-.1l-.1-.1a.27.27,0,0,0,0-.17m.13,7.34h.33l-.33.21-.2-.1Zm0,4.67c0,.11-.1.11-.2.21.1-.11.1-.21.2-.42a.22.22,0,0,1,.23-.21c0,.1-.13.21-.23.41m-.73-4.15h.23l-.13.1a.1.1,0,0,1-.1-.1h-.3v-.21h.3c-.1.11,0,.11,0,.21m.23.62h-.23a.1.1,0,0,1-.1-.11.35.35,0,0,1-.2-.1H85c-.1.21-.1.21-.2.21m-.13,4.57h-.3l.2-.41.1-.21Zm-1.22-2.8-.23.52v-.52c0-.11.13-.21.23-.31s.1-.1.1-.21Zm-.63,3.53h-.2l-.23-.1h.43Zm-3.21.21-.23-.21.13-.1h.1c.1,0,.2.1.2.41l-.2-.1ZM78.86,142l-.13-.31c0-.11.13-.11.13-.11l.2.21-.2.21m.63-11.83h-.33l-.3-.1h.63Zm11.71-.94h.33l-.13.11-.2.1Zm2.08-.73.1.21v.21h-.1Zm1.55,3.84h.1v.1h-.1Zm.73-3.12h.1c0,.05,0,.16-.1.31v.11c.1,0,.1.1.2.1h-.3Zm1.46.62h.2v.52l-.2-.21-.2-.31Zm.63-1.14.1.11c.1,0,.2,0,.2.11H98c.23.1.33.2.33.31s0,.21-.1.21h-.33c.1-.1.23-.21.23-.21a1.87,1.87,0,0,1-.23-.21v-.1h-.3Zm-10.58,9.24s0,.06.07.09a.7.7,0,0,1,.66.22v.31c-.33-.24-.53-.42-.66-.53l-.07,0Zm0-.72.1-.42v.94h-.1ZM82,146.74c.1,0,.1,0,.2-.11l-.2-.1-.1-.21.1-.11.53-.42v.73a.1.1,0,0,1,.1-.1c.1-.11.2-.11.3-.21a1.93,1.93,0,0,1,.53-.31.34.34,0,0,0,.2-.11,3.44,3.44,0,0,0,.53-.31.76.76,0,0,1,.4-.2,3.45,3.45,0,0,0,.73-.52l.63-.31a2.21,2.21,0,0,1,.63-.41c.2-.21.43-.31.53-.42h.1c0-.11,0-.11-.1-.21a.22.22,0,0,0-.23-.21l-.3-.31v-.31c.1-.1.1-.1.1-.21l.2.21c.23-.1.23-.31.13-.62s-.33-.42-.33-.52.2-.31.43-.41l-.43-.31.43-.31v-.31a1.69,1.69,0,0,1,1.22-.32v-.21c0-.1-.1-.21-.3-.31a.35.35,0,0,1-.33-.31c0-.1.13-.1.43-.1,0-.11-.1-.21-.1-.32s.1-.41.1-.62a3.86,3.86,0,0,1,.1-.62c0-.42-.2-.62-.73-.62h-.3c0-.21.1-.42.2-.42a.1.1,0,0,1,.1-.1c.1,0,.2.1.33.21s.1.2.2.2.2-.2.2-.31-.1-.21-.2-.42-.2-.31-.2-.41.1-.32.5-.52a3.48,3.48,0,0,1-1.22-.21h-.23a7.21,7.21,0,0,1-.1-2.18,4.49,4.49,0,0,0-.1-2.07.3.3,0,0,0,.2-.11h.23a.4.4,0,0,1-.23-.41.64.64,0,0,1,.23-.52v-.1c.1-.11.2-.21.2-.31s-.1-.21-.2-.31v-.11a1.33,1.33,0,0,1,.6-.52c.23-.1.43-.21.63-.31h.1c.1,0,.53.21,1.06.31.1,0,.1.1.2.1s.3.21.3.42-.1.21-.1.42a16.16,16.16,0,0,0,.33,4.26l.1-.21a1.46,1.46,0,0,0,.53.21.87.87,0,0,0,.5.1h.1c.13,0,.33-.1.43-.1l.93-.31H93l.1.1-.1.11v.11c.1-.11.2-.11.4-.11h.1A1.21,1.21,0,0,1,94,133h.1a1.9,1.9,0,0,1,.73.21h.1a4,4,0,0,0,.63.1,1.27,1.27,0,0,0,.43-.1c.1-.11.1-.11.1-.21.1.11.2.21.3.21s.33.1.53.1H97c.2,0,.4-.1.73-.1,0,0,0-.11.1-.11h.1a1.94,1.94,0,0,0,.53-.11h.1s0,.11-.1.11-.1.11,0,.21v-.1l.3-.31a.1.1,0,0,1-.1-.1c0-.11.1-.11.1-.31s.1-.1.1-.21-.1-.21-.3-.21a2.55,2.55,0,0,0,.2-.83,6.3,6.3,0,0,0-.2-1,.39.39,0,0,0-.1-.31,3.72,3.72,0,0,0-.1-.62c0-.11.1-.31.1-.41v-.42a.65.65,0,0,0-.53-.72h-.2a.65.65,0,0,0-.43-.11H97c-.1,0-.2.11-.3.11H95.57c-.1-.11-.3-.11-.43-.21v-.1H93.38c-.1-.11-.2-.11-.4-.11a5.31,5.31,0,0,1-1.16-.21l-.3.31-.13-.11c-.2,0-.4-.1-.6-.1s-.73-.21-1.16-.31h-.53a2.46,2.46,0,0,1-.83-.1,4.07,4.07,0,0,1-1.22-.11h-.53a1.84,1.84,0,0,1-.63-.1,1.38,1.38,0,0,1-.63-.11h-.73a.57.57,0,0,0-.4-.11H82.6a4,4,0,0,0-.63-.1c0-.1-.1-.1-.23-.1h-.1c-.1,0-.1-.11-.1-.11h-.4c-.1-.11-.1-.11-.23-.11h-.2a1.93,1.93,0,0,0-.83.21l-.1.1c-.1,0-.1.1-.2.21a.76.76,0,0,0-.43.41c-.1.1-.1.21-.2.31s-.1.1-.1.21c-.13.31-.33.52-.43.83l-.3,2.49a2.46,2.46,0,0,0,.3,1.35H78a4.87,4.87,0,0,0,.2.83,2.71,2.71,0,0,1,.2.72,1.1,1.1,0,0,1-.4.83c.1.21.2.31.4.31a.87.87,0,0,0,.43-.11h.3a.81.81,0,0,1,.2.41,1.5,1.5,0,0,1,.13.52,1.66,1.66,0,0,0-.13,1.14,1,1,0,0,1,0,1l.23.21v.1c.1.1.1.1,0,.21h-.1a.3.3,0,0,0-.13.21l.23.21v.11c-.23.1-.23.1-.23.2a.65.65,0,0,0,.13.42.1.1,0,0,0,.1.1v.31l-.43.11-.3.11h-.13l.13.1h.73l.3.11.83.11H81a.33.33,0,0,1-.13.31c-.1,0-.1.1-.2.1a1.34,1.34,0,0,1-.63.21h-.2a.36.36,0,0,1-.3-.1h-.73a.39.39,0,0,0-.33.1c.1.41,0,.63-.3.63H78v.52a.75.75,0,0,1,.3-.1c.2,0,.2.1.2.21v.21c0,.1.1.21.33.21l-.83.62h.5c.1.11.2.21.2.32h-.3a.22.22,0,0,0-.2.21.57.57,0,0,1,.4.11.35.35,0,0,0,.23.1c.1.1.1.1.2.1l-.2.21-.13.1-.3-.31a.58.58,0,0,0,.3.72l.13-.1c.2.1.3.21.3.31l-.2.21a.35.35,0,0,1-.1.2v.11h.63c0,.1.1.1.1.21s-.1.11-.23.21l-.2.21h.43c.1,0,.2,0,.2.11s0,.11-.2.31l.3.21.1.1a1.71,1.71,0,0,0,.73.41c.1,0,.1,0,.2-.1h.23c.1,0,.1,0,.2-.11a.3.3,0,0,0,.2-.1h.1c.1-.1.23-.21.33-.31"/><path class="cls-2" d="M86.11,149.33l.1-.1h-.3Z"/><path class="cls-2" d="M97.95,142.37l-.2.31-.2.21.2-.31.2-.31Zm-1.55,2.91-.07-.3h0a.15.15,0,0,1,0-.21l0,.22a.11.11,0,0,1,.07.1.3.3,0,0,0,.2.1l-.2.11Zm-1.46-1.66h-.1v-.21l.1.11Zm-.83,3.12H94l-.1-.11.1-.11.53-.31-.43.52Zm-.43-2.6-.3-.63-.1-.11h.1l.3.31Zm-.6,1.35H93v-.62h.1Zm-1.55-.62H91.4l-.5-.1h.4c0-.11,0-.11.1-.11h.13Zm-3.14,1.66h-.3l.2-.21.33-.11c-.23.11-.23.21-.23.31m-1.32-1.24-.17,0-.07,0-.2-.11.26.06.17-.16.3-.21.43.42h-.73Zm3.74-7c-.13,0-.23-.21-.33-.52,0-.05-.1-.11-.13-.16l-.07.06-.3-.31c.13,0,.23.11.36.25l.23-.25v.21c0,.1,0,.2.23.31s.3.11.4.21a.75.75,0,0,1-.4.21m0-1.87.3.21v.42l-.3-.42-.23-.41ZM99,137.7a.75.75,0,0,0-.53.21.82.82,0,0,0-.2.52h-.53a2.49,2.49,0,0,0-.73.42,4.28,4.28,0,0,0-.63.72l-.1-.21-.3.32a.43.43,0,0,0,.3.1l-.3.31-.23.21.23.11-.33.31h-.1l-.43-.42.33-.3h-.93a.58.58,0,0,1,.3-.53c0-.11,0-.11.1-.11a1.94,1.94,0,0,1,.63-.31v-.1c.2,0,.3-.1.43-.1a1.33,1.33,0,0,0,.4-.32.55.55,0,0,0,.3-.41l-.1-.1.23-.31c.1.1.2.1.2.21V138a2.4,2.4,0,0,1,.73-.41.34.34,0,0,0,.2-.11H98a1.2,1.2,0,0,0,.43-.31,1.78,1.78,0,0,0,.4-.52c.13.11.23.21.33.11a.52.52,0,0,1,.2-.41.35.35,0,0,1,.1.2.42.42,0,0,0,.33.11.55.55,0,0,0,.2-.41c-.1,0-.2,0-.3-.21,0,0,.1,0,.2-.21.1,0,.1-.1.1-.21l-1.26-.1-.2.52h-.3a.38.38,0,0,1-.33-.11c.1,0,.1-.11.2-.21s.13-.11.13-.21H95.57a1.39,1.39,0,0,0-.63.1H94c-.2,0-.43.11-.63.11H93c-.33.1-.63.1-.86.21v-.11a.71.71,0,0,1,.53-.21,1.33,1.33,0,0,0-.63-.1h-.2a.74.74,0,0,0-.43.1c-.2,0-.3.11-.5.21,0-.1,0-.1-.1-.21a.47.47,0,0,0-.33-.1,1.33,1.33,0,0,0-.5.1c-.13.11-.23.11-.33.21h-.1a.38.38,0,0,1,.1.21.81.81,0,0,1,.2.51,2.76,2.76,0,0,1-.2.73c-.1.41-.2.62-.1.83h.1l.33.1a.33.33,0,0,1-.13.31.29.29,0,0,1-.2.11.33.33,0,0,0-.1.21c0,.1.1.1.1.2a.82.82,0,0,0,.43.21.71.71,0,0,0,.4-.11h.33a1.42,1.42,0,0,1,.6.21v.53c-.1.11-.1.21-.2.21a1.75,1.75,0,0,0-.3.41l-.1-.1v-.31h-.53v1.56c.2,0,.3-.11.53-.21a2,2,0,0,0,.6-.42,2.73,2.73,0,0,0,.33-.31l.1-.1a3.83,3.83,0,0,1,1.16-.72h.4a.78.78,0,0,1,.63.21h.2l-.2.1-.63.42-.4.21-.63.42a.68.68,0,0,1-.53.62c-.1,0-.2.11-.43.11a1.19,1.19,0,0,0-.6.11.89.89,0,0,0-.63.62v.72c0,.31.1.42.3.42a.57.57,0,0,1-.5.21l.2.1a2.87,2.87,0,0,1-.53.62c-.1,0-.2.1-.3.1-.53.31-.83.42-1,.62a.1.1,0,0,0-.1-.1,1.56,1.56,0,0,0-1.22-.73c-.13,0-.33.11-.53.11a2.16,2.16,0,0,0-.63.42c-.2.11-.4.31-.63.41,0,.1,0,.1-.1.1a2.64,2.64,0,0,1-.63.52c-.1.11-.3.21-.4.31s-.33.21-.53.31a.34.34,0,0,1-.2.1l-.23-.21-.3.31-.3.21-.63.52-.33.31c0,.1.13.1.23.1H82a.34.34,0,0,0,.2-.1c.2-.21.33-.21.43-.31l.2.21a.22.22,0,0,0-.2.21v.31c.1,0,.2.1.3.1a.75.75,0,0,0,.53.21.3.3,0,0,0,.2.1,1.17,1.17,0,0,0,.53.1h.4a.64.64,0,0,0,.53-.62l-.53-.31c-.1,0-.2-.11-.4-.21s-.33-.21-.53-.3-.2-.21-.2-.31l.2-.11h.53l.4-.11h.1l-.1-.1-.3-.31.3-.31c.33-.21.53-.42.73-.52h.33a.57.57,0,0,1,.3.42v.11a.51.51,0,0,0,.63.11c.3-.11.53-.21.53-.21.2,0,.3.11.4.31l-.3.21c.1,0,.2-.11.3-.11a1.17,1.17,0,0,1,.63.41.34.34,0,0,1,.2-.1h.33c0-.21,0-.42.1-.42l.3.21v-.31a.22.22,0,0,1,.2-.21,1.5,1.5,0,0,1,.43.52l.2.21.63-.42.33.21-.53.31c.3,0,.4,0,.53-.1v.63c.1,0,.1-.11.1-.11a.35.35,0,0,1,.3-.11q.1,0,.1.07v-.07a.1.1,0,0,1,.1-.1.64.64,0,0,1,.43-.21h.1a.62.62,0,0,0,.63-.31v.52a.81.81,0,0,0,.2.52v-.52c.1,0,.23,0,.23.1a.58.58,0,0,1,.3.52v.94h2.28c.2,0,.3-.11.43-.11s.2-.11.3-.2c0,.1.1.1.1.2v.11a1.35,1.35,0,0,0,.63.1h.73c.1,0,.2,0,.2-.1a.6.6,0,0,0,.53-.31v.2l.1.21a.42.42,0,0,0,.2-.41v-.63a1,1,0,0,1,.1-.52l-.4-.1v-.52l.1-.11c.2.11.3.21.3.11a2.19,2.19,0,0,1-.2-.94.81.81,0,0,1,.1-.41V145a1.8,1.8,0,0,0-.3-1v-.11a1.82,1.82,0,0,0,.4-1.35v-1.77l-.3-.62c.2.1.43,0,.63-.21a1.57,1.57,0,0,1,.63-.31.34.34,0,0,0,.2.11c-.1,0-.1-.11-.1-.21a2.83,2.83,0,0,1,.1-.72,5.46,5.46,0,0,0,.2-.94.8.8,0,0,0-.2-.51,2.78,2.78,0,0,0-1,.41"/><path class="cls-2" d="M125.16,148.09h.1v-.21h-.63c0,.1,0,.21.2.21Z"/><path class="cls-2" d="M125.46,149h-.1l-.1.1h-.1v-.31l-.53.42c-.1-.11-.2-.11-.2-.21a.36.36,0,0,0,.1-.21.33.33,0,0,0,.1-.21.61.61,0,0,1-.53-.2l-.3.3.5.21-.2.41h.73c.1.1.2.1.33,0s.3,0,.4-.1,0-.21-.1-.21"/><path class="cls-2" d="M125.16,147.15l-.23.21h.63l-.3-.31-.1.1Z"/><path class="cls-2" d="M125.16,143.2l-.1-.06.1.06"/><path class="cls-2" d="M123.58,143.31h.13l.3-.41h-.73c0,.11-.1.11-.1.21l.1.11Z"/><path class="cls-2" d="M120.37,145.07h.33l-.23.1-.2.11.1-.21Zm-2.48-2.91-1.26-.41,1.06.72c.1.1.1.21.2.31a4.25,4.25,0,0,0,1,1.56c.33.41.63.83.93,1.24a2.31,2.31,0,0,1,.53.62h.33l-.13-.2a.3.3,0,0,1,.13-.21c0-.11.1-.11.2-.21a2.32,2.32,0,0,0,.93.31l.2-.94c-.1.1-.1.21-.2.41s-.1.21-.3.21h-.13c-.3-.21-.4-.31-.4-.52s.2-.21.63-.31.53-.31.53-.52c.2.11.2.11.2.31v.31h.4v.1c.1,0,.23-.1.43-.1h.1a.38.38,0,0,1,.33-.11c.1,0,.1,0,.2.11l-.1.1a1,1,0,0,1,.4.1l.2-.1a2.28,2.28,0,0,0-.69-.52h-.33a.1.1,0,0,1-.1.11.84.84,0,0,1,.1-.31h-.93s0-.11.2-.31a.57.57,0,0,0-.4-.11h-.43c-.2,0-.43-.1-.33-.52l-.3.31c-.1-.11-.1-.31-.2-.42s-.2-.11-.43-.21a.71.71,0,0,1-.4-.11h-.23a6,6,0,0,1-.93-.1l.23-.21-1.26-.42Z"/><path class="cls-2" d="M119.84,128.57a1.25,1.25,0,0,1,.63.11H121a9.33,9.33,0,0,1,1.75.1h.83a6.2,6.2,0,0,1,1.59.11h.3v-5.29h-8.93l-.2,4.67c.5.1.93.1,1.55.21s1.22.1,2,.1"/><path class="cls-2" d="M124.44,147.57l-.83-.21h-.23v-1h-.1l-.53.72h-.1l-.3-.21.2-.21a1.29,1.29,0,0,0-.3.21c0,.1.1.21.3.21l.2.21.1.1c.13.1.33.1.43.21s.2.11.33.11.3.1.5.1.33-.1.33-.21"/><path class="cls-2" d="M122.55,145.28v.31l.2-.21.13-.1h-.33Z"/><path class="cls-2" d="M124.93,143.1h0"/><path class="cls-2" d="M125.26,142h-.1v-.42h.1Zm0-.83h-.1c-.53,0-1.06-.11-1.59-.11h-.83a12.48,12.48,0,0,0-1.85-.1h-.43a1.19,1.19,0,0,1-.6-.11h-.76a5,5,0,0,0-1.22-.21,4.07,4.07,0,0,1-1.36-.21c-.1.1-.2.1-.2.21s.1.1.3.21.43.21.43.31l.3-.31.53.42.3.3a2.29,2.29,0,0,0,.83.31,3.27,3.27,0,0,1,.63.11l.1-.11c0,.11.13.11.13.21a1.6,1.6,0,0,0,.6.42h.33a.09.09,0,0,1,.1.1,1.84,1.84,0,0,1,1.12.52c.23-.31.33-.52.53-.62s.1-.11.2-.11a.58.58,0,0,1,.43-.21c0-.21,0-.41.1-.41h.1l.1.1s0,.11.1.11a.39.39,0,0,1,0,.52l.73-.63.1.11-.4.52c.1.1.1.1.2.1a.1.1,0,0,0,.1-.1c.1-.11.1-.21.33-.21s.3.21.3.31-.1.21-.2.42a1,1,0,0,0-.33.31c.13,0,.13,0,.23-.1a.36.36,0,0,1,.3-.1c.1-.1.1-.21.23-.21h.3a1,1,0,0,0,.1-.52,2.13,2.13,0,0,0-.1-.73,4.63,4.63,0,0,0-.2-.52"/><path class="cls-2" d="M119.84,148.18c-.2-.1-.2-.21-.2-.21s0-.1.1-.1l.1.1.23.31a.41.41,0,0,1-.23-.11m-2-.93-.43.31-.3-.72.2.2c.1.1.3,0,.53-.1v-.1c.2-.21.4-.32.63-.21l-.63.62Zm5.19.83a.38.38,0,0,0-.33-.11.58.58,0,0,0-.4-.1l-.23.72a1,1,0,0,1-.5-.72.47.47,0,0,0-.43-.52h-.3v.11c0,.11-.1.11-.2.21s-.13-.11-.13-.21V147h-.1a1.94,1.94,0,0,0-.63-.41c-.1-.11-.2-.21-.3-.21a1,1,0,0,0-.73-.41h-.2l.3-.52c-.1-.21-.2-.21-.4-.21a.85.85,0,0,0-.43.1c-.1,0-.2,0-.2.11h-.23v-.21c0-.11,0-.21.23-.21h.1q.3-.16.3-.31l-.2-.21-.2.31-.23.1-.2-.1c0-.1.1-.21.2-.31a1.31,1.31,0,0,0,.23-.21l.1-.11-.1-.11-.53-.21.1-.11a1.64,1.64,0,0,0-1.12-1c0,.94.1,1.56.5,1.77a.65.65,0,0,0-.5.62,1.05,1.05,0,0,1,.1.31.82.82,0,0,1,.1.31c0,.21,0,.31-.2.41l.3.31-.3.32c.3,0,.5,0,.5.1l-.4.31c0,.1-.1.1-.1.21s.2.21.5.21.53.21.53.41a1.62,1.62,0,0,1-.63.31.34.34,0,0,1-.2-.11v.94l1.36-.42.2-.11v.53h.53v.1h.3a1,1,0,0,0,.63-.21,1.51,1.51,0,0,1,.2-.72c0,.1.1.2.1.3s.13.11.13.11.2.11.4.21l-.1.21h.63c.2,0,.4-.11.63-.11.4-.21.73-.21.83-.31l-.23.21.63.11.23.11a1.35,1.35,0,0,0,.1-.53c.1-.21.1-.3.2-.3h.2l-.2-.21c0-.1-.1-.1-.2-.1"/><path class="cls-2" d="M106,127.43a.93.93,0,0,0,.53.1h.73a8,8,0,0,1,1.75.21,1.93,1.93,0,0,1,.93.21h.73c.1,0,.63.11,1.46.21.33,0,.73.11,1.26.11v-.52a7.79,7.79,0,0,1,.1-1.35,8.85,8.85,0,0,0,.1-1.45,5.44,5.44,0,0,0-.2-1.35h-8.83v3.73a3.9,3.9,0,0,0,.63.11H106Z"/><path class="cls-2" d="M113.09,148.29l-.93-.83-.1-.11h.73a.41.41,0,0,0-.1.32l.2.21c.2.1.2.21.2.41m-.93-5.4.33-.31v.52h-.33l-.3.1Zm-1.46-3.53-.2.11v-.31h.3Zm-.4,9.55-.33.1.23-.31h.3ZM106,145.18h-.1c-.07,0-.13.05-.23.15s0,.17,0,.27c0-.11-.13-.11-.13-.11a1.15,1.15,0,0,1,.1-.16c0-.16,0-.25-.1-.25h.86a.72.72,0,0,1-.43.11m.1,3.63h-.2v-.41h.2Zm-.83-2.6-.1-.21-.2-.31.2.21.1.11ZM114.88,135h-4.17a.73.73,0,0,1-.4.1c-.43,0-.83.11-1.26.11a21.35,21.35,0,0,0-2.48.52.9.9,0,0,0-.53.11h-.2a.34.34,0,0,1,.2.11.35.35,0,0,1,.3.11l-.3.31a2.22,2.22,0,0,0-.3,1.77,3.66,3.66,0,0,1-.13,2.07c-.1-.1-.2-.1-.4-.1-.43,0-.73.1-.83.41l.4.52a.3.3,0,0,1-.2.11l-.2,2.49.4.52c-.2,0-.2,0-.2.11l.2.21c.1.1,0,.21-.1.31h-.1a4.8,4.8,0,0,0-.2,1.14c0,.52.2.73.73.63,0,.1-.1.1-.33.1s-.5.11-.4.31c.2,0,.4.1.4.21a2.77,2.77,0,0,0-.2,1.35,2.11,2.11,0,0,0,.1.83,2.88,2.88,0,0,0,.53-.63c0-.1.1-.21.1-.3l.3.62c.13.21.23.31.43.31h.53c.2,0,.3-.1.4-.31a6.25,6.25,0,0,0,.73.1,2.93,2.93,0,0,0,.83.11h.53c.43,0,.83.1,1.26.1h1.85a2.27,2.27,0,0,0,1.26-.31.36.36,0,0,1-.1-.21,4.8,4.8,0,0,1,.2-.52,4.51,4.51,0,0,1,.1-.52c0-.21-.2-.42-.53-.52l.53-.31a.43.43,0,0,1-.3-.41.54.54,0,0,1,.1-.31.81.81,0,0,0,.1-.42.31.31,0,0,0-.1-.2c-.2,0-.43,0-.53-.11l.2-.21a.92.92,0,0,0,.43.1.1.1,0,0,0,.1-.1c0-.11,0-.11-.1-.21v-.31c0-.11,0-.21.1-.21a12.51,12.51,0,0,0-.53-1.77,1.12,1.12,0,0,0,.33-.21c.2-.2.2-.51.2-.93a1.61,1.61,0,0,0-.3-1,1.11,1.11,0,0,0,.1-.41.22.22,0,0,1,.2-.21c.1,0,.2.1.33.1-.13-.1-.23-.21-.23-.31s.1-.21.23-.42a.53.53,0,0,0,.1-.31c.3.21.4.31.6.31s.23-.2.43-.62.33-.62.53-.62l.3.41a3.69,3.69,0,0,0,.1-1.14,8.48,8.48,0,0,0-.3-2.29c-.3.31-.53.21-.83-.1"/><path class="cls-2" d="M123,137.91h-.23s0-.06-.07-.07,0,0,0,.07l-.2.21-.1-.11.2-.21c.07,0,.1,0,.13,0a.19.19,0,0,0,.07-.14H123c.1,0,.1,0,.2.11s-.1.11-.2.11m-.1.73c0,.1-.13.1-.13.21h-.4l-.1-.11h.4a.1.1,0,0,1,.1-.1c.23,0,.23-.11.23-.21.1.1,0,.21-.1.21m3.84-3.43a.53.53,0,0,1,.2-.41,1.42,1.42,0,0,1-.33.2c-.2,0-.3-.1-.5-.2s-.33-.31-.53-.21l-.1-5.29h-.3a9.35,9.35,0,0,1-1.59-.1h-1.85a2,2,0,0,0-.83-.11h-.43a1.22,1.22,0,0,1-.6-.1h-2a6.35,6.35,0,0,0-1.46.1c0-.1-.1.11-.1.62,0,.31.1.52.3.52a3.21,3.21,0,0,0-.3,1.14,4.11,4.11,0,0,1-.1,1.35h-2.51a1.3,1.3,0,0,1-.3-.94c0-.52,0-.83-.1-.93a1.43,1.43,0,0,0,.3-1,2.78,2.78,0,0,0-.2-1.14,2.52,2.52,0,0,1-1.26,0,7,7,0,0,1-1.46-.1h-.4c-.43-.1-.83-.1-1.26-.21H109a10.78,10.78,0,0,0-2.38-.31c-.23,0-.33-.11-.53-.11H104.4v1.35a2.41,2.41,0,0,0,.3,1.34,6.36,6.36,0,0,0-.4,1.88,17.72,17.72,0,0,0,.3,2.18h.2c0-.21.1-.42.23-.42s.2.21.1.32c.1,0,.1,0,.1-.11h.1c.2,0,.3.11.3.31s.13.41.23.51.1-.1.2-.1a1,1,0,0,0,.53-.11,21.54,21.54,0,0,1,2.48-.41c.43,0,.83-.1,1.26-.1a.71.71,0,0,0,.4-.11h2.38a17.83,17.83,0,0,1,3.44.21V136a16,16,0,0,1,.1,2.48.47.47,0,0,0,.33-.1.3.3,0,0,1,.2-.11c.3.11.5.31.5.52v.52c0,.21,0,.31.13.42h.1c.4,0,1,.11,2,.21.2,0,.4.1.6.1h.43a2,2,0,0,0,.83.1c.3.1.73.1,1,.21h.83a8,8,0,0,0,1.59.11h.4l-.1-.41,1.46-.21v-4c-.33,0-.53,0-.53-.11a.8.8,0,0,1,.33-.1v-.42Z"/><path class="cls-2" d="M125.16,143.31h.1v-.1h-.1l-.23.1Z"/><path class="cls-2" d="M123.48,142.53l-.1,0c.07,0,.1,0,.1,0"/><path class="cls-2" d="M123.58,142.48a.18.18,0,0,0-.1.05Z"/><path class="cls-2" d="M145.8,127.43c-.1.31-.3.52-.53.52l-.73-.52-.1.72c.1,0,.23.11.43.11v.52c0-.42-.33-.63-.93-.63l-.23.11-.1-.11c0-.1.1-.21.23-.31s.3-.21.3-.31l-.2-.21h0a1.55,1.55,0,0,1-.73.62h-.43c-.3.11-.53.11-.53.21,0-.1.13-.1.13-.21s-.13-.11-.43-.31a.3.3,0,0,1-.2-.11l-.83-.31-.23-.21.43-.31.1.52.73-.31h.3l-.2-.21c.33.31.53.41.63.31h.1l.1-.1-.1-.11a.3.3,0,0,0-.2-.11h.93a.91.91,0,0,1-.3.62l-.13.11c0,.1.13.1.13.21h.2c.17,0,.33-.14.53-.31h0l.1-.1a.33.33,0,0,1-.1-.21.22.22,0,0,1,.2-.21.5.5,0,0,0,.3-.34c0-.06-.07-.12,0-.18v.18l.1.14a.43.43,0,0,0,.23.1h.5c-.3,0-.5.11-.5.21s.2.2.4.2a.52.52,0,0,0,.43-.2l.2-.21a.1.1,0,0,1,.1-.1,2.69,2.69,0,0,1-.1.83M142,125.56h.1c.1-.11.2,0,.33.11l.2-.11-.33.31.53.1.43.11c.63,0,.83.11.73.21l-.73-.21h-.43c-.3,0-.63.11-.83.11l-.2.21a2.43,2.43,0,0,1-.23-.21c0-.21.23-.42.43-.63m10,1.25a1.14,1.14,0,0,1-.4-.21.73.73,0,0,1,.5-.21l-.1-2.28c-.1,0-.2-.1-.3-.1s-.2.1-.3.41a.63.63,0,0,1-.43.31l-.2-.62a2.24,2.24,0,0,0-1-.21c-.3,0-.6.11-1.12.11a4.65,4.65,0,0,1-.93.1h-.43V124h-.83a1.79,1.79,0,0,0-.63-.11.92.92,0,0,0-.53.21l-.4-.31H142c-.2.11-.43.11-.63.21l-.83-.41c-.1.1-.1.2-.2.2s-.1.21-.1.42-.1.31-.33.42a3.36,3.36,0,0,0-.2-.62.22.22,0,0,1,.2-.21,4.8,4.8,0,0,1-.93-.1c-.43,0-.83-.1-1-.1a1.58,1.58,0,0,0-.83.2v.63c-.23,0-.33-.1-.43-.31s-.2-.41-.33-.52H133a4.53,4.53,0,0,0-2,.2v5l5.52.11a.64.64,0,0,1,.1.41v.83c.1.31.2.52.43.62a1.09,1.09,0,0,0-.33.83,2.63,2.63,0,0,1,0,.94l1.46.21c.2,0,.93.11,2.08.11h1c.2,0,.43.1.63.1h.83c.1,0,.3.1.43.1.5.11.93.21,1.32.31l-.3.31a.35.35,0,0,0-.3-.11,1.14,1.14,0,0,0-.53.11c-.1,0-.1.11-.2.11s-.23.1-.33.1a.1.1,0,0,1-.1-.1c-.1,0-.2,0-.2-.11l-.63.11-1.65.21-2.18.31.1,1.87a.52.52,0,0,1,.53-.42h.83a2.94,2.94,0,0,0,.73-.2,9.35,9.35,0,0,0,1.65-.63h.2a1.69,1.69,0,0,1,.63-.21c.1-.1.3-.1.43-.21a5,5,0,0,1,1.65-.21,2.22,2.22,0,0,1,.93-.31c.23,0,.43-.1.63-.1a3.31,3.31,0,0,0,1.16-.52h-.43c-.1,0-.2,0-.2-.1l-.43.41a.82.82,0,0,1-.3-.72c-.1-.42-.2-.62-.33-.62a1.74,1.74,0,0,0,.53-1.35c0-.1-.1-.62-.2-1.46a1.41,1.41,0,0,1,1.36-.72,5,5,0,0,1,1.65.11,3,3,0,0,0,1.46-.11v.11h1.22v-1.67h.1a.3.3,0,0,0,.13-.21.25.25,0,0,0-.23-.21"/><path class="cls-2" d="M140.71,133.35h-.4l-2.08-.1v.41a17.07,17.07,0,0,0,2.08-.21.61.61,0,0,1,.4-.1"/><path class="cls-2" d="M147.59,136.25v-2.18c-.43.1-1.06.31-1.79.52s-1.55.41-2.58.72c-.1.11-.33.11-.43.21a2.27,2.27,0,0,1-.83.21,14,14,0,0,1-1.65.52,19.17,19.17,0,0,1-2.18.63v4c.4.1,1.12.31,2.18.52a1.42,1.42,0,0,1,.63.1c.4,0,.73.11,1,.11s.53.11.83.21a.65.65,0,0,1,.43.11,4.06,4.06,0,0,1,.5.11l.33-.42.5.63h.33a3.42,3.42,0,0,1,.93.11h.1a7.65,7.65,0,0,0,1.06.2c.1-.1.1-.2.1-.51s.2-.31.3-.31.1,0,.23.1V140.3a1.05,1.05,0,0,1-.13-.62,2.86,2.86,0,0,1,.13-.94,8.9,8.9,0,0,0,.2-1,1.65,1.65,0,0,0-.53-1.24.29.29,0,0,1,.33-.21"/><path class="cls-2" d="M145.6,147.46l-.2-.11h.4a.34.34,0,0,0-.2.11m.3-4.26c0-.1,0-.21-.1-.21a.35.35,0,0,0-.3-.11.84.84,0,0,1-.63-.21h-1.65c-.1,0-.33-.11-.43-.11-.3-.1-.53-.1-.83-.21s-.73-.21-1.12-.31a.9.9,0,0,1-.53-.11,17.67,17.67,0,0,0-2-.21,2.29,2.29,0,0,0-.83.1c0,.42.1.72.1.94a1.46,1.46,0,0,0,.63.72l-.1.11c-.33,0-.53,0-.63-.11a1.86,1.86,0,0,1,.1.73c0,.31-.1.83-.1,1.55a12.56,12.56,0,0,0-.2,1.66,3,3,0,0,0,.1.94c.2.1.3.1.3.2s-.1.31-.4.52a.34.34,0,0,0,.2-.11l.2-.1c.1,0,.23.21.23.42h6a1.85,1.85,0,0,1,.83-.21c.1,0,.4.11,1,.21a1.44,1.44,0,0,0,1.16-.1,21.07,21.07,0,0,0,.1-2.8,30.64,30.64,0,0,0-.1-3.22H145.9Z"/></g></g></g></g></svg>