<svg xmlns="http://www.w3.org/2000/svg" viewBox="0 0 283.46 283.46"><defs><style>.cls-1{fill:#4a5b64;}.cls-2{fill:#fff;}</style></defs><title>filmeurope</title><g id="Layer_2" data-name="Layer 2"><g id="Film_Europe" data-name="Film Europe"><g id="filmeurope"><rect class="cls-1" width="283.46" height="283.46"/><path id="logo" class="cls-2" d="M122.53,153.77q-.06-7-.06-14V113.6a35.53,35.53,0,0,1,.62-6.4,4.76,4.76,0,0,1,3.9-4.11,14.76,14.76,0,0,1,4.67-.46q2.81.09,4.85.09v4.7h-6q-2.29,0-2.66,1.39a11,11,0,0,0-.37,2.81q0,3.34,0,6.68t0,6.67h4.08v4.82q-1.36.06-2.07.06h-2v.62q-.13,11.74,0,23.3Zm28.8,0h5.19V102.72h-5.19Zm31.71-2.6v-2.66h-3.21q-2.29,0-2.66-1.18a8.59,8.59,0,0,1-.37-2.6q0-10.44,0-21t0-21H171.8V143.2a26.18,26.18,0,0,0,.62,6.09q.62,2.57,3.89,4.3a6.52,6.52,0,0,0,2.9.34l3.83-.16ZM214.2,107a1.75,1.75,0,0,1,1.73,1.33,11.23,11.23,0,0,1,.25,2.38q-.06,10.45,0,21.57t0,21.51h5V112.85a24.66,24.66,0,0,0-.65-6.06q-.65-2.53-3.86-4.33a6.58,6.58,0,0,0-2.6-.43,5.49,5.49,0,0,0-2.41.43,9.41,9.41,0,0,0-2,1.42,11.28,11.28,0,0,0-2-1.42A6.76,6.76,0,0,0,205,102a4.86,4.86,0,0,0-2.35.43q-3.34,1.79-4,4.33a25.8,25.8,0,0,0-.62,6.06q0,10.14,0,20.49t0,20.43h5V110.69a12.35,12.35,0,0,1,.22-2.35c.15-.74.73-1.2,1.76-1.36,1,.12,1.63.57,1.79,1.33a11.24,11.24,0,0,1,.25,2.38q-.06,10.45-.06,21.57v21.51h5.13q0-10.38,0-21.51t0-21.57a10.81,10.81,0,0,1,.25-2.35q.25-1.12,1.79-1.36m-62.09,53.88a11.46,11.46,0,0,1,2,3.21,9.67,9.67,0,0,1,.54,2.95h-8a9.76,9.76,0,0,1,.54-2.95,11.46,11.46,0,0,1,2-3.21,6,6,0,0,0-3.71,2.12,6.79,6.79,0,0,0-1.28,4H42.52v.62H144.16a7,7,0,0,0,1.29,4.36,6,6,0,0,0,3.71,2.12,8.27,8.27,0,0,1-2-2.92,10.21,10.21,0,0,1-.56-3.57h10.49a7.37,7.37,0,0,0-1.3-4.65,6,6,0,0,0-3.71-2.12m21.69,12.08V160.86h-3.95a1.3,1.3,0,0,1,1.47,1.47v12.08h3.95a1.3,1.3,0,0,1-1.47-1.47m-7.48.21a2.17,2.17,0,0,1-1.06-1.85V160.86H161.3a1.3,1.3,0,0,1,1.47,1.47v9a3.1,3.1,0,0,0,.82,2.3,3.15,3.15,0,0,0,2.33.82,6.35,6.35,0,0,0,3.1-.88,7.4,7.4,0,0,1-.88.06,3.44,3.44,0,0,1-1.83-.44m22-12.4a5.4,5.4,0,0,0-2.42.47q1.59,0,1.77.21a.78.78,0,0,1,.18.53,1.41,1.41,0,0,0,.38.8,1.24,1.24,0,0,0,1,.47,1.21,1.21,0,0,0,.94-.35,1.25,1.25,0,0,0,.32-.88,1.2,1.2,0,0,0-.35-.88,3,3,0,0,0-1.83-.35m-5,12.2V160.57L179.33,162l.34,0a1,1,0,0,1,1.1,1.09v9.84a1.3,1.3,0,0,1-1.47,1.47h5.45a1.3,1.3,0,0,1-1.47-1.47m15.12-12.08a6,6,0,0,0-3.71,2.12,8.47,8.47,0,0,0,0,9,6,6,0,0,0,3.71,2.12,8.24,8.24,0,0,1-2-2.92,11.61,11.61,0,0,1,0-7.13,11.42,11.42,0,0,1,2-3.21m2.95,0a11.42,11.42,0,0,1,2,3.21,11.67,11.67,0,0,1,0,7.13,8.24,8.24,0,0,1-2,2.92,6,6,0,0,0,3.71-2.12,8.49,8.49,0,0,0,0-9,6,6,0,0,0-3.71-2.12m17.3,0q1.65.3,2.09,2.5a20.94,20.94,0,0,1,0,8.55q-.44,2.21-2.09,2.5a4.17,4.17,0,0,0,3.68-2,8.77,8.77,0,0,0,1.32-4.89,8.06,8.06,0,0,0-1.32-4.74,4.25,4.25,0,0,0-3.68-1.89M214.57,180V160.51L210.63,162l.34,0a1,1,0,0,1,1.11,1.09V180a1.3,1.3,0,0,1-1.47,1.47H216a1.3,1.3,0,0,1-1.47-1.47m25.07-17a6,6,0,0,0-3.71-2.12,11.47,11.47,0,0,1,2,3.21,10.25,10.25,0,0,1,.56,3.56h2.47a7.37,7.37,0,0,0-1.3-4.65M233,160.86a6,6,0,0,0-3.71,2.12,8.48,8.48,0,0,0,0,9,6,6,0,0,0,3.71,2.12,8.24,8.24,0,0,1-2-2.92,11.67,11.67,0,0,1,0-7.13,11.42,11.42,0,0,1,2-3.21"/></g></g></g></svg>