<svg xmlns="http://www.w3.org/2000/svg" viewBox="0 0 283.46 283.46"><defs><style>.cls-1{isolation:isolate;}.cls-2,.cls-3{fill:#d89e34;}.cls-3{mix-blend-mode:overlay;}.cls-4{fill:#fff;}</style></defs><title>filmboxpremium</title><g class="cls-1"><g id="Layer_2" data-name="Layer 2"><g id="Filmbox"><g id="filmboxpremium"><rect class="cls-2" width="283.46" height="283.46"/><polygon class="cls-3" points="154.13 52.56 168.51 283.46 181.28 283.46 283.46 230.06 221.35 61.03 154.13 52.56"/><polygon class="cls-3" points="0 33.14 221.35 61.03 164.38 162.45 0 40.41 0 33.14"/><polygon class="cls-3" points="283.46 243.58 164.38 162.45 100.83 283.46 283.46 283.46 283.46 243.58"/><polygon class="cls-3" points="129.29 0 8.2 152.56 0 97.79 0 33.14 55.57 0 129.29 0"/><polygon class="cls-3" points="21.82 243.53 100.83 283.46 45.03 283.46 21.82 243.53"/><polygon class="cls-3" points="221.35 61.03 283.46 71.85 283.46 22.47 221.35 61.03"/><polygon class="cls-3" points="221.35 61.03 283.46 71.85 283.46 22.47 221.35 61.03"/><polygon class="cls-3" points="150.86 0 221.35 61.03 283.46 22.47 283.46 0 150.86 0"/><polygon class="cls-3" points="0 97.79 0 283.46 45.03 283.46 21.82 243.53 0 97.79"/><polygon class="cls-3" points="0 97.79 0 283.46 45.03 283.46 21.82 243.53 0 97.79"/><polygon class="cls-3" points="154.13 52.56 154.13 2.83 221.35 61.03 154.13 52.56"/><polygon class="cls-3" points="150.86 0 221.35 61.03 283.46 22.47 283.46 0 150.86 0"/><polygon class="cls-3" points="221.35 61.03 283.46 71.85 283.46 22.47 221.35 61.03"/><g id="logo"><path class="cls-4" d="M69.93,150.25V138.33H66.17v-4.86h3.76V122.2H86.5v4.86H75.23v6.41h9.06v4.86H75.23v11.93Z"/><path class="cls-4" d="M88.92,122h5.75v28.28H88.92Z"/><path class="cls-4" d="M116.76,150.25H97.1V122h5.52V145.4h9.49v-3.76l4.64-.22v8.84Z"/><path class="cls-4" d="M142.38,150.25h-4.64V131.92l-7.07,6.18-7.07-6.18.22,18.33H119V122l11.7,10.38L142.38,122Z"/><path class="cls-4" d="M146.33,94.28V178.4l94.62,10.79-10.5-94.91H146.33Z"/><path d="M215,140.32l-5.6,9.89h-6.16l9-14.19-8.76-13.79h6.16L215,132l5.43-9.73h6.16L218,136l8.92,14.19h-6.16Z"/><path d="M163.58,137.93H159v7.46h4.63v4.95h-9.81V137.93h-3.83v-4.45h3.81V122.11h9.82v4.95H159v6.41h4.63Zm.16,0h-.16v-4.45h.16a3.52,3.52,0,0,0,3.41-3.25,3.33,3.33,0,0,0-3.41-3.16h-.16v-4.95h.16c6.89,0,8.68,5.52,8.68,8a6.12,6.12,0,0,1-2.92,5.19A6.55,6.55,0,0,1,174,141.9c0,1.94-1.71,8.43-10.14,8.43h-.24v-4.95h.16c2.76,0,4.46-1.78,4.46-3.65s-1.3-3.81-4.46-3.81"/><path d="M190.68,145.31a9.08,9.08,0,0,1,0-18.17v-5.51h-.16a14.6,14.6,0,1,0,0,29.19h.16v0a14.6,14.6,0,0,0,0-29.19v5.51a9.08,9.08,0,0,1,0,18.17Z"/><path class="cls-4" d="M99.36,159.91l-3.87,6.67c-.73,1.25-1.12,2-1.33,2.41-.21-.41-.61-1.16-1.33-2.41L89,159.91H87.42v14.88h1.7v-7.54c0-1.06,0-2.53,0-3.6v-.48l.75,1.34,3.89,6.75h.92l3.89-6.75.74-1.33v.29c0,1.12-.07,2.65-.07,3.78v7.54h1.72V159.91Z"/><rect class="cls-4" x="105.74" y="159.91" width="1.7" height="14.88"/><path class="cls-4" d="M46.86,159.91H42.52v14.88h1.71v-5.37h2.63c3.47,0,5.53-1.78,5.53-4.75S50.32,159.91,46.86,159.91Zm0,7.85H44.23v-6.19h2.63c2.42,0,3.81,1.13,3.81,3.09S49.28,167.76,46.86,167.76Z"/><path class="cls-4" d="M122.38,159.91v8.65c0,3.09-1.38,4.59-4.21,4.59s-4.23-1.54-4.23-4.59v-8.65h-1.66v8.61c0,4,2.09,6.26,5.9,6.26s5.9-2.22,5.9-6.26v-8.61Z"/><polygon class="cls-4" points="74.3 173.13 74.3 167.66 80.88 167.66 80.88 166.04 74.3 166.04 74.3 161.57 82.46 161.57 82.46 159.91 72.61 159.91 72.61 174.79 82.58 174.79 82.58 173.13 74.3 173.13"/><path class="cls-4" d="M64.13,168.85a4.22,4.22,0,0,0,3-4.25c0-2.9-2.12-4.69-5.53-4.69H57.23v14.88h1.7v-5.53h2.64a7.67,7.67,0,0,0,.82,0l3.41,5.57h2Zm1.24-4.25c0,1.92-1.39,3.07-3.73,3.07h-2.7v-6.11h2.7C64,161.57,65.37,162.68,65.37,164.61Z"/><path class="cls-4" d="M140.85,159.91,137,166.58c-.73,1.25-1.12,2-1.33,2.41-.21-.41-.61-1.16-1.33-2.41l-3.87-6.67H128.9v14.88h1.7v-7.54c0-1.06,0-2.52,0-3.59v-.49l.75,1.34,3.89,6.75h.92l3.89-6.75.74-1.33v.29c0,1.12-.07,2.65-.07,3.77v7.54h1.72V159.91Z"/></g></g></g></g></g></svg>