<svg xmlns="http://www.w3.org/2000/svg" viewBox="0 0 283.46 283.46"><defs><style>.cls-1{fill:#e30a13;}.cls-2,.cls-3{fill:#fff;}.cls-3,.cls-4{fill-rule:evenodd;}.cls-4{fill:#211d1d;}</style></defs><g id="Layer_2" data-name="Layer 2"><g id="Filmbox"><g id="filmboxstars"><rect class="cls-1" width="283.46" height="283.46"/><g id="logo"><path class="cls-2" d="M136.88,182.06l104.06,11.86L229.4,89.54H136.88v92.52"/><path class="cls-3" d="M52.86,151.1V138H48.73v-5.34h4.13V120.25H71.08v5.34H58.69v7h10V138h-10V151.1H52.86"/><path class="cls-3" d="M73.75,151.1V120h6.32V151.1H73.75"/><path class="cls-3" d="M104.36,151.1H82.74V120h6.07v25.75H99.26v-4.13l5.1-.24v9.71"/><path class="cls-3" d="M132.54,151.1h-5.1V130.94l-7.77,6.8-7.78-6.8.25,20.16h-5.35V120l12.88,11.42L132.54,120V151.1"/><path class="cls-4" d="M212.45,140.18l-6.15,10.88h-6.78l9.9-15.61-9.63-15.16h6.78l5.88,10.7,6-10.7h6.78l-9.55,15.16,9.82,15.61H218.7l-6.25-10.88"/><path class="cls-4" d="M155.85,137.54h-5.08v8.21h5.08v5.44H145.06V137.54h-4.21l0-4.9h4.19V120.15h10.79v5.44h-5.08v7h5.08v4.9Zm.18,0h-.18v-4.9H156a3.88,3.88,0,0,0,3.75-3.57,3.66,3.66,0,0,0-3.75-3.48h-.18v-5.44H156c7.58,0,9.54,6.07,9.54,8.83a6.71,6.71,0,0,1-3.21,5.71c2.86.8,4.91,3.66,4.91,7.22,0,2.14-1.88,9.28-11.15,9.28h-.27v-5.44H156c3,0,4.9-2,4.9-4s-1.42-4.2-4.9-4.2"/><path class="cls-4" d="M185.66,145.66a10,10,0,0,1,0-20v-6.06h-.18a16.06,16.06,0,0,0,0,32.11h.18a16.06,16.06,0,0,0,0-32.11v6.06a10,10,0,1,1,0,20Z"/><path class="cls-2" d="M56.33,162c-.47-2.9-2.88-4.65-5.94-4.65s-5.56,1.53-5.56,4.09,3.25,3.5,6.22,4.31,7.37,2.06,7.37,6.47c0,3.59-3.13,6.24-7.84,6.24s-7.59-2.81-8.06-6.4l1.72-.47c.25,2.81,2.5,5.22,6.4,5.22,3.62,0,5.9-1.94,5.9-4.56,0-3.63-4.12-4.31-7.18-5.22-2.5-.72-6.37-1.78-6.37-5.53,0-3.4,3.15-5.77,7.46-5.77,3.91,0,7,2.28,7.62,5.8l-1.74.47"/><path class="cls-2" d="M76.59,156.17v1.72H69.1V178H67.29V157.89H59.82v-1.72H76.59"/><path class="cls-2" d="M90.77,170.07l-4-9.21c-.46-1.13-1-2.53-1-2.53h0s-.53,1.4-1,2.53l-4,9.21Zm.72,1.59H80L77.19,178h-2l9.71-21.87h1.6L96.24,178h-2l-2.78-6.38"/><path class="cls-2" d="M106.08,168c4,0,6.09-2.09,6.09-5.09,0-3.22-2.35-5-6.09-5h-4.53V168Zm6.59,10-5.22-8.53a11.72,11.72,0,0,1-1.47.09h-4.43V178H99.77V156.17H106c5,0,8,2.6,8,6.75a6.14,6.14,0,0,1-4.75,6.25L114.7,178h-2"/><path class="cls-2" d="M131.18,162c-.47-2.9-2.87-4.65-5.93-4.65-3.22,0-5.56,1.53-5.56,4.09s3.25,3.5,6.21,4.31,7.37,2.06,7.37,6.47c0,3.59-3.12,6.24-7.84,6.24s-7.59-2.81-8.05-6.4l1.71-.47c.25,2.81,2.5,5.22,6.41,5.22,3.62,0,5.9-1.94,5.9-4.56,0-3.63-4.12-4.31-7.19-5.22-2.49-.72-6.37-1.78-6.37-5.53,0-3.4,3.16-5.77,7.47-5.77,3.9,0,7,2.28,7.62,5.8l-1.75.47"/></g></g></g></g></svg>