<svg xmlns="http://www.w3.org/2000/svg" viewBox="0 0 283.46 283.46"><defs><style>.cls-1{fill:#e30a13;}.cls-2{fill:#fff;}</style></defs><title>filmboxplus</title><g id="Layer_2" data-name="Layer 2"><g id="Filmbox"><g id="filmboxplus"><rect class="cls-1" width="283.46" height="283.46"/><g id="logo"><path class="cls-2" d="M133.53,87.85v95.52l107.41,12.24L229,87.85H133.53Z"/><path class="cls-2" d="M46.79,119.56v12.79H42.52v5.52h4.27v13.55h6V137.86H63.09v-5.52H52.8v-7.27H65.57v-5.52H46.79Z"/><path class="cls-2" d="M68.35,119.3h6.51v32.1H68.35Z"/><path class="cls-2" d="M99.93,151.41H77.61v-32.1h6.28v26.59H94.67v-4.26l5.26-.25Z"/><path class="cls-2" d="M129,151.41h-5.26V130.59l-8,7-8-7,.23,20.81h-5.52v-32.1l13.29,11.79L129,119.31Z"/><path d="M211.54,140.13l-6.38,11.23h-7l10.22-16.12-10-15.65h7l6.09,11,6.15-11h7l-9.86,15.65L225,151.36h-7l-6.42-11.23Z"/><path d="M153.11,137.41h-5.26v8.47h5.26v5.62H142V137.41h-4.33v-5.06H142V119.46h11.14v5.62h-5.26v7.28h5.26Zm.17,0h-.17v-5.06h.17a4,4,0,0,0,3.87-3.68,3.77,3.77,0,0,0-3.87-3.59h-.17v-5.62h.17c7.84,0,9.86,6.26,9.86,9.11a7,7,0,0,1-3.31,5.89c2.94.83,5.06,3.77,5.06,7.46,0,2.21-1.92,9.58-11.51,9.58h-.26v-5.62h.17c3.14,0,5.09-2,5.09-4.14s-1.49-4.33-5.09-4.33"/><path d="M183.86,145.79a10.31,10.31,0,1,1,0-20.63V118.9h-.17a16.57,16.57,0,1,0,0,33.15h.17v0a16.57,16.57,0,0,0,0-33.15v6.26a10.31,10.31,0,1,1,0,20.63Z"/><path class="cls-2" d="M61.11,169c4.13,0,6.42-2,6.42-5.29,0-3.46-2.48-5.29-6.42-5.29H56.54V169Zm0-12.37c5.23,0,8.3,2.65,8.3,7.07s-3.08,7.07-8.3,7.07H56.54v8.46H54.69v-22.6Z"/><path class="cls-2" d="M87.93,177.49v1.78H73.54v-22.6h1.85v20.82H87.93Z"/><path class="cls-2" d="M108.89,156.66v13.43c0,6.26-3.21,9.65-9.06,9.65s-9.06-3.39-9.06-9.65V156.66h1.82v13.5c0,5.2,2.48,7.81,7.24,7.81s7.21-2.62,7.21-7.81v-13.5Z"/><path class="cls-2" d="M126.95,162.7c-.46-3-2.94-4.81-6.12-4.81-3.34,0-5.75,1.58-5.75,4.23s3.37,3.61,6.42,4.45,7.64,2.13,7.64,6.69c0,3.71-3.24,6.45-8.1,6.45s-7.87-2.9-8.33-6.62l1.75-.48c.26,2.9,2.61,5.39,6.65,5.39,3.74,0,6.09-2,6.09-4.71,0-3.75-4.27-4.46-7.41-5.39-2.61-.74-6.61-1.84-6.61-5.72,0-3.52,3.27-6,7.74-6,4,0,7.18,2.36,7.87,6l-1.82.49Z"/></g></g></g></g></svg>