<svg xmlns="http://www.w3.org/2000/svg" viewBox="0 0 283.46 283.46"><defs><style>.cls-1{fill:#250858;}.cls-2{fill:#fff;}.cls-3{fill:#0094d9;}</style></defs><title>filmplus</title><g id="Layer_2" data-name="Layer 2"><g id="AMC_Networks_International" data-name="AMC Networks International"><g id="filmplus"><rect class="cls-1" width="283.46" height="283.46"/><g id="logo"><path class="cls-2" d="M157.86,182.12v-56.9h13.87V136.4h.15q1.13-12.08,12.89-12.07h5.53q10.24,0,14.33,13.28c1.26-5.18,3-8.77,5.08-10.7,1.88-1.71,4.77-2.57,8.72-2.57h4.48q9.17,0,13.6,6.2c3,4.13,4.44,10.65,4.44,19.59v32H226.38V151.55q0-6.92-2.65-9c-1.21-1-3.61-1.45-7.2-1.45-3.14,0-5.39.47-6.75,1.45-2.07,1.41-3.1,4.17-3.1,8.24v31.36H192.12V149.88q0-6.14-3.41-7.93c-1.16-.61-3.55-.91-7.13-.91-3.08,0-5.31.65-6.67,2-1.66,1.71-2.5,4.74-2.5,9v30H157.86"/><polygon class="cls-2" points="127.64 101.34 145.44 101.34 145.44 182.1 127.64 182.1 127.64 101.34 127.64 101.34"/><polygon class="cls-2" points="95.56 101.34 113.36 101.34 113.36 182.12 95.56 182.12 95.56 101.34 95.56 101.34"/><path class="cls-2" d="M51,182.12H69.57V143h17.6V127.18H69.57v-2.89c0-3.43.86-5.11,2.6-6.22,1.35-.88,1.85-.71,6.64-.9H86.3V101.34H70.93c-7.42,0-10,.43-13.43,3.07-4.33,3.29-6.48,9.28-6.48,18v4.66H42.52V143H51Z"/><rect class="cls-3" x="69.14" y="117.17" width="44.22" height="10.03"/><rect class="cls-3" x="85.53" y="101.34" width="10.03" height="41.68"/></g></g></g></g></svg>