<svg xmlns="http://www.w3.org/2000/svg" viewBox="0 0 283.46 283.46"><defs><style>.cls-1{fill:#250858;}.cls-2{fill:#fff;}.cls-3{fill:#0094d9;}</style></defs><title>filmplus</title><g id="Layer_2" data-name="Layer 2"><g id="AMC_Networks_International" data-name="AMC Networks International"><g id="filmplus"><rect class="cls-1" width="283.46" height="283.46"/><g id="logo"><path class="cls-2" d="M157.86,182.12V125.23h13.87V136.4h.15q1.14-12.08,12.89-12.07h5.53q10.23,0,14.33,13.27c1.26-5.18,3-8.76,5.08-10.7q2.81-2.57,8.71-2.57h4.48c6.11,0,10.66,2.06,13.6,6.19s4.44,10.65,4.44,19.59v32H226.38V151.55c0-4.62-.87-7.62-2.65-9q-1.81-1.46-7.2-1.45c-3.13,0-5.38.47-6.75,1.45-2.07,1.41-3.1,4.17-3.1,8.25v31.35H192.12V149.88c0-4.09-1.13-6.74-3.41-7.92q-1.74-.92-7.13-.91c-3.07,0-5.31.65-6.67,2-1.66,1.71-2.5,4.74-2.5,9.05v30H157.86"/><polygon class="cls-2" points="127.64 101.34 145.44 101.34 145.44 182.1 127.64 182.1 127.64 101.34 127.64 101.34"/><polygon class="cls-2" points="95.56 101.34 113.36 101.34 113.36 182.12 95.56 182.12 95.56 101.34 95.56 101.34"/><path class="cls-2" d="M51,182.12H69.57V143H87.18V127.18H69.57v-2.89c0-3.43.86-5.11,2.61-6.22,1.35-.88,1.84-.71,6.63-.9H86.3V101.34H70.93c-7.42,0-10,.43-13.43,3.07-4.33,3.3-6.47,9.28-6.47,18v4.67H42.52V143H51Z"/><rect class="cls-3" x="69.14" y="117.17" width="44.22" height="10.03"/><rect class="cls-3" x="85.53" y="101.34" width="10.03" height="41.68"/></g></g></g></g></svg>