<svg xmlns="http://www.w3.org/2000/svg" viewBox="0 0 283.46 283.46"><defs><style>.cls-1{fill:#e30a13;}.cls-2{fill:#fff;}</style></defs><g id="Layer_2" data-name="Layer 2"><g id="Filmbox"><g id="filmbox-2" data-name="filmbox"><rect class="cls-1" width="283.46" height="283.46"/><g id="logo"><path class="cls-2" d="M133.51,87.86v95.5l107.43,12.25L229,87.86Z"/><path class="cls-2" d="M46.78,119.56v12.79H42.52v5.51h4.26V151.4h6V137.86H63.08v-5.51H52.8v-7.27H65.59v-5.52Z"/><path class="cls-2" d="M68.35,119.31h6.52V151.4H68.35Z"/><path class="cls-2" d="M99.94,151.41H77.63v-32.1H83.9v26.58H94.69v-4.26l5.25-.25v10Z"/><path class="cls-2" d="M129,151.41h-5.25V130.6l-8,7-8-7,.26,20.81h-5.52v-32.1l13.29,11.78L129,119.31v32.1Z"/><path d="M211.51,140.13l-6.34,11.23h-7l10.21-16.11-9.92-15.65h7l6.08,11,6.19-11h7l-9.86,15.65L225,151.36h-7Z"/><path d="M153.28,145.88h-5.42v-8.47h5.42c3.57,0,5.06,2.31,5.06,4.33s-1.92,4.14-5.06,4.14m-5.42-20.81h5.42a3.79,3.79,0,0,1,3.87,3.6,4,4,0,0,1-3.87,3.68h-5.42Zm12,9.39a7,7,0,0,0,3.31-5.89c0-2.85-2-9.12-9.86-9.12H141.94v12.9h-4.3l0,5.06h4.33V151.5h11.44c9.56,0,11.51-7.37,11.51-9.58,0-3.68-2.12-6.63-5.06-7.46"/><path d="M183.87,145.79a10.31,10.31,0,1,1,10.32-10.31,10.29,10.29,0,0,1-10.32,10.31m0-26.89h-.2a16.58,16.58,0,0,0,0,33.15h.2a16.58,16.58,0,0,0,0-33.15"/></g></g></g></g></svg>