<svg xmlns="http://www.w3.org/2000/svg" viewBox="0 0 283.46 283.46"><defs><style>.cls-1{fill:#e30a13;}.cls-2{fill:#fff;}</style></defs><title>filmboxfamily</title><g id="Layer_2" data-name="Layer 2"><g id="Filmbox"><g id="filmboxfamily"><rect class="cls-1" width="283.46" height="283.46"/><g id="logo"><path class="cls-2" d="M142.2,92.2V180l98.75,11.26L230,92.2H142.2Z"/><path class="cls-2" d="M62.46,150.63V138.18h-3.9V133.1h3.9V121.35h17.3v5.07H68v6.68h9.46v5.07H68v12.45H62.46Z"/><path class="cls-2" d="M82.3,121.12h6v29.51h-6Z"/><path class="cls-2" d="M111.34,150.63H90.84V121.12h5.75v24.44h9.92v-3.92l4.83-.23v9.22Z"/><path class="cls-2" d="M138.09,150.63h-4.86V131.49l-7.37,6.45-7.37-6.45.23,19.13h-5.06V121.12L125.86,132l12.24-10.84v29.51Z"/><path d="M213.93,140.26l-5.85,10.33h-6.42L211,135.77l-9.16-14.39h6.45l5.59,10.16,5.66-10.16H226L217,135.77l9.29,14.82h-6.42l-5.92-10.33Z"/><path d="M160.22,137.76h-4.83v7.78h4.83v5.16H150V137.76h-4l0-4.66h4V121.25h10.25v5.17h-4.83v6.68h4.83v4.66Zm.17,0h-.17V133.1h.17a3.66,3.66,0,0,0,3.54-3.38,3.47,3.47,0,0,0-3.54-3.3h-.17v-5.17h.17c7.18,0,9,5.76,9,8.38a6.36,6.36,0,0,1-3,5.42,6.84,6.84,0,0,1,4.66,6.86c0,2-1.79,8.8-10.58,8.8h-.23v-5.16h.17c2.88,0,4.63-1.86,4.63-3.81s-1.36-4-4.63-4"/><path d="M188.49,145.46a9.48,9.48,0,1,1,0-19v-5.76h-.17a15.24,15.24,0,1,0,0,30.47h.17v-5.76h0v5.76a15.24,15.24,0,0,0,0-30.47v5.76a9.48,9.48,0,0,1,0,19Z"/><path class="cls-2" d="M44.21,157.09v7.83h9.23v1.58H44.21v9.74H42.52V155.46h13.2v1.63H44.21Z"/><path class="cls-2" d="M69.24,168.67l-3.84-8.76c-.43-1.07-.93-2.4-1-2.4h0s-.5,1.33-.93,2.4l-3.84,8.76h9.59Zm.66,1.51H59l-2.65,6.06H54.46l9.23-20.78h1.52l9.23,20.78H72.55l-2.65-6.06Z"/><path class="cls-2" d="M96.52,155.46v20.78H94.8V165.7c0-2.73.17-7.3.13-7.3h0s-.93,1.6-1.79,3.15l-5.52,9.58H86.7l-5.52-9.58c-.86-1.55-1.75-3.15-1.79-3.15h0s.1,4.57.1,7.3v10.54H77.77V155.46h1.62l5.49,9.46c1.85,3.18,2.22,4.1,2.25,4.1h0s.4-.92,2.25-4.1l5.49-9.46h1.62Z"/><path class="cls-2" d="M102.34,155.45H104v20.78h-1.69Z"/><path class="cls-2" d="M123,174.6v1.63h-13.2V155.45h1.69V174.6H123Z"/><path class="cls-2" d="M138.33,155.46l-8.07,10.3v10.48h-1.69V165.75l-8.07-10.3h2l5.62,7.12c.5.65,1.29,1.69,1.32,1.69h0s.79-1,1.29-1.69l5.59-7.12Z"/></g></g></g></g></svg>