<svg xmlns="http://www.w3.org/2000/svg" viewBox="0 0 283.46 283.46"><defs><style>.cls-1{fill:#4b5b64;}.cls-2{fill:#fff;}</style></defs><g id="Layer_2" data-name="Layer 2"><g id="Film_Europe" data-name="Film Europe"><g id="filmeuropeplus"><rect class="cls-1" width="283.46" height="283.46"/><g id="logo"><path class="cls-2" d="M106.55,125v4.92H97.4V139H92.47v-9.15H83.32V125h9.15V115.8H97.4V125Z"/><path id="filmeur" class="cls-2" d="M122.53,153.77q-.06-7-.06-14V113.6a35.62,35.62,0,0,1,.61-6.4,4.77,4.77,0,0,1,3.9-4.11,14.89,14.89,0,0,1,4.67-.47c1.87.07,3.49.1,4.85.1v4.69h-6c-1.52,0-2.41.47-2.66,1.39a11.25,11.25,0,0,0-.37,2.82c0,2.22,0,4.45,0,6.67s0,4.45,0,6.68h4.08v4.82q-1.37.06-2.07.06h-2v.62q-.14,11.75,0,23.3Zm28.8,0h5.2V102.72h-5.2ZM183,151.18v-2.66h-3.21c-1.52,0-2.41-.39-2.66-1.17a8.87,8.87,0,0,1-.37-2.6q0-10.44,0-21t0-21H171.8V143.2a26.42,26.42,0,0,0,.61,6.09c.42,1.71,1.71,3.15,3.9,4.3a6.52,6.52,0,0,0,2.9.34l3.83-.16ZM214.2,107a1.77,1.77,0,0,1,1.73,1.33,11.57,11.57,0,0,1,.25,2.38q-.06,10.44,0,21.57t0,21.51h5V112.85a24.77,24.77,0,0,0-.64-6c-.44-1.69-1.73-3.14-3.87-4.33a6.5,6.5,0,0,0-2.59-.43,5.41,5.41,0,0,0-2.41.43,8.9,8.9,0,0,0-2,1.42,11.48,11.48,0,0,0-2-1.42A6.74,6.74,0,0,0,205,102a4.83,4.83,0,0,0-2.35.43c-2.23,1.19-3.55,2.64-4,4.33a25.93,25.93,0,0,0-.61,6q0,10.14,0,20.49t0,20.43h5V110.69a12.67,12.67,0,0,1,.22-2.35c.15-.74.73-1.19,1.76-1.36,1,.13,1.63.57,1.8,1.33a11.57,11.57,0,0,1,.24,2.38q-.06,10.44-.06,21.57v21.51h5.13q0-10.38,0-21.51t0-21.57a10.52,10.52,0,0,1,.25-2.35c.16-.74.76-1.19,1.79-1.36m-62.09,53.88a11.46,11.46,0,0,1,2,3.21,9.63,9.63,0,0,1,.54,3h-8a9.63,9.63,0,0,1,.54-3,11.46,11.46,0,0,1,2-3.21,6,6,0,0,0-3.71,2.13,6.81,6.81,0,0,0-1.29,4H42.52v.62H144.16a7,7,0,0,0,1.29,4.36,5.94,5.94,0,0,0,3.71,2.12,8.21,8.21,0,0,1-2-2.91,10.14,10.14,0,0,1-.56-3.57h10.49a7.37,7.37,0,0,0-1.3-4.65,6,6,0,0,0-3.71-2.13m21.68,12.08V160.86h-3.94a1.3,1.3,0,0,1,1.47,1.48v12.08h4a1.31,1.31,0,0,1-1.48-1.48m-7.48.21a2.17,2.17,0,0,1-1.06-1.85V160.86H161.3a1.3,1.3,0,0,1,1.47,1.48v9a2.88,2.88,0,0,0,3.15,3.12,6.36,6.36,0,0,0,3.1-.89,7,7,0,0,1-.88.06,3.4,3.4,0,0,1-1.83-.44m22-12.4a5.35,5.35,0,0,0-2.42.47,3.89,3.89,0,0,1,1.77.2.79.79,0,0,1,.18.53,1.43,1.43,0,0,0,.38.8,1.25,1.25,0,0,0,1,.47,1.21,1.21,0,0,0,.94-.35,1.26,1.26,0,0,0,.33-.89,1.21,1.21,0,0,0-.35-.88,2.94,2.94,0,0,0-1.83-.35m-5,12.19V160.57L179.33,162l.34,0a1,1,0,0,1,1.11,1.09v9.84a1.31,1.31,0,0,1-1.48,1.48h5.45a1.3,1.3,0,0,1-1.47-1.48m15.12-12.08a6,6,0,0,0-3.71,2.13,8.46,8.46,0,0,0,0,9,5.94,5.94,0,0,0,3.71,2.12,8.38,8.38,0,0,1-2-2.91,11.66,11.66,0,0,1,0-7.14,11.76,11.76,0,0,1,2-3.21m2.94,0a11.29,11.29,0,0,1,2,3.21,11.66,11.66,0,0,1,0,7.14,8.11,8.11,0,0,1-2,2.91,6,6,0,0,0,3.72-2.12,8.51,8.51,0,0,0,0-9,6,6,0,0,0-3.72-2.13m17.3,0c1.1.2,1.8,1,2.09,2.51a20.94,20.94,0,0,1,0,8.54c-.29,1.47-1,2.31-2.09,2.51a4.16,4.16,0,0,0,3.68-2,8.68,8.68,0,0,0,1.33-4.89,8,8,0,0,0-1.33-4.74,4.24,4.24,0,0,0-3.68-1.89M214.57,180V160.51L210.63,162l.33,0a1,1,0,0,1,1.11,1.09V180a1.3,1.3,0,0,1-1.47,1.47h5.45a1.31,1.31,0,0,1-1.48-1.47m25.08-17a6,6,0,0,0-3.71-2.13,11.46,11.46,0,0,1,2,3.21,10.37,10.37,0,0,1,.56,3.57h2.47a7.37,7.37,0,0,0-1.29-4.65M233,160.86a6,6,0,0,0-3.71,2.13,8.46,8.46,0,0,0,0,9,5.94,5.94,0,0,0,3.71,2.12,8.21,8.21,0,0,1-2-2.91,11.66,11.66,0,0,1,0-7.14,11.46,11.46,0,0,1,2-3.21"/></g></g></g></g></svg>