<svg xmlns="http://www.w3.org/2000/svg" viewBox="0 0 283.46 283.46"><defs><style>.cls-1{fill:#e30a13;}.cls-2{fill:#fff;}</style></defs><title>filmboxextra</title><g id="Layer_2" data-name="Layer 2"><g id="Filmbox"><g id="filmboxextra"><rect class="cls-1" width="283.46" height="283.46"/><g id="logo"><path class="cls-2" d="M140.29,91.25v89.49l100.65,11.48-11.16-101H140.29Z"/><path class="cls-2" d="M59,150.8V138.11H55v-5.17h4V121H76.65v5.17h-12v6.82H74.3v5.17H64.66V150.8Z"/><path class="cls-2" d="M79.23,120.72h6.11V150.8H79.23Z"/><path class="cls-2" d="M108.84,150.8H87.93V120.72H93.8v24.91h10.1v-4l4.94-.23v9.4Z"/><path class="cls-2" d="M136.1,150.8h-4.94V131.3l-7.52,6.58-7.52-6.58.23,19.5h-5.17V120.72l12.45,11,12.46-11Z"/><path d="M213.39,140.23l-6,10.52h-6.56l9.58-15.09L201.14,121h6.56l5.69,10.36L219.17,121h6.55l-9.23,14.67L226,150.75h-6.55Z"/><path d="M158.64,137.68h-4.92v7.94h4.92v5.26H148.21v-13.2h-4.07v-4.74h4.06V120.86h10.44v5.26h-4.92v6.82h4.92Zm.17,0h-.17v-4.74h.17a3.75,3.75,0,0,0,3.62-3.45,3.54,3.54,0,0,0-3.62-3.37h-.17v-5.26h.17c7.33,0,9.23,5.87,9.23,8.54a6.51,6.51,0,0,1-3.11,5.52c2.76.78,4.75,3.54,4.75,7,0,2.07-1.82,9-10.79,9h-.26v-5.26h.17c2.94,0,4.75-1.89,4.75-3.88s-1.38-4.06-4.75-4.06"/><path d="M187.47,145.54a9.66,9.66,0,1,1,0-19.33v-5.86h-.17a15.53,15.53,0,1,0,0,31.05h.17v0a15.53,15.53,0,0,0,0-31.05v5.86a9.66,9.66,0,1,1,0,19.33Z"/><path class="cls-2" d="M56.47,175.23v1.66H42.52V155.72H56.28v1.66h-12v7.38H54v1.6H44.24v8.86H56.47Z"/><path class="cls-2" d="M68.29,167.19s-.76,1.12-1.36,2l-6,7.75H58.83l8.38-11-7.69-10.14h2.15l5.27,6.93c.3.49,1.33,2,1.36,2h0s1-1.48,1.36-2l5.24-6.93h2.15l-7.65,10.14,8.38,11H75.65l-6-7.75c-.63-.85-1.33-2-1.36-2h0Z"/><path class="cls-2" d="M95.34,155.72v1.66H88.08V176.9H86.32V157.38H79.1v-1.66H95.34Z"/><path class="cls-2" d="M105.2,167.19c3.84,0,5.9-2,5.9-4.93,0-3.12-2.27-4.87-5.9-4.87h-4.39v9.81h4.39Zm6.38,9.71-5.05-8.26a11,11,0,0,1-1.42.09h-4.3v8.17H99.09V155.72h6c4.84,0,7.77,2.51,7.77,6.54a5.94,5.94,0,0,1-4.6,6l5.26,8.59h-2Z"/><path class="cls-2" d="M130.77,169.18l-3.9-8.93c-.45-1.08-.94-2.45-1-2.45h0s-.51,1.37-1,2.45l-3.9,8.93Zm.7,1.54H120.3l-2.7,6.17H115.7l9.41-21.18h1.54l9.41,21.18h-1.91l-2.69-6.17Z"/></g></g></g></g></svg>