<svg xmlns="http://www.w3.org/2000/svg" viewBox="0 0 283.46 283.46"><defs><style>.cls-1{fill:#00355f;}.cls-2{fill:#fff;}</style></defs><g id="Layer_2" data-name="Layer 2"><g id="Travel_Lifestyle" data-name="Travel &amp; Lifestyle"><g id="fineliving"><rect class="cls-1" width="283.46" height="283.46"/><g id="logo"><path class="cls-2" d="M42.52,97.71v88.05H240.94v-88Zm4,3.83H236.92v80.38H46.56Z"/><path class="cls-2" d="M228.68,138.26H195.3V107.63h33.38V114H202.33v5.72h24.33v6.13H202.33v6.08h26.35v6.35"/><path class="cls-2" d="M229,175.44H206.32c-4.5,0-7.91-1.64-10.13-5.4-1.49-2.51-1.69-4.81-1.69-9.91,0-5.74.47-8,1.8-10.09a11.08,11.08,0,0,1,9.93-5.23H228v6.35H206.43c-4.3,0-4.9,4.27-4.9,8.78,0,5.63,1,9.25,5.27,9.25h15.36v-5.73H207.31v-6.05H229v18"/><path class="cls-2" d="M190.16,138.26H178.51L159.07,114h-.54v24.3h-7V107.63h11.28L182.55,132h.57V107.63h7v30.63"/><path class="cls-2" d="M146.15,138.26V107.63h-7v30.63Z"/><path class="cls-2" d="M190.16,175.47H178.51l-19.22-24.3h-.76v24.3h-7V144.8h11.28l19.57,24.39h.78V144.8h7v30.67"/><path class="cls-2" d="M134.55,114H108.22v5.94h24.32V126H108.22v12.3h-7V107.63h33.37V114"/><path class="cls-2" d="M146.15,175.37V144.8h-7v30.57Z"/><path class="cls-2" d="M136.06,144.8l-12.53,30.67H113L100.24,144.8h7.41l7.4,17.75,2.73,6.76h.76l2.71-6.76,7.41-17.75h7.4"/><path class="cls-2" d="M97.18,175.37V144.8H90.13v30.57Z"/><path class="cls-2" d="M86.05,169.08v6.29H55V144.8h7v24.28h24"/></g></g></g></g></svg>