<svg xmlns="http://www.w3.org/2000/svg" xmlns:xlink="http://www.w3.org/1999/xlink" viewBox="0 0 283.46 283.46"><defs><style>.cls-1{fill:url(#linear-gradient);}.cls-2{fill:#fff;}</style><linearGradient id="linear-gradient" x1="141.73" x2="141.73" y2="283.46" gradientUnits="userSpaceOnUse"><stop offset="0" stop-color="#21592a"/><stop offset="1" stop-color="#20466d"/></linearGradient></defs><title>fishingandhunting</title><g id="Layer_2" data-name="Layer 2"><g id="Sport"><g id="fishingandhunting"><rect class="cls-1" width="283.46" height="283.46"/><g id="logo"><path class="cls-2" d="M87.71,42.52A11.39,11.39,0,0,0,76.35,53.87v139.4a11.38,11.38,0,0,0,11.36,11.35h108a11.38,11.38,0,0,0,11.37-11.35V53.87a11.4,11.4,0,0,0-11.38-11.35h-108Zm0,3.41h108a7.94,7.94,0,0,1,8,7.95V134q-11.08-7.12-22.16-14.23c-.1-5.32-2.2-10.4-4.9-14.91,3.23-1.75,5.54-5.46,4.67-9.17h0c-3.71.06-6.15,3.16-8.67,5.42h0a.9.9,0,0,1-.84.36c-.32,0-.67-.11-1-.14-9.14-1.28-18.28-3-27.55-2.75-6.4.17-12.84.66-19.24.27a23.63,23.63,0,0,1-5.94-1.08,9.91,9.91,0,0,1-6.47-9.48,26.78,26.78,0,0,1,1.87-8.35,15.64,15.64,0,0,0,10.43-3.23h0a54.39,54.39,0,0,0-10.19-2.61,13.84,13.84,0,0,1,4.31-3c1.81-.64,3.7.17,5.49.5A67.31,67.31,0,0,0,151,73.31a50.77,50.77,0,0,0,13.12-3.54,25.21,25.21,0,0,0,10.16-7.59,15.08,15.08,0,0,0,3.06-10.26h0v-.06l0,.06h0a24.3,24.3,0,0,1-8,10.78c-4.84,3.84-11,6.39-17.21,6,4.13-3.16,7.5-8,7.6-13.39v0l0,0c-3.77,5.42-8.16,10.93-14.37,13.61-3.87,1.39-8.37,1.58-12.1-.31-.11-.06-.23-.11-.33-.17a.43.43,0,0,1-.2-.26,12.73,12.73,0,0,0,8.54-10.74v0l0,0a47.4,47.4,0,0,1-9.42,7.45,13.9,13.9,0,0,1-15.44-1,7.92,7.92,0,0,1-2.77-5.34,12.52,12.52,0,0,1,.88-6.1v0h0a6.84,6.84,0,0,0-3.9,5.52,12.46,12.46,0,0,0,.68,5.51.18.18,0,0,1-.1.07H111l-.26-.06h0a18.08,18.08,0,0,1-8.18-4.19A8.8,8.8,0,0,1,100,50.92v-.06l0,0a9.81,9.81,0,0,0-1.82,8,9.75,9.75,0,0,0,4.32,5.6c3.19,2.11,7,3.07,10.66,3.79a15.16,15.16,0,0,1-4.07,4,8,8,0,0,0-.63.5.82.82,0,0,1-.71.21A55.08,55.08,0,0,0,85.9,71.93h0c-.37,1.33-.73,2.65-1,4h0C89,78.47,93.19,81,97.34,83.55c-2.86,6.07-4.91,12.75-4.66,19.53a49.83,49.83,0,0,0,2.55,12.68,22.6,22.6,0,0,0,4.06,7.36c-6.5,4.86-13.07,9.63-19.54,14.49V53.87a7.94,7.94,0,0,1,8-7.95ZM99.64,74.59a1.79,1.79,0,0,1,.44,0,2.18,2.18,0,0,1,.81.38,2.12,2.12,0,1,1-3.34,1.41h0a2.24,2.24,0,0,1,1.65-1.77,1.68,1.68,0,0,1,.44-.07ZM146.17,120c12.34,0,24.54,2.84,36,7.27a132.63,132.63,0,0,1,21.53,10.68v55.33a7.93,7.93,0,0,1-8,7.95H87.7a7.93,7.93,0,0,1-7.95-7.95v-50A117.87,117.87,0,0,1,91,135.88C107.72,126.2,126.77,120.14,146.17,120Z"/><path class="cls-2" d="M144.18,124,143,124a89.16,89.16,0,0,0-27,5.29,96.92,96.92,0,0,0-25,12.81h0l0,0h0c7.69-.23,15.12,2.92,21.17,7.5h0a51.08,51.08,0,0,1,12.59-14.22,30.06,30.06,0,0,1,19.87-5.18,27.3,27.3,0,0,1,18.25,8.7,8.65,8.65,0,0,1,1.45,6.91,11.82,11.82,0,0,1-4,6,22.15,22.15,0,0,1-9.61,4.56c-6,1-12.4.29-18.09,2.92A34.51,34.51,0,0,0,115,178.65h0c6.21,4.7,13.82,8.4,21.79,7.84a42.14,42.14,0,0,0,21.47-7c3.5.8,7,1.94,10.68,1.92,4.24,0,8.66-2.52,10.06-6.66v0h0c-4.62-1.28-9.32-2.19-14-3.06l-.1-.07-.08-.06a103,103,0,0,0,8-8c4.29-4.51,6.43-10.53,8.28-16.31a5.2,5.2,0,0,0,.21-.77.78.78,0,0,1,.16-.32.44.44,0,0,1,.32-.14h0a41.25,41.25,0,0,0,5.9-2,5.6,5.6,0,0,0,3.22-3.8,6.72,6.72,0,0,0-1.42-5.23h0c-3.34,1.76-6.61,3.69-10,5.45-1.57-3.6-4.55-6.3-7.68-8.53a45.77,45.77,0,0,0-19.56-7.4,62.68,62.68,0,0,0-8-.49Zm-13.73,47a3,3,0,0,1,2.94,2.58,2.57,2.57,0,0,1-.82,2.19,3.09,3.09,0,0,1-2.21.88,3,3,0,0,1-3.13-2.5,2.92,2.92,0,0,1,2.64-3.11l.3,0h.28Z"/><path class="cls-2" d="M162.37,140V140a8.34,8.34,0,0,1-1.77,6.88c-3.1,3.4-8,4.15-12.36,4.27h0c-.08,1.45-.41,2.83-.5,4.28v0h0a17.69,17.69,0,0,0,9.62-3.41,14.61,14.61,0,0,0,5.3-5.58,6.64,6.64,0,0,0-.27-6.47l0,0Z"/><path class="cls-2" d="M78.89,218.43v9.44H81v-4.26h3.48v-1.33H81v-2.51h4.18v-1.33H78.89Z"/><path class="cls-2" d="M86.86,218.43v9.45H89v-9.45Z"/><path class="cls-2" d="M93.38,218.23a3.08,3.08,0,0,0-2,.72,2.51,2.51,0,0,0-.93,2A2.7,2.7,0,0,0,91.53,223h0a12.81,12.81,0,0,0,1.52.94,10.56,10.56,0,0,1,1.37.85h0a1,1,0,0,1,.53.88.78.78,0,0,1-.35.69,1.52,1.52,0,0,1-.92.26,2.06,2.06,0,0,1-1-.26h0a1.59,1.59,0,0,1-.72-.7h0v0a2.4,2.4,0,0,1-.17-1.05v-.44H90.5v.44a3.54,3.54,0,0,0,.54,2h0a2.9,2.9,0,0,0,1.07,1h0a3.16,3.16,0,0,0,1,.29,4.25,4.25,0,0,0,.72,0,3.35,3.35,0,0,0,2.15-.72h0a2.71,2.71,0,0,0,1-2.09,2.61,2.61,0,0,0-.28-1.16,3.29,3.29,0,0,0-1.15-1.23,12.53,12.53,0,0,0-1.35-.76,8.19,8.19,0,0,1-1.73-1.17.66.66,0,0,1-.17-.44.69.69,0,0,1,.31-.6h0a1.15,1.15,0,0,1,.75-.27h0a1.76,1.76,0,0,1,1.07.29h0a2.1,2.1,0,0,1,.68,1.44l.06.36h1.21l0-.46a4.07,4.07,0,0,0-.34-1.43h0a2.54,2.54,0,0,0-.81-1,3.25,3.25,0,0,0-1.86-.56h0Z"/><path class="cls-2" d="M98.26,218.43V219l0,8.84h2.07v-4.13h3.11v4.13h2.07v-9.45h-2.07v4h-3.11v-4H98.26Z"/><path class="cls-2" d="M107.7,218.43v9.45h2.09v-9.45Z"/><path class="cls-2" d="M112,218.43v9.45h1.43v-6l5,6.1h.85v-9.58h-1.41v5.64l-4.6-5.64H112Z"/><path class="cls-2" d="M125.11,218.05a4.52,4.52,0,0,0-2.43.67,4.57,4.57,0,0,0-1.75,1.83h0a5.46,5.46,0,0,0-.61,2.55,4.93,4.93,0,0,0,1,3s0,0,0,0a4.32,4.32,0,0,0,3.64,1.76,5.66,5.66,0,0,0,2.32-.53l0,0,1.41-.79.23-.12v-4.1h-3.25v1.61h.44a1.36,1.36,0,0,1,.51.07c.09,0,.11.06.13.09l0,.07,0,0v1.75a4.43,4.43,0,0,1-1.38.52,2.91,2.91,0,0,1-1.48-.39A2.22,2.22,0,0,1,123,225h0a4.49,4.49,0,0,1-.35-1.84c0-1.8.46-2.84,1.29-3.38a2.46,2.46,0,0,1,1.29-.36,2.64,2.64,0,0,1,1.28.32,4.76,4.76,0,0,1,1.27,1.29l.24.31.89-.54-.2-.36a5,5,0,0,0-1.66-1.85h0a3.64,3.64,0,0,0-1.91-.49Z"/><path class="cls-2" d="M147.13,218.43V219l0,8.84h2.08v-4.13h3.11v4.13h2.07v-9.45h-2.07v4h-3.11v-4h-2.09Z"/><path class="cls-2" d="M156.35,218.42v5.31a6.93,6.93,0,0,0,.22,2.26,3,3,0,0,0,1.31,1.58,4.58,4.58,0,0,0,2.27.5,4,4,0,0,0,2.28-.59,3.08,3.08,0,0,0,1.24-1.65,6.48,6.48,0,0,0,.21-1.93v-5.46h-1.43v5.4a5.35,5.35,0,0,1-.22,1.77,1.49,1.49,0,0,1-.79.76h0a2.59,2.59,0,0,1-1.22.29,1.57,1.57,0,0,1-1.43-.63,4.1,4.1,0,0,1-.33-1.91v-5.7h-2.09Z"/><path class="cls-2" d="M165.88,218.43v9.45h1.43v-6l5,6.1h.86v-9.58h-1.42v5.63l-4.6-5.63Z"/><path class="cls-2" d="M174.2,218.44v1.44l2.86,0v8h2.09v-8h2.92v-1.42H174.2Z"/><path class="cls-2" d="M183.16,218.43v9.45h2.09v-9.45Z"/><path class="cls-2" d="M187.44,218.43v9.45h1.43v-6l5,6.1h.86v-9.58h-1.42v5.63l-4.6-5.63Z"/><path class="cls-2" d="M200.56,218.05a4.53,4.53,0,0,0-2.43.67,4.61,4.61,0,0,0-1.75,1.83,5.43,5.43,0,0,0-.61,2.55,4.9,4.9,0,0,0,1,3,4.31,4.31,0,0,0,3.64,1.77,5.68,5.68,0,0,0,2.32-.53l1.44-.81.23-.12,0-4.1h-3.23v1.61h.44a1.35,1.35,0,0,1,.51.07c.09,0,.11.06.12.09l0,.07,0,0v1.75a4.4,4.4,0,0,1-1.38.52,2.91,2.91,0,0,1-1.47-.39,2.36,2.36,0,0,1-1-1.11,4.86,4.86,0,0,1-.33-1.85c0-1.8.46-2.84,1.29-3.38a2.46,2.46,0,0,1,1.29-.36,2.68,2.68,0,0,1,1.29.32,4.94,4.94,0,0,1,1.27,1.29l.24.31.89-.54-.21-.37a5.1,5.1,0,0,0-1.66-1.84h0a3.65,3.65,0,0,0-1.91-.49Z"/><path class="cls-2" d="M115.36,231a4.67,4.67,0,0,0-4.2,2.54,5.32,5.32,0,0,0-.59,2.5,4.94,4.94,0,0,0,1,3h0a4.32,4.32,0,0,0,3.66,1.76,4.39,4.39,0,0,0,3.92-2.42l.21-.37-.9-.54-.24.31a5.26,5.26,0,0,1-1.11,1.18h0a2.35,2.35,0,0,1-1.41.4,2.91,2.91,0,0,1-1.48-.38c-.86-.54-1.28-1.44-1.28-3a5.6,5.6,0,0,1,.35-2.18h0a2.15,2.15,0,0,1,2.23-1.55,2.62,2.62,0,0,1,1.26.31,4.49,4.49,0,0,1,1.27,1.3l.25.35.88-.63-.2-.32a5.06,5.06,0,0,0-1.66-1.84h0a3.52,3.52,0,0,0-1.91-.49Z"/><path class="cls-2" d="M120.18,231.37V232l0,8.83h2.07v-4.12h3.11v4.12h2.07v-9.44h-2.07v4h-3.11v-4h-2.09Z"/><path class="cls-2" d="M132.75,231.18l-.11.26-4,9.33,1.58,0,1.24-2.89h2.73l.41,1h0c.11.27.2.48.26.63s.11.28.09.21v0l.38,1h2.58l-4.34-9.62h-.78Zm0,3.51.8,1.91H132Z"/><path class="cls-2" d="M138.94,231.37v9.44h1.43v-6l5,6.1h.86v-9.57h-1.42V237l-4.6-5.63Z"/><path class="cls-2" d="M148.28,231.37v9.44h1.43v-6l5,6.1h.86v-9.57h-1.42V237l-4.6-5.63Z"/><path class="cls-2" d="M157.58,231.36v9.45h6.27v-1.34h-3.9a1.66,1.66,0,0,1-.25,0s0,0,0,0v-2.84h3.46v-1.33h-3.46v-2.51h4.16v-1.34h-6.27Z"/><path class="cls-2" d="M167.6,231.36l-2.09,0v9.42h6.15l.1-.3.35-1.11h-4.25l-.22,0,0,0c0,.07,0-.12,0-.48v-7.48Z"/><path class="cls-2" d="M133.77,208.93v1.23l1.7,0v4.82h1.61v-4.82h1.76v-1.2Z"/><path class="cls-2" d="M139.08,208.93v6h1.61v-2.47h1.5v2.47h1.59v-6h-1.59v2.37h-1.5v-2.37h-1.61Z"/><path class="cls-2" d="M144.7,208.92v6h4.1v-1.14h-2.5v-1.41h2.08v-1.14h-2.08v-1.16h2.5v-1.16Z"/><path class="cls-2" d="M137.61,218.24a2.68,2.68,0,0,0-1.67.54,2.33,2.33,0,0,0-1,2,4.86,4.86,0,0,0,.41,1.7,6.84,6.84,0,0,0-1.76,1.38,3,3,0,0,0-.76,1.89,2.14,2.14,0,0,0,.89,1.76,2.89,2.89,0,0,0,1.81.57,4.42,4.42,0,0,0,2.74-1.1,3.33,3.33,0,0,0,2.23,1.1,2.29,2.29,0,0,0,1.54-.54,2.87,2.87,0,0,0,.84-1.52l.07-.28-1-.73-.17.62a.84.84,0,0,1-.27.47.67.67,0,0,1-.47.14,1.9,1.9,0,0,1-1.2-.67,4.1,4.1,0,0,0,.91-1.89,3.93,3.93,0,0,0,0-1.87l-.1-.3H139.5l.19.58a2.21,2.21,0,0,1-.08,1.06h0a3.69,3.69,0,0,1-.67,1.21c-.38-.54-.75-1.11-1.11-1.72a7.32,7.32,0,0,0,1.07-.68h0a2.31,2.31,0,0,0,.85-1.74,1.88,1.88,0,0,0-.68-1.46,2.2,2.2,0,0,0-1.46-.51Zm0,1.32a.51.51,0,0,1,.39.18.63.63,0,0,1,.16.44,1.14,1.14,0,0,1-.29.77,2.47,2.47,0,0,1-.61.49,4.72,4.72,0,0,1-.32-1.18.62.62,0,0,1,.18-.49h0a.58.58,0,0,1,.47-.21ZM136,223.7a22.15,22.15,0,0,0,1.41,2.22,2.45,2.45,0,0,1-1.17.52,1,1,0,0,1-.84-.35,1.23,1.23,0,0,1-.33-.92,1.8,1.8,0,0,1,.93-1.47Z"/></g></g></g></g></svg>