<svg xmlns="http://www.w3.org/2000/svg" xmlns:xlink="http://www.w3.org/1999/xlink" viewBox="0 0 283.46 283.46"><defs><style>.cls-1{fill:url(#linear-gradient);}.cls-2{fill:#fff;}</style><linearGradient id="linear-gradient" x1="141.73" x2="141.73" y2="283.46" gradientUnits="userSpaceOnUse"><stop offset="0" stop-color="#21592a"/><stop offset="1" stop-color="#20466d"/></linearGradient></defs><g id="Layer_2" data-name="Layer 2"><g id="Sport"><g id="fishingandhunting"><rect class="cls-1" width="283.46" height="283.46"/><g id="logo"><path class="cls-2" d="M87.71,42.52A11.39,11.39,0,0,0,76.35,53.87V193.28a11.38,11.38,0,0,0,11.36,11.35h108a11.38,11.38,0,0,0,11.36-11.35V53.87a11.39,11.39,0,0,0-11.37-11.35h-108Zm0,3.41h108a7.94,7.94,0,0,1,8,7.94V134l-22.16-14.22c-.09-5.33-2.2-10.41-4.9-14.91,3.23-1.75,5.55-5.46,4.67-9.18h0c-3.71.06-6.15,3.16-8.68,5.42h0a.91.91,0,0,1-.84.36c-.32,0-.66-.11-1-.14-9.13-1.27-18.28-3-27.55-2.74-6.4.17-12.84.65-19.24.27a23.77,23.77,0,0,1-5.94-1.09,9.92,9.92,0,0,1-6.47-9.48,26.74,26.74,0,0,1,1.87-8.35,15.59,15.59,0,0,0,10.43-3.23h0a54.82,54.82,0,0,0-10.19-2.61,14.11,14.11,0,0,1,4.31-3c1.81-.63,3.71.18,5.49.51A67.33,67.33,0,0,0,151,73.31a50.68,50.68,0,0,0,13.12-3.54,25.2,25.2,0,0,0,10.16-7.59,15,15,0,0,0,3.06-10.26h0v-.06l0,.06h0a24.26,24.26,0,0,1-8,10.78c-4.85,3.84-11,6.39-17.21,6,4.13-3.16,7.5-8,7.6-13.4v0l0,0c-3.77,5.41-8.16,10.92-14.37,13.61-3.87,1.39-8.37,1.59-12.1-.31a3.41,3.41,0,0,1-.33-.17.41.41,0,0,1-.2-.26,12.73,12.73,0,0,0,8.55-10.74v0l0,0a47.06,47.06,0,0,1-9.41,7.45,13.92,13.92,0,0,1-15.45-1,7.92,7.92,0,0,1-2.77-5.34,12.6,12.6,0,0,1,.88-6.09l0,0h0A6.83,6.83,0,0,0,110.52,58a12.45,12.45,0,0,0,.68,5.51.17.17,0,0,1-.1.07.28.28,0,0,1-.13,0l-.26-.07h0a18,18,0,0,1-8.18-4.19A8.81,8.81,0,0,1,100,50.92v-.06l0,0a9.76,9.76,0,0,0-1.82,8,9.68,9.68,0,0,0,4.32,5.6c3.18,2.11,7,3.08,10.66,3.79a15.23,15.23,0,0,1-4.07,4c-.21.13-.41.34-.63.5a.79.79,0,0,1-.71.21A55.14,55.14,0,0,0,85.9,71.93h0c-.36,1.33-.73,2.65-1,4h0C89,78.47,93.19,81,97.34,83.55c-2.86,6.07-4.91,12.75-4.66,19.53a49.93,49.93,0,0,0,2.56,12.68,22.49,22.49,0,0,0,4.05,7.37c-6.49,4.86-13.06,9.62-19.54,14.48V53.87a7.94,7.94,0,0,1,8-7.94ZM99.64,74.59a1.64,1.64,0,0,1,.44,0,2.31,2.31,0,0,1,.81.38,2.26,2.26,0,0,1,.9,1.51,2.14,2.14,0,1,1-4.25-.09h0a2.24,2.24,0,0,1,1.66-1.77,1.31,1.31,0,0,1,.44-.07ZM146.17,120c12.34,0,24.54,2.84,36,7.27a132.84,132.84,0,0,1,21.54,10.68v55.33a7.93,7.93,0,0,1-8,7.95H87.7a7.93,7.93,0,0,1-8-7.95v-50A121.35,121.35,0,0,1,91,135.88C107.72,126.2,126.77,120.14,146.17,120Z"/><path class="cls-2" d="M144.18,124H143a89.2,89.2,0,0,0-27,5.29,96.84,96.84,0,0,0-25,12.81h0l0,0h0c7.69-.24,15.12,2.92,21.17,7.5h0a51.1,51.1,0,0,1,12.59-14.22,30.05,30.05,0,0,1,19.87-5.18,27.28,27.28,0,0,1,18.26,8.7,8.64,8.64,0,0,1,1.45,6.91,11.8,11.8,0,0,1-4,6,22.2,22.2,0,0,1-9.61,4.55c-6,1-12.4.29-18.09,2.93A34.47,34.47,0,0,0,115,178.65h0c6.21,4.71,13.82,8.4,21.79,7.84a42.11,42.11,0,0,0,21.48-7c3.5.8,7,1.94,10.67,1.92,4.24,0,8.66-2.52,10.06-6.66v0h0c-4.62-1.28-9.31-2.19-14-3.06l-.1-.07-.08-.06a103.84,103.84,0,0,0,8-8c4.29-4.51,6.42-10.53,8.28-16.31a5.77,5.77,0,0,0,.2-.77.69.69,0,0,1,.16-.32.44.44,0,0,1,.32-.14h0a41.21,41.21,0,0,0,5.9-2,5.63,5.63,0,0,0,3.22-3.8,6.74,6.74,0,0,0-1.42-5.23h0c-3.34,1.77-6.6,3.69-10,5.46-1.58-3.6-4.55-6.31-7.68-8.53a45.78,45.78,0,0,0-19.57-7.4,61.85,61.85,0,0,0-8-.48Zm-13.72,47a3,3,0,0,1,2.93,2.58,2.56,2.56,0,0,1-.82,2.19,3.12,3.12,0,0,1-2.21.89,3,3,0,0,1-3.12-2.51,2.91,2.91,0,0,1,2.64-3.11l.29,0Z"/><path class="cls-2" d="M162.37,140V140a8.29,8.29,0,0,1-1.77,6.87c-3.1,3.41-8,4.16-12.36,4.27h0c-.09,1.45-.42,2.82-.51,4.27v0h0a17.61,17.61,0,0,0,9.62-3.41,14.52,14.52,0,0,0,5.31-5.58,6.63,6.63,0,0,0-.27-6.47l0-.05Z"/><path class="cls-2" d="M78.89,218.43v9.44H81v-4.26h3.48v-1.33H81v-2.51h4.18v-1.34Z"/><path class="cls-2" d="M86.86,218.43v9.45H89v-9.45Z"/><path class="cls-2" d="M93.38,218.23a3.08,3.08,0,0,0-2,.72,2.52,2.52,0,0,0-.93,2,2.7,2.7,0,0,0,1.1,2.11h0a11.92,11.92,0,0,0,1.52.94,9.73,9.73,0,0,1,1.37.85h0a1,1,0,0,1,.53.88.77.77,0,0,1-.35.69,1.53,1.53,0,0,1-.91.26,2.06,2.06,0,0,1-1-.25h0a1.63,1.63,0,0,1-.72-.7h0v0a2.35,2.35,0,0,1-.18-1.05v-.44H90.5v.44a3.55,3.55,0,0,0,.54,2h0a2.76,2.76,0,0,0,1.07,1h0a3.08,3.08,0,0,0,1,.29,4.41,4.41,0,0,0,.72,0,3.32,3.32,0,0,0,2.15-.72h0a2.73,2.73,0,0,0,1-2.1,2.68,2.68,0,0,0-.28-1.16,3.32,3.32,0,0,0-1.15-1.22,11,11,0,0,0-1.35-.76,8.24,8.24,0,0,1-1.73-1.17.65.65,0,0,1-.18-.45.68.68,0,0,1,.32-.6h0a1.18,1.18,0,0,1,.76-.27h0a1.83,1.83,0,0,1,1.07.29h0a2.1,2.1,0,0,1,.68,1.44l.06.36h1.22l0-.46a4,4,0,0,0-.34-1.43h0a2.58,2.58,0,0,0-.81-1,3.28,3.28,0,0,0-1.86-.56h0Z"/><path class="cls-2" d="M98.26,218.43V219l0,8.84h2.07v-4.13h3.11v4.13h2.07v-9.45h-2.07v4h-3.11v-4Z"/><path class="cls-2" d="M107.7,218.43v9.45h2.09v-9.45Z"/><path class="cls-2" d="M112,218.43v9.45h1.44v-6l5,6.1h.86v-9.58h-1.41v5.64l-4.6-5.64Z"/><path class="cls-2" d="M125.11,218.05a4.75,4.75,0,0,0-4.18,2.5h0a5.47,5.47,0,0,0-.61,2.54,4.93,4.93,0,0,0,1,3h0a4.32,4.32,0,0,0,3.63,1.76,5.62,5.62,0,0,0,2.33-.53l0,0,1.4-.79.23-.12v-4.1h-3.25v1.6h.43a1.33,1.33,0,0,1,.51.08c.1,0,.11.06.13.09l0,.07h0v1.76a4.6,4.6,0,0,1-1.38.52,2.89,2.89,0,0,1-1.48-.39A2.19,2.19,0,0,1,123,225h0a4.54,4.54,0,0,1-.35-1.84c0-1.79.47-2.84,1.29-3.38a2.49,2.49,0,0,1,1.3-.36,2.73,2.73,0,0,1,1.28.32,4.91,4.91,0,0,1,1.27,1.29l.23.31.89-.54-.2-.36a4.9,4.9,0,0,0-1.66-1.84h0a3.6,3.6,0,0,0-1.9-.5Z"/><path class="cls-2" d="M147.13,218.43v9.45h2.08v-4.13h3.11v4.13h2.07v-9.45h-2.07v4h-3.11v-4Z"/><path class="cls-2" d="M156.35,218.42v5.32a6.89,6.89,0,0,0,.22,2.25,3,3,0,0,0,1.31,1.59,4.67,4.67,0,0,0,2.27.5,3.9,3.9,0,0,0,2.28-.6,3.11,3.11,0,0,0,1.24-1.64,6.73,6.73,0,0,0,.21-1.93v-5.46h-1.43v5.4a5.17,5.17,0,0,1-.23,1.77,1.44,1.44,0,0,1-.79.76h0a2.59,2.59,0,0,1-1.22.29,1.58,1.58,0,0,1-1.44-.63,4.15,4.15,0,0,1-.33-1.92v-5.7Z"/><path class="cls-2" d="M165.88,218.43v9.45h1.44v-6l5,6.1h.86v-9.58h-1.42v5.64l-4.59-5.64Z"/><path class="cls-2" d="M174.2,218.44v1.44l2.86,0v8h2.09v-8h2.92v-1.42Z"/><path class="cls-2" d="M183.16,218.43v9.45h2.09v-9.45Z"/><path class="cls-2" d="M187.44,218.43v9.45h1.43v-6l5,6.1h.86v-9.58h-1.42v5.64l-4.6-5.64Z"/><path class="cls-2" d="M200.56,218.05a4.72,4.72,0,0,0-4.17,2.5,5.35,5.35,0,0,0-.61,2.54,4.93,4.93,0,0,0,.95,3,4.31,4.31,0,0,0,3.64,1.77,5.62,5.62,0,0,0,2.33-.53l1.44-.81.23-.12,0-4.1h-3.23v1.6h.44a1.33,1.33,0,0,1,.51.08c.09,0,.11.06.12.09l0,.07v1.77a4.51,4.51,0,0,1-1.38.52,2.85,2.85,0,0,1-1.47-.39,2.39,2.39,0,0,1-1-1.11,5,5,0,0,1-.33-1.85c0-1.79.46-2.84,1.29-3.38a2.45,2.45,0,0,1,1.29-.36,2.77,2.77,0,0,1,1.29.32,5.07,5.07,0,0,1,1.26,1.29l.24.31.89-.54-.2-.37a5.12,5.12,0,0,0-1.66-1.83h0a3.63,3.63,0,0,0-1.91-.5Z"/><path class="cls-2" d="M115.36,231a4.67,4.67,0,0,0-4.19,2.53,5.28,5.28,0,0,0-.6,2.51,4.93,4.93,0,0,0,1,3h0a4.31,4.31,0,0,0,3.66,1.76,4.38,4.38,0,0,0,3.92-2.42l.21-.37-.9-.53-.24.31a5.38,5.38,0,0,1-1.11,1.18h0a2.35,2.35,0,0,1-1.41.4,2.91,2.91,0,0,1-1.48-.38c-.85-.53-1.27-1.44-1.27-3a5.59,5.59,0,0,1,.35-2.18h0a2.15,2.15,0,0,1,2.23-1.55,2.59,2.59,0,0,1,1.26.32,4.42,4.42,0,0,1,1.26,1.3l.25.35.89-.63-.21-.32a5,5,0,0,0-1.65-1.84h0a3.5,3.5,0,0,0-1.92-.49Z"/><path class="cls-2" d="M120.18,231.37V232l0,8.83h2.07v-4.12h3.11v4.12h2.07v-9.44h-2.07v4h-3.11v-4Z"/><path class="cls-2" d="M132.75,231.18l-.11.27-4,9.33,1.58.05,1.24-2.89h2.73l.41,1h0c.11.27.19.48.26.63s.1.28.09.2v0l.39,1h2.58l-4.34-9.62Zm.05,3.51.8,1.91H132Z"/><path class="cls-2" d="M138.94,231.37v9.44h1.43v-6l5,6.1h.86v-9.57h-1.42V237l-4.6-5.64Z"/><path class="cls-2" d="M148.28,231.37v9.44h1.43v-6l5,6.1h.86v-9.57h-1.42V237l-4.6-5.64Z"/><path class="cls-2" d="M157.58,231.36v9.45h6.27v-1.34h-3.91c-.16,0-.25,0-.24,0s0,0,0,0v-2.85h3.46v-1.33h-3.46v-2.51h4.16v-1.35Z"/><path class="cls-2" d="M167.6,231.36l-2.1,0v9.41h6.16l.1-.3.35-1.11h-4.25l-.22-.05,0,0c0,.08,0-.12,0-.48v-7.48Z"/><path class="cls-2" d="M133.77,208.93v1.22l1.7,0V215h1.61v-4.82h1.76v-1.2Z"/><path class="cls-2" d="M139.08,208.93v6h1.61v-2.47h1.5v2.47h1.59v-6h-1.59v2.37h-1.5v-2.37Z"/><path class="cls-2" d="M144.7,208.92v6h4.11v-1.15h-2.5v-1.4h2.08v-1.15h-2.08v-1.16h2.5v-1.16Z"/><path class="cls-2" d="M137.61,218.24a2.71,2.71,0,0,0-1.67.54,2.33,2.33,0,0,0-1,2,4.81,4.81,0,0,0,.41,1.7,7,7,0,0,0-1.76,1.37,3,3,0,0,0-.76,1.9,2.15,2.15,0,0,0,.89,1.76,2.87,2.87,0,0,0,1.81.57,4.43,4.43,0,0,0,2.74-1.1,3.31,3.31,0,0,0,2.23,1.1,2.3,2.3,0,0,0,1.54-.54,3,3,0,0,0,.84-1.53l.06-.28-1-.73-.17.62a.9.9,0,0,1-.27.47.68.68,0,0,1-.47.14,1.89,1.89,0,0,1-1.2-.67,4.12,4.12,0,0,0,.92-1.89,4,4,0,0,0,0-1.87l-.1-.29H139.5l.19.57a2.24,2.24,0,0,1-.08,1.07h0a3.9,3.9,0,0,1-.67,1.21c-.38-.55-.75-1.12-1.11-1.73a7.2,7.2,0,0,0,1.07-.67h0a2.32,2.32,0,0,0,.85-1.74,1.9,1.9,0,0,0-.68-1.46,2.2,2.2,0,0,0-1.46-.51Zm0,1.32a.53.53,0,0,1,.4.18.68.68,0,0,1,.15.45,1.13,1.13,0,0,1-.29.77,2.29,2.29,0,0,1-.61.49,5.14,5.14,0,0,1-.32-1.18.63.63,0,0,1,.19-.49h0a.58.58,0,0,1,.47-.21ZM136,223.7a22,22,0,0,0,1.41,2.21,2.48,2.48,0,0,1-1.17.52,1.06,1.06,0,0,1-.85-.35,1.2,1.2,0,0,1-.32-.92,1.79,1.79,0,0,1,.93-1.46Z"/></g></g></g></g></svg>