<svg xmlns="http://www.w3.org/2000/svg" viewBox="0 0 283.46 283.46"><defs><style>.cls-1{fill:#ee3424;}.cls-2{fill:#fff;}</style></defs><g id="Layer_2" data-name="Layer 2"><g id="Travel_Lifestyle" data-name="Travel &amp; Lifestyle"><g id="foodnetwork"><rect class="cls-1" width="283.46" height="283.46"/><g id="logo"><path class="cls-2" d="M156.53,159.62c8.72,0,9.93-16.76,9.93-22.76,0-4-.27-13.58-6.17-13.58-8.71,0-9.94,16.76-9.94,22.86C150.35,150.06,150.64,159.62,156.53,159.62Z"/><path class="cls-2" d="M197.09,147.27c0,2,.47,7,3.46,7,4.13,0,7.77-7,9-10.22h0c2.24-5.79,3-11.14,4.22-19.85a4.18,4.18,0,0,0-1.49-.28C202,123.94,197.09,138.93,197.09,147.27Z"/><path class="cls-2" d="M123.8,176.15c-1.37,0-2.25,1-2.3,2.62h4.62C126.07,177.11,125.19,176.15,123.8,176.15Z"/><path class="cls-2" d="M109.7,159.62c8.71,0,9.94-16.76,9.94-22.76,0-4-.28-13.58-6.18-13.58-8.72,0-9.93,16.76-9.93,22.86C103.53,150.06,103.81,159.62,109.7,159.62Z"/><path class="cls-2" d="M166.72,176.33c-1.59,0-2.34,1.25-2.34,3.91s.75,3.94,2.34,3.94,2.36-1.27,2.36-3.94S168.32,176.33,166.72,176.33Z"/><path class="cls-2" d="M55.69,191.14l0,0Z"/><path class="cls-2" d="M141.73,42.52A99.23,99.23,0,0,0,55.19,190.25c4.78-2.6,5.52-4.91,7.62-14.5.95-4.37,4.44-36.27,6.21-52l-6.12,0,.55-3.42,6.07,0,1-5.19c3.68-20.13,18.63-22.09,23.9-22,2.83,0,8.37,1.52,8.29,5.12,0,2.55-2.1,3.59-4.44,3.54-3.61-.07-5.24-2.35-6.94-5.3C85,99,83.71,113.53,83,120.25l7.82,0-.54,3.4-7.7,0c-2.27,21.72-4,39.8-5.75,48h0A29.44,29.44,0,0,1,57,193.3c-.12-.18-.23-.37-.34-.56a99.21,99.21,0,1,0,85.1-150.22ZM90,148.56c0-15.46,10.11-28.84,26.88-28.84,10.31,0,16.39,4.59,16.39,14.6,0,15.46-10.11,28.87-26.88,28.87C96,163.19,90,158.6,90,148.56Zm23.91,37.69H111v-7.79c0-1.63-.51-2.13-1.47-2.13a3.6,3.6,0,0,0-2.67,1.27v8.65H104v-12h2.63v1.29a6.58,6.58,0,0,1,3.68-1.51c2.39,0,3.55,1.57,3.55,4Zm9.86.21c-3.12,0-5.06-2.41-5.06-6.21s1.94-6.22,5.21-6.22,4.87,2.63,4.87,5.5v1.18H121.5c0,2.49,1.16,3.47,2.5,3.47a3.19,3.19,0,0,0,2.66-1.44l2.09,1.29A5.43,5.43,0,0,1,123.72,186.46Zm15.81-.15c-.79.07-1.48.16-2.27.16-2.12,0-2.94-1-2.94-2.77v-7.14h-1.65v-2.31h1.65V170.3h2.86v3.95h2.35v2.31h-2.35v6.79c0,.63.33.83,1,.83a5.94,5.94,0,0,0,1.31-.25Zm-2.76-37.75c0-15.46,10.11-28.84,26.88-28.84,10.33,0,16.4,4.59,16.4,14.6,0,15.46-10.1,28.87-26.87,28.87C142.87,163.19,136.77,158.6,136.77,148.56Zm18.11,37.69h-2.6l-1.75-7.48h-.06l-1.75,7.48h-2.58l-3.08-12h2.72l1.63,7.47h0l1.73-7.47h2.64l1.68,7.47h0l1.73-7.47H158Zm11.84.21c-3.25,0-5.2-2.4-5.2-6.22s1.95-6.21,5.2-6.21,5.22,2.42,5.22,6.21S170,186.46,166.72,186.46ZM182.59,177h-.52a3.42,3.42,0,0,0-2.66,1.93v7.29h-2.86v-12h2.62v2.06h.05a3.49,3.49,0,0,1,3.37-2.28Zm11.53,9.21-2.65-5.37L190,182.55v3.7h-2.86V169.6H190v9.28h.08l3.54-4.63h3.27l-3.53,4.48,3.78,7.52Zm18.81-23.06c-2.53,0-2.44-4-2.44-5.72,0-2,.19-4.68.65-9.92l-.19-.19c-3.37,6.75-9.93,15.83-18.36,15.83-6.73,0-9.55-7-9.55-12.84,0-14.7,11.62-30,27.83-30h3.36a123.8,123.8,0,0,0,1.4-17.6c0-1,0-2-1.12-2-.85,0-2.14.26-5.44,1.31l-.82-2.72a68.73,68.73,0,0,1,20.31-4c.84,0,1.13,0,1.13,1.4,0,8.62-6.48,53.1-6.48,57.59,0,1.23,0,2.82,1.23,2.82a35.07,35.07,0,0,0,5.72-1.77L231,158h0C225.09,160.85,217.9,163.19,212.93,163.19Z"/></g></g></g></g></svg>