<svg xmlns="http://www.w3.org/2000/svg" viewBox="0 0 283.46 283.46"><defs><style>.cls-1{fill:#f58500;}.cls-2{fill:#fff;}</style></defs><title>fox</title><g id="Layer_2" data-name="Layer 2"><g id="Fox_Networks" data-name="Fox Networks"><g id="fox"><rect class="cls-1" width="283.46" height="283.46"/><g id="logo"><path class="cls-2" d="M95.72,121.69H66.42c0,4,0,7.84,0,11.69H89.85c0,4.73,0,17.93,0,22.89l-23-.25,0,28.53-24.3,0,.06-85.76,51.35,0,1.79,22.9Z"/><path class="cls-2" d="M192.18,98.86l10.32,18,10.24-18s17.35.13,26.25.13L215.54,140l25.41,44.7-27,0L202,163.1l-12,21.57-26.6,0,26-44.64L165.1,98.84l27.08,0Z"/><path class="cls-2" d="M134.88,99.73c-14.6.79-28.62,8.77-35.54,22.42-7.38,12.13-6,31.8,2.19,43.11,9.19,12.26,22.22,19.24,37.83,18,15.92-.86,31.14-13.66,35.61-28.71a44.09,44.09,0,0,0-5.82-37.29c-8.33-11.42-20.63-16.95-34.27-17.51Zm.53,18h1.26c3.37,0,6.11,2.41,6.11,5.38l0,36.84c0,2.95-2.75,5.36-6.13,5.36h-1.25c-3.4,0-6.15-2.43-6.15-5.38l0-36.84c0-3,2.76-5.36,6.17-5.36Z"/></g></g></g></g></svg>