<svg xmlns="http://www.w3.org/2000/svg" viewBox="0 0 283.46 283.46"><defs><style>.cls-1{fill:#00b3f0;}.cls-2{fill:#fff;}</style></defs><title>france24</title><g id="Layer_2" data-name="Layer 2"><g id="News"><g id="france24"><rect class="cls-1" width="283.46" height="283.46"/><g id="logo"><path class="cls-1" d="M136.33,171.29c4.52,3,16.91,3,30.11-.17,16.42-3.9,29-11.16,27.9-16.23a3.64,3.64,0,0,0-1.66-2.19c-4.55-3.06-16.93-3-30.11.16s-24.43,8.66-27.29,13.45a3.77,3.77,0,0,0-.63,2.75,3.67,3.67,0,0,0,1.68,2.24"/><path class="cls-1" d="M240.94,240.94v-9.7c-9.94,3.68-19.35,6.9-28.28,9.7Z"/><path class="cls-1" d="M113.46,171.49a.21.21,0,0,1,.29.05.24.24,0,0,1,0,.32c-5.17,4.41-7.49,8.59-6.75,12.1a8,8,0,0,0,3.69,4.9c9.22,6.2,33.71,6.27,59.54.14,32.61-7.77,57.38-22.6,55.15-33.14-.77-3.5-4.56-6.25-11-7.87a.25.25,0,0,1,.09-.49c10.53,1.72,16.71,5.36,17.8,10.56.51,2.31-.07,4.86-1.68,7.52-6.72,11.23-30.43,23.34-59,30.13s-54.88,6.56-65.48-.57a9.86,9.86,0,0,1-4.53-6.08c-1.08-5.22,3-11.29,11.87-17.58m48.78-20.17c20-4.75,37.48-3.13,38.93,3.64a5.73,5.73,0,0,1-.94,4.15c-3.73,6.22-16.89,12.92-32.82,16.72-20,4.73-37.48,3.12-38.92-3.63s13.69-16.14,33.75-20.89m14.55,69c-40,9.5-77.15,9-92.38-1.21-3.71-2.5-6-5.51-6.69-9-1.16-5.47,1.72-11.82,8.3-18.37a.26.26,0,0,1,.31,0,.29.29,0,0,1,0,.35c-3.25,4.28-4.51,8.31-3.74,11.93.61,2.94,2.56,5.53,5.78,7.67,14,9.41,48.83,9.68,86.73.71,26.67-6.36,50.58-16.26,65.8-27.21V42.52H42.52V240.94H60.77a16.76,16.76,0,0,1-2.85-6.29,17,17,0,0,1-.35-3.42c0-4.9,2.1-10.14,6.26-15.64a.21.21,0,0,1,.29,0l.09.3c-2.34,4.31-3.12,8.37-2.34,12.1,1.13,5.35,5.4,9.69,12.12,13H177c1.35-.31,2.68-.59,4-.91,21.83-5.2,42.46-12.38,59.91-20.83V195c-16.37,10.35-39.05,19.33-64.15,25.28"/><path class="cls-2" d="M240.94,231.24v-12h0v12h0"/><path class="cls-2" d="M177,240.94h35.67c8.92-2.8,18.33-6,28.28-9.7v-12C223.49,227.66,202.86,234.84,181,240c-1.35.33-2.7.61-4,.91"/><path class="cls-2" d="M61.87,228c-.77-3.73,0-7.79,2.34-12.1l-.09-.29a.21.21,0,0,0-.29,0c-4.16,5.5-6.26,10.74-6.26,15.64a16,16,0,0,0,3.2,9.7H74c-6.72-3.27-11-7.61-12.13-13"/><path class="cls-2" d="M106.12,195.15c10.6,7.13,36.9,7.34,65.48.57s52.29-18.9,59-30.13c1.6-2.66,2.18-5.21,1.67-7.52-1.08-5.2-7.27-8.85-17.79-10.56a.26.26,0,0,0-.26.18.26.26,0,0,0,.17.31c6.42,1.62,10.21,4.37,11,7.87,2.23,10.54-22.54,25.37-55.15,33.14-25.84,6.13-50.32,6.07-59.55-.14A8,8,0,0,1,107,184c-.74-3.52,1.58-7.69,6.75-12.1a.23.23,0,0,0,0-.32.21.21,0,0,0-.29-.05c-8.85,6.29-12.94,12.36-11.86,17.57a9.85,9.85,0,0,0,4.53,6.09"/><path class="cls-2" d="M240.94,195v-9.82h0V195Z"/><path class="cls-2" d="M88.41,211.67c-3.22-2.14-5.17-4.74-5.78-7.67-.77-3.62.49-7.65,3.74-11.94a.29.29,0,0,0,0-.35.28.28,0,0,0-.31,0c-6.58,6.56-9.45,12.9-8.3,18.38.73,3.46,3,6.46,6.7,9,15.22,10.22,52.33,10.71,92.37,1.21,25.1-5.95,47.77-14.93,64.15-25.28v-9.83c-15.23,10.95-39.13,20.84-65.81,27.21-37.89,9-72.75,8.69-86.73-.71"/><path class="cls-2" d="M135.28,166.31c2.86-4.79,14.09-10.31,27.3-13.45s25.55-3.21,30.11-.15a3.61,3.61,0,0,1,1.65,2.19c1.05,5.07-11.48,12.33-27.9,16.23-13.21,3.14-25.6,3.2-30.11.17a3.68,3.68,0,0,1-1.68-2.24,3.8,3.8,0,0,1,.63-2.75m32.13,9.53c15.93-3.8,29.1-10.5,32.83-16.72a5.74,5.74,0,0,0,.93-4.16c-1.44-6.77-18.9-8.39-38.92-3.63s-35.15,14.13-33.74,20.89,18.88,8.36,38.91,3.63"/><path class="cls-2" d="M157.19,81.45h-.07l-7.26-14.1H142V93.76h7.28V79.31h.05L157,93.76h7.47V67.35h-7.27v14.1Zm23.37,6.34c-3.57,0-4.74-3.68-4.74-7.25s1.18-7.26,4.74-7.26c3.17,0,3.88,2.94,4,3.9H192c-.65-6.63-4.42-10.45-11.28-10.46-7.68,0-12.65,5.5-12.65,13.82,0,7.82,4.57,13.83,12.65,13.83a11,11,0,0,0,11.39-11H184.6c-.46,2.48-1.46,4.4-4,4.4M111.89,76.26c0-5.75-3.27-8.91-9.22-8.91H89.94V93.76H97.5v-9h2.61c.35.7,4.39,9,4.39,9h8.15s-4.6-9.12-5.3-10.39a7.57,7.57,0,0,0,4.55-7.11m-9.69,2.45H97.5V73.41h4.7c1.63,0,2.43.89,2.43,2.66s-.81,2.64-2.43,2.64m113.94-5.24V67.31H195.56V93.76h20.57V87.6H203.75v-4H214V77.46H203.75v-4h12.38ZM67.31,93.76H75.5V84.82h8.94V78.64H75.5V73.47H86.73V67.31H67.31V93.76Zm55.43-26.41-8.93,26.41h8l.92-3.5h8.11l1,3.5h8.13L131,67.35Zm1.55,17.41,2.53-9.46,2.63,9.46Z"/><path class="cls-2" d="M138.07,127.41V100.81H125.2L104.62,126.2v10.7H85.05v-.07c8.48-5.49,19.73-9.34,19.73-21.57,0-10.14-7.43-15-18.38-15-12.1,0-19.8,7.52-19.09,20.63H79.48c-.15-5.83,1.61-9.81,6.8-9.81,3,0,5.43,1.51,5.43,5.82,0,3.52-3.77,5.41-6.08,6.92-5.78,3.73-12.22,7.37-16,12.93a18.67,18.67,0,0,0-3.22,11.81h39v-9.5h19.18v9.5h13.46v-9.5h6.09V127.41h-6.09Zm-13.46,0h-11l11-13.37Z"/></g></g></g></g></svg>