<svg xmlns="http://www.w3.org/2000/svg" viewBox="0 0 283.46 283.46"><defs><style>.cls-1{fill:#00b3f0;}.cls-2{fill:#fff;}</style></defs><g id="Layer_2" data-name="Layer 2"><g id="News"><g id="france24"><rect class="cls-1" width="283.46" height="283.46"/><g id="logo"><path class="cls-1" d="M136.33,171.29c4.52,3.05,16.9,3,30.11-.16,16.42-3.91,29-11.17,27.9-16.24a3.64,3.64,0,0,0-1.65-2.19c-4.56-3.06-16.93-3-30.11.16s-24.44,8.66-27.29,13.45a3.74,3.74,0,0,0-.64,2.75,3.65,3.65,0,0,0,1.68,2.23"/><path class="cls-1" d="M240.94,240.94v-9.7c-9.94,3.68-19.35,6.89-28.28,9.7Z"/><path class="cls-1" d="M113.46,171.49a.2.2,0,0,1,.29,0,.23.23,0,0,1,0,.32c-5.17,4.41-7.48,8.59-6.75,12.1a8,8,0,0,0,3.69,4.9c9.23,6.2,33.71,6.27,59.55.14,32.61-7.77,57.37-22.6,55.15-33.14-.77-3.5-4.57-6.25-11-7.87a.27.27,0,0,1-.17-.31.27.27,0,0,1,.26-.18c10.53,1.72,16.72,5.36,17.8,10.56.51,2.31-.07,4.86-1.67,7.53-6.72,11.23-30.43,23.34-59,30.13s-54.88,6.56-65.48-.57a9.89,9.89,0,0,1-4.53-6.08c-1.08-5.22,3-11.29,11.87-17.58m48.78-20.17c20-4.76,37.49-3.13,38.93,3.64a5.69,5.69,0,0,1-.94,4.15c-3.73,6.22-16.88,12.92-32.81,16.72-20,4.73-37.48,3.12-38.92-3.62s13.69-16.14,33.74-20.89m14.55,69c-40,9.5-77.15,9-92.38-1.21-3.71-2.5-6-5.5-6.69-9-1.15-5.47,1.72-11.82,8.3-18.37a.27.27,0,0,1,.32,0,.29.29,0,0,1,0,.34c-3.25,4.29-4.51,8.31-3.74,11.93.61,2.94,2.56,5.53,5.78,7.67,14,9.41,48.83,9.68,86.73.72,26.67-6.36,50.58-16.26,65.8-27.21V42.52H42.52V240.94H60.77a16.08,16.08,0,0,1-3.2-9.7c0-4.9,2.1-10.15,6.26-15.65a.21.21,0,0,1,.29,0l.09.3c-2.34,4.3-3.12,8.37-2.34,12.1,1.13,5.35,5.4,9.69,12.13,13H177c1.34-.31,2.68-.58,4-.91,21.83-5.19,42.46-12.37,59.91-20.83V195c-16.37,10.35-39.05,19.33-64.15,25.28"/><path class="cls-2" d="M240.94,231.24V219.19h0v12h0"/><path class="cls-2" d="M177,240.94h35.68c8.92-2.81,18.33-6,28.27-9.7v-12C223.49,227.66,202.86,234.84,181,240c-1.35.33-2.69.6-4,.91"/><path class="cls-2" d="M61.87,228c-.77-3.73,0-7.79,2.34-12.1l-.09-.3a.21.21,0,0,0-.29,0c-4.16,5.5-6.26,10.74-6.26,15.65a17,17,0,0,0,.35,3.41,16.8,16.8,0,0,0,2.86,6.29H74c-6.73-3.27-11-7.61-12.13-13"/><path class="cls-2" d="M106.12,195.15c10.6,7.13,36.91,7.33,65.48.56s52.29-18.89,59-30.13c1.6-2.66,2.18-5.2,1.67-7.52-1.08-5.2-7.27-8.85-17.79-10.56a.26.26,0,0,0-.27.18.27.27,0,0,0,.17.31c6.42,1.62,10.21,4.37,11,7.87,2.22,10.54-22.54,25.37-55.15,33.14-25.84,6.13-50.32,6.06-59.55-.14A8,8,0,0,1,107,184c-.74-3.51,1.58-7.69,6.75-12.1a.23.23,0,0,0,0-.32c0-.1-.19-.1-.29,0-8.86,6.29-12.95,12.36-11.87,17.57a9.89,9.89,0,0,0,4.53,6.09"/><path class="cls-2" d="M240.94,195v-9.82h0V195Z"/><path class="cls-2" d="M88.41,211.67c-3.22-2.14-5.17-4.73-5.78-7.67-.77-3.62.49-7.64,3.74-11.93a.25.25,0,0,0-.35-.35c-6.58,6.56-9.45,12.91-8.3,18.38.73,3.47,3,6.47,6.7,9,15.22,10.22,52.33,10.71,92.37,1.22,25.1-5.95,47.77-14.94,64.15-25.28v-9.83c-15.22,10.95-39.13,20.85-65.81,27.21-37.89,9-72.75,8.69-86.72-.72"/><path class="cls-2" d="M135.28,166.31c2.87-4.79,14.09-10.31,27.3-13.46s25.55-3.2,30.11-.15a3.64,3.64,0,0,1,1.65,2.19c1,5.07-11.48,12.33-27.9,16.24-13.21,3.14-25.59,3.2-30.11.16a3.66,3.66,0,0,1-1.68-2.23,3.78,3.78,0,0,1,.63-2.75m32.13,9.52c15.94-3.8,29.1-10.5,32.83-16.72a5.75,5.75,0,0,0,.93-4.16c-1.44-6.76-18.9-8.39-38.93-3.63s-35.15,14.13-33.74,20.89,18.88,8.36,38.91,3.62"/><path class="cls-2" d="M157.19,81.45h-.08l-7.25-14.1H142V93.76h7.28V79.31h.06L157,93.76h7.47V67.35h-7.26v14.1Zm23.36,6.34c-3.56,0-4.74-3.68-4.74-7.25s1.18-7.26,4.74-7.26c3.17,0,3.89,2.94,4,3.9h7.46c-.66-6.63-4.42-10.45-11.28-10.46-7.68,0-12.65,5.5-12.65,13.82,0,7.82,4.57,13.83,12.65,13.83a11,11,0,0,0,11.39-11H184.6c-.46,2.48-1.45,4.39-4,4.39M111.89,76.26c0-5.75-3.28-8.91-9.22-8.91H89.94V93.76H97.5v-9h2.61l4.38,9h8.15s-4.6-9.12-5.3-10.4a7.57,7.57,0,0,0,4.55-7.1m-9.7,2.45H97.5v-5.3h4.69c1.63,0,2.44.89,2.44,2.66s-.81,2.64-2.44,2.64m113.94-5.24V67.31H195.56V93.76h20.57V87.6H203.75v-4H214V77.46H203.75v-4ZM67.31,93.76H75.5V84.82h8.94V78.64H75.5V73.47H86.73V67.31H67.31V93.76Zm55.43-26.41-8.93,26.41h8l.92-3.51h8.11l1,3.51H140L131,67.35Zm1.54,17.41,2.53-9.47,2.63,9.47Z"/><path class="cls-2" d="M138.07,127.41v-26.6H125.2L104.62,126.2v10.69H85.05v-.06c8.48-5.5,19.73-9.34,19.73-21.57,0-10.14-7.43-15-18.38-15-12.11,0-19.8,7.52-19.09,20.63H79.48c-.15-5.83,1.61-9.81,6.8-9.81,3,0,5.43,1.51,5.43,5.82,0,3.51-3.77,5.41-6.08,6.91-5.77,3.74-12.22,7.37-16,12.93a18.7,18.7,0,0,0-3.23,11.81h39v-9.5h19.18v9.5h13.46v-9.5h6.09V127.41Zm-13.46,0h-11l11-13.36Z"/></g></g></g></g></svg>