<?xml version="1.0" standalone="yes"?>
<svg xmlns="http://www.w3.org/2000/svg" width="1024" height="1024">
<path style="fill:#016fe9; stroke:none;" d="M0 0L0 1024L1024 1024L1024 0L0 0z"/>
<path style="fill:#5a89eb; stroke:none;" d="M200 446L169 478L191 457L200 446z"/>
<path style="fill:#d0d9f7; stroke:none;" d="M201 446L157 491L189 460L201 446z"/>
<path style="fill:#fefeff; stroke:none;" d="M202 447.028C189.474 453.291 177.888 470.111 168 480C165.324 482.676 158.245 487.584 159.346 492C160.542 496.798 167.627 501.627 171 505L202 536L233 567C235.946 569.946 241.136 577.562 246 575.248C253.39 571.732 260.242 561.758 266 556L310 512C314.349 507.651 328.793 497.471 328.793 491C328.793 484.102 312.677 472.677 308 468C301.514 461.514 294.256 451.156 286 447.028C280.897 444.476 272.579 446 267 446L223 446C216.922 446 207.545 444.255 202 447.028z"/>
<path style="fill:#d0d9f7; stroke:none;" d="M286 446L287 447L286 446M287 447L288 448L287 447M288 448L289 449L288 448M289 449L290 450L289 449M290 450L291 451L290 450M291 451L292 452L291 451M292 452L293 453L292 452M293 453L294 454L293 453M205 454L205 455L283 455L259 454L205 454M294 454L295 455L294 454z"/>
<path style="fill:#a3b6f1; stroke:none;" d="M204 455L169 491L195 466L204 455z"/>
<path style="fill:#016fe9; stroke:none;" d="M170 490L170 491C187.951 508.951 206.607 526.425 223.91 545C228.171 549.574 237.206 563.793 244 563.793C250.803 563.793 259.584 549.554 264.04 544.985C281.8 526.775 300.013 508.986 318 491C311.47 481.73 302.011 474.011 294 466C290.515 462.515 286.754 457.356 282 455.603C269.689 451.065 249.135 455 236 455C227.462 455 212.713 452.171 205 456.028C192.107 462.474 180.186 479.814 170 490z"/>
<path style="fill:#a3b6f1; stroke:none;" d="M283 455L284 456L283 455z"/>
<path style="fill:#d0d9f7; stroke:none;" d="M295 455L296 456L295 455z"/>
<path style="fill:#a3b6f1; stroke:none;" d="M284 456L285 457L284 456z"/>
<path style="fill:#d0d9f7; stroke:none;" d="M296 456L297 457L296 456z"/>
<path style="fill:#a3b6f1; stroke:none;" d="M285 457L286 458L285 457z"/>
<path style="fill:#d0d9f7; stroke:none;" d="M297 457L298 458L297 457z"/>
<path style="fill:#a3b6f1; stroke:none;" d="M286 458L287 459L286 458z"/>
<path style="fill:#d0d9f7; stroke:none;" d="M298 458L299 459L298 458z"/>
<path style="fill:#a3b6f1; stroke:none;" d="M287 459L288 460L287 459z"/>
<path style="fill:#d0d9f7; stroke:none;" d="M299 459L300 460L299 459z"/>
<path style="fill:#a3b6f1; stroke:none;" d="M288 460L289 461L288 460z"/>
<path style="fill:#d0d9f7; stroke:none;" d="M300 460L301 461L300 460z"/>
<path style="fill:#5a89eb; stroke:none;" d="M256 461L256 462L261 462L256 461z"/>
<path style="fill:#a3b6f1; stroke:none;" d="M289 461L290 462L289 461z"/>
<path style="fill:#d0d9f7; stroke:none;" d="M301 461L302 462L301 461z"/>
<path style="fill:#5a89eb; stroke:none;" d="M252 462L253 463L252 462z"/>
<path style="fill:#d0d9f7; stroke:none;" d="M253.667 462.333L254.333 462.667L253.667 462.333z"/>
<path style="fill:#fefeff; stroke:none;" d="M239 497L230 497L230 499L239 499L239 541L230 541L230 543L257 543L257 541L248 541L248 499L257 499L257 497L248 497C248 487.326 244.786 462.027 261 465C259.911 469.126 264.605 476.661 267.377 470.566C271.832 460.773 253.346 461.86 249.015 464.728C238.718 471.546 239 486.131 239 497z"/>
<path style="fill:#d0d9f7; stroke:none;" d="M262 462L263 463L262 462z"/>
<path style="fill:#a3b6f1; stroke:none;" d="M263 462L264 463L263 462M290 462L291 463L290 462z"/>
<path style="fill:#d0d9f7; stroke:none;" d="M302 462L303 463L302 462z"/>
<path style="fill:#a3b6f1; stroke:none;" d="M250 463L251 464L250 463z"/>
<path style="fill:#d0d9f7; stroke:none;" d="M264 463L265 464L264 463z"/>
<path style="fill:#a3b6f1; stroke:none;" d="M265 463L266 464L265 463M291 463L292 464L291 463z"/>
<path style="fill:#d0d9f7; stroke:none;" d="M303 463L304 464L303 463z"/>
<path style="fill:#a3b6f1; stroke:none;" d="M248 464L249 465L248 464z"/>
<path style="fill:#d0d9f7; stroke:none;" d="M255 464L256 465L255 464z"/>
<path style="fill:#a3b6f1; stroke:none;" d="M256 464L256 465L260 465L256 464M266 464L267 465L266 464M292 464L293 465L292 464z"/>
<path style="fill:#d0d9f7; stroke:none;" d="M304 464L305 465L304 464M247 465L248 466L247 465M253 465L254 466L253 465z"/>
<path style="fill:#5a89eb; stroke:none;" d="M254 465L255 466L254 465z"/>
<path style="fill:#d0d9f7; stroke:none;" d="M260 465L261 466L260 465z"/>
<path style="fill:#a3b6f1; stroke:none;" d="M267 465L268 466L267 465M293 465L294 466L293 465z"/>
<path style="fill:#d0d9f7; stroke:none;" d="M305 465L306 466L305 465M246 466L247 467L246 466z"/>
<path style="fill:#a3b6f1; stroke:none;" d="M252 466L253 467L252 466z"/>
<path style="fill:#5a89eb; stroke:none;" d="M259 466L260 467L259 466z"/>
<path style="fill:#a3b6f1; stroke:none;" d="M294 466L295 467L294 466z"/>
<path style="fill:#d0d9f7; stroke:none;" d="M306 466L307 467L306 466M245 467L246 468L245 467M251 467L252 468L251 467M259.333 467.667L259.667 468.333L259.333 467.667z"/>
<path style="fill:#5a89eb; stroke:none;" d="M268 467L269 468L268 467z"/>
<path style="fill:#a3b6f1; stroke:none;" d="M295 467L296 468L295 467z"/>
<path style="fill:#d0d9f7; stroke:none;" d="M307 467L308 468L307 467z"/>
<path style="fill:#a3b6f1; stroke:none;" d="M244 468L245 469L244 468z"/>
<path style="fill:#5a89eb; stroke:none;" d="M251 468L252 469L251 468z"/>
<path style="fill:#d0d9f7; stroke:none;" d="M268.333 468.667L268.667 469.333L268.333 468.667z"/>
<path style="fill:#a3b6f1; stroke:none;" d="M296 468L297 469L296 468M308 468L309 469L308 468z"/>
<path style="fill:#fefeff; stroke:none;" d="M347 468L347 553L362 553L362 518L405 518L405 505L362 505L362 481L411 481L411 468L347 468z"/>
<path style="fill:#5a89eb; stroke:none;" d="M423 468L423 482L424 482L423 468z"/>
<path style="fill:#fefeff; stroke:none;" d="M424 468L424 481L451 481L451 553L466 553L466 501C466 496.41 464.095 486.112 467.603 482.603C471.913 478.294 487.193 481 493 481L493 468L424 468z"/>
<path style="fill:#a3b6f1; stroke:none;" d="M493 468L493 482L494 482L493 468z"/>
<path style="fill:#5a89eb; stroke:none;" d="M505 468L506 469L505 468z"/>
<path style="fill:#fefeff; stroke:none;" d="M506 468C514.206 489.158 523.314 509.956 531.799 531C533.971 536.385 536.941 550.726 542.418 553.397C554.135 559.109 557.544 545.764 560.85 538C570.086 516.317 584.884 491.164 589 468L574.51 469.028L566.424 487L548 534L529.576 487L521.49 469.028L506 468z"/>
<path style="fill:#a3b6f1; stroke:none;" d="M522 468L523 469L522 468M573 468L574 469L573 468z"/>
<path style="fill:#d0d9f7; stroke:none;" d="M589 468L590 469L589 468z"/>
<path style="fill:#a3b6f1; stroke:none;" d="M612 468L613 469L612 468z"/>
<path style="fill:#fefeff; stroke:none;" d="M683 468L674 468C669.752 488.578 665.213 522.6 649.907 537.907C638.468 549.345 614.387 550.427 608.942 532C606.748 524.575 609.325 517.206 611.127 510C614.63 495.987 619.079 482.149 622 468C609.889 468.009 610.853 477.014 608 487C603.383 503.158 592.876 527.214 603.133 542.985C613.879 559.507 643.161 557.536 655.91 544.907C669.105 531.835 672.003 511.264 676.374 494C678.563 485.357 681.807 476.858 683 468z"/>
<path style="fill:#a3b6f1; stroke:none;" d="M622 468L623 469L622 468z"/>
<path style="fill:#5a89eb; stroke:none;" d="M673 468L674 469L673 468z"/>
<path style="fill:#a3b6f1; stroke:none;" d="M683 468L684 469L683 468z"/>
<path style="fill:#5a89eb; stroke:none;" d="M708 468L709 469L708 468z"/>
<path style="fill:#fefeff; stroke:none;" d="M709 468L687 553L696 553C697.826 544.155 699.865 522.823 706.563 516.603C709.612 513.772 716.18 515 720 515L755 515L745 553C757.57 552.99 757.243 542.507 759.873 532C765.232 510.594 772.069 489.507 777 468C762.526 468.011 759.675 493.572 758 506L708 506L718 468L709 468z"/>
<path style="fill:#a3b6f1; stroke:none;" d="M718.333 468.667L718.667 469.333L718.333 468.667z"/>
<path style="fill:#d0d9f7; stroke:none;" d="M767.333 468.667L767.667 469.333L767.333 468.667z"/>
<path style="fill:#5a89eb; stroke:none;" d="M777 468L778 469L777 468z"/>
<path style="fill:#a3b6f1; stroke:none;" d="M803 468L804 469L803 468z"/>
<path style="fill:#fefeff; stroke:none;" d="M781 553C811.912 553 854.468 556.12 864.841 518C866.223 512.921 867.254 507.274 866.91 502C865.298 477.309 844.189 468.036 822 468C817.663 467.993 808.307 466.244 804.728 469.028C800.207 472.544 799.004 486.559 797.626 492C792.475 512.336 787.389 533.021 781 553z"/>
<path style="fill:#d0d9f7; stroke:none;" d="M830 468L830 469L833 469L830 468z"/>
<path style="fill:#a3b6f1; stroke:none;" d="M833.667 468.333L834.333 468.667L833.667 468.333z"/>
<path style="fill:#5a89eb; stroke:none;" d="M835.667 468.333L836.333 468.667L835.667 468.333M243 469L244 470L243 469z"/>
<path style="fill:#a3b6f1; stroke:none;" d="M250 469L251 470L250 469M259.333 469.667L259.667 470.333L259.333 469.667M297 469L298 470L297 469M309 469L310 470L309 469z"/>
<path style="fill:#d0d9f7; stroke:none;" d="M506 469L507 470L506 469z"/>
<path style="fill:#a3b6f1; stroke:none;" d="M589 469L590 470L589 469z"/>
<path style="fill:#d0d9f7; stroke:none;" d="M612 469L613 470L612 469z"/>
<path style="fill:#5a89eb; stroke:none;" d="M622 469L623 470L622 469z"/>
<path style="fill:#a3b6f1; stroke:none;" d="M673 469L674 470L673 469z"/>
<path style="fill:#5a89eb; stroke:none;" d="M683 469L684 470L683 469z"/>
<path style="fill:#a3b6f1; stroke:none;" d="M708 469L709 470L708 469z"/>
<path style="fill:#d0d9f7; stroke:none;" d="M803 469L804 470L803 469M837.667 469.333L838.333 469.667L837.667 469.333z"/>
<path style="fill:#a3b6f1; stroke:none;" d="M839 469L840 470L839 469z"/>
<path style="fill:#5a89eb; stroke:none;" d="M840 469L841 470L840 469z"/>
<path style="fill:#d0d9f7; stroke:none;" d="M243 470L244 471L243 470z"/>
<path style="fill:#5a89eb; stroke:none;" d="M250 470L251 471L250 470z"/>
<path style="fill:#a3b6f1; stroke:none;" d="M268 470L269 471L268 470M298 470L299 471L298 470M310 470L311 471L310 470M506 470L507 471L506 470z"/>
<path style="fill:#5a89eb; stroke:none;" d="M523 470L524 471L523 470z"/>
<path style="fill:#a3b6f1; stroke:none;" d="M572 470L573 471L572 470z"/>
<path style="fill:#d0d9f7; stroke:none;" d="M621.333 470.667L621.667 471.333L621.333 470.667M673 470L674 471L673 470M708.333 470.667L708.667 471.333L708.333 470.667z"/>
<path style="fill:#5a89eb; stroke:none;" d="M766 470L767 471L766 470z"/>
<path style="fill:#d0d9f7; stroke:none;" d="M776 470L777 471L776 470M841.667 470.333L842.333 470.667L841.667 470.333z"/>
<path style="fill:#5a89eb; stroke:none;" d="M843 470L844 471L843 470z"/>
<path style="fill:#a3b6f1; stroke:none;" d="M242 471L243 472L242 471z"/>
<path style="fill:#d0d9f7; stroke:none;" d="M249 471L250 472L249 471M260 471L261 472L260 471z"/>
<path style="fill:#5a89eb; stroke:none;" d="M268 471L269 472L268 471z"/>
<path style="fill:#a3b6f1; stroke:none;" d="M299 471L300 472L299 471M311 471L312 472L311 471z"/>
<path style="fill:#d0d9f7; stroke:none;" d="M507 471L508 472L507 471M523 471L524 472L523 471M572 471L573 472L572 471z"/>
<path style="fill:#a3b6f1; stroke:none;" d="M588 471L589 472L588 471z"/>
<path style="fill:#5a89eb; stroke:none;" d="M611 471L612 472L611 471z"/>
<path style="fill:#d0d9f7; stroke:none;" d="M682 471L683 472L682 471M717 471L718 472L717 471z"/>
<path style="fill:#a3b6f1; stroke:none;" d="M766 471L767 472L766 471M776 471L777 472L776 471z"/>
<path style="fill:#5a89eb; stroke:none;" d="M802 471L803 472L802 471z"/>
<path style="fill:#a3b6f1; stroke:none;" d="M845 471L846 472L845 471z"/>
<path style="fill:#5a89eb; stroke:none;" d="M846 471L847 472L846 471z"/>
<path style="fill:#d0d9f7; stroke:none;" d="M242 472L243 473L242 472z"/>
<path style="fill:#a3b6f1; stroke:none;" d="M249 472L250 473L249 472z"/>
<path style="fill:#d0d9f7; stroke:none;" d="M261 472L262 473L261 472M266 472L267 473L266 472z"/>
<path style="fill:#5a89eb; stroke:none;" d="M267 472L268 473L267 472z"/>
<path style="fill:#a3b6f1; stroke:none;" d="M300 472L301 473L300 472M312 472L313 473L312 472M507 472L508 473L507 472z"/>
<path style="fill:#5a89eb; stroke:none;" d="M524 472L525 473L524 472M571 472L572 473L571 472M588 472L589 473L588 472z"/>
<path style="fill:#a3b6f1; stroke:none;" d="M611 472L612 473L611 472M621 472L622 473L621 472z"/>
<path style="fill:#5a89eb; stroke:none;" d="M672 472L673 473L672 472z"/>
<path style="fill:#a3b6f1; stroke:none;" d="M682 472L683 473L682 472z"/>
<path style="fill:#5a89eb; stroke:none;" d="M707 472L708 473L707 472z"/>
<path style="fill:#a3b6f1; stroke:none;" d="M717 472L718 473L717 472z"/>
<path style="fill:#d0d9f7; stroke:none;" d="M766 472L767 473L766 472z"/>
<path style="fill:#5a89eb; stroke:none;" d="M776 472L777 473L776 472z"/>
<path style="fill:#a3b6f1; stroke:none;" d="M802 472L803 473L802 472z"/>
<path style="fill:#d0d9f7; stroke:none;" d="M847 472L848 473L847 472z"/>
<path style="fill:#5a89eb; stroke:none;" d="M848 472L849 473L848 472z"/>
<path style="fill:#a3b6f1; stroke:none;" d="M241 473L242 474L241 473z"/>
<path style="fill:#5a89eb; stroke:none;" d="M262 473L263 474L262 473z"/>
<path style="fill:#a3b6f1; stroke:none;" d="M263.667 473.333L264.333 473.667L263.667 473.333z"/>
<path style="fill:#5a89eb; stroke:none;" d="M265 473L266 474L265 473z"/>
<path style="fill:#a3b6f1; stroke:none;" d="M301 473L302 474L301 473M313 473L314 474L313 473z"/>
<path style="fill:#5a89eb; stroke:none;" d="M507 473L508 474L507 473z"/>
<path style="fill:#a3b6f1; stroke:none;" d="M524 473L525 474L524 473M571 473L572 474L571 473z"/>
<path style="fill:#d0d9f7; stroke:none;" d="M587 473L588 474L587 473M611 473L612 474L611 473z"/>
<path style="fill:#5a89eb; stroke:none;" d="M621 473L622 474L621 473z"/>
<path style="fill:#a3b6f1; stroke:none;" d="M672 473L673 474L672 473z"/>
<path style="fill:#5a89eb; stroke:none;" d="M682 473L683 474L682 473z"/>
<path style="fill:#a3b6f1; stroke:none;" d="M707 473L708 474L707 473z"/>
<path style="fill:#5a89eb; stroke:none;" d="M717 473L718 474L717 473z"/>
<path style="fill:#d0d9f7; stroke:none;" d="M775.333 473.667L775.667 474.333L775.333 473.667M802 473L803 474L802 473M849 473L850 474L849 473z"/>
<path style="fill:#5a89eb; stroke:none;" d="M850 473L851 474L850 473z"/>
<path style="fill:#d0d9f7; stroke:none;" d="M241 474L242 475L241 474M248.333 474.667L248.667 475.333L248.333 474.667z"/>
<path style="fill:#a3b6f1; stroke:none;" d="M302 474L303 475L302 474M314 474L315 475L314 474z"/>
<path style="fill:#d0d9f7; stroke:none;" d="M508 474L509 475L508 474M524 474L525 475L524 474M571 474L572 475L571 474z"/>
<path style="fill:#5a89eb; stroke:none;" d="M587 474L588 475L587 474z"/>
<path style="fill:#d0d9f7; stroke:none;" d="M620 474L621 475L620 474M672 474L673 475L672 474M707 474L708 475L707 474z"/>
<path style="fill:#5a89eb; stroke:none;" d="M765 474L766 475L765 474z"/>
<path style="fill:#d0d9f7; stroke:none;" d="M851 474L852 475L851 474z"/>
<path style="fill:#5a89eb; stroke:none;" d="M240 475L241 476L240 475z"/>
<path style="fill:#a3b6f1; stroke:none;" d="M303 475L304 476L303 475M315 475L316 476L315 475z"/>
<path style="fill:#5a89eb; stroke:none;" d="M508 475L509 476L508 475M525 475L526 476L525 475M570 475L571 476L570 475z"/>
<path style="fill:#d0d9f7; stroke:none;" d="M586 475L587 476L586 475z"/>
<path style="fill:#5a89eb; stroke:none;" d="M610 475L611 476L610 475z"/>
<path style="fill:#a3b6f1; stroke:none;" d="M620 475L621 476L620 475z"/>
<path style="fill:#d0d9f7; stroke:none;" d="M681 475L682 476L681 475M716 475L717 476L716 475z"/>
<path style="fill:#a3b6f1; stroke:none;" d="M765 475L766 476L765 475M775 475L776 476L775 475z"/>
<path style="fill:#5a89eb; stroke:none;" d="M801 475L802 476L801 475z"/>
<path style="fill:#a3b6f1; stroke:none;" d="M853 475L854 476L853 475M240 476L241 477L240 476M248.333 476.667L248.667 477.333L248.333 476.667M304 476L305 477L304 476M316 476L317 477L316 476z"/>
<path style="fill:#d0d9f7; stroke:none;" d="M509 476L510 477L509 476M525 476L526 477L525 476M570 476L571 477L570 476z"/>
<path style="fill:#a3b6f1; stroke:none;" d="M586 476L587 477L586 476M610 476L611 477L610 476z"/>
<path style="fill:#5a89eb; stroke:none;" d="M620 476L621 477L620 476z"/>
<path style="fill:#a3b6f1; stroke:none;" d="M671.333 476.667L671.667 477.333L671.333 476.667M681 476L682 477L681 476z"/>
<path style="fill:#5a89eb; stroke:none;" d="M706 476L707 477L706 476z"/>
<path style="fill:#a3b6f1; stroke:none;" d="M716 476L717 477L716 476z"/>
<path style="fill:#d0d9f7; stroke:none;" d="M765 476L766 477L765 476z"/>
<path style="fill:#a3b6f1; stroke:none;" d="M801 476L802 477L801 476z"/>
<path style="fill:#d0d9f7; stroke:none;" d="M854 476L855 477L854 476M240 477L241 478L240 477z"/>
<path style="fill:#a3b6f1; stroke:none;" d="M305 477L306 478L305 477M317 477L318 478L317 477M509 477L510 478L509 477z"/>
<path style="fill:#5a89eb; stroke:none;" d="M569 477L570 478L569 477z"/>
<path style="fill:#d0d9f7; stroke:none;" d="M610 477L611 478L610 477z"/>
<path style="fill:#5a89eb; stroke:none;" d="M681 477L682 478L681 477z"/>
<path style="fill:#a3b6f1; stroke:none;" d="M706 477L707 478L706 477z"/>
<path style="fill:#5a89eb; stroke:none;" d="M716 477L717 478L716 477M764.333 477.667L764.667 478.333L764.333 477.667z"/>
<path style="fill:#d0d9f7; stroke:none;" d="M774 477L775 478L774 477M801 477L802 478L801 477z"/>
<path style="fill:#016fe9; stroke:none;" d="M811 477L794 544C810.157 544 827.377 545.819 841 535.319C856.701 523.218 864.927 494.776 845 482.133C835.231 475.936 822.042 477 811 477z"/>
<path style="fill:#5a89eb; stroke:none;" d="M829 477L829 478L832 478L829 477z"/>
<path style="fill:#a3b6f1; stroke:none;" d="M832 477L833 478L832 477z"/>
<path style="fill:#d0d9f7; stroke:none;" d="M833.667 477.333L834.333 477.667L833.667 477.333M855 477L856 478L855 477z"/>
<path style="fill:#5a89eb; stroke:none;" d="M856 477L857 478L856 477M248 478L248 483L249 483L248 478z"/>
<path style="fill:#a3b6f1; stroke:none;" d="M306 478L307 479L306 478M318 478L319 479L318 478z"/>
<path style="fill:#5a89eb; stroke:none;" d="M509 478L510 479L509 478z"/>
<path style="fill:#a3b6f1; stroke:none;" d="M526 478L527 479L526 478M569 478L570 479L569 478z"/>
<path style="fill:#d0d9f7; stroke:none;" d="M585 478L586 479L585 478z"/>
<path style="fill:#5a89eb; stroke:none;" d="M609.333 478.667L609.667 479.333L609.333 478.667z"/>
<path style="fill:#d0d9f7; stroke:none;" d="M619 478L620 479L619 478M671 478L672 479L671 478M706 478L707 479L706 478z"/>
<path style="fill:#a3b6f1; stroke:none;" d="M774 478L775 479L774 478z"/>
<path style="fill:#5a89eb; stroke:none;" d="M800 478L801 479L800 478z"/>
<path style="fill:#d0d9f7; stroke:none;" d="M810 478L811 479L810 478z"/>
<path style="fill:#5a89eb; stroke:none;" d="M835 478L836 479L835 478z"/>
<path style="fill:#a3b6f1; stroke:none;" d="M836.667 478.333L837.333 478.667L836.667 478.333z"/>
<path style="fill:#d0d9f7; stroke:none;" d="M838 478L839 479L838 478z"/>
<path style="fill:#5a89eb; stroke:none;" d="M857 478L858 479L857 478M239 479L240 480L239 479z"/>
<path style="fill:#a3b6f1; stroke:none;" d="M307 479L308 480L307 479M319 479L320 480L319 479z"/>
<path style="fill:#d0d9f7; stroke:none;" d="M510 479L511 480L510 479M526 479L527 480L526 479M569 479L570 480L569 479z"/>
<path style="fill:#5a89eb; stroke:none;" d="M585 479L586 480L585 479z"/>
<path style="fill:#a3b6f1; stroke:none;" d="M619 479L620 480L619 479z"/>
<path style="fill:#d0d9f7; stroke:none;" d="M680 479L681 480L680 479M715 479L716 480L715 479z"/>
<path style="fill:#a3b6f1; stroke:none;" d="M764 479L765 480L764 479z"/>
<path style="fill:#5a89eb; stroke:none;" d="M774 479L775 480L774 479z"/>
<path style="fill:#a3b6f1; stroke:none;" d="M800.333 479.667L800.667 480.333L800.333 479.667M810 479L811 480L810 479z"/>
<path style="fill:#5a89eb; stroke:none;" d="M839 479L840 480L839 479z"/>
<path style="fill:#a3b6f1; stroke:none;" d="M840 479L841 480L840 479z"/>
<path style="fill:#5a89eb; stroke:none;" d="M858 479L859 480L858 479z"/>
<path style="fill:#a3b6f1; stroke:none;" d="M239.333 480.667L239.667 481.333L239.333 480.667M308 480L309 481L308 480M320 480L321 481L320 480z"/>
<path style="fill:#5a89eb; stroke:none;" d="M510 480L511 481L510 480M527 480L528 481L527 480M568 480L569 481L568 480z"/>
<path style="fill:#d0d9f7; stroke:none;" d="M584 480L585 481L584 480z"/>
<path style="fill:#a3b6f1; stroke:none;" d="M609 480L610 481L609 480z"/>
<path style="fill:#5a89eb; stroke:none;" d="M619 480L620 481L619 480z"/>
<path style="fill:#a3b6f1; stroke:none;" d="M670 480L671 481L670 480M680 480L681 481L680 480M705 480L706 481L705 480M715 480L716 481L715 480z"/>
<path style="fill:#d0d9f7; stroke:none;" d="M764 480L765 481L764 480z"/>
<path style="fill:#5a89eb; stroke:none;" d="M810 480L811 481L810 480z"/>
<path style="fill:#a3b6f1; stroke:none;" d="M842 480L843 481L842 480z"/>
<path style="fill:#d0d9f7; stroke:none;" d="M843 480L844 481L843 480z"/>
<path style="fill:#5a89eb; stroke:none;" d="M859 480L860 481L859 480z"/>
<path style="fill:#a3b6f1; stroke:none;" d="M309 481L310 482L309 481M321 481L322 482L321 481M362 481L362 482L411 482C398.348 476.691 375.788 481 362 481z"/>
<path style="fill:#d0d9f7; stroke:none;" d="M424 481L424 482L451 482L424 481M467 481L467 482L493 482L467 481M511 481L512 482L511 481z"/>
<path style="fill:#a3b6f1; stroke:none;" d="M527 481L528 482L527 481z"/>
<path style="fill:#d0d9f7; stroke:none;" d="M568 481L569 482L568 481z"/>
<path style="fill:#a3b6f1; stroke:none;" d="M584 481L585 482L584 481z"/>
<path style="fill:#d0d9f7; stroke:none;" d="M609 481L610 482L609 481M670 481L671 482L670 481M705.333 481.667L705.667 482.333L705.333 481.667z"/>
<path style="fill:#5a89eb; stroke:none;" d="M715 481L716 482L715 481z"/>
<path style="fill:#d0d9f7; stroke:none;" d="M773 481L774 482L773 481M800 481L801 482L800 481M809.333 481.667L809.667 482.333L809.333 481.667z"/>
<path style="fill:#a3b6f1; stroke:none;" d="M844 481L845 482L844 481z"/>
<path style="fill:#d0d9f7; stroke:none;" d="M859 481L860 482L859 481M239.333 482.667L239.667 483.333L239.333 482.667z"/>
<path style="fill:#a3b6f1; stroke:none;" d="M310 482L311 483L310 482M322 482L323 483L322 482z"/>
<path style="fill:#5a89eb; stroke:none;" d="M362 482L362 505L405 505L405 504L363 504L362 482z"/>
<path style="fill:#a3b6f1; stroke:none;" d="M466 482L466 553L467 553L467 504L466 482M511 482L512 483L511 482z"/>
<path style="fill:#5a89eb; stroke:none;" d="M608 482L609 483L608 482z"/>
<path style="fill:#d0d9f7; stroke:none;" d="M618 482L619 483L618 482M679 482L680 483L679 482M714.333 482.667L714.667 483.333L714.333 482.667z"/>
<path style="fill:#a3b6f1; stroke:none;" d="M763 482L764 483L763 482M773 482L774 483L773 482z"/>
<path style="fill:#5a89eb; stroke:none;" d="M799 482L800 483L799 482M845 482L846 483L845 482z"/>
<path style="fill:#d0d9f7; stroke:none;" d="M846 482L847 483L846 482M860 482L861 483L860 482z"/>
<path style="fill:#a3b6f1; stroke:none;" d="M311 483L312 484L311 483M323 483L324 484L323 483M528 483L529 484L528 483M567 483L568 484L567 483M583 483L584 484L583 483M608 483L609 484L608 483M618 483L619 484L618 483z"/>
<path style="fill:#5a89eb; stroke:none;" d="M669 483L670 484L669 483z"/>
<path style="fill:#a3b6f1; stroke:none;" d="M679 483L680 484L679 483z"/>
<path style="fill:#5a89eb; stroke:none;" d="M704 483L705 484L704 483z"/>
<path style="fill:#d0d9f7; stroke:none;" d="M763 483L764 484L763 483z"/>
<path style="fill:#5a89eb; stroke:none;" d="M773 483L774 484L773 483z"/>
<path style="fill:#a3b6f1; stroke:none;" d="M799 483L800 484L799 483M809 483L810 484L809 483M847 483L848 484L847 483M861 483L862 484L861 483M312 484L313 485L312 484M324 484L325 485L324 484z"/>
<path style="fill:#d0d9f7; stroke:none;" d="M512 484L513 485L512 484M528 484L529 485L528 484M567 484L568 485L567 484z"/>
<path style="fill:#5a89eb; stroke:none;" d="M583 484L584 485L583 484z"/>
<path style="fill:#d0d9f7; stroke:none;" d="M608.333 484.667L608.667 485.333L608.333 484.667z"/>
<path style="fill:#5a89eb; stroke:none;" d="M618 484L619 485L618 484z"/>
<path style="fill:#a3b6f1; stroke:none;" d="M669 484L670 485L669 484z"/>
<path style="fill:#5a89eb; stroke:none;" d="M679 484L680 485L679 484z"/>
<path style="fill:#a3b6f1; stroke:none;" d="M704 484L705 485L704 484M714 484L715 485L714 484z"/>
<path style="fill:#d0d9f7; stroke:none;" d="M772.333 484.667L772.667 485.333L772.333 484.667M799 484L800 485L799 484z"/>
<path style="fill:#5a89eb; stroke:none;" d="M809 484L810 485L809 484M848 484L849 485L848 484M862 484L863 485L862 484M238 485L238 496L239 496L238 485z"/>
<path style="fill:#a3b6f1; stroke:none;" d="M313 485L314 486L313 485M325 485L326 486L325 485z"/>
<path style="fill:#5a89eb; stroke:none;" d="M512 485L513 486L512 485M529 485L530 486L529 485M566 485L567 486L566 485z"/>
<path style="fill:#d0d9f7; stroke:none;" d="M582 485L583 486L582 485M617.333 485.667L617.667 486.333L617.333 485.667M669 485L670 486L669 485M704 485L705 486L704 485z"/>
<path style="fill:#5a89eb; stroke:none;" d="M714 485L715 486L714 485M762 485L763 486L762 485z"/>
<path style="fill:#d0d9f7; stroke:none;" d="M808 485L809 486L808 485z"/>
<path style="fill:#5a89eb; stroke:none;" d="M849 485L850 486L849 485z"/>
<path style="fill:#d0d9f7; stroke:none;" d="M862 485L863 486L862 485z"/>
<path style="fill:#a3b6f1; stroke:none;" d="M314 486L315 487L314 486M326 486L327 487L326 486z"/>
<path style="fill:#d0d9f7; stroke:none;" d="M513 486L514 487L513 486z"/>
<path style="fill:#a3b6f1; stroke:none;" d="M529 486L530 487L529 486M566 486L567 487L566 486z"/>
<path style="fill:#5a89eb; stroke:none;" d="M582 486L583 487L582 486M607 486L608 487L607 486z"/>
<path style="fill:#d0d9f7; stroke:none;" d="M678 486L679 487L678 486M713 486L714 487L713 486z"/>
<path style="fill:#a3b6f1; stroke:none;" d="M762 486L763 487L762 486M772 486L773 487L772 486z"/>
<path style="fill:#5a89eb; stroke:none;" d="M798 486L799 487L798 486z"/>
<path style="fill:#a3b6f1; stroke:none;" d="M808 486L809 487L808 486z"/>
<path style="fill:#5a89eb; stroke:none;" d="M850 486L851 487L850 486M863 486L864 487L863 486z"/>
<path style="fill:#a3b6f1; stroke:none;" d="M315 487L316 488L315 487M327 487L328 488L327 487M513 487L514 488L513 487z"/>
<path style="fill:#d0d9f7; stroke:none;" d="M581 487L582 488L581 487z"/>
<path style="fill:#a3b6f1; stroke:none;" d="M607 487L608 488L607 487M617 487L618 488L617 487z"/>
<path style="fill:#5a89eb; stroke:none;" d="M668 487L669 488L668 487z"/>
<path style="fill:#a3b6f1; stroke:none;" d="M678 487L679 488L678 487z"/>
<path style="fill:#5a89eb; stroke:none;" d="M703 487L704 488L703 487z"/>
<path style="fill:#a3b6f1; stroke:none;" d="M713 487L714 488L713 487z"/>
<path style="fill:#d0d9f7; stroke:none;" d="M762 487L763 488L762 487z"/>
<path style="fill:#5a89eb; stroke:none;" d="M772 487L773 488L772 487z"/>
<path style="fill:#a3b6f1; stroke:none;" d="M798 487L799 488L798 487z"/>
<path style="fill:#5a89eb; stroke:none;" d="M808 487L809 488L808 487M851 487L852 488L851 487z"/>
<path style="fill:#d0d9f7; stroke:none;" d="M863 487L864 488L863 487z"/>
<path style="fill:#a3b6f1; stroke:none;" d="M316 488L317 489L316 488M328 488L329 489L328 488M530 488L531 489L530 488M565 488L566 489L565 488M581 488L582 489L581 488z"/>
<path style="fill:#d0d9f7; stroke:none;" d="M607 488L608 489L607 488z"/>
<path style="fill:#5a89eb; stroke:none;" d="M617 488L618 489L617 488z"/>
<path style="fill:#a3b6f1; stroke:none;" d="M668 488L669 489L668 488z"/>
<path style="fill:#5a89eb; stroke:none;" d="M678 488L679 489L678 488z"/>
<path style="fill:#a3b6f1; stroke:none;" d="M703 488L704 489L703 488z"/>
<path style="fill:#5a89eb; stroke:none;" d="M713.333 488.667L713.667 489.333L713.333 488.667z"/>
<path style="fill:#d0d9f7; stroke:none;" d="M771 488L772 489L771 488M798 488L799 489L798 488z"/>
<path style="fill:#a3b6f1; stroke:none;" d="M852 488L853 489L852 488z"/>
<path style="fill:#5a89eb; stroke:none;" d="M864 488L865 489L864 488z"/>
<path style="fill:#a3b6f1; stroke:none;" d="M317 489L318 490L317 489M329 489L330 490L329 489M514 489L515 490L514 489z"/>
<path style="fill:#d0d9f7; stroke:none;" d="M530 489L531 490L530 489M565 489L566 490L565 489z"/>
<path style="fill:#5a89eb; stroke:none;" d="M581 489L582 490L581 489z"/>
<path style="fill:#d0d9f7; stroke:none;" d="M616.333 489.667L616.667 490.333L616.333 489.667M668 489L669 490L668 489M677.333 489.667L677.667 490.333L677.333 489.667M703 489L704 490L703 489z"/>
<path style="fill:#5a89eb; stroke:none;" d="M761 489L762 490L761 489z"/>
<path style="fill:#a3b6f1; stroke:none;" d="M771 489L772 490L771 489z"/>
<path style="fill:#5a89eb; stroke:none;" d="M797.333 489.667L797.667 490.333L797.333 489.667z"/>
<path style="fill:#d0d9f7; stroke:none;" d="M807 489L808 490L807 489M853 489L854 490L853 489M864 489L865 490L864 489M318 490L260 550C276.234 538.565 289.955 521.045 304 507C308.077 502.923 318.128 496.069 318 490z"/>
<path style="fill:#a3b6f1; stroke:none;" d="M330.333 490.667L330.667 491.333L330.333 490.667z"/>
<path style="fill:#5a89eb; stroke:none;" d="M514 490L515 491L514 490M531 490L532 491L531 490M564 490L565 491L564 490z"/>
<path style="fill:#d0d9f7; stroke:none;" d="M580 490L581 491L580 490z"/>
<path style="fill:#5a89eb; stroke:none;" d="M606 490L607 491L606 490z"/>
<path style="fill:#d0d9f7; stroke:none;" d="M712 490L713 491L712 490z"/>
<path style="fill:#a3b6f1; stroke:none;" d="M761 490L762 491L761 490z"/>
<path style="fill:#5a89eb; stroke:none;" d="M771 490L772 491L771 490z"/>
<path style="fill:#a3b6f1; stroke:none;" d="M807 490L808 491L807 490z"/>
<path style="fill:#5a89eb; stroke:none;" d="M853 490L854 491L853 490z"/>
<path style="fill:#a3b6f1; stroke:none;" d="M157 491L158 492L157 491z"/>
<path style="fill:#d0d9f7; stroke:none;" d="M169 491L197 520L227 549L198 519L169 491z"/>
<path style="fill:#5a89eb; stroke:none;" d="M170 491L171 492L170 491M317 491L318 492L317 491z"/>
<path style="fill:#d0d9f7; stroke:none;" d="M515 491L516 492L515 491z"/>
<path style="fill:#a3b6f1; stroke:none;" d="M531 491L532 492L531 491M564 491L565 492L564 491z"/>
<path style="fill:#5a89eb; stroke:none;" d="M580 491L581 492L580 491z"/>
<path style="fill:#a3b6f1; stroke:none;" d="M606 491L607 492L606 491z"/>
<path style="fill:#5a89eb; stroke:none;" d="M616 491L617 492L616 491z"/>
<path style="fill:#a3b6f1; stroke:none;" d="M667 491L668 492L667 491M677 491L678 492L677 491z"/>
<path style="fill:#5a89eb; stroke:none;" d="M702 491L703 492L702 491z"/>
<path style="fill:#a3b6f1; stroke:none;" d="M712 491L713 492L712 491z"/>
<path style="fill:#d0d9f7; stroke:none;" d="M761 491L762 492L761 491z"/>
<path style="fill:#a3b6f1; stroke:none;" d="M797 491L798 492L797 491z"/>
<path style="fill:#5a89eb; stroke:none;" d="M807 491L808 492L807 491z"/>
<path style="fill:#d0d9f7; stroke:none;" d="M854 491L855 492L854 491z"/>
<path style="fill:#a3b6f1; stroke:none;" d="M865 491L866 492L865 491M158 492L159 493L158 492z"/>
<path style="fill:#5a89eb; stroke:none;" d="M171 492L172 493L171 492M316 492L317 493L316 492z"/>
<path style="fill:#a3b6f1; stroke:none;" d="M329 492L330 493L329 492z"/>
<path style="fill:#5a89eb; stroke:none;" d="M515 492L516 493L515 492z"/>
<path style="fill:#d0d9f7; stroke:none;" d="M531 492L532 493L531 492M564 492L565 493L564 492M579 492L580 493L579 492M606 492L607 493L606 492M667.333 492.667L667.667 493.333L667.333 492.667z"/>
<path style="fill:#5a89eb; stroke:none;" d="M677 492L678 493L677 492z"/>
<path style="fill:#a3b6f1; stroke:none;" d="M702 492L703 493L702 492z"/>
<path style="fill:#5a89eb; stroke:none;" d="M712 492L713 493L712 492z"/>
<path style="fill:#d0d9f7; stroke:none;" d="M770 492L771 493L770 492M797 492L798 493L797 492M806.333 492.667L806.667 493.333L806.333 492.667z"/>
<path style="fill:#5a89eb; stroke:none;" d="M854 492L855 493L854 492z"/>
<path style="fill:#d0d9f7; stroke:none;" d="M865.333 492.667L865.667 493.333L865.333 492.667z"/>
<path style="fill:#a3b6f1; stroke:none;" d="M159 493L160 494L159 493z"/>
<path style="fill:#5a89eb; stroke:none;" d="M172 493L173 494L172 493z"/>
<path style="fill:#a3b6f1; stroke:none;" d="M272 493L272 494L275 494L272 493z"/>
<path style="fill:#5a89eb; stroke:none;" d="M275 493L276 494L275 493M315 493L316 494L315 493z"/>
<path style="fill:#a3b6f1; stroke:none;" d="M328 493L329 494L328 493z"/>
<path style="fill:#d0d9f7; stroke:none;" d="M516 493L517 494L516 493z"/>
<path style="fill:#5a89eb; stroke:none;" d="M532 493L533 494L532 493M563 493L564 494L563 493z"/>
<path style="fill:#a3b6f1; stroke:none;" d="M579 493L580 494L579 493z"/>
<path style="fill:#5a89eb; stroke:none;" d="M605.333 493.667L605.667 494.333L605.333 493.667z"/>
<path style="fill:#d0d9f7; stroke:none;" d="M615 493L616 494L615 493M676.333 493.667L676.667 494.333L676.333 493.667M702 493L703 494L702 493z"/>
<path style="fill:#a3b6f1; stroke:none;" d="M760.333 493.667L760.667 494.333L760.333 493.667M770 493L771 494L770 493z"/>
<path style="fill:#5a89eb; stroke:none;" d="M796 493L797 494L796 493z"/>
<path style="fill:#d0d9f7; stroke:none;" d="M855 493L856 494L855 493z"/>
<path style="fill:#a3b6f1; stroke:none;" d="M160 494L161 495L160 494z"/>
<path style="fill:#5a89eb; stroke:none;" d="M173 494L174 495L173 494M270 494L269 496L270 494z"/>
<path style="fill:#fefeff; stroke:none;" d="M271.603 495.047C268.502 497.422 272.204 503.228 275.397 500.339C278.324 497.689 274.986 492.457 271.603 495.047z"/>
<path style="fill:#a3b6f1; stroke:none;" d="M276 494L277 495L276 494z"/>
<path style="fill:#5a89eb; stroke:none;" d="M314 494L315 495L314 494z"/>
<path style="fill:#a3b6f1; stroke:none;" d="M327 494L328 495L327 494M516 494L517 495L516 494z"/>
<path style="fill:#d0d9f7; stroke:none;" d="M532 494L533 495L532 494M563 494L564 495L563 494z"/>
<path style="fill:#a3b6f1; stroke:none;" d="M615 494L616 495L615 494z"/>
<path style="fill:#5a89eb; stroke:none;" d="M666 494L667 495L666 494M701.333 494.667L701.667 495.333L701.333 494.667z"/>
<path style="fill:#d0d9f7; stroke:none;" d="M711 494L712 495L711 494z"/>
<path style="fill:#5a89eb; stroke:none;" d="M770 494L771 495L770 494z"/>
<path style="fill:#a3b6f1; stroke:none;" d="M796 494L797 495L796 494M806 494L807 495L806 494M855 494L856 495L855 494z"/>
<path style="fill:#5a89eb; stroke:none;" d="M866 494L867 495L866 494z"/>
<path style="fill:#a3b6f1; stroke:none;" d="M161 495L162 496L161 495z"/>
<path style="fill:#5a89eb; stroke:none;" d="M174 495L175 496L174 495M277 495L278 496L277 495M313 495L314 496L313 495z"/>
<path style="fill:#a3b6f1; stroke:none;" d="M326 495L327 496L326 495z"/>
<path style="fill:#5a89eb; stroke:none;" d="M516 495L517 496L516 495M562 495L563 496L562 495z"/>
<path style="fill:#d0d9f7; stroke:none;" d="M578 495L579 496L578 495z"/>
<path style="fill:#a3b6f1; stroke:none;" d="M605 495L606 496L605 495z"/>
<path style="fill:#5a89eb; stroke:none;" d="M615 495L616 496L615 495z"/>
<path style="fill:#a3b6f1; stroke:none;" d="M666 495L667 496L666 495M676 495L677 496L676 495M711 495L712 496L711 495z"/>
<path style="fill:#d0d9f7; stroke:none;" d="M760 495L761 496L760 495M796.333 495.667L796.667 496.333L796.333 495.667z"/>
<path style="fill:#5a89eb; stroke:none;" d="M806 495L807 496L806 495M855 495L856 496L855 495z"/>
<path style="fill:#a3b6f1; stroke:none;" d="M866.333 495.667L866.667 496.333L866.333 495.667M162 496L163 497L162 496z"/>
<path style="fill:#5a89eb; stroke:none;" d="M175 496L176 497L175 496M229 496L229 499L230 499L229 496z"/>
<path style="fill:#a3b6f1; stroke:none;" d="M230 496L230 497L239 497L230 496M248 496L248 497L257 497L248 496z"/>
<path style="fill:#5a89eb; stroke:none;" d="M257 496L258 497L257 496z"/>
<path style="fill:#a3b6f1; stroke:none;" d="M269 496L270 497L269 496z"/>
<path style="fill:#d0d9f7; stroke:none;" d="M277 496L277 499L278 499L277 496z"/>
<path style="fill:#5a89eb; stroke:none;" d="M312 496L313 497L312 496z"/>
<path style="fill:#a3b6f1; stroke:none;" d="M325 496L326 497L325 496z"/>
<path style="fill:#d0d9f7; stroke:none;" d="M517 496L518 497L517 496z"/>
<path style="fill:#a3b6f1; stroke:none;" d="M533 496L534 497L533 496M562 496L563 497L562 496z"/>
<path style="fill:#5a89eb; stroke:none;" d="M578 496L579 497L578 496z"/>
<path style="fill:#d0d9f7; stroke:none;" d="M605 496L606 497L605 496M666 496L667 497L666 496z"/>
<path style="fill:#a3b6f1; stroke:none;" d="M701 496L702 497L701 496z"/>
<path style="fill:#5a89eb; stroke:none;" d="M711 496L712 497L711 496z"/>
<path style="fill:#d0d9f7; stroke:none;" d="M769 496L770 497L769 496M805 496L806 497L805 496M856.333 496.667L856.667 497.333L856.333 496.667z"/>
<path style="fill:#a3b6f1; stroke:none;" d="M163 497L164 498L163 497z"/>
<path style="fill:#5a89eb; stroke:none;" d="M176 497L177 498L176 497z"/>
<path style="fill:#d0d9f7; stroke:none;" d="M257.333 497.667L257.667 498.333L257.333 497.667M269.333 497.667L269.667 498.333L269.333 497.667z"/>
<path style="fill:#5a89eb; stroke:none;" d="M311 497L312 498L311 497z"/>
<path style="fill:#a3b6f1; stroke:none;" d="M324 497L325 498L324 497z"/>
<path style="fill:#5a89eb; stroke:none;" d="M517 497L518 498L517 497z"/>
<path style="fill:#d0d9f7; stroke:none;" d="M533 497L534 498L533 497M562 497L563 498L562 497M577 497L578 498L577 497z"/>
<path style="fill:#5a89eb; stroke:none;" d="M604.333 497.667L604.667 498.333L604.333 497.667z"/>
<path style="fill:#d0d9f7; stroke:none;" d="M614 497L615 498L614 497M675 497L676 498L675 497M701 497L702 498L701 497M710.333 497.667L710.667 498.333L710.333 497.667z"/>
<path style="fill:#a3b6f1; stroke:none;" d="M759 497L760 498L759 497M769 497L770 498L769 497z"/>
<path style="fill:#5a89eb; stroke:none;" d="M795 497L796 498L795 497z"/>
<path style="fill:#a3b6f1; stroke:none;" d="M805 497L806 498L805 497z"/>
<path style="fill:#d0d9f7; stroke:none;" d="M866.333 497.667L866.667 498.333L866.333 497.667z"/>
<path style="fill:#a3b6f1; stroke:none;" d="M164 498L165 499L164 498z"/>
<path style="fill:#5a89eb; stroke:none;" d="M177 498L178 499L177 498M310 498L311 499L310 498z"/>
<path style="fill:#a3b6f1; stroke:none;" d="M323 498L324 499L323 498z"/>
<path style="fill:#d0d9f7; stroke:none;" d="M518 498L519 499L518 498z"/>
<path style="fill:#5a89eb; stroke:none;" d="M534 498L535 499L534 498M561 498L562 499L561 498z"/>
<path style="fill:#a3b6f1; stroke:none;" d="M577 498L578 499L577 498M614 498L615 499L614 498z"/>
<path style="fill:#5a89eb; stroke:none;" d="M665 498L666 499L665 498z"/>
<path style="fill:#a3b6f1; stroke:none;" d="M675 498L676 499L675 498z"/>
<path style="fill:#5a89eb; stroke:none;" d="M700 498L701 499L700 498z"/>
<path style="fill:#d0d9f7; stroke:none;" d="M759 498L760 499L759 498z"/>
<path style="fill:#5a89eb; stroke:none;" d="M769 498L770 499L769 498z"/>
<path style="fill:#a3b6f1; stroke:none;" d="M795 498L796 499L795 498z"/>
<path style="fill:#5a89eb; stroke:none;" d="M805.333 498.667L805.667 499.333L805.333 498.667z"/>
<path style="fill:#a3b6f1; stroke:none;" d="M856 498L857 499L856 498M165 499L166 500L165 499z"/>
<path style="fill:#5a89eb; stroke:none;" d="M178 499L179 500L178 499M230 499L230 500L238 500L238 541L239 511L237.972 500.603L230 499z"/>
<path style="fill:#a3b6f1; stroke:none;" d="M238 499L239 500L238 499z"/>
<path style="fill:#5a89eb; stroke:none;" d="M248 499L248 500L258 500L248 499z"/>
<path style="fill:#a3b6f1; stroke:none;" d="M269 499L270 500L269 499M277 499L278 500L277 499z"/>
<path style="fill:#5a89eb; stroke:none;" d="M309 499L310 500L309 499z"/>
<path style="fill:#a3b6f1; stroke:none;" d="M322 499L323 500L322 499M518 499L519 500L518 499z"/>
<path style="fill:#d0d9f7; stroke:none;" d="M534 499L535 500L534 499M561 499L562 500L561 499M604.333 499.667L604.667 500.333L604.333 499.667z"/>
<path style="fill:#5a89eb; stroke:none;" d="M614 499L615 500L614 499z"/>
<path style="fill:#a3b6f1; stroke:none;" d="M665 499L666 500L665 499z"/>
<path style="fill:#5a89eb; stroke:none;" d="M675 499L676 500L675 499z"/>
<path style="fill:#a3b6f1; stroke:none;" d="M700 499L701 500L700 499z"/>
<path style="fill:#5a89eb; stroke:none;" d="M710.333 499.667L710.667 500.333L710.333 499.667z"/>
<path style="fill:#d0d9f7; stroke:none;" d="M795 499L796 500L795 499z"/>
<path style="fill:#5a89eb; stroke:none;" d="M856 499L856 502L857 502L856 499z"/>
<path style="fill:#a3b6f1; stroke:none;" d="M166 500L167 501L166 500z"/>
<path style="fill:#5a89eb; stroke:none;" d="M179 500L180 501L179 500z"/>
<path style="fill:#d0d9f7; stroke:none;" d="M270 500L271 501L270 500M276 500L275 502L276 500z"/>
<path style="fill:#5a89eb; stroke:none;" d="M277 500L278 501L277 500M308 500L309 501L308 500z"/>
<path style="fill:#a3b6f1; stroke:none;" d="M321 500L322 501L321 500z"/>
<path style="fill:#5a89eb; stroke:none;" d="M535 500L536 501L535 500z"/>
<path style="fill:#a3b6f1; stroke:none;" d="M576 500L577 501L576 500z"/>
<path style="fill:#d0d9f7; stroke:none;" d="M613.333 500.667L613.667 501.333L613.333 500.667M665 500L666 501L665 500M700 500L701 501L700 500z"/>
<path style="fill:#5a89eb; stroke:none;" d="M758 500L759 501L758 500z"/>
<path style="fill:#a3b6f1; stroke:none;" d="M768.333 500.667L768.667 501.333L768.333 500.667z"/>
<path style="fill:#d0d9f7; stroke:none;" d="M804 500L805 501L804 500z"/>
<path style="fill:#a3b6f1; stroke:none;" d="M167 501L168 502L167 501z"/>
<path style="fill:#5a89eb; stroke:none;" d="M180 501L181 502L180 501z"/>
<path style="fill:#a3b6f1; stroke:none;" d="M271 501L272 502L271 501z"/>
<path style="fill:#5a89eb; stroke:none;" d="M276 501L277 502L276 501M307 501L308 502L307 501z"/>
<path style="fill:#a3b6f1; stroke:none;" d="M320 501L321 502L320 501M519 501L520 502L519 501M535 501L536 502L535 501M560 501L561 502L560 501z"/>
<path style="fill:#5a89eb; stroke:none;" d="M576 501L577 502L576 501M603 501L604 502L603 501z"/>
<path style="fill:#d0d9f7; stroke:none;" d="M674 501L675 502L674 501M709 501L710 502L709 501z"/>
<path style="fill:#a3b6f1; stroke:none;" d="M758 501L759 502L758 501z"/>
<path style="fill:#5a89eb; stroke:none;" d="M794 501L795 502L794 501z"/>
<path style="fill:#a3b6f1; stroke:none;" d="M804 501L805 502L804 501M168 502L169 503L168 502z"/>
<path style="fill:#5a89eb; stroke:none;" d="M181 502L182 503L181 502M306 502L307 503L306 502z"/>
<path style="fill:#a3b6f1; stroke:none;" d="M319 502L320 503L319 502z"/>
<path style="fill:#5a89eb; stroke:none;" d="M519 502L520 503L519 502z"/>
<path style="fill:#d0d9f7; stroke:none;" d="M535 502L536 503L535 502M560 502L561 503L560 502M575 502L576 503L575 502z"/>
<path style="fill:#a3b6f1; stroke:none;" d="M603 502L604 503L603 502M613 502L614 503L613 502M664 502L665 503L664 502M674 502L675 503L674 502z"/>
<path style="fill:#5a89eb; stroke:none;" d="M699 502L700 503L699 502z"/>
<path style="fill:#a3b6f1; stroke:none;" d="M709 502L710 503L709 502z"/>
<path style="fill:#d0d9f7; stroke:none;" d="M758 502L759 503L758 502z"/>
<path style="fill:#a3b6f1; stroke:none;" d="M794 502L795 503L794 502z"/>
<path style="fill:#5a89eb; stroke:none;" d="M804 502L805 503L804 502z"/>
<path style="fill:#d0d9f7; stroke:none;" d="M857 502L857 507L858 507L857 502z"/>
<path style="fill:#a3b6f1; stroke:none;" d="M169 503L170 504L169 503z"/>
<path style="fill:#5a89eb; stroke:none;" d="M182 503L183 504L182 503M305 503L306 504L305 503z"/>
<path style="fill:#a3b6f1; stroke:none;" d="M318 503L319 504L318 503z"/>
<path style="fill:#d0d9f7; stroke:none;" d="M520 503L521 504L520 503z"/>
<path style="fill:#5a89eb; stroke:none;" d="M536 503L537 504L536 503M559 503L560 504L559 503M575 503L576 504L575 503z"/>
<path style="fill:#d0d9f7; stroke:none;" d="M603 503L604 504L603 503z"/>
<path style="fill:#5a89eb; stroke:none;" d="M613 503L614 504L613 503z"/>
<path style="fill:#d0d9f7; stroke:none;" d="M664.333 503.667L664.667 504.333L664.333 503.667z"/>
<path style="fill:#5a89eb; stroke:none;" d="M674 503L675 504L674 503z"/>
<path style="fill:#a3b6f1; stroke:none;" d="M699 503L700 504L699 503z"/>
<path style="fill:#5a89eb; stroke:none;" d="M709 503L710 504L709 503z"/>
<path style="fill:#d0d9f7; stroke:none;" d="M767 503L768 504L767 503M794 503L795 504L794 503z"/>
<path style="fill:#a3b6f1; stroke:none;" d="M170 504L171 505L170 504z"/>
<path style="fill:#5a89eb; stroke:none;" d="M183 504L184 505L183 504M304 504L305 505L304 504z"/>
<path style="fill:#a3b6f1; stroke:none;" d="M317 504L318 505L317 504M520 504L521 505L520 504M536 504L537 505L536 504M559 504L560 505L559 504z"/>
<path style="fill:#d0d9f7; stroke:none;" d="M612.333 504.667L612.667 505.333L612.333 504.667M699 504L700 505L699 504z"/>
<path style="fill:#5a89eb; stroke:none;" d="M757 504L758 505L757 504z"/>
<path style="fill:#a3b6f1; stroke:none;" d="M767 504L768 505L767 504z"/>
<path style="fill:#5a89eb; stroke:none;" d="M793.333 504.667L793.667 505.333L793.333 504.667z"/>
<path style="fill:#d0d9f7; stroke:none;" d="M803 504L804 505L803 504z"/>
<path style="fill:#a3b6f1; stroke:none;" d="M171 505L172 506L171 505z"/>
<path style="fill:#5a89eb; stroke:none;" d="M184 505L185 506L184 505M303 505L304 506L303 505z"/>
<path style="fill:#a3b6f1; stroke:none;" d="M316 505L317 506L316 505M405 505L405 519L406 519L405 505M574 505L575 506L574 505z"/>
<path style="fill:#5a89eb; stroke:none;" d="M602 505L603 506L602 505z"/>
<path style="fill:#d0d9f7; stroke:none;" d="M673 505L674 506L673 505M708 505L709 506L708 505z"/>
<path style="fill:#a3b6f1; stroke:none;" d="M757 505L758 506L757 505z"/>
<path style="fill:#5a89eb; stroke:none;" d="M767 505L768 506L767 505z"/>
<path style="fill:#a3b6f1; stroke:none;" d="M803 505L804 506L803 505M172 506L173 507L172 506z"/>
<path style="fill:#5a89eb; stroke:none;" d="M185 506L186 507L185 506M302 506L303 507L302 506z"/>
<path style="fill:#a3b6f1; stroke:none;" d="M315 506L316 507L315 506M521 506L522 507L521 506M537 506L538 507L537 506M558 506L559 507L558 506z"/>
<path style="fill:#5a89eb; stroke:none;" d="M574 506L575 507L574 506z"/>
<path style="fill:#a3b6f1; stroke:none;" d="M602 506L603 507L602 506M612 506L613 507L612 506M663 506L664 507L663 506M673 506L674 507L673 506z"/>
<path style="fill:#5a89eb; stroke:none;" d="M698 506L699 507L698 506z"/>
<path style="fill:#a3b6f1; stroke:none;" d="M793 506L794 507L793 506z"/>
<path style="fill:#5a89eb; stroke:none;" d="M803 506L804 507L803 506z"/>
<path style="fill:#a3b6f1; stroke:none;" d="M173 507L174 508L173 507z"/>
<path style="fill:#5a89eb; stroke:none;" d="M186 507L187 508L186 507M301 507L302 508L301 507z"/>
<path style="fill:#a3b6f1; stroke:none;" d="M314 507L315 508L314 507z"/>
<path style="fill:#5a89eb; stroke:none;" d="M521 507L522 508L521 507z"/>
<path style="fill:#d0d9f7; stroke:none;" d="M537 507L538 508L537 507M558 507L559 508L558 507M573 507L574 508L573 507M602 507L603 508L602 507M663 507L664 508L663 507z"/>
<path style="fill:#5a89eb; stroke:none;" d="M673 507L674 508L673 507z"/>
<path style="fill:#a3b6f1; stroke:none;" d="M698 507L699 508L698 507z"/>
<path style="fill:#d0d9f7; stroke:none;" d="M766 507L767 508L766 507M793 507L794 508L793 507z"/>
<path style="fill:#5a89eb; stroke:none;" d="M856 507L856 510L857 510L856 507z"/>
<path style="fill:#a3b6f1; stroke:none;" d="M174 508L175 509L174 508z"/>
<path style="fill:#5a89eb; stroke:none;" d="M187 508L188 509L187 508M300 508L301 509L300 508z"/>
<path style="fill:#a3b6f1; stroke:none;" d="M313 508L314 509L313 508z"/>
<path style="fill:#d0d9f7; stroke:none;" d="M522 508L523 509L522 508z"/>
<path style="fill:#5a89eb; stroke:none;" d="M538 508L539 509L538 508M557 508L558 509L557 508M573 508L574 509L573 508z"/>
<path style="fill:#d0d9f7; stroke:none;" d="M611 508L612 509L611 508M672 508L673 509L672 508M698 508L699 509L698 508z"/>
<path style="fill:#a3b6f1; stroke:none;" d="M766 508L767 509L766 508z"/>
<path style="fill:#5a89eb; stroke:none;" d="M792 508L793 509L792 508z"/>
<path style="fill:#d0d9f7; stroke:none;" d="M802 508L803 509L802 508z"/>
<path style="fill:#a3b6f1; stroke:none;" d="M175 509L176 510L175 509z"/>
<path style="fill:#5a89eb; stroke:none;" d="M188 509L189 510L188 509M299 509L300 510L299 509z"/>
<path style="fill:#a3b6f1; stroke:none;" d="M312 509L313 510L312 509z"/>
<path style="fill:#5a89eb; stroke:none;" d="M522 509L523 510L522 509z"/>
<path style="fill:#a3b6f1; stroke:none;" d="M538 509L539 510L538 509M557 509L558 510L557 509z"/>
<path style="fill:#d0d9f7; stroke:none;" d="M572 509L573 510L572 509z"/>
<path style="fill:#5a89eb; stroke:none;" d="M601 509L602 510L601 509z"/>
<path style="fill:#a3b6f1; stroke:none;" d="M611 509L612 510L611 509z"/>
<path style="fill:#5a89eb; stroke:none;" d="M662 509L663 510L662 509z"/>
<path style="fill:#a3b6f1; stroke:none;" d="M672.333 509.667L672.667 510.333L672.333 509.667z"/>
<path style="fill:#5a89eb; stroke:none;" d="M697 509L698 510L697 509M766 509L767 510L766 509z"/>
<path style="fill:#a3b6f1; stroke:none;" d="M792 509L793 510L792 509M802 509L803 510L802 509z"/>
<path style="fill:#d0d9f7; stroke:none;" d="M866.333 509.667L866.667 510.333L866.333 509.667z"/>
<path style="fill:#a3b6f1; stroke:none;" d="M176 510L177 511L176 510z"/>
<path style="fill:#5a89eb; stroke:none;" d="M189 510L190 511L189 510M298 510L299 511L298 510z"/>
<path style="fill:#a3b6f1; stroke:none;" d="M311 510L312 511L311 510z"/>
<path style="fill:#d0d9f7; stroke:none;" d="M523 510L524 511L523 510M557 510L558 511L557 510z"/>
<path style="fill:#a3b6f1; stroke:none;" d="M572 510L573 511L572 510M601 510L602 511L601 510z"/>
<path style="fill:#5a89eb; stroke:none;" d="M611 510L612 511L611 510z"/>
<path style="fill:#a3b6f1; stroke:none;" d="M662 510L663 511L662 510M697 510L698 511L697 510z"/>
<path style="fill:#d0d9f7; stroke:none;" d="M792 510L793 511L792 510z"/>
<path style="fill:#5a89eb; stroke:none;" d="M802 510L803 511L802 510z"/>
<path style="fill:#a3b6f1; stroke:none;" d="M856.333 510.667L856.667 511.333L856.333 510.667M177 511L178 512L177 511z"/>
<path style="fill:#5a89eb; stroke:none;" d="M190 511L191 512L190 511M297 511L298 512L297 511z"/>
<path style="fill:#a3b6f1; stroke:none;" d="M310 511L311 512L310 511M523 511L524 512L523 511z"/>
<path style="fill:#5a89eb; stroke:none;" d="M539 511L540 512L539 511M556 511L557 512L556 511z"/>
<path style="fill:#d0d9f7; stroke:none;" d="M601 511L602 512L601 511M662 511L663 512L662 511M697.333 511.667L697.667 512.333L697.333 511.667M765 511L766 512L765 511M801 511L802 512L801 511z"/>
<path style="fill:#a3b6f1; stroke:none;" d="M866.333 511.667L866.667 512.333L866.333 511.667M178 512L179 513L178 512z"/>
<path style="fill:#5a89eb; stroke:none;" d="M191 512L192 513L191 512M296 512L297 513L296 512z"/>
<path style="fill:#a3b6f1; stroke:none;" d="M309 512L310 513L309 512z"/>
<path style="fill:#5a89eb; stroke:none;" d="M523 512L524 513L523 512z"/>
<path style="fill:#d0d9f7; stroke:none;" d="M539 512L540 513L539 512M556 512L557 513L556 512M571 512L572 513L571 512M610 512L611 513L610 512M671 512L672 513L671 512z"/>
<path style="fill:#a3b6f1; stroke:none;" d="M765 512L766 513L765 512z"/>
<path style="fill:#5a89eb; stroke:none;" d="M791 512L792 513L791 512z"/>
<path style="fill:#a3b6f1; stroke:none;" d="M801 512L802 513L801 512z"/>
<path style="fill:#d0d9f7; stroke:none;" d="M856 512L857 513L856 512z"/>
<path style="fill:#a3b6f1; stroke:none;" d="M179 513L180 514L179 513z"/>
<path style="fill:#5a89eb; stroke:none;" d="M192 513L193 514L192 513M295 513L296 514L295 513z"/>
<path style="fill:#a3b6f1; stroke:none;" d="M308 513L309 514L308 513z"/>
<path style="fill:#d0d9f7; stroke:none;" d="M524 513L525 514L524 513z"/>
<path style="fill:#5a89eb; stroke:none;" d="M555 513L556 514L555 513M571 513L572 514L571 513M600 513L601 514L600 513z"/>
<path style="fill:#a3b6f1; stroke:none;" d="M610 513L611 514L610 513z"/>
<path style="fill:#5a89eb; stroke:none;" d="M661 513L662 514L661 513z"/>
<path style="fill:#a3b6f1; stroke:none;" d="M671 513L672 514L671 513z"/>
<path style="fill:#5a89eb; stroke:none;" d="M696 513L697 514L696 513M765 513L766 514L765 513z"/>
<path style="fill:#a3b6f1; stroke:none;" d="M791 513L792 514L791 513z"/>
<path style="fill:#5a89eb; stroke:none;" d="M801 513L802 514L801 513M866.333 513.667L866.667 514.333L866.333 513.667z"/>
<path style="fill:#a3b6f1; stroke:none;" d="M180 514L181 515L180 514z"/>
<path style="fill:#5a89eb; stroke:none;" d="M193 514L194 515L193 514M294 514L295 515L294 514z"/>
<path style="fill:#a3b6f1; stroke:none;" d="M307 514L308 515L307 514z"/>
<path style="fill:#5a89eb; stroke:none;" d="M524 514L525 515L524 514z"/>
<path style="fill:#a3b6f1; stroke:none;" d="M540 514L541 515L540 514M555 514L556 515L555 514z"/>
<path style="fill:#d0d9f7; stroke:none;" d="M570 514L571 515L570 514z"/>
<path style="fill:#a3b6f1; stroke:none;" d="M600 514L601 515L600 514z"/>
<path style="fill:#5a89eb; stroke:none;" d="M610 514L611 515L610 514z"/>
<path style="fill:#a3b6f1; stroke:none;" d="M661 514L662 515L661 514z"/>
<path style="fill:#5a89eb; stroke:none;" d="M671 514L672 515L671 514z"/>
<path style="fill:#a3b6f1; stroke:none;" d="M696 514L697 515L696 514z"/>
<path style="fill:#d0d9f7; stroke:none;" d="M764.333 514.667L764.667 515.333L764.333 514.667M791 514L792 515L791 514z"/>
<path style="fill:#5a89eb; stroke:none;" d="M855 514L856 515L855 514z"/>
<path style="fill:#a3b6f1; stroke:none;" d="M181 515L182 516L181 515z"/>
<path style="fill:#5a89eb; stroke:none;" d="M194 515L195 516L194 515M293 515L294 516L293 515z"/>
<path style="fill:#a3b6f1; stroke:none;" d="M306 515L307 516L306 515z"/>
<path style="fill:#d0d9f7; stroke:none;" d="M525 515L526 516L525 515M540 515L541 516L540 515M555 515L556 516L555 515z"/>
<path style="fill:#a3b6f1; stroke:none;" d="M570 515L571 516L570 515z"/>
<path style="fill:#d0d9f7; stroke:none;" d="M600 515L601 516L600 515M661 515L662 516L661 515M696 515L697 516L696 515z"/>
<path style="fill:#5a89eb; stroke:none;" d="M706 515L706 516L755 516C742.348 510.691 719.788 515 706 515z"/>
<path style="fill:#d0d9f7; stroke:none;" d="M800 515L801 516L800 515z"/>
<path style="fill:#a3b6f1; stroke:none;" d="M855 515L856 516L855 515z"/>
<path style="fill:#d0d9f7; stroke:none;" d="M865 515L866 516L865 515z"/>
<path style="fill:#a3b6f1; stroke:none;" d="M182 516L183 517L182 516z"/>
<path style="fill:#5a89eb; stroke:none;" d="M195 516L196 517L195 516M292 516L293 517L292 516z"/>
<path style="fill:#a3b6f1; stroke:none;" d="M305 516L306 517L305 516M525 516L526 517L525 516z"/>
<path style="fill:#5a89eb; stroke:none;" d="M541 516L542 517L541 516M554 516L555 517L554 516z"/>
<path style="fill:#d0d9f7; stroke:none;" d="M609 516L610 517L609 516M670 516L671 517L670 516M705 516L706 517L705 516z"/>
<path style="fill:#a3b6f1; stroke:none;" d="M754 516L755 517L754 516M764 516L765 517L764 516z"/>
<path style="fill:#5a89eb; stroke:none;" d="M790 516L791 517L790 516z"/>
<path style="fill:#a3b6f1; stroke:none;" d="M800 516L801 517L800 516z"/>
<path style="fill:#d0d9f7; stroke:none;" d="M855 516L856 517L855 516z"/>
<path style="fill:#a3b6f1; stroke:none;" d="M865.333 516.667L865.667 517.333L865.333 516.667M183 517L184 518L183 517z"/>
<path style="fill:#5a89eb; stroke:none;" d="M196 517L197 518L196 517M291 517L292 518L291 517z"/>
<path style="fill:#a3b6f1; stroke:none;" d="M304 517L305 518L304 517z"/>
<path style="fill:#d0d9f7; stroke:none;" d="M541 517L542 518L541 517M554 517L555 518L554 517z"/>
<path style="fill:#a3b6f1; stroke:none;" d="M569 517L570 518L569 517z"/>
<path style="fill:#5a89eb; stroke:none;" d="M599 517L600 518L599 517z"/>
<path style="fill:#a3b6f1; stroke:none;" d="M609 517L610 518L609 517M660 517L661 518L660 517M670 517L671 518L670 517z"/>
<path style="fill:#5a89eb; stroke:none;" d="M695 517L696 518L695 517z"/>
<path style="fill:#a3b6f1; stroke:none;" d="M705 517L706 518L705 517z"/>
<path style="fill:#d0d9f7; stroke:none;" d="M754 517L755 518L754 517z"/>
<path style="fill:#a3b6f1; stroke:none;" d="M790 517L791 518L790 517z"/>
<path style="fill:#5a89eb; stroke:none;" d="M800 517L801 518L800 517M854 517L855 518L854 517z"/>
<path style="fill:#a3b6f1; stroke:none;" d="M184 518L185 519L184 518z"/>
<path style="fill:#5a89eb; stroke:none;" d="M197 518L198 519L197 518M290 518L291 519L290 518z"/>
<path style="fill:#a3b6f1; stroke:none;" d="M303 518L304 519L303 518z"/>
<path style="fill:#d0d9f7; stroke:none;" d="M362 518L362 519L405 519C393.774 514.29 374.219 518 362 518M526 518L527 519L526 518z"/>
<path style="fill:#5a89eb; stroke:none;" d="M542 518L543 519L542 518M569 518L570 519L569 518z"/>
<path style="fill:#a3b6f1; stroke:none;" d="M599 518L600 519L599 518z"/>
<path style="fill:#5a89eb; stroke:none;" d="M609 518L610 519L609 518z"/>
<path style="fill:#d0d9f7; stroke:none;" d="M660 518L661 519L660 518z"/>
<path style="fill:#5a89eb; stroke:none;" d="M670 518L671 519L670 518z"/>
<path style="fill:#a3b6f1; stroke:none;" d="M695 518L696 519L695 518z"/>
<path style="fill:#5a89eb; stroke:none;" d="M705 518L706 519L705 518z"/>
<path style="fill:#d0d9f7; stroke:none;" d="M763 518L764 519L763 518M790 518L791 519L790 518z"/>
<path style="fill:#a3b6f1; stroke:none;" d="M854 518L855 519L854 518M185 519L186 520L185 519z"/>
<path style="fill:#5a89eb; stroke:none;" d="M198 519L199 520L198 519M289 519L290 520L289 519z"/>
<path style="fill:#a3b6f1; stroke:none;" d="M302 519L303 520L302 519z"/>
<path style="fill:#5a89eb; stroke:none;" d="M362 519L362 554L363 554L362 519M526 519L527 520L526 519z"/>
<path style="fill:#a3b6f1; stroke:none;" d="M542 519L543 520L542 519M553 519L554 520L553 519z"/>
<path style="fill:#d0d9f7; stroke:none;" d="M568 519L569 520L568 519M599.333 519.667L599.667 520.333L599.333 519.667M695 519L696 520L695 519z"/>
<path style="fill:#5a89eb; stroke:none;" d="M753 519L754 520L753 519z"/>
<path style="fill:#a3b6f1; stroke:none;" d="M763 519L764 520L763 519z"/>
<path style="fill:#5a89eb; stroke:none;" d="M789 519L790 520L789 519z"/>
<path style="fill:#d0d9f7; stroke:none;" d="M799 519L800 520L799 519M854 519L855 520L854 519M864 519L865 520L864 519z"/>
<path style="fill:#a3b6f1; stroke:none;" d="M186 520L187 521L186 520z"/>
<path style="fill:#5a89eb; stroke:none;" d="M199 520L200 521L199 520M288 520L289 521L288 520z"/>
<path style="fill:#a3b6f1; stroke:none;" d="M301 520L302 521L301 520z"/>
<path style="fill:#d0d9f7; stroke:none;" d="M527 520L528 521L527 520M542 520L543 521L542 520M553 520L554 521L553 520z"/>
<path style="fill:#a3b6f1; stroke:none;" d="M568 520L569 521L568 520z"/>
<path style="fill:#d0d9f7; stroke:none;" d="M608 520L608 523L609 523L608 520z"/>
<path style="fill:#5a89eb; stroke:none;" d="M659 520L660 521L659 520z"/>
<path style="fill:#d0d9f7; stroke:none;" d="M669 520L670 521L669 520M704 520L705 521L704 520z"/>
<path style="fill:#a3b6f1; stroke:none;" d="M753 520L754 521L753 520z"/>
<path style="fill:#5a89eb; stroke:none;" d="M763.333 520.667L763.667 521.333L763.333 520.667z"/>
<path style="fill:#a3b6f1; stroke:none;" d="M789.333 520.667L789.667 521.333L789.333 520.667M799 520L800 521L799 520z"/>
<path style="fill:#5a89eb; stroke:none;" d="M853 520L854 521L853 520z"/>
<path style="fill:#a3b6f1; stroke:none;" d="M864 520L865 521L864 520M187 521L188 522L187 521z"/>
<path style="fill:#5a89eb; stroke:none;" d="M200 521L201 522L200 521M287 521L288 522L287 521z"/>
<path style="fill:#a3b6f1; stroke:none;" d="M300 521L301 522L300 521M527 521L528 522L527 521z"/>
<path style="fill:#5a89eb; stroke:none;" d="M543 521L544 522L543 521M552 521L553 522L552 521z"/>
<path style="fill:#d0d9f7; stroke:none;" d="M567 521L568 522L567 521z"/>
<path style="fill:#a3b6f1; stroke:none;" d="M659 521L660 522L659 521M669 521L670 522L669 521z"/>
<path style="fill:#5a89eb; stroke:none;" d="M694 521L695 522L694 521z"/>
<path style="fill:#a3b6f1; stroke:none;" d="M704 521L705 522L704 521z"/>
<path style="fill:#d0d9f7; stroke:none;" d="M753 521L754 522L753 521z"/>
<path style="fill:#5a89eb; stroke:none;" d="M799 521L800 522L799 521z"/>
<path style="fill:#d0d9f7; stroke:none;" d="M853 521L854 522L853 521z"/>
<path style="fill:#a3b6f1; stroke:none;" d="M188 522L189 523L188 522z"/>
<path style="fill:#5a89eb; stroke:none;" d="M201 522L202 523L201 522M286 522L287 523L286 522z"/>
<path style="fill:#a3b6f1; stroke:none;" d="M299 522L300 523L299 522M543 522L544 523L543 522M552 522L553 523L552 522M567 522L568 523L567 522M694 522L695 523L694 522z"/>
<path style="fill:#5a89eb; stroke:none;" d="M704 522L705 523L704 522z"/>
<path style="fill:#d0d9f7; stroke:none;" d="M762 522L763 523L762 522M789 522L790 523L789 522M798.333 522.667L798.667 523.333L798.333 522.667z"/>
<path style="fill:#5a89eb; stroke:none;" d="M852 522L853 523L852 522z"/>
<path style="fill:#a3b6f1; stroke:none;" d="M863 522L864 523L863 522M189 523L190 524L189 523z"/>
<path style="fill:#5a89eb; stroke:none;" d="M202 523L203 524L202 523M285 523L286 524L285 523z"/>
<path style="fill:#a3b6f1; stroke:none;" d="M298 523L299 524L298 523M528 523L529 524L528 523z"/>
<path style="fill:#5a89eb; stroke:none;" d="M567 523L568 524L567 523M598 523L598 532L599 532L598 523z"/>
<path style="fill:#a3b6f1; stroke:none;" d="M608 523L608 529L609 529L608 523z"/>
<path style="fill:#5a89eb; stroke:none;" d="M658 523L659 524L658 523z"/>
<path style="fill:#d0d9f7; stroke:none;" d="M668 523L669 524L668 523M694 523L695 524L694 523M703.333 523.667L703.667 524.333L703.333 523.667z"/>
<path style="fill:#a3b6f1; stroke:none;" d="M752 523L753 524L752 523M762 523L763 524L762 523z"/>
<path style="fill:#5a89eb; stroke:none;" d="M788 523L789 524L788 523z"/>
<path style="fill:#d0d9f7; stroke:none;" d="M852 523L853 524L852 523z"/>
<path style="fill:#5a89eb; stroke:none;" d="M863 523L864 524L863 523z"/>
<path style="fill:#a3b6f1; stroke:none;" d="M190 524L191 525L190 524z"/>
<path style="fill:#5a89eb; stroke:none;" d="M203 524L204 525L203 524M284 524L285 525L284 524z"/>
<path style="fill:#a3b6f1; stroke:none;" d="M297 524L298 525L297 524z"/>
<path style="fill:#5a89eb; stroke:none;" d="M528 524L529 525L528 524z"/>
<path style="fill:#a3b6f1; stroke:none;" d="M544 524L545 525L544 524M551 524L552 525L551 524z"/>
<path style="fill:#d0d9f7; stroke:none;" d="M566 524L567 525L566 524M658 524L659 525L658 524z"/>
<path style="fill:#a3b6f1; stroke:none;" d="M668 524L669 525L668 524z"/>
<path style="fill:#5a89eb; stroke:none;" d="M693 524L694 525L693 524z"/>
<path style="fill:#d0d9f7; stroke:none;" d="M752.333 524.667L752.667 525.333L752.333 524.667z"/>
<path style="fill:#5a89eb; stroke:none;" d="M762 524L763 525L762 524z"/>
<path style="fill:#a3b6f1; stroke:none;" d="M788 524L789 525L788 524M798 524L799 525L798 524M851 524L852 525L851 524z"/>
<path style="fill:#d0d9f7; stroke:none;" d="M862 524L863 525L862 524z"/>
<path style="fill:#a3b6f1; stroke:none;" d="M191 525L192 526L191 525z"/>
<path style="fill:#5a89eb; stroke:none;" d="M204 525L205 526L204 525M283 525L284 526L283 525z"/>
<path style="fill:#a3b6f1; stroke:none;" d="M296 525L297 526L296 525z"/>
<path style="fill:#d0d9f7; stroke:none;" d="M529 525L530 526L529 525M544 525L545 526L544 525M551 525L552 526L551 525z"/>
<path style="fill:#5a89eb; stroke:none;" d="M566 525L567 526L566 525z"/>
<path style="fill:#a3b6f1; stroke:none;" d="M693 525L694 526L693 525M703 525L704 526L703 525z"/>
<path style="fill:#d0d9f7; stroke:none;" d="M761.333 525.667L761.667 526.333L761.333 525.667M788 525L789 526L788 525z"/>
<path style="fill:#5a89eb; stroke:none;" d="M798 525L799 526L798 525M850 525L851 526L850 525M862 525L863 526L862 525z"/>
<path style="fill:#a3b6f1; stroke:none;" d="M192 526L193 527L192 526z"/>
<path style="fill:#5a89eb; stroke:none;" d="M205 526L206 527L205 526M282 526L283 527L282 526z"/>
<path style="fill:#a3b6f1; stroke:none;" d="M295 526L296 527L295 526z"/>
<path style="fill:#5a89eb; stroke:none;" d="M529 526L530 527L529 526M545 526L546 527L545 526M550 526L551 527L550 526z"/>
<path style="fill:#d0d9f7; stroke:none;" d="M565 526L566 527L565 526z"/>
<path style="fill:#a3b6f1; stroke:none;" d="M657 526L658 527L657 526z"/>
<path style="fill:#d0d9f7; stroke:none;" d="M667 526L668 527L667 526M693 526L694 527L693 526z"/>
<path style="fill:#5a89eb; stroke:none;" d="M703 526L704 527L703 526M751 526L752 527L751 526z"/>
<path style="fill:#d0d9f7; stroke:none;" d="M797 526L798 527L797 526M850 526L851 527L850 526M861 526L862 527L861 526z"/>
<path style="fill:#a3b6f1; stroke:none;" d="M193 527L194 528L193 527z"/>
<path style="fill:#5a89eb; stroke:none;" d="M206 527L207 528L206 527M281 527L282 528L281 527z"/>
<path style="fill:#a3b6f1; stroke:none;" d="M294 527L295 528L294 527z"/>
<path style="fill:#d0d9f7; stroke:none;" d="M530 527L531 528L530 527z"/>
<path style="fill:#a3b6f1; stroke:none;" d="M545 527L546 528L545 527M550 527L551 528L550 527M565 527L566 528L565 527z"/>
<path style="fill:#5a89eb; stroke:none;" d="M667 527L668 528L667 527z"/>
<path style="fill:#d0d9f7; stroke:none;" d="M702 527L703 528L702 527z"/>
<path style="fill:#a3b6f1; stroke:none;" d="M751 527L752 528L751 527M761 527L762 528L761 527z"/>
<path style="fill:#5a89eb; stroke:none;" d="M787 527L788 528L787 527z"/>
<path style="fill:#a3b6f1; stroke:none;" d="M797 527L798 528L797 527M849 527L850 528L849 527z"/>
<path style="fill:#5a89eb; stroke:none;" d="M861 527L862 528L861 527z"/>
<path style="fill:#a3b6f1; stroke:none;" d="M194 528L195 529L194 528z"/>
<path style="fill:#5a89eb; stroke:none;" d="M207 528L208 529L207 528M280 528L281 529L280 528z"/>
<path style="fill:#a3b6f1; stroke:none;" d="M293 528L294 529L293 528M530 528L531 529L530 528M656 528L657 529L656 528z"/>
<path style="fill:#d0d9f7; stroke:none;" d="M666 528L667 529L666 528z"/>
<path style="fill:#5a89eb; stroke:none;" d="M692 528L693 529L692 528z"/>
<path style="fill:#a3b6f1; stroke:none;" d="M702 528L703 529L702 528z"/>
<path style="fill:#d0d9f7; stroke:none;" d="M751 528L752 529L751 528z"/>
<path style="fill:#5a89eb; stroke:none;" d="M761 528L762 529L761 528z"/>
<path style="fill:#a3b6f1; stroke:none;" d="M787 528L788 529L787 528z"/>
<path style="fill:#5a89eb; stroke:none;" d="M797 528L798 529L797 528M848 528L843 534L848 528z"/>
<path style="fill:#d0d9f7; stroke:none;" d="M860 528L861 529L860 528z"/>
<path style="fill:#a3b6f1; stroke:none;" d="M195 529L196 530L195 529z"/>
<path style="fill:#5a89eb; stroke:none;" d="M208 529L209 530L208 529M279 529L280 530L279 529z"/>
<path style="fill:#a3b6f1; stroke:none;" d="M292 529L293 530L292 529z"/>
<path style="fill:#5a89eb; stroke:none;" d="M530 529L531 530L530 529M546 529L547 530L546 529M549 529L550 530L549 529z"/>
<path style="fill:#d0d9f7; stroke:none;" d="M564 529L565 530L564 529M608.333 529.667L608.667 530.333L608.333 529.667z"/>
<path style="fill:#5a89eb; stroke:none;" d="M655 529L656 530L655 529z"/>
<path style="fill:#a3b6f1; stroke:none;" d="M666 529L667 530L666 529M692 529L693 530L692 529z"/>
<path style="fill:#5a89eb; stroke:none;" d="M702.333 529.667L702.667 530.333L702.333 529.667z"/>
<path style="fill:#d0d9f7; stroke:none;" d="M760 529L761 530L760 529M787 529L788 530L787 529M848 529L849 530L848 529z"/>
<path style="fill:#5a89eb; stroke:none;" d="M860 529L861 530L860 529z"/>
<path style="fill:#a3b6f1; stroke:none;" d="M196 530L197 531L196 530z"/>
<path style="fill:#5a89eb; stroke:none;" d="M209 530L210 531L209 530M278 530L279 531L278 530z"/>
<path style="fill:#a3b6f1; stroke:none;" d="M291 530L292 531L291 530z"/>
<path style="fill:#d0d9f7; stroke:none;" d="M531 530L532 531L531 530M546 530L547 531L546 530M549 530L550 531L549 530z"/>
<path style="fill:#5a89eb; stroke:none;" d="M564 530L565 531L564 530z"/>
<path style="fill:#a3b6f1; stroke:none;" d="M655 530L656 531L655 530z"/>
<path style="fill:#d0d9f7; stroke:none;" d="M665 530L666 531L665 530M692 530L693 531L692 530z"/>
<path style="fill:#5a89eb; stroke:none;" d="M750 530L751 531L750 530z"/>
<path style="fill:#a3b6f1; stroke:none;" d="M760 530L761 531L760 530z"/>
<path style="fill:#5a89eb; stroke:none;" d="M786.333 530.667L786.667 531.333L786.333 530.667z"/>
<path style="fill:#d0d9f7; stroke:none;" d="M796 530L797 531L796 530M847 530L848 531L847 530z"/>
<path style="fill:#a3b6f1; stroke:none;" d="M859 530L860 531L859 530M197 531L198 532L197 531z"/>
<path style="fill:#5a89eb; stroke:none;" d="M210 531L211 532L210 531M277 531L278 532L277 531z"/>
<path style="fill:#a3b6f1; stroke:none;" d="M290 531L291 532L290 531z"/>
<path style="fill:#5a89eb; stroke:none;" d="M531 531L532 532L531 531M547.667 531.333L548.333 531.667L547.667 531.333z"/>
<path style="fill:#d0d9f7; stroke:none;" d="M563 531L564 532L563 531z"/>
<path style="fill:#5a89eb; stroke:none;" d="M654 531L655 532L654 531z"/>
<path style="fill:#a3b6f1; stroke:none;" d="M665 531L666 532L665 531z"/>
<path style="fill:#d0d9f7; stroke:none;" d="M701 531L702 532L701 531z"/>
<path style="fill:#a3b6f1; stroke:none;" d="M750 531L751 532L750 531z"/>
<path style="fill:#5a89eb; stroke:none;" d="M760.333 531.667L760.667 532.333L760.333 531.667z"/>
<path style="fill:#a3b6f1; stroke:none;" d="M796 531L797 532L796 531z"/>
<path style="fill:#d0d9f7; stroke:none;" d="M846 531L847 532L846 531M858 531L859 532L858 531z"/>
<path style="fill:#a3b6f1; stroke:none;" d="M198 532L199 533L198 532z"/>
<path style="fill:#5a89eb; stroke:none;" d="M211 532L212 533L211 532M276 532L277 533L276 532z"/>
<path style="fill:#a3b6f1; stroke:none;" d="M289 532L290 533L289 532z"/>
<path style="fill:#d0d9f7; stroke:none;" d="M532 532L533 533L532 532z"/>
<path style="fill:#a3b6f1; stroke:none;" d="M547.667 532.333L548.333 532.667L547.667 532.333M563 532L564 533L563 532z"/>
<path style="fill:#5a89eb; stroke:none;" d="M609 532L610 533L609 532z"/>
<path style="fill:#d0d9f7; stroke:none;" d="M654 532L655 533L654 532z"/>
<path style="fill:#5a89eb; stroke:none;" d="M665 532L666 533L665 532M691 532L692 533L691 532z"/>
<path style="fill:#a3b6f1; stroke:none;" d="M701 532L702 533L701 532z"/>
<path style="fill:#d0d9f7; stroke:none;" d="M750 532L751 533L750 532z"/>
<path style="fill:#a3b6f1; stroke:none;" d="M786 532L787 533L786 532z"/>
<path style="fill:#5a89eb; stroke:none;" d="M796 532L797 533L796 532z"/>
<path style="fill:#d0d9f7; stroke:none;" d="M845 532L846 533L845 532M857 532L858 533L857 532z"/>
<path style="fill:#a3b6f1; stroke:none;" d="M199 533L200 534L199 533z"/>
<path style="fill:#5a89eb; stroke:none;" d="M212 533L213 534L212 533M275 533L276 534L275 533z"/>
<path style="fill:#a3b6f1; stroke:none;" d="M288 533L289 534L288 533M532 533L533 534L532 533z"/>
<path style="fill:#d0d9f7; stroke:none;" d="M548 533L549 534L548 533M599.333 533.667L599.667 534.333L599.333 533.667z"/>
<path style="fill:#a3b6f1; stroke:none;" d="M609 533L610 534L609 533M653 533L654 534L653 533M664 533L665 534L664 533M691 533L692 534L691 533z"/>
<path style="fill:#5a89eb; stroke:none;" d="M701 533L702 534L701 533z"/>
<path style="fill:#d0d9f7; stroke:none;" d="M759 533L760 534L759 533M786 533L787 534L786 533M844 533L845 534L844 533z"/>
<path style="fill:#5a89eb; stroke:none;" d="M857 533L858 534L857 533z"/>
<path style="fill:#a3b6f1; stroke:none;" d="M200 534L201 535L200 534z"/>
<path style="fill:#5a89eb; stroke:none;" d="M213 534L214 535L213 534M274 534L275 535L274 534z"/>
<path style="fill:#a3b6f1; stroke:none;" d="M287 534L288 535L287 534M562 534L563 535L562 534z"/>
<path style="fill:#d0d9f7; stroke:none;" d="M609 534L610 535L609 534z"/>
<path style="fill:#5a89eb; stroke:none;" d="M652 534L653 535L652 534z"/>
<path style="fill:#d0d9f7; stroke:none;" d="M691 534L692 535L691 534z"/>
<path style="fill:#a3b6f1; stroke:none;" d="M749.333 534.667L749.667 535.333L749.333 534.667M759 534L760 535L759 534z"/>
<path style="fill:#5a89eb; stroke:none;" d="M785 534L786 535L785 534z"/>
<path style="fill:#d0d9f7; stroke:none;" d="M795 534L796 535L795 534z"/>
<path style="fill:#5a89eb; stroke:none;" d="M842 534L843 535L842 534z"/>
<path style="fill:#a3b6f1; stroke:none;" d="M856 534L857 535L856 534M201 535L202 536L201 535z"/>
<path style="fill:#5a89eb; stroke:none;" d="M214 535L215 536L214 535M273 535L274 536L273 535z"/>
<path style="fill:#a3b6f1; stroke:none;" d="M286 535L287 536L286 535z"/>
<path style="fill:#d0d9f7; stroke:none;" d="M533 535L534 536L533 535z"/>
<path style="fill:#5a89eb; stroke:none;" d="M562 535L563 536L562 535z"/>
<path style="fill:#a3b6f1; stroke:none;" d="M599 535L600 536L599 535M610 535L611 536L610 535z"/>
<path style="fill:#d0d9f7; stroke:none;" d="M652 535L653 536L652 535z"/>
<path style="fill:#a3b6f1; stroke:none;" d="M663 535L664 536L663 535z"/>
<path style="fill:#5a89eb; stroke:none;" d="M690.333 535.667L690.667 536.333L690.333 535.667z"/>
<path style="fill:#d0d9f7; stroke:none;" d="M700 535L701 536L700 535z"/>
<path style="fill:#5a89eb; stroke:none;" d="M759 535L760 536L759 535z"/>
<path style="fill:#a3b6f1; stroke:none;" d="M785 535L786 536L785 535M795 535L796 536L795 535z"/>
<path style="fill:#5a89eb; stroke:none;" d="M840 535L839 537L840 535z"/>
<path style="fill:#a3b6f1; stroke:none;" d="M841 535L842 536L841 535M855 535L856 536L855 535M202 536L203 537L202 536z"/>
<path style="fill:#5a89eb; stroke:none;" d="M215 536L216 537L215 536M272 536L273 537L272 536z"/>
<path style="fill:#a3b6f1; stroke:none;" d="M285 536L286 537L285 536z"/>
<path style="fill:#5a89eb; stroke:none;" d="M533 536L534 537L533 536z"/>
<path style="fill:#d0d9f7; stroke:none;" d="M561 536L562 537L561 536z"/>
<path style="fill:#5a89eb; stroke:none;" d="M599 536L600 537L599 536z"/>
<path style="fill:#d0d9f7; stroke:none;" d="M610 536L611 537L610 536M651 536L652 537L651 536M662 536L663 537L662 536z"/>
<path style="fill:#a3b6f1; stroke:none;" d="M700 536L701 537L700 536z"/>
<path style="fill:#d0d9f7; stroke:none;" d="M749 536L750 537L749 536M785.333 536.667L785.667 537.333L785.333 536.667z"/>
<path style="fill:#5a89eb; stroke:none;" d="M795 536L796 537L795 536z"/>
<path style="fill:#d0d9f7; stroke:none;" d="M840 536L841 537L840 536M854 536L855 537L854 536z"/>
<path style="fill:#a3b6f1; stroke:none;" d="M203 537L204 538L203 537z"/>
<path style="fill:#5a89eb; stroke:none;" d="M216 537L217 538L216 537M271 537L272 538L271 537z"/>
<path style="fill:#a3b6f1; stroke:none;" d="M284 537L285 538L284 537z"/>
<path style="fill:#d0d9f7; stroke:none;" d="M534 537L535 538L534 537z"/>
<path style="fill:#a3b6f1; stroke:none;" d="M561 537L562 538L561 537z"/>
<path style="fill:#d0d9f7; stroke:none;" d="M600 537L601 538L600 537z"/>
<path style="fill:#a3b6f1; stroke:none;" d="M611 537L612 538L611 537M650 537L651 538L650 537z"/>
<path style="fill:#5a89eb; stroke:none;" d="M662 537L663 538L662 537z"/>
<path style="fill:#a3b6f1; stroke:none;" d="M690 537L691 538L690 537z"/>
<path style="fill:#5a89eb; stroke:none;" d="M700 537L701 538L700 537M748 537L749 538L748 537z"/>
<path style="fill:#d0d9f7; stroke:none;" d="M758 537L759 538L758 537M794 537L795 538L794 537z"/>
<path style="fill:#a3b6f1; stroke:none;" d="M838 537L839 538L838 537z"/>
<path style="fill:#d0d9f7; stroke:none;" d="M853 537L854 538L853 537z"/>
<path style="fill:#a3b6f1; stroke:none;" d="M204 538L205 539L204 538z"/>
<path style="fill:#5a89eb; stroke:none;" d="M217 538L218 539L217 538M270 538L271 539L270 538z"/>
<path style="fill:#a3b6f1; stroke:none;" d="M283 538L284 539L283 538M534 538L535 539L534 538z"/>
<path style="fill:#d0d9f7; stroke:none;" d="M560 538L561 539L560 538z"/>
<path style="fill:#a3b6f1; stroke:none;" d="M600 538L601 539L600 538z"/>
<path style="fill:#5a89eb; stroke:none;" d="M612 538L613 539L612 538z"/>
<path style="fill:#a3b6f1; stroke:none;" d="M649 538L650 539L649 538M661 538L662 539L661 538z"/>
<path style="fill:#d0d9f7; stroke:none;" d="M690 538L691 539L690 538M699 538L700 539L699 538z"/>
<path style="fill:#a3b6f1; stroke:none;" d="M748 538L749 539L748 538M758 538L759 539L758 538z"/>
<path style="fill:#5a89eb; stroke:none;" d="M784 538L785 539L784 538z"/>
<path style="fill:#a3b6f1; stroke:none;" d="M794.333 538.667L794.667 539.333L794.333 538.667M836 538L837 539L836 538M852 538L853 539L852 538M205 539L206 540L205 539z"/>
<path style="fill:#5a89eb; stroke:none;" d="M218 539L219 540L218 539M269 539L270 540L269 539z"/>
<path style="fill:#a3b6f1; stroke:none;" d="M282 539L283 540L282 539M560 539L561 540L560 539M648 539L649 540L648 539z"/>
<path style="fill:#d0d9f7; stroke:none;" d="M660 539L659 541L660 539z"/>
<path style="fill:#5a89eb; stroke:none;" d="M689 539L690 540L689 539z"/>
<path style="fill:#a3b6f1; stroke:none;" d="M699.333 539.667L699.667 540.333L699.333 539.667z"/>
<path style="fill:#d0d9f7; stroke:none;" d="M748 539L749 540L748 539z"/>
<path style="fill:#5a89eb; stroke:none;" d="M758 539L759 540L758 539z"/>
<path style="fill:#a3b6f1; stroke:none;" d="M784 539L785 540L784 539M834 539L835 540L834 539z"/>
<path style="fill:#d0d9f7; stroke:none;" d="M835 539L836 540L835 539z"/>
<path style="fill:#a3b6f1; stroke:none;" d="M851 539L852 540L851 539M206 540L207 541L206 540z"/>
<path style="fill:#5a89eb; stroke:none;" d="M219 540L220 541L219 540M268 540L269 541L268 540z"/>
<path style="fill:#a3b6f1; stroke:none;" d="M281 540L282 541L281 540M535 540L536 541L535 540z"/>
<path style="fill:#5a89eb; stroke:none;" d="M560 540L561 541L560 540z"/>
<path style="fill:#a3b6f1; stroke:none;" d="M601 540L602 541L601 540z"/>
<path style="fill:#d0d9f7; stroke:none;" d="M613 540L614 541L613 540M647 540L648 541L647 540z"/>
<path style="fill:#5a89eb; stroke:none;" d="M660 540L661 541L660 540z"/>
<path style="fill:#a3b6f1; stroke:none;" d="M689 540L690 541L689 540z"/>
<path style="fill:#d0d9f7; stroke:none;" d="M784 540L785 541L784 540z"/>
<path style="fill:#5a89eb; stroke:none;" d="M794 540L795 541L794 540z"/>
<path style="fill:#a3b6f1; stroke:none;" d="M832 540L833 541L832 540z"/>
<path style="fill:#d0d9f7; stroke:none;" d="M833 540L834 541L833 540z"/>
<path style="fill:#a3b6f1; stroke:none;" d="M850 540L851 541L850 540M207 541L208 542L207 541z"/>
<path style="fill:#5a89eb; stroke:none;" d="M220 541L221 542L220 541M229 541L229 544L230 544L229 541z"/>
<path style="fill:#d0d9f7; stroke:none;" d="M257 541C250.935 545.595 237.45 543 230 543L230 544C234.264 544 257.808 545.903 257 541z"/>
<path style="fill:#5a89eb; stroke:none;" d="M267 541L268 542L267 541z"/>
<path style="fill:#a3b6f1; stroke:none;" d="M280 541L281 542L280 541z"/>
<path style="fill:#5a89eb; stroke:none;" d="M535 541L536 542L535 541z"/>
<path style="fill:#d0d9f7; stroke:none;" d="M559 541L560 542L559 541z"/>
<path style="fill:#5a89eb; stroke:none;" d="M601 541L602 542L601 541M615 541L616 542L615 541M645 541L646 542L645 541M659 541L660 542L659 541z"/>
<path style="fill:#d0d9f7; stroke:none;" d="M689.333 541.667L689.667 542.333L689.333 541.667z"/>
<path style="fill:#5a89eb; stroke:none;" d="M699 541L700 542L699 541M747 541L748 542L747 541z"/>
<path style="fill:#d0d9f7; stroke:none;" d="M757 541L758 542L757 541M793 541L794 542L793 541z"/>
<path style="fill:#5a89eb; stroke:none;" d="M829 541L830 542L829 541z"/>
<path style="fill:#d0d9f7; stroke:none;" d="M830 541L831 542L830 541M848 541L849 542L848 541z"/>
<path style="fill:#5a89eb; stroke:none;" d="M849 541L850 542L849 541z"/>
<path style="fill:#a3b6f1; stroke:none;" d="M208 542L209 543L208 542z"/>
<path style="fill:#5a89eb; stroke:none;" d="M221 542L222 543L221 542M266 542L267 543L266 542z"/>
<path style="fill:#a3b6f1; stroke:none;" d="M279 542L280 543L279 542z"/>
<path style="fill:#d0d9f7; stroke:none;" d="M536 542L537 543L536 542z"/>
<path style="fill:#5a89eb; stroke:none;" d="M559 542L560 543L559 542z"/>
<path style="fill:#a3b6f1; stroke:none;" d="M602 542L603 543L602 542M616 542L617 543L616 542z"/>
<path style="fill:#5a89eb; stroke:none;" d="M643 542L644 543L643 542z"/>
<path style="fill:#d0d9f7; stroke:none;" d="M644 542L645 543L644 542z"/>
<path style="fill:#a3b6f1; stroke:none;" d="M658 542L659 543L658 542z"/>
<path style="fill:#d0d9f7; stroke:none;" d="M698 542L699 543L698 542z"/>
<path style="fill:#a3b6f1; stroke:none;" d="M747 542L748 543L747 542M757 542L758 543L757 542z"/>
<path style="fill:#5a89eb; stroke:none;" d="M783 542L784 543L783 542z"/>
<path style="fill:#a3b6f1; stroke:none;" d="M793 542L794 543L793 542z"/>
<path style="fill:#5a89eb; stroke:none;" d="M825.667 542.333L826.333 542.667L825.667 542.333z"/>
<path style="fill:#d0d9f7; stroke:none;" d="M827 542L828 543L827 542M847 542L848 543L847 542z"/>
<path style="fill:#a3b6f1; stroke:none;" d="M209 543L210 544L209 543z"/>
<path style="fill:#5a89eb; stroke:none;" d="M222 543L223 544L222 543z"/>
<path style="fill:#a3b6f1; stroke:none;" d="M257 543L258 544L257 543z"/>
<path style="fill:#5a89eb; stroke:none;" d="M265 543L266 544L265 543z"/>
<path style="fill:#a3b6f1; stroke:none;" d="M278 543L279 544L278 543z"/>
<path style="fill:#5a89eb; stroke:none;" d="M536 543L537 544L536 543z"/>
<path style="fill:#d0d9f7; stroke:none;" d="M558 543L559 544L558 543M603 543L604 544L603 543M617 543L618 544L617 543z"/>
<path style="fill:#a3b6f1; stroke:none;" d="M618 543L619 544L618 543z"/>
<path style="fill:#5a89eb; stroke:none;" d="M641 543L642 544L641 543z"/>
<path style="fill:#a3b6f1; stroke:none;" d="M642 543L643 544L642 543M657 543L658 544L657 543z"/>
<path style="fill:#5a89eb; stroke:none;" d="M688 543L689 544L688 543z"/>
<path style="fill:#a3b6f1; stroke:none;" d="M698 543L699 544L698 543z"/>
<path style="fill:#d0d9f7; stroke:none;" d="M747 543L748 544L747 543z"/>
<path style="fill:#a3b6f1; stroke:none;" d="M783 543L784 544L783 543z"/>
<path style="fill:#5a89eb; stroke:none;" d="M793 543L794 544L793 543M821 543L822 544L821 543z"/>
<path style="fill:#a3b6f1; stroke:none;" d="M822 543L823 544L822 543z"/>
<path style="fill:#d0d9f7; stroke:none;" d="M823.667 543.333L824.333 543.667L823.667 543.333z"/>
<path style="fill:#a3b6f1; stroke:none;" d="M846 543L847 544L846 543M210 544L211 545L210 544z"/>
<path style="fill:#5a89eb; stroke:none;" d="M223 544L224 545L223 544M264 544L265 545L264 544z"/>
<path style="fill:#a3b6f1; stroke:none;" d="M277 544L278 545L277 544M558 544L559 545L558 544z"/>
<path style="fill:#d0d9f7; stroke:none;" d="M619 544L620 545L619 544z"/>
<path style="fill:#a3b6f1; stroke:none;" d="M620 544L621 545L620 544z"/>
<path style="fill:#5a89eb; stroke:none;" d="M621 544L622 545L621 544M639 544L640 545L639 544z"/>
<path style="fill:#d0d9f7; stroke:none;" d="M640 544L641 545L640 544z"/>
<path style="fill:#a3b6f1; stroke:none;" d="M656 544L657 545L656 544M688 544L689 545L688 544z"/>
<path style="fill:#5a89eb; stroke:none;" d="M698 544L699 545L698 544z"/>
<path style="fill:#d0d9f7; stroke:none;" d="M756 544L757 545L756 544M783 544L784 545L783 544z"/>
<path style="fill:#a3b6f1; stroke:none;" d="M793 544L793 545L817 545L793 544z"/>
<path style="fill:#d0d9f7; stroke:none;" d="M817 544L817 545L820 545L817 544M844 544L845 545L844 544z"/>
<path style="fill:#5a89eb; stroke:none;" d="M845 544L846 545L845 544z"/>
<path style="fill:#a3b6f1; stroke:none;" d="M211 545L212 546L211 545z"/>
<path style="fill:#5a89eb; stroke:none;" d="M224 545L225 546L224 545M263 545L264 546L263 545z"/>
<path style="fill:#a3b6f1; stroke:none;" d="M276 545L277 546L276 545M537 545L538 546L537 545z"/>
<path style="fill:#5a89eb; stroke:none;" d="M604 545L605 546L604 545z"/>
<path style="fill:#d0d9f7; stroke:none;" d="M622.667 545.333L623.333 545.667L622.667 545.333z"/>
<path style="fill:#a3b6f1; stroke:none;" d="M624 545L625 546L624 545z"/>
<path style="fill:#5a89eb; stroke:none;" d="M625 545L625 546L628 546L625 545M633 545L633 546L636 546L633 545z"/>
<path style="fill:#a3b6f1; stroke:none;" d="M636 545L637 546L636 545z"/>
<path style="fill:#d0d9f7; stroke:none;" d="M637 545L638 546L637 545z"/>
<path style="fill:#a3b6f1; stroke:none;" d="M655 545L656 546L655 545z"/>
<path style="fill:#d0d9f7; stroke:none;" d="M688 545L689 546L688 545z"/>
<path style="fill:#5a89eb; stroke:none;" d="M746 545L747 546L746 545z"/>
<path style="fill:#a3b6f1; stroke:none;" d="M756 545L757 546L756 545z"/>
<path style="fill:#5a89eb; stroke:none;" d="M782.333 545.667L782.667 546.333L782.333 545.667z"/>
<path style="fill:#d0d9f7; stroke:none;" d="M842 545L843 546L842 545z"/>
<path style="fill:#5a89eb; stroke:none;" d="M843 545L844 546L843 545z"/>
<path style="fill:#a3b6f1; stroke:none;" d="M212 546L213 547L212 546z"/>
<path style="fill:#5a89eb; stroke:none;" d="M225 546L226 547L225 546M262 546L263 547L262 546z"/>
<path style="fill:#a3b6f1; stroke:none;" d="M275 546L276 547L275 546z"/>
<path style="fill:#5a89eb; stroke:none;" d="M537 546L538 547L537 546z"/>
<path style="fill:#d0d9f7; stroke:none;" d="M557 546L558 547L557 546z"/>
<path style="fill:#5a89eb; stroke:none;" d="M605 546L606 547L605 546z"/>
<path style="fill:#d0d9f7; stroke:none;" d="M628 546L628 547L633 547L628 546z"/>
<path style="fill:#a3b6f1; stroke:none;" d="M654 546L655 547L654 546z"/>
<path style="fill:#d0d9f7; stroke:none;" d="M697 546L698 547L697 546z"/>
<path style="fill:#a3b6f1; stroke:none;" d="M746 546L747 547L746 546z"/>
<path style="fill:#5a89eb; stroke:none;" d="M756.333 546.667L756.667 547.333L756.333 546.667z"/>
<path style="fill:#a3b6f1; stroke:none;" d="M841 546L842 547L841 546M213 547L214 548L213 547z"/>
<path style="fill:#5a89eb; stroke:none;" d="M226 547L227 548L226 547M261 547L262 548L261 547z"/>
<path style="fill:#a3b6f1; stroke:none;" d="M274 547L275 548L274 547z"/>
<path style="fill:#d0d9f7; stroke:none;" d="M538 547L539 548L538 547z"/>
<path style="fill:#5a89eb; stroke:none;" d="M557 547L558 548L557 547M606 547L607 548L606 547M653 547L654 548L653 547M687 547L688 548L687 547z"/>
<path style="fill:#a3b6f1; stroke:none;" d="M697 547L698 548L697 547z"/>
<path style="fill:#d0d9f7; stroke:none;" d="M746 547L747 548L746 547z"/>
<path style="fill:#a3b6f1; stroke:none;" d="M782 547L783 548L782 547z"/>
<path style="fill:#d0d9f7; stroke:none;" d="M838 547L839 548L838 547z"/>
<path style="fill:#a3b6f1; stroke:none;" d="M839 547L840 548L839 547M214 548L215 549L214 548z"/>
<path style="fill:#5a89eb; stroke:none;" d="M260 548L261 549L260 548z"/>
<path style="fill:#a3b6f1; stroke:none;" d="M273 548L274 549L273 548z"/>
<path style="fill:#5a89eb; stroke:none;" d="M538 548L539 549L538 548z"/>
<path style="fill:#d0d9f7; stroke:none;" d="M556 548L557 549L556 548z"/>
<path style="fill:#5a89eb; stroke:none;" d="M607 548L608 549L607 548z"/>
<path style="fill:#d0d9f7; stroke:none;" d="M608 548L609 549L608 548M651 548L652 549L651 548z"/>
<path style="fill:#a3b6f1; stroke:none;" d="M687 548L688 549L687 548z"/>
<path style="fill:#5a89eb; stroke:none;" d="M697 548L698 549L697 548z"/>
<path style="fill:#d0d9f7; stroke:none;" d="M755 548L756 549L755 548M782 548L783 549L782 548M836 548L837 549L836 548z"/>
<path style="fill:#5a89eb; stroke:none;" d="M837 548L838 549L837 548z"/>
<path style="fill:#a3b6f1; stroke:none;" d="M215 549L216 550L215 549z"/>
<path style="fill:#d0d9f7; stroke:none;" d="M227 549L228 550L227 549z"/>
<path style="fill:#a3b6f1; stroke:none;" d="M272 549L273 550L272 549z"/>
<path style="fill:#d0d9f7; stroke:none;" d="M539 549L540 550L539 549z"/>
<path style="fill:#a3b6f1; stroke:none;" d="M556 549L557 550L556 549z"/>
<path style="fill:#d0d9f7; stroke:none;" d="M609 549L610 550L609 549z"/>
<path style="fill:#5a89eb; stroke:none;" d="M650 549L651 550L650 549z"/>
<path style="fill:#d0d9f7; stroke:none;" d="M687 549L688 550L687 549z"/>
<path style="fill:#a3b6f1; stroke:none;" d="M745 549L746 550L745 549M755 549L756 550L755 549z"/>
<path style="fill:#d0d9f7; stroke:none;" d="M833 549L834 550L833 549z"/>
<path style="fill:#a3b6f1; stroke:none;" d="M834 549L835 550L834 549z"/>
<path style="fill:#5a89eb; stroke:none;" d="M835 549L836 550L835 549z"/>
<path style="fill:#a3b6f1; stroke:none;" d="M216 550L217 551L216 550z"/>
<path style="fill:#d0d9f7; stroke:none;" d="M228 550L229 551L228 550z"/>
<path style="fill:#5a89eb; stroke:none;" d="M258 550L259 551L258 550z"/>
<path style="fill:#d0d9f7; stroke:none;" d="M259 550L260 551L259 550z"/>
<path style="fill:#a3b6f1; stroke:none;" d="M271 550L272 551L271 550M539 550L540 551L539 550z"/>
<path style="fill:#5a89eb; stroke:none;" d="M556 550L557 551L556 550z"/>
<path style="fill:#a3b6f1; stroke:none;" d="M610 550L611 551L610 550z"/>
<path style="fill:#d0d9f7; stroke:none;" d="M611 550L612 551L611 550z"/>
<path style="fill:#a3b6f1; stroke:none;" d="M648 550L649 551L648 550z"/>
<path style="fill:#5a89eb; stroke:none;" d="M686 550L687 551L686 550z"/>
<path style="fill:#d0d9f7; stroke:none;" d="M696 550L697 551L696 550M745.333 550.667L745.667 551.333L745.333 550.667z"/>
<path style="fill:#5a89eb; stroke:none;" d="M755 550L756 551L755 550z"/>
<path style="fill:#a3b6f1; stroke:none;" d="M781 550L782 551L781 550z"/>
<path style="fill:#d0d9f7; stroke:none;" d="M830 550L831 551L830 550z"/>
<path style="fill:#a3b6f1; stroke:none;" d="M831 550L832 551L831 550z"/>
<path style="fill:#5a89eb; stroke:none;" d="M832 550L833 551L832 550z"/>
<path style="fill:#a3b6f1; stroke:none;" d="M217 551L218 552L217 551z"/>
<path style="fill:#d0d9f7; stroke:none;" d="M229 551L230 552L229 551M258 551L259 552L258 551z"/>
<path style="fill:#a3b6f1; stroke:none;" d="M270 551L271 552L270 551M555 551L556 552L555 551M612 551L613 552L612 551z"/>
<path style="fill:#d0d9f7; stroke:none;" d="M613 551L614 552L613 551z"/>
<path style="fill:#a3b6f1; stroke:none;" d="M646 551L647 552L646 551z"/>
<path style="fill:#5a89eb; stroke:none;" d="M647 551L648 552L647 551z"/>
<path style="fill:#a3b6f1; stroke:none;" d="M686 551L687 552L686 551M696 551L697 552L696 551z"/>
<path style="fill:#d0d9f7; stroke:none;" d="M781 551L782 552L781 551M826.667 551.333L827.333 551.667L826.667 551.333z"/>
<path style="fill:#a3b6f1; stroke:none;" d="M828 551L829 552L828 551z"/>
<path style="fill:#5a89eb; stroke:none;" d="M829 551L830 552L829 551z"/>
<path style="fill:#a3b6f1; stroke:none;" d="M218 552L219 553L218 552z"/>
<path style="fill:#d0d9f7; stroke:none;" d="M230 552L231 553L230 552M257 552L258 553L257 552z"/>
<path style="fill:#a3b6f1; stroke:none;" d="M269 552L270 553L269 552M540 552L541 553L540 552z"/>
<path style="fill:#5a89eb; stroke:none;" d="M555 552L556 553L555 552z"/>
<path style="fill:#a3b6f1; stroke:none;" d="M614 552L615 553L614 552z"/>
<path style="fill:#d0d9f7; stroke:none;" d="M615 552L616 553L615 552M643 552L644 553L643 552z"/>
<path style="fill:#a3b6f1; stroke:none;" d="M644 552L645 553L644 552z"/>
<path style="fill:#d0d9f7; stroke:none;" d="M686 552L686 553L695 554L695 553L686 552z"/>
<path style="fill:#5a89eb; stroke:none;" d="M696 552L697 553L696 552M744.333 552.667L744.667 553.333L744.333 552.667z"/>
<path style="fill:#d0d9f7; stroke:none;" d="M754 552L745 553L745 554L755 553L754 552M821.667 552.333L822.333 552.667L821.667 552.333z"/>
<path style="fill:#a3b6f1; stroke:none;" d="M823.667 552.333L824.333 552.667L823.667 552.333z"/>
<path style="fill:#5a89eb; stroke:none;" d="M825 552L826 553L825 552z"/>
<path style="fill:#a3b6f1; stroke:none;" d="M219 553L220 554L219 553z"/>
<path style="fill:#d0d9f7; stroke:none;" d="M231 553L232 554L231 553M256 553L257 554L256 553z"/>
<path style="fill:#a3b6f1; stroke:none;" d="M268 553L269 554L268 553M347 553L348 554L347 553z"/>
<path style="fill:#d0d9f7; stroke:none;" d="M348 553L348 554L362 554L348 553M451 553L451 554L466 554L451 553z"/>
<path style="fill:#5a89eb; stroke:none;" d="M466 553L467 554L466 553M540 553L541 554L540 553z"/>
<path style="fill:#d0d9f7; stroke:none;" d="M554 553L555 554L554 553z"/>
<path style="fill:#5a89eb; stroke:none;" d="M616 553L617 554L616 553z"/>
<path style="fill:#a3b6f1; stroke:none;" d="M617 553L618 554L617 553z"/>
<path style="fill:#d0d9f7; stroke:none;" d="M618 553L619 554L618 553M640 553L641 554L640 553z"/>
<path style="fill:#a3b6f1; stroke:none;" d="M641 553L642 554L641 553z"/>
<path style="fill:#5a89eb; stroke:none;" d="M642 553L643 554L642 553z"/>
<path style="fill:#a3b6f1; stroke:none;" d="M686 553L687 554L686 553M695 553L696 554L695 553M754 553L755 554L754 553z"/>
<path style="fill:#d0d9f7; stroke:none;" d="M781 553L781 554L816 554L781 553z"/>
<path style="fill:#a3b6f1; stroke:none;" d="M816 553L816 554L819 554L816 553M220 554L221 555L220 554z"/>
<path style="fill:#d0d9f7; stroke:none;" d="M232 554L233 555L232 554M255 554L256 555L255 554z"/>
<path style="fill:#a3b6f1; stroke:none;" d="M267 554L268 555L267 554z"/>
<path style="fill:#5a89eb; stroke:none;" d="M541 554L541 555L555 555L541 554M620 554L621 555L620 554z"/>
<path style="fill:#a3b6f1; stroke:none;" d="M621.667 554.333L622.333 554.667L621.667 554.333z"/>
<path style="fill:#d0d9f7; stroke:none;" d="M623 554L623 555L627 555L623 554M632 554L632 555L636 555L632 554z"/>
<path style="fill:#a3b6f1; stroke:none;" d="M636.667 554.333L637.333 554.667L636.667 554.333z"/>
<path style="fill:#5a89eb; stroke:none;" d="M638 554L639 555L638 554z"/>
<path style="fill:#a3b6f1; stroke:none;" d="M221 555L222 556L221 555z"/>
<path style="fill:#d0d9f7; stroke:none;" d="M233 555L234 556L233 555M254 555L255 556L254 555z"/>
<path style="fill:#a3b6f1; stroke:none;" d="M266 555L267 556L266 555z"/>
<path style="fill:#5a89eb; stroke:none;" d="M627 555L627 556L632 556L627 555z"/>
<path style="fill:#a3b6f1; stroke:none;" d="M222 556L223 557L222 556z"/>
<path style="fill:#d0d9f7; stroke:none;" d="M234 556L235 557L234 556M253 556L254 557L253 556z"/>
<path style="fill:#a3b6f1; stroke:none;" d="M265 556L266 557L265 556M223 557L224 558L223 557z"/>
<path style="fill:#d0d9f7; stroke:none;" d="M235 557L236 558L235 557M252 557L253 558L252 557z"/>
<path style="fill:#a3b6f1; stroke:none;" d="M264 557L265 558L264 557M224 558L225 559L224 558z"/>
<path style="fill:#d0d9f7; stroke:none;" d="M236 558L237 559L236 558M251 558L252 559L251 558z"/>
<path style="fill:#a3b6f1; stroke:none;" d="M263 558L264 559L263 558M225 559L226 560L225 559z"/>
<path style="fill:#d0d9f7; stroke:none;" d="M237 559L238 560L237 559M250 559L251 560L250 559z"/>
<path style="fill:#a3b6f1; stroke:none;" d="M262 559L263 560L262 559M226 560L227 561L226 560z"/>
<path style="fill:#d0d9f7; stroke:none;" d="M238 560L239 561L238 560M249 560L250 561L249 560z"/>
<path style="fill:#a3b6f1; stroke:none;" d="M261 560L262 561L261 560M227 561L228 562L227 561z"/>
<path style="fill:#d0d9f7; stroke:none;" d="M239 561L240 562L239 561M248 561L249 562L248 561z"/>
<path style="fill:#a3b6f1; stroke:none;" d="M260 561L261 562L260 561M228 562L229 563L228 562z"/>
<path style="fill:#d0d9f7; stroke:none;" d="M240 562L241 563L240 562M247 562L248 563L247 562z"/>
<path style="fill:#a3b6f1; stroke:none;" d="M259 562L260 563L259 562M229 563L230 564L229 563z"/>
<path style="fill:#d0d9f7; stroke:none;" d="M241 563L242 564L241 563M246 563L247 564L246 563z"/>
<path style="fill:#a3b6f1; stroke:none;" d="M258 563L259 564L258 563M230 564L231 565L230 564z"/>
<path style="fill:#d0d9f7; stroke:none;" d="M242 564L243 565L242 564M245 564L246 565L245 564z"/>
<path style="fill:#a3b6f1; stroke:none;" d="M257 564L258 565L257 564M231 565L232 566L231 565z"/>
<path style="fill:#d0d9f7; stroke:none;" d="M243.667 565.333L244.333 565.667L243.667 565.333z"/>
<path style="fill:#a3b6f1; stroke:none;" d="M256 565L257 566L256 565M232 566L233 567L232 566M255 566L256 567L255 566M233 567L234 568L233 567M254 567L255 568L254 567M234 568L235 569L234 568M253 568L254 569L253 568M235 569L236 570L235 569M252 569L253 570L252 569M236 570L237 571L236 570M251 570L252 571L251 570z"/>
<path style="fill:#d0d9f7; stroke:none;" d="M237 571L238 572L237 571z"/>
<path style="fill:#a3b6f1; stroke:none;" d="M250 571L251 572L250 571z"/>
<path style="fill:#d0d9f7; stroke:none;" d="M238 572L239 573L238 572z"/>
<path style="fill:#a3b6f1; stroke:none;" d="M249 572L250 573L249 572M239 573L240 574L239 573M248 573L249 574L248 573z"/>
<path style="fill:#d0d9f7; stroke:none;" d="M240 574L241 575L240 574z"/>
<path style="fill:#a3b6f1; stroke:none;" d="M247 574L248 575L247 574z"/>
<path style="fill:#d0d9f7; stroke:none;" d="M241 575L242 576L241 575z"/>
<path style="fill:#a3b6f1; stroke:none;" d="M246 575L247 576L246 575z"/>
<path style="fill:#d0d9f7; stroke:none;" d="M242 576L243 577L242 576z"/>
<path style="fill:#a3b6f1; stroke:none;" d="M245 576L246 577L245 576z"/>
<path style="fill:#d0d9f7; stroke:none;" d="M243 577L244 578L243 577z"/>
<path style="fill:#a3b6f1; stroke:none;" d="M244 577L245 578L244 577z"/>
</svg>
