<svg xmlns="http://www.w3.org/2000/svg" viewBox="0 0 283.46 283.46"><defs><style>.cls-1{fill:#fff;}.cls-2{fill:#f37021;}.cls-3{fill:#cc004c;}.cls-4{fill:#6460aa;}.cls-5{fill:#0089d0;}.cls-6{fill:#0db14b;}.cls-7{fill:#fcb711;}</style></defs><g id="Layer_2" data-name="Layer 2"><g id="Sport"><g id="golfchannel"><rect width="283.46" height="283.46"/><g id="logo"><path class="cls-1" d="M51.05,152.9a8.38,8.38,0,0,1-8.53-8.32c0-5.86,5-9,7.85-8.62a8.4,8.4,0,0,1-3.14-6.48,8.69,8.69,0,0,1,8.8-8.74,6.85,6.85,0,0,1,4.14,1.19A6.55,6.55,0,0,1,60,120.7a8.39,8.39,0,0,1,8.4-8.72,8.08,8.08,0,0,1,7.64,4.54A8,8,0,0,1,83.66,112a8.37,8.37,0,0,1,8.5,8.54A4.23,4.23,0,0,1,92,122a6.45,6.45,0,0,1,4.22-1.2,8.58,8.58,0,0,1,8.72,8.76,8.25,8.25,0,0,1-3,6.39c3.67,0,7.76,3.33,7.76,8.54a8.34,8.34,0,0,1-8.5,8.45Z"/><path class="cls-2" d="M51.43,124.43a6.83,6.83,0,0,0,1.15,10.87l18.85,12.9-9.14-20.89c-1.91-4.92-7.15-6-10.86-2.87"/><path class="cls-3" d="M68,113.92a6.61,6.61,0,0,0-5.53,9.13L71.73,145l3.27-23c.76-5.72-3.58-8.37-7-8"/><path class="cls-4" d="M77,121.07h1.76l1.07.44c-.7.57-2.58.64-2.33,3.66l3,19.85,9.26-22a6.69,6.69,0,0,0-5.61-9.14l-.5,0a6.55,6.55,0,0,0-6.61,7.2"/><path class="cls-5" d="M89.64,127.5,80.7,148.27l19-13.05A6.79,6.79,0,0,0,96,122.7c-2.36,0-4.88,1.25-6.34,4.8"/><path class="cls-6" d="M97.5,138.88,80.06,151h21.47c4.41,0,7.24-4.53,6-8.69a6.74,6.74,0,0,0-6.23-4.67,6.82,6.82,0,0,0-3.78,1.21"/><path class="cls-7" d="M51.19,151.05h21L54.87,139c-4-2.57-8.49-1.07-10.12,3.19a6.73,6.73,0,0,0,6.44,8.87"/><path class="cls-1" d="M170.43,112a20.34,20.34,0,0,0-20.33,17.54H139.28c-1.21,0-1.45.27-2.08,1.7l-2.38,5.29h12.33a12.27,12.27,0,0,1-11.7,8.94c-7.3,0-12.32-6.29-12.32-12.92,0-8.21,6.28-13,12.38-13a14.44,14.44,0,0,1,8.45,2.91,1.82,1.82,0,0,0,2.84-.28l2.83-4.85A20.29,20.29,0,0,0,135.74,112c-10.69,0-20.85,7.76-20.85,20.53a20.4,20.4,0,0,0,20.43,20.39,20.71,20.71,0,0,0,20-16.4,20.73,20.73,0,0,1-1.4,8.25,20.51,20.51,0,0,0,16.42,8.18,20.18,20.18,0,0,0,17.5-9.94v4.62a4.54,4.54,0,0,0,4.55,4.81h27.37a2.56,2.56,0,0,0,2.79-2.79v-13h11.16c1.43,0,1.88-.45,2.56-1.83l2.33-5.29h-16V120h13.63c1.17,0,1.58-.51,2.08-1.54l2.65-6H219.17a4.49,4.49,0,0,0-4.8,4.8V151l-2.22-5.1a1.81,1.81,0,0,0-1.8-1.09H196.08v-29.6a2.56,2.56,0,0,0-2.79-2.79h-5.42v6.35a22,22,0,0,1,2.25,8.27c-2.37-8-9.42-15.1-19.69-15.1Zm-.08,7.57c6.53,0,12.23,5.66,12.23,12.89s-5.84,13-12.27,13c-6.85,0-12.19-6.3-12.19-13s5-12.92,12.23-12.92Z"/><path class="cls-1" d="M121.81,169a4.3,4.3,0,0,0,2.47-.78c.46-.37.92-.41,1.19,0l1,1.63a7,7,0,0,1-4.67,1.63,6.79,6.79,0,1,1,.06-13.58,6.74,6.74,0,0,1,4.63,1.64l-1,1.63c-.14.2-.48.47-1.15,0a4.75,4.75,0,0,0-2.51-.78,4.11,4.11,0,0,0-4.06,4.25,4.15,4.15,0,0,0,4.06,4.35Z"/><path class="cls-1" d="M138.13,165.9v5.42h-1.08a1.58,1.58,0,0,1-1.63-1.7V158.07h1.78a.83.83,0,0,1,.93.86v4.49h5v-5.35h1.69c.49,0,1,.19,1,.92v12.33h-1.16a1.45,1.45,0,0,1-1.55-1.55V165.9Z"/><path class="cls-1" d="M158.92,158.09,154.45,170c-.4,1-.23,1.31.42,1.31h1.92l1-2.79h4.73l.61,1.79c.24.57.54,1,1.2,1h2.07L162,159.53c-.31-.94-.72-1.44-1.62-1.44Zm1.22,3.84,1.6,4.45h-3.2Z"/><path class="cls-1" d="M177.41,171.32h-1.78a.87.87,0,0,1-.93-.93V158.07h1.81c1,0,1.25.71,1.7,1.37l4.24,7.23v-8.6h1.84c.62,0,.87.39.87,1v12.23h-1.78c-1,0-1.41-.57-1.83-1.28l-4.14-7.19Z"/><path class="cls-1" d="M197.52,171.32h-1.79a.87.87,0,0,1-.93-.93V158.07h1.81c.95,0,1.25.71,1.71,1.37l4.23,7.23v-8.6h1.85c.62,0,.86.39.86,1v12.23h-1.78c-1,0-1.4-.57-1.83-1.28l-4.13-7.19Z"/><path class="cls-1" d="M222,171.32h-5.58a1.5,1.5,0,0,1-1.55-1.7V158.07h8.9l-1,2.14a.69.69,0,0,1-.73.42h-4.4v3H223l-.93,1.85c-.16.35-.27.47-.64.47h-3.85v2.94h6l-.93,2a.7.7,0,0,1-.77.46Z"/><path class="cls-1" d="M240.91,171.32h-7a1.5,1.5,0,0,1-1.63-1.7V158.07h1.79c.57,0,.93.2.93.9v9.87h4.18c.54,0,.63.07.9.59Z"/></g></g></g></g></svg>