<svg xmlns="http://www.w3.org/2000/svg" viewBox="0 0 283.46 283.46"><defs><style>.cls-1{fill:#fff;}.cls-2{fill:#f37021;}.cls-3{fill:#cc004c;}.cls-4{fill:#6460aa;}.cls-5{fill:#0089d0;}.cls-6{fill:#0db14b;}.cls-7{fill:#fcb711;}</style></defs><title>golfchannel</title><g id="Layer_2" data-name="Layer 2"><g id="Sport"><g id="golfchannel"><rect width="283.46" height="283.46"/><g id="logo"><path class="cls-1" d="M51,152.9a8.38,8.38,0,0,1-8.53-8.33c0-5.86,5-9,7.85-8.61a8.41,8.41,0,0,1-3.14-6.48,8.69,8.69,0,0,1,8.8-8.74,6.85,6.85,0,0,1,4.14,1.19A5.83,5.83,0,0,1,60,120.7a8.39,8.39,0,0,1,8.4-8.72,8.09,8.09,0,0,1,7.65,4.54A8,8,0,0,1,83.66,112a8.37,8.37,0,0,1,8.5,8.54A4.26,4.26,0,0,1,92,122a6.44,6.44,0,0,1,4.22-1.2,8.57,8.57,0,0,1,8.72,8.76,8.24,8.24,0,0,1-3,6.39c3.67,0,7.76,3.33,7.76,8.54a8.34,8.34,0,0,1-8.5,8.45Z"/><path class="cls-2" d="M51.43,124.43a6.83,6.83,0,0,0,1.15,10.87l18.85,12.9-9.14-20.89c-1.91-4.92-7.16-6-10.86-2.87"/><path class="cls-3" d="M68,113.92A6.6,6.6,0,0,0,62.42,123l9.31,21.9,3.27-23c.76-5.72-3.59-8.37-7-8"/><path class="cls-4" d="M77,121.07h1.76l1.07.44c-.69.57-2.58.64-2.33,3.66l3,19.85,9.26-22a6.69,6.69,0,0,0-5.61-9.14l-.5,0a6.56,6.56,0,0,0-6.62,7.2"/><path class="cls-5" d="M89.64,127.5,80.7,148.27l19-13.05A6.79,6.79,0,0,0,96,122.7c-2.36,0-4.88,1.25-6.34,4.8"/><path class="cls-6" d="M97.5,138.88,80.06,151h21.47c4.41,0,7.24-4.53,6-8.69a6.71,6.71,0,0,0-6.23-4.67,6.82,6.82,0,0,0-3.78,1.21"/><path class="cls-7" d="M51.19,151h21L54.87,139c-4-2.56-8.5-1.06-10.12,3.19a6.73,6.73,0,0,0,6.44,8.87"/><path class="cls-1" d="M170.43,112a20.34,20.34,0,0,0-20.33,17.54H139.28c-1.22,0-1.46.28-2.09,1.7l-2.37,5.29h12.33a12.28,12.28,0,0,1-11.7,8.94c-7.3,0-12.32-6.29-12.32-12.92,0-8.2,6.28-13,12.37-13a14.41,14.41,0,0,1,8.45,2.91,1.83,1.83,0,0,0,2.84-.29l2.83-4.85A20.25,20.25,0,0,0,135.74,112c-10.69,0-20.85,7.76-20.85,20.53a20.4,20.4,0,0,0,20.43,20.4,20.71,20.71,0,0,0,20-16.4,20.64,20.64,0,0,1-1.41,8.25,20.54,20.54,0,0,0,16.43,8.18A20.19,20.19,0,0,0,187.87,143v4.62a4.54,4.54,0,0,0,4.55,4.8h27.37a2.56,2.56,0,0,0,2.79-2.79v-13h11.16c1.43,0,1.89-.45,2.56-1.83l2.33-5.3H222.58V120h13.64c1.16,0,1.58-.52,2.07-1.54l2.66-6H219.17a4.49,4.49,0,0,0-4.8,4.8V151l-2.22-5.1a1.81,1.81,0,0,0-1.8-1.1H196.08v-29.6a2.56,2.56,0,0,0-2.79-2.79h-5.42v6.35a21.87,21.87,0,0,1,2.25,8.27c-2.37-8-9.42-15.1-19.69-15.1Zm-.08,7.58c6.53,0,12.23,5.66,12.23,12.89s-5.83,13-12.27,13c-6.85,0-12.19-6.3-12.19-13s5-12.92,12.23-12.92Z"/><path class="cls-1" d="M121.81,169a4.28,4.28,0,0,0,2.46-.78c.47-.37.93-.41,1.19,0l1,1.63a7,7,0,0,1-4.67,1.63,6.79,6.79,0,1,1,.06-13.58,6.74,6.74,0,0,1,4.63,1.65l-1,1.63c-.14.2-.47.47-1.15,0a4.73,4.73,0,0,0-2.5-.78,4.11,4.11,0,0,0-4.07,4.26,4.15,4.15,0,0,0,4.07,4.34Z"/><path class="cls-1" d="M138.13,165.9v5.42H137a1.58,1.58,0,0,1-1.63-1.7V158.07h1.78a.83.83,0,0,1,.93.85v4.49h5v-5.35h1.69c.5,0,1,.18,1,.92v12.33h-1.16a1.45,1.45,0,0,1-1.55-1.55V165.9Z"/><path class="cls-1" d="M158.92,158.09,154.45,170c-.4,1-.23,1.31.41,1.31h1.92l1-2.79h4.73l.61,1.79c.24.57.54,1,1.2,1h2.08L162,159.53c-.31-.94-.72-1.43-1.63-1.43h-1.45Zm1.22,3.84,1.59,4.45h-3.2Z"/><path class="cls-1" d="M177.41,171.32h-1.78a.87.87,0,0,1-.93-.93V158.07h1.81c1,0,1.25.71,1.7,1.37l4.24,7.23v-8.6h1.85c.62,0,.87.38.87,1v12.23h-1.78c-1,0-1.4-.57-1.83-1.29l-4.13-7.19Z"/><path class="cls-1" d="M197.52,171.32h-1.78a.87.87,0,0,1-.93-.93V158.07h1.81c1,0,1.25.71,1.7,1.37l4.24,7.23v-8.6h1.85c.62,0,.87.38.87,1v12.23h-1.78c-1,0-1.4-.57-1.83-1.29l-4.13-7.19Z"/><path class="cls-1" d="M222,171.32h-5.58a1.5,1.5,0,0,1-1.55-1.7V158.07h8.9l-1,2.14a.68.68,0,0,1-.72.42h-4.4v2.94H223l-.93,1.86c-.17.34-.28.46-.65.46h-3.85v2.94h6l-.93,2a.71.71,0,0,1-.77.46Z"/><path class="cls-1" d="M240.91,171.32h-7a1.5,1.5,0,0,1-1.63-1.7V158.07H234c.57,0,.93.2.93.9v9.87h4.18c.54,0,.63.06.9.58Z"/></g></g></g></g></svg>