<svg xmlns="http://www.w3.org/2000/svg" viewBox="0 0 283.46 283.46"><defs><style>.cls-1{fill:#fff;}</style></defs><g id="Layer_2" data-name="Layer 2"><g id="HBO_Cinemax" data-name="HBO &amp; Cinemax"><g id="hbo"><rect width="283.46" height="283.46"/><g id="logo"><path class="cls-1" d="M136.64,132.74H125.56V120.06h11.29c2.6,0,5.08,3.18,5.08,6.32s-2.43,6.36-5.29,6.36m.43,31.36H125.64V151.4h10.54c3.27,0,5.75,3,5.75,6.42,0,3.06-1.8,6.21-4.86,6.28m13.16-21.85a17.27,17.27,0,0,0,13.2-17c0-14.47-8.09-24.22-21.53-24.22H104.31v82.35l37.16,0a4.7,4.7,0,0,0,.53,0c13.44,0,21.53-9.75,21.53-24.2a17.26,17.26,0,0,0-13.3-17"/><path class="cls-1" d="M199.29,162.72c-11.25,0-20.37-9.4-20.37-21s9.12-21,20.37-21,20.38,9.4,20.38,21-9.12,21-20.38,21m0-63.87c-23,0-41.65,19.2-41.65,42.88s18.66,42.88,41.65,42.88,41.65-19.19,41.65-42.88-18.65-42.88-41.65-42.88"/><path class="cls-1" d="M199.29,125.28a16.46,16.46,0,1,0,16,16.45,16.23,16.23,0,0,0-16-16.45"/><path class="cls-1" d="M63.84,183.41H42.52V101.07H63.84v31H79v-31h21v82.34H79v-32H63.84"/></g></g></g></g></svg>