<svg xmlns="http://www.w3.org/2000/svg" viewBox="0 0 283.46 283.46"><defs><style>.cls-1{fill:#fff;}.cls-2{fill:#009a3c;}.cls-3{fill:#961580;}</style></defs><title>hbo2</title><g id="Layer_2" data-name="Layer 2"><g id="HBO_Cinemax" data-name="HBO &amp; Cinemax"><g id="hbo2"><rect width="283.46" height="283.46"/><g id="logo"><path d="M113.05,135h-8.31v-9.5h8.46c1.95,0,3.81,2.38,3.81,4.74s-1.82,4.76-4,4.76m.33,23.5h-8.57V149h7.9c2.45,0,4.31,2.28,4.31,4.81,0,2.29-1.35,4.65-3.64,4.71m9.86-16.37a12.94,12.94,0,0,0,9.89-12.7c0-10.84-6.06-18.15-16.13-18.15H88.83V173h28.24c10.07,0,16.13-7.31,16.13-18.14a12.93,12.93,0,0,0-10-12.72"/><path d="M160,157.46a15.73,15.73,0,1,1,15.27-15.73A15.5,15.5,0,0,1,160,157.46m0-47.86c-17.23,0-31.21,14.39-31.21,32.13s14,32.13,31.21,32.13,31.22-14.38,31.22-32.13-14-32.13-31.22-32.13"/><path d="M160,129.41a12.33,12.33,0,1,0,12,12.32,12.16,12.16,0,0,0-12-12.32"/><path class="cls-1" d="M58.5,173h-16v-61.7h16v23.23H69.86V111.26H85.62V173H69.86V149H58.5"/><path class="cls-1" d="M113.05,135h-8.31v-9.5h8.46c1.95,0,3.81,2.38,3.81,4.74s-1.82,4.76-4,4.76m.33,23.5h-8.57V149h7.9c2.45,0,4.31,2.28,4.31,4.81,0,2.29-1.35,4.65-3.64,4.71m9.86-16.37a12.94,12.94,0,0,0,9.89-12.7c0-10.84-6.06-18.15-16.13-18.15H88.83V173h28.24c10.07,0,16.13-7.31,16.13-18.14a12.93,12.93,0,0,0-10-12.72"/><path class="cls-1" d="M160,157.46a15.73,15.73,0,1,1,15.27-15.73A15.5,15.5,0,0,1,160,157.46m0-47.86c-17.23,0-31.21,14.39-31.21,32.13s14,32.13,31.21,32.13,31.22-14.38,31.22-32.13-14-32.13-31.22-32.13"/><path class="cls-1" d="M160,129.41a12.33,12.33,0,1,0,12,12.32,12.16,12.16,0,0,0-12-12.32"/><path class="cls-2" d="M224.25,157.69c15-18,14.71-22.81,14.71-22.81h0a15.87,15.87,0,0,0,.16-6.35c-1.18-10.29-10.4-18.3-21.61-18.3-12,0-21.75,9.77-21.75,21.11v0h15a6.51,6.51,0,0,1,12.73-1.47,5.81,5.81,0,0,1,.2,1.47h0a7.52,7.52,0,0,1-1.33,3.52h0L205,157.69h0L193.2,173h47.74v-15.3H224.25Z"/><path class="cls-3" d="M210.82,131.59h0Z"/></g></g></g></g></svg>