<svg xmlns="http://www.w3.org/2000/svg" viewBox="0 0 283.46 283.46"><defs><style>.cls-1{fill:#fff;}.cls-2{fill:#ecd075;}</style></defs><g id="Layer_2" data-name="Layer 2"><g id="HBO_Cinemax" data-name="HBO &amp; Cinemax"><g id="hbo3"><rect width="283.46" height="283.46"/><g id="logo"><path d="M113,135H104.7v-9.49h8.45c1.95,0,3.81,2.37,3.81,4.73s-1.82,4.76-4,4.76m.33,23.48h-8.56V149h7.89c2.45,0,4.31,2.27,4.31,4.8,0,2.29-1.35,4.65-3.64,4.7m9.85-16.36a12.91,12.91,0,0,0,9.88-12.69c0-10.84-6.05-18.14-16.11-18.14H88.79V173H117c10.06,0,16.12-7.3,16.12-18.12a12.93,12.93,0,0,0-10-12.72"/><path d="M159.91,157.45a15.72,15.72,0,1,1,15.26-15.72,15.49,15.49,0,0,1-15.26,15.72m0-47.83c-17.22,0-31.19,14.38-31.19,32.11s14,32.11,31.19,32.11,31.19-14.37,31.19-32.11-14-32.11-31.19-32.11"/><path d="M159.91,129.42a12.32,12.32,0,1,0,12,12.31,12.14,12.14,0,0,0-12-12.31"/><path class="cls-1" d="M58.49,172.94h-16V111.29h16v23.2H69.84v-23.2H85.59v61.65H69.84V149H58.49"/><path class="cls-1" d="M113,135H104.7v-9.49h8.45c1.95,0,3.81,2.37,3.81,4.73s-1.82,4.76-4,4.76m.33,23.48h-8.56V149h7.89c2.45,0,4.31,2.27,4.31,4.8,0,2.29-1.35,4.65-3.64,4.7m9.85-16.36a12.91,12.91,0,0,0,9.88-12.69c0-10.84-6.05-18.14-16.11-18.14H88.79V173H117c10.06,0,16.12-7.3,16.12-18.12a12.93,12.93,0,0,0-10-12.72"/><path class="cls-1" d="M159.91,157.45a15.72,15.72,0,1,1,15.26-15.72,15.49,15.49,0,0,1-15.26,15.72m0-47.83c-17.22,0-31.19,14.38-31.19,32.11s14,32.11,31.19,32.11,31.19-14.37,31.19-32.11-14-32.11-31.19-32.11"/><path class="cls-1" d="M159.91,129.42a12.32,12.32,0,1,0,12,12.31,12.14,12.14,0,0,0-12-12.31"/><path class="cls-2" d="M234.46,140.17A16.22,16.22,0,0,0,239.19,129c.32-9.92-9.72-18.66-21.71-18.66-11.65,0-21.12,8.06-21.66,17.61h10.74v0h4.19a6.91,6.91,0,0,1,6.94-5c3.91,0,7.08,2.78,7.08,6.2a7.41,7.41,0,0,1-6.69,7h-.71v9.29l.85.06c4,.26,7.25,3.53,7.25,7.12,0,3.76-3.48,6.81-7.78,6.81s-9-3-9-6.77c0,0,0-.07,0-.11H193c0,.28-.06.56-.06.84h0l0,0c0,.05,0,.1,0,.15s0,.06,0,.09h0a17.27,17.27,0,0,0,5.43,11.85,27.42,27.42,0,0,0,19.09,7.66c12.84,0,23.41-8.48,23.46-19.08v-.23a18.41,18.41,0,0,0-6.48-13.69"/></g></g></g></g></svg>