<svg xmlns="http://www.w3.org/2000/svg" viewBox="0 0 283.46 283.46"><defs><style>.cls-1{fill:#fff;}.cls-2{fill:#ecd075;}</style></defs><title>hbo3</title><g id="Layer_2" data-name="Layer 2"><g id="HBO_Cinemax" data-name="HBO &amp; Cinemax"><g id="hbo3"><rect width="283.46" height="283.46"/><g id="logo"><path d="M113,135h-8.3v-9.49h8.46c1.94,0,3.8,2.38,3.8,4.73s-1.82,4.76-4,4.76m.33,23.48h-8.56V149h7.89c2.45,0,4.31,2.27,4.31,4.81,0,2.29-1.35,4.65-3.64,4.7m9.85-16.36a12.93,12.93,0,0,0,9.88-12.69c0-10.83-6.05-18.14-16.12-18.14H88.79V173H117c10.06,0,16.12-7.3,16.12-18.13a12.92,12.92,0,0,0-10-12.71"/><path d="M159.91,157.45a15.72,15.72,0,1,1,15.26-15.71,15.49,15.49,0,0,1-15.26,15.71m0-47.82c-17.22,0-31.19,14.38-31.19,32.11s14,32.11,31.19,32.11,31.19-14.37,31.19-32.11-14-32.11-31.19-32.11"/><path d="M159.91,129.42a12.32,12.32,0,1,0,12,12.31,12.15,12.15,0,0,0-12-12.31"/><path class="cls-1" d="M58.49,172.94h-16V111.29h16v23.21H69.84V111.29H85.59v61.65H69.84V149H58.49"/><path class="cls-1" d="M113,135h-8.3v-9.49h8.46c1.94,0,3.8,2.38,3.8,4.73s-1.82,4.76-4,4.76m.33,23.48h-8.56V149h7.89c2.45,0,4.31,2.27,4.31,4.81,0,2.29-1.35,4.65-3.64,4.7m9.85-16.36a12.93,12.93,0,0,0,9.88-12.69c0-10.83-6.05-18.14-16.12-18.14H88.79V173H117c10.06,0,16.12-7.3,16.12-18.13a12.92,12.92,0,0,0-10-12.71"/><path class="cls-1" d="M159.91,157.45a15.72,15.72,0,1,1,15.26-15.71,15.49,15.49,0,0,1-15.26,15.71m0-47.82c-17.22,0-31.19,14.38-31.19,32.11s14,32.11,31.19,32.11,31.19-14.37,31.19-32.11-14-32.11-31.19-32.11"/><path class="cls-1" d="M159.91,129.42a12.32,12.32,0,1,0,12,12.31,12.15,12.15,0,0,0-12-12.31"/><path class="cls-2" d="M234.46,140.17a16.23,16.23,0,0,0,4.73-11.22c.32-9.92-9.72-18.65-21.71-18.65-11.65,0-21.13,8.06-21.66,17.6h10.74v0h4.19a6.91,6.91,0,0,1,6.94-5c3.91,0,7.08,2.77,7.08,6.19a7.4,7.4,0,0,1-6.68,7h-.71v9.29l.84.06c4,.26,7.26,3.54,7.26,7.12,0,3.76-3.48,6.81-7.79,6.81s-9-3-9-6.77c0,0,0-.07,0-.11H193c0,.28-.06.56-.06.84h0c0,.05,0,.1,0,.15s0,.05,0,.08h0a17.31,17.31,0,0,0,5.43,11.85,27.39,27.39,0,0,0,19.09,7.66c12.84,0,23.42-8.48,23.47-19.08v-.22a18.44,18.44,0,0,0-6.48-13.7"/></g></g></g></g></svg>