<?xml version="1.0" standalone="yes"?>
<svg xmlns="http://www.w3.org/2000/svg" width="1024" height="1024">
<path style="fill:#01abd5; stroke:none;" d="M0 0L0 1024L1024 1024L1024 0L0 0z"/>
<path style="fill:#ffffff; stroke:none;" d="M160 491L645 491C631.884 475.13 606.158 463.772 589 452.333L466 370.333C451.612 360.741 437.387 350.925 423 341.333C418.232 338.155 410.91 330.965 405 330.697C399.426 330.444 392.461 337.435 388 340.308C373.957 349.353 359.899 358.401 346 367.667C301.589 397.274 256.434 425.764 212 455.333C200.042 463.291 187.95 471.033 176 479C170.833 482.445 163.27 485.649 160 491z"/>
<path style="fill:#7bbfdd; stroke:none;" d="M389 339L390 340L389 339z"/>
<path style="fill:#dfedf5; stroke:none;" d="M386 341L387 342L386 341M443 355L444 356L443 355z"/>
<path style="fill:#7bbfdd; stroke:none;" d="M363 356L364 357L363 356z"/>
<path style="fill:#dfedf5; stroke:none;" d="M446 357L447 358L446 357M360 358L361 359L360 358M449 359L450 360L449 359z"/>
<path style="fill:#7bbfdd; stroke:none;" d="M334 375L335 376L334 375z"/>
<path style="fill:#dfedf5; stroke:none;" d="M331 377L332 378L331 377z"/>
<path style="fill:#7bbfdd; stroke:none;" d="M308 392L309 393L308 392M305 394L306 395L305 394M279 411L280 412L279 411z"/>
<path style="fill:#dfedf5; stroke:none;" d="M276 413L277 414L276 413z"/>
<path style="fill:#7bbfdd; stroke:none;" d="M250 430L251 431L250 430M224 447L225 448L224 447z"/>
<path style="fill:#dfedf5; stroke:none;" d="M221 449L222 450L221 449z"/>
<path style="fill:#7bbfdd; stroke:none;" d="M195 466L196 467L195 466z"/>
<path style="fill:#dfedf5; stroke:none;" d="M192 468L193 469L192 468z"/>
<path style="fill:#7bbfdd; stroke:none;" d="M169 483L170 484L169 483z"/>
<path style="fill:#dfedf5; stroke:none;" d="M166 485L167 486L166 485z"/>
<path style="fill:#ffffff; stroke:none;" d="M535 579L444 579L444 620L476 620C476 624.53 477.566 632.676 474.972 636.581C468.257 646.688 442.394 641.167 434 636.676C416.997 627.579 408.06 607.915 411.465 589C416.426 561.431 443.364 547.88 469 556.029C475.429 558.072 487.929 569.168 493.91 568.118C497.449 567.497 500.298 562.541 502.414 560L521.586 537C523.782 534.361 528.928 529.993 527.694 526.09C525.949 520.576 515.694 515.83 511 513.15C493.078 502.92 472.574 498 452 498C389.845 498 342.753 544.031 347.09 607C351.631 672.938 420.05 701.66 478 692.08C495.779 689.141 519.87 681.804 532.682 668.331C537.47 663.296 535 650.513 535 644L535 579M157 502L157 690L220 690L220 623L276 623L276 690L340 690L340 502L276 502L276 568L220 568L220 502L157 502M535 502L535 556L587 556L587 690L646 690L646 556C653.333 556 668.417 553.112 674.725 557.028C681.12 560.998 684.48 577.2 687.2 584C697.077 608.691 707.125 633.31 717 658C720.171 665.928 724.234 686.22 731.418 690.972C734.774 693.192 741.157 692 745 692L777 692C780.99 692 788.136 693.361 791.301 690.397C794.908 687.018 796.397 679.506 798.2 675C802.876 663.309 807.723 651.692 812.4 640C824.81 608.975 837.39 578.025 849.8 547C855.483 532.793 864.73 517.157 867 502L797 502C788.88 537.098 767.328 570.428 762 606L761 606C755.739 570.377 734.303 537.037 726 502L535 502z"/>
<path style="fill:#dfedf5; stroke:none;" d="M411 504L412 505L411 504z"/>
<path style="fill:#7bbfdd; stroke:none;" d="M501 508L502 509L501 508z"/>
<path style="fill:#dfedf5; stroke:none;" d="M520 519L521 520L520 519M524 522L525 523L524 522M857 527L858 528L857 527z"/>
<path style="fill:#7bbfdd; stroke:none;" d="M855 532L856 533L855 532M366 536L367 537L366 536z"/>
<path style="fill:#dfedf5; stroke:none;" d="M497 565L498 566L497 565z"/>
<path style="fill:#7bbfdd; stroke:none;" d="M681 569L682 570L681 569M683 574L684 575L683 574z"/>
<path style="fill:#dfedf5; stroke:none;" d="M830 594L831 595L830 594M828 599L829 600L828 599z"/>
<path style="fill:#7bbfdd; stroke:none;" d="M348 616L349 617L348 616z"/>
<path style="fill:#dfedf5; stroke:none;" d="M424 630L425 631L424 630M708 636L709 637L708 636z"/>
<path style="fill:#7bbfdd; stroke:none;" d="M710 641L711 642L710 641z"/>
<path style="fill:#dfedf5; stroke:none;" d="M803 661L804 662L803 661M801 666L802 667L801 666z"/>
<path style="fill:#7bbfdd; stroke:none;" d="M377 667L378 668L377 667M421 690L422 691L421 690M475 692L476 693L475 692z"/>
<path style="fill:#dfedf5; stroke:none;" d="M438 693L439 694L438 693z"/>
</svg>
