<svg xmlns="http://www.w3.org/2000/svg" xmlns:xlink="http://www.w3.org/1999/xlink" viewBox="0 0 283.46 283.46"><defs><style>.cls-1{fill:#403830;}.cls-2{fill:#e93739;}.cls-3{fill:#bd141a;}.cls-19,.cls-4{fill:#efc83c;}.cls-4{fill-opacity:0.98;}.cls-19,.cls-20,.cls-21,.cls-4{opacity:0.98;isolation:isolate;}.cls-5{fill:#efe77d;}.cls-6{fill:url(#radial-gradient);}.cls-7{fill:url(#radial-gradient-2);}.cls-8{fill:#f2cc3d;}.cls-9{fill:url(#linear-gradient);}.cls-10{fill:url(#radial-gradient-3);}.cls-11{fill:#f4d63a;}.cls-12{fill:url(#linear-gradient-2);}.cls-13{fill:#b07a31;}.cls-14{fill:url(#linear-gradient-3);}.cls-15{fill:#8d5424;}.cls-16{fill:#ecd06a;}.cls-17{fill:url(#radial-gradient-4);}.cls-18{fill:url(#radial-gradient-5);}.cls-20{fill:url(#radial-gradient-6);}.cls-21{fill:url(#radial-gradient-7);}.cls-22{fill:url(#linear-gradient-4);}.cls-23{fill:#a06d30;}.cls-24{fill:url(#linear-gradient-5);}.cls-25{fill:#b07e3e;}.cls-26{fill:#f3e27d;}.cls-27{fill:url(#linear-gradient-6);}.cls-28{fill:#8c5423;}</style><radialGradient id="radial-gradient" cx="-549.14" cy="718.14" r="9.82" gradientTransform="matrix(1.48, 12.78, 10.55, -1.23, -6699.43, 7999.25)" gradientUnits="userSpaceOnUse"><stop offset="0" stop-color="#e5a446"/><stop offset="1" stop-color="#e5a446" stop-opacity="0"/></radialGradient><radialGradient id="radial-gradient-2" cx="-532.64" cy="742.9" r="9.82" gradientTransform="matrix(1.45, 3.67, 5.91, -2.34, -3560.12, 3805.56)" gradientUnits="userSpaceOnUse"><stop offset="0" stop-color="#d67e2b"/><stop offset="1" stop-color="#d67e2b" stop-opacity="0"/></radialGradient><linearGradient id="linear-gradient" x1="-1142.1" y1="841.15" x2="-1142.97" y2="797.31" gradientTransform="matrix(1.31, 0, 0, -1.31, 1582.17, 1219.6)" gradientUnits="userSpaceOnUse"><stop offset="0" stop-color="#b6772f"/><stop offset="1" stop-color="#b6772f" stop-opacity="0"/></linearGradient><radialGradient id="radial-gradient-3" cx="-1541.49" cy="790.46" r="13.55" gradientTransform="matrix(0.17, 2.16, 4.87, -0.38, -3507.4, 3764.27)" gradientUnits="userSpaceOnUse"><stop offset="0" stop-color="#a06829"/><stop offset="1" stop-color="#a06829" stop-opacity="0"/></radialGradient><linearGradient id="linear-gradient-2" x1="-1136.22" y1="880.09" x2="-1155.96" y2="873.29" gradientTransform="matrix(1.31, 0, 0, -1.31, 1582.17, 1219.6)" gradientUnits="userSpaceOnUse"><stop offset="0" stop-color="#f2e8a0"/><stop offset="1" stop-color="#f2e8a0" stop-opacity="0"/></linearGradient><linearGradient id="linear-gradient-3" x1="-1134.33" y1="780.08" x2="-1164.87" y2="787.83" gradientTransform="matrix(1.31, 0, 0, -1.31, 1582.17, 1219.6)" gradientUnits="userSpaceOnUse"><stop offset="0" stop-color="#e3b02f"/><stop offset="1" stop-color="#e3b02f" stop-opacity="0"/></linearGradient><radialGradient id="radial-gradient-4" cx="-1642.76" cy="854.01" r="12.6" gradientTransform="matrix(2.06, 4.45, 5.18, -2.4, -907.65, 9474.28)" gradientUnits="userSpaceOnUse"><stop offset="0" stop-color="#d8832f"/><stop offset="1" stop-color="#d8832f" stop-opacity="0"/></radialGradient><radialGradient id="radial-gradient-5" cx="-1666.13" cy="852.44" r="12.6" gradientTransform="matrix(0.35, 2.58, 5.66, -0.78, -4104.2, 5080.64)" gradientUnits="userSpaceOnUse"><stop offset="0" stop-color="#d77f28"/><stop offset="1" stop-color="#d77f28" stop-opacity="0"/></radialGradient><radialGradient id="radial-gradient-6" cx="-2418.05" cy="883.08" r="14.16" gradientTransform="matrix(-0.03, 6.19, 5.44, 0.03, -4722.36, 15027.69)" gradientUnits="userSpaceOnUse"><stop offset="0" stop-color="#b57730"/><stop offset="1" stop-color="#b57730" stop-opacity="0"/></radialGradient><radialGradient id="radial-gradient-7" cx="-2446.16" cy="855.38" r="14.16" gradientTransform="matrix(-0.03, 2.64, 5.44, 0.06, -4571.38, 6536.45)" gradientUnits="userSpaceOnUse"><stop offset="0" stop-color="#a76930"/><stop offset="1" stop-color="#a76930" stop-opacity="0"/></radialGradient><linearGradient id="linear-gradient-4" x1="-1585.03" y1="852.69" x2="-1606.73" y2="846.11" gradientTransform="matrix(1.31, 0, 0, -1.31, 2246.8, 1174.6)" gradientUnits="userSpaceOnUse"><stop offset="0" stop-color="#f2e79a"/><stop offset="1" stop-color="#f2e79a" stop-opacity="0"/></linearGradient><linearGradient id="linear-gradient-5" x1="-850.04" y1="896.85" x2="-880.12" y2="902.58" gradientTransform="matrix(1.31, 0, 0, -1.31, 1279.92, 1378.41)" gradientUnits="userSpaceOnUse"><stop offset="0" stop-color="#e2b341"/><stop offset="1" stop-color="#e2b341" stop-opacity="0"/></linearGradient><linearGradient id="linear-gradient-6" x1="-1375.13" y1="1037.62" x2="-1374.86" y2="1030.14" gradientTransform="matrix(1.34, 0, 0, -1.31, 1941.63, 1478.61)" gradientUnits="userSpaceOnUse"><stop offset="0" stop-color="#d7a02b"/><stop offset="1" stop-color="#d7a02b" stop-opacity="0"/></linearGradient></defs><g id="Layer_2" data-name="Layer 2"><g id="History"><g id="history2"><rect class="cls-1" width="283.46" height="283.46"/><g id="logo"><g id="g3480"><g id="g3379"><path id="path4283" class="cls-2" d="M171.43,142l-10-5.79-20.91-16.14c6.87-9.47,14.17-18.82,26.09-26.7,9.67-5.79,19.14-7.29,27.72-7.41,7.24,0,13.17,0,26.7,6.8,12.5,7.12,17.17,15.47,18.78,23.56,3,13.71-.39,25.63-7.21,37.25-8.29,11-19.2,21.32-31.27,31.27l29.14-4.16,9,5,.21,28.62L149.3,226.89l-8.68-5.17L140.47,191l18.17-14.21,28.73-26.9a40.22,40.22,0,0,0,10.15-14.42c1.8-4.33,2.46-8.5.21-13-11.2-1-18.46,10.19-26.3,19.59Z"/><polygon id="rect4263" class="cls-3" points="140.47 190.95 149.31 196.15 149.31 226.9 140.47 221.71 140.47 190.95"/><path id="path4257" class="cls-3" d="M193.2,192.22l8.07-7.39,29.17-4.08,9.15,5Z"/><path id="path4265" class="cls-3" d="M197.72,122.39l-.09.09a.33.33,0,0,1,.1,0c2.25,4.49,1.6,8.66-.2,13-2.31,5.88-6,10.36-10.15,14.42l-28.73,26.9L140.48,191v1.6l.18-.27,11.47-5.27,5.07,5.58,7.42-6.7,35.22-34.42c5.86-6.43,10.11-13.56,7.92-21.62-1.82-5.69-5.14-7.27-10.05-7.51Z"/></g></g><g id="g3195"><g id="g3205"><g id="g3207"><g id="g3239"><g id="g3243"><g id="g3245"><g id="g3247"><g id="g3257"><g id="g3259"><path id="path3261" class="cls-4" d="M175.77,57.12l-37.09,5.14V205.64l36.92,5-.5-9.22-16-16.66,0-101.71L175,66.76Z"/></g></g></g></g></g></g></g></g></g><g id="g4210"><g id="g3872"><g id="g3891"><g id="g3902"><path id="path2995" class="cls-5" d="M68.28,71.28,42.55,74.64,54.36,87.32V181L43.11,192.67l25.17,3.49V71.28Z"/><path id="path3871" class="cls-6" d="M68.28,71.28,42.55,74.64,54.36,87.32V181L43.11,192.67l25.17,3.49V71.28Z"/><path id="path3881" class="cls-7" d="M68.28,71.28,42.55,74.64,54.36,87.32V181L43.11,192.67l25.17,3.49V71.28Z"/></g></g><g id="g3947"><path id="path3859" class="cls-8" d="M95.71,67.7,68.25,71.28V196.16L96,200l7.72-7.64-12-13.77-.23-38.46.09-.09-.22-28.82h0V89.32l12.39-14.4-8-7.22Z"/><path id="path3956" class="cls-9" d="M95.71,67.7,68.25,71.28V196.16L96,200l7.72-7.64-12-13.77-.21-38.52.09-.08-.24-28.77h0V89.32l12.39-14.4-8-7.22Z"/><path id="path3966" class="cls-10" d="M95.71,67.7,68.25,71.28V196.16L96,200l7.72-7.64-12-13.77-.22-38.52.06-.11-.2-28.74h0V89.32l12.39-14.4-8-7.22Z"/></g><path id="path3765" class="cls-11" d="M42.52,74.64l25.73,11,27.47-18Z"/><path id="path3849" class="cls-12" d="M42.52,74.64l25.73,11,27.47-18Z"/><path id="path3028" class="cls-13" d="M43.1,192.68l25.15-10.3L96,200Z"/><path id="path3818" class="cls-14" d="M43.1,192.68l25.15-10.3L96,200Z"/><path id="path3828" class="cls-15" d="M95.75,67.71,83,83.7l.11,99.86L96,200l7.77-7.71-12-13.66-.39-89.34L103.74,75Z"/></g><g id="g4150"><g id="g4097"><g id="g4064"><g id="g4030"><g id="g4015"><g id="g3971"><path id="path3930" class="cls-16" d="M139.35,61.73l-33,4.59,14.43,13.43-.14,107.89-14.22,13.58,32.92,4.47Z"/><path id="path3951" class="cls-17" d="M139.35,61.73l-33,4.59,14.43,13.43-.14,107.89-14.22,13.58,32.92,4.47Z"/><path id="path3961" class="cls-18" d="M139.35,61.73l-33,4.59,14.43,13.43-.14,107.89-14.22,13.58,32.92,4.47Z"/></g><g id="g4005"><g id="g3996"><path id="path3932" class="cls-19" d="M176.35,56.57l-37.09,5.16V205.66l36.93,5-.51-9.25-16-16.73.05-102.1,15.8-16.35Z"/><path id="path3976" class="cls-20" d="M176.35,56.57l-37.09,5.16V205.66l36.93,5-.51-9.25-16-16.73.05-102.1,15.8-16.35Z"/><path id="path3986" class="cls-21" d="M176.35,56.57l-37.09,5.16V205.66l36.93,5-.51-9.25-16-16.73.05-102.1,15.8-16.35Z"/></g></g></g></g></g><path id="path4026" class="cls-11" d="M106.35,66.32l32.91,12,37.06-21.69Z"/><path id="path4042" class="cls-22" d="M106.35,66.32l32.9,12,37.06-21.7Z"/></g><path id="path4123" class="cls-23" d="M106.45,201.22l32.81-11.62,36.94,21.07Z"/><path id="path4125" class="cls-24" d="M106.45,201.22l32.81-11.62,36.94,21.07Z"/></g><g id="g4201"><path id="path3847" class="cls-25" d="M139.86,119.09l-71.61,1.45L83,136l37.78.43,19.1-17.34,0,0Z"/><path id="path4185" class="cls-26" d="M120.79,106.44,83.35,108,68.26,120.56l71.63-1.44Z"/><path id="path4191" class="cls-27" d="M139.86,119.09l-71.61,1.45L83,136l37.79.5,19.12-17.39,0,0Z"/></g><path id="path4208" class="cls-28" d="M176.34,56.58l-.8,9.7L159.89,82.37l-.11,102.35,15.93,16.59.48,9.36-17.6-18.75,0-116.25Z"/></g><g id="g4299"><path id="path4287" class="cls-2" d="M194.24,85.87c-8.59.11-18.06,1.62-27.72,7.41-11.93,7.88-19.22,17.22-26.09,26.7l20.91,16.14,9.95,5.79c7.81-9.37,15.06-20.5,26.21-19.59l7.78-35.6A51.12,51.12,0,0,0,194.24,85.87Z"/><path id="path4265-3" class="cls-3" d="M193.17,85.4c-8.59.11-18.06,1.62-27.72,7.41-11.93,7.88-19.22,17.22-26.09,26.7l20.91,16.14,10.18,5.83,1,.53-23.08-18.15C163.24,98.68,187,85.57,217.9,91.24,205.75,85.37,200,85.41,193.17,85.4Z"/></g></g></g></g></g></svg>