<svg xmlns="http://www.w3.org/2000/svg" viewBox="0 0 283.46 283.46"><defs><style>.cls-1{fill:#d40031;}.cls-2{fill:#fff;}</style></defs><g id="Layer_2" data-name="Layer 2"><g id="Travel_Lifestyle" data-name="Travel &amp; Lifestyle"><g id="insighttv"><rect class="cls-1" width="283.46" height="283.46"/><g id="logo"><path class="cls-2" d="M117.71,240c5.55-2.08,7.85-7.93,5-12.82-1.13-2-4.32-3.86-7.93-4.74-6-1.47-7.68-2.65-6.93-5,.6-1.91,4.51-2.4,9.16-1.15a24.38,24.38,0,0,0,3.16.7c.75,0,3.15-4.7,2.63-5.16-1-.91-5.48-2-9.19-2.23-4.87-.3-7.54.31-10,2.31a7.73,7.73,0,0,0-3.17,6.73c0,4.86,2.37,7.2,9.29,9.21,5.6,1.62,6.77,2.35,6.77,4.23,0,1.18-.28,1.54-1.63,2.1-2.27,1-5.66.83-8.72-.31-4-1.47-4.16-1.43-5.76,1.39s-1.76,2.83,3.41,4.52c4.65,1.52,10.15,1.61,13.83.23Z"/><path class="cls-2" d="M166,240.39a11.11,11.11,0,0,0,6.09-4.75c.92-1.63,1.16-2.84,1.31-6.59l.19-4.6-14,.26v4.71l6.82.27v1.41a3.78,3.78,0,0,1-1.16,2.57c-2.19,2.19-8.18,1.23-9.21-1.49a40.81,40.81,0,0,1-.45-7.43c0-5.6.1-6.39,1-7.48,2.61-3.33,9.4-2.25,9.92,1.57.15,1.12.33,1.18,3.64,1.31l3.47.14-.3-2.24c-.78-5.63-5.31-8.76-12.61-8.7-3.89,0-7.32,1.41-9.38,3.75-2.49,2.84-2.76,4-2.75,12.19,0,6.21.15,7.72.88,9.3,1.89,4.07,6,6.29,11.62,6.32a19.31,19.31,0,0,0,4.93-.52Z"/><polygon class="cls-2" points="54.04 225.19 54.04 209.9 46.99 209.9 46.99 240.47 54.04 240.47 54.04 225.19"/><polygon class="cls-2" points="72.02 231.02 72.15 221.57 84.76 240.47 91.66 240.47 91.66 209.9 84.63 209.9 84.5 218.8 84.37 227.69 72.5 210.14 65.33 209.86 65.33 240.47 71.89 240.47 72.02 231.02"/><polygon class="cls-2" points="139.62 225.19 139.62 209.9 132.56 209.9 132.56 240.47 139.62 240.47 139.62 225.19"/><polygon class="cls-2" points="188.99 234.12 188.99 227.77 198.86 227.77 198.86 240.47 205.91 240.47 205.91 209.9 198.86 209.9 198.86 221.66 188.99 221.66 188.99 209.9 181.93 209.9 181.93 240.47 188.99 240.47 188.99 234.12"/><polygon class="cls-2" points="228.48 228.01 228.48 215.55 236.47 215.55 236.47 209.9 212.97 209.9 212.97 215.55 221.43 215.55 221.43 240.47 228.48 240.47 228.48 228.01"/><path class="cls-2" d="M134.72,42.64c-.1-.11-5.66,1.37-12.34,3.28l-12.15,3.47-.12,66.08L110,181.54l10.46,2.93c5.76,1.6,11.31,3.19,12.35,3.52l1.88.6.12-72.88c.06-40.08,0-73-.08-73.07Z"/><path class="cls-2" d="M164.3,180.62l3.76-1.1.24-90.86,3.17.87c5.33,1.48,4.82-3.16,4.82,44.24,0,40.36,0,41.32.91,41.79a4.26,4.26,0,0,0,1.65.49c.68,0,.73-4,.62-42.82l-.12-42.82-1.73-1.58A10.36,10.36,0,0,0,174,86.75l-3.8-1c-1-.27-1.88-.67-1.88-.88,0-.57,7.91,1.74,9.21,2.69A7.83,7.83,0,0,1,179.45,90c.78,1.54.85,4.43,1,43.73.1,32.83.25,42.07.7,42s6-1.6,12.7-3.49l12.12-3.43-.14-45.65c-.13-42.78-.19-45.81-1-48.24a28,28,0,0,0-7.07-11.64c-4.53-4.24-7.86-5.7-22.62-9.93-26.49-7.58-38.21-10.87-38.73-10.87s-.53,19.1-.53,72.8c0,40,.11,72.9.24,73s14.39-3.7,28.21-7.74Z"/><path class="cls-2" d="M96.68,53.5a22.74,22.74,0,0,0-3.88,1c-2,.61-7.64,2.21-12.43,3.55S70.25,60.88,68.5,61.38l-3.17.93V168.87l31.26,8.86.12-62c.07-34.12.06-62.11,0-62.19Z"/><path class="cls-2" d="M100.62,177.44c.89-.47.91-1.66.91-62V53.89l-1.48-.51a14.73,14.73,0,0,0-1.65-.52c-.09,0-.16,28.14-.16,62.54,0,56.44.07,62.53.74,62.53a4.41,4.41,0,0,0,1.64-.48Z"/></g></g></g></g></svg>