<svg xmlns="http://www.w3.org/2000/svg" xmlns:xlink="http://www.w3.org/1999/xlink" viewBox="0 0 283.46 283.46"><defs><style>.cls-1{fill:url(#linear-gradient);}.cls-2{fill:#eee;}.cls-3{fill:#b28abf;}.cls-4{fill:#b8ce33;}.cls-5{fill:#ffe73f;}.cls-6{fill:#fdb515;}</style><linearGradient id="linear-gradient" y1="283.46" x2="283.46" gradientUnits="userSpaceOnUse"><stop offset="0" stop-color="#672d8b"/><stop offset="1" stop-color="#4a9443"/></linearGradient></defs><title>jimjam</title><g id="Layer_2" data-name="Layer 2"><g id="Kids"><g id="jimjam"><rect class="cls-1" width="283.46" height="283.46"/><g id="logo"><path class="cls-2" d="M73.61,130.94a11.2,11.2,0,0,1,4.69.76c3,1.51,3.35,6.81,3,9.19s-2.16,3.35-8.43,5.62a37.21,37.21,0,0,1,3.57,19.57c-.69,8.77-7.91,14.21-15.86,14.21a17.74,17.74,0,0,1-6.2-1.12C44.68,175.54,46,165,49.76,161.11A6.38,6.38,0,0,1,54.3,159,4.79,4.79,0,0,1,58,160.68c2.24,2.58.24,5.14-1.82,5.25H56c-2,0-2.38-2.89-1.32-3.95l-.27,0c-1.37,0-3.11,1.41-3.6,3.36-.77,3.09.54,6.18,4.56,7.11a8,8,0,0,0,1.8.21c4.23,0,7.88-3.46,8.09-8.78.16-4-1.39-7.34-6.41-13.21-2.75.86-5.54,1.77-7.87,1.77a6.11,6.11,0,0,1-2.25-.38c-2.47-1-5.42-6.45-3.71-10,1.62-3.4,6.16-5.67,14.29-8.42a47.65,47.65,0,0,1,14.24-2.63m0-2a49.81,49.81,0,0,0-14.9,2.74c-8.27,2.8-13.46,5.24-15.48,9.47a9.2,9.2,0,0,0,.1,7.32c.82,2.09,2.49,4.62,4.7,5.5a8.05,8.05,0,0,0,3,.52A25.53,25.53,0,0,0,58.21,153c4.37,5.3,5.17,7.93,5.06,10.78-.15,4-2.7,6.82-6.05,6.82a6.07,6.07,0,0,1-1.34-.16,4.1,4.1,0,0,1-2.73-1.7,3.7,3.7,0,0,1-.37-2.65A3.72,3.72,0,0,0,56,168h.22a5.13,5.13,0,0,0,4.35-3.08,5.19,5.19,0,0,0-1.1-5.54A6.81,6.81,0,0,0,54.3,157a8.37,8.37,0,0,0-6,2.71c-2.77,2.88-4,7.89-3,12.2a12.78,12.78,0,0,0,8.44,9.18,19.69,19.69,0,0,0,6.91,1.26c9.64,0,17.16-6.77,17.89-16.09a39.33,39.33,0,0,0-2.85-18.57c4.73-1.79,7.25-3.21,7.7-6.51.33-2.4.22-9.11-4.14-11.29A12.91,12.91,0,0,0,73.61,128.9Z"/><path class="cls-3" d="M59.36,133.57c-8.13,2.75-12.67,5-14.29,8.42-1.72,3.59,1.24,9.07,3.71,10s6.41-.23,10.12-1.39c5,5.87,6.57,9.2,6.41,13.21-.23,6.07-4.95,9.72-9.89,8.58-4-.93-5.33-4-4.56-7.11.52-2.09,2.47-3.55,3.86-3.34-1.08,1.08-.63,4.05,1.43,3.95s4.06-2.67,1.82-5.25c-2-2.32-5.65-2.24-8.22.43C46,165,44.69,175.54,54.41,179.16c10,3.72,21.19-2.06,22.06-13.08a37.18,37.18,0,0,0-3.57-19.57c6.27-2.27,8.11-3.25,8.43-5.62s0-7.67-3-9.19S67,131,59.36,133.57"/><path class="cls-2" d="M86.94,148.06a8.48,8.48,0,0,1,4.85,1.52c3,2.15,3.24,24.24-1.16,27.75a12.51,12.51,0,0,1-7.43,2.24,11.25,11.25,0,0,1-6.41-1.83c-5.09-3.53,1.22-25.43,5.68-28.33a8.13,8.13,0,0,1,4.48-1.35m0-2a10.11,10.11,0,0,0-5.59,1.68c-4.15,2.7-8.38,15.87-8.49,23.74-.06,4,.87,6.67,2.77,8a13.2,13.2,0,0,0,7.58,2.2,14.55,14.55,0,0,0,8.71-2.69c4.23-3.39,4.15-16.11,4.1-18.63-.11-4.73-.73-10.71-3-12.37A10.51,10.51,0,0,0,86.94,146Z"/><path class="cls-3" d="M82.46,149.41c-4.46,2.9-10.77,24.8-5.68,28.33,4.35,3,10.95,1.91,13.85-.4,4.4-3.52,4.11-25.61,1.16-27.75a8.33,8.33,0,0,0-9.33-.17"/><path class="cls-2" d="M101.14,148.58a22.09,22.09,0,0,1,3.8.37c4.57.8,6,7.24,8.52,7.82a2,2,0,0,0,.44,0c1.88,0,3.46-2.69,6.45-4.4a10.08,10.08,0,0,1,4.83-1.34,6.11,6.11,0,0,1,4.56,1.86c3.88,4.06,4.58,23.58,3.77,25.9-.47,1.35-2.6,2-4.78,2a7.64,7.64,0,0,1-4.15-1c-2.43-1.68-.18-13.6-1.56-14.25a.31.31,0,0,0-.14,0c-1.38,0-5.52,7.56-8.21,7.56-2.53,0-6.82-8.66-8.07-8.66-.12,0-.21.08-.27.26-.64,1.91-.12,12.86-3.19,14.2a9.15,9.15,0,0,1-3.55.67c-2.55,0-5.07-.93-5.49-2.93-1.68-8.11-.23-23.58,1.39-25.9,1-1.48,3-2.16,5.64-2.16m0-2c-3.45,0-5.91,1-7.32,3-2.12,3-3.44,19.14-1.72,27.48.57,2.77,3.51,4.56,7.48,4.56a11.21,11.21,0,0,0,4.36-.84c2.94-1.27,3.57-5.78,4-11.61,2.55,3.63,4.44,6,6.74,6,2.48,0,4.66-2.64,6.77-5.26,0,.34,0,.67,0,1-.18,5.63-.14,9.15,2,10.64a9.59,9.59,0,0,0,5.31,1.41c2.66,0,5.82-.89,6.7-3.4,1-3,.26-23.31-4.22-28a8.13,8.13,0,0,0-6-2.49,12.19,12.19,0,0,0-5.84,1.6,20.89,20.89,0,0,0-3.56,2.71,8,8,0,0,1-1.86,1.41,9.9,9.9,0,0,1-1.71-2.16c-1.44-2.14-3.42-5.07-6.91-5.68A24.38,24.38,0,0,0,101.14,146.54Z"/><path class="cls-3" d="M94.11,176.64c.62,3,6,3.59,9,2.26s2.55-12.28,3.19-14.2,5.56,8.4,8.34,8.4,7.13-8.11,8.34-7.53c1.38.66-.87,12.57,1.56,14.25s8.11,1.33,8.92-1,.12-21.84-3.77-25.9c-2.73-2.86-7-1.91-9.39-.52-3.22,1.84-4.81,4.82-6.89,4.35-2.55-.58-4-7-8.52-7.82s-8-.31-9.44,1.79c-1.62,2.32-3.07,17.79-1.39,25.9"/><path class="cls-2" d="M192.5,145.29c2,0,4,.56,4.68,1.8,2.52,4.8.7,24.74-.41,28.1-.7,2.13-3.19,2.75-5.56,2.75a13.94,13.94,0,0,1-4.34-.67c-2.26-.84-2.15-4.58-2.15-4.58s-1.43,4.28-8.92,4.75c-.31,0-.61,0-.91,0-7.68,0-12.24-6.4-12.19-16.08.06-10.59,6.92-14.77,13.43-14.77h.13c7.94.07,10,4,10,4s.24-3.08,1.68-4.17a8.08,8.08,0,0,1,4.54-1.17M179,167.11a5.6,5.6,0,0,0,1-.1c8-1.43,6.72-10.37-.12-11.82a4,4,0,0,0-.8-.08c-2.66,0-4.28,3-4.43,6s1.15,6,4.33,6m13.55-23.87a10,10,0,0,0-5.77,1.58,5.34,5.34,0,0,0-1.54,2,16.69,16.69,0,0,0-8.91-2.23h-.15c-7.65,0-15.4,5.19-15.46,16.8,0,6.16,1.65,11.14,4.87,14.37a12.87,12.87,0,0,0,9.36,3.76c.34,0,.69,0,1,0a14.43,14.43,0,0,0,7.74-2.48,4.69,4.69,0,0,0,2.48,2.18,15.74,15.74,0,0,0,5.05.79c5.34,0,7-2.6,7.5-4.15,1.09-3.32,3.26-24,.27-29.68C198,144.3,195.66,143.25,192.5,143.25ZM179,165.08a1.81,1.81,0,0,1-1.41-.55,4.66,4.66,0,0,1-.89-3.31c.1-2,1-4.06,2.4-4.06a1.87,1.87,0,0,1,.38,0,4.69,4.69,0,0,1,4,4.35c0,1.77-1.43,3-3.85,3.47A3.66,3.66,0,0,1,179,165.08Z"/><path class="cls-4" d="M186.29,150.62s.24-3.08,1.68-4.17c2.14-1.62,8-1.68,9.21.64,2.52,4.8.7,24.74-.41,28.1-1.22,3.71-7.88,2.84-9.91,2.08-2.26-.84-2.14-4.58-2.14-4.58s-1.44,4.28-8.92,4.75c-8.23.52-13.15-6-13.09-16,.06-10.66,7-14.83,13.56-14.77,7.94.07,10,4,10,4m-6.43,4.58c-6.29-1.33-7.71,13.21.12,11.82C188,165.59,186.69,156.65,179.86,155.2Z"/><path class="cls-2" d="M160.52,129.89a11.2,11.2,0,0,1,4.69.76c3,1.51,3.35,6.81,3,9.19s-2.16,3.35-8.43,5.62A37.22,37.22,0,0,1,163.37,165c-.69,8.77-7.91,14.21-15.86,14.21a17.74,17.74,0,0,1-6.2-1.13c-9.72-3.63-8.39-14.17-4.65-18.06a6.37,6.37,0,0,1,4.54-2.09,4.79,4.79,0,0,1,3.67,1.66c2.24,2.58.24,5.14-1.82,5.25H143c-2,0-2.38-2.89-1.32-3.95l-.27,0c-1.36,0-3.11,1.41-3.6,3.37-.77,3.09.54,6.18,4.56,7.11a7.84,7.84,0,0,0,1.8.21c4.23,0,7.89-3.46,8.09-8.78.16-4-1.39-7.34-6.41-13.21-2.75.86-5.54,1.77-7.87,1.77a6.11,6.11,0,0,1-2.25-.38c-2.47-1-5.42-6.45-3.71-10,1.62-3.4,6.16-5.67,14.29-8.42a47.66,47.66,0,0,1,14.25-2.63m0-2a49.81,49.81,0,0,0-14.9,2.74c-8.27,2.8-13.46,5.24-15.48,9.47a9.2,9.2,0,0,0,.1,7.32c.82,2.08,2.49,4.62,4.7,5.5a8.11,8.11,0,0,0,3,.52,25.53,25.53,0,0,0,7.18-1.46c4.37,5.3,5.17,7.93,5.06,10.78-.15,4-2.7,6.82-6.05,6.82a6,6,0,0,1-1.34-.15,4.1,4.1,0,0,1-2.73-1.71,3.7,3.7,0,0,1-.37-2.65,3.72,3.72,0,0,0,3.26,1.88h.22a5.13,5.13,0,0,0,4.35-3.08,5.19,5.19,0,0,0-1.1-5.54,6.81,6.81,0,0,0-5.21-2.36,8.37,8.37,0,0,0-6,2.71c-2.77,2.88-4,7.89-3,12.2A12.78,12.78,0,0,0,140.6,180a19.72,19.72,0,0,0,6.91,1.26c9.64,0,17.16-6.76,17.89-16.09a39.32,39.32,0,0,0-2.85-18.57c4.73-1.79,7.25-3.21,7.7-6.51.33-2.4.22-9.11-4.14-11.29A12.87,12.87,0,0,0,160.52,127.85Z"/><path class="cls-4" d="M146.27,132.53c-8.13,2.75-12.67,5-14.29,8.42-1.71,3.59,1.24,9.07,3.71,10s6.41-.23,10.12-1.39c5,5.87,6.57,9.2,6.41,13.21-.23,6.07-4.95,9.72-9.89,8.58-4-.93-5.33-4-4.56-7.11.53-2.09,2.47-3.55,3.86-3.35-1.08,1.08-.62,4.05,1.43,3.95s4.06-2.67,1.82-5.25c-2-2.32-5.65-2.24-8.22.43-3.74,3.89-5.07,14.43,4.65,18.05,10,3.72,21.19-2.05,22.05-13.08a37.23,37.23,0,0,0-3.56-19.57c6.27-2.27,8.1-3.25,8.43-5.62s0-7.68-3-9.19-11.26-.73-18.94,1.87"/><path class="cls-2" d="M206.25,147.65a22.36,22.36,0,0,1,3.8.37c4.56.8,6,7.24,8.52,7.82a2,2,0,0,0,.44.05c1.88,0,3.46-2.69,6.45-4.4a10.12,10.12,0,0,1,4.83-1.34,6.12,6.12,0,0,1,4.56,1.86c3.88,4.06,4.58,23.58,3.77,25.9-.48,1.35-2.6,2-4.78,2a7.65,7.65,0,0,1-4.15-1c-2.43-1.68-.18-13.6-1.57-14.25a.29.29,0,0,0-.13,0c-1.38,0-5.52,7.56-8.21,7.56-2.53,0-6.82-8.66-8.07-8.66-.12,0-.21.08-.27.26-.64,1.91-.12,12.86-3.19,14.2a9.13,9.13,0,0,1-3.55.67c-2.55,0-5.07-.93-5.48-2.93-1.68-8.11-.23-23.58,1.39-25.9,1-1.48,3-2.17,5.64-2.17m0-2c-3.44,0-5.91,1-7.31,3-2.12,3-3.45,19.14-1.72,27.48.57,2.77,3.51,4.56,7.48,4.56a11.24,11.24,0,0,0,4.37-.84c2.94-1.27,3.57-5.78,4-11.61,2.55,3.63,4.44,6,6.74,6,2.48,0,4.66-2.64,6.77-5.26,0,.34,0,.67,0,1-.18,5.63-.13,9.15,2,10.64a9.57,9.57,0,0,0,5.31,1.41c2.66,0,5.82-.89,6.7-3.4,1-3,.26-23.3-4.22-28a8.13,8.13,0,0,0-6-2.49,12.15,12.15,0,0,0-5.84,1.61,20.87,20.87,0,0,0-3.57,2.71,8,8,0,0,1-1.86,1.41,10,10,0,0,1-1.71-2.16c-1.44-2.14-3.42-5.07-6.91-5.68A24.53,24.53,0,0,0,206.25,145.61Z"/><path class="cls-4" d="M199.21,175.71c.62,3,6,3.59,9,2.26s2.55-12.28,3.19-14.2,5.56,8.4,8.34,8.4,7.12-8.11,8.34-7.53c1.38.66-.87,12.57,1.56,14.25s8.11,1.33,8.92-1,.12-21.84-3.77-25.9c-2.74-2.86-7-1.91-9.39-.52-3.22,1.84-4.81,4.82-6.89,4.35-2.55-.58-4-7-8.52-7.82s-8-.31-9.44,1.8c-1.62,2.32-3.07,17.79-1.39,25.9"/><path class="cls-5" d="M95.54,149.45c-1.33,0-2.47-1.33-4.54-3.88a18.4,18.4,0,0,0-2.57-2.82s0,0-.1,0a22.28,22.28,0,0,0-3.16.48l-.3.06a25.88,25.88,0,0,1-4.39.58,3.85,3.85,0,0,1-2.22-.53,2,2,0,0,1-.87-1.45c-.16-1.49,1.23-3,3.53-5.42.52-.53,1.18-1.22,1.53-1.65-.31-.4-.9-1-1.32-1.47-1.56-1.64-3-3.19-2.69-4.78.26-1.25,1.41-1.88,3.42-1.88a29.77,29.77,0,0,1,4.16.43l.44.07a24.22,24.22,0,0,0,2.7.33h.08a12.51,12.51,0,0,0,1.65-1.82c1.35-1.67,2.75-3.4,4.44-3.4a2.41,2.41,0,0,1,.53.06c2.23.5,2.27,3.69,2.3,6.77a20,20,0,0,0,.11,2.37,13.55,13.55,0,0,0,2.66,1c2,.59,3.79,1.14,4.59,2.34a2,2,0,0,1,.27,1.68c-.39,1.38-2.08,2.24-4.8,3.49a15.55,15.55,0,0,0-2.51,1.31,11.84,11.84,0,0,0-.41,3c-.16,2.41-.3,4.49-1.92,5.07a1.83,1.83,0,0,1-.6.1"/><path class="cls-6" d="M95.34,123.68l.22,0c1.8.41.88,7,1.45,8.4s6.32,1.91,7.36,3.48-5.68,3.48-6.89,4.75-.35,7.18-1.8,7.7a.33.33,0,0,1-.13,0c-1.38,0-5.13-6.18-6.64-6.63a2.14,2.14,0,0,0-.56-.06,24.8,24.8,0,0,0-3.72.56,24.75,24.75,0,0,1-4.13.56,2.68,2.68,0,0,1-1.44-.3c-1.62-1.1,4.51-5.87,4.92-7.19.35-1.1-4.52-4.52-4.17-6.14.12-.58.94-.78,2.06-.78a29.05,29.05,0,0,1,4,.41,29.07,29.07,0,0,0,3.35.41,2,2,0,0,0,.43,0c1.45-.33,3.9-5.18,5.75-5.18m0-2.78c-2.35,0-4,2-5.52,3.92-.32.4-.76.94-1.08,1.28-.55-.05-1.34-.17-2.07-.28l-.44-.07a31.08,31.08,0,0,0-4.37-.44c-3.61,0-4.54,1.87-4.78,3-.49,2.3,1.31,4.19,3,6l.47.5-.67.69c-2.22,2.3-4.14,4.28-3.91,6.53a3.38,3.38,0,0,0,1.47,2.46,5.21,5.21,0,0,0,3,.78,26.35,26.35,0,0,0,4.65-.61l.3-.06c.91-.17,1.92-.37,2.55-.43.52.52,1.38,1.59,1.94,2.27,2.15,2.65,3.57,4.4,5.62,4.4a3.15,3.15,0,0,0,1.08-.19c2.48-.89,2.67-3.76,2.84-6.29,0-.64.11-1.65.22-2.2.47-.26,1.3-.65,1.89-.92,2.67-1.22,5-2.28,5.57-4.38a3.37,3.37,0,0,0-.45-2.83c-1.07-1.61-3.15-2.24-5.34-2.9-.53-.16-1.24-.37-1.75-.56,0-.46,0-1,0-1.48,0-3.28-.09-7.37-3.39-8.11A3.83,3.83,0,0,0,95.34,120.9Z"/><path class="cls-5" d="M126.09,122.51c-.88,0-1.92-.65-3.56-1.72a15.57,15.57,0,0,0-2.23-1.31,16.46,16.46,0,0,0-2,1c-1.84,1-3.13,1.67-4.2,1.67a2.1,2.1,0,0,1-.6-.08,1.6,1.6,0,0,1-1-.91c-.46-1.06.15-2.44,1.21-4.6.2-.4.44-.9.6-1.26-.29-.19-.72-.42-1-.59-1.46-.8-2.83-1.55-3-2.81-.21-2,2.58-2.48,5.28-2.91.65-.11,1.51-.25,1.84-.35a10.34,10.34,0,0,0,.65-1.48c.64-1.64,1.29-3.33,2.81-3.46H121c1.68,0,2.39,2.14,3.09,4.21.17.5.38,1.15.53,1.46a6.23,6.23,0,0,0,1.07.06h1.63a4.57,4.57,0,0,1,2.89.64,1.63,1.63,0,0,1,.63,1.24c0,1.19-1.16,2.29-2.55,3.56a11.72,11.72,0,0,0-1.36,1.37,11.32,11.32,0,0,0,.39,1.94c.41,1.66.81,3.23-.28,4.06a1.56,1.56,0,0,1-1,.31"/><path class="cls-6" d="M121,104.88c1.27,0,2.07,4.53,2.75,5.35.27.33,1,.39,1.94.39h1.63a3.89,3.89,0,0,1,2.14.38c1.07.84-3.07,3.57-3.61,4.69s1.32,4.91.46,5.58a.37.37,0,0,1-.22.06,8.81,8.81,0,0,1-2.89-1.52,8.94,8.94,0,0,0-2.87-1.52h0c-1.09,0-4.68,2.68-6.2,2.68a.87.87,0,0,1-.26,0c-1.33-.39,1.77-4.93,1.76-5.9,0-.82-4-2.06-4.14-3.23-.14-1.38,5.65-1.56,6.59-2.12s1.55-4.64,2.9-4.76h0m0-2.41h-.26c-2.26.2-3.17,2.53-3.83,4.23-.1.26-.23.6-.35.87l-1.22.21c-2.79.45-6.61,1.07-6.29,4.22.19,1.89,2,2.87,3.58,3.74l.06,0-.12.23c-1,2.13-2,4-1.23,5.62a2.83,2.83,0,0,0,1.81,1.58,3.34,3.34,0,0,0,.94.13c1.35,0,2.77-.72,4.77-1.81.42-.23,1-.54,1.39-.74.45.26,1.13.69,1.57,1,1.84,1.2,3,1.93,4.24,1.93a2.74,2.74,0,0,0,1.69-.57c1.71-1.31,1.15-3.53.71-5.31-.09-.36-.22-.9-.29-1.27.26-.26.63-.6.91-.85,1.61-1.48,3-2.75,2.94-4.5a2.85,2.85,0,0,0-1.08-2.14,5.68,5.68,0,0,0-3.64-.9h-1.85c-.08-.24-.17-.49-.23-.69C124.49,105.26,123.56,102.47,121,102.47Z"/><path class="cls-5" d="M150.71,116.41h-.15a1.32,1.32,0,0,1-1-.57c-.52-.76-.26-1.88.22-3.65.08-.29.17-.63.24-.9l-.74-.25c-1.22-.39-2.36-.76-2.65-1.72-.47-1.56,1.57-2.31,3.54-3,.43-.16,1-.37,1.26-.49a8.89,8.89,0,0,0,.25-1.12c.23-1.27.49-2.7,1.66-3a1.31,1.31,0,0,1,.39-.06c1.18,0,1.93,1.34,2.72,2.75.17.29.39.7.54.92a8.72,8.72,0,0,0,1.29-.21,9.9,9.9,0,0,1,1.88-.27,2.21,2.21,0,0,1,1,.22,1.35,1.35,0,0,1,.69.9c.21.92-.53,1.92-1.39,3.08a10.91,10.91,0,0,0-.77,1.11,8.13,8.13,0,0,0,.53,1.33c.55,1.2,1.08,2.33.35,3.15a1.33,1.33,0,0,1-1,.43,8.09,8.09,0,0,1-2.61-.79,12.22,12.22,0,0,0-1.76-.64,15.89,15.89,0,0,0-1.27,1c-1.41,1.17-2.34,1.88-3.24,1.88"/><path class="cls-6" d="M153.74,102.59c.92,0,2.1,3.06,2.7,3.55a.83.83,0,0,0,.53.13,8.52,8.52,0,0,0,1.58-.25,8.89,8.89,0,0,1,1.63-.24,1.21,1.21,0,0,1,.56.11c.91.47-1.75,3.05-2,4s1.66,3.42,1.12,4a.36.36,0,0,1-.27.09,8.35,8.35,0,0,1-2.23-.72,8.36,8.36,0,0,0-2.2-.72H155c-.83.18-3.27,2.86-4.33,2.86h-.05c-1-.1.6-3.87.46-4.59s-3.24-1-3.5-1.79,3.94-1.94,4.55-2.49.49-3.63,1.46-3.91l.11,0m0-2a2.4,2.4,0,0,0-.67.1c-1.77.5-2.13,2.43-2.38,3.83,0,.17-.07.37-.11.56l-.74.28c-2.08.76-4.92,1.79-4.17,4.28.43,1.42,1.84,1.93,3.15,2.35-.48,1.76-.89,3.27-.07,4.47a2.36,2.36,0,0,0,1.72,1h.25c1.33,0,2.52-1,3.89-2.11l.81-.65c.35.12.83.32,1.16.46a8.6,8.6,0,0,0,3,.88,2.36,2.36,0,0,0,1.8-.77c1.17-1.32.42-3-.19-4.26-.1-.21-.24-.52-.34-.76l.47-.64c1-1.3,1.89-2.53,1.57-3.92a2.38,2.38,0,0,0-1.22-1.58,3.21,3.21,0,0,0-1.51-.33,10.29,10.29,0,0,0-2.05.29l-.58.12-.19-.33C156.49,102.29,155.52,100.55,153.74,100.55Z"/><path class="cls-5" d="M180.56,122.09a1.09,1.09,0,0,1-.78-.33c-.5-.51-.53-1.42-.52-2.86,0-.24,0-.53,0-.76l-.64,0c-1-.05-2-.1-2.45-.8-.69-1.14.75-2.15,2.16-3.13.31-.22.72-.5.89-.65a7.8,7.8,0,0,0,0-.93c-.08-1-.17-2.24.68-2.74a1.2,1.2,0,0,1,.61-.17c.76,0,1.45.65,2.41,1.64.19.2.47.48.63.62a9.3,9.3,0,0,0,1-.44,4.73,4.73,0,0,1,2-.69,1.48,1.48,0,0,1,.33,0,1.1,1.1,0,0,1,.74.56c.36.68,0,1.63-.46,2.72a7.38,7.38,0,0,0-.38,1.08c0,.1.46.59.7.89.69.83,1.34,1.61.93,2.42a1.41,1.41,0,0,1-1.34.62,14.09,14.09,0,0,1-1.62-.15,12.57,12.57,0,0,0-1.39-.14h-.11a10.6,10.6,0,0,0-.8,1c-.91,1.27-1.53,2.06-2.29,2.18h-.19"/><path class="cls-6" d="M180.47,110.52c.76,0,2.22,2,2.77,2.24a.44.44,0,0,0,.18,0,4.41,4.41,0,0,0,1.48-.57,4.3,4.3,0,0,1,1.54-.57h.14c.81.19-.74,2.77-.75,3.53s2,2.35,1.73,2.95c-.06.12-.29.16-.6.16a13.21,13.21,0,0,1-1.51-.14,13.34,13.34,0,0,0-1.5-.15,1.15,1.15,0,0,0-.47.07c-.62.32-2,3-2.86,3.16h0c-.76,0-.29-3.19-.54-3.71s-2.76-.07-3.13-.68,2.7-2.35,3.06-2.91-.38-3,.34-3.39a.34.34,0,0,1,.18,0m0-1.67a2,2,0,0,0-1,.28c-1.29.77-1.17,2.36-1.08,3.52,0,.13,0,.31,0,.46l-.53.37c-1.39,1-3.5,2.45-2.39,4.25.63,1,1.86,1.13,3,1.2,0,1.42,0,2.63.76,3.42a1.91,1.91,0,0,0,1.37.58l.32,0c1.16-.19,1.93-1.27,2.83-2.52.14-.21.34-.48.5-.68.29,0,.67.07,1,.12A13.85,13.85,0,0,0,187,120a2.1,2.1,0,0,0,2.09-1.08c.65-1.29-.29-2.42-1-3.32l-.42-.53.23-.6c.49-1.23,1-2.39.42-3.42a2,2,0,0,0-1.29-1,2.21,2.21,0,0,0-.51-.06,5.35,5.35,0,0,0-2.29.75l0,0-.4.2-.22-.22C182.57,109.81,181.64,108.84,180.47,108.84Z"/><path class="cls-5" d="M203.19,132.41c-.85,0-1.13-1-1.46-2.24-.05-.2-.12-.45-.18-.63l-.55.12a6.15,6.15,0,0,1-1.24.19,1.18,1.18,0,0,1-.84-.28c-.78-.72.13-1.84,1-2.91.2-.25.47-.58.57-.73a6.18,6.18,0,0,0-.24-.75c-.3-.8-.63-1.71-.08-2.28a1,1,0,0,1,.73-.29,4.47,4.47,0,0,1,1.94.8c.22.13.5.29.66.36a6.22,6.22,0,0,0,.69-.58,3.05,3.05,0,0,1,1.64-1h0a.88.88,0,0,1,.69.29c.41.45.32,1.26.22,2.2a6.3,6.3,0,0,0-.06,1,7.11,7.11,0,0,0,.77.57c.72.5,1.4,1,1.26,1.66s-1,.83-2.21,1a6.82,6.82,0,0,0-1.27.25c0,.07-.24.63-.37,1-.44,1.21-.74,2-1.31,2.22a.9.9,0,0,1-.37.08"/><path class="cls-6" d="M205.88,122.84c.66,0,0,2.37.18,3s2.12,1.41,2,1.95-2.82.47-3.24.86-.93,2.84-1.55,3.14l-.1,0c-.57,0-.89-2.48-1.2-2.82a.31.31,0,0,0-.24-.07,5.22,5.22,0,0,0-1,.17,5.43,5.43,0,0,1-1,.17.6.6,0,0,1-.4-.11c-.51-.47,1.61-2.46,1.78-3s-1-2.26-.49-2.75a.33.33,0,0,1,.26-.1c.67,0,2.1,1.1,2.56,1.18h0c.56,0,1.7-1.58,2.35-1.61h0m0-1.3h-.08a3.52,3.52,0,0,0-2,1.18l-.31.29-.27-.15a4.94,4.94,0,0,0-2.27-.88,1.62,1.62,0,0,0-1.2.5c-.82.86-.38,2.07-.06,2.95l.14.39-.36.45c-.92,1.12-2.18,2.65-1,3.79a1.82,1.82,0,0,0,1.28.45,6.13,6.13,0,0,0,1.33-.2h0v0c.35,1.27.74,2.72,2.08,2.72a1.5,1.5,0,0,0,.65-.14c.85-.39,1.21-1.41,1.64-2.58.08-.21.18-.48.26-.68.25-.05.62-.1.87-.14,1.36-.2,2.53-.36,2.76-1.52s-.75-1.79-1.53-2.32l-.49-.35c0-.17,0-.4.05-.57.11-1.05.22-2-.38-2.71A1.51,1.51,0,0,0,205.88,121.54Z"/><path class="cls-5" d="M218.71,144c-.47,0-.84-.49-1.39-1.29-.1-.14-.23-.33-.32-.45l-.4.24a2.58,2.58,0,0,1-1.22.53.67.67,0,0,1-.29-.06c-.72-.31-.35-1.34,0-2.34a5.78,5.78,0,0,0,.24-.73l-.38-.48c-.43-.53-.88-1.07-.64-1.6a.88.88,0,0,1,.89-.45,5.94,5.94,0,0,1,1,.14l.1,0a5.54,5.54,0,0,0,.64.1l.33-.62a2.34,2.34,0,0,1,.92-1.14l.08,0h.16c.63,0,.82.78,1,1.61a4.14,4.14,0,0,0,.2.72,4.34,4.34,0,0,0,.74.24c.64.17,1.24.34,1.32.86s-.49.82-1.34,1.27a5.33,5.33,0,0,0-.88.52c0,.07,0,.54,0,.85,0,1,0,1.61-.38,1.94a.63.63,0,0,1-.44.18"/><path class="cls-6" d="M218.49,136.3c.44,0,.57,1.76.84,2.13s1.92.49,2,.91-1.94,1.07-2.16,1.47.05,2.32-.33,2.7a.16.16,0,0,1-.12,0c-.44,0-1.25-1.6-1.56-1.77h-.06a2.46,2.46,0,0,0-.81.41,2.25,2.25,0,0,1-.9.41l-.11,0c-.49-.21.55-2.22.53-2.64s-1.28-1.41-1.06-1.89c.06-.13.24-.18.47-.18a5.79,5.79,0,0,1,1,.12,5.69,5.69,0,0,0,.83.13h.09c.42-.08.86-1.6,1.34-1.8h.07m0-.93a1.09,1.09,0,0,0-.42.08,2.69,2.69,0,0,0-1.15,1.36l-.19.34-.29-.05-.1,0a6.29,6.29,0,0,0-1.13-.14,1.3,1.3,0,0,0-1.32.73c-.36.8.23,1.51.71,2.09l.23.29c0,.13-.11.31-.16.46-.38,1-.89,2.44.23,2.92a1.22,1.22,0,0,0,.48.1,2.75,2.75,0,0,0,1.39-.55l.07,0,0,0,.07.09c.55.8,1,1.48,1.77,1.48a1.09,1.09,0,0,0,.76-.31,3.16,3.16,0,0,0,.51-2.26c0-.19,0-.44,0-.61.17-.11.45-.25.64-.35.92-.48,1.71-.89,1.58-1.74s-1-1.05-1.66-1.24l-.49-.14c0-.14-.08-.33-.12-.47C219.75,136.46,219.5,135.37,218.49,135.37Zm1.38,6"/></g></g></g></g></svg>