<svg xmlns="http://www.w3.org/2000/svg" xmlns:xlink="http://www.w3.org/1999/xlink" viewBox="0 0 283.46 283.46"><defs><style>.cls-1{fill:url(#linear-gradient);}.cls-2{fill:#eee;}.cls-3{fill:#b28abf;}.cls-4{fill:#b8ce33;}.cls-5{fill:#ffe73f;}.cls-6{fill:#fdb515;}</style><linearGradient id="linear-gradient" y1="283.46" x2="283.46" gradientUnits="userSpaceOnUse"><stop offset="0" stop-color="#672d8b"/><stop offset="1" stop-color="#4a9443"/></linearGradient></defs><g id="Layer_2" data-name="Layer 2"><g id="Kids"><g id="jimjam"><rect class="cls-1" width="283.46" height="283.46"/><g id="logo"><path class="cls-2" d="M73.61,130.94a11.34,11.34,0,0,1,4.69.76c3,1.52,3.35,6.81,3,9.19s-2.17,3.35-8.44,5.62a37.23,37.23,0,0,1,3.57,19.57c-.69,8.77-7.91,14.21-15.86,14.21a17.52,17.52,0,0,1-6.19-1.13c-9.73-3.62-8.39-14.17-4.65-18A6.34,6.34,0,0,1,54.3,159,4.78,4.78,0,0,1,58,160.68c2.24,2.58.24,5.13-1.81,5.24h-.11c-2,0-2.38-2.88-1.32-3.95h-.27c-1.36,0-3.1,1.4-3.6,3.36-.77,3.09.55,6.18,4.56,7.11a8,8,0,0,0,1.8.21c4.23,0,7.89-3.47,8.09-8.79.16-4-1.39-7.34-6.41-13.21-2.75.86-5.54,1.77-7.87,1.77a6,6,0,0,1-2.25-.38c-2.47-1-5.42-6.45-3.71-10,1.62-3.4,6.16-5.67,14.29-8.42a47.64,47.64,0,0,1,14.25-2.63m0-2a49.77,49.77,0,0,0-14.9,2.74c-8.27,2.8-13.46,5.24-15.48,9.47a9.25,9.25,0,0,0,.1,7.33c.83,2.08,2.49,4.62,4.7,5.49a8.07,8.07,0,0,0,3,.52A25.81,25.81,0,0,0,58.21,153c4.37,5.3,5.17,7.93,5.06,10.77-.15,4-2.69,6.83-6.05,6.83a6.21,6.21,0,0,1-1.34-.16,4.11,4.11,0,0,1-2.73-1.7,3.79,3.79,0,0,1-.37-2.66A3.73,3.73,0,0,0,56.05,168h.21a5,5,0,0,0,3.25-8.62A6.8,6.8,0,0,0,54.3,157a8.36,8.36,0,0,0-6,2.71c-2.77,2.88-4,7.9-3,12.2a12.79,12.79,0,0,0,8.44,9.18,19.59,19.59,0,0,0,6.91,1.26c9.64,0,17.16-6.77,17.89-16.09a39.2,39.2,0,0,0-2.85-18.56c4.73-1.79,7.26-3.21,7.71-6.51.32-2.4.22-9.11-4.14-11.29A12.9,12.9,0,0,0,73.61,128.9Z"/><path class="cls-3" d="M59.36,133.57c-8.13,2.75-12.66,5-14.29,8.42-1.71,3.59,1.24,9.07,3.71,10s6.41-.23,10.12-1.39c5,5.87,6.57,9.2,6.41,13.21-.23,6.07-5,9.72-9.89,8.58-4-.93-5.33-4-4.55-7.11.52-2.09,2.47-3.55,3.86-3.35-1.08,1.08-.63,4.06,1.43,3.95s4.05-2.66,1.82-5.24c-2-2.32-5.65-2.24-8.22.43-3.74,3.88-5.07,14.43,4.65,18,10,3.72,21.19-2,22-13.08a37.12,37.12,0,0,0-3.57-19.57c6.27-2.27,8.11-3.24,8.44-5.62s0-7.67-3-9.19S67,131,59.36,133.57"/><path class="cls-2" d="M86.94,148.06a8.52,8.52,0,0,1,4.85,1.52c2.95,2.15,3.24,24.24-1.16,27.76a12.56,12.56,0,0,1-7.43,2.23,11.27,11.27,0,0,1-6.42-1.83c-5.08-3.53,1.22-25.43,5.68-28.33a8.1,8.1,0,0,1,4.48-1.35m0-2a10.06,10.06,0,0,0-5.59,1.68c-4.15,2.69-8.38,15.87-8.49,23.74-.07,4,.87,6.66,2.76,8a13.24,13.24,0,0,0,7.58,2.19,14.59,14.59,0,0,0,8.7-2.68c4.24-3.39,4.16-16.12,4.1-18.63-.11-4.73-.73-10.71-3-12.37A10.55,10.55,0,0,0,86.94,146Z"/><path class="cls-3" d="M82.46,149.41c-4.46,2.9-10.76,24.8-5.68,28.33,4.35,3,11,1.91,13.85-.4,4.4-3.52,4.11-25.61,1.16-27.76a8.34,8.34,0,0,0-9.33-.17"/><path class="cls-2" d="M101.14,148.58a21.53,21.53,0,0,1,3.8.37c4.57.79,6,7.24,8.52,7.82a2.28,2.28,0,0,0,.44,0c1.88,0,3.46-2.69,6.46-4.4a10.08,10.08,0,0,1,4.83-1.34,6.09,6.09,0,0,1,4.55,1.86c3.88,4.06,4.58,23.58,3.77,25.9-.48,1.35-2.61,2-4.78,2a7.62,7.62,0,0,1-4.14-1c-2.44-1.68-.19-13.6-1.57-14.26a.32.32,0,0,0-.14,0c-1.37,0-5.52,7.57-8.2,7.57s-6.82-8.67-8.07-8.67c-.13,0-.22.09-.28.26-.63,1.92-.11,12.87-3.18,14.2a9.22,9.22,0,0,1-3.56.67c-2.54,0-5.07-.93-5.48-2.93-1.68-8.11-.23-23.58,1.39-25.9,1-1.48,3-2.16,5.64-2.16m0-2c-3.44,0-5.9,1-7.31,3-2.13,3-3.44,19.14-1.72,27.48.57,2.77,3.51,4.56,7.48,4.56a11.27,11.27,0,0,0,4.37-.84c2.94-1.28,3.57-5.78,4-11.61,2.56,3.63,4.44,6,6.75,6,2.47,0,4.66-2.64,6.76-5.26,0,.33,0,.67,0,1-.18,5.63-.14,9.15,2,10.63a9.52,9.52,0,0,0,5.3,1.41c2.66,0,5.82-.89,6.7-3.39,1-3,.26-23.31-4.22-28a8.14,8.14,0,0,0-6-2.49,12.2,12.2,0,0,0-5.84,1.61,20.86,20.86,0,0,0-3.56,2.71,8.52,8.52,0,0,1-1.86,1.42,10.08,10.08,0,0,1-1.71-2.16c-1.45-2.14-3.43-5.07-6.91-5.68A24,24,0,0,0,101.14,146.54Z"/><path class="cls-3" d="M94.11,176.64c.62,3,6,3.59,9,2.26s2.54-12.28,3.18-14.2,5.56,8.41,8.34,8.41,7.13-8.12,8.35-7.54c1.38.66-.87,12.58,1.56,14.26s8.11,1.33,8.92-1,.12-21.84-3.76-25.9c-2.74-2.85-7-1.91-9.39-.52-3.22,1.84-4.81,4.82-6.89,4.35-2.55-.58-3.95-7-8.52-7.83s-8-.31-9.44,1.8c-1.62,2.32-3.07,17.79-1.39,25.9"/><path class="cls-2" d="M192.5,145.29c2,0,4,.55,4.68,1.8,2.52,4.8.7,24.74-.41,28.1-.69,2.13-3.18,2.75-5.56,2.75a13.62,13.62,0,0,1-4.34-.67c-2.26-.84-2.15-4.57-2.15-4.57s-1.43,4.28-8.92,4.75l-.91,0c-7.68,0-12.23-6.41-12.19-16.08.06-10.59,6.92-14.77,13.43-14.77h.13c7.94.07,10,4,10,4s.24-3.08,1.68-4.17a8.08,8.08,0,0,1,4.53-1.16M179,167.11a6,6,0,0,0,1-.09c8.05-1.43,6.72-10.37-.11-11.82a3.85,3.85,0,0,0-.8-.09c-2.66,0-4.28,3-4.43,6s1.15,6,4.33,6m13.54-23.86a9.91,9.91,0,0,0-5.76,1.58,5.18,5.18,0,0,0-1.54,2,16.7,16.7,0,0,0-8.92-2.23h-.15c-7.65,0-15.4,5.19-15.46,16.8,0,6.17,1.65,11.14,4.87,14.37a12.84,12.84,0,0,0,9.35,3.76l1,0a14.44,14.44,0,0,0,7.74-2.49,4.71,4.71,0,0,0,2.49,2.19,15.92,15.92,0,0,0,5.05.79c5.34,0,7-2.6,7.5-4.16,1.09-3.32,3.27-24,.28-29.68C198,144.3,195.66,143.25,192.5,143.25ZM179,165.08a1.85,1.85,0,0,1-1.41-.55,4.69,4.69,0,0,1-.89-3.31c.1-1.95,1.05-4.07,2.4-4.07a2.73,2.73,0,0,1,.38,0,4.7,4.7,0,0,1,4,4.35c0,1.78-1.43,3-3.85,3.47A3.23,3.23,0,0,1,179,165.08Z"/><path class="cls-4" d="M186.29,150.62s.24-3.08,1.68-4.17c2.14-1.62,8-1.68,9.21.64,2.52,4.8.7,24.74-.41,28.1-1.21,3.72-7.87,2.84-9.9,2.09-2.26-.84-2.15-4.58-2.15-4.58s-1.43,4.28-8.92,4.75c-8.23.52-13.15-6-13.09-16,0-10.66,7-14.83,13.55-14.77,7.94.07,10,4,10,4m-6.43,4.58c-6.29-1.33-7.71,13.21.11,11.82C188,165.59,186.69,156.65,179.86,155.2Z"/><path class="cls-2" d="M160.52,129.89a11.15,11.15,0,0,1,4.69.77c3,1.51,3.35,6.81,3,9.19s-2.16,3.35-8.43,5.62A37.2,37.2,0,0,1,163.37,165c-.69,8.76-7.91,14.21-15.86,14.21a17.75,17.75,0,0,1-6.19-1.13c-9.73-3.62-8.39-14.17-4.65-18.06a6.36,6.36,0,0,1,4.54-2.08,4.77,4.77,0,0,1,3.67,1.65c2.24,2.58.24,5.14-1.82,5.25H143c-2,0-2.38-2.89-1.32-3.95l-.27,0c-1.36,0-3.11,1.41-3.6,3.37-.77,3.09.54,6.18,4.56,7.11a8,8,0,0,0,1.8.2c4.23,0,7.89-3.46,8.09-8.78.16-4-1.39-7.34-6.41-13.21-2.75.86-5.54,1.77-7.87,1.77a6,6,0,0,1-2.25-.38c-2.47-1-5.42-6.45-3.71-10,1.62-3.4,6.16-5.67,14.29-8.42a47.63,47.63,0,0,1,14.25-2.64m0-2a49.8,49.8,0,0,0-14.9,2.75c-8.27,2.79-13.46,5.24-15.48,9.47a9.22,9.22,0,0,0,.1,7.32c.82,2.09,2.49,4.63,4.7,5.5a8.07,8.07,0,0,0,3,.52,25.49,25.49,0,0,0,7.18-1.46c4.37,5.3,5.17,7.93,5.06,10.78-.15,4-2.7,6.82-6.05,6.82a6.18,6.18,0,0,1-1.34-.15,4.12,4.12,0,0,1-2.73-1.71,3.76,3.76,0,0,1-.37-2.65,3.73,3.73,0,0,0,3.27,1.88h.21a5,5,0,0,0,3.25-8.62,6.8,6.8,0,0,0-5.21-2.36,8.36,8.36,0,0,0-6,2.71c-2.77,2.88-4,7.89-3,12.2A12.79,12.79,0,0,0,140.6,180a19.82,19.82,0,0,0,6.91,1.26c9.64,0,17.16-6.77,17.89-16.09a39.27,39.27,0,0,0-2.85-18.57c4.73-1.79,7.26-3.2,7.71-6.5.32-2.4.22-9.11-4.14-11.29A12.74,12.74,0,0,0,160.52,127.85Z"/><path class="cls-4" d="M146.27,132.53c-8.13,2.75-12.67,5-14.29,8.42-1.71,3.59,1.24,9.07,3.71,10s6.41-.23,10.12-1.39c5,5.87,6.57,9.19,6.41,13.21-.23,6.07-4.95,9.72-9.89,8.58-4-.93-5.33-4-4.56-7.11.53-2.09,2.47-3.55,3.87-3.35-1.08,1.08-.63,4.06,1.42,3.95s4.06-2.67,1.82-5.25c-2-2.31-5.65-2.23-8.21.43-3.74,3.89-5.08,14.44,4.65,18.06,10,3.71,21.18-2.05,22.05-13.08a37.2,37.2,0,0,0-3.57-19.57c6.27-2.27,8.11-3.24,8.43-5.62s0-7.68-3-9.19-11.26-.73-18.94,1.87"/><path class="cls-2" d="M206.25,147.65A22.5,22.5,0,0,1,210,148c4.57.8,6,7.24,8.52,7.82a2.3,2.3,0,0,0,.45,0c1.87,0,3.45-2.69,6.45-4.4a10.07,10.07,0,0,1,4.82-1.33,6.11,6.11,0,0,1,4.56,1.86c3.89,4,4.58,23.58,3.77,25.89-.48,1.36-2.6,2-4.78,2a7.62,7.62,0,0,1-4.14-1c-2.44-1.68-.19-13.6-1.57-14.25a.31.31,0,0,0-.13,0c-1.38,0-5.53,7.56-8.21,7.56s-6.82-8.66-8.07-8.66c-.12,0-.22.08-.28.26-.63,1.91-.11,12.86-3.18,14.19a9,9,0,0,1-3.56.67c-2.54,0-5.07-.93-5.48-2.93-1.68-8.11-.23-23.58,1.39-25.9,1-1.48,3-2.16,5.65-2.16m0-2c-3.45,0-5.91,1-7.32,3-2.12,3-3.45,19.15-1.72,27.48.58,2.77,3.51,4.56,7.49,4.56a11.26,11.26,0,0,0,4.36-.84c2.94-1.27,3.57-5.78,4-11.61,2.55,3.63,4.44,6,6.74,6,2.47,0,4.66-2.64,6.76-5.26,0,.34,0,.67,0,1-.18,5.63-.13,9.15,2,10.64a9.61,9.61,0,0,0,5.3,1.41c2.67,0,5.83-.9,6.7-3.4,1.05-3,.26-23.31-4.21-28a8.17,8.17,0,0,0-6-2.48,12.19,12.19,0,0,0-5.84,1.6,20.86,20.86,0,0,0-3.56,2.72,7.89,7.89,0,0,1-1.86,1.41,9.83,9.83,0,0,1-1.71-2.16c-1.45-2.14-3.42-5.07-6.92-5.68A24.74,24.74,0,0,0,206.25,145.61Z"/><path class="cls-4" d="M199.21,175.71c.62,3,6,3.59,9,2.26s2.55-12.28,3.18-14.19,5.57,8.4,8.35,8.4,7.12-8.11,8.34-7.53c1.38.65-.87,12.57,1.56,14.25s8.12,1.33,8.93-1,.11-21.84-3.77-25.89c-2.73-2.86-7-1.92-9.39-.53-3.22,1.84-4.81,4.82-6.89,4.35-2.55-.58-3.95-7-8.52-7.82s-8-.32-9.44,1.79c-1.62,2.32-3.07,17.79-1.39,25.9"/><path class="cls-5" d="M95.54,149.45c-1.33,0-2.47-1.33-4.54-3.88a18.16,18.16,0,0,0-2.56-2.82s0,0-.11,0a21.35,21.35,0,0,0-3.15.48l-.31,0a25.08,25.08,0,0,1-4.38.58,3.91,3.91,0,0,1-2.23-.53,2,2,0,0,1-.87-1.45c-.15-1.49,1.23-3,3.53-5.42.52-.53,1.18-1.21,1.53-1.65-.31-.4-.9-1-1.32-1.47-1.56-1.64-3-3.19-2.69-4.78.26-1.24,1.41-1.88,3.42-1.88a29.1,29.1,0,0,1,4.16.43l.44.06a23.61,23.61,0,0,0,2.7.33h.08a12.09,12.09,0,0,0,1.65-1.82c1.36-1.67,2.76-3.4,4.45-3.4a2.31,2.31,0,0,1,.52.06c2.23.5,2.27,3.69,2.3,6.77a20.89,20.89,0,0,0,.11,2.37,13.54,13.54,0,0,0,2.66,1c2,.58,3.8,1.14,4.59,2.33a2,2,0,0,1,.27,1.68c-.39,1.38-2.08,2.24-4.81,3.5a15.81,15.81,0,0,0-2.51,1.3,12.28,12.28,0,0,0-.41,3c-.16,2.4-.3,4.48-1.92,5.07a1.72,1.72,0,0,1-.6.1"/><path class="cls-6" d="M95.34,123.68l.22,0c1.79.41.88,7,1.45,8.4s6.31,1.92,7.35,3.48-5.67,3.48-6.89,4.75-.35,7.19-1.8,7.71a.27.27,0,0,1-.13,0c-1.38,0-5.13-6.18-6.65-6.63a2.12,2.12,0,0,0-.56-.06,24.78,24.78,0,0,0-3.72.56,24.43,24.43,0,0,1-4.12.55,2.74,2.74,0,0,1-1.45-.29c-1.62-1.11,4.51-5.87,4.93-7.19.35-1.1-4.52-4.51-4.17-6.14.12-.58.94-.78,2-.78a29.61,29.61,0,0,1,4,.41,27.73,27.73,0,0,0,3.35.41,1.74,1.74,0,0,0,.43,0c1.45-.33,3.9-5.18,5.75-5.18m0-2.78c-2.35,0-4,2-5.53,3.91-.32.4-.76.94-1.08,1.28-.54,0-1.34-.17-2.07-.28l-.43-.07a31.54,31.54,0,0,0-4.38-.44c-3.6,0-4.54,1.87-4.77,3-.49,2.3,1.3,4.19,3,6l.47.5-.67.69c-2.22,2.3-4.14,4.29-3.91,6.53a3.39,3.39,0,0,0,1.47,2.46,5.23,5.23,0,0,0,3,.77,26.37,26.37,0,0,0,4.64-.6l.3-.06c.91-.17,1.92-.36,2.55-.43.52.52,1.39,1.59,1.94,2.27,2.15,2.65,3.57,4.4,5.62,4.4a3.21,3.21,0,0,0,1.07-.18c2.48-.9,2.67-3.76,2.84-6.29a20.46,20.46,0,0,1,.22-2.2c.47-.27,1.3-.65,1.89-.92,2.67-1.23,5-2.29,5.57-4.38a3.42,3.42,0,0,0-.45-2.83c-1.08-1.61-3.15-2.24-5.35-2.9-.52-.15-1.24-.37-1.74-.56,0-.46,0-1,0-1.47,0-3.29-.09-7.37-3.39-8.12A3.84,3.84,0,0,0,95.34,120.9Z"/><path class="cls-5" d="M126.09,122.51c-.88,0-1.92-.65-3.55-1.72a15.84,15.84,0,0,0-2.23-1.31,15.22,15.22,0,0,0-2,1c-1.84,1-3.13,1.66-4.19,1.66a2.37,2.37,0,0,1-.61-.08,1.63,1.63,0,0,1-1-.91c-.46-1.06.15-2.44,1.21-4.6.2-.4.44-.9.59-1.26-.29-.19-.72-.42-1-.59-1.45-.8-2.83-1.55-3-2.81-.2-2,2.59-2.48,5.29-2.91.64-.11,1.51-.25,1.84-.36a10.18,10.18,0,0,0,.65-1.47c.64-1.64,1.3-3.33,2.81-3.47H121c1.67,0,2.39,2.14,3.08,4.21.17.5.39,1.14.53,1.46a7.52,7.52,0,0,0,1.07.06h1.63a4.61,4.61,0,0,1,2.89.64,1.64,1.64,0,0,1,.63,1.24c0,1.19-1.16,2.29-2.56,3.56a11.87,11.87,0,0,0-1.35,1.37,10.86,10.86,0,0,0,.39,1.94c.41,1.66.8,3.23-.28,4.06a1.57,1.57,0,0,1-1,.31"/><path class="cls-6" d="M121,104.88c1.27,0,2.07,4.53,2.75,5.35.27.33,1,.39,1.94.39h1.63a4,4,0,0,1,2.14.37c1.06.85-3.07,3.57-3.62,4.69s1.33,4.92.46,5.58a.36.36,0,0,1-.22.06,8.64,8.64,0,0,1-2.89-1.52,9,9,0,0,0-2.87-1.52h0c-1.09,0-4.68,2.68-6.2,2.68a.77.77,0,0,1-.27,0c-1.33-.39,1.77-4.93,1.76-5.9,0-.82-4-2.07-4.14-3.23-.14-1.38,5.65-1.56,6.59-2.12s1.56-4.65,2.9-4.77H121m0-2.41h-.26c-2.26.2-3.17,2.53-3.83,4.23-.1.26-.23.6-.34.87l-1.22.21c-2.79.45-6.61,1.07-6.29,4.22.2,1.89,2,2.88,3.59,3.74l0,0c0,.09-.08.16-.11.24-1,2.13-2,4-1.23,5.61a2.78,2.78,0,0,0,1.8,1.58,3.31,3.31,0,0,0,1,.14c1.34,0,2.76-.72,4.77-1.82.42-.23,1-.54,1.39-.73.46.25,1.13.69,1.57,1,1.85,1.21,3,1.94,4.24,1.94a2.71,2.71,0,0,0,1.69-.57c1.71-1.31,1.16-3.53.71-5.3-.09-.37-.22-.9-.29-1.28.26-.25.63-.6.91-.85,1.61-1.48,3-2.75,2.94-4.5a2.88,2.88,0,0,0-1.08-2.14,5.7,5.7,0,0,0-3.64-.89h-1.85c-.08-.24-.17-.49-.23-.7C124.49,105.26,123.56,102.47,121,102.47Z"/><path class="cls-5" d="M150.71,116.41h-.15a1.32,1.32,0,0,1-1-.58c-.52-.75-.26-1.88.23-3.65.08-.28.17-.63.23-.9l-.74-.25c-1.22-.39-2.36-.76-2.65-1.72-.47-1.57,1.57-2.31,3.54-3,.43-.16,1-.37,1.26-.5a9.09,9.09,0,0,0,.24-1.11c.24-1.27.5-2.7,1.67-3a1.21,1.21,0,0,1,.38-.06c1.18,0,1.93,1.33,2.73,2.75.16.29.39.7.54.92a7.64,7.64,0,0,0,1.29-.21,9.92,9.92,0,0,1,1.87-.27,2.23,2.23,0,0,1,1.05.22,1.37,1.37,0,0,1,.69.9c.21.92-.53,1.92-1.39,3.08a9.55,9.55,0,0,0-.77,1.11,8.29,8.29,0,0,0,.53,1.33c.55,1.2,1.08,2.33.35,3.15a1.34,1.34,0,0,1-1,.43,8.13,8.13,0,0,1-2.61-.79,11.5,11.5,0,0,0-1.76-.64,15.63,15.63,0,0,0-1.27,1c-1.41,1.17-2.33,1.88-3.24,1.88"/><path class="cls-6" d="M153.74,102.59c.93,0,2.1,3,2.7,3.55a.86.86,0,0,0,.53.13,8.21,8.21,0,0,0,1.58-.25,9,9,0,0,1,1.62-.24,1.32,1.32,0,0,1,.57.1c.9.48-1.75,3.06-2,4s1.66,3.42,1.12,4a.36.36,0,0,1-.27.08,8.39,8.39,0,0,1-2.23-.72,8.41,8.41,0,0,0-2.21-.72H155c-.83.18-3.27,2.86-4.33,2.86h-.05c-1-.1.6-3.87.46-4.58s-3.24-1-3.5-1.8,3.94-1.94,4.55-2.49.49-3.63,1.46-3.9a.23.23,0,0,1,.11,0m0-2a2.22,2.22,0,0,0-.67.1c-1.77.5-2.12,2.42-2.38,3.82,0,.17-.07.38-.11.56l-.74.28c-2.07.76-4.91,1.79-4.17,4.28.43,1.42,1.84,1.93,3.15,2.34-.49,1.76-.9,3.28-.08,4.47a2.37,2.37,0,0,0,1.73,1h.24c1.34,0,2.52-1,3.9-2.1.23-.2.55-.46.81-.66l1.16.46a8.54,8.54,0,0,0,3,.88,2.33,2.33,0,0,0,1.79-.77c1.17-1.32.42-3-.18-4.26-.1-.21-.24-.52-.34-.76.14-.21.32-.46.46-.65,1-1.3,1.89-2.53,1.57-3.91a2.38,2.38,0,0,0-1.22-1.58,3.22,3.22,0,0,0-1.5-.33,10.13,10.13,0,0,0-2.06.29l-.58.12-.18-.33C156.49,102.29,155.52,100.55,153.74,100.55Z"/><path class="cls-5" d="M180.56,122.09a1.11,1.11,0,0,1-.78-.33c-.5-.51-.53-1.42-.51-2.86v-.76l-.65,0c-1,0-2-.11-2.44-.8-.7-1.14.75-2.16,2.16-3.13.31-.22.71-.51.88-.66a7.89,7.89,0,0,0,0-.92c-.08-1-.17-2.24.68-2.74a1.17,1.17,0,0,1,.61-.17c.76,0,1.45.65,2.41,1.64.19.2.47.48.63.62a9.59,9.59,0,0,0,1-.44,4.81,4.81,0,0,1,2-.69,1.19,1.19,0,0,1,.33,0,1.11,1.11,0,0,1,.74.56c.35.69,0,1.63-.46,2.73a9.11,9.11,0,0,0-.38,1.07c.05.1.46.6.7.89.69.83,1.34,1.61.94,2.42a1.42,1.42,0,0,1-1.34.62,14.35,14.35,0,0,1-1.62-.15,13.36,13.36,0,0,0-1.4-.14h-.11a10.24,10.24,0,0,0-.79,1c-.92,1.27-1.53,2.06-2.29,2.18l-.07,0h-.12"/><path class="cls-6" d="M180.47,110.52c.76,0,2.22,2,2.77,2.24a.47.47,0,0,0,.17,0,4.25,4.25,0,0,0,1.48-.57,4.27,4.27,0,0,1,1.54-.57h.14c.81.19-.74,2.78-.74,3.54s2,2.35,1.72,2.94c-.06.12-.28.17-.59.17a14.08,14.08,0,0,1-1.52-.15,13.5,13.5,0,0,0-1.5-.14,1.16,1.16,0,0,0-.47.07c-.63.32-2,3-2.86,3.16h-.05c-.76,0-.29-3.19-.54-3.72s-2.76-.07-3.13-.68,2.69-2.35,3.06-2.91-.37-3,.34-3.39a.34.34,0,0,1,.18,0m0-1.68a2,2,0,0,0-1,.29c-1.29.77-1.17,2.36-1.08,3.52,0,.14,0,.31,0,.46l-.52.37c-1.39,1-3.5,2.44-2.39,4.25.63,1,1.85,1.14,3,1.2,0,1.41,0,2.63.76,3.42a1.93,1.93,0,0,0,1.37.57,1.88,1.88,0,0,0,.33,0c1.15-.19,1.93-1.27,2.82-2.52.15-.21.34-.48.5-.68.29,0,.67.07,1,.11A12.45,12.45,0,0,0,187,120a2.09,2.09,0,0,0,2.08-1.09c.65-1.29-.28-2.42-1-3.32l-.42-.53.23-.6c.5-1.23,1-2.39.42-3.41a1.93,1.93,0,0,0-1.29-1,2.76,2.76,0,0,0-.51,0,5.39,5.39,0,0,0-2.29.75l0,0a3.73,3.73,0,0,1-.4.2l-.21-.21C182.57,109.81,181.64,108.84,180.47,108.84Z"/><path class="cls-5" d="M203.19,132.41c-.84,0-1.13-1-1.45-2.23-.05-.21-.13-.45-.18-.64l-.55.12a6.24,6.24,0,0,1-1.25.19,1.2,1.2,0,0,1-.83-.27c-.78-.73.13-1.84,1-2.91.2-.25.47-.57.57-.72a7,7,0,0,0-.24-.75c-.3-.8-.63-1.71-.09-2.28a1,1,0,0,1,.73-.3,4.39,4.39,0,0,1,1.94.8c.22.12.5.29.66.36a7.88,7.88,0,0,0,.69-.58,3.08,3.08,0,0,1,1.63-1h0a.85.85,0,0,1,.69.29c.41.45.32,1.26.22,2.2a7.68,7.68,0,0,0-.06.95,7.69,7.69,0,0,0,.77.57c.72.5,1.4,1,1.26,1.66s-1,.83-2.21,1a6.88,6.88,0,0,0-1.27.25c0,.07-.24.63-.37,1-.44,1.21-.74,2-1.31,2.22a1,1,0,0,1-.37.08"/><path class="cls-6" d="M205.88,122.84c.66,0,0,2.36.18,3s2.13,1.41,2,1.94-2.81.48-3.24.87-.93,2.84-1.55,3.13l-.1,0c-.57,0-.89-2.48-1.2-2.83a.33.33,0,0,0-.23-.07,5.59,5.59,0,0,0-1,.17,5.47,5.47,0,0,1-1,.17.55.55,0,0,1-.39-.11c-.51-.47,1.6-2.46,1.77-3s-.95-2.26-.48-2.75a.29.29,0,0,1,.25-.1c.67,0,2.1,1.11,2.57,1.18h0c.56,0,1.7-1.58,2.35-1.61h0m0-1.3h-.08a3.49,3.49,0,0,0-2,1.18l-.32.29-.26-.15a4.9,4.9,0,0,0-2.27-.89,1.63,1.63,0,0,0-1.2.5c-.82.87-.38,2.07-.06,3,0,.12.1.27.15.39l-.36.45c-.92,1.12-2.18,2.65-1,3.79a1.84,1.84,0,0,0,1.28.46,6,6,0,0,0,1.33-.2h0s0,0,0,0c.35,1.27.74,2.71,2.08,2.71a1.49,1.49,0,0,0,.65-.14c.84-.39,1.21-1.41,1.64-2.58.07-.21.17-.49.25-.69l.87-.14c1.36-.2,2.53-.36,2.76-1.52s-.75-1.79-1.53-2.32l-.49-.35c0-.18,0-.4.06-.57.11-1,.22-2-.39-2.71A1.51,1.51,0,0,0,205.88,121.54Z"/><path class="cls-5" d="M218.71,144c-.47,0-.84-.49-1.39-1.29l-.32-.45-.4.25a2.63,2.63,0,0,1-1.22.53.68.68,0,0,1-.29-.06c-.72-.31-.35-1.34,0-2.34a5,5,0,0,0,.24-.73l-.38-.47c-.44-.53-.89-1.07-.64-1.61a.86.86,0,0,1,.89-.45,5.74,5.74,0,0,1,1,.14h.1a4.89,4.89,0,0,0,.64.1s.22-.4.34-.62c.27-.51.53-1,.92-1.15l.08,0,.16,0c.64,0,.82.79,1,1.62a4.88,4.88,0,0,0,.2.72,4.59,4.59,0,0,0,.74.24c.64.17,1.24.34,1.32.86s-.49.82-1.34,1.27a4.78,4.78,0,0,0-.88.51c0,.08,0,.54,0,.85,0,1,0,1.61-.37,1.93a.63.63,0,0,1-.44.19"/><path class="cls-6" d="M218.49,136.3c.44,0,.58,1.76.84,2.13s1.92.49,2,.91-1.94,1.07-2.15,1.47.05,2.32-.33,2.69a.16.16,0,0,1-.12.05c-.44,0-1.25-1.6-1.56-1.76l-.06,0a2.51,2.51,0,0,0-.81.41,2.27,2.27,0,0,1-.9.42l-.11,0c-.49-.22.55-2.22.53-2.65s-1.28-1.41-1.06-1.89c.06-.13.24-.17.47-.17a5.85,5.85,0,0,1,1,.12,6.15,6.15,0,0,0,.83.13h.09c.42-.08.86-1.6,1.33-1.8h.07m0-.93a1.06,1.06,0,0,0-.42.09,2.71,2.71,0,0,0-1.15,1.35c0,.1-.12.23-.19.34l-.29-.05-.1,0a6.46,6.46,0,0,0-1.13-.14,1.29,1.29,0,0,0-1.31.73c-.37.79.23,1.51.7,2.09a3.67,3.67,0,0,1,.23.29c0,.13-.11.31-.16.45-.37,1-.89,2.44.23,2.93a1.28,1.28,0,0,0,.48.09,2.78,2.78,0,0,0,1.39-.55l.07-.05,0,0,.07.1c.55.79,1,1.48,1.77,1.48a1.07,1.07,0,0,0,.76-.31,3.16,3.16,0,0,0,.52-2.26c0-.19,0-.44,0-.61.18-.11.46-.26.64-.35.92-.48,1.71-.9,1.59-1.75s-1-1-1.66-1.24c-.14,0-.35-.09-.49-.14s-.08-.33-.12-.48C219.75,136.46,219.5,135.37,218.49,135.37Zm1.39,6"/></g></g></g></g></svg>