<?xml version="1.0" encoding="utf-8"?>
<!-- Generator: Adobe Illustrator 24.3.0, SVG Export Plug-In . SVG Version: 6.00 Build 0)  -->
<svg version="1.1" id="Слой_1" xmlns="http://www.w3.org/2000/svg" xmlns:xlink="http://www.w3.org/1999/xlink" x="0px" y="0px"
	 viewBox="0 0 512 428" style="enable-background:new 0 0 512 428;" xml:space="preserve">
<style type="text/css">
	.st0{fill:#8EB9CA;}
</style>
<g>
	<polygon class="st0" points="0,377.3 0,427.2 29.9,427.2 29.8,422.1 5.9,422.1 5.9,377.3 	"/>
	<g>
		<path class="st0" d="M96.6,402.3c0,3.8-0.6,7.2-1.7,10.4c-1.1,3.1-2.7,5.9-4.8,8.1c-2.1,2.3-4.7,4-7.7,5.3
			c-3,1.2-6.5,1.9-10.3,1.9c-3.8,0-7.2-0.6-10.3-1.8c-3-1.2-5.6-3-7.7-5.2c-2.1-2.2-3.7-4.9-4.8-8.1c-1.1-3.2-1.7-6.7-1.7-10.6
			c0-3.8,0.6-7.2,1.7-10.4c1.1-3.1,2.7-5.9,4.9-8.2c2.1-2.3,4.7-4.1,7.8-5.4c3.1-1.3,6.5-1.9,10.4-1.9c3.7,0,7.1,0.6,10.1,1.8
			c3,1.2,5.5,3,7.6,5.3c2.1,2.2,3.7,5,4.8,8.2C96.1,394.8,96.6,398.3,96.6,402.3 M53.9,402.3c0,2.9,0.4,5.6,1.1,8.1
			c0.8,2.5,1.9,4.7,3.4,6.5c1.5,1.9,3.4,3.3,5.6,4.4c2.3,1.1,4.9,1.6,7.9,1.6c3,0,5.7-0.5,8-1.6c2.3-1.1,4.2-2.5,5.7-4.4
			c1.5-1.9,2.6-4.1,3.4-6.6c0.8-2.5,1.1-5.3,1.1-8.3c0-2.9-0.4-5.6-1.1-8.1c-0.8-2.5-1.9-4.7-3.4-6.5c-1.5-1.9-3.4-3.3-5.6-4.3
			c-2.3-1.1-4.9-1.6-7.9-1.6c-3,0-5.6,0.6-7.9,1.7c-2.2,1.1-4.2,2.7-5.7,4.6c-1.5,1.9-2.7,4.1-3.5,6.7
			C54.3,396.9,53.9,399.6,53.9,402.3"/>
		<path class="st0" d="M121.9,377.3h5.9v31.2c0,4.6,1.2,8.2,3.5,10.7c2.3,2.5,5.7,3.7,10.2,3.7c2.1,0,4-0.3,5.7-1
			c1.7-0.7,3.2-1.6,4.3-2.8c1.2-1.2,2.1-2.7,2.8-4.5c0.7-1.8,1-3.8,1-5.9v-31.4h5.9l-0.1,31c0,3.1-0.4,5.9-1.3,8.3
			c-0.8,2.4-2.1,4.5-3.7,6.2c-1.7,1.7-3.8,3-6.2,3.9c-2.5,0.9-5.4,1.3-8.7,1.3c-3.5,0-6.6-0.5-9-1.4c-2.5-0.9-4.5-2.3-6-4
			c-1.5-1.7-2.7-3.8-3.3-6.1c-0.7-2.4-1-5-1-7.9V377.3z"/>
		<polygon class="st0" points="189.1,427.2 189.1,377.3 196.1,377.3 221.7,415.4 224.4,419.8 224.4,377.3 230.2,377.3 230.2,427.2 
			223.1,427.2 197.4,389 194.9,384.8 194.9,427.2 		"/>
		<path class="st0" d="M294.8,386.2c-0.8-0.8-1.8-1.5-2.8-2.1c-1-0.6-2.2-1.1-3.3-1.4c-1.2-0.4-2.4-0.7-3.7-0.9
			c-1.3-0.2-2.6-0.3-3.9-0.3c-3.2,0-6,0.6-8.4,1.8c-2.4,1.2-4.4,2.8-6,4.8c-1.6,2-2.8,4.2-3.7,6.8c-0.8,2.5-1.2,5.2-1.2,8
			c0,3,0.4,5.7,1.2,8.2c0.8,2.5,2,4.6,3.7,6.4c1.6,1.8,3.7,3.1,6.1,4.1c2.4,1,5.3,1.5,8.6,1.5c1.9,0,3.8-0.2,5.6-0.5
			c1.8-0.3,3.5-0.8,5.2-1.5v-14.6h-12.4v-5.1H298v23.1c-2.8,1.3-5.6,2.2-8.5,2.8c-2.9,0.5-5.8,0.8-8.7,0.8c-4.1,0-7.7-0.6-10.9-1.8
			c-3.1-1.2-5.8-2.9-7.9-5c-2.1-2.2-3.7-4.8-4.8-7.8c-1.1-3.1-1.6-6.4-1.6-10.2c0-2.5,0.3-4.8,0.8-7.1c0.5-2.3,1.3-4.4,2.3-6.4
			c1-2,2.2-3.8,3.7-5.4c1.4-1.7,3.1-3.1,5-4.2c1.9-1.2,4-2.1,6.3-2.7c2.3-0.6,4.8-1,7.5-1c1.7,0,3.2,0.1,4.8,0.4
			c1.6,0.3,3,0.7,4.4,1.2c1.4,0.5,2.6,1.1,3.8,1.9c1.2,0.8,2.2,1.7,3.1,2.8L294.8,386.2z"/>
		<polygon class="st0" points="356.5,427.2 325.8,427.2 325.8,377.3 355.5,377.3 355.5,382.3 331.7,382.3 331.7,399.1 354.2,399.1 
			354.2,404.1 331.7,404.1 331.7,422.1 356.5,422.1 		"/>
		<polygon class="st0" points="427.4,427.2 427.4,382.3 411.4,382.3 411.4,377.3 449.5,377.3 449.5,382.3 433.3,382.3 433.3,427.2 
					"/>
		<polygon class="st0" points="473.5,377.3 488,416.6 489.6,421.5 491.2,416.6 505.8,377.3 512,377.3 492.6,427.2 486.1,427.2 
			466.9,377.3 		"/>
		<path class="st0" d="M124.2,0h263.5v306.1H124.2V0z M384.9,2.9H127.2v300.3h257.7V2.9z"/>
		<path class="st0" d="M340.8,252.1c2,0,3.7,0.7,5.1,2c1.4,1.4,2.1,3,2.1,5c0,2.1-0.7,3.9-2.1,5.2c-1.4,1.4-3.1,2.1-5.1,2.1H215.2
			c-2.1,0-3.9-0.7-5.2-2.1c-1.3-1.3-2-3.1-2-5.2V54.2h-29.5v204.9c0,2.1-0.7,3.9-2,5.2c-1.3,1.4-3.1,2.1-5.2,2.1
			c-2,0-3.7-0.7-5.1-2.1c-1.4-1.3-2.2-3.1-2.2-5.2V47c0-2,0.7-3.7,2.2-5.1c1.4-1.4,3.1-2.1,5.1-2.1h44c2,0,3.7,0.7,5.1,2.1
			c1.4,1.4,2.1,3.1,2.1,5.1v205.1H340.8z"/>
	</g>
</g>
</svg>
