<svg xmlns="http://www.w3.org/2000/svg" viewBox="0 0 283.46 283.46"><defs><style>.cls-1{fill:#0a9d4b;}.cls-2{fill:#fff;}</style></defs><g id="Layer_2" data-name="Layer 2"><g id="Nature_Documentaries" data-name="Nature Documentaries"><g id="lovenature"><rect class="cls-1" width="283.46" height="283.46"/><g id="logo"><path id="path2-2" class="cls-2" d="M79.54,106a21.89,21.89,0,0,1,12.8,2,15.67,15.67,0,0,1,8,9.11,19.32,19.32,0,0,1-.37,12.67,16.3,16.3,0,0,1-8.18,9,22,22,0,0,1-12.19,1.6,18,18,0,0,1-10.7-5.06,16.48,16.48,0,0,1-4.47-10.26,17.78,17.78,0,0,1,3.24-12.47A17.59,17.59,0,0,1,79.54,106m1.51,7.92A6.68,6.68,0,0,0,77,117a13,13,0,0,0-1.35,7.73A9.66,9.66,0,0,0,78,130.42a6.79,6.79,0,0,0,8.14,1.07,7.61,7.61,0,0,0,3-3.82,14,14,0,0,0,.32-8.32,8.27,8.27,0,0,0-2.66-4.43,6.75,6.75,0,0,0-5.81-1Z"/><path id="path4-9" class="cls-2" d="M147.79,106.05a22.1,22.1,0,0,1,12,1.27,14.29,14.29,0,0,1,7.13,7,21,21,0,0,1,1.71,10.29H145.16a9.82,9.82,0,0,0,3.39,6.49,8.33,8.33,0,0,0,9.18.3c1.16-.69,1.87-1.94,3.09-2.54a3.29,3.29,0,0,1,2.73,0c1.56.65,3.11,1.32,4.68,1.95a16.88,16.88,0,0,1-7.19,7.75,17.33,17.33,0,0,1-8.71,2c-4.42,0-9.06-.94-12.63-3.69a15.25,15.25,0,0,1-5.52-9.81c-.8-5-.17-10.43,2.83-14.61a16.11,16.11,0,0,1,10.78-6.36m-1.11,8.42c-1.87,2.49-2,5.76-1.74,8.75a22.44,22.44,0,0,1,3.41-2.75,19.69,19.69,0,0,1,6.71-1.83,2.76,2.76,0,0,0,2.22-1.58,3.37,3.37,0,0,0-1.1-3.59A6.7,6.7,0,0,0,146.68,114.47Z"/><path id="path6-4" class="cls-2" d="M42.52,106.15H53.11v25.72H61a5.89,5.89,0,0,1,5.2,3c.85,1.63.32,3.49.56,5.24H42.52Z"/><path id="path8-0" class="cls-2" d="M98.94,106.14h11.89L117.91,127l7.23-20.83h11.15l-14,34.05h-9.58Z"/><path id="path10-2" class="cls-2" d="M80.12,145.66c4.89-1.61,10-3,15.15-2.91a18,18,0,0,1,8.75,1.63,10.68,10.68,0,0,1,5.53,9c.19,7.93-.18,16,.25,23.88h-11a31.57,31.57,0,0,1-.24-4.76c-1.77,1.68-3.46,3.7-5.91,4.37a14.4,14.4,0,0,1-8.4-.19,10.63,10.63,0,0,1-6.53-7.27,9.63,9.63,0,0,1,.51-6.39c1.39-3.26,4.56-5.44,7.87-6.42a30.42,30.42,0,0,1,12.42-.6c-.18-1.43-.46-3-1.64-4-1.65-1.42-4-1.48-6-1.42s-4,.87-6.1,1a2.77,2.77,0,0,1-2.54-1.29,30.68,30.68,0,0,1-2.12-4.63m13.13,17.1a5.5,5.5,0,0,0-4,2A3.61,3.61,0,0,0,90.37,170c2.56,1.3,5.61.7,8.16-.32v-8.39a15.87,15.87,0,0,1-5.28,1.43Z"/><path id="path4-3" class="cls-2" d="M220.08,143.16a22,22,0,0,1,12,1.28,14.23,14.23,0,0,1,7.13,6.95,20.9,20.9,0,0,1,1.72,10.3H217.45a9.87,9.87,0,0,0,3.4,6.48,8.31,8.31,0,0,0,9.17.3c1.16-.69,1.88-1.94,3.1-2.53a3.22,3.22,0,0,1,2.73,0c1.56.64,3.11,1.31,4.68,1.94a17.06,17.06,0,0,1-7.19,7.76,17.34,17.34,0,0,1-8.71,1.95c-4.42,0-9.06-.93-12.63-3.69a15.22,15.22,0,0,1-5.52-9.81c-.8-5-.17-10.43,2.83-14.6a16.08,16.08,0,0,1,10.77-6.37m-1.1,8.42c-1.88,2.49-2,5.77-1.74,8.75a22,22,0,0,1,3.41-2.75,19.93,19.93,0,0,1,6.7-1.83,2.74,2.74,0,0,0,2.22-1.57,3.35,3.35,0,0,0-1.09-3.59,6.7,6.7,0,0,0-9.5,1Z"/><path id="path14-6" class="cls-2" d="M175.84,143.27c6.08,0,12.16-.09,18.23.07a11.76,11.76,0,0,1,7.68,2.62,9.62,9.62,0,0,1,1.75,11.71,10,10,0,0,1-3.79,3.73l9.76,15.85H197.63L190,164.43a2.94,2.94,0,0,0-3.49-1.32v14.14H175.84v-34m10.62,7.55v11.31a18.89,18.89,0,0,1,2.59-3.55,14.23,14.23,0,0,1,3.89-2.24,2.94,2.94,0,0,0,.88-4.48,4,4,0,0,0-3.06-1Z"/><path id="path16-4" class="cls-2" d="M42.59,177.31V143.26H50.7l14.48,18v-18H75v34.05H68.18L52.45,158.68v18.63Z"/><path id="path18-4" class="cls-2" d="M111.45,143.27H143.9a8.72,8.72,0,0,1,4.87,1.14,4.52,4.52,0,0,1,1.51,3.58c.06,1.82,0,3.64,0,5.47-.91-1.61-2.9-2-4.6-2H131.65V177H120.77V151.46h-9.32Z"/><path id="path20-0" class="cls-2" d="M161.88,143.33h10.78v20.29c0,3.65-.63,7.65-3.41,10.27-3.23,3-7.83,3.88-12.15,3.84h-2.35a19.27,19.27,0,0,1-9.36-2.29,10.9,10.9,0,0,1-5.08-6.19,23.25,23.25,0,0,1-.7-7.44v-8.56h5.84a6.79,6.79,0,0,1,3.29.68,3.21,3.21,0,0,1,1.62,2.79c0,2.47.15,4.94.14,7.42a6.37,6.37,0,0,0,1.68,4.53c1.56,1.5,3.95,1.66,6,1.21a5.33,5.33,0,0,0,3.73-5.24Z"/></g></g></g></g></svg>