<?xml version="1.0" encoding="utf-8"?>
<!-- Generator: Adobe Illustrator 23.1.0, SVG Export Plug-In . SVG Version: 6.00 Build 0)  -->
<svg version="1.1" id="Layer_2" xmlns="http://www.w3.org/2000/svg" xmlns:xlink="http://www.w3.org/1999/xlink" x="0px" y="0px"
	 width="1000px" height="551.4560547px" viewBox="0 0 1000 551.4560547" enable-background="new 0 0 1000 551.4560547"
	 xml:space="preserve">
<polygon fill="#DD1E24" points="729.1875,407.9033203 692.8544922,407.9033203 692.8544922,547.6171875 645.2851563,547.6171875 
	645.2851563,407.9033203 608.9521484,407.9033203 608.9521484,363.0488281 729.28125,363.0488281 729.28125,407.9033203 "/>
<path fill="#DD1E24" d="M939.6005859,362.9560547c7.9599609,0,15.5449219,1.1230469,22.9423828,3.2773438
	c7.3974609,2.1533203,13.765625,5.4306641,19.2900391,9.8320313c5.5253906,4.4013672,9.9267578,9.8320313,13.2041016,16.3876953
	C998.3144531,399.0078125,1000,406.6865234,1000,415.3945313v16.2939453c0,8.6152344-1.6855469,16.2001953-4.9628906,22.9423828
	s-7.6787109,12.3603516-13.2041016,16.9492188c-5.5244141,4.5878906-11.8925781,8.1464844-19.2900391,10.5810547
	c-7.3974609,2.4355469-14.9824219,3.6523438-22.9423828,3.6523438h-11.8925781v61.8037109h-47.5693359V362.9560547H939.6005859z
	 M927.7080078,441.3339844h11.4248047c4.2138672,0,7.9589844-1.3115234,11.4238281-3.8398438
	c3.3710938-2.5283203,5.0566406-6.9296875,5.0566406-13.015625c0-5.8994141-1.6855469-10.2070313-5.0566406-12.7353516
	s-7.2099609-3.8398438-11.4238281-3.8398438h-11.4248047V441.3339844z"/>
<path fill="#DD1E24" d="M844.9287109,372.9755859c-4.1201172-3.1845703-8.6142578-5.7128906-13.578125-7.6787109
	l-19.3837891,41.9511719l-0.3740234,0.7490234c0.3740234,0.375,0.7490234,0.6552734,1.0302734,1.1240234
	c2.0595703,2.6220703,2.9960938,5.5244141,2.9960938,8.7089844v74.6318359c0,3.2773438-1.0302734,6.1806641-2.9960938,8.8964844
	c-2.0605469,2.7148438-5.2441406,4.0263672-9.5517578,4.0263672s-7.4912109-1.3115234-9.4580078-4.0263672
	c-1.9667969-2.7158203-2.9023438-5.6191406-2.9023438-8.8964844v-74.6318359c0-3.2783203,0.9355469-6.1806641,2.9023438-8.7089844
	c0.46875-0.5625,0.9365234-1.1240234,1.4980469-1.4980469l-0.1865234-0.28125l-19.4775391-42.2324219
	c-5.2441406,1.9667969-9.9267578,4.5878906-14.046875,7.9599609c-5.5244141,4.4003906-9.9257813,9.9257813-13.203125,16.7617188
	s-4.9628906,14.8886719-4.9628906,24.2529297v83.1533203c0,9.5517578,1.6855469,17.6992188,4.9628906,24.5341797
	c3.2773438,6.8359375,7.6787109,12.3613281,13.203125,16.7626953c5.5253906,4.4003906,11.8925781,7.5849609,19.1962891,9.7382813
	c7.3046875,2.0605469,14.7958984,3.1835938,22.5683594,3.1835938c7.9589844,0,15.4501953-1.0292969,22.6611328-3.1835938
	c7.2099609-2.0595703,13.578125-5.3378906,19.1962891-9.7382813c5.6191406-4.4013672,10.0195313-9.9267578,13.296875-16.7626953
	c3.2783203-6.8359375,4.9638672-14.9824219,4.9638672-24.5341797v-83.3408203
	c0-9.3642578-1.6855469-17.4169922-4.9638672-24.2529297C854.9482422,382.9013672,850.4541016,377.2822266,844.9287109,372.9755859z
	"/>
<polyline fill="#DD1E24" points="321.9399414,0.8432617 386.5527344,337.2041016 309.0175781,337.2041016 284.1088867,207.4165039 
	193.5571289,403.3154297 103.0058594,207.4165039 78.097168,337.2041016 0,337.2041016 65.1743164,0.8432617 102.0693359,0.8432617 
	193.5571289,204.6074219 285.7006836,0.8432617 321.9399414,0.8432617 "/>
<polyline fill="#DD1E24" points="931.828125,0.8432617 996.4414063,337.2041016 919,337.2041016 893.9970703,207.4165039 
	803.4453125,403.3154297 712.8945313,207.4165039 687.9853516,337.2041016 609.8886719,337.2041016 675.15625,0.8432617 
	711.9580078,0.8432617 803.4453125,204.6074219 895.5888672,0.8432617 931.828125,0.8432617 "/>
<path fill="#DD1E24" d="M534.6943359,0.0004883c31.1826172,0,60.9609375,9.6450195,85.3076172,24.8149414l-14.2333984,74.0703125
	c-22.2871094-13.6713867-48.6943359-21.9121094-71.1679688-21.9121094c-50.2856445,0-91.1137695,41.3896484-91.1137695,92.4243164
	c0,51.0351563,39.0488281,92.4243164,98.043457,92.4243164h66.6728516l-14.5146484,75.3818359h-46.4462891
	c-106.2836914,0-178.4814453-75.2880859-178.4814453-168.1806641C368.7607422,73.8837891,437.6811523,0,534.6943359,0"/>
</svg>
