<svg xmlns="http://www.w3.org/2000/svg" viewBox="0 0 283.46 283.46"><defs><style>.cls-1{fill:#2c3033;}.cls-2{fill:#f2722d;}.cls-3{fill:#f7de61;}.cls-4{fill:#ff9447;}.cls-5{fill:#a8ccf4;}.cls-6{fill:#fff;}</style></defs><g id="Layer_2" data-name="Layer 2"><g id="Kids"><g id="megamax"><rect class="cls-1" width="283.46" height="283.46"/><g id="logo"><polygon class="cls-2" points="181.61 143.54 140.4 153.97 102.94 143.54 102.94 115.3 139.58 124.66 181.61 115.3 181.61 143.54"/><polygon class="cls-3" points="166.38 141.01 175.89 138.72 183.91 111.16 170.66 118.85 166.38 141.01"/><rect class="cls-4" x="158.44" y="142.13" width="14.84" height="48.39"/><polyline class="cls-4" points="158.44 142.13 140.4 155.35 140.4 162.4 158.44 149.56"/><polygon class="cls-4" points="166.16 143.78 169.65 151.39 172.69 151.39 175.41 141.01 166.16 143.78"/><path d="M201.41,76.06s-15.08,15.88-21.16,20.27c-9.17,6.61-39.85,23.74-39.85,23.74v18.09l43.5-27-23.33,79.16,17.09,17.09s10.14-35.16,12.45-46.7C194.36,139.47,201.41,76.06,201.41,76.06Z"/><polygon class="cls-3" points="114.42 141.01 104.92 138.72 96.9 111.16 110.15 118.85 114.42 141.01"/><rect class="cls-4" x="107.53" y="142.13" width="14.84" height="48.39" transform="translate(229.91 332.64) rotate(-180)"/><polyline class="cls-4" points="122.37 142.13 140.4 155.35 140.4 162.4 122.37 149.56"/><polygon class="cls-4" points="114.65 143.78 111.16 151.39 108.11 151.39 105.4 141.01 114.65 143.78"/><path d="M79.4,76.06s15.08,15.88,21.16,20.27c9.17,6.61,39.84,23.74,39.84,23.74v18.09l-43.5-27,23.34,79.16-17.09,17.09S93,172.25,90.69,160.71C86.45,139.47,79.4,76.06,79.4,76.06Z"/><path class="cls-5" d="M69.68,143.81,76.76,173H72.32l-3.86-17.19-7.74,18.35L53,155.81,49.15,173H44.68l7-29.19,9,20.7Z"/><path class="cls-6" d="M69.68,143.81,76.76,173H72.32l-3.86-17.19-7.74,18.35L53,155.81,49.15,173H44.68l7-29.19,9,20.7,9-20.7m.46-5.34-2,4.66-7.4,17.1-7.48-17.1-2-4.66L50,143.41,43,172.6l-.5,2.1h8l.3-1.33,2.69-12,5.65,13.43,1.57,3.73,1.57-3.73L68,161.38l2.69,12,.3,1.33h8l-.51-2.1-7.08-29.19-1.2-4.94Z"/><path class="cls-5" d="M95.46,148.75H84v8.12h10.9v3.62H84v8.9H95.46V173H80V145.14H95.46Z"/><path class="cls-6" d="M95.46,145.14v3.61H84v8.12h10.9v3.62H84v8.9H95.46V173H80V145.14H95.46m1.7-1.71H78.26V174.7h18.9v-7H85.71v-5.49h10.9v-7H85.71v-4.71H97.16v-7Z"/><path class="cls-5" d="M115.62,158.81h11.92a22.57,22.57,0,0,1-1.38,6.62,13,13,0,0,1-6.66,7.12,14.78,14.78,0,0,1-6.3,1.28,14.1,14.1,0,0,1-10.49-4.12A14.61,14.61,0,0,1,98.36,159a14.23,14.23,0,0,1,2.88-8.92,14.67,14.67,0,0,1,6.55-4.84,15.06,15.06,0,0,1,5.43-1,14.76,14.76,0,0,1,12.36,6.29l-3.34,2.53a13.55,13.55,0,0,0-4-3.66,10.19,10.19,0,0,0-5-1.26,10,10,0,0,0-8.06,3.69,10.31,10.31,0,0,0-2.43,6.82,11.54,11.54,0,0,0,2.65,7.69,9.64,9.64,0,0,0,7.72,3.58,9.84,9.84,0,0,0,6.18-2,8.78,8.78,0,0,0,3.25-5.55h-7Z"/><path class="cls-6" d="M113.22,144.26a14.76,14.76,0,0,1,12.36,6.29l-3.34,2.53a13.55,13.55,0,0,0-4-3.66,10.19,10.19,0,0,0-5-1.26,10,10,0,0,0-8.06,3.69,10.31,10.31,0,0,0-2.43,6.82,11.54,11.54,0,0,0,2.65,7.69,9.64,9.64,0,0,0,7.72,3.58,9.84,9.84,0,0,0,6.18-2,8.78,8.78,0,0,0,3.25-5.55h-7v-3.62h11.92a22.57,22.57,0,0,1-1.38,6.62,13,13,0,0,1-6.66,7.12,14.78,14.78,0,0,1-6.3,1.28,14.1,14.1,0,0,1-10.49-4.12A14.61,14.61,0,0,1,98.36,159a14.23,14.23,0,0,1,2.88-8.92,14.67,14.67,0,0,1,6.55-4.84,15.06,15.06,0,0,1,5.43-1m0-1.7a16.87,16.87,0,0,0-6,1.11,16.43,16.43,0,0,0-7.3,5.39,16,16,0,0,0-3.23,10,16.33,16.33,0,0,0,4.84,11.89,15.85,15.85,0,0,0,11.71,4.63,16.71,16.71,0,0,0,7-1.44,14.7,14.7,0,0,0,7.52-8,24.59,24.59,0,0,0,1.5-7.12l.15-1.84H113.92v7h6.41a6.65,6.65,0,0,1-2,2.5,8.67,8.67,0,0,1-11.55-1.37,9.83,9.83,0,0,1-2.25-6.59,8.58,8.58,0,0,1,2-5.72,8.31,8.31,0,0,1,6.76-3.09,8.42,8.42,0,0,1,4.14,1.06,11.72,11.72,0,0,1,3.42,3.19l1,1.35,1.36-1,3.34-2.53,1.36-1-1-1.36a16.48,16.48,0,0,0-13.73-7Z"/><path class="cls-5" d="M140.42,144.16,154.08,173h-4.82l-3.08-6.88H134.71l-3,6.88h-4.57Zm4.15,18.35-4.15-9.64-4.1,9.64Z"/><path class="cls-6" d="M140.42,144.16,154.08,173h-4.82l-3.08-6.88H134.71l-3,6.88h-4.57l13.3-28.84m-4.1,18.35h8.25l-4.15-9.64-4.1,9.64m4.08-22.38-1.52,3.31-13.31,28.84-1.12,2.42h8.35l.45-1,2.57-5.86h9.25l2.63,5.87.46,1h8.61l-1.15-2.43L142,143.43l-1.56-3.3Zm-1.5,20.67,1.53-3.59L142,160.8Z"/><path class="cls-5" d="M179.91,143.81,187,173h-4.45l-3.86-17.19L171,174.16l-7.72-18.35L159.38,173h-4.47l7-29.19,9.05,20.7Z"/><path class="cls-6" d="M179.91,143.81,187,173h-4.45l-3.86-17.19L171,174.16l-7.72-18.35L159.38,173h-4.47l7-29.19,9.05,20.7,8.95-20.7m.46-5.34-2,4.66-7.4,17.1-7.47-17.1-2-4.66-1.18,4.94-7,29.19-.51,2.1h8l.3-1.33,2.69-12,5.64,13.43,1.57,3.73,1.58-3.73,5.66-13.44,2.69,12,.3,1.33h8l-.51-2.1-7.08-29.19-1.2-4.94Z"/><path class="cls-5" d="M201.28,144.16,214.94,173h-4.82L207,166.12H195.57l-3,6.88H188Zm4.15,18.35-4.15-9.64-4.1,9.64Z"/><path class="cls-6" d="M201.28,144.16,214.94,173h-4.82L207,166.12H195.57l-3,6.88H188l13.3-28.84m-4.1,18.35h8.25l-4.15-9.64-4.1,9.64m4.08-22.38-1.52,3.31-13.31,28.84-1.12,2.42h8.35l.45-1,2.57-5.86h9.26l2.63,5.87.45,1h8.61l-1.15-2.43-13.66-28.84-1.56-3.3Zm-1.5,20.67,1.53-3.59,1.55,3.59Z"/><path class="cls-5" d="M237.12,145.14l-8,13.35,8.8,14.51h-5.21l-6.24-10.78L220.16,173h-4.94l8.84-14.51-7.86-13.35h5.11l5.51,9.67,5.57-9.67Z"/><path class="cls-6" d="M237.12,145.14l-8,13.35,8.8,14.51h-5.21l-6.24-10.78L220.16,173h-4.94l8.84-14.51-7.86-13.35h5.11l5.51,9.67,5.57-9.67h4.73m3-1.71H231.4l-.49.86-4.09,7.09-4-7.08-.49-.87h-9.08l1.51,2.57,7.34,12.47-8.3,13.64-1.58,2.59h8.95l.49-.84,4.83-8.25,4.78,8.24.49.85h9.21l-1.56-2.59-8.27-13.63L238.58,146l1.55-2.58Z"/></g></g></g></g></svg>