<svg xmlns="http://www.w3.org/2000/svg" viewBox="0 0 283.46 283.46"><defs><style>.cls-1{fill:#f03120;}.cls-2{fill:#fff;}</style></defs><g id="Layer_2" data-name="Layer 2"><g id="Other_music" data-name="Other music"><g id="mezzo"><rect class="cls-1" width="283.46" height="283.46"/><g id="logo"><path id="path9889" class="cls-2" d="M132.21,137.66a14.94,14.94,0,0,0,.17-2.12v-2a16.12,16.12,0,0,0-.54-4.56,7.22,7.22,0,0,0-1.46-2.85,5.09,5.09,0,0,0-2.28-1.5,9,9,0,0,0-2.88-.45,8.51,8.51,0,0,0-4.56,1.1,8,8,0,0,0-2.85,3,15.06,15.06,0,0,0-1.59,4.31,34.49,34.49,0,0,0-.69,5.13Zm-16.76,1.14c0,.54,0,1.1,0,1.67s0,1.28,0,2.15a50.31,50.31,0,0,0,.32,5.62,17.09,17.09,0,0,0,1.43,5.29,9.81,9.81,0,0,0,3.25,3.9,9.59,9.59,0,0,0,5.74,1.54,14.23,14.23,0,0,0,5.9-1.05,10.83,10.83,0,0,0,3.66-2.56,11.23,11.23,0,0,0,2-3.06c.43-1,.75-1.86,1-2.52l1.22.24a21.71,21.71,0,0,1-.93,2.57,11.79,11.79,0,0,1-2.2,3.34,13.23,13.23,0,0,1-4.07,2.92,14.92,14.92,0,0,1-6.63,1.27,21.16,21.16,0,0,1-7.53-1.3,16.91,16.91,0,0,1-9.89-9.57,19.71,19.71,0,0,1-1.38-7.52,17.72,17.72,0,0,1,1.42-7,19.83,19.83,0,0,1,3.91-6,19.41,19.41,0,0,1,5.82-4.19,16.14,16.14,0,0,1,12-.78,14.3,14.3,0,0,1,4.84,2.65,14.61,14.61,0,0,1,3.75,4.84,16.74,16.74,0,0,1,1.5,7.49Z"/><path id="path9893" class="cls-2" d="M144.63,124.06h25.79l-20.26,33.78h11.47a7.18,7.18,0,0,0,3.87-.94,7.75,7.75,0,0,0,2.44-2.36,12.82,12.82,0,0,0,1.47-3l1-3.09h.66L170,159H141.7L162,125.21h-7c-1.36,0-2.54,0-3.54.12a6.12,6.12,0,0,0-2.72.85,7.28,7.28,0,0,0-2.28,2.36,28.21,28.21,0,0,0-2.28,4.64h-.65Z"/><path id="path9899" class="cls-2" d="M175.43,124.06h25.8L181,157.84h11.47a7.14,7.14,0,0,0,3.86-.94,7.79,7.79,0,0,0,2.45-2.36,12.42,12.42,0,0,0,1.46-3c.35-1.08.69-2.12,1-3.09h.65L200.82,159H172.5l20.26-33.77h-7c-1.36,0-2.53,0-3.54.12a6.12,6.12,0,0,0-2.72.85,7.28,7.28,0,0,0-2.28,2.36,28.21,28.21,0,0,0-2.28,4.64h-.65Z"/><path id="path9903" class="cls-2" d="M211.16,141.56a38.13,38.13,0,0,0,.89,9.2,14.29,14.29,0,0,0,2.36,5.25,6.83,6.83,0,0,0,3.42,2.4,15.66,15.66,0,0,0,8.3,0,6.79,6.79,0,0,0,3.42-2.4,14.13,14.13,0,0,0,2.36-5.25,38.06,38.06,0,0,0,.9-9.2,42.47,42.47,0,0,0-.66-8.17,15.24,15.24,0,0,0-2-5.38,7.61,7.61,0,0,0-3.38-3,13.25,13.25,0,0,0-9.6,0,7.66,7.66,0,0,0-3.38,3,15.44,15.44,0,0,0-2,5.38,42.56,42.56,0,0,0-.65,8.17m-8.14,0a16,16,0,0,1,1.75-7.4,20.66,20.66,0,0,1,10.58-9.77,16.62,16.62,0,0,1,13.26,0,20.82,20.82,0,0,1,6.11,3.87,20.31,20.31,0,0,1,4.47,5.9,16,16,0,0,1,1.75,7.4,16.34,16.34,0,0,1-1.63,7.21,20.43,20.43,0,0,1-4.26,5.9,20.69,20.69,0,0,1-6.07,4,17.51,17.51,0,0,1-14,0,20.19,20.19,0,0,1-10.33-9.89,16.34,16.34,0,0,1-1.63-7.21"/><path id="path9907" class="cls-2" d="M55.79,139.77A19.16,19.16,0,0,1,57,132.61a14.83,14.83,0,0,1,2.93-4.76,11.32,11.32,0,0,1,3.79-2.68,9.51,9.51,0,0,1,3.74-.85,4.88,4.88,0,0,1,3.9,1.7q1.47,1.71,1.47,5.29v27a25.25,25.25,0,0,1-17-.76Zm24-2.68a14.73,14.73,0,0,1,1-5.7,11.46,11.46,0,0,1,2.65-4,11,11,0,0,1,3.66-2.32,11.45,11.45,0,0,1,4.07-.76,5.46,5.46,0,0,1,4.11,1.54,5.92,5.92,0,0,1,1.5,4.31v21.19a36.58,36.58,0,0,0-17,4.06Zm-31,16.18c3.34,3.29,14.33,12,30.46,3.69a33,33,0,0,1,24.55-2.17v-19.5q0-12.12-11.88-12.12a14.68,14.68,0,0,0-4.52.65A12,12,0,0,0,84,125.57a11.5,11.5,0,0,0-2.45,2.48A13.71,13.71,0,0,0,80,130.91H79.8a8.78,8.78,0,0,0-4.11-6,14.31,14.31,0,0,0-7.21-1.79,13.07,13.07,0,0,0-7.77,2.28,14.21,14.21,0,0,0-4.92,7.16h-.17v-8.54H42.52v1.13h6.27Z"/></g></g></g></g></svg>