<svg xmlns="http://www.w3.org/2000/svg" viewBox="0 0 283.46 283.46"><defs><style>.cls-1{fill:#021832;}.cls-2{fill:#ffa814;}.cls-2,.cls-4{fill-rule:evenodd;}.cls-3,.cls-4{fill:#ffffe2;}</style></defs><title>minimax</title><g id="Layer_2" data-name="Layer 2"><g id="Kids"><g id="minimax"><rect class="cls-1" width="283.46" height="283.46"/><g id="logo-2" data-name="logo"><path class="cls-2" d="M111.24,142.06c0,15.78,11.76,27.58,27.54,27.58s28.15-11.87,28.15-27.65-12.23-28.62-28-28.62-27.68,12.91-27.68,28.69Zm-23.42.26C87.62,112.73,112.2,90.18,140,90.18s50.29,24.38,50.29,52.14-23.15,50.5-50.91,50.5S88,170.08,87.82,142.32Z"/><path class="cls-1" d="M207.34,147.57,195.9,138.9a3.44,3.44,0,0,1-1.6-2.7c-.09-1.31,2.12-2.52,2.12-2.52l11-3.88,4.77,3.83.48-6.08,12-5.57a2.54,2.54,0,0,1,2-.05c.91.54.66,2.22.66,2.22l-2.11,15.42,14.4,8.09s1.3.92,1.36,1.8c.09,1.32-1.49,2.07-1.49,2.07l-13.4,6.67-4.87-4.32.12,6.42-10.59,4.21a4.93,4.93,0,0,1-2.6,0,7.72,7.72,0,0,1-1.35-.69l.41,1s.39,1,.17,1.35c-.4.71-1.75,1-1.75,1l-11.49,3-2-4-2.82.4-1.2,4.34-8.65,0s-3.12.16-3.77-.45a3,3,0,0,1-.6-2l.2-1.26,0,0-11.38,3.8-1.44-6.14s-.65-1.72-1.86-1.47c-2.08.42-3,3.19-4.86,2.75-2-.27-3.17-5.19-4.32-5.7-.58-.26-1.56.48-1.56.48l-5,4.93L136,156.69l-.63-.82a5.64,5.64,0,0,1-1.42,2,3.72,3.72,0,0,1-2.23.3l-7-3.21s0,3.21-1.76,3.32c-1.23.08-3.5-1.91-3.5-1.91l-9-8.3.38,6.95-10.7-.87a8.21,8.21,0,0,1-2.91-.8,2.9,2.9,0,0,1-1.83,2.32l-6.35,1.61a3.88,3.88,0,0,1-2.94-.53,8.68,8.68,0,0,1-2-1.72l-6.54,9-4.7-4.21s-1.39-1-2.25-.14c-1.46,1.53-.77,4.35-2.53,5-1.76.9-5.58-2.43-6.81-2.19-.62.12-1,1.28-1,1.28L59,170.8l-12.37-2.41s-3-.71-3.78-2.23a6.66,6.66,0,0,1-.28-3.12l6.53-25.63s.27-2.21,1.54-2.44c2.18-.84,5.51,3.54,7.3,2.81,1.64-.66,1.17-5.47,3.43-6.72a2.5,2.5,0,0,1,2.35.45l15.89,11.95L75,129.82a5,5,0,0,1,4.27-6l6.23-1.65c3.36-1,6.21.37,7.06,3.15l2.91,13.41,1.18-19.11a3.38,3.38,0,0,1,1.26-2.56c1.71-1.12,3.32.65,3.32.65l10,9-.14-6.4,11,.56s2.5.07,3.46,1.11.79,3.68.79,3.68l-.52,15.39,5.7-16.16a5.12,5.12,0,0,1,7-1.87l5.65,2.3c3.23,1.32,4.73,4.3,3.69,7L142,144.11l13.83-11.38s1.49-1.66,2.66-1.12c2.27.56,2.5,6.53,4.38,7,1.72.4,4.08-4.28,6.65-4,1.24.23,1.66,1.72,1.66,1.72l6,18.65,2.53-12.78a7.69,7.69,0,0,1,7.15-6.42c4.62-.31,7.44,3.74,7.78,4.61l10,18.71,2.65-11.5Z"/><path class="cls-3" d="M162.84,157.5l2.82,9.71,7.27-2.87a2.94,2.94,0,0,0,1.84-3.65l-5.62-20.87s-.19-1.13-.8-1.29-1.4.71-1.4.71l-5.92,5-2.73-7.36s-.24-1.15-.85-1.31-1.37.71-1.37.71l-15.44,14s-1.7,1.45-1.77,2.71a5.27,5.27,0,0,0,1.2,2.7l4.81,5.92,7.6-7,2.76,6a1.7,1.7,0,0,0,1.11,1,1.79,1.79,0,0,0,1.45-.36l5-3.83Z"/><path class="cls-3" d="M80.62,127.08l5-1.5c2.19-.53,3,.82,3.52,2.3l5.78,22.76a1.67,1.67,0,0,1-1.15,2.07l-4.92,1.41A1.67,1.67,0,0,1,86.75,153L79.5,130.43c-.25-.89-.11-3,1.11-3.36Z"/><path class="cls-3" d="M137.4,126.42l4.82,1.87c2.05.93,2.08,2.46,1.37,4.12l-9.5,21.51a1.62,1.62,0,0,1-2.19.77l-4.8-2a1.72,1.72,0,0,1-.82-2l8.2-22.19c.35-.86,1.77-2.52,2.9-2.08Z"/><path class="cls-3" d="M69.08,153.67,77,160l4.31-6.52a2.94,2.94,0,0,0-.58-4L64.12,135.56s-.8-.81-1.4-.6-.74,1.38-.74,1.38l-2,7.53-6.45-4.46s-.86-.8-1.44-.58-.72,1.37-.72,1.37l-4.62,20.32s-.57,2.16.1,3.23a5.27,5.27,0,0,0,2.53,1.53l7.33,2.09L59,157.29l5.69,3.31a1.7,1.7,0,0,0,1.51.22,1.79,1.79,0,0,0,1-1.13l1.93-6Z"/><path class="cls-3" d="M213.91,137.55,207.27,133l-7,2.61s-1.64.39-1.69,1.4c0,.76,1,1.46,1,1.46l11.9,7.24-3.21,13.68s-.35,1.51.26,2,1.78,0,1.78,0l8.35-3.12.81-8.89,6.55,5.61,7.86-4.06s1.09-.43,1.33-1c.43-1.09-2-2.2-2-2.2l-11.68-6.45,2.37-12.62s.65-1.93-.06-2.57-2,.21-2,.21l-6.9,3.31-1,8Z"/><path class="cls-4" d="M188.71,150.36l-1,7.13,3.87-.55-2.91-6.58Zm-6.22-6.25s.5-4.05,4.33-4.59a5.15,5.15,0,0,1,5.29,2.85l10.65,20.1a3,3,0,0,1,.35,1.79c-.27.77-1.56,1-1.56,1l-6.35,1.62-1.67-3.33-6.2.87-.8,3.67-5.84,0a3.41,3.41,0,0,1-2.11-.47c-.74-.64-.39-2.33-.39-2.33l4.29-21.25Z"/><path class="cls-3" d="M107.89,142.73l-.08,9-5.27-.23s-2.68-.11-3.18-.74a4.47,4.47,0,0,1-.5-2.45l1.27-24.87s0-1.27.47-1.37c.29-.06.42,0,.76.23.64.46,1.68,1.3,1.68,1.3l10.52,8.88.07-8.86L120,124s2-.13,2.72.7.37,2.61.37,2.61l-1.28,24.81s0,1.27-.47,1.37c-.29.06-.42,0-.76-.23-.64-.46-1.68-1.3-1.68-1.3l-11-9.2Z"/></g></g></g></g></svg>