<svg xmlns="http://www.w3.org/2000/svg" viewBox="0 0 283.46 283.46"><defs><style>.cls-1{fill:#ffff04;}.cls-2{fill:#040000;}</style></defs><g id="Layer_2" data-name="Layer 2"><g id="Viacom"><g id="mtv"><rect class="cls-1" width="283.46" height="283.46"/><g id="logo"><path class="cls-2" d="M182.53,203.05a106.43,106.43,0,0,1-.79-11.36c0-2.41.32-12.1.32-19.91,0-6.59-1.42-18.31-1.42-24.67,0-3.82.28-9-.14-10.84,3-2,5.72-3.24,14.12-8.34,2.73-1.65,7.93-4.43,7.93-7.78,0-1.49-.4-2.46-2.51-4.2a7.28,7.28,0,0,0-4.86-1.52c-4.28,0-6.23,4.29-9.81,6.48-5.49,3.35-8.4,5-9.52,5.64a11,11,0,0,0-5.31-1.32c-3.14,0-6.79,1.4-6.79,5.48,0,1.86.59,3.88-1.89,5.19-1.4.89-8.22,4.78-15.49,9.16-6.11,3.7-9,3.4-11.55,5a5.41,5.41,0,0,0-3,4.78,7.51,7.51,0,0,0,1.19,3.51c1.65,2.11,3.12,3.24,5.7,3.24,4.4,0,8-3.82,14.81-8.64,4.22-3,8.1-6.13,10.37-6.13,2,0,3.44,1.52,3.44,7.81,0,21-1.3,24.36-1.3,39,0,2.62.11,7.47.2,9.49H155.06V168.58l-21.47,18.11-21.48-18.11V203H42.52V80.42h67.75L133.58,105,156.9,80.42H225v52.42A164.52,164.52,0,0,0,211.81,159c-1.45,3.76-2.12,6.47-4,6.47-2.11,0-2.28-2.07-2.48-3.92-.42-4-1.33-11.57-1.73-14.33-.82-5.37-1.88-11-7.87-11-4.45,0-9.09,2.43-9.09,9.06,0,3.75,1.9,10.29,5.16,18.88,1.27,3.39,8.09,21.26,9.09,23.85,1.79,4.75,4.3,6,8.18,6,5,0,6.72-1.83,8.77-8.82,1.74-6,4.7-15.68,7.16-21.76V203H182.51ZM240.94,135v68.05H229.75V153.26A130.88,130.88,0,0,1,240.94,135m-11.19-9.07V80.43l11.19,6.73v24.91a142.42,142.42,0,0,0-11.19,13.86m-90-34.34-6.17,6.49L116.89,80.5l21.19,9.32,1.69,1.77Zm.74,95.48h7.72l2.1-1.74v-6.52l-9.82,8.26Zm-23.63,16h9.21V186.57l-9.21-7.76Z"/></g></g></g></g></svg>