<?xml version="1.0" encoding="utf-8"?>
<!-- Generator: Adobe Illustrator 16.0.0, SVG Export Plug-In . SVG Version: 6.00 Build 0)  -->
<!DOCTYPE svg PUBLIC "-//W3C//DTD SVG 1.1//EN" "http://www.w3.org/Graphics/SVG/1.1/DTD/svg11.dtd">
<svg version="1.1" id="Layer_1" xmlns="http://www.w3.org/2000/svg" xmlns:xlink="http://www.w3.org/1999/xlink" x="0px" y="0px"
	 width="1000px" height="653.826px" viewBox="-202.36 94.032 1000 653.826" enable-background="new -202.36 94.032 1000 653.826"
	 xml:space="preserve">
<path d="M729.389,590.603c-5.451,20.229-7.563,35.708-8.091,55.761c-0.88,34.301-49.779,48.021-76.868,8.972
	c-22.341-32.014-47.846-146.525-50.837-160.247c-12.312-55.585-16.886-75.813-18.469-96.219
	c-1.935-26.385,8.619-41.336,32.014-47.317c24.274-6.331,43.976,5.806,45.91,32.366c3.695,49.956,6.685,88.831,11.61,111.522
	c1.582,7.563,6.156,10.377,10.905,10.377c6.332,0,9.85-4.396,12.138-9.146c9.146-19.701,32.542-103.958,109.762-201.76V94.032
	H425.08L297.552,221.385L170.023,94.032H-202.36v653.826h376.429v-225.33l123.483,123.308l123.482-123.483v225.33h50.659
	c0.528-17.766,0.88-41.336,0.528-51.363c-0.528-10.378-1.057-35.532-1.057-49.076c0-75.461,6.686-93.933,6.686-202.814
	c0-32.542-7.213-40.458-17.767-40.458c-11.785,0-41.338,22.339-63.148,37.82c-35.004,24.977-53.827,44.678-76.518,44.678
	c-13.367,0-21.107-5.979-29.55-16.711c-1.584-1.935-6.158-11.082-6.158-18.117c0-8.092,3.168-19.173,15.48-26.561
	c13.368-8.092,28.143-6.51,59.806-25.683c37.468-22.691,82.497-48.9,89.711-53.475c12.839-6.859,9.849-17.237,9.849-26.912
	c0-21.107,18.821-28.32,35.005-28.32c15.479,0,25.154,5.805,27.44,6.86c5.806-3.167,20.933-11.609,49.253-29.2
	c34.652-21.284,34.124-38.17,55.761-42.92c24.099-5.101,39.226,18.294,39.226,34.652c0,24.627-31.486,38.875-47.141,47.846
	c-44.328,24.979-59.983,35.532-75.638,45.734c0.879,9.851,0.879,32.717,0.879,52.594c0,32.895,9.85,94.461,9.85,128.409
	c0,40.458-1.758,90.589-1.758,103.078c0,20.053,2.286,42.92,4.222,58.751c1.23,13.017,2.814,34.126,3.87,51.363H797.64V432.644
	c-0.353,0.88-0.881,1.582-1.232,2.462C775.653,476.091,749.443,521.473,729.389,590.603z"/>
</svg>
