<?xml version="1.0" encoding="UTF-8" standalone="no"?>
<svg
   id="Слой_1"
   data-name="Слой 1"
   viewBox="0 0 1538.2677 1662.9923"
   version="1.1"
   width="1538.2677"
   height="1662.9922"
   xmlns="http://www.w3.org/2000/svg"
   xmlns:svg="http://www.w3.org/2000/svg">
  <defs
     id="defs70">
    <style
       id="style68">
      .cls-1, .cls-3 {
        fill: #ffa0fc;
      }

      .cls-2 {
        fill: #fff;
      }

      .cls-3 {
        fill-rule: evenodd;
      }
    </style>
  </defs>
  <title
     id="title72">Монтажная область 2</title>
  <g
     id="g412"
     transform="scale(8.7563802,8.7525901)">
    <g
       id="g367">
      <path
         class="cls-1"
         d="M 149.87,165.49 A 24.50549,24.50549 0 0 1 125.36,190 H 24.51 a 24.505,24.505 0 1 1 0,-49.01 h 100.85 a 24.514,24.514 0 0 1 24.51,24.5 z"
         id="path74" />
      <path
         class="cls-2"
         d="m 142.69,148.17 a 24.3999,24.3999 0 0 0 -17.33,-7.18 H 24.51 a 24.505,24.505 0 0 0 0,49.01 h 100.85 a 24.50126,24.50126 0 0 0 17.33,-41.83 z M 125.36,186 H 24.51 a 20.505,20.505 0 1 1 0,-41.01 h 100.85 a 20.505,20.505 0 1 1 0,41.01 z"
         id="path76" />
      <path
         class="cls-2"
         d="M 55.21994,154.09 H 33.84 a 5.89591,5.89591 0 0 0 -5.89,5.9 v 12.08 a 5.89591,5.89591 0 0 0 5.89,5.9 h 21.37994 a 5.89591,5.89591 0 0 0 5.89,-5.9 v -12.08 a 5.89591,5.89591 0 0 0 -5.89,-5.9 z m -0.21,17.89 H 34.05 v -11.9 h 20.96 z"
         id="path78" />
      <path
         class="cls-2"
         d="M 91.04,154.09 H 69.66 a 5.89585,5.89585 0 0 0 -5.89,5.9 v 12.08 a 5.89585,5.89585 0 0 0 5.89,5.9 h 21.38 a 5.8959,5.8959 0 0 0 5.89,-5.9 v -12.08 a 5.8959,5.8959 0 0 0 -5.89,-5.9 z m -0.21,17.89 H 69.87 v -11.9 h 20.96 z"
         id="path80" />
      <path
         class="cls-2"
         d="m 103.13553,166.03 v 1.13147 h 15.18088 a 3.84226,3.84226 0 0 1 2.81263,1.16373 l 0.0161,0.0172 a 6.481,6.481 0 0 1 1.77143,4.13337 6.20506,6.20506 0 0 1 -2.86387,4.90551 3.73317,3.73317 0 0 1 -2.08612,0.58868 h -17.88192 v -4.80527 H 118.094 l 3.6e-4,-1.18472 -13.77628,0.0183 a 4.64193,4.64193 0 0 1 -2.935,-0.98327 l -0.019,-0.0154 a 6.41612,6.41612 0 0 1 -2.46032,-4.3302 5.43242,5.43242 0 0 1 1.23682,-3.65263 4.76352,4.76352 0 0 1 3.74411,-1.76012 H 122.129 l 3.4e-4,4.77334 z"
         id="path82" />
      <path
         class="cls-1"
         d="m 125.36,143.99 a 21.505,21.505 0 1 1 0,43.01 H 24.51 a 21.505,21.505 0 1 1 0,-43.01 h 100.85 m 0,-3 H 24.51 a 24.505,24.505 0 0 0 0,49.01 h 100.85 a 24.505,24.505 0 0 0 0,-49.01 z"
         id="path84" />
    </g>
    <g
       id="g359">
      <g
         id="g19319">
        <path
           id="path19321"
           class="cls-1"
           d="m 56.17475,71.63888 v 46.81184 l 7.89442,-5.95043 V 79.61407 Z" />
      </g>
      <g
         id="g19323">
        <path
           id="path19325"
           class="cls-1"
           d="m 73.13536,82.56989 10.28,-2.34786 4.15184,-3.40332 v -6.17122 z" />
      </g>
      <g
         id="g19327">
        <path
           id="path19329"
           class="cls-1"
           d="M 71.84458,8.12544 57.32122,1.43188 70.44986,16.14371 75.42022,11.238 Z" />
      </g>
      <g
         id="g19331">
        <path
           id="path19333"
           class="cls-1"
           d="m 0,121.89658 h 4.5611 l 1.48626,7.44207 h 0.02693 l 1.48626,-7.44207 h 4.56109 v 12.65476 H 9.08989 v -8.12059 H 9.05758 l -1.804,8.12059 H 4.868 L 3.05864,126.43075 H 3.03176 v 8.12059 H 0 Z" />
      </g>
      <g
         id="g19337">
        <path
           id="path19339"
           class="cls-1"
           d="m 22.73226,129.6553 c 0,3.511 -1.56165,5.19114 -4.73342,5.19114 -3.17177,0 -4.74957,-1.68012 -4.74957,-5.19114 v -7.75979 h 3.20407 v 6.89819 c 0,1.2924 0,2.90251 1.55627,2.90251 1.524,0 1.524,-1.61011 1.524,-2.90251 v -6.89819 h 3.19869 z" />
      </g>
      <g
         id="g19341">
        <path
           id="path19343"
           class="cls-1"
           d="m 26.86525,130.29342 a 2.73529,2.73529 0 0 0 0.11847,0.83468 1.42189,1.42189 0 0 0 1.52934,0.92084 1.16681,1.16681 0 0 0 1.32471,-1.1524 c 0,-0.65158 -0.447,-0.82929 -2.24555,-1.44856 -1.64242,-0.57081 -3.52718,-1.12008 -3.52718,-3.67257 a 3.93191,3.93191 0 0 1 4.20031,-4.17877 c 2.25631,0 4.25415,1.04469 4.34031,4.1303 h -3.02637 a 1.08037,1.08037 0 0 0 -0.38234,-1.01777 1.50742,1.50742 0 0 0 -0.94776,-0.31233 c -0.43618,0 -1.15239,0.14 -1.15239,0.85083 0.05924,0.8993 1.5455,1.09316 3.0156,1.594 1.47549,0.49542 2.92945,1.33009 2.92945,3.64564 0,3.301 -2.48788,4.36186 -4.80343,4.36186 a 4.326,4.326 0 0 1 -4.57725,-4.55572 z" />
      </g>
      <path
         id="path19345"
         class="cls-1"
         d="m 34.07146,121.89874 h 3.20408 v 12.65475 h -3.20408 z" />
      <g
         id="g19347">
        <path
           id="path19349"
           class="cls-1"
           d="m 45.374,126.61008 c -0.05924,-0.46311 -0.35,-1.86321 -1.68012,-1.86321 -1.497,0 -1.9763,1.77705 -1.9763,3.47871 0,1.69628 0.47926,3.47333 1.9763,3.47333 1.08238,0 1.5078,-0.92622 1.69627,-2.11092 H 48.535 c 0,2.55249 -1.70166,5.26115 -4.74957,5.26115 -3.36563,0 -5.2773,-2.88636 -5.2773,-6.62356 0,-3.9849 2.07322,-6.62894 5.2773,-6.62894 2.85944,0.0162 4.42647,1.84168 4.70649,5.01344 z" />
      </g>
      <g
         id="g19351">
        <path
           id="path19353"
           class="cls-1"
           d="M 56.84518,125.13782 H 53.93189 V 121.896 h 9.03066 v 3.24178 h -2.91329 v 9.413 h -3.20408 z" />
      </g>
      <g
         id="g19355">
        <path
           id="path19357"
           class="cls-1"
           d="m 63.89362,121.89658 h 8.60523 v 3.24177 h -5.40116 v 1.58319 h 4.90574 v 3.00483 h -4.90574 v 1.58319 h 5.5681 v 3.24178 h -8.77217 z" />
      </g>
      <g
         id="g19359">
        <path
           id="path19361"
           class="cls-1"
           d="m 73.6464,121.89658 h 3.19869 v 9.413 h 4.60956 v 3.24178 H 73.6464 Z" />
      </g>
      <g
         id="g19363">
        <path
           id="path19365"
           class="cls-1"
           d="m 82.24948,121.89658 h 8.60524 v 3.24177 h -5.40116 v 1.58319 h 4.91112 v 3.00483 h -4.91112 v 1.58319 h 5.56271 v 3.24178 h -8.76679 z" />
      </g>
      <g
         id="g19367">
        <path
           id="path19369"
           class="cls-1"
           d="m 98.5542,134.54974 h -3.581 L 91.866,121.895 h 3.23639 l 1.707,7.67363 H 96.831 l 1.6855,-7.67363 h 3.28485 z" />
      </g>
      <path
         id="path19371"
         class="cls-1"
         d="m 103.00489,121.89874 h 3.20946 v 12.65475 h -3.20946 z" />
      <g
         id="g19373">
        <path
           id="path19375"
           class="cls-1"
           d="m 110.6672,130.29342 a 2.73529,2.73529 0 0 0 0.11847,0.83468 1.42191,1.42191 0 0 0 1.52935,0.92084 1.16681,1.16681 0 0 0 1.32471,-1.1524 c 0,-0.65158 -0.45773,-0.82929 -2.24555,-1.44856 -1.64243,-0.57081 -3.52718,-1.12008 -3.52718,-3.67257 a 3.92931,3.92931 0 0 1 4.20031,-4.17877 c 2.25631,0 4.24876,1.04469 4.33492,4.1303 h -3.02637 a 1.06864,1.06864 0 0 0 -0.38233,-1.01777 1.48233,1.48233 0 0 0 -0.94238,-0.31233 c -0.43618,0 -1.15239,0.14 -1.15239,0.85083 0.0592,0.8993 1.5455,1.09316 3.0156,1.594 1.47549,0.49542 2.92944,1.33009 2.92944,3.64564 0,3.301 -2.49325,4.36186 -4.80342,4.36186 a 4.326,4.326 0 0 1 -4.57725,-4.55572 z" />
      </g>
      <path
         id="path19377"
         class="cls-1"
         d="m 117.8729,121.89874 h 3.204 v 12.65475 h -3.204 z" />
      <g
         id="g19379">
        <path
           id="path19381"
           class="cls-1"
           d="m 127.43936,121.5961 c 3.16638,0 5.2773,2.76789 5.2773,6.62894 0,3.86105 -2.11092,6.62355 -5.2773,6.62355 -3.15562,0 -5.27192,-2.76251 -5.27192,-6.62355 0,-3.86104 2.1163,-6.62894 5.27192,-6.62894 m 0,10.10226 c 0.81852,0 2.07322,-0.657 2.07322,-3.47332 0,-2.81632 -1.2547,-3.47872 -2.07322,-3.47872 -0.81314,0 -2.06784,0.66236 -2.06784,3.47872 0,2.81636 1.2547,3.47332 2.06784,3.47332" />
      </g>
      <g
         id="g19383">
        <path
           id="path19385"
           class="cls-1"
           d="m 133.90726,121.89658 h 3.27947 l 3.02638,6.76895 h 0.0323 v -6.76895 h 3.02637 v 12.65476 h -3.11253 l -3.19331,-6.909 h -0.0269 v 6.909 h -3.03176 z" />
      </g>
      <g
         id="g19391">
        <path
           id="path19393"
           class="cls-1"
           d="m 172.22213,15.68114 a 10.01161,10.01161 0 0 0 -6.04736,-1.15239 8.60672,8.60672 0 0 0 -4.94343,2.294 c 0.0162,-0.01077 -3.18254,3.15561 -3.18254,3.15561 l -0.85622,1.36779 c -0.0108,0.01616 -2.85405,3.57026 -2.85405,3.57026 0,0 -0.0269,0.03231 -0.0323,0.03769 V 5.245 L 145.58251,0 l 0.005,35.79951 -0.11309,0.17232 -2.08938,2.45556 V 0 H 89.46 L 70.27861,19.08446 53.24046,0 H 0.05277 V 118.31932 H 54.14514 V 66.19786 L 70.0686,82.62212 89.62155,65.95553 v 52.36379 h 53.77466 l -0.005,-49.92976 c 0.42,-0.71621 0.76467,-1.287 0.76467,-1.287 0.005,-0.01616 0.45773,-0.66774 0.45773,-0.66774 0.0269,-0.03231 0.48465,-0.76467 0.98546,-1.56165 l 0.005,53.44617 8.70217,-6.00966 V 49.26741 c 0.38233,-0.57081 0.95314,-1.42164 0.95314,-1.42164 0.0808,-0.13463 1.34087,-2.01938 1.34087,-2.01938 0,-0.0054 2.00322,-2.94559 2.00322,-2.94559 0.0215,-0.04847 0.76467,-0.99084 0.76467,-0.99084 l 1.85245,-2.6225 a 3.99334,3.99334 0 0 1 1.80936,-1.6155 l 0.18847,-0.10232 0.2531,-0.18309 0.96391,-0.97468 c 0.0162,-0.02154 1.67474,-1.42165 1.67474,-1.42165 l 2.83251,-1.31932 2.644,-1.45395 c 0.0108,-0.0054 2.42325,-2.97791 2.42325,-2.97791 l 1.287,-3.99567 c 0.005,-0.0054 0.377,-3.87182 0.377,-3.87182 a 8.06867,8.06867 0 0 0 -3.4518,-5.67041 m -64.79775,32.18078 c 0.0592,0.377 0.26386,3.87721 0.2531,4.4534 -0.0108,1.734 0.1077,3.64565 0.0538,4.41571 -0.0431,0.587 0.0377,2.61172 0.0377,2.61172 0.1454,1.59935 0.49,3.34947 0.52235,3.66181 0.07,0.81852 -0.23694,3.92566 -0.1454,4.6311 a 12.38062,12.38062 0 0 1 0.21,1.75012 11.83393,11.83393 0 0 0 0.07,2.14862 c -0.0431,0.64082 -0.07,1.37318 -0.0915,2.154 -0.0431,1.15778 -0.0808,2.35325 -0.18847,3.39794 -0.0323,0.26386 0.005,2.08938 0.005,2.08938 a 20.30387,20.30387 0 0 0 -0.12385,5.63271 c 0.0592,0.38233 -0.0162,1.637 0.0162,1.85783 0.0485,0.2854 0.45233,1.76089 0.51157,2.084 a 24.15929,24.15929 0 0 0 0.51158,3.24716 c 0.23694,0.52234 1.20085,2.811 1.287,3.08561 a 7.96547,7.96547 0 0 1 0.32848,4.02259 39.56349,39.56349 0 0 1 -1.32471,4.00106 c -0.33926,0.52234 -0.85083,0.82928 -1.09316,1.20624 a 2.48439,2.48439 0 0 1 -1.07162,0.82391 8.46262,8.46262 0 0 1 -5.105,0.23155 9.26744,9.26744 0 0 1 -3.10715,-0.91007 c -1.02314,-0.61928 -1.37317,-2.31555 -1.51856,-3.22562 -0.07,-0.42542 0.05385,-1.56165 0.02692,-1.73935 -0.03231,-0.25849 -0.42,-1.9386 -0.42,-2.47711 a 13.5348,13.5348 0 0 0 -0.03231,-2.154 c -0.15616,-0.96391 -0.62466,-2.53095 -0.62466,-2.53095 -0.12924,-0.64082 -0.47388,-2.03015 -0.49,-2.07323 a 13.64886,13.64886 0 0 1 -0.66236,-2.91329 9.4596,9.4596 0 0 1 0.54389,-4.07106 12.48661,12.48661 0 0 0 0.46849,-1.9386 c 0.05385,-0.45772 -0.30156,-2.62788 -0.23156,-3.35486 0.02154,-0.29617 0.26387,-1.23855 0.27464,-1.3624 0.09154,-0.6139 0.11308,-2.25094 0.11847,-2.504 a 30.06449,30.06449 0 0 0 0.19924,-3.13407 12.34487,12.34487 0 0 1 0,-1.72859 15.4632,15.4632 0 0 0 0.0054,-2.95637 11.03854,11.03854 0 0 1 -0.11847,-2.18092 27.219,27.219 0 0 1 -0.08078,-3.47333 c 0.01077,-0.16693 -0.19386,-1.95475 -0.19924,-2.50941 -0.01077,-0.35 -0.03231,-2.54172 -0.05385,-2.8002 -0.4685,-5.455 -1.20624,-6.4997 -1.50242,-6.699 a 2.05393,2.05393 0 0 0 -1.55626,0.03231 c -0.35,0.16155 -1.2601,0.95315 -2.03015,1.3678 -0.7539,0.39848 -2.15939,1.06623 -2.63865,1.42164 a 23.1596,23.1596 0 0 1 -3.23639,2.09477 6.74934,6.74934 0 0 0 -1.19009,1.02315 15.00914,15.00914 0 0 1 -3.46256,2.52557 9.00791,9.00791 0 0 0 -2.27248,1.55627 c -0.25848,0.25848 -1.21162,1.85244 -1.82552,2.45018 a 5.35772,5.35772 0 0 0 -1.08235,1.62088 4.70347,4.70347 0 0 1 -1.30856,1.90629 5.48669,5.48669 0 0 1 -4.57725,0.33926 6.44443,6.44443 0 0 1 -3.3064,-3.48949 6.3373,6.3373 0 0 1 1.357,-6.17121 8.0739,8.0739 0 0 1 3.96874,-1.93322 11.94354,11.94354 0 0 0 2.4448,-0.87775 c 0.32849,-0.18309 1.37856,-0.9693 1.59935,-1.1147 0.33387,-0.22078 1.524,-0.797 1.75551,-0.94776 a 24.67944,24.67944 0 0 1 2.31017,-1.71243 c 1.38933,-0.77544 2.49326,-1.4001 3.14484,-1.80936 a 19.0297,19.0297 0 0 0 3.15022,-2.25094 c 0.28,-0.26925 1.47011,-0.71082 2.77328,-1.44856 0.32849,-0.18848 1.6909,-0.6462 2.03554,-0.797 0.23694,-0.11309 1.1847,-0.80775 1.46472,-0.95315 1.2224,-0.63543 1.83628,-1.39471 1.49165,-3.28485 a 7.29176,7.29176 0 0 1 -0.2531,-2.11631 8.35475,8.35475 0 0 1 0.75391,-2.20246 c 0.22617,-0.42 0.58158,-0.40926 0.78082,-0.797 a 2.34765,2.34765 0 0 1 1.36241,-0.85083 3.601,3.601 0 0 1 1.77167,-0.78082 c 1.71243,-0.28541 3.9149,0.9693 4.23262,1.03392 a 5.3855,5.3855 0 0 0 2.16477,-0.11309 c 0.1077,-0.02154 0.80775,-0.47926 1.06623,-0.57619 0.34464,-0.12924 1.44857,-0.4308 1.67474,-0.51158 0.33925,-0.11847 1.91167,-0.94237 2.31016,-1.09315 0.40926,-0.15617 1.357,-0.32849 1.82552,-0.43619 0.74851,-0.53311 2.154,-0.99084 2.6925,-1.454 a 14.39392,14.39392 0 0 0 1.60473,-2.03553 16.7095,16.7095 0 0 1 2.08939,-1.63166 9.30486,9.30486 0 0 1 2.45017,-1.43779 17.71962,17.71962 0 0 1 2.154,0.11308 2.758,2.758 0 0 1 2.60635,1.24932 6.24194,6.24194 0 0 1 1.23855,2.06784 c 0.51695,2.6225 -1.44318,5.22346 -2.92945,6.14968 -0.15077,0.09154 -0.87236,0.30156 -1.31394,0.44695 -0.61927,0.20463 -1.24932,0.657 -1.66935,0.77006 a 5.03508,5.03508 0 0 0 -1.58858,0.98546 c -0.33925,0.1777 -1.49165,0.88852 -1.86321,1.09315 a 5.18124,5.18124 0 0 1 -1.59935,1.06623 7.07725,7.07725 0 0 0 -2.70865,1.34625 8.8344,8.8344 0 0 1 -2.45018,0.77545 c -0.17232,0.04307 -2.21324,0.90468 -2.41787,2.10015 -0.2154,1.2547 -0.0377,1.58857 -0.27463,3.38717 a 13.55589,13.55589 0 0 0 0.0215,3.13407 M 173.913,24.93257 a 15.52382,15.52382 0 0 1 -1.147,3.60257 10.39587,10.39587 0 0 1 -2.02476,2.52557 11.149,11.149 0 0 1 -2.27247,1.2547 c -0.42,0.15079 -2.4771,1.10932 -3.03176,1.40549 a 7.16372,7.16372 0 0 0 -2.05168,1.71782 9.8587,9.8587 0 0 1 -0.85083,0.8616 5.69453,5.69453 0 0 0 -2.61173,2.40171 41.731,41.731 0 0 1 -2.53095,3.441 13.03824,13.03824 0 0 1 -1.78782,2.67637 5.20218,5.20218 0 0 0 -0.64082,0.83467 c -0.21,0.31233 -0.42542,0.66236 -0.657,1.04469 -0.0646,0.10232 -0.11847,0.18848 -0.18309,0.29079 a 15.08688,15.08688 0 0 1 -1.19547,1.81475 8.23209,8.23209 0 0 0 -1.427,2.50941 28.8897,28.8897 0 0 0 -1.70166,3.07484 c -0.18847,0.51157 -1.17931,2.17016 -1.287,2.42325 a 19.2833,19.2833 0 0 1 -1.61012,2.014 11.57267,11.57267 0 0 0 -0.52234,1.40549 c -0.15078,0.47926 -0.54389,1.42164 -0.67851,1.78782 -0.16694,0.27463 -0.38234,0.62466 -0.60851,0.99623 a 0.22812,0.22812 0 0 1 -0.0269,0.03769 c -0.16694,0.27463 -0.33387,0.54927 -0.51158,0.83467 -0.39849,0.6462 -0.80237,1.28163 -1.06623,1.6909 -0.1777,0.22617 -0.35541,0.49 -0.51157,0.727 -0.2531,0.37157 -2.10554,3.53257 -2.53095,4.28647 -0.18848,0.34464 -0.42,0.68928 -0.657,1.05007 a 9.19913,9.19913 0 0 0 -1.427,2.78405 16.70493,16.70493 0 0 1 -0.727,1.8686 18.76968,18.76968 0 0 0 -1.08239,4.25415 15.60482,15.60482 0 0 0 -0.0485,2.64942 11.65812,11.65812 0 0 1 -0.0808,2.59558 11.44638,11.44638 0 0 1 -1.594,4.01721 12.46706,12.46706 0 0 1 -1.73935,2.05169 c -0.60851,0.56542 -1.60473,0.797 -3.43025,0.81313 -2.47172,0.01077 -3.53256,-0.90468 -4.8465,-2.8379 a 20.44255,20.44255 0 0 1 -1.147,-2.21862 26.04694,26.04694 0 0 1 -1.664,-4.35108 c -0.1454,-0.50619 -0.35,-1.06623 -0.5385,-1.61012 -0.2154,-0.59234 -0.67851,-2.2617 -0.71621,-2.53633 -0.0431,-0.27463 -0.62466,-2.21862 -0.66235,-2.4071 -0.22617,-1.19008 -0.53851,-2.294 -0.84545,-3.36024 a 30.61914,30.61914 0 0 1 -0.7916,-3.20946 32.72125,32.72125 0 0 0 -1.13085,-3.89874 c 0,0 -0.77544,-2.461 -1.02315,-3.3387 -0.33925,-1.19009 -1.44856,-4.47494 -1.44856,-4.47494 -0.41465,-1.12008 -1.39472,-3.748 -1.46472,-4.168 -0.58158,-3.4141 -0.5762,-6.16583 0.0377,-7.36669 a 5.20205,5.20205 0 0 1 1.97629,-1.49165 19.03284,19.03284 0 0 1 1.77167,-1.02315 9.90225,9.90225 0 0 1 3.16638,-0.16155 5.09691,5.09691 0 0 1 1.97092,0.37157 c 1.804,1.2547 1.93321,2.87559 2.17015,5.82118 0,0 0.31233,3.16639 0.46311,4.35647 0.10771,0.87776 0.22617,1.78782 0.31772,2.68712 0.0592,0.61927 0.0915,1.29779 0.11847,1.94937 0.0485,1.17932 0.45234,3.43025 0.45234,3.43025 0.40387,1.35164 0.7916,2.63865 2.37479,3.30639 a 1.56657,1.56657 0 0 0 1.38394,-0.11308 c 1.08239,-0.5762 2.06784,-2.3317 2.44479,-4.35647 a 2.459,2.459 0 0 1 0.33926,-0.57081 6.16734,6.16734 0 0 0 1.15246,-2.42869 13.08205,13.08205 0 0 1 1.23855,-1.89552 19.23426,19.23426 0 0 0 1.09316,-1.61011 c 0.0808,-0.1454 1.87937,-2.951 1.87937,-2.951 0,0 0.69466,-1.54549 0.99084,-2.12169 a 10.314,10.314 0 0 0 0.58158,-1.40549 6.79209,6.79209 0 0 1 1.03392,-2.56864 15.91392,15.91392 0 0 0 1.72858,-3.18793 c 0.19386,-0.36618 0.72159,-1.27624 1.21163,-2.07861 0.0269,-0.03231 0.0754,-0.10231 0.1077,-0.14539 v -0.0054 c 0.0108,-0.01077 0.0269,-0.03231 0.0377,-0.04308 0.2154,-0.2854 0.49542,-0.66235 0.71082,-0.92083 l 1.55088,-1.83629 a 12.90692,12.90692 0 0 0 0.92083,-1.08777 c 0.30156,-0.39849 0.94238,-1.34087 1.50781,-2.17554 a 26.55658,26.55658 0 0 1 1.64781,-2.14324 c 0.30156,-0.31233 2.56326,-3.35485 2.91328,-3.818 0.1454,-0.18848 1.07162,-1.13085 1.63166,-1.69628 0,-0.0054 0.005,-0.0054 0.005,-0.01077 0.77544,-0.78083 1.06084,-1.06623 1.16316,-1.20086 0.45234,-0.6085 0.94237,-1.20085 1.41625,-1.777 0.47388,-0.57615 0.95853,-1.16316 1.42164,-1.78243 0.20463,-0.25848 0.727,-1.19547 0.867,-1.37857 0.49,-0.6462 2.88636,-2.85943 2.95637,-2.91867 a 7.31163,7.31163 0 0 1 4.15722,-1.97629 8.87137,8.87137 0 0 1 5.1373,0.91545 6.74606,6.74606 0 0 1 2.82712,4.5557 11.66711,11.66711 0 0 1 -0.34464,3.52179" />
      </g>
    </g>
  </g>
</svg>
