<?xml version="1.0" encoding="UTF-8" standalone="no"?>
<!-- Generator: Adobe Illustrator 16.0.0, SVG Export Plug-In . SVG Version: 6.00 Build 0)  -->

<svg
   xmlns:dc="http://purl.org/dc/elements/1.1/"
   xmlns:cc="http://creativecommons.org/ns#"
   xmlns:rdf="http://www.w3.org/1999/02/22-rdf-syntax-ns#"
   xmlns:svg="http://www.w3.org/2000/svg"
   xmlns="http://www.w3.org/2000/svg"
   xmlns:sodipodi="http://sodipodi.sourceforge.net/DTD/sodipodi-0.dtd"
   xmlns:inkscape="http://www.inkscape.org/namespaces/inkscape"
   version="1.1"
   id="Layer_1"
   x="0px"
   y="0px"
   width="1000px"
   height="249.26px"
   viewBox="0 0 1000 249.26"
   enable-background="new 0 0 1000 249.26"
   xml:space="preserve"
   sodipodi:docname="MTV Block Party.svg"
   inkscape:version="0.92.4 (5da689c313, 2019-01-14)"><metadata
   id="metadata343"><rdf:RDF><cc:Work
       rdf:about=""><dc:format>image/svg+xml</dc:format><dc:type
         rdf:resource="http://purl.org/dc/dcmitype/StillImage" /></cc:Work></rdf:RDF></metadata><defs
   id="defs341">
	
	
	
	
	
	
	
	
	
	
	
</defs><sodipodi:namedview
   pagecolor="#ffffff"
   bordercolor="#666666"
   borderopacity="1"
   objecttolerance="10"
   gridtolerance="10"
   guidetolerance="10"
   inkscape:pageopacity="0"
   inkscape:pageshadow="2"
   inkscape:window-width="640"
   inkscape:window-height="480"
   id="namedview339"
   showgrid="false"
   inkscape:zoom="0.284"
   inkscape:cx="500"
   inkscape:cy="124.63"
   inkscape:window-x="0"
   inkscape:window-y="0"
   inkscape:window-maximized="0"
   inkscape:current-layer="Layer_1" />
<g
   id="g367"><path
     id="path1191"
     inkscape:connector-curvature="0"
     d="m 544.428,39.901 c -7.062,4.282 -8.469,5.35 -11.039,7.002 v 56.191 h 35.108 v -29.61 c -1.691,4.795 -3.447,10.6 -4.586,14.499 -1.716,5.879 -3.179,7.421 -7.361,7.421 -3.273,0 -5.369,-1.083 -6.888,-5.081 l -7.614,-20.034 c -2.744,-7.211 -4.317,-12.711 -4.317,-15.87 -0.293,-3.911 2.633,-7.314 6.539,-7.611 0.355,-0.028 0.712,-0.028 1.067,0 5.045,0 5.938,4.756 6.627,9.268 0.339,2.34 1.099,8.658 1.463,12.042 0.174,1.562 0.323,3.294 2.071,3.294 1.756,0 2.175,-2.286 3.393,-5.444 2.681,-6.776 5.898,-13.336 9.606,-19.615 V 0 H 515.905 L 493.069,23.805 470.604,0 H 416.66 v 103.094 h 56.183 V 70.345 l 20.307,17.013 19.673,-16.499 v 32.235 h 8.564 c 0,-1.696 0,-23.043 0,-40.7 0,-5.291 -1.107,-6.568 -2.814,-6.568 -1.717,0 -5.157,2.626 -8.699,5.156 -5.709,4.052 -8.753,7.271 -12.445,7.271 -1.954,-0.023 -3.765,-1.052 -4.793,-2.72 -0.577,-0.885 -0.917,-1.897 -0.988,-2.949 0.016,-1.708 0.996,-3.262 2.53,-4.017 2.167,-1.313 4.563,-1.064 9.702,-4.167 6.104,-3.689 11.838,-6.962 13,-7.611 2.088,-1.103 1.598,-2.795 1.598,-4.376 0,-3.424 3.061,-4.602 5.709,-4.602 1.558,-0.012 3.092,0.368 4.468,1.103 0.948,-0.534 3.385,-1.902 7.995,-4.737 3.02,-1.905 4.641,-5.464 8.239,-5.464 1.462,-0.075 2.91,0.375 4.063,1.277 1.796,1.463 2.12,2.262 2.12,3.519 0,2.815 -4.382,5.156 -6.666,6.548 m 30.33,-39.429 v 36.418 c 2.665,-3.642 5.536,-7.132 8.58,-10.466 V 5.653 Z m 0,102.521 h 8.58 V 46.065 c -3.171,4.36 -6.034,8.931 -8.58,13.684 z M 498.383,9.327 496.976,7.84 479.16,0.02 493.187,14.787 Z m 6.445,81.815 1.754,-1.463 v -5.46 l -8.239,6.924 h 6.485 z m -25.764,-7.477 7.75,6.528 v 12.901 h -7.75 z"
     style="fill:#ffff00" /><path
     id="path1193"
     inkscape:connector-curvature="0"
     d="m 69.981,190.616 c 8.967,4.635 14.431,14.043 14.02,24.126 0,9.972 -3.234,17.808 -9.719,23.517 -6.485,5.709 -15.901,8.563 -28.261,8.563 H 0 V 137.755 h 43.341 c 12.257,0 21.595,2.648 28.031,7.939 6.429,5.282 9.647,12.873 9.647,22.742 0.34,8.793 -3.819,17.144 -11.038,22.18 z M 41.443,164.545 h -10.28 v 14.653 l 11.987,-0.15 c 4.468,-0.617 6.698,-3.005 6.698,-7.156 0.126,-2.111 -0.807,-4.151 -2.491,-5.44 -1.708,-1.274 -3.787,-1.954 -5.914,-1.907 z m 2.79,55.433 c 2.278,0.07 4.5,-0.712 6.224,-2.19 1.598,-1.416 2.476,-3.465 2.396,-5.591 0,-4.365 -2.333,-6.904 -6.999,-7.615 l -14.786,-0.15 v 15.563 z" /><path
     id="path1195"
     inkscape:connector-curvature="0"
     d="m 123.831,216.546 h 35.804 v 30.221 H 92.683 V 137.755 h 31.148 z" /><path
     id="path1197"
     inkscape:connector-curvature="0"
     d="m 260.922,232.818 c -22.971,21.903 -59.101,21.903 -82.063,0 -22.322,-22.441 -22.322,-58.688 0,-81.131 22.963,-21.903 59.093,-21.903 82.063,0 22.323,22.443 22.323,58.69 0,81.131 z m -60.112,-21.65 c 10.485,10.967 27.874,11.362 38.85,0.886 10.968,-10.486 11.362,-27.882 0.886,-38.849 -10.485,-10.969 -27.882,-11.364 -38.85,-0.886 -5.44,5.203 -8.517,12.405 -8.493,19.935 -0.166,7.085 2.586,13.932 7.607,18.93 z" /><path
     id="path1199"
     inkscape:connector-curvature="0"
     d="m 342.416,249.258 c -16.408,0 -30.001,-5.448 -40.794,-16.345 -21.596,-22.789 -21.596,-58.491 0,-81.288 10.793,-10.896 24.386,-16.337 40.794,-16.337 9.75,-0.086 19.365,2.381 27.874,7.148 8.256,4.53 15.15,11.205 19.942,19.31 l -27.099,15.547 c -1.818,-3.583 -4.705,-6.517 -8.256,-8.406 -3.818,-2.096 -8.112,-3.171 -12.462,-3.123 -7.006,-0.269 -13.799,2.451 -18.686,7.48 -9.591,10.872 -9.591,27.186 0,38.05 4.887,5.029 11.68,7.749 18.686,7.481 4.381,0.078 8.698,-0.996 12.533,-3.115 3.559,-1.938 6.413,-4.935 8.185,-8.564 l 27.099,15.562 c -4.76,8.185 -11.647,14.906 -19.942,19.46 -8.517,4.767 -18.124,7.228 -27.874,7.14 z" /><path
     id="path1201"
     inkscape:connector-curvature="0"
     d="m 492.523,246.767 h -34.58 l -27.09,-46.638 v 46.718 H 399.721 V 137.755 h 31.147 v 43.538 l 25.533,-43.538 h 34.579 l -32.35,52.933 z" /><path
     id="path1203"
     inkscape:connector-curvature="0"
     d="m 573.994,137.755 c 10.484,-0.309 20.662,3.526 28.332,10.676 7.607,7.116 11.418,16.59 11.418,28.435 0,11.829 -3.811,21.303 -11.418,28.419 -7.67,7.149 -17.848,10.992 -28.332,10.676 h -12.462 v 30.823 H 530.439 V 137.755 Z m 0,47.968 c 2.27,0.046 4.459,-0.823 6.072,-2.412 3.313,-3.669 3.313,-9.252 0,-12.922 -1.621,-1.589 -3.803,-2.459 -6.072,-2.411 h -12.462 v 17.745 z" /><path
     id="path1205"
     inkscape:connector-curvature="0"
     d="m 674.513,246.767 -3.803,-14.026 h -31.394 l -3.811,14.026 h -33.479 l 34.721,-109.012 h 36.438 l 34.721,109.012 z m -28.537,-38.936 h 18.053 l -9.039,-33.465 z" /><path
     id="path1207"
     inkscape:connector-curvature="0"
     d="m 771.988,246.609 -17.271,-34.24 h -7.78 v 34.24 H 715.766 V 137.604 h 43.594 c 11.933,0 21.801,3.504 29.582,10.51 7.788,6.998 11.688,16.258 11.688,27.795 0.196,12.311 -6.224,23.777 -16.819,30.04 l 21.476,40.645 z m -25.075,-80.347 v 20.242 h 11.854 c 2.847,0.262 5.677,-0.641 7.859,-2.49 1.993,-1.961 3.045,-4.681 2.87,-7.48 0.183,-2.83 -0.87,-5.599 -2.87,-7.606 -2.166,-1.883 -4.99,-2.84 -7.859,-2.665 h -11.854 z" /><path
     id="path1209"
     inkscape:connector-curvature="0"
     d="m 888.781,137.755 v 30.223 h -25.684 v 78.789 h -31.171 v -78.789 h -25.588 v -30.223 z" /><path
     id="path1211"
     inkscape:connector-curvature="0"
     d="m 1000,137.755 -36.92,67.594 v 41.418 h -31.164 v -41.418 l -36.912,-67.594 h 34.572 l 17.902,38.305 17.91,-38.305 z" /></g>
</svg>