<svg xmlns="http://www.w3.org/2000/svg" viewBox="0 0 283.46 283.46"><defs><style>.cls-1{fill:#f35d1c;}.cls-2{fill:#fff;}</style></defs><title>mtvbase</title><g id="Layer_2" data-name="Layer 2"><g id="Viacom"><g id="mtvbase"><rect class="cls-1" width="283.46" height="283.46"/><g id="logo"><path class="cls-2" d="M116.86,167.51h9.22V151l-9.22-7.76Z"/><path class="cls-2" d="M140.51,151.53h7.72l2.09-1.75v-6.5Z"/><path class="cls-2" d="M139.76,56.05l-6.18,6.5L116.89,45l21.2,9.31Z"/><path class="cls-2" d="M229.74,90.39V44.89l11.2,6.73V76.54a139.79,139.79,0,0,0-11.2,13.85"/><path class="cls-2" d="M240.94,99.46v68.05h-11.2V117.72a132.88,132.88,0,0,1,11.2-18.26"/><path class="cls-2" d="M182.52,167.51a102.07,102.07,0,0,1-.8-11.36c0-2.41.33-12.11.33-19.92,0-6.59-1.42-18.3-1.42-24.66,0-3.82.29-9-.15-10.83,3.06-2,5.71-3.25,14.13-8.34,2.72-1.65,7.92-4.44,7.92-7.79,0-1.49-.39-2.46-2.5-4.2a7.36,7.36,0,0,0-4.86-1.52c-4.28,0-6.23,4.29-9.82,6.5-5.48,3.35-8.38,5-9.5,5.63a11,11,0,0,0-5.33-1.33c-3.13,0-6.77,1.42-6.77,5.48,0,1.87.59,3.89-1.91,5.21-1.39.88-8.21,4.77-15.47,9.15-6.12,3.69-9,3.4-11.55,5a5.4,5.4,0,0,0-3,4.78,7.43,7.43,0,0,0,1.17,3.52c1.64,2.1,3.12,3.23,5.71,3.23,4.38,0,8-3.84,14.8-8.65,4.22-3,8.1-6.12,10.37-6.12,2,0,3.43,1.52,3.43,7.81,0,21-1.28,24.37-1.28,39,0,2.63.11,7.48.18,9.5H155.05V133.06l-21.48,18.09L112.1,133.06v34.45H42.52V44.88h67.74l23.31,24.55,23.32-24.55H225V97.32a165.34,165.34,0,0,0-13.16,26.11c-1.44,3.75-2.12,6.47-4,6.47-2.1,0-2.28-2.06-2.47-3.93-.42-4-1.33-11.55-1.75-14.32-.8-5.36-1.87-11-7.85-11-4.45,0-9.09,2.42-9.09,9.06,0,3.75,1.9,10.29,5.16,18.88,1.28,3.39,8.1,21.27,9.08,23.87,1.81,4.74,4.31,6,8.21,6,5,0,6.7-1.83,8.75-8.82,1.74-6,4.71-15.68,7.16-21.78v39.66Z"/><path class="cls-2" d="M42.53,172.26v66.33H240.92V172.26ZM163.75,187a21.32,21.32,0,0,1,6.35,1,20,20,0,0,1,5.36,3.38l-4.37,7a15,15,0,0,0-3.17-2.58,8.19,8.19,0,0,0-3.17-.6,2.71,2.71,0,0,0-2.18.8,2.3,2.3,0,0,0-.79,2c0,1.19,1,2.38,3.17,3.38,1.19.59,2,1.19,2.78,1.59a11.41,11.41,0,0,1,1.59.79,11,11,0,0,1,3.37,3.38,9.44,9.44,0,0,1,1.19,4.77,12.39,12.39,0,0,1-.8,5,8.68,8.68,0,0,1-2.38,3.77,13,13,0,0,1-4.56,3,13.72,13.72,0,0,1-5.56,1,12.22,12.22,0,0,1-2.78-.2,9.83,9.83,0,0,1-2.38-.4,9.67,9.67,0,0,1-2.18-.79c-.6-.4-1.39-.6-2.18-1.19a10.37,10.37,0,0,1-2.18-1.59l-1.51-1.51.92,4.29h-9.72l-1.39-7h-12.5l-3.18,7H110.78L129,187.75h11.7l6.44,30.16,4.68-6.93a13.26,13.26,0,0,0,4,3.58,8.51,8.51,0,0,0,4.37,1.19,3.37,3.37,0,0,0,2.58-.79,3.18,3.18,0,0,0,1-2.18,2.75,2.75,0,0,0-1-2,8.72,8.72,0,0,0-3.17-2,32.18,32.18,0,0,1-4.17-2.58,13.5,13.5,0,0,1-2.38-2.39,7.23,7.23,0,0,1-1-2.18,10,10,0,0,1-.4-2.38,11.11,11.11,0,0,1,3-8.14,15.94,15.94,0,0,1,4.17-3,12.08,12.08,0,0,1,5-1.19Zm-16.58,31-.28.42.47.47ZM87.57,187.75h13.89a9.67,9.67,0,0,1,2.38.2c.8.2,1.59.2,2.38.4a7.78,7.78,0,0,1,4.56,2.78,8.85,8.85,0,0,1,1.59,5.16,7.83,7.83,0,0,1-.79,3.58,7.14,7.14,0,0,1-2,2.78,4.26,4.26,0,0,1-1.59,1,13.08,13.08,0,0,1-2.18.8v.2A7.27,7.27,0,0,1,108.6,206a7.79,7.79,0,0,1,2,1.59,6.2,6.2,0,0,1,1,2,10.08,10.08,0,0,1,.4,2.58,13.81,13.81,0,0,1-1,5,11.42,11.42,0,0,1-3,3.78,7.35,7.35,0,0,1-3.57,1.59,19.44,19.44,0,0,1-5.16.6H81.82Zm93.45,0h20.43l-1.19,8.14H189.54l-.59,4c0,.4-.2.59-.2.79s-.2.4-.2.8c.4,0,.59-.2.79-.2h9.92l-1.39,7.94H187.36l-.59,4.17c0,.4-.2.6-.2.79s-.2.4-.2.8c.4,0,.6-.2.79-.2h9.92l-1.19,8.14H175.46Zm-84.92,7-.79,5.16c0,.4-.2.59-.2.79s-.2.4-.2.8c.4,0,.6-.2.8-.2h2.58a6.18,6.18,0,0,0,2.18-.2,4.17,4.17,0,0,0,1.19-.79,3.79,3.79,0,0,0,1-2.58q0-3-3.57-3Zm37.5,0c-.2.79-.4,1.59-.6,2.18l-.59,1.79c-.2.6-.4,1-.6,1.59a18.33,18.33,0,0,1-1,2l-1,2.58a3.39,3.39,0,0,0-.4,1c-.2.2-.2.6-.4.79s-.2.6-.4.8c-.2.4-.4.59-.59,1,.79,0,1.59-.2,2-.2h5.16a2.12,2.12,0,0,1,1,.2,3.39,3.39,0,0,1-.4-1,8.68,8.68,0,0,1-.2-1l-.8-4.17c-.2-.8-.2-1.59-.4-2.18,0-.6-.2-1.19-.2-1.59a4.38,4.38,0,0,0-.2-1.59V194.7ZM94.12,208.4l-1,6a8.52,8.52,0,0,1-.2,1c0,.2-.2.4-.2.8.4,0,.59-.2.79-.2H96.3a11.37,11.37,0,0,0,2.78-.2,14.07,14.07,0,0,0,1.59-.6,3.86,3.86,0,0,0,1.59-3.18,5.84,5.84,0,0,0-.4-1.79,3.35,3.35,0,0,0-1.19-1.19,2.31,2.31,0,0,0-1.39-.4c-.59,0-1.19-.2-2-.2Z"/></g></g></g></g></svg>