<svg xmlns="http://www.w3.org/2000/svg" viewBox="0 0 283.46 283.46"><defs><style>.cls-1{fill:#f35d1c;}.cls-2{fill:#fff;}</style></defs><title>mtvbase</title><g id="Layer_2" data-name="Layer 2"><g id="Viacom"><g id="mtvbase"><rect class="cls-1" width="283.46" height="283.46"/><g id="logo"><path class="cls-2" d="M116.86,167.51h9.22V151l-9.22-7.76Z"/><path class="cls-2" d="M140.51,151.53h7.72l2.1-1.75v-6.5Z"/><path class="cls-2" d="M139.76,56.05l-6.17,6.5L116.89,45l21.2,9.31Z"/><path class="cls-2" d="M229.74,90.39V44.89l11.2,6.73V76.54a141.08,141.08,0,0,0-11.2,13.85"/><path class="cls-2" d="M240.94,99.46v68.05h-11.2V117.72a132.31,132.31,0,0,1,11.2-18.26"/><path class="cls-2" d="M182.52,167.51a101.12,101.12,0,0,1-.8-11.36c0-2.42.33-12.11.33-19.92,0-6.59-1.42-18.3-1.42-24.67,0-3.81.29-9-.15-10.83,3.06-2,5.72-3.25,14.14-8.34,2.71-1.65,7.91-4.43,7.91-7.79,0-1.49-.39-2.46-2.5-4.2a7.37,7.37,0,0,0-4.86-1.52c-4.28,0-6.23,4.29-9.82,6.5-5.48,3.35-8.38,5-9.51,5.63a10.92,10.92,0,0,0-5.32-1.32c-3.13,0-6.77,1.41-6.77,5.47,0,1.88.59,3.9-1.91,5.21-1.39.88-8.21,4.77-15.47,9.16-6.12,3.69-9,3.4-11.55,5a5.38,5.38,0,0,0-3,4.78,7.46,7.46,0,0,0,1.17,3.52c1.64,2.1,3.12,3.24,5.71,3.24,4.38,0,8-3.85,14.8-8.65,4.22-3,8.1-6.13,10.37-6.13,2,0,3.43,1.52,3.43,7.81,0,21-1.28,24.37-1.28,39,0,2.64.11,7.48.18,9.51H155.05V133.06l-21.48,18.09L112.1,133.06v34.45H42.52V44.88h67.74l23.31,24.55,23.32-24.55H225V97.32a164.66,164.66,0,0,0-13.16,26.11c-1.44,3.75-2.12,6.47-4,6.47-2.1,0-2.28-2.07-2.48-3.93-.42-4-1.32-11.56-1.75-14.33-.8-5.36-1.87-11-7.85-11-4.45,0-9.09,2.43-9.09,9.07,0,3.75,1.89,10.29,5.15,18.87,1.28,3.4,8.1,21.28,9.08,23.87,1.81,4.74,4.31,6,8.21,6,5,0,6.71-1.83,8.76-8.82,1.74-6,4.7-15.67,7.15-21.77v39.66Z"/><path class="cls-2" d="M42.53,172.26v66.32H240.92V172.26ZM163.75,187a21.4,21.4,0,0,1,6.35,1,20.11,20.11,0,0,1,5.36,3.38l-4.37,7a15.19,15.19,0,0,0-3.17-2.58,8.17,8.17,0,0,0-3.17-.6,2.71,2.71,0,0,0-2.19.8,2.32,2.32,0,0,0-.79,2c0,1.19,1,2.38,3.17,3.37,1.2.59,2,1.19,2.78,1.59a13.15,13.15,0,0,1,1.59.79,11,11,0,0,1,3.37,3.38,9.38,9.38,0,0,1,1.19,4.77,12.51,12.51,0,0,1-.79,5,8.68,8.68,0,0,1-2.38,3.77,13,13,0,0,1-4.56,3,13.68,13.68,0,0,1-5.56,1,12.12,12.12,0,0,1-2.78-.2,9.88,9.88,0,0,1-2.38-.4,10.06,10.06,0,0,1-2.18-.79c-.6-.4-1.39-.6-2.19-1.19a10.9,10.9,0,0,1-2.18-1.59l-1.51-1.52.92,4.3h-9.72l-1.39-6.95h-12.5l-3.18,6.95H110.78L129,187.75h11.71l6.43,30.16,4.68-6.93a13.32,13.32,0,0,0,4,3.58,8.51,8.51,0,0,0,4.36,1.19,3.34,3.34,0,0,0,2.58-.8,3.14,3.14,0,0,0,1-2.18,2.74,2.74,0,0,0-1-2,8.73,8.73,0,0,0-3.17-2,32.64,32.64,0,0,1-4.17-2.58,13.38,13.38,0,0,1-2.38-2.39,7.26,7.26,0,0,1-1-2.18,9.88,9.88,0,0,1-.4-2.38,11.11,11.11,0,0,1,3-8.15,16.14,16.14,0,0,1,4.16-3,12.15,12.15,0,0,1,5-1.19Zm-16.58,31-.28.42.47.47Zm-59.6-30.16h13.89a10.11,10.11,0,0,1,2.38.19c.79.2,1.59.2,2.38.4a7.8,7.8,0,0,1,4.56,2.78,8.88,8.88,0,0,1,1.59,5.17,7.84,7.84,0,0,1-.79,3.57,7.26,7.26,0,0,1-2,2.78,4.17,4.17,0,0,1-1.59,1,12.88,12.88,0,0,1-2.18.8v.2A7.14,7.14,0,0,1,108.6,206a7.7,7.7,0,0,1,2,1.59,6.15,6.15,0,0,1,1,2,10.51,10.51,0,0,1,.39,2.58,13.76,13.76,0,0,1-1,5,11.34,11.34,0,0,1-3,3.77,7.38,7.38,0,0,1-3.57,1.59,19.24,19.24,0,0,1-5.16.6H81.82Zm93.45,0h20.43l-1.19,8.14H189.54l-.59,4c0,.4-.2.6-.2.79s-.2.4-.2.8c.4,0,.6-.2.8-.2h9.92l-1.39,7.94H187.36l-.59,4.17c0,.4-.2.6-.2.8s-.2.4-.2.79c.4,0,.6-.19.8-.19h9.92l-1.19,8.14H175.46ZM96.1,194.7l-.79,5.16c0,.4-.2.6-.2.79s-.2.4-.2.8c.4,0,.6-.2.79-.2h2.58a6.09,6.09,0,0,0,2.18-.2,4.14,4.14,0,0,0,1.2-.79,3.82,3.82,0,0,0,1-2.59q0-3-3.57-3Zm37.5,0c-.2.79-.4,1.59-.6,2.18l-.59,1.79c-.2.6-.4,1-.6,1.59a17.28,17.28,0,0,1-1,2l-1,2.58a3.38,3.38,0,0,0-.4,1c-.2.2-.2.59-.39.79s-.2.6-.4.8c-.2.39-.4.59-.6,1,.8,0,1.59-.2,2-.2h5.16a2.16,2.16,0,0,1,1,.2,3.35,3.35,0,0,1-.4-1,8.87,8.87,0,0,1-.2-1l-.79-4.18c-.2-.79-.2-1.59-.4-2.18,0-.6-.2-1.19-.2-1.59a4.59,4.59,0,0,0-.19-1.59V194.7ZM94.12,208.4l-1,6a8.8,8.8,0,0,1-.19,1c0,.2-.2.4-.2.8.39,0,.59-.2.79-.2H96.3a11.31,11.31,0,0,0,2.78-.2,13.33,13.33,0,0,0,1.58-.6,3.84,3.84,0,0,0,1.59-3.18,5.72,5.72,0,0,0-.4-1.78,3.19,3.19,0,0,0-1.19-1.19,2.3,2.3,0,0,0-1.39-.4c-.59,0-1.18-.2-2-.2Z"/></g></g></g></g></svg>