<svg xmlns="http://www.w3.org/2000/svg" viewBox="0 0 283.46 283.46"><defs><style>.cls-1{fill:#6ac4fc;}.cls-2{fill:#fff;}</style></defs><g id="Layer_2" data-name="Layer 2"><g id="Viacom"><g id="mtvclassic"><rect class="cls-1" width="283.46" height="283.46"/><g id="logo"><path class="cls-2" d="M116.86,167.51h9.22V151l-9.22-7.76Z"/><path class="cls-2" d="M140.51,151.53h7.72l2.1-1.75v-6.5Z"/><path class="cls-2" d="M139.76,56.05l-6.17,6.5L116.89,45l21.2,9.31Z"/><path class="cls-2" d="M229.74,90.39V44.89l11.2,6.73V76.54a141.08,141.08,0,0,0-11.2,13.85"/><path class="cls-2" d="M240.94,99.46v68.05h-11.2V117.72a132.31,132.31,0,0,1,11.2-18.26"/><path class="cls-2" d="M182.52,167.51a101.12,101.12,0,0,1-.8-11.36c0-2.42.33-12.11.33-19.92,0-6.59-1.42-18.3-1.42-24.67,0-3.81.29-9-.15-10.83,3.06-2,5.72-3.25,14.14-8.34,2.71-1.65,7.91-4.43,7.91-7.79,0-1.49-.39-2.46-2.5-4.2a7.37,7.37,0,0,0-4.86-1.52c-4.28,0-6.23,4.29-9.82,6.5-5.48,3.35-8.38,5-9.51,5.63a10.92,10.92,0,0,0-5.32-1.32c-3.13,0-6.77,1.41-6.77,5.47,0,1.88.59,3.9-1.91,5.21-1.39.88-8.21,4.77-15.47,9.16-6.12,3.69-9,3.4-11.55,5a5.38,5.38,0,0,0-3,4.78,7.46,7.46,0,0,0,1.17,3.52c1.64,2.1,3.12,3.24,5.71,3.24,4.38,0,8-3.85,14.8-8.65,4.22-3,8.1-6.13,10.37-6.13,2,0,3.43,1.52,3.43,7.81,0,21-1.28,24.37-1.28,39,0,2.64.11,7.48.18,9.51H155.05V133.06l-21.48,18.09L112.1,133.06v34.45H42.52V44.88h67.74l23.31,24.55,23.32-24.55H225V97.32a164.66,164.66,0,0,0-13.16,26.11c-1.44,3.75-2.12,6.47-4,6.47-2.1,0-2.28-2.07-2.48-3.93-.42-4-1.32-11.56-1.75-14.33-.8-5.36-1.87-11-7.85-11-4.45,0-9.09,2.43-9.09,9.07,0,3.75,1.89,10.29,5.15,18.87,1.28,3.4,8.1,21.28,9.08,23.87,1.81,4.74,4.31,6,8.21,6,5,0,6.71-1.83,8.76-8.82,1.74-6,4.7-15.67,7.15-21.77v39.66Z"/><path class="cls-2" d="M42.53,172.26v66.32H240.92V172.26Zm107.34,14.29a21.06,21.06,0,0,1,6.34,1,19.81,19.81,0,0,1,5.36,3.37l-4.36,7a15.2,15.2,0,0,0-3.18-2.58,8.14,8.14,0,0,0-3.17-.6,2.69,2.69,0,0,0-2.18.8,2.3,2.3,0,0,0-.8,2c0,1.19,1,2.38,3.17,3.37,1.2.6,2,1.19,2.78,1.59a12.39,12.39,0,0,1,1.59.79,11,11,0,0,1,3.37,3.38,9.38,9.38,0,0,1,1.19,4.77,12.51,12.51,0,0,1-.79,5,8.68,8.68,0,0,1-2.38,3.77,13,13,0,0,1-4.56,3,13.92,13.92,0,0,1-5.56,1.19,12.79,12.79,0,0,1-2.78-.19,9.88,9.88,0,0,1-2.38-.4,9.6,9.6,0,0,1-2.18-.8,11.18,11.18,0,0,1-2.18-1.19,10,10,0,0,1-2.19-1.59l-.75-.75.75,3.73h-9.21l-1.26-7H112.62l-3,7H99.47l17.22-35.35h11.19L133.76,217l4-6a13.14,13.14,0,0,0,4,3.57,8.44,8.44,0,0,0,4.36,1.19,3.33,3.33,0,0,0,2.58-.79,3.17,3.17,0,0,0,1-2.18,2.76,2.76,0,0,0-1-2,8.77,8.77,0,0,0-3.17-2,30.52,30.52,0,0,1-4.17-2.58,13.69,13.69,0,0,1-2.38-2.38,7.64,7.64,0,0,1-1-2.18,15.06,15.06,0,0,1-.2-2.78,11.11,11.11,0,0,1,3-8.15,16.14,16.14,0,0,1,4.16-3,12.16,12.16,0,0,1,5-1.19ZM133.76,217l-.76,1.14c.5.49.85.84,1.23,1.23ZM72.49,187c3.37,0,6.15.4,8.53,1.79l-1.59,10.52a8.63,8.63,0,0,0-6.74-3.37,8.82,8.82,0,0,0-4,.79,9.6,9.6,0,0,0-3.18,2.38,10.62,10.62,0,0,0-2,3.58,11.73,11.73,0,0,0-.79,4.57,9,9,0,0,0,2.58,6.55,10.56,10.56,0,0,0,4.56,2c2.58.2,6.55-.59,7.34-1.59l-1.79,9.74h-.39a38.94,38.94,0,0,1-5.16.39,20.58,20.58,0,0,1-7.14-1.19,14.46,14.46,0,0,1-5.36-3.37A16.4,16.4,0,0,1,54,214.36a20.67,20.67,0,0,1-1.19-7.15,22.94,22.94,0,0,1,1.58-8.15,19.07,19.07,0,0,1,4.37-6.75A18.5,18.5,0,0,1,72.49,187Zm102.57,0a21.45,21.45,0,0,1,6.35,1,20.11,20.11,0,0,1,5.36,3.38l-4.37,7a14.87,14.87,0,0,0-3.17-2.58,8.19,8.19,0,0,0-3.18-.6,2.7,2.7,0,0,0-2.18.8,2.27,2.27,0,0,0-.79,2c0,1.19,1,2.38,3.17,3.38,1.19.59,2,1.19,2.78,1.59a10.63,10.63,0,0,1,1.59.79A10.87,10.87,0,0,1,184,207a9.45,9.45,0,0,1,1.19,4.76,12.53,12.53,0,0,1-.79,5,8.62,8.62,0,0,1-2.39,3.77,12.9,12.9,0,0,1-4.56,3,14,14,0,0,1-5.55,1.19,12.12,12.12,0,0,1-2.78-.2,10.37,10.37,0,0,1-2.38-.39,9.43,9.43,0,0,1-2.18-.8c-.6-.4-1.39-.59-2.19-1.19a10.52,10.52,0,0,1-2.18-1.59l-2-2,5-7.55a13.14,13.14,0,0,0,4,3.57,8.39,8.39,0,0,0,4.36,1.19,3.34,3.34,0,0,0,2.58-.79,3.2,3.2,0,0,0,1-2.19,2.78,2.78,0,0,0-1-2,8.86,8.86,0,0,0-3.17-2,30.52,30.52,0,0,1-4.17-2.58,13.35,13.35,0,0,1-2.38-2.38,7.37,7.37,0,0,1-1-2.18,10,10,0,0,1-.4-2.39,11.12,11.12,0,0,1,3-8.14,16,16,0,0,1,4.17-3,12.15,12.15,0,0,1,5-1.19Zm46.82,0a16.93,16.93,0,0,1,8.54,1.79L229,197.67l-.2,1.59a8.38,8.38,0,0,0-6.75-3.37,8.78,8.78,0,0,0-4,.79,9.5,9.5,0,0,0-3.18,2.38,10.45,10.45,0,0,0-2,3.58,11.59,11.59,0,0,0-.8,4.57,8.27,8.27,0,0,0,7.15,8.73c2.57.2,6.54-.59,7.34-1.58l-1.79,9.53h-.4a38.64,38.64,0,0,1-5.15.39,20.67,20.67,0,0,1-7.15-1.19,14.5,14.5,0,0,1-5.35-3.37,16.59,16.59,0,0,1-3.38-5.36,20.91,20.91,0,0,1-1.19-7.15,23,23,0,0,1,1.59-8.15,18.8,18.8,0,0,1,4.37-6.75A18.49,18.49,0,0,1,221.88,187Zm-136.5.79h9.53l-4,25.42a2.67,2.67,0,0,0-.2,1,1.49,1.49,0,0,1-.2.8,1.51,1.51,0,0,1,.8-.2h8.33l-1.39,8.34H79.83Zm106.94,0h9.52l-5.55,35.35h-9.72Zm-71.21,6.65c-.24.86-.44,1.57-.6,2.18s-.35,1.17-.51,1.7-.37,1.08-.6,1.64-.53,1.26-.86,2.07l-1,2.5c-.18.42-.32.77-.43,1.05s-.24.57-.35.85-.25.58-.38.88-.28.67-.5,1.09c.84-.07,1.49-.11,2-.11h4.47a7.21,7.21,0,0,1,1,.11c-.13-.46-.2-.81-.27-1s-.11-.59-.18-1.08h0l-.69-4.25c-.14-.86-.25-1.56-.35-2.13s-.14-1.11-.21-1.65-.07-1.08-.1-1.66,0-1.29-.07-2.1Z"/></g></g></g></g></svg>