<svg xmlns="http://www.w3.org/2000/svg" viewBox="0 0 283.46 283.46"><defs><style>.cls-1{fill:#6ac4fc;}.cls-2{fill:#fff;}</style></defs><title>mtvclassic</title><g id="Layer_2" data-name="Layer 2"><g id="Viacom"><g id="mtvclassic"><rect class="cls-1" width="283.46" height="283.46"/><g id="logo"><path class="cls-2" d="M116.86,167.51h9.22V151l-9.22-7.76Z"/><path class="cls-2" d="M140.51,151.53h7.72l2.09-1.75v-6.5Z"/><path class="cls-2" d="M139.76,56.05l-6.18,6.5L116.89,45l21.2,9.31Z"/><path class="cls-2" d="M229.74,90.39V44.89l11.2,6.73V76.54a139.79,139.79,0,0,0-11.2,13.85"/><path class="cls-2" d="M240.94,99.46v68.05h-11.2V117.72a132.88,132.88,0,0,1,11.2-18.26"/><path class="cls-2" d="M182.52,167.51a102.07,102.07,0,0,1-.8-11.36c0-2.41.33-12.11.33-19.92,0-6.59-1.42-18.3-1.42-24.66,0-3.82.29-9-.15-10.83,3.06-2,5.71-3.25,14.13-8.34,2.72-1.65,7.92-4.44,7.92-7.79,0-1.49-.39-2.46-2.5-4.2a7.36,7.36,0,0,0-4.86-1.52c-4.28,0-6.23,4.29-9.82,6.5-5.48,3.35-8.38,5-9.5,5.63a11,11,0,0,0-5.33-1.33c-3.13,0-6.77,1.42-6.77,5.48,0,1.87.59,3.89-1.91,5.21-1.39.88-8.21,4.77-15.47,9.15-6.12,3.69-9,3.4-11.55,5a5.4,5.4,0,0,0-3,4.78,7.43,7.43,0,0,0,1.17,3.52c1.64,2.1,3.12,3.23,5.71,3.23,4.38,0,8-3.84,14.8-8.65,4.22-3,8.1-6.12,10.37-6.12,2,0,3.43,1.52,3.43,7.81,0,21-1.28,24.37-1.28,39,0,2.63.11,7.48.18,9.5H155.05V133.06l-21.48,18.09L112.1,133.06v34.45H42.52V44.88h67.74l23.31,24.55,23.32-24.55H225V97.32a165.34,165.34,0,0,0-13.16,26.11c-1.44,3.75-2.12,6.47-4,6.47-2.1,0-2.28-2.06-2.47-3.93-.42-4-1.33-11.55-1.75-14.32-.8-5.36-1.87-11-7.85-11-4.45,0-9.09,2.42-9.09,9.06,0,3.75,1.9,10.29,5.16,18.88,1.28,3.39,8.1,21.27,9.08,23.87,1.81,4.74,4.31,6,8.21,6,5,0,6.7-1.83,8.75-8.82,1.74-6,4.71-15.68,7.16-21.78v39.66Z"/><path class="cls-2" d="M42.53,172.26v66.33H240.92V172.26Zm107.34,14.3a21.35,21.35,0,0,1,6.35,1,20,20,0,0,1,5.35,3.37l-4.36,7a14.93,14.93,0,0,0-3.18-2.58,8.16,8.16,0,0,0-3.17-.6,2.7,2.7,0,0,0-2.18.79,2.3,2.3,0,0,0-.79,2c0,1.19,1,2.38,3.17,3.38,1.19.59,2,1.19,2.78,1.59a11.16,11.16,0,0,1,1.59.8,11,11,0,0,1,3.38,3.37,9.47,9.47,0,0,1,1.19,4.77,12.46,12.46,0,0,1-.79,5,8.65,8.65,0,0,1-2.38,3.77,13,13,0,0,1-4.56,3,14,14,0,0,1-5.56,1.19,12.21,12.21,0,0,1-2.77-.2,13,13,0,0,1-4.57-1.19,12.08,12.08,0,0,1-2.18-1.19,10.41,10.41,0,0,1-2.18-1.59l-.75-.75.75,3.73h-9.22l-1.26-7H112.62l-3,7H99.47l17.22-35.35h11.19L133.76,217l4-6a13.26,13.26,0,0,0,4,3.58,8.48,8.48,0,0,0,4.37,1.19,3.36,3.36,0,0,0,2.58-.79,3.19,3.19,0,0,0,1-2.18,2.76,2.76,0,0,0-1-2,8.8,8.8,0,0,0-3.17-2,31.35,31.35,0,0,1-4.17-2.58,13.64,13.64,0,0,1-2.38-2.38,7.49,7.49,0,0,1-1-2.18,15.17,15.17,0,0,1-.2-2.78,11.12,11.12,0,0,1,3-8.14,15.94,15.94,0,0,1,4.17-3,12.09,12.09,0,0,1,5-1.19ZM133.76,217l-.76,1.14,1.23,1.24ZM72.49,187c3.37,0,6.15.4,8.53,1.79l-1.59,10.53a8.64,8.64,0,0,0-6.75-3.38,8.86,8.86,0,0,0-4,.79,9.52,9.52,0,0,0-3.17,2.38,10.42,10.42,0,0,0-2,3.57,11.68,11.68,0,0,0-.79,4.57,9,9,0,0,0,2.58,6.55,10.64,10.64,0,0,0,4.56,2c2.58.2,6.55-.6,7.34-1.59l-1.79,9.73h-.4a39.12,39.12,0,0,1-5.16.4,20.71,20.71,0,0,1-7.14-1.19,14.59,14.59,0,0,1-5.36-3.38A16.46,16.46,0,0,1,54,214.36a20.8,20.8,0,0,1-1.19-7.15,22.87,22.87,0,0,1,1.59-8.14,18.86,18.86,0,0,1,4.37-6.75A18.52,18.52,0,0,1,72.49,187Zm102.57,0a21.23,21.23,0,0,1,6.35,1,19.91,19.91,0,0,1,5.36,3.37l-4.37,6.95a14.92,14.92,0,0,0-3.18-2.58,8.23,8.23,0,0,0-3.17-.6,2.71,2.71,0,0,0-2.18.8,2.3,2.3,0,0,0-.79,2c0,1.19,1,2.38,3.17,3.37,1.19.6,2,1.19,2.78,1.59a10.22,10.22,0,0,1,5,4.17,9.45,9.45,0,0,1,1.19,4.76,12.45,12.45,0,0,1-.79,5,8.65,8.65,0,0,1-2.38,3.77,12.92,12.92,0,0,1-4.56,3,14,14,0,0,1-5.56,1.19,12.2,12.2,0,0,1-2.77-.2,10,10,0,0,1-2.38-.4,9.71,9.71,0,0,1-2.18-.79c-.59-.4-1.39-.59-2.18-1.19a10.28,10.28,0,0,1-2.18-1.59l-2-2,5-7.55a13.21,13.21,0,0,0,4,3.58,8.48,8.48,0,0,0,4.37,1.19,3.36,3.36,0,0,0,2.58-.79,3.19,3.19,0,0,0,1-2.18,2.77,2.77,0,0,0-1-2,8.77,8.77,0,0,0-3.17-2,31.82,31.82,0,0,1-4.17-2.58,13.63,13.63,0,0,1-2.38-2.38,7.4,7.4,0,0,1-1-2.18,10,10,0,0,1-.4-2.39,11.11,11.11,0,0,1,3-8.14,15.78,15.78,0,0,1,4.17-3,12,12,0,0,1,5-1.19Zm46.82,0c3.17,0,6.15.4,8.53,1.79L229,197.67l-.2,1.59a8.36,8.36,0,0,0-6.75-3.38,8.85,8.85,0,0,0-4,.79,9.49,9.49,0,0,0-3.17,2.38,10.38,10.38,0,0,0-2,3.57,11.7,11.7,0,0,0-.79,4.57,8.28,8.28,0,0,0,7.14,8.74c2.58.2,6.55-.59,7.34-1.59l-1.79,9.53h-.4a39.09,39.09,0,0,1-5.16.4,20.71,20.71,0,0,1-7.14-1.19,14.58,14.58,0,0,1-5.36-3.38,16.42,16.42,0,0,1-3.37-5.36,20.76,20.76,0,0,1-1.19-7.15,22.84,22.84,0,0,1,1.59-8.14,18.89,18.89,0,0,1,4.37-6.75A18.52,18.52,0,0,1,221.88,187Zm-136.5.79h9.52l-4,25.42a2.67,2.67,0,0,0-.2,1,1.48,1.48,0,0,1-.2.8,1.51,1.51,0,0,1,.79-.2h8.33l-1.39,8.34H79.83Zm106.94,0h9.52l-5.56,35.35h-9.72Zm-71.21,6.65c-.24.85-.44,1.57-.6,2.18s-.35,1.17-.51,1.7-.37,1.08-.6,1.64-.53,1.26-.86,2.07l-1,2.5-.43,1.06c-.1.29-.24.57-.35.85s-.24.58-.38.88-.28.67-.5,1.1c.84-.07,1.49-.11,2-.11h4.46a6.67,6.67,0,0,1,1,.11c-.14-.46-.21-.81-.28-1s-.1-.59-.17-1.08h0l-.7-4.25c-.14-.85-.24-1.56-.35-2.12s-.14-1.11-.21-1.65-.07-1.08-.1-1.66,0-1.29-.07-2.1Z"/></g></g></g></g></svg>