<svg xmlns="http://www.w3.org/2000/svg" viewBox="0 0 283.46 283.46"><defs><style>.cls-1{fill:#7541bb;}.cls-2{fill:#fff;}</style></defs><title>mtvdance</title><g id="Layer_2" data-name="Layer 2"><g id="Viacom"><g id="mtvdance"><rect class="cls-1" width="283.46" height="283.46"/><g id="logo"><path class="cls-2" d="M42.53,172.25v66.34H240.92V172.25Zm145,14.6c4.56,0,8.34.93,11.31,2.81l-1.48,9.67a12.42,12.42,0,0,0-4.28-2.88,14.16,14.16,0,0,0-5.39-1,9.18,9.18,0,0,0-4,.83,8.86,8.86,0,0,0-3.11,2.31,10.49,10.49,0,0,0-2,3.56,14,14,0,0,0-.71,4.58,8.63,8.63,0,0,0,2.51,6.64c1.69,1.56,4.1,2.34,7.26,2.34a14.07,14.07,0,0,0,3.76-.5,16.07,16.07,0,0,0,3.62-1.57l-1.45,8.94a10,10,0,0,1-3.4,1.13,29.48,29.48,0,0,1-5.09.4A20.08,20.08,0,0,1,178,222.9a15.06,15.06,0,0,1-5.36-3.4,14.81,14.81,0,0,1-3.4-5.34,19.69,19.69,0,0,1-1.2-7.07,22.17,22.17,0,0,1,1.51-8.16,19.47,19.47,0,0,1,4.4-6.72,18.27,18.27,0,0,1,13.6-5.36Zm14.23.88h20.5L221,195.88H210.26l-.69,3.88c-.07.39-.15.68-.18.88a8.23,8.23,0,0,1-.22.88,5.11,5.11,0,0,1,.85-.11h10.1l-1.38,7.85H208.05l-.69,4.15c-.07.39-.15.68-.18.88a6.68,6.68,0,0,1-.22.83,5.36,5.36,0,0,1,.88-.11h10l-1.28,8.12H196.12Zm-134.18,0H80.51a16,16,0,0,1,6.16,1.17,13.76,13.76,0,0,1,4.81,3.3,15.32,15.32,0,0,1,3.11,5.07,18.19,18.19,0,0,1,1.11,6.51,21.91,21.91,0,0,1-.74,5.63,21,21,0,0,1-2.1,5,17.76,17.76,0,0,1-7.57,7h0a21,21,0,0,1-8.78,1.7H62Zm42.25,0h11.8l7.49,35.39H119.4l-1.33-7H105.55l-3.15,7H91.67Zm24.94,0h10.84l5.84,15.1c.46,1.16.85,2.17,1.17,3s.61,1.63.88,2.39.53,1.56.77,2.39.53,1.86.85,3.06l.26,0c0-1.24.07-2.28.15-3.13s.11-1.68.18-2.46.15-1.64.26-2.53.26-2,.42-3.23l2-14.52H168l-5.7,35.36H151.5l-5.84-14.93c-.45-1.17-.84-2.17-1.15-3s-.58-1.62-.84-2.39-.53-1.56-.77-2.4-.53-1.83-.85-3l-.33.07q-.05,1.86-.11,3.13c0,.84-.07,1.66-.18,2.44s-.18,1.61-.29,2.5-.29,2-.45,3.25l-2,14.34h-9.55Zm-20.28,6.65c-.26.85-.46,1.57-.63,2.18s-.37,1.17-.54,1.7-.39,1.08-.63,1.64-.56,1.26-.9,2.08l-1.07,2.5-.45,1.06c-.11.29-.26.57-.37.85s-.26.58-.4.88-.29.67-.53,1.1c.89-.07,1.57-.11,2.08-.11h4.71a7.41,7.41,0,0,1,1,.11c-.15-.46-.22-.81-.29-1s-.11-.59-.18-1.08h0l-.74-4.26c-.15-.85-.26-1.56-.37-2.13s-.15-1.11-.22-1.65-.07-1.08-.11-1.66,0-1.29-.07-2.1Zm-35.84,1.31H76l-2.86,17.69a6.63,6.63,0,0,0-.15.88c0,.18-.11.48-.22.83a3.59,3.59,0,0,1,.72-.11h2.05a15.51,15.51,0,0,0,4.38-.53,7.14,7.14,0,0,0,2.94-1.75,10.45,10.45,0,0,0,2.42-4,16.59,16.59,0,0,0,.88-5.48,7.53,7.53,0,0,0-1.93-5.58,7.71,7.71,0,0,0-5.61-1.91Z"/><path class="cls-2" d="M116.86,167.5h9.22V151l-9.22-7.76Z"/><path class="cls-2" d="M140.51,151.53h7.72l2.09-1.75v-6.5Z"/><path class="cls-2" d="M139.76,56l-6.18,6.5L116.89,45l21.2,9.31Z"/><path class="cls-2" d="M229.74,90.38V44.88l11.2,6.73V76.54a139.79,139.79,0,0,0-11.2,13.85"/><path class="cls-2" d="M240.94,99.46v68.05h-11.2V117.72a132.88,132.88,0,0,1,11.2-18.26"/><path class="cls-2" d="M182.52,167.5a102.07,102.07,0,0,1-.8-11.36c0-2.41.33-12.11.33-19.92,0-6.59-1.42-18.3-1.42-24.66,0-3.82.29-9-.15-10.83,3.06-2,5.71-3.25,14.13-8.34,2.72-1.65,7.92-4.44,7.92-7.79,0-1.49-.39-2.46-2.5-4.2a7.36,7.36,0,0,0-4.86-1.52c-4.28,0-6.23,4.29-9.82,6.5-5.48,3.35-8.38,5-9.5,5.63a11,11,0,0,0-5.33-1.33c-3.13,0-6.77,1.42-6.77,5.48,0,1.87.59,3.89-1.91,5.21-1.39.88-8.21,4.77-15.47,9.15-6.12,3.69-9,3.4-11.55,5a5.4,5.4,0,0,0-3,4.78,7.43,7.43,0,0,0,1.17,3.52c1.64,2.1,3.12,3.23,5.71,3.23,4.38,0,8-3.84,14.8-8.65,4.22-3,8.1-6.12,10.37-6.12,2,0,3.43,1.52,3.43,7.81,0,21-1.28,24.37-1.28,39,0,2.63.11,7.48.18,9.5H155.05V133.05l-21.48,18.09L112.1,133.05V167.5H42.52V44.88h67.74l23.31,24.55,23.32-24.55H225V97.31a165.34,165.34,0,0,0-13.16,26.11c-1.44,3.75-2.12,6.47-4,6.47-2.1,0-2.28-2.06-2.47-3.93-.42-4-1.33-11.55-1.75-14.32-.8-5.36-1.87-11-7.85-11-4.45,0-9.09,2.42-9.09,9.06,0,3.75,1.9,10.29,5.16,18.88,1.28,3.39,8.1,21.27,9.08,23.87,1.81,4.74,4.31,6,8.21,6,5,0,6.7-1.83,8.75-8.82,1.74-6,4.71-15.68,7.16-21.78V167.5Z"/></g></g></g></g></svg>