<svg xmlns="http://www.w3.org/2000/svg" viewBox="0 0 283.46 283.46"><defs><style>.cls-1{fill:#7541bb;}.cls-2{fill:#fff;}</style></defs><title>mtvdance</title><g id="Layer_2" data-name="Layer 2"><g id="Viacom"><g id="mtvdance"><rect class="cls-1" width="283.46" height="283.46"/><g id="logo"><path class="cls-2" d="M42.53,172.25v66.34H240.92V172.25Zm145,14.61c4.56,0,8.34.92,11.31,2.81l-1.49,9.67a12.39,12.39,0,0,0-4.28-2.88,14.1,14.1,0,0,0-5.39-1,9.19,9.19,0,0,0-4,.83,9,9,0,0,0-3.11,2.31,10.5,10.5,0,0,0-2,3.56,13.86,13.86,0,0,0-.71,4.57,8.64,8.64,0,0,0,2.51,6.64c1.69,1.56,4.1,2.34,7.26,2.34a13.79,13.79,0,0,0,3.77-.51,15.76,15.76,0,0,0,3.62-1.57l-1.45,8.94a9.92,9.92,0,0,1-3.4,1.13,29,29,0,0,1-5.09.4A20,20,0,0,1,178,222.9a14.55,14.55,0,0,1-8.77-8.74,19.69,19.69,0,0,1-1.2-7.06,22.23,22.23,0,0,1,1.51-8.16,19.36,19.36,0,0,1,4.4-6.72,18.24,18.24,0,0,1,13.6-5.36Zm14.23.88h20.5L221,195.88H210.26l-.7,3.88c-.07.39-.14.69-.18.88s-.11.49-.22.88a5.57,5.57,0,0,1,.85-.11h10.1l-1.38,7.85H208.05l-.69,4.15c-.07.39-.15.69-.18.88a8.31,8.31,0,0,1-.22.83,4.68,4.68,0,0,1,.87-.11h10l-1.27,8.12H196.12Zm-134.17,0H80.51a16.13,16.13,0,0,1,6.16,1.17,13.81,13.81,0,0,1,4.81,3.3,15.47,15.47,0,0,1,3.1,5.07,18.16,18.16,0,0,1,1.11,6.51,21.91,21.91,0,0,1-.73,5.64,21.46,21.46,0,0,1-2.1,5,17.7,17.7,0,0,1-7.57,7h0a21,21,0,0,1-8.78,1.7H62Zm42.25,0h11.8l7.49,35.39H119.4l-1.32-7H105.55l-3.15,7H91.67Zm24.93,0h10.85l5.84,15.09c.46,1.17.85,2.17,1.17,3s.61,1.62.88,2.38.53,1.56.77,2.39.53,1.86.85,3.06l.26,0c0-1.24.07-2.28.15-3.13s.11-1.68.18-2.47.15-1.63.26-2.52.25-2,.42-3.24l2-14.51H168l-5.7,35.36H151.5l-5.85-14.93q-.68-1.76-1.14-3c-.3-.83-.58-1.63-.84-2.39s-.53-1.56-.77-2.4-.54-1.83-.86-3l-.33.07c0,1.24-.07,2.28-.1,3.13s-.08,1.66-.19,2.44-.18,1.61-.29,2.5-.29,2-.45,3.25l-2,14.34h-9.56Zm-20.28,6.65c-.25.85-.46,1.57-.63,2.18s-.36,1.17-.54,1.7-.39,1.08-.63,1.64-.56,1.26-.9,2.07l-1.08,2.5-.44,1.06c-.11.29-.26.57-.38.85a9.65,9.65,0,0,1-.4.88c-.14.29-.29.67-.53,1.1.89-.08,1.58-.11,2.08-.11h4.71a6.53,6.53,0,0,1,1,.11c-.15-.47-.22-.82-.29-1s-.11-.59-.19-1.08l0,0-.73-4.25c-.15-.85-.26-1.56-.37-2.13s-.14-1.11-.21-1.65-.08-1.08-.11-1.66,0-1.29-.08-2.1Zm-35.83,1.31H76l-2.86,17.69a7.28,7.28,0,0,0-.15.88,7,7,0,0,1-.22.82,3.7,3.7,0,0,1,.73-.1h2a15.78,15.78,0,0,0,4.38-.53,7.19,7.19,0,0,0,2.94-1.76,10.36,10.36,0,0,0,2.42-4,16.66,16.66,0,0,0,.88-5.48,7.55,7.55,0,0,0-1.93-5.59,7.73,7.73,0,0,0-5.61-1.9Z"/><path class="cls-2" d="M116.86,167.5h9.22V151l-9.22-7.77Z"/><path class="cls-2" d="M140.51,151.53h7.72l2.1-1.76v-6.49Z"/><path class="cls-2" d="M139.76,56.05l-6.17,6.5L116.89,45l21.2,9.31Z"/><path class="cls-2" d="M229.74,90.38V44.88l11.2,6.73V76.54a141.08,141.08,0,0,0-11.2,13.85"/><path class="cls-2" d="M240.94,99.46v68.05h-11.2V117.72a132.31,132.31,0,0,1,11.2-18.26"/><path class="cls-2" d="M182.52,167.5a101,101,0,0,1-.8-11.36c0-2.41.33-12.1.33-19.92,0-6.58-1.42-18.29-1.42-24.66,0-3.82.29-9-.15-10.83,3.06-2,5.72-3.25,14.14-8.34,2.71-1.65,7.91-4.44,7.91-7.79,0-1.49-.39-2.46-2.5-4.2a7.32,7.32,0,0,0-4.86-1.52c-4.28,0-6.23,4.29-9.82,6.49-5.48,3.36-8.38,5-9.51,5.64a10.88,10.88,0,0,0-5.32-1.33c-3.13,0-6.77,1.42-6.77,5.48,0,1.87.59,3.9-1.91,5.21-1.39.88-8.21,4.77-15.47,9.15-6.12,3.69-9,3.41-11.55,5a5.38,5.38,0,0,0-3,4.78,7.46,7.46,0,0,0,1.17,3.52c1.64,2.1,3.12,3.23,5.71,3.23,4.38,0,8-3.84,14.8-8.65,4.22-3,8.1-6.12,10.37-6.12,2,0,3.43,1.52,3.43,7.81,0,21-1.28,24.37-1.28,39,0,2.63.11,7.48.18,9.5H155.05V133.05l-21.48,18.09L112.1,133.05V167.5H42.52V44.88h67.74l23.31,24.55,23.32-24.55H225V97.31a165.59,165.59,0,0,0-13.16,26.11c-1.44,3.75-2.12,6.48-4,6.48-2.1,0-2.28-2.07-2.48-3.94-.42-4-1.32-11.55-1.75-14.32-.8-5.37-1.87-11-7.85-11-4.45,0-9.09,2.42-9.09,9.07,0,3.75,1.89,10.28,5.15,18.87,1.28,3.39,8.1,21.27,9.08,23.87,1.81,4.74,4.31,6,8.21,6,5,0,6.71-1.83,8.76-8.82,1.74-6,4.7-15.68,7.15-21.78V167.5Z"/></g></g></g></g></svg>