<svg xmlns="http://www.w3.org/2000/svg" viewBox="0 0 283.46 283.46"><defs><style>.cls-1{fill:#fa2d7a;}.cls-2{fill:#fff;}</style></defs><title>mtvhits</title><g id="Layer_2" data-name="Layer 2"><g id="Viacom"><g id="mtvhits"><rect class="cls-1" width="283.46" height="283.46"/><g id="logo"><path class="cls-2" d="M116.86,167.5h9.22V151l-9.22-7.76Z"/><path class="cls-2" d="M140.51,151.53h7.72l2.09-1.75v-6.5Z"/><path class="cls-2" d="M139.76,56.05l-6.18,6.5L116.89,45l21.2,9.31Z"/><path class="cls-2" d="M229.74,90.39V44.89l11.2,6.73V76.54a139.79,139.79,0,0,0-11.2,13.85"/><path class="cls-2" d="M240.94,99.46v68.05h-11.2V117.72a132.88,132.88,0,0,1,11.2-18.26"/><path class="cls-2" d="M182.52,167.5a102.07,102.07,0,0,1-.8-11.36c0-2.41.33-12.11.33-19.92,0-6.59-1.42-18.3-1.42-24.66,0-3.82.29-9-.15-10.83,3.06-2,5.71-3.25,14.13-8.34,2.72-1.65,7.92-4.44,7.92-7.79,0-1.49-.39-2.46-2.5-4.2a7.36,7.36,0,0,0-4.86-1.52c-4.28,0-6.23,4.29-9.82,6.5-5.48,3.35-8.38,5-9.5,5.63a11,11,0,0,0-5.33-1.33c-3.13,0-6.77,1.42-6.77,5.48,0,1.87.59,3.89-1.91,5.21-1.39.88-8.21,4.77-15.47,9.15-6.12,3.69-9,3.4-11.55,5a5.4,5.4,0,0,0-3,4.78,7.43,7.43,0,0,0,1.17,3.52c1.64,2.1,3.12,3.23,5.71,3.23,4.38,0,8-3.84,14.8-8.65,4.22-3,8.1-6.12,10.37-6.12,2,0,3.43,1.52,3.43,7.81,0,21-1.28,24.37-1.28,39,0,2.63.11,7.48.18,9.5H155.05V133.06l-21.48,18.09L112.1,133.06v34.45H42.52V44.88h67.74l23.31,24.55,23.32-24.55H225V97.32a165.34,165.34,0,0,0-13.16,26.11c-1.44,3.75-2.12,6.47-4,6.47-2.1,0-2.28-2.06-2.47-3.93-.42-4-1.33-11.55-1.75-14.32-.8-5.36-1.87-11-7.85-11-4.45,0-9.09,2.42-9.09,9.06,0,3.75,1.9,10.29,5.16,18.88,1.28,3.39,8.1,21.27,9.08,23.87,1.81,4.74,4.31,6,8.21,6,5,0,6.7-1.83,8.75-8.82,1.74-6,4.71-15.68,7.16-21.78v39.66Z"/><path class="cls-2" d="M42.53,172.25v66.33H240.93V172.25Zm140.52,14.43a17.24,17.24,0,0,1,6.26,1.07,16.78,16.78,0,0,1,5.32,3.38l-4.3,6.93a13.3,13.3,0,0,0-3.27-2.55,7.29,7.29,0,0,0-3.26-.69,3.15,3.15,0,0,0-2.21.75,2.54,2.54,0,0,0-.83,2q0,1.85,3.14,3.41c1.1.6,2,1.1,2.8,1.49l1.62.84a9,9,0,0,1,3.3,3.42,9.48,9.48,0,0,1,1.22,4.73,15.06,15.06,0,0,1-.71,5,10.08,10.08,0,0,1-2.41,3.76,12.81,12.81,0,0,1-4.52,2.89,15,15,0,0,1-5.64,1.1c-1,0-1.95,0-2.78-.11a14.63,14.63,0,0,1-2.33-.37,12.46,12.46,0,0,1-2.13-.71,17,17,0,0,1-2.15-1.15,14.21,14.21,0,0,1-2.26-1.57,22,22,0,0,1-1.94-2l4.95-7.39a13.77,13.77,0,0,0,3.93,3.59,8.81,8.81,0,0,0,4.41,1.15,3.66,3.66,0,0,0,2.6-.89,2.9,2.9,0,0,0,1-2.25,2.74,2.74,0,0,0-.9-2,13,13,0,0,0-3.14-2.07,33.43,33.43,0,0,1-4.25-2.52,8.7,8.7,0,0,1-2.28-2.37,9.27,9.27,0,0,1-1-2.23,8.43,8.43,0,0,1-.36-2.38,11.5,11.5,0,0,1,3-8.19,12.09,12.09,0,0,1,4.19-2.91,12.39,12.39,0,0,1,5.05-1.13Zm-88.6,1.07h9.62l-1.86,11.69a6.56,6.56,0,0,1-.19.9l-.23.8a5.24,5.24,0,0,1,.87-.1h11.56l2.12-13.29h9.57l-5.64,35.39h-9.56l1.91-12.27c.07-.42.13-.72.18-.9s.14-.44.24-.8a5.08,5.08,0,0,1-.87.1H100.62l-2.23,13.87H88.83Zm35.94,0H140l-5.69,35.39h-9.57Zm14,0h24.44l-1.33,8.34h-7.39l-4.3,27h-9.57l4-25.45c.07-.43.12-.72.16-.9a4.59,4.59,0,0,1,.26-.79,5.26,5.26,0,0,1-.87.1h-6.77Z"/></g></g></g></g></svg>