<?xml version="1.0" encoding="UTF-8"?>
<svg width="1024" height="973.153" version="1.1" viewBox="0 0 1024 973.153" xmlns="http://www.w3.org/2000/svg">
    <defs/>
    <g transform="matrix(1.02422 0 0 1.02422 -.112024 -25.5335)">
        <path d="m0.109375 975.07h999.782v-950.14h-999.782z" style="fill:#d987ff"/>
        <path d="m841.199 520.754c-4.387 16.219-6.043 28.578-6.418 44.672-0.648 27.539-39.855 38.476-61.586 7.207-17.886-25.735-38.406-117.559-40.808-128.457-9.805-44.531-13.594-60.754-14.828-77.219-1.582-21.102 6.918-33.086 25.66-37.937 19.418-5.028 35.207 4.648 36.777 25.929 2.961 40.008 5.387 71.215 9.246 89.422 1.293 6.094 4.887 8.293 8.738 8.293 5.024 0 7.954-3.5 9.735-7.332 7.344-15.816 26.156-83.316 88.039-161.766v-161.132h-298.652l-102.266 102.265-102.266-102.265h-298.656v524.394h301.941v-180.769l98.973 98.972 98.976-98.972v180.769h40.567c0.406-14.207 0.695-33.125 0.433-41.152-0.371-8.375-0.781-28.512-0.781-39.395 0-60.531 5.301-75.363 5.301-162.601 0-26.086-5.84-32.422-14.258-32.422-9.398 0-33.18 17.871-50.699 30.344-28.09 19.968-43.227 35.882-61.41 35.882-10.739 0-16.864-4.734-23.676-13.453-1.277-1.609-4.895-8.824-4.895-14.566 0-6.449 2.582-15.371 12.481-21.34 10.711-6.445 22.535-5.215 47.926-20.539 30.105-18.172 66.105-39.25 71.898-42.918 10.352-5.438 7.875-13.816 7.887-21.566 0-16.891 15.14-22.731 28.129-22.731 12.457 0 20.187 4.606 22.054 5.453 4.661-2.586 16.778-9.371 39.457-23.359 27.899-17.207 27.418-30.817 44.805-34.543 19.285-4.137 31.5 14.676 31.5 27.816 0 19.715-25.183 31.172-37.875 38.336-35.515 20.059-48.07 28.512-60.726 36.696 0.675 7.906 0.664 26.261 0.679 42.125 0 26.41 7.922 75.707 7.922 103.027 0 32.422-1.351 72.625-1.351 82.625 0 16.125 1.828 34.445 3.328 47.129 0.976 10.379 2.304 27.383 3.039 41.152h190.203v-252.723c-0.332 0.657-0.664 1.305-0.996 1.961-16.461 32.793-37.5 69.192-53.559 124.688"/>
        <g transform="translate(291.927,870.894)">
            <path d="m106.063-158.422v56.625h-64.0474v-56.625h-32.3594v158.422h32.3594v-71.6875h64.0474v71.6875h32.359v-158.422z"/>
        </g>
        <g transform="translate(440.008,870.894)">
            <path d="m26.5156-123.141c10.1094 0 18.4219-8.312 18.4219-18.203 0-10.109-8.3125-18.422-18.4219-18.422-9.8906 0-18.2031 8.313-18.2031 18.422 0 9.891 8.3125 18.203 18.2031 18.203zm-15.2812 123.141h30.5625v-113.25h-30.5625z"/>
        </g>
        <g transform="translate(493.038,870.894)">
            <path d="m83.8125-27.1875h-13.0312c-13.9375 0-18.2032-4.7188-18.2032-17.5313v-41.3437h31.2344v-27.1875h-31.2344v-29.656h-31.4531v29.656h-20.4531v27.1875h20.4531v42.6875c0 31.0156 12.5781 43.375 46.0625 43.375h16.625z"/>
        </g>
        <g transform="translate(582.921,870.894)">
            <path d="m109.875-32.3594c0-49.6562-71-28.0781-71-50.5625 0-6.0625 4.7188-11 17.0781-11 12.3594 0 19.3282 6.2813 21.5625 16.4063l27.2034-5.4063c-3.156-18.6411-17.5315-34.8281-48.5471-34.8281-31 0-47.4063 15.734-47.4063 35.7344 0 49.4375 69.4375 28.0937 69.4375 50.7812 0 6.9688-5.625 11.4531-18.4375 11.4531-14.8281 0-23.5937-6.5156-26.5156-17.5156l-28.9844 6.2813c6.29688 21.7968 23.1407 35.5156 55.5 35.5156 32.8125 0 50.1094-14.6094 50.1094-36.8594z"/>
        </g>
    </g>
</svg>