<svg xmlns="http://www.w3.org/2000/svg" viewBox="0 0 283.46 283.46"><defs><style>.cls-1{fill:#fa2d7a;}.cls-2{fill:#fff;}</style></defs><g id="Layer_2" data-name="Layer 2"><g id="Viacom"><g id="mtvhits"><rect class="cls-1" width="283.46" height="283.46"/><g id="logo"><path class="cls-2" d="M116.86,167.5h9.22V151l-9.22-7.76Z"/><path class="cls-2" d="M140.51,151.53h7.72l2.1-1.75v-6.5Z"/><path class="cls-2" d="M139.76,56.05l-6.17,6.5L116.89,45l21.2,9.31Z"/><path class="cls-2" d="M229.74,90.39V44.89l11.2,6.73V76.54a141.08,141.08,0,0,0-11.2,13.85"/><path class="cls-2" d="M240.94,99.46v68.05h-11.2V117.72a132.31,132.31,0,0,1,11.2-18.26"/><path class="cls-2" d="M182.52,167.5a100.76,100.76,0,0,1-.8-11.35c0-2.42.33-12.11.33-19.92,0-6.59-1.42-18.3-1.42-24.67,0-3.81.29-9-.15-10.83,3.06-2,5.72-3.25,14.14-8.34,2.71-1.65,7.91-4.44,7.91-7.79,0-1.49-.39-2.46-2.5-4.2a7.37,7.37,0,0,0-4.86-1.52c-4.28,0-6.23,4.29-9.82,6.5-5.48,3.35-8.38,5-9.51,5.63a10.88,10.88,0,0,0-5.32-1.33c-3.13,0-6.77,1.42-6.77,5.48,0,1.88.59,3.9-1.91,5.21-1.39.88-8.21,4.77-15.47,9.16-6.12,3.68-9,3.4-11.55,5a5.38,5.38,0,0,0-3,4.78,7.46,7.46,0,0,0,1.17,3.52c1.64,2.1,3.12,3.24,5.71,3.24,4.38,0,8-3.85,14.8-8.66,4.22-3,8.1-6.12,10.37-6.12,2,0,3.43,1.52,3.43,7.81,0,21-1.28,24.37-1.28,39,0,2.64.11,7.48.18,9.51H155.05V133.06l-21.48,18.09L112.1,133.06v34.45H42.52V44.88h67.74l23.31,24.55,23.32-24.55H225V97.32a164.66,164.66,0,0,0-13.16,26.11c-1.44,3.75-2.12,6.47-4,6.47-2.1,0-2.28-2.07-2.48-3.93-.42-4-1.32-11.56-1.75-14.33-.8-5.36-1.87-11-7.85-11-4.45,0-9.09,2.43-9.09,9.07,0,3.75,1.89,10.29,5.15,18.87,1.28,3.4,8.1,21.28,9.08,23.87,1.81,4.74,4.31,6,8.21,6,5,0,6.71-1.83,8.76-8.82,1.74-6,4.7-15.67,7.15-21.77v39.66Z"/><path class="cls-2" d="M42.53,172.25v66.33h198.4V172.25Zm140.53,14.43a17.3,17.3,0,0,1,6.26,1.07,16.68,16.68,0,0,1,5.31,3.38l-4.3,6.93a13.34,13.34,0,0,0-3.26-2.55,7.41,7.41,0,0,0-3.27-.69,3.15,3.15,0,0,0-2.21.75,2.55,2.55,0,0,0-.83,2q0,1.85,3.14,3.41c1.1.6,2,1.09,2.79,1.48s1.31.68,1.62.85a8.9,8.9,0,0,1,3.3,3.42,9.52,9.52,0,0,1,1.21,4.73,15.16,15.16,0,0,1-.71,5,10,10,0,0,1-2.41,3.75,12.9,12.9,0,0,1-4.52,2.9,15.16,15.16,0,0,1-5.64,1.09c-1,0-1.95,0-2.78-.11a14.88,14.88,0,0,1-2.34-.37,12.38,12.38,0,0,1-2.13-.71,17.56,17.56,0,0,1-2.15-1.15,13.54,13.54,0,0,1-2.26-1.57,20.75,20.75,0,0,1-1.94-2l4.95-7.38a13.68,13.68,0,0,0,3.92,3.58,8.78,8.78,0,0,0,4.42,1.15,3.63,3.63,0,0,0,2.6-.89,2.89,2.89,0,0,0,.95-2.25,2.77,2.77,0,0,0-.9-2,13.45,13.45,0,0,0-3.13-2.07,32.63,32.63,0,0,1-4.25-2.52,8.73,8.73,0,0,1-2.29-2.37,9.25,9.25,0,0,1-1-2.23,8.44,8.44,0,0,1-.36-2.38,11.48,11.48,0,0,1,3-8.19,12.06,12.06,0,0,1,4.19-2.92,12.48,12.48,0,0,1,5.06-1.13Zm-88.6,1.07h9.61l-1.86,11.69a6.47,6.47,0,0,1-.19.9l-.23.8a5.09,5.09,0,0,1,.87-.1h11.56l2.12-13.29h9.57l-5.64,35.39h-9.56l1.91-12.27c.08-.42.14-.73.19-.91s.14-.44.24-.79a5.41,5.41,0,0,1-.88.1H100.62l-2.24,13.87H88.83Zm35.94,0H140l-5.69,35.39h-9.57Zm14,0h24.44l-1.33,8.34h-7.39l-4.3,27h-9.57l4.05-25.45c.07-.43.12-.72.16-.9a4.4,4.4,0,0,1,.26-.8,5.19,5.19,0,0,1-.88.1h-6.77Z"/></g></g></g></g></svg>