<svg xmlns="http://www.w3.org/2000/svg" viewBox="0 0 283.46 283.46"><defs><style>.cls-1{fill:#5eff41;}.cls-2{fill:#fff;}</style></defs><title>mtvlive</title><g id="Layer_2" data-name="Layer 2"><g id="Viacom"><g id="mtvlive"><rect class="cls-1" width="283.46" height="283.46"/><g id="logo"><path class="cls-2" d="M182.53,167.5a105.13,105.13,0,0,1-.8-11.36c0-2.41.32-12.1.32-19.91,0-6.59-1.42-18.3-1.42-24.66,0-3.83.28-9-.14-10.84,3-2,5.72-3.24,14.12-8.35,2.73-1.65,7.94-4.43,7.94-7.78,0-1.49-.41-2.46-2.51-4.2a7.29,7.29,0,0,0-4.85-1.52c-4.29,0-6.24,4.29-9.82,6.48-5.49,3.35-8.4,5-9.51,5.64a11.16,11.16,0,0,0-5.32-1.31c-3.14,0-6.79,1.4-6.79,5.48,0,1.86.59,3.88-1.9,5.19-1.4.89-8.22,4.78-15.49,9.16-6.11,3.7-9,3.4-11.55,5a5.41,5.41,0,0,0-3,4.78,7.46,7.46,0,0,0,1.19,3.51c1.65,2.11,3.12,3.24,5.7,3.24,4.4,0,8-3.83,14.81-8.65,4.22-3,8.1-6.13,10.37-6.13,2,0,3.44,1.52,3.44,7.81,0,21-1.3,24.36-1.3,39,0,2.62.11,7.48.19,9.49H155.07V133l-21.47,18.11L112.12,133V167.5H42.52V44.88h67.75l23.32,24.54,23.32-24.54H225V97.3a164.36,164.36,0,0,0-13.16,26.12c-1.46,3.75-2.13,6.47-4,6.47-2.11,0-2.27-2.06-2.48-3.92-.42-4-1.33-11.57-1.75-14.33-.8-5.37-1.86-11-7.85-11-4.45,0-9.09,2.43-9.09,9.05,0,3.75,1.9,10.29,5.15,18.89,1.28,3.39,8.1,21.26,9.09,23.85,1.79,4.75,4.3,6,8.18,6,5,0,6.72-1.83,8.77-8.82,1.74-6,4.7-15.68,7.16-21.76v39.65H182.53Zm58.42-68.06V167.5h-11.2V117.72a131.45,131.45,0,0,1,11.2-18.27m-11.2-9.07V44.88l11.2,6.73V76.52a140.32,140.32,0,0,0-11.2,13.85M139.76,56l-6.16,6.48L116.89,45l21.19,9.3L139.76,56Zm.74,95.49h7.73l2.09-1.75v-6.52l-9.82,8.27Zm-23.64,16h9.21V151l-9.21-7.76Z"/><path class="cls-2" d="M42.52,172.25v66.34H240.33V172.25ZM111.69,222H92.34l5.42-34.15H107l-3.93,24.6-.17.86-.22.77.84-.12H113Zm14.22,0H116.7l5.45-34.15h9.23Zm17.92,0-9.11-34.15h9.83l3,14.58.58,2.71.36,2.11.31,2.06.34,2.57.26,0,.82-2.45.72-2,.79-2,1.1-2.54,6.64-15.11h10.46l-18,34.15Zm48.3-26.29H181.7l-.65,3.72-.17.86-.22.82.84-.1h9.76l-1.32,7.65H179.61l-.65,4-.17.86-.22.77.84-.09h9.67L187.86,222H168.15l5.42-34.15h19.81Z"/></g></g></g></g></svg>