<svg xmlns="http://www.w3.org/2000/svg" viewBox="0 0 283.46 283.46"><defs><style>.cls-1{fill:#5eff41;}.cls-2{fill:#fff;}</style></defs><g id="Layer_2" data-name="Layer 2"><g id="Viacom"><g id="mtvlive"><rect class="cls-1" width="283.46" height="283.46"/><g id="logo"><path class="cls-2" d="M182.53,167.5a103.35,103.35,0,0,1-.8-11.36c0-2.41.32-12.09.32-19.91,0-6.59-1.42-18.3-1.42-24.66,0-3.83.29-9-.14-10.84,3-2,5.72-3.25,14.12-8.35,2.73-1.65,7.94-4.43,7.94-7.78,0-1.49-.41-2.46-2.51-4.2a7.34,7.34,0,0,0-4.86-1.52c-4.29,0-6.24,4.29-9.82,6.48-5.49,3.35-8.39,5-9.51,5.64a11.17,11.17,0,0,0-5.32-1.31c-3.13,0-6.78,1.4-6.78,5.47,0,1.86.58,3.88-1.9,5.19-1.4.89-8.22,4.79-15.48,9.16-6.12,3.7-9,3.41-11.55,5a5.42,5.42,0,0,0-3,4.79,7.47,7.47,0,0,0,1.18,3.5c1.65,2.11,3.12,3.25,5.71,3.25,4.39,0,8-3.83,14.81-8.65,4.22-3,8.1-6.13,10.36-6.13,2,0,3.44,1.53,3.44,7.81,0,21-1.29,24.37-1.29,39,0,2.62.1,7.47.19,9.49H155.07V133l-21.48,18.11L112.12,133V167.5H42.52V44.88h67.75l23.32,24.53,23.32-24.53H225V97.3a164.48,164.48,0,0,0-13.16,26.12c-1.45,3.75-2.13,6.46-4,6.46-2.11,0-2.27-2-2.48-3.91-.43-4-1.33-11.57-1.76-14.34-.79-5.37-1.86-11-7.84-11-4.45,0-9.09,2.42-9.09,9.05,0,3.75,1.89,10.29,5.15,18.89,1.28,3.38,8.1,21.26,9.09,23.84,1.79,4.75,4.31,6.05,8.18,6.05,5,0,6.72-1.83,8.78-8.83,1.73-5.95,4.69-15.68,7.15-21.76v39.65H182.53Zm58.41-68V167.5H229.75V117.72a131.81,131.81,0,0,1,11.19-18.27m-11.19-9.07V44.88l11.19,6.73V76.52a139.51,139.51,0,0,0-11.19,13.86M139.76,56l-6.17,6.49L116.89,45l21.19,9.3L139.76,56Zm.74,95.5h7.73l2.09-1.76v-6.52l-9.82,8.28Zm-23.63,16h9.21V151l-9.21-7.76Z"/><path class="cls-2" d="M42.52,172.25v66.34H240.33V172.25ZM111.69,222H92.34l5.42-34.15H107l-3.93,24.61-.17.86-.22.77.84-.12H113Zm14.22,0H116.7l5.45-34.15h9.23Zm17.92,0-9.11-34.15h9.83l3,14.58.57,2.71.37,2.11.31,2.07.33,2.56.27,0,.81-2.45.72-2,.79-2,1.11-2.54,6.64-15.11H170l-18,34.15Zm48.3-26.28H181.7l-.65,3.71-.17.87-.21.81.83-.09h9.77L190,208.66H179.61l-.65,4-.16.86-.22.77.84-.1h9.67L187.86,222H168.15l5.42-34.15h19.81Z"/></g></g></g></g></svg>