<svg xmlns="http://www.w3.org/2000/svg" viewBox="0 0 283.46 283.46"><defs><style>.cls-1{fill:#2bd16c;}.cls-2{fill:#fff;}</style></defs><title>mtvmusic</title><g id="Layer_2" data-name="Layer 2"><g id="Viacom"><g id="mtvmusic"><rect class="cls-1" width="283.46" height="283.46"/><g id="logo"><path class="cls-2" d="M116.86,167.51h9.22V151l-9.22-7.76Z"/><path class="cls-2" d="M140.51,151.53h7.72l2.09-1.75v-6.5Z"/><path class="cls-2" d="M139.76,56.05l-6.18,6.5L116.89,45l21.2,9.31Z"/><path class="cls-2" d="M229.74,90.39V44.89l11.2,6.73V76.54a139.79,139.79,0,0,0-11.2,13.85"/><path class="cls-2" d="M240.94,99.46v68.05h-11.2V117.72a132.88,132.88,0,0,1,11.2-18.26"/><path class="cls-2" d="M182.52,167.51a102.07,102.07,0,0,1-.8-11.36c0-2.41.33-12.11.33-19.92,0-6.59-1.42-18.3-1.42-24.66,0-3.82.29-9-.15-10.83,3.06-2,5.71-3.25,14.13-8.34,2.72-1.65,7.92-4.44,7.92-7.79,0-1.49-.39-2.46-2.5-4.2a7.36,7.36,0,0,0-4.86-1.52c-4.28,0-6.23,4.29-9.82,6.5-5.48,3.35-8.38,5-9.5,5.63a11,11,0,0,0-5.33-1.33c-3.13,0-6.77,1.42-6.77,5.48,0,1.87.59,3.89-1.91,5.21-1.39.88-8.21,4.77-15.47,9.15-6.12,3.69-9,3.4-11.55,5a5.4,5.4,0,0,0-3,4.78,7.43,7.43,0,0,0,1.17,3.52c1.64,2.1,3.12,3.23,5.71,3.23,4.38,0,8-3.84,14.8-8.65,4.22-3,8.1-6.12,10.37-6.12,2,0,3.43,1.52,3.43,7.81,0,21-1.28,24.37-1.28,39,0,2.63.11,7.48.18,9.5H155.05V133.06l-21.48,18.09L112.1,133.06v34.45H42.52V44.88h67.74l23.31,24.55,23.32-24.55H225V97.32a165.34,165.34,0,0,0-13.16,26.11c-1.44,3.75-2.12,6.47-4,6.47-2.1,0-2.28-2.06-2.47-3.93-.42-4-1.33-11.55-1.75-14.32-.8-5.36-1.87-11-7.85-11-4.45,0-9.09,2.42-9.09,9.06,0,3.75,1.9,10.29,5.16,18.88,1.28,3.39,8.1,21.27,9.08,23.87,1.81,4.74,4.31,6,8.21,6,5,0,6.7-1.83,8.75-8.82,1.74-6,4.71-15.68,7.16-21.78v39.66Z"/><path class="cls-2" d="M42.53,172.26v66.33H240.92V172.26Zm118.66,14.42a17.36,17.36,0,0,1,6.27,1.07,16.86,16.86,0,0,1,5.31,3.38l-4.3,6.93a13.1,13.1,0,0,0-3.26-2.55,7.29,7.29,0,0,0-3.27-.68,3.15,3.15,0,0,0-2.21.74,2.55,2.55,0,0,0-.82,2q0,1.85,3.14,3.41c1.1.6,2,1.1,2.8,1.49s1.31.67,1.62.85a8.88,8.88,0,0,1,3.3,3.41,9.53,9.53,0,0,1,1.23,4.73,15.14,15.14,0,0,1-.72,5,10.13,10.13,0,0,1-2.41,3.76,12.9,12.9,0,0,1-4.51,2.89,15.1,15.1,0,0,1-5.64,1.1c-1,0-2,0-2.78-.11a14.55,14.55,0,0,1-2.34-.37,12.81,12.81,0,0,1-2.13-.71,17,17,0,0,1-2.15-1.15,14.22,14.22,0,0,1-2.26-1.57,22,22,0,0,1-1.94-2l4.94-7.39a13.71,13.71,0,0,0,3.94,3.59,8.74,8.74,0,0,0,4.4,1.15,3.64,3.64,0,0,0,2.6-.89,2.9,2.9,0,0,0,1-2.25,2.76,2.76,0,0,0-.9-2,13.22,13.22,0,0,0-3.15-2.07,32.49,32.49,0,0,1-4.24-2.52,8.82,8.82,0,0,1-2.29-2.36,9.1,9.1,0,0,1-1-2.24,8,8,0,0,1-.37-2.38,11.55,11.55,0,0,1,3-8.19,12.15,12.15,0,0,1,4.19-2.91,12.43,12.43,0,0,1,5.06-1.13Zm45.6.16a20.89,20.89,0,0,1,11.32,2.82l-1.49,9.67a12.23,12.23,0,0,0-4.27-2.85,14,14,0,0,0-5.4-1,9.4,9.4,0,0,0-4,.82,8.92,8.92,0,0,0-3.12,2.31,10.45,10.45,0,0,0-2,3.56,13.78,13.78,0,0,0-.73,4.57,8.59,8.59,0,0,0,2.53,6.63c1.69,1.56,4.1,2.34,7.25,2.34a13.81,13.81,0,0,0,3.77-.5,16.57,16.57,0,0,0,3.61-1.57l-1.43,8.92a10.35,10.35,0,0,1-3.4,1.15,28.93,28.93,0,0,1-5.11.39,19.83,19.83,0,0,1-7.09-1.19,14.55,14.55,0,0,1-8.76-8.73,19.65,19.65,0,0,1-1.19-7.08,21.9,21.9,0,0,1,1.52-8.15,19.45,19.45,0,0,1,4.38-6.72,18.29,18.29,0,0,1,13.6-5.37Zm-130.13.91H87.24l2,9.57c.21,1.07.39,1.95.53,2.65s.26,1.39.37,2,.2,1.31.29,2,.18,1.53.29,2.53l.26,0,.9-2.39c.25-.65.5-1.25.77-1.83s.55-1.22.88-1.89.72-1.49,1.22-2.45l5.11-10.26h10.47l1.59,35.39h-9.62l-.21-11.53v-5.9c0-.39,0-1.14.11-2.26s.16-2.32.26-3.64l-.26-.05-1.2,3c-.34.84-.67,1.62-1,2.36l-1.09,2.36c-.39.83-.89,1.86-1.49,3.06l-6.32,12.59h-4.9L83.74,211.5q-.42-1.85-.66-3.15c-.16-.88-.3-1.7-.42-2.5s-.24-1.62-.34-2.47-.23-1.89-.38-3.13h-.31c-.25,1.2-.46,2.23-.64,3.08s-.36,1.66-.58,2.42-.44,1.57-.69,2.41-.56,1.9-1,3.14l-3.67,11.85H65.35Zm40.87,0h9.67l-3.3,20.72a9.65,9.65,0,0,0-.13,1.23c0,.42,0,.83,0,1.22q0,4.42,4.68,4.41a7.79,7.79,0,0,0,2.68-.42,4.87,4.87,0,0,0,2-1.36,7.21,7.21,0,0,0,1.36-2.44,24.23,24.23,0,0,0,.91-3.7l3.18-19.66h9.57l-3.51,22a20.76,20.76,0,0,1-3.67,9.25,11.62,11.62,0,0,1-5,3.88,21.9,21.9,0,0,1-7.81,1.16,20.07,20.07,0,0,1-6.59-1,12.3,12.3,0,0,1-4.79-2.87q-2.76-2.82-2.76-8.13c0-.77,0-1.58.11-2.41a24.45,24.45,0,0,1,.32-2.47Zm60.19,0h9.62l-5.69,35.39h-9.57Z"/></g></g></g></g></svg>