<svg xmlns="http://www.w3.org/2000/svg" viewBox="0 0 283.46 283.46"><defs><style>.cls-1{fill:#2bd16c;}.cls-2{fill:#fff;}</style></defs><g id="Layer_2" data-name="Layer 2"><g id="Viacom"><g id="mtvmusic"><rect class="cls-1" width="283.46" height="283.46"/><g id="logo"><path class="cls-2" d="M116.86,167.51h9.22V151l-9.22-7.76Z"/><path class="cls-2" d="M140.51,151.53h7.72l2.1-1.75v-6.5Z"/><path class="cls-2" d="M139.76,56.05l-6.17,6.5L116.89,45l21.2,9.31Z"/><path class="cls-2" d="M229.74,90.39V44.89l11.2,6.73V76.54a141.08,141.08,0,0,0-11.2,13.85"/><path class="cls-2" d="M240.94,99.46v68.05h-11.2V117.72a132.31,132.31,0,0,1,11.2-18.26"/><path class="cls-2" d="M182.52,167.51a101.12,101.12,0,0,1-.8-11.36c0-2.42.33-12.11.33-19.92,0-6.59-1.42-18.3-1.42-24.67,0-3.81.29-9-.15-10.83,3.06-2,5.72-3.25,14.14-8.34,2.71-1.65,7.91-4.43,7.91-7.79,0-1.49-.39-2.46-2.5-4.2a7.37,7.37,0,0,0-4.86-1.52c-4.28,0-6.23,4.29-9.82,6.5-5.48,3.35-8.38,5-9.51,5.63a10.92,10.92,0,0,0-5.32-1.32c-3.13,0-6.77,1.41-6.77,5.47,0,1.88.59,3.9-1.91,5.21-1.39.88-8.21,4.77-15.47,9.16-6.12,3.69-9,3.4-11.55,5a5.38,5.38,0,0,0-3,4.78,7.46,7.46,0,0,0,1.17,3.52c1.64,2.1,3.12,3.24,5.71,3.24,4.38,0,8-3.85,14.8-8.65,4.22-3,8.1-6.13,10.37-6.13,2,0,3.43,1.52,3.43,7.81,0,21-1.28,24.37-1.28,39,0,2.64.11,7.48.18,9.51H155.05V133.06l-21.48,18.09L112.1,133.06v34.45H42.52V44.88h67.74l23.31,24.55,23.32-24.55H225V97.32a164.66,164.66,0,0,0-13.16,26.11c-1.44,3.75-2.12,6.47-4,6.47-2.1,0-2.28-2.07-2.48-3.93-.42-4-1.32-11.56-1.75-14.33-.8-5.36-1.87-11-7.85-11-4.45,0-9.09,2.43-9.09,9.07,0,3.75,1.89,10.29,5.15,18.87,1.28,3.4,8.1,21.28,9.08,23.87,1.81,4.74,4.31,6,8.21,6,5,0,6.71-1.83,8.76-8.82,1.74-6,4.7-15.67,7.15-21.77v39.66Z"/><path class="cls-2" d="M42.53,172.26v66.32H240.92V172.26Zm118.66,14.42a17.18,17.18,0,0,1,6.27,1.07,16.79,16.79,0,0,1,5.31,3.38l-4.3,6.93a12.93,12.93,0,0,0-3.27-2.55,7.22,7.22,0,0,0-3.27-.69,3.14,3.14,0,0,0-2.21.75,2.54,2.54,0,0,0-.82,2c0,1.23,1,2.37,3.13,3.4,1.1.61,2,1.1,2.8,1.49s1.31.68,1.62.86a8.82,8.82,0,0,1,3.29,3.4,9.49,9.49,0,0,1,1.23,4.74,15.12,15.12,0,0,1-.72,5,10.18,10.18,0,0,1-2.42,3.76,12.84,12.84,0,0,1-4.51,2.89,15.05,15.05,0,0,1-5.64,1.1c-1,0-2,0-2.78-.11a14.51,14.51,0,0,1-2.34-.37,12.42,12.42,0,0,1-2.13-.72,16.1,16.1,0,0,1-2.15-1.14,14.35,14.35,0,0,1-2.26-1.57,22,22,0,0,1-2-2l5-7.39a13.65,13.65,0,0,0,3.94,3.59,8.78,8.78,0,0,0,4.4,1.15,3.64,3.64,0,0,0,2.6-.89,2.88,2.88,0,0,0,1-2.25,2.75,2.75,0,0,0-.9-2,13.24,13.24,0,0,0-3.14-2.07,32.86,32.86,0,0,1-4.24-2.52,8.85,8.85,0,0,1-2.29-2.36,9.29,9.29,0,0,1-1-2.24,8.13,8.13,0,0,1-.37-2.39,11.55,11.55,0,0,1,3-8.19,12.26,12.26,0,0,1,4.19-2.91,12.51,12.51,0,0,1,5.06-1.13Zm45.61.16a20.89,20.89,0,0,1,11.31,2.82l-1.48,9.67a12.34,12.34,0,0,0-4.28-2.86,14,14,0,0,0-5.39-1,9.42,9.42,0,0,0-4,.82,9,9,0,0,0-3.12,2.31,10.75,10.75,0,0,0-2,3.56,13.86,13.86,0,0,0-.72,4.57,8.61,8.61,0,0,0,2.52,6.64c1.69,1.56,4.1,2.34,7.26,2.34a13.85,13.85,0,0,0,3.77-.5,17.12,17.12,0,0,0,3.61-1.57l-1.43,8.92a10.42,10.42,0,0,1-3.4,1.15,29.36,29.36,0,0,1-5.11.39,19.86,19.86,0,0,1-7.09-1.19,14.55,14.55,0,0,1-8.77-8.74,19.69,19.69,0,0,1-1.19-7.08,21.81,21.81,0,0,1,1.52-8.14,19.35,19.35,0,0,1,4.38-6.73,18.3,18.3,0,0,1,13.6-5.37Zm-130.13.91H87.24l2,9.57c.21,1.06.39,1.94.54,2.65s.26,1.38.37,2,.2,1.31.29,2,.18,1.53.29,2.53l.26.05.9-2.39c.26-.65.51-1.25.78-1.83s.55-1.21.87-1.89.73-1.49,1.22-2.44l5.11-10.26h10.47l1.59,35.39h-9.62l-.21-11.53v-5.9c0-.39,0-1.14.11-2.26s.16-2.32.26-3.64l-.26-.05-1.2,3c-.34.84-.67,1.62-1,2.37s-.71,1.52-1.1,2.36-.88,1.86-1.49,3l-6.32,12.6H86.18L83.74,211.5c-.29-1.24-.51-2.29-.67-3.16s-.3-1.7-.42-2.5-.24-1.62-.34-2.47-.23-1.89-.38-3.13h-.32c-.25,1.21-.46,2.23-.64,3.08s-.36,1.65-.58,2.42-.44,1.57-.69,2.41-.57,1.9-1,3.14l-3.67,11.85H65.35Zm40.87,0h9.66l-3.29,20.72a9.46,9.46,0,0,0-.13,1.23c0,.42,0,.82,0,1.22,0,2.94,1.55,4.41,4.68,4.41a7.53,7.53,0,0,0,2.68-.43,4.81,4.81,0,0,0,2-1.35,7.2,7.2,0,0,0,1.36-2.44,25.34,25.34,0,0,0,.91-3.7l3.18-19.66h9.57l-3.51,22a20.66,20.66,0,0,1-3.67,9.24,11.55,11.55,0,0,1-5,3.88,21.78,21.78,0,0,1-7.81,1.17,19.91,19.91,0,0,1-6.59-1,12.38,12.38,0,0,1-4.79-2.87q-2.76-2.82-2.76-8.13c0-.78,0-1.58.11-2.41s.17-1.66.32-2.48Zm60.18,0h9.62l-5.69,35.39h-9.57Z"/></g></g></g></g></svg>