<svg xmlns="http://www.w3.org/2000/svg" viewBox="0 0 283.46 283.46"><defs><style>.cls-1{fill:#e8f846;}.cls-2{fill:#fff;}</style></defs><title>mtvrocks</title><g id="Layer_2" data-name="Layer 2"><g id="Viacom"><g id="mtvrocks"><rect class="cls-1" width="283.46" height="283.46"/><g id="logo"><path class="cls-2" d="M42.52,172.25v66.34H240.93V172.25Zm169,14.42a17.36,17.36,0,0,1,6.27,1.06,16.8,16.8,0,0,1,5.32,3.38L218.77,198a13.28,13.28,0,0,0-3.26-2.55,7.27,7.27,0,0,0-3.26-.7,3.23,3.23,0,0,0-2.22.75,2.57,2.57,0,0,0-.81,2q0,1.86,3.13,3.4c1.1.61,2,1.11,2.79,1.5s1.32.67,1.62.85a8.88,8.88,0,0,1,3.29,3.4,9.45,9.45,0,0,1,1.23,4.73,14.76,14.76,0,0,1-.72,5,9.93,9.93,0,0,1-2.41,3.76,12.66,12.66,0,0,1-4.51,2.89,15.11,15.11,0,0,1-5.63,1.1c-1,0-2,0-2.78-.1a16,16,0,0,1-2.35-.37,13.63,13.63,0,0,1-2.11-.72,16,16,0,0,1-2.17-1.13,13.87,13.87,0,0,1-2.26-1.57,20.6,20.6,0,0,1-1.93-2l4.94-7.39a13.89,13.89,0,0,0,3.93,3.58,8.82,8.82,0,0,0,4.41,1.15,3.7,3.7,0,0,0,2.6-.88,3,3,0,0,0,1-2.26,2.74,2.74,0,0,0-.9-2,13.62,13.62,0,0,0-3.13-2.08,29.9,29.9,0,0,1-4.24-2.51,8.68,8.68,0,0,1-2.28-2.37,8.57,8.57,0,0,1-1-2.23,8.27,8.27,0,0,1-.37-2.39,11.51,11.51,0,0,1,3-8.19,12.27,12.27,0,0,1,4.19-2.93,12.7,12.7,0,0,1,5.05-1.11Zm-98.4.1a22.59,22.59,0,0,1,7.41,1.08,14.1,14.1,0,0,1,5.45,3.49,16.13,16.13,0,0,1,3.64,5.76,20.42,20.42,0,0,1,1.25,7.19,21,21,0,0,1-1.07,6.41,20.33,20.33,0,0,1-2.93,5.87,16.9,16.9,0,0,1-7.12,5.61,24.87,24.87,0,0,1-10.15,2,17.9,17.9,0,0,1-7.67-1.61,16.73,16.73,0,0,1-6-4.81,15.88,15.88,0,0,1-2.8-5,18.66,18.66,0,0,1-.88-5.94,20.35,20.35,0,0,1,4-12.65q5.74-7.45,16.89-7.44Zm39.78.05a20.79,20.79,0,0,1,11.32,2.82l-1.48,9.67a12.4,12.4,0,0,0-4.28-2.87,14.12,14.12,0,0,0-5.39-1,9.38,9.38,0,0,0-4,.82,8.87,8.87,0,0,0-3.11,2.31,10.47,10.47,0,0,0-2,3.56,13.89,13.89,0,0,0-.71,4.56,8.59,8.59,0,0,0,2.51,6.64c1.69,1.57,4.1,2.35,7.26,2.35a13.56,13.56,0,0,0,3.76-.5,16.69,16.69,0,0,0,3.62-1.57l-1.44,8.92a10.05,10.05,0,0,1-3.4,1.15,28,28,0,0,1-5.09.4,19.91,19.91,0,0,1-7.09-1.2,14.78,14.78,0,0,1-5.38-3.39,15,15,0,0,1-3.39-5.35,19.61,19.61,0,0,1-1.2-7.07,21.89,21.89,0,0,1,1.52-8.15,19.58,19.58,0,0,1,4.37-6.73,18.36,18.36,0,0,1,13.6-5.36Zm-86.81.9h12Q91,187.72,91,198.25a10.91,10.91,0,0,1-2.44,7.36,11.22,11.22,0,0,1-7,3.58c.17.28.32.52.44.7s.26.35.37.53a6.4,6.4,0,0,1,.37.58l.45.8,6.64,11.32H78.81l-3.61-7.49c-.39-.81-.72-1.51-1-2.08L73.49,212c-.22-.5-.41-1-.62-1.6s-.43-1.26-.71-2.08l-.27.05c0,.85-.06,1.57-.1,2.18s-.08,1.19-.16,1.73-.15,1.12-.24,1.73-.21,1.34-.34,2.23l-1.12,6.91H60.37Zm103,0h9.62l-1.17,7.17c-.14.93-.26,1.7-.36,2.32s-.23,1.2-.36,1.75-.26,1.11-.41,1.69c-.05.17-.1.37-.16.55l.19.08c.53-.67,1-1.25,1.33-1.75a15.07,15.07,0,0,1,1.08-1.38l1.2-1.35c.43-.49,1-1.06,1.6-1.73l6.77-7.35h12.12l-17.43,17.65,12,17.74H183.76l-5.08-8.24c-.43-.68-.76-1.25-1-1.73l-.75-1.37c-.23-.43-.46-.86-.72-1.32s-.53-1-.84-1.7h-.21c0,.05,0,.12,0,.15,0,.54-.08,1-.14,1.52s-.12,1-.21,1.55-.18,1.21-.3,2L173,223.12h-9.57Zm-56.55,7.55a9.36,9.36,0,0,0-4,.85,9.72,9.72,0,0,0-3.18,2.36,11.21,11.21,0,0,0-2.13,3.62,12.71,12.71,0,0,0-.77,4.54,7.6,7.6,0,0,0,4.78,7.79,9.09,9.09,0,0,0,3.56.71,9.32,9.32,0,0,0,7.16-3.21,11.2,11.2,0,0,0,2-3.58,13.63,13.63,0,0,0,.75-4.58,8.63,8.63,0,0,0-2.17-6.27,8,8,0,0,0-6-2.23Zm-38.22.59-.8,5.26c-.06.39-.13.68-.18.88l-.23.83a4.67,4.67,0,0,1,.88-.12h2.57q4.31,0,4.31-3.76c0-2.06-1.17-3.08-3.51-3.08Z"/><path class="cls-2" d="M116.85,167.51h9.22V151l-9.22-7.76Z"/><path class="cls-2" d="M140.5,151.53h7.72l2.09-1.75v-6.5Z"/><path class="cls-2" d="M139.75,56l-6.18,6.5L116.87,45l21.2,9.31Z"/><path class="cls-2" d="M229.74,90.38V44.88l11.2,6.73V76.53a140,140,0,0,0-11.2,13.85"/><path class="cls-2" d="M240.94,99.45v68.05h-11.2v-49.8a132.9,132.9,0,0,1,11.2-18.26"/><path class="cls-2" d="M182.52,167.51a103.19,103.19,0,0,1-.8-11.36c0-2.41.32-12.11.32-19.92,0-6.59-1.42-18.3-1.42-24.67,0-3.82.28-9-.14-10.83,3.06-2,5.72-3.25,14.13-8.34,2.72-1.65,7.92-4.44,7.92-7.79,0-1.5-.39-2.46-2.5-4.2a7.29,7.29,0,0,0-4.86-1.52c-4.28,0-6.23,4.29-9.81,6.5-5.49,3.35-8.39,5-9.52,5.62a11.34,11.34,0,0,0-5.33-1.32c-3.13,0-6.77,1.42-6.77,5.48,0,1.87.59,3.89-1.91,5.21-1.39.88-8.21,4.77-15.47,9.15-6.12,3.69-9,3.39-11.55,5a5.41,5.41,0,0,0-3,4.78,7.39,7.39,0,0,0,1.17,3.51c1.64,2.1,3.12,3.25,5.71,3.25,4.38,0,8-3.84,14.8-8.65,4.22-3,8.1-6.12,10.37-6.12,2,0,3.43,1.52,3.43,7.81,0,21-1.28,24.37-1.28,39,0,2.63.1,7.48.19,9.5H155.06V133.05l-21.48,18.09-21.47-18.09v34.45H42.52V44.87h67.74l23.31,24.55L156.9,44.87H225V97.31a165.27,165.27,0,0,0-13.16,26.11c-1.44,3.75-2.11,6.47-4,6.47-2.1,0-2.28-2.06-2.48-3.93-.43-4-1.33-11.55-1.74-14.33-.81-5.36-1.88-11-7.87-11-4.44,0-9.09,2.44-9.09,9.08,0,3.75,1.9,10.29,5.16,18.88,1.28,3.39,8.1,21.27,9.09,23.87,1.79,4.74,4.29,6,8.19,6,5,0,6.72-1.83,8.77-8.82,1.74-6,4.71-15.68,7.16-21.78v39.66Z"/></g></g></g></g></svg>