<svg xmlns="http://www.w3.org/2000/svg" viewBox="0 0 283.46 283.46"><defs><style>.cls-1{fill:#e8f846;}.cls-2{fill:#fff;}</style></defs><title>mtvrocks</title><g id="Layer_2" data-name="Layer 2"><g id="Viacom"><g id="mtvrocks"><rect class="cls-1" width="283.46" height="283.46"/><g id="logo"><path class="cls-2" d="M42.52,172.25v66.34H240.93V172.25Zm169,14.42a17.3,17.3,0,0,1,6.26,1.05,16.87,16.87,0,0,1,5.33,3.38L218.77,198a13.15,13.15,0,0,0-3.26-2.55,7.25,7.25,0,0,0-3.27-.7,3.2,3.2,0,0,0-2.21.75,2.54,2.54,0,0,0-.82,2q0,1.86,3.14,3.4c1.09.61,2,1.11,2.78,1.5s1.32.67,1.63.85a8.86,8.86,0,0,1,3.28,3.4,9.44,9.44,0,0,1,1.23,4.74,14.7,14.7,0,0,1-.72,5,10.06,10.06,0,0,1-2.41,3.77,12.79,12.79,0,0,1-4.52,2.89,15.15,15.15,0,0,1-5.63,1.09c-1,0-2,0-2.79-.1a16.36,16.36,0,0,1-2.34-.37,13.27,13.27,0,0,1-2.12-.73,15.54,15.54,0,0,1-2.16-1.13,14.16,14.16,0,0,1-2.26-1.57,20.76,20.76,0,0,1-1.93-2l4.93-7.39a13.91,13.91,0,0,0,3.94,3.59,8.81,8.81,0,0,0,4.41,1.14,3.7,3.7,0,0,0,2.6-.87,3,3,0,0,0,.95-2.26,2.71,2.71,0,0,0-.9-2,13.61,13.61,0,0,0-3.13-2.08,29.26,29.26,0,0,1-4.24-2.51,8.81,8.81,0,0,1-2.28-2.37,8.39,8.39,0,0,1-1-2.23,8.21,8.21,0,0,1-.38-2.39,11.54,11.54,0,0,1,3-8.19,12.19,12.19,0,0,1,4.19-2.92,12.61,12.61,0,0,1,5.06-1.11Zm-98.41.1a22.59,22.59,0,0,1,7.41,1.08,14.14,14.14,0,0,1,5.46,3.5,16.11,16.11,0,0,1,3.64,5.76,20.59,20.59,0,0,1,1.25,7.2,21.24,21.24,0,0,1-1.07,6.4,20.3,20.3,0,0,1-2.93,5.87,16.93,16.93,0,0,1-7.12,5.61,24.81,24.81,0,0,1-10.15,2,17.81,17.81,0,0,1-7.67-1.61,16.65,16.65,0,0,1-6-4.81,15.76,15.76,0,0,1-2.8-4.95,18.65,18.65,0,0,1-.88-5.94,20.33,20.33,0,0,1,4-12.65q5.74-7.44,16.89-7.44Zm39.78,0a20.75,20.75,0,0,1,11.32,2.83l-1.48,9.67a12.43,12.43,0,0,0-4.29-2.88,14.1,14.1,0,0,0-5.39-1,9.45,9.45,0,0,0-4,.83,8.85,8.85,0,0,0-3.11,2.31,10.6,10.6,0,0,0-2,3.56,13.8,13.8,0,0,0-.71,4.56,8.61,8.61,0,0,0,2.51,6.64c1.69,1.57,4.1,2.35,7.26,2.35a13.8,13.8,0,0,0,3.77-.5,17,17,0,0,0,3.62-1.58l-1.44,8.92a10,10,0,0,1-3.41,1.15,28,28,0,0,1-5.09.4,19.86,19.86,0,0,1-7.09-1.2,14.66,14.66,0,0,1-5.38-3.39,15,15,0,0,1-3.39-5.35,19.58,19.58,0,0,1-1.2-7.06,21.82,21.82,0,0,1,1.52-8.15,19.71,19.71,0,0,1,4.37-6.73,18.35,18.35,0,0,1,13.61-5.37Zm-86.82.9h12Q91,187.72,91,198.25a11,11,0,0,1-2.44,7.36,11.26,11.26,0,0,1-7,3.58c.17.29.32.52.44.7l.37.53a4.79,4.79,0,0,1,.37.58c.13.22.27.47.45.8l6.65,11.32h-11l-3.61-7.49c-.39-.82-.73-1.51-1-2.08s-.5-1.1-.72-1.59-.41-1-.62-1.59-.42-1.27-.71-2.08l-.27.05c0,.85-.06,1.57-.1,2.18s-.08,1.19-.15,1.73-.16,1.12-.25,1.73-.2,1.34-.33,2.23l-1.13,6.91H60.37Zm103,0h9.62l-1.17,7.17c-.14.93-.26,1.7-.36,2.32s-.24,1.2-.36,1.76-.26,1.11-.42,1.69c-.05.16-.1.37-.15.55l.19.08c.53-.67,1-1.25,1.33-1.75a14.38,14.38,0,0,1,1.08-1.38l1.2-1.36c.43-.49,1-1.06,1.6-1.73l6.77-7.35h12.12l-17.43,17.66L195,223.12H183.76l-5.08-8.24c-.43-.68-.76-1.25-1-1.73l-.75-1.37c-.23-.42-.46-.86-.72-1.31s-.53-1-.84-1.7h-.21s0,.11,0,.15c0,.54-.08,1.05-.14,1.52s-.12,1-.21,1.55-.18,1.21-.29,2L173,223.12h-9.56Zm-56.55,7.55a9.45,9.45,0,0,0-4,.85,9.89,9.89,0,0,0-3.19,2.36,11.14,11.14,0,0,0-2.12,3.63,12.65,12.65,0,0,0-.78,4.53,7.6,7.6,0,0,0,4.79,7.79,9,9,0,0,0,3.55.71,9.33,9.33,0,0,0,7.16-3.21,11.3,11.3,0,0,0,2-3.58,13.66,13.66,0,0,0,.75-4.58,8.67,8.67,0,0,0-2.17-6.27,8,8,0,0,0-6-2.23Zm-38.22.59-.8,5.26c-.06.39-.13.68-.18.88s-.13.46-.23.82a4.33,4.33,0,0,1,.88-.11h2.56c2.88,0,4.31-1.26,4.31-3.77,0-2.06-1.18-3.08-3.51-3.08Z"/><path class="cls-2" d="M116.85,167.51h9.22V151l-9.22-7.76Z"/><path class="cls-2" d="M140.5,151.53h7.72l2.09-1.75v-6.5Z"/><path class="cls-2" d="M139.75,56l-6.18,6.5L116.87,45l21.2,9.31Z"/><path class="cls-2" d="M229.74,90.38V44.88l11.2,6.73V76.53a141.08,141.08,0,0,0-11.2,13.85"/><path class="cls-2" d="M240.94,99.45v68.06H229.73v-49.8a133.33,133.33,0,0,1,11.21-18.26"/><path class="cls-2" d="M182.52,167.51a103.54,103.54,0,0,1-.8-11.36c0-2.41.32-12.11.32-19.92,0-6.59-1.42-18.3-1.42-24.67,0-3.82.29-9-.14-10.83,3.06-2,5.73-3.25,14.13-8.34,2.72-1.65,7.92-4.44,7.92-7.79,0-1.5-.39-2.46-2.5-4.2a7.27,7.27,0,0,0-4.86-1.52c-4.28,0-6.23,4.29-9.81,6.49-5.5,3.36-8.4,5-9.52,5.63a11.23,11.23,0,0,0-5.33-1.32c-3.13,0-6.76,1.42-6.76,5.48,0,1.87.59,3.89-1.91,5.21-1.4.88-8.22,4.77-15.48,9.15-6.12,3.69-9,3.4-11.55,5a5.4,5.4,0,0,0-3,4.78,7.42,7.42,0,0,0,1.17,3.51c1.64,2.1,3.12,3.25,5.71,3.25,4.39,0,8-3.85,14.81-8.66,4.21-3,8.09-6.12,10.36-6.12,2,0,3.43,1.52,3.43,7.81,0,21-1.27,24.37-1.27,39,0,2.63.1,7.48.19,9.51H155.06V133.05l-21.49,18.09-21.46-18.09v34.46H42.52V44.87h67.74l23.31,24.55L156.9,44.87H225V97.31a165.59,165.59,0,0,0-13.16,26.11c-1.45,3.76-2.12,6.48-4,6.48-2.1,0-2.28-2.07-2.47-3.94-.43-4-1.33-11.55-1.74-14.32-.81-5.37-1.88-11-7.87-11-4.43,0-9.09,2.44-9.09,9.08,0,3.75,1.9,10.28,5.16,18.87,1.28,3.39,8.1,21.28,9.09,23.87,1.79,4.74,4.29,6,8.19,6,5,0,6.72-1.83,8.77-8.82,1.74-6,4.7-15.68,7.15-21.77v39.66Z"/></g></g></g></g></svg>