<svg xmlns="http://www.w3.org/2000/svg" viewBox="0 0 283.46 283.46"><defs><style>.cls-1{fill:#fc0;}</style></defs><g id="Layer_2" data-name="Layer 2"><g id="National_Geographic" data-name="National Geographic"><g id="natgeowild"><rect class="cls-1" width="283.46" height="283.46"/><g id="logo"><path d="M67.69,125.41h-21V91.86h21ZM42.52,129.6H71.88V87.66H42.52Z"/><path d="M92.86,106.62H91c-2.39-3.37-4.75-6.72-7.12-10.51h0v10.51h-2V92h1.82c2.39,3.35,4.75,6.67,7.1,10.44h0V92h2Z"/><path d="M98.59,92l-5.06,14.65h2.18l1.27-4h4.42l1.15,4h2.8L100.69,92Zm-1,8.85c.58-1.92,1.17-3.7,1.7-6h0c.58,2.26,1.11,4,1.65,6Z"/><path d="M103.87,92h10.21v2h-3.85v12.68h-2.51V93.94h-3.85Z"/><path d="M114.9,99.3v7.32h2.49V92H114.9Z"/><path d="M125.13,106.87c3.83,0,6.22-3.42,6.22-7.79,0-4.1-2.64-7.36-6.22-7.36s-6.21,3.26-6.21,7.36c0,4.37,2.38,7.79,6.21,7.79m0-2.09c-2.61,0-3.53-2.89-3.53-5.7s1-5.27,3.53-5.27,3.54,2.57,3.54,5.27-.92,5.7-3.54,5.7"/><path d="M143.85,106.62H142c-2.38-3.37-4.75-6.72-7.11-10.51h0v10.51h-2V92h1.82c2.39,3.35,4.75,6.67,7.1,10.44h0V92h2Z"/><path d="M149.58,92l-5.07,14.65h2.18l1.28-4h4.42l1.14,4h2.81L151.67,92Zm-1,8.85c.58-1.92,1.17-3.7,1.69-6h0c.59,2.26,1.11,4,1.66,6Z"/><path d="M164.52,104.65v2h-7.45V92h2.5v12.68Z"/><path d="M91.31,118.87v6a11.6,11.6,0,0,1-4.16.9c-4.32,0-7-3.35-7-7.66,0-4,2.72-7.49,7.12-7.49a6.26,6.26,0,0,1,3.56,1.13L90,113.53a5.54,5.54,0,0,0-2.68-.77c-2.68,0-4.5,2.12-4.5,5.44s2.09,5.52,4.25,5.52a3.7,3.7,0,0,0,1.76-.35v-4.5Z"/><path d="M101,123.6v2H93.59V110.92h6.7v2H96.11v4h4.1v2h-4.1v4.73Z"/><path d="M108,125.81c3.83,0,6.21-3.41,6.21-7.78,0-4.1-2.63-7.36-6.21-7.36s-6.22,3.26-6.22,7.36c0,4.37,2.39,7.78,6.22,7.78m0-2.09c-2.62,0-3.54-2.88-3.54-5.69s1.05-5.27,3.54-5.27,3.54,2.57,3.54,5.27-.92,5.69-3.54,5.69"/><path d="M126.3,118.87v6a11.6,11.6,0,0,1-4.16.9c-4.31,0-7-3.35-7-7.66,0-4,2.73-7.49,7.12-7.49a6.26,6.26,0,0,1,3.56,1.13l-.82,1.73a5.51,5.51,0,0,0-2.68-.77c-2.67,0-4.49,2.12-4.49,5.44s2.09,5.52,4.25,5.52a3.68,3.68,0,0,0,1.75-.35v-4.5Z"/><path d="M137.48,125.57l-2.95-6.07a4.92,4.92,0,0,0,2.53-4.35c0-2.85-1.74-4.23-4.54-4.23H128.6v14.65h2.52V120h1.12l2.37,5.53Zm-6.36-12.68h1.1a2.13,2.13,0,0,1,2.33,2.36c0,2-1.19,2.85-2.39,2.91l-1,.06Z"/><path d="M142.59,110.92l-5.07,14.65h2.18l1.27-4h4.42l1.15,4h2.81l-4.67-14.65Zm-1,8.85c.59-1.92,1.17-3.7,1.7-6h0c.59,2.26,1.11,4,1.65,6Z"/><path d="M153.71,118.16l-1.05.06v-5.33h1.13a2.11,2.11,0,0,1,2.3,2.36c0,2-1.19,2.85-2.38,2.91m.35-7.24h-3.91v14.65h2.51V120h1.13a4.78,4.78,0,0,0,4.82-4.89c0-2.85-1.74-4.23-4.55-4.23"/><path d="M167.73,125.57v-7.06h-5.21v7.06H160V110.92h2.49v5.63h5.21V111h2.51v14.61Z"/><path d="M175.14,125.57V110.92h-2.49v14.65Z"/><path d="M186.44,113.57a5.35,5.35,0,0,0-2.57-.81c-2.56,0-4.42,2.11-4.42,5.44,0,3.48,2.05,5.52,4.48,5.52a4.73,4.73,0,0,0,2.51-.73l.69,1.82a6.29,6.29,0,0,1-3.31,1c-4.31,0-7-3.34-7-7.65,0-4,2.7-7.49,7.08-7.49a6.17,6.17,0,0,1,3.37,1.13Z"/><path d="M95.46,171.11l12-29.08h11.75l-23,53.77L81.77,163.68,67.37,195.8,44.3,142H56.7l12,29.08,13.33-30.49Z"/><path d="M128,142h11.39v51.65H128Z"/><path d="M154.77,193.68V142h11.39v42.31h22.09l-3.6,9.34Z"/><path d="M208.35,151.37v33h4.8c9.81,0,16.33-7.5,16.33-16.48s-6.52-16.49-16.19-16.49ZM214,142c15,0,26.93,11.11,26.93,25.83S229,193.68,214,193.68H197V142Z"/></g></g></g></g></svg>