<svg xmlns="http://www.w3.org/2000/svg" viewBox="0 0 283.46 283.46"><defs><style>.cls-1{fill:#fc0;}</style></defs><title>natgeowild</title><g id="Layer_2" data-name="Layer 2"><g id="National_Geographic" data-name="National Geographic"><g id="natgeowild"><rect class="cls-1" width="283.46" height="283.46"/><g id="logo"><path d="M114.38,132c1.67,10,3.35,19.9,5,31.79h.11c2.7-11.63,5.43-21.43,8.16-31.14h9.22c2.84,9.71,5.74,19.5,8.52,31.14h.1c1.54-11.88,3.07-21.8,4.65-31.79l9.74,1.27-8.79,43.86H138.7c-2.42-8.26-4.9-16.52-7.27-26.69h-.1c-2.16,10.17-4.37,18.43-6.58,26.69H112.32l-9.22-43.86L114.39,132Z"/><path d="M162.13,132.69h11.11v44.48H162.13Z"/><path d="M178.23,132.69h11.13v36.16h13.48v8.32H178.23V132.69Z"/><path d="M217.31,168.85h2.84c6.37,0,9.37-6.17,9.37-15.13,0-8.06-4.15-12.71-9-12.71h-3.21v27.84Zm3.21-36.16c14.74,0,20.43,10.23,20.43,21,0,16.27-9.81,23.51-20.85,23.51H203.36V132.69h17.16Z"/><path d="M122.45,127.62h-2.6c-3.43-5-6.87-9.93-10.25-15.52h-.06v15.52h-2.88V106h2.63c3.43,5,6.85,9.87,10.22,15.45h.06V106h2.88v21.65Z"/><path d="M134.75,119.06c-.76-2.84-1.52-5.47-2.38-8.81h0c-.74,3.34-1.61,6-2.44,8.81h4.86ZM134.26,106,141,127.62H137l-1.67-5.9h-6.35l-1.84,5.9H124l7.3-21.65h3Z"/><path d="M144.79,127.62V108.87h-5.54V106h14.67v2.9H148.4v18.76h-3.61Z"/><path d="M176.79,118.15v8.57A15.67,15.67,0,0,1,171,128c-5.94,0-9.68-4.73-9.68-10.83,0-5.66,3.73-10.59,9.79-10.59a8.32,8.32,0,0,1,4.89,1.59l-1.09,2.45a7.45,7.45,0,0,0-3.7-1.09c-3.69,0-6.22,3-6.22,7.7,0,4.91,2.9,7.81,5.88,7.81a5,5,0,0,0,2.42-.5v-6.37h3.46Z"/><path d="M189.64,109.69h-5.76v5.68h5.63v2.78h-5.63v6.7h6.82v2.78H180.42V106.89h9.22v2.8Z"/><path d="M205.61,117c0-3.82-1.45-7.46-4.89-7.46s-4.87,3.64-4.87,7.46,1.27,8.06,4.87,8.06,4.89-4.09,4.89-8.06m-13.45,0c0-5.8,3.62-10.42,8.56-10.42s8.56,4.61,8.56,10.42c0,6.19-3.28,11-8.56,11s-8.56-4.82-8.56-11"/><path d="M84.95,113.57H49.65v56.77h35.3Zm-42.43-7.15h49.6V177.5H42.52Z"/></g></g></g></g></svg>