<svg xmlns="http://www.w3.org/2000/svg" viewBox="0 0 283.46 283.46"><defs><style>.cls-1{fill:#fc0;}</style></defs><g id="Layer_2" data-name="Layer 2"><g id="National_Geographic" data-name="National Geographic"><g id="nationalgeographic"><rect class="cls-1" width="283.46" height="283.46"/><g id="logo"><path d="M42.52,171H83.3V112.52H42.52Zm5.88-52.56h29v46.67h-29Z"/><path d="M154.93,121.08c3.45,0,4.9,3.57,4.9,7.3,0,3.88-1.27,7.89-4.9,7.89s-4.89-4-4.89-7.89c0-3.73,1.45-7.3,4.89-7.3m0,18.08c5.31,0,8.62-4.72,8.62-10.78,0-5.68-3.66-10.2-8.62-10.2s-8.6,4.52-8.6,10.2c0,6.06,3.3,10.78,8.6,10.78"/><path d="M120.54,147.5v-2.72h-9.28v20.29h10.32v-2.73h-6.84v-6.55h5.68v-2.72h-5.68V147.5Z"/><path d="M130.82,138.81h3.48V121.25h5.33v-2.72H125.49v2.72h5.33v17.56Z"/><path d="M213.93,152.57h-7.22v-7.79h-3.45v20.29h3.45V155.3h7.22v9.77h3.48V144.84h-3.48Z"/><path d="M97.86,124.28c3.28,5.24,6.56,9.88,9.86,14.55h2.52V118.54h-2.78L107.4,133c-3.25-5.22-6.52-9.83-9.82-14.46H95.06v20.29h2.78l0-14.55Z"/><path d="M119.25,122.53c.82,3.13,1.54,5.6,2.29,8.26h-4.7c.81-2.66,1.62-5.13,2.41-8.26M116,133.28h6.11l1.6,5.54h3.88l-6.47-20.29h-2.89l-7,20.29h3Z"/><path d="M177.78,157c.81-2.67,1.62-5.13,2.41-8.26.81,3.13,1.53,5.59,2.28,8.26Zm1.34-12.26-7,20.29h3l1.76-5.54H183l1.59,5.54h3.89L182,144.78Z"/><path d="M168.47,124.28c3.28,5.24,6.55,9.88,9.85,14.55h2.53V118.54h-2.78L178,133c-3.25-5.22-6.53-9.83-9.83-14.46h-2.52v20.29h2.78l0-14.55Z"/><path d="M209.48,136.1h-6.87V118.54h-3.45v20.28h10.32V136.1Z"/><path d="M236.36,162.51c-3.36,0-6.2-2.84-6.2-7.65,0-4.61,2.58-7.54,6.12-7.54a7.32,7.32,0,0,1,3.56,1.13l1.1-2.46a8.54,8.54,0,0,0-4.66-1.57c-6.06,0-9.8,4.85-9.8,10.38,0,6,3.77,10.61,9.74,10.61A8.89,8.89,0,0,0,240.8,164l-1-2.53a6.55,6.55,0,0,1-3.48,1"/><path d="M163.22,147.5h1.54a2.94,2.94,0,0,1,3.21,3.28c0,2.72-1.65,3.94-3.3,4-.35,0-1.16.06-1.45.09V147.5Zm-3.47,17.57h3.47v-7.66h1.57l3.27,7.66h4L168,156.66a6.83,6.83,0,0,0,3.51-6c0-3.94-2.41-5.85-6.3-5.85h-5.41v20.29Z"/><path d="M220.73,165.06h3.45V144.77h-3.45Z"/><path d="M189.86,122.53c.81,3.13,1.53,5.6,2.29,8.26h-4.7c.81-2.66,1.62-5.13,2.41-8.26m-3.31,10.75h6.12l1.59,5.54h3.88l-6.46-20.29h-2.89l-7,20.29h3l1.77-5.54Z"/><path d="M153.08,162a5,5,0,0,1-2.43.5c-3,0-5.88-2.84-5.88-7.65,0-4.61,2.52-7.54,6.23-7.54a7.52,7.52,0,0,1,3.71,1.07l1.13-2.4a8.66,8.66,0,0,0-4.93-1.57c-6.09,0-9.85,4.85-9.85,10.38,0,6,3.76,10.6,9.74,10.6a15.89,15.89,0,0,0,5.77-1.24v-8.38h-3.49V162Z"/><path d="M144.21,118.53h-3.45v20.29h3.45Z"/><path d="M194.51,154.8c-.35,0-1.19.06-1.46.08V147.5h1.57a2.94,2.94,0,0,1,3.19,3.28c0,2.72-1.65,3.93-3.3,4m.49-10h-5.42v20.29h3.47v-7.65h1.57a6.63,6.63,0,0,0,6.67-6.78c0-3.94-2.41-5.86-6.29-5.86"/><path d="M131.26,162.51c-3.62,0-4.9-4-4.9-7.89,0-3.73,1.45-7.3,4.9-7.3s4.9,3.57,4.9,7.3c0,3.89-1.28,7.89-4.9,7.89m0-18.09c-4.95,0-8.6,4.52-8.6,10.21,0,6.05,3.3,10.78,8.6,10.78s8.61-4.73,8.61-10.78c0-5.69-3.65-10.21-8.61-10.21"/><path d="M102.33,165.41a16.1,16.1,0,0,0,5.77-1.24v-8.38h-3.48V162a5.09,5.09,0,0,1-2.44.5c-3,0-5.88-2.85-5.88-7.65,0-4.61,2.52-7.54,6.23-7.54a7.52,7.52,0,0,1,3.71,1.07l1.13-2.41a8.66,8.66,0,0,0-4.93-1.56c-6.08,0-9.85,4.84-9.85,10.37,0,6,3.77,10.61,9.73,10.61"/></g></g></g></g></svg>