<svg xmlns="http://www.w3.org/2000/svg" viewBox="0 0 283.46 283.46"><defs><style>.cls-1{fill:#fc0;}</style></defs><title>nationalgeographic</title><g id="Layer_2" data-name="Layer 2"><g id="National_Geographic" data-name="National Geographic"><g id="nationalgeographic"><rect class="cls-1" width="283.46" height="283.46"/><g id="logo"><path d="M42.52,170.95H83.3V112.52H42.52Zm5.88-52.56h29v46.67h-29Z"/><path d="M154.93,121.08c3.45,0,4.9,3.57,4.9,7.3s-1.27,7.88-4.9,7.88-4.9-4-4.9-7.88,1.45-7.3,4.9-7.3m0,18.09c5.31,0,8.62-4.72,8.62-10.78,0-5.68-3.66-10.2-8.62-10.2s-8.61,4.52-8.61,10.2c0,6.06,3.31,10.78,8.61,10.78"/><path d="M120.54,147.5v-2.72h-9.28v20.29h10.32v-2.73h-6.84v-6.55h5.68v-2.73h-5.68V147.5h5.8Z"/><path d="M130.82,138.81h3.48V121.25h5.33v-2.72H125.49v2.72h5.33v17.57Z"/><path d="M213.93,152.57h-7.22v-7.8h-3.44v20.29h3.44V155.3h7.22v9.76h3.48V144.84h-3.48Z"/><path d="M97.86,124.28c3.28,5.24,6.55,9.88,9.85,14.55h2.52V118.54h-2.78L107.4,133c-3.25-5.21-6.53-9.82-9.83-14.46H95.06v20.29h2.79l0-14.55Z"/><path d="M119.25,122.53c.82,3.13,1.54,5.6,2.29,8.26h-4.7c.81-2.66,1.62-5.13,2.41-8.26m-3.3,10.76h6.11l1.6,5.53h3.88l-6.46-20.29h-2.9l-7,20.29h3Z"/><path d="M177.78,157c.81-2.67,1.62-5.13,2.4-8.26.81,3.13,1.54,5.59,2.29,8.26h-4.69Zm1.34-12.26-7,20.29h3l1.77-5.53H183l1.59,5.53h3.89L182,144.78h-2.89Z"/><path d="M168.47,124.28c3.28,5.24,6.55,9.88,9.85,14.55h2.52V118.54h-2.78L178,133c-3.25-5.21-6.53-9.82-9.83-14.46h-2.52v20.29h2.79l0-14.55Z"/><path d="M209.48,136.1h-6.87V118.54h-3.45v20.29h10.32V136.1Z"/><path d="M236.36,162.51c-3.36,0-6.2-2.84-6.2-7.66,0-4.61,2.58-7.53,6.12-7.53a7.28,7.28,0,0,1,3.56,1.13l1.11-2.47a8.59,8.59,0,0,0-4.67-1.56c-6.06,0-9.8,4.84-9.8,10.37,0,6,3.77,10.61,9.75,10.61A8.82,8.82,0,0,0,240.8,164l-1-2.52a6.54,6.54,0,0,1-3.47,1"/><path d="M163.22,147.5h1.54a2.94,2.94,0,0,1,3.21,3.28c0,2.72-1.65,3.94-3.3,4-.35,0-1.16.06-1.45.09V147.5Zm-3.47,17.57h3.47v-7.65h1.57l3.27,7.65h4l-4.08-8.41a6.82,6.82,0,0,0,3.51-6c0-3.95-2.41-5.86-6.29-5.86h-5.42v20.29Z"/><path d="M220.73,165.06h3.45V144.77h-3.45Z"/><path d="M189.86,122.53c.81,3.13,1.54,5.6,2.29,8.26h-4.7c.81-2.66,1.62-5.13,2.4-8.26m-3.3,10.76h6.11l1.59,5.53h3.88l-6.46-20.29h-2.89l-7,20.29h3l1.77-5.53Z"/><path d="M153.08,162a5.07,5.07,0,0,1-2.43.5c-3,0-5.88-2.84-5.88-7.66,0-4.61,2.52-7.54,6.23-7.54a7.56,7.56,0,0,1,3.72,1.07l1.13-2.41a8.69,8.69,0,0,0-4.93-1.56c-6.09,0-9.85,4.84-9.85,10.37,0,6,3.76,10.61,9.73,10.61a15.94,15.94,0,0,0,5.77-1.24v-8.38h-3.48V162Z"/><path d="M144.21,118.53h-3.45v20.29h3.45Z"/><path d="M194.51,154.8c-.34,0-1.18.06-1.45.08V147.5h1.57a2.94,2.94,0,0,1,3.19,3.28c0,2.72-1.65,3.94-3.31,4m.49-10h-5.42v20.29h3.47v-7.65h1.57a6.63,6.63,0,0,0,6.67-6.78c0-3.94-2.41-5.86-6.29-5.86"/><path d="M131.26,162.51c-3.62,0-4.9-4-4.9-7.89,0-3.73,1.45-7.3,4.9-7.3s4.9,3.57,4.9,7.3c0,3.89-1.28,7.89-4.9,7.89m0-18.09c-5,0-8.61,4.52-8.61,10.2,0,6.06,3.3,10.78,8.61,10.78s8.61-4.72,8.61-10.78c0-5.68-3.65-10.2-8.61-10.2"/><path d="M102.33,165.41a16,16,0,0,0,5.77-1.25v-8.37h-3.48V162a5.13,5.13,0,0,1-2.43.49c-3,0-5.89-2.84-5.89-7.65,0-4.61,2.52-7.54,6.23-7.54a7.49,7.49,0,0,1,3.71,1.07l1.13-2.41a8.68,8.68,0,0,0-4.93-1.56c-6.09,0-9.85,4.84-9.85,10.37,0,6,3.77,10.61,9.73,10.61"/></g></g></g></g></svg>