<svg xmlns="http://www.w3.org/2000/svg" xmlns:xlink="http://www.w3.org/1999/xlink" viewBox="0 0 283.46 283.46"><defs><style>.cls-1{fill:url(#linear-gradient);}.cls-2{fill:#fff;}</style><linearGradient id="linear-gradient" y1="283.46" x2="283.46" gradientUnits="userSpaceOnUse"><stop offset="0" stop-color="#ff0018"/><stop offset="1" stop-color="#9c0016"/></linearGradient></defs><title>nautical</title><g id="Layer_2" data-name="Layer 2"><g id="Travel_Lifestyle" data-name="Travel &amp; Lifestyle"><g id="nautical"><rect class="cls-1" width="283.46" height="283.46"/><g id="logo"><path class="cls-2" d="M43.67,179.45c-.08-.24-.16-.45-.21-.67a32.68,32.68,0,0,1-.76-4.92,50.89,50.89,0,0,1-.16-5.79c.07-2.16.21-4.32.47-6.47a59.41,59.41,0,0,1,1.1-6.49,54.67,54.67,0,0,1,1.51-5.47c.66-2,1.44-4,2.29-5.89.33-.75.72-1.47,1.08-2.21a54.07,54.07,0,0,1,5.17-8.41c1.12-1.5,2.27-3,3.45-4.4.73-.89,1.51-1.73,2.3-2.56.52-.55,1.14-1,1.66-1.58a31.35,31.35,0,0,1,2.65-2.51c1.93-1.68,3.9-3.31,6-4.82a62.53,62.53,0,0,1,6-3.79c.87-.48,1.76-.93,2.66-1.35,1.64-.76,3.27-1.52,4.94-2.22a68.53,68.53,0,0,1,8.16-2.73,83.3,83.3,0,0,1,8.54-1.86c2-.33,4-.57,6-.79a64.69,64.69,0,0,1,7-.45c1.29,0,2.58-.06,3.87-.06.76,0,1.52.08,2.37.13-.71,2.81-1.4,5.55-2.1,8.3a1.2,1.2,0,0,1-.23,0l-3.91.08c-1.56,0-3.12,0-4.68,0-1.19,0-2.38.15-3.64.23l-5,21.95c-.28.12-.47.08-.59-.19s-.23-.41-.33-.62l-.81-1.63c-.66-1.29-1.31-2.58-2-3.87-.26-.51-.54-1-.8-1.52-.52-1-1-2-1.55-3s-1.08-2.22-1.65-3.31c-.78-1.46-1.59-2.91-2.39-4.36-.46-.84-.93-1.67-1.4-2.51-.1-.17-.21-.33-.35-.54-.51,0-1,0-1.58,0l-4.94-.14c-.69,0-1.38-.07-2.13-.1l-.43,1.9c-.59,2.8-1.17,5.6-1.77,8.39q-1,4.6-2,9.21c-.63,2.93-1.29,5.86-1.92,8.79-.73,3.37-1.44,6.74-2.17,10.11-.77,3.56-1.56,7.11-2.31,10.67-.25,1.19-.4,2.39-.6,3.67.43-.12.78-.21,1.13-.33L75,163.56c1.71-.58,3.42-1.16,5.13-1.72a.7.7,0,0,0,.56-.6c.35-1.57.73-3.13,1.11-4.7l1.53-6.4,1.23-5.22c.45-1.93.92-3.85,1.37-5.78.24-1,.47-2,.71-3.07l.46,0a.37.37,0,0,1,.42.26l1.62,3.55,1.75,3.78c.55,1.2,1.09,2.41,1.65,3.61s1.15,2.48,1.72,3.73c.66,1.45,1.31,2.9,2,4.34.46,1,.93,2,1.4,3,.1.21.18.42.26.62,0,0,0,.06,0,.07l0,0a.28.28,0,0,1-.09.07l-53.8,20.3Z"/><path class="cls-2" d="M153.55,156H148l.07-.76c-.5.18-1,.32-1.42.51a10.33,10.33,0,0,1-4.65.87,11.24,11.24,0,0,1-6.13-2,4.46,4.46,0,0,1-.76-.8,10.76,10.76,0,0,0-1.05-1.1c0,.4.08.79.08,1.19s-.06,1-.11,1.49c0,.18-.13.27-.31.31a19.32,19.32,0,0,1-3.21.6,5.26,5.26,0,0,1-3.57-1.06l-1-.73c-.54.25-1.09.49-1.63.78a12.37,12.37,0,0,1-5.75,1.47,12.59,12.59,0,0,1-4.18-.54,9.33,9.33,0,0,1-3.71-2.16,7.46,7.46,0,0,1-2.24-5.49,12.07,12.07,0,0,1,.66-4,7.91,7.91,0,0,1,3.07-4,10,10,0,0,1,2.83-1.37.29.29,0,0,0,.2-.18H111.5a3.4,3.4,0,0,1,.07-.44,36.84,36.84,0,0,1,1.58-4.83,11.81,11.81,0,0,1,2.48-3.78,10,10,0,0,1,3-2,14.27,14.27,0,0,1,7-1.08,12.83,12.83,0,0,1,4.87,1.37,6.27,6.27,0,0,1,3,3.77,10.16,10.16,0,0,1,.47,2.63,21.71,21.71,0,0,1-.74,6.52c-.56,2.3-1.2,4.59-1.78,6.89-.2.78-.35,1.57-.54,2.42a14.05,14.05,0,0,0,2.07-.42c0-.43-.07-.83-.1-1.23a18,18,0,0,1,.35-5c.39-1.83.87-3.64,1.27-5.48s.76-3.63,1.14-5.45.75-3.6,1.13-5.42h5.58c0,.29-.07.56-.12.82-.46,2.18-.92,4.37-1.39,6.55l-1.26,6c-.36,1.69-.73,3.38-1.07,5.08a6.62,6.62,0,0,0-.07,2.51,3,3,0,0,0,2.69,2.59,6.13,6.13,0,0,0,3.85-.59,8.87,8.87,0,0,0,2.38-1.62,9.67,9.67,0,0,0,1.69-2.26,20.93,20.93,0,0,0,2.08-5.83c.52-2.31,1-4.65,1.5-7,.35-1.47.49-3,.77-4.43a12.48,12.48,0,0,1,.4-1.45.67.67,0,0,1,.75-.5c2.51,0,5,0,7.52,0h.55c.58-2.48,1.05-5,1.61-7.49h5.54l-1.49,7.52h5.11c-.33,1.86-.69,3.65-1.06,5.46l-5.26.1c-1.22,5.9-2.44,11.77-3.67,17.68a6.25,6.25,0,0,0,2.07,0l3.69-.62h.22l-1.13,5.67c-1.15.18-2.26.37-3.37.53a8.62,8.62,0,0,1-2.82-.09,5.17,5.17,0,0,1-4.28-5,11.83,11.83,0,0,1,.6-4c.53-1.72.83-3.48,1.22-5.22.44-2,.84-4,1.25-6,.2-.94.39-1.88.6-2.87h-3Zm-27-12.44-1,.06c-.94.06-1.89.09-2.83.17s-1.81.19-2.72.26a13.16,13.16,0,0,0-3.12.47,3.69,3.69,0,0,0-1.9,1.21,4.79,4.79,0,0,0-.86,2.44,2.38,2.38,0,0,0,1.75,2.57,7.08,7.08,0,0,0,4.59.07,8.74,8.74,0,0,0,5.6-5.07A5.17,5.17,0,0,0,126.56,143.57Zm-9.15-5a.67.67,0,0,0,.17.06l3.74-.16c1.36-.08,2.72-.14,4.07-.26a14.06,14.06,0,0,0,1.89-.38,1.16,1.16,0,0,0,.82-.76,4.66,4.66,0,0,0,.21-3,1.85,1.85,0,0,0-1-1.15,3.27,3.27,0,0,0-1-.31,9.44,9.44,0,0,0-3.31,0,12.23,12.23,0,0,0-1.62.33,5.83,5.83,0,0,0-2.41,1.79,7.29,7.29,0,0,0-1.46,3C117.5,138,117.46,138.32,117.41,138.61Z"/><path class="cls-2" d="M202.44,144.65a3.31,3.31,0,0,0,.22-.47,7.3,7.3,0,0,1,1.79-2.7,8.88,8.88,0,0,1,3.87-2.29,1.12,1.12,0,0,0,.49-.26H205a5.57,5.57,0,0,1,.22-1.62,16.14,16.14,0,0,1,1.34-3.89,12.12,12.12,0,0,1,2.3-3.26,11.3,11.3,0,0,1,3-2.18,12.58,12.58,0,0,1,3.74-1.1,15.08,15.08,0,0,1,5.23.22,10.13,10.13,0,0,1,4.68,2.23,6.15,6.15,0,0,1,1.69,2.75,9.79,9.79,0,0,1,.45,3.44,19.78,19.78,0,0,1-.59,4.13c-.5,2-1.05,3.9-1.57,5.85a31,31,0,0,0-1,4.39c0,.2,0,.41,0,.69l3-.63c0,.21,0,.36,0,.52v2.58a1.09,1.09,0,0,0,.16.56q3.72-17.82,7.45-35.64l5.82-.09c-2.62,12.75-5.23,25.43-7.85,38.13h-5.76l-.19-.34c-.65.14-1.27.3-1.9.4a8.83,8.83,0,0,1-3.36,0,3.18,3.18,0,0,1-1.52-.84l-.87-.81c-.28.2-.52.39-.77.55a10.79,10.79,0,0,1-4.21,1.49,16.43,16.43,0,0,1-3.9.21,10,10,0,0,1-5.78-2.14,7.75,7.75,0,0,1-2.9-6.23,10.2,10.2,0,0,1,.37-2.91c0-.15,0-.32.07-.48Zm17.74-1.19h-.87l-.69.05c-.77,0-1.54.08-2.3.15-1.14.09-2.28.19-3.41.32a19.37,19.37,0,0,0-2.53.43,3.43,3.43,0,0,0-2.6,2.52,5.33,5.33,0,0,0-.23,1.42,2.09,2.09,0,0,0,.44,1.46,3.24,3.24,0,0,0,1.36.91A8.16,8.16,0,0,0,218,148.3a8.71,8.71,0,0,0,1.76-3A6.18,6.18,0,0,0,220.18,143.46Zm-9.29-4.91c.56-.05,1.09-.13,1.62-.14,1.91,0,3.82-.07,5.73-.12a6,6,0,0,0,2.85-.61,1.41,1.41,0,0,0,.51-.52,4.34,4.34,0,0,0,.34-2.71A2.08,2.08,0,0,0,220,132.5a20.45,20.45,0,0,0-2.07-.22,11.08,11.08,0,0,0-2.74.41,4.08,4.08,0,0,0-2.28,1.29,6.87,6.87,0,0,0-1.83,3.27A2.86,2.86,0,0,0,210.89,138.55Z"/><path class="cls-2" d="M202.44,144.65l-.07.23c-.08.22-.17.43-.24.65a27.28,27.28,0,0,1-2,5.05,10.32,10.32,0,0,1-3,3.31,14,14,0,0,1-5.23,2.48,12.14,12.14,0,0,1-7-.33,10.65,10.65,0,0,1-3.59-2.18,11.6,11.6,0,0,1-3.49-6.13,14.51,14.51,0,0,1-.22-4,27.08,27.08,0,0,1,1.13-5.72,21.81,21.81,0,0,1,1.34-3.38,14.52,14.52,0,0,1,2.87-4,11.22,11.22,0,0,1,4.16-2.74,14.7,14.7,0,0,1,5.76-1.07,13.33,13.33,0,0,1,6.44,1.93,7.64,7.64,0,0,1,2.73,3.07,13.61,13.61,0,0,1,1.31,5.16c.07.7.1,1.41.15,2.17h-5.6c0-.61,0-1.2-.07-1.78a20.08,20.08,0,0,0-.4-2.32,2.92,2.92,0,0,0-1.79-2,8,8,0,0,0-4.35-.6,6.88,6.88,0,0,0-2.78.89,9,9,0,0,0-2.41,2.24,14.36,14.36,0,0,0-3,7.16,9.78,9.78,0,0,0,.26,4.2,5.58,5.58,0,0,0,4.69,4.16,7,7,0,0,0,5.78-1.66,8.24,8.24,0,0,0,2.13-2.84c.42-.89.77-1.8,1.18-2.76h5.57Z"/><path class="cls-2" d="M174.66,127.47h5.7L174.29,156H168.6C170.63,146.48,172.64,137,174.66,127.47Z"/><path class="cls-2" d="M180.42,127.08h-5.7c.69-3.16,1.37-6.27,2.07-9.42h5.67C181.78,120.82,181.1,124,180.42,127.08Z"/></g></g></g></g></svg>