<svg xmlns="http://www.w3.org/2000/svg" xmlns:xlink="http://www.w3.org/1999/xlink" viewBox="0 0 283.46 283.46"><defs><style>.cls-1{fill:url(#linear-gradient);}.cls-2{fill:#fff;}</style><linearGradient id="linear-gradient" y1="283.46" x2="283.46" gradientUnits="userSpaceOnUse"><stop offset="0" stop-color="#ff0018"/><stop offset="1" stop-color="#9c0016"/></linearGradient></defs><title>nautical</title><g id="Layer_2" data-name="Layer 2"><g id="Travel_Lifestyle" data-name="Travel &amp; Lifestyle"><g id="nautical"><rect class="cls-1" width="283.46" height="283.46"/><g id="logo"><path class="cls-2" d="M43.67,179.45c-.08-.24-.16-.45-.21-.67a32.75,32.75,0,0,1-.75-4.92,50.16,50.16,0,0,1-.16-5.79c.07-2.16.21-4.32.46-6.46a62.87,62.87,0,0,1,1.1-6.5c.42-1.85.92-3.67,1.51-5.47.66-2,1.44-4,2.29-5.89.33-.75.72-1.47,1.09-2.21a53.53,53.53,0,0,1,5.17-8.42c1.12-1.49,2.27-3,3.45-4.4.72-.89,1.5-1.73,2.29-2.56.53-.55,1.14-1,1.66-1.58a33.47,33.47,0,0,1,2.65-2.51c1.93-1.68,3.9-3.31,6-4.81a60.73,60.73,0,0,1,6-3.79c.87-.49,1.76-.94,2.67-1.36,1.63-.76,3.27-1.52,4.93-2.21a68,68,0,0,1,8.17-2.73,82.31,82.31,0,0,1,8.53-1.86c2-.33,4-.57,6-.79a65,65,0,0,1,7-.44c1.29,0,2.57-.06,3.86-.06.76,0,1.53.08,2.38.12l-2.1,8.3a1.33,1.33,0,0,1-.23.05l-3.92.07c-1.56,0-3.12,0-4.67,0-1.19,0-2.39.14-3.64.22l-5,22c-.28.12-.47.07-.59-.19s-.22-.41-.33-.62l-.81-1.63-2-3.87c-.26-.51-.53-1-.8-1.52-.52-1-1-2-1.55-3s-1.08-2.22-1.65-3.31c-.77-1.46-1.58-2.91-2.38-4.36-.46-.84-.94-1.67-1.41-2.51-.1-.17-.21-.33-.34-.55-.52,0-1.05,0-1.58,0l-4.93-.14c-.69,0-1.39-.07-2.13-.1-.15.66-.3,1.28-.43,1.9-.59,2.8-1.17,5.59-1.77,8.39q-1,4.61-2,9.21c-.64,2.93-1.29,5.86-1.93,8.79-.73,3.37-1.44,6.74-2.17,10.11-.77,3.56-1.56,7.11-2.31,10.68-.25,1.18-.4,2.39-.61,3.66.43-.12.79-.21,1.13-.33L75,163.56c1.71-.58,3.42-1.16,5.13-1.72a.72.72,0,0,0,.56-.61c.35-1.57.73-3.13,1.1-4.69q.76-3.2,1.53-6.41c.41-1.74.82-3.48,1.23-5.21.46-1.93.92-3.85,1.37-5.78.24-1,.47-2,.71-3.07l.46,0a.38.38,0,0,1,.42.26q.81,1.78,1.62,3.55l1.75,3.78,1.64,3.6c.57,1.25,1.16,2.49,1.73,3.74.66,1.44,1.31,2.89,2,4.34.46,1,.93,2,1.4,3,.1.21.18.43.26.63l0,.07,0,0a.31.31,0,0,1-.08.06l-53.81,20.3A1.58,1.58,0,0,1,43.67,179.45Z"/><path class="cls-2" d="M153.55,156H148l.07-.76c-.5.18-1,.32-1.42.52a10.48,10.48,0,0,1-4.65.87,11.19,11.19,0,0,1-6.13-2,4.69,4.69,0,0,1-.77-.8,10.08,10.08,0,0,0-1-1.1c0,.4.08.79.07,1.19s-.06,1-.1,1.49c0,.18-.13.26-.31.31a19.54,19.54,0,0,1-3.21.61,5.26,5.26,0,0,1-3.57-1.06l-1-.73c-.53.25-1.09.49-1.62.78a12.34,12.34,0,0,1-5.75,1.47,12.51,12.51,0,0,1-4.18-.54,9.27,9.27,0,0,1-3.71-2.16,7.45,7.45,0,0,1-2.24-5.49,12.51,12.51,0,0,1,.66-4,8,8,0,0,1,3.07-4,10.16,10.16,0,0,1,2.83-1.37.32.32,0,0,0,.2-.18H111.5a3.57,3.57,0,0,1,.07-.44,36.86,36.86,0,0,1,1.58-4.83,11.77,11.77,0,0,1,2.48-3.77,10.1,10.1,0,0,1,3-2,14.18,14.18,0,0,1,7-1.08,12.62,12.62,0,0,1,4.87,1.37,6.27,6.27,0,0,1,3.06,3.76,10.3,10.3,0,0,1,.47,2.63,21.65,21.65,0,0,1-.74,6.52c-.56,2.31-1.2,4.6-1.79,6.9-.2.78-.35,1.57-.54,2.42a14.86,14.86,0,0,0,2.07-.41c0-.43-.07-.83-.1-1.24a18.11,18.11,0,0,1,.35-5c.39-1.83.87-3.65,1.27-5.48s.76-3.64,1.13-5.46l1.13-5.42h5.59c0,.3-.07.56-.12.82q-.69,3.28-1.38,6.56l-1.27,6c-.36,1.7-.73,3.39-1.07,5.09a6.48,6.48,0,0,0-.07,2.51,3,3,0,0,0,2.68,2.59,6.18,6.18,0,0,0,3.85-.59,8.82,8.82,0,0,0,2.38-1.62,9.67,9.67,0,0,0,1.7-2.26,21.43,21.43,0,0,0,2.08-5.83c.51-2.32,1-4.65,1.5-7,.34-1.47.48-3,.76-4.43a14.14,14.14,0,0,1,.4-1.44.67.67,0,0,1,.76-.51c2.51,0,5,0,7.52,0h.55c.58-2.49,1-5,1.61-7.49h5.54l-1.5,7.53h5.11c-.33,1.86-.69,3.65-1.05,5.46l-5.26.1-3.67,17.68a6.26,6.26,0,0,0,2.07,0l3.7-.63h.21l-1.13,5.66-3.37.53a8.57,8.57,0,0,1-2.83-.09,5.17,5.17,0,0,1-4.27-5,11.78,11.78,0,0,1,.6-4c.53-1.71.83-3.47,1.22-5.21.44-2,.84-4,1.26-6l.59-2.87h-3Zm-27-12.44-1,.07c-.95.05-1.89.09-2.84.17s-1.81.19-2.72.26a13.64,13.64,0,0,0-3.12.47,3.69,3.69,0,0,0-1.9,1.21,4.73,4.73,0,0,0-.86,2.44,2.39,2.39,0,0,0,1.76,2.57,7.11,7.11,0,0,0,4.58.07,8.76,8.76,0,0,0,5.6-5.07A5.14,5.14,0,0,0,126.56,143.57Zm-9.14-5c.1,0,.13.07.16.06,1.25-.05,2.5-.1,3.75-.17s2.71-.14,4.07-.26a13.24,13.24,0,0,0,1.89-.37,1.19,1.19,0,0,0,.82-.76,4.64,4.64,0,0,0,.21-3,1.82,1.82,0,0,0-1-1.15,3.33,3.33,0,0,0-1-.32,9.28,9.28,0,0,0-3.31,0,11,11,0,0,0-1.62.33,5.81,5.81,0,0,0-2.41,1.79,7.22,7.22,0,0,0-1.46,3C117.5,138,117.46,138.32,117.41,138.61Z"/><path class="cls-2" d="M202.44,144.65a4.87,4.87,0,0,0,.22-.47,7.21,7.21,0,0,1,1.79-2.7,8.83,8.83,0,0,1,3.87-2.29,1.22,1.22,0,0,0,.49-.26H205a5.47,5.47,0,0,1,.23-1.62,15.91,15.91,0,0,1,1.33-3.89,12.16,12.16,0,0,1,2.3-3.26,11.26,11.26,0,0,1,3-2.18,12.27,12.27,0,0,1,3.74-1.09,15.05,15.05,0,0,1,5.23.21,10.11,10.11,0,0,1,4.68,2.23,6.07,6.07,0,0,1,1.69,2.75,9.85,9.85,0,0,1,.45,3.44,19.88,19.88,0,0,1-.59,4.13c-.5,2-1,3.9-1.57,5.84a31,31,0,0,0-1,4.39c0,.21,0,.42,0,.7l3-.63c0,.21,0,.37,0,.52,0,.86,0,1.72,0,2.58a1,1,0,0,0,.15.56L235.12,118l5.83-.09L233.09,156h-5.76l-.19-.34c-.65.14-1.27.3-1.9.4a8.68,8.68,0,0,1-3.36,0,3.16,3.16,0,0,1-1.52-.84c-.28-.27-.57-.53-.87-.81-.29.21-.53.39-.77.56a10.66,10.66,0,0,1-4.21,1.48,16.05,16.05,0,0,1-3.9.21,10,10,0,0,1-5.78-2.14,7.77,7.77,0,0,1-2.9-6.23,10.46,10.46,0,0,1,.37-2.91,4,4,0,0,0,.07-.48Zm17.74-1.18h-.87c-.23,0-.46,0-.69.06-.77,0-1.53.08-2.3.14-1.14.09-2.28.19-3.41.33a18.59,18.59,0,0,0-2.53.42,3.47,3.47,0,0,0-2.6,2.52,5.06,5.06,0,0,0-.22,1.42,2.07,2.07,0,0,0,.44,1.46,3.21,3.21,0,0,0,1.36.91,8,8,0,0,0,3.06.36A8.19,8.19,0,0,0,218,148.3a8.86,8.86,0,0,0,1.76-3A6.22,6.22,0,0,0,220.18,143.46Zm-9.29-4.91c.56-.05,1.08-.13,1.62-.15,1.91,0,3.82-.06,5.74-.12a6,6,0,0,0,2.85-.61,1.35,1.35,0,0,0,.51-.52,4.37,4.37,0,0,0,.34-2.71A2.07,2.07,0,0,0,220,132.5a19.74,19.74,0,0,0-2.07-.22,11.3,11.3,0,0,0-2.74.41,4.17,4.17,0,0,0-2.28,1.29,7,7,0,0,0-1.83,3.27A3,3,0,0,0,210.89,138.55Z"/><path class="cls-2" d="M202.44,144.65l-.07.23c-.08.22-.17.43-.24.65a27.27,27.27,0,0,1-2,5,10.2,10.2,0,0,1-3,3.31,13.9,13.9,0,0,1-5.22,2.48,12.16,12.16,0,0,1-7-.33,10.49,10.49,0,0,1-3.59-2.18,11.58,11.58,0,0,1-3.49-6.13,14.51,14.51,0,0,1-.22-4,27.28,27.28,0,0,1,1.14-5.72,20.92,20.92,0,0,1,1.34-3.38,14.39,14.39,0,0,1,2.86-4,11.23,11.23,0,0,1,4.17-2.74,14.79,14.79,0,0,1,5.75-1.08,13.38,13.38,0,0,1,6.44,1.94,7.68,7.68,0,0,1,2.73,3.07,13.78,13.78,0,0,1,1.31,5.16c.06.71.09,1.42.14,2.17h-5.6c0-.61,0-1.2-.07-1.78a21.33,21.33,0,0,0-.4-2.31,2.93,2.93,0,0,0-1.78-2,8,8,0,0,0-4.35-.59,6.89,6.89,0,0,0-2.78.89,9.1,9.1,0,0,0-2.41,2.24,14.34,14.34,0,0,0-3,7.16,9.78,9.78,0,0,0,.26,4.2,5.57,5.57,0,0,0,4.69,4.16,7,7,0,0,0,5.78-1.66,8.14,8.14,0,0,0,2.13-2.84c.41-.88.77-1.8,1.17-2.76h5.57Z"/><path class="cls-2" d="M174.66,127.47h5.69L174.29,156H168.6Z"/><path class="cls-2" d="M180.42,127.08h-5.7l2.07-9.42h5.67Z"/></g></g></g></g></svg>