<?xml version="1.0" standalone="yes"?>
<svg xmlns="http://www.w3.org/2000/svg" width="1024" height="1024">
<path style="fill:#818181; stroke:none;" d="M0 0L0 1024L1024 1024L1024 0L0 0z"/>
<path style="fill:#ffffff; stroke:none;" d="M474 542L541 542C534.966 556.02 527.274 577.927 531.786 593C538.098 614.091 566.268 620.071 581.699 605.381C592.342 595.25 594.116 576.535 598 563C605.65 536.341 613.296 509.685 620.86 483C624.407 470.483 630.971 456.101 630.971 443C630.971 426.077 617.57 413.248 601 412.595C572.476 411.471 568.248 444.053 562.424 465C561.063 469.896 560.428 478.865 556.487 482.397C552.768 485.729 543.656 484 539 484L491 484C496.586 469.192 505.668 446.654 501.254 431C494.82 408.18 464.487 402.826 449.188 420.015C438.886 431.59 436.835 453.422 432.576 468C425.475 492.301 418.521 516.65 411.579 541C408.137 553.07 403.077 565.566 401.3 578C397.586 603.996 426.603 624.399 448.999 608.362C462.421 598.751 464.204 578.791 468.421 564C470.482 556.771 473.385 549.525 474 542M721 532L722 532C725.894 540.349 734.663 547.291 740.911 554C752.645 566.602 764.183 579.389 775.911 592C782.729 599.332 789.128 608.491 799 611.892C825.202 620.919 849.544 592.4 836.095 568C825.479 548.74 804.446 532.535 790 516C808.841 508.035 826.827 489.515 843 477.011C850.538 471.183 859.522 465.755 864.004 457C874.16 437.161 859.293 412.413 837 412.71C822.02 412.909 811.225 423.699 800 432.349C778.782 448.697 757.525 465.058 736 481C739.445 465.975 749.112 447.55 743.895 432C736.291 409.332 704.267 404.311 690.443 424.004C680.5 438.167 677.503 461.391 673.116 478C664.574 510.338 652.605 542.295 645.669 575C639.676 603.259 671.617 625.375 694.96 606.471C703.445 599.599 705.757 588.04 708.371 578C712.371 562.637 717.789 547.555 721 532M238 517C253.269 540.075 267.529 563.828 282.656 587C289.783 597.919 295.869 610.867 310 613.532C323.243 616.031 337.088 611.256 343.676 599C349.913 587.397 351.831 572.613 355.427 560C363.023 533.359 370.327 506.624 378 480C382.272 465.178 390.565 447.419 385.239 432C377.785 410.42 347.735 406.413 333.329 423.04C326.583 430.826 324.697 443.271 322.116 453C317.307 471.12 308.631 490.298 307 509C300.172 502.698 295.496 492.858 290.576 485C280.927 469.589 271.157 454.193 261.169 439C253.256 426.963 246.641 414.53 231 412.3C218.027 410.451 204.815 418.097 199.529 430C184.392 464.087 178.941 504.337 167.975 540C163.496 554.568 154.188 574.72 157.9 590C163.252 612.032 190.908 621.766 207.985 605.895C218.116 596.479 220.37 579.846 223.849 567C228.375 550.286 233.272 533.66 238 517z"/>
<path style="fill:#d9d9d9; stroke:none;" d="M364 413L365 414L364 413M338 418L339 419L338 418M692 421L693 422L692 421M689 425L690 426L689 425M327 434L328 435L327 434M260 438L261 439L260 438M680 452L681 453L680 452M382 463L383 464L382 463M746 473L747 474L746 473M373 495L374 496L373 495M299 499L300 500L299 499M308 501L309 502L308 501M176 510L177 511L176 510M790 516L791 517L790 516M720 534L721 535L720 534M814 543L815 544L814 543M225 560L226 561L225 560M162 600L163 601L162 600M653 604L654 605L653 604M295 605L296 606L295 605M817 612L818 613L817 612M309 613L310 614L309 613z"/>
</svg>
