<svg xmlns="http://www.w3.org/2000/svg" viewBox="0 0 283.46 283.46"><defs><style>.cls-1{fill:#f58113;}.cls-2{fill:#49c3cb;}.cls-3{fill:#fff;}</style></defs><g id="Layer_2" data-name="Layer 2"><g id="Viacom"><g id="nickjr"><rect class="cls-1" width="283.46" height="283.46"/><g id="logo"><path class="cls-2" d="M204.05,155.09c0,8.69-4.25,14.33-14.42,14.33h-.37a19.21,19.21,0,0,1-9.62-2.4c-4.07-2.59-6.66-6.84-4-11.37,2.49-4.16,11.09-4.9,12.39,2.31.46,2.59,1.75,2.22,1.75-.09V140.58c0-5.18,3.24-8.33,7.12-8.33a7.12,7.12,0,0,1,7.12,7.12Zm-7.12-25.24a7,7,0,1,0-7-7,7,7,0,0,0,7,7"/><path class="cls-2" d="M221.81,168V148.9c0-1.39.83-3.7,2.49-4.35s3.15.09,4.9.74c5.92,2.22,10.54-.74,11.19-4.62a7.14,7.14,0,0,0-5.73-8.32c-4.72-.93-8,.64-11.93,3.6h0c-.28.19-1,.84-1.29,1a7.09,7.09,0,0,0-13.87,2.13V168h14.24Z"/><path class="cls-2" d="M233.92,168.41a7,7,0,1,0-7-7,7,7,0,0,0,7,7"/><path class="cls-3" d="M61.29,132.07A19.14,19.14,0,0,0,48,137.53a18.71,18.71,0,0,0-5.45,13.31V168H56.76V151.12a10,10,0,0,1,1.29-5.18,4,4,0,0,1,3.24-2.13c1.29,0,2.31.83,3.24,2.13a10,10,0,0,1,1.29,5.18V168H80.06V150.84a18.64,18.64,0,0,0-18.77-18.77"/><path class="cls-3" d="M95.41,127.45a7.66,7.66,0,0,0,2.31-5.64,8.19,8.19,0,0,0-2.31-5.64,7.82,7.82,0,0,0-5.64-2.32,8.2,8.2,0,0,0-5.64,2.32,7.65,7.65,0,0,0-2.31,5.64,8.19,8.19,0,0,0,2.31,5.64l1.75,1.75c3,3,3.15,3.7.37,6.48l-1.57,1.57a7.28,7.28,0,0,0-2.12,5.08V168H97V142.33a7.09,7.09,0,0,0-2.13-5.08l-1.57-1.57c-2.77-2.78-2.59-3.52.37-6.48Z"/><path class="cls-3" d="M120.93,156.85c-.83,1.57-1.94,2.5-3.24,2.5s-2.31-.93-3.23-2.5a14.54,14.54,0,0,1,0-12c.83-1.57,1.94-2.5,3.23-2.5s2.31.93,3.24,2.5a11.36,11.36,0,0,1,1.2,4.16h14.24a18.8,18.8,0,0,0-18.77-16.92,19.14,19.14,0,0,0-13.32,5.46,18.18,18.18,0,0,0-5.45,13.31,19.13,19.13,0,0,0,5.45,13.31,18.87,18.87,0,0,0,32.09-11.46H122.13a11.36,11.36,0,0,1-1.2,4.16"/><path class="cls-3" d="M174.09,165.54a2.93,2.93,0,0,0-.37-1.29L166,152.41l5.36-9.8a7.15,7.15,0,0,0-12.3-7.3l-6.47,11.55v-7.67a7.12,7.12,0,0,0-14.24,0V168h14.24V156.67L160,168h11.47a2.38,2.38,0,0,0,2.58-2.41"/></g></g></g></g></svg>