<svg xmlns="http://www.w3.org/2000/svg" viewBox="0 0 283.46 283.46"><defs><style>.cls-1{fill:#f58113;}.cls-2{fill:#fff;}</style></defs><title>nickelodeon</title><g id="Layer_2" data-name="Layer 2"><g id="Viacom"><g id="nickelodeon"><rect class="cls-1" width="283.46" height="283.46"/><g id="logo"><path class="cls-2" d="M52.36,136.66a9.84,9.84,0,0,0-9.84,9.84v9H50v-8.84a5.2,5.2,0,0,1,.69-2.71,1.81,1.81,0,0,1,3.35,0,5.21,5.21,0,0,1,.69,2.71v8.84h7.47v-9a9.84,9.84,0,0,0-9.84-9.84"/><path class="cls-2" d="M231.11,136.66a9.83,9.83,0,0,0-9.84,9.84v9h7.47v-8.84a5.2,5.2,0,0,1,.7-2.71,1.81,1.81,0,0,1,3.35,0,5.2,5.2,0,0,1,.69,2.71v8.84h7.47v-9a9.84,9.84,0,0,0-9.84-9.84"/><path class="cls-2" d="M70.23,134.24a4.15,4.15,0,1,0-5.87,0l.92.92c1.53,1.53,1.64,1.94.19,3.39l-.83.84a3.77,3.77,0,0,0-1.11,2.67v13.44h7.55V142.05a3.78,3.78,0,0,0-1.1-2.67l-.83-.84c-1.45-1.45-1.35-1.86.18-3.39Z"/><path class="cls-2" d="M83.61,149.64a1.73,1.73,0,0,1-3.35,0,7.4,7.4,0,0,1,0-6.26,1.73,1.73,0,0,1,3.35,0,6.2,6.2,0,0,1,.64,2.21h7.48a9.84,9.84,0,1,0,0,1.85H84.25a6.22,6.22,0,0,1-.64,2.2"/><path class="cls-2" d="M118.21,144.74a7.54,7.54,0,0,1,.49-1.46,2.08,2.08,0,0,1,1.67-1.3c.67,0,1.22.48,1.69,1.32a5.87,5.87,0,0,1,.47,1.42Zm2.17-8.09a9.84,9.84,0,1,0,7,16.74,8.69,8.69,0,0,0,2.15-4.88h-6.65s-.92,2.33-2.51,2.33a2,2,0,0,1-1.67-1.3,6.06,6.06,0,0,1-.62-2h11.59s.79-4.74-2.38-7.94a9.52,9.52,0,0,0-6.92-2.94"/><path class="cls-2" d="M188.11,144.74a7.45,7.45,0,0,1,.49-1.46,2.08,2.08,0,0,1,1.67-1.3c.67,0,1.22.48,1.69,1.32a5.77,5.77,0,0,1,.47,1.42Zm2.16-8.09a9.84,9.84,0,1,0,7,16.74,8.66,8.66,0,0,0,2.15-4.88h-6.65s-.92,2.33-2.51,2.33a2,2,0,0,1-1.67-1.3,6,6,0,0,1-.61-2h11.59s.79-4.74-2.37-7.94a9.53,9.53,0,0,0-6.93-2.94"/><path class="cls-2" d="M134.47,127.11a3.74,3.74,0,0,0-3.73,3.74v24.64h7.47V130.84a3.73,3.73,0,0,0-3.73-3.73"/><path class="cls-2" d="M149.08,150.93c-1.31,0-2.37-2-2.37-4.43s1.06-4.43,2.37-4.43,2.37,2,2.37,4.43-1.06,4.43-2.37,4.43m0-14.28a9.84,9.84,0,1,0,9.84,9.84,9.84,9.84,0,0,0-9.84-9.84"/><path class="cls-2" d="M210.51,150.93c-1.31,0-2.37-2-2.37-4.43s1.06-4.43,2.37-4.43,2.37,2,2.37,4.43-1.06,4.43-2.37,4.43m0-14.28a9.84,9.84,0,1,0,9.84,9.84,9.84,9.84,0,0,0-9.84-9.84"/><path class="cls-2" d="M169.65,150.93c-1.31,0-2.37-2-2.37-4.43s1.06-4.43,2.37-4.43,2.37,2,2.37,4.43-1.06,4.43-2.37,4.43m9.84-4.43h0V130.84a3.73,3.73,0,1,0-7.47,0V137a9.84,9.84,0,0,0-9.33,16.51,9.83,9.83,0,0,0,13.92,0,9.85,9.85,0,0,0,2.88-7Z"/><path class="cls-2" d="M111.62,154.18a1.29,1.29,0,0,0-.2-.68l-4.09-6.19,2.83-5.14a3.73,3.73,0,1,0-6.43-3.8l-3.38,6v-4a3.73,3.73,0,1,0-7.47,0v15.1h7.47v-5.91l3.94,5.91h6a1.31,1.31,0,0,0,1.3-1.3"/></g></g></g></g></svg>