<svg xmlns="http://www.w3.org/2000/svg" viewBox="0 0 283.46 283.46"><defs><style>.cls-1{fill:#f58113;}.cls-2{fill:#fff;}</style></defs><g id="Layer_2" data-name="Layer 2"><g id="Viacom"><g id="nickelodeon"><rect class="cls-1" width="283.46" height="283.46"/><g id="logo"><path class="cls-2" d="M52.36,136.66a9.83,9.83,0,0,0-9.84,9.84v9H50v-8.84a5.23,5.23,0,0,1,.69-2.71,1.81,1.81,0,0,1,3.35,0,5.23,5.23,0,0,1,.7,2.71v8.84h7.46v-9a9.83,9.83,0,0,0-9.83-9.84"/><path class="cls-2" d="M231.11,136.66a9.83,9.83,0,0,0-9.84,9.84v9h7.47v-8.84a5.23,5.23,0,0,1,.69-2.71,1.81,1.81,0,0,1,3.35,0,5.23,5.23,0,0,1,.7,2.71v8.84h7.46v-9a9.83,9.83,0,0,0-9.83-9.84"/><path class="cls-2" d="M70.23,134.24a4.16,4.16,0,1,0-5.87,0l.92.92c1.53,1.53,1.64,1.93.18,3.39l-.83.83a3.76,3.76,0,0,0-1.11,2.67v13.44h7.55V142.05a3.79,3.79,0,0,0-1.1-2.67l-.84-.83c-1.45-1.46-1.35-1.86.18-3.4Z"/><path class="cls-2" d="M83.61,149.64a1.73,1.73,0,0,1-3.35,0,7.35,7.35,0,0,1,0-6.26,1.73,1.73,0,0,1,3.35,0,6.31,6.31,0,0,1,.64,2.21h7.47A9.85,9.85,0,1,0,88.31,154a9.66,9.66,0,0,0,3.41-6.56H84.25a6.39,6.39,0,0,1-.64,2.2"/><path class="cls-2" d="M118.21,144.74a6.89,6.89,0,0,1,.49-1.46,2.08,2.08,0,0,1,1.67-1.3c.68,0,1.23.48,1.69,1.32a5.78,5.78,0,0,1,.47,1.42Zm2.16-8.09a9.85,9.85,0,1,0,7,16.75,8.73,8.73,0,0,0,2.15-4.89h-6.65s-.93,2.33-2.52,2.33a2.06,2.06,0,0,1-1.67-1.3,6.09,6.09,0,0,1-.62-2h11.6s.79-4.74-2.38-7.94a9.56,9.56,0,0,0-6.93-2.94"/><path class="cls-2" d="M188.11,144.74a6.89,6.89,0,0,1,.49-1.46,2.09,2.09,0,0,1,1.67-1.3c.68,0,1.23.48,1.69,1.32a5.78,5.78,0,0,1,.47,1.42Zm2.16-8.09a9.85,9.85,0,1,0,7,16.75,8.73,8.73,0,0,0,2.15-4.89h-6.65s-.93,2.33-2.52,2.33a2.07,2.07,0,0,1-1.67-1.3,5.86,5.86,0,0,1-.61-2h11.58s.8-4.74-2.37-7.94a9.56,9.56,0,0,0-6.93-2.94"/><path class="cls-2" d="M134.47,127.11a3.73,3.73,0,0,0-3.73,3.74v24.64h7.46V130.84a3.73,3.73,0,0,0-3.73-3.73"/><path class="cls-2" d="M149.08,150.93c-1.3,0-2.37-2-2.37-4.43s1.07-4.43,2.37-4.43,2.37,2,2.37,4.43-1.06,4.43-2.37,4.43m0-14.27a9.84,9.84,0,1,0,9.84,9.84,9.83,9.83,0,0,0-9.84-9.84"/><path class="cls-2" d="M210.51,150.93c-1.31,0-2.37-2-2.37-4.43s1.06-4.43,2.37-4.43,2.37,2,2.37,4.43-1.06,4.43-2.37,4.43m0-14.27a9.84,9.84,0,1,0,9.84,9.84,9.83,9.83,0,0,0-9.84-9.84"/><path class="cls-2" d="M169.65,150.93c-1.31,0-2.37-2-2.37-4.43s1.06-4.43,2.37-4.43,2.37,2,2.37,4.43-1.06,4.43-2.37,4.43m9.84-4.43h0V130.84a3.73,3.73,0,1,0-7.46,0V137a9.85,9.85,0,0,0-9.34,16.51,9.83,9.83,0,0,0,13.92,0,9.85,9.85,0,0,0,2.88-7Z"/><path class="cls-2" d="M111.62,154.18a1.26,1.26,0,0,0-.2-.68l-4.09-6.19,2.84-5.14a3.74,3.74,0,1,0-6.44-3.79l-3.38,6v-4a3.74,3.74,0,0,0-7.47,0v15.1h7.47v-5.91l3.94,5.91h6a1.31,1.31,0,0,0,1.3-1.31"/></g></g></g></g></svg>