<svg xmlns="http://www.w3.org/2000/svg" viewBox="0 0 283.46 283.46"><defs><style>.cls-1{fill:#fff;}.cls-2{fill:#ee7f00;}</style></defs><title>orangesport</title><g id="Layer_2" data-name="Layer 2"><g id="Orange"><rect width="283.46" height="283.46"/><path class="cls-1" d="M52.82,146.21c4.15,0,5.7-3.52,5.7-7,0-3.68-1.55-7.21-5.7-7.21s-5.68,3.53-5.68,7.21c0,3.48,1.56,7,5.68,7m0-18.09c6.49,0,10.3,4.85,10.3,11.09,0,6-3.81,10.87-10.3,10.87s-10.3-4.83-10.3-10.87c0-6.24,3.81-11.09,10.3-11.09"/><path class="cls-1" d="M65.54,134.41h4v2.82h0A5.42,5.42,0,0,1,74.39,134l.92.14V138l-1.5-.16c-3.06,0-4.1,2.21-4.1,4.88v6.83H65.54Z"/><path class="cls-1" d="M86.4,142.18c-.71.59-2.16.63-3.46.86s-2.47.7-2.47,2.23,1.2,1.95,2.55,1.95c3.26,0,3.38-2.6,3.38-3.51Zm-9.64-3.09C77,135.18,80.5,134,83.91,134c3,0,6.66.69,6.66,4.33v7.88a7.69,7.69,0,0,0,.53,3.37H86.87l-.29-1.47A6.9,6.9,0,0,1,81.46,150c-2.86,0-5.16-1.44-5.16-4.54,0-3.45,2.59-4.26,5.16-4.61s4.94-.29,4.94-2-1.24-2-2.71-2-2.6.64-2.74,2.29Z"/><path class="cls-1" d="M93.79,134.41h4v2.12h.09a5.4,5.4,0,0,1,4.63-2.53c4.43,0,5.55,2.49,5.55,6.26v9.32h-4.17V141c0-2.49-.72-3.72-2.67-3.72-2.27,0-3.23,1.26-3.23,4.34v7.94H93.79Z"/><path class="cls-1" d="M121.54,141.81c0-2.47-.86-4.66-3.55-4.66-2.36,0-3.38,2.06-3.38,4.3S115.43,146,118,146c2.36,0,3.55-2,3.55-4.2m4,6.81c0,2.49-.88,6.73-7.87,6.73-3,0-6.48-1.43-6.69-4.87h4.13c.39,1.53,1.64,2.07,3.12,2.07,2.31,0,3.38-1.57,3.34-3.75v-2h0a5.2,5.2,0,0,1-4.57,2.35c-4.54,0-6.48-3.47-6.48-7.63,0-3.94,2.27-7.52,6.51-7.52a4.77,4.77,0,0,1,4.54,2.45h0v-2h4Z"/><path class="cls-1" d="M139.06,140.36c-.39-2.08-1.29-3.21-3.32-3.21a3.29,3.29,0,0,0-3.47,3.21ZM132.27,143c.12,2.65,1.41,3.87,3.73,3.87a3.44,3.44,0,0,0,3.29-2H143a6.83,6.83,0,0,1-7.11,5.1c-4.78,0-7.76-3.3-7.76-8,0-4.54,3.14-8,7.76-8,5.16,0,7.66,4.35,7.37,9Z"/><path class="cls-2" d="M203,134c-5.56,0-9.09,1.39-11,4.31h10.66c2.22.18,2.91,1.39,2.46,3.5-.49,2.34-1.86,3.55-4.53,3.55s-3.53-1.21-3-3.55a4.28,4.28,0,0,1,1.73-2.8l-8.41,1.78-.26,1c-1.14,5.35,1.58,7.84,9.06,7.84s11.26-2.49,12.39-7.84S210.5,134,203,134"/><path class="cls-2" d="M152.66,143.19c-3.75-.38-4.54-1.93-4-4.44.73-3.41,4.23-4.88,10.69-4.88,4.5,0,9.28.82,8.54,4.93h-7.47l-.31-.9a3.47,3.47,0,0,0-1.88-.38c-2,0-2.46.46-2.57,1-.08.37.17.77,1.57.91l6.2.56c3.5.3,4.52,1.91,4,4.36-.79,3.74-4.33,5.16-11.33,5.16s-9.58-1.42-9-5.06h7.78l.59,1.15a4.51,4.51,0,0,0,1.81.27c1.69,0,2.3-.45,2.44-1.13l-.71-.89Z"/><path class="cls-2" d="M178.62,145.07a4.13,4.13,0,0,0,4.31-3.28c.4-1.9-.36-3.28-2.94-3.28s-3.88,1.21-4.33,3.28.38,3.28,3,3.28m-8-10.62H177l-.37,1.73h.06a8.85,8.85,0,0,1,6.41-2.14c4.29,0,7.73,2.37,6.59,7.75s-5.58,7.73-9.88,7.73c-2.7,0-4.47-.65-5.3-2h-.07L173,154.14h-6.61Z"/><path class="cls-2" d="M214.69,134.45h6.42l-.59,2.78h0a9.5,9.5,0,0,1,6.85-3.19l2.13.18-1.26,5.94a10.72,10.72,0,0,0-3.19-.53c-2.37,0-5,.76-5.71,3.89L218.24,149h-6.63Z"/><path class="cls-2" d="M231.74,129.78h6.62l-1,4.67h3.57l-.87,4.15h-3.58l-1.1,5.09c-.27,1.36.26,1.44,1.69,1.44l1.79-.06-.82,3.87a35,35,0,0,1-4.89.32c-4,0-5.4-.76-4.56-4.72Z"/></g></g></svg>