<svg xmlns="http://www.w3.org/2000/svg" viewBox="0 0 283.46 283.46"><defs><style>.cls-1{fill:#babf33;}.cls-2{fill:#fff;}</style></defs><title>outdoorchannel</title><g id="Layer_2" data-name="Layer 2"><g id="Sport"><g id="outdoorchannel"><rect class="cls-1" width="283.46" height="283.46"/><g id="logo"><path class="cls-2" d="M112.64,139.43l50.55-52.76,29.7,31.14-29.85-11Z"/><path class="cls-2" d="M94.66,147.34l68.9-72.25,39.67,41.59H214L163.84,64.32l-43.75,45.47L106,94.59,44.31,162.32l195.68,0L240,161,94.66,147.34"/><path class="cls-2" d="M111.19,196.48l-.34.21-8.85.1-.15-.21,2.52-4.68,3.84-7.24,3.76-7.21-2.62,0-4.41.1-.11-.27,2.79-4.9.4-.2h14.55l7.41-.1.2.21-2.75,4.92-.4.24-3.9-.1h-2.19L118,183l-3.42,6.69Z"/><path class="cls-2" d="M141.58,172.17c-.86,0-1.72,0-2.54,0H131.7l-.39.21c-1.6,3.78-2.11,4.89-4.34,9.32l-3,6-4.65,8.91.11.21,3.36-.1h3.09c1.14,0,2.26,0,3.4,0,6.75,0,12.31-.66,17.22-5.06a20.84,20.84,0,0,0,6.15-10.26c1.94-8.27-5-9.2-11.09-9.23Zm-3.49,5.36h.59c3,0,5.67.1,4.75,4a16.24,16.24,0,0,1-4.74,7.66c-2.5,2-5,2.08-7.11,2.08h-.42l4.36-8.73Z"/><path class="cls-2" d="M173.11,171.7a21.67,21.67,0,0,0-10.74,2.46c-6.87,3.78-9.36,11-9.85,13.24-.74,3.19-.74,6.75,3.54,8.66a13.3,13.3,0,0,0,3.26.87,20.68,20.68,0,0,0,3.56.27,20.27,20.27,0,0,0,11.54-3.12,21.23,21.23,0,0,0,6.72-7.45,20.9,20.9,0,0,0,2.09-5.13c.49-2.14.65-5-1.45-7.2C179.94,172.32,176.2,171.7,173.11,171.7Zm-1.95,5.1c3.59,0,3.19,2.8,2.92,3.94a16.42,16.42,0,0,1-1,2.85c-1.32,3-4.06,8.35-8.5,8.35-.29,0-2.77,0-3.1-2.22a4.89,4.89,0,0,1,.12-1.84,24.23,24.23,0,0,1,4.74-8.69,7.07,7.07,0,0,1,4.86-2.39Z"/><path class="cls-2" d="M203.71,171.7A21.72,21.72,0,0,0,193,174.16c-6.87,3.78-9.36,11-9.85,13.24-.74,3.19-.74,6.75,3.55,8.66a13,13,0,0,0,3.26.87,20.43,20.43,0,0,0,3.55.27c6.46,0,10.1-2.18,11.54-3.12a21.23,21.23,0,0,0,6.72-7.45,20.42,20.42,0,0,0,2.09-5.13c.5-2.14.65-5-1.44-7.2C210.52,172.32,206.79,171.7,203.71,171.7Zm-1.95,5.1c3.59,0,3.19,2.8,2.91,3.94a15.46,15.46,0,0,1-1,2.85c-1.32,3-4.06,8.35-8.49,8.35-.3,0-2.79,0-3.11-2.22a4.84,4.84,0,0,1,.14-1.84,24,24,0,0,1,4.74-8.69A7,7,0,0,1,201.76,176.8Z"/><path class="cls-2" d="M229.86,172.15l-9,.07-.26.2c-2.44,5.55-3.09,6.86-6.26,12.89l-2.22,4.26-3.75,7,.21.21c3.65-.1,4.71-.14,8.64-.14l.34-.17c2-4.47,2.45-5.41,4.26-8.8l1.56,0,.54,5.61.36,3.33.2.21,9-.28.22-.27-.92-4.34-1-5.54a13.56,13.56,0,0,0,6.17-3.12,9.56,9.56,0,0,0,2.82-4.85c.65-2.78-.5-4.37-2-5.2C236.93,172.23,234.2,172.19,229.86,172.15Zm-2.46,4.92h.85a5,5,0,0,1,2.72.41,1.48,1.48,0,0,1,.67,1.66,5.18,5.18,0,0,1-1.39,2.25c-1.66,1.53-3.72,1.53-5.29,1.53h-.67l2.17-4.09Z"/><path class="cls-2" d="M131.39,204.37a5.16,5.16,0,0,0-4.77-2.37c-4.39,0-9.75,3.46-11.8,7.4s-.29,7.4,4.14,7.4a14.67,14.67,0,0,0,7.19-2.37l-1.29,2.47a16.15,16.15,0,0,1-6.8,1.75c-5.56,0-8.11-4.11-5.47-9.18s9.49-9.32,15.12-9.32a6.48,6.48,0,0,1,5,1.75Z"/><path class="cls-2" d="M145.73,207.71l3.77-7.25h2.2l-9.32,17.88h-2.2l4.57-8.77H134.68l-4.57,8.77h-2.2l9.34-17.88h2.19l-3.79,7.25Z"/><path class="cls-2" d="M163.48,199.6l-18.86,18.74H147l5-5.07h8.4l-.32,5.07h2.42ZM161,204.25l-.45,7.17H153.9Z"/><path class="cls-2" d="M174.55,199.69l7.74,14.61,7.22-13.85h2.19L182,219.15l-7.74-14.59L167,218.34h-2.19Z"/><path class="cls-2" d="M196.34,199.69l7.74,14.61,7.21-13.85h2.2l-9.75,18.69L196,204.56l-7.19,13.78h-2.19Z"/><path class="cls-2" d="M217.59,200.46H227.8l-1,1.85h-8L216,207.62h7.79l-1,1.85h-7.79l-3.66,7h8l-1,1.85h-10.2Z"/><path class="cls-2" d="M225.36,216.49h5.42l-1,1.85H222.2l9.32-17.89h2.19Z"/><path class="cls-2" d="M63.48,171.7a21.75,21.75,0,0,0-10.75,2.46c-6.87,3.78-9.36,11-9.84,13.24-.75,3.19-.75,6.75,3.54,8.66a13.16,13.16,0,0,0,3.26.87,20.58,20.58,0,0,0,3.56.27c6.45,0,10.09-2.18,11.52-3.12a21.11,21.11,0,0,0,6.72-7.45,20,20,0,0,0,2.09-5.13c.5-2.14.65-5-1.44-7.2-1.85-2-5.6-2.6-8.67-2.6Zm-1.95,5.1c3.59,0,3.17,2.8,2.91,3.94a15.39,15.39,0,0,1-1,2.85c-1.34,3-4.07,8.35-8.5,8.35-.3,0-2.79,0-3.11-2.22a5.11,5.11,0,0,1,.14-1.84,24.23,24.23,0,0,1,4.74-8.69,7,7,0,0,1,4.86-2.39Z"/><path class="cls-2" d="M106,172.29l-2.26,4.43-3.27,6.45c-3.6,7.1-5.34,10-8.79,11.92a19.18,19.18,0,0,1-9.55,2.08c-3.34,0-5.89-.49-7.36-1.39a5,5,0,0,1-2.31-6,30.84,30.84,0,0,1,2.67-6.38l3.44-6.75,2-4.27.34-.2,8.94-.14.16.21L87,178.15l-2.8,5.48a30.4,30.4,0,0,0-2.51,5.72c-.49,2,1.1,2.66,2.57,2.66A5.22,5.22,0,0,0,88,190.52c1.25-1.18,1.86-2.36,4.84-8L95.58,177l2.3-4.62.3-.2c3.46,0,4.32,0,7.72-.14Z"/></g></g></g></g></svg>