<svg xmlns="http://www.w3.org/2000/svg" viewBox="0 0 283.46 283.46"><defs><style>.cls-1{fill:#babf33;}.cls-2{fill:#fff;}</style></defs><g id="Layer_2" data-name="Layer 2"><g id="Sport"><g id="outdoorchannel"><rect class="cls-1" width="283.46" height="283.46"/><g id="logo"><path class="cls-2" d="M112.64,139.43l50.55-52.76,29.7,31.13-29.85-11Z"/><path class="cls-2" d="M94.66,147.34c1.77-1.87,68.05-71.37,68.89-72.26l39.67,41.6H214L163.84,64.32l-43.75,45.46L106,94.59,44.31,162.32l195.67,0L240,161,94.66,147.34"/><path class="cls-2" d="M111.19,196.48l-.33.2-8.85.11-.15-.21,2.52-4.68,3.84-7.24,3.76-7.21-2.62,0-4.42.1-.11-.27,2.79-4.9.4-.2h14.55l7.41-.1.2.21-2.75,4.92-.4.24-3.9-.11h-2.19L118,183l-3.43,6.69Z"/><path class="cls-2" d="M141.58,172.17c-.86,0-1.73,0-2.54,0H131.7l-.38.2c-1.6,3.79-2.12,4.89-4.34,9.33l-3,6-4.65,8.9.11.21,3.36-.11h3.09c1.14,0,2.26,0,3.4,0,6.75,0,12.31-.66,17.23-5.06a20.82,20.82,0,0,0,6.14-10.26c1.94-8.27-5-9.2-11.08-9.23Zm-3.49,5.36h.59c3,0,5.67.09,4.75,4a16.29,16.29,0,0,1-4.74,7.66c-2.5,2.05-5,2.08-7.11,2.08h-.43l4.37-8.73Z"/><path class="cls-2" d="M173.11,171.7a21.68,21.68,0,0,0-10.73,2.46c-6.88,3.78-9.37,11-9.85,13.24-.74,3.19-.74,6.75,3.53,8.66a13.37,13.37,0,0,0,3.27.87,20.56,20.56,0,0,0,3.56.27,20.34,20.34,0,0,0,11.54-3.11,21.31,21.31,0,0,0,6.72-7.46,20.6,20.6,0,0,0,2.09-5.13c.49-2.14.65-4.95-1.45-7.2C179.94,172.32,176.2,171.7,173.11,171.7Zm-2,5.1c3.59,0,3.19,2.8,2.93,3.94a17.28,17.28,0,0,1-1.05,2.85c-1.33,3-4.06,8.35-8.5,8.35-.29,0-2.78,0-3.1-2.22a4.9,4.9,0,0,1,.12-1.84,24.19,24.19,0,0,1,4.74-8.69,7.06,7.06,0,0,1,4.86-2.39Z"/><path class="cls-2" d="M203.71,171.7A21.76,21.76,0,0,0,193,174.16c-6.87,3.78-9.36,11-9.85,13.24-.73,3.19-.73,6.75,3.55,8.66a13.13,13.13,0,0,0,3.27.87,20.33,20.33,0,0,0,3.54.27c6.47,0,10.1-2.18,11.54-3.11a21.35,21.35,0,0,0,6.73-7.46,20.56,20.56,0,0,0,2.08-5.13c.5-2.14.65-4.95-1.43-7.2C210.52,172.32,206.79,171.7,203.71,171.7Zm-2,5.1c3.59,0,3.19,2.8,2.91,3.94a14.93,14.93,0,0,1-1,2.85c-1.32,3-4.06,8.35-8.48,8.35-.3,0-2.79,0-3.12-2.22a5,5,0,0,1,.14-1.84,24,24,0,0,1,4.74-8.69A7,7,0,0,1,201.76,176.8Z"/><path class="cls-2" d="M229.86,172.15l-9,.08-.26.2c-2.44,5.54-3.09,6.86-6.27,12.89l-2.22,4.26-3.75,7,.21.21c3.65-.11,4.71-.14,8.64-.14l.34-.17c2-4.48,2.45-5.41,4.26-8.8l1.56,0,.54,5.61.36,3.33.2.21,9-.28.23-.27-.93-4.34-1-5.54a13.49,13.49,0,0,0,6.17-3.12,9.55,9.55,0,0,0,2.83-4.85c.65-2.77-.5-4.37-2-5.19C236.93,172.23,234.2,172.19,229.86,172.15Zm-2.46,4.92h.85a4.93,4.93,0,0,1,2.72.42,1.47,1.47,0,0,1,.68,1.66,5.32,5.32,0,0,1-1.39,2.25c-1.66,1.53-3.72,1.53-5.29,1.53h-.67l2.17-4.09Z"/><path class="cls-2" d="M131.39,204.37a5.15,5.15,0,0,0-4.77-2.38c-4.39,0-9.75,3.47-11.8,7.41s-.29,7.39,4.13,7.39a14.58,14.58,0,0,0,7.19-2.37l-1.29,2.48a16.15,16.15,0,0,1-6.8,1.75c-5.56,0-8.11-4.11-5.47-9.19s9.49-9.31,15.12-9.31a6.5,6.5,0,0,1,5,1.75Z"/><path class="cls-2" d="M145.73,207.71l3.77-7.25h2.2l-9.32,17.88h-2.2l4.57-8.78H134.68l-4.58,8.78h-2.2l9.34-17.88h2.19l-3.79,7.25Z"/><path class="cls-2" d="M163.48,199.6l-18.86,18.74H147l5-5.08h8.4l-.32,5.08h2.42ZM161,204.25l-.45,7.16H153.9Z"/><path class="cls-2" d="M174.55,199.69l7.74,14.61,7.22-13.84h2.19L182,219.15l-7.74-14.59L167,218.34h-2.19Z"/><path class="cls-2" d="M196.34,199.69l7.73,14.61,7.22-13.84h2.2l-9.75,18.69L196,204.56l-7.19,13.78h-2.19Z"/><path class="cls-2" d="M217.59,200.46H227.8l-1,1.84h-8L216,207.62h7.78l-1,1.84h-7.79l-3.66,7h8l-1,1.85h-10.2Z"/><path class="cls-2" d="M225.36,216.49h5.43l-1,1.85H222.2l9.32-17.89h2.19Z"/><path class="cls-2" d="M63.48,171.7a21.81,21.81,0,0,0-10.75,2.46c-6.87,3.78-9.36,11-9.83,13.24-.75,3.19-.75,6.75,3.53,8.66a13.25,13.25,0,0,0,3.27.87,20.48,20.48,0,0,0,3.56.27c6.45,0,10.09-2.18,11.52-3.11a21.15,21.15,0,0,0,6.73-7.46,19.83,19.83,0,0,0,2.08-5.13c.5-2.14.65-4.95-1.43-7.2-1.85-2-5.6-2.6-8.68-2.6Zm-1.95,5.1c3.59,0,3.18,2.8,2.92,3.94a16.36,16.36,0,0,1-1,2.85c-1.34,3-4.08,8.35-8.5,8.35-.3,0-2.79,0-3.11-2.22a5.08,5.08,0,0,1,.13-1.84,24.19,24.19,0,0,1,4.74-8.69,7,7,0,0,1,4.86-2.39Z"/><path class="cls-2" d="M106,172.29l-2.26,4.43-3.28,6.46c-3.6,7.09-5.34,10-8.79,11.91a19.19,19.19,0,0,1-9.55,2.08c-3.33,0-5.88-.49-7.36-1.39a5,5,0,0,1-2.31-6,31,31,0,0,1,2.67-6.38l3.44-6.75,2-4.27.34-.2,8.94-.14.16.21L87,178.15l-2.8,5.47c-1.59,3.19-2.24,4.54-2.51,5.73-.49,2,1.1,2.66,2.57,2.66A5.26,5.26,0,0,0,88,190.52c1.25-1.17,1.86-2.36,4.83-8L95.58,177l2.3-4.62.3-.2c3.46,0,4.33,0,7.73-.14Z"/></g></g></g></g></svg>