<?xml version="1.0" encoding="UTF-8" standalone="no"?>
<svg
   xmlns:dc="http://purl.org/dc/elements/1.1/"
   xmlns:cc="http://creativecommons.org/ns#"
   xmlns:rdf="http://www.w3.org/1999/02/22-rdf-syntax-ns#"
   xmlns:svg="http://www.w3.org/2000/svg"
   xmlns="http://www.w3.org/2000/svg"
   xmlns:sodipodi="http://sodipodi.sourceforge.net/DTD/sodipodi-0.dtd"
   xmlns:inkscape="http://www.inkscape.org/namespaces/inkscape"
   width="295.58701"
   height="82.834999"
   version="1.1"
   viewBox="0 0 177.3504 49.70171"
   id="svg2"
   inkscape:version="0.91 r13725"
   sodipodi:docname="Pornhub.svg">
  <metadata
     id="metadata16">
    <rdf:RDF>
      <cc:Work
         rdf:about="">
        <dc:format>image/svg+xml</dc:format>
        <dc:type
           rdf:resource="http://purl.org/dc/dcmitype/StillImage" />
        <dc:title></dc:title>
      </cc:Work>
    </rdf:RDF>
  </metadata>
  <defs
     id="defs14" />
  <sodipodi:namedview
     pagecolor="#ffffff"
     bordercolor="#666666"
     borderopacity="1"
     objecttolerance="10"
     gridtolerance="10"
     guidetolerance="10"
     inkscape:pageopacity="0"
     inkscape:pageshadow="2"
     inkscape:window-width="1680"
     inkscape:window-height="931"
     id="namedview12"
     showgrid="false"
     inkscape:zoom="0.94033424"
     inkscape:cx="164.83501"
     inkscape:cy="58.305"
     inkscape:window-x="0"
     inkscape:window-y="1"
     inkscape:window-maximized="1"
     inkscape:current-layer="svg2" />
  <path
     d="m 173.65853,-2.9095079e-4 -72.121,0 C 99.29353,0.25170905 98.05953,1.623709 97.84153,4.127709 l 0,41.445 c 0.215,2.501 1.447,3.868 3.676,4.129 l 72.158,0 c 2.23,-0.261 3.461,-1.629 3.677,-4.129 l 0,-41.445 c -0.217,-2.504 -1.452,-3.87599995 -3.694,-4.12799995079"
     id="path6"
     inkscape:connector-curvature="0"
     style="fill:#f7971d" />
  <path
     d="m 170.04853,19.300709 c -1.224,-1.352 -2.868,-2.22 -4.659,-2.619 -0.513,-0.136 -1.099,-0.233 -1.751,-0.262 -2.368,-0.215 -5.41,0.732 -6.824,1.919 l 0.343,-9.704 -5.759,0 0,30.044 5.35,0 0,-1.655 c 1.233,0.993 3.213,2.146 6.229,2.146 0.118,0 0.23,-10e-4 0.339,-0.003 0.078,0.002 0.157,0.003 0.235,0.003 2.528,0 4.677,-1.004 6.445,-3.012 1.769,-2.01 2.654,-4.87 2.654,-8.586 0,-3.594 -0.868,-6.35 -2.602,-8.271 m -4.642,13.691 c -0.894,1.086 -1.977,1.628 -3.248,1.628 -1.654,0 -2.979,-0.765 -3.976,-2.295 -0.71,-1.079 -1.066,-2.745 -1.066,-5 0,-2.186 0.458,-3.815 1.373,-4.887 0.916,-1.072 2.063,-1.609 3.443,-1.609 1.408,0 2.562,0.55 3.464,1.649 0.901,1.1 1.353,2.894 1.353,5.379 0,2.338 -0.448,4.048 -1.343,5.135 m -23.289,-6.897 c 0,3.115 -0.143,5.072 -0.43,5.872 -0.287,0.799 -0.82,1.469 -1.599,2.007 -0.778,0.541 -1.66,0.81 -2.643,0.81 -0.861,0 -1.572,-0.201 -2.132,-0.604 -0.56,-0.403 -0.947,-0.95 -1.158,-1.64 -0.212,-0.69 -0.317,-2.564 -0.317,-5.626 l 0,-10 -5.758,0 0,13.772 c 0,2.049 0.259,3.654 0.778,4.816 0.519,1.161 1.359,2.063 2.52,2.705 1.162,0.642 2.473,0.963 3.935,0.963 0.219,0 0.436,-0.008 0.651,-0.023 0.01,0 0.011,0 0.017,-0.002 3.665,-0.106 5.574,-1.768 6.546,-2.864 l 0,2.397 5.348,0 0,-21.764 -5.758,0 z m -18.79,-7.049 c -0.54,-0.764 -1.342,-1.393 -2.407,-1.885 -0.964,-0.445 -2.033,-0.686 -3.209,-0.729 -0.02,-0.001 -0.038,-0.003 -0.058,-0.004 -2.427,-0.129 -5.531,0.579 -6.98,1.973 l 0,-9.766 -5.758,0 0,30.043 5.758,0 0,-10.901 c 0,-1.831 0.175,-3.215 0.523,-4.15 0.349,-0.937 0.898,-1.637 1.65,-2.102 0.751,-0.463 1.604,-0.696 2.562,-0.696 0.832,0 1.527,0.181 2.079,0.543 0.553,0.362 0.94,0.851 1.158,1.465 0.218,0.616 0.328,2.063 0.328,4.344 l 0,11.497 5.758,0 0,-12.767 c 0,-1.953 -0.1,-3.395 -0.298,-4.323 -0.197,-0.931 -0.567,-1.777 -1.106,-2.542"
     id="path8"
     inkscape:connector-curvature="0" />
  <path
     d="m 90.85853,20.363709 c -0.223,-0.948 -0.618,-1.797 -1.184,-2.544 -0.569,-0.747 -1.406,-1.362 -2.513,-1.843 -1.107,-0.481 -2.328002,-0.721 -3.665002,-0.721 -2.423,-0.138 -6.356,0.787 -7.544,2.669 l 0,-2.153 -5.626,0 0,22.892 6.057,0 0,-10.367 c 0,-2.558 0.155,-4.312 0.464,-5.26 0.308,-0.949 0.88,-1.71 1.714,-2.285 0.833,-0.575 1.774,-0.863 2.823,-0.863 0.819,0 1.52,0.203 2.102,0.604 0.582,0.402 1.003,0.967 1.261,1.692 0.259,0.727 0.388,2.325 0.388,4.796 l 0,11.683 6.057002,0 0,-14.226 c 0,-1.768 -0.111,-3.126 -0.334,-4.074 m -28.861002,-5.021 c -1.792,0.229 -3.505,1.675 -4.255,2.596 l 0,-2.166 -5.626,0 0,22.892 6.057,0 0,-7.07 c 0,-3.895 0.169,-6.452 0.507,-7.674 0.337,-1.222 0.801,-2.065 1.39,-2.533 0.589,-0.467 1.308,-0.701 2.156,-0.701 0.876,0 1.824,0.33 2.845,0.991 l 1.876,-5.281 c -1.279,-0.761 -2.609,-1.141 -3.988,-1.141 -0.333,0 -0.653,0.03 -0.962,0.087 m -24.704,-0.088 c -2.242,0 -4.272,0.495 -6.089,1.488 -1.819,0.99 -3.223,2.427 -4.215,4.31 -0.991,1.883 -1.487,3.83 -1.487,5.842 0,2.63 0.496,4.861 1.487,6.692 0.992,1.834 2.439,3.224 4.344,4.171 1.904,0.948 3.905,1.424 6.003,1.424 3.391,0 6.204,-1.139 8.439,-3.417 2.235,-2.278 3.352,-5.148 3.352,-8.613 0,-3.433 -1.106,-6.275 -3.319,-8.524 -2.214,-2.248 -5.052,-3.373 -8.515,-3.373 m 3.999,17.18 c -1.071,1.207 -2.397,1.811 -3.978,1.811 -1.581,0 -2.91,-0.604 -3.987,-1.811 -1.078,-1.208 -1.617,-2.947 -1.617,-5.217 0,-2.27 0.539,-4.01 1.617,-5.217 1.077,-1.206 2.406,-1.81 3.987,-1.81 1.581,0 2.907,0.604 3.978,1.81 1.07,1.207 1.606,2.933 1.606,5.174 0,2.3 -0.536,4.052 -1.606,5.26 m -23.469,-24.897 c -1.178,-0.317 -3.707,-0.475 -7.587,-0.475 l -10.23899996,0 0,31.601 6.37999996,0 0,-11.92 4.16,0 c 2.889,0 5.095,-0.151 6.618,-0.453 1.122,-0.244 2.224,-0.744 3.309,-1.498 1.085,-0.754 1.979,-1.792 2.684,-3.115 0.704,-1.321 1.056,-2.953 1.056,-4.893 0,-2.515 -0.611,-4.566 -1.832,-6.155 -1.222,-1.587 -2.738,-2.619 -4.549,-3.092 m -0.916,11.791 c -0.481,0.705 -1.145,1.222 -1.993,1.552 -0.848,0.33 -2.531,0.495 -5.045,0.495 l -3.492,0 0,-8.967 3.083,0 c 2.299,0 3.83,0.072 4.591,0.216 1.035,0.187 1.89,0.654 2.566,1.401 0.674,0.747 1.013,1.695 1.013,2.845 0,0.934 -0.242,1.754 -0.723,2.458"
     id="path10"
     inkscape:connector-curvature="0"
     style="fill:#000000;fill-opacity:1" />
</svg>
