<svg xmlns="http://www.w3.org/2000/svg" viewBox="0 0 283.46 283.46"><defs><style>.cls-1{fill:#7cc091;}.cls-2{fill:#fff;}</style></defs><g id="Layer_2" data-name="Layer 2"><g id="MWE_Networks_International" data-name="MWE Networks International"><g id="powertv"><rect class="cls-1" width="283.46" height="283.46"/><g id="logo"><path class="cls-2" d="M171.8,135.25a1.6,1.6,0,0,0-.91-.27H160.06v3.12h10.83a1.44,1.44,0,0,0,1.56-1.55,1.38,1.38,0,0,0-.65-1.3"/><path class="cls-2" d="M66.27,135.25a1.62,1.62,0,0,0-.91-.27H54.54v3.12H65.36a1.44,1.44,0,0,0,1.56-1.55,1.36,1.36,0,0,0-.65-1.3"/><path class="cls-2" d="M86.66,135A6.23,6.23,0,1,0,91,136.81,6,6,0,0,0,86.66,135"/><path class="cls-2" d="M182.91,124H53a10.48,10.48,0,0,0-10.48,10.48v24.92h173A25.42,25.42,0,0,0,240.94,134V124ZM71.1,141.92a7.8,7.8,0,0,1-3.71,2,9.23,9.23,0,0,1-2,.32H54.54v9.29H48.33v-17.3a7.48,7.48,0,0,1,7.47-7.46h9.56a7.92,7.92,0,0,1,2,.29,7.64,7.64,0,0,1,3.71,2,7.39,7.39,0,0,1,2,5.45,7.28,7.28,0,0,1-2,5.37m24.29,8a12.41,12.41,0,0,1-17.5,0,12.06,12.06,0,0,1-3.62-8.78,12.35,12.35,0,0,1,21.12-8.72A11.84,11.84,0,0,1,99,141.18,12,12,0,0,1,95.39,150m30.18,3.61h-5.74l-6.65-6.65-6.64,6.65H100.8V128.81H107v15.55l6.18-6.2,6.21,6.2V128.81h6.18v24.76ZM152.1,135H133.54v3.12h6.94v6.18h-6.94v3.11H152.1v6.18H127.33V128.81H152.1V135Zm25.81,11.5a13.42,13.42,0,0,1,.71,4v3.09h-6.17v-3.09a5.64,5.64,0,0,0-1.89-4.59,6.31,6.31,0,0,0-4.32-1.61h-6.18v9.29h-6.2V128.81h17a8,8,0,0,1,2,.29,7.64,7.64,0,0,1,3.71,2,7.38,7.38,0,0,1,2,5.45,8.47,8.47,0,0,1-.78,3.76,6.79,6.79,0,0,1-1.86,2.2,13,13,0,0,1,1.93,4M210,135.58h-8.59v17.16H195.7V135.58h-8.59v-5.71H210Zm24.5-.71a17.87,17.87,0,0,1-17.88,17.87h-5V129.87h5.74V147a10.56,10.56,0,0,0,8.06-3.61,12.14,12.14,0,0,0,3.38-8.54v-5h5.7v5Z"/></g></g></g></g></svg>