<?xml version="1.0" standalone="yes"?>
<svg xmlns="http://www.w3.org/2000/svg" width="1024" height="1024">
<path style="fill:#4145c5; stroke:none;" d="M0 0L0 1024L1024 1024L1024 0L0 0z"/>
<path style="fill:#ffffff; stroke:none;" d="M157 243L157 781L695 781L695 243L157 243z"/>
<path style="fill:#4145c5; stroke:none;" d="M582 404L578 413L580 433L588 443L597 448L622 445L631 436L634 430L635 414L633 408L631 408L632 406L623 396C617.454 395.656 612.782 391.739 607 391.57C596.705 391.27 589.688 398.606 582 404z"/>
<path style="fill:#999ae0; stroke:none;" d="M599.667 392.333L600.333 392.667L599.667 392.333z"/>
<path style="fill:#bdbeeb; stroke:none;" d="M601 392L602 393L601 392M611 392L612 393L611 392z"/>
<path style="fill:#999ae0; stroke:none;" d="M612 392L613 393L612 392M596 393L597 394L596 393z"/>
<path style="fill:#bdbeeb; stroke:none;" d="M597 393L598 394L597 393M615 393L616 394L615 393z"/>
<path style="fill:#999ae0; stroke:none;" d="M616 393L617 394L616 393M594 394L595 395L594 394M618 394L619 395L618 394M592 395L593 396L592 395M620 395L621 396L620 395M590 396L591 397L590 396z"/>
<path style="fill:#bdbeeb; stroke:none;" d="M621 396L622 397L621 396z"/>
<path style="fill:#999ae0; stroke:none;" d="M589 397L590 398L589 397M623 397L624 398L623 397z"/>
<path style="fill:#bdbeeb; stroke:none;" d="M588 398L589 399L588 398M624 398L625 399L624 398M587 399L588 400L587 399M625 399L626 400L625 399M626 400L627 401L626 400M585 401L586 402L585 401M627 401L628 402L627 401M584 402L585 403L584 402z"/>
<path style="fill:#999ae0; stroke:none;" d="M628 402L629 403L628 402M583 403L584 404L583 403M629 403L630 404L629 403z"/>
<path style="fill:#bdbeeb; stroke:none;" d="M629 404L630 405L629 404M582 405L583 406L582 405M630 405L631 406L630 405z"/>
<path style="fill:#999ae0; stroke:none;" d="M219 406L219 407L301 407L276 406L219 406z"/>
<path style="fill:#4145c5; stroke:none;" d="M218 407L218 616L273 616L273 536L275 539L280 547L282 550L287 558L289 561L294 569L296 572L303 583L310 594L317 605L324 616L392 616L392 613L385 604L382 600L379 596L372 587L369 583L362 574L359 570L356 566L349 557L346 553L339 544L336 540L333 536L327 531L327 530L348 524L351 522L357 517L366 505L369 499L373.204 478L370 445L360 428L355 423L345 416L339 413L304 406.39L218 407z"/>
<path style="fill:#999ae0; stroke:none;" d="M581 406L582 407L581 406z"/>
<path style="fill:#ffffff; stroke:none;" d="M757 406L757 435L758.603 445.972L769 447L795 447L795 577L771 577L771 622L867 622L867 577L846 577L846 406L757 406z"/>
<path style="fill:#bdbeeb; stroke:none;" d="M309 407L309 408L313 408L309 407z"/>
<path style="fill:#999ae0; stroke:none;" d="M313 407L313 408L316 408L313 407z"/>
<path style="fill:#bdbeeb; stroke:none;" d="M581 407L582 408L581 407M631 407L632 408L631 407M319 408L320 409L319 408z"/>
<path style="fill:#999ae0; stroke:none;" d="M320.667 408.333L321.333 408.667L320.667 408.333M580 408L581 409L580 408z"/>
<path style="fill:#bdbeeb; stroke:none;" d="M324 409L325 410L324 409z"/>
<path style="fill:#999ae0; stroke:none;" d="M325 409L326 410L325 409z"/>
<path style="fill:#bdbeeb; stroke:none;" d="M632 409L633 410L632 409M328 410L329 411L328 410z"/>
<path style="fill:#999ae0; stroke:none;" d="M329 410L330 411L329 410M579 410L580 411L579 410z"/>
<path style="fill:#bdbeeb; stroke:none;" d="M331 411L332 412L331 411z"/>
<path style="fill:#999ae0; stroke:none;" d="M332 411L333 412L332 411z"/>
<path style="fill:#bdbeeb; stroke:none;" d="M579 411L580 412L579 411z"/>
<path style="fill:#999ae0; stroke:none;" d="M633 411L634 412L633 411z"/>
<path style="fill:#bdbeeb; stroke:none;" d="M334 412L335 413L334 412z"/>
<path style="fill:#999ae0; stroke:none;" d="M335 412L336 413L335 412z"/>
<path style="fill:#7be274; stroke:none;" d="M579 412L580 413L579 412z"/>
<path style="fill:#bdbeeb; stroke:none;" d="M633 412L634 413L633 412M337 413L338 414L337 413z"/>
<path style="fill:#7be274; stroke:none;" d="M633 413L634 414L633 413z"/>
<path style="fill:#bdbeeb; stroke:none;" d="M339 414L340 415L339 414z"/>
<path style="fill:#999ae0; stroke:none;" d="M340 414L341 415L340 414M578 414L579 415L578 414z"/>
<path style="fill:#bdbeeb; stroke:none;" d="M341 415L342 416L341 415z"/>
<path style="fill:#999ae0; stroke:none;" d="M342 415L343 416L342 415z"/>
<path style="fill:#bdbeeb; stroke:none;" d="M578.333 415.667L578.667 416.333L578.333 415.667z"/>
<path style="fill:#999ae0; stroke:none;" d="M634.333 415.667L634.667 416.333L634.333 415.667z"/>
<path style="fill:#bdbeeb; stroke:none;" d="M343 416L344 417L343 416M345 417L346 418L345 417M634 417L634 423L635 423L634 417z"/>
<path style="fill:#999ae0; stroke:none;" d="M347 418L348 419L347 418z"/>
<path style="fill:#bdbeeb; stroke:none;" d="M348 419L349 420L348 419z"/>
<path style="fill:#999ae0; stroke:none;" d="M349 419L350 420L349 419M350 420L351 421L350 420z"/>
<path style="fill:#bdbeeb; stroke:none;" d="M351 421L352 422L351 421M352 422L353 423L352 422M578 422L578 425L579 425L578 422z"/>
<path style="fill:#999ae0; stroke:none;" d="M634 423L634 426L635 426L634 423M355 424L356 425L355 424M356 425L357 426L356 425M578.333 425.667L578.667 426.333L578.333 425.667M357 426L358 427L357 426M358 427L359 428L358 427z"/>
<path style="fill:#bdbeeb; stroke:none;" d="M633 427L634 428L633 427M579 428L580 429L579 428z"/>
<path style="fill:#999ae0; stroke:none;" d="M633 428L634 429L633 428M579 429L580 430L579 429z"/>
<path style="fill:#bdbeeb; stroke:none;" d="M360 430L361 431L360 430M632 430L633 431L632 430z"/>
<path style="fill:#999ae0; stroke:none;" d="M361 431L362 432L361 431z"/>
<path style="fill:#bdbeeb; stroke:none;" d="M580 431L581 432L580 431z"/>
<path style="fill:#999ae0; stroke:none;" d="M632 431L633 432L632 431M362 432L363 433L362 432z"/>
<path style="fill:#7be274; stroke:none;" d="M362 433L363 434L362 433z"/>
<path style="fill:#bdbeeb; stroke:none;" d="M581 433L582 434L581 433z"/>
<path style="fill:#999ae0; stroke:none;" d="M631 433L632 434L631 433z"/>
<path style="fill:#bdbeeb; stroke:none;" d="M363 434L364 435L363 434z"/>
<path style="fill:#999ae0; stroke:none;" d="M581 434L582 435L581 434M364 435L365 436L364 435M582 435L583 436L582 435z"/>
<path style="fill:#bdbeeb; stroke:none;" d="M583 436L584 437L583 436z"/>
<path style="fill:#999ae0; stroke:none;" d="M629 436L630 437L629 436M365 437L366 438L365 437M583 437L584 438L583 437z"/>
<path style="fill:#bdbeeb; stroke:none;" d="M628 437L629 438L628 437z"/>
<path style="fill:#999ae0; stroke:none;" d="M584 438L585 439L584 438z"/>
<path style="fill:#bdbeeb; stroke:none;" d="M366 439L367 440L366 439z"/>
<path style="fill:#999ae0; stroke:none;" d="M585 439L586 440L585 439M586 440L587 441L586 440M367 441L368 442L367 441M587 441L588 442L587 441z"/>
<path style="fill:#bdbeeb; stroke:none;" d="M624 441L625 442L624 441M623 442L624 443L623 442z"/>
<path style="fill:#999ae0; stroke:none;" d="M368 443L369 444L368 443z"/>
<path style="fill:#bdbeeb; stroke:none;" d="M590 443L591 444L590 443z"/>
<path style="fill:#999ae0; stroke:none;" d="M622 443L623 444L622 443z"/>
<path style="fill:#bdbeeb; stroke:none;" d="M368 444L369 445L368 444z"/>
<path style="fill:#999ae0; stroke:none;" d="M591 444L592 445L591 444z"/>
<path style="fill:#bdbeeb; stroke:none;" d="M620 444L621 445L620 444z"/>
<path style="fill:#999ae0; stroke:none;" d="M593 445L594 446L593 445z"/>
<path style="fill:#bdbeeb; stroke:none;" d="M594 445L595 446L594 445M618 445L619 446L618 445z"/>
<path style="fill:#999ae0; stroke:none;" d="M619 445L620 446L619 445z"/>
<path style="fill:#bdbeeb; stroke:none;" d="M369.333 446.667L369.667 447.333L369.333 446.667z"/>
<path style="fill:#999ae0; stroke:none;" d="M595 446L596 447L595 446z"/>
<path style="fill:#bdbeeb; stroke:none;" d="M596 446L597 447L596 446M616 446L617 447L616 446z"/>
<path style="fill:#999ae0; stroke:none;" d="M617 446L618 447L617 446M598 447L599 448L598 447z"/>
<path style="fill:#bdbeeb; stroke:none;" d="M599 447L600 448L599 447M612.667 447.333L613.333 447.667L612.667 447.333z"/>
<path style="fill:#999ae0; stroke:none;" d="M614 447L615 448L614 447z"/>
<path style="fill:#7be274; stroke:none;" d="M273 448L274 449L273 448z"/>
<path style="fill:#bdbeeb; stroke:none;" d="M273 501L274 501L274 449L285 449C282.048 447.761 275.389 446.69 273.603 450.318C271.732 454.122 273 460.845 273 465L273 501z"/>
<path style="fill:#ffffff; stroke:none;" d="M274 449L274 501L301 499C303.889 496.071 308.588 495.022 311.051 491.817C323.353 475.809 312.931 462.284 302 451L299 450L274 449z"/>
<path style="fill:#7be274; stroke:none;" d="M286 448L287 449L286 448z"/>
<path style="fill:#999ae0; stroke:none;" d="M370.333 448.667L370.667 449.333L370.333 448.667M602 448L602 449L606 449L602 448z"/>
<path style="fill:#bdbeeb; stroke:none;" d="M606 448L607 449L606 448z"/>
<path style="fill:#999ae0; stroke:none;" d="M607 448L607 449L611 449L607 448M290.667 449.333L291.333 449.667L290.667 449.333z"/>
<path style="fill:#bdbeeb; stroke:none;" d="M292.667 449.333L293.333 449.667L292.667 449.333z"/>
<path style="fill:#999ae0; stroke:none;" d="M295.667 450.333L296.333 450.667L295.667 450.333z"/>
<path style="fill:#bdbeeb; stroke:none;" d="M297 450L298 451L297 450M370 450L371 451L370 450z"/>
<path style="fill:#999ae0; stroke:none;" d="M300 451L301 452L300 451M302 452L303 453L302 452z"/>
<path style="fill:#bdbeeb; stroke:none;" d="M303 452L304 453L303 452z"/>
<path style="fill:#999ae0; stroke:none;" d="M371 452L372 453L371 452z"/>
<path style="fill:#bdbeeb; stroke:none;" d="M305 453L306 454L305 453M371.333 453.667L371.667 454.333L371.333 453.667z"/>
<path style="fill:#999ae0; stroke:none;" d="M306 454L307 455L306 454z"/>
<path style="fill:#7be274; stroke:none;" d="M307 454L308 455L307 454z"/>
<path style="fill:#bdbeeb; stroke:none;" d="M307.667 455.333L308.333 455.667L307.667 455.333M309 456L310 457L309 456z"/>
<path style="fill:#999ae0; stroke:none;" d="M310 457L311 458L310 457M372.333 457.667L372.667 458.333L372.333 457.667z"/>
<path style="fill:#bdbeeb; stroke:none;" d="M311 458L312 459L311 458M312 459L313 460L312 459M372 459L373 460L372 459z"/>
<path style="fill:#999ae0; stroke:none;" d="M313 461L314 462L313 461z"/>
<path style="fill:#7be274; stroke:none;" d="M314 462L315 463L314 462z"/>
<path style="fill:#999ae0; stroke:none;" d="M314 463L315 464L314 463M373 464L373 478L374 478L373 464z"/>
<path style="fill:#bdbeeb; stroke:none;" d="M315 465L316 466L315 465z"/>
<path style="fill:#999ae0; stroke:none;" d="M315 466L316 467L315 466z"/>
<path style="fill:#7be274; stroke:none;" d="M316 468L317 469L316 468z"/>
<path style="fill:#bdbeeb; stroke:none;" d="M316 469L317 470L316 469z"/>
<path style="fill:#4145c5; stroke:none;" d="M433 472L418 479L415 481L411 484L400 495L397 499L395 502L387 519L383.66 552L389 578L411 608L415 611L418 613L425 615L425 617L454 622.829L476 621L479 620C485.061 613.874 497.466 611.764 499 602L501 618L552 619L551 570L551 474L501 474L499 488L487 476L485 475L463 469.799L433 472z"/>
<path style="fill:#999ae0; stroke:none;" d="M448 469L448 470L452 470L448 469z"/>
<path style="fill:#bdbeeb; stroke:none;" d="M452 469L452 470L459 470L452 469z"/>
<path style="fill:#999ae0; stroke:none;" d="M459 469L459 470L463 470L459 469M316 470L316 479L317 479L316 470M441.667 470.333L442.333 470.667L441.667 470.333z"/>
<path style="fill:#bdbeeb; stroke:none;" d="M443.667 470.333L444.333 470.667L443.667 470.333M466.667 470.333L467.333 470.667L466.667 470.333z"/>
<path style="fill:#999ae0; stroke:none;" d="M468.667 470.333L469.333 470.667L468.667 470.333M437 471L438 472L437 471z"/>
<path style="fill:#bdbeeb; stroke:none;" d="M438 471L439 472L438 471M472 471L473 472L472 471z"/>
<path style="fill:#999ae0; stroke:none;" d="M473 471L474 472L473 471M434 472L435 473L434 472z"/>
<path style="fill:#bdbeeb; stroke:none;" d="M435 472L436 473L435 472M475 472L476 473L475 472z"/>
<path style="fill:#999ae0; stroke:none;" d="M476 472L477 473L476 472M430.667 473.333L431.333 473.667L430.667 473.333z"/>
<path style="fill:#bdbeeb; stroke:none;" d="M432 473L433 474L432 473M478 473L479 474L478 473z"/>
<path style="fill:#999ae0; stroke:none;" d="M479 473L480 474L479 473M428 474L429 475L428 474z"/>
<path style="fill:#bdbeeb; stroke:none;" d="M429 474L430 475L429 474z"/>
<path style="fill:#999ae0; stroke:none;" d="M481.667 474.333L482.333 474.667L481.667 474.333M500 474L500 488L501 488L500 474M551 474L551 618L552 618L552 517C552 504.794 555.707 485.218 551 474M426 475L427 476L426 475z"/>
<path style="fill:#bdbeeb; stroke:none;" d="M483 475L484 476L483 475z"/>
<path style="fill:#4145c5; stroke:none;" d="M581 475L581 617L631 617L631 475L581 475z"/>
<path style="fill:#bdbeeb; stroke:none;" d="M631 475L632 476L631 475z"/>
<path style="fill:#999ae0; stroke:none;" d="M424 476L425 477L424 476z"/>
<path style="fill:#bdbeeb; stroke:none;" d="M485 476L486 477L485 476z"/>
<path style="fill:#999ae0; stroke:none;" d="M422 477L423 478L422 477M487 477L488 478L487 477M420 478L421 479L420 478z"/>
<path style="fill:#7be274; stroke:none;" d="M488 478L489 479L488 478z"/>
<path style="fill:#999ae0; stroke:none;" d="M489 478L490 479L489 478z"/>
<path style="fill:#bdbeeb; stroke:none;" d="M316.333 479.667L316.667 480.333L316.333 479.667M419 479L420 480L419 479M490 479L491 480L490 479z"/>
<path style="fill:#999ae0; stroke:none;" d="M417 480L418 481L417 480M492 480L493 481L492 480z"/>
<path style="fill:#bdbeeb; stroke:none;" d="M493 481L494 482L493 481M372 482L373 483L372 482z"/>
<path style="fill:#999ae0; stroke:none;" d="M414 482L415 483L414 482z"/>
<path style="fill:#bdbeeb; stroke:none;" d="M494 482L495 483L494 482z"/>
<path style="fill:#999ae0; stroke:none;" d="M315 483L316 484L315 483M372.333 483.667L372.667 484.333L372.333 483.667z"/>
<path style="fill:#bdbeeb; stroke:none;" d="M413 483L414 484L413 483M315 484L316 485L315 484z"/>
<path style="fill:#7be274; stroke:none;" d="M496 484L497 485L496 484z"/>
<path style="fill:#999ae0; stroke:none;" d="M410 485L411 486L410 485z"/>
<path style="fill:#bdbeeb; stroke:none;" d="M314 486L315 487L314 486z"/>
<path style="fill:#999ae0; stroke:none;" d="M409 486L410 487L409 486z"/>
<path style="fill:#bdbeeb; stroke:none;" d="M371 487L372 488L371 487M408 487L409 488L408 487z"/>
<path style="fill:#7be274; stroke:none;" d="M499 487L500 488L499 487z"/>
<path style="fill:#bdbeeb; stroke:none;" d="M313 488L314 489L313 488z"/>
<path style="fill:#999ae0; stroke:none;" d="M371 488L372 489L371 488z"/>
<path style="fill:#bdbeeb; stroke:none;" d="M407 488L408 489L407 488z"/>
<path style="fill:#999ae0; stroke:none;" d="M312 489L313 490L312 489z"/>
<path style="fill:#bdbeeb; stroke:none;" d="M406 489L407 490L406 489M405 490L406 491L405 490M370 491L371 492L370 491M404 491L405 492L404 491z"/>
<path style="fill:#999ae0; stroke:none;" d="M370 492L371 493L370 492M403 492L404 493L403 492M402 493L403 494L402 493M307 494L308 495L307 494z"/>
<path style="fill:#bdbeeb; stroke:none;" d="M369 494L370 495L369 494z"/>
<path style="fill:#999ae0; stroke:none;" d="M401 494L402 495L401 494M305 495L306 496L305 495z"/>
<path style="fill:#bdbeeb; stroke:none;" d="M306 495L307 496L306 495z"/>
<path style="fill:#999ae0; stroke:none;" d="M369 495L370 496L369 495z"/>
<path style="fill:#bdbeeb; stroke:none;" d="M303 496L304 497L303 496z"/>
<path style="fill:#999ae0; stroke:none;" d="M304 496L305 497L304 496z"/>
<path style="fill:#bdbeeb; stroke:none;" d="M302 497L303 498L302 497M368 497L369 498L368 497M399 497L400 498L399 497z"/>
<path style="fill:#999ae0; stroke:none;" d="M299 498L300 499L299 498M398 498L399 499L398 498M294.667 499.333L295.333 499.667L294.667 499.333z"/>
<path style="fill:#bdbeeb; stroke:none;" d="M296 499L297 500L296 499M367 499L368 500L367 499z"/>
<path style="fill:#999ae0; stroke:none;" d="M283 500L284 501L283 500M286 500L286 501L290 501L286 500z"/>
<path style="fill:#bdbeeb; stroke:none;" d="M290 500L290 501L293 501L290 500z"/>
<path style="fill:#999ae0; stroke:none;" d="M367 500L368 501L367 500z"/>
<path style="fill:#bdbeeb; stroke:none;" d="M397 500L398 501L397 500z"/>
<path style="fill:#999ae0; stroke:none;" d="M396 501L397 502L396 501M366 502L367 503L366 502z"/>
<path style="fill:#bdbeeb; stroke:none;" d="M365 503L366 504L365 503M395 503L396 504L395 503z"/>
<path style="fill:#999ae0; stroke:none;" d="M394 504L395 505L394 504z"/>
<path style="fill:#bdbeeb; stroke:none;" d="M364 505L365 506L364 505z"/>
<path style="fill:#999ae0; stroke:none;" d="M393 506L394 507L393 506M363 507L364 508L363 507z"/>
<path style="fill:#bdbeeb; stroke:none;" d="M362 508L363 509L362 508z"/>
<path style="fill:#999ae0; stroke:none;" d="M392 508L393 509L392 508M361 510L362 511L361 510M391 510L392 511L391 510M360 511L361 512L360 511z"/>
<path style="fill:#7be274; stroke:none;" d="M391 511L392 512L391 511z"/>
<path style="fill:#bdbeeb; stroke:none;" d="M359 512L360 513L359 512z"/>
<path style="fill:#999ae0; stroke:none;" d="M390 512L391 513L390 512z"/>
<path style="fill:#bdbeeb; stroke:none;" d="M358 513L359 514L358 513M465 513L466 514L465 513z"/>
<path style="fill:#ffffff; stroke:none;" d="M445 522L444 523L441 527L437.326 540L437 557L438 560C441.698 563.582 443.924 568.323 448.015 571.61C460.286 581.471 472.518 575.846 486 576L501 559L502 537L497 526L487 517L466 513.867L445 522z"/>
<path style="fill:#bdbeeb; stroke:none;" d="M467 513L467 514L472 514L467 513z"/>
<path style="fill:#999ae0; stroke:none;" d="M389 514L390 515L389 514z"/>
<path style="fill:#bdbeeb; stroke:none;" d="M460 514L461 515L460 514z"/>
<path style="fill:#999ae0; stroke:none;" d="M461.667 514.333L462.333 514.667L461.667 514.333M476 514L477 515L476 514z"/>
<path style="fill:#bdbeeb; stroke:none;" d="M477 514L478 515L477 514M389 515L390 516L389 515M457 515L458 516L457 515z"/>
<path style="fill:#999ae0; stroke:none;" d="M458 515L459 516L458 515M480 515L481 516L480 515z"/>
<path style="fill:#bdbeeb; stroke:none;" d="M481 515L482 516L481 515z"/>
<path style="fill:#ffffff; stroke:none;" d="M355 516L356 517L355 516z"/>
<path style="fill:#bdbeeb; stroke:none;" d="M454 516L455 517L454 516z"/>
<path style="fill:#999ae0; stroke:none;" d="M455 516L456 517L455 516M483 516L484 517L483 516z"/>
<path style="fill:#bdbeeb; stroke:none;" d="M484 516L485 517L484 516z"/>
<path style="fill:#999ae0; stroke:none;" d="M355 517L356 518L355 517M388 517L389 518L388 517z"/>
<path style="fill:#bdbeeb; stroke:none;" d="M452 517L453 518L452 517z"/>
<path style="fill:#999ae0; stroke:none;" d="M485 517L486 518L485 517z"/>
<path style="fill:#bdbeeb; stroke:none;" d="M353 518L354 519L353 518M388 518L389 519L388 518M450 518L451 519L450 518z"/>
<path style="fill:#999ae0; stroke:none;" d="M451 518L452 519L451 518M487 518L488 519L487 518z"/>
<path style="fill:#bdbeeb; stroke:none;" d="M352 519L353 520L352 519M449 519L450 520L449 519M489 519L490 520L489 519z"/>
<path style="fill:#999ae0; stroke:none;" d="M351 520L352 521L351 520M387 520L388 521L387 520M448 520L449 521L448 520z"/>
<path style="fill:#bdbeeb; stroke:none;" d="M490 520L491 521L490 520M349 521L350 522L349 521M387 521L388 522L387 521M446 521L447 522L446 521z"/>
<path style="fill:#999ae0; stroke:none;" d="M491 521L492 522L491 521M348 522L349 523L348 522z"/>
<path style="fill:#4145c5; stroke:none;" d="M446 522L447 523L446 522z"/>
<path style="fill:#999ae0; stroke:none;" d="M492 522L493 523L492 522z"/>
<path style="fill:#bdbeeb; stroke:none;" d="M346 523L347 524L346 523z"/>
<path style="fill:#999ae0; stroke:none;" d="M386 523L387 524L386 523M445 523L446 524L445 523M493 523L494 524L493 523M345 524L346 525L345 524z"/>
<path style="fill:#bdbeeb; stroke:none;" d="M386 524L387 525L386 524z"/>
<path style="fill:#999ae0; stroke:none;" d="M494 524L495 525L494 524z"/>
<path style="fill:#7be274; stroke:none;" d="M342 525L343 526L342 525z"/>
<path style="fill:#999ae0; stroke:none;" d="M343 525L344 526L343 525M443 525L444 526L443 525z"/>
<path style="fill:#bdbeeb; stroke:none;" d="M495 525L496 526L495 525M340 526L341 527L340 526z"/>
<path style="fill:#999ae0; stroke:none;" d="M341 526L342 527L341 526M385.333 526.667L385.667 527.333L385.333 526.667M442 526L443 527L442 526z"/>
<path style="fill:#bdbeeb; stroke:none;" d="M338 527L339 528L338 527z"/>
<path style="fill:#999ae0; stroke:none;" d="M339 527L340 528L339 527z"/>
<path style="fill:#bdbeeb; stroke:none;" d="M335 528L336 529L335 528z"/>
<path style="fill:#999ae0; stroke:none;" d="M336 528L337 529L336 528z"/>
<path style="fill:#bdbeeb; stroke:none;" d="M385.333 528.667L385.667 529.333L385.333 528.667M497 528L498 529L497 528M332 529L333 530L332 529z"/>
<path style="fill:#999ae0; stroke:none;" d="M333 529L334 530L333 529z"/>
<path style="fill:#bdbeeb; stroke:none;" d="M440 529L441 530L440 529z"/>
<path style="fill:#7be274; stroke:none;" d="M327 530L328 531L327 530z"/>
<path style="fill:#999ae0; stroke:none;" d="M328.667 530.333L329.333 530.667L328.667 530.333M498 530L499 531L498 530z"/>
<path style="fill:#bdbeeb; stroke:none;" d="M439 531L440 532L439 531z"/>
<path style="fill:#999ae0; stroke:none;" d="M384.333 532.667L384.667 533.333L384.333 532.667M499 532L500 533L499 532z"/>
<path style="fill:#bdbeeb; stroke:none;" d="M329 533L330 534L329 533M438 533L439 534L438 533z"/>
<path style="fill:#999ae0; stroke:none;" d="M330 534L331 535L330 534z"/>
<path style="fill:#bdbeeb; stroke:none;" d="M384.333 534.667L384.667 535.333L384.333 534.667z"/>
<path style="fill:#999ae0; stroke:none;" d="M438 534L439 535L438 534z"/>
<path style="fill:#bdbeeb; stroke:none;" d="M500 534L501 535L500 534z"/>
<path style="fill:#999ae0; stroke:none;" d="M331 535L332 536L331 535z"/>
<path style="fill:#bdbeeb; stroke:none;" d="M438 535L439 536L438 535z"/>
<path style="fill:#999ae0; stroke:none;" d="M500 535L501 536L500 535z"/>
<path style="fill:#bdbeeb; stroke:none;" d="M273 536L273 616L219 616L219 617L258 617L272.397 615.972L274 597L274 556L273 536z"/>
<path style="fill:#999ae0; stroke:none;" d="M274 536L275 537L274 536z"/>
<path style="fill:#bdbeeb; stroke:none;" d="M437 536L438 537L437 536M275 537L276 538L275 537M332 537L333 538L332 537z"/>
<path style="fill:#999ae0; stroke:none;" d="M437.333 537.667L437.667 538.333L437.333 537.667z"/>
<path style="fill:#bdbeeb; stroke:none;" d="M333 538L334 539L333 538M501 538L502 539L501 538M276 539L277 540L276 539z"/>
<path style="fill:#999ae0; stroke:none;" d="M334 539L335 540L334 539M501.333 539.667L501.667 540.333L501.333 539.667z"/>
<path style="fill:#7be274; stroke:none;" d="M436 540L437 541L436 540z"/>
<path style="fill:#999ae0; stroke:none;" d="M277 541L278 542L277 541M383 541L383 551L384 551L383 541z"/>
<path style="fill:#bdbeeb; stroke:none;" d="M436 541L436 544L437 544L436 541M278 542L279 543L278 542M336 542L337 543L336 542z"/>
<path style="fill:#999ae0; stroke:none;" d="M337 543L338 544L337 543z"/>
<path style="fill:#7be274; stroke:none;" d="M502 543L503 544L502 543z"/>
<path style="fill:#999ae0; stroke:none;" d="M279 544L280 545L279 544M436 544L436 549L437 549L436 544z"/>
<path style="fill:#bdbeeb; stroke:none;" d="M280 545L281 546L280 545M339 546L340 547L339 546M502 546L503 547L502 546z"/>
<path style="fill:#999ae0; stroke:none;" d="M281 547L282 548L281 547M340 547L341 548L340 547z"/>
<path style="fill:#bdbeeb; stroke:none;" d="M282 548L283 549L282 548z"/>
<path style="fill:#999ae0; stroke:none;" d="M341 548L342 549L341 548z"/>
<path style="fill:#7be274; stroke:none;" d="M341 549L342 550L341 549z"/>
<path style="fill:#bdbeeb; stroke:none;" d="M436 549L436 552L437 552L436 549M283 550L284 551L283 550M342 550L343 551L342 550z"/>
<path style="fill:#999ae0; stroke:none;" d="M343 551L344 552L343 551M284 552L285 553L284 552M344 552L345 553L344 552M501.333 552.667L501.667 553.333L501.333 552.667z"/>
<path style="fill:#bdbeeb; stroke:none;" d="M285 553L286 554L285 553z"/>
<path style="fill:#7be274; stroke:none;" d="M286 554L287 555L286 554z"/>
<path style="fill:#bdbeeb; stroke:none;" d="M345 554L346 555L345 554z"/>
<path style="fill:#999ae0; stroke:none;" d="M437 554L438 555L437 554z"/>
<path style="fill:#bdbeeb; stroke:none;" d="M501 554L502 555L501 554z"/>
<path style="fill:#999ae0; stroke:none;" d="M286 555L287 556L286 555z"/>
<path style="fill:#bdbeeb; stroke:none;" d="M346 555L347 556L346 555M437 555L438 556L437 555z"/>
<path style="fill:#7be274; stroke:none;" d="M501 555L502 556L501 555z"/>
<path style="fill:#bdbeeb; stroke:none;" d="M287 556L288 557L287 556z"/>
<path style="fill:#999ae0; stroke:none;" d="M347 556L348 557L347 556z"/>
<path style="fill:#bdbeeb; stroke:none;" d="M384.333 556.667L384.667 557.333L384.333 556.667z"/>
<path style="fill:#999ae0; stroke:none;" d="M500 557L501 558L500 557M288 558L289 559L288 558M384.333 558.667L384.667 559.333L384.333 558.667M438 558L439 559L438 558z"/>
<path style="fill:#bdbeeb; stroke:none;" d="M289 559L290 560L289 559M349 559L350 560L349 559z"/>
<path style="fill:#999ae0; stroke:none;" d="M350 560L351 561L350 560M439 560L440 561L439 560z"/>
<path style="fill:#bdbeeb; stroke:none;" d="M499 560L500 561L499 560z"/>
<path style="fill:#999ae0; stroke:none;" d="M290 561L291 562L290 561M351 561L352 562L351 561z"/>
<path style="fill:#bdbeeb; stroke:none;" d="M439 561L440 562L439 561M385 562L386 563L385 562M498 562L499 563L498 562z"/>
<path style="fill:#999ae0; stroke:none;" d="M291 563L292 564L291 563z"/>
<path style="fill:#bdbeeb; stroke:none;" d="M352 563L353 564L352 563z"/>
<path style="fill:#999ae0; stroke:none;" d="M385.333 563.667L385.667 564.333L385.333 563.667z"/>
<path style="fill:#bdbeeb; stroke:none;" d="M440 563L441 564L440 563M292 564L293 565L292 564z"/>
<path style="fill:#999ae0; stroke:none;" d="M353 564L354 565L353 564M441 564L442 565L441 564z"/>
<path style="fill:#bdbeeb; stroke:none;" d="M497 564L498 565L497 564z"/>
<path style="fill:#7be274; stroke:none;" d="M293 565L294 566L293 565z"/>
<path style="fill:#999ae0; stroke:none;" d="M354 565L355 566L354 565z"/>
<path style="fill:#bdbeeb; stroke:none;" d="M442.333 565.667L442.667 566.333L442.333 565.667z"/>
<path style="fill:#999ae0; stroke:none;" d="M496 565L497 566L496 565M293 566L294 567L293 566M495 566L496 567L495 566z"/>
<path style="fill:#bdbeeb; stroke:none;" d="M294 567L295 568L294 567M355 567L356 568L355 567M386 567L387 568L386 567z"/>
<path style="fill:#999ae0; stroke:none;" d="M443 567L444 568L443 567z"/>
<path style="fill:#bdbeeb; stroke:none;" d="M495 567L496 568L495 567M356 568L357 569L356 568z"/>
<path style="fill:#999ae0; stroke:none;" d="M386 568L387 569L386 568M444 568L445 569L444 568z"/>
<path style="fill:#bdbeeb; stroke:none;" d="M494 568L495 569L494 568z"/>
<path style="fill:#999ae0; stroke:none;" d="M295 569L296 570L295 569M357 569L358 570L357 569M445 569L446 570L445 569z"/>
<path style="fill:#bdbeeb; stroke:none;" d="M493 569L494 570L493 569M296 570L297 571L296 570M387 570L388 571L387 570z"/>
<path style="fill:#999ae0; stroke:none;" d="M446 570L447 571L446 570z"/>
<path style="fill:#bdbeeb; stroke:none;" d="M492 570L493 571L492 570z"/>
<path style="fill:#999ae0; stroke:none;" d="M387 571L388 572L387 571M447 571L448 572L447 571z"/>
<path style="fill:#bdbeeb; stroke:none;" d="M491 571L492 572L491 571z"/>
<path style="fill:#999ae0; stroke:none;" d="M297 572L298 573L297 572z"/>
<path style="fill:#bdbeeb; stroke:none;" d="M359 572L360 573L359 572M448 572L449 573L448 572z"/>
<path style="fill:#999ae0; stroke:none;" d="M489 572L490 573L489 572z"/>
<path style="fill:#bdbeeb; stroke:none;" d="M490 572L491 573L490 572z"/>
<path style="fill:#999ae0; stroke:none;" d="M360 573L361 574L360 573z"/>
<path style="fill:#bdbeeb; stroke:none;" d="M388 573L389 574L388 573M449 573L450 574L449 573z"/>
<path style="fill:#999ae0; stroke:none;" d="M450 573L451 574L450 573M488 573L489 574L488 573M298 574L299 575L298 574M388 574L389 575L388 574z"/>
<path style="fill:#bdbeeb; stroke:none;" d="M451 574L452 575L451 574z"/>
<path style="fill:#999ae0; stroke:none;" d="M486 574L487 575L486 574z"/>
<path style="fill:#7be274; stroke:none;" d="M487 574L488 575L487 574z"/>
<path style="fill:#bdbeeb; stroke:none;" d="M299 575L300 576L299 575M453 575L454 576L453 575z"/>
<path style="fill:#999ae0; stroke:none;" d="M454 575L455 576L454 575M484 575L485 576L484 575z"/>
<path style="fill:#7be274; stroke:none;" d="M300 576L301 577L300 576z"/>
<path style="fill:#bdbeeb; stroke:none;" d="M362 576L363 577L362 576M389 576L390 577L389 576M455 576L456 577L455 576z"/>
<path style="fill:#999ae0; stroke:none;" d="M456 576L457 577L456 576M481 576L482 577L481 576z"/>
<path style="fill:#bdbeeb; stroke:none;" d="M482 576L483 577L482 576z"/>
<path style="fill:#999ae0; stroke:none;" d="M300 577L301 578L300 577M363 577L364 578L363 577z"/>
<path style="fill:#bdbeeb; stroke:none;" d="M458.667 577.333L459.333 577.667L458.667 577.333z"/>
<path style="fill:#999ae0; stroke:none;" d="M460 577L461 578L460 577z"/>
<path style="fill:#bdbeeb; stroke:none;" d="M461 577L462 578L461 577z"/>
<path style="fill:#999ae0; stroke:none;" d="M478 577L479 578L478 577z"/>
<path style="fill:#bdbeeb; stroke:none;" d="M479 577L480 578L479 577z"/>
<path style="fill:#7be274; stroke:none;" d="M480 577L481 578L480 577z"/>
<path style="fill:#bdbeeb; stroke:none;" d="M301 578L302 579L301 578z"/>
<path style="fill:#999ae0; stroke:none;" d="M364 578L365 579L364 578z"/>
<path style="fill:#bdbeeb; stroke:none;" d="M390 578L391 579L390 578M463.667 578.333L464.333 578.667L463.667 578.333z"/>
<path style="fill:#999ae0; stroke:none;" d="M465 578L465 579L473 579L465 578z"/>
<path style="fill:#bdbeeb; stroke:none;" d="M473.667 578.333L474.333 578.667L473.667 578.333z"/>
<path style="fill:#999ae0; stroke:none;" d="M301 579L302 580L301 579z"/>
<path style="fill:#7be274; stroke:none;" d="M364 579L365 580L364 579z"/>
<path style="fill:#999ae0; stroke:none;" d="M390 579L391 580L390 579M302 580L303 581L302 580z"/>
<path style="fill:#bdbeeb; stroke:none;" d="M365 580L366 581L365 580M303 581L304 582L303 581z"/>
<path style="fill:#999ae0; stroke:none;" d="M366 581L367 582L366 581M391 581L392 582L391 581M367 582L368 583L367 582M304 583L305 584L304 583M392 583L393 584L392 583z"/>
<path style="fill:#bdbeeb; stroke:none;" d="M368 584L369 585L368 584M393 584L394 585L393 584z"/>
<path style="fill:#999ae0; stroke:none;" d="M305 585L306 586L305 585z"/>
<path style="fill:#bdbeeb; stroke:none;" d="M369 585L370 586L369 585z"/>
<path style="fill:#999ae0; stroke:none;" d="M393 585L394 586L393 585z"/>
<path style="fill:#bdbeeb; stroke:none;" d="M306 586L307 587L306 586z"/>
<path style="fill:#999ae0; stroke:none;" d="M370 586L371 587L370 586z"/>
<path style="fill:#bdbeeb; stroke:none;" d="M394 586L395 587L394 586z"/>
<path style="fill:#7be274; stroke:none;" d="M307 587L308 588L307 587z"/>
<path style="fill:#999ae0; stroke:none;" d="M394 587L395 588L394 587M307 588L308 589L307 588z"/>
<path style="fill:#bdbeeb; stroke:none;" d="M395 588L396 589L395 588M308 589L309 590L308 589M372 589L373 590L372 589z"/>
<path style="fill:#999ae0; stroke:none;" d="M308 590L309 591L308 590M373 590L374 591L373 590M396 590L397 591L396 590M309 591L310 592L309 591M374 591L375 592L374 591z"/>
<path style="fill:#bdbeeb; stroke:none;" d="M397 591L398 592L397 591M310 592L311 593L310 592z"/>
<path style="fill:#7be274; stroke:none;" d="M374 592L375 593L374 592z"/>
<path style="fill:#bdbeeb; stroke:none;" d="M375 593L376 594L375 593z"/>
<path style="fill:#999ae0; stroke:none;" d="M398 593L399 594L398 593M311 594L312 595L311 594M376 594L377 595L376 594z"/>
<path style="fill:#bdbeeb; stroke:none;" d="M399 594L400 595L399 594z"/>
<path style="fill:#999ae0; stroke:none;" d="M377 595L378 596L377 595z"/>
<path style="fill:#bdbeeb; stroke:none;" d="M400 595L401 596L400 595z"/>
<path style="fill:#999ae0; stroke:none;" d="M312 596L313 597L312 596M400 596L402 598L400 596z"/>
<path style="fill:#7be274; stroke:none;" d="M401 596L402 597L401 596z"/>
<path style="fill:#bdbeeb; stroke:none;" d="M313 597L314 598L313 597M378 597L379 598L378 597M314 598L315 599L314 598M379 598L380 599L379 598z"/>
<path style="fill:#999ae0; stroke:none;" d="M402 598L403 599L402 598M314 599L315 600L314 599M380 599L381 600L380 599M403 599L404 600L403 599z"/>
<path style="fill:#bdbeeb; stroke:none;" d="M315 600L316 601L315 600M404 600L405 601L404 600M405 601L406 602L405 601z"/>
<path style="fill:#999ae0; stroke:none;" d="M316 602L317 603L316 602z"/>
<path style="fill:#bdbeeb; stroke:none;" d="M382 602L383 603L382 602M406 602L407 603L406 602M499 602L500 603L499 602z"/>
<path style="fill:#999ae0; stroke:none;" d="M500 602L500 618L501 618L500 602z"/>
<path style="fill:#bdbeeb; stroke:none;" d="M317 603L318 604L317 603z"/>
<path style="fill:#999ae0; stroke:none;" d="M383 603L384 604L383 603z"/>
<path style="fill:#bdbeeb; stroke:none;" d="M407 603L408 604L407 603M408 604L409 605L408 604z"/>
<path style="fill:#999ae0; stroke:none;" d="M498 604L499 605L498 604M318 605L319 606L318 605M409 605L410 606L409 605z"/>
<path style="fill:#bdbeeb; stroke:none;" d="M497 605L498 606L497 605M385 606L386 607L385 606z"/>
<path style="fill:#999ae0; stroke:none;" d="M410 606L411 607L410 606M319 607L320 608L319 607M386 607L387 608L386 607z"/>
<path style="fill:#bdbeeb; stroke:none;" d="M495 607L496 608L495 607M320 608L321 609L320 608z"/>
<path style="fill:#999ae0; stroke:none;" d="M387 608L388 609L387 608z"/>
<path style="fill:#bdbeeb; stroke:none;" d="M413 608L414 609L413 608z"/>
<path style="fill:#7be274; stroke:none;" d="M494 608L495 609L494 608z"/>
<path style="fill:#bdbeeb; stroke:none;" d="M321 609L322 610L321 609z"/>
<path style="fill:#7be274; stroke:none;" d="M387 609L388 610L387 609z"/>
<path style="fill:#999ae0; stroke:none;" d="M414 609L415 610L414 609z"/>
<path style="fill:#7be274; stroke:none;" d="M493 609L494 610L493 609z"/>
<path style="fill:#999ae0; stroke:none;" d="M321 610L322 611L321 610z"/>
<path style="fill:#bdbeeb; stroke:none;" d="M388 610L389 611L388 610M322 611L323 612L322 611z"/>
<path style="fill:#999ae0; stroke:none;" d="M389 611L390 612L389 611z"/>
<path style="fill:#bdbeeb; stroke:none;" d="M417 611L418 612L417 611M491 611L492 612L491 611z"/>
<path style="fill:#999ae0; stroke:none;" d="M390 612L391 613L390 612z"/>
<path style="fill:#bdbeeb; stroke:none;" d="M490 612L491 613L490 612z"/>
<path style="fill:#999ae0; stroke:none;" d="M323 613L324 614L323 613M420 613L421 614L420 613z"/>
<path style="fill:#7be274; stroke:none;" d="M488 613L489 614L488 613z"/>
<path style="fill:#999ae0; stroke:none;" d="M489 613L490 614L489 613z"/>
<path style="fill:#bdbeeb; stroke:none;" d="M324 614L325 615L324 614z"/>
<path style="fill:#999ae0; stroke:none;" d="M422 614L423 615L422 614z"/>
<path style="fill:#bdbeeb; stroke:none;" d="M487 614L488 615L487 614M392 615C372.843 620.662 346.017 616 326 616L326 617L377 617L392 615M424 615L425 616L424 615z"/>
<path style="fill:#999ae0; stroke:none;" d="M486 615L487 616L486 615M273 616L274 617L273 616M325 616L326 617L325 616z"/>
<path style="fill:#4145c5; stroke:none;" d="M393 616L394 617L393 616z"/>
<path style="fill:#bdbeeb; stroke:none;" d="M426 616L427 617L426 616z"/>
<path style="fill:#7be274; stroke:none;" d="M483 616L484 617L483 616z"/>
<path style="fill:#999ae0; stroke:none;" d="M484 616L485 617L484 616M428 617L429 618L428 617z"/>
<path style="fill:#7be274; stroke:none;" d="M481 617L482 618L481 617z"/>
<path style="fill:#999ae0; stroke:none;" d="M482 617L483 618L482 617z"/>
<path style="fill:#bdbeeb; stroke:none;" d="M581 617L581 618L632 618C618.873 612.492 595.311 617 581 617z"/>
<path style="fill:#999ae0; stroke:none;" d="M430 618L431 619L430 618z"/>
<path style="fill:#bdbeeb; stroke:none;" d="M431 618L432 619L431 618M479 618L480 619L479 618z"/>
<path style="fill:#999ae0; stroke:none;" d="M480 618L481 619L480 618M501 618L501 619L551 619C538.11 613.591 515.049 618 501 618M433 619L434 620L433 619z"/>
<path style="fill:#bdbeeb; stroke:none;" d="M434 619L435 620L434 619z"/>
<path style="fill:#999ae0; stroke:none;" d="M477 619L478 620L477 619M436 620L437 621L436 620z"/>
<path style="fill:#bdbeeb; stroke:none;" d="M437 620L438 621L437 620M473 620L474 621L473 620z"/>
<path style="fill:#999ae0; stroke:none;" d="M474 620L475 621L474 620M440.667 621.333L441.333 621.667L440.667 621.333z"/>
<path style="fill:#bdbeeb; stroke:none;" d="M442 621L443 622L442 621z"/>
<path style="fill:#7be274; stroke:none;" d="M443 621L444 622L443 621z"/>
<path style="fill:#bdbeeb; stroke:none;" d="M469 621L470 622L469 621z"/>
<path style="fill:#999ae0; stroke:none;" d="M470.667 621.333L471.333 621.667L470.667 621.333M445 622L445 623L448 623L445 622z"/>
<path style="fill:#bdbeeb; stroke:none;" d="M448 622L448 623L451 623L448 622M462.667 622.333L463.333 622.667L462.667 622.333z"/>
<path style="fill:#999ae0; stroke:none;" d="M464 622L464 623L468 623L464 622z"/>
</svg>
