<?xml version="1.0" encoding="utf-8"?><svg xmlns="http://www.w3.org/2000/svg" xmlns:xlink="http://www.w3.org/1999/xlink" width="1000" height="352.77601"><defs><linearGradient id="a" x1="23.31321" y1="311.60689" x2="23.31321" y2="351.71726" gradientUnits="userSpaceOnUse"><stop offset="0" stop-color="#f7f7f8"/><stop offset="1" stop-color="#d1d2d2"/></linearGradient><linearGradient id="b" x1="103.00647" y1="311.60689" x2="103.00647" y2="351.71726" xlink:href="#a"/><linearGradient id="c" x1="181.44266" y1="311.60689" x2="181.44266" y2="351.71726" xlink:href="#a"/><linearGradient id="d" x1="260.81358" y1="311.60689" x2="260.81358" y2="351.71726" xlink:href="#a"/><linearGradient id="e" x1="318.57623" y1="311.60689" x2="318.57623" y2="351.71726" xlink:href="#a"/><linearGradient id="f" x1="379.69328" y1="311.60689" x2="379.69328" y2="351.71726" xlink:href="#a"/><linearGradient id="g" x1="455.83428" y1="311.60689" x2="455.83428" y2="351.71726" xlink:href="#a"/><linearGradient id="h" x1="585.15674" y1="311.60689" x2="585.15674" y2="351.71726" xlink:href="#a"/><linearGradient id="i" x1="645.58861" y1="311.60689" x2="645.58861" y2="351.71726" xlink:href="#a"/><linearGradient id="j" x1="713.81556" y1="311.60689" x2="713.81556" y2="351.71726" xlink:href="#a"/><linearGradient id="k" x1="800.4476" y1="310.44601" x2="800.4476" y2="352.77601" xlink:href="#a"/><linearGradient id="l" x1="879.92147" y1="310.69926" x2="879.92147" y2="352.57373" xlink:href="#a"/><linearGradient id="m" x1="833.91048" y1="146.93516" x2="833.91048" y2="-206.76421" xlink:href="#a"/><linearGradient id="n" x1="511.30449" y1="43.10034" x2="511.30449" y2="293.46297" xlink:href="#a"/><linearGradient id="o" x1="162.06404" y1="43.37557" x2="162.06404" y2="293.33796" xlink:href="#a"/></defs><path d="M41.53332,333.60666a12.19312,12.19312,0,0,0,3.16617-8.70181,12.78445,12.78445,0,0,0-3.84072-9.70437c-2.51989-2.38516-5.97352-3.59359-10.26472-3.59359H0v40.11037H9.65339V337.80005H25.35056l9.88034,13.91721H46.62642L36.37863,336.822A12.34509,12.34509,0,0,0,41.53332,333.60666ZM9.65339,320.65508H29.13147c5.07832,0,5.76332,2.14956,5.76332,4.25157,0,1.99646-.6306,3.84521-5.20837,3.84521H9.65339Z" fill="url(#a)"/><polygon points="91.747 335.48 113.128 335.48 113.128 326.432 91.747 326.432 91.747 320.655 122.507 320.655 122.507 311.607 82.094 311.607 82.094 351.717 123.919 351.717 123.919 342.669 91.747 342.669 91.747 335.48" fill="url(#b)"/><path d="M176.55,311.60689l-21.21786,40.11037h10.706l4.20762-8.16884H192.6386l4.20744,8.16884h10.7071l-21.21787-40.11037Zm-1.46528,22.89335L181.49,322.46511l6.3271,12.03513Z" fill="url(#c)"/><polygon points="251.546 311.607 241.893 311.607 241.893 351.717 279.734 351.717 279.734 342.669 251.546 342.669 251.546 311.607" fill="url(#d)"/><rect x="313.74963" y="311.60689" width="9.65321" height="40.11037" fill="url(#e)"/><polygon points="357.419 320.655 374.867 320.655 374.867 351.717 384.52 351.717 384.52 320.655 401.967 320.655 401.967 311.607 357.419 311.607 357.419 320.655" fill="url(#f)"/><polygon points="455.866 327.774 441.183 311.607 428.783 311.607 451.008 336.187 451.008 351.717 460.662 351.717 460.662 336.187 482.885 311.607 470.483 311.607 455.866 327.774" fill="url(#g)"/><polygon points="608.655 311.607 593.86 311.607 570.693 328.745 570.693 311.607 561.039 311.607 561.039 351.717 570.693 351.717 570.693 339.754 579.7 333.142 596.625 351.717 609.274 351.717 587.195 327.482 608.655 311.607" fill="url(#h)"/><rect x="640.76191" y="311.60689" width="9.65339" height="40.11037" fill="url(#i)"/><polygon points="726.687 338.783 701.387 311.607 691.289 311.607 691.289 351.717 700.942 351.717 700.942 324.556 726.228 351.717 736.342 351.717 736.342 311.607 726.687 311.607 726.687 338.783" fill="url(#j)"/><path d="M797.43706,337.80005h15.89782c-2.46621,3.91547-6.69291,5.82745-12.83721,5.82745-4.69286,0-8.4817-1.15206-11.26457-3.42644a10.992,10.992,0,0,1,.67906-17.52305,17.5342,17.5342,0,0,1,10.58551-3.08186,17.247,17.247,0,0,1,13.30859,5.52862l.91825.98328,8.93561-4.46789-1.53391-1.75366a26.92042,26.92042,0,0,0-21.12366-9.44049c-7.02723,0-12.941,1.78716-17.57942,5.31032-5.3912,4.10549-8.12471,9.44049-8.12471,15.85549a19.12843,19.12843,0,0,0,8.02456,15.90665c4.60317,3.488,10.38162,5.25754,17.17469,5.25754,7.43539,0,13.52311-1.991,18.09133-5.91715a19.8573,19.8573,0,0,0,7.00778-15.75354v-2.35346H797.43706Z" fill="url(#k)"/><path d="M898.90448,330.17482c-2.459-1.85579-6.05259-3.07466-10.99709-3.729-1.66233-.2093-4.96215-.47678-10.10189-.81793a26.95034,26.95034,0,0,1-6.92346-1.01138c-1.97-.68788-1.97-1.48816-1.97-1.82948,0-.313,0-1.145,1.89955-1.98241a20.47253,20.47253,0,0,1,7.847-1.15908,34.44726,34.44726,0,0,1,15.72184,3.94014l1.23131.6261,5.98937-6.64718-1.71331-1.16087c-5.58822-3.78542-12.57855-5.70443-20.77549-5.70443-6.15994,0-11.05166,1.09063-14.53626,3.24362-3.76238,2.32536-5.67094,5.57239-5.67094,9.64979a9.1616,9.1616,0,0,0,5.23125,8.72288c2.65786,1.32965,7.02182,2.18109,13.34715,2.60671,8.27256.53136,11.18205.94816,12.16535,1.205,3.09229.8091,3.09229,2.27258,3.09229,2.89706,0,.80208-.248,1.99466-2.38354,3.07826-2.08958,1.04471-5.159,1.57426-9.12744,1.57426a33.12335,33.12335,0,0,1-17.51782-4.978l-1.38945-.85125-5.37913,7.09046,1.38261,1.09585c5.47747,4.33947,13.16611,6.53982,22.85282,6.53982,6.72985,0,12.01928-1.15907,15.72184-3.44571a11.74181,11.74181,0,0,0,5.9982-10.50824A9.99978,9.99978,0,0,0,898.90448,330.17482Z" fill="url(#l)"/><path d="M894.975,278.34075c-14.34646,12.90763-179.945,15.49687-197.169,0-17.23449-15.50894-39.148-109.30286-16.27227-132.17855,22.865-22.88885,212.00246-34.00824,230.70046-17.19847C930.89537,145.749,909.3459,265.42105,894.975,278.34075Z" fill="#297cbc"/><path d="M722.7961,269.77276a3.42206,3.42206,0,0,1-2.57518-1.57605,5.99157,5.99157,0,0,1-1.08881-3.57594q.2426-43.47052.26205-86.95239c-10.13.438-15.18364.6632-25.26445,1.10036a3.3427,3.3427,0,0,1-2.63841-.97536,3.461,3.461,0,0,1-1.03966-2.55141V159.1199a3.79472,3.79472,0,0,1,1.03966-2.56456,3.74239,3.74239,0,0,1,2.63841-1.28768q42.23176-3.63962,84.41232-7.27958a3.16772,3.16772,0,0,1,2.70182,1.02561,3.97694,3.97694,0,0,1,1.07642,2.802v18.82388a4.59259,4.59259,0,0,1-1.07642,3.10113,3.67735,3.67735,0,0,1-2.70182,1.36316c-10.06856.438-15.07106.6632-25.1272,1.07658q0,44.95057.10033,89.92835a6.01012,6.01012,0,0,1-1.06251,3.65177,2.93439,2.93439,0,0,1-2.65248,1.40188C738.94359,270.87384,733.5277,270.6242,722.7961,269.77276Z" fill="#fff"/><path d="M994.77483,52.30415s-7.36315-3.81333-11.76062,2.86645c0,0-2.45721,3.81171-2.32014,6.721l.01765.01765a3.42859,3.42859,0,0,1-1.27183.69473,2.20022,2.20022,0,0,0-1.93125,1.066s-1.75546,1.17943.9586,3.57684l.01225.0018a4.87241,4.87241,0,0,1,.21812,1.33073l-.04032-.01152c-4.55059,3.58836-29.05512,22.735-38.67321,26.86068a87.24035,87.24035,0,0,1,8.18973-21.67591,5.81567,5.81567,0,0,0,1.22789-.5155c.01224.04142.0317.0897.04214.12932a3.23843,3.23843,0,0,0,2.03339-2.39038c-.00523-.01063-.0245-.03963-.03333-.05367a2.50224,2.50224,0,0,1,.781-1.13188c2.15118-.68788,8.65588-3.22867,7.09045-8.59356,0,0-4.8602-6.96221-13.21888-4.621,0,0-6.2954,2.53394-5.10985,8.04743.02108.0009.04395.0018.06505.0018a5.332,5.332,0,0,1-.90225,1.285c-.98328.51533-2.227,1.46259-1.88388,2.823.00867-.00523.01747-.007.0245-.01225.07222.27793.4222.79235.57692,1.21726-.04395.04124-.15652.14247-.36924.32007l-.10556.14608h-.05277c-3.56027,3.12311-22.67522,19.68125-28.58714,21.07178,0,0-11.583-20.24953-6.94978-55.28518l-.04215.0009c.27955-.37987.57512-.77218.85485-1.19078l.01225.0018A3.54076,3.54076,0,0,0,904.885,32.673a4.393,4.393,0,0,0-.6578-1.74393l-.014.00072c.2111-.34205.5364-.84512.90943-1.35613,2.10723-1.20482,5.72892-3.84773,5.95245-7.90928,0,0,.82838-6.014-9.93834-9.31116,0,0-11.76423-2.89454-13.70953,5.10714a14.1222,14.1222,0,0,0,1.92243,8.18631l.0299.00883a5.42979,5.42979,0,0,1-.37988,1.37558,1.83264,1.83264,0,0,0-1.86281,1.60326,2.84564,2.84564,0,0,0,.52253,2.30518c.072.058.1441.11348.21453.17057a2.96169,2.96169,0,0,1-.18823,1.44151l-.0018-.0009C884.72,37.402,872.3455,57.01485,862.11878,63.99633c0,0-2.21981-5.1918-3.50929-18.2066a2.5014,2.5014,0,0,1,.91826-1.06055l.007.01495a2.3309,2.3309,0,0,0,.58755-3.65339c.18643-.24461.46436-.61566.81253-1.09244l.01243.01063a7.70293,7.70293,0,0,0,2.95328-5.14767s.67381-6.18553-9.09918-7.95774c0,0-7.70789-1.59983-8.225,4.60065a8.40293,8.40293,0,0,0,1.52148,5.70172l.01063-.00342a5.3937,5.3937,0,0,1-.01243,1.33415,2.08244,2.08244,0,0,0-.14247,3.33242l.0018-.0009a4.06053,4.06053,0,0,1,.55225,1.26462c-.04395.12771-.09493.27271-.1495.43626l-.03513.14608-.01765.00342c-1.4723,4.22167-7.02,19.00778-14.86879,26.53269,0,0-4.554-4.85912-9.699-29.60555L819.55283,21.222a4.30992,4.30992,0,0,1,1.191-1.01589,2.92879,2.92879,0,0,0,2.51538-2.64291,5.3917,5.3917,0,0,0-.4204-1.6807l-.01063-.00343a7.4372,7.4372,0,0,1-.59638-1.55768,13.46943,13.46943,0,0,0,1.738-7.25923S824.6434.88094,816.07542.005c0,0-7.63928-.47318-6.56811,7.77563,0,0,.6261,4.20312,2.80214,6.71148l.01045-.0036a3.36992,3.36992,0,0,1,.37825,1.27346c-.61043.3941-1.30353,1.24715-.4186,2.96478a3.28028,3.28028,0,0,0,2.48531,1.92964,2.54618,2.54618,0,0,1,1.08541.9042l2.61913,34.3267s-.34313,15.65411,4.14764,19.38495a15.91974,15.91974,0,0,1,1.37739,2.13371c.02629-.00522.02449-.0036.04557-.00792a1.60585,1.60585,0,0,1,.14427,1.28138,4.31243,4.31243,0,0,0-3.41761,3.47308s-.74408,3.13374,3.24181,5.0704a8.34272,8.34272,0,0,1-.19885,1.38171l-.05458.0553-.591,3.139a12.3425,12.3425,0,0,0-8.48711,7.77041s-3.13626,8.86176-.95158,9.52407a28.63578,28.63578,0,0,1-3.94717,4.05271l.02468.01927a8.49235,8.49235,0,0,1-2.38876,1.116,3.87255,3.87255,0,0,0-4.22327,2.205,5.32708,5.32708,0,0,0-.37485,1.1987c-2.83006.19868-5.65868.39753-8.48873.62268-15.23478,1.20051-30.41825,2.80214-45.58965,4.92775a380.94,380.94,0,0,0-45.22723,8.79331c-3.75192,1.0501-7.49139,2.20126-11.2064,3.60152a50.34222,50.34222,0,0,0-11.108,5.59094,26.22165,26.22165,0,0,0-8.14234,10.50645,52.744,52.744,0,0,0-3.61306,11.757,109.39545,109.39545,0,0,0-1.55138,23.55205,210.03044,210.03044,0,0,0,2.1002,23.13867,238.16914,238.16914,0,0,0,10.8829,44.97651c2.66308,7.30516,5.54069,14.55916,10.23032,21.47562a26.817,26.817,0,0,0,4.45186,5.1275,22.30538,22.30538,0,0,0,6.1794,3.28918,77.21659,77.21659,0,0,0,11.66913,3.10294c15.37186,2.88824,30.63115,3.94014,45.91494,4.7651,15.284.77578,30.53082,1.03785,45.81479.93753,15.28559-.12483,30.56955-.59981,45.86559-1.67639,7.64288-.5364,15.32089-1.22428,23.013-2.276,3.85226-.55063,7.75548-1.16268,11.6956-2.02636,1.9507-.43625,3.95239-.93753,6.04037-1.62541a32.30373,32.30373,0,0,0,3.22776-1.25058,16.83539,16.83539,0,0,0,1.77651-.93753,12.4587,12.4587,0,0,0,1.89976-1.30173l.176-.16175a22.80837,22.80837,0,0,0,4.53994-6.07908c1.05011-1.92621,1.926-3.81531,2.73874-5.69037,1.60055-3.72724,2.87761-7.45466,4.08964-11.19414,2.37634-7.48114,4.32884-14.94715,6.04215-22.4888a410.33984,410.33984,0,0,0,7.46691-45.615c.7756-7.66738,1.32623-15.39654,1.52508-23.1765.0263-1.48726.0299-2.97794.03332-4.46879a3.37967,3.37967,0,0,0,3.03074-2.21891,4.06393,4.06393,0,0,0-.84083-5.01925c-1.09045-1.36153-1.74663-2.32446-2.09138-8.452.0791-.0299,5.28925-1.97629,6.84423-10.52752,0,0,.4451-7.85561-2.57519-10.02534a27.01893,27.01893,0,0,1,1.87164-2.84267l.01224-.06232a2.64375,2.64375,0,0,1,.83381-.70535c.6122.08429,5.25412.60412,6.14245-2.90769,0,0,.89358-3.28054-1.26118-4.75807a4.78578,4.78578,0,0,1,.73343-1.14071c.176-.02719.36582-.05187.598-.06592,0,0,5.4917.66843,10.92864-5.70533,0,0,24.06488-28.49564,33.35585-37.9889a5.24064,5.24064,0,0,1,1.56542.05619,2.84356,2.84356,0,0,0,3.68167-.46165,2.19805,2.19805,0,0,0,.80208-2.05445,1.87792,1.87792,0,0,1,1.16973-1.03786l.08967.0317a12.66883,12.66883,0,0,0,9.63214-6.63583S1001.58033,55.109,994.77483,52.30415Zm-81.202,115.68364c-.27451,7.41683-.90061,14.85834-1.71329,22.28832a434.05092,434.05092,0,0,1-7.32968,44.26413c-1.613,7.26626-3.38969,14.54512-5.54087,21.57577-1.09946,3.50209-2.25151,6.97788-3.58837,10.21789a50.00057,50.00057,0,0,1-2.16523,4.64027,14.89227,14.89227,0,0,1-2.05986,3.06944,11.7352,11.7352,0,0,1-3.06763,1.43358c-1.52509.5382-3.226.9885-4.95333,1.41251-3.43886.82675-7.066,1.48815-10.71934,2.051-7.32783,1.12576-14.80719,1.94008-22.28814,2.60149-14.95849,1.30155-30.06648,2.05265-45.17627,2.41505-15.10961.37466-30.23.37466-45.29046-.11257-15.02009-.56288-30.17905-1.40188-44.75044-3.90322a74.58,74.58,0,0,1-10.35694-2.58923,14.87779,14.87779,0,0,1-3.90142-1.89974,19.23827,19.23827,0,0,1-3.01506-3.42824c-3.87674-5.67794-6.79145-12.63132-9.36824-19.5494A231.40182,231.40182,0,0,1,677.58111,209.062a182.718,182.718,0,0,1-1.93828-22.22564,100.38516,100.38516,0,0,1,1.51446-21.83784,46.09982,46.09982,0,0,1,3.11339-9.94356,18.26535,18.26535,0,0,1,5.62877-7.34208,41.25056,41.25056,0,0,1,9.24344-4.51545,108.61942,108.61942,0,0,1,10.51887-3.30161c14.3585-3.83982,29.30476-6.12915,44.251-8.06761,14.97074-1.88821,30.01893-3.25136,45.07756-4.24005q11.08959-.7176,22.188-1.123c11.17307,3.91114,29.62139,10.37279,47.97462,16.81427q-10.493,30.48374-21.19571,60.89181c-7.19258-19.21078-14.49774-38.36014-22.10172-57.409a3.6207,3.6207,0,0,0-1.47591-1.77581,2.83682,2.83682,0,0,0-1.95071-.56288c-11.06932.93753-16.58551,1.41341-27.69176,2.37633a4.05212,4.05212,0,0,0-3.28936,2.10129,4.48671,4.48671,0,0,0-.11258,4.18979c16.79842,37.81041,31.41918,76.25844,45.47707,115.18146a4.2376,4.2376,0,0,0,1.55138,2.00168,3.05342,3.05342,0,0,0,1.96295.81271c6.42923-.35,9.63052-.55063,15.98572-.88836a3.34822,3.34822,0,0,0,1.83813-.93753,5.02472,5.02472,0,0,0,1.45123-2.06328c11.75363-38.38554,25.90821-75.69377,39.6671-113.3318,7.29272,2.56906,13.676,4.824,18.4096,6.5065C913.6906,162.90442,913.66432,165.4452,913.5728,167.98779Z" fill="url(#m)"/><path d="M350.2864,293.463a12.15315,12.15315,0,0,1-8.02978-2.86554,8.56867,8.56867,0,0,1-3.43959-6.71581V52.68061a8.51209,8.51209,0,0,1,3.43959-6.70338,12.09891,12.09891,0,0,1,8.02978-2.87689h82.92417a12.06679,12.06679,0,0,1,8.01754,2.87689,8.54841,8.54841,0,0,1,3.43976,6.70338v79.51088L534.8601,46.28938a21.21474,21.21474,0,0,1,8.77908-3.189h88.65327a14.74377,14.74377,0,0,1,6.86711,1.58831,10.0911,10.0911,0,0,1,4.42736,4.153,8.8986,8.8986,0,0,1,.94978,5.44055,8.07958,8.07958,0,0,1-3.05178,5.10282L534.08432,158.0689,679.68312,276.865a10.95857,10.95857,0,0,1,3.82757,5.41587,7.26942,7.26942,0,0,1-.56288,5.4283,10.13968,10.13968,0,0,1-4.22689,4.16529,14.22519,14.22519,0,0,1-7.05533,1.58849H568.86671a15.23147,15.23147,0,0,1-4.40287-.95176,25.64142,25.64142,0,0,1-4.00156-1.60055L444.66787,196.71741v87.16421a8.60547,8.60547,0,0,1-3.43976,6.71581,12.12083,12.12083,0,0,1-8.01754,2.86554Z" fill="url(#n)"/><path d="M187.0889,205.0226c-12.9206,0-20.36211.6252-22.26347,1.90045a15.09108,15.09108,0,0,0-3.42733,2.56384c-1.06254,1.06325-2.06347,2.1265-3.03882,3.18994l.3624-.63763-45.95276,75.88289a12.29377,12.29377,0,0,1-4.13971,3.82757,10.7564,10.7564,0,0,1-5.55313,1.5883H11.8714q-6.80991,0-9.86792-4.62784c-2.0395-3.06421-1.86371-6.42923.52506-10.04389L51.70817,205.0226a93.92619,93.92619,0,0,1,13.48275-12.74571,101.09979,101.09979,0,0,1,19.56166-11.80727,137.0937,137.0937,0,0,1-17.77288-6.52848,99.97239,99.97239,0,0,1-14.18361-7.80463q-24.76479-16.28463-24.7648-52.6194,0-32.19343,30.15528-51.96844,28.02994-18.19777,74.31908-18.1731H312.7514A11.00534,11.00534,0,0,1,320.29306,46.24a8.769,8.769,0,0,1,3.24,6.70355V283.76905a8.76733,8.76733,0,0,1-3.24,6.70355,11.06391,11.06391,0,0,1-7.54166,2.86536H233.04094a11.57156,11.57156,0,0,1-7.90405-2.86536,8.77892,8.77892,0,0,1-3.21462-6.70355V205.0226ZM168.0523,100.447q-19.75565,0-30.15528,5.42812-10.41277,5.40362-10.40629,17.19775,0,14.034,13.63315,19.4615,13.63956,5.422,39.86145,5.40363h43.08812V100.447Z" fill="url(#o)"/></svg>