<?xml version="1.0" standalone="yes"?>
<svg xmlns="http://www.w3.org/2000/svg" width="1024" height="1024">
<path style="fill:#ed1543; stroke:none;" d="M0 0L0 1024L1024 1024L1024 0L0 0z"/>
<path style="fill:#fffcfc; stroke:none;" d="M465 279L465 355C457.1 349.343 449.683 345.336 440 343.754C379.65 333.893 367.087 433.474 425 445.789C431.904 447.257 438.153 447.05 445 445.335C452.752 443.393 459.243 439.462 465 434L465 446L497 446L497 279L465 279M782 280L782 446L814 446L814 280L782 280M835 280L835 446L867 446L867 280L835 280z"/>
<path style="fill:#fab50b; stroke:none;" d="M814 281L814 445L815 445L815 330C815 316.224 819.306 293.645 814 281z"/>
<path style="fill:#fffcfc; stroke:none;" d="M157 288L157 446L191 446L191 316C201.196 316 214.456 313.603 222.985 320.394C234.697 329.718 232.614 345.37 220 352.772C214.197 356.178 207.486 356 201 356C201 367.325 198.114 383.235 201.702 394C205.21 404.525 214.7 414.617 220.576 424C224.294 429.939 229.07 441.387 235.21 444.972C243.884 450.038 264.981 446 275 446C265.887 422.308 243.35 401.633 230 380C266.298 367.716 279.076 318.256 244 295.548C221.252 280.821 182.987 288 157 288z"/>
<path style="fill:#fab50b; stroke:none;" d="M225 288L226 289L225 288z"/>
<path style="fill:#fffcfc; stroke:none;" d="M539 289L539 446L593 446C608.307 446 623.742 446.162 637 437.251C664.047 419.072 665.231 370.367 630 360C647.675 341.479 649.295 304.974 622 293.464C598.006 283.347 564.568 289 539 289z"/>
<path style="fill:#fab50b; stroke:none;" d="M641 316L642 317L641 316M573 317L573 417L574 417L574 348L573 317z"/>
<path style="fill:#ed1543; stroke:none;" d="M574 317L574 417C585.532 417 603.979 420.519 613.96 413.867C625.673 406.06 623.99 386.972 611.999 380.417C603.834 375.954 592.002 378 583 378L583 349C589.688 349 597.073 349.873 602.957 346.005C612.328 339.845 611.851 325.934 602.985 319.653C595.696 314.489 582.527 317 574 317z"/>
<path style="fill:#fab50b; stroke:none;" d="M229 327L230 328L229 327M643 329L644 330L643 329M608 339L609 340L608 339M264 340L265 341L264 340z"/>
<path style="fill:#fffcfc; stroke:none;" d="M370 423L343 411C332.492 431.197 307.123 422.709 303 403L353 403C357.513 403 367.706 404.895 371.397 401.972C374.497 399.516 372.874 392.308 372.424 389C370.829 377.283 367.721 365.732 358.907 357.174C326.522 325.729 267.115 351.401 269.375 397C270.318 416.014 279.249 432.815 296 442.536C319.578 456.218 357.765 448.713 370 423z"/>
<path style="fill:#fab50b; stroke:none;" d="M429 343L430 344L429 343M438 343L439 344L438 343M333 344L334 345L333 344M640 344L641 345L640 344M228 345L229 346L228 345M450 346L451 347L450 346z"/>
<path style="fill:#fffcfc; stroke:none;" d="M667 349L667 399C667 408.88 666.24 419.15 671.475 428C689.557 458.567 746.456 458.543 762.623 426C766.965 417.259 766 407.454 766 398L766 349L734 349L734 395C734 402.804 734.808 410.767 728.787 416.787C719.626 425.948 704.506 421.896 700.133 410C697.804 403.664 699 395.647 699 389L699 349L667 349z"/>
<path style="fill:#fab50b; stroke:none;" d="M637 350L638 351L637 350M219 353L220 354L219 353M635 353L636 354L635 353M289 354L290 355L289 354M355 354L356 355L355 354M399 359L400 360L399 359M364 364L365 365L364 364z"/>
<path style="fill:#ed1543; stroke:none;" d="M303 384L341 384C334.764 362.076 308.468 360.433 303 384z"/>
<path style="fill:#fab50b; stroke:none;" d="M328 367L329 368L328 367M276 369L277 370L276 369z"/>
<path style="fill:#ed1543; stroke:none;" d="M440 371.471C411.739 376.465 416.109 425.013 445 420.521C474.221 415.978 469.458 366.266 440 371.471z"/>
<path style="fill:#fab50b; stroke:none;" d="M240 375L241 376L240 375M273 375L274 376L273 375M236 377L237 378L236 377M304 378L305 379L304 378M459 379L460 380L459 379M388 380L389 381L388 380M423 383L424 384L423 383M422 385L423 386L422 385M372 389L373 390L372 389M237 391L238 392L237 391M244 401L245 402L244 401M464 402L465 403L464 402M620 405L621 406L620 405M209 406L210 407L209 406M388 409L389 410L388 409M341 414L342 415L341 414M351 414L352 415L351 414M456 415L457 416L456 415M430 416L431 417L430 416M667 416L668 417L667 416M703 416L704 417L703 416M653 417L654 418L653 417M704 417L705 418L704 417M256 418L257 419L256 418M449 419L450 420L449 419M364 420L365 421L364 420M651 421L652 422L651 421M319 422L320 423L319 422M220 423L221 424L220 423M263 428L264 429L263 428M672 429L673 430L672 429M760 429L761 430L760 429M675 433L676 434L675 433M285 434L286 435L285 434M464 434L465 435L464 434M679 437L680 438L679 437M270 438L271 439L270 438M291 439L292 440L291 439M231 440L232 441L231 440M456 440L457 441L456 440M294 441L295 442L294 441M450 443L451 444L450 443M623 443L624 444L623 443M619 444L620 445L619 444M302 445L303 446L302 445M343 445L344 446L343 445M423 445L424 446L423 445M613 445L614 446L613 445M340 446L341 447L340 446M694 446L695 447L694 446M732 448L733 449L732 448M715 450L716 451L715 450M717 450L718 451L717 450M426 493C413.076 498.676 401.926 513.473 396 526C415.342 528.607 433.386 546.103 446.985 559.089C451.381 563.287 456.97 574.796 463.09 576.068C466.929 576.866 471.659 573.348 475 571.861C483.891 567.904 492.924 564.315 502 560.811C528.813 550.458 560.029 540 589 540L589 541L587 541L587 542L592 542L592 543L578 546L578 547L586 547L586 548L552 554L554 551C543.845 551.829 524.963 556.292 520 566C534.054 567.776 545.394 566.148 559 563L559 564L557 564L557 565L563 565L561 570L603 566L603 567C585.234 575.256 565.519 575.523 547 582.424C540.942 584.682 530.252 586.72 529 594C542.028 593.73 555.6 587.454 568 583.72C598.386 574.568 649.667 576.521 658.335 615C660.493 624.582 658.754 632.466 658 642L659 642C661.928 627.812 665.921 613.607 665.921 599C665.921 557.531 647.639 520.333 618 492.039C606.859 481.404 590.837 477.752 580 468L577 469C576.525 465.508 572.139 465.041 569 464C560.018 461.02 550.455 458.708 541 458C509.745 455.661 480.94 462.08 452 474.005C444.524 477.085 426.865 484.127 426 493z"/>
<path style="fill:#ed1543; stroke:none;" d="M544 461L544 462L550 462L544 461M551 462L551 463L573 467L551 462M545 463L546 464L545 463M574.667 467.333L575.333 467.667L574.667 467.333M426 491L426 492L449 482.745L499 469C493.205 466.591 484.951 469.592 479 470.801C460.231 474.615 442.494 481.273 426 491z"/>
<path style="fill:#39435c; stroke:none;" d="M652 487L652 506L697 506L697 628L723 628L723 506L768 506L768 487L652 487M817 488C819.568 493.078 824.836 495.975 825.786 502C829.759 527.199 803.393 555.645 789.627 574C784.274 581.136 779.236 589.673 772 595C766.491 571.86 771 542.798 771 519L746 519L746 568L746 608C746 613.5 745.219 620.298 749.419 624.606C757.169 632.555 773.938 627.799 779.652 619.96C795.237 598.577 809.276 575.979 824.001 554C831.91 542.195 842.752 530.398 845.38 516C848.586 498.442 833.421 486.247 817 488z"/>
<path style="fill:#fab50b; stroke:none;" d="M423 492L424 493L423 492M180 521L180 522L183 523L180 521z"/>
<path style="fill:#fffcfc; stroke:none;" d="M180 522C174.021 532.622 173.918 547.27 184.04 555.471C186.488 557.454 196.866 560.434 197.369 563.31C198.11 567.549 187.193 574.642 184.789 578C177.019 588.85 176.796 605.098 184.637 615.999C190.137 623.645 198.772 627.838 208 628.826C212.15 629.271 219.117 627.448 222.682 629.889C225.726 631.973 228.553 647.162 228.306 650.895C227.789 658.731 213.622 655.526 209.213 658.742C204.103 662.47 204.997 671.215 199.775 674.364C195.829 676.744 190.253 669.883 185 671.261C173.849 674.187 164.012 686.862 160.784 697C159.376 701.421 156.256 706.559 160.318 710.57C165.454 715.643 172.816 712.999 179 713.379C185.123 713.755 191.183 716.649 196.996 713.142C201.073 710.682 202.866 705.089 207.104 703.198C211.218 701.362 216.504 703.305 221 701.521C227.346 699.003 231.601 692.857 238 690.703C244.35 688.566 251.526 691.905 258 691.817C264.491 691.729 271.476 687.284 277 684.204C285.484 679.473 287.73 664.876 296.043 662.279C309.565 658.054 325.091 660.342 339 659.985C342.037 659.907 351.944 657.272 351.944 662.954C351.944 665.943 346.226 667.345 344 667.775C337.979 668.94 323.501 665.362 320.644 673.133C316.251 685.079 331.75 691.092 337.7 696.317C342.829 700.821 345.535 706.506 353 707.656C363.75 709.312 376.215 701.135 386 697.699C390.145 696.244 395.011 696.451 398.907 694.427C402.315 692.657 403.761 687.518 407.221 686.346C410.022 685.396 416.032 693.824 421 693.736C436.118 693.47 452.538 687.272 467 684.516C477.093 682.593 490.981 700.995 502.567 691.258C504.47 689.658 512.364 680.134 512.364 677.997C512.364 673.292 505.125 670.716 502.301 667.815C496.624 661.984 489.694 651.425 486.468 644C479.774 628.589 480.573 611.438 474.907 596C467.051 574.597 445.442 555.866 428 542.35C420.86 536.817 413.727 530.611 405 527.749C387.085 521.874 376.57 532.861 361 538.938C353.481 541.873 345.031 543.699 338 547.683C332.588 550.75 328.517 556.09 323 558.822C317.197 561.695 310.088 559.986 304 563.138C296.606 566.966 291.517 574.099 284 577.672C274.93 581.983 264.295 580.532 255 584.89C242.838 590.591 222.752 613.998 208.004 606.543C200.008 602.502 199.464 593.621 204.533 587.004C213.537 575.25 229.776 570.229 228.96 553C228.113 535.124 210.314 536.462 198 531.522C191.64 528.97 186.58 524.083 180 522z"/>
<path style="fill:#fab50b; stroke:none;" d="M184 523L185 524L184 523M178 524L179 525L178 524M185 524L186 525L185 524M187 525L188 526L187 525M391 525L391 526L395 526L391 525M177 526L178 527L177 526M385.667 526.333L386.333 526.667L385.667 526.333M190 527L191 528L190 527M382 527L383 528L382 527M192 528L193 529L192 528z"/>
<path style="fill:#ed1543; stroke:none;" d="M183 529C178.562 539.517 184.097 551.1 195 554.891C198.421 556.081 209.738 554.549 209.654 560.019C209.605 563.257 205.171 565.924 202.999 567.754C197.196 572.645 190.457 578.086 187 585C172.63 613.741 206.886 627.214 229 621C230.746 628.333 229.717 635.69 232.029 643C233.044 646.211 235.629 650.463 233.929 653.815C229.558 662.432 218.743 659.12 212.39 663.179C207.648 666.21 207.482 673.802 203.775 677.907C193.787 688.968 181.235 692.325 178 708C183.717 709.077 190.604 711.321 195.674 707.297C199.006 704.653 200.363 700.043 204.093 697.833C208.134 695.438 213.487 698.114 218 696.387C224.557 693.877 229.309 687.231 236 685.433C246.718 682.553 256.502 689.254 267 683.557C275.574 678.905 290.999 668.759 285 657L284 657C278.91 663.604 274.728 670.758 267 674.622C256.995 679.625 245.541 676.567 235 678.464C224.548 680.346 218.339 686.149 210 692C213.278 667.475 248.088 674.748 264 667.481C280.685 659.862 280.77 642.655 284 627C293.106 631.373 282.263 646.184 289.434 653.581C296.857 661.238 318.059 654.409 328 655.089C332.384 655.39 337.54 657.084 341.772 655.106C346.613 652.844 343.342 646.706 348 644C350.854 656.302 359.206 659.577 367.996 667.21C371.566 670.31 376.835 675.656 375.164 680.96C374.376 683.461 372.153 685.188 369.985 686.468C354.654 695.512 353.565 680.147 342.96 673.942C339.829 672.11 327.043 671.199 326.16 676.279C324.678 684.806 335.223 687.309 339.896 690.603C345.01 694.207 346.247 700.421 353.001 702.161C363.208 704.789 375.598 695.402 385 692.633C390.339 691.062 395.416 691.78 399.211 686.941C407.001 677.011 405.609 670.432 400.259 660C397.024 653.691 394.979 648.713 387 651C392.196 663.481 403.48 675.555 389 686L390.609 671L380.454 650.055L392.61 642.347L403 620C405.506 630.526 400.792 637.308 398 647L427 644L412 669L418 669C416.77 671.255 415.213 673.51 414.509 676.002C408.801 696.215 433.271 684.78 442 683.326C446.963 682.499 452.142 684.1 457 682.736C460.934 681.632 464.859 676.711 469 677.175C479.991 678.407 485.452 691.725 499 688L485.39 676.96L473 655C487.94 660.792 488.204 678.946 507 679C500.781 667.921 487.772 660.062 481.916 648C474.356 632.43 475.657 614.647 469.536 599C461.665 578.88 443.122 562.832 427 549.414C417.14 541.207 405.905 530.24 392 531.094C382.744 531.662 375.866 537.342 368 541.511C359.757 545.879 350.144 547.063 342 551.518C336.057 554.769 331.932 560.638 326 563.682C320.702 566.401 313.718 565.2 308 567.464C299.498 570.832 294.173 578.777 286 582.672C276.824 587.045 266.256 585.805 257 590.123C242.762 596.767 226.688 617.5 209 613.057C206.006 612.305 203.334 610.816 201.019 608.786C182.616 592.659 209.278 576.99 218.811 565.999C221.733 562.631 223.943 558.592 223.609 554C222.558 539.57 207.274 540.319 197 536.613C191.963 534.796 187.812 531.277 183 529z"/>
<path style="fill:#fab50b; stroke:none;" d="M184 529L185 530L184 529M193 529L194 530L193 529M378 529L379 530L378 529M176 530L177 531L176 530M195 530L196 531L195 530M376 530L377 531L376 530M187 531L188 532L187 531M197 531L198 532L197 531M375 531L376 532L375 531M387.667 531.333L388.333 531.667L387.667 531.333M398.667 531.333L399.333 531.667L398.667 531.333M181 532L182 533L181 532M200 532L201 533L200 532M373 532L374 533L373 532M384 532L385 533L384 532M402 532L403 533L402 532M190 533L191 534L190 533M205.667 533.333L206.333 533.667L205.667 533.333M381 533L382 534L381 533M404 533L405 534L404 533M210.667 534.333L211.333 534.667L210.667 534.333M370 534L371 535L370 534M406 534L407 535L406 534M175 535L175 541L176 541L175 535M193 535L194 536L193 535M214 535L215 536L214 535M368 535L369 536L368 535M378 535L379 536L378 535M408 535L409 536L408 535M196 536L197 537L196 536M217 536L218 537L217 536M366 536L367 537L366 536M376 536L377 537L376 536M410 536L411 537L410 536M199.667 537.333L200.333 537.667L199.667 537.333M219 537L220 538L219 537M364 537L365 538L364 537M204.667 538.333L205.333 538.667L204.667 538.333M362 538L363 539L362 538M373 538L374 539L373 538M413 538L414 539L413 538M209 539L210 540L209 539M222 539L223 540L222 539M359 539L360 540L359 539M371 539L372 540L371 539M181 540L182 541L181 540M212 540L213 541L212 540M223 540L224 541L223 540M356 540L357 541L356 540z"/>
<path style="fill:#ed1543; stroke:none;" d="M463 577C471.176 591.212 476.894 600.351 479 617L524 597L524 598C513.034 602.726 503.111 610.279 493 616.576C489.668 618.652 483.067 621.23 481.694 625.21C480.401 628.956 483.159 634.478 484.333 638C487.874 648.619 499.303 672.177 512 673.632C517.316 674.241 524.036 671.002 529 669.333C545.195 663.886 565.378 654.887 576 641L564 642C568.829 633.647 577.143 628.518 584 621.961C596.482 610.026 607.363 596.556 613 580L576 581.235L529 594C531.145 587.142 540.89 585.122 547 582.808C564.625 576.133 587.431 577.171 603 567L603 566L561 570L563 565L557 565L557 564L559 564L559 563L520 566C527.129 556.768 542.817 552.506 554 551L552 554L586 548L586 547L578 547L578 546L592 543L592 542L587 542L587 541L589 541C579.179 536.879 562.924 542.764 553 545.116C521.914 552.484 491.865 563.322 463 577z"/>
<path style="fill:#fab50b; stroke:none;" d="M224 541L225 542L224 541M353.667 541.333L354.333 541.667L353.667 541.333M368 541L369 542L368 541M225 542L226 543L225 542M350.667 542.333L351.333 542.667L350.667 542.333M366 542L367 543L366 542M418 542L419 543L418 542M182 543L183 544L182 543M218 543L219 544L218 543M226 543L227 544L226 543M347.667 543.333L348.333 543.667L347.667 543.333M363 543L364 544L363 543M419 543L420 544L419 543M176 544L177 545L176 544M219 544L220 545L219 544M344.667 544.333L345.333 544.667L344.667 544.333M361 544L362 545L361 544M183 545L184 546L183 545M227 545L228 546L227 545M342 545L343 546L342 545M358 545L359 546L358 545M221 546L222 547L221 546M339 546L340 547L339 546M355 546L356 547L355 546M423 546L424 547L423 546M177 547L178 548L177 547M228.333 547.667L228.667 548.333L228.333 547.667M338 547L339 548L338 547M352 547L353 548L352 547M424 547L425 548L424 547M185 548L186 549L185 548M222 548L223 549L222 548M336 548L337 549L336 548M349 548L350 549L349 548M425 548L426 549L425 548M186 549L187 550L186 549M346 549L347 550L346 549M179 550L180 551L179 550M187 550L188 551L187 550M333 550L334 551L333 550M223.333 551.667L223.667 552.333L223.333 551.667M332 551L333 552L332 551M429 551L430 552L429 551M229 552L229 558L230 558L229 552M331 552L332 553L331 552M340 552L341 553L340 552M430 552L431 553L430 552M191 553L192 554L191 553M338 553L339 554L338 553M431 553L432 554L431 553M193 554L194 555L193 554M337 554L338 555L337 554z"/>
<path style="fill:#ed1543; stroke:none;" d="M568 554L568 555L571 555L568 554z"/>
<path style="fill:#fab50b; stroke:none;" d="M196 555L197 556L196 555M185 556L186 557L185 556M207.667 556.333L208.333 556.667L207.667 556.333M435 556L436 557L435 556M186 557L187 558L186 557M209 557L210 558L209 557M223.333 557.667L223.667 558.333L223.333 557.667M436 557L437 558L436 557M188 558L189 559L188 558M210 558L210 561L211 561L210 558M324 558L325 559L324 558M437 558L438 559L437 558M190 559L191 560L190 559M320 559L320 560L323 560L320 559M192 560L193 561L192 560M310.667 560.333L311.333 560.667L310.667 560.333M196.667 561.333L197.333 561.667L196.667 561.333M228 561L229 562L228 561M307 561L308 562L307 561M441 561L442 562L441 561z"/>
<path style="fill:#ed1543; stroke:none;" d="M562.667 561.333L563.333 561.667L562.667 561.333z"/>
<path style="fill:#fab50b; stroke:none;" d="M209 562L210 563L209 562M221 562L222 563L221 562M328 562L329 563L328 562M442 562L443 563L442 562z"/>
<path style="fill:#ed1543; stroke:none;" d="M559.667 562.333L560.333 562.667L559.667 562.333z"/>
<path style="fill:#fab50b; stroke:none;" d="M208 563L209 564L208 563M227 563L228 564L227 563M303 563L304 564L303 563M443 563L444 564L443 563M301 564L302 565L301 564M324.667 564.333L325.333 564.667L324.667 564.333M444 564L445 565L444 564M219 565L220 566L219 565M226 565L227 566L226 565M313.667 565.333L314.333 565.667L313.667 565.333M445 565L446 566L445 565M196 566L197 567L196 566M204 566L205 567L204 566M218 566L219 567L218 566M309.667 566.333L310.333 566.667L309.667 566.333M400 566L399 568L400 566z"/>
<path style="fill:#fffcfc; stroke:none;" d="M406 590C410.827 586.589 409.567 576.836 407.231 572.005C406.345 570.17 403.267 565.405 400.704 567.752C398.265 569.985 405.663 585.869 406 590z"/>
<path style="fill:#fab50b; stroke:none;" d="M403 566L404 567L403 566M195 567L196 568L195 567M203 567L204 568L203 567M217 567L218 568L217 567M297 567L298 568L297 567M307 567L308 568L307 567M404 567L405 568L404 567M194 568L195 569L194 568M202 568L203 569L202 568M216 568L217 569L216 568M224 568L225 569L224 568M296 568L297 569L296 568M305 568L306 569L305 568M405 568L406 569L405 568M215 569L216 570L215 569M223 569L224 570L223 569M295 569L296 570L295 569M303 569L304 570L303 569M214 570L215 571L214 570M222 570L223 571L222 570M399 570L400 571L399 570M406 570L407 571L406 570M449 570L450 571L449 570M221 571L222 572L221 571M450 571L451 572L450 571M539 573L539 574L547 572L539 573M189 572L190 573L189 572M220 572L221 573L220 572M299 572L300 573L299 572M400 572L401 573L400 572M188 573L189 574L188 573M210 573L211 574L210 573M219 573L220 574L219 573M298 573L299 574L298 573M187 574L188 575L187 574M195 574L196 575L195 574M209 574L210 575L209 574M218 574L219 575L218 574M289 574L290 575L289 574M297 574L298 575L297 574M408.333 574.667L408.667 575.333L408.333 574.667M186 575L187 576L186 575M194 575L195 576L194 575M288 575L289 576L288 575M296 575L297 576L296 575M402 575L403 576L402 575M193 576L194 577L193 576M454 576L455 577L454 576M192 577L193 578L192 577M214 577L215 578L214 577M455 577L456 578L455 577M184 578L185 579L184 578M204 578L205 579L204 578M213 578L214 579L213 578M282 578L283 579L282 578M403 578L404 579L403 578M463 578L464 579L463 578M183 579L184 580L183 579M203 579L204 580L203 579M212 579L213 580L212 579M277 579L277 580L280 580L277 579M464 579L465 580L464 579M269 580L269 581L272 581L269 580M290 580L291 581L290 580z"/>
<path style="fill:#4570b2; stroke:none;" d="M613.667 580.333L614.333 580.667L613.667 580.333z"/>
<path style="fill:#fab50b; stroke:none;" d="M182 581L183 582L182 581M209 581L210 582L209 581M264 581L265 582L264 581M404 581L405 582L404 581M409 581L410 582L409 581M458 581L459 582L458 581z"/>
<path style="fill:#39435c; stroke:none;" d="M612 581L611 607L619 603L610 625L606 627L608 626L608 627C597.928 637.079 587.347 646.366 577.04 656.17C567.175 665.553 573.438 668.968 584 666C549.482 699.032 492.224 718.142 445 707.575C429.796 704.173 418.176 692.685 404 689C408.282 697.986 422.22 704.896 431 709L431 710L420 705C428.51 715.446 445.197 719.922 458 722.079C476.131 725.135 494.72 726.687 513 724.829C522.489 723.865 531.536 720.222 541 719L541 720L483 728.95L450 724L450 725L471 732L471 733L464 733L464 734C473.735 736.252 482.884 739.518 493 739.961C541.059 742.065 586.422 717.927 624.7 691.271C631.483 686.547 635.022 677.919 642 673C626.408 693.229 610.156 710.288 588 723.397C580.43 727.875 572.306 731.744 564 734.655C559.456 736.247 552.976 737.038 550 741C593.623 731.972 635.306 699.085 652.716 658C667.682 622.682 655.582 581.9 612 581z"/>
<path style="fill:#4570b2; stroke:none;" d="M618 581L618 582L621 582L618 581z"/>
<path style="fill:#fab50b; stroke:none;" d="M188 582L189 583L188 582M208 582L209 583L208 582M260 582L261 583L260 582z"/>
<path style="fill:#4570b2; stroke:none;" d="M624 582L625 583L624 582z"/>
<path style="fill:#fab50b; stroke:none;" d="M181 583L182 584L181 583M207 583L208 584L207 583M258 583L259 584L258 583M284 583L285 584L284 583M467 583L468 584L467 583z"/>
<path style="fill:#4570b2; stroke:none;" d="M627.667 583.333L628.333 583.667L627.667 583.333z"/>
<path style="fill:#fab50b; stroke:none;" d="M206 584L207 585L206 584M255 584L256 585L255 584M281 584L282 585L281 584M468 584L469 585L468 584z"/>
<path style="fill:#4570b2; stroke:none;" d="M611 584L612 585L611 584M631 584L632 585L631 584z"/>
<path style="fill:#fab50b; stroke:none;" d="M180 585L181 586L180 585M205 585L206 586L205 585M253 585L254 586L253 585M276.667 585.333L277.333 585.667L276.667 585.333M405.333 585.667L405.667 586.333L405.333 585.667M461 585L462 586L461 585M197 586L198 587L197 586M204 586L205 587L204 586M267 586L267 587L270 587L267 586z"/>
<path style="fill:#4570b2; stroke:none;" d="M610 586C604.696 600.569 593.127 612.546 582 622.911C575.643 628.832 567.245 633.624 564 642L576 641C558.558 657.063 534.779 670.501 511 674C513.152 680.174 509.339 680.472 505.984 684.684C499.061 693.372 493.372 694.938 482 690.532C476.539 688.417 470.185 680.939 465 686L468 687L467 690C475.236 692.786 482.741 699.141 491 700.738C521.535 706.646 565.17 691.581 584 666C571.678 668.542 568.858 664.328 579.004 655.286C588.558 646.77 602.474 637.85 608 626L588 637L591.312 624L604 606L611 607L610 586z"/>
<path style="fill:#fab50b; stroke:none;" d="M250 587L251 588L250 587M263.667 587.333L264.333 587.667L263.667 587.333M470 587L471 588L470 587M185 588L186 589L185 588M196 588L197 589L196 588M248 588L249 589L248 588M260 588L261 589L260 588M408.333 588.667L408.667 589.333L408.333 588.667z"/>
<path style="fill:#39435c; stroke:none;" d="M609 588L610 589L609 588z"/>
<path style="fill:#fab50b; stroke:none;" d="M179.333 589.667L179.667 590.333L179.333 589.667M202 589L203 590L202 589M258 589L259 590L258 589M464 589L465 590L464 589M471 589L472 590L471 589z"/>
<path style="fill:#4570b2; stroke:none;" d="M641 589L642 590L641 589z"/>
<path style="fill:#fab50b; stroke:none;" d="M245 590L246 591L245 590M406.667 590.333L407.333 590.667L406.667 590.333M195 591L196 592L195 591M201.333 591.667L201.667 592.333L201.333 591.667M254 591L255 592L254 591M242 592L243 593L242 592M252 592L253 593L252 592M466 592L467 593L466 592M473 592L474 593L473 592M184 593L184 600L185 600L184 593M241 593L242 594L241 593M249 594L250 595L249 594M467 594L468 595L467 594M474 594L475 595L474 594M238 595L239 596L238 595M248 595L249 596L248 595z"/>
<path style="fill:#4570b2; stroke:none;" d="M648 595L649 596L648 595z"/>
<path style="fill:#fab50b; stroke:none;" d="M468 596L469 597L468 596M524.667 596.333L525.333 596.667L524.667 596.333M235 597L236 598L235 597M245 597L246 598L245 597M475 597L476 598L475 597M479 617L480 625L524 598L510 601.781L479 617M234 598L235 599L234 598M244 598L245 599L244 598M469 598L470 599L469 598M201 600L202 601L201 600M231 600L232 601L231 600M241 600L242 601L241 600M476.333 600.667L476.667 601.333L476.333 600.667z"/>
<path style="fill:#39435c; stroke:none;" d="M602 600L603 601L602 600z"/>
<path style="fill:#fab50b; stroke:none;" d="M195 601L196 602L195 601M240 601L241 602L240 601M470 601L471 602L470 601M202 602L203 603L202 602M228 602L229 603L228 602z"/>
<path style="fill:#ed1543; stroke:none;" d="M619 602L620 603L619 602z"/>
<path style="fill:#fab50b; stroke:none;" d="M226 603L227 604L226 603M237 603L238 604L237 603z"/>
<path style="fill:#ed1543; stroke:none;" d="M606 606L605 606C595.231 616.208 591.382 623.805 588 637C602.972 634.815 616.847 617.366 619 603L606 606z"/>
<path style="fill:#fab50b; stroke:none;" d="M179.333 604.667L179.667 605.333L179.333 604.667M185 604L186 605L185 604M196 604L197 605L196 604M224 604L225 605L224 604M205 605L206 606L205 605M222 605L223 606L222 605M234 605L235 606L234 605M471 605L472 606L471 605M219.667 606.333L220.333 606.667L219.667 606.333M232 606L233 607L232 606M477 606L477 609L478 609L477 606z"/>
<path style="fill:#39435c; stroke:none;" d="M604 606L605 607L604 606z"/>
<path style="fill:#fab50b; stroke:none;" d="M186 607L187 608L186 607M209 607L209 608L217 608L209 607z"/>
<path style="fill:#39435c; stroke:none;" d="M607.667 607.333L608.333 607.667L607.667 607.333z"/>
<path style="fill:#fab50b; stroke:none;" d="M180 608L181 609L180 608z"/>
<path style="fill:#4570b2; stroke:none;" d="M656 608L657 609L656 608z"/>
<path style="fill:#fab50b; stroke:none;" d="M187 609L188 610L187 609M181 610L182 611L181 610M202 610L203 611L202 610M224 610L225 611L224 610M222 611L223 612L222 611z"/>
<path style="fill:#4570b2; stroke:none;" d="M657 611L658 612L657 611z"/>
<path style="fill:#fab50b; stroke:none;" d="M182 612L183 613L182 612M189 612L190 613L189 612M206 612L207 613L206 612M218.667 612.333L219.333 612.667L218.667 612.333M472.333 612.667L472.667 613.333L472.333 612.667M210 613L210 614L215 614L210 613M454 613L453 615L454 613z"/>
<path style="fill:#fffcfc; stroke:none;" d="M448 629C458.316 624.319 464.424 627.432 465 640C475.816 636.197 459.641 599.989 449.796 621.998C448.747 624.345 448.26 626.465 448 629z"/>
<path style="fill:#fab50b; stroke:none;" d="M457 613L458 614L457 613M478.333 613.667L478.667 614.333L478.333 613.667M183 614L184 615L183 614M452 616L453 617L452 616M185 617L186 618L185 617M194 617L195 618L194 617M461 617L462 618L461 617M186 618L187 619L186 618M195 618L196 619L195 618M451 618L452 619L451 618M473.333 618.667L473.667 619.333L473.333 618.667M187 619L188 620L187 619M197 619L198 620L197 619M462 619L463 620L462 619M188 620L189 621L188 620M199 620L200 621L199 620M401.667 620.333L402.333 620.667L401.667 620.333M450 620L451 621L450 620M463 620L464 621L463 620M189 621L190 622L189 621M201 621L202 622L201 621M227.667 621.333L228.333 621.667L227.667 621.333M403.333 621.667L403.667 622.333L403.333 621.667z"/>
<path style="fill:#4570b2; stroke:none;" d="M659 621L660 622L659 621z"/>
<path style="fill:#fab50b; stroke:none;" d="M204 622L205 623L204 622M223 622L224 623L223 622M229 622L230 623L229 622M399 622L399 625L400 625L399 622M449 622L450 623L449 622z"/>
<path style="fill:#4570b2; stroke:none;" d="M610 622L609 625L610 622z"/>
<path style="fill:#fab50b; stroke:none;" d="M192 623L193 624L192 623M208.667 623.333L209.333 623.667L208.667 623.333M217.667 623.333L218.333 623.667L217.667 623.333M474.333 623.667L474.667 624.333L474.333 623.667M448 624L449 625L448 624M454 624L455 625L454 624M457 624L458 625L457 624M466 624L467 625L466 624M195 625L196 626L195 625M458 625L459 626L458 625z"/>
<path style="fill:#4570b2; stroke:none;" d="M608 625L609 626L608 625z"/>
<path style="fill:#fab50b; stroke:none;" d="M200.667 627.333L201.333 627.667L200.667 627.333M284 627L285 628L284 627M286 627L287 628L286 627M460 627L461 628L460 627M475.333 627.667L475.667 628.333L475.333 627.667M204.667 628.333L205.333 628.667L204.667 628.333M221.667 628.333L222.333 628.667L221.667 628.333M398.333 628.667L398.667 629.333L398.333 628.667M450 628L451 629L450 628M461 628L462 629L461 628M468 628L469 629L468 628M481 628L482 629L481 628z"/>
<path style="fill:#39435c; stroke:none;" d="M603 628L604 629L603 628z"/>
<path style="fill:#fab50b; stroke:none;" d="M283 629L284 630L283 629M288 629L289 630L288 629M449 629L450 630L449 629M462 629L463 630L462 629M224 630L224 633L225 633L224 630M403 630L403 633L404 633L403 630M463 631L464 632L463 631M476 631L477 632L476 631z"/>
<path style="fill:#4570b2; stroke:none;" d="M659 631L660 632L659 631z"/>
<path style="fill:#fab50b; stroke:none;" d="M469 632L469 636L470 636L469 632M482 632L483 633L482 632M282.333 633.667L282.667 634.333L282.333 633.667M287.333 633.667L287.667 634.333L287.333 633.667M397 633L398 634L397 633M464.333 634.667L464.667 635.333L464.333 634.667M402.333 635.667L402.667 636.333L402.333 635.667M477 635L478 636L477 635M483 635L484 636L483 635z"/>
<path style="fill:#4570b2; stroke:none;" d="M610 635C603.164 643.619 602.668 649.892 600 660C611.383 658.275 613.962 644.442 610 635z"/>
<path style="fill:#fab50b; stroke:none;" d="M396 636L397 637L396 636z"/>
<path style="fill:#ed1543; stroke:none;" d="M658.333 636.667L658.667 637.333L658.333 636.667z"/>
<path style="fill:#fab50b; stroke:none;" d="M230 637L231 638L230 637M225.333 638.667L225.667 639.333L225.333 638.667M395 638L396 639L395 638M401 638L402 639L401 638M468 638L469 639L468 638M478 638L479 639L478 638M484 638L485 639L484 638M281.333 639.667L281.667 640.333L281.333 639.667M286 639L286 643L287 643L286 639M394 640L395 641L394 640M466 640L467 641L466 640M231 641L232 642L231 641M479 641L480 642L479 641M485 641L486 642L485 641M226.333 643.667L226.667 644.333L226.333 643.667M391 643L392 644L391 643M425 643L426 644L425 643M657.333 643.667L657.667 644.333L657.333 643.667M232 644L233 645L232 644M347 644L348 645L347 644M389 644L390 645L389 644M398 644L399 645L398 644M419.667 644.333L420.333 644.667L419.667 644.333M426 644L427 645L426 644M480 644L481 645L480 644M486 644L487 645L486 644M280 645L280 648L281 648L280 645M286 645L286 649L287 649L286 645M344 645L345 646L344 645M384.667 645.333L385.333 645.667L384.667 645.333M411 645L412 646L411 645M348 646L349 647L348 646M381 646L382 647L381 646M409 646L410 647L409 646M481.333 646.667L481.667 647.333L481.333 646.667M487 646L488 647L487 646M227 647L228 648L227 647M344 647L345 648L344 647M399 647L400 648L399 647M405.667 647.333L406.333 647.667L405.667 647.333M424 647L425 648L424 647M379.333 648.667L379.667 649.333L379.333 648.667M488 648L489 649L488 648M228 649L229 650L228 649M234 649L235 650L234 649M349 649L350 650L349 649M390.667 649.333L391.333 649.667L390.667 649.333M423 649L424 650L423 649M482 649L483 650L482 649M387 650L388 651L387 650M394 650L395 651L394 650M404 652L409 661L417 650L404 652M279 651L280 652L279 651M287 651L288 652L287 651M396 651L397 652L396 651M422 651L423 652L422 651M483 651L484 652L483 651M380 652L381 653L380 652M387 652L388 653L387 652M484 652L485 653L484 652M228 653L229 654L228 653M278 653L279 654L278 653M288 653L289 654L288 653M344 653L345 654L344 653M351 653L352 654L351 653M485 653L486 654L485 653M234 654L235 655L234 654M388 654L389 655L388 654M397 654L398 655L397 654M421.333 654.667L421.667 655.333L421.333 654.667M486 654L487 655L486 654M493 654L494 655L493 654M224 655L225 656L224 655M233 655L234 656L233 655M277 655L278 656L277 655M291 655L292 656L291 655M309 655L309 656L314 656L309 655M326 655L326 656L332 656L326 655M341 655L342 656L341 655M475 655L476 656L475 655M487 655L488 656L487 655M219.667 656.333L220.333 656.667L219.667 656.333M294 656L295 657L294 656M302 656L302 657L305 657L302 656M389 656L390 657L389 656M398 656L399 657L398 656M488 656L489 657L488 656M210 657L211 658L210 657M230 657L231 658L230 657M283 657L284 658L283 657M285 657L286 658L285 657M383 657L384 658L383 657M419 657L420 658L419 657M474 657L475 658L474 657M478 657L479 658L478 657M495 657L496 658L495 657M208 658L209 659L208 658M275 658L276 659L275 658M286 658L287 659L286 658M347.667 658.333L348.333 658.667L347.667 658.333M390 658L391 659L390 658M418 658L419 659L418 658M479 658L480 659L479 658M207 659L208 660L207 659M226 659L227 660L226 659M274 659L275 660L274 659M287.333 659.667L287.667 660.333L287.333 659.667M315 659L316 660L315 659M344 659L345 660L344 659M357 659L358 660L357 659M384 659L385 660L384 659M417 659L418 660L417 659M480 659L481 660L480 659M490 659L491 660L490 659M496 659L497 660L496 659M224 660L225 661L224 660M281 660L282 661L281 660M308.667 660.333L309.333 660.667L308.667 660.333M326 660L326 661L340 661L326 660M351 660L352 661L351 660M358 660L359 661L358 660M391 660L392 661L391 660M416 660L417 661L416 660M476 660L477 661L476 660M481 660L482 661L481 660M206 661L207 662L206 661M218 661L218 662L223 662L218 661M300 661L300 662L304 662L300 661M352 661L353 662L352 661M385 661L386 662L385 661M415 661L416 662L415 661M451 661L452 662L451 661z"/>
<path style="fill:#fffcfc; stroke:none;" d="M445 669C461.007 673.719 453.612 652.548 445 669z"/>
<path style="fill:#fab50b; stroke:none;" d="M455 661L456 662L455 661M491 661L492 662L491 661M497 661L498 662L497 661M212 662L213 663L212 662M271 662L272 663L271 662M353.333 662.667L353.667 663.333L353.333 662.667M361 662L362 663L361 662M392 662L393 663L392 662M205 663L206 664L205 663M270 663L271 664L270 663M279 663L280 664L279 663M286 663L287 664L286 663M292 663L293 664L292 663M448 663L449 664L448 663M456 663L456 666L457 666L456 663M498 663L499 664L498 663M210 664L211 665L210 664M393 664L394 665L393 664M402 664L403 665L402 664M447 664L448 665L447 664M484 664L485 665L484 664M493 664L494 665L493 664M499 664L500 665L499 664M204 665L205 666L204 665M267 665L268 666L267 665M285 665L286 666L285 665M291 665L292 666L291 665M349 665L349 666L352 666L349 665M366 665L367 666L366 665M479 665L480 666L479 665z"/>
<path style="fill:#4570b2; stroke:none;" d="M584 665L585 666L584 665z"/>
<path style="fill:#fab50b; stroke:none;" d="M209 666L210 667L209 666M347 666L348 667L347 666M388 666L389 667L388 666M394 666L395 667L394 666M412 666L413 667L412 666M485 666L486 667L485 666M276 667L277 668L276 667M290 667L291 668L290 667M404 667L405 668L404 667M445 667L446 668L445 667M480 667L481 668L480 667M495 667L496 668L495 667M501 667L502 668L501 667M203 668L204 669L203 668M208 668L209 669L208 668M261 668L262 669L261 668M275 668L276 669L275 668M283 668L284 669L283 668M327.667 668.333L328.333 668.667L327.667 668.333M343.667 668.333L344.333 668.667L343.667 668.333M389 668L390 669L389 668M395 668L396 669L395 668M455 668L456 669L455 668M486 668L487 669L486 668M502 668L503 669L502 668M258 669L259 670L258 669M274 669L275 670L274 669M289 669L290 670L289 669M324 669L325 670L324 669M413.667 669.333L414.333 669.667L413.667 669.333M417.333 669.667L417.667 670.333L417.333 669.667M445 669L446 670L445 669M454 669L455 670L454 669M503 669L504 670L503 669M186.667 670.333L187.333 670.667L186.667 670.333M189 670L190 671L189 670M254.667 670.333L255.333 670.667L254.667 670.333M273 670L274 671L273 670M358 670L358 671L361 671L358 670z"/>
<path style="fill:#ed1543; stroke:none;" d="M350 672C352.552 675.37 355.041 680.881 358.39 683.357C361.292 685.503 367.337 683.837 367.763 679.892C368.938 669.007 356.8 669.989 350 672z"/>
<path style="fill:#fab50b; stroke:none;" d="M364 670L365 671L364 670M390 670L391 671L390 670M396 670L397 671L396 670M405.333 670.667L405.667 671.333L405.333 670.667M447 670L447 671L450 671L447 670M481 670L482 671L481 670M183 671L184 672L183 671M192 671L193 672L192 671M202 671L203 672L202 671M207 671L208 672L207 671M246 671L246 672L250 672L246 671M272 671L273 672L272 671M288 671L289 672L288 671M320 671L321 672L320 671M350 671L351 672L350 671M365 671L366 672L365 671M506 671L507 672L506 671M181 672L182 673L181 672M193 672L194 673L193 672M234 672L234 673L237 673L234 672M333 672L333 673L337 673L333 672M339.667 672.333L340.333 672.667L339.667 672.333M373 672L374 673L373 672M391 672L392 673L391 672M482 672L483 673L482 672M508 672L509 673L508 672M179 673L180 674L179 673M194 673L195 674L194 673M201 673L202 674L201 673M230 673L231 674L230 673M269 673L270 674L269 673M287 673L288 674L287 673M327.667 673.333L328.333 673.667L327.667 673.333M397.333 673.667L397.667 674.333L397.333 673.667M415 673L416 674L415 673M195 674L196 675L195 674M200 674L201 675L200 674M206 674L207 675L206 674M226.667 674.333L227.333 674.667L226.667 674.333M280 674L281 675L280 674M319 674L320 675L319 674M344 674L345 675L344 674M352 674L353 675L352 674M366.333 674.667L366.667 675.333L366.333 674.667M374 674L375 675L374 674M502 674L503 675L502 674M185 677L188 676L185 677z"/>
<path style="fill:#ed1543; stroke:none;" d="M187.926 676.255C181.958 675.847 172.655 688.133 182.019 688.133C186.583 688.132 194.92 676.734 187.926 676.255z"/>
<path style="fill:#fab50b; stroke:none;" d="M224 675L225 676L224 675M265 675L266 676L265 675M286 675L287 676L286 675M325 675L326 676L325 675M345 675L346 676L345 675M391.333 675.667L391.667 676.333L391.333 675.667M405 675L406 676L405 675M504 675L505 676L504 675M197.667 676.333L198.333 676.667L197.667 676.333M205 676L206 677L205 676M222 676L223 677L222 676M261.667 676.333L262.333 676.667L261.667 676.333M484 676L485 677L484 676M494 676L495 677L494 676M506 676L507 677L506 676M220 677L221 678L220 677M240 677L240 678L255 678L240 677M320.333 677.667L320.667 678.333L320.333 677.667M325 677L326 678L325 677M354 677L355 678L354 677M367 677L368 678L367 677M375 677L376 678L375 677M396 677L397 678L396 677M413 677L413 681L414 681L413 677M465 677L466 678L465 677M471 677L472 678L471 677M496 677L497 678L496 677M507 677L508 678L507 677M174 678L175 679L174 678M182 678L183 679L182 678M233.667 678.333L234.333 678.667L233.667 678.333M276 678L277 679L276 678M284 678L285 679L284 678M347 678L348 679L347 678M464 678L465 679L464 678M498 678L499 679L498 678M181 679L182 680L181 679M191 679L192 680L191 679M217 679L218 680L217 679M229.667 679.333L230.333 679.667L229.667 679.333M273 679L274 680L273 679M283 679L284 680L283 679M355 679L356 680L355 679M368 679L369 680L368 679M395 679L396 680L395 679M403 679L404 680L403 679M487 679L488 680L487 679M503.667 679.333L504.333 679.667L503.667 679.333M179 680L180 681L179 680M201 680L202 681L201 680M216 680L217 681L216 680M227 680L228 681L227 680M282 680L283 681L282 680M321 680L322 681L321 680M327 680L328 681L327 680M390 680L391 681L390 680M488 680L489 681L488 680M190 681L191 682L190 681M224 681L225 682L224 681M281 681L282 682L281 681M349 681L350 682L349 681M356 681L357 682L356 681M368 681L369 682L368 681M375 681L376 682L375 681M394 681L395 682L394 681M402 681L403 682L402 681M460 681L461 682L460 681M177 682L178 683L177 682M189 682L190 683L189 682M198 682L199 683L198 682M222 682L223 683L222 682M268 682L269 683L268 682M322 682L323 683L322 682M328 682L329 683L328 682M393 682L394 683L393 682M458 682L459 683L458 682M491 682L492 683L491 682M168.667 683.333L169.333 683.667L168.667 683.333M213 683L214 684L213 683M278 683L279 684L278 683M357 683L358 684L357 683M365 683L366 684L365 683M374 683L375 684L374 683M389.333 683.667L389.667 684.333L389.333 683.667M401 683L402 684L401 683M440.667 683.333L441.333 683.667L440.667 683.333M450 683L450 684L453 684L450 683M454.667 683.333L455.333 683.667L454.667 683.333M478 683L479 684L478 683M166 684L167 685L166 684M195 684L196 685L195 684M212 684L213 685L212 684M219 684L220 685L219 684M265 684L266 685L265 684M276 684L277 685L276 684M323 684L324 685L323 684M351 684L352 685L351 684M358 684L359 685L358 684M362.667 684.333L363.333 684.667L362.667 684.333M373 684L374 685L373 684M414.333 684.667L414.667 685.333L414.333 684.667M437 684L438 685L437 684M187 685L188 686L187 685M193 685L194 686L193 685M234.667 685.333L235.333 685.667L234.667 685.333M246 685L246 686L249 686L246 685M263 685L264 686L263 685M274 685L275 686L274 685M330 685L331 686L330 685M406 685L407 686L406 685z"/>
<path style="fill:#ed1543; stroke:none;" d="M405 689C413.952 694.574 421.983 700.274 432 703.947C462.381 715.086 492.634 708.962 523 702L523 701L489.004 700.058L467 690L468 687C449.887 682.586 421.405 704.452 409 685L405 689z"/>
<path style="fill:#fab50b; stroke:none;" d="M409 685L410 686L409 685M434 685L435 686L434 685M464 685L465 686L464 685M481 685L482 686L481 685M177 686L178 687L177 686M186 686L187 687L186 686M232 686L233 687L232 686M252 686L252 687L255 687L252 686M258.667 686.333L259.333 686.667L258.667 686.333M272 686L273 687L272 686M324 686L325 687L324 686M370 686L371 687L370 686M399 686L400 687L399 686M431 686L432 687L431 686M462 686L463 687L462 686M498 686L499 687L498 686M163 687L164 688L163 687M178 687L179 688L178 687M185 687L186 688L185 687M210 687L211 688L210 687M215 687L216 688L215 687M270 687L271 688L270 687M331 687L332 688L331 687M368 687L369 688L368 687M410 687L411 688L410 687M428 687L429 688L428 687M460 687L461 688L460 687M486.667 687.333L487.333 687.667L486.667 687.333M180 688L181 689L180 688M183 688L184 689L183 688M191 688L192 689L191 688M214 688L215 689L214 688M268 688L269 689L268 688M332 688L333 689L332 688M355 688L356 689L355 688M365 688L366 689L365 688z"/>
<path style="fill:#4570b2; stroke:none;" d="M404 688L405 689L404 688z"/>
<path style="fill:#fab50b; stroke:none;" d="M418 688L419 689L418 688M423.667 688.333L424.333 688.667L423.667 688.333M458 688L459 689L458 688M490 688L490 689L493 689L490 688M498 688L499 689L498 688M162.333 689.667L162.667 690.333L162.333 689.667z"/>
<path style="fill:#ed1543; stroke:none;" d="M164 706C171.939 709.324 179.379 699.863 174.958 692.153C172.565 687.981 168.408 690.419 167.278 694.019C166.772 695.63 166.671 697.367 166.216 698.998C165.557 701.36 164.646 703.632 164 706z"/>
<path style="fill:#fab50b; stroke:none;" d="M213 689L214 690L213 689M266 689L267 690L266 689M326 689L327 690L326 689M339 689L340 690L339 689M361.667 689.333L362.333 689.667L361.667 689.333M397 689L398 690L397 689M411 689L412 690L411 689M438 689L439 690L438 689M212 690L213 691L212 690M227 690L228 691L227 690M237 690L238 691L237 690M244 690L244 691L247 691L244 690M264 690L265 691L264 690M434.667 690.333L435.333 690.667L434.667 690.333M210.667 691.333L211.333 691.667L210.667 691.333M226 691L227 692L226 691M235 691L236 692L235 691M252 691L252 692L255 692L252 691M261 691L262 692L261 691M391 691L391 692L394 692L391 691M402 691L403 692L402 691M431 691L432 692L431 691M225 692L226 693L225 692M342 692L343 693L342 692M384 692L385 693L384 692M414 692L415 693L414 692M428 692L429 693L428 692M161.333 693.667L161.667 694.333L161.333 693.667M176.333 693.667L176.667 694.333L176.333 693.667M185 693L186 694L185 693M223 693L224 694L223 693M232 693L233 694L232 693M330 693L331 694L330 693M382 693L383 694L382 693M417 693L418 694L417 693M423.667 693.333L424.333 693.667L423.667 693.333z"/>
<path style="fill:#39435c; stroke:none;" d="M622 693L623 694L622 693z"/>
<path style="fill:#fab50b; stroke:none;" d="M166 694L166 699L167 699L166 694M182 694L183 695L182 694M221 694L222 695L221 694M231 694L232 695L231 694M335.667 694.333L336.333 694.667L335.667 694.333M343 694L344 695L343 694M380 694L381 695L380 694M399 694L400 695L399 694M230 695L231 696L230 695M396 695L397 696L396 695M205 696L205 697L208 697L205 696M338 696L339 697L338 696M375 696L376 697L375 696M389 696L389 697L392 697L389 696M175 697L176 698L175 697M203 697L204 698L203 697M211 697L212 698L211 697M214.667 697.333L215.333 697.667L214.667 697.333M345 697L346 698L345 697M386 697L387 698L386 697M160 698L161 699L160 698M202 698L203 699L202 698M226 698L227 699L226 698M370 698L371 699L370 698M383 698L384 699L383 698M201 699L202 700L201 699M225 699L226 700L225 699M340 699L341 700L340 699M347 699L348 700L347 699M367 699L368 700L367 699M381 699L382 700L381 699M159 700L160 701L159 700M174 700L175 701L174 700M179.333 700.667L179.667 701.333L179.333 700.667M223 700L224 701L223 700M341 700L342 701L341 700M348 700L349 701L348 700M364 700L365 701L364 700M379 700L380 701L379 700M221 701L222 702L221 701M350 701L351 702L350 701M361 701L362 702L361 701M376 701L377 702L376 701M158 702L159 703L158 702M199 702L200 703L199 702M206 702L207 703L206 702M208.667 702.333L209.333 702.667L208.667 702.333M218.667 702.333L219.333 702.667L218.667 702.333M352.667 702.333L353.333 702.667L352.667 702.333M357.667 702.333L358.333 702.667L357.667 702.333M374 702L375 703L374 702M164 703L165 704L164 703M371 703L372 704L371 703M173 704L174 705L173 704M178.333 704.667L178.667 705.333L178.333 704.667M198 704L199 705L198 704M204 704L205 705L204 704M345 704L346 705L345 704M368 704L369 705L368 704z"/>
<path style="fill:#39435c; stroke:none;" d="M419 704L420 705L419 704z"/>
<path style="fill:#fab50b; stroke:none;" d="M157.333 705.667L157.667 706.333L157.333 705.667M163 705L164 706L163 705M197 705L198 706L197 705M346 705L347 706L346 705M365 705L366 706L365 705M164 706L165 707L164 706M203 706L204 707L203 706M348 706L349 707L348 706M362 706L363 707L362 706M167 707L168 708L167 707M172 707L173 708L172 707M351 707L352 708L351 707M358 707L359 708L358 707M170.667 708.333L171.333 708.667L170.667 708.333M179.667 708.333L180.333 708.667L179.667 708.333M194 708L195 709L194 708M158 709L159 710L158 709M185.667 709.333L186.333 709.667L185.667 709.333M191 709L192 710L191 709M201 709L202 710L201 709z"/>
<path style="fill:#4570b2; stroke:none;" d="M594 709L595 710L594 709z"/>
<path style="fill:#fab50b; stroke:none;" d="M159 710L160 711L159 710M200 710L201 711L200 710z"/>
<path style="fill:#4570b2; stroke:none;" d="M592.667 710.333L593.333 710.667L592.667 710.333z"/>
<path style="fill:#fab50b; stroke:none;" d="M160 711L161 712L160 711M199 711L200 712L199 711z"/>
<path style="fill:#4570b2; stroke:none;" d="M591 711L592 712L591 711z"/>
<path style="fill:#fab50b; stroke:none;" d="M162 712L163 713L162 712M198 712L199 713L198 712z"/>
<path style="fill:#4570b2; stroke:none;" d="M524 738L524 739C545.613 738.07 576.873 729.355 591 712C583.533 714.363 577.051 719.328 570 722.68C555.286 729.673 539.995 734.898 524 738z"/>
<path style="fill:#fab50b; stroke:none;" d="M166 713L167 714L166 713M179.667 713.333L180.333 713.667L179.667 713.333M172 714L173 715L172 714M184.667 714.333L185.333 714.667L184.667 714.333M194 714L195 715L194 714z"/>
<path style="fill:#4570b2; stroke:none;" d="M462 725L462 726C468.73 726.55 475.198 728.896 482 728.981C502.35 729.238 521.35 724.067 541 720L513 724.711L462 725M449 724L450 725L449 724z"/>
<path style="fill:#ed1543; stroke:none;" d="M498 727L498 728L505 728L498 727M489 728L489 729L494 729L489 728z"/>
<path style="fill:#39435c; stroke:none;" d="M456 730L457 731L456 730M458.667 731.333L459.333 731.667L458.667 731.333M461 732L461 733L464 733L461 732M547 740L548 741L547 740z"/>
</svg>
