<svg xmlns="http://www.w3.org/2000/svg" viewBox="0 0 283.46 283.46"><defs><style>.cls-1,.cls-5{fill:#0065a4;}.cls-2{fill:#fff;}.cls-3{fill:#fdea32;}.cls-4{fill:none;}.cls-4,.cls-5{stroke:#000;stroke-miterlimit:10;stroke-width:1.76px;}</style></defs><title>rik</title><g id="Layer_2" data-name="Layer 2"><g id="Kids"><g id="rik"><rect class="cls-1" width="283.46" height="283.46"/><g id="logo"><path class="cls-2" d="M217.82,163.88a76.09,76.09,0,1,1-152.18,0c0-52.75,33.61-120.39,76.09-120.39,42,0,76.09,67.64,76.09,120.39"/><path d="M141.74,44.28c9.75,0,19.44,3.74,28.83,11.13,8.64,6.8,16.93,16.76,24,28.81,13.94,23.79,22.26,53.65,22.26,79.88a75.08,75.08,0,1,1-150.15,0c0-26.31,8.26-56.17,22.09-79.88,7-12.06,15.32-22,24-28.81,9.4-7.38,19.17-11.13,29-11.13h0m0-1.76c-42.9,0-76.84,68.31-76.84,121.58a76.84,76.84,0,1,0,153.68,0c0-53.28-34.38-121.58-76.84-121.58Z"/><path class="cls-3" d="M161.19,138.8a10,10,0,1,1-9.52-10.29,9.91,9.91,0,0,1,9.52,10.29"/><path class="cls-4" d="M161.19,138.8a10,10,0,1,1-9.52-10.29,9.91,9.91,0,0,1,9.52,10.29"/><path class="cls-2" d="M129.49,163.83c2.15-1.73,11.41-7.76,7-20.61S114.85,125,100.94,124.68,79.61,126.74,79.12,127s-.47,21.14-.5,25.2,1.25,34,1.55,34.68.47.18,1.2-.1,7.73-.37,10.67-.31,12.07.62,12.07.62-1-12.38-.62-12.75,7.05,11.22,7.9,11.81,27.44,0,27.79-.5S125.23,168,125.06,166.9c-.06-.4,1.93-1,4.43-3.07m-18.1-12.11c-1.09,2.89-7.73,5.62-8.65,4.86s-1.13-10.31-.31-10.75,4.8-.5,6.6,0,3.44,3,2.36,5.91"/><path class="cls-5" d="M129.49,163.83c2.15-1.73,11.41-7.76,7-20.61S114.85,125,100.94,124.68,79.61,126.74,79.12,127s-.47,21.14-.5,25.2,1.25,34,1.55,34.68.47.18,1.2-.1,7.73-.37,10.67-.31,12.07.62,12.07.62-1-12.38-.62-12.75,7.05,11.22,7.9,11.81,27.44,0,27.79-.5S125.23,168,125.06,166.9c-.06-.4,1.93-1,4.43-3.07Zm-18.1-12.11c-1.09,2.89-7.73,5.62-8.65,4.86s-1.13-10.31-.31-10.75,4.8-.5,6.6,0S112.48,148.83,111.4,151.73Z"/><path class="cls-2" d="M141.8,152.41c-.25.31-.79,33.54-.79,33.54l18.2.5s.61-33.15.48-33.63-17.49-.88-17.89-.41"/><path class="cls-5" d="M141.8,152.41c-.25.31-.79,33.54-.79,33.54l18.2.5s.61-33.15.48-33.63S142.19,151.93,141.8,152.41Z"/><path class="cls-2" d="M183.85,184.55l-19.09,1s-.2-22.89-.48-30.07c-.44-11.16.48-26.82.48-26.82,14.21-.45,19.28-.78,19.68-.79l-.46,8.39-1.1,18.27,16.6-17.43,9.25,16.72c0,.55-9.82,7.88-13.17,10.62l17.15,18.11s-19,3-21.38,1.79c-1.58-.8-8.29-12.62-8.29-12.62l.8,12.84Z"/><path class="cls-5" d="M183.85,184.55l-19.09,1s-.2-22.89-.48-30.07c-.44-11.16.48-26.82.48-26.82,14.21-.45,19.28-.78,19.68-.79l-.46,8.39-1.1,18.27,16.6-17.43,9.25,16.72c0,.55-9.82,7.88-13.17,10.62l17.15,18.11s-19,3-21.38,1.79c-1.58-.8-8.29-12.62-8.29-12.62l.8,12.84Z"/></g></g></g></g></svg>