<svg xmlns="http://www.w3.org/2000/svg" viewBox="0 0 283.46 283.46"><defs><style>.cls-1{fill:#26252a;}.cls-2{fill:#fff;}.cls-3{fill:#003663;}.cls-4{opacity:0.2;}</style></defs><title>skyatlantic</title><g id="Layer_2" data-name="Layer 2"><g id="Sky"><g id="skyatlantic"><rect class="cls-1" width="283.46" height="283.46"/><g id="logo"><path class="cls-2" d="M44.66,122.93a1.78,1.78,0,0,0-1.76,1.8v34a1.78,1.78,0,0,0,1.76,1.8h62.47V122.93Z"/><path class="cls-2" d="M45.08,160.94h62.05v-.8h-62a1.76,1.76,0,0,1-1.76-1.76v-33.3a1.76,1.76,0,0,1,1.76-1.76h62.05v-.8h-62a2.56,2.56,0,0,0-2.56,2.56v33.3a2.56,2.56,0,0,0,2.56,2.56"/><path class="cls-3" d="M238.38,122.52H106.46v38.42H238.38a2.56,2.56,0,0,0,2.56-2.56v-33.3a2.56,2.56,0,0,0-2.56-2.56"/><path class="cls-2" d="M171.16,139.3v11.36a5.77,5.77,0,0,1-1.34.15c-1.09,0-1.53-.37-1.53-1.12V148.2A8.36,8.36,0,0,1,161.9,151c-4,0-6.25-2.58-6.25-5.42,0-4.34,4.68-6.24,12.6-5.72v-.49c0-2.76-.9-4.41-4.41-4.41a14.8,14.8,0,0,0-4.45.75,6.42,6.42,0,0,1-1.27.3c-.82,0-1.31-.75-1.12-2.32a21.22,21.22,0,0,1,6.95-1.27c5.27,0,7.21,2.62,7.21,6.84m-2.91,6.24V142.1c-5.16-.22-9.61.27-9.61,3.48,0,1.57,1.35,3,3.74,3a7.33,7.33,0,0,0,5.87-3.07"/><path class="cls-2" d="M129.68,139.3v11.36a5.8,5.8,0,0,1-1.35.15c-1.08,0-1.53-.37-1.53-1.12V148.2a8.35,8.35,0,0,1-6.39,2.84c-4,0-6.24-2.58-6.24-5.42,0-4.34,4.67-6.24,12.59-5.72v-.49c0-2.76-.89-4.41-4.41-4.41a14.66,14.66,0,0,0-4.44.75,6.42,6.42,0,0,1-1.27.3c-.83,0-1.31-.75-1.12-2.32a21.17,21.17,0,0,1,7-1.27c5.27,0,7.21,2.62,7.21,6.84m-2.92,6.24V142.1c-5.15-.22-9.6.27-9.6,3.48,0,1.57,1.35,3,3.74,3a7.31,7.31,0,0,0,5.86-3.07"/><path class="cls-2" d="M216.36,141.73a9,9,0,0,1,9.08-9.27,14.28,14.28,0,0,1,6.24,1.46c.15,1.61-.45,2.28-1.19,2.28-1.05,0-2.21-1.16-4.94-1.16-3.43,0-6.24,2.58-6.24,6.69s2.81,6.76,6.24,6.76c2.73,0,3.89-1.15,4.94-1.15.74,0,1.34.67,1.19,2.28a14.89,14.89,0,0,1-6.24,1.42,9,9,0,0,1-9.08-9.31"/><path class="cls-2" d="M209.39,127.94a1.89,1.89,0,0,1,1.91-1.9,1.86,1.86,0,0,1,1.87,1.9,1.91,1.91,0,0,1-1.87,1.87,1.94,1.94,0,0,1-1.91-1.87m.41,22.72V133.81c0-.67.38-1.12,1.57-1.12a6.5,6.5,0,0,1,1.35.18v16.82c0,.71-.41,1.12-1.57,1.12a6.08,6.08,0,0,1-1.35-.15"/><path class="cls-2" d="M148.73,150.66v-24c0-.67.37-1.12,1.53-1.12a5.8,5.8,0,0,1,1.35.15v24c0,.71-.38,1.12-1.53,1.12a5.53,5.53,0,0,1-1.35-.15"/><path class="cls-2" d="M191.15,140.09v9.6c0,.71-.37,1.12-1.53,1.12a5.91,5.91,0,0,1-1.34-.15v-10.2c0-3.66-1.84-5.42-4.49-5.42a6.58,6.58,0,0,0-5.34,3.22v11.43c0,.71-.38,1.12-1.54,1.12a5.5,5.5,0,0,1-1.34-.15V132.87a5.77,5.77,0,0,1,1.34-.18c1.16,0,1.54.45,1.54,1.12v1.53a7.63,7.63,0,0,1,6-2.88c3.66,0,6.72,2.36,6.72,7.63"/><path class="cls-2" d="M205.89,149.84a11.82,11.82,0,0,1-5.15,1.2c-3.48,0-5.61-2-5.61-5.5V129.62c0-.71.45-1.19,1.57-1.19a5.59,5.59,0,0,1,1.35.19v4.26h7a4.05,4.05,0,0,1,.15,1.15c0,1-.45,1.39-1.08,1.39H198v9.9c0,2.17,1.05,3.1,3.06,3.1,1.84,0,2.88-.71,3.74-.71s1.2.75,1.08,2.13"/><path class="cls-2" d="M144.75,149.84a11.9,11.9,0,0,1-5.16,1.2c-3.48,0-5.61-2-5.61-5.5V129.62c0-.71.45-1.19,1.57-1.19a5.51,5.51,0,0,1,1.35.19v4.26h7a4.05,4.05,0,0,1,.15,1.15c0,1-.45,1.39-1.08,1.39h-6.13v9.9c0,2.17,1,3.1,3.06,3.1,1.84,0,2.88-.71,3.74-.71s1.2.75,1.09,2.13"/><path class="cls-3" d="M85.74,156.7a5.9,5.9,0,0,0,2.33.49,3.36,3.36,0,0,0,3.55-2.29l9.79-21.83a5.36,5.36,0,0,0-2-.48c-1.26,0-2.95.23-4,2.81l-3.17,7.48L86,132.76a8.56,8.56,0,0,0-2.1-.3,5.75,5.75,0,0,0-4.69,2.19l-6.05,6.61L78,148.91a4.31,4.31,0,0,0,4,2.1,7.16,7.16,0,0,0,2.79-.51l-5.86-8.83,4.15-4.4L89.89,148ZM72.9,148.44c0,1.61-.63,2.54-3.77,2.54A7.8,7.8,0,0,1,68,150.9V129.54c0-1.62.55-3.31,3.72-3.31a5.76,5.76,0,0,1,1.18.12Zm-6.48-3.22c0,3-2,5.19-6,5.62a48,48,0,0,1-9-.28,5.38,5.38,0,0,1-.13-1c0-2.63,1.42-3.23,2.75-3.23s3.55.24,5.17.24c1.78,0,2.32-.6,2.32-1.18,0-.75-.72-1.06-2.1-1.33l-3.78-.73c-3.14-.6-4.82-2.77-4.82-5.08,0-2.81,2-5.16,5.89-5.59a40.72,40.72,0,0,1,8.52.28,4.29,4.29,0,0,1,.12,1c0,2.62-1.38,3.18-2.71,3.18-1,0-2.61-.19-4.42-.19s-2.61.51-2.61,1.13.73.93,1.88,1.13l3.61.67c3.72.69,5.31,2.79,5.31,5.39"/><g class="cls-4"><path class="cls-2" d="M45.08,122.52h193.3a2.56,2.56,0,0,1,2.56,2.56v11.6L46.21,144.44a3.84,3.84,0,0,0-3.69,3.84v-23.2a2.56,2.56,0,0,1,2.56-2.56"/></g></g></g></g></g></svg>