<?xml version="1.0" encoding="utf-8"?>
<!-- Generator: Adobe Illustrator 23.0.1, SVG Export Plug-In . SVG Version: 6.00 Build 0)  -->
<svg version="1.1" id="Livello_1" xmlns="http://www.w3.org/2000/svg" xmlns:xlink="http://www.w3.org/1999/xlink" x="0px" y="0px"
	 viewBox="0 0 1033.5 250" enable-background="new 0 0 1033.5 250" xml:space="preserve">
<g>
	
		<linearGradient id="SVGID_1_" gradientUnits="userSpaceOnUse" x1="716.4584" y1="251.1481" x2="716.4584" y2="1.1481" gradientTransform="matrix(1 0 0 -1 0 251.1481)">
		<stop  offset="0.4" style="stop-color:#E90E10"/>
		<stop  offset="1" style="stop-color:#BC0000"/>
	</linearGradient>
	<path fill="url(#SVGID_1_)" d="M1016.9,0H416c-9.2,0-16.7,7.5-16.7,16.7v216.7c0,9.2,7.5,16.7,16.7,16.7h600.8
		c9.2,0,16.7-7.5,16.7-16.7V16.7C1033.5,7.5,1026,0,1016.9,0z"/>
	
		<linearGradient id="SVGID_2_" gradientUnits="userSpaceOnUse" x1="716.5247" y1="133.8413" x2="716.3205" y2="258.3499" gradientTransform="matrix(1 0 0 -1 0 251.1481)">
		<stop  offset="0" style="stop-color:#FFFFFF"/>
		<stop  offset="1" style="stop-color:#FFFFFF;stop-opacity:0.25"/>
	</linearGradient>
	<path opacity="0.35" fill="url(#SVGID_2_)" enable-background="new    " d="M411.2,124c0,0,0.6,0,1.7,0
		c49.4-1.7,608.1-21.2,608.1-21.2c6.2-0.2,12.5-4.8,12.5-12.7V16.7c0-9.2-7.5-16.7-16.7-16.7H416c-9.2,0-16.7,7.5-16.7,16.7v120.4
		C399.4,135.6,399.6,125.2,411.2,124z"/>
	<path fill-rule="evenodd" clip-rule="evenodd" fill="#1C1C1C" d="M157.9,173.1c0,11.5-4.6,18.1-27.1,18.1c-2.9,0-5.6-0.2-8.1-0.6
		V38.1c0-11.7,4-23.8,26.7-23.8c2.9,0,5.8,0.2,8.5,0.8V173.1z M249.8,232.1c2.9,1.5,9,3.3,16.7,3.5c13.1,0.2,20.2-4.8,25.4-16.5
		l70-155.8c-2.9-1.5-9.4-3.3-14.6-3.3c-9-0.2-21,1.7-28.8,20l-22.7,53.3L251.5,61c-2.9-0.8-10-2.1-15-2.1
		c-15.8,0-24.6,5.8-33.5,15.6l-43.3,47.1l34.8,54.6c6.5,10,14.8,15,28.5,15c9,0,16.5-2.1,20-3.8L201,124.8l29.6-31.5l48.7,76.2
		L249.8,232.1z M69,190.2c28.5-3.1,42.5-18.8,42.5-40.2c0-18.5-11.5-33.5-37.7-37.9l-25.8-4.8c-8.3-1.5-13.5-3.3-13.5-8.1
		c0-4.6,5.4-8.1,18.5-8.1c7.5,0,14.4,0.4,20.3,0.8c4.4,0.3,8.2,0.5,11.3,0.5c9.6,0,19.4-4,19.4-22.7c0-2.5-0.4-5-0.8-7.3
		c-14.2-1.9-40-4.4-61-2.1C14.2,63.1,0,80,0,100c0,16.5,12.1,32.1,34.6,36.3l27.1,5.2c10,2.1,15,4.2,15,9.6c0,4-4,8.3-16.7,8.3
		c-6.1,0-13.3-0.5-20.1-0.9c-6.3-0.4-12.3-0.8-17-0.8c-9.6,0-19.6,4.2-19.6,22.9c0,2.3,0.4,5.2,0.8,7.5
		C18.3,189.8,48.3,192.5,69,190.2z"/>
	
		<linearGradient id="SVGID_3_" gradientUnits="userSpaceOnUse" x1="181.1992" y1="119.542" x2="180.7599" y2="203.2863" gradientTransform="matrix(1 0 0 -1 0 251.1481)">
		<stop  offset="0" style="stop-color:#FFFFFF"/>
		<stop  offset="1" style="stop-color:#FFFFFF;stop-opacity:0.25"/>
	</linearGradient>
	<path opacity="0.25" fill-rule="evenodd" clip-rule="evenodd" fill="url(#SVGID_3_)" enable-background="new    " d="M149.4,14.4
		c-22.7,0-26.5,12.1-26.5,23.8v104.6c0-4.2,3.3-8.5,8.5-8.7c1.8-0.1,5.2-0.2,8.5-0.3c3.7-0.1,7.3-0.2,9-0.3c3.5-0.2,8.7-2.5,9-9
		V15.2C155.2,14.8,152.3,14.4,149.4,14.4z M251.5,61l43.3,70.4c-1.7-2.3-3.8-3.3-5.6-3.3c-0.7,0-8.1,0.3-15.2,0.6l0,0l0,0h0
		c-6.5,0.2-12.7,0.5-13.1,0.5c-1.3,0-6.7,0-10.2-4.8l-20-31.3L201,124.6l7.7,11.7c-2.1-2.7-5.4-5-10.8-4.8c-0.8,0-5.8,0.2-11.2,0.4
		l0,0c-6,0.2-12.3,0.5-13.4,0.5c-5.8,0.2-8.7-3.1-10.2-5.2l-3.5-5.4l43.3-47.1c9-9.8,17.7-15.6,33.5-15.6
		C241.5,59,248.5,60.2,251.5,61z M336.2,120.5L336.2,120.5l25.7-57.2c-2.9-1.7-9.4-3.3-14.4-3.3c-9-0.2-21,1.7-28.8,20l-22,51.9
		c-0.1,0.1-0.1,0.2-0.1,0.2l0.1-0.2c0.4-0.8,2-3.8,5.5-3.9c0,0,21.7-0.8,23.3-0.8C332.6,126.9,335.3,122.1,336.2,120.5z M47.7,106.9
		l25.8,4.8c26.5,4.8,37.9,19.8,38.1,38.3c0,1.3,0,2.4-0.1,3.6c0.3-9.6-6.1-18.8-17.1-18.3c-2,0.1-7.1,0.2-12.5,0.4
		c-7.8,0.2-16.5,0.5-18.3,0.6c-10,0.4-23.1-0.4-29-1.5c-7.1-1.3-14-3.1-20.8-7.5C4.6,120.2,0,110.2,0,100c0-20,14.2-36.9,41.9-40.2
		c21.2-2.3,46.9,0.4,61,2.1c0.6,2.5,0.8,4.8,0.8,7.3c0,18.8-9.8,22.7-19.4,22.7c-3.1,0-7-0.2-11.5-0.5C67,91,60.1,90.6,52.7,90.6
		c-13.1,0-18.5,3.8-18.5,8.1C34.2,103.5,39.4,105.4,47.7,106.9z M111.5,153.6c0,0.1,0,0.3-0.1,0.4v0.2v0.4
		C111.5,154.2,111.5,153.9,111.5,153.6z"/>
	<path fill="#FFFFFF" d="M556.2,115.4V179c0,4.6-2.7,7.7-10.8,7.7c-3.3,0-7.3-0.4-9.4-1v-67.5c0-23.5-11.5-34.8-29-34.8
		c-13.5,0-28.1,9.4-34.2,20.4v75.4c0,4.6-2.7,7.7-10.8,7.7c-3.3,0-7.3-0.4-9.4-1V67.5c1.9-0.4,5.8-1,9.4-1c8.1,0,10.8,2.9,10.8,7.7
		v10c8.5-10.6,21.7-19,39-19C536,65.2,556.2,80.4,556.2,115.4z"/>
	<path fill-rule="evenodd" clip-rule="evenodd" fill="#FFFFFF" d="M600.8,133.7h91.3c0.6-4.2,0.8-8.3,0.4-11.9
		c0-28.5-17.9-56.7-54.2-56.7c-32.1,0-58.3,25.4-58.3,60.8c0,36.9,24.8,61.7,61.7,61.7c17.1,0,33.1-5.2,43.7-9.8
		c1-10.8-2.7-15.4-8.3-15.4c-1.7,0-3.4,0.6-6.8,1.7c-0.8,0.2-1.6,0.5-2.6,0.8c-7.3,2.5-15.2,4.4-25.2,4.4
		C619.2,169.4,603.5,156.7,600.8,133.7z M673.3,118.1h-72.5c3.1-23.3,19.6-35.8,37.9-35.8C659.6,82.3,672.5,97.9,673.3,118.1z"/>
	<path fill="#FFFFFF" d="M877.9,69.4l-31.2,108.5c-1.9,6.9-7.1,8.5-14.6,8.5c-4.2,0-8.3-0.8-11.9-1.7l-29.8-95.4l-27.9,88.5
		c-2.3,6.9-7.7,8.5-14.2,8.5c-4.2,0-8.8-0.8-12.3-1.7L702.7,69.4c2.9-1.5,8.3-2.9,12.7-2.9c5.6,0,8.5,1.7,10,7.1l23.5,90.6h0.2
		l29.2-94.8c3.3-1.9,7.9-2.9,12.5-2.9c7.7,0,11.9,1.7,14,8.7l27.1,88.7h0.2L855,73.3c1.5-5.4,4.4-7.1,10-7.1
		C870,66.5,875,67.9,877.9,69.4z"/>
	<path fill="#FFFFFF" d="M891.2,179.6c-1.5-10.2,1.7-15.6,7.7-15.6c5.6,0,19.4,6,38.5,6c20.2,0,27.7-7.1,27.7-16.5
		c0-6.7-2.9-12.5-21-17.5l-20.8-5.6c-23.1-6-32.1-17.7-32.1-31.9c0-17.7,14-33.3,45.6-33.3c14.2,0,31.9,3.1,42.7,7.3
		c1.9,10-1.2,15.4-7.3,15.4c-5.4,0-17.7-5.2-35-5.2c-18.8,0-25.6,6.5-25.6,14.8c0,5.8,2.7,11.2,19.4,16l21.3,5.8
		c23.8,6.7,33.3,17.7,33.3,33.3c0,18.3-14.2,34.8-48.5,34.8C921.7,187.7,902.7,184,891.2,179.6z"/>
</g>
</svg>
