<svg xmlns="http://www.w3.org/2000/svg" viewBox="0 0 283.46 283.46"><defs><style>.cls-1{fill:#26252a;}.cls-2,.cls-4{fill:#fff;}.cls-3{fill:#ab0000;}.cls-4{opacity:0.2;isolation:isolate;}.cls-5{fill:#cb0000;}</style></defs><title>skynews</title><g id="Layer_2" data-name="Layer 2"><g id="Sky"><g id="skynews"><rect class="cls-1" width="283.46" height="283.46"/><g id="logo"><path id="path4017" class="cls-2" d="M120.42,165.14H45.64A3.13,3.13,0,0,1,42.52,162V121.41a3.11,3.11,0,0,1,3.08-3.08h74.82v46.81Z"/><path id="path3269" class="cls-2" d="M120.92,164H46a2.06,2.06,0,0,1-2.34-2.34V121.84A2.06,2.06,0,0,1,46,119.5h74.89l15.22,23.4Z"/><path id="path4010" class="cls-3" d="M231,126.92l10,10.85v24.28a3.1,3.1,0,0,1-3.08,3.09H120.42V142.66l12-12.43Z"/><path id="path3228" d="M95.18,160a6.43,6.43,0,0,0,2.85.58,4.13,4.13,0,0,0,4.33-2.8l11.93-26.61a7,7,0,0,0-2.46-.58c-1.52,0-3.58.27-4.91,3.43l-3.86,9.13-7.61-12.29a10.62,10.62,0,0,0-2.57-.35,7.09,7.09,0,0,0-5.74,2.65l-7.33,8,5.93,9.32A5.2,5.2,0,0,0,90.62,153a8.91,8.91,0,0,0,3.39-.62l-7.14-10.77,5.07-5.34,8.31,13Z"/><path id="path3226" d="M79.54,149.88c0,2-.78,3.09-4.61,3.09a7.25,7.25,0,0,1-1.36-.12v-26c0-2,.66-4,4.52-4a6,6,0,0,1,1.45.16Z"/><path id="path3224" d="M71.62,146c0,3.67-2.38,6.32-7.26,6.87a58.41,58.41,0,0,1-11-.35,8.1,8.1,0,0,1-.15-1.29c0-3.2,1.71-3.94,3.35-3.94s4.33.27,6.32.27c2.19,0,2.81-.74,2.81-1.44,0-.94-.86-1.29-2.57-1.64l-4.57-.82c-3.82-.74-5.85-3.39-5.85-6.2,0-3.43,2.42-6.28,7.18-6.82a47.59,47.59,0,0,1,10.37.35,6.59,6.59,0,0,1,.12,1.24c0,3.2-1.68,3.87-3.31,3.87-1.25,0-3.16-.24-5.39-.24s-3.16.63-3.16,1.37.9,1.13,2.3,1.36l4.41.82c4.53.86,6.44,3.43,6.44,6.59"/><path id="path4021" class="cls-4" d="M45.64,118.33h74.78v24.33L47,145.05a4.65,4.65,0,0,0-4.49,4.64V121.45a3.12,3.12,0,0,1,3.12-3.12Z"/><path id="path3114" class="cls-5" d="M120.42,118.33h117.4a3.11,3.11,0,0,1,3.12,3.11v16.33l-120.52,4.89Z"/><g id="layer1-5"><g id="g4334"><path id="path4336" class="cls-2" d="M175.47,143.31H158.62c.58,4.11,3.44,6.55,7.77,6.55a14.25,14.25,0,0,0,4.67-.92,5.78,5.78,0,0,1,1.76-.47c1,0,1.64.93,1.43,2.86a20.09,20.09,0,0,1-8,1.81c-6.72,0-11.43-4.67-11.43-11.47,0-6.48,4.67-11.18,10.8-11.18,6.73,0,10,5.25,10,10.5a15.85,15.85,0,0,1-.17,2.32m-16.9-3h13.37c-.13-3.7-2.52-6.56-6.35-6.56-3.44,0-6.47,2.27-7,6.56"/></g></g><g id="g5435"><path id="path5437" class="cls-2" d="M131.64,152.55V130.92a9.73,9.73,0,0,1,1.78-.17c1.44,0,1.86.6,1.86,1.48v1.61a9.81,9.81,0,0,1,7.4-3.34c4.48,0,8.21,2.83,8.21,9.35v11.52c0,.89-.51,1.44-2,1.44a9.62,9.62,0,0,1-1.74-.17V140.31c0-4.4-2.15-6.51-5.41-6.51a7.8,7.8,0,0,0-6.39,3.81v13.72c0,.88-.46,1.43-2,1.43a11.87,11.87,0,0,1-1.7-.21"/></g><path id="path3110" class="cls-2" d="M183.85,152.5l-6.2-21.24a4.81,4.81,0,0,1,2.28-.55c1.32,0,1.6.57,1.88,1.5l4.39,16.52,5.52-17.56a5.66,5.66,0,0,1,2.26-.48,2.29,2.29,0,0,1,2.58,1.9l5,16.15,4.28-16.66a1.69,1.69,0,0,1,1.8-1.39,5,5,0,0,1,2.3.56l-5.81,20c-.5,1.14-.94,1.56-2.56,1.56a8.08,8.08,0,0,1-2.14-.3l-5.56-17.66-5.21,16.27c-.39,1-.81,1.68-2.62,1.68A7.4,7.4,0,0,1,183.85,152.5Z"/><path id="path3112" class="cls-2" d="M212.74,150.91a2.05,2.05,0,0,0,.11.8,25.79,25.79,0,0,0,8.32,1.38c5.68,0,9-2.5,9-6.39,0-8.06-13.86-5.55-13.86-10.28,0-1.74,1.67-2.91,4.87-2.91s5,1.09,6.58,1.09c1.4,0,1.42-2,1.27-2.76a22.43,22.43,0,0,0-7.9-1.41c-5.27,0-8.39,2.51-8.39,6.17,0,7.86,13.78,5.3,13.78,10.16,0,1.75-1.41,3.27-5.29,3.27-3.6,0-6-1.25-7.08-1.23s-1.41,1-1.41,2.11Z"/></g></g></g></g></svg>