<svg xmlns="http://www.w3.org/2000/svg" viewBox="0 0 283.46 283.46"><defs><style>.cls-1{fill:#26252a;}.cls-2,.cls-3,.cls-5{fill:#fff;}.cls-2{fill-opacity:0.95;}.cls-4{fill:#0081dc;}.cls-5{opacity:0.2;isolation:isolate;}</style></defs><g id="Layer_2" data-name="Layer 2"><g id="Sky"><g id="skyone"><rect class="cls-1" width="283.46" height="283.46"/><g id="logo"><path id="path4017" class="cls-2" d="M134.11,169.25H46.19a3.68,3.68,0,0,1-3.67-3.67V117.84a3.67,3.67,0,0,1,3.63-3.63h88v55Z"/><path id="path3269" class="cls-3" d="M134.71,167.87H46.65a2.42,2.42,0,0,1-2.75-2.75V118.34a2.41,2.41,0,0,1,2.75-2.75h88.06l17.88,27.52Z"/><path id="path4010" class="cls-4" d="M134.11,114.21H237.27a3.65,3.65,0,0,1,3.68,3.56v47.85a3.66,3.66,0,0,1-3.63,3.63H134.11Z"/><path id="path3228" class="cls-4" d="M104.44,163.15a7.47,7.47,0,0,0,3.35.69c2.61,0,4-1,5.09-3.3l14-31.28a8.23,8.23,0,0,0-2.89-.69c-1.79,0-4.22.32-5.78,4l-4.54,10.73-8.94-14.45a12.88,12.88,0,0,0-3-.41A8.29,8.29,0,0,0,95,131.6L86.37,141l7,11a6.13,6.13,0,0,0,5.73,3,10.42,10.42,0,0,0,4-.73l-8.39-12.66,6-6.28,9.77,15.32Z"/><path id="path3226" class="cls-4" d="M86.05,151.32c0,2.29-.92,3.62-5.42,3.62a8,8,0,0,1-1.6-.14V124.26c0-2.34.78-4.73,5.32-4.73a7,7,0,0,1,1.7.19Z"/><path id="path3224" class="cls-4" d="M76.74,146.73c0,4.31-2.8,7.43-8.53,8.07a68.32,68.32,0,0,1-13-.41,7.8,7.8,0,0,1-.19-1.51c0-3.76,2-4.64,4-4.64s5.09.33,7.43.33c2.57,0,3.3-.88,3.3-1.7,0-1.1-1-1.51-3-1.93l-5.36-1c-4.5-.87-6.88-4-6.88-7.29,0-4,2.84-7.39,8.44-8a56.92,56.92,0,0,1,12.19.41,7.39,7.39,0,0,1,.14,1.47c0,3.76-2,4.54-3.9,4.54-1.46,0-3.71-.27-6.33-.27s-3.71.73-3.71,1.6,1,1.33,2.71,1.61l5.18,1c5.32,1,7.57,4,7.57,7.75"/><path id="path4021" class="cls-5" d="M46.19,114.21H237.28a3.66,3.66,0,0,1,3.67,3.66v20L47.8,145.63a5.46,5.46,0,0,0-5.28,5.46V117.88a3.69,3.69,0,0,1,3.67-3.67Z"/><g id="layer1-5"><g id="g4334"><path id="path4336" class="cls-3" d="M226.59,143.65H206.68c.7,4.86,4.07,7.74,9.19,7.74a16.65,16.65,0,0,0,5.51-1.09,6.85,6.85,0,0,1,2.08-.55c1.14,0,1.94,1.1,1.69,3.38a23.75,23.75,0,0,1-9.48,2.13c-7.94,0-13.5-5.51-13.5-13.55,0-7.64,5.51-13.2,12.75-13.2,7.94,0,11.87,6.21,11.87,12.41a17.56,17.56,0,0,1-.2,2.73m-20-3.57h15.78c-.15-4.37-3-7.75-7.5-7.75-4.07,0-7.64,2.68-8.28,7.75"/></g></g><g id="g5435"><path id="path5437" class="cls-3" d="M144.6,141.85a13.26,13.26,0,1,1,13.23,13.43,12.94,12.94,0,0,1-13.23-13.43m22,0c0-5.86-4-9.44-8.8-9.44s-8.75,3.58-8.75,9.44,4,9.5,8.75,9.5,8.8-3.63,8.8-9.5m8.91,12.83V129a10.92,10.92,0,0,1,2.09-.2c1.69,0,2.19.7,2.19,1.75v1.88a11.54,11.54,0,0,1,8.7-3.92c5.27,0,9.64,3.33,9.64,11v13.77c0,1-.59,1.69-2.38,1.69a10.78,10.78,0,0,1-2-.2V140.06c0-5.17-2.54-7.65-6.37-7.65a9.13,9.13,0,0,0-7.5,4.47v16.36c0,1-.55,1.69-2.34,1.69a15.25,15.25,0,0,1-2-.25"/></g></g></g></g></g></svg>