<svg xmlns="http://www.w3.org/2000/svg" xmlns:xlink="http://www.w3.org/1999/xlink" viewBox="0 0 283.46 283.46"><defs><style>.cls-1{fill:#26252a;}.cls-2,.cls-7{fill:#fff;}.cls-3{fill:#999;}.cls-4{fill:#121780;}.cls-5{fill:url(#linear-gradient);}.cls-6{fill:url(#linear-gradient-2);}.cls-7{opacity:0.2;isolation:isolate;}</style><linearGradient id="linear-gradient" x1="-9594.47" y1="5024.31" x2="-9594.47" y2="4985.52" gradientTransform="matrix(-1, 0, 0, 1, -9462.25, -4864.16)" gradientUnits="userSpaceOnUse"><stop offset="0" stop-color="#a80002"/><stop offset="1" stop-color="#ea021a"/></linearGradient><linearGradient id="linear-gradient-2" x1="65.88" y1="123.15" x2="65.88" y2="161.94" gradientTransform="matrix(1, 0, 0, -1, 0, 283.29)" gradientUnits="userSpaceOnUse"><stop offset="0" stop-color="#00043b"/><stop offset="1" stop-color="#002672"/></linearGradient></defs><g id="Layer_2" data-name="Layer 2"><g id="Sky"><g id="skysportsnews"><rect class="cls-1" width="283.46" height="283.46"/><g id="logo"><path class="cls-2" d="M239.07,155.19a1.31,1.31,0,0,0,1.29-1.29V129.56a1.3,1.3,0,0,0-1.29-1.28h-63.9v26.91Z"/><path class="cls-3" d="M239.63,127.79a2,2,0,0,1,.33.14A.75.75,0,0,0,239.63,127.79Zm.33,27.75a3.27,3.27,0,0,1-.33.14A.89.89,0,0,0,240,155.54Zm-.89.23a2.22,2.22,0,0,0,.38,0A2.22,2.22,0,0,1,239.07,155.77Zm0-28.08a2.18,2.18,0,0,1,.38,0A2.18,2.18,0,0,0,239.07,127.69Zm1.45.68a1.94,1.94,0,0,1,.42,1.19V153.9a1.91,1.91,0,0,1-.42,1.19,1.91,1.91,0,0,0,.42-1.19V129.56A1.94,1.94,0,0,0,240.52,128.37Zm-.39,27.07a2.17,2.17,0,0,0,.39-.35A1.61,1.61,0,0,1,240.13,155.44Z"/><path class="cls-2" d="M240.94,129.56a1.94,1.94,0,0,0-.42-1.19,1.61,1.61,0,0,0-.39-.35,1.31,1.31,0,0,0-.17-.09,1.36,1.36,0,0,0-.33-.14,1.21,1.21,0,0,0-.18-.05,2.18,2.18,0,0,0-.38,0h-63.9v.59h63.9a1.3,1.3,0,0,1,1.29,1.28V153.9a1.31,1.31,0,0,1-1.29,1.29h-63.9v.58h63.9a2.22,2.22,0,0,0,.38,0,1.21,1.21,0,0,1,.18,0l.33-.14a1.28,1.28,0,0,1,.17-.1,2.17,2.17,0,0,0,.39-.35,1.91,1.91,0,0,0,.42-1.19Z"/><path class="cls-4" d="M223.51,136.07c-.09,0-.21-.07-.35-.12a2.28,2.28,0,0,0-.54-.07,1,1,0,0,0-1.1.77L220,142.79c-.21.79-.37,1.52-.51,2.15-.07.3-.12.61-.19.89-.07-.31-.16-.61-.23-.94-.17-.65-.38-1.38-.59-2.17l-1.73-5.83a1.56,1.56,0,0,0-.44-.8,1.73,1.73,0,0,0-1-.21,3,3,0,0,0-1,.17l-.12,0-2,6.63c-.07.25-.17.56-.24.91s-.18.7-.3,1-.21.72-.31,1.07c0,0,0,.05,0,.1-.07-.33-.14-.66-.21-1-.12-.63-.28-1.31-.44-2.06l-1.45-6.06a1.15,1.15,0,0,0-.47-.68,1.54,1.54,0,0,0-.77-.19,2.73,2.73,0,0,0-.59.07l-.44.14-.19.07,3.06,12.1,0,.12.09,0a2.13,2.13,0,0,0,.59.14,4.69,4.69,0,0,0,.58.05,2.11,2.11,0,0,0,.91-.19,1.13,1.13,0,0,0,.61-.79l2.58-8.66,2.73,9.45.12.05a2.13,2.13,0,0,0,.52.09,4.4,4.4,0,0,0,.58.05,2.29,2.29,0,0,0,.89-.19,1.12,1.12,0,0,0,.61-.74l3-11.56-.19-.05Zm-18,7h-9.38a4,4,0,0,0,4.33,3.65,7.79,7.79,0,0,0,2.59-.52,3.46,3.46,0,0,1,1-.25c.54,0,.91.51.79,1.59a11.17,11.17,0,0,1-4.49,1,6.08,6.08,0,0,1-6.36-6.38,6,6,0,0,1,6-6.23c3.75,0,5.6,3,5.6,5.85a8.66,8.66,0,0,1-.1,1.29m-9.4-1.71h7.44a3.5,3.5,0,0,0-3.54-3.65,3.86,3.86,0,0,0-3.9,3.65m29.13,6.37c-.12-1.06.23-1.62.79-1.62a24.48,24.48,0,0,0,4,.63c2.09,0,2.86-.72,2.86-1.68,0-.68-.31-1.24-2.2-1.78l-2.13-.59c-2.41-.65-3.35-1.82-3.35-3.29,0-1.83,1.45-3.44,4.73-3.44a14.14,14.14,0,0,1,4.42.74c.12,1-.21,1.6-.72,1.6a21.31,21.31,0,0,0-3.7-.61c-1.89,0-2.64.68-2.64,1.59,0,.61.28,1.15,2,1.64l2.2.6c2.46.68,3.46,1.83,3.46,3.4,0,1.92-1.49,3.65-5,3.65a14.61,14.61,0,0,1-4.72-.84m-44.34.56v-12.1a4.88,4.88,0,0,1,1-.09c.79,0,1,.32,1,.82v.88a5.43,5.43,0,0,1,4.09-1.84c2.48,0,4.54,1.56,4.54,5.17v6.48c0,.49-.28.79-1.12.79a4.89,4.89,0,0,1-1-.09v-6.93c0-2.43-1.19-3.6-3-3.6a4.34,4.34,0,0,0-3.55,2.11v7.7c0,.49-.26.79-1.1.79a5.59,5.59,0,0,1-.91-.09Z"/><path class="cls-5" d="M89.25,127.69h85.94v28.08H89.25Z"/><path class="cls-6" d="M89.25,155.77H44.39a1.87,1.87,0,0,1-1.87-1.87V129.54a1.87,1.87,0,0,1,1.85-1.85H89.25Z"/><path class="cls-2" d="M74.11,152.66a3.85,3.85,0,0,0,1.71.35,2.46,2.46,0,0,0,2.59-1.68l7.16-16A3.92,3.92,0,0,0,84.1,135a2.84,2.84,0,0,0-2.95,2.06l-2.31,5.47-4.57-7.37a6.57,6.57,0,0,0-1.54-.21,4.23,4.23,0,0,0-3.44,1.59l-4.4,4.82L68.45,147a3.12,3.12,0,0,0,2.92,1.55,5.19,5.19,0,0,0,2-.38l-4.29-6.45,3-3.21,5,7.82Zm-9.38-6c0,1.17-.47,1.85-2.77,1.85a4.07,4.07,0,0,1-.81-.07V132.82c0-1.2.39-2.41,2.71-2.41a3.73,3.73,0,0,1,.87.09ZM60,144.28c0,2.2-1.43,3.79-4.36,4.12a34.68,34.68,0,0,1-6.62-.21,4,4,0,0,1-.09-.77c0-1.92,1-2.37,2-2.37s2.6.17,3.79.17,1.69-.45,1.69-.87-.52-.77-1.55-1l-2.74-.49c-2.29-.45-3.51-2-3.51-3.72,0-2.06,1.45-3.77,4.31-4.1a29.58,29.58,0,0,1,6.22.21,3.88,3.88,0,0,1,.07.75c0,1.92-1,2.32-2,2.32-.74,0-1.89-.14-3.22-.14s-1.9.37-1.9.82.54.68,1.38.82l2.64.49c2.72.51,3.87,2.06,3.87,3.95m35,3.37c-.14-1.1.21-1.68.8-1.68a24.22,24.22,0,0,0,4.31.7c2.29,0,3.15-.84,3.15-1.92,0-.75-.32-1.36-2.43-1.94l-2.34-.66c-2.5-.68-3.53-1.94-3.53-3.53,0-1.92,1.52-3.7,5.05-3.7a14.4,14.4,0,0,1,4.73.85c.14,1.07-.21,1.63-.75,1.63a22.86,22.86,0,0,0-4-.65c-2.1,0-2.9.77-2.9,1.78,0,.65.3,1.26,2.22,1.8l2.39.7c2.64.75,3.72,2,3.72,3.65,0,2.06-1.61,3.88-5.38,3.88a15.54,15.54,0,0,1-5.06-.91m25.88-5.92c0,4.24-3,6.81-6.31,6.81a5.49,5.49,0,0,1-4.59-2.29V152c0,.49-.28.82-1.12.82a3.54,3.54,0,0,1-1-.12V135.25a4.31,4.31,0,0,1,1-.14c.84,0,1.12.33,1.12.82v1.31a5.49,5.49,0,0,1,4.59-2.29c3.34,0,6.31,2.57,6.31,6.78m-2.15,0a4.55,4.55,0,0,0-4.54-4.89,4.72,4.72,0,0,0-4.21,2.55v4.75a4.76,4.76,0,0,0,4.21,2.55c2.6,0,4.54-2,4.54-5m4.24,0a6.72,6.72,0,1,1,6.71,6.81,6.56,6.56,0,0,1-6.71-6.81m11.27,0a4.57,4.57,0,1,0-4.56,4.94c2.51,0,4.56-1.9,4.56-4.94m12.69-5.59c0,.8-.35,1-1.13,1a4.85,4.85,0,0,0-4.7,2.9v7.54c0,.51-.28.82-1.12.82a3.54,3.54,0,0,1-1-.12v-13a4.31,4.31,0,0,1,1-.14c.84,0,1.12.33,1.12.82v1.59a5.63,5.63,0,0,1,5.73-2.27,5.38,5.38,0,0,1,.1.89m12.16,11.51c-.14-1.1.22-1.68.8-1.68a24.22,24.22,0,0,0,4.31.7c2.29,0,3.15-.84,3.15-1.92,0-.75-.32-1.36-2.43-1.94l-2.34-.66c-2.5-.68-3.53-1.94-3.53-3.53,0-1.92,1.52-3.7,5-3.7a14.4,14.4,0,0,1,4.73.85c.14,1.07-.21,1.63-.75,1.63a22.3,22.3,0,0,0-4-.65c-2.1,0-2.9.77-2.9,1.78,0,.65.3,1.26,2.22,1.8l2.39.65c2.64.75,3.72,2,3.72,3.65,0,2.06-1.61,3.89-5.38,3.89a14.8,14.8,0,0,1-5.06-.87m-2.15,0a8.77,8.77,0,0,1-3.77.87c-2.57,0-4.11-1.48-4.11-4v-11.7c0-.49.28-.82,1.12-.82a3.27,3.27,0,0,1,1,.17v3.09h5.22a6.81,6.81,0,0,1,.07.84c0,.77-.33,1-.8,1h-4.51v7.23a2,2,0,0,0,2.25,2.27,19.93,19.93,0,0,0,2.76-.52c.6.05.91.59.79,1.59"/><path class="cls-7" d="M44.39,127.69h130.8v10.84l-130,5.19a2.79,2.79,0,0,0-2.69,2.79V129.56A1.88,1.88,0,0,1,44.39,127.69Z"/></g></g></g></g></svg>