<svg xmlns="http://www.w3.org/2000/svg" viewBox="0 0 283.46 283.46"><defs><style>.cls-1{fill:#26252a;}.cls-2{fill:#0082dc;}.cls-3,.cls-4{fill:#fff;}.cls-4{opacity:0.2;isolation:isolate;}</style></defs><title>skytwo</title><g id="Layer_2" data-name="Layer 2"><g id="Sky"><g id="skytwo"><rect class="cls-1" width="283.46" height="283.46"/><g id="logo"><g id="g4"><path id="path6" class="cls-2" d="M131.91,114.87H237.36a3.6,3.6,0,0,1,3.58,3.59V165a3.59,3.59,0,0,1-3.58,3.58H131.91Z"/><path id="path8" class="cls-3" d="M46.06,114.87a3.58,3.58,0,0,0-3.54,3.54V165a3.59,3.59,0,0,0,3.58,3.58h85.81V114.87Z"/><path id="path10" class="cls-2" d="M83.34,120.07c-4.43,0-5.19,2.33-5.19,4.61v29.81a8.52,8.52,0,0,0,1.57.13c4.38,0,5.28-1.29,5.28-3.53V120.25a6.7,6.7,0,0,0-1.66-.18Zm17,8.73a8.1,8.1,0,0,0-6.58,3l-8.42,9.22,6.81,10.7a6,6,0,0,0,5.59,3,10.23,10.23,0,0,0,3.9-.71l-8.2-12.36,5.82-6.13,9.54,15L103,162.64a7.33,7.33,0,0,0,3.27.67,4.72,4.72,0,0,0,5-3.22l13.7-30.53a7.64,7.64,0,0,0-2.82-.67c-1.74,0-4.12.31-5.64,3.94L112,143.3l-8.73-14.1a12.28,12.28,0,0,0-3-.4Zm-34.39,0a33.8,33.8,0,0,0-3.53.17c-5.46.63-8.23,3.9-8.23,7.84,0,3.22,2.33,6.27,6.71,7.12l5.24.94c2,.4,3,.8,3,1.88,0,.8-.71,1.65-3.22,1.65-2.28,0-5.32-.31-7.25-.31s-3.85.85-3.85,4.52a8.31,8.31,0,0,0,.18,1.48,66.8,66.8,0,0,0,12.67.4c5.59-.63,8.32-3.67,8.32-7.88,0-3.62-2.19-6.58-7.38-7.56l-5.06-.94c-1.61-.27-2.64-.67-2.64-1.57s1-1.57,3.62-1.57,4.75.27,6.18.27c1.88,0,3.81-.76,3.81-4.43a7.7,7.7,0,0,0-.14-1.43,65.59,65.59,0,0,0-7.87-.58Z"/></g><g id="g12"><path id="path14" class="cls-3" d="M159.83,153a16.64,16.64,0,0,1-7.23,1.74c-5,0-8-2.94-8-7.76V124.75c0-1,.58-1.64,2.31-1.64a5.22,5.22,0,0,1,1.93.34v5.88h9.87a14.38,14.38,0,0,1,.14,1.73c0,1.49-.57,2-1.54,2h-8.47v13.54c0,2.94,1.39,4.29,4.24,4.29,2.5,0,4-1.06,5.2-1.06s1.78,1.1,1.54,3.17"/><path id="path16" class="cls-3" d="M199.84,129.45c-.2,0-.46-.14-.76-.24a5,5,0,0,0-1.18-.14,2.17,2.17,0,0,0-2.4,1.54l-3.33,12.22c-.46,1.59-.82,3-1.12,4.29-.16.61-.26,1.22-.41,1.78-.16-.61-.36-1.22-.51-1.87-.36-1.31-.82-2.75-1.28-4.34l-3.79-11.61a2.9,2.9,0,0,0-1-1.59,4,4,0,0,0-2.15-.42,7.51,7.51,0,0,0-2.15.33l-.25.09-4.45,13.2c-.15.52-.36,1.12-.51,1.82s-.41,1.4-.67,2.05-.46,1.45-.66,2.15c0,0-.05.09-.05.19-.16-.66-.31-1.31-.46-1.92-.26-1.26-.62-2.61-1-4.1l-3.17-12.08a2.22,2.22,0,0,0-1-1.35,3.61,3.61,0,0,0-1.69-.38,5.84,5.84,0,0,0-1.28.14c-.35.1-.71.19-1,.28l-.41.14,6.7,24.12.05.23.21.09a5.4,5.4,0,0,0,1.28.28c.51.05.92.1,1.28.1a5,5,0,0,0,2-.38,2.33,2.33,0,0,0,1.33-1.58l5.63-17.26,6,18.84.26.1a5.7,5.7,0,0,0,1.12.18c.46.05.92.1,1.28.1a5.36,5.36,0,0,0,1.94-.38,2.23,2.23,0,0,0,1.33-1.49l6.65-23Z"/><path id="path18" class="cls-3" d="M202.3,141.71a12.87,12.87,0,1,1,12.86,13,12.58,12.58,0,0,1-12.86-13m21.61,0c0-5.74-3.95-9.37-8.75-9.37s-8.74,3.63-8.74,9.37,4,9.47,8.74,9.47,8.75-3.64,8.75-9.47"/></g><path id="path20" class="cls-4" d="M46.1,114.87H237.36a3.6,3.6,0,0,1,3.58,3.59v17.09l-193.27,10a5.33,5.33,0,0,0-5.15,5.32v-32.4a3.6,3.6,0,0,1,3.58-3.59Z"/></g></g></g></g></svg>