<svg xmlns="http://www.w3.org/2000/svg" xmlns:xlink="http://www.w3.org/1999/xlink" viewBox="0 0 283.46 283.46"><defs><style>.cls-1{fill:#ff851a;}.cls-2{fill:url(#linear-gradient);}.cls-3{fill:#fff;}</style><linearGradient id="linear-gradient" y1="283.46" x2="283.46" gradientUnits="userSpaceOnUse"><stop offset="0" stop-color="#fbd244"/><stop offset="1" stop-color="#ff851a"/></linearGradient></defs><g id="Layer_2" data-name="Layer 2"><g id="AMC_Networks_International" data-name="AMC Networks International"><g id="spektrumhome"><rect class="cls-1" width="283.46" height="283.46"/><rect class="cls-2" width="283.46" height="283.46"/><g id="logo"><g id="VAGRounded_LT_Lite" data-name="VAGRounded LT Lite"><path class="cls-3" d="M102.43,224.52a7.24,7.24,0,0,0-.53-2.93,5.43,5.43,0,0,0-3.32-3.09,6.37,6.37,0,0,0-4.28,0A5.43,5.43,0,0,0,91,221.59a7.23,7.23,0,0,0-.54,2.93v14.13a2.34,2.34,0,0,1-.58,1.69,2.33,2.33,0,0,1-3.12,0,2.34,2.34,0,0,1-.58-1.69V205.32a2.34,2.34,0,0,1,.58-1.69,2.3,2.3,0,0,1,3.12,0,2.34,2.34,0,0,1,.58,1.69v12.42l.1.1a8,8,0,0,1,3.32-2.63,9.77,9.77,0,0,1,6.94-.27,8,8,0,0,1,2.9,1.68,9,9,0,0,1,2.17,3,11.1,11.1,0,0,1,.85,4.61v14.37a2.34,2.34,0,0,1-.58,1.69,2.33,2.33,0,0,1-3.12,0,2.35,2.35,0,0,1-.59-1.69Z"/><path class="cls-3" d="M110.43,227.69a16.49,16.49,0,0,1,.75-5,13.29,13.29,0,0,1,2.22-4.24,10.88,10.88,0,0,1,3.58-2.95,11.24,11.24,0,0,1,9.7,0,10.81,10.81,0,0,1,3.59,2.95,13.07,13.07,0,0,1,2.21,4.24,16.63,16.63,0,0,1,0,9.94,13.17,13.17,0,0,1-2.21,4.24,10.81,10.81,0,0,1-3.59,2.95,11.34,11.34,0,0,1-9.7,0,10.88,10.88,0,0,1-3.58-2.95,13.39,13.39,0,0,1-2.22-4.24A16.49,16.49,0,0,1,110.43,227.69Zm4.29,0a16,16,0,0,0,.36,3.34,10,10,0,0,0,1.22,3.07,7.17,7.17,0,0,0,2.19,2.26,6.74,6.74,0,0,0,6.66,0,7,7,0,0,0,2.22-2.26,10,10,0,0,0,1.21-3.07,15.26,15.26,0,0,0,0-6.68,9.85,9.85,0,0,0-1.21-3.07,7.08,7.08,0,0,0-2.22-2.27,6.74,6.74,0,0,0-6.66,0,7.2,7.2,0,0,0-2.19,2.27,9.87,9.87,0,0,0-1.22,3.07A15.88,15.88,0,0,0,114.72,227.69Z"/><path class="cls-3" d="M152.3,224.13a6.26,6.26,0,0,0-1.47-4.39,5.25,5.25,0,0,0-4.09-1.61,5.19,5.19,0,0,0-4.07,1.61,6.35,6.35,0,0,0-1.44,4.39v14.52a2.34,2.34,0,0,1-.58,1.69,2.33,2.33,0,0,1-3.12,0,2.35,2.35,0,0,1-.59-1.69V216.72a2.34,2.34,0,0,1,.59-1.68,2.3,2.3,0,0,1,3.12,0,2.34,2.34,0,0,1,.58,1.68v.78l.1.1q.39-.49.9-1a5.7,5.7,0,0,1,1.29-1,8.13,8.13,0,0,1,1.83-.78,8.8,8.8,0,0,1,2.51-.32,8.33,8.33,0,0,1,3.78.95,8.52,8.52,0,0,1,3.34,3.44,11.33,11.33,0,0,1,3.26-3.22,8.64,8.64,0,0,1,4.68-1.17,10.1,10.1,0,0,1,3.1.51,8.12,8.12,0,0,1,2.9,1.68,9.12,9.12,0,0,1,2.17,3,11.26,11.26,0,0,1,.85,4.61v14.37a2.35,2.35,0,0,1-.59,1.69,2.08,2.08,0,0,1-1.56.6,2.06,2.06,0,0,1-1.55-.6,2.35,2.35,0,0,1-.59-1.69V224.13a6.31,6.31,0,0,0-1.46-4.39,5.27,5.27,0,0,0-4.1-1.61,5.19,5.19,0,0,0-4.07,1.61,6.34,6.34,0,0,0-1.43,4.39v14.52a2.35,2.35,0,0,1-.59,1.69,2.33,2.33,0,0,1-3.12,0,2.34,2.34,0,0,1-.58-1.69Z"/><path class="cls-3" d="M179.49,229.34a9,9,0,0,0,.52,3.1,7,7,0,0,0,1.51,2.51,6.89,6.89,0,0,0,2.41,1.68,8,8,0,0,0,3.22.61,10,10,0,0,0,3.55-.54,10.46,10.46,0,0,0,2.37-1.19c.63-.44,1.17-.84,1.61-1.22a2,2,0,0,1,1.24-.56,1.46,1.46,0,0,1,1.07.49,1.89,1.89,0,0,1,.49,1.41,2.61,2.61,0,0,1-.9,1.71,9.9,9.9,0,0,1-2.39,1.73,17.23,17.23,0,0,1-3.34,1.34,13.27,13.27,0,0,1-3.75.53,12.09,12.09,0,0,1-5.36-1.09A10.49,10.49,0,0,1,178,236.9a12.12,12.12,0,0,1-2.14-4.24,17.81,17.81,0,0,1-.69-5,15.49,15.49,0,0,1,.81-5,13.54,13.54,0,0,1,2.29-4.22,11,11,0,0,1,3.66-2.92,10.66,10.66,0,0,1,4.89-1.1,10.06,10.06,0,0,1,4.73,1.1,10.83,10.83,0,0,1,3.51,2.87,13.16,13.16,0,0,1,2.17,4,14.54,14.54,0,0,1,.76,4.6,2.64,2.64,0,0,1-.49,1.71,2.42,2.42,0,0,1-1.9.58Zm14.24-3.21a9.91,9.91,0,0,0-.42-2.8,8.28,8.28,0,0,0-1.24-2.59,6.4,6.4,0,0,0-2.15-1.87,6.17,6.17,0,0,0-3.07-.74,7,7,0,0,0-3.36.64,6.19,6.19,0,0,0-2.24,1.83,7.46,7.46,0,0,0-1.29,2.6,12.43,12.43,0,0,0-.47,2.93Z"/></g><path class="cls-3" d="M149.66,47.42c-3.24-4.78-7.16-5.83-11-4.15,0,0,0,0,.08,0C134.05,45,129.42,50.69,126,58.59c-4.42,10.3-6.44,21.87-6.29,36.35.07,7,1.58,19.42,6,28.8l.31.17.74-.52c-1.66-11.86.62-18.52,3.12-25.41.85-2.35,4.25-8.35,7.73-9.28C144,87,147.76,80.84,151.24,73.18c2.61-5.74,3.21-18.7-1.58-25.76"/><path class="cls-3" d="M127.66,127c-6.29-8.61-11.52-26.55-11.16-33.76.31-6.19.79-13.58-2.85-24.36-4.88-14.6-9.42-20.8-13.47-20.74a1.88,1.88,0,0,0-1.33.57v0C95.8,50.45,96,61.4,101,79.29a147.49,147.49,0,0,0,13.7,33.51c3.07,5.33,8.27,12.58,12.47,15.17l.54.1-.07-1.06"/><path class="cls-3" d="M161.82,63.6c12.78-5.63,24.31-4.48,28.94,7.95,3.48,9.41-1.71,26-13.64,30.63-4.88,1.88-12.12.71-18.58-2-3.46-1.45-7.56-2.6-13.67.74a34.54,34.54,0,0,0-16.3,19.57l-1-.12a69.84,69.84,0,0,1,9.82-33.07c7.46-12.22,16-20,24.43-23.72"/><path class="cls-3" d="M194.72,89.65c16.23,4.83,21.6,17.44,17.6,29.65-3.67,11.24-14.84,17.07-26.84,14.2-6-1.42-10.52-3.61-16.28-10.79-1.85-2.32-4.23-6.16-5.53-7.39-5.2-4.9-19.7-5.67-31.47,4.47l-.76-.73a74.27,74.27,0,0,1,22.44-22.33c13.47-8.45,29-10.6,40.84-7.08"/><path class="cls-3" d="M90.79,105.59C78.69,95.18,67.72,83.7,70.24,81.83c2.14-1.61,12.6,6.48,21.77,14.45,7.09,6.17,12.78,12.63,15.83,15.54,4.79,4.58,16.44,15,22.8,17.13l.74.7c-.18.5-.66,1.59-2.95,1.18-4.34-.79-9.05-4-12.75-6.29-7.56-4.73-17.06-12.24-24.89-19"/><path class="cls-3" d="M203.41,128.55c-8.29-11.93-22.76-16.11-35.63-16.2-11.86-.06-25.14,4.53-32.34,8.69v.79l.38.28a29.15,29.15,0,0,1,14.33.37c6.15,2.11,10,6.52,10.88,11a41.78,41.78,0,0,1,.5,11.14c-.5,7.18.29,12,5.13,17.5,8.8,10,23.37,8.52,32.32.57,9.49-8.43,13-21.82,4.42-34.11"/><path class="cls-3" d="M168.16,132.66c-8.42-6.11-23.67-8-30.85-7.78l-.47.72,0,.31c5.17,1,8.17,3.53,9.39,6.43a8.74,8.74,0,0,1-.5,7.95c-2.24,3.74-7.54,7.51-9.46,8.91-7.57,5.54-10.42,10.6-10.42,16.8,0,8.29,8,12.6,17.89,12.27,10.34-.34,27.86-6.07,33.24-21.92,3-8.86,0-17.28-8.86-23.69"/><path class="cls-3" d="M135.94,128.72l-.76,0v.46a3.58,3.58,0,0,1,1,1.85c-.22,1.92-3.55,2.9-7.13,3.33a62,62,0,0,1-11.16-.23c-6.27-.78-11.64-1.57-16.81-1.61-8.06-.05-18.48.79-18.22,5.45.29,5.21,18.44,10.13,29.63,10.94,9.33.66,28.68.89,33.75-5.93,4-5.4-3.93-11.21-10.28-14.3"/><path class="cls-3" d="M101.7,196.22a.81.81,0,0,1-.81.83c-.85,0-1.13-1-3-1a2.22,2.22,0,0,0-2.42,2.17c0,3.37,7.25,1.76,7.25,6.92A4.81,4.81,0,0,1,97.53,210c-2,0-4.26-.78-4.26-1.84,0-.52.27-1,.8-1s1.55,1.17,3.49,1.17a3,3,0,0,0,3.13-3.11c0-3.63-7.26-1.86-7.26-6.88a4.27,4.27,0,0,1,4.5-3.92c1.9,0,3.77.79,3.77,1.78"/><path class="cls-3" d="M106.83,209a.94.94,0,1,1-1.88,0V195.59a.93.93,0,0,1,1-1h3.74a4.68,4.68,0,0,1,5,4.81,4.77,4.77,0,0,1-4.91,4.77h-2.91V209m0-6.47h2.8a3,3,0,0,0,3.14-3.13,3,3,0,0,0-3.22-3.19h-2.72v6.32Z"/><path class="cls-3" d="M118.52,208.1h4.55a.88.88,0,1,1,0,1.75h-5.44a.92.92,0,0,1-1-1V195.59a.93.93,0,0,1,1-1h5.44a.89.89,0,1,1,0,1.77h-4.55v5h4.14a.89.89,0,1,1,0,1.77h-4.14v5"/><path class="cls-3" d="M128.05,209a.95.95,0,1,1-1.89,0V195.43a.95.95,0,1,1,1.89,0V201l6.55-6c.35-.32.64-.6,1-.6a.79.79,0,0,1,.82.81,1,1,0,0,1-.39.86l-6.27,5.65,6.85,6.61a1,1,0,0,1,.39.78.89.89,0,0,1-.93.83,1.16,1.16,0,0,1-.92-.39l-7.13-7V209"/><path class="cls-3" d="M141.51,196.32h-2.86a.88.88,0,1,1,0-1.76h7.6a.88.88,0,1,1,0,1.76h-2.86V209a.94.94,0,1,1-1.88,0V196.32"/><path class="cls-3" d="M150.77,209a.95.95,0,1,1-1.89,0V195.59a.94.94,0,0,1,1-1h3.5c2.41,0,4.68,1.64,4.68,4.13,0,3.09-1.89,4.25-4.16,4.33l-.81,0L158,208.4a1.11,1.11,0,0,1,.37.86.79.79,0,0,1-.85.73,1.13,1.13,0,0,1-.86-.43l-5.85-6.4V209m0-7.35h2.58c2,0,2.83-.83,2.83-2.81a2.66,2.66,0,0,0-2.88-2.62h-2.53Z"/><path class="cls-3" d="M160.24,195.44a.95.95,0,1,1,1.89,0v9.09c0,2.41,1.63,3.82,4,3.82s4-1.41,4-3.82v-9.09a.95.95,0,1,1,1.89,0v8.36c0,5.16-3.31,6.19-5.92,6.19s-5.93-1-5.93-6.19v-8.36"/><path class="cls-3" d="M175.87,209.16a.87.87,0,0,1-1,.82.85.85,0,0,1-.88-1,4.78,4.78,0,0,1,.11-.86l2.08-12.29c.2-1.08.79-1.44,1.48-1.44a1.25,1.25,0,0,1,1.38,1l3.26,11.19h.05l3.26-11.19a1.24,1.24,0,0,1,1.37-1c.69,0,1.3.36,1.49,1.44l2.08,12.29a4.78,4.78,0,0,1,.11.86.85.85,0,0,1-.88,1,.88.88,0,0,1-1-.82L187,196.87h0l-3.66,12.34a.91.91,0,0,1-1,.77.93.93,0,0,1-1-.77l-3.64-12.34h0l-1.78,12.29"/></g></g></g></g></svg>