<svg xmlns="http://www.w3.org/2000/svg" viewBox="0 0 283.46 283.46"><defs><style>.cls-1{fill:#22174b;}.cls-2{fill:#fff;}</style></defs><title>spektrum</title><g id="Layer_2" data-name="Layer 2"><g id="AMC_Networks_International" data-name="AMC Networks International"><g id="spektrum"><rect class="cls-1" width="283.46" height="283.46"/><g id="logo"><path class="cls-2" d="M151.07,48.28c-3.81-5.63-8.43-6.86-13-4.88,0,0,.06,0,.1,0-5.47,2.08-10.91,8.78-14.93,18.08-5.21,12.12-7.59,25.74-7.4,42.79.08,8.27,1.86,22.86,7,33.89l.36.2.87-.61c-2-14,.73-21.81,3.67-29.92,1-2.76,5-9.82,9.1-10.91,7.5-2,12-9.26,16.06-18.28,3.07-6.76,3.77-22-1.86-30.32"/><path class="cls-2" d="M125.16,142c-7.4-10.13-13.56-31.25-13.13-39.74.36-7.28.93-16-3.35-28.67-5.75-17.19-11.1-24.49-15.86-24.41a2.23,2.23,0,0,0-1.57.66l0,0c-3.61,2.06-3.33,14.95,2.54,36a173.21,173.21,0,0,0,16.12,39.44c3.61,6.27,9.74,14.81,14.69,17.85l.63.12-.08-1.25"/><path class="cls-2" d="M165.37,67.33c15-6.62,28.62-5.26,34.07,9.36,4.1,11.07-2,30.62-16.06,36-5.75,2.22-14.26.85-21.87-2.32-4.08-1.71-8.9-3.07-16.1.87-7.61,4.16-15,11.16-19.19,23l-1.17-.14a82.2,82.2,0,0,1,11.56-38.93c8.78-14.38,18.78-23.54,28.75-27.92"/><path class="cls-2" d="M204.1,98c19.1,5.69,25.42,20.54,20.72,34.9-4.32,13.23-17.47,20.09-31.59,16.72-7-1.67-12.39-4.26-19.17-12.71-2.18-2.72-5-7.24-6.52-8.69-6.11-5.77-23.18-6.68-37,5.26l-.89-.87A87.44,87.44,0,0,1,156,106.32c15.86-9.95,34.15-12.47,48.07-8.33"/><path class="cls-2" d="M81.77,116.75C67.53,104.51,54.62,91,57.58,88.79c2.52-1.9,14.83,7.63,25.62,17,8.35,7.26,15,14.87,18.64,18.3,5.63,5.39,19.35,17.65,26.83,20.15l.87.83c-.2.59-.77,1.88-3.47,1.39-5.1-.93-10.65-4.68-15-7.4-8.9-5.57-20.07-14.4-29.29-22.31"/><path class="cls-2" d="M214.33,143.78c-9.76-14-26.79-19-41.94-19.06-14-.08-29.6,5.33-38.07,10.23l0,.93.44.32c6.68-1.31,12.33-1,16.86.44,7.24,2.48,11.72,7.67,12.81,12.91a49.73,49.73,0,0,1,.59,13.11c-.59,8.45.34,14.16,6,20.6,10.37,11.74,27.52,10,38,.67,11.18-9.93,15.29-25.68,5.21-40.15"/><path class="cls-2" d="M172.83,148.62c-9.91-7.2-27.86-9.48-36.31-9.16l-.54.85,0,.36c6.09,1.17,9.62,4.16,11.05,7.56a10.31,10.31,0,0,1-.58,9.36c-2.64,4.4-8.88,8.84-11.14,10.49-8.92,6.52-12.26,12.47-12.26,19.77,0,9.76,9.4,14.83,21.06,14.45,12.16-.4,32.78-7.14,39.12-25.8,3.55-10.43,0-20.33-10.43-27.88"/><path class="cls-2" d="M134.91,144l-.89,0v.54a4.16,4.16,0,0,1,1.15,2.18c-.26,2.26-4.18,3.41-8.39,3.91a72.29,72.29,0,0,1-13.13-.26c-7.38-.93-13.7-1.86-19.79-1.9-9.48-.06-21.75.93-21.44,6.42.34,6.13,21.71,11.92,34.88,12.87,11,.79,33.75,1,39.72-7,4.72-6.36-4.62-13.19-12.1-16.82"/><path class="cls-2" d="M87.47,222.39a1.1,1.1,0,0,1-1.09,1.13c-1.14,0-1.52-1.32-4.06-1.32a3,3,0,0,0-3.26,2.92c0,4.54,9.77,2.37,9.77,9.32,0,3.41-2.48,6.51-7,6.51-2.72,0-5.74-1-5.74-2.48,0-.7.36-1.31,1.08-1.31s2.09,1.58,4.7,1.58a4.05,4.05,0,0,0,4.23-4.19c0-4.9-9.79-2.51-9.79-9.27A5.76,5.76,0,0,1,82.4,220c2.56,0,5.07,1.06,5.07,2.4"/><path class="cls-2" d="M94.4,239.57a1.27,1.27,0,1,1-2.54,0v-18a1.25,1.25,0,0,1,1.35-1.39h5a6.31,6.31,0,0,1,6.69,6.48,6.42,6.42,0,0,1-6.61,6.43H94.4v6.51m0-8.71h3.77a4.11,4.11,0,0,0,4.23-4.22,4,4,0,0,0-4.34-4.29H94.4v8.52Z"/><path class="cls-2" d="M110.14,238.4h6.13a1.18,1.18,0,1,1,0,2.37h-7.33a1.25,1.25,0,0,1-1.35-1.39V221.54a1.26,1.26,0,0,1,1.35-1.39h7.33a1.19,1.19,0,1,1,0,2.38h-6.13v6.74h5.58a1.19,1.19,0,1,1,0,2.38h-5.58v6.74"/><path class="cls-2" d="M123,239.57a1.28,1.28,0,1,1-2.55,0V221.33a1.28,1.28,0,1,1,2.55,0v7.54l8.83-8.08c.47-.44.86-.81,1.39-.81a1.06,1.06,0,0,1,1.11,1.09,1.3,1.3,0,0,1-.52,1.16l-8.45,7.62,9.24,8.91a1.35,1.35,0,0,1,.52,1,1.2,1.2,0,0,1-1.26,1.13,1.59,1.59,0,0,1-1.24-.54L123,230.94v8.63"/><path class="cls-2" d="M141.12,222.52h-3.85a1.18,1.18,0,1,1,0-2.37h10.25a1.18,1.18,0,1,1,0,2.37h-3.85v17.05a1.28,1.28,0,1,1-2.55,0V222.52"/><path class="cls-2" d="M153.6,239.59a1.28,1.28,0,1,1-2.55,0v-18a1.26,1.26,0,0,1,1.35-1.39h4.72c3.25,0,6.32,2.2,6.32,5.56,0,4.16-2.55,5.73-5.61,5.84l-1.09,0,6.56,7.21a1.49,1.49,0,0,1,.49,1.16,1.06,1.06,0,0,1-1.14,1,1.51,1.51,0,0,1-1.16-.57l-7.88-8.63v7.85m0-9.9h3.47c2.66,0,3.82-1.13,3.82-3.79a3.6,3.6,0,0,0-3.88-3.54H153.6Z"/><path class="cls-2" d="M166.36,221.35a1.28,1.28,0,1,1,2.55,0v12.24c0,3.25,2.2,5.16,5.45,5.16s5.43-1.91,5.43-5.16V221.35a1.28,1.28,0,1,1,2.55,0v11.26c0,7-4.45,8.34-8,8.34s-8-1.39-8-8.34V221.35"/><path class="cls-2" d="M187.43,239.84a1.17,1.17,0,0,1-1.36,1.09,1.14,1.14,0,0,1-1.19-1.29,6.26,6.26,0,0,1,.15-1.16l2.81-16.56c.26-1.45,1.06-1.94,2-1.94a1.68,1.68,0,0,1,1.86,1.34l4.39,15.08h.06l4.41-15.08a1.66,1.66,0,0,1,1.84-1.34c.93,0,1.75.49,2,1.94l2.81,16.56a7.9,7.9,0,0,1,.15,1.16,1.14,1.14,0,0,1-1.19,1.29,1.18,1.18,0,0,1-1.37-1.09l-2.4-16.56h0l-4.93,16.63a1.34,1.34,0,0,1-2.61,0l-4.91-16.63h-.07l-2.4,16.56"/></g></g></g></g></svg>