<?xml version="1.0" encoding="UTF-8"?><svg xmlns="http://www.w3.org/2000/svg" viewBox="0 0 283.46 283.46"><defs><style>.f{fill:#fff;}.g{fill:#280045;}</style></defs><g id="a"/><g id="b"><g id="c"><g id="d"><rect class="g" width="283.46" height="283.46"/><g id="e"><path class="f" d="M62.9,146.98v-.08c0-4.5-2.95-6.36-8.18-7.71-4.46-1.12-5.54-1.71-5.54-3.37v-.08c0-1.24,1.12-2.25,3.29-2.25s4.42,.97,6.7,2.52l2.95-4.26c-2.64-2.09-5.81-3.26-9.57-3.26-5.27,0-8.99,3.1-8.99,7.75v.08c0,5.12,3.33,6.55,8.53,7.87,4.3,1.12,5.15,1.86,5.15,3.29v.08c0,1.51-1.4,2.44-3.72,2.44-2.95,0-5.39-1.2-7.67-3.14l-3.33,3.99c3.1,2.75,7.01,4.11,10.93,4.11,5.54,0,9.46-2.87,9.46-7.98Z"/><path class="f" d="M75.23,128.85h-10.54v25.73h5.66v-7.71h4.3c5.77,0,10.39-3.1,10.39-9.03v-.08c.04-5.27-3.68-8.91-9.8-8.91Zm4.11,9.11c0,2.21-1.67,3.91-4.5,3.91h-4.5v-7.91h4.38c2.83,0,4.61,1.36,4.61,3.91v.08Z"/><polygon class="f" points="92.4 144.15 104.53 144.15 104.53 139.12 92.4 139.12 92.4 133.88 106.19 133.88 106.19 128.85 86.78 128.85 86.78 154.62 106.35 154.62 106.35 149.58 92.4 149.58 92.4 144.15"/><polygon class="f" points="124.41 128.85 113.95 140.12 113.95 128.85 108.29 128.85 108.29 154.62 113.95 154.62 113.95 146.75 116.93 143.65 124.91 154.62 131.69 154.62 120.77 139.78 131.04 129.04 131.04 129.04 131.04 134.08 138.86 134.08 138.86 154.62 144.56 154.62 144.56 134.08 152.39 134.08 152.39 128.85 124.41 128.85"/><path class="f" d="M175.68,137.45v-.08c0-2.44-.78-4.46-2.21-5.89-1.71-1.71-4.22-2.6-7.52-2.6h-11.78v25.73h5.66v-8.25h4.46l5.5,8.25h6.63l-6.28-9.18c3.29-1.24,5.54-3.84,5.54-7.98Zm-5.74,.27c0,2.17-1.59,3.64-4.34,3.64h-5.74v-7.4h5.62c2.75,0,4.46,1.24,4.46,3.68v.08Z"/><path class="f" d="M194.05,143.61c0,4.07-2.09,6.16-5.54,6.16s-5.54-2.17-5.54-6.36v-14.57h-5.66v14.69c0,7.56,4.22,11.43,11.12,11.43s11.28-3.84,11.28-11.63v-14.49h-5.66v14.77Z"/><path class="f" d="M229.82,128.5c-3.57,0-6.47,1.05-8.41,3.1-1.94-2.05-4.77-3.1-8.33-3.1-6.9,0-11.28,3.84-11.28,11.63v14.53h5.66v-14.73c0-4.07,2.09-6.16,5.54-6.16s5.54,2.17,5.54,6.36v14.57h5.66v-14.73c0-4.07,2.09-6.16,5.54-6.16s5.54,2.17,5.54,6.36v14.57h5.66v-14.8h0c0-7.56-4.22-11.43-11.12-11.43Z"/></g></g></g></g></svg>