<svg xmlns="http://www.w3.org/2000/svg" viewBox="0 0 283.46 283.46"><defs><style>.cls-1{fill:#22174b;}.cls-2{fill:#fff;}</style></defs><g id="Layer_2" data-name="Layer 2"><g id="AMC_Networks_International" data-name="AMC Networks International"><g id="spektrum"><rect class="cls-1" width="283.46" height="283.46"/><g id="logo"><path class="cls-2" d="M151.07,48.28c-3.82-5.62-8.43-6.86-13-4.88,0,0,.06,0,.1,0-5.47,2.08-10.92,8.78-14.93,18.08-5.21,12.12-7.59,25.74-7.41,42.78.09,8.27,1.86,22.86,7,33.9l.37.2.87-.61c-2-14,.72-21.81,3.67-29.92,1-2.76,5-9.82,9.09-10.91,7.51-2,12-9.26,16.06-18.28,3.07-6.75,3.78-22-1.85-30.32"/><path class="cls-2" d="M125.16,142c-7.4-10.13-13.55-31.25-13.13-39.74.37-7.29.93-16-3.35-28.67-5.75-17.19-11.09-24.49-15.85-24.41a2.23,2.23,0,0,0-1.58.67l0,0c-3.61,2.05-3.32,15,2.55,36a173.08,173.08,0,0,0,16.11,39.43c3.62,6.28,9.75,14.81,14.69,17.86l.63.12-.09-1.25"/><path class="cls-2" d="M165.37,67.33c15-6.62,28.63-5.27,34.07,9.36,4.1,11.07-2,30.62-16.06,36.05-5.74,2.22-14.26.84-21.86-2.32-4.08-1.72-8.9-3.07-16.1.86-7.61,4.16-15,11.16-19.19,23l-1.17-.14a82.31,82.31,0,0,1,11.56-38.93c8.78-14.39,18.78-23.55,28.75-27.92"/><path class="cls-2" d="M204.1,98c19.11,5.69,25.42,20.54,20.72,34.9-4.32,13.23-17.47,20.09-31.59,16.72-7-1.67-12.39-4.25-19.17-12.71-2.17-2.72-5-7.24-6.51-8.69-6.11-5.77-23.18-6.68-37,5.26l-.89-.86A87.41,87.41,0,0,1,156,106.32c15.86-9.94,34.15-12.46,48.07-8.33"/><path class="cls-2" d="M81.77,116.75C67.53,104.51,54.62,91,57.58,88.79c2.53-1.89,14.83,7.63,25.62,17,8.36,7.26,15,14.86,18.64,18.29,5.63,5.39,19.35,17.66,26.84,20.16l.86.82c-.2.59-.76,1.88-3.47,1.4-5.1-.93-10.65-4.68-15-7.41-8.89-5.57-20.07-14.4-29.29-22.31"/><path class="cls-2" d="M214.33,143.78c-9.76-14-26.79-19-41.94-19.06-14-.08-29.59,5.33-38.07,10.23l0,.93.45.32c6.68-1.31,12.32-1,16.86.44,7.25,2.48,11.72,7.67,12.81,12.91a49.82,49.82,0,0,1,.59,13.12c-.59,8.45.34,14.16,6,20.59,10.37,11.74,27.52,10,38,.67,11.17-9.93,15.29-25.68,5.2-40.15"/><path class="cls-2" d="M172.83,148.62c-9.9-7.2-27.86-9.48-36.31-9.15l-.54.84,0,.37c6.09,1.17,9.62,4.15,11,7.56a10.32,10.32,0,0,1-.58,9.36c-2.65,4.4-8.88,8.84-11.14,10.49-8.91,6.52-12.26,12.47-12.26,19.77,0,9.77,9.4,14.83,21.06,14.45,12.16-.41,32.78-7.15,39.11-25.81,3.55-10.42,0-20.33-10.43-27.88"/><path class="cls-2" d="M134.91,144l-.89,0v.54a4.12,4.12,0,0,1,1.15,2.18c-.26,2.26-4.18,3.41-8.39,3.91a72,72,0,0,1-13.13-.26c-7.39-.93-13.7-1.86-19.79-1.9-9.48-.06-21.75.93-21.45,6.42.34,6.13,21.71,11.92,34.88,12.87,11,.79,33.75,1.05,39.72-7,4.72-6.36-4.62-13.19-12.1-16.82"/><path class="cls-2" d="M87.47,222.39a1.1,1.1,0,0,1-1.09,1.13c-1.14,0-1.52-1.32-4.06-1.32a3,3,0,0,0-3.27,2.92c0,4.53,9.78,2.36,9.78,9.31,0,3.41-2.48,6.51-7,6.51-2.73,0-5.74-1-5.74-2.48,0-.7.36-1.3,1.07-1.3.87,0,2.09,1.58,4.7,1.58a4.05,4.05,0,0,0,4.23-4.19c0-4.9-9.79-2.52-9.79-9.27A5.76,5.76,0,0,1,82.4,220c2.56,0,5.07,1.06,5.07,2.4"/><path class="cls-2" d="M94.4,239.57a1.28,1.28,0,1,1-2.55,0v-18a1.25,1.25,0,0,1,1.36-1.38h5a6.31,6.31,0,0,1,6.69,6.47,6.42,6.42,0,0,1-6.61,6.43H94.4v6.51m0-8.71h3.77a4.1,4.1,0,0,0,4.22-4.22,4,4,0,0,0-4.34-4.3H94.4v8.52Z"/><path class="cls-2" d="M110.14,238.4h6.13a1.19,1.19,0,1,1,0,2.37H109a1.26,1.26,0,0,1-1.36-1.39V221.54a1.26,1.26,0,0,1,1.36-1.38h7.32a1.19,1.19,0,1,1,0,2.38h-6.13v6.74h5.58a1.19,1.19,0,1,1,0,2.38h-5.58v6.74"/><path class="cls-2" d="M123,239.57a1.28,1.28,0,1,1-2.55,0V221.33a1.28,1.28,0,1,1,2.55,0v7.54l8.83-8.08c.47-.44.86-.81,1.38-.81a1.06,1.06,0,0,1,1.11,1.09,1.3,1.3,0,0,1-.52,1.16l-8.45,7.62,9.23,8.91a1.33,1.33,0,0,1,.53,1,1.21,1.21,0,0,1-1.26,1.13,1.58,1.58,0,0,1-1.24-.54L123,230.94v8.63"/><path class="cls-2" d="M141.12,222.52h-3.85a1.18,1.18,0,1,1,0-2.36h10.24a1.18,1.18,0,1,1,0,2.36h-3.85v17a1.27,1.27,0,1,1-2.54,0v-17"/><path class="cls-2" d="M153.6,239.59a1.27,1.27,0,1,1-2.54,0V221.54a1.26,1.26,0,0,1,1.35-1.38h4.72c3.25,0,6.31,2.2,6.31,5.56,0,4.16-2.54,5.73-5.61,5.84l-1.09,0,6.56,7.21a1.48,1.48,0,0,1,.49,1.16,1.06,1.06,0,0,1-1.14,1,1.49,1.49,0,0,1-1.16-.57l-7.89-8.63v7.85m0-9.9h3.48c2.66,0,3.82-1.13,3.82-3.79a3.6,3.6,0,0,0-3.89-3.54H153.6Z"/><path class="cls-2" d="M166.36,221.35a1.27,1.27,0,1,1,2.54,0v12.23c0,3.25,2.21,5.16,5.45,5.16s5.44-1.91,5.44-5.16V221.35a1.27,1.27,0,1,1,2.54,0v11.26c0,6.95-4.45,8.33-8,8.33s-8-1.38-8-8.33V221.35"/><path class="cls-2" d="M187.43,239.84a1.18,1.18,0,0,1-1.36,1.09,1.14,1.14,0,0,1-1.19-1.29,6.1,6.1,0,0,1,.15-1.16l2.8-16.56c.27-1.45,1.06-1.94,2-1.94a1.67,1.67,0,0,1,1.86,1.34l4.39,15.07h.07l4.4-15.07a1.66,1.66,0,0,1,1.85-1.34c.93,0,1.74.49,2,1.94l2.8,16.56a8.35,8.35,0,0,1,.15,1.16,1.14,1.14,0,0,1-1.19,1.29,1.18,1.18,0,0,1-1.37-1.09l-2.4-16.57h0l-4.93,16.63a1.34,1.34,0,0,1-2.61,0l-4.91-16.63h-.07l-2.39,16.57"/></g></g></g></g></svg>