<?xml version="1.0" encoding="UTF-8"?><svg xmlns="http://www.w3.org/2000/svg" xmlns:xlink="http://www.w3.org/1999/xlink" viewBox="0 0 283.46 283.46"><defs><style>.g{fill:url(#e);}.h{fill:#fff;}</style><linearGradient id="e" x1="141.73" y1="0" x2="141.73" y2="283.46" gradientTransform="matrix(1, 0, 0, 1, 0, 0)" gradientUnits="userSpaceOnUse"><stop offset="0" stop-color="#fe8f34"/><stop offset="1" stop-color="#ffae01"/></linearGradient></defs><g id="a"/><g id="b"><g id="c"><g id="d"><rect class="g" width="283.46" height="283.46"/><g id="f"><path class="h" d="M46.94,113.31c-1.2,0-2.25,.43-3.1,1.28-.89,.85-1.32,1.94-1.32,3.14v48.2c0,1.24,.43,2.29,1.32,3.1,.89,.89,1.9,1.32,3.1,1.32h.12c1.2,0,2.25-.46,3.1-1.32,.89-.85,1.32-1.86,1.32-3.1v-19.99c0-2.4,.85-4.46,2.52-6.2,1.7-1.7,3.76-2.56,6.2-2.56s4.46,.85,6.16,2.56c1.67,1.7,2.52,3.76,2.52,6.2v19.99c0,1.24,.43,2.29,1.32,3.1,.89,.89,1.94,1.32,3.14,1.32h.08c1.24,0,2.29-.46,3.1-1.32,.89-.85,1.32-1.86,1.32-3.1v-19.99c0-4.84-1.7-9.03-5.19-12.52-3.49-3.45-7.63-5.15-12.48-5.15-3.87,0-6.78,.74-8.68,2.17v-12.71c0-1.2-.43-2.29-1.32-3.14-.89-.85-1.9-1.28-3.1-1.28h-.12"/><path class="h" d="M105.02,137.3c3.33,0,6.16,1.16,8.56,3.56,2.36,2.36,3.53,5.23,3.53,8.6s-1.16,6.2-3.53,8.56-5.23,3.53-8.56,3.53-6.2-1.16-8.6-3.53c-2.32-2.36-3.49-5.23-3.49-8.56s1.16-6.2,3.49-8.6c2.4-2.4,5.27-3.56,8.6-3.56Zm0-9.03c-5.81,0-10.73,2.05-14.88,6.16-4.11,4.15-6.16,9.07-6.16,14.88s2.05,10.77,6.16,14.88,9.07,6.16,14.88,6.16,10.73-2.05,14.88-6.16c4.11-4.11,6.16-9.07,6.16-14.88s-2.05-10.73-6.16-14.88c-4.11-4.11-9.07-6.16-14.88-6.16"/><path class="h" d="M141.25,145.82c0-2.36,.85-4.42,2.52-6.12s3.72-2.52,6.08-2.52,4.42,.85,6.08,2.52,2.52,3.72,2.52,6.12v20.07c0,1.24,.43,2.29,1.32,3.1,.89,.89,1.94,1.32,3.14,1.32h.08c1.24,0,2.29-.46,3.1-1.32,.89-.85,1.32-1.86,1.32-3.1v-20.07c0-2.36,.85-4.42,2.52-6.12,1.67-1.67,3.72-2.52,6.12-2.52s4.46,.85,6.16,2.52,2.52,3.72,2.52,6.12v20.07c0,1.24,.43,2.29,1.32,3.1,.85,.89,1.86,1.32,3.1,1.32h.08c1.2,0,2.25-.46,3.14-1.32,.85-.85,1.28-1.9,1.28-3.1v-20.07c0-4.8-1.7-8.95-5.15-12.44-3.41-3.41-7.56-5.15-12.4-5.15-5.81,0-10.15,1.94-13.1,5.77-2.98-3.8-7.32-5.73-13.14-5.73-4.84,0-8.99,1.7-12.4,5.15-3.41,3.49-5.15,7.59-5.15,12.44v20.07c0,1.24,.43,2.29,1.32,3.1,.89,.89,1.9,1.32,3.1,1.32h.12c1.2,0,2.25-.46,3.1-1.32,.89-.85,1.32-1.86,1.32-3.1v-20.11"/><path class="h" d="M220.76,137.3c3.76,0,6.55,1.05,8.33,3.22l-20.38,9.18v-.27c0-3.37,1.16-6.2,3.49-8.6,2.36-2.36,5.19-3.53,8.56-3.53h0Zm19.1,3.25c-1.63-3.64-4.18-6.63-7.63-8.83-3.45-2.29-7.25-3.45-11.47-3.45-5.81,0-10.73,2.05-14.84,6.16-4.11,4.15-6.16,9.07-6.16,14.88s2.05,10.77,6.16,14.88,9.07,6.16,14.88,6.16c4.53,0,8.6-1.32,12.24-3.99,3.6-2.56,6.12-5.89,7.56-10.07,.19-.54,.27-1.05,.27-1.59,0-.85-.27-1.67-.85-2.44-.93-1.28-2.13-1.9-3.6-1.9-2.13,0-3.56,1.01-4.22,3.02-.85,2.36-2.29,4.34-4.34,5.85-2.13,1.55-4.49,2.29-7.09,2.29-3.91,0-6.78-1.16-8.64-3.49,1.2-.54,5.23-2.4,12.13-5.5l13.45-6.08c1.12-.5,1.94-1.36,2.32-2.48,.19-.5,.27-1.01,.27-1.55,0-.62-.15-1.24-.43-1.86"/><path class="h" d="M88.86,123.93c2.44,0,4.18-1.16,4.18-2.94v-.04c0-1.59-1.24-2.44-3.99-2.94-2.67-.5-3.33-1.05-3.33-2.01v-.08c0-.93,1.01-1.7,2.6-1.7,1.24,0,2.4,.35,3.53,1.12l.81-.93c-1.24-.85-2.52-1.28-4.3-1.28-2.32,0-4.03,1.2-4.03,2.87v.04c0,1.7,1.28,2.48,4.11,3.02,2.56,.46,3.18,1.01,3.18,1.98v.04c0,1.05-1.08,1.78-2.71,1.78s-2.91-.5-4.18-1.47l-.85,.85c1.47,1.16,3.06,1.7,5,1.7"/><path class="h" d="M104.48,123.77h1.39v-3.68h2.98c2.6,0,4.8-1.16,4.8-3.41v-.04c0-2.05-1.82-3.33-4.57-3.33h-4.57v10.46h-.04Zm1.36-4.77v-4.61h3.1c1.98,0,3.29,.77,3.29,2.29v.04c0,1.39-1.32,2.29-3.33,2.29h-3.06"/><path class="h" d="M124.78,123.77h8.91v-1.08h-7.56v-3.68h6.66v-1.08h-6.66v-3.53h7.44v-1.08h-8.83v10.46"/><path class="h" d="M145.08,123.77h1.39v-2.83l2.6-2.25,4.69,5.08h1.74l-5.46-5.89,5.23-4.57h-1.78l-7.01,6.24v-6.24h-1.39v10.46"/><path class="h" d="M169.34,123.77h1.39v-9.38h4.11v-1.08h-9.61v1.08h4.11v9.38"/><path class="h" d="M186.08,123.77h1.39v-4.07h3.49l3.53,4.07h1.7l-3.76-4.26c1.94-.31,3.33-1.32,3.33-3.06v-.04c0-.81-.35-1.55-.93-2.05-.77-.66-1.98-1.05-3.49-1.05h-5.27v10.46Zm1.36-5.11v-4.26h3.76c1.98,0,3.14,.77,3.14,2.05v.04c0,1.36-1.32,2.17-3.14,2.17h-3.76"/><path class="h" d="M212.19,123.93c3.06,0,5.11-1.59,5.11-4.65v-5.97h-1.39v6.08c0,2.29-1.43,3.45-3.68,3.45s-3.72-1.28-3.72-3.53v-6.01h-1.39v6.08c0,2.94,2.05,4.53,5.08,4.53"/><path class="h" d="M229.2,123.77h1.36v-8.45l4.46,5.58h.08l4.46-5.62v8.49h1.39v-10.46h-1.39l-4.46,5.7-4.49-5.7h-1.39v10.46"/></g></g></g></g></svg>