<svg xmlns="http://www.w3.org/2000/svg" viewBox="0 0 283.46 283.46"><defs><style>.cls-1{fill:#212224;}.cls-2{fill:#ee322b;}.cls-3{fill:#fff;}</style></defs><title>sport1</title><g id="Layer_2" data-name="Layer 2"><g id="AMC_Networks_International" data-name="AMC Networks International"><g id="sport1"><rect class="cls-1" width="283.46" height="283.46"/><g id="logo"><path class="cls-2" d="M204.81,124v35.39h26a10.1,10.1,0,0,0,10.09-10.08V124H204.81Z"/><path class="cls-3" d="M42.52,141.49v17.94H205.77V124h-145c-9.55,0-18.25,6.75-18.25,17.46"/><path class="cls-2" d="M56.52,141.69a3.59,3.59,0,1,0,3.59-3.6,3.59,3.59,0,0,0-3.59,3.6"/><path class="cls-1" d="M65.47,138.72a6,6,0,0,1-5.21,9.05H45.43v8.82H60.27a14.74,14.74,0,0,0,14.51-17.86"/><path class="cls-1" d="M60.27,126.9A14.87,14.87,0,0,0,45.61,144c0,.27.1.53.16.78H55.1a6,6,0,0,1,5.11-9.09h14.9V126.9"/><path class="cls-1" d="M78,141.7h0v14.89h8.8V141.7h0a6,6,0,1,1,3,5.21v9.31A14.83,14.83,0,1,0,78,141.7"/><path class="cls-1" d="M110.24,141.76a14.82,14.82,0,1,0,14.82-14.84,14.81,14.81,0,0,0-14.82,14.84m8.84,0a6,6,0,1,1,6,6,6,6,0,0,1-6-6"/><path class="cls-1" d="M157,126.85a15,15,0,0,0-14.36,14.95v14.79h8.92V141.8a6.06,6.06,0,0,1,6.06-6.07h12.86v-8.88"/><path class="cls-1" d="M173.5,126.9v14.72h0a15,15,0,0,0,28.64,6.08H188.45a6.07,6.07,0,0,1-6.06-6.07h0V126.88"/><path class="cls-1" d="M185.4,135.67h17.43v-8.76H185.4Z"/><path class="cls-3" d="M227.32,126.84v7.9h2.84v21.86h.57c4.95,0,7.33-3.59,7.33-6.72,0-1.62,0-23,0-23"/></g></g></g></g></svg>