<svg xmlns="http://www.w3.org/2000/svg" viewBox="0 0 283.46 283.46"><defs><style>.cls-1{fill:#212224;}.cls-2{fill:#ee322b;}.cls-3{fill:#fff;}</style></defs><g id="Layer_2" data-name="Layer 2"><g id="AMC_Networks_International" data-name="AMC Networks International"><g id="sport2"><rect class="cls-1" width="283.46" height="283.46"/><g id="logo"><path class="cls-2" d="M199.71,124.49V159h31.41a9.82,9.82,0,0,0,9.82-9.83V124.49Z"/><path class="cls-3" d="M215.55,127.14c-3.91,0-6.92.26-8.48,1.48s-2.47,3.66-2.47,7.15c0,.28,0,.71,0,1.28h7.81a3.48,3.48,0,0,1,1.07-2.79,6.49,6.49,0,0,1,3.74-.83h8.85c2.5,0,3.76.64,3.76,1.91V136a1.58,1.58,0,0,1-.93,1.52,9.82,9.82,0,0,1-3,.64l-14.57,1.14a8.17,8.17,0,0,0-4.89,1.9,5.18,5.18,0,0,0-1.81,4l.09,11.07s19.73,0,26.08,0c3.36,0,6.79-3.54,6.79-6.62l-25.15,0v-1c0-1.86.81-2.88,2.45-3.05l16.34-1.35a7.36,7.36,0,0,0,4.85-2,6.24,6.24,0,0,0,1.71-4.52v-4c0-2.42-.77-4.2-2.28-5.3s-3.49-1.26-7.18-1.26"/><path class="cls-3" d="M42.52,141.5V159H201.6V124.49H60.29c-9.31,0-17.77,6.57-17.77,17"/><path class="cls-2" d="M56.15,141.67a3.5,3.5,0,1,0,3.5-3.5,3.5,3.5,0,0,0-3.5,3.5"/><path class="cls-1" d="M64.88,138.81a5.75,5.75,0,0,1,.79,2.94,5.86,5.86,0,0,1-5.86,5.87H45.35v8.6H59.81A14.38,14.38,0,0,0,74,138.81"/><path class="cls-1" d="M59.81,127.29a14.45,14.45,0,0,0-14.46,14.46,15.25,15.25,0,0,0,.17,2.24c0,.25.09.51.15.77h9.1a5.85,5.85,0,0,1,5-8.87H74.27v-8.6"/><path class="cls-1" d="M77.12,141.7h0v14.51h8.57V141.7h0v0h0a5.86,5.86,0,1,1,5.86,5.88,5.94,5.94,0,0,1-2.93-.79v9.08a15.24,15.24,0,0,0,3,.31A14.46,14.46,0,1,0,77.12,141.7"/><path class="cls-1" d="M108.51,141.76A14.45,14.45,0,1,0,123,127.31a14.44,14.44,0,0,0-14.45,14.45m8.61,0a5.86,5.86,0,1,1,5.85,5.86,5.86,5.86,0,0,1-5.85-5.86"/><path class="cls-1" d="M154,127.24a14.57,14.57,0,0,0-14,14.56v14.41h8.7V141.8a5.91,5.91,0,0,1,5.91-5.91h12.52v-8.65"/><path class="cls-1" d="M170.15,127.29v14.34h0a14.59,14.59,0,0,0,27.92,5.92H184.72a5.91,5.91,0,0,1-5.91-5.92h0V127.29"/><path class="cls-1" d="M181.75,135.84h17v-8.55h-17Z"/></g></g></g></g></svg>