<svg xmlns="http://www.w3.org/2000/svg" viewBox="0 0 283.46 283.46"><defs><style>.cls-1{fill:#18c6fe;}.cls-2{fill:#fefdfc;}.cls-3{fill:#fff;}</style></defs><title>stingrayiconcerts</title><g id="Layer_2" data-name="Layer 2"><g id="Other_music" data-name="Other music"><g id="stingrayiconcerts"><rect width="283.46" height="283.46"/><g id="logo"><g id="g210"><path id="path172" class="cls-1" d="M185.45,163.47c4.77-5,10-9.68,13.48-15.79a110.2,110.2,0,0,1,8.76-12.54,7.28,7.28,0,0,0-2.92-.8c-1.62-.32-1.8-1.22-1.33-2.56.63-1.76,2-2.66,3.77-2,3.15,1.18,5.39.49,7.46-2.22a29.34,29.34,0,0,1,6.34-5.73c1.16-.83,2.21-1,3.29.12,1.41,1.51,1.87,3.56.91,4.64-1.81,2-3.69,4-5.73,6.21,1.25.46,2.28.8,3.28,1.23.7.3,1.65.47,1.32,1.64-.27,1-1,1-1.78.89a10.4,10.4,0,0,1-2.22-.16c-2.65-.82-4.26.3-5.93,2.35-5.95,7.35-11.79,14.74-15.66,23.47a25.45,25.45,0,0,0-2.18,8c0,.53-.34,1.22.19,1.56s1-.27,1.41-.61c1-.85,2-1.72,2.88-2.65,6.3-6.44,12.22-13.23,18.21-20a29.84,29.84,0,0,1,18.16-9.77c3.36-.52,4.48,1,3.34,4.23-.66,1.83-1.6,3-3.84,3-4.05.18-7.67,1.87-11.07,4a9.88,9.88,0,0,0-1,.78,2.5,2.5,0,0,0-.34.55c2.48-.46,4.84-1,7.22-1.31,2.19-.32,4.56-.44,5.94,1.63s0,4-1.15,5.65c-3.51,5.13-8.13,8.66-14.48,9.47a8.59,8.59,0,0,1-6.39-1.39,3,3,0,0,1-1.29-3.89c.65-1.59,3.16-3.65,4.36-3.4s1.12,1.5,1.52,2.35-.31,1-.88,1.26a5.9,5.9,0,0,0-2.38,1.69,4.41,4.41,0,0,0,3.75,0c4.94-1.8,8.12-5.53,10.62-10a1.05,1.05,0,0,0,.14-1.06c-.32-.52-.79-.15-1.16-.05-2.16.57-4.3,1.18-6.46,1.77-1.62.45-3.22.83-4-1.43-3.36,3.79-6.59,7.47-9.87,11.1a88.28,88.28,0,0,1-10.85,10.47c-1.42,1.11-2.89,1.69-4.64.87a4.55,4.55,0,0,1-2.61-4.19,31.14,31.14,0,0,1,1-9.4l.05-.45-.4.13c-1.93,1.93-3.86,3.85-5.78,5.79-1.29,1.3-2.58,1.17-4,.15-2.81-2-3.34-4.21-1.76-7.36,2.77-5.48,6.19-10.59,9.14-16a7.9,7.9,0,0,0,1.15-2.59c-3,.51-5.41,1.15-7.24,3.89-5.25,7.9-12.36,14-20,19.57a25.54,25.54,0,0,1-4,2.36c-2.63,1.26-4.71.53-6-2.07a11.82,11.82,0,0,1-1.28-6.79c-.78-.31-1.06.35-1.44.66a55.4,55.4,0,0,1-10.88,7.43,20.86,20.86,0,0,1-3.1,1.25c-4,1.2-7-.95-7.16-5.2,0-.36.13-.75-.22-1,.11.14.21.14.26,0s0-.11,0-.17l-.21.25c-1.94,2-3.82,4-5.84,5.93-1.11,1-2.19,2.62-4.14,1.55s-2.34-2.78-2.19-4.77A43,43,0,0,1,121.71,150c.82-1.84,1.68-3.65,2.54-5.51-.24,0-.33-.08-.35-.06-5.23,4.75-10.59,9.38-13.82,15.86-.57,1.15-1.58,1.17-2.43,0s-.61-2.37-1-3.73c-.8.56-1.52,1.09-2.28,1.58-1.54,1-3.11,1.88-5,.84-.83-.45-1.07.39-1.44.8a11.88,11.88,0,0,1-6.46,4.13c-4.51,1-7.77-1.92-7.2-6.43a18.27,18.27,0,0,1,3.53-8.3A32.17,32.17,0,0,1,97.71,140c1.73-1,3.53-1.61,5.35-.11.14.11.39.31.44.27,1.5-1.08,2.28-.06,2.93,1.06,1,1.71,1.62,3.51.68,5.48a40.67,40.67,0,0,1-3.94,6.08c-.94,1.31-1.86,2.63-2.81,4,.88.58,1.33-.07,1.78-.48,3.31-3,6.68-5.9,8.74-10a25.9,25.9,0,0,1,5.55-7.43,3.34,3.34,0,0,1,2.81-1.17c1.1.16,2.41.15,2.9,1.31s-.77,1.55-1.3,2.25c-.9,1.18-1.9,2.29-2.81,3.48-.39.51-.91,1-.63,1.83.75,0,1.06-.62,1.49-1,4.07-3.65,8.14-7.29,12.35-10.78,1.39-1.16,2.39-.89,3.52.22,2.26,2.23,2.47,3.77.65,6.33-2.91,4.1-5.95,8.11-8.77,12.26a25.16,25.16,0,0,0-4.48,10.13c-.06.36-.05.73-.09,1.21,1.09-.22,1.57-1.08,2.16-1.73,3.81-4.26,7.33-8.77,10.84-13.27a45.93,45.93,0,0,1,7.92-8.11,32.55,32.55,0,0,1,3.69-2.51c2.88-1.66,5-1.64,6.06-.08s0,5.86-1.59,7.24a1.7,1.7,0,0,1-.81.41c-6.16.79-9.77,5-12.91,9.73a15.34,15.34,0,0,0-2.29,5.46c-.16.82-.59,1.86.11,2.48s1.65,0,2.42-.34a36.69,36.69,0,0,0,7.49-4.49c4.63-3.46,9-7.14,12.56-11.83a26.52,26.52,0,0,1,9.5-7.94,3.94,3.94,0,0,1,5.71,2.07c.37.89.39,1.57-.83,1.69,2.43,2.14,2.63,3.21.8,5.8-2.74,3.88-6.78,5.56-11.3,6a3.24,3.24,0,0,0-3.27,2.56,24.32,24.32,0,0,0-1.17,5.06c-.15,1.68.39,2.06,1.93,1.4a12,12,0,0,0,2.43-1.35,91.66,91.66,0,0,0,18.93-18.33c.29-.39.53-.81.94-1.44a2.65,2.65,0,0,1-2.51-1.08c-1.48-2-1.26-2.81,1.08-3.47A100.52,100.52,0,0,0,192.41,134a2.9,2.9,0,0,1,3.92.89c.34.44.7.87,1,1.32,1.82,2.42,2.16,4.69.2,7.41-3.51,4.88-6.73,10-10,15a13.7,13.7,0,0,0-2.3,4.63c0,.15-.14.39-.1.42.2.14.24-.07.31-.2Zm-85.4-17.91c-.37,0-.53-.09-.6,0A37.59,37.59,0,0,0,88.11,160c-.24.55-.69,1.36.09,1.85a1.56,1.56,0,0,0,1.88-.4c2.79-2.54,6.47-4.28,6.77-8.9C97,150,98.78,147.91,100.05,145.56Zm61.8,6.62c4.2-.37,7-3.28,6.55-6.6A31.83,31.83,0,0,0,161.86,152.17Z"/><path id="path174" class="cls-1" d="M52.21,157.37l-4.68,5c-1.26,1.35-2.3,1.37-3.57,0-1.59-1.73-1.61-3.85-1.25-6a26,26,0,0,1,3.72-9.07,55.83,55.83,0,0,1,6.73-8.89c1.06-1.15,2-1,3-.06,2,1.87,2.12,3.13.35,5.18-2.76,3.19-5.66,6.28-7.85,9.92-1.19,2-2.31,4-2.23,6.5,3.5-4.44,7.5-8.42,10.7-13.07a60.54,60.54,0,0,1,32.62-24.33c2.45-.77,5-.34,7.52-1,1.05-.27,1.66.55,1.86,1.43.3,1.32,1.18,2.8-.35,3.92-1.2.88-2.54,1.56-3.74,2.43-1.72,1.26-3.75,2.28-4.08,4.78-.1.75-.7.58-1.14.3A3.42,3.42,0,0,1,88,131.6c0-.67,0-1.35,0-2.1a20.23,20.23,0,0,0-7.33,3.27,57.12,57.12,0,0,0-17.79,17.75c-2.21,3.56-3.9,7.34-4,11.65,0,2.38,1,3.3,3.32,3a16.88,16.88,0,0,0,5.12-1.61A53.3,53.3,0,0,0,80,155.36c.5-.44.9-1.05,1.73-.91.62.11,1.26.14,1.62.75s-.07,1.22-.49,1.63c-6.3,6.06-13.29,11-21.94,13.09-5.43,1.29-8.7-1.38-8.86-6.94a47.85,47.85,0,0,1,.42-5.37l.06-.42Z"/><path id="path190" class="cls-1" d="M56.74,133.94a16.62,16.62,0,0,1,4-6.47.88.88,0,0,1,.66-.26c1.59.35,2.37,1.65,3.25,2.84a1.78,1.78,0,0,1-.22,2.36,22.6,22.6,0,0,1-3.65,3.94,2,2,0,0,1-2.57,0,2.3,2.3,0,0,1-1.47-2.42Z"/><path id="path198" class="cls-2" d="M129.82,161.53l.21-.25c0,.06,0,.12,0,.17s-.15.18-.26,0Z"/><path id="path200" class="cls-2" d="M192.33,161.39l.4-.13-.05.45Z"/><path id="path202" class="cls-2" d="M185.45,163.47c-.07.13-.11.35-.31.2,0,0,.06-.27.1-.42Z"/><path id="path204" class="cls-2" d="M52.21,157.37l.31-.19-.06.42Z"/></g><path id="path82" class="cls-3" d="M140.85,110.47v10.39h2.51V110.47h3.58v-2.33h-9.68v2.33Z"/><path id="path84" class="cls-3" d="M149.63,108.14h2.51v12.55h-2.51Z"/><path id="path86" class="cls-3" d="M164.15,108.14v8.24l-6.27-8.24h-2.33v12.72h2.51v-8.24l6.09,8.24h2.33V108.14Z"/><path id="path88" class="cls-3" d="M176.51,116.57h2.33q-.54,2.15-3.23,2.15a4,4,0,0,1-4.12-4.3,4.05,4.05,0,0,1,3.94-4.3c1.43,0,2.69.72,2.87,1.79l.18.36H181v-.54c-.36-2.33-2.69-3.94-5.38-3.94a6.45,6.45,0,0,0-6.45,6.63,6.31,6.31,0,0,0,6.45,6.45,5.83,5.83,0,0,0,5.91-4.48h1.25v-2.15h-6.27Z"/><path id="path90" class="cls-3" d="M212.72,113.16l-3-5h-2.87l4.66,7.53-2.51,5.2h2.69l6.27-12.72h-2.69Z"/><path id="path92" class="cls-3" d="M184.94,108.32v12.55h2.51v-4.3h2l2,4.12h2.69L191.93,116a4.13,4.13,0,0,0,2-3.58,4.06,4.06,0,0,0-4.12-4.12Zm2.51,2.15h2.33a2,2,0,0,1,2,2,2.12,2.12,0,0,1-2,2h-2.33Z"/><path id="path94" class="cls-3" d="M200.35,108.14,196,120.69h2.69l.9-2.87h3.76l.9,2.87H207l-4.48-12.37Zm.9,3.94L202.5,116H200Z"/><path id="path96" class="cls-3" d="M132.61,113.52l-2.33-.54c-.9-.18-1.25-.54-1.25-1.25,0-.9.72-1.43,2-1.43a2.49,2.49,0,0,1,2.33,1.43h2.51c-.36-2.15-2-3.58-4.84-3.58-2.69,0-4.48,1.61-4.48,3.76,0,2,1.43,3,3.23,3.41l2.15.54c1.08.18,1.43.72,1.43,1.43,0,1.08-.9,1.61-2.15,1.61a2.39,2.39,0,0,1-2.51-1.61H126c.36,2.33,2.33,3.76,5.2,3.76,2.69,0,4.66-1.43,4.66-3.94,0-2-1.25-3-3.23-3.58"/></g></g></g></g></svg>