<svg xmlns="http://www.w3.org/2000/svg" viewBox="0 0 283.46 283.46"><defs><style>.cls-1{fill:#b39651;}.cls-2{fill:#424143;}.cls-3{fill:#fff;}</style></defs><g id="Layer_2" data-name="Layer 2"><g id="Other_music" data-name="Other music"><g id="stingraybrava"><rect class="cls-1" width="283.46" height="283.46"/><g id="logo"><path class="cls-2" d="M159.88,115.36h3.69v10.35H166V115.36h3.66V113h-9.81Z"/><path class="cls-2" d="M172.25,125.71h2.53V113h-2.53Z"/><path class="cls-2" d="M186.83,121.31,180.64,113h-2.41V125.7h2.47v-8.25l6.2,8.25h2.39V113h-2.46Z"/><path class="cls-2" d="M199.39,121.43h2.36a3.11,3.11,0,0,1-3.27,2.23,4,4,0,0,1-4.12-4.25,4.08,4.08,0,0,1,4-4.32,2.84,2.84,0,0,1,2.92,1.8l.1.36h2.45l-.08-.54c-.35-2.29-2.63-3.94-5.42-3.94a6.41,6.41,0,0,0-6.43,6.65,6.34,6.34,0,0,0,6.56,6.55,5.7,5.7,0,0,0,5.92-4.54h1.33v-2.31h-6.29Z"/><path class="cls-2" d="M238.21,113l-2.51,5-3.13-5h-2.89l4.73,7.56-2.57,5.1h2.73L240.94,113Z"/><path class="cls-2" d="M212.65,119.18h-2.43v-3.81h2.41a1.91,1.91,0,0,1,0,3.81m2.13,1.73a4.23,4.23,0,0,0-2.13-7.86h-4.89v12.64h2.46v-4.18h2.06l1.91,4.2H217Z"/><path class="cls-2" d="M222.91,120.81l1.33-4,1.34,4Zm2.46-7.66,0-.1h-2.19l-4.38,12.66h2.69l.93-2.82h3.71l.94,2.82h2.68Z"/><path class="cls-2" d="M155.21,118.42l-2.28-.53c-.94-.22-1.4-.65-1.4-1.37,0-.89.79-1.46,2-1.46a2.2,2.2,0,0,1,2.3,1.49h2.6c-.41-2.12-2.06-3.64-4.92-3.64-2.64,0-4.5,1.59-4.5,3.86,0,2.06,1.38,3,3.18,3.42l2.24.52c1.09.24,1.53.65,1.53,1.4,0,1-.84,1.58-2.1,1.58a2.34,2.34,0,0,1-2.48-1.61h-2.7c.42,2.38,2.41,3.76,5.2,3.76s4.64-1.46,4.64-3.89c0-1.89-1.24-3.06-3.28-3.53"/><path class="cls-2" d="M159.49,115.3h3.69v10.35h2.46V115.3h3.67V113h-9.82Z"/><path class="cls-2" d="M171.87,125.63h2.52V113h-2.52Z"/><path class="cls-2" d="M186.44,121.25,180.25,113h-2.4v12.66h2.47v-8.25l6.19,8.25h2.39V113h-2.46Z"/><path class="cls-2" d="M199,121.37h2.36a3.11,3.11,0,0,1-3.27,2.23,4,4,0,0,1-4.11-4.26,4.07,4.07,0,0,1,4-4.31,2.87,2.87,0,0,1,2.93,1.8l.09.36h2.45l-.08-.55c-.35-2.28-2.62-3.93-5.42-3.93a6.41,6.41,0,0,0-6.43,6.65,6.34,6.34,0,0,0,6.56,6.55,5.71,5.71,0,0,0,5.92-4.54h1.34v-2.31H199Z"/><path class="cls-2" d="M237.82,113l-2.51,5-3.13-5H229.3l4.72,7.57-2.57,5.1h2.74L240.56,113Z"/><path class="cls-2" d="M212.26,119.11h-2.42v-3.82h2.41a1.91,1.91,0,0,1,0,3.82m2.13,1.72a4.22,4.22,0,0,0-2.13-7.85h-4.89v12.64h2.47v-4.18h2l1.92,4.2h2.78Z"/><path class="cls-2" d="M222.52,120.73l1.33-4,1.34,4Zm2.47-7.65,0-.11h-2.19l-4.38,12.66h2.69l.94-2.82h3.7l.94,2.82h2.68Z"/><path class="cls-2" d="M154.83,118.36l-2.29-.53c-.93-.22-1.4-.65-1.4-1.37,0-.89.79-1.46,2-1.46a2.2,2.2,0,0,1,2.3,1.49H158c-.41-2.13-2.06-3.64-4.92-3.64-2.63,0-4.5,1.59-4.5,3.86,0,2.06,1.38,3,3.18,3.42l2.24.51c1.08.25,1.53.66,1.53,1.41,0,1-.83,1.57-2.1,1.57A2.34,2.34,0,0,1,151,122h-2.7c.42,2.39,2.41,3.77,5.2,3.77s4.65-1.47,4.65-3.89c0-1.89-1.25-3.06-3.28-3.53"/><path class="cls-3" d="M74.81,163.29A8.41,8.41,0,0,1,73,168.47a4.32,4.32,0,0,1-2.9,1H70a16.19,16.19,0,0,1-6.7-1.38,18.33,18.33,0,0,1-5.42-3.75,2.64,2.64,0,0,1-.84-2V143.18a2.65,2.65,0,0,1,.85-2A16.71,16.71,0,0,1,70,136.09h.17a3.9,3.9,0,0,1,2.88,1.1c1,1,1.63,2.75,1.81,5.15s.27,5.36.22,8.48v4c0,3.17,0,6-.22,8.52m8-23.57a19.48,19.48,0,0,0-5.87-3.9,17.82,17.82,0,0,0-7-1.43,18.85,18.85,0,0,0-7.36,1.47,17.42,17.42,0,0,0-5.6,3.82V111.3H55.56l-.17.22a17.63,17.63,0,0,1-5.33,4.73,16.89,16.89,0,0,1-7,2.19l-.51,0v1.65h1.06c.36,0,.53.1.53.62V169c0,.41-.11.53-.53.53H42.52v1.7H58.66v-1.7h-1c-.54,0-.63-.17-.63-.53v-3a18,18,0,0,0,13,5.27,17.62,17.62,0,0,0,7.28-1.52,18.88,18.88,0,0,0,9.82-10,18,18,0,0,0,1.43-7,16.83,16.83,0,0,0-1.56-7.16,19.25,19.25,0,0,0-4.12-5.79"/><path class="cls-3" d="M122,138.63l.35-.3-.24-.4a6.65,6.65,0,0,0-1.68-1.9,9.27,9.27,0,0,0-6.53-1.63,10.08,10.08,0,0,0-3.19.93,19,19,0,0,0-2.69,1.51c-.85.58-1.63,1.15-2.31,1.72-.44.36-.8.69-1.1,1V134.4h-1.42l-.17.22a17.51,17.51,0,0,1-5.34,4.72,16.75,16.75,0,0,1-7,2.2l-.51,0v1.65h1.06c.37,0,.54.1.54.62V169c0,.41-.11.53-.54.53H90.16v1.7h16.15v-1.7h-1.06c-.53,0-.62-.17-.62-.53V143.18a2.39,2.39,0,0,1,.28-1.1,5.35,5.35,0,0,1,.59-1,16.92,16.92,0,0,1,1.57-1.5,22.48,22.48,0,0,1,2.25-1.63,21.86,21.86,0,0,1,2.5-1.35l.41-.17a7.35,7.35,0,0,0-.83.93,6.14,6.14,0,0,0-1.24,3.77,6.44,6.44,0,0,0,5.54,6.38l.45.05.15-.43a16.27,16.27,0,0,1,.62-1.61,20.51,20.51,0,0,1,4.06-6c.33-.33.68-.65,1-1"/><path class="cls-3" d="M196.75,136.28h1.48v-1.69H192.5v1.69h1.82c-.18.46-.52,1.22-1,2.33s-1.44,3.16-2.64,5.79c-1.08,2.37-2.59,5.69-4.59,10.15l-5.31-11.29,0,0h2v-1.69H164.68v1.69h1.48a.79.79,0,0,1,.76.52l13,28.42,16-35.35a.8.8,0,0,1,.77-.54"/><path class="cls-3" d="M206.89,142.33c.18-2.4.79-4.13,1.81-5.15a3.89,3.89,0,0,1,2.88-1.09h.17a16.58,16.58,0,0,1,6.63,1.34,16.75,16.75,0,0,1,5.49,3.78,2.67,2.67,0,0,1,.76,2V162.4a2.36,2.36,0,0,1-.85,2,17,17,0,0,1-5.37,3.75,16.24,16.24,0,0,1-6.66,1.38h-.17a4.26,4.26,0,0,1-2.87-1,8.44,8.44,0,0,1-1.82-5.2c-.2-2.51-.27-5.37-.21-8.53v-3.95c-.06-3.09,0-5.95.21-8.48m32.29-.06v-.61l-.49,0a17.51,17.51,0,0,1-12.47-7l-.17-.22h-1.42v5.17a17.82,17.82,0,0,0-5.54-3.7,18.62,18.62,0,0,0-7.35-1.47,17.82,17.82,0,0,0-7.19,1.47,18.55,18.55,0,0,0-5.88,4,19.8,19.8,0,0,0-4,5.82,17,17,0,0,0-1.47,7,17.81,17.81,0,0,0,1.51,7.28,19.37,19.37,0,0,0,4.06,5.88,18.94,18.94,0,0,0,5.93,3.93,18.17,18.17,0,0,0,14.43-.13,20.37,20.37,0,0,0,5.47-3.63V169c0,.43-.11.55-.54.55H223v1.69h16.14V169.5h-1.06c-.53,0-.62-.17-.62-.55V143.84c0-.37.09-.54.62-.54h1.06v-.71l1.31-.16Z"/><path class="cls-3" d="M131,142.33c.19-2.4.8-4.13,1.82-5.15a3.88,3.88,0,0,1,2.88-1.1h.17a16.54,16.54,0,0,1,6.62,1.35,16.9,16.9,0,0,1,5.5,3.78,2.67,2.67,0,0,1,.76,2V162.4a2.36,2.36,0,0,1-.86,2,17,17,0,0,1-5.36,3.75,16.31,16.31,0,0,1-6.66,1.38h-.17a4.24,4.24,0,0,1-2.87-1,8.4,8.4,0,0,1-1.83-5.2c-.19-2.49-.26-5.35-.21-8.53v-3.95c-.05-3.11,0-6,.21-8.48m32.3-.67-.5,0a17.46,17.46,0,0,1-12.46-7l-.17-.22h-1.42v5.17a17.78,17.78,0,0,0-5.53-3.7,18.59,18.59,0,0,0-7.35-1.47,17.82,17.82,0,0,0-7.19,1.47,18.38,18.38,0,0,0-5.89,4,19.61,19.61,0,0,0-4,5.82,17,17,0,0,0-1.47,7,17.65,17.65,0,0,0,1.52,7.28,19,19,0,0,0,4.06,5.88,18.83,18.83,0,0,0,5.93,3.93,18.17,18.17,0,0,0,14.43-.13,20.69,20.69,0,0,0,5.47-3.63V169c0,.43-.11.55-.54.55h-1.06v1.69h16.15V169.5h-1.06c-.54,0-.62-.16-.62-.55V143.84c0-.37.08-.54.62-.54h1.06v-.71l1.32-.16-1.32-.16Z"/></g></g></g></g></svg>