<svg xmlns="http://www.w3.org/2000/svg" width="1000" height="294.5249" viewBox="0 0 1000 294.5249"><title>Stingray Cmusic</title><polygon points="516.279 15.439 538.275 15.439 538.275 77.183 552.989 77.183 552.989 15.439 574.819 15.439 574.819 1.601 516.279 1.601 516.279 15.439"/><polygon points="590.107 77.182 597.621 77.182 605.136 77.182 605.136 39.391 605.136 1.6 597.621 1.6 590.107 1.6 590.107 39.391 590.107 77.182"/><polygon points="677.055 50.965 640.098 1.601 625.778 1.601 625.778 77.183 640.498 77.183 640.498 27.942 677.457 77.183 691.769 77.183 691.769 1.601 677.055 1.601 677.055 50.965"/><path d="M752.02619,51.7001h14.0833c-2.43826,8.44406-9.492,13.2546-19.50654,13.2546-16.888,0-24.57532-13.14949-24.57532-25.34706,0-12.50389,8.29689-25.77947,23.67148-25.77947,8.68131,0,15.85808,4.43225,17.44959,10.76823l.5525,2.126h14.636l-.48349-3.24011C775.78473,9.87345,762.17576,0,745.498,0,720.56827,0,707.1215,20.45244,707.1215,39.70074c0,19.42242,13.44677,39.0731,39.16923,39.0731,18.13424,0,31.599-10.35085,35.29846-27.07374h7.98467V37.872H752.02619Z"/><polygon points="983.695 1.602 968.695 31.372 950.024 1.602 932.787 1.602 961.023 46.735 945.681 77.175 961.993 77.175 1000 1.602 983.695 1.602"/><path d="M843.8993,48.50682a25.22889,25.22889,0,0,0-12.69-46.89552H802.01854V77.079h14.696V52.08925h12.22457L840.41305,77.1931h16.57572Zm-12.711-10.27277H816.71454V15.43947h14.35061a11.39831,11.39831,0,0,1,.12317,22.79458"/><path d="M907.14332,2.25067l-.22223-.63964H893.87672l-26.12183,75.5818h16.00818l5.59736-16.867h22.107l5.59434,16.867h15.99912ZM892.45639,47.945l7.94554-24.02282L908.37148,47.945Z"/><path d="M488.42317,33.73554,474.80523,30.5736c-5.61235-1.33629-8.402-3.88873-8.402-8.15878,0-5.35708,4.74451-8.74729,11.79519-8.74729,7.7864,0,12.05347,3.88571,13.75009,8.87943h15.4677C504.97786,9.87492,495.1225.86939,478.0753.86939c-15.70491,0-26.8845,9.501-26.8845,23.01387,0,12.28165,8.26985,18.00208,18.972,20.44942l13.38972,3.03281c6.47417,1.46542,9.12265,3.88572,9.12265,8.402,0,5.96667-4.9847,9.36889-12.52189,9.36889-7.30291,0-12.78911-3.03887-14.82805-9.61513H449.23891c2.54342,14.24853,14.35964,22.50939,31.02851,22.50939,15.828,0,27.74935-8.75031,27.74935-23.2541,0-11.29969-7.423-18.24828-19.5936-21.041"/><path d="M187.90336,124.42228H233.838v17.48566a38.66486,38.66486,0,0,1,10.07458-11.558c7.11373-5.92768,18.6717-11.558,35.86-11.558,11.26074,0,25.48526,2.96386,37.63477,15.705a55.79589,55.79589,0,0,1,9.7803,13.63595,67.20679,67.20679,0,0,1,11.85228-14.22753c9.77728-8.89145,23.116-15.11338,40.30126-15.11338,11.561,0,29.93244,2.66956,43.27112,16.5968,15.40763,16.29946,17.77688,27.26288,17.77688,63.71454v89.79128H391.19647v-87.422c0-6.81649,0-15.70793-3.2611-23.11595-2.96079-7.70233-9.1857-13.33268-21.92683-13.33268-13.63294,0-20.44943,6.22189-23.70749,13.63-3.55842,7.411-3.55842,15.70789-3.55842,20.44943v89.79128h-49.1927v-89.497c0-4.44118,0-13.0414-2.96382-20.4464-3.25811-7.70534-9.18574-13.92723-21.63258-13.92723-13.92723,0-20.74368,6.51916-24.3021,14.51877-3.55535,8.00263-3.55535,16.891-3.55535,21.92986v87.422H187.90336Z"/><path d="M606.76021,288.89455H560.82856V271.412c-5.63338,7.9996-16.00219,23.11293-45.63736,23.11293-55.71195,0-61.3423-45.04577-61.3423-67.26687V124.42233h49.19275v89.79431c0,18.07714,3.84965,34.07635,26.07977,34.07635,24.59337,0,28.446-17.48258,28.446-34.37363v-89.497h49.19275Z"/><path d="M697.62295,170.65419c-.29738-3.55837-.88891-12.44679-15.4107-12.44679-10.37189,0-13.92724,6.51619-13.92724,10.96342,0,7.41105,12.14658,12.44679,25.18794,16.30249,27.86051,7.70228,57.4926,15.99916,57.4926,51.559,0,36.15735-30.52393,57.49261-66.97558,57.49261-24.89368,0-62.52538-11.2607-66.97261-54.52582h48.89538c2.075,15.11035,16.59679,15.11035,18.67179,15.11035,8.29688,0,17.18832-4.73846,17.18832-12.73807,0-11.26372-12.15253-12.74412-43.56235-24.89367-21.33832-6.81947-39.11819-20.74368-39.11819-42.9738,0-34.0764,29.63512-55.712,63.71147-55.712,21.63561,0,58.97305,8.59417,63.12305,51.86226Z"/><polygon points="760.753 124.423 785.349 124.423 809.945 124.423 809.945 206.659 809.945 288.895 785.349 288.895 760.753 288.895 760.753 206.659 760.753 124.423"/><path d="M176.65737,204.48344c.50148,38.37948-23.94177,76.01122-67.04771,86.87255-48.27685,12.16157-94.90215-16.43463-106.8475-63.84966C-9.036,180.66483,17.90255,133.541,65.60586,121.52363c42.24114-10.64209,83.46129,8.61821,101.35229,45.67341L118.68129,179.3586c-7.92152-9.61517-20.30229-18.72581-40.13014-13.72906A35.31867,35.31867,0,0,0,53.78664,183.7848c-4.72951,9.13768-5.85858,20.42541-2.96381,31.91732C56.68738,238.98023,76.26,252.388,98.96156,246.66753c19.83082-4.99373,26.41908-18.87592,29.13066-29.95045Z"/><path d="M996.23379,204.48344c.49843,38.37948-23.94484,76.01122-67.04771,86.87255-48.27685,12.16157-94.9052-16.43463-106.84751-63.84966-11.80128-46.8415,15.14036-93.96529,62.84364-105.9827,42.24118-10.64209,83.46131,8.61821,101.35233,45.67341L938.25466,179.3586c-7.9185-9.61517-20.29931-18.72581-40.13016-13.72906A35.32463,35.32463,0,0,0,873.36,183.7848c-4.7265,9.13768-5.8556,20.42541-2.96079,31.91732,5.86449,23.27811,25.4371,36.68584,48.13866,30.96541,19.82783-4.99373,26.41911-18.87592,29.12771-29.95045Z"/></svg>