<svg xmlns="http://www.w3.org/2000/svg" viewBox="0 0 283.46 283.46"><defs><style>.cls-1{fill:#18c6fe;}.cls-2{fill:#fefdfc;}.cls-3{fill:#fff;}</style></defs><g id="Layer_2" data-name="Layer 2"><g id="Other_music" data-name="Other music"><g id="stingrayiconcerts"><rect width="283.46" height="283.46"/><g id="logo"><g id="g210"><path id="path172" class="cls-1" d="M185.45,163.47c4.78-5,10-9.68,13.48-15.79a111.47,111.47,0,0,1,8.76-12.54,7.1,7.1,0,0,0-2.92-.79c-1.62-.32-1.8-1.23-1.33-2.56.63-1.76,2-2.66,3.78-2,3.15,1.18,5.39.48,7.45-2.22a29.47,29.47,0,0,1,6.35-5.73c1.15-.83,2.21-1,3.29.12,1.4,1.52,1.87,3.56.91,4.64-1.82,2-3.69,4-5.73,6.21,1.24.46,2.28.8,3.28,1.23.71.3,1.65.47,1.32,1.64-.26,1-1,1-1.78.89a10.15,10.15,0,0,1-2.22-.16c-2.65-.82-4.26.3-5.93,2.36-5.95,7.35-11.79,14.74-15.66,23.46a25.59,25.59,0,0,0-2.18,8.05c0,.53-.34,1.22.19,1.56s1-.27,1.41-.62c1-.85,2-1.71,2.87-2.65,6.31-6.44,12.22-13.23,18.22-20a29.83,29.83,0,0,1,18.16-9.76c3.36-.52,4.49,1,3.34,4.23-.66,1.83-1.6,2.95-3.84,3-4,.17-7.67,1.87-11.07,4a9.72,9.72,0,0,0-1,.78,1.94,1.94,0,0,0-.34.54c2.48-.45,4.84-1,7.22-1.3,2.19-.33,4.55-.45,5.93,1.63s0,4-1.15,5.64c-3.5,5.14-8.13,8.67-14.48,9.48a8.65,8.65,0,0,1-6.39-1.39,3,3,0,0,1-1.29-3.89c.65-1.59,3.16-3.66,4.36-3.41s1.12,1.5,1.52,2.35-.31,1-.88,1.26a5.89,5.89,0,0,0-2.37,1.69,4.37,4.37,0,0,0,3.74,0c4.95-1.8,8.13-5.52,10.62-10a1,1,0,0,0,.14-1.06c-.32-.53-.78-.15-1.16,0-2.16.57-4.31,1.18-6.46,1.77-1.62.44-3.22.83-4-1.43-3.37,3.78-6.59,7.47-9.88,11.1a87.83,87.83,0,0,1-10.84,10.46c-1.43,1.12-2.89,1.69-4.65.88a4.56,4.56,0,0,1-2.6-4.19,31,31,0,0,1,1-9.4c0-.15,0-.3,0-.45l-.4.13-5.78,5.79c-1.29,1.3-2.59,1.17-4,.16-2.81-2-3.35-4.21-1.76-7.36,2.77-5.48,6.2-10.59,9.14-16a8.07,8.07,0,0,0,1.15-2.59c-2.95.51-5.42,1.15-7.24,3.89-5.25,7.9-12.36,14-20,19.57a25.37,25.37,0,0,1-4,2.36c-2.63,1.26-4.71.53-6-2.07a11.75,11.75,0,0,1-1.28-6.79c-.79-.31-1.06.35-1.44.66a55.24,55.24,0,0,1-10.88,7.43,20.29,20.29,0,0,1-3.1,1.25c-4,1.2-7-.94-7.16-5.19,0-.36.14-.75-.22-1,.11.15.21.14.27,0a.51.51,0,0,0,0-.17l-.21.24c-1.94,2-3.82,4-5.84,5.94-1.11,1-2.2,2.62-4.14,1.55s-2.34-2.78-2.19-4.77A42.87,42.87,0,0,1,121.71,150c.82-1.84,1.68-3.65,2.54-5.52-.25,0-.33-.08-.35-.06-5.23,4.75-10.59,9.38-13.83,15.86-.57,1.15-1.57,1.16-2.42,0s-.62-2.38-1-3.73c-.8.56-1.52,1.09-2.28,1.58-1.54,1-3.1,1.88-5,.84-.82-.46-1.07.38-1.43.79a11.9,11.9,0,0,1-6.46,4.13c-4.51,1-7.78-1.91-7.2-6.43a18.3,18.3,0,0,1,3.53-8.3A32.17,32.17,0,0,1,97.71,140c1.73-1,3.53-1.62,5.35-.11.13.12.38.31.44.27,1.5-1.08,2.28-.05,2.93,1.07,1,1.71,1.61,3.51.68,5.47a41.13,41.13,0,0,1-3.94,6.09c-.94,1.3-1.86,2.63-2.81,4,.88.58,1.33-.07,1.78-.48,3.3-3,6.67-5.89,8.74-10a25.94,25.94,0,0,1,5.55-7.42,3.3,3.3,0,0,1,2.81-1.17c1.1.16,2.41.14,2.91,1.31s-.77,1.55-1.3,2.24c-.91,1.19-1.91,2.3-2.81,3.48-.39.51-.91,1-.64,1.83.75,0,1.07-.62,1.49-1,4.08-3.65,8.15-7.29,12.35-10.79,1.4-1.15,2.4-.89,3.53.22,2.26,2.23,2.46,3.77.65,6.32-2.91,4.1-5.95,8.11-8.78,12.27a25.22,25.22,0,0,0-4.48,10.13c-.06.36,0,.73-.08,1.2,1.09-.22,1.57-1.07,2.15-1.72,3.81-4.26,7.33-8.77,10.85-13.27a46.06,46.06,0,0,1,7.92-8.11,32.71,32.71,0,0,1,3.68-2.51c2.88-1.66,5-1.64,6.07-.08s0,5.86-1.6,7.24a1.59,1.59,0,0,1-.81.4c-6.15.8-9.76,5-12.9,9.74a15.23,15.23,0,0,0-2.29,5.46c-.16.82-.59,1.86.11,2.48s1.65,0,2.42-.34a36.84,36.84,0,0,0,7.48-4.49,60,60,0,0,0,12.57-11.83,26.55,26.55,0,0,1,9.49-7.94,3.94,3.94,0,0,1,5.71,2.07c.37.89.39,1.57-.83,1.69,2.43,2.14,2.63,3.21.8,5.81-2.74,3.88-6.78,5.55-11.3,6a3.26,3.26,0,0,0-3.28,2.56,24.75,24.75,0,0,0-1.17,5.06c-.15,1.69.39,2.07,1.93,1.4a12.26,12.26,0,0,0,2.43-1.35,91.64,91.64,0,0,0,18.93-18.33c.29-.39.53-.81.94-1.44a2.63,2.63,0,0,1-2.51-1.08c-1.48-2-1.26-2.81,1.08-3.46A101.44,101.44,0,0,0,192.41,134a2.9,2.9,0,0,1,3.91.89c.34.44.7.87,1,1.31,1.82,2.42,2.16,4.7.2,7.41-3.51,4.88-6.73,10-10,15a13.84,13.84,0,0,0-2.31,4.64c0,.14-.14.38-.1.41.21.15.25-.07.31-.2Zm-85.4-17.91c-.37,0-.53-.1-.6,0A37.62,37.62,0,0,0,88.11,160c-.23.55-.69,1.36.09,1.85a1.57,1.57,0,0,0,1.89-.4c2.79-2.53,6.47-4.27,6.77-8.9C97,150,98.78,147.91,100.05,145.56Zm61.81,6.61c4.19-.36,7-3.28,6.54-6.6A31.74,31.74,0,0,0,161.86,152.17Z"/><path id="path174" class="cls-1" d="M52.21,157.37l-4.68,5c-1.27,1.35-2.31,1.36-3.57,0-1.59-1.73-1.61-3.85-1.25-6a26.1,26.1,0,0,1,3.72-9.07,56.45,56.45,0,0,1,6.73-8.89c1.07-1.15,2-1,3-.06,2,1.87,2.13,3.13.35,5.18-2.76,3.2-5.66,6.28-7.85,9.92-1.2,2-2.32,4-2.23,6.5,3.5-4.44,7.51-8.42,10.7-13.07a60.55,60.55,0,0,1,32.62-24.33c2.46-.77,5-.34,7.52-1,1.06-.27,1.66.55,1.86,1.43.3,1.32,1.18,2.8-.35,3.92-1.2.88-2.54,1.56-3.74,2.43-1.73,1.27-3.76,2.28-4.08,4.79-.09.75-.69.57-1.14.29A3.41,3.41,0,0,1,88,131.6c0-.67,0-1.34,0-2.1a20.2,20.2,0,0,0-7.33,3.27,57.19,57.19,0,0,0-17.79,17.75c-2.21,3.56-3.9,7.34-4,11.65,0,2.38.95,3.3,3.32,3a16.52,16.52,0,0,0,5.12-1.61A53.39,53.39,0,0,0,80,155.36c.5-.44.89-1.05,1.72-.91.62.11,1.26.14,1.62.75s-.06,1.22-.49,1.63c-6.29,6.06-13.28,11-21.93,13.09-5.43,1.29-8.7-1.38-8.87-6.94a48.94,48.94,0,0,1,.43-5.38l.06-.42Z"/><path id="path190" class="cls-1" d="M56.74,133.94a16.68,16.68,0,0,1,4-6.47.9.9,0,0,1,.66-.26c1.59.36,2.36,1.66,3.24,2.85a1.78,1.78,0,0,1-.22,2.36,22.67,22.67,0,0,1-3.65,3.93,2,2,0,0,1-2.57,0,2.31,2.31,0,0,1-1.47-2.42Z"/><path id="path198" class="cls-2" d="M129.82,161.53l.21-.24c0,.05,0,.12,0,.17s-.15.18-.26,0Z"/><path id="path200" class="cls-2" d="M192.33,161.39l.4-.13c0,.15,0,.3,0,.45Z"/><path id="path202" class="cls-2" d="M185.45,163.47c-.06.13-.1.35-.31.2,0,0,.07-.27.1-.41Z"/><path id="path204" class="cls-2" d="M52.21,157.37l.31-.19-.06.42A2.73,2.73,0,0,1,52.21,157.37Z"/></g><path id="path82" class="cls-3" d="M140.85,110.47v10.4h2.51v-10.4H147v-2.33h-9.68v2.33Z"/><path id="path84" class="cls-3" d="M149.63,108.14h2.51v12.55h-2.51Z"/><path id="path86" class="cls-3" d="M164.15,108.14v8.25l-6.27-8.25h-2.33v12.73h2.51v-8.25l6.09,8.25h2.33V108.14Z"/><path id="path88" class="cls-3" d="M176.51,116.57h2.33c-.36,1.43-1.43,2.15-3.22,2.15a4,4,0,0,1-4.13-4.31,4.06,4.06,0,0,1,3.95-4.3c1.43,0,2.69.72,2.87,1.8l.17.35H181v-.53c-.35-2.33-2.68-4-5.37-4a6.46,6.46,0,0,0-6.46,6.64,6.31,6.31,0,0,0,6.46,6.45,5.84,5.84,0,0,0,5.91-4.48h1.26v-2.15h-6.28Z"/><path id="path90" class="cls-3" d="M212.72,113.16l-3.05-5h-2.86l4.66,7.53-2.51,5.2h2.69l6.27-12.73h-2.69Z"/><path id="path92" class="cls-3" d="M184.94,108.32v12.55h2.51v-4.3h2l2,4.12h2.69L191.93,116a4.15,4.15,0,0,0,2-3.59,4.05,4.05,0,0,0-4.12-4.12Zm2.51,2.15h2.33a2,2,0,0,1,2,2,2.13,2.13,0,0,1-2,2h-2.33Z"/><path id="path94" class="cls-3" d="M200.35,108.14l-4.3,12.55h2.69l.89-2.87h3.77l.89,2.87H207l-4.48-12.37Zm.89,3.94,1.26,4H200Z"/><path id="path96" class="cls-3" d="M132.61,113.52l-2.33-.54c-.9-.18-1.26-.54-1.26-1.25,0-.9.72-1.44,2-1.44a2.47,2.47,0,0,1,2.33,1.44h2.51c-.36-2.15-2-3.59-4.84-3.59-2.68,0-4.48,1.62-4.48,3.77,0,2,1.44,3,3.23,3.4l2.15.54c1.08.18,1.43.72,1.43,1.43,0,1.08-.89,1.62-2.15,1.62a2.4,2.4,0,0,1-2.51-1.62H126c.35,2.33,2.33,3.77,5.19,3.77,2.69,0,4.66-1.44,4.66-4,0-2-1.25-3-3.22-3.58"/></g></g></g></g></svg>