<?xml version="1.0" encoding="utf-8"?><svg xmlns="http://www.w3.org/2000/svg" width="1000" height="496.01494"><polygon points="541.696 14.627 562.535 14.627 562.535 73.127 576.476 73.127 576.476 14.627 597.161 14.627 597.161 1.516 541.696 1.516 541.696 14.627" fill="#494949"/><rect x="611.64368" y="1.51633" width="14.23928" height="71.61022" fill="#494949"/><polygon points="694.025 48.287 659.01 1.516 645.439 1.516 645.439 73.127 659.389 73.127 659.389 26.473 694.404 73.127 707.966 73.127 707.966 1.516 694.025 1.516 694.025 48.287" fill="#494949"/><path d="M765.05609,48.9823h13.34519c-2.31125,8.00012-8.99337,12.55922-18.483,12.55922-15.99907,0-23.28555-12.45966-23.28555-24.01668,0-11.84637,7.86439-24.42348,22.42841-24.42348,8.2249,0,15.02409,4.19859,16.53226,10.20247l.52307,2.01374h13.86866l-.46046-3.07039C787.56578,9.35389,774.67171,0,758.87137,0c-23.62,0-36.36046,19.3763-36.36046,37.61467,0,18.40171,12.74045,37.01888,37.10951,37.01888,17.18247,0,29.94043-9.805,33.44366-25.65125H800.631V35.88094H765.05609Z" fill="#494949"/><polygon points="984.551 1.516 970.34 29.723 952.652 1.516 936.318 1.516 963.072 44.278 948.535 73.117 963.993 73.117 1000 1.516 984.551 1.516" fill="#494949"/><path d="M852.10457,45.9578a23.90454,23.90454,0,0,0-12.026-44.43213H812.42288V73.0266h13.92194V49.35292h11.58425l10.871,23.78179H864.502Zm-12.04432-9.73307H826.34482V14.627h13.598a10.79982,10.79982,0,0,1,.11744,21.59771" fill="#494949"/><path d="M912.02126,2.13119l-.2069-.60552H899.4527l-24.74782,71.609h15.16837l5.29958-15.98118h20.94824l5.29958,15.98118h15.1602Zm-13.91377,43.2942,7.53071-22.76208,7.54824,22.76208Z" fill="#494949"/><path d="M515.304,31.96275l-12.90226-2.99766c-5.31825-1.26394-7.96318-3.6833-7.96318-7.72828,0-5.07518,4.49611-8.28907,11.17787-8.28907,7.37629,0,11.42127,3.68369,13.02824,8.41469h14.65461C530.98759,9.35389,521.65121.82136,505.49891.82136c-14.87981,0-25.4708,9.00232-25.4708,21.805,0,11.6383,7.83639,17.0565,17.97625,19.37708l12.686,2.87088c6.13105,1.39072,8.641,3.6833,8.641,7.96317,0,5.65309-4.72245,8.87593-11.86384,8.87593-6.91705,0-12.11746-2.87983-14.04991-9.11083H478.17694C480.58736,66.10141,491.78386,73.93,507.57565,73.93c14.99648,0,26.29216-8.28907,26.29216-22.03095,0-10.70844-7.03331-17.29139-18.56386-19.93632" fill="#494949"/><path d="M97.71165,150.65072l78.39643-14.67745V358.09715h20.85851v6.17395H118.17664V343.4197a85.984,85.984,0,0,1-16.02793,16.42145q-10.23289,8.289-24.90995,8.28857-19.31957,0-33.79275-7.33162a71.44963,71.44963,0,0,1-24.13869-19.508,84.33673,84.33673,0,0,1-14.48464-27.7966A107.771,107.771,0,0,1,0,281.63042a105.867,105.867,0,0,1,4.82268-31.67023A84.61517,84.61517,0,0,1,19.30732,222.3564a71.6289,71.6289,0,0,1,24.13869-19.508q14.48109-7.33951,33.79275-7.33162,16.22826,0,26.26043,5.77252,10.05983,5.81046,14.67745,14.68536V152.96605l-20.465,3.85783ZM66.427,300.93063q0,18.54318.95695,29.55562c.65588,7.33082,1.67447,12.93345,3.10244,16.79207,1.40416,3.85862,3.40261,6.45131,5.98029,7.73225a21.59679,21.59679,0,0,0,9.65406,1.9297,18.914,18.914,0,0,0,9.662-2.71675,43.66348,43.66348,0,0,0,8.882-6.9452,73.07564,73.07564,0,0,0,7.71645-9.07483,85.5233,85.5233,0,0,0,5.79544-9.07562V229.50232A76.26789,76.26789,0,0,0,104.85756,212.116a25.94082,25.94082,0,0,0-18.73678-7.73226,15.54741,15.54741,0,0,0-9.46836,2.70886q-3.6579,2.70846-5.98113,9.26764-2.30308,6.58684-3.2873,17.76482-.9601,11.21553-.95695,28.20514Z" fill="#e21e27"/><path d="M290.83622,426.93277q-7.119,21.62265-20.56613,36.91726a92.50631,92.50631,0,0,1-32.70463,23.73806q-19.26149,8.42644-43.53056,8.42685-21.612,0-36.37834-10.00175-14.77029-10.02428-14.77781-27.96571,0-13.19619,8.95946-21.36109c5.99615-5.46354,12.66319-8.17951,20.0565-8.17951q12.11983,0,20.29582,7.11509,8.18347,7.12973,8.18742,20.8356a22.49583,22.49583,0,0,1-2.63932,11.08118,26.62948,26.62948,0,0,1-6.59829,7.918,28.548,28.548,0,0,1-8.42685,4.73813,24.6137,24.6137,0,0,1-8.18737,1.5741,21.70251,21.70251,0,0,0,14.25306,4.769,37.38783,37.38783,0,0,0,10.287-1.58912,25.44261,25.44261,0,0,0,16.86872-14.50835q2.8827-6.0653,2.89377-15.03226V137.87137l-28.48245,4.22132V133.65l107.6122-16.88057V378.91773q0,26.39239-7.12221,48.015" fill="#e21e27"/><path d="M476.97608,133.90449q20.8356,3.959,34.29453,13.45894a54.23829,54.23829,0,0,1,19.516,24.79457q6.0652,15.29065,6.06563,37.44987V320.377q0,12.64027,2.90167,19.78619,2.88152,7.10719,13.45025,7.1151,8.95984,0,12.39373-5.80334a43.74506,43.74506,0,0,0,5.01555-13.7205c.3398-3.164,1.75185-4.73813,4.21337-4.73813,2.10671,0,3.17192,1.40421,3.17192,4.21342a49.26327,49.26327,0,0,1-1.84436,12.6553,27.44575,27.44575,0,0,1-7.918,12.65608q-6.07716,5.83416-17.14688,10.03178-11.06616,4.21382-30.0574,4.21342-26.91275,0-41.14649-8.1645-14.23809-8.19531-18.99124-19.24568a116.09473,116.09473,0,0,1-10.287,8.95155,95.22637,95.22637,0,0,1-13.97574,8.96736,81.10979,81.10979,0,0,1-18.19628,6.85274,94.82368,94.82368,0,0,1-23.47492,2.63853q-20.04854,0-35.07363-5.52518a72.23,72.23,0,0,1-25.057-15.04806A60.6414,60.6414,0,0,1,319.7976,323.8034a74.44486,74.44486,0,0,1-5.00833-27.16364A73.6459,73.6459,0,0,1,320.06,269.47613a67.80008,67.80008,0,0,1,16.08951-23.99962,82.94814,82.94814,0,0,1,26.89339-17.14687q16.09074-6.5987,37.7209-6.5904h56.96659V179.53545q0-18.97227-5.80333-29.5327-5.81046-10.55767-25.31928-10.54937-21.64635,0-29.5327,2.89376-7.918,2.91708-7.91005,7.123c0,2.10671,1.2193,3.88154,3.68872,5.27073q10.01243,6.34266,10.02467,19.52384a37.38182,37.38182,0,0,1-1.06521,7.90215,21.04672,21.04672,0,0,1-4.21343,8.71212,26.92171,26.92171,0,0,1-8.71206,6.86065q-5.5225,2.89336-14.49254,2.90167a31.92138,31.92138,0,0,1-19.79415-6.5904q-8.69316-6.59868-8.6892-21.8929,0-21.1023,22.67205-31.64732,22.6764-10.54581,57.49136-10.55727,30.07272,0,50.90084,3.95108m-40.86913,97.326q-21.64516,0-30.86737,17.93471-9.22527,17.94223-9.22971,46.934,0,29.56431,5.54889,42.474,5.52123,12.91882,18.72888,12.91843c2.09881,0,5.27074-.86449,9.49206-2.63932a87.91343,87.91343,0,0,0,12.6632-6.59039,50.19581,50.19581,0,0,0,10.80382-8.96657c2.97832-3.33391,4.48367-6.59039,4.48367-9.75441V231.23052Z" fill="#e21e27"/><path d="M781.01607,146.83872,664.969,352.01645h50.11385q30.58131,0,46.15487-16.60716,15.55736-16.62177,19.77836-44.04816h5.27073v69.098H583.74754V348.85242L702.95936,142.1006H657.58364a61.41793,61.41793,0,0,0-39.02476,13.70469Q601.15,169.523,598.51824,196.94467H593.2317V133.65H781.01607Z" fill="#e21e27"/><path d="M991.21,146.83872,875.163,352.01645h50.121q30.57065,0,46.14776-16.60716,15.55736-16.62177,19.77829-44.04816h5.27863v69.098H793.94154V348.85242L913.15336,142.1006H867.78554A61.439,61.439,0,0,0,828.753,155.80529Q811.344,169.523,808.71224,196.94467H803.4257V133.65H991.21Z" fill="#e21e27"/><path d="M278.15722,87.2905a32.39977,32.39977,0,0,1-55.36166-22.96523,32.39189,32.39189,0,1,1,64.78339,0,31.28185,31.28185,0,0,1-9.42173,22.96523" fill="#e21e27"/></svg>