<?xml version="1.0" encoding="utf-8"?>
<!-- Generator: Adobe Illustrator 23.1.0, SVG Export Plug-In . SVG Version: 6.00 Build 0)  -->
<svg version="1.1" id="Layer_2" xmlns="http://www.w3.org/2000/svg" xmlns:xlink="http://www.w3.org/1999/xlink" x="0px" y="0px"
	 width="1000px" height="204.3933411px" viewBox="0 0 1000 204.3933411" enable-background="new 0 0 1000 204.3933411"
	 xml:space="preserve">
<path d="M833.982605,204.3933411h-31.2943115V78.6789322h31.2943115v7.175621
	c5.1702271-5.096344,13.303772-9.2470627,24.3134155-9.2470627c23.442749,0,41.800354,20.2544632,41.800354,46.1144562
	c0,25.8577499-18.357605,46.1133347-41.800354,46.1133347c-11.0096436,0-19.1431885-4.1518402-24.3134155-9.2481842V204.3933411z
	 M858.2960205,163.9493256c21.0456543,0,36.916626-17.7241974,36.916626-41.2273788
	c0-23.5054245-15.8709717-41.2307358-36.916626-41.2307358c-12.5025024,0-22.8205566,8.2645035-29.1971436,13.7726746V83.5648956
	h-21.5268555V199.509613h21.5268555v-49.4034729C837.5099487,156.2141571,845.5540161,163.9493256,858.2960205,163.9493256"/>
<path d="M449.8170776,169.0076294c-28.3074341,0-47.3230591-18.6038055-47.3230591-46.2879181
	c0-27.6863556,18.5299377-46.2879181,46.1122131-46.2879181c26.9511108,0,45.7720032,17.7577667,45.7720032,43.1813126
	c0,3.4982834-0.212616,5.436554-0.894165,9.8614426l-0.3155823,2.0747986h-59.1037598
	c0.7609863,9.0154114,5.9356689,13.5835571,15.4065552,13.5835571c7.1252747,0,11.3330688-2.500061,13.2355042-7.8672333
	l0.5774536-1.6271515h30.5232544l-0.5036011,2.8671112C490.0462341,157.0333252,472.9767151,169.0076294,449.8170776,169.0076294
	 M448.6062317,81.3177567c-25.0430603,0-41.2285156,16.2514648-41.2285156,41.4019547s16.6599426,41.3997192,42.4393616,41.3997192
	c19.4118042,0,33.9868469-9.1609039,38.0245361-23.5927124h-21.1911316
	c-2.8939819,6.3004913-8.6651306,9.4921417-17.1791992,9.4921417c-12.9613342,0-20.3943481-7.6210175-20.3943481-20.9136047
	v-2.441864h59.8927307c0.4263611-3.0170746,0.5248413-4.5077057,0.5248413-7.0502853
	C489.4945068,96.7075195,473.0617676,81.3177567,448.6062317,81.3177567 M468.4846802,116.3587875h-39.4077454v-2.441864
	c0-11.273735,7.920929-18.8410416,19.7061157-18.8410416c11.7829285,0,19.7016296,7.5673065,19.7016296,18.8410416V116.3587875z
	 M434.124054,111.4728241h29.3045654c-1.0206299-7.0704269-6.5411072-11.5109863-14.6455688-11.5109863
	C440.5386963,99.9618378,435.1122131,104.3083954,434.124054,111.4728241"/>
<path d="M543.2064819,169.0053864c-26.2337646,0-41.2788391-11.8377686-41.2788391-32.4760742v-2.4440918h30.7772522v2.4440918
	c0,6.6004028,3.5475464,9.8122101,10.8462524,9.8122101c8.43573,0,8.43573-4.0085907,8.43573-5.324646
	c0-3.5676727-3.2923584-4.7449493-14.7093506-8.2700958c-1.7905273-0.5528259-3.7422485-1.1571503-5.8618164-1.8308411
	c-12.8449097-4.0264893-27.4177551-8.5879135-27.4177551-26.4934006c0-17.7868576,13.9148254-27.9907455,38.1722717-27.9907455
	c24.6603394,0,39.3831177,11.4292984,39.3831177,30.5803299v2.441864h-30.949646v-2.441864
	c0-5.6760406-2.7014771-8.4312439-8.2589111-8.4312439c-1.2623291,0-7.569519,0.2305298-7.569519,4.8053818
	c0,3.2185135,3.3594971,4.4405594,13.06427,7.5023956c1.9740601,0.6222229,4.140625,1.3026276,6.4974365,2.0927048
	c13.9327393,4.0958786,28.4249878,8.3573837,28.4249878,26.9992294
	C582.7619629,158.4277191,568.3435669,169.0053864,543.2064819,169.0053864 M506.8964233,138.9711761
	c1.1481628,16.244751,13.9393921,25.1482544,36.3100586,25.1482544c12.947937,0,34.6717529-3.1356964,34.6717529-24.1388397
	c0-13.9774628-9.4473877-17.7667084-25.0028076-22.339325c-2.414978-0.8035049-4.5546875-1.4794388-6.5041504-2.0927048
	c-10.27771-3.2408905-16.4797363-5.1970673-16.4797363-12.1623001c0-5.7968979,5.0045776-9.6935806,12.4532471-9.6935806
	c7.3927002,0,12.1085815,4.0175476,12.9926758,10.8753433h21.2336426
	c-1.2086182-14.8190231-13.5947266-23.250267-34.4008789-23.250267c-12.4309082,0-33.2885437,3.0002823-33.2885437,23.1047821
	c0,13.3194427,9.5055847,17.2922211,24.0090027,21.8357391c2.112854,0.6736984,4.0511475,1.2712936,5.8305054,1.8218918
	c12.0839233,3.7310486,18.1494141,5.6066437,18.1494141,12.9367065c0,3.0663147-1.2981567,10.2106018-13.319458,10.2106018
	c-9.0914917,0-14.6556396-4.4293671-15.5889282-12.2563019H506.8964233z"/>
<path d="M638.671814,169.0076294c-32.9281616,0-47.666626-23.2480469-47.666626-46.2901611
	c0-23.0376434,14.7384644-46.285675,47.666626-46.285675c20.7188721,0,42.6329346,11.4707031,44.895752,37.0956879
	l0.2327881,2.6589661h-31.2406006l-0.2618408-2.1486588c-0.8057861-6.629509-5.5238647-10.2777481-13.2836304-10.2777481
	c-15.0876465,0-16.7147827,13.2590103-16.7147827,18.957428c0,5.7028961,1.6786499,18.9641418,17.2362671,18.9641418
	c7.2472534,0,10.8999634-2.6209106,13.0307007-9.3444214l0.5461426-1.7032623h30.9742432l-0.355896,2.7574463
	C680.9220581,155.0256805,663.2359009,169.0076294,638.671814,169.0076294 M638.671814,81.3177567
	c-29.5529785,0-42.7828979,20.7949753-42.7828979,41.3997116c0,20.6114502,13.2299194,41.4019623,42.7828979,41.4019623
	c21.2157593,0,36.1959229-10.8798218,39.7591553-28.5995331h-21.8066406
	c-2.9365234,7.5247803-8.4111328,11.0476837-17.088562,11.0476837c-13.6439819,0-22.1199951-9.1385193-22.1199951-23.8501129
	c0-14.7093506,8.2745972-23.8456268,21.5985107-23.8456268c9.4115601,0,15.8978271,4.6017075,17.7510376,12.4286423h21.600708
	C676.0025024,96.9089508,664.4915161,81.3177567,638.671814,81.3177567"/>
<path d="M733.4455566,168.8330383c-23.4405518,0-41.7981567-20.2555695-41.7981567-46.1110916
	c0-25.859993,18.357605-46.1166916,41.7981567-46.1166916c9.5704956,0,18.2546387,3.4154739,24.1387939,9.228035v-7.1554794
	h31.2943115v88.0871429h-31.2943115v-6.9853668C751.7516479,165.4824829,743.0719604,168.8330383,733.4455566,168.8330383
	 M733.4455566,81.4923325c-21.0456543,0-36.9144287,17.7219543-36.9144287,41.2296143
	c0,23.5031815,15.8687744,41.2273788,36.9144287,41.2273788c10.3873901,0,19.1677856-4.4226532,29.022522-14.0826721v12.0123444
	h21.5268555V83.5637741h-21.5268555v12.0179367C754.6098022,86.9993896,745.2698975,81.7721024,733.4455566,81.4923325
	 M740.1779785,146.3952332c-12.7106323,0-22.2945557-10.1770325-22.2945557-23.6732864
	c0-13.498497,9.5839233-23.6755219,22.2945557-23.6755219c12.7084351,0,22.2901001,10.1770248,22.2901001,23.6755219
	C762.4680786,136.2182007,752.8864136,146.3952332,740.1779785,146.3952332 M740.1779785,103.9323807
	c-9.9263306,0-17.4108276,8.0731354-17.4108276,18.789566c0,10.886528,7.321106,18.7873306,17.4108276,18.7873306
	c10.0852661,0,17.4063721-7.9008026,17.4063721-18.7873306
	C757.5843506,112.0055161,750.1021118,103.9323807,740.1779785,103.9323807"/>
<path d="M851.171875,146.3952332c-12.7106934,0-22.2923584-10.1792603-22.2923584-23.6755219
	s9.581665-23.6755295,22.2923584-23.6755295c12.708374,0,22.2945557,10.1792679,22.2945557,23.6755295
	S863.880249,146.3952332,851.171875,146.3952332 M851.171875,103.9301453c-10.0852661,0-17.4086304,7.9030304-17.4086304,18.789566
	s7.3233643,18.787323,17.4086304,18.787323c10.0874634,0,17.4108276-7.9007874,17.4108276-18.787323
	S861.2593384,103.9301453,851.171875,103.9301453"/>
<path d="M955.4399414,169.0076294c-28.3040771,0-47.3219604-18.6038055-47.3219604-46.2879181
	c0-27.6863556,18.5299683-46.2879181,46.1133423-46.2879181C981.1790771,76.4317932,1000,94.1895599,1000,119.6131058
	c0,3.5184326-0.2103882,5.4544601-0.8908081,9.8636856l-0.3178101,2.0725555h-59.1060181
	c0.7632446,9.0154114,5.9356689,13.5835571,15.4099121,13.5835571c7.1241455,0,11.3297119-2.500061,13.234375-7.8672333
	l0.5752563-1.6271515h30.5266113l-0.5036011,2.8671112C995.6713257,157.0333252,978.600708,169.0076294,955.4399414,169.0076294
	 M954.2313232,81.3177567c-25.0452881,0-41.2296143,16.2514648-41.2296143,41.4019547s16.6566162,41.3997192,42.4382324,41.3997192
	c19.4140625,0,33.9846191-9.1609039,38.0245361-23.5927124h-21.1911011
	c-2.8939819,6.3004913-8.6640625,9.4921417-17.1781006,9.4921417c-12.963562,0-20.3943481-7.6210175-20.3943481-20.9136047
	v-2.441864h59.8894043c0.4274902-3.0014038,0.5259399-4.494278,0.5259399-7.0502853
	C995.116272,96.7075195,978.6835327,81.3177567,954.2313232,81.3177567 M974.1064453,116.3587875h-39.4055176v-2.441864
	c0-11.273735,7.9187012-18.8410416,19.7027588-18.8410416s19.7027588,7.5673065,19.7027588,18.8410416V116.3587875z
	 M939.7480469,111.4728241h29.3045654c-1.0206299-7.0704269-6.5444336-11.5109863-14.6489258-11.5109863
	C946.1604614,99.9618378,940.7351074,104.3083954,939.7480469,111.4728241"/>
<path d="M0,81.1096039h26.4139462v12.0839615c4.6621399-8.9762421,14.3288631-14.1542816,27.4479885-14.1542816
	c11.3957176,0,18.6474419,3.9705353,23.1372414,9.4932632c5.1769257,6.3866577,6.5589981,14.5000839,6.5589981,26.4161835
	v49.3721313h-26.411705v-42.6396713c0-11.7392807-3.6258583-20.1996231-14.5034409-20.1996231
	s-16.2290821,8.285759-16.2290821,21.0613251v41.7779694H0V81.1096039z"/>
<path d="M185.7447662,81.1107254v83.2101364h-26.4139404v-11.7392883
	c-4.1462402,7.596405-13.8107147,13.8118439-26.5862885,13.8118439c-22.0964813,0-39.3607254-18.8186646-39.3607254-43.6781845
	s17.2642441-43.6770706,39.3607254-43.6770706c12.257431,0,22.0987244,5.8696442,26.5862885,13.9830627V81.1107254H185.7447662z
	 M159.3308258,122.7152328c0-11.3923645-7.9410858-21.2336655-19.8549347-21.2336655
	c-11.9105072,0-19.8527145,9.841301-19.8527145,21.2336655c0,11.5691757,7.9422073,21.2359085,19.8527145,21.2359085
	C151.38974,143.9511414,159.3308258,134.2844086,159.3308258,122.7152328"/>
<path d="M258.0706177,164.3208618c-3.9694214,0.6916046-9.6700745,1.3809662-17.7801514,1.3809662
	c-12.2574158,0-29.3482056-1.553299-29.3482056-29.3470917v-35.5625305h-13.1235962V81.1084824h13.1235962V56.4224167h26.2393646
	v24.6860657h18.9887848v19.6837234h-18.9887848v29.6917725c0,12.4308777,4.8322449,14.1565247,12.0839691,14.1565247
	c2.2460175,0,6.3866577-0.172348,8.8050232-0.5192719V164.3208618z"/>
<path d="M352.4974365,81.1096039v83.2112579h-26.4117126v-11.9138641
	c-4.6621399,8.8072662-14.3288574,13.9864197-27.4502258,13.9864197c-11.3957214,0-18.6452026-3.9705353-23.1350098-9.4943848
	c-5.1769104-6.3877716-6.3866577-14.5011902-6.3866577-26.4150543V81.1096039h26.2393494v42.6396713
	c0,11.9160995,3.625885,20.2018661,14.6780396,20.2018661c10.8742065,0,16.0545044-8.2857666,16.0545044-21.0635681V81.1096039
	H352.4974365z"/>
<path d="M410.101593,104.7940826c-10.1322632,2.5112457-16.2749634,10.5463257-16.2749634,27.0708466v32.4559326h-26.4139404
	V81.1096039h26.4139404V94.576767c3.7982178-7.7698593,13.6372681-14.8492432,25.7245789-14.8492432
	c2.7619324,0,5.1769409,0.3480377,7.5953064,1.3820801v2.7731094
	C421.2220154,89.5654678,413.940094,93.8918762,410.101593,104.7940826"/>
<polygon fill="#494949" points="726.5765381,8.7266855 739.0007324,8.7266855 739.0007324,43.6132813 747.3200684,43.6132813 
	747.3200684,8.7266855 759.6546631,8.7266855 759.6546631,0.9064651 726.5765381,0.9064651 "/>
<rect x="768.2918701" y="0.9064651" fill="#494949" width="8.4894371" height="42.7068176"/>
<polygon fill="#494949" points="817.4267578,28.8009701 796.5422363,0.9064651 788.4511719,0.9064651 788.4511719,43.6132813 
	796.7683105,43.6132813 796.7683105,15.7870407 817.6550293,43.6132813 825.7438354,43.6132813 825.7438354,0.9064651 
	817.4267578,0.9064651 "/>
<path fill="#494949" d="M859.793335,29.2150345h7.9589844c-1.3787231,4.7695732-5.3626709,7.4878502-11.0252686,7.4878502
	c-9.5413818,0-13.8857422-7.4285374-13.8857422-14.3243866c0-7.0614758,4.6867676-14.5649929,13.3798828-14.5649929
	c4.9016113,0,8.9572144,2.5045295,9.8547363,6.0845065l0.3133545,1.2052631h8.2723389l-0.2730713-1.8308353
	C873.2179565,5.5786772,865.5253296,0,856.1047974,0c-14.0870972,0-21.6902466,11.5557518-21.6902466,22.4333324
	c0,10.9760609,7.6031494,22.0819378,22.1378784,22.0819378c10.2486572,0,17.8540039-5.8483772,19.944519-15.3002357h4.512146
	v-7.8135052H859.793335V29.2150345z"/>
<polygon fill="#494949" points="990.7070313,0.9087033 982.2288208,17.726429 971.6802368,0.9087033 961.9396362,0.9087033 
	977.8934326,26.4128265 969.2249756,43.6132813 978.4440308,43.6132813 999.9171753,0.9087033 "/>
<path fill="#494949" d="M911.7125244,27.4099388c4.3040161-2.5660801,6.9518433-7.2058392,6.9518433-12.2473516
	c0-7.8023143-6.338562-14.2012863-14.1274414-14.251646h-16.4909668v42.6430283h8.3014526V29.436615h6.911499l6.4795532,14.1800232
	h9.3668213L911.7125244,27.4099388z M904.5256958,21.6052036h-8.1782837V8.722209h8.1066895
	c3.5161743,0,6.3989868,2.895093,6.3989868,6.4403782C910.8530884,18.6877289,908.0128174,21.5727501,904.5256958,21.6052036"/>
<path fill="#494949" d="M947.4473877,1.2679321l-0.1231079-0.3569906h-7.3725586l-14.7630615,42.7045784h9.0512085
	l3.1580811-9.5279541h12.491333l3.1625366,9.5279541h9.0444946L947.4473877,1.2679321z M939.1459961,27.093235l4.496521-13.5768328
	l4.5009766,13.5768328H939.1459961z"/>
<path fill="#494949" d="M710.8353882,19.0671024l-7.6993408-1.788311c-3.1693115-0.756506-4.7449951-2.1978979-4.7449951-4.6106615
	c0-3.0260267,2.6813965-4.9486284,6.6653442-4.9486284c4.395813,0,6.8085327,2.1978979,7.7731934,5.0191307h8.737915
	c-1.3809814-7.1577168-6.949585-12.2473507-16.5827026-12.2473507c-8.8744507,0-15.1928101,5.3671689-15.1928101,13.0038576
	c0,6.9417315,4.6733398,10.1736727,10.7253418,11.5535135l7.5650635,1.7166882
	c3.652771,0.8292484,5.154541,2.1978989,5.154541,4.7460728c0,3.3718262-2.8223267,5.294426-7.0748901,5.294426
	c-4.1294556,0-7.2271118-1.7189255-8.3842163-5.4287167h-9.0892944c1.4414063,8.0485134,8.1156616,12.7196064,17.5339355,12.7196064
	c8.9437866,0,15.6829834-4.9486275,15.6829834-13.139267C721.9054565,24.5652046,717.7133179,20.6416645,710.8353882,19.0671024"/>
</svg>
