<?xml version="1.0" standalone="yes"?>
<svg xmlns="http://www.w3.org/2000/svg" width="1024" height="1024">
<path style="fill:#010101; stroke:none;" d="M0 0L0 1024L1024 1024L1024 0L0 0z"/>
<path style="fill:#5a5f16; stroke:none;" d="M201 468L201 469L237 469C226.893 464.143 211.788 467.149 201 468z"/>
<path style="fill:#9ba237; stroke:none;" d="M208 468L208 469L230 469L208 468z"/>
<path style="fill:#5a5f16; stroke:none;" d="M184 518L184 520C176.8 523.508 160.23 539.519 172 545L172 544C165.551 538.421 177.002 523.203 184.17 521.994C188.316 521.295 193.992 525.845 198 527L198 526L190 523L190 522L206 525L206 524C195.78 522.073 184.651 519.81 177.188 511.907C159.905 493.603 181.246 474.742 199 470C193.906 468.454 187.286 471.998 183.001 474.725C167.223 484.767 164.196 510.471 184 518z"/>
<path style="fill:#9ba237; stroke:none;" d="M197 470L197 471L206 470L197 470z"/>
<path style="fill:#d0d75b; stroke:none;" d="M234 531C223.126 532.374 212.594 532.426 202 529.135C197.129 527.622 189.01 521.513 184.001 522.736C177.864 524.234 170.376 535.467 168 541C189.864 555.419 220.789 559.522 246 552.511C261.259 548.267 273.598 531.883 266.08 516C258.572 500.138 238.622 500.612 224 498.246C218.201 497.308 209.234 498.535 206 493C215.16 492.277 223.873 491.377 233 493.361C237.855 494.417 242.153 497.59 246.96 498.471C253.386 499.65 268.338 482.354 260.887 477.88C242.845 467.046 211.504 464.992 192 472.615C178.524 477.882 167.718 489.695 173.108 505C177.967 518.797 197.916 523.512 211 523.989C218.011 524.245 230.559 524.178 234 531z"/>
<path style="fill:#9ba237; stroke:none;" d="M231 469L231 470L242 471L231 469z"/>
<path style="fill:#5a5f16; stroke:none;" d="M239 469L239 470L259 476C253.965 471.31 245.73 469.55 239 469M266 474L267 474C272.313 468.984 282.103 471 289 471L339 471C344.926 471 354.366 469.208 359.852 471.603C365.547 474.09 364.541 494.056 360 497C365.836 498.311 366.054 472.945 361.682 470.028C357.088 466.962 346.361 469 341 469L287 469C280.053 469 269.32 466.481 266 474M404 533C419.663 533.012 419.634 547.124 431.289 553.821C434.834 555.858 440.072 555 444 555C453.441 555 463.778 556.196 473 554L453 527C473.938 518.888 474.641 484.871 454 476L454 477C471.878 490.623 473.143 516.464 451 527L471 554C460.765 554 442.299 557.579 433.093 553.012C424.977 548.985 422.548 537.494 414.714 533.028C411.468 531.178 406.603 532 403 532C403 536.973 405.149 548.644 401.397 552.397C397.603 556.19 370.837 555.968 368.603 550.852C365.901 544.661 368 533.704 368 527L368 471C395.847 471 426.438 467.032 453 476C444.301 467.903 427.135 469 416 469L383 469C379.157 469 372.668 467.792 369.318 470.028C364.922 472.961 367 484.4 367 489L367 536C367 540.257 365.221 549.788 368.028 553.258C371.739 557.845 389.467 555.028 395 554.999C397.462 554.986 401.216 555.428 402.972 553.258C406.135 549.349 404 537.871 404 533M477.318 469.742C474.179 471.343 475.001 476.098 475 479L475 506L475 541C475 544.306 473.656 551.487 476.603 553.821C481.448 557.658 496.005 555 502 555C506.957 555 515.173 556.556 519.682 554.258C522.821 552.657 521.999 547.902 522 545L522 519L522 484C522 480.349 523.276 473.561 520.397 470.742C515.77 466.213 500.117 469 494 469C489.289 469 481.61 467.554 477.318 469.742M576 529C578.657 536.01 586.921 551.277 594.093 554.258C602.021 557.552 615.469 555.001 624 555L695 555C702.676 555 720.225 558.281 726.682 553.972C730.641 551.33 730.995 529.851 726.566 527.603C722.413 525.495 714.576 527 710 527L670 527L670 525L701 525C704.652 525 710.326 526.048 713.682 524.397C717.739 522.4 717.739 501.6 713.682 499.603C701.795 493.754 681.892 505.252 671 497C682.289 500.337 697.236 498.117 709 497.996C713.18 497.953 720.206 498.964 724.022 497.177C728.514 495.073 729.191 473.033 725.397 470.028C722.779 467.954 717.122 469 714 469L684 469L620 469C611.773 469 599.738 466.786 592 469.742C583.255 473.083 570.882 487.674 567 496C564.924 488.979 568.992 477.342 564.972 471.318C561.449 466.038 542.788 468.961 537 469.001C534.275 469.02 530.755 468.729 529.028 471.318C526.311 475.39 528 484.281 528 489L528 535C528 539.59 526.095 549.888 529.603 553.397C533.75 557.543 556.383 556.208 561.941 554.682C568.071 552.999 565.427 544.634 566.148 540C566.958 534.792 571.509 531.095 576 529z"/>
<path style="fill:#e2ee1b; stroke:none;" d="M202 470L202 471L205 471L202 470z"/>
<path style="fill:#9ba237; stroke:none;" d="M191 472L191 473L195 472L191 472M206 471L206 472L231 472L206 471M244 471L244 472L247 472L244 471M268 471L268 497L269 497L270 471L268 471z"/>
<path style="fill:#d0d75b; stroke:none;" d="M269 497L298 497L298 553L325.94 552.662L332 551L333 551L333 497C338.563 497 357.362 499.954 360.972 495.397C363.175 492.615 362 486.328 362 483C362 480.02 363.073 474.147 360.397 472.028C356.418 468.876 344.897 471 340 471L289 471C284.487 471 274.294 469.105 270.603 472.028C266.335 475.409 269 491.857 269 497z"/>
<path style="fill:#9ba237; stroke:none;" d="M361 471L362 472L361 471M368 471L368 528C368 534.381 365.763 545.911 368.603 551.682C369.928 554.374 373.484 553.982 376 553.999C381.214 554.035 398.545 556.724 401.972 552.397C405.136 548.402 403 536.941 403 532L402 532L402 553L369 553L369 500L370 471L368 471z"/>
<path style="fill:#d0d75b; stroke:none;" d="M401 550L400 553L404 532L404 531L401 531L401 530L415 530C416.084 535.885 427.284 550.217 433.09 552.256C438.358 554.106 444.647 552.342 450 552.104C454.886 551.887 461.385 554.201 465 550C457.215 551.854 439.652 553.725 433.004 548.682C424.921 542.551 421.391 529.368 410 529.015C393.709 528.512 404.879 539.83 398.972 548.682C396.275 552.725 377.152 552.531 373.318 549.972C369.159 547.197 371 537.312 371 533L371 489C371 484.989 369.42 476.629 373.318 474.028C377.912 470.962 388.639 473 394 473C412.873 473 437.654 469.104 453.999 480.789C472.981 494.36 465.141 517.989 446 526L469 553L470 553L450 527C469.454 517.797 474.205 490.755 455 478.108C438.135 467.002 412.174 471 393 471C387.111 471 376.656 468.977 371.318 471.603C366.091 474.175 369 494.744 369 500L369 537C369 541.139 367.665 547.995 371.318 550.953C375.148 554.054 382.367 551.737 387 552.17C392.427 552.677 396.148 552.798 401 550z"/>
<path style="fill:#9ba237; stroke:none;" d="M431 471L431 472L442 473L431 471M476 471L476 531C476 536.088 473.763 548.275 477.028 552.397C478.891 554.75 483.383 553.999 486 554L510 554C512.803 554 517.975 554.918 519.972 552.397C522.779 548.852 521 539.32 521 535L521 489C521 484.099 522.899 474.407 519 471L520 500L520 553L477 553L477 500L478 471L476 471z"/>
<path style="fill:#d0d75b; stroke:none;" d="M479 553L478 550C488.49 555.599 505.296 552.412 517 553L518 549L519 549L518 553C521.781 549.696 520 540.74 520 536L520 490C520 485.913 521.939 474.833 518.397 472.028C512.746 467.552 493.148 470.985 486 471C482.869 471.006 478.435 470.385 477.318 474.148C473.619 486.607 477 504.978 477 518C477 525.476 473.343 548.057 479 553z"/>
<path style="fill:#9ba237; stroke:none;" d="M530 471C524.914 488.207 529 512.031 529 530C529 535.889 526.977 546.344 529.603 551.682C530.928 554.374 534.484 553.982 537 553.999C542.999 554.041 558.6 556.771 563.397 552.972C566.816 550.264 564.373 542.767 565.318 539C566.504 534.268 571.267 530.88 574 527L575 527L583 539L584 539L575 526L574 526C564.774 535.227 564 540.383 564 553L530 553L530 471z"/>
<path style="fill:#d0d75b; stroke:none;" d="M530 553L561 552L561 551C554.865 551 538.129 553.922 533.603 549.397C530.463 546.256 532 538.062 532 534L532 491C532 486.759 530.337 477.87 533.603 474.603C536.188 472.019 541.694 473 545 473C549.18 473 556.032 471.743 559.682 474.179C565.179 477.847 562 497.891 562 504C574.98 497.947 580.472 481.453 592.518 474.279C600.075 469.777 620.067 472.074 629 472L628 475L624 473C620.974 486.257 600.085 491.468 596.967 504.13C595.959 508.222 602.145 513.951 604.28 517C610.152 525.386 616.141 533.702 622.141 541.996C624.769 545.628 628.939 548.656 630 553L633 553L633 552L607.66 517L600.546 503.514L631 471C620.155 471 600.744 467.25 591.004 472.179C581.151 477.165 572.571 490.892 565 499C563.396 492.262 567.157 477.887 562.972 472.603C559.621 468.372 543.073 470.966 538 471.001C535.484 471.018 531.928 470.626 530.603 473.318C527.87 478.873 530 489.865 530 496L530 553z"/>
<path style="fill:#9ba237; stroke:none;" d="M563 471C564.338 476.3 561.473 497.305 567 498L563 471M590.667 471.333L591.333 471.667L590.667 471.333M631.333 471.667L631.667 472.333L631.333 471.667z"/>
<path style="fill:#010101; stroke:none;" d="M633 471L602.306 504L609.255 517L633 550L634 550L634 496L633 471z"/>
<path style="fill:#9ba237; stroke:none;" d="M635 471L636 472L635 471z"/>
<path style="fill:#d0d75b; stroke:none;" d="M635 553L727 553C727 548.14 729.468 533.253 725.397 530.028C722.779 527.954 717.122 529 714 529L683 529C679.93 529 670.759 530.495 669.346 526.741C667.676 522.307 676.932 523.001 679 523C690.884 522.995 703.249 523.909 715 522L715 501L668 500C672.928 490.229 701.138 495 711 495C714.605 495 723.451 496.637 725.397 492.682C727.117 489.186 727.575 473.519 723.682 471.603C719.217 469.406 710.901 471 706 471L662 471C656.154 471 641.291 468.315 636.603 472.028C632.746 475.083 635 488.474 635 493L635 553z"/>
<path style="fill:#9ba237; stroke:none;" d="M725 471L726 472L725 471z"/>
<path style="fill:#5a5f16; stroke:none;" d="M739 471C736.586 487.835 741.539 489 757 489C757 497.122 753.487 515.877 758.028 522.682C760.664 526.632 777.336 526.632 779.972 522.682C784.513 515.877 781 497.122 781 489C790.305 489 799.893 491.828 800 480L801 480L809 499L810 499L800 477L799 477C798.99 490.091 790.777 488 780 488C780 496.406 783.292 513.556 778.972 520.852C776.083 525.732 761.917 525.732 759.028 520.852C754.708 513.556 758 496.407 758 488L740 488L740 472L796 472L818.775 473.028L825 485C828.289 473.011 816.42 471 808 471L739 471M841 480L842 480C845.353 472.217 848.974 471.946 857 472.001C859.543 472.018 864.397 471.594 864.759 475.148C865.128 478.767 861.547 483.804 860.08 487C855.994 495.901 851.158 504.726 848 514L849 514C855.3 501.642 866.274 484.988 867 471C856.752 471 843.979 467.617 841 480z"/>
<path style="fill:#9ba237; stroke:none;" d="M196 473L196 474L204 473L196 473z"/>
<path style="fill:#5a5f16; stroke:none;" d="M201 473L201 474L238 474C228.911 469.168 210.891 471.164 201 473z"/>
<path style="fill:#9ba237; stroke:none;" d="M234 472L234 473L237 473L234 472M247.667 472.333L248.333 472.667L247.667 472.333z"/>
<path style="fill:#e2ee1b; stroke:none;" d="M270 472L270 473L274 473L270 472M360 472L361 473L360 472z"/>
<path style="fill:#9ba237; stroke:none;" d="M362 472L361 497C365.102 493.416 364.041 476.865 362 472z"/>
<path style="fill:#e2ee1b; stroke:none;" d="M370.667 472.333L371.333 472.667L370.667 472.333M478.667 472.333L479.333 472.667L478.667 472.333M512 472L513 473L512 472M517 472L519 474L519 472L517 472M531 472L532 473L531 472M560 472L560 473L563 473L560 472z"/>
<path style="fill:#9ba237; stroke:none;" d="M589 472L590 473L589 472z"/>
<path style="fill:#e2ee1b; stroke:none;" d="M621 472L621 473L628 475L629 474L629 473L621 472M636 472L637 473L636 472z"/>
<path style="fill:#9ba237; stroke:none;" d="M740 474C758.683 469.552 780.871 473.545 800 473.29C806.676 473.201 816.986 470.456 821 477C822.016 469.725 808.52 472 804 472L757 472C752.26 472 743.304 470.219 740 474M843 478L844 478C847.7 470.665 857.935 473 865 473L860 486C861.439 484.406 862.36 482.947 863.294 480.982C869.717 467.465 845.204 469.031 843 478M188.667 473.333L189.333 473.667L188.667 473.333z"/>
<path style="fill:#010101; stroke:none;" d="M174 540C194.309 551.852 222.363 555.938 245 548.78C258.287 544.578 269.708 529.976 261.721 516.015C253.486 501.618 230.908 503.517 217 501.711C212.866 501.174 201.103 500.411 201.921 494.039C202.811 487.113 216.193 487.897 221 488.015C236.859 488.402 250.778 500.419 259 481C238.375 473.563 213.381 468.015 192 476.671C180.918 481.158 169.964 495.234 178.573 506.985C188.748 520.875 210.046 518.898 225 521.325C229.16 522 238.642 523.844 237.248 529.958C235.49 537.672 222.663 536.133 217 535.985C200.135 535.545 183.407 518.894 174 540z"/>
<path style="fill:#9ba237; stroke:none;" d="M238 473L238 474L243 474L238 473M251.667 473.333L252.333 473.667L251.667 473.333M300 495L300 533C300 537.463 298.666 544.609 300.742 548.682C302.867 552.849 327.33 552.882 329.397 548.682C336.378 534.494 324.259 512.678 330.603 498.148C334.328 489.618 352.216 498.867 358.397 493.972C361.51 491.507 360.137 482.549 359.981 479.005C359.613 470.677 350.134 473 344 473L292 473C287.619 473 275.001 470.849 272.028 474.603C270.376 476.689 271.001 480.531 271 483C270.999 485.91 270.089 490.949 272.028 493.397C275.638 497.954 294.437 495 300 495M371 474L371 475C391.12 470.21 417.502 473.382 438 475C432.363 472.003 425.21 473 419 473C404.243 473 385.146 469.818 371 474M445.667 473.333L446.333 473.667L445.667 473.333M517 551L517 550L480 550L480 474L517 474C509.363 470.795 497.268 472.996 489 473C486.124 473.001 481.158 472.159 479.603 475.318C477.952 478.674 479 484.348 479 488L479 518C479 524.974 475.653 543.873 480.028 549.397C482.025 551.918 487.197 551 490 551L517 551M564 533C558.784 536.685 563.089 543.011 559.972 547.682C556.485 552.907 538.72 550 533 550L533 474C538.971 474 554.979 471.185 559.397 475.603C564.241 480.448 561 499.378 561 506C572.085 500.83 584.997 484.941 592 475L562 504C562 497.458 565.132 479.884 560.972 474.742C557.886 470.927 533.781 471.22 532.318 476.148C527.878 491.104 532 513.354 532 529C532 534.396 530.191 543.779 532.603 548.682C534.571 552.681 558.103 552.828 560.821 549.397C563.755 545.692 562.029 537.651 564 533M588 473L589 474L588 473M592 473L592 474L624 474C617.901 482.493 594.481 496.251 596 507L597 507C598.364 494.19 619.551 485.684 625 474L592 473M630 473C622.337 480.663 614.72 488.376 607.004 495.985C602.339 500.585 596.574 504.327 603 510C597.024 496.013 626.974 485.483 630 473M724 549C704.406 553.665 680.137 550 660 550C655.121 550 642.108 552.299 639.028 547.682C635.962 543.088 638 532.361 638 527L638 474L698 474C703.786 474 715.744 471.733 720.682 475.028C725.14 478.003 723.031 488.67 722 493C724.718 489.412 726.435 475.242 720.852 473.434C715.117 471.576 706.994 473 701 473L660 473C655.422 473 639.943 470.564 637.603 475.318C635.514 479.564 637 487.347 637 492L637 533C637 536.938 635.171 547.254 638.603 549.972C641.385 552.175 647.672 551 651 551L684 551L713 551C716.707 551 721.418 551.955 724 549z"/>
<path style="fill:#d0d75b; stroke:none;" d="M757 487L757 486L741 486L741 474C759.227 474 783.808 469.734 801 476C801 472.319 816.299 474 820 474C814.321 471.617 806.385 473.047 800.286 473.139C787.542 473.331 774.751 473 762 473C756.604 473 747.221 471.191 742.318 473.603C739.065 475.204 738.88 483.815 741.603 485.972C744.861 488.553 753.031 487 757 487M844 477L845 477C849.597 472.306 857.834 474 864 474L863 478L864 478L865 473C858.578 473 847.536 470.588 844 477z"/>
<path style="fill:#9ba237; stroke:none;" d="M186.667 474.333L187.333 474.667L186.667 474.333M194 474L195 475L194 474z"/>
<path style="fill:#5a5f16; stroke:none;" d="M193 475L193 476L199 475L193 475M240 474L240 475L246 476L240 474z"/>
<path style="fill:#9ba237; stroke:none;" d="M244.667 474.333L245.333 474.667L244.667 474.333M253.667 474.333L254.333 474.667L253.667 474.333z"/>
<path style="fill:#5a5f16; stroke:none;" d="M272 474L272 475L328 475L359 476C355.204 471.656 342.527 474 337 474L272 474M399 550L399 539C399.019 529.721 407.022 523.702 415.961 529.603C423.25 534.416 426.187 544.96 434.015 548.972C441.417 552.767 455.764 550 464 550L445 526C452.417 523.077 458.445 519.355 462 512L461 512L444 525L462 549C454.637 549 441.66 551.503 435.09 547.972C427.57 543.932 424.588 533.779 417.711 528.894C415.368 527.23 412.78 527.052 410 527.005C394.83 526.744 398 536.552 398 549L372 548L372 496L373.758 476.603L391 475L439 476C425.746 469.63 402.547 474 388 474C384.214 474 374.657 472.284 372.028 475.603C369.456 478.85 371 487.071 371 491L371 532C371 535.938 369.171 546.254 372.603 548.972C377.446 552.808 392.925 550 399 550z"/>
<path style="fill:#9ba237; stroke:none;" d="M447.667 474.333L448.333 474.667L447.667 474.333z"/>
<path style="fill:#5a5f16; stroke:none;" d="M480 477L481 477C488.268 471.494 506.98 475 516 475L516 549L480 548L491 550L517 550L517 474L489 474C485.346 474 480.904 472.779 480 477M533 474L533 550L559.397 548.972L561.702 536.093L573 522C583.799 527.265 585.438 542.888 595.326 548.821C602.496 553.123 618.748 550 627 550L620 541L625 549C617.414 549 603.848 551.619 597.09 547.972C587.771 542.944 585.721 528.813 577.483 522.623C573.849 519.892 570.441 523.94 567.911 526.29C560.07 533.572 560 538.863 560 549L534 549L534 496C534 491.238 531.977 480.23 535.603 476.603C539.804 472.403 554.358 475 560 475L560 507C573.668 504.846 581.661 483.796 593.004 476.603C599.84 472.267 614.092 475 622 475L602 495L594.881 504L599.859 514L620 540C614.77 530.819 607.851 522.58 601.71 514C599.862 511.419 595.829 507.479 596.541 504C598.922 492.364 618.725 484.902 624 474L593.286 474.603L561 506C561 500.02 564.239 478.863 559.397 475.028C554.554 471.192 539.075 474 533 474z"/>
<path style="fill:#9ba237; stroke:none;" d="M587 474L588 475L587 474z"/>
<path style="fill:#5a5f16; stroke:none;" d="M630 474L631 475L630 474M638 474L638 530C638 534.234 635.954 546.082 639.603 548.972C643.439 552.01 654.295 550 659 550L703 550C708.149 550 716.998 551.702 721.682 549.397C725.164 547.683 725.155 536.359 722.972 533.603C720.435 530.401 711.632 532 708 532C697.645 532 674.289 536.28 666 530L665 530C667.959 534.564 675.096 533 680 533L723 533L723 549L664 549L641.333 547.972L639.001 532L639 490L641.318 476.028L663 475L721 475L721 492L680 492L665 494C677.79 490.955 692.882 493 706 493C709.929 493 718.15 494.544 721.397 491.972C725.18 488.976 724.22 475.047 718.941 474.148C693.549 469.822 663.796 474 638 474z"/>
<path style="fill:#e2ee1b; stroke:none;" d="M741 474L741 486C745.662 486 752.695 484.718 756.852 487.179C766.814 493.078 753.544 514.589 761.603 520.972C765.013 523.672 773.833 522 778 522C778 514.674 774.348 492.666 780.318 487.742C784.245 484.503 792.24 486 797 486L798 474L741 474M800 474L815.755 508L823.214 520.972L843 522L864 474C859.242 474 850.514 472.319 846.418 475.028C840.007 479.269 836.41 496.876 834 504L819.273 475.028L800 474z"/>
<path style="fill:#9ba237; stroke:none;" d="M184.667 475.333L185.333 475.667L184.667 475.333M189 476L189 477L193 476L189 476M246 475L246 476L252 477L246 475M256 475L256 476C260.639 478.217 264.805 479.471 262 485C268.061 479.772 261.346 476.544 256 475z"/>
<path style="fill:#5a5f16; stroke:none;" d="M267 475L264 478L266 484L267 475z"/>
<path style="fill:#010101; stroke:none;" d="M272 475C272 478.984 270.161 489.246 273.603 491.972C280.215 497.209 296.734 487.586 301.822 495.317C304.369 499.189 303 506.571 303 511L303 549L328 549L328 509C328 505.12 326.593 497.614 329.603 494.603C335.07 489.137 356.319 498.317 358.631 489.772C359.406 486.91 359.622 477.103 356.667 475.603C350.793 472.622 338.542 475 332 475L272 475M372 548L398 549C398 543.516 396.449 535.217 398.742 530.148C401.285 524.528 413.887 526.438 417.711 529.573C423.839 534.595 427.173 544.088 434.171 547.972C440.796 551.65 454.515 549 462 549L444 525C462.318 518.854 473.059 493.71 452.985 481.518C437.544 472.14 416.305 475 399 475C393.893 475 376.338 472.273 373.078 476.603C370.1 480.559 372 491.238 372 496C372 512.679 374.699 531.641 372 548z"/>
<path style="fill:#9ba237; stroke:none;" d="M439 475L439 476L445 477L439 475M450.667 475.333L451.333 475.667L450.667 475.333z"/>
<path style="fill:#010101; stroke:none;" d="M480 548L516 549L516 475L491 475L481.832 476.028L480.996 495L480 548z"/>
<path style="fill:#9ba237; stroke:none;" d="M517 475L517 546L518 546L518 497L517 475z"/>
<path style="fill:#010101; stroke:none;" d="M534 549L560 549C560 539.113 560.474 534.351 567.911 527.171C570.045 525.11 573.318 520.785 576.678 522.751C585.506 527.915 587.039 542.855 596.174 547.972C602.958 551.773 617.312 549 625 549C620.121 537.4 609.849 527.297 602.656 516.985C600.433 513.798 594.642 508.232 595.538 504C597.716 493.713 615.891 483.672 622 475C613.924 475 598.963 472.133 592.015 476.603C580.495 484.012 573.394 503.161 560 507L560 475L535.603 476.028L534 495L534 549z"/>
<path style="fill:#9ba237; stroke:none;" d="M586 475L587 476L586 475z"/>
<path style="fill:#5a5f16; stroke:none;" d="M629 475L630 476L629 475z"/>
<path style="fill:#010101; stroke:none;" d="M723 549L723 533L682 533C677.938 533 669.744 534.537 666.603 531.397C662.927 527.72 664.926 519.976 670.019 519.148C682.675 517.091 697.169 519 710 519L710 505L679 505L666.603 503.397L665 492L721 492L721 475L661 475L640.028 476.603L639 487L639 515L639.255 540L640.607 547.972L663 549L723 549z"/>
<path style="fill:#9ba237; stroke:none;" d="M798 475L798 487C793.866 487 782.842 485.05 780.028 488.603C774.601 495.456 785.473 519.695 774.891 522.682C773.041 523.204 770.9 523.005 769 522.999C748.635 522.934 765.966 498.696 757.972 488.603C755.196 485.098 744.289 487.021 740 486C743.413 489.906 753.07 488 758 488C758 497.053 754.977 512.547 758.603 520.852C760.667 525.579 776.22 525.806 778.972 521.682C783.513 514.877 780 496.122 780 488C791.326 488 798.998 490.435 799 477L800 477L801 480L802 480L800 475L798 475z"/>
<path style="fill:#d0d75b; stroke:none;" d="M820 475L821 476L820 475z"/>
<path style="fill:#9ba237; stroke:none;" d="M183 476L184 477L183 476z"/>
<path style="fill:#5a5f16; stroke:none;" d="M191 476L192 477L191 476M247 476L247 477L259 481L247.83 493.018L230 489L230 490C244.165 492.67 253.301 498.32 260 481L247 476M260.667 476.333L261.333 476.667L260.667 476.333M441 476L441 477C451.938 480.307 459.565 485.741 463 497L464 497C462.23 485.194 452.465 477.719 441 476z"/>
<path style="fill:#9ba237; stroke:none;" d="M452.667 476.333L453.333 476.667L452.667 476.333M585 476L586 477L585 476z"/>
<path style="fill:#5a5f16; stroke:none;" d="M628 476L629 477L628 476z"/>
<path style="fill:#d0d75b; stroke:none;" d="M797 476L797 486L781 486L781 487L798 487L797 476z"/>
<path style="fill:#9ba237; stroke:none;" d="M181 477L182 478L181 477M175 492L176 492C178.082 485.481 182.498 481.76 188 478C181.251 477.446 176.054 486.182 175 492z"/>
<path style="fill:#5a5f16; stroke:none;" d="M188 477L188 478L191 478L188 477z"/>
<path style="fill:#9ba237; stroke:none;" d="M253.667 477.333L254.333 477.667L253.667 477.333z"/>
<path style="fill:#5a5f16; stroke:none;" d="M262 477L263 478L262 477z"/>
<path style="fill:#9ba237; stroke:none;" d="M447.667 477.333L448.333 477.667L447.667 477.333M454 477L455 478L454 477M584 477L582 481L584 477z"/>
<path style="fill:#5a5f16; stroke:none;" d="M627 477L628 478L627 477z"/>
<path style="fill:#d0d75b; stroke:none;" d="M801 477L802 478L801 477M821 477L822 482L823 482L821 477z"/>
<path style="fill:#9ba237; stroke:none;" d="M180 478L181 479L180 478z"/>
<path style="fill:#5a5f16; stroke:none;" d="M187 478L188 479L187 478z"/>
<path style="fill:#9ba237; stroke:none;" d="M255.667 478.333L256.333 478.667L255.667 478.333M449.667 478.333L450.333 478.667L449.667 478.333M455.667 478.333L456.333 478.667L455.667 478.333z"/>
<path style="fill:#5a5f16; stroke:none;" d="M480 478L480 486L481 486L480 478M626 478L627 479L626 478z"/>
<path style="fill:#9ba237; stroke:none;" d="M822.333 478.667L822.667 479.333L822.333 478.667z"/>
<path style="fill:#d0d75b; stroke:none;" d="M843 478L842 482L843 482L843 478z"/>
<path style="fill:#9ba237; stroke:none;" d="M179 479L180 480L179 479z"/>
<path style="fill:#5a5f16; stroke:none;" d="M185.667 479.333L186.333 479.667L185.667 479.333z"/>
<path style="fill:#9ba237; stroke:none;" d="M257.667 479.333L258.333 479.667L257.667 479.333z"/>
<path style="fill:#5a5f16; stroke:none;" d="M358 479L358 483L359 483L358 479z"/>
<path style="fill:#9ba237; stroke:none;" d="M451.667 479.333L452.333 479.667L451.667 479.333M457 479L458 480L457 479z"/>
<path style="fill:#5a5f16; stroke:none;" d="M625 479L626 480L625 479z"/>
<path style="fill:#d0d75b; stroke:none;" d="M802 479L804 482L802 479z"/>
<path style="fill:#9ba237; stroke:none;" d="M842 479L843 480L842 479z"/>
<path style="fill:#d0d75b; stroke:none;" d="M862 479L863 480L862 479z"/>
<path style="fill:#9ba237; stroke:none;" d="M178 480L179 481L178 480z"/>
<path style="fill:#5a5f16; stroke:none;" d="M184 480L185 481L184 480z"/>
<path style="fill:#9ba237; stroke:none;" d="M259 480L260 481L259 480z"/>
<path style="fill:#e2ee1b; stroke:none;" d="M262 480L263 481L262 480z"/>
<path style="fill:#9ba237; stroke:none;" d="M453 480L454 481L453 480M458 480L459 481L458 480z"/>
<path style="fill:#5a5f16; stroke:none;" d="M624 480L625 481L624 480z"/>
<path style="fill:#9ba237; stroke:none;" d="M823 480L828 495L829 495L823 480M841 480L841 483L842 483L841 480z"/>
<path style="fill:#d0d75b; stroke:none;" d="M861.333 480.667L861.667 481.333L861.333 480.667z"/>
<path style="fill:#9ba237; stroke:none;" d="M177 481L178 482L177 481z"/>
<path style="fill:#5a5f16; stroke:none;" d="M179 486L184 481L179 486z"/>
<path style="fill:#9ba237; stroke:none;" d="M260.333 481.667L260.667 482.333L260.333 481.667M455 481L456 482L455 481z"/>
<path style="fill:#e2ee1b; stroke:none;" d="M457 481L458 482L457 481z"/>
<path style="fill:#9ba237; stroke:none;" d="M459 481L460 482L459 481z"/>
<path style="fill:#e2ee1b; stroke:none;" d="M518 481L519 482L518 481z"/>
<path style="fill:#9ba237; stroke:none;" d="M581 481L582 482L581 481z"/>
<path style="fill:#5a5f16; stroke:none;" d="M623 481L624 482L623 481z"/>
<path style="fill:#9ba237; stroke:none;" d="M802 481L803 482L802 481z"/>
<path style="fill:#5a5f16; stroke:none;" d="M840 481L833 501L832 501L829 491L828 491L832 502L833 502C835.507 496.641 841.591 486.798 840 481z"/>
<path style="fill:#9ba237; stroke:none;" d="M176 482L177 483L176 482M456 482L457 483L456 482M460 482L461 483L460 482M580 482L581 483L580 482z"/>
<path style="fill:#5a5f16; stroke:none;" d="M622 482L623 483L622 482z"/>
<path style="fill:#9ba237; stroke:none;" d="M803 482L804 486L805 486L803 482M175 483L176 484L175 483M259 483L260 484L259 483z"/>
<path style="fill:#5a5f16; stroke:none;" d="M264 483L263 485L265 485L264 483z"/>
<path style="fill:#9ba237; stroke:none;" d="M457 483L458 484L457 483M461 483L462 484L461 483M579 483L580 484L579 483z"/>
<path style="fill:#5a5f16; stroke:none;" d="M621 483L622 484L621 483z"/>
<path style="fill:#d0d75b; stroke:none;" d="M823 483L824 484L823 483M841 483L840 487L841 487L841 483z"/>
<path style="fill:#9ba237; stroke:none;" d="M258 484L259 485L258 484M458 484L459 485L458 484M462 484L463 485L462 484M578 484L579 485L578 484z"/>
<path style="fill:#5a5f16; stroke:none;" d="M620 484L621 485L620 484z"/>
<path style="fill:#d0d75b; stroke:none;" d="M804 484L805 485L804 484z"/>
<path style="fill:#9ba237; stroke:none;" d="M840 484L841 485L840 484z"/>
<path style="fill:#d0d75b; stroke:none;" d="M860 484L861 485L860 484z"/>
<path style="fill:#9ba237; stroke:none;" d="M174 485L175 486L174 485z"/>
<path style="fill:#5a5f16; stroke:none;" d="M262 485C255.443 494.589 252.083 498.037 241 499L241 498L243 497L239 496L236 498L236 499C245.774 500.243 256.662 503.445 263.319 511.174C277.338 527.447 262.49 547.008 246 553L246 554C264.123 550.769 276.355 529.753 266.633 513.004C263.967 508.411 254.738 505.286 253.538 500.752C252.085 495.264 262.297 490.876 262 485M358.333 485.667L358.667 486.333L358.333 485.667z"/>
<path style="fill:#9ba237; stroke:none;" d="M459 485L460 486L459 485M463.333 485.667L463.667 486.333L463.333 485.667M577 485L578 486L577 485z"/>
<path style="fill:#5a5f16; stroke:none;" d="M619 485L618 487L620 487L619 485z"/>
<path style="fill:#d0d75b; stroke:none;" d="M805.333 485.667L805.667 486.333L805.333 485.667M824 485L825 486L824 485M859 485L858 489L859 489L859 485z"/>
<path style="fill:#9ba237; stroke:none;" d="M173.333 486.667L173.667 487.333L173.333 486.667z"/>
<path style="fill:#5a5f16; stroke:none;" d="M178 486L179 487L178 486z"/>
<path style="fill:#9ba237; stroke:none;" d="M257 486L258 487L257 486M261 486L262 487L261 486M460 486L461 487L460 486M576 486L577 487L576 486z"/>
<path style="fill:#5a5f16; stroke:none;" d="M826 486L827 490L828 490L826 486z"/>
<path style="fill:#9ba237; stroke:none;" d="M839 486L838 490L839 490L839 486z"/>
<path style="fill:#5a5f16; stroke:none;" d="M177 487L176 491L177 491L177 487z"/>
<path style="fill:#9ba237; stroke:none;" d="M256 487L257 488L256 487M260 487L261 488L260 487M464 487L465 488L464 487M575 487L576 488L575 487z"/>
<path style="fill:#5a5f16; stroke:none;" d="M617 487L618 488L617 487z"/>
<path style="fill:#d0d75b; stroke:none;" d="M758 487L759 488L758 487M779 487L780 488L779 487z"/>
<path style="fill:#9ba237; stroke:none;" d="M805 487L806 491L807 491L805 487M859.333 487.667L859.667 488.333L859.333 487.667z"/>
<path style="fill:#5a5f16; stroke:none;" d="M210 488L210 489L227 489L210 488z"/>
<path style="fill:#9ba237; stroke:none;" d="M255 488L256 489L255 488M259 488L260 489L259 488M461 488L462 489L461 488z"/>
<path style="fill:#5a5f16; stroke:none;" d="M480 488L480 505L481 505L480 488z"/>
<path style="fill:#9ba237; stroke:none;" d="M574 488L575 489L574 488z"/>
<path style="fill:#5a5f16; stroke:none;" d="M616 488L617 489L616 488z"/>
<path style="fill:#d0d75b; stroke:none;" d="M759 488C759 495.358 755.432 517.134 761 522L759 488M778 488L778 521L779 521L778 488M806 488L807 489L806 488M825.333 488.667L825.667 489.333L825.333 488.667M839.333 488.667L839.667 489.333L839.333 488.667z"/>
<path style="fill:#9ba237; stroke:none;" d="M172 489L171 496L172 496L172 489z"/>
<path style="fill:#5a5f16; stroke:none;" d="M234 503L234 502C225.691 500.95 217.168 501.241 209.001 499.153C202.173 497.407 202.135 493.152 208 490C202.406 488.53 198.864 495.697 204.148 498.987C211.477 503.55 225.613 502.64 234 503z"/>
<path style="fill:#9ba237; stroke:none;" d="M208 489L208 490L230 490L208 489M254.333 489.667L254.667 490.333L254.333 489.667M258 489L259 490L258 489M462.333 489.667L462.667 490.333L462.333 489.667M465.333 489.667L465.667 490.333L465.333 489.667M573 489L574 490L573 489z"/>
<path style="fill:#5a5f16; stroke:none;" d="M615 489L616 490L615 489z"/>
<path style="fill:#9ba237; stroke:none;" d="M858 489L856 495L857 495L858 489M206.667 490.333L207.333 490.667L206.667 490.333M230 490L230 491L233 491L230 490M257 490L258 491L257 490z"/>
<path style="fill:#e2ee1b; stroke:none;" d="M518 490L518 495L519 495L518 490z"/>
<path style="fill:#9ba237; stroke:none;" d="M572 490L573 491L572 490z"/>
<path style="fill:#5a5f16; stroke:none;" d="M614 490L615 491L614 490z"/>
<path style="fill:#d0d75b; stroke:none;" d="M807 490L809 493L807 490M826.333 490.667L826.667 491.333L826.333 490.667M838.333 490.667L838.667 491.333L838.333 490.667M857 490L858 491L857 490z"/>
<path style="fill:#9ba237; stroke:none;" d="M204 491L205 492L204 491M236 491L236 492L241 493L241 492L236 491M253 491L254 492L253 491z"/>
<path style="fill:#5a5f16; stroke:none;" d="M400.318 492.028C396.465 494.599 396.465 509.401 400.318 511.972C405.943 515.726 427.346 514.238 432.811 510.633C438.437 506.92 438.483 497.562 432.941 493.738C427.396 489.912 406.07 488.189 400.318 492.028z"/>
<path style="fill:#9ba237; stroke:none;" d="M466.333 491.667L466.667 492.333L466.333 491.667M571 491L570 493L572 493L571 491z"/>
<path style="fill:#5a5f16; stroke:none;" d="M613 491L614 492L613 491z"/>
<path style="fill:#9ba237; stroke:none;" d="M837 491L836 495L837 495L837 491z"/>
<path style="fill:#5a5f16; stroke:none;" d="M175 492L175 503L176 503L175 492z"/>
<path style="fill:#9ba237; stroke:none;" d="M203 492L204 493L203 492z"/>
<path style="fill:#e2ee1b; stroke:none;" d="M205 492L206 493L205 492z"/>
<path style="fill:#9ba237; stroke:none;" d="M206 493C207.789 498.087 213.404 496.999 218 497L218 496L207 495L207 494L218 493L206 493z"/>
<path style="fill:#5a5f16; stroke:none;" d="M207 494L207 495L214 496L214 495L211 495L211 494L228 494L207 494z"/>
<path style="fill:#9ba237; stroke:none;" d="M220 492L220 493L228 493L220 492z"/>
<path style="fill:#e2ee1b; stroke:none;" d="M235.667 492.333L236.333 492.667L235.667 492.333z"/>
<path style="fill:#9ba237; stroke:none;" d="M252 492L253 493L252 492M256 492L257 493L256 492z"/>
<path style="fill:#5a5f16; stroke:none;" d="M266 492L267 493L266 492M272 492C277.902 498.754 294.804 488.572 299.972 496.318C301.954 499.287 301 504.611 301 508L301 536C301 539.316 299.649 546.632 302.603 548.972C307.446 552.808 322.925 550 329 550L329 509C329 505.146 327.563 497.534 331.318 495.028C338.514 490.226 353.14 498.706 359 492L329.603 494.028L328 508L328 549L303 549L303 508L301.258 494.014L272 492z"/>
<path style="fill:#9ba237; stroke:none;" d="M463.333 492.667L463.667 493.333L463.333 492.667z"/>
<path style="fill:#5a5f16; stroke:none;" d="M612 492L613 493L612 492z"/>
<path style="fill:#9ba237; stroke:none;" d="M807 492L808 493L807 492z"/>
<path style="fill:#d0d75b; stroke:none;" d="M856 492L857 493L856 492z"/>
<path style="fill:#9ba237; stroke:none;" d="M174.333 493.667L174.667 494.333L174.333 493.667M202 493L204 497L202 493M228 493L228 494L237 495L228 493M242.667 493.333L243.333 493.667L242.667 493.333M251 493L252 494L251 493M255 493L256 494L255 493z"/>
<path style="fill:#5a5f16; stroke:none;" d="M267 493C267.064 495.993 266.946 497.346 270 498L270 497L267 493z"/>
<path style="fill:#9ba237; stroke:none;" d="M399 493C399 497.363 397.21 506.839 400.028 510.397C403.796 515.155 425.565 512.294 431 511L431 510L400 511L399 493z"/>
<path style="fill:#d0d75b; stroke:none;" d="M400 493L400 511C408.285 511 424.809 514.142 431.775 509.142C437.291 505.184 435.797 496.815 429.945 494.089C422.097 490.434 408.559 493 400 493z"/>
<path style="fill:#9ba237; stroke:none;" d="M429.667 493.333L430.333 493.667L429.667 493.333M569.333 493.667L569.667 494.333L569.333 493.667z"/>
<path style="fill:#5a5f16; stroke:none;" d="M611 493L612 494L611 493z"/>
<path style="fill:#9ba237; stroke:none;" d="M666 493L667 494L666 493M808.333 493.667L808.667 494.333L808.333 493.667z"/>
<path style="fill:#d0d75b; stroke:none;" d="M827 493L828 494L827 493M837.333 493.667L837.667 494.333L837.333 493.667z"/>
<path style="fill:#e2ee1b; stroke:none;" d="M204.333 494.667L204.667 495.333L204.333 494.667z"/>
<path style="fill:#010101; stroke:none;" d="M211 494L211 495L240 498C232.573 492.154 219.909 494 211 494z"/>
<path style="fill:#5a5f16; stroke:none;" d="M230 494L230 495L238 496L230 494z"/>
<path style="fill:#9ba237; stroke:none;" d="M244.667 494.333L245.333 494.667L244.667 494.333M250 494L251 495L250 494M254 494L255 495L254 494z"/>
<path style="fill:#e2ee1b; stroke:none;" d="M270.333 494.667L270.667 495.333L270.333 494.667z"/>
<path style="fill:#9ba237; stroke:none;" d="M431 494L432 495L431 494M464 494L463 510L464 510L464 494z"/>
<path style="fill:#5a5f16; stroke:none;" d="M610 494L611 495L610 494z"/>
<path style="fill:#9ba237; stroke:none;" d="M665 494L666 503L667 503L665 494z"/>
<path style="fill:#e2ee1b; stroke:none;" d="M667 494L667 496L669 494L667 494z"/>
<path style="fill:#9ba237; stroke:none;" d="M725 494C708.902 498.758 686.807 495 670 495L670 496L712 496L725 494z"/>
<path style="fill:#d0d75b; stroke:none;" d="M809 494L811 497L809 494M855 494L854 497L855 494z"/>
<path style="fill:#9ba237; stroke:none;" d="M238 495L238 496L241 496L238 495M246.667 495.333L247.333 495.667L246.667 495.333M249 495L250 496L249 495M253 495L254 496L253 495M403.603 496.028C400.88 498.185 401.065 506.796 404.318 508.397C409.006 510.703 426.478 510.493 430.566 507.142C434.337 504.052 433.104 497.929 428.891 496.009C424.534 494.023 407.491 492.948 403.603 496.028M432.667 495.333L433.333 495.667L432.667 495.333z"/>
<path style="fill:#5a5f16; stroke:none;" d="M609 495L610 496L609 495z"/>
<path style="fill:#d0d75b; stroke:none;" d="M828.333 495.667L828.667 496.333L828.333 495.667M836 495L835 500L836 500L836 495z"/>
<path style="fill:#5a5f16; stroke:none;" d="M218 496L218 497L233 498L218 496z"/>
<path style="fill:#9ba237; stroke:none;" d="M241 496L242 497L241 496M248 496L249 497L248 496z"/>
<path style="fill:#e2ee1b; stroke:none;" d="M298 496L299 497L298 496M331 496L331 498L333 496L331 496z"/>
<path style="fill:#5a5f16; stroke:none;" d="M403 496L403 508L428 508L428 507L404 507L404 497C412.032 497 434.662 493.264 429 507C433.292 503.967 432.224 497.933 426.981 496.434C419.869 494.4 410.376 496 403 496z"/>
<path style="fill:#9ba237; stroke:none;" d="M434 496L435 501L436 501L434 496M467 496L467 507L468 507L467 496M567 496L568 497L567 496z"/>
<path style="fill:#5a5f16; stroke:none;" d="M608 496L609 497L608 496z"/>
<path style="fill:#9ba237; stroke:none;" d="M669 496L670 497L669 496M809 496L810 497L809 496M829 496L830 500L831 500L829 496M835.333 496.667L835.667 497.333L835.333 496.667M855 496L856 497L855 496M171 497L171 503L172 503L171 497M204 497L207 499L204 497M219 497L219 498L225 498L219 497M243.667 497.333L244.333 497.667L243.667 497.333z"/>
<path style="fill:#e2ee1b; stroke:none;" d="M247 497L247 498L250 498L247 497z"/>
<path style="fill:#9ba237; stroke:none;" d="M251 497L251 499L253 497L251 497M270 497L270 498L298 498L270 497M333 497L333 498L360 498L333 497z"/>
<path style="fill:#010101; stroke:none;" d="M404 497L404 507C409.437 507 427.997 509.907 430.377 503.857C434.231 494.06 408.852 497 404 497z"/>
<path style="fill:#5a5f16; stroke:none;" d="M607 497L608 498L607 497z"/>
<path style="fill:#9ba237; stroke:none;" d="M668 497L670 500L668 497M810 497L815 510L816 510L810 497M854 497L851 506L852 506L854 497M174 498L174 502L175 502L174 498M225 498L225 499L236 499L225 498z"/>
<path style="fill:#010101; stroke:none;" d="M241 498L241 499L244 499L241 498z"/>
<path style="fill:#9ba237; stroke:none;" d="M245 498L246 499L245 498z"/>
<path style="fill:#5a5f16; stroke:none;" d="M296 498L297 538L298.028 553.397L316 555L332.397 553.821L334 539L334 498L333 498L333 539C333 542.854 334.437 550.466 330.682 552.972C324.044 557.402 305.914 554 298 554L298 513L296 498z"/>
<path style="fill:#e2ee1b; stroke:none;" d="M563 498L563 503L566 501L566 500L563 498z"/>
<path style="fill:#5a5f16; stroke:none;" d="M606 498L607 499L606 498z"/>
<path style="fill:#d0d75b; stroke:none;" d="M829 498L830 499L829 498z"/>
<path style="fill:#9ba237; stroke:none;" d="M834 498L831 501L834 503L834 498z"/>
<path style="fill:#d0d75b; stroke:none;" d="M853.333 498.667L853.667 499.333L853.333 498.667z"/>
<path style="fill:#9ba237; stroke:none;" d="M210 499L210 500L225 501L210 499M237 499L237 500L240 500L237 499M247 499L247 500L251 500L247 499z"/>
<path style="fill:#e2ee1b; stroke:none;" d="M331 499L332 500L331 499z"/>
<path style="fill:#5a5f16; stroke:none;" d="M605 499L606 500L605 499z"/>
<path style="fill:#d0d75b; stroke:none;" d="M811 499L812 500L811 499z"/>
<path style="fill:#9ba237; stroke:none;" d="M241 500L241 501L247 502L241 500z"/>
<path style="fill:#5a5f16; stroke:none;" d="M604 500L605 501L604 500z"/>
<path style="fill:#e2ee1b; stroke:none;" d="M667 500L670 502L670 501L667 500z"/>
<path style="fill:#9ba237; stroke:none;" d="M670 500L670 501L715 501C703.299 496.09 682.742 500 670 500z"/>
<path style="fill:#5a5f16; stroke:none;" d="M810 500L811 504L812 504L810 500z"/>
<path style="fill:#d0d75b; stroke:none;" d="M812.333 500.667L812.667 501.333L812.333 500.667M830.333 500.667L830.667 501.333L830.333 500.667M852.333 500.667L852.667 501.333L852.333 500.667z"/>
<path style="fill:#9ba237; stroke:none;" d="M230 501L230 502L234 502L230 501z"/>
<path style="fill:#5a5f16; stroke:none;" d="M603 501L604 502L603 501z"/>
<path style="fill:#d0d75b; stroke:none;" d="M834.333 501.667L834.667 502.333L834.333 501.667z"/>
<path style="fill:#9ba237; stroke:none;" d="M234 502L234 503L241 503L234 502M249.667 502.333L250.333 502.667L249.667 502.333z"/>
<path style="fill:#5a5f16; stroke:none;" d="M602 502L603 503L602 502M665 502C667.617 506.037 672.606 505 677 505L710 505L710 519L665 520L665 521L711 520L709.972 504.603L698 503L665 502z"/>
<path style="fill:#9ba237; stroke:none;" d="M172.333 503.667L172.667 504.333L172.333 503.667M175 503C176.782 508.996 180.431 512.349 186 515L186 514L175 503z"/>
<path style="fill:#5a5f16; stroke:none;" d="M236 503L236 504L244 505L236 503z"/>
<path style="fill:#9ba237; stroke:none;" d="M242.667 503.333L243.333 503.667L242.667 503.333M251.667 503.333L252.333 503.667L251.667 503.333M435 503L435 506L436 506L435 503z"/>
<path style="fill:#5a5f16; stroke:none;" d="M601 503L602 504L601 503z"/>
<path style="fill:#9ba237; stroke:none;" d="M668 503L669 504L668 503M710 503L711 520L712 520C713.124 515.263 714.323 506.139 710 503z"/>
<path style="fill:#d0d75b; stroke:none;" d="M813 503L814 504L813 503M832.667 503.333L833.333 503.667L832.667 503.333M851 503L852 504L851 503z"/>
<path style="fill:#5a5f16; stroke:none;" d="M176 504L177 505L176 504z"/>
<path style="fill:#9ba237; stroke:none;" d="M244 504L244 505L250 506L244 504M254 504L257 506L254 504z"/>
<path style="fill:#5a5f16; stroke:none;" d="M600.333 504.667L600.667 505.333L600.333 504.667M812 504L813 509L814 509L812 504M177.333 505.667L177.667 506.333L177.333 505.667M246 505L246 506L251 507L251 506L246 505z"/>
<path style="fill:#e2ee1b; stroke:none;" d="M331 505L332 506L331 505z"/>
<path style="fill:#5a5f16; stroke:none;" d="M463 505L462 511L463 511L463 505z"/>
<path style="fill:#d0d75b; stroke:none;" d="M814 505L815 506L814 505M850 505L849 508L850 505z"/>
<path style="fill:#9ba237; stroke:none;" d="M173.333 506.667L173.667 507.333L173.333 506.667M251 506L251 507L263 517L264 517C261.411 511.24 257.017 507.772 251 506M258 506L259 507L258 506M434.333 506.667L434.667 507.333L434.333 506.667z"/>
<path style="fill:#5a5f16; stroke:none;" d="M601 506L603 509L601 506M178 507L179 508L178 507M252 507L253 508L252 507z"/>
<path style="fill:#9ba237; stroke:none;" d="M259 507L260 508L259 507z"/>
<path style="fill:#d0d75b; stroke:none;" d="M815.333 507.667L815.667 508.333L815.333 507.667z"/>
<path style="fill:#9ba237; stroke:none;" d="M850 507L851 508L850 507M174 508L175 509L174 508z"/>
<path style="fill:#5a5f16; stroke:none;" d="M179 508L182 511L179 508M253.667 508.333L254.333 508.667L253.667 508.333z"/>
<path style="fill:#9ba237; stroke:none;" d="M260 508L261 509L260 508M433 508L434 509L433 508z"/>
<path style="fill:#5a5f16; stroke:none;" d="M480 508L480 520L481 520L480 508z"/>
<path style="fill:#9ba237; stroke:none;" d="M597 508L599 510L599 508L597 508M849.333 508.667L849.667 509.333L849.333 508.667z"/>
<path style="fill:#5a5f16; stroke:none;" d="M255 509L258 511L255 509z"/>
<path style="fill:#9ba237; stroke:none;" d="M261 509L263 511L263 509L261 509M432 509L433 510L432 509z"/>
<path style="fill:#5a5f16; stroke:none;" d="M603 509C608.204 520.693 620.129 537.847 630 546C624.263 533.926 613.066 517.798 603 509M814 509C815.278 513.468 817.49 521.263 821.554 523.972C830.491 529.931 845.841 524.972 848 515L847 515C843.508 523.323 830.696 528.806 822.39 522.258C818.294 519.028 817.453 512.823 814 509z"/>
<path style="fill:#d0d75b; stroke:none;" d="M816 509L819 517L820 517L816 509M848 509L847 512L848 509z"/>
<path style="fill:#9ba237; stroke:none;" d="M175 510L176 511L175 510M466 510L465 514L466 514L466 510M599 510L600 511L599 510M176 511L177 512L176 511z"/>
<path style="fill:#5a5f16; stroke:none;" d="M182 511L183 512L182 511M258 511L259 512L258 511z"/>
<path style="fill:#9ba237; stroke:none;" d="M263 511L264 512L263 511M462.333 511.667L462.667 512.333L462.333 511.667M600.333 511.667L600.667 512.333L600.333 511.667M603 511L604 512L603 511M816.333 511.667L816.667 512.333L816.333 511.667M848 511L845 519L846 519L848 511M177 512L178 513L177 512z"/>
<path style="fill:#5a5f16; stroke:none;" d="M183.667 512.333L184.333 512.667L183.667 512.333M259 512L260 513L259 512z"/>
<path style="fill:#9ba237; stroke:none;" d="M264 512L265 513L264 512M604 512L605 513L604 512M178 513L179 514L178 513z"/>
<path style="fill:#5a5f16; stroke:none;" d="M185 513L186 514L185 513M260 513L261 514L260 513z"/>
<path style="fill:#9ba237; stroke:none;" d="M265.333 513.667L265.667 514.333L265.333 513.667M461.333 513.667L461.667 514.333L461.333 513.667M601 513L602 514L601 513M605 513L606 514L605 513M817.333 513.667L817.667 514.333L817.333 513.667M179 514L180 515L179 514z"/>
<path style="fill:#e2ee1b; stroke:none;" d="M182 514L183 515L182 514z"/>
<path style="fill:#5a5f16; stroke:none;" d="M186 514L186 515L190 516L190 515L186 514M261 514L263 517L261 514z"/>
<path style="fill:#9ba237; stroke:none;" d="M464.333 514.667L464.667 515.333L464.333 514.667M602 514L604 517L602 514M606.333 514.667L606.667 515.333L606.333 514.667z"/>
<path style="fill:#d0d75b; stroke:none;" d="M846 514L847 515L846 514z"/>
<path style="fill:#9ba237; stroke:none;" d="M181 515L182 516L181 515M187 515L187 516L191 517L191 516L187 515M266.333 515.667L266.667 516.333L266.333 515.667M460 515L459 518L460 515M182 516L183 517L182 516z"/>
<path style="fill:#5a5f16; stroke:none;" d="M191 516L191 517L197 518L191 516z"/>
<path style="fill:#9ba237; stroke:none;" d="M463 516L464 517L463 516M607 516L608 517L607 516M818 516L819 517L818 516z"/>
<path style="fill:#d0d75b; stroke:none;" d="M845 516L846 517L845 516z"/>
<path style="fill:#9ba237; stroke:none;" d="M184.667 517.333L185.333 517.667L184.667 517.333M192.667 517.333L193.333 517.667L192.667 517.333z"/>
<path style="fill:#5a5f16; stroke:none;" d="M263 517L263 534L264 534C265.3 528.539 265.981 521.976 263 517z"/>
<path style="fill:#9ba237; stroke:none;" d="M267 517L267 520L268 520L267 517M462 517L461 520L462 517M604 517L605 518L604 517M608.333 517.667L608.667 518.333L608.333 517.667M819.333 517.667L819.667 518.333L819.333 517.667M186 518L187 519L186 518M194 518L194 519L201 520L194 518z"/>
<path style="fill:#5a5f16; stroke:none;" d="M198 518L198 519L207 520L198 518z"/>
<path style="fill:#9ba237; stroke:none;" d="M264.333 518.667L264.667 519.333L264.333 518.667M457 518L457 520L459 518L457 518M605.333 518.667L605.667 519.333L605.333 518.667z"/>
<path style="fill:#d0d75b; stroke:none;" d="M820 518C823.859 525.651 835.634 523 843 523L843 522C834.811 522 826.646 523.487 820 518M844 518L843 521L844 518z"/>
<path style="fill:#9ba237; stroke:none;" d="M188 519L188 520L193 521L193 520L188 519M609 519L610 520L609 519z"/>
<path style="fill:#010101; stroke:none;" d="M187 520L188 521L187 520z"/>
<path style="fill:#9ba237; stroke:none;" d="M202 520L202 521L213 522L202 520z"/>
<path style="fill:#5a5f16; stroke:none;" d="M209 520L209 521C217.447 522.068 240.705 520.151 235 534C247.591 521.656 215.357 520.131 209 520z"/>
<path style="fill:#9ba237; stroke:none;" d="M265 520L265 531L266 531L265 520M455.667 520.333L456.333 520.667L455.667 520.333M460 520L461 521L460 520M606 520L607 521L606 520M610 520L612 523L610 520M666 520L666 521L711 521C699.299 516.09 678.742 520 666 520M820 520L821 521L820 520M844 520L845 521L844 520M182 523L186 522L182 523M195.667 521.333L196.333 521.667L195.667 521.333z"/>
<path style="fill:#e2ee1b; stroke:none;" d="M203.667 521.333L204.333 521.667L203.667 521.333z"/>
<path style="fill:#9ba237; stroke:none;" d="M454 521L455 522L454 521M459 521L460 522L459 521z"/>
<path style="fill:#5a5f16; stroke:none;" d="M480 521L481 522L480 521z"/>
<path style="fill:#9ba237; stroke:none;" d="M607 521L608 522L607 521M665 521L665 530L666 530L665 521z"/>
<path style="fill:#e2ee1b; stroke:none;" d="M667 524L670 521L667 524z"/>
<path style="fill:#9ba237; stroke:none;" d="M821 521L821 523L823 523L821 521M843.333 521.667L843.667 522.333L843.333 521.667M187 522L188 523L187 522z"/>
<path style="fill:#010101; stroke:none;" d="M190 522L190 523C204.045 528.525 215.99 530 231 530L217 526.711L190 522z"/>
<path style="fill:#9ba237; stroke:none;" d="M197 522L197 523L201 523L197 522M218 522L218 523L230 524L218 522M268 522L268 529L269 529L268 522M452.667 522.333L453.333 522.667L452.667 522.333M456 524L459 522L456 524M573 522L571 526L576 523L583 532L573 522M702.667 522.333L703.333 522.667L702.667 522.333M710 522L711 523L710 522M712 522L712 523L715 523L712 522z"/>
<path style="fill:#d0d75b; stroke:none;" d="M761 522L761 523L778 523L761 522z"/>
<path style="fill:#9ba237; stroke:none;" d="M181 523L182 524L181 523z"/>
<path style="fill:#e2ee1b; stroke:none;" d="M183 523L184 524L183 523z"/>
<path style="fill:#9ba237; stroke:none;" d="M188.667 523.333L189.333 523.667L188.667 523.333M203 523L203 524L206 524L203 523M451 523L452 524L451 523z"/>
<path style="fill:#d0d75b; stroke:none;" d="M561 550L562 553C565.5 549.941 563.488 544.245 564.148 540C564.889 535.236 572.138 525.62 577 525C564.771 518.242 562.384 544.185 561 550z"/>
<path style="fill:#9ba237; stroke:none;" d="M608 523L609 524L608 523M612 523L613 524L612 523M669 523C667.204 530.893 676.658 529 682 529L712 529C715.618 529 721.52 527.918 724.682 530.028C729.517 533.254 727 547.809 727 553L728 553L726.972 529.603L712 528L669 527L669 523M823 523L823 524L843 524L823 523M180 524L181 525L180 524M181 528L195 530C190.77 526.177 185.264 523.059 181 528M190.667 524.333L191.333 524.667L190.667 524.333M206 524L206 525L223 526L206 524M233 524L236 526L233 524M448.667 524.333L449.333 524.667L448.667 524.333M453 526L456 524L453 526z"/>
<path style="fill:#e2ee1b; stroke:none;" d="M573 525L573 526L577 526L573 525z"/>
<path style="fill:#9ba237; stroke:none;" d="M609 524L610 525L609 524M613 524L614 525L613 524M179 525L180 526L179 525z"/>
<path style="fill:#5a5f16; stroke:none;" d="M188 547L188 546L174 540L187 526C182.455 525.931 172.516 534.518 174.306 539.812C175.817 544.281 184.006 546.053 188 547z"/>
<path style="fill:#9ba237; stroke:none;" d="M192.667 525.333L193.333 525.667L192.667 525.333z"/>
<path style="fill:#5a5f16; stroke:none;" d="M210 525L210 526L225 527L210 525z"/>
<path style="fill:#9ba237; stroke:none;" d="M446.667 525.333L447.333 525.667L446.667 525.333z"/>
<path style="fill:#5a5f16; stroke:none;" d="M480 525L480 528L481 528L480 525z"/>
<path style="fill:#9ba237; stroke:none;" d="M610 525L611 526L610 525M178 526L179 527L178 526M195 526L196 527L195 526M225 526L225 527L233 528L232 530L225 526M236 526L237 527L236 526M445.333 526.667L445.667 527.333L445.333 526.667M451.667 526.333L452.333 526.667L451.667 526.333z"/>
<path style="fill:#d0d75b; stroke:none;" d="M575 526C579.352 533.051 587.099 549.043 594.924 552.28C599.118 554.015 605.433 552.183 610 552.714C614.833 553.277 624.886 554.126 628 550C620.373 551.816 600.678 554.05 594.464 548.566C587.362 542.299 584.548 528.802 575 526z"/>
<path style="fill:#9ba237; stroke:none;" d="M614 526L615 527L614 526M177 527L178 528L177 527z"/>
<path style="fill:#5a5f16; stroke:none;" d="M187 527L187 528L191 529L191 528L187 527z"/>
<path style="fill:#9ba237; stroke:none;" d="M196 527L196 528L210 531L196 527z"/>
<path style="fill:#5a5f16; stroke:none;" d="M200 527L200 528L206 529L206 528L200 527M228 527L228 528L231 529L231 530L207 529L207 530L233 530L233 528L228 527z"/>
<path style="fill:#e2ee1b; stroke:none;" d="M448 527L449 528L448 527z"/>
<path style="fill:#9ba237; stroke:none;" d="M450.333 527.667L450.667 528.333L450.333 527.667M568.667 527.333L569.333 527.667L568.667 527.333M611 527L612 528L611 527M615 527L617 530L615 527M176.333 528.667L176.667 529.333L176.333 528.667M401 528L401 529L417 530L401 528M446 528L447 529L446 528M567 528L566 530L568 530L567 528M612 528L613 529L612 528z"/>
<path style="fill:#e2ee1b; stroke:none;" d="M667 528L667 530L669 530L667 528z"/>
<path style="fill:#9ba237; stroke:none;" d="M180 529L181 530L180 529z"/>
<path style="fill:#5a5f16; stroke:none;" d="M191.667 529.333L192.333 529.667L191.667 529.333z"/>
<path style="fill:#9ba237; stroke:none;" d="M400 529L401 530L400 529M447 529L448 530L447 529M451 529L452 530L451 529M613.333 529.667L613.667 530.333L613.333 529.667M175 530L176 531L175 530M179 530L180 531L179 530z"/>
<path style="fill:#5a5f16; stroke:none;" d="M193 530L193 531L206 534L193 530z"/>
<path style="fill:#9ba237; stroke:none;" d="M197.667 530.333L198.333 530.667L197.667 530.333M399 530L399 550L400 550L399 530z"/>
<path style="fill:#e2ee1b; stroke:none;" d="M401 530L401 531L410 531L401 530M413.667 530.333L414.333 530.667L413.667 530.333z"/>
<path style="fill:#9ba237; stroke:none;" d="M417 530L418 531L417 530M448 530L449 531L448 530M452 530L453 531L452 530M617 530L618 531L617 530z"/>
<path style="fill:#e2ee1b; stroke:none;" d="M699 530L700 531L699 530M708 530L708 531L712 531L708 530M721 530L722 531L721 530M723 530L726 532L723 530z"/>
<path style="fill:#9ba237; stroke:none;" d="M174 531L175 532L174 531M178 531L179 532L178 531M199.667 531.333L200.333 531.667L199.667 531.333M212 531L212 532L231 532L212 531M236 531L237 532L236 531M267 531L267 535L268 535L267 531M404 531L404 532L408 532L404 531z"/>
<path style="fill:#d0d75b; stroke:none;" d="M408 531L409 532L408 531z"/>
<path style="fill:#9ba237; stroke:none;" d="M409 531L409 532L414 532L409 531M418 531L419 532L418 531M449 531L450 532L449 531M453 531L454 532L453 531M564 531L565 532L564 531M614 531L615 532L614 531M618 531L619 532L618 531M666 531L666 532C684.311 532 706.177 528.757 724 533L707 531L666 531z"/>
<path style="fill:#d0d75b; stroke:none;" d="M723 531L724 532L723 531z"/>
<path style="fill:#9ba237; stroke:none;" d="M173 532L174 533L173 532M177 532L178 533L177 532M203 532L203 533L206 533L203 532M235 532L236 533L235 532M264.333 532.667L264.667 533.333L264.333 532.667M415 532L416 533L415 532M419 532L420 533L419 532M450 532L450 534L452 534L450 532M454 532L455 533L454 532M615 532L617 535L615 532M172 533L171 535L173 535L172 533M176 533L177 534L176 533M206 533L206 534L230 535L206 533M231 533L231 534L235 534L231 533M416 533L418 536L416 533M455.333 533.667L455.667 534.333L455.333 533.667z"/>
<path style="fill:#5a5f16; stroke:none;" d="M480 533L480 547L481 547L480 533z"/>
<path style="fill:#9ba237; stroke:none;" d="M583 533L584 534L583 533M619 533L620 534L619 533M724 533L725 534L724 533M175 534L176 535L175 534z"/>
<path style="fill:#5a5f16; stroke:none;" d="M208 534L208 535L234 535L208 534z"/>
<path style="fill:#9ba237; stroke:none;" d="M263 534C260.363 540.805 255.002 544.31 249 548L249 549C254.54 546.678 264.657 541.209 263 534M420 534L421 535L420 534M584.333 534.667L584.667 535.333L584.333 534.667M620 534L621 535L620 534M170.333 535.667L170.667 536.333L170.333 535.667M174 535L173 538L174 535z"/>
<path style="fill:#5a5f16; stroke:none;" d="M262 535L261 538L262 535z"/>
<path style="fill:#9ba237; stroke:none;" d="M266.333 535.667L266.667 536.333L266.333 535.667M421 535L422 536L421 535M452 535L453 536L452 535M456 535L457 536L456 535M617 535L618 536L617 535M621.333 535.667L621.667 536.333L621.333 535.667M418 536L419 537L418 536M422 536L423 537L422 536M453 536L454 537L453 536M457 536L458 537L457 536M585 536L586 537L585 536M618.333 536.667L618.667 537.333L618.333 536.667M169 537L170 538L169 537M419 537L420 538L419 537M423 537L423 539L425 539L423 537M454 537L455 538L454 537M458 537L459 538L458 537M586 537L587 538L586 537M622 537L623 538L622 537M168 538L169 539L168 538z"/>
<path style="fill:#e2ee1b; stroke:none;" d="M170 538L171 541L170 538z"/>
<path style="fill:#9ba237; stroke:none;" d="M172 538L175 542L172 538z"/>
<path style="fill:#5a5f16; stroke:none;" d="M260 538L259 541L260 538z"/>
<path style="fill:#9ba237; stroke:none;" d="M265 538L266 539L265 538M420 538L421 539L420 538M455 538L456 539L455 538M459 538L460 539L459 538M587.333 538.667L587.667 539.333L587.333 538.667M619 538L620 539L619 538M623 538L624 539L623 538M167 539L168 540L167 539M264 539L265 540L264 539z"/>
<path style="fill:#e2ee1b; stroke:none;" d="M331.333 539.667L331.667 540.333L331.333 539.667z"/>
<path style="fill:#9ba237; stroke:none;" d="M456 539L458 542L456 539M460 539L462 542L460 539M620.333 539.667L620.667 540.333L620.333 539.667M624.333 539.667L624.667 540.333L624.333 539.667M421 540L422 541L421 540M425 540L426 541L425 540M584 540L585 541L584 540M588 540L590 543L588 540M168 541L169 542L168 541z"/>
<path style="fill:#5a5f16; stroke:none;" d="M255 544L259 541L255 544z"/>
<path style="fill:#9ba237; stroke:none;" d="M263 541L264 542L263 541M422 541L423 542L422 541M426 541L427 542L426 541M585 541L586 542L585 541M621 541L622 542L621 541M625 541L626 542L625 541M169.667 542.333L170.333 542.667L169.667 542.333M175.667 542.333L176.333 542.667L175.667 542.333M262 542L263 543L262 542M423 542L424 543L423 542M427 542L429 545L427 542M458 542L459 543L458 542M462 542L463 543L462 542M586.333 542.667L586.667 543.333L586.333 542.667M622 542L623 543L622 542M626.333 542.667L626.667 543.333L626.333 542.667M171 543L172 544L171 543M177 543L178 544L177 543M261 543L262 544L261 543M424 543L425 544L424 543M459 543L460 544L459 543M463 543L464 544L463 543M590 543L591 544L590 543M623 543L624 544L623 543M172 544L172 545L180 548L180 547L172 544M179.667 544.333L180.333 544.667L179.667 544.333z"/>
<path style="fill:#5a5f16; stroke:none;" d="M254 544L255 545L254 544z"/>
<path style="fill:#9ba237; stroke:none;" d="M260 544L261 545L260 544M425.333 544.667L425.667 545.333L425.333 544.667M460 544L461 545L460 544M464 544L465 545L464 544M587 544L588 545L587 544M591.333 544.667L591.667 545.333L591.333 544.667M627 544L628 545L627 544z"/>
<path style="fill:#5a5f16; stroke:none;" d="M173 545L174 546L173 545z"/>
<path style="fill:#9ba237; stroke:none;" d="M181.667 545.333L182.333 545.667L181.667 545.333z"/>
<path style="fill:#5a5f16; stroke:none;" d="M252.667 545.333L253.333 545.667L252.667 545.333z"/>
<path style="fill:#9ba237; stroke:none;" d="M259 545L260 546L259 545M429 545L430 546L429 545M461 545L462 546L461 545M465 545L466 546L465 545M588 545L590 548L588 545M624 545L625 546L624 545M628 545L629 546L628 545z"/>
<path style="fill:#5a5f16; stroke:none;" d="M174.667 546.333L175.333 546.667L174.667 546.333z"/>
<path style="fill:#9ba237; stroke:none;" d="M184 546L184 547L198 551L198 550L184 546z"/>
<path style="fill:#5a5f16; stroke:none;" d="M250.667 546.333L251.333 546.667L250.667 546.333z"/>
<path style="fill:#9ba237; stroke:none;" d="M258 546L259 547L258 546M426 546L427 547L426 546M430 546L431 547L430 546M462 546L463 547L462 546M466 546L467 547L466 546M592 546L593 547L592 546M625 546L626 547L625 546M629.333 546.667L629.667 547.333L629.333 546.667z"/>
<path style="fill:#5a5f16; stroke:none;" d="M176.667 547.333L177.333 547.667L176.667 547.333M189 547L189 548L194 549L194 548L189 547M246 548L246 549L250 548L246 548z"/>
<path style="fill:#9ba237; stroke:none;" d="M257 547L258 548L257 547M427 547L428 548L427 547z"/>
<path style="fill:#e2ee1b; stroke:none;" d="M429 547L430 548L429 547z"/>
<path style="fill:#9ba237; stroke:none;" d="M431 547L432 548L431 547M467 547L469 550L467 547M517.333 547.667L517.667 548.333L517.333 547.667M593 547L594 548L593 547z"/>
<path style="fill:#5a5f16; stroke:none;" d="M178 548L178 549L194 554L194 553L178 548z"/>
<path style="fill:#9ba237; stroke:none;" d="M181 548L184 550L181 548M255 548L256 549L255 548M428 548L428 550L430 550L428 548M432 548L433 549L432 548M463 548L465 550L465 548L463 548z"/>
<path style="fill:#e2ee1b; stroke:none;" d="M465 548L465 552L459 552L459 553L469 553L465 548z"/>
<path style="fill:#9ba237; stroke:none;" d="M590 548L591 549L590 548M626 548L628 550L628 548L626 548M630 548L631 549L630 548z"/>
<path style="fill:#5a5f16; stroke:none;" d="M196 549L196 550C212.324 553.931 228.714 554.012 245 550L245 549C227.462 551.265 213.574 551.233 196 549z"/>
<path style="fill:#9ba237; stroke:none;" d="M245 549L245 550L248 550L245 549M253.667 549.333L254.333 549.667L253.667 549.333z"/>
<path style="fill:#e2ee1b; stroke:none;" d="M331 549L329 553L331 549z"/>
<path style="fill:#9ba237; stroke:none;" d="M371 549L372 550L371 549M433 549L434 550L433 549z"/>
<path style="fill:#e2ee1b; stroke:none;" d="M518 549L517 553L518 553L518 549z"/>
<path style="fill:#9ba237; stroke:none;" d="M591.333 549.667L591.667 550.333L591.333 549.667M594.667 549.333L595.333 549.667L594.667 549.333z"/>
<path style="fill:#e2ee1b; stroke:none;" d="M628 549L626 552L626 553L631 552L631 550L630 549L628 549z"/>
<path style="fill:#9ba237; stroke:none;" d="M631 549L632 550L631 549z"/>
<path style="fill:#e2ee1b; stroke:none;" d="M725 549L724 552L725 549z"/>
<path style="fill:#9ba237; stroke:none;" d="M186.667 550.333L187.333 550.667L186.667 550.333M243.667 550.333L244.333 550.667L243.667 550.333z"/>
<path style="fill:#e2ee1b; stroke:none;" d="M248 550L249 551L248 550z"/>
<path style="fill:#9ba237; stroke:none;" d="M251 550L252 551L251 550z"/>
<path style="fill:#e2ee1b; stroke:none;" d="M299 550L299 552L301 552L299 550M369 550L373 553L369 550z"/>
<path style="fill:#9ba237; stroke:none;" d="M372 550L372 551L399 551L372 550z"/>
<path style="fill:#e2ee1b; stroke:none;" d="M400 550L395 552L395 553C397.484 552.882 400.488 552.959 400 550z"/>
<path style="fill:#9ba237; stroke:none;" d="M434 550L434 551L464 551L434 550M469 550L470 551L469 550z"/>
<path style="fill:#e2ee1b; stroke:none;" d="M478 550C480.48 553.825 484.808 553 489 553L489 552L478 550M531 550L531 552L533 552L531 550M560 553L563 550L560 553z"/>
<path style="fill:#9ba237; stroke:none;" d="M596 550L596 551L627 551L596 550z"/>
<path style="fill:#e2ee1b; stroke:none;" d="M636.333 550.667L636.667 551.333L636.333 550.667z"/>
<path style="fill:#9ba237; stroke:none;" d="M188.667 551.333L189.333 551.667L188.667 551.333M199 551L199 552L205 552L199 551M237 551L237 552L242 552L237 551M249.667 551.333L250.333 551.667L249.667 551.333M332 551C324.88 556.394 306.825 553 298 553L298 554L324 554C326.726 553.999 332.633 554.838 332 551M430 551L431 552L430 551z"/>
<path style="fill:#e2ee1b; stroke:none;" d="M433 551L434 552L433 551z"/>
<path style="fill:#9ba237; stroke:none;" d="M470 551C462.289 556.842 441.601 553 432 553L432 554L462 554C464.602 554 471.544 555.094 470 551M592 551L593 552L592 551z"/>
<path style="fill:#e2ee1b; stroke:none;" d="M594 551L595 552L594 551z"/>
<path style="fill:#9ba237; stroke:none;" d="M632 551L633 552L632 551M634 551L633 553L635 553L634 551M192.667 552.333L193.333 552.667L192.667 552.333M205 552L205 553L210 553L205 552M233 552L233 553L237 553L233 552M246.667 552.333L247.333 552.667L246.667 552.333z"/>
<path style="fill:#e2ee1b; stroke:none;" d="M303 552L303 553L318 553L303 552M320 552L320 553L325 553L320 552z"/>
<path style="fill:#d0d75b; stroke:none;" d="M331 552L332 553L331 552M369 552L370 553L369 552z"/>
<path style="fill:#e2ee1b; stroke:none;" d="M376 552L376 553L390 553L376 552z"/>
<path style="fill:#9ba237; stroke:none;" d="M431 552L432 553L431 552z"/>
<path style="fill:#e2ee1b; stroke:none;" d="M434.667 552.333L435.333 552.667L434.667 552.333M437.667 552.333L438.333 552.667L437.667 552.333M446 552L446 553L456 553L446 552M493 552L493 553L499 553L493 552M503 552L503 553L509 553L503 552M512.667 552.333L513.333 552.667L512.667 552.333M536 552L536 553L542 553L536 552M543 552L543 553L558 553L543 552z"/>
<path style="fill:#9ba237; stroke:none;" d="M593 552L594 553L593 552z"/>
<path style="fill:#e2ee1b; stroke:none;" d="M596 552L597 553L596 552M601 552L601 553L609 553L601 552M620 552L620 553L625 553L620 552M639.667 552.333L640.333 552.667L639.667 552.333M645 552L645 553L649 553L645 552M655 552L655 553L696 553C685.25 548.489 666.696 552 655 552M704 552L704 553L711 553L704 552M715 552L716 553L715 552M722.667 552.333L723.333 552.667L722.667 552.333z"/>
<path style="fill:#9ba237; stroke:none;" d="M194 553L194 554L221 556.995L246 554L230 554.999L194 553M594 553L594 554L633 554C622.726 549.689 605.172 553 594 553M635 553L635 554L727 554L699 553L635 553z"/>
<path style="fill:#5a5f16; stroke:none;" d="M195 554L195 555L204 556L195 554M238 555L238 556L245 555L238 555M206 556L206 557L215 557L206 556M228 556L228 557L236 557L228 556z"/>
</svg>
