<?xml version="1.0" standalone="yes"?>
<svg xmlns="http://www.w3.org/2000/svg" width="1024" height="1024">
<path style="fill:#cfdd01; stroke:none;" d="M0 0L0 1024L1024 1024L1024 0L0 0z"/>
<path style="fill:#ffffff; stroke:none;" d="M490 426C486.857 439.2 486.347 452.774 482.573 466C474.61 493.903 459.483 519.504 439 540L430 516C445.594 512.983 454.699 490.171 442.786 478.213C434.648 470.044 421.443 472 411 472C407.616 472 401.547 470.837 399.514 474.318C396.229 479.943 396.58 489.634 395.389 496C392.045 513.875 388.328 531.97 386 550C388.891 550 393.849 550.907 396.258 548.972C401.124 545.066 401.875 525.068 402 519C406.53 519 414.676 517.434 418.581 520.028C424.567 524.005 431.133 547.551 425.927 552.385C399.623 576.807 357.878 592.901 322 593L322 596C359.961 596 393.38 587.819 425 565.975C435.892 558.45 445.761 549.142 454.246 539C458.359 534.083 462.591 525.206 468.184 522.028C474.123 518.654 486.278 521 493 521C486.872 544.685 481.928 571.609 480 596L503 596L515 525L508 522L508 521L541 521L529 596L592 596L595 578L554 578L558 557C565.309 557 585.535 560.567 591.258 555.972C594.688 553.219 594.674 543.123 595 539L561 539L564 521L605 521L608 503L478 503C485.642 476.269 493.215 454.299 492 426L490 426M168 527L157 527C157.073 553.362 199.631 561.155 210.005 537C216.468 521.953 205.169 511.068 192 506.064C186.055 503.805 175.912 501.069 175.924 493C175.949 475.301 205.56 476.297 206 495L217 495C216.927 468.625 176.914 460.568 166.367 485C159.833 500.136 172.076 510.576 185 515.305C191.058 517.521 201.225 520.721 200.551 529C199.09 546.933 168.539 545.15 168 527M281 472L270 472C268.091 487.024 265.264 502.092 262.576 517C261.143 524.942 259.872 532.897 252.91 538.008C244.238 544.373 229.877 542.226 228.189 530C225.866 513.174 232.944 488.463 237 472C221.783 472 223.977 483.184 221.75 496C219.517 508.855 212.69 527.693 219.417 539.999C230.532 560.333 262.451 550.99 270.12 533C273.519 525.027 273.99 515.491 275.414 507C277.345 495.484 280.499 483.675 281 472M286 472L273 550L284 550L289 520C300.951 520 315.415 521.845 325.999 515.03C338.204 507.171 342.39 484.864 328.985 475.969C317.701 468.482 298.952 472 286 472M346 472L333 550L382 550L383 541L345 541L350 514L383 514L384 505L352 505L356.6 482.603L367 481L393 481L394 472L346 472z"/>
<path style="fill:#f9fbf1; stroke:none;" d="M205 473L206 474L205 473M345 476L346 477L345 476z"/>
<path style="fill:#cfdd01; stroke:none;" d="M291 510C296.818 510.25 302.152 511.26 308 510.421C311.829 509.871 315.693 509.542 318.985 507.297C325.945 502.549 329.712 489.53 321.891 483.703C317.633 480.53 312.005 481 307 481C303.955 481 298.222 479.945 296.013 482.603C291.849 487.615 291.277 503.558 291 510M409 481L404 509C411.487 509 421.135 510.638 427.996 507.161C436.185 503.01 441.226 488.983 431.895 483.089C425.79 479.234 415.903 481 409 481z"/>
<path style="fill:#f9fbf1; stroke:none;" d="M175 492L176 493L175 492M164 494L165 495L164 494M221 497L222 498L221 497M341 499L342 500L341 499z"/>
<path style="fill:#ffffff; stroke:none;" d="M812 565L790 565C790.004 599.081 844.236 611.603 858.647 580C866.438 562.917 854.711 549.38 840 542.258C834.415 539.555 824.15 537.643 821.917 530.96C819.865 524.819 828.801 519.37 834 519.37C840.975 519.37 844.083 524.911 845 531L867 531C866.978 497.491 813.569 489.25 800.532 519C793.036 536.107 805.55 548.746 820 555.742C825.804 558.551 835.942 560.607 837.522 568.004C839.191 575.813 829.412 580.473 823 579.28C815.459 577.877 812.621 572.071 812 565M597 596L618.411 594.972L622.08 581L629 540L630 540L644.576 580L651.419 594.972L673 596L689 503L666 503L657 559C650.068 546.807 646.178 532.11 641.192 519C639.631 514.894 638.238 506.655 634.49 504.028C631.115 501.662 614.709 501.423 612.564 505.318C608.494 512.709 608.636 525.68 607.247 534C603.855 554.314 597.884 575.419 597 596M678 596L701 596L710 539L711 539L725.681 580L732.51 594.972L754 596L770 503L747 503L738 559C731.34 546.494 727.618 532.164 722.399 519C720.749 514.84 719.346 506.677 715.501 504.028C712.116 501.696 695.859 501.389 693.728 505.318C689.555 513.01 689.686 526.366 688.247 535C684.887 555.16 679.61 575.624 678 596M775 503L759 596L782 596C784.392 565.736 790.737 532.481 798 503L775 503z"/>
<path style="fill:#f9fbf1; stroke:none;" d="M851 504L852 505L851 504M176 511L177 512L176 511M720 514L721 515L720 514M262 517L263 518L262 517M772 517L773 518L772 517M209 518L210 519L209 518M317 518L318 519L317 518M337 522L338 523L337 522M685 522L686 523L685 522M643 525L644 526L643 525M211 531L212 532L211 531M197 536L198 537L197 536M255 536L256 537L255 536M768 540L769 541L768 540M261 544L262 545L261 544M844 544L845 545L844 544M333 545L334 546L333 545M681 545L682 546L681 545M810 550L811 551L810 550M715 552L716 553L715 552M764 563L765 564L764 563M815 576L816 577L815 576M858 580L859 581L858 580M760 586L761 587L760 586M797 587L798 588L797 587M729 589L730 590L729 589M839 595L840 596L839 595z"/>
</svg>
