<svg xmlns="http://www.w3.org/2000/svg" viewBox="0 0 283.46 283.46"><defs><style>.cls-1{fill:#ee3a43;}.cls-2{fill:#fff;}</style></defs><title>theqyou</title><g id="Layer_2" data-name="Layer 2"><g id="Other"><g id="theqyou"><rect class="cls-1" width="283.46" height="283.46"/><g id="logo"><path class="cls-2" d="M90.69,114.53c-.14,0-.3,0-.3.16s.22.27.39.29.32-.07.3-.25-.26-.17-.39-.2M46.59,134.6c0-.15.1-.39-.15-.31s-.26.42-.32.66,0,.49.2.42c.35-.11.14-.52.27-.77m66.93,4.76a2.63,2.63,0,0,0,.25,2.09,2.79,2.79,0,0,0-.25-2.09m.12-.87a5.36,5.36,0,0,0-.39-2c-.85.92.25,1.37.39,2m-28-24.21c1,.23,2,.42,2.9-.4a8.66,8.66,0,0,1-2.9.4M72.73,180.46c.89,1.36,2.11.9,3.22.95l-3.22-.95M49.22,126.19c-1,.88-1.8,3.8-1.38,4.83.42-.8.06-1.7.46-2.47s.62-1.58.92-2.36m31.85,56.37a11.47,11.47,0,0,0-3.54-.54,5.72,5.72,0,0,0,3.54.54m.71-67.15c.09.07.14.13.19.14a4.14,4.14,0,0,0,2.33-.94.25.25,0,0,0,0-.33c-.17-.14-1.2-.12-1.29.06a2.57,2.57,0,0,1-1.2,1.07m-30,4.37c-.41.1-.41.1-.51.22a8.24,8.24,0,0,0-1.41,3.7,1,1,0,0,0,0,.29c0,.15.14.2.29.12a4.64,4.64,0,0,0,1-2c-.22-.06-.26.3-.58.23,1-.64.46-1.8,1.15-2.51m45-3.65c0,.25.22.25.34.28s.24.3.18.47-.27,0-.41,0-.25-.09-.26-.15c-.17-1-1-1.06-1.73-1.31-.5-.19-1-.38-1.08.46-.08-.64-.54-.83-1-1-.56-.31-.82.39-1.31.39s-.06.27-.1.45c-.19,0-.38-.23-.58,0a7.85,7.85,0,0,0,2.48.69c.07,0,.16,0,.17,0,.35-.52.53-.07.72.11a2.32,2.32,0,0,0,1.31.75,5,5,0,0,1,2.08.67c.92.71,2,.38,3,.8-.15-.4-.64-.45-.62-1,0-.41-1-.7-1.5-.55-.13,0-.23.06-.27-.12a1.42,1.42,0,0,0-1.43-.9m-51.29,24,.2.06c.27-.91.88-1.81.38-2.77a5.67,5.67,0,0,1-.32-1.36s-.06-.05-.11-.09c-.1.14-.21.27-.41.51.09-.34.14-.54.19-.74a.51.51,0,0,0,0-.58c-.08.11-.14.17-.15.25a16.34,16.34,0,0,0-.57,4.52c0,.11,0,.3.08.34.45.26.27.65.14.92a7.32,7.32,0,0,0-.24,4.32,17.39,17.39,0,0,1,.51,2.63c-.08,2,1,3.57,1.77,5.25,0,0,.08,0,.15,0,0-.65-.44-1.18-.47-1.84.21.12.13.4.35.5a1,1,0,0,0,.12-.79c-.12-.66-.27-1.32-.42-2,0-.15,0-.35-.28-.33s-.4-.39-.13-.63.16-.29.17-.47a12.4,12.4,0,0,0-.14-1.92c0-.15,0-.42-.19-.37s-.11.3-.08.45c.1.39.17.74-.34.92-.08-.46-.36-.95-.08-1.37a2.73,2.73,0,0,0,.41-1.2,29.67,29.67,0,0,0,0-3.4c0-.15,0-.3-.17-.35s-.42,0-.55.36a2.9,2.9,0,0,1,.15-1.22,2.71,2.71,0,0,1,0,.37m60.08-16.39c.27.52.19,1.12.48,1.59s.18.45-.17.65c-.72.38-.66.39-.18,1a9,9,0,0,0,1.93,1.76c.15-.64-.81-1-.39-1.62.8.18.8.18,1.17.9.12.25.26.6.59.55.59-.1.57.25.62.63a9,9,0,0,0,1.33,3.32c.08.1.15.3.38.21.05,0,0-.29.16-.09s.09.19,0,.23c-.55.27-.24.77-.27,1.16a1.37,1.37,0,0,0,1.11,1.15.24.24,0,0,0,.27-.28,5.29,5.29,0,0,0-.11-2.05c-.38-1-1-1.93-1.26-3a4.2,4.2,0,0,0-.81-1.47c-.17.3.13.5,0,.75a15.65,15.65,0,0,1-1.28-2c-.11-.2,0-.47.12-.44.33.07.3-.11.14-.2-.45-.24-.45-.71-.69-1.06a27.57,27.57,0,0,0-4.22-4.68c-.1-.09-.17-.26-.35-.16a.43.43,0,0,0,.16.39,17.19,17.19,0,0,0,3,3.28,2.61,2.61,0,0,1,1,1.3,3.3,3.3,0,0,0-1.56-.47c.59.41.51,1.11,1,1.51-1.19-.65-1.09-2.2-2.16-2.94M55.14,171.26a4.63,4.63,0,0,1,1.82,1,5.24,5.24,0,0,0,1.17,1.18c.17.11.37.28.56.2.52-.25.8.07,1,.4a13.92,13.92,0,0,0,5.06,4.08,2.16,2.16,0,0,0,1.2.35c0-.31-.41-.27-.51-.55.51.2,1,.4,1,1,1.08.8,2.09,1.79,3.64,1.37.12,0,.27,0,.3-.18a.24.24,0,0,0-.13-.26c-.81-.38-1.34-1.15-2.15-1.53-1.4-.63-2.67-1.5-4-2.2a13.56,13.56,0,0,1-2.19-1.7c-.5-.4-1-.76-1.52-1.15a.81.81,0,0,1-.09.1l.61.75a13.15,13.15,0,0,1-3.17-2.56c-.14-.15-.28-.34-.13-.56s.18-.23,0-.3c-.67-.36-1-1-1.46-1.59a38.64,38.64,0,0,1-5.87-8.77,1.22,1.22,0,0,0-.44-.64,3.56,3.56,0,0,0,.43,1.55c.38.77.89,1.5,1.19,2.3a9.18,9.18,0,0,0,2.05,3,14.39,14.39,0,0,1,2.26,2.72,6.53,6.53,0,0,0-2.08-1.12c.84.7,1,1.87,1.9,2.52-2-1.27-2.5-3.68-4-5.35.66,1.12.71,2.48,1.56,3.48-.23.18-.64,0-.63.52,0,.15-.36.22-.08.56a19.86,19.86,0,0,0,2.74,2.76c.56.44,1.24.71,1.79,1.19a1.81,1.81,0,0,0-1-1.23c-.16-.08-.49-.16-.43-.27.23-.49-.27-.65-.35-1.1m49.57-13.64c0,.28-.06.56-.09.85s.07.33.3.26,1.18-1.32,1-1.65c-.35-.66.34-1.16.16-1.77,0-.14.19-.2.3-.29.47-.4,1-.77,1.11-1.43a5.46,5.46,0,0,1,.75-2.09c.06-.1,0-.28.2-.26s.11.18.13.28,0,.5.26.34c.49-.36,1.15-.64,1.33-1.29a30.75,30.75,0,0,0,1-4.26c0-.15,0-.29-.08-.4a2,2,0,0,1-.34-1.35,13.89,13.89,0,0,0-.1-2.65c.81.16.8.16,1,.61a.73.73,0,0,1-.19.9c-.2.18-.41.35-.2.6s.33-.16.52-.18a.6.6,0,0,1,.21,0,2.48,2.48,0,0,0-.06,1.45c.15.73.64,1.41.42,2.21-.07.32.16.29.33.09s.38-.32.38,0a2.63,2.63,0,0,1-.78,2.18.89.89,0,0,0-.42,1.2c-.87-.58-1-.5-1.16.48a1.82,1.82,0,0,1-.67,1.09,1,1,0,0,0-.13,1.48c.1.07.25.2.32.09.46-.64.52,0,.8.25,1.7-3.56,2.91-7.2,2.37-11.29-.5.43-.51,1.08-.91,1.53a1.17,1.17,0,0,0-.45-1.49s0,0,0-.06c0-1.15-.65-2.16-.8-3.29,0-.14-.06-.47-.28-.39-.74.34-.33-.21-.35-.41a4.14,4.14,0,0,0-.53-2.19c-.29-.43-.28-.77.09-1.06a.74.74,0,0,0,.17-1.07,2.06,2.06,0,0,0-.54-.83,2.27,2.27,0,0,1-.86-1.84.83.83,0,0,0-.8-.92c-.5-.09-.94-.54-.78-1,.22-.59-.14-.85-.39-1.18-.43-.58-.93-1.11-1.38-1.66s-1.1-.8-.56-1.57a.3.3,0,0,0,0-.13c-.52-.94-.34-2.16-1.45-2.9-.5-.32-.65-.14-.71.14-.16.62-.53.37-.86.3a2.58,2.58,0,0,1-.46-.18c-.06,0,0-.07,0-.12l.49.09c-.06-.3-.39-.5-.28-.72.38-.71-.2-.87-.6-1.07-.23-.1-.41-.19-.36-.39s.33-.2.5-.21a1.31,1.31,0,0,1,.47.16c.37.14.73.28,1.11.4.14,0,.34.09.41-.12s-.07-.25-.18-.35a1.69,1.69,0,0,0-1.09-.39,1.71,1.71,0,0,1-.89-.22c-.44-.3-.74-.92-1.44-.57,0,0-.14-.12-.22-.2a3.54,3.54,0,0,0-2.53-.13c.36.18.72.32,1,.52s.59.5.89.74a2.14,2.14,0,0,0-.1.22,15.23,15.23,0,0,0-2.14-.87.2.2,0,0,1-.08-.08,2.86,2.86,0,0,0-2.45-1.15.63.63,0,0,1-.41-.1,1.93,1.93,0,0,0-1.56-.1.63.63,0,0,1-.77-.22,2.51,2.51,0,0,0-1.62-1,5.34,5.34,0,0,0-3.64.37c-.11-.28.17-.3.21-.45a6.75,6.75,0,0,0-2.51-.56c-.26,0-.54.14-.77-.16s-.47,0-.54.15c-.16.31-.07.79-.61.86-.06,0,.07.16.14.23s.36.27.26.5-.4.17-.62.12a2.42,2.42,0,0,0-1.26-.14c.08-.91,1-.51,1.37-1,0-.18-.43,0-.23-.31s.2-.27.11-.44-.29-.18-.48-.18a1,1,0,0,0-.77.35c-.32.44-.89.64-1.13,1.15-.08.17-.24.18-.42.18-.67,0-1,.35-.81,1,0,.21.08.47-.09.58-.6.37-.84,1.13-1.59,1.35-.55.17-1,.49-1.58.7a9,9,0,0,0-3.6,2.41.81.81,0,0,1-1.27.08c.58.12.41-.48.72-.54a1.7,1.7,0,0,0,1-.74c.08-.1.19-.21.3-.15.58.4.37-.11.4-.33s.91-.83,1-.7c.28.63.38,0,.51-.07s.37-.31.58-.37a2.8,2.8,0,0,0,1.36-.89,1.07,1.07,0,0,1,1-.32.63.63,0,0,0,.79-.61c.11-.84.22-1.69.37-2.52.08-.51,0-.63-.53-.46-1.54.55-3.09,1.08-4.59,1.73-.12.06-.25.21-.46.07.15-.34.4-.74.7-.6s.58,0,.83-.11c.47-.21.92-.44,1.4-.66a6.74,6.74,0,0,0,1.5-.85c.07,0,.2-.1.15-.23a.24.24,0,0,0-.26-.14,2,2,0,0,0-.41.1,29.91,29.91,0,0,0-4,1.77c-.31.17-.61.41-.57.75s-.21.5-.49.65c-.48.25-1.08.32-1.4.83s-.91,1.13-1.24,1.78a.91.91,0,0,1-.73.47c-.61.1-1.31.39-1.47,1s-.74,1-1.16,1.45c-.19.21-.5.35-.65.58a.8.8,0,0,1-.77.42c-.37,0-.82.11-.51.68s0,.78-.38,1a1.55,1.55,0,0,0-.71,1.38,3.63,3.63,0,0,1-.57,2.28c-.29.57-.54,1.16-.8,1.75-.08.2-.13.39-.38.44-.5.13-1,.33-.83,1,.11.47-.13,1.08.24,1.42s.15.58,0,.83a4,4,0,0,1-.62.61,1.78,1.78,0,0,0-.59,2,2.76,2.76,0,0,1-.12,1.51,5.6,5.6,0,0,0,0,2.93c.06.22.22.45.11.71-.19,0-.21-.32-.41-.2s-.06.26,0,.4a6,6,0,0,0,1.06,2.81.73.73,0,0,1,.17.83c-.27-.14-.39-.63-.66-.46s.2.5.07.83c-.5-.28-.44,0-.33.34.15.53.12,1.13.74,1.39-.16.79.6,1.22.75,1.9,0,.15.1.35.31.32s.05-.28.18-.4c.2.14.38.37.34.55-.12.77.34,1.34.58,2,.05.15.16.31.08.48s0,.51.16.72a21.16,21.16,0,0,0,3.56,4.27,1.11,1.11,0,0,1,.43.87c0,.4.2.52.41.73.76.73,1.8,1,2.5,1.85a13.75,13.75,0,0,0,3.32,2.74,13.42,13.42,0,0,0,4,1.66c1,.25,2.06.45,3.1.67-.18.12-.49.12-.48.36s.35.22.54.31a.92.92,0,0,0,.37,0c.65,0,1.32-.15,1.91.37.26.23.71.17,1.08.13s.86-.16,1.29-.23a4.07,4.07,0,0,1,1.52-.11c-.71.24-1.31.44-2,.64a1.56,1.56,0,0,0,1.31.55,28.6,28.6,0,0,0,15.65-3.93,8.62,8.62,0,0,0,3.68-3.37,8.4,8.4,0,0,1,.73-1.26,3.46,3.46,0,0,0,.61-1.23.73.73,0,0,0-.61.39c-.5.89-1.37,1.52-1.75,2.52-.05.15-.13.4-.37.32a1.26,1.26,0,0,0-1.22.15,10.77,10.77,0,0,1-3.39,2.16c-.42.11-.78.75-1.28.12,0-.07-.2.13-.33,0a8.55,8.55,0,0,1,2.31-1.4,2.45,2.45,0,0,0,.94-.59c.21-.16.27-.39.07-.56s-.26-.16-.07-.3.45-.41.56-.23c.32.52.59,0,.85,0s.61-.21.4-.68c0-.07.11-.36.22-.4.31-.07.48-.33.76-.46a1.37,1.37,0,0,0,.9-1.56.7.7,0,0,1,.19-.6c.43-.56,1.13-.85,1.41-1.54M42.52,137.44a4.7,4.7,0,0,0,1-3.57,3.1,3.1,0,0,1,.16-1.41,5.44,5.44,0,0,0,0,2,61.62,61.62,0,0,0,2.14-8.94c.31.14.15.43.35.44s.21-.17.28-.29a41.38,41.38,0,0,0,2.8-4.52c.06-.11.09-.22.3-.25s.78-.84.73-1.15c0,0,0,0,0,0-.93-.56.09-.91.15-1.35a1.32,1.32,0,0,0,0-.16c-.26,0-.39.2-.58.27s-.33.14-.46,0,0-.27.06-.4a5.05,5.05,0,0,1,1.5-1.62,5,5,0,0,0,1.13-1.33,1.82,1.82,0,0,1-.53,1.7,6.76,6.76,0,0,0-.9,1.55c.29,0,.33-.27.54-.3.1.14,0,.25,0,.38s0,.28.16.36.27-.06.36-.16A5.37,5.37,0,0,0,53,116.55s0,0,0-.06A15,15,0,0,0,54,114a.72.72,0,0,1,.33-.44c.74-.25.92-1,1.42-1.5a.28.28,0,0,0,0-.44c-.59-.51-.23-1,.12-1.39a1.3,1.3,0,0,1,.65-.55,39.41,39.41,0,0,0-.14,4.54,35.35,35.35,0,0,1,6.74-5.36c-.9.88-2,1.53-2.92,2.37a12,12,0,0,0-2.26,2.56,1.82,1.82,0,0,0,1.14-.64,22.22,22.22,0,0,1,3.09-2.56c.36-.22.79-.43.82-.93a.39.39,0,0,0,.47,0,20.27,20.27,0,0,0,2.21-1.48c.11-.09.26-.21.27-.32.08-.89.8-1,1.42-1.23a23.43,23.43,0,0,0,4.77-2.59,5.35,5.35,0,0,1,3-.84,4.36,4.36,0,0,0,2.41-.44,7.41,7.41,0,0,1,3.86-.68c.19,0,.38,0,.57,0a2.24,2.24,0,0,1,2,.3.9.9,0,0,0,1.29-.19c.48-.6,1.12-.38,1.68-.26a6.46,6.46,0,0,0,3.49-.08,5.52,5.52,0,0,1,3,0A38.39,38.39,0,0,1,97.88,103a1.13,1.13,0,0,1,.67.49,2.24,2.24,0,0,0,1.88,1.11c.52,0,1,.18,1.54.23.32,0,.75.43,1-.18a2.16,2.16,0,0,1,.33.09,4.51,4.51,0,0,1,1.82,1.53,6.31,6.31,0,0,0,3,2.06,6.33,6.33,0,0,1,2.35,1.56,33.76,33.76,0,0,0,4.14,3.5c.28.17.63.31.78.66-.23.16-.37-.1-.64,0a12.25,12.25,0,0,0,.91,1c1.14,1.07,2.31,2.13,3.54,3.11a2.77,2.77,0,0,1,.86,1.2c-.43-.16-.68-.64-1.21-.58.19.55.75.77.94,1.28-.14.14-.29-.09-.58,0,.85.68.88,1.89,1.92,2.37a.54.54,0,0,1,.29.36c.32,1.43,1.57,2.33,2,3.83.25-.44.06-.69.08-1a3,3,0,0,1,.7,1.64,5.59,5.59,0,0,0,.47,1.66,5.94,5.94,0,0,1,.52,1.77c-.09,2,.94,3.7,1.2,5.61s.59,3.77.75,5.7a2.75,2.75,0,0,1-.42,2,1.14,1.14,0,0,0-.07.53c0,.92,0,1.83.06,2.74a13.82,13.82,0,0,1-1,5.39c-.39,1.22-.87,2.4-1.17,3.64,0,.05,0,.08,0,.12-.15.26-.5.48-.36.81s.5.46.79.69a67.61,67.61,0,0,0,6.87,4.05c1,.61,2.09,1.24,3.19,1.89-.24.21-.54,0-.74.26a5.57,5.57,0,0,0,1.39.94,7.08,7.08,0,0,1,.68.32,8.34,8.34,0,0,1,2.1,1.54,24.18,24.18,0,0,0,3,2.22,6.29,6.29,0,0,1,2.33,2.89,10.54,10.54,0,0,0-2.75-2.65,2.69,2.69,0,0,0,.57,1.3,7.81,7.81,0,0,1,1.71,4.58,8.75,8.75,0,0,1-1.62,5.42,8,8,0,0,1-7.37,3.53,10.67,10.67,0,0,1-5.37-2.22c-2-1.38-3.9-2.87-5.87-4.26a16.86,16.86,0,0,0-5.23-2.42c-.7-.19-1.34-.7-2.07-1-.24-.09-.46-.27-.78-.18a1,1,0,0,0,.62.63,15.26,15.26,0,0,1,2.76,1.33,11.82,11.82,0,0,0,2.06.75c.24.12.56.13.33.54,0,.09,0,.19.13.26a11,11,0,0,0,1.64,1.47,31.47,31.47,0,0,1,3.81,2.53c.57.45,1.1,1,1.69,1.4a3.31,3.31,0,0,0,1,.52c.41.11.8.23.63.81-.06.2.16.27.3.34l1.07.43a2.1,2.1,0,0,1-1.11-.26,29.08,29.08,0,0,1-3.19-1.64c-.7-.45-1.24-1.13-1.93-1.62-.29-.23-.61-.43-.92-.63a.65.65,0,0,0-.59,0c-.2.09.2.23,0,.43a8.12,8.12,0,0,1-1.26-.84c-.07-.06-.21-.18-.07-.21.59-.18.12-.32,0-.45-.3-.29-.58-.59-.89-.88s-.28-.14-.71-.14a1.73,1.73,0,0,1-1.23-.5,11.07,11.07,0,0,0-2.75-1.9.93.93,0,0,0-.9,0,.79.79,0,0,1-1-.24c-.24-.26-.47-.49-.81-.14.11-.27.23-.56.33-.86,0-.07.09-.19,0-.27a.19.19,0,0,0-.28,0c-.57.54-1.39.9-1.31,1.89a.47.47,0,0,1-.29.5,2.81,2.81,0,0,0-1.07,1,2.28,2.28,0,0,1-1.27,1,18.11,18.11,0,0,0-4.64,2.55,2.54,2.54,0,0,1-1.4.71,4.56,4.56,0,0,0-1.59.68.73.73,0,0,1-.8,0c.22-.14.46-.27.68-.4s.36-.17.29-.35-.27-.1-.43-.09a16.86,16.86,0,0,0-4.2.75,40.09,40.09,0,0,1-7.15,1.44,2.55,2.55,0,0,0-1.15.37,3.88,3.88,0,0,1-1.79.39c-2,.17-4,0-5.94.09,0-.64.37-.78.89-.83a3.4,3.4,0,0,1,2.54.41,1,1,0,0,0,1-.07c-.12-.36-.56-.25-.8-.68,1.77.43,3.27-.18,4.85-.68-.17-.25-.37-.13-.51-.22a12.71,12.71,0,0,0,2.78-.46c-.21-.36-.48-.17-.7-.22s-.31,0-.32-.2.17-.13.27-.18c.43-.2,1,0,1.35-.42a4.83,4.83,0,0,0,1.78-.1c.45,0,1-.27,1.33,0,.56.39.92.11,1.33-.15.13-.09.22-.31.41-.2s.12.24,0,.4.11.23.22.28a.91.91,0,0,0,.88-.09c.85-.6,2-.48,2.81-1.06.09-.07.16-.1.23,0s.36.1.54,0a3.75,3.75,0,0,0,1.17-.8c.23-.22.55-.51.32-.84s-.49.07-.75.12c0,0-.06,0-.1,0-.37-.34.22-.5.17-.81-.63.26-1.22.51-1.79.77a45.47,45.47,0,0,1-8.55,2.48c-2.15.28-4.28.6-6.43.83-.82.09-1.65,0-2.49.12a8.09,8.09,0,0,0,2.78.8.4.4,0,0,1-.54.18,1.93,1.93,0,0,0-1.91.28.81.81,0,0,1-.41.07c-1.33,0-2.65.12-4,.14a9.9,9.9,0,0,1-2.77-.19.9.9,0,0,0-.7,0c0,.25.32.22.28.48a1.89,1.89,0,0,1-.87-.18,24.89,24.89,0,0,0-5.23-1.38,1.76,1.76,0,0,1-1.49-1.17,1.22,1.22,0,0,0-.87-.86c-1.07-.37-2.12-.84-3.21-1.11a7.52,7.52,0,0,1-3.31-2.2,1.85,1.85,0,0,0-1.2-.6,3.71,3.71,0,0,1-2.67-1.4c-.06-.08-.54-.25,0-.45.08,0-.16-.23-.28-.34-1.05-.94-2.13-1.84-3.16-2.79a21.66,21.66,0,0,1-3.08-3.47c-.13-.16-.34-.31,0-.58s0-.47-.06-.7c-.28-.71-.59-1.41-.87-2.11a6,6,0,0,1-.41-1.17,3.5,3.5,0,0,0-1-2c-.27-.28-.18-.82-.57-1.08-.08.36-1,.34-.37,1a7,7,0,0,1-1.91-2.41c.48.28.57.72.9,1,.06-.27-.1-.45-.13-.65-.09-.37-.4-.78.14-1.07.14-.07.08-.27,0-.41a6,6,0,0,0-.74-1.7c-.3-.33-.07-.75-.17-1.07.78.39,1,1.25,1.41,1.93.23.37.46.74.7,1.1.15.2.3.58.59.4s0-.45-.08-.66a6.66,6.66,0,0,0-1-1.6,3.87,3.87,0,0,1-1.1-2.67c0-.06,0-.15,0-.18-.86-.8-.89-2-1.35-2.93s-.81-2.08-1.35-3.07c0,0-.06,0-.19-.12.42,1.67.52,3.31.78,5a3.19,3.19,0,0,1-.62-1.56c-.14-.8-.49-1.55-.59-2.34a21.6,21.6,0,0,1-.09-4.18,5.69,5.69,0,0,0-.26-2.25,2.75,2.75,0,0,1,0-1.24,12.81,12.81,0,0,0-.37-3.91v-.25Z"/><path class="cls-2" d="M240.94,141.27c-.15,1.58-.85,3-.77,4.68.07,1.46,0,2.94-.08,4.4a6.26,6.26,0,0,0,.38,2.61.69.69,0,0,1-.28.95,1.71,1.71,0,0,0-.65,1.23c0,.33-.2.57-.58.56s-.45.07-.49.36-.2.26-.36.3A1.68,1.68,0,0,0,237,157a.79.79,0,0,1-1.07,0c-.31-.17-.61-.28-.9,0s-.39.06-.56,0a2.54,2.54,0,0,0-1.73-.27,1.72,1.72,0,0,1-1.6-.49,6.85,6.85,0,0,1-2-2.9c-.25-.69-.54-.8-1.15-.38a39,39,0,0,1-5.85,3.1,2.36,2.36,0,0,1-1.94.35c-.38-.13-.71.24-1.05.43a4.82,4.82,0,0,1-2.28.35,27.08,27.08,0,0,1-6.79-.34,20.43,20.43,0,0,1-2.19-.65c-.49-.19-1.05-.31-1.24-.92,0-.07-.16-.12-.25-.14a3.94,3.94,0,0,1-2.38-2.36,7.9,7.9,0,0,0-1-2c-1.78-2-1.93-4.49-2.36-6.9a88.85,88.85,0,0,1-1.17-10.7c-.24-5.28-.39-10.57-.14-15.85a48.54,48.54,0,0,1,1.71-10.93c.53-1.84,1.4-3.54,3.3-4.34a7.61,7.61,0,0,1,7.44.69c1.71,1.12,2.12,2.91,1.91,4.87a47,47,0,0,1-1.09,5,.89.89,0,0,1-.22.43,1.44,1.44,0,0,0-.38,1,51.27,51.27,0,0,1-.38,5.68c-.08,2.34-.28,4.65-.37,7-.11,3.32-.23,6.65-.27,10a20.48,20.48,0,0,0,.54,4.42,39.68,39.68,0,0,0,1.2,5.48,5.87,5.87,0,0,0,.77,1.69,1.54,1.54,0,0,0,1.66.68,8.11,8.11,0,0,0,2.95-1.23,23.74,23.74,0,0,0,7.27-6.91,6.71,6.71,0,0,0,1-2.14,5.1,5.1,0,0,1,1.4-2.51,4.29,4.29,0,0,0,1.29-3.28,134,134,0,0,0-.79-15.26,3.12,3.12,0,0,0-.52-1.88.41.41,0,0,1-.06-.34,22.45,22.45,0,0,0-.33-4.33,8.8,8.8,0,0,1,0-1.92,3.2,3.2,0,0,1,3.15-2.72,11.26,11.26,0,0,1,3.47.45,1.8,1.8,0,0,0,1.21-.07c.39-.19.73.08.94.38a3.67,3.67,0,0,1,.46.82,1.58,1.58,0,0,0,1.3,1.08c.5.06.68.5.79.93a29.52,29.52,0,0,1,.64,3.72c.6,4.67.83,9.37,1.15,14.07.15,2.37.31,4.72.36,7.11a2.11,2.11,0,0,0,.12.79v5.57Z"/><path class="cls-2" d="M192.39,127.85a.51.51,0,0,0,.12-.8c-.06-.09-.2-.15-.26,0-.14.29,0,.53.14.84m-3.4-6a.31.31,0,0,0-.23-.34c-.17,0-.25.1-.26.25s0,.35.22.36.23-.12.27-.27m4.66,4.32c-.19-.06-.41-.07-.45.21s.15.32.26.23.58,0,.59-.34-.24-.12-.4-.1m-6.74,10a1.26,1.26,0,0,0,.19-1,.23.23,0,0,0-.29-.23c-.21,0-.22.17-.17.32s.17.58.27.86m-.49,4.88a14,14,0,0,1,.52-1.73.12.12,0,0,0-.08-.18.17.17,0,0,0-.17,0,1.84,1.84,0,0,0-.27,1.9m1.49-8.64a22.28,22.28,0,0,0-.39-4.35,24,24,0,0,0,.15,5.68c.32-.09.19-.38.37-.48.13.34-.08.74.35,1.14a39.89,39.89,0,0,0-.33-6.61c-.3,1.52.06,3.06-.15,4.62m-3.62,8.78a.9.9,0,0,0,.5-.89,4.27,4.27,0,0,1,.48-2.2,1.71,1.71,0,0,0,.37-1.2c0-.16.05-.34.06-.5.05-.74.49-1.36.59-2.1a66.17,66.17,0,0,0,.43-7.71,1.17,1.17,0,0,0-.05-.38c-.07-.19,0-.49-.18-.55s-.28.24-.38.4-.31.33-.52.28-.13-.32-.14-.48a7.37,7.37,0,0,0-.19-2.34.32.32,0,0,1,.11-.38,1.24,1.24,0,0,0,.22-1.1c-.13-.89-.64-1.71-.45-2.66a1.48,1.48,0,0,0-.42-1.47.84.84,0,0,1-.27-.6,6.17,6.17,0,0,0-2-3.88c-.21-.22-.51-.43-.36-.84.06-.16-.09-.26-.26-.21a.64.64,0,0,1-.46-.08,1.45,1.45,0,0,0-1.9.5,3.89,3.89,0,0,0-.6,1.35,10.41,10.41,0,0,1-.63,1.75,1.05,1.05,0,0,1-1.61.58,11.91,11.91,0,0,1-1.38-.7c-.21-.14-.43-.22-.6,0-.58.85-1.63.84-2.43,1.3a2.32,2.32,0,0,0-1,.94,12.06,12.06,0,0,0-1,2.41,42,42,0,0,0-1.55,8.7,26.21,26.21,0,0,0-.22,5,32.11,32.11,0,0,0,3.68,11.67,8.15,8.15,0,0,0,1.39,1.9,2.62,2.62,0,0,0,3.49.43,7.24,7.24,0,0,0,1.35-1.18c.92-.95,1.55-2.14,2.45-3.11.22-.24.41-.49.74-.11.18.21.32.06.42-.14.63-1.31,1.59-2.46,1.91-3.94a2.43,2.43,0,0,1,.44-1c.13.94-.31,1.7-.12,2.57m3.42-35.77c-.25.14-.54,0-.91.22.32.29.65.54.94.82a21.06,21.06,0,0,1,5.9,11.35c0,.22,0,.32-.2.43s-.29.52.05.56.37.3.41.53a16.73,16.73,0,0,1,.24,2.33,28.73,28.73,0,0,0,.42,4.55c0,.25.11.51-.21.61s-.51.5-.53.89c0,1.54-.1,3.06-.15,4.59,0,.51-.08,1-.08,1.55s-.57.47-.6.91-.25.49.21.7.47.79.69,1.21c.1.18,0,.44.3.55.16.07,0,.23-.09.28s-.38.17-.53.25c-.16-.11-.06-.25-.1-.36s-.06-.17-.16-.17-.12.1-.15.18c-.35,1-.34,2.16-.69,3.21a13.67,13.67,0,0,0,1-1.6c-.31,1.38-.77,2.71-1.06,4.11-.29-.78,0-1.7-.45-2.42a1.37,1.37,0,0,0-.49,1.79.47.47,0,0,1,0,.28c-.11.37-.33.72.09,1.05.16.13,0,.4-.07.58a12.83,12.83,0,0,1-2,3.42,26.67,26.67,0,0,1-7.45,7.18,7.59,7.59,0,0,1-1,.49c-.32.12-.66.21-1,.32,0,.28.3.09.37.25s-.21.1-.32.11a23,23,0,0,0-3.34.3c-1,.24-2-.18-3,.09a2.77,2.77,0,0,1-1.4-.22A39.16,39.16,0,0,1,166.3,154a7.17,7.17,0,0,1-2-1.68c-.8-.8-1.58-1.65-2.34-2.48-.07-.07-.19-.14-.22-.22-.72-1.93-2.23-3.38-3-5.3a25.65,25.65,0,0,1-2-11.9,60.84,60.84,0,0,1,3.08-15.55,24.38,24.38,0,0,1,5.82-9.68,12.28,12.28,0,0,1,8.61-3.7,53.57,53.57,0,0,1,9,.31,16.9,16.9,0,0,1,3.89,1.17c.18.07.4.14.47.38"/><path class="cls-2" d="M136.53,159.35c.1-.52.19-.93.25-1.37,0-.16.07-.38-.17-.45s-.31.08-.39.25-.22.35-.44.09-.33-.12-.49,0c-.45.29-.63,0-.72-.38a2.32,2.32,0,0,1-.1-.91c0-.38-.14-.53-.52-.46l-.66.11c-.69.14-.83,0-.7-.68a6.12,6.12,0,0,1,.61-2c.07-.11.2-.3.06-.37-.53-.31-.24-.7-.18-1.1.44-2.85,1.06-5.68,1.61-8.5.64-3.2,1.28-6.39,2.12-9.54a4,4,0,0,0,.26-2.51c-.08-.21-.12-.45-.38-.53-1.62-.47-2.54-1.83-3.64-3-2.76-2.86-5.49-5.78-8.28-8.61-.77-.79-1.7-1.45-2.45-2.29a5.15,5.15,0,0,1-1.36-3.24,1,1,0,0,1,0-.3,4.78,4.78,0,0,1,3.33-2.82c1.1,0,2.19,0,3.29,0a2,2,0,0,1,1.25.25.71.71,0,0,0,.47.12,2.62,2.62,0,0,1,2,.51,21.17,21.17,0,0,1,6.25,5.67,13.06,13.06,0,0,0,2.24,2.28c.65.5.73.47,1.12-.23a40.34,40.34,0,0,0,2.46-6.46c.74-2.22,1.45-4.44,2.31-6.61a20,20,0,0,1,1.84-3.44,1.73,1.73,0,0,1,1.89-.71,1.15,1.15,0,0,0,.72-.15,3.46,3.46,0,0,1,2.11-.12c1,.22,2.1.43,3.17.62a1.06,1.06,0,0,1,.81.47,1.22,1.22,0,0,0,1.36.64c.59-.11.68.19.71.68a9.32,9.32,0,0,1-1.08,4.66c-.28.55-.55,1.1-.88,1.63-1.74,2.81-2.31,6-3.37,9.08a112.74,112.74,0,0,0-3.74,13.64c-.84,4-1.46,8-2.51,12a7.25,7.25,0,0,0-.62,3.25,9.13,9.13,0,0,1-.76,4.73c-.12.34-.26.69-.71.79-.21,0-.28.27-.39.45a9.15,9.15,0,0,0-.79,2.2,3.94,3.94,0,0,1-2.86,3.19c-.41.13-.57.12-.59-.4s.3-.92-.11-1.33c.06-.07.14-.12.19-.19a.32.32,0,0,0,0-.34.2.2,0,0,0-.27-.1c-.62.39-1-.17-1.37-.41s-.45-.22-.6.09a2.23,2.23,0,0,1-.55.88.21.21,0,0,0,0,.23c.13.64.12.65-.68,1"/><path class="cls-2" d="M93.05,99.68c.38-.19.84,0,1.29-.36a20.15,20.15,0,0,0-3-.56,14,14,0,0,1-2.13-.39,2.5,2.5,0,0,0-1,0,43,43,0,0,0-8.63,2.38,10.63,10.63,0,0,1-3,.83c-.36,0-.72,0-.39-.54-.83,0-1.45.89-2.33.28,0-.1.13-.11.21-.16a45.68,45.68,0,0,1,6.16-3.43,6.77,6.77,0,0,1,2.64-.6c1.4,0,2.81,0,4.21,0,.06,0,.14,0,.19,0,2.11.8,4.4.48,6.55,1a10.86,10.86,0,0,0,1.41.17.35.35,0,0,1,.29.48c-.06.25.15.22.26.26.27.09.56.15.83.23.11,0,.27.09.2.25s-.18.1-.29.06c-.28-.07-.57-.13-.84-.22-.44-.14-.84-.21-1.13.28-.11.19-.29.19-.49.15l-1-.17"/><path class="cls-2" d="M108.08,104l-.36.1a3.93,3.93,0,0,0,1.8.92c.26.06.61,0,.26-.36s.08-.31.09-.47.23-.07.34,0a11.31,11.31,0,0,1,2.08,1.33.41.41,0,0,1,.12.59c-.16.33-.15.81-.69.85a1.48,1.48,0,0,1-.83-.19c-1.74-1-3.49-2-5.22-3,.81,0,1.6.22,2.41.26"/><path class="cls-2" d="M67.33,102a1.71,1.71,0,0,1-1.1,1.35c-.37.12-.69.39-1.06.5-.15,0-.42.58-.6,0,0-.11-.25,0-.36.13a15.7,15.7,0,0,1-3.06,2,3.44,3.44,0,0,0-1,.87,9.1,9.1,0,0,1-2,1.76c-.5.28-1.09.41-1.39,1.13a1.1,1.1,0,0,1,.33-1.26,31.53,31.53,0,0,1,6.28-4.37c1.12-.58,2.24-1.22,3.41-1.7.21-.08.44-.13.56-.35Z"/><path class="cls-2" d="M93.42,100.58a2.33,2.33,0,0,1-1.4.1,7.68,7.68,0,0,1-2.27-.28c-1.63-.65-3.31.07-4.94-.27-.13,0-.34.07-.36-.11s.18-.24.35-.24c1.8,0,3.57-.38,5.36-.3a1.22,1.22,0,0,1,.74.21,4.11,4.11,0,0,0,2,.67c.18,0,.37,0,.51.22"/><path class="cls-2" d="M107.86,102.88a3.83,3.83,0,0,1-2.76-.86,6.49,6.49,0,0,0-2.34-1.08c-.79-.26-1.57-.49-2.37-.71-.4-.1-.75-.22-.84-.73a7.33,7.33,0,0,1,2.12.55,7.11,7.11,0,0,0,1.74.83,2.2,2.2,0,0,0,1.39.16c.25-.08.46.15.68.26a12,12,0,0,1,2.38,1.58"/><path class="cls-2" d="M67.34,102a23.68,23.68,0,0,0,2.91-1.3,8.85,8.85,0,0,1,2.11-.64,1.07,1.07,0,0,1,.66.13c.36.17.33.41,0,.59a2.12,2.12,0,0,1-1.37.44c.33-.13.65-.27,1-.43.11,0,.23-.14.17-.28s-.22-.15-.36-.08a.77.77,0,0,0-.45.3.65.65,0,0,1-.61.33,5,5,0,0,0-2.73,1c-.52.37-.9,0-1.34-.06"/><path class="cls-2" d="M63.76,104.64c-.14.33-.33.58,0,.89s0,.35-.1.48c-.41.39-.7.89-1.44.81a7.94,7.94,0,0,0-1.49.31l3.06-2.49"/><path class="cls-2" d="M65.05,106.42a16,16,0,0,1,4.65-2.07l-.94.85c-.09.08-.16.21-.31.16-.84-.25-1.4.35-2,.7-.42.22-.78.58-1.37.36"/><path class="cls-2" d="M96.67,101.05a5.3,5.3,0,0,0,2.38.12c.52-.15.64.11.41.85a10.11,10.11,0,0,0-2.42-.8C96.91,101.18,96.75,101.22,96.67,101.05Z"/><path class="cls-2" d="M137.57,185.35c-1.24.58-2.46,1.27-4.06.85.62,0,1.08,0,1.54-.1a1.4,1.4,0,0,0,1.23-.53c.24-.34.86,0,1.29-.22"/><path class="cls-2" d="M63.59,109.23c0-.39-.27-.32-.5-.31a5.16,5.16,0,0,1,1.82-1,5.73,5.73,0,0,1-1.32,1.28"/><path class="cls-2" d="M134.28,185.26a5.94,5.94,0,0,1-3.46-1.06,20,20,0,0,0,3.46,1.06"/><path class="cls-2" d="M100.08,103.53c.75.26,1.38.46,2,.67-.66-.12-1.56.46-2-.67"/><path class="cls-2" d="M44.5,154.7c.32.71.65,1.42,1,2.17-.51-.18-.91-1.06-1-2.17"/><path class="cls-2" d="M48.08,121.55c.55-.55.62-1.47,1.56-2a6.45,6.45,0,0,1-1.56,2"/><path class="cls-2" d="M99.46,102a8,8,0,0,1,2.77.69,1.94,1.94,0,0,1-1.32-.2,6.2,6.2,0,0,0-1.45-.49"/><path class="cls-2" d="M97.17,100.35a6.66,6.66,0,0,1-1.64-.29c.53,0,1.1-.27,1.64.29"/><path class="cls-2" d="M45.44,157.87c.17.49.33,1,.5,1.49a3,3,0,0,1-.66-1.45l.16,0"/><path class="cls-2" d="M192.24,143.67c.11.37,0,.64.38.62.18,0,.19.13.17.26s-.17.19-.29.24a.18.18,0,0,1-.26-.17c0-.25,0-.48,0-1"/><path class="cls-2" d="M96.67,101.05c-.6,0-1.25.21-1.94-.32l1.94.32"/><path class="cls-2" d="M87.51,140.4a22.58,22.58,0,0,1-.48,3.31c-.26,1.28-.16,2.59-.5,3.86-.25.93-.53,1.15-1.48,1.14s-1.47-.46-1.31-1.56a23,23,0,0,1,.75-3.13,11.11,11.11,0,0,0,.43-3.16c0-1.35-1.26-1.62-2.16-1.4a2.81,2.81,0,0,0-2.19,2.13,15.39,15.39,0,0,0-.49,3.22,18.93,18.93,0,0,1-.42,2.94c-.22.84-.88,1.16-1.9.95-.77-.16-1.06-.59-.89-1.48.29-1.62.83-3.18,1.14-4.8a60.47,60.47,0,0,0,1-6.85,5.66,5.66,0,0,1,.28-1.52,1.49,1.49,0,0,1,2.35-.6c.5.45.33,1.07.22,1.64s-.38,1.21-.5,1.83c-.15.77.06,1,.81.84a5.42,5.42,0,0,0,1.23-.42,2.9,2.9,0,0,1,2.41,0c1.46.73,1.69,1.13,1.69,3"/><path class="cls-2" d="M95.38,141.9a6.1,6.1,0,0,0,1.73-.16c.81-.25,1-.6.58-1.37a1.31,1.31,0,0,0-.82-.7,3.27,3.27,0,0,0-3,.43,2,2,0,0,0-.59.7c-.23.4-.15.67.29.87a4.37,4.37,0,0,0,1.81.23m-.95,6.84a7.26,7.26,0,0,1-1.84-.17A4.14,4.14,0,0,1,90,143.79a9.51,9.51,0,0,1,1.24-3.74,5.86,5.86,0,0,1,4.57-2.79,4.36,4.36,0,0,1,4,1.59,4.92,4.92,0,0,1,.53,4.24,1.26,1.26,0,0,1-1.31.63,17.15,17.15,0,0,1-2-.13,20.62,20.62,0,0,0-3-.08c-.54,0-1.17,0-1.42.63a1.75,1.75,0,0,0,.62,1.88,3,3,0,0,0,3.22.07c.41-.28.79-.6,1.19-.89a1.69,1.69,0,0,1,1.86-.11c.31.36.07,1.42-.44,1.93a5.59,5.59,0,0,1-4.48,1.72"/><path class="cls-2" d="M69.83,146.37a23.6,23.6,0,0,1,.75-3.76c.08-.42.17-.85.23-1.29a2.43,2.43,0,0,0-.57-2.23,1,1,0,0,1,.08-1.45,1.75,1.75,0,0,1,.32-.29,2.07,2.07,0,0,0,1.08-1.88,2.18,2.18,0,0,1,1.82-1.77c.74-.08,1.11.26,1,1a5.41,5.41,0,0,1-.2,1.16,1,1,0,0,0,.56,1.4,1.09,1.09,0,0,1,.68,1.3,1.29,1.29,0,0,1-1.25,1.07,1,1,0,0,0-1,.92c-.25,1.37-.51,2.72-.64,4.1a1.24,1.24,0,0,0,.49,1.23c.26.22.53.42.76.64a1.24,1.24,0,0,1-.49,2.09,3.66,3.66,0,0,1-2.81-.23c-.91-.46-.68-1.37-.85-2"/><path class="cls-2" d="M63.79,130.86c.08.25,0,.5.21.64s.19-.2.29-.31a8.8,8.8,0,0,0,1.81-4.8,5.26,5.26,0,0,1,1-2.58c.2-.29.45-.8.92-.19.21.28.34-.08.38-.2.09-.32.3-.33.55-.25s.1.34.07.49a19.34,19.34,0,0,0-.56,3.29,1.6,1.6,0,0,1-.54,1.22c-.55.47-1,1-1.55,1.53A5.71,5.71,0,0,0,65,131.87c-.09.25-.12.62-.57.4-.08-.05-.14,0-.21.07s-.17.48-.43.28,0-.33.13-.48a.44.44,0,0,0-.19-.59c-.27-.19-.21-.4,0-.69"/><path class="cls-2" d="M61.65,136.69c.35.26.27.68.56.92s-.07.13-.11.19a.79.79,0,0,0,0,.87c.16.28.34.23.52,0,.17.15.59,0,.54.43s.14.85-.42,1c-1.13.19-1.56-.18-1.51-1.33a10,10,0,0,1,.38-2"/><path class="cls-2" d="M63,130.75a1.21,1.21,0,0,1,.17-1.25,4,4,0,0,1,.36-.64c.11-.12,0-.6.45-.27.09,0,.24-.25.27-.44a2,2,0,0,1,.77-1.23c.07,0,.09-.2.23-.12a.19.19,0,0,1,0,.27,7.42,7.42,0,0,0-1,2.37c0,.1-.1.23-.17.25A1.78,1.78,0,0,0,63,130.75"/><path class="cls-2" d="M63.34,137.85c-.41-.54-.66-.95-.17-1.53s.23-1.15.37-1.72c.07-.31.16-.59.61-.5a2,2,0,0,1-.32,1.06.92.92,0,0,0-.11,1c.38.7-.13,1.14-.38,1.74"/><path class="cls-2" d="M73.7,121.12a1,1,0,0,0-.12-.78.48.48,0,0,1,.09-.66c.18-.23.34-.13.53,0s.6,0,1,.11c-.43.55-1.18.7-1.47,1.36"/><path class="cls-2" d="M72.47,119.33a18.76,18.76,0,0,1-2.34,1.3c.23-.5.21-.95.85-.85.27,0,.55-.24.77-.45s.43-.3.72,0"/><path class="cls-2" d="M62.7,131.35c-.22.79-.62,1.52-.13,2.35-.54,0-.76-.13-.53-.64a3.17,3.17,0,0,0,.36-1.41c0-.15.06-.24.3-.3"/><path class="cls-2" d="M93.19,167.67a2.94,2.94,0,0,1,1.4-1.11c-.53.31-.84.87-1.4,1.11"/><path class="cls-2" d="M100.43,121.62c-.55.13-.83-.15-1.26-.42a1.8,1.8,0,0,1,1.26.42"/><path class="cls-2" d="M60.16,134.55c-.12-.23-.41-.44-.15-.74,0-.06.24-.09.27-.05.2.28-.07.53-.12.79"/><path class="cls-2" d="M95.21,167.35l1.28-.45a1.42,1.42,0,0,1-1.28.45"/></g></g></g></g></svg>