<svg xmlns="http://www.w3.org/2000/svg" viewBox="0 0 283.46 283.46"><defs><style>.cls-1{fill:#ee3a43;}.cls-2{fill:#fff;}</style></defs><title>theqyou</title><g id="Layer_2" data-name="Layer 2"><g id="Ostatni"><g id="theqyou"><rect class="cls-1" width="283.46" height="283.46"/><g id="logo"><path class="cls-2" d="M90.69,114.53c-.13,0-.29,0-.29.16s.22.27.39.29.32-.06.29-.25-.26-.16-.39-.2M46.59,134.6c0-.15.1-.39-.15-.31s-.26.42-.32.66,0,.49.2.42c.36-.11.15-.52.27-.77m66.93,4.76a2.63,2.63,0,0,0,.24,2.09,2.77,2.77,0,0,0-.24-2.09m.12-.87a5.37,5.37,0,0,0-.39-2c-.85.92.25,1.37.39,2m-28-24.21a2.87,2.87,0,0,0,2.9-.4,8.48,8.48,0,0,1-2.9.4M72.73,180.46c.88,1.36,2.11.9,3.22.95l-3.22-.95M49.22,126.19c-1,.89-1.79,3.8-1.38,4.84.42-.8.06-1.7.45-2.47s.63-1.57.92-2.36m31.86,56.37a11.37,11.37,0,0,0-3.54-.54,5.69,5.69,0,0,0,3.54.54m.7-67.15c.1.06.15.12.2.14a4.17,4.17,0,0,0,2.32-.94.26.26,0,0,0,0-.34c-.17-.14-1.2-.11-1.29.06a2.56,2.56,0,0,1-1.2,1.07m-30,4.36c-.4.1-.4.1-.5.22a8.23,8.23,0,0,0-1.41,3.7.75.75,0,0,0,0,.29c0,.15.13.2.28.12a4.77,4.77,0,0,0,1-2c-.22-.06-.26.3-.58.22,1-.64.45-1.8,1.14-2.51m45-3.65c0,.25.22.25.34.29s.23.3.17.46-.27,0-.4,0-.25-.09-.26-.15c-.17-1-1-1.06-1.73-1.31-.5-.19-.95-.37-1.08.46-.07-.64-.54-.82-.95-1-.56-.31-.82.39-1.31.39s-.06.27-.1.45-.38-.22-.58,0a7.92,7.92,0,0,0,2.48.69c.06,0,.16,0,.17,0,.34-.52.53-.07.71.11a2.34,2.34,0,0,0,1.31.75,5.09,5.09,0,0,1,2.08.66c.92.71,2,.39,3,.8-.15-.4-.64-.45-.63-1,0-.41-1-.7-1.5-.55-.12,0-.22.06-.27-.12a1.41,1.41,0,0,0-1.43-.9m-51.29,24,.2.06c.27-.91.88-1.81.38-2.77a5.91,5.91,0,0,1-.32-1.36s-.06,0-.11-.09c-.1.14-.21.27-.41.51l.18-.74a.51.51,0,0,0,0-.59.82.82,0,0,0-.15.25,16.5,16.5,0,0,0-.56,4.52c0,.11,0,.3.07.34.45.26.27.65.15.92-.69,1.41-.43,2.85-.25,4.31a18,18,0,0,1,.52,2.64c-.09,2,1,3.56,1.77,5.25,0,0,.07,0,.15,0,0-.65-.44-1.17-.47-1.84.21.12.12.4.34.5a1,1,0,0,0,.12-.79c-.12-.66-.27-1.32-.42-2,0-.15,0-.35-.28-.34s-.4-.39-.13-.62.16-.29.17-.47a12.62,12.62,0,0,0-.13-1.91c0-.15,0-.42-.2-.37s-.11.3-.07.45c.1.39.17.74-.34.92-.07-.46-.36-.95-.07-1.37a2.74,2.74,0,0,0,.41-1.2,28.83,28.83,0,0,0,0-3.4c0-.15,0-.3-.17-.35s-.42,0-.54.36a3,3,0,0,1,.15-1.22c0,.14,0,.26,0,.37m60.08-16.39c.27.51.2,1.11.48,1.59s.18.45-.17.65c-.71.37-.65.39-.17,1a8.78,8.78,0,0,0,1.93,1.76c.15-.64-.81-1-.39-1.62.8.19.8.19,1.17.9.12.25.26.6.59.55.59-.1.58.25.63.64a8.88,8.88,0,0,0,1.33,3.31c.07.1.15.3.38.21,0,0,0-.29.16-.09s.09.19,0,.22c-.55.27-.24.77-.27,1.16a1.35,1.35,0,0,0,1.11,1.15c.18,0,.28-.1.27-.27a5.29,5.29,0,0,0-.11-2c-.38-1-.95-1.94-1.25-3a4.37,4.37,0,0,0-.81-1.47c-.17.3.12.5,0,.75a16.1,16.1,0,0,1-1.28-2c-.11-.2,0-.46.12-.44.33.07.29-.11.13-.2-.44-.24-.44-.71-.69-1.06a28,28,0,0,0-4.22-4.67c-.1-.09-.17-.26-.36-.16a.44.44,0,0,0,.16.39,17.4,17.4,0,0,0,3,3.29,2.67,2.67,0,0,1,1,1.3,3.3,3.3,0,0,0-1.56-.47c.59.41.5,1.11,1,1.51-1.19-.65-1.09-2.2-2.16-2.94M55.14,171.26a4.66,4.66,0,0,1,1.82,1,5,5,0,0,0,1.17,1.17c.17.11.37.29.56.2.52-.25.8.07,1,.4a14,14,0,0,0,5.06,4.09,2.2,2.2,0,0,0,1.2.35c0-.31-.42-.27-.52-.55.52.2,1,.4,1,1,1.08.8,2.09,1.79,3.64,1.36.12,0,.27,0,.31-.17a.25.25,0,0,0-.14-.26c-.81-.37-1.34-1.15-2.15-1.52-1.4-.64-2.67-1.5-4-2.2a14.15,14.15,0,0,1-2.19-1.7c-.5-.4-1-.76-1.52-1.15l-.09.1.61.75a13.3,13.3,0,0,1-3.17-2.56c-.15-.15-.28-.34-.14-.56s.18-.22,0-.3c-.68-.36-1-1-1.46-1.59a38.75,38.75,0,0,1-5.87-8.77,1.26,1.26,0,0,0-.44-.64,3.62,3.62,0,0,0,.43,1.55,25.4,25.4,0,0,1,1.19,2.3,9.22,9.22,0,0,0,2.05,3,14.17,14.17,0,0,1,2.26,2.71,6.37,6.37,0,0,0-2.08-1.11c.84.7,1,1.86,1.89,2.51-2-1.26-2.49-3.67-4-5.35.66,1.12.71,2.49,1.56,3.49-.23.17-.64,0-.63.51,0,.15-.37.22-.09.56a20,20,0,0,0,2.74,2.76c.56.44,1.24.71,1.79,1.19a1.82,1.82,0,0,0-1.06-1.22c-.16-.09-.49-.16-.43-.27.23-.49-.27-.65-.34-1.1m49.57-13.64c0,.27-.06.56-.08.85s.06.32.29.26,1.18-1.32,1-1.65c-.36-.66.33-1.16.16-1.77,0-.14.18-.2.29-.29.47-.4,1-.77,1.11-1.44a5.65,5.65,0,0,1,.75-2.09c.06-.1,0-.27.21-.26s.11.19.12.29,0,.5.26.34c.49-.36,1.15-.64,1.34-1.29a31.21,31.21,0,0,0,1-4.26c0-.15,0-.29-.07-.4a2,2,0,0,1-.34-1.35,13.76,13.76,0,0,0-.1-2.65c.81.16.8.16,1,.61a.73.73,0,0,1-.18.9c-.21.17-.42.35-.21.6s.33-.16.53-.19l.21,0a2.43,2.43,0,0,0-.06,1.45c.15.72.64,1.41.42,2.21-.07.31.16.29.33.09s.38-.32.38,0a2.63,2.63,0,0,1-.79,2.19.88.88,0,0,0-.42,1.2c-.87-.59-1-.5-1.16.47a1.81,1.81,0,0,1-.68,1.09,1,1,0,0,0-.12,1.49c.1.06.25.2.32.09.45-.64.52,0,.8.25,1.7-3.56,2.91-7.2,2.37-11.29-.5.42-.52,1.07-.91,1.52a1.17,1.17,0,0,0-.45-1.49s0,0,0-.06c0-1.15-.65-2.16-.8-3.29,0-.14-.06-.47-.28-.39-.74.34-.33-.21-.34-.41a4.19,4.19,0,0,0-.53-2.19c-.29-.44-.28-.77.09-1.06a.75.75,0,0,0,.17-1.07,2.23,2.23,0,0,0-.54-.82,2.27,2.27,0,0,1-.86-1.84.84.84,0,0,0-.8-.92c-.5-.09-.95-.54-.79-.95.22-.59-.13-.85-.38-1.17-.43-.59-.93-1.11-1.39-1.66s-1.09-.8-.55-1.57a.24.24,0,0,0,0-.12c-.52-.94-.34-2.16-1.45-2.9-.5-.32-.65-.14-.71.14-.16.62-.53.37-.86.3a2.85,2.85,0,0,1-.45-.17c-.06,0,0-.07,0-.12l.49.09c-.06-.3-.39-.5-.28-.71.38-.71-.2-.87-.6-1.07-.22-.1-.41-.19-.36-.39s.33-.2.5-.21a1.22,1.22,0,0,1,.47.16c.37.14.73.27,1.11.4.15,0,.34.09.42-.12s-.07-.25-.18-.35a1.67,1.67,0,0,0-1.09-.39,1.67,1.67,0,0,1-.88-.22c-.44-.3-.74-.91-1.44-.56,0,0-.15-.12-.22-.2a3.52,3.52,0,0,0-2.53-.14c.36.19.72.32,1,.52s.59.5.88.74a1.76,1.76,0,0,0-.1.22,15.06,15.06,0,0,0-2.14-.87s-.06,0-.09-.07a2.83,2.83,0,0,0-2.44-1.15.68.68,0,0,1-.41-.1,1.9,1.9,0,0,0-1.56-.1.63.63,0,0,1-.77-.22,2.53,2.53,0,0,0-1.62-.95,5.32,5.32,0,0,0-3.64.37c-.11-.29.17-.3.21-.45a6.66,6.66,0,0,0-2.51-.56c-.26,0-.54.14-.77-.16s-.47,0-.54.15-.06.79-.6.86c-.06,0,.06.16.14.22s.36.27.26.5-.39.17-.61.12a2.39,2.39,0,0,0-1.27-.14c.09-.91,1.06-.51,1.38-1,0-.17-.43,0-.23-.31s.2-.26.11-.44-.29-.17-.48-.17a1,1,0,0,0-.77.35c-.32.44-.88.64-1.13,1.15-.07.16-.23.17-.42.17-.66,0-1,.35-.81,1,0,.21.09.47-.09.59-.6.36-.84,1.12-1.59,1.35-.55.16-1,.49-1.58.7a9.08,9.08,0,0,0-3.6,2.41.8.8,0,0,1-1.27.07c.58.12.41-.47.71-.54a1.68,1.68,0,0,0,1-.74c.08-.1.2-.21.31-.15.58.4.37-.11.39-.34s.91-.82,1-.7c.28.64.38,0,.52-.06s.37-.31.58-.37a2.84,2.84,0,0,0,1.36-.89,1.06,1.06,0,0,1,1-.32.62.62,0,0,0,.79-.61c.11-.84.22-1.69.37-2.51.09-.51,0-.64-.53-.46-1.54.55-3.08,1.07-4.58,1.72-.12.06-.26.21-.47.07.15-.34.4-.74.7-.6s.58,0,.84-.11l1.4-.66a6.61,6.61,0,0,0,1.5-.85c.06,0,.2-.1.15-.22a.23.23,0,0,0-.26-.14,1.69,1.69,0,0,0-.42.1,30.22,30.22,0,0,0-4,1.76c-.31.17-.6.41-.56.75s-.21.5-.49.65c-.48.25-1.08.32-1.4.84s-.91,1.12-1.24,1.77a.9.9,0,0,1-.72.47c-.61.1-1.31.39-1.47,1s-.74,1-1.15,1.45c-.2.21-.5.35-.65.57a.8.8,0,0,1-.77.42c-.37,0-.81.11-.5.67s0,.79-.38,1a1.57,1.57,0,0,0-.71,1.39,3.65,3.65,0,0,1-.56,2.27c-.29.57-.54,1.16-.8,1.75-.09.2-.14.39-.38.44-.5.14-1,.34-.84,1,.11.47-.12,1.09.25,1.42s.15.57,0,.82a3.61,3.61,0,0,1-.61.61,1.78,1.78,0,0,0-.59,2,2.87,2.87,0,0,1-.12,1.51,5.62,5.62,0,0,0,0,2.92c.06.22.22.45.11.71-.18,0-.21-.32-.4-.2s-.06.26,0,.4a5.94,5.94,0,0,0,1.06,2.81.74.74,0,0,1,.17.82c-.27-.14-.39-.62-.66-.46s.2.5.07.84c-.5-.29-.44,0-.33.34.15.52.12,1.12.74,1.39-.16.79.6,1.22.75,1.9,0,.15.1.35.31.32s0-.29.18-.4c.2.14.38.36.34.55-.12.76.33,1.34.58,2,0,.15.16.31.07.47s0,.51.16.72a21.46,21.46,0,0,0,3.56,4.27,1.11,1.11,0,0,1,.43.86c0,.4.2.52.41.74.76.72,1.81,1,2.51,1.85a13.69,13.69,0,0,0,3.32,2.74,13.33,13.33,0,0,0,4,1.66c1,.25,2.05.45,3.1.66-.18.12-.49.12-.48.36s.34.22.54.31a.9.9,0,0,0,.37,0c.65,0,1.31-.15,1.9.37.26.22.71.16,1.08.12s.86-.16,1.29-.22a3.94,3.94,0,0,1,1.52-.11l-2,.64a1.56,1.56,0,0,0,1.31.55,28.6,28.6,0,0,0,15.65-3.92,8.63,8.63,0,0,0,3.67-3.37,9.35,9.35,0,0,1,.74-1.26,3.35,3.35,0,0,0,.6-1.22.7.7,0,0,0-.6.39c-.5.89-1.38,1.52-1.76,2.52,0,.15-.12.4-.37.31a1.27,1.27,0,0,0-1.22.15,10.66,10.66,0,0,1-3.39,2.16c-.42.11-.77.75-1.28.12,0-.07-.2.12-.33,0a8.63,8.63,0,0,1,2.31-1.4,2.52,2.52,0,0,0,.95-.59c.21-.16.27-.39.06-.56s-.26-.16-.06-.3.44-.41.55-.22c.32.51.59,0,.85,0s.61-.21.41-.67c0-.07.11-.36.22-.4.31-.07.48-.34.76-.46a1.38,1.38,0,0,0,.9-1.56.68.68,0,0,1,.18-.6c.43-.56,1.13-.85,1.41-1.54M42.52,137.44a4.67,4.67,0,0,0,1-3.56,3.28,3.28,0,0,1,.16-1.41,5.46,5.46,0,0,0,0,2,63.5,63.5,0,0,0,2.14-8.94c.31.14.15.42.34.44s.21-.17.28-.29a41.81,41.81,0,0,0,2.8-4.52c.06-.11.09-.22.29-.25s.79-.84.74-1.15c0,0,0,0,0,0-.93-.56.09-.91.15-1.35a1.13,1.13,0,0,0,0-.16c-.26,0-.39.2-.58.27s-.33.14-.47,0,0-.27.06-.4a5.1,5.1,0,0,1,1.5-1.62,5.09,5.09,0,0,0,1.13-1.32,1.82,1.82,0,0,1-.53,1.7,6.61,6.61,0,0,0-.9,1.55c.28,0,.33-.27.54-.3.1.14,0,.25,0,.37s0,.29.16.36.27-.06.36-.16A5.2,5.2,0,0,0,53,116.55a.09.09,0,0,1,0-.06A14.21,14.21,0,0,0,54,114a.72.72,0,0,1,.33-.44c.74-.25.92-1,1.42-1.5a.28.28,0,0,0,0-.44c-.59-.52-.23-1,.11-1.39a1.29,1.29,0,0,1,.65-.55,41.76,41.76,0,0,0-.13,4.54,35.48,35.48,0,0,1,6.73-5.36c-.9.88-2,1.54-2.91,2.37a11.67,11.67,0,0,0-2.26,2.55,1.78,1.78,0,0,0,1.14-.64,21.82,21.82,0,0,1,3.08-2.56c.36-.22.79-.43.82-.93a.39.39,0,0,0,.47,0,20.41,20.41,0,0,0,2.21-1.49c.11-.09.26-.21.27-.32.07-.88.8-1,1.41-1.23a22.74,22.74,0,0,0,4.77-2.59,5.44,5.44,0,0,1,3.06-.84,4.43,4.43,0,0,0,2.41-.44,7.39,7.39,0,0,1,3.86-.68c.18,0,.38,0,.57,0,.7-.09,1.38-.28,2,.29a.89.89,0,0,0,1.29-.18c.48-.6,1.12-.38,1.68-.26a6.48,6.48,0,0,0,3.49-.09,5.59,5.59,0,0,1,3,0A37.87,37.87,0,0,1,97.88,103a1.13,1.13,0,0,1,.68.49,2.22,2.22,0,0,0,1.88,1.11c.52,0,1,.18,1.54.23.32,0,.75.43,1-.18a2.9,2.9,0,0,1,.33.1,4.56,4.56,0,0,1,1.82,1.52,6.31,6.31,0,0,0,2.95,2.06,6.28,6.28,0,0,1,2.35,1.56,34.45,34.45,0,0,0,4.14,3.49c.28.17.63.31.77.66-.22.16-.37-.1-.64,0,.31.34.59.69.91,1,1.14,1.07,2.31,2.14,3.54,3.11a2.81,2.81,0,0,1,.86,1.2c-.43-.16-.68-.64-1.2-.57.18.55.75.76.93,1.27-.14.14-.28-.09-.58,0,.85.69.88,1.9,1.92,2.37a.53.53,0,0,1,.29.36c.32,1.42,1.57,2.32,2,3.82.26-.44.06-.69.09-1a3.07,3.07,0,0,1,.7,1.64,5.51,5.51,0,0,0,.47,1.66,5.65,5.65,0,0,1,.52,1.76c-.09,2,.95,3.7,1.2,5.61s.59,3.77.75,5.7a2.73,2.73,0,0,1-.42,2,1.1,1.1,0,0,0-.07.54c0,.91,0,1.82.06,2.74a14,14,0,0,1-1,5.39c-.39,1.22-.87,2.4-1.17,3.64,0,0,0,.09,0,.12-.15.26-.49.47-.36.81s.5.46.79.69a66.69,66.69,0,0,0,6.87,4c1.06.61,2.09,1.24,3.2,1.89-.25.21-.54,0-.74.26a5.34,5.34,0,0,0,1.39.94,6.72,6.72,0,0,1,.68.32,8.29,8.29,0,0,1,2.1,1.54,24,24,0,0,0,3,2.22,6.28,6.28,0,0,1,2.32,2.89,10.31,10.31,0,0,0-2.75-2.65,2.77,2.77,0,0,0,.57,1.3,7.82,7.82,0,0,1,1.71,4.57,8.76,8.76,0,0,1-1.62,5.42,8,8,0,0,1-7.37,3.52,10.69,10.69,0,0,1-5.37-2.21c-2-1.39-3.9-2.87-5.86-4.26a17,17,0,0,0-5.23-2.42c-.7-.19-1.34-.7-2.06-.95-.25-.09-.47-.26-.79-.17a1,1,0,0,0,.63.62,15.6,15.6,0,0,1,2.75,1.34c.63.45,1.4.42,2.06.75.23.11.55.12.33.54,0,.09,0,.19.12.26a11,11,0,0,0,1.65,1.46,32.74,32.74,0,0,1,3.81,2.54c.56.45,1.09,1,1.68,1.4a3.1,3.1,0,0,0,1,.51c.4.11.8.24.63.81-.06.2.16.27.31.34.32.14.64.25,1.07.44a2.18,2.18,0,0,1-1.12-.26,29.51,29.51,0,0,1-3.18-1.64c-.7-.45-1.24-1.14-1.93-1.62-.29-.22-.61-.42-.92-.62a.62.62,0,0,0-.59,0c-.2.09.2.22,0,.42a7.66,7.66,0,0,1-1.25-.84c-.07-.06-.21-.17-.07-.21.59-.17.12-.31,0-.45-.29-.29-.58-.59-.88-.87s-.28-.14-.71-.14a1.8,1.8,0,0,1-1.23-.5,11,11,0,0,0-2.75-1.9.91.91,0,0,0-.9,0,.78.78,0,0,1-1-.24c-.24-.26-.47-.49-.81-.14.11-.27.23-.56.33-.86,0-.07.09-.19,0-.27a.19.19,0,0,0-.28,0c-.57.54-1.39.9-1.3,1.89a.48.48,0,0,1-.29.5,2.89,2.89,0,0,0-1.07,1,2.3,2.3,0,0,1-1.27,1,18,18,0,0,0-4.65,2.55,2.56,2.56,0,0,1-1.4.71,4.45,4.45,0,0,0-1.58.67.72.72,0,0,1-.8,0l.68-.4c.13-.09.36-.16.29-.35s-.27-.1-.43-.09a16.71,16.71,0,0,0-4.2.75,39.43,39.43,0,0,1-7.15,1.44,2.58,2.58,0,0,0-1.14.37,4,4,0,0,1-1.79.39c-2,.17-4,0-5.94.09,0-.64.37-.77.88-.82a3.39,3.39,0,0,1,2.54.41,1,1,0,0,0,1-.07c-.12-.36-.56-.25-.8-.67,1.77.42,3.27-.19,4.84-.69-.17-.25-.37-.12-.5-.21a13.44,13.44,0,0,0,2.78-.46c-.21-.36-.48-.17-.7-.22s-.31,0-.32-.2.17-.12.27-.17c.43-.2,1,0,1.35-.42a4.74,4.74,0,0,0,1.78-.1c.44,0,1-.26,1.33,0,.55.39.92.11,1.33-.15.13-.09.22-.31.41-.2s.12.24,0,.4.11.22.22.27a.89.89,0,0,0,.88-.09c.85-.6,2-.47,2.8-1.06.1-.06.16-.1.23,0s.36.1.54,0a3.75,3.75,0,0,0,1.17-.8c.23-.22.55-.51.32-.84s-.49.06-.75.11l-.1,0c-.37-.34.22-.5.17-.81-.63.26-1.22.51-1.79.77a45.17,45.17,0,0,1-8.54,2.47c-2.15.29-4.29.6-6.44.84-.81.09-1.65,0-2.48.11a7.92,7.92,0,0,0,2.78.8.41.41,0,0,1-.54.19,1.9,1.9,0,0,0-1.9.27.78.78,0,0,1-.42.07c-1.33,0-2.64.11-4,.14a10.28,10.28,0,0,1-2.77-.19.85.85,0,0,0-.7,0c0,.25.32.21.28.47a1.92,1.92,0,0,1-.87-.17,25.31,25.31,0,0,0-5.24-1.39,1.74,1.74,0,0,1-1.49-1.16,1.2,1.2,0,0,0-.87-.86c-1.07-.37-2.11-.84-3.21-1.11a7.47,7.47,0,0,1-3.31-2.2,1.84,1.84,0,0,0-1.2-.6,3.71,3.71,0,0,1-2.67-1.4c-.06-.07-.54-.25,0-.45.07,0-.16-.22-.28-.34-1-.94-2.13-1.84-3.16-2.79a22.26,22.26,0,0,1-3.08-3.47c-.12-.16-.33-.31,0-.57s0-.47-.06-.7c-.28-.71-.59-1.41-.87-2.11a6.33,6.33,0,0,1-.4-1.17,3.55,3.55,0,0,0-1-2c-.27-.27-.18-.81-.58-1.07-.07.36-1,.34-.37,1a7,7,0,0,1-1.9-2.41c.48.29.56.72.9,1,.06-.26-.1-.45-.13-.65-.09-.36-.39-.77.15-1.06.13-.07.07-.27,0-.41a5.77,5.77,0,0,0-.74-1.7c-.29-.34-.07-.75-.17-1.07.79.39,1,1.25,1.41,1.94.23.36.45.74.7,1.1.15.2.29.57.59.4s0-.45-.09-.66a6.68,6.68,0,0,0-1-1.6,3.91,3.91,0,0,1-1.11-2.67c0-.06,0-.15,0-.17-.86-.8-.9-2-1.35-2.94s-.81-2.07-1.35-3.06c0,0-.06,0-.18-.12.42,1.67.52,3.31.77,5a3.25,3.25,0,0,1-.61-1.56c-.15-.8-.49-1.55-.59-2.34a21.69,21.69,0,0,1-.1-4.19,5.58,5.58,0,0,0-.26-2.25,2.82,2.82,0,0,1,0-1.24,12.7,12.7,0,0,0-.37-3.91v-.25Z"/><path class="cls-2" d="M240.94,141.27c-.15,1.57-.85,3-.77,4.67.07,1.46,0,2.94-.07,4.4a6.18,6.18,0,0,0,.37,2.61.7.7,0,0,1-.27.95,1.67,1.67,0,0,0-.65,1.22c0,.34-.2.57-.59.56s-.45.07-.49.36-.2.26-.36.3A1.65,1.65,0,0,0,237,157c-.25.32-.71.25-1.07,0s-.61-.29-.9,0-.39.06-.56,0a2.58,2.58,0,0,0-1.72-.27,1.71,1.71,0,0,1-1.6-.49,6.81,6.81,0,0,1-2-2.9c-.25-.69-.54-.8-1.15-.37a40.29,40.29,0,0,1-5.85,3.1,2.35,2.35,0,0,1-1.94.35c-.39-.14-.71.24-1,.42a4.79,4.79,0,0,1-2.29.35,26.83,26.83,0,0,1-6.79-.34,19.09,19.09,0,0,1-2.19-.65c-.49-.19-1-.31-1.24-.92,0-.06-.16-.11-.25-.14a4,4,0,0,1-2.39-2.36,8,8,0,0,0-1-2c-1.79-2-1.94-4.49-2.36-6.9a87.25,87.25,0,0,1-1.17-10.7c-.24-5.27-.39-10.56-.14-15.85a48.11,48.11,0,0,1,1.71-10.93c.52-1.84,1.4-3.54,3.3-4.34a7.59,7.59,0,0,1,7.44.69c1.71,1.12,2.12,2.91,1.91,4.87a47.56,47.56,0,0,1-1.09,4.95,1,1,0,0,1-.22.44,1.4,1.4,0,0,0-.37,1,50.73,50.73,0,0,1-.39,5.69c-.07,2.34-.27,4.65-.36,7-.11,3.32-.24,6.65-.27,10a20.89,20.89,0,0,0,.54,4.41,41.31,41.31,0,0,0,1.2,5.49,6.07,6.07,0,0,0,.77,1.69,1.54,1.54,0,0,0,1.66.67,8,8,0,0,0,2.95-1.22,23.81,23.81,0,0,0,7.26-6.91,6.79,6.79,0,0,0,1-2.14,5,5,0,0,1,1.4-2.51,4.31,4.31,0,0,0,1.29-3.27,135.22,135.22,0,0,0-.79-15.26,3.16,3.16,0,0,0-.52-1.89.45.45,0,0,1-.06-.34,21.88,21.88,0,0,0-.32-4.33,8.94,8.94,0,0,1,0-1.92,3.2,3.2,0,0,1,3.15-2.72,11.39,11.39,0,0,1,3.47.44,1.79,1.79,0,0,0,1.21-.06c.39-.2.72.07.94.38a4,4,0,0,1,.46.81,1.57,1.57,0,0,0,1.3,1.08c.5.06.67.5.79.93a28.93,28.93,0,0,1,.64,3.71c.6,4.67.84,9.37,1.15,14.07.15,2.37.31,4.72.36,7.11a2.12,2.12,0,0,0,.12.79v5.57Z"/><path class="cls-2" d="M192.39,127.85a.52.52,0,0,0,.12-.8c-.06-.09-.2-.15-.26,0-.14.29,0,.52.14.84m-3.4-6a.31.31,0,0,0-.22-.34c-.17,0-.25.1-.26.25s0,.35.22.36.22-.12.26-.27m4.66,4.32c-.19-.06-.41-.07-.45.21s.15.31.26.22.57,0,.59-.34-.24-.12-.4-.1m-6.74,10a1.26,1.26,0,0,0,.19-.95.24.24,0,0,0-.29-.24c-.21,0-.22.17-.17.32s.17.57.27.86m-.49,4.87a13.29,13.29,0,0,1,.51-1.72.12.12,0,0,0-.07-.19.22.22,0,0,0-.17,0,1.86,1.86,0,0,0-.26,1.9m1.49-8.64a22.71,22.71,0,0,0-.39-4.35,23.34,23.34,0,0,0,.15,5.67c.31-.09.19-.37.36-.47.14.34-.07.74.35,1.14a39.67,39.67,0,0,0-.32-6.61c-.3,1.52.06,3.06-.15,4.62m-3.62,8.77a.88.88,0,0,0,.5-.89,4.2,4.2,0,0,1,.49-2.2,1.69,1.69,0,0,0,.36-1.2c0-.16,0-.34.06-.5,0-.74.49-1.36.59-2.1a66.15,66.15,0,0,0,.44-7.71,1.24,1.24,0,0,0,0-.37c-.07-.19,0-.49-.19-.55s-.27.24-.37.4a.5.5,0,0,1-.52.27c-.24-.06-.12-.31-.14-.47a7.34,7.34,0,0,0-.19-2.34.32.32,0,0,1,.11-.39,1.24,1.24,0,0,0,.21-1.1c-.12-.89-.64-1.71-.45-2.66a1.45,1.45,0,0,0-.41-1.46.87.87,0,0,1-.27-.6,6.2,6.2,0,0,0-2-3.89c-.21-.21-.51-.42-.36-.84.06-.16-.09-.26-.26-.21a.62.62,0,0,1-.46-.07,1.46,1.46,0,0,0-1.9.5,4,4,0,0,0-.6,1.35,10.39,10.39,0,0,1-.62,1.75,1.05,1.05,0,0,1-1.61.57,11.85,11.85,0,0,1-1.37-.7c-.21-.14-.44-.21-.6,0-.59.85-1.64.84-2.44,1.3a2.37,2.37,0,0,0-.95.94,12.66,12.66,0,0,0-1,2.41,41.91,41.91,0,0,0-1.55,8.7,25.82,25.82,0,0,0-.22,5,32.13,32.13,0,0,0,3.69,11.67,8,8,0,0,0,1.39,1.9,2.62,2.62,0,0,0,3.49.42,7.12,7.12,0,0,0,1.35-1.17c.92-.95,1.55-2.14,2.45-3.11.22-.24.41-.49.74-.11.19.21.32.06.42-.14.62-1.31,1.59-2.46,1.91-3.94a2.32,2.32,0,0,1,.44-1c.12.94-.31,1.7-.12,2.56m3.42-35.77c-.25.15-.54,0-.91.22.32.29.65.54.94.82a21,21,0,0,1,5.9,11.35c0,.21,0,.31-.2.42s-.29.52,0,.56.37.3.41.52a16.46,16.46,0,0,1,.24,2.34,29.05,29.05,0,0,0,.42,4.55c0,.25.11.51-.21.61s-.51.5-.52.89l-.15,4.59c0,.51-.09,1-.09,1.55s-.56.47-.6.91-.25.49.21.7.47.79.69,1.21c.1.17,0,.44.3.55s0,.22-.09.27a4.87,4.87,0,0,1-.52.25c-.16-.11-.06-.25-.1-.36s-.06-.16-.16-.16-.12.1-.15.17c-.35,1-.34,2.16-.69,3.21a14.56,14.56,0,0,0,1-1.6c-.31,1.37-.77,2.71-1.06,4.11-.29-.79,0-1.7-.45-2.42a1.37,1.37,0,0,0-.49,1.79.59.59,0,0,1,0,.29c-.11.36-.34.71.09,1,.16.12,0,.4-.07.57a12.8,12.8,0,0,1-2,3.42,26.79,26.79,0,0,1-7.45,7.17,8,8,0,0,1-1,.49c-.32.12-.66.21-1,.32,0,.27.3.09.37.25s-.21.1-.32.11a22.68,22.68,0,0,0-3.34.3c-1,.24-2-.19-3,.09a2.76,2.76,0,0,1-1.4-.22A38.52,38.52,0,0,1,166.3,154a7.25,7.25,0,0,1-2-1.69c-.8-.8-1.57-1.65-2.34-2.47-.07-.07-.19-.14-.22-.22-.71-1.92-2.22-3.37-3-5.3a25.51,25.51,0,0,1-2-11.9,60.94,60.94,0,0,1,3.07-15.55,24.34,24.34,0,0,1,5.82-9.68,12.3,12.3,0,0,1,8.61-3.7,52.88,52.88,0,0,1,9,.31,17.43,17.43,0,0,1,3.89,1.17c.19.07.4.15.47.38"/><path class="cls-2" d="M136.53,159.35c.1-.51.18-.92.25-1.36,0-.16.07-.39-.17-.45s-.31.07-.38.25-.22.35-.44.09-.33-.12-.49,0c-.45.29-.63,0-.72-.37a2.56,2.56,0,0,1-.1-.91c0-.39-.13-.54-.52-.46l-.66.11c-.69.14-.82,0-.7-.69a6.24,6.24,0,0,1,.61-2c.07-.11.2-.3.06-.37-.53-.31-.25-.7-.18-1.1.44-2.85,1.06-5.67,1.61-8.5.64-3.2,1.28-6.39,2.13-9.54a4,4,0,0,0,.26-2.51c-.09-.21-.12-.45-.38-.52-1.62-.47-2.54-1.84-3.64-3-2.76-2.86-5.49-5.77-8.28-8.61-.77-.79-1.7-1.45-2.45-2.29a5.15,5.15,0,0,1-1.36-3.24.82.82,0,0,1,0-.3,4.74,4.74,0,0,1,3.33-2.82h3.28a2,2,0,0,1,1.25.26.69.69,0,0,0,.47.11,2.64,2.64,0,0,1,2,.52,21.11,21.11,0,0,1,6.24,5.67,13.4,13.4,0,0,0,2.25,2.27c.65.5.72.47,1.11-.22a40,40,0,0,0,2.46-6.46c.74-2.22,1.45-4.44,2.31-6.61a19,19,0,0,1,1.84-3.44,1.72,1.72,0,0,1,1.89-.71,1.16,1.16,0,0,0,.72-.15,3.45,3.45,0,0,1,2.11-.12c1,.22,2.1.43,3.16.61a1,1,0,0,1,.81.48,1.22,1.22,0,0,0,1.36.64c.59-.11.67.18.71.68a9.29,9.29,0,0,1-1.09,4.66c-.27.55-.55,1.11-.87,1.63-1.74,2.8-2.31,6-3.37,9.08a114.59,114.59,0,0,0-3.74,13.64c-.84,4-1.46,8-2.51,12a7.17,7.17,0,0,0-.61,3.25,9.13,9.13,0,0,1-.76,4.72c-.12.34-.26.69-.71.79-.21,0-.27.27-.39.45a9.06,9.06,0,0,0-.79,2.2,4,4,0,0,1-2.86,3.2c-.41.12-.57.11-.59-.4s.3-.92-.11-1.34A1.33,1.33,0,0,0,140,158a.3.3,0,0,0,0-.34.21.21,0,0,0-.27-.1c-.61.39-1-.17-1.36-.41s-.45-.22-.6.09a2.21,2.21,0,0,1-.55.89.21.21,0,0,0,0,.22c.13.64.12.65-.68,1"/><path class="cls-2" d="M93.05,99.68c.38-.18.83,0,1.29-.36a20.1,20.1,0,0,0-3-.56,13.7,13.7,0,0,1-2.13-.38,2.4,2.4,0,0,0-1,0,42.73,42.73,0,0,0-8.63,2.38,10.76,10.76,0,0,1-3,.82c-.37,0-.72,0-.39-.54-.83,0-1.45.9-2.33.28,0-.1.13-.11.21-.16a46.46,46.46,0,0,1,6.17-3.43,6.79,6.79,0,0,1,2.63-.6c1.4,0,2.81,0,4.21,0a.45.45,0,0,1,.18,0c2.11.8,4.4.48,6.55,1a10.86,10.86,0,0,0,1.41.17.36.36,0,0,1,.29.48c-.06.24.15.22.26.26l.82.23c.11,0,.27.09.21.25s-.18.1-.29.06c-.28-.07-.56-.13-.84-.22-.44-.13-.85-.21-1.13.28-.11.18-.29.18-.49.15l-1-.17"/><path class="cls-2" d="M108.08,104l-.36.1a3.87,3.87,0,0,0,1.79.92c.26.06.61,0,.26-.36s.08-.31.1-.47.22-.07.33,0a11.65,11.65,0,0,1,2.09,1.33.41.41,0,0,1,.11.59c-.16.33-.15.81-.69.85a1.47,1.47,0,0,1-.82-.18c-1.74-1-3.49-2-5.22-3,.81,0,1.6.22,2.41.26"/><path class="cls-2" d="M67.33,102a1.71,1.71,0,0,1-1.11,1.35c-.37.12-.69.39-1.06.5-.15,0-.42.58-.6,0,0-.11-.25,0-.36.12a15.48,15.48,0,0,1-3.06,2,3.4,3.4,0,0,0-1,.87,9.07,9.07,0,0,1-2.05,1.76c-.5.28-1.09.42-1.39,1.13a1.08,1.08,0,0,1,.33-1.25,31.15,31.15,0,0,1,6.28-4.37c1.12-.58,2.24-1.22,3.4-1.7.21-.09.44-.13.56-.36Z"/><path class="cls-2" d="M93.42,100.58a2.39,2.39,0,0,1-1.4.1,7.62,7.62,0,0,1-2.26-.28c-1.63-.65-3.32.07-4.94-.27-.14,0-.34.07-.37-.11s.18-.23.36-.23c1.79,0,3.56-.38,5.36-.31a1.28,1.28,0,0,1,.74.21,4.06,4.06,0,0,0,2,.68c.17,0,.37,0,.5.22"/><path class="cls-2" d="M107.86,102.88a3.89,3.89,0,0,1-2.77-.86,6.44,6.44,0,0,0-2.33-1.08c-.79-.26-1.57-.49-2.37-.71-.39-.1-.75-.22-.84-.72a7.1,7.1,0,0,1,2.11.55,7,7,0,0,0,1.74.82,2.23,2.23,0,0,0,1.39.16c.25-.07.45.15.68.26a12.23,12.23,0,0,1,2.38,1.59"/><path class="cls-2" d="M67.34,102a22.92,22.92,0,0,0,2.91-1.3,9.17,9.17,0,0,1,2.11-.64,1.09,1.09,0,0,1,.65.13c.37.17.33.41,0,.59a2.16,2.16,0,0,1-1.38.44c.33-.13.65-.27,1-.43.11,0,.23-.15.17-.28s-.22-.15-.36-.09a.78.78,0,0,0-.45.31.65.65,0,0,1-.61.33,4.9,4.9,0,0,0-2.73,1c-.52.37-.9,0-1.34-.06"/><path class="cls-2" d="M63.76,104.64c-.15.33-.33.58,0,.88s0,.36-.1.48c-.4.39-.7.9-1.44.81a8.51,8.51,0,0,0-1.49.31l3.06-2.48"/><path class="cls-2" d="M65,106.42a16.28,16.28,0,0,1,4.66-2.06l-.95.85c-.09.09-.16.21-.31.16-.84-.24-1.4.36-2,.7-.42.22-.79.58-1.38.36"/><path class="cls-2" d="M96.67,101a5.33,5.33,0,0,0,2.37.12c.53-.15.64.11.42.85a10.4,10.4,0,0,0-2.42-.8C96.91,101.18,96.75,101.22,96.67,101Z"/><path class="cls-2" d="M137.57,185.35c-1.24.59-2.46,1.27-4.06.85.61,0,1.08,0,1.54-.1a1.39,1.39,0,0,0,1.23-.52c.24-.34.86,0,1.29-.22"/><path class="cls-2" d="M63.59,109.23c0-.39-.27-.32-.5-.31a5.09,5.09,0,0,1,1.82-1,5.67,5.67,0,0,1-1.31,1.28"/><path class="cls-2" d="M134.28,185.26a5.88,5.88,0,0,1-3.45-1.06,19.69,19.69,0,0,0,3.45,1.06"/><path class="cls-2" d="M100.08,103.53l2,.68c-.66-.12-1.56.45-2-.68"/><path class="cls-2" d="M44.5,154.7c.32.71.65,1.42,1,2.17-.5-.19-.91-1.06-1-2.17"/><path class="cls-2" d="M48.08,121.55c.55-.55.61-1.47,1.56-1.95a6.37,6.37,0,0,1-1.56,1.95"/><path class="cls-2" d="M99.46,102a8,8,0,0,1,2.76.69,1.94,1.94,0,0,1-1.31-.2,6.09,6.09,0,0,0-1.45-.49"/><path class="cls-2" d="M97.17,100.35a6.53,6.53,0,0,1-1.63-.28c.53,0,1.09-.27,1.63.28"/><path class="cls-2" d="M45.44,157.87c.17.49.33,1,.5,1.49a3,3,0,0,1-.66-1.45l.16,0"/><path class="cls-2" d="M192.24,143.67c.11.36,0,.64.39.61.17,0,.19.14.16.26s-.16.19-.29.24a.18.18,0,0,1-.26-.16c0-.25,0-.49,0-.95"/><path class="cls-2" d="M96.67,101.05c-.6,0-1.25.21-1.94-.32l1.94.32"/><path class="cls-2" d="M87.51,140.4a23.36,23.36,0,0,1-.48,3.31c-.26,1.27-.16,2.59-.5,3.86-.24.92-.53,1.15-1.47,1.14s-1.47-.46-1.31-1.56a23.09,23.09,0,0,1,.75-3.12,10.9,10.9,0,0,0,.43-3.16c0-1.35-1.25-1.62-2.16-1.4a2.82,2.82,0,0,0-2.19,2.12,16.07,16.07,0,0,0-.49,3.22,17.9,17.9,0,0,1-.42,2.94c-.22.84-.87,1.16-1.89.95-.77-.16-1.07-.59-.9-1.47.29-1.62.84-3.19,1.14-4.8a61.16,61.16,0,0,0,1-6.85A5.43,5.43,0,0,1,79.3,134a1.49,1.49,0,0,1,2.35-.6c.5.45.33,1.07.22,1.64s-.38,1.21-.5,1.84.06,1,.81.84a5.31,5.31,0,0,0,1.23-.42,2.94,2.94,0,0,1,2.41,0c1.46.74,1.7,1.14,1.7,3"/><path class="cls-2" d="M95.38,141.9a5.94,5.94,0,0,0,1.73-.16c.81-.25,1-.6.58-1.36a1.31,1.31,0,0,0-.82-.7,3.29,3.29,0,0,0-3,.42,2,2,0,0,0-.59.7c-.23.4-.15.67.29.87a4.34,4.34,0,0,0,1.81.22m-.95,6.84a7.13,7.13,0,0,1-1.84-.16,4.16,4.16,0,0,1-2.64-4.79A9.45,9.45,0,0,1,91.19,140a5.85,5.85,0,0,1,4.57-2.79,4.36,4.36,0,0,1,4,1.59,4.91,4.91,0,0,1,.53,4.24,1.26,1.26,0,0,1-1.31.64,15.8,15.8,0,0,1-2-.14,20.57,20.57,0,0,0-3-.07c-.54,0-1.17,0-1.42.62a1.77,1.77,0,0,0,.63,1.89,3.05,3.05,0,0,0,3.22.06c.4-.27.79-.6,1.19-.89a1.69,1.69,0,0,1,1.86-.11c.31.36.07,1.42-.44,1.94a5.56,5.56,0,0,1-4.47,1.71"/><path class="cls-2" d="M69.83,146.37a24.44,24.44,0,0,1,.75-3.76c.09-.42.17-.85.23-1.29a2.48,2.48,0,0,0-.57-2.24,1,1,0,0,1,.07-1.45,1.8,1.8,0,0,1,.32-.29,2.07,2.07,0,0,0,1.08-1.87,2.17,2.17,0,0,1,1.82-1.77c.74-.07,1.11.26,1,1a5.88,5.88,0,0,1-.2,1.16,1,1,0,0,0,.55,1.4,1.1,1.1,0,0,1,.69,1.3,1.31,1.31,0,0,1-1.25,1.07,1,1,0,0,0-1,.91c-.25,1.37-.5,2.72-.64,4.1a1.26,1.26,0,0,0,.49,1.24c.26.21.53.41.76.64a1.23,1.23,0,0,1-.49,2.09,3.67,3.67,0,0,1-2.81-.22c-.91-.46-.68-1.37-.85-2"/><path class="cls-2" d="M63.79,130.86c.09.25,0,.5.21.64s.2-.2.29-.31a8.71,8.71,0,0,0,1.81-4.8,5.3,5.3,0,0,1,1-2.57c.2-.29.45-.8.92-.19.21.27.34-.09.38-.2.09-.32.29-.34.55-.25s.1.34.06.49a18.47,18.47,0,0,0-.55,3.29,1.62,1.62,0,0,1-.54,1.22c-.55.46-1,1-1.55,1.52A5.67,5.67,0,0,0,65,131.87c-.09.25-.12.61-.56.4-.09,0-.15,0-.21.06s-.17.49-.43.29,0-.34.12-.49a.44.44,0,0,0-.18-.59c-.27-.19-.21-.4,0-.69"/><path class="cls-2" d="M61.65,136.69c.36.26.27.69.57.92s-.07.12-.11.19a.78.78,0,0,0,0,.87c.16.27.34.22.52,0,.17.15.59,0,.54.42s.15.85-.42.95c-1.13.19-1.56-.17-1.51-1.32a10.31,10.31,0,0,1,.38-2"/><path class="cls-2" d="M63,130.75a1.21,1.21,0,0,1,.17-1.25,4,4,0,0,1,.36-.64c.11-.12,0-.6.45-.27.09,0,.23-.25.27-.44a2,2,0,0,1,.76-1.22c.07,0,.1-.2.23-.12a.19.19,0,0,1,0,.27,7.29,7.29,0,0,0-1,2.36c0,.1-.1.24-.17.25A1.77,1.77,0,0,0,63,130.75"/><path class="cls-2" d="M63.34,137.85c-.4-.54-.66-.95-.17-1.52s.23-1.15.37-1.72c.07-.31.16-.59.61-.5a2,2,0,0,1-.32,1.06.92.92,0,0,0-.11.95c.38.7-.13,1.14-.38,1.74"/><path class="cls-2" d="M73.7,121.12a1.07,1.07,0,0,0-.12-.79.48.48,0,0,1,.09-.66c.18-.22.34-.12.53,0s.6,0,1,.11c-.43.55-1.18.7-1.46,1.36"/><path class="cls-2" d="M72.47,119.33a17,17,0,0,1-2.33,1.3c.23-.5.21-.95.85-.85.27,0,.55-.24.77-.45a.42.42,0,0,1,.71,0"/><path class="cls-2" d="M62.7,131.35c-.22.79-.63,1.52-.13,2.35-.54,0-.76-.12-.53-.64a3.16,3.16,0,0,0,.36-1.41c0-.15.06-.24.31-.3"/><path class="cls-2" d="M93.19,167.67a3,3,0,0,1,1.4-1.11c-.53.31-.84.87-1.4,1.11"/><path class="cls-2" d="M100.43,121.62c-.55.12-.83-.15-1.26-.42a1.81,1.81,0,0,1,1.26.42"/><path class="cls-2" d="M60.16,134.55c-.12-.22-.42-.44-.16-.74,0-.06.24-.09.27,0,.21.27-.06.52-.11.79"/><path class="cls-2" d="M95.21,167.35l1.28-.45a1.4,1.4,0,0,1-1.28.45"/></g></g></g></g></svg>