<svg xmlns="http://www.w3.org/2000/svg" viewBox="0 0 283.46 283.46"><defs><style>.cls-1{fill:#2fb2e2;}.cls-2{fill:#fff;}</style></defs><g id="Layer_2" data-name="Layer 2"><g id="Travel_Lifestyle" data-name="Travel &amp; Lifestyle"><g id="travelchannel"><rect class="cls-1" width="283.46" height="283.46"/><g id="logo"><path class="cls-2" d="M223.79,102.82H213.5l18,38.89-18.35,38.94H223.4l17.54-38.94Z"/><path class="cls-2" d="M153.67,167h2.45l-1.23-4.13S153.64,167,153.67,167Z"/><path class="cls-2" d="M163.38,134h0c-3.63,0-3.61,5.35-3.61,5.35h6.82S166.75,134,163.38,134Z"/><path class="cls-2" d="M113,145.05h0l-.57,0c-1.12.1-4.3,1-3.42,4,.69,2.39,5,.6,5.38-.17v-3.82S113.59,145,113,145.05Z"/><path class="cls-2" d="M226.76,141.69h0L209,102.82H42.52v47.46a30.35,30.35,0,0,0,30.35,30.35h136l17.86-38.93h0ZM82,155.64c0,.46-.32.72-.91.72H75.07c-2.53,0-9.85-1.42-9.85-11h0V120.17c0-.39.2-.59.65-.65s7.63-2.41,7.63-2.41,1-.14,1,.65v10H81a.94.94,0,0,1,.78.91v6.13a.78.78,0,0,1-.78.59H74.27v10.62a2.91,2.91,0,0,0,2.84,2.84h4.33c.46,0,.6.48.6,1.07Zm11.43.26c0,.66-.39.39-1,.39s-7.36.14-7.75.14-.56-.53-.56-1,0-26.8,0-26.8h0c0-.92.65-1,1.11-1h5.17c.69,0,.83.45,1,.78s1.43,3.39,1.43,3.39a10.23,10.23,0,0,1,8.74-4.5c.72,0,.78.72.78,1.5v6c0,.37-.33.9-.78.9s-6.46.27-8.09,2.16Zm30-.33c0,.4-.07.85-.51.85l-6.22,0-1.23-2.73a11.28,11.28,0,0,1-7.43,3.31c-5.33,0-8.71-3.76-8.71-9.33,0-7.29,6.12-8.37,11.45-8.37h3.41v-1.71c0-.53-.64-2.22-3.07-2.22h-6.3c-.49,0-.73-.48-.73-1s0-5.63,0-6,.49-.5.88-.5h7.2c.24,0,.79,0,1.51,0h0c3.14,0,9.62.86,9.71,11.15C123.62,151.6,123.5,155.18,123.5,155.57Zm.4-26.76h0c-.19-.64.1-1.18.74-1.18H133c.44,0,.69.4.79,1s4,20.49,4,20.49,3.86-20.34,4-20.83.63-.59,1.12-.59h7.73c.54,0,.49.59.39.93l-8.22,27.73H132.07Zm10.61,39.44c-.61-1.12-1-5.78,1.73-7.11a4.78,4.78,0,0,1,4.52.31l-.72,1.36h0c-1.07-.69-2.88-.67-3.63.37s-.95,4.27.46,5.39,3.2-.06,3.2-.06l.69,1.47C136.53,171.77,135.11,169.38,134.51,168.25Zm15,2.38h-1.75l0-4.13h-3.57v4.13h-1.7v-9.81h1.7v4.09h3.57v-4.08h1.73Zm14.41-43.28h0c4.75,0,12.42,1.41,12,17.6h-16s-.23,3.92,5.05,4a15.9,15.9,0,0,0,5.9-1.13c.54-.15.74-.15.93.34,1.13,2.82,1.21,2.9,2.13,5.47.22.61-.07.79-.5,1.08a17.11,17.11,0,0,1-8.3,2.16c-4.46,0-14.29-2.1-14.29-14C150.81,130.08,159.13,127.35,163.87,127.35Zm-6.68,43.27-.69-2.15h-3.27l-.63,2.15h-1.73l3.07-9.8h2l3.11,9.8Zm10.47,0H166l-3.64-6.6,0,6.6h-1.76v-9.81h1.71l3.64,6.43v-6.43h1.72Zm9.62,0h-1.71l-3.65-6.57,0,6.57h-1.78v-9.81h1.72l3.61,6.45v-6.45h1.77Zm8.36-8.31h-4.18v2.58h3.26v1.55h-3.27v2.6h4.19v1.58h-5.93v-9.81h5.93Zm7.61,8.31h-5.68v-9.81h1.79v8.24h3.89Zm.08-15c0,.49-.29.73-.93.73h-4.8c-1.71,0-9.77-1.31-9.77-10.46s-.15-25.55-.15-25.55h0a1.11,1.11,0,0,1,.73-1c.49-.19,7.39-2.5,7.79-2.6.6-.15.87.34.87.78S187,145,187,146a2.9,2.9,0,0,0,2.83,2.78h2.89c.39,0,.59.49.59,1Z"/></g></g></g></g></svg>