<svg xmlns="http://www.w3.org/2000/svg" viewBox="0 0 283.46 283.46"><defs><style>.cls-1{fill:#c3243a;}.cls-2{fill:#af2437;}.cls-3{fill:#d9243d;}.cls-4{fill:#9b2032;}.cls-5{fill:#891e2e;}.cls-6{fill:#fff;}</style></defs><g id="Layer_2" data-name="Layer 2"><g id="Travel_Lifestyle" data-name="Travel &amp; Lifestyle"><g id="travelxp"><rect class="cls-1" width="283.46" height="283.46"/><g id="logo"><polygon class="cls-2" points="130.63 93.17 214.41 33.33 0 6.19 0 28.19 130.63 93.17"/><polygon class="cls-3" points="214.41 33.33 188.67 0 273 0 214.41 33.33"/><polygon class="cls-2" points="214.41 33.33 273 0 283.46 0 283.46 122.75 214.41 33.33"/><polygon class="cls-3" points="130.63 93.17 12.76 152.13 283.46 234.38 283.46 194.19 130.63 93.17"/><polygon class="cls-4" points="249.28 223.99 283.46 234.38 283.46 272.46 0 282.38 0.02 273.82 249.28 223.99"/><polygon class="cls-5" points="283.46 272.46 283.46 283.46 0.02 283.46 0 282.38 283.46 272.46"/><polygon class="cls-2" points="12.76 152.13 0 124.31 0 177.88 12.76 152.13"/><g id="montserratserialbold"><path class="cls-6" d="M42.52,135.9v-6.61h4v-6.78h8v6.78h6.72v6.61H54.52v12.28q.39,2.72,3.44,2.72a9.75,9.75,0,0,0,2.78-.5l1.11,5.89a24.08,24.08,0,0,1-6.39,1,8.71,8.71,0,0,1-7.18-3.05,7.47,7.47,0,0,1-1.38-2.64,19.24,19.24,0,0,1-.33-4.25V135.9Z"/><path class="cls-6" d="M63.35,156.56V129.29h8v4.61A7,7,0,0,1,74,130,8.31,8.31,0,0,1,79,128.57a8.73,8.73,0,0,1,2.67.33l-1.45,7.72a11.25,11.25,0,0,0-2.83-.39,5.69,5.69,0,0,0-4.61,2.06,5.58,5.58,0,0,0-1.09,2,11.58,11.58,0,0,0-.3,3v13.27Z"/><path class="cls-6" d="M101.4,133v-3.72h8v27.27h-8v-3.5q-2.55,4.33-8.22,4.34a11.47,11.47,0,0,1-9-4,16.7,16.7,0,0,1,.06-20.59,11.3,11.3,0,0,1,8.92-4.15,9.79,9.79,0,0,1,7.22,2.84ZM95,135.23a6.07,6.07,0,0,0-4.75,2.21,9.14,9.14,0,0,0,0,11.16,6.61,6.61,0,0,0,9.83,0A8.23,8.23,0,0,0,102,143a8,8,0,0,0-2-5.54A6.39,6.39,0,0,0,95,135.23Z"/><path class="cls-6" d="M110.29,129.29h8.33l4.95,12.89.72,2.39a11.64,11.64,0,0,1,.22,1.36c.08.61.15,1.17.22,1.69.08-.7.14-1.21.2-1.53l.3-1.52.73-2.39,4.94-12.89h8.28l-11.39,27.27h-6.11Z"/><path class="cls-6" d="M167.4,145.45H147a7.43,7.43,0,0,0,2.25,4.48,6.36,6.36,0,0,0,4.42,1.63,7.91,7.91,0,0,0,4-1.16,10,10,0,0,0,3.31-3.06l5.66,3.89A16.72,16.72,0,0,1,160.9,156a16.44,16.44,0,0,1-7.23,1.45,14.45,14.45,0,0,1-10.52-3.92,13.57,13.57,0,0,1-4-10.19,14.63,14.63,0,0,1,4.06-10.56,13.63,13.63,0,0,1,10.27-4.22,13.28,13.28,0,0,1,10.11,4.11q3.9,4.11,3.89,10.78Zm-14-11.16q-5.28,0-6.45,6h12.61a7.12,7.12,0,0,0-2-4.39A5.74,5.74,0,0,0,153.4,134.29Z"/><path class="cls-6" d="M171.45,156.56v-40h8v40.05Z"/><path class="cls-6" d="M180.28,156.56l10.89-14.33-9.89-12.94H191l3.45,5.05a9.37,9.37,0,0,1,1.39,3.61,8.26,8.26,0,0,1,1.39-3.61l3.44-5.05h9.67l-9.89,12.94,11,14.33h-9.67l-4.33-6.22a10.41,10.41,0,0,1-1.61-3.94,11.15,11.15,0,0,1-.61,2.08,13.14,13.14,0,0,1-1.11,1.86l-4.23,6.22Z"/><path class="cls-6" d="M212.17,167V129.29h8v4.11q2.16-4.83,8.39-4.83a11.3,11.3,0,0,1,8.94,4q3.45,3.94,3.44,10.29a15.53,15.53,0,0,1-3.49,10.52,11.42,11.42,0,0,1-9.06,4.07q-5.89,0-8.22-4.67V167Zm14.39-31.66a6.32,6.32,0,0,0-4.95,2.11,8,8,0,0,0-1.89,5.55,8.3,8.3,0,0,0,1.89,5.67,6.3,6.3,0,0,0,5,2.17,6.11,6.11,0,0,0,4.81-2.14,8.13,8.13,0,0,0,1.86-5.53,8.43,8.43,0,0,0-1.86-5.64A6.07,6.07,0,0,0,226.56,135.29Z"/></g></g></g></g></g></svg>