<svg xmlns="http://www.w3.org/2000/svg" xmlns:xlink="http://www.w3.org/1999/xlink" viewBox="0 0 283.46 283.46"><defs><style>.cls-1{fill:none;}.cls-2{fill:#16b7cb;}.cls-3{fill:#424242;}.cls-4{fill:url(#radial-gradient);}.cls-5{clip-path:url(#clip-path);}.cls-6{fill:url(#radial-gradient-2);}.cls-7{fill:url(#radial-gradient-3);}.cls-8{fill:#fff;}</style><radialGradient id="radial-gradient" cx="132.65" cy="309.65" r="19.15" gradientTransform="matrix(0, -0.75, -0.67, 0, 371.67, 241.71)" gradientUnits="userSpaceOnUse"><stop offset="0" stop-color="#e6e6e6"/><stop offset="0.17" stop-color="#ccc"/><stop offset="0.35" stop-color="#b3b3b3"/><stop offset="0.53" stop-color="#878686"/><stop offset="0.72" stop-color="#5d5b5c"/><stop offset="0.9" stop-color="#3d3a3b"/><stop offset="1" stop-color="#2f2d2d"/></radialGradient><clipPath id="clip-path"><path class="cls-1" d="M155.46,141.73a6.72,6.72,0,1,0,6.71-6.71,6.72,6.72,0,0,0-6.71,6.71"/></clipPath><radialGradient id="radial-gradient-2" cx="-178.4" cy="451.62" r="0.85" gradientTransform="matrix(11.03, 0, 0, -11.03, 2129, 5122.32)" gradientUnits="userSpaceOnUse"><stop offset="0" stop-color="#fff"/><stop offset="0.17" stop-color="#fbfbfb"/><stop offset="0.35" stop-color="#efeeee"/><stop offset="0.54" stop-color="#dad9d8"/><stop offset="0.74" stop-color="#bebbba"/><stop offset="0.93" stop-color="#999694"/><stop offset="1" stop-color="#8a8684"/></radialGradient><radialGradient id="radial-gradient-3" cx="110.9" cy="244.79" r="29.27" gradientTransform="matrix(0.75, 0, 0, -0.75, 72.38, 316.85)" gradientUnits="userSpaceOnUse"><stop offset="0" stop-color="#bdbdbd"/><stop offset="0.17" stop-color="#b7b7b7"/><stop offset="0.35" stop-color="#858384"/><stop offset="0.53" stop-color="#646363"/><stop offset="0.72" stop-color="#595657"/><stop offset="0.9" stop-color="#383536"/><stop offset="1" stop-color="#2d2a2b"/></radialGradient></defs><g id="Layer_2" data-name="Layer 2"><g id="News"><g id="trtworld"><rect class="cls-2" width="283.46" height="283.46"/><g id="logo"><path class="cls-3" d="M147,129.42a2.41,2.41,0,0,0-2.31,1.72l-4.55,15.37L134,129.42h-2.53a1.67,1.67,0,0,0-1.64,1.2l-5.75,16-4.77-16a1.77,1.77,0,0,0-1.72-1.27h-3.5L121.81,154h2.24a2.41,2.41,0,0,0,2.24-1.57l5.82-15.36L138.52,154h2.69a1.61,1.61,0,0,0,1.56-1.12l7.31-23.42H147Z"/><path class="cls-3" d="M205.51,129.42H202.3a1.5,1.5,0,0,0-1.49,1.5V154h13.65a2.36,2.36,0,0,0,2.39-2.39v-2H205.44V129.42Z"/><path class="cls-3" d="M178.59,129.42a1.5,1.5,0,0,0-1.5,1.5V154h2.32a2.36,2.36,0,0,0,2.38-2.39v-4.92h5.37l6.05,7.31h5.59l-6.42-7.83h.38a8.67,8.67,0,0,0,5.15-8.28c0-4.11-2.84-8.51-9-8.51Zm3.2,4.48h7.39a3.77,3.77,0,0,1,3.06,1.42,4.63,4.63,0,0,1,1,2.76c-.08,1.71-1.5,4.25-4.11,4.25h-7.31Z"/><path class="cls-3" d="M220.36,129.42a1.5,1.5,0,0,0-1.49,1.5V154h8.57c9.33,0,13.5-6.19,13.5-12.31s-4.17-12.31-13.5-12.31Zm3.13,4.48H228a8.16,8.16,0,0,1,6.27,2.54,7.93,7.93,0,0,1-6.27,13.2h-4.47Z"/><path class="cls-4" d="M166.65,129.5c-.38-.08-.67-.22-1.05-.3-5.59-1.49-11.63,4.55-12.16,11.56a8.72,8.72,0,0,1,17.39,1,4,4,0,0,1-.08,1c-.52,7-6.56,13.06-12.16,11.56a5.06,5.06,0,0,1-1-.29,15.11,15.11,0,0,0,4.55.74,12.81,12.81,0,0,0,13.2-13,12.43,12.43,0,0,0-8.65-12.23Z"/><g id="ball"><g class="cls-5"><rect class="cls-6" x="155.46" y="135.02" width="13.43" height="13.43"/></g></g><path class="cls-7" d="M162.17,150.46a8.74,8.74,0,0,1-8.72-8.73,4.53,4.53,0,0,1,.07-1c.52-7,6.57-13,12.16-11.56a5.82,5.82,0,0,1,1,.3,14.75,14.75,0,0,0-4.55-.75,12.81,12.81,0,0,0-13.2,13A12.6,12.6,0,0,0,157.7,154c.37.07.67.22,1,.29,5.6,1.5,11.64-4.55,12.16-11.56a8.9,8.9,0,0,1-8.73,7.76Z"/><path class="cls-8" d="M78.85,129.42H68a1.69,1.69,0,0,0-1.72,1.72V154h4.18a2.32,2.32,0,0,0,2.31-2.31v-3.81H78L82.2,154h7l-5.08-7.17.6-.37a9.31,9.31,0,0,0,4-7.76c0-6.34-5.07-9.25-9.84-9.25ZM78.92,142H72.73v-6.71h6.19a3.28,3.28,0,0,1,3.36,3.35A3.36,3.36,0,0,1,78.92,142Z"/><path class="cls-8" d="M50.43,154H54.6a2.33,2.33,0,0,0,2.32-2.31V135.38h6a2,2,0,0,0,1.94-1.94v-4h-21a1.26,1.26,0,0,0-1.27,1.27v4.7h7.91Z"/><path class="cls-8" d="M97.42,154h4.18a2.32,2.32,0,0,0,2.31-2.31V135.39h6a2,2,0,0,0,1.94-1.94v-4h-21a1.26,1.26,0,0,0-1.27,1.27v4.7h7.91Z"/></g></g></g></g></svg>