<?xml version="1.0" encoding="UTF-8" standalone="no"?>
<svg
   viewBox="0 0 344.86261 120.01526"
   version="1.1"
   id="svg23"
   xmlns="http://www.w3.org/2000/svg"
   xmlns:svg="http://www.w3.org/2000/svg">
  <path
     d="M 267.63868,99.745549 H 266.31553 V 77.027991 H 267.63868 C 275.41222,77.027991 280.14759,80.526719 280.14759,88.758271 280.14759,96.473284 274.70993,99.737915 267.63868,99.737915 M 266.70993,58.664123 H 245.01527 V 117.31807 H 271.98728 C 289.16285,117.31807 301.44275,106.26463 301.44275,88.84733 301.44275,67.295166 286.36387,58.664123 266.70738,58.664123"
     id="path9"
     style="fill:#0a59ef" />
  <path
     d="M 304.83461,58.664123 V 117.31552 H 344.8626 V 101.28499 H 326.28754 V 95.526719 H 342.68703 V 80.284988 H 326.28754 V 74.687024 H 344.24174 V 58.656489 Z"
     id="path11"
     style="fill:#0a59ef" />
  <path
     d="M 220.20611,91.170485 202.23664,58.664123 H 181.80153 V 117.3028 H 202.22647 V 86.49364 L 220.19593,117.3028 H 240.55217 V 58.664123 H 220.19593 Z"
     id="path13"
     style="fill:#0a59ef" />
  <path
     d="M 83.760815,58.664123 74.045803,84.08906 64.21883,58.664123 Z M 83.760815,0 74.045803,33.178118 64.211197,0 H 0 V 18.552163 H 13.671756 V 58.664123 H 35.727736 V 18.445293 H 48.826973 L 64.211197,58.661578 H 43.740459 L 34.262087,117.3028 H 54.854963 L 57.890586,85.170485 67.844785,117.3028 H 80.279899 L 90.221375,85.170485 93.104327,117.3028 H 113.69975 L 104.07125,58.661578 H 83.760815 L 106.29008,0 Z"
     id="path15"
     style="fill:#0a59ef" />
  <path
     d="M 145.71756,100.15776 A 12.175573,12.175573 0 1 1 157.89568,87.979645 12.178117,12.178117 0 0 1 145.71756,100.15776 M 145.71756,55.961833 C 145.08397,55.961833 144.44529,55.984734 143.83206,56.020357 A 19.35369,19.35369 0 0 0 156.61323,38.717558 C 157.37659,26.613232 144.45038,20.376591 137.22647,20.376591 128.18066,20.376591 124.61578,22.628499 124.61578,22.628499 L 125.82952,16.452926 H 152.83715 V 0 H 110.17812 L 104.41985,34.877863 A 77.353691,77.353691 0 0 1 118.53435,32.48855 C 126.07125,32.038168 133.74555,33.816794 133.54708,38.78626 133.38168,43.053436 124.19593,45.165395 116.91094,43.671756 A 68.463105,68.463105 0 0 1 103.79135,39.402036 L 101.20356,54.961833 C 101.20356,54.961833 115.07379,59.760815 125.20102,59.513996 127.17557,59.46565 129.52672,59.335879 132.04835,59.022902 A 32.022901,32.022901 0 1 0 145.71756,55.969466"
     id="path17"
     style="fill:#0a59ef" />
</svg>
