<svg xmlns="http://www.w3.org/2000/svg" xmlns:xlink="http://www.w3.org/1999/xlink" viewBox="0 0 283.46 283.46"><defs><style>.cls-1{fill:url(#linear-gradient);}.cls-2{fill:#fff;}</style><linearGradient id="linear-gradient" y1="141.73" x2="283.46" y2="141.73" gradientUnits="userSpaceOnUse"><stop offset="0" stop-color="#0082be"/><stop offset="0.02" stop-color="#0083bf"/><stop offset="0.03" stop-color="#0084c0"/><stop offset="0.05" stop-color="#0085c0"/><stop offset="0.06" stop-color="#0086c1"/><stop offset="0.08" stop-color="#0087c1"/><stop offset="0.1" stop-color="#0087c2"/><stop offset="0.11" stop-color="#0088c2"/><stop offset="0.13" stop-color="#0089c3"/><stop offset="0.14" stop-color="#008ac3"/><stop offset="0.16" stop-color="#008bc4"/><stop offset="0.17" stop-color="#008cc4"/><stop offset="0.19" stop-color="#008dc5"/><stop offset="0.21" stop-color="#008ec5"/><stop offset="0.22" stop-color="#008ec6"/><stop offset="0.24" stop-color="#0090c7"/><stop offset="0.25" stop-color="#0090c7"/><stop offset="0.27" stop-color="#0091c8"/><stop offset="0.29" stop-color="#0092c8"/><stop offset="0.3" stop-color="#0093c9"/><stop offset="0.32" stop-color="#0094c9"/><stop offset="0.33" stop-color="#0095ca"/><stop offset="0.35" stop-color="#0096ca"/><stop offset="0.37" stop-color="#0096cb"/><stop offset="0.38" stop-color="#0098cb"/><stop offset="0.4" stop-color="#09c"/><stop offset="0.41" stop-color="#009acc"/><stop offset="0.43" stop-color="#009acd"/><stop offset="0.44" stop-color="#009bcd"/><stop offset="0.46" stop-color="#009cce"/><stop offset="0.48" stop-color="#009dcf"/><stop offset="0.49" stop-color="#009ecf"/><stop offset="0.51" stop-color="#009fd0"/><stop offset="0.52" stop-color="#00a0d0"/><stop offset="0.54" stop-color="#00a1d1"/><stop offset="0.56" stop-color="#00a2d1"/><stop offset="0.57" stop-color="#00a3d2"/><stop offset="0.59" stop-color="#00a4d2"/><stop offset="0.6" stop-color="#00a5d3"/><stop offset="0.62" stop-color="#00a6d3"/><stop offset="0.63" stop-color="#00a7d4"/><stop offset="0.65" stop-color="#00a8d4"/><stop offset="0.67" stop-color="#00a8d5"/><stop offset="0.68" stop-color="#00aad6"/><stop offset="0.7" stop-color="#00abd6"/><stop offset="0.71" stop-color="#00acd7"/><stop offset="0.73" stop-color="#00acd7"/><stop offset="0.75" stop-color="#00aed8"/><stop offset="0.76" stop-color="#00aed8"/><stop offset="0.78" stop-color="#0eafd9"/><stop offset="0.79" stop-color="#13b0d9"/><stop offset="0.81" stop-color="#17b1d9"/><stop offset="0.83" stop-color="#19b2da"/><stop offset="0.84" stop-color="#1cb3db"/><stop offset="0.86" stop-color="#22b4db"/><stop offset="0.87" stop-color="#25b5dc"/><stop offset="0.89" stop-color="#26b6dd"/><stop offset="0.9" stop-color="#28b7dd"/><stop offset="0.92" stop-color="#2ab8dd"/><stop offset="0.94" stop-color="#2fb9de"/><stop offset="0.95" stop-color="#31bade"/><stop offset="0.97" stop-color="#32bbdf"/><stop offset="0.98" stop-color="#34bcdf"/><stop offset="1" stop-color="#38bde0"/></linearGradient></defs><g id="Layer_2" data-name="Layer 2"><g id="News"><g id="tv5monde"><rect class="cls-1" width="283.46" height="283.46"/><g id="logo"><path id="path3552" class="cls-2" d="M171.86,129.39v24.79h8.67V141.24l7.6,12.94h8.73V129.39h-8.63V143l-7.7-13.65Z"/><path id="path3560" class="cls-2" d="M208.81,129.34a1.89,1.89,0,0,0-.46,0h-9.59v24.79h11.8s12.06,0,12.06-12.06-11.39-12.78-13.8-12.78Zm-1.07,7.85h1s4.83-.24,4.83,4.67-4.83,4.83-4.83,4.83h-1v-9.5Z"/><path id="path3568" class="cls-2" d="M156.72,128.88c-8,0-13.86,5.73-13.86,12.83s5.24,12.88,13.86,12.88,13.75-5.78,13.75-12.88-5.73-12.83-13.75-12.83Zm-.05,8.26A4.8,4.8,0,1,1,152,142,4.75,4.75,0,0,1,156.67,137.14Z"/><path id="path3576" class="cls-2" d="M224.06,129.39v24.79h16.88V147.3h-7.8V145H240v-6.52h-6.93v-2.26h7.6v-6.82Z"/><path id="path3584" class="cls-2" d="M113.45,129.39l-4,24.79h8.78l1.28-13.45,4.16,13.45H129l4.21-13.5,1.18,13.5h8.78l-4.06-24.79h-9.29l-3.44,12.83-3.54-12.83Z"/><path id="path3592" class="cls-2" d="M89.59,129.39s-2.29,14-2.42,14.73a23.16,23.16,0,0,1,8.27-.92c2.44.23,4.27,1.08,4,2.56-.31,1.71-2.64,2.39-5.44,2.21a19.49,19.49,0,0,1-7.13-2c-.2,1.09-1.08,6.62-1.08,6.62a27.37,27.37,0,0,0,15.14,1.49c8.62-1.55,9.33-8.82,7.8-11.55-3.66-6.57-11.55-4.21-12.93-3.65.36-2.13.46-2.56.46-2.56H107.6v-6.93Z"/><path id="path3600" class="cls-2" d="M42.52,129.39v7.8h5.7v17h9.39v-17h5l7,17h8.26L88.3,129.39H78l-4.11,14-4.16-14Z"/></g></g></g></g></svg>