<svg xmlns="http://www.w3.org/2000/svg" viewBox="0 0 283.46 283.46"><defs><style>.cls-1{fill:#fff;}</style></defs><title>uhd1byastrahdplus</title><g id="Layer_2" data-name="Layer 2"><g id="Other"><g id="uhd1byastrahdplus"><rect width="283.46" height="283.46"/><g id="logo"><path class="cls-1" d="M177,121.78v38.78h-5.49V129.11l-3.29,2.17-5.7,3.76-2.47-5.24,11.39-8Zm-39.71,0c5.74,0,9.45.81,11.67,2.57s3.39,5,3.39,10V148c0,4.74-.78,7.67-2.54,9.5-2,2.08-5.73,3.1-11.38,3.1h-15V121.78ZM129,157h8.91c3.5,0,5.6-.56,7-1.88,1.71-1.59,1.94-3.9,1.94-6v-14.3c0-2.7-.09-4.9-1.24-6.63-1.69-2.53-4.95-2.83-7.25-2.83H129V157Zm-15.75-35.21v38.78h-5.55v-18.2H89.84v18.2H84.28V121.78h5.56v17h17.82v-17Zm-38.61,0v26.6c0,4.52-1.09,7.71-3.34,9.75s-5.63,3-10.28,3h-2.7c-9.42,0-13.62-3.92-13.62-12.72v-26.6h5.55v26.66c0,2.52,0,9.22,8.55,9.22H60.5c8.55,0,8.55-6.7,8.55-9.22V121.78Zm104.57-2.12h-8.35l-13.4,9.43,4.26,9.07,7.76-5.11v29.64h9.73Zm-41.84,0H121.28v43h17.19c13,0,16-5.1,16-14.72V134.38c0-11.54-5.46-14.72-17.18-14.72m-6.25,35.21V127.53h7.27c6.13,0,6.37,2.58,6.37,7.33v14.3c0,4.09-1.08,5.71-6.85,5.71Zm-15.76-35.19h-9.79v17H92v-17h-9.8v43H92V144.49h13.58V162.7h9.79Zm-38.61,0H66.92v28.78c0,4.15-1,7.09-6.43,7.09H58.74c-5.46,0-6.42-2.94-6.42-7.09V119.68h-9.8V148.4c0,10.4,5.59,14.84,15.74,14.84H61c10.21,0,15.74-4.44,15.74-14.84Z"/><path class="cls-1" d="M208.33,148.45v15.68h32.61V148.45ZM216.2,159a.13.13,0,0,1-.13.12h-.67a.13.13,0,0,1-.12-.12v-2.39h-2.93V159a.12.12,0,0,1-.12.12h-.68a.13.13,0,0,1-.12-.12v-5.35a.1.1,0,0,1,.1-.11l.71-.1a.1.1,0,0,1,.11.11v2.31h2.93v-2.21c0-.07.05-.1.11-.11l.71-.1a.1.1,0,0,1,.1.11Zm3.07.12h-2.16A.13.13,0,0,1,217,159v-5.34a.12.12,0,0,1,.12-.12h2.16c1.77,0,2.57.57,2.57,2.78s-.8,2.8-2.57,2.8m21,4.33H224.83V149.12h15.45Z"/><path class="cls-1" d="M219.17,154.24h-1.26v4.18h1.26c1.21,0,1.74-.29,1.74-2.1s-.53-2.08-1.74-2.08"/><path class="cls-1" d="M234.85,156.79H233v1.88c0,.11-.06.17-.15.17h-.61a.14.14,0,0,1-.15-.16v-1.89h-1.84a.15.15,0,0,1-.17-.17v-.53a.15.15,0,0,1,.17-.16h1.84V154a.13.13,0,0,1,.14-.13h.61a.15.15,0,0,1,.16.16v1.86h1.84a.16.16,0,0,1,.17.17v.53c0,.1-.05.16-.17.16"/><path class="cls-1" d="M192.94,146.16c0,1.8-1.07,2.39-2.67,2.39a12.85,12.85,0,0,1-3.25-.42v-8.84l1.69-.36v3.14a8.79,8.79,0,0,1,1.9-.27c1.85,0,2.33,1,2.33,2.42Zm-1.68-1.87c0-.72-.17-1.15-1-1.15a6.17,6.17,0,0,0-1.59.25v3.7a5.82,5.82,0,0,0,1.34.13c.95,0,1.21-.29,1.21-1Z"/><path class="cls-1" d="M194.37,150.36a2.25,2.25,0,0,0,1.87-1.42l.19-.51H196l-2.45-6.51h1.81L197,147l1.67-5.12h1.8l-2.7,7.14a3.51,3.51,0,0,1-3.05,2.57Z"/><path class="cls-1" d="M234.91,142.27h.92l-2.26-5.07H233l-2.17,5.07h.92l.54-1.29h2.08l.58,1.29m-2.31-2.1c.31-.75.61-1.44.66-1.57l.71,1.57Z"/><path class="cls-1" d="M218.7,138.55c0,.77.64,1.16,1.21,1.5s.89.54.89.95c0,.2-.19.52-.69.52a1.53,1.53,0,0,1-1.21-.67l-.17-.21v1.2l0,0a2.22,2.22,0,0,0,1.42.46,1.38,1.38,0,0,0,1.45-1.41c0-.92-.72-1.33-1.3-1.65s-.8-.46-.8-.81.27-.48.67-.48a1.56,1.56,0,0,1,1.08.48l.16.14v-1l0,0a2,2,0,0,0-1.14-.36,1.4,1.4,0,0,0-1.57,1.39"/><path class="cls-1" d="M226.2,137.22h-4.15V138h1.68v4.23h.89V138h1.68v-.82Z"/><path class="cls-1" d="M217.57,142.26h.91l-2.25-5.07h-.62l-2.16,5.07h.91l.55-1.29H217c.29.66.54,1.21.58,1.29m-2.32-2.1c.32-.75.61-1.44.66-1.57l.71,1.57Z"/><path class="cls-1" d="M229.19,139.87a1.28,1.28,0,0,0,.74-1.2c0-.89-.65-1.45-1.69-1.45h-1.32v5h.89v-2.11c.89,0,.86.34,1.81,2.11h1a23.56,23.56,0,0,0-1.47-2.39M227.81,138h.35c.77,0,.86.37.87.64v0a.62.62,0,0,1-.17.46.93.93,0,0,1-.7.22h-.35Z"/><path class="cls-1" d="M219.64,129.25l5-9.91,5,9.9c-2.47-2.45-7.61-2.44-9.91,0"/><path class="cls-1" d="M216.37,135.79c3.28-8.08,13.2-8,16.41,0-4.86-5.19-11.53-5.11-16.41,0"/></g></g></g></g></svg>