<?xml version="1.0" encoding="utf-8"?>
<!-- Generator: Adobe Illustrator 23.1.0, SVG Export Plug-In . SVG Version: 6.00 Build 0)  -->
<svg version="1.1" id="_x31_" xmlns="http://www.w3.org/2000/svg" xmlns:xlink="http://www.w3.org/1999/xlink" x="0px" y="0px"
	 viewBox="0 0 996 132.2" style="enable-background:new 0 0 996 132.2;" xml:space="preserve">
<style type="text/css">
	.st0{fill:#FFCB05;}
	.st1{fill-rule:evenodd;clip-rule:evenodd;fill:#FFCB05;}
	.st2{fill-rule:evenodd;clip-rule:evenodd;fill:#0C3354;}
</style>
<g>
	<g>
		<path class="st0" d="M881.8,100.9v31.3H776v-2.8c0-4.4,0.4-8.5,1.1-12.3c0.7-3.8,1.7-7.2,2.7-10.1c1.1-3.1,2.9-6.2,5.3-9.2
			c2.3-2.9,4.3-5.3,6-7.2c1.8-2,4.5-4.3,8.3-7c3.6-2.6,6.5-4.7,8.7-6.1s5.5-3.6,10.2-6.6s8.2-5.3,10.7-7c6.5-4.4,10.7-7.8,12.5-10
			c2.1-2.7,3.1-5.7,3.1-9c0-4.2-1.3-7.3-3.8-9.7c-2.6-2.4-6.2-3.6-10.8-3.6c-7.4,0-17.1,2.4-17.1,22.9v2.4h-34v-2.4
			c0-16.7,4.4-30.1,13.1-39.7C800.7,4.9,814,0,831.4,0c14.8,0,26.7,3.8,35.6,11.4c8.9,7.6,13.4,18,13.4,30.9c0,3.9-0.4,7.5-1.1,10.8
			c-0.7,3.4-2.2,6.7-4.3,9.8c-1.9,2.9-3.6,5.2-5,6.9c-1.5,1.9-4,4.1-7.7,6.9c-3.6,2.7-6.1,4.4-7.6,5.4c-1.5,0.9-4.5,2.9-8.8,5.7
			c-1.7,1.1-4.2,2.6-7.4,4.7c-3.1,1.9-5.4,3.4-6.6,4.2c-1.2,0.8-2.8,2-4.7,3.4c-0.3,0.2-0.5,0.4-0.8,0.7L881.8,100.9L881.8,100.9z"
			/>
	</g>
	<g>
		<path class="st0" d="M979.4,73.5V0.9h-33.1l-57.4,71.3v31.7h54.9v28.3h35.7v-28.3H996V73.5H979.4z M918.9,73.7l25.7-31.9v31.9
			H918.9z"/>
	</g>
	<circle id="Oval" class="st1" cx="455" cy="32.8" r="14.5"/>
	<circle class="st1" cx="476.9" cy="14.5" r="14.5"/>
	<polygon id="Shape_8_" class="st2" points="455,132.2 455,64 491.9,33.1 491.9,132.2 	"/>
	<path class="st2" d="M238.7,132.2V32.8h57c31,0,42.2,19.2,42.2,35.7c0,17.4-12.7,35.1-41.3,35.1h-21v28.6H238.7L238.7,132.2z
		 M275.6,80.9h7.7c11.5,0,17.4-4.4,17.4-12.7c0-5.9-3-12.7-17.7-12.7h-7.4V80.9L275.6,80.9z"/>
	<path class="st2" d="M407.2,132.2l-6.8-21.2h-29.8l-6.5,21.2h-36.9L361.1,33h50.2l34.5,99.2H407.2L407.2,132.2z M374.8,87.9h21.5
		L386,56.1h-0.6h-0.3L374.8,87.9L374.8,87.9z"/>
	<polygon class="st2" points="28,132.2 39,110.7 0,32.8 38.7,32.8 58.1,72 77.9,32.8 116.6,32.8 66.7,132.2 	"/>
	<polygon class="st2" points="574.6,132.2 574.6,95.3 549.2,95.3 549.2,132.2 512.3,132.2 512.3,32.8 549.2,32.8 549.2,67.3 
		574.6,67.3 574.6,32.8 611.7,32.8 611.7,132.2 	"/>
	<path class="st2" d="M702.6,132.2l-6.8-21.2H666l-6.5,21.2h-36.9L656.5,33h50.2l34.5,99.2H702.6L702.6,132.2z M670.2,87.9h21.5
		L681.4,56h-0.9L670.2,87.9L670.2,87.9z"/>
	<polygon class="st2" points="186.2,132.2 163.2,92.7 163.2,132.2 126.3,132.2 126.3,32.8 163.2,32.8 163.2,72 186.5,32.8 
		227.8,32.8 198,82.3 227.8,132.2 	"/>
</g>
</svg>
