<svg xmlns="http://www.w3.org/2000/svg" viewBox="0 0 283.46 283.46"><defs><style>.cls-1{fill:#941bc8;}.cls-2{fill:#eee;}.cls-3{fill:#fff;}</style></defs><title>vh1</title><g id="Layer_2" data-name="Layer 2"><g id="Other_music" data-name="Other music"><g id="vh1"><rect class="cls-1" width="283.46" height="283.46"/><g id="logo"><path id="path3790" class="cls-2" d="M182.4,154.8v24.31a1.48,1.48,0,0,1-1.41,1.41H160.71a1.37,1.37,0,0,1-1.44-1.52V154.82c0-1.12-.58-1.59-1.75-1.59H130.87l.79-23.13h25.83c1.2,0,1.78-.54,1.78-1.64V105.11a1.89,1.89,0,0,1,2.15-2.16h19.22a1.63,1.63,0,0,1,1.76,1.76v23.75c0,1,.28,1.64,1.77,1.64h20.66v21.68a1.37,1.37,0,0,1-1.52,1.45H184.17c-1.32,0-1.77.63-1.77,1.57Z"/><path id="path3786" class="cls-3" d="M87.4,180.52H71.24c-1.35,0-1.86-1.14-2.3-2.52L42.75,105c-.37-1-.47-2,1-2H64.6c1.49,0,2,.8,2.48,2.31l11.59,37.57c.34,1.15,1,1.18,1.33,0l11.72-38.11A2.16,2.16,0,0,1,93.87,103h43.78a1.62,1.62,0,0,1,1.75,1.76v74.4a1.48,1.48,0,0,1-1.4,1.41H117.58a1.37,1.37,0,0,1-1.45-1.52V107.4c0-.82-.71-1.16-1.15,0L89.72,178.16C89.29,179.33,88.74,180.52,87.4,180.52Z"/><path id="path3788" class="cls-3" d="M239.19,103a1.62,1.62,0,0,1,1.75,1.76v74.4a1.48,1.48,0,0,1-1.4,1.41H219.26a1.36,1.36,0,0,1-1.44-1.52V131.8a1.5,1.5,0,0,0-1.59-1.7h-11.4V115.53c0-1.17.47-1.71,1.55-2.58l10.58-8c1.56-1.15,2.29-2,3.79-2Z"/></g></g></g></g></svg>