<svg xmlns="http://www.w3.org/2000/svg" viewBox="0 0 283.46 283.46"><defs><style>.cls-1{fill:#231f20;}.cls-2{fill:#fff;}</style></defs><title>vh1classic</title><g id="Layer_2" data-name="Layer 2"><g id="Other_music" data-name="Other music"><g id="vh1classic"><rect class="cls-1" width="283.46" height="283.46"/><g id="logo"><path id="path14295" class="cls-2" d="M148,124.16a2.58,2.58,0,0,1-.87.17c-.9,0-1.34-.36-1.34-1.3V121.4h-1.62v2c0,.63-.48.9-1.09.9s-1.08-.25-1.07-.9l0-4.8c0-.38-.64-.25-.64-.79,0-.38.23-.57.58-.69a2.54,2.54,0,0,1,.87-.17c.88,0,1.35.36,1.35,1.3v1.52h1.62v-1.9c0-.63.46-.89,1.07-.9s1.09.25,1.09.89l0,4.81c0,.39.65.25.65.79a.72.72,0,0,1-.58.69m-7.42-6-1.81,5a1.7,1.7,0,0,1-1.57,1.28,1.62,1.62,0,0,1-1.57-1.28l-1.27-4.48c-.11-.4-.7-.18-.7-.87,0-.3.24-.5.55-.62A2.49,2.49,0,0,1,135,117c.65,0,1.26.22,1.4.89l1,4.27h.06l1.34-4.31a.91.91,0,0,1,1-.78c.4,0,1,.19.71,1.08M157.39,134a3.27,3.27,0,0,0-3.28-3.27h-.88a3.34,3.34,0,0,1-3.29-3.28h0l0-25.61a3.29,3.29,0,0,0-3.29-3.28h-6a4.12,4.12,0,0,0-2.7,1.2c-2.84,2.51-4.91,3.8-8.7,4.32a3.48,3.48,0,0,0-3.5,3.29v3.75c0,3.28,1.48,3.28,3.29,3.28h2a1.51,1.51,0,0,1,1.48,1.64l0,11.63a3.12,3.12,0,0,1-3.28,3.09h-1.84A3.28,3.28,0,0,0,124,134v6.15a3.28,3.28,0,0,0,3.29,3.27l26.78,0a3.28,3.28,0,0,0,3.28-3.29V134"/><path id="path14297" class="cls-2" d="M46.08,196.91a15.06,15.06,0,0,1-3.57-10.47,17.18,17.18,0,0,1,17-16.76c3.73,0,7.52.23,10.71,2.33a5.07,5.07,0,0,1,2.54,5.6c-.48,3.37-1.38,4.4-5.29,4.7-2.11.18-4.82-.53-5.42-2.89-.24-.84-.66-1.38-1.27-1.38a3,3,0,0,0-2.16,1c-1.68,1.93-2,5.6-2,7.7a7.93,7.93,0,0,0,1,4.28,4.92,4.92,0,0,0,4.28,2,9.52,9.52,0,0,0,5.18-1.75,3.63,3.63,0,0,1,5.18,1.08,3.55,3.55,0,0,1-.54,4.69c-1.62,1.81-5.71,4.58-12.57,4.6H59.1c-6.22,0-10.06-1.38-13-4.67"/><path id="path14299" class="cls-2" d="M76.77,194.51l0-30.81c0-4,3-5.48,6.79-5.49s6.8,1.44,6.81,5.47l0,27.14c0,2.59,3.73.84,3.73,4.69,0,2-1.37,3.25-3.84,4.22a15.82,15.82,0,0,1-6.43,1.15c-3.55,0-7-2.39-7.06-6.37"/><path id="path14301" class="cls-2" d="M112.21,187.35l-2.83,1a1.81,1.81,0,0,0-1.32,1.56v.42A1.82,1.82,0,0,0,110,192c2.35,0,3.43-1.39,3.43-2.89V187.9a.69.69,0,0,0-.76-.62,1.36,1.36,0,0,0-.44.08m-16.07,4.54c0-5.12,3.3-6.86,8-8.13l9.09-2.36v-1.51A2.1,2.1,0,0,0,111,177.6c-1.5,0-1.8.37-2.28,1.7-.9,2.65-3.06,3-5.59,3-3.19,0-4.94-1.2-4.95-4.63,0-2.65.24-4.45,5.35-6.33a29.88,29.88,0,0,1,8.36-1.51c9.93,0,14.21,4.25,14.22,12.19v7.75c0,1.39.31,1.81,1.87,2.29a2.75,2.75,0,0,1,1.81,2.83c0,1.92-1.08,3.13-3.48,4.34a13.36,13.36,0,0,1-6.08,1.51,5.75,5.75,0,0,1-5.84-4.14l-.12-.31a10.59,10.59,0,0,1-8.48,4.65c-6.86,0-9.63-3.78-9.64-9"/><path id="path14303" class="cls-2" d="M132.75,197.08a4,4,0,0,1,5.7-5.67,6.65,6.65,0,0,0,4.46,1.74,3,3,0,0,0,2.53-.91c.3-.48.06-1.15-.85-1.87s-3-1.31-5.78-2.82-6.2-3.9-6.21-8.48c0-5.77,6.36-9.46,13.64-9.47,6.79,0,9.93,2.22,11.56,4.25a3.75,3.75,0,0,1,.37,4.76,4.1,4.1,0,0,1-5.66.79,8.2,8.2,0,0,0-4.21-1.31,1.86,1.86,0,0,0-1.93.79c-.3.9.31,1.56,2.29,2.52s3.85,1.62,5.73,2.64c2.59,1.5,4.82,3.79,4.82,7.76s-3.89,9.69-13.83,9.71h-.07c-7.12,0-10.9-2.39-12.57-4.43"/><path id="path14305" class="cls-2" d="M162.78,197a4,4,0,0,1,5.71-5.66,6.57,6.57,0,0,0,4.45,1.73,3,3,0,0,0,2.53-.91c.3-.48.06-1.14-.85-1.86s-3-1.31-5.78-2.82-6.2-3.9-6.21-8.47c0-5.78,6.37-9.46,13.65-9.47,6.79,0,9.93,2.21,11.56,4.25a3.76,3.76,0,0,1,.37,4.76,4.1,4.1,0,0,1-5.66.78,8.18,8.18,0,0,0-4.22-1.31c-1-.06-1.68.24-1.92.79-.3.9.31,1.56,2.29,2.52s3.86,1.62,5.73,2.64c2.59,1.5,4.82,3.78,4.83,7.76s-3.9,9.69-13.83,9.71h-.07c-7.12,0-10.9-2.4-12.58-4.43"/><path id="path14307" class="cls-2" d="M192.39,162.74c0-3.91,5.17-5.12,8.24-5.12s6.5,1,6.5,4.68c0,4-4.44,4.88-7.57,4.88h-.06c-3,0-7.1-.55-7.11-4.44m.29,29.79,0-17c0-4.09,3.18-5.47,6.79-5.48s6.8,1.37,6.81,5.46l0,15.53c0,2.41,4,1.56,4,4.75,0,2.23-1.27,3.37-3.31,4a18.2,18.2,0,0,1-5.42.85c-5.59,0-8.79-2.28-8.8-8.11"/><path id="path14309" class="cls-2" d="M214.11,196.65c-2.41-2.82-3.56-6-3.57-10.47a17.19,17.19,0,0,1,17-16.75c3.73,0,7.52.23,10.71,2.33a5.05,5.05,0,0,1,2.54,5.6c-.47,3.37-1.38,4.39-5.29,4.69-2.11.18-4.82-.54-5.42-2.88-.24-.84-.66-1.38-1.27-1.38a3,3,0,0,0-2.16,1c-1.69,1.92-2,5.6-2,7.7a7.92,7.92,0,0,0,1,4.27,4.92,4.92,0,0,0,4.28,2,9.55,9.55,0,0,0,5.18-1.75,3.62,3.62,0,0,1,5.18,1.08,3.55,3.55,0,0,1-.54,4.69c-1.62,1.81-5.71,4.58-12.57,4.59h-.1c-6.19,0-10-1.38-13-4.67"/><path id="path14313" class="cls-2" d="M111.66,123A29.42,29.42,0,1,0,141.08,93.6,29.42,29.42,0,0,0,111.66,123M100,123a41.13,41.13,0,1,1,41.12,41.13A41.13,41.13,0,0,1,100,123"/></g></g></g></g></svg>