<svg xmlns="http://www.w3.org/2000/svg" xmlns:xlink="http://www.w3.org/1999/xlink" viewBox="0 0 283.46 283.46"><defs><style>.cls-1{fill:url(#linear-gradient);}.cls-2{fill:#fff;}.cls-3{fill:#9d9d9c;}</style><linearGradient id="linear-gradient" x1="13.38" y1="294.69" x2="270.08" y2="-11.23" gradientUnits="userSpaceOnUse"><stop offset="0" stop-color="#526123"/><stop offset="1" stop-color="#becd0b"/></linearGradient></defs><g id="Layer_2" data-name="Layer 2"><g id="Viasat"><g id="viasatnature"><rect class="cls-1" width="283.46" height="283.46"/><g id="logo"><path class="cls-2" d="M165.05,42.52V88.41l11.22,28.89-11.22-13.93v.22L115.83,42.52H72.57V180.86h45.85V117l51.39,63.84h41.08V42.52Z"/><path class="cls-3" d="M72.57,186.26H210.9V213.2H72.57V186.26Z"/><path class="cls-2" d="M153.82,198.66c-.81-.41-1.75-.54-4.2-.54h-3.19c-1,0-1.44-.41-1.44-1.38v-.2a.61.61,0,0,1,0-.14c.05-.87.48-1.26,1.43-1.26h3.48a1.71,1.71,0,0,1,1.05.28l0,.05a1.12,1.12,0,0,1,.29.77c.41,0,3.71-.29,4.15-.33a11.3,11.3,0,0,0-.29-1.12c-.8-2.37-2.44-3.26-5.76-3.26h-2.53c-4.09,0-6.09,1.36-6.09,4.16v1.92a3.21,3.21,0,0,0,1.68,3.1c.82.44,1.76.55,4.19.55h3.2c1,0,1.44.4,1.44,1.37v.23c0,1-.43,1.4-1.44,1.4h-3.48a1.43,1.43,0,0,1-1.11-.36,1.17,1.17,0,0,1-.27-.79l-4.18.18c.5,3.35,2.17,4.61,6.06,4.61h2.53c4.11,0,6.1-1.38,6.1-4.21v-1.91a3.21,3.21,0,0,0-1.68-3.12m35.31-7H172.92v3.87h5.82v12.3h4.55v-12.3h5.84Zm-60.69,11.4,2.09-5.56,2.09,5.56Zm3.68-11.4H128.9l-7,16.24h4.71l.69-1.83h6.45l.68,1.83h4.67Zm31.4,11.4,2.07-5.58,2.09,5.58Zm3.67-11.4H164l-7,16.24h4.71l.68-1.83h6.45l.69,1.83h4.68ZM103,202.08l-3.92-10.41H94.34l7,16.24h3.24l7-16.24h-4.68L103,202.08Zm11.53,5.76h4.55V191.67H114.5Z"/><path class="cls-2" d="M72.56,218.57H77l10.32,13.56V218.57h4.78v22H88l-10.68-14v14H72.56v-22Z"/><path class="cls-2" d="M111.67,231.41l-2.94-7.14-2.93,7.14Zm-5.12-13H111l9.45,22.21h-5.07l-2-5h-9.32l-2,5H97.12Z"/><path class="cls-2" d="M127.75,223h-6.7v-4.47h18.24V223h-6.7V240.6h-4.84Z"/><path class="cls-2" d="M153.79,240.94a9.64,9.64,0,0,1-7-2.46c-1.69-1.65-2.55-4.08-2.55-7.32V218.58h4.86V231a5.76,5.76,0,0,0,1.26,4.06,4.46,4.46,0,0,0,3.49,1.37,4.6,4.6,0,0,0,3.49-1.3,5.56,5.56,0,0,0,1.27-4V218.58h4.85V231a12.63,12.63,0,0,1-.68,4.38,8.51,8.51,0,0,1-1.93,3.11,8,8,0,0,1-3,1.85,12.3,12.3,0,0,1-4,.61"/><path class="cls-2" d="M179.73,229.3a4,4,0,0,0,2.76-.85,2.92,2.92,0,0,0,1-2.28v-.07a2.86,2.86,0,0,0-1-2.37,4.41,4.41,0,0,0-2.79-.79h-4.81v6.36ZM170,218.56h10.08a8.71,8.71,0,0,1,6.42,2.25,6.88,6.88,0,0,1,1.89,5v.07a7,7,0,0,1-1.31,4.37,7.62,7.62,0,0,1-3.41,2.46l5.38,7.88h-5.67l-4.72-7.06h-3.8v7.06H170Z"/><path class="cls-2" d="M194.15,218.57h16.6v4.3H198.93v4.49h10.4v4.3h-10.4v4.63h12v4.31H194.15Z"/></g></g></g></g></svg>