<svg xmlns="http://www.w3.org/2000/svg" xmlns:xlink="http://www.w3.org/1999/xlink" viewBox="0 0 283.46 283.46"><defs><style>.cls-1{fill:url(#linear-gradient);}.cls-2{fill:#918f90;}.cls-3{fill:#fff;}</style><linearGradient id="linear-gradient" x1="13.38" y1="294.69" x2="270.08" y2="-11.23" gradientUnits="userSpaceOnUse"><stop offset="0" stop-color="#1c0c0e"/><stop offset="0.53" stop-color="#de1d28"/><stop offset="0.99" stop-color="#de1d28"/><stop offset="0.99" stop-color="#de1d28"/><stop offset="1" stop-color="#de1d28"/></linearGradient></defs><title>viasatexplore</title><g id="Layer_2" data-name="Layer 2"><g id="Viasat"><g id="viasatexplore"><rect class="cls-1" width="283.46" height="283.46"/><g id="logo"><path class="cls-2" d="M72.53,213.09H210.76V186.16H72.53Z"/><path class="cls-3" d="M153.73,198.56c-.82-.43-1.76-.55-4.2-.55h-3.19c-1,0-1.43-.4-1.43-1.37v-.2a.62.62,0,0,1,0-.14c0-.88.48-1.25,1.42-1.25h3.48a1.65,1.65,0,0,1,1,.27h0l.07.05a1.19,1.19,0,0,1,.29.76l4.14-.33a7.72,7.72,0,0,0-.3-1.12h0c-.78-2.37-2.44-3.26-5.75-3.26h-2.53c-4.09,0-6.09,1.36-6.09,4.16v1.91a3.21,3.21,0,0,0,1.67,3.11c.82.42,1.75.55,4.19.55h3.2c1,0,1.44.39,1.44,1.36v.23c0,1-.44,1.39-1.44,1.39h-3.48a1.48,1.48,0,0,1-1.11-.34,1.2,1.2,0,0,1-.28-.79l-4.17.17c.51,3.36,2.18,4.61,6.05,4.61h2.53c4.11,0,6.09-1.37,6.09-4.19v-1.93a3.21,3.21,0,0,0-1.67-3.11m35.28-7H172.82v3.86h5.82v12.3h4.54v-12.3H189ZM128.37,203l2.08-5.56,2.09,5.56ZM132,191.58h-3.23l-7,16.22h4.73l.67-1.82h6.45l.68,1.82H139ZM163.41,203l2.08-5.58,2.09,5.58Zm3.68-11.39h-3.23l-7,16.22h4.71l.68-1.82h6.45l.69,1.82h4.67ZM102.89,202,99,191.58H94.3l7,16.22h3.23l7-16.22h-4.67Zm11.53,5.75H119V191.58h-4.53Z"/><path class="cls-3" d="M72.53,42.52V180.77H210.94l-19.53-37.92H124.22v-15h52.43V94.47H124.22v-14h66.2l20.5-37.91H72.53Z"/><path class="cls-3" d="M72.53,218.47v22.08H89.31v-4.32h-12V231.6H87.73v-4.32H77.31V222.8H89.16v-4.32Z"/><path class="cls-3" d="M105.34,218.47l-4.67,7.17L96,218.47H90.36l7.38,10.86L90,240.56h5.52l5-7.56,5,7.56h5.68l-7.7-11.29,7.38-10.79Z"/><path class="cls-3" d="M121.56,229.61a4,4,0,0,0,2.84-1,3.17,3.17,0,0,0,1-2.39v-.05a3,3,0,0,0-1.05-2.5,4.46,4.46,0,0,0-2.89-.85h-3.76v6.75Zm-8.71-11.14h9a10.75,10.75,0,0,1,3.55.55,7.68,7.68,0,0,1,2.65,1.56,6.83,6.83,0,0,1,1.67,2.42,8,8,0,0,1,.59,3.11v.05a7.71,7.71,0,0,1-.7,3.37,7,7,0,0,1-1.91,2.43,8.49,8.49,0,0,1-2.84,1.47,12.05,12.05,0,0,1-3.49.49h-3.7v6.62h-4.86Z"/><path class="cls-3" d="M132,218.47h4.86v17.67h11v4.42H132Z"/><path class="cls-3" d="M159.09,236.47a6.74,6.74,0,0,0,2.7-.53,6.11,6.11,0,0,0,2.08-1.49,6.82,6.82,0,0,0,1.36-2.19,7.17,7.17,0,0,0,.49-2.67v-.06a7.3,7.3,0,0,0-.49-2.69,6.6,6.6,0,0,0-1.39-2.21,6.51,6.51,0,0,0-2.12-1.49,6.4,6.4,0,0,0-2.69-.55,6.71,6.71,0,0,0-2.69.53,6.12,6.12,0,0,0-2.1,1.48,7.18,7.18,0,0,0-1.36,2.2,7.26,7.26,0,0,0-.49,2.66v.06a7.44,7.44,0,0,0,.49,2.69,7,7,0,0,0,1.4,2.21,6.55,6.55,0,0,0,2.13,1.49,6.35,6.35,0,0,0,2.69.56m-.06,4.48a12.1,12.1,0,0,1-4.71-.9,11.89,11.89,0,0,1-3.71-2.43,11,11,0,0,1-2.43-3.6,11.24,11.24,0,0,1-.86-4.43v-.06a11.35,11.35,0,0,1,3.33-8.06,11.33,11.33,0,0,1,3.72-2.46,12,12,0,0,1,4.72-.91,11.88,11.88,0,0,1,4.7.91,11.56,11.56,0,0,1,3.71,2.43,10.6,10.6,0,0,1,2.43,3.59,11.27,11.27,0,0,1,.87,4.43v.06a11.35,11.35,0,0,1-3.33,8.06,11.36,11.36,0,0,1-3.72,2.47,12.17,12.17,0,0,1-4.72.9"/><path class="cls-3" d="M182.94,229.24a4,4,0,0,0,2.76-.86,2.94,2.94,0,0,0,1-2.29V226a2.86,2.86,0,0,0-1-2.38,4.42,4.42,0,0,0-2.81-.8H178v6.38Zm-9.78-10.77h10.11a8.72,8.72,0,0,1,6.43,2.24,6.81,6.81,0,0,1,1.89,5v.07a7,7,0,0,1-1.3,4.37,7.74,7.74,0,0,1-3.43,2.48l5.39,7.88h-5.68l-4.73-7.06H178v7.06h-4.87Z"/><path class="cls-3" d="M194,218.47h16.64v4.32H198.82v4.48h10.42v4.32H198.82v4.64h12v4.31H194Z"/></g></g></g></g></svg>