<svg xmlns="http://www.w3.org/2000/svg" xmlns:xlink="http://www.w3.org/1999/xlink" viewBox="0 0 283.46 283.46"><defs><style>.cls-1{fill:url(#linear-gradient);}.cls-2{fill:#9d9d9c;}.cls-3{fill:#fff;}.cls-4{fill:url(#linear-gradient-2);}.cls-5{fill:#918f90;}</style><linearGradient id="linear-gradient" x1="-28.2" y1="259.8" x2="169.94" y2="23.67" gradientUnits="userSpaceOnUse"><stop offset="0" stop-color="#526123"/><stop offset="1" stop-color="#becd0b"/></linearGradient><linearGradient id="linear-gradient-2" x1="291.68" y1="4.75" x2="133.51" y2="278.72" gradientUnits="userSpaceOnUse"><stop offset="0" stop-color="#8ed6ed"/><stop offset="0.19" stop-color="#5b9edb"/><stop offset="0.65" stop-color="#2b58aa"/><stop offset="0.94" stop-color="#253067"/><stop offset="1" stop-color="#253067"/></linearGradient></defs><title>viasathd</title><g id="Layer_2" data-name="Layer 2"><g id="Viasat"><g id="viasathd"><g id="logo"><rect class="cls-1" width="141.73" height="283.46"/><path class="cls-2" d="M36.28,164h69.17v13.47H36.28V164Z"/><path class="cls-3" d="M76.91,170.2a4.47,4.47,0,0,0-2.1-.27h-1.6c-.51,0-.72-.2-.72-.69v-.1a.35.35,0,0,1,0-.07c0-.44.24-.63.71-.63H75a.83.83,0,0,1,.52.14l0,0a.56.56,0,0,1,.15.38l2.07-.17c0-.2-.09-.4-.14-.56-.4-1.19-1.22-1.63-2.88-1.63H73.43c-2,0-3,.68-3,2.08v1a1.61,1.61,0,0,0,.84,1.55,4.37,4.37,0,0,0,2.1.27h1.6c.51,0,.72.2.72.68v.11c0,.48-.21.7-.72.7H73.19a.72.72,0,0,1-.55-.18.6.6,0,0,1-.14-.4l-2.09.09c.25,1.67,1.08,2.3,3,2.3H74.7c2.05,0,3-.69,3-2.1v-1a1.6,1.6,0,0,0-.84-1.56m17.65-3.5h-8.1v1.94h2.91v6.15h2.27v-6.15h2.92Zm-30.35,5.7,1-2.78,1,2.78Zm1.84-5.7H64.45l-3.5,8.12h2.36l.34-.91h3.22l.34.91h2.34Zm15.7,5.7,1-2.79,1,2.79Zm1.84-5.7H82l-3.5,8.12h2.36l.34-.91h3.22l.34.91h2.34Zm-32.11,5.21-2-5.21H47.17l3.49,8.12h1.62l3.5-8.12H53.43l-1.95,5.21Zm5.77,2.88h2.27V166.7H57.25Z"/><path class="cls-3" d="M36.28,180.15h2.24l5.16,6.78v-6.78h2.39v11H44l-5.34-7v7H36.28v-11Z"/><path class="cls-3" d="M55.83,186.57,54.37,183l-1.46,3.57Zm-2.56-6.51h2.24l4.72,11.1H57.71l-1-2.47H52l-1,2.47H48.56Z"/><path class="cls-3" d="M63.87,182.38H60.52v-2.24h9.12v2.24H66.3v8.78H63.87Z"/><path class="cls-3" d="M76.89,191.34a4.81,4.81,0,0,1-3.5-1.23,4.88,4.88,0,0,1-1.27-3.66v-6.29h2.43v6.23a2.86,2.86,0,0,0,.63,2,2.22,2.22,0,0,0,1.74.69,2.31,2.31,0,0,0,1.75-.65,2.79,2.79,0,0,0,.63-2v-6.3h2.43v6.21a6.39,6.39,0,0,1-.34,2.19,4.21,4.21,0,0,1-1,1.56,4,4,0,0,1-1.52.93,6.14,6.14,0,0,1-2,.3"/><path class="cls-3" d="M89.87,185.52a2,2,0,0,0,1.38-.43,1.45,1.45,0,0,0,.48-1.14v0a1.42,1.42,0,0,0-.51-1.19,2.21,2.21,0,0,0-1.4-.4H87.41v3.18ZM85,180.15h5a4.35,4.35,0,0,1,3.21,1.12,3.44,3.44,0,0,1,.95,2.51v0a3.48,3.48,0,0,1-.65,2.18,3.81,3.81,0,0,1-1.7,1.23l2.69,3.94H91.67l-2.36-3.53h-1.9v3.53H85Z"/><path class="cls-3" d="M97.08,180.15h8.3v2.15H99.46v2.24h5.2v2.15h-5.2V189h6v2.15H97.08Z"/><path class="cls-3" d="M52.35,152.32H51.16v5.37h1.19A2.59,2.59,0,0,0,55.26,155v0A2.6,2.6,0,0,0,52.35,152.32Z"/><path class="cls-3" d="M82.52,92.13h0v22.95l5.61,14.44-5.61-7v.11L57.92,92.13H36.28v69.17H59.21V129.37L84.9,161.29h20.54V92.13ZM47.09,160.28H44.16v-4H40.42v4H37.49V149.73h2.93v3.95h3.75v-3.95h2.93ZM58.26,155c0,3-2.22,5.3-6,5.3h-4V149.73h4.07c3.77,0,6,2.16,6,5.21Z"/></g><g id="logo-2" data-name="logo"><rect class="cls-4" x="141.73" width="141.73" height="283.46"/><path class="cls-5" d="M177.89,177.32H247.3V163.8H177.89Z"/><path class="cls-3" d="M218.66,170a4.53,4.53,0,0,0-2.11-.28h-1.6c-.51,0-.72-.21-.72-.69V169a.14.14,0,0,1,0-.06c0-.44.24-.63.71-.63h1.74a.83.83,0,0,1,.53.14h0l0,0a.61.61,0,0,1,.14.39l2.08-.17a3.84,3.84,0,0,0-.15-.57h0c-.4-1.18-1.22-1.63-2.89-1.63h-1.27c-2.05,0-3.06.68-3.06,2.09v1a1.61,1.61,0,0,0,.84,1.56,4.36,4.36,0,0,0,2.11.28h1.6c.5,0,.71.2.71.68v.11c0,.49-.21.71-.71.71h-1.75a.72.72,0,0,1-.56-.17.63.63,0,0,1-.14-.4l-2.09.09c.25,1.69,1.1,2.32,3,2.32h1.27c2.06,0,3.06-.69,3.06-2.11v-1a1.62,1.62,0,0,0-.84-1.57m17.71-3.51h-8.13v1.94h2.92v6.18h2.28v-6.18h2.93Zm-30.45,5.72,1-2.79,1.05,2.79Zm1.84-5.72h-1.62l-3.51,8.15H205l.34-.92h3.23l.35.92h2.35Zm15.74,5.72,1-2.8,1.05,2.8Zm1.85-5.72h-1.62l-3.51,8.15h2.36l.35-.92h3.24l.34.92h2.35Zm-32.23,5.22-2-5.22h-2.36l3.5,8.15h1.62l3.52-8.15H195.1Zm5.79,2.89h2.28v-8.11h-2.28Z"/><path class="cls-3" d="M178.24,180.07h2.44v4.39h4.49v-4.39h2.44v11.07h-2.44V186.7h-4.49v4.44h-2.44Z"/><path class="cls-3" d="M189.7,180.07h2.44v11.07H189.7Z"/><path class="cls-3" d="M198.35,191.31a7.46,7.46,0,0,1-2.48-.43,6.58,6.58,0,0,1-2.22-1.33l1.44-1.73a6.93,6.93,0,0,0,1.56,1,4.19,4.19,0,0,0,1.75.36,2.09,2.09,0,0,0,1.18-.28.87.87,0,0,0,.42-.77v0a.87.87,0,0,0-.09-.41.76.76,0,0,0-.33-.34,3.06,3.06,0,0,0-.68-.32,11.46,11.46,0,0,0-1.13-.33c-.56-.15-1.07-.31-1.52-.47a4.25,4.25,0,0,1-1.16-.62,2.56,2.56,0,0,1-.73-.93,3.17,3.17,0,0,1-.26-1.38v0a3.17,3.17,0,0,1,.28-1.37,3,3,0,0,1,.79-1.05,3.36,3.36,0,0,1,1.22-.68,4.83,4.83,0,0,1,1.56-.24,6.59,6.59,0,0,1,2.24.36,6.4,6.4,0,0,1,1.88,1l-1.27,1.83a8.09,8.09,0,0,0-1.46-.8,3.68,3.68,0,0,0-1.42-.29,1.75,1.75,0,0,0-1.07.28.85.85,0,0,0-.36.69v0a1,1,0,0,0,.11.46.86.86,0,0,0,.37.35,3.33,3.33,0,0,0,.74.3l1.18.33a11.47,11.47,0,0,1,1.5.5,4,4,0,0,1,1.11.67,2.54,2.54,0,0,1,.68.9,3.22,3.22,0,0,1,.23,1.25v0a3.44,3.44,0,0,1-.3,1.46,3.06,3.06,0,0,1-.84,1.08,3.81,3.81,0,0,1-1.27.66,5.38,5.38,0,0,1-1.64.23"/><path class="cls-3" d="M206.59,182.31h-3.38v-2.24h9.18v2.24H209v8.84h-2.44Z"/><path class="cls-3" d="M218.94,189.09a3.48,3.48,0,0,0,1.36-.26,3.15,3.15,0,0,0,1-.75A3.44,3.44,0,0,0,222,187a3.57,3.57,0,0,0,.24-1.34v0a3.63,3.63,0,0,0-.24-1.35,3.34,3.34,0,0,0-1.75-1.86,3.27,3.27,0,0,0-1.36-.28,3.2,3.2,0,0,0-1.35.27,3,3,0,0,0-1.05.74,3.42,3.42,0,0,0-.68,1.1,3.56,3.56,0,0,0-.24,1.33v0a3.64,3.64,0,0,0,.24,1.34,3.23,3.23,0,0,0,.7,1.11,3.39,3.39,0,0,0,1.07.75,3.23,3.23,0,0,0,1.34.28m0,2.25a6,6,0,0,1-4.22-1.67,5.51,5.51,0,0,1-1.21-1.81,5.65,5.65,0,0,1-.44-2.23v0a5.56,5.56,0,0,1,.44-2.23,5.66,5.66,0,0,1,3.1-3.06,6.41,6.41,0,0,1,4.72,0,5.8,5.8,0,0,1,1.86,1.22,5.4,5.4,0,0,1,1.22,1.81,5.7,5.7,0,0,1,.44,2.22v0a5.62,5.62,0,0,1-1.67,4,5.53,5.53,0,0,1-1.86,1.24,6.06,6.06,0,0,1-2.37.45"/><path class="cls-3" d="M231.61,185.47A2,2,0,0,0,233,185a1.44,1.44,0,0,0,.48-1.15v0a1.42,1.42,0,0,0-.5-1.19,2.23,2.23,0,0,0-1.41-.39h-2.42v3.19Zm-4.91-5.39h5.06A4.36,4.36,0,0,1,235,181.2a3.42,3.42,0,0,1,.95,2.53v0a3.41,3.41,0,0,1-.66,2.19,3.74,3.74,0,0,1-1.71,1.25l2.7,4h-2.85l-2.37-3.55h-1.91v3.55H226.7Z"/><path class="cls-3" d="M240.6,186.78l-4.25-6.71h2.85l2.65,4.45,2.68-4.45h2.77L243,186.73v4.42H240.6Z"/><path class="cls-3" d="M194.19,152.54H193v5.39h1.19a2.6,2.6,0,0,0,2.92-2.68v0A2.61,2.61,0,0,0,194.19,152.54Z"/><path class="cls-3" d="M223.49,102.46v27.8H201.73v-27.8L177.93,92.13v69.43h23.79V150.8h21.76v10.76h23.79V92.13Zm-34.58,58.06H186v-4h-3.76v4h-2.94V149.94h2.94v4H186v-4h2.94Zm11.21-5.32c0,3.05-2.22,5.32-6,5.32h-4V149.94h4.09c3.78,0,6,2.17,6,5.22Z"/></g></g></g></g></svg>