<svg xmlns="http://www.w3.org/2000/svg" xmlns:xlink="http://www.w3.org/1999/xlink" viewBox="0 0 283.46 283.46"><defs><style>.cls-1{fill:url(#linear-gradient);}.cls-2{fill:#918f90;}.cls-3{fill:#fff;}</style><linearGradient id="linear-gradient" x1="13.38" y1="294.69" x2="270.08" y2="-11.23" gradientUnits="userSpaceOnUse"><stop offset="0" stop-color="#1c0c0e"/><stop offset="0.53" stop-color="#de1d28"/><stop offset="0.99" stop-color="#de1d28"/><stop offset="0.99" stop-color="#de1d28"/><stop offset="1" stop-color="#de1d28"/></linearGradient></defs><g id="Layer_2" data-name="Layer 2"><g id="Viasat"><g id="viasatexplore"><rect class="cls-1" width="283.46" height="283.46"/><g id="logo"><path class="cls-2" d="M72.53,213.09H210.76V186.16H72.53Z"/><path class="cls-3" d="M153.73,198.56c-.82-.42-1.76-.55-4.2-.55h-3.19c-1,0-1.43-.4-1.43-1.37v-.2a.57.57,0,0,1,0-.14c0-.88.48-1.25,1.42-1.25h3.48a1.61,1.61,0,0,1,1,.28h0s0,0,.07,0a1.16,1.16,0,0,1,.28.76l4.15-.33a8.69,8.69,0,0,0-.3-1.12h0c-.79-2.37-2.44-3.25-5.76-3.25h-2.52c-4.09,0-6.09,1.35-6.09,4.16v1.91a3.22,3.22,0,0,0,1.67,3.11c.82.42,1.76.55,4.2.55h3.2c1,0,1.44.39,1.44,1.36v.22c0,1-.44,1.4-1.44,1.4h-3.48a1.48,1.48,0,0,1-1.11-.35,1.22,1.22,0,0,1-.28-.78l-4.16.17c.5,3.35,2.17,4.6,6.05,4.6h2.52c4.11,0,6.1-1.36,6.1-4.19v-1.92a3.22,3.22,0,0,0-1.67-3.12m35.28-7H172.82v3.86h5.81v12.3h4.55v-12.3H189ZM128.37,203l2.08-5.55,2.09,5.55ZM132,191.58h-3.23l-7,16.22h4.73l.67-1.82h6.45l.68,1.82H139ZM163.41,203l2.08-5.58,2.09,5.58Zm3.68-11.39h-3.23l-7,16.22h4.71l.68-1.82h6.45l.69,1.82h4.67ZM102.89,202,99,191.58H94.3l7,16.22h3.24l7-16.22h-4.67Zm11.54,5.76H119V191.58h-4.53Z"/><path class="cls-3" d="M72.53,42.52V180.77H210.94l-19.53-37.92H124.22v-15h52.44V94.47H124.22v-14h66.21l20.5-37.91H72.53Z"/><path class="cls-3" d="M72.53,218.47v22.09H89.31v-4.32h-12V231.6H87.73v-4.32H77.31V222.8H89.16v-4.33Z"/><path class="cls-3" d="M105.34,218.47l-4.68,7.17L96,218.47H90.36l7.37,10.86L90,240.56h5.52l5-7.57,5,7.57h5.68l-7.7-11.29,7.38-10.8Z"/><path class="cls-3" d="M121.56,229.61a4,4,0,0,0,2.84-1,3.14,3.14,0,0,0,1-2.39v0a3,3,0,0,0-1.06-2.5,4.43,4.43,0,0,0-2.88-.85h-3.76v6.75Zm-8.71-11.14h9a10.74,10.74,0,0,1,3.54.55,7.62,7.62,0,0,1,2.65,1.56,6.8,6.8,0,0,1,1.68,2.43,8,8,0,0,1,.59,3.11v0a7.61,7.61,0,0,1-.7,3.38,6.93,6.93,0,0,1-1.91,2.43,8.61,8.61,0,0,1-2.84,1.47,12.27,12.27,0,0,1-3.49.48h-3.69v6.63h-4.86Z"/><path class="cls-3" d="M132,218.47h4.86v17.67h11v4.42H132Z"/><path class="cls-3" d="M159.09,236.47a6.78,6.78,0,0,0,2.7-.54,6.06,6.06,0,0,0,2.07-1.49,6.87,6.87,0,0,0,1.37-2.19,7.19,7.19,0,0,0,.48-2.67v-.06a7.33,7.33,0,0,0-.48-2.69,6.84,6.84,0,0,0-1.39-2.21,6.51,6.51,0,0,0-2.12-1.49,6.41,6.41,0,0,0-2.69-.55,6.76,6.76,0,0,0-2.69.53,6,6,0,0,0-2.1,1.49,7,7,0,0,0-1.36,2.19,7.35,7.35,0,0,0-.49,2.66v.07a7.46,7.46,0,0,0,.49,2.68,6.91,6.91,0,0,0,1.39,2.21,6.69,6.69,0,0,0,2.13,1.5,6.51,6.51,0,0,0,2.69.56m-.06,4.47a11.81,11.81,0,0,1-8.42-3.32,10.94,10.94,0,0,1-2.43-3.61,11.25,11.25,0,0,1-.86-4.43v-.06a11.32,11.32,0,0,1,3.33-8.06,11.13,11.13,0,0,1,3.72-2.46,12,12,0,0,1,4.72-.91,11.83,11.83,0,0,1,4.7.91,11.49,11.49,0,0,1,3.7,2.43,10.47,10.47,0,0,1,2.43,3.59,11.19,11.19,0,0,1,.88,4.43v.07a11.13,11.13,0,0,1-.89,4.43,11.32,11.32,0,0,1-2.44,3.63,11.46,11.46,0,0,1-3.73,2.47,12.12,12.12,0,0,1-4.71.89"/><path class="cls-3" d="M182.94,229.24a4.06,4.06,0,0,0,2.77-.86,3,3,0,0,0,1-2.29V226a2.86,2.86,0,0,0-1-2.38,4.37,4.37,0,0,0-2.81-.8H178v6.38Zm-9.78-10.77h10.11a8.71,8.71,0,0,1,6.43,2.25,6.8,6.8,0,0,1,1.89,5v.08a7,7,0,0,1-1.3,4.37,7.8,7.8,0,0,1-3.42,2.48l5.38,7.88h-5.68l-4.73-7.06H178v7.06h-4.86Z"/><path class="cls-3" d="M194,218.47h16.64v4.33H198.82v4.47h10.42v4.33H198.82v4.64h12v4.32H194Z"/></g></g></g></g></svg>