<svg xmlns="http://www.w3.org/2000/svg" xmlns:xlink="http://www.w3.org/1999/xlink" viewBox="0 0 283.46 283.46"><defs><style>.cls-1{fill:url(#linear-gradient);}.cls-2{fill:#918f90;}.cls-3{fill:#fff;}</style><linearGradient id="linear-gradient" x1="238.54" y1="-25.94" x2="44.93" y2="309.4" gradientUnits="userSpaceOnUse"><stop offset="0" stop-color="#8ed6ed"/><stop offset="0.19" stop-color="#5b9edb"/><stop offset="0.65" stop-color="#2b58aa"/><stop offset="0.94" stop-color="#253067"/><stop offset="1" stop-color="#253067"/></linearGradient></defs><title>viasathistory</title><g id="Layer_2" data-name="Layer 2"><g id="Viasat"><g id="viasathistory"><rect class="cls-1" width="283.46" height="283.46"/><g id="logo"><path class="cls-2" d="M72.32,212.91H211.14v-27H72.32Z"/><path class="cls-3" d="M153.86,198.33c-.82-.42-1.78-.55-4.22-.55h-3.2c-1,0-1.44-.41-1.44-1.38v-.21a.28.28,0,0,1,0-.12c0-.88.48-1.25,1.43-1.25h3.49a1.66,1.66,0,0,1,1.06.27h0a.11.11,0,0,0,.06,0,1.23,1.23,0,0,1,.28.78l4.16-.33a7.67,7.67,0,0,0-.3-1.14h0c-.8-2.37-2.45-3.26-5.77-3.26h-2.54c-4.11,0-6.12,1.36-6.12,4.17v1.92a3.22,3.22,0,0,0,1.69,3.11c.82.44,1.76.56,4.21.56h3.21c1,0,1.43.4,1.43,1.36v.22c0,1-.43,1.42-1.43,1.42h-3.5a1.45,1.45,0,0,1-1.11-.35,1.26,1.26,0,0,1-.29-.8l-4.18.17c.51,3.38,2.19,4.63,6.09,4.63h2.54c4.13,0,6.12-1.38,6.12-4.21v-1.93a3.24,3.24,0,0,0-1.68-3.13m35.42-7H173v3.87h5.84v12.36h4.56V195.19h5.86Zm-60.89,11.44,2.08-5.58,2.11,5.58Zm3.69-11.44h-3.24l-7,16.3h4.74l.68-1.84h6.46l.69,1.84h4.7Zm31.49,11.44,2.09-5.6,2.11,5.6Zm3.71-11.44H164l-7,16.3h4.72l.69-1.84h6.47l.68,1.84h4.7Zm-64.46,10.45L98.9,191.31H94.18l7,16.3h3.24l7-16.3h-4.7Zm11.57,5.78h4.56V191.31h-4.56Z"/><path class="cls-3" d="M73,218.41H77.9v8.77h9v-8.77h4.88v22.15H86.89v-8.88h-9v8.88H73Z"/><path class="cls-3" d="M95.94,218.41h4.88v22.15H95.94Z"/><path class="cls-3" d="M113.24,240.88a14.92,14.92,0,0,1-5-.86,13.15,13.15,0,0,1-4.43-2.66l2.88-3.45a13.85,13.85,0,0,0,3.11,2,8.37,8.37,0,0,0,3.5.73,4.17,4.17,0,0,0,2.35-.56,1.73,1.73,0,0,0,.84-1.55v-.06a1.74,1.74,0,0,0-.17-.82,1.53,1.53,0,0,0-.66-.68,6.12,6.12,0,0,0-1.37-.64,22.93,22.93,0,0,0-2.27-.66c-1.12-.31-2.14-.62-3-.94a8.51,8.51,0,0,1-2.33-1.24,5.12,5.12,0,0,1-1.46-1.85,6.34,6.34,0,0,1-.53-2.76v-.06a6.35,6.35,0,0,1,.57-2.74,6.06,6.06,0,0,1,1.59-2.11,6.72,6.72,0,0,1,2.44-1.36,9.66,9.66,0,0,1,3.13-.48,13.18,13.18,0,0,1,4.48.73,12.8,12.8,0,0,1,3.75,2.07l-2.54,3.65a16.17,16.17,0,0,0-2.92-1.59,7.36,7.36,0,0,0-2.84-.59,3.49,3.49,0,0,0-2.14.55,1.69,1.69,0,0,0-.71,1.38v.07a2,2,0,0,0,.22.93,1.72,1.72,0,0,0,.74.71,6.66,6.66,0,0,0,1.48.6c.63.18,1.4.41,2.36.66a22.94,22.94,0,0,1,3,1,8.07,8.07,0,0,1,2.23,1.35,5.09,5.09,0,0,1,1.37,1.81,6.43,6.43,0,0,1,.46,2.51V234a6.89,6.89,0,0,1-.59,2.93,6.11,6.11,0,0,1-1.67,2.17,7.62,7.62,0,0,1-2.55,1.32,10.77,10.77,0,0,1-3.29.46"/><path class="cls-3" d="M129.73,222.9H123v-4.48h18.36v4.48H134.6v17.67h-4.87Z"/><path class="cls-3" d="M154.42,236.45a7,7,0,0,0,2.71-.52,6.29,6.29,0,0,0,2.08-1.5,6.88,6.88,0,0,0,1.36-2.19,7.15,7.15,0,0,0,.49-2.68v0a7.27,7.27,0,0,0-.49-2.7,6.69,6.69,0,0,0-3.51-3.72,6.53,6.53,0,0,0-2.71-.55,6.39,6.39,0,0,0-2.69.54,6.08,6.08,0,0,0-2.11,1.48,6.85,6.85,0,0,0-1.36,2.2,7.12,7.12,0,0,0-.49,2.67v.08a7.28,7.28,0,0,0,.49,2.68,6.46,6.46,0,0,0,1.39,2.21,6.77,6.77,0,0,0,2.14,1.5,6.47,6.47,0,0,0,2.68.55m-.06,4.49a12,12,0,0,1-8.45-3.33,11,11,0,0,1-2.42-3.61,11.3,11.3,0,0,1-.87-4.46v0a11.11,11.11,0,0,1,.88-4.45,11.33,11.33,0,0,1,6.19-6.11,12.83,12.83,0,0,1,9.44,0,11.61,11.61,0,0,1,3.72,2.43,10.81,10.81,0,0,1,2.44,3.61,11.4,11.4,0,0,1,.87,4.44v.08a11.24,11.24,0,0,1-3.35,8.07,11.07,11.07,0,0,1-3.72,2.47,12.13,12.13,0,0,1-4.73.9"/><path class="cls-3" d="M179.76,229.2a4,4,0,0,0,2.77-.86,2.89,2.89,0,0,0,1-2.29V226a2.85,2.85,0,0,0-1-2.39,4.46,4.46,0,0,0-2.82-.79h-4.84v6.38ZM170,218.42h10.13c2.82,0,5,.73,6.46,2.24a6.84,6.84,0,0,1,1.9,5.06v.07a6.82,6.82,0,0,1-1.32,4.37,7.48,7.48,0,0,1-3.42,2.49l5.4,7.91h-5.69l-4.75-7.09h-3.83v7.09H170Z"/><path class="cls-3" d="M197.74,231.83l-8.51-13.42h5.69l5.29,8.89,5.37-8.89h5.54l-8.51,13.32v8.83h-4.88Z"/><path class="cls-3" d="M163.52,63.19v55.6H120V63.19L72.41,42.52V181.39H120V159.87h43.52v21.52h47.58V42.52Z"/></g></g></g></g></svg>