<svg xmlns="http://www.w3.org/2000/svg" xmlns:xlink="http://www.w3.org/1999/xlink" viewBox="0 0 283.46 283.46"><defs><style>.cls-1{fill:url(#linear-gradient);}.cls-2{fill:#918f90;}.cls-3{fill:#fff;}</style><linearGradient id="linear-gradient" x1="238.54" y1="-25.94" x2="44.93" y2="309.4" gradientUnits="userSpaceOnUse"><stop offset="0" stop-color="#8ed6ed"/><stop offset="0.19" stop-color="#5b9edb"/><stop offset="0.65" stop-color="#2b58aa"/><stop offset="0.94" stop-color="#253067"/><stop offset="1" stop-color="#253067"/></linearGradient></defs><g id="Layer_2" data-name="Layer 2"><g id="Viasat"><g id="viasathistory"><rect class="cls-1" width="283.46" height="283.46"/><g id="logo"><path class="cls-2" d="M72.32,212.91H211.14v-27H72.32Z"/><path class="cls-3" d="M153.86,198.33c-.82-.42-1.77-.55-4.22-.55h-3.2c-1,0-1.44-.41-1.44-1.39v-.2a.27.27,0,0,1,0-.13c0-.88.48-1.25,1.42-1.25h3.49a1.7,1.7,0,0,1,1.06.27h0a.1.1,0,0,0,.06,0,1.26,1.26,0,0,1,.28.78l4.16-.34a6.88,6.88,0,0,0-.3-1.13h0c-.79-2.37-2.44-3.27-5.77-3.27h-2.53c-4.11,0-6.12,1.37-6.12,4.18v1.92a3.21,3.21,0,0,0,1.68,3.11c.83.44,1.76.56,4.22.56h3.21c1,0,1.42.4,1.42,1.37v.21c0,1-.43,1.42-1.42,1.42h-3.5a1.44,1.44,0,0,1-1.11-.35,1.23,1.23,0,0,1-.29-.79l-4.18.17c.51,3.38,2.2,4.63,6.09,4.63h2.53c4.13,0,6.12-1.38,6.12-4.21v-1.93a3.23,3.23,0,0,0-1.68-3.13m35.43-7H173v3.88h5.84v12.35h4.57V195.19h5.86Zm-60.9,11.44,2.08-5.58,2.11,5.58Zm3.69-11.44h-3.23l-7,16.3h4.74l.68-1.83h6.46l.69,1.83h4.7Zm31.49,11.44,2.09-5.6,2.11,5.6Zm3.71-11.44H164l-7,16.3h4.72l.69-1.83h6.47l.69,1.83h4.7Zm-64.46,10.45L98.9,191.31H94.18l7,16.3h3.24l7-16.3h-4.7Zm11.57,5.78H119V191.31h-4.56Z"/><path class="cls-3" d="M73,218.41H77.9v8.77h9v-8.77h4.88v22.15H86.89v-8.88h-9v8.88H73Z"/><path class="cls-3" d="M95.94,218.41h4.87v22.15H95.94Z"/><path class="cls-3" d="M113.24,240.88a14.82,14.82,0,0,1-5-.85,13.21,13.21,0,0,1-4.44-2.66l2.88-3.46a13.59,13.59,0,0,0,3.12,2,8.4,8.4,0,0,0,3.5.73,4.23,4.23,0,0,0,2.35-.56,1.75,1.75,0,0,0,.83-1.55v-.06a1.63,1.63,0,0,0-.17-.82,1.54,1.54,0,0,0-.66-.69,6.64,6.64,0,0,0-1.37-.63c-.58-.22-1.34-.43-2.26-.67-1.13-.3-2.15-.62-3-.93a8.64,8.64,0,0,1-2.32-1.25,5.12,5.12,0,0,1-1.47-1.85,6.29,6.29,0,0,1-.53-2.76v-.06a6.36,6.36,0,0,1,.57-2.74,6.1,6.1,0,0,1,1.59-2.11,6.64,6.64,0,0,1,2.43-1.36,9.51,9.51,0,0,1,3.13-.48,13.12,13.12,0,0,1,4.48.72,12.84,12.84,0,0,1,3.76,2.08l-2.54,3.65a15.62,15.62,0,0,0-2.92-1.59,7.38,7.38,0,0,0-2.84-.59,3.53,3.53,0,0,0-2.14.55,1.71,1.71,0,0,0-.72,1.39v.07a1.93,1.93,0,0,0,.23.92,1.72,1.72,0,0,0,.73.71,6.52,6.52,0,0,0,1.48.6c.63.19,1.41.41,2.37.67a24.94,24.94,0,0,1,3,1,8.48,8.48,0,0,1,2.23,1.35,5.06,5.06,0,0,1,1.36,1.81,6.35,6.35,0,0,1,.46,2.51V234a7,7,0,0,1-.59,2.93,6.1,6.1,0,0,1-1.68,2.17,7.6,7.6,0,0,1-2.55,1.32,10.88,10.88,0,0,1-3.28.46"/><path class="cls-3" d="M129.73,222.9H123v-4.48h18.36v4.48H134.6v17.67h-4.87Z"/><path class="cls-3" d="M154.42,236.45a7,7,0,0,0,2.71-.52,6.4,6.4,0,0,0,2.08-1.51,6.91,6.91,0,0,0,1.36-2.19,7.22,7.22,0,0,0,.49-2.69v0a7.31,7.31,0,0,0-.49-2.7,6.64,6.64,0,0,0-1.39-2.21,6.72,6.72,0,0,0-2.12-1.51,7,7,0,0,0-5.4,0,6.14,6.14,0,0,0-2.11,1.48,6.87,6.87,0,0,0-1.35,2.2,7.19,7.19,0,0,0-.49,2.67v.08a7.29,7.29,0,0,0,.49,2.68,6.47,6.47,0,0,0,1.39,2.22,6.77,6.77,0,0,0,2.14,1.5,6.41,6.41,0,0,0,2.69.55m-.07,4.49a11.88,11.88,0,0,1-4.71-.9,11.74,11.74,0,0,1-3.73-2.43,10.92,10.92,0,0,1-2.42-3.61,11.23,11.23,0,0,1-.88-4.46v0a11.18,11.18,0,0,1,.88-4.45,11.61,11.61,0,0,1,2.45-3.64,11.35,11.35,0,0,1,3.74-2.47,12.06,12.06,0,0,1,4.74-.9,11.91,11.91,0,0,1,4.71.9,11.43,11.43,0,0,1,3.71,2.43,10.67,10.67,0,0,1,2.44,3.61,11.35,11.35,0,0,1,.88,4.44v.08a11.22,11.22,0,0,1-3.35,8.07,10.9,10.9,0,0,1-3.73,2.47,12,12,0,0,1-4.73.9"/><path class="cls-3" d="M179.76,229.2a4.06,4.06,0,0,0,2.78-.85,2.92,2.92,0,0,0,1-2.3V226a2.81,2.81,0,0,0-1-2.38,4.42,4.42,0,0,0-2.82-.79h-4.84v6.38ZM170,218.42h10.13c2.81,0,5,.74,6.46,2.24a6.83,6.83,0,0,1,1.9,5.06v.07a6.81,6.81,0,0,1-1.32,4.37,7.58,7.58,0,0,1-3.42,2.5l5.4,7.91h-5.69l-4.75-7.09h-3.83v7.09H170Z"/><path class="cls-3" d="M197.74,231.83l-8.51-13.42h5.7l5.29,8.89,5.36-8.89h5.55l-8.51,13.32v8.83h-4.88Z"/><path class="cls-3" d="M163.52,63.19v55.6H120V63.19L72.41,42.52V181.39H120V159.87h43.52v21.52h47.57V42.52Z"/></g></g></g></g></svg>