<svg xmlns="http://www.w3.org/2000/svg" xmlns:xlink="http://www.w3.org/1999/xlink" viewBox="0 0 283.46 283.46"><defs><style>.cls-1{fill:url(#linear-gradient);}.cls-2{fill:#fff;}.cls-3{fill:#9d9d9c;}</style><linearGradient id="linear-gradient" x1="13.38" y1="294.69" x2="270.08" y2="-11.23" gradientUnits="userSpaceOnUse"><stop offset="0" stop-color="#526123"/><stop offset="1" stop-color="#becd0b"/></linearGradient></defs><title>viasatnature</title><g id="Layer_2" data-name="Layer 2"><g id="Viasat"><g id="viasatnature"><rect class="cls-1" width="283.46" height="283.46"/><g id="logo"><path class="cls-2" d="M165,42.52V88.41l11.22,28.89L165,103.37v.22L115.83,42.52H72.57V180.86h45.85V117l51.38,63.84h41.09V42.52H165Z"/><path class="cls-3" d="M72.57,186.26H210.9V213.2H72.57V186.26Z"/><path class="cls-2" d="M153.82,198.66c-.81-.42-1.75-.55-4.2-.55h-3.19c-1,0-1.44-.41-1.44-1.38v-.2a.7.7,0,0,1,0-.14c0-.87.48-1.25,1.43-1.25h3.48a1.66,1.66,0,0,1,1,.28l.05.05a1.12,1.12,0,0,1,.3.77l4.15-.33c-.09-.41-.18-.79-.29-1.12-.8-2.37-2.45-3.26-5.76-3.26h-2.54c-4.09,0-6.09,1.36-6.09,4.17v1.92a3.21,3.21,0,0,0,1.68,3.1c.82.44,1.76.55,4.19.55h3.2c1,0,1.44.4,1.44,1.37v.23c0,1-.43,1.4-1.44,1.4h-3.48a1.43,1.43,0,0,1-1.11-.36,1.21,1.21,0,0,1-.28-.79l-4.17.18c.5,3.35,2.17,4.61,6.06,4.61h2.54c4.1,0,6.09-1.38,6.09-4.21v-1.92a3.2,3.2,0,0,0-1.67-3.11m35.3-7H172.92v3.88h5.82v12.3h4.55v-12.3h5.84Zm-60.69,11.41,2.09-5.57,2.09,5.57Zm3.69-11.41H128.9l-7,16.24h4.72l.69-1.83h6.45l.68,1.83h4.67Zm31.39,11.41,2.07-5.59,2.09,5.59Zm3.68-11.41H164l-7,16.24h4.71l.68-1.83h6.45l.69,1.83h4.68ZM103,202.08l-3.91-10.41H94.34l7,16.24h3.24l7-16.24h-4.69L103,202.08Zm11.53,5.76H119V191.67H114.5Z"/><path class="cls-2" d="M72.56,218.57H77l10.32,13.57V218.57h4.78v22H88l-10.68-14v14H72.56v-22Z"/><path class="cls-2" d="M111.67,231.41l-2.94-7.15-2.93,7.15Zm-5.12-13H111l9.45,22.2h-5.07l-2-4.95h-9.32l-2,4.95H97.12Z"/><path class="cls-2" d="M127.75,223H121v-4.47h18.25V223h-6.7V240.6h-4.85Z"/><path class="cls-2" d="M153.79,240.94a9.63,9.63,0,0,1-7-2.47c-1.69-1.65-2.54-4.08-2.54-7.32V218.58h4.85V231a5.73,5.73,0,0,0,1.26,4.06,4.44,4.44,0,0,0,3.49,1.38,4.62,4.62,0,0,0,3.5-1.31,5.57,5.57,0,0,0,1.26-4V218.58h4.86V231a12.78,12.78,0,0,1-.68,4.37,8.42,8.42,0,0,1-1.94,3.11,8.09,8.09,0,0,1-3,1.86,12.28,12.28,0,0,1-4,.61"/><path class="cls-2" d="M179.73,229.3a4,4,0,0,0,2.75-.85,2.91,2.91,0,0,0,1-2.28v-.06a2.84,2.84,0,0,0-1-2.37,4.42,4.42,0,0,0-2.8-.79h-4.81v6.36ZM170,218.56H180a8.7,8.7,0,0,1,6.42,2.25,6.87,6.87,0,0,1,1.89,5v.07a7,7,0,0,1-1.31,4.37,7.63,7.63,0,0,1-3.41,2.46l5.38,7.88h-5.67l-4.71-7.06h-3.81v7.06H170Z"/><path class="cls-2" d="M194.15,218.57h16.59v4.3H198.93v4.49h10.4v4.3h-10.4v4.63h12v4.3H194.15Z"/></g></g></g></g></svg>