<?xml version="1.0" standalone="yes"?>
<svg xmlns="http://www.w3.org/2000/svg" width="1024" height="1024">
<path style="fill:#7f7f7f; stroke:none;" d="M0 0L0 1024L1024 1024L1024 0L0 0z"/>
<path style="fill:#d29251; stroke:none;" d="M315 420L315 421L322 421L315 420z"/>
<path style="fill:#f59d21; stroke:none;" d="M282 432L282 433C291.024 431.835 299.864 429.793 309 431.666C339.788 437.977 363.378 471.333 378 497C384.718 492.268 390.023 485.704 395.999 480.089C397.997 478.213 401.591 476.028 401.694 472.961C401.86 468.017 394.684 461.499 391.725 458C380.484 444.706 367.405 432.099 351 425.453C326.925 415.7 304.722 422.54 282 432z"/>
<path style="fill:#d29251; stroke:none;" d="M328 420L328 421L335 421L328 420M480 420L480 421L487 421L480 420z"/>
<path style="fill:#f59d21; stroke:none;" d="M281 590L281 591C289.743 595.975 300.098 599.879 310 601.739C382.033 615.273 417.301 526.016 449.67 478C463.662 457.243 483.19 432.843 510 430.171C518.317 429.342 526.033 432.174 534 434C505.537 407.263 459.224 422.104 435.004 446.015C401.649 478.944 383.95 524.09 354.385 560C335.221 583.277 311.482 598.569 281 590z"/>
<path style="fill:#d29251; stroke:none;" d="M495 420L495 421L503 421L495 420z"/>
<path style="fill:#a35b11; stroke:none;" d="M448 588L448 589C485.956 615.971 527.544 602.295 557 570C584.014 540.382 600.826 503.004 624.63 471C637.111 454.218 652.809 436.516 674 431.503C683.623 429.227 691.518 431.723 701 433C696.183 428.173 688.378 426.108 682 424.001C650.704 413.662 624.053 426.685 602.004 449C574.275 477.063 557.986 515.099 535.291 547C525.166 561.232 512.671 579.045 496 586.135C491.595 588.008 487.53 585.786 483 586.315C469.612 587.879 461.55 591.106 448 588z"/>
<path style="fill:#d29251; stroke:none;" d="M309 421L309 422L313 422L309 421M337 421L337 422L340 422L337 421M475 421L475 422L478 422L475 421M505 421L505 422L509 422L505 421M305 422L305 423L308 423L305 422M342.667 422.333L343.333 422.667L342.667 422.333M472.667 422.333L473.333 422.667L472.667 422.333M510.667 422.333L511.333 422.667L510.667 422.333M302.667 423.333L303.333 423.667L302.667 423.333M345.667 423.333L346.333 423.667L345.667 423.333M469.667 423.333L470.333 423.667L469.667 423.333M514.667 423.333L515.333 423.667L514.667 423.333M298 424L298 425L301 425L298 424M348.667 424.333L349.333 424.667L348.667 424.333M466.667 424.333L467.333 424.667L466.667 424.333M517.667 424.333L518.333 424.667L517.667 424.333M296.667 425.333L297.333 425.667L296.667 425.333M351 425L352 426L351 425M463.667 425.333L464.333 425.667L463.667 425.333M519.667 425.333L520.333 425.667L519.667 425.333M293.667 426.333L294.333 426.667L293.667 426.333M353 426L354 427L353 426M461.667 426.333L462.333 426.667L461.667 426.333M522 426L523 427L522 426M291 427L292 428L291 427M355 427L356 428L355 427M459.667 427.333L460.333 427.667L459.667 427.333M524 427L525 428L524 427M288.667 428.333L289.333 428.667L288.667 428.333M357 428L358 429L357 428M457.667 428.333L458.333 428.667L457.667 428.333M526 428L527 429L526 428M286.667 429.333L287.333 429.667L286.667 429.333M359 429L360 430L359 429M456 429L457 430L456 429M527.667 429.333L528.333 429.667L527.667 429.333M284.667 430.333L285.333 430.667L284.667 430.333M361 430L362 431L361 430M454 430L455 431L454 430M507.667 430.333L508.333 430.667L507.667 430.333z"/>
<path style="fill:#a35b11; stroke:none;" d="M509 430L509 431L517 431L509 430z"/>
<path style="fill:#d29251; stroke:none;" d="M517 430L517 431L520 431L517 430M529 430L530 431L529 430M282.667 431.333L283.333 431.667L282.667 431.333M290 431L290 432L293 432L290 431M306 431L306 432L309 432L306 431M362 431L363 432L362 431M453 431L454 432L453 431M502 431L503 432L502 431z"/>
<path style="fill:#a35b11; stroke:none;" d="M503.667 431.333L504.333 431.667L503.667 431.333z"/>
<path style="fill:#814606; stroke:none;" d="M492 436L492 437C505.489 444.873 527.676 446.53 543 442C534.035 426.489 505.39 429.738 492 436z"/>
<path style="fill:#a35b11; stroke:none;" d="M522.667 431.333L523.333 431.667L522.667 431.333z"/>
<path style="fill:#d29251; stroke:none;" d="M524 431L525 432L524 431M531 431L532 432L531 431M277 434L277 435L280 433L284 434L277 434M285 432L285 433L288 433L285 432M311.667 432.333L312.333 432.667L311.667 432.333M364 432L365 433L364 432M451 432L452 433L451 432M499 432L500 433L499 432z"/>
<path style="fill:#a35b11; stroke:none;" d="M500 432L501 433L500 432M526.667 432.333L527.333 432.667L526.667 432.333z"/>
<path style="fill:#d29251; stroke:none;" d="M528 432L529 433L528 432M532 432L533 433L532 432z"/>
<path style="fill:#f59d21; stroke:none;" d="M280 433L281 434L280 433z"/>
<path style="fill:#d29251; stroke:none;" d="M314 433L314 434L317 434L314 433M365 433L366 434L365 433M450 433L451 434L450 433M496 433L497 434L496 433z"/>
<path style="fill:#a35b11; stroke:none;" d="M497 433L498 434L497 433M529.667 433.333L530.333 433.667L529.667 433.333z"/>
<path style="fill:#d29251; stroke:none;" d="M531 433L532 434L531 433M534 433L537 436L534 433z"/>
<path style="fill:#a35b11; stroke:none;" d="M701.667 433.333L702.333 433.667L701.667 433.333z"/>
<path style="fill:#d29251; stroke:none;" d="M318 434L319 435L318 434M367 434L368 435L367 434M448 434L449 435L448 434M493 434L494 435L493 434z"/>
<path style="fill:#a35b11; stroke:none;" d="M494.667 434.333L495.333 434.667L494.667 434.333M532.667 434.333L533.333 434.667L532.667 434.333z"/>
<path style="fill:#d29251; stroke:none;" d="M275.667 435.333L276.333 435.667L275.667 435.333M320 435L321 436L320 435M368 435L369 436L368 435M447 435L448 436L447 435z"/>
<path style="fill:#a35b11; stroke:none;" d="M492 435L493 436L492 435M535 435L536 436L535 435z"/>
<path style="fill:#d29251; stroke:none;" d="M322 436L323 437L322 436M369 436L370 437L369 436M488 438L491 437L488 438z"/>
<path style="fill:#a35b11; stroke:none;" d="M491 436L492 437L491 436M537 436L538 437L537 436z"/>
<path style="fill:#d29251; stroke:none;" d="M324 437L325 438L324 437M371 437L372 438L371 437M444 437L445 438L444 437z"/>
<path style="fill:#7f7f7f; stroke:none;" d="M489 437.695C483.137 439.167 477.292 445.08 473.001 449.089C459.918 461.314 450.067 477.107 440.344 492C437.02 497.092 429.306 505.661 429.615 512C429.841 516.635 433.877 521.308 436.333 525C442.117 533.692 447.695 542.589 453.884 551C461.929 561.933 470.324 572.497 481 580.996C484.553 583.825 489.048 588.186 494 587.257C500.277 586.079 506.299 580.372 511 576.41C525.275 564.377 536.12 547.651 546.047 532C549.314 526.85 557.183 518.292 557.163 512C557.151 508.175 553.516 504.1 551.576 501C545.763 491.715 539.481 482.73 532.87 474C524.191 462.537 514.922 451.573 503 443.348C499.092 440.652 494.093 436.417 489 437.695z"/>
<path style="fill:#a35b11; stroke:none;" d="M539 437L540 438L539 437z"/>
<path style="fill:#d29251; stroke:none;" d="M326 438L327 439L326 438M372 438L373 439L372 438M443 438L444 439L443 438M486 438L487 439L486 438M328 439L329 440L328 439M373 439L374 440L373 439M442 439L443 440L442 439z"/>
<path style="fill:#a35b11; stroke:none;" d="M542 439L543 442C531.858 444.653 514.209 445.05 503 443L503 444C522.815 458.934 542.327 482.439 553 505L554 505C554.065 497.614 567.895 476.903 575 475C566.714 461.695 554.839 448.035 542 439z"/>
<path style="fill:#d29251; stroke:none;" d="M329 440L330 441L329 440M374 440L375 441L374 440M441 440L442 441L441 440M483 440L484 441L483 440z"/>
<path style="fill:#a35b11; stroke:none;" d="M498 440L499 441L498 440z"/>
<path style="fill:#d29251; stroke:none;" d="M331 441L332 442L331 441M375 441L376 442L375 441M482 441L483 442L482 441z"/>
<path style="fill:#a35b11; stroke:none;" d="M500 441L501 442L500 441z"/>
<path style="fill:#d29251; stroke:none;" d="M332 442L333 443L332 442M438 442L439 443L438 442M480 442L481 443L480 442z"/>
<path style="fill:#a35b11; stroke:none;" d="M501.667 442.333L502.333 442.667L501.667 442.333z"/>
<path style="fill:#d29251; stroke:none;" d="M378 443L379 444L378 443M437 443L438 444L437 443M479 443L480 444L479 443M335 444L336 445L335 444M379 444L380 445L379 444M436 444L437 445L436 444M478 444L479 445L478 444M336 445L337 446L336 445M380 445L381 446L380 445M435 445L436 446L435 445M477 445L478 446L477 445M337 446L338 447L337 446M381 446L382 447L381 446M434 446L435 447L434 446M338 447L339 448L338 447M382 447L383 448L382 447M433 447L434 448L433 447M383 448L384 449L383 448M432 448L433 449L432 448M341 449L342 450L341 449M384 449L385 450L384 449M431 449L432 450L431 449M472 449L473 450L472 449M342 450L343 451L342 450M430 450L431 451L430 450M471 450L472 451L471 450M343 451L344 452L343 451M470 451L471 452L470 451M344 452L345 453L344 452M469 452L470 453L469 452M345 453L346 454L345 453M387 453L388 454L387 453M428 453L429 454L428 453M346 454L347 455L346 454M388 454L389 455L388 454M427 454L428 455L427 454M347 455L348 456L347 455M389 455L390 456L389 455M426 455L427 456L426 455M390 456L391 457L390 456M425 456L426 457L425 456M391 457L392 458L391 457M424 457L425 458L424 457M465 457L466 458L465 457M423 458L424 459L423 458M464 458L465 459L464 458M350 459L351 460L350 459M463 459L464 460L463 459M351 460L352 461L351 460M393 460L394 461L393 460M422 460L423 461L422 460M462 460L463 461L462 460M352 461L353 462L352 461M394 461L395 462L394 461M421 461L422 462L421 461M353 462L354 463L353 462M395 462L396 463L395 462M420 462L421 463L420 462M354 463L355 464L354 463M419 463L420 464L419 463M460 463L461 464L460 463M459 464L460 465L459 464M397 465L398 466L397 465M418 465L419 466L418 465M458 465L459 466L458 465M356 466L357 467L356 466M398 466L399 467L398 466M417 466L418 467L417 466M357 467L358 468L357 467M416 467L417 468L416 467M457 467L458 468L457 467M358 468L359 469L358 468M456 468L457 469L456 468M400 469L401 470L400 469M415 469L416 470L415 469M455 469L456 470L455 469M359 470L360 471L359 470M401 470L402 471L401 470M414 470L415 471L414 470M360 471L361 472L360 471M361 472L362 473L361 472M402 472L403 473L402 472M413 472L414 473L413 472M453 472L454 473L453 472M403 473C395.315 480.079 371.593 494.702 384 505L401 488L400 491L401 491L409 479L403 473M412 473L413 474L412 473M452 473L453 474L452 473M362 474L363 475L362 474M411 474L412 475L411 474z"/>
<path style="fill:#814606; stroke:none;" d="M572 474C565.38 485.878 549.864 497.016 557 511L559 511C564.152 503.214 584.605 480.223 572 474z"/>
<path style="fill:#d29251; stroke:none;" d="M363 475L364 476L363 475M451 475L452 476L451 475M410 476L411 477L410 476M450 476L451 477L450 476M409 477L410 478L409 477M365 478L366 479L365 478M449 478L450 479L449 478M366 479L367 480L366 479M448 479L449 480L448 479M367 481L368 482L367 481M447 481L448 482L447 481M368 482L369 483L368 482M446 482L447 483L446 482M369 484L370 485L369 484M445 484L446 485L445 484M370 485L371 486L370 485M444 485L445 486L444 485z"/>
<path style="fill:#a35b11; stroke:none;" d="M402 486L401 488L402 486z"/>
<path style="fill:#d29251; stroke:none;" d="M371 487L372 488L371 487M443 487L444 488L443 487M372 488L373 489L372 488z"/>
<path style="fill:#a35b11; stroke:none;" d="M400 488C394.316 493.684 379.016 503.065 388 511C391.508 505.27 400.985 494.756 400 488z"/>
<path style="fill:#d29251; stroke:none;" d="M442 488L443 489L442 488M373 490L374 491L373 490M441 490L442 491L441 490M374 491L375 492L374 491M440 491L441 492L440 491M375.333 492.667L375.667 493.333L375.333 492.667M399 492L400 493L399 492M398 493L399 494L398 493M439 493L440 494L439 493M376 494L377 495L376 494M377.333 495.667L377.667 496.333L377.333 495.667M397 495L398 496L397 495M437 496L438 497L437 496M396 497L397 498L396 497M395 498L396 499L395 498M436 498L437 499L436 498M435 499L436 500L435 499M394 500L395 501L394 500M393 501L394 502L393 501M434 501L435 502L434 501M392 503L393 504L392 503M432 504L433 505L432 504M391 505L392 506L391 505M390 506L391 507L390 506M431 506L432 507L431 506M430 507L431 508L430 507M389 508L390 509L389 508M429 509L430 510L429 509M387 511L388 512L387 511M428 511L427 513L428 511z"/>
<path style="fill:#a35b11; stroke:none;" d="M428 512L412 539C419.415 533.777 437.259 521.28 428 512z"/>
<path style="fill:#d29251; stroke:none;" d="M386 513L387 514L386 513M385 514L386 515L385 514M426 514L427 515L426 514M384 516L385 517L384 516M425 516L426 517L425 516M383.333 517.667L383.667 518.333L383.333 517.667M424 517L425 518L424 517M382 519L383 520L382 519M423 519L424 520L423 519M432 519C427.219 524.995 418.331 535.804 411 538C409.151 541.859 408.599 552.423 416.004 548.338C423.168 544.385 432.036 534.491 437 528L438 528L440 530L432 519M381 521L382 522L381 521M422 521L423 522L422 521M380 522L381 523L380 522M421 522L422 523L421 522M379 524L380 525L379 524M420 524L421 525L420 524M378 525L379 526L378 525M419 525L420 526L419 525M377 527L378 528L377 527M418 527L419 528L418 527M376.333 528.667L376.667 529.333L376.333 528.667z"/>
<path style="fill:#f59d21; stroke:none;" d="M437 528L413 550L435 576.999L447 586.136L478 580L453.884 551L437 528z"/>
<path style="fill:#d29251; stroke:none;" d="M417 529L418 530L417 529M375 530L376 531L375 530M416 530L417 531L416 530M440 531L441 532L440 531M374 532L375 533L374 532M415 532L416 533L415 532M441 532L442 533L441 532M373 533L374 534L373 533M414 534L415 535L414 534M442 534L443 535L442 534M372 535L373 536L372 535M413 535L414 536L413 535M443 535L444 536L443 535M371 536L372 537L371 536M412 537L413 538L412 537M444 537L445 538L444 537M370 538L371 539L370 538M445 538L446 539L445 538M369 539L370 540L369 539z"/>
<path style="fill:#a35b11; stroke:none;" d="M619 552L620 552C621.212 560.999 623.871 570.284 626.428 578.999C627.366 582.195 628.801 586.75 633.003 586.338C641.726 585.482 644.548 559.035 646 552L647 552L647 567C647 571.902 645.972 578.151 647.318 582.89C648.176 585.915 651.862 587.496 653.972 584.551C655.861 581.915 655 577.051 655 574C655 564.831 655.924 555.114 654.891 546.004C654.201 539.913 647.126 536.557 642.43 541.318C639.012 544.783 638.297 551.479 637 556C635.659 560.672 634.481 565.368 633 570C631.13 565.116 629.975 560.034 628.576 555C627.396 550.757 626.772 544.565 623.57 541.318C619.457 537.146 612.078 539.224 611.148 545.015C609.67 554.223 611 564.673 611 574C611 577.052 610.139 581.915 612.028 584.551C614.137 587.496 617.824 585.915 618.682 582.89C620.028 578.151 619 571.902 619 567L619 552M683.108 540.032C675.012 544.438 670.867 565.725 667.601 574C666.325 577.232 663.273 583.685 668.133 585.593C673.354 587.641 674.607 578.95 677.418 576.603C680.571 573.972 688.111 574.511 691.956 575.148C697.544 576.074 698.66 588.689 704.867 585.712C709.659 583.414 706.576 577.455 705.2 574C701.283 564.165 698.073 553.386 693.095 544.044C691.158 540.409 687.196 537.807 683.108 540.032M732 569L733 569C735.175 574.042 738.398 580.832 742.529 584.551C745.351 587.092 749.641 586.238 749.638 581.956C749.633 574.287 739.159 568.778 739.546 561.424C739.856 555.521 747.328 550.933 748.562 545.005C749.407 540.944 746.25 537.681 742.517 540.608C738.078 544.09 735.596 550.656 732 555C729.999 550.361 726.99 543.636 722.791 540.608C720.14 538.696 716.359 539.249 716.362 543.059C716.366 550.071 726.432 555.691 725.404 562.424C724.308 569.613 714.968 574.359 714.622 581.956C714.42 586.397 718.849 586.924 721.675 584.551C726.06 580.87 729.582 574.111 732 569z"/>
<path style="fill:#d29251; stroke:none;" d="M446 540L447 541L446 540M368 541L369 542L368 541M447 541L448 542L447 541M367 542L368 543L367 542M366.333 543.667L366.667 544.333L366.333 543.667M448 543L449 544L448 543M407 544L408 545L407 544M449 544L450 545L449 544M365 545L366 546L365 545M406 545L407 546L406 545M364 546L365 547L364 546M450 546L451 547L450 546M405 547L406 548L405 547M451 547L452 548L451 547M363 548L364 549L363 548M404 548L405 549L404 548M362 549L363 550L362 549M452 549L453 550L452 549M361 550L362 551L361 550M453 550L454 551L453 550z"/>
<path style="fill:#7f7f7f; stroke:none;" d="M685 550L680 568L693 568C691.711 562.432 689.865 553.33 685 550z"/>
<path style="fill:#d29251; stroke:none;" d="M402 551L403 552L402 551M413 551L414 552L413 551M454 551L455 552L454 551M360 552L361 553L360 552M401 552L402 553L401 552M414 552L415 553L414 552M359 553L360 554L359 553M455 553L456 554L455 553M358 554L359 555L358 554M400 554L401 555L400 554M415 554L416 555L415 554M456 554L457 555L456 554M399 555L400 556L399 555M416 555L417 556L416 555M457 555L458 556L457 555M357 556L358 557L357 556M398 556L399 557L398 556M356 557L357 558L356 557M458 557L459 558L458 557M355 558L356 559L355 558M397 558L398 559L397 558M418 558L419 559L418 558M459 558L460 559L459 558M354 559L355 560L354 559M396 559L397 560L396 559M419 559L420 560L419 559M460 559L461 560L460 559M395 560L396 561L395 560M420 560L421 561L420 560M353 561L354 562L353 561M461 561L462 562L461 561M352 562L353 563L352 562M421 562L422 563L421 562M462 562L463 563L462 562M351 563L352 564L351 563M393 563L394 564L393 563M422 563L423 564L422 563M463 563L464 564L463 563M350 564L351 565L350 564M392 564L393 565L392 564M423 564L424 565L423 564M464 564L465 565L464 564M349 565L350 566L349 565M391 565L392 566L391 565M424 565L425 566L424 565M465 565L466 566L465 565M348 566L349 567L348 566M390 566L391 567L390 566M347 567L348 568L347 567M346 568L347 569L346 568M426 568L427 569L426 568M467 568L468 569L467 568M388 569L389 570L388 569M427 569L428 570L427 569M468 569L469 570L468 569M387 570L388 571L387 570M428 570L429 571L428 570M469 570L470 571L469 570M386 571L387 572L386 571M429 571L430 572L429 571M470 571L471 572L470 571M342 572L343 573L342 572M385 572L386 573L385 572M430 572L431 573L430 572M471 572L472 573L471 572M341 573L342 574L341 573M384 573L385 574L384 573M431 573L432 574L431 573M472 573L473 574L472 573M340 574L341 575L340 574M383 574L384 575L383 574M432 574L433 575L432 574M473 574L474 575L473 574M339 575L340 576L339 575M382 575L383 576L382 575M433 575L434 576L433 575M474 575L475 576L474 575M338 576L339 577L338 576M381 576L382 577L381 576M434 576L435 577L434 576M475 576L476 577L475 576M337 577L338 578L337 577M380 577L381 578L380 577M435 577L436 578L435 577M476 577L477 578L476 577M336 578L337 579L336 578M379 578L380 579L379 578M436 578L437 579L436 578M477 578L478 579L477 578M334 579L335 580L334 579M378 579L379 580L378 579M437 579L438 580L437 579M447 587C459.987 595.162 473.414 587.11 487 586C478.449 575.44 458.3 582.761 447 587M333 580L334 581L333 580M377 580L378 581L377 580M438 580L439 581L438 580M332 581L333 582L332 581M376 581L377 582L376 581M439 581L440 582L439 581M330 582L331 583L330 582M375 582L376 583L375 582M440 582L441 583L440 582M329 583L330 584L329 583M374 583L375 584L374 583M441 583L442 584L441 583M327 584L328 585L327 584M443 584L444 585L443 584M325.667 585.333L326.333 585.667L325.667 585.333M371 585L372 586L371 585M444 585L445 586L444 585M323.667 586.333L324.333 586.667L323.667 586.333M370 586L371 587L370 586M445 586L446 587L445 586M488 586L489 587L488 586M322 587L323 588L322 587M369 587L370 588L369 587M276 588L276 589L281 591L276 588M319.667 588.333L320.333 588.667L319.667 588.333M316.667 589.333L317.333 589.667L316.667 589.333M366 589L367 590L366 589M282 590L282 591L285 591L282 590M313 590L313 591L316 591L313 590M365 590L366 591L365 590M281 591L282 592L281 591M286 591L286 592L289 592L286 591M310.667 591.333L311.333 591.667L310.667 591.333M363 591L364 592L363 591M283 592L284 593L283 592M291 592L291 593L296 593L291 592M303 592L303 593L308 593L303 592M362 592L363 593L362 592M285 593L286 594L285 593M360 593L361 594L360 593M287.667 594.333L288.333 594.667L287.667 594.333M358 594L359 595L358 594M289.667 595.333L290.333 595.667L289.667 595.333M356 595L357 596L356 595M292 596L293 597L292 596M354 596L355 597L354 596M294.667 597.333L295.333 597.667L294.667 597.333M352.667 597.333L353.333 597.667L352.667 597.333M296 598L296 599L299 599L296 598M350 598L351 599L350 598M300.667 599.333L301.333 599.667L300.667 599.333M347.667 599.333L348.333 599.667L347.667 599.333M303.667 600.333L304.333 600.667L303.667 600.333M344.667 600.333L345.333 600.667L344.667 600.333M306 601L306 602L309 602L306 601M340 601L340 602L343 602L340 601M311 602L311 603L315 603L311 602M335 602L335 603L339 603L335 602M318 603L318 604L332 604L318 603z"/>
</svg>
