<?xml version="1.0" standalone="yes"?>
<svg xmlns="http://www.w3.org/2000/svg" width="1024" height="1024">
<path style="fill:#7f7e7f; stroke:none;" d="M0 0L0 1024L1024 1024L1024 0L0 0z"/>
<path style="fill:#7a7a7b; stroke:none;" d="M315 415L315 416L348 418C338.239 412.038 325.685 414.779 315 415M490 415L490 416C502.005 415.967 513.145 414.909 525 418.158C553.082 425.854 579.895 452.245 594 477L596 477L602 468C593.972 471.878 590.514 464.52 585.711 459C578.919 451.195 566.75 435.373 556 434C543.933 414.11 509.722 414.153 490 415M674 414L674 415L688 415L674 414z"/>
<path style="fill:#635170; stroke:none;" d="M279 429L279 430C289.415 427.851 299.312 425.524 310 427.465C345.325 433.879 366.918 471.673 385 499L386 499C387.329 494.219 390.737 490.602 394.09 487C396.297 484.628 398.655 482.402 400.83 480C403.57 476.974 414.43 467.653 413.512 479C413.285 481.817 410.787 484.713 409.309 487C405.292 493.213 399.326 508.033 392 510C392.035 520.84 378.68 535.372 372.576 544C356.927 566.117 336.777 592.588 308 596.7C298.4 598.071 289.312 595.921 280 594L280 595C295.713 601.542 310.455 608.821 328 608.821C369.578 608.821 398.904 571.971 419.153 540C424.917 530.899 431.726 521.92 436 512L439 514C437 506.819 446.309 496.9 450.053 491C460.316 474.828 471.347 459.494 485 446.004C492.211 438.879 498.75 431.859 509 436L509 435L504 433L504 431C521.376 426.257 532.586 425.333 550 431L550 430C509.911 402.977 466.381 416.818 436.05 451C429.3 458.607 420.685 467.419 417 477C402.927 466.205 393.546 448.217 380 436.173C348.516 408.179 314.509 414.236 279 429z"/>
<path style="fill:#7a7a7b; stroke:none;" d="M668 415L668 416L673 416L668 415z"/>
<path style="fill:#635170; stroke:none;" d="M673 415L673 416L680 416L673 415z"/>
<path style="fill:#562d6d; stroke:none;" d="M596 478L595 478L593 476C594.954 486.352 578.638 504.021 573.424 513C551.964 549.956 524.906 597 477 597L477 596L497 589L497 588C483.985 579.273 472.068 591.387 458 592L458 593C495.71 619.796 541.122 608.613 570.714 575C598.746 543.161 616.848 504.757 642.127 471C656.232 452.163 674.04 429.866 699 426.3C707.258 425.12 714.918 426.912 723 428C717.756 423.656 710.407 421.488 704 419.355C658.062 404.06 617.112 440.117 596 478z"/>
<path style="fill:#635170; stroke:none;" d="M681 415L681 416L689 416L681 415z"/>
<path style="fill:#7a7a7b; stroke:none;" d="M689 415L689 416L694 416L689 415M310 416L310 417L314 417L310 416M486 416L486 417L489 417L486 416M664 416L664 417L667 417L664 416z"/>
<path style="fill:#635170; stroke:none;" d="M667 416L667 417L671 417L667 416M691 416L691 417L695 417L691 416z"/>
<path style="fill:#7a7a7b; stroke:none;" d="M695 416L695 417L698 417L695 416M306 417L306 418L310 418L306 417M482 417L482 418L485 418L482 417M661.667 417.333L662.333 417.667L661.667 417.333z"/>
<path style="fill:#635170; stroke:none;" d="M663.667 417.333L664.333 417.667L663.667 417.333M697.667 417.333L698.333 417.667L697.667 417.333z"/>
<path style="fill:#7a7a7b; stroke:none;" d="M699 417L699 418L702 418L699 417M297 420L297 421L306 419L297 420M349 418L349 419L357 421L357 420L349 418M479 418L479 419L482 419L479 418M655 419L655 420L660 419L655 419z"/>
<path style="fill:#635170; stroke:none;" d="M660 418L661 419L660 418M701.667 418.333L702.333 418.667L701.667 418.333z"/>
<path style="fill:#7a7a7b; stroke:none;" d="M703 418L703 419L708 420L708 419L703 418M476 419L476 420L479 420L476 419z"/>
<path style="fill:#635170; stroke:none;" d="M657 419L658 420L657 419M704.667 419.333L705.333 419.667L704.667 419.333z"/>
<path style="fill:#7a7a7b; stroke:none;" d="M474.667 420.333L475.333 420.667L474.667 420.333M653 420L654 421L653 420z"/>
<path style="fill:#635170; stroke:none;" d="M654.667 420.333L655.333 420.667L654.667 420.333M707 420L707 421L711 422L711 421L707 420z"/>
<path style="fill:#7a7a7b; stroke:none;" d="M709.667 420.333L710.333 420.667L709.667 420.333M294 421L294 422L297 422L294 421M357.667 421.333L358.333 421.667L357.667 421.333M472.667 421.333L473.333 421.667L472.667 421.333M651 421L652 422L651 421z"/>
<path style="fill:#635170; stroke:none;" d="M652.667 421.333L653.333 421.667L652.667 421.333z"/>
<path style="fill:#7a7a7b; stroke:none;" d="M711.667 421.333L712.333 421.667L711.667 421.333M292.667 422.333L293.333 422.667L292.667 422.333M359.667 422.333L360.333 422.667L359.667 422.333M470.667 422.333L471.333 422.667L470.667 422.333M649 422L650 423L649 422z"/>
<path style="fill:#635170; stroke:none;" d="M650 422L651 423L650 422M712.667 422.333L713.333 422.667L712.667 422.333z"/>
<path style="fill:#7a7a7b; stroke:none;" d="M714 422L714 423L728 429L726 430L726 431L729 430L729 429L714 422M290.667 423.333L291.333 423.667L290.667 423.333M361.667 423.333L362.333 423.667L361.667 423.333M468.667 423.333L469.333 423.667L468.667 423.333M645 425L648 424L645 425z"/>
<path style="fill:#635170; stroke:none;" d="M648 423L649 424L648 423M715 423L716 424L715 423z"/>
<path style="fill:#7a7a7b; stroke:none;" d="M288.667 424.333L289.333 424.667L288.667 424.333M363.667 424.333L364.333 424.667L363.667 424.333M466.667 424.333L467.333 424.667L466.667 424.333z"/>
<path style="fill:#635170; stroke:none;" d="M646 424L647 425L646 424M717 424L718 425L717 424z"/>
<path style="fill:#7a7a7b; stroke:none;" d="M286 425L287 426L286 425M365 425L365 426C377.185 434.222 388.048 443.731 397.561 455C403.301 461.799 409.022 472.949 417 477C419.411 470.136 412.026 465.907 407.92 461C396.838 447.755 382.044 430.431 365 425M464.667 425.333L465.333 425.667L464.667 425.333M643 425L642 427L643 425z"/>
<path style="fill:#635170; stroke:none;" d="M644.667 425.333L645.333 425.667L644.667 425.333M719 425L720 426L719 425z"/>
<path style="fill:#7a7a7b; stroke:none;" d="M284 426L285 427L284 426M298 426C301.213 439.246 324.59 439.75 335 446.888C352.774 459.076 366.235 477.099 377.857 495C382.383 501.971 388.036 508.808 390 517C396.833 508.96 380.858 491.089 375.975 484C356.238 455.352 334.764 428.902 298 426M463 426L464 427L463 426z"/>
<path style="fill:#562d6d; stroke:none;" d="M519 426L519 427L522 427L519 426z"/>
<path style="fill:#431c57; stroke:none;" d="M504 432C518.442 443.978 543.854 446.364 562 441C549.292 424.395 521.374 422.124 504 432z"/>
<path style="fill:#562d6d; stroke:none;" d="M532 426L532 427L535 427L532 426z"/>
<path style="fill:#635170; stroke:none;" d="M643 426L644 427L643 426M697 426L697 427L701 427L697 426z"/>
<path style="fill:#7a7a7b; stroke:none;" d="M416 546C407.924 552.575 402.573 563.113 395.711 571C378.134 591.2 356.506 607.261 329 608.625C317.89 609.176 307.712 604.582 297 603L297 604C322.886 630.5 366.079 616.311 390 592.985C396.878 586.278 403.178 579.279 409.428 572C411.804 569.233 415.007 564.82 419 564.546C427.586 563.958 440.414 584.703 446.286 590.428C463.425 607.137 483.48 618.821 508 618.821C537.012 618.821 561.53 601.64 580.145 580.911C611.268 546.252 629.636 502.486 659.59 467C668.783 456.11 679.689 445.478 693 439.876C700.061 436.904 712.118 436.842 714 428L718 428C685.39 413.361 652.339 455.533 637.333 478C630.714 487.911 624.282 497.904 617.95 508C588.433 555.062 539.529 636.011 472 602.03C461.793 596.894 453.023 589.01 445 581C434.437 570.453 423.44 559.057 416 546z"/>
<path style="fill:#635170; stroke:none;" d="M712 426L712 427L716 427L712 426M721 426L722 427L721 426z"/>
<path style="fill:#7a7a7b; stroke:none;" d="M282 427L283 428L282 427M290 427L290 428L296 428L290 427M461.667 427.333L462.333 427.667L461.667 427.333z"/>
<path style="fill:#562d6d; stroke:none;" d="M514.667 427.333L515.333 427.667L514.667 427.333M538.667 427.333L539.333 427.667L538.667 427.333z"/>
<path style="fill:#7a7a7b; stroke:none;" d="M640 427L639 429L640 427z"/>
<path style="fill:#635170; stroke:none;" d="M641 427L642 428L641 427M693 427L693 428L696 428L693 427M718.667 427.333L719.333 427.667L718.667 427.333M723 427L722 429L724 429L723 427z"/>
<path style="fill:#7a7a7b; stroke:none;" d="M280 428L281 429L280 428M285 428L285 429L289 429L285 428M460 428L461 429L460 428z"/>
<path style="fill:#562d6d; stroke:none;" d="M511 428L512 429L511 428M542 428L543 429L542 428z"/>
<path style="fill:#635170; stroke:none;" d="M640 428L641 429L640 428M689 428L689 429L692 429L689 428z"/>
<path style="fill:#7a7a7b; stroke:none;" d="M719 428L719 429L722 429L719 428z"/>
<path style="fill:#562d6d; stroke:none;" d="M724 428L725 429L724 428z"/>
<path style="fill:#635170; stroke:none;" d="M725 428L728 430L728 429L725 428z"/>
<path style="fill:#7a7a7b; stroke:none;" d="M274 433L281 431C277.88 429.35 276.259 430.502 274 433M281 429L281 430L285 430L281 429M458.667 429.333L459.333 429.667L458.667 429.333z"/>
<path style="fill:#562d6d; stroke:none;" d="M508 429L509 430L508 429M545 429L546 430L545 429z"/>
<path style="fill:#7a7a7b; stroke:none;" d="M637 429L635 432L637 429z"/>
<path style="fill:#635170; stroke:none;" d="M638 429L639 430L638 429M687.667 429.333L688.333 429.667L687.667 429.333z"/>
<path style="fill:#7a7a7b; stroke:none;" d="M723.667 429.333L724.333 429.667L723.667 429.333M457 430L458 431L457 430z"/>
<path style="fill:#562d6d; stroke:none;" d="M506 430L507 431L506 430M548 430L549 431L548 430z"/>
<path style="fill:#635170; stroke:none;" d="M637 430L638 431L637 430M685 430L686 431L685 430M728.667 430.333L729.333 430.667L728.667 430.333z"/>
<path style="fill:#7a7a7b; stroke:none;" d="M729 431L733 433L731 430L729 431M456 431L457 432L456 431z"/>
<path style="fill:#562d6d; stroke:none;" d="M504 431L505 432L504 431M550 431L551 432L550 431z"/>
<path style="fill:#635170; stroke:none;" d="M551 431L552 432L551 431M636 431L637 432L636 431M683 431L684 432L683 431z"/>
<path style="fill:#7a7a7b; stroke:none;" d="M453 434L456 432L453 434z"/>
<path style="fill:#562d6d; stroke:none;" d="M552 432L553 433L552 432z"/>
<path style="fill:#635170; stroke:none;" d="M553 432L554 433L553 432z"/>
<path style="fill:#7a7a7b; stroke:none;" d="M633 432L629 437L633 432z"/>
<path style="fill:#635170; stroke:none;" d="M634 432L635 433L634 432M681 432L682 433L681 432z"/>
<path style="fill:#7a7a7b; stroke:none;" d="M506 592C502.45 586.466 494.768 582.751 490 577.999C478.515 566.552 469.286 553.455 460.333 540C456.417 534.114 450.883 527.026 449.391 520C447.77 512.363 453.127 506.022 456.947 500C466.725 484.584 476.893 468.88 490.015 456.039C495.32 450.848 503.017 443.628 511 446.483C540.683 457.099 551.708 493.838 571 515L571 516L567 522C577.092 512.213 568.617 503.426 562.333 494C550.663 476.493 538.515 458.159 522 444.805C517.006 440.767 508.963 433.146 502 433.491C488.451 434.162 473.039 457.327 465.654 467C458.146 476.836 451.619 487.526 445.05 498C442.784 501.613 438.282 506.577 438.147 511C437.934 518.026 447.05 528.236 450.681 534C463.527 554.391 481.271 584.86 506 592z"/>
<path style="fill:#635170; stroke:none;" d="M554 433L555 434L554 433M633 433L634 434L633 433M679 433L680 434L679 433z"/>
<path style="fill:#7a7a7b; stroke:none;" d="M452 434L453 435L452 434z"/>
<path style="fill:#562d6d; stroke:none;" d="M555 434L556 435L555 434z"/>
<path style="fill:#635170; stroke:none;" d="M632 434L633 435L632 434M677.667 434.333L678.333 434.667L677.667 434.333z"/>
<path style="fill:#7a7a7b; stroke:none;" d="M451 435L452 436L451 435z"/>
<path style="fill:#562d6d; stroke:none;" d="M509 435L510 436L509 435M556 435L558 437L556 435z"/>
<path style="fill:#635170; stroke:none;" d="M557 435L558 436L557 435M631 435L632 436L631 435M676 435L677 436L676 435z"/>
<path style="fill:#7a7a7b; stroke:none;" d="M447 439L451 436L447 439z"/>
<path style="fill:#635170; stroke:none;" d="M510 436L511 437L510 436z"/>
<path style="fill:#562d6d; stroke:none;" d="M511 436L512 437L511 436z"/>
<path style="fill:#635170; stroke:none;" d="M558 436L559 437L558 436M630 436L631 437L630 436M674.667 436.333L675.333 436.667L674.667 436.333M512 437L513 438L512 437M559 437L560 438L559 437z"/>
<path style="fill:#7f7e7f; stroke:none;" d="M561 437L562 438L561 437z"/>
<path style="fill:#635170; stroke:none;" d="M628 437L629 438L628 437M673 437L674 438L673 437M513 438L514 439L513 438z"/>
<path style="fill:#562d6d; stroke:none;" d="M514 438L515 439L514 438z"/>
<path style="fill:#635170; stroke:none;" d="M560 438L561 439L560 438z"/>
<path style="fill:#7a7a7b; stroke:none;" d="M626 438L619 446L626 438z"/>
<path style="fill:#635170; stroke:none;" d="M627 438L628 439L627 438M672 438L673 439L672 438z"/>
<path style="fill:#7a7a7b; stroke:none;" d="M446 439L447 440L446 439z"/>
<path style="fill:#635170; stroke:none;" d="M515 439L516 440L515 439z"/>
<path style="fill:#562d6d; stroke:none;" d="M561 439L562 440L561 439z"/>
<path style="fill:#635170; stroke:none;" d="M626 439L627 440L626 439M670 439L671 440L670 439z"/>
<path style="fill:#7a7a7b; stroke:none;" d="M445 440L446 441L445 440z"/>
<path style="fill:#635170; stroke:none;" d="M516 440L518 442L516 440z"/>
<path style="fill:#562d6d; stroke:none;" d="M517 440L518 441L517 440M562 440C553.295 444.645 529.613 444.209 520 442L565 498L592 474C584.499 461.955 573.636 448.197 562 440z"/>
<path style="fill:#635170; stroke:none;" d="M625 440L626 441L625 440M669 440L670 441L669 440z"/>
<path style="fill:#7a7a7b; stroke:none;" d="M444 441L445 442L444 441z"/>
<path style="fill:#562d6d; stroke:none;" d="M518 441L519 442L518 441z"/>
<path style="fill:#635170; stroke:none;" d="M564 441L565 442L564 441M624 441L625 442L624 441M668 441L669 442L668 441z"/>
<path style="fill:#7a7a7b; stroke:none;" d="M443 442L444 443L443 442z"/>
<path style="fill:#635170; stroke:none;" d="M519 442L520 443L519 442M565 442L566 443L565 442M623 442L624 443L623 442M667 442L668 443L667 442z"/>
<path style="fill:#7a7a7b; stroke:none;" d="M442 443L443 444L442 443z"/>
<path style="fill:#635170; stroke:none;" d="M520 443L521 444L520 443M566 443L567 444L566 443M622 443L623 444L622 443M666 443L667 444L666 443z"/>
<path style="fill:#7a7a7b; stroke:none;" d="M441 444L442 445L441 444z"/>
<path style="fill:#635170; stroke:none;" d="M521 444L522 445L521 444M567 444L568 445L567 444M621 444L622 445L621 444M664 444L665 445L664 444z"/>
<path style="fill:#7a7a7b; stroke:none;" d="M440 445L441 446L440 445z"/>
<path style="fill:#7f7e7f; stroke:none;" d="M571 516C564.304 501.986 555.102 489.22 545.576 477C537.38 466.486 522.08 445.351 507 445.37C499.873 445.38 492.67 452.22 488.09 457.015C476.296 469.36 466.609 483.572 457.576 498C453.629 504.304 448.704 510.16 449.047 518C449.361 525.159 454.557 532.168 458.345 538C467.23 551.678 476.491 565.367 488.004 577C492.292 581.333 499.303 589.649 506 589.853C518.276 590.225 533.965 569.48 540.576 561C551.778 546.63 560.46 530.759 571 516z"/>
<path style="fill:#635170; stroke:none;" d="M522 445L523 446L522 445M568 445L569 446L568 445M620 445L621 446L620 445M663 445L664 446L663 445z"/>
<path style="fill:#7a7a7b; stroke:none;" d="M439 446L436 451L439 446z"/>
<path style="fill:#635170; stroke:none;" d="M569 446L570 447L569 446M619 446L620 447L619 446M662 446L663 447L662 446M525 447L526 448L525 447M570 447L571 448L570 447z"/>
<path style="fill:#7a7a7b; stroke:none;" d="M618 447L619 448L618 447z"/>
<path style="fill:#635170; stroke:none;" d="M661 447L662 448L661 447M526 448L527 449L526 448M571 448L572 449L571 448z"/>
<path style="fill:#7a7a7b; stroke:none;" d="M617 448L612 455L613 455L617 448z"/>
<path style="fill:#635170; stroke:none;" d="M660 448L661 449L660 448M527 449L528 450L527 449M572 449L573 450L572 449M617 449L618 450L617 449M659 449L660 450L659 449M528 450L529 451L528 450M573 450L574 451L573 450M616 450L617 451L616 450M658 450L659 451L658 450z"/>
<path style="fill:#7a7a7b; stroke:none;" d="M435 451L436 452L435 451z"/>
<path style="fill:#635170; stroke:none;" d="M529 451L530 452L529 451M574 451L575 452L574 451M615 451L616 452L615 451M657 451L658 452L657 451z"/>
<path style="fill:#7a7a7b; stroke:none;" d="M434 452L435 453L434 452z"/>
<path style="fill:#635170; stroke:none;" d="M530 452L531 453L530 452M614 452L615 453L614 452z"/>
<path style="fill:#7a7a7b; stroke:none;" d="M433 453L434 454L433 453z"/>
<path style="fill:#635170; stroke:none;" d="M531 453L532 454L531 453M575 453L576 454L575 453M613 453L614 454L613 453M656 453L657 454L656 453z"/>
<path style="fill:#7a7a7b; stroke:none;" d="M432 454L430 458L432 454z"/>
<path style="fill:#635170; stroke:none;" d="M532 454L533 455L532 454M576 454L577 455L576 454M655 454L656 455L655 454M533 455L534 456L533 455M577 455L578 456L577 455z"/>
<path style="fill:#7a7a7b; stroke:none;" d="M611 455L608 460L609 460L611 455z"/>
<path style="fill:#635170; stroke:none;" d="M654 455L655 456L654 455M534 456L535 457L534 456M578 456L579 457L578 456M611 456L612 457L611 456M653 456L654 457L653 456M579 457L580 458L579 457M610 457L611 458L610 457M652 457L653 458L652 457z"/>
<path style="fill:#7a7a7b; stroke:none;" d="M429 458L430 459L429 458z"/>
<path style="fill:#635170; stroke:none;" d="M580 458L581 459L580 458M609 458L610 459L609 458M651 458L652 459L651 458z"/>
<path style="fill:#7a7a7b; stroke:none;" d="M428 459L429 460L428 459z"/>
<path style="fill:#635170; stroke:none;" d="M536 459L537 460L536 459z"/>
<path style="fill:#7a7a7b; stroke:none;" d="M427 460L426 463L427 460z"/>
<path style="fill:#635170; stroke:none;" d="M537 460L538 461L537 460M581 460L582 461L581 460z"/>
<path style="fill:#7a7a7b; stroke:none;" d="M607 460L605 463L607 460z"/>
<path style="fill:#635170; stroke:none;" d="M650 460L651 461L650 460M538 461L539 462L538 461M582 461L583 462L582 461M607 461L608 462L607 461M649 461L650 462L649 461M539 462L540 463L539 462M583 462L584 463L583 462M606 462L607 463L606 462M648 462L649 463L648 462z"/>
<path style="fill:#7a7a7b; stroke:none;" d="M425 463L426 464L425 463z"/>
<path style="fill:#635170; stroke:none;" d="M540 463L541 464L540 463M584 463L585 464L584 463M605 463L606 464L605 463M647 463L648 464L647 463z"/>
<path style="fill:#7a7a7b; stroke:none;" d="M424 464L423 467L424 464z"/>
<path style="fill:#635170; stroke:none;" d="M541 464L542 465L541 464z"/>
<path style="fill:#7a7a7b; stroke:none;" d="M604 464L602 467L604 464z"/>
<path style="fill:#635170; stroke:none;" d="M604 465L605 466L604 465M646 465L647 466L646 465M542 466L543 467L542 466M586 466L587 467L586 466M603 466L604 467L603 466M645 466L646 467L645 466z"/>
<path style="fill:#7a7a7b; stroke:none;" d="M422 467L423 468L422 467z"/>
<path style="fill:#635170; stroke:none;" d="M543 467L544 468L543 467M587 467L588 468L587 467M602.333 467.667L602.667 468.333L602.333 467.667M644 467L645 468L644 467z"/>
<path style="fill:#7a7a7b; stroke:none;" d="M421.333 468.667L421.667 469.333L421.333 468.667z"/>
<path style="fill:#635170; stroke:none;" d="M544 468L545 469L544 468M588 468L589 469L588 468M601 469L602 470L601 469M643 469L644 470L643 469z"/>
<path style="fill:#7a7a7b; stroke:none;" d="M420 470L421 471L420 470z"/>
<path style="fill:#635170; stroke:none;" d="M545 470L546 471L545 470M589 470L590 471L589 470M600 470L601 471L600 470M642 470L643 471L642 470z"/>
<path style="fill:#562d6d; stroke:none;" d="M390 506L408 487L405 493L406 493L411 482C415.148 479.681 414.645 472.207 408.914 472.207C405.224 472.207 402.117 477.631 399.91 480C391.941 488.555 382.941 494.295 390 506z"/>
<path style="fill:#7a7a7b; stroke:none;" d="M419 471L420 472L419 471z"/>
<path style="fill:#635170; stroke:none;" d="M546 471L547 472L546 471M590 471L591 472L590 471M641 471L642 472L641 471M547 472L548 473L547 472M591 472L592 473L591 472M599 472L600 473L599 472M548 473L549 474L548 473z"/>
<path style="fill:#431c57; stroke:none;" d="M566 498L566 499L574 512C581.034 503.905 586.377 493.168 591.977 484C593.704 481.172 595.543 475.726 590.81 474.346C587.783 473.463 584.853 477.159 583.015 479.005C577.023 485.019 571.749 491.758 566 498z"/>
<path style="fill:#635170; stroke:none;" d="M598 473L599 474L598 473M640 473L641 474L640 473M592 474L593 475L592 474M597.333 474.667L597.667 475.333L597.333 474.667M639 474L640 475L639 474M549 475L550 476L549 475M593 475L594 476L593 475M638.333 475.667L638.667 476.333L638.333 475.667M550 476L551 477L550 476M596 476L597 477L596 476M595 477L596 478L595 477M637 477L638 478L637 477M551 478L552 479L551 478M636.333 478.667L636.667 479.333L636.333 478.667M552 479L553 480L552 479M553 480L554 481L553 480M635 480L636 481L635 480M634.333 481.667L634.667 482.333L634.333 481.667z"/>
<path style="fill:#431c57; stroke:none;" d="M411 482L412 483L411 482z"/>
<path style="fill:#635170; stroke:none;" d="M554 482L555 483L554 482z"/>
<path style="fill:#431c57; stroke:none;" d="M410 483L408 487L409 487L410 483z"/>
<path style="fill:#635170; stroke:none;" d="M555 483L556 484L555 483M633 483L634 484L633 483M632.333 484.667L632.667 485.333L632.333 484.667M556 485L557 486L556 485M557 486L558 487L557 486M631 486L632 487L631 486z"/>
<path style="fill:#431c57; stroke:none;" d="M407 487C401.616 492.429 387.731 502.957 394 511C397.73 504.927 407.674 494.173 407 487z"/>
<path style="fill:#635170; stroke:none;" d="M558.333 487.667L558.667 488.333L558.333 487.667M630.333 487.667L630.667 488.333L630.333 487.667M559 489L560 490L559 489M629 489L630 490L629 489M560 491L561 492L560 491M628 491L629 492L628 491M561 492L562 493L561 492M627 492L628 493L627 492M562.333 493.667L562.667 494.333L562.333 493.667z"/>
<path style="fill:#562d6d; stroke:none;" d="M404 494L405 495L404 494z"/>
<path style="fill:#635170; stroke:none;" d="M626 494L627 495L626 494z"/>
<path style="fill:#562d6d; stroke:none;" d="M403 495L404 496L403 495z"/>
<path style="fill:#635170; stroke:none;" d="M563 495L564 496L563 495M625 495L626 496L625 495z"/>
<path style="fill:#562d6d; stroke:none;" d="M402 497L403 498L402 497z"/>
<path style="fill:#635170; stroke:none;" d="M564 497L565 498L564 497M624 497L625 498L624 497z"/>
<path style="fill:#562d6d; stroke:none;" d="M401.333 498.667L401.667 499.333L401.333 498.667z"/>
<path style="fill:#635170; stroke:none;" d="M565 498L566 499L565 498M623.333 498.667L623.667 499.333L623.333 498.667z"/>
<path style="fill:#562d6d; stroke:none;" d="M566 499L568 501L566 499z"/>
<path style="fill:#635170; stroke:none;" d="M386 500L387 501L386 500z"/>
<path style="fill:#562d6d; stroke:none;" d="M400 500L401 501L400 500z"/>
<path style="fill:#635170; stroke:none;" d="M566 500L567 501L566 500M622 500L623 501L622 500M387.333 501.667L387.667 502.333L387.333 501.667M567 501L568 502L567 501M621.333 501.667L621.667 502.333L621.333 501.667z"/>
<path style="fill:#562d6d; stroke:none;" d="M399 502L400 503L399 502M568 502L569 503L568 502z"/>
<path style="fill:#635170; stroke:none;" d="M388 503L389 504L388 503z"/>
<path style="fill:#562d6d; stroke:none;" d="M398 503L399 504L398 503z"/>
<path style="fill:#635170; stroke:none;" d="M568 503L569 504L568 503M620 503L621 504L620 503z"/>
<path style="fill:#562d6d; stroke:none;" d="M569 504L570 505L569 504z"/>
<path style="fill:#635170; stroke:none;" d="M389 505L390 506L389 505z"/>
<path style="fill:#562d6d; stroke:none;" d="M397 505L398 506L397 505z"/>
<path style="fill:#635170; stroke:none;" d="M569 505L570 506L569 505M619 505L620 506L619 505M390 506L391 507L390 506z"/>
<path style="fill:#562d6d; stroke:none;" d="M396.333 506.667L396.667 507.333L396.333 506.667z"/>
<path style="fill:#635170; stroke:none;" d="M570 506L571 507L570 506M618.333 506.667L618.667 507.333L618.333 506.667z"/>
<path style="fill:#562d6d; stroke:none;" d="M391 507L392 508L391 507M571 507L572 508L571 507z"/>
<path style="fill:#635170; stroke:none;" d="M391 508L392 509L391 508z"/>
<path style="fill:#562d6d; stroke:none;" d="M395 508L396 509L395 508z"/>
<path style="fill:#635170; stroke:none;" d="M571 508L572 509L571 508M617 508L618 509L617 508z"/>
<path style="fill:#562d6d; stroke:none;" d="M392 509L393 510L392 509z"/>
<path style="fill:#635170; stroke:none;" d="M572 509L573 510L572 509z"/>
<path style="fill:#562d6d; stroke:none;" d="M394 510L395 511L394 510z"/>
<path style="fill:#635170; stroke:none;" d="M616 510L617 511L616 510M573.333 511.667L573.667 512.333L573.333 511.667M615 511L616 512L615 511z"/>
<path style="fill:#562d6d; stroke:none;" d="M436 512L435 514L436 512z"/>
<path style="fill:#431c57; stroke:none;" d="M436 513L420 540C427.089 534.579 440.976 522.609 438 513L436 513z"/>
<path style="fill:#635170; stroke:none;" d="M614 513L615 514L614 513z"/>
<path style="fill:#562d6d; stroke:none;" d="M438 514L439 515L438 514z"/>
<path style="fill:#635170; stroke:none;" d="M572 514L573 515L572 514M613.333 514.667L613.667 515.333L613.333 514.667z"/>
<path style="fill:#562d6d; stroke:none;" d="M434 515L435 516L434 515z"/>
<path style="fill:#635170; stroke:none;" d="M439 515L440 516L439 515z"/>
<path style="fill:#562d6d; stroke:none;" d="M439 516L440 517L439 516z"/>
<path style="fill:#635170; stroke:none;" d="M571 516L572 517L571 516M612 516L613 517L612 516z"/>
<path style="fill:#7a7a7b; stroke:none;" d="M389 517L390 518L389 517z"/>
<path style="fill:#562d6d; stroke:none;" d="M433 517L434 518L433 517z"/>
<path style="fill:#635170; stroke:none;" d="M440 517L441 518L440 517M570.333 517.667L570.667 518.333L570.333 517.667z"/>
<path style="fill:#7a7a7b; stroke:none;" d="M388.333 518.667L388.667 519.333L388.333 518.667z"/>
<path style="fill:#562d6d; stroke:none;" d="M432 518L433 519L432 518M439 518C434.675 524.325 426.425 536.714 419 539C415.436 545.521 417.188 549.538 423 554C431.873 542.469 449.124 533.525 441 518L439 518z"/>
<path style="fill:#635170; stroke:none;" d="M611 518L612 519L611 518M441 519L442 520L441 519M569 519L570 520L569 519M610 519L611 520L610 519z"/>
<path style="fill:#7a7a7b; stroke:none;" d="M387.333 520.667L387.667 521.333L387.333 520.667z"/>
<path style="fill:#562d6d; stroke:none;" d="M431 520L432 521L431 520z"/>
<path style="fill:#635170; stroke:none;" d="M442 520L443 521L442 520M568 521L569 522L568 521M609 521L610 522L609 521z"/>
<path style="fill:#7a7a7b; stroke:none;" d="M386 522L387 523L386 522z"/>
<path style="fill:#562d6d; stroke:none;" d="M430 522L431 523L430 522z"/>
<path style="fill:#635170; stroke:none;" d="M443 522L444 523L443 522M567 522L568 523L567 522M608.333 522.667L608.667 523.333L608.333 522.667z"/>
<path style="fill:#7a7a7b; stroke:none;" d="M385.333 523.667L385.667 524.333L385.333 523.667z"/>
<path style="fill:#562d6d; stroke:none;" d="M429 523L430 524L429 523z"/>
<path style="fill:#635170; stroke:none;" d="M444.333 523.667L444.667 524.333L444.333 523.667z"/>
<path style="fill:#7a7a7b; stroke:none;" d="M566 523L565 525L566 523z"/>
<path style="fill:#635170; stroke:none;" d="M566 524L567 525L566 524M607 524L608 525L607 524z"/>
<path style="fill:#7a7a7b; stroke:none;" d="M384 525L383 528L384 525z"/>
<path style="fill:#562d6d; stroke:none;" d="M428 525L429 526L428 525z"/>
<path style="fill:#635170; stroke:none;" d="M445 525C443.056 533.178 429.167 550.303 421 553C425.866 564.496 437.265 574.365 446 582.996C449.262 586.219 453.28 591.035 458 591.983C467.477 593.887 481.109 585.893 490 583L464.884 554L445 525M565 525L566 526L565 525M606.333 525.667L606.667 526.333L606.333 525.667z"/>
<path style="fill:#562d6d; stroke:none;" d="M427.333 526.667L427.667 527.333L427.333 526.667z"/>
<path style="fill:#7a7a7b; stroke:none;" d="M564 526L560 533L561 533L564 526z"/>
<path style="fill:#635170; stroke:none;" d="M564 527L565 528L564 527M605 527L606 528L605 527z"/>
<path style="fill:#7a7a7b; stroke:none;" d="M382.333 528.667L382.667 529.333L382.333 528.667z"/>
<path style="fill:#562d6d; stroke:none;" d="M426 528L427 529L426 528z"/>
<path style="fill:#635170; stroke:none;" d="M563 529L564 530L563 529M604 529L605 530L604 529z"/>
<path style="fill:#7a7a7b; stroke:none;" d="M381 530L382 531L381 530z"/>
<path style="fill:#562d6d; stroke:none;" d="M425 530L426 531L425 530z"/>
<path style="fill:#635170; stroke:none;" d="M562 530L563 531L562 530M603 530L604 531L603 530z"/>
<path style="fill:#7a7a7b; stroke:none;" d="M380 531L379 534L380 531z"/>
<path style="fill:#562d6d; stroke:none;" d="M424 531L425 532L424 531z"/>
<path style="fill:#635170; stroke:none;" d="M561 532L562 533L561 532M602 532L603 533L602 532z"/>
<path style="fill:#562d6d; stroke:none;" d="M423 533L424 534L423 533z"/>
<path style="fill:#635170; stroke:none;" d="M560 533L561 534L560 533M601 533L602 534L601 533z"/>
<path style="fill:#7a7a7b; stroke:none;" d="M378.333 534.667L378.667 535.333L378.333 534.667z"/>
<path style="fill:#562d6d; stroke:none;" d="M422.333 534.667L422.667 535.333L422.333 534.667z"/>
<path style="fill:#7a7a7b; stroke:none;" d="M559 534L558 536L559 534z"/>
<path style="fill:#635170; stroke:none;" d="M559 535L560 536L559 535M600 535L601 536L600 535z"/>
<path style="fill:#7a7a7b; stroke:none;" d="M377 536L378 537L377 536z"/>
<path style="fill:#562d6d; stroke:none;" d="M421 536L422 537L421 536z"/>
<path style="fill:#635170; stroke:none;" d="M558 536L556 540L558 536M599.333 536.667L599.667 537.333L599.333 536.667z"/>
<path style="fill:#7a7a7b; stroke:none;" d="M376.333 537.667L376.667 538.333L376.333 537.667z"/>
<path style="fill:#562d6d; stroke:none;" d="M420.333 537.667L420.667 538.333L420.333 537.667z"/>
<path style="fill:#7a7a7b; stroke:none;" d="M557 537L558 538L557 537M556 538L557 539L556 538z"/>
<path style="fill:#635170; stroke:none;" d="M598 538L599 539L598 538z"/>
<path style="fill:#7a7a7b; stroke:none;" d="M375 539L376 540L375 539z"/>
<path style="fill:#635170; stroke:none;" d="M597 539L598 540L597 539z"/>
<path style="fill:#7a7a7b; stroke:none;" d="M374.333 540.667L374.667 541.333L374.333 540.667M555 540L554 542L555 540M632 540L633 541L632 540z"/>
<path style="fill:#635170; stroke:none;" d="M629 544L639 541C634.916 539.339 631.793 540.835 629 544z"/>
<path style="fill:#7a7a7b; stroke:none;" d="M639 540L639 541C648.778 548.383 644.162 565.303 653 572L657 554L639 540M663.667 540.333L664.333 540.667L663.667 540.333z"/>
<path style="fill:#635170; stroke:none;" d="M665 540L665 541L670 541L665 540z"/>
<path style="fill:#7a7a7b; stroke:none;" d="M670.667 540.333L671.333 540.667L670.667 540.333M692 540L690 544L691 544L692 540z"/>
<path style="fill:#635170; stroke:none;" d="M691 543L697 541L691 543z"/>
<path style="fill:#7a7a7b; stroke:none;" d="M697 540L697 541L700 542L697 540M714 540L712 546L713 546L714 540z"/>
<path style="fill:#635170; stroke:none;" d="M715 550L716 550C714.44 545.581 713.967 542.532 719 541C712.609 538.968 713.123 546.07 715 550z"/>
<path style="fill:#7a7a7b; stroke:none;" d="M719 540L719 541L732 557L736 550L719 540M742 540L740 543L742 540z"/>
<path style="fill:#635170; stroke:none;" d="M740 544L747 541C743.708 539.962 742.101 541.473 740 544z"/>
<path style="fill:#7a7a7b; stroke:none;" d="M747 540L747 541L749 543L750 543L747 540z"/>
<path style="fill:#431c57; stroke:none;" d="M419 541L418 543L419 541z"/>
<path style="fill:#635170; stroke:none;" d="M555 541L556 542L555 541M596 541L597 542L596 541z"/>
<path style="fill:#7a7a7b; stroke:none;" d="M630 541L631 542L630 541z"/>
<path style="fill:#562d6d; stroke:none;" d="M637 553L638 553C639.945 562.422 642.698 571.665 645.001 581C645.836 584.384 647.024 589.159 651.039 590.029C655.305 590.954 657.258 586.209 658.275 582.999C661.162 573.886 664.222 563.529 665 554L667 554L667 569C667 574.494 665.812 581.584 667.318 586.89C668.176 589.915 671.862 591.496 673.972 588.551C675.994 585.728 675 580.276 675 577C675 567.505 675.961 557.438 674.891 548.004C674.179 541.72 666.333 538.363 661.703 543.434C658.655 546.771 658.224 552.787 657.116 557C655.622 562.68 654.321 568.606 652 574C649.528 568.257 648.059 562.052 646.525 556C645.493 551.925 644.658 545.666 641.351 542.742C636.559 538.505 629.569 542.229 629.059 548.004C628.219 557.519 629 567.446 629 577C629 580.243 627.993 585.747 630.027 588.526C632.098 591.355 635.667 589.705 636.566 586.866C638.223 581.635 637 574.45 637 569L637 553z"/>
<path style="fill:#635170; stroke:none;" d="M640 541L641 542L640 541z"/>
<path style="fill:#7a7a7b; stroke:none;" d="M661 541L662 542L661 541z"/>
<path style="fill:#635170; stroke:none;" d="M662.667 541.333L663.333 541.667L662.667 541.333M671 541L671 542L674 543L671 541z"/>
<path style="fill:#7a7a7b; stroke:none;" d="M673 541L674 542L673 541z"/>
<path style="fill:#562d6d; stroke:none;" d="M693.314 542.047C690.034 544.084 691 549.758 691 553C690.999 562.984 690.7 573.02 691.015 582.999C691.115 586.137 692.24 591.723 696.787 589.632C700.591 587.883 699.994 582.409 700 579C700.017 568.731 700.602 558.248 699.956 548.001C699.746 544.673 697.655 539.351 693.314 542.047z"/>
<path style="fill:#635170; stroke:none;" d="M698 541L699 542L698 541z"/>
<path style="fill:#562d6d; stroke:none;" d="M730 572L732 572C734.022 577.342 737.819 584.861 742.326 588.526C744.648 590.415 749.046 590.725 749.468 586.866C750.356 578.761 738.985 572.828 738.356 565C737.778 557.821 747.906 552.327 748.458 545.059C748.752 541.187 744.783 540.752 742.209 542.608C737.902 545.714 734.021 553.194 732 558L730 558C728.44 553.104 725.221 546.924 721.471 543.319C718.993 540.936 714.359 540.59 714.362 545.059C714.367 552.465 724.315 557.73 723.647 565C722.93 572.794 712.497 577.881 712.373 585.955C712.306 590.262 716.707 590.831 719.482 588.471C724.036 584.598 727.665 577.412 730 572z"/>
<path style="fill:#635170; stroke:none;" d="M720 541L721 542L720 541M748 541L749 542L748 541z"/>
<path style="fill:#7a7a7b; stroke:none;" d="M373 542L374 543L373 542z"/>
<path style="fill:#635170; stroke:none;" d="M554 542L552 546L554 542M595 542L596 543L595 542z"/>
<path style="fill:#7a7a7b; stroke:none;" d="M629 542L630 543L629 542z"/>
<path style="fill:#635170; stroke:none;" d="M661 542L662 543L661 542z"/>
<path style="fill:#7a7a7b; stroke:none;" d="M674 542C677.09 553.68 676.005 565.963 676 578C675.999 581.674 676.848 589.093 671.907 590.168C668.191 590.977 666.441 586.93 666.109 583.996C665.113 575.208 666 565.845 666 557L665 557C663.83 565.689 661.263 574.661 658.56 583C657.586 586.007 655.804 590.364 651.989 590.364C643.45 590.364 639.877 564.511 639 558L638 558C638 566.289 639.334 575.87 637.656 583.999C636.623 589.002 632.971 591.876 629 588L628 588C634.136 600 667.185 599.098 677.985 593.682C682.203 591.566 684.345 586.859 688 584C692.567 597.06 701.672 595.411 712 590C718.793 600.36 727.664 590.259 736 591.445C740.796 592.128 748.774 598.446 752.821 592.566C757.112 586.331 750.605 578.936 749.394 573C747.311 562.781 753.901 555.988 750 545L749 545C746.852 551.488 739.529 557.265 738.735 564C737.78 572.088 749.241 577.891 749.577 585.956C749.762 590.398 745.175 591.127 742.326 588.667C737.883 584.83 734.726 578.12 732 573L730 573C727.196 578.036 723.487 585.899 718.675 589.238C711.362 594.314 712.555 583.628 714 580L710 583C708.714 572.824 713.382 551.507 701 548C701 558.959 701.514 570.056 700.96 581C700.795 584.256 699.639 590.684 695.026 590.079C690.448 589.478 690.052 583.489 690.004 580C689.841 568.338 690 556.663 690 545L689 545L688 559L686 559L674 542z"/>
<path style="fill:#635170; stroke:none;" d="M699.333 542.667L699.667 543.333L699.333 542.667M721 542L722 543L721 542z"/>
<path style="fill:#7a7a7b; stroke:none;" d="M372 543L371 546L372 543M553 543L554 544L553 543z"/>
<path style="fill:#635170; stroke:none;" d="M642 543L643 544L642 543z"/>
<path style="fill:#7a7a7b; stroke:none;" d="M660 543L659 547L660 547L660 543M700 543L700 546L701 546L700 543z"/>
<path style="fill:#635170; stroke:none;" d="M749.333 543.667L749.667 544.333L749.333 543.667z"/>
<path style="fill:#7a7a7b; stroke:none;" d="M552 544L553 545L552 544z"/>
<path style="fill:#635170; stroke:none;" d="M594 544L595 545L594 544z"/>
<path style="fill:#7a7a7b; stroke:none;" d="M628 544L629 545L628 544z"/>
<path style="fill:#635170; stroke:none;" d="M643.333 544.667L643.667 545.333L643.333 544.667M660 544L661 545L660 544M674 544L675 545L674 544M690 544L690 587L691 587C691 574.781 694.711 555.225 690 544M722 544L723 545L722 544z"/>
<path style="fill:#7a7a7b; stroke:none;" d="M739 544L738 546L739 544z"/>
<path style="fill:#635170; stroke:none;" d="M593 545L594 546L593 545M628 545L628 588L629 588C629 575.781 632.711 556.225 628 545M723 545L724 546L723 545M739 545L740 546L739 545z"/>
<path style="fill:#7a7a7b; stroke:none;" d="M370 546L371 547L370 546M551 546L550 548L551 546z"/>
<path style="fill:#635170; stroke:none;" d="M675 546L675 588L676 588C676 576.043 679.611 556.988 675 546M700 546L700 586L701 586C701 574.566 704.411 556.512 700 546M738 546L736 551L737 551L738 546M748.333 546.667L748.667 547.333L748.333 546.667z"/>
<path style="fill:#7a7a7b; stroke:none;" d="M369.333 547.667L369.667 548.333L369.333 547.667z"/>
<path style="fill:#635170; stroke:none;" d="M416 547L417 548L416 547M551 547L552 548L551 547M592 547L593 548L592 547z"/>
<path style="fill:#7a7a7b; stroke:none;" d="M627 547L627 587L628 587C628 575.566 631.411 557.512 627 547z"/>
<path style="fill:#635170; stroke:none;" d="M644.333 547.667L644.667 548.333L644.333 547.667M659 547L660 548L659 547z"/>
<path style="fill:#7a7a7b; stroke:none;" d="M713 547L714 548L713 547z"/>
<path style="fill:#635170; stroke:none;" d="M724 547L725 548L724 547z"/>
<path style="fill:#7a7a7b; stroke:none;" d="M737 547L738 548L737 547z"/>
<path style="fill:#635170; stroke:none;" d="M417 548L418 549L417 548M550 548L551 549L550 548M591 548L592 549L591 548z"/>
<path style="fill:#7a7a7b; stroke:none;" d="M658.333 548.667L658.667 549.333L658.333 548.667z"/>
<path style="fill:#635170; stroke:none;" d="M725.333 548.667L725.667 549.333L725.333 548.667z"/>
<path style="fill:#7a7a7b; stroke:none;" d="M736 548L737 549L736 548z"/>
<path style="fill:#635170; stroke:none;" d="M747.333 548.667L747.667 549.333L747.333 548.667z"/>
<path style="fill:#7a7a7b; stroke:none;" d="M368 549L369 550L368 549z"/>
<path style="fill:#635170; stroke:none;" d="M418.333 549.667L418.667 550.333L418.333 549.667z"/>
<path style="fill:#7a7a7b; stroke:none;" d="M549 549L547 553L548 553L549 549M714 549L715 550L714 549M367 550L366 553L367 550z"/>
<path style="fill:#635170; stroke:none;" d="M549 550L550 551L549 550M590 550L591 551L590 550M658.333 550.667L658.667 551.333L658.333 550.667z"/>
<path style="fill:#7a7a7b; stroke:none;" d="M715 550C718.797 562.934 720.779 566.824 714 579C725.413 569.567 724.089 560.424 715 550z"/>
<path style="fill:#635170; stroke:none;" d="M726 550L727 551L726 550M746 550L747 551L746 550M419 551L420 552L419 551M548 551L549 552L548 551M589 551L590 552L589 551M645.333 551.667L645.667 552.333L645.333 551.667z"/>
<path style="fill:#7a7a7b; stroke:none;" d="M657.333 551.667L657.667 552.333L657.333 551.667z"/>
<path style="fill:#635170; stroke:none;" d="M716 551L717 552L716 551M735 551L736 552L735 551M745 551L746 552L745 551M420 552L421 553L420 552M588 552L589 553L588 552M717.333 552.667L717.667 553.333L717.333 552.667M727 552L728 553L727 552M734.333 552.667L734.667 553.333L734.333 552.667z"/>
<path style="fill:#7a7a7b; stroke:none;" d="M365 553L366 554L365 553M546 553L544 556L546 553z"/>
<path style="fill:#635170; stroke:none;" d="M637 553L637 586L638 586C638 577.634 641.453 559.811 637 553M657 553L657 556L658 556L657 553M728 553L729 554L728 553M744 553L745 554L744 553z"/>
<path style="fill:#7a7a7b; stroke:none;" d="M364 554L365 555L364 554z"/>
<path style="fill:#635170; stroke:none;" d="M546 554L547 555L546 554M587 554L588 555L587 554M646.333 554.667L646.667 555.333L646.333 554.667M665 554L666 588L667 588L667 554L665 554M718 554L719 555L718 554M733 554L734 555L733 554M743.333 554.667L743.667 555.333L743.333 554.667z"/>
<path style="fill:#7a7a7b; stroke:none;" d="M363.333 555.667L363.667 556.333L363.333 555.667z"/>
<path style="fill:#635170; stroke:none;" d="M545 555L546 556L545 555M586 555L587 556L586 555M719.333 555.667L719.667 556.333L719.333 555.667M729 555L730 556L729 555M732 555L733 556L732 555M544 556L541 561L544 556M585 556L586 557L585 556M730 556L730 558L732 558L730 556M742 556L743 557L742 556z"/>
<path style="fill:#7a7a7b; stroke:none;" d="M362 557L363 558L362 557M543 557L544 558L543 557z"/>
<path style="fill:#635170; stroke:none;" d="M656 557L656 560L657 560L656 557M720 557L721 558L720 557z"/>
<path style="fill:#7a7a7b; stroke:none;" d="M361 558L362 559L361 558M542 558L543 559L542 558z"/>
<path style="fill:#635170; stroke:none;" d="M584 558L585 559L584 558M647 558L647 561L648 561L647 558M664 558L664 561L665 561L664 558M741 558L742 559L741 558z"/>
<path style="fill:#7a7a7b; stroke:none;" d="M360.333 559.667L360.667 560.333L360.333 559.667M541 559L542 560L541 559z"/>
<path style="fill:#635170; stroke:none;" d="M583 559L584 560L583 559M639 559L639 562L640 562L639 559M721 559L722 560L721 559M740 559L741 560L740 559M582 560L583 561L582 560M722 560L723 561L722 560M739.333 560.667L739.667 561.333L739.333 560.667z"/>
<path style="fill:#7a7a7b; stroke:none;" d="M359 561L360 562L359 561M540 561L537 565L540 561z"/>
<path style="fill:#635170; stroke:none;" d="M648 561L648 564L649 564L648 561M655.333 561.667L655.667 562.333L655.333 561.667z"/>
<path style="fill:#7a7a7b; stroke:none;" d="M358 562L359 563L358 562z"/>
<path style="fill:#635170; stroke:none;" d="M540 562L541 563L540 562M581 562L582 563L581 562M663 562L663 565L664 565L663 562M723 562L724 563L723 562M738 562L739 563L738 562z"/>
<path style="fill:#7a7a7b; stroke:none;" d="M357 563L358 564L357 563z"/>
<path style="fill:#635170; stroke:none;" d="M539 563L540 564L539 563M580 563L581 564L580 563M640 563L640 566L641 566L640 563M724 563L724 566L725 566L724 563M737 563L737 566L738 566L737 563z"/>
<path style="fill:#7a7a7b; stroke:none;" d="M356 564L357 565L356 564z"/>
<path style="fill:#635170; stroke:none;" d="M538 564L539 565L538 564M579 564L580 565L579 564z"/>
<path style="fill:#7a7a7b; stroke:none;" d="M355.333 565.667L355.667 566.333L355.333 565.667z"/>
<path style="fill:#635170; stroke:none;" d="M537 565L538 566L537 565M578 565L579 566L578 565M649.333 565.667L649.667 566.333L649.333 565.667M654.333 565.667L654.667 566.333L654.333 565.667M536 566L537 567L536 566M662 566L662 569L663 569L662 566M723 566L724 567L723 566M738 566L739 567L738 566z"/>
<path style="fill:#7a7a7b; stroke:none;" d="M354 567L355 568L354 567M535 567L522 581L535 567z"/>
<path style="fill:#635170; stroke:none;" d="M577 567L578 568L577 567M641 567L641 570L642 570L641 567z"/>
<path style="fill:#7a7a7b; stroke:none;" d="M353 568L354 569L353 568z"/>
<path style="fill:#635170; stroke:none;" d="M535 568L536 569L535 568M576 568L577 569L576 568M653 568L653 571L654 571L653 568M722 568L723 569L722 568M739 568L740 569L739 568z"/>
<path style="fill:#7a7a7b; stroke:none;" d="M352 569L353 570L352 569z"/>
<path style="fill:#635170; stroke:none;" d="M534 569L535 570L534 569M575 569L576 570L575 569M650.333 569.667L650.667 570.333L650.333 569.667M721 569L722 570L721 569M740 569L741 570L740 569z"/>
<path style="fill:#7a7a7b; stroke:none;" d="M351 570L352 571L351 570z"/>
<path style="fill:#635170; stroke:none;" d="M533 570L534 571L533 570M574 570L575 571L574 570M661 570L661 573L662 573L661 570z"/>
<path style="fill:#7a7a7b; stroke:none;" d="M350 571L351 572L350 571z"/>
<path style="fill:#635170; stroke:none;" d="M532 571L533 572L532 571M573 571L574 572L573 571M642.333 571.667L642.667 572.333L642.333 571.667M720 571L721 572L720 571M741 571L742 572L741 571z"/>
<path style="fill:#7a7a7b; stroke:none;" d="M349 572L350 573L349 572z"/>
<path style="fill:#635170; stroke:none;" d="M531 572L532 573L531 572M572 572L573 573L572 572M651 572L651 574L653 574L653 572L651 572M719 572L720 573L719 572M730.667 572.333L731.333 572.667L730.667 572.333M742.333 572.667L742.667 573.333L742.333 572.667z"/>
<path style="fill:#7a7a7b; stroke:none;" d="M348 573L349 574L348 573z"/>
<path style="fill:#635170; stroke:none;" d="M530 573L531 574L530 573M729.333 573.667L729.667 574.333L729.333 573.667z"/>
<path style="fill:#7a7a7b; stroke:none;" d="M347 574L348 575L347 574z"/>
<path style="fill:#635170; stroke:none;" d="M529 574L530 575L529 574M571 574L572 575L571 574M660 574L660 577L661 577L660 574M718 574L719 575L718 574M732 574L733 575L732 574M743 574L744 575L743 574z"/>
<path style="fill:#7a7a7b; stroke:none;" d="M346 575L347 576L346 575z"/>
<path style="fill:#635170; stroke:none;" d="M528 575L529 576L528 575M570 575L571 576L570 575M643.333 575.667L643.667 576.333L643.333 575.667M717 575L718 576L717 575M728 575L729 576L728 575M733 575L734 576L733 575M744.333 575.667L744.667 576.333L744.333 575.667z"/>
<path style="fill:#7a7a7b; stroke:none;" d="M345 576L346 577L345 576z"/>
<path style="fill:#635170; stroke:none;" d="M527 576L528 577L527 576M569 576L570 577L569 576z"/>
<path style="fill:#7a7a7b; stroke:none;" d="M344 577L345 578L344 577z"/>
<path style="fill:#635170; stroke:none;" d="M526 577L527 578L526 577M568 577L569 578L568 577M716 577L717 578L716 577M727 577L728 578L727 577M734 577L735 578L734 577M745 577L746 578L745 577z"/>
<path style="fill:#7a7a7b; stroke:none;" d="M343 578L344 579L343 578z"/>
<path style="fill:#635170; stroke:none;" d="M525 578L526 579L525 578M567 578L568 579L567 578M644 578L644 581L645 581L644 578M659.333 578.667L659.667 579.333L659.333 578.667M715 578L716 579L715 578M726 578L727 579L726 578M735.333 578.667L735.667 579.333L735.333 578.667M746.333 578.667L746.667 579.333L746.333 578.667z"/>
<path style="fill:#7a7a7b; stroke:none;" d="M340 581L343 579L340 581z"/>
<path style="fill:#635170; stroke:none;" d="M524 579L525 580L524 579M566 579L567 580L566 579M714.333 579.667L714.667 580.333L714.333 579.667M523 580L524 581L523 580M565 580L566 581L565 580M725 580L726 581L725 580M736 580L737 581L736 580M747 580L748 581L747 580z"/>
<path style="fill:#7a7a7b; stroke:none;" d="M339 581L340 582L339 581M520 581L514 587L520 581z"/>
<path style="fill:#635170; stroke:none;" d="M521 581L522 582L521 581M564 581L565 582L564 581M713 581L714 582L713 581M724 581L725 582L724 581z"/>
<path style="fill:#7a7a7b; stroke:none;" d="M338 582L339 583L338 582z"/>
<path style="fill:#635170; stroke:none;" d="M520 582L521 583L520 582M563 582L564 583L563 582M658.333 582.667L658.667 583.333L658.333 582.667M737 582L738 583L737 582M748 582L749 583L748 582z"/>
<path style="fill:#7a7a7b; stroke:none;" d="M335 585L338 583L335 585z"/>
<path style="fill:#635170; stroke:none;" d="M490 583L491 584L490 583M519 583L520 584L519 583M562 583L563 584L562 583M645.333 583.667L645.667 584.333L645.333 583.667M712 583L713 584L712 583M723 583L724 584L723 583M738 583L739 584L738 583M749.333 583.667L749.667 584.333L749.333 583.667M491.667 584.333L492.333 584.667L491.667 584.333M518 584L519 585L518 584M561 584L562 585L561 584M722 584L723 585L722 584z"/>
<path style="fill:#7a7a7b; stroke:none;" d="M334 585L335 586L334 585z"/>
<path style="fill:#635170; stroke:none;" d="M493 585L494 586L493 585M516 585L517 586L516 585M560 585L561 586L560 585M657.333 585.667L657.667 586.333L657.333 585.667M711 585L711 588L712 588L711 585M739 585L740 586L739 585z"/>
<path style="fill:#7a7a7b; stroke:none;" d="M332.667 586.333L333.333 586.667L332.667 586.333z"/>
<path style="fill:#635170; stroke:none;" d="M494.667 586.333L495.333 586.667L494.667 586.333M515 586L516 587L515 586M558 586L559 587L558 586M646.333 586.667L646.667 587.333L646.333 586.667M721 586L722 587L721 586M740 586L741 587L740 586z"/>
<path style="fill:#7a7a7b; stroke:none;" d="M331 587L332 588L331 587z"/>
<path style="fill:#635170; stroke:none;" d="M496 587L497 588L496 587z"/>
<path style="fill:#7a7a7b; stroke:none;" d="M512 587L507 590L507 591L513 588L512 587z"/>
<path style="fill:#635170; stroke:none;" d="M513 587L514 588L513 587M557 587L558 588L557 587M699.333 587.667L699.667 588.333L699.333 587.667M720 587L721 588L720 587z"/>
<path style="fill:#7a7a7b; stroke:none;" d="M329.667 588.333L330.333 588.667L329.667 588.333z"/>
<path style="fill:#635170; stroke:none;" d="M497 588L498 589L497 588M512 588L513 589L512 588M556 588L557 589L556 588M636 588L637 589L636 588M647 588L648 589L647 588M656 588L657 589L656 588M691 588L692 589L691 588M741 588L742 589L741 588z"/>
<path style="fill:#7a7a7b; stroke:none;" d="M327.667 589.333L328.333 589.667L327.667 589.333z"/>
<path style="fill:#431c57; stroke:none;" d="M477 596L477 597L504 593C496.266 586.63 485.099 592.41 477 596z"/>
<path style="fill:#562d6d; stroke:none;" d="M498 589L499 590L498 589z"/>
<path style="fill:#635170; stroke:none;" d="M499 589L500 590L499 589M510 589L511 590L510 589M555 589L556 590L555 589M629 589L630 590L629 589M648 589L649 590L648 589M655 589L656 590L655 589M667 589L668 590L667 589M674 589L675 590L674 589M698 589L699 590L698 589M712 589L713 590L712 589M719 589L720 590L719 589M742 589L743 590L742 589M749 589L750 590L749 589z"/>
<path style="fill:#7a7a7b; stroke:none;" d="M325.667 590.333L326.333 590.667L325.667 590.333z"/>
<path style="fill:#562d6d; stroke:none;" d="M500 590L501 591L500 590z"/>
<path style="fill:#635170; stroke:none;" d="M501 590L502 591L501 590M508 590L509 591L508 590M554 590L555 591L554 590M630.667 590.333L631.333 590.667L630.667 590.333M633.667 590.333L634.333 590.667L633.667 590.333M649.667 590.333L650.333 590.667L649.667 590.333M653.667 590.333L654.333 590.667L653.667 590.333M669 590L670 591L669 590M672.667 590.333L673.333 590.667L672.667 590.333M693.667 590.333L694.333 590.667L693.667 590.333M696.667 590.333L697.333 590.667L696.667 590.333M713.667 590.333L714.333 590.667L713.667 590.333M716.667 590.333L717.333 590.667L716.667 590.333M743.667 590.333L744.333 590.667L743.667 590.333M746.667 590.333L747.333 590.667L746.667 590.333z"/>
<path style="fill:#7a7a7b; stroke:none;" d="M274 591L274 592L282 594L282 593L274 591M323.667 591.333L324.333 591.667L323.667 591.333z"/>
<path style="fill:#562d6d; stroke:none;" d="M502 591L503 592L502 591z"/>
<path style="fill:#635170; stroke:none;" d="M503 591L504 592L503 591M506 591L507 592L506 591M552 591L553 592L552 591z"/>
<path style="fill:#7a7a7b; stroke:none;" d="M318 593L318 594L323 593L318 593z"/>
<path style="fill:#635170; stroke:none;" d="M551 592L552 593L551 592M458 593L459 594L458 593M549.667 593.333L550.333 593.667L549.667 593.333z"/>
<path style="fill:#7a7a7b; stroke:none;" d="M282 594L282 595L285 595L282 594M315 594L315 595L318 595L315 594z"/>
<path style="fill:#635170; stroke:none;" d="M460 594L461 595L460 594M548 594L549 595L548 594z"/>
<path style="fill:#7a7a7b; stroke:none;" d="M280.667 595.333L281.333 595.667L280.667 595.333M286 595L286 596L290 596L286 595M311 595L311 596L314 596L311 595z"/>
<path style="fill:#635170; stroke:none;" d="M461 595L462 596L461 595M547 595L548 596L547 595z"/>
<path style="fill:#7a7a7b; stroke:none;" d="M282.667 596.333L283.333 596.667L282.667 596.333M291 596L291 597L310 597L291 596z"/>
<path style="fill:#635170; stroke:none;" d="M462 596L463 597L462 596M545 596L546 597L545 596z"/>
<path style="fill:#7a7a7b; stroke:none;" d="M284.667 597.333L285.333 597.667L284.667 597.333z"/>
<path style="fill:#635170; stroke:none;" d="M464 597L465 598L464 597M543.667 597.333L544.333 597.667L543.667 597.333z"/>
<path style="fill:#7a7a7b; stroke:none;" d="M286.667 598.333L287.333 598.667L286.667 598.333z"/>
<path style="fill:#635170; stroke:none;" d="M465.667 598.333L466.333 598.667L465.667 598.333M542 598L543 599L542 598z"/>
<path style="fill:#7a7a7b; stroke:none;" d="M288.667 599.333L289.333 599.667L288.667 599.333z"/>
<path style="fill:#635170; stroke:none;" d="M467 599L468 600L467 599M540 599L541 600L540 599z"/>
<path style="fill:#7a7a7b; stroke:none;" d="M290.667 600.333L291.333 600.667L290.667 600.333z"/>
<path style="fill:#635170; stroke:none;" d="M469 600L470 601L469 600M538 600L539 601L538 600z"/>
<path style="fill:#7a7a7b; stroke:none;" d="M292.667 601.333L293.333 601.667L292.667 601.333z"/>
<path style="fill:#635170; stroke:none;" d="M470.667 601.333L471.333 601.667L470.667 601.333M536 601L537 602L536 601z"/>
<path style="fill:#7a7a7b; stroke:none;" d="M294 602L294 603L297 603L294 602z"/>
<path style="fill:#635170; stroke:none;" d="M472.667 602.333L473.333 602.667L472.667 602.333M533.667 602.333L534.333 602.667L533.667 602.333M475 603L476 604L475 603M531.667 603.333L532.333 603.667L531.667 603.333M477.667 604.333L478.333 604.667L477.667 604.333M528.667 604.333L529.333 604.667L528.667 604.333M479.667 605.333L480.333 605.667L479.667 605.333M525.667 605.333L526.333 605.667L525.667 605.333M483 606L483 607L486 607L483 606M521 606L521 607L524 607L521 606M487 607L487 608L492 608L487 607M516 607L516 608L520 608L516 607M495 608L495 609L501 609L495 608M508 608L508 609L513 609L508 608z"/>
</svg>
