<?xml version="1.0" standalone="yes"?>
<svg xmlns="http://www.w3.org/2000/svg" width="1024" height="1024">
<path style="fill:#7f7f7f; stroke:none;" d="M0 0L0 1024L1024 1024L1024 0L0 0z"/>
<path style="fill:#c35571; stroke:none;" d="M313 424L313 425L331 425L313 424M470 424L470 425L491 425L470 424M635 424L635 425L638 425L635 424z"/>
<path style="fill:#891c51; stroke:none;" d="M525 440L530 446L492 446L510.829 465L538 503L561 479C563.045 485.134 552.355 497.248 549 503C547.07 506.308 545.139 510.535 543 510C542.366 519.207 532.037 530.442 527 538C517.234 552.654 501.978 577.223 484 582.504C477.875 584.303 473.355 577.264 467 578.627C457.399 580.687 450.152 585.878 440 584C463.54 612.483 510.411 596.559 533 576.714C567.857 546.09 583.924 499.046 613.439 464C630.839 443.341 652.367 428.222 680 437C675.384 432.521 668.039 430.345 662 428.333C633.629 418.884 607.305 429.234 587.015 450C580.695 456.468 575.245 463.737 569.884 471C568.364 473.059 566.012 477.944 562.997 477.944C559.149 477.944 554.737 469.67 552.6 467C544.86 457.325 535.841 446.266 525 440z"/>
<path style="fill:#c35571; stroke:none;" d="M641 424L641 425L645 425L641 424M308 425L308 426L312 426L308 425z"/>
<path style="fill:#e91e69; stroke:none;" d="M281 436L281 437C326.977 424.075 353.974 469.351 376 502C381.439 497.84 396.938 484.161 396.973 477C396.996 472.237 390.752 466.44 387.916 463C378.098 451.091 366.87 439.386 353 432.259C329.056 419.957 304.275 424.971 281 436z"/>
<path style="fill:#c35571; stroke:none;" d="M333 425L333 426L337 426L333 425M465 425L465 426L469 426L465 425z"/>
<path style="fill:#e91e69; stroke:none;" d="M283 587L283 588C293.667 592.435 304.287 597.104 316 597.911C377.795 602.166 406.53 530.726 435 488C449.662 465.996 468.012 437.288 497 434.174C505.518 433.258 512.929 435.842 521 438C496.833 411.841 450.649 426.339 429 447.039C399.808 474.953 382.868 512.517 359.709 545C339.84 572.868 318.114 591.461 283 587z"/>
<path style="fill:#c35571; stroke:none;" d="M492 425L492 426L497 426L492 425M628 425L629 426L628 425M651 425L652 426L651 425M304.667 426.333L305.333 426.667L304.667 426.333M338.667 426.333L339.333 426.667L338.667 426.333M462.667 426.333L463.333 426.667L462.667 426.333M498.667 426.333L499.333 426.667L498.667 426.333M623 426L624 427L623 426M656 426L657 427L656 426M300 427L300 428L303 428L300 427M341.667 427.333L342.333 427.667L341.667 427.333M459.667 427.333L460.333 427.667L459.667 427.333M501.667 427.333L502.333 427.667L501.667 427.333M620 427L621 428L620 427M659 427L660 428L659 427M297.667 428.333L298.333 428.667L297.667 428.333M344.667 428.333L345.333 428.667L344.667 428.333M456.667 428.333L457.333 428.667L456.667 428.333M504.667 428.333L505.333 428.667L504.667 428.333M662 428L663 429L662 428M294 429L294 430L297 430L294 429M347.667 429.333L348.333 429.667L347.667 429.333M454 429L455 430L454 429M507.667 429.333L508.333 429.667L507.667 429.333M615 429L616 430L615 429M665 429L666 430L665 429M292.667 430.333L293.333 430.667L292.667 430.333M349.667 430.333L350.333 430.667L349.667 430.333M452 430L453 431L452 430M509.667 430.333L510.333 430.667L509.667 430.333M290 431L291 432L290 431M351.667 431.333L352.333 431.667L351.667 431.333M450 431L451 432L450 431M511.667 431.333L512.333 431.667L511.667 431.333M611 431L612 432L611 431M670 431L671 432L670 431M287.667 432.333L288.333 432.667L287.667 432.333M353.667 432.333L354.333 432.667L353.667 432.333M448 432L449 433L448 432M513.667 432.333L514.333 432.667L513.667 432.333M609 432L610 433L609 432M672 432L673 433L672 432M285.667 433.333L286.333 433.667L285.667 433.333M355 433L356 434L355 433M446 433L447 434L446 433M515 433L516 434L515 433M674 433L675 434L674 433M283.667 434.333L284.333 434.667L283.667 434.333M291 434L291 435L304 435L291 434M357 434L358 435L357 434M444.667 434.333L445.333 434.667L444.667 434.333z"/>
<path style="fill:#891c51; stroke:none;" d="M494 434L494 435L497 435L494 434z"/>
<path style="fill:#680a3c; stroke:none;" d="M481 439L481 440L494 446.582L530 446C521.278 429.829 494.715 433.71 481 439z"/>
<path style="fill:#891c51; stroke:none;" d="M505 434L505 435L509 435L505 434z"/>
<path style="fill:#c35571; stroke:none;" d="M517 434L518 435L517 434M655 434L656 435L655 434M670 434L671 435L670 434M281 435L282 436L281 435M286 435L286 436L289 436L286 435M307.667 435.333L308.333 435.667L307.667 435.333M358 435L359 436L358 435M443 435L444 436L443 435z"/>
<path style="fill:#891c51; stroke:none;" d="M490 435L491 436L490 435M512 435L513 436L512 435z"/>
<path style="fill:#c35571; stroke:none;" d="M518 435L519 436L518 435M604 435L605 436L604 435M675 435L676 436L675 435M276 438L276 439L281 436L276 438M282 436L282 437L285 437L282 436M311.667 436.333L312.333 436.667L311.667 436.333M360 436L361 437L360 436M441.667 436.333L442.333 436.667L441.667 436.333z"/>
<path style="fill:#891c51; stroke:none;" d="M487 436L488 437L487 436M515.667 436.333L516.333 436.667L515.667 436.333z"/>
<path style="fill:#c35571; stroke:none;" d="M520 436L521 437L520 436M678 436L679 437L678 436M680 436L681 437L680 436M314.667 437.333L315.333 437.667L314.667 437.333M361 437L362 438L361 437M440 437L441 438L440 437z"/>
<path style="fill:#891c51; stroke:none;" d="M484 437L485 438L484 437M518 437L519 438L518 437z"/>
<path style="fill:#c35571; stroke:none;" d="M521 437L521 438L525 440L521 437M317 438L318 439L317 438M363 438L364 439L363 438M439 438L440 439L439 438z"/>
<path style="fill:#891c51; stroke:none;" d="M482 438L483 439L482 438M521.667 438.333L522.333 438.667L521.667 438.333z"/>
<path style="fill:#c35571; stroke:none;" d="M319 439L320 440L319 439M364 439L365 440L364 439M437 439L438 440L437 439M479 439L476 441L476 442L480 440L479 439z"/>
<path style="fill:#891c51; stroke:none;" d="M480 439L480 440L486 443L486 442L480 439M523 439L524 440L523 439z"/>
<path style="fill:#c35571; stroke:none;" d="M321 440L322 441L321 440M365 440L366 441L365 440M436 440L437 441L436 440z"/>
<path style="fill:#7f7f7f; stroke:none;" d="M479 440.862C473.075 441.745 467.065 448.045 463 452.015C450.723 464.005 440.833 478.465 431.808 493C428.803 497.839 421.293 506.035 421.774 512C422.115 516.229 426.212 520.554 428.414 524C434.239 533.119 439.979 542.338 446.475 551C453.628 560.537 461.57 570.087 471 577.483C474.14 579.946 478.706 583.955 483 583.218C489.001 582.186 495.7 575.895 500 571.91C512.828 560.022 522.44 545.504 531.997 531C535.184 526.163 543.418 517.038 542.88 511C542.535 507.136 538.79 503.19 536.808 500C531.006 490.661 524.602 481.695 517.88 473C510.342 463.248 502.022 453.773 492 446.49C488.612 444.028 483.452 440.198 479 440.862z"/>
<path style="fill:#c35571; stroke:none;" d="M323 441L324 442L323 441M367 441L368 442L367 441M435 441L436 442L435 441M596 441L597 442L596 441M637 441L638 442L637 441M324.667 442.333L325.333 442.667L324.667 442.333M368 442L369 443L368 442M434 442L435 443L434 442M474 442L475 443L474 442M326 443L327 444L326 443M369 443L370 444L369 443M432 443L433 444L432 443M473 443L474 444L473 443z"/>
<path style="fill:#891c51; stroke:none;" d="M487 443L488 444L487 443z"/>
<path style="fill:#c35571; stroke:none;" d="M328 444L329 445L328 444M370 444L371 445L370 444M431 444L432 445L431 444M471 444L472 445L471 444z"/>
<path style="fill:#891c51; stroke:none;" d="M489 444L490 445L489 444z"/>
<path style="fill:#c35571; stroke:none;" d="M329 445L330 446L329 445M371 445L372 446L371 445M430 445L431 446L430 445M470 445L471 446L470 445z"/>
<path style="fill:#891c51; stroke:none;" d="M490 445L491 446L490 445z"/>
<path style="fill:#c35571; stroke:none;" d="M330.667 446.333L331.333 446.667L330.667 446.333M372 446L373 447L372 446M429 446L430 447L429 446M469 446L470 447L469 446M332 447L333 448L332 447M373 447L374 448L373 447M428 447L429 448L428 447M467 447L468 448L467 447M333 448L334 449L333 448M374 448L375 449L374 448M427 448L428 449L427 448M466 448L467 449L466 448M535 448L536 449L535 448M334 449L335 450L334 449M375 449L376 450L375 449M426 449L427 450L426 449M465 449L466 450L465 449M536 449L537 450L536 449M335 450L336 451L335 450M376 450L377 451L376 450M425 450L426 451L425 450M464 450L465 451L464 450M537 450L538 451L537 450M336 451L337 452L336 451M377 451L378 452L377 451M424 451L425 452L424 451M463 451L464 452L463 451M378 452L379 453L378 452M423 452L424 453L423 452M462 452L463 453L462 452M623 452L624 453L623 452M339 453L340 454L339 453M379 453L380 454L379 453M422 453L423 454L422 453M461 453L462 454L461 453M540 453L541 454L540 453M622 453L623 454L622 453M340 454L341 455L340 454M380 454L381 455L380 454M421 454L422 455L421 454M460 454L461 455L460 454M541 454L542 455L541 454M621 454L622 455L621 454M341 455L342 456L341 455M381 455L382 456L381 455M420 455L421 456L420 455M459 455L460 456L459 455M542 455L543 456L542 455M342 456L343 457L342 456M382 456L383 457L382 456M458 456L459 457L458 456M543 456L544 457L543 456M581 456L582 457L581 456M383 457L384 458L383 457M419 457L420 458L419 457M457 457L458 458L457 457M580 457L581 458L580 457M384 458L385 459L384 458M418 458L419 459L418 458M456 458L457 459L456 458M417 459L418 460L417 459M455 459L456 460L455 459M345 460L346 461L345 460M385 460L386 461L385 460M416 460L417 461L416 460M346 461L347 462L346 461M386 461L387 462L386 461M415 461L416 462L415 461M454 461L455 462L454 461M347 462L348 463L347 462M387 462L388 463L387 462M414.333 462.667L414.667 463.333L414.333 462.667M453 462L454 463L453 462M576 462L577 463L576 462M348 463L349 464L348 463M388 463L389 464L388 463M452 463L453 464L452 463M549 463L550 464L549 463M613 463L614 464L613 463M349 464L350 465L349 464M389 464L390 465L389 464M413 464L414 465L413 464M451 464L452 465L451 464M350 465L351 466L350 465M412 465L413 466L412 465M450 465L451 466L450 465M511 465L512 466L511 465M390 466L391 467L390 466M411 466L412 467L411 466M512 466L513 467L512 466M573 466L574 467L573 466M351 467L352 468L351 467M391 467L392 468L391 467M449 467L450 468L449 467M352 468L353 469L352 468M392 468L393 469L392 468M410 468L411 469L410 468M448 468L449 469L448 468M553 468L554 469L553 468M609 468L610 469L609 468M353 469L354 470L353 469M409 469L410 470L409 469M447 469L448 470L447 469M354.333 470.667L354.667 471.333L354.333 470.667M393 470L394 471L393 470M408 470L409 471L408 470M570 470L571 471L570 470M394 471L395 472L394 471M446 471L447 472L446 471M516 471L517 472L516 471M355 472L356 473L355 472M395 472L396 473L395 472M407 472L408 473L407 472M445 472L446 473L445 472M606 472L607 473L606 472M356 473L357 474L356 473M406 473L407 474L406 473M444.333 473.667L444.667 474.333L444.333 473.667M557 473L558 474L557 473M357 474L358 475L357 474M396 474L397 475L396 474M405.333 474.667L405.667 475.333L405.333 474.667M567 474L568 475L567 474M397 475L398 476L397 475M443 475L444 476L443 475M519 475L520 476L519 475M358 476L359 477L358 476M404 476L405 477L404 476M442 476L443 477L442 476M359 477L360 478L359 477M398 477L400 479L398 477M403 477L404 478L403 477M565 477L566 478L565 477z"/>
<path style="fill:#891c51; stroke:none;" d="M397 478L376 502L376 503L382 511L382 508C387.709 504.869 404.158 482.091 397 478z"/>
<path style="fill:#c35571; stroke:none;" d="M441 478L442 479L441 478M360 479L361 480L360 479M402 479L403 480L402 479M440 479L441 480L440 479z"/>
<path style="fill:#680a3c; stroke:none;" d="M545 511C549.143 502.136 562.854 488.914 561 479C550.814 483.763 533.345 501.074 545 511z"/>
<path style="fill:#c35571; stroke:none;" d="M601 479L602 480L601 479M361 480L362 481L361 480M401 480L402 481L401 480M362.333 481.667L362.667 482.333L362.333 481.667M439 481L440 482L439 481M438 482L439 483L438 482M599 482L600 483L599 482M363 483L364 484L363 483M525 483L526 484L525 483M364 484L365 485L364 484M437 484L438 485L437 484M436 485L437 486L436 485M365 486L366 487L365 486M527 486L528 487L527 486M366 487L367 488L366 487M435 487L436 488L435 487M434 488L435 489L434 488M595 488L596 489L595 488M367 489L368 490L367 489M368 490L369 491L368 490M433 490L434 491L433 490M432 491L433 492L432 491M593 491L594 492L593 491M369 492L370 493L369 492M370.333 493.667L370.667 494.333L370.333 493.667M431 493L432 494L431 493M430.333 494.667L430.667 495.333L430.333 494.667M371 495L372 496L371 495M372.333 496.667L372.667 497.333L372.333 496.667M429 496L430 497L429 496M373 498L374 499L373 498M428 498L429 499L428 498M374.333 499.667L374.667 500.333L374.333 499.667M427 499L428 500L427 499M375 501L376 502L375 501M426 501L427 502L426 501M425.333 502.667L425.667 503.333L425.333 502.667M376 503L377 504L376 503M377 504L378 505L377 504M424 504L425 505L424 504z"/>
<path style="fill:#891c51; stroke:none;" d="M539 504L540 505L539 504M540 505L541 506L540 505z"/>
<path style="fill:#c35571; stroke:none;" d="M378 506L379 507L378 506z"/>
<path style="fill:#680a3c; stroke:none;" d="M383 506L384 507L383 506z"/>
<path style="fill:#c35571; stroke:none;" d="M423 506L424 507L423 506M422.333 507.667L422.667 508.333L422.333 507.667z"/>
<path style="fill:#891c51; stroke:none;" d="M541 507L542 508L541 507z"/>
<path style="fill:#680a3c; stroke:none;" d="M382 508L383 509L382 508z"/>
<path style="fill:#c35571; stroke:none;" d="M380 509L381 510L380 509M421 509L422 510L421 509M381 511L382 512L381 511z"/>
<path style="fill:#891c51; stroke:none;" d="M420 511L419 514C425.618 514 414.5 522.952 412 524L412 525L414 524L414 525L411 526C407.277 532.061 397.582 542.054 407 547C415.412 535.012 433.66 525.588 420 511z"/>
<path style="fill:#c35571; stroke:none;" d="M380 513L381 514L380 513z"/>
<path style="fill:#680a3c; stroke:none;" d="M420 513L414 524C417.707 521.379 422.755 517.782 420 513z"/>
<path style="fill:#c35571; stroke:none;" d="M379.333 514.667L379.667 515.333L379.333 514.667M541 515L542 516L541 515M578 515L579 516L578 515M378 516L379 517L378 516z"/>
<path style="fill:#891c51; stroke:none;" d="M417 516L418 517L417 516z"/>
<path style="fill:#c35571; stroke:none;" d="M377 518L378 519L377 518z"/>
<path style="fill:#891c51; stroke:none;" d="M416 518L417 519L416 518z"/>
<path style="fill:#c35571; stroke:none;" d="M376 519L377 520L376 519z"/>
<path style="fill:#891c51; stroke:none;" d="M415.333 519.667L415.667 520.333L415.333 519.667z"/>
<path style="fill:#c35571; stroke:none;" d="M425 519L426 520L425 519M426 520L427 521L426 520M538 520L539 521L538 520M375 521L376 522L375 521z"/>
<path style="fill:#891c51; stroke:none;" d="M414 521L415 522L414 521z"/>
<path style="fill:#c35571; stroke:none;" d="M374 522L375 523L374 522M427 522L428 523L427 522z"/>
<path style="fill:#e91e69; stroke:none;" d="M427 523C421.663 528.794 408.399 539.13 407.021 547C406.077 552.389 414.791 560.26 418.001 564C424.87 572.004 434.317 584.915 446 584.92C454.165 584.923 462.244 580.117 470 578L447.884 553L427 523z"/>
<path style="fill:#c35571; stroke:none;" d="M536 523L537 524L536 523M573 523L574 524L573 523M373 524L374 525L373 524z"/>
<path style="fill:#680a3c; stroke:none;" d="M413 524L412 527L413 524z"/>
<path style="fill:#c35571; stroke:none;" d="M428 524L429 525L428 524M372.333 525.667L372.667 526.333L372.333 525.667M429 525L430 526L429 525M571 526L572 527L571 526M371 527L372 528L371 527z"/>
<path style="fill:#680a3c; stroke:none;" d="M411 527L412 528L411 527z"/>
<path style="fill:#c35571; stroke:none;" d="M430 527L431 528L430 527M370.333 528.667L370.667 529.333L370.333 528.667M431.333 528.667L431.667 529.333L431.333 528.667z"/>
<path style="fill:#680a3c; stroke:none;" d="M410 529L411 530L410 529z"/>
<path style="fill:#c35571; stroke:none;" d="M369 530L370 531L369 530M432 530L433 531L432 530M433.333 531.667L433.667 532.333L433.333 531.667M531 531L532 532L531 531M368 532L369 533L368 532M367 533L368 534L367 533M434 533L435 534L434 533M435.333 534.667L435.667 535.333L435.333 534.667M529 534L530 535L529 534M366 535L367 536L366 535M365 536L366 537L365 536M436 536L437 537L436 536M527 537L528 538L527 537M635 537L636 538L635 537z"/>
<path style="fill:#891c51; stroke:none;" d="M642 575L642 559C642 555.586 643.723 533.748 635.429 538.288C631.175 540.616 633 550.998 633 555C633 569.551 629.033 581.999 647 582C651.017 582 660.387 583.672 662.914 579.61C666.748 573.445 644.949 575 642 575z"/>
<path style="fill:#c35571; stroke:none;" d="M638 537L639 538L638 537M673 537L674 538L673 537z"/>
<path style="fill:#891c51; stroke:none;" d="M674.104 537.971C669.409 539.17 670.343 553.029 670.09 557C669 574.125 677.775 585.898 696 581.467C709.658 578.146 707 561.676 707 551C707 547.638 708.411 537.867 702.95 537.867C698.143 537.867 699.001 544.913 699 548C698.996 555.946 701.29 578.676 687.001 575.384C675.77 572.797 679.014 556.419 679 548C678.995 544.969 679.485 536.596 674.104 537.971z"/>
<path style="fill:#c35571; stroke:none;" d="M676 537L677 538L676 537M701 537L702 538L701 537M704 537L705 538L704 537M728.667 537.333L729.333 537.667L728.667 537.333z"/>
<path style="fill:#891c51; stroke:none;" d="M730 537.454C720.467 538.724 711.115 549.016 720.228 557.606C724.607 561.735 730.776 561.552 735.985 563.854C738.73 565.068 741.741 567.592 740.593 570.957C735.296 586.473 722.175 564.018 717.6 567.086C714.044 569.471 717.282 575.623 719.344 577.775C723.993 582.627 732.771 582.863 739 581.66C747.718 579.975 754.044 568.766 747.566 561.213C743.607 556.596 737.344 556.158 732 554.235C729.484 553.33 725.144 551.394 725.631 548.029C726.086 544.89 730.214 543.171 732.996 543.503C737.741 544.07 740.558 551.725 744.892 551.079C749.957 550.324 746.844 543.29 744.772 541.279C741.194 537.805 734.775 536.817 730 537.454z"/>
<path style="fill:#c35571; stroke:none;" d="M735.667 537.333L736.333 537.667L735.667 537.333M364 538L365 539L364 538M437 538L438 539L437 538M594 538L595 539L594 538z"/>
<path style="fill:#891c51; stroke:none;" d="M595.228 538.742C591.689 540.396 592.018 544.703 592.001 548C591.954 556.939 591.482 566.079 592.044 574.999C592.236 578.049 593.646 582.821 597.787 581.338C603.91 579.145 598.764 569.443 602.603 565.603C608.327 559.88 618.803 567.412 623.821 557.957C632.936 540.78 607.25 533.126 595.228 538.742z"/>
<path style="fill:#c35571; stroke:none;" d="M615.667 538.333L616.333 538.667L615.667 538.333M671 538L672 539L671 538M724 538L725 539L724 538M740 538L741 539L740 538M363 539L364 540L363 539M438 539L439 540L438 539M633 539L634 540L633 539M678 539L679 540L678 539M706 539L707 540L706 539M362.333 540.667L362.667 541.333L362.333 540.667M592 540L593 541L592 540M620 540L621 541L620 540M670 540L670 554L671 554L670 540M439 541L440 542L439 541M641 541L642 542L641 541M698 541L698 566L699 566L698 541M719 541L720 542L719 541M361 542L362 543L361 542M400.667 542.333L401.333 542.667L400.667 542.333M440 542L441 543L440 542M360 543L361 544L360 543M402 543L403 544L402 543M523 543L524 544L523 543M623 543L624 544L623 543M729 543L730 544L729 543M399 544L400 545L399 544M441 544L442 545L441 544M601 544L602 545L601 544z"/>
<path style="fill:#7f7f7f; stroke:none;" d="M601 558C603.64 558 606.373 558.187 608.999 557.891C626.237 555.95 608.698 537.246 602.028 545.604C599.817 548.374 601 554.654 601 558z"/>
<path style="fill:#c35571; stroke:none;" d="M608.667 544.333L609.333 544.667L608.667 544.333M717 544L718 545L717 544M747 544L748 545L747 544M359 545L360 546L359 545M398 545L399 546L398 545M403 545L404 546L403 545M442 545L443 546L442 545M613 545L614 546L613 545M624 545L625 546L624 545M738 545L739 546L738 545M358 546L359 547L358 546M397.333 546.667L397.667 547.333L397.333 546.667M404 546L405 547L404 546M443.333 546.667L443.667 547.333L443.333 546.667M521 546L522 547L521 546M405 547L406 548L405 547M557 547L558 548L557 547M716.333 547.667L716.667 548.333L716.333 547.667M724 547L725 548L724 547M357 548L358 549L357 548M396 548L397 549L396 548M444 548L445 549L444 548M740 548L741 549L740 548M356 549L357 550L356 549M395 549L396 550L395 549M406 549L407 550L406 549M445 549L446 550L445 549M616 549L617 550L616 549M724 549L725 550L724 549M355 550L356 551L355 550M407 550L408 551L407 550M518 550L519 551L518 550M625 550L625 553L626 553L625 550M716 550L717 551L716 550M354.333 551.667L354.667 552.333L354.333 551.667M394 551L395 552L394 551M446 551L447 552L446 551M554 551L555 552L554 551M393 552L394 553L393 552M447 552L448 553L447 552M353 553L354 554L353 553M392 553L393 554L392 553M409 553L410 554L409 553M448 553L449 554L448 553M352 554L353 555L352 554M410 554L411 555L410 554M449.333 554.667L449.667 555.333L449.333 554.667M515 554L516 555L515 554M717 554L718 555L717 554M732 554L733 555L732 554M351 555L352 556L351 555M391 555L392 556L391 555M411.333 555.667L411.667 556.333L411.333 555.667M551 555L552 556L551 555M736 555L737 556L736 555M390 556L391 557L390 556M450 556L451 557L450 556M350 557L351 558L350 557M389 557L390 558L389 557M412 557L413 558L412 557M451 557L452 558L451 557M742 557L743 558L742 557M349 558L350 559L349 558M388.333 558.667L388.667 559.333L388.333 558.667M413 558L414 559L413 558M452 558L453 559L452 558M744 558L745 559L744 558M348 559L349 560L348 559M414 559L415 560L414 559M511 559L512 560L511 559M347 560L348 561L347 560M387 560L388 561L387 560M453 560L454 561L453 560M510 560L511 561L510 560M346 561L347 562L346 561M386 561L387 562L386 561M415 561L416 562L415 561M454 561L455 562L454 561M345 562L346 563L345 562M385 562L386 563L385 562M416 562L417 563L416 562M455 562L456 563L455 562M619 562L620 563L619 562M731 562L732 563L731 562M344 563L345 564L344 563M384 563L385 564L384 563M417 563L418 564L417 563M456 563L457 564L456 563M735 563L736 564L735 563M418 564L419 565L418 564M457 564L458 565L457 564M602 564L602 565L612 565L602 564M670 564L670 568L671 568L670 564M738 564L739 565L738 564M383 565L384 566L383 565M419 565L420 566L419 565M458 565L459 566L458 565M342 566L343 567L342 566M382 566L383 567L382 566M420 566L421 567L420 566M459 566L460 567L459 566M542 566L543 567L542 566M341 567L342 568L341 567M381 567L382 568L381 567M460 567L461 568L460 567M541 567L542 568L541 567M340 568L341 569L340 568M380 568L381 569L380 568M421 568L422 569L421 568M461 568L462 569L461 568M741 568L742 569L741 568M339 569L340 570L339 569M379 569L380 570L379 569M422 569L423 570L422 569M462 569L463 570L462 569M679 569L680 570L679 569M715.333 569.667L715.667 570.333L715.333 569.667M378 570L379 571L378 570M423 570L424 571L423 570M697 570L698 571L697 570M706 570L707 571L706 570M336 571L337 572L336 571M377 571L378 572L377 571M424 571L425 572L424 571M464 571L465 572L464 571M335 572L336 573L335 572M376 572L377 573L376 572M425 572L426 573L425 572M465 572L466 573L465 572M671 572L672 573L671 572M696 572L697 573L696 572M334 573L335 574L334 573M375 573L376 574L375 573M426 573L427 574L426 573M466 573L467 574L466 573M333 574L334 575L333 574M374 574L375 575L374 574M427 574L428 575L427 574M467 574L468 575L467 574M332 575L333 576L332 575M373 575L374 576L373 575M428 575L429 576L428 575M468 575L469 576L468 575M495 575L496 576L495 575M662 575L663 576L662 575M691 575L692 576L691 575M717 575L718 576L717 575M330 576L331 577L330 576M372 576L373 577L372 576M429 576L430 577L429 576M469 576L470 577L469 576M673 576L674 577L673 576M329 577L330 578L329 577M371 577L372 578L371 577M430 577L431 578L430 577M470 577L471 578L470 577M328 578L329 579L328 578M370 578L371 579L370 578M432 578L433 579L432 578M472 578L473 579L472 578M491 578L492 579L491 578M530 578L531 579L530 578M326 579L327 580L326 579M369 579L370 580L369 579M433 579L434 580L433 579M473 579L474 580L473 579M592 579L593 580L592 579M600 579L601 580L600 579M633 579L634 580L633 579M676 579L677 580L676 579M744 579L745 580L744 579M324.667 580.333L325.333 580.667L324.667 580.333M368 580L369 581L368 580M434 580L435 581L434 580M475 580L476 581L475 580M488 580L489 581L488 580M323 581L324 582L323 581M366 581L367 582L366 581M435 581L436 582L435 581M636 581L637 582L636 581M661 581L662 582L661 581M696 581L697 582L696 581M725 581L726 582L725 581M321 582L322 583L321 582M365 582L366 583L365 582M436 582L437 583L436 582M595.667 582.333L596.333 582.667L595.667 582.333M687 582L687 583L692 583L687 582M730 582L730 583L735 583L730 582M319 583L320 584L319 583M364 583L365 584L364 583M438 583L439 584L438 583z"/>
<path style="fill:#680a3c; stroke:none;" d="M464 587L464 588L480 585C475.116 581.811 469.054 585.356 464 587z"/>
<path style="fill:#c35571; stroke:none;" d="M276 584L276 585L285 587L276 584M316.667 584.333L317.333 584.667L316.667 584.333M362.667 584.333L363.333 584.667L362.667 584.333M439 584L440 585L439 584M314.667 585.333L315.333 585.667L314.667 585.333M361 585L362 586L361 585M521 585L522 586L521 585z"/>
<path style="fill:#e91e69; stroke:none;" d="M281 586L282 587L281 586z"/>
<path style="fill:#c35571; stroke:none;" d="M310 586L310 587L313 587L310 586M360 586L361 587L360 586M286 587L286 588L290 588L286 587M306 587L306 588L309 588L306 587M358 587L359 588L358 587M283.667 588.333L284.333 588.667L283.667 588.333M292 588L292 589L304 589L292 588M356.667 588.333L357.333 588.667L356.667 588.333M285.667 589.333L286.333 589.667L285.667 589.333M355 589L356 590L355 589M287.667 590.333L288.333 590.667L287.667 590.333M353 590L354 591L353 590M513 590L514 591L513 590M290 591L291 592L290 591M351 591L352 592L351 591M292.667 592.333L293.333 592.667L292.667 592.333M349 592L350 593L349 592M294 593L294 594L297 594L294 593M346.667 593.333L347.333 593.667L346.667 593.333M507 593L508 594L507 593M297 594L297 595L300 595L297 594M344.667 594.333L345.333 594.667L344.667 594.333M301.667 595.333L302.333 595.667L301.667 595.333M341.667 595.333L342.333 595.667L341.667 595.333M304 596L304 597L307 597L304 596M338.667 596.333L339.333 596.667L338.667 596.333M308 597L308 598L313 598L308 597M332 597L332 598L336 598L332 597M494 597L495 598L494 597M314 598L314 599L331 599L314 598M474 598L474 599L479 599L474 598M485.667 598.333L486.333 598.667L485.667 598.333z"/>
</svg>
