<svg xmlns="http://www.w3.org/2000/svg" viewBox="0 0 283.46 283.46"><defs><style>.cls-1{fill:#d2002e;}.cls-2{fill:#fff;}.cls-3{fill:#eee;}</style></defs><title>3sat</title><g id="Layer_2" data-name="Layer 2"><g id="ARD_ZDF" data-name="ARD &amp; ZDF"><g id="_3sat" data-name="3sat"><rect class="cls-1" width="283.46" height="283.46"/><g id="logo"><path class="cls-2" d="M65.82,174.07V161.38c5.83,2.77,9.7,4,13.42,4,7.29,0,12-3.79,12-9.7s-4.52-9.55-11.45-9.55H78V134h.8c6.78,0,11.16-3.28,11.16-8.6,0-4.74-4.37-8.24-10.13-8.24-3.94,0-7.8,1.17-13,3.72V108.67a55.36,55.36,0,0,1,10.86-3,52.69,52.69,0,0,1,6.05-.22H42.52v72.11H82.95a42.13,42.13,0,0,1-5.25-.22A57,57,0,0,1,65.82,174.07Z"/><path class="cls-2" d="M83.75,105.46a32.82,32.82,0,0,1,4.67.22c10.21,1.75,17.35,9,17.35,18.52,0,7.29-3.21,11.81-10.43,15.09,7.8,3.14,12,9,12,16.84,0,11.3-7.66,19.39-19.47,21.22a36.51,36.51,0,0,1-5,.22h31.68V105.46Z"/><path id="path8703" class="cls-3" d="M123,163.42c5.76,3.28,10.35,4.81,14.73,4.81,3.21,0,5.32-1.53,5.32-3.79s-1.39-3.28-7.58-5.69c-6.85-2.62-9.7-4.52-11.59-7.87a14.35,14.35,0,0,1-1.6-6.34c0-8.75,6.78-14.44,17.21-14.44A30.72,30.72,0,0,1,154,134.26v9.48c-6.2-3.28-10.57-4.59-15.09-4.59-3.57,0-5.61,1.24-5.61,3.35,0,1.9,1.39,2.84,6.42,4.74,9.26,3.43,12.83,6,14.95,10.43a12.74,12.74,0,0,1,1.09,5.4c0,8.68-7.07,14.95-16.84,14.95-4.81,0-8.89-1-15.09-3.5l-.87-.36V163.42Z"/><path id="path8705" class="cls-3" d="M185.46,165.25c-3.21,2.48-4.37,3.06-6.56,3.06-3.14,0-5-1.9-5-5,0-3.72,2.19-5.4,11.59-9.19Zm20,0c-1.9,1.31-3.28,1.9-4.23,1.9-1.17,0-1.39-.58-1.39-5V145.85c0-4.16-.07-5.47-.73-7.36-1.68-5.47-7.29-8.38-16.33-8.38-7.07,0-12.47,1.75-18.81,6.27v10.5c6.12-5,10.72-7,15.6-7,4.23,0,5.91,1.9,5.91,6.27v1.6c-4.3,1.39-5.83,2-8.82,3.14-11.16,4.37-15.75,9-15.75,15.75A11.54,11.54,0,0,0,172.7,178c4.88,0,8.46-1.82,13.34-6.49.73,4.37,3.14,6.42,7.58,6.42,3.28,0,6.71-1.31,11.81-4.3v-8.38Z"/><path id="path8707" class="cls-3" d="M240.94,174.14c-5,2.7-8.75,3.86-13,3.86-6.85,0-12.69-3.79-14.36-9.41-.8-2.55-.8-3.06-.8-10V140.09h-6.56v-1.82l18.45-21.58h2.48V131h13.2v9.11h-13.2v16c0,9,.87,10.86,5.32,10.86,2.19,0,4.88-1.09,8.46-3.43Z"/></g></g></g></g></svg>