<svg xmlns="http://www.w3.org/2000/svg" viewBox="0 0 283.46 283.46"><defs><style>.cls-1{fill:#e40a22;}.cls-2{fill:#fff;}</style></defs><g id="Layer_2" data-name="Layer 2"><g id="ARD_ZDF" data-name="ARD &amp; ZDF"><g id="_3sat" data-name="3sat"><rect class="cls-1" width="283.46" height="283.46"/><g id="logo"><path class="cls-2" d="M171.71,133.85a17,17,0,0,1-7.71-3.74l-1.56-1.37,4.15-4.18,1.17,1a11.28,11.28,0,0,0,7.23,2.84c2.53,0,3.95-.61,4.63-2,.89-1.85-.52-3.68-3.74-4.85-7.56-2.75-9.15-3.71-10.35-6.3a7.57,7.57,0,0,1,3.9-10.41,15.55,15.55,0,0,1,15.3,1.87l2.12,1.59-1.95,2a19.46,19.46,0,0,1-2.13,2,13.12,13.12,0,0,1-1.83-1.24c-3.54-2.67-8.05-2.73-9-.14-.68,1.79.65,3,4.82,4.37,7,2.32,9.54,4.46,10.23,8.73a8.81,8.81,0,0,1-3.45,7.91c-2.86,2-7.59,2.76-11.79,2Zm26.57.12c-3-.54-5.54-2.25-6.56-4.49a10,10,0,0,1,.15-7.14c1.74-3.72,6.6-6,14.94-7.09l3.11-.4-.08-1.18a4.63,4.63,0,0,0-2.26-3.73,5.83,5.83,0,0,0-3.4-.6,8.44,8.44,0,0,0-6,2.1l-1.39,1.07-4-4,1.24-1.09a16.68,16.68,0,0,1,12.8-3.57c4.64.71,7.68,2.88,9.14,6.54.66,1.65.7,2.22.8,12.36l.11,10.63h-6.56v-2.88l-1,.82a12.1,12.1,0,0,1-5.46,2.54,12.63,12.63,0,0,1-5.63.13Zm7.7-6.07a7.14,7.14,0,0,0,4.09-6.94c0-1.48.05-1.47-3.82-.79-4.83.84-7.12,2.08-8,4.31a3.11,3.11,0,0,0,1.34,3.62c1.48.91,4.3.82,6.35-.2ZM230.37,134a8.39,8.39,0,0,1-6.27-4.47l-.84-1.59-.09-13.64-.09-13.63,3.19-3.2a29.57,29.57,0,0,1,3.51-3.21c0,.15.15,2.31.15,5.13v5.12h8.71l-.09,2.71-.09,2.72-8.53.17v16.17l.91.9a2.62,2.62,0,0,0,2.36.91,4.85,4.85,0,0,0,2.54-.66l1.08-.67,4.12,4.16-.93.79a12.17,12.17,0,0,1-9.64,2.29Z"/><path class="cls-2" d="M42.52,86.19H153.6V197.27H42.52Z"/><path class="cls-1" d="M93.1,180l-2.64-.46A33.15,33.15,0,0,1,69.68,166l-1.16-1.63,5.37-5.5c3-3,5.46-5.54,5.58-5.6.09.11.55.77,1.37,2,3.62,6.47,10.08,10.12,17.07,9.64,8.58-.59,14.18-6.67,13.74-14.94a12.69,12.69,0,0,0-3.66-8.32l-1.66-1.81,11-10.95,1.14,1.08a41,41,0,0,1,5.83,7.52A28.57,28.57,0,0,1,123.9,165a34.46,34.46,0,0,1-10.48,10.58A30,30,0,0,1,97.9,180c-2.21.07-4.38.06-4.8,0ZM93,139.63a62.84,62.84,0,0,1-4.88-5.2c0-.39,29.4-29.8,29.6-29.61l5.15,5.09,5,5-14.82,14.83c-8.16,8.16-14.9,14.83-15,14.83s-2.36-2.2-5-4.89ZM76.34,110.55l-7-7H115l-14,14H83.32Z"/></g></g></g></g></svg>