<svg xmlns="http://www.w3.org/2000/svg" viewBox="0 0 283.46 283.46"><defs><style>.cls-1{fill:#d2002e;}.cls-2{fill:#fff;}.cls-3{fill:#eee;}</style></defs><title>3sat</title><g id="Layer_2" data-name="Layer 2"><g id="ARD_ZDF" data-name="ARD &amp; ZDF"><g id="_3sat" data-name="3sat"><rect class="cls-1" width="283.46" height="283.46"/><g id="logo"><path class="cls-2" d="M65.82,174.07V161.38c5.83,2.77,9.69,4,13.41,4,7.29,0,12-3.79,12-9.7s-4.52-9.55-11.45-9.55H78V134h.8c6.78,0,11.16-3.28,11.16-8.6,0-4.74-4.38-8.24-10.14-8.24-3.93,0-7.8,1.16-13,3.72V108.67a55,55,0,0,1,10.86-3,52.39,52.39,0,0,1,6-.22H42.52v72.11H83a41.91,41.91,0,0,1-5.25-.22A56.83,56.83,0,0,1,65.82,174.07Z"/><path class="cls-2" d="M83.75,105.46a32.63,32.63,0,0,1,4.67.22c10.2,1.75,17.35,9,17.35,18.52,0,7.29-3.21,11.81-10.43,15.09,7.81,3.13,12,9,12,16.84,0,11.3-7.65,19.4-19.46,21.22a36.39,36.39,0,0,1-5,.22h31.68V105.46Z"/><path id="path8703" class="cls-3" d="M123,163.42c5.76,3.28,10.35,4.81,14.72,4.81,3.21,0,5.33-1.53,5.33-3.79s-1.39-3.28-7.59-5.68c-6.85-2.63-9.69-4.52-11.59-7.88a14.35,14.35,0,0,1-1.6-6.34c0-8.75,6.78-14.44,17.2-14.44A30.76,30.76,0,0,1,154,134.26v9.48c-6.2-3.28-10.58-4.6-15.1-4.6-3.57,0-5.61,1.24-5.61,3.36,0,1.89,1.39,2.84,6.42,4.74,9.26,3.42,12.83,6,14.94,10.42a12.77,12.77,0,0,1,1.1,5.4c0,8.67-7.08,14.94-16.85,14.94-4.81,0-8.89-1-15.09-3.49l-.87-.37V163.42Z"/><path id="path8705" class="cls-3" d="M185.46,165.25c-3.21,2.47-4.37,3.06-6.56,3.06-3.14,0-5-1.9-5-5,0-3.72,2.19-5.4,11.59-9.19Zm20,0c-1.9,1.31-3.28,1.89-4.23,1.89-1.17,0-1.39-.58-1.39-5V145.85c0-4.15-.07-5.47-.73-7.36-1.67-5.47-7.29-8.39-16.33-8.39-7.07,0-12.46,1.75-18.81,6.27v10.5c6.13-5,10.72-7,15.6-7,4.23,0,5.91,1.9,5.91,6.27v1.61c-4.3,1.38-5.83,2-8.82,3.13-11.16,4.38-15.75,9-15.75,15.75A11.53,11.53,0,0,0,172.7,178c4.89,0,8.46-1.82,13.34-6.48.73,4.37,3.14,6.41,7.59,6.41,3.28,0,6.7-1.31,11.81-4.3v-8.38Z"/><path id="path8707" class="cls-3" d="M240.94,174.14c-4.95,2.7-8.74,3.86-13,3.86-6.86,0-12.69-3.79-14.37-9.4-.8-2.55-.8-3.06-.8-10V140.09h-6.56v-1.82l18.45-21.58h2.47V131h13.2v9.11h-13.2v16c0,9,.88,10.86,5.33,10.86,2.18,0,4.88-1.09,8.45-3.42Z"/></g></g></g></g></svg>