<svg xmlns="http://www.w3.org/2000/svg" viewBox="0 0 283.46 283.46"><defs><style>.cls-1{fill:#f5b02f;}.cls-2{fill:#fff;}</style></defs><title>anixe</title><g id="Layer_2" data-name="Layer 2"><g id="Others"><g id="anixe"><rect class="cls-1" width="283.46" height="283.46"/><g id="logo"><path id="path2452" class="cls-2" d="M153.35,115c-6.68,0-13.19.29-19.58.85C92.7,119.38,58.55,134,42.52,153.74c24.4-22.4,69.93-37.46,122.1-37.46,6.09,0,12.14.2,18.07.6-3.26-.43-6.51-.79-9.82-1.07C166.48,115.26,160,115,153.35,115Z"/><path id="path2450" class="cls-2" d="M240.94,129.72l-.18.16c-24.45,22.3-69.87,37.32-121.91,37.32-6.1,0-12.15-.22-18.07-.62,6.56.88,13.3,1.48,20.21,1.74,3,.12,6.05.18,9.13.18s6.15-.06,9.23-.18c45.48-1.84,84-17.1,101.41-38.38Z"/><path id="path2444" class="cls-2" d="M117.16,132.52l-2.59,20.21h7.27l1.07-10.52,5,10.52h7.18l2.52-20.21h-7.18L129.33,143a68.18,68.18,0,0,0-4.9-10.43Z"/><path id="path2442" class="cls-2" d="M140,132.52l-2.6,20.21h7.49l2.45-20.21Z"/><path id="path2440" class="cls-2" d="M148.07,132.52l5.36,9.34-8.11,10.87h8.33l3.37-5,2.83,5h7.58l-5.9-10.51,7.42-9.7h-8.33l-2.52,3.92L156,132.52Z"/><path id="path2438" class="cls-2" d="M170.49,132.52,168,152.73h13.3l.76-5.5h-6.2l.32-2.24h5.43l.61-5h-5.43l.3-2.25h6l.69-5.22Z"/><path id="path2446" class="cls-2" d="M101.49,132.52l-9.33,20.21H100L101,150h5l.23,2.69h7.19l-2.83-20.21Zm3.67,5.88.54,7.07h-2.91a42.68,42.68,0,0,1,1.53-4.42C104.71,140,104.93,139.14,105.16,138.4Z"/></g></g></g></g></svg>