<svg xmlns="http://www.w3.org/2000/svg" viewBox="0 0 283.46 283.46"><defs><style>.cls-1{fill:#db502b;}.cls-2{fill:#001a4b;}.cls-3{fill:#fff;}</style></defs><title>ardalpha</title><g id="Layer_2" data-name="Layer 2"><g id="ARD"><g id="ardalpha"><rect class="cls-1" width="283.46" height="283.46"/><g id="logo"><path id="text2987" class="cls-2" d="M143.49,162.13V176h1.41V162.13Zm9.51,0v4.41c-.65-.06-1.18-.08-1.73-.08-3,0-4.88,1.88-4.88,5.25,0,2.77,1.15,4.49,3.49,4.49a3.47,3.47,0,0,0,3.27-2.26l0,0A12.89,12.89,0,0,0,153,176h1.41V162.13Zm40.12,0V176h1.42v-5l3.74,5h1.85l-4.06-5.15,3.77-4.31H198.1l-3.56,4.26v-8.69Zm35.2,0V176h1.41V162.13Zm-88.13.79a1,1,0,0,0-.79,1,1,1,0,0,0,1,1,1,1,0,0,0,1-1,1,1,0,0,0-1-1Zm-53,.17c-1.48,0-2.68,0-3.69.08V176H86v-5.3H86l3.59,5.3H92.7l-3.09-4.31c-.33-.43-.68-.93-1-1.41a3.59,3.59,0,0,0,3.27-3.59c0-2.63-1.82-3.62-4.66-3.62Zm11.39,0c-1.58,0-3.15.07-4.16.1V176c1.09,0,2.26.1,3.59.1,4.19,0,7.09-2.3,7.09-6.71s-2.54-6.3-6.52-6.3Zm35,0c-1.55,0-2.72,0-3.59,0V176c1.1,0,2.31.08,3.09.08,4.06,0,4.91-2.48,4.91-3.87a2.93,2.93,0,0,0-2.73-3v0a3.21,3.21,0,0,0,2.43-3c0-1.87-1.31-3-4.11-3Zm-58.83,0L70.21,176h2.51l.89-2.62h4.85l.92,2.62H82.1l-4.58-12.85Zm58.55,1.14c2.27,0,2.85.88,2.85,2.1,0,1.53-1.18,2.43-3.47,2.43-.49,0-.83,0-1.23,0v-4.49c.55,0,1.23,0,1.85,0Zm-46.34.81c1.56,0,2.32.6,2.32,1.84s-.91,1.95-2.4,1.95c-.38,0-.72,0-.89,0v-3.72a8.64,8.64,0,0,1,1,0Zm11.46,0c2.94,0,4,1.65,4,4.41,0,3-1.75,4.41-4.16,4.41a8.85,8.85,0,0,1-1.37-.1v-8.67c.4,0,.94-.05,1.51-.05ZM76,166h0a16.5,16.5,0,0,0,.59,2l1.19,3.37H74.24l1.17-3.27A22,22,0,0,0,76,166Zm95.33.34a3.47,3.47,0,0,0-3.36,2.31h-.05a16.12,16.12,0,0,0,.15-2.11h-1.42V176h1.44v-4.55c0-2.25,1.2-3.92,2.9-3.92,1.37,0,1.76.87,1.76,2.36V176h1.43v-6.61c0-1.67-.67-3-2.85-3Zm43,0a3.52,3.52,0,0,0-3.4,2.31h0a16.09,16.09,0,0,0,.17-2.11h-1.41V176H211v-4.55c0-2.25,1.2-3.92,2.9-3.92,1.37,0,1.78.87,1.78,2.36V176h1.41v-6.61c0-1.67-.65-3-2.82-3Zm-34.26,0c-2.57,0-4.11,1.68-4.11,3.66a3,3,0,0,0,1.41,2.75,1.7,1.7,0,0,0-1,1.54,1.46,1.46,0,0,0,.94,1.36,2.86,2.86,0,0,0-1.63,2.53c0,1.81,1.54,2.77,3.94,2.77,2.91,0,5-1.49,5-3.49,0-1.66-1.12-2.65-3.17-2.65h-1.86c-1.18,0-1.71-.27-1.71-.82a.92.92,0,0,1,.69-.84,6.67,6.67,0,0,0,1.32.12c2.72,0,4.11-1.54,4.11-3.56a2.62,2.62,0,0,0-.92-2.08h1.71v-1.12h-3.22a6.17,6.17,0,0,0-1.44-.17Zm9,0c-2.4,0-3.71,1.19-3.71,2.77,0,3.37,4.63,2,4.63,4.24,0,1-1,1.61-2.33,1.61a8.28,8.28,0,0,1-2.13-.32l0,1.31a11,11,0,0,0,2,.2c2.48,0,3.94-1.32,3.94-3,0-3.22-4.6-1.92-4.6-4.19,0-.93.66-1.48,2.05-1.48a6.41,6.41,0,0,1,2,.32l0-1.24a10.5,10.5,0,0,0-1.84-.22Zm14.84,0a8,8,0,0,0-3.27.72l.13,1.24a5.66,5.66,0,0,1,2.89-.82c1.64,0,2.16.8,2.16,2.23v.79c-3.7,0-5.75,1.36-5.75,3.34a2.27,2.27,0,0,0,2.58,2.31,3.45,3.45,0,0,0,3.29-2.16H206a13.27,13.27,0,0,0-.1,2h1.41c0-.83-.05-1.89-.05-2.82v-3.71c0-1.8-.73-3.1-3.34-3.1Zm18.68,0a7.93,7.93,0,0,0-3.27.72l.12,1.24a5.69,5.69,0,0,1,2.9-.82c1.64,0,2.15.8,2.15,2.23v.79c-3.69,0-5.74,1.36-5.74,3.34,0,1.51,1.09,2.31,2.6,2.31a3.45,3.45,0,0,0,3.29-2.16h0a12.05,12.05,0,0,0-.1,2H226c0-.83,0-1.89,0-2.82v-3.71c0-1.8-.76-3.1-3.36-3.1Zm-82.92.17V176h1.43v-9.46Zm17.14,0v6.62c0,1.67.67,3,2.84,3a3.52,3.52,0,0,0,3.4-2.3l0,0a15.66,15.66,0,0,0-.15,2.08h1.41v-9.46h-1.43v4.56c0,2.25-1.18,3.91-2.87,3.91-1.38,0-1.79-.84-1.79-2.33v-6.14Zm23.2.94a2.38,2.38,0,1,1-.07,4.76c-1.6,0-2.53-.81-2.53-2.35a2.36,2.36,0,0,1,2.6-2.41Zm-28.85.08a8.13,8.13,0,0,1,1.86.22v3.34c0,1.68-.94,3.89-2.83,3.89-1.56,0-2.28-1.28-2.28-3.41,0-2.86,1.31-4,3.25-4Zm-18.48,2.35c2.12,0,3.79.54,3.79,2.35,0,1.51-1,2.63-3.27,2.63a12,12,0,0,1-1.76-.12V170c.31,0,1,0,1.24,0Zm73.14,1.66v.15c0,1.64-1.1,3.29-2.77,3.29a1.4,1.4,0,0,1-1.56-1.41C201.46,172.71,202.23,171.59,205.79,171.59Zm18.68,0v.15c0,1.64-1.1,3.29-2.78,3.29a1.38,1.38,0,0,1-1.53-1.41C220.16,172.71,220.91,171.59,224.47,171.59Zm-46.07,4.48a6.13,6.13,0,0,0,.62,0H181c1.45,0,2.15.6,2.15,1.61,0,1.25-1.21,2.13-3.29,2.13-1.58,0-2.75-.64-2.75-1.86a2.2,2.2,0,0,1,1.34-1.91Z"/><path id="_46617464" data-name=" 46617464" class="cls-3" d="M229.23,102.46a11.74,11.74,0,1,0,11.71,11.72,11.73,11.73,0,0,0-11.71-11.72Zm0,1.74a10,10,0,1,1-10,10A10,10,0,0,1,229.23,104.2Zm-133,2.89a.8.8,0,0,0-.8.8v49.78a.79.79,0,0,0,.8.79h7a.79.79,0,0,0,.79-.79V107.89a.79.79,0,0,0-.79-.8Zm53.62,0a.79.79,0,0,0-.79.79v49.76a.79.79,0,0,0,.79.79h7.06a.79.79,0,0,0,.79-.79V142.29c0-5.88,3.44-10.87,7.83-10.87,3.17,0,4.11,2.08,4.11,5.59l0,20.66a.79.79,0,0,0,.79.79h7a.79.79,0,0,0,.79-.79V134.93c0-5.87-2.43-10.72-10-10.72-5.19,0-9,2.49-11,6.26l-.16-.07a32.27,32.27,0,0,0,.62-6.81V107.91a.79.79,0,0,0-.79-.79h-7.05Zm84.14.07-11.84,4.26v2.93l3.92-1.42v8.82L234,119V107.19ZM62.91,123c-6.49,0-12.71,6.41-16,11.74A33.79,33.79,0,0,0,42.7,146c-.59,4.25.1,8.86,4.36,11.27,6.45,3.67,13.32.49,18.13-3.19.43-.31.87-.7,1.36-1.12a33.62,33.62,0,0,0,3.1-3l.1-.12c1-1.06,2-2.2,3.1-3.4l.12.25C76.47,153,81.08,159,88.1,158.46c.85-.14.83-.87.84-1.78,0-1.77,0-5.75,0-5.75,0-.63-.46-1-1.28-1a4.68,4.68,0,0,1-1.54-.25c-1.87-.91-2.76-2.6-4.28-5.07-1-1.63-2-3.41-2.93-5.25,2-2.44,9.76-12.26,9.76-12.26,2.19-3,1-3.2-1-3.2l-6.32,0a2.45,2.45,0,0,0-1.76.66c-.53.67-1.4,1.82-2.3,3s-1.91,2.51-2.85,3.71c-2.77-4.51-6-8.2-11.47-8.2Zm140.91.35c-6.5,0-12.69,6.41-16,11.74a33.46,33.46,0,0,0-4.19,11.3c-.59,4.24.1,8.83,4.36,11.24,8.9,5.06,18.61-2.92,22.59-7.28a1.41,1.41,0,0,0,.1-1.54l-3.74-4.8c-.68-.81-1.41-.9-2.33,0-2.37,2.31-3.64,4.23-7.43,5.87-2.79,1.2-4.35.57-4.9-.35-1.45-2.36,2.58-8.92,3.07-9.78,3.1-5,6.36-7.36,8.44-7.46a2.92,2.92,0,0,1,2,1,18.33,18.33,0,0,1,2.45,3.37c1.77,2.94,3.61,6.78,5.65,10.42,3.49,6.26,7.95,11.93,15,11.4.84-.14.82-.85.82-1.76,0-1.78,0-5.77,0-5.77,0-.63-.45-1-1.26-1a5,5,0,0,1-1.54-.25c-1.88-.91-2.53-2.29-4.06-4.75-1.62-2.63-2.91-5.79-4.63-8.87-3.56-6.39-7-12.73-14.34-12.73Zm-73.12.55c-5.06,0-8.63,2.34-10.52,6.26H120a34,34,0,0,0,.32-4.21s0-.74,0-.74a.77.77,0,0,0-.77-.79h-6.44a.79.79,0,0,0-.79.79v50.2a.79.79,0,0,0,.79.8h7a.8.8,0,0,0,.81-.8V158.29a29.41,29.41,0,0,0,4.31.27c11.6,0,17.69-7.35,17.69-19,0-9.92-4.32-15.65-12.29-15.65ZM128.2,131c3.91,0,5.75,3.24,5.75,9.51,0,8.3-3.59,11.39-8.45,11.39a15.17,15.17,0,0,1-4.51-.59V142c0-5.73,2.69-11,7.21-11Zm-65.33,1a2.92,2.92,0,0,1,2,1,17.89,17.89,0,0,1,2.53,3.37c.41.68.84,1.41,1.26,2.18-1.58,1.91-3.12,3.68-4.65,5.27-2.34,2.28-4,4.12-7.76,5.75-2.78,1.2-4.32.56-4.88-.35-1.43-2.35,2.59-8.94,3.08-9.8,3.1-5,6.34-7.33,8.42-7.43Z"/></g></g></g></g></svg>