<svg xmlns="http://www.w3.org/2000/svg" viewBox="0 0 283.46 283.46"><defs><style>.cls-1{fill:#db502b;}.cls-2{fill:#001a4b;}.cls-3{fill:#fff;}</style></defs><title>ardalpha</title><g id="Layer_2" data-name="Layer 2"><g id="ARD"><g id="ardalpha"><rect class="cls-1" width="283.46" height="283.46"/><g id="logo"><path id="text2987" class="cls-2" d="M143.49,162.13V176h1.41V162.13Zm9.51,0v4.41c-.65-.06-1.18-.07-1.73-.07-3,0-4.88,1.88-4.88,5.25,0,2.76,1.15,4.48,3.49,4.48a3.45,3.45,0,0,0,3.27-2.25l0,0A12.48,12.48,0,0,0,153,176h1.41V162.13H153Zm40.12,0V176h1.41v-5l3.74,5h1.86l-4.06-5.15,3.76-4.31H198.1l-3.57,4.26v-8.69h-1.41Zm35.2,0V176h1.41V162.13Zm-88.13.79a1,1,0,0,0-.79,1,1,1,0,0,0,1,1,1,1,0,0,0,1-1,1,1,0,0,0-1-1A1,1,0,0,0,140.19,162.92Zm-53,.17c-1.49,0-2.68,0-3.69.07V176H86v-5.3H86l3.59,5.3H92.7l-3.1-4.31c-.32-.44-.68-.94-1-1.41a3.6,3.6,0,0,0,3.27-3.59c0-2.63-1.82-3.62-4.66-3.62Zm11.39,0c-1.58,0-3.15.06-4.16.1V176c1.09,0,2.26.1,3.59.1,4.19,0,7.08-2.29,7.08-6.71s-2.53-6.29-6.51-6.29Zm35,0c-1.54,0-2.72,0-3.59,0V176c1.1,0,2.32.07,3.1.07,4.06,0,4.9-2.47,4.9-3.86a2.92,2.92,0,0,0-2.72-3v0a3.22,3.22,0,0,0,2.43-3c0-1.87-1.31-3-4.11-3Zm-58.82,0L70.21,176h2.5l.89-2.63h4.85l.92,2.63H82.1l-4.58-12.85Zm58.55,1.14c2.27,0,2.85.89,2.85,2.11,0,1.52-1.18,2.43-3.47,2.43-.5,0-.84,0-1.24,0v-4.48c.55,0,1.23,0,1.86,0Zm-46.35.82c1.56,0,2.33.6,2.33,1.83s-.92,2-2.4,2c-.38,0-.72,0-.89,0v-3.72a7.06,7.06,0,0,1,1,0Zm11.47,0c2.93,0,4,1.65,4,4.41,0,3-1.74,4.41-4.16,4.41a9.09,9.09,0,0,1-1.36-.1v-8.67c.4,0,.94,0,1.51,0ZM76,166h0a15.79,15.79,0,0,0,.59,2.06l1.19,3.37H74.24l1.16-3.27c.25-.74.44-1.49.59-2.15Zm95.33.35a3.47,3.47,0,0,0-3.37,2.3h0a15.22,15.22,0,0,0,.15-2.11h-1.41V176h1.44v-4.56c0-2.25,1.2-3.91,2.9-3.91,1.37,0,1.76.87,1.76,2.35V176h1.44v-6.61c0-1.68-.68-3-2.85-3Zm43,0a3.5,3.5,0,0,0-3.39,2.3h0a15.19,15.19,0,0,0,.17-2.11h-1.41V176H211v-4.56c0-2.25,1.2-3.91,2.9-3.91,1.37,0,1.78.87,1.78,2.35V176h1.41v-6.61c0-1.68-.65-3-2.82-3Zm-34.25,0c-2.57,0-4.11,1.69-4.11,3.67a3,3,0,0,0,1.41,2.75,1.68,1.68,0,0,0-1,1.54,1.47,1.47,0,0,0,.94,1.36,2.85,2.85,0,0,0-1.63,2.53c0,1.81,1.54,2.77,3.94,2.77,2.91,0,5-1.49,5-3.49,0-1.66-1.11-2.65-3.17-2.65h-1.86c-1.18,0-1.71-.27-1.71-.82a.91.91,0,0,1,.69-.84,6.83,6.83,0,0,0,1.31.12c2.72,0,4.11-1.55,4.11-3.57a2.62,2.62,0,0,0-.92-2.08h1.71v-1.11h-3.22a5.94,5.94,0,0,0-1.44-.17Zm9,0c-2.4,0-3.72,1.19-3.72,2.77,0,3.37,4.63,2,4.63,4.24,0,1-1,1.61-2.33,1.61a8.19,8.19,0,0,1-2.13-.32l0,1.31a10.69,10.69,0,0,0,2,.2c2.48,0,3.94-1.32,3.94-3,0-3.22-4.61-1.92-4.61-4.19,0-.93.67-1.49,2.06-1.49a6.44,6.44,0,0,1,2,.32l0-1.24a10,10,0,0,0-1.83-.22Zm14.84,0a8,8,0,0,0-3.27.72l.12,1.24a5.76,5.76,0,0,1,2.9-.82c1.64,0,2.15.8,2.15,2.23v.79c-3.69,0-5.75,1.36-5.75,3.34a2.27,2.27,0,0,0,2.58,2.3,3.45,3.45,0,0,0,3.29-2.15h0a12.63,12.63,0,0,0-.1,2h1.41c0-.84,0-1.89,0-2.82v-3.72c0-1.79-.73-3.1-3.34-3.1Zm18.67,0a8,8,0,0,0-3.27.72l.12,1.24a5.76,5.76,0,0,1,2.9-.82c1.64,0,2.15.8,2.15,2.23v.79c-3.69,0-5.75,1.36-5.75,3.34,0,1.5,1.1,2.3,2.6,2.3a3.45,3.45,0,0,0,3.29-2.15h0a12.63,12.63,0,0,0-.1,2h1.41c0-.84,0-1.89,0-2.82v-3.72c0-1.79-.76-3.1-3.37-3.1Zm-82.92.17V176h1.44v-9.46Zm17.14,0v6.61c0,1.68.68,3,2.85,3a3.5,3.5,0,0,0,3.39-2.3l0,0a14.86,14.86,0,0,0-.15,2.08h1.41v-9.46h-1.44v4.56c0,2.25-1.18,3.91-2.87,3.91-1.37,0-1.78-.84-1.78-2.33v-6.14h-1.44Zm23.21.94a2.25,2.25,0,0,1,2.5,2.4,2.27,2.27,0,0,1-2.58,2.35,2.21,2.21,0,0,1-2.53-2.35,2.36,2.36,0,0,1,2.6-2.4Zm-28.85.07a8,8,0,0,1,1.86.22v3.34c0,1.68-.94,3.89-2.82,3.89-1.56,0-2.28-1.29-2.28-3.42,0-2.86,1.3-4,3.24-4Zm-18.48,2.35c2.11,0,3.79.54,3.79,2.35,0,1.5-1,2.63-3.27,2.63a10.82,10.82,0,0,1-1.76-.12V170c.3,0,1,0,1.24,0Zm73.14,1.66v.15c0,1.64-1.1,3.29-2.77,3.29a1.41,1.41,0,0,1-1.56-1.41C201.46,172.71,202.23,171.59,205.79,171.59Zm18.67,0v.15c0,1.64-1.1,3.29-2.77,3.29a1.38,1.38,0,0,1-1.54-1.41C220.16,172.71,220.91,171.59,224.47,171.59Zm-46.07,4.48c.17,0,.43,0,.62,0h1.93c1.45,0,2.15.6,2.15,1.61,0,1.26-1.22,2.13-3.29,2.13-1.58,0-2.75-.64-2.75-1.86a2.2,2.2,0,0,1,1.34-1.91Z"/><path id="_46617464" data-name=" 46617464" class="cls-3" d="M229.23,102.46a11.74,11.74,0,1,0,11.72,11.72,11.72,11.72,0,0,0-11.72-11.72Zm0,1.73a10,10,0,1,1-10,10A10,10,0,0,1,229.23,104.2Zm-133,2.9a.79.79,0,0,0-.79.79v49.78a.79.79,0,0,0,.79.79h7a.79.79,0,0,0,.79-.79V107.89a.79.79,0,0,0-.79-.79Zm53.62,0a.79.79,0,0,0-.79.79v49.76a.79.79,0,0,0,.79.79h7.06a.79.79,0,0,0,.79-.79V142.29c0-5.88,3.44-10.87,7.83-10.87,3.17,0,4.11,2.09,4.11,5.6l0,20.66a.8.8,0,0,0,.79.79h7a.8.8,0,0,0,.79-.79V134.93c0-5.87-2.43-10.72-10-10.72-5.19,0-9,2.49-11,6.27l-.16-.07a32.62,32.62,0,0,0,.62-6.81V107.91a.79.79,0,0,0-.79-.79h-7Zm84.14.07-11.84,4.26v2.92l3.91-1.41v8.82L234,119V107.19ZM62.91,123c-6.49,0-12.72,6.4-16,11.74A33.74,33.74,0,0,0,42.7,146c-.59,4.25.1,8.86,4.36,11.27,6.45,3.67,13.32.49,18.13-3.2.43-.31.86-.7,1.36-1.11a36.21,36.21,0,0,0,3.1-3l.1-.12c1-1.05,2.06-2.2,3.1-3.39l.12.25C76.47,153,81.08,159,88.1,158.46c.85-.15.83-.88.84-1.78,0-1.77,0-5.75,0-5.75,0-.63-.46-1-1.29-1a4.94,4.94,0,0,1-1.54-.25c-1.87-.92-2.76-2.61-4.28-5.08-1-1.63-1.95-3.4-2.92-5.25,2-2.44,9.76-12.26,9.76-12.26,2.19-3,1-3.2-1-3.2l-6.32,0a2.44,2.44,0,0,0-1.76.67c-.53.67-1.4,1.82-2.3,3s-1.91,2.51-2.85,3.72c-2.78-4.51-6-8.2-11.47-8.2Zm140.9.35c-6.5,0-12.69,6.4-16,11.74a33.31,33.31,0,0,0-4.19,11.29c-.59,4.25.1,8.83,4.36,11.25,8.9,5.06,18.61-2.92,22.59-7.28a1.4,1.4,0,0,0,.1-1.54L206.94,144c-.68-.8-1.41-.9-2.33,0-2.37,2.31-3.64,4.23-7.43,5.87-2.79,1.2-4.35.57-4.9-.35-1.45-2.36,2.58-8.92,3.07-9.78,3.1-5,6.36-7.35,8.45-7.46a2.92,2.92,0,0,1,2,1,18.54,18.54,0,0,1,2.45,3.37c1.77,2.95,3.61,6.78,5.65,10.43,3.49,6.25,7.95,11.93,15,11.39.84-.14.82-.85.82-1.76,0-1.78,0-5.77,0-5.77,0-.62-.45-.95-1.26-1a5.3,5.3,0,0,1-1.54-.25c-1.88-.92-2.53-2.3-4.06-4.76-1.62-2.63-2.91-5.79-4.63-8.87-3.56-6.39-7-12.73-14.34-12.73Zm-73.12.54c-5.06,0-8.63,2.35-10.53,6.27H120a33.88,33.88,0,0,0,.32-4.21s0-.74,0-.74a.77.77,0,0,0-.77-.79h-6.44a.79.79,0,0,0-.79.79V175.4a.79.79,0,0,0,.79.79h7a.81.81,0,0,0,.82-.79V158.29a28.83,28.83,0,0,0,4.31.27c11.6,0,17.68-7.35,17.68-19,0-9.92-4.32-15.65-12.28-15.65ZM128.2,131c3.91,0,5.75,3.24,5.75,9.51,0,8.3-3.59,11.39-8.45,11.39a15.2,15.2,0,0,1-4.51-.59V142c0-5.73,2.69-11,7.21-11Zm-65.33,1a3,3,0,0,1,2,1,18,18,0,0,1,2.53,3.37c.41.68.84,1.41,1.26,2.18-1.59,1.91-3.12,3.68-4.66,5.28-2.33,2.28-4,4.11-7.75,5.75-2.79,1.2-4.33.56-4.88-.35-1.44-2.36,2.58-8.95,3.07-9.81,3.11-5,6.35-7.33,8.42-7.43Z"/></g></g></g></g></svg>