<svg xmlns="http://www.w3.org/2000/svg" viewBox="0 0 283.46 283.46"><defs><style>.cls-1{fill:#eb741b;}.cls-2{fill:#fff;}</style></defs><title>arte</title><g id="Layer_2" data-name="Layer 2"><g id="ARD_ZDF" data-name="ARD &amp; ZDF"><g id="arte"><rect class="cls-1" width="283.46" height="283.46"/><g id="logo"><path class="cls-2" d="M44.59,142.64s.18-16.84,26.26-16.9c10.82.06,24.31,3,24.25,13.86v26.08H76V154.25c-.06.12-4.74,1.76-8.33,2.86-2.37.67-4.25,2.07-4.5,4.5-.06,2.07,2.31,4,2.25,4.07h-19c.12-.06-4.07-1.58-3.89-6.14.36-8.57,7-11.73,23.46-13.62,8.87-1.09,9.91-1.95,10-4.07-.06-1.95-1.15-4-6.08-4.07-7.36,0-6.87,4.92-6.75,4.86H44.59Z"/><path class="cls-2" d="M105.5,127v38.72h19.57V147.14c.06-3.34,1-4.86,2.25-5.9a8.53,8.53,0,0,1,6.32-2.49h5.47V127a11.78,11.78,0,0,0-6.93-.79,11.54,11.54,0,0,0-8.75,6.26V127H105.5Z"/><path class="cls-2" d="M143.79,127v11.79h8v15.68c.06,3.59-.06,6.32,2.43,9,2.25,2.25,5.11,2.13,8.57,2.25h8.39V138.75h11.61V127H171.15v-9.18H151.76V127h-8Z"/><path class="cls-2" d="M212.73,145.93h9.12c0,.06.85-7.84-8.33-7.78-9-.12-8,7.84-8,7.78h7.17v9.73H206v10h-14.1c0-.06-5.9-5.35-5.65-15.93.12-24.13,26.2-23.71,27-23.58,32.64.24,27.35,29.6,27.35,29.48h-27.9v-9.73Z"/></g></g></g></g></svg>