<svg xmlns="http://www.w3.org/2000/svg" viewBox="0 0 283.46 283.46"><defs><style>.cls-1{fill:#00a7d6;}.cls-2{fill:#fff;}</style></defs><title>br</title><g id="Layer_2" data-name="Layer 2"><g id="ARD_Regions" data-name="ARD Regions"><g id="br"><rect class="cls-1" width="283.46" height="283.46"/><g id="logo"><path id="path4284" class="cls-2" d="M186.25,143.9c17.73-6.12,30.41-20.25,30.41-41.22,0-5.25-2.68-18-12.33-26.24C198,71,188.77,64.6,159,63.88c-6.14-.15-24.8.51-24.8.51l0,1.11A42.2,42.2,0,0,1,147.9,83.88c2.83-.1,7.14-.34,11.37-.1,11.94.63,17.15,2.87,22.52,7.1s8.3,11.53,8.28,18.14c0,9-4.33,18.36-17.35,23.68-10.54,4.29-23.29,5.23-23.29,5.23l0,3.3S157,144.88,164.69,155c6.56,8.68,44.71,64.84,44.71,64.84h31.54s-50.94-71-54.69-75.92"/><g id="g4286"><path id="path4288" class="cls-2" d="M85.41,198.16H67.78V83.65c.23,0,7.91-.11,12.7-.11,19.71,0,30.64,10.2,30.94,24.2.19,8.48-2.33,16.63-11,22.63-7.07,4.89-16.93,6.35-16.93,6.35v3.7s13.77,1.78,20.58,5.27c12.8,6.57,16.84,15.39,16.84,27.51,0,18.39-18.35,25-35.52,25M117,136c12.12-7.15,19.89-17.69,19.89-33.39,0-16.78-10-39-51.69-39-20.19,0-42.64.75-42.64.75V219.83H78.13c45.29,0,69.23-16.69,69.23-48.27,0-18.81-11.79-31.25-30.4-35.57"/></g></g></g></g></g></svg>