<svg xmlns="http://www.w3.org/2000/svg" xmlns:xlink="http://www.w3.org/1999/xlink" viewBox="0 0 283.46 283.46"><defs><style>.cls-1{fill:url(#linear-gradient);}.cls-2{fill:#fff;}</style><linearGradient id="linear-gradient" x1="5.62" y1="289.24" x2="274.23" y2="-1.86" gradientUnits="userSpaceOnUse"><stop offset="0" stop-color="#009fd9"/><stop offset="0.32" stop-color="#007abb"/><stop offset="1" stop-color="#014b94"/></linearGradient></defs><title>daserste</title><g id="Layer_2" data-name="Layer 2"><g id="ARD"><g id="daserstewide"><rect class="cls-1" width="283.46" height="283.46"/><g id="logo"><path id="path3036" class="cls-2" d="M69.81,113.9a28.2,28.2,0,1,0,.83,0Zm12,11.44v27.89L63.09,160.1V139L54,142.25v-6.87Z"/><path id="path3032" class="cls-2" d="M219.74,130.29l-4.46,1.17v5.33h-2.94v3.39h3v8.76c0,4,1.21,5.4,5,5.4a15.09,15.09,0,0,0,3.59-.46V150.3a8.73,8.73,0,0,1-2.16.3c-1.52,0-2-.65-2-2.87v-7.55h4.19v-3.39h-4.19v-6.5Z"/><path id="path3030" class="cls-2" d="M119.78,130.43c-2.87,0-5.71.12-7.55.19V154c2,.07,4.07.15,6.5.15,7.62,0,12.91-4.2,12.91-12.23C131.64,133.66,127,130.43,119.78,130.43ZM118,134.24c.47,0,1,0,1.51,0,5.34,0,7.29,3,7.29,8,0,5.54-3.19,8-7.59,8a17.08,17.08,0,0,1-2.45-.15V134.32C117.09,134.28,117.51,134.26,118,134.24Z"/><path id="path3028" class="cls-2" d="M172.78,130.6V154H185.5v-3.85h-8.19v-6.34h7.78v-3.66h-7.78v-5.78h8.19V130.6Z"/><path id="path3024" class="cls-2" d="M140.85,136.36a19,19,0,0,0-6.19,1.09l.41,3.7a11.21,11.21,0,0,1,5.06-1.36c2.49,0,3.36,1,3.36,2.76v.94c-5.86,0-9.93,2.18-9.93,6.3,0,2.78,1.79,4.53,4.91,4.53A5.83,5.83,0,0,0,144,151l0,0a19.37,19.37,0,0,0-.16,2.9h4.19c-.06-1.42-.11-3.06-.11-4.45v-7.17C147.94,138.62,146.39,136.36,140.85,136.36Zm2.64,10v.42c0,2.07-1.48,4.15-3.66,4.15a1.81,1.81,0,0,1-2-1.85C137.79,147.69,138.81,146.36,143.49,146.36Z"/><path id="path3022" class="cls-2" d="M158.44,136.37c-4.85,0-7.33,2.5-7.33,5.51,0,5.86,6.95,4.12,6.95,7.17,0,1.15-1.1,1.85-2.79,1.85a14.93,14.93,0,0,1-3.7-.53l-.12,3.66a23.15,23.15,0,0,0,3.63.31c4.71,0,7.66-2.31,7.66-5.7,0-5.58-7.06-4.33-7.06-7.14,0-1.07.84-1.77,2.57-1.77a12.19,12.19,0,0,1,3.17.45l.15-3.47a20.09,20.09,0,0,0-3.13-.34Z"/><path id="path3020" class="cls-2" d="M198.56,136.37c-3-.24-4.64,1.67-5.47,3.85H193a22,22,0,0,0,.3-3.43h-4.19V154h4.42v-7.06c0-4.78,1.61-6.85,4.79-6.19l.23-4.38Z"/><path id="path3018" class="cls-2" d="M207.09,136.37c-4.85,0-7.32,2.5-7.32,5.51,0,5.86,7,4.12,7,7.17,0,1.15-1.13,1.85-2.83,1.85a15,15,0,0,1-3.7-.53l-.11,3.66a23,23,0,0,0,3.62.31c4.71,0,7.7-2.31,7.7-5.7,0-5.58-7.09-4.33-7.09-7.14,0-1.07.83-1.77,2.56-1.77a12.44,12.44,0,0,1,3.21.45l.11-3.47a20,20,0,0,0-3.13-.34Z"/><path id="path3016" class="cls-2" d="M233.7,136.36c-5.16,0-8.08,3.9-8.08,9.17,0,6.06,3.06,8.79,8.53,8.79a16.94,16.94,0,0,0,6.15-1.13l-.41-3.4a12.18,12.18,0,0,1-5,1.06c-3.19,0-4.79-1.57-4.76-4.79h10.68a13.49,13.49,0,0,0,.15-2C240.94,139.8,238.72,136.36,233.7,136.36Zm-.15,3.28c1.87,0,3,1.29,3,3.44h-6.34C230.43,141,231.71,139.64,233.55,139.64Z"/></g></g></g></g></svg>