<svg xmlns="http://www.w3.org/2000/svg" viewBox="0 0 283.46 283.46"><defs><style>.cls-1{fill:#6d0041;}.cls-2{fill:#fff;}</style></defs><g id="Layer_2" data-name="Layer 2"><g id="ARD_Regions" data-name="ARD Regions"><g id="hrfernsehen"><rect class="cls-1" width="283.46" height="283.46"/><g id="logo"><path id="path3132" class="cls-2" d="M142.88,217.82c-33.51.66-74.12-5.49-100.36-16.88V190.73c27.58,11.78,65.09,17.93,98.6,17.41,36.21-.66,73.78-6.81,99.82-17v9.95c-29.18,10.34-62.17,16.1-98.06,16.75"/><path id="path3134" class="cls-2" d="M60,65.59v37.7a120.51,120.51,0,0,1,22.3-2.36c17.33.14,26,9.56,26.64,21.73.15,3,.11,4.72.11,8.12v49.09H90.73V129.73c0-6.15.39-13.87-13.42-13.74a68.1,68.1,0,0,0-16.79,2v61.92H42.68V66.64Z"/><path id="path3136" class="cls-2" d="M170.92,100.93c-.14-.13-16.27.27-25.79,2.49-11.1,2.49-18.21,9.3-19.2,19.51a62.49,62.49,0,0,0-.29,7.72v49.22h18.27v-50.4c0-4.45.34-7.2,3.23-9.82,3.29-2.88,10.75-3.27,15-3.66,3-.26,8.77-.53,8.77-.53Z"/></g></g></g></g></svg>