<svg xmlns="http://www.w3.org/2000/svg" viewBox="0 0 283.46 283.46"><defs><style>.cls-1{fill:#ff3700;}.cls-2{fill:#fff;}</style></defs><title>kabeleinsclassics</title><g id="Layer_2" data-name="Layer 2"><g id="ProSiebenSat.1"><g id="kabeleinsclassics"><rect class="cls-1" width="283.46" height="283.46"/><g id="logo"><path class="cls-2" d="M231.57,154.63c-3.84,0-6.75-.82-9.23-3.34l3.2-3.2a8.28,8.28,0,0,0,6.11,2.13c2.91,0,4.48-1.1,4.48-3.13a2.82,2.82,0,0,0-.78-2.13,3.76,3.76,0,0,0-2.24-.89l-3.05-.43a8.57,8.57,0,0,1-4.9-2.1,6.68,6.68,0,0,1-1.81-5c0-4.51,3.34-7.67,8.81-7.67,3.48,0,6,.85,8.17,2.95L237.18,135a7,7,0,0,0-5.19-1.74c-2.63,0-3.91,1.46-3.91,3.2a2.44,2.44,0,0,0,.75,1.81,4.36,4.36,0,0,0,2.34,1l3,.43a8.36,8.36,0,0,1,4.83,2,7.08,7.08,0,0,1,2,5.36c0,4.9-4.08,7.67-9.38,7.67Zm-20.38,0a9.27,9.27,0,0,1-6.82-2.77,7.32,7.32,0,0,1-2.06-3.8,34.58,34.58,0,0,1-.43-6.29,34.57,34.57,0,0,1,.43-6.29,7.19,7.19,0,0,1,2.06-3.8,9.27,9.27,0,0,1,6.82-2.77c4.87,0,8.45,2.84,9.31,8h-5c-.53-2.17-1.88-3.59-4.26-3.59a3.91,3.91,0,0,0-3.16,1.31c-1,1.1-1.24,2.24-1.24,7.14s.21,6,1.24,7.14a3.91,3.91,0,0,0,3.16,1.31c2.38,0,3.73-1.42,4.26-3.59h5c-.85,5.15-4.48,8-9.31,8Zm-18.43-.21V129.13h4.94v25.29Zm-12.94.21c-3.84,0-6.75-.82-9.23-3.34l3.2-3.2a8.28,8.28,0,0,0,6.11,2.13c2.91,0,4.48-1.1,4.48-3.13a2.81,2.81,0,0,0-.78-2.13,3.77,3.77,0,0,0-2.24-.89l-3.05-.43a8.57,8.57,0,0,1-4.9-2.1,6.68,6.68,0,0,1-1.81-5c0-4.51,3.34-7.67,8.81-7.67,3.48,0,6,.85,8.17,2.95L185.44,135a7,7,0,0,0-5.19-1.74c-2.63,0-3.91,1.46-3.91,3.2a2.44,2.44,0,0,0,.75,1.81,4.36,4.36,0,0,0,2.34,1l3,.43a8.36,8.36,0,0,1,4.83,2,7.08,7.08,0,0,1,2,5.36c0,4.9-4.08,7.67-9.38,7.67Zm-20.64,0c-3.84,0-6.75-.82-9.23-3.34l3.2-3.2a8.28,8.28,0,0,0,6.11,2.13c2.91,0,4.48-1.1,4.48-3.13a2.82,2.82,0,0,0-.78-2.13,3.77,3.77,0,0,0-2.24-.89l-3.05-.43a8.58,8.58,0,0,1-4.9-2.1,6.68,6.68,0,0,1-1.81-5c0-4.51,3.34-7.67,8.81-7.67,3.48,0,6,.85,8.17,2.95L164.79,135a7,7,0,0,0-5.19-1.74c-2.63,0-3.91,1.46-3.91,3.2a2.44,2.44,0,0,0,.75,1.81,4.35,4.35,0,0,0,2.34,1l3,.43a8.35,8.35,0,0,1,4.83,2,7.08,7.08,0,0,1,2,5.36c0,4.9-4.08,7.67-9.38,7.67Zm-21.65-18-3.2,9.2h6.29Zm5.9,17.83-1.49-4.47h-9l-1.53,4.47h-5.15l9.2-25.29h3.87l9.23,25.29Zm-35.59,0V129.13h4.94V150h11.47v4.4Zm-12.71.21a9.27,9.27,0,0,1-6.82-2.77,7.31,7.31,0,0,1-2.06-3.8,34.49,34.49,0,0,1-.43-6.29,34.48,34.48,0,0,1,.43-6.29,7.18,7.18,0,0,1,2.06-3.8,9.27,9.27,0,0,1,6.82-2.77c4.87,0,8.45,2.84,9.31,8h-5c-.53-2.17-1.88-3.59-4.26-3.59A3.91,3.91,0,0,0,92,134.63c-1,1.1-1.24,2.24-1.24,7.14s.21,6,1.24,7.14a3.91,3.91,0,0,0,3.16,1.31c2.38,0,3.73-1.42,4.26-3.59h5c-.85,5.15-4.48,8-9.31,8"/><path class="cls-2" d="M79.33,128.84H44.07a1.55,1.55,0,0,0-1.55,1.55v22.47a1.55,1.55,0,0,0,1.55,1.55H79.33a1.55,1.55,0,0,0,1.55-1.55V130.39A1.55,1.55,0,0,0,79.33,128.84ZM57.08,153.14a16.22,16.22,0,0,1-8.22-2.43,15.56,15.56,0,0,1-6.34-7.58h0v-6.55c0,6.14,2.55,9.33,6.4,10.83A10.37,10.37,0,0,0,63,140.35a37.15,37.15,0,0,1-4.68,1c0-.52.17-3.69.17-4.18,3.51-.78,6.06-2.78,6.43-5.63A48.68,48.68,0,0,0,72.2,130a16.63,16.63,0,0,1,1.56,6.53C73.81,145.63,67.32,153.09,57.08,153.14Z"/></g></g></g></g></svg>