<svg xmlns="http://www.w3.org/2000/svg" viewBox="0 0 283.46 283.46"><defs><style>.cls-1{fill:#c8193c;}.cls-2{fill:#fff;}</style></defs><title>kabeleinsdoku</title><g id="Layer_2" data-name="Layer 2"><g id="ProSiebenSat.1"><g id="kabeleinsdoku"><rect class="cls-1" width="283.46" height="283.46"/><g id="logo"><path class="cls-2" d="M236.6,161.31H113.89V122.15H236.6ZM42.52,117.8V134a19.5,19.5,0,0,0,31.61,15.22,19.86,19.86,0,0,0,6.36-9A33.22,33.22,0,0,1,71,142.38c.75-3.21,1.39-8.28,1.54-9.78,5.13-1,10.78-4,12.36-10.76a114,114,0,0,0,14.5-2.12c1.48,2.61,2.79,8.23,2.79,12.31,0,17.51-13.57,31.71-31.2,31.71a31.26,31.26,0,0,1-28.47-18.33v20.25H240.94V117.8H42.52"/><path class="cls-2" d="M135.58,147.12h2.66c4.24,0,4.86-3.44,4.86-5.51,0-1.39-.43-5.26-5.35-5.26h-2.17Zm-6.8-16.42h11.17c7.36,0,10,5.45,10,11,0,6.78-3.59,11.08-11.29,11.08h-9.85V130.69"/><path class="cls-2" d="M167.49,144.77a5.26,5.26,0,0,1-1.1,1.84,3.56,3.56,0,0,1-1.42.93,4.44,4.44,0,0,1-1.42.26,4.49,4.49,0,0,1-1.42-.26,3.61,3.61,0,0,1-1.42-.93,5.33,5.33,0,0,1-1.1-1.84,10.45,10.45,0,0,1,0-6.06,5.36,5.36,0,0,1,1.1-1.84,3.63,3.63,0,0,1,1.42-.93,4.46,4.46,0,0,1,1.42-.26,4.41,4.41,0,0,1,1.42.26,3.58,3.58,0,0,1,1.42.93,5.29,5.29,0,0,1,1.1,1.84,10.49,10.49,0,0,1,0,6.06m4.18-11.34a10.45,10.45,0,0,0-3.54-2.4,12.53,12.53,0,0,0-9.15,0,10.45,10.45,0,0,0-3.54,2.4,10.71,10.71,0,0,0-2.27,3.65,13.86,13.86,0,0,0,0,9.31,10.69,10.69,0,0,0,2.27,3.65,10.44,10.44,0,0,0,3.54,2.39,12.55,12.55,0,0,0,9.15,0,10.44,10.44,0,0,0,3.54-2.39,10.7,10.7,0,0,0,2.27-3.65,13.91,13.91,0,0,0,0-9.31,10.71,10.71,0,0,0-2.27-3.65"/><path class="cls-2" d="M199.26,130.69h-8.38l-6.06,7.61h-.06v-7.61H178v22.08h6.8v-6.52l1.89-2.07,5.44,8.6h8.47l-9.31-13.45,8-8.63"/><path class="cls-2" d="M214.91,130.69v12c0,.56,0,1.13,0,1.73a4.92,4.92,0,0,1-.36,1.64,2.86,2.86,0,0,1-1,1.22,3.08,3.08,0,0,1-1.86.48,3.29,3.29,0,0,1-1.92-.48,2.78,2.78,0,0,1-1-1.22,4.86,4.86,0,0,1-.36-1.64c0-.6,0-1.17,0-1.73v-12h-6.8v13.55q0,4.61,2.49,6.84t7.59,2.22q5.1,0,7.58-2.22t2.47-6.84V130.69h-6.8"/></g></g></g></g></svg>