<svg xmlns="http://www.w3.org/2000/svg" viewBox="0 0 283.46 283.46"><defs><style>.cls-1{fill:#ff3700;}.cls-2{fill:#fff;}</style></defs><g id="Layer_2" data-name="Layer 2"><g id="ProSiebenSat.1"><g id="kabeleins"><rect class="cls-1" width="283.46" height="283.46"/><path id="logo" class="cls-2" d="M137.19,214.92c58.64,0,103.75-47.23,103.75-105.44,0-13.58-4.34-32.26-9.26-40.93a380.93,380.93,0,0,1-48.21,7.06c-5.25,22.5-24.05,32.54-41.1,35.76-.53,5-2.63,21.86-5.14,32.52a110.25,110.25,0,0,0,31.54-7.25c-2.74,8.66-10.88,22.7-21.15,30a64.82,64.82,0,0,1-105.1-50.61V154c17.73,38.11,54.56,60.94,94.67,60.94"/></g></g></g></svg>