<svg xmlns="http://www.w3.org/2000/svg" viewBox="0 0 283.46 283.46"><defs><style>.cls-1{fill:#c8193c;}.cls-2{fill:#fff;}</style></defs><g id="Layer_2" data-name="Layer 2"><g id="ProSiebenSat.1"><g id="kabeleinsdoku"><rect class="cls-1" width="283.46" height="283.46"/><g id="logo"><path class="cls-2" d="M236.6,161.31H113.89V122.15H236.6ZM42.52,117.8V134a19.49,19.49,0,0,0,31.61,15.22,19.8,19.8,0,0,0,6.36-9A33,33,0,0,1,71,142.38c.75-3.21,1.38-8.27,1.54-9.78,5.13-1,10.78-4,12.36-10.76a113.34,113.34,0,0,0,14.5-2.12c1.48,2.61,2.79,8.23,2.79,12.31,0,17.51-13.57,31.71-31.21,31.71a31.25,31.25,0,0,1-28.47-18.33v20.26H240.94V117.8H42.52"/><path class="cls-2" d="M135.58,147.12h2.66c4.24,0,4.86-3.44,4.86-5.51,0-1.4-.44-5.26-5.36-5.26h-2.16Zm-6.8-16.43H140c7.36,0,10,5.45,10,11,0,6.77-3.59,11.07-11.29,11.07h-9.85V130.69"/><path class="cls-2" d="M167.49,144.77a5.32,5.32,0,0,1-1.1,1.83,3.47,3.47,0,0,1-1.43.93,4.24,4.24,0,0,1-1.42.26,4.33,4.33,0,0,1-1.42-.26,3.5,3.5,0,0,1-1.42-.93,5.32,5.32,0,0,1-1.1-1.83,10.46,10.46,0,0,1,0-6.07,5.48,5.48,0,0,1,1.1-1.84,3.72,3.72,0,0,1,1.42-.93,4.61,4.61,0,0,1,1.42-.26,4.51,4.51,0,0,1,1.42.26,3.68,3.68,0,0,1,1.43.93,5.48,5.48,0,0,1,1.1,1.84,10.46,10.46,0,0,1,0,6.07m4.17-11.34a10.47,10.47,0,0,0-3.54-2.4,12.6,12.6,0,0,0-9.15,0,10.51,10.51,0,0,0-3.55,2.4,10.89,10.89,0,0,0-2.27,3.65,13.94,13.94,0,0,0,0,9.31,10.89,10.89,0,0,0,2.27,3.65,10.34,10.34,0,0,0,3.55,2.39,12.46,12.46,0,0,0,9.15,0,10.3,10.3,0,0,0,3.54-2.39,10.75,10.75,0,0,0,2.28-3.65,13.94,13.94,0,0,0,0-9.31,10.75,10.75,0,0,0-2.28-3.65"/><path class="cls-2" d="M199.26,130.69h-8.38l-6.06,7.61h-.07v-7.61H178v22.08h6.8v-6.52l1.89-2.07,5.45,8.59h8.47l-9.31-13.45,8-8.63"/><path class="cls-2" d="M214.91,130.69v12c0,.56,0,1.14,0,1.73a5,5,0,0,1-.35,1.64,2.82,2.82,0,0,1-1,1.22,3,3,0,0,1-1.86.48,3.19,3.19,0,0,1-1.91-.48,2.62,2.62,0,0,1-1-1.22,4.75,4.75,0,0,1-.36-1.64c0-.59-.05-1.17-.05-1.73v-12h-6.8v13.55q0,4.6,2.49,6.83t7.59,2.23c3.41,0,5.93-.74,7.58-2.23s2.47-3.76,2.47-6.83V130.69h-6.8"/></g></g></g></g></svg>