<svg xmlns="http://www.w3.org/2000/svg" viewBox="0 0 283.46 283.46"><defs><style>.cls-1{fill:#ff3700;}.cls-2{fill:#fff;}</style></defs><title>kabeleinsclassics</title><g id="Layer_2" data-name="Layer 2"><g id="ProSiebenSat.1"><g id="kabeleinsclassics"><rect class="cls-1" width="283.46" height="283.46"/><g id="logo"><path class="cls-2" d="M231.57,154.63c-3.84,0-6.75-.82-9.24-3.34l3.2-3.2a8.27,8.27,0,0,0,6.11,2.13c2.91,0,4.47-1.1,4.47-3.12a2.77,2.77,0,0,0-.78-2.13,3.76,3.76,0,0,0-2.24-.89l-3.05-.43a8.58,8.58,0,0,1-4.9-2.09,6.67,6.67,0,0,1-1.81-5c0-4.52,3.34-7.68,8.81-7.68,3.48,0,6,.86,8.17,3L237.18,135a7,7,0,0,0-5.19-1.74c-2.62,0-3.9,1.46-3.9,3.2a2.45,2.45,0,0,0,.74,1.81,4.38,4.38,0,0,0,2.35,1l3,.43a8.4,8.4,0,0,1,4.83,2,7.09,7.09,0,0,1,1.95,5.37c0,4.9-4.08,7.67-9.37,7.67Zm-20.38,0a9.3,9.3,0,0,1-6.82-2.77,7.29,7.29,0,0,1-2.06-3.8,34,34,0,0,1-.43-6.29,34,34,0,0,1,.43-6.29,7.18,7.18,0,0,1,2.06-3.8,9.3,9.3,0,0,1,6.82-2.77c4.86,0,8.45,2.84,9.3,8h-5c-.54-2.16-1.89-3.58-4.27-3.58a3.9,3.9,0,0,0-3.16,1.31c-1,1.1-1.24,2.24-1.24,7.14s.21,6,1.24,7.14a3.9,3.9,0,0,0,3.16,1.31c2.38,0,3.73-1.42,4.27-3.58h5c-.85,5.15-4.47,8-9.3,8Zm-18.43-.21V129.13h4.94v25.29Zm-12.93.21c-3.84,0-6.75-.82-9.24-3.34l3.2-3.2a8.27,8.27,0,0,0,6.11,2.13c2.91,0,4.47-1.1,4.47-3.12a2.81,2.81,0,0,0-.78-2.13,3.82,3.82,0,0,0-2.24-.89l-3-.43a8.55,8.55,0,0,1-4.9-2.09,6.67,6.67,0,0,1-1.81-5c0-4.52,3.33-7.68,8.8-7.68,3.48,0,6,.86,8.17,3L185.44,135a7,7,0,0,0-5.19-1.74c-2.63,0-3.91,1.46-3.91,3.2a2.46,2.46,0,0,0,.75,1.81,4.37,4.37,0,0,0,2.34,1l3,.43a8.4,8.4,0,0,1,4.83,2A7.09,7.09,0,0,1,189.2,147c0,4.9-4.08,7.67-9.37,7.67Zm-20.65,0c-3.83,0-6.75-.82-9.23-3.34l3.19-3.2a8.28,8.28,0,0,0,6.11,2.13c2.91,0,4.48-1.1,4.48-3.12A2.81,2.81,0,0,0,163,145a3.82,3.82,0,0,0-2.24-.89l-3.06-.43a8.61,8.61,0,0,1-4.9-2.09,6.67,6.67,0,0,1-1.81-5c0-4.52,3.34-7.68,8.81-7.68,3.48,0,6,.86,8.17,3L164.79,135a7,7,0,0,0-5.18-1.74c-2.63,0-3.91,1.46-3.91,3.2a2.42,2.42,0,0,0,.75,1.81,4.31,4.31,0,0,0,2.34,1l3,.43a8.37,8.37,0,0,1,4.83,2,7.1,7.1,0,0,1,2,5.37c0,4.9-4.09,7.67-9.38,7.67Zm-21.65-18-3.19,9.19h6.28Zm5.9,17.83-1.49-4.48h-9l-1.52,4.48h-5.15l9.2-25.29h3.87l9.23,25.29Zm-35.59,0V129.13h4.93V150h11.48v4.41Zm-12.72.21a9.26,9.26,0,0,1-6.82-2.77,7.36,7.36,0,0,1-2.06-3.8,35,35,0,0,1-.42-6.29,35.12,35.12,0,0,1,.42-6.29,7.25,7.25,0,0,1,2.06-3.8,9.3,9.3,0,0,1,6.82-2.77c4.87,0,8.46,2.84,9.31,8h-5c-.53-2.16-1.88-3.58-4.26-3.58A3.88,3.88,0,0,0,92,134.63c-1,1.1-1.25,2.24-1.25,7.14s.22,6,1.25,7.14a3.88,3.88,0,0,0,3.16,1.31c2.38,0,3.73-1.42,4.26-3.58h5c-.85,5.15-4.48,8-9.31,8"/><path class="cls-2" d="M79.33,128.84H44.07a1.54,1.54,0,0,0-1.55,1.55v22.47a1.55,1.55,0,0,0,1.55,1.55H79.33a1.54,1.54,0,0,0,1.55-1.55V130.39A1.54,1.54,0,0,0,79.33,128.84Zm-22.25,24.3a16.14,16.14,0,0,1-8.22-2.43,15.55,15.55,0,0,1-6.34-7.58h0v-6.54c0,6.13,2.55,9.32,6.4,10.83A10.38,10.38,0,0,0,63,140.35a36.11,36.11,0,0,1-4.68,1c.05-.52.18-3.69.17-4.18,3.51-.78,6.07-2.78,6.43-5.64A48.38,48.38,0,0,0,72.2,130a16.62,16.62,0,0,1,1.56,6.52C73.81,145.63,67.32,153.09,57.08,153.14Z"/></g></g></g></g></svg>