<svg xmlns="http://www.w3.org/2000/svg" viewBox="0 0 283.46 283.46"><defs><style>.cls-1{fill:#015b63;}.cls-2{fill:#fff;}.cls-3{fill:#ffeb1b;}</style></defs><g id="Layer_2" data-name="Layer 2"><g id="ARD_ZDF" data-name="ARD &amp; ZDF"><g id="kika"><rect class="cls-1" width="283.46" height="283.46"/><g id="logo"><path class="cls-2" d="M185.09,165.51a.43.43,0,0,0-.36.44v5.69a1.44,1.44,0,0,1-.12.67,6.3,6.3,0,0,0-3.19-1.35h-1.63a3,3,0,0,0-3.07,3v12.11a3.11,3.11,0,0,0,3.07,3.11h1.63a2.92,2.92,0,0,0,2.47-1,1.86,1.86,0,0,1,.59-.4.75.75,0,0,1,.25.62.41.41,0,0,0,.36.45H188a.53.53,0,0,0,.49-.45V166a.55.55,0,0,0-.49-.44h-2.86Zm-88.81.33a.52.52,0,0,0-.49.45l-4.55,21.6a.28.28,0,0,0,.08.24l-.08.4c0,.22.18.34.36.34H95a.49.49,0,0,0,.49-.45l.61-3.45a1.38,1.38,0,0,1,1.36-1.11h3.17a1.25,1.25,0,0,1,1.23,1.11l.74,3.34c.1.42.25.56.37.56h3.35c.21,0,.43-.15.37-.34l-.09-.39a.22.22,0,0,0,.09-.25l-4.92-21.49c-.1-.36-.22-.56-.37-.56H96.28Zm12.31,0a.32.32,0,0,0-.36.34v22.35a.32.32,0,0,0,.36.34h3.1a.36.36,0,0,0,.37-.34v-8.24a1.21,1.21,0,0,1,1.24-1.22h.7a1.1,1.1,0,0,1,1,.89l3.21,8.46c.15.42.25.45.37.45h3.34c.22,0,.31-.14.26-.22l-.16-.44c.14,0,.21-.13.16-.2l-3.58-9.58h0a.78.78,0,0,1,.26-.25,5.43,5.43,0,0,0,2.83-4.89v-1.75c0-3.39-2.72-5.69-6.15-5.69h-6.92Zm15.88,0a.49.49,0,0,0-.5.45v22.13a.52.52,0,0,0,.5.45h6.79a6.29,6.29,0,0,0,6.52-6V172a6.38,6.38,0,0,0-6.52-6.13h-6.79Zm74.11,0c-.24,0-.48.18-.49.34v2.64a.45.45,0,0,0,.49.34h6.65a1.25,1.25,0,0,1,.86.46h0l-8.49,15.93a1.37,1.37,0,0,0-.12.66v1.67a.21.21,0,0,0,0,.08v.56a.33.33,0,0,0,.36.34h12.58a.35.35,0,0,0,.38-.34v-2.86a.34.34,0,0,0-.38-.34h-7.5a1,1,0,0,1-.74-.36l8.49-15.81a1.39,1.39,0,0,0,.13-.78v-2.2c0-.17-.25-.34-.5-.34H198.58Zm14.9,0a.49.49,0,0,0-.5.45v22.13a.52.52,0,0,0,.5.45h6.79a6.18,6.18,0,0,0,6.39-6V172a6.27,6.27,0,0,0-6.39-6.13h-6.79Zm16.24,0a.55.55,0,0,0-.5.45v22.13a.52.52,0,0,0,.5.45h3.1a.51.51,0,0,0,.49-.45v-8.68a1.25,1.25,0,0,1,1.23-1.22h4.56a.52.52,0,0,0,.49-.46v-2.53a.58.58,0,0,0-.49-.45h-4.43a1.32,1.32,0,0,1-1.36-1.21V170.6a1.36,1.36,0,0,1,1.36-1.21h5.9c.25,0,.37-.23.37-.46v-2.64a.4.4,0,0,0-.37-.45H229.72Zm-116.55,3.43H115a2.81,2.81,0,0,1,3,2.68v1.24a2.81,2.81,0,0,1-3,2.67H113.3a1.3,1.3,0,0,1-1.24-1.22v-4.15a1.15,1.15,0,0,1,1.11-1.22Zm16.25,0h.34a3.75,3.75,0,0,1,3.81,3.67v8.94a3.68,3.68,0,0,1-3.81,3.57h-.34a1.35,1.35,0,0,1-1.36-1.23V170.49a1.35,1.35,0,0,1,1.36-1.22Zm89,0h.34a3.76,3.76,0,0,1,3.82,3.67v8.94a3.7,3.7,0,0,1-3.82,3.57h-.34a1.34,1.34,0,0,1-1.35-1.23V170.49a1.34,1.34,0,0,1,1.35-1.22ZM60.86,170.85a4.48,4.48,0,0,0-4.68,4.23v9.78a4.55,4.55,0,0,0,4.68,4.34h2a4.43,4.43,0,0,0,4.56-4.34V175.2a4.46,4.46,0,0,0-4.56-4.35h-2Zm17,0c-1.61,0-3.14,1.31-4,1.7a.92.92,0,0,1-.13-.58v-.44c0-.23-.28-.35-.5-.35H70.33a.34.34,0,0,0-.37.35v16.89a.43.43,0,0,0,.37.45h2.86a.54.54,0,0,0,.5-.45V176.18c0-1,1.31-1.84,2.33-2.12a2.54,2.54,0,0,1,.48-.09c.75.11,1.34.64,1.34,1.87v12.58a.53.53,0,0,0,.5.45h2.85a.42.42,0,0,0,.37-.45V173.75a2.85,2.85,0,0,0-3.07-2.9l-.32,0-.33,0Zm92,0c-1.63,0-3.21,1.35-4.13,1.72a.87.87,0,0,1-.15-.6v-.44a.34.34,0,0,0-.37-.35h-2.85c-.22,0-.5.12-.5.35v16.89a.54.54,0,0,0,.5.45h2.85a.43.43,0,0,0,.37-.45V176.18c0-1,1.32-1.84,2.34-2.12a2.7,2.7,0,0,1,.48-.09c.75.11,1.34.65,1.34,1.87l.12,12.58a.42.42,0,0,0,.37.45h2.85a.42.42,0,0,0,.37-.45V173.75a2.75,2.75,0,0,0-2.95-2.9l-.31,0-.33,0Zm-71.14.21a1.61,1.61,0,0,1,.43.89l1.45,7.43h0a1.1,1.1,0,0,1-1.08.81h-1.6a1.07,1.07,0,0,1-.94-.82L98.28,172a1.48,1.48,0,0,1,.41-.89ZM43,171.18c-.34,0-.55.15-.49.45l.08.33a.34.34,0,0,0-.08.32l3.94,16.25a.68.68,0,0,0,.37.34h3.34a.4.4,0,0,0,.25-.34l4.31-16.25c0-.18,0-.3-.07-.37l.07-.28c.06-.3,0-.45-.37-.45H51.76a.47.47,0,0,0-.37.23l-2.46,10.36a1.82,1.82,0,0,1-.33.76,1.56,1.56,0,0,1-.38-.76l-2.09-10.36a.47.47,0,0,0-.37-.23H43Zm104.54,0a.34.34,0,0,0-.36.34v14.9a2.92,2.92,0,0,0,2.46,2.78h1.75c1.25,0,1.83-1.43,2.75-1.73.43.14.6.56.78.95s.28.45.49.45h2.75a.53.53,0,0,0,.49-.45v-16.9c0-.19-.25-.34-.49-.34h-2.75c-.21,0-.48.15-.49.34v11.92c0,1.14-1.24,2.05-2.29,2.19a2,2,0,0,1-1.86-2.08v-12a.35.35,0,0,0-.37-.34h-2.86Zm-85.69,2.76H62a2,2,0,0,1,2,2v8.15a2,2,0,0,1-2,2h-.1a2.11,2.11,0,0,1-2.08-2V176a2.11,2.11,0,0,1,2.08-2Zm120.42.34h.46a2.33,2.33,0,0,1,2,1.78v8a2.39,2.39,0,0,1-2,1.79h-.46a1.92,1.92,0,0,1-2-1.79v-8A1.91,1.91,0,0,1,182.29,174.28Z"/><path class="cls-3" d="M49.28,94.26a4.65,4.65,0,0,0-4.19,4.51v54.76c0,3.17,1.67,4.84,4.84,4.84H65.71V141L85,157.72a2.9,2.9,0,0,0,1.93.65h8.64c2.89,0,4.89-1.63,4.89-4.84v-9.41L78.27,126.31l22.23-17.87V98.77A4.21,4.21,0,0,0,96,94.26H87a2.57,2.57,0,0,0-1.93.65L65.71,111.66V94.26Zm58,0a4.33,4.33,0,0,0-4.51,4.51v9.67h20.62V94.26Zm18.37,0v64.11h15.78c3.34,0,4.83-2.07,4.83-4.83V141l19.33,16.75a2.85,2.85,0,0,0,1.93.65h8.64c2.89,0,4.89-1.63,4.89-4.83v-9.42l-22.23-17.8L181,108.44V98.77a4.4,4.4,0,0,0-4.51-4.51h-9a2.57,2.57,0,0,0-1.93.65l-19.33,16.75V98.77a4.24,4.24,0,0,0-4.51-4.51Zm75.05,0-17.39,14.13v45.15c0,2.85,1.86,4.83,5.15,4.83h15.14V138.08h14.5v20.29h15.46c3.26,0,4.83-1.84,4.83-4.83V98.78a4.5,4.5,0,0,0-4.51-4.51Zm2.9,14.18h14.5v13.85h-14.5ZM102.75,111v42.53c0,2.83,1.35,4.83,4.84,4.83h5.79a3,3,0,0,0,1.94-.65l8.05-6.44V115.52a4.33,4.33,0,0,0-4.51-4.51Z"/></g></g></g></g></svg>