<svg xmlns="http://www.w3.org/2000/svg" viewBox="0 0 283.46 283.46"><defs><style>.cls-1{fill:#0666b0;}.cls-2{fill:#fff;}</style></defs><title>mdr</title><g id="Layer_2" data-name="Layer 2"><g id="ARD_Regions" data-name="ARD Regions"><g id="mdr"><rect class="cls-1" width="283.46" height="283.46"/><g id="logo"><path id="path4" class="cls-2" d="M170.56,117.52c0-2.59,0-5.18,0-7.77h16.61a4.31,4.31,0,0,1,3,1.14,4.42,4.42,0,0,1,1.12,3.17q0,24,0,48c.14.67-.71.93-1.13.51-5.22-4.59-10.64-8.94-16.11-13.22a19.82,19.82,0,0,0-8.12-3.83,14.54,14.54,0,0,0-16.61,9.74,16.8,16.8,0,0,0-.28,9,26.2,26.2,0,0,0,4.38,9.44c-3.87,0-7.74,0-11.62,0a25.56,25.56,0,0,1-3.57-15.5c1-9.05,7.09-17.54,15.68-20.78A26.67,26.67,0,0,1,166.68,136a23.7,23.7,0,0,1,14,7.05c0-7.34,0-14.67,0-22a3.26,3.26,0,0,0-1.34-3c-1.22-.75-2.71-.45-4.06-.49-1.57-.08-3.15.07-4.72,0Z"/><path id="path6" class="cls-2" d="M234.61,136.21a36.29,36.29,0,0,1,6.33-.44c0,3.17,0,6.34,0,9.5a20.41,20.41,0,0,0-10.49,3.48c-5.29,3.29-9.67,7.76-14,12.22-2.3,2.35-4.53,4.76-6.8,7.12a.66.66,0,0,1-1.14-.53c0-6.41,0-12.82,0-19.24a3.86,3.86,0,0,0-.81-2.94,3.42,3.42,0,0,0-2.59-1h-6.93q0-3.88,0-7.78h16.46a4.32,4.32,0,0,1,3.18,1.18,4.49,4.49,0,0,1,1.09,3c0,1.53,0,3.06,0,4.59a42.13,42.13,0,0,1,7.57-5.93,25.31,25.31,0,0,1,8.09-3.27Z"/><path id="path8" class="cls-2" d="M76,137a18.29,18.29,0,0,1,11.53-.55A12.19,12.19,0,0,1,94,141.08a14.16,14.16,0,0,1,1.66,3.18,25,25,0,0,1,16.2-8.35A17.58,17.58,0,0,1,122,137.46a15.25,15.25,0,0,1,7.94,10.66,34.74,34.74,0,0,1,.41,7.35v7.3H120v-8.94a11.79,11.79,0,0,0-.88-5.39,5.33,5.33,0,0,0-3.33-2.79,11,11,0,0,0-8,1c-3.25,1.64-5.89,4.22-8.49,6.72q-4.64,4.53-9,9.33a.65.65,0,0,1-1.16-.37c0-3.25,0-6.5,0-9.75a7.93,7.93,0,0,0-1.63-5.11,6.47,6.47,0,0,0-4.19-2.08,11.41,11.41,0,0,0-7.2,1.64,42.54,42.54,0,0,0-7.84,6.45c-4.85,4.68-9.44,9.62-14.1,14.49-.35.51-1.33.34-1.24-.36,0-6.59,0-13.19,0-19.79a3.68,3.68,0,0,0-.87-2.47,3.48,3.48,0,0,0-2.47-.88c-2.35,0-4.7,0-7,0,0-2.59,0-5.18,0-7.77,5.52,0,11,0,16.56,0a3.91,3.91,0,0,1,4.17,4.18c0,1.53,0,3.06,0,4.59A36.8,36.8,0,0,1,76,137Z"/></g></g></g></g></svg>