<svg xmlns="http://www.w3.org/2000/svg" viewBox="0 0 283.46 283.46"><defs><style>.cls-1{fill:#01304e;}.cls-2{fill:#fff;}.cls-3{fill:#f28725;}</style></defs><title>n24doku</title><g id="Layer_2" data-name="Layer 2"><g id="Others"><g id="n24doku"><rect class="cls-1" width="283.46" height="283.46"/><g id="logo"><polygon class="cls-2" points="71.49 143.13 71.49 133.22 75.86 133.22 75.86 150.29 71.71 150.29 63.92 140.38 63.92 150.29 59.64 150.29 59.64 133.22 63.74 133.22 71.49 143.13"/><path class="cls-2" d="M77.17,135.87a7.72,7.72,0,0,1,6.28-3c3.45,0,5.9,2.07,5.9,5.59a6,6,0,0,1-2.16,4.64l-3.29,3.33h5.23v3.88H78.05v-3.18l6.09-6a3.4,3.4,0,0,0,1-2.39,2,2,0,0,0-2.14-2,4.88,4.88,0,0,0-3.51,1.84Z"/><polygon class="cls-2" points="98.26 147.55 90.74 147.55 90.74 144.6 96.3 133.22 100.69 133.22 95.48 143.68 98.26 143.68 98.26 141.88 99.58 139.2 102.21 139.2 102.21 143.68 104.35 143.68 104.35 147.55 102.21 147.55 102.21 150.29 98.26 150.29 98.26 147.55"/><rect class="cls-3" x="42.52" y="133.2" width="17.12" height="17.1"/><path class="cls-2" d="M96.29,121.36h17.37c13.67,0,21.74,8.23,21.74,20.36,0,13.68-9.89,20.38-20.7,20.38H96.29V152h17.88c5.92,0,9.74-3.79,9.74-10.2,0-5-2.38-10.21-10.29-10.21H96.29V121.36Z"/><path class="cls-2" d="M135.33,131.59c3.61-6.85,10.77-11,19.14-11,12.41,0,21.56,8.75,21.56,21.12S167,162.86,154.5,162.86c-8.59,0-15.56-4-19.17-10.89a25.06,25.06,0,0,0,0-20.38Zm9.15,10.2c0,5.79,3.79,10.48,10,10.48,5.7,0,10.07-4,10.07-10.57,0-6.06-4-10.44-10.09-10.44-5.74,0-10,4.2-10,10.53Z"/><path class="cls-2" d="M177.25,136.71h2.57l10.29-15.37H203.6l-14.77,19.92,16.06,20.84H191.24l-11.49-15.56h-2.43a27.32,27.32,0,0,0-.07-9.83Z"/><path class="cls-2" d="M204.88,121.34h11.06v23.07c0,4.87,2.89,7.1,6.74,7.1,4.38,0,7.18-2,7.18-7.56V121.34h11.08v23.54c0,9.67-5.08,17.23-18.08,17.23-13.77,0-18-8.62-18-17V121.34Z"/></g></g></g></g></svg>