<svg xmlns="http://www.w3.org/2000/svg" viewBox="0 0 283.46 283.46"><defs><style>.cls-1{fill:#0c1754;}.cls-2{fill:#fff;}.cls-3{fill:#09e5ff;}</style></defs><g id="Layer_2" data-name="Layer 2"><g id="ARD_Regions" data-name="ARD Regions"><g id="ndr"><rect class="cls-1" width="283.46" height="283.46"/><g id="logo"><path class="cls-2" d="M220.18,146.24c0-7.81-4.21-9.85-11.29-9.85H197.61V157h11.28c6.73,0,11.29-3.84,11.29-10.8Zm20.76,56H221.86l-14.29-30.73H198v30.73H180.2V122.23h28c17.53,0,29.05,5.76,29.05,25,0,9.73-3.84,17.53-13.2,21.13l16.92,34Z"/><polygon class="cls-3" points="113.7 122.23 113.7 46.96 104.22 46.96 104.22 122.23 113.7 122.23"/><path class="cls-2" d="M154.76,172.52V151.88c0-9.73-4.45-14.53-14.29-14.53H132v49.82h8.52c9.84,0,14.29-4.92,14.29-14.65ZM172,174.2c0,20.29-10.56,28.09-30,28.09H113.7V122.23H142c18.73,0,30,8.28,30,27.84V174.2Z"/><polygon class="cls-2" points="104.22 202.29 104.22 122.23 87.3 122.23 87.3 172.04 60.29 122.23 42.52 122.23 42.52 202.29 59.44 202.29 59.44 155.6 85.38 202.29 104.22 202.29"/><polygon class="cls-3" points="113.7 236.5 113.7 202.29 104.22 202.29 104.22 236.5 113.7 236.5"/></g></g></g></g></svg>