<svg xmlns="http://www.w3.org/2000/svg" viewBox="0 0 283.46 283.46"><defs><style>.cls-1{fill:#d61f2c;}.cls-2{fill:#fff;}</style></defs><title>ntv</title><g id="Layer_2" data-name="Layer 2"><g id="RTL_Group" data-name="RTL Group"><g id="ntv"><rect class="cls-1" width="283.46" height="283.46"/><g id="logo"><path class="cls-2" d="M44.69,193.93c6.33-.07,12.6,0,18.86,0,3.17,0,3.17,0,3.17-3.11,0-15.76.06-31.45-.06-47.21,0-2.49.74-3,3-2.92,3.84.19,7.75.06,11.6.06,5.46,0,6.51,1.12,6.51,6.52v46.28a3.43,3.43,0,0,0,.75.31c7.26,0,14.58,0,21.84.07,1.55,0,1.55-.93,1.55-2,0-19.05.12-38.16-.06-57.27-.06-9.86-7.26-17.06-17.13-17.18-16.75-.13-33.5,0-50.25-.07-1.56,0-2,.56-2,2,.06,24.14.06,48.21,0,72.35C42.52,193.43,43.08,193.93,44.69,193.93Z"/><path class="cls-2" d="M214,119.59c-4.35,12.85-8.81,25.69-13.28,38.47-.44,1.37-1,2.67-1.68,4.47-.49-1.24-.74-1.8-.93-2.36q-7-20.1-13.9-40.2c-.62-1.8-1.42-2.48-3.41-2.48-10,.12-20,.06-30,.06h-3V88.26c-7.63,1.55-14.83,3-22,4.34-1.61.31-2.11,1-2.11,2.61.07,27.11,0,54.29.07,81.41.06,11,6.64,17.93,17.62,18.42,6.26.31,12.59.07,18.86.13,1.55,0,2-.68,2-2.11q-.1-9.31,0-18.62c.06-1.61-.56-2-2.05-2-2.3.06-4.66.06-6.95,0-3.72-.06-5.15-1.37-5.15-5-.06-8.19,0-16.44-.06-24.63,0-1.74.74-2.05,2.23-2.05,4.47.13,8.87.19,13.28,0,2.23-.12,3.23.69,4,2.73q9.32,24,18.68,48.09c.68,1.74,1.42,2.54,3.47,2.48,6.52-.12,13-.06,19.55,0a2.79,2.79,0,0,0,3-2.11q11.63-30,23.39-60c1.86-4.65,3.66-9.37,5.33-14.39-8.31,0-16.13,0-23.95-.06A2.62,2.62,0,0,0,214,119.59Z"/></g></g></g></g></svg>