<svg xmlns="http://www.w3.org/2000/svg" viewBox="0 0 283.46 283.46"><defs><style>.cls-1{fill:#d61f2c;}.cls-2{fill:#fff;}</style></defs><title>ntv</title><g id="Layer_2" data-name="Layer 2"><g id="RTL_Group" data-name="RTL Group"><g id="ntv"><rect class="cls-1" width="283.46" height="283.46"/><g id="logo"><path class="cls-2" d="M44.69,193.93c6.33-.06,12.6,0,18.86,0,3.16,0,3.16,0,3.16-3.1,0-15.76.06-31.46-.06-47.22,0-2.48.74-3,3-2.92,3.85.19,7.76.06,11.6.06,5.46,0,6.51,1.12,6.51,6.51v46.29a3.69,3.69,0,0,0,.74.31c7.26,0,14.58,0,21.84.06,1.55,0,1.55-.93,1.55-2,0-19,.12-38.16-.06-57.27-.06-9.87-7.26-17.06-17.12-17.19-16.75-.12-33.51,0-50.26-.06-1.55,0-2,.56-2,2,.06,24.14.06,48.21,0,72.35C42.52,193.43,43.08,193.93,44.69,193.93Z"/><path class="cls-2" d="M214,119.59c-4.34,12.84-8.81,25.69-13.28,38.47-.43,1.37-1,2.67-1.68,4.47-.5-1.24-.74-1.8-.93-2.36q-7-20.1-13.9-40.21c-.62-1.8-1.43-2.48-3.41-2.48-10.05.12-20,.06-30,.06h-3V88.26c-7.63,1.55-14.83,3-22,4.34-1.61.31-2.11,1-2.11,2.61.06,27.11,0,54.29.06,81.41.06,11,6.64,17.93,17.62,18.43,6.27.31,12.6.06,18.86.12,1.55,0,2-.68,2-2.11q-.09-9.31,0-18.61c.06-1.61-.56-2-2-2-2.3.06-4.65.06-6.95,0-3.72-.06-5.15-1.37-5.15-5-.06-8.19,0-16.44-.06-24.63,0-1.74.74-2,2.23-2,4.47.12,8.87.19,13.28,0,2.23-.12,3.23.68,4,2.73,6.2,16,12.47,32,18.68,48.09.68,1.74,1.43,2.54,3.47,2.48,6.51-.12,13-.06,19.54,0a2.79,2.79,0,0,0,3-2.11q11.63-30,23.39-60c1.86-4.65,3.66-9.37,5.34-14.39-8.31,0-16.13,0-24-.06A2.63,2.63,0,0,0,214,119.59Z"/></g></g></g></g></svg>