<svg xmlns="http://www.w3.org/2000/svg" viewBox="0 0 283.46 283.46"><defs><style>.cls-1{fill:#d20046;}.cls-2{fill:#fff;}</style></defs><g id="Layer_2" data-name="Layer 2"><g id="ARD"><g id="one"><rect class="cls-1" width="283.46" height="283.46"/><g id="logo"><path class="cls-2" d="M68.34,136c-3.56,0-7.13,2.87-7.13,9.79,0,7.62,1.88,10.69,6.73,10.69,4.65,0,7.12-4.06,7.12-10.19,0-7-1.78-10.29-6.72-10.29M67,172.08c-14.74,0-24.43-6.63-24.43-24.34,0-16.71,11.77-27.2,26.9-27.2,16.13,0,24.34,9,24.34,24.63,0,16.42-12,26.91-26.81,26.91"/><path class="cls-2" d="M125.71,170.89V139.83c0-2.47-.69-4.05-2.77-4.05-4,0-7.71,5.73-7.71,11.17v23.94h-18V121.73h16.62a43.92,43.92,0,0,1-.49,6.53h.1c3.06-4.35,8.21-7.72,15.73-7.72,10.88,0,14.54,7.12,14.54,15.53v34.82Z"/><path class="cls-2" d="M171.61,133.5c-3.46,0-5.83,2.77-6,6.82h11.08c.2-4.75-1.88-6.82-5-6.82m22,18.49H165.68c.3,3.47,3.56,6.24,10.58,6.24a36.1,36.1,0,0,0,14.55-3.07l1.58,13.45a53.13,53.13,0,0,1-19,3.47c-16.52,0-25.92-7.72-25.92-25.13,0-15.23,8.6-26.51,24.53-26.51,15.24,0,22.16,10.19,22.16,23.84a52.06,52.06,0,0,1-.6,7.71"/><path class="cls-2" d="M220.52,114.38A17.44,17.44,0,1,0,238,131.82a17.43,17.43,0,0,0-17.43-17.44m8.2,25.71V119.64L208.16,127v5.08l6.81-2.46V145Zm-8.2-28.7a20.43,20.43,0,1,1-20.43,20.42,20.42,20.42,0,0,1,20.43-20.42"/></g></g></g></g></svg>