<svg xmlns="http://www.w3.org/2000/svg" viewBox="0 0 283.46 283.46"><defs><style>.cls-1{fill:#d20046;}.cls-2{fill:#fff;}</style></defs><title>one</title><g id="Layer_2" data-name="Layer 2"><g id="ARD"><g id="one"><rect class="cls-1" width="283.46" height="283.46"/><g id="logo"><path class="cls-2" d="M68.34,136c-3.56,0-7.12,2.87-7.12,9.79,0,7.62,1.88,10.68,6.73,10.68,4.65,0,7.12-4.06,7.12-10.19,0-7-1.78-10.29-6.73-10.29M67,172.08c-14.74,0-24.43-6.63-24.43-24.33,0-16.72,11.77-27.2,26.91-27.2,16.12,0,24.33,9,24.33,24.63,0,16.42-12,26.91-26.81,26.91"/><path class="cls-2" d="M125.71,170.89V139.83c0-2.47-.69-4.06-2.77-4.06-4,0-7.72,5.74-7.72,11.18v23.94h-18V121.73h16.62a43.09,43.09,0,0,1-.49,6.53h.1c3.07-4.35,8.21-7.71,15.73-7.71,10.88,0,14.54,7.12,14.54,15.53v34.82Z"/><path class="cls-2" d="M171.61,133.5c-3.46,0-5.84,2.77-6,6.83h11.08c.2-4.75-1.88-6.83-5-6.83m22,18.5H165.68c.3,3.46,3.56,6.23,10.58,6.23a36,36,0,0,0,14.54-3.07l1.58,13.45a53.21,53.21,0,0,1-19,3.46c-16.52,0-25.92-7.72-25.92-25.13,0-15.23,8.61-26.51,24.53-26.51,15.23,0,22.16,10.19,22.16,23.84a52.52,52.52,0,0,1-.59,7.72"/><path class="cls-2" d="M220.52,114.38a17.43,17.43,0,1,0,17.43,17.43,17.43,17.43,0,0,0-17.43-17.43m8.2,25.7V119.64L208.16,127v5.08l6.81-2.46V145Zm-8.2-28.7a20.43,20.43,0,1,1-20.43,20.43,20.43,20.43,0,0,1,20.43-20.43"/></g></g></g></g></svg>