<svg xmlns="http://www.w3.org/2000/svg" viewBox="0 0 283.46 283.46"><defs><style>.cls-1{fill:#e2001a;}.cls-2{fill:#fff;}.cls-3{fill:#007787;}</style></defs><g id="Layer_2" data-name="Layer 2"><g id="ORF"><g id="orf1"><rect class="cls-1" width="283.46" height="283.46"/><g id="logo"><rect id="rect5" class="cls-1" x="42.52" y="120.56" width="99.21" height="42.34"/><path id="path7" class="cls-2" d="M114.59,153.51h5.8v-7.94h11V140h-11v-4.53h13.46v-5.56H114.59v23.58ZM69.67,141.73A6.64,6.64,0,1,1,63,135.05a6.8,6.8,0,0,1,6.63,6.68m6,0A12.64,12.64,0,1,0,63,154a12.33,12.33,0,0,0,12.63-12.25M84,153.53h5.82v-6.88h4.33l4.57,6.88H106l-5.85-8.27a7.56,7.56,0,0,0,4.68-7c0-4.69-3.47-8.34-8.75-8.34H84v23.6Zm11.7-12.44H89.85V135.5h5.88c2.53,0,3.28,1.23,3.28,2.77s-.75,2.82-3.28,2.82"/><rect id="rect9" class="cls-3" x="141.73" y="120.56" width="99.21" height="42.34"/><path id="path11" class="cls-2" d="M225.23,153.92c4.68,0,8.37-2.59,8.37-7v-.09c0-4.23-3.92-5.64-7.56-6.73-3.13-1-6-1.82-6-4.05v-.09c0-2,1.78-3.41,4.56-3.41a13.26,13.26,0,0,1,6.95,2.27l1.6-2.64a16.1,16.1,0,0,0-8.46-2.59c-4.65,0-8,2.68-8,6.73v.09c0,4.32,4.09,5.6,7.78,6.64,3.09.87,5.87,1.78,5.87,4.14v.09c0,2.28-2.05,3.74-4.87,3.74a13.66,13.66,0,0,1-8.14-3l-1.78,2.5a16.18,16.18,0,0,0,9.74,3.46m-35.81-.45h3.51V140c0-4.41,3-7.37,7-7.37s6.51,2.73,6.51,7.1v13.74H210v-14.6c0-5.6-3.32-9.42-9-9.42a8.92,8.92,0,0,0-8,4.59V130h-3.51Zm-11.64,0h3.51V130h-3.51Zm-25.16-13.15c.51-4.55,3.6-7.91,7.65-7.91,4.63,0,7.09,3.63,7.5,7.91Zm0,2.82h18.66c0-.54,0-.91,0-1.22,0-6.92-4-12.47-11-12.47-6.5,0-11.28,5.46-11.28,12.28,0,7.33,5.28,12.28,11.74,12.28a12.14,12.14,0,0,0,9.69-4.41l-2.19-2a9.73,9.73,0,0,1-7.41,3.33c-4.15,0-7.78-2.87-8.29-7.83"/></g></g></g></g></svg>