<svg xmlns="http://www.w3.org/2000/svg" xmlns:xlink="http://www.w3.org/1999/xlink" viewBox="0 0 283.46 283.46"><defs><style>.cls-1{fill:#e2001a;}.cls-2{fill:#fff;}.cls-3{fill:#ec1b24;}.cls-4{fill:url(#linear-gradient);}</style><linearGradient id="linear-gradient" x1="227.88" y1="-459.69" x2="170.07" y2="-459.69" gradientTransform="matrix(0.88, 0, 0, -0.88, -0.43, -263.19)" gradientUnits="userSpaceOnUse"><stop offset="0" stop-color="#fff"/><stop offset="1"/></linearGradient></defs><g id="Layer_2" data-name="Layer 2"><g id="ORF"><g id="orf2"><rect class="cls-1" width="283.46" height="283.46"/><g id="logo"><path class="cls-2" d="M181.5,112H241v59.45H181.5Z"/><path class="cls-3" d="M42.52,112H181.38v59.45H42.52Z"/><path class="cls-2" d="M88.92,141.73c0-9.71-7.86-17.2-17.68-17.2S53.55,132,53.55,141.73s7.87,17.19,17.69,17.19,17.68-7.48,17.68-17.19m-8.39,0a9.3,9.3,0,1,1-9.29-9.39,9.54,9.54,0,0,1,9.29,9.39"/><path class="cls-2" d="M100.63,158.29h8.13v-9.65h6.07l6.39,9.65h10.14l-8.19-11.6a10.64,10.64,0,0,0,6.55-9.81c0-6.6-4.86-11.71-12.25-11.71H100.63v33.12ZM117,140.83h-8.24V133H117c3.53,0,4.59,1.74,4.59,3.91s-1.06,4-4.59,4"/><path class="cls-2" d="M143.39,158.27h8.13V147.12h15.35v-7.8H151.52V133h18.83v-7.8h-27v33.1Z"/><path class="cls-2" d="M223.45,134.94c0-6-4.91-11.12-12.69-11.12-5.88,0-10.43,2.26-14,8.15l7.23,3.46c1.57-2.81,3.78-4.21,6.49-4.21s4.71,1.78,4.71,3.61c0,1.25-.55,2.44-2.23,3.73l-15.43,12.21v7.61h25.86v-7.72H209.63l8.05-6.1c3.45-2.6,5.77-5.78,5.77-9.62"/><path class="cls-4" d="M181.39,112h20.9v59.45h-20.9V112Z"/><path class="cls-1" d="M42.52,112H181.38v59.45H42.52Z"/><path class="cls-2" d="M88.92,141.73c0-9.71-7.86-17.2-17.68-17.2S53.55,132,53.55,141.73s7.87,17.19,17.69,17.19,17.68-7.48,17.68-17.19m-8.39,0a9.3,9.3,0,1,1-9.29-9.39,9.54,9.54,0,0,1,9.29,9.39"/><path class="cls-2" d="M100.63,158.29h8.13v-9.65h6.07l6.39,9.65h10.14l-8.19-11.6a10.64,10.64,0,0,0,6.55-9.81c0-6.6-4.86-11.71-12.25-11.71H100.63v33.12ZM117,140.83h-8.24V133H117c3.53,0,4.59,1.74,4.59,3.91s-1.06,4-4.59,4"/><path class="cls-2" d="M143.39,158.27h8.13V147.12h15.35v-7.8H151.52V133h18.83v-7.8h-27v33.1Z"/><path class="cls-1" d="M223.45,134.94c0-6-4.91-11.12-12.69-11.12-5.88,0-10.43,2.26-14,8.15l7.23,3.46c1.57-2.81,3.78-4.21,6.49-4.21s4.71,1.78,4.71,3.61c0,1.25-.55,2.44-2.23,3.73l-15.43,12.21v7.61h25.86v-7.72H209.63l8.05-6.1c3.45-2.6,5.77-5.78,5.77-9.62"/></g></g></g></g></svg>