<svg xmlns="http://www.w3.org/2000/svg" viewBox="0 0 283.46 283.46"><defs><style>.cls-1{fill:#2c2d28;}.cls-2{fill:#e5e6d7;}</style></defs><title>pro7maxx</title><g id="Layer_2" data-name="Layer 2"><g id="ProSiebenSat.1"><g id="pro7maxx"><rect class="cls-1" width="283.46" height="283.46"/><g id="logo"><rect class="cls-2" x="42.52" y="123.06" width="37.34" height="10.67"/><path class="cls-2" d="M79.86,135.87a42,42,0,0,0-22.41,6.4c-11.76,7.19-14.62,17.32-14.93,18.13H79.86Z"/><polygon class="cls-2" points="83.06 129.29 83.06 160.4 104.39 160.4 83.06 129.29"/><polygon class="cls-2" points="101.19 123.06 83.06 123.06 83.06 127.73 105.46 160.4 105.46 160.4 126.8 160.4 101.19 123.06"/><polygon class="cls-2" points="154.53 123.06 133.2 123.06 158.78 160.38 158.8 160.4 158.8 160.4 180.14 160.4 180.13 160.4 154.53 123.06"/><polygon class="cls-2" points="183.34 123.06 162 123.06 187.6 160.4 187.6 160.4 208.94 160.4 183.34 123.06"/><polygon class="cls-2" points="114 123.06 108.13 131.62 127.86 160.4 130 160.4 130 123.06 114 123.06"/><polygon class="cls-2" points="206.81 144.84 203.07 150.29 210.01 160.4 217.47 160.4 206.81 144.84"/><polyline class="cls-2" points="214.28 123.06 203.61 138.62 218.54 160.4 218.54 160.4 239.88 160.4 214.28 123.06"/><polygon class="cls-2" points="210.02 123.06 190.81 123.06 187.61 127.73 197.21 141.75 210.02 123.06"/><polygon class="cls-2" points="240.94 123.06 240.94 123.06 221.74 123.06 218.54 127.73 228.13 141.75 240.94 123.06"/><polygon class="cls-2" points="175.87 144.84 173.2 148.73 181.2 160.4 181.2 160.4 186.54 160.4 175.87 144.84"/><polygon class="cls-2" points="146 160.4 146 160.4 151.87 151.84 133.2 124.62 133.2 160.4 146 160.4"/></g></g></g></g></svg>