<svg xmlns="http://www.w3.org/2000/svg" viewBox="0 0 283.46 283.46"><defs><style>.cls-1{fill:#2d2d28;}.cls-2{fill:#e5e6d7;}.cls-3{fill:#d02219;}.cls-4{fill:#e6e6d7;}</style></defs><title>pro7maxxaustria</title><g id="Layer_2" data-name="Layer 2"><g id="ProSiebenSat.1-Regional"><g id="pro7maxxaustria"><rect class="cls-1" width="283.46" height="283.46"/><g id="logo"><rect class="cls-2" x="42.52" y="110.88" width="37.34" height="10.67"/><path class="cls-2" d="M79.86,123.68a42,42,0,0,0-22.41,6.4c-11.76,7.2-14.62,17.33-14.93,18.13H79.86Z"/><polygon class="cls-2" points="83.06 117.1 83.06 148.22 104.39 148.22 83.06 117.1"/><polygon class="cls-2" points="101.19 110.88 83.06 110.88 83.06 115.54 105.46 148.21 105.46 148.22 126.8 148.22 101.19 110.88"/><polygon class="cls-2" points="154.53 110.88 133.2 110.88 158.78 148.19 158.8 148.21 158.8 148.22 180.14 148.22 180.13 148.21 154.53 110.88"/><polygon class="cls-2" points="183.34 110.88 162 110.88 187.6 148.21 187.6 148.22 208.94 148.21 183.34 110.88"/><polygon class="cls-2" points="114 110.88 108.13 119.43 127.86 148.22 130 148.22 130 110.88 114 110.88"/><polygon class="cls-2" points="206.81 132.66 203.07 138.1 210.01 148.22 217.47 148.21 206.81 132.66"/><polyline class="cls-2" points="214.28 110.88 203.61 126.44 218.54 148.21 218.54 148.21 239.88 148.21 214.28 110.88"/><polygon class="cls-2" points="210.02 110.88 190.81 110.88 187.61 115.54 197.21 129.57 210.02 110.88"/><polygon class="cls-2" points="240.94 110.88 240.94 110.88 221.74 110.88 218.54 115.54 228.13 129.57 240.94 110.88"/><polygon class="cls-2" points="175.87 132.66 173.2 136.54 181.2 148.21 181.2 148.21 186.54 148.21 175.87 132.66"/><polygon class="cls-2" points="146 148.22 146 148.21 151.87 139.65 133.2 112.43 133.2 148.22 146 148.22"/><rect class="cls-3" x="133.2" y="151.37" width="106.68" height="21.21"/><path class="cls-4" d="M143.14,157.38h2.51l4,9.37h-2.8l-.67-1.68h-3.65l-.67,1.68h-2.73Zm2.28,5.69-1-2.63-1.06,2.63Z"/><path class="cls-4" d="M155,162.67v-5.22h2.63v5.17c0,1.34.69,2,1.74,2s1.74-.62,1.74-1.92v-5.23h2.64v5.15c0,3-1.74,4.32-4.41,4.32S155,165.58,155,162.67Z"/><path class="cls-4" d="M170.38,165.37l1.45-1.72a4.91,4.91,0,0,0,3,1.12c.72,0,1.09-.24,1.09-.64v0c0-.39-.31-.59-1.6-.9-2-.45-3.55-1-3.55-2.91v0c0-1.73,1.39-3,3.65-3a6,6,0,0,1,3.87,1.23L177,160.34a4.65,4.65,0,0,0-2.63-.91c-.63,0-.94.25-.94.59v0c0,.43.32.61,1.64.9,2.15.47,3.49,1.16,3.49,2.9v0c0,1.9-1.52,3-3.8,3A6.66,6.66,0,0,1,170.38,165.37Z"/><path class="cls-4" d="M186.84,159.7H184v-2.25h8.24v2.25h-2.83v7.05h-2.6Z"/><path class="cls-4" d="M198.9,157.45h4.45a4.2,4.2,0,0,1,3.06,1,2.87,2.87,0,0,1,.84,2.17v0a3,3,0,0,1-1.94,2.88l2.25,3.24h-3l-1.9-2.82h-1.15v2.82H198.9Zm4.34,4.46c.87,0,1.4-.42,1.4-1.1v0c0-.74-.55-1.12-1.41-1.12h-1.72v2.25Z"/><path class="cls-4" d="M214.12,157.45h2.61v9.3h-2.61Z"/><path class="cls-4" d="M227.19,157.38h2.51l4,9.37h-2.8l-.67-1.68H226.6l-.68,1.68H223.2Zm2.28,5.69-1-2.63-1.07,2.63Z"/></g></g></g></g></svg>