<svg xmlns="http://www.w3.org/2000/svg" viewBox="0 0 283.46 283.46"><defs><style>.cls-1{fill:#e31818;}.cls-2{fill:#fff;}</style></defs><title>rbb</title><g id="Layer_2" data-name="Layer 2"><g id="ARD_Regions" data-name="ARD Regions"><g id="rbb"><rect class="cls-1" width="283.46" height="283.46"/><g id="logo"><path id="path136" class="cls-2" d="M240.94,98.24H42.52v87h179.4Z"/><path id="path138" class="cls-1" d="M146.9,157c0-1.63.54-4.35.54-7.06s-.54-5.44-.54-7.07c-4.35-1.63-15.22-4.35-31-1.63V158a136.23,136.23,0,0,0,14.13.55c9.79,0,14.68-1.09,16.86-1.64m53.82,0c0-1.63.54-4.35.54-7.06s-.54-5.44-.54-7.07c-4.35-1.63-15.22-4.35-31-1.63V158a136.32,136.32,0,0,0,14.14.55A74.7,74.7,0,0,0,200.72,157m7.61-7.61c0,10.33-1.63,13-1.63,13s-4.89,3.8-22.83,3.8a177.44,177.44,0,0,1-21.21-1.63V117.27h7.07V133a108.84,108.84,0,0,1,12-1.08c16.85,0,25,4.89,25,4.89s1.63,2.17,1.63,12.5m-53.82,0c0,10.33-1.63,13-1.63,13s-4.89,3.8-22.84,3.8a177.4,177.4,0,0,1-21.2-1.63V117.27h7.07V133a108.84,108.84,0,0,1,12-1.08c16.85,0,25,4.89,25,4.89s1.63,2.17,1.63,12.5m-53.82-9.24c-18.48,0-28.27,3.26-31.53,4.35v21.2H61.55V139.56s10.87-6.53,39.14-7.07Z"/></g></g></g></g></svg>