<svg xmlns="http://www.w3.org/2000/svg" xmlns:xlink="http://www.w3.org/1999/xlink" viewBox="0 0 283.46 283.46"><defs><style>.cls-1{fill:url(#radial-gradient);}.cls-2{fill:url(#linear-gradient);}.cls-3{fill:url(#linear-gradient-2);}.cls-4{fill:#e60d38;}.cls-5{fill:url(#linear-gradient-3);}.cls-6{fill:url(#linear-gradient-4);}.cls-7{fill:url(#linear-gradient-5);}.cls-8{fill:url(#linear-gradient-6);}.cls-9{fill-opacity:0.2;}.cls-10{fill:#fff;}</style><radialGradient id="radial-gradient" cx="623.04" cy="596.63" r="0.57" gradientTransform="matrix(500, 0, 0, -500, -311377.14, 298312.54)" gradientUnits="userSpaceOnUse"><stop offset="0" stop-color="#0a57af"/><stop offset="1" stop-color="#041526"/></radialGradient><linearGradient id="linear-gradient" x1="-274.4" y1="1470.61" x2="-142.11" y2="1470.61" gradientTransform="matrix(0.5, 0, 0, -0.5, 312, 877.04)" gradientUnits="userSpaceOnUse"><stop offset="0" stop-color="#025984"/><stop offset="1" stop-color="#007ba3"/></linearGradient><linearGradient id="linear-gradient-2" x1="205.94" y1="1094.94" x2="223.12" y2="1094.94" gradientTransform="matrix(1, 0, 0, -1, 0, 1235.04)" gradientUnits="userSpaceOnUse"><stop offset="0" stop-color="#001932" stop-opacity="0.2"/><stop offset="1" stop-color="#00324b" stop-opacity="0"/></linearGradient><linearGradient id="linear-gradient-3" x1="-406.68" y1="1470.61" x2="-274.39" y2="1470.61" gradientTransform="matrix(0.5, 0, 0, -0.5, 312, 877.04)" gradientUnits="userSpaceOnUse"><stop offset="0" stop-color="#fdba0d"/><stop offset="1" stop-color="#ffd502"/></linearGradient><linearGradient id="linear-gradient-4" x1="-231.31" y1="1464.81" x2="-163.38" y2="1464.81" gradientTransform="matrix(0.5, 0, 0, -0.5, 312, 877.04)" gradientUnits="userSpaceOnUse"><stop offset="0" stop-color="#001932" stop-opacity="0.39"/><stop offset="1" stop-color="#00324b" stop-opacity="0.2"/></linearGradient><linearGradient id="linear-gradient-5" x1="-329.22" y1="1435.91" x2="-329.22" y2="1493.71" gradientTransform="matrix(0.5, 0, 0, -0.5, 312, 877.04)" gradientUnits="userSpaceOnUse"><stop offset="0" stop-color="#c80000" stop-opacity="0.2"/><stop offset="1" stop-color="#c80000" stop-opacity="0.1"/></linearGradient><linearGradient id="linear-gradient-6" x1="-517.58" y1="1461.66" x2="-406.68" y2="1461.66" gradientTransform="matrix(0.5, 0, 0, -0.5, 312, 877.04)" gradientUnits="userSpaceOnUse"><stop offset="0" stop-opacity="0.2"/><stop offset="1" stop-color="#640032" stop-opacity="0.2"/></linearGradient></defs><g id="Layer_2" data-name="Layer 2"><g id="RTL_Group" data-name="RTL Group"><g id="rtl"><rect id="blue" class="cls-1" width="283.46" height="283.46"/><g id="logo"><rect class="cls-2" x="174.8" y="124.38" width="66.14" height="34.7"/><path class="cls-3" d="M217.39,150l-19.94-1.6,8.49-18.24Z"/><rect class="cls-4" x="42.52" y="124.38" width="66.14" height="34.7"/><rect class="cls-5" x="108.66" y="124.38" width="66.14" height="34.7"/><path class="cls-6" d="M205.94,130.18,186.76,153l2,6.13h50l-8.44-11.62L217.39,150l-19.94-1.6Z"/><path class="cls-7" d="M163,130.18l-43,5.48,3.71,23.42H174.8V146.46Z"/><path class="cls-8" d="M94.77,133.33l-31.86.57-9.7,19,1.3,6.13h54.15v-6.66Z"/><path class="cls-9" d="M89.13,130.18H53.21V153H70.07v-7.48h3.3L82,153h18l-11-7.89c3.9.1,7.2-3.42,7.14-7.5s-3.2-7.37-7-7.38Zm30.84,0v5.48h12.77V153h17.72V135.66H163v-5.48Zm66.79,0V153h43.55v-5.49H205.94V130.18ZM70.07,135.57H78a2.4,2.4,0,0,1,0,4.76H70.07v-4.77Z"/><path class="cls-10" d="M89.13,130.18H53.21V153H70.07v-7.48h3.3L82,153h18l-11-7.89c3.9.1,7.2-3.42,7.14-7.5s-3.2-7.37-7-7.38Zm30.84,0v5.48h12.77V153h17.72V135.66H163v-5.48Zm66.79,0V153h43.55v-5.49H205.94V130.18ZM70.07,135.57H78a2.4,2.4,0,0,1,0,4.76H70.07v-4.77Z"/></g></g></g></g></svg>