<?xml version="1.0" encoding="UTF-8"?><svg xmlns="http://www.w3.org/2000/svg" viewBox="0 0 283.46 283.46"><defs><style>.p{fill:#0336ee;}.q{fill:#03aaed;}.r{fill:#020202;}.s{fill:#9624bb;}.t{fill:#fff;fill-rule:evenodd;}</style></defs><g id="a"/><g id="b"><g id="c"><g id="d"><rect class="r" width="283.46" height="283.46"/><g id="e"><g id="f"><g id="g"><rect id="h" class="p" x="42.52" y="124.29" width="62.01" height="34.88"/><path id="i" class="t" d="M76.21,141.03c2.66,0,3.96-.86,3.96-2.61s-1.3-2.59-3.96-2.59h-11.67v5.19h11.67Zm-15.98-8.72h16.54c5.04,0,7.84,2.26,7.84,6.06,0,3.26-2.1,5.44-5.69,5.95l8.11,6.84h-6.22l-7.63-6.6h-8.64v6.6h-4.31v-18.85Z"/></g><g id="j"><rect id="k" class="s" x="178.94" y="124.29" width="62.01" height="34.88"/><polygon id="l" class="t" points="198.27 132.31 202.58 132.31 202.58 147.44 221.72 147.44 221.72 151.16 198.27 151.16 198.27 132.31"/></g><g id="m"><rect id="n" class="q" x="110.76" y="124.29" width="61.95" height="34.88"/><polygon id="o" class="t" points="139.58 136.02 128.68 136.02 128.68 132.31 154.78 132.31 154.78 136.02 143.88 136.02 143.88 151.16 139.58 151.16 139.58 136.02"/></g></g></g></g></g></g></svg>