<svg xmlns="http://www.w3.org/2000/svg" xmlns:xlink="http://www.w3.org/1999/xlink" viewBox="0 0 283.46 283.46"><defs><style>.cls-1{fill:url(#radial-gradient);}.cls-2{fill:#119cf5;}.cls-3{fill:#fff;}</style><radialGradient id="radial-gradient" cx="623.04" cy="596.63" r="0.57" gradientTransform="matrix(500, 0, 0, -500, -311377.14, 298312.54)" gradientUnits="userSpaceOnUse"><stop offset="0" stop-color="#004f71"/><stop offset="1" stop-color="#061521"/></radialGradient></defs><title>rtl2</title><g id="Layer_2" data-name="Layer 2"><g id="RTL_Group" data-name="RTL Group"><g id="rtl2"><rect id="blue" class="cls-1" width="283.46" height="283.46"/><rect class="cls-2" width="283.46" height="283.46"/><g id="logo"><path class="cls-3" d="M42.52,205v30.66H65.08V224.37h6.25L82,235.62h19.41l-13.13-10s10.65,0,10.65-10.65c0,0,0-10-8.76-10H42.52ZM65,211.21h10a3.08,3.08,0,0,1,3.14,3.14c0,3.11-3.77,3.74-3.77,3.74H65Z"/><path class="cls-3" d="M190.87,205v30.66h50.07V230H213.43V205.55H190.9Z"/><path class="cls-3" d="M114.49,205v5.62h15.64V235h22.53V210.58h16.27V205Z"/><path class="cls-3" d="M141.41,47.85A70.12,70.12,0,1,0,211.53,118,70,70,0,0,0,141.41,47.85ZM112.63,88.5h22.56v58.21H112.63Zm35.66,0h22.56v58.21H148.29Z"/></g></g></g></g></svg>