<svg xmlns="http://www.w3.org/2000/svg" viewBox="0 0 283.46 283.46"><defs><style>.cls-1{fill:#46a7da;}.cls-2{fill:#fff;}.cls-3{fill:#000205;}</style></defs><title>rtlcrime</title><g id="Layer_2" data-name="Layer 2"><g id="RTL_Group" data-name="RTL Group"><g id="rtlcrime"><path class="cls-1" d="M0,283.46H283.46V0H0Z"/><g id="logo"><path class="cls-2" d="M117.23,140.94c0-5.35,1.84-8.48,5.69-8.47,3,0,4.06,2.17,4.82,4.93l7.33-2.16c-1.19-5.12-4.28-9.14-12.11-9.17-7.28,0-13.46,4.34-13.47,14.85a18.93,18.93,0,0,0,1.42,7.77l7.89-1.22a11.61,11.61,0,0,1-1.57-6.53"/><path class="cls-2" d="M150.48,139.5h-3.33l0-6.55h3.33c3.18,0,4.57.86,4.56,3.27s-1.4,3.29-4.58,3.28m.3-12.82-11.19,0,0,17.59,22-3.45a9.79,9.79,0,0,0,1-4.75c0-6.9-4.47-9.34-11.84-9.36"/><path class="cls-2" d="M167.68,126.72l0,13.13,7.75-1.21,0-11.91Z"/><path class="cls-2" d="M191.28,126.77l-10.27,0,0,11,12.61-2Z"/><path class="cls-2" d="M200.93,126.79,199,135,211.42,133v-6.2Z"/><path class="cls-2" d="M131.21,145.73l-.59,1.93c-.88,2.32-2.16,3.54-4.57,3.53A4.84,4.84,0,0,1,121.9,149L114,150.26c2.18,4.94,6.65,7.11,12,7.14,7.83,0,11.14-4.21,12.54-10Z"/><path class="cls-2" d="M142.62,156.89h7.6l0-10h2.13l5.52,10h8.21L160,146a7.71,7.71,0,0,0,4.63-3.61l-22,3.44Z"/><path class="cls-2" d="M170.71,156.94l7.75,0,0-16.76-7.75,1.2Z"/><path class="cls-2" d="M199.45,147.79h-.08l-2.68-10.44-12.6,2L184,157l6.9,0,0-18.13h.08a53.23,53.23,0,0,0,1.61,7.36L195.59,157l6.82,0,3.05-10.78a53.11,53.11,0,0,0,1.56-7h.08l0,17.74h7.41l0-22.47-12.4,2Z"/><path class="cls-2" d="M227.59,145.53l9.07,0v-6l-9.07,0v-4.65l12.71,0v-4.32l-20.46,3.2-.06,23.32,21.12,0v-6.23l-13.37,0Z"/><path class="cls-2" d="M237.24,126.87l-20.46,0v5.35L237.23,129Z"/><path class="cls-3" d="M52.2,141.3c4.51,0,7-1.24,7-5.16s-2.48-5.06-7.06-5.06H45.9V141.3ZM42.52,128h9.87c6.53,0,10.23,2.75,10.23,8,0,4.63-2.61,7-6.69,7.9L63,156.73H59.28l-6.89-12.4H45.9v12.4H42.52Z"/><path class="cls-3" d="M74.79,131.12H65.67V128H87.39v3.15H78.22v25.61H74.79Z"/><path class="cls-3" d="M92.1,128h3.41v25.66h13.85v3.1H92.1Z"/></g></g></g></g></svg>