<svg xmlns="http://www.w3.org/2000/svg" viewBox="0 0 283.46 283.46"><defs><style>.cls-1{fill:#f8b72e;}.cls-2{fill:#815012;}.cls-3{fill:#fff;}.cls-4{fill:none;stroke:#fff;stroke-miterlimit:10;stroke-width:0.1px;}</style></defs><title>rtlliving</title><g id="Layer_2" data-name="Layer 2"><g id="RTL_Group" data-name="RTL Group"><g id="rtlliving"><path class="cls-1" d="M0,0V283.46H283.46V0Z"/><g id="logo"><path class="cls-2" d="M52.58,142.41c4.1,0,7.13-2.06,7.13-5.6v-.06c0-3.29-2.59-5.35-7-5.35H44.33v11ZM42.52,129.72H52.8a9.59,9.59,0,0,1,6.88,2.42,6.44,6.44,0,0,1,1.85,4.54v.07c0,4.08-3,6.42-7.17,7l8.08,10.45H60.13L52.33,144h-8v10.14H42.52Z"/><path class="cls-2" d="M74.21,131.4H65.68v-1.68H84.55v1.68H76v22.78H74.21Z"/><path class="cls-2" d="M90.08,129.72h1.81v22.79h14.36v1.68H90.08Z"/><path class="cls-3" d="M112.78,154.18v-4.13h3.83V125.49H113v-4.13h8v28.69h3.55v4.13Z"/><path class="cls-3" d="M129.26,154.18v-4.13h3.54V134h-3.54v-4.14h8v20.18h3.6v4.13Z"/><path class="cls-3" d="M167.08,134l-8.17,20.17h-4.77l-8-20.17h-3.49v-4.13h11.27V134H151l5.55,14.66L162.35,134h-3.1v-4.13h11.18V134Z"/><path class="cls-3" d="M173.38,152.31c3.09-.26,3.91-1.29,3.91-4.61V135.23h-3.48v-1.48l6.24-4h1.41V147.7c0,3.32.81,4.35,3.85,4.61v2H173.43Z"/><path class="cls-3" d="M189.07,152.31c2.82-.26,3.64-1.29,3.64-4.61V135.39h-3.58V134l6.23-4.34h1.47V136c4.88-5.38,8.08-6.35,10-6.35,3.2,0,5.59,2.6,5.59,6.13V147.7c0,3.32.76,4.29,3.42,4.61v2H204.37v-2c3-.32,3.85-1.29,3.85-4.61V137.61c0-3-1-4.34-3.25-4.34s-4.34,1.31-8.08,5.15v9.28c0,3.32.8,4.35,3.74,4.61v2H189.07Z"/><path class="cls-3" d="M223.15,137.91c0,3.55,2.4,6.41,5.65,6.41,2.75,0,4.94-2.31,4.94-5.51,0-3.35-2.39-6.3-5.34-6.3a5.23,5.23,0,0,0-5.25,5.4m2.85,15.9c-2.21,1.45-3.6,3.25-3.6,4.7,0,2.05,2,3.21,5.69,3.21,4.7,0,9-2.31,9-4.86,0-1.8-1.71-2.39-8.25-2.86-.4,0-.91,0-1.35-.08Zm-1.61-8.1c-3.34-1.51-5-3.9-5-7.09,0-4.51,4.3-8.26,9.45-8.26a9.49,9.49,0,0,1,6.74,2.65l4.36-2.19a1.57,1.57,0,0,1,.69-.26c.26,0,.35.21.35.61v2.19c0,.51-1.59.86-4.34,1a8,8,0,0,1,1,3.9c0,4.51-4.1,8.15-9.19,8.15a10.89,10.89,0,0,1-2-.21l-.6.47c-1.55,1.19-2.25,1.94-2.25,2.55,0,.84.55.88,6,1.29l1.35.1c4.59.35,9.15.71,9.15,4.7,0,4.85-6,8.35-14.2,8.35-4.2,0-6.85-1.5-6.85-3.9,0-1.65,1.85-3.7,5.45-6-3.85-.75-5.35-1.05-5.35-2.65,0-.84.94-1.84,4.1-4.39Z"/><path class="cls-4" d="M223.15,137.91c0,3.55,2.4,6.41,5.65,6.41,2.75,0,4.94-2.31,4.94-5.51,0-3.35-2.39-6.3-5.34-6.3a5.23,5.23,0,0,0-5.25,5.4ZM226,153.82c-2.21,1.44-3.6,3.24-3.6,4.69,0,2.05,2,3.21,5.69,3.21,4.7,0,9-2.31,9-4.86,0-1.8-1.71-2.39-8.25-2.86-.4,0-.91,0-1.35-.08Zm-1.61-8.11c-3.34-1.51-5-3.9-5-7.09,0-4.51,4.3-8.26,9.45-8.26a9.49,9.49,0,0,1,6.74,2.65l4.36-2.19a1.57,1.57,0,0,1,.69-.26c.26,0,.35.21.35.61v2.19c0,.51-1.59.86-4.34,1a8,8,0,0,1,1,3.9c0,4.51-4.1,8.15-9.19,8.15a10.89,10.89,0,0,1-2-.21l-.6.47c-1.55,1.19-2.25,1.94-2.25,2.55,0,.84.55.88,6,1.29l1.35.1c4.59.35,9.15.71,9.15,4.7,0,4.85-6,8.35-14.2,8.35-4.2,0-6.85-1.5-6.85-3.9,0-1.65,1.85-3.7,5.45-6-3.85-.75-5.35-1.05-5.35-2.65,0-.84.94-1.84,4.1-4.39Z"/><path class="cls-3" d="M177.18,122.4a2.6,2.6,0,0,1,2.6-2.59,2.64,2.64,0,0,1,2.65,2.59,2.63,2.63,0,1,1-5.25,0"/><path class="cls-3" d="M131.92,122.4a2.6,2.6,0,0,1,2.6-2.59,2.63,2.63,0,1,1-2.6,2.59"/></g></g></g></g></svg>