<svg xmlns="http://www.w3.org/2000/svg" viewBox="0 0 283.46 283.46"><defs><style>.cls-1{fill:#cb2367;}.cls-2{fill:#63103c;}.cls-3{fill:#fff;}</style></defs><title>rtlpassion</title><g id="Layer_2" data-name="Layer 2"><g id="RTL_Group" data-name="RTL Group"><g id="rtlpassion"><path class="cls-1" d="M0,0V283.46H283.46V0Z"/><g id="logo"><path class="cls-2" d="M51.49,143c3.64,0,6.35-1.84,6.35-5V138c0-2.93-2.31-4.77-6.27-4.77H44.14V143Zm-9-11.29h9.15a8.53,8.53,0,0,1,6.14,2.14,5.77,5.77,0,0,1,1.64,4V138c0,3.64-2.7,5.72-6.38,6.22l7.2,9.31H58.22l-7-9H44.14v9H42.52Z"/><path class="cls-2" d="M70.35,133.2h-7.6v-1.5H79.57v1.5H72v20.3H70.35Z"/><path class="cls-2" d="M84.48,131.7H86.1V152H98.9v1.5H84.48Z"/><path class="cls-3" d="M112.41,143c4.2,0,7-2.2,7-5.55v-.07c0-3.58-2.78-5.46-6.86-5.46h-6.39V143Zm-7.88-12.63h8.21c5,0,8.4,2.54,8.4,6.91v.07c0,4.76-4.11,7.2-8.83,7.2h-6.1V153h-1.68Z"/><path class="cls-3" d="M138,145.13,132,132l-6,13.09Zm-6.72-14.94h1.61L143.38,153h-1.85l-2.87-6.34H125.31L122.43,153h-1.74Z"/><path class="cls-3" d="M145.73,149.68l1.1-1.26a11,11,0,0,0,8.11,3.37c3.4,0,5.73-1.92,5.73-4.5v-.06c0-2.39-1.27-3.79-6.4-4.81-5.43-1.11-7.63-2.94-7.63-6.38V136c0-3.36,3.07-5.94,7.27-5.94a11.33,11.33,0,0,1,7.76,2.74l-1.07,1.33a9.69,9.69,0,0,0-6.75-2.56c-3.33,0-5.53,1.91-5.53,4.26v.07c0,2.4,1.23,3.85,6.59,4.94s7.44,3,7.44,6.24v.07c0,3.65-3.14,6.17-7.5,6.17a12.87,12.87,0,0,1-9.12-3.62"/><path class="cls-3" d="M165.61,149.68l1.1-1.26a11,11,0,0,0,8.11,3.37c3.39,0,5.72-1.92,5.72-4.5v-.06c0-2.39-1.26-3.79-6.39-4.81-5.44-1.11-7.64-2.94-7.64-6.38V136c0-3.36,3.08-5.94,7.28-5.94a11.32,11.32,0,0,1,7.75,2.74l-1.06,1.33a9.71,9.71,0,0,0-6.76-2.56c-3.32,0-5.52,1.91-5.52,4.26v.07c0,2.4,1.23,3.85,6.59,4.94s7.43,3,7.43,6.24v.07c0,3.65-3.13,6.17-7.5,6.17a12.83,12.83,0,0,1-9.11-3.62"/><path class="cls-3" d="M187.49,130.36h1.68V153h-1.68Z"/><path class="cls-3" d="M215.8,141.73v-.07c0-5.58-4.07-10.17-9.66-10.17s-9.6,4.52-9.6,10.12v0c0,5.6,4.07,10.19,9.66,10.19s9.6-4.52,9.6-10.12m-21,0v-.07c0-6.17,4.55-11.69,11.4-11.69s11.35,5.45,11.35,11.64v0c0,6.17-4.56,11.71-11.41,11.71s-11.34-5.47-11.34-11.64"/><path class="cls-3" d="M222.13,130.36h1.59L239.33,150V130.36h1.61V153h-1.25l-15.94-20.1V153h-1.62Z"/></g></g></g></g></svg>