<?xml version="1.0" encoding="UTF-8"?><svg xmlns="http://www.w3.org/2000/svg" viewBox="0 0 283.46 283.46"><defs><style>.j{fill:#00bcf6;}.k{fill:#fff;}</style></defs><g id="a"/><g id="b"><g id="c"><g id="d"><rect class="j" width="283.46" height="283.46"/><g id="e"><g id="f"><path class="k" d="M57.99,185.99c5.6,0,9.68,3.08,9.68,8.5,0,4.08-1.85,7.17-5.65,8.26v.09c2.14,.47,3.61,1.42,4.37,3.94,.38,1.14,.57,2.8,.62,4.79,.19,3.84,.62,5.51,1.76,6.98h-4.75c-.57-.57-.71-1.76-.76-2.52l-.19-3.89c0-.43-.33-3.08-1-4.84-.66-1.71-2.23-2.71-4.51-2.71h-10.73v13.91h-4.32v-32.51h15.47Zm-1.95,15c4.79,0,7.31-1.71,7.31-5.79,0-3.56-2.14-5.55-5.7-5.55h-10.82v11.34h9.21Zm38.44-15v3.65h-10.87v28.85h-4.32v-28.85h-10.82v-3.65h26.01Zm6.55,0v28.9h17.23v3.65h-21.55v-32.51h4.32v-.05Zm48.79,0v7.31l-15.23,16.9h15.99v8.35h-29.04v-7.83l15.14-16.33h-14.24v-8.35h27.38v-.05Zm12.34,0l3.94,20.08h.09l3.94-20.08h8.83l3.84,20.36h.09l4.03-20.36h9.87l-9.11,32.51h-9.73l-3.51-19.79h-.09l-3.42,19.79h-9.78l-8.83-32.51h9.82Zm64.12,0v8.35h-16.9v4.03h15.33v7.74h-15.33v4.03h17.42v8.35h-27.43v-32.51h26.91Zm14.66,0v32.51h-10.01v-32.51h10.01Z"/></g><g id="g"><g id="h"><path class="k" d="M137.67,98l-16.14,3.13v40.34l16.14-3.13v-40.34Zm8.07-1.57v40.34l16.14-3.13v-40.34l-16.14,3.13Z"/></g><g id="i"><path class="k" d="M105.4,81.06h40.34v-16.14h-56.48v104.93h32.27v-16.14h-16.14V81.06Zm56.48-16.14v16.14h16.18v72.66h-40.39v16.14h56.52V64.92h-32.32Z"/></g></g></g></g></g></g></svg>