<svg xmlns="http://www.w3.org/2000/svg" viewBox="0 0 283.46 283.46"><defs><style>.cls-1{fill:#ebad00;}.cls-2{fill:#fff;}</style></defs><title>sat1gold</title><g id="Layer_2" data-name="Layer 2"><g id="ProSiebenSat.1"><g id="sat1gold"><rect class="cls-1" width="283.46" height="283.46"/><g id="logo"><path id="D" class="cls-2" d="M198.25,141.73l0,23.67H211a23.31,23.31,0,0,0,9.17-1.86,23.87,23.87,0,0,0,7.54-5.08A23.68,23.68,0,0,0,211,118l-16,0h-.34v-5.89h16.64a29.47,29.47,0,0,1,11.53,2.29c.41.18.78.38,1.18.57a1.34,1.34,0,0,1,.24.12,25.28,25.28,0,0,1,2.35,1.27l.09,0c.78.48,1.54,1,2.28,1.54a.24.24,0,0,0,.08.06c.71.54,1.39,1.1,2.05,1.7a1.54,1.54,0,0,1,.19.17c.32.29.65.57,1,.87s.58.64.86,1l.19.2c.59.66,1.15,1.34,1.69,2a.24.24,0,0,0,.06.08c.55.74,1.06,1.5,1.54,2.28a.41.41,0,0,0,0,.09c.46.77.89,1.55,1.29,2.36l.1.22c.19.4.4.78.57,1.19a29.79,29.79,0,0,1,0,23.05c-.17.41-.38.79-.57,1.19l-.1.22c-.4.81-.83,1.59-1.29,2.36a.41.41,0,0,0,0,.09c-.48.78-1,1.54-1.54,2.28a.24.24,0,0,0-.06.08c-.54.7-1.1,1.39-1.7,2.05l-.17.19c-.29.32-.56.65-.87,1s-.64.58-1,.87l-.18.17c-.67.59-1.35,1.16-2.06,1.7l-.08.06c-.74.54-1.5,1.06-2.28,1.53l-.09.06c-.77.46-1.55.89-2.35,1.28l-.24.11c-.39.19-.77.4-1.18.57a29.51,29.51,0,0,1-11.53,2.33H211l-18.58,0V141.73Z"/><polygon id="L" class="cls-2" points="157.8 112.12 151.9 112.12 151.9 171.32 188.34 171.32 188.34 165.42 157.8 165.42 157.8 112.12"/><g id="O"><path id="O2" class="cls-2" d="M141.13,156.42a24.62,24.62,0,0,1-39.6,0h-7a30.59,30.59,0,0,0,53.65,0Z"/><path id="O1" class="cls-2" d="M101.49,127.1a24.62,24.62,0,0,1,39.69,0h7a30.59,30.59,0,0,0-53.72,0Z"/></g><path id="G" class="cls-2" d="M81.55,138.78v5.9H85.2V165.4H72.48a23.27,23.27,0,0,1-9.17-1.86,23.76,23.76,0,0,1-7.54-5.08A23.68,23.68,0,0,1,72.48,118l16,0h.35v-5.89H72.14a29.47,29.47,0,0,0-11.53,2.29c-.4.18-.78.38-1.17.57a1.34,1.34,0,0,0-.24.12,26.8,26.8,0,0,0-2.36,1.27l-.08,0c-.79.48-1.54,1-2.28,1.54l-.08.06c-.71.54-1.4,1.1-2.06,1.7l-.19.17c-.32.29-.65.57-.95.87s-.58.64-.87,1l-.18.2c-.59.66-1.16,1.34-1.69,2a.27.27,0,0,1-.07.08c-.54.74-1.06,1.5-1.53,2.28l0,.09c-.47.77-.89,1.55-1.29,2.36l-.1.22c-.19.4-.4.78-.57,1.19a29.67,29.67,0,0,0,0,23.05c.17.41.38.79.57,1.19l.1.22c.4.81.82,1.59,1.29,2.36l0,.09c.48.78,1,1.54,1.54,2.28l.06.08c.53.7,1.1,1.39,1.69,2.05l.18.19c.29.32.56.65.87,1s.64.58.95.87l.19.17c.66.59,1.35,1.16,2.06,1.7l.08.06c.74.54,1.49,1.06,2.28,1.53l.08.06c.77.46,1.55.89,2.36,1.28a1.75,1.75,0,0,0,.24.11c.39.19.77.4,1.17.57a29.51,29.51,0,0,0,11.53,2.33h.34l18.59,0V138.78Z"/><g id="SAT.1"><rect id="Punkt" class="cls-2" x="133.82" y="146.93" width="1.7" height="1.86"/><path id="S" class="cls-2" d="M105.92,140.5a4.63,4.63,0,0,1-2.36-1.06,2.36,2.36,0,0,1,.19-2.88,3.41,3.41,0,0,1,2.2-.67,2.68,2.68,0,0,1,1.81.55.9.9,0,0,1,.26.66v.42l1.83,0v-.43a2.57,2.57,0,0,0-.76-1.86,4.62,4.62,0,0,0-3.26-1.14,4.93,4.93,0,0,0-3.33,1.12,4.14,4.14,0,0,0-.23,5.45,6.3,6.3,0,0,0,3.19,1.5c2.11.54,3.13,1.5,3.11,3a2,2,0,0,1-.77,1.6,3.83,3.83,0,0,1-3.48.44,1.56,1.56,0,0,1-1.17-1.32l0-.39-1.78-.05v.43a3.09,3.09,0,0,0,2.27,2.93,7.45,7.45,0,0,0,2.17.33,5,5,0,0,0,3.18-1,4,4,0,0,0,1.43-3C110.42,142.05,108,141,105.92,140.5Z"/><path id="A" class="cls-2" d="M122.2,136.92l0-.09h0a2.81,2.81,0,0,0-1.39-2,6.33,6.33,0,0,0-3.15-.71,6.41,6.41,0,0,0-3.17.71,2.7,2.7,0,0,0-1.42,2.39v11.68h1.82v-5.4h5.54v5.4h1.82V137.24Zm-7.34.33a1,1,0,0,1,.55-.84,4.62,4.62,0,0,1,2.21-.45,4.51,4.51,0,0,1,2.21.45,1,1,0,0,1,.57.84v4.46h-5.54Z"/><polygon id="T" class="cls-2" points="124.34 136.01 128.07 136.01 128.04 148.83 128.04 148.93 129.87 148.93 129.91 136.01 133.65 136.01 133.65 134.31 124.34 134.31 124.34 136.01"/><polygon id="_1" data-name="1" class="cls-2" points="137.18 134.31 137.18 136.16 139.26 136.16 139.26 148.93 141.11 148.93 141.11 134.31 137.18 134.31"/></g></g></g></g></g></svg>