<svg xmlns="http://www.w3.org/2000/svg" viewBox="0 0 283.46 283.46"><defs><style>.cls-1{fill:#bb9456;}.cls-2{fill:#fff;}</style></defs><title>sat1gold</title><g id="Layer_2" data-name="Layer 2"><g id="ProSiebenSat.1"><g id="sat1gold"><rect class="cls-1" width="283.46" height="283.46"/><g id="logo"><path id="D" class="cls-2" d="M198.25,141.73l0,23.67H211a23.38,23.38,0,0,0,9.17-1.86,23.91,23.91,0,0,0,7.54-5.08A23.68,23.68,0,0,0,211,118l-16,0h-.34v-5.88l16.3,0h.34a29.45,29.45,0,0,1,11.53,2.29c.4.17.78.38,1.17.56l.24.12c.81.38,1.59.82,2.35,1.28l.09.05q1.18.72,2.28,1.54l.08.06c.71.53,1.39,1.1,2.05,1.7l.19.17c.32.29.65.56,1,.87s.58.64.86,1l.18.2c.59.66,1.15,1.34,1.69,2l.06.08c.55.73,1.06,1.49,1.54,2.28l.05.09q.69,1.15,1.29,2.36l.1.23c.19.39.4.77.57,1.18a29.7,29.7,0,0,1,0,23.06c-.17.41-.38.79-.57,1.19l-.1.22q-.59,1.22-1.29,2.37l-.05.09c-.47.78-1,1.54-1.54,2.28l-.06.08c-.54.71-1.1,1.39-1.69,2.06l-.17.19c-.29.32-.56.65-.87,1s-.64.58-1,.87l-.19.17c-.67.59-1.34,1.16-2.05,1.69l-.08.06c-.74.54-1.5,1.06-2.28,1.54l-.09.05c-.77.46-1.55.89-2.35,1.28l-.24.11c-.39.19-.77.4-1.18.57a29.44,29.44,0,0,1-11.53,2.33H192.4V141.73Z"/><polygon id="L" class="cls-2" points="157.8 112.12 151.9 112.12 151.9 171.32 188.34 171.32 188.34 165.42 157.8 165.42 157.8 112.12"/><g id="O"><path id="O2" class="cls-2" d="M141.13,156.42a24.61,24.61,0,0,1-39.6,0h-7a30.59,30.59,0,0,0,53.65,0Z"/><path id="O1" class="cls-2" d="M101.49,127.1a24.62,24.62,0,0,1,39.69,0h7a30.59,30.59,0,0,0-53.72,0Z"/></g><path id="G" class="cls-2" d="M81.55,138.78v5.9H85.2V165.4H72.48a23.38,23.38,0,0,1-9.17-1.86,23.9,23.9,0,0,1-7.54-5.08A23.68,23.68,0,0,1,72.48,118l16,0h.35v-5.88l-16.3,0h-.35a29.44,29.44,0,0,0-11.53,2.29c-.4.17-.78.38-1.17.56l-.24.12c-.81.38-1.59.82-2.35,1.28l-.08.05c-.78.48-1.54,1-2.28,1.54l-.08.06q-1.07.8-2.06,1.7l-.18.17c-.32.29-.65.56-1,.87s-.58.64-.87,1l-.18.2c-.59.66-1.16,1.34-1.69,2l-.06.08c-.55.73-1.06,1.49-1.54,2.28l0,.09c-.47.77-.89,1.56-1.29,2.36l-.11.23c-.19.39-.4.77-.57,1.18a29.74,29.74,0,0,0,0,23.06c.17.41.38.79.57,1.19l.1.22c.4.81.82,1.6,1.29,2.37l0,.09c.48.78,1,1.54,1.54,2.28l.06.08q.8,1.06,1.7,2.06l.17.19c.29.32.56.65.87,1s.64.58,1,.87l.18.17c.66.59,1.35,1.16,2.06,1.69l.08.06c.74.54,1.5,1.06,2.28,1.54l.08.05q1.15.7,2.36,1.28l.23.11c.39.19.77.4,1.18.57a29.43,29.43,0,0,0,11.53,2.33H91.07V138.78Z"/><g id="SAT.1"><rect id="Punkt" class="cls-2" x="133.82" y="146.93" width="1.7" height="1.86"/><path id="S" class="cls-2" d="M105.92,140.5a4.64,4.64,0,0,1-2.36-1.07,2.35,2.35,0,0,1,.19-2.87,3.41,3.41,0,0,1,2.2-.67,2.64,2.64,0,0,1,1.81.55.88.88,0,0,1,.26.66v.42l1.83,0v-.43a2.56,2.56,0,0,0-.76-1.86,4.6,4.6,0,0,0-3.26-1.14,5,5,0,0,0-3.33,1.12,4.14,4.14,0,0,0-.23,5.45,6.26,6.26,0,0,0,3.19,1.5c2.11.54,3.12,1.5,3.11,3a2.08,2.08,0,0,1-.77,1.6,3.84,3.84,0,0,1-3.48.44,1.58,1.58,0,0,1-1.17-1.33l0-.39-1.78,0v.42a3.09,3.09,0,0,0,2.27,2.93,7.4,7.4,0,0,0,2.17.33,5,5,0,0,0,3.17-1,3.91,3.91,0,0,0,1.43-3C110.42,142,108,141,105.92,140.5Z"/><path id="A" class="cls-2" d="M122.2,136.92l0-.09h0a2.78,2.78,0,0,0-1.39-2,7.38,7.38,0,0,0-6.32,0,2.72,2.72,0,0,0-1.43,2.39v11.68h1.82v-5.4h5.54v5.4h1.83V137.24Zm-7.34.33a1,1,0,0,1,.55-.84,4.63,4.63,0,0,1,2.21-.45,4.57,4.57,0,0,1,2.21.45,1,1,0,0,1,.56.84v4.45h-5.54Z"/><polygon id="T" class="cls-2" points="124.34 136.01 128.07 136.01 128.04 148.83 128.04 148.93 129.87 148.93 129.91 136.01 133.65 136.01 133.65 134.31 124.34 134.31 124.34 136.01"/><polygon id="_1" data-name="1" class="cls-2" points="137.18 134.31 137.18 136.16 139.26 136.16 139.26 148.93 141.11 148.93 141.11 134.31 137.18 134.31"/></g></g></g></g></g></svg>