<svg xmlns="http://www.w3.org/2000/svg" viewBox="0 0 283.46 283.46"><defs><style>.cls-1{fill:#a4e410;}.cls-2{fill:#fff;}</style></defs><title>sixxaustria</title><g id="Layer_2" data-name="Layer 2"><g id="ProSiebenSat.1-Regional"><g id="sixxaustria"><rect class="cls-1" width="283.46" height="283.46"/><g id="logo"><path class="cls-2" d="M165,159.52a1,1,0,1,0-1.95,0v1.57h0v7.14a2.78,2.78,0,0,1-.83,2,2.74,2.74,0,0,1-2,.83h-6.49a2.83,2.83,0,0,1-2.84-2.85v-8.7h0a1,1,0,0,0-2,0h0v8.7a4.76,4.76,0,0,0,4.81,4.82h6.49a4.49,4.49,0,0,0,3.43-1.49A5.06,5.06,0,0,0,165,168v-8.49h0Z"/><path class="cls-2" d="M142,158.54H137.3a4.48,4.48,0,0,0-3.43,1.48,5.06,5.06,0,0,0-1.37,3.55v8.49h0a1,1,0,0,0,2,0V170.5h0v-1.68h10.41v3.25h0a1,1,0,1,0,2,0h0v-8.71a4.75,4.75,0,0,0-4.8-4.81Zm-7.57,8.3v-3.49a2.85,2.85,0,0,1,2.84-2.85H142a2.71,2.71,0,0,1,2,.84,2.74,2.74,0,0,1,.83,2v3.49Z"/><path class="cls-2" d="M183.85,158.54H181a4.45,4.45,0,0,0-3.39,1.43,5,5,0,0,0-1.34,3.5v2.25q0,1.36,0,2.25a3.74,3.74,0,0,1-.8,2.16,2.35,2.35,0,0,1-1.93.94h-6.5a1,1,0,0,0,0,2h6.5a4.42,4.42,0,0,0,3.37-1.43,4.94,4.94,0,0,0,1.34-3.5v-4.5a3.7,3.7,0,0,1,.8-2.17,2.39,2.39,0,0,1,2-.93h2.83a1,1,0,1,0,0-2Z"/><path class="cls-2" d="M223.42,159.48a1,1,0,0,0-1.94,0v1.91h0v9.9h0v.76a1,1,0,1,0,1.94,0v-.76h0v-9.9h0Z"/><path class="cls-2" d="M216.59,169.87l-1.72-1.52a5,5,0,0,0,1.48-1,4.71,4.71,0,0,0,1.42-3.53,5.63,5.63,0,0,0-1.21-3.78,4.33,4.33,0,0,0-3.56-1.54h-4.8a4.58,4.58,0,0,0-3.51,1.53,5.18,5.18,0,0,0-1.41,3.63v6h0V172a1,1,0,1,0,2,0v-.92h0v-2.53l5.75.13.78,0,3.11,2.59h0l1.63,1.44a1.1,1.1,0,0,0,1.45-1.65Zm-11.27-3.06v-3.28a2.9,2.9,0,0,1,2.9-2.91h4.44a3.31,3.31,0,0,1,2.27.75,2.75,2.75,0,0,1,.85,2.17q0,3.27-3.25,3.27Z"/><path class="cls-2" d="M201.39,158.55H187.24a1,1,0,0,0,0,2h6.1v11.4h0v.1a1,1,0,0,0,2,0v-1h0V160.54h6a1,1,0,0,0,0-2Z"/><path class="cls-2" d="M239.47,159.93a4.61,4.61,0,0,0-3.41-1.39h-4.73A4.48,4.48,0,0,0,227.9,160a5.06,5.06,0,0,0-1.37,3.55v8.49h0a1,1,0,1,0,2,0V170.5h0v-1.68H238.9v3.25h0a1,1,0,0,0,2,0h0v-8.71A4.65,4.65,0,0,0,239.47,159.93Zm-11,6.91v-3.49a2.85,2.85,0,0,1,2.84-2.85h4.73a2.71,2.71,0,0,1,2,.84,2.74,2.74,0,0,1,.83,2v3.49Z"/><g id="Logo-2" data-name="Logo"><path class="cls-2" d="M90.9,119.44a7.15,7.15,0,0,0-7.15,7.15v13.26A14.72,14.72,0,0,1,69,154.57H46.73a4.21,4.21,0,1,1,0-8.41H68.18A7.16,7.16,0,0,0,75.33,139V125.75A14.73,14.73,0,0,1,90.06,111h10.52a4.21,4.21,0,0,1,0,8.41Z"/><path class="cls-2" d="M117.4,110.43a4.21,4.21,0,0,0-4.2,4.21V151a4.21,4.21,0,1,0,8.41,0V114.64A4.22,4.22,0,0,0,117.4,110.43Z"/><path class="cls-2" d="M239.5,147.78l-17.17-15,17.17-15a4.21,4.21,0,0,0-5.52-6.35l-18,15.76-18-15.76a4.21,4.21,0,0,0-5.52,6.35l17.17,15-17.17,15a4.21,4.21,0,0,0,5.52,6.35l18-15.75,18,15.75a4.21,4.21,0,0,0,5.52-6.35Z"/><path class="cls-2" d="M181.09,147.78l-17.16-15,17.16-15a4.21,4.21,0,1,0-5.52-6.35l-18,15.76-18-15.76A4.21,4.21,0,0,0,134,117.8l17.17,15-17.17,15a4.21,4.21,0,0,0,5.52,6.35l18-15.75,18,15.75a4.21,4.21,0,1,0,5.52-6.35Z"/></g></g></g></g></g></svg>