<svg xmlns="http://www.w3.org/2000/svg" viewBox="0 0 283.46 283.46"><defs><style>.cls-1{fill:#a4e410;}.cls-2{fill:#fff;}</style></defs><g id="Layer_2" data-name="Layer 2"><g id="ProSiebenSat.1"><g id="sixx"><rect class="cls-1" width="283.46" height="283.46"/><g id="logo"><path class="cls-2" d="M90.9,128.38a7.15,7.15,0,0,0-7.15,7.15v13.26A14.72,14.72,0,0,1,69,163.51H46.73a4.21,4.21,0,1,1,0-8.41H68.18a7.17,7.17,0,0,0,7.16-7.16V134.69A14.72,14.72,0,0,1,90.06,120h10.52a4.21,4.21,0,0,1,0,8.41Z"/><path class="cls-2" d="M117.4,119.37a4.21,4.21,0,0,0-4.2,4.21V159.9a4.21,4.21,0,0,0,8.41,0V123.58A4.22,4.22,0,0,0,117.4,119.37Z"/><path class="cls-2" d="M239.5,156.72l-17.17-15,17.17-15a4.21,4.21,0,0,0-5.52-6.35l-18,15.76-18-15.76a4.21,4.21,0,0,0-5.52,6.35l17.17,15-17.17,15a4.21,4.21,0,0,0,5.52,6.35l18-15.75,18,15.75a4.21,4.21,0,0,0,5.52-6.35Z"/><path class="cls-2" d="M181.09,156.72l-17.16-15,17.16-15a4.21,4.21,0,1,0-5.52-6.35l-18,15.76-18-15.76a4.2,4.2,0,0,0-5.51,6.35l17.16,15-17.17,15a4.21,4.21,0,0,0,5.52,6.35l18-15.75,18,15.75a4.21,4.21,0,1,0,5.52-6.35Z"/></g></g></g></g></svg>