<svg xmlns="http://www.w3.org/2000/svg" viewBox="0 0 283.46 283.46"><defs><style>.cls-1{fill:#034694;}.cls-2{fill:#fff;}</style></defs><g id="Layer_2" data-name="Layer 2"><g id="ARD_Regions" data-name="ARD Regions"><g id="srfernsehen"><rect class="cls-1" width="283.46" height="283.46"/><path id="logo" class="cls-2" d="M105.09,139.89c0,18.41-14.72,31.79-38.48,31.79a90.84,90.84,0,0,1-19.41-2l1-20.07A61.18,61.18,0,0,0,68,152.94c8,0,13.72-3.34,13.72-10,0-16.06-37.48-7.69-37.48-39.48C44.19,85.68,57.91,74,81.67,74a104.22,104.22,0,0,1,17.06,1.68L97.4,94.72A56.62,56.62,0,0,0,80.67,92c-9,0-13.39,4-13.39,9.37.34,14.72,37.81,9,37.81,38.48ZM189.41,170H163L140.56,133.2h-1V170H117.81V76c8-.67,18.07-.67,29.44-.67,22.09,0,35.47,8,35.47,27.77,0,12.72-8.36,23.09-20.74,26.1,2.67,3.69,5,7,7.36,10.71L189.41,170ZM160.3,104.76c0-7.36-4.35-11.71-14.39-11.71a31.14,31.14,0,0,0-6,.33v24.09c1,0,3.35.34,5.36.34,9.36,0,15.05-5,15.05-13ZM240.94,89.7a23.42,23.42,0,1,0-23.42,23.42A23.48,23.48,0,0,0,240.94,89.7Zm-3,0a20.08,20.08,0,1,1-20.07-20.08C228.9,69.29,237.93,78.32,237.93,89.7ZM203.8,84.35V89.7L211.5,87v17.4l15.39-5.69V76L203.8,84.35ZM42.52,180.71v36.48H189.08V180.71Z"/></g></g></g></svg>