<svg xmlns="http://www.w3.org/2000/svg" xmlns:xlink="http://www.w3.org/1999/xlink" viewBox="0 0 283.46 283.46"><defs><style>.cls-1{fill:url(#linear-gradient);}.cls-2{fill:#fff;}</style><linearGradient id="linear-gradient" x1="101.29" y1="24.61" x2="185.9" y2="269.65" gradientUnits="userSpaceOnUse"><stop offset="0" stop-color="#e7530e"/><stop offset="0.5" stop-color="#ce3532"/><stop offset="1" stop-color="#af0010"/></linearGradient></defs><title>superrtl</title><g id="Layer_2" data-name="Layer 2"><g id="RTL_Group" data-name="RTL Group"><g id="superrtl"><rect class="cls-1" width="283.46" height="283.46"/><g id="logo"><path id="text_RTL-4" data-name="text RTL-4" class="cls-2" d="M226.77,135.6v10.06h14.17v3H215.73V135.6h11m-14.41,0,0,3.08h-7.24v10h-10.3v-10h-7.29V135.6h24.81m-38.12,5.93H169.7v-2.92h4.42a1.47,1.47,0,0,1,.12,2.92m6.17,2.63.26,0a4.1,4.1,0,0,0,4-4.09,4.18,4.18,0,0,0-4.45-4.42H160.1V148.7h9.63v-4.3h2l5,4.3h10l-6.33-4.54"/><path class="cls-2" d="M132.47,136.82a4.42,4.42,0,0,0-.55,0l-1.89.07V141h1.65c2.53,0,3-.55,3-2.27S133.74,136.84,132.47,136.82Z"/><path class="cls-2" d="M97.41,137.08l-1.48.07v4.11h1.24c2.53,0,3-.55,3-2.27C100.21,137.08,98.92,137.06,97.41,137.08Z"/><path class="cls-2" d="M142.17,123.2H51.44a9,9,0,0,0-8.92,9.05v19a9,9,0,0,0,8.92,9.05h90.74c5.63,0,9-3.9,9-9.05v-19C151.21,126.86,147.8,123.44,142.17,123.2Zm-82.9,28.08c-2.2,0-4.06-.91-6.12-2.53l2.27-3.47a9.66,9.66,0,0,0,3.85,1.91c1.79.31,2.51-.31,2.84-1.05s-.38-1.24-1.7-1.72l-3.7-1.36a5.06,5.06,0,0,1-2.87-4.88c0-3.13,2.87-5.11,7.15-5.11a13.39,13.39,0,0,1,6,1.79l-2.17,3.49c-1.84-1.05-2.58-1.51-3.8-1.51-1.72,0-2.2.74-2.2,1.17a1.89,1.89,0,0,0,1.51,1.77l3.06,1c2.94,1,3.75,3.15,3.78,4.25C67.3,148.46,64.89,151.28,59.27,151.28Zm27.15-7c0,4.47-2.94,7-7.79,7s-7.89-2.58-7.86-7V133H76v11.38a2.6,2.6,0,0,0,2.65,2.77,2.52,2.52,0,0,0,2.65-2.77V133h5.16Zm11.09,1.15c-.41,0-1,0-1.58,0v5.83H90.87V133.12l7.07-.07a7.39,7.39,0,0,1,4,.84,5.4,5.4,0,0,1,3.3,5.14C105.25,143.18,102.12,145.47,97.51,145.47Zm23.8,5.81h-13V133h12.55v4.33l-7.38,0v2.39l7,0V144l-7,0v3l7.79,0Zm13.65,0L131.71,145c-.5,0-1.19,0-1.67,0v6.31h-5V133.12l7.55-.07a7.44,7.44,0,0,1,4,.81,5.08,5.08,0,0,1,3.3,4.9,5.52,5.52,0,0,1-3,5.21l3.78,7.31Z"/></g></g></g></g></svg>