<svg xmlns="http://www.w3.org/2000/svg" viewBox="0 0 283.46 283.46"><defs><style>.cls-1{fill:#fff;}</style></defs><g id="Layer_2" data-name="Layer 2"><g id="ARD_Regions" data-name="ARD Regions"><g id="swr"><rect width="283.46" height="283.46"/><g id="logo"><path class="cls-1" d="M153.22,114.9c-6.31,0-12,.08-16.4.39l-.21,0v52.81h12.55V147.65h.13L161.69,168l.06.11H177l-.22-.34-11.08-16.84c-1.26-1.85-2.54-3.72-3.87-5.65a14.68,14.68,0,0,0,11.2-14.62c0-5.6-1.83-9.57-5.24-12.12s-8.37-3.65-14.59-3.65Zm-.93,10.41c2.82,0,4.78.62,6.05,1.71a5.81,5.81,0,0,1,1.85,4.67,6.32,6.32,0,0,1-2.2,5,9.17,9.17,0,0,1-6,1.87c-1.09,0-2.19-.07-2.83-.14v-13c.72-.07,2-.14,3.13-.14Z"/><path class="cls-1" d="M63.63,114.19c-6.61,0-11.94,1.63-15.6,4.53a14.42,14.42,0,0,0-5.51,12.05,14.13,14.13,0,0,0,3.5,9.65,20.06,20.06,0,0,0,7.26,4.67,73.87,73.87,0,0,1,7.11,3c1.9,1.1,3.1,2.4,3.1,4.54a4.62,4.62,0,0,1-2.06,4A9.48,9.48,0,0,1,56.07,158,35.14,35.14,0,0,1,45,155.82l-.28-.1,0,.3-.54,11.47v.19l.18,0a49.23,49.23,0,0,0,10.85,1.17c6.73,0,12.16-1.91,15.92-5.11a16.49,16.49,0,0,0,5.8-12.85,13,13,0,0,0-3.32-9.25,21.14,21.14,0,0,0-7.29-4.75c-2.64-1.15-5.25-2-7.19-3.13A7.84,7.84,0,0,1,56.76,132a3.83,3.83,0,0,1-.85-2.45A4.13,4.13,0,0,1,57.67,126a9.22,9.22,0,0,1,5.5-1.42,39.19,39.19,0,0,1,9.91,1.63l.28.08V126l0-10.69v-.19l-.17,0a54.05,54.05,0,0,0-9.59-.93Z"/><path class="cls-1" d="M75.65,115.05l.08.52L85,168l0,.36h14.4l.08-.36L105,136.84,110.51,168l.08.36H125L125,168l9.27-52.41.08-.52h-13.1l-.05.39-4.86,29.81-4.82-29.81-.06-.39h-13l-.06.39-4.82,29.81L88.8,115.44l0-.39H75.65Z"/><path class="cls-1" d="M185.06,111.56v20.19l.14.14,9.88,9.84-9.88,9.88-.14.11v20.19l.78-.75L214.69,142l.33-.31-.33-.3L185.84,112.3l-.78-.74Z"/><path class="cls-1" d="M211,111.56v20.19l.14.14,9.84,9.84-9.84,9.88-.14.11v20.19l.74-.75L240.64,142l.3-.31-.3-.3L211.76,112.3l-.74-.74Z"/></g></g></g></g></svg>