<svg xmlns="http://www.w3.org/2000/svg" xmlns:xlink="http://www.w3.org/1999/xlink" viewBox="0 0 283.46 283.46"><defs><style>.cls-1{fill:#001a4b;}.cls-2{fill:url(#linear-gradient);}.cls-3{fill:#fff;}</style><linearGradient id="linear-gradient" x1="-141.85" y1="338.7" x2="-131.73" y2="344.18" gradientTransform="matrix(2.01, 0, 0, -2.01, 489.23, 827.99)" gradientUnits="userSpaceOnUse"><stop offset="0" stop-color="#fff"/><stop offset="1" stop-color="#fff" stop-opacity="0"/></linearGradient></defs><title>tagesschau24</title><g id="Layer_2" data-name="Layer 2"><g id="ARD"><g id="tagesschau24"><rect class="cls-1" width="283.46" height="283.46"/><g id="logo"><path class="cls-2" d="M217.73,118.52a23.21,23.21,0,1,0,23.21,23.21,23.21,23.21,0,0,0-23.21-23.21Zm0,4.64a18.57,18.57,0,1,1-18.57,18.57A18.57,18.57,0,0,1,217.73,123.16Z"/><path class="cls-3" d="M184,129.76a7.31,7.31,0,1,0,7.3,7.3A7.3,7.3,0,0,0,184,129.76Zm0,1.07a6.24,6.24,0,1,1-6.24,6.23A6.26,6.26,0,0,1,184,130.84Zm3,1.87-7.36,2.65v1.8l2.42-.87v5.5l4.94-1.74v-7.34Z"/><path class="cls-3" d="M132.3,130.82v19.92h3.48v-6.55c0-2.37,1.4-4.39,3.17-4.39,1.28,0,1.66.86,1.66,2.28v8.66h3.48v-9.51c0-2.37-1-4.33-4-4.33a4.79,4.79,0,0,0-4.46,2.53l-.06,0a13.28,13.28,0,0,0,.25-2.76v-5.82H132.3Z"/><path class="cls-3" d="M47.51,132.08l-2.05.58v4.5H42.52v1.62h2.94v8.15c0,2.81.79,4,3.52,4a12,12,0,0,0,2.51-.27v-1.78a7,7,0,0,1-1.93.25c-1.61,0-2.05-.62-2.05-3v-7.32h4v-1.62h-4v-5.08Z"/><path class="cls-3" d="M210.64,133.3a16.07,16.07,0,0,0-2.86.27,20.76,20.76,0,0,0-3,.75v3.75a13.74,13.74,0,0,1,2.63-1.31,6.67,6.67,0,0,1,2.26-.46,3.09,3.09,0,0,1,2.16.75,2.46,2.46,0,0,1,.81,1.93,3.08,3.08,0,0,1-.39,1.51A6,6,0,0,1,211,142l-6.26,5.53v3.23h12.46V147.5h-7.54l3.67-3.21a15.83,15.83,0,0,0,3-3.23,5.09,5.09,0,0,0,.73-2.63,4.53,4.53,0,0,0-1.7-3.77,7.46,7.46,0,0,0-4.77-1.35Z"/><path class="cls-3" d="M225.31,133.6l-6.85,10.23v3.79H226v3.1h4.19v-3.1h2.42V144.4h-2.42V133.6h-4.92Zm.73,3.63v7.17h-4.84Z"/><path class="cls-3" d="M114.27,136.87c-3.82,0-5.76,2-5.76,4.33,0,4.61,5.47,3.24,5.47,5.64,0,.9-.86,1.45-2.2,1.45a12,12,0,0,1-2.92-.39l-.08,2.86a18.63,18.63,0,0,0,2.84.25c3.71,0,6.05-1.8,6.05-4.48,0-4.39-5.55-3.43-5.55-5.64,0-.85.65-1.39,2-1.39a9.43,9.43,0,0,1,2.51.35l.1-2.76a15.36,15.36,0,0,0-2.47-.23Z"/><path class="cls-3" d="M152.74,136.87a14.83,14.83,0,0,0-4.86.82l.31,2.92a8.87,8.87,0,0,1,4-1.05c2,0,2.65.73,2.65,2.15v.73c-4.61,0-7.84,1.73-7.84,5,0,2.18,1.42,3.58,3.88,3.58a4.59,4.59,0,0,0,4.33-2.59l0,0a15.25,15.25,0,0,0-.14,2.28h3.29c-.05-1.12-.08-2.39-.08-3.48v-5.66c0-2.95-1.23-4.7-5.6-4.7Zm2.11,7.85v.33a3.13,3.13,0,0,1-2.9,3.27,1.41,1.41,0,0,1-1.6-1.44c0-1.09.81-2.16,4.5-2.16Z"/><path class="cls-3" d="M59.4,136.91a11.38,11.38,0,0,0-4.68,1l.19,1.81a8.22,8.22,0,0,1,4.14-1.18c2.35,0,3.09,1.14,3.09,3.19v1.12c-5.29,0-8.26,2-8.26,4.81,0,2.16,1.55,3.29,3.71,3.29a5,5,0,0,0,4.73-3.11h.07a18.29,18.29,0,0,0-.16,2.86h2c-.05-1.2,0-2.72,0-4.06v-5.33c0-2.57-1.07-4.41-4.81-4.41Zm2.74,7.47v.2c0,2.35-1.58,4.73-4,4.73a2,2,0,0,1-2.22-2c0-1.31,1.1-2.92,6.2-2.92Z"/><path class="cls-3" d="M74.25,136.91c-3.68,0-5.91,2.41-5.91,5.25a4.27,4.27,0,0,0,2,3.94,2.42,2.42,0,0,0-1.52,2.2,2.15,2.15,0,0,0,1.37,2,4.05,4.05,0,0,0-2.34,3.6c0,2.59,2.22,4,5.66,4,4.18,0,7.11-2.13,7.11-5,0-2.37-1.61-3.82-4.56-3.82H73.46c-1.69,0-2.47-.34-2.47-1.13a1.37,1.37,0,0,1,1-1.24,9.45,9.45,0,0,0,1.85.18c3.9,0,5.91-2.2,5.91-5.1a3.7,3.7,0,0,0-1.3-3h2.45v-1.62H76.3a8.45,8.45,0,0,0-2.05-.25Zm-.54,1.6c.14,0,.28,0,.43,0,2.24,0,3.57,1.24,3.57,3.42s-1.45,3.4-3.69,3.4-3.63-1.19-3.63-3.4a3.32,3.32,0,0,1,3.32-3.42Zm-1.85,12.27c.25,0,.6,0,.87,0h2.8c2.07,0,3.09.88,3.09,2.33,0,1.8-1.75,3.07-4.73,3.07-2.27,0-4-.93-4-2.67a3.17,3.17,0,0,1,1.92-2.74Z"/><path class="cls-3" d="M89,136.91c-3.77,0-5.94,3-5.94,7.11,0,4.75,2.18,6.94,6.28,6.94a11.8,11.8,0,0,0,4.47-.81l-.18-1.74a9.2,9.2,0,0,1-3.94.87c-3,0-4.64-1.7-4.5-5.76H94.3a7.56,7.56,0,0,0,.06-1c0-3-1.57-5.6-5.31-5.6Zm-.1,1.56A3.13,3.13,0,0,1,92.22,142H85.33c.33-2.13,1.71-3.52,3.62-3.52Z"/><path class="cls-3" d="M102.48,136.91c-3.44,0-5.29,1.71-5.29,4,0,4.83,6.59,2.8,6.59,6.07,0,1.42-1.35,2.28-3.32,2.28a11.72,11.72,0,0,1-3-.44l0,1.89a15.2,15.2,0,0,0,2.86.27c3.55,0,5.68-1.87,5.68-4.27,0-4.61-6.63-2.76-6.63-6,0-1.34,1-2.16,3-2.16a9,9,0,0,1,2.8.46l.06-1.76a14.65,14.65,0,0,0-2.65-.31Z"/><path class="cls-3" d="M126.73,136.91c-4.8,0-7,3.25-7,7.48,0,4.61,2.35,6.57,6.11,6.57a10.82,10.82,0,0,0,3.71-.62l-.27-3a6.1,6.1,0,0,1-2.67.58c-2.32,0-3.23-1.58-3.23-3.9,0-2.57,1.13-4.21,3.34-4.21a7.22,7.22,0,0,1,2.47.5l.35-3a10.65,10.65,0,0,0-2.8-.39Z"/><path class="cls-3" d="M162.15,137.17v9.53c0,2.37,1,4.33,4,4.33a4.91,4.91,0,0,0,4.6-2.74l0,0a14.6,14.6,0,0,0-.17,2.38h3.27V137.17h-3.5v6.55c0,2.37-1.36,4.39-3.13,4.39-1.31,0-1.7-.84-1.7-2.26v-8.68h-3.46Z"/></g></g></g></g></svg>