<svg xmlns="http://www.w3.org/2000/svg" xmlns:xlink="http://www.w3.org/1999/xlink" viewBox="0 0 283.46 283.46"><defs><style>.cls-1{fill:#001a4b;}.cls-2{fill:url(#linear-gradient);}.cls-3{fill:#fff;}</style><linearGradient id="linear-gradient" x1="-141.85" y1="338.7" x2="-131.73" y2="344.18" gradientTransform="matrix(2.01, 0, 0, -2.01, 489.23, 827.99)" gradientUnits="userSpaceOnUse"><stop offset="0" stop-color="#fff"/><stop offset="1" stop-color="#fff" stop-opacity="0"/></linearGradient></defs><title>tagesschau24</title><g id="Layer_2" data-name="Layer 2"><g id="ARD"><g id="tagesschau24"><rect class="cls-1" width="283.46" height="283.46"/><g id="logo"><path class="cls-2" d="M217.73,118.52a23.21,23.21,0,1,0,23.21,23.21,23.21,23.21,0,0,0-23.21-23.21Zm0,4.64a18.57,18.57,0,1,1-18.57,18.57A18.57,18.57,0,0,1,217.73,123.16Z"/><path class="cls-3" d="M184,129.76a7.32,7.32,0,1,0,7.3,7.31A7.31,7.31,0,0,0,184,129.76Zm0,1.08a6.24,6.24,0,1,1-6.24,6.23A6.26,6.26,0,0,1,184,130.84Zm3,1.87-7.36,2.65v1.8l2.42-.87v5.5l4.94-1.74v-7.34Z"/><path class="cls-3" d="M132.3,130.82v19.92h3.48v-6.55c0-2.37,1.4-4.39,3.17-4.39,1.28,0,1.66.86,1.66,2.28v8.66h3.48v-9.51c0-2.38-1-4.34-4-4.34a4.8,4.8,0,0,0-4.46,2.53l-.06,0a13.34,13.34,0,0,0,.25-2.75v-5.83Z"/><path class="cls-3" d="M47.51,132.08l-2,.58v4.5H42.52v1.61h2.94v8.15c0,2.81.8,4,3.53,4a12.2,12.2,0,0,0,2.5-.27v-1.78a7.09,7.09,0,0,1-1.92.25c-1.61,0-2.06-.62-2.06-3v-7.32h4v-1.61h-4v-5.08Z"/><path class="cls-3" d="M210.64,133.3a16.65,16.65,0,0,0-2.86.27,20.72,20.72,0,0,0-3,.75v3.75a13.66,13.66,0,0,1,2.63-1.31,6.86,6.86,0,0,1,2.26-.45,3.07,3.07,0,0,1,2.15.74,2.44,2.44,0,0,1,.81,1.93,3,3,0,0,1-.39,1.51A6,6,0,0,1,211,142l-6.25,5.53v3.23h12.45V147.5h-7.54l3.67-3.21a15.82,15.82,0,0,0,3-3.24,5.11,5.11,0,0,0,.73-2.63,4.53,4.53,0,0,0-1.7-3.77,7.48,7.48,0,0,0-4.77-1.35Z"/><path class="cls-3" d="M225.31,133.6l-6.85,10.23v3.79H226v3.1h4.19v-3.1h2.42V144.4h-2.42V133.6Zm.73,3.63v7.17h-4.85Z"/><path class="cls-3" d="M114.27,136.87c-3.82,0-5.76,2-5.76,4.34,0,4.61,5.47,3.23,5.47,5.63,0,.9-.86,1.45-2.2,1.45a11.85,11.85,0,0,1-2.92-.39l-.08,2.86a18.08,18.08,0,0,0,2.84.25c3.71,0,6-1.8,6-4.48,0-4.39-5.56-3.42-5.56-5.63,0-.85.65-1.39,2-1.39a9.34,9.34,0,0,1,2.51.35l.1-2.76a16,16,0,0,0-2.46-.23Z"/><path class="cls-3" d="M152.74,136.87a14.89,14.89,0,0,0-4.86.83l.31,2.92a8.94,8.94,0,0,1,4-1.05c2,0,2.65.73,2.65,2.15v.73c-4.61,0-7.84,1.72-7.84,5,0,2.19,1.42,3.58,3.88,3.58a4.57,4.57,0,0,0,4.33-2.59l.05,0a15.09,15.09,0,0,0-.14,2.28h3.29c0-1.12-.08-2.4-.08-3.49v-5.65c0-3-1.23-4.71-5.6-4.71Zm2.11,7.86v.33a3.13,3.13,0,0,1-2.9,3.27,1.41,1.41,0,0,1-1.6-1.44c0-1.1.82-2.16,4.5-2.16Z"/><path class="cls-3" d="M59.4,136.91a11.38,11.38,0,0,0-4.67,1l.19,1.82a8.17,8.17,0,0,1,4.14-1.19c2.34,0,3.09,1.14,3.09,3.19v1.12c-5.3,0-8.26,2-8.26,4.81,0,2.16,1.56,3.29,3.71,3.29a5,5,0,0,0,4.73-3.11h.07a17.82,17.82,0,0,0-.16,2.86h2c-.05-1.2-.05-2.72-.05-4.05v-5.34c0-2.56-1.07-4.41-4.81-4.41Zm2.75,7.47v.2c0,2.35-1.59,4.73-4,4.73a2,2,0,0,1-2.22-2c0-1.31,1.1-2.92,6.21-2.92Z"/><path class="cls-3" d="M74.25,136.91c-3.69,0-5.91,2.41-5.91,5.25a4.3,4.3,0,0,0,2,3.94,2.41,2.41,0,0,0-1.51,2.19,2.15,2.15,0,0,0,1.37,2,4.05,4.05,0,0,0-2.34,3.6c0,2.6,2.22,4,5.65,4,4.18,0,7.12-2.14,7.12-5,0-2.38-1.61-3.82-4.56-3.82H73.46c-1.69,0-2.47-.34-2.47-1.13a1.36,1.36,0,0,1,1-1.24,10.23,10.23,0,0,0,1.85.17c3.9,0,5.9-2.2,5.9-5.09a3.71,3.71,0,0,0-1.3-3h2.45v-1.62H76.3a8.16,8.16,0,0,0-2-.25Zm-.54,1.6h.43c2.24,0,3.57,1.24,3.57,3.42s-1.45,3.4-3.69,3.4-3.63-1.19-3.63-3.4a3.32,3.32,0,0,1,3.32-3.42Zm-1.85,12.26a8.24,8.24,0,0,0,.87,0h2.81c2.07,0,3.09.88,3.09,2.32,0,1.8-1.75,3.07-4.73,3.07-2.26,0-4-.93-4-2.67a3.18,3.18,0,0,1,1.92-2.75Z"/><path class="cls-3" d="M89.05,136.91c-3.77,0-6,3-6,7.11,0,4.75,2.19,6.94,6.28,6.94a11.73,11.73,0,0,0,4.47-.81l-.18-1.74a9.11,9.11,0,0,1-3.93.87c-3,0-4.64-1.7-4.5-5.76H94.3a8.47,8.47,0,0,0,.06-1c0-3-1.58-5.59-5.31-5.59Zm-.1,1.56A3.14,3.14,0,0,1,92.22,142H85.33c.33-2.13,1.71-3.52,3.62-3.52Z"/><path class="cls-3" d="M102.48,136.91c-3.44,0-5.29,1.71-5.29,4,0,4.83,6.59,2.79,6.59,6.07,0,1.42-1.35,2.28-3.31,2.28a11.5,11.5,0,0,1-3-.44l0,1.89a15.53,15.53,0,0,0,2.86.27c3.55,0,5.68-1.87,5.68-4.27,0-4.61-6.63-2.76-6.63-6,0-1.34,1-2.16,3-2.16a9,9,0,0,1,2.8.46l.06-1.76a14.18,14.18,0,0,0-2.65-.31Z"/><path class="cls-3" d="M126.73,136.91c-4.81,0-7,3.25-7,7.48,0,4.61,2.35,6.57,6.11,6.57a10.89,10.89,0,0,0,3.71-.62l-.26-3a6,6,0,0,1-2.68.58c-2.32,0-3.23-1.57-3.23-3.89,0-2.57,1.12-4.21,3.34-4.21a7,7,0,0,1,2.46.5l.35-3a10.86,10.86,0,0,0-2.79-.39Z"/><path class="cls-3" d="M162.15,137.17v9.54c0,2.37,1,4.33,4,4.33a4.92,4.92,0,0,0,4.6-2.74l0,0a14.3,14.3,0,0,0-.17,2.39h3.28V137.17h-3.5v6.55c0,2.38-1.36,4.4-3.13,4.4-1.31,0-1.7-.84-1.7-2.26v-8.69Z"/></g></g></g></g></svg>