<svg xmlns="http://www.w3.org/2000/svg" viewBox="0 0 283.46 283.46"><defs><style>.cls-1{fill:#e3002b;}.cls-2{fill:#fff;}</style></defs><title>tele5</title><g id="Layer_2" data-name="Layer 2"><g id="Others"><g id="tele5"><rect class="cls-1" width="283.46" height="283.46"/><polygon class="cls-2" points="84.24 121.56 42.52 121.56 42.52 141.35 53.48 141.35 53.48 161.18 73.05 161.18 73.05 141.35 84.24 141.35 84.24 121.56"/><polygon class="cls-2" points="125.37 144.53 107.3 144.53 107.3 147.77 125.37 147.77 125.37 161.18 87.54 161.18 87.54 121.56 125.37 121.56 125.37 134.94 107.3 134.94 107.3 138.18 125.37 138.18 125.37 144.53"/><polygon class="cls-2" points="206.15 144.53 188.08 144.53 188.08 147.77 206.15 147.77 206.15 161.18 168.32 161.18 168.32 121.56 206.15 121.56 206.15 134.94 188.08 134.94 188.08 138.18 206.15 138.18 206.15 144.53"/><polygon class="cls-2" points="148.56 121.56 148.56 141.37 164.89 141.37 164.89 161.18 128.81 161.18 128.81 121.56 148.56 121.56"/><polygon class="cls-2" points="239.19 135.13 225.85 135.13 225.85 144.53 209.73 144.53 209.73 121.56 239.19 121.56 239.19 135.13"/><path class="cls-2" d="M239.55,138.51a16.7,16.7,0,0,1-30.61,13.37Z"/></g></g></g></svg>