<svg xmlns="http://www.w3.org/2000/svg" viewBox="0 0 283.46 283.46"><defs><style>.cls-1{fill:#ee2e26;}.cls-2{fill:#fff;}</style></defs><g id="Layer_2" data-name="Layer 2"><g id="Discovery_Networks" data-name="Discovery Networks"><g id="tlc"><rect class="cls-1" width="283.46" height="283.46"/><g id="logo"><path class="cls-2" d="M240.94,99.19a4.25,4.25,0,0,0-4.34-3.91q-25.72,0-51.45,0a7.11,7.11,0,0,0-2,.16h0a4.44,4.44,0,0,0-3,4v83.3a7.4,7.4,0,0,0,.18,2.25,4.26,4.26,0,0,0,3.32,3,5.4,5.4,0,0,0,1.33.11c17.35,0,34.71,0,52.06,0,.24-.06.49-.11.74-.15l.45-.14a4.3,4.3,0,0,0,2.67-3.75Zm-38.13,51.58a13.65,13.65,0,0,0,18.52,3.7c.75-.42,1.35-1,2.06-1.51a1,1,0,0,1,1.12.42q2.18,2.2,4.37,4.38a.89.89,0,0,1,.18,1.48A22.25,22.25,0,0,1,192,145.77c0-1-.2-1.89-.18-2.84s.12-1.9.18-2.86a22.43,22.43,0,0,1,4.63-10.93,22.14,22.14,0,0,1,32.56-2.46.79.79,0,0,1,0,1.19l-4.81,4.81a.86.86,0,0,1-1.26,0,13.7,13.7,0,0,0-22.21,6.59A13.68,13.68,0,0,0,202.81,150.77Z"/><path class="cls-2" d="M100.69,95.59a5.14,5.14,0,0,0-1.5-.31H46.56a4.31,4.31,0,0,0-4,4.06h0q0,41.73,0,83.46a6.8,6.8,0,0,0,.21,2.42,4.5,4.5,0,0,0,2.49,2.66,11.55,11.55,0,0,0,3.71.31h50a4.67,4.67,0,0,0,2.28-.62,4.32,4.32,0,0,0,2.12-3.59q0-42.24,0-84.49A4.44,4.44,0,0,0,100.69,95.59Zm-9.28,33a.76.76,0,0,1-.82.83c-4.38,0-8.76,0-13.14,0a7.51,7.51,0,0,0-.09,1.25c0,1.43,0,2.86,0,4.3,0,.34,0,.69,0,1,0,.84,0,1.68,0,2.52a23.79,23.79,0,0,0,0,2.67c0,1.43,0,2.87,0,4.3s0,3,0,4.45c0,.19,0,.38,0,.58,0,.39,0,.79,0,1.19v1.63c0,.89,0,1.77,0,2.66s0,1.49,0,2.23c-.06,2,0,4.05,0,6.07a.74.74,0,0,1-.84.71H69.68a.76.76,0,0,1-.82-.83V129.38H55.31a1.44,1.44,0,0,1-.78-.22,4.3,4.3,0,0,1-.14-1.07q0-3,0-6.06a4.1,4.1,0,0,1,.14-.92h0a1.65,1.65,0,0,1,.78-.23H90.6a.76.76,0,0,1,.81.84Z"/><path class="cls-2" d="M172.17,182.65q0-41.35,0-82.72a5.36,5.36,0,0,0-.43-2.17,4.36,4.36,0,0,0-2.88-2.37,6.64,6.64,0,0,0-1.78-.11H115.5a4.4,4.4,0,0,0-4.06,3.29h0c-.09.85,0,1.7-.06,2.55v82.71a5.43,5.43,0,0,0,.21,1.5,5.53,5.53,0,0,0,1.08,1.62,4.6,4.6,0,0,0,2.52,1.22c16.71,0,33.41,0,50.12,0A21.14,21.14,0,0,0,169,188a4.55,4.55,0,0,0,2.74-2.45A6.58,6.58,0,0,0,172.17,182.65Zm-17.3-18.39a.74.74,0,0,1-.82.7H140.11a26.77,26.77,0,0,1-4-.16,8.38,8.38,0,0,1-5.58-3.15,10.88,10.88,0,0,1-1.92-6.73q0-16.6,0-33.2a.77.77,0,0,1,.81-.85c2.28,0,4.56,0,6.84,0a.78.78,0,0,1,.82.45,8.33,8.33,0,0,1,.08,1.58q0,14.82,0,29.66a4.09,4.09,0,0,0,2.93,3.73,9.71,9.71,0,0,0,1.19.16c4.3,0,8.6,0,12.9,0a.74.74,0,0,1,.7.83C154.87,159.61,154.89,161.94,154.87,164.26Z"/></g></g></g></g></svg>