<svg xmlns="http://www.w3.org/2000/svg" viewBox="0 0 283.46 283.46"><defs><style>.cls-1{fill:#ee2e26;}.cls-2{fill:#fff;}</style></defs><title>tlc</title><g id="Layer_2" data-name="Layer 2"><g id="Discovery_Networks" data-name="Discovery Networks"><g id="tlc"><rect class="cls-1" width="283.46" height="283.46"/><g id="logo"><path class="cls-2" d="M240.94,99.19a4.26,4.26,0,0,0-4.34-3.91H185.15a7.15,7.15,0,0,0-2,.16h0a4.43,4.43,0,0,0-3,4q0,41.65,0,83.3a7.31,7.31,0,0,0,.18,2.24,4.28,4.28,0,0,0,3.32,3,5.53,5.53,0,0,0,1.33.11c17.35,0,34.71,0,52.06,0l.74-.15.45-.14a4.32,4.32,0,0,0,2.68-3.75Q240.94,141.66,240.94,99.19Zm-38.14,51.58a13.67,13.67,0,0,0,18.53,3.7c.74-.43,1.35-1,2.06-1.52a1,1,0,0,1,1.12.43q2.18,2.19,4.38,4.38a.9.9,0,0,1,.17,1.49,22.25,22.25,0,0,1-37.11-13.47c-.05-.95-.2-1.89-.17-2.84s.12-1.91.17-2.86a22.26,22.26,0,0,1,29.1-18.23,22.07,22.07,0,0,1,8.08,4.83.78.78,0,0,1,0,1.19l-4.82,4.81a.86.86,0,0,1-1.26,0,13.93,13.93,0,0,0-5-2.78,13.68,13.68,0,0,0-15.26,20.92Z"/><path class="cls-2" d="M100.69,95.59a5.14,5.14,0,0,0-1.5-.31H46.56a4.31,4.31,0,0,0-4,4.06h0q0,41.73,0,83.45a7,7,0,0,0,.21,2.43,4.51,4.51,0,0,0,2.49,2.66,11.55,11.55,0,0,0,3.71.3h50a4.55,4.55,0,0,0,2.28-.61,4.33,4.33,0,0,0,2.12-3.59q0-42.25,0-84.5A4.45,4.45,0,0,0,100.69,95.59Zm-9.28,33a.77.77,0,0,1-.82.83c-4.38,0-8.76,0-13.15,0a7.46,7.46,0,0,0-.08,1.25c0,1.43,0,2.86,0,4.29q0,.52,0,1c0,.84,0,1.68,0,2.52a22.94,22.94,0,0,0,0,2.67c0,1.43-.05,2.87,0,4.3-.09,1.48,0,3,0,4.45,0,.19,0,.39,0,.58,0,.4,0,.79,0,1.19s0,1.09,0,1.63c0,.89,0,1.78,0,2.67s0,1.48,0,2.22c-.06,2,0,4,0,6.07a.72.72,0,0,1-.84.71H69.68a.77.77,0,0,1-.82-.84q0-17.37,0-34.74H55.31a1.46,1.46,0,0,1-.79-.23,4.7,4.7,0,0,1-.13-1.07c0-2,0-4,0-6.06a4.27,4.27,0,0,1,.13-.92h0a1.64,1.64,0,0,1,.78-.23H90.6a.77.77,0,0,1,.81.84Q91.41,125.14,91.41,128.55Z"/><path class="cls-2" d="M172.17,182.65q0-41.36,0-82.72a5.35,5.35,0,0,0-.43-2.17,4.34,4.34,0,0,0-2.88-2.36,6.62,6.62,0,0,0-1.78-.11H115.5a4.4,4.4,0,0,0-4.05,3.29h0a25.31,25.31,0,0,0-.06,2.55q0,41.35,0,82.71a5.21,5.21,0,0,0,.21,1.5,5.34,5.34,0,0,0,1.07,1.62,4.66,4.66,0,0,0,2.53,1.22c16.7,0,33.41,0,50.11,0A20.5,20.5,0,0,0,169,188a4.57,4.57,0,0,0,2.75-2.45A6.69,6.69,0,0,0,172.17,182.65Zm-17.3-18.39a.75.75,0,0,1-.82.7H140.11a25.86,25.86,0,0,1-4-.16,8.37,8.37,0,0,1-5.59-3.15,11,11,0,0,1-1.92-6.73q0-16.6,0-33.2a.77.77,0,0,1,.82-.84h6.83a.76.76,0,0,1,.82.45,7.18,7.18,0,0,1,.08,1.58q0,14.83,0,29.66a4.12,4.12,0,0,0,2.93,3.74,10.77,10.77,0,0,0,1.19.15c4.3,0,8.59,0,12.89,0a.73.73,0,0,1,.7.83C154.87,159.61,154.89,161.94,154.87,164.26Z"/></g></g></g></g></svg>