<svg xmlns="http://www.w3.org/2000/svg" viewBox="0 0 283.46 283.46"><defs><style>.cls-1{fill:#f9e104;}.cls-2{fill:#fff;}</style></defs><title>tntcomedy</title><g id="Layer_2" data-name="Layer 2"><g id="Turner_Broadcasting" data-name="Turner Broadcasting"><g id="tntcomedy"><rect class="cls-1" width="283.46" height="283.46"/><g id="logo"><path class="cls-2" d="M116.27,211.4a5,5,0,1,1-5-5,5,5,0,0,1,5,5"/><path class="cls-2" d="M106.78,112.11h19.45c4.89,0,7.33,1.38,9.78,5.42L156.1,148.8h.69v-36.7h79.61a99.24,99.24,0,0,0-189.41,0Z"/><path class="cls-2" d="M174,206h-2.8v10.67h3c3.44,0,5.41-2.09,5.28-5.58-.12-3.18-2.33-5.08-5.52-5.08"/><path class="cls-2" d="M194.45,211.94v9h-5v-9l-7.33-10.23h4.48a1.61,1.61,0,0,1,1.32.71l4,6,4-6a1.61,1.61,0,0,1,1.31-.68h4.37Zm-20.22,9h-8.07V201.71h8.07a9.5,9.5,0,0,1,9.86,9.49,9.78,9.78,0,0,1-9.86,9.72m-11-14.95h-9.1v2.9h6v4.26h-6v3.53h9.1v4.26H149.13V201.72h14.12Zm-22.81,15,0-10L134.77,219l-5.69-8.09,0,10.13H123.6V201.71h4a1.72,1.72,0,0,1,1.44.77l5.68,8.55,5.71-8.6a1.6,1.6,0,0,1,1.33-.72h4.13v19.23Zm-28.91.1a9.65,9.65,0,1,1,9.69-10.09A9.83,9.83,0,0,1,111.52,221M92,216a4.72,4.72,0,0,0,3.36-1.48l4.9,1.8a9.64,9.64,0,1,1,0-9.89l-4.86,1.85a4.74,4.74,0,0,0-3.4-1.53A4.63,4.63,0,0,0,92,216m147.74-89.49H218v58.62H198.24V126.51H175.63v58.62H162.44c-4.89,0-7.23-1.38-9.78-5.42L127.1,141.44h-.41v43.69H107.49V126.51H85v58.62H64.87V126.51H43.68a99.22,99.22,0,1,0,197.27,15.22,98.72,98.72,0,0,0-1.17-15.22"/></g></g></g></g></svg>