<svg xmlns="http://www.w3.org/2000/svg" viewBox="0 0 283.46 283.46"><defs><style>.cls-1{fill:#33637e;}.cls-2{fill:#fff;}</style></defs><title>tntfilm</title><g id="Layer_2" data-name="Layer 2"><g id="Turner_Broadcasting" data-name="Turner Broadcasting"><g id="tntfilm"><rect class="cls-1" width="283.46" height="283.46"/><g id="logo"><path class="cls-2" d="M174.52,221H169l0-10.78-5.69,8.23-5.7-8.23,0,10.79h-5.5V201.84h4a1.69,1.69,0,0,1,1.44.77l5.69,8.55,5.71-8.61a1.6,1.6,0,0,1,1.34-.71h4.13ZM149,221H134.54V201.83h5.52v14.92h9Zm-17.62,0h-5.51V201.81h5.51Zm-8.17-14.82h-9.16v2.94H120v4.23h-5.91V221h-5V204.11a2.23,2.23,0,0,1,2.22-2.24h12Zm116.54-79.64H218v58.62H198.23V126.51H175.62v58.62H162.44c-4.89,0-7.23-1.37-9.78-5.42L127.1,141.44h-.42v43.69h-19.2V126.51H85v58.62H64.86V126.51H43.69a99.21,99.21,0,1,0,196.09,0"/><path class="cls-2" d="M106.78,112.12h19.45c4.89,0,7.33,1.38,9.78,5.41l20.09,31.28h.68V112.12h79.61a99.24,99.24,0,0,0-189.41,0Z"/></g></g></g></g></svg>