<svg xmlns="http://www.w3.org/2000/svg" viewBox="0 0 283.46 283.46"><defs><style>.cls-1{fill:#e22820;}.cls-2{fill:#fff;}</style></defs><title>tntserie</title><g id="Layer_2" data-name="Layer 2"><g id="Turner_Broadcasting" data-name="Turner Broadcasting"><g id="tntserie"><rect class="cls-1" width="283.46" height="283.46"/><g id="logo"><path class="cls-2" d="M148.29,205.94h-4.15v4.35h4.18a2.22,2.22,0,0,0,2.13-2.14,2.2,2.2,0,0,0-2.16-2.21"/><path class="cls-2" d="M181,205.94h-9.13v2.93h6v4.22h-6v3.56H181v4.26H166.91v-19.2H181Zm-17.41,15h-5.49V201.74h5.49Zm-7.84,0h-5.41l-3.83-5.7a2,2,0,0,0-1.62-1.07h-.78v6.77h-5.27V201.75h9.77a6.48,6.48,0,0,1,2.61,12.42Zm-20.26-15h-9.13v2.93h6v4.22h-6v3.56h9.13v4.26h-14.1v-19.2h14.1ZM110,209.08c3.76.56,6.69,1.65,7.89,3.59a5,5,0,0,1-1.21,6,9.91,9.91,0,0,1-15-2.17l4.55-1.86a3.48,3.48,0,0,0,3.44,2.32c4.14.13,5.87-2.88.55-3.66-3.77-.54-6.69-1.62-7.89-3.56a5,5,0,0,1,1.11-5.91,9.92,9.92,0,0,1,15.06,2.1L114,207.76a3.64,3.64,0,0,0-3.45-2.33c-4.11-.3-5.88,2.86-.55,3.65m129.78-82.55H218v58.62H198.23V126.51h-22.6v58.62H162.43c-4.89,0-7.22-1.38-9.77-5.42l-25.57-38.28h-.41v43.7h-19.2V126.51H85v58.62H64.87V126.51H43.68a99.22,99.22,0,1,0,197.26,15.21,100.29,100.29,0,0,0-1.15-15.21"/><path class="cls-2" d="M106.81,112.1h19.44c4.89,0,7.33,1.38,9.78,5.42l20.08,31.27h.69V112.1h79.61a99.24,99.24,0,0,0-189.4,0Z"/></g></g></g></g></svg>