<svg xmlns="http://www.w3.org/2000/svg" viewBox="0 0 283.46 283.46"><defs><style>.cls-1{fill:#e22820;}.cls-2{fill:#fff;}</style></defs><g id="Layer_2" data-name="Layer 2"><g id="Turner_Broadcasting" data-name="Turner Broadcasting"><g id="tntserie"><rect class="cls-1" width="283.46" height="283.46"/><g id="logo"><path class="cls-2" d="M148.29,205.94h-4.16v4.35h4.19a2.22,2.22,0,0,0,2.13-2.14,2.19,2.19,0,0,0-2.16-2.21"/><path class="cls-2" d="M181,205.94h-9.13v2.93h6v4.23h-6v3.56H181v4.26H166.91V201.73H181Zm-17.41,15h-5.48V201.74h5.48Zm-7.83,0h-5.41l-3.83-5.7a2,2,0,0,0-1.62-1.07h-.78v6.77h-5.27V201.75h9.77a6.48,6.48,0,0,1,2.61,12.41Zm-20.26-15h-9.13v2.93h6v4.23h-6v3.56h9.13v4.26H121.41V201.73h14.11ZM110,209.08c3.76.56,6.7,1.65,7.89,3.59a5,5,0,0,1-1.21,6,9.91,9.91,0,0,1-15-2.17l4.55-1.85a3.5,3.5,0,0,0,3.45,2.32c4.14.12,5.87-2.89.55-3.66-3.77-.55-6.69-1.62-7.88-3.57a5,5,0,0,1,1.1-5.91,9.92,9.92,0,0,1,15.06,2.1L114,207.76a3.64,3.64,0,0,0-3.45-2.33c-4.11-.3-5.89,2.86-.56,3.65m129.78-82.55H218v58.62H198.23V126.51h-22.6v58.63h-13.2c-4.88,0-7.22-1.39-9.77-5.42l-25.57-38.28h-.41v43.7h-19.2V126.51H85v58.62H64.87V126.51H43.68a99.22,99.22,0,1,0,197.26,15.21,100.38,100.38,0,0,0-1.15-15.21"/><path class="cls-2" d="M106.81,112.1h19.44c4.9,0,7.34,1.38,9.78,5.42l20.09,31.27h.69V112.1h79.61A99.23,99.23,0,0,0,47,112.1Z"/></g></g></g></g></svg>