<svg xmlns="http://www.w3.org/2000/svg" viewBox="0 0 283.46 283.46"><defs><style>.cls-1{fill:#18365b;}.cls-2{fill:#ed2727;}.cls-3{fill:#fff;}</style></defs><title>wdr</title><g id="Layer_2" data-name="Layer 2"><g id="ARD_Regions" data-name="ARD Regions"><g id="wdr"><rect class="cls-1" width="283.46" height="283.46"/><g id="logo"><polygon id="polygon7" class="cls-2" points="179.16 181.44 200.77 102.02 240.94 102.02 219.34 181.44 179.16 181.44"/><path id="path9" class="cls-3" d="M174.61,150.73a26,26,0,0,0-5.49-6.9v-.11c4.09-1.4,8.41-4.79,8.41-11.91,0-8.65-6.19-13.09-17.17-13.09H141.67v15.19h-.11c-2.22-9.11-9.81-15-23.83-15h-26L87.6,136.48c-.82,3.62-1.63,8.17-1.63,8.17h-.12s-.82-5.14-1.75-8.76l-3.39-17H66.34l-3.38,17c-.82,3.62-1.75,8.76-1.75,8.76h-.12s-.7-4.55-1.64-8.17l-4.08-17.64H42.52l11.56,43.21H67.16l4.67-19.85c.94-4,1.87-7.83,1.87-7.83h.12s.82,3.86,1.87,7.83l4.67,19.74H93.21l9.57-35.74h.12s-.12,1.4-.12,3.27v32.47H117.5c14.13,0,21.95-6.54,24.17-15.65h.12v15.88H153.7V146.64h.94c1.4,0,4.79-.12,6.65,2.92l7.25,12.26h12.84l-6.77-11.09Zm-56.06,1.4h-3.62V128.65h3.27c7.94,0,11.44,3.51,11.44,11.56,0,7.71-3.5,11.92-11.09,11.92m41.58-14.49h-6.54v-9.57h6.07c4.09,0,5.72,1.63,5.72,4.79.12,2.92-1.63,4.78-5.25,4.78"/></g></g></g></g></svg>