<svg xmlns="http://www.w3.org/2000/svg" viewBox="0 0 283.46 283.46"><defs><style>.cls-1{fill:#00304d;}.cls-2{fill:#fff;}</style></defs><title>welt</title><g id="Layer_2" data-name="Layer 2"><g id="Others"><g id="welt"><rect class="cls-1" width="283.46" height="283.46"/><g id="logo"><path class="cls-2" d="M199.75,117h41.19v11.21H226.66V166.5H214.07V128.18H199.75Z"/><path class="cls-2" d="M185.77,155.28h20.8V166.5H173.18V117h12.59Z"/><path class="cls-2" d="M143.31,115.9c-14.7,0-24.57,10.44-24.57,26,0,15.37,10.14,25.69,25.22,25.69,8.56,0,15-2.28,20.37-7.18l.16-.14-7.71-8.45-.16.13a18.27,18.27,0,0,1-11.9,4.45c-6.61,0-10.87-3.37-12.32-9.77l-.06-.28h34.3c0-.07,0-.11,0-.2a38,38,0,0,0,.26-4.45c-.05-15.42-9.55-25.78-23.62-25.78Zm-10.93,21,.06-.29c1.34-6.25,5-9.42,10.77-9.42,5.47,0,9.08,3.26,10.42,9.42l.06.29Z"/><path class="cls-2" d="M56.43,166.5,42.52,117h13l9,34.79L74,117H87.42l9.46,34.86,9-34.86h12.81L104.78,166.5h-15l-9.16-31.33L71.45,166.5Z"/></g></g></g></g></svg>