<svg xmlns="http://www.w3.org/2000/svg" viewBox="0 0 283.46 283.46"><defs><style>.cls-1{fill:#ee7002;}.cls-2{fill:#fff;}</style></defs><title>zdf</title><g id="Layer_2" data-name="Layer 2"><g id="ZDF"><g id="zdf-2" data-name="zdf"><rect class="cls-1" width="283.46" height="283.46"/><g id="logo"><path class="cls-1" d="M152.27,167.88"/><path class="cls-2" d="M220.31,124.93h20.64v-9.15H218.48c-12.62,0-18.64,5.76-18.64,18.31-.2-.31-1.54-5.34-2-6.35a18.49,18.49,0,0,0-13.57-11.06c-7.45-1.65-22.53-.91-31.84-.9l-.53-1a1.26,1.26,0,0,0-.35-.47,58,58,0,1,0,.69,53.61h25.59c6.62,0,11.16-1.78,14.87-4.76a18.51,18.51,0,0,0,4.47-5.35c1.11-1.93,2-6,2.63-7v17h11V147.24H237v-9H210.82C210.82,129.87,211.91,124.93,220.31,124.93Zm-31.46,17c0,10-2.35,16.81-12.32,16.81h-13V124.93H176.7c9.95,0,12.15,6.91,12.15,16.81Z"/><g id="g2389"><path id="path2391" class="cls-1" d="M108.36,167.88V154.41c0-28.11,33.92-9.76,33.92-22.28V130.8c0-4.26-4-5.82-8.15-5.82H108.85v-9.15H139c10.32,0,14.63,6.92,14.63,15.88,0,9.13-5.94,14.19-14.2,15.32-9.72,1.32-19.72-3.26-19.72,8.88v3h32.59l0,9H108.36Z"/></g></g></g></g></g></svg>