<svg xmlns="http://www.w3.org/2000/svg" viewBox="0 0 283.46 283.46"><defs><style>.cls-1{fill:#ee7002;}.cls-2{fill:#fff;}</style></defs><title>zdfinfo</title><g id="Layer_2" data-name="Layer 2"><g id="ZDF"><g id="zdfinfo"><rect class="cls-1" width="283.46" height="283.46"/><g id="logo"><g id="g4360"><path id="path2995" class="cls-2" d="M43.41,131.1h28.7v6.2L53.5,157H64.67v-6.38h7.44v12.76H42.52v-6l18.64-19.7H51v5.88H43.41"/><path id="path3015" class="cls-2" d="M112.32,163.35h17.37v-6.74h-4.61V138.19h6V131.1h-6v-1.41c0-2.6.28-2.84,2.48-2.84h4.07v-6.73h-8.32c-4.43,0-6.74,2.71-6.74,6.73v4.25h-4.42v7.09h4.42v18.42h-4.25"/><g id="text3011"><path id="path3042" class="cls-2" d="M104.53,120.12v36.32H109v6.91H95.67v-4.06c-4.29,4.06-5.67,4.06-9.74,4.06-5.12,0-10.46.75-10.46-12.6v-6.26c0-12.91,4.29-13.39,10.46-13.39,5.47,0,6.34.65,9.74,3.55V127H91.42v-6.91Zm-17.5,18c-2.79.05-2.86,2.57-2.86,5.07l0,9.39c0,2.76,1.55,3.77,2.14,3.78l4.93.06a18.12,18.12,0,0,0,4.46-1.05v-16A8.44,8.44,0,0,0,91,138.1Z"/></g></g><path id="rect2997" class="cls-2" d="M148,112.68h85.6a7.32,7.32,0,0,1,7.33,7.34v43.43a7.32,7.32,0,0,1-7.33,7.34H148a7.33,7.33,0,0,1-7.34-7.34V155.2l-10.28-10.28h10.28V120A7.32,7.32,0,0,1,148,112.68Z"/><g id="g3032"><g id="g3005"><path id="path3000" d="M150.06,139.78H160v18.43h3.19v5.31H150.06v-5.36l3.38.05V145.1h-3.37"/><path id="rect3002" d="M153.07,131.1h6.73v5.67h-6.73Z"/></g><path id="path3009" d="M165.65,139.78h9.57v3c3.86-3.28,4.59-3,7.18-3,5.27,0,6.81,1.17,6.81,6.2v12.23h3.19v5.31H180.18v-5.31h2.48V147.05c0-1.75-.53-2.1-3.19-2.13a8.33,8.33,0,0,0-4.25,1.06v12.23h2.48v5.31H165.47v-5.31h3.19V144.92h-3"/><path id="rect3017" d="M215.94,139.78c-3,0-5.46,3.43-5.46,7.69v8.36c0,4.26,2.43,7.69,5.46,7.69h10.5c3,0,5.47-3.43,5.47-7.69v-8.36c0-4.26-2.44-7.69-5.47-7.69Zm2.26,5.15h6c.65,0,1.18,1.65,1.18,3.7v5.88c0,2.05-.53,3.69-1.18,3.69h-6c-.65,0-1.18-1.64-1.18-3.69v-5.88C217,146.58,217.55,144.93,218.2,144.93Z"/><path id="path3015-8" d="M194.66,163.52h13v-5.31h-3.37V145h4.43v-5.22h-4.43v-1c0-1.91.16-2.09,1.78-2.09h3v-5h-6.31c-3.27,0-5,2-5,5v3.13h-3.26V145h3.26v13.21h-3.13"/></g></g></g></g></g></svg>