<svg xmlns="http://www.w3.org/2000/svg" viewBox="0 0 283.46 283.46"><defs><style>.cls-1{fill:#ee7002;}.cls-2{fill:#fff;}</style></defs><title>zdfneo</title><g id="Layer_2" data-name="Layer 2"><g id="ZDF"><g id="zdfneo"><rect class="cls-1" width="283.46" height="283.46"/><g id="logo"><path class="cls-2" d="M121.15,164.74h23.69v3.44H121.15Z"/><path class="cls-2" d="M42.59,130.54H68.23v7.67l-14.07,18.6H68.65v7.67H42.52v-7.67l14-18.6H42.59Z"/><path class="cls-2" d="M70.32,142.39c0-8,3.48-12.54,11.43-12.54a41.52,41.52,0,0,1,8.64,1V116.68l10-1.39v49.19H92.54l-1-2.72c-2.37,1.53-6.76,3.42-10.45,3.42-6.9,0-10.73-4.25-10.73-12.55V142.39Zm20.07-3a30.22,30.22,0,0,0-6.41-.84c-2.64,0-3.62,1.6-3.62,3.83v10.24c0,2.37,1,3.83,3.62,3.83a11.1,11.1,0,0,0,6.41-2.65V139.39Z"/><path class="cls-2" d="M126.06,124.13a26.36,26.36,0,0,0-4.46-.49c-3.21,0-3.42,1.4-3.42,3.63v4h8l-.7,8.22h-7.31v25h-10v-25H103v-8.22h5.15v-5.09c0-7,3.28-10.87,11.5-10.87a34.92,34.92,0,0,1,7.67,1l-1.25,7.87Z"/><path class="cls-2" d="M167.1,164.48V142a2.15,2.15,0,0,0-2.44-2.44c-1.81,0-5.16,1.25-7.31,2.44v22.44h-10V130.54h7.46l1,2.58a34.25,34.25,0,0,1,13.51-3.28c5.79,0,7.81,4.32,7.81,10.87v23.76h-10Z"/><path class="cls-2" d="M189.81,151v1c0,3.9,1.53,4.95,6.13,4.95a39.54,39.54,0,0,0,10.31-1.46l1.46,7.53A40.41,40.41,0,0,1,195,165.17c-11,0-15.19-5.44-15.19-13.8v-7.94c0-7.32,3.27-13.59,14.56-13.59s13.72,6.69,13.72,14.08V151H189.81Zm8.78-9c0-2.37-.7-4.32-4.18-4.32s-4.6,2-4.6,4.32v1.47h8.78V142Z"/><path class="cls-2" d="M210.28,151.45v-7.88c0-7,3.27-13.73,15.33-13.73s15.33,6.76,15.33,13.73v7.88c0,7-3.27,13.73-15.33,13.73s-15.33-6.76-15.33-13.73m20.62.28v-8.43c0-3.21-1.67-5-5.29-5s-5.29,1.81-5.29,5v8.43c0,3.21,1.67,5,5.29,5s5.29-1.81,5.29-5"/></g></g></g></g></svg>