<svg xmlns="http://www.w3.org/2000/svg" viewBox="0 0 283.46 283.46"><defs><style>.cls-1{fill:#2e2a25;}.cls-2{fill:#fff;}</style></defs><g id="Layer_2" data-name="Layer 2"><g id="ZDF"><g id="zdfneo"><rect class="cls-1" width="283.46" height="283.46"/><g id="logo"><path class="cls-2" d="M197.58,132.71h0c-2.77.7-4.16,4.17-4.16,11.8,0,8,1.39,11.1,4.16,10.4s3.82-4.16,4.16-12.14C201.74,135.14,200,132.37,197.58,132.71Z"/><path class="cls-2" d="M150.06,103.57V58.13L42.52,81v144.3l90.89-19.42v19.42l107.53-22.89V84.15ZM112.94,117.1l2.77-.69V101.15l-2.77.69v-5.9l2.08-1V90.39c0-6.24,2.43-9,9-10.41a39.41,39.41,0,0,1,7.63-.69v7.29L126.47,88V85.54a3.2,3.2,0,0,0-1.74.34A2.76,2.76,0,0,0,122.31,89v4.51l6.59-1.38V98L123,99.41v15.26l3.81-.69v5.9L112.94,123ZM92.82,99.41a5.25,5.25,0,0,1,5.9,2.08h.34V92.13l-2.43.69v-5.9l10.07-2.08-.7,31.22c0,1.39.35,1.74,1.74,1.39l1-.35V123l-5.21,1.39c-2.43.69-3.81-.35-3.81-2.43h-.35c-1,2.77-3.12,4.51-6.94,5.55-4.85,1-10.06-1.39-10.06-11.45C82.41,106.35,85.88,101.15,92.82,99.41ZM57.44,128.2l11.79-17.69-6.59,1.39V115l-5.2.7V107l20.12-4.16v5.9L66.11,126.47l6.94-1.39.34-3.47,5.55-1v9l-21.5,4.51Zm55.5,58.63L89.7,191.69V161.51c0-2.43-1-3.47-3.47-2.78l-2.08.35v34l-23.24,4.86V164.28l-4.17,1v-17l18.39-3.81c3.81-.7,5.9,1,6.24,5.2h.35c5.55-7.28,13.88-10.41,17.69-11.45,7.63-2.08,13.53.7,13.53,12.14h0Zm54.81-32.61L139,160.46c.69,4.86,2.77,6.25,5.89,5.55a15.75,15.75,0,0,0,7.64-4.85l13.18-2.78v11.1c-6.25,6.25-13.88,10.06-23.24,12.15-16,3.46-26-4.51-26-21.17,0-15.61,9-28.09,25.67-31.91,17.34-3.47,27.4,7.63,25.67,25.67Zm54.46,31.22L173.65,195.5v-9l48.56-10.06Zm-24.63-15.61c-16.3,3.47-26.71-4.51-26.71-20.81,0-15.61,9.37-28.45,26.71-31.92,15.61-3.47,26.37,5.21,26.37,20.47h0C224,153.53,214.93,166,197.58,169.83Z"/><path class="cls-2" d="M143.12,144.51c-2.43.34-3.82,2.43-4.16,7.28l8-1.73C146.59,145.89,145.2,144.16,143.12,144.51Z"/><path class="cls-2" d="M93.86,120.57c3.12,0,4.86-3.12,4.86-8.32s-1-7.64-3.82-7.64c-2.77.35-4.86,3.82-4.86,9C90,118.14,91.43,120.57,93.86,120.57Z"/></g></g></g></g></svg>