<svg xmlns="http://www.w3.org/2000/svg" xmlns:xlink="http://www.w3.org/1999/xlink" viewBox="0 0 283.46 283.46"><defs><style>.cls-1{fill:url(#linear-gradient);}.cls-2{fill:#fff;}</style><linearGradient id="linear-gradient" x1="141.73" y1="283.46" x2="141.73" gradientUnits="userSpaceOnUse"><stop offset="0" stop-color="#00437d"/><stop offset="1" stop-color="#0aa5c4"/></linearGradient></defs><title>213sport</title><g id="Layer_2" data-name="Layer 2"><g id="Sport"><g id="_213sport" data-name="213sport"><rect class="cls-1" width="283.46" height="283.46"/><path id="logo" class="cls-2" d="M137,42.53a11.26,11.26,0,0,0-7.46,2.95L100.79,72a2.6,2.6,0,0,0,.06,3.9l18.26,16.32a3.6,3.6,0,0,0,4.81,0l8.87-8v101H88.08c8.58-18.62,35.54-29.43,35.54-53.22,0-15.33-12.43-38.28-39-38.28-24.75,0-34.35,17.72-38,27.89a3.75,3.75,0,0,0,2.54,4.84l21,5.66a3.57,3.57,0,0,0,4.16-1.57c6.05-11.52,18.87-5.5,18.87,3.89,0,12.41-37.6,26.35-49.56,75.49a2.67,2.67,0,0,0,2.57,3.29h90a51.77,51.77,0,0,1-3.45-19.31,61.59,61.59,0,0,1,16.56-41.54h44.11L180.6,179.25c4.24,0,17.43-.05,17.43-.05,11.22,0,14.12,11.7,14.12,14.78a19.21,19.21,0,0,1-32.39,14,4.7,4.7,0,0,0-5.91-.37l-16.22,11.62a3.4,3.4,0,0,0-.6,5.05c12.08,14.34,32.62,21.3,53.95,13.29A43.66,43.66,0,0,0,236.54,212c8.53-22.73,0-44.55-16.28-56.25l12.17-25.61a4.11,4.11,0,0,0-3.72-5.86H176.44l-12.56,13V47.46A5,5,0,0,0,159,42.52Z"/></g></g></g></svg>