<svg xmlns="http://www.w3.org/2000/svg" xmlns:xlink="http://www.w3.org/1999/xlink" viewBox="0 0 283.46 283.46"><defs><style>.cls-1{fill:url(#linear-gradient);}.cls-2{fill:#fff;}</style><linearGradient id="linear-gradient" x1="141.73" y1="283.46" x2="141.73" gradientUnits="userSpaceOnUse"><stop offset="0" stop-color="#00437d"/><stop offset="1" stop-color="#0aa5c4"/></linearGradient></defs><title>213sport</title><g id="Layer_2" data-name="Layer 2"><g id="Sport"><g id="_213sport" data-name="213sport"><rect class="cls-1" width="283.46" height="283.46"/><path id="logo" class="cls-2" d="M137,42.53a11.24,11.24,0,0,0-7.46,3L100.79,72a2.59,2.59,0,0,0,.05,3.9l18.26,16.33a3.6,3.6,0,0,0,4.81,0l8.87-8v101H88.08c8.58-18.63,35.53-29.44,35.53-53.22,0-15.33-12.43-38.28-39-38.28-24.75,0-34.35,17.71-38,27.89a3.76,3.76,0,0,0,2.54,4.84l21,5.65a3.55,3.55,0,0,0,4.16-1.57c6-11.51,18.86-5.49,18.86,3.9,0,12.4-37.6,26.35-49.55,75.48a2.67,2.67,0,0,0,2.56,3.3h90a51.62,51.62,0,0,1-3.45-19.31,61.61,61.61,0,0,1,16.56-41.55h44.11l-12.79,26.9c4.24,0,17.43-.05,17.43-.05,11.22,0,14.13,11.7,14.13,14.78a19.21,19.21,0,0,1-32.39,14,4.69,4.69,0,0,0-5.91-.37l-16.22,11.62a3.41,3.41,0,0,0-.6,5c12.09,14.34,32.63,21.3,53.95,13.29A43.66,43.66,0,0,0,236.54,212c8.53-22.74,0-44.56-16.27-56.25l12.17-25.61a4.11,4.11,0,0,0-3.72-5.86H176.44l-12.56,13V47.46A5,5,0,0,0,159,42.52Z"/></g></g></g></svg>