<svg xmlns="http://www.w3.org/2000/svg" viewBox="0 0 283.46 283.46"><defs><style>.cls-1{fill:#ec008c;}.cls-2{fill:#fff;}</style></defs><g id="Layer_2" data-name="Layer 2"><g id="Barrandov"><g id="barrandovplus"><rect class="cls-1" width="283.46" height="283.46"/><g id="logo"><path class="cls-2" d="M222.59,166.5c-3.53,0-6.34,2.31-6.34,6.15s2.81,6.12,6.34,6.12,6.39-2.29,6.39-6.12S226.16,166.5,222.59,166.5Zm0,2.87a3.29,3.29,0,1,1-3,3.28A3,3,0,0,1,222.59,169.37Z"/><path class="cls-2" d="M213.17,160.78a1.71,1.71,0,0,0-1.72,1.65v4.73a6.62,6.62,0,0,0-3-.63,5.67,5.67,0,0,0-4.13,1.59,6.33,6.33,0,0,0-1.65,4.59,6.22,6.22,0,0,0,1.45,4.3,5.89,5.89,0,0,0,4.63,1.85,6.07,6.07,0,0,0,4.73-2,6.46,6.46,0,0,0,1.39-4.46V162.5A1.73,1.73,0,0,0,213.17,160.78Zm-4.23,8.43a4,4,0,0,1,2.51.79v2.48a3.53,3.53,0,0,1-.76,2.58,2.53,2.53,0,0,1-1.95.76,2.43,2.43,0,0,1-2.12-1.09,3.78,3.78,0,0,1-.59-2.21,3.61,3.61,0,0,1,.79-2.52,2.88,2.88,0,0,1,2.12-.79Z"/><path class="cls-2" d="M195.35,166.5a5.93,5.93,0,0,0-4.8,1.88,5.43,5.43,0,0,0-1,3.47v5.33a1.69,1.69,0,0,0,3.37,0v-5a3.34,3.34,0,0,1,.33-1.59,2.64,2.64,0,0,1,4.27,0,3.35,3.35,0,0,1,.29,1.59v5a1.72,1.72,0,0,0,3.44,0v-5.33a5.27,5.27,0,0,0-1-3.47c-1-1.29-2.72-1.88-4.83-1.88"/><path class="cls-2" d="M181.49,166.5a5.9,5.9,0,0,0-4.63,1.88,6.41,6.41,0,0,0-1.45,4.27,6.49,6.49,0,0,0,1.65,4.59,5.68,5.68,0,0,0,4.14,1.56,5.78,5.78,0,0,0,3.2-.86,1.67,1.67,0,0,0,1.56.86,1.65,1.65,0,0,0,1.68-1.65V173a6.47,6.47,0,0,0-1.39-4.5,6.21,6.21,0,0,0-4.76-1.95Zm0,3a2.41,2.41,0,0,1,1.95.8,4.14,4.14,0,0,1,.76,2.78v2.21a4.71,4.71,0,0,1-2.54.76,2.56,2.56,0,0,1-2-.76,3.46,3.46,0,0,1-.83-2.48,3.85,3.85,0,0,1,.63-2.21,2.33,2.33,0,0,1,2.08-1.1Z"/><path class="cls-2" d="M173.89,167a5.33,5.33,0,0,0-2.38-.46c-2.15,0-3.87.59-4.83,1.85a5.43,5.43,0,0,0-1,3.47v5.29a1.69,1.69,0,0,0,3.37,0v-5.06a3.3,3.3,0,0,1,.33-1.58,2.11,2.11,0,0,1,2-1.06,2.82,2.82,0,0,1,1.09.26,1.87,1.87,0,0,0,1.05.33,1.45,1.45,0,0,0,1.46-1.52,1.7,1.7,0,0,0-1.09-1.52"/><path class="cls-2" d="M164,167a5.9,5.9,0,0,0-2.35-.46c-2.18,0-3.87.59-4.83,1.85a5.43,5.43,0,0,0-1,3.47v5.29a1.69,1.69,0,0,0,3.37,0v-5.06a3.3,3.3,0,0,1,.33-1.58,2.11,2.11,0,0,1,2-1.06,2.82,2.82,0,0,1,1.09.26,1.9,1.9,0,0,0,1.06.33,1.46,1.46,0,0,0,1.45-1.52A1.84,1.84,0,0,0,164,167"/><path class="cls-2" d="M147.67,166.5a5.88,5.88,0,0,0-4.63,1.88,6.41,6.41,0,0,0-1.46,4.27,6.62,6.62,0,0,0,1.66,4.59,5.64,5.64,0,0,0,4.13,1.56,5.84,5.84,0,0,0,3.21-.86,1.74,1.74,0,0,0,3.24-.79V173a6.52,6.52,0,0,0-1.39-4.5,6.18,6.18,0,0,0-4.76-1.95Zm0,3a2.44,2.44,0,0,1,2,.8,4.19,4.19,0,0,1,.79,2.78v2.21a4.71,4.71,0,0,1-2.54.76,2.71,2.71,0,0,1-2.09-.76,3.5,3.5,0,0,1-.82-2.48,3.92,3.92,0,0,1,.62-2.21A2.39,2.39,0,0,1,147.67,169.47Z"/><path class="cls-2" d="M129.65,160.78a1.69,1.69,0,0,0-1.69,1.65v9.95a6.39,6.39,0,0,0,1.39,4.47,6.16,6.16,0,0,0,4.76,2,5.92,5.92,0,0,0,4.63-1.85,6.51,6.51,0,0,0,1.45-4.3,6.32,6.32,0,0,0-1.58-4.6,5.79,5.79,0,0,0-4.23-1.58,6.55,6.55,0,0,0-3,.62V162.4a1.74,1.74,0,0,0-1.72-1.62Zm4.23,8.43A2.83,2.83,0,0,1,136,170a3.58,3.58,0,0,1,.79,2.51,3.69,3.69,0,0,1-.63,2.21,2.46,2.46,0,0,1-2.12,1.1,2.54,2.54,0,0,1-1.95-.76,3.75,3.75,0,0,1-.76-2.58V170a3.94,3.94,0,0,1,2.55-.83Z"/><path class="cls-2" d="M239.52,166.5a1.66,1.66,0,0,0-1.65,1.25l-2.38,7.38h-.1L233,167.89a1.61,1.61,0,0,0-1.56-1.39,1.68,1.68,0,0,0-1.88,1.65,3.78,3.78,0,0,0,.33,1.32l2.74,7.18c.5,1.39,1.23,2.15,2.68,2.15a2.78,2.78,0,0,0,2.75-2.15l2.57-7.11a5.36,5.36,0,0,0,.33-1.39c0-.92-.33-1.65-1.42-1.65"/><path class="cls-2" d="M112.55,130.26,88.88,147.62l4.46,14.08L81.27,153l-12,8.66,4.76-14-12.2-8.83H76.51s4.56-13.42,4.8-14.15c.23.69,3.53,10.88,3.53,10.88a4.81,4.81,0,0,0,3,3,4.91,4.91,0,0,0,2.94,0,4.69,4.69,0,0,0,2.74-2.35,4.89,4.89,0,0,0,.3-3.6L85.8,107.87a4.72,4.72,0,0,0-4.49-3.27h0a4.73,4.73,0,0,0-4.5,3.27s-6.68,20.47-7,21.43H47.28a4.73,4.73,0,0,0-4.5,3.27,4.14,4.14,0,0,0-.26,1.49,4.75,4.75,0,0,0,1.95,3.84s17.43,12.66,18.22,13.29c-.07.16-7,21.43-7,21.43A4.74,4.74,0,0,0,63,177.91l18.25-13.23,18.25,13.26a4.77,4.77,0,0,0,5.59,0h0a4.74,4.74,0,0,0,1.72-5.29l-6.94-21.46L118.11,138a4.69,4.69,0,0,0,2-3.83,4.83,4.83,0,0,0-.89-2.78,4.7,4.7,0,0,0-6.62-1.09"/><path class="cls-2" d="M159.64,110.12a3.22,3.22,0,0,0-3.28,3.18v28.33a3.28,3.28,0,0,0,6.55,0V113.3A3.18,3.18,0,0,0,159.64,110.12ZM139.5,121.07c-3.5,0-7,1.19-9.13,3.73-1.78,2.15-2.67,4.76-2.67,8.7v19.61a3.23,3.23,0,0,0,3.27,3.17,3.28,3.28,0,0,0,3.27-3.17v-9.43h0a13.35,13.35,0,0,0,5.79,1.13,11,11,0,0,0,7.94-3,13.76,13.76,0,0,0,.46-17.16c-2.05-2.35-5.16-3.6-8.93-3.6Zm-.07,5.72a4.68,4.68,0,0,1,4.07,2.08,7.25,7.25,0,0,1,1.19,4.27,7,7,0,0,1-1.52,4.86,5.21,5.21,0,0,1-4.07,1.55,7.58,7.58,0,0,1-4.86-1.55v-4.77c0-2.44.47-3.83,1.46-5A4.81,4.81,0,0,1,139.43,126.79Z"/><path class="cls-2" d="M169,124.31a3.28,3.28,0,0,1,6.55,0v9.78a6.12,6.12,0,0,0,.66,3.08,4.32,4.32,0,0,0,4.07,2.08,4.15,4.15,0,0,0,4-2.08,6.19,6.19,0,0,0,.66-3.08v-9.78a3.21,3.21,0,0,1,3.27-3.18,3.25,3.25,0,0,1,3.28,3.18v10.18a10.22,10.22,0,0,1-2,6.75c-2,2.48-5.22,3.57-9.22,3.57s-7.34-1.13-9.26-3.57a10.52,10.52,0,0,1-2-6.75V124.31"/><path class="cls-2" d="M210.59,127.38c-2,0-3-1.09-5.22-1.09-1.33,0-2.32.43-2.32,1.59,0,1,1,1.55,2.15,2,1.59.63,3.08,1.06,4.66,1.85a6.14,6.14,0,0,1,3.74,5.82c0,4.17-3.54,7.28-9.29,7.28-4.56,0-8.7-1-8.7-4.07a2.53,2.53,0,0,1,2.52-2.58c2,0,3,1.56,5.91,1.56,1.66,0,2.65-.6,2.65-1.79s-.83-1.55-2.08-2.08c-1.46-.66-3.24-1.16-4.8-1.95a6.2,6.2,0,0,1-3.67-6c0-4.17,3.18-6.81,8.93-6.81,4.36,0,8,1,8,3.63a2.53,2.53,0,0,1-2.51,2.68"/></g></g></g></g></svg>