<svg xmlns="http://www.w3.org/2000/svg" viewBox="0 0 283.46 283.46"><defs><style>.cls-1{fill:#f0008c;}.cls-2{fill:#fff;}</style></defs><title>barrandovplus</title><g id="Layer_2" data-name="Layer 2"><g id="Barrandov"><g id="barrandovplus"><rect class="cls-1" width="283.46" height="283.46"/><g id="logo"><path class="cls-2" d="M222.59,166.5c-3.54,0-6.35,2.31-6.35,6.15s2.81,6.12,6.35,6.12,6.38-2.28,6.38-6.12S226.16,166.5,222.59,166.5Zm0,2.88a3.29,3.29,0,1,1-3,3.27A3,3,0,0,1,222.59,169.37Z"/><path class="cls-2" d="M213.17,160.78a1.72,1.72,0,0,0-1.72,1.65v4.73a6.66,6.66,0,0,0-3-.63,5.65,5.65,0,0,0-4.13,1.59,6.34,6.34,0,0,0-1.65,4.6,6.25,6.25,0,0,0,1.45,4.3,5.91,5.91,0,0,0,4.63,1.85,6.09,6.09,0,0,0,4.73-2,6.45,6.45,0,0,0,1.39-4.46v-10A1.72,1.72,0,0,0,213.17,160.78Zm-4.23,8.43a4,4,0,0,1,2.51.79v2.48a3.54,3.54,0,0,1-.76,2.58,2.52,2.52,0,0,1-2,.76,2.43,2.43,0,0,1-2.12-1.09,3.74,3.74,0,0,1-.6-2.22,3.57,3.57,0,0,1,.79-2.51,2.87,2.87,0,0,1,2.12-.79Z"/><path class="cls-2" d="M195.35,166.5a5.9,5.9,0,0,0-4.79,1.88,5.43,5.43,0,0,0-1,3.47v5.32a1.69,1.69,0,0,0,3.37,0v-5a3.32,3.32,0,0,1,.33-1.59,2.63,2.63,0,0,1,4.27,0,3.33,3.33,0,0,1,.3,1.59v5a1.69,1.69,0,0,0,1.72,1.65,1.72,1.72,0,0,0,1.72-1.65v-5.32a5.25,5.25,0,0,0-1.06-3.47c-1-1.29-2.71-1.88-4.83-1.88"/><path class="cls-2" d="M181.49,166.5a5.86,5.86,0,0,0-4.63,1.88,6.38,6.38,0,0,0-1.45,4.27,6.51,6.51,0,0,0,1.65,4.6,5.65,5.65,0,0,0,4.13,1.55,5.8,5.8,0,0,0,3.21-.86,1.66,1.66,0,0,0,1.55.86,1.64,1.64,0,0,0,1.69-1.65v-4.2a6.48,6.48,0,0,0-1.39-4.5,6.21,6.21,0,0,0-4.76-2Zm0,3a2.44,2.44,0,0,1,2,.79,4.16,4.16,0,0,1,.76,2.78v2.22a4.77,4.77,0,0,1-2.55.76,2.58,2.58,0,0,1-2.05-.76,3.48,3.48,0,0,1-.83-2.48,3.89,3.89,0,0,1,.63-2.22,2.34,2.34,0,0,1,2.08-1.09Z"/><path class="cls-2" d="M173.89,167a5.34,5.34,0,0,0-2.38-.46c-2.15,0-3.87.6-4.83,1.85a5.43,5.43,0,0,0-1,3.47v5.29a1.67,1.67,0,0,0,1.69,1.65,1.64,1.64,0,0,0,1.69-1.65v-5.06a3.32,3.32,0,0,1,.33-1.59,2.11,2.11,0,0,1,2-1.06,2.79,2.79,0,0,1,1.09.26,1.91,1.91,0,0,0,1.06.33,1.44,1.44,0,0,0,1.45-1.52,1.7,1.7,0,0,0-1.09-1.52"/><path class="cls-2" d="M164,167a5.8,5.8,0,0,0-2.35-.46c-2.18,0-3.87.6-4.83,1.85a5.43,5.43,0,0,0-1,3.47v5.29a1.67,1.67,0,0,0,1.69,1.65,1.64,1.64,0,0,0,1.69-1.65v-5.06a3.32,3.32,0,0,1,.33-1.59,2.11,2.11,0,0,1,2-1.06,2.79,2.79,0,0,1,1.09.26,1.91,1.91,0,0,0,1.06.33,1.46,1.46,0,0,0,1.45-1.52A1.85,1.85,0,0,0,164,167"/><path class="cls-2" d="M147.67,166.5a5.86,5.86,0,0,0-4.63,1.88,6.38,6.38,0,0,0-1.45,4.27,6.66,6.66,0,0,0,1.65,4.6,5.65,5.65,0,0,0,4.13,1.55,5.8,5.8,0,0,0,3.21-.86,1.66,1.66,0,0,0,1.55.86,1.64,1.64,0,0,0,1.69-1.65v-4.2a6.48,6.48,0,0,0-1.39-4.5,6.16,6.16,0,0,0-4.76-2Zm0,3a2.44,2.44,0,0,1,2,.79,4.15,4.15,0,0,1,.79,2.78v2.22a4.77,4.77,0,0,1-2.55.76,2.7,2.7,0,0,1-2.08-.76,3.48,3.48,0,0,1-.83-2.48,3.89,3.89,0,0,1,.63-2.22A2.38,2.38,0,0,1,147.67,169.47Z"/><path class="cls-2" d="M129.65,160.78a1.69,1.69,0,0,0-1.69,1.65v10a6.39,6.39,0,0,0,1.39,4.46,6.16,6.16,0,0,0,4.76,2,5.91,5.91,0,0,0,4.63-1.85,6.47,6.47,0,0,0,1.45-4.3,6.29,6.29,0,0,0-1.59-4.6,5.78,5.78,0,0,0-4.23-1.59,6.46,6.46,0,0,0-3,.63v-4.7a1.73,1.73,0,0,0-1.72-1.62Zm4.23,8.43A2.81,2.81,0,0,1,136,170a3.57,3.57,0,0,1,.79,2.51,3.74,3.74,0,0,1-.63,2.22,2.47,2.47,0,0,1-2.12,1.09,2.52,2.52,0,0,1-2-.76,3.7,3.7,0,0,1-.76-2.58V170a3.92,3.92,0,0,1,2.55-.83Z"/><path class="cls-2" d="M239.52,166.5a1.66,1.66,0,0,0-1.65,1.26l-2.38,7.37h-.1L233,167.89a1.61,1.61,0,0,0-1.55-1.39,1.69,1.69,0,0,0-1.88,1.65,3.78,3.78,0,0,0,.33,1.32l2.74,7.18c.5,1.39,1.22,2.15,2.68,2.15a2.77,2.77,0,0,0,2.74-2.15l2.58-7.11a5.51,5.51,0,0,0,.33-1.39c0-.93-.33-1.65-1.42-1.65"/><path class="cls-2" d="M112.55,130.26,88.88,147.62l4.46,14.09L81.27,153l-12,8.66L74,147.65l-12.2-8.83H76.51s4.56-13.42,4.79-14.15c.23.69,3.54,10.88,3.54,10.88a4.8,4.8,0,0,0,3,3,5,5,0,0,0,2.94,0,4.7,4.7,0,0,0,2.74-2.35,4.87,4.87,0,0,0,.3-3.6L85.8,107.87a4.72,4.72,0,0,0-4.5-3.27h0a4.72,4.72,0,0,0-4.5,3.27s-6.68,20.47-7,21.43H47.28a4.72,4.72,0,0,0-4.5,3.27,3.93,3.93,0,0,0-.26,1.49,4.75,4.75,0,0,0,2,3.84s17.43,12.66,18.22,13.29c-.07.17-7,21.43-7,21.43A4.74,4.74,0,0,0,63,177.91l18.25-13.23,18.25,13.26a4.77,4.77,0,0,0,5.59,0h0a4.76,4.76,0,0,0,1.72-5.29l-6.94-21.46L118.11,138a4.7,4.7,0,0,0,2-3.84,4.79,4.79,0,0,0-.89-2.78,4.7,4.7,0,0,0-6.61-1.09"/><path class="cls-2" d="M159.64,110.12a3.22,3.22,0,0,0-3.27,3.17v28.34a3.28,3.28,0,0,0,6.55,0V113.3A3.18,3.18,0,0,0,159.64,110.12ZM139.5,121.07a11.83,11.83,0,0,0-9.13,3.74c-1.79,2.15-2.68,4.76-2.68,8.7v19.61a3.24,3.24,0,0,0,3.27,3.17,3.28,3.28,0,0,0,3.27-3.17v-9.42h0a13.42,13.42,0,0,0,5.79,1.12,10.93,10.93,0,0,0,7.94-3,13.76,13.76,0,0,0,.46-17.16c-2.05-2.35-5.16-3.6-8.93-3.6Zm-.07,5.72a4.68,4.68,0,0,1,4.07,2.08,7.24,7.24,0,0,1,1.19,4.27,7,7,0,0,1-1.52,4.86,5.19,5.19,0,0,1-4.07,1.55,7.57,7.57,0,0,1-4.86-1.55v-4.76c0-2.45.46-3.84,1.45-5A4.82,4.82,0,0,1,139.43,126.79Z"/><path class="cls-2" d="M169,124.31a3.28,3.28,0,0,1,6.55,0v9.79a6.06,6.06,0,0,0,.66,3.08,4.32,4.32,0,0,0,4.07,2.08,4.14,4.14,0,0,0,4-2.08,6.14,6.14,0,0,0,.66-3.08v-9.79a3.28,3.28,0,0,1,6.55,0v10.18c0,3-.66,5.13-2,6.75-2,2.48-5.22,3.57-9.23,3.57s-7.34-1.12-9.26-3.57a10.51,10.51,0,0,1-2-6.75V124.31"/><path class="cls-2" d="M210.59,127.38c-2,0-3-1.09-5.22-1.09-1.32,0-2.31.43-2.31,1.59,0,1,1,1.55,2.15,2,1.59.63,3.08,1.06,4.66,1.85a6.12,6.12,0,0,1,3.74,5.82c0,4.17-3.54,7.27-9.29,7.27-4.56,0-8.7-1-8.7-4.07a2.53,2.53,0,0,1,2.51-2.58c2,0,3,1.55,5.92,1.55,1.65,0,2.65-.6,2.65-1.79s-.83-1.55-2.08-2.08c-1.45-.66-3.24-1.16-4.79-2a6.2,6.2,0,0,1-3.67-6c0-4.17,3.17-6.81,8.93-6.81,4.36,0,8,1,8,3.64a2.53,2.53,0,0,1-2.51,2.68"/></g></g></g></g></svg>