<svg xmlns="http://www.w3.org/2000/svg" viewBox="0 0 283.46 283.46"><defs><style>.cls-1{fill:#ec008c;}.cls-2{fill:#fff;}</style></defs><g id="Layer_2" data-name="Layer 2"><g id="Barrandov"><g id="barrandovkrimi"><rect class="cls-1" width="283.46" height="283.46"/><g id="logo"><path class="cls-2" d="M222.64,176a3.28,3.28,0,1,1,3-3.27,3,3,0,0,1-3,3.27m0-9.42c-3.55,0-6.35,2.32-6.35,6.15s2.8,6.13,6.35,6.13,6.39-2.29,6.39-6.13-2.83-6.15-6.39-6.15m-11.17,6a3.59,3.59,0,0,1-.76,2.58,2.53,2.53,0,0,1-1.93.77,2.43,2.43,0,0,1-2.12-1.08,3.89,3.89,0,0,1-.61-2.22,3.54,3.54,0,0,1,.78-2.5,2.77,2.77,0,0,1,2.12-.82,4.08,4.08,0,0,1,2.52.8Zm1.71-11.71a1.71,1.71,0,0,0-1.71,1.64v4.72a6.47,6.47,0,0,0-3-.65,5.63,5.63,0,0,0-4.12,1.58,6.3,6.3,0,0,0-1.66,4.58,6.37,6.37,0,0,0,1.45,4.3,5.93,5.93,0,0,0,4.62,1.85,6.13,6.13,0,0,0,4.74-1.94,6.38,6.38,0,0,0,1.38-4.47v-10a1.68,1.68,0,0,0-1.68-1.65m-17.79,5.71a5.94,5.94,0,0,0-4.82,1.88,5.39,5.39,0,0,0-1,3.48v5.3a1.7,1.7,0,0,0,3.39,0v-5a3.31,3.31,0,0,1,.34-1.59,2.21,2.21,0,0,1,2.12-1.08,2.26,2.26,0,0,1,2.13,1.08,3.23,3.23,0,0,1,.31,1.59v5a1.72,1.72,0,0,0,3.43,0v-5.3a5.17,5.17,0,0,0-1.06-3.48,5.87,5.87,0,0,0-4.81-1.88m-11.15,8.78a4.87,4.87,0,0,1-2.55.75,2.55,2.55,0,0,1-2.06-.78,3.46,3.46,0,0,1-.82-2.49,4,4,0,0,1,.61-2.22,2.41,2.41,0,0,1,2.09-1,2.48,2.48,0,0,1,2,.8,4.19,4.19,0,0,1,.78,2.78v2.21Zm-2.73-8.75a6,6,0,0,0-4.64,1.87,6.43,6.43,0,0,0-1.44,4.28,6.53,6.53,0,0,0,1.65,4.58,6.24,6.24,0,0,0,7.31.67,1.74,1.74,0,0,0,3.25-.77V173a6.49,6.49,0,0,0-1.4-4.5,6.13,6.13,0,0,0-4.73-1.93m-7.6.44a5.53,5.53,0,0,0-2.37-.47c-2.15,0-3.85.59-4.83,1.86a5.28,5.28,0,0,0-1,3.47v5.3a1.7,1.7,0,0,0,3.4,0v-5a3.34,3.34,0,0,1,.33-1.59,2.14,2.14,0,0,1,2-1.05,2.76,2.76,0,0,1,1.07.25,2,2,0,0,0,1.06.34,1.47,1.47,0,0,0,1.47-1.52,1.76,1.76,0,0,0-1.11-1.54M164,167a5.63,5.63,0,0,0-2.37-.47c-2.17,0-3.87.59-4.84,1.86a5.34,5.34,0,0,0-1,3.47v5.3a1.7,1.7,0,0,0,3.39,0v-5a3.34,3.34,0,0,1,.34-1.59,2.17,2.17,0,0,1,2-1.05,2.82,2.82,0,0,1,1.08.25,2,2,0,0,0,1.06.34,1.46,1.46,0,0,0,1.46-1.52A1.77,1.77,0,0,0,164,167m-13.55,8.31a4.81,4.81,0,0,1-2.54.75,2.55,2.55,0,0,1-2.06-.78,3.42,3.42,0,0,1-.82-2.49,3.88,3.88,0,0,1,.62-2.22,2.35,2.35,0,0,1,2.07-1,2.49,2.49,0,0,1,2,.8,4.2,4.2,0,0,1,.77,2.78v2.21Zm-2.73-8.75a5.93,5.93,0,0,0-4.63,1.87,6.43,6.43,0,0,0-1.44,4.28,6.53,6.53,0,0,0,1.65,4.58,6.24,6.24,0,0,0,7.31.67,1.73,1.73,0,0,0,3.24-.77V173a6.48,6.48,0,0,0-1.39-4.5,6.14,6.14,0,0,0-4.74-1.93m-11.53,8.24a2.45,2.45,0,0,1-2.11,1.08,2.61,2.61,0,0,1-2-.77,3.64,3.64,0,0,1-.74-2.58V170a4.1,4.1,0,0,1,2.52-.8,2.72,2.72,0,0,1,2.11.82,3.54,3.54,0,0,1,.8,2.5,3.81,3.81,0,0,1-.62,2.22m-1.8-8.27a6.31,6.31,0,0,0-3,.65v-4.72a1.71,1.71,0,0,0-3.41,0v10a6.4,6.4,0,0,0,1.4,4.47,6.13,6.13,0,0,0,4.74,1.94,6,6,0,0,0,4.64-1.85,6.48,6.48,0,0,0,1.44-4.31,6.29,6.29,0,0,0-1.57-4.58,5.9,5.9,0,0,0-4.23-1.57m105.19,0a1.67,1.67,0,0,0-1.65,1.25l-2.39,7.37h-.1l-2.4-7.23a1.62,1.62,0,0,0-1.57-1.39,1.67,1.67,0,0,0-1.88,1.65,3.78,3.78,0,0,0,.33,1.31l2.74,7.18c.51,1.39,1.21,2.14,2.67,2.14a2.75,2.75,0,0,0,2.73-2.14l2.57-7.12a4.9,4.9,0,0,0,.33-1.39c0-.9-.29-1.63-1.38-1.63"/><path class="cls-2" d="M112.56,130.26,88.88,147.62l4.45,14.09L81.27,153l-12,8.65L74,147.64l-12.2-8.84H76.5l4.8-14.15,3.54,10.89a4.74,4.74,0,0,0,8.73.68,4.65,4.65,0,0,0,.28-3.62l-8-24.71a4.75,4.75,0,0,0-4.51-3.28h0a4.72,4.72,0,0,0-4.5,3.28l-7,21.43H47.26a4.75,4.75,0,0,0-4.51,3.27,5,5,0,0,0-.23,1.47,4.73,4.73,0,0,0,1.95,3.83s17.43,12.68,18.24,13.28c-.07.17-7,21.44-7,21.44a4.73,4.73,0,0,0,7.29,5.3l18.26-13.23,18.26,13.25a4.73,4.73,0,0,0,5.57,0h0a4.72,4.72,0,0,0,1.71-5.3l-7-21.46,18.23-13.25a4.74,4.74,0,1,0-5.56-7.68"/><path class="cls-2" d="M142.49,137.11l6.63,8.67a3.26,3.26,0,0,1,.72,2,3.38,3.38,0,0,1-3.37,3.27,3.16,3.16,0,0,1-2.66-1.43l-6-8.32L135,143.74v4a3.38,3.38,0,0,1-3.37,3.27,3.3,3.3,0,0,1-3.36-3.27V118.69a3.37,3.37,0,0,1,6.73,0V136l8.93-8.52a3,3,0,0,1,2.09-.82,3.12,3.12,0,0,1,3.11,3.11,2.9,2.9,0,0,1-.87,2.15Zm16.68-2.55a6.6,6.6,0,0,0-.66,3.16v10a3.37,3.37,0,0,1-6.74,0V137.21a10.71,10.71,0,0,1,2-6.89c1.94-2.49,5.31-3.67,9.59-3.67a11,11,0,0,1,4.7.92,3.52,3.52,0,0,1,2.19,3.06,2.9,2.9,0,0,1-2.91,3,4.1,4.1,0,0,1-2.09-.66,5.19,5.19,0,0,0-2.14-.51A4.23,4.23,0,0,0,159.17,134.56Zm13.16-17.7a3.88,3.88,0,1,1,3.88,3.87A3.88,3.88,0,0,1,172.33,116.86Zm3.88,9.84a3.31,3.31,0,0,1,3.37,3.27v17.8a3.39,3.39,0,0,1-3.37,3.27,3.31,3.31,0,0,1-3.37-3.27V130A3.31,3.31,0,0,1,176.21,126.7Zm22.55,11.38c0-3-1.08-5.25-4.14-5.25a3.63,3.63,0,0,0-3.57,2.09,7.3,7.3,0,0,0-.56,3.16v9.64a3.39,3.39,0,0,1-3.37,3.32,3.32,3.32,0,0,1-3.36-3.32V137.26a11,11,0,0,1,1.93-6.88c1.84-2.5,5-3.73,8.93-3.73a9.86,9.86,0,0,1,7.5,3,9.74,9.74,0,0,1,7.5-3c3.88,0,7,1.23,8.88,3.73a11,11,0,0,1,2,6.88v10.46a3.4,3.4,0,0,1-6.79,0v-9.64a8.18,8.18,0,0,0-.51-3.16,3.66,3.66,0,0,0-3.57-2.09c-2.91,0-4.13,2.24-4.13,5.25v9.64a3.39,3.39,0,0,1-3.37,3.32,3.32,3.32,0,0,1-3.37-3.32v-9.64Zm25.4-21.22a3.88,3.88,0,1,1,3.88,3.87A3.88,3.88,0,0,1,224.16,116.86ZM228,126.7a3.31,3.31,0,0,1,3.37,3.27v17.8A3.39,3.39,0,0,1,228,151a3.31,3.31,0,0,1-3.37-3.27V130A3.31,3.31,0,0,1,228,126.7Z"/></g></g></g></g></svg>