<svg xmlns="http://www.w3.org/2000/svg" viewBox="0 0 283.46 283.46"><defs><style>.cls-1{fill:#bec7c4;}</style></defs><title>ceskoslovensko</title><g id="Layer_2" data-name="Layer 2"><g id="Film_Europe" data-name="Film Europe"><g id="ceskoslovensko"><rect class="cls-1" width="283.46" height="283.46"/><g id="logo"><path d="M118.21,138.8a6.57,6.57,0,0,0-6.65,5.15,10.61,10.61,0,0,0,0,4.69,6.45,6.45,0,0,0,4.71,4.94,7.21,7.21,0,0,0,1.9.24,6.61,6.61,0,0,0,5.85-3.07,9.23,9.23,0,0,0,.89-6.62,6.47,6.47,0,0,0-5.66-5.26c-.36,0-.7-.06-1-.07Zm0,2.93a3.18,3.18,0,0,1,1.47.31,3.82,3.82,0,0,1,2,2.6,6.1,6.1,0,0,1-.53,4.55,3.71,3.71,0,0,1-1.92,1.52,2.87,2.87,0,0,1-2.17-.06,3.88,3.88,0,0,1-2.21-2.45c-.82-2.42,0-5.21,1.91-6.15a3.37,3.37,0,0,1,1.47-.32Z"/><path d="M151.24,138.8a6.57,6.57,0,0,0-6.65,5.15,10.61,10.61,0,0,0,0,4.69,6.45,6.45,0,0,0,4.71,4.94,7.21,7.21,0,0,0,1.9.24,6.6,6.6,0,0,0,5.85-3.07,9.28,9.28,0,0,0,.9-6.62,6.5,6.5,0,0,0-5.67-5.26c-.35,0-.7-.06-1-.07Zm0,2.93a3.16,3.16,0,0,1,1.46.31,3.82,3.82,0,0,1,2,2.6,6.1,6.1,0,0,1-.53,4.55,3.71,3.71,0,0,1-1.92,1.52,2.87,2.87,0,0,1-2.17-.06,3.88,3.88,0,0,1-2.21-2.45c-.82-2.42.05-5.21,1.91-6.15a3.38,3.38,0,0,1,1.48-.32Z"/><path d="M234,138.8a6.57,6.57,0,0,0-6.65,5.15,10.61,10.61,0,0,0,0,4.69,6.43,6.43,0,0,0,4.71,4.94,7.21,7.21,0,0,0,1.9.24,6.61,6.61,0,0,0,5.85-3.07,9.23,9.23,0,0,0,.89-6.62,6.49,6.49,0,0,0-5.66-5.26c-.36,0-.7-.06-1-.07Zm0,2.93a3.18,3.18,0,0,1,1.47.31,3.82,3.82,0,0,1,2,2.6,6.15,6.15,0,0,1-.53,4.55,3.71,3.71,0,0,1-1.92,1.52,2.87,2.87,0,0,1-2.17-.06,3.92,3.92,0,0,1-2.22-2.45c-.81-2.42.06-5.21,1.91-6.15a3.38,3.38,0,0,1,1.48-.32Z"/><path d="M206.28,153.76c-2.4-.34-3.89-1.12-4.8-2.5s-.71-1.55.83-2.22c1.15-.5,1.14-.5,1.43,0a3.76,3.76,0,0,0,1.65,1.65,4.35,4.35,0,0,0,3.33.13c1-.53,1.3-1.42.73-2a5.71,5.71,0,0,0-1.92-1,3.2,3.2,0,0,1-.65-.19c-.26-.1-.75-.25-1.08-.34a9.74,9.74,0,0,1-2.89-1.29,2.65,2.65,0,0,1-1.2-1.43,3.76,3.76,0,0,1,.58-3.89,4.3,4.3,0,0,1,2.16-1.37,5.58,5.58,0,0,1,2.35-.28,7.09,7.09,0,0,1,3.74.83c1,.52,2.21,2,2,2.48a1.69,1.69,0,0,1-.64.42l-1.23.59-.64.31-.26-.31-.57-.72a2.84,2.84,0,0,0-2.45-1c-1.08,0-1.42.1-1.9.56a.86.86,0,0,0-.33.74c0,.77.63,1.17,2.89,1.86,3.56,1.08,4.71,1.85,5.2,3.47a3.21,3.21,0,0,1,0,2.32,4.45,4.45,0,0,1-3.45,2.94,9.45,9.45,0,0,1-2.87.23Z"/><path d="M131.25,153.69c-2.41-.35-3.89-1.12-4.81-2.5s-.71-1.55.83-2.22c1.16-.5,1.14-.5,1.44,0a3.61,3.61,0,0,0,1.65,1.65,2.72,2.72,0,0,0,1.79.41,2.79,2.79,0,0,0,1.54-.28c1-.52,1.29-1.41.73-2a5.75,5.75,0,0,0-1.93-1,3,3,0,0,1-.64-.19c-.26-.1-.75-.26-1.08-.35a9.26,9.26,0,0,1-2.89-1.28,2.65,2.65,0,0,1-1.2-1.43,3.76,3.76,0,0,1,.57-3.89,4.3,4.3,0,0,1,2.16-1.37,5.63,5.63,0,0,1,2.36-.28,7.11,7.11,0,0,1,3.74.83c1,.52,2.2,2,2,2.48a1.82,1.82,0,0,1-.64.42l-1.23.59-.65.31-.25-.31-.57-.72a2.82,2.82,0,0,0-2.45-1c-1.09,0-1.42.1-1.91.55a.92.92,0,0,0-.33.75c0,.76.63,1.17,2.89,1.86,3.57,1.08,4.72,1.85,5.21,3.47a3.26,3.26,0,0,1,0,2.32,4.46,4.46,0,0,1-3.45,2.94,9.48,9.48,0,0,1-2.87.23Z"/><path d="M90.39,153.68c-2.4-.35-3.88-1.12-4.8-2.5s-.71-1.55.83-2.22c1.16-.5,1.14-.5,1.43,0a3.63,3.63,0,0,0,1.66,1.65,4.2,4.2,0,0,0,3.32.13c1-.52,1.3-1.41.73-2a5.62,5.62,0,0,0-1.92-1,3.75,3.75,0,0,1-.64-.19c-.27-.1-.76-.26-1.09-.35A9.25,9.25,0,0,1,87,145.9a2.58,2.58,0,0,1-1.19-1.42,3.76,3.76,0,0,1,.57-3.9,4.36,4.36,0,0,1,2.16-1.36,5.74,5.74,0,0,1,2.36-.29,7.14,7.14,0,0,1,3.74.84c1,.51,2.2,2,2,2.47a1.83,1.83,0,0,1-.65.43l-1.22.58-.65.32-.26-.31-.57-.72a2.8,2.8,0,0,0-2.44-1c-1.09,0-1.43.1-1.91.55a.89.89,0,0,0-.33.75c0,.76.63,1.17,2.89,1.85,3.56,1.09,4.71,1.86,5.21,3.48a3.31,3.31,0,0,1,0,2.32,4.48,4.48,0,0,1-3.46,2.94,9.78,9.78,0,0,1-2.87.23Z"/><path d="M77.36,138.76a7.31,7.31,0,0,0-.8.05,6.48,6.48,0,0,0-5.7,5,7.22,7.22,0,0,0-.29,2.41,7.56,7.56,0,0,0,.87,4,6.5,6.5,0,0,0,4.13,3.37A7.74,7.74,0,0,0,81,153a5.44,5.44,0,0,0,1.89-1.66,4.88,4.88,0,0,0,.79-1.63,12.81,12.81,0,0,0-1.53-.91,8.77,8.77,0,0,0-1-.41,2,2,0,0,0-.47.64,3.25,3.25,0,0,1-1.87,1.65,3,3,0,0,1-2.16.06,3.55,3.55,0,0,1-2-1.26,4.18,4.18,0,0,1-.75-2.12V147h5c4.42,0,5.08.05,5.18-.09s.08-.45,0-1.48c-.2-4.21-2.81-6.74-6.73-6.64Zm.19,2.94a3.71,3.71,0,0,1,1.6.31,2.94,2.94,0,0,1,1.6,2l0,.39H74.13l.11-.45A3.11,3.11,0,0,1,76,142a3.54,3.54,0,0,1,1.6-.32Z"/><path d="M178.13,138.72l-.8.06a6.45,6.45,0,0,0-5.7,4.95,7,7,0,0,0-.29,2.41,7.45,7.45,0,0,0,.87,4,6.45,6.45,0,0,0,4.13,3.37,7.76,7.76,0,0,0,5.37-.56,5.6,5.6,0,0,0,1.9-1.67,5.37,5.37,0,0,0,.79-1.62,12.92,12.92,0,0,0-1.54-.92,7.39,7.39,0,0,0-1-.4,1.76,1.76,0,0,0-.47.63,3.35,3.35,0,0,1-1.88,1.66,3,3,0,0,1-2.16.05,3.51,3.51,0,0,1-1.94-1.25,4.21,4.21,0,0,1-.76-2.12v-.34h5c4.41,0,5.08,0,5.18-.09s.07-.45,0-1.48c-.2-4.21-2.8-6.74-6.72-6.64Zm.18,2.94a3.73,3.73,0,0,1,1.61.31,2.93,2.93,0,0,1,1.59,2.05l0,.39H174.9l.11-.45a3,3,0,0,1,1.71-2,3.66,3.66,0,0,1,1.59-.32Z"/><path d="M186.44,153.26a62.32,62.32,0,0,1-.11-7.11c0-6,.08-7,.23-7.08A6.72,6.72,0,0,1,188,139c1.46,0,1.62-.07,1.63.11a12.56,12.56,0,0,0,0,1.49,2.51,2.51,0,0,0,.88-.52,5.31,5.31,0,0,1,2.87-1.24c3-.4,5.06.94,5.78,3.74.22.85.24,1.28.21,5.85l0,4.94-1.49,0c-1.12,0-1.52,0-1.6-.12s-.1-2.22-.1-4.73c0-4.29,0-4.61-.24-5.1a2.39,2.39,0,0,0-2.5-1.7A2.56,2.56,0,0,0,192,142a4.56,4.56,0,0,0-2,2.36l-.36.9,0,3.91a29.92,29.92,0,0,1-.17,4.06,6.62,6.62,0,0,1-3,0Z"/><path d="M59.7,153.58a8.63,8.63,0,0,1-6.48-8c-.4-4.63,1.53-8.37,5.16-10A11.16,11.16,0,0,1,62,134.8a9.13,9.13,0,0,1,5.44,1.93A7.77,7.77,0,0,1,69.7,140c0,.25-.39.54-1.78,1.34-1,.58-1.24.55-1.48-.2a4.64,4.64,0,0,0-4.45-3c-3.16,0-5.29,2.48-5.29,6.18a6.65,6.65,0,0,0,1.51,4.57,4.91,4.91,0,0,0,2.44,1.47,4.29,4.29,0,0,0,2.72,0,4.4,4.4,0,0,0,3-2.71c.19-.5.28-.61.56-.64a.78.78,0,0,1,.54.14c.11.09.65.43,1.2.74.71.41,1,.63,1,.8a6,6,0,0,1-1.81,2.76,7.33,7.33,0,0,1-3.82,2.15,9.49,9.49,0,0,1-4.37,0Z"/><path d="M60.55,133.77a3.33,3.33,0,0,1-.67-.59l-1.78-1.86a9.75,9.75,0,0,1-1.29-1.51c0-.15.29-.18,1.65-.18h1.65l.87.84a5.82,5.82,0,0,0,1,.85,5.81,5.81,0,0,0,.94-.85l.84-.84h1.65a5.39,5.39,0,0,1,1.73.13,4.93,4.93,0,0,1-1,1.29c-.63.64-1.47,1.52-1.87,1.95l-.74.79-1.36,0a9.29,9.29,0,0,1-1.54,0Z"/><path d="M139.75,135.35h3v18h-3Z"/><path d="M214.57,153.33c-.2-.19-.22-17.45,0-17.81s.26-.24,1.49-.24c1,0,1.4.05,1.5.17a34.88,34.88,0,0,1,.16,4.83c0,3.12,0,4.92.08,4.93s1.33-1.39,3.27-3.66c.74-.83,1.48-1.62,2.21-2.46l1.71,0c1.51,0,1.81,0,1.79.1a40.34,40.34,0,0,1-3.27,3.95,8.82,8.82,0,0,0-1.12,1.46,16.71,16.71,0,0,0,1.76,2.95c.26.4.78,1.24,1.17,1.87.67,1.09,1,1.67,2,3.1.32.49.62.94.49,1s-1,0-2,0H224l-.28-.45-.34-.57-1.56-2.62c-1.19-2-1.55-2.5-1.75-2.5s-.58.39-1.27,1.21l-1,1.22-.06,1.82-.06,1.83-1.44,0c-1,0-1.5,0-1.6-.12Z"/><path d="M98.79,153.31c-.2-.2-.22-17.45,0-17.82.11-.21.27-.23,1.49-.23,1,0,1.41,0,1.5.16a33.73,33.73,0,0,1,.17,4.84c0,3.12,0,4.91.07,4.92s1.33-1.39,3.28-3.65c.74-.84,1.48-1.63,2.2-2.47l1.71,0c1.52,0,1.81,0,1.79.1a35.64,35.64,0,0,1-3.27,4,8.09,8.09,0,0,0-1.11,1.46c0,.16.26.6,1.76,3l1.17,1.86c.67,1.09,1,1.67,2,3.11.32.48.62.94.49,1s-1,0-2,0h-1.8l-.28-.45c-.16-.25-.31-.51-.35-.58L106,149.8c-1.19-2-1.55-2.49-1.75-2.49s-.58.39-1.28,1.21l-1,1.21-.06,1.83-.06,1.83-1.45,0c-1,0-1.49,0-1.59-.11Z"/><path d="M157.52,139l5.61,14.52h3.25L172,139h-3.37l-3.86,10.41h-.1L161,139Z"/><path d="M47,135.05a4.45,4.45,0,1,0,4.46,4.45A4.45,4.45,0,0,0,47,135.05Zm0,1.42a3,3,0,1,1-3,3A3,3,0,0,1,47,136.47Z"/><path d="M47,144.92a4.46,4.46,0,1,0,4.46,4.46A4.46,4.46,0,0,0,47,144.92Zm0,1.42a3,3,0,1,1-3,3A3,3,0,0,1,47,146.34Z"/></g></g></g></g></svg>