<svg xmlns="http://www.w3.org/2000/svg" viewBox="0 0 283.46 283.46"><defs><style>.cls-1{fill:#bec7c4;}</style></defs><title>ceskoslovensko</title><g id="Layer_2" data-name="Layer 2"><g id="Film_Europe" data-name="Film Europe"><g id="ceskoslovensko"><rect class="cls-1" width="283.46" height="283.46"/><g id="logo"><path d="M118.21,138.8a6.57,6.57,0,0,0-6.65,5.15,10.5,10.5,0,0,0,0,4.68,6.44,6.44,0,0,0,4.71,4.95,7.28,7.28,0,0,0,1.9.23,6.61,6.61,0,0,0,5.85-3.06,9.26,9.26,0,0,0,.89-6.62,6.48,6.48,0,0,0-5.66-5.26,9,9,0,0,0-1-.07Zm0,2.92a3.28,3.28,0,0,1,1.47.32,3.85,3.85,0,0,1,2,2.59,6.13,6.13,0,0,1-.53,4.55,3.73,3.73,0,0,1-1.92,1.52,2.9,2.9,0,0,1-2.17-.06,3.91,3.91,0,0,1-2.21-2.46c-.82-2.41.05-5.21,1.91-6.15a3.36,3.36,0,0,1,1.48-.32Z"/><path d="M151.24,138.8a6.57,6.57,0,0,0-6.65,5.15,10.5,10.5,0,0,0,0,4.68,6.44,6.44,0,0,0,4.71,4.95,7.28,7.28,0,0,0,1.9.23,6.61,6.61,0,0,0,5.85-3.06,9.26,9.26,0,0,0,.89-6.62,6.48,6.48,0,0,0-5.66-5.26,9,9,0,0,0-1-.07Zm0,2.92a3.28,3.28,0,0,1,1.47.32,3.85,3.85,0,0,1,2,2.59,6.13,6.13,0,0,1-.53,4.55,3.73,3.73,0,0,1-1.92,1.52,2.9,2.9,0,0,1-2.17-.06,3.91,3.91,0,0,1-2.21-2.46c-.82-2.41.05-5.21,1.91-6.15a3.36,3.36,0,0,1,1.48-.32Z"/><path d="M234,138.8a6.57,6.57,0,0,0-6.65,5.15,10.5,10.5,0,0,0,0,4.68,6.44,6.44,0,0,0,4.71,4.95,7.28,7.28,0,0,0,1.9.23,6.61,6.61,0,0,0,5.85-3.06,9.26,9.26,0,0,0,.89-6.62,6.48,6.48,0,0,0-5.66-5.26,9,9,0,0,0-1-.07Zm0,2.92a3.28,3.28,0,0,1,1.47.32,3.85,3.85,0,0,1,2,2.59,6.13,6.13,0,0,1-.53,4.55,3.73,3.73,0,0,1-1.92,1.52,2.9,2.9,0,0,1-2.17-.06,3.91,3.91,0,0,1-2.21-2.46c-.82-2.41.05-5.21,1.91-6.15a3.36,3.36,0,0,1,1.48-.32Z"/><path d="M206.28,153.76c-2.4-.35-3.89-1.12-4.81-2.51s-.71-1.55.83-2.22c1.16-.5,1.14-.5,1.43,0a3.68,3.68,0,0,0,1.65,1.65,2.73,2.73,0,0,0,1.79.41,2.78,2.78,0,0,0,1.54-.28c1-.52,1.3-1.41.73-2a5.78,5.78,0,0,0-1.92-1,3.23,3.23,0,0,1-.64-.19c-.26-.1-.75-.26-1.08-.35a9.4,9.4,0,0,1-2.89-1.29,2.64,2.64,0,0,1-1.2-1.43,3.76,3.76,0,0,1,.57-3.89,4.35,4.35,0,0,1,2.16-1.36,5.7,5.7,0,0,1,2.36-.29,7.12,7.12,0,0,1,3.74.83c1,.52,2.2,2,2,2.48a1.74,1.74,0,0,1-.64.43l-1.23.58-.65.31-.26-.31-.57-.72a2.83,2.83,0,0,0-2.45-1c-1.09,0-1.42.1-1.91.55a.9.9,0,0,0-.33.75c0,.76.63,1.17,2.89,1.86,3.56,1.08,4.72,1.85,5.21,3.47a3.28,3.28,0,0,1,0,2.32,4.45,4.45,0,0,1-3.45,2.94,9.59,9.59,0,0,1-2.87.23Z"/><path d="M131.25,153.69c-2.4-.35-3.89-1.12-4.81-2.51s-.71-1.55.83-2.22c1.16-.5,1.14-.5,1.43,0a3.68,3.68,0,0,0,1.65,1.65,2.73,2.73,0,0,0,1.79.41,2.78,2.78,0,0,0,1.54-.28c1-.52,1.3-1.41.73-2a5.78,5.78,0,0,0-1.92-1,3.23,3.23,0,0,1-.64-.19c-.26-.1-.75-.26-1.08-.35a9.4,9.4,0,0,1-2.89-1.29,2.64,2.64,0,0,1-1.2-1.43,3.76,3.76,0,0,1,.57-3.89,4.35,4.35,0,0,1,2.16-1.36,5.7,5.7,0,0,1,2.36-.29,7.12,7.12,0,0,1,3.74.83c1,.52,2.2,2,2,2.48a1.74,1.74,0,0,1-.64.43l-1.23.58-.65.31-.26-.31-.57-.72a2.83,2.83,0,0,0-2.45-1c-1.09,0-1.42.1-1.91.55a.9.9,0,0,0-.33.75c0,.76.63,1.17,2.89,1.86,3.56,1.08,4.72,1.85,5.21,3.47a3.28,3.28,0,0,1,0,2.32,4.45,4.45,0,0,1-3.45,2.94,9.59,9.59,0,0,1-2.87.23Z"/><path d="M90.39,153.68c-2.4-.35-3.89-1.12-4.81-2.51s-.71-1.55.83-2.22c1.16-.5,1.14-.5,1.43,0a3.68,3.68,0,0,0,1.65,1.65,2.73,2.73,0,0,0,1.79.41,2.78,2.78,0,0,0,1.54-.28c1-.52,1.3-1.41.73-2a5.78,5.78,0,0,0-1.92-1,3.23,3.23,0,0,1-.64-.19c-.26-.1-.75-.26-1.08-.35A9.4,9.4,0,0,1,87,145.9a2.64,2.64,0,0,1-1.2-1.43,3.76,3.76,0,0,1,.57-3.89,4.35,4.35,0,0,1,2.16-1.36,5.7,5.7,0,0,1,2.36-.29,7.12,7.12,0,0,1,3.74.83c1,.52,2.2,2,2,2.48a1.74,1.74,0,0,1-.64.43l-1.23.58-.65.31-.26-.31-.57-.72a2.83,2.83,0,0,0-2.45-1c-1.09,0-1.42.1-1.91.55a.9.9,0,0,0-.33.75c0,.76.63,1.17,2.89,1.86,3.56,1.08,4.72,1.85,5.21,3.47a3.28,3.28,0,0,1,0,2.32,4.45,4.45,0,0,1-3.45,2.94,9.59,9.59,0,0,1-2.87.23Z"/><path d="M77.36,138.76c-.26,0-.53,0-.8.06a6.46,6.46,0,0,0-5.69,5,6.94,6.94,0,0,0-.29,2.41,7.48,7.48,0,0,0,.87,4,6.49,6.49,0,0,0,4.13,3.37,7.77,7.77,0,0,0,5.38-.56,5.51,5.51,0,0,0,1.89-1.66,5.06,5.06,0,0,0,.79-1.62,12.16,12.16,0,0,0-1.53-.91,7.61,7.61,0,0,0-1-.41,1.93,1.93,0,0,0-.47.63,3.27,3.27,0,0,1-1.87,1.66,2.94,2.94,0,0,1-2.16.05,3.52,3.52,0,0,1-1.95-1.25,4.17,4.17,0,0,1-.76-2.12V147h5c4.41,0,5.08.05,5.18-.09s.07-.45,0-1.48c-.2-4.21-2.81-6.74-6.73-6.64Zm.18,2.94a3.71,3.71,0,0,1,1.61.31,2.92,2.92,0,0,1,1.59,2l0,.39H74.13l.11-.45A3.08,3.08,0,0,1,76,142a3.63,3.63,0,0,1,1.59-.32Z"/><path d="M178.13,138.72c-.26,0-.53,0-.8.06a6.46,6.46,0,0,0-5.69,5,6.94,6.94,0,0,0-.29,2.41,7.48,7.48,0,0,0,.87,4,6.49,6.49,0,0,0,4.13,3.37,7.77,7.77,0,0,0,5.38-.56,5.51,5.51,0,0,0,1.89-1.66,5.06,5.06,0,0,0,.79-1.62,12.16,12.16,0,0,0-1.53-.91,7.61,7.61,0,0,0-1-.41,1.93,1.93,0,0,0-.47.63,3.27,3.27,0,0,1-1.87,1.66,2.94,2.94,0,0,1-2.16.05,3.52,3.52,0,0,1-1.95-1.25,4.17,4.17,0,0,1-.76-2.12v-.34h5c4.41,0,5.08.05,5.18-.09s.07-.45,0-1.48c-.2-4.21-2.81-6.74-6.73-6.64Zm.18,2.94a3.71,3.71,0,0,1,1.61.31,2.92,2.92,0,0,1,1.59,2l0,.39H174.9l.11-.45a3.08,3.08,0,0,1,1.71-2,3.63,3.63,0,0,1,1.59-.32Z"/><path d="M186.44,153.26a61.68,61.68,0,0,1-.11-7.11c0-6,.07-7,.23-7.08A7.26,7.26,0,0,1,188,139c1.46,0,1.62-.07,1.63.11a12.4,12.4,0,0,0,0,1.49,2.27,2.27,0,0,0,.87-.52,5.37,5.37,0,0,1,2.87-1.24c3-.4,5.05.95,5.78,3.75.22.85.23,1.27.2,5.85l0,4.93-1.5,0c-1.12,0-1.52,0-1.59-.12s-.1-2.21-.1-4.73c0-4.28,0-4.61-.24-5.1a2.41,2.41,0,0,0-2.5-1.7A2.68,2.68,0,0,0,192,142a4.57,4.57,0,0,0-2,2.37l-.36.89,0,3.91a30,30,0,0,1-.17,4.07,6.66,6.66,0,0,1-3,0Z"/><path d="M59.7,153.58a8.64,8.64,0,0,1-6.48-8c-.4-4.63,1.53-8.37,5.16-10A11,11,0,0,1,62,134.8a9.11,9.11,0,0,1,5.44,1.93A7.67,7.67,0,0,1,69.7,140c0,.25-.39.54-1.78,1.34-1,.58-1.24.55-1.48-.2a4.64,4.64,0,0,0-4.45-3c-3.16,0-5.3,2.48-5.3,6.18a6.62,6.62,0,0,0,1.51,4.56,4.83,4.83,0,0,0,2.44,1.47,4.3,4.3,0,0,0,2.73,0,4.43,4.43,0,0,0,3-2.71c.19-.5.28-.61.56-.64a.8.8,0,0,1,.54.14,13.23,13.23,0,0,0,1.19.74c.72.41,1,.63,1,.81a6,6,0,0,1-1.81,2.76,7.42,7.42,0,0,1-3.82,2.15,9.64,9.64,0,0,1-4.37,0Z"/><path d="M60.55,133.77a3.29,3.29,0,0,1-.67-.59l-1.78-1.86a9.26,9.26,0,0,1-1.29-1.52c0-.14.29-.18,1.65-.18h1.65l.87.84a6.32,6.32,0,0,0,1,.84,6,6,0,0,0,.94-.84l.84-.84h1.65a5.6,5.6,0,0,1,1.73.13,5.16,5.16,0,0,1-1.06,1.29l-1.87,2-.73.78-1.36,0a10.43,10.43,0,0,1-1.54,0Z"/><path d="M139.75,135.35h3v18h-3Z"/><path d="M214.57,153.33c-.19-.19-.22-17.45,0-17.81.11-.21.26-.23,1.49-.23,1,0,1.4,0,1.5.16a34.28,34.28,0,0,1,.17,4.84c0,3.12,0,4.91.07,4.92s1.33-1.39,3.28-3.66c.74-.83,1.48-1.62,2.2-2.46l1.71,0c1.51,0,1.81,0,1.79.1a39.53,39.53,0,0,1-3.27,4,8.22,8.22,0,0,0-1.11,1.45c0,.16.26.6,1.76,3l1.17,1.87c.67,1.09,1,1.67,2,3.1.32.49.62.94.49,1s-1,0-2,0H224l-.28-.45-.34-.57-1.56-2.62c-1.19-2-1.55-2.5-1.75-2.5s-.58.39-1.28,1.21l-1,1.21-.06,1.83-.06,1.83-1.45,0c-1,0-1.49,0-1.6-.11Z"/><path d="M98.79,153.31c-.19-.19-.22-17.45,0-17.81.11-.21.26-.23,1.49-.23,1,0,1.4,0,1.5.16a34.28,34.28,0,0,1,.17,4.84c0,3.12,0,4.91.07,4.92s1.33-1.39,3.28-3.66c.74-.83,1.48-1.62,2.2-2.46l1.71,0c1.51,0,1.81,0,1.79.1a39.53,39.53,0,0,1-3.27,4,8.22,8.22,0,0,0-1.11,1.45c0,.16.26.6,1.76,3l1.17,1.87c.67,1.09,1,1.67,2,3.1.32.49.62.94.49,1s-1,0-2,0h-1.8l-.28-.45-.34-.57L106,149.8c-1.19-2-1.55-2.5-1.75-2.5s-.58.39-1.28,1.21l-1,1.21-.06,1.83-.06,1.83-1.45,0c-1,0-1.49,0-1.6-.11Z"/><path d="M157.52,139l5.6,14.52h3.25L172,139h-3.37l-3.87,10.41h-.1L161,139h-3.46Z"/><path d="M47,135a4.45,4.45,0,1,0,4.45,4.45A4.45,4.45,0,0,0,47,135Zm0,1.42a3,3,0,1,1-3,3A3,3,0,0,1,47,136.47Z"/><path d="M47,144.92a4.45,4.45,0,1,0,4.45,4.45A4.45,4.45,0,0,0,47,144.92Zm0,1.42a3,3,0,1,1-3,3A3,3,0,0,1,47,146.34Z"/></g></g></g></g></svg>