<svg xmlns="http://www.w3.org/2000/svg" xmlns:xlink="http://www.w3.org/1999/xlink" viewBox="0 0 283.46 283.46"><defs><style>.cls-1{fill:#02105e;}.cls-2,.cls-4{fill-rule:evenodd;}.cls-2{fill:url(#linear-gradient);}.cls-3{fill:url(#linear-gradient-2);}.cls-4{fill:#f6f9ff;}.cls-5{fill:#c00;}.cls-6{fill:#fff;}</style><linearGradient id="linear-gradient" x1="-311.12" y1="596.1" x2="-310.87" y2="596.1" gradientTransform="matrix(845.3, 1.74, 0.62, -302.03, 262692.5, 180708.73)" gradientUnits="userSpaceOnUse"><stop offset="0" stop-color="#002f68"/><stop offset="0.4" stop-color="#1281ec"/><stop offset="1" stop-color="#013f7e"/></linearGradient><linearGradient id="linear-gradient-2" x1="-307.09" y1="596.99" x2="-306.84" y2="596.99" gradientTransform="matrix(0, -96.19, -96.19, 0, 57599.63, -29361.38)" gradientUnits="userSpaceOnUse"><stop offset="0" stop-color="#d9d9d9"/><stop offset="1" stop-color="#fff"/></linearGradient></defs><g id="Layer_2" data-name="Layer 2"><g id="Prima"><g id="cnnprimanews"><rect class="cls-1" width="283.46" height="283.46"/><g id="logo"><path class="cls-2" d="M112.18,152.92v-46H240.94v46Z"/><rect class="cls-3" x="112.18" y="153.36" width="128.76" height="23.19"/><path d="M221.11,167.07a1.66,1.66,0,0,1,1.3.52.83.83,0,0,1,.18.47.78.78,0,0,1-.23.51,1.52,1.52,0,0,1-.92.42,5.4,5.4,0,0,1-1.08.1,2.54,2.54,0,0,1-2.47-1.17l-7.09-.12a5,5,0,0,0,.66,2,5,5,0,0,0,2.14,1.74,11.8,11.8,0,0,0,2.51.73c.44.06.89.1,1.34.14.79,0,1.58.1,2.37.1s1.82-.06,2.73-.1c1.8-.22,3.52-.44,4.85-1.72a4.51,4.51,0,0,0,1.44-3.16,3.48,3.48,0,0,0-.58-1.94c-.86-1.34-2.23-1.7-3.67-2l-6.38-1c-.36-.06-.92-.14-1.09-.54a.74.74,0,0,1-.08-.29.77.77,0,0,1,.23-.5,2.62,2.62,0,0,1,1.7-.45c.06,0,1.91,0,2.55.93a1.47,1.47,0,0,1,.22.43l6.66.14a4.49,4.49,0,0,0-.77-2.09,4.28,4.28,0,0,0-1.09-1c-1.87-1.23-4.21-1.39-6.44-1.52-.61,0-1.2,0-1.79,0s-1.27.07-1.88.13a7.61,7.61,0,0,0-3.74,1.25,3.44,3.44,0,0,0-.73.75,4,4,0,0,0-.73,2.35,3.48,3.48,0,0,0,1.07,2.67,6.17,6.17,0,0,0,2.65,1.18ZM169,158.2v3.36h-9.64v1.62h7.94v3.42h-8v2h10.25v3.48H153.88V158.2Zm15.93,0c.37,1.76.73,3.54,1.07,5.3.21,1.24.39,2.49.59,3.71.26-1.5.53-3,.85-4.46s.69-3.05,1.06-4.55h4l1.91,9.21c.18-1.37.36-2.73.58-4.07.29-1.72.61-3.42.93-5.14h5.41l-3.53,13.85h-5.6l-1.76-7.8c-.27,1.4-.53,2.8-.84,4.19-.3,1.2-.6,2.41-.92,3.61H183l-3.45-13.85Zm-48.3,8.48V158.2h5.08v13.85h-6.29c-.49-.67-1-1.32-1.44-2l-1-1.45c-.33-.49-.71-.94-1.06-1.44s-.56-.83-.85-1.24-.55-.75-.81-1.15-.7-1.07-1-1.62l.08,8.91h-5V158.2h6.36Z"/><path class="cls-4" d="M128.8,147.63h-8.13V112.16l14.39,2.29c5.16.83,9.8,4.38,9.8,12.18,0,8.17-3.73,11.15-9.8,10.83l-6.26-.34Zm9.09-21.13c0-3.2-1.68-4.7-3.95-5l-5.14-.65V130l5.14.44C136.25,130.6,137.89,129.6,137.89,126.5Z"/><path class="cls-4" d="M153.11,147.63h-6.77V121.37l6.58.89v4.64H153a5,5,0,0,1,6-3.94l1.29.17v7.45l-1.7-.16c-2.19-.21-5.46.2-5.46,5.21Z"/><path class="cls-4" d="M167.05,147.63h-5.66V123.68l5.66.76ZM167,122.3l-5.61-.81v-6.28l5.61,1Z"/><path class="cls-4" d="M177.38,147.63h-7.51V124.45h7.28v3.33h.09a8,8,0,0,1,6.88-4c3,0,5.34,1,6.64,3.94a8.73,8.73,0,0,1,7.47-3.94c7.62,0,8.12,5.86,8.12,10.49v13.4h-7.52V134.47c0-2.62-1.25-4.17-3.28-4.17-3.36,0-3.69,2.62-3.69,6.56v10.77h-7.51V134.94c0-2.86-.84-4.64-2.95-4.64-2.82,0-4,1.64-4,6.61Z"/><path class="cls-4" d="M217.56,131.45h-8.28a6.71,6.71,0,0,1,4.05-6.25,18.93,18.93,0,0,1,8-1.35q7.44,0,9.73,2.86,1.35,1.71,1.35,6.22v9.52q0,3.62,1.08,5.19h-9.09a5.15,5.15,0,0,1-.32-2.19H224c-1.65,1.84-4.16,2.77-7.52,2.77a9.14,9.14,0,0,1-5.8-1.7,6.33,6.33,0,0,1-2.43-5.32,6.06,6.06,0,0,1,2.43-5.14,13.3,13.3,0,0,1,5.35-2c1.21-.15,2.41-.31,3.6-.49a11.4,11.4,0,0,0,3.47-.89,1.47,1.47,0,0,0,.77-1.48c0-1.43-1-2.15-2.93-2.15a3.74,3.74,0,0,0-2.65.81,2.05,2.05,0,0,0-.68,1.56Zm6.26,5.77a17,17,0,0,1-3.54,1.12,8.28,8.28,0,0,0-2.08.71,2,2,0,0,0-1,1.79,1.86,1.86,0,0,0,1,1.61,3.27,3.27,0,0,0,1.85.54,3.78,3.78,0,0,0,2.72-1,3.42,3.42,0,0,0,1-2.63Z"/><rect class="cls-5" x="109.58" y="152.1" width="131.36" height="1.26"/><rect class="cls-5" x="42.52" y="106.91" width="69.63" height="69.63"/><path class="cls-6" d="M53.68,141.73A8.3,8.3,0,0,0,62,150h7.82a.84.84,0,0,0,.79-.78V133.89A1.84,1.84,0,0,1,74,133c0,.07,2.41,4.15,4.92,8.47,2.4,4.13,4.87,8.4,4.91,8.47a.65.65,0,0,0,1.2-.33V133.89a1.84,1.84,0,0,1,1.84-1.84,1.87,1.87,0,0,1,1.59.9l4.9,8.47c2.4,4.13,4.87,8.4,4.91,8.47a.65.65,0,0,0,1.2-.33V129.25h-3v12.09s-5.58-9.62-5.77-9.92A4.66,4.66,0,0,0,82,133.81v7.53s-5.58-9.62-5.77-9.92a4.66,4.66,0,0,0-8.67,2.39v12.37a.82.82,0,0,1-.83.84H62a5.29,5.29,0,1,1,0-10.58h4v-3H62a8.29,8.29,0,0,0-8.29,8.28"/><path class="cls-6" d="M100.67,129.25v20.31a1.85,1.85,0,0,1-3.43.94L92.33,142l-4.91-8.47a.64.64,0,0,0-1.19.33v15.67a1.85,1.85,0,0,1-3.43.94L77.88,142,73,133.56a.66.66,0,0,0-.56-.31.64.64,0,0,0-.64.64v15.35a2,2,0,0,1-2,2H62a9.49,9.49,0,0,1,0-19h4v-3H62a12.49,12.49,0,1,0,0,25h7.89c3,0,4.91-1.75,4.91-5v-7.12L80.55,152a4.67,4.67,0,0,0,8.67-2.4v-7.53L95,152a4.67,4.67,0,0,0,8.67-2.4V129.25Z"/></g></g></g></g></svg>