<?xml version="1.0" encoding="UTF-8" standalone="no"?>
<svg
   xmlns:dc="http://purl.org/dc/elements/1.1/"
   xmlns:cc="http://creativecommons.org/ns#"
   xmlns:rdf="http://www.w3.org/1999/02/22-rdf-syntax-ns#"
   xmlns:svg="http://www.w3.org/2000/svg"
   xmlns="http://www.w3.org/2000/svg"
   xmlns:sodipodi="http://sodipodi.sourceforge.net/DTD/sodipodi-0.dtd"
   xmlns:inkscape="http://www.inkscape.org/namespaces/inkscape"
   width="1201.7146"
   height="421.78958"
   viewBox="0 0 1201.7146 421.78958"
   version="1.1"
   xml:space="preserve"
   style="clip-rule:evenodd;fill-rule:evenodd;stroke-linejoin:round;stroke-miterlimit:2"
   id="svg70"
   sodipodi:docname="CNN Prima News.svg"
   inkscape:version="0.92.4 (5da689c313, 2019-01-14)"><metadata
   id="metadata74"><rdf:RDF><cc:Work
       rdf:about=""><dc:format>image/svg+xml</dc:format><dc:type
         rdf:resource="http://purl.org/dc/dcmitype/StillImage" /></cc:Work></rdf:RDF></metadata><sodipodi:namedview
   pagecolor="#ffffff"
   bordercolor="#666666"
   borderopacity="1"
   objecttolerance="10"
   gridtolerance="10"
   guidetolerance="10"
   inkscape:pageopacity="0"
   inkscape:pageshadow="2"
   inkscape:window-width="1920"
   inkscape:window-height="1001"
   id="namedview72"
   showgrid="false"
   inkscape:zoom="0.42269327"
   inkscape:cx="184.90083"
   inkscape:cy="210.48902"
   inkscape:window-x="-9"
   inkscape:window-y="41"
   inkscape:window-maximized="1"
   inkscape:current-layer="svg70" />
    <g
   transform="matrix(1.5,0,0,1.5,-839.15008,-599.10555)"
   id="g54">
        <g
   transform="matrix(0.766406,0,0,0.766406,457.23,-52.9562)"
   id="g52">
            <g
   transform="matrix(1.59001,0,0,1.59,-1557.49,-273.909)"
   id="g4">
                <path
   d="M 1294.16,695.944 V 543.487 h 426.69 v 152.457 z"
   style="fill:url(#_Linear1)"
   id="path2"
   inkscape:connector-curvature="0" />
            </g>
            <g
   transform="matrix(1.58999,0,0,1.56058,-1557.47,108.973)"
   id="g8">
                <rect
   x="1294.16"
   y="465.19501"
   width="426.69101"
   height="78.292"
   style="fill:url(#_Linear2)"
   id="rect6" />
            </g>
            <g
   transform="matrix(1.7798,0,0,1.7798,-1641,122.638)"
   id="g12">
                <path
   d="m 1525.59,440.81 c 1.4,0.117 2.92,0.293 3.85,1.522 0.29,0.409 0.53,0.936 0.53,1.404 0,0.76 -0.53,1.345 -0.69,1.52 -0.88,0.995 -2.34,1.171 -2.71,1.229 -0.51,0.117 -1.75,0.293 -3.22,0.293 -4.68,0 -5.85,-1.639 -7.31,-3.452 l -20.99,-0.351 c 0.4,2.223 0.75,4.095 1.98,5.967 2.04,3.159 5.34,4.739 6.32,5.148 2.11,0.936 5.21,1.814 7.43,2.165 1.29,0.175 2.63,0.292 3.98,0.409 2.34,0.117 4.68,0.293 7.02,0.293 2.69,0 5.38,-0.176 8.08,-0.293 5.32,-0.643 10.41,-1.287 14.34,-5.09 3.61,-3.51 4.26,-7.429 4.26,-9.359 0,-2.867 -1.12,-4.856 -1.71,-5.733 -2.55,-3.978 -6.59,-5.032 -10.87,-6.026 l -18.89,-2.984 c -1.06,-0.175 -2.7,-0.409 -3.21,-1.579 -0.19,-0.292 -0.24,-0.819 -0.24,-0.877 0,-0.527 0.29,-1.054 0.69,-1.463 1.17,-1.17 3.51,-1.345 5.03,-1.345 0.18,0 5.63,-0.117 7.55,2.749 0.23,0.293 0.35,0.527 0.63,1.287 l 19.73,0.409 c -0.42,-2.281 -0.87,-4.387 -2.28,-6.201 -1.17,-1.52 -2.69,-2.515 -3.22,-2.867 -5.56,-3.626 -12.47,-4.094 -19.07,-4.504 -1.81,0 -3.56,0 -5.31,0.059 -1.89,0.117 -3.75,0.234 -5.57,0.409 -3.98,0.585 -7.78,1.171 -11.06,3.686 -0.42,0.35 -1.35,1.053 -2.17,2.223 -1.97,2.691 -2.16,5.733 -2.16,6.961 0,4.329 1.94,6.787 3.16,7.898 2.22,1.989 5.09,2.749 7.85,3.51 z m -154.36,-26.266 v 9.945 h -28.55 v 4.797 h 23.52 v 10.121 h -23.57 v 5.849 h 30.35 v 10.296 h -46.44 v -41.008 z m 47.17,0 c 1.09,5.206 2.15,10.472 3.14,15.678 0.65,3.685 1.17,7.371 1.75,10.998 0.77,-4.446 1.59,-8.833 2.52,-13.221 0.94,-4.505 2.06,-9.009 3.16,-13.455 h 11.76 l 5.67,27.261 c 0.53,-4.037 1.06,-8.073 1.7,-12.051 0.88,-5.089 1.81,-10.121 2.76,-15.21 h 16.02 l -10.46,41.008 h -16.56 l -5.21,-23.107 c -0.82,4.154 -1.57,8.307 -2.51,12.402 -0.88,3.568 -1.75,7.137 -2.7,10.705 h -16.55 l -10.23,-41.008 z m -143,25.097 v -25.097 h 15.04 v 41.008 h -18.61 c -1.46,-1.988 -2.92,-3.919 -4.27,-5.966 -0.99,-1.405 -1.99,-2.867 -2.99,-4.271 -0.99,-1.463 -2.1,-2.808 -3.15,-4.271 -0.82,-1.169 -1.64,-2.456 -2.52,-3.685 -0.76,-1.111 -1.63,-2.223 -2.39,-3.393 -1.06,-1.521 -2.06,-3.159 -3.05,-4.797 l 0.23,26.383 h -14.79 v -41.008 h 18.83 z"
   style="fill-rule:nonzero"
   id="path10"
   inkscape:connector-curvature="0" />
            </g>
            <g
   transform="matrix(1.5625,0,0,1.46009,-1515.94,-1185.76)"
   id="g16">
                <path
   d="m 1346.36,1363.34 h -27.4 v -128.01 l 48.53,8.29 c 17.41,2.98 33.05,15.79 33.05,43.93 0,29.48 -12.58,40.24 -33.05,39.07 l -21.13,-1.2 z m 30.66,-76.27 c 0,-11.53 -5.66,-16.95 -13.31,-17.98 l -17.35,-2.34 v 32.83 l 17.35,1.59 c 7.78,0.71 13.31,-2.91 13.31,-14.1 z"
   style="fill:#f6f9ff"
   id="path14"
   inkscape:connector-curvature="0" />
            </g>
            <g
   transform="matrix(1.5625,0,0,1.46009,-1515.94,-1185.76)"
   id="g20">
                <path
   d="m 1428.41,1363.34 h -22.83 v -94.76 l 22.17,3.19 v 16.77 l 0.27,0.03 c 3.23,-11.72 11.16,-15.55 20.19,-14.23 1.61,0.21 4.33,0.61 4.33,0.61 v 26.89 l -5.72,-0.57 c -7.38,-0.76 -18.41,0.73 -18.41,18.8 z"
   style="fill:#f6f9ff"
   id="path18"
   inkscape:connector-curvature="0" />
            </g>
            <g
   transform="matrix(1.5625,0,0,1.46009,-1515.94,-1185.76)"
   id="g24">
                <path
   d="m 1475.39,1363.34 h -19.09 v -86.44 l 19.09,2.74 z m -0.25,-91.41 -18.91,-2.93 v -22.66 l 18.91,3.61 z"
   style="fill:#f6f9ff"
   id="path22"
   inkscape:connector-curvature="0" />
            </g>
            <g
   transform="matrix(1.5625,0,0,1.46009,-1512.88,-1185.76)"
   id="g28">
                <path
   d="m 1508.3,1363.34 h -25.32 v -83.65 h 24.56 v 12 h 0.31 c 4.82,-8.8 13.38,-14.55 23.2,-14.55 10.13,0 18.01,3.57 22.37,14.2 6.36,-9.28 14.32,-14.2 25.21,-14.2 25.7,0 27.36,21.15 27.36,37.86 v 48.34 h -25.34 v -47.5 c 0,-9.45 -4.21,-15.04 -11.05,-15.04 -11.35,0 -12.46,9.47 -12.46,23.66 v 38.88 h -25.31 v -45.79 c 0,-10.31 -2.83,-16.75 -9.97,-16.75 -9.51,0 -13.56,5.92 -13.56,23.84 z"
   style="fill:#f6f9ff"
   id="path26"
   inkscape:connector-curvature="0" />
            </g>
            <g
   transform="matrix(1.60349,0,0,1.49839,-1578.96,-1235)"
   id="g32">
                <path
   d="m 1643.01,1304.39 h -27.22 c 0.4,-10.37 4.84,-17.71 13.32,-22 6.21,-3.15 14.93,-4.72 26.17,-4.72 16.27,0 26.92,3.36 31.95,10.06 2.96,3.98 4.44,11.27 4.44,21.85 v 33.49 c 0,8.48 1.18,14.56 3.55,18.23 h -29.88 c -0.89,-2.62 -1.23,-5.19 -1.03,-7.7 h -0.3 c -5.42,6.49 -13.66,9.74 -24.7,9.74 -7.99,0 -14.35,-1.99 -19.08,-5.97 -5.32,-4.4 -7.99,-10.64 -7.99,-18.71 0,-7.75 2.67,-13.78 7.99,-18.07 3.85,-3.04 9.71,-5.35 17.6,-6.92 3.95,-0.53 7.89,-1.1 11.83,-1.73 5.13,-0.73 8.93,-1.78 11.39,-3.14 1.68,-0.84 2.52,-2.57 2.52,-5.19 0,-5.03 -3.21,-7.55 -9.62,-7.55 -3.94,0 -6.85,0.95 -8.72,2.83 -1.48,1.47 -2.22,3.3 -2.22,5.5 z m 20.56,20.28 c -2.29,1.26 -6.16,2.57 -11.62,3.93 -3.28,0.84 -5.56,1.68 -6.85,2.52 -2.08,1.47 -3.13,3.56 -3.13,6.29 0,2.3 1.05,4.19 3.13,5.66 1.79,1.25 3.82,1.88 6.1,1.88 3.68,0 6.66,-1.15 8.94,-3.46 2.28,-2.3 3.43,-5.39 3.43,-9.27 z"
   style="fill:#f6f9ff"
   id="path30"
   inkscape:connector-curvature="0" />
            </g>
            <g
   transform="matrix(1.62099,0,0,1.21721,-1610.8,170.088)"
   id="g36">
                <rect
   x="1293.86"
   y="540.75897"
   width="426.98801"
   height="5.4569998"
   style="fill:#cc0000"
   id="rect34" />
            </g>
            <g
   transform="matrix(1.36103,0,0,1.36103,-44.1625,-32.4886)"
   id="g50">
                <g
   transform="matrix(1.16824,0,0,1.16824,-1111.89,-85.9169)"
   id="g40">
                    <rect
   x="1063.41"
   y="465.19501"
   width="230.74899"
   height="230.74899"
   style="fill:#cc0000"
   id="rect38" />
                </g>
                <g
   transform="matrix(1.16824,0,0,1.16824,-1111.89,-101.824)"
   id="g44">
                    <path
   d="m 1100.42,594.211 c 0,15.143 12.32,27.464 27.46,27.464 h 25.93 c 1.43,0 2.6,-1.422 2.6,-2.597 v -50.845 c 0,-3.369 2.74,-6.111 6.11,-6.111 2.15,0 4.18,1.146 5.24,2.992 0.15,0.223 7.98,13.749 16.29,28.074 7.94,13.68 16.15,27.826 16.27,28.061 0.37,0.62 1.09,1.026 1.84,1.026 1.17,0 2.13,-0.958 2.13,-2.137 v -51.905 c 0,-3.369 2.74,-6.111 6.1,-6.111 2.17,0 4.17,1.146 5.26,2.992 0.14,0.223 7.98,13.749 16.27,28.074 7.94,13.68 16.12,27.822 16.26,28.061 0.37,0.62 1.09,1.026 1.83,1.026 1.18,0 2.14,-0.958 2.14,-2.137 v -67.294 h -9.94 v 40.059 c 0,0 -18.5,-31.861 -19.11,-32.884 -2.7,-4.621 -7.82,-7.539 -13.26,-7.539 -8.56,0 -15.47,6.931 -15.47,15.472 v 24.951 c 0,0 -18.52,-31.861 -19.12,-32.884 -2.7,-4.621 -7.83,-7.539 -13.28,-7.539 -8.55,0 -15.47,6.931 -15.47,15.472 v 40.995 c 0,1.492 -1.12,2.793 -2.76,2.795 H 1128 c -9.68,0 -17.53,-7.852 -17.53,-17.531 0,-9.683 7.85,-17.531 17.53,-17.531 h 13.2 v -9.933 h -13.32 c -15.14,0 -27.46,12.319 -27.46,27.464"
   style="fill:#ffffff;fill-rule:nonzero"
   id="path42"
   inkscape:connector-curvature="0" />
                </g>
                <g
   transform="matrix(1.16824,0,0,1.16824,-1111.89,-85.494)"
   id="g48">
                    <path
   d="m 1256.12,538.866 v 67.294 c 0,3.369 -2.74,6.111 -6.11,6.111 -2.15,0 -4.18,-1.148 -5.26,-2.994 -0.13,-0.223 -7.96,-13.752 -16.27,-28.076 -7.92,-13.674 -16.13,-27.818 -16.25,-28.058 -0.37,-0.624 -1.08,-1.025 -1.84,-1.025 -1.17,0 -2.13,0.958 -2.13,2.137 v 51.905 c 0,3.369 -2.74,6.111 -6.12,6.111 -2.15,0 -4.15,-1.148 -5.24,-2.994 -0.12,-0.221 -7.98,-13.752 -16.29,-28.076 -7.94,-13.68 -16.12,-27.826 -16.26,-28.058 -0.37,-0.624 -1.09,-1.025 -1.83,-1.025 -1.18,0 -2.14,0.958 -2.14,2.137 V 605.1 c 0,3.502 -3.07,6.567 -6.57,6.567 h -25.93 c -17.33,0 -31.43,-14.101 -31.43,-31.434 0,-17.335 14.1,-31.434 31.43,-31.434 h 13.32 v -9.933 h -13.3 c -22.86,0 -41.38,18.519 -41.38,41.367 0,22.848 18.52,41.369 41.38,41.369 h 26.17 c 9.91,0.004 16.27,-5.805 16.27,-16.516 v -23.594 c 0,0 18.64,32.084 19.11,32.88 2.71,4.621 7.82,7.539 13.26,7.539 8.56,0 15.48,-6.931 15.48,-15.472 v -24.947 c 0,0 18.51,31.857 19.11,32.88 2.7,4.621 7.84,7.539 13.28,7.539 8.55,0 15.47,-6.931 15.47,-15.472 v -67.573 z"
   style="fill:#ffffff;fill-rule:nonzero"
   id="path46"
   inkscape:connector-curvature="0" />
                </g>
            </g>
        </g>
    </g>
    <defs
   id="defs68">
        <linearGradient
   id="_Linear1"
   x1="0"
   y1="0"
   x2="1"
   y2="0"
   gradientUnits="userSpaceOnUse"
   gradientTransform="matrix(693.666,1.42847,-0.510391,247.848,1172.55,618.287)"><stop
     offset="0"
     style="stop-color:rgb(0,47,104);stop-opacity:1"
     id="stop56" /><stop
     offset="0.4"
     style="stop-color:rgb(18,129,236);stop-opacity:1"
     id="stop58" /><stop
     offset="1"
     style="stop-color:rgb(1,63,126);stop-opacity:1"
     id="stop60" /></linearGradient>
        <linearGradient
   id="_Linear2"
   x1="0"
   y1="0"
   x2="1"
   y2="0"
   gradientUnits="userSpaceOnUse"
   gradientTransform="matrix(0,-80.4203,78.9328,0,1606.26,543.487)"><stop
     offset="0"
     style="stop-color:rgb(217,217,217);stop-opacity:1"
     id="stop63" /><stop
     offset="1"
     style="stop-color:white;stop-opacity:1"
     id="stop65" /></linearGradient>
    </defs>
</svg>