<svg xmlns="http://www.w3.org/2000/svg" viewBox="0 0 283.46 283.46"><defs><style>.cls-1{fill:#ab035c;}.cls-2{fill:#fff;}</style></defs><g id="Layer_2" data-name="Layer 2"><g id="Picons"><g id="croddur"><rect class="cls-1" width="283.46" height="283.46"/><g id="logo"><path class="cls-2" d="M119.21,42.52H77v21h85.07c-6.15-14.33-22.33-21-42.9-21Zm40,53.82H77V75.45h87.7c0,.81.06,1.64,0,2.49-.07,7.77-1.93,13.76-5.56,18.4ZM77,108.3v20.86h76.61L140.82,108.3Zm0,32.82h84l12.92,21H77v-21Z"/><path class="cls-2" d="M133.67,227h-3.21l-1.76,7.18L126.76,227h-3.29l3.08,8.64a4.74,4.74,0,0,1,.44,1.52,1.58,1.58,0,0,1-.45,1.09,2.45,2.45,0,0,1-1.28.27l-.8,0v2.38c.26,0,.53,0,.8,0,1.32,0,3,.09,3.89-1.05a9,9,0,0,0,1-2.3L133.67,227Zm-1.27-4.49h-3.63l-1.47,3.07h2.35l2.75-3.07Zm26.72,15.15v-2.26l5.26-5.88h-4.67V227h8.44v2.45L163,235.17h5.46v2.51Zm17.42,0v-6a2.57,2.57,0,0,0-.51-2,1.6,1.6,0,0,0-1.08-.37,1.78,1.78,0,0,0-1.17.41,3,3,0,0,0-.68,2.45v5.47h-3V223.16h3v5a3.77,3.77,0,0,1,2.9-1.34,3.84,3.84,0,0,1,2.12.6,3.78,3.78,0,0,1,1.44,3.49v6.81Zm8.14,0h-3V223.16h3v14.52Zm22.82-3.27c0-2.67-2.64-3.14-4.69-3.58-.56-.12-1.81-.26-1.81-1s.9-.87,1.48-.87a1.59,1.59,0,0,1,1.87,1.54l2.84-.14c-.13-2.61-2.33-3.62-4.67-3.62-2.16,0-4.45.86-4.45,3.37,0,4.26,6.34,2.72,6.34,4.63,0,.84-.86,1-1.52,1-1.36,0-2.08-.39-2.26-1.77l-2.88.1a4.16,4.16,0,0,0,.1,1c.53,2.2,2.8,3,4.83,3,2.33,0,4.82-.82,4.82-3.58m-11.26-2.67a8.53,8.53,0,0,0-.29-2.9c-.78-1.85-2.77-2.14-4.54-2.14-2.41,0-4.41,1-4.55,3.69h2.8c0-1,1-1.34,1.87-1.34.64,0,1.63.16,1.63,1s-1.12.8-1.65.88c-2.31.33-5.25.6-5.25,3.62A3.42,3.42,0,0,0,190,238a4.93,4.93,0,0,0,3.35-1.28l0,1h2.9v-5.93Zm-3,2.47a2.85,2.85,0,0,1-2.49,1.38c-.7,0-1.42-.33-1.42-1.13,0-1.38,2.2-1.4,3.17-1.65a5.77,5.77,0,0,0,.74-.24v1.64ZM89.71,232.82l-3.39-.23a2.92,2.92,0,0,1-3.11,2.67,3.49,3.49,0,0,1-2.24-.78,5.13,5.13,0,0,1-1.48-4.15c0-2.41,1-4.79,3.72-4.79A2.91,2.91,0,0,1,85.92,227a3,3,0,0,1,.31.76l3.27-.23a5.5,5.5,0,0,0-.24-1c-.87-2.57-3.44-3.74-6-3.74-4.55,0-7.28,3.11-7.28,7.55,0,3,1.44,6,4.38,7.18a7.92,7.92,0,0,0,2.86.47A6.3,6.3,0,0,0,89,235a5.65,5.65,0,0,0,.72-2.2m11.29.41v-.52c0-3.29-1.69-6-5.24-6a5.3,5.3,0,0,0-5.39,5.64c0,3.27,2,5.63,5.39,5.63a5.05,5.05,0,0,0,5.12-3.39l-3-.21a2,2,0,0,1-2,1.13,2.28,2.28,0,0,1-2.3-2.28Zm-3.19-2.3H93.56a2.12,2.12,0,0,1,2.28-1.84,1.93,1.93,0,0,1,2,1.84m13.83,3.47c0-2.67-2.64-3.15-4.69-3.58-.56-.12-1.81-.27-1.81-1s.9-.86,1.48-.86a2.07,2.07,0,0,1,1.6.68,2,2,0,0,1,.27.86l2.84-.14c-.13-2.61-2.33-3.62-4.67-3.62-2.16,0-4.44.86-4.44,3.37,0,4.26,6.33,2.72,6.33,4.63,0,.84-.86,1-1.52,1-1.36,0-2.08-.39-2.26-1.77l-2.88.1a4.16,4.16,0,0,0,.1,1c.53,2.2,2.8,3,4.83,3,2.33,0,4.82-.82,4.82-3.58m12.09,3.27-4.4-6.62,4.11-4h-3.93l-3.29,3.64v-7.51h-3v14.52h3v-3.54l1-1,2.67,4.52Zm23.12-8.06v-2.76a4.73,4.73,0,0,0-.53,0,2.65,2.65,0,0,0-2.76,1.95V227h-3v10.65h3.1V234.2c0-.54,0-1.09,0-1.63,0-1.73.29-3,2.41-3a4.37,4.37,0,0,1,.72.06m11.52,2.69c0-3.18-2.06-5.59-5.33-5.59a5.35,5.35,0,0,0-5.7,5.7c0,3.27,2.08,5.57,5.41,5.57a5.43,5.43,0,0,0,5.62-5.68m-3.11-.12c0,1.58-.53,3.33-2.4,3.33s-2.41-1.68-2.41-3.23.62-3.14,2.45-3.14,2.36,1.52,2.36,3m-70.69-10.3H81l-1.9-2.4h2.78l.92,1.39.87-1.39h2.82l-2,2.4Z"/><path class="cls-2" d="M77.08,179.34V210h9.84a20.55,20.55,0,0,0,7.94-1.13c5.64-2.34,8.15-8.33,8.15-14.14,0-4.81-1.52-9.8-5.55-12.79-3-2.26-6.64-2.56-10.28-2.56Zm6.85,5.72h1.86c2,0,4.56,0,6.34,1,2.86,1.51,3.55,5.46,3.55,8.37,0,9.67-4.94,9.89-9.71,9.89h-2V185.06Zm21.73,9.8v4.91h12.58v-4.91ZM142.48,210V179.34H136V189a8.17,8.17,0,0,0-5.38-2c-6.81,0-9.89,5.9-9.89,12,0,5.73,3.21,11.58,9.59,11.58,2.3,0,4.64-.69,5.94-2.73V210Zm-6.24-11.11c0,3-.78,6.38-4.38,6.38s-4.6-3.51-4.6-6.59c0-2.82,1.08-6.47,4.51-6.47,3.73,0,4.47,3.65,4.47,6.68ZM166.77,210V187.49h-6.2V199.2c0,3.38-.65,6-3.86,6-3,0-3.52-2.39-3.52-4.86V187.49h-6.37v13.1c0,4.25.48,9.93,7.5,9.93,2.3,0,5.12-1,6.38-3V210Zm10.67-22.47h-6.25V210h6.55V198.9c0-2.69.52-6.07,5.12-6.07a9,9,0,0,1,1.52.13v-5.82a6.7,6.7,0,0,0-1.13-.08c-2.73,0-4.6,1-5.81,4.12v-3.69Z"/><path class="cls-2" d="M77.08,179.34V210h9.84a20.55,20.55,0,0,0,7.94-1.13c5.64-2.34,8.15-8.33,8.15-14.14,0-4.81-1.52-9.8-5.55-12.79-3-2.26-6.64-2.56-10.28-2.56Zm6.85,5.72h1.86c2,0,4.56,0,6.34,1,2.86,1.51,3.55,5.46,3.55,8.37,0,9.67-4.94,9.89-9.71,9.89h-2V185.06Zm21.73,9.8v4.91h12.58v-4.91ZM142.48,210V179.34H136V189a8.17,8.17,0,0,0-5.38-2c-6.81,0-9.89,5.9-9.89,12,0,5.73,3.21,11.58,9.59,11.58,2.3,0,4.64-.69,5.94-2.73V210Zm-6.24-11.11c0,3-.78,6.38-4.38,6.38s-4.6-3.51-4.6-6.59c0-2.82,1.08-6.47,4.51-6.47,3.73,0,4.47,3.65,4.47,6.68ZM166.77,210V187.49h-6.2V199.2c0,3.38-.65,6-3.86,6-3,0-3.52-2.39-3.52-4.86V187.49h-6.37v13.1c0,4.25.48,9.93,7.5,9.93,2.3,0,5.12-1,6.38-3V210Zm10.67-22.47h-6.25V210h6.55V198.9c0-2.69.52-6.07,5.12-6.07a9,9,0,0,1,1.52.13v-5.82a6.7,6.7,0,0,0-1.13-.08c-2.73,0-4.6,1-5.81,4.12v-3.69Z"/></g></g></g></g></svg>