<svg xmlns="http://www.w3.org/2000/svg" viewBox="0 0 283.46 283.46"><defs><style>.cls-1{fill:#ab035c;}.cls-2{fill:#fff;}</style></defs><title>croddur</title><g id="Layer_2" data-name="Layer 2"><g id="Picons"><g id="croddur"><rect class="cls-1" width="283.46" height="283.46"/><g id="logo"><path class="cls-2" d="M119.21,42.52H77v21h85.07c-6.15-14.32-22.33-21-42.9-21Zm40,53.82H77V75.45h87.7c0,.82.06,1.65.06,2.49-.07,7.77-1.93,13.77-5.56,18.4ZM77,108.3v20.86h76.61L140.82,108.3Zm0,32.82h84l12.92,21H77v-21Z"/><path class="cls-2" d="M133.67,227h-3.21l-1.77,7.18L126.76,227h-3.29l3.08,8.64a5,5,0,0,1,.43,1.52,1.54,1.54,0,0,1-.45,1.09,2.46,2.46,0,0,1-1.28.27l-.8,0v2.39c.27,0,.53,0,.8,0,1.32,0,3,.08,3.89-1a8.87,8.87,0,0,0,1-2.3L133.67,227Zm-1.27-4.48h-3.63l-1.48,3.07h2.35l2.75-3.07Zm26.72,15.15v-2.26l5.27-5.88h-4.67V227h8.43v2.45l-5.1,5.7h5.45v2.51Zm17.42,0v-6a2.53,2.53,0,0,0-.51-2,1.55,1.55,0,0,0-1.07-.37,1.74,1.74,0,0,0-1.17.41,3,3,0,0,0-.68,2.45v5.47h-3V223.16h3v5a3.77,3.77,0,0,1,2.9-1.34,3.84,3.84,0,0,1,2.12.6,3.8,3.8,0,0,1,1.44,3.5v6.81Zm8.15,0h-3V223.16h3v14.52Zm22.81-3.27c0-2.67-2.63-3.15-4.69-3.58-.56-.12-1.81-.27-1.81-1s.91-.86,1.48-.86a2.06,2.06,0,0,1,1.6.68,2.12,2.12,0,0,1,.27.86l2.84-.14c-.12-2.61-2.32-3.62-4.67-3.62-2.16,0-4.44.86-4.44,3.37,0,4.26,6.34,2.72,6.34,4.63,0,.84-.86,1-1.52,1-1.36,0-2.08-.39-2.26-1.77l-2.88.1a4,4,0,0,0,.1,1c.54,2.2,2.8,3,4.83,3,2.32,0,4.81-.82,4.81-3.58m-11.25-2.67a8.54,8.54,0,0,0-.29-2.9c-.78-1.85-2.78-2.14-4.55-2.14-2.41,0-4.4,1-4.55,3.68h2.8c0-1,1-1.34,1.87-1.34.64,0,1.63.16,1.63,1s-1.11.8-1.65.88c-2.3.33-5.25.6-5.25,3.62A3.41,3.41,0,0,0,190,238a5,5,0,0,0,3.35-1.28l0,1h2.9v-5.92Zm-3,2.47a2.85,2.85,0,0,1-2.49,1.38c-.7,0-1.42-.33-1.42-1.13,0-1.38,2.2-1.4,3.17-1.65a5.24,5.24,0,0,0,.74-.25v1.65Zm-103.53-1.4-3.39-.23a2.92,2.92,0,0,1-3.11,2.67,3.54,3.54,0,0,1-2.24-.78,5.16,5.16,0,0,1-1.48-4.16c0-2.41,1-4.79,3.72-4.79A2.93,2.93,0,0,1,85.92,227a3.48,3.48,0,0,1,.31.76l3.27-.23a5.28,5.28,0,0,0-.25-1c-.86-2.57-3.44-3.74-6-3.74-4.55,0-7.28,3.11-7.28,7.55,0,3,1.44,6,4.38,7.18a8,8,0,0,0,2.86.47A6.3,6.3,0,0,0,89,235a5.65,5.65,0,0,0,.72-2.2m11.29.41v-.51c0-3.29-1.69-6-5.25-6a5.29,5.29,0,0,0-5.39,5.64c0,3.27,2,5.64,5.39,5.64a5.05,5.05,0,0,0,5.12-3.39l-3-.21a2,2,0,0,1-2,1.13,2.29,2.29,0,0,1-2.3-2.28Zm-3.19-2.3H93.56a2.13,2.13,0,0,1,2.28-1.83,1.93,1.93,0,0,1,2,1.83m13.82,3.48c0-2.67-2.63-3.15-4.69-3.58-.56-.12-1.81-.27-1.81-1s.9-.86,1.48-.86a2.06,2.06,0,0,1,1.6.68,2.12,2.12,0,0,1,.27.86l2.84-.14c-.12-2.61-2.32-3.62-4.67-3.62-2.16,0-4.44.86-4.44,3.37,0,4.26,6.34,2.72,6.34,4.63,0,.84-.86,1-1.52,1-1.36,0-2.08-.39-2.26-1.77l-2.88.1a4,4,0,0,0,.1,1c.53,2.2,2.8,3,4.83,3,2.32,0,4.81-.82,4.81-3.58m12.09,3.27-4.4-6.62,4.11-4h-3.93l-3.29,3.64v-7.51h-3v14.52h3v-3.54l1-1,2.67,4.53Zm23.12-8.06v-2.76a4.59,4.59,0,0,0-.54,0,2.64,2.64,0,0,0-2.76,2V227h-3v10.65h3.11V234.2c0-.54,0-1.09,0-1.63,0-1.73.29-3,2.41-3a4.23,4.23,0,0,1,.72.06m11.52,2.69c0-3.19-2.06-5.6-5.33-5.6a5.35,5.35,0,0,0-5.7,5.7c0,3.27,2.08,5.57,5.41,5.57a5.43,5.43,0,0,0,5.62-5.68m-3.11-.12c0,1.58-.54,3.33-2.41,3.33s-2.41-1.69-2.41-3.23.62-3.15,2.45-3.15,2.37,1.52,2.37,3m-70.69-10.3H81l-1.9-2.4h2.78l.92,1.39.88-1.39h2.82l-2,2.4Z"/><path class="cls-2" d="M77.08,179.34V210h9.85a20.51,20.51,0,0,0,7.94-1.13c5.64-2.34,8.15-8.33,8.15-14.14,0-4.81-1.52-9.8-5.55-12.8-3-2.26-6.64-2.56-10.28-2.56Zm6.85,5.73h1.87c2,0,4.55,0,6.33,1,2.86,1.52,3.56,5.47,3.56,8.37,0,9.67-4.94,9.89-9.72,9.89h-2V185.06Zm21.73,9.8v4.9h12.58v-4.9ZM142.48,210V179.34H136V189a8.22,8.22,0,0,0-5.38-2c-6.81,0-9.89,5.9-9.89,12,0,5.73,3.21,11.58,9.59,11.58,2.3,0,4.64-.69,5.94-2.73V210Zm-6.25-11.1c0,2.95-.78,6.38-4.38,6.38s-4.6-3.51-4.6-6.59c0-2.82,1.08-6.46,4.51-6.46,3.73,0,4.47,3.64,4.47,6.68ZM166.77,210V187.49h-6.2V199.2c0,3.38-.65,6-3.86,6-3,0-3.51-2.39-3.51-4.86V187.49h-6.38v13.1c0,4.25.48,9.93,7.5,9.93,2.3,0,5.12-1,6.38-3V210Zm10.67-22.47h-6.25V210h6.55V198.9c0-2.69.52-6.07,5.12-6.07a9.37,9.37,0,0,1,1.52.13v-5.81a6.23,6.23,0,0,0-1.13-.09c-2.73,0-4.6,1-5.81,4.12v-3.69Z"/><path class="cls-2" d="M77.08,179.34V210h9.85a20.51,20.51,0,0,0,7.94-1.13c5.64-2.34,8.15-8.33,8.15-14.14,0-4.81-1.52-9.8-5.55-12.8-3-2.26-6.64-2.56-10.28-2.56Zm6.85,5.73h1.87c2,0,4.55,0,6.33,1,2.86,1.52,3.56,5.47,3.56,8.37,0,9.67-4.94,9.89-9.72,9.89h-2V185.06Zm21.73,9.8v4.9h12.58v-4.9ZM142.48,210V179.34H136V189a8.22,8.22,0,0,0-5.38-2c-6.81,0-9.89,5.9-9.89,12,0,5.73,3.21,11.58,9.59,11.58,2.3,0,4.64-.69,5.94-2.73V210Zm-6.25-11.1c0,2.95-.78,6.38-4.38,6.38s-4.6-3.51-4.6-6.59c0-2.82,1.08-6.46,4.51-6.46,3.73,0,4.47,3.64,4.47,6.68ZM166.77,210V187.49h-6.2V199.2c0,3.38-.65,6-3.86,6-3,0-3.51-2.39-3.51-4.86V187.49h-6.38v13.1c0,4.25.48,9.93,7.5,9.93,2.3,0,5.12-1,6.38-3V210Zm10.67-22.47h-6.25V210h6.55V198.9c0-2.69.52-6.07,5.12-6.07a9.37,9.37,0,0,1,1.52.13v-5.81a6.23,6.23,0,0,0-1.13-.09c-2.73,0-4.6,1-5.81,4.12v-3.69Z"/></g></g></g></g></svg>