<svg xmlns="http://www.w3.org/2000/svg" viewBox="0 0 283.46 283.46"><defs><style>.cls-1{fill:#00809e;}.cls-2{fill:#fff;}</style></defs><title>crojazz</title><g id="Layer_2" data-name="Layer 2"><g id="Picons"><g id="crojazz"><rect class="cls-1" width="283.46" height="283.46"/><g id="logo"><path class="cls-2" d="M119.72,42.52H77.55v21h85.07c-6.15-14.32-22.33-21-42.9-21Zm40,53.82H77.55V75.45h87.7c0,.82.06,1.65.06,2.49-.07,7.77-1.93,13.77-5.56,18.4Zm-82.19,12v20.86h76.61L141.33,108.3Zm0,32.82h84l12.92,21H77.55v-21Z"/><path class="cls-2" d="M134.18,227H131l-1.77,7.18L127.27,227H124l3.08,8.64a5,5,0,0,1,.43,1.52,1.54,1.54,0,0,1-.45,1.09,2.46,2.46,0,0,1-1.28.27l-.8,0v2.39c.27,0,.53,0,.8,0,1.32,0,3,.08,3.89-1a8.87,8.87,0,0,0,1-2.3L134.18,227Zm-1.27-4.48h-3.63l-1.48,3.07h2.35l2.75-3.07Zm26.72,15.15v-2.26l5.27-5.88h-4.67V227h8.43v2.45l-5.1,5.7H169v2.51Zm17.42,0v-6a2.53,2.53,0,0,0-.51-2,1.55,1.55,0,0,0-1.07-.37,1.74,1.74,0,0,0-1.17.41,3,3,0,0,0-.68,2.45v5.47h-3V223.16h3v5a3.77,3.77,0,0,1,2.9-1.34,3.84,3.84,0,0,1,2.12.6,3.8,3.8,0,0,1,1.44,3.5v6.81Zm8.15,0h-3V223.16h3v14.52ZM208,234.41c0-2.67-2.63-3.15-4.69-3.58-.56-.12-1.81-.27-1.81-1s.91-.86,1.48-.86a2.06,2.06,0,0,1,1.6.68,2.12,2.12,0,0,1,.27.86l2.84-.14c-.12-2.61-2.32-3.62-4.67-3.62-2.16,0-4.44.86-4.44,3.37,0,4.26,6.34,2.72,6.34,4.63,0,.84-.86,1-1.52,1-1.36,0-2.08-.39-2.26-1.77l-2.88.1a4,4,0,0,0,.1,1c.54,2.2,2.8,3,4.83,3,2.32,0,4.81-.82,4.81-3.58m-11.25-2.67a8.54,8.54,0,0,0-.29-2.9c-.78-1.85-2.78-2.14-4.55-2.14-2.41,0-4.4,1-4.55,3.68h2.8c0-1,1-1.34,1.87-1.34.64,0,1.63.16,1.63,1s-1.11.8-1.65.88c-2.3.33-5.25.6-5.25,3.62a3.41,3.41,0,0,0,3.7,3.44,5,5,0,0,0,3.35-1.28l0,1h2.9v-5.92Zm-3,2.47a2.85,2.85,0,0,1-2.49,1.38c-.7,0-1.42-.33-1.42-1.13,0-1.38,2.2-1.4,3.17-1.65a5.24,5.24,0,0,0,.74-.25v1.65Zm-103.53-1.4-3.39-.23a2.92,2.92,0,0,1-3.11,2.67,3.54,3.54,0,0,1-2.24-.78A5.16,5.16,0,0,1,80,230.33c0-2.41,1-4.79,3.72-4.79A2.93,2.93,0,0,1,86.43,227a3.48,3.48,0,0,1,.31.76l3.27-.23a5.28,5.28,0,0,0-.25-1c-.86-2.57-3.44-3.74-6-3.74-4.55,0-7.28,3.11-7.28,7.55,0,3,1.44,6,4.38,7.18a8,8,0,0,0,2.86.47,6.3,6.3,0,0,0,5.78-3,5.65,5.65,0,0,0,.72-2.2m11.29.41v-.51c0-3.29-1.69-6-5.25-6a5.29,5.29,0,0,0-5.39,5.64c0,3.27,2,5.64,5.39,5.64a5.05,5.05,0,0,0,5.12-3.39l-3-.21a2,2,0,0,1-2,1.13,2.29,2.29,0,0,1-2.3-2.28Zm-3.19-2.3H94.06a2.13,2.13,0,0,1,2.28-1.83,1.93,1.93,0,0,1,2,1.83m13.82,3.48c0-2.67-2.63-3.15-4.69-3.58-.56-.12-1.81-.27-1.81-1s.9-.86,1.48-.86a2.06,2.06,0,0,1,1.6.68,2.12,2.12,0,0,1,.27.86l2.84-.14c-.12-2.61-2.32-3.62-4.67-3.62-2.16,0-4.44.86-4.44,3.37,0,4.26,6.34,2.72,6.34,4.63,0,.84-.86,1-1.52,1-1.36,0-2.08-.39-2.26-1.77l-2.88.1a4,4,0,0,0,.1,1c.53,2.2,2.8,3,4.83,3,2.32,0,4.81-.82,4.81-3.58m12.09,3.27-4.4-6.62,4.11-4H120l-3.29,3.64v-7.51h-3v14.52h3v-3.54l1-1,2.67,4.53Zm23.12-8.06v-2.76a4.59,4.59,0,0,0-.54,0,2.64,2.64,0,0,0-2.76,2V227h-3v10.65h3.11V234.2c0-.54,0-1.09,0-1.63,0-1.73.29-3,2.41-3a4.23,4.23,0,0,1,.72.06m11.52,2.69c0-3.19-2.06-5.6-5.33-5.6a5.35,5.35,0,0,0-5.7,5.7c0,3.27,2.08,5.57,5.41,5.57a5.43,5.43,0,0,0,5.62-5.68m-3.11-.12c0,1.58-.54,3.33-2.41,3.33s-2.41-1.69-2.41-3.23.62-3.15,2.45-3.15,2.37,1.52,2.37,3m-70.69-10.3H81.55l-1.9-2.4h2.78l.92,1.39.88-1.39H87l-2,2.4Z"/><path class="cls-2" d="M88.91,179.34v21.38c0,2.34-.78,4-3.47,4-2.47,0-3.25-1.73-3.25-3.47v-3.12H75.46v2.34a14.69,14.69,0,0,0,.43,4.34C77.28,209,81,210.61,85,210.61c2.6,0,4.94-.26,7.16-1.82,3.51-2.47,3.56-5.55,3.56-10.28V179.34Zm24.59,23.33a6.06,6.06,0,0,1-5.25,2.91c-1.3,0-3-.56-3-2.43,0-2.91,4.9-2.95,6.68-3.43a13.18,13.18,0,0,0,1.56-.52v3.47Zm6.33-5.21c0-1.82.09-4.42-.61-6.12-1.65-3.9-5.86-4.51-9.59-4.51-5.08,0-9.28,2.17-9.59,7.76H106c-.09-2.21,2.17-2.82,3.95-2.82,1.34,0,3.43.35,3.43,2.08s-2.34,1.69-3.47,1.87c-4.86.69-11.06,1.26-11.06,7.63,0,4.56,3.47,7.24,7.81,7.24,3.21,0,4.6-1,7.07-2.69l0,2h6.12V197.47Zm22.12-10H124.17v5.29H134l-11.1,12.4V210h19.78v-5.29H131.19l10.76-12v-5.16Zm21.69,0H145.85v5.29h9.85l-11.1,12.4V210h19.78v-5.29H152.88l10.76-12v-5.16Z"/><path class="cls-2" d="M88.91,179.34v21.38c0,2.34-.78,4-3.47,4-2.47,0-3.25-1.73-3.25-3.47v-3.12H75.46v2.34a14.69,14.69,0,0,0,.43,4.34C77.28,209,81,210.61,85,210.61c2.6,0,4.94-.26,7.16-1.82,3.51-2.47,3.56-5.55,3.56-10.28V179.34Zm24.59,23.33a6.06,6.06,0,0,1-5.25,2.91c-1.3,0-3-.56-3-2.43,0-2.91,4.9-2.95,6.68-3.43a13.18,13.18,0,0,0,1.56-.52v3.47Zm6.33-5.21c0-1.82.09-4.42-.61-6.12-1.65-3.9-5.86-4.51-9.59-4.51-5.08,0-9.28,2.17-9.59,7.76H106c-.09-2.21,2.17-2.82,3.95-2.82,1.34,0,3.43.35,3.43,2.08s-2.34,1.69-3.47,1.87c-4.86.69-11.06,1.26-11.06,7.63,0,4.56,3.47,7.24,7.81,7.24,3.21,0,4.6-1,7.07-2.69l0,2h6.12V197.47Zm22.12-10H124.17v5.29H134l-11.1,12.4V210h19.78v-5.29H131.19l10.76-12v-5.16Zm21.69,0H145.85v5.29h9.85l-11.1,12.4V210h19.78v-5.29H152.88l10.76-12v-5.16Z"/></g></g></g></g></svg>