<svg xmlns="http://www.w3.org/2000/svg" viewBox="0 0 283.46 283.46"><defs><style>.cls-1{fill:#cda200;}.cls-2{fill:#fff;}</style></defs><title>croradiowave</title><g id="Layer_2" data-name="Layer 2"><g id="Picons"><g id="croradiowave"><rect class="cls-1" width="283.46" height="283.46"/><g id="logo"><path class="cls-2" d="M123.11,42.52H88.16V59.9h70.52c-5.1-11.87-18.51-17.38-35.57-17.38Zm33.18,44.61H88.16V69.81h72.69c0,.68.06,1.37.05,2.07-.06,6.44-1.6,11.41-4.61,15.25ZM88.16,97v17.29h63.51L141,97Zm0,27.21h69.61l10.71,17.4H88.16v-17.4Z"/><path class="cls-2" d="M106.18,169.4a8.51,8.51,0,0,0,1.58-5.24,9.84,9.84,0,0,0-.79-3.89c-1.83-3.8-5.24-4.34-9.08-4.34H88.12V181.3h5.75v-8.77h3.82L103,181.3h6.36l-5.82-9.67a7.23,7.23,0,0,0,2.67-2.23Zm-4.13-5.21a3.43,3.43,0,0,1-2,3.27,8.21,8.21,0,0,1-3.12.4c-1,0-2,0-3,0v-7.26h2.76c1.65,0,3.52-.07,4.67,1.37a3.66,3.66,0,0,1,.75,2.26Zm20.4,11.08a5,5,0,0,1-4.35,2.41c-1.07,0-2.48-.47-2.48-2,0-2.41,4.07-2.44,5.54-2.84a9.29,9.29,0,0,0,1.29-.43v2.88Zm5.26-4.32a14.85,14.85,0,0,0-.51-5.07c-1.36-3.23-4.85-3.74-7.94-3.74-4.21,0-7.7,1.8-8,6.44h4.89c-.07-1.83,1.8-2.34,3.27-2.34,1.12,0,2.84.29,2.84,1.73s-1.94,1.4-2.87,1.54c-4,.58-9.17,1.05-9.17,6.33,0,3.78,2.87,6,6.47,6,2.66,0,3.81-.79,5.86-2.23l0,1.69h5.07V171Zm21,10.36V155.93h-5.35v8a6.82,6.82,0,0,0-4.46-1.69c-5.64,0-8.2,4.89-8.2,10,0,4.74,2.66,9.6,7.95,9.6a5.56,5.56,0,0,0,4.92-2.27v1.8Zm-5.17-9.21c0,2.45-.65,5.29-3.63,5.29s-3.81-2.91-3.81-5.47c0-2.33.89-5.35,3.73-5.35,3.1,0,3.71,3,3.71,5.53Zm14.13-9.42h-5.25v18.63h5.25V162.68Zm0-6.75h-5.25v4.78h5.25v-4.78Zm22,16c0-5.57-3.59-9.77-9.31-9.77-6,0-10,3.91-10,9.95,0,5.72,3.63,9.75,9.46,9.75s9.81-4.17,9.81-9.93Zm-5.43-.21c0,2.77-.93,5.82-4.2,5.82s-4.21-2.94-4.21-5.64,1.08-5.5,4.28-5.5,4.13,2.66,4.13,5.32Z"/><path class="cls-2" d="M106.18,169.4a8.51,8.51,0,0,0,1.58-5.24,9.84,9.84,0,0,0-.79-3.89c-1.83-3.8-5.24-4.34-9.08-4.34H88.12V181.3h5.75v-8.77h3.82L103,181.3h6.36l-5.82-9.67a7.23,7.23,0,0,0,2.67-2.23Zm-4.13-5.21a3.43,3.43,0,0,1-2,3.27,8.21,8.21,0,0,1-3.12.4c-1,0-2,0-3,0v-7.26h2.76c1.65,0,3.52-.07,4.67,1.37a3.66,3.66,0,0,1,.75,2.26Zm20.4,11.08a5,5,0,0,1-4.35,2.41c-1.07,0-2.48-.47-2.48-2,0-2.41,4.07-2.44,5.54-2.84a9.29,9.29,0,0,0,1.29-.43v2.88Zm5.26-4.32a14.85,14.85,0,0,0-.51-5.07c-1.36-3.23-4.85-3.74-7.94-3.74-4.21,0-7.7,1.8-8,6.44h4.89c-.07-1.83,1.8-2.34,3.27-2.34,1.12,0,2.84.29,2.84,1.73s-1.94,1.4-2.87,1.54c-4,.58-9.17,1.05-9.17,6.33,0,3.78,2.87,6,6.47,6,2.66,0,3.81-.79,5.86-2.23l0,1.69h5.07V171Zm21,10.36V155.93h-5.35v8a6.82,6.82,0,0,0-4.46-1.69c-5.64,0-8.2,4.89-8.2,10,0,4.74,2.66,9.6,7.95,9.6a5.56,5.56,0,0,0,4.92-2.27v1.8Zm-5.17-9.21c0,2.45-.65,5.29-3.63,5.29s-3.81-2.91-3.81-5.47c0-2.33.89-5.35,3.73-5.35,3.1,0,3.71,3,3.71,5.53Zm14.13-9.42h-5.25v18.63h5.25V162.68Zm0-6.75h-5.25v4.78h5.25v-4.78Zm22,16c0-5.57-3.59-9.77-9.31-9.77-6,0-10,3.91-10,9.95,0,5.72,3.63,9.75,9.46,9.75s9.81-4.17,9.81-9.93Zm-5.43-.21c0,2.77-.93,5.82-4.2,5.82s-4.21-2.94-4.21-5.64,1.08-5.5,4.28-5.5,4.13,2.66,4.13,5.32Z"/><path class="cls-2" d="M113.66,189.49l-4.13,17-3.6-17h-5.46l-3.52,17-4-17H87.17l7.12,25.38h5.25l3.66-17.18,3.6,17.18h5.32l7.15-25.38Zm16.76,19.34a5,5,0,0,1-4.35,2.41c-1.08,0-2.48-.47-2.48-2,0-2.41,4.06-2.45,5.53-2.84a11,11,0,0,0,1.3-.43v2.87Zm5.25-4.31a15.07,15.07,0,0,0-.5-5.07c-1.37-3.24-4.86-3.74-7.95-3.74-4.21,0-7.69,1.8-8,6.43h4.89c-.07-1.83,1.8-2.33,3.28-2.33,1.11,0,2.84.28,2.84,1.72s-1.95,1.4-2.88,1.55c-4,.57-9.17,1-9.17,6.33,0,3.77,2.88,6,6.47,6,2.66,0,3.81-.79,5.86-2.23l0,1.69h5.07V204.52Zm18.87-8.27h-5.61l-3.09,11.54-3.41-11.54h-5.65l6.44,18.62h5.07l6.25-18.62Zm18.88,10.86v-.9c0-5.75-2.95-10.5-9.17-10.5-5.72,0-9.42,4.28-9.42,9.85,0,5.72,3.52,9.85,9.42,9.85,4.1,0,7.62-1.94,8.95-5.93l-5.32-.36a3.57,3.57,0,0,1-3.49,2c-2.44,0-3.7-1.69-4-4Zm-13-4c.58-2.12,1.73-3.2,4-3.2a3.38,3.38,0,0,1,3.46,3.2Z"/><path class="cls-2" d="M113.66,189.49l-4.13,17-3.6-17h-5.46l-3.52,17-4-17H87.17l7.12,25.38h5.25l3.66-17.18,3.6,17.18h5.32l7.15-25.38Zm16.76,19.34a5,5,0,0,1-4.35,2.41c-1.08,0-2.48-.47-2.48-2,0-2.41,4.06-2.45,5.53-2.84a11,11,0,0,0,1.3-.43v2.87Zm5.25-4.31a15.07,15.07,0,0,0-.5-5.07c-1.37-3.24-4.86-3.74-7.95-3.74-4.21,0-7.69,1.8-8,6.43h4.89c-.07-1.83,1.8-2.33,3.28-2.33,1.11,0,2.84.28,2.84,1.72s-1.95,1.4-2.88,1.55c-4,.57-9.17,1-9.17,6.33,0,3.77,2.88,6,6.47,6,2.66,0,3.81-.79,5.86-2.23l0,1.69h5.07V204.52Zm18.87-8.27h-5.61l-3.09,11.54-3.41-11.54h-5.65l6.44,18.62h5.07l6.25-18.62Zm18.88,10.86v-.9c0-5.75-2.95-10.5-9.17-10.5-5.72,0-9.42,4.28-9.42,9.85,0,5.72,3.52,9.85,9.42,9.85,4.1,0,7.62-1.94,8.95-5.93l-5.32-.36a3.57,3.57,0,0,1-3.49,2c-2.44,0-3.7-1.69-4-4Zm-13-4c.58-2.12,1.73-3.2,4-3.2a3.38,3.38,0,0,1,3.46,3.2Z"/><path class="cls-2" d="M135.11,229.4h-2.67L131,235.35l-1.6-5.95h-2.73l2.56,7.16a4.3,4.3,0,0,1,.35,1.26,1.29,1.29,0,0,1-.37.91,2.13,2.13,0,0,1-1.06.22l-.66,0v2l.66,0c1.09,0,2.47.07,3.22-.87a7.3,7.3,0,0,0,.84-1.91l2.92-8.76Zm-1.06-3.72h-3l-1.22,2.55h2l2.28-2.55Zm22.14,12.56v-1.87l4.37-4.88h-3.87v-2.08h7v2l-4.23,4.72H164v2.08Zm14.45,0V233.3a2.11,2.11,0,0,0-.43-1.66,1.28,1.28,0,0,0-.89-.3,1.44,1.44,0,0,0-1,.34,2.45,2.45,0,0,0-.56,2v4.53H165.3v-12h2.49v4.11a3.11,3.11,0,0,1,2.4-1.11,3.22,3.22,0,0,1,1.76.5,3.15,3.15,0,0,1,1.19,2.9v5.64Zm6.75,0h-2.51v-12h2.51v12Zm18.91-2.71c0-2.22-2.19-2.61-3.89-3-.46-.1-1.5-.22-1.5-.85s.75-.71,1.23-.71a1.73,1.73,0,0,1,1.33.56,2,2,0,0,1,.22.71l2.35-.12c-.1-2.16-1.93-3-3.87-3-1.79,0-3.68.72-3.68,2.8,0,3.53,5.25,2.25,5.25,3.84,0,.7-.72.81-1.26.81-1.13,0-1.72-.32-1.88-1.46l-2.38.08a3.26,3.26,0,0,0,.08.82c.44,1.83,2.32,2.46,4,2.46,1.92,0,4-.69,4-3M187,233.32a7.2,7.2,0,0,0-.24-2.41c-.65-1.53-2.3-1.77-3.77-1.77-2,0-3.65.85-3.77,3.05h2.32c0-.87.85-1.11,1.55-1.11.53,0,1.35.14,1.35.82s-.92.67-1.36.74c-1.92.27-4.35.49-4.35,3a2.83,2.83,0,0,0,3.07,2.85,4.15,4.15,0,0,0,2.78-1.06v.8H187v-4.91Zm-2.49,2a2.37,2.37,0,0,1-2.07,1.15c-.58,0-1.17-.28-1.17-.94,0-1.14,1.82-1.16,2.62-1.36a5,5,0,0,0,.62-.21v1.36Zm-85.82-1.15L95.85,234a2.42,2.42,0,0,1-2.57,2.22,2.91,2.91,0,0,1-1.86-.65,4.26,4.26,0,0,1-1.23-3.45c0-2,.8-4,3.09-4a2.44,2.44,0,0,1,2.25,1.21,3.06,3.06,0,0,1,.25.63l2.71-.18a4.46,4.46,0,0,0-.2-.82,5,5,0,0,0-5-3.1c-3.77,0-6,2.57-6,6.25a6.13,6.13,0,0,0,3.64,6,6.55,6.55,0,0,0,2.37.39A5.22,5.22,0,0,0,98.07,236a4.59,4.59,0,0,0,.59-1.82m9.36.34v-.43c0-2.72-1.39-5-4.34-5a4.39,4.39,0,0,0-4.47,4.68c0,2.71,1.67,4.67,4.47,4.67a4.18,4.18,0,0,0,4.24-2.82l-2.52-.17a1.69,1.69,0,0,1-1.65.94,1.9,1.9,0,0,1-1.91-1.89Zm-2.64-1.91h-3.53a1.77,1.77,0,0,1,1.9-1.52,1.6,1.6,0,0,1,1.63,1.52m11.46,2.88c0-2.22-2.18-2.61-3.89-3-.46-.1-1.5-.22-1.5-.85s.75-.71,1.23-.71a1.71,1.71,0,0,1,1.33.56,1.64,1.64,0,0,1,.22.71l2.35-.12c-.1-2.16-1.92-3-3.87-3-1.79,0-3.68.72-3.68,2.8,0,3.53,5.25,2.25,5.25,3.84,0,.7-.71.82-1.26.82-1.13,0-1.72-.33-1.88-1.47l-2.38.08a3.26,3.26,0,0,0,.08.82c.45,1.83,2.32,2.46,4,2.46,1.93,0,4-.68,4-3m10,2.71-3.64-5.49,3.41-3.34h-3.26l-2.73,3v-6.23h-2.51v12h2.51V235.3l.82-.82,2.22,3.75ZM146,231.55v-2.29c-.15,0-.29,0-.45,0a2.19,2.19,0,0,0-2.28,1.62V229.4h-2.46v8.83h2.58v-2.88c0-.44,0-.9,0-1.35,0-1.43.24-2.5,2-2.5a3,3,0,0,1,.6.05m9.55,2.23a4.33,4.33,0,0,0-4.42-4.64,4.43,4.43,0,0,0-4.72,4.73,4.29,4.29,0,0,0,4.48,4.62,4.5,4.5,0,0,0,4.66-4.71m-2.58-.1c0,1.31-.44,2.76-2,2.76s-2-1.4-2-2.68.51-2.6,2-2.6,2,1.26,2,2.52m-58.59-8.54H91.48l-1.58-2h2.31l.76,1.15.72-1.15H96l-1.62,2Z"/></g></g></g></g></svg>