<svg xmlns="http://www.w3.org/2000/svg" viewBox="0 0 283.46 283.46"><defs><style>.cls-1{fill:#ed2e38;}.cls-2{fill:#fff;}</style></defs><title>croradiozurnal</title><g id="Layer_2" data-name="Layer 2"><g id="Picons"><g id="croradiozurnal"><rect class="cls-1" width="283.46" height="283.46"/><g id="logo"><path class="cls-2" d="M79.62,56.6H43.44v18h73c-5.27-12.29-19.16-18-36.82-18ZM114,102.78H43.44V84.85h75.25c0,.7.05,1.41,0,2.14-.06,6.67-1.66,11.81-4.77,15.79ZM43.44,113v17.9h65.74l-11-17.9Zm0,28.16h72.06l11.09,18H43.44v-18Z"/><path class="cls-2" d="M92,214.91H89.28l-1.52,6.16-1.66-6.16H83.28l2.65,7.41a4.25,4.25,0,0,1,.37,1.31,1.33,1.33,0,0,1-.39.94,2.11,2.11,0,0,1-1.1.23l-.69,0v2c.23,0,.46,0,.69,0,1.13,0,2.56.07,3.34-.9a7.61,7.61,0,0,0,.87-2l3-9.07Zm-1.09-3.85H87.83l-1.27,2.63h2l2.36-2.63Zm22.93,13v-1.94l4.52-5h-4v-2.15h7.24V217l-4.38,4.89h4.68v2.15Zm15,0v-5.12a2.17,2.17,0,0,0-.44-1.71,1.33,1.33,0,0,0-.92-.32,1.49,1.49,0,0,0-1,.35,2.55,2.55,0,0,0-.58,2.1v4.7h-2.58V211.61h2.58v4.25a3.23,3.23,0,0,1,2.49-1.15,3.3,3.3,0,0,1,1.82.51,3.26,3.26,0,0,1,1.23,3v5.84Zm7,0h-2.59V211.61h2.59v12.46Zm19.57-2.81c0-2.3-2.26-2.7-4-3.07-.48-.11-1.55-.23-1.55-.88s.78-.74,1.27-.74a1.76,1.76,0,0,1,1.38.58,1.82,1.82,0,0,1,.23.74l2.44-.12c-.11-2.24-2-3.11-4-3.11-1.85,0-3.81.74-3.81,2.89,0,3.65,5.44,2.33,5.44,4,0,.72-.74.85-1.31.85-1.17,0-1.78-.34-1.94-1.52l-2.47.09a3.43,3.43,0,0,0,.09.85c.46,1.89,2.4,2.54,4.15,2.54,2,0,4.13-.71,4.13-3.07M145.73,219a7.33,7.33,0,0,0-.25-2.49c-.67-1.59-2.38-1.84-3.9-1.84-2.07,0-3.78.88-3.9,3.16h2.4c0-.9.88-1.15,1.61-1.15.55,0,1.39.14,1.39.85s-1,.69-1.41.76c-2,.28-4.5.51-4.5,3.11a2.93,2.93,0,0,0,3.18,2.95,4.26,4.26,0,0,0,2.88-1.1l0,.83h2.49V219Zm-2.58,2.12a2.45,2.45,0,0,1-2.14,1.18c-.6,0-1.22-.28-1.22-1,0-1.18,1.89-1.2,2.72-1.41a4.5,4.5,0,0,0,.64-.21v1.41Zm-88.84-1.2-2.91-.19A2.5,2.5,0,0,1,48.73,222a3,3,0,0,1-1.92-.67,4.43,4.43,0,0,1-1.27-3.57c0-2.06.83-4.11,3.19-4.11a2.51,2.51,0,0,1,2.33,1.25,3,3,0,0,1,.26.65l2.81-.19a4.53,4.53,0,0,0-.21-.85c-.74-2.21-2.95-3.21-5.15-3.21-3.9,0-6.25,2.66-6.25,6.48a6.35,6.35,0,0,0,3.76,6.16,6.83,6.83,0,0,0,2.45.41,5.41,5.41,0,0,0,5-2.56,4.85,4.85,0,0,0,.62-1.89m9.69.35v-.44c0-2.82-1.45-5.15-4.5-5.15a4.54,4.54,0,0,0-4.62,4.84c0,2.81,1.73,4.84,4.62,4.84a4.33,4.33,0,0,0,4.4-2.91l-2.61-.18a1.75,1.75,0,0,1-1.71,1,2,2,0,0,1-2-2Zm-2.74-2H57.61a1.83,1.83,0,0,1,2-1.57,1.66,1.66,0,0,1,1.69,1.57m11.86,3c0-2.3-2.26-2.7-4-3.07-.48-.11-1.55-.23-1.55-.88s.78-.74,1.27-.74a1.77,1.77,0,0,1,1.38.58,1.82,1.82,0,0,1,.23.74l2.44-.12c-.11-2.24-2-3.11-4-3.11-1.85,0-3.81.74-3.81,2.89,0,3.65,5.44,2.33,5.44,4,0,.72-.74.85-1.31.85-1.16,0-1.78-.34-1.94-1.52l-2.47.09a3.44,3.44,0,0,0,.09.85c.46,1.89,2.4,2.54,4.15,2.54,2,0,4.13-.71,4.13-3.07m10.38,2.81-3.78-5.68,3.53-3.46H79.89L77.06,218V211.6h-2.6v12.46h2.6v-3l.85-.85,2.3,3.88Zm19.84-6.92v-2.36a3.94,3.94,0,0,0-.46,0,2.27,2.27,0,0,0-2.36,1.68v-1.5H98v9.14h2.67v-3c0-.46,0-.94,0-1.39,0-1.48.25-2.59,2.07-2.59a3.63,3.63,0,0,1,.62.05m9.88,2.31a4.47,4.47,0,0,0-4.57-4.8,4.59,4.59,0,0,0-4.89,4.89,4.45,4.45,0,0,0,4.64,4.78,4.66,4.66,0,0,0,4.82-4.87m-2.67-.11c0,1.36-.46,2.86-2.06,2.86s-2.07-1.45-2.07-2.77.53-2.7,2.1-2.7,2,1.31,2,2.61M49.9,210.51h-3l-1.63-2.06h2.38l.79,1.19.75-1.19h2.42l-1.68,2.06Z"/><path class="cls-2" d="M106.08,200.27V174h-5.54v8.25a7,7,0,0,0-4.61-1.75c-5.83,0-8.47,5.05-8.47,10.29,0,4.9,2.75,9.92,8.21,9.92a5.75,5.75,0,0,0,5.09-2.34v1.86Zm-5.35-9.51c0,2.53-.67,5.46-3.75,5.46s-3.94-3-3.94-5.65c0-2.42.93-5.54,3.86-5.54,3.2,0,3.83,3.12,3.83,5.72Zm-16.34-1.19a15.45,15.45,0,0,0-.52-5.24c-1.41-3.34-5-3.87-8.21-3.87-4.35,0-8,1.86-8.21,6.65h5.05c-.07-1.9,1.86-2.42,3.38-2.42,1.15,0,2.94.3,2.94,1.78s-2,1.45-3,1.6c-4.16.59-9.48,1.08-9.48,6.54,0,3.9,3,6.21,6.69,6.21,2.75,0,3.94-.82,6.06-2.3l0,1.75h5.24v-10.7ZM79,194a5.16,5.16,0,0,1-4.5,2.49c-1.26,0-2.56-.59-2.56-2,0-2.49,4-2.53,5.72-3A9.42,9.42,0,0,0,79,191v3Zm31.2-15V174h5.42V179Zm0,21.29V181h5.42v19.25Zm18,.56c-6,0-9.77-4.16-9.77-10.07,0-6.24,4-10.29,10.29-10.29,5.91,0,9.62,4.35,9.62,10.11,0,5.94-4.16,10.25-10.14,10.25Zm.26-16c-3.31,0-4.42,2.82-4.42,5.68s1,5.83,4.35,5.83,4.35-3.16,4.35-6-1-5.5-4.27-5.5Zm43.06,15.42v-2.12c-1.08,1.75-3.49,2.6-5.46,2.6a6.89,6.89,0,0,1-3.42-.78c-2.86-1.6-3-4.79-3-7.73V181H165v11c0,2.12.41,4.16,3,4.16s3.23-2.19,3.23-4.42c0-.85.07-1.67.07-2.53V181h5.31v19.25Zm19-14.68c-3.83,0-4.27,2.34-4.35,5.46,0,1,0,2,0,2.94v6.28h-5.61V181h5.35v3.16c.93-2.42,2.38-3.53,5-3.53a8.46,8.46,0,0,1,1,.07v5a7.68,7.68,0,0,0-1.3-.11Zm14.94,14.68V188.93c0-1.86-.71-3.68-2.86-3.68a3.22,3.22,0,0,0-2.19.89c-1.3,1.26-1.11,3.16-1.11,4.83v9.29h-5.5V181h5.35v2.23a6.48,6.48,0,0,1,5.31-2.68,6.56,6.56,0,0,1,4,1.26c2.19,1.67,2.56,4,2.56,6.61v11.82Zm30.09,0V174h5.46v26.23Zm-81-27.06h-4.2L148.41,176l-1.82-2.81h-4.12l3.5,5.18h4.73l3.8-5.18Zm2.27,27.06v-4.53h-9.84l9.21-10.29V181H140.91v4.53h8.43l-9.51,10.62v4.08Zm74.83,0h-5.24l0-1.74c-2.12,1.49-3.3,2.3-6.05,2.3-3.71,0-6.68-2.3-6.68-6.2,0-5.46,5.31-5.94,9.47-6.53,1-.15,3-.22,3-1.6s-1.78-1.78-2.93-1.78c-1.52,0-3.45.52-3.38,2.41h-5c.26-4.79,3.86-6.65,8.21-6.65,3.19,0,6.79.52,8.21,3.86a15.43,15.43,0,0,1,.52,5.23v10.69Zm-5.42-9.21a9.4,9.4,0,0,1-1.34.45c-1.74.45-5.72.48-5.72,3,0,1.45,1.3,2,2.56,2a5.15,5.15,0,0,0,4.49-2.49v-3Zm3.71-17.87h-6.13l-2.49,5.18h4l4.65-5.18ZM62.15,187.94a8.83,8.83,0,0,0,1.64-5.43,10,10,0,0,0-.82-4c-1.9-3.94-5.43-4.5-9.41-4.5H43.44v26.26h6v-9.08h4l5.47,9.08h6.59l-6-10a7.52,7.52,0,0,0,2.77-2.31Zm-4.28-5.39a3.55,3.55,0,0,1-2.08,3.38,8.62,8.62,0,0,1-3.24.41c-1,0-2.12,0-3.16,0v-7.51h2.86c1.71,0,3.65-.07,4.84,1.41a3.78,3.78,0,0,1,.78,2.34Z"/></g></g></g></g></svg>