<svg xmlns="http://www.w3.org/2000/svg" viewBox="0 0 283.46 283.46"><defs><style>.cls-1{fill:#00ac95;}.cls-2{fill:#fff;}</style></defs><title>croregion</title><g id="Layer_2" data-name="Layer 2"><g id="Picons"><g id="croregion"><rect class="cls-1" width="283.46" height="283.46"/><g id="logo"><path class="cls-2" d="M75.35,141.12h84l12.92,21H75.35Zm0-32.82v20.85H152L139.13,108.3Zm82.19-12H75.35V75.45H163c0,.82.06,1.64.06,2.49-.07,7.77-1.94,13.76-5.56,18.4m-40-53.82H75.35v21h85.07c-6.15-14.32-22.33-21-42.9-21"/><path class="cls-2" d="M209.19,210V196.17c0-3-.43-5.77-3-7.72a7.66,7.66,0,0,0-4.73-1.48,7.57,7.57,0,0,0-6.2,3.12v-2.6H189V210h6.42V197.51c0-2.38.82-5.07,3.86-5.07,2.52,0,3.34,2.13,3.34,4.29V210Zm-30-11.58c0,3.34-1.13,7-5.08,7s-5.07-3.56-5.07-6.81,1.3-6.64,5.16-6.64,5,3.21,5,6.42m6.55.26c0-6.72-4.34-11.8-11.24-11.8-7.29,0-12,4.73-12,12,0,6.9,4.38,11.75,11.41,11.75s11.84-5,11.84-12m-26.5-19.3h-6.33v5.77h6.33Zm0,8.15h-6.33V210h6.33Zm-17,9.93c0,3-1.52,5.68-4.77,5.68s-4.68-2.6-4.68-5.46,1.69-5.51,4.86-5.51,4.6,2.47,4.6,5.29m.17-9.93v3c-1.69-2.34-3.47-3.56-6.46-3.56-6.12,0-9.41,5.38-9.41,11s3.43,10.67,9.5,10.67a7.91,7.91,0,0,0,6.29-2.78,6.35,6.35,0,0,0,0,.91c0,3.3-.39,5.64-4.29,5.64-1.56,0-3-.52-3.64-2.08H127.6c.48,5.51,5.12,7.11,9.93,7.11,4,0,8.59-1,10.32-5.12a13.13,13.13,0,0,0,.74-5V187.49Zm-33.7,8.24c.69-2.56,2.08-3.86,4.82-3.86a4.08,4.08,0,0,1,4.16,3.86Zm15.7,4.86v-1.08c0-6.94-3.56-12.67-11.06-12.67-6.9,0-11.36,5.16-11.36,11.88,0,6.9,4.25,11.89,11.36,11.89,4.94,0,9.19-2.34,10.8-7.16l-6.42-.43a4.31,4.31,0,0,1-4.21,2.38c-3,0-4.47-2-4.86-4.82ZM92.1,189.31a4.14,4.14,0,0,1-2.43,3.95,10,10,0,0,1-3.77.48c-1.21,0-2.47,0-3.68,0v-8.76h3.33c2,0,4.24-.09,5.63,1.65a4.41,4.41,0,0,1,.91,2.73m5,6.29a10.31,10.31,0,0,0,1.9-6.33,11.62,11.62,0,0,0-1-4.68c-2.21-4.6-6.32-5.25-11-5.25H75.3v30.61h6.93V199.37h4.61l6.37,10.58h7.67l-7-11.66a8.75,8.75,0,0,0,3.22-2.69"/><path class="cls-2" d="M82.88,221.88H79.35l-1.9-2.4h2.78l.92,1.39.87-1.39h2.82Zm70.69,10.3c0,1.58-.54,3.33-2.41,3.33s-2.41-1.69-2.41-3.23.62-3.15,2.45-3.15,2.37,1.52,2.37,3m3.11.12c0-3.19-2.06-5.6-5.33-5.6a5.35,5.35,0,0,0-5.7,5.7c0,3.27,2.08,5.57,5.41,5.57a5.43,5.43,0,0,0,5.62-5.68m-11.52-2.7v-2.76a4.36,4.36,0,0,0-.53,0,2.64,2.64,0,0,0-2.76,2V227h-3v10.65H142V234.2c0-.53,0-1.09,0-1.62,0-1.73.29-3,2.41-3a4.42,4.42,0,0,1,.72.06M122,237.67l-4.4-6.62,4.11-4h-3.93l-3.29,3.64v-7.51h-3v14.52h3v-3.54l1-1,2.67,4.53Zm-12.09-3.27c0-2.67-2.63-3.15-4.69-3.58-.55-.12-1.81-.27-1.81-1s.91-.86,1.48-.86a2.06,2.06,0,0,1,1.6.68,2.14,2.14,0,0,1,.27.87l2.84-.14c-.12-2.61-2.32-3.62-4.67-3.62-2.16,0-4.44.86-4.44,3.37,0,4.26,6.34,2.72,6.34,4.63,0,.84-.86,1-1.52,1-1.36,0-2.08-.39-2.26-1.77l-2.88.1a4.07,4.07,0,0,0,.1,1c.53,2.2,2.8,3,4.84,3,2.32,0,4.81-.82,4.81-3.58m-13.82-3.48H91.86a2.13,2.13,0,0,1,2.28-1.83,1.93,1.93,0,0,1,2,1.83m3.19,2.3v-.52c0-3.29-1.69-6-5.24-6a5.29,5.29,0,0,0-5.39,5.64c0,3.27,2,5.64,5.39,5.64a5.05,5.05,0,0,0,5.12-3.39l-3-.21a2,2,0,0,1-2,1.13,2.29,2.29,0,0,1-2.3-2.28ZM88,232.82l-3.39-.23a2.92,2.92,0,0,1-3.11,2.67,3.55,3.55,0,0,1-2.24-.78,5.16,5.16,0,0,1-1.48-4.16c0-2.41,1-4.79,3.72-4.79A2.93,2.93,0,0,1,84.23,227a3.57,3.57,0,0,1,.31.76l3.27-.23a5.35,5.35,0,0,0-.25-1c-.86-2.57-3.43-3.74-6-3.74-4.55,0-7.28,3.11-7.28,7.55,0,3,1.44,6,4.38,7.18a8,8,0,0,0,2.86.47,6.3,6.3,0,0,0,5.78-3,5.6,5.6,0,0,0,.72-2.2m103.53,1.4a2.85,2.85,0,0,1-2.49,1.38c-.7,0-1.42-.33-1.42-1.13,0-1.38,2.2-1.4,3.17-1.65a5.16,5.16,0,0,0,.74-.25Zm3-2.47a8.56,8.56,0,0,0-.29-2.9c-.78-1.85-2.78-2.14-4.55-2.14-2.41,0-4.41,1-4.55,3.68H188c0-1,1-1.34,1.87-1.34.64,0,1.63.16,1.63,1s-1.11.8-1.65.89c-2.31.33-5.25.6-5.25,3.62a3.41,3.41,0,0,0,3.7,3.44,5,5,0,0,0,3.36-1.28l0,1h2.9Zm11.25,2.67c0-2.67-2.63-3.15-4.69-3.58-.55-.12-1.81-.27-1.81-1s.91-.86,1.48-.86a2.06,2.06,0,0,1,1.6.68,2.11,2.11,0,0,1,.27.86l2.84-.14c-.12-2.61-2.33-3.62-4.67-3.62-2.16,0-4.44.86-4.44,3.37,0,4.26,6.34,2.72,6.34,4.63,0,.84-.86,1-1.52,1-1.36,0-2.08-.39-2.26-1.77l-2.88.1a4,4,0,0,0,.1,1c.53,2.2,2.8,3,4.83,3,2.33,0,4.81-.82,4.81-3.58M183,237.68h-3V223.16h3Zm-8.15,0v-6a2.54,2.54,0,0,0-.51-2,1.55,1.55,0,0,0-1.07-.37,1.75,1.75,0,0,0-1.17.41,3,3,0,0,0-.68,2.45v5.47h-3V223.16h3v5a3.77,3.77,0,0,1,2.9-1.34,3.85,3.85,0,0,1,2.12.6,3.8,3.8,0,0,1,1.44,3.5v6.81Zm-17.42,0v-2.26l5.27-5.88H158V227h8.43v2.45l-5.1,5.7h5.45v2.51Zm-26.72-15.15h-3.63l-1.48,3.07H128ZM132,227h-3.21L127,234.2,125.07,227h-3.29l3.08,8.64a5,5,0,0,1,.43,1.52,1.54,1.54,0,0,1-.45,1.09,2.44,2.44,0,0,1-1.28.27l-.8,0v2.39c.27,0,.53,0,.8,0,1.32,0,3,.08,3.89-1a8.9,8.9,0,0,0,1-2.3Z"/></g></g></g></g></svg>