<svg xmlns="http://www.w3.org/2000/svg" viewBox="0 0 283.46 283.46"><defs><style>.cls-1{fill:#000f37;}.cls-2{fill:#fff;}</style></defs><title>croradiojunior</title><g id="Layer_2" data-name="Layer 2"><g id="Picons"><g id="croradiojunior"><rect class="cls-1" width="283.46" height="283.46"/><g id="logo"><path class="cls-2" d="M123.7,42.52h-35V59.9h70.53C154.18,48,140.76,42.52,123.7,42.52Zm33.18,44.62H88.74V69.82h72.71c0,.68.05,1.36,0,2.07-.06,6.44-1.6,11.41-4.61,15.26ZM88.74,97.06v17.29h63.52L141.63,97.06Zm0,27.21h69.62l10.71,17.41H88.74V124.26Z"/><path class="cls-2" d="M106.76,169.43a8.54,8.54,0,0,0,1.58-5.25,9.64,9.64,0,0,0-.79-3.88c-1.83-3.81-5.24-4.35-9.08-4.35H88.7v25.38h5.74v-8.77h3.82l5.28,8.77h6.36l-5.83-9.67a7.25,7.25,0,0,0,2.67-2.23Zm-4.13-5.21a3.43,3.43,0,0,1-2,3.27,8.3,8.3,0,0,1-3.12.4c-1,0-2,0-3.05,0v-7.26h2.76c1.65,0,3.52-.07,4.67,1.37a3.66,3.66,0,0,1,.75,2.26Zm23.85-9.08h-5.93l-2.41,5H122l4.5-5ZM123,175.3a5,5,0,0,1-4.35,2.41c-1.08,0-2.48-.47-2.48-2,0-2.41,4.06-2.45,5.54-2.84a10.93,10.93,0,0,0,1.29-.43v2.88Zm5.25-4.32a15,15,0,0,0-.5-5.07c-1.37-3.24-4.85-3.74-7.95-3.74-4.21,0-7.7,1.8-7.95,6.44h4.89c-.07-1.83,1.8-2.34,3.27-2.34,1.11,0,2.84.29,2.84,1.73s-1.94,1.4-2.88,1.55c-4,.58-9.17,1-9.17,6.33,0,3.81,2.88,6,6.47,6,2.66,0,3.81-.83,5.86-2.23l0,1.69,5.07,0V171Zm21,10.36V156H144v8a6.81,6.81,0,0,0-4.46-1.69c-5.65,0-8.2,4.89-8.2,10,0,4.75,2.66,9.6,7.95,9.6a5.56,5.56,0,0,0,4.93-2.27v1.8Zm-5.18-9.21c0,2.45-.65,5.29-3.63,5.29s-3.81-2.91-3.81-5.47c0-2.34.9-5.36,3.74-5.36,3.09,0,3.7,3,3.7,5.54Zm14.13-9.42H153v18.63h5.25V162.71Zm0-6.76H153v4.78h5.25V156Zm22,16c0-5.57-3.6-9.78-9.31-9.78-6,0-10,3.92-10,10,0,5.72,3.63,9.75,9.46,9.75s9.82-4.17,9.82-9.92Zm-5.43-.22c0,2.77-.93,5.83-4.21,5.83s-4.21-2.95-4.21-5.65,1.08-5.5,4.28-5.5,4.14,2.66,4.14,5.32Z"/><path class="cls-2" d="M106.76,169.43a8.54,8.54,0,0,0,1.58-5.25,9.64,9.64,0,0,0-.79-3.88c-1.83-3.81-5.24-4.35-9.08-4.35H88.7v25.38h5.74v-8.77h3.82l5.28,8.77h6.36l-5.83-9.67a7.25,7.25,0,0,0,2.67-2.23Zm-4.13-5.21a3.43,3.43,0,0,1-2,3.27,8.3,8.3,0,0,1-3.12.4c-1,0-2,0-3.05,0v-7.26h2.76c1.65,0,3.52-.07,4.67,1.37a3.66,3.66,0,0,1,.75,2.26Zm23.85-9.08h-5.93l-2.41,5H122l4.5-5ZM123,175.3a5,5,0,0,1-4.35,2.41c-1.08,0-2.48-.47-2.48-2,0-2.41,4.06-2.45,5.54-2.84a10.93,10.93,0,0,0,1.29-.43v2.88Zm5.25-4.32a15,15,0,0,0-.5-5.07c-1.37-3.24-4.85-3.74-7.95-3.74-4.21,0-7.7,1.8-7.95,6.44h4.89c-.07-1.83,1.8-2.34,3.27-2.34,1.11,0,2.84.29,2.84,1.73s-1.94,1.4-2.88,1.55c-4,.58-9.17,1-9.17,6.33,0,3.81,2.88,6,6.47,6,2.66,0,3.81-.83,5.86-2.23l0,1.69,5.07,0V171Zm21,10.36V156H144v8a6.81,6.81,0,0,0-4.46-1.69c-5.65,0-8.2,4.89-8.2,10,0,4.75,2.66,9.6,7.95,9.6a5.56,5.56,0,0,0,4.93-2.27v1.8Zm-5.18-9.21c0,2.45-.65,5.29-3.63,5.29s-3.81-2.91-3.81-5.47c0-2.34.9-5.36,3.74-5.36,3.09,0,3.7,3,3.7,5.54Zm14.13-9.42H153v18.63h5.25V162.71Zm0-6.76H153v4.78h5.25V156Zm22,16c0-5.57-3.6-9.78-9.31-9.78-6,0-10,3.92-10,10,0,5.72,3.63,9.75,9.46,9.75s9.82-4.17,9.82-9.92Zm-5.43-.22c0,2.77-.93,5.83-4.21,5.83s-4.21-2.95-4.21-5.65,1.08-5.5,4.28-5.5,4.14,2.66,4.14,5.32Z"/><path class="cls-2" d="M97.71,190.07V207.8c0,1.94-.65,3.34-2.88,3.34-2,0-2.7-1.44-2.7-2.88v-2.59H86.56v1.94a12.18,12.18,0,0,0,.36,3.6c1.15,3.42,4.21,4.78,7.59,4.78a9.61,9.61,0,0,0,5.93-1.51c2.91-2,2.95-4.6,2.95-8.52V190.07Zm25.64,25.39V196.83h-5.14v9.71c0,2.8-.54,5-3.2,5s-2.91-2-2.91-4V196.83h-5.29v10.86c0,3.52.4,8.23,6.22,8.23,1.91,0,4.24-.83,5.29-2.52v2Zm20.5,0V204c0-2.52-.36-4.78-2.48-6.4a6.35,6.35,0,0,0-3.92-1.22A6.27,6.27,0,0,0,132.3,199v-2.16h-5.18v18.63h5.32V205.13c0-2,.68-4.21,3.2-4.21,2.09,0,2.77,1.76,2.77,3.56v11Zm8.74-18.63h-5.25v18.63h5.25V196.83Zm0-6.76h-5.25v4.78h5.25v-4.78Zm22,16c0-5.57-3.6-9.78-9.31-9.78-6,0-10,3.92-10,10,0,5.72,3.63,9.75,9.46,9.75s9.82-4.17,9.82-9.93Zm-5.43-.22c0,2.77-.93,5.83-4.21,5.83s-4.21-2.95-4.21-5.65,1.08-5.5,4.28-5.5,4.14,2.66,4.14,5.32Zm13.23-9h-5.18v18.63h5.43v-9.17c0-2.23.43-5,4.24-5a7.76,7.76,0,0,1,1.26.11v-4.82a5.16,5.16,0,0,0-.93-.07c-2.27,0-3.81.83-4.82,3.42v-3.06Z"/><path class="cls-2" d="M97.71,190.07V207.8c0,1.94-.65,3.34-2.88,3.34-2,0-2.7-1.44-2.7-2.88v-2.59H86.56v1.94a12.18,12.18,0,0,0,.36,3.6c1.15,3.42,4.21,4.78,7.59,4.78a9.61,9.61,0,0,0,5.93-1.51c2.91-2,2.95-4.6,2.95-8.52V190.07Zm25.64,25.39V196.83h-5.14v9.71c0,2.8-.54,5-3.2,5s-2.91-2-2.91-4V196.83h-5.29v10.86c0,3.52.4,8.23,6.22,8.23,1.91,0,4.24-.83,5.29-2.52v2Zm20.5,0V204c0-2.52-.36-4.78-2.48-6.4a6.35,6.35,0,0,0-3.92-1.22A6.27,6.27,0,0,0,132.3,199v-2.16h-5.18v18.63h5.32V205.13c0-2,.68-4.21,3.2-4.21,2.09,0,2.77,1.76,2.77,3.56v11Zm8.74-18.63h-5.25v18.63h5.25V196.83Zm0-6.76h-5.25v4.78h5.25v-4.78Zm22,16c0-5.57-3.6-9.78-9.31-9.78-6,0-10,3.92-10,10,0,5.72,3.63,9.75,9.46,9.75s9.82-4.17,9.82-9.93Zm-5.43-.22c0,2.77-.93,5.83-4.21,5.83s-4.21-2.95-4.21-5.65,1.08-5.5,4.28-5.5,4.14,2.66,4.14,5.32Zm13.23-9h-5.18v18.63h5.43v-9.17c0-2.23.43-5,4.24-5a7.76,7.76,0,0,1,1.26.11v-4.82a5.16,5.16,0,0,0-.93-.07c-2.27,0-3.81.83-4.82,3.42v-3.06Z"/><path class="cls-2" d="M135.7,229.4H133l-1.47,6-1.6-6h-2.73l2.56,7.16a4.11,4.11,0,0,1,.36,1.26,1.28,1.28,0,0,1-.37.9,2,2,0,0,1-1.06.22l-.66,0v2c.22,0,.44,0,.66,0,1.09,0,2.47.07,3.22-.87a7.35,7.35,0,0,0,.84-1.91l2.92-8.77Zm-1.06-3.72h-3l-1.22,2.54h2l2.28-2.54Zm22.15,12.56v-1.88l4.37-4.88h-3.87v-2.08h7v2L160,236.16h4.52v2.08Zm14.45,0V233.3a2.1,2.1,0,0,0-.43-1.65,1.28,1.28,0,0,0-.89-.31,1.44,1.44,0,0,0-1,.34,2.46,2.46,0,0,0-.56,2v4.54H165.9v-12h2.49v4.11a3.12,3.12,0,0,1,2.4-1.11,3.18,3.18,0,0,1,1.76.49,3.15,3.15,0,0,1,1.19,2.9v5.65Zm6.75,0h-2.51v-12H178v12Zm18.91-2.71c0-2.22-2.18-2.61-3.89-3-.46-.1-1.5-.22-1.5-.85s.75-.72,1.23-.72a1.7,1.7,0,0,1,1.33.56,1.75,1.75,0,0,1,.22.72l2.35-.12c-.1-2.17-1.93-3-3.87-3-1.79,0-3.68.72-3.68,2.8,0,3.53,5.25,2.25,5.25,3.84,0,.7-.72.82-1.26.82-1.13,0-1.72-.32-1.88-1.47l-2.39.08a3.32,3.32,0,0,0,.08.82c.44,1.83,2.32,2.46,4,2.46,1.93,0,4-.68,4-3m-9.33-2.21a7.08,7.08,0,0,0-.24-2.41c-.65-1.54-2.3-1.77-3.77-1.77-2,0-3.65.85-3.77,3.05h2.32c0-.87.85-1.11,1.55-1.11.53,0,1.35.14,1.35.82s-.92.67-1.36.73c-1.91.27-4.35.5-4.35,3a2.83,2.83,0,0,0,3.07,2.85,4.12,4.12,0,0,0,2.78-1.06l0,.8h2.41v-4.91Zm-2.49,2a2.37,2.37,0,0,1-2.06,1.14c-.58,0-1.18-.27-1.18-.94,0-1.14,1.83-1.16,2.63-1.36a4.35,4.35,0,0,0,.61-.2v1.36Zm-85.83-1.16L96.43,234a2.42,2.42,0,0,1-2.58,2.22,2.93,2.93,0,0,1-1.86-.65,4.28,4.28,0,0,1-1.23-3.45c0-2,.8-4,3.09-4a2.43,2.43,0,0,1,2.25,1.21,2.88,2.88,0,0,1,.26.63l2.71-.19a4.38,4.38,0,0,0-.2-.82,5,5,0,0,0-5-3.1c-3.77,0-6,2.57-6,6.26a6.13,6.13,0,0,0,3.63,6,6.6,6.6,0,0,0,2.37.39A5.22,5.22,0,0,0,98.65,236a4.68,4.68,0,0,0,.6-1.82m9.36.34v-.43c0-2.73-1.4-5-4.35-5a4.39,4.39,0,0,0-4.47,4.67c0,2.71,1.67,4.67,4.47,4.67a4.19,4.19,0,0,0,4.25-2.81L106,235.5a1.69,1.69,0,0,1-1.65.94,1.9,1.9,0,0,1-1.91-1.89ZM106,232.64h-3.53a1.77,1.77,0,0,1,1.89-1.52,1.6,1.6,0,0,1,1.64,1.52m11.46,2.88c0-2.22-2.18-2.61-3.89-3-.46-.1-1.5-.22-1.5-.85s.75-.72,1.23-.72a1.71,1.71,0,0,1,1.33.56,1.75,1.75,0,0,1,.22.72l2.35-.12c-.1-2.16-1.93-3-3.87-3-1.79,0-3.68.72-3.68,2.8,0,3.53,5.25,2.25,5.25,3.84,0,.7-.72.82-1.26.82-1.13,0-1.72-.32-1.88-1.47l-2.39.09a3.33,3.33,0,0,0,.08.82c.44,1.83,2.32,2.46,4,2.46,1.93,0,4-.68,4-3m10,2.71-3.65-5.49,3.41-3.34H124l-2.73,3v-6.22h-2.51v12h2.51V235.3l.82-.82,2.22,3.75Zm19.17-6.69v-2.29a3.81,3.81,0,0,0-.44,0,2.19,2.19,0,0,0-2.28,1.62V229.4h-2.46v8.83H144v-2.88c0-.44,0-.9,0-1.35,0-1.43.24-2.51,2-2.51a3.5,3.5,0,0,1,.6.05m9.55,2.23a4.32,4.32,0,0,0-4.42-4.64,4.43,4.43,0,0,0-4.72,4.72,4.3,4.3,0,0,0,4.48,4.62,4.5,4.5,0,0,0,4.66-4.71m-2.58-.1c0,1.31-.44,2.76-2,2.76s-2-1.4-2-2.68.51-2.61,2-2.61,2,1.26,2,2.52M95,225.14H92.06l-1.57-2h2.3l.76,1.15.73-1.15h2.34l-1.63,2Z"/></g></g></g></g></svg>