<svg xmlns="http://www.w3.org/2000/svg" viewBox="0 0 283.46 283.46"><defs><style>.cls-1{fill:#00b8e0;}.cls-2{fill:#fff;}</style></defs><title>crovltava</title><g id="Layer_2" data-name="Layer 2"><g id="Picons"><g id="crovltava"><rect class="cls-1" width="283.46" height="283.46"/><g id="logo"><path class="cls-2" d="M120.35,42.52H78.18v21h85.07c-6.15-14.32-22.33-21-42.9-21Zm40,53.82H78.18V75.45h87.7c0,.82.06,1.65.06,2.49-.07,7.77-1.93,13.77-5.56,18.4Zm-82.19,12v20.86h76.61L142,108.3Zm0,32.82h84l12.92,21H78.18v-21Z"/><path class="cls-2" d="M134.81,227H131.6l-1.77,7.18L127.9,227h-3.29l3.08,8.64a5,5,0,0,1,.43,1.52,1.54,1.54,0,0,1-.45,1.09,2.46,2.46,0,0,1-1.28.27l-.8,0v2.39c.27,0,.53,0,.8,0,1.32,0,3,.08,3.89-1a8.87,8.87,0,0,0,1-2.3L134.81,227Zm-1.27-4.48h-3.63l-1.48,3.07h2.35l2.75-3.07Zm26.72,15.15v-2.26l5.27-5.88h-4.67V227h8.43v2.45l-5.1,5.7h5.45v2.51Zm17.42,0v-6a2.53,2.53,0,0,0-.51-2,1.55,1.55,0,0,0-1.07-.37,1.74,1.74,0,0,0-1.17.41,3,3,0,0,0-.68,2.45v5.47h-3V223.16h3v5a3.77,3.77,0,0,1,2.9-1.34,3.84,3.84,0,0,1,2.12.6,3.8,3.8,0,0,1,1.44,3.5v6.81Zm8.15,0h-3V223.16h3v14.52Zm22.81-3.27c0-2.67-2.63-3.15-4.69-3.58-.56-.12-1.81-.27-1.81-1s.91-.86,1.48-.86a2.06,2.06,0,0,1,1.6.68,2.12,2.12,0,0,1,.27.86l2.84-.14c-.12-2.61-2.32-3.62-4.67-3.62-2.16,0-4.44.86-4.44,3.37,0,4.26,6.34,2.72,6.34,4.63,0,.84-.86,1-1.52,1-1.36,0-2.08-.39-2.26-1.77l-2.88.1a4,4,0,0,0,.1,1c.54,2.2,2.8,3,4.83,3,2.32,0,4.81-.82,4.81-3.58m-11.25-2.67a8.54,8.54,0,0,0-.29-2.9c-.78-1.85-2.78-2.14-4.55-2.14-2.41,0-4.4,1-4.55,3.68h2.8c0-1,1-1.34,1.87-1.34.64,0,1.63.16,1.63,1s-1.11.8-1.65.88c-2.3.33-5.25.6-5.25,3.62a3.41,3.41,0,0,0,3.7,3.44,5,5,0,0,0,3.35-1.28l0,1h2.9v-5.92Zm-3,2.47a2.85,2.85,0,0,1-2.49,1.38c-.7,0-1.42-.33-1.42-1.13,0-1.38,2.2-1.4,3.17-1.65a5.24,5.24,0,0,0,.74-.25v1.65Zm-103.53-1.4-3.39-.23a2.92,2.92,0,0,1-3.11,2.67,3.54,3.54,0,0,1-2.24-.78,5.16,5.16,0,0,1-1.48-4.16c0-2.41,1-4.79,3.72-4.79A2.93,2.93,0,0,1,87.06,227a3.48,3.48,0,0,1,.31.76l3.27-.23a5.28,5.28,0,0,0-.25-1c-.86-2.57-3.44-3.74-6-3.74-4.55,0-7.28,3.11-7.28,7.55,0,3,1.44,6,4.38,7.18a8,8,0,0,0,2.86.47,6.3,6.3,0,0,0,5.78-3,5.65,5.65,0,0,0,.72-2.2m11.29.41v-.51c0-3.29-1.69-6-5.25-6a5.29,5.29,0,0,0-5.39,5.64c0,3.27,2,5.64,5.39,5.64a5.05,5.05,0,0,0,5.12-3.39l-3-.21a2,2,0,0,1-2,1.13,2.29,2.29,0,0,1-2.3-2.28ZM99,230.93H94.69A2.13,2.13,0,0,1,97,229.09a1.93,1.93,0,0,1,2,1.83m13.82,3.48c0-2.67-2.63-3.15-4.69-3.58-.56-.12-1.81-.27-1.81-1s.9-.86,1.48-.86a2.06,2.06,0,0,1,1.6.68,2.12,2.12,0,0,1,.27.86l2.84-.14c-.12-2.61-2.32-3.62-4.67-3.62-2.16,0-4.44.86-4.44,3.37,0,4.26,6.34,2.72,6.34,4.63,0,.84-.86,1-1.52,1-1.36,0-2.08-.39-2.26-1.77L103,234a4,4,0,0,0,.1,1c.53,2.2,2.8,3,4.83,3,2.32,0,4.81-.82,4.81-3.58m12.09,3.27-4.4-6.62,4.11-4h-3.93l-3.29,3.64v-7.51h-3v14.52h3v-3.54l1-1,2.67,4.53ZM148,229.61v-2.76a4.59,4.59,0,0,0-.54,0,2.64,2.64,0,0,0-2.76,2V227h-3v10.65h3.11V234.2c0-.54,0-1.09,0-1.63,0-1.73.29-3,2.41-3a4.23,4.23,0,0,1,.72.06m11.52,2.69c0-3.19-2.06-5.6-5.33-5.6a5.35,5.35,0,0,0-5.7,5.7c0,3.27,2.08,5.57,5.41,5.57a5.43,5.43,0,0,0,5.62-5.68m-3.11-.12c0,1.58-.54,3.33-2.41,3.33s-2.41-1.69-2.41-3.23.62-3.15,2.45-3.15,2.37,1.52,2.37,3m-70.69-10.3H82.18l-1.9-2.4h2.78l.92,1.39.88-1.39h2.82l-2,2.4Z"/><path class="cls-2" d="M102.64,179.34H95.23l-6.41,22.23-6.5-22.23h-7.5l10.74,30.59h6.37l10.7-30.59Zm8.75,30.59V179.34H105v30.59Zm16.42,0v-4.94c-.56,0-1.17.09-1.73.09-2,0-2.43-.69-2.43-2.6V192.34h3.94v-4.85h-3.94v-6.63h-6.37v6.63h-3.21v4.85h3.21V202c0,.39,0,.74,0,1.13,0,4.68,1.17,7,6.2,7a37.12,37.12,0,0,0,4.38-.3Zm46-22.4h-6.76l-3.73,13.91-4.12-13.91h-6.8l7.76,22.44h6.11l7.54-22.44Zm21.28,22.43H189l0-2c-2.47,1.73-3.86,2.69-7.06,2.69-4.33,0-7.8-2.69-7.8-7.24,0-6.37,6.2-6.93,11.05-7.63,1.13-.17,3.47-.26,3.47-1.86s-2.08-2.08-3.42-2.08c-1.78,0-4,.61-3.94,2.82h-5.89c.3-5.59,4.51-7.76,9.58-7.76,3.73,0,7.93.61,9.58,4.51.69,1.69.61,4.29.61,6.11v12.48Zm-6.33-10.75a11,11,0,0,1-1.56.52c-2,.52-6.67.56-6.67,3.47,0,1.69,1.52,2.38,3,2.38a6,6,0,0,0,5.24-2.9v-3.47ZM151,197.44c0-1.82.09-4.42-.61-6.11-1.65-3.9-5.85-4.51-9.58-4.51-5.07,0-9.27,2.17-9.58,7.76h5.89c-.09-2.21,2.17-2.82,3.94-2.82,1.34,0,3.42.35,3.42,2.08s-2.34,1.69-3.47,1.86c-4.85.69-11.05,1.26-11.05,7.63,0,4.55,3.47,7.24,7.8,7.24,3.21,0,4.59-1,7.06-2.69l0,2H151V197.44Zm-6.33,5.2a6,6,0,0,1-5.24,2.9c-1.47,0-3-.69-3-2.38,0-2.9,4.64-2.95,6.67-3.47a11,11,0,0,0,1.56-.52v3.47Z"/></g></g></g></g></svg>