<svg xmlns="http://www.w3.org/2000/svg" xmlns:xlink="http://www.w3.org/1999/xlink" viewBox="0 0 283.46 283.46"><defs><style>.cls-1{fill:none;}.cls-2{fill:#fff;}.cls-3{clip-path:url(#clip-path);}.cls-4{fill:#cf2835;}.cls-5{fill:#074c94;}.cls-6{clip-path:url(#clip-path-2);}</style><clipPath id="clip-path"><rect class="cls-1" x="42.52" y="106.06" width="108.71" height="71.34"/></clipPath><clipPath id="clip-path-2"><rect class="cls-1" x="200.64" y="125.83" width="40.3" height="39.53"/></clipPath></defs><title>csfilm</title><g id="Layer_2" data-name="Layer 2"><g id="Ostatní_CZ_kanály" data-name="Ostatní CZ kanály"><g id="csfilm"><rect class="cls-2" width="283.46" height="283.46"/><g id="logo"><g class="cls-3"><path class="cls-4" d="M42.52,177.4h99.21V106.06H42.52Z"/></g><path class="cls-2" d="M54.41,141.69a21,21,0,0,0,21.08,20.85H88.15v-9.73H75.49a11.1,11.1,0,1,1,0-22.2H88.15v-9.72H75.49a21,21,0,0,0-21.08,20.8"/><path class="cls-2" d="M126.72,141a12.11,12.11,0,0,0-9.42-4.21H105.14c-3,0-3.4-1.93-3.4-3.09a3.26,3.26,0,0,1,.77-2.2,3.45,3.45,0,0,1,2.63-.93h23.12v-9.72H105.14a12.82,12.82,0,0,0-9.69,4,13.06,13.06,0,0,0-3.32,8.8c0,6.37,4.47,12.82,13,12.82H117.3a2.61,2.61,0,0,1,2.16.85,3.62,3.62,0,0,1,.73,2.31c0,1.16-.35,3.09-2.78,3.09H93.52v9.73h23.89c8.07,0,12.43-6.6,12.43-12.82a13.35,13.35,0,0,0-3.13-8.68"/><path class="cls-5" d="M149.69,132.89v29.65h8V141.69h10.58v-8H157.68v-.77c0-4,1.7-4,2.93-4h7.65v-8h-7.65c-6.64,0-10.92,4.7-10.92,12"/><path class="cls-5" d="M174,162.54h8V133.66h-8Z"/><path class="cls-5" d="M187.68,162.54h8V120.85h-8Z"/><g class="cls-6"><path class="cls-5" d="M228.94,133.66H201.57v28.88h8V141.69h7.68v20.85h8V141.69h3.67c4,0,4,1.7,4,2.94v17.91h8V144.63c0-6.64-4.71-11-12-11"/></g><path class="cls-5" d="M173.93,129H182v-8.06h-8.11Z"/></g></g></g></g></svg>