<svg xmlns="http://www.w3.org/2000/svg" xmlns:xlink="http://www.w3.org/1999/xlink" viewBox="0 0 283.46 283.46"><defs><style>.cls-1{fill:none;}.cls-2{fill:#fff;}.cls-3{clip-path:url(#clip-path);}.cls-4{fill:#cf2835;}.cls-5{fill:#074c94;}.cls-6{clip-path:url(#clip-path-2);}.cls-7{fill:#ee322b;}.cls-8{fill:#8fc742;}.cls-9{fill:#ffca2c;}.cls-10{fill:#e9e9ea;}.cls-11{fill:#5dc8db;}</style><clipPath id="clip-path"><rect class="cls-1" x="42.52" y="148.13" width="108.71" height="71.34"/></clipPath><clipPath id="clip-path-2"><rect class="cls-1" x="200.64" y="167.89" width="40.3" height="39.53"/></clipPath></defs><title>csfilm_csmini</title><g id="Layer_2" data-name="Layer 2"><g id="Ostatní_CZ_kanály" data-name="Ostatní CZ kanály"><g id="csfilm_csmini"><rect class="cls-2" width="283.46" height="283.46"/><g id="logo"><g class="cls-3"><path class="cls-4" d="M42.52,219.47h99.21V148.13H42.52Z"/></g><path class="cls-2" d="M54.41,183.76a21,21,0,0,0,21.08,20.85H88.15v-9.73H75.49a11.1,11.1,0,1,1,0-22.2H88.15V163H75.49a21,21,0,0,0-21.08,20.81"/><path class="cls-2" d="M126.72,183.1a12.1,12.1,0,0,0-9.42-4.2H105.14c-3,0-3.4-1.93-3.4-3.09a3.26,3.26,0,0,1,.77-2.2,3.45,3.45,0,0,1,2.63-.93h23.12V163H105.14A12.84,12.84,0,0,0,95.45,167a13.06,13.06,0,0,0-3.32,8.8,12.49,12.49,0,0,0,13,12.81H117.3a2.61,2.61,0,0,1,2.16.85,3.63,3.63,0,0,1,.73,2.32c0,1.16-.35,3.09-2.78,3.09H93.52v9.73h23.89c8.07,0,12.43-6.61,12.43-12.82a13.44,13.44,0,0,0-3.12-8.69"/><path class="cls-5" d="M149.69,175V204.6h8V183.76h10.58v-8H157.68V175c0-4,1.7-4,2.93-4h7.65v-8h-7.65c-6.64,0-10.92,4.71-10.92,12"/><path class="cls-5" d="M174,204.6h8V175.73h-8Z"/><path class="cls-5" d="M187.68,204.6h8V162.91h-8Z"/><g class="cls-6"><path class="cls-5" d="M228.94,175.73H201.57v28.88h8V183.76h7.68v20.85h8V183.76h3.67c4,0,4,1.7,4,2.93v17.92h8V186.69c0-6.64-4.71-11-12-11"/></g><path class="cls-5" d="M173.93,171H182V163h-8.11Z"/><path class="cls-7" d="M66.66,82.18a10.45,10.45,0,0,0-7.55,3.12,11.25,11.25,0,0,0-2.26,3.38A10.32,10.32,0,0,0,56,92.8v13.06a10.46,10.46,0,0,0,.85,4.19,10.77,10.77,0,0,0,2.27,3.36,11.4,11.4,0,0,0,3.36,2.28,10.18,10.18,0,0,0,4.17.87H83v-7.94H68.3A4.3,4.3,0,0,1,64,104.24V94.43a4.28,4.28,0,0,1,1.25-3.12A4.12,4.12,0,0,1,68.3,90H83V82.18ZM94.78,82a9.15,9.15,0,0,0-3.69.75,9.22,9.22,0,0,0-5,5,9.08,9.08,0,0,0-.73,3.62v1.57a9,9,0,0,0,.73,3.64,10.07,10.07,0,0,0,2,3,9.12,9.12,0,0,0,6.65,2.77h13.85a3,3,0,0,1,3.08,3v.76a3.12,3.12,0,0,1-.89,2.23,2.89,2.89,0,0,1-2.19.92H88v7h22.26a9.14,9.14,0,0,0,3.66-.74,9.61,9.61,0,0,0,3-2,9.25,9.25,0,0,0,2.77-6.65v-1.57a9.06,9.06,0,0,0-.73-3.61,9.41,9.41,0,0,0-2-3,9.83,9.83,0,0,0-3-2,9.09,9.09,0,0,0-3.67-.74H96.41a3.09,3.09,0,0,1-3.09-3.11v-.76a3,3,0,0,1,.91-2.2,3,3,0,0,1,2.18-.89H117.1V82ZM42.52,76v46.56c0,7.91,4.1,12,12.09,12H122.8c8,0,12.09-4.06,12.09-12V76c0-7.91-4.1-12-12.09-12H54.61c-8,0-12.09,4.06-12.09,12m6.54,3.81c0-4.61,3-7.68,7.64-7.68h62.88c4.59,0,7.64,3.07,7.64,7.68v38.94c0,4.62-3,7.68-7.64,7.68H56.7c-4.59,0-7.64-3.06-7.64-7.68Z"/><path class="cls-8" d="M141.36,98.16s-.28-15.48,6.26-7.39,2.6,0,8.8-2.65a7.21,7.21,0,0,1,5.81.31,8.51,8.51,0,0,1,3.83,3.31,12.94,12.94,0,0,1,3.24-5.06,10.71,10.71,0,0,1,5-2.32,9.08,9.08,0,0,1,8,1.75q3.36,2.73,4.85,9.53l3.31,15.09-11.59,2.45L176,99.91a5.42,5.42,0,0,0-1.29-2.79,2.6,2.6,0,0,0-2.48-.93,3.08,3.08,0,0,0-2.3,1.93q-.69,1.59,0,4.89l2.52,11.51L160.85,117l-2.76-12.6a13.92,13.92,0,0,0-.78-2.67,3.43,3.43,0,0,0-1.35-1.44,2.38,2.38,0,0,0-1.76-.28,3.12,3.12,0,0,0-2.3,2c-.47,1.09-.46,2.78,0,5.09l2.48,11.29-11.6,2.44-1.47-22.59Z"/><path class="cls-9" d="M190.25,114.74l7.13-.63V86.84a7.65,7.65,0,0,0,1.24-1.74,5.42,5.42,0,1,0-.88-8.53,8,8,0,0,0-14.12,4.93,7.83,7.83,0,0,0,4.48,7.06l2.15,26.18Z"/><path class="cls-10" d="M185.65,81.63a6.07,6.07,0,0,0,11.89,1.68,4,4,0,1,0-.44-4.43,6.08,6.08,0,0,0-11.45,2.75"/><path d="M187.67,81.63a4,4,0,1,1,4,4,4,4,0,0,1-4-4"/><path d="M198.36,80.77A2.6,2.6,0,1,1,201,83.35a2.58,2.58,0,0,1-2.59-2.58"/><path d="M184.62,74.44l1.26,3.35L192,75.36l-.89-2.11-6.49,1.19Z"/><path d="M197.73,76.11l6.56,1.58.34-3.41-6.56-.57-.34,2.4Z"/><path class="cls-7" d="M202.27,92s5.67-14.08,8.55-4.43,2.4.92,9.14.78a7.22,7.22,0,0,1,5.29,2.4,8.21,8.21,0,0,1,2.29,4.43c1.73-1.74-.35,9.58-.76,11.78l-2.11,11.54-11.76-2.2,2.31-12.54a12.46,12.46,0,0,0,.31-2.71,3.34,3.34,0,0,0-.68-1.82,2.39,2.39,0,0,0-1.53-.91,3.15,3.15,0,0,0-2.86.94c-.85.82-1.49,2.36-1.92,4.64l-2.07,11.19L195,113l7.31-21Z"/><path class="cls-11" d="M225.8,91.52a7.45,7.45,0,0,0,3,6l1.49,18.8s10.09-.29,9.54-1.12c-.41-.6-1.95-11.1-2.8-17.08a7.53,7.53,0,1,0-11.22-6.58"/><path class="cls-10" d="M226.91,91.25a5.61,5.61,0,1,1,5.61,5.56,5.59,5.59,0,0,1-5.61-5.56"/><path d="M228.06,89.69a2.6,2.6,0,1,1,2.6,2.56,2.58,2.58,0,0,1-2.6-2.56"/><path d="M197.73,76.11l6.56,1.58.34-3.41-6.56-.57-.34,2.4Z"/></g></g></g></g></svg>