<svg xmlns="http://www.w3.org/2000/svg" viewBox="0 0 283.46 283.46"><defs><style>.cls-1{fill:#fff;}.cls-2{fill:#ee322b;}.cls-3{fill:#8fc742;}.cls-4{fill:#ffca2c;}.cls-5{fill:#e9e9ea;}.cls-6{fill:#5dc8db;}.cls-7{fill:#ee3430;}.cls-8{fill:#3b3996;}</style></defs><title>csfilm_csmini</title><g id="Layer_2" data-name="Layer 2"><g id="Ostatní_CZ_kanály" data-name="Ostatní CZ kanály"><g id="csfilm_csmini"><rect class="cls-1" width="283.46" height="283.46"/><g id="logo"><path class="cls-1" d="M42.52,160.31c0-8.3,5.65-14,14-14H227c8.3,0,14,5.65,14,14V211c0,8.3-5.65,13.95-14,13.95H56.47c-8.3,0-14-5.65-14-13.95V160.31Z"/><path class="cls-2" d="M71,169.75a9.93,9.93,0,0,0-7.14,3,10.63,10.63,0,0,0-2.14,3.2,9.76,9.76,0,0,0-.79,3.9v12.35a9.84,9.84,0,0,0,.8,4,10.18,10.18,0,0,0,2.15,3.18,10.68,10.68,0,0,0,3.18,2.16,9.6,9.6,0,0,0,3.94.82H86.5v-7.5H72.57a4.05,4.05,0,0,1-4.09-4.14v-9.28a4.06,4.06,0,0,1,1.18-3,3.92,3.92,0,0,1,2.91-1.21H86.5v-7.42H71Zm26.58-.15a8.79,8.79,0,0,0-3.48.7,8.73,8.73,0,0,0-4.7,4.7,8.7,8.7,0,0,0-.69,3.42v1.49a8.59,8.59,0,0,0,.69,3.44,9.28,9.28,0,0,0,1.89,2.82,8.48,8.48,0,0,0,2.81,1.93,8.69,8.69,0,0,0,3.47.69h13.1a2.86,2.86,0,0,1,2.92,2.88v.72a3,3,0,0,1-.84,2.11,2.78,2.78,0,0,1-2.08.87H91.2V202h21.05a8.6,8.6,0,0,0,3.45-.69,9.25,9.25,0,0,0,2.84-1.89,8.82,8.82,0,0,0,2.62-6.29v-1.49a8.61,8.61,0,0,0-.69-3.41,8.78,8.78,0,0,0-1.91-2.82,9.27,9.27,0,0,0-2.85-1.9,8.71,8.71,0,0,0-3.46-.7H99.15a2.9,2.9,0,0,1-2.92-2.93v-.72a2.9,2.9,0,0,1,2.92-2.92h19.55v-6.66H97.61Zm-49.4-5.71v44c0,7.48,3.88,11.32,11.43,11.32H124.1c7.56,0,11.43-3.84,11.43-11.32v-44c0-7.48-3.88-11.32-11.43-11.32H59.63c-7.56,0-11.43,3.84-11.43,11.32m6.18,3.59a6.83,6.83,0,0,1,7.22-7.26h59.45a6.83,6.83,0,0,1,7.23,7.26V204.3a6.83,6.83,0,0,1-7.23,7.26H61.61a6.83,6.83,0,0,1-7.22-7.26Z"/><path class="cls-3" d="M141.64,184.85s-.26-14.63,5.92-7,2.46,0,8.31-2.5a6.84,6.84,0,0,1,5.5.29,8.08,8.08,0,0,1,3.62,3.13,12.24,12.24,0,0,1,3.07-4.79,10.19,10.19,0,0,1,4.74-2.19,8.6,8.6,0,0,1,7.56,1.66q3.17,2.58,4.58,9l3.14,14.27-11,2.31-2.76-12.54a5.25,5.25,0,0,0-1.22-2.64,2.48,2.48,0,0,0-2.35-.88,2.91,2.91,0,0,0-2.17,1.83,8,8,0,0,0,0,4.62L171,200.32l-11,2.3-2.62-11.91a12.71,12.71,0,0,0-.74-2.52,3.32,3.32,0,0,0-1.27-1.37,2.29,2.29,0,0,0-1.67-.26,3,3,0,0,0-2.17,1.86q-.67,1.54,0,4.81L154,203.9l-11,2.31-1.39-21.36Z"/><path class="cls-4" d="M187.87,200.52l6.74-.59V174.15a7.55,7.55,0,0,0,1.17-1.65,5.13,5.13,0,1,0-.83-8.07,7.52,7.52,0,0,0-13.34,4.66,7.41,7.41,0,0,0,4.23,6.68l2,24.75Z"/><path class="cls-5" d="M183.51,169.23a5.74,5.74,0,0,0,11.24,1.59,3.78,3.78,0,1,0-.41-4.19,5.75,5.75,0,0,0-10.83,2.6"/><path d="M185.43,169.23a3.82,3.82,0,1,1,3.82,3.78,3.8,3.8,0,0,1-3.82-3.78"/><path d="M195.52,168.42a2.46,2.46,0,1,1,2.46,2.43,2.44,2.44,0,0,1-2.46-2.43"/><path d="M182.54,162.43l1.2,3.17,5.78-2.3-.84-2-6.14,1.13Z"/><path d="M194.93,164l6.2,1.5.32-3.23-6.21-.54-.31,2.27Z"/><path class="cls-2" d="M199.23,179.05s5.36-13.31,8.08-4.18,2.27.87,8.64.74a6.81,6.81,0,0,1,5,2.27,7.77,7.77,0,0,1,2.17,4.19c1.63-1.65-.34,9.06-.72,11.14l-2,10.91L209.29,202l2.18-11.85a12,12,0,0,0,.3-2.56,3.21,3.21,0,0,0-.65-1.72,2.26,2.26,0,0,0-1.44-.86,3,3,0,0,0-2.7.89q-1.22,1.16-1.81,4.39l-2,10.58-10.88-2,6.91-19.8Z"/><path class="cls-6" d="M221.47,178.58a7.06,7.06,0,0,0,2.83,5.65L225.71,202s9.54-.27,9-1.05c-.38-.57-1.84-10.49-2.64-16.15a7.12,7.12,0,1,0-10.61-6.22"/><path class="cls-5" d="M222.53,178.32a5.3,5.3,0,1,1,5.3,5.26,5.28,5.28,0,0,1-5.3-5.26"/><path d="M223.61,176.84a2.45,2.45,0,1,1,2.46,2.43,2.44,2.44,0,0,1-2.46-2.43"/><path d="M194.93,164l6.2,1.5.32-3.23-6.21-.54-.31,2.27Z"/><path class="cls-1" d="M42.52,73c0-8.59,5.85-14.44,14.44-14.44H226.5c8.59,0,14.44,5.85,14.44,14.44v52.41c0,8.59-5.85,14.44-14.44,14.44H57c-8.59,0-14.44-5.85-14.44-14.44V73Z"/><path class="cls-7" d="M72,82.77a10.35,10.35,0,0,0-4.08.81,10.22,10.22,0,0,0-3.31,2.25,10.94,10.94,0,0,0-2.22,3.31,10,10,0,0,0-.82,4V106a10.05,10.05,0,0,0,.83,4.09,10.43,10.43,0,0,0,2.22,3.29,10.9,10.9,0,0,0,3.29,2.23,9.88,9.88,0,0,0,4.08.85H88v-7.77H73.63a4.19,4.19,0,0,1-4.24-4.29v-9.6a4.22,4.22,0,0,1,1.22-3.05,4.05,4.05,0,0,1,3-1.25H88V82.77H72Zm27.51-.16a9.12,9.12,0,0,0-9.18,9.13v1.54a8.89,8.89,0,0,0,.72,3.56,9.78,9.78,0,0,0,2,2.92,8.87,8.87,0,0,0,2.91,2,9,9,0,0,0,3.59.72h13.55a2.91,2.91,0,0,1,2.16.87,2.88,2.88,0,0,1,.86,2.1v.75a3.06,3.06,0,0,1-.87,2.18,2.87,2.87,0,0,1-2.15.9H92.9v6.89h21.79a8.92,8.92,0,0,0,3.58-.72,9.53,9.53,0,0,0,2.94-2,9.12,9.12,0,0,0,2.71-6.51v-1.54a8.93,8.93,0,0,0-.72-3.52,9.05,9.05,0,0,0-2-2.92,9.51,9.51,0,0,0-2.95-2,9.08,9.08,0,0,0-3.59-.73H101.14a3,3,0,0,1-3-3v-.75a3,3,0,0,1,3-3h20.24V82.61H99.54ZM48.41,76.7v45.56c0,7.74,4,11.72,11.83,11.72H127c7.82,0,11.83-4,11.83-11.72V76.7C138.79,69,134.78,65,127,65H60.23c-7.82,0-11.83,4-11.83,11.72m6.4,3.72c0-4.51,3-7.51,7.47-7.51h61.53c4.49,0,7.48,3,7.48,7.51v38.11c0,4.51-3,7.51-7.48,7.51H62.28c-4.49,0-7.47-3-7.47-7.51V80.42Z"/><path class="cls-8" d="M146.28,101.81V95h6.47V87.83a5.54,5.54,0,0,1,2.45-4.73,8.8,8.8,0,0,1,5.25-1.54h6.91v6.77h-7.58V95h7.58v6.77h-7.58v14.52h-7V101.81h-6.47Z"/><path class="cls-8" d="M177.73,84.7c2.28,0,3.41,1,3.41,3.05a3.55,3.55,0,0,1-.86,2.44,3.1,3.1,0,0,1-2.46,1.07,3.55,3.55,0,0,1-2.6-1,3.37,3.37,0,0,1-1-2.53q0-3.05,3.51-3.05m3.51,31.63h-7V95h7Z"/><path class="cls-8" d="M195.21,116.33h-7V81.56h7Z"/><path class="cls-8" d="M221.67,101.81v14.52h-7V101.81h-4.53v14.52h-7V95h22.28a7.92,7.92,0,0,1,5.12,1.8,5.92,5.92,0,0,1,2.44,4.75v14.74h-7V101.81h-4.23Z"/></g></g></g></g></svg>