<svg xmlns="http://www.w3.org/2000/svg" viewBox="0 0 283.46 283.46"><defs><style>.cls-1{fill:#7b1610;}.cls-2{fill:#fac02b;}.cls-3{fill:#fff;}</style></defs><g id="Layer_2" data-name="Layer 2"><g id="JOJ_Group" data-name="JOJ Group"><g id="csfilm"><rect class="cls-1" width="283.46" height="283.46"/><g id="logo"><path class="cls-2" d="M103.4,141.05a26.7,26.7,0,0,0-8.79-2.82l-6.33-1.18a18.34,18.34,0,0,1-5.89-1.87,3.9,3.9,0,0,1-2.12-2.67l-.14-.95a3.35,3.35,0,0,1,1.63-3.26c1.26-.92,3.24-1.37,5.92-1.39a29.28,29.28,0,0,1,6.46.66,34,34,0,0,1,8.78,3.26c.1.4.17.86.19.93.15.86,1,6.79,1.51,10.09a8.27,8.27,0,0,0-1.22-.8m-3.1,13.27c-1.49,1.29-3.84,2.22-7.06,2.76a18.57,18.57,0,0,1-6.89-.13A27.65,27.65,0,0,1,77.68,153l-4.54,3.48a42,42,0,0,0,12.12,5.94c-4,.24-7.47.43-11.38.6a20.6,20.6,0,0,0,3.53-2.38,47.54,47.54,0,0,1-5.3-3.32,18.38,18.38,0,0,1-8.66,3.58c-3.44.59-6.16.11-8.05-1.47s-3-4.23-3.25-7.89l-.86-12.49c-.25-3.71.44-6.59,2.07-8.58s4-3,7.25-3a15.6,15.6,0,0,1,5.07.77,41.44,41.44,0,0,1,6.23,3,8.17,8.17,0,0,1,2-5.48A21,21,0,0,0,68.76,123c7-1,13.06-2,21.71-3.06a11.9,11.9,0,0,1,10.46,4.19,37.26,37.26,0,0,0-13.25-2.32,24.21,24.21,0,0,0-8.25,1.45,10.07,10.07,0,0,0-5,3.71,7.61,7.61,0,0,0-1.22,5.25l.17,1.35c.62,4.87,4.66,8,12.16,9.44l7.07,1.18a18.71,18.71,0,0,1,6,1.59c1.13.64,3,2.15,3.3,3.43l.25,1.25c.28,1.33-.33,2.57-1.81,3.9m9.44-4.59c-.86-6.21-2-11.76-2.68-17.94-1-9-8.58-15.67-17-14.65-12.66,1.53-19.68,3-32.38,4.47-8.3,1-15.16,7.86-15.23,15.41V152.4c0,7.66,7.72,14.38,16.52,14,6.27-.28,32.7-1.62,37.54-2,9-.75,14.47-5.23,13.15-14.59"/><path class="cls-3" d="M118.09,118.88h26.66v9.19H129.26V135h13.67v9.48H129.26v16.95H118.09Zm31,0h11.17v42.54H149.12Zm16.16,0h11.18V150.2h15.31v11.22H165.28V118.88Zm53.31,15.77,17.31-15.77h5v42.54H229.71V139.58l-11.12,10.16-11.17-10.1v21.78H196.19V118.88h5.05Z"/></g></g></g></g></svg>