<svg xmlns="http://www.w3.org/2000/svg" viewBox="0 0 283.46 283.46"><defs><style>.cls-1{fill:#1c4064;}.cls-2{fill:#eca022;}.cls-3{fill:#fff;}</style></defs><g id="Layer_2" data-name="Layer 2"><g id="JOJ_Group" data-name="JOJ Group"><g id="cshistory"><rect class="cls-1" width="283.46" height="283.46"/><g id="logo"><path class="cls-2" d="M90.76,141.19a21,21,0,0,0-7-2.23l-5-.93a14.86,14.86,0,0,1-4.68-1.48,3.11,3.11,0,0,1-1.7-2.12l-.11-.75a2.63,2.63,0,0,1,1.3-2.58,8.05,8.05,0,0,1,4.67-1.1,22.59,22.59,0,0,1,5.12.52,26.64,26.64,0,0,1,7,2.58,6.83,6.83,0,0,1,.14.73c.13.72.77,5.39,1.2,8a8.43,8.43,0,0,0-.93-.63M88.29,151.7a11.32,11.32,0,0,1-5.58,2.18,14.69,14.69,0,0,1-5.49-.1,22.07,22.07,0,0,1-6.84-3.11l-3.59,2.72a33.12,33.12,0,0,0,9.6,4.71c-3.18.19-5.93.34-9,.47a15.6,15.6,0,0,0,2.8-1.85A37.82,37.82,0,0,1,66,154.1a14.61,14.61,0,0,1-6.87,2.81c-2.71.46-4.87.09-6.37-1.16s-2.36-3.35-2.57-6.25l-.68-9.9c-.21-2.93.34-5.22,1.64-6.79a7,7,0,0,1,5.75-2.38,12.39,12.39,0,0,1,4,.61,32.48,32.48,0,0,1,4.94,2.37,6.45,6.45,0,0,1,1.61-4.34,16.76,16.76,0,0,0-4.14-2.24c5.58-.79,10.35-1.58,17.2-2.41a9.43,9.43,0,0,1,8.28,3.36,26.92,26.92,0,0,0-3.62-1.09,27.89,27.89,0,0,0-6.87-.76,19.56,19.56,0,0,0-6.55,1.16A8,8,0,0,0,67.79,130a6,6,0,0,0-1,4.15l.13,1.07c.49,3.86,3.7,6.37,9.64,7.47l5.59.93a14.82,14.82,0,0,1,4.72,1.27c.9.5,2.41,1.7,2.62,2.71l.19,1c.22,1-.26,2.07-1.43,3.09m7.47-3.63c-.68-4.94-1.59-9.33-2.12-14.22-.77-7.15-6.72-12.39-13.39-11.58-10,1.21-15.59,2.33-25.65,3.54-6.57.79-12,6.22-12.07,12.19v12.17c0,6.07,6.11,11.39,13.08,11.08,5-.22,25.9-1.28,29.73-1.61,7.15-.6,11.47-4.14,10.42-11.59"/><path class="cls-3" d="M101,126.15h6.81v12.18h6.68V126.15h6.82v31.09h-6.82V144.59h-6.68v12.65H101Zm24.13,0h6.82v31.08h-6.82Z"/><path class="cls-3" d="M154.21,134.3v1.78h-6.38v-1.62c0-1.92-.84-3.32-3.08-3.32s-3,1.17-3,2.8a3.11,3.11,0,0,0,1.16,2.57,21.88,21.88,0,0,0,4.39,2.62,19.51,19.51,0,0,1,5.51,4.07,8.74,8.74,0,0,1,1.67,5.7c0,5.43-3.49,9-10,9-3.5,0-6-.84-7.48-2.47a9,9,0,0,1-2.24-6.26v-2.21h6.44v1.59c0,2.28,1,3.73,3.4,3.73,2.19,0,3.22-1.12,3.22-2.93a3.5,3.5,0,0,0-1.07-2.67,23.25,23.25,0,0,0-4.58-2.72c-4.89-2.46-7.14-4.86-7.14-9.62a8.57,8.57,0,0,1,2.48-6.2c1.63-1.72,4.06-2.55,7.23-2.55,6.68,0,9.51,3.68,9.51,8.72"/><path class="cls-3" d="M155,126.15h19.42v6.31h-6.25v24.78h-6.86V132.46H155Z"/><path class="cls-3" d="M182.31,135.86v11.67c0,2.94,1.31,4.34,3.51,4.34s3.45-1.4,3.45-4.34V135.86c0-2.94-1.35-4.34-3.45-4.34s-3.5,1.4-3.5,4.34m13.91.18v11.3c0,6.63-4.25,10.55-10.41,10.55s-10.41-3.92-10.41-10.55V136c0-6.62,4.24-10.57,10.41-10.57s10.4,3.92,10.4,10.55m9.95-4.43v9h2.33c2.29,0,3.26-1.17,3.26-3.27v-2.42c0-2.11-1-3.32-3.26-3.32Zm0,14.42v11.22h-6.8V126.15h10.74c5.36,0,8.54,3.17,8.54,8.15v3.55c0,3.32-1.45,5.84-3.92,7.14l4.62,12.23h-7.07L208.13,146Z"/><path class="cls-3" d="M218.59,126.15h7.23L230,138.62l4.2-12.47h6.77l-7.84,19.23v11.86h-6.86V145.38Z"/></g></g></g></g></svg>