<svg xmlns="http://www.w3.org/2000/svg" viewBox="0 0 283.46 283.46"><defs><style>.cls-1{fill:#dde21e;}.cls-2{fill:#fff;}</style></defs><g id="Layer_2" data-name="Layer 2"><g id="JOJ_Group" data-name="JOJ Group"><g id="cshorror"><rect width="283.46" height="283.46"/><g id="logo"><path class="cls-1" d="M82.83,141.28A17.73,17.73,0,0,0,77,139.41l-4.19-.78a12.35,12.35,0,0,1-3.89-1.23,2.6,2.6,0,0,1-1.41-1.77L67.4,135a2.2,2.2,0,0,1,1.08-2.16,6.86,6.86,0,0,1,4-.9,19.17,19.17,0,0,1,4.27.44,22.42,22.42,0,0,1,5.82,2.16c.07.26.11.57.13.61.09.6.64,4.5,1,6.68a8.67,8.67,0,0,0-.81-.53m-2.07,8.76a9.47,9.47,0,0,1-4.68,1.83,12.37,12.37,0,0,1-4.58-.06,18.59,18.59,0,0,1-5.73-2.61l-3,2.28a28,28,0,0,0,8,3.93c-2.66.16-4.95.29-7.54.4a13.11,13.11,0,0,0,2.34-1.57,30.27,30.27,0,0,1-3.51-2.19,12.31,12.31,0,0,1-5.74,2.35c-2.27.38-4.07.07-5.33-1s-2-2.8-2.15-5.22L48.32,140a7.91,7.91,0,0,1,1.38-5.68,5.85,5.85,0,0,1,4.8-2,10.08,10.08,0,0,1,3.36.51,26,26,0,0,1,4.12,2,5.57,5.57,0,0,1,1.35-3.64,14.09,14.09,0,0,0-3.4-1.82c4.61-.7,8.59-1.35,14.32-2a7.89,7.89,0,0,1,6.93,2.81,21.53,21.53,0,0,0-3-.91,23.25,23.25,0,0,0-5.75-.63,16.14,16.14,0,0,0-5.46,1,6.72,6.72,0,0,0-3.3,2.45,5.08,5.08,0,0,0-.81,3.47l.11.89c.41,3.23,3.09,5.33,8.06,6.25l4.67.75a12.74,12.74,0,0,1,4,1c.75.43,2,1.44,2.19,2.28l.16.82A2.74,2.74,0,0,1,80.8,150m6.25-3c-.57-4.12-1.34-7.8-1.78-11.88-.67-6-5.65-10.33-11.23-9.65-8.39,1-13,1.93-21.44,3-5.5.67-10.07,5.22-10.08,10.19V148.8c0,5.07,5.11,9.52,10.93,9.26,4.15-.18,21.66-1.08,24.87-1.34,6-.5,9.58-3.47,8.7-9.7"/><path class="cls-2" d="M108.9,139.17V129.1h6.79v26.1H108.9V144.51H99.11V155.2H92.32V129.1h6.79v10.07Z"/><path class="cls-2" d="M124,141.7a7.4,7.4,0,1,0,14.77,0c0-3.6-3.32-6.89-7.38-6.89S124,138.1,124,141.7m21.8,0c0,8.44-6,14.39-14.43,14.39s-14.43-5.94-14.43-14.39c0-7.89,6.92-13.43,14.43-13.43s14.43,5.54,14.43,13.43m8.07-.87h.66c2.22,0,4.7-.42,4.7-3.25s-2.48-3.26-4.7-3.26h-.66Zm14.92,14.4h-8.45l-6.4-10h-.07v10h-6.78V129.1h10.14c5.16,0,9.09,2.46,9.09,8,0,3.6-2,6.72-5.68,7.38Z"/><path class="cls-2" d="M175.53,140.8h.66c2.21,0,4.7-.42,4.7-3.25s-2.49-3.26-4.7-3.26h-.66Zm14.92,14.4H182l-6.4-10h-.07v10h-6.78V129.1h10.14c5.15,0,9.09,2.46,9.09,8,0,3.6-2,6.72-5.71,7.38Z"/><path class="cls-2" d="M196.16,141.7a7.4,7.4,0,1,0,14.77,0c0-3.6-3.33-6.89-7.39-6.89s-7.38,3.29-7.38,6.89m21.8,0c0,8.44-6.06,14.39-14.43,14.39s-14.44-5.94-14.44-14.39c0-7.89,6.93-13.43,14.44-13.43S218,133.78,218,141.67m8.07-.87h.66c2.21,0,4.71-.42,4.71-3.25s-2.5-3.26-4.71-3.26H226Zm14.91,14.4H232.5l-6.4-10H226v10h-6.79V129.1h10.14c5.16,0,9.09,2.46,9.09,8,0,3.6-2,6.72-5.71,7.38Z"/></g></g></g></g></svg>