<svg xmlns="http://www.w3.org/2000/svg" viewBox="0 0 283.46 283.46"><defs><style>.cls-1{fill:#662781;}.cls-2{fill:#fbe00a;}.cls-3{fill:#fff;}</style></defs><g id="Layer_2" data-name="Layer 2"><g id="JOJ_Group" data-name="JOJ Group"><g id="csmystery"><rect class="cls-1" width="283.46" height="283.46"/><g id="logo"><path class="cls-2" d="M88.09,141.19a19.92,19.92,0,0,0-6.59-2.1l-4.71-.9a14,14,0,0,1-4.41-1.4,2.91,2.91,0,0,1-1.58-2l-.11-.72a2.5,2.5,0,0,1,1.22-2.44,7.64,7.64,0,0,1,4.42-1,21.71,21.71,0,0,1,4.82.53,25.15,25.15,0,0,1,6.56,2.43c.08.29.13.64.14.69.12.68.73,5.09,1.13,7.56a6.88,6.88,0,0,0-.91-.61m-2.28,9.93a10.81,10.81,0,0,1-5.28,2.08,13.94,13.94,0,0,1-5.19-.1,20.85,20.85,0,0,1-6.47-2.95l-3.39,2.61a31.13,31.13,0,0,0,9.07,4.45c-3,.18-5.6.32-8.53.45a15.35,15.35,0,0,0,2.65-1.78,37.55,37.55,0,0,1-4-2.48,13.91,13.91,0,0,1-6.52,2.65c-2.57.43-4.61.08-6-1.1s-2.23-3.17-2.43-5.91l-.64-9.35c-.2-2.78.32-4.93,1.55-6.42A6.65,6.65,0,0,1,56.05,131a11.65,11.65,0,0,1,3.8.58,29.37,29.37,0,0,1,4.66,2.24A6.14,6.14,0,0,1,66,129.73a16.14,16.14,0,0,0-3.89-2.07c5.25-.79,9.76-1.53,16.24-2.32a8.9,8.9,0,0,1,7.83,3.21,26,26,0,0,0-3.43-1,26.26,26.26,0,0,0-6.49-.72,18.33,18.33,0,0,0-6.18,1.1,7.4,7.4,0,0,0-3.72,2.77,5.63,5.63,0,0,0-.92,3.93l.12,1c.46,3.64,3.49,6,9.11,7.07l5.3.82a14.32,14.32,0,0,1,4.45,1.19c.85.48,2.28,1.62,2.48,2.57l.18.93c.21,1-.25,1.93-1.35,2.92m7.06-3.44c-.64-4.65-1.51-8.8-2-13.43-.72-6.75-6.36-11.7-12.66-10.92-9.48,1.15-14.77,2.21-24.25,3.36-6.21.74-11.38,5.87-11.39,11.56v11.5c0,5.74,5.78,10.77,12.36,10.47C59.57,160,79.37,159,83,158.7c6.74-.6,10.82-4,9.86-11"/><path class="cls-3" d="M129.29,154.78l-5.95-23.48-9.2,24.19-9.2-24.23-6,23.52H97.35L104.63,126,114.14,151l9.51-25,7.28,28.8Zm10.72-14v14h-1.6v-14l-7.95-14h1.84l6.89,12.09,7-12.09H148Z"/><path class="cls-3" d="M161.53,154.55a10.69,10.69,0,0,1-3.59.55q-6.44,0-8.27-6.07l1.64-.57q1.37,5,6.65,5A7,7,0,0,0,162.7,152a5.64,5.64,0,0,0,1.76-4.5,6,6,0,0,0-2.08-4.62,8.67,8.67,0,0,0-1.68-1.13,32,32,0,0,0-2.9-1.41,18.27,18.27,0,0,1-4.53-2.57,5.81,5.81,0,0,1-2-4.66,5.75,5.75,0,0,1,2.05-4.61,7.24,7.24,0,0,1,5-1.8q4.93,0,7,3.67l-1.53.64a5.3,5.3,0,0,0-1.87-1.92,6.57,6.57,0,0,0-3.57-.86,5.73,5.73,0,0,0-3.85,1.28,4.59,4.59,0,0,0,.09,7.12,20,20,0,0,0,3.91,2.12,30.17,30.17,0,0,1,3.15,1.62,11.13,11.13,0,0,1,2.16,1.63,7.48,7.48,0,0,1,2.27,5.55c0,3.56-1.5,5.89-4.5,7"/><path class="cls-3" d="M177,128.45v26.33h-1.6V128.45h-6.18v-1.61h14v1.61Zm10.26,26.33V126.84h13.42v1.6H188.81v10.18h11.82v1.72H188.81v12.84h11.82v1.6Z"/><path class="cls-3" d="M217.69,131.4a4.38,4.38,0,0,0-1.28-1.64,5.69,5.69,0,0,0-1.93-1,7.76,7.76,0,0,0-2.35-.33h-4.85v10.76h5.28a5.78,5.78,0,0,0,4.05-1.41,5.2,5.2,0,0,0,1.54-4.07,5.48,5.48,0,0,0-.46-2.33m1.49,23.38-8.88-14h-3v14h-1.57V126.84h6.42a10.06,10.06,0,0,1,3,.45,7,7,0,0,1,2.42,1.33,6.43,6.43,0,0,1,1.63,2.17,6.94,6.94,0,0,1,.6,3,8,8,0,0,1-.56,3.17,5.63,5.63,0,0,1-1.61,2.19,6.69,6.69,0,0,1-2.45,1.28,10.7,10.7,0,0,1-3.08.42l9,14Z"/><path class="cls-3" d="M233,140.81v14h-1.61v-14l-7.94-14h1.84l6.89,12.09,7-12.09h1.84Z"/></g></g></g></g></svg>