<svg xmlns="http://www.w3.org/2000/svg" viewBox="0 0 283.46 283.46"><defs><style>.cls-1{fill:#ed1c24;}.cls-2{fill:#fff;}</style></defs><g id="Layer_2" data-name="Layer 2"><g id="Česká_televize" data-name="Česká televize"><g id="ct1"><rect class="cls-1" width="283.46" height="283.46"/><g id="logo-2" data-name="logo"><path class="cls-2" d="M176.27,141.73a128.81,128.81,0,0,0-1.61-20.47c-3-17.63-7.55-21.62-32.11-23.58-8.93-.71-18.58-1.06-26.42-1.19V108.1c3.71.13,7.86.38,11.75.8,13.69,1.46,16.24,4.43,17.9,17.58a129.21,129.21,0,0,1,.9,15.26,128.62,128.62,0,0,1-.9,15.23c-1.66,13.16-4.21,16.12-17.9,17.59-3.89.42-8,.67-11.75.8V187c7.84-.12,17.49-.47,26.42-1.18,24.56-2,29.14-6,32.11-23.59a128.89,128.89,0,0,0,1.61-20.47m-100-44c-24.56,2-29.14,5.94-32.11,23.58a130.94,130.94,0,0,0,0,40.94c3,17.63,7.55,21.63,32.11,23.59,8.94.71,18.6,1.06,26.43,1.18V175.36c-3.71-.13-7.86-.38-11.76-.8C77.22,173.09,74.67,170.12,73,157a128.15,128.15,0,0,1,0-30.49c1.65-13.15,4.2-16.12,17.89-17.58,3.9-.42,8-.66,11.76-.8V96.49c-7.83.13-17.49.47-26.43,1.19m130,35.5L199.43,117l23-14.25h18.5v74.3H220.18v-52.3l-13.91,8.41Z"/></g></g></g></g></svg>