<svg xmlns="http://www.w3.org/2000/svg" viewBox="0 0 283.46 283.46"><defs><style>.cls-1{fill:#ed1c24;}.cls-2{fill:#fff;}</style></defs><title>ct1</title><g id="Layer_2" data-name="Layer 2"><g id="Česká_televize" data-name="Česká televize"><g id="ct1"><rect class="cls-1" width="283.46" height="283.46"/><g id="logo-2" data-name="logo"><path class="cls-2" d="M176.27,141.73a129.58,129.58,0,0,0-1.61-20.47c-3-17.63-7.55-21.63-32.12-23.59-8.93-.71-18.58-1.06-26.41-1.18V108.1c3.7.12,7.86.38,11.75.79,13.69,1.46,16.24,4.43,17.9,17.58a128.4,128.4,0,0,1,.9,15.27,127.83,127.83,0,0,1-.9,15.23c-1.66,13.16-4.2,16.12-17.9,17.58-3.89.43-8,.67-11.75.8V187c7.83-.12,17.48-.48,26.41-1.18,24.56-2,29.14-6,32.12-23.59a129.69,129.69,0,0,0,1.61-20.47m-100-44.06c-24.56,2-29.14,5.95-32.12,23.59a131.06,131.06,0,0,0,0,40.94c3,17.63,7.55,21.63,32.12,23.59,8.93.71,18.59,1.06,26.43,1.18V175.36c-3.72-.13-7.86-.38-11.76-.8C77.22,173.09,74.67,170.12,73,157a129.39,129.39,0,0,1,0-30.5c1.66-13.15,4.2-16.12,17.9-17.58,3.9-.41,8-.66,11.76-.79V96.49c-7.83.12-17.5.46-26.43,1.18m130,35.5L199.43,117l23-14.26h18.51v74.3H220.18V124.77l-13.91,8.41Z"/></g></g></g></g></svg>