<svg xmlns="http://www.w3.org/2000/svg" viewBox="0 0 283.46 283.46"><defs><style>.cls-1{fill:#f89a0f;}.cls-2{fill:#fff;}</style></defs><g id="Layer_2" data-name="Layer 2"><g id="Česká_televize" data-name="Česká televize"><g id="ct2"><rect class="cls-1" width="283.46" height="283.46"/><g id="logo-2" data-name="logo"><path id="path7920" class="cls-2" d="M133.05,95.61c-9.34-.74-19.45-1.1-27.66-1.23v12.15c3.89.14,8.23.4,12.3.83,14.34,1.53,17,4.64,18.74,18.41a133.61,133.61,0,0,1,.94,16,133.3,133.3,0,0,1-.94,15.95c-1.73,13.76-4.4,16.87-18.74,18.41-4.07.43-8.41.69-12.3.83v12.16c8.21-.13,18.32-.5,27.66-1.24,25.71-2.06,30.51-6.24,33.62-24.69a137.52,137.52,0,0,0,0-42.86c-3.11-18.45-7.91-22.63-33.62-24.69M30,120.3a137.52,137.52,0,0,0,0,42.86c3.12,18.45,7.91,22.63,33.62,24.69,9.34.74,19.46,1.11,27.66,1.24V176.93c-3.89-.14-8.23-.4-12.3-.83-14.34-1.54-17-4.65-18.74-18.41a136,136,0,0,1,0-31.92C62,112,64.67,108.89,79,107.36c4.07-.43,8.41-.69,12.3-.83V94.38c-8.2.13-18.32.49-27.66,1.23C37.94,97.67,33.15,101.85,30,120.3m188.08,42.55h36.77v15.86H195.32a45.08,45.08,0,0,1-.46-6.69c0-31.48,37.7-31.13,37.7-47.69,0-5.17-5.4-7.64-11.86-7.64-6.81,0-14,2.7-20.67,6.46l-5.76-14.8a54.59,54.59,0,0,1,29.83-9.16c16.45,0,31,6.82,31,23.26,0,24.9-34.07,30.42-37,40.4"/></g></g></g></g></svg>