<svg xmlns="http://www.w3.org/2000/svg" xmlns:xlink="http://www.w3.org/1999/xlink" viewBox="0 0 283.46 283.46"><defs><style>.cls-1{fill:url(#linear-gradient);}.cls-2{fill:#fff;}</style><linearGradient id="linear-gradient" x1="141.73" y1="283.46" x2="141.73" gradientUnits="userSpaceOnUse"><stop offset="0" stop-color="#254aa5"/><stop offset="1" stop-color="#66cef5"/></linearGradient></defs><title>ct24</title><g id="Layer_2" data-name="Layer 2"><g id="Česká_televize" data-name="Česká televize"><g id="ct24"><rect class="cls-1" width="283.46" height="283.46"/><g id="logo-2" data-name="logo"><path class="cls-2" d="M93.34,118.51c2.55.1,5.41.27,8.12.56,9.44,1,11.2,3.07,12.33,12.14a85.33,85.33,0,0,1,.63,10.52,84.94,84.94,0,0,1-.63,10.52c-1.13,9.07-2.89,11.15-12.33,12.14-2.71.29-5.57.46-8.12.56v8c5.39-.09,12.07-.33,18.22-.82,17-1.35,20.12-4.11,22.18-16.29a90.12,90.12,0,0,0,0-28.24c-2.05-12.17-5.21-14.94-22.18-16.29-6.15-.51-12.83-.73-18.22-.83Z"/><path class="cls-2" d="M65.81,111.33c-17,1.35-20.1,4.11-22.16,16.29a88.78,88.78,0,0,0,0,28.24c2.05,12.18,5.21,14.93,22.16,16.29,6.18.5,12.83.74,18.25.82v-8c-2.59-.1-5.45-.27-8.12-.56-9.45-1-11.22-3.07-12.38-12.14a92.64,92.64,0,0,1,0-21c1.16-9.07,2.93-11.13,12.38-12.14,2.67-.29,5.53-.46,8.12-.56v-8c-5.43.1-12.07.34-18.25.83"/><path class="cls-2" d="M152,119.72l3.78,9.75c4.42-2.46,9.14-4.25,13.63-4.25,4.26,0,7.83,1.64,7.83,5,0,10.91-24.88,10.69-24.88,31.45a30.93,30.93,0,0,0,.31,4.42h39.28V155.67H167.66c1.94-6.59,24.4-10.24,24.4-26.66,0-10.84-9.59-15.34-20.45-15.34A35.86,35.86,0,0,0,152,119.72"/><path class="cls-2" d="M218.55,114.85,195.17,145v10.45h25.41v10.71h14.32V155.42h6.05V145h-6.05V114.85Zm1.72,13.84h.3V145H209.35v-.3Z"/></g></g></g></g></svg>