<svg xmlns="http://www.w3.org/2000/svg" xmlns:xlink="http://www.w3.org/1999/xlink" viewBox="0 0 283.46 283.46"><defs><style>.cls-1{fill:url(#linear-gradient);}.cls-2{fill:#fff;}</style><linearGradient id="linear-gradient" x1="141.73" y1="283.46" x2="141.73" gradientUnits="userSpaceOnUse"><stop offset="0" stop-color="#254aa5"/><stop offset="1" stop-color="#66cef5"/></linearGradient></defs><g id="Layer_2" data-name="Layer 2"><g id="Česká_televize" data-name="Česká televize"><g id="ct24"><rect class="cls-1" width="283.46" height="283.46"/><g id="logo-2" data-name="logo"><path class="cls-2" d="M93.34,118.51c2.56.1,5.42.27,8.12.56,9.44,1,11.2,3.07,12.33,12.14a84.54,84.54,0,0,1,.63,10.52,84.22,84.22,0,0,1-.63,10.52c-1.13,9.07-2.89,11.14-12.33,12.14-2.7.29-5.56.45-8.12.55v8c5.4-.08,12.08-.32,18.22-.82,17-1.35,20.13-4.11,22.18-16.28a90.36,90.36,0,0,0,0-28.24c-2.05-12.18-5.21-14.94-22.18-16.29-6.14-.51-12.82-.73-18.22-.83Z"/><path class="cls-2" d="M65.81,111.33c-17,1.35-20.11,4.11-22.16,16.29a88.78,88.78,0,0,0,0,28.24c2.05,12.17,5.21,14.93,22.16,16.28,6.18.5,12.82.74,18.25.82v-8c-2.58-.1-5.44-.26-8.11-.55-9.46-1-11.22-3.07-12.38-12.14a92.53,92.53,0,0,1,0-21c1.16-9.07,2.92-11.13,12.38-12.14,2.67-.29,5.53-.46,8.11-.56v-8c-5.43.1-12.07.34-18.25.83"/><path class="cls-2" d="M152,119.72l3.79,9.75c4.41-2.46,9.14-4.25,13.63-4.25,4.26,0,7.82,1.64,7.82,5,0,10.91-24.88,10.69-24.88,31.45a31.43,31.43,0,0,0,.31,4.42h39.28V155.67H167.66c1.94-6.59,24.41-10.23,24.41-26.66,0-10.84-9.6-15.34-20.45-15.34a35.89,35.89,0,0,0-19.66,6"/><path class="cls-2" d="M218.55,114.85,195.17,145v10.45h25.41v10.71h14.31V155.42h6.05V145h-6.05V114.85Zm1.72,13.84h.31V145H209.35v-.31Z"/></g></g></g></g></svg>