<svg xmlns="http://www.w3.org/2000/svg" viewBox="0 0 283.46 283.46"><defs><style>.cls-1{fill:#3cccbf;}.cls-2{fill:#fff;}</style></defs><g id="Layer_2" data-name="Layer 2"><g id="Česká_televize" data-name="Česká televize"><g id="ct3"><rect class="cls-1" width="283.46" height="283.46"/><g id="logo-2" data-name="logo"><path class="cls-2" d="M204.34,133h5.35c6,0,11.15-2.84,11.15-8.09s-5.14-7.64-12.35-7.64a52.75,52.75,0,0,0-18.69,3.49l-1.64-12.56c5.69-3.61,14.65-5.8,23.61-5.8,14.31,0,27.32,6.67,27.32,20.22a16.71,16.71,0,0,1-10.17,15.85v.43c8.53,3.17,12,10.17,12,17.27,0,14.42-13.87,21.86-29.39,21.86a59.76,59.76,0,0,1-24.37-5.69l1.64-12.67a63.25,63.25,0,0,0,19.89,3.49c7.43,0,13.88-2.84,13.88-9.29,0-5-5.25-8.3-12.68-8.3h-5.57Zm-34.64,8.73a123.35,123.35,0,0,0-1.53-19.46c-2.83-16.77-7.19-20.56-30.54-22.43-8.49-.68-17.67-1-25.12-1.13v11c3.53.13,7.47.36,11.17.76,13,1.39,15.45,4.21,17,16.72a122.17,122.17,0,0,1,.86,14.51,122,122,0,0,1-.86,14.49c-1.57,12.5-4,15.32-17,16.72-3.7.39-7.64.63-11.17.76v11c7.45-.12,16.63-.45,25.12-1.13,23.35-1.87,27.71-5.66,30.54-22.43a123.35,123.35,0,0,0,1.53-19.46M74.59,99.84c-23.35,1.87-27.71,5.66-30.54,22.43a124.52,124.52,0,0,0,0,38.92c2.83,16.77,7.19,20.56,30.54,22.43,8.48.68,17.67,1,25.13,1.13v-11c-3.54-.13-7.48-.37-11.18-.76-13-1.4-15.45-4.22-17-16.72a124.1,124.1,0,0,1,0-29c1.58-12.51,4-15.33,17-16.72,3.7-.4,7.64-.63,11.18-.76v-11c-7.46.12-16.65.45-25.13,1.13M204.34,133h5.35c6,0,11.15-2.84,11.15-8.08s-5.14-7.65-12.35-7.65a52.75,52.75,0,0,0-18.69,3.49l-1.64-12.56c5.69-3.61,14.65-5.8,23.61-5.8,14.31,0,27.32,6.67,27.32,20.22a16.71,16.71,0,0,1-10.17,15.85v.43c8.53,3.17,12,10.17,12,17.27,0,14.42-13.87,21.86-29.39,21.86a59.76,59.76,0,0,1-24.37-5.69l1.64-12.67a63.25,63.25,0,0,0,19.89,3.49c7.43,0,13.88-2.84,13.88-9.29,0-5-5.25-8.3-12.68-8.3h-5.57Z"/></g></g></g></g></svg>