<svg xmlns="http://www.w3.org/2000/svg" viewBox="0 0 283.46 283.46"><defs><style>.cls-1{fill:#a9a9a8;}.cls-2{fill:#fff;}</style></defs><g id="Layer_2" data-name="Layer 2"><g id="Česká_televize" data-name="Česká televize"><g id="ctart"><rect class="cls-1" width="283.46" height="283.46"/><g id="logo-2" data-name="logo"><path class="cls-2" d="M43.62,127.66a90.47,90.47,0,0,0,0,28.13c2.06,12.12,5.2,14.87,22.08,16.21,6.13.5,12.77.73,18.15.82v-8c-2.55-.09-5.4-.26-8.07-.55-9.41-1-11.17-3-12.3-12.09a88.8,88.8,0,0,1,0-20.95c1.13-9,2.89-11.08,12.3-12.08,2.67-.29,5.52-.46,8.07-.55v-8c-5.38.09-12,.33-18.15.81-16.88,1.35-20,4.09-22.08,16.21"/><path class="cls-2" d="M111.26,111.45c-6.13-.48-12.77-.73-18.15-.81v8c2.54.09,5.4.26,8.07.54,9.41,1,11.17,3,12.31,12.09a90.33,90.33,0,0,1,0,21c-1.14,9-2.9,11.08-12.31,12.08-2.67.29-5.53.46-8.07.55v8c5.38-.08,12-.32,18.15-.81,16.88-1.36,20-4.09,22.08-16.22a91.29,91.29,0,0,0,0-28.13c-2.05-12.11-5.2-14.85-22.08-16.21"/><path class="cls-2" d="M240.09,149.19c-5,.85-7.1.12-7.1-2.63V132.84h7.34v-8H233v-7.83H223.2L222,124.88l-4.89.62v7.34H222v14.94c0,11.45,10.23,12.18,19,9.18l-.85-7.77Z"/><path class="cls-2" d="M201,129.72l-.79-4.84H189.75v32.7h11V139.09c3.25-4.23,6.36-5.57,12.49-4.84l.86-10.16c-6-.54-11.21,2-13.17,5.63"/><path class="cls-2" d="M167.37,124c-5.26,0-10.83,1.22-14.62,3.37l.85,7.71a34.62,34.62,0,0,1,11.94-2.21c3.55,0,5.69,1.11,5.69,3.68v1c-10.29-2.33-20.63.68-20.63,10.77,0,6,4.59,10.16,10.47,10.16a14.61,14.61,0,0,0,10.16-3.61l.62,2.7h10.4V135.41c0-8.56-7.1-11.44-14.88-11.44m3.86,24a7.83,7.83,0,0,1-5.39,2.63c-2.2,0-3.92-1-3.92-3,0-3,3.13-4.59,9.31-3.13V148Z"/></g></g></g></g></svg>