<svg xmlns="http://www.w3.org/2000/svg" viewBox="0 0 283.46 283.46"><defs><style>.cls-1{fill:#a9a9a8;}.cls-2{fill:#fff;}</style></defs><title>ctart</title><g id="Layer_2" data-name="Layer 2"><g id="Česká_televize" data-name="Česká televize"><g id="ctart"><rect class="cls-1" width="283.46" height="283.46"/><g id="logo-2" data-name="logo"><path class="cls-2" d="M43.62,127.66a90.06,90.06,0,0,0,0,28.13c2.05,12.11,5.2,14.86,22.08,16.21,6.13.49,12.77.73,18.15.82v-8c-2.55-.09-5.4-.26-8.07-.54-9.41-1-11.17-3-12.31-12.09a88.92,88.92,0,0,1,0-21c1.14-9,2.9-11.08,12.31-12.08,2.67-.28,5.52-.45,8.07-.54v-8c-5.38.08-12,.33-18.15.81-16.88,1.35-20,4.09-22.08,16.21"/><path class="cls-2" d="M111.26,111.45c-6.13-.49-12.77-.73-18.15-.81v8c2.55.09,5.4.26,8.07.54,9.41,1,11.17,3,12.31,12.09a90.12,90.12,0,0,1,0,21c-1.14,9-2.9,11.08-12.31,12.08-2.67.28-5.53.46-8.07.55v8c5.38-.08,12-.33,18.15-.81,16.88-1.36,20-4.09,22.08-16.22a90.74,90.74,0,0,0,0-28.13c-2.05-12.11-5.2-14.85-22.08-16.21"/><path class="cls-2" d="M240.09,149.19c-5,.85-7.1.13-7.1-2.63V132.84h7.34v-8H233v-7.83h-9.8L222,124.88l-4.9.62v7.34H222v14.94c0,11.45,10.22,12.18,19,9.18l-.85-7.78Z"/><path class="cls-2" d="M201,129.72l-.8-4.84H189.75v32.69h11V139.09c3.25-4.23,6.36-5.58,12.49-4.84l.85-10.16c-6-.54-11.2,2-13.16,5.63"/><path class="cls-2" d="M167.37,124c-5.27,0-10.83,1.22-14.63,3.37l.85,7.71a34.61,34.61,0,0,1,11.94-2.2c3.55,0,5.69,1.11,5.69,3.68v1c-10.29-2.33-20.63.68-20.63,10.78,0,6,4.59,10.16,10.47,10.16a14.65,14.65,0,0,0,10.16-3.61l.61,2.7h10.41V135.41c0-8.57-7.1-11.45-14.88-11.45m3.86,24a7.85,7.85,0,0,1-5.39,2.63c-2.2,0-3.92-1-3.92-3,0-3,3.12-4.59,9.31-3.12V148Z"/></g></g></g></g></svg>