<svg xmlns="http://www.w3.org/2000/svg" viewBox="0 0 283.47 283.46"><defs><style>.cls-1{fill:#0178ff;}.cls-2{fill:#3c0;}.cls-3{fill:#fea401;}.cls-4{fill:#ff6400;}.cls-5{fill:#ed1d24;}.cls-6{fill:#fff;}</style></defs><title>ctd</title><g id="Layer_2" data-name="Layer 2"><g id="Česká_televize" data-name="Česká televize"><g id="ctd"><rect class="cls-1" width="283.46" height="56.69"/><rect class="cls-2" y="56.69" width="283.46" height="56.69"/><rect class="cls-3" y="113.39" width="283.46" height="56.69"/><rect class="cls-4" y="170.08" width="283.46" height="56.69"/><rect class="cls-5" y="226.77" width="283.46" height="56.69"/><g id="logo-2" data-name="logo"><path class="cls-6" d="M179.12,121.43c-.79-3.26-2.71-5.52-8.69-5.52-5.74,0-8,2.16-8.52,5.52a18.9,18.9,0,0,0-.21,2.63c0,4.32,1.54,7.55,8.83,7.55,7.06,0,8.81-2.86,8.81-7.74A11.32,11.32,0,0,0,179.12,121.43Z"/><path class="cls-6" d="M170.33,149.15c-6.46,0-8.63,3-8.63,7.86a8.58,8.58,0,0,0,1.18,5c1.29,1.84,3.26,2.85,7.62,2.85,4.74,0,6.58-1.33,7.64-2.85a8.45,8.45,0,0,0,1.27-5.07C179.41,151.9,177.12,149.15,170.33,149.15Z"/><path class="cls-6" d="M240.48,135a25.58,25.58,0,0,0-6.32-13.58c-5.45-5.31-12.47-8.78-24.58-8.78H189v55.47h21.88c8.39,0,15.31-2.33,20.38-6.08,4.27-3.62,7.19-7.27,8.76-13.58a38.6,38.6,0,0,0,.94-8.31A29.2,29.2,0,0,0,240.48,135Zm-31.25,21.53H204.9V124.35H210c8.52,0,12.46,4.33,14,10.65a25,25,0,0,1,.59,5.59,20.58,20.58,0,0,1-1.4,7.87C221,154,216.43,156.54,209.23,156.54Z"/><path class="cls-6" d="M43.73,126.39a98.25,98.25,0,0,0,0,30.69c2.24,13.22,5.67,16.21,24.08,17.68,6.69.54,13.93.79,19.8.9v-8.71c-2.79-.1-5.89-.28-8.8-.59-10.27-1.1-12.18-3.32-13.43-13.19a97,97,0,0,1,0-22.86c1.24-9.85,3.16-12.08,13.43-13.18,2.91-.31,6-.49,8.8-.59v-8.7c-5.87.09-13.12.36-19.8.89C49.4,110.17,46,113.16,43.73,126.38"/><path class="cls-6" d="M117.51,108.7c-6.69-.53-13.93-.79-19.8-.89v8.7c2.78.1,5.89.28,8.8.59,10.27,1.1,12.18,3.32,13.43,13.19a98.31,98.31,0,0,1,0,22.86c-1.24,9.85-3.16,12.08-13.43,13.18-2.91.31-6,.5-8.8.6v8.7c5.87-.09,13.12-.36,19.8-.89,18.41-1.48,21.85-4.47,24.08-17.69a99,99,0,0,0,0-30.69c-2.24-13.22-5.67-16.2-24.08-17.68"/></g></g></g></g></svg>