<svg xmlns="http://www.w3.org/2000/svg" viewBox="0 0 283.47 283.46"><defs><style>.cls-1{fill:#0178ff;}.cls-2{fill:#3c0;}.cls-3{fill:#fea401;}.cls-4{fill:#ff6400;}.cls-5{fill:#ed1d24;}.cls-6{fill:#a9a9a8;}.cls-7{fill:#fff;}</style></defs><title>ctd_ctart</title><g id="Layer_2" data-name="Layer 2"><g id="Česká_televize" data-name="Česká televize"><g id="ctd_ctart"><rect class="cls-1" width="283.46" height="56.69"/><rect class="cls-2" y="56.69" width="283.46" height="56.69"/><rect class="cls-3" y="113.39" width="283.46" height="56.69"/><rect class="cls-4" y="170.08" width="283.46" height="56.69"/><rect class="cls-5" y="226.77" width="283.46" height="56.69"/><polygon class="cls-6" points="283.47 283.46 0 283.46 283.47 0 283.47 283.46"/><g id="logo-2" data-name="logo"><path class="cls-7" d="M59.94,51.3c-.79-3.26-2.71-5.52-8.69-5.52-5.74,0-8,2.16-8.52,5.52a18.9,18.9,0,0,0-.21,2.63c0,4.32,1.54,7.55,8.83,7.55,7.06,0,8.81-2.86,8.81-7.74A11.32,11.32,0,0,0,59.94,51.3Z"/><path class="cls-7" d="M51.15,79c-6.46,0-8.63,3-8.63,7.86a8.58,8.58,0,0,0,1.18,5C45,93.75,47,94.76,51.33,94.76c4.74,0,6.58-1.33,7.64-2.85a8.45,8.45,0,0,0,1.27-5.07C60.23,81.77,57.93,79,51.15,79Z"/><path class="cls-7" d="M121.3,64.87A25.58,25.58,0,0,0,115,51.3c-5.45-5.31-12.47-8.78-24.58-8.78H69.8V98H91.69c8.39,0,15.31-2.33,20.38-6.08,4.27-3.62,7.19-7.27,8.76-13.58a38.6,38.6,0,0,0,.94-8.31A29.2,29.2,0,0,0,121.3,64.87ZM90,86.41H85.72V54.22H90.8c8.52,0,12.46,4.33,14,10.65a25,25,0,0,1,.59,5.59,20.58,20.58,0,0,1-1.4,7.87C101.83,83.87,97.24,86.41,90,86.41Z"/><path class="cls-7" d="M96.88,127.65a90.06,90.06,0,0,0,0,28.13c2.05,12.11,5.2,14.86,22.08,16.21,6.13.49,12.77.73,18.15.82v-8c-2.55-.09-5.4-.26-8.07-.54-9.41-1-11.17-3-12.31-12.09a88.92,88.92,0,0,1,0-21c1.14-9,2.9-11.08,12.31-12.08,2.67-.28,5.52-.45,8.07-.54v-8c-5.38.08-12,.33-18.15.81-16.88,1.35-20,4.09-22.08,16.21"/><path class="cls-7" d="M164.52,111.44c-6.13-.49-12.77-.73-18.15-.81v8c2.55.09,5.4.26,8.07.54,9.41,1,11.17,3,12.31,12.09a90.12,90.12,0,0,1,0,21c-1.14,9-2.9,11.08-12.31,12.08-2.67.28-5.53.46-8.07.55v8c5.38-.08,12-.33,18.15-.81,16.88-1.36,20-4.09,22.08-16.22a90.74,90.74,0,0,0,0-28.13c-2.05-12.11-5.2-14.85-22.08-16.21"/><path class="cls-7" d="M240.09,231.64c-5,.85-7.1.13-7.1-2.63V215.3h7.34v-8H233v-7.83h-9.8L222,207.34l-4.9.62v7.34H222v14.94c0,11.45,10.22,12.18,19,9.18l-.85-7.78Z"/><path class="cls-7" d="M201,212.18l-.8-4.84H189.75V240h11V221.55c3.25-4.23,6.36-5.58,12.49-4.84l.85-10.16c-6-.54-11.2,2-13.16,5.63"/><path class="cls-7" d="M167.38,206.42c-5.27,0-10.83,1.22-14.63,3.37l.85,7.71a34.61,34.61,0,0,1,11.94-2.2c3.55,0,5.69,1.11,5.69,3.68v1c-10.29-2.33-20.63.68-20.63,10.78,0,6,4.59,10.16,10.47,10.16a14.65,14.65,0,0,0,10.16-3.61l.61,2.7h10.41V217.87c0-8.57-7.1-11.45-14.88-11.45m3.86,24a7.85,7.85,0,0,1-5.39,2.63c-2.2,0-3.92-1-3.92-3,0-3,3.12-4.59,9.31-3.12v3.49Z"/></g></g></g></g></svg>