<svg xmlns="http://www.w3.org/2000/svg" viewBox="0 0 283.47 283.46"><defs><style>.cls-1{fill:#0178ff;}.cls-2{fill:#3c0;}.cls-3{fill:#fea401;}.cls-4{fill:#ff6400;}.cls-5{fill:#ed1d24;}.cls-6{fill:#a9a9a8;}.cls-7{fill:#fff;}</style></defs><g id="Layer_2" data-name="Layer 2"><g id="Česká_televize" data-name="Česká televize"><g id="ctd_ctart"><rect class="cls-1" width="283.46" height="56.69"/><rect class="cls-2" y="56.69" width="283.46" height="56.69"/><rect class="cls-3" y="113.39" width="283.46" height="56.69"/><rect class="cls-4" y="170.08" width="283.46" height="56.69"/><rect class="cls-5" y="226.77" width="283.46" height="56.69"/><polygon class="cls-6" points="283.47 283.46 0 283.46 283.47 0 283.47 283.46"/><g id="logo-2" data-name="logo"><path class="cls-7" d="M59.94,51.3c-.79-3.27-2.71-5.52-8.69-5.52-5.74,0-8,2.15-8.52,5.52a18.65,18.65,0,0,0-.21,2.63c0,4.32,1.54,7.55,8.84,7.55,7,0,8.81-2.86,8.81-7.74A11.18,11.18,0,0,0,59.94,51.3Z"/><path class="cls-7" d="M51.15,79c-6.46,0-8.63,3-8.63,7.87a8.57,8.57,0,0,0,1.19,5C45,93.75,47,94.76,51.33,94.76c4.74,0,6.57-1.33,7.63-2.85a8.43,8.43,0,0,0,1.27-5.07C60.23,81.77,57.93,79,51.15,79Z"/><path class="cls-7" d="M121.3,64.87A25.59,25.59,0,0,0,115,51.3c-5.45-5.31-12.47-8.78-24.58-8.78H69.8V98H91.69c8.39,0,15.31-2.33,20.37-6.08,4.27-3.62,7.2-7.27,8.77-13.58a38.85,38.85,0,0,0,.93-8.31A29.69,29.69,0,0,0,121.3,64.87ZM90.05,86.41H85.72V54.22H90.8c8.52,0,12.45,4.33,14,10.65a24.7,24.7,0,0,1,.59,5.59,20.74,20.74,0,0,1-1.4,7.87C101.83,83.87,97.24,86.41,90.05,86.41Z"/><path class="cls-7" d="M96.88,127.65a90.47,90.47,0,0,0,0,28.13c2.05,12.12,5.2,14.86,22.08,16.21,6.13.49,12.77.73,18.15.82v-8c-2.55-.09-5.4-.26-8.07-.54-9.41-1-11.17-3.05-12.31-12.09a88.88,88.88,0,0,1,0-21c1.14-9,2.9-11.07,12.31-12.08,2.67-.28,5.52-.45,8.07-.54v-8c-5.38.08-12,.32-18.15.81-16.88,1.35-20,4.09-22.08,16.21"/><path class="cls-7" d="M164.52,111.44c-6.13-.49-12.77-.73-18.16-.81v8c2.55.09,5.4.25,8.08.54,9.41,1,11.16,3,12.3,12.09a90.33,90.33,0,0,1,0,21c-1.14,9-2.89,11.07-12.3,12.08-2.68.28-5.53.46-8.08.55v8c5.39-.09,12-.33,18.16-.81,16.87-1.36,20-4.1,22.07-16.22a90.47,90.47,0,0,0,0-28.13c-2.05-12.12-5.2-14.86-22.07-16.21"/><path class="cls-7" d="M240.09,231.64c-5,.85-7.1.13-7.1-2.63V215.3h7.35v-8H233v-7.83H223.2L222,207.34l-4.9.61v7.35H222v14.93c0,11.45,10.22,12.19,19,9.19l-.86-7.78Z"/><path class="cls-7" d="M201,212.18l-.8-4.84H189.75V240h11V221.55c3.25-4.23,6.37-5.58,12.49-4.84l.86-10.17c-6-.54-11.2,2-13.16,5.64"/><path class="cls-7" d="M167.38,206.42c-5.27,0-10.84,1.23-14.63,3.37l.85,7.71a34.58,34.58,0,0,1,11.94-2.2c3.55,0,5.7,1.1,5.7,3.67v1c-10.29-2.33-20.63.68-20.63,10.78,0,6,4.58,10.15,10.46,10.15a14.66,14.66,0,0,0,10.17-3.61l.61,2.7h10.4V217.87c0-8.57-7.1-11.45-14.87-11.45m3.86,24a7.92,7.92,0,0,1-5.4,2.63c-2.2,0-3.91-1-3.91-3,0-3,3.12-4.59,9.31-3.12v3.49Z"/></g></g></g></g></svg>