<svg xmlns="http://www.w3.org/2000/svg" viewBox="0 0 283.46 283.46"><defs><style>.cls-1{fill:#3c0;}.cls-2{fill:#fff;}</style></defs><title>ctsport</title><g id="Layer_2" data-name="Layer 2"><g id="Česká_televize" data-name="Česká televize"><g id="ctsport"><rect class="cls-1" width="283.46" height="283.46"/><g id="logo-2" data-name="logo"><path class="cls-2" d="M59.22,119.91c4.42-.35,9.21-.52,13.09-.59v5.75c-1.84.07-3.9.19-5.82.4-6.78.72-8,2.19-8.87,8.71a64.31,64.31,0,0,0,0,15.1c.82,6.51,2.09,8,8.87,8.7,1.93.21,4,.33,5.82.4v5.75c-3.88-.06-8.67-.23-13.09-.59-12.17-1-14.43-2.94-15.91-11.68a63.54,63.54,0,0,1-.8-10.13,64.27,64.27,0,0,1,.79-10.14c1.48-8.73,3.75-10.71,15.91-11.68"/><path class="cls-2" d="M108.76,141.73a64,64,0,0,1-.8,10.14c-1.47,8.73-3.74,10.71-15.91,11.68-4.42.35-9.2.53-13.08.59v-5.75c1.84-.07,3.89-.19,5.82-.4,6.79-.72,8-2.2,8.87-8.7a64.14,64.14,0,0,0,0-15.1c-.82-6.51-2.08-8-8.87-8.71-1.92-.21-4-.33-5.82-.39v-5.75c3.88.06,8.66.23,13.08.59,12.16,1,14.43,2.95,15.91,11.68a64,64,0,0,1,.8,10.14"/><path class="cls-2" d="M120.92,137.31c0-6.4,5.44-8.39,11.44-8.39a23.39,23.39,0,0,1,9.2,1.81l-1.15,5.34a31.44,31.44,0,0,0-8.3-1.37c-2.6,0-3.18.71-3.18,1.59,0,2.61,12.2.4,12.2,9.14,0,6.05-5.48,8.39-11.44,8.39A26.31,26.31,0,0,1,119.6,152l1.15-5.34a32.15,32.15,0,0,0,9.19,1.37c2.47,0,3.18-.49,3.18-1.59,0-2.6-12.2-.4-12.2-9.14"/><path class="cls-2" d="M161.66,128.92a11.59,11.59,0,0,0-7.11,2.61l-.27-1.94h-7.52l-3.35,31.94h8l1-9.19a12.07,12.07,0,0,0,6.23,1.5c5.83,0,12.59-4.59,12.59-14C171.16,132.49,166.65,128.92,161.66,128.92ZM158,135.36c2.61,0,4.73,1.59,4.73,5.17,0,4.77-2.87,6.85-6,6.85a7,7,0,0,1-3.76-1.15l1-9.72A8,8,0,0,1,158,135.36Z"/><path class="cls-2" d="M188.71,128.92c-8.75,0-14.63,5.83-14.63,13.74,0,6.54,4.47,11.17,12,11.17,8.79,0,14.62-5.83,14.62-13.74C200.68,133.55,196.22,128.92,188.71,128.92ZM188,135.1c2.51,0,4.19,2.26,4.19,5.48,0,4.06-2.47,7.06-5.52,7.06-2.52,0-4.2-2.25-4.19-5.48,0-4.06,2.47-7.07,5.52-7.07Z"/><path class="cls-2" d="M222.28,136.34a17.88,17.88,0,0,0-2.08-.13c-3.13,0-5.13,1.1-7.33,3.62l-1.37,13.34h-8L206,129.58h7.51l.18,3.49c1.59-2.52,5.43-4.37,9.36-4.11Z"/><path class="cls-2" d="M234.32,129.58h6.63l-.62,5.74H233.7l-1,9.5c-.26,2.69,2.82,2.92,6.54,2.3v5.61c-6.89,2.17-15.51,1.63-14.63-6.63L227,123.92h7.91Z"/></g></g></g></g></svg>