<svg xmlns="http://www.w3.org/2000/svg" viewBox="0 0 283.46 283.46"><defs><style>.cls-1{fill:#3c0;}.cls-2{fill:#fff;}</style></defs><g id="Layer_2" data-name="Layer 2"><g id="Česká_televize" data-name="Česká televize"><g id="ctsport"><rect class="cls-1" width="283.46" height="283.46"/><g id="logo-2" data-name="logo"><path class="cls-2" d="M59.22,119.91c4.43-.35,9.21-.52,13.09-.58v5.75c-1.84.06-3.9.19-5.82.39-6.78.73-8,2.2-8.87,8.71a65,65,0,0,0,0,15.1c.82,6.51,2.09,8,8.87,8.71,1.93.2,4,.33,5.83.39v5.75c-3.89-.06-8.67-.23-13.09-.59-12.17-1-14.43-2.94-15.91-11.68a63.54,63.54,0,0,1-.8-10.13,64.6,64.6,0,0,1,.79-10.13c1.48-8.74,3.75-10.71,15.91-11.69"/><path class="cls-2" d="M108.76,141.73a64.8,64.8,0,0,1-.79,10.14c-1.48,8.73-3.75,10.71-15.91,11.68-4.42.35-9.21.52-13.09.59v-5.75c1.84-.07,3.9-.19,5.82-.4,6.79-.72,8-2.2,8.87-8.71a64.21,64.21,0,0,0,.45-7.54,64.65,64.65,0,0,0-.45-7.56c-.82-6.51-2.08-8-8.87-8.71-1.92-.2-4-.33-5.82-.39v-5.75c3.88.06,8.67.23,13.09.58,12.16,1,14.43,3,15.91,11.69a64.6,64.6,0,0,1,.79,10.13"/><path class="cls-2" d="M120.92,137.31c0-6.41,5.44-8.39,11.44-8.39a23.3,23.3,0,0,1,9.2,1.81l-1.15,5.34a31.4,31.4,0,0,0-8.31-1.37c-2.6,0-3.18.71-3.18,1.59,0,2.61,12.2.4,12.2,9.15,0,6.05-5.48,8.39-11.45,8.39A26.3,26.3,0,0,1,119.6,152l1.15-5.35a32.12,32.12,0,0,0,9.19,1.37c2.47,0,3.18-.48,3.18-1.59,0-2.6-12.2-.4-12.2-9.14"/><path class="cls-2" d="M161.66,128.92a11.62,11.62,0,0,0-7.11,2.6l-.27-1.94h-7.51l-3.36,31.94h8l1-9.19a12.13,12.13,0,0,0,6.23,1.5c5.83,0,12.59-4.6,12.59-14.05C171.16,132.49,166.65,128.92,161.66,128.92ZM158,135.36c2.6,0,4.72,1.59,4.72,5.17,0,4.77-2.87,6.85-6,6.85a6.91,6.91,0,0,1-3.75-1.15l1-9.72A8.06,8.06,0,0,1,158,135.36Z"/><path class="cls-2" d="M188.71,128.92c-8.75,0-14.63,5.83-14.63,13.74,0,6.53,4.47,11.17,12,11.17,8.79,0,14.62-5.83,14.62-13.74C200.68,133.55,196.22,128.92,188.71,128.92Zm-.66,6.18c2.51,0,4.19,2.26,4.19,5.48,0,4.06-2.47,7.06-5.52,7.06-2.52,0-4.2-2.25-4.19-5.47,0-4.07,2.47-7.07,5.52-7.07Z"/><path class="cls-2" d="M222.28,136.34a17.53,17.53,0,0,0-2.07-.13c-3.14,0-5.13,1.1-7.34,3.62l-1.37,13.34h-7.95L206,129.58h7.51l.18,3.48c1.59-2.51,5.44-4.37,9.36-4.1Z"/><path class="cls-2" d="M234.32,129.58h6.62l-.61,5.74H233.7l-1,9.5c-.26,2.69,2.82,2.92,6.54,2.3v5.61c-6.9,2.16-15.51,1.63-14.63-6.63L227,123.92h7.91Z"/></g></g></g></g></svg>