<?xml version="1.0" standalone="yes"?>
<svg xmlns="http://www.w3.org/2000/svg" width="1024" height="1024">
<path style="fill:#07e92f; stroke:none;" d="M0 0L0 1024L1024 1024L1024 0L0 0z"/>
<path style="fill:#ffffff; stroke:none;" d="M157 519C162.509 515.658 166.105 508.28 169.67 503C176.715 492.566 184.061 482.314 191.28 472C194.915 466.807 198.77 458.43 205.015 456.025C213.579 452.727 218.073 463.225 221.424 469C231.659 486.635 241.644 504.439 252 522C261.125 518.899 267.734 510.271 277 506.616C293.601 500.067 311.025 502.822 326 512.065C332.869 516.304 338.597 522.866 346 526C346.508 501.4 345.821 479.584 331.91 458C299.785 408.153 224.533 399.542 183.09 443.015C162.37 464.748 157 490.101 157 519z"/>
<path style="fill:#07e931; stroke:none;" d="M270 416L271 417L270 416M218 420L219 421L218 420z"/>
<path style="fill:#ffffff; stroke:none;" d="M655 421.529C630.194 427.254 640.307 464.163 665 458.606C688.612 453.294 678.701 416.06 655 421.529M468 426L468 474C460.724 468.453 452.225 465.099 443 465.004C434.985 464.921 427.017 466.701 420 470.677C394.415 485.175 388.243 524.131 404.105 548C418.532 569.709 450.16 575.808 470 558L470 567L501 567L501 426L468 426z"/>
<path style="fill:#07e931; stroke:none;" d="M304 430L305 431L304 430z"/>
<path style="fill:#b7f3b9; stroke:none;" d="M312 436L313 437L312 436z"/>
<path style="fill:#07e931; stroke:none;" d="M678 443L679 444L678 443z"/>
<path style="fill:#ffffff; stroke:none;" d="M701 444L701 468L692 468L692 497L701 497L701 566L750 566L750 537L734 537L734 497L753 497L753 468L734 468L734 444L701 444z"/>
<path style="fill:#07e931; stroke:none;" d="M179 447L180 448L179 447M676 449L677 450L676 449z"/>
<path style="fill:#b7f3b9; stroke:none;" d="M328 453L329 454L328 453M645 453L646 454L645 453M215 458L216 459L215 458z"/>
<path style="fill:#07e931; stroke:none;" d="M218 463L219 464L218 463M195 465L196 466L195 465z"/>
<path style="fill:#ffffff; stroke:none;" d="M590 559C590.153 571.937 612.305 567 622 567L622 468C613.264 468 590.381 463.409 590 475C584.34 470.188 578.302 467.259 571 465.808C564.701 464.556 558.242 464.766 552 466.236C496.934 479.203 508.404 576.891 567 568.572C575.65 567.344 583.05 564.3 590 559M807 465.428C761.711 471.931 744.22 533.411 784 559.895C796.133 567.973 810.904 569.924 825 567.725C858.536 562.494 876.822 524.235 862.677 494C852.924 473.154 829.419 462.209 807 465.428z"/>
<path style="fill:#07e931; stroke:none;" d="M453 466L454 467L453 466z"/>
<path style="fill:#ffffff; stroke:none;" d="M643 468L643 579L626 579L626 608L676 608L676 468L643 468z"/>
<path style="fill:#b7f3b9; stroke:none;" d="M834 468L835 469L834 468z"/>
<path style="fill:#07e931; stroke:none;" d="M338 470L339 471L338 470z"/>
<path style="fill:#ffffff; stroke:none;" d="M206 484C197.67 498.963 186.694 512.898 176.975 527C173.258 532.392 166.106 539.416 164.915 546C162.919 557.042 180.061 573.337 187 579.961C218.912 610.425 270.067 612.582 306 588.329C316.983 580.915 325.953 571.252 332.934 560C335.079 556.543 338.982 551.245 337.353 547C328.516 523.962 293.546 515.99 275 529.761C268.616 534.501 258.039 552.427 249.001 549.242C242.095 546.809 238.655 537.8 235.201 532C226.607 517.57 218.781 494.875 206 484z"/>
<path style="fill:#07e931; stroke:none;" d="M179 488L180 489L179 488z"/>
<path style="fill:#b7f3b9; stroke:none;" d="M344 488L345 489L344 488z"/>
<path style="fill:#07e931; stroke:none;" d="M767 492L768 493L767 492z"/>
<path style="fill:#07e92f; stroke:none;" d="M445 494.53C419.471 500.308 426.667 544.516 453 538.471C478.361 532.649 471.255 488.587 445 494.53M566 494.529C540.73 500.33 547.88 544.229 574 538.319C599.468 532.556 592.634 488.416 566 494.529M811 494.529C786.021 500.263 792.891 544.646 819 538.468C842.998 532.789 836.598 488.653 811 494.529z"/>
<path style="fill:#07e931; stroke:none;" d="M577 495L578 496L577 495z"/>
<path style="fill:#b7f3b9; stroke:none;" d="M172 498L173 499L172 498z"/>
<path style="fill:#07e931; stroke:none;" d="M309 504L310 505L309 504M467 507L468 508L467 507z"/>
<path style="fill:#b7f3b9; stroke:none;" d="M265 512L266 513L265 512z"/>
<path style="fill:#07e931; stroke:none;" d="M254 521L255 522L254 521z"/>
<path style="fill:#b7f3b9; stroke:none;" d="M341 523L342 524L341 523z"/>
<path style="fill:#07e931; stroke:none;" d="M342 524L343 525L342 524M233 529L234 530L233 529M275 529L276 530L275 529M269 534L270 535L269 534z"/>
<path style="fill:#b7f3b9; stroke:none;" d="M864 534L865 535L864 534M268 535L269 536L268 535z"/>
<path style="fill:#07e931; stroke:none;" d="M563 537L564 538L563 537M810 538L811 539L810 538M862 539L863 540L862 539M520 540L521 541L520 540z"/>
<path style="fill:#b7f3b9; stroke:none;" d="M861 541L862 542L861 541z"/>
<path style="fill:#07e931; stroke:none;" d="M522 544L523 545L522 544z"/>
<path style="fill:#b7f3b9; stroke:none;" d="M164 545L165 546L164 545M259 545L260 546L259 545z"/>
<path style="fill:#07e931; stroke:none;" d="M336 545L337 546L336 545z"/>
<path style="fill:#b7f3b9; stroke:none;" d="M858 546L859 547L858 546z"/>
<path style="fill:#07e931; stroke:none;" d="M254 549L255 550L254 549M777 554L778 555L777 554z"/>
<path style="fill:#b7f3b9; stroke:none;" d="M850 555L851 556L850 555z"/>
<path style="fill:#07e931; stroke:none;" d="M419 562L420 563L419 562M462 563L463 564L462 563M541 563L542 564L541 563M838 563L839 564L838 563z"/>
<path style="fill:#b7f3b9; stroke:none;" d="M327 567L328 568L327 567z"/>
<path style="fill:#07e931; stroke:none;" d="M323 572L324 573L323 572z"/>
<path style="fill:#b7f3b9; stroke:none;" d="M214 597L215 598L214 597M222 600L223 601L222 600M277 601L278 602L277 601z"/>
</svg>
