<svg xmlns="http://www.w3.org/2000/svg" viewBox="0 0 283.46 283.46"><defs><style>.cls-1{fill:#ffc500;}.cls-2{fill:#ff0f00;}</style></defs><g id="Layer_2" data-name="Layer 2"><g id="Slovakia"><g id="dajto"><rect class="cls-1" width="283.46" height="283.46"/><g id="logo"><path id="path3644" d="M72.43,92.86v20.42H42.52v43.77l16,16H88.48V92.86ZM58.57,128.6H73.16v29.91H58.57Z"/><path id="path3654" d="M92.86,113.28V128.6h29.91V133H92.86V173.1h43.77V113.28Zm14.59,32.1h15.32v13.13H107.45Z"/><path id="path3660" d="M141,92.86v16h16.05v-16Zm0,20.42v61.28l16.05,16.05V113.28Z"/><path id="path3664" class="cls-2" d="M161.43,92.86V173.1H192.8V158.51H177.48V129.33H192.8V113.28H177.48V92.86Z"/><path id="path3666" class="cls-2" d="M197.17,113.28V173.1h43.77V127.87l-14.59-14.59Zm14.59,16.05h14.59v29.18H211.76Z"/></g></g></g></g></svg>