<svg xmlns="http://www.w3.org/2000/svg" xmlns:xlink="http://www.w3.org/1999/xlink" viewBox="0 0 283.46 283.46"><defs><style>.cls-1{fill:#1d232f;}.cls-2{fill:#ed0f68;}.cls-3{fill:#fff;}.cls-4{fill:#ef4123;}.cls-5{fill:url(#linear-gradient);}.cls-6{fill:url(#linear-gradient-2);}.cls-7{fill:url(#linear-gradient-3);}</style><linearGradient id="linear-gradient" x1="-148.07" y1="525.96" x2="-148.09" y2="526.85" gradientTransform="matrix(14.03, 0, 0, -29.87, 2147.51, 15868.43)" gradientUnits="userSpaceOnUse"><stop offset="0" stop-color="#ed0f68"/><stop offset="1" stop-color="#ef4123"/></linearGradient><linearGradient id="linear-gradient-2" x1="-152.56" y1="528.98" x2="-152.58" y2="529.88" gradientTransform="matrix(20.32, 0, 0, -40.17, 3176.02, 21400.98)" xlink:href="#linear-gradient"/><linearGradient id="linear-gradient-3" x1="-151.6" y1="528.15" x2="-151.62" y2="529.05" gradientTransform="matrix(18.72, 0, 0, -36.64, 2896.52, 19509.45)" xlink:href="#linear-gradient"/></defs><title>danceradio</title><g id="Layer_2" data-name="Layer 2"><g id="Picons"><g id="danceradio"><rect class="cls-1" width="283.46" height="283.46"/><g id="logo"><path id="RADIO" class="cls-2" d="M238.42,136.46a3.39,3.39,0,0,1-1-.14,2,2,0,0,1-.8-.45,2.11,2.11,0,0,1-.53-.8,3.29,3.29,0,0,1-.19-1.21V130.1a3.26,3.26,0,0,1,.19-1.2,2.12,2.12,0,0,1,.53-.8,2,2,0,0,1,.8-.45,3.61,3.61,0,0,1,2,0,2,2,0,0,1,.8.45,2.12,2.12,0,0,1,.53.8,3.27,3.27,0,0,1,.19,1.2v3.76a3.31,3.31,0,0,1-.19,1.21,2.12,2.12,0,0,1-.53.8,2,2,0,0,1-.8.45A3.39,3.39,0,0,1,238.42,136.46Zm-25.8-8.66c0-.18.1-.27.3-.29h2.15a4.24,4.24,0,0,1,1,.12,2.17,2.17,0,0,1,.83.39,2,2,0,0,1,.57.74,2.74,2.74,0,0,1,.21,1.14,2.9,2.9,0,0,1-.15,1,2.07,2.07,0,0,1-.4.69,1.78,1.78,0,0,1-.6.44,3.1,3.1,0,0,1-.75.23l1.87,3.59a.25.25,0,0,1,0,.16.37.37,0,0,1-.15.28.47.47,0,0,1-.32.13.3.3,0,0,1-.25-.14,2.09,2.09,0,0,1-.18-.28L215,132.34h-1.54v3.73a.26.26,0,0,1-.13.24.51.51,0,0,1-.27.08.5.5,0,0,1-.28-.08.26.26,0,0,1-.12-.24V127.8Zm6.73,8.58a.59.59,0,0,1-.31-.09.28.28,0,0,1-.15-.25.21.21,0,0,1,0-.09l2.54-8.24a.35.35,0,0,1,.18-.21.65.65,0,0,1,.29-.07.62.62,0,0,1,.3.07.38.38,0,0,1,.18.21l2.52,8.24a.07.07,0,0,0,0,0,.1.1,0,0,1,0,0,.3.3,0,0,1-.16.25.6.6,0,0,1-.33.1.29.29,0,0,1-.3-.21l-.56-1.87h-3.36l-.56,1.87a.23.23,0,0,1-.12.16.46.46,0,0,1-.2,0Zm9.27,0h-2.15a.37.37,0,0,1-.27-.09.28.28,0,0,1-.1-.21V127.8a.26.26,0,0,1,.1-.21.39.39,0,0,1,.27-.09h2.15a3.42,3.42,0,0,1,1,.14A2,2,0,0,1,231,128.9a3.25,3.25,0,0,1,.19,1.2v3.69A3.28,3.28,0,0,1,231,135a2.08,2.08,0,0,1-.54.8,2.14,2.14,0,0,1-.81.45A3.42,3.42,0,0,1,228.62,136.38Zm4.59-8.58a.24.24,0,0,1,.12-.23.57.57,0,0,1,.28-.07.59.59,0,0,1,.27.07.24.24,0,0,1,.13.23v8.27a.26.26,0,0,1-.13.24.51.51,0,0,1-.27.08.5.5,0,0,1-.28-.08.27.27,0,0,1-.12-.24V127.8Zm6.93,2.29a1.88,1.88,0,0,0-.46-1.4,2,2,0,0,0-2.54,0,1.88,1.88,0,0,0-.46,1.4v3.76a1.9,1.9,0,0,0,.46,1.41,2,2,0,0,0,2.54,0,1.9,1.9,0,0,0,.46-1.41Zm-11.52-1.85h-1.71v7.39h1.71a1.73,1.73,0,0,0,1.27-.45,1.9,1.9,0,0,0,.46-1.4V130.1a1.87,1.87,0,0,0-.46-1.4,1.74,1.74,0,0,0-1.27-.45Zm-5.24,5.36-1.47-4.89-1.48,4.89Zm-10-5.36v3.4h1.65a2.08,2.08,0,0,0,1.32-.39,1.57,1.57,0,0,0,.5-1.32,1.54,1.54,0,0,0-.5-1.3,2.09,2.09,0,0,0-1.32-.39h-1.65Z"/><path id="Shape" class="cls-3" d="M171.49,133.39a4.16,4.16,0,0,1,3.14-1.13,4.72,4.72,0,0,1,2.25.44,3.4,3.4,0,0,1,1.23,1.09,3.54,3.54,0,0,1,.54,1.31c.08.44.14.82.16,1.15a1.38,1.38,0,0,0,.76,1.29,4.14,4.14,0,0,0,1.85.36,3.18,3.18,0,0,0,2-.5,2.56,2.56,0,0,0,.64-2.07,7.06,7.06,0,0,0-.7-3.16,6.88,6.88,0,0,0-2-2.41,9.33,9.33,0,0,0-3-1.53,13.07,13.07,0,0,0-3.86-.54,12.53,12.53,0,0,0-3.58.5,8,8,0,0,0-3,1.59,7.54,7.54,0,0,0-2,2.84,10.93,10.93,0,0,0-.74,4.29v11.22a11.21,11.21,0,0,0,.72,4.28,7.36,7.36,0,0,0,2,2.84,8,8,0,0,0,3,1.59,12.46,12.46,0,0,0,3.58.5,12.67,12.67,0,0,0,3.86-.56,9.44,9.44,0,0,0,3.06-1.59,7,7,0,0,0,2-2.51,7.63,7.63,0,0,0,.7-3.3,2.57,2.57,0,0,0-.64-2.05,3.18,3.18,0,0,0-2-.52,3.94,3.94,0,0,0-1.77.36,1.46,1.46,0,0,0-.8,1.29,11.48,11.48,0,0,1-.18,1.39,4,4,0,0,1-.54,1.39,3.22,3.22,0,0,1-1.21,1.09,4.52,4.52,0,0,1-2.17.44,4.28,4.28,0,0,1-3.2-1.13,4.83,4.83,0,0,1-1.11-3.5V136.89a4.88,4.88,0,0,1,1.09-3.5Z"/><path id="Shape-2" data-name="Shape" class="cls-3" d="M159.68,128.06a4.21,4.21,0,0,0-1.79-.38,4.16,4.16,0,0,0-1.81.38,1.27,1.27,0,0,0-.8,1.23v16.17l-7.77-15a12.46,12.46,0,0,0-.88-1.43,3.81,3.81,0,0,0-.82-.85,2.38,2.38,0,0,0-.95-.4,6.86,6.86,0,0,0-1.25-.1,4,4,0,0,0-1.81.4,1.32,1.32,0,0,0-.8,1.25v26.11a1.32,1.32,0,0,0,.8,1.23,3.82,3.82,0,0,0,1.81.42,3.87,3.87,0,0,0,1.79-.42,1.32,1.32,0,0,0,.82-1.23V139.26l8.65,16.17a2.92,2.92,0,0,0,1.31,1.29,4,4,0,0,0,1.71.36,3.87,3.87,0,0,0,1.79-.42,1.32,1.32,0,0,0,.82-1.23V129.29a1.28,1.28,0,0,0-.82-1.23Z"/><path id="Shape-3" data-name="Shape" class="cls-3" d="M110.57,129.77a8.18,8.18,0,0,0-3-1.59,13.22,13.22,0,0,0-3.7-.5H96.74a2.65,2.65,0,0,0-1.67.48,1.4,1.4,0,0,0-.62,1.13v26.19a1.4,1.4,0,0,0,.62,1.13,2.65,2.65,0,0,0,1.67.48h7.12a13.19,13.19,0,0,0,3.7-.5,8.14,8.14,0,0,0,3-1.59,7.27,7.27,0,0,0,2-2.84,11.23,11.23,0,0,0,.72-4.28v-11a11.22,11.22,0,0,0-.72-4.29,7.28,7.28,0,0,0-2-2.84Zm-2.49,18.1a4.83,4.83,0,0,1-1.11,3.5,4.17,4.17,0,0,1-3.12,1.13H99.67V132.26h4.18a4.17,4.17,0,0,1,3.12,1.13,4.82,4.82,0,0,1,1.11,3.5Z"/><path id="Shape-4" data-name="Shape" class="cls-3" d="M130.28,129.21a2.1,2.1,0,0,0-1.25-1.35,5.28,5.28,0,0,0-2.13-.42,5.17,5.17,0,0,0-2.09.42,2.1,2.1,0,0,0-1.25,1.35l-7.76,25.3a2.39,2.39,0,0,0-.08.4,1.38,1.38,0,0,0,.32.89,2.86,2.86,0,0,0,.8.68,4.36,4.36,0,0,0,1.07.44,4.12,4.12,0,0,0,1.11.16,2.48,2.48,0,0,0,1.15-.24,1.25,1.25,0,0,0,.62-.8l1.53-5.35h9.21l1.53,5.35a1.25,1.25,0,0,0,.62.8,2.48,2.48,0,0,0,1.15.24,4.13,4.13,0,0,0,1.11-.16,4,4,0,0,0,1.07-.46,3.34,3.34,0,0,0,.8-.68,1.31,1.31,0,0,0,.32-.87,2.43,2.43,0,0,0-.08-.4l-7.76-25.3Zm-6.88,17.38,3.5-12.35,3.5,12.35Z"/><path id="Shape-5" data-name="Shape" class="cls-3" d="M205.28,144a3.24,3.24,0,0,0,1.68-.68,3.85,3.85,0,0,0,1.16-1.65,8,8,0,0,0,.41-2.9,12.26,12.26,0,0,0-.83-4.53,11.32,11.32,0,0,0-2.25-3.6,10.18,10.18,0,0,0-3.3-2.35,9.74,9.74,0,0,0-8.1.09,10.73,10.73,0,0,0-3.4,2.53,12.22,12.22,0,0,0-3.09,8.15v6.23a12.92,12.92,0,0,0,.88,4.86,10.89,10.89,0,0,0,6.21,6.18,12.86,12.86,0,0,0,4.77.86,12.41,12.41,0,0,0,3.49-.46,11.06,11.06,0,0,0,2.68-1.14,6.74,6.74,0,0,0,1.73-1.46,2.56,2.56,0,0,0,.65-1.55,3.23,3.23,0,0,0-.55-1.66,1.84,1.84,0,0,0-1.61-1,2,2,0,0,0-1.19.43c-.32.23-.72.5-1.17.79a8.36,8.36,0,0,1-1.6.76,6.79,6.79,0,0,1-2.29.33,7,7,0,0,1-5-1.82,6.54,6.54,0,0,1-1.91-5v-1.38h10.89a16.31,16.31,0,0,0,1.75-.09Zm-1.94-4.3a2.75,2.75,0,0,1-1.56.27h-9.14v-1.74a6.57,6.57,0,0,1,.44-2.41,5.76,5.76,0,0,1,1.21-1.92,6.06,6.06,0,0,1,1.77-1.28,4.9,4.9,0,0,1,2.12-.47,4.69,4.69,0,0,1,2.18.52,5.72,5.72,0,0,1,1.74,1.39,6.55,6.55,0,0,1,1.14,2,7,7,0,0,1,.42,2.39c0,.86-.19,1.14-.31,1.23Z"/><path id="Shape-6" data-name="Shape" class="cls-4" d="M47.23,119.38a2.32,2.32,0,0,1-2.81,2.29l-.14,0a2.32,2.32,0,0,1,.6-4.55,2.28,2.28,0,0,1,.43,0l.31.08a2.31,2.31,0,0,1,1.6,2.18Z"/><path id="Shape-7" data-name="Shape" class="cls-2" d="M61.85,162a2.32,2.32,0,0,1-1.16,2l-.46.21a28.54,28.54,0,0,1-11,2.32,29.11,29.11,0,0,1-3.88-.22l-.43-.06-.11,0a2.32,2.32,0,0,1,.6-4.55l.32,0h0a24.22,24.22,0,0,0,3.44.21,23.8,23.8,0,0,0,9.26-2l.35-.15a2.37,2.37,0,0,1,.75-.13,2.52,2.52,0,0,1,.43,0l.32.08A2.33,2.33,0,0,1,61.85,162Z"/><path id="Shape-8" data-name="Shape" class="cls-4" d="M72.09,129.82a2.33,2.33,0,0,1-2.3,2.35,2.39,2.39,0,0,1-.51-.05l-.14,0a2.32,2.32,0,0,1-1.25-.87l-.09-.13A22.4,22.4,0,0,0,52,121.68l-.25,0-.14,0a2.32,2.32,0,0,1,.6-4.55h.11l.4,0a27.41,27.41,0,0,1,14.91,6.78,25.5,25.5,0,0,1,3.94,4.48l.27.4a2.29,2.29,0,0,1,.27,1.06Z"/><path id="Shape-9" data-name="Shape" class="cls-5" d="M75.72,141.43A23.82,23.82,0,0,1,68,159.16l-.79.71-.45.38a2.31,2.31,0,0,1-1.24.38,2.39,2.39,0,0,1-.51-.05l-.14,0a2.33,2.33,0,0,1-.91-4l.06-.05a19.43,19.43,0,0,0,7.08-15,18.39,18.39,0,0,0-.61-4.51c0-.1-.05-.19-.08-.29a2.29,2.29,0,0,1,0-.44,2.32,2.32,0,0,1,2.73-2.31l.32.08a2.33,2.33,0,0,1,1.45,1.38l.12.44a23.18,23.18,0,0,1,.74,5.61Z"/><path id="Shape-10" data-name="Shape" class="cls-4" d="M64.6,113.86a2.33,2.33,0,0,1-2.31,2.36,2.29,2.29,0,0,1-.51-.05l-.14,0-.11,0L61.2,116h0a35.65,35.65,0,0,0-14.07-2.69c-.64,0-1.27,0-1.9.07l-.45,0a2.28,2.28,0,0,1-.42,0l-.14,0a2.33,2.33,0,0,1,.28-4.54l.37,0q1.1-.07,2.21-.08a40.32,40.32,0,0,1,15.85,3l.45.19a2.33,2.33,0,0,1,1.21,2Z"/><path id="Shape-11" data-name="Shape" class="cls-6" d="M84.36,141.34a29.81,29.81,0,0,1-.9,7.61l-.1.38a2.32,2.32,0,0,1-2.17,1.55,2.19,2.19,0,0,1-.51-.05l-.14,0a2.32,2.32,0,0,1-1.7-2.21,2.38,2.38,0,0,1,0-.44l.09-.33a25.27,25.27,0,0,0,.76-6.42c-.09-9-4.92-16.95-12.36-22.09l-.36-.24a2.34,2.34,0,0,1,1.89-4.1l.32.08.31.13.54.37h0A36.38,36.38,0,0,1,73.21,118a33,33,0,0,1,8.07,10.43,30,30,0,0,1,3.08,12.94Z"/><path id="Shape-12" data-name="Shape" class="cls-2" d="M80.93,155.07a2.32,2.32,0,0,1-2.29,2.35,2.38,2.38,0,0,1-.51-.05l-.14,0a2.32,2.32,0,0,1,.6-4.55,2.48,2.48,0,0,1,.43,0l.32.08a2.32,2.32,0,0,1,1.6,2.18Z"/><path id="Shape-13" data-name="Shape" class="cls-2" d="M76.86,160.8a2.31,2.31,0,0,1-.47,1.43l-.27.3q-1.13,1.26-2.41,2.42a38.93,38.93,0,0,1-25.89,9.88q-1.1,0-2.19,0l-.43,0h0l-.17,0-.14,0a2.32,2.32,0,0,1,.6-4.55h.21q1,0,2.06,0a34,34,0,0,0,24.92-10.79l.22-.25a2.32,2.32,0,0,1,1.6-.66,2.36,2.36,0,0,1,.43,0l.32.08a2.32,2.32,0,0,1,1.61,2.19Z"/><path id="Shape-14" data-name="Shape" class="cls-7" d="M66.74,141.62a16.06,16.06,0,0,1-5.53,12.18A19.4,19.4,0,0,1,53.48,158l-.3.08a2.31,2.31,0,0,1-.46,0,2.38,2.38,0,0,1-.52-.05l-.15,0a2.38,2.38,0,0,1-.09-4.56h0l.2-.05c5.74-1.62,9.89-6.32,9.83-11.79s-4.32-10.11-10.13-11.6l-.15,0a2.38,2.38,0,0,1,1.06-4.64l.32.08A19.36,19.36,0,0,1,61,129.56a16.06,16.06,0,0,1,5.79,12.06Z"/></g></g></g></g></svg>