<svg xmlns="http://www.w3.org/2000/svg" viewBox="0 0 283.46 283.46"><defs><style>.cls-1{fill:#231f20;}.cls-2{fill:#be1e24;}.cls-3{fill:#fff;}</style></defs><title>doma</title><g id="Layer_2" data-name="Layer 2"><g id="Slovakia"><g id="doma"><rect class="cls-1" width="283.46" height="283.46"/><g id="logo"><path class="cls-2" d="M93.6,172.52h42.25V169H93.6Z"/><path class="cls-3" d="M175.82,112.15l-10,23.64-10-23.64H142.63l-4.33,52.05h12.43l2.87-31.14,11.57,25.46h1l11.71-25.69,2.88,31.36h12.42l-4.32-52.05Z"/><path class="cls-3" d="M62.89,152.72H55.07V123.85h7.82a16.22,16.22,0,0,1,5.91,1,13.09,13.09,0,0,1,7.46,7.54,15.85,15.85,0,0,1,1.07,5.85v.15a15.31,15.31,0,0,1-1.07,5.82,13.64,13.64,0,0,1-2.94,4.52,12.7,12.7,0,0,1-4.51,2.91,16.3,16.3,0,0,1-5.93,1M88.4,128a24.08,24.08,0,0,0-5.69-8.19A26.07,26.07,0,0,0,74,114.33a30.41,30.41,0,0,0-11.09-2H42.52V164.2H62.89a30.22,30.22,0,0,0,11.1-2,26.67,26.67,0,0,0,8.72-5.48,24,24,0,0,0,5.69-8.23,26,26,0,0,0,2-10.21v-.15a25.81,25.81,0,0,0-2-10.19"/><path class="cls-3" d="M218.58,141.63H207.4L213,128Zm.15-29.63H207.54l-.2.45-22,51.74h12.9l4.6-11.28h20.3l4.6,11.28h13.2Z"/><path class="cls-3" d="M114.73,153.31a15.07,15.07,0,1,1,15.07-15.08,15.08,15.08,0,0,1-15.07,15.08m0-42.37A27.3,27.3,0,1,0,142,138.23a27.3,27.3,0,0,0-27.29-27.29"/></g></g></g></g></svg>