<svg xmlns="http://www.w3.org/2000/svg" viewBox="0 0 283.46 283.46"><defs><style>.cls-1{fill:#231f20;}.cls-2{fill:#be1e24;}.cls-3{fill:#fff;}</style></defs><g id="Layer_2" data-name="Layer 2"><g id="Slovakia"><g id="doma"><rect class="cls-1" width="283.46" height="283.46"/><g id="logo"><path class="cls-2" d="M93.6,172.52h42.25V169H93.6Z"/><path class="cls-3" d="M175.82,112.15l-10,23.64-10-23.64H142.63l-4.32,52h12.43l2.87-31.14,11.58,25.47h1l11.71-25.69,2.89,31.36h12.42l-4.32-52Z"/><path class="cls-3" d="M62.89,152.72H55.07V123.85h7.82a16.15,16.15,0,0,1,5.91,1.05,13.29,13.29,0,0,1,4.53,3,13.43,13.43,0,0,1,2.94,4.56,15.89,15.89,0,0,1,1.07,5.85v.14a15.32,15.32,0,0,1-1.07,5.82,13.79,13.79,0,0,1-2.94,4.53,12.81,12.81,0,0,1-4.51,2.91,16.51,16.51,0,0,1-5.93,1M88.4,128a24.11,24.11,0,0,0-5.69-8.18A26.17,26.17,0,0,0,74,114.33a30.45,30.45,0,0,0-11.09-2H42.52V164.2H62.89a30.06,30.06,0,0,0,11.1-2,26.62,26.62,0,0,0,8.72-5.47,24.12,24.12,0,0,0,5.69-8.23,26.1,26.1,0,0,0,2-10.21v-.15a25.93,25.93,0,0,0-2-10.19"/><path class="cls-3" d="M218.58,141.63H207.4L213,128Zm.14-29.63H207.54l-.2.45-22,51.74h12.9l4.61-11.29h20.3l4.6,11.29h13.2Z"/><path class="cls-3" d="M114.73,153.31a15.07,15.07,0,1,1,15.07-15.08,15.08,15.08,0,0,1-15.07,15.08m0-42.37A27.3,27.3,0,1,0,142,138.23a27.3,27.3,0,0,0-27.29-27.29"/></g></g></g></g></svg>