<?xml version="1.0" standalone="yes"?>
<svg xmlns="http://www.w3.org/2000/svg" width="1024" height="1024">
<path style="fill:#fbbb4d; stroke:none;" d="M0 0L0 1024L1024 1024L1024 0L0 0z"/>
<path style="fill:#fbbb4f; stroke:none;" d="M233 422L234 423L233 422z"/>
<path style="fill:#ffffff; stroke:none;" d="M157 520C162.687 517.095 166.103 510.169 169.659 505C176.78 494.648 183.853 484.235 191.141 474C194.195 469.712 197.12 463.626 202.015 461.183C209.701 457.347 214.612 466.663 217.799 472C227.639 488.477 239.409 505.384 247 523C256.013 520.476 262.898 511.532 272 508.066C288.201 501.895 304.797 505.645 319 514.865C324.822 518.644 329.693 524.111 336 527C336.435 505.922 336.789 486.012 325.546 467C293.917 413.516 217.588 406.105 177.285 454.004C161.272 473.036 157 495.883 157 520M432 441L442.972 451.3L444 472C431.359 471.999 418.846 470.776 407 476.323C380.568 488.7 372.64 535.182 392.21 556.96C406.378 572.727 434.56 567.195 444 549L448 567L490 557L478.603 544.985L478 509L478 427L432 441z"/>
<path style="fill:#fff7f1; stroke:none;" d="M207 430L208 431L207 430z"/>
<path style="fill:#fbbb4f; stroke:none;" d="M205 431L206 432L205 431z"/>
<path style="fill:#fff7f1; stroke:none;" d="M462 431L463 432L462 431z"/>
<path style="fill:#fbbb4f; stroke:none;" d="M203 432L204 433L203 432M198 435L199 436L198 435z"/>
<path style="fill:#fff7f1; stroke:none;" d="M439 438L440 439L439 438M184 446L185 447L184 446M183 447L184 448L183 447z"/>
<path style="fill:#fbbb4f; stroke:none;" d="M317 455L318 456L317 455M322 462L323 463L322 462z"/>
<path style="fill:#ffffff; stroke:none;" d="M596 482C598.668 487.267 605.308 489.489 607.397 495.015C611.619 506.185 608 525.054 608 537C608 541.441 609.098 547.654 607.397 551.83C605.478 556.538 600.217 559.246 598 564L651 564C648.8 559.283 643.596 556.098 642.318 551C639.55 539.962 642 525.385 642 514C642 508.125 640.802 500.74 642.318 495.043C643.361 491.122 647.268 489.428 651 488.99C672.026 486.52 666 523.413 666 536C666 540.842 667.13 547.398 665.397 551.985C663.578 556.797 658.227 559.263 656 564L709 564C706.8 559.283 701.596 556.098 700.318 551C697.404 539.378 700 523.989 700 512C700 506.928 698.598 499.894 699.889 495.043C700.986 490.921 706.14 488.977 710 488.757C716.768 488.37 721.4 492.739 723.211 499C726.395 510.014 724 524.576 724 536C724 540.874 725.104 547.37 723.397 552C721.598 556.878 716.406 559.494 714 564L768 564C765.474 558.583 759.096 555.092 758.148 549C754.956 528.477 764.579 501.926 754.095 483.001C742.096 461.341 708.534 471.621 699 490C696.599 484.935 694.617 479.513 689.907 476.105C674.834 465.2 649.73 472.425 642 489L641 489L641 470L596 482z"/>
<path style="fill:#fbbb4f; stroke:none;" d="M430 471L431 472L430 471z"/>
<path style="fill:#ffffff; stroke:none;" d="M537 471.425C525.673 472.967 514.542 475.805 506.174 484.174C489.755 500.593 488.628 538.026 505.301 554.699C516.616 566.014 535.89 567.674 551 565.711C561.204 564.385 572.407 560.578 579.535 552.826C595.123 535.877 596.681 498.983 579.816 482.185C569.62 472.031 550.667 469.565 537 471.425M777 504C787.037 499.029 812.257 484.321 819.107 502.004C820.533 505.686 820 510.127 820 514C811.731 514 803.108 514.26 795 516.015C789.921 517.114 784.277 518.687 780.04 521.8C768.872 530.006 768.038 551.352 778.105 560.786C787.507 569.597 805.197 567.332 813.96 558.906C817.241 555.751 819.622 552.314 821 548L822 548C822.508 571.828 861.901 572.446 867 551C857.177 550.136 854.046 544.299 854.001 535C853.921 518.736 858.724 494.205 846.671 481.174C825.269 458.033 781.353 474.526 777 504z"/>
<path style="fill:#fff7f1; stroke:none;" d="M822 471L823 472L822 471M662 472L663 473L662 472z"/>
<path style="fill:#fbbb4f; stroke:none;" d="M806 472L807 473L806 472z"/>
<path style="fill:#fff7f1; stroke:none;" d="M659 473L660 474L659 473z"/>
<path style="fill:#fbbb4f; stroke:none;" d="M685 473L686 474L685 473z"/>
<path style="fill:#fff7f1; stroke:none;" d="M190 474L191 475L190 474z"/>
<path style="fill:#fbbb4f; stroke:none;" d="M566 474L567 475L566 474z"/>
<path style="fill:#fff7f1; stroke:none;" d="M687 474L688 475L687 474M715 474L716 475L715 474z"/>
<path style="fill:#fbbb4f; stroke:none;" d="M329 475L330 476L329 475z"/>
<path style="fill:#fbbb4d; stroke:none;" d="M431.001 475.693C424.567 477.392 421.466 484.208 419.721 490C415.6 503.682 415.026 522.216 418.924 536C421.252 544.234 427.917 550.644 436.999 548.466C445.01 546.545 444 539.663 444 533C444 517.729 446.509 500.013 443.772 485C442.755 479.423 436.903 474.134 431.001 475.693M540.04 476.746C533.961 479.099 531.992 487.344 530.654 493C526.896 508.887 527.464 526.996 530.25 543C531.339 549.258 534.615 563.816 543.999 561.153C550.852 559.208 553.43 550.098 554.714 544C558.129 527.774 558.289 509.252 554.996 493C553.597 486.096 549.947 472.911 540.04 476.746z"/>
<path style="fill:#fbbb4f; stroke:none;" d="M690 476L691 477L690 476M439 477L440 478L439 477M710 477L711 478L710 477M440 478L441 479L440 478z"/>
<path style="fill:#fff7f1; stroke:none;" d="M843 478L844 479L843 478M441 479L442 480L441 479z"/>
<path style="fill:#fbbb4f; stroke:none;" d="M752 480L753 481L752 480M509 481L510 482L509 481z"/>
<path style="fill:#fff7f1; stroke:none;" d="M695 482L696 483L695 482M332 483L333 484L332 483z"/>
<path style="fill:#fbbb4f; stroke:none;" d="M395 484L396 485L395 484z"/>
<path style="fill:#fff7f1; stroke:none;" d="M696 484L697 485L696 484M160 486L161 487L160 486z"/>
<path style="fill:#fbbb4f; stroke:none;" d="M532 486L533 487L532 486z"/>
<path style="fill:#fff7f1; stroke:none;" d="M599 486L600 487L599 486M181 487L182 488L181 487z"/>
<path style="fill:#ffffff; stroke:none;" d="M204 487C194.969 500.387 185.638 513.574 176.667 527C173.022 532.454 166.738 538.622 164.948 545C161.956 555.667 180.296 572.698 187 578.91C217.348 607.032 267.014 608.448 300 584.36C309.439 577.467 317.392 568.928 323.575 559C325.871 555.313 329.542 550.533 327.589 546C318.127 524.045 285.953 517.408 268 530.761C261.858 535.329 252.943 551.416 244.004 548.242C237.587 545.964 234.416 537.399 231.201 532C223.139 518.464 215.941 497.236 204 487z"/>
<path style="fill:#fbbb4f; stroke:none;" d="M584 488L585 489L584 488M653 488L654 489L653 488z"/>
<path style="fill:#fff7f1; stroke:none;" d="M709 488L710 489L709 488z"/>
<path style="fill:#fbbb4f; stroke:none;" d="M660 490L661 491L660 490M530 493L531 494L530 493M587 494L588 495L587 494M210 496L211 497L210 496M233 498L234 499L233 498z"/>
<path style="fill:#fff7f1; stroke:none;" d="M723 499L724 500L723 499M818 499L819 500L818 499M782 500L783 501L782 500z"/>
<path style="fill:#fbbb4f; stroke:none;" d="M665 501L666 502L665 501z"/>
<path style="fill:#fff7f1; stroke:none;" d="M778 503L779 504L778 503M280 505L281 506L280 505z"/>
<path style="fill:#fbbb4f; stroke:none;" d="M270 508L271 509L270 508z"/>
<path style="fill:#fff7f1; stroke:none;" d="M165 510L166 511L165 510M259 514L260 515L259 514M244 517L245 518L244 517z"/>
<path style="fill:#fbbb4f; stroke:none;" d="M255 517L256 518L255 517z"/>
<path style="fill:#fff7f1; stroke:none;" d="M382 517L383 518L382 517z"/>
<path style="fill:#fbbb4f; stroke:none;" d="M789 517L790 518L789 517z"/>
<path style="fill:#fbbb4d; stroke:none;" d="M820 517C808.23 518.593 795.917 533.092 805.564 544.772C816 557.407 820 537.752 820 531L820 517z"/>
<path style="fill:#fff7f1; stroke:none;" d="M157.667 520.333L158.333 520.667L157.667 520.333M225 522L226 523L225 522M284 523L285 524L284 523z"/>
<path style="fill:#fbbb4f; stroke:none;" d="M294 523L295 524L294 523z"/>
<path style="fill:#fff7f1; stroke:none;" d="M271 528L272 529L271 528M229 529L230 530L229 529z"/>
<path style="fill:#fbbb4f; stroke:none;" d="M316 534L317 535L316 534M418 534L419 535L418 534M555 539L556 540L555 539z"/>
<path style="fill:#fff7f1; stroke:none;" d="M803 540L804 541L803 540M236 541L237 542L236 541z"/>
<path style="fill:#fbbb4f; stroke:none;" d="M384 541L385 542L384 541z"/>
<path style="fill:#fff7f1; stroke:none;" d="M256 542L257 543L256 542z"/>
<path style="fill:#fbbb4f; stroke:none;" d="M530 544L531 545L530 544z"/>
<path style="fill:#fff7f1; stroke:none;" d="M771 545L772 546L771 545M425 546L426 547L425 546z"/>
<path style="fill:#fbbb4f; stroke:none;" d="M499 546L500 547L499 546M583 547L584 548L583 547z"/>
<path style="fill:#fff7f1; stroke:none;" d="M856 547L857 548L856 547z"/>
<path style="fill:#fbbb4f; stroke:none;" d="M328 549L329 550L328 549M862 550L863 551L862 550z"/>
<path style="fill:#fff7f1; stroke:none;" d="M388 551L389 552L388 551z"/>
<path style="fill:#fbbb4f; stroke:none;" d="M486 553L487 554L486 553z"/>
<path style="fill:#fff7f1; stroke:none;" d="M607 553L608 554L607 553z"/>
<path style="fill:#fbbb4f; stroke:none;" d="M665 553L666 554L665 553z"/>
<path style="fill:#fff7f1; stroke:none;" d="M664 554L665 555L664 554M663 555L664 556L663 555M446 556L447 557L446 556M662 556L663 557L662 556z"/>
<path style="fill:#fbbb4f; stroke:none;" d="M169 557L170 558L169 557z"/>
<path style="fill:#fff7f1; stroke:none;" d="M718 558L719 559L718 558z"/>
<path style="fill:#fbbb4f; stroke:none;" d="M570 559L571 560L570 559z"/>
<path style="fill:#fff7f1; stroke:none;" d="M717 559L718 560L717 559z"/>
<path style="fill:#fbbb4f; stroke:none;" d="M513 560L514 561L513 560z"/>
<path style="fill:#fff7f1; stroke:none;" d="M716 560L717 561L716 560z"/>
<path style="fill:#fbbb4f; stroke:none;" d="M397 561L398 562L397 561z"/>
<path style="fill:#fff7f1; stroke:none;" d="M431 561L432 562L431 561z"/>
<path style="fill:#fbbb4f; stroke:none;" d="M566 561L567 562L566 561M708 561L709 562L708 561M463 563L464 564L463 563M829 563L830 564L829 563M450 566L451 567L450 566z"/>
<path style="fill:#fff7f1; stroke:none;" d="M316 568L317 569L316 568M303 581L304 582L303 581M191 582L192 583L191 582M299 584L300 585L299 584M293 588L294 589L293 588z"/>
<path style="fill:#fbbb4f; stroke:none;" d="M207 592L208 593L207 592M214 595L215 596L214 595z"/>
<path style="fill:#fff7f1; stroke:none;" d="M273 597L274 598L273 597z"/>
<path style="fill:#fbbb4f; stroke:none;" d="M233 600L234 601L233 600z"/>
</svg>
