<svg xmlns="http://www.w3.org/2000/svg" viewBox="0 0 283.46 283.46"><defs><style>.cls-1{fill:#ec008c;}.cls-2{fill:#fff;}</style></defs><g id="Layer_2" data-name="Layer 2"><g id="Barrandov"><g id="familybarrandov"><rect class="cls-1" width="283.46" height="283.46"/><g id="logo"><path class="cls-2" d="M137.31,130a2.28,2.28,0,0,1,2.18,2.26,2.23,2.23,0,0,1-2.18,2.27h-3.79v13.08a2.88,2.88,0,0,1-5.75,0V134.56h-1.44a2.24,2.24,0,0,1-2.22-2.26h0a2.3,2.3,0,0,1,2.22-2.27h1.44v-2.44c0-3.79,1.44-7.63,6.76-7.63a12,12,0,0,1,4.45.75c1.52.61,2.52,1.48,2.52,2.87a2.12,2.12,0,0,1-2.08,2.18h-.1c-1.17,0-2-.78-3.53-.78s-2.27.91-2.27,3.05v2Z"/><path class="cls-2" d="M151.88,137.66v-.35a3.75,3.75,0,0,0-.61-2.36,2.86,2.86,0,0,0-2.36-.87c-2.31,0-3.79,1.35-5.49,1.35a2.05,2.05,0,0,1-2.09-2v0c0-1.35,1.08-2.18,2.52-2.75a16.58,16.58,0,0,1,5.76-1c2,0,4.58.39,6.28,2.26a7.35,7.35,0,0,1,1.74,5.28v10.46a2.88,2.88,0,0,1-2.88,2.79,2.83,2.83,0,0,1-2.39-1.22,10.17,10.17,0,0,1-5.37,1.22c-3.66,0-6.62-2.31-6.62-6.15C140.37,139.18,146.08,138.09,151.88,137.66Zm0,7.67v-3.79c-2.62.08-6,.43-6,2.57,0,1.39,1.35,2,3,2A5.85,5.85,0,0,0,151.88,145.33Z"/><path class="cls-2" d="M165.83,129.68a3,3,0,0,1,2.7,1.83,7.62,7.62,0,0,1,5.06-1.83,7.41,7.41,0,0,1,6.23,2.88,8.84,8.84,0,0,1,12.08-.92c1.35,1.22,2.18,3.23,2.18,6.11v9.94a2.89,2.89,0,0,1-2.88,2.79,2.84,2.84,0,0,1-2.88-2.78h0v-8.5a6.11,6.11,0,0,0-.87-3.58,3.32,3.32,0,0,0-5.27.48,8.63,8.63,0,0,0-.79,4.23v7.36a2.88,2.88,0,0,1-2.88,2.79,2.82,2.82,0,0,1-2.87-2.78h0v-8.5a6.16,6.16,0,0,0-.87-3.57,3,3,0,0,0-2.53-1.09,3.1,3.1,0,0,0-2.75,1.57,9.11,9.11,0,0,0-.78,4.1v7.46a2.9,2.9,0,0,1-2.88,2.83,2.84,2.84,0,0,1-2.88-2.8V132.52a2.84,2.84,0,0,1,2.84-2.84Z"/><path class="cls-2" d="M199,121.22a3.32,3.32,0,1,1,3.31,3.31,3.31,3.31,0,0,1-3.31-3.31Zm3.31,8.41a2.83,2.83,0,0,1,2.88,2.78h0v15.22a2.88,2.88,0,0,1-2.88,2.78,2.81,2.81,0,0,1-2.87-2.78h0V132.42a2.83,2.83,0,0,1,2.87-2.79Z"/><path class="cls-2" d="M210.82,122.74a2.88,2.88,0,0,1,5.76,0v24.9a2.88,2.88,0,0,1-5.76,0Z"/><path class="cls-2" d="M240.94,132.73a6.48,6.48,0,0,1-.56,2.14l-6.11,16.22c-2.47,6.58-7,9.11-11,9.11a2.75,2.75,0,0,1,0-5.5h0c2.18,0,3.71-1,4.8-3.31l-7.54-16.48a6,6,0,0,1-.7-2.09,3.23,3.23,0,0,1,3.19-3.23,3.29,3.29,0,0,1,3,2.09l4.84,12.21,3.79-11.64a3.3,3.3,0,0,1,3.14-2.66,3.12,3.12,0,0,1,3.13,3.12Z"/><path class="cls-2" d="M221.6,176a3.27,3.27,0,1,1,3-3.26,3,3,0,0,1-3,3.26m0-9.39c-3.53,0-6.32,2.31-6.32,6.13s2.78,6.1,6.32,6.1,6.36-2.28,6.36-6.1-2.82-6.13-6.36-6.13m-11.12,5.95a3.56,3.56,0,0,1-.75,2.56,2.52,2.52,0,0,1-1.93.78,2.41,2.41,0,0,1-2.11-1.08,3.83,3.83,0,0,1-.6-2.21,3.53,3.53,0,0,1,.77-2.48,2.81,2.81,0,0,1,2.11-.82,4,4,0,0,1,2.51.79Zm1.7-11.66a1.7,1.7,0,0,0-1.7,1.64v4.69a6.41,6.41,0,0,0-3-.64,5.63,5.63,0,0,0-4.11,1.56,7.08,7.08,0,0,0-.21,8.85,5.92,5.92,0,0,0,4.6,1.84,6.11,6.11,0,0,0,4.72-1.93,6.35,6.35,0,0,0,1.38-4.45v-9.93a1.66,1.66,0,0,0-1.67-1.63m-17.72,5.69a5.91,5.91,0,0,0-4.8,1.87,5.31,5.31,0,0,0-1,3.46v5.28a1.69,1.69,0,0,0,3.37,0v-5a3.38,3.38,0,0,1,.34-1.59,2.2,2.2,0,0,1,2.1-1.07,2.25,2.25,0,0,1,2.13,1.07,3.35,3.35,0,0,1,.31,1.59v5a1.71,1.71,0,0,0,3.42,0v-5.28a5.15,5.15,0,0,0-1.06-3.46,5.82,5.82,0,0,0-4.79-1.87m-11.1,8.74a4.85,4.85,0,0,1-2.54.74,2.55,2.55,0,0,1-2.05-.77,3.45,3.45,0,0,1-.82-2.48,3.94,3.94,0,0,1,.62-2.21,2.38,2.38,0,0,1,2.07-1.05,2.48,2.48,0,0,1,1.95.8,4.17,4.17,0,0,1,.77,2.77Zm-2.72-8.72a5.89,5.89,0,0,0-4.61,1.87,6.31,6.31,0,0,0-1.44,4.26,6.49,6.49,0,0,0,1.64,4.56,5.67,5.67,0,0,0,4.1,1.54,5.74,5.74,0,0,0,3.18-.87,1.68,1.68,0,0,0,1.55.87,1.65,1.65,0,0,0,1.69-1.61V173a6.44,6.44,0,0,0-1.39-4.49,6.11,6.11,0,0,0-4.72-1.93m-7.56.44a5.47,5.47,0,0,0-2.36-.46c-2.14,0-3.84.58-4.82,1.84a5.4,5.4,0,0,0-1,3.46v5.28a1.7,1.7,0,0,0,3.39,0v-5a3.12,3.12,0,0,1,.33-1.59,2.12,2.12,0,0,1,2-1,2.68,2.68,0,0,1,1.08.26,2,2,0,0,0,1,.33,1.45,1.45,0,0,0,1.46-1.51,1.77,1.77,0,0,0-1.1-1.54m-9.89,0a5.62,5.62,0,0,0-2.36-.46c-2.16,0-3.85.58-4.82,1.84a5.4,5.4,0,0,0-1,3.46v5.28a1.69,1.69,0,1,0,3.38,0v-5a3.35,3.35,0,0,1,.34-1.59,2.15,2.15,0,0,1,2-1,2.68,2.68,0,0,1,1.08.26,2,2,0,0,0,1.05.33,1.46,1.46,0,0,0,1.46-1.46v-.05a1.77,1.77,0,0,0-1.1-1.54m-13.49,8.28a4.7,4.7,0,0,1-2.53.74,2.55,2.55,0,0,1-2.05-.77,3.45,3.45,0,0,1-.82-2.48,3.94,3.94,0,0,1,.62-2.21,2.35,2.35,0,0,1,2.07-1.05,2.45,2.45,0,0,1,1.94.8,4.13,4.13,0,0,1,.78,2.77ZM147,166.56a5.9,5.9,0,0,0-4.61,1.87,6.38,6.38,0,0,0-1.44,4.26,6.54,6.54,0,0,0,1.64,4.56,5.69,5.69,0,0,0,4.11,1.54,5.76,5.76,0,0,0,3.18-.87,1.73,1.73,0,0,0,3.23-.74V173a6.52,6.52,0,0,0-1.38-4.49,6.1,6.1,0,0,0-4.72-1.92m-11.49,8.2a2.44,2.44,0,0,1-2.1,1.08,2.56,2.56,0,0,1-1.95-.78,3.61,3.61,0,0,1-.74-2.56v-2.45a4.07,4.07,0,0,1,2.52-.8,2.72,2.72,0,0,1,2.09.82,3.61,3.61,0,0,1,.8,2.49,3.78,3.78,0,0,1-.62,2.21m-1.8-8.23a6.3,6.3,0,0,0-3,.64v-4.7a1.69,1.69,0,0,0-1.7-1.63,1.67,1.67,0,0,0-1.68,1.63v9.92a6.4,6.4,0,0,0,1.38,4.46,6.15,6.15,0,0,0,4.73,1.93,5.91,5.91,0,0,0,4.61-1.85,6.39,6.39,0,0,0,1.44-4.28,6.24,6.24,0,0,0-1.57-4.56,5.79,5.79,0,0,0-4.2-1.57"/><path class="cls-2" d="M238.45,166.56a1.67,1.67,0,0,0-1.65,1.25l-2.37,7.34h-.11l-2.39-7.2a1.6,1.6,0,0,0-1.56-1.39,1.67,1.67,0,0,0-1.87,1.64,3.67,3.67,0,0,0,.33,1.31l2.72,7.15c.51,1.39,1.21,2.13,2.66,2.13a2.73,2.73,0,0,0,2.72-2.13l2.56-7.09a4.81,4.81,0,0,0,.34-1.39c0-.9-.3-1.63-1.38-1.63"/><path class="cls-2" d="M112.25,130.14,88.68,147.43l4.43,14-12-8.63-11.95,8.62,4.75-14-12.15-8.79H76.36l4.77-14.08c.23.69,3.53,10.84,3.53,10.84a4.72,4.72,0,0,0,9-2.93l-8-24.61a4.68,4.68,0,0,0-4.49-3.26h0a4.69,4.69,0,0,0-4.49,3.26s-6.65,20.39-7,21.34H47.24a4.73,4.73,0,0,0-4.49,3.25,4.91,4.91,0,0,0-.23,1.47,4.68,4.68,0,0,0,1.95,3.81L62.62,151c-.07.18-6.94,21.35-6.94,21.35a4.72,4.72,0,0,0,7.26,5.29l18.18-13.18L99.3,177.61a4.71,4.71,0,0,0,5.55,0h0a4.71,4.71,0,0,0,1.7-5.28L99.64,151l18.16-13.2a4.72,4.72,0,0,0-5.46-7.71l-.09.06"/></g></g></g></g></svg>