<svg xmlns="http://www.w3.org/2000/svg" viewBox="0 0 283.46 283.46"><defs><style>.cls-1{fill:#bec7c4;}</style></defs><title>festivalchannel</title><g id="Layer_2" data-name="Layer 2"><g id="Film_Europe" data-name="Film Europe"><g id="festivalchannel"><rect class="cls-1" width="283.46" height="283.46"/><g id="logo"><path d="M105.61,131c-.54,0-1.08.05-1.64.12-5.8.65-9.79,4.11-11.67,10.15a14.22,14.22,0,0,0-.59,4.94,15.33,15.33,0,0,0,1.77,8.15,13.3,13.3,0,0,0,8.47,6.91,15.92,15.92,0,0,0,11-1.16,11.29,11.29,0,0,0,3.88-3.41,10.37,10.37,0,0,0,1.61-3.33,24.93,24.93,0,0,0-3.14-1.87,15.58,15.58,0,0,0-2-.83,4,4,0,0,0-1,1.3,6.7,6.7,0,0,1-3.84,3.39,6,6,0,0,1-4.42.11,7.21,7.21,0,0,1-4-2.57c-.84-1.14-1.73-3.6-1.55-4.34l0-.69,10.17,0c9,0,10.41.1,10.62-.18.23-.11.15-.92.05-3C119,136,113.65,130.83,105.61,131Zm.38,6a7.62,7.62,0,0,1,3.29.64c1.72.88,3.26,2.85,3.26,4.19l.09.8-7,0-6.62,0,.22-.92a6.32,6.32,0,0,1,3.51-4,7.45,7.45,0,0,1,3.26-.66Z"/><path d="M132.43,161.52c-4.93-.72-8-2.3-9.85-5.14-1.69-2.55-1.45-3.17,1.7-4.54,2.37-1,2.33-1,2.94,0a7.55,7.55,0,0,0,3.39,3.39,5.6,5.6,0,0,0,3.67.83,5.7,5.7,0,0,0,3.15-.57c2-1.07,2.66-2.89,1.5-4.15a9.27,9.27,0,0,0-3.94-2c-2.12-.65-2.26-.75-3.54-1.09a19.31,19.31,0,0,1-5.93-2.64,5.25,5.25,0,0,1-2.45-2.92,8.32,8.32,0,0,1,1.17-8,8.91,8.91,0,0,1,4.43-2.8,11.68,11.68,0,0,1,4.83-.59,14.59,14.59,0,0,1,7.67,1.71c2,1.06,4.51,4.11,4.14,5.07A3.57,3.57,0,0,1,144,139l-2.52,1.2-1.32.64-.53-.64c-.29-.35-.82-1-1.17-1.47-1.06-1.37-2.67-2-5-2s-2.92.21-3.91,1.14a1.84,1.84,0,0,0-.68,1.53c0,1.56,1.29,2.39,5.93,3.8,7.31,2.22,9.67,3.79,10.68,7.12a6.72,6.72,0,0,1-.06,4.76c-.88,3-3.37,5.09-7.07,6a19.66,19.66,0,0,1-5.89.48Z"/><path d="M234.87,124.15h6.08v37.42h-6.08Z"/><path d="M51.65,123.29a9.13,9.13,0,1,0,9.13,9.13,9.13,9.13,0,0,0-9.13-9.13Zm0,2.91a6.22,6.22,0,1,1-6.22,6.22A6.22,6.22,0,0,1,51.65,126.2Z"/><path d="M51.65,143.53a9.13,9.13,0,1,0,9.13,9.13A9.13,9.13,0,0,0,51.65,143.53Zm0,2.91a6.22,6.22,0,1,1-6.22,6.22A6.22,6.22,0,0,1,51.65,146.43Z"/><path d="M64.94,124.09v37.47h6.7V146h17v-6.43h-17v-9.09h19v-6.43H64.94Z"/><path d="M167.35,131.59h6.95v30h-6.95Z"/><path d="M167.35,121.67h6.95v7.43h-6.95Z"/><path d="M175.86,131.59l11.49,30,6.67,0,11.44-30h-6.9l-7.92,21.48h-.21l-7.48-21.49h-7.09Z"/><path d="M158.6,123,152,128.59v2.9H147.7v5.64H152v16a8.39,8.39,0,0,0,8.42,8.67,8.9,8.9,0,0,0,4.86-2l-.7-5.61c-1.38,1.42-4.35,1.8-5.48.44a3.87,3.87,0,0,1-.53-2.25V143.1h0v-6h5.59V131.5H158.6Z"/><path d="M217.73,131.59c-5.84,0-9.26,3.08-11.85,7.29l4.53,3.43a10.28,10.28,0,0,1,7.16-4.6c3.93.05,5.38,2.15,5.57,4.6-3.36.39-8.81.72-13.88,3.19A8.51,8.51,0,0,0,205.87,158c2.75,4.07,9.86,5,15.3,1.82a13.86,13.86,0,0,0,2.74-2.05l0,3.85,6.34-.06a57.38,57.38,0,0,1-.43-6c0-1.36-.09-15.11-.08-15.16s0-.08,0-.12v-.17h0c-.21-4.76-5.53-8.55-12-8.55Zm5.64,16.32s.35,2.62-.59,4.11-2.63,2.51-4.7,3.43c-2.29,1-6,.59-6.81-1.48s.77-4.47,3.49-5c2-.91,8.61-1.07,8.61-1.07Z"/></g></g></g></g></svg>