<svg xmlns="http://www.w3.org/2000/svg" viewBox="0 0 283.46 283.46"><defs><style>.cls-1{fill:#bec7c4;}</style></defs><title>festivalchannel</title><g id="Layer_2" data-name="Layer 2"><g id="Film_Europe" data-name="Film Europe"><g id="festivalchannel"><rect class="cls-1" width="283.46" height="283.46"/><g id="logo"><path d="M105.61,131c-.53,0-1.08.06-1.64.12-5.8.65-9.79,4.11-11.67,10.15a14.37,14.37,0,0,0-.6,4.94,15.29,15.29,0,0,0,1.78,8.15,13.26,13.26,0,0,0,8.47,6.9,15.92,15.92,0,0,0,11-1.15,11.3,11.3,0,0,0,3.88-3.42,10.33,10.33,0,0,0,1.61-3.33,24.16,24.16,0,0,0-3.14-1.87,15.63,15.63,0,0,0-2-.84,4.07,4.07,0,0,0-1,1.3,6.63,6.63,0,0,1-3.84,3.39,6,6,0,0,1-4.42.11,7.23,7.23,0,0,1-4-2.57c-.84-1.14-1.73-3.6-1.55-4.34l0-.69,10.17,0c9,0,10.41.1,10.62-.18.23-.11.15-.92.05-3C119,136,113.65,130.83,105.61,131Zm.38,6a7.71,7.71,0,0,1,3.3.64c1.72.88,3.26,2.85,3.26,4.19l.09.8-7,0-6.62,0,.22-.92a6.33,6.33,0,0,1,3.51-4,7.46,7.46,0,0,1,3.26-.65Z"/><path d="M132.43,161.52c-4.93-.72-8-2.3-9.85-5.14-1.69-2.54-1.45-3.17,1.71-4.54,2.37-1,2.33-1,2.93,0a7.59,7.59,0,0,0,3.39,3.38,8.73,8.73,0,0,0,6.82.26c2-1.07,2.66-2.89,1.5-4.15a9.39,9.39,0,0,0-3.94-2.05c-2.12-.65-2.27-.74-3.54-1.09a19.48,19.48,0,0,1-5.93-2.64,5.23,5.23,0,0,1-2.45-2.92,8.32,8.32,0,0,1,1.17-8,8.93,8.93,0,0,1,4.43-2.8,11.67,11.67,0,0,1,4.83-.59,14.61,14.61,0,0,1,7.67,1.71c2,1.06,4.51,4.11,4.14,5.08A3.65,3.65,0,0,1,144,139c-.66.31-1.79.84-2.52,1.2l-1.33.64-.52-.64c-.29-.35-.82-1-1.17-1.47-1.06-1.38-2.67-2-5-2s-2.92.21-3.91,1.14a1.83,1.83,0,0,0-.68,1.53c0,1.56,1.3,2.39,5.93,3.8,7.3,2.22,9.66,3.8,10.67,7.12a6.68,6.68,0,0,1-.06,4.76c-.88,3-3.37,5.08-7.07,6a19.67,19.67,0,0,1-5.89.48Z"/><path d="M234.87,124.15h6.07v37.42h-6.07Z"/><path d="M51.65,123.29a9.13,9.13,0,1,0,9.12,9.13,9.13,9.13,0,0,0-9.12-9.13Zm0,2.91a6.22,6.22,0,1,1-6.22,6.22A6.22,6.22,0,0,1,51.65,126.2Z"/><path d="M51.65,143.53a9.13,9.13,0,1,0,9.12,9.12A9.12,9.12,0,0,0,51.65,143.53Zm0,2.9a6.22,6.22,0,1,1-6.22,6.22A6.23,6.23,0,0,1,51.65,146.43Z"/><path d="M64.94,124.09v37.48h6.71V146h17v-6.43h-17v-9.09H90.6v-6.43H64.94Z"/><path d="M167.35,131.59h7v30h-7Z"/><path d="M167.35,121.67h7v7.43h-7Z"/><path d="M175.86,131.59l11.48,30,6.67,0,11.44-30h-6.9l-7.92,21.48h-.21L183,131.59h-7.09Z"/><path d="M158.6,123,152,128.59v2.91H147.7v5.64H152v16a8.4,8.4,0,0,0,8.42,8.66,8.89,8.89,0,0,0,4.86-2l-.7-5.61c-1.38,1.42-4.35,1.8-5.48.45a3.86,3.86,0,0,1-.53-2.25V143.1h0v-6h5.59V131.5H158.6Z"/><path d="M217.73,131.59c-5.83,0-9.25,3.08-11.84,7.29l4.53,3.44a10.27,10.27,0,0,1,7.15-4.61c3.93.06,5.39,2.15,5.58,4.6-3.37.39-8.81.72-13.89,3.19A8.52,8.52,0,0,0,205.87,158c2.75,4.07,9.86,5,15.3,1.82a14.11,14.11,0,0,0,2.75-2.05l0,3.85,6.33-.06a59.51,59.51,0,0,1-.43-6c0-1.36-.08-15.11-.08-15.16s0-.08,0-.12v-.17h0c-.21-4.76-5.53-8.55-12-8.55Zm5.64,16.32s.35,2.62-.59,4.11a10.09,10.09,0,0,1-4.7,3.42c-2.29,1-6,.59-6.81-1.48s.77-4.46,3.49-5c2-.91,8.61-1.07,8.61-1.07Z"/></g></g></g></g></svg>