<svg xmlns="http://www.w3.org/2000/svg" width="210mm" height="190mm" viewBox="0 0 210 190">
  <path fill="#ffeead" d="M19.844 153.888c0-1.587 1.192-2.744 2.836-2.744h13.723c1.457 0 2.466.974 2.466 2.385 0 1.446-1.009 2.42-2.462 2.42H25.552v6.36h9.066c1.376 0 2.385.942 2.385 2.314 0 1.376-1.009 2.35-2.388 2.35h-9.067v6.83c0 1.626-1.192 2.783-2.868 2.783-1.644 0-2.836-1.157-2.836-2.783zm30.66 18.108c2.871 0 4.999-2.17 4.999-4.878 0-2.749-2.128-4.88-5-4.88-2.91 0-5.037 2.131-5.037 4.88 0 2.709 2.127 4.878 5.038 4.878m.074-14.6c5.969 0 10.333 4.155 10.333 9.612 0 5.458-4.551 9.793-10.52 9.793-5.97 0-10.333-4.155-10.333-9.613 0-5.457 4.55-9.793 10.52-9.793m19.544-3.796v20.348c0 1.553-1.119 2.674-2.724 2.674-1.64 0-2.758-1.118-2.758-2.674v-20.344c0-1.517 1.118-2.639 2.758-2.639 1.605 0 2.724 1.118 2.724 2.635m4.66-.035c0-1.517 1.122-2.6 2.723-2.6 1.567 0 2.689 1.083 2.689 2.6v12.361l7.644-7.479a2.681 2.681 0 0 1 1.94-.871c1.38 0 2.315.942 2.315 2.279 0 .688-.261 1.302-.748 1.77l-5.521 4.77 5.93 6.072a2.734 2.734 0 0 1 .67 1.735c0 1.411-1.005 2.42-2.497 2.42a2.861 2.861 0 0 1-2.202-1.118l-7.531-8.35v6.833c0 1.552-1.122 2.635-2.689 2.635-1.601 0-2.723-1.083-2.723-2.635zm26.109.035v20.348c0 1.553-1.118 2.674-2.724 2.674-1.64 0-2.758-1.118-2.758-2.674v-20.344c0-1.517 1.118-2.639 2.758-2.639 1.606 0 2.724 1.118 2.724 2.635m14.175 18.397c2.871 0 4.998-2.17 4.998-4.878 0-2.749-2.127-4.88-4.998-4.88-2.91 0-5.038 2.131-5.038 4.88 0 2.709 2.127 4.878 5.038 4.878m.07-14.6c5.973 0 10.336 4.155 10.336 9.612 0 5.458-4.55 9.793-10.52 9.793-5.968 0-10.332-4.155-10.332-9.61 0-5.457 4.55-9.796 10.52-9.796m13.874 2.494c0-1.376.97-2.314 2.385-2.314 1.418 0 2.424.942 2.424 2.314l.038 1.517c1.158-2.565 3.024-4.01 5.409-4.01 1.64 0 2.797 1.12 2.797 2.673 0 1.626-1.153 2.71-2.797 2.71-2.907 0-4.848 1.735-4.848 5.422v5.785c0 1.552-1.121 2.635-2.688 2.635-1.601 0-2.72-1.083-2.72-2.638zm21.11.364v13.694c0 1.553-1.118 2.674-2.723 2.674-1.64 0-2.762-1.118-2.762-2.674V160.25c0-1.552 1.122-2.674 2.762-2.674 1.605 0 2.724 1.122 2.724 2.674m-6.008-7.623c0-1.736 1.344-3.034 3.28-3.034 1.906 0 3.246 1.298 3.246 3.034 0 1.77-1.34 3.033-3.245 3.033-1.937 0-3.281-1.263-3.281-3.033m10.668.938c0-1.517 1.118-2.6 2.723-2.6 1.566 0 2.685 1.083 2.685 2.6v12.361l7.648-7.479a2.681 2.681 0 0 1 1.94-.871c1.376 0 2.31.942 2.31 2.279a2.42 2.42 0 0 1-.743 1.77l-5.521 4.77 5.93 6.072a2.727 2.727 0 0 1 .67 1.735c0 1.411-1.005 2.42-2.498 2.42a2.865 2.865 0 0 1-2.2-1.118l-7.536-8.35v6.83c0 1.552-1.119 2.638-2.685 2.638-1.605 0-2.723-1.083-2.723-2.638zm31.778 17.35c0-1.412-1.376-2.569-3.69-2.569-2.166 0-3.546 1.157-3.546 2.568 0 1.412 1.38 2.565 3.546 2.565 2.31 0 3.69-1.157 3.69-2.565m5.26-5.062v8.386c0 1.41-1.01 2.384-2.463 2.384-1.157 0-2.05-.649-2.31-1.661-1.457 1.227-3.507 1.841-5.747 1.841-4.621 0-7.422-2.381-7.422-5.672 0-3.288 2.945-5.856 7.574-5.856 2.01 0 3.69.508 4.92 1.34v-.797c0-2.604-1.827-4.011-4.363-4.011-1.527 0-2.498.398-3.394.868a3.01 2.917 0 0 1-1.27.289c-1.227 0-2.085-.833-2.085-1.99 0-.794.523-1.517 1.267-1.95.783-.505 2.723-1.623 6.565-1.623 5.37 0 8.728 3.14 8.728 8.452M160.867 80.798c0 33.316-27.01 60.325-60.325 60.325-33.317 0-60.325-27.009-60.325-60.325s27.008-60.325 60.325-60.325c33.316 0 60.325 27.009 60.325 60.325"/>
  <path fill="#ff6f69" d="M95.926 91.937v15.117c0 3.284-.931 5.782-2.79 7.485-1.863 1.704-4.576 2.558-8.139 2.558-3.506 0-6.226-.914-8.163-2.741-1.94-1.83-2.907-4.389-2.907-7.676V60.219c0-4.745.977-8.043 2.928-9.906 1.955-1.863 5.398-2.79 10.326-2.79h28.836c3.193 0 5.595.751 7.21 2.257 1.613 1.503 2.417 3.712 2.417 6.626 0 2.726-.79 4.804-2.37 6.233-1.58 1.425-3.892 2.138-6.932 2.138H95.93V75.38h14.697c3.1 0 5.397.692 6.882 2.071 1.489 1.376 2.233 3.51 2.233 6.392 0 2.73-.79 4.763-2.374 6.093-1.58 1.333-4.029 2-7.348 2z"/>
</svg>
