<svg xmlns="http://www.w3.org/2000/svg" viewBox="0 0 283.46 283.46"><defs><style>.cls-1{fill:#ea0001;}.cls-2{fill:#fff;}</style></defs><g id="Layer_2" data-name="Layer 2"><g id="Ostatní_CZ_kanály" data-name="Ostatní CZ kanály"><g id="hobbytv"><rect class="cls-1" width="283.46" height="283.46"/><g id="logo"><path class="cls-1" d="M229.82,96.32c20.17,37.91,13.92,91.3-27,123.45A98.73,98.73,0,0,1,69.46,209.54c-35.25-37.77-36-95.55-1.6-133.85s85.45-39.84,118-22.67a31,31,0,0,0,1.67,40.5,31,31,0,0,0,42.34,2.8Zm-40,78.26c5-.11,9.88.26,14.62-1.2,4.23-1.29,7.07-4,7.93-8.49a26.09,26.09,0,0,0,.45-4.66c0-9,0-18,0-26.94v-.92H204v20.91c0,2.38-.09,2.48-2.52,2.61h-.3c-1.88,0-2.79-.59-3.14-2.46a21.66,21.66,0,0,1-.36-3.86c0-5.35,0-10.71,0-16.06v-1.15H185.31v6.31h3.54c0,.5,0,.89,0,1.28.06,4.85,0,9.71.22,14.55.27,5.18,3.28,7.94,8.47,8.21a13.89,13.89,0,0,0,6.43-.92c.18,3.08-1,5-3.7,5.29-2.51.27-5,.4-7.55.56-.95.06-1.91,0-2.93,0Zm-60-12.93a50,50,0,0,0,14.76.94c5.34-.62,8.11-3,9-7.85a43.6,43.6,0,0,0,0-14.9,8.8,8.8,0,0,0-6.07-7.39,12.69,12.69,0,0,0-5.7-.61c-1.07.13-2.13.29-3.31.45V120.76H126.22v6.32h3.6Zm37.8-29.28V120.75H155.23v6.3h3.63v34.6a52.94,52.94,0,0,0,14.49,1c5.26-.46,8.4-3.08,9.26-7.82a44.89,44.89,0,0,0,.13-14.4c-.71-4.93-3.44-7.59-7.91-8.43A17.38,17.38,0,0,0,167.62,132.37ZM79.46,162.21V141.42c0-2.65.25-2.89,3-2.82.27,0,.53.05.79.07a2.69,2.69,0,0,1,2.67,2.38,19,19,0,0,1,.34,3.36c0,5.52,0,11,0,16.56v1.22H95V161c0-5.29,0-10.58,0-15.86,0-1.76-.06-3.53-.21-5.28-.38-4.53-2.7-7.21-6.94-7.87a25.08,25.08,0,0,0-4.67-.16c-1.22,0-2.43.28-3.78.44V120.75h-8.7v41.46Zm45.67-14.94H125c0-1.73.06-3.46,0-5.19-.22-5.32-3.23-9-8.4-9.88a28.34,28.34,0,0,0-7.13-.21c-5.18.46-8.55,3.38-9.29,8.33a46.63,46.63,0,0,0,0,14.2c.63,4,3.12,6.51,7,7.59a19.52,19.52,0,0,0,10.15.07,9.26,9.26,0,0,0,7.44-8.45C125.06,151.6,125,149.43,125.13,147.27Z"/><path class="cls-2" d="M141.79,42.52v2.83h0a92.5,92.5,0,0,1,39.8,8.72c-9.3,14.55-5.27,31.84,3.83,41.4A33.27,33.27,0,0,0,208,106.13c.78.05,1.56.07,2.32.07a33.1,33.1,0,0,0,18.52-5.64c16.83,34.75,12.8,85.13-27.78,117a95.27,95.27,0,0,1-59.34,20.57A96.32,96.32,0,0,1,71.53,207.6c-34.4-36.85-35.07-92.75-1.56-130a95.54,95.54,0,0,1,71.82-32.24V42.52m0,0A98.36,98.36,0,0,0,67.86,75.69c-34.43,38.3-33.65,96.08,1.6,133.85a98.71,98.71,0,0,0,133.31,10.23c41-32.15,47.22-85.54,27-123.45a30.79,30.79,0,0,1-19.54,7.05c-.7,0-1.41,0-2.13-.07a30.41,30.41,0,0,1-20.67-9.78A31,31,0,0,1,185.81,53a95,95,0,0,0-44-10.5Z"/><path class="cls-2" d="M230.35,64c-1,3-2,5.9-2.93,8.76-1.69,5-3.38,10.08-5,15.12a1,1,0,0,1-1.19.87c-1.66-.06-3.32,0-5,0a.86.86,0,0,1-1-.68q-3.86-11.69-7.74-23.35a6.48,6.48,0,0,1-.13-.7c2.27,0,4.48,0,6.7,0,.24,0,.59.53.69.87,1.24,4.34,2.45,8.69,3.67,13a2.51,2.51,0,0,0,.51,1c.17-.57.34-1.14.49-1.72,1.13-4.13,2.27-8.26,3.36-12.4.17-.66.43-.91,1.13-.89C226,64.07,228.08,64,230.35,64Z"/><path class="cls-2" d="M191.51,64h3V58h7c0,1.68.05,3.33,0,5,0,.87.22,1.14,1.11,1.13,2.58,0,2.58,0,3.4,2.44.29.87.57,1.75.88,2.74h-5.3c0,.37-.07.66-.07,1,0,3.33,0,6.65,0,10,0,2.58.94,3.39,3.52,3.15.58,0,1.17-.07,1.91-.12,0,1.74,0,3.39,0,5a.67.67,0,0,1-.44.41,15.66,15.66,0,0,1-6.71.25c-3.48-.89-5.38-3.56-5.41-7.74,0-3.52,0-7,0-10.57V69.3h-2.78Z"/><path class="cls-2" d="M189.79,174.58v-6.92c1,0,2,.05,2.93,0,2.52-.16,5-.29,7.55-.56,2.67-.28,3.88-2.21,3.7-5.29a13.89,13.89,0,0,1-6.43.92c-5.19-.27-8.2-3-8.47-8.21-.25-4.84-.16-9.7-.22-14.55,0-.39,0-.78,0-1.28h-3.54v-6.31h12.36v1.15c0,5.35,0,10.71,0,16.06a21.66,21.66,0,0,0,.36,3.86c.35,1.87,1.26,2.51,3.14,2.46h.3c2.43-.13,2.52-.23,2.52-2.61V132.37h8.8v.92c0,9,0,18,0,26.94a26.09,26.09,0,0,1-.45,4.66c-.86,4.45-3.7,7.2-7.93,8.49C199.67,174.84,194.75,174.47,189.79,174.58Z"/><path class="cls-2" d="M129.82,161.65V127.08h-3.6v-6.32h12.33v11.53c1.18-.16,2.24-.32,3.31-.45a12.69,12.69,0,0,1,5.7.61,8.8,8.8,0,0,1,6.07,7.39,43.6,43.6,0,0,1,0,14.9c-.89,4.83-3.66,7.23-9,7.85A50,50,0,0,1,129.82,161.65Zm8.77-14.37c0,2.52,0,5.05,0,7.57,0,.76.27,1,1,1s1.66,0,2.49,0c2,0,3-.73,3.1-2.72.19-2.78.16-5.58.18-8.36a25.29,25.29,0,0,0-.2-3.48,3,3,0,0,0-3.43-3,17.66,17.66,0,0,0-2.26.35c-.63.09-.85.41-.84,1.07C138.61,142.29,138.59,144.78,138.59,147.28Z"/><path class="cls-2" d="M167.62,132.37a17.38,17.38,0,0,1,7.21-.39c4.47.84,7.2,3.5,7.91,8.43a44.89,44.89,0,0,1-.13,14.4c-.86,4.74-4,7.36-9.26,7.82a52.94,52.94,0,0,1-14.49-1v-34.6h-3.63v-6.3h12.39Zm0,14.94c0,2.53,0,5.06,0,7.58,0,.69.23,1,.9,1,1,0,2.07,0,3.09,0a2.38,2.38,0,0,0,2.41-2,7.4,7.4,0,0,0,.24-1.67c0-3.16.06-6.32,0-9.48-.08-3.77-1.87-5.06-5.54-4.09l-.09,0c-.77.08-1,.48-1,1.26C167.67,142.39,167.64,144.85,167.64,147.31Z"/><path class="cls-2" d="M79.46,162.21H70.74V120.75h8.7v11.54c1.35-.16,2.56-.4,3.78-.44a25.08,25.08,0,0,1,4.67.16c4.24.66,6.56,3.34,6.94,7.87.15,1.75.2,3.52.21,5.28,0,5.28,0,10.57,0,15.86v1.17H86.25V161c0-5.52,0-11,0-16.56a19,19,0,0,0-.34-3.36,2.69,2.69,0,0,0-2.67-2.38c-.26,0-.52-.07-.79-.07-2.72-.07-3,.17-3,2.82v20.79Z"/><path class="cls-2" d="M125.13,147.27c-.1,2.16-.07,4.33-.33,6.46a9.26,9.26,0,0,1-7.44,8.45,19.52,19.52,0,0,1-10.15-.07c-3.89-1.08-6.38-3.6-7-7.59a46.63,46.63,0,0,1,0-14.2c.74-4.95,4.11-7.87,9.29-8.33a28.34,28.34,0,0,1,7.13.21c5.17.87,8.18,4.56,8.4,9.88.07,1.73,0,3.46,0,5.19Zm-8.93.11c0-1.66.08-3.32,0-5a3.38,3.38,0,0,0-3.71-3.54c-2.24,0-3.69,1.14-3.78,3.46-.15,3.38-.13,6.78,0,10.16.07,2.15,1.46,3.21,3.77,3.2s3.61-1.07,3.74-3.22C116.28,150.77,116.2,149.07,116.2,147.38Z"/></g></g></g></g></svg>