<?xml version="1.0" encoding="utf-8"?>
<!-- Generator: Adobe Illustrator 24.3.0, SVG Export Plug-In . SVG Version: 6.00 Build 0)  -->
<svg version="1.1" id="Слой_1" xmlns="http://www.w3.org/2000/svg" xmlns:xlink="http://www.w3.org/1999/xlink" x="0px" y="0px"
	 viewBox="0 0 512 512" style="enable-background:new 0 0 512 512;" xml:space="preserve">
<style type="text/css">
	.st0{clip-path:url(#SVGID_2_);fill-rule:evenodd;clip-rule:evenodd;fill:#E31013;}
	.st1{clip-path:url(#SVGID_2_);fill-rule:evenodd;clip-rule:evenodd;fill:#FFFFFF;}
</style>
<g>
	<defs>
		<rect id="SVGID_1_" width="512" height="512"/>
	</defs>
	<clipPath id="SVGID_2_">
		<use xlink:href="#SVGID_1_"  style="overflow:visible;"/>
	</clipPath>
	<path class="st0" d="M432.4,157c-44.1,0-80-36-80-80c0-19,6.6-36.3,17.7-50.1C335.7,9.7,297,0,256,0C115,0,0,114.9,0,256
		s115,256,256,256c141,0,256-115,256-256c0-42.3-10.3-82.2-28.6-117.4C469.5,150,451.7,157,432.4,157"/>
	<path class="st1" d="M300.2,218v89.3c12.3,2.3,22.4,2.9,30.9,2.9c26.2,0,31.5-14.6,31.5-33.5v-14.6c0-21.8-10.3-31.3-27.3-31.8
		c-4.8,0-9.3,0.8-12.7,1.7v-30.3h-32V218H300.2z M322.7,248.9c1.7-0.8,5.1-1.7,7.5-1.7c6.3,0,9.9,2,9.9,14.2v19.1
		c0,9.9-2.7,12.2-9,12.2c-2.4,0-6.5,0-8.4-0.6V248.9z"/>
	<path class="st1" d="M225.4,218v89.3c12.3,2.3,22.4,2.9,30.9,2.9c26.2,0,31.5-14.6,31.5-33.5v-14.6c0-21.8-10.3-31.3-27.3-31.8
		c-4.8,0-9.3,0.8-12.7,1.7v-30.3h-32V218H225.4z M247.8,248.9c1.7-0.8,5.1-1.7,7.5-1.7c6.3,0,9.9,2,9.9,14.2v19.1
		c0,9.9-2.7,12.2-9,12.2c-2.4,0-6.5,0-8.4-0.6V248.9z"/>
	<path class="st1" d="M212.8,262c0-9.8-0.9-31.6-32.5-31.6c-31.5,0-32.4,22-32.4,31.6v16.6c0,9.8,0.9,31.6,32.4,31.6
		c31.6,0,32.5-21.9,32.5-31.6V262z M190.4,280.5c0,4.2-0.3,11.6-10.1,11.6c-9.6,0-9.9-7.4-9.9-11.6v-19.4c0-4.1,0.3-12.7,9.9-12.7
		c9.8,0,10.1,8.5,10.1,12.7V280.5z"/>
	<path class="st1" d="M403.6,310.2c3.6,0,8.7-0.5,13.4-2.9c0,5.3-1.3,11-5.7,13c-6.5,2.9-19.3,2.7-31.3,2.7v17.7
		c14.9,0,26.7,0,36.7-2.7c22.5-7,22.6-24.3,22.6-39.2v-67.1h-22.5v59.5c-2.4,0.9-5.6,1.5-8.4,1.5c-8,0-8.1-8.4-8.1-19.6v-41.4h-32
		V248h9.4v32.9C377.7,299.7,383.1,310.2,403.6,310.2"/>
	<path class="st1" d="M112.9,308.9h22.4v-49.1c0-18.8-5.4-29.4-25.9-29.4c-4.3,0-10.1,0.6-14.3,1.7v-30.3H72.7v107.1h22.5V249
		c1.7-0.6,5.1-1.2,7.1-1.2c7.2,0,10.7,1.8,10.7,15.4V308.9z"/>
	<polygon class="st0" points="446.1,119.3 463.3,119.3 484.8,55.4 465.7,55.4 454.9,95.1 443.7,55.4 424.9,55.4 	"/>
	<path class="st0" d="M424.2,104.7c-5.2,0.6-6.1,0.6-8,0.6c-3,0-6-1.7-6-7.1V69H424l-4.5-13.6h-9.3V39.5h-18.1l-0.1,15.8h-8V69h7.5
		v31.4c0.4,13.7,8.8,20.1,20.3,20.1c2.9,0,7.5-0.6,12.4-1.5V104.7z"/>
</g>
</svg>
