<svg xmlns="http://www.w3.org/2000/svg" viewBox="0 0 283.46 283.46"><defs><style>.cls-1{fill:#fff;}.cls-2{fill:#be1f2d;}</style></defs><title>hororfilm</title><g id="Layer_2" data-name="Layer 2"><g id="Ostatní_CZ_kanály" data-name="Ostatní CZ kanály"><g id="hororfilm"><rect width="283.46" height="283.46"/><g id="logo"><path class="cls-1" d="M53.58,78.91v22.8H65.15V78.91H76.21v56.91H65.15V112H53.58v23.81H42.52V78.91Z"/><path class="cls-1" d="M94.7,107.36c0,12.92,2.45,19.51,6.93,19.51,4.72,0,6.5-8.45,6.5-20,0-10-1.52-19-6.59-19-4.39,0-6.84,7.27-6.84,19.51m24.91-1c0,21.45-7.59,30.15-18.4,30.15-12.93,0-18-13.68-18-29.3s6.17-29,18.84-29c13.68,0,17.56,15.12,17.56,28.12"/><path class="cls-1" d="M137.69,104.58h2c4.81,0,7.51-3.88,7.51-8.86s-1.93-8.29-6.85-8.46l-2.68.34ZM126.62,79.76a64.73,64.73,0,0,1,12.08-1.1c6.07,0,11.57.92,15.2,4.21,3.46,3.13,4.55,6.93,4.55,11.83,0,6.08-3,11.57-8.78,14.18v.17c3.89,1.61,5.83,5.15,6.93,11.32,1.1,6.34,2.61,13.34,3.62,15.45H148.66c-.76-1.61-2-7.34-2.87-13.67-1-7-2.78-9-6.42-9h-1.68v22.71H126.62Z"/><path class="cls-1" d="M217.28,104.58h2c4.81,0,7.51-3.88,7.51-8.86s-1.94-8.29-6.85-8.46l-2.69.34ZM206.22,79.76a64.81,64.81,0,0,1,12.08-1.1c6.07,0,11.57.92,15.18,4.21C237,86,238.06,89.8,238.06,94.7a15.07,15.07,0,0,1-8.79,14.18v.17c3.89,1.61,5.83,5.15,6.93,11.32,1.1,6.34,2.61,13.34,3.63,15.45H228.26c-.76-1.61-2-7.34-2.88-13.67-1-7-2.77-9-6.41-9h-1.69v22.71H206.22V79.76Z"/><path class="cls-1" d="M43.32,144.07H54.25v4.25h-6v6.45h5.68v4.06H48.2v10.38H43.32Z"/><path class="cls-1" d="M106.31,169.21h-4.88V144.07h4.88Z"/><path class="cls-1" d="M159,144.07h4.87v21h6.43v4.14H159Z"/><path class="cls-1" d="M236.15,160.41c-.17-2.39-.32-5.63-.27-8.32h-.08c-.44,2.69-1.1,5.78-1.6,7.72l-2.2,9h-3.43L226.48,160c-.48-2-1.15-5.15-1.57-7.87h-.08c-.06,2.72-.25,5.88-.37,8.38l-.44,8.74h-4.19l1.79-25.14h5.19l2,9.1c.67,3.17,1.3,6,1.75,8.8h.12c.36-2.79.93-5.63,1.56-8.8l2-9.1h5.15l1.52,25.14h-4.36l-.43-8.8Z"/><path class="cls-2" d="M181.92,126.87c-4.46,0-6.92-6.59-6.92-19.51,0-12.24,2.46-19.5,6.85-19.5,5.06,0,6.58,9,6.58,19,0,11.57-1.77,20-6.51,20M195.63,128c2.72-4.85,4.28-12,4.28-21.66,0-13-3.88-28.13-17.56-28.13-12.68,0-18.84,13.43-18.84,29,0,8.1,1.38,15.67,4.49,21.08,1.77,8-1.09,14.63,4,14.51,4-.08,2.27-4.37,3.56-7.44l2.3.75c.4,3,.86,7.07,1.09,11.67.46,9.06-1.82,29.46-2.73,39.89s5.45,19.48,11.35,17.22,2.26-11.34.45-19.49c-1.62-7.28-2.52-32.6-3-49.23a15.19,15.19,0,0,0,3.56-1.18c2,12.24-1.5,20.11,4.79,19.45,6.09-.65,0-15.46,2.27-26.41"/></g></g></g></g></svg>