<svg xmlns="http://www.w3.org/2000/svg" viewBox="0 0 283.46 283.46"><defs><style>.cls-1{fill:#fff;}.cls-2{fill:#be1f2d;}</style></defs><title>hororfilm</title><g id="Layer_2" data-name="Layer 2"><g id="Ostatní_CZ_kanály" data-name="Ostatní CZ kanály"><g id="hororfilm"><rect width="283.46" height="283.46"/><g id="logo"><path class="cls-1" d="M53.58,78.91v22.8H65.15V78.91H76.21v56.91H65.15V112H53.58v23.81H42.52V78.91Z"/><path class="cls-1" d="M94.7,107.36c0,12.92,2.45,19.51,6.92,19.51,4.73,0,6.5-8.45,6.5-20,0-10-1.52-19-6.58-19-4.39,0-6.84,7.27-6.84,19.51m24.91-1c0,21.45-7.59,30.15-18.41,30.15-12.93,0-18-13.67-18-29.3s6.17-29,18.83-29c13.69,0,17.57,15.11,17.57,28.11"/><path class="cls-1" d="M137.69,104.58h2c4.81,0,7.51-3.89,7.51-8.86s-1.94-8.29-6.85-8.46l-2.69.34ZM126.62,79.76a64.92,64.92,0,0,1,12.07-1.1c6.07,0,11.57.92,15.2,4.21,3.46,3.12,4.55,6.92,4.55,11.82,0,6.09-3,11.57-8.77,14.19V109c3.89,1.61,5.82,5.15,6.92,11.32,1.1,6.34,2.61,13.34,3.62,15.45H148.66c-.76-1.61-2-7.34-2.87-13.67-1-7-2.77-9-6.41-9h-1.69v22.71H126.62Z"/><path class="cls-1" d="M217.28,104.58h2c4.81,0,7.51-3.89,7.51-8.86s-1.94-8.29-6.85-8.46l-2.69.34ZM206.22,79.76a65,65,0,0,1,12.07-1.1c6.07,0,11.57.92,15.19,4.21C237,86,238.06,89.8,238.06,94.7c0,6.09-3,11.57-8.79,14.19V109c3.89,1.61,5.82,5.15,6.92,11.32,1.1,6.34,2.61,13.34,3.64,15.45H228.26c-.76-1.61-2-7.34-2.87-13.67-1-7-2.77-9-6.41-9h-1.69v22.71H206.22V79.76Z"/><path class="cls-1" d="M43.32,144.07H54.25v4.25h-6v6.45h5.67v4.06H48.2v10.37H43.32Z"/><path class="cls-1" d="M106.31,169.21h-4.88V144.07h4.88Z"/><path class="cls-1" d="M158.95,144.07h4.87v21h6.42v4.14h-11.3Z"/><path class="cls-1" d="M236.15,160.41c-.16-2.39-.31-5.62-.26-8.31h-.09c-.44,2.69-1.1,5.77-1.6,7.71l-2.2,9h-3.42L226.48,160c-.49-2-1.15-5.15-1.57-7.86h-.07c-.06,2.71-.25,5.87-.37,8.37l-.44,8.74h-4.19l1.79-25.14h5.19l2,9.1c.66,3.17,1.3,6,1.75,8.8h.11c.36-2.79.94-5.62,1.56-8.8l2-9.1h5.15l1.52,25.14h-4.36l-.44-8.8Z"/><path class="cls-2" d="M181.92,126.87c-4.46,0-6.92-6.59-6.92-19.51,0-12.24,2.46-19.5,6.85-19.5,5.06,0,6.59,9,6.59,19,0,11.57-1.77,20-6.51,20M195.63,128c2.71-4.85,4.27-11.95,4.27-21.66,0-13-3.87-28.12-17.56-28.12-12.67,0-18.84,13.42-18.84,29,0,8.1,1.37,15.67,4.49,21.09,1.77,8-1.09,14.62,4,14.51,4-.09,2.27-4.37,3.56-7.45l2.3.75c.4,2.95.86,7.07,1.09,11.67.46,9.06-1.81,29.46-2.72,39.89s5.45,19.49,11.35,17.22,2.26-11.34.45-19.49c-1.62-7.29-2.52-32.6-3-49.24a15.27,15.27,0,0,0,3.56-1.17c2,12.24-1.5,20.11,4.79,19.45,6.09-.65,0-15.46,2.27-26.41"/></g></g></g></g></svg>