<?xml version="1.0" encoding="iso-8859-1"?>
<!-- Generator: Adobe Illustrator 25.3.1, SVG Export Plug-In . SVG Version: 6.00 Build 0)  -->
<svg version="1.1" id="&#x428;&#x430;&#x440;_1" xmlns="http://www.w3.org/2000/svg" xmlns:xlink="http://www.w3.org/1999/xlink"
	 x="0px" y="0px" viewBox="0 0 581.918 571" style="enable-background:new 0 0 581.918 571;" xml:space="preserve">
<linearGradient id="SVGID_1_" gradientUnits="userSpaceOnUse" x1="0" y1="285.5" x2="581.9183" y2="285.5">
	<stop  offset="0" style="stop-color:#F02D4F"/>
	<stop  offset="1" style="stop-color:#D43C4F"/>
</linearGradient>
<path style="fill:url(#SVGID_1_);" d="M481.893,270.945L481.893,270.945c0,105.461-85.485,190.946-190.946,190.946
	c-120.523,0-218.217-97.692-218.217-218.217C72.731,121.589,161.193,20.174,277.497,0C123.997,1.365,0,126.205,0,280.028
	C0,440.725,130.25,571,290.947,571c160.697,0,290.971-130.275,290.971-290.972c0-120.523-97.718-218.217-218.216-218.217
	c-104.468,0-189.134,84.666-189.134,189.134c0,68.289,55.36,123.649,123.649,123.649c14.715,0,28.834-2.579,41.936-7.294
	c-0.645,0.024-1.29,0.024-1.911,0.024c-53.252,0-96.404-43.152-96.404-96.379c0-66.278,53.747-120.026,120.027-120.026
	C428.17,150.919,481.893,204.667,481.893,270.945"/>
</svg>
