<?xml version="1.0" standalone="yes"?>
<svg xmlns="http://www.w3.org/2000/svg" width="1024" height="1024">
<path style="fill:#ff0101; stroke:none;" d="M0 0L0 1024L1024 1024L1024 0L0 0z"/>
<path style="fill:#ffffff; stroke:none;" d="M325 552L325 551C292.119 550.909 269.891 519.055 279.208 488C288.433 457.255 322.434 438.686 353 448.749C397.693 463.463 401.606 516.89 379.935 552C356.77 589.531 311.825 605.935 270 592.975C257.273 589.031 245.456 583.004 235 574.714C173.014 525.574 185.875 431.548 249 389.667C261.966 381.065 278.285 373.284 294 372C286.889 369.016 276.353 371.386 269 372.805C246.687 377.109 225.759 386.573 208 400.808C146.531 450.079 139.264 548.693 194.039 606C215.399 628.347 241.558 643.757 272 649.8C298.067 654.974 327.188 652.802 352 643.189C423.598 615.451 471.771 520.945 427.305 451C390.974 393.852 302.551 380.991 260.159 439C245.538 459.008 238.256 487.682 244.921 512C253.856 544.605 293.203 565.681 325 552z"/>
<path style="fill:#1c1a4b; stroke:none;" d="M496 411L469.75 559L458 627L703 627L766 627L789.4 625.972L793.25 611L800.4 572L830 410L496 411z"/>
<path style="fill:#ffffff; stroke:none;" d="M837 410L806.576 575L797 628L828 628C833.793 554.715 861.168 483.268 867 410L837 410z"/>
<path style="fill:#ff7d7d; stroke:none;" d="M865 419L866 420L865 419M863 430L864 431L863 430z"/>
<path style="fill:#a6a3b6; stroke:none;" d="M574 433L574 434L580 434L574 433z"/>
<path style="fill:#ffffff; stroke:none;" d="M515 495L554 495C556.318 485.242 562.21 473.579 572 469.613C591.122 461.867 594.222 484.701 587.677 497C575.399 520.072 550.04 537.473 529 551.975C521.476 557.161 508.156 561.913 502.738 569.213C497.134 576.765 497.723 592.856 496 602L581 602C587.718 602 605.958 605.228 611.258 600.972C613.526 599.152 613.481 594.629 613.92 592C615.306 583.697 617.336 575.401 618 567L563 567C580.848 552.613 598.731 538.807 613.385 521C620.134 512.798 626.402 503.817 630.572 494C632.834 488.673 634.569 482.81 634.907 477C636.961 441.694 600.974 429.984 572 434.299C540.296 439.021 520.512 465.419 515 495z"/>
<path style="fill:#a6a3b6; stroke:none;" d="M586 433L586 434L594 434L586 433M569.667 434.333L570.333 434.667L569.667 434.333M598.667 434.333L599.333 434.667L598.667 434.333M565.667 435.333L566.333 435.667L565.667 435.333M603.667 435.333L604.333 435.667L603.667 435.333M562.667 436.333L563.333 436.667L562.667 436.333M606.667 436.333L607.333 436.667L606.667 436.333M728 440C739.399 433.729 757.22 437 770 437C761.878 433.592 733.711 433.143 728 440M559.667 437.333L560.333 437.667L559.667 437.333M609.667 437.333L610.333 437.667L609.667 437.333z"/>
<path style="fill:#ffffff; stroke:none;" d="M633 573L706 573L701 601L728 601C731.1 601 736.662 602.036 739.262 599.972C744.018 596.197 744.538 578.849 745 573L764 573L770 541C765.998 541 755.453 542.874 753.198 538.682C750.165 533.047 755.805 517.174 757 511C761.759 486.415 765.363 461.609 770 437C759.542 437 740.373 433.287 731.004 438.028C719.337 443.931 708.473 462.199 699.845 472C686.912 486.69 674.074 501.504 660.925 516C653.857 523.793 643.444 532.445 638.899 542C634.842 550.529 633.741 563.631 633 573z"/>
<path style="fill:#a6a3b6; stroke:none;" d="M557 438L558 439L557 438M612 438L613 439L612 438M555 439L556 440L555 439M614 439L615 440L614 439M769 439L769 442L770 442L769 439M553 440L554 441L553 440M616 440L617 441L616 440M551 441L552 442L551 441z"/>
<path style="fill:#ff7d7d; stroke:none;" d="M861 441L862 442L861 441z"/>
<path style="fill:#a6a3b6; stroke:none;" d="M549 442L550 443L549 442M619 442L620 443L619 442M547 443L548 444L547 443M620 443L621 444L620 443M546 444L547 445L546 444M724 444L725 445L724 444M723 445L724 446L723 445M768 445L768 448L769 448L768 445M543 446L544 447L543 446M722 446L723 447L722 446M721 447L722 448L721 447M540 448L541 449L540 448M539 449L540 450L539 449M626 449L627 450L626 449M538 450L539 451L538 450M627 450L628 451L627 450M537 451L538 452L537 451M767 451L767 454L768 454L767 451M536 452L537 453L536 452M717 452L718 453L717 452z"/>
<path style="fill:#ff7d7d; stroke:none;" d="M859 452L860 453L859 452z"/>
<path style="fill:#a6a3b6; stroke:none;" d="M629 453L630 454L629 453M716 453L717 454L716 453M715 454L716 455L715 454M630 455L631 456L630 455M714 455L715 456L714 455M713 456L714 457L713 456M766 456L766 459L767 459L766 456M531 457L532 458L531 457M631 457L632 458L631 457M530 458L531 459L530 458M529 459L530 460L529 459M632.333 459.667L632.667 460.333L632.333 459.667M709 461L710 462L709 461M527 462L528 463L527 462M708 462L709 463L708 462M765 462L765 465L766 465L765 462M526 463L527 464L526 463M633.333 463.667L633.667 464.333L633.333 463.667M707 463L708 464L707 463z"/>
<path style="fill:#ff7d7d; stroke:none;" d="M857 463L858 464L857 463z"/>
<path style="fill:#a6a3b6; stroke:none;" d="M706 464L707 465L706 464M705 465L706 466L705 465M524 466L525 467L524 466M634 467L634 471L635 471L634 467M523 468L524 469L523 468M575 468L575 469L581 469L575 468M764 468L764 471L765 471L764 468M571.667 469.333L572.333 469.667L571.667 469.333M583.667 469.333L584.333 469.667L583.667 469.333M522 470L523 471L522 470M569 470L570 471L569 470M586 470L587 471L586 470M701 470L702 471L701 470M521 471L522 472L521 471M587 471L588 472L587 471M700 471L701 472L700 471M566 472L567 473L566 472M588 472L589 473L588 472M699 472L700 473L699 472M520 473L521 474L520 473M565 473L566 474L565 473M589 473L590 474L589 473M698 473L699 474L698 473M564 474L565 475L564 474M763.333 474.667L763.667 475.333L763.333 474.667z"/>
<path style="fill:#ff7d7d; stroke:none;" d="M855 474L856 475L855 474z"/>
<path style="fill:#a6a3b6; stroke:none;" d="M563 475L564 476L563 475M590 475L591 476L590 475M519 476L520 477L519 476M562 476L563 477L562 476M518 478L519 479L518 478M591.333 478.667L591.667 479.333L591.333 478.667M694 478L695 479L694 478M560 479L561 480L560 479M693 479L694 480L693 479M762 479L762 482L763 482L762 479M634 480L634 483L635 483L634 480M692 480L693 481L692 480M517.333 481.667L517.667 482.333L517.333 481.667M559 481L560 482L559 481M691 481L692 482L691 481M690 482L691 483L690 482M516.333 484.667L516.667 485.333L516.333 484.667M557 485L558 486L557 485M591 485L591 488L592 488L591 485M633.333 485.667L633.667 486.333L633.333 485.667M724 485L724 489L725 489L724 485M761 485L761 488L762 488L761 485z"/>
<path style="fill:#ff7d7d; stroke:none;" d="M853 485L854 486L853 485z"/>
<path style="fill:#1c1a4b; stroke:none;" d="M723 486L681 540C689.487 540 705.999 543.229 713.566 539.397C717.035 537.64 716.854 530.338 717.414 527C719.18 516.466 727.038 495.9 723 486z"/>
<path style="fill:#a6a3b6; stroke:none;" d="M556 487L557 488L556 487M686 487L687 488L686 487M722 487L723 488L722 487M685 488L686 489L685 488M721 488L722 489L721 488M515 489L515 493L516 493L515 489M555 489L556 490L555 489M632 489L633 490L632 489M684 489L685 490L684 489z"/>
<path style="fill:#ff7d7d; stroke:none;" d="M822 489L823 490L822 489z"/>
<path style="fill:#a6a3b6; stroke:none;" d="M590 490L591 491L590 490M683 490L684 491L683 490M631.333 491.667L631.667 492.333L631.333 491.667M682 491L683 492L682 491M760.333 491.667L760.667 492.333L760.333 491.667M554 492L555 493L554 492M718 492L719 493L718 492M723.333 492.667L723.667 493.333L723.333 492.667M589 493L590 494L589 493M717 493L718 494L717 493M630 494L631 495L630 494M515 495L515 496L554 496C543.726 491.689 526.172 495 515 495M588 495L589 496L588 495M629 496L630 497L629 496M678 496L679 497L678 496M759 496L759 499L760 499L759 496z"/>
<path style="fill:#ff7d7d; stroke:none;" d="M851 496L852 497L851 496z"/>
<path style="fill:#a6a3b6; stroke:none;" d="M587 497L588 498L587 497M677 497L678 498L677 497M714 497L715 498L714 497M722 497L722 500L723 500L722 497M628 498L629 499L628 498M676 498L677 499L676 498M713 498L714 499L713 498M586 499L587 500L586 499M675 499L676 500L675 499M585 500L586 501L585 500M627 500L628 501L627 500M674 500L675 501L674 500M584 502L585 503L584 502M626 502L627 503L626 502M710 502L711 503L710 502M758 502L758 505L759 505L758 502M583 503L584 504L583 503M625 503L626 504L625 503M709 503L710 504L709 503M721 503L721 506L722 506L721 503M582 505L583 506L582 505M624 505L625 506L624 505M670 505L671 506L670 505M581 506L582 507L581 506M669 506L670 507L669 506M623 507L624 508L623 507M668 507L669 508L668 507M706 507L707 508L706 507z"/>
<path style="fill:#ff7d7d; stroke:none;" d="M849 507L850 508L849 507z"/>
<path style="fill:#a6a3b6; stroke:none;" d="M622 508L623 509L622 508M667 508L668 509L667 508M705 508L706 509L705 508M757 508L757 511L758 511L757 508M720 509L720 512L721 512L720 509M578 510L579 511L578 510M577 511L578 512L577 511M620 511L621 512L620 511M576 512L577 513L576 512M702 512L703 513L702 512M575 513L576 514L575 513M663 513L664 514L663 513M701 513L702 514L701 513M756 513L756 516L757 516L756 513M574 514L575 515L574 514M618 514L619 515L618 514M662 514L663 515L662 514M617 515L618 516L617 515M661 515L662 516L661 515M719 515L719 518L720 518L719 515M660 516L661 517L660 516M659 517L660 518L659 517M698 517L699 518L698 517M615 518L616 519L615 518M697 518L698 519L697 518z"/>
<path style="fill:#ff7d7d; stroke:none;" d="M847 518L848 519L847 518z"/>
<path style="fill:#a6a3b6; stroke:none;" d="M569 519L570 520L569 519M614 519L615 520L614 519M755 519L755 522L756 522L755 519M568 520L569 521L568 520M613 520L614 521L613 520M718 520L718 523L719 523L718 520M567 521L568 522L567 521M566 522L567 523L566 522M655 522L656 523L655 522M694 522L695 523L694 522M565 523L566 524L565 523M654 523L655 524L654 523M693 523L694 524L693 523M564 524L565 525L564 524M610 524L611 525L610 524M653 524L654 525L653 524M563 525L564 526L563 525M609 525L610 526L609 525M652 525L653 526L652 525M754 525L754 528L755 528L754 525M608 526L609 527L608 526M651 526L652 527L651 526M717 526L717 529L718 529L717 526M607 527L608 528L607 527M690 527L691 528L690 527M559 528L560 529L559 528M606 528L607 529L606 528M689 528L690 529L689 528M558 529L559 530L558 529M605 529L606 530L605 529z"/>
<path style="fill:#ff7d7d; stroke:none;" d="M845 529L846 530L845 529z"/>
<path style="fill:#a6a3b6; stroke:none;" d="M557 530L558 531L557 530M753 530L753 533L754 533L753 530M556 531L557 532L556 531M647 531L648 532L647 531M646 532L647 533L646 532M686 532L687 533L686 532M716 532L716 535L717 535L716 532M553 533L554 534L553 533M645 533L646 534L645 533M685 533L686 534L685 533M552 534L553 535L552 534M644 534L645 535L644 534M684 534L685 535L684 534M551 535L552 536L551 535M752 536L752 539L753 539L752 536M548 537L549 538L548 537M682 537L683 538L682 537M547 538L548 539L547 538M681 538L682 539L681 538M715.333 538.667L715.667 539.333L715.333 538.667M546 539L547 540L546 539M640 539L641 540L640 539M680 539L681 540L680 539M594 540L595 541L594 540M639 540L640 541L639 540M753 540L753 541L770 541L753 540z"/>
<path style="fill:#ff7d7d; stroke:none;" d="M843 540L844 541L843 540z"/>
<path style="fill:#a6a3b6; stroke:none;" d="M543 541L544 542L543 541M593 541L594 542L593 541M638 541L639 542L638 541M542 542L543 543L542 542M592 542L593 543L592 542M591 543L592 544L591 543M769.333 543.667L769.667 544.333L769.333 543.667M539 544L540 545L539 544M590 544L591 545L590 544M637 544L637 547L638 547L637 544M538 545L539 546L538 545M589 545L590 546L589 545M536 546L537 547L536 546M588 546L589 547L588 546M535 547L536 548L535 547M768 548L768 551L769 551L768 548M532 549L533 550L532 549M584 549L585 550L584 549M636 549L636 552L637 552L636 549M531 550L532 551L531 550M583 550L584 551L583 550M529 551L530 552L529 551M582 551L583 552L582 551z"/>
<path style="fill:#ff7d7d; stroke:none;" d="M841 551L842 552L841 551z"/>
<path style="fill:#a6a3b6; stroke:none;" d="M528 552L529 553L528 552M581 552L582 553L581 552M526 553L527 554L526 553M767 553L767 556L768 556L767 553M525 554L526 555L525 554M578 554L579 555L578 554M523 555L524 556L523 555M577 555L578 556L577 555M635 555L635 558L636 558L635 555M522 556L523 557L522 556M576 556L577 557L576 556M520 557L521 558L520 557M519 558L520 559L519 558M573 558L574 559L573 558M766 558L766 561L767 561L766 558M517 559L518 560L517 559M572 559L573 560L572 559z"/>
<path style="fill:#ff7d7d; stroke:none;" d="M809 559L810 560L809 559z"/>
<path style="fill:#a6a3b6; stroke:none;" d="M571 560L572 561L571 560M514 561L515 562L514 561M569 561L570 562L569 561M634.333 561.667L634.667 562.333L634.333 561.667M512 562L513 563L512 562M568 562L569 563L568 562z"/>
<path style="fill:#ff7d7d; stroke:none;" d="M839 562L840 563L839 562z"/>
<path style="fill:#a6a3b6; stroke:none;" d="M567 563L568 564L567 563M765 563L765 566L766 566L765 563M509 564L510 565L509 564M507 565L508 566L507 565M563 566L563 567L577 567L563 566M505 566L506 567L505 566M633 566L633 569L634 569L633 566M618 567L619 568L618 567M502 568L503 569L502 568M764 568L764 571L765 571L764 568M501.333 569.667L501.667 570.333L501.333 569.667M617 571L617 574L618 574L617 571M632 572L633 573L632 572M745.333 573.667L745.667 574.333L745.333 573.667z"/>
<path style="fill:#ff7d7d; stroke:none;" d="M837 573L838 574L837 573z"/>
<path style="fill:#a6a3b6; stroke:none;" d="M500.333 574.667L500.667 575.333L500.333 574.667M705 575L705 578L706 578L705 575M616 577L616 580L617 580L616 577M744 577L744 580L745 580L744 577M499 579L499 582L500 582L499 579M704 580L704 583L705 583L704 580M615.333 583.667L615.667 584.333L615.333 583.667M743 583L743 586L744 586L743 583z"/>
<path style="fill:#ff7d7d; stroke:none;" d="M835 584L836 585L835 584z"/>
<path style="fill:#a6a3b6; stroke:none;" d="M498 585L498 588L499 588L498 585M703.333 585.667L703.667 586.333L703.333 585.667M614 588L614 591L615 591L614 588M742 588L742 591L743 591L742 588M702.333 590.667L702.667 591.333L702.333 590.667M497 591L497 594L498 594L497 591M613 594L613 597L614 597L613 594M741.333 594.667L741.667 595.333L741.333 594.667M701.333 595.667L701.667 596.333L701.333 595.667M496 597L496 600L497 600L496 597M740 599C732.758 604.487 708.717 602.075 700 600C703.853 605.278 725.449 602 732 602C734.602 602 741.543 603.095 740 599M612.333 600.667L612.667 601.333L612.333 600.667z"/>
</svg>
