<svg xmlns="http://www.w3.org/2000/svg" viewBox="0 0 283.46 283.46"><defs><style>.cls-1{fill:#e91052;}.cls-2{fill:#bdbcbc;}.cls-3{fill:#fff;}</style></defs><title>jojcinemaplus1</title><g id="Layer_2" data-name="Layer 2"><g id="Slovakia"><g id="jojcinemaplus1"><rect class="cls-1" width="283.46" height="283.46"/><g id="logo"><path class="cls-2" d="M112.63,129.64a2.15,2.15,0,0,1,1.8,2.76l-.22,1.25a2.2,2.2,0,0,1-2.47,2.12c-1.65,0-3.15,0-5.48,0-2.55,0-3.3.67-4.05,6.51-.65,4.88-.62,5.95,2,5.95,2.37,0,4,0,5.59-.1a2.06,2.06,0,0,1,2.44,2.18l.07,1.22a2.28,2.28,0,0,1-1.9,2.65,29,29,0,0,1-6.56.61c-8.24,0-11.14-3.33-9.78-13.08,1.4-10,4.3-12.5,12.54-12.5a30.58,30.58,0,0,1,6,.46"/><path class="cls-2" d="M123.67,132.08l-2.83,20.1a2.26,2.26,0,0,1-2.48,2.16h-3.08a2,2,0,0,1-2.14-2.52L116,131.75a2.22,2.22,0,0,1,2.47-2.14h3a2,2,0,0,1,2.19,2.47"/><path class="cls-2" d="M122.13,151.83l2.72-19.25a3.09,3.09,0,0,1,3.41-3h.93a3.9,3.9,0,0,1,3.8,2.29l4.19,8.17a19.12,19.12,0,0,1,1.47,4.09.22.22,0,0,0,.18.17c.1,0,.14-.07.14-.21a16.4,16.4,0,0,1,.07-4l1.22-8.38a2.23,2.23,0,0,1,2.47-2.15h2.44a1.92,1.92,0,0,1,2.15,2.47l-2.69,19.24a3.14,3.14,0,0,1-3.44,3h-1a3.87,3.87,0,0,1-3.79-2.37l-4.27-8.53A17.93,17.93,0,0,1,131,139.5a.14.14,0,0,0-.15-.15c-.11,0-.14.07-.14.19a26.54,26.54,0,0,1-.22,4.41l-1.21,8.24a2.27,2.27,0,0,1-2.48,2.15h-2.47a2,2,0,0,1-2.15-2.51"/><path class="cls-2" d="M155.49,136.85l-.21,1.46a.61.61,0,0,0,.67.79h5.67a2,2,0,0,1,2.18,2.47l-.07.51a2.24,2.24,0,0,1-2.47,2.18h-6.13a.67.67,0,0,0-.75.65l-.33,2.22c-.14.93.29,1.4,1.33,1.4h6.24a2.08,2.08,0,0,1,2.33,2.36l0,1a2.21,2.21,0,0,1-2.22,2.4c-3,.25-6.6.22-9.61.22-4.33,0-6.45-2.83-5.91-6.74L148,135c.5-3.34,2.84-5.48,6.7-5.48,3.3,0,6.85,0,9.75.24a2,2,0,0,1,2,2.62l-.15.93a2.31,2.31,0,0,1-2.51,2.15h-6.45c-1.22,0-1.68.36-1.82,1.44"/><path class="cls-2" d="M164.69,151.79,168.06,133a3.7,3.7,0,0,1,4.05-3.4h4.44c2.41,0,3.74,1.25,3.84,3.65l.36,8.71a27.85,27.85,0,0,1,0,3.41c-.05.17,0,.28.14.28s.21-.07.24-.25c.26-1.25.51-2.26.83-3.37l2.76-9.28a3.93,3.93,0,0,1,4.23-3.15h4.91c2.51,0,3.8,1.43,3.55,3.94l-1.88,18.57a2.27,2.27,0,0,1-2.48,2.23h-2.29a2,2,0,0,1-2.23-2.44l1.66-16.24c0-.17,0-.24-.22-.24h0a.34.34,0,0,0-.29.17l-3.79,11.68a4,4,0,0,1-4.23,3.09h-2.08a3.45,3.45,0,0,1-3.84-3.66l-.6-11c0-.17-.11-.24-.29-.24h-.07a.25.25,0,0,0-.29.21l-2.87,16.59a2.28,2.28,0,0,1-2.5,2.12h-2.27a1.94,1.94,0,0,1-2.12-2.55"/><path class="cls-2" d="M212.31,152.12l-.17-2.33a.71.71,0,0,0-.76-.69h-5.44a.79.79,0,0,0-.83.58l-1,2.8a2.54,2.54,0,0,1-2.65,1.86h-3.15c-1.76,0-2.48-1.08-1.79-2.73l8-19.1a4.3,4.3,0,0,1,4.37-2.9h4.48a3.67,3.67,0,0,1,4,3.48l2.61,18.77a2,2,0,0,1-2.15,2.48h-3a2.17,2.17,0,0,1-2.4-2.23m-4-8.67h2.54c.5,0,.72-.25.68-.75l-.35-4.59a11.31,11.31,0,0,1,0-2.32.38.38,0,0,0-.43-.43h-.18a.44.44,0,0,0-.47.39,19.36,19.36,0,0,1-.64,2.29l-1.69,4.59c-.21.5,0,.82.58.82"/><path class="cls-3" d="M82.08,128.86s-2.87-.15-3.72-.16H59.25c-1,0-2.5.13-3.87.16-1.13,0-2.16,0-3.11.16l-.51.08-.29,0c-5.31.87-7.48,4-8.63,12.23-1.36,9.75,1.54,13.08,9.78,13.08,1.41,0,2.61.26,3.72.16h19.1c1.11.1,2.34-.16,3.88-.16,8.24,0,11.14-2.54,12.54-12.5,1.36-9.75-1.54-13.08-9.78-13.08"/><path class="cls-1" d="M58.43,134.71V144c0,3.62-2.07,5.79-6.07,5.79-3,0-4.88-1.37-5.75-3.73-.24-.65-.06-1,.58-1.19l2.3-.82c.66-.25,1-.13,1.23.53.38.88.85,1.35,1.72,1.35,1.09,0,1.62-.62,1.62-1.91v-9.34c0-.68.22-.93.92-.93h2.55c.68,0,.9.25.9.93"/><path class="cls-1" d="M66.76,133.47c4.35,0,6.78,2.36,6.78,6.18v4c0,3.82-2.43,6.18-6.78,6.18s-6.8-2.36-6.8-6.18v-4c0-3.82,2.43-6.18,6.8-6.18m0,3.86c-1.55,0-2.43.73-2.43,2.13v4.37c0,1.39.88,2.11,2.43,2.11s2.41-.72,2.41-2.11v-4.37c0-1.4-.88-2.13-2.41-2.13"/><path class="cls-1" d="M86,134.71V144c0,3.62-2.08,5.79-6.08,5.79-3,0-4.88-1.37-5.74-3.73-.24-.65-.06-1,.58-1.19l2.29-.82c.67-.25,1-.13,1.24.53.38.88.84,1.35,1.72,1.35,1.08,0,1.61-.62,1.61-1.91v-9.34c0-.68.22-.93.93-.93h2.54c.68,0,.91.25.91.93"/><path class="cls-3" d="M220.82,145.15l.46-2.89h4.65l.76-4.77h3l-.76,4.77h4.74l-.45,2.89h-4.74l-.76,4.74h-3l.76-4.74Z"/><path class="cls-3" d="M240.94,133.79l-1,17.09-3.06-.14.82-13.78a10.26,10.26,0,0,1-1.85.81,14,14,0,0,1-2.21.54l.14-2.3c.51-.13,1-.26,1.5-.4s1-.3,1.43-.48,1-.39,1.44-.62a16.8,16.8,0,0,0,1.51-.78Z"/></g></g></g></g></svg>