<svg xmlns="http://www.w3.org/2000/svg" viewBox="0 0 283.46 283.46"><defs><style>.cls-1{fill:#e91052;}.cls-2{fill:#bdbcbc;}.cls-3{fill:#fff;}</style></defs><g id="Layer_2" data-name="Layer 2"><g id="Slovakia"><g id="jojcinema"><rect class="cls-1" width="283.46" height="283.46"/><g id="logo"><path class="cls-2" d="M120.93,128.21a2.4,2.4,0,0,1,2,3.08l-.25,1.41a2.47,2.47,0,0,1-2.76,2.37c-1.84,0-3.53,0-6.13,0-2.85,0-3.69.75-4.53,7.29-.72,5.45-.68,6.65,2.28,6.65,2.65,0,4.53,0,6.26-.12a2.3,2.3,0,0,1,2.72,2.44l.08,1.37a2.54,2.54,0,0,1-2.12,3,32.41,32.41,0,0,1-7.33.68c-9.22,0-12.47-3.73-11-14.62,1.57-11.14,4.81-14,14-14a33.8,33.8,0,0,1,6.69.52"/><path class="cls-2" d="M133.27,130.94l-3.16,22.48a2.53,2.53,0,0,1-2.77,2.41h-3.45a2.21,2.21,0,0,1-2.4-2.81l3.17-22.45a2.5,2.5,0,0,1,2.76-2.4h3.41a2.19,2.19,0,0,1,2.44,2.77"/><path class="cls-2" d="M131.55,153l3-21.52a3.47,3.47,0,0,1,3.82-3.32h1a4.33,4.33,0,0,1,4.24,2.56l4.69,9.14a21.21,21.21,0,0,1,1.65,4.56c0,.12.11.2.19.2s.16-.08.16-.24a17.63,17.63,0,0,1,.09-4.44l1.36-9.38a2.49,2.49,0,0,1,2.76-2.4h2.73c1.8,0,2.69,1,2.4,2.76l-3,21.52a3.51,3.51,0,0,1-3.85,3.37h-1.08a4.34,4.34,0,0,1-4.25-2.65l-4.77-9.54a20.36,20.36,0,0,1-1.36-4.4.15.15,0,0,0-.16-.17c-.12,0-.16.08-.16.21a29.54,29.54,0,0,1-.24,4.93l-1.36,9.21a2.54,2.54,0,0,1-2.77,2.41H134a2.21,2.21,0,0,1-2.41-2.81"/><path class="cls-2" d="M168.86,136.27l-.24,1.64a.69.69,0,0,0,.76.88h6.33a2.21,2.21,0,0,1,2.44,2.76l-.08.57a2.5,2.5,0,0,1-2.76,2.44h-6.86a.74.74,0,0,0-.83.73l-.36,2.48c-.17,1,.31,1.56,1.48,1.56h7a2.34,2.34,0,0,1,2.61,2.65l0,1.08a2.48,2.48,0,0,1-2.49,2.69c-3.37.27-7.37.23-10.74.23-4.85,0-7.21-3.16-6.61-7.53l2-14.3c.56-3.74,3.17-6.14,7.49-6.14,3.69,0,7.66,0,10.91.28a2.25,2.25,0,0,1,2.24,2.93l-.16,1a2.59,2.59,0,0,1-2.81,2.41H170.9c-1.36,0-1.88.4-2,1.6"/><path class="cls-2" d="M179.15,153l3.77-21a4.12,4.12,0,0,1,4.53-3.81h5c2.69,0,4.17,1.4,4.29,4.09l.4,9.74a30.45,30.45,0,0,1,0,3.81c0,.2,0,.31.16.31s.24-.07.28-.27c.28-1.41.56-2.53.92-3.77l3.08-10.38a4.41,4.41,0,0,1,4.74-3.52h5.49c2.8,0,4.24,1.6,4,4.4l-2.11,20.77a2.53,2.53,0,0,1-2.77,2.49h-2.56a2.24,2.24,0,0,1-2.49-2.73L207.63,135c0-.2,0-.28-.25-.28h0a.38.38,0,0,0-.32.2l-4.24,13.06a4.48,4.48,0,0,1-4.73,3.45h-2.33c-2.68,0-4.16-1.4-4.29-4.09L190.75,135c0-.2-.12-.28-.32-.28h-.08a.28.28,0,0,0-.32.24l-3.21,18.55a2.55,2.55,0,0,1-2.8,2.37h-2.54c-1.8,0-2.69-1-2.36-2.85"/><path class="cls-2" d="M232.41,153.34l-.2-2.6a.78.78,0,0,0-.84-.76h-6.09a.88.88,0,0,0-.93.64l-1.16,3.13a2.85,2.85,0,0,1-3,2.08H216.7c-2,0-2.77-1.2-2-3.05l8.9-21.36a4.8,4.8,0,0,1,4.88-3.24h5a4.09,4.09,0,0,1,4.49,3.89l2.93,21a2.18,2.18,0,0,1-2.41,2.77h-3.41a2.41,2.41,0,0,1-2.68-2.49M228,143.65h2.85c.56,0,.8-.29.76-.85l-.4-5.13a14.19,14.19,0,0,1,0-2.6.42.42,0,0,0-.47-.48h-.2a.5.5,0,0,0-.53.44,21.7,21.7,0,0,1-.71,2.57l-1.89,5.12c-.24.56,0,.93.64.93"/><path class="cls-3" d="M86.76,127.33s-3.21-.16-4.16-.17H61.23c-1.14,0-2.8.14-4.33.17-1.26,0-2.42.06-3.47.18l-.58.1-.32,0c-5.94,1-8.36,4.52-9.65,13.68C41.35,152.22,44.6,156,53.82,156c1.57,0,2.92.29,4.15.17H79.34c1.23.12,2.62-.17,4.33-.17,9.22,0,12.47-2.85,14-14,1.52-10.9-1.73-14.63-10.94-14.63"/><path class="cls-1" d="M60.32,133.88V144.3c0,4-2.32,6.47-6.8,6.47-3.41,0-5.46-1.53-6.42-4.17-.27-.72-.07-1.06.65-1.33l2.56-.92c.74-.27,1.09-.14,1.38.6.43,1,1,1.51,1.93,1.51,1.21,0,1.81-.7,1.81-2.13V133.88c0-.77.24-1,1-1H59.3c.77,0,1,.27,1,1"/><path class="cls-1" d="M69.63,132.49c4.86,0,7.58,2.64,7.58,6.91v4.45c0,4.27-2.72,6.92-7.58,6.92S62,148.12,62,143.85V139.4c0-4.27,2.72-6.91,7.61-6.91m0,4.32c-1.73,0-2.72.81-2.72,2.38v4.89c0,1.55,1,2.36,2.72,2.36s2.69-.81,2.69-2.36v-4.89c0-1.57-1-2.38-2.69-2.38"/><path class="cls-1" d="M91.17,133.88V144.3c0,4-2.32,6.47-6.8,6.47-3.41,0-5.46-1.53-6.42-4.17-.27-.72-.07-1.06.65-1.33l2.56-.92c.75-.27,1.09-.14,1.38.6.43,1,.94,1.51,1.93,1.51,1.21,0,1.81-.7,1.81-2.13V133.88c0-.77.24-1,1-1h2.84c.77,0,1,.27,1,1"/></g></g></g></g></svg>