<svg xmlns="http://www.w3.org/2000/svg" viewBox="0 0 283.46 283.46"><defs><style>.cls-1{fill:#e91052;}.cls-2{fill:#bdbcbc;}.cls-3{fill:#fff;}</style></defs><title>jojcinema</title><g id="Layer_2" data-name="Layer 2"><g id="Slovakia"><g id="jojcinema"><rect class="cls-1" width="283.46" height="283.46"/><g id="logo"><path class="cls-2" d="M120.93,128.21a2.4,2.4,0,0,1,2,3.09l-.24,1.4a2.47,2.47,0,0,1-2.76,2.37c-1.85,0-3.53,0-6.13,0-2.85,0-3.69.76-4.53,7.29-.73,5.45-.69,6.65,2.28,6.65,2.65,0,4.53,0,6.26-.12a2.3,2.3,0,0,1,2.72,2.45l.08,1.36a2.55,2.55,0,0,1-2.12,3,32.71,32.71,0,0,1-7.33.68c-9.22,0-12.47-3.73-10.94-14.63,1.56-11.14,4.81-14,14-14a33.64,33.64,0,0,1,6.69.52"/><path class="cls-2" d="M133.27,130.94l-3.16,22.48a2.53,2.53,0,0,1-2.77,2.41h-3.45a2.21,2.21,0,0,1-2.4-2.81l3.16-22.45a2.49,2.49,0,0,1,2.76-2.4h3.41c1.81,0,2.68,1,2.45,2.76"/><path class="cls-2" d="M131.55,153l3-21.52a3.46,3.46,0,0,1,3.81-3.32h1a4.35,4.35,0,0,1,4.25,2.56l4.69,9.14a20.92,20.92,0,0,1,1.65,4.57c0,.12.12.2.2.2s.16-.08.16-.24a18.07,18.07,0,0,1,.09-4.45l1.36-9.37a2.5,2.5,0,0,1,2.77-2.41h2.72c1.81,0,2.69,1,2.41,2.76l-3,21.52a3.51,3.51,0,0,1-3.85,3.37h-1.08a4.33,4.33,0,0,1-4.25-2.65l-4.77-9.54a20.15,20.15,0,0,1-1.36-4.4.15.15,0,0,0-.16-.16c-.12,0-.16.08-.16.2a29.18,29.18,0,0,1-.24,4.93l-1.36,9.22a2.53,2.53,0,0,1-2.77,2.41H134a2.21,2.21,0,0,1-2.41-2.81"/><path class="cls-2" d="M168.86,136.27l-.24,1.64a.69.69,0,0,0,.76.88h6.33a2.21,2.21,0,0,1,2.44,2.76l-.08.57a2.5,2.5,0,0,1-2.76,2.44h-6.86a.75.75,0,0,0-.84.73l-.36,2.49c-.16,1,.32,1.56,1.48,1.56h7a2.33,2.33,0,0,1,2.6,2.64l0,1.08a2.48,2.48,0,0,1-2.49,2.69c-3.37.28-7.38.24-10.74.24-4.84,0-7.21-3.16-6.61-7.53l2-14.3c.56-3.73,3.17-6.13,7.49-6.13,3.68,0,7.65,0,10.9.28a2.25,2.25,0,0,1,2.24,2.93l-.16,1a2.59,2.59,0,0,1-2.81,2.41H170.9c-1.36,0-1.89.4-2,1.6"/><path class="cls-2" d="M179.15,153l3.76-21a4.13,4.13,0,0,1,4.53-3.8h5c2.69,0,4.17,1.4,4.29,4.09l.4,9.74a30.77,30.77,0,0,1,0,3.81c0,.2,0,.32.16.32s.24-.08.28-.28c.28-1.4.57-2.52.92-3.77l3.09-10.38a4.4,4.4,0,0,1,4.73-3.53h5.49c2.8,0,4.25,1.6,4,4.4l-2.11,20.77a2.52,2.52,0,0,1-2.77,2.49h-2.56a2.24,2.24,0,0,1-2.49-2.73L207.63,135c0-.2,0-.28-.24-.28h0a.37.37,0,0,0-.32.2l-4.25,13.06a4.48,4.48,0,0,1-4.73,3.45h-2.33c-2.68,0-4.17-1.4-4.29-4.09L190.75,135c0-.2-.12-.28-.32-.28h-.08a.28.28,0,0,0-.32.24l-3.21,18.56a2.55,2.55,0,0,1-2.8,2.37h-2.54c-1.81,0-2.69-1-2.37-2.85"/><path class="cls-2" d="M232.41,153.34l-.2-2.6a.78.78,0,0,0-.84-.76h-6.09a.88.88,0,0,0-.92.65l-1.16,3.12a2.85,2.85,0,0,1-3,2.08H216.7c-2,0-2.77-1.2-2-3l8.9-21.36a4.81,4.81,0,0,1,4.88-3.24h5a4.09,4.09,0,0,1,4.49,3.89l2.93,21a2.18,2.18,0,0,1-2.41,2.77h-3.41a2.41,2.41,0,0,1-2.68-2.49m-4.45-9.7h2.85c.56,0,.8-.28.76-.84l-.4-5.13a13.81,13.81,0,0,1,0-2.6.42.42,0,0,0-.47-.48h-.2a.49.49,0,0,0-.52.44,21.87,21.87,0,0,1-.72,2.56l-1.89,5.13c-.24.56,0,.92.64.92"/><path class="cls-3" d="M86.76,127.33s-3.21-.16-4.15-.17H61.23c-1.15,0-2.8.14-4.33.17-1.27,0-2.42.06-3.47.18l-.58.1-.32,0c-5.95,1-8.37,4.52-9.65,13.69-1.53,10.9,1.72,14.63,10.94,14.63,1.58,0,2.92.29,4.15.17H79.34c1.23.12,2.62-.17,4.33-.17,9.22,0,12.47-2.85,14-14,1.52-10.9-1.73-14.63-10.94-14.63"/><path class="cls-1" d="M60.32,133.88V144.3c0,4.05-2.32,6.47-6.8,6.47-3.41,0-5.46-1.53-6.42-4.17-.27-.72-.07-1.06.65-1.33l2.56-.92c.74-.27,1.09-.15,1.38.59.42,1,.94,1.51,1.92,1.51,1.21,0,1.81-.69,1.81-2.13V133.88c0-.76.24-1,1-1H59.3c.77,0,1,.27,1,1"/><path class="cls-1" d="M69.63,132.49c4.86,0,7.59,2.64,7.59,6.91v4.45c0,4.27-2.72,6.91-7.59,6.91S62,148.12,62,143.85V139.4c0-4.27,2.72-6.91,7.61-6.91m0,4.32c-1.73,0-2.72.81-2.72,2.37v4.89c0,1.56,1,2.37,2.72,2.37s2.7-.81,2.7-2.37v-4.89c0-1.56-1-2.37-2.7-2.37"/><path class="cls-1" d="M91.17,133.88V144.3c0,4.05-2.32,6.47-6.8,6.47-3.41,0-5.46-1.53-6.42-4.17-.27-.72-.07-1.06.65-1.33l2.56-.92c.74-.27,1.09-.15,1.38.59.42,1,.94,1.51,1.92,1.51,1.21,0,1.81-.69,1.81-2.13V133.88c0-.76.24-1,1-1h2.84c.76,0,1,.27,1,1"/></g></g></g></g></svg>