<svg xmlns="http://www.w3.org/2000/svg" viewBox="0 0 283.46 283.46"><defs><style>.cls-1{fill:#e91052;}.cls-2{fill:#bdbcbc;}.cls-3{fill:#fff;}</style></defs><title>jojcinemaplus1</title><g id="Layer_2" data-name="Layer 2"><g id="Slovakia"><g id="jojcinemaplus1"><rect class="cls-1" width="283.46" height="283.46"/><g id="logo"><path class="cls-2" d="M112.63,129.64a2.14,2.14,0,0,1,1.79,2.76l-.22,1.26a2.21,2.21,0,0,1-2.47,2.12c-1.65,0-3.15,0-5.48,0-2.55,0-3.3.68-4,6.52-.65,4.87-.61,5.95,2,5.95,2.37,0,4,0,5.59-.11a2.06,2.06,0,0,1,2.43,2.19l.07,1.22a2.28,2.28,0,0,1-1.9,2.65,29.25,29.25,0,0,1-6.55.61c-8.25,0-11.15-3.34-9.78-13.08,1.4-10,4.3-12.51,12.54-12.51a30.08,30.08,0,0,1,6,.47"/><path class="cls-2" d="M123.67,132.08l-2.83,20.11a2.26,2.26,0,0,1-2.48,2.15h-3.08a2,2,0,0,1-2.15-2.51L116,131.75a2.23,2.23,0,0,1,2.47-2.15h3a2,2,0,0,1,2.19,2.47"/><path class="cls-2" d="M122.13,151.83l2.72-19.24a3.09,3.09,0,0,1,3.41-3h.93a3.89,3.89,0,0,1,3.8,2.29l4.19,8.17a18.71,18.71,0,0,1,1.47,4.08c0,.11.11.18.18.18s.14-.07.14-.21a16.16,16.16,0,0,1,.08-4l1.21-8.38a2.24,2.24,0,0,1,2.48-2.15h2.43a1.92,1.92,0,0,1,2.15,2.47l-2.69,19.24a3.14,3.14,0,0,1-3.44,3h-1a3.87,3.87,0,0,1-3.8-2.37l-4.27-8.53a18,18,0,0,1-1.21-3.94.14.14,0,0,0-.15-.15c-.11,0-.14.07-.14.18a26.09,26.09,0,0,1-.22,4.41l-1.21,8.24a2.26,2.26,0,0,1-2.48,2.15h-2.47a2,2,0,0,1-2.15-2.51"/><path class="cls-2" d="M155.49,136.85l-.21,1.47a.62.62,0,0,0,.68.79h5.66a2,2,0,0,1,2.18,2.47l-.07.51a2.24,2.24,0,0,1-2.47,2.18h-6.13a.67.67,0,0,0-.75.65l-.32,2.22c-.15.93.28,1.4,1.33,1.4h6.24a2.08,2.08,0,0,1,2.33,2.36l0,1a2.21,2.21,0,0,1-2.22,2.4c-3,.25-6.6.21-9.61.21-4.33,0-6.45-2.83-5.91-6.74L148,134.95c.5-3.34,2.84-5.48,6.7-5.48,3.29,0,6.84,0,9.75.25a2,2,0,0,1,2,2.62l-.14.93a2.31,2.31,0,0,1-2.51,2.15h-6.45c-1.22,0-1.69.36-1.83,1.43"/><path class="cls-2" d="M164.69,151.79,168.06,133a3.69,3.69,0,0,1,4-3.4h4.44c2.4,0,3.73,1.25,3.84,3.65l.36,8.71a27.52,27.52,0,0,1,0,3.41c0,.18,0,.28.14.28s.21-.07.25-.25c.25-1.26.51-2.26.83-3.37l2.76-9.28a3.94,3.94,0,0,1,4.23-3.15h4.91c2.51,0,3.8,1.43,3.55,3.94l-1.88,18.58a2.26,2.26,0,0,1-2.48,2.22h-2.29a2,2,0,0,1-2.22-2.44l1.65-16.23c0-.18,0-.25-.22-.25h0a.33.33,0,0,0-.29.18l-3.8,11.68a4,4,0,0,1-4.23,3.08h-2.08a3.45,3.45,0,0,1-3.84-3.65l-.61-11c0-.18-.11-.25-.29-.25h-.07a.25.25,0,0,0-.28.21l-2.87,16.59a2.28,2.28,0,0,1-2.51,2.12h-2.27a1.93,1.93,0,0,1-2.12-2.55"/><path class="cls-2" d="M212.31,152.12l-.18-2.33a.7.7,0,0,0-.75-.68h-5.45a.78.78,0,0,0-.83.58l-1,2.79a2.55,2.55,0,0,1-2.65,1.86h-3.15c-1.76,0-2.48-1.07-1.79-2.72l8-19.1a4.3,4.3,0,0,1,4.37-2.9h4.48a3.66,3.66,0,0,1,4,3.48l2.62,18.77a2,2,0,0,1-2.15,2.48h-3a2.16,2.16,0,0,1-2.4-2.22m-4-8.67h2.55c.5,0,.71-.25.68-.75l-.35-4.59a12.35,12.35,0,0,1,0-2.33.38.38,0,0,0-.42-.43h-.18a.44.44,0,0,0-.47.39,19.55,19.55,0,0,1-.64,2.29l-1.69,4.59c-.22.5,0,.83.57.83"/><path class="cls-3" d="M82.08,128.86s-2.87-.15-3.71-.15H59.25c-1,0-2.51.12-3.87.15-1.13,0-2.16.05-3.11.16l-.52.09-.28,0c-5.32.87-7.48,4-8.63,12.24-1.37,9.74,1.54,13.08,9.78,13.08,1.41,0,2.61.26,3.71.15H75.44c1.1.11,2.34-.15,3.87-.15,8.24,0,11.15-2.55,12.54-12.51,1.36-9.75-1.54-13.08-9.78-13.08"/><path class="cls-1" d="M58.43,134.71V144c0,3.62-2.07,5.79-6.08,5.79-3,0-4.88-1.37-5.74-3.73-.24-.64-.06-.95.58-1.19l2.29-.82c.67-.24,1-.13,1.24.53.38.88.84,1.35,1.72,1.35,1.08,0,1.62-.62,1.62-1.9v-9.34c0-.68.22-.93.93-.93h2.54c.69,0,.91.24.91.93"/><path class="cls-1" d="M66.76,133.47c4.35,0,6.78,2.36,6.78,6.18v4c0,3.82-2.43,6.18-6.78,6.18s-6.8-2.36-6.8-6.18v-4c0-3.82,2.43-6.18,6.8-6.18m0,3.87c-1.54,0-2.43.72-2.43,2.12v4.37c0,1.39.88,2.12,2.43,2.12s2.41-.72,2.41-2.12v-4.37c0-1.4-.88-2.12-2.41-2.12"/><path class="cls-1" d="M86,134.71V144c0,3.62-2.07,5.79-6.08,5.79-3,0-4.88-1.37-5.74-3.73-.24-.64-.06-.95.58-1.19l2.29-.82c.67-.24,1-.13,1.24.53.38.88.84,1.35,1.72,1.35,1.08,0,1.62-.62,1.62-1.9v-9.34c0-.68.22-.93.93-.93h2.54c.68,0,.91.24.91.93"/><path class="cls-3" d="M220.82,145.15l.46-2.89h4.65l.76-4.77h3l-.76,4.77h4.74l-.46,2.89h-4.74l-.76,4.74h-3l.76-4.74Z"/><path class="cls-3" d="M240.94,133.79l-1,17.09-3.06-.14.82-13.78a10.53,10.53,0,0,1-1.85.81,16.59,16.59,0,0,1-2.21.54l.14-2.31q.78-.19,1.5-.4t1.43-.48q.72-.27,1.44-.61t1.51-.78Z"/></g></g></g></g></svg>