<svg xmlns="http://www.w3.org/2000/svg" xmlns:xlink="http://www.w3.org/1999/xlink" viewBox="0 0 283.46 283.46"><defs><style>.cls-1{fill:#e91052;}.cls-2{fill:url(#linear-gradient);}.cls-3{fill:url(#linear-gradient-2);}.cls-4{fill:#fff;}</style><linearGradient id="linear-gradient" x1="458.88" y1="535.52" x2="459.21" y2="535.52" gradientTransform="matrix(152.68, 88.15, 88.15, -152.68, -117220.52, 41441.59)" gradientUnits="userSpaceOnUse"><stop offset="0" stop-color="#fff"/><stop offset="1" stop-color="#eee"/></linearGradient><linearGradient id="linear-gradient-2" x1="396.75" y1="307.58" x2="397.71" y2="306.75" gradientTransform="matrix(3.78, 0, 0, -3.78, -1411.31, 1308.59)" gradientUnits="userSpaceOnUse"><stop offset="0" stop-color="#eee"/><stop offset="1" stop-color="#aaa"/></linearGradient></defs><title>jojfamily</title><g id="Layer_2" data-name="Layer 2"><g id="Slovakia"><g id="jojfamily"><rect class="cls-1" width="283.46" height="283.46"/><g id="logo"><path class="cls-2" d="M63,113.11h-.1a29.15,29.15,0,1,0,37.93,27.79,21.9,21.9,0,0,0-.59-5.05h0l0-.12h0q-.07-.3-.15-.59l.13.49c0-.17-.09-.34-.13-.51v0l-.1-.36v0c-.06-.19-.11-.38-.18-.58v0l-.14-.41v0c-.07-.19-.13-.38-.2-.57h0l-.19-.48h0l-.25-.6,0,0c-.09-.2-.17-.4-.26-.59l0,0h0l-.17-.34h0l-.28-.54h0l-.2-.36h0l-.29-.5h0l-.2-.33h0l-.32-.5v0l-.21-.32h0l-.35-.49,0,0-.2-.27-.53-.67-.07-.09-.18-.21-.45-.52h0L94.9,126h0l-.25-.26-.09-.09h0l-.38-.38h0l-.15-.15-.11-.1h0l-.49-.44.47.42-.48-.44,0,0h0l-.08-.06-.61-.51A21.78,21.78,0,0,0,79,119,19,19,0,0,0,60,138,12.39,12.39,0,0,0,72.4,150.39a11.94,11.94,0,0,0,3.19-.43l.26-.34-.32-.36a9.85,9.85,0,0,1-9-9.81A11.85,11.85,0,0,1,78.4,127.61,12.39,12.39,0,0,1,90.79,140c0,.2,0,.39,0,.58a21.76,21.76,0,0,0,1.85-4.37,21.88,21.88,0,0,1-1.85,4.38c0,.62-.07,1.23-.14,1.83v0l0,.22v0a1.31,1.31,0,0,0,0,.19v0l0,.17s0,.05,0,.06,0,.1,0,.14,0,.07,0,.09a.64.64,0,0,0,0,.12l0,.11s0,.06,0,.09a.79.79,0,0,1,0,.13s0,.06,0,.09l0,.13s0,0,0,.07,0,.11,0,.15a.2.2,0,0,1,0,.07.79.79,0,0,1,0,.15s0,0,0,.06a1,1,0,0,1,0,.17.1.1,0,0,0,0,0,1.39,1.39,0,0,0-.05.18.05.05,0,0,1,0,0l0,.19v0l-.06.2A19.14,19.14,0,0,1,72.62,159.1h.11c-.35,0-.7,0-1.06,0a21.86,21.86,0,0,1-21.86-21.86,27.3,27.3,0,0,1,13.38-23.51l.16-.3Zm29.67,10.78.59.49ZM94.9,126l.3.33Zm4.55,7.32c.06.17.12.34.18.51C99.57,133.62,99.51,133.44,99.44,133.27Zm.32.92c.06.18.11.37.17.56C99.88,134.56,99.82,134.38,99.76,134.19Zm-6.33-2.08q-.07.7-.18,1.39Q93.36,132.82,93.43,132.12ZM100,137c0,.17-.09.33-.13.5C99.88,137.33,99.92,137.16,100,137Zm-.3,1.13c-.06.19-.12.38-.18.57C99.55,138.5,99.61,138.31,99.66,138.12Zm-.35,1.12-.2.56Zm-.39,1.1-.22.56Zm-.44,1.08-.24.55Zm-.47,1-.27.56Zm-.51,1-.3.57Zm-.55,1-.33.57Zm-.56.94L96,146Zm-.59.9-.45.65Zm-.54.77q-.83,1.14-1.76,2.19Q94.43,148.23,95.26,147.09Zm-2,2.48-.44.47Zm-.79.83-.44.43Zm-.81.8-.47.43Zm-.85.76-.47.4Zm-.9.75-.44.34Zm-.93.72-.42.31Zm-.95.67-.42.28Zm-1,.67-.35.22Zm-1.12.66-.23.13Zm-4.58,2.06-.1,0Zm-1.14.37-.13,0Zm-1.15.32-.18,0Zm-1.21.28-.15,0Zm-1.24.24h0Zm-1.27.18h0Z"/><path class="cls-3" d="M93.54,130a21.78,21.78,0,0,1-2.75,10.61c0,.62-.07,1.23-.14,1.83v0l0,.22v0a1.31,1.31,0,0,0,0,.19v0l0,.17s0,0,0,.06,0,.1,0,.14,0,.07,0,.09a.64.64,0,0,0,0,.13l0,.11s0,.06,0,.09a.79.79,0,0,1,0,.13s0,.06,0,.09l0,.13s0,0,0,.07,0,.11,0,.15a.2.2,0,0,1,0,.07.79.79,0,0,1,0,.15s0,0,0,.06a1,1,0,0,1,0,.17.11.11,0,0,0,0,0,1.38,1.38,0,0,0,0,.18,0,0,0,0,1,0,0l0,.19v0l-.06.2A19.14,19.14,0,0,1,72.62,159.1a24.53,24.53,0,0,0,2.72-.21h0l.18,0,.15,0,.09,0,.22,0h0a29.17,29.17,0,0,0,24.19-22.95,21.79,21.79,0,0,0-7.57-12,21.67,21.67,0,0,1,.87,6.1"/><path class="cls-4" d="M233.7,134.36V146.9c0,3.43-1.83,5-4.49,5-2.32,0-4.21-1.4-4.21-4.4V134.36h-7.25v14.19c0,6.52,4.16,10,9,10,3.18,0,5.6-1.16,6.91-2.95v3.53c0,2.72-2.22,4-4.93,4-2,0-3.72-.68-4.5-2.13l-6.52,3.17c2,3.85,6.15,6.2,11,6.2,6.72,0,12.18-4.5,12.18-11.22V134.36Zm-39.72,0h7.25v24.77H194Zm12-9.47h7.25v34.25H206Zm-16.55,18.91v15.34h-7.25V144.41c0-2.42-1.16-4-3.47-4s-3.77,1.69-3.77,4.55v14.13h-7.25V144.41c0-2.42-1.16-4-3.47-4s-3.77,1.69-3.77,4.55v14.13h-7.24V134.36h7.24v2.32c1.12-1.64,3.24-2.9,6.48-2.9a7.17,7.17,0,0,1,6.32,3.19c1.36-1.93,3.57-3.19,7-3.19,5.56,0,9.18,4,9.18,10m-48.29,3c0-3.62-2.42-6.1-5.75-6.1s-5.75,2.47-5.75,6.1,2.42,6.1,5.75,6.1,5.75-2.47,5.75-6.1m7.25-12.39v24.77h-7.25v-2.37a9,9,0,0,1-7.2,2.95c-6.33,0-11.55-5.77-11.55-13s5.22-13,11.55-13a9,9,0,0,1,7.2,2.95v-2.37Zm-31.62,0h4.49v7h-4.49v17.82h-7.25V141.31h-3.24v-7h3.24c0-6.77,3.72-11.71,11.74-11.22v7c-2.71-.24-4.49,1.47-4.49,4.27"/></g></g></g></g></svg>