<svg xmlns="http://www.w3.org/2000/svg" xmlns:xlink="http://www.w3.org/1999/xlink" viewBox="0 0 283.46 283.46"><defs><style>.cls-1{fill:#e91052;}.cls-2{fill:url(#linear-gradient);}.cls-3{fill:url(#linear-gradient-2);}.cls-4{fill:#fff;}</style><linearGradient id="linear-gradient" x1="458.88" y1="535.52" x2="459.21" y2="535.52" gradientTransform="matrix(152.68, 88.15, 88.15, -152.68, -117220.52, 41441.59)" gradientUnits="userSpaceOnUse"><stop offset="0" stop-color="#fff"/><stop offset="1" stop-color="#eee"/></linearGradient><linearGradient id="linear-gradient-2" x1="396.75" y1="307.58" x2="397.71" y2="306.75" gradientTransform="matrix(3.78, 0, 0, -3.78, -1411.31, 1308.59)" gradientUnits="userSpaceOnUse"><stop offset="0" stop-color="#eee"/><stop offset="1" stop-color="#aaa"/></linearGradient></defs><g id="Layer_2" data-name="Layer 2"><g id="Slovakia"><g id="jojfamily"><rect class="cls-1" width="283.46" height="283.46"/><g id="logo"><path class="cls-2" d="M63,113.11h-.1a29.14,29.14,0,1,0,37.93,27.79,22.09,22.09,0,0,0-.59-5h0l0-.12h0c0-.2-.1-.39-.15-.59,0,.16.09.32.13.49,0-.17-.09-.35-.14-.51v0c0-.12-.07-.24-.1-.36v0c-.05-.19-.11-.38-.17-.57v0c0-.14-.09-.28-.13-.41v0c-.06-.19-.13-.38-.2-.57h0l-.19-.48h0c-.08-.2-.16-.4-.25-.6v0l-.27-.59,0,0h0l-.18-.34h0l-.27-.54h0l-.19-.36h0c-.09-.17-.19-.34-.29-.5h0a3.79,3.79,0,0,0-.2-.34h0l-.33-.51h0l-.21-.32h0l-.35-.5,0,0-.2-.27c-.17-.23-.34-.45-.52-.67l-.07-.09-.18-.21-.46-.53v0c-.1-.12-.21-.23-.31-.34h0a3.07,3.07,0,0,0-.25-.26l-.08-.09h0c-.12-.13-.25-.25-.38-.38h0l-.15-.15-.11-.1h0l-.49-.44c.16.13.31.28.47.42l-.49-.44,0,0h0l-.08-.07-.61-.51A21.79,21.79,0,0,0,79,119.05,18.94,18.94,0,0,0,60,138,12.39,12.39,0,0,0,72.4,150.39a12,12,0,0,0,3.19-.43l.26-.34-.31-.36a9.85,9.85,0,0,1-9-9.81A11.85,11.85,0,0,1,78.4,127.61,12.39,12.39,0,0,1,90.79,140v.58a22.2,22.2,0,0,0,1.84-4.37,22.28,22.28,0,0,1-1.84,4.38,18.3,18.3,0,0,1-.15,1.83v0a1.64,1.64,0,0,1,0,.22h0a.64.64,0,0,0,0,.2s0,0,0,0l0,.17s0,.05,0,.05a.68.68,0,0,1,0,.15s0,.06,0,.09a.49.49,0,0,0,0,.12l0,.11s0,.06,0,.09a.39.39,0,0,1,0,.14s0,.05,0,.09l0,.13s0,.05,0,.08l0,.15a.19.19,0,0,1,0,.07.66.66,0,0,1,0,.15s0,0,0,.06a.85.85,0,0,1,0,.17.07.07,0,0,0,0,.05s0,.11,0,.17,0,0,0,0a1.94,1.94,0,0,1,0,.2v0a1.52,1.52,0,0,0-.06.2A19.14,19.14,0,0,1,72.62,159.1h.11c-.35,0-.7,0-1.06,0a21.86,21.86,0,0,1-21.86-21.85,27.3,27.3,0,0,1,13.38-23.51l.15-.3Zm29.67,10.77.59.49ZM94.9,126l.3.32Zm4.54,7.31c.07.17.13.35.19.52C99.57,133.62,99.51,133.44,99.44,133.27Zm.32.92c.06.19.12.37.17.56C99.88,134.56,99.82,134.38,99.76,134.19Zm-6.33-2.07c0,.47-.11.93-.18,1.39C93.32,133.05,93.39,132.59,93.43,132.12ZM100,137c0,.16-.09.33-.14.49C99.88,137.33,99.92,137.16,100,137Zm-.31,1.12c0,.19-.11.38-.17.57C99.55,138.5,99.61,138.31,99.66,138.12Zm-.35,1.12c-.06.19-.13.38-.2.56C99.18,139.62,99.25,139.43,99.31,139.24Zm-.39,1.1c-.07.18-.15.37-.22.56C98.77,140.71,98.85,140.52,98.92,140.34Zm-.44,1.08-.24.55ZM98,142.47l-.27.55Zm-.51,1-.3.57Zm-.55,1-.33.57Zm-.56.94c-.13.2-.25.41-.39.61C96.14,145.83,96.26,145.62,96.39,145.42Zm-.59.9c-.14.22-.29.44-.45.65C95.51,146.76,95.66,146.54,95.8,146.32Zm-.54.77c-.55.76-1.14,1.49-1.76,2.19C94.12,148.58,94.71,147.85,95.26,147.09Zm-2,2.48-.44.47Zm-.79.84-.44.43Zm-.82.79-.46.43Zm-.84.77-.47.39Zm-.9.75-.44.34Zm-.94.72-.42.3Zm-.94.67-.42.28Zm-1,.66-.35.22Zm-1.12.66-.23.13Zm-4.59,2.07-.09,0Zm-1.14.37-.13,0Zm-1.15.32-.18.05Zm-1.2.28-.15,0Zm-1.25.24-.08,0Zm-1.26.19h0Z"/><path class="cls-3" d="M93.54,130a21.79,21.79,0,0,1-2.75,10.61,18.3,18.3,0,0,1-.15,1.83v0a1.8,1.8,0,0,1,0,.22h0a.63.63,0,0,0,0,.19s0,0,0,0l0,.16s0,.05,0,.06a.52.52,0,0,1,0,.14s0,.07,0,.1a.49.49,0,0,0,0,.12l0,.11s0,.06,0,.09a.31.31,0,0,1,0,.13s0,.06,0,.1l0,.13a.64.64,0,0,1,0,.07q0,.09,0,.15a.19.19,0,0,1,0,.08.66.66,0,0,1,0,.15s0,0,0,.06a.75.75,0,0,1,0,.16.11.11,0,0,0,0,0c0,.06,0,.12,0,.18a0,0,0,0,1,0,0,1.33,1.33,0,0,1,0,.19v0a1.52,1.52,0,0,0-.06.2A19.14,19.14,0,0,1,72.62,159.1a24.52,24.52,0,0,0,2.72-.21h0l.18,0h.15l.09,0,.22,0h0a29.19,29.19,0,0,0,24.19-23,21.81,21.81,0,0,0-7.57-12,21.52,21.52,0,0,1,.88,6.1"/><path class="cls-4" d="M233.7,134.36V146.9c0,3.43-1.84,5-4.5,5-2.32,0-4.2-1.4-4.2-4.4V134.36h-7.25v14.19c0,6.52,4.15,10,9,10,3.18,0,5.6-1.16,6.91-3v3.53c0,2.72-2.22,4-4.94,4-2,0-3.72-.69-4.5-2.13l-6.51,3.18c1.95,3.85,6.15,6.2,11,6.2,6.73,0,12.18-4.5,12.18-11.23V134.36Zm-39.73,0h7.25v24.77H194Zm12-9.48h7.25v34.25H206Zm-16.55,18.91v15.34h-7.25V144.41c0-2.41-1.16-4-3.48-4s-3.77,1.69-3.77,4.55v14.13h-7.25V144.41c0-2.41-1.16-4-3.48-4s-3.77,1.69-3.77,4.55v14.13h-7.24V134.36h7.24v2.32c1.12-1.64,3.24-2.9,6.48-2.9a7.19,7.19,0,0,1,6.33,3.19c1.36-1.93,3.57-3.19,7-3.19,5.55,0,9.18,4,9.18,10m-48.29,3c0-3.63-2.42-6.1-5.75-6.1s-5.75,2.47-5.75,6.1,2.42,6.1,5.75,6.1,5.75-2.48,5.75-6.1m7.25-12.39v24.77h-7.25v-2.37a9.05,9.05,0,0,1-7.2,3c-6.33,0-11.55-5.76-11.55-13s5.22-13,11.55-13a9.05,9.05,0,0,1,7.2,2.95v-2.38Zm-31.62,0h4.49v6.95h-4.49v17.82h-7.25V141.31h-3.24v-6.95h3.24c0-6.77,3.72-11.71,11.74-11.23v7c-2.7-.24-4.49,1.47-4.49,4.27"/></g></g></g></g></svg>