<svg xmlns="http://www.w3.org/2000/svg" viewBox="0 0 283.46 283.46"><defs><style>.cls-1{fill:#fbcb00;}.cls-2{fill:#2c0143;}.cls-3{fill:#7ec4b6;}.cls-4{fill:#66c4fc;}.cls-5{fill:#fbde21;}.cls-6{fill:#ae55ad;}.cls-7{fill:#f75270;}</style></defs><g id="Layer_2" data-name="Layer 2"><g id="Slovakia"><g id="jojko"><rect class="cls-1" width="283.46" height="283.46"/><g id="logo"><path class="cls-2" d="M95.81,136.34c-.23-2-.52-4-.78-5.88l-.77-5.76c-.37-2.69-.74-5.35-1.08-8l1.18-.42a4.42,4.42,0,0,0,2.73-5.39h0L92.66,95.79a4.42,4.42,0,0,0-5-3.1h0c-2.89.5-5.82,1-8.74,1.44l-8.79,1.38c-5.87.92-11.77,1.83-17.68,2.85a4.41,4.41,0,0,0-3.64,4.82h0L50.32,117a4.43,4.43,0,0,0,4.39,3.93h.09l1.93-.19,1.08-.09.62-.07.53-.07a17.66,17.66,0,0,1,3.29-.24,12.8,12.8,0,0,1,3,.4,9.57,9.57,0,0,1,2.6,1.18,10.79,10.79,0,0,1,3.79,4.75,25.38,25.38,0,0,1,1.88,6.82c.1.61.16,1.23.23,1.85l.18,1.9q.08.94.09,1.77a7.43,7.43,0,0,1-.1,1.38,5.21,5.21,0,0,1-.4,1.21,3.21,3.21,0,0,1-.59.86,1.44,1.44,0,0,1-.26.22l-.09.06h0l-.07,0a2.79,2.79,0,0,1-1,.07,5,5,0,0,1-1.31-.25,3.35,3.35,0,0,1-1-.51.79.79,0,0,1-.13-.12l-.19-.2c-.18-.19-.35-.39-.52-.59a15.89,15.89,0,0,1-1-1.37,35.78,35.78,0,0,1-1.77-3.29q-.86-1.78-1.74-3.81h0A4.17,4.17,0,0,0,58.87,131l-.16.06-2.15.79-1.07.41-1,.42c-1.37.59-2.75,1.18-4.19,1.9-.72.37-1.45.74-2.22,1.21a17.22,17.22,0,0,0-2.41,1.75,9.57,9.57,0,0,0-2.39,3.16c-.14.36-.29.72-.4,1.09a8.81,8.81,0,0,0-.24,1.11,8.34,8.34,0,0,0-.1,1.08c0,.35,0,.7,0,1a12.81,12.81,0,0,0,.74,3.24,22.35,22.35,0,0,0,1.05,2.44c.73,1.5,1.51,2.81,2.27,4.1l1.16,1.9c.45.69.9,1.39,1.38,2.06a31.9,31.9,0,0,0,3.26,3.83,26.91,26.91,0,0,0,8.44,5.82l1.22.5,1.25.41.63.2.64.16,1.29.3a24.6,24.6,0,0,0,5.28.42,23.3,23.3,0,0,0,2.64-.22c.44,0,.86-.15,1.29-.23s.87-.17,1.29-.27a25.62,25.62,0,0,0,4.9-1.78,26.69,26.69,0,0,0,8.24-6.17,26,26,0,0,0,4-5.77,23.29,23.29,0,0,0,1.35-3.26c.18-.57.37-1.14.5-1.71l.21-.85c.07-.28.11-.57.17-.85a34.64,34.64,0,0,0,.53-6.65c0-2.16-.2-4.24-.42-6.26"/><path class="cls-3" d="M86.24,158.73a21.3,21.3,0,0,0,4.23-7c2.56-7,.86-15.35-.07-22.54-.66-5.15-1.45-10.28-2-15.44l2.73-1,1.74-.63c-1.49-5.08-2.88-9.83-4.43-15.1l-.12,0c-11,1.9-24.1,3.75-35.1,5.65.32,2.9.56,5.1.81,7.3s.47,4.29.7,6.46c1.85,0,2.78,0,3.7-.08,12.67-1,17.5,6.85,18.36,19.71a19,19,0,0,1-.06,4.81c-.46,2.06-1.64,3.81-3.19,4.37A7.67,7.67,0,0,1,67,144c-2.57-2.24-4.28-5.46-6.76-8.83-.88.32-1.92.66-2.93,1.08-12.38,5.14-12.85,6.61-5.75,18.09,5.56,9,14.62,13.24,23.64,11a22.09,22.09,0,0,0,11-6.66"/><path class="cls-2" d="M212.5,144.26a.79.79,0,0,1-.3-.31,1.19,1.19,0,0,1-.12-.26c-.07-.18-.21-.45-.39-.92-.08-.23-.17-.51-.25-.82,0-.08,0-.12,0-.17l0-.16a1.12,1.12,0,0,1,0-.31,3.8,3.8,0,0,1,.09-1.37,4.46,4.46,0,0,1,.64-1.46,4.93,4.93,0,0,1,2.86-2,5.49,5.49,0,0,1,2-.13,3,3,0,0,1,1.48.62,3.79,3.79,0,0,1,1,1.55,5.89,5.89,0,0,1,.28,1.08,4,4,0,0,1,0,1,4.52,4.52,0,0,1-2.16,3.23,6,6,0,0,1-1.77.76,5.46,5.46,0,0,1-1.68.14,3.16,3.16,0,0,1-1.57-.41m26.5-12.1a23.91,23.91,0,0,0-2.51-4.7,22.77,22.77,0,0,0-3.55-4,24.36,24.36,0,0,0-9.24-5.14,32.72,32.72,0,0,0-10.08-1.3c-.83,0-1.64.06-2.51.16a22.34,22.34,0,0,0-2.55.36,20.48,20.48,0,0,0-2.52.6l-1.25.37c-.41.12-.81.31-1.22.46a23.62,23.62,0,0,0-8.7,5.86,21.67,21.67,0,0,0-5.06,9.15c-.11.42-.24.84-.33,1.26l-.22,1.28A19.83,19.83,0,0,0,189,139l0,.64c0,.21,0,.42,0,.63l.05,1.27,0,.63.06.6c0,.41.08.81.15,1.21a29,29,0,0,0,2.84,9.37,24.7,24.7,0,0,0,6,7.8,25.62,25.62,0,0,0,8.46,4.87,31.42,31.42,0,0,0,9.47,1.65c.4,0,.79,0,1.19,0s.79,0,1.2,0c.81-.08,1.63-.11,2.44-.23l1.22-.2a12.32,12.32,0,0,0,1.21-.24l1.21-.33.6-.16c.2-.06.39-.15.59-.22a22,22,0,0,0,8.53-5.44,22.89,22.89,0,0,0,5.24-8.72,29.78,29.78,0,0,0,1.48-9.9A28,28,0,0,0,239,132.16"/><path class="cls-4" d="M214.36,148.4c4.53-.33,8.37-4.68,7.7-9.1-.61-4-3.12-6.17-7.31-5.91a8.2,8.2,0,0,0-7.65,9.12c.59,4,2.94,6.25,7.26,5.89m22.84-6c.55,13-7.19,22.23-19.17,22.83-14.66.73-25.18-8.7-25.87-23.18-.55-11.55,7.83-20.21,20.09-20.75,14.47-.64,24.38,7.73,24.95,21.1"/><path class="cls-2" d="M203.53,151.8l-.23-.25-11.49-12.39,8.57-4.4h0l.36-.15a2.3,2.3,0,0,0,1-3.08l-.12-.23-6.75-13.47a1.43,1.43,0,0,0-.12-.21,3.06,3.06,0,0,0-4.22-1l-.26.16-14.82,9.1q-.18-5.9-.49-11.78c-.35-6.5-.83-12.92-1.31-19.21A7.93,7.93,0,0,0,171.6,94a7.1,7.1,0,0,0-1.19-.22c-.2,0-.39,0-.58,0h-.5l-1.17,0-2.39.09c-.81,0-1.63.08-2.5.16a23.8,23.8,0,0,0-2.83.39l-.4.08-.42.11c-.28.07-.59.17-.9.28a8.92,8.92,0,0,0-2.06,1.05,7.92,7.92,0,0,0-1.92,1.91,9.2,9.2,0,0,0-1.06,2.06,17.09,17.09,0,0,0-.74,3.12c-.13.88-.22,1.69-.31,2.47l-2,18.56-2,18.56-1,9.27-.49,4.64,0,.3,0,.42c0,.28,0,.55,0,.8,0,.52,0,1,0,1.43,0,.87.09,1.6.1,2.24A4.4,4.4,0,0,0,151,166h0l19.78,2.95a4.65,4.65,0,0,0,.66.05,4.41,4.41,0,0,0,4.4-4.43l0-8.08,6.11,10.85.32.49c.09.13.18.26.29.39a4.16,4.16,0,0,0,5.86.5L203,156.45h0a3.79,3.79,0,0,0,.39-.31,3.08,3.08,0,0,0,.17-4.34"/><path class="cls-5" d="M170.63,98.08l.62,35.56c7.13-4.85,13.77-9.38,20.86-14.22,2.57,4.51,4.91,8.6,7.45,13.07l-14.93,5.42,16.43,16-15.28,11.28c-4.52-8-8.91-15.83-13.3-23.62l-1.11.29c0,7.39,0,14.79.06,22.74l-19.78-3a38.21,38.21,0,0,1-.05-4.39c1.76-17,3.48-34.06,5.4-51.07.87-7.7,1.06-7.68,13.63-8.06"/><path class="cls-2" d="M131.61,170.65a.41.41,0,0,1,0-.09.51.51,0,0,1,0,.1c0,.07-.06.07,0,0m1.09-.86h0M157,166.37q-.75-5.22-1.33-10.49c-.39-3.51-.76-7-1.07-10.56l-.91-10.6-.83-10.65a4.58,4.58,0,0,0-.1-.63,4.25,4.25,0,0,0-1.53-2.39,11,11,0,0,0,1.77-2.16,9.86,9.86,0,0,0,1.52-5c0-.43,0-.86,0-1.29a9.16,9.16,0,0,0-.21-1.33,9.65,9.65,0,0,0-4.72-6.25,11.17,11.17,0,0,0-4.23-1.38,14.88,14.88,0,0,0-4,0A15.42,15.42,0,0,0,134,106.6a11,11,0,0,0-2.8,3.12,9.83,9.83,0,0,0-1.28,4.1c0,.36,0,.71,0,1.07s0,.69.07,1a9.22,9.22,0,0,0,.49,2.18,8.46,8.46,0,0,0,2.81,3.88,11.24,11.24,0,0,0,3.7,1.87,12.63,12.63,0,0,0-1.18.57,8.1,8.1,0,0,0-.81.5,5.74,5.74,0,0,0-.79.63,7.67,7.67,0,0,0-1.37,1.58,8.5,8.5,0,0,0-1.26,3.52,15,15,0,0,0-.08,3c.06.94.14,1.61.21,2.38s.13,1.5.19,2.25c.12,1.51.24,3,.32,4.53q.27,4.53.37,9.09c.07,3,.09,6.07.09,9.11l0,2.28v.57l0,.51-.06,1.08a27.44,27.44,0,0,1-.55,4.14c0,.19-.09.38-.14.54a8.33,8.33,0,0,0-1.08.46,10.36,10.36,0,0,0-1.37.77l-.68.46-.63.54c-.2.2-.43.37-.61.58l-.55.64a6,6,0,0,0-.5.66l-.45.69a16.22,16.22,0,0,0-1.27,2.74c-.34.88-.57,1.68-.81,2.44a10.69,10.69,0,0,1-1.48,3.34,4,4,0,0,0-.62,1.43,3.86,3.86,0,0,0,3,4.57l.28.06,2.65.55c.91.18,1.83.37,2.93.54a31.23,31.23,0,0,0,6,.21,27.77,27.77,0,0,0,5.93-1,22.62,22.62,0,0,0,5.56-2.41,18.88,18.88,0,0,0,4.67-4,18,18,0,0,0,3-5.31,22.74,22.74,0,0,0,1.3-5.86,25.28,25.28,0,0,0-.21-5.84"/><path class="cls-6" d="M147.47,108.2a10.76,10.76,0,0,0-6.34-1.46c-5.3.2-8.95,3.54-8.68,8,.24,4.11,3.21,6.24,8.44,6.1h.36c5.19-.23,9.05-3.69,8.89-8a5.59,5.59,0,0,0-2.67-4.64"/><path class="cls-6" d="M154.36,166.85c-2.35-12.58-4.2-28.63-5.93-42.22-1.19.32-2.3.65-3.37,1-.8.24-1.58.45-2.34.66-.95.25-1.88.47-2.83.63-4.34.77-5.39,3.07-5.12,7.39.62,9.85.7,19.74.65,29.59,0,2-.32,8.39-1.67,8.85-6.74,2.31-5.3,8.11-7.35,12.57,2,.65,3.85,1.23,5.1,1.49a24.83,24.83,0,0,0,8.57.32,18.84,18.84,0,0,0,9.05-3.7c4.27-3.37,6.66-8.89,5.24-16.53"/><path class="cls-7" d="M139.38,148.12a27.94,27.94,0,0,0,.12-6.4A27.62,27.62,0,0,0,126.88,121a27.87,27.87,0,0,0-11.12-4.14,28.2,28.2,0,0,0-20.68,5.39,26.43,26.43,0,0,0-9.65,14.23c-1.12,4.27-1.08,7.72-2,12A43.51,43.51,0,0,1,79,159.74c.31,0,1.81.42,2.12.48.62.13,2.25.56,2.86.72,1.61.41,2.06.54,3.68.93a33.42,33.42,0,0,0,4.77.79,15.77,15.77,0,0,0,4.65-.2,9.64,9.64,0,0,0,4.59-2.26,19.5,19.5,0,0,0,10.77,7.53c.63.17,1.26.31,1.91.42a21.14,21.14,0,0,0,16.18-4,21.89,21.89,0,0,0,7.24-9.93,27.6,27.6,0,0,0,1.59-6.11"/><path class="cls-2" d="M91.45,133.73q-.21.47-.39.93.18-.47.39-.93"/><path class="cls-2" d="M90.93,135l.12-.32-.12.32"/><path class="cls-2" d="M91.92,132.7l0,0,0,0a.25.25,0,0,1,0,.07"/><path class="cls-2" d="M115.37,148.15a1.57,1.57,0,0,1,0-.48,1.78,1.78,0,0,1,.16-.68l-.27-.1a2.35,2.35,0,0,0-2.33.36,2.33,2.33,0,0,0-.69,1,3,3,0,0,0-.16,1.2,3.26,3.26,0,0,0,1.1,2.14,3.49,3.49,0,0,0,1,.66,4.36,4.36,0,0,0,1.16.32,5.7,5.7,0,0,0,4.39-1.39,8.61,8.61,0,0,0,2.54-3.8,9.41,9.41,0,0,0,.44-4.57,9.67,9.67,0,0,0-1.9-4.21,11.87,11.87,0,0,0-3.48-3,12.24,12.24,0,0,0-4.35-1.46,13,13,0,0,0-10.65,3.41,14.59,14.59,0,0,0-1.52,1.73,16.27,16.27,0,0,0-2.17,4A18.93,18.93,0,0,0,100.46,160a10.48,10.48,0,0,1-3,1.05,12,12,0,0,1-2.23.21,17.37,17.37,0,0,1-2.26-.19,32.72,32.72,0,0,1-4.45-1l-2.21-.63-1.11-.31-.56-.15-.25-.06c.83-2,1.7-4,2.38-6a40.5,40.5,0,0,0,1.49-6.61,62.91,62.91,0,0,1,1.66-8.26l.08-.26.1-.34s0,0,0,.05c.08-.24.15-.48.23-.71l-.21.66c.07-.23.14-.47.22-.7l.16-.49a0,0,0,0,0,0,0v0c.06-.2.13-.39.2-.58l-.2.56c.15-.42.3-.85.47-1.27-.07.17-.13.34-.2.5.26-.69.53-1.35.81-2a2.14,2.14,0,0,1-.1.22c.06-.13.12-.27.19-.4a.54.54,0,0,1,.05-.11,25.63,25.63,0,0,1,3.47-5.71,24.65,24.65,0,0,1,5-4.5A23.65,23.65,0,0,1,113,119.33a24.29,24.29,0,0,1,6.68.84,25.51,25.51,0,0,1,6.21,2.62,23.59,23.59,0,0,1,9.21,9.63,26.1,26.1,0,0,1,2.86,13,25.36,25.36,0,0,1-1.17,6.63,25.06,25.06,0,0,1-2.83,6.1,17.48,17.48,0,0,1-3.84,3.84,19.35,19.35,0,0,1-4.65,2.81,15,15,0,0,1-5.28,1.18,17.63,17.63,0,0,1-2.72-.07c-.45,0-.9-.12-1.35-.18s-.89-.17-1.33-.29a17,17,0,0,1-9-5.71l-.41-.53-.39-.56c-.13-.19-.25-.38-.36-.58s-.23-.39-.33-.59a14,14,0,0,1-1-2.51,16.57,16.57,0,0,1-.62-5.38,14.84,14.84,0,0,1,1.16-5.27,11.49,11.49,0,0,1,3.21-4.28,12,12,0,0,1,2.28-1.43,10.32,10.32,0,0,1,2.56-.81,8.84,8.84,0,0,1,5.23.62,7.54,7.54,0,0,1,2.16,1.56,5.69,5.69,0,0,1,1.41,2.19,7.92,7.92,0,0,1-.17,5.22,6.78,6.78,0,0,1-1.36,2.25,3.77,3.77,0,0,1-2.21,1.2,2.38,2.38,0,0,1-2.21-.84,1.34,1.34,0,0,1-.21-1.07,1,1,0,0,1,.24-.47,1.58,1.58,0,0,1,.67-.34m24.63-8.1a29,29,0,0,0-3.32-9.55,28.25,28.25,0,0,0-25.1-14.41,28.79,28.79,0,0,0-18.41,7.19,27.33,27.33,0,0,0-6.12,7.93,26.17,26.17,0,0,0-1.82,4.69,36,36,0,0,0-1,4.9c-.23,1.65-.4,3.29-.65,4.92a37.71,37.71,0,0,1-1,4.81,46.45,46.45,0,0,1-3.78,9.08l-.19.36.44.05h0a1.5,1.5,0,0,1,.31,0l.36.08.72.18c.24.06.48.13.74.18l.72.17,2.9.75a55,55,0,0,0,5.88,1.3,19,19,0,0,0,6.06.08,10.31,10.31,0,0,0,4.41-1.81,20.56,20.56,0,0,0,7.45,6.19,20,20,0,0,0,2.39,1,20.84,20.84,0,0,0,7.64,1.06,22.34,22.34,0,0,0,9.83-2.74c.37-.22.75-.43,1.1-.67l.54-.36c.18-.12.35-.25.52-.38.34-.25.68-.51,1-.78s.66-.55,1-.84a21.75,21.75,0,0,0,3.32-3.92,24.07,24.07,0,0,0,2.36-4.53,28.25,28.25,0,0,0,1.71-15"/></g></g></g></g></svg>