<svg xmlns="http://www.w3.org/2000/svg" viewBox="0 0 283.46 283.46"><defs><style>.cls-1{fill:#9dc93e;}.cls-2,.cls-3{fill:#fff;}.cls-2{fill-rule:evenodd;}</style></defs><g id="Layer_2" data-name="Layer 2"><g id="Slovakia"><g id="jojplus"><rect class="cls-1" width="283.46" height="283.46"/><g id="logo"><polygon class="cls-2" points="106.06 94.57 106.06 174.06 121.83 174.06 121.83 99.05 106.06 94.57"/><path class="cls-2" d="M82.13,109.35c-13.93.11-20.36,1.76-29.81,3.84l-9.8-3v74.25l15.77,4.46v-17s8.07,2.41,23.84,2.14,15.67-16.12,15.72-16.22,0-31.54,0-31.54S99.64,110.28,82.13,109.35Zm0,48.73s-9.65.76-23.84-2.62c0-2.62,0-27.55,0-27.55s7.41-2.46,23.84-2.73C82.13,127,82.08,158.08,82.08,158.08Z"/><path class="cls-2" d="M185.52,114l-15.77-4.77v33.3h0v15.74h0v0h0v0H146v-49H130.25v49A15.77,15.77,0,0,0,146,174v0h23.71a15.77,15.77,0,0,0,15.78-15.77v0h0Z"/><path class="cls-3" d="M232.68,139.46l-.25-.13-.08-.05h0l-.07,0c-.41-.21-.82-.39-1.24-.56-2.32-1-5.51-2.18-8.8-3.31v0l-.54-.17c-7-2.41-14.31-4.6-14.31-4.6V125.1a280.29,280.29,0,0,1,29,2.08l4.59-15.46s-24.06-2.86-33.82-2.39H207a15.78,15.78,0,0,0-15.38,16.23h0v5.6h.05a15.75,15.75,0,0,0,7.48,12.29h0c.32.68,5.52,2.6,11.19,4.53h0l.63.2c6.88,2.32,14.22,4.58,14.22,4.58v5.47a280.32,280.32,0,0,1-29-2.08l-4.59,15.46s24.07,2.86,33.83,2.4h.13a15.78,15.78,0,0,0,15.37-16.23h0v-5.6h0A15.79,15.79,0,0,0,232.68,139.46Z"/></g></g></g></g></svg>