<?xml version="1.0" encoding="UTF-8" standalone="no"?>
<!-- Created with Inkscape (http://www.inkscape.org/) -->

<svg
   xmlns:dc="http://purl.org/dc/elements/1.1/"
   xmlns:cc="http://creativecommons.org/ns#"
   xmlns:rdf="http://www.w3.org/1999/02/22-rdf-syntax-ns#"
   xmlns:svg="http://www.w3.org/2000/svg"
   xmlns="http://www.w3.org/2000/svg"
   xmlns:sodipodi="http://sodipodi.sourceforge.net/DTD/sodipodi-0.dtd"
   xmlns:inkscape="http://www.inkscape.org/namespaces/inkscape"
   version="1.1"
   id="svg2"
   width="427.70618"
   height="128.67569"
   viewBox="0 0 427.70617 128.67569"
   sodipodi:docname="JOJ Plus 2020.svg"
   inkscape:version="0.92.4 (5da689c313, 2019-01-14)">
  <metadata
     id="metadata8">
    <rdf:RDF>
      <cc:Work
         rdf:about="">
        <dc:format>image/svg+xml</dc:format>
        <dc:type
           rdf:resource="http://purl.org/dc/dcmitype/StillImage" />
        <dc:title></dc:title>
      </cc:Work>
    </rdf:RDF>
  </metadata>
  <defs
     id="defs6" />
  <sodipodi:namedview
     pagecolor="#ffffff"
     bordercolor="#666666"
     borderopacity="1"
     objecttolerance="10"
     gridtolerance="10"
     guidetolerance="10"
     inkscape:pageopacity="0"
     inkscape:pageshadow="2"
     inkscape:window-width="1366"
     inkscape:window-height="706"
     id="namedview4"
     showgrid="false"
     inkscape:zoom="0.66384288"
     inkscape:cx="66.933048"
     inkscape:cy="80.16384"
     inkscape:window-x="-8"
     inkscape:window-y="32"
     inkscape:window-maximized="1"
     inkscape:current-layer="svg2" />
  <g
     id="g12"
     transform="translate(-0.13561866,-0.13244633)">
    <path
       style="fill:#c5f4b8;stroke-width:0.64429528"
       d="M 58.308723,128.42476 C 43.952857,126.63325 30.989455,120.40429 20.400017,110.20949 -8.0395733,82.829792 -6.3138097,38.132156 24.12315,13.77958 33.444196,6.3218216 46.093503,1.3166825 58.031258,0.36265547 63.394392,-0.06594906 63.01589,0.21264017 54.564189,2.9145239 37.195867,8.4669203 23.443258,23.260459 18.640707,41.557044 c -1.961641,7.473386 -1.976821,18.792135 -0.03457,25.77181 3.933455,14.135225 12.924397,25.138519 25.528085,31.241767 6.704838,3.246769 11.491182,4.488109 19.00671,4.929369 8.050779,0.4727 14.006993,-0.79383 21.780016,-4.631305 C 98.198292,92.313773 106.84692,79.299022 108.00717,64.127751 108.92242,52.16004 103.23574,42.068374 92.778521,37.102735 88.886005,35.254363 88.08974,35.114091 81.489804,35.114091 c -6.702327,0 -7.338375,0.11696 -11.334468,2.084231 -7.729128,3.805037 -13.003336,10.640375 -14.739519,19.102319 -2.537939,12.369603 5.960403,24.537183 18.14576,25.98036 2.319282,0.274682 2.987197,0.569054 2.468694,1.088047 -0.437663,0.438075 -3.607828,0.711482 -8.249737,0.711482 -9.569698,0 -13.178119,-1.287495 -19.078924,-6.807404 C 41.769597,70.788564 38.848408,63.377991 39.477027,53.871878 40.196459,42.992466 45.40993,32.25862 53.554512,24.888197 72.34047,7.8878819 103.3635,11.444893 120.2785,32.538577 c 10.40847,12.979773 13.44265,30.043074 8.53294,47.986635 -4.82442,17.631836 -18.4245,33.972708 -34.671484,41.658768 -11.04288,5.22411 -24.790627,7.61858 -35.831233,6.24078 z m 91.328857,-14.22213 -9.8255,-0.19593 V 66.989922 19.973153 h 35.43624 35.43624 v 30.857329 30.857329 l -3.7047,0.64032 c -2.03758,0.352178 -12.43558,2.03174 -23.10666,3.732364 l -19.40196,3.092037 -0.41012,5.777743 c -0.22557,3.177761 -0.41012,8.922465 -0.41012,12.766005 v 6.98827 l -2.09396,-0.14299 c -1.15167,-0.0786 -6.51543,-0.23116 -11.91946,-0.33893 z m 25.28859,-50.747226 c 4.25235,-0.552593 8.67383,-1.171609 9.8255,-1.375592 l 2.09396,-0.370877 V 52.760506 43.812077 H 175.24832 163.651 v 5.701447 c 0,3.135797 0.18709,7.914642 0.41574,10.619657 0.38622,4.568868 0.51207,4.897207 1.77181,4.62257 0.74585,-0.162594 4.83527,-0.747754 9.08762,-1.300347 z m 41.55705,2.907007 V 19.328857 h 11.91946 11.91946 V 54.442949 89.55704 h 20.61745 20.61745 v 11.91946 11.91946 h -32.53691 -32.53691 z m 70.22818,0 V 19.328857 h 11.91947 11.91946 V 54.442949 89.55704 h 11.59731 11.59732 V 54.442949 19.328857 h 11.91946 11.91946 V 66.362411 113.39596 H 322.14764 286.7114 Z M 362.73825,101.4765 V 89.55704 h 20.61745 20.61744 v -4.497793 c 0,-4.138193 -0.1159,-4.523874 -1.44966,-4.824006 -2.29353,-0.5161 -38.4951,-6.785583 -39.1817,-6.785583 -0.38686,0 -0.55484,-10.051892 -0.44953,-26.899326 l 0.16814,-26.899327 32.37584,-0.167033 32.37584,-0.167033 V 31.23331 43.149681 l -20.45638,0.170124 -20.45637,0.170124 -0.18595,4.86949 -0.18594,4.869489 19.83695,3.434096 c 10.91032,1.888753 20.19937,3.570112 20.64232,3.736355 0.62624,0.235031 0.80537,6.162429 0.80537,26.649433 v 26.347168 h -32.53691 -32.53691 z"
       id="path26"
       inkscape:connector-curvature="0" />
    <path
       style="fill:#bcf3ad;stroke-width:0.64429528"
       d="M 56.310616,127.92073 C 35.37328,124.66826 17.800657,112.2801 8.0545235,93.901677 -1.7152617,75.47866 -2.2933519,54.41345 6.4690101,36.126681 15.604227,17.061775 32.532375,4.544951 54.046369,0.94755478 61.89328,-0.36454231 64.409641,-0.03278813 58.343113,1.5140325 48.631959,3.9901461 39.852104,9.1907732 32.468586,16.840455 c -7.26869,7.530714 -11.419364,14.989838 -14.142498,25.415303 -1.602839,6.136434 -1.625336,18.9812 -0.04329,24.713676 4.70998,17.066369 16.890078,29.614773 33.905116,34.930346 4.09024,1.27781 6.16777,1.50591 13.530201,1.48551 7.744591,-0.0215 9.215974,-0.21067 13.423635,-1.72621 6.790782,-2.445929 11.34948,-5.347951 16.514467,-10.512931 5.187593,-5.187595 8.093963,-9.76539 10.484643,-16.51426 1.42877,-4.033385 1.68172,-5.858738 1.72633,-12.457397 0.0501,-7.418097 -0.0315,-7.908479 -2.01502,-12.095889 C 99.298351,36.242579 83.044386,30.535835 69.628644,37.360575 c -7.318343,3.722924 -11.926011,9.468791 -13.949145,17.394899 -2.189578,8.578198 0.0763,16.634128 6.236462,22.172644 3.401671,3.058399 8.927321,5.541674 12.331023,5.541674 1.629887,0 1.876498,0.161145 1.232537,0.805369 -0.548624,0.548856 -3.113441,0.805369 -8.052641,0.805369 -7.079137,0 -7.361576,-0.05631 -12.150484,-2.422022 C 47.54434,77.838868 42.407962,71.573271 40.265386,63.347367 36.934421,50.558931 43.407831,33.180555 54.9948,23.805103 c 13.664875,-11.056768 31.557838,-12.669086 48.6658,-4.38523 5.75803,2.788096 7.47884,4.022008 12.30529,8.823506 6.31076,6.278142 9.96658,11.971217 12.68675,19.756617 1.70739,4.886734 1.7989,5.723071 1.76245,16.107381 -0.0352,10.022071 -0.18796,11.445873 -1.79768,16.751677 -7.75227,25.552376 -27.83949,43.144726 -53.717091,47.045356 -7.399196,1.11531 -11.491971,1.1189 -18.589703,0.0163 z m 83.930994,-14.31 c -0.23624,-0.23624 -0.42953,-21.401339 -0.42953,-47.033556 V 19.973153 h 35.44249 35.44248 l -0.16732,30.765098 -0.16732,30.765098 -4.51007,0.818223 c -2.48053,0.450027 -12.91812,2.189624 -23.19463,3.865771 l -18.68456,3.047549 -0.17498,12.402688 -0.17499,12.40268 h -11.47602 c -6.31181,0 -11.66931,-0.19329 -11.90555,-0.42953 z m 33.5217,-49.814194 C 178.65524,63.09403 183.6,62.35606 184.75167,62.156603 l 2.09396,-0.362649 V 52.803016 43.812077 H 175.24832 163.651 v 10.630872 c 0,6.246432 0.25115,10.630871 0.60896,10.630871 0.33492,0 4.61143,-0.574776 9.50335,-1.277284 z m 42.87677,2.726949 0.16528,-46.87248 h 11.59732 11.59731 l 0.16663,34.943975 0.16661,34.943974 20.45083,0.170114 20.45083,0.170119 0.17561,11.758393 0.17561,11.75838 H 249.03046 216.4748 Z m 70.22819,0 0.16528,-46.87248 h 11.59732 11.59731 l 0.16662,34.953017 0.16662,34.953018 h 11.58622 11.58622 l 0.16662,-34.953018 0.16663,-34.953017 h 11.59731 11.59732 l 0.16528,46.87248 0.16528,46.872475 h -35.44466 -35.44465 z m 76.01651,35.114095 0.17561,-11.758393 20.48442,-0.170164 20.48442,-0.170159 -0.18912,-4.620454 -0.18911,-4.620454 -20.2953,-3.585219 -20.29531,-3.585226 V 46.389258 19.651005 h 32.21477 32.21476 l 0.17561,11.758388 0.17561,11.758389 h -20.63198 -20.63199 v 5.154362 c 0,2.834899 0.22579,5.154362 0.50175,5.154362 0.54352,0 36.04943,6.216523 38.96134,6.821514 l 1.77181,0.368119 v 26.364915 26.364906 h -32.55145 -32.55144 z"
       id="path24"
       inkscape:connector-curvature="0" />
    <path
       style="fill:#a5ef92;stroke-width:0.64429528"
       d="M 58.100148,128.1669 C 43.089086,126.21884 30.258701,119.91768 19.600039,109.25902 8.444835,98.10381 2.731163,86.10316 0.63091948,69.417427 -1.1702454,55.107775 3.6469314,37.736544 12.737713,25.759095 23.871989,11.089265 39.560634,2.4123543 58.630871,0.37699057 62.636976,-0.05058047 61.780441,0.50539671 55.731542,2.2589453 40.159291,6.7732717 26.217918,19.908467 20.317934,35.624717 c -3.636631,9.687181 -4.428052,22.282478 -1.992117,31.704137 1.747057,6.757233 6.513334,15.345914 11.449321,20.631319 9.689829,10.375776 21.865213,15.756197 35.678846,15.766847 11.996959,0.009 21.706901,-4.017079 30.249786,-12.54338 8.7004,-8.683508 12.91009,-19.208219 12.41107,-31.029156 -0.22067,-5.227315 -0.51694,-6.429002 -2.64826,-10.741441 C 98.340864,34.995152 80.530925,29.967103 67.171527,38.601701 56.618175,45.422659 51.910047,59.232166 56.556615,69.736508 c 2.852376,6.448261 9.776555,11.764702 16.333948,12.541329 4.592459,0.543908 3.01005,1.522728 -3.143601,1.944509 -9.10441,0.624026 -16.982556,-2.369853 -22.701239,-8.627004 -8.69122,-9.509579 -9.971204,-22.655258 -3.56522,-36.615479 7.327458,-15.968343 23.330844,-25.583281 40.922179,-24.586315 7.827144,0.443594 12.42443,1.665388 19.708278,5.237759 9.34279,4.582184 16.82327,12.146601 21.78121,22.025621 8.23096,16.400748 6.00147,39.35762 -5.53723,57.016219 -10.64174,16.285933 -26.355402,26.296803 -45.811734,29.185793 -7.254366,1.07717 -10.104516,1.13055 -16.443058,0.30796 z m 82.517302,-14.55334 c -0.63389,-0.25578 -0.80537,-10.26047 -0.80537,-46.988193 V 19.962149 l 35.27516,0.166576 35.27517,0.166575 v 30.604025 30.604024 l -8.05369,1.364276 c -4.42953,0.750353 -14.9396,2.462773 -23.3557,3.805382 L 163.651,89.114113 v 12.463077 12.46307 l -11.11409,-0.0508 c -6.11275,-0.028 -11.47651,-0.1971 -11.91946,-0.37583 z m 33.64561,-49.846253 c 5.32578,-0.718583 10.33559,-1.448938 11.13291,-1.623013 1.41914,-0.309836 1.44966,-0.506184 1.44966,-9.324359 V 43.812077 H 175.24832 163.651 v 10.630872 c 0,5.846979 0.20899,10.630871 0.46441,10.630871 0.25543,0 4.82187,-0.587932 10.14765,-1.306513 z m 42.22016,2.917251 V 19.973153 h 11.91946 11.91946 v 34.782893 34.782895 l 20.45638,0.17012 20.45637,0.170126 0.17561,11.758393 0.17561,11.75838 h -32.55145 -32.55144 z m 70.65771,46.281872 C 286.90469,112.73019 286.7114,91.710062 286.7114,66.255026 V 19.973153 h 11.91947 11.91946 V 54.765096 89.55704 h 11.59731 11.59732 V 54.765096 19.973153 h 11.91946 11.91946 v 46.711405 46.711402 h -35.0067 c -19.2537,0 -35.20001,-0.19328 -35.43625,-0.42953 z m 75.88304,-0.39949 c -0.17497,-0.45597 -0.23836,-5.74725 -0.14085,-11.75839 l 0.17727,-10.929363 20.48442,-0.170164 20.48442,-0.170159 -0.18912,-4.656212 -0.18911,-4.656219 -20.2953,-3.549461 -20.29531,-3.549461 -0.16822,-26.577179 -0.16822,-26.577179 h 32.54406 32.54406 v 11.597314 11.597315 h -20.61745 -20.61745 v 5.154362 c 0,2.834899 0.14839,5.154362 0.32976,5.154362 0.40733,0 36.68243,6.33027 39.13333,6.829052 l 1.77181,0.360581 v 26.364915 26.364906 h -32.23498 c -25.68426,0 -32.29964,-0.16847 -32.55312,-0.82902 z"
       id="path22"
       inkscape:connector-curvature="0" />
    <path
       style="fill:#8feb76;stroke-width:0.64429528"
       d="M 58.630871,128.139 C 48.694709,127.00217 37.831533,123.03121 29.493325,117.48798 13.569921,106.90213 3.5182783,90.438552 0.90586571,70.664621 -1.5158135,52.334394 4.7327774,33.647175 17.887791,19.877977 27.801558,9.5013544 38.747506,3.7515649 53.335641,1.2575992 60.898845,-0.03539482 63.609294,-0.02384661 58.534834,1.279751 43.075946,5.2510433 29.714756,16.117367 22.325288,30.728074 c -0.930613,1.840039 -2.464902,5.899099 -3.409532,9.020133 -1.487222,4.913742 -1.725851,6.884051 -1.77972,14.694742 -0.05357,7.767617 0.14741,9.691124 1.447395,13.852347 2.743072,8.780514 6.216315,14.531893 12.645466,20.939757 6.631266,6.60931 10.821151,9.299294 18.857836,12.107077 7.194696,2.51361 18.560353,3.18378 25.31689,1.49279 C 90.757927,98.992138 103.11988,86.826336 106.97106,71.768383 111.73869,53.127095 102.70173,37.572228 85.380227,34.60518 74.232746,32.695697 62.78659,38.799405 57.513588,49.465176 c -2.29384,4.639783 -2.426341,5.243956 -2.426341,11.063588 0,5.303347 0.233116,6.646509 1.683415,9.699418 0.925878,1.948993 2.810442,4.66895 4.18792,6.044347 3.026219,3.021648 9.408514,6.196058 12.458866,6.196754 4.135474,6.44e-4 1.075793,1.358323 -3.908978,1.734153 C 58.066276,85.066128 47.728673,79.303107 42.831767,69.331684 39.758972,63.074638 39.017157,58.573623 39.929191,51.720095 41.347691,41.060711 45.172137,33.514914 52.910754,26.106909 78.543816,1.568953 122.16663,17.187901 129.9317,53.683902 c 1.34296,6.311955 0.86182,18.208276 -1.03393,25.564414 -6.67405,25.897494 -28.47619,45.095154 -55.261951,48.660364 -7.659054,1.01942 -8.054941,1.0255 -15.004948,0.23032 z m 83.593089,-14.56834 -2.42034,-0.25298 0.1653,-46.511195 0.1653,-46.511185 34.95302,-0.166622 34.95302,-0.166623 v 30.799333 30.799336 l -21.42281,3.43314 c -11.78256,1.888236 -22.22014,3.57868 -23.19464,3.75655 l -1.77181,0.323404 v 12.483222 12.48322 l -9.50335,-0.10831 c -5.22685,-0.0596 -10.59251,-0.22215 -11.92369,-0.36129 z m 33.9908,-49.988262 10.30873,-1.433468 0.17876,-9.168427 0.17876,-9.168426 h -11.615 -11.61501 v 10.630872 c 0,9.706148 0.0981,10.628352 1.12752,10.601897 0.62013,-0.01591 5.76644,-0.67404 11.43624,-1.462448 z m 40.91275,3.108178 V 19.973153 h 11.59732 11.59731 v 35.114091 35.114091 l 20.45638,-4.5e-5 20.45637,-5.2e-5 -0.13009,11.436292 -0.1301,11.43629 -31.92359,0.16709 -31.9236,0.16708 z m 70.22819,-4.7e-4 V 19.973153 h 11.59731 11.59732 v 35.114091 35.114091 h 11.59731 11.59732 V 55.087244 19.973153 h 11.9237 11.9237 l -0.16531,46.550332 -0.16531,46.550335 -34.95302,0.16662 -34.95302,0.16662 z m 76.02684,35.108544 V 90.201335 h 20.2953 20.2953 v -5.017391 -5.017398 l -20.2953,-3.515842 -20.2953,-3.515842 V 46.554008 19.973153 h 32.21477 32.21476 v 11.597314 11.597315 h -20.61745 -20.61745 v 5.103169 c 0,5.047896 0.0192,5.107175 1.77181,5.473048 2.54306,0.530883 38.55139,6.819754 39.04802,6.819754 0.22829,0 0.41507,11.887248 0.41507,26.416106 v 26.416101 h -32.21476 -32.21477 z"
       id="path20"
       inkscape:connector-curvature="0" />
    <path
       style="fill:#6ce54b;stroke-width:0.64429528"
       d="M 53.696583,127.30018 C 28.928097,122.59818 8.9105207,103.85148 2.4878965,79.342653 -0.16792702,69.207986 0.18814855,54.84153 3.35256,44.456372 10.336231,21.536937 32.049519,3.413927 55.409395,1.0071028 L 59.597314,0.57561136 54.369195,2.438557 C 39.913311,7.5896492 29.010723,17.232645 22.524684,30.604024 c -4.606378,9.496339 -5.414941,13.091157 -5.43442,24.161072 -0.01509,8.576958 0.135464,9.805717 1.837835,14.999451 5.393492,16.454895 18.72832,28.853958 35.474448,32.985043 5.917106,1.45968 16.122543,1.4847 21.624297,0.053 15.642433,-4.070558 28.576746,-17.593723 31.590426,-33.028634 0.42932,-2.198812 0.66142,-6.722268 0.51578,-10.052126 -0.22724,-5.1958 -0.55659,-6.647003 -2.3226,-10.234294 -2.60867,-5.298991 -7.744925,-10.224391 -13.509654,-12.95509 -3.996068,-1.892899 -4.884815,-2.06268 -10.797442,-2.06268 -5.8971,0 -6.80756,0.172737 -10.746594,2.038886 -10.632832,5.037392 -16.526971,14.680186 -15.851627,25.933208 0.615895,10.262441 8.196778,18.811279 17.623567,19.873819 3.918946,0.441722 3.005232,1.2549 -2.014002,1.792416 C 58.760732,85.366866 47.311794,79.01876 42.362027,68.498282 40.531041,64.60661 40.269143,63.338204 40.058561,57.342277 39.62311,44.943628 43.198696,35.996566 52.164975,27.048832 62.273648,16.961067 74.291048,12.878842 88.212394,14.80378 c 21.047666,2.91031 37.271376,18.07424 41.562146,38.847187 3.80486,18.420525 -3.30978,40.645141 -17.64692,55.125173 -8.29704,8.37974 -19.090943,14.63195 -30.302119,17.55206 -6.906227,1.79882 -21.176018,2.29191 -28.128918,0.97198 z m 91.108787,-13.7377 -4.349,-0.22539 V 66.655121 19.973153 h 34.79195 34.79194 l -0.002,30.765098 -0.002,30.765098 -21.74284,3.449834 c -11.95855,1.897404 -22.39518,3.595947 -23.19249,3.774539 -1.44236,0.323076 -1.44967,0.387718 -1.44967,12.818628 l -4e-4,12.49391 -7.24832,-0.12619 c -3.98658,-0.0694 -9.20537,-0.22762 -11.59731,-0.35159 z m 31.24832,-49.885654 10.79194,-1.42089 V 52.711859 43.167782 H 175.24832 163.651 v 10.953019 c 0,8.326513 0.19313,10.955886 0.80537,10.964964 0.44295,0.0066 5.66175,-0.627446 11.59732,-1.408939 z m 41.07382,3.007732 V 19.973153 h 11.59732 11.59731 v 35.114091 35.114091 h 20.2953 20.2953 v 11.597315 11.59731 h -31.89261 -31.89262 z m 70.22819,0 V 19.973153 h 11.59731 11.59732 v 35.114091 35.114091 h 11.59731 11.59732 V 55.087244 19.973153 h 11.59731 11.59732 V 66.684558 113.39596 H 322.14764 287.3557 Z m 76.02684,35.114092 V 90.201335 h 20.2953 20.2953 v -5.039226 -5.039233 l -20.13422,-3.535925 -20.13423,-3.535924 -0.16822,-26.538936 -0.16823,-26.538938 h 32.22192 32.22191 v 11.597314 11.597315 h -20.61745 -20.61745 v 5.110944 c 0,4.315499 0.17548,5.161007 1.12752,5.432606 0.62013,0.176913 9.89798,1.842191 20.61745,3.700616 l 19.48993,3.378955 v 26.302532 26.302525 h -32.21476 -32.21477 z"
       id="path18"
       inkscape:connector-curvature="0" />
    <path
       style="fill:#54e22f;stroke-width:0.64429528"
       d="M 55.731542,127.55095 C 42.498936,125.50776 29.332183,118.7853 19.702965,109.15608 -5.3537263,84.099395 -5.6792345,43.634338 18.977553,18.977552 28.821409,9.1336963 42.12167,2.6406291 55.731542,1.0345862 L 58.953019,0.65443349 54.765099,2.1528293 C 35.502569,9.0447707 21.76321,24.466798 17.665253,43.796316 c -1.337891,6.310658 -1.167492,16.842724 0.37125,22.946255 4.42097,17.536099 17.480733,30.803794 35.257184,35.818539 7.436002,2.09769 17.954567,1.95559 24.98819,-0.33759 C 90.903603,98.108436 101.27767,88.479282 105.70977,76.765086 107.76392,71.33588 109.03095,63.43743 108.5589,59.00403 106.97214,44.101542 94.565352,33.372056 79.998306,34.304611 c -7.047148,0.451145 -11.563148,2.375076 -16.570982,7.059661 -10.524032,9.844715 -11.909251,24.519672 -3.252558,34.457463 2.456949,2.82055 9.209748,6.648057 11.729045,6.648057 3.153581,0 1.98568,1.1858 -1.574915,1.599051 C 60.825397,85.171837 51.041537,80.790952 44.973935,72.715735 34.869206,59.267608 40.618888,34.675622 56.612826,22.934994 c 7.888091,-5.790391 15.774368,-8.309191 25.856971,-8.258462 16.616272,0.0836 31.282413,8.088954 40.268593,21.980169 5.82572,9.005632 8.56374,19.85328 7.76899,30.779537 -2.06632,28.40748 -21.52886,51.709942 -49.213145,58.922762 -5.721948,1.49079 -19.474266,2.13203 -25.562693,1.19195 z m 91.651008,-13.99147 -6.92618,-0.20711 V 66.984909 20.617448 h 34.79195 34.79194 V 50.88705 81.156654 l -1.44966,0.340329 c -0.79732,0.187181 -10.58255,1.791721 -21.74497,3.56564 -11.16241,1.773925 -20.94765,3.371417 -21.74496,3.549996 -1.41014,0.315821 -1.44979,0.54834 -1.45425,8.527164 -0.003,4.511367 -0.18941,10.159537 -0.41531,12.551487 l -0.41074,4.34899 -4.25582,-0.13684 c -2.34071,-0.0753 -7.37261,-0.23004 -11.182,-0.34394 z m 28.99328,-49.83395 10.4698,-1.412041 v -9.572854 -9.572853 h -11.55929 c -6.35761,0 -11.68754,0.217449 -11.8443,0.483221 -0.15675,0.265772 -0.13304,5.346182 0.0526,11.2898 0.2979,9.533571 0.45981,10.770663 1.3745,10.501677 0.57025,-0.167704 5.74823,-0.94033 11.50662,-1.71695 z m 40.75168,2.959028 V 19.973153 h 11.59732 11.59731 v 35.114091 35.114091 h 20.2953 20.2953 v 11.597315 11.59731 h -31.89261 -31.89262 z m 70.22819,0 V 19.973153 h 11.59731 11.59732 v 35.128626 35.128627 l 11.75839,-0.17561 11.75839,-0.175609 V 54.926103 19.973018 l 11.43624,6.8e-5 11.43624,6.7e-5 V 66.684558 113.39596 H 322.14764 287.3557 Z m 76.02684,35.129152 V 90.219433 l 20.45638,-0.170119 20.45637,-0.170127 0.19273,-4.446197 c 0.106,-2.44541 -0.039,-4.673525 -0.32215,-4.951371 -0.28318,-0.277839 -8.92293,-1.977889 -19.19944,-3.777889 -10.27651,-1.8 -19.33691,-3.419018 -20.13422,-3.597822 l -1.44967,-0.325092 V 46.376983 19.973153 h 32.22963 32.22963 l -0.17594,11.43624 -0.17594,11.436241 -20.48228,0.17016 -20.48229,0.170159 0.18699,5.264453 0.18698,5.264454 20.2953,3.585521 20.2953,3.58552 v 26.093958 26.093961 l -32.05369,0.16709 -32.05369,0.16708 z"
       id="path16"
       inkscape:connector-curvature="0" />
    <path
       style="fill:#41df17;stroke-width:0.64429528"
       d="M 57.260941,127.59025 C 31.317472,124.29558 9.252213,104.80902 2.8949873,79.57786 -4.2283104,51.306246 7.6413775,22.905546 32.501345,8.7384837 38.08802,5.5547802 47.638965,2.2045557 52.832213,1.6069413 L 56.375838,1.1991579 51.221475,3.3593623 C 34.491371,10.370985 22.216366,24.744908 17.942003,42.329329 c -1.839827,7.568913 -1.839281,17.832186 0.0013,24.790135 5.515139,20.848653 23.296847,35.557996 44.787179,37.048746 17.07674,1.18458 33.772821,-8.423069 41.249398,-23.736698 2.93431,-6.010005 4.90603,-13.43074 4.90603,-18.464066 0,-10.814913 -6.28709,-20.862761 -15.904392,-25.41793 -4.121292,-1.95202 -4.826912,-2.07972 -11.491702,-2.07972 -6.735675,0 -7.323563,0.109669 -11.433213,2.132843 -8.177105,4.025575 -13.664674,11.322257 -15.34301,20.401209 -1.268967,6.864471 0.820361,13.813806 5.766371,19.179594 2.645694,2.870239 8.60059,6.28635 10.95824,6.28635 0.710123,0 1.490938,0.323301 1.735145,0.718441 0.31979,0.517427 -1.517309,0.645455 -6.566,0.457585 C 60.341787,83.412667 59.147511,83.167564 55.361936,81.337952 50.009093,78.750855 45.094831,73.651961 42.331135,67.817571 40.35863,63.653448 40.26981,63.125082 40.299455,55.731539 40.326216,49.05722 40.56226,47.353803 42.02566,43.274346 45.850185,32.61288 53.341222,23.927381 62.636618,19.376925 c 7.142436,-3.4965 11.694273,-4.558134 19.543336,-4.558134 8.133307,0 14.731077,1.570496 22.195886,5.283388 7.55041,3.75547 16.56347,12.655967 20.42132,20.166274 6.47546,12.606176 7.46762,26.085124 3.04377,41.350908 -6.454,22.271409 -25.05285,39.783309 -47.672408,44.886359 -5.606155,1.26477 -17.175302,1.81249 -22.907581,1.08453 z m 91.410199,-14.03141 -8.21477,-0.20137 V 66.987454 20.617448 h 34.79195 34.79194 v 30.238459 c 0,28.252809 -0.074,30.258488 -1.12751,30.543466 -0.62014,0.167755 -10.84027,1.83396 -22.71141,3.702674 -11.87114,1.868714 -21.77158,3.563082 -22.00099,3.765255 -0.41097,0.362197 -1.12689,13.290128 -1.17102,21.146108 l -0.0226,4.02685 -3.06041,-0.14003 c -1.68322,-0.077 -6.75704,-0.23064 -11.27516,-0.34139 z m 28.18792,-49.801391 c 5.31543,-0.747993 9.89038,-1.578123 10.16654,-1.844733 0.27617,-0.26661 0.42113,-4.520804 0.32215,-9.453766 l -0.17997,-8.969021 -12.16481,-0.1756 -12.16481,-0.1756 0.39531,8.873586 c 0.21741,4.880472 0.4003,9.983871 0.40642,11.340886 0.0106,2.345437 0.0986,2.449936 1.78292,2.115766 0.9745,-0.193341 6.12081,-0.963525 11.43625,-1.711518 z m 40.26845,2.604962 V 19.973153 h 11.27517 11.27517 v 35.114091 35.114091 h 20.61745 20.61744 v 11.275165 11.27517 h -31.89261 -31.89262 z m 70.22819,0 V 19.973153 l 11.43624,-6.7e-5 11.43624,-6.8e-5 v 34.953085 34.953084 l 12.08054,0.175294 12.08053,0.175287 V 55.10146 19.973153 h 11.27517 11.27517 V 66.362411 112.75167 H 322.14764 287.3557 Z M 363.38254,101.4765 V 90.201335 h 20.61745 20.61745 v -5.154362 c 0,-2.834899 -0.13341,-5.154362 -0.29648,-5.154362 -0.42102,0 -37.02639,-6.374387 -39.16661,-6.8204 l -1.77181,-0.369233 V 46.338066 19.973153 h 31.89262 31.89261 v 11.597314 11.597315 h -20.6435 -20.6435 l 0.18712,5.297477 0.18713,5.297477 20.45638,3.558837 20.45637,3.558837 v 25.93563 25.93563 h -31.89261 -31.89262 z"
       id="path14"
       inkscape:connector-curvature="0" />
  </g>
</svg>
