<svg xmlns="http://www.w3.org/2000/svg" viewBox="0 0 283.46 283.46"><defs><style>.cls-1{fill:#f0008c;}.cls-2{fill:#fff;}</style></defs><title>kinobarrandov</title><g id="Layer_2" data-name="Layer 2"><g id="Barrandov"><g id="kinobarrandov"><rect class="cls-1" width="283.46" height="283.46"/><g id="logo"><path class="cls-2" d="M222.64,166.53c-3.54,0-6.35,2.32-6.35,6.15s2.8,6.13,6.35,6.13,6.39-2.29,6.39-6.13S226.2,166.53,222.64,166.53Zm0,2.89a3.28,3.28,0,1,1-3,3.27A3,3,0,0,1,222.64,169.41Z"/><path class="cls-2" d="M213.19,160.79a1.71,1.71,0,0,0-1.72,1.64v4.71a6.48,6.48,0,0,0-3-.64,5.63,5.63,0,0,0-4.12,1.57,7.12,7.12,0,0,0-.22,8.88,6,6,0,0,0,4.63,1.85,6.12,6.12,0,0,0,4.74-1.93,6.39,6.39,0,0,0,1.38-4.48v-10A1.68,1.68,0,0,0,213.19,160.79ZM209,169.23a4.06,4.06,0,0,1,2.52.8v2.47a3.56,3.56,0,0,1-.75,2.58,2.52,2.52,0,0,1-1.94.77,2.42,2.42,0,0,1-2.11-1.08,3.82,3.82,0,0,1-.61-2.21,3.55,3.55,0,0,1,.78-2.5A2.77,2.77,0,0,1,209,169.23Z"/><path class="cls-2" d="M195.39,166.51a5.93,5.93,0,0,0-4.81,1.88,5.33,5.33,0,0,0-1,3.47v5.31a1.7,1.7,0,0,0,3.39,0v-5a3.34,3.34,0,0,1,.34-1.6,2.23,2.23,0,0,1,2.12-1.08,2.28,2.28,0,0,1,2.14,1.08,3.3,3.3,0,0,1,.31,1.6v5a1.72,1.72,0,0,0,3.43,0v-5.31a5.15,5.15,0,0,0-1.07-3.47,5.84,5.84,0,0,0-4.81-1.88"/><path class="cls-2" d="M181.51,166.53a5.93,5.93,0,0,0-4.63,1.88,6.36,6.36,0,0,0-1.44,4.27,6.5,6.5,0,0,0,1.65,4.58,6.26,6.26,0,0,0,7.31.67,1.68,1.68,0,0,0,1.55.87,1.66,1.66,0,0,0,1.7-1.65V173a6.55,6.55,0,0,0-1.39-4.51,6.14,6.14,0,0,0-4.74-1.93Zm0,3a2.49,2.49,0,0,1,2,.8,4.23,4.23,0,0,1,.77,2.78v2.21a4.85,4.85,0,0,1-2.55.75,2.58,2.58,0,0,1-2.06-.78,3.46,3.46,0,0,1-.82-2.49,4,4,0,0,1,.62-2.22,2.39,2.39,0,0,1,2.08-1.05Z"/><path class="cls-2" d="M173.91,167a5.52,5.52,0,0,0-2.37-.47c-2.15,0-3.86.59-4.84,1.85a5.37,5.37,0,0,0-1,3.48v5.3a1.7,1.7,0,0,0,3.4,0v-5a3.28,3.28,0,0,1,.33-1.6,2.14,2.14,0,0,1,2-1.05,2.65,2.65,0,0,1,1.08.25,2.07,2.07,0,0,0,1.06.33,1.46,1.46,0,0,0,1.47-1.52,1.77,1.77,0,0,0-1.11-1.54"/><path class="cls-2" d="M164,167a5.59,5.59,0,0,0-2.37-.47c-2.17,0-3.87.59-4.85,1.85a5.43,5.43,0,0,0-1,3.48v5.3a1.7,1.7,0,0,0,3.39,0v-5a3.37,3.37,0,0,1,.34-1.6,2.15,2.15,0,0,1,2-1.05,2.7,2.7,0,0,1,1.08.25,2,2,0,0,0,1.06.33,1.46,1.46,0,0,0,1.46-1.52A1.76,1.76,0,0,0,164,167"/><path class="cls-2" d="M147.7,166.53a5.93,5.93,0,0,0-4.63,1.88,6.39,6.39,0,0,0-1.44,4.27,6.52,6.52,0,0,0,1.65,4.58,5.69,5.69,0,0,0,4.12,1.54,5.75,5.75,0,0,0,3.19-.87,1.68,1.68,0,0,0,1.55.87,1.65,1.65,0,0,0,1.69-1.65V173a6.53,6.53,0,0,0-1.39-4.51,6.13,6.13,0,0,0-4.74-1.93Zm0,3a2.48,2.48,0,0,1,2,.8,4.19,4.19,0,0,1,.78,2.78v2.21a4.83,4.83,0,0,1-2.54.75,2.58,2.58,0,0,1-2.06-.78,3.46,3.46,0,0,1-.82-2.49,3.92,3.92,0,0,1,.62-2.22,2.38,2.38,0,0,1,2.08-1.05Z"/><path class="cls-2" d="M129.65,160.79a1.68,1.68,0,0,0-1.7,1.64v10a6.44,6.44,0,0,0,1.39,4.48,6.15,6.15,0,0,0,4.75,1.93,6,6,0,0,0,4.63-1.85,6.44,6.44,0,0,0,1.44-4.3,6.27,6.27,0,0,0-1.57-4.58,5.85,5.85,0,0,0-4.23-1.57,6.37,6.37,0,0,0-3,.64v-4.71a1.7,1.7,0,0,0-1.7-1.64Zm4.23,8.44a2.71,2.71,0,0,1,2.1.82,3.5,3.5,0,0,1,.81,2.5,3.82,3.82,0,0,1-.62,2.22,2.45,2.45,0,0,1-2.11,1.08,2.57,2.57,0,0,1-2-.77,3.58,3.58,0,0,1-.75-2.58V170A4.13,4.13,0,0,1,133.88,169.23Z"/><path class="cls-2" d="M239.56,166.53a1.68,1.68,0,0,0-1.65,1.25l-2.38,7.37h-.11l-2.4-7.24a1.61,1.61,0,0,0-1.56-1.39,1.67,1.67,0,0,0-1.88,1.65,3.71,3.71,0,0,0,.33,1.31l2.73,7.18c.51,1.39,1.22,2.14,2.67,2.14a2.76,2.76,0,0,0,2.74-2.14l2.57-7.12a4.86,4.86,0,0,0,.34-1.39c0-.9-.29-1.63-1.38-1.63"/><path class="cls-2" d="M112.56,130.26,88.88,147.62l4.45,14.09L81.26,153l-12,8.65L74,147.63l-12.2-8.83H76.5l4.79-14.14,3.54,10.89a4.72,4.72,0,0,0,6,3,4.74,4.74,0,0,0,3-6l-8-24.71a4.73,4.73,0,0,0-4.51-3.28h0a4.71,4.71,0,0,0-4.5,3.28l-7,21.43H47.26a4.75,4.75,0,0,0-4.51,3.27,4.84,4.84,0,0,0-.23,1.47,4.73,4.73,0,0,0,2,3.83L62.7,151.18c-.06.18-7,21.44-7,21.44a4.74,4.74,0,0,0,7.29,5.3l18.26-13.23,18.26,13.25a4.74,4.74,0,0,0,5.57,0h0a4.72,4.72,0,0,0,1.71-5.3l-7-21.45,18.24-13.26a4.74,4.74,0,1,0-5.57-7.68"/><path class="cls-2" d="M141.91,137.23l6.43,8.41a3.15,3.15,0,0,1,.69,1.93,3.27,3.27,0,0,1-3.26,3.17,3,3,0,0,1-2.57-1.39l-5.84-8.06-2.72,2.37v3.91a3.28,3.28,0,0,1-3.27,3.17,3.21,3.21,0,0,1-3.26-3.17V119.38a3.26,3.26,0,0,1,6.53,0v16.82l8.66-8.26a2.92,2.92,0,0,1,2-.79,3,3,0,0,1,3,3,2.83,2.83,0,0,1-.84,2.08l-5.59,5"/><path class="cls-2" d="M152.39,117.6a3.76,3.76,0,1,1,3.76,3.76,3.76,3.76,0,0,1-3.76-3.76"/><path class="cls-2" d="M156.15,127.14a3.21,3.21,0,0,1,3.26,3.17v17.26a3.27,3.27,0,0,1-3.26,3.17,3.21,3.21,0,0,1-3.27-3.17V130.31a3.21,3.21,0,0,1,3.27-3.17"/><path class="cls-2" d="M165.45,137.38a10.33,10.33,0,0,1,2-6.68c1.93-2.42,5.24-3.61,9.25-3.61s7.37,1.19,9.25,3.61a10.08,10.08,0,0,1,2,6.68v10.19a3.29,3.29,0,0,1-6.58,0V138a6.44,6.44,0,0,0-.59-3.07,4.37,4.37,0,0,0-4.11-2.08,4.28,4.28,0,0,0-4.05,2.08A6.38,6.38,0,0,0,172,138v9.54a3.27,3.27,0,0,1-6.53,0V137.38"/><path class="cls-2" d="M204.86,127.14c-6.83,0-12.22,4.45-12.22,11.82s5.39,11.77,12.22,11.77,12.27-4.4,12.27-11.77S211.69,127.14,204.86,127.14Zm0,5.54c3.56,0,5.79,2.62,5.79,6.28s-2.22,6.28-5.79,6.28-5.79-2.62-5.79-6.28,2.23-6.28,5.79-6.28Z"/></g></g></g></g></svg>