<svg xmlns="http://www.w3.org/2000/svg" viewBox="0 0 283.46 283.46"><defs><style>.cls-1{fill:#606060;}.cls-2{fill:#fff;}.cls-3{fill:#00aced;}</style></defs><title>kinosvet</title><g id="Layer_2" data-name="Layer 2"><g id="Ostatní_CZ_kanály" data-name="Ostatní CZ kanály"><g id="kinosvet"><rect class="cls-1" width="283.46" height="283.46"/><g id="logo"><path id="path3154" class="cls-2" d="M42.52,127.69v32.09h5.83l.09-14.16,10,14.25H65.2L52.65,142.3,64,127.87l-7.17-.09L48.35,139l-.09-11.2Z"/><path id="path3156" class="cls-2" d="M67.62,127.69l.09,32.18,5.74-.18.09-32Z"/><path id="path3158" class="cls-2" d="M78.56,159.78l.18-32.18h5.64l14.17,21.33V127.6l5.82.09v32.09l-6,.09-14-21.43.09,21.34Z"/><path id="path3160" class="cls-2" d="M177.88,127.69l-6.27.09,10.84,32.09,6.55-.09,11-32.18-6.18.09-8.07,23.48Z"/><path id="path3164" class="cls-2" d="M221.13,127.77l.08,5.77,6.86-.07v26.37l5.85-.16.08-26.21,6.94-.08-.07-5.77Z"/><path id="path3166" class="cls-2" d="M218.63,159.76l-16.85.08.16-32.22h6.55l-6.4-6.87,6.48,0,2.34,3.46,2.62-3.46,6.12,0-6.24,6.9,5.22,0,0,5.93H207.55l.08,5.93h11.16l-.08,5.7-11.16.08.08,8.11,11,.08Z"/><path id="path3170" class="cls-2" d="M157,150.75l2.63,2.78a4.8,4.8,0,0,0,5.44.63,3.24,3.24,0,0,0,.54-5.3l-9.2-8.37c-2.89-2.5-2.62-8.32.44-10.75a9.17,9.17,0,0,1,10.9-.57l3.15,3-3.45,3.57-1.59-1.58a4.23,4.23,0,0,0-5.37-.91,2.7,2.7,0,0,0,.38,4.23l7.8,7.49s3.92,3.05,3,7.85a7.5,7.5,0,0,1-3.55,5.42c-2,1.43-4.21,1.74-7.11,1.43a10.93,10.93,0,0,1-5.55-2.9l-2.68-2.82Z"/><path id="rect4565" class="cls-2" d="M110.18,124.13h37.94v38.59H110.18Z"/><g id="layer2"><path id="path3146" class="cls-3" d="M145.81,143.25a16.63,16.63,0,1,1-16.63-16.63A16.63,16.63,0,0,1,145.81,143.25Z"/></g></g></g></g></g></svg>