<svg xmlns="http://www.w3.org/2000/svg" viewBox="0 0 283.46 283.46"><defs><style>.cls-1{fill:#f6911f;}.cls-2{fill:#fad405;}.cls-3{fill:#fff;}</style></defs><g id="Layer_2" data-name="Layer 2"><g id="Kids"><g id="lalatv"><rect class="cls-1" width="283.46" height="283.46"/><g id="logo"><path class="cls-2" d="M218.09,145.19c1.15,0,2.3.11,3.45.18,1.44.14,3.12.49,3.89,1.87a3.22,3.22,0,0,1-1.51,4.55c-2.25,1-4.74.52-7.11.59-.64.12-.48.93-.38,1.39.78,3.58,1.88,7.09,2.91,10.6.69,2.46,1.83,4.82,2.07,7.39a4.68,4.68,0,0,1-1.09,3.74,4.23,4.23,0,0,1-4.12,1,5.59,5.59,0,0,1-3.31-2.42,10.31,10.31,0,0,1-1.44-4.94,82.16,82.16,0,0,1,.28-13.31,21.37,21.37,0,0,0,.24-2.87c-1.14.15-2.22.6-3.37.73a9.74,9.74,0,0,1-6.23-.77,2.7,2.7,0,0,1-1.48-2.88,4.66,4.66,0,0,1,3.16-3.36,16.47,16.47,0,0,1,4.18-.88c3.33-.29,6.78-.56,9.86-.59Z"/><path class="cls-2" d="M223.43,154.31a2.24,2.24,0,0,1,2.32.58c1.06,1.19,1.28,2.83,1.73,4.3.7,2.37,1.15,4.8,1.63,7.22.12.47.36.31.5-.16a49.14,49.14,0,0,1,4.09-9,6.65,6.65,0,0,1,2.36-2.52,3.3,3.3,0,0,1,4.24,1.32,6.38,6.38,0,0,1,.6,3.8,20.93,20.93,0,0,1-3.74,9.29c-1.49,2.23-2.95,4.6-5.18,6.16a5.78,5.78,0,0,1-6,.36c-2.08-1.06-3.27-3.22-4.14-5.29a26.79,26.79,0,0,1-1.39-5.85,21,21,0,0,1,.67-7.28c.32-1.22,1-2.6,2.28-2.95Z"/><path class="cls-3" d="M55,108.55a5.69,5.69,0,0,1,4-1.72,5.38,5.38,0,0,1,3.75,1.78,11.3,11.3,0,0,1,2.46,5,37,37,0,0,1-.36,20.24,17.7,17.7,0,0,1,10.81-3.28,19.11,19.11,0,0,1,13.46,5.32,20.93,20.93,0,0,1,4.92,21.69,23.87,23.87,0,0,1-17.63,15.18,27.67,27.67,0,0,1-18-2.49,29.31,29.31,0,0,1-14.6-17.55,38,38,0,0,1-.21-19.08c1.6-7,4.66-13.64,8-20A18.86,18.86,0,0,1,55,108.55Z"/><path class="cls-3" d="M146,108.48a5.6,5.6,0,0,1,4.37-1.63,5.92,5.92,0,0,1,4.07,2.63,15,15,0,0,1,2.05,5.31,36.62,36.62,0,0,1-.67,19,17.53,17.53,0,0,1,10.5-3.29,19.34,19.34,0,0,1,13.25,4.81,20.92,20.92,0,0,1,5.48,22.15,23.8,23.8,0,0,1-8.8,11.44c-6.72,4.73-15.76,5.48-23.43,2.78A28.64,28.64,0,0,1,139,161.2a59.71,59.71,0,0,0-1.08-36.82c-.33-.61.11-1.19.32-1.74,1.27-2.93,2.68-5.8,4.17-8.61a20.43,20.43,0,0,1,3.64-5.55Z"/><path class="cls-3" d="M100.2,113.39a25.06,25.06,0,0,1,12.72-5.76,18,18,0,0,1,11.13,2.06,23.5,23.5,0,0,1,8.25,8,42.94,42.94,0,0,1,4.94,11.5,56.72,56.72,0,0,1,.62,27.88,44,44,0,0,1-3.28,9.57,11.56,11.56,0,0,1-6.66,6.07,9.92,9.92,0,0,1-7.73-1.37,22.53,22.53,0,0,1-7.87-8.46,10.68,10.68,0,0,1-4.26,8.88,8.78,8.78,0,0,1-7.19,1.06,14.92,14.92,0,0,1-8.18-5.59,25.26,25.26,0,0,0,5.65-12.82c1.15-8.76-3-18.13-10.59-22.76a40.45,40.45,0,0,1,12.45-18.23M111,115.22a9.76,9.76,0,0,0-7.16,6.87,15.83,15.83,0,0,0,.49,8.83c1.32,4.28,3.7,8.1,6,11.88,2.38-2.94,4.6-6,7-9,2-2.44,3.91-5.07,4.55-8.21a8.78,8.78,0,0,0-2-7.62,9.11,9.11,0,0,0-8.84-2.8Z"/><path class="cls-3" d="M188.64,110.24a17.76,17.76,0,0,1,8.62-2.75A22.93,22.93,0,0,1,211,111.62a39.3,39.3,0,0,1,14,17.67,40.83,40.83,0,0,1,1.68,25.53,3.36,3.36,0,0,0-3.64-1.18c-1.56.55-2.35,2.19-2.76,3.69a26.08,26.08,0,0,0-.63,5.58A84.92,84.92,0,0,1,217,153c2.58.1,5.4.46,7.75-.86a3.83,3.83,0,0,0,.42-6.16c-1.82-1.4-4.24-1.43-6.43-1.45a94.26,94.26,0,0,0-11.14.71,12,12,0,0,0-5.21,1.47,4.46,4.46,0,0,0-2.19,4.46,4.22,4.22,0,0,0,3.4,3.11,16.51,16.51,0,0,0,7.64-.53,76.73,76.73,0,0,0-.62,14.13,15.47,15.47,0,0,0,1,5.09,8.43,8.43,0,0,1-5.93-1.2,10.68,10.68,0,0,1-4.39-8.95,23.9,23.9,0,0,1-5.1,6.43c-2.37,2.08-5.36,3.81-8.61,3.68a9.08,9.08,0,0,1-6.08-2.88A25.53,25.53,0,0,0,190.09,151a24.18,24.18,0,0,0-5.54-14.86,21.36,21.36,0,0,0-8.41-6.1,44.82,44.82,0,0,1,4.91-11.94,24.19,24.19,0,0,1,7.59-7.87m6.79,6.33a8.83,8.83,0,0,0-3.73,8.59c.48,3.09,2.3,5.73,4.19,8.13,2.51,3.14,4.89,6.38,7.39,9.52a56.22,56.22,0,0,0,5.86-11.35,16.75,16.75,0,0,0,.8-8.81,9.88,9.88,0,0,0-5.35-6.76,9.32,9.32,0,0,0-9.16.68Z"/></g></g></g></g></svg>