<?xml version="1.0" encoding="utf-8"?>
<!-- Generator: Adobe Illustrator 24.3.0, SVG Export Plug-In . SVG Version: 6.00 Build 0)  -->
<svg version="1.1" id="Слой_1" xmlns="http://www.w3.org/2000/svg" xmlns:xlink="http://www.w3.org/1999/xlink" x="0px" y="0px"
	 viewBox="0 0 512 226.5" style="enable-background:new 0 0 512 226.5;" xml:space="preserve">
<style type="text/css">
	.st0{fill:#1D1D1B;}
</style>
<g>
	<g>
		<path class="st0" d="M474,163.7c-19.3-2-46.4-3.3-81.3-3.9c-10.2-0.2-21.2-0.4-32.9-0.6c0.6-3.7,1.3-7.6,1.9-11.7
			c1.5-9,3.1-18.4,4.8-28.1c1.7-9.7,3.4-19.4,5.1-29.2c1.7-9.8,3.3-19,4.8-27.5c1.5-8.6,2.9-16.3,4-23.1c1.2-6.8,2.1-12.2,2.8-16
			c9.2,0.2,18.3,0.2,27.3,0.2c9-0.1,17.3-0.2,24.8-0.5c7.5-0.3,13.8-0.7,19.1-1.2c5.2-0.5,8.6-1.2,10.1-2c2.6-1.4,4.5-3.2,5.9-5.3
			c1.4-2.2,2-4.3,1.7-6.4c-0.2-2.1-1.4-3.9-3.5-5.5c-2.1-1.6-5.4-2.5-9.9-2.8c-2.3-0.1-5.9,0-10.7,0.1c-4.9,0.2-10.6,0.5-17.3,0.8
			c-6.7,0.4-14.1,0.8-22.3,1.2c-8.1,0.5-16.6,0.9-25.3,1.2S365.4,4,356.4,4.2c-9.1,0.2-17.8,0.2-26.3,0c-8.4-0.2-16.4-0.6-23.9-1.2
			c-7.5-0.6-14.1-1.6-19.9-2.9c1.6,2.9,3.9,5.7,6.9,8.3c2.6,2.2,6,4.4,10.4,6.6c4.4,2.2,9.9,3.8,16.6,4.9c2.6,0.5,5.8,0.9,9.8,1.2
			c4,0.3,8.4,0.6,13.2,1c4.9,0.3,10.1,0.6,15.8,0.8c5.7,0.2,11.5,0.4,17.5,0.5c-0.6,3.5-1.6,8.4-2.8,14.7
			c-1.2,6.3-2.5,13.5-3.9,21.5c-1.4,8-3,16.6-4.7,25.8c-1.7,9.2-3.4,18.4-5,27.7c-1.7,9.3-3.2,18.3-4.8,27.1
			c-1.2,6.8-2.2,13-3.2,18.9c-26.9-0.5-57.6-0.9-92.4-0.5c-22.1,0.2-45.8,0-71.1-0.1c0.2-1.4,0.5-3,0.8-4.8
			c0.7-4.5,1.6-10.1,2.6-16.7c1.1-6.6,2.3-13.8,3.7-21.8c1.4-7.9,2.9-16.1,4.5-24.6c0.5-0.6,1.1-1.1,1.9-1.7c0.8-0.6,1.7-1,2.8-1.5
			c1.2-0.4,2.5-0.4,4,0.3c1.5,0.6,3,1.5,4.7,2.5c1.7,1.1,3.3,2.2,5.1,3.3c1.7,1.1,3.5,2.1,5.2,2.8c1.7,0.7,3.4,1,5.1,0.9
			c1.7-0.1,3.3-0.9,4.8-2.5c2.3-2.3,4.1-4.2,5.5-5.7c0.9-1,1.6-1.8,2.2-2.5c-2,2.6-3.8,5.3-5.2,8.1c-2.1,4.1-3.5,8-4.1,11.6
			c-0.6,3.5-0.7,7.2-0.1,11.2c0.6,3.9,1.8,7.6,3.8,10.9c2,3.3,4.7,6.1,8.2,8.3c3.5,2.2,7.9,3.3,13.4,3.3c3.6,0,7.3-0.6,11-1.7
			c3.8-1.1,7.5-2.5,11.1-4.2c3.6-1.7,7.1-3.6,10.3-5.6c3.3-2,6.1-3.9,8.6-5.7c2.5-1.8,4.5-3.4,6.1-4.7c1.6-1.3,2.5-2.1,2.7-2.4
			c0.4-0.4,0.6-0.8,0.6-1.4s-0.2-1-0.4-1.4c-0.3-0.4-0.7-0.5-1.2-0.4c-0.6,0.1-1.2,0.6-1.9,1.4c-4.8,4.4-9.1,7.7-13.1,9.8
			c-4,2.2-7.3,3.7-10.2,4.8c-3.4,1.1-6.4,1.7-9.1,1.7c-3.7,0-6.7-0.9-9-2.8c-2.3-1.8-4.2-4.2-5.6-7.1c2.3-1.8,4.9-4,7.7-6.5
			c2.8-2.5,5.6-5.1,8.3-7.7c2.7-2.7,5.1-5.3,7.3-8c2.1-2.7,3.7-5.2,4.6-7.5c0.7-2.1,1.2-4.3,1.4-6.6c0.2-2.3-0.2-4.4-1.2-6.3
			c-1-1.9-2.6-3.5-4.9-4.8c-2.4-1.2-5.6-1.8-9.8-1.8c-5.2,0-10.1,1.2-14.5,3.5c-4.4,2.3-8.3,5.3-11.6,8.8c-0.7,0.8-1.4,1.6-2.1,2.4
			c0,0,0.1-0.1,0.1-0.1c0.7-0.9,1-1.6,1.1-2.1c0-0.5-0.1-1-0.3-1.3s-0.6-0.5-0.8-0.5c-0.3,0-0.6,0.2-0.9,0.4c-0.3,0.2-0.7,0.5-1,0.7
			c-0.4,0.2-0.8,0.3-1.4,0.3c-0.6-0.1-1.8-0.7-3.9-1.8c-2-1.1-4.3-2.2-7-3.3c-2.6-1.1-5.3-1.9-8.1-2.5c-2.8-0.6-5.2-0.2-7.4,1
			c-1,0.6-2,1.1-2.9,1.7c-0.9,0.6-1.8,1.2-2.8,1.9c3.5-5,7.1-10.3,10.9-16.1c3.8-5.8,7.3-11.5,10.7-17.2c3.4-5.7,6.3-11.2,8.8-16.5
			c2.5-5.3,4.3-9.9,5.4-13.9c1-4,1.1-7.2,0.3-9.6c-0.9-2.4-3-3.7-6.5-3.7c-5.4,0-10.5,1.7-15.3,5.1c-4.8,3.4-9.3,8-13.5,13.8
			c-4.2,5.8-8.1,12.5-11.6,20.2c-3.5,7.7-6.8,15.9-9.8,24.7c-3,8.7-5.6,17.7-8,26.9c-2.3,9.2-4.4,18.3-6,27.1c0,0,0,0,0,0.1
			c-1.9,1.3-3.7,2.5-5.6,3.5c-1.7,1-3.7,1.9-5.7,2.7c-2.1,0.8-4,1.2-5.9,1.2c-1.8,0-3.1-0.8-3.9-2.5c-0.8-1.7-1.2-3.8-1.2-6.6
			s0.2-5.9,0.7-9.3c0.5-3.4,1-7,1.6-10.7c0.7-3.7,1.3-7.2,1.9-10.7c0.6-3.4,1-6.5,1.1-9.3c0.2-2.8,0-4.9-0.5-6.6
			c-0.5-1.7-1.5-2.5-3-2.5c-3.5,0-6.8,1.5-9.8,4.6c-3.1,3.1-6.3,7-9.5,11.6c-3.3,4.7-6.7,9.8-10.3,15.4c-3.6,5.6-7.7,10.9-12.3,15.9
			c-0.6,0.6-0.8,1.2-0.7,1.7c0.1,0.5,0.3,0.8,0.8,1c0.4,0.2,0.9,0.3,1.6,0.1c0.6-0.1,1.2-0.5,1.8-1.2c0.3-0.3,1.1-1.4,2.5-3.3
			c1.4-1.9,3.1-4.2,5.1-6.8c2-2.6,4-5.4,6.1-8.3c2.1-2.9,3.9-5.6,5.5-7.9c0.6,0,0.6,1.2,0.1,3.5c-0.5,2.3-1.1,5.2-1.8,8.7
			c-0.7,3.4-1.3,7.2-1.8,11.3c-0.5,4.1-0.5,7.9,0.1,11.3c0.6,3.5,1.9,6.4,4.1,8.7c2.1,2.3,5.4,3.5,9.9,3.5c3.1,0,6.3-0.6,9.4-1.8
			c3.1-1.2,6.1-2.7,9-4.4c2.8-1.7,5.5-3.7,7.9-5.7c0.6-0.5,1.3-1.1,1.8-1.6c-1.2,6.7-2.3,13.2-3.2,19.4c-0.6,4.6-1.2,8.8-1.6,12.8
			c-8.6,0-17.3,0-26.3,0.1c-4.5,0-9.3,0-14.5,0.1c-4.8,0.1-9.7,0.2-14.8,0.3c-9.5,0.2-19.2,0.5-29.1,0.9c0.8-5.3,1.6-10.8,2.4-16.5
			c2.3-17.5,4.6-34.8,6.8-51.9c2.2-17.1,4.4-33.2,6.6-48.1c2.2-14.9,4.5-26.7,7-35.4c-4.7,2.3-8.8,8-12.4,17.2
			c-3.6,9.2-7.1,22.3-10.6,39.4c-3.5,17.1-7.2,39-11.1,65.6c-1.4,9.6-2.9,19.9-4.5,30.8c-6.6,0.4-13,0.9-19.1,1.4
			c-6.7,0.6-12.9,1.1-18.3,1.8c-5.5,0.6-10,1.3-13.7,2.1s-6.1,1.5-7.3,2.2c-2.7,1.7-4.7,3.6-6,5.9c-1.3,2.3-1.8,4.5-1.5,6.7
			c0.4,2.1,1.7,4,4.1,5.5c2.3,1.5,6,2.3,10.8,2.3c1.7,0,4.1-0.1,7.2-0.4c3.2-0.3,6.9-0.6,11.2-1.1c4.3-0.5,9-1,14.2-1.6
			c4.7-0.5,9.7-1.1,15-1.7c-1.9,12.9-3.9,26.5-6,40.9c4,3.6,7.7,1.8,11-5.4c3.3-7.2,6.3-17.3,9-30.4c0.5-2.2,0.9-4.5,1.4-6.8
			c5.3-0.3,10.7-0.4,16.4-1c7.6-0.8,16.7-1.5,24.3-2.1c7.6-0.6,24.2-1.6,31.8-1.6c7.1,0,11.2-0.3,14.9-0.6c0,1.4,0,2.6,0.1,3.8
			c0.2,3.6,0.7,5.6,1.5,5.9c2,0.8,4.1,0.8,6.1-0.1c2-0.9,3.9-2.4,5.7-4.5c1.3-1.5,2.5-3.4,3.6-5.5c17.2-0.3,35.8-0.7,55.8-1.1
			c35.3-0.6,70.2-1.2,104.7-1.9c2.3,0,4.7-0.1,7-0.1c-0.6,3.5-1,6.7-1.5,9.6c-0.8,5.2-1.2,8.8-1.3,10.9c-0.3,4.6-0.1,7.8,0.6,9.6
			c0.7,1.8,1.5,2.7,2.4,2.6c0.9-0.1,1.8-0.9,2.5-2.5c0.8-1.6,1.2-3.4,1.2-5.5c0-1,0.3-3.9,1-8.5c0.6-4.4,1.5-9.8,2.6-16.3
			c29.1-0.5,56.6-1,82.5-1.2c30.2-0.3,54.2,0,72.1,1C505.9,168.8,493.3,165.7,474,163.7 M254.6,102.7c0.3-4.8,1.2-9.3,2.6-13.4
			c1.4-4.1,3.4-7.6,5.9-10.4c2.5-2.8,5.3-4.2,8.4-4.2c1.8,0,3.6,0.3,5.2,0.8c1.6,0.6,2.9,1.4,3.9,2.6c1,1.2,1.5,2.8,1.7,4.8
			c0.2,2-0.2,4.4-1.1,7.2c-0.6,2-1.9,4.2-3.8,6.6c-1.9,2.3-4,4.7-6.5,7c-2.4,2.3-5,4.6-7.7,6.7c-2.7,2.2-5.2,4.1-7.4,5.7
			C254.7,112,254.3,107.5,254.6,102.7 M209.3,52.2c2.3-8.4,4.9-15.9,7.6-22.5c2.7-6.5,5.6-11.7,8.8-15.6c3.1-3.9,6.5-5.9,10.1-5.9
			c1.9,0,2.9,1,3,3.1c0.1,2.1-0.5,4.9-1.7,8.4c-1.2,3.5-3.1,7.6-5.5,12.3c-2.4,4.7-5.2,9.6-8.3,14.8c-3.1,5.2-6.4,10.5-9.9,15.9
			s-7.1,10.6-10.5,15.7C204.8,69.4,207,60.6,209.3,52.2"/>
		<path class="st0" d="M151.1,59.1c3.2,0,6.1-1.1,8.7-3.3c2.6-2.2,4.2-4.9,4.8-8.1c0.6-3.1-0.1-5.8-1.9-8c-1.8-2.2-4.4-3.3-7.6-3.3
			c-3.2,0-6.1,1.1-8.7,3.3c-2.6,2.2-4.1,4.8-4.7,8c-0.6,3.2,0.1,5.9,1.8,8.1S147.9,59.1,151.1,59.1"/>
		<path class="st0" d="M335.2,114.1c2.1-1.9,3.5-4.2,3.9-6.9c0.4-2.7-0.2-4.9-1.9-6.8c-1.6-1.9-3.7-2.8-6.4-2.7
			c-2.7,0.1-5.1,1.1-7.3,3.1c-2.2,2-3.5,4.3-4,7c-0.5,2.7,0.2,4.9,1.9,6.7c1.7,1.8,3.9,2.7,6.5,2.6C330.7,117,333.1,116,335.2,114.1
			"/>
		<path class="st0" d="M434.2,70.1c0.8-2.9,0.7-5.2-0.3-7c-1-1.8-3.2-2.7-6.7-2.7c-2.9,0-5.5,0.4-7.8,1.2c-2.2,0.8-4.2,1.8-5.9,3.1
			c-1.7,1.3-3.1,2.8-4.2,4.4c-1.1,1.7-2.1,3.3-2.8,5.1c-1.7,4.1-2.8,8.6-3.2,13.6c-0.4,8,0,15.1,1,21.4c0.5,2.7,1.1,5.2,1.9,7.8
			c0.8,2.5,1.8,4.8,3.1,6.8c1.3,2,2.9,3.6,4.7,4.8c1.8,1.2,4,1.8,6.6,1.8c1.6,0,3.3-0.6,5.1-1.7c1.8-1.1,3.7-2.7,5.6-4.5
			c1.9-1.9,3.9-4,5.8-6.5c1.9-2.4,3.8-4.9,5.5-7.5c4.1-6,8.3-12.8,12.5-20.4c1.7-2.9,3.3-5.9,5-8.8c1.4-2.5,2.8-5.2,4.3-8
			c1.5-2.9,2.8-5.4,3.9-7.6c0.4-0.7,0.5-1.3,0.3-1.7c-0.2-0.4-0.5-0.7-1-0.8c-0.5-0.1-1,0-1.6,0.2c-0.6,0.2-1.1,0.7-1.6,1.3
			c-1.3,2-2.8,4.6-4.6,7.7c-1.8,3.1-3.7,6.4-5.6,9.9c-2,3.5-4,7-6.1,10.5c-2.1,3.5-4,6.7-5.8,9.5c-1.8,2.8-3.4,5.1-4.8,6.8
			c-1.4,1.7-2.4,2.6-3.2,2.6c-0.7,0-1.6-0.6-2.6-1.8c-1-1.2-2-2.8-3-4.7c-1-1.9-2-4.2-3-6.7c-1-2.5-1.9-5.2-2.8-7.9
			c2.5-3.6,4.8-7.1,6.8-10.7C432,76.2,433.4,73,434.2,70.1 M422,86.7c-0.7-2.9-1.3-5.8-1.7-8.5c-0.4-2.8-0.4-5.2-0.2-7.4
			c0.2-2.1,0.8-3.9,1.8-5.2c1-1.3,2.4-2,4.4-2c2.2,0,3.6,0.7,4.1,2c0.6,1.3,0.5,3.1-0.1,5.2c-0.6,2.2-1.7,4.6-3.2,7.5
			C425.7,81,423.9,83.8,422,86.7"/>
	</g>
</g>
</svg>
