<?xml version="1.0" standalone="yes"?>
<svg xmlns="http://www.w3.org/2000/svg" width="1024" height="1024">
<path style="fill:#0f3baf; stroke:none;" d="M0 0L0 1024L1024 1024L1024 0L0 0z"/>
<path style="fill:#5e789a; stroke:none;" d="M219 440L219 441L239 441L219 440M213 441L213 442L217 442L213 441z"/>
<path style="fill:#ffffff; stroke:none;" d="M158 517L159 517C165.994 504.438 175.272 492.735 183.576 481C186.546 476.802 189.89 469.904 195.999 470.337C201.893 470.755 204.756 477.571 207.281 482C214.467 494.603 222.86 506.85 229 520C236.043 516.866 241.684 511.326 249 508.464C268.631 500.784 283.679 512.336 299 523C301.359 513.093 300.152 501.691 297.279 492C287.029 457.426 254.233 437.648 219 441.171C184.316 444.639 151.375 481.188 158 517z"/>
<path style="fill:#5e789a; stroke:none;" d="M241 441L241 442L244 442L241 441M209 442L209 443L212 443L209 442M246.667 442.333L247.333 442.667L246.667 442.333M206.667 443.333L207.333 443.667L206.667 443.333M249 443L249 444L252 444L249 443M203.667 444.333L204.333 444.667L203.667 444.333M252.667 444.333L253.333 444.667L252.667 444.333M201 445L202 446L201 445M255.667 445.333L256.333 445.667L255.667 445.333M199 446L200 447L199 446M258 446L259 447L258 446M196.667 447.333L197.333 447.667L196.667 447.333M260 447L261 448L260 447M195 448L196 449L195 448M262 448L263 449L262 448M193 449L194 450L193 449M263.667 449.333L264.333 449.667L263.667 449.333z"/>
<path style="fill:#ffffff; stroke:none;" d="M610 449L610 553L630 553C630 541.117 630.43 534.956 639 526C642.688 533.224 652.494 549.252 660.171 552.397C666.556 555.013 677.137 553 684 553L661.881 523L654.306 511L661.83 501L679 480C672.208 480 661.586 477.968 655.286 480.603C645.782 484.578 636.716 500.312 630 508L630 449L610 449M690 472C695.596 472 703.664 473.484 708.91 471.397C715.969 468.588 723.085 455.287 727 449C720.854 449 710.986 447.099 705.326 449.603C698.879 452.456 692.874 465.851 690 472z"/>
<path style="fill:#5e789a; stroke:none;" d="M191 450L192 451L191 450M265.667 450.333L266.333 450.667L265.667 450.333M267 451L268 452L267 451M188 452L189 453L188 452M268.667 452.333L269.333 452.667L268.667 452.333M270 453L271 454L270 453M185 454L186 455L185 454M271 454L272 455L271 454M184 455L185 456L184 455M273 455L274 456L273 455M274 456L275 457L274 456M182 457L183 458L182 457M275 457L276 458L275 457M180 458L181 459L180 458M276 458L277 459L276 458M179 459L180 460L179 459M277 459L278 460L277 459M178 460L179 461L178 460M278 460L279 461L278 460M177 461L178 462L177 461M279 461L280 462L279 461M176 462L177 463L176 462M280 462L281 463L280 462M175 463L176 464L175 463M281 463L282 464L281 463M282 464L283 465L282 464z"/>
<path style="fill:#bbc0d9; stroke:none;" d="M174 465L175 466L174 465z"/>
<path style="fill:#5e789a; stroke:none;" d="M283 465L284 466L283 465M284 466L285 467L284 466M172 467L173 468L172 467M285.333 467.667L285.667 468.333L285.333 467.667M171 468L172 469L171 468M286 469L287 470L286 469M192 470L193 471L192 470z"/>
<path style="fill:#bbc776; stroke:none;" d="M193.667 470.333L194.333 470.667L193.667 470.333M196.667 470.333L197.333 470.667L196.667 470.333z"/>
<path style="fill:#5e789a; stroke:none;" d="M198 470L199 471L198 470M287 470L289 473L287 470M169 471L170 472L169 471M190 471L191 472L190 471z"/>
<path style="fill:#bbc776; stroke:none;" d="M191 471L192 472L191 471M199 471L200 472L199 471z"/>
<path style="fill:#5e789a; stroke:none;" d="M200 471L201 472L200 471M168 472L169 473L168 472M189 472L190 473L189 472M201 472L202 473L201 472z"/>
<path style="fill:#0f3baf; stroke:none;" d="M188 473L189 474L188 473z"/>
<path style="fill:#bbc776; stroke:none;" d="M189 473L190 474L189 473z"/>
<path style="fill:#5e789a; stroke:none;" d="M289 473L290 474L289 473M167 474L168 475L167 474z"/>
<path style="fill:#bbc776; stroke:none;" d="M188 474L189 475L188 474M202 474L203 475L202 474z"/>
<path style="fill:#5e789a; stroke:none;" d="M187 475L188 476L187 475M203 475L204 476L203 475M290 475L291 476L290 475M166 476L167 477L166 476z"/>
<path style="fill:#bbc776; stroke:none;" d="M203 476L204 477L203 476z"/>
<path style="fill:#5e789a; stroke:none;" d="M291.333 476.667L291.667 477.333L291.333 476.667M165 477L166 478L165 477z"/>
<path style="fill:#bbc776; stroke:none;" d="M186 477L187 478L186 477z"/>
<path style="fill:#5e789a; stroke:none;" d="M204 477L205 478L204 477M185 478L186 479L185 478M292.333 478.667L292.667 479.333L292.333 478.667M164 479L165 480L164 479M184 479L185 480L184 479z"/>
<path style="fill:#bbc776; stroke:none;" d="M205 479L206 480L205 479z"/>
<path style="fill:#ffffff; stroke:none;" d="M357 487L357 480L337 480L337 553L357 553C357 538.959 354.251 521.679 357.394 508C358.626 502.639 363.343 497.662 369 497.233C375.712 496.724 380.653 503.133 382.235 509C385.794 522.192 383 539.361 383 553L403 553C403 538.96 400.251 521.679 403.394 508C404.676 502.423 410.032 497.143 416 497.214C422.076 497.286 427.133 503.512 428.467 509C431.707 522.33 429 539.29 429 553L449 553C449 529.61 457.737 479.44 422 479.004C418.345 478.959 414.55 478.78 411 479.789C405.075 481.473 400.911 485.584 396 489C388.651 473.963 366.967 477.551 357 487M518 546L518 553L538 553L538 480L518 480L518 487C511.919 482.363 505.776 479.099 498 479.004C491.298 478.922 485.077 479.217 479 482.402C442.531 501.517 463.395 564.985 505 553.254C510.055 551.828 514.028 549.374 518 546M571 488L571 480L551 480L551 553L571 553C571 538.125 564.308 504.368 582 497.97C587.217 496.083 592.679 497.58 598 498C598 493.637 599.79 484.161 596.972 480.603C590.823 472.839 575.434 483.769 571 488M848 546L848 553L867 553L867 480L848 480L848 488C843.59 483.819 839.038 480.806 833 479.518C828.088 478.47 821.93 478.537 817 479.468C774.557 487.475 785.18 561.098 829 554.409C836.297 553.295 842.152 550.459 848 546z"/>
<path style="fill:#bbc776; stroke:none;" d="M184 480L185 481L184 480z"/>
<path style="fill:#5e789a; stroke:none;" d="M206 480L207 481L206 480M293.333 480.667L293.667 481.333L293.333 480.667z"/>
<path style="fill:#ffffff; stroke:none;" d="M690 480L690 553L710 553L710 480L690 480z"/>
<path style="fill:#5e789a; stroke:none;" d="M722 480L723 481L722 480z"/>
<path style="fill:#ffffff; stroke:none;" d="M758 498L734.911 523L722.603 538L722 553L784 553L784 536L749 536L783.062 497L784 480L742 480C737.099 480 728.783 478.406 724.318 480.603C720.577 482.444 720.577 495.556 724.318 497.397C732.26 501.305 749.142 498 758 498z"/>
<path style="fill:#5e789a; stroke:none;" d="M836 480L837 481L836 480M163.333 481.667L163.667 482.333L163.333 481.667z"/>
<path style="fill:#bbc776; stroke:none;" d="M183 481L184 482L183 481M206 481L207 482L206 481z"/>
<path style="fill:#5e789a; stroke:none;" d="M182 482L183 483L182 482M207 482L208 483L207 482M294.333 482.667L294.667 483.333L294.333 482.667z"/>
<path style="fill:#bbc0d9; stroke:none;" d="M181 483L182 484L181 483z"/>
<path style="fill:#bbc776; stroke:none;" d="M182 483L183 484L182 483M207 483L208 484L207 483z"/>
<path style="fill:#5e789a; stroke:none;" d="M162 484L163 485L162 484z"/>
<path style="fill:#bbc776; stroke:none;" d="M181 484L182 485L181 484M208 484L209 485L208 484z"/>
<path style="fill:#5e789a; stroke:none;" d="M295.333 484.667L295.667 485.333L295.333 484.667M805 484L806 485L805 484M180 485L181 486L180 485M209 485L210 486L209 485M161 486L162 487L161 486z"/>
<path style="fill:#bbc776; stroke:none;" d="M209 486L210 487L209 486M179 487L180 488L179 487z"/>
<path style="fill:#5e789a; stroke:none;" d="M210 487L211 488L210 487M296.333 487.667L296.667 488.333L296.333 487.667M178 488L179 489L178 488z"/>
<path style="fill:#bbc776; stroke:none;" d="M210 488L211 489L210 488z"/>
<path style="fill:#5e789a; stroke:none;" d="M160 489L161 490L160 489M177 489L178 490L177 489M211 489L212 490L211 489z"/>
<path style="fill:#bbc776; stroke:none;" d="M177 490L178 491L177 490z"/>
<path style="fill:#5e789a; stroke:none;" d="M297 490L297 493L298 493L297 490z"/>
<path style="fill:#bbc776; stroke:none;" d="M176 491L177 492L176 491M212 491L213 492L212 491z"/>
<path style="fill:#5e789a; stroke:none;" d="M159.333 492.667L159.667 493.333L159.333 492.667M175 492L176 493L175 492M213 492L214 493L213 492z"/>
<path style="fill:#bbc776; stroke:none;" d="M175 493L176 494L175 493z"/>
<path style="fill:#5e789a; stroke:none;" d="M194 493L196 495L194 493z"/>
<path style="fill:#bbc776; stroke:none;" d="M195 493L196 494L195 493M213 493L214 494L213 493z"/>
<path style="fill:#5e789a; stroke:none;" d="M298 493L298 497L299 497L298 493z"/>
<path style="fill:#bbc0d9; stroke:none;" d="M159 494L160 495L159 494z"/>
<path style="fill:#bbc776; stroke:none;" d="M174 494L175 495L174 494M193 494L194 495L193 494z"/>
<path style="fill:#ffffff; stroke:none;" d="M194 494C187.774 505.172 179.489 515.399 172.33 526C169.707 529.885 165.115 534.344 164.056 539C161.971 548.171 176.799 562.216 183 567.192C207.469 586.829 244.257 589.067 270 570.359C276.472 565.655 296.265 549.722 292.273 540C285.592 523.73 260.555 517.207 247 527.532C241.769 531.517 233.649 544.903 226.015 542.238C220.73 540.394 218.161 533.455 215.576 529C209.339 518.254 203.433 502.081 194 494z"/>
<path style="fill:#5e789a; stroke:none;" d="M214 494L215 495L214 494M173 495L174 496L173 495z"/>
<path style="fill:#bbc776; stroke:none;" d="M196 495L197 496L196 495M214 495L215 496L214 495z"/>
<path style="fill:#5e789a; stroke:none;" d="M158 496L158 499L159 499L158 496z"/>
<path style="fill:#0f3baf; stroke:none;" d="M172 496L173 497L172 496z"/>
<path style="fill:#bbc0d9; stroke:none;" d="M173 496L174 497L173 496z"/>
<path style="fill:#5e789a; stroke:none;" d="M192 496L193 497L192 496z"/>
<path style="fill:#bbc0d9; stroke:none;" d="M197 496L198 497L197 496z"/>
<path style="fill:#bbc776; stroke:none;" d="M215 496L216 497L215 496M172 497L173 498L172 497M191 497L192 498L191 497z"/>
<path style="fill:#5e789a; stroke:none;" d="M197 497L198 498L197 497M299 497L299 502L300 502L299 497z"/>
<path style="fill:#0f3baf; stroke:none;" d="M495 497.532C471.086 503.222 480.316 541.92 505 535.442C527.459 529.548 518.173 492.019 495 497.532M824 497.638C800.453 504.443 810.873 542.912 835 535.347C857.264 528.366 847.033 490.982 824 497.638z"/>
<path style="fill:#5e789a; stroke:none;" d="M171 498L172 499L171 498z"/>
<path style="fill:#bbc776; stroke:none;" d="M198 498L199 499L198 498M216 498L217 499L216 498z"/>
<path style="fill:#5e789a; stroke:none;" d="M597 498L598 499L597 498M190 499L191 500L190 499M198 499L199 500L198 499M217 499L218 500L217 499z"/>
<path style="fill:#bbc776; stroke:none;" d="M170 500L171 501L170 500M189 500L188 502L189 500M199 500L200 501L199 500M217 500L218 501L217 500z"/>
<path style="fill:#5e789a; stroke:none;" d="M157 501L157 507L158 507L157 501M169 501L170 502L169 501z"/>
<path style="fill:#bbc0d9; stroke:none;" d="M189 501L190 502L189 501z"/>
<path style="fill:#5e789a; stroke:none;" d="M218 501L219 502L218 501M511 501L512 502L511 501M168 502L169 503L168 502M188 502L189 503L188 502z"/>
<path style="fill:#bbc776; stroke:none;" d="M200 502L201 503L200 502z"/>
<path style="fill:#5e789a; stroke:none;" d="M219 502L220 503L219 502z"/>
<path style="fill:#bbc776; stroke:none;" d="M168 503L169 504L168 503M187 503L188 504L187 503M201 503L202 504L201 503M219 503L220 504L219 503z"/>
<path style="fill:#5e789a; stroke:none;" d="M485 503L486 504L485 503z"/>
<path style="fill:#bbc776; stroke:none;" d="M167 504L168 505L167 504M186 504L187 505L186 504z"/>
<path style="fill:#5e789a; stroke:none;" d="M201 504L202 505L201 504M220 504L221 505L220 504M300 504L300 520L301 520L300 504M166 505L167 506L166 505M186 505L187 506L186 505z"/>
<path style="fill:#bbc776; stroke:none;" d="M202 505L203 506L202 505M220 505L221 506L220 505z"/>
<path style="fill:#5e789a; stroke:none;" d="M572 505L573 506L572 505M632 505L633 506L632 505M844 505L845 506L844 505z"/>
<path style="fill:#bbc0d9; stroke:none;" d="M165 506L166 507L165 506z"/>
<path style="fill:#bbc776; stroke:none;" d="M166 506L167 507L166 506M185 506L186 507L185 506z"/>
<path style="fill:#5e789a; stroke:none;" d="M202 506L203 507L202 506M221 506L222 507L221 506M255 506L255 507L258 507L255 506z"/>
<path style="fill:#bbc776; stroke:none;" d="M258 506L258 507L267 507L258 506z"/>
<path style="fill:#5e789a; stroke:none;" d="M267.667 506.333L268.333 506.667L267.667 506.333z"/>
<path style="fill:#bbc776; stroke:none;" d="M165 507L166 508L165 507M184 507L185 508L184 507M203 507L204 508L203 507M221 507L222 508L221 507z"/>
<path style="fill:#5e789a; stroke:none;" d="M251.667 507.333L252.333 507.667L251.667 507.333z"/>
<path style="fill:#bbc776; stroke:none;" d="M253 507L254 508L253 507z"/>
<path style="fill:#bbc0d9; stroke:none;" d="M270 507L271 508L270 507z"/>
<path style="fill:#bbc776; stroke:none;" d="M271 507L272 508L271 507z"/>
<path style="fill:#5e789a; stroke:none;" d="M272 507L273 508L272 507M164 508L165 509L164 508M184 508L185 509L184 508M222 508L223 509L222 508z"/>
<path style="fill:#bbc776; stroke:none;" d="M249.667 508.333L250.333 508.667L249.667 508.333M274.667 508.333L275.333 508.667L274.667 508.333z"/>
<path style="fill:#5e789a; stroke:none;" d="M276 508L277 509L276 508M183 509L184 510L183 509M204 509L205 510L204 509M246 509L247 510L246 509z"/>
<path style="fill:#bbc776; stroke:none;" d="M247 509L248 510L247 509M277 509L278 510L277 509z"/>
<path style="fill:#5e789a; stroke:none;" d="M278 509L279 510L278 509z"/>
<path style="fill:#bbc776; stroke:none;" d="M163 510L164 511L163 510M182 510L183 511L182 510M205 510L206 511L205 510M223 510L224 511L223 510z"/>
<path style="fill:#5e789a; stroke:none;" d="M244 510L245 511L244 510z"/>
<path style="fill:#bbc776; stroke:none;" d="M245 510L246 511L245 510M280 510L281 511L280 510z"/>
<path style="fill:#5e789a; stroke:none;" d="M162 511L163 512L162 511M205 511L206 512L205 511M224 511L225 512L224 511M242 511L243 512L242 511z"/>
<path style="fill:#bbc776; stroke:none;" d="M243 511L244 512L243 511M282 511L283 512L282 511z"/>
<path style="fill:#5e789a; stroke:none;" d="M161 512L162 513L161 512M181 512L182 513L181 512z"/>
<path style="fill:#bbc776; stroke:none;" d="M206 512L207 513L206 512M224 512L225 513L224 512z"/>
<path style="fill:#5e789a; stroke:none;" d="M240 512L241 513L240 512z"/>
<path style="fill:#bbc776; stroke:none;" d="M241 512L242 513L241 512z"/>
<path style="fill:#5e789a; stroke:none;" d="M284 512L285 513L284 512z"/>
<path style="fill:#bbc776; stroke:none;" d="M161 513L162 514L161 513M180 513L181 514L180 513z"/>
<path style="fill:#5e789a; stroke:none;" d="M206 513L207 514L206 513M225 513L226 514L225 513z"/>
<path style="fill:#bbc776; stroke:none;" d="M239 513L240 514L239 513M285 513L286 514L285 513z"/>
<path style="fill:#5e789a; stroke:none;" d="M286 513L287 514L286 513M157 514L158 515L157 514z"/>
<path style="fill:#bbc776; stroke:none;" d="M160 514L161 515L160 514z"/>
<path style="fill:#5e789a; stroke:none;" d="M179.333 514.667L179.667 515.333L179.333 514.667z"/>
<path style="fill:#0f3baf; stroke:none;" d="M180 514L181 515L180 514z"/>
<path style="fill:#bbc776; stroke:none;" d="M207 514L208 515L207 514M225 514L226 515L225 514z"/>
<path style="fill:#5e789a; stroke:none;" d="M237 514L238 515L237 514z"/>
<path style="fill:#bbc776; stroke:none;" d="M238 514L239 515L238 514M287 514L288 515L287 514z"/>
<path style="fill:#5e789a; stroke:none;" d="M847 514L848 515L847 514M159 515L160 516L159 515M226 515L227 516L226 515M236 515L237 516L236 515z"/>
<path style="fill:#bbc776; stroke:none;" d="M288 515L289 516L288 515z"/>
<path style="fill:#5e789a; stroke:none;" d="M289 515L290 516L289 515z"/>
<path style="fill:#bbc776; stroke:none;" d="M159 516L160 517L159 516M178 516L177 518L178 516z"/>
<path style="fill:#5e789a; stroke:none;" d="M208 516L209 517L208 516z"/>
<path style="fill:#bbc0d9; stroke:none;" d="M234 516L235 517L234 516z"/>
<path style="fill:#bbc776; stroke:none;" d="M235 516L236 517L235 516z"/>
<path style="fill:#5e789a; stroke:none;" d="M290 516L291 517L290 516M157.333 517.667L157.667 518.333L157.333 517.667z"/>
<path style="fill:#bbc776; stroke:none;" d="M158 517L159 518L158 517z"/>
<path style="fill:#bbc0d9; stroke:none;" d="M178 517L179 518L178 517z"/>
<path style="fill:#bbc776; stroke:none;" d="M209 517L210 518L209 517M227 517L228 518L227 517z"/>
<path style="fill:#5e789a; stroke:none;" d="M233 517L234 518L233 517z"/>
<path style="fill:#bbc776; stroke:none;" d="M234 517L235 518L234 517M291 517L293 519L291 517z"/>
<path style="fill:#5e789a; stroke:none;" d="M292 517L293 518L292 517M177 518L178 519L177 518M209 518L210 519L209 518M228 518L229 519L228 518M232 518L233 519L232 518M293 518L294 519L293 518z"/>
<path style="fill:#bbc776; stroke:none;" d="M176 519L177 520L176 519M210 519L211 520L210 519M228 519L229 520L228 519z"/>
<path style="fill:#5e789a; stroke:none;" d="M231 519L232 520L231 519M294 519L295 520L294 519z"/>
<path style="fill:#bbc776; stroke:none;" d="M175 520L176 521L175 520z"/>
<path style="fill:#5e789a; stroke:none;" d="M210 520L211 521L210 520M229.667 520.333L230.333 520.667L229.667 520.333M295 520L296 521L295 520M175 521L176 522L175 521z"/>
<path style="fill:#bbc776; stroke:none;" d="M211 521L212 522L211 521z"/>
<path style="fill:#5e789a; stroke:none;" d="M259 521L260 522L259 521z"/>
<path style="fill:#bbc776; stroke:none;" d="M260 521L260 522L266 522L260 521M296 521L297 522L296 521M174 522L175 523L174 522z"/>
<path style="fill:#5e789a; stroke:none;" d="M211 522L212 523L211 522z"/>
<path style="fill:#bbc776; stroke:none;" d="M255.667 522.333L256.333 522.667L255.667 522.333z"/>
<path style="fill:#5e789a; stroke:none;" d="M257 522L258 523L257 522M268 522L269 523L268 522z"/>
<path style="fill:#bbc776; stroke:none;" d="M269.667 522.333L270.333 522.667L269.667 522.333M297 522L298 523L297 522z"/>
<path style="fill:#5e789a; stroke:none;" d="M299.333 522.667L299.667 523.333L299.333 522.667z"/>
<path style="fill:#bbc776; stroke:none;" d="M173 523L174 524L173 523z"/>
<path style="fill:#5e789a; stroke:none;" d="M212 523L213 524L212 523z"/>
<path style="fill:#bbc0d9; stroke:none;" d="M252 523L253 524L252 523z"/>
<path style="fill:#5e789a; stroke:none;" d="M253.667 523.333L254.333 523.667L253.667 523.333z"/>
<path style="fill:#bbc776; stroke:none;" d="M272 523L273 524L272 523z"/>
<path style="fill:#5e789a; stroke:none;" d="M273 523L274 524L273 523z"/>
<path style="fill:#bbc776; stroke:none;" d="M298 523L299 524L298 523z"/>
<path style="fill:#5e789a; stroke:none;" d="M173 524L174 525L173 524z"/>
<path style="fill:#bbc776; stroke:none;" d="M213 524L214 525L213 524M250 524L251 525L250 524z"/>
<path style="fill:#5e789a; stroke:none;" d="M251 524L252 525L251 524M274 524L275 525L274 524z"/>
<path style="fill:#bbc776; stroke:none;" d="M275 524L276 525L275 524M299 524L300 525L299 524z"/>
<path style="fill:#5e789a; stroke:none;" d="M172 525L173 526L172 525M213 525L214 526L213 525z"/>
<path style="fill:#bbc776; stroke:none;" d="M249 525L250 526L249 525z"/>
<path style="fill:#5e789a; stroke:none;" d="M276 525L277 526L276 525z"/>
<path style="fill:#bbc0d9; stroke:none;" d="M277.333 525.667L277.667 526.333L277.333 525.667z"/>
<path style="fill:#bbc776; stroke:none;" d="M171 526L172 527L171 526M214 526L215 527L214 526M247 526L248 527L247 526z"/>
<path style="fill:#5e789a; stroke:none;" d="M248 526L249 527L248 526z"/>
<path style="fill:#bbc776; stroke:none;" d="M278 526L279 527L278 526z"/>
<path style="fill:#5e789a; stroke:none;" d="M214 527L215 528L214 527z"/>
<path style="fill:#bbc776; stroke:none;" d="M246 527L247 528L246 527z"/>
<path style="fill:#5e789a; stroke:none;" d="M279 527L280 528L279 527z"/>
<path style="fill:#bbc776; stroke:none;" d="M280 527L281 528L280 527z"/>
<path style="fill:#5e789a; stroke:none;" d="M170 528L171 529L170 528z"/>
<path style="fill:#bbc776; stroke:none;" d="M215 528L216 529L215 528z"/>
<path style="fill:#5e789a; stroke:none;" d="M245 528L246 529L245 528z"/>
<path style="fill:#bbc776; stroke:none;" d="M281 528L282 529L281 528M169 529L170 530L169 529z"/>
<path style="fill:#bbc0d9; stroke:none;" d="M216 529L217 530L216 529z"/>
<path style="fill:#bbc776; stroke:none;" d="M243 529L239 534L243 529z"/>
<path style="fill:#5e789a; stroke:none;" d="M244 529L245 530L244 529M282 529L283 530L282 529M216 530L217 531L216 530z"/>
<path style="fill:#0f3baf; stroke:none;" d="M243 530L244 531L243 530z"/>
<path style="fill:#5e789a; stroke:none;" d="M283 530L284 531L283 530z"/>
<path style="fill:#bbc776; stroke:none;" d="M284 530L286 532L284 530z"/>
<path style="fill:#5e789a; stroke:none;" d="M168 531L169 532L168 531z"/>
<path style="fill:#bbc776; stroke:none;" d="M217 531L218 532L217 531z"/>
<path style="fill:#0f3baf; stroke:none;" d="M242 531L243 532L242 531M284 531L285 532L284 531z"/>
<path style="fill:#bbc776; stroke:none;" d="M167 532L168 533L167 532z"/>
<path style="fill:#5e789a; stroke:none;" d="M217 532L218 533L217 532z"/>
<path style="fill:#0f3baf; stroke:none;" d="M241 532L242 533L241 532z"/>
<path style="fill:#bbc776; stroke:none;" d="M286 532L287 533L286 532M166 533L167 534L166 533M218 533L219 534L218 533z"/>
<path style="fill:#0f3baf; stroke:none;" d="M240 533L241 534L240 533z"/>
<path style="fill:#bbc776; stroke:none;" d="M287 533L288 534L287 533z"/>
<path style="fill:#5e789a; stroke:none;" d="M489 533L490 534L489 533M166 534L167 535L166 534M239 534L240 535L239 534z"/>
<path style="fill:#bbc776; stroke:none;" d="M288 534L289 535L288 534M165 535L166 536L165 535M219 535L220 536L219 535z"/>
<path style="fill:#5e789a; stroke:none;" d="M238 535L239 536L238 535z"/>
<path style="fill:#bbc776; stroke:none;" d="M289 535L290 536L289 535z"/>
<path style="fill:#5e789a; stroke:none;" d="M464 535L465 536L464 535z"/>
<path style="fill:#bbc776; stroke:none;" d="M164 536L165 537L164 536M220 536L221 537L220 536z"/>
<path style="fill:#5e789a; stroke:none;" d="M237 536L238 537L237 536z"/>
<path style="fill:#bbc776; stroke:none;" d="M290 536L292 538L290 536z"/>
<path style="fill:#5e789a; stroke:none;" d="M164 537L165 538L164 537M220 537L221 538L220 537M236 537L237 538L236 537z"/>
<path style="fill:#0f3baf; stroke:none;" d="M290 537L291 538L290 537z"/>
<path style="fill:#bbc776; stroke:none;" d="M163 538L164 539L163 538M221 538L222 539L221 538M235 538L236 539L235 538z"/>
<path style="fill:#5e789a; stroke:none;" d="M291 538L292 539L291 538z"/>
<path style="fill:#bbc776; stroke:none;" d="M162 539L163 540L162 539z"/>
<path style="fill:#5e789a; stroke:none;" d="M221 539L222 540L221 539z"/>
<path style="fill:#bbc776; stroke:none;" d="M234 539L235 540L234 539z"/>
<path style="fill:#5e789a; stroke:none;" d="M292 539L293 540L292 539M222 540L223 541L222 540z"/>
<path style="fill:#bbc776; stroke:none;" d="M233 540L234 541L233 540z"/>
<path style="fill:#5e789a; stroke:none;" d="M293 540L294 541L293 540M163.333 541.667L163.667 542.333L163.333 541.667M223 541L224 542L223 541z"/>
<path style="fill:#bbc776; stroke:none;" d="M224 541L225 542L224 541M232 541L233 542L232 541z"/>
<path style="fill:#5e789a; stroke:none;" d="M294 541L295 542L294 541M225.667 542.333L226.333 542.667L225.667 542.333z"/>
<path style="fill:#bbc776; stroke:none;" d="M227 542L227 543L230 543L227 542z"/>
<path style="fill:#5e789a; stroke:none;" d="M230 542L231 543L230 542M293.333 542.667L293.667 543.333L293.333 542.667M164.333 543.667L164.667 544.333L164.333 543.667M292.333 544.667L292.667 545.333L292.333 544.667M165.333 545.667L165.667 546.333L165.333 545.667M291.333 546.667L291.667 547.333L291.333 546.667M166 547L167 548L166 547M290 548L291 549L290 548M167 549L168 550L167 549M289 550L290 551L289 550M168 551L169 552L168 551M288 551L287 554L288 551M169 552L170 553L169 552z"/>
<path style="fill:#0f3baf; stroke:none;" d="M287 552L288 553L287 552z"/>
<path style="fill:#5e789a; stroke:none;" d="M507 552L508 553L507 552M286 554L287 555L286 554M171 555L172 556L171 555M285 555L284 558L285 555M172 556L173 557L172 556z"/>
<path style="fill:#0f3baf; stroke:none;" d="M284 556L285 557L284 556z"/>
<path style="fill:#5e789a; stroke:none;" d="M283 558L284 559L283 558M282 559L283 560L282 559M175 560L176 561L175 560M281 560L282 561L281 560M176 561L177 562L176 561M280 561L281 562L280 561M177 562L178 563L177 562M279 562L280 563L279 562M178 563L179 564L178 563M278 563L279 564L278 563M179 564L180 565L179 564M277 564L278 565L277 564M180 565L181 566L180 565M276 565L277 566L276 565M275 566L276 567L275 566M183 567L184 568L183 567z"/>
<path style="fill:#bbc0d9; stroke:none;" d="M273 567L274 568L273 567z"/>
<path style="fill:#5e789a; stroke:none;" d="M274 567L275 568L274 567M184 568L185 569L184 568M272.667 568.333L273.333 568.667L272.667 568.333M185 569L186 570L185 569M271 569L272 570L271 569M187 570L188 571L187 570z"/>
<path style="fill:#bbc0d9; stroke:none;" d="M269 570L270 571L269 570z"/>
<path style="fill:#5e789a; stroke:none;" d="M270 570L271 571L270 570M188 571L189 572L188 571M268.667 571.333L269.333 571.667L268.667 571.333M189.667 572.333L190.333 572.667L189.667 572.333M267 572L268 573L267 572M191 573L192 574L191 573M265.667 573.333L266.333 573.667L265.667 573.333M193 574L194 575L193 574M263.667 574.333L264.333 574.667L263.667 574.333M194.667 575.333L195.333 575.667L194.667 575.333M262 575L263 576L262 575M196.667 576.333L197.333 576.667L196.667 576.333M260 576L261 577L260 576M199 577L200 578L199 577M257.667 577.333L258.333 577.667L257.667 577.333M201 578L202 579L201 578M255.667 578.333L256.333 578.667L255.667 578.333M203.667 579.333L204.333 579.667L203.667 579.333z"/>
<path style="fill:#bbc0d9; stroke:none;" d="M205 579L206 580L205 579z"/>
<path style="fill:#5e789a; stroke:none;" d="M252.667 579.333L253.333 579.667L252.667 579.333M206 580L206 581L209 581L206 580M249 580L249 581L252 581L249 580M209 581L209 582L212 582L209 581M245 581L245 582L248 582L245 581M213 582L213 583L217 583L213 582z"/>
<path style="fill:#bbc0d9; stroke:none;" d="M217 582L218 583L217 582z"/>
<path style="fill:#5e789a; stroke:none;" d="M241 582L241 583L244 583L241 582M219 583L219 584L239 584L219 583z"/>
</svg>
