<svg xmlns="http://www.w3.org/2000/svg" xmlns:xlink="http://www.w3.org/1999/xlink" viewBox="0 0 283.46 283.46"><defs><style>.cls-1{fill:#0e53a0;}.cls-2{fill:url(#linear-gradient);}.cls-3{fill:#085ba6;}.cls-4{fill:#fff;}.cls-5{fill:#fbbc13;}</style><linearGradient id="linear-gradient" x1="60.05" y1="98.08" x2="177.75" y2="195.44" gradientUnits="userSpaceOnUse"><stop offset="0" stop-color="#fec910"/><stop offset="1" stop-color="#faab18"/></linearGradient></defs><g id="Layer_2" data-name="Layer 2"><g id="Slovakia"><g id="markizaplus1"><rect class="cls-1" width="283.46" height="283.46"/><g id="logo"><path id="path2" class="cls-2" d="M195.28,146.77a76.38,76.38,0,1,1-76.37-76.38,76.37,76.37,0,0,1,76.37,76.38"/><path id="path6" class="cls-3" d="M165.69,146.56a49,49,0,1,1-49-49,49,49,0,0,1,49,49"/><path id="path10" class="cls-4" d="M161.38,161.87c-10.75-12.86-20.55-13.54-26.55-12-6.78,1.7-10.91,6-15,10-.66.08-6.33-14.43-13.6-29.63-1.66-3.49-4-5.66-6.47-6-3.54-.44-6.25,3.08-8.51,6.74C86,139.41,78.52,152,74.9,157.71c-.43.7-.76-.31-.84-.8-4.92-29.57,19.32-54.78,49.05-51.4,28,3.32,45.76,30.92,38.27,56.36m5.74,6.72c14.74-35.63-11.22-69.48-42.5-72.86A52.3,52.3,0,0,0,66,148.13c0,10.2,3,16,6,17.69,4.5,2.52,8.19-3.36,10.45-6.34,5.3-7,11.64-16.55,14-19.87.66-.94,1.36-.69,1.83,0,1.93,2.85,10,21.36,15.83,31.33,1.4,2.41,3.79,4.06,6.6,1.63s8.86-9.4,14.75-11.25c7.69-2.43,15.74,3.84,20.81,10.3-7.73,12.79-21.37,20.69-37.49,21.14-37.42,1.07-48.28-28.58-73.39-34.59-2.07-.49-3.78,2.11-.16,3.31,11.14,3.74,19.51,12.44,28.87,20.67,11.22,9.87,25.25,18.3,44.47,18.4a52.37,52.37,0,0,0,43.56-22.8c8.94,8.12,23.4,4,28.85-4.46.36-.57.16-1.34-.8-.72-12.9,8.41-22.11-2.78-23.08-4"/><path id="path4-1" class="cls-5" d="M202.62,60.34h12.3V73.22h12.85V85.51H214.92l0,12.82H202.62V85.51H189.77V73.22h12.85V60.34Z"/><path id="path13" class="cls-4" d="M227.77,60.34h13.17v38H227.77V73.21H214.91l12.86-12.87Z"/></g></g></g></g></svg>