<svg xmlns="http://www.w3.org/2000/svg" xmlns:xlink="http://www.w3.org/1999/xlink" viewBox="0 0 283.46 283.46"><defs><style>.cls-1{fill:#0e53a0;}.cls-2{fill:url(#linear-gradient);}.cls-3{fill:#2755ac;}.cls-4{fill:#fff;}</style><linearGradient id="linear-gradient" x1="65.29" y1="78.5" x2="218.17" y2="204.97" gradientUnits="userSpaceOnUse"><stop offset="0" stop-color="#fec910"/><stop offset="1" stop-color="#faab18"/></linearGradient></defs><g id="Layer_2" data-name="Layer 2"><g id="Slovakia"><g id="markiza"><rect class="cls-1" width="283.46" height="283.46"/><g id="logo"><path class="cls-2" d="M240.94,141.74a99.21,99.21,0,1,1-99.2-99.2,99.21,99.21,0,0,1,99.2,99.2"/><path class="cls-3" d="M202.5,141.47a63.62,63.62,0,1,1-63.62-63.61,63.62,63.62,0,0,1,63.62,63.61"/><path class="cls-4" d="M196.91,161.35c-14-16.7-26.71-17.58-34.47-15.6-8.82,2.21-14.19,7.74-19.56,13-.85.1-8.23-18.77-17.65-38.5-2.16-4.54-5.19-7.34-8.41-7.74-4.6-.56-8.12,4-11.06,8.76C99.05,132.18,89.28,148.55,84.58,156c-.56.91-1-.4-1.1-1-6.38-38.41,25.11-71.16,63.74-66.78,36.29,4.34,59.42,40.17,49.69,73.22m7.46,8.72c19.15-46.28-14.58-90.24-55.2-94.63A68,68,0,0,0,73,143.5c0,13.25,3.9,20.76,7.83,23,5.84,3.29,10.63-4.35,13.56-8.22,6.89-9.09,15.12-21.5,18.17-25.8.85-1.24,1.76-.91,2.37,0,2.51,3.71,13.06,27.74,20.57,40.69,1.81,3.13,4.91,5.26,8.58,2.11s11.51-12.19,19.14-14.61c10-3.15,20.46,5,27,13.39-10,16.61-27.75,26.87-48.69,27.46C93,202.91,78.89,164.39,46.28,156.59c-2.7-.64-4.92,2.72-.22,4.3,14.48,4.86,25.35,16.16,37.5,26.84,14.59,12.83,32.8,23.78,57.77,23.9A68.06,68.06,0,0,0,197.9,182c11.62,10.55,30.4,5.2,37.47-5.8.49-.75.23-1.74-1-.94-16.75,10.93-28.71-3.6-30-5.21"/></g></g></g></g></svg>