<svg xmlns="http://www.w3.org/2000/svg" xmlns:xlink="http://www.w3.org/1999/xlink" viewBox="0 0 283.46 283.46"><defs><style>.cls-1{fill:#0e53a0;}.cls-2{fill:url(#linear-gradient);}.cls-3{fill:url(#linear-gradient-2);}.cls-4{fill:url(#linear-gradient-3);}.cls-5{fill:url(#linear-gradient-4);}.cls-6{fill:url(#linear-gradient-5);}.cls-7{fill:url(#linear-gradient-6);}.cls-8{fill:url(#linear-gradient-7);}.cls-9{fill:url(#linear-gradient-8);}.cls-10{fill:url(#linear-gradient-9);}.cls-11{fill:url(#linear-gradient-10);}.cls-12{fill:url(#linear-gradient-11);}.cls-13{fill:url(#linear-gradient-12);}.cls-14{fill:url(#linear-gradient-13);}.cls-15{fill:url(#linear-gradient-14);}.cls-16{fill:#085ba6;}.cls-17{fill:#fff;}</style><linearGradient id="linear-gradient" x1="39.59" y1="196.59" x2="52.06" y2="206.91" gradientUnits="userSpaceOnUse"><stop offset="0" stop-color="#fec910"/><stop offset="1" stop-color="#faab18"/></linearGradient><linearGradient id="linear-gradient-2" x1="50.01" y1="194.05" x2="67.99" y2="208.92" xlink:href="#linear-gradient"/><linearGradient id="linear-gradient-3" x1="68.88" y1="193.7" x2="83.69" y2="205.95" xlink:href="#linear-gradient"/><linearGradient id="linear-gradient-4" x1="83.82" y1="195.04" x2="100.05" y2="208.46" xlink:href="#linear-gradient"/><linearGradient id="linear-gradient-5" x1="98.25" y1="195.34" x2="116.2" y2="210.19" xlink:href="#linear-gradient"/><linearGradient id="linear-gradient-6" x1="116.69" y1="194.05" x2="134.67" y2="208.92" xlink:href="#linear-gradient"/><linearGradient id="linear-gradient-7" x1="135.33" y1="196.88" x2="152.21" y2="210.84" xlink:href="#linear-gradient"/><linearGradient id="linear-gradient-8" x1="150.9" y1="193.7" x2="165.71" y2="205.95" xlink:href="#linear-gradient"/><linearGradient id="linear-gradient-9" x1="164.61" y1="196.59" x2="177.08" y2="206.91" xlink:href="#linear-gradient"/><linearGradient id="linear-gradient-10" x1="176.34" y1="196.09" x2="190.03" y2="207.41" xlink:href="#linear-gradient"/><linearGradient id="linear-gradient-11" x1="191.27" y1="194.05" x2="209.25" y2="208.92" xlink:href="#linear-gradient"/><linearGradient id="linear-gradient-12" x1="209.9" y1="196.88" x2="226.78" y2="210.84" xlink:href="#linear-gradient"/><linearGradient id="linear-gradient-13" x1="225.71" y1="196.6" x2="241.55" y2="209.71" xlink:href="#linear-gradient"/><linearGradient id="linear-gradient-14" x1="98.1" y1="92.84" x2="184.08" y2="163.97" xlink:href="#linear-gradient"/></defs><g id="Layer_2" data-name="Layer 2"><g id="Slovakia"><g id="markizainternational"><rect class="cls-1" width="283.46" height="283.46"/><g id="logo"><path class="cls-2" d="M49.12,210.45v-3l-1.1-.12V196.19l1.1-.12v-3h-6.6v3l1.1.12v11.12l-1.1.12v3Z"/><path class="cls-3" d="M61.61,193.05v3l1.1.12v4.9c0,.89,0,2.13.12,3.07h0c-.35-.75-.84-1.64-1.26-2.37l-5.16-8.74H50.84v3l1.07.12v11.13l-1.07.11v3H57v-3l-1.11-.11v-5.11a27.75,27.75,0,0,0-.14-2.9h.07c.38.75.85,1.57,1.25,2.25l5.1,8.9h4.55V196.19l1.1-.12v-3Z"/><path class="cls-4" d="M83.89,197.53v-4.48H69.42v4.48H72l.23-1.2h2.28v11l-1.13.12v3H80v-3l-1.1-.12v-11h2.27l.23,1.2Z"/><path class="cls-5" d="M98.4,210.45v-4.38H95.75l-.21,1.13H90.93v-4.1h7V200h-7V196.3h4.61l.21,1.08H98.4v-4.33H85.47v3l1.08.12v11.12l-1.08.12v3Z"/><path class="cls-6" d="M106.56,210.45v-3l-1.1-.12v-3h1.62c.35,0,.82,0,1.14,0l3.56,6.18H116v-3l-1.27-.12-2.39-3.89c1.74-.84,2.77-2.24,2.77-4.8v-.14c0-4.8-3.7-5.64-8.06-5.64-2.48,0-4.85.09-6.89.21v3l1.1.12v11.12l-1.1.12v3Zm4.29-11.76c0,1.88-1.06,2.49-3.63,2.49-.61,0-1.17,0-1.76,0v-5h1.69c2.57,0,3.7.42,3.7,2.36Z"/><path class="cls-7" d="M128.29,193.05v3l1.1.12v4.9c0,.89.05,2.13.12,3.07h0c-.35-.75-.84-1.64-1.26-2.37L123,193.05h-5.52v3l1.07.12v11.13l-1.07.11v3h6.16v-3l-1.1-.11v-5.11c0-.94,0-2-.14-2.9h.07c.37.75.84,1.57,1.24,2.25l5.1,8.9h4.55V196.19l1.1-.12v-3Z"/><path class="cls-8" d="M142,210.45v-3l-.94-.09.33-1.2h4.94l.33,1.2-.94.09v3h6.82v-3l-1.17-.12-4.12-14.26H138.5v3l1.15.14-3.33,11.1-1.12.12v3Zm3.75-7.49H142l1.24-4.59c.24-.87.4-1.88.54-2.68h.16c.17.8.31,1.83.54,2.68Z"/><path class="cls-9" d="M165.91,197.53v-4.48H151.44v4.48H154l.24-1.2h2.27v11l-1.13.12v3H162v-3l-1.1-.12v-11h2.27l.23,1.2Z"/><path class="cls-10" d="M174.15,210.45v-3l-1.1-.12V196.19l1.1-.12v-3h-6.61v3l1.11.12v11.12l-1.11.12v3Z"/><path class="cls-11" d="M190.76,202.6v-1.71c0-6.11-3.09-8.24-7.56-8.24s-7.59,2.13-7.59,8.24v1.71c0,6.09,3.07,8.25,7.59,8.25S190.76,208.69,190.76,202.6Zm-4.31,0c0,3.66-1.22,4.76-3.25,4.76s-3.28-1.1-3.28-4.76v-1.71c0-3.58,1.19-4.75,3.28-4.75s3.25,1.17,3.25,4.75Z"/><path class="cls-12" d="M202.87,193.05v3l1.1.12v4.9c0,.89.05,2.13.12,3.07H204c-.35-.75-.84-1.64-1.26-2.37l-5.15-8.74H192.1v3l1.08.12v11.13l-1.08.11v3h6.16v-3l-1.1-.11v-5.11c0-.94,0-2-.14-2.9h.07c.37.75.84,1.57,1.24,2.25l5.1,8.9H208V196.19l1.1-.12v-3Z"/><path class="cls-13" d="M216.56,210.45v-3l-.94-.09.33-1.2h4.94l.33,1.2-.94.09v3h6.82v-3l-1.17-.12-4.12-14.26h-8.74v3l1.15.14-3.33,11.1-1.12.12v3Zm3.75-7.49h-3.75l1.24-4.59c.23-.87.4-1.88.54-2.68h.16c.17.8.31,1.83.54,2.68Z"/><path class="cls-14" d="M240.94,210.45V205.7h-2.67l-.23,1.38h-3.93V196.19l1.1-.12v-3h-6.56v3l1.08.12v11.12l-1.08.12v3Z"/><path class="cls-15" d="M196.89,128.41A55.8,55.8,0,1,1,141.1,72.62a55.8,55.8,0,0,1,55.79,55.79"/><path class="cls-16" d="M175.27,128.26a35.78,35.78,0,1,1-35.78-35.78,35.77,35.77,0,0,1,35.78,35.78"/><path class="cls-17" d="M172.13,139.43c-7.86-9.39-15-9.89-19.4-8.77-4.95,1.24-8,4.36-11,7.33-.48.06-4.62-10.55-9.93-21.65-1.21-2.55-2.92-4.13-4.73-4.35-2.58-.32-4.57,2.25-6.22,4.92-3.77,6.12-9.27,15.32-11.91,19.49-.32.51-.56-.23-.62-.59a32.27,32.27,0,0,1,35.84-37.55c20.42,2.43,33.42,22.59,28,41.17m4.19,4.91c10.77-26-8.2-50.75-31.05-53.22a38.2,38.2,0,0,0-42.8,38.28c0,7.45,2.19,11.67,4.4,12.92,3.29,1.84,6-2.45,7.63-4.63,3.88-5.11,8.5-12.09,10.21-14.51.49-.69,1-.51,1.34,0,1.41,2.08,7.35,15.6,11.56,22.88,1,1.76,2.77,3,4.83,1.19s6.47-6.86,10.77-8.21c5.62-1.78,11.5,2.8,15.2,7.52-5.65,9.34-15.61,15.11-27.38,15.44-27.34.78-35.27-20.88-53.61-25.26-1.52-.36-2.76,1.53-.12,2.41,8.14,2.74,14.25,9.09,21.09,15.1,8.2,7.21,18.44,13.37,32.49,13.44a38.23,38.23,0,0,0,31.81-16.65c6.53,5.93,17.09,2.93,21.07-3.26.27-.42.13-1-.58-.53-9.42,6.15-16.15-2-16.85-2.93"/></g></g></g></g></svg>