<?xml version="1.0" standalone="yes"?>
<svg xmlns="http://www.w3.org/2000/svg" width="1024" height="1024">
<path style="fill:#650b01; stroke:none;" d="M0 0L0 1024L1024 1024L1024 0L0 0z"/>
<path style="fill:#dbbb8b; stroke:none;" d="M158 520L159 520C167.473 505.126 178.528 490.986 188.424 477C191.51 472.639 195.656 464.546 201.999 465.068C208.168 465.575 211.082 473.437 213.799 478C222.349 492.356 231.933 506.864 239 522C247.036 519.766 253.032 512.184 261 509.068C286.604 499.053 299.293 515.26 320 526C321.995 510.213 321.333 493.752 314.688 479C299.234 444.69 264.263 425.447 227 430.289C187.305 435.448 148.018 478.075 158 520M594.001 434.484C585.191 436.374 582.164 454.009 587.742 460.566C590.66 463.996 598.983 463.726 602.956 462.566C608.635 460.909 607.998 454.75 608 450C608.004 440.428 606.001 431.909 594.001 434.484M820.001 434.487C811.159 436.321 808.194 454.044 813.742 460.566C816.66 463.996 824.983 463.726 828.956 462.566C834.635 460.909 833.998 454.75 834 450C834.004 440.466 831.978 432.002 820.001 434.487M367 461L367 537C359.071 538.096 351.136 546.553 357.742 554.581C361.64 559.318 381.574 560.422 386.436 556.821C391.406 553.14 388.333 542.238 389.148 537C390.048 531.213 395.767 527.447 400 524L413 541C406.709 544.104 404.246 553.595 412.044 556.852C419.315 559.889 438.647 560 445.985 557.106C452.288 554.62 454.141 545.273 449.566 540.279C446.932 537.402 443.243 537.773 440.09 535.987C436.291 533.836 433.652 529.293 430.919 526C426.175 520.284 421.915 513.527 416 509L416 508C420.59 504.768 424.254 500.439 429 497.388C432.952 494.848 438.015 494.545 441.772 491.911C446.941 488.286 445.745 478.138 439.945 475.742C433.436 473.054 413.564 473.054 407.055 475.742C401.351 478.098 400.277 487.405 405 491L389 507L389 463C389 457.084 390.455 448.746 387.968 443.228C385.21 437.111 362.815 438.712 358.434 442.703C350.393 450.028 358.529 460.56 367 461M499 490C499 486.279 500.276 479.483 497.397 476.603C493.469 472.676 469.573 473.393 465.433 476.893C454.025 486.539 469.554 494.994 478 495L478 538C473.633 538 467.107 536.821 463.228 539.179C457.792 542.483 458.169 552.684 463.144 556.142C468.548 559.898 478.742 558 485 558C496.492 558 517.681 562.084 527.945 556.682C534.239 553.37 534.929 541.727 527.895 538.742C520.511 535.609 507.969 538 500 538C500 520.881 498.78 497.628 522 494.484C532.162 493.108 545.023 507.555 552.543 492.985C558.611 481.228 546.385 472.803 536 472.091C521.113 471.071 509.016 480.067 499 490M680 480C677.814 472.798 655.493 472.265 650.514 477.434C643.225 485 650.519 494.559 659 495L659 537C647.008 538.657 643.029 555.874 657 557.811C664.957 558.914 682.969 560.639 689.772 555.911C699.247 549.324 690.14 538.125 682 537L682 518C682 511.571 681.338 502.721 685.009 497.094C688.829 491.24 696.389 491.126 699.107 498.015C703.639 509.508 700 528.688 700 541C700 545.165 698.289 554.132 702.318 556.821C707.34 560.172 727.227 559.528 731.697 555.486C739.729 548.222 732.365 538.26 724 537L724 518C724 511.898 722.523 503.443 725.858 498.015C729.573 491.97 737.291 490.385 740.258 498.005C744.797 509.665 741 529.499 741 542C741 546.335 739.357 554.982 744.228 557.258C749.748 559.836 768.915 559.78 773.347 555.347C780.857 547.837 773.613 538.208 765 538C765 515.056 773.25 475.976 742 472.287C733.447 471.277 724.416 479.39 717.424 478.286C714.491 477.822 711.902 474.77 709 473.789C698.415 470.214 688.584 473.456 680 480M587 495L587 538C579.937 538 567.379 535.585 561.133 539.179C555.339 542.513 555.87 552.632 561.109 556.142C566.455 559.724 575.871 558 582 558L618 558C623.256 558 630.007 559.083 634.982 557.106C641.608 554.474 643.501 542.996 636.867 539.179C630.425 535.473 617.293 538 610 538L610 495C610 490.099 611.594 481.784 609.397 477.318C607.842 474.159 602.876 475.001 600 475C592.649 474.997 572.752 471.52 568.089 478.228C557.942 492.827 577.905 495 587 495M813 495L813 538C805.87 538 793.443 535.613 787.109 539.179C780.768 542.748 782.058 553.628 788.044 556.821C793.316 559.633 802.184 558 808 558L844 558C849.256 558 856.007 559.083 860.982 557.106C867.608 554.474 869.501 542.996 862.867 539.179C856.426 535.473 843.293 538 836 538L836 495C836 490.099 837.594 481.784 835.397 477.318C833.842 474.159 828.876 475.001 826 475C818.503 474.997 798.891 471.52 794.009 478.228C783.525 492.635 804.205 495 813 495M200 489C192.674 501.861 183.199 513.865 174.72 526C171.414 530.73 165.388 537.16 164.524 543C163.007 553.254 178.983 568.519 186 574.195C214.477 597.231 255.492 600.004 286 578.975C295.255 572.595 303.003 564.562 308.934 555C311.016 551.644 314.275 547.09 312.577 543C304.086 522.546 274.44 517.03 258.004 529.159C252.701 533.072 244.532 547.211 237.004 545.149C231.005 543.506 227.8 534.873 225 530C217.692 517.284 210.775 498.955 200 489z"/>
</svg>
