<svg xmlns="http://www.w3.org/2000/svg" viewBox="0 0 283.46 283.46"><defs><style>.cls-1{fill:#fff;}.cls-2{fill:#2755ac;}.cls-3{fill:#facf0b;}</style></defs><title>markizainternational</title><g id="Layer_2" data-name="Layer 2"><g id="Slovakia"><g id="markizainternational"><rect class="cls-1" width="283.46" height="283.46"/><g id="logo"><path class="cls-2" d="M49.12,210.45v-3l-1.1-.12V196.19l1.1-.12v-3h-6.6v3l1.1.12v11.13l-1.1.12v3Z"/><path class="cls-2" d="M61.61,193.05v3l1.1.12v4.9c0,.89,0,2.13.12,3.07h0c-.35-.75-.84-1.64-1.26-2.37l-5.15-8.74H50.84v3l1.08.12v11.13l-1.08.12v3H57v-3l-1.1-.12v-5.11c0-.94,0-2-.14-2.9h.07c.37.75.84,1.57,1.24,2.25l5.11,8.9h4.54V196.19l1.1-.12v-3Z"/><path class="cls-2" d="M83.89,197.53v-4.47H69.42v4.47H72l.23-1.19h2.27v11l-1.12.12v3H80v-3l-1.1-.12v-11h2.27l.23,1.19Z"/><path class="cls-2" d="M98.4,210.45v-4.38H95.75l-.21,1.12H90.93v-4.1h7V200h-7V196.3h4.61l.21,1.08H98.4V193H85.47v3l1.08.12v11.13l-1.08.12v3Z"/><path class="cls-2" d="M106.56,210.45v-3l-1.1-.12v-3h1.62c.35,0,.82,0,1.15,0l3.56,6.18H116v-3l-1.26-.12-2.39-3.89c1.73-.84,2.76-2.25,2.76-4.8v-.14c0-4.8-3.7-5.64-8.06-5.64-2.48,0-4.85.09-6.89.21v3l1.1.12v11.13l-1.1.12v3Zm4.29-11.76c0,1.87-1.05,2.48-3.63,2.48-.61,0-1.17,0-1.76,0v-5h1.69c2.58,0,3.7.42,3.7,2.37Z"/><path class="cls-2" d="M128.29,193.05v3l1.1.12v4.9c0,.89,0,2.13.12,3.07h0c-.35-.75-.84-1.64-1.26-2.37L123,193.05h-5.53v3l1.08.12v11.13l-1.08.12v3h6.16v-3l-1.1-.12v-5.11c0-.94,0-2-.14-2.9h.07c.37.75.84,1.57,1.24,2.25l5.11,8.9h4.54V196.19l1.1-.12v-3Z"/><path class="cls-2" d="M142,210.45v-3l-.94-.09.33-1.19h4.94l.33,1.19-.94.09v3h6.82v-3l-1.17-.12L147.24,193H138.5v3l1.15.14-3.33,11.1-1.12.12v3Zm3.75-7.5H142l1.24-4.59c.23-.87.4-1.87.54-2.67h.16c.16.8.3,1.83.54,2.67Z"/><path class="cls-2" d="M165.91,197.53v-4.47H151.44v4.47H154l.23-1.19h2.27v11l-1.12.12v3H162v-3l-1.1-.12v-11h2.27l.23,1.19Z"/><path class="cls-2" d="M174.15,210.45v-3l-1.1-.12V196.19l1.1-.12v-3h-6.61v3l1.1.12v11.13l-1.1.12v3Z"/><path class="cls-2" d="M190.76,202.6v-1.71c0-6.11-3.09-8.24-7.57-8.24s-7.59,2.13-7.59,8.24v1.71c0,6.09,3.07,8.24,7.59,8.24S190.76,208.69,190.76,202.6Zm-4.31,0c0,3.65-1.22,4.75-3.26,4.75s-3.28-1.1-3.28-4.75v-1.71c0-3.58,1.19-4.75,3.28-4.75s3.26,1.17,3.26,4.75Z"/><path class="cls-2" d="M202.87,193.05v3l1.1.12v4.9c0,.89,0,2.13.12,3.07h0c-.35-.75-.84-1.64-1.26-2.37l-5.15-8.74H192.1v3l1.08.12v11.13l-1.08.12v3h6.16v-3l-1.1-.12v-5.11c0-.94,0-2-.14-2.9h.07c.37.75.84,1.57,1.24,2.25l5.11,8.9H208V196.19l1.1-.12v-3Z"/><path class="cls-2" d="M216.56,210.45v-3l-.94-.09.33-1.19h4.94l.33,1.19-.94.09v3h6.82v-3l-1.17-.12L221.81,193h-8.74v3l1.15.14-3.33,11.1-1.12.12v3Zm3.75-7.5h-3.75l1.24-4.59c.23-.87.4-1.87.54-2.67h.16c.16.8.3,1.83.54,2.67Z"/><path class="cls-2" d="M240.94,210.45V205.7h-2.67l-.23,1.38h-3.93V196.19l1.1-.12v-3h-6.56v3l1.08.12v11.13l-1.08.12v3Z"/><path class="cls-2" d="M196.89,128.41A55.79,55.79,0,1,1,141.1,72.62a55.79,55.79,0,0,1,55.79,55.79"/><path class="cls-3" d="M175.27,128.26a35.78,35.78,0,1,1-35.78-35.77,35.78,35.78,0,0,1,35.78,35.77"/><path class="cls-1" d="M172.13,139.43c-7.85-9.39-15-9.89-19.39-8.77-5,1.24-8,4.36-11,7.33-.48.06-4.62-10.54-9.93-21.64-1.21-2.55-2.91-4.13-4.73-4.36-2.58-.32-4.57,2.25-6.22,4.93-3.77,6.12-9.27,15.32-11.91,19.48-.32.51-.56-.22-.62-.58a32.26,32.26,0,0,1,35.84-37.55c20.42,2.43,33.42,22.59,28,41.17m4.19,4.91c10.77-26-8.2-50.75-31.05-53.22a38.2,38.2,0,0,0-42.81,38.28c0,7.45,2.19,11.67,4.4,12.92,3.29,1.85,6-2.45,7.63-4.63,3.88-5.11,8.5-12.09,10.21-14.51.48-.69,1-.5,1.34,0,1.41,2.08,7.34,15.6,11.56,22.89,1,1.76,2.77,3,4.83,1.19s6.47-6.87,10.77-8.22c5.62-1.77,11.5,2.81,15.2,7.52-5.65,9.34-15.61,15.11-27.39,15.44-27.34.78-35.27-20.88-53.61-25.27-1.52-.36-2.76,1.54-.12,2.42,8.14,2.73,14.26,9.09,21.09,15.1,8.2,7.21,18.44,13.37,32.49,13.44a38.24,38.24,0,0,0,31.81-16.65c6.53,5.93,17.09,2.93,21.07-3.26.27-.42.12-1-.58-.53-9.42,6.15-16.15-2-16.85-2.93"/></g></g></g></g></svg>