<svg xmlns="http://www.w3.org/2000/svg" viewBox="0 0 283.46 283.47"><defs><style>.cls-1{fill:#ea9979;}.cls-2{fill:#fff;}.cls-3{fill:#f3eda5;}</style></defs><g id="Layer_2" data-name="Layer 2"><g id="Ostatní_CZ_kanály" data-name="Ostatní CZ kanály"><g id="mnam"><rect class="cls-1" width="283.46" height="283.47"/><g id="logo"><path class="cls-1" d="M141.73,240.94a99.21,99.21,0,1,0-99.21-99.2,99.2,99.2,0,0,0,99.21,99.2"/><path class="cls-2" d="M99.34,129.82c-7.08.35-12.59,13-12.59,13-1.11-9.57-4.54-11.9-7.79-11.57h0l-.29,0c-5.48.72-8.38,5.35-13.06,13.64,0,0-.49-2-1.07-5.31-.38-2.23-2.5-2.38-4-1.65-2.11.81-1.82,2.32-1.09,7.7.14,1.15.32,2.57.56,4.4.74,5.85,5.15,5,6.77,2.49s3.94-10.49,7.42-14.72c7.43-9,5.24,11.7,6,20.2.39,4.47,2.08,5.43,3.65,4.87S86.42,160,87,157c.67-4.65,2-8.43,5-15.65a25.75,25.75,0,0,1,3-5c7.43-9,5.24,11.7,6,20.2s6.25,4.3,6.51,1.08c1.89-24.08-3.43-28.58-8.14-27.82"/><path class="cls-2" d="M131.12,130.32c-5.33.48-9.05,6.44-12.43,12.84,0,0-.46-1.84-1-5-.33-1.9-2-2.19-3.33-1.71-2.43.8-2.15,1.49-1.53,6.45.15,1.2.36,2.82.65,5.09.7,5.5,4.83,4.66,6.36,2.32s3.7-9.84,7-13.81c7-8.49,4.93,11,5.63,19s5.87,4,6.11,1c1.75-22.22-3.06-26.68-7.42-26.15"/><path class="cls-2" d="M211.81,128.44c-6.64.33-11.82,12.31-11.82,12.31-1-9-4.25-11.24-7.3-10.94h0a1.26,1.26,0,0,0-.27,0c-5.15.66-7.87,5-12.26,12.88,0,0-.45-1.84-1-5-.36-2.1-2.34-2.24-3.71-1.56-2,.79-1.71,2.21-1,7.27.13,1.09.3,2.44.52,4.17.7,5.52,4.84,4.68,6.36,2.35S185,140,188.25,136c7-8.54,4.92,11.05,5.62,19.08.37,4.2,2,5.12,3.42,4.59,1.61-.61,2.39-2.82,2.89-5.62.63-4.39,1.85-8,4.7-14.78a24.61,24.61,0,0,1,2.84-4.7c7-8.54,4.93,11,5.63,19.08s5.85,4.05,6.1,1c1.77-22.73-3.23-27-7.64-26.26"/><path class="cls-2" d="M161.49,147.24a47.25,47.25,0,0,1-5.34,8c-4.68,5.69-5.3-1.18-5.41-8.74.08-10.9,5.76-17.31,10.33-8.25.05.09.09.18.13.26l0,.05a10.56,10.56,0,0,1,.26,8.72m8.87,3.36a58.41,58.41,0,0,0-1.24-7.89h0a25.68,25.68,0,0,0-3.69-9.31c-7.67-9.91-22.37-3.91-21.36,12h0c.46,22.47,10.91,15.35,13.45,12.57,6-6.55,6.75-9.48,6.75-9.48s.3,4.92,1.48,6.13c.89,1.13,2.66.89,3.71.12.71-.52,1.07-1,1-2.65,0,0-.06-1-.12-1.54"/><path class="cls-3" d="M129.39,121.56a25.67,25.67,0,0,0-6.88,3.7,2.71,2.71,0,0,0-.81,1.86c0,.12-.19.15-.2,0a2.27,2.27,0,0,0-.45-1.38c-1.8-1.69-5.69-4.25-8-4.89-2.66-.74-3.79-.86-.57,1.75,2.77,2.25,5.8,4.87,7.27,6a2.44,2.44,0,0,0,1.64.76,2.91,2.91,0,0,0,1.74-.66,42.52,42.52,0,0,0,6.77-5.36c2.24-2.41,1.55-2.35-.49-1.78"/></g></g></g></g></svg>