<svg xmlns="http://www.w3.org/2000/svg" viewBox="0 0 283.46 283.47"><defs><style>.cls-1{fill:#ea9979;}.cls-2{fill:#fff;}.cls-3{fill:#f3eda5;}</style></defs><title>mnam</title><g id="Layer_2" data-name="Layer 2"><g id="Ostatní_CZ_kanály" data-name="Ostatní CZ kanály"><g id="mnam"><rect class="cls-1" width="283.46" height="283.47"/><g id="logo"><path class="cls-1" d="M141.73,240.94a99.21,99.21,0,1,0-99.21-99.21,99.21,99.21,0,0,0,99.21,99.21"/><path class="cls-2" d="M99.34,129.82c-7.08.35-12.59,13-12.59,13-1.11-9.57-4.54-11.9-7.79-11.57h0l-.29,0c-5.49.71-8.39,5.35-13.06,13.64,0,0-.49-1.95-1.07-5.31-.38-2.22-2.5-2.37-4-1.65-2.11.81-1.82,2.32-1.09,7.7.14,1.15.32,2.57.56,4.4.74,5.85,5.15,5,6.77,2.49s3.94-10.49,7.42-14.71c7.43-9,5.24,11.7,6,20.2.39,4.46,2.08,5.42,3.65,4.86,1.72-.65,2.55-3,3.08-5.95.67-4.65,2-8.42,5-15.65a25.67,25.67,0,0,1,3-5c7.43-9,5.24,11.7,6,20.2s6.24,4.3,6.5,1.07c1.9-24.07-3.43-28.57-8.14-27.81"/><path class="cls-2" d="M131.12,130.32c-5.33.47-9.05,6.44-12.43,12.84,0,0-.46-1.84-1-5-.33-1.9-2-2.19-3.33-1.71-2.43.8-2.15,1.49-1.52,6.45.14,1.2.35,2.82.64,5.09.7,5.5,4.84,4.66,6.36,2.32s3.7-9.84,7-13.81c7-8.49,4.92,11,5.63,19s5.87,4,6.11,1c1.75-22.22-3.05-26.69-7.42-26.15"/><path class="cls-2" d="M211.81,128.44c-6.64.34-11.81,12.31-11.81,12.31-1-9-4.26-11.24-7.3-10.94h0a1.05,1.05,0,0,0-.28,0c-5.15.66-7.86,5-12.25,12.87,0,0-.46-1.84-1-5-.36-2.1-2.34-2.24-3.71-1.56-2,.79-1.71,2.21-1,7.27.13,1.09.31,2.44.52,4.16.7,5.52,4.83,4.69,6.35,2.35s3.69-9.9,7-13.9c7-8.54,4.92,11,5.62,19.09.36,4.2,2,5.11,3.42,4.59s2.39-2.82,2.89-5.62c.63-4.39,1.86-7.95,4.71-14.77a24.53,24.53,0,0,1,2.84-4.7c7-8.54,4.92,11,5.62,19.07s5.85,4,6.1,1c1.77-22.72-3.22-27-7.64-26.26"/><path class="cls-2" d="M161.49,147.24a46.89,46.89,0,0,1-5.34,8c-4.68,5.69-5.3-1.17-5.41-8.74.08-10.9,5.76-17.31,10.34-8.25l.13.26,0,0a10.54,10.54,0,0,1,.27,8.71m8.86,3.36a57.53,57.53,0,0,0-1.24-7.89h0a25.84,25.84,0,0,0-3.69-9.31c-7.67-9.91-22.38-3.91-21.36,12,0,0,0,0,0,0,.46,22.47,10.91,15.35,13.45,12.57,6-6.55,6.76-9.49,6.76-9.49s.3,4.92,1.48,6.14c.88,1.12,2.65.89,3.71.11.7-.51,1.06-1,1-2.65,0,0-.06-1-.12-1.54"/><path class="cls-3" d="M129.39,121.56a25.29,25.29,0,0,0-6.88,3.7,2.72,2.72,0,0,0-.81,1.86c0,.11-.18.15-.2,0a2.31,2.31,0,0,0-.45-1.39c-1.8-1.69-5.69-4.25-8-4.89-2.67-.74-3.8-.86-.57,1.75,2.76,2.25,5.79,4.87,7.26,6a2.46,2.46,0,0,0,1.64.76,2.87,2.87,0,0,0,1.73-.66,42.09,42.09,0,0,0,6.77-5.36c2.25-2.41,1.55-2.35-.48-1.77"/></g></g></g></g></svg>