<svg xmlns="http://www.w3.org/2000/svg" viewBox="0 0 283.46 283.46"><defs><style>.cls-1{fill:#f77698;}.cls-2{fill:#fff;}.cls-3{fill:#fdfafb;}.cls-4{fill:#f5d738;}.cls-5{fill:#f57898;}</style></defs><title>mnau</title><g id="Layer_2" data-name="Layer 2"><g id="Ostatní_CZ_kanály" data-name="Ostatní CZ kanály"><g id="mnau"><rect class="cls-1" width="283.46" height="283.46"/><g id="logo"><path class="cls-1" d="M141.84,238.44a102.89,102.89,0,0,1-13.74-1,93.45,93.45,0,0,1-23.26-6.37,95.81,95.81,0,0,1-57.56-72.54A93.08,93.08,0,0,1,46,140a96,96,0,0,1,8.71-37.19,95,95,0,0,1,5.38-10,3.84,3.84,0,0,0,.19-3.89c-3.53-7.14-5.6-15.24-6.31-24.75-.43-5.67-.66-11.76.52-17.79l.19-1,.75.2a21.32,21.32,0,0,1,8.7,4.86c4.63,4,8.35,9.15,11.69,16.23.54,1.15,1.28,2.72,3.17,2.72a4.3,4.3,0,0,0,2.74-1.29,96.83,96.83,0,0,1,25.56-14.73,95.56,95.56,0,0,1,26.51-6c2.73-.22,5.48-.34,8.17-.34a95.36,95.36,0,0,1,40.25,8.94,91.91,91.91,0,0,1,16.76,10,4,4,0,0,0,2.41.94,3.58,3.58,0,0,0,3.12-2.29,45.91,45.91,0,0,1,9.42-13.07,23.57,23.57,0,0,1,10.69-6.2,43.07,43.07,0,0,1,.77,7.42c0,.64,0,1.26,0,1.88,0,.32,0,.63,0,1,0,10.4-1.38,18.68-4.32,26.05-1.34,3.35-1,6,1.11,9.21A94.59,94.59,0,0,1,237.51,145a95.93,95.93,0,0,1-59.92,86.5,93.45,93.45,0,0,1-23.68,6.15,95.4,95.4,0,0,1-11.9.79Z"/><path class="cls-2" d="M56.6,48.59a21,21,0,0,1,5.87,3.74c4.36,3.75,7.87,8.65,11.07,15.42.58,1.24,2,4.14,5.43,4.14A6.72,6.72,0,0,0,83.29,70a94.26,94.26,0,0,1,24.87-14.33A93.05,93.05,0,0,1,134,49.81c2.66-.22,5.35-.33,8-.33a92.87,92.87,0,0,1,39.2,8.71A89.36,89.36,0,0,1,197.44,68a6.53,6.53,0,0,0,3.92,1.44c1.61,0,3.84-.64,5.36-3.68a43.47,43.47,0,0,1,8.9-12.38,23,23,0,0,1,7-4.72c.14,1.36.21,2.79.28,4.27,0,.52,0,1.09,0,1.71,0,.33,0,.65,0,1,0,10.08-1.33,18.06-4.14,25.13a11.48,11.48,0,0,0,1.35,11.52A92.09,92.09,0,0,1,235,144.92a93.43,93.43,0,0,1-58.36,84.26,90.94,90.94,0,0,1-23,6,92.9,92.9,0,0,1-11.59.77h-.17a100.39,100.39,0,0,1-13.4-1,91,91,0,0,1-22.64-6.2,93.31,93.31,0,0,1-56.06-70.64,90.61,90.61,0,0,1-1.29-18.06,93.54,93.54,0,0,1,8.48-36.23,92.47,92.47,0,0,1,5.24-9.77,6.32,6.32,0,0,0,.3-6.31c-3.39-6.85-5.37-14.64-6.06-23.83a69.37,69.37,0,0,1,.18-15.34m-3.19-6.07c-.82,0-.91.76-1.42,3.33-1.19,6.1-1,12.29-.56,18.46A68.7,68.7,0,0,0,58,90a1.35,1.35,0,0,1-.08,1.47,97,97,0,0,0-5.52,10.3,98.07,98.07,0,0,0-8.94,38.16,98.88,98.88,0,0,0,15.8,56.23,98.82,98.82,0,0,0,44.61,37.25,95.53,95.53,0,0,0,23.89,6.54,104.81,104.81,0,0,0,14.08,1H142a98.5,98.5,0,0,0,12.21-.81,95.51,95.51,0,0,0,24.31-6.32A98.43,98.43,0,0,0,240,145.07a97.09,97.09,0,0,0-15.78-55.61c-1.55-2.33-2-4.15-.87-6.9,3.43-8.63,4.49-17.74,4.5-27,0-1,0-2,0-2.93a42.35,42.35,0,0,0-1-8.45c-.31-1.21-.47-1.62-1.15-1.62a6.13,6.13,0,0,0-1.18.18,25.86,25.86,0,0,0-12.38,6.95,48.73,48.73,0,0,0-9.93,13.77c-.29.59-.53.91-.88.91a1.68,1.68,0,0,1-.91-.43,93.94,93.94,0,0,0-17.21-10.32,97.37,97.37,0,0,0-41.3-9.17q-4.16,0-8.38.34a97.57,97.57,0,0,0-27.2,6.2A98.78,98.78,0,0,0,80.17,66.11c-.62.49-1,.77-1.21.77s-.49-.4-.91-1.28c-3-6.45-6.86-12.36-12.32-17.06A24,24,0,0,0,56,43.15a16.44,16.44,0,0,0-2.6-.63Z"/><rect class="cls-1" x="42.52" y="180.45" width="198.43" height="60.5"/><path class="cls-3" d="M77.37,145.78c.94-1.6,1.7-2.93,2.5-4.23,1.61-2.59,3.2-5.18,5.63-7.14a9,9,0,0,1,5.6-2.09c2.83,0,4.36,1.83,5.45,4.17a20.37,20.37,0,0,1,1.52,5.37c.07.42.16.84.3,1.53.93-1.61,1.68-3,2.51-4.31a21.52,21.52,0,0,1,6-6.78,8.66,8.66,0,0,1,4.32-1.49c2.66-.18,4.34,1.26,5.53,3.46a22.21,22.21,0,0,1,2.24,8.54,76.48,76.48,0,0,1-.18,15.93,4.34,4.34,0,0,1-2.31,3.26,2.16,2.16,0,0,1-3.18-1,12.68,12.68,0,0,1-1-5.58c-.16-4.1,0-8.21-.24-12.31a23.92,23.92,0,0,0-.87-6.13c-.66-2-1.91-2.33-3.45-.85-2.45,2.36-3.88,5.36-5.15,8.47a60.89,60.89,0,0,0-4.17,14,7.61,7.61,0,0,1-1.8,4.33c-1.49,1.55-3.18,1.26-4-.73a12.55,12.55,0,0,1-.83-4.77c-.1-4.63-.16-9.26-.29-13.89a15.88,15.88,0,0,0-.92-5.26c-.66-1.73-1.77-2-3.18-.79a17.11,17.11,0,0,0-3.73,5.08c-1.71,3.2-2.9,6.62-4.44,9.89a5.44,5.44,0,0,1-1.71,2.18,3.11,3.11,0,0,1-5-1.35,13.64,13.64,0,0,1-.84-4.16,68.32,68.32,0,0,1-.84-7.49,3.06,3.06,0,0,1,3.82-2.94,2.3,2.3,0,0,1,1.75,2C76.64,142.24,77,143.85,77.37,145.78Z"/><path class="cls-3" d="M175,149.93a40.24,40.24,0,0,1-6.77,9.07,9.43,9.43,0,0,1-5.42,3,4.7,4.7,0,0,1-4.75-2,14,14,0,0,1-2.37-6.45,38.32,38.32,0,0,1-.3-12.48c.9-5,3.37-9,8.38-10.8s10.62.56,13.28,5.38a36,36,0,0,1,3.65,12,32,32,0,0,1,.54,5.81,2.66,2.66,0,0,1-2.61,2.8,2.53,2.53,0,0,1-2.73-1.94A44.56,44.56,0,0,1,175,149.93ZM161.73,148a38.92,38.92,0,0,0,.66,7.44c.22,1,.4,2.24,1.59,2.55s1.92-.71,2.62-1.47a47.32,47.32,0,0,0,4.73-6.49c3.2-4.91,2-9.78-1.2-13.6-1.68-2-3.62-2-5.39-.06a7.59,7.59,0,0,0-1.3,2A23.36,23.36,0,0,0,161.73,148Z"/><path class="cls-3" d="M205.34,148.68c-.39,1.47-.69,3-1.18,4.39-1.09,3.18-2.58,6.15-5.32,8.27-3.19,2.47-6.64,2-9-1.19-2-2.7-2.89-5.88-3.63-9.09a86.48,86.48,0,0,1-1.72-13.87,4,4,0,0,1,1.09-3,2.19,2.19,0,0,1,3.71.19,12.47,12.47,0,0,1,1.76,5.39c.79,4.64,1.21,9.33,2.21,13.93a16.25,16.25,0,0,0,1.13,3.47c.89,1.89,2.16,2.07,3.56.53a11.14,11.14,0,0,0,2.36-5.66c.78-4,1-8.13,1.49-12.19a24,24,0,0,1,.49-2.87,3.12,3.12,0,0,1,5.58-1.07,10.12,10.12,0,0,1,1.66,4.28c1,4.59,2.07,9.18,3.09,13.77.37,1.66,0,2.37-1.45,2.83-1.6.52-3,.07-3.47-1.33-.74-2.06-1.33-4.18-2-6.27C205.62,149,205.66,148.75,205.34,148.68Z"/><path class="cls-3" d="M130.08,143.78a57.39,57.39,0,0,1,4.12-6.73,15.68,15.68,0,0,1,4.8-4.61c3.77-2.09,7-1.37,8.88,2.61a23,23,0,0,1,1.87,7.64,87.39,87.39,0,0,1,0,14.11,4.8,4.8,0,0,1-1.88,3.55,2.14,2.14,0,0,1-3.57-.91,12.44,12.44,0,0,1-.81-4.77c-.11-3.65-.16-7.31-.22-11a29.79,29.79,0,0,0-.52-5.44,8.3,8.3,0,0,0-.2-.83c-.71-2.28-1.86-2.57-3.57-.9-2.2,2.15-3.42,4.92-4.67,7.65-.84,1.85-1.59,3.73-2.39,5.6a6.33,6.33,0,0,1-.61,1.19c-.92,1.29-2.08,2.28-3.77,1.94a3.28,3.28,0,0,1-2.51-3,96.06,96.06,0,0,1-1.27-10c-.12-1.62.9-2.51,2.78-2.7,1.39-.14,2.23.6,2.54,2.2A25.7,25.7,0,0,0,130.08,143.78Z"/><path class="cls-4" d="M134.56,130.51a1.68,1.68,0,0,1-1.26-.35c-3.05-2.41-6.08-4.85-9-7.45-.27-.25-.79-.51-.49-1s.74-.2,1.13-.13c3.22.59,5.83,2.41,8.31,4.37a1.78,1.78,0,0,0,2.55.12,22.6,22.6,0,0,1,7.24-3.65c.39-.11.82-.34,1.12.06s0,.76-.3,1.07a32,32,0,0,1-8.16,6.64A1.8,1.8,0,0,1,134.56,130.51Z"/><path class="cls-5" d="M161.73,148a23.36,23.36,0,0,1,1.71-9.57,7.59,7.59,0,0,1,1.3-2c1.77-2,3.71-2,5.39.06,3.16,3.82,4.4,8.69,1.2,13.6a47.32,47.32,0,0,1-4.73,6.49c-.7.76-1.42,1.78-2.62,1.47s-1.37-1.54-1.59-2.55A38.92,38.92,0,0,1,161.73,148Z"/></g></g></g></g></svg>