<svg xmlns="http://www.w3.org/2000/svg" viewBox="0 0 283.46 283.46"><defs><style>.cls-1{fill:#f77698;}.cls-2{fill:#fff;}.cls-3{fill:#fdfafb;}.cls-4{fill:#f5d738;}.cls-5{fill:#f57898;}</style></defs><g id="Layer_2" data-name="Layer 2"><g id="Ostatní_CZ_kanály" data-name="Ostatní CZ kanály"><g id="mnau"><rect class="cls-1" width="283.46" height="283.46"/><g id="logo"><path class="cls-1" d="M141.84,238.44a101.92,101.92,0,0,1-13.74-1,93.57,93.57,0,0,1-23.26-6.38,95.77,95.77,0,0,1-57.56-72.54A92.82,92.82,0,0,1,46,140a96,96,0,0,1,8.71-37.19,93,93,0,0,1,5.38-10,3.87,3.87,0,0,0,.19-3.89,66,66,0,0,1-6.31-24.74c-.43-5.68-.66-11.76.52-17.79,0,0,.15-.79.19-1l.75.2a21.22,21.22,0,0,1,8.7,4.86c4.63,4,8.35,9.15,11.7,16.23.54,1.16,1.28,2.72,3.17,2.72a4.32,4.32,0,0,0,2.74-1.29,97,97,0,0,1,25.56-14.73,95.34,95.34,0,0,1,26.51-6c2.73-.23,5.48-.34,8.17-.34a95.44,95.44,0,0,1,40.25,8.94,91.48,91.48,0,0,1,16.75,10,4.1,4.1,0,0,0,2.42.93,3.56,3.56,0,0,0,3.11-2.29,46.06,46.06,0,0,1,9.42-13.07,23.56,23.56,0,0,1,10.69-6.2,43.94,43.94,0,0,1,.78,7.42c0,.64,0,1.26,0,1.88,0,.31,0,.63,0,1,0,10.4-1.38,18.68-4.32,26.05-1.33,3.35-1,6,1.12,9.21A94.62,94.62,0,0,1,237.51,145a95.92,95.92,0,0,1-59.92,86.5A97.08,97.08,0,0,1,142,238.44Z"/><path class="cls-2" d="M56.6,48.59a20.69,20.69,0,0,1,5.86,3.74c4.36,3.75,7.87,8.64,11.07,15.41.58,1.24,2,4.14,5.43,4.14A6.75,6.75,0,0,0,83.29,70a94.3,94.3,0,0,1,24.86-14.34A93.12,93.12,0,0,1,134,49.81c2.66-.22,5.35-.33,8-.33a92.9,92.9,0,0,1,39.2,8.71A90,90,0,0,1,197.44,68a6.49,6.49,0,0,0,3.91,1.44c1.61,0,3.85-.63,5.36-3.68a43.35,43.35,0,0,1,8.91-12.37,22.84,22.84,0,0,1,7-4.72c.14,1.36.21,2.79.28,4.27,0,.52,0,1.09,0,1.71,0,.32,0,.65,0,1,0,10.08-1.32,18.06-4.14,25.14a11.46,11.46,0,0,0,1.35,11.51A92,92,0,0,1,235,144.92a93.41,93.41,0,0,1-58.36,84.26,90.75,90.75,0,0,1-23.05,6,93.06,93.06,0,0,1-11.59.77h-.16a98.69,98.69,0,0,1-13.41-1,90.85,90.85,0,0,1-22.64-6.2,93.83,93.83,0,0,1-42.34-35.36,92.13,92.13,0,0,1-13.72-35.29,90,90,0,0,1-1.28-18.05,93.31,93.31,0,0,1,8.48-36.23,91.6,91.6,0,0,1,5.24-9.77,6.33,6.33,0,0,0,.3-6.31c-3.39-6.85-5.37-14.65-6.06-23.83a69.19,69.19,0,0,1,.18-15.34m-3.19-6.07c-.82,0-.91.76-1.42,3.33-1.19,6.09-1,12.28-.56,18.45A68.5,68.5,0,0,0,58,90a1.35,1.35,0,0,1-.08,1.47,95.3,95.3,0,0,0-5.52,10.31,98,98,0,0,0-8.94,38.15,95.68,95.68,0,0,0,1.35,19,96.8,96.8,0,0,0,14.45,37.19,98.83,98.83,0,0,0,44.61,37.25,95.84,95.84,0,0,0,23.89,6.54,103.84,103.84,0,0,0,14.08,1H142a97.93,97.93,0,0,0,12.21-.81,95.45,95.45,0,0,0,24.32-6.32A98.43,98.43,0,0,0,240,145.07a97.21,97.21,0,0,0-15.77-55.61c-1.56-2.32-2-4.15-.87-6.89,3.43-8.63,4.48-17.74,4.49-27,0-1,0-2,0-2.93a42.19,42.19,0,0,0-1-8.45c-.31-1.21-.47-1.61-1.15-1.61a6.39,6.39,0,0,0-1.18.18,25.84,25.84,0,0,0-12.38,6.95,48.82,48.82,0,0,0-9.94,13.77c-.29.59-.53.9-.88.9a1.69,1.69,0,0,1-.9-.43,94.08,94.08,0,0,0-17.22-10.32,97.33,97.33,0,0,0-41.29-9.17q-4.16,0-8.38.34A97.89,97.89,0,0,0,80.17,66.11c-.62.5-1,.77-1.21.77s-.5-.4-.91-1.28c-3-6.46-6.86-12.36-12.33-17.06A23.88,23.88,0,0,0,56,43.15a16.35,16.35,0,0,0-2.6-.63Z"/><rect class="cls-1" x="42.52" y="180.45" width="198.43" height="60.5"/><path class="cls-3" d="M77.37,145.78c.94-1.6,1.69-2.93,2.5-4.23a26.81,26.81,0,0,1,5.62-7.14,9,9,0,0,1,5.61-2.09c2.83,0,4.36,1.83,5.45,4.17a20.36,20.36,0,0,1,1.52,5.37c.07.42.16.84.3,1.53.93-1.61,1.68-3,2.5-4.31a21.61,21.61,0,0,1,6-6.78,8.72,8.72,0,0,1,4.33-1.49c2.66-.18,4.34,1.26,5.52,3.46a21.91,21.91,0,0,1,2.24,8.54,76.43,76.43,0,0,1-.18,15.93,4.37,4.37,0,0,1-2.31,3.26,2.17,2.17,0,0,1-3.18-1,12.6,12.6,0,0,1-1-5.58c-.17-4.1,0-8.21-.24-12.31a23.87,23.87,0,0,0-.86-6.13c-.67-2-1.92-2.33-3.45-.85a23.41,23.41,0,0,0-5.15,8.47,60.7,60.7,0,0,0-4.18,14,7.55,7.55,0,0,1-1.8,4.33c-1.48,1.55-3.18,1.25-4-.73a12.49,12.49,0,0,1-.84-4.76c-.1-4.63-.15-9.27-.29-13.9a16,16,0,0,0-.91-5.25c-.66-1.73-1.77-2-3.18-.79a17,17,0,0,0-3.73,5.08c-1.71,3.2-2.9,6.62-4.44,9.89a5.49,5.49,0,0,1-1.72,2.18,3.11,3.11,0,0,1-5-1.35,13.87,13.87,0,0,1-.84-4.16,69.94,69.94,0,0,1-.84-7.5,3,3,0,0,1,3.82-2.93,2.3,2.3,0,0,1,1.75,2C76.64,142.24,77,143.85,77.37,145.78Z"/><path class="cls-3" d="M175,149.93a40.19,40.19,0,0,1-6.77,9.07,9.4,9.4,0,0,1-5.42,3,4.7,4.7,0,0,1-4.75-2.05,13.92,13.92,0,0,1-2.37-6.45,38.17,38.17,0,0,1-.3-12.48c.9-5,3.37-9,8.38-10.8s10.62.56,13.28,5.38a35.89,35.89,0,0,1,3.65,12.05,32.29,32.29,0,0,1,.54,5.81,2.65,2.65,0,0,1-2.61,2.79,2.52,2.52,0,0,1-2.73-1.93C175.45,153,175.42,151.57,175,149.93ZM161.73,148a38.14,38.14,0,0,0,.66,7.44c.22,1,.39,2.25,1.59,2.55s1.91-.7,2.61-1.46a47.93,47.93,0,0,0,4.74-6.49c3.2-4.91,2-9.78-1.2-13.6-1.68-2-3.62-2-5.39-.06a7.58,7.58,0,0,0-1.3,2.05A23.24,23.24,0,0,0,161.73,148Z"/><path class="cls-3" d="M205.34,148.68c-.39,1.46-.69,3-1.18,4.39-1.1,3.18-2.58,6.15-5.33,8.27-3.18,2.47-6.64,2-9-1.19-2-2.7-2.89-5.88-3.63-9.09a86.21,86.21,0,0,1-1.73-13.87,4,4,0,0,1,1.1-3,2.19,2.19,0,0,1,3.71.19,12.58,12.58,0,0,1,1.76,5.39c.79,4.64,1.21,9.33,2.21,13.93a16,16,0,0,0,1.12,3.47c.89,1.9,2.17,2.07,3.56.53a11.19,11.19,0,0,0,2.37-5.66c.77-4,1-8.13,1.49-12.2a23.25,23.25,0,0,1,.49-2.87,3,3,0,0,1,2.5-2.35,3,3,0,0,1,3.08,1.28,10.17,10.17,0,0,1,1.66,4.28c1,4.58,2.07,9.17,3.09,13.76.37,1.67,0,2.37-1.46,2.84-1.6.51-3,.07-3.47-1.34-.74-2.06-1.32-4.17-2-6.26C205.62,149,205.66,148.75,205.34,148.68Z"/><path class="cls-3" d="M130.08,143.78a58.19,58.19,0,0,1,4.13-6.73,15.72,15.72,0,0,1,4.79-4.61c3.78-2.09,7-1.36,8.89,2.62a22.9,22.9,0,0,1,1.87,7.64,87.46,87.46,0,0,1,0,14.11,4.79,4.79,0,0,1-1.89,3.55,2.14,2.14,0,0,1-3.56-.91,12.36,12.36,0,0,1-.82-4.77c-.1-3.66-.16-7.31-.21-11a30.1,30.1,0,0,0-.52-5.44c-.06-.28-.12-.56-.2-.83-.71-2.28-1.86-2.57-3.57-.9-2.21,2.15-3.42,4.92-4.67,7.65-.85,1.84-1.59,3.73-2.4,5.6a5.81,5.81,0,0,1-.61,1.19c-.92,1.28-2.07,2.27-3.77,1.93a3.27,3.27,0,0,1-2.52-3,96,96,0,0,1-1.26-10c-.12-1.62.89-2.51,2.78-2.7,1.38-.14,2.22.59,2.53,2.2A26.6,26.6,0,0,0,130.08,143.78Z"/><path class="cls-4" d="M134.56,130.51a1.66,1.66,0,0,1-1.26-.36c-3.06-2.41-6.08-4.85-9-7.45-.28-.24-.79-.51-.49-1s.74-.19,1.13-.12c3.22.58,5.83,2.4,8.31,4.37a1.78,1.78,0,0,0,2.55.12,22.58,22.58,0,0,1,7.24-3.66c.39-.11.82-.34,1.12.06s-.05.76-.31,1.07a31.71,31.71,0,0,1-8.16,6.64A1.87,1.87,0,0,1,134.56,130.51Z"/><path class="cls-5" d="M161.73,148a23.24,23.24,0,0,1,1.71-9.57,7.58,7.58,0,0,1,1.3-2.05c1.77-2,3.71-2,5.39.06,3.16,3.82,4.4,8.69,1.2,13.6a47.93,47.93,0,0,1-4.74,6.49c-.7.76-1.42,1.77-2.61,1.46s-1.37-1.54-1.59-2.55A38.14,38.14,0,0,1,161.73,148Z"/></g></g></g></g></svg>