<?xml version="1.0" encoding="utf-8"?>
<!-- Generator: Adobe Illustrator 24.3.0, SVG Export Plug-In . SVG Version: 6.00 Build 0)  -->
<svg version="1.1" id="Слой_1" xmlns="http://www.w3.org/2000/svg" xmlns:xlink="http://www.w3.org/1999/xlink" x="0px" y="0px"
	 viewBox="0 0 512 204.2" style="enable-background:new 0 0 512 204.2;" xml:space="preserve">
<style type="text/css">
	.st0{fill:#96B422;}
</style>
<g>
	<path class="st0" d="M193.5,150.2c2.2-1.1,4.3-1.5,6.7-1.9c1.3-0.2,1.8,1.6,0.5,2c-2.2,0.8-4.3,1.5-6.7,1.7
		C193.1,152.1,192.7,150.6,193.5,150.2 M200.6,94.8c-0.5,0.2-0.9,0.4-1.4,0.6c-0.7,0.3-1.1-0.8-0.5-1.2l1.3-0.8
		C201,92.8,201.7,94.4,200.6,94.8 M216.6,61c-0.8,0.5-1.5,0.9-2.4,1.2c-0.6,0.2-1.1-0.7-0.6-1.1c0.7-0.6,1.4-1,2.2-1.4
		C216.7,59.2,217.4,60.4,216.6,61 M218,15c2.7-3.1,7.5-4.6,11.1-6.3c0.9-0.4,1.5,0.7,0.7,1.3c-3.3,2.3-7,5.7-11,6.5
		C218,16.6,217.4,15.7,218,15 M185,26.3c-0.2-0.4-0.3-0.8-0.4-1.2c-0.3-1,1.3-1.4,1.6-0.4c0.1,0.4,0.2,0.8,0.2,1.2
		C186.5,26.9,185.3,27.2,185,26.3 M169,43.3c-0.6-0.9-0.6-2-0.8-3.1c-0.1-1.1,1.4-1.5,1.6-0.4c0.3,1.2,0.6,2.2,0.4,3.4
		C170.1,43.8,169.3,43.8,169,43.3 M153.3,69.8c-0.8-1.1-0.8-2.4-0.9-3.7c-0.1-1.1,1.7-1.3,2-0.2c0.3,1.3,0.7,2.5,0.3,3.8
		C154.4,70.3,153.7,70.3,153.3,69.8 M39.6,68.9c-0.5-0.2-0.4-1.1,0.1-1c0.7,0.1,1.4,0.2,2.1,0.4c0.5,0.2,0.5,1-0.1,1
		C40.9,69.2,40.3,69.1,39.6,68.9 M9.3,61.6c9.4,5,18.3,10.2,26.4,17.5c10.8,9.8,19.9,21.1,29.5,31.9c19.8,22.4,50.9,48.1,81.6,30.9
		c-0.1-0.2-0.2-0.3-0.3-0.5c-1.9-3.7-3.6-7.6-4.9-11.6c-2.5-2.5-4.9-5.1-7.3-7.6c-3.1-0.4-6.3-1.1-9.4-1.2
		c-5.1-0.2-10.1,0.2-15.1,1.1c-0.7,0.1-1-0.9-0.3-1.1c6.4-1.5,14.4-3,21.6-2.2c-1.2-1.2-2.4-2.5-3.7-3.7c-12-1-23.1-1.9-35.4,0.3
		c-0.2,0-0.2-0.2-0.1-0.2c9.9-2.9,21.2-4.8,31.8-3.7c-1.2-1.2-2.4-2.3-3.7-3.4c-15.4-2.4-30.7-3.9-46.1,1c-0.1,0-0.2-0.2-0.1-0.2
		c13.3-4.1,27.4-7.1,41.1-5.2c-2-1.7-4-3.3-6.1-4.9h0c-0.2-0.2-0.4-0.4-0.7-0.5c-16.3-3.1-31.7-5.9-48.5-5.6c-0.3,0-0.3-0.4-0.1-0.5
		C72.2,89.9,86,89.4,98.9,92c-15.4-9.6-31.3-16.5-49-21.2c-0.7-0.2-0.4-1.2,0.3-1.1c15.5,2.8,31.7,8,46.9,15.6
		c-0.5-0.6-0.9-1.2-1.4-1.8C92.2,79,88,74.8,84.9,69.8c-0.4-0.6,0.4-1.1,0.9-0.7c5,4.3,9,9.8,13.5,14.7c1.6,1.7,3.2,3.4,4.8,5.2
		c1,0.5,1.9,1.1,2.8,1.6c-3.3-5.3-6.3-10.8-9-16c-0.3-0.6,0.5-1,0.8-0.5c4.7,6.1,9.7,13.1,13.8,20c1.1,0.7,2.2,1.5,3.4,2.3
		c-0.3-0.6-0.5-1.2-0.8-1.8c-1.5-3.1-3-6.1-4.6-9.1c-0.3-0.7,0.6-1.3,1-0.6c1.6,3,3.2,6,4.9,9c0.9,1.6,2,3.2,2.9,4.9
		c0.9,0.6,1.8,1.3,2.6,2c-1.7-3.7-2.9-7.8-4.1-11.4c-0.2-0.5,0.6-0.8,0.8-0.3c2.4,4.9,5.6,9.9,7.5,15.1c4.2,3.5,8.1,7.2,11.8,11.2
		c-1.5-9.3-1.6-18.9-0.4-28.4c-9.2-4.9-17.6-11.2-27.2-15.6C99.2,66,87.4,62.2,75.4,59.9C52.9,55.4,31.4,57.3,9.3,61.6 M150.1,132.6
		c2.2-10.6,5-21.2,8.6-31.5c-4-7.3-4.4-18.8-4.3-26.6c0-0.7,1.1-0.9,1.3-0.2c1.2,4.9,2.4,9.8,3.9,14.6c0.5,1.7,1.1,3.4,1.7,5.1
		c3.1-8,6.7-15.9,10.7-23.5c-1-2.9-1.1-6.2-1.3-9.3c-0.4-4.6-0.8-9.2-1-13.9c0-0.7,1-0.8,1.2-0.2c1.3,4.5,2.3,9,3.5,13.6
		c0.3,1.3,0.7,2.6,1,3.9c3.2-5.6,6.7-11,10.5-16.3c-1.1-2.4-0.8-5.3-0.7-7.9c0.2-3.7,0.3-7.1,0-10.7c-0.1-0.7,1.1-0.8,1.2-0.2
		c0.5,3.6,1.1,7,2.1,10.5c0.3,1.2,0.7,2.4,0.9,3.7c7.3-9.5,15.6-18.2,24.8-25.7c0.5-0.4,1.2,0.2,0.7,0.7
		c-15.3,20-29.5,39.5-40.1,61.9c9.7-7.8,23.6-12.7,34-16.1c0.5-0.2,0.8,0.6,0.3,0.8C201.4,69,194.4,73,187.7,78
		c-6,4.4-11.5,10.5-18,14.2c-0.4,1.1-0.9,2.2-1.3,3.3c-2.1,5.5-3.9,11-5.5,16.5c7.6-7.1,19.3-11.4,28.1-13.8
		c0.2-0.1,0.3,0.3,0.1,0.3c-6.6,3.3-12.6,7.4-18.4,12c-4.2,3.4-7.9,8-12.5,11c-1.3,5-2.4,10-3.4,15c20.3-1.8,39.2-11.5,51.3-28.3
		c11.3-15.6,13.2-32.6,13.3-51.3c0.1-13.4,1.7-26,10.7-36.6c6.8-8,16.2-13.3,26.4-14.9c-36.3-6.1-74.7,5-97,35.9
		C141.7,68.7,139.6,101.7,150.1,132.6 M153.5,161.4c-0.2,2-0.3,4-0.4,6.1c9.8-8.2,24.3-12.9,36.3-15c0.4-0.1,0.8,0.5,0.3,0.8
		c-6.3,3-12.7,6-18.8,9.4c-6,3.3-11.4,7.8-17.6,10.8c12.8-2.2,24.9-2.7,37-8.6c10.6-5.1,19.7-12.4,27.3-21.3
		C194.1,140.5,173,148.7,153.5,161.4 M1.7,58.4c22.9-8.6,49.6-8.7,73.4-4.2c21,4,47.1,12.7,63,28.3c2.8-16.8,9.7-32.9,20-45.9
		C182.6,5.9,227.6-8.2,264.8,4.9c0.5,0,1,0,1.5,0c1.5,0,2,2.6,0.4,2.8c-22.2,3.2-37.2,18.8-38.5,41.3c-1,16.2,0.8,30.9-5.3,46.4
		c-11.1,28.3-37.5,46.2-67.3,48.4c-0.7,4.6-1.3,9.1-1.8,13.7c18.3-17.3,45.5-22.1,69.8-18.5c1.7,0.2,2.7,2.8,1.7,4.1
		c-15.5,20.4-45.5,40.3-72.6,35.1c0,0.6,0,1.2,0,1.8c0,4.9-7.6,4.8-7.6-0.1c0-10.2,0.7-20.6,2.2-31.1c-23,11-49.3,1.5-68-14.6
		C54.7,113,36.1,70,1.7,62.9C-0.8,62.4-0.3,59.1,1.7,58.4"/>
	<path class="st0" d="M502.6,162.2c0-0.2,0-0.5,0.2-0.6C502.7,161.7,502.7,162,502.6,162.2 M499.4,166.6h-0.2l0.5-0.3h0.2
		L499.4,166.6z M498.8,167.8h-0.3c0.2,0,0.2-0.2,0.3-0.2V167.8z M498,168l0.2-0.2C498.2,168,498.2,168,498,168 M497.1,168.6l1-1.4
		c0,0.3-0.2,0.6-0.2,0.9L497.1,168.6z M496.9,169.4c0.2,0,0.2-0.2,0.3-0.2C497.2,169.4,497.1,169.4,496.9,169.4 M495.8,170.2
		l1.1-1.4C496.9,169.6,496.3,169.7,495.8,170.2 M495.3,170.7c0-0.2,0.2-0.3,0.3-0.3L495.3,170.7z M471.7,148.2
		c-0.2,0.5-0.3,0.8-0.6,1.1c0.5-1.7,0.8-3.6,1.4-5.4c1.6-4.6,7.6-15.7,11.6-18.2C478.8,132.1,474.7,140.3,471.7,148.2 M471.1,150.2
		H471c0-0.2,0-0.5,0.2-0.6V150.2z M470.6,142.2c0.3-0.3,0.3-0.9,0.6-1.1l-0.5,1.1H470.6z M476.9,130.9v0.3c-1.7,2.8-3.6,5.5-5.2,8.5
		C473.2,136.4,474.9,133.7,476.9,130.9 M468.8,139.7l-0.3,0.8C468.5,140.2,468.6,139.8,468.8,139.7c1.1-3,6-11.5,8.2-13.7l0.3-0.6
		c0,0.8-1.4,2.5-1.9,3.1c-2.2,3.3-4.1,7.1-6.1,10.5C469.2,139.4,468.9,139.5,468.8,139.7 M468.3,141.4h-0.2c0-0.2,0.2-0.3,0.2-0.5
		V141.4z M478,124.6h0.2l-0.5,0.3L478,124.6z M478.8,128.5v0.2h-0.3C478.7,128.7,478.7,128.7,478.8,128.5 M479.5,127.4v0.2h-0.2
		C479.3,127.4,479.3,127.4,479.5,127.4 M495,155.3h0.2v0.3H495V155.3z M495.8,152.3v0.5l-0.2-0.3L495.8,152.3z M496.6,149v0.8h-0.2
		C496.4,149.4,496.4,149.3,496.6,149 M496.8,147.7h0.2l-0.3,0.6L496.8,147.7z M498,144.4c-0.2,1.1-0.3,2.2-1.1,3.1
		C497.2,146.5,497.5,145.5,498,144.4 M499.1,128.4l-1.3,2.4C498,129.9,498.6,128.8,499.1,128.4 M498.8,142.1l-0.2,0.3
		c0-0.3,0-0.6,0.2-0.8V142.1z M498.2,143.6c0-0.2,0-0.3,0.2-0.5L498.2,143.6z M501.2,129.6l-0.6,1.3c0-0.2-0.2-0.5-0.2-0.5
		C500.4,129.9,500.7,129.8,501.2,129.6 M501.3,128.7c0,0.3,0,0.5-0.2,0.8C501.2,129.2,501.2,129,501.3,128.7 M510.3,148.7v-0.2
		c-0.2,0.5-0.3,1-0.6,1.4l-0.5,0.3h0.2c-0.3,0.6-0.8,1.3-0.9,2.1l-0.2-0.6l-0.9,1.7h0.2l-0.3,0.6h0.2c-0.5,0.8-1.1,1.6-1.4,2.3
		c-0.5,1.3-1.7,2.2-2.1,3.5l-0.3,0.6l-0.5,0.3l-0.3,0.6v-0.6c-1.1,0.8-1.3,1.6-1.7,2.8h0.3l0.2-0.2v0.2h-0.2
		c-0.5,0.8-1.3,1.7-1.4,2.5l-0.2-0.6l-1.1,0.8l1.4-2.7l-5,5.8c2.8-5.8,8-11,11.3-16.7l-0.8,0.8c-0.8,0.8-1.4,2-2,2.8
		c-2.5,3.1-5,6.6-7.9,9.4c0,0.2,0,0.2-0.2,0.2v-0.2h0.2c1.4-3.3,4.2-5.8,6.3-8.8h-0.3c-1.6,1.7-3.2,3.9-5.2,5.2c0-5,6.9-24.5,9-30.2
		c0.3-1,0.8-2.1,0.8-3.1c0-0.8-0.6-1.3-1.4-1.4c-1.7,3.3-3,6.9-4.6,10.4c0,0.3-0.3,0.5-0.5,0.6c0,0.2,0,0.2-0.2,0.2l0.2-0.2
		c1.4-3.8,2.8-7.5,4.1-11.5l-0.8-0.3v0.2l-0.6,0.3l0.2-1.1c-0.2-0.2-0.5-0.5-0.8-0.5c-0.5,0-0.8,0.3-1,0.6l-0.5,0.3l-0.2,0.8
		l-0.5,0.2c0.6-0.6,0.3-0.5,0.6-1.1l0.5-0.2l-0.2-1.6c-3.6,1.4-4.1,4.7-6.9,7.2l-15.1,13.5l-2.5,1.9l-0.3-0.3
		c4.6-10.2,10.2-23,21.5-26.9l4.6,1.3c0.2-0.3,0.3-0.6,0.3-0.9c0-0.5-0.3-1-0.6-1.3c-2.8-2.7-6.1-4.9-10.1-4.9
		c-3.9,0-7.9,2.2-11,4.4c-7.5,5.4-17.5,22.2-17.5,31.5c0,4.4,5.8,8,9.8,8c5.5,0,10.1-6.6,13.4-10.1l5.3-5.5
		c-1.7,8.3-3.6,16.7-3.6,25.2c0,4.4,2.5,4.7,6,6c6.9-5.5,14.6-19.5,18.1-27.7C511.4,146.9,510.7,147.7,510.3,148.7 M444.4,165.4
		l0.2-0.2v0.2H444.4z M448.9,151.4h-0.2l0.2-0.2V151.4z M432,129.4c0,0.2,0,0.3-0.2,0.5L432,129.4z M451.3,144.7h-0.2l0.2-0.2V144.7
		z M451.9,155.1h0.2l-0.2,0.2V155.1z M455.1,146.1v0.2l-0.2-0.2H455.1z M449.3,163.7h-0.2l0.2-0.2V163.7z M457,140l0.2-0.2v0.2H457z
		 M446.6,158.5v0.2l-0.2-0.2H446.6z M422.5,158.2h-0.2l0.2-0.2V158.2z M451.2,157.3c0-0.2,0-0.2,0.2-0.2L451.2,157.3z M446.1,159.6
		h0.2l-0.2,0.2V159.6z M446.9,157.6v0.2l-0.2-0.2H446.9z M451,158.2c-0.2,0-0.2,0-0.2-0.2h0.2V158.2z M454.6,147.2h0.2v0.2h-0.2
		V147.2z M446.6,173.9c-0.2-0.2-0.2-0.2-0.2-0.3h0.2V173.9z M433.2,125v-0.5l0.2,0.3L433.2,125z M452.2,153.9h0.2
		c0,0.2,0,0.3-0.2,0.3V153.9z M448.9,165h-0.2c0-0.2,0-0.3,0.2-0.3V165z M432.9,126.1h0.2l-0.5,0.6L432.9,126.1z M452.6,152.9h0.2
		v0.3h-0.2V152.9z M454.4,148.5h-0.2v-0.3h0.2V148.5z M446.9,172.3h-0.2V172h0.2V172.3z M432.3,128.6c0,0.2-0.2,0.5-0.3,0.6
		c0.2-0.2,0.2-0.5,0.2-0.6H432.3z M437.8,122.3h-0.2v-0.5h0.2V122.3z M451.8,137.8v-0.5h0.3L451.8,137.8z M450,161.5h-0.2V161h0.2
		V161.5z M449.6,162.1c0.2,0.2,0.2,0.3,0.2,0.5l-0.3-0.2L449.6,162.1z M447.8,168.1h0.2v0.5h-0.2V168.1z M448.3,167.2h-0.2v-0.5h0.2
		V167.2z M449.3,134.9c0,0.2,0,0.5-0.2,0.6v-0.6H449.3z M437.5,124.2h-0.2v-0.6h0.2V124.2z M440.9,173.1c0-0.3,0-0.5,0.2-0.8
		c0,0.3,0.2,0.5,0.2,0.8H440.9z M422.5,95.3c-0.3,0.5-0.5,1.1-0.6,1.7l-0.3-0.3L422.5,95.3z M431,132.7c-0.2-0.6,0-1.4,0.5-2
		L431,132.7z M424.9,147.4c-0.2,0.9-0.5,2-1.3,2.5L424.9,147.4z M425.8,99.5c-0.2-0.3-0.2-0.5-0.2-0.8c0-0.8,0.5-1.4,1-1.9
		C426.3,97.8,426.1,98.8,425.8,99.5 M430.7,133.2l0.3-0.2c-0.3,1.6-1,3-1.7,4.6L430.7,133.2z M437.2,125.3c-0.6,5-5.5,19.7-8.8,23.3
		c3.3-7.4,6-14.8,8.3-22.5C436.8,125.8,436.8,125.5,437.2,125.3 M448.9,135.9c-2.4,8.5-5.4,16.7-8,25c-1,3.1-1.9,6.4-3.3,9.3
		l1.7-6.3l7.6-23C447.4,139.3,447.8,137.1,448.9,135.9 M451.8,138.1c-1.1,6.6-4.1,12.9-6.1,19.2c-1.6,4.7-2.7,9.6-4.1,14.3l-0.3,0.3
		c0.8-3.5,1.3-7.2,2.3-10.7l7.7-22.7L451.8,138.1z M432.9,110.7c-2.8-1.6-4.9-5.4-4.9-8.6c0-2,1-3.9,2.5-5.4c1.7,2.2,2.5,9,2.5,12
		C433.1,109.3,432.9,110.1,432.9,110.7 M443.8,179.4c-0.2-1-0.2-1.9-0.2-2.8c0-3.3,0.6-6.4,1.6-9.6c3.3-10.7,6.8-21.5,10.5-32.1h0.3
		c-0.5,5-2.5,9.9-4.1,14.6c-2.7,7.7-5.5,15.4-7.1,23.3C444.4,175,444.2,177.2,443.8,179.4 M440.3,120.6c2.8,1.3,7.2,2.8,7.2,6.6
		c0,2.4-1.7,7.4-2.7,9.8c-3.8,10.1-10.4,27.2-10.4,37.7c0,8.6,4.1,19.7,14.3,19.7c2.4,0,7.1-0.9,7.1-3.9c0-0.6-0.2-1.3-0.5-1.9h-1.3
		l-0.8,0.9l-0.2-0.2l0.2-1.3l-4.4-1.1c-0.8-1.9-1.1-4.1-1.1-6.1c0-8.6,5-21.7,7.9-30c1.6-4.7,4.6-12.6,4.6-17.3
		c0-3.5-1.3-6.1-3.8-8.5c-4.6-4.2-10.4-7.4-15.7-10.5c-0.2-3.4-0.6-6.9-1-10.4c-0.6-5.5-3.8-10.4-9-12.6c-1.3-0.6-2.5-1-3.9-1
		c-4.6,0-8.3,5.2-8.3,9.4c0,8.3,8.3,12.9,14.3,17c-2.7,14.6-7.9,28-15.7,40.6c-2,3.2-4.1,6-6.8,8.6l-0.3,0.5l5.5,1.9
		c2.8-1.6,4.9-4.1,6.8-6.6C431.3,149.5,438.4,136,440.3,120.6 M390.8,124.2h-0.2v-0.2L390.8,124.2z M421,158.7l0.2-0.2v0.2H421z
		 M389,128.2v0.2h-0.2L389,128.2z M418.1,125.8h0.2l-0.2,0.2V125.8z M394.4,151.6v0.2l-0.2-0.2H394.4z M414.5,130.8
		c-0.2,0.2-0.2,0.2-0.2,0.3v-0.3H414.5z M415.1,127.7c0-0.2,0.2-0.2,0.2-0.3v0.3H415.1z M378.3,135.1h0.2v0.2h-0.2V135.1z
		 M407.3,143.9v-0.5h0.2L407.3,143.9z M405.7,149.9h-0.2v-0.3h0.2V149.9z M382.7,131.3c0-0.2,0-0.3,0.2-0.5v0.5H382.7z M402.9,148.9
		l-0.2-0.3c0.2-0.2,0.2-0.2,0.3-0.2L402.9,148.9z M407.9,141.7v-0.6c0.2,0,0.2,0,0.3,0.2L407.9,141.7z M379.9,153.2
		c0.2-0.5,0.2-1.1,0.2-1.6c0.2,0.6,0.2,1.1,0.2,1.7L379.9,153.2z M383.7,123c0.2-0.3,0-1,0.5-1l0.3,0.2
		C384.2,122.3,384,122.6,383.7,123 M386,124.1c0-0.5,0-1,0.6-1h0.2C386.7,123.4,386.3,123.8,386,124.1 M417.3,124.7
		c-0.6,1.7-0.5,1.3-1.9,2.2L417.3,124.7z M400,143.4c0.3-0.9,0.6-2,1.9-2.2L400,143.4z M380.5,129.1c0.6-2.2,1.7-4.4,3.1-6.1
		L380.5,129.1z M380.2,151.3c0.8-9,5.2-21.9,9.4-29.7c0,0.6,0.2,1.3-0.2,1.9c-3.8,9-7.1,17.6-9,27.2
		C380.5,151,380.4,151.1,380.2,151.3 M414.3,131.1c-1.9,7.7-4.2,15.3-6.5,23c-0.9,3.1-1.6,6.3-2.5,9.4
		C406,157.3,410.9,135.6,414.3,131.1 M423.2,152.1l0.2-0.2l-0.5,0.6v-0.2c-2.1,2.7-9.8,12.6-12.9,12.6c-1,0-1-0.9-1-1.6
		c0-0.2,0.5-1.6,0.5-1.7c2.7-9.9,4.6-20.3,8-30c1-2.5,3-6.3,3-8.8c0,0-0.2-0.3-0.2-0.5l-0.5,0.6c-0.3,0-0.6-0.2-0.8-0.5h-0.3
		l-1.1,1.1l0.5-1.7c-1.4-0.3-3-1.6-4.2-1.6c-0.9,0-2.8,1.3-3.4,2c-4.2,5.2-5.5,12.3-9.4,17.5c-5.7,7.6-11.2,15.1-18.1,21.7
		c0.9-8,2.2-16.2,4.7-23.9c0.8-2.2,5-13.8,5-15c0-0.3-0.2-0.8-0.3-1.1l-1.3-0.6l-1.4,0.6l0.5-1.7c-0.5,0.2-1.6,0-1.9,0.6V119
		c-1.3-0.2-2.8-1-3.1-1c-0.6,0-1.1,0.5-1.6,1c-7.6,7.9-12.4,29.2-12.4,39.6c0,4.1,0.3,7.7,3.9,10.2c2,1.4,4.4,2.2,6.9,2.2
		c1.9,0,3.1-0.5,4.4-1.7c4.6-4.2,8.3-9.4,12-14.6c0,3.3-0.3,6.8-0.3,10.1c0,5.5,3.3,9,8.8,9c7.5,0,13-10.4,16.5-16
		c1.3-2.1,2.5-4.1,3.6-6.3l-0.6-0.5c-0.6,0.6-0.8,1.1-0.8,1.9l-0.6,1.1h0.2v0.2l-0.2-0.2c-0.6,1-1.4,1.7-2.4,2.4
		c1.1-1.6,2.4-3,3.1-4.7c-0.5,0.5-1.6,0.2-2.2,0.5v0.2h-0.2v-0.3c0.6-0.3,1.4-0.8,1.7-1.4l-0.5-0.3L423.2,152.1z M368.3,75.7
		c0,0.2,0,0.2-0.2,0.3C368.1,75.8,368.3,75.8,368.3,75.7 M367.2,87.6c0-0.2,0-0.2,0.2-0.3C367.3,87.5,367.2,87.5,367.2,87.6
		 M367.9,109.5v0.2h-0.2L367.9,109.5z M366.7,113.6l-0.2,0.5C366.5,113.9,366.5,113.7,366.7,113.6 M362.1,90.5l-0.2,0.2
		C362,90.5,362,90.5,362.1,90.5 M360.9,116.9v0.3h-0.2L360.9,116.9z M368.6,74.6l0.3-0.6C368.9,74.1,368.7,74.4,368.6,74.6
		 M363.7,105.2c0,0.2,0,0.2-0.2,0.3v-0.3H363.7z M366.2,115.5l-0.2,0.2c0-0.2,0-0.3,0.2-0.5V115.5z M368.3,75.4l0.3-0.8
		C368.6,74.9,368.4,75.2,368.3,75.4 M350.8,168.6h0.2v0.3h-0.2V168.6z M358.4,157.8v-0.6h0.2L358.4,157.8z M370.2,72.4
		c0-0.2,0.2-0.5,0.3-0.6C370.5,71.9,370.3,72.2,370.2,72.4 M361.4,115.3h-0.2v-0.5h0.2V115.3z M362.8,109.5l-0.3,0.6l-0.2-0.2
		L362.8,109.5z M357.4,164.2h0.2v0.5h-0.2V164.2z M356.5,174.6h-0.2v-0.5h0.2V174.6z M370.3,79h0.5l-0.5,0.3V79z M362.1,111.9h-0.3
		l0.3-0.5V111.9z M360.1,121h-0.2v-0.5h0.2V121z M360.6,118.5l-0.2,0.8h-0.2c0.2-0.3,0.2-0.5,0.2-0.8H360.6z M358,161.1h-0.2v-0.6
		h0.2V161.1z M359.8,149h-0.2v-0.6h0.2V149z M358.8,154.8c-0.2-0.2-0.2-0.5-0.2-0.6h0.2c0,0.2,0,0.5,0.2,0.6H358.8z M361.4,138h0.2
		v0.6h-0.2V138z M356.8,169.9c0-0.3,0-0.6,0.2-0.8v0.8H356.8z M367,112.3l-0.3,1.3c0-0.5,0.2-0.8,0.2-1.3l0.2-0.2V112.3z M364.5,124
		l-0.3-0.2l0.3-0.8V124z M365.8,116.9c0-0.3,0.2-0.5,0.3-0.8v0.8H365.8z M363.9,124.9h0.2v0.9h-0.2V124.9z M363.1,106.7l0.3,0.2
		l-0.3,0.8V106.7z M359.3,152.1h-0.2V151h0.2V152.1z M363.5,128.1h-0.2v-1.1h0.2V128.1z M371.3,70.3l-0.8,1.4
		c0.2-0.6,0.5-1.1,0.8-1.7V70.3z M362.8,132.3h-0.2V131h0.2V132.3z M360.1,145.2h0.2v1.3h-0.2V145.2z M356.2,93.1l-0.6,1v-0.3
		C355.5,93.5,355.8,93.1,356.2,93.1 M360.9,141.3v-0.8h0.2c0.2,0.3,0.2,0.5,0.2,0.8H360.9z M369,104.5v0.6l-0.5,1.1
		C368.7,105.6,368.7,105.1,369,104.5 M350.6,171.3h0.2v1.6h-0.2V171.3z M362.9,129.9l0.2-0.9h0.2v1.1
		C363.1,130.1,363.1,130.1,362.9,129.9 M361.7,136.7l0.2-1.1h0.2v1.1H361.7z M362.1,134.4v-1h0.2c0.2,0.3,0.2,0.6,0.2,1H362.1z
		 M365.4,117.8h0.3c0,0.5-0.2,0.9-0.2,1.4C365.4,118.8,365.4,118.3,365.4,117.8 M360.4,142.8h0.3v1h-0.3V142.8z M348.1,161.6H348
		v-1.9h0.2V161.6z M347.5,168.3h-0.2v-2h0.2V168.3z M369.2,103.4l0.6-1.7v0.6C369.8,102.7,369.7,103.2,369.2,103.4 M364.6,122.5
		c0-0.3-0.2-0.5-0.2-0.8c0-0.3,0.3-0.6,0.6-0.6L364.6,122.5z M365.6,119.4l-0.5,1.6c0-0.3-0.2-0.5-0.2-0.8
		C365,119.7,365.3,119.6,365.6,119.4 M351.3,165.6h-0.2l0.2-3h0.2L351.3,165.6z M351.9,161.1h-0.3c0-0.8,0.2-1.4,0.2-2.2h0.2V161.1z
		 M367.9,109.5c-0.2-0.3-0.2-0.6-0.2-0.9c0-0.6,0.3-1.3,0.8-1.7C368.3,107.8,368.1,108.6,367.9,109.5 M367,112.2c0-1,0-1.9,0.8-2.5
		C367.6,110.4,367.3,111.4,367,112.2 M367.2,87.6c-0.3,1.6-0.5,3.3-1.7,4.6C365.8,90.6,365.9,88.9,367.2,87.6 M348.6,157h-0.3
		l1.6-13l0.5,0.2C349.7,148.3,349.1,152.7,348.6,157 M371.1,90.3c-0.2,0.6-0.5,1.3-1.3,1.3h-0.3c0-1.3,3.6-10.2,4.4-11.6
		c0.5-0.6,1.1-1.3,1.6-2C373.9,82.1,372.7,86.2,371.1,90.3 M350.5,142.7v-0.8c0-5,5.2-34.9,7.4-38.4
		C354.6,116.4,352.7,129.6,350.5,142.7 M362.3,102.6c-1.9,9.1-3.9,18.1-5.7,27.2c-1.7,9-3,18.1-4.4,27.2v-0.8
		C352.2,149.8,359.5,106.2,362.3,102.6 M353.5,190c-0.3-2.4-0.3-4.9-0.3-7.2c0-13.7,2.2-27.5,4.2-41c2.2-13.2,4.6-26.7,8.5-39.6
		l1.4-0.2C359.8,130.7,354.7,160.3,353.5,190 M393.9,92.7c-2.1-2.7-2.8-3.3-6.1-3.3c-2.8,0-5.5,0-8.2,0.6c-1.1,0.3-2.3,0.2-3.4,0.3
		c0,0,5.7-16.2,5.7-16.8c0-1.4-1.6-2.2-2.5-3l-1.3,0.3v-1.6l-1.7-0.6l-1.3,1.1l0.8-2.2l-1.3,0.2l-0.6-0.9c-0.8,0.9-1.4,1.9-2.4,2.8
		l1.1-2.5l-1.9-0.9c-1.4,0-2,0.9-2.7,2c-2.2,3.8-4.7,7.7-6.5,11.8c-2.2,5.4-5.3,10.1-8.8,14.6c-3.5,0.8-7.1,1.1-10.5,2
		c-1.6,0.5-1.9,1-2.2,2.5l1.4,0.8l-0.2,1c1.1,1.4,3.1,3,4.7,3.5l-0.2,0.2c1.6,0,3.3-0.2,4.9-0.2c0.5,0,1.9,0,1.9,0.8
		c0,1.1-0.5,2-0.6,3.1c-0.6,4.4-1.7,8.8-2.5,13.2c-0.8,3.8-1.1,7.7-1.7,11.5c-2.5,16.4-4.7,33.2-4.7,49.7c0,5.5,0,16.2,5.8,19.2
		c1.9,1,3.9,1.4,5.8,2.4l1-1.4c0.2,0.3,0.3,0.8,0.8,0.8c1.1,0,3.1-0.5,3.1-1.9c0-0.5,0-0.8-0.2-1.3c-1-3.9-1.6-8.2-1.6-12.3
		c0-10.2,1.3-20.6,2.8-30.7c3.1-19,6.4-38.1,12.1-56.5c5.7-0.9,19.7-2.2,23.3-6.6C395.2,94.2,393.9,93.9,393.9,92.7 M334.8,162.2
		c0-0.2,0-0.5,0.2-0.6C334.9,161.7,334.9,162,334.8,162.2 M331.6,166.6h-0.2l0.5-0.3h0.2L331.6,166.6z M331,167.8h-0.3
		c0.2,0,0.2-0.2,0.3-0.2V167.8z M330.2,168l0.2-0.2C330.4,168,330.4,168,330.2,168 M329.3,168.6l0.9-1.4c0,0.3-0.2,0.6-0.2,0.9
		L329.3,168.6z M329.1,169.4c0.2,0,0.2-0.2,0.3-0.2C329.4,169.4,329.3,169.4,329.1,169.4 M328,170.2l1.1-1.4
		C329.1,169.6,328.5,169.7,328,170.2 M327.5,170.7c0-0.2,0.2-0.3,0.3-0.3L327.5,170.7z M303.9,148.2c-0.2,0.5-0.3,0.8-0.6,1.1
		c0.5-1.7,0.8-3.6,1.4-5.4c1.6-4.6,7.5-15.7,11.6-18.2C311,132.1,306.9,140.3,303.9,148.2 M303.3,150.2h-0.2c0-0.2,0-0.5,0.2-0.6
		V150.2z M302.8,142.2c0.3-0.3,0.3-0.9,0.6-1.1l-0.5,1.1H302.8z M309.1,130.9v0.3c-1.7,2.8-3.6,5.5-5.2,8.5
		C305.4,136.4,307.1,133.7,309.1,130.9 M301,139.7l-0.3,0.8C300.6,140.2,300.8,139.8,301,139.7c1.1-3,6-11.5,8.2-13.7l0.3-0.6
		c0,0.8-1.4,2.5-1.9,3.1c-2.2,3.3-4.1,7.1-6.1,10.5C301.4,139.4,301.1,139.5,301,139.7 M300.5,141.4h-0.2c0-0.2,0.2-0.3,0.2-0.5
		V141.4z M310.2,124.6h0.2l-0.5,0.3L310.2,124.6z M311,128.5v0.2h-0.3C310.9,128.7,310.9,128.7,311,128.5 M311.7,127.4v0.2h-0.2
		C311.5,127.4,311.5,127.4,311.7,127.4 M327.2,155.3h0.2v0.3h-0.2V155.3z M328,152.3v0.5l-0.2-0.3L328,152.3z M328.8,149v0.8h-0.2
		C328.6,149.4,328.6,149.3,328.8,149 M328.9,147.7h0.2l-0.3,0.6L328.9,147.7z M330.2,144.4c-0.2,1.1-0.3,2.2-1.1,3.1
		C329.4,146.5,329.7,145.5,330.2,144.4 M331.3,128.4l-1.3,2.4C330.2,129.9,330.8,128.8,331.3,128.4 M331,142.1l-0.2,0.3
		c0-0.3,0-0.6,0.2-0.8V142.1z M330.4,143.6c0-0.2,0-0.3,0.2-0.5L330.4,143.6z M333.3,129.6l-0.6,1.3c0-0.2-0.2-0.5-0.2-0.5
		C332.6,129.9,332.9,129.8,333.3,129.6 M333.5,128.7c0,0.3,0,0.5-0.2,0.8C333.3,129.2,333.3,129,333.5,128.7 M342.5,148.7v-0.2
		c-0.2,0.5-0.3,1-0.6,1.4l-0.5,0.3h0.2c-0.3,0.6-0.8,1.3-1,2.1l-0.2-0.6l-1,1.7h0.2l-0.3,0.6h0.2c-0.5,0.8-1.1,1.6-1.4,2.3
		c-0.5,1.3-1.7,2.2-2,3.5l-0.3,0.6l-0.5,0.3l-0.3,0.6v-0.6c-1.1,0.8-1.3,1.6-1.7,2.8h0.3l0.2-0.2v0.2h-0.2c-0.5,0.8-1.3,1.7-1.4,2.5
		l-0.2-0.6l-1.1,0.8l1.4-2.7l-5,5.8c2.8-5.8,8-11,11.3-16.7l-0.8,0.8c-0.8,0.8-1.4,2-2,2.8c-2.5,3.1-5,6.6-7.9,9.4
		c0,0.2,0,0.2-0.2,0.2v-0.2h0.2c1.4-3.3,4.2-5.8,6.3-8.8h-0.3c-1.6,1.7-3.1,3.9-5.2,5.2c0-5,6.9-24.5,9-30.2c0.3-1,0.8-2.1,0.8-3.1
		c0-0.8-0.6-1.3-1.4-1.4c-1.7,3.3-3,6.9-4.6,10.4c0,0.3-0.3,0.5-0.5,0.6c0,0.2,0,0.2-0.2,0.2l0.2-0.2c1.4-3.8,2.8-7.5,4.1-11.5
		l-0.8-0.3v0.2l-0.6,0.3l0.2-1.1c-0.2-0.2-0.5-0.5-0.8-0.5c-0.5,0-0.8,0.3-0.9,0.6l-0.5,0.3l-0.2,0.8l-0.5,0.2
		c0.6-0.6,0.3-0.5,0.6-1.1l0.5-0.2l-0.2-1.6c-3.6,1.4-4.1,4.7-6.9,7.2l-15.1,13.5l-2.5,1.9l-0.3-0.3c4.6-10.2,10.2-23,21.5-26.9
		l4.6,1.3c0.2-0.3,0.3-0.6,0.3-0.9c0-0.5-0.3-1-0.6-1.3c-2.8-2.7-6.1-4.9-10.1-4.9c-3.9,0-7.9,2.2-11,4.4
		c-7.6,5.4-17.5,22.2-17.5,31.5c0,4.4,5.8,8,9.8,8c5.5,0,10.1-6.6,13.4-10.1l5.4-5.5c-1.7,8.3-3.6,16.7-3.6,25.2c0,4.4,2.5,4.7,6,6
		c6.9-5.5,14.6-19.5,18.1-27.7C343.6,146.9,342.9,147.7,342.5,148.7 M254.4,153.4c0,0.2,0,0.2-0.2,0.2L254.4,153.4z M255.7,151.5
		l0.2-0.2v0.2H255.7z M282.1,128.5h0.2l-0.2,0.2V128.5z M283.2,126H283c0-0.2,0.2-0.2,0.2-0.3V126z M259.3,149.4l-0.2,0.2v-0.3
		L259.3,149.4z M264.5,140.8c0,0.2,0,0.3-0.2,0.5v-0.3L264.5,140.8z M249.5,161.9c0-0.3,0.2-0.5,0.3-0.6L249.5,161.9z M291.8,113.9
		v-0.6l0.2,0.2L291.8,113.9z M276.9,166.3h0.2v0.5h-0.2V166.3z M261.6,143.9l0.5-0.9l-0.2,0.6L261.6,143.9z M261.3,142.2
		c0,0,0.3,0.2,0.5,0.2l-0.3,0.2c0,0.3,0,0.6-0.2,0.9c0-0.3,0-0.6-0.2-0.9v-0.3H261.3z M260.1,144.3c0,0,0.3,0.2,0.5,0.2
		c-0.2,0.2-0.3,0.2-0.5,0.2v1c0-0.2-0.3-1-0.3-1v-0.3H260.1z M259.4,145.3c0.2,0,0.5,0,0.6,0.2h-0.6c0,0.2,0,0.5-0.2,0.6
		c-0.2-0.2-0.2-0.3-0.2-0.5v-0.5L259.4,145.3z M283.8,124.9l-0.5-0.2l0.5-1.1V124.9z M260.8,143.3c0.2,0,0.3,0,0.5,0.2
		c-0.5,0-0.6,0.3-0.6,0.8c-0.2-0.2-0.2-0.5-0.2-0.6v-0.5L260.8,143.3z M253.5,156.4c0.2-0.6,0.8-1.4,1.3-1.9
		c-0.2,0.3-0.5,0.6-0.6,1.1L253.5,156.4z M258.7,146.8l-0.2,0.5h-0.8c0.2-0.2,0.3-0.5,0.3-0.6h0.5L258.7,146.8z M264.5,139.7
		c0,0.3-0.2,1-0.3,1.1v0.2c-0.3,0.2-0.6,0.3-1,0.6L264.5,139.7z M254.7,149c-0.8,1.1-1.4,2.2-2.3,3.3
		C253,151.2,253.8,149.9,254.7,149 M260.8,144.9c-0.5,1.3-1.3,2.3-2,3.3C259.3,146.9,260.2,146,260.8,144.9 M256.1,152.3
		c0.6-1.4,1.6-2.7,2.7-3.9C258,149.8,257.1,151,256.1,152.3 M290.9,116c-0.6,1.7-1.6,3.4-2.4,5.2C289.2,119.2,289.8,117.5,290.9,116
		 M278.1,161.2c-0.2,1.4-0.3,2.7-0.6,4.1l-0.5-0.2L278.1,161.2z M279.6,121.5c-0.6,0-1,0.3-1.4,0.6l6.1-6.8l-1.7,2.3
		c0,1-1,1.3-1.3,2.1C280.5,120.2,280.2,120.8,279.6,121.5 M283.8,123.6c1.6-3.6,3.1-7.2,5.2-10.5v0.8c-1.6,3.1-3.3,6.3-4.7,9.4
		L283.8,123.6z M255.5,147.9c1.9-3.9,4.7-7.4,7.2-11c6.8-9.6,14.5-18.4,22.5-26.9l0.3,0.3l-0.5,0.6c-8,9.9-17.1,18.9-24.2,29.4
		c-1.1,1.6-1.9,3.3-3.1,4.7c-0.6,0.8-1.3,1.1-1.6,2L255.5,147.9z M269.7,133.9c-0.3,0.2-0.5,0.5-0.6,0.8l-0.5,0.3
		c-0.3,1-1,1.7-1.6,2.5h-0.3l-1.1,0.6c0.3-0.5,0.5-1,0.6-1.6c-1.7,2-2.8,3.5-4.2,5.7l-0.2-0.6v-0.5c6.3-9.1,13.2-17.8,21.1-25.6
		c-1.7,2.2-9.4,10.5-10.2,12.4c2.1-1.4,3.5-3.5,5.2-5.4v0.6l0.3,0.2c-0.9,0.5-4.7,5-5,6c-0.5,0.3-1.9,2.2-2,2.7l-0.8,0.8H270
		l-0.6,0.9L269.7,133.9z M295.1,113.1c-3,8.5-6.6,16.7-9.6,25.2c-2.5,7.1-4.1,14.6-6.7,21.7c-0.2,0.3-0.3,0.6-0.6,1
		c3.6-14.5,9.9-34.8,16.5-48L295.1,113.1z M244.7,169.1c1.1,0,1.6-0.2,2.5-1c4.1-3.6,12.1-17.1,15.4-22.5c5.2-8.3,11-17,17.9-24.1
		c0.5-0.5,1-0.6,1.4-1c-1.7,4.6-3.8,9-5.2,13.7c-3,9.6-7.9,23.1-7.9,33c0,7.4,1.7,14.9,10.7,14.9c0.9,0,1.6-0.6,1.6-1.6
		c-1.4-0.8-1.9-2.2-1.9-3.8c0-10.5,11.3-42.5,15.6-53.5c0.8-2.2,3.3-8.6,3.3-10.7c0-3.6-5.8-6.8-8.8-7.2c-1.7,0.5-2.8,1.7-4.1,3
		c-3.9,4.2-7.7,8.6-11.5,13c-9.8,11.3-18.1,23.6-26.9,35.7l-0.3-0.2c3.1-9.1,9.3-28.5,9.3-37.6c0-4.4-2.7-8.5-6.4-10.4
		c-0.3-0.2-1.9-1-2.2-1c-0.6,0-1.3,0-1.6,0.8c0.2,0.8,0.5,1.6,0.5,2.4c0,4.2-1.4,9-2.7,12.9c-2.5,8.6-8,27.4-8,35.9
		C235.4,164.9,240.1,169.1,244.7,169.1"/>
	<path class="st0" d="M466.5,60.9v-8c0-2.3,0.7-4.2,2.1-5.6c1.4-1.4,3.2-2.1,5.5-2.1c2.2,0,4,0.7,5.5,2.1c1.4,1.4,2.1,3.3,2.1,5.6v8
		H466.5z M474,86.1c3.8,0,6.8-1.2,9.3-3.6c2.4-2.4,3.6-5.5,3.6-9.2v-2.1h-5.3v2.1c0,2.3-0.7,4.2-2.1,5.6c-1.4,1.4-3.2,2.1-5.5,2.1
		c-2.2,0-4-0.7-5.5-2.1c-1.4-1.4-2.1-3.3-2.1-5.6v-8h20.5V52.9c0-3.7-1.2-6.8-3.6-9.2c-2.4-2.4-5.5-3.6-9.3-3.6
		c-3.7,0-6.8,1.2-9.2,3.6c-2.4,2.4-3.6,5.5-3.6,9.2v20.5c0,3.7,1.2,6.8,3.6,9.2C467.3,84.9,470.3,86.1,474,86.1 M430.4,85.4h24.4v-5
		h-18.6l18.6-34.5v-5h-24.4v5h18.7l-18.7,34.5V85.4z M420.1,36.1c1,0,1.8-0.3,2.4-1c0.6-0.7,1-1.5,1-2.5c0-1-0.3-1.8-1-2.5
		c-0.6-0.7-1.5-1-2.4-1c-1,0-1.8,0.3-2.5,1c-0.7,0.7-1,1.5-1,2.5c0,1,0.3,1.8,1,2.5C418.3,35.7,419.2,36.1,420.1,36.1 M417.5,85.4
		h5.3V40.9h-5.3V85.4z M393.6,85.4h5.5l12.2-44.5h-5.2l-9.6,36l-9.6-36h-5.6L393.6,85.4z M331.7,60.9v-8c0-2.3,0.7-4.2,2.1-5.6
		c1.4-1.4,3.2-2.1,5.4-2.1c2.2,0,4,0.7,5.5,2.1c1.4,1.4,2.1,3.3,2.1,5.6v8H331.7z M339.3,86.1c3.8,0,6.8-1.2,9.3-3.6
		c2.4-2.4,3.6-5.5,3.6-9.2v-2.1h-5.3v2.1c0,2.3-0.7,4.2-2.1,5.6c-1.4,1.4-3.2,2.1-5.5,2.1c-2.2,0-4-0.7-5.4-2.1
		c-1.4-1.4-2.1-3.3-2.1-5.6v-8h20.5V52.9c0-3.7-1.2-6.8-3.6-9.2c-2.4-2.4-5.5-3.6-9.3-3.6c-3.7,0-6.8,1.2-9.2,3.6
		c-2.4,2.4-3.6,5.5-3.6,9.2v20.5c0,3.7,1.2,6.8,3.6,9.2C332.5,84.9,335.6,86.1,339.3,86.1 M311.8,85.4h5.3V26.1h-5.3V85.4z
		 M282,60.9v-8c0-2.3,0.7-4.2,2.1-5.6c1.4-1.4,3.2-2.1,5.5-2.1c2.2,0,4,0.7,5.4,2.1c1.4,1.4,2.1,3.3,2.1,5.6v8H282z M289.5,86.1
		c3.8,0,6.8-1.2,9.3-3.6c2.4-2.4,3.6-5.5,3.6-9.2v-2.1h-5.3v2.1c0,2.3-0.7,4.2-2.1,5.6c-1.4,1.4-3.2,2.1-5.4,2.1
		c-2.2,0-4-0.7-5.5-2.1c-1.4-1.4-2.1-3.3-2.1-5.6v-8h20.5V52.9c0-3.7-1.2-6.8-3.6-9.2c-2.4-2.4-5.5-3.6-9.3-3.6
		c-3.7,0-6.8,1.2-9.2,3.6c-2.4,2.4-3.6,5.5-3.6,9.2v20.5c0,3.7,1.2,6.8,3.6,9.2C282.7,84.9,285.8,86.1,289.5,86.1 M270.4,85.4v-5
		h-4.2c-2.2,0-4-0.7-5.4-2.2c-1.4-1.4-2.1-3.3-2.1-5.6V45.9h11.8v-5h-11.8v-7.4h-5.3v39.1c0,3.7,1.2,6.7,3.6,9.1
		c2.4,2.4,5.5,3.6,9.2,3.6H270.4z"/>
</g>
</svg>
