<?xml version="1.0" standalone="yes"?>
<svg xmlns="http://www.w3.org/2000/svg" width="1024" height="1024">
<path style="fill:#ffffff; stroke:none;" d="M0 0L0 1024L1024 1024L1024 0L0 0z"/>
<path style="fill:#c0cfa6; stroke:none;" d="M299 382L299 383L305 383L299 382M293 383L293 384L296 384L293 383z"/>
<path style="fill:#84c442; stroke:none;" d="M220 590C215.858 582.128 211.8 574.473 209.001 566C207.261 560.734 206.803 553.857 204.012 549.089C197.997 538.817 189.224 533.406 185.746 521C184.043 514.924 182.098 506.29 183.229 500.004C183.798 496.844 186.908 492.283 190.567 494.851C194.264 497.446 192.799 504.173 193.17 508C194.078 517.388 196.81 526.124 202 534L203 534C203.123 519.156 206.196 503.555 212.312 490C213.722 486.874 219.71 474.056 224.073 481.167C226.84 485.679 220.671 493.732 219.065 498C214.187 510.96 213 524.286 213 538L214 538C220.047 529.138 226.777 521.564 236 515.88C238.745 514.189 246.918 511.575 246.079 517.976C245.357 523.482 232.007 529.709 228.301 534.004C213.197 551.506 218.335 568.899 229 587C280.954 565.255 261.958 495.146 270.095 452C275.144 425.227 290.094 405.53 304 383C289.071 383.041 273.737 388.522 260 394C216.789 411.232 180.263 443.78 164.053 488C151.045 523.487 156.846 572.109 197 587.533C204.405 590.378 212.221 590 220 590z"/>
<path style="fill:#c0cfa6; stroke:none;" d="M288 384L288 385L291 385L288 384M303 384L304 385L303 384M284 385L284 386L287 386L284 385M302 385L303 386L302 385M280 386L280 387L283 387L280 386M301 386L302 387L301 386M277.667 387.333L278.333 387.667L277.667 387.333M274.667 388.333L275.333 388.667L274.667 388.333M300 388L301 389L300 388M271.667 389.333L272.333 389.667L271.667 389.333M299 389L300 390L299 389M268.667 390.333L269.333 390.667L268.667 390.333M265.667 391.333L266.333 391.667L265.667 391.333M298 391L299 392L298 391M262.667 392.333L263.333 392.667L262.667 392.333M297 392L298 393L297 392M260.667 393.333L261.333 393.667L260.667 393.333M296 393L297 394L296 393M258 394L259 395L258 394M255.667 395.333L256.333 395.667L255.667 395.333M295 395L296 396L295 395M253 396L254 397L253 396M294 396L295 397L294 396M250.667 397.333L251.333 397.667L250.667 397.333M293.333 397.667L293.667 398.333L293.333 397.667M249 398L250 399L249 398M247 399L248 400L247 399M292 399L293 400L292 399M245 400L246 401L245 400M242.667 401.333L243.333 401.667L242.667 401.333M291 401L292 402L291 401M240.667 402.333L241.333 402.667L240.667 402.333M290 402L291 403L290 402M239 403L240 404L239 403M237 404L238 405L237 404M289 404L290 405L289 404M235 405L236 406L235 405M288.333 405.667L288.667 406.333L288.333 405.667M234 406L235 407L234 406M232 407L233 408L232 407M287 407L288 408L287 407M230 408L231 409L230 408M228.667 409.333L229.333 409.667L228.667 409.333M286 409L287 410L286 409M227 410L228 411L227 410M285.333 410.667L285.667 411.333L285.333 410.667M225.667 411.333L226.333 411.667L225.667 411.333M224 412L225 413L224 412M284.333 412.667L284.667 413.333L284.333 412.667M223 413L224 414L223 413M221 414L222 415L221 414M283.333 414.667L283.667 415.333L283.333 414.667M220 415L221 416L220 415M218 416L219 417L218 416M282 416L283 417L282 416M217 417L218 418L217 417M216 418L217 419L216 418M281 418L282 419L281 418M214 419L215 420L214 419M213 420L214 421L213 420M280 420L281 421L280 420M212 421L213 422L212 421M211 422L212 423L211 422M279.333 422.667L279.667 423.333L279.333 422.667M209 423L210 424L209 423M208 424L209 425L208 424M207 425L208 426L207 425M278 425L279 426L278 425M206 426L207 427L206 426M205 427L206 428L205 427M277.333 427.667L277.667 428.333L277.333 427.667M204 428L205 429L204 428M203 429L204 430L203 429M202 430L203 431L202 430M276 430L277 431L276 430M275.333 432.667L275.667 433.333L275.333 432.667M274.333 435.667L274.667 436.333L274.333 435.667M195 436L196 437L195 436M194 437L195 438L194 437M273.333 438.667L273.667 439.333L273.333 438.667M193 439L194 440L193 439M192 440L193 441L192 440M191 441L192 442L191 441M190 442L191 443L190 442M272.333 442.667L272.667 443.333L272.333 442.667M189 443L190 444L189 443M187 446L188 447L187 446M271 446L272 447L271 446M186 447L187 448L186 447M185 448L186 449L185 448M310 448L310 449L323 449L310 448M352 448L352 449L366 449L352 448M403 448L403 449L420 449L403 448M446 448L446 449L502 449L484 448L446 448M515 448L515 449L530 449L515 448M558 448L558 449L573 449L558 448M591 448L591 449L621 449L591 448M662 448L662 449L711 449C698.348 443.691 675.788 448 662 448M184 449L185 450L184 449M270 449L270 452L271 452L270 449M308 449L309 450L308 449z"/>
<path style="fill:#69441a; stroke:none;" d="M326 482L327 482C331.661 491.852 342.392 513.695 352.093 518.972C356.118 521.161 362.55 520 367 520L367 471C367 465.604 368.809 456.221 366.397 451.318C364.582 447.63 352.418 447.63 350.603 451.318C346.272 460.12 350 479.166 350 489C343.458 480.489 338.038 471.074 332.319 462C329.958 458.254 327.592 452.379 323.674 450.028C320.657 448.216 310.426 447.614 308.603 451.318C306.623 455.343 308 462.596 308 467L308 503C308 507.155 306.732 513.878 308.603 517.682C310.343 521.218 322.488 521.342 324.821 518.397C327.735 514.717 326 505.452 326 501L326 482z"/>
<path style="fill:#c0cfa6; stroke:none;" d="M324 449L325 450L324 449M350 449L351 450L350 449z"/>
<path style="fill:#8f7a69; stroke:none;" d="M366 449L367 450L366 449M401 449L400 451L401 449z"/>
<path style="fill:#69441a; stroke:none;" d="M376 519C380.304 520.272 389.675 521.717 393.351 518.397C398.463 513.778 396.399 508.166 405 508.005C410.284 507.905 418.89 506.433 423.775 508.603C428.036 510.496 427.104 516.435 430.649 518.972C434.328 521.605 442.644 520 447 520C446.247 503.558 435.592 484.45 429.947 469C428.068 463.858 426.377 454.521 422.298 450.742C418.989 447.676 405.979 447.766 402.225 450.028C397.498 452.875 395.719 463.061 394 468C388.139 484.836 380.02 501.622 376 519z"/>
<path style="fill:#8f7a69; stroke:none;" d="M421 449L422 450L421 449z"/>
<path style="fill:#c0cfa6; stroke:none;" d="M422 449L423 450L422 449z"/>
<path style="fill:#8f7a69; stroke:none;" d="M444 449L445 450L444 449z"/>
<path style="fill:#69441a; stroke:none;" d="M465 465L465 520L483 520L483 465C487.75 465 498.546 467.022 502.397 463.972C505.24 461.72 505.097 451.284 501.682 449.603C492.462 445.067 472.301 449 462 449C452.911 449 443.809 446.384 444.005 457.999C444.038 459.979 443.866 462.596 445.603 463.972C449.454 467.022 460.25 465 465 465z"/>
<path style="fill:#8f7a69; stroke:none;" d="M503 449L504 450L503 449z"/>
<path style="fill:#c0cfa6; stroke:none;" d="M513 449L514 450L513 449z"/>
<path style="fill:#69441a; stroke:none;" d="M514 449C511.18 464.191 508.93 494.087 516.558 508C525.982 525.19 557.818 525.803 569.606 510.985C578.572 499.713 575 478.448 575 465C575 460.325 576.885 450.95 570.941 449.318C567.887 448.479 559.216 447.84 557.028 450.603C554.825 453.385 556 459.672 556 463C556 473.406 557.238 484.69 555.811 495C554.604 503.714 544.492 509.408 537.055 503.566C527.78 496.281 532 474.569 532 464C532 460.524 533.478 452.468 530.397 450.028C526.988 447.328 518.167 449 514 449z"/>
<path style="fill:#c0cfa6; stroke:none;" d="M531 449L532 450L531 449M556 449L557 450L556 449z"/>
<path style="fill:#8f7a69; stroke:none;" d="M573 449L575 451L573 449z"/>
<path style="fill:#c0cfa6; stroke:none;" d="M574 449L575 450L574 449z"/>
<path style="fill:#8f7a69; stroke:none;" d="M589 449L590 450L589 449z"/>
<path style="fill:#69441a; stroke:none;" d="M589 520L607 520L607 495C624.557 495.002 619.402 509.546 630.39 518.397C634.599 521.787 643.878 520 649 520L635 492C649.599 484.708 652.356 462.955 637.961 453.562C629.105 447.784 617.048 449 607 449C602.875 449 594 447.338 590.603 450.028C587.061 452.833 589 463.913 589 468L589 520z"/>
<path style="fill:#8f7a69; stroke:none;" d="M625.667 449.333L626.333 449.667L625.667 449.333z"/>
<path style="fill:#c0cfa6; stroke:none;" d="M627.667 449.333L628.333 449.667L627.667 449.333M660 449L661 450L660 449z"/>
<path style="fill:#69441a; stroke:none;" d="M678 506L678 491C686.956 491 699.271 493.23 707.852 490.682C711.721 489.534 712.423 481.424 709.397 479.028C703.859 474.642 685.009 478 678 478L678 464C687.002 464 721.314 469.44 712.397 451.318C710.661 447.791 704.188 449 701 449L673 449C669.879 449 664.221 447.954 661.603 450.028C658.401 452.564 660 461.368 660 465L660 504C660 507.731 658.577 515.302 661.028 518.397C664.163 522.355 678.33 520 683 520C688.479 520 710.752 523.057 713.397 517.682C721.78 500.645 686.435 506 678 506z"/>
<path style="fill:#c0cfa6; stroke:none;" d="M712 449L713 450L712 449M721 449L722 450L721 449z"/>
<path style="fill:#84c442; stroke:none;" d="M742 465L742 520L759.397 518.972L761 505L761 465L781 465C781.75 460.959 783.554 453.971 780.258 450.603C777.439 447.724 770.651 449 767 449L735 449C731.672 449 725.385 447.825 722.603 450.028C719.76 452.28 719.903 462.716 723.318 464.397C728.017 466.709 736.818 465 742 465z"/>
<path style="fill:#c0cfa6; stroke:none;" d="M780 449L781 450L780 449z"/>
<path style="fill:#84c442; stroke:none;" d="M787 449C787.756 465.55 796.784 483.152 801.424 499C802.997 504.371 804.551 514.466 808.702 518.397C811.898 521.423 826.087 521.25 829.722 518.972C834.421 516.028 836.102 505.032 837.576 500C842.461 483.316 849.114 466.951 853 450C848.581 448.694 839.264 447.326 835.43 450.603C831.952 453.575 831.072 460.785 829.859 465C826.695 475.989 822.576 486.867 820 498L809.141 464L803.57 450.028L787 449z"/>
<path style="fill:#c0cfa6; stroke:none;" d="M835 449L836 450L835 449M852 449L853 450L852 449M325 450L326 451L325 450M349 450L349 488L350 488C350 477.089 353.211 460.036 349 450M367 450L368 451L367 450M423 450L424 451L423 450M443 450L443 464L444 464L443 450M504 450L504 464L505 464L504 450z"/>
<path style="fill:#8f7a69; stroke:none;" d="M513.333 450.667L513.667 451.333L513.333 450.667z"/>
<path style="fill:#c0cfa6; stroke:none;" d="M588 450L589 451L588 450z"/>
<path style="fill:#8f7a69; stroke:none;" d="M630.667 450.333L631.333 450.667L630.667 450.333z"/>
<path style="fill:#c0cfa6; stroke:none;" d="M632 450L633 451L632 450M713 450L713 463L714 463L713 450M781.333 450.667L781.667 451.333L781.333 450.667M786 450L786 453L787 453L786 450M834 450L835 451L834 450M183 451L184 452L183 451M307 451L307 519L308 519L308 472L307 451z"/>
<path style="fill:#8f7a69; stroke:none;" d="M325 451L326 452L325 451M367 451L367 519L368 519L368 472L367 451z"/>
<path style="fill:#c0cfa6; stroke:none;" d="M399 451L400 452L399 451z"/>
<path style="fill:#8f7a69; stroke:none;" d="M423 451L424 452L423 451z"/>
<path style="fill:#c0cfa6; stroke:none;" d="M532 451L532 497L533 497C533 483.997 537.01 462.939 532 451z"/>
<path style="fill:#8f7a69; stroke:none;" d="M588 451L588 518L589 518L589 472L588 451z"/>
<path style="fill:#c0cfa6; stroke:none;" d="M634 451L635 452L634 451M659 451L659 518L660 518L660 472L659 451M805 451L806 452L805 451M182 452L183 453L182 452M326 452L327 453L326 452z"/>
<path style="fill:#8f7a69; stroke:none;" d="M399 452L400 453L399 452M636 452L637 453L636 452z"/>
<path style="fill:#c0cfa6; stroke:none;" d="M833 452L834 453L833 452M852.333 452.667L852.667 453.333L852.333 452.667M424 453L425 454L424 453M638 453L639 454L638 453M181 454L182 455L181 454z"/>
<path style="fill:#8f7a69; stroke:none;" d="M327 454L328 455L327 454z"/>
<path style="fill:#c0cfa6; stroke:none;" d="M398 454L399 455L398 454z"/>
<path style="fill:#8f7a69; stroke:none;" d="M424 454L425 455L424 454M639 454L640 455L639 454z"/>
<path style="fill:#c0cfa6; stroke:none;" d="M787.333 454.667L787.667 455.333L787.333 454.667M806.333 454.667L806.667 455.333L806.333 454.667M180 455L181 456L180 455M269 455L269 458L270 458L269 455M328 455L329 456L328 455z"/>
<path style="fill:#8f7a69; stroke:none;" d="M398 455L399 456L398 455z"/>
<path style="fill:#c0cfa6; stroke:none;" d="M425.333 455.667L425.667 456.333L425.333 455.667z"/>
<path style="fill:#8f7a69; stroke:none;" d="M640 455L641 456L640 455z"/>
<path style="fill:#c0cfa6; stroke:none;" d="M832.333 455.667L832.667 456.333L832.333 455.667M851.333 455.667L851.667 456.333L851.333 455.667M642 456L643 457L642 456M179 457L180 458L179 457z"/>
<path style="fill:#8f7a69; stroke:none;" d="M329 457L330 458L329 457z"/>
<path style="fill:#c0cfa6; stroke:none;" d="M397 457L398 458L397 457z"/>
<path style="fill:#8f7a69; stroke:none;" d="M425 457L426 458L425 457M642 457L643 458L642 457z"/>
<path style="fill:#c0cfa6; stroke:none;" d="M788.333 457.667L788.667 458.333L788.333 457.667M807.333 457.667L807.667 458.333L807.333 457.667M178 458L179 459L178 458M330 458L331 459L330 458z"/>
<path style="fill:#8f7a69; stroke:none;" d="M397 458L398 459L397 458z"/>
<path style="fill:#c0cfa6; stroke:none;" d="M426 458L427 459L426 458z"/>
<path style="fill:#8f7a69; stroke:none;" d="M643 458L644 459L643 458z"/>
<path style="fill:#c0cfa6; stroke:none;" d="M831.333 458.667L831.667 459.333L831.333 458.667z"/>
<path style="fill:#8f7a69; stroke:none;" d="M330 459L331 460L330 459M426 459L427 460L426 459z"/>
<path style="fill:#c0cfa6; stroke:none;" d="M644 459L645 460L644 459M850 459L851 460L850 459M177 460L178 461L177 460M331 460L332 461L331 460M396 460L397 461L396 460M645 460L646 461L645 460M789.333 460.667L789.667 461.333L789.333 460.667M808.333 460.667L808.667 461.333L808.333 460.667M176 461L177 462L176 461M332 461L333 462L332 461z"/>
<path style="fill:#8f7a69; stroke:none;" d="M396 461L397 462L396 461z"/>
<path style="fill:#c0cfa6; stroke:none;" d="M427 461L428 462L427 461z"/>
<path style="fill:#8f7a69; stroke:none;" d="M645 461L646 462L645 461z"/>
<path style="fill:#c0cfa6; stroke:none;" d="M268 462L268 466L269 466L268 462z"/>
<path style="fill:#8f7a69; stroke:none;" d="M332 462L333 463L332 462z"/>
<path style="fill:#c0cfa6; stroke:none;" d="M395 462L396 463L395 462z"/>
<path style="fill:#8f7a69; stroke:none;" d="M427 462L428 463L427 462z"/>
<path style="fill:#c0cfa6; stroke:none;" d="M646.333 462.667L646.667 463.333L646.333 462.667M781.333 462.667L781.667 463.333L781.333 462.667M830 462L831 463L830 462M849 462L850 463L849 462M175 463L176 464L175 463M333 463L334 464L333 463z"/>
<path style="fill:#8f7a69; stroke:none;" d="M395 463L396 464L395 463M607 463L607 481L608 481L607 463z"/>
<path style="fill:#c0cfa6; stroke:none;" d="M608 463L608 464L621 464L608 463z"/>
<path style="fill:#8f7a69; stroke:none;" d="M621 463L622 464L621 463z"/>
<path style="fill:#c0cfa6; stroke:none;" d="M712 463L713 464L712 463M428 464L429 465L428 464z"/>
<path style="fill:#8f7a69; stroke:none;" d="M444 464L445 465L444 464M503 464L504 465L503 464z"/>
<path style="fill:#ffffff; stroke:none;" d="M608 464L608 480C612.586 480 618.639 481.017 622.956 479.258C628.771 476.888 629.347 468.333 623.867 465.179C619.642 462.748 612.711 464 608 464z"/>
<path style="fill:#c0cfa6; stroke:none;" d="M623 464L624 465L623 464z"/>
<path style="fill:#8f7a69; stroke:none;" d="M624 464L625 465L624 464z"/>
<path style="fill:#c0cfa6; stroke:none;" d="M678 464L678 477L679 477L678 464M721 464L722 465L721 464M790 464L791 465L790 464M809.333 464.667L809.667 465.333L809.333 464.667M174 465L175 466L174 465z"/>
<path style="fill:#8f7a69; stroke:none;" d="M334 465L335 466L334 465z"/>
<path style="fill:#c0cfa6; stroke:none;" d="M394 465L395 466L394 465z"/>
<path style="fill:#8f7a69; stroke:none;" d="M428 465L429 466L428 465z"/>
<path style="fill:#c0cfa6; stroke:none;" d="M445 465L445 466L464 466L445 465z"/>
<path style="fill:#8f7a69; stroke:none;" d="M464 465L464 519L465 519L465 483L464 465M483 465L483 519L484 519L484 483L483 465z"/>
<path style="fill:#c0cfa6; stroke:none;" d="M484 465L484 466L503 466L484 465M625 465L626 466L625 465M647.333 465.667L647.667 466.333L647.333 465.667M723 465L723 466L741 466L741 519L742 519L742 465L723 465M761 465L761 466L780 466L761 465M829.333 465.667L829.667 466.333L829.333 465.667M848 465L849 466L848 465M173.333 466.667L173.667 467.333L173.333 466.667M335 466L336 467L335 466z"/>
<path style="fill:#8f7a69; stroke:none;" d="M394 466L395 467L394 466z"/>
<path style="fill:#c0cfa6; stroke:none;" d="M429.333 466.667L429.667 467.333L429.333 466.667z"/>
<path style="fill:#8f7a69; stroke:none;" d="M626 466L627 467L626 466M335 467L336 468L335 467z"/>
<path style="fill:#c0cfa6; stroke:none;" d="M411 467L412 468L411 467z"/>
<path style="fill:#8f7a69; stroke:none;" d="M627 467L628 468L627 467M647 467L647 472L648 472L647 467z"/>
<path style="fill:#c0cfa6; stroke:none;" d="M791 467L792 468L791 467M810.333 467.667L810.667 468.333L810.333 467.667M172 468L173 469L172 468z"/>
<path style="fill:#8f7a69; stroke:none;" d="M336 468L337 469L336 468z"/>
<path style="fill:#c0cfa6; stroke:none;" d="M393 468L394 469L393 468z"/>
<path style="fill:#ffffff; stroke:none;" d="M411 468L403 493L420 493L411 468z"/>
<path style="fill:#8f7a69; stroke:none;" d="M412 468L413 469L412 468z"/>
<path style="fill:#c0cfa6; stroke:none;" d="M627.333 468.667L627.667 469.333L627.333 468.667M828.333 468.667L828.667 469.333L828.333 468.667M847.333 468.667L847.667 469.333L847.333 468.667M337 469L338 470L337 469z"/>
<path style="fill:#8f7a69; stroke:none;" d="M393 469L394 470L393 469M410 469L411 470L410 469z"/>
<path style="fill:#c0cfa6; stroke:none;" d="M412 469L413 470L412 469M430 469L431 470L430 469M171 470L172 471L171 470z"/>
<path style="fill:#8f7a69; stroke:none;" d="M337 470L338 471L337 470z"/>
<path style="fill:#c0cfa6; stroke:none;" d="M392.333 470.667L392.667 471.333L392.333 470.667M410 470L411 471L410 470z"/>
<path style="fill:#8f7a69; stroke:none;" d="M413 470L414 471L413 470M430 470L431 471L430 470z"/>
<path style="fill:#c0cfa6; stroke:none;" d="M792.333 470.667L792.667 471.333L792.333 470.667M811.333 470.667L811.667 471.333L811.333 470.667M267 471L267 479L268 479L267 471M338 471L339 472L338 471M413.333 471.667L413.667 472.333L413.333 471.667z"/>
<path style="fill:#8f7a69; stroke:none;" d="M628.333 471.667L628.667 472.333L628.333 471.667z"/>
<path style="fill:#c0cfa6; stroke:none;" d="M846.333 471.667L846.667 472.333L846.333 471.667M170 472L171 473L170 472M339 472L340 473L339 472z"/>
<path style="fill:#8f7a69; stroke:none;" d="M392 472L393 473L392 472M409 472L410 473L409 472z"/>
<path style="fill:#c0cfa6; stroke:none;" d="M431 472L432 473L431 472M827 472L828 473L827 472z"/>
<path style="fill:#8f7a69; stroke:none;" d="M339 473L340 474L339 473z"/>
<path style="fill:#c0cfa6; stroke:none;" d="M391 473L392 474L391 473M409 473L410 474L409 473z"/>
<path style="fill:#8f7a69; stroke:none;" d="M414 473L415 474L414 473M431 473L432 474L431 473M647 473L647 477L648 477L647 473z"/>
<path style="fill:#c0cfa6; stroke:none;" d="M793.333 473.667L793.667 474.333L793.333 473.667M169 474L170 475L169 474M340 474L341 475L340 474z"/>
<path style="fill:#8f7a69; stroke:none;" d="M391 474L392 475L391 474z"/>
<path style="fill:#c0cfa6; stroke:none;" d="M414 474L415 475L414 474M812.333 474.667L812.667 475.333L812.333 474.667M845.333 474.667L845.667 475.333L845.333 474.667z"/>
<path style="fill:#8f7a69; stroke:none;" d="M408 475L409 476L408 475z"/>
<path style="fill:#c0cfa6; stroke:none;" d="M432 475L433 476L432 475M627 475L628 476L627 475M826.333 475.667L826.667 476.333L826.333 475.667M168 476L169 477L168 476z"/>
<path style="fill:#8f7a69; stroke:none;" d="M341 476L342 477L341 476z"/>
<path style="fill:#c0cfa6; stroke:none;" d="M390 476L391 477L390 476M408 476L409 477L408 476z"/>
<path style="fill:#8f7a69; stroke:none;" d="M415 476L416 477L415 476M432 476L433 477L432 476M627 476L628 477L627 476z"/>
<path style="fill:#c0cfa6; stroke:none;" d="M794.333 476.667L794.667 477.333L794.333 476.667M342 477L343 478L342 477z"/>
<path style="fill:#8f7a69; stroke:none;" d="M390 477L391 478L390 477z"/>
<path style="fill:#c0cfa6; stroke:none;" d="M415 477L416 478L415 477M433.333 477.667L433.667 478.333L433.333 477.667M626 477L627 478L626 477M647.333 477.667L647.667 478.333L647.333 477.667z"/>
<path style="fill:#8f7a69; stroke:none;" d="M678 477L678 478L710 478L678 477z"/>
<path style="fill:#c0cfa6; stroke:none;" d="M813.333 477.667L813.667 478.333L813.333 477.667M844.333 477.667L844.667 478.333L844.333 477.667M167.333 478.667L167.667 479.333L167.333 478.667z"/>
<path style="fill:#8f7a69; stroke:none;" d="M219 478L219 479L223 479L219 478M342 478L343 479L342 478M407 478L408 479L407 478z"/>
<path style="fill:#c0cfa6; stroke:none;" d="M625 478L626 479L625 478z"/>
<path style="fill:#8f7a69; stroke:none;" d="M710 478L711 479L710 478z"/>
<path style="fill:#c0cfa6; stroke:none;" d="M825.333 478.667L825.667 479.333L825.333 478.667z"/>
<path style="fill:#69441a; stroke:none;" d="M204 535C197.113 528.688 193.733 518.185 193.09 509C192.818 505.133 194.624 496.371 189.776 494.662C184.008 492.629 184.006 500.608 184 504C183.983 514.374 185.852 524.882 191.043 534C194.559 540.174 201.443 543.967 204.57 550.089C210.287 561.282 211.693 574.538 217.782 586C232.119 612.988 259.988 633.632 290 639.388C310.531 643.326 332.596 641.471 352 633.548C356.458 631.728 370.223 627.271 369.534 621.094C368.599 612.708 350.668 624.531 347 625.935C319.962 636.285 290.43 634.663 265 620.688C243.477 608.861 208.397 574.774 220.338 547C224.254 537.891 231.026 530.756 239 525.039C241.645 523.142 247.267 520.333 246.11 516.225C244.599 510.862 237.717 514.618 235 516.349C226.145 521.988 218.524 529.436 214 539C210.306 526.503 214.368 510.88 218.695 499C220.376 494.387 226.667 486.362 224.381 481.318C220.483 472.715 212.982 488.409 211.873 491C205.806 505.167 204 519.76 204 535z"/>
<path style="fill:#c0cfa6; stroke:none;" d="M343 479L344 480L343 479M389 479L390 480L389 479M407 479L408 480L407 479z"/>
<path style="fill:#8f7a69; stroke:none;" d="M416 479L417 480L416 479M433 479L434 480L433 479z"/>
<path style="fill:#c0cfa6; stroke:none;" d="M623 479L624 480L623 479z"/>
<path style="fill:#8f7a69; stroke:none;" d="M624 479L625 480L624 479z"/>
<path style="fill:#c0cfa6; stroke:none;" d="M344 480L345 481L344 480z"/>
<path style="fill:#8f7a69; stroke:none;" d="M389 480L390 481L389 480M406 480L407 481L406 480z"/>
<path style="fill:#c0cfa6; stroke:none;" d="M416 480L417 481L416 480M434 480L435 481L434 480M608 480L608 481L620 481L608 480z"/>
<path style="fill:#8f7a69; stroke:none;" d="M620.667 480.333L621.333 480.667L620.667 480.333z"/>
<path style="fill:#c0cfa6; stroke:none;" d="M646.333 480.667L646.667 481.333L646.333 480.667M711 480L711 489L712 489L711 480M795 480L796 481L795 480M814.333 480.667L814.667 481.333L814.333 480.667M166 481L167 482L166 481z"/>
<path style="fill:#8f7a69; stroke:none;" d="M216 481L217 482L216 481M344 481L345 482L344 481z"/>
<path style="fill:#c0cfa6; stroke:none;" d="M388.333 481.667L388.667 482.333L388.333 481.667M406.333 481.667L406.667 482.333L406.333 481.667z"/>
<path style="fill:#8f7a69; stroke:none;" d="M434 481L435 482L434 481z"/>
<path style="fill:#c0cfa6; stroke:none;" d="M824.333 481.667L824.667 482.333L824.333 481.667M843 481L844 482L843 481z"/>
<path style="fill:#8f7a69; stroke:none;" d="M225.333 482.667L225.667 483.333L225.333 482.667M326 482L327 483L326 482z"/>
<path style="fill:#c0cfa6; stroke:none;" d="M345 482L346 483L345 482z"/>
<path style="fill:#8f7a69; stroke:none;" d="M417 482L418 483L417 482M645 482L646 483L645 482z"/>
<path style="fill:#c0cfa6; stroke:none;" d="M165.333 483.667L165.667 484.333L165.333 483.667z"/>
<path style="fill:#8f7a69; stroke:none;" d="M215 483L216 484L215 483M327 483L328 484L327 483M388 483L389 484L388 483M405 483L406 484L405 483z"/>
<path style="fill:#c0cfa6; stroke:none;" d="M417 483L418 484L417 483M435 483L436 484L435 483M645 483L646 484L645 483M796 483L797 484L796 483M327 484L328 485L327 484z"/>
<path style="fill:#8f7a69; stroke:none;" d="M346 484L347 485L346 484z"/>
<path style="fill:#c0cfa6; stroke:none;" d="M387 484L388 485L387 484M405 484L406 485L405 484z"/>
<path style="fill:#8f7a69; stroke:none;" d="M435 484L436 485L435 484M644 484L645 485L644 484z"/>
<path style="fill:#c0cfa6; stroke:none;" d="M815 484L816 485L815 484M842 484L843 485L842 484M164.333 485.667L164.667 486.333L164.333 485.667z"/>
<path style="fill:#8f7a69; stroke:none;" d="M214 485L215 486L214 485z"/>
<path style="fill:#c0cfa6; stroke:none;" d="M328 485L329 486L328 485M347 485L348 486L347 485z"/>
<path style="fill:#8f7a69; stroke:none;" d="M387 485L388 486L387 485M418 485L419 486L418 485M643 485L644 486L643 485z"/>
<path style="fill:#c0cfa6; stroke:none;" d="M823.333 485.667L823.667 486.333L823.333 485.667z"/>
<path style="fill:#8f7a69; stroke:none;" d="M224 486L225 487L224 486M329 486L330 487L329 486M404 486L405 487L404 486z"/>
<path style="fill:#c0cfa6; stroke:none;" d="M418 486L419 487L418 486M436 486L437 487L436 486M797 486L798 487L797 486z"/>
<path style="fill:#8f7a69; stroke:none;" d="M213 487L214 488L213 487z"/>
<path style="fill:#c0cfa6; stroke:none;" d="M329 487L330 488L329 487z"/>
<path style="fill:#8f7a69; stroke:none;" d="M348 487L349 488L348 487z"/>
<path style="fill:#c0cfa6; stroke:none;" d="M386 487L387 488L386 487M404 487L405 488L404 487z"/>
<path style="fill:#8f7a69; stroke:none;" d="M436 487L437 488L436 487z"/>
<path style="fill:#c0cfa6; stroke:none;" d="M642 487L643 488L642 487M816.333 487.667L816.667 488.333L816.333 487.667M841.333 487.667L841.667 488.333L841.333 487.667M163.333 488.667L163.667 489.333L163.333 488.667z"/>
<path style="fill:#8f7a69; stroke:none;" d="M223 488L224 489L223 488M330 488L331 489L330 488M349 488L350 489L349 488M386 488L387 489L386 488M419 488L420 489L419 488z"/>
<path style="fill:#c0cfa6; stroke:none;" d="M437.333 488.667L437.667 489.333L437.333 488.667z"/>
<path style="fill:#8f7a69; stroke:none;" d="M640 488L641 489L640 488z"/>
<path style="fill:#c0cfa6; stroke:none;" d="M641 488L642 489L641 488M822.333 488.667L822.667 489.333L822.333 488.667z"/>
<path style="fill:#8f7a69; stroke:none;" d="M212 489L213 490L212 489M331 489L332 490L331 489M403 489L404 490L403 489z"/>
<path style="fill:#c0cfa6; stroke:none;" d="M419 489L420 490L419 489z"/>
<path style="fill:#8f7a69; stroke:none;" d="M639 489L640 490L639 489z"/>
<path style="fill:#c0cfa6; stroke:none;" d="M798.333 489.667L798.667 490.333L798.333 489.667M331 490L332 491L331 490M385 490L386 491L385 490M403 490L404 491L403 490z"/>
<path style="fill:#8f7a69; stroke:none;" d="M420 490L421 491L420 490z"/>
<path style="fill:#c0cfa6; stroke:none;" d="M638 490L639 491L638 490z"/>
<path style="fill:#8f7a69; stroke:none;" d="M710 490L711 491L710 490z"/>
<path style="fill:#c0cfa6; stroke:none;" d="M817.333 490.667L817.667 491.333L817.333 490.667M840.333 490.667L840.667 491.333L840.333 490.667M162.333 491.667L162.667 492.333L162.333 491.667z"/>
<path style="fill:#8f7a69; stroke:none;" d="M211 491L212 492L211 491M332 491L333 492L332 491M385 491L386 492L385 491z"/>
<path style="fill:#c0cfa6; stroke:none;" d="M420.333 491.667L420.667 492.333L420.333 491.667M438 491L439 492L438 491z"/>
<path style="fill:#8f7a69; stroke:none;" d="M636 491L637 492L636 491M678 491L678 492L709 492L678 491z"/>
<path style="fill:#c0cfa6; stroke:none;" d="M709 491L710 492L709 491M821.333 491.667L821.667 492.333L821.333 491.667z"/>
<path style="fill:#8f7a69; stroke:none;" d="M221 492L222 493L221 492M333 492L334 493L333 492z"/>
<path style="fill:#c0cfa6; stroke:none;" d="M384.333 492.667L384.667 493.333L384.333 492.667z"/>
<path style="fill:#8f7a69; stroke:none;" d="M402 492L403 493L402 492M438 492L439 493L438 492M635 492L636 493L635 492z"/>
<path style="fill:#c0cfa6; stroke:none;" d="M678 492L678 505L679 505L678 492M799.333 492.667L799.667 493.333L799.333 492.667z"/>
<path style="fill:#8f7a69; stroke:none;" d="M187 493L187 494L190 494L187 493z"/>
<path style="fill:#c0cfa6; stroke:none;" d="M333 493L334 494L333 493z"/>
<path style="fill:#8f7a69; stroke:none;" d="M513 493L513 499L514 499L513 493z"/>
<path style="fill:#c0cfa6; stroke:none;" d="M555 493L555 497L556 497L555 493M839.333 493.667L839.667 494.333L839.333 493.667M161.333 494.667L161.667 495.333L161.333 494.667z"/>
<path style="fill:#8f7a69; stroke:none;" d="M185 494L186 495L185 494M191 494L192 495L191 494M210 494L211 495L210 494M220 494L221 495L220 494M334 494L335 495L334 494M384 494L385 495L384 494z"/>
<path style="fill:#c0cfa6; stroke:none;" d="M439 494L440 495L439 494z"/>
<path style="fill:#8f7a69; stroke:none;" d="M636 494L637 495L636 494z"/>
<path style="fill:#c0cfa6; stroke:none;" d="M818 494L819 495L818 494z"/>
<path style="fill:#8f7a69; stroke:none;" d="M184 495L185 496L184 495z"/>
<path style="fill:#c0cfa6; stroke:none;" d="M383 495L384 496L383 495z"/>
<path style="fill:#8f7a69; stroke:none;" d="M439 495L440 496L439 495M574 495L574 499L575 499L574 495M607 495L607 518L608 518L607 495z"/>
<path style="fill:#c0cfa6; stroke:none;" d="M608 495L608 496L617 496L608 495z"/>
<path style="fill:#8f7a69; stroke:none;" d="M617 495L618 496L617 495z"/>
<path style="fill:#c0cfa6; stroke:none;" d="M637 495L638 496L637 495M800.333 495.667L800.667 496.333L800.333 495.667M820 495L821 496L820 495z"/>
<path style="fill:#8f7a69; stroke:none;" d="M192 496L193 497L192 496M219 496L220 497L219 496z"/>
<path style="fill:#c0cfa6; stroke:none;" d="M335 496L336 497L335 496z"/>
<path style="fill:#8f7a69; stroke:none;" d="M383 496L384 497L383 496M618 496L619 497L618 496M637 496L638 497L637 496z"/>
<path style="fill:#c0cfa6; stroke:none;" d="M838.333 496.667L838.667 497.333L838.333 496.667z"/>
<path style="fill:#8f7a69; stroke:none;" d="M183 497L183 508L184 508L183 497M209 497L210 498L209 497M336 497L337 498L336 497z"/>
<path style="fill:#c0cfa6; stroke:none;" d="M440 497L441 498L440 497z"/>
<path style="fill:#8f7a69; stroke:none;" d="M532 497L533 498L532 497M555 497L556 498L555 497z"/>
<path style="fill:#c0cfa6; stroke:none;" d="M618 497L619 498L618 497M638 497L639 498L638 497M819 497L820 498L819 497M160.333 498.667L160.667 499.333L160.333 498.667M382 498L383 499L382 498z"/>
<path style="fill:#8f7a69; stroke:none;" d="M440 498L441 499L440 498M619 498L620 499L619 498M638 498L639 499L638 498M208.333 499.667L208.667 500.333L208.333 499.667M218 499L219 500L218 499z"/>
<path style="fill:#c0cfa6; stroke:none;" d="M337 499L338 500L337 499z"/>
<path style="fill:#8f7a69; stroke:none;" d="M382 499L383 500L382 499z"/>
<path style="fill:#c0cfa6; stroke:none;" d="M441.333 499.667L441.667 500.333L441.333 499.667M513.333 499.667L513.667 500.333L513.333 499.667M533 499L534 500L533 499M554 499L555 500L554 499M574.333 499.667L574.667 500.333L574.333 499.667M619 499L620 500L619 499M639 499L640 500L639 499M801 499L802 500L801 499z"/>
<path style="fill:#8f7a69; stroke:none;" d="M338 500L339 501L338 500M533 500L534 501L533 500M554 500L555 501L554 500M620 500L621 501L620 500z"/>
<path style="fill:#c0cfa6; stroke:none;" d="M837 500L838 501L837 500M159 501L159 504L160 504L159 501M381 501L382 502L381 501z"/>
<path style="fill:#8f7a69; stroke:none;" d="M441 501L442 502L441 501z"/>
<path style="fill:#c0cfa6; stroke:none;" d="M534 501L535 502L534 501M553 501L554 502L553 501M620 501L621 502L620 501M640 501L641 502L640 501z"/>
<path style="fill:#8f7a69; stroke:none;" d="M217 502L218 503L217 502z"/>
<path style="fill:#c0cfa6; stroke:none;" d="M339 502L340 503L339 502z"/>
<path style="fill:#8f7a69; stroke:none;" d="M381 502L382 503L381 502z"/>
<path style="fill:#c0cfa6; stroke:none;" d="M442 502L443 503L442 502z"/>
<path style="fill:#8f7a69; stroke:none;" d="M514.333 502.667L514.667 503.333L514.333 502.667z"/>
<path style="fill:#c0cfa6; stroke:none;" d="M535 502L536 503L535 502M552 502L553 503L552 502z"/>
<path style="fill:#8f7a69; stroke:none;" d="M573.333 502.667L573.667 503.333L573.333 502.667M621 502L622 503L621 502z"/>
<path style="fill:#c0cfa6; stroke:none;" d="M802 502L803 503L802 502z"/>
<path style="fill:#8f7a69; stroke:none;" d="M207 503L208 504L207 503M340 503L341 504L340 503z"/>
<path style="fill:#c0cfa6; stroke:none;" d="M380.333 503.667L380.667 504.333L380.333 503.667z"/>
<path style="fill:#8f7a69; stroke:none;" d="M442 503L443 504L442 503z"/>
<path style="fill:#c0cfa6; stroke:none;" d="M536 503L537 504L536 503M551 503L552 504L551 503M621 503L622 504L621 503z"/>
<path style="fill:#8f7a69; stroke:none;" d="M641 503L642 504L641 503z"/>
<path style="fill:#c0cfa6; stroke:none;" d="M836 503L837 504L836 503M514 504L515 505L514 504z"/>
<path style="fill:#8f7a69; stroke:none;" d="M537 504L538 505L537 504z"/>
<path style="fill:#c0cfa6; stroke:none;" d="M538 504L539 505L538 504M549 504L550 505L549 504z"/>
<path style="fill:#8f7a69; stroke:none;" d="M550 504L551 505L550 504z"/>
<path style="fill:#c0cfa6; stroke:none;" d="M573 504L574 505L573 504z"/>
<path style="fill:#8f7a69; stroke:none;" d="M622 504L623 505L622 504z"/>
<path style="fill:#c0cfa6; stroke:none;" d="M642 504L643 505L642 504z"/>
<path style="fill:#8f7a69; stroke:none;" d="M216.333 505.667L216.667 506.333L216.333 505.667z"/>
<path style="fill:#c0cfa6; stroke:none;" d="M341 505L342 506L341 505z"/>
<path style="fill:#8f7a69; stroke:none;" d="M380 505L381 506L380 505z"/>
<path style="fill:#c0cfa6; stroke:none;" d="M443 505L444 506L443 505z"/>
<path style="fill:#8f7a69; stroke:none;" d="M539 505L540 506L539 505z"/>
<path style="fill:#c0cfa6; stroke:none;" d="M540 505L540 506L548 506L540 505z"/>
<path style="fill:#8f7a69; stroke:none;" d="M548 505L549 506L548 505z"/>
<path style="fill:#c0cfa6; stroke:none;" d="M622 505L623 506L622 505z"/>
<path style="fill:#8f7a69; stroke:none;" d="M642 505L643 506L642 505M678 505L678 506L712 506L678 505z"/>
<path style="fill:#c0cfa6; stroke:none;" d="M712 505L713 506L712 505M803 505L804 506L803 505M158 506L158 510L159 510L158 506z"/>
<path style="fill:#8f7a69; stroke:none;" d="M206.333 506.667L206.667 507.333L206.333 506.667M342 506L343 507L342 506z"/>
<path style="fill:#c0cfa6; stroke:none;" d="M379 506L380 507L379 506z"/>
<path style="fill:#8f7a69; stroke:none;" d="M443 506L444 507L443 506z"/>
<path style="fill:#c0cfa6; stroke:none;" d="M515 506L516 507L515 506M572 506L573 507L572 506z"/>
<path style="fill:#8f7a69; stroke:none;" d="M623 506L624 507L623 506z"/>
<path style="fill:#c0cfa6; stroke:none;" d="M643 506L644 507L643 506z"/>
<path style="fill:#8f7a69; stroke:none;" d="M713 506L714 507L713 506z"/>
<path style="fill:#c0cfa6; stroke:none;" d="M835 506L836 507L835 506M342 507L343 508L342 507z"/>
<path style="fill:#8f7a69; stroke:none;" d="M379 507L380 508L379 507z"/>
<path style="fill:#c0cfa6; stroke:none;" d="M623 507L624 508L623 507z"/>
<path style="fill:#8f7a69; stroke:none;" d="M643 507L644 508L643 507z"/>
<path style="fill:#c0cfa6; stroke:none;" d="M714 507L714 519L715 519L714 507M343 508L344 509L343 508M398 508L398 509L426 510C419.782 505.289 405.649 508 398 508z"/>
<path style="fill:#8f7a69; stroke:none;" d="M425 508L426 509L425 508z"/>
<path style="fill:#c0cfa6; stroke:none;" d="M444 508L445 509L444 508M516 508L517 509L516 508M571 508L572 509L571 508z"/>
<path style="fill:#8f7a69; stroke:none;" d="M624 508L625 509L624 508z"/>
<path style="fill:#c0cfa6; stroke:none;" d="M644 508L645 509L644 508M804.333 508.667L804.667 509.333L804.333 508.667z"/>
<path style="fill:#8f7a69; stroke:none;" d="M215 509L216 510L215 509M344 509L345 510L344 509z"/>
<path style="fill:#c0cfa6; stroke:none;" d="M378 509L379 510L378 509z"/>
<path style="fill:#8f7a69; stroke:none;" d="M397 509L398 510L397 509M444 509L445 510L444 509M517 509L518 510L517 509z"/>
<path style="fill:#c0cfa6; stroke:none;" d="M624 509L625 510L624 509M834.333 509.667L834.667 510.333L834.333 509.667z"/>
<path style="fill:#8f7a69; stroke:none;" d="M193 510L193 513L194 513L193 510z"/>
<path style="fill:#c0cfa6; stroke:none;" d="M344 510L345 511L344 510z"/>
<path style="fill:#8f7a69; stroke:none;" d="M378 510L379 511L378 510z"/>
<path style="fill:#c0cfa6; stroke:none;" d="M397 510L398 511L397 510z"/>
<path style="fill:#8f7a69; stroke:none;" d="M426.333 510.667L426.667 511.333L426.333 510.667z"/>
<path style="fill:#c0cfa6; stroke:none;" d="M445.333 510.667L445.667 511.333L445.333 510.667M517 510L518 511L517 510M570 510L571 511L570 510z"/>
<path style="fill:#8f7a69; stroke:none;" d="M625 510L626 511L625 510z"/>
<path style="fill:#c0cfa6; stroke:none;" d="M645 510L646 511L645 510z"/>
<path style="fill:#8f7a69; stroke:none;" d="M205.333 511.667L205.667 512.333L205.333 511.667z"/>
<path style="fill:#c0cfa6; stroke:none;" d="M345 511L346 512L345 511M518 511L519 512L518 511z"/>
<path style="fill:#8f7a69; stroke:none;" d="M569 511L570 512L569 511z"/>
<path style="fill:#c0cfa6; stroke:none;" d="M625 511L626 512L625 511M805.333 511.667L805.667 512.333L805.333 511.667z"/>
<path style="fill:#8f7a69; stroke:none;" d="M346 512L347 513L346 512z"/>
<path style="fill:#c0cfa6; stroke:none;" d="M377 512L378 513L377 512z"/>
<path style="fill:#8f7a69; stroke:none;" d="M396 512L397 513L396 512z"/>
<path style="fill:#c0cfa6; stroke:none;" d="M426 512L427 513L426 512z"/>
<path style="fill:#8f7a69; stroke:none;" d="M519 512L520 513L519 512M568 512L569 513L568 512M626 512L627 513L626 512M646 512L647 513L646 512z"/>
<path style="fill:#c0cfa6; stroke:none;" d="M833.333 512.667L833.667 513.333L833.333 512.667M157 513L157 518L158 518L157 513z"/>
<path style="fill:#8f7a69; stroke:none;" d="M184 513L184 516L185 516L184 513M214.333 513.667L214.667 514.333L214.333 513.667M239 513L240 514L239 513M244 513L245 514L244 513z"/>
<path style="fill:#c0cfa6; stroke:none;" d="M346 513L347 514L346 513z"/>
<path style="fill:#8f7a69; stroke:none;" d="M377 513L378 514L377 513z"/>
<path style="fill:#c0cfa6; stroke:none;" d="M396 513L397 514L396 513z"/>
<path style="fill:#8f7a69; stroke:none;" d="M427 513L428 514L427 513z"/>
<path style="fill:#c0cfa6; stroke:none;" d="M446 513L447 514L446 513z"/>
<path style="fill:#8f7a69; stroke:none;" d="M520 513L521 514L520 513M567 513L568 514L567 513z"/>
<path style="fill:#c0cfa6; stroke:none;" d="M626 513L627 514L626 513M647 513L648 514L647 513M347 514L348 515L347 514M376.333 514.667L376.667 515.333L376.333 514.667M427 514L428 515L427 514z"/>
<path style="fill:#8f7a69; stroke:none;" d="M446 514L447 515L446 514M521 514L522 515L521 514M566 514L567 515L566 514M627 514L628 515L627 514M647 514L648 515L647 514z"/>
<path style="fill:#c0cfa6; stroke:none;" d="M806.333 514.667L806.667 515.333L806.333 514.667z"/>
<path style="fill:#8f7a69; stroke:none;" d="M236 515L237 516L236 515M246 515L247 516L246 515M348 515L349 516L348 515M395 515L396 516L395 515z"/>
<path style="fill:#c0cfa6; stroke:none;" d="M522 515L523 516L522 515M565 515L566 516L565 515M627 515L628 516L627 515M648 515L649 516L648 515M832.333 515.667L832.667 516.333L832.333 515.667z"/>
<path style="fill:#8f7a69; stroke:none;" d="M194.333 516.667L194.667 517.333L194.333 516.667M234 516L235 517L234 516z"/>
<path style="fill:#c0cfa6; stroke:none;" d="M348 516L349 517L348 516z"/>
<path style="fill:#8f7a69; stroke:none;" d="M376 516L377 517L376 516z"/>
<path style="fill:#c0cfa6; stroke:none;" d="M395 516L396 517L395 516z"/>
<path style="fill:#8f7a69; stroke:none;" d="M428 516L429 517L428 516z"/>
<path style="fill:#c0cfa6; stroke:none;" d="M447 516L448 517L447 516M523 516L524 517L523 516z"/>
<path style="fill:#8f7a69; stroke:none;" d="M524 516L525 517L524 516M563 516L564 517L563 516z"/>
<path style="fill:#c0cfa6; stroke:none;" d="M564 516L565 517L564 516z"/>
<path style="fill:#8f7a69; stroke:none;" d="M628 516L629 517L628 516M648 516L649 517L648 516M204.333 517.667L204.667 518.333L204.333 517.667M233 517L234 518L233 517z"/>
<path style="fill:#c0cfa6; stroke:none;" d="M349 517L350 518L349 517M375.333 517.667L375.667 518.333L375.333 517.667z"/>
<path style="fill:#8f7a69; stroke:none;" d="M394 517L395 518L394 517z"/>
<path style="fill:#c0cfa6; stroke:none;" d="M428 517L429 518L428 517z"/>
<path style="fill:#8f7a69; stroke:none;" d="M447.333 517.667L447.667 518.333L447.333 517.667z"/>
<path style="fill:#c0cfa6; stroke:none;" d="M525 517L526 518L525 517z"/>
<path style="fill:#8f7a69; stroke:none;" d="M526 517L527 518L526 517M561 517L562 518L561 517z"/>
<path style="fill:#c0cfa6; stroke:none;" d="M562 517L563 518L562 517M628 517L629 518L628 517M649 517L649 520L650 520L649 517M807.333 517.667L807.667 518.333L807.333 517.667z"/>
<path style="fill:#8f7a69; stroke:none;" d="M325 518L326 519L325 518M350 518L352 520L350 518z"/>
<path style="fill:#c0cfa6; stroke:none;" d="M394 518L395 519L394 518z"/>
<path style="fill:#8f7a69; stroke:none;" d="M429 518L430 519L429 518z"/>
<path style="fill:#c0cfa6; stroke:none;" d="M527 518L528 519L527 518z"/>
<path style="fill:#8f7a69; stroke:none;" d="M528 518L529 519L528 518M559 518L560 519L559 518z"/>
<path style="fill:#c0cfa6; stroke:none;" d="M560 518L561 519L560 518M588 518L589 519L588 518M607 518L608 519L607 518z"/>
<path style="fill:#8f7a69; stroke:none;" d="M629 518L630 519L629 518z"/>
<path style="fill:#c0cfa6; stroke:none;" d="M831 518L832 519L831 518z"/>
<path style="fill:#8f7a69; stroke:none;" d="M185.333 519.667L185.667 520.333L185.333 519.667M213 519L213 523L214 523L213 519M230 519L231 520L230 519M246 519L247 520L246 519M308 519L309 520L308 519z"/>
<path style="fill:#c0cfa6; stroke:none;" d="M325 519L326 520L325 519M350 519L351 520L350 519M367 519L368 520L367 519z"/>
<path style="fill:#8f7a69; stroke:none;" d="M376 519L377 520L376 519M393 519L394 520L393 519z"/>
<path style="fill:#c0cfa6; stroke:none;" d="M429 519L430 520L429 519M447 519L448 520L447 519M464 519L465 520L464 519M483 519L484 520L483 519M529.667 519.333L530.333 519.667L529.667 519.333z"/>
<path style="fill:#8f7a69; stroke:none;" d="M557 519L558 520L557 519z"/>
<path style="fill:#c0cfa6; stroke:none;" d="M558 519L559 520L558 519z"/>
<path style="fill:#8f7a69; stroke:none;" d="M630 519L631 520L630 519M660 519L661 520L660 519M713 519L714 520L713 519z"/>
<path style="fill:#c0cfa6; stroke:none;" d="M760 519L761 520L760 519M808 519L809 520L808 519M830 519L831 520L830 519z"/>
<path style="fill:#8f7a69; stroke:none;" d="M195 520L196 521L195 520M245 520L246 521L245 520z"/>
<path style="fill:#c0cfa6; stroke:none;" d="M309.667 520.333L310.333 520.667L309.667 520.333z"/>
<path style="fill:#8f7a69; stroke:none;" d="M311 520L311 521L323 521L311 520z"/>
<path style="fill:#c0cfa6; stroke:none;" d="M323.667 520.333L324.333 520.667L323.667 520.333M352.667 520.333L353.333 520.667L352.667 520.333z"/>
<path style="fill:#8f7a69; stroke:none;" d="M354 520L354 521L365 521L354 520z"/>
<path style="fill:#c0cfa6; stroke:none;" d="M365.667 520.333L366.333 520.667L365.667 520.333M377 520L378 521L377 520z"/>
<path style="fill:#8f7a69; stroke:none;" d="M378 520L378 521L391 521L378 520z"/>
<path style="fill:#c0cfa6; stroke:none;" d="M391.667 520.333L392.333 520.667L391.667 520.333M431.667 520.333L432.333 520.667L431.667 520.333z"/>
<path style="fill:#8f7a69; stroke:none;" d="M433 520L433 521L445 521L433 520z"/>
<path style="fill:#c0cfa6; stroke:none;" d="M445.667 520.333L446.333 520.667L445.667 520.333M466 520L467 521L466 520z"/>
<path style="fill:#8f7a69; stroke:none;" d="M467 520L467 521L481 521L467 520z"/>
<path style="fill:#c0cfa6; stroke:none;" d="M481.667 520.333L482.333 520.667L481.667 520.333M532.667 520.333L533.333 520.667L532.667 520.333z"/>
<path style="fill:#8f7a69; stroke:none;" d="M534.667 520.333L535.333 520.667L534.667 520.333M552.667 520.333L553.333 520.667L552.667 520.333z"/>
<path style="fill:#c0cfa6; stroke:none;" d="M554.667 520.333L555.333 520.667L554.667 520.333M590 520L591 521L590 520z"/>
<path style="fill:#8f7a69; stroke:none;" d="M591 520L591 521L605 521L591 520z"/>
<path style="fill:#c0cfa6; stroke:none;" d="M605 520L606 521L605 520M631.667 520.333L632.333 520.667L631.667 520.333z"/>
<path style="fill:#8f7a69; stroke:none;" d="M633 520L633 521L647 521L633 520z"/>
<path style="fill:#c0cfa6; stroke:none;" d="M647.667 520.333L648.333 520.667L647.667 520.333M661.667 520.333L662.333 520.667L661.667 520.333z"/>
<path style="fill:#8f7a69; stroke:none;" d="M663 520L663 521L711 521C698.586 515.791 676.526 520 663 520z"/>
<path style="fill:#c0cfa6; stroke:none;" d="M711.667 520.333L712.333 520.667L711.667 520.333M743 520L743 521L759 521L743 520M810 520L810 521L829 521L810 520z"/>
<path style="fill:#8f7a69; stroke:none;" d="M244 521L245 522L244 521z"/>
<path style="fill:#c0cfa6; stroke:none;" d="M538 521L538 522L550 522L538 521z"/>
<path style="fill:#8f7a69; stroke:none;" d="M226 522L227 523L226 522M242 522L243 523L242 522z"/>
<path style="fill:#c0cfa6; stroke:none;" d="M266 522L266 527L267 527L266 522z"/>
<path style="fill:#8f7a69; stroke:none;" d="M186 523L187 524L186 523M196 523L197 524L196 523M225 523L226 524L225 523M224 524L225 525L224 524M239 524L240 525L239 524M223 525L224 526L223 525M187 526L188 527L187 526M197 526L198 527L197 526M203 526L202 535C204.641 532.693 204.296 529.089 203 526M222 526L223 527L222 526M236 526L237 527L236 526M221 527L222 528L221 527M235 527L236 528L235 527M188 528L189 529L188 528M198 528L199 529L198 528z"/>
<path style="fill:#c0cfa6; stroke:none;" d="M157 529L157 535L158 535L157 529z"/>
<path style="fill:#8f7a69; stroke:none;" d="M189 531L190 532L189 531M200 531L201 532L200 531M218 531L219 532L218 531M230 531L231 532L230 531M217 532L218 533L217 532M229 532L230 533L229 532z"/>
<path style="fill:#c0cfa6; stroke:none;" d="M265.333 532.667L265.667 533.333L265.333 532.667z"/>
<path style="fill:#8f7a69; stroke:none;" d="M191 534L192 535L191 534M216 534L217 535L216 534M215 535L216 536L215 535M192 536L193 537L192 536M226 536L227 537L226 536z"/>
<path style="fill:#84c442; stroke:none;" d="M346 536C352.54 545.258 358.46 545.258 365 536L356 541L346 536z"/>
<path style="fill:#c0cfa6; stroke:none;" d="M350 536L351 537L350 536M378 536L377 538L378 536z"/>
<path style="fill:#84c442; stroke:none;" d="M373 544C378.369 543.873 381.974 540.204 385 536C378.898 536.198 376.161 538.965 373 544M813 545L824 536C817.877 536.199 814.551 539.042 813 545z"/>
<path style="fill:#c0cfa6; stroke:none;" d="M158 537L158 540L159 540L158 537z"/>
<path style="fill:#8f7a69; stroke:none;" d="M214 537L215 538L214 537M225 537L226 538L225 537z"/>
<path style="fill:#c0cfa6; stroke:none;" d="M264 537L264 540L265 540L264 537M346 537L347 538L346 537M351 537L352 538L351 537M359 537L360 538L359 537M364 537L365 538L364 537M384 537L385 538L384 537M478 537L478 554L475 552L479 555L478 537z"/>
<path style="fill:#84c442; stroke:none;" d="M479 537L479 555C475.802 553.095 472.741 550.986 469 550.33C445.881 546.279 444.907 589.113 467 587.786C471.549 587.513 475.196 585.258 479 583L479 587L482 587L482 537L479 537z"/>
<path style="fill:#c0cfa6; stroke:none;" d="M482 537L482 587L483 587C483 572.951 487.409 549.89 482 537M551.333 537.667L551.667 538.333L551.333 537.667z"/>
<path style="fill:#84c442; stroke:none;" d="M552 537C549.167 548.901 551 562.799 551 575C551 579.7 549.759 585.261 555 587L555 570C561.718 575.869 569.687 586.298 579 587C573.969 579.859 565.774 572.033 558 568L558 566L577 551C568.329 551.582 561.763 559.138 555 564L555 537L552 537z"/>
<path style="fill:#c0cfa6; stroke:none;" d="M624 537L625 538L624 537z"/>
<path style="fill:#84c442; stroke:none;" d="M628 587L628 537C623.299 538.56 624.002 542.633 624 547L624 576C624 580.54 623.013 585.345 628 587z"/>
<path style="fill:#8f7a69; stroke:none;" d="M213 538L214 539L213 538z"/>
<path style="fill:#c0cfa6; stroke:none;" d="M347 538L348 539L347 538M352 538L353 539L352 538M358 538L359 539L358 538M363 538L364 539L363 538M383 538L384 539L383 538M555 538L555 564L556 564L555 538M628 538L628 586L629 586C629 572.474 633.209 550.414 628 538z"/>
<path style="fill:#8f7a69; stroke:none;" d="M194 539L195 540L194 539z"/>
<path style="fill:#c0cfa6; stroke:none;" d="M348 539L349 540L348 539M354 539L355 540L354 539M362 539L363 540L362 539M382 539L383 540L382 539M815 539L816 540L815 539M821 539L822 540L821 539z"/>
<path style="fill:#8f7a69; stroke:none;" d="M195 540L196 541L195 540M223 540L224 541L223 540z"/>
<path style="fill:#c0cfa6; stroke:none;" d="M349 540L350 541L349 540M355 540L356 541L355 540M361 540L362 541L361 540M375 540L376 541L375 540M381 540L382 541L381 540M814 540L815 541L814 540M820 540L821 541L820 540z"/>
<path style="fill:#8f7a69; stroke:none;" d="M196 541L197 542L196 541z"/>
<path style="fill:#c0cfa6; stroke:none;" d="M263.333 541.667L263.667 542.333L263.333 541.667M350 541L351 542L350 541M360 541L361 542L360 541M374 541L375 542L374 541M813 541L814 542L813 541M819 541L820 542L819 541M159 542L159 545L160 545L159 542z"/>
<path style="fill:#8f7a69; stroke:none;" d="M197 542L198 543L197 542M222 542L223 543L222 542z"/>
<path style="fill:#c0cfa6; stroke:none;" d="M351 542L352 543L351 542M359 542L360 543L359 542M373 542L374 543L373 542M378 542L379 543L378 542z"/>
<path style="fill:#8f7a69; stroke:none;" d="M198 543L199 544L198 543z"/>
<path style="fill:#c0cfa6; stroke:none;" d="M352 543L353 544L352 543M358 543L359 544L358 543M377 543L378 544L377 543M812.333 543.667L812.667 544.333L812.333 543.667M816 543L817 544L816 543z"/>
<path style="fill:#8f7a69; stroke:none;" d="M199 544L200 545L199 544z"/>
<path style="fill:#c0cfa6; stroke:none;" d="M353.667 544.333L354.333 544.667L353.667 544.333M356.667 544.333L357.333 544.667L356.667 544.333M373 544L374 545L373 544M375.667 544.333L376.333 544.667L375.667 544.333M814.667 544.333L815.333 544.667L814.667 544.333z"/>
<path style="fill:#8f7a69; stroke:none;" d="M200 545L201 546L200 545z"/>
<path style="fill:#c0cfa6; stroke:none;" d="M262.333 545.667L262.667 546.333L262.333 545.667M160.333 546.667L160.667 547.333L160.333 546.667z"/>
<path style="fill:#8f7a69; stroke:none;" d="M220 546L221 547L220 546M203 547L204 548L203 547M204 548L205 549L204 548M219.333 548.667L219.667 549.333L219.333 548.667z"/>
<path style="fill:#c0cfa6; stroke:none;" d="M261.333 548.667L261.667 549.333L261.333 548.667M161.333 549.667L161.667 550.333L161.333 549.667M427 549L428 550L427 549M466 549L467 550L466 549M506.667 549.333L507.333 549.667L506.667 549.333M598 549L599 550L598 549M653 549L654 550L653 549M693.667 549.333L694.333 549.667L693.667 549.333M717 549L718 550L717 549M776 549L777 550L776 549M815 549L816 550L815 549M852 549L853 550L852 549M307 550L307 551L310 551L307 550M317.667 550.333L318.333 550.667L317.667 550.333z"/>
<path style="fill:#84c442; stroke:none;" d="M311 555L311 551L307 551C307 566.348 303.653 586.293 308 601L310 601L311 583C313.52 584.869 315.91 586.5 319 587.29C344.329 593.766 344.739 544.369 319 550.533C315.822 551.294 313.491 552.991 311 555z"/>
<path style="fill:#c0cfa6; stroke:none;" d="M327.667 550.333L328.333 550.667L327.667 550.333M348 551L348 552L352 551L348 551M359 550L359 551L366 551L359 550M374 550L374 551L377 551L374 550M390 550L390 551L393 551L390 550M400 550L400 551L407 551L400 550M421.667 550.333L422.333 550.667L421.667 550.333z"/>
<path style="fill:#84c442; stroke:none;" d="M423 550.533C403.77 555.178 409.119 592.53 431 587.315C450.751 582.608 445.017 545.215 423 550.533z"/>
<path style="fill:#c0cfa6; stroke:none;" d="M431.667 550.333L432.333 550.667L431.667 550.333M460.667 550.333L461.333 550.667L460.667 550.333M470.667 550.333L471.333 550.667L470.667 550.333M501.667 550.333L502.333 550.667L501.667 550.333z"/>
<path style="fill:#84c442; stroke:none;" d="M494 559L497 560C504.229 551.03 516.688 552.096 517 565C509.741 565.15 497.128 565.848 493.179 573.094C484.801 588.467 509.179 588.801 517 583L517 587L521 587C521 578.025 523.58 564.217 519.427 556.044C513.905 545.177 498.049 549.878 494 559z"/>
<path style="fill:#c0cfa6; stroke:none;" d="M512.667 550.333L513.333 550.667L512.667 550.333M573 550L573 551L577 551L573 550M592.667 550.333L593.333 550.667L592.667 550.333z"/>
<path style="fill:#84c442; stroke:none;" d="M594 550.533C575.095 555.123 580.255 592.647 602 587.466C621.916 582.721 616.423 545.09 594 550.533z"/>
<path style="fill:#c0cfa6; stroke:none;" d="M603 550L604 551L603 550M648.667 550.333L649.333 550.667L648.667 550.333z"/>
<path style="fill:#84c442; stroke:none;" d="M667 578C662.199 580.447 657.876 585.09 652 583.562C648.369 582.618 640.278 575.994 643.789 571.603C647.217 567.315 663.828 570 669 570C668.996 563.933 668.703 557.777 663.787 553.419C652.663 543.557 639.171 554.642 639.004 567C638.904 574.397 639.433 582.533 647.015 586.231C653.73 589.506 667.913 587.524 667 578z"/>
<path style="fill:#c0cfa6; stroke:none;" d="M658.667 550.333L659.333 550.667L658.667 550.333M679 551L679 552L683 554L686 553L679 551M688.667 550.333L689.333 550.667L688.667 550.333z"/>
<path style="fill:#84c442; stroke:none;" d="M683 554C682.664 552.441 681.531 549.88 679.722 552.333C678.21 554.385 679 558.6 679 561C679 567.063 675.895 585.65 683 587C683 578.933 680.924 567.424 684.573 560.015C688.409 552.224 697.825 552.216 701.682 560.005C705.233 567.174 703 579.151 703 587L707 587C707 579.314 704.964 568.226 707.742 561.001C710.758 553.158 720.451 551.431 724.86 559.044C729.189 566.518 727 578.684 727 587L730 587C730 575.468 733.813 542.313 712 551.008C709.099 552.165 706.597 554.306 704 556C699.453 547.254 689.948 550.035 683 554z"/>
<path style="fill:#c0cfa6; stroke:none;" d="M698 550L699 551L698 550M712 550L713 551L712 550M721.667 550.333L722.333 550.667L721.667 550.333M765 564L764 564L764 587L761 587L761 551L764 551L764 555L768 552L765 554C762.208 545.599 760.002 556.624 760 560C759.997 566.841 757.543 579.497 760.599 585.663C764.062 592.65 765 575.461 765 574L765 564M771 550L772 551L771 550z"/>
<path style="fill:#84c442; stroke:none;" d="M764 555L764 551L761 551L761 587L764 587C764 578.836 761.995 567.401 766.14 560.015C770.579 552.105 781.507 551.654 785.821 560.015C789.376 566.904 787 579.373 787 587L791 587C791 574.33 794.271 543.812 772 550.652C769.103 551.542 766.571 553.454 764 555z"/>
<path style="fill:#c0cfa6; stroke:none;" d="M781.667 550.333L782.333 550.667L781.667 550.333M809.667 550.333L810.333 550.667L809.667 550.333z"/>
<path style="fill:#84c442; stroke:none;" d="M803 560C808.085 558.333 810.863 552.904 817 553.708C820.819 554.208 828.519 560.037 823.592 564.012C817.407 569.001 807.311 564.449 802.009 572.188C797.194 579.218 803.836 586.541 811 587.656C816.634 588.533 821.365 585.752 826 583L826 587L829 587C829 578.422 832.05 562.473 827.142 555.108C821.035 545.944 804.455 549.208 803 560z"/>
<path style="fill:#c0cfa6; stroke:none;" d="M820.667 550.333L821.333 550.667L820.667 550.333M846.667 550.333L847.333 550.667L846.667 550.333z"/>
<path style="fill:#84c442; stroke:none;" d="M839 579C842.203 590.167 863.793 591.657 866.333 578.999C868.971 565.861 849.062 569.761 845.072 561.867C841.433 554.669 852.511 552.607 856.998 554.923C859.437 556.181 861.493 557.86 864 559L865 558C861.249 547.477 840.218 546.686 840.218 560C840.218 572.06 856.369 567.688 861.199 575.225C865.862 582.5 852.487 584.891 848 583.262C844.785 582.095 842.344 579.908 839 579z"/>
<path style="fill:#c0cfa6; stroke:none;" d="M857.667 550.333L858.333 550.667L857.667 550.333M260.333 551.667L260.667 552.333L260.333 551.667M315 551L316 552L315 551M330 551L331 552L330 551z"/>
<path style="fill:#84c442; stroke:none;" d="M352 587C352 573.914 347.816 554.389 366 554L366 551C360.319 551.004 356.557 551.362 352 555L352 551C345.232 553.246 345.232 584.754 352 587z"/>
<path style="fill:#c0cfa6; stroke:none;" d="M356 551L357 552L356 551z"/>
<path style="fill:#84c442; stroke:none;" d="M373 551C373 558.417 369.158 584.397 377 587L377 551L373 551M389 551L389 587L393 587C393 573.835 388.708 554.392 407 554L407 551C401.319 551.004 397.557 551.362 393 555L393 551L389 551z"/>
<path style="fill:#c0cfa6; stroke:none;" d="M397 551L398 552L397 551M419 551L420 552L419 551M434 551L435 552L434 551M458 551L459 552L458 551M473 551L474 552L473 551M499 551L500 552L499 551M515 551L516 552L515 551M571 551L572 552L571 551M590 551L591 552L590 551M606 551L607 552L606 551M646 551L647 552L646 551M661 551L662 552L661 551M700 551L701 552L700 551M710 551L711 552L710 551M724 551L725 552L724 551M769 551L770 552L769 551M784 551L785 552L784 551M807 551L808 552L807 551M823 551L824 552L823 551M860 551L861 552L860 551M162 552L163 553L162 552z"/>
<path style="fill:#8f7a69; stroke:none;" d="M205.333 552.667L205.667 553.333L205.333 552.667M218.333 552.667L218.667 553.333L218.333 552.667z"/>
<path style="fill:#c0cfa6; stroke:none;" d="M306 552L306 600L307 600C307 586.474 311.209 564.414 306 552M313 552L314 553L313 552M332 552L333 553L332 552M352 552L352 555L353 555L352 552M366 552L367 553L366 552M395 552L396 553L395 552M417 552L418 553L417 552M436 552L437 553L436 552M457 552L458 553L457 552M570 552L571 553L570 552M576 552L577 553L576 552M588 552L589 553L588 552M607 552L608 553L607 552M663 552L664 553L663 552M708 552L709 553L708 552M725 552L726 553L725 552M785 552L786 553L785 552M806 552L807 553L806 552M825 552L826 553L825 552M843 552L844 553L843 552M861 552L862 553L861 552M312 553L313 554L312 553M321 553L321 554L324 554L321 553M333 553L334 554L333 553M394 553L395 554L394 553M416 553L417 554L416 553M425 553L425 554L429 554L425 553M437 553L438 554L437 553M465 553L465 554L469 554L465 553M506 553L506 554L509 554L506 553M575 553L576 554L575 553M587 553L588 554L587 553M597 553L597 554L600 554L597 553M643 553L644 554L643 553M652 553L652 554L655 554L652 553M664 553L665 554L664 553M692 553L692 554L695 554L692 553M707 553L708 554L707 553M715 553L715 554L718 554L715 553M726 553L727 554L726 553M774 553L774 554L778 554L774 553M786 553L787 554L786 553M814 553L814 554L818 554L814 553M826 553L827 554L826 553M842 553L843 554L842 553M850 553L850 554L854 554L850 553M163 554L164 555L163 554M259 554L260 555L259 554M317.667 554.333L318.333 554.667L317.667 554.333z"/>
<path style="fill:#ffffff; stroke:none;" d="M319.015 554.573C304.986 558.682 309.461 588.597 325.985 583.346C339.759 578.969 335.624 549.707 319.015 554.573z"/>
<path style="fill:#c0cfa6; stroke:none;" d="M327 554L328 555L327 554M359 554L359 555L365 555L359 554M393 554L394 555L393 554M400 554L400 555L406 555L400 554M415 554L416 555L415 554M422 554L423 555L422 554z"/>
<path style="fill:#ffffff; stroke:none;" d="M423.004 554.742C409.92 559.789 414.734 589.325 430.996 583.106C444.466 577.954 439.592 548.344 423.004 554.742z"/>
<path style="fill:#c0cfa6; stroke:none;" d="M431 554L432 555L431 554M438 554L439 555L438 554M460 556L463 555L460 556z"/>
<path style="fill:#ffffff; stroke:none;" d="M463.015 554.653C449.749 558.917 453.933 588.369 469.996 583.346C483.972 578.977 479.798 549.258 463.015 554.653z"/>
<path style="fill:#c0cfa6; stroke:none;" d="M471 554L472 555L471 554M502 554L503 555L502 554M512 554L513 555L512 554M567 554L568 555L567 554M574 554L575 555L574 554M586 554L587 555L586 554M593 554L594 555L593 554z"/>
<path style="fill:#ffffff; stroke:none;" d="M594.015 554.742C580.485 560.046 586.349 590.113 602.957 582.772C616.038 576.989 610.188 548.402 594.015 554.742z"/>
<path style="fill:#c0cfa6; stroke:none;" d="M602.667 554.333L603.333 554.667L602.667 554.333M642 554L643 555L642 554M649 554L650 555L649 554z"/>
<path style="fill:#ffffff; stroke:none;" d="M643 567L665 567C664.232 550.476 643.402 550.376 643 567z"/>
<path style="fill:#c0cfa6; stroke:none;" d="M658 554L659 555L658 554M665 554L666 555L665 554M689 554L690 555L689 554M697 554L698 555L697 554M706 554L707 555L706 554M712 554L713 555L712 554M720 554L721 555L720 554M727 554L728 555L727 554M771 554L772 555L771 554M780 554L781 555L780 554M787 554L788 555L787 554M804 554L805 555L804 554M810 554L811 555L810 554M820 554L821 555L820 554M841 554L842 555L841 554M847 554L848 555L847 554M857 554L858 555L857 554M329 555L330 556L329 555M356 555L357 556L356 555M397 555L398 556L397 555M414 555L415 556L414 555M420 555L421 556L420 555M433 555L434 556L433 555M439 555L440 556L439 555M454 555L455 556L454 555M473 555L474 556L473 555M495 555L496 556L495 555M500 555L501 556L500 555M514 555L515 556L514 555M519 555L520 556L519 555M566 555L567 556L566 555M591 555L592 556L591 555M604 555L605 556L604 555M610 555L611 556L610 555M647 555L648 556L647 555M660 555L661 556L660 555M687 555L688 556L687 555M698 555L699 556L698 555M704 555L705 556L704 555M722 555L723 556L722 555M769 555L770 556L769 555M782 555L783 556L782 555M788 555L789 556L788 555M803 555L804 556L803 555M822 555L823 556L822 555M845 555L846 556L845 555M864 555L865 556L864 555M164 556L165 557L164 556z"/>
<path style="fill:#8f7a69; stroke:none;" d="M206.333 556.667L206.667 557.333L206.333 556.667z"/>
<path style="fill:#c0cfa6; stroke:none;" d="M258 556L259 557L258 556M314 556L315 557L314 556M330 556L331 557L330 556M335 556L336 557L335 556M355 556L356 557L355 556M396 556L397 557L396 556M419 556L420 557L419 556M440 556L441 557L440 556M474 556L475 557L474 556M494.333 556.667L494.667 557.333L494.333 556.667M499 556L500 557L499 556M515 556L516 557L515 556M571 556L572 557L571 556M590 556L591 557L590 556M611 556L612 557L611 556M641 556L642 557L641 556M646 556L647 557L646 556M661 556L662 557L661 556M666 556L667 557L666 556M686 556L687 557L686 556M723 556L724 557L723 556M768 556L769 557L768 556M783 556L784 557L783 556M807 556L808 557L807 556M823 556L824 557L823 556M828.333 556.667L828.667 557.333L828.333 556.667M840 556L841 557L840 556M354 557L355 558L354 557M413 557L414 558L413 557M418 557L419 558L418 557M453 557L454 558L453 557M475 557L476 558L475 557M498 557L499 558L498 557M520.333 557.667L520.667 558.333L520.333 557.667M563 557L564 558L563 557M570 557L571 558L570 557M584 557L585 558L584 557M589 557L590 558L589 557M640.333 557.667L640.667 558.333L640.333 557.667M645 557L646 558L645 557M662 557L663 558L662 557M667.333 557.667L667.667 558.333L667.333 557.667M685 557L686 558L685 557M724 557L725 558L724 557M767 557L768 558L767 557M784 557L785 558L784 557M789 557L790 558L789 557M802.333 557.667L802.667 558.333L802.333 557.667M824.333 557.667L824.667 558.333L824.333 557.667M844 557L845 558L844 557M865 557L866 558L865 557M165 558L166 559L165 558M257.333 558.667L257.667 559.333L257.333 558.667M313 558L314 559L313 558M336 558L337 559L336 558M353 558L354 559L353 558M394 558L395 559L394 558M417 558L418 559L417 558M436 558L437 559L436 558M441.333 558.667L441.667 559.333L441.333 558.667M457 558L458 559L457 558M516 558L517 559L516 558M562 558L563 559L562 558M588.333 558.667L588.667 559.333L588.333 558.667M607 558L608 559L607 558M612 558L613 559L612 558M644 558L645 559L644 558M663 558L664 559L663 558M701 558L702 559L701 558M708 558L709 559L708 558M729 558L730 559L729 558M766 558L767 559L766 558M785 558L786 559L785 558M806 558L807 559L806 558M864 558L865 559L864 558M312 559L313 560L312 559M332.333 559.667L332.667 560.333L332.333 559.667M412 559L413 560L412 559M452 559L453 560L452 559M476 559L477 560L476 559M494 559L495 560L494 559M497 559L498 560L497 559M561 559L562 560L561 559M567 559L568 560L567 559M583.333 559.667L583.667 560.333L583.333 559.667M608.333 559.667L608.667 560.333L608.333 559.667M684 559L685 560L684 559M725 559L726 560L725 559M790.333 559.667L790.667 560.333L790.333 559.667M839.333 559.667L839.667 560.333L839.333 559.667M166 560L167 561L166 560z"/>
<path style="fill:#8f7a69; stroke:none;" d="M207.333 560.667L207.667 561.333L207.333 560.667z"/>
<path style="fill:#c0cfa6; stroke:none;" d="M393.333 560.667L393.667 561.333L393.333 560.667M416 560L417 561L416 560M437 560L438 561L437 560M456 560L457 561L456 560M559 560L560 561L559 560M566 560L567 561L566 560M587.333 560.667L587.667 561.333L587.333 560.667M639 560L640 561L639 560M643 560L644 561L643 560M664.333 560.667L664.667 561.333L664.333 560.667M668 560L669 561L668 560M707.333 560.667L707.667 561.333L707.333 560.667M765 560L766 561L765 560M786.333 560.667L786.667 561.333L786.333 560.667M829 560L829 587L830 587L829 560M167.333 561.667L167.667 562.333L167.333 561.667M256 561L257 562L256 561M311.333 561.667L311.667 562.333L311.333 561.667M337.333 561.667L337.667 562.333L337.333 561.667M352 561L352 586L353 586L352 561M477 561L478 562L477 561M558 561L559 562L558 561M565 561L566 562L565 561M613 561L613 564L614 564L613 561M702 561L702 564L703 564L702 561M730 561L730 587L731 587L730 561M825 561L825 564L826 564L825 561M255 562L256 563L255 562M333.333 562.667L333.667 563.333L333.333 562.667M411 562L411 568L412 568L411 562M442 562L442 565L443 565L442 562M451 562L451 565L452 565L451 562M557 562L558 563L557 562M563 562L564 563L563 562M609.333 562.667L609.667 563.333L609.333 562.667M683 562L683 586L684 586L683 562M844 562L845 563L844 562M168 563L169 564L168 563M415 563L415 574L416 574L415 563M438 563L438 567L439 567L438 563M455 563L455 567L456 567L455 563M562 563L563 564L562 563M638 563L638 574L639 574L638 563M642 563L642 567L643 567L642 563M726 563L726 587L727 587L726 563M840.333 563.667L840.667 564.333L840.333 563.667M845 563L846 564L845 563z"/>
<path style="fill:#8f7a69; stroke:none;" d="M208 564L209 565L208 564M218.333 564.667L218.667 565.333L218.333 564.667z"/>
<path style="fill:#c0cfa6; stroke:none;" d="M254 564L255 565L254 564M515.667 564.333L516.333 564.667L515.667 564.333M561 564L562 565L561 564M582 564L582 574L583 574L582 564M665 564L665 567L666 567L665 564M669 564L669 570L670 570L669 564M824 564L825 565L824 564M846 564L847 565L846 564M169 565L170 566L169 565M478 565L478 573L479 573L478 565M508 565L508 566L511 566L508 565M559 565L560 566L559 565M586 565L586 573L587 573L586 565M816 565L816 566L820 566L816 565M841 565L842 566L841 565M849 565L850 566L849 565M170 566L171 567L170 566M253 566L254 567L253 566M502 566L502 567L505 567L502 566M558.333 566.667L558.667 567.333L558.333 566.667M811.667 566.333L812.333 566.667L811.667 566.333M842 566L843 567L842 566M852.667 566.333L853.333 566.667L852.667 566.333M171 567L172 568L171 567z"/>
<path style="fill:#8f7a69; stroke:none;" d="M209 567L210 568L209 567M219 567L220 568L219 567z"/>
<path style="fill:#c0cfa6; stroke:none;" d="M252 567L253 568L252 567M499.667 567.333L500.333 567.667L499.667 567.333M807.667 567.333L808.333 567.667L807.667 567.333M843 567L844 568L843 567M856.667 567.333L857.333 567.667L856.667 567.333M497 568L498 569L497 568M513 568L513 569L517 569L513 568M559 568L560 569L559 568M805 568L806 569L805 568M821 568L821 569L825 572L826 572L826 568L821 568M845 568L846 569L845 568M859 568L860 569L859 568M172 569L173 570L172 569M496 569L497 570L496 569M506 569L506 570L509 570L506 569z"/>
<path style="fill:#ffffff; stroke:none;" d="M517 569C513.96 569.008 511.001 569.074 508 569.616C505.992 569.978 503.9 570.365 502.005 571.144C487.435 577.135 508.084 591.705 515.231 577.906C516.66 575.147 516.867 572.035 517 569z"/>
<path style="fill:#c0cfa6; stroke:none;" d="M804 569L805 570L804 569M814 569L814 570L818 570L814 569z"/>
<path style="fill:#ffffff; stroke:none;" d="M825 569C821.944 569.025 819.018 569.25 816 569.755C813.992 570.09 811.913 570.371 810.015 571.147C795.512 577.082 817.542 592.581 823.852 576.985C824.888 574.424 824.942 571.714 825 569z"/>
<path style="fill:#c0cfa6; stroke:none;" d="M847.667 569.333L848.333 569.667L847.667 569.333M861 569L862 570L861 569M173 570L174 571L173 570z"/>
<path style="fill:#8f7a69; stroke:none;" d="M210 570L211 571L210 570M220 570L221 571L220 570z"/>
<path style="fill:#c0cfa6; stroke:none;" d="M250 570L251 571L250 570M411 570L411 576L412 576L411 570M438 570L438 575L439 575L438 570M494 570L495 571L494 570M502.667 570.333L503.333 570.667L502.667 570.333M555 570L555 586L556 586L555 570M643 570L643 571L669 571L643 570M810.667 570.333L811.333 570.667L810.667 570.333M851.667 570.333L852.333 570.667L851.667 570.333M863 570L864 571L863 570M174 571L175 572L174 571M249 571L250 572L249 571M455 571L455 575L456 575L455 571M500 571L501 572L500 571M563 571L564 572L563 571M642 571L642 574L643 574L642 571M808 571L809 572L808 571M855 571L856 572L855 571M864 571L865 572L864 571M175 572L176 573L175 572z"/>
<path style="fill:#8f7a69; stroke:none;" d="M211.333 572.667L211.667 573.333L211.333 572.667M221 572L222 573L221 572z"/>
<path style="fill:#c0cfa6; stroke:none;" d="M498 572L499 573L498 572M564 572L565 573L564 572M801 572L802 573L801 572M806 572L807 573L806 572M858 572L859 573L858 572M865 572L866 573L865 572M176 573L177 574L176 573M442 573L442 576L443 576L442 573M451 573L451 576L452 576L451 573M492 573L493 574L492 573M497 573L498 574L497 573M559 573L560 574L559 573M565 573L566 574L565 573M609 573L609 576L610 576L609 573M805 573L806 574L805 573M860 573L861 574L860 573M177 574L178 575L177 574z"/>
<path style="fill:#8f7a69; stroke:none;" d="M222 574L223 575L222 574z"/>
<path style="fill:#c0cfa6; stroke:none;" d="M333.333 574.667L333.667 575.333L333.333 574.667M496 574L497 575L496 574M516.333 574.667L516.667 575.333L516.333 574.667M560 574L561 575L560 574M566 574L567 575L566 574M613 574L613 577L614 577L613 574M800 574L801 575L800 574M804.333 574.667L804.667 575.333L804.333 574.667M861 574L862 575L861 574M866.333 574.667L866.667 575.333L866.333 574.667M178 575L179 576L178 575z"/>
<path style="fill:#8f7a69; stroke:none;" d="M212 575L213 576L212 575z"/>
<path style="fill:#c0cfa6; stroke:none;" d="M311.333 575.667L311.667 576.333L311.333 575.667M337.333 575.667L337.667 576.333L337.333 575.667M477.333 575.667L477.667 576.333L477.333 575.667M561 575L562 576L561 575M567 575L568 576L567 575M824.333 575.667L824.667 576.333L824.333 575.667M179 576L180 577L179 576z"/>
<path style="fill:#8f7a69; stroke:none;" d="M223 576L224 577L223 576z"/>
<path style="fill:#c0cfa6; stroke:none;" d="M245 576L246 577L245 576M416.333 576.667L416.667 577.333L416.333 576.667M456.333 576.667L456.667 577.333L456.333 576.667M491 576L491 579L492 579L491 576M562 576L563 577L562 576M568 576L569 577L568 576M587 576L588 577L587 576M643 576L644 577L643 576M862 576L862 580L863 580L862 576M180 577L181 578L180 577z"/>
<path style="fill:#8f7a69; stroke:none;" d="M213 577L214 578L213 577z"/>
<path style="fill:#c0cfa6; stroke:none;" d="M332.333 577.667L332.667 578.333L332.333 577.667M412.333 577.667L412.667 578.333L412.333 577.667M437 577L438 578L437 577M563 577L564 578L563 577M583 577L584 578L583 577M608 577L609 578L608 577M639 577L640 578L639 577M181 578L182 579L181 578M312 578L313 579L312 578M441 578L442 579L441 578M452 578L453 579L452 578M476 578L477 579L476 578M515 578L516 579L515 578M588 578L589 579L588 578M644 578L645 579L644 578M665 578L666 579L665 578M667 578L668 579L667 578M823 578L824 579L823 578M839 578L839 579L842 579L839 578z"/>
<path style="fill:#8f7a69; stroke:none;" d="M214 579L215 580L214 579z"/>
<path style="fill:#c0cfa6; stroke:none;" d="M313 579L314 580L313 579M331 579L332 580L331 579M336 579L337 580L336 579M417 579L418 580L417 579M436 579L437 580L436 579M457 579L458 580L457 579M514 579L515 580L514 579M572 579L573 580L572 579M607 579L608 580L607 579M612 579L613 580L612 579M640 579L641 580L640 579M668 579L669 580L668 579M804 579L805 580L804 579M838 579L839 580L838 579M842 579L843 580L842 579M866.333 579.667L866.667 580.333L866.333 579.667M184 580L185 581L184 580z"/>
<path style="fill:#8f7a69; stroke:none;" d="M225 580L226 581L225 580z"/>
<path style="fill:#c0cfa6; stroke:none;" d="M240 580L241 581L240 580M413 580L414 581L413 580M418 580L419 581L418 580M435 580L436 581L435 580M440 580L441 581L440 580M453 580L454 581L453 580M458 580L459 581L458 580M496 580L497 581L496 580M573 580L574 581L573 580M584 580L585 581L584 580M589 580L590 581L589 580M800 580L801 581L800 580M843 580L844 581L843 580M185 581L186 582L185 581z"/>
<path style="fill:#8f7a69; stroke:none;" d="M215 581L216 582L215 581z"/>
<path style="fill:#c0cfa6; stroke:none;" d="M239 581L240 582L239 581M335 581L336 582L335 581M419 581L420 582L419 581M434 581L435 582L434 581M474 581L475 582L474 581M492 581L493 582L492 581M497 581L498 582L497 581M512 581L513 582L512 581M568 581L569 582L568 581M574 581L575 582L574 581M585 581L586 582L585 581M590 581L591 582L590 581M605 581L606 582L605 581M611 581L612 582L611 581M641 581L642 582L641 581M661 581L662 582L661 581M667 581L668 582L667 581M805 581L806 582L805 581M844 581L845 582L844 581M187 582L188 583L187 582z"/>
<path style="fill:#8f7a69; stroke:none;" d="M226 582L227 583L226 582z"/>
<path style="fill:#c0cfa6; stroke:none;" d="M237 582L238 583L237 582M316 582L317 583L316 582M328 582L329 583L328 582M334 582L335 583L334 582M420 582L421 583L420 582M433 582L434 583L433 582M439 582L440 583L439 582M454 582L455 583L454 582M460 582L461 583L460 582M472 582L473 583L472 582M498 582L499 583L498 582M511 582L512 583L511 582M569 582L570 583L569 582M575 582L576 583L575 582M592 582L593 583L592 582M604 582L605 583L604 582M610 582L611 583L610 582M648 582L649 583L648 582M660 582L661 583L660 582M801 582L802 583L801 582M807 582L808 583L807 582M819 582L820 583L819 582M845 582L846 583L845 582M859 582L860 583L859 582M865 582L866 583L865 582M188 583L189 584L188 583z"/>
<path style="fill:#8f7a69; stroke:none;" d="M216 583L217 584L216 583z"/>
<path style="fill:#c0cfa6; stroke:none;" d="M236 583L237 584L236 583M318 583L319 584L318 583M326.667 583.333L327.333 583.667L326.667 583.333M415 583L416 584L415 583M422.667 583.333L423.333 583.667L422.667 583.333M430.667 583.333L431.333 583.667L430.667 583.333M438 583L439 584L438 583M455 583L456 584L455 583M462 583L463 584L462 583M470.667 583.333L471.333 583.667L470.667 583.333M477 583L478 587L479 587L477 583M500.667 583.333L501.333 583.667L500.667 583.333M508.667 583.333L509.333 583.667L508.667 583.333M570 583L571 584L570 583M576 583L577 584L576 583M586 583L587 584L586 583M593.667 583.333L594.333 583.667L593.667 583.333M601.667 583.333L602.333 583.667L601.667 583.333M609 583L610 584L609 583M650 583L651 584L650 583M658 583L659 584L658 583M802 583L803 584L802 583M809 583L810 584L809 583M817 583L818 584L817 583M824 583L825 587L826 587L824 583M840 583L841 584L840 583M847.667 583.333L848.333 583.667L847.667 583.333M857 583L858 584L857 583M864 583L865 584L864 583M190 584L191 585L190 584z"/>
<path style="fill:#8f7a69; stroke:none;" d="M227 584L228 585L227 584z"/>
<path style="fill:#c0cfa6; stroke:none;" d="M234 584L235 585L234 584M416 584L417 585L416 584M437 584L438 585L437 584M456 584L457 585L456 584M476 584L477 585L476 584M571 584L572 585L571 584M577 584L578 585L577 584M608 584L609 585L608 584M664 584L665 585L664 584M803 584L804 585L803 584M823 584L824 585L823 584M841 584L842 585L841 584M863 584L864 585L863 584M192 585L193 586L192 585z"/>
<path style="fill:#8f7a69; stroke:none;" d="M217 585L218 586L217 585z"/>
<path style="fill:#c0cfa6; stroke:none;" d="M232 585L233 586L232 585M314 585L315 586L314 585M417 585L418 586L417 585M436 585L437 586L436 585M457 585L458 586L457 585M475 585L476 586L475 585M496 585L497 586L496 585M513 585L514 586L513 585M572 585L573 586L572 585M578 585L579 586L578 585M607 585L608 586L607 585M645 585L646 586L645 585M663 585L664 586L663 585M804 585L805 586L804 585M843 585L844 586L843 585M862 585L863 586L862 585M194 586L195 587L194 586M230.667 586.333L231.333 586.667L230.667 586.333M315 586L316 587L315 586M330 586L331 587L330 586M348 586L349 587L348 586M373 586L374 587L373 586M419 586L420 587L419 586M434 586L435 587L434 586M459 586L460 587L459 586M473 586L474 587L473 586M497 586L498 587L497 586M512 586L513 587L512 586M551 586L552 587L551 586M590 586L591 587L590 586M605 586L606 587L605 586M624 586L625 587L624 586M646 586L647 587L646 586M661 586L662 587L661 586M679 586L680 587L679 586M806 586L807 587L806 586M820 586L821 587L820 586M844 586L845 587L844 586M860 586L861 587L860 586M196 587L197 588L196 587z"/>
<path style="fill:#8f7a69; stroke:none;" d="M218 587L219 588L218 587M229 587L230 588L229 587z"/>
<path style="fill:#c0cfa6; stroke:none;" d="M318.667 587.333L319.333 587.667L318.667 587.333M326.667 587.333L327.333 587.667L326.667 587.333M349.667 587.333L350.333 587.667L349.667 587.333M374.667 587.333L375.333 587.667L374.667 587.333M390.667 587.333L391.333 587.667L390.667 587.333M422.667 587.333L423.333 587.667L422.667 587.333M430 587L430 588L433 588L430 587M461.667 587.333L462.333 587.667L461.667 587.333M469.667 587.333L470.333 587.667L469.667 587.333M479 587L479 588L482 588L479 587M500.667 587.333L501.333 587.667L500.667 587.333M508.667 587.333L509.333 587.667L508.667 587.333M518.667 587.333L519.333 587.667L518.667 587.333M552.667 587.333L553.333 587.667L552.667 587.333M575 587L575 588L578 588L575 587M593.667 587.333L594.333 587.667L593.667 587.333M602.667 587.333L603.333 587.667L602.667 587.333M625.667 587.333L626.333 587.667L625.667 587.333M649.667 587.333L650.333 587.667L649.667 587.333M657 587L657 588L660 588L657 587M680.667 587.333L681.333 587.667L680.667 587.333M704.667 587.333L705.333 587.667L704.667 587.333M727 587L727 588L730 588L727 587M788.667 587.333L789.333 587.667L788.667 587.333M808.667 587.333L809.333 587.667L808.667 587.333M816 587L816 588L819 588L816 587M826 587L826 588L829 588L826 587M847.667 587.333L848.333 587.667L847.667 587.333M856 587L856 588L859 588L856 587M199 588L200 589L199 588M230 588L231 589L230 588M202 589L202 590L205 590L202 589z"/>
<path style="fill:#8f7a69; stroke:none;" d="M230 589L231 590L230 589z"/>
<path style="fill:#c0cfa6; stroke:none;" d="M207 590L207 591L219 591L207 590z"/>
<path style="fill:#8f7a69; stroke:none;" d="M220 590L221 591L220 590M231 590L232 591L231 590z"/>
<path style="fill:#c0cfa6; stroke:none;" d="M232 591L233 592L232 591M221 592L222 593L221 592z"/>
<path style="fill:#8f7a69; stroke:none;" d="M222 593L223 594L222 593M233 593L234 594L233 593z"/>
<path style="fill:#c0cfa6; stroke:none;" d="M234 594L235 595L234 594M223 595L224 596L223 595M235 595L236 596L235 595z"/>
<path style="fill:#8f7a69; stroke:none;" d="M224 596L225 597L224 596z"/>
<path style="fill:#c0cfa6; stroke:none;" d="M236 596L237 597L236 596z"/>
<path style="fill:#8f7a69; stroke:none;" d="M225 597L226 598L225 597M236 597L237 598L236 597z"/>
<path style="fill:#c0cfa6; stroke:none;" d="M225 598L226 599L225 598z"/>
<path style="fill:#8f7a69; stroke:none;" d="M237 598L238 599L237 598z"/>
<path style="fill:#c0cfa6; stroke:none;" d="M226 599L227 600L226 599z"/>
<path style="fill:#8f7a69; stroke:none;" d="M238 599L239 600L238 599M227 600L228 601L227 600M239 600L240 601L239 600z"/>
<path style="fill:#c0cfa6; stroke:none;" d="M307 600L308 601L307 600M310 600L311 601L310 600z"/>
<path style="fill:#8f7a69; stroke:none;" d="M228 601L229 602L228 601z"/>
<path style="fill:#c0cfa6; stroke:none;" d="M240 601L241 602L240 601M241 602L242 603L241 602M229 603L230 604L229 603M242 603L243 604L242 603M230 604L231 605L230 604M243 604L244 605L243 604M231 605L232 606L231 605M244 605L245 606L244 605z"/>
<path style="fill:#8f7a69; stroke:none;" d="M232 606L233 607L232 606z"/>
<path style="fill:#c0cfa6; stroke:none;" d="M245 606L246 607L245 606z"/>
<path style="fill:#8f7a69; stroke:none;" d="M233 607L234 608L233 607M246 607L247 608L246 607M234 608L235 609L234 608M247 608L248 609L247 608M235 609L236 610L235 609M248 609L249 610L248 609M236 610L237 611L236 610M249 610L250 611L249 610z"/>
<path style="fill:#c0cfa6; stroke:none;" d="M250 610L251 611L250 610z"/>
<path style="fill:#8f7a69; stroke:none;" d="M237 611L238 612L237 611z"/>
<path style="fill:#c0cfa6; stroke:none;" d="M251 611L252 612L251 611z"/>
<path style="fill:#8f7a69; stroke:none;" d="M238 612L239 613L238 612M252 612L253 613L252 612M239 613L240 614L239 613M253 613L254 614L253 613M240 614L241 615L240 614z"/>
<path style="fill:#c0cfa6; stroke:none;" d="M255 614L256 615L255 614M241 615L242 616L241 615z"/>
<path style="fill:#8f7a69; stroke:none;" d="M256 615L257 616L256 615z"/>
<path style="fill:#c0cfa6; stroke:none;" d="M242 616L243 617L242 616M258 616L259 617L258 616M243 617L244 618L243 617z"/>
<path style="fill:#8f7a69; stroke:none;" d="M259 617L260 618L259 617z"/>
<path style="fill:#c0cfa6; stroke:none;" d="M363 617L364 618L363 617z"/>
<path style="fill:#8f7a69; stroke:none;" d="M364 617L365 618L364 617M367 617L368 618L367 617z"/>
<path style="fill:#c0cfa6; stroke:none;" d="M368 617L369 618L368 617z"/>
<path style="fill:#8f7a69; stroke:none;" d="M245 618L246 619L245 618z"/>
<path style="fill:#c0cfa6; stroke:none;" d="M261 618L262 619L261 618M361 618L362 619L361 618z"/>
<path style="fill:#8f7a69; stroke:none;" d="M362 618L363 619L362 618z"/>
<path style="fill:#c0cfa6; stroke:none;" d="M369 618L370 619L369 618z"/>
<path style="fill:#8f7a69; stroke:none;" d="M246 619L247 620L246 619M262 619L263 620L262 619z"/>
<path style="fill:#c0cfa6; stroke:none;" d="M263 619L264 620L263 619M359 619L360 620L359 619z"/>
<path style="fill:#8f7a69; stroke:none;" d="M360 619L361 620L360 619z"/>
<path style="fill:#c0cfa6; stroke:none;" d="M370 619L370 624L371 624L370 619M247 620L248 621L247 620z"/>
<path style="fill:#8f7a69; stroke:none;" d="M264 620L265 621L264 620M358 620L359 621L358 620z"/>
<path style="fill:#c0cfa6; stroke:none;" d="M248 621L249 622L248 621z"/>
<path style="fill:#8f7a69; stroke:none;" d="M249 621L250 622L249 621M266 621L267 622L266 621z"/>
<path style="fill:#c0cfa6; stroke:none;" d="M356 621L357 622L356 621z"/>
<path style="fill:#8f7a69; stroke:none;" d="M250 622L251 623L250 622z"/>
<path style="fill:#c0cfa6; stroke:none;" d="M268 622L269 623L268 622M353 622L354 623L353 622z"/>
<path style="fill:#8f7a69; stroke:none;" d="M354 622L355 623L354 622z"/>
<path style="fill:#c0cfa6; stroke:none;" d="M251 623L252 624L251 623z"/>
<path style="fill:#8f7a69; stroke:none;" d="M252 623L253 624L252 623z"/>
<path style="fill:#c0cfa6; stroke:none;" d="M270.667 623.333L271.333 623.667L270.667 623.333M351 623L352 624L351 623z"/>
<path style="fill:#8f7a69; stroke:none;" d="M352 623L353 624L352 623M253 624L254 625L253 624M272 624L273 625L272 624z"/>
<path style="fill:#c0cfa6; stroke:none;" d="M273 624L274 625L273 624M349 624L350 625L349 624z"/>
<path style="fill:#8f7a69; stroke:none;" d="M350 624L351 625L350 624z"/>
<path style="fill:#c0cfa6; stroke:none;" d="M369 624L370 625L369 624M254 625L255 626L254 625z"/>
<path style="fill:#8f7a69; stroke:none;" d="M255 625L256 626L255 625M274 625L275 626L274 625z"/>
<path style="fill:#c0cfa6; stroke:none;" d="M275 625L276 626L275 625M346.667 625.333L347.333 625.667L346.667 625.333z"/>
<path style="fill:#8f7a69; stroke:none;" d="M348 625L349 626L348 625z"/>
<path style="fill:#c0cfa6; stroke:none;" d="M368 625L369 626L368 625M256 626L257 627L256 626z"/>
<path style="fill:#8f7a69; stroke:none;" d="M277 626L278 627L277 626z"/>
<path style="fill:#c0cfa6; stroke:none;" d="M278 626L279 627L278 626M344 626L345 627L344 626z"/>
<path style="fill:#8f7a69; stroke:none;" d="M345 626L346 627L345 626M366 626L367 627L366 626z"/>
<path style="fill:#c0cfa6; stroke:none;" d="M257 627L258 628L257 627z"/>
<path style="fill:#8f7a69; stroke:none;" d="M258 627L259 628L258 627M279.667 627.333L280.333 627.667L279.667 627.333z"/>
<path style="fill:#c0cfa6; stroke:none;" d="M281 627L282 628L281 627M341 627L342 628L341 627z"/>
<path style="fill:#8f7a69; stroke:none;" d="M342 627L343 628L342 627M364 627L365 628L364 627z"/>
<path style="fill:#c0cfa6; stroke:none;" d="M365 627L366 628L365 627M259 628L260 629L259 628z"/>
<path style="fill:#8f7a69; stroke:none;" d="M260 628L261 629L260 628M282.667 628.333L283.333 628.667L282.667 628.333z"/>
<path style="fill:#c0cfa6; stroke:none;" d="M284 628L285 629L284 628M337.667 628.333L338.333 628.667L337.667 628.333z"/>
<path style="fill:#8f7a69; stroke:none;" d="M339 628L340 629L339 628M362 628L363 629L362 628z"/>
<path style="fill:#c0cfa6; stroke:none;" d="M363 628L364 629L363 628M261 629L262 630L261 629z"/>
<path style="fill:#8f7a69; stroke:none;" d="M262 629L263 630L262 629M286 629L287 630L286 629z"/>
<path style="fill:#c0cfa6; stroke:none;" d="M287.667 629.333L288.333 629.667L287.667 629.333M334 629L335 630L334 629z"/>
<path style="fill:#8f7a69; stroke:none;" d="M335 629L336 630L335 629M360 629L361 630L360 629z"/>
<path style="fill:#c0cfa6; stroke:none;" d="M361 629L362 630L361 629M263 630L264 631L263 630z"/>
<path style="fill:#8f7a69; stroke:none;" d="M290.667 630.333L291.333 630.667L290.667 630.333z"/>
<path style="fill:#c0cfa6; stroke:none;" d="M292.667 630.333L293.333 630.667L292.667 630.333M328 630L328 631L331 631L328 630z"/>
<path style="fill:#8f7a69; stroke:none;" d="M331.667 630.333L332.333 630.667L331.667 630.333M358 630L359 631L358 630z"/>
<path style="fill:#c0cfa6; stroke:none;" d="M359 630L360 631L359 630M265 631L266 632L265 631z"/>
<path style="fill:#8f7a69; stroke:none;" d="M266 631L267 632L266 631M295.667 631.333L296.333 631.667L295.667 631.333z"/>
<path style="fill:#c0cfa6; stroke:none;" d="M297 631L297 632L301 632L297 631M322 631L322 632L325 632L322 631z"/>
<path style="fill:#8f7a69; stroke:none;" d="M325.667 631.333L326.333 631.667L325.667 631.333M356 631L357 632L356 631z"/>
<path style="fill:#c0cfa6; stroke:none;" d="M357 631L358 632L357 631M267 632L268 633L267 632z"/>
<path style="fill:#8f7a69; stroke:none;" d="M268 632L269 633L268 632M304 632L304 633L307 633L304 632z"/>
<path style="fill:#c0cfa6; stroke:none;" d="M307 632L307 633L315 633L307 632z"/>
<path style="fill:#8f7a69; stroke:none;" d="M315 632L315 633L319 633L315 632M354 632L355 633L354 632z"/>
<path style="fill:#c0cfa6; stroke:none;" d="M355 632L356 633L355 632M269 633L270 634L269 633z"/>
<path style="fill:#8f7a69; stroke:none;" d="M270 633L271 634L270 633M352 633L353 634L352 633z"/>
<path style="fill:#c0cfa6; stroke:none;" d="M353 633L354 634L353 633M272 634L273 635L272 634z"/>
<path style="fill:#8f7a69; stroke:none;" d="M273 634L274 635L273 634M349 634L350 635L349 634z"/>
<path style="fill:#c0cfa6; stroke:none;" d="M350 634L351 635L350 634M274 635L275 636L274 635z"/>
<path style="fill:#8f7a69; stroke:none;" d="M275 635L276 636L275 635M346 635L347 636L346 635z"/>
<path style="fill:#c0cfa6; stroke:none;" d="M347.667 635.333L348.333 635.667L347.667 635.333M277 636L278 637L277 636z"/>
<path style="fill:#8f7a69; stroke:none;" d="M278 636L279 637L278 636M344 636L345 637L344 636z"/>
<path style="fill:#c0cfa6; stroke:none;" d="M345 636L346 637L345 636M280 637L281 638L280 637z"/>
<path style="fill:#8f7a69; stroke:none;" d="M281.667 637.333L282.333 637.667L281.667 637.333M340 637L341 638L340 637z"/>
<path style="fill:#c0cfa6; stroke:none;" d="M341.667 637.333L342.333 637.667L341.667 637.333M284 638L285 639L284 638z"/>
<path style="fill:#8f7a69; stroke:none;" d="M285 638L286 639L285 638M336 638L337 639L336 638z"/>
<path style="fill:#c0cfa6; stroke:none;" d="M337.667 638.333L338.333 638.667L337.667 638.333M288 639L289 640L288 639z"/>
<path style="fill:#8f7a69; stroke:none;" d="M289.667 639.333L290.333 639.667L289.667 639.333M331.667 639.333L332.333 639.667L331.667 639.333z"/>
<path style="fill:#c0cfa6; stroke:none;" d="M333.667 639.333L334.333 639.667L333.667 639.333M292 640L292 641L295 641L292 640z"/>
<path style="fill:#8f7a69; stroke:none;" d="M295.667 640.333L296.333 640.667L295.667 640.333M325 640L325 641L328 641L325 640z"/>
<path style="fill:#c0cfa6; stroke:none;" d="M328.667 640.333L329.333 640.667L328.667 640.333M299 641L299 642L305 642L299 641z"/>
<path style="fill:#8f7a69; stroke:none;" d="M305 641L305 642L308 642L305 641M310 641L310 642L319 642L310 641z"/>
<path style="fill:#c0cfa6; stroke:none;" d="M319 641L319 642L323 642L319 641z"/>
</svg>
