<svg xmlns="http://www.w3.org/2000/svg" viewBox="0 0 283.46 283.46"><defs><style>.cls-1{fill:#ec008c;}.cls-2{fill:#fff;}</style></defs><g id="Layer_2" data-name="Layer 2"><g id="Barrandov"><g id="newsbarrandov"><rect class="cls-1" width="283.46" height="283.46"/><g id="logo"><path class="cls-2" d="M222.61,176.14a3.28,3.28,0,1,1,3-3.27,3,3,0,0,1-3,3.27m0-9.44c-3.55,0-6.35,2.32-6.35,6.16s2.8,6.14,6.35,6.14,6.4-2.3,6.4-6.14-2.83-6.16-6.4-6.16m-11.18,6a3.56,3.56,0,0,1-.75,2.58,2.54,2.54,0,0,1-1.94.78,2.42,2.42,0,0,1-2.12-1.08,3.81,3.81,0,0,1-.61-2.22,3.54,3.54,0,0,1,.78-2.5,2.82,2.82,0,0,1,2.12-.83,4.09,4.09,0,0,1,2.52.8ZM213.15,161a1.7,1.7,0,0,0-1.72,1.64v4.72a6.47,6.47,0,0,0-3-.64,5.66,5.66,0,0,0-4.13,1.57,7.15,7.15,0,0,0-.21,8.9A5.94,5.94,0,0,0,208.7,179a6.11,6.11,0,0,0,4.74-1.94,6.37,6.37,0,0,0,1.39-4.48v-10a1.68,1.68,0,0,0-1.68-1.64m-17.82,5.72a5.94,5.94,0,0,0-4.82,1.88,5.33,5.33,0,0,0-1,3.48v5.31a1.7,1.7,0,0,0,3.39,0v-5a3.25,3.25,0,0,1,.34-1.6,2.21,2.21,0,0,1,2.12-1.08,2.27,2.27,0,0,1,2.14,1.08,3.36,3.36,0,0,1,.31,1.6v5a1.72,1.72,0,0,0,3.44,0V172a5.17,5.17,0,0,0-1.07-3.48,5.88,5.88,0,0,0-4.82-1.88m-11.16,8.79a4.93,4.93,0,0,1-2.56.75,2.59,2.59,0,0,1-2.06-.78,3.46,3.46,0,0,1-.82-2.49,4,4,0,0,1,.62-2.22,2.38,2.38,0,0,1,2.09-1.06,2.48,2.48,0,0,1,1.95.8,4.21,4.21,0,0,1,.78,2.78Zm-2.74-8.77a6,6,0,0,0-4.64,1.88,6.43,6.43,0,0,0-1.44,4.28,6.54,6.54,0,0,0,1.65,4.59,5.73,5.73,0,0,0,4.12,1.55,5.79,5.79,0,0,0,3.2-.88,1.68,1.68,0,0,0,1.56.88,1.66,1.66,0,0,0,1.7-1.62v-4.24a6.51,6.51,0,0,0-1.4-4.51,6.13,6.13,0,0,0-4.74-1.94m-7.61.44a5.63,5.63,0,0,0-2.37-.46c-2.16,0-3.86.59-4.85,1.85a5.39,5.39,0,0,0-1,3.48v5.31a1.71,1.71,0,0,0,3.41,0v-5a3.29,3.29,0,0,1,.33-1.6,2.17,2.17,0,0,1,2-1,2.72,2.72,0,0,1,1.08.26,2.07,2.07,0,0,0,1.06.33,1.47,1.47,0,0,0,1.47-1.52,1.8,1.8,0,0,0-1.11-1.55m-10,0a5.63,5.63,0,0,0-2.37-.46c-2.18,0-3.87.59-4.85,1.85a5.44,5.44,0,0,0-1,3.48v5.31a1.7,1.7,0,0,0,3.4,0v-5a3.42,3.42,0,0,1,.34-1.6,2.17,2.17,0,0,1,2-1,2.72,2.72,0,0,1,1.08.26,2,2,0,0,0,1.06.33,1.47,1.47,0,0,0,1.46-1.47v-.05a1.78,1.78,0,0,0-1.11-1.55m-13.56,8.33a4.87,4.87,0,0,1-2.55.75,2.59,2.59,0,0,1-2.06-.78,3.46,3.46,0,0,1-.82-2.49,4,4,0,0,1,.62-2.22,2.37,2.37,0,0,1,2.08-1.06,2.49,2.49,0,0,1,2,.8,4.24,4.24,0,0,1,.78,2.79Zm-2.73-8.77a5.94,5.94,0,0,0-4.64,1.88,6.39,6.39,0,0,0-1.45,4.29,6.53,6.53,0,0,0,1.65,4.58,6.25,6.25,0,0,0,7.32.67A1.68,1.68,0,0,0,152,179a1.66,1.66,0,0,0,1.7-1.62v-4.23a6.59,6.59,0,0,0-1.39-4.52,6.14,6.14,0,0,0-4.75-1.93M136,175a2.44,2.44,0,0,1-2.11,1.08,2.54,2.54,0,0,1-2-.78,3.6,3.6,0,0,1-.75-2.58v-2.46a4.1,4.1,0,0,1,2.53-.8,2.73,2.73,0,0,1,2.11.82,3.67,3.67,0,0,1,.8,2.51A3.81,3.81,0,0,1,136,175m-1.81-8.28a6.36,6.36,0,0,0-3,.64V162.6A1.7,1.7,0,0,0,129.5,161a1.68,1.68,0,0,0-1.69,1.64v10a6.46,6.46,0,0,0,1.39,4.48A6.17,6.17,0,0,0,134,179a6,6,0,0,0,4.64-1.86,6.47,6.47,0,0,0,1.44-4.3,6.3,6.3,0,0,0-1.57-4.59,5.87,5.87,0,0,0-4.24-1.58"/><path class="cls-2" d="M239.56,166.7A1.7,1.7,0,0,0,237.9,168l-2.39,7.38h-.1L233,168.1a1.63,1.63,0,0,0-1.57-1.4,1.68,1.68,0,0,0-1.88,1.66,3.77,3.77,0,0,0,.33,1.31l2.74,7.19c.51,1.39,1.21,2.14,2.67,2.14s2.21-.77,2.74-2.14l2.57-7.13a4.88,4.88,0,0,0,.33-1.4c0-.9-.29-1.63-1.38-1.63"/><path class="cls-2" d="M112.65,130.08,89,147.46l4.45,14.11-12.08-8.68-12,8.66,4.78-14.08-12.22-8.84H76.55l4.8-14.16,3.55,10.9a4.74,4.74,0,0,0,9-2.94l-8-24.75a4.73,4.73,0,0,0-4.52-3.28h0a4.71,4.71,0,0,0-4.51,3.28l-7,21.46H47.27a4.76,4.76,0,0,0-4.52,3.27,4.91,4.91,0,0,0-.23,1.47,4.74,4.74,0,0,0,2,3.84L62.73,151l-7,21.47a4.75,4.75,0,0,0,7.3,5.32l18.28-13.25,18.28,13.27a4.74,4.74,0,0,0,5.58,0h0a4.71,4.71,0,0,0,1.71-5.31L100,151l18.25-13.28a4.75,4.75,0,1,0-5.48-7.75l-.09.07"/><path class="cls-2" d="M132.21,126.58a3.18,3.18,0,0,1,3.18,2.69,9.46,9.46,0,0,1,6.7-2.69,9.56,9.56,0,0,1,6.56,2.2c1.56,1.42,2.59,3.72,2.59,7.05v10.95a3.25,3.25,0,0,1-3.28,3.13,3.21,3.21,0,0,1-3.23-3.13v-9.34a6.29,6.29,0,0,0-1.12-4.21,3.73,3.73,0,0,0-2.94-1.12c-3.81,0-5.23,3.57-5.23,6.8v7.87a3.24,3.24,0,0,1-3.23,3.14,3.18,3.18,0,0,1-3.23-3.14V129.71A3.18,3.18,0,0,1,132.21,126.58Zm44.95,19.27c0,1.32-.93,2.25-2.79,3a16.55,16.55,0,0,1-6.35,1.07A11.26,11.26,0,0,1,155.89,138a11.7,11.7,0,0,1,3.18-8.27,11.33,11.33,0,0,1,8.26-3.13,10.86,10.86,0,0,1,8,2.94,9.87,9.87,0,0,1,2.78,7c0,2.3-1.17,3.62-3.18,3.62H162.69c.58,3,2.59,4.6,5.77,4.6,3.42,0,4.69-1.52,6.31-1.52A2.48,2.48,0,0,1,177.16,145.85Zm-5.33-9.93a4.37,4.37,0,0,0-4.45-4.25c-2.69,0-4.3,1.66-4.75,4.25Zm33.8,7.05h.19l4.55-14a3.15,3.15,0,0,1,3.13-2.4,2.92,2.92,0,0,1,3.23,3,10,10,0,0,1-.68,2.69l-5.43,13.59c-1,2.6-2.5,4.06-5.19,4.06s-4.1-1.42-5-4.06l-2-5.52-2.15,5.52c-1,2.6-2.5,4.06-5.19,4.06s-4.1-1.42-5.08-4.06l-5.19-13.64a7.07,7.07,0,0,1-.63-2.5c0-1.76,1.27-3.13,3.57-3.13,1.95,0,2.64,1.52,3,2.64L191.25,143h.2l4.11-10.57-.05-.19a8.47,8.47,0,0,1-.64-2.5,2.88,2.88,0,0,1,3.23-3.13c2,0,2.64,1.52,3,2.64Zm27.63-10.22c-2,0-2.93-1.08-5.13-1.08-1.32,0-2.3.44-2.3,1.56s1,1.52,2.1,2c1.57.64,3,1,4.6,1.81a6,6,0,0,1,3.67,5.72c0,4.11-3.47,7.19-9.15,7.19-4.5,0-8.56-1-8.56-4a2.48,2.48,0,0,1,2.5-2.54c2,0,3,1.52,5.82,1.52,1.61,0,2.59-.59,2.59-1.77s-.83-1.51-2.05-2.05c-1.42-.64-3.18-1.12-4.75-1.91a6.1,6.1,0,0,1-3.61-5.92c0-4.1,3.13-6.7,8.8-6.7,4.3,0,7.92,1,7.92,3.57A2.45,2.45,0,0,1,233.26,132.75Z"/></g></g></g></g></svg>