<svg xmlns="http://www.w3.org/2000/svg" viewBox="0 0 283.46 283.46"><defs><style>.cls-1{fill:#55bb90;}.cls-2{fill:#fff;}</style></defs><g id="Layer_2" data-name="Layer 2"><g id="Ostatní_CZ_kanály" data-name="Ostatní CZ kanály"><g id="noetv"><rect class="cls-1" width="283.46" height="283.46"/><g id="logo"><path class="cls-2" d="M47.32,136.07c1.12-2.87,3-3.84,6.21-3.26a29,29,0,0,1,9.22,3.68,69.54,69.54,0,0,1,8,5.39,2.84,2.84,0,0,0,2.56.55c.81-.19,1.64-.33,2.47-.44,1.12-.14,1.87.29,2.07,1.12s-.19,1.58-1.26,2a1.09,1.09,0,0,0-.23.18,22.92,22.92,0,0,0,6.48,2.73,3,3,0,0,0-.63-1.23,34.22,34.22,0,0,1-5-12.43,13.22,13.22,0,0,1,.25-6.64,6.31,6.31,0,0,1,2.86-3.59,2.56,2.56,0,0,1,3.58.36,10.57,10.57,0,0,1,1.81,2.08A33.08,33.08,0,0,1,91,141a16.48,16.48,0,0,1,0,4.6,7.12,7.12,0,0,1-1.67,3.87c-.39.43-.37.67.07,1.06a19.39,19.39,0,0,0,7,3.6c3.67,1.2,7.47,1.92,11.17,3a18.11,18.11,0,0,1,3.95,1.61,3.76,3.76,0,0,1,1.44,1.12c.57,1,1.37,1,2.34,1,2.83,0,5.66.09,8.49.13a31.07,31.07,0,0,0,5.19-.33c.26,0,.64,0,.73-.26s-.24-.42-.4-.6a32.34,32.34,0,0,1-7.33-12.86,20,20,0,0,1-.79-9.11,6,6,0,0,1,1.74-3.56,2.83,2.83,0,0,1,4.26-.09,15.81,15.81,0,0,1,3.4,4.85,52.19,52.19,0,0,1,5.08,14.86,14.84,14.84,0,0,1,.16,5.75c-.1.5.13.59.5.66,1.84.35,3.68.66,5.51,1.07.72.16.75-.14.7-.67-.13-1.11-.28-2.22-.36-3.33-.31-4.26,1.1-6.56,5-8.48a23.22,23.22,0,0,0,10.57-9.75,17.82,17.82,0,0,0,2.26-7.66c.18-3.94-1.45-7.22-3.87-10.19a62.92,62.92,0,0,0-6-6.09c-3.19-2.94-6.42-5.84-9.52-8.88a41.35,41.35,0,0,1-7.46-10.4,100.89,100.89,0,0,1-9.81-26.75A51.5,51.5,0,0,1,122,56.42c.18-4.21.92-8.29,3.38-11.86.19-.27.41-.53.61-.8,1-1.38,1.82-1.66,3.76-.57a5.19,5.19,0,0,1,1.4,1.2A48.93,48.93,0,0,0,142,53.17c7,4.42,14,8.78,20.67,13.65s12.75,9.89,17.85,16.23a35.36,35.36,0,0,1,7.22,13.79,25.14,25.14,0,0,1-2.27,17.82c-.9,1.78-.9,1.77.85,2.77a12.68,12.68,0,0,0,5.52,1.86,8.85,8.85,0,0,0,7.14-3.1,29,29,0,0,0,5.19-8.19c1.64-3.58,3.18-7.21,4.82-10.8a15.12,15.12,0,0,1,3.07-4.77,4.66,4.66,0,0,1,5.08-1.24,14.8,14.8,0,0,1,3.44,1.73,28.2,28.2,0,0,1,6.68,6.67,46.18,46.18,0,0,1,8.3,17.81,19.84,19.84,0,0,1,.31,7.83,5.51,5.51,0,0,1-2.65,3.88,27.37,27.37,0,0,1-6.85,2.89,77.28,77.28,0,0,1-9.64,2.19c-1,.16-1,.15-.47,1a56.74,56.74,0,0,1,5.28,14.44c1.69,6.78,2.8,13.68,4,20.55,1.28,7.1,2.34,14.23,4.36,21.17a22.62,22.62,0,0,0,3.57,7.81,1.69,1.69,0,0,1,.17,1.75c-1.09,3-4,4.61-7.49,4.27a29.59,29.59,0,0,1-11.32-3.94A100.72,100.72,0,0,1,194,185.59a97.53,97.53,0,0,1-14.46-16.76,37.05,37.05,0,0,1-5.87-12.54c-.06-.27-.1-.55-.15-.82-.2-1.08-.5-1.24-1.57-.78-1.36.6-2.7,1.23-4.05,1.82a71.19,71.19,0,0,1-16.44,4.57,18.7,18.7,0,0,0-3.8,1c-.27.11-.6.16-.8.51,2.05.68,4.11,1.31,6.11,2.09,7.61,3,14.44,7.12,19.88,13.33a40.27,40.27,0,0,1,9.23,19,45.52,45.52,0,0,1,.8,11.87c-.7,10.73-3.78,20.69-10.07,29.53-1.42,2-1.43,2-3.86,2h-1.63c0-.42.27-.63.46-.87A48.06,48.06,0,0,0,175,228a55.69,55.69,0,0,0,4.47-17.71,43.27,43.27,0,0,0-2.29-18.58,37.78,37.78,0,0,0-15.31-18.81,59,59,0,0,0-16.68-7.32.94.94,0,0,0-1,.19,1.56,1.56,0,0,1-2.56-.59,1,1,0,0,0-.83-.7c-2.48-.53-5-1-7.5-1.35a6.64,6.64,0,0,0-2.36.49,49,49,0,0,1-11.21.59c-1.73,0-3.47-.06-5.21-.09a.79.79,0,0,0-.88.46,12.33,12.33,0,0,1-3.37,4.24A65.85,65.85,0,0,1,94.76,179a8.53,8.53,0,0,1-3.88.92,2.76,2.76,0,0,1-2.75-3.4,11.58,11.58,0,0,1,3.61-5.94,34.3,34.3,0,0,1,16.64-8.91l1-.28a10.3,10.3,0,0,0-2.88-1.16c-3.67-1.09-7.44-1.81-11.08-3s-6.88-2.7-9.46-5.52a.93.93,0,0,0-.8-.36,16.55,16.55,0,0,1-8-1.94,44,44,0,0,1-5.51-3,2,2,0,0,0-1.34-.31c-5.73.42-11.35.05-16.65-2.46a13.63,13.63,0,0,1-5-3.85,9.72,9.72,0,0,1-1.36-2.85Zm157.22-.66A16.77,16.77,0,0,1,200,135c-1-.29-1.82-.74-2-1.84a2.49,2.49,0,0,1,1.22-2.33,12.84,12.84,0,0,1,2.64-1.46c4.11-1.77,7.9-1.48,11.25,1.71a1,1,0,0,0,.91.26c3.32-.48,6.63-1,9.89-1.83a28.69,28.69,0,0,0,7-2.48,3.44,3.44,0,0,0,1.81-2.66,14.5,14.5,0,0,0-.09-5.09A43.14,43.14,0,0,0,222.54,99,16,16,0,0,0,217,94.65c-1.66-.74-2.33-.55-3.4.94a21.69,21.69,0,0,0-2,3.6c-1.76,3.87-3.27,7.85-5.19,11.64a28.63,28.63,0,0,1-6.3,8.84,10.93,10.93,0,0,1-9.26,2.94,19.23,19.23,0,0,1-8.33-3.75,2.9,2.9,0,0,1-1.1-2.27,6.14,6.14,0,0,1,1.05-3.3,22.09,22.09,0,0,0,2.15-14.65,31.06,31.06,0,0,0-6-12.53,76.23,76.23,0,0,0-14.48-14.06c-7.06-5.49-14.64-10.21-22.18-15-4.66-3-9.3-5.93-13-10.15-.74-.85-.81-.82-1.4.18a18.87,18.87,0,0,0-2.36,9,49.36,49.36,0,0,0,1.09,12,97.5,97.5,0,0,0,8.54,24.37,41.72,41.72,0,0,0,6.22,9.73c3.25,3.57,6.89,6.73,10.45,10a64.81,64.81,0,0,1,7.69,7.85A16.75,16.75,0,0,1,163,133.49a23.18,23.18,0,0,1-7.65,13.73,30.67,30.67,0,0,1-6.86,4.64,5,5,0,0,0-3.08,3.72,13.06,13.06,0,0,0,.06,2.93c0,.74.35.88,1,.53a6.6,6.6,0,0,1,1.18-.42c2.74-.81,5.57-1.16,8.36-1.76a64.38,64.38,0,0,0,14.2-5,7.81,7.81,0,0,1,4.26-.63,2.11,2.11,0,0,1,2.06,2.21,16.82,16.82,0,0,0,.41,2.73,33.77,33.77,0,0,0,5,10.63,93.92,93.92,0,0,0,14.08,16.3,100.29,100.29,0,0,0,20.07,15.13,28.23,28.23,0,0,0,9.67,3.65,4.86,4.86,0,0,0,3.91-.78.86.86,0,0,0,.24-1.35,14,14,0,0,1-1.24-2.28A59.47,59.47,0,0,1,225,184.91c-1.85-8.81-3.14-17.71-4.88-26.54a102.38,102.38,0,0,0-4.35-16.51,30.26,30.26,0,0,0-3.15-6.28,1.25,1.25,0,0,0-1.38-.61A51.75,51.75,0,0,1,204.54,135.41ZM87.88,143.25a28.24,28.24,0,0,0-1.88-9,47.62,47.62,0,0,0-2.89-6.78c-.44-.83-.66-.88-1.41-.33a3.21,3.21,0,0,0-1.15,1.61,8.94,8.94,0,0,0-.27,4.32,31.68,31.68,0,0,0,5.87,13.76c.5.69.65.68,1.07-.09A6.75,6.75,0,0,0,87.88,143.25ZM132.72,157c0-.15,0-.49-.08-.82a43.14,43.14,0,0,0-2.92-11,32.67,32.67,0,0,0-3.84-7.51c-.23-.32-.44-.88-.87-.77s-.46.66-.57,1.06a11.15,11.15,0,0,0-.13,4.74,28.06,28.06,0,0,0,7.46,15c.22.24.44.71.74.6s.15-.63.21-1ZM91.56,176.5c3-.17,17.17-9.34,18-11.72a3.76,3.76,0,0,0-.5.07,32.74,32.74,0,0,0-7,2.43,25.77,25.77,0,0,0-9.42,7.12A5.16,5.16,0,0,0,91.56,176.5ZM66.34,142.92a.39.39,0,0,0-.22-.38A46.62,46.62,0,0,0,56.47,137a11,11,0,0,0-4.62-1c-.41,0-.93-.07-1.12.38s.15.79.37,1.15a2.78,2.78,0,0,0,.3.4,11.33,11.33,0,0,0,3.46,2.6A22.55,22.55,0,0,0,63,142.79,13,13,0,0,0,66.34,142.92Zm140.93-10.85a2.87,2.87,0,0,0-2.54,0Z"/><path class="cls-2" d="M105.8,240.94c-1.53-.31-3.08-.41-4.6-.84a19.22,19.22,0,1,1,10.16.21c-1.28.34-2.6.34-3.88.63Zm11.64-19.26a10.76,10.76,0,1,0-10.74,10.74A10.86,10.86,0,0,0,117.44,221.68Z"/><path class="cls-2" d="M78.91,240.94a7.11,7.11,0,0,1-1.32-1.13q-9.84-9.9-19.68-19.78c-.21-.22-.4-.67-.76-.5s-.11.56-.11.86c0,6.16,0,12.32,0,18.49,0,1.18-.28,1.47-1.48,1.48h-5c-1.46,0-1.73-.25-1.74-1.69l-.06-32.52c0-.75,0-1.51,0-2.26,0-.57,0-1.2.65-1.39a1.85,1.85,0,0,1,2,.26c2.49,2.42,5,4.82,7.5,7.23l12.84,12.35c.2.19.37.62.71.44s.11-.51.11-.78q0-8.79,0-17.56c0-1.33.16-1.49,1.51-1.5,1.82,0,3.64,0,5.46,0,1,0,1.36.32,1.36,1.35q0,17.59,0,35.2a1.55,1.55,0,0,1-.8,1.44Z"/><path class="cls-2" d="M132.55,221.56V204.43c0-1.28.19-1.49,1.44-1.49h22.1c1.18,0,1.43.26,1.43,1.43,0,1.62,0,3.25,0,4.87,0,1.13-.3,1.42-1.46,1.42-4.78,0-9.57,0-14.36,0-.8,0-1,.25-1,1,.05,1.62.05,3.24,0,4.87,0,.72.17,1,.93.95,3.9,0,7.79,0,11.68,0,1.29,0,1.53.23,1.53,1.5,0,1.6,0,3.19,0,4.79,0,1.21-.24,1.45-1.49,1.45H142.7c-2,0-2,0-2,2,0,1.51,0,3,0,4.54,0,.67.21.85.87.85,4.79,0,9.57,0,14.36,0,1.3,0,1.57.28,1.57,1.58v4.62c0,1.28-.29,1.58-1.57,1.58H134c-1.19,0-1.47-.3-1.47-1.5Z"/></g></g></g></g></svg>