<svg xmlns="http://www.w3.org/2000/svg" viewBox="0 0 283.46 283.46"><defs><style>.cls-1{fill:#2e3e96;}.cls-2{fill:#fff;}.cls-3{fill:#50c5d5;}</style></defs><title>nova2</title><g id="Layer_2" data-name="Layer 2"><g id="Nova"><g id="nova2"><rect class="cls-1" width="283.46" height="283.46"/><g id="logo"><path class="cls-2" d="M42.52,123.68h9.15v4.79A13.9,13.9,0,0,1,63.07,123c8.72,0,14.69,6.33,14.69,15v22H68.63V139.59a8.06,8.06,0,0,0-8.45-8.31,8.12,8.12,0,0,0-8.51,8.31v20.33H42.52Z"/><path class="cls-2" d="M102.36,152.24c5.63,0,9.92-4.5,9.92-10.48s-4.29-10.41-9.92-10.41-9.84,4.5-9.84,10.41,4.22,10.48,9.84,10.48m0-29.27c11,0,19.36,8.17,19.36,18.79s-8.38,18.85-19.36,18.85S83,152.46,83,141.76,91.39,123,102.36,123"/><path class="cls-2" d="M121.44,123.68h9.85l10,26.67,10.06-26.67h9.22l-14.42,36.24H135.87Z"/><path class="cls-2" d="M179.75,152.24c5.63,0,9.92-4.5,9.92-10.48s-4.29-10.41-9.92-10.41-9.85,4.5-9.85,10.41,4.22,10.48,9.85,10.48m9.92,3.17a15.36,15.36,0,0,1-11.75,5.2c-9.92,0-17.52-8.15-17.52-18.85S168,123,177.92,123a15.17,15.17,0,0,1,11.75,5.29v-4.58h9.15v36.23h-9.15Z"/><path class="cls-3" d="M213.88,152,229,139.41a6.11,6.11,0,0,0,2.5-4.74c0-2-1.29-3.7-4.37-3.7-2.55,0-4.37,1.51-4.37,4.79l-9.16-1c.52-7.8,5.67-11.87,13.53-11.87s13.55,4.32,13.55,11.56c0,4.74-2.77,8.64-6.1,11.25L226.69,152h14.25v7.81H213.88Z"/></g></g></g></g></svg>