<svg xmlns="http://www.w3.org/2000/svg" viewBox="0 0 283.46 283.46"><defs><style>.cls-1{fill:#181a19;}.cls-2{fill:#fff;}.cls-3{fill:#6b89c5;}</style></defs><g id="Layer_2" data-name="Layer 2"><g id="Nova"><g id="novasport4"><rect class="cls-1" width="283.46" height="283.46"/><g id="logo"><path class="cls-2" d="M43.68,111.22h4.63v2.42a7,7,0,0,1,5.77-2.78,7.23,7.23,0,0,1,7.46,7.59v11.12H56.91v-10.3a4.3,4.3,0,0,0-8.6,0v10.3H43.68Zm30.3-.35a9.53,9.53,0,1,1-9.81,9.51A9.5,9.5,0,0,1,74,110.87m0,14.82a5.3,5.3,0,0,0,0-10.58,5.3,5.3,0,0,0,0,10.58m19.68-1,5.08-13.5h4.68l-7.31,18.35H90.9l-7.3-18.35h5Zm24.51,2.58a7.79,7.79,0,0,1-6,2.63c-5,0-8.88-4.13-8.88-9.55s3.85-9.51,8.88-9.51a7.69,7.69,0,0,1,6,2.67v-2.32h4.63v18.36h-4.63Zm-5-1.61a5.3,5.3,0,0,0,0-10.58,5.3,5.3,0,0,0,0,10.58M51,161.15c.54,2.46,2.12,3.75,5.14,3.75,2.56,0,4.2-1,4.2-2.71,0-5.93-17.1-1.93-17.1-14.53,0-6.07,5.59-10.61,12.65-10.61,7.22,0,12.05,3.89,12.9,9.72l-8.51,1.73c-.54-2.56-2-3.75-4.68-3.75-2.27,0-3.66,1-3.66,2.67C52,152.85,69,148.9,69,161.94,69,168,63.31,172.6,55.9,172.6s-12.65-4-13.38-9.78Zm23.46-23.61H89.74c8.2,0,13.38,5.13,13.38,12.1S97.94,161.5,89.74,161.5H82.87v10.62h-8.4Zm15.27,16.55a4.57,4.57,0,1,0,0-9.14H82.87v9.14Zm34.87-17c10.32,0,18.27,7.74,18.27,17.77s-7.95,17.79-18.27,17.79-18.29-7.76-18.29-17.79,8-17.77,18.29-17.77m0,27.86c5.43,0,9.58-4.4,9.58-10.09s-4.15-10.07-9.58-10.07S115,149.14,115,154.82s4.16,10.09,9.59,10.09m35-4.15h-3.41v11.36h-8.41V137.54h15.32c7.86,0,12.84,4.94,12.84,11.61a11.1,11.1,0,0,1-7.06,10.57l8.06,12.4H167Zm3.5-7.66a4.08,4.08,0,1,0,0-8.16h-6.91v8.16ZM178,137.54h28.64V145H196.52v27.16h-8.39V145H178Z"/><path class="cls-3" d="M212.12,166.14h16.56V172h8.38v-5.9h3.88v-7.4h-3.88V137.63h-8.38v.05l-.05-.05-16.51,21.11Zm8.95-7.4,7.61-9.73v9.73Z"/></g></g></g></g></svg>