<svg xmlns="http://www.w3.org/2000/svg" viewBox="0 0 283.46 283.46"><defs><style>.cls-1{fill:#8b621f;}.cls-2{fill:#fff;}</style></defs><g id="Layer_2" data-name="Layer 2"><g id="Nova"><g id="novagold"><rect class="cls-1" width="283.46" height="283.46"/><g id="logo"><path class="cls-2" d="M46.8,98.73h6.53v3.42a9.91,9.91,0,0,1,8.14-3.93c6.22,0,10.48,4.52,10.48,10.71v15.65H65.42V110.07a6,6,0,0,0-12.09,0v14.51H46.8Z"/><path class="cls-2" d="M89.46,119.1a7.47,7.47,0,0,0,0-14.92c-4,0-7,3.22-7,7.44s3,7.48,7,7.48m0-20.89c7.83,0,13.81,5.83,13.81,13.41s-6,13.46-13.81,13.46-13.81-5.82-13.81-13.46,6-13.41,13.81-13.41"/><path class="cls-2" d="M103,98.73h7l7.13,19,7.18-19H131l-10.3,25.85h-7.33Z"/><path class="cls-2" d="M144.63,119.1a7.47,7.47,0,1,0-7-7.48c0,4.26,3,7.48,7,7.48m7.08,2.27a10.94,10.94,0,0,1-8.39,3.71c-7.08,0-12.5-5.82-12.5-13.46s5.42-13.41,12.5-13.41a10.82,10.82,0,0,1,8.39,3.77V98.71h6.53v25.86h-6.53Z"/><path class="cls-2" d="M68.25,135.19A25,25,0,0,1,91.19,149.3l-11,4.17a13.26,13.26,0,0,0-12-7.44c-7.65,0-13.49,6.2-13.49,14.2s5.84,14.18,13.49,14.18c6.33,0,10.5-3.62,11.82-7.24H64.15V156.75H93.34c1.89,17.59-11.11,28.5-25.09,28.5-14.54,0-25.73-10.91-25.73-25s11.19-25,25.73-25"/><path class="cls-2" d="M124.49,174.4c7.66,0,13.49-6.19,13.49-14.18S132.15,146,124.49,146,111,152.22,111,160.22s5.83,14.18,13.48,14.18m0-39.22c14.54,0,25.73,10.91,25.73,25s-11.19,25-25.73,25-25.72-10.92-25.72-25,11.19-25,25.72-25"/><path class="cls-2" d="M157.27,135.79h11.82V174h21.55v10.42H157.27Z"/><path class="cls-2" d="M214.94,174c8.27,0,13.77-5.84,13.77-13.91s-5.5-13.91-13.77-13.91h-7.36V174ZM195.76,135.8H216c14.47,0,25,10.57,25,24.33s-10.49,24.34-25,24.34H195.76Z"/></g></g></g></g></svg>