<svg xmlns="http://www.w3.org/2000/svg" viewBox="0 0 283.46 283.46"><defs><style>.cls-1{fill:#181a19;}.cls-2{fill:#fff;}.cls-3{fill:#50c5d5;}</style></defs><g id="Layer_2" data-name="Layer 2"><g id="Nova"><g id="novasport2"><rect class="cls-1" width="283.46" height="283.46"/><g id="logo"><path class="cls-2" d="M43.67,110.3h4.77v2.49a7.26,7.26,0,0,1,6-2.85,7.43,7.43,0,0,1,7.66,7.81V129.2H57.28V118.59a4.42,4.42,0,0,0-8.84,0V129.2H43.67Z"/><path class="cls-2" d="M74.86,125.19a5.46,5.46,0,1,0-5.13-5.47,5.22,5.22,0,0,0,5.13,5.47m0-15.26a9.81,9.81,0,1,1-10.08,9.79,9.77,9.77,0,0,1,10.08-9.79"/><path class="cls-2" d="M84.79,110.3h5.13l5.22,13.9,5.24-13.9h4.8l-7.51,18.9H92.31Z"/><path class="cls-2" d="M115.27,125.19a5.46,5.46,0,1,0-5.14-5.47,5.22,5.22,0,0,0,5.14,5.47m5.17,1.65a8,8,0,0,1-6.12,2.71c-5.18,0-9.14-4.25-9.14-9.83s4-9.79,9.14-9.79a7.89,7.89,0,0,1,6.12,2.75v-2.39h4.77v18.9h-4.77Z"/><path class="cls-3" d="M214.51,165.39l14.8-12.31a6,6,0,0,0,2.43-4.62c0-1.94-1.27-3.62-4.26-3.62-2.49,0-4.28,1.48-4.28,4.68l-8.95-1c.51-7.64,5.54-11.6,13.23-11.6s13.21,4.21,13.21,11.29c0,4.62-2.69,8.44-5.94,11L227,165.39h13.93V173H214.51Z"/><path class="cls-2" d="M51.27,161.74c.56,2.54,2.19,3.87,5.28,3.87,2.66,0,4.33-1,4.33-2.8,0-6.1-17.6-2-17.6-14.95,0-6.26,5.75-10.94,13-10.94,7.42,0,12.42,4,13.28,10l-8.75,1.78c-.56-2.64-2.09-3.86-4.83-3.86-2.34,0-3.76,1-3.76,2.75,0,5.59,17.59,1.51,17.59,14.94,0,6.26-5.9,11-13.53,11s-13-4.17-13.78-10.07Z"/><path class="cls-2" d="M91.17,154.45a4.71,4.71,0,1,0,0-9.41H84.1v9.41Zm-15.72-17H91.17c8.44,0,13.78,5.28,13.78,12.45s-5.34,12.21-13.78,12.21H84.1V173H75.45Z"/><path class="cls-2" d="M127,165.59c5.6,0,9.87-4.53,9.87-10.38s-4.27-10.37-9.87-10.37-9.86,4.53-9.86,10.37,4.26,10.38,9.86,10.38m0-28.68c10.64,0,18.82,8,18.82,18.3s-8.18,18.32-18.82,18.32-18.81-8-18.81-18.32,8.18-18.3,18.81-18.3"/><path class="cls-2" d="M166.71,153.44a4.2,4.2,0,1,0,0-8.4h-7.12v8.4Zm-3.62,7.88h-3.5V173h-8.65V137.42h15.77c8.09,0,13.22,5.08,13.22,12a11.43,11.43,0,0,1-7.27,10.88L181,173H170.68Z"/><path class="cls-2" d="M192.43,145H182v-7.62H211.5V145H201.08v28h-8.65Z"/></g></g></g></g></svg>