<svg xmlns="http://www.w3.org/2000/svg" viewBox="0 0 283.46 283.46"><defs><style>.cls-1{fill:#f15647;}.cls-2{fill:#fff;}</style></defs><g id="Layer_2" data-name="Layer 2"><g id="Nova"><g id="novalady"><rect class="cls-1" width="283.46" height="283.46"/><g id="logo"><path id="n" class="cls-2" d="M42.52,98.65h6.6v3.45a10,10,0,0,1,8.22-4C63.64,98.14,68,102.71,68,109v15.84h-6.6V110.12a5.81,5.81,0,0,0-6.09-6,5.86,5.86,0,0,0-6.14,6v14.67h-6.6Z"/><path id="o" class="cls-2" d="M85.68,119.26c4.06,0,7.15-3.25,7.15-7.57a7.14,7.14,0,1,0-14.26,0c0,4.32,3.05,7.57,7.11,7.57m0-21.12c7.91,0,14,5.89,14,13.55s-6,13.61-14,13.61-14-5.89-14-13.61,6-13.55,14-13.55"/><polygon id="v" class="cls-2" points="99.38 98.65 106.49 98.65 113.7 117.89 120.96 98.65 127.61 98.65 117.2 124.79 109.79 124.79 99.38 98.65"/><path id="a" class="cls-2" d="M141.46,119.26a7.55,7.55,0,1,0-7.11-7.57c0,4.32,3.05,7.57,7.11,7.57m7.16,2.28a11.08,11.08,0,0,1-8.48,3.76c-7.16,0-12.64-5.89-12.64-13.61S133,98.14,140.14,98.14a11,11,0,0,1,8.48,3.81v-3.3h6.59v26.14h-6.59Z"/><path id="l" class="cls-2" d="M86,166.75l-1.48,18.57H64.38v-.62a25.32,25.32,0,0,0,11.71-4c4.52-3.2,7.49-7.73,9.21-14ZM60.32,185.32H42.52v-.62c4.84-.7,6.56-2.58,6.56-9.06V145.83c0-6.48-1.72-8.36-6.56-9.06v-.62H67.66v.62c-5.16.7-7.34,2.34-7.34,9.06Z"/><path id="y" class="cls-2" d="M226,148.71l-.55-.46c1.25-2,2.5-5.16,2.5-6.64,0-3.36-1.88-4.6-5.55-4.84v-.62h18.5v.62c-5.23.7-10.77,5.47-14.9,11.94m-16.79,13.74-10.93-19.51c-2.11-3.75-4.84-5.62-8.43-6.17v-.62h25.76v.62c-3.43.16-5.62,1.95-5.62,3.83,0,1.24.86,2.88,2.11,5.15l8.27,15v14.91c0,6.71,2,8.35,6.56,9v.63H202.69v-.63c4.84-.7,6.56-2.58,6.56-9Z"/><path class="cls-2" d="M99.6,178.46a28.19,28.19,0,0,1,.63-5.16L99.6,173c-1.32,3.28-2.42,5.62-4.84,8.12A11.18,11.18,0,0,1,88,184.7v.62h18.19v-.62c-4.14-.31-6.56-2.42-6.56-6.24"/><path class="cls-2" d="M163.21,136.15v.62a18.75,18.75,0,0,1,6.09,1.72c7.1,3.28,12.18,10.77,12.18,22.4s-3.6,18-9.53,21.31a24,24,0,0,1-8.74,2.5v.63a40.84,40.84,0,0,0,11.87-1.72c10.92-3.28,18.57-11.63,18.57-23,0-16-13.11-23.73-30.44-24.43"/><path class="cls-2" d="M141.2,136.77c4.84.7,6.55,2.58,6.55,9.06v29.82c0,6.39-1.68,8.3-6.38,9a2.93,2.93,0,0,1-1.05,0c-3.47-.62-6.27-3.07-8.71-9L116.07,135.6h-2.34l-4.84,12.26,6.17,16.62H102.73l-.86,2.34H116l2.73,7.26a19.48,19.48,0,0,1,1.72,6.33c0,3-1.88,4.06-5.39,4.29v.63H159V136.15H141.2Z"/></g></g></g></g></svg>