<svg xmlns="http://www.w3.org/2000/svg" viewBox="0 0 1000 441.008"><defs/><path fill="#1f1f1d" d="M0 0h1000v441.008H0z"/><path fill="#fff" d="M90.952 90.188h19.752v10.35c5.5-7.333 14.194-11.887 24.662-11.887 18.865 0 31.817 13.72 31.817 32.409v47.49H147.43v-44c0-10.469-7.629-17.92-18.274-17.92-10.645 0-18.452 7.451-18.452 17.92v44H90.952zM220.326 88.693c23.715 0 41.871 17.624 41.871 40.63 0 23.123-18.156 40.747-41.87 40.747-23.716 0-41.872-17.624-41.872-40.748 0-23.005 18.156-40.629 41.871-40.629m0 63.28c12.183 0 21.468-9.758 21.468-22.651 0-12.833-9.285-22.532-21.468-22.532s-21.29 9.699-21.29 22.532c0 12.893 9.107 22.65 21.29 22.65M304.353 147.85l21.704-57.662h19.989L314.82 168.55h-22.236l-31.167-78.362h21.29zM409.019 158.833c-6.269 6.979-14.904 11.237-25.43 11.237-21.468 0-37.91-17.624-37.91-40.748 0-23.005 16.442-40.629 37.91-40.629 10.526 0 19.161 4.258 25.43 11.414V90.17h19.753v78.42h-19.753zm-21.468-6.86c12.183 0 21.468-9.758 21.468-22.651 0-12.833-9.285-22.532-21.468-22.532s-21.29 9.699-21.29 22.532c0 12.893 9.107 22.65 21.29 22.65M122.237 303.376c2.306 10.528 9.048 16.028 21.94 16.028 10.941 0 17.92-4.199 17.92-11.591 0-25.313-72.979-8.221-72.979-62.039 0-25.903 23.833-45.3 53.995-45.3 30.812 0 51.452 16.617 55.06 41.515l-36.313 7.393c-2.306-10.941-8.634-16.027-19.99-16.027-9.698 0-15.612 4.199-15.612 11.414 0 23.183 72.979 6.328 72.979 61.979 0 25.962-24.484 45.538-56.124 45.538-31.817 0-53.995-17.27-57.13-41.754zM222.414 202.555h65.173c35.01 0 57.129 21.941 57.129 51.688 0 29.748-22.119 50.624-57.13 50.624h-29.333v45.36h-35.839zm65.173 70.672c12.241 0 20.048-8.22 20.048-19.397 0-11.415-7.807-19.635-20.048-19.635h-29.334v39.032zM436.483 200.486c44.06 0 78.006 33.059 78.006 75.876 0 42.817-33.946 75.937-78.006 75.937s-78.065-33.12-78.065-75.937 34.006-75.876 78.065-75.876m0 118.93c23.183 0 40.925-18.747 40.925-43.054 0-24.247-17.742-42.994-40.925-42.994-23.183 0-40.925 18.747-40.925 42.994 0 24.307 17.742 43.054 40.925 43.054M586.019 301.71h-14.548v48.494h-35.898V202.591h65.409c33.532 0 54.822 21.053 54.822 49.56 0 20.64-11.355 37.317-30.16 45.123l34.418 52.93h-42.64zm14.963-32.705c10.763 0 17.742-7.393 17.742-17.269 0-10.172-6.979-17.564-17.742-17.564H571.47v34.833zM664.468 202.561H786.77v31.64h-43.231v115.974H707.7V234.201h-43.232z"/><path fill="#d574fd" d="M810.145 324.698h70.706v25.19h35.796v-25.19h16.571v-31.597h-16.571v-90.15H880.85v.22l-.22-.22-70.486 90.15zm38.226-31.597l32.48-41.54v41.54z" aria-label="4" style="fill:#6b89c5;fill-opacity:1" font-family="Organica" font-size="96" font-weight="700" letter-spacing="0" word-spacing="0"/></svg>