<svg xmlns="http://www.w3.org/2000/svg" xmlns:xlink="http://www.w3.org/1999/xlink" viewBox="0 0 283.46 283.46"><defs><style>.cls-1{fill:none;}.cls-2{fill:#d4293d;}.cls-3{clip-path:url(#clip-path);}.cls-4{fill:url(#linear-gradient);}.cls-5{clip-path:url(#clip-path-2);}.cls-6{fill:url(#linear-gradient-2);}.cls-7{clip-path:url(#clip-path-3);}.cls-8{fill:url(#linear-gradient-3);}.cls-9{clip-path:url(#clip-path-4);}.cls-10{fill:url(#linear-gradient-4);}.cls-11{fill:#fff;}</style><clipPath id="clip-path"><path class="cls-1" d="M125.25,115.34c4.88,5,12.82,13.17,16.26,17.38,1.16,1.4,2.22,2.75,3.17,4a19.54,19.54,0,0,0,3.75,1.36l1.35-.41,0-.1v0h0c0-.05,0-.11,0-.18v0a.09.09,0,0,0,0-.05c-.06-1-1.14-3.76-6.77-10.33a64.69,64.69,0,0,1-9-5.84c-4.08-3.07-12-9.23-12.78-9.79.28.28,1.84,1.85,4,4"/></clipPath><linearGradient id="linear-gradient" x1="456.1" y1="846.68" x2="456.67" y2="846.68" gradientTransform="matrix(75.39, 65.35, 65.35, -75.39, -89600.87, 34127.23)" gradientUnits="userSpaceOnUse"><stop offset="0" stop-color="#67212c"/><stop offset="0.5" stop-color="#9d2837"/><stop offset="1" stop-color="#67212c"/></linearGradient><clipPath id="clip-path-2"><path class="cls-1" d="M124.15,138.41a141.13,141.13,0,0,1,12.68,15.15c1.43.74,6.09,3.06,8.53,3.06a1.5,1.5,0,0,0,1.4-.58,1.08,1.08,0,0,0,.1-.48c0-.67-.33-1.94-1.68-4.22a84.86,84.86,0,0,0-6.67-9.08,94.6,94.6,0,0,1-9.65-6.14c-11.87-8.54-26.06-19.9-26.06-19.9s8.56,8.75,21.35,22.19"/></clipPath><linearGradient id="linear-gradient-2" x1="456.1" y1="846.8" x2="456.67" y2="846.8" gradientTransform="matrix(75.39, 65.35, 65.35, -75.39, -89619.53, 34148.68)" xlink:href="#linear-gradient"/><clipPath id="clip-path-3"><path class="cls-1" d="M90.76,131.29c.56.56,11.56,11.24,20.82,21.6a128.07,128.07,0,0,1,9.94,12.32l1.34.85c3.55,2.16,7.92,4.26,9.55,3.32a1.15,1.15,0,0,0,.39-1c0-.87-.45-2.39-2.23-5.06-1.14-1.7-2.67-3.81-4.4-6.06-1.19-.76-2.65-1.69-4.45-2.87-9.27-6-31-23.13-31-23.13Z"/></clipPath><linearGradient id="linear-gradient-3" x1="456.1" y1="846.94" x2="456.67" y2="846.94" gradientTransform="matrix(75.35, 65.32, 65.32, -75.35, -89593.48, 34155.13)" xlink:href="#linear-gradient"/><clipPath id="clip-path-4"><path class="cls-1" d="M90.39,150.32l0,.13,0,.09v0c.09.66,1.12,2.57,6.89,8.32,4,4.05,7.32,7.39,8.23,8.81,2.11,1.5,5.51,3.44,7.52,3.89h.4c.32,0,.45-.26.45-.6,0-1.09-1.55-3.4-2.71-5l0,0c-2-1.35-3.8-2.57-6.53-4.55-6.6-4.81-12.91-11.13-14.07-11.16a.21.21,0,0,0-.11,0"/></clipPath><linearGradient id="linear-gradient-4" x1="456.08" y1="847.04" x2="456.66" y2="847.04" gradientTransform="matrix(75.13, 65.13, 65.13, -75.13, -89355.23, 34078.31)" xlink:href="#linear-gradient"/></defs><g id="Layer_2" data-name="Layer 2"><g id="Nova"><g id="nova-2" data-name="nova"><rect class="cls-2" width="283.46" height="283.46"/><g id="logo"><g class="cls-3"><path class="cls-4" d="M125.25,115.34c4.88,5,12.82,13.17,16.26,17.38,1.16,1.4,2.22,2.75,3.17,4a19.54,19.54,0,0,0,3.75,1.36l1.35-.41,0-.1v0h0c0-.05,0-.11,0-.18v0a.09.09,0,0,0,0-.05c-.06-1-1.14-3.76-6.77-10.33a64.69,64.69,0,0,1-9-5.84c-4.08-3.07-12-9.23-12.78-9.79.28.28,1.84,1.85,4,4"/></g><g class="cls-5"><path class="cls-6" d="M124.15,138.41a141.13,141.13,0,0,1,12.68,15.15c1.43.74,6.09,3.06,8.53,3.06a1.5,1.5,0,0,0,1.4-.58,1.08,1.08,0,0,0,.1-.48c0-.67-.33-1.94-1.68-4.22a84.86,84.86,0,0,0-6.67-9.08,94.6,94.6,0,0,1-9.65-6.14c-11.87-8.54-26.06-19.9-26.06-19.9s8.56,8.75,21.35,22.19"/></g><g class="cls-7"><path class="cls-8" d="M90.76,131.29c.56.56,11.56,11.24,20.82,21.6a128.07,128.07,0,0,1,9.94,12.32l1.34.85c3.55,2.16,7.92,4.26,9.55,3.32a1.15,1.15,0,0,0,.39-1c0-.87-.45-2.39-2.23-5.06-1.14-1.7-2.67-3.81-4.4-6.06-1.19-.76-2.65-1.69-4.45-2.87-9.27-6-31-23.13-31-23.13Z"/></g><g class="cls-9"><path class="cls-10" d="M90.39,150.32l0,.13,0,.09v0c.09.66,1.12,2.57,6.89,8.32,4,4.05,7.32,7.39,8.23,8.81,2.11,1.5,5.51,3.44,7.52,3.89h.4c.32,0,.45-.26.45-.6,0-1.09-1.55-3.4-2.71-5l0,0c-2-1.35-3.8-2.57-6.53-4.55-6.6-4.81-12.91-11.13-14.07-11.16a.21.21,0,0,0-.11,0"/></g><path class="cls-11" d="M90.76,151.92l-.34-1.48c0,.52.73,2.3,6.9,8.45,5.16,5.14,9.1,9.17,8.42,9.52s-3.8-1.43-6.66-4a30.54,30.54,0,0,1-8.32-12.45"/><path class="cls-11" d="M123,172.05a31.14,31.14,0,0,1-10-.52c2.11.33-.22-3.36-1.88-5.58-2.41-3.24-6-7.47-9.39-11.08-5.55-6-12.78-13-12.78-13a30.24,30.24,0,0,1,1.8-10.54s11.35,11,20.83,21.6c6.14,6.88,9.94,12,11.68,15.05,1,1.73,1.58,3.79-.3,4.08"/><path class="cls-11" d="M140.84,124.42c-5.55-6.16-11.16-11.56-11.16-11.56a30.42,30.42,0,0,1,20.16,23.92l-.06.91c.26-.55,0-3.33-8.94-13.27"/><path class="cls-11" d="M149.93,146.15a29.7,29.7,0,0,1-3.28,10c.22-.42.22-1.66-1.59-4.71-3.46-5.84-12.47-16.11-17.63-21.61-7.38-7.82-16.89-17.22-16.89-17.22a31.14,31.14,0,0,1,4.95-1.08,21.92,21.92,0,0,1,5.71-.18s15.16,15.2,20.31,21.49,8.69,11.28,8.42,13.33"/><path class="cls-11" d="M140.72,163.82a31.19,31.19,0,0,1-8.29,5.61c.41-.31,1.17-1.56-1.84-6.06a159.11,159.11,0,0,0-14.42-17.94c-6.43-6.83-21.26-21.81-21.26-21.81a30.2,30.2,0,0,1,3.74-4.2,30.52,30.52,0,0,1,4-3.19s8.57,8.77,21.36,22.21A123.06,123.06,0,0,1,139.69,158c1.25,2.06,2.31,4.59,1,5.8"/><path class="cls-11" d="M42.52,120.25h10.8v5.64a16.45,16.45,0,0,1,13.47-6.48c10.31,0,17.37,7.49,17.37,17.71v25.93H73.35V139c0-5.74-4.14-9.81-10-9.81S53.32,133.29,53.32,139v24H42.52Z"/><path class="cls-11" d="M149.43,120.25h11.64l11.8,31.49,11.89-31.49h10.89l-17,42.8H166.47Z"/><path class="cls-11" d="M218.42,154c6.65,0,11.72-5.31,11.72-12.38s-5.07-12.3-11.72-12.3-11.64,5.31-11.64,12.3,5,12.38,11.64,12.38m11.72,3.75a18.19,18.19,0,0,1-13.88,6.15c-11.72,0-20.7-9.65-20.7-22.28s9-22.2,20.7-22.2a18,18,0,0,1,13.88,6.24v-5.4h10.8v42.8h-10.8Z"/></g></g></g></g></svg>