<svg xmlns="http://www.w3.org/2000/svg" xmlns:xlink="http://www.w3.org/1999/xlink" viewBox="0 0 283.46 283.46"><defs><style>.cls-1{fill:none;}.cls-2{fill:#d4293d;}.cls-3{clip-path:url(#clip-path);}.cls-4{fill:url(#linear-gradient);}.cls-5{clip-path:url(#clip-path-2);}.cls-6{fill:url(#linear-gradient-2);}.cls-7{clip-path:url(#clip-path-3);}.cls-8{fill:url(#linear-gradient-3);}.cls-9{clip-path:url(#clip-path-4);}.cls-10{fill:url(#linear-gradient-4);}.cls-11{fill:#fff;}.cls-12{fill:#fdfdfd;}</style><clipPath id="clip-path"><path class="cls-1" d="M99.23,123.64c3.34,3.41,8.79,9,11.14,11.91.8,1,1.52,1.89,2.18,2.75a13.6,13.6,0,0,0,2.57.93l.92-.29,0-.06v0s0,0,0,0v-.19c0-.7-.79-2.58-4.64-7.08a44.22,44.22,0,0,1-6.19-4c-2.8-2.11-8.26-6.33-8.76-6.72l2.74,2.78"/></clipPath><linearGradient id="linear-gradient" x1="616.55" y1="592.19" x2="617" y2="592.19" gradientTransform="matrix(66.08, 57.29, 57.29, -66.08, -74576.2, 3930.69)" gradientUnits="userSpaceOnUse"><stop offset="0" stop-color="#67212c"/><stop offset="0.5" stop-color="#9d2837"/><stop offset="1" stop-color="#67212c"/></linearGradient><clipPath id="clip-path-2"><path class="cls-1" d="M98.47,139.46a96.51,96.51,0,0,1,8.7,10.38c1,.51,4.17,2.1,5.84,2.1a1,1,0,0,0,1-.4.68.68,0,0,0,.07-.33,6.39,6.39,0,0,0-1.15-2.89,59.32,59.32,0,0,0-4.57-6.23,62.45,62.45,0,0,1-6.62-4.21c-8.13-5.85-17.86-13.63-17.86-13.63s5.87,6,14.63,15.21"/></clipPath><linearGradient id="linear-gradient-2" x1="616.55" y1="592.34" x2="617" y2="592.34" gradientTransform="matrix(66.08, 57.29, 57.29, -66.08, -74592.56, 3949.5)" xlink:href="#linear-gradient"/><clipPath id="clip-path-3"><path class="cls-1" d="M75.59,134.58c.38.38,7.92,7.7,14.27,14.8a86,86,0,0,1,6.81,8.45l.92.58c2.43,1.48,5.43,2.92,6.55,2.28a.81.81,0,0,0,.27-.68c0-.59-.32-1.64-1.54-3.46-.78-1.17-1.82-2.62-3-4.16-.81-.52-1.82-1.16-3-2-6.35-4.11-21.22-15.85-21.22-15.85Z"/></clipPath><linearGradient id="linear-gradient-3" x1="616.55" y1="592.53" x2="617" y2="592.53" gradientTransform="matrix(66.05, 57.26, 57.26, -66.05, -74571.54, 3969.2)" xlink:href="#linear-gradient"/><clipPath id="clip-path-4"><path class="cls-1" d="M75.33,147.62l0,.09v.08c.07.45.77,1.76,4.73,5.7a63.45,63.45,0,0,1,5.64,6,18.41,18.41,0,0,0,5.15,2.67h.27c.22,0,.31-.19.31-.41,0-.75-1.06-2.33-1.86-3.41l0,0c-1.35-.92-2.61-1.76-4.48-3.12-4.52-3.3-8.85-7.63-9.64-7.65a.09.09,0,0,0-.07,0"/></clipPath><linearGradient id="linear-gradient-4" x1="616.53" y1="592.66" x2="616.97" y2="592.66" gradientTransform="matrix(65.86, 57.09, 57.09, -65.86, -74373.39, 3975.85)" xlink:href="#linear-gradient"/></defs><g id="Layer_2" data-name="Layer 2"><g id="Nova"><g id="novaplus1"><rect class="cls-2" width="283.46" height="283.46"/><g id="logo"><g class="cls-3"><path class="cls-4" d="M99.23,123.64c3.34,3.41,8.79,9,11.14,11.91.8,1,1.52,1.89,2.18,2.75a13.6,13.6,0,0,0,2.57.93l.92-.29,0-.06v0s0,0,0,0v-.19c0-.7-.79-2.58-4.64-7.08a44.22,44.22,0,0,1-6.19-4c-2.8-2.11-8.26-6.33-8.76-6.72l2.74,2.78"/></g><g class="cls-5"><path class="cls-6" d="M98.47,139.46a96.51,96.51,0,0,1,8.7,10.38c1,.51,4.17,2.1,5.84,2.1a1,1,0,0,0,1-.4.68.68,0,0,0,.07-.33,6.39,6.39,0,0,0-1.15-2.89,59.32,59.32,0,0,0-4.57-6.23,62.45,62.45,0,0,1-6.62-4.21c-8.13-5.85-17.86-13.63-17.86-13.63s5.87,6,14.63,15.21"/></g><g class="cls-7"><path class="cls-8" d="M75.59,134.58c.38.38,7.92,7.7,14.27,14.8a86,86,0,0,1,6.81,8.45l.92.58c2.43,1.48,5.43,2.92,6.55,2.28a.81.81,0,0,0,.27-.68c0-.59-.32-1.64-1.54-3.46-.78-1.17-1.82-2.62-3-4.16-.81-.52-1.82-1.16-3-2-6.35-4.11-21.22-15.85-21.22-15.85Z"/></g><g class="cls-9"><path class="cls-10" d="M75.33,147.62l0,.09v.08c.07.45.77,1.76,4.73,5.7a63.45,63.45,0,0,1,5.64,6,18.41,18.41,0,0,0,5.15,2.67h.27c.22,0,.31-.19.31-.41,0-.75-1.06-2.33-1.86-3.41l0,0c-1.35-.92-2.61-1.76-4.48-3.12-4.52-3.3-8.85-7.63-9.64-7.65a.09.09,0,0,0-.07,0"/></g><path class="cls-11" d="M75.59,148.71l-.24-1c0,.36.51,1.58,4.73,5.79,3.54,3.53,6.24,6.29,5.77,6.53s-2.6-1-4.56-2.77a20.89,20.89,0,0,1-5.7-8.54"/><path class="cls-11" d="M97.72,162.51a21.51,21.51,0,0,1-6.84-.35c1.45.23-.15-2.31-1.28-3.83-1.65-2.22-4.15-5.12-6.44-7.59-3.8-4.11-8.76-8.92-8.76-8.92a20.69,20.69,0,0,1,1.24-7.23s7.77,7.52,14.28,14.81a69,69,0,0,1,8,10.32c.67,1.18,1.08,2.6-.2,2.79"/><path class="cls-11" d="M109.92,129.87c-3.81-4.23-7.65-7.93-7.65-7.93a20.87,20.87,0,0,1,13.81,16.4l0,.62c.18-.38,0-2.28-6.12-9.09"/><path class="cls-11" d="M116.14,144.76a20.4,20.4,0,0,1-2.24,6.84c.15-.29.15-1.14-1.09-3.22-2.37-4-8.55-11-12.09-14.82-5.06-5.36-11.58-11.81-11.58-11.81a22,22,0,0,1,3.4-.74,14.8,14.8,0,0,1,3.91-.11s10.4,10.41,13.92,14.72,6,7.73,5.77,9.14"/><path class="cls-11" d="M109.83,156.87a21.28,21.28,0,0,1-5.68,3.85c.28-.21.8-1.07-1.26-4.16A108.35,108.35,0,0,0,93,144.27c-4.4-4.69-14.57-15-14.57-15a21.36,21.36,0,0,1,5.34-5.07s5.87,6,14.64,15.22a85.79,85.79,0,0,1,10.72,13.42c.85,1.42,1.58,3.15.7,4"/><path class="cls-11" d="M42.52,127h7.4v3.87a11.31,11.31,0,0,1,9.23-4.44c7.07,0,11.91,5.13,11.91,12.14v17.77h-7.4V139.88a6.53,6.53,0,0,0-6.84-6.73,6.59,6.59,0,0,0-6.9,6.73v16.46h-7.4Z"/><path class="cls-11" d="M115.81,127h8l8.09,21.59L140,127h7.47l-11.68,29.34h-8.32Z"/><path class="cls-11" d="M163.09,150.14c4.56,0,8-3.64,8-8.49a8.09,8.09,0,0,0-8-8.43c-4.56,0-8,3.65-8,8.43s3.41,8.49,8,8.49m8,2.57a12.45,12.45,0,0,1-9.52,4.21c-8,0-14.18-6.61-14.18-15.27s6.15-15.21,14.18-15.21a12.33,12.33,0,0,1,9.52,4.27V127h7.4v29.34h-7.4Z"/><path class="cls-12" d="M219.67,129.58l14.83-3.67v23.3h6.44v7H219.67v-7h7.46v-15l-7.46,1.93Z"/><path class="cls-12" d="M199.5,126.85h7.56V138h10.66v7.18H207.06v11H199.5v-11H188.66V138H199.5Z"/></g></g></g></g></svg>