<?xml version="1.0" encoding="iso-8859-1"?>
<!-- Generator: Adobe Illustrator 25.3.1, SVG Export Plug-In . SVG Version: 6.00 Build 0)  -->
<svg version="1.1" id="&#x428;&#x430;&#x440;_1" xmlns="http://www.w3.org/2000/svg" xmlns:xlink="http://www.w3.org/1999/xlink"
	 x="0px" y="0px" viewBox="0 0 800 385" style="enable-background:new 0 0 800 385;" xml:space="preserve">
<g>
	<rect style="fill:#FFC907;" width="800" height="385"/>
	<g>
		<path style="fill:#FFFFFF;" d="M60.647,66.6h19.069v9.987c5.309-7.075,13.702-11.468,23.807-11.468
			c18.212,0,30.715,13.238,30.715,31.267v45.82h-19.069V99.753c0-10.1-7.365-17.29-17.641-17.29c-10.276,0-17.813,7.19-17.813,17.29
			v42.452H60.647V66.6z"/>
		<path style="fill:#FFFFFF;" d="M185.54,65.151c22.894,0,40.421,17.004,40.421,39.199c0,22.312-17.527,39.316-40.421,39.316
			c-22.894,0-40.421-17.004-40.421-39.316C145.12,82.155,162.647,65.151,185.54,65.151 M185.54,126.204
			c11.761,0,20.724-9.414,20.724-21.854c0-12.325-8.963-21.739-20.724-21.739c-11.761,0-20.553,9.414-20.553,21.739
			C164.987,116.79,173.779,126.204,185.54,126.204"/>
		<polygon style="fill:#FFFFFF;" points="225.207,66.6 245.76,66.6 266.656,122.234 287.608,66.6 306.905,66.6 276.761,142.205 
			255.294,142.205 		"/>
		<path style="fill:#FFFFFF;" d="M367.696,132.824c-6.052,6.732-14.387,10.842-24.549,10.842c-20.724,0-36.596-17.004-36.596-39.316
			c0-22.195,15.871-39.199,36.596-39.199c10.162,0,18.498,4.108,24.549,11.012v-9.586h19.069v75.661h-19.069V132.824z
			 M346.972,126.204c11.761,0,20.724-9.414,20.724-21.854c0-12.325-8.963-21.739-20.724-21.739
			c-11.761,0-20.553,9.414-20.553,21.739C326.419,116.79,335.211,126.204,346.972,126.204"/>
	</g>
	<g>
		<g>
			<path style="fill:#141819;" d="M111.675,184.105h32.358L190.874,303.4h-31.02l-8.986-23.533h-47.844l-8.89,23.533H64.882
				L111.675,184.105z M112.535,254.323h28.582l-14.291-37.978L112.535,254.323z"/>
			<path style="fill:#141819;" d="M254.278,182.42c28.248,0,48.179,17.029,56.209,34.584l-26.909,10.236
				c-4.971-10.044-15.534-18.223-29.299-18.223c-18.736,0-33.027,15.162-33.027,34.726c0,19.612,14.291,34.774,33.027,34.774
				c13.765,0,24.328-8.179,29.299-18.223l26.909,10.236c-8.03,17.555-27.961,34.583-56.209,34.583
				c-35.608,0-62.996-26.738-62.996-61.369C191.282,209.16,218.669,182.42,254.278,182.42"/>
			<polygon style="fill:#141819;" points="354.006,209.681 319.114,209.681 319.114,184.138 417.862,184.138 417.862,209.681 
				382.97,209.681 382.97,303.386 354.006,303.386 			"/>
			<rect x="429.801" y="184.118" style="fill:#141819;" width="28.965" height="119.295"/>
			<path style="fill:#141819;" d="M538.897,182.426c35.561,0,62.996,26.738,62.996,61.321c0,34.631-27.435,61.371-62.996,61.371
				c-35.608,0-62.996-26.74-62.996-61.371C475.901,209.164,503.288,182.426,538.897,182.426 M538.897,278.521
				c18.736,0,33.027-15.162,33.027-34.774c0-19.564-14.291-34.726-33.027-34.726c-18.736,0-33.027,15.162-33.027,34.726
				C505.869,263.359,520.16,278.521,538.897,278.521"/>
			<polygon style="fill:#141819;" points="619.142,184.124 647.246,184.124 699.153,254.678 699.153,184.124 728.118,184.124 
				728.118,303.42 700.013,303.42 648.106,232.866 648.106,303.42 619.142,303.42 			"/>
		</g>
	</g>
</g>
</svg>
