<svg xmlns="http://www.w3.org/2000/svg" xmlns:xlink="http://www.w3.org/1999/xlink" viewBox="0 0 283.46 283.46"><defs><style>.cls-1{fill:none;}.cls-2{fill:#d4293d;}.cls-3{clip-path:url(#clip-path);}.cls-4{fill:url(#linear-gradient);}.cls-5{clip-path:url(#clip-path-2);}.cls-6{fill:url(#linear-gradient-2);}.cls-7{clip-path:url(#clip-path-3);}.cls-8{fill:url(#linear-gradient-3);}.cls-9{clip-path:url(#clip-path-4);}.cls-10{fill:url(#linear-gradient-4);}.cls-11{fill:#fff;}</style><clipPath id="clip-path"><path class="cls-1" d="M125.25,115.34c4.87,5,12.82,13.17,16.25,17.38,1.17,1.4,2.22,2.75,3.18,4a19.16,19.16,0,0,0,3.74,1.36l1.35-.42,0-.1v0s0,0,0,0,0-.11,0-.18v0a.09.09,0,0,0,0,0c-.06-1-1.14-3.76-6.76-10.32a64.38,64.38,0,0,1-9-5.84c-4.08-3.07-12-9.23-12.78-9.8.28.28,1.84,1.85,4,4.05"/></clipPath><linearGradient id="linear-gradient" x1="456.1" y1="846.68" x2="456.67" y2="846.68" gradientTransform="matrix(75.39, 65.35, 65.35, -75.39, -89600.87, 34127.23)" gradientUnits="userSpaceOnUse"><stop offset="0" stop-color="#67212c"/><stop offset="0.5" stop-color="#9d2837"/><stop offset="1" stop-color="#67212c"/></linearGradient><clipPath id="clip-path-2"><path class="cls-1" d="M124.15,138.41a140.26,140.26,0,0,1,12.68,15.15c1.44.74,6.09,3.06,8.53,3.06a1.5,1.5,0,0,0,1.4-.58,1.08,1.08,0,0,0,.1-.48c0-.68-.33-1.94-1.68-4.22a84.54,84.54,0,0,0-6.67-9.08,92.87,92.87,0,0,1-9.65-6.14c-11.87-8.54-26.06-19.9-26.06-19.9s8.56,8.75,21.35,22.19"/></clipPath><linearGradient id="linear-gradient-2" x1="456.1" y1="846.8" x2="456.67" y2="846.8" gradientTransform="matrix(75.39, 65.35, 65.35, -75.39, -89619.53, 34148.68)" xlink:href="#linear-gradient"/><clipPath id="clip-path-3"><path class="cls-1" d="M90.76,131.29c.56.55,11.56,11.23,20.82,21.59a128.4,128.4,0,0,1,9.94,12.32c.43.28.88.56,1.34.85,3.55,2.16,7.92,4.26,9.55,3.33a1.16,1.16,0,0,0,.39-1c0-.87-.45-2.39-2.23-5.06-1.14-1.71-2.66-3.82-4.39-6.06-1.19-.76-2.65-1.69-4.46-2.87-9.27-6-31-23.13-31-23.13Z"/></clipPath><linearGradient id="linear-gradient-3" x1="456.1" y1="846.94" x2="456.67" y2="846.94" gradientTransform="matrix(75.35, 65.32, 65.32, -75.35, -89593.48, 34155.13)" xlink:href="#linear-gradient"/><clipPath id="clip-path-4"><path class="cls-1" d="M90.39,150.32l0,.13v.11c.1.66,1.13,2.58,6.9,8.32,4.05,4.05,7.32,7.39,8.22,8.81,2.11,1.5,5.51,3.44,7.52,3.89h.39a.52.52,0,0,0,.45-.6c0-1.09-1.55-3.4-2.71-5l0,0c-2-1.35-3.81-2.58-6.53-4.55-6.6-4.81-12.91-11.13-14.07-11.16a.17.17,0,0,0-.11,0"/></clipPath><linearGradient id="linear-gradient-4" x1="456.08" y1="847.04" x2="456.66" y2="847.04" gradientTransform="matrix(75.13, 65.13, 65.13, -75.13, -89355.23, 34078.31)" xlink:href="#linear-gradient"/></defs><title>nova</title><g id="Layer_2" data-name="Layer 2"><g id="Nova"><g id="nova-2" data-name="nova"><rect class="cls-2" width="283.46" height="283.46"/><g id="logo"><g class="cls-3"><path class="cls-4" d="M125.25,115.34c4.87,5,12.82,13.17,16.25,17.38,1.17,1.4,2.22,2.75,3.18,4a19.16,19.16,0,0,0,3.74,1.36l1.35-.42,0-.1v0s0,0,0,0,0-.11,0-.18v0a.09.09,0,0,0,0,0c-.06-1-1.14-3.76-6.76-10.32a64.38,64.38,0,0,1-9-5.84c-4.08-3.07-12-9.23-12.78-9.8.28.28,1.84,1.85,4,4.05"/></g><g class="cls-5"><path class="cls-6" d="M124.15,138.41a140.26,140.26,0,0,1,12.68,15.15c1.44.74,6.09,3.06,8.53,3.06a1.5,1.5,0,0,0,1.4-.58,1.08,1.08,0,0,0,.1-.48c0-.68-.33-1.94-1.68-4.22a84.54,84.54,0,0,0-6.67-9.08,92.87,92.87,0,0,1-9.65-6.14c-11.87-8.54-26.06-19.9-26.06-19.9s8.56,8.75,21.35,22.19"/></g><g class="cls-7"><path class="cls-8" d="M90.76,131.29c.56.55,11.56,11.23,20.82,21.59a128.4,128.4,0,0,1,9.94,12.32c.43.28.88.56,1.34.85,3.55,2.16,7.92,4.26,9.55,3.33a1.16,1.16,0,0,0,.39-1c0-.87-.45-2.39-2.23-5.06-1.14-1.71-2.66-3.82-4.39-6.06-1.19-.76-2.65-1.69-4.46-2.87-9.27-6-31-23.13-31-23.13Z"/></g><g class="cls-9"><path class="cls-10" d="M90.39,150.32l0,.13v.11c.1.66,1.13,2.58,6.9,8.32,4.05,4.05,7.32,7.39,8.22,8.81,2.11,1.5,5.51,3.44,7.52,3.89h.39a.52.52,0,0,0,.45-.6c0-1.09-1.55-3.4-2.71-5l0,0c-2-1.35-3.81-2.58-6.53-4.55-6.6-4.81-12.91-11.13-14.07-11.16a.17.17,0,0,0-.11,0"/></g><path class="cls-11" d="M90.76,151.92l-.34-1.47c0,.52.74,2.3,6.9,8.45,5.17,5.14,9.11,9.17,8.42,9.53s-3.79-1.44-6.65-4a30.58,30.58,0,0,1-8.32-12.46"/><path class="cls-11" d="M123,172a31.24,31.24,0,0,1-10-.52c2.11.33-.22-3.36-1.88-5.59-2.41-3.24-6.05-7.46-9.39-11.07-5.55-6-12.78-13-12.78-13a30.36,30.36,0,0,1,1.8-10.54s11.34,11,20.83,21.6c6.14,6.87,9.93,12,11.67,15,1,1.73,1.58,3.79-.29,4.08"/><path class="cls-11" d="M140.84,124.42c-5.55-6.16-11.16-11.56-11.16-11.56a30.44,30.44,0,0,1,20.16,23.92l-.06.91c.26-.55,0-3.33-8.94-13.27"/><path class="cls-11" d="M149.93,146.15a29.58,29.58,0,0,1-3.28,10c.22-.42.22-1.66-1.58-4.7-3.46-5.84-12.47-16.12-17.64-21.62-7.38-7.82-16.89-17.22-16.89-17.22a32.23,32.23,0,0,1,5-1.08,21.53,21.53,0,0,1,5.71-.17s15.16,15.2,20.3,21.48,8.69,11.28,8.42,13.33"/><path class="cls-11" d="M140.72,163.82a31.45,31.45,0,0,1-8.29,5.61c.41-.31,1.17-1.56-1.84-6.06a159,159,0,0,0-14.42-17.93c-6.43-6.84-21.26-21.81-21.26-21.81a31,31,0,0,1,7.78-7.39s8.57,8.76,21.36,22.21A123.54,123.54,0,0,1,139.69,158c1.25,2.06,2.31,4.59,1,5.81"/><path class="cls-11" d="M42.52,120.25h10.8v5.65a16.45,16.45,0,0,1,13.47-6.48c10.31,0,17.37,7.49,17.37,17.71V163H73.35V139c0-5.73-4.15-9.81-10-9.81S53.32,133.29,53.32,139v24H42.52Z"/><path class="cls-11" d="M149.43,120.25h11.64l11.8,31.5,11.89-31.5h10.89l-17,42.8H166.47Z"/><path class="cls-11" d="M218.42,154c6.65,0,11.72-5.32,11.72-12.39s-5.07-12.3-11.72-12.3-11.64,5.32-11.64,12.3,5,12.39,11.64,12.39m11.72,3.74a18.17,18.17,0,0,1-13.88,6.15c-11.72,0-20.7-9.65-20.7-22.28s9-22.19,20.7-22.19a18,18,0,0,1,13.88,6.24v-5.4h10.8v42.8h-10.8Z"/></g></g></g></g></svg>