<svg xmlns="http://www.w3.org/2000/svg" viewBox="0 0 283.46 283.46"><defs><style>.cls-1{fill:#f59b2d;}.cls-2{fill:#fff;}</style></defs><g id="Layer_2" data-name="Layer 2"><g id="Nova"><g id="novaaction"><rect class="cls-1" width="283.46" height="283.46"/><g id="logo"><path class="cls-2" d="M44.88,110.28h4.78v2.51a7.27,7.27,0,0,1,6-2.87,7.46,7.46,0,0,1,7.69,7.83v11.48H58.52V118.6a4.43,4.43,0,0,0-8.86,0v10.63H44.88Z"/><path class="cls-2" d="M76.22,125.16a5.47,5.47,0,1,0-5.15-5.48,5.23,5.23,0,0,0,5.15,5.48m0-15.3a9.84,9.84,0,1,1-10.11,9.82,9.8,9.8,0,0,1,10.11-9.82"/><path class="cls-2" d="M86.17,110.28h5.15l5.23,13.94,5.25-13.94h4.82l-7.54,18.95H93.71Z"/><path class="cls-2" d="M116.6,125.16a5.48,5.48,0,1,0-5.14-5.48,5.24,5.24,0,0,0,5.14,5.48m5.19,1.65a8,8,0,0,1-6.15,2.73c-5.18,0-9.15-4.27-9.15-9.86s4-9.82,9.15-9.82a7.93,7.93,0,0,1,6.15,2.76v-2.39h4.78v18.93h-4.78Z"/><path class="cls-2" d="M56.77,158.45h8.56L61.05,147.1Zm-.25-21h9.67l14,35.64H70.92l-2.69-7H53.93l-2.66,7H42.52Z"/><path class="cls-2" d="M99.1,136.94a18.29,18.29,0,0,1,16.81,10.33l-8,3a9.72,9.72,0,0,0-8.76-5.44c-5.6,0-9.87,4.54-9.87,10.39s4.27,10.38,9.87,10.38a9.69,9.69,0,0,0,8.76-5.44l8,3A18.28,18.28,0,0,1,99.1,173.6c-10.64,0-18.84-8-18.84-18.33s8.2-18.33,18.84-18.33"/><path class="cls-2" d="M129.07,145.06H118.64v-7.64h29.53v7.64H137.73v28h-8.66Z"/><path class="cls-2" d="M151.73,137.4h8.66V173h-8.66Z"/><path class="cls-2" d="M184.33,165.65c5.6,0,9.87-4.53,9.87-10.38s-4.27-10.39-9.87-10.39-9.87,4.53-9.87,10.39,4.26,10.38,9.87,10.38m0-28.71c10.64,0,18.84,8,18.84,18.33s-8.2,18.32-18.84,18.32-18.84-8-18.84-18.32,8.2-18.33,18.84-18.33"/><path class="cls-2" d="M208.35,137.4h8.4l15.53,21.08V137.4h8.66V173h-8.4L217,152V173h-8.66Z"/></g></g></g></g></svg>