<svg xmlns="http://www.w3.org/2000/svg" viewBox="0 0 283.46 283.46"><defs><style>.cls-1{fill:#181a19;}.cls-2{fill:#fff;}.cls-3{fill:#cad900;}</style></defs><g id="Layer_2" data-name="Layer 2"><g id="Nova"><g id="novasport3"><rect class="cls-1" width="283.46" height="283.46"/><g id="logo"><path class="cls-2" d="M43.71,110.58h4.72v2.48a7.21,7.21,0,0,1,5.9-2.85A7.38,7.38,0,0,1,61.94,118v11.36H57.21V118.8a4.39,4.39,0,0,0-8.78,0v10.52H43.71Zm30.93-.36a9.73,9.73,0,1,1-10,9.72,9.7,9.7,0,0,1,10-9.72m0,15.13a5.41,5.41,0,1,0-5.09-5.41,5.17,5.17,0,0,0,5.09,5.41m9.83-14.77h5.09l5.17,13.79,5.19-13.79h4.78l-7.46,18.74H91.92ZM119.76,127a8,8,0,0,1-6.08,2.69c-5.13,0-9.07-4.21-9.07-9.74s3.94-9.72,9.07-9.72a7.85,7.85,0,0,1,6.08,2.73v-2.37h4.72v18.75h-4.72V127Zm-5.13-1.64a5.41,5.41,0,1,0-5.09-5.41,5.17,5.17,0,0,0,5.09,5.41M51.19,161.56c.55,2.51,2.16,3.83,5.24,3.83,2.62,0,4.29-1,4.29-2.77,0-6.05-17.45-2-17.45-14.84,0-6.19,5.7-10.83,12.91-10.83,7.37,0,12.3,4,13.16,9.93l-8.68,1.77c-.55-2.63-2.06-3.84-4.78-3.84-2.32,0-3.73,1-3.73,2.72,0,5.56,17.45,1.51,17.45,14.83,0,6.21-5.86,10.89-13.42,10.89s-12.91-4.13-13.66-10Zm24-24.11H90.72c8.38,0,13.66,5.24,13.66,12.36s-5.28,12.1-13.66,12.1h-7v10.85H75.14V137.45Zm15.58,16.9a4.67,4.67,0,1,0,0-9.34h-7v9.34Zm35.6-17.4c10.54,0,18.66,7.92,18.66,18.14s-8.12,18.16-18.66,18.16-18.66-7.92-18.66-18.16S115.79,137,126.32,137m0,28.44c5.55,0,9.79-4.48,9.79-10.3s-4.24-10.27-9.79-10.27-9.78,4.48-9.78,10.27,4.24,10.3,9.78,10.3m35.76-4.23H158.6v11.59H150V137.46h15.63c8,0,13.11,5,13.11,11.85a11.35,11.35,0,0,1-7.22,10.79l8.23,12.65H169.59Zm3.58-7.82a4.17,4.17,0,1,0,0-8.33H158.6v8.33ZM191.17,145H180.84v-7.56h29.24V145H199.74v27.75h-8.57Z"/><path class="cls-3" d="M215.46,161.08c.21,3.61,1.45,6.39,3.72,8.3s5.26,2.89,9,2.89a14,14,0,0,0,9.24-2.94,9.78,9.78,0,0,0,3.5-7.94,10.11,10.11,0,0,0-2.16-6.61,10.71,10.71,0,0,0-5.57-3.56l6.5-6.39v-7.38H217.16v7.38h12.18l-5.83,5.77v6.19h3.56c3.45,0,5.21,1.45,5.21,4.34a3.26,3.26,0,0,1-1,2.53,4.46,4.46,0,0,1-3.05,1,4.13,4.13,0,0,1-3-1.14,4.61,4.61,0,0,1-1.13-3.4Z"/></g></g></g></g></svg>