<svg xmlns="http://www.w3.org/2000/svg" viewBox="0 0 283.46 283.46"><defs><style>.cls-1{fill:#facd13;}.cls-2{fill:#fff;}.cls-3{fill:#091208;}</style></defs><g id="Layer_2" data-name="Layer 2"><g id="Nova"><g id="novaaction"><rect class="cls-1" width="283.46" height="283.46"/><g id="logo"><path class="cls-2" d="M44.94,109.71h4.87v2.55a7.38,7.38,0,0,1,6.06-2.92,7.59,7.59,0,0,1,7.82,8V129H58.82V118.17a4.51,4.51,0,0,0-9,0V129H44.94Z"/><path class="cls-2" d="M76.76,124.91a5.57,5.57,0,1,0-5.24-5.58,5.32,5.32,0,0,0,5.24,5.58m0-15.57a10,10,0,1,1-10.29,10,10,10,0,0,1,10.29-10"/><polygon class="cls-2" points="86.86 109.71 92.1 109.71 97.41 123.9 102.76 109.71 107.67 109.71 100 128.98 94.53 128.98 86.86 109.71"/><path class="cls-2" d="M117.88,124.91a5.57,5.57,0,1,0-5.24-5.58,5.32,5.32,0,0,0,5.24,5.58m5.27,1.68a8.15,8.15,0,0,1-6.25,2.77c-5.27,0-9.31-4.34-9.31-10s4-10,9.31-10a8.05,8.05,0,0,1,6.25,2.81v-2.44H128V129h-4.87Z"/><path class="cls-3" d="M57,158.69h8.7l-4.35-11.55Zm-.26-21.34H66.6l14.25,36.26H71.42l-2.74-7.15H54.12l-2.69,7.15H42.52Z"/><path class="cls-3" d="M99.5,136.83a18.61,18.61,0,0,1,17.09,10.52l-8.19,3.11a9.86,9.86,0,0,0-8.9-5.55c-5.7,0-10,4.61-10,10.57s4.35,10.57,10,10.57a9.86,9.86,0,0,0,8.9-5.55l8.19,3.11A18.61,18.61,0,0,1,99.5,174.13c-10.83,0-19.17-8.14-19.17-18.65s8.34-18.65,19.17-18.65"/><polygon class="cls-3" points="128.03 145.12 117.42 145.12 117.42 137.35 147.46 137.35 147.46 145.12 136.84 145.12 136.84 173.61 128.03 173.61 128.03 145.12"/><rect class="cls-3" x="151.6" y="137.35" width="8.8" height="36.25"/><path class="cls-3" d="M184.23,166.05c5.7,0,10.05-4.61,10.05-10.57s-4.35-10.57-10.05-10.57-10,4.61-10,10.57,4.35,10.57,10,10.57m0-29.22c10.82,0,19.16,8.13,19.16,18.65s-8.34,18.65-19.16,18.65-19.16-8.14-19.16-18.65,8.34-18.65,19.16-18.65"/><polygon class="cls-3" points="207.8 137.35 216.34 137.35 232.14 158.8 232.14 137.35 240.94 137.35 240.94 173.61 232.4 173.61 216.6 152.17 216.6 173.61 207.8 173.61 207.8 137.35"/></g></g></g></g></svg>