<?xml version="1.0" encoding="iso-8859-1"?>
<!-- Generator: Adobe Illustrator 25.3.1, SVG Export Plug-In . SVG Version: 6.00 Build 0)  -->
<svg version="1.1" id="&#x428;&#x430;&#x440;_1" xmlns="http://www.w3.org/2000/svg" xmlns:xlink="http://www.w3.org/1999/xlink"
	 x="0px" y="0px" viewBox="0 0 755 467" style="enable-background:new 0 0 755 467;" xml:space="preserve">
<rect style="fill:#6F18FB;" width="755" height="467"/>
<g>
	<g>
		<path style="fill:#FFFFFF;" d="M94.206,95.284h20.851v10.905c5.752-7.699,14.889-12.523,25.974-12.523
			c19.863,0,33.494,14.44,33.494,34.154v50.031h-20.851v-46.346c0-11.054-7.999-18.904-19.234-18.904
			c-11.205,0-19.383,7.85-19.383,18.904v46.346H94.206V95.284z"/>
		<path style="fill:#FFFFFF;" d="M230.519,93.688c25.016,0,44.099,18.605,44.099,42.811c0,24.357-19.084,42.962-44.099,42.962
			c-25.016,0-44.099-18.605-44.099-42.962C186.419,112.292,205.503,93.688,230.519,93.688 M230.519,160.376
			c12.822,0,22.589-10.245,22.589-23.877c0-13.481-9.767-23.727-22.589-23.727c-12.822,0-22.439,10.246-22.439,23.727
			C208.079,150.13,217.696,160.376,230.519,160.376"/>
		<polygon style="fill:#FFFFFF;" points="273.809,95.284 296.248,95.284 319.017,156.041 341.936,95.284 362.937,95.284 
			330.072,177.851 306.674,177.851 		"/>
		<path style="fill:#FFFFFF;" d="M429.326,167.596c-6.591,7.37-15.728,11.864-26.783,11.864c-22.619,0-39.935-18.605-39.935-42.962
			c0-24.206,17.316-42.811,39.935-42.811c11.055,0,20.192,4.494,26.783,12.014V95.276h20.821v82.566h-20.821V167.596z
			 M406.707,160.376c12.822,0,22.619-10.245,22.619-23.877c0-13.481-9.797-23.727-22.619-23.727
			c-12.822,0-22.439,10.246-22.439,23.727C384.268,150.13,393.884,160.376,406.707,160.376"/>
	</g>
	<g>
		<g>
			<path style="fill:#00FF7E;" d="M336.79,247.49v-33.51H235.5v155.83h35.51v-63.99h47.2v-31.39h-47.2v-26.94H336.79z"/>
			<path style="fill:#00FF7E;" d="M449.88,213.98v89.94c0,12.02-2.45,20.7-7.13,26.26c-4.67,5.57-11.57,8.24-20.7,8.24
				s-16.03-2.67-20.7-8.24c-4.68-5.56-7.13-14.24-7.13-26.26v-89.94h-36.73v90.16c0,10.91,1.56,20.7,4.68,29.16
				c3.11,8.46,7.34,15.58,12.91,21.37c5.56,5.79,12.24,10.24,20.26,13.36c8.01,2.89,16.91,4.45,26.71,4.45
				c9.79,0,18.7-1.56,26.71-4.45c8.02-3.12,14.7-7.57,20.26-13.36c5.57-5.79,9.8-12.91,12.91-21.37c3.12-8.46,4.68-18.25,4.68-29.16
				v-90.16H449.88z"/>
			<polygon style="fill:#00FF7E;" points="639.44,213.98 639.04,352.59 638.99,370.25 604.01,370.25 602.15,367.37 600.21,364.36 
				546.17,276.14 546.17,369.81 509.88,369.81 509.88,214.2 543.76,214.2 546.17,218.14 602.15,309.54 602.15,213.98 			"/>
		</g>
	</g>
</g>
</svg>
