<svg xmlns="http://www.w3.org/2000/svg" viewBox="0 0 283.46 283.46"><defs><style>.cls-1{fill:#181a19;}.cls-2{fill:#fff;}.cls-3{fill:#d81d3f;}</style></defs><g id="Layer_2" data-name="Layer 2"><g id="Nova"><g id="novasport1"><rect class="cls-1" width="283.46" height="283.46"/><g id="logo"><path class="cls-2" d="M43.75,109.59h4.88v2.56a7.45,7.45,0,0,1,6.09-2.93,7.61,7.61,0,0,1,7.85,8v11.71H57.68V118.08a4.53,4.53,0,0,0-9,0v10.85H43.75Z"/><path class="cls-2" d="M75.68,124.84a5.58,5.58,0,1,0-5.26-5.59,5.34,5.34,0,0,0,5.26,5.59m0-15.62a10.05,10.05,0,1,1-10.33,10,10,10,0,0,1,10.33-10"/><path class="cls-2" d="M85.74,109.59H91l5.34,14.24,5.36-14.24h4.92l-7.69,19.34H93.44Z"/><path class="cls-2" d="M117,124.84a5.59,5.59,0,1,0-5.25-5.59,5.34,5.34,0,0,0,5.25,5.59m5.3,1.69a8.18,8.18,0,0,1-6.27,2.79c-5.3,0-9.36-4.36-9.36-10.07s4.06-10,9.36-10a8.09,8.09,0,0,1,6.27,2.81v-2.44h4.88v19.35h-4.88Z"/><path class="cls-3" d="M235.1,165.92V136.77l-15.87,5.06v7.81l7-1.54v17.82h-7v7.81h21.71v-7.81Z"/><path class="cls-2" d="M51.48,162.16c.57,2.6,2.23,4,5.41,4,2.71,0,4.43-1,4.43-2.86,0-6.25-18-2-18-15.31,0-6.4,5.89-11.18,13.33-11.18,7.6,0,12.7,4.11,13.59,10.25l-8.95,1.82c-.58-2.71-2.14-4-5-4-2.39,0-3.86,1-3.86,2.82,0,5.72,18,1.56,18,15.3,0,6.41-6,11.25-13.85,11.25S43.3,170,42.52,163.93Z"/><path class="cls-2" d="M92.25,154.74a4.82,4.82,0,1,0,0-9.63H85v9.63ZM76.16,137.3H92.25c8.64,0,14.1,5.41,14.1,12.75s-5.46,12.49-14.1,12.49H85v11.2H76.16Z"/><path class="cls-2" d="M129,166.12c5.73,0,10.1-4.63,10.1-10.62s-4.37-10.62-10.1-10.62-10.09,4.64-10.09,10.62,4.37,10.62,10.09,10.62m0-29.36c10.88,0,19.26,8.17,19.26,18.74s-8.38,18.75-19.26,18.75-19.25-8.18-19.25-18.75,8.37-18.74,19.25-18.74"/><path class="cls-2" d="M169.62,153.72a4.3,4.3,0,1,0,0-8.59h-7.29v8.59Zm-3.69,8.07h-3.6v12h-8.84V137.32h16.13c8.28,0,13.53,5.2,13.53,12.23a11.69,11.69,0,0,1-7.44,11.14l8.49,13.07H173.68Z"/><path class="cls-2" d="M196,145.08H185.29v-7.81h30.19v7.81H204.8v28.63H196Z"/></g></g></g></g></svg>