<svg xmlns="http://www.w3.org/2000/svg" viewBox="0 0 283.46 283.46"><defs><style>.cls-1{fill:#6f18fb;}.cls-2{fill:#fff;}.cls-3{fill:#00ff7e;}</style></defs><g id="Layer_2" data-name="Layer 2"><g id="Nova"><g id="novafun"><rect class="cls-1" width="283.46" height="283.46"/><g id="logo"><path class="cls-2" d="M42.52,91.59h7.59v4A11.5,11.5,0,0,1,59.56,91c7.23,0,12.19,5.25,12.19,12.43v18.21H64.16V104.77a6.68,6.68,0,0,0-7-6.88,6.72,6.72,0,0,0-7,6.88v16.87H42.52v-30Z"/><path class="cls-2" d="M92.13,91c9.1,0,16.05,6.77,16.05,15.58s-7,15.63-16.05,15.63-16-6.77-16-15.63S83,91,92.13,91m0,24.27c4.66,0,8.22-3.73,8.22-8.69S96.79,98,92.13,98,84,101.68,84,106.59s3.5,8.69,8.17,8.69"/><polygon class="cls-2" points="107.88 91.59 116.05 91.59 124.33 113.7 132.68 91.59 140.32 91.59 128.36 121.64 119.84 121.64 107.88 91.59"/><path class="cls-2" d="M164.48,117.9a12.73,12.73,0,0,1-9.75,4.32c-8.23,0-14.53-6.77-14.53-15.63S146.5,91,154.73,91a12.6,12.6,0,0,1,9.75,4.37V91.59h7.58v30h-7.58V117.9Zm-8.23-2.62c4.66,0,8.23-3.73,8.23-8.69A8.29,8.29,0,0,0,156.25,98c-4.67,0-8.17,3.73-8.17,8.64s3.5,8.69,8.17,8.69"/><path class="cls-3" d="M130.8,147v-12.2H93.94v56.71h12.92V168.21H124V156.78H106.86V147Z"/><path class="cls-3" d="M172,134.78v32.74c0,4.37-.89,7.53-2.6,9.55s-4.21,3-7.53,3-5.83-1-7.53-3-2.6-5.18-2.6-9.55V134.78H138.34V167.6a30.56,30.56,0,0,0,1.7,10.61,21.74,21.74,0,0,0,4.7,7.77,20.16,20.16,0,0,0,7.37,4.87,30,30,0,0,0,19.44,0,20.16,20.16,0,0,0,7.37-4.87,21.74,21.74,0,0,0,4.7-7.77,30.55,30.55,0,0,0,1.71-10.61V134.78Z"/><polygon class="cls-3" points="240.94 134.78 240.8 185.23 240.78 191.66 228.05 191.66 227.37 190.61 226.67 189.51 207 157.41 207 191.5 193.79 191.5 193.79 134.86 206.12 134.86 207 136.3 227.37 169.56 227.37 134.78 240.94 134.78"/></g></g></g></g></svg>