<svg xmlns="http://www.w3.org/2000/svg" viewBox="0 0 283.46 283.46"><defs><style>.cls-1{fill:#5b3699;}.cls-2{fill:#fff;}</style></defs><g id="Layer_2" data-name="Layer 2"><g id="Nova"><g id="novacinema"><rect class="cls-1" width="283.46" height="283.46"/><g id="logo"><path class="cls-2" d="M45.45,111.82H50v2.38a6.85,6.85,0,0,1,5.65-2.73A7.08,7.08,0,0,1,63,118.91v10.9H58.4V119.72a4.21,4.21,0,0,0-8.41,0v10.09H45.45Z"/><path class="cls-2" d="M75.16,126a5.19,5.19,0,1,0-4.89-5.2,5,5,0,0,0,4.89,5.2m0-14.53a9.35,9.35,0,1,1-9.61,9.33,9.3,9.3,0,0,1,9.61-9.33"/><path class="cls-2" d="M84.65,111.82h4.9l5,13.24,5-13.24h4.58l-7.16,18H91.81Z"/><path class="cls-2" d="M113.58,126a5.19,5.19,0,1,0-4.89-5.2,5,5,0,0,0,4.89,5.2m4.93,1.58a7.61,7.61,0,0,1-5.83,2.58c-4.93,0-8.7-4-8.7-9.36s3.77-9.33,8.7-9.33a7.55,7.55,0,0,1,5.83,2.63v-2.28H123v18h-4.53Z"/><path class="cls-2" d="M60.41,137.18a17.38,17.38,0,0,1,16,9.81l-7.64,2.91a9.24,9.24,0,0,0-8.33-5.19c-5.31,0-9.38,4.32-9.38,9.88s4.07,9.86,9.38,9.86a9.24,9.24,0,0,0,8.33-5.17l7.64,2.89a17.37,17.37,0,0,1-16,9.82c-10.1,0-17.89-7.58-17.89-17.4s7.79-17.41,17.89-17.41"/><path class="cls-2" d="M81.08,137.62H89.3v33.86H81.08Z"/><path class="cls-2" d="M95.6,137.62h8l14.75,20v-20h8.22v33.86h-8l-14.76-20v20H95.6Z"/><path class="cls-2" d="M133,137.62h23.21v7.26h-15v6.05h14.51v7.24H141.24v6.05h15v7.26H133Z"/><path class="cls-2" d="M162.29,137.62h11.22L182.36,161l8.84-23.36h10.74v33.86h-8v-20.7l-8.22,20.7h-7.3l-8.18-20.66v20.66h-8Z"/><path class="cls-2" d="M218.69,157.5h8.12l-4.05-10.79Zm-.24-19.92h9.19l13.3,33.85h-8.8l-2.57-6.68H216l-2.52,6.68h-8.31Z"/></g></g></g></g></svg>