<svg xmlns="http://www.w3.org/2000/svg" xmlns:xlink="http://www.w3.org/1999/xlink" viewBox="0 0 283.46 283.46"><defs><style>.cls-1{fill:none;}.cls-2{fill:#d0343a;}.cls-3{clip-path:url(#clip-path);}.cls-4{clip-path:url(#clip-path-2);}.cls-5{clip-path:url(#clip-path-3);}.cls-6{clip-path:url(#clip-path-4);}.cls-7{clip-path:url(#clip-path-5);}.cls-8{fill:url(#linear-gradient);}.cls-9{clip-path:url(#clip-path-8);}.cls-10{clip-path:url(#clip-path-9);}.cls-11{fill:url(#linear-gradient-2);}.cls-12{clip-path:url(#clip-path-12);}.cls-13{clip-path:url(#clip-path-13);}.cls-14{fill:url(#linear-gradient-3);}.cls-15{clip-path:url(#clip-path-16);}.cls-16{clip-path:url(#clip-path-17);}.cls-17{fill:url(#linear-gradient-4);}.cls-18{fill:#fff;}</style><clipPath id="clip-path"><rect class="cls-1" x="42.52" y="96.01" width="198.43" height="91.44"/></clipPath><clipPath id="clip-path-2"><rect class="cls-1" x="90.51" y="96.28" width="59.35" height="60.11"/></clipPath><clipPath id="clip-path-3"><rect class="cls-1" x="90.33" y="96.01" width="59.77" height="60.96"/></clipPath><clipPath id="clip-path-4"><rect class="cls-1" x="120.81" y="96.01" width="29.29" height="27.49"/></clipPath><clipPath id="clip-path-5"><path class="cls-1" d="M143.1,111.93a63.85,63.85,0,0,1-9-5.82c-4.26-3.21-12.79-9.82-12.79-9.82s15.12,15.16,20.25,21.43q1.72,2.1,3.18,4a18.6,18.6,0,0,0,3.72,1.35c.84.11,1.19-.08,1.35-.41.23-.5,0-2.85-6.7-10.72"/></clipPath><linearGradient id="linear-gradient" x1="534.3" y1="572.22" x2="534.89" y2="572.22" gradientTransform="matrix(0, 95.26, 95.26, 0, -54376.36, -50818.22)" gradientUnits="userSpaceOnUse"><stop offset="0" stop-color="#7c7b7c"/><stop offset="0.16" stop-color="#bcbcbb"/><stop offset="0.5" stop-color="#bcbcbb"/><stop offset="0.84" stop-color="#bcbcbb"/><stop offset="1" stop-color="#7c7b7c"/></linearGradient><clipPath id="clip-path-8"><rect class="cls-1" x="102.29" y="100.79" width="44.82" height="41.24"/></clipPath><clipPath id="clip-path-9"><path class="cls-1" d="M145.11,136.29a82.72,82.72,0,0,0-6.64-9.07,88.65,88.65,0,0,1-9.64-6.13c-11.83-8.51-26-19.84-26-19.84s8.55,8.75,21.31,22.15a141.88,141.88,0,0,1,12.64,15.1c1.83.95,8.79,4.41,9.9,2.48.22-.42.22-1.65-1.58-4.69"/></clipPath><linearGradient id="linear-gradient-2" x1="534.3" y1="572.34" x2="534.89" y2="572.34" gradientTransform="matrix(0, 95.26, 95.26, 0, -54397.89, -50805.82)" xlink:href="#linear-gradient"/><clipPath id="clip-path-12"><rect class="cls-1" x="90.93" y="115.73" width="42.43" height="38.85"/></clipPath><clipPath id="clip-path-13"><path class="cls-1" d="M130.66,148.26c-1.14-1.71-2.66-3.8-4.38-6-1.2-.76-2.65-1.7-4.45-2.86-9.25-6-30.89-23.08-30.89-23.08l0,0c.56.54,11.52,11.19,20.74,21.52a129.49,129.49,0,0,1,9.93,12.3c3.69,2.4,9,5.22,10.86,4.17.4-.3,1.16-1.55-1.84-6"/></clipPath><linearGradient id="linear-gradient-3" x1="534.29" y1="572.48" x2="534.89" y2="572.48" gradientTransform="matrix(0, 95.21, 95.21, 0, -54395.68, -50765.24)" xlink:href="#linear-gradient"/><clipPath id="clip-path-16"><rect class="cls-1" x="90.33" y="134.86" width="23.91" height="22.11"/></clipPath><clipPath id="clip-path-17"><path class="cls-1" d="M111.24,150.83l0,0c-2-1.33-3.81-2.56-6.53-4.54-6.86-5-13.42-11.65-14.12-11.08a.17.17,0,0,0,0,.13v.09s0,0,0,0c.1.65,1.12,2.57,6.87,8.31,4,4,7.31,7.35,8.21,8.77a27.31,27.31,0,0,0,7.51,3.9,1.23,1.23,0,0,0,.38,0c1.39-.2-.73-3.51-2.25-5.57"/></clipPath><linearGradient id="linear-gradient-4" x1="534.27" y1="572.58" x2="534.87" y2="572.58" gradientTransform="matrix(0, 94.94, 94.94, 0, -54260.41, -50608.37)" xlink:href="#linear-gradient"/></defs><g id="Layer_2" data-name="Layer 2"><g id="Nova"><g id="novainternational"><rect class="cls-2" width="283.46" height="283.46"/><g id="logo"><g class="cls-3"><g class="cls-4"><g class="cls-5"><g class="cls-6"><g class="cls-7"><g class="cls-6"><g class="cls-7"><rect class="cls-8" x="116.1" y="90.07" width="39.13" height="39.32" transform="matrix(0.66, -0.76, 0.76, 0.66, -36.11, 140.37)"/></g></g></g></g><g class="cls-9"><g class="cls-10"><g class="cls-9"><g class="cls-10"><rect class="cls-11" x="94.7" y="91.79" width="60.35" height="60.59" transform="translate(-49.17 136.48) rotate(-49.08)"/></g></g></g></g><g class="cls-12"><g class="cls-13"><g class="cls-12"><g class="cls-13"><rect class="cls-14" x="83.55" y="106.88" width="57.5" height="57.87" transform="translate(-63.88 131.71) rotate(-49.08)"/></g></g></g></g><g class="cls-15"><g class="cls-16"><g class="cls-15"><g class="cls-16"><rect class="cls-17" x="86.47" y="129.15" width="32.45" height="32.71" transform="translate(-74.52 127.79) rotate(-49.08)"/></g></g></g></g></g></g><path class="cls-18" d="M90.86,136.75a5.35,5.35,0,0,1-.35-1.47c0,.52.74,2.29,6.89,8.43,5.15,5.13,9.07,9.14,8.4,9.5s-3.79-1.44-6.65-4a30.44,30.44,0,0,1-8.29-12.43"/><path class="cls-18" d="M123.06,156.9a30.75,30.75,0,0,1-9.94-.52c2.11.33-.22-3.34-1.87-5.56a144,144,0,0,0-9.36-11c-5.54-6-12.75-13-12.75-13a30.15,30.15,0,0,1,1.8-10.53s11.31,10.94,20.78,21.55c6.12,6.86,9.9,11.94,11.64,15,1,1.73,1.57,3.78-.3,4.06"/><path class="cls-18" d="M140.88,109.42c-5.54-6.15-11.14-11.53-11.14-11.53a30.37,30.37,0,0,1,20.11,23.86,1.45,1.45,0,0,1-.06.91c.26-.55,0-3.32-8.91-13.24"/><path class="cls-18" d="M150,131a29.45,29.45,0,0,1-3.28,9.95c.23-.42.23-1.65-1.57-4.69-3.45-5.82-12.43-16.07-17.6-21.55-7.35-7.8-16.84-17.18-16.84-17.18a31.5,31.5,0,0,1,4.94-1.08,21.87,21.87,0,0,1,5.7-.18s15.12,15.16,20.25,21.43S150.23,129,150,131"/><path class="cls-18" d="M140.76,148.72a31,31,0,0,1-8.26,5.6c.4-.31,1.16-1.56-1.84-6a158.66,158.66,0,0,0-14.38-17.88c-6.42-6.83-21.21-21.76-21.21-21.76a30.11,30.11,0,0,1,3.73-4.19,31.25,31.25,0,0,1,4-3.18s8.55,8.74,21.31,22.15a123.43,123.43,0,0,1,15.6,19.53c1.25,2.05,2.3,4.57,1,5.78"/><path class="cls-18" d="M42.82,105.19H53.6v5.63A16.38,16.38,0,0,1,67,104.36c10.28,0,17.32,7.46,17.32,17.65v25.87H73.58v-24c0-5.72-4.15-9.78-10-9.78s-10,4.06-10,9.78v24H42.82Z"/><polygon class="cls-18" points="149.43 105.19 161.04 105.19 172.81 136.61 184.66 105.19 195.53 105.19 178.53 147.88 166.43 147.88 149.43 105.19"/><path class="cls-18" d="M229.86,142.59A18.08,18.08,0,0,1,216,148.72c-11.69,0-20.65-9.62-20.65-22.22s9-22.13,20.65-22.13a17.86,17.86,0,0,1,13.84,6.22V105.2h10.78v42.69H229.86Zm-11.69-3.73c6.63,0,11.69-5.31,11.69-12.36s-5.06-12.27-11.69-12.27-11.6,5.31-11.6,12.27,5,12.36,11.6,12.36"/><rect class="cls-18" x="42.82" y="170.3" width="3.23" height="16.39"/><polygon class="cls-18" points="50.03 170.3 53.17 170.3 61.39 181.28 61.39 170.3 64.62 170.3 64.62 186.69 61.48 186.69 53.26 175.71 53.26 186.69 50.03 186.69 50.03 170.3"/><polygon class="cls-18" points="72.6 173.17 67.55 173.17 67.55 170.31 80.89 170.31 80.89 173.17 75.83 173.17 75.83 186.7 72.6 186.7 72.6 173.17"/><polygon class="cls-18" points="83.82 170.3 94.66 170.3 94.66 173.16 87.05 173.16 87.05 177.07 94.42 177.07 94.42 179.93 87.05 179.93 87.05 183.84 94.66 183.84 94.66 186.69 83.82 186.69 83.82 170.3"/><path class="cls-18" d="M103.58,180.73h-2v6H98.34V170.31h6.88c3.44,0,5.71,2.23,5.71,5.2a5.06,5.06,0,0,1-3.7,4.94l4.17,6.25h-3.84Zm1.64-2.95a2.31,2.31,0,1,0,0-4.61h-3.65v4.61Z"/><polygon class="cls-18" points="114.68 170.3 117.82 170.3 126.04 181.28 126.04 170.3 129.27 170.3 129.27 186.69 126.13 186.69 117.91 175.71 117.91 186.69 114.68 186.69 114.68 170.3"/><path class="cls-18" d="M138.75,170.3h3.58L149,186.69h-3.46l-1.46-3.63h-7.3l-1.43,3.63h-3.27Zm-.82,9.9h5l-2.51-6.27Z"/><polygon class="cls-18" points="153.99 173.17 148.94 173.17 148.94 170.31 162.28 170.31 162.28 173.17 157.22 173.17 157.22 186.7 153.99 186.7 153.99 173.17"/><rect class="cls-18" x="165.2" y="170.3" width="3.23" height="16.39"/><path class="cls-18" d="M180.56,170.06a8.43,8.43,0,1,1-8.61,8.43,8.39,8.39,0,0,1,8.61-8.43m0,13.88a5.47,5.47,0,1,0-5.29-5.45,5.27,5.27,0,0,0,5.29,5.45"/><polygon class="cls-18" points="192.65 170.3 195.79 170.3 204.01 181.28 204.01 170.3 207.24 170.3 207.24 186.69 204.1 186.69 195.88 175.71 195.88 186.69 192.65 186.69 192.65 170.3"/><path class="cls-18" d="M216.71,170.3h3.59L227,186.69H223.5l-1.45-3.63h-7.3l-1.43,3.63H210Zm-.82,9.9h5l-2.51-6.27Z"/><polygon class="cls-18" points="229.79 170.3 233.02 170.3 233.02 183.84 240.63 183.84 240.63 186.69 229.79 186.69 229.79 170.3"/></g></g></g></g></g></svg>