<svg xmlns="http://www.w3.org/2000/svg" viewBox="0 0 1000 449.623"><defs/><path fill="#1F1F1D" d="M0 0h1000v449.623H0z"/><path fill="#FFF" d="M92.692 91.957h20.139v10.552c5.607-7.477 14.47-12.12 25.143-12.12 19.234 0 32.439 13.989 32.439 33.042v48.418h-20.139v-44.86c0-10.673-7.778-18.27-18.63-18.27-10.854 0-18.813 7.597-18.813 18.27v44.86H92.692V91.957zM224.589 90.431c24.178 0 42.688 17.969 42.688 41.423 0 23.576-18.51 41.544-42.688 41.544-24.179 0-42.69-17.968-42.69-41.544 0-23.454 18.511-41.423 42.69-41.423m0 64.516c12.42 0 21.887-9.948 21.887-23.093 0-13.024-9.467-22.972-21.887-22.972-12.421 0-21.707 9.948-21.707 22.972 0 13.145 9.286 23.093 21.707 23.093M266.482 91.957h21.706l22.068 58.788 22.129-58.788h20.38l-31.836 79.892h-22.672zM416.961 161.942c-6.391 7.115-15.195 11.456-25.927 11.456-21.887 0-38.65-17.968-38.65-41.544 0-23.454 16.763-41.423 38.65-41.423 10.732 0 19.536 4.342 25.927 11.637v-10.13H437.1v79.952H416.96v-9.948zm-21.887-6.995c12.42 0 21.887-9.948 21.887-23.093 0-13.024-9.466-22.972-21.887-22.972-12.421 0-21.707 9.948-21.707 22.972 0 13.145 9.286 23.093 21.707 23.093M124.582 309.315c2.352 10.733 9.226 16.34 22.37 16.34 11.155 0 18.27-4.28 18.27-11.817 0-25.807-74.405-8.382-74.405-63.25 0-26.41 24.299-46.186 55.05-46.186 31.414 0 52.457 16.942 56.135 42.327l-37.022 7.537c-2.351-11.216-8.803-16.34-20.38-16.34-9.888 0-15.918 4.28-15.918 11.577 0 23.695 74.405 6.45 74.405 63.25 0 26.469-24.962 46.427-57.22 46.427-32.44 0-55.05-17.607-58.246-42.57l36.961-7.295zM226.717 206.512h66.445c35.695 0 58.246 22.37 58.246 52.698 0 30.329-22.55 51.613-58.246 51.613h-29.906v46.246h-36.54V206.512zm66.445 72.053c12.481 0 20.44-8.38 20.44-19.776 0-11.638-7.959-20.019-20.44-20.019h-29.906v39.795h29.906zM444.962 204.402c44.92 0 79.53 33.766 79.53 77.359 0 43.654-34.61 77.42-79.53 77.42s-79.59-33.766-79.59-77.42c0-43.593 34.67-77.359 79.59-77.359m0 121.254c23.636 0 41.725-19.113 41.725-43.895 0-24.72-18.089-43.834-41.725-43.834-23.636 0-41.724 19.113-41.724 43.834 0 24.782 18.088 43.895 41.724 43.895M597.42 307.61h-14.833v49.441h-36.54V206.554h66.627c34.188 0 55.894 21.465 55.894 50.528 0 21.043-11.577 38.046-30.75 46.005l35.091 53.964h-43.473L597.42 307.61zm15.254-33.345c10.974 0 18.089-7.537 18.089-17.605 0-10.371-7.115-17.908-18.089-17.908h-30.087v35.513h30.087zM721.471 238.776h-44.076v-32.257h124.691v32.257H758.01v118.3h-36.539z"/><path fill="#cad900" d="M825.024 307.263c.88 15.397 6.16 27.275 15.838 35.414 9.458 8.139 22.436 12.318 38.494 12.318 16.277 0 29.255-4.18 39.374-12.538 9.898-8.139 14.957-19.577 14.957-33.874 0-11.219-3.08-20.677-9.238-28.156-6.16-7.479-14.078-12.538-23.757-15.178l27.716-27.275v-31.455h-96.125v31.455h51.912l-24.856 24.636v26.396h15.178c14.737 0 22.216 6.159 22.216 18.477 0 4.399-1.32 7.918-4.4 10.778-2.859 2.64-7.258 4.18-12.977 4.18-5.28 0-9.679-1.76-12.758-4.84-3.3-3.3-4.84-8.139-4.84-14.518z" aria-label="3" style="fill:#cad900;fill-opacity:1" font-family="Organica" font-size="96" font-weight="700" letter-spacing="0" word-spacing="0"/></svg>