<svg xmlns="http://www.w3.org/2000/svg" viewBox="0 0 283.46 283.46"><defs><style>.cls-1{fill:#05052c;}.cls-2{fill:#23be96;}.cls-2,.cls-3{fill-rule:evenodd;}.cls-3,.cls-4{fill:#fff;}</style></defs><g id="Layer_2" data-name="Layer 2"><g id="O2_TV" data-name="O2 TV"><g id="o2tvfree"><rect class="cls-1" width="283.46" height="283.46"/><g id="logo"><polygon class="cls-2" points="135.5 123.86 128.05 159.59 233.49 159.59 240.94 123.86 135.5 123.86"/><polygon class="cls-3" points="49.97 123.86 42.52 159.61 128.05 159.59 135.51 123.86 49.97 123.86"/><path d="M109.4,151.18h4.24L119.43,134H116l-4.36,13.51h0L107.18,134h-3.7Zm-15.28,0h3.45v-14.5h4.93V134H89.19v2.71h4.93Z"/><path d="M68.76,148.16c-4.42,0-6.37-4-6.37-7.6,0-3.86,2.35-7.6,6.37-7.6s6.32,3.74,6.32,7.6c0,3.62-2,7.6-6.32,7.6m0-18.22c-6.21,0-10.35,4.45-10.35,10.62,0,5.81,4.22,10.63,10.35,10.63s10.3-4.82,10.3-10.63c0-6.17-4.14-10.62-10.3-10.62M81,154.32c1.46-1.44,3.38-3.19,3.38-5.1,0-1.76-1.1-2.62-2.82-2.62a6,6,0,0,0-2.66.64l.14,1.49a3.94,3.94,0,0,1,2.07-.72c.74,0,1.47.39,1.47,1.21,0,1.65-3.05,4.2-3.89,5v1.51h6v-1.42Z"/><path class="cls-4" d="M153.7,131.31h11.09l-.69,3.17h-7l-1.06,5h6.71l-.63,3.17h-6.74l-1.85,8.81h-4Z"/><path class="cls-4" d="M167.79,131.31h4.75c3.72,0,8-.06,8,4.75,0,3.46-2.59,5.3-5.88,5.36v.05a2.16,2.16,0,0,1,2.05,1.85l1.93,8.09h-4.24l-1-4.72c-.46-2.13-.34-3.63-2.53-3.63h-1.53l-1.75,8.35h-4Zm2.3,8.58h1.47c2.16,0,4.78-.66,4.78-3.31,0-2.1-1.81-2.1-3.45-2.1h-1.68Z"/><path class="cls-4" d="M185.7,131.31h11.84l-.6,3.17h-7.87l-1,5h7l-.63,3.17h-7.06l-1.18,5.64h7.95l-.69,3.17h-12Z"/><path class="cls-4" d="M201.72,131.31h11.83l-.6,3.17h-7.86l-1,5h7l-.63,3.17h-7.06l-1.18,5.64h7.95l-.7,3.17h-12Z"/></g></g></g></g></svg>