<svg xmlns="http://www.w3.org/2000/svg" viewBox="0 0 283.46 283.46"><defs><style>.cls-1{fill:#05052c;}.cls-2{fill:#fff;}.cls-3{fill:#82e10a;}</style></defs><g id="Layer_2" data-name="Layer 2"><g id="O2_TV" data-name="O2 TV"><g id="o2tvfotbal"><rect class="cls-1" width="283.46" height="283.46"/><g id="logo"><polygon class="cls-2" points="48.55 127.27 42.52 156.2 111.74 156.18 117.78 127.27 48.55 127.27"/><path d="M63.75,146.94c-3.57,0-5.15-3.23-5.15-6.15,0-3.13,1.9-6.15,5.15-6.15s5.12,3,5.12,6.15c0,2.92-1.57,6.15-5.12,6.15m0-14.75c-5,0-8.37,3.6-8.37,8.6a8.36,8.36,0,1,0,16.71,0c0-5-3.35-8.6-8.34-8.6m9.88,19.73c1.19-1.17,2.74-2.58,2.74-4.13a2,2,0,0,0-2.28-2.12,4.91,4.91,0,0,0-2.16.52l.12,1.21a3.14,3.14,0,0,1,1.67-.58c.6,0,1.19.31,1.19,1,0,1.34-2.47,3.4-3.15,4.06v1.22H76.6v-1.15Z"/><path d="M96.65,149.38h3.43l4.69-13.93H102l-3.53,10.94h0l-3.57-10.94h-3Zm-12.37,0h2.79V137.65h4v-2.2H80.29v2.2h4v11.73Z"/><polygon class="cls-3" points="117.78 127.27 111.74 156.18 234.91 156.18 240.94 127.27 117.78 127.27"/><polygon class="cls-2" points="135.69 133.16 146.73 133.16 146.11 136.26 139.4 136.26 138.58 139.85 145.05 139.85 144.41 142.95 138.03 142.95 136.64 149.55 132.2 149.55 135.69 133.16"/><path class="cls-2" d="M153.25,149.83c-5.36,0-7.32-3.31-7.32-6.67,0-6.22,3.28-10.28,9.64-10.28,5.36,0,7.32,3.31,7.32,6.69,0,6.2-3.28,10.26-9.64,10.26m2-13.71c-3.4,0-4.81,3.92-4.81,6.69,0,2.07.77,3.78,3.07,3.78,3.4,0,4.82-3.92,4.82-6.67,0-2.07-.78-3.8-3.08-3.8"/><polygon class="cls-2" points="168.4 136.4 164.29 136.4 165 133.16 177.69 133.16 176.98 136.4 172.87 136.4 170.05 149.55 165.59 149.55 168.4 136.4"/><path class="cls-2" d="M178.78,133.16h7.32c1.7,0,4.66.66,4.66,3.75,0,2.21-1.73,3.86-4.33,4.16v.05c1.89.28,3.19,1.36,3.19,3.17,0,3.47-3,5.12-6.78,5.16l-7.51.1Zm1.56,13.29h1.18c2.22,0,3.71-.61,3.71-2.21,0-1.43-1-1.64-3-1.64h-1.06Zm1.44-6.81h1.65c1.84,0,2.93-.73,2.93-1.86,0-1.31-1.09-1.52-2.74-1.52h-1.13Z"/><path class="cls-2" d="M199,133.16h5.53l2.69,16.39h-4.44l-.45-3.5h-6.4l-2,3.5h-4.77Zm2.2,3.38h-.05l-3.5,6.41h4.26Z"/><polygon class="cls-2" points="211.72 133.16 216.19 133.16 213.44 146.31 220.34 146.31 219.66 149.55 208.29 149.55 211.72 133.16"/></g></g></g></g></svg>