<svg xmlns="http://www.w3.org/2000/svg" viewBox="0 0 283.46 283.46"><defs><style>.cls-1{fill:#05052c;}.cls-2{fill:#0090d0;}.cls-3{fill:#fff;}</style></defs><g id="Layer_2" data-name="Layer 2"><g id="O2_TV" data-name="O2 TV"><g id="o2tvsport"><rect class="cls-1" width="283.46" height="283.46"/><g id="logo"><path class="cls-2" d="M123.2,126.23l-6.47,31H234.48l6.46-31Z"/><path class="cls-3" d="M49,126.22l-6.46,31h74.21l6.47-31Z"/><path d="M100.55,149.93h3.68l5-14.93h-3l-3.79,11.72h0L98.62,135H95.41Zm-13.26,0h3V137.35h4.28V135H83v2.35h4.28Z"/><path d="M65.28,147.31c-3.83,0-5.52-3.45-5.52-6.59,0-3.35,2-6.6,5.52-6.6s5.49,3.25,5.49,6.6c0,3.14-1.69,6.59-5.49,6.59m0-15.81c-5.38,0-9,3.87-9,9.22a9,9,0,1,0,17.92,0c0-5.35-3.6-9.22-9-9.22m10.59,21.15c1.27-1.25,2.94-2.77,2.94-4.42A2.15,2.15,0,0,0,76.36,146a5.14,5.14,0,0,0-2.31.56l.12,1.3a3.37,3.37,0,0,1,1.8-.63c.64,0,1.27.34,1.27,1,0,1.43-2.64,3.64-3.37,4.35v1.3h5.18v-1.23Z"/><path class="cls-3" d="M153.27,136.51a8.78,8.78,0,0,0-3.88-.81c-1.86,0-3.37.28-3.37,1.69,0,2.5,6.83,1.56,6.83,6.91,0,4.86-4.51,6.12-8.6,6.12a19.66,19.66,0,0,1-5.44-.91l1.11-3.58a9.11,9.11,0,0,0,4.33,1c1.47,0,3.76-.28,3.76-2.09,0-2.82-6.83-1.76-6.83-6.73,0-4.53,4-5.89,7.84-5.89a14.19,14.19,0,0,1,5.39.78Z"/><path class="cls-3" d="M157.21,132.53h4.68c3.86,0,7.74.4,7.74,4.84s-3.58,6.6-7.81,6.6h-2.4l-1.31,6.15h-4.68Zm2.92,8.11h1.26c1.86,0,3.55-.65,3.55-2.74,0-1.69-1.16-2-2.42-2h-1.38Z"/><path class="cls-3" d="M177.31,150.42c-5.72,0-7.81-3.55-7.81-7.16,0-6.67,3.5-11,10.28-11,5.72,0,7.81,3.55,7.81,7.18C187.59,146.06,184.09,150.42,177.31,150.42Zm2.17-14.72c-3.63,0-5.14,4.21-5.14,7.19,0,2.21.83,4.05,3.28,4.05,3.62,0,5.14-4.21,5.14-7.15C182.76,137.57,181.92,135.7,179.48,135.7Z"/><path class="cls-3" d="M191.17,132.53h5.62c3.35,0,7.38.13,7.38,4.48,0,3.1-2.42,4.19-5.11,4.51v0c1.38.13,1.84,2,2.09,3.13l1.26,5.42h-4.69l-.9-4.49c-.46-2.29-.61-2.47-2.72-2.47h-.51l-1.41,7h-4.71Zm3.1,7.31h1.59c2,0,3.63-.51,3.63-2.17,0-1.26-.76-1.79-2.17-1.81h-2.24Z"/><path class="cls-3" d="M209.79,136h-4.38l.76-3.48H219.7l-.76,3.48h-4.38l-3,14.11H206.8Z"/></g></g></g></g></svg>