<svg xmlns="http://www.w3.org/2000/svg" viewBox="0 0 283.46 283.46"><defs><style>.cls-1{fill:#05052c;}.cls-2{fill:#ff7d00;}.cls-3{fill:#fff;}</style></defs><g id="Layer_2" data-name="Layer 2"><g id="O2_TV" data-name="O2 TV"><g id="o2tvtenis"><rect class="cls-1" width="283.46" height="283.46"/><g id="logo"><path class="cls-2" d="M129.4,125l-7,33.39H234l7-33.39Z"/><path class="cls-3" d="M49.48,125l-7,33.4h79.91l7-33.39Z"/><path d="M105,150.56h4l5.41-16.08h-3.2L107.1,147.1h0l-4.13-12.62H99.48Zm-14.28,0H94V137h4.61v-2.54H86.12V137h4.61v13.54ZM67,147.74c-4.12,0-5.94-3.72-5.94-7.1,0-3.61,2.19-7.1,5.94-7.1s5.91,3.49,5.91,7.1c0,3.38-1.82,7.1-5.91,7.1m0-17c-5.79,0-9.66,4.17-9.66,9.93a9.65,9.65,0,1,0,19.29,0c0-5.76-3.86-9.93-9.63-9.93m11.4,22.78c1.37-1.35,3.17-3,3.17-4.76s-1-2.45-2.64-2.45a5.54,5.54,0,0,0-2.49.6l.14,1.39a3.62,3.62,0,0,1,1.93-.67c.69,0,1.37.36,1.37,1.13,0,1.54-2.85,3.92-3.63,4.68v1.41h5.58v-1.33Z"/><path class="cls-3" d="M149.67,135.59H145l.81-3.73H160.3l-.81,3.73h-4.71l-3.22,15.15h-5.11Zm12-3.73h13.29l-.73,3.57H165.9l-.86,3.89h7.87l-.79,3.57h-7.84l-.92,4.28H172l-.73,3.57H157.6Zm15.78,0h6.3L187.6,145h.05l2.66-13.09h4.76l-4,18.88h-6.27l-3.95-13.07h-.06l-2.62,13.07H173.4Zm20.53,0h5.09l-3.92,18.88H194Zm19.56,4.27a9.46,9.46,0,0,0-4.16-.87c-2,0-3.63.3-3.63,1.82,0,2.68,7.33,1.67,7.33,7.41,0,5.22-4.84,6.57-9.22,6.57a21.31,21.31,0,0,1-5.85-1l1.19-3.84a9.9,9.9,0,0,0,4.66,1.08c1.57,0,4-.3,4-2.25,0-3-7.33-1.89-7.33-7.22,0-4.87,4.27-6.33,8.41-6.33a15.21,15.21,0,0,1,5.79.84Z"/></g></g></g></g></svg>