<svg xmlns="http://www.w3.org/2000/svg" viewBox="0 0 283.46 283.46"><defs><style>.cls-1{fill:#f89c0e;}.cls-2{fill:#fff;}</style></defs><g id="Layer_2" data-name="Layer 2"><g id="Ostatní_muzika" data-name="Ostatní muzika"><g id="ockostar"><rect class="cls-1" width="283.46" height="283.46"/><g id="logo"><path class="cls-2" d="M56.51,124.46l-2.87,5.27h6.1l3.11-5.27Z"/><path class="cls-2" d="M57,152.78c-4.59,0-7.5-3.55-7.5-8.1s2.6-8.09,7.46-8.09,7.54,3.59,7.54,8.09-2.63,8.1-7.5,8.1m-.15-22.42c-8.5,0-14.32,6.34-14.32,14.36S48,159,57,159c8.85,0,14.44-6.34,14.44-14.39s-5.62-14.25-14.64-14.25"/><path class="cls-2" d="M90.49,129.73l4-5.27H88.7l-1.55,1.76-1.56-1.76H79.85l4,5.27Z"/><path class="cls-2" d="M87.7,136.59a7.93,7.93,0,0,1,5.3,2.06l4-5a13.59,13.59,0,0,0-9.33-3.26c-8.82,0-14.56,6.37-14.56,14.35S78.56,159,87.74,159a12.73,12.73,0,0,0,9.16-3.59L93,150.7a8,8,0,0,1-5.26,2.07c-4.63,0-7.7-3.54-7.7-8.09s2.75-8.09,7.66-8.09"/><path class="cls-2" d="M120.91,130.88h-7.69l-7.54,10.81V130.88H99v27.6h6.66V147.2l7.42,11.28h7.77l-9.65-14.4Z"/><path class="cls-2" d="M134.87,152.78c-4.58,0-7.5-3.55-7.5-8.1s2.6-8.09,7.46-8.09,7.54,3.59,7.54,8.09-2.63,8.1-7.5,8.1m-.15-22.42a13.93,13.93,0,0,0-14.32,14.36c0,8.1,5.51,14.28,14.53,14.28,8.84,0,14.43-6.34,14.43-14.39s-5.62-14.25-14.64-14.25"/><path class="cls-2" d="M169.85,142.17l-3.48-1.36c-1.86-.72-2.5-1.51-2.5-2.67a2,2,0,0,1,2.27-2.07c1.55,0,2.44,1.2,2.39,2.91h6.14c.28-4.9-2.07-8.61-8.58-8.61-5.37,0-8.89,3.35-8.89,8.17a8,8,0,0,0,4.27,7.5c1.52.75,2.91,1.28,4.31,1.83,1.8.68,2.91,1.44,2.91,3a2.36,2.36,0,0,1-2.63,2.44c-2.19,0-2.88-1.72-2.79-3.47H157c-.25,4,1.19,9.17,9.09,9.17,5.54,0,9.49-3.27,9.49-8.85,0-4.11-2.11-6.51-5.7-8"/><path class="cls-2" d="M192.9,130.88H177v6.22h4.63v21.38h6.66V137.1h4.59Z"/><path class="cls-2" d="M202.35,146.32l2.43-7,2.44,7Zm-1.08-15.44-9.65,27.6h6.54l2.28-6.58h8.69l2.31,6.58h7.06l-10.21-27.6Z"/><path class="cls-2" d="M228.9,141.73h-2.31v-5.1h2.31a2.3,2.3,0,0,1,2.4,2.5,2.32,2.32,0,0,1-2.4,2.6m5.75,4.15a7.51,7.51,0,0,0,3.51-6.78c0-5.23-2.91-8.22-8.69-8.22H220v27.6h6.62V147.15h1.8l5.42,11.33h7.13Z"/></g></g></g></g></svg>