<svg xmlns="http://www.w3.org/2000/svg" viewBox="0 0 283.46 283.46"><defs><style>.cls-1{fill:#f8a41f;}.cls-2{fill:#fff;}</style></defs><title>ockogold</title><g id="Layer_2" data-name="Layer 2"><g id="Ostatní_muzika" data-name="Ostatní muzika"><g id="ockogold"><rect class="cls-1" width="283.46" height="283.46"/><g id="logo"><path class="cls-2" d="M175.32,157.09h-5.91v-1.24a9.39,9.39,0,0,1-5.83,1.67c-7.86,0-13.18-5.22-13.18-13.12a12.79,12.79,0,0,1,13.18-13.08c5.54,0,8.91,2.33,10.79,5.34l-4.85,3.47a6.88,6.88,0,0,0-6-3.11c-4,0-6.75,3-6.75,7.39,0,4.56,3,7.5,7.08,7.5A7.6,7.6,0,0,0,169.3,150v-1.82h-3.78v-5h9.8Z"/><path class="cls-2" d="M191.12,151.86c4.48,0,6.9-3.29,6.9-7.42s-2.57-7.42-6.94-7.42-6.86,3.29-6.86,7.42,2.68,7.42,6.9,7.42M191,131.32c8.3,0,13.47,5.66,13.47,13s-5.14,13.2-13.28,13.2c-8.3,0-13.36-5.66-13.36-13.09A12.79,12.79,0,0,1,191,131.32"/><path class="cls-2" d="M207.43,157.09v-25.3h6.13v19.6h5.8v5.7Z"/><path class="cls-2" d="M227.75,151.71c4,0,6.81-2.41,6.81-7.31s-2.66-7.27-6.81-7.24Zm-.34-19.92c8.4,0,13.54,4.64,13.54,12.57s-5.14,12.72-13.54,12.72h-5.8v-25.3Z"/><path class="cls-2" d="M61.17,125.9l-2.85,4.83h-5.6l2.63-4.83Z"/><path class="cls-2" d="M55.64,131.31a12.77,12.77,0,0,0-13.12,13.16c0,7.42,5,13.09,13.31,13.09s13.24-5.81,13.24-13.2-5.16-13.05-13.42-13.05Zm.11,5.71c4.35,0,6.91,3.28,6.91,7.42s-2.41,7.42-6.87,7.42c-4.2,0-6.88-3.26-6.88-7.42S51.3,137,55.76,137Z"/><path class="cls-2" d="M81.27,130.73l-3.62-4.83h5.26l1.43,1.61,1.43-1.61H91l-3.62,4.83Z"/><path class="cls-2" d="M93.3,154.28a11.73,11.73,0,0,1-8.41,3.29c-8.41,0-13.45-5.7-13.45-13.09s5.27-13.17,13.34-13.17a12.46,12.46,0,0,1,8.56,3l-3.62,4.61a7.26,7.26,0,0,0-4.86-1.9c-4.5,0-7,3.29-7,7.42s2.81,7.42,7.05,7.42a7.37,7.37,0,0,0,4.83-1.9l3.58,4.31Z"/><path class="cls-2" d="M102.08,141.7l6.91-9.91H116l-8.88,12.1,8.85,13.2h-7.13l-6.8-10.35v10.35H96v-25.3h6.11v9.91Z"/><path class="cls-2" d="M128.15,131.31A12.77,12.77,0,0,0,115,144.48c0,7.42,5,13.09,13.31,13.09s13.24-5.81,13.24-13.19-5.16-13.06-13.42-13.06Zm.11,5.71c4.35,0,6.91,3.28,6.91,7.42s-2.41,7.42-6.88,7.42c-4.2,0-6.87-3.26-6.87-7.42S123.8,137,128.26,137Z"/></g></g></g></g></svg>