<svg xmlns="http://www.w3.org/2000/svg" viewBox="0 0 283.46 283.46"><defs><style>.cls-1{fill:#ec1e27;}.cls-2{fill:#fff;}</style></defs><g id="Layer_2" data-name="Layer 2"><g id="Ostatní_muzika" data-name="Ostatní muzika"><g id="ocko"><rect class="cls-1" width="283.46" height="283.46"/><g id="logo"><path class="cls-2" d="M79.88,110l-5.71,9.67H63L68.23,110Z"/><path class="cls-2" d="M68.81,120.86c-15.6,0-26.29,11.65-26.29,26.37,0,14.87,10.12,26.22,26.66,26.22,16.27,0,26.52-11.65,26.52-26.45s-10.33-26.14-26.89-26.14ZM69,132.29c8.72,0,13.84,6.58,13.84,14.86S78.05,162,69.12,162c-8.42,0-13.77-6.52-13.77-14.87S60.11,132.29,69,132.29Z"/><path class="cls-2" d="M120.16,119.69,112.91,110h10.55l2.86,3.22,2.85-3.22h10.54l-7.24,9.67Z"/><path class="cls-2" d="M144.26,166.85a23.47,23.47,0,0,1-16.85,6.59c-16.85,0-26.95-11.42-26.95-26.22,0-14.65,10.55-26.37,26.73-26.37,7.69,0,13.11,2.49,17.14,6l-7.25,9.23a14.54,14.54,0,0,0-9.74-3.8c-9,0-14.06,6.59-14.06,14.86S118.92,162,127.41,162a14.66,14.66,0,0,0,9.67-3.81l7.18,8.64Z"/><path class="cls-2" d="M161.84,141.66l13.84-19.85h14.13L172,146.05l17.72,26.45H175.46l-13.62-20.73V172.5H149.61V121.81h12.23v19.85Z"/><path class="cls-2" d="M214.06,120.86c-15.6,0-26.3,11.65-26.3,26.37,0,14.87,10.11,26.22,26.67,26.22,16.26,0,26.51-11.64,26.51-26.44s-10.33-26.15-26.88-26.15Zm.22,11.43c8.72,0,13.84,6.58,13.84,14.86S223.29,162,214.34,162c-8.42,0-13.76-6.52-13.76-14.87s4.76-14.86,13.7-14.86Z"/></g></g></g></g></svg>