<svg xmlns="http://www.w3.org/2000/svg" viewBox="0 0 283.46 283.46"><defs><style>.cls-1{fill:#ec1e27;}.cls-2{fill:#fff;}</style></defs><g id="Layer_2" data-name="Layer 2"><g id="Ostatní_muzika" data-name="Ostatní muzika"><g id="ockoexpres"><rect class="cls-1" width="283.46" height="283.46"/><g id="logo"><path class="cls-2" d="M54.06,127.5l-2.36,4.34h5l2.56-4.34Zm.27,4.86A11.48,11.48,0,0,0,42.52,144.2c0,6.68,4.54,11.76,12,11.76S66.4,150.75,66.4,144.1,61.76,132.36,54.33,132.36Zm.1,5.13c3.91,0,6.21,3,6.21,6.67s-2.17,6.68-6.18,6.68c-3.78,0-6.18-2.93-6.18-6.68S50.42,137.49,54.43,137.49Z"/><path class="cls-2" d="M82.91,131.84l3.26-4.34H81.43L80.15,129l-1.29-1.45H74.13l3.25,4.34Z"/><path class="cls-2" d="M85,149.13a6.52,6.52,0,0,1-4.34,1.71c-3.81,0-6.35-2.93-6.35-6.68s2.27-6.67,6.32-6.67A6.47,6.47,0,0,1,85,139.2l3.26-4.14a11.23,11.23,0,0,0-7.7-2.7c-7.27,0-12,5.27-12,11.84S73.08,156,80.64,156a10.55,10.55,0,0,0,7.57-3Z"/><path class="cls-2" d="M96.1,132.8H90.61v22.74H96.1v-9.3l6.12,9.3h6.41l-8-11.88,8-10.86h-6.35l-6.21,8.9Z"/><path class="cls-2" d="M119.55,132.36a11.48,11.48,0,0,0-11.81,11.84c0,6.68,4.54,11.76,12,11.76s11.9-5.21,11.9-11.86S127,132.36,119.55,132.36Zm.1,5.13c3.91,0,6.21,3,6.21,6.67s-2.17,6.68-6.18,6.68c-3.78,0-6.18-2.93-6.18-6.68S115.64,137.49,119.65,137.49Z"/><path class="cls-2" d="M151.06,155.54v-5.13h-5.4V146.5h5.14v-5.06h-5.14v-3.51H151V132.8H140.17v22.74Z"/><path class="cls-2" d="M152.6,155.54h6.15c.66-1,2.14-3.45,4.48-6.94l4.5,6.94h6.34L166.68,144l7.13-11.16h-6.44L163.52,139l-4-6.24h-6.67l7.2,11Z"/><path class="cls-2" d="M176,132.8v22.74h5.45v-9.08h2.4c4.39,0,7.15-2.7,7.15-6.9s-2.4-6.76-7.18-6.76Zm5.45,4.73h1.91a1.89,1.89,0,0,1,2,2.07,1.92,1.92,0,0,1-2,2.13H181.4Z"/><path class="cls-2" d="M193.31,132.8v22.74h5.46v-9.33h1.48l4.47,9.33h5.89l-5.2-10.39a6.18,6.18,0,0,0,2.9-5.59c0-4.31-2.4-6.76-7.16-6.76Zm5.46,4.73h1.92a2.1,2.1,0,0,1,0,4.2h-1.92Z"/><path class="cls-2" d="M223.11,155.54v-5.13h-5.4V146.5h5.15v-5.06h-5.15v-3.51H223V132.8H212.22v22.74Z"/><path class="cls-2" d="M231.31,138.78a1.67,1.67,0,0,1,1.86-1.72c1.29,0,2,1,2,2.4h5.05c.23-4-1.7-7.1-7.06-7.1-4.44,0-7.34,2.77-7.34,6.74a6.6,6.6,0,0,0,3.51,6.19c1.26.62,2.41,1.05,3.56,1.51,1.48.55,2.4,1.18,2.4,2.45a1.94,1.94,0,0,1-2.17,2c-1.8,0-2.36-1.41-2.3-2.86h-5.2c-.2,3.33,1,7.56,7.5,7.56,4.57,0,7.83-2.68,7.83-7.3,0-3.37-1.74-5.35-4.71-6.57L233.37,141c-1.54-.59-2.06-1.25-2.06-2.2"/></g></g></g></g></svg>