<svg xmlns="http://www.w3.org/2000/svg" viewBox="0 0 283.46 283.46"><defs><style>.cls-1{fill:#ff7500;}.cls-2{fill:#fff;}</style></defs><g id="Layer_2" data-name="Layer 2"><g id="Sport"><g id="orangesportsk"><rect width="283.46" height="283.46"/><g id="logo"><path class="cls-1" d="M58.59,133.75,45.76,199H217.87a13,13,0,0,0,12.24-10.14l10.83-55.1Z"/><path class="cls-2" d="M96.87,175.47a4.48,4.48,0,0,0,1.37,1.61,5.8,5.8,0,0,0,2,.92,9.49,9.49,0,0,0,2.39.3,12.75,12.75,0,0,0,1.79-.14,6.06,6.06,0,0,0,1.8-.54,3.92,3.92,0,0,0,1.39-1.09,2.79,2.79,0,0,0,.56-1.78,2.52,2.52,0,0,0-.74-1.87,5.77,5.77,0,0,0-1.93-1.19,19.35,19.35,0,0,0-2.71-.84c-1-.24-2-.5-3.07-.8a27.19,27.19,0,0,1-3.1-1,10.92,10.92,0,0,1-2.71-1.5A6.93,6.93,0,0,1,92,165.29a6.82,6.82,0,0,1-.74-3.32,7.36,7.36,0,0,1,.94-3.8,8.31,8.31,0,0,1,2.45-2.69,10.75,10.75,0,0,1,3.42-1.6,14.81,14.81,0,0,1,3.82-.51,18.26,18.26,0,0,1,4.29.49,10.47,10.47,0,0,1,3.64,1.62,8.13,8.13,0,0,1,2.53,2.84,8.7,8.7,0,0,1,.94,4.21h-6.06a5.08,5.08,0,0,0-.53-2.12,3.58,3.58,0,0,0-1.22-1.31,5,5,0,0,0-1.73-.68,10.86,10.86,0,0,0-2.13-.2,7.14,7.14,0,0,0-1.52.16,4.25,4.25,0,0,0-1.37.56,3.47,3.47,0,0,0-1,1,2.71,2.71,0,0,0-.4,1.51,2.54,2.54,0,0,0,.32,1.35,2.83,2.83,0,0,0,1.26,1,15.72,15.72,0,0,0,2.59.87c1.1.3,2.54.67,4.32,1.12.53.11,1.27.3,2.21.58a10.43,10.43,0,0,1,2.81,1.34,8.5,8.5,0,0,1,2.41,2.44,7,7,0,0,1,1,3.93,8.72,8.72,0,0,1-.75,3.62,8,8,0,0,1-2.25,2.89,10.81,10.81,0,0,1-3.71,1.89,17.54,17.54,0,0,1-5.12.68,17.82,17.82,0,0,1-4.56-.58,11.46,11.46,0,0,1-3.9-1.81,8.84,8.84,0,0,1-2.69-3.15,9.48,9.48,0,0,1-1-4.54h6.06A5.14,5.14,0,0,0,96.87,175.47Z"/><path class="cls-2" d="M122.72,161.89v2.63h.08a6.12,6.12,0,0,1,2.63-2.43,8.12,8.12,0,0,1,3.5-.76,8.92,8.92,0,0,1,4.18.92,8.61,8.61,0,0,1,2.91,2.43,10.22,10.22,0,0,1,1.71,3.52,15.32,15.32,0,0,1,.56,4.2,13.94,13.94,0,0,1-.56,4,10,10,0,0,1-1.69,3.38,8.23,8.23,0,0,1-6.79,3.23,8,8,0,0,1-3.53-.78,6.69,6.69,0,0,1-2.64-2.29H123v9.76h-5.66v-27.8Zm7.35,16.33a4.65,4.65,0,0,0,1.51-1.45,6.15,6.15,0,0,0,.82-2.1,12.21,12.21,0,0,0,.24-2.43,11.5,11.5,0,0,0-.26-2.42,6.67,6.67,0,0,0-.86-2.14,4.9,4.9,0,0,0-1.53-1.51,4.35,4.35,0,0,0-2.29-.58,4.4,4.4,0,0,0-2.33.58,4.64,4.64,0,0,0-1.52,1.5,6.09,6.09,0,0,0-.81,2.1,12.61,12.61,0,0,0-.24,2.47,10.9,10.9,0,0,0,.26,2.43,6.37,6.37,0,0,0,.83,2.1,4.56,4.56,0,0,0,1.54,1.45,5.09,5.09,0,0,0,4.64,0Z"/><path class="cls-2" d="M141.8,167.72a9.41,9.41,0,0,1,5.5-5.61,11.67,11.67,0,0,1,4.38-.78,11.89,11.89,0,0,1,4.4.78,9.46,9.46,0,0,1,3.36,2.19,9.69,9.69,0,0,1,2.16,3.42,12.8,12.8,0,0,1,.75,4.48,12.62,12.62,0,0,1-.75,4.47,9.79,9.79,0,0,1-2.16,3.4,9.15,9.15,0,0,1-3.36,2.17,12.09,12.09,0,0,1-4.4.76,11.87,11.87,0,0,1-4.38-.76,9.2,9.2,0,0,1-3.35-2.17,9.62,9.62,0,0,1-2.15-3.4,12.4,12.4,0,0,1-.76-4.47A12.57,12.57,0,0,1,141.8,167.72Zm5.13,6.9a6.48,6.48,0,0,0,.82,2.1,4.34,4.34,0,0,0,1.54,1.5,4.67,4.67,0,0,0,2.39.56,4.79,4.79,0,0,0,2.4-.56,4.16,4.16,0,0,0,1.56-1.5,6.27,6.27,0,0,0,.82-2.1,12.11,12.11,0,0,0,.23-2.42,12.35,12.35,0,0,0-.23-2.43,6.1,6.1,0,0,0-.82-2.1,4.4,4.4,0,0,0-1.56-1.5,4.69,4.69,0,0,0-2.4-.58,4.37,4.37,0,0,0-3.93,2.08,6.31,6.31,0,0,0-.82,2.1,13.16,13.16,0,0,0-.23,2.43A12.89,12.89,0,0,0,146.93,174.62Z"/><path class="cls-2" d="M170.13,161.89v3.82h.08a6.47,6.47,0,0,1,1.08-1.77,6.61,6.61,0,0,1,1.55-1.39,7.17,7.17,0,0,1,1.87-.9,6.79,6.79,0,0,1,2.07-.32,4.61,4.61,0,0,1,1.24.2v5.26c-.27,0-.59-.1-1-.14a10,10,0,0,0-1.07-.06,6.08,6.08,0,0,0-2.63.51,4.6,4.6,0,0,0-1.74,1.42,5.76,5.76,0,0,0-.93,2.09,11.18,11.18,0,0,0-.28,2.59v9.28h-5.66V161.89Z"/><path class="cls-2" d="M193.81,161.89v3.78h-4.14v10.2a1.92,1.92,0,0,0,2.39,2.39,8.84,8.84,0,0,0,.91,0,6.79,6.79,0,0,0,.84-.12v4.38a14.23,14.23,0,0,1-1.59.16c-.59,0-1.16,0-1.72,0a16.58,16.58,0,0,1-2.49-.18,6,6,0,0,1-2.07-.69,3.8,3.8,0,0,1-1.41-1.48,5.2,5.2,0,0,1-.52-2.51V165.67h-3.43v-3.78H184v-6.17h5.66v6.17Z"/><path class="cls-2" d="M65.6,84.48c-5.66,0-11.15,4.26-12.25,9.51L42.52,145.72H224.88L237.7,84.48Z"/><path class="cls-1" d="M73.91,105.76A14.12,14.12,0,0,1,76.66,101a12.45,12.45,0,0,1,4.4-3.19,15.51,15.51,0,0,1,11.77,0A12.46,12.46,0,0,1,97.21,101a14,14,0,0,1,2.75,4.76,17.7,17.7,0,0,1,1,5.91,17.09,17.09,0,0,1-1,5.8,13.69,13.69,0,0,1-2.75,4.68,12.56,12.56,0,0,1-4.38,3.13,15.89,15.89,0,0,1-11.77,0,12.55,12.55,0,0,1-4.4-3.13,13.85,13.85,0,0,1-2.75-4.68,17.09,17.09,0,0,1-1-5.8A17.7,17.7,0,0,1,73.91,105.76Zm5.72,9.4a9.37,9.37,0,0,0,1.33,3,6.87,6.87,0,0,0,2.39,2.18,8.34,8.34,0,0,0,7.17,0,6.87,6.87,0,0,0,2.39-2.18,9.39,9.39,0,0,0,1.34-3,15,15,0,0,0,.41-3.49,16,16,0,0,0-.41-3.62,9.69,9.69,0,0,0-1.34-3.13,6.8,6.8,0,0,0-2.39-2.19,8.25,8.25,0,0,0-7.17,0A6.8,6.8,0,0,0,81,104.92a9.67,9.67,0,0,0-1.33,3.13,15.46,15.46,0,0,0-.42,3.62A14.44,14.44,0,0,0,79.63,115.16Z"/><path class="cls-1" d="M109.32,105.18V109h.08a7.37,7.37,0,0,1,1.08-1.77,7.06,7.06,0,0,1,1.55-1.39,7.49,7.49,0,0,1,1.87-.9,6.9,6.9,0,0,1,2.08-.32,4.49,4.49,0,0,1,1.23.2v5.26c-.27,0-.58-.1-1-.14a10,10,0,0,0-1.07-.06,6.1,6.1,0,0,0-2.63.52,4.46,4.46,0,0,0-1.73,1.41,5.78,5.78,0,0,0-.94,2.09,11.75,11.75,0,0,0-.28,2.59v9.28H104V105.18Z"/><path class="cls-1" d="M118.56,111.51a6.6,6.6,0,0,1,1-3.3,6.71,6.71,0,0,1,2.23-2.11,9.84,9.84,0,0,1,3-1.14,17.76,17.76,0,0,1,3.41-.34,22.41,22.41,0,0,1,3.14.22,9.66,9.66,0,0,1,2.91.86,5.64,5.64,0,0,1,2.15,1.77,5,5,0,0,1,.84,3v10.71a20.82,20.82,0,0,0,.16,2.67,4.79,4.79,0,0,0,.55,1.91h-5.73a6.3,6.3,0,0,1-.26-1,8.35,8.35,0,0,1-.14-1,7.46,7.46,0,0,1-3.19,2,12.83,12.83,0,0,1-3.74.55,10.1,10.1,0,0,1-2.75-.36,6.23,6.23,0,0,1-2.23-1.11,5,5,0,0,1-1.49-1.91,6.45,6.45,0,0,1-.54-2.75,5.92,5.92,0,0,1,.62-2.89,5.1,5.1,0,0,1,1.59-1.81,7.23,7.23,0,0,1,2.23-1c.84-.22,1.68-.4,2.53-.54s1.68-.23,2.51-.31a15.16,15.16,0,0,0,2.19-.36,3.72,3.72,0,0,0,1.51-.7,1.53,1.53,0,0,0,.52-1.34,3,3,0,0,0-.3-1.45,2.23,2.23,0,0,0-.8-.84,3.13,3.13,0,0,0-1.15-.39,9,9,0,0,0-1.42-.1,4.25,4.25,0,0,0-2.62.72,3.18,3.18,0,0,0-1.12,2.38Zm13.07,4.19a2.43,2.43,0,0,1-.9.49,7.73,7.73,0,0,1-1.15.3c-.41.08-.84.15-1.3.2s-.9.12-1.35.2a10.4,10.4,0,0,0-1.25.32,3.77,3.77,0,0,0-1.08.54,2.57,2.57,0,0,0-.74.86,2.79,2.79,0,0,0-.28,1.31,2.71,2.71,0,0,0,.28,1.27,2.15,2.15,0,0,0,.76.82,3.2,3.2,0,0,0,1.11.42,7.2,7.2,0,0,0,1.32.12,5,5,0,0,0,2.59-.56,3.74,3.74,0,0,0,1.35-1.33,4.25,4.25,0,0,0,.54-1.58,10,10,0,0,0,.1-1.27Z"/><path class="cls-1" d="M146.41,105.18v2.87h.12a6.36,6.36,0,0,1,2.79-2.61,8.12,8.12,0,0,1,3.5-.82,9.55,9.55,0,0,1,3.72.62,5.55,5.55,0,0,1,2.3,1.71,6.79,6.79,0,0,1,1.17,2.67,16.33,16.33,0,0,1,.34,3.49v12.66h-5.66V114.14a7.23,7.23,0,0,0-.79-3.8,3.09,3.09,0,0,0-2.83-1.26,3.92,3.92,0,0,0-3.35,1.38,7.63,7.63,0,0,0-1,4.52v10.79H141V105.18Z"/><path class="cls-1" d="M183.47,127.29a7,7,0,0,1-1.45,3,8.81,8.81,0,0,1-3.23,2.33,14,14,0,0,1-5.65.95,13.86,13.86,0,0,1-3.09-.37,10,10,0,0,1-2.87-1.18,7.13,7.13,0,0,1-2.15-2.05,6,6,0,0,1-1-3h5.62a3.22,3.22,0,0,0,1.56,2.21,5.56,5.56,0,0,0,2.66.62,4.11,4.11,0,0,0,3.49-1.44,5.58,5.58,0,0,0,1.05-3.62V122h-.07a5.69,5.69,0,0,1-2.61,2.41,8.44,8.44,0,0,1-3.57.78,9,9,0,0,1-4-.82,7.45,7.45,0,0,1-2.75-2.23,9.41,9.41,0,0,1-1.58-3.31,15.71,15.71,0,0,1-.49-4A12.93,12.93,0,0,1,164,111a10,10,0,0,1,1.7-3.27,8.13,8.13,0,0,1,2.77-2.25,8.27,8.27,0,0,1,3.8-.84,8,8,0,0,1,3.56.76,6.19,6.19,0,0,1,2.58,2.55h.07v-2.75h5.38v19.28A13.53,13.53,0,0,1,183.47,127.29Zm-7.74-6.85a4.47,4.47,0,0,0,1.51-1.28,5.37,5.37,0,0,0,.89-1.81,7.51,7.51,0,0,0,.3-2.13,11.6,11.6,0,0,0-.23-2.41,6,6,0,0,0-.8-2,4.06,4.06,0,0,0-1.48-1.4,4.7,4.7,0,0,0-2.31-.52,4.14,4.14,0,0,0-2.05.48,4.23,4.23,0,0,0-1.43,1.3,5.31,5.31,0,0,0-.84,1.87,9.36,9.36,0,0,0-.26,2.21,11.66,11.66,0,0,0,.22,2.21,6,6,0,0,0,.76,2,4.41,4.41,0,0,0,1.41,1.44,4,4,0,0,0,2.19.56A4.51,4.51,0,0,0,175.73,120.44Z"/><path class="cls-1" d="M193.77,120.83a5,5,0,0,0,3.66,1.24,5.1,5.1,0,0,0,2.95-.85,3.52,3.52,0,0,0,1.51-1.82h5a9.44,9.44,0,0,1-3.66,5.3,10.82,10.82,0,0,1-6,1.59,11.54,11.54,0,0,1-4.38-.78,8.92,8.92,0,0,1-3.3-2.21,9.74,9.74,0,0,1-2.1-3.42,12.58,12.58,0,0,1-.73-4.38,12.2,12.2,0,0,1,.75-4.31,10.39,10.39,0,0,1,2.15-3.44,10.15,10.15,0,0,1,3.33-2.29,10.65,10.65,0,0,1,4.28-.84,9.8,9.8,0,0,1,4.59,1,9.13,9.13,0,0,1,3.2,2.73,11.09,11.09,0,0,1,1.81,3.9,14.48,14.48,0,0,1,.4,4.58H192.38A5.66,5.66,0,0,0,193.77,120.83ZM200.16,110a4,4,0,0,0-3.09-1.12,4.93,4.93,0,0,0-2.24.46,4.39,4.39,0,0,0-1.44,1.14,4.22,4.22,0,0,0-.76,1.43,6.48,6.48,0,0,0-.25,1.36h9.19A6.44,6.44,0,0,0,200.16,110Z"/></g></g></g></g></svg>