<svg xmlns="http://www.w3.org/2000/svg" viewBox="0 0 283.46 283.46"><defs><style>.cls-1{fill:#0067a5;}.cls-2{fill:#fff;}</style></defs><g id="Layer_2" data-name="Layer 2"><g id="Prima"><g id="paramountnetwork"><rect class="cls-1" width="283.46" height="283.46"/><g id="logo"><path class="cls-2" d="M240.76,124.59h-5.1l-1.19,2.67-2,4.51h-2.4l-.7,1.53h2.46l-3,6.59c-2.12,4.63-5.48,9.21-7.41,9.21-.41,0-.66-.18-.66-.62a5.22,5.22,0,0,1,.61-2c.62-1.41,1.6-3.44,2.33-4.92,1-2.15,2.75-5.54,2.75-7.21a2.86,2.86,0,0,0-3.16-3c-2.38,0-4.5,1.43-6.46,3.46l1.28-3.08h-4.83l-4,8.92c-1.57,3.17-4.78,8.41-6.77,8.41-.41,0-.59-.25-.59-.66a3.15,3.15,0,0,1,.3-1.1l2.53-5.86,4.26-9.75h-5.18l-4.14,9.48c-1.3,2.94-4.54,7.89-6.62,7.89a.63.63,0,0,1-.7-.73,7.28,7.28,0,0,1,.68-2.14l2.17-4.75,4.49-9.75h-5.18l-1,2.19c-.75,1.48-2,3.23-4.08,3.23a1.72,1.72,0,0,1-1.66-.77,5.09,5.09,0,0,0-5.48-5c-4.28,0-7.31,2.53-9.32,5.58a27.07,27.07,0,0,0-3.06,6.8c-1.82,3-3.76,5.36-5.26,5.36-.39,0-.62-.23-.62-.73a7,7,0,0,1,.69-2.08l3.35-7.13c.93-2.22,1.59-3.67,1.59-5.11a2.57,2.57,0,0,0-2.82-2.64,10.1,10.1,0,0,0-7.16,3.71,5.38,5.38,0,0,0,.11-1.12,2.31,2.31,0,0,0-2.62-2.59c-2.23,0-4.51,1.32-6.61,3.71l1.39-3.35h-4.72l-4,8.91c-1.9,4.2-4.91,8.42-6.64,8.42-.41,0-.64-.21-.64-.71a14.76,14.76,0,0,1,1.23-3.6l5.25-11.9c.38-.89-2.12-1.44-5.34-1.44a15.15,15.15,0,0,0-9.14,3.69c-1.73,1.44-3,2.17-3.69,2.17-.32,0-.48-.18-.48-.39,0-.73,1.75-2.78,1.75-4.33,0-.71-.38-1.18-1.36-1.18-1.9,0-4.11,1.8-5.75,3.67l1.39-3.29H115.4l-3.94,8.92c-1.9,4.19-5,8.59-6.73,8.59-.41,0-.64-.2-.64-.73a14.4,14.4,0,0,1,1.32-3.78l5.25-11.9c.39-.89-2.12-1.44-5.34-1.44-4.72,0-9.32,3.19-11.81,6.45-2.69,3.56-4.51,7.3-4.55,10.38,0,2.46,1.23,4,3.8,4,2.88,0,5.15-2.28,6.52-4,0,.18-.16.8-.16,1,0,1.71.69,2.94,2.76,2.94,1.83,0,4.29-1.53,6.27-4l-1.59,3.62h5l4.9-11.1c1.6-3.62,3.47-5.49,4-5.49.16,0,.23.06.23.2,0,.39-.76,1.39-.76,2.35s.53,1.64,1.87,1.64a6.69,6.69,0,0,0,3.33-1.18c-2.51,3.42-4.22,7-4.24,9.93,0,2.47,1.26,4,3.81,4,2.71,0,5.2-2.53,6.56-4.24a10.32,10.32,0,0,0-.09,1.18,2.78,2.78,0,0,0,2.88,3.06c2.12,0,3.85-1.32,6-3.92l-1.57,3.55h5.06l4.67-10.62c2-4.63,4.81-7.05,6.2-7.05a.63.63,0,0,1,.69.69,4.49,4.49,0,0,1-.41,1.5L147.8,151.9l5.24,0,4.79-10.81c2-4.62,4.33-6.9,6-6.9.5,0,.73.27.73.82a4,4,0,0,1-.5,1.68l-4.59,9.78a8.08,8.08,0,0,0-.75,3c0,1.48.82,2.8,3.1,2.8,3,0,5.27-2.26,7.82-5.63l0,.73c.19,2.69,1.71,5,5.68,5,4.7,0,8.5-3.26,10.81-8.39a19.13,19.13,0,0,0,1.66-5.77,3.49,3.49,0,0,0,1.66.36,4.86,4.86,0,0,0,2.22-.54l-.83,1.77c-.93,2-2,4.15-2.75,6a9.93,9.93,0,0,0-.92,3.44,2.86,2.86,0,0,0,3.1,3.15c2.1,0,5-2,7-4.72h.07a11,11,0,0,0-.23,1.73c0,1.5.46,3,2.6,3,2.49,0,4.4-1.8,6.27-4l-1.59,3.6h5.17l4.13-9.37c2.35-5.29,4.69-8.46,6.88-8.46a.69.69,0,0,1,.71.78c0,.89-1.25,3.3-2.44,5.76-1.07,2.22-1.87,3.9-2.44,5.25a10.45,10.45,0,0,0-.89,3.53,2.65,2.65,0,0,0,2.9,2.87c3,0,6-2.87,7.63-5.08a10.53,10.53,0,0,0-.59,3.24c0,3,1.82,4.47,4.31,4.47a8.08,8.08,0,0,0,4.65-1.55,21.71,21.71,0,0,0,4.88-5.29l-.89-.85a19.69,19.69,0,0,1-4,4.45,4.57,4.57,0,0,1-2.64,1.05c-1.08,0-1.76-.55-1.76-1.94a17.43,17.43,0,0,1,1.62-5.65c0-.12,1.44-3.24,2.78-6.25,1.14-2.55,2.23-5,2.44-5.52h3.35l.68-1.52h-3.35ZM95.13,149.12c-.75,0-1.23-.25-1.25-1.21.05-2.53,2.12-7,4.76-10.55,1.83-2.46,4.22-4.29,6.8-4.29l-3.26,7.25c-2.44,5.47-5.11,8.8-7.05,8.8Zm31.9,0c-.73,0-1.24-.25-1.26-1.21,0-2.53,2.12-7,4.74-10.55,1.83-2.46,4.22-4.29,6.8-4.29l-3.26,7.25c-2.44,5.54-5,8.8-7,8.8Zm51.31-.64c-1.16,1.62-2.14,2.1-3,2.1-1.18,0-1.52-1-1.39-2.42.25-2.53,2.33-8.36,5.25-12.42,1.32-1.85,2.23-2.6,3.23-2.6s1.32.84,1.3,1.89c-.07,2.74-2.51,9.44-5.38,13.45Z"/><path class="cls-2" d="M82,136.9a36.6,36.6,0,0,0,5.7-1.17c6.72-1.87,14.36-6.38,14.36-14.38,0-9.21-9.76-13.63-21.41-13.63-12.42,0-23.82,5.49-28,14a16.45,16.45,0,0,0-1.73,7.34,11,11,0,0,0,1.73,6.22c1.8,2.64,5,4.33,9.71,4.33,5.75,0,10.33-3.17,10.33-8.64A1.51,1.51,0,0,0,71,129.44c-1.48,0-1.85,1-1.82,1.55.2,4.31-2.33,7.75-6.91,7.75-5.11,0-7.25-4.33-7.25-9,0-9.51,7.18-15.82,14.64-18.51a29.46,29.46,0,0,1,10.92-1.89c8.43,0,15.34,3.23,15.34,11.92,0,7.25-6.09,13.43-13.43,13.95l.3-1c1.5-5.31,3.3-11.13,6.29-15.46.18-.27.48-.68.82-1.12l-.41-.5c-.52.3-1.48,1-1.87,1.3C73.57,129.37,73.16,160,54.49,160a11.26,11.26,0,0,1-1.89-.14c-3.9-.63-5.93-3.23-5.93-6.88,0-.71.25-1.71.25-2.26a1.88,1.88,0,0,0-2-1.91c-1.66,0-2.35,1.3-2.37,3.21-.09,5.45,3.92,8.62,10.1,9.19a20.44,20.44,0,0,0,2.1.09c14.59-.11,23.55-11.08,27.31-24.42"/><path class="cls-2" d="M87.27,175.54h2.19V163H86.88v7.77L81.34,163H79.16v12.51h2.59v-7.75Z"/><path class="cls-2" d="M108.24,163h-8.07v12.51h8.1v-2.28H102.8v-3h4.72V168H102.8v-2.71h5.44Z"/><path class="cls-2" d="M122,175.54h2.58V165.31h4.22V163h-11v2.28H122Z"/><path class="cls-2" d="M139.86,163H137l4.37,12.51h2.22l2.66-7.93,2.67,7.93h2.19L155.53,163H152.7L150,171.17,147.34,163h-2.12l-2.67,8.14Z"/><path class="cls-2" d="M174.11,164.62a6.5,6.5,0,0,0-4.68-1.77,6.43,6.43,0,0,0-4.69,1.77,6.91,6.91,0,0,0,0,9.37,7.12,7.12,0,0,0,9.37,0,6.16,6.16,0,0,0,1.82-4.69,6.24,6.24,0,0,0-1.82-4.68m-1.9,7.71a3.64,3.64,0,0,1-2.78,1.12,3.73,3.73,0,0,1-2.82-1.12,4.15,4.15,0,0,1-1.08-3,4.06,4.06,0,0,1,1.08-3,3.69,3.69,0,0,1,2.82-1.12,3.58,3.58,0,0,1,2.78,1.12,4.05,4.05,0,0,1,1.07,3,4.23,4.23,0,0,1-1.07,3"/><path class="cls-2" d="M194.92,167a3.85,3.85,0,0,0-1.12-2.94,4,4,0,0,0-2.94-1.07h-5.38v12.51h2.6V171h2.1l2.46,4.51h2.92l-2.67-4.92a3.7,3.7,0,0,0,2-3.58m-4.38,1.71h-2.46v-3.44h2.46a1.72,1.72,0,1,1,0,3.44"/><path class="cls-2" d="M207.91,172.08l1.55-1.85,3.49,5.31H216l-4.81-7.38,4.3-5.13h-3.32l-4.27,5.17V163h-2.6v12.51h2.6Z"/></g></g></g></g></svg>