<svg xmlns="http://www.w3.org/2000/svg" viewBox="0 0 283.46 283.46"><defs><style>.cls-1{fill:#0f3759;}.cls-2{fill:#fff;}</style></defs><g id="Layer_2" data-name="Layer 2"><g id="Regionální"><g id="polar"><rect class="cls-1" width="283.46" height="283.46"/><g id="logo"><path class="cls-2" d="M85.11,125a23.61,23.61,0,0,0-7.17-5.59,23.24,23.24,0,0,0-10.52-2.06,17.57,17.57,0,0,0-14.3,7c-.13.17-.27.33-.41.49l-.14-.06v-5.82h-10V179h10.1c.8,0,.8,0,.8-.82q0-8.21,0-16.4v-.67c1,1,1.92,1.95,2.94,2.78a17.24,17.24,0,0,0,11.33,3.72A22.48,22.48,0,0,0,84.07,161a24.84,24.84,0,0,0,7.52-16.5C92.11,137.14,90.2,130.53,85.11,125ZM67.69,156.56c-5.78.59-13.56-3.61-14.72-11.38-.7-4.71.26-9,3.62-12.48a13.25,13.25,0,0,1,14-3.77c5.33,1.57,8.34,5.43,9.51,10.78a12.16,12.16,0,0,1,.22,1.59c0,.39,0,.78.06,1.18A13.86,13.86,0,0,1,67.69,156.56Z"/><path class="cls-2" d="M120.23,117.33c-14.38,0-25.61,11.07-25.61,25.25a25.15,25.15,0,0,0,50.29,0C144.91,128.69,133.82,117.34,120.23,117.33Zm9.52,35.13a12.58,12.58,0,0,1-8.16,4.14c-8.72,0-14.38-4.88-15.41-11.65a13.5,13.5,0,0,1,2.7-11.07c2.84-3.45,6.46-5.59,11.06-5.54a14.37,14.37,0,0,1,9.81,24.12Z"/><path class="cls-2" d="M148.93,166V104.49h11.22V166Z"/><path class="cls-2" d="M213.38,118.88H204c-.43,0-.51.2-.51.57,0,1.73,0,3.47,0,5.2,0,.21,0,.42,0,.79-.24-.29-.36-.45-.5-.6a39.77,39.77,0,0,0-3.3-3.32c-5.17-4.14-11.08-5-17.41-3.6a22.48,22.48,0,0,0-11.73,7,23.1,23.1,0,0,0-5.57,9.45,28.85,28.85,0,0,0-.64,13.16,24.79,24.79,0,0,0,6.93,13.81c5.13,5,11.44,6.86,18.43,6.19a20.37,20.37,0,0,0,11.66-5.4c.74-.66,1.5-1.29,2.18-1.87V166h10.24V118.94A3.09,3.09,0,0,0,213.38,118.88Zm-12.8,32a13,13,0,0,1-9.2,5.54c-.31,0-.61.09-.92.11s-.82,0-1.24,0a13.71,13.71,0,0,1-13.24-9c-2.47-6.75.52-17,10.44-18.91a13.63,13.63,0,0,1,12.49,3.42,13.1,13.1,0,0,1,3.94,7.54A14.8,14.8,0,0,1,200.58,150.92Z"/><path class="cls-2" d="M229.74,118.9v4l.12.16a11.36,11.36,0,0,1,11.08-5.65v10.89c-.77.1-1.55.16-2.31.3-3.65.72-6.43,2.55-7.42,6.31a19,19,0,0,0-.46,4.65c0,7.09,0,14.19,0,21.28v5.26H230c-3.25,0-6.51,0-9.77,0-.66,0-.78-.19-.78-.79q0-18.56,0-37.12c0-2.85,0-5.69,0-8.54,0-.61.19-.76.77-.76,3,0,5.9,0,8.85,0Z"/></g></g></g></g></svg>