<svg xmlns="http://www.w3.org/2000/svg" viewBox="0 0 283.46 283.46"><defs><style>.cls-1{fill:#0f3759;}.cls-2{fill:#fff;}</style></defs><title>polar</title><g id="Layer_2" data-name="Layer 2"><g id="Regionální"><g id="polar"><rect class="cls-1" width="283.46" height="283.46"/><path class="cls-2" d="M85.11,125a23.55,23.55,0,0,0-7.17-5.59,23.37,23.37,0,0,0-10.52-2.06,17.56,17.56,0,0,0-14.3,7l-.41.49-.14-.06v-5.83H42.52V179h10.1c.8,0,.8,0,.8-.82q0-8.2,0-16.4c0-.21,0-.42,0-.67,1,1,1.93,2,2.94,2.79a17.27,17.27,0,0,0,11.33,3.72A22.51,22.51,0,0,0,84.07,161a24.87,24.87,0,0,0,7.52-16.5C92.11,137.14,90.2,130.53,85.11,125ZM67.69,156.56c-5.78.59-13.57-3.61-14.73-11.38-.7-4.71.26-9,3.63-12.47a13.23,13.23,0,0,1,14-3.77c5.33,1.57,8.34,5.43,9.52,10.78a14.18,14.18,0,0,1,.22,1.59c0,.39,0,.78.06,1.17A13.86,13.86,0,0,1,67.69,156.56Z"/><path class="cls-2" d="M120.23,117.33c-14.38,0-25.62,11.07-25.62,25.25a25.15,25.15,0,0,0,50.3,0C144.91,128.69,133.82,117.34,120.23,117.33Zm9.52,35.13a12.54,12.54,0,0,1-8.15,4.14c-8.72,0-14.39-4.87-15.41-11.65a13.49,13.49,0,0,1,2.7-11.07c2.84-3.45,6.46-5.59,11.05-5.54a14.36,14.36,0,0,1,9.81,24.12Z"/><path class="cls-2" d="M148.93,166V104.49h11.21V166Z"/><path class="cls-2" d="M213.38,118.88H204c-.43,0-.51.2-.51.57,0,1.73,0,3.47,0,5.2,0,.21,0,.42,0,.79-.24-.29-.35-.45-.49-.59a38.78,38.78,0,0,0-3.3-3.33c-5.17-4.14-11.08-5-17.41-3.6a22.49,22.49,0,0,0-11.73,7,23.09,23.09,0,0,0-5.57,9.45,28.86,28.86,0,0,0-.64,13.16,24.75,24.75,0,0,0,6.93,13.81c5.13,5,11.44,6.87,18.43,6.19a20.37,20.37,0,0,0,11.66-5.4c.74-.66,1.5-1.28,2.18-1.87V166h10.24V118.94A2.31,2.31,0,0,0,213.38,118.88Zm-12.8,32a13,13,0,0,1-9.2,5.54,9.07,9.07,0,0,1-.92.11c-.41,0-.82,0-1.24,0a13.73,13.73,0,0,1-13.25-9c-2.46-6.75.52-17,10.45-18.91a13.64,13.64,0,0,1,12.49,3.42,13.12,13.12,0,0,1,3.94,7.54A14.81,14.81,0,0,1,200.58,150.92Z"/><path class="cls-2" d="M229.74,118.9v4l.12.15a11.38,11.38,0,0,1,11.09-5.65v10.89c-.78.1-1.56.16-2.32.31-3.65.71-6.42,2.55-7.41,6.3a18.79,18.79,0,0,0-.46,4.65c0,7.09,0,14.19,0,21.28q0,2.26,0,4.52c0,.22,0,.44,0,.74H230c-3.26,0-6.52,0-9.77,0-.66,0-.78-.19-.78-.79q0-18.56,0-37.12c0-2.85,0-5.69,0-8.54,0-.61.19-.76.77-.76,2.95,0,5.9,0,8.85,0Z"/></g></g></g></svg>