<svg xmlns="http://www.w3.org/2000/svg" viewBox="0 0 283.46 283.46"><defs><style>.cls-1{fill:#6e6e70;}.cls-2{fill:#e31c33;}.cls-3{fill:#fff;}</style></defs><g id="Layer_2" data-name="Layer 2"><g id="Regionální"><g id="prahatv"><rect class="cls-1" width="283.46" height="283.46"/><g id="logo"><path class="cls-2" d="M183,120.13v-5.47h32.14v5.47H200.72v26.92h-6.29V120.13Z"/><path class="cls-2" d="M209.79,114.7H217l8.38,18.8,8.35-18.8h7.23l-15.58,33.72Z"/><path class="cls-3" d="M43.29,147.1V114.7h13.5a10.9,10.9,0,0,1,7.48,2.53,9,9,0,0,1,2.87,7.11,9.68,9.68,0,0,1-1.36,5.23,8.41,8.41,0,0,1-3.66,3.28,12.32,12.32,0,0,1-5.33,1.09H48.43V147.1Zm5.1-17.54h7.75a6.08,6.08,0,0,0,4.06-1.35,4.82,4.82,0,0,0,1.59-3.87,4.89,4.89,0,0,0-1.58-3.91,6.06,6.06,0,0,0-4.07-1.35H48.39Z"/><path class="cls-3" d="M69.39,147.1V114.7H83a11,11,0,0,1,7.63,2.63,9.41,9.41,0,0,1,2.94,7.4A10.13,10.13,0,0,1,92,130.44c-1,1.55-1.77,1.83-3.58,2.55l6.9,14.11h-6l-7.1-13H74.76v13Zm5.33-17.57h7.62a6.12,6.12,0,0,0,4.15-1.39,3.82,3.82,0,0,0,1.62-3.41,5.06,5.06,0,0,0-1.62-4,6.13,6.13,0,0,0-4.15-1.4H74.72Z"/><path class="cls-3" d="M96.34,147.1l15.76-34.47,15.73,34.47h-5.57l-2.91-6.34H104.82l-2.91,6.34ZM107,134.65h10.21l-5.09-11.08Z"/><path class="cls-3" d="M130.08,147.1V114.62h5v12.71h13.8V114.62h4.91V147.1h-4.91V131.93h-13.8V147.1Z"/><path class="cls-3" d="M155.56,147.1l15.76-34.47,15.74,34.47h-5.57l-2.92-6.34H164.05l-2.91,6.34Zm10.65-12.45h10.2l-5.09-11.08Z"/><path class="cls-3" d="M44.12,157.91l2.49,5.61,2.49-5.61h1.6l-4.09,8.86-4.09-8.86Z"/><path class="cls-3" d="M58.34,157.91h1.44v8.32H58.34v-1.17a3.53,3.53,0,0,1-2.85,1.41c-2.1,0-4.05-1.49-4.05-4.41a4,4,0,0,1,4.05-4.35,3.46,3.46,0,0,1,2.85,1.38Zm-5.42,4.15c0,1.78,1,3.12,2.73,3.12a3.11,3.11,0,0,0,0-6.19A2.77,2.77,0,0,0,52.92,162.06Z"/><path class="cls-3" d="M65.68,159.83a1.3,1.3,0,0,0-1.17-.84.92.92,0,0,0-1,.94c0,.6.4.78,1.34,1.18a5,5,0,0,1,2.09,1.29,2,2,0,0,1,.44,1.34,2.65,2.65,0,0,1-2.87,2.73,3,3,0,0,1-2.9-2.13l1.24-.52a1.88,1.88,0,0,0,1.68,1.36,1.3,1.3,0,0,0,1.37-1.32c0-.78-.57-1-1.35-1.38a5.41,5.41,0,0,1-2-1.23,1.8,1.8,0,0,1-.38-1.22,2.23,2.23,0,0,1,2.42-2.32,2.41,2.41,0,0,1,2.29,1.5Zm.74-6.72.92.73-2.77,2.42-2.76-2.42.92-.73,1.84,1.63Z"/><path class="cls-3" d="M76.42,164.1a5,5,0,0,1-1,1.34,4.15,4.15,0,0,1-6.88-3.32c0-2.49,1.53-4.41,4-4.41a3.72,3.72,0,0,1,3.15,1.52,5.59,5.59,0,0,1,.78,3.13H70a2.66,2.66,0,0,0,2.64,2.82,2.57,2.57,0,0,0,1.71-.6,3.31,3.31,0,0,0,.86-1.14ZM75,161.15A2.49,2.49,0,0,0,72.55,159a2.52,2.52,0,0,0-2.44,2.16Z"/><path class="cls-3" d="M85.07,157.91h1.54v.88a2.66,2.66,0,0,1,2.21-1.08,2.69,2.69,0,0,1,2.43,1.34,3,3,0,0,1,2.68-1.34c2.64,0,2.9,2.06,2.9,3.24v5.28H95.28v-5.06c0-.94-.12-2.18-1.58-2.18-1.79,0-2,1.6-2,2.6v4.64H90.18v-4.94c0-.58,0-2.3-1.61-2.3s-2,1.7-2,2.7v4.54H85.07Z"/><path class="cls-3" d="M107.52,164.1a5.1,5.1,0,0,1-1.1,1.34,4.53,4.53,0,0,1-3,1,4.38,4.38,0,1,1,3.31-7.24,5.3,5.3,0,0,1,.85,3.13h-7a2.76,2.76,0,0,0,2.85,2.82,2.87,2.87,0,0,0,1.84-.6,3.3,3.3,0,0,0,.93-1.14ZM106,161.15a2.63,2.63,0,0,0-2.64-2.16,2.67,2.67,0,0,0-2.64,2.16Z"/><path class="cls-3" d="M111.13,159.23v7h-1.54v-7h-1v-1.32h1v-3h1.54v3h1.55v1.32Z"/><path class="cls-3" d="M114.24,157.91h1.55v.9a2.48,2.48,0,0,1,2-1.1,3.47,3.47,0,0,1,1.38.34l-.73,1.3a1.7,1.7,0,0,0-.9-.28,1.55,1.55,0,0,0-1.25.52,3.4,3.4,0,0,0-.51,2.25v4.39h-1.55Z"/><path class="cls-3" d="M119.31,162.1a4.73,4.73,0,1,1,4.72,4.37A4.43,4.43,0,0,1,119.31,162.1Zm1.59,0A3.14,3.14,0,1,0,124,159,3,3,0,0,0,120.9,162.1Z"/><path class="cls-3" d="M131.59,170.84h-1.54V157.91h1.54v1.16a4,4,0,0,1,3-1.36,4.24,4.24,0,0,1,4.34,4.41,4.17,4.17,0,0,1-4.27,4.35,3.91,3.91,0,0,1-3.12-1.41Zm5.8-8.72a2.94,2.94,0,0,0-2.92-3.13,3,3,0,0,0-3,3.11,2.93,2.93,0,0,0,3,3.08A2.88,2.88,0,0,0,137.39,162.12Z"/><path class="cls-3" d="M140.5,162.1a4.74,4.74,0,1,1,4.73,4.37A4.43,4.43,0,0,1,140.5,162.1Zm1.59,0a3.14,3.14,0,1,0,3.14-3.11A3,3,0,0,0,142.09,162.1Z"/><path class="cls-3" d="M152.8,151.61v14.62h-1.54V151.61Z"/><path class="cls-3" d="M156.22,153.74a1,1,0,1,1-1.1,1A1.06,1.06,0,0,1,156.22,153.74Zm.77,4.17v8.32h-1.55v-8.32Z"/><path class="cls-3" d="M161.28,159.23v7h-1.55v-7h-.94v-1.32h.94v-3h1.55v3h1.54v1.32Z"/><path class="cls-3" d="M164.72,157.91h1.54v1a3.23,3.23,0,0,1,2.56-1.16,3.09,3.09,0,0,1,2.55,1.14,3.5,3.5,0,0,1,.52,2.22v5.16h-1.55v-5.12a2.33,2.33,0,0,0-.4-1.52,1.83,1.83,0,0,0-1.46-.6,2,2,0,0,0-1.57.64,3.34,3.34,0,0,0-.65,2.25v4.35h-1.54Z"/><path class="cls-3" d="M177.84,153.39l-2.65,3-1-.42,2-3.07Zm-1.76,4.52v8.32h-1.55v-8.32Z"/><path class="cls-3" d="M186.18,159.23v7h-1.44v-7h-.88v-1.32h.88v-3h1.44v3h1.44v1.32Z"/><path class="cls-3" d="M196.1,164.1a5,5,0,0,1-1,1.34,4.14,4.14,0,0,1-6.87-3.32c0-2.49,1.52-4.41,4-4.41a3.71,3.71,0,0,1,3.14,1.52,5.59,5.59,0,0,1,.78,3.13h-6.47a2.66,2.66,0,0,0,2.65,2.82,2.52,2.52,0,0,0,1.7-.6,3.31,3.31,0,0,0,.86-1.14Zm-1.42-2.95a2.48,2.48,0,0,0-2.44-2.16,2.52,2.52,0,0,0-2.45,2.16Z"/><path class="cls-3" d="M199.55,151.61v14.62h-1.44V151.61Z"/><path class="cls-3" d="M209.4,164.1a4.81,4.81,0,0,1-1,1.34,4.14,4.14,0,0,1-6.87-3.32c0-2.49,1.52-4.41,4-4.41a3.71,3.71,0,0,1,3.14,1.52,5.51,5.51,0,0,1,.79,3.13H203a2.66,2.66,0,0,0,2.65,2.82,2.52,2.52,0,0,0,1.7-.6,3.31,3.31,0,0,0,.86-1.14ZM208,161.15a2.48,2.48,0,0,0-2.44-2.16,2.52,2.52,0,0,0-2.45,2.16Z"/><path class="cls-3" d="M211.8,157.91l2.49,5.61,2.48-5.61h1.61l-4.09,8.86-4.09-8.86Z"/><path class="cls-3" d="M220.36,153.74a1,1,0,1,1-1,1A1,1,0,0,1,220.36,153.74Zm.72,4.17v8.32h-1.44v-8.32Z"/><path class="cls-3" d="M225.23,164.9H231v1.33h-8.66l6-7h-4.85v-1.32h7.74Z"/><path class="cls-3" d="M239.69,164.1a5,5,0,0,1-1,1.34,4.15,4.15,0,0,1-6.88-3.32c0-2.49,1.52-4.41,4-4.41a3.73,3.73,0,0,1,3.15,1.52,5.59,5.59,0,0,1,.78,3.13h-6.48a2.67,2.67,0,0,0,2.65,2.82,2.52,2.52,0,0,0,1.7-.6,3.22,3.22,0,0,0,.87-1.14Zm-1.42-2.95a2.49,2.49,0,0,0-2.45-2.16,2.53,2.53,0,0,0-2.45,2.16Z"/></g></g></g></g></svg>