<svg xmlns="http://www.w3.org/2000/svg" xmlns:xlink="http://www.w3.org/1999/xlink" viewBox="0 0 283.46 283.46"><defs><style>.cls-1{fill:#1b2046;}.cls-2{fill:#192e5a;}.cls-3{fill:#fff;}.cls-4{fill:url(#linear-gradient);}.cls-5{fill:url(#linear-gradient-2);}</style><linearGradient id="linear-gradient" x1="45.5" y1="141.9" x2="159.08" y2="141.9" gradientUnits="userSpaceOnUse"><stop offset="0" stop-color="#0f1d39"/><stop offset="1" stop-color="#192c57"/></linearGradient><linearGradient id="linear-gradient-2" x1="153.54" y1="141.86" x2="237.9" y2="141.86" gradientUnits="userSpaceOnUse"><stop offset="0" stop-color="#9b2336"/><stop offset="0.23" stop-color="#972335"/><stop offset="0.47" stop-color="#8a2334"/><stop offset="0.72" stop-color="#762431"/><stop offset="0.96" stop-color="#59252e"/><stop offset="1" stop-color="#54252d"/></linearGradient></defs><g id="Layer_2" data-name="Layer 2"><g id="O2_TV" data-name="O2 TV"><g id="premiersport"><rect class="cls-1" width="283.46" height="283.46"/><g id="logo"><path class="cls-2" d="M209.15,159.54H189.32l-45.27.08c-3.21,0-6.43.06-9.65.06l-45.23-.07-40.31-.07A6.2,6.2,0,0,1,44,157.29a5.46,5.46,0,0,1-1.46-3.89c0-.9.17-1.8.29-2.69s.3-1.84.46-2.75.29-1.73.44-2.59.31-1.81.46-2.72.36-2.1.53-3.16l.51-3.05.54-3.12c.14-.87.26-1.73.44-2.59a8.28,8.28,0,0,1,2.69-4.68,8.57,8.57,0,0,1,4-2,7.44,7.44,0,0,1,1.63-.15H78l42.84-.07q23.38,0,46.79-.06,21.4,0,42.83.06,12.27,0,24.53.08a6,6,0,0,1,3.68,1.36,6.09,6.09,0,0,1,2.24,3.83,7.18,7.18,0,0,1-.07,2.49c-.13.91-.31,1.81-.47,2.72-.23,1.33-.46,2.66-.68,4s-.42,2.58-.64,3.87c-.29,1.74-.6,3.49-.89,5.23-.24,1.44-.47,2.87-.7,4.31a10,10,0,0,1-1.07,3.42,7.56,7.56,0,0,1-2.23,2.57,11.4,11.4,0,0,1-1.92,1.16,6,6,0,0,1-2,.51c-6.95.34-13.9.06-20.85.15Zm17.92-1.78c.7,0,1.39,0,2.08,0a8.76,8.76,0,0,0,1.62-.21,5.83,5.83,0,0,0,3.83-3,12.08,12.08,0,0,0,1-3.64c.24-1.2.42-2.41.64-3.62s.51-2.65.75-4,.47-2.61.71-3.91c.26-1.46.54-2.92.82-4.38.2-1.09.41-2.19.61-3.28a5.65,5.65,0,0,0,0-2.28,4.66,4.66,0,0,0-1.55-2.62,4.34,4.34,0,0,0-2.52-1.08c-1.08-.07-2.17-.08-3.25-.08l-42-.07-42.28-.07c-2.55,0-5.1.06-7.65.07L98,125.64l-42.9.07H53.65a3.76,3.76,0,0,0-.81.11,6.39,6.39,0,0,0-2.26,1.05A5.91,5.91,0,0,0,49,128.69a10.49,10.49,0,0,0-1,3.63c-.23,1.2-.42,2.41-.65,3.62-.26,1.41-.55,2.82-.81,4.23s-.51,3-.78,4.42c-.22,1.22-.45,2.43-.68,3.64s-.39,2.16-.61,3.24a5.14,5.14,0,0,0,.67,4.18,4.55,4.55,0,0,0,3.69,2.09c2.89.07,5.79.07,8.68.08l20.76.07,22.69.07c9.51,0,19,.07,28.52.07q28,0,56-.07c4.39,0,8.78,0,13.16-.06l13-.07,13.16-.07Z"/><path class="cls-3" d="M227.07,157.76h-2.39l-13.16.07-13,.07c-4.38,0-8.77.06-13.16.06q-28,0-56,.07c-9.51,0-19,0-28.52-.07l-22.69-.07-20.76-.07c-2.89,0-5.79,0-8.68-.08a4.55,4.55,0,0,1-3.69-2.09,5.14,5.14,0,0,1-.67-4.18c.22-1.08.41-2.16.61-3.24s.46-2.42.68-3.64c.27-1.47.51-3,.78-4.42s.55-2.82.81-4.23c.23-1.21.42-2.42.65-3.62a10.49,10.49,0,0,1,1-3.63,5.91,5.91,0,0,1,1.63-1.82,6.39,6.39,0,0,1,2.26-1.05,3.76,3.76,0,0,1,.81-.11h1.43l42.9-.07,41.93-.07c2.55,0,5.1-.07,7.65-.07l42.28.07,42,.07c1.08,0,2.17,0,3.25.08a4.34,4.34,0,0,1,2.52,1.08,4.66,4.66,0,0,1,1.55,2.62,5.65,5.65,0,0,1,0,2.28c-.2,1.09-.41,2.19-.61,3.28-.28,1.46-.56,2.92-.82,4.38-.24,1.3-.47,2.61-.71,3.91s-.5,2.66-.75,4-.4,2.42-.64,3.62a12.08,12.08,0,0,1-1,3.64,5.83,5.83,0,0,1-3.83,3,8.76,8.76,0,0,1-1.62.21C228.46,157.78,227.77,157.76,227.07,157.76ZM74.07,127h0q-10,0-19.93,0a4.56,4.56,0,0,0-2.59.81,4.88,4.88,0,0,0-2.1,3.37c-.19,1.07-.41,2.14-.61,3.2-.17.89-.34,1.78-.5,2.68l-.66,3.6c-.15.79-.31,1.58-.45,2.37-.18,1-.34,2-.52,2.95s-.35,1.87-.52,2.81-.35,2-.53,3a4.9,4.9,0,0,0-.1,1.83A3.54,3.54,0,0,0,49,156.49c2.34,0,4.69.06,7,.08l9.38.06,9.28.07,9.35.07c3.14,0,6.27.06,9.41.07q16.36,0,32.72.06c7.62,0,15.24,0,22.87-.06l25.54-.07,16.21-.08c3.5,0,7,0,10.49-.06l10.29-.07,10.38-.07c2.26,0,4.51,0,6.77,0a6,6,0,0,0,1.92-.26,4.32,4.32,0,0,0,3-2.85,43.21,43.21,0,0,0,.92-4.24c.28-1.45.53-2.9.8-4.35.21-1.17.44-2.34.66-3.51s.41-2.23.62-3.35c.16-.91.33-1.83.49-2.75s.36-2,.53-3a6.25,6.25,0,0,0,.17-2.44,3.43,3.43,0,0,0-3.3-2.78q-7-.06-13.93-.07-30.69,0-61.39,0-32.55,0-65.1.07Q84.09,127,74.07,127Z"/><path class="cls-4" d="M153.54,156.83h-4.47c-7.63,0-15.25.07-22.87.06q-16.36,0-32.72-.06c-3.14,0-6.27-.05-9.41-.07l-9.35-.07-9.28-.07-9.38-.06c-2.34,0-4.69,0-7-.08a3.54,3.54,0,0,1-3.47-2.93,4.9,4.9,0,0,1,.1-1.83c.18-1,.35-2,.53-3s.35-1.87.52-2.81.34-2,.52-2.95c.14-.79.3-1.58.45-2.37l.66-3.6c.16-.9.33-1.79.5-2.68.2-1.06.42-2.13.61-3.2a4.88,4.88,0,0,1,2.1-3.37,4.56,4.56,0,0,1,2.59-.81q10,0,19.93,0h0q10,0,20,0,32.49,0,65-.07"/><path class="cls-5" d="M159.08,126.9h.13q30.69,0,61.39,0,7,0,13.93.07a3.43,3.43,0,0,1,3.3,2.78,6.25,6.25,0,0,1-.17,2.44c-.17,1-.35,2-.53,3s-.33,1.84-.49,2.75c-.21,1.12-.41,2.24-.62,3.35s-.45,2.34-.66,3.51c-.27,1.45-.52,2.9-.8,4.35a43.21,43.21,0,0,1-.92,4.24,4.32,4.32,0,0,1-3,2.85,6,6,0,0,1-1.92.26c-2.26,0-4.51,0-6.77,0l-10.38.07-10.29.07c-3.5,0-7,.05-10.49.06l-16.21.08-21.07.06"/><path class="cls-3" d="M106.06,143.58l1-1.64,3.17-5.29c.76-1.28,1.5-2.56,2.26-3.84a.37.37,0,0,1,.26-.16h4.05l.16.05q-1.65,9.39-3.29,18.81H110l2.17-12.08-.05,0c-.12.2-.25.4-.37.61-.76,1.29-1.53,2.58-2.28,3.87s-1.35,2.32-2,3.48a2.49,2.49,0,0,0-.35.58c-.18.55-.55.65-1.08.61s-1.26,0-1.94,0l-2.26-9.2h-.06L99.58,151.5H95.94q1.65-9.42,3.3-18.84l.27,0c1.17,0,2.35,0,3.53,0,.21,0,.31.05.36.26.39,1.63.79,3.25,1.18,4.88.47,1.91.93,3.82,1.4,5.73C106,143.53,106,143.54,106.06,143.58Z"/><path class="cls-3" d="M81.34,151.51c-1.31,0-2.58,0-3.85,0-.08,0-.21-.15-.24-.25-.54-2.12-1.07-4.24-1.58-6.38-.07-.3-.19-.37-.47-.36-.8,0-1.6,0-2.44,0-.1.52-.2,1-.29,1.56L72,149c-.13.76-.26,1.52-.4,2.28,0,.09-.13.24-.2.24-1.22,0-2.44,0-3.69,0,1.1-6.29,2.2-12.55,3.3-18.87h.31c3,0,6,0,9,0a3,3,0,0,1,3.2,3.57c-.16.9-.28,1.8-.44,2.69s-.31,1.86-.57,2.76a3.68,3.68,0,0,1-2.6,2.63l-.33.12C80.11,146.76,80.72,149.11,81.34,151.51Zm-8-10.55h4.42a1.11,1.11,0,0,0,1.19-1c.18-.91.33-1.83.49-2.75s0-.89-.64-.91c-1.46-.05-2.93,0-4.4,0-.21,0-.26.07-.29.28-.09.61-.22,1.22-.33,1.84C73.66,139.22,73.51,140.07,73.36,141Z"/><path class="cls-3" d="M144.79,151.49c-.21-.82-.43-1.66-.64-2.5-.35-1.42-.69-2.83-1-4.25,0-.09-.15-.22-.23-.22h-2.64c-.41,2.34-.82,4.66-1.23,7h-3.85c.19-1.1.39-2.19.58-3.28s.33-2,.51-3,.4-2.21.59-3.31.34-2,.52-3c.14-.84.3-1.69.45-2.54l.51-2.95c0-.19.05-.38.08-.57s.17-.23.35-.23h4.82c1.33,0,2.66,0,4,0a5,5,0,0,1,1.63.29,2.69,2.69,0,0,1,1.7,2,6.73,6.73,0,0,1-.17,2.68c-.18,1-.33,2-.53,3a5,5,0,0,1-1.2,2.65,3.68,3.68,0,0,1-1.61,1l-.38.13,1.82,7.06Zm-3.94-10.56.07,0c1.51,0,3,0,4.53,0a1,1,0,0,0,.91-.72c.16-.72.29-1.44.42-2.16.08-.43.15-.85.21-1.28a.36.36,0,0,0-.36-.47,5.51,5.51,0,0,0-.57-.06h-4.39C141.4,137.83,141.12,139.38,140.85,140.93Z"/><path class="cls-3" d="M210.54,144.53h-2.82c-.21,1.16-.4,2.33-.61,3.49s-.42,2.32-.63,3.49h-3.85c1.1-6.3,2.2-12.57,3.3-18.87h9.21a3.24,3.24,0,0,1,2.69,1.17,2.59,2.59,0,0,1,.6,2c-.19,1.44-.43,2.88-.69,4.31a9.38,9.38,0,0,1-.51,2,5.6,5.6,0,0,1-1,1.38,4.17,4.17,0,0,1-1.73.91c.61,2.35,1.21,4.69,1.82,7.06h-4Zm-1.39-8.26-.82,4.69c1.55,0,3.06,0,4.57,0a.92.92,0,0,0,.93-.73c.16-.65.29-1.32.41-2,.09-.52.16-1,.2-1.56a.45.45,0,0,0-.21-.32.89.89,0,0,0-.43-.08C212.26,136.26,210.73,136.27,209.15,136.27Z"/><path class="cls-3" d="M174.47,138.53h-3.78c.09-.49.18-1,.25-1.44a2.62,2.62,0,0,0,0-.62c0-.28-.27-.27-.48-.27h-3.43a1.91,1.91,0,0,0-.48,0,1,1,0,0,0-.8.82c-.12.7-.28,1.4-.38,2.11,0,.29.2.47.47.53l2.49.58a14.63,14.63,0,0,1,3.56,1,2.78,2.78,0,0,1,1.77,2.37,12.24,12.24,0,0,1-.21,2.09c-.16,1-.34,1.92-.56,2.87a3.64,3.64,0,0,1-.85,1.61,4,4,0,0,1-3.35,1.38c-1.89,0-3.78,0-5.68,0a2.93,2.93,0,0,1-2.75-1.6,2.68,2.68,0,0,1-.28-1.81c.12-.8.23-1.6.35-2.4,0-.12.07-.24.1-.37h3.69c-.06.45-.13.88-.19,1.31,0,.28-.07.56-.11.85s.12.39.36.39c1.42,0,2.84,0,4.26,0,.47,0,.85-.4,1-1s.19-1.4.3-2.09a.45.45,0,0,0-.4-.57c-.84-.2-1.69-.38-2.52-.6a25.41,25.41,0,0,1-3.4-.93,2.93,2.93,0,0,1-1.88-3.43c.22-1.21.38-2.43.65-3.62a3.9,3.9,0,0,1,3.2-3.06,4.76,4.76,0,0,1,.75-.07c1.86,0,3.72,0,5.58,0a3,3,0,0,1,2.78,1.55,2.8,2.8,0,0,1,.33,1.87C174.68,136.82,174.59,137.67,174.47,138.53Z"/><path class="cls-3" d="M85.77,132.65H97.93l-.64,3.61H89L88.32,140H95c-.06.43-.12.82-.19,1.2-.12.71-.28,1.41-.37,2.11,0,.3-.15.33-.39.33H87.68l-.73,4.2h8.32l-.63,3.61H82.47Q84.12,142.07,85.77,132.65Z"/><path class="cls-3" d="M126.18,147.9h8.29c-.06.38-.11.74-.17,1.09-.13.74-.27,1.47-.39,2.21,0,.19-.07.32-.31.32H121.82l-.13,0c.12-.71.25-1.42.38-2.13.19-1.14.39-2.28.59-3.43.17-1,.35-2,.52-2.94s.34-2,.52-3,.39-2.19.58-3.29.35-2,.53-3c0-.28.08-.57.14-.84a.33.33,0,0,1,.18-.17.45.45,0,0,1,.2,0h11.81l-.63,3.61h-.39c-2.52,0-5,0-7.56,0-.27,0-.38,0-.43.36-.16,1.13-.39,2.25-.6,3.43h6.73c-.22,1.24-.43,2.43-.65,3.63h-6.4c-.27,0-.35.08-.38.34-.16,1-.34,2-.52,3.06Z"/><path class="cls-3" d="M177.58,151.5h-3.85c1.11-6.29,2.2-12.56,3.31-18.86h9.11a3.66,3.66,0,0,1,2.15.56,3,3,0,0,1,1.22,2,7.49,7.49,0,0,1-.22,2.67c-.18,1.14-.41,2.26-.62,3.39a4.36,4.36,0,0,1-1.28,2.58,3.83,3.83,0,0,1-2.61,1.05h-5.72c-.24,0-.34,0-.39.33-.25,1.6-.53,3.2-.81,4.8C177.78,150.5,177.67,151,177.58,151.5Zm1.8-10.27c1.5,0,2.94,0,4.38,0a1.06,1.06,0,0,0,1.22-1c.21-1,.4-2.07.56-3.11.11-.8,0-.88-.82-.88h-4.47Z"/><path class="cls-3" d="M56.8,132.64c3.18,0,6.3,0,9.42,0a3,3,0,0,1,2.47,1.18,3.07,3.07,0,0,1,.6,1.41,9.88,9.88,0,0,1-.3,3c-.15,1-.38,2-.54,2.94a4.5,4.5,0,0,1-1.39,2.74,3.55,3.55,0,0,1-2.38,1c-1.93,0-3.86,0-5.79,0h-.4l-1.15,6.64H53.5Zm3.2,3.62-.87,5c1.49,0,2.9,0,4.31,0a1.16,1.16,0,0,0,1.32-1.07c.18-1,.39-2,.55-3,.11-.72,0-.87-.57-.88C63.17,136.25,61.6,136.26,60,136.26Z"/><path class="cls-3" d="M218.48,136.25c.15-.89.29-1.75.44-2.61a2.84,2.84,0,0,0,.1-.57c0-.36.15-.44.48-.44h13c-.2,1.23-.4,2.41-.6,3.62H227.1c-.12.65-.24,1.29-.35,1.92l-.45,2.58c-.17,1-.35,2-.52,3l-.45,2.52c-.19,1.13-.39,2.26-.59,3.39-.1.55-.18,1.1-.29,1.64a.28.28,0,0,1-.2.18h-3.69c.89-5.1,1.78-10.17,2.68-15.27Z"/><path class="cls-3" d="M196.58,132.53c-.22,1.27-.43,2.45-.64,3.67-.18,0-.36,0-.55,0a1.11,1.11,0,0,0-1.29,1.06c-.28,1.49-.51,3-.77,4.47-.19,1.1-.4,2.19-.6,3.29-.15.83-.28,1.66-.41,2.49,0,.26.13.44.42.45h1.15c-.21,1.23-.42,2.42-.64,3.64a11.1,11.1,0,0,1-3-.21,3,3,0,0,1-1.87-2.51,14.36,14.36,0,0,1,.39-3.14c.16-1,.34-2,.52-3l.45-2.52c.17-1,.34-2,.52-3a7.11,7.11,0,0,1,1-3,3.56,3.56,0,0,1,2.42-1.59A25.81,25.81,0,0,1,196.58,132.53Z"/><path class="cls-3" d="M196.07,151.59c.06-.42.11-.8.17-1.17.13-.74.28-1.48.39-2.22,0-.28.22-.23.4-.24a1,1,0,0,0,1.12-.76c.12-.51.2-1,.29-1.54.19-1.1.39-2.2.58-3.3.15-.86.3-1.72.46-2.58l.54-3.09a.41.41,0,0,0-.43-.49h-.85c.21-1.22.41-2.41.63-3.63,1,0,2.09-.19,3.06.36a2.81,2.81,0,0,1,1.51,2.36,11.71,11.71,0,0,1-.31,2.77c-.17,1-.35,2-.52,3s-.4,2.2-.59,3.29-.4,2.26-.59,3.39a4.21,4.21,0,0,1-2.56,3.53,4,4,0,0,1-1.28.29C197.43,151.62,196.77,151.59,196.07,151.59Z"/><path class="cls-3" d="M119.6,151.5h-3.84c.07-.43.14-.84.21-1.25.19-1.14.39-2.28.59-3.42.14-.84.3-1.69.45-2.54l.51-2.95c.2-1.12.41-2.25.61-3.38.14-.83.29-1.67.43-2.51s.28-1.7.43-2.55a.39.39,0,0,1,.25-.25h3.66C121.79,138.94,120.7,145.21,119.6,151.5Z"/></g></g></g></g></svg>