<svg xmlns="http://www.w3.org/2000/svg" viewBox="0 0 283.46 283.46"><defs><style>.cls-1{fill:#ee4d9b;}.cls-2{fill:#fff;}</style></defs><g id="Layer_2" data-name="Layer 2"><g id="Prima"><g id="primalove"><rect class="cls-1" width="283.46" height="283.46"/><g id="logo"><path class="cls-2" d="M66.45,116.69c.22.93.61,1.71,1.64,1.71s1.46-.81,1.46-1.74c0-2-1.15-2.63-3.79-2.54a12.43,12.43,0,0,1,.69,2.57m-1,21.84h5.76v-3.69h-6.8c-1.51,0-2.46.44-2.46,1.56,0,1.49.87,2.13,3.5,2.13m0-7.66h5.78v-3.7H64.21c-1.38,0-2.21.67-2.21,1.74,0,1.79,1.39,2,3.48,2m-3.66,33.07.24-2.72c.1-1.22-.43-2.08-2.07-2.08a2.33,2.33,0,0,0-2.64,2.08L57,163.94ZM57.33,146.7H54l.53-3h3.23Zm13.93,23.82v-2.27H52.39l1.22-7.62c.44-2.73,2.31-5.19,6.45-5.19,4.32,0,5.91,2,5.73,5.19l-.17,3.31h5.64v-9.29h-14l.47-3.47H60.2v-.05A2.66,2.66,0,0,1,58.12,148l.09-.68h3.95l-.09.9c-.11,1.16.11,2.89,2.77,2.89h6.42v-4.38H58.49l.4-3H71.26v-1.2H58.9v-3.85h1.77v-.05A4.2,4.2,0,0,1,58.53,135a3.42,3.42,0,0,1,2.09-3.51,4.62,4.62,0,0,1-2.09-4c0-4,3.1-4.3,5.56-4.3h7.17v-2a3.61,3.61,0,0,1-3,1.32c-4.19,0-3.87-4.5-4.46-7.37-.16-.72-.41-1.1-1.2-1.1-1,0-1.34,1.14-1.34,2a1.88,1.88,0,0,0,1.61,2.09V122a4,4,0,0,1-3.45-2,8.33,8.33,0,0,1-.89-4c0-2.65.53-5.23,3.16-5.8H49.41v33.49l-6.89,26.8Z"/><path class="cls-2" d="M71.24,172.21H42.52v-1.69H71.24Z"/><path class="cls-2" d="M210.2,145.68c.83-5,3.69-8.23,7.89-8.23,4.37,0,7.31,3.18,7.9,8.23Zm9.24,27.55c9.07,0,15.37-3.7,19.74-9.24l-8.82-7.31c-3.28,3.19-6.3,4.62-10.08,4.62-5,0-8.57-2.52-9.84-7.47h30.42c.08-1.1.08-2.27.08-3.28,0-13.36-7.22-24.87-22.93-24.87-13.44,0-22.93,10.5-22.93,23.78v.16c0,14.12,10.08,23.61,24.36,23.61m-55.11-.76h14.53L197,126.69H180.46l-8.74,26.55L163,126.69h-16.8l18.15,45.78ZM122.91,159.7c-5.62,0-9.66-4.7-9.66-10.24v-.17c0-5.47,3.7-10.09,9.49-10.09s9.67,4.71,9.67,10.26v.16c0,5.46-3.7,10.08-9.5,10.08m-.17,13.53c14.63,0,25.21-10.84,25.21-23.77v-.17c0-12.94-10.5-23.61-25-23.61s-25.2,10.84-25.2,23.78v.16c0,12.94,10.5,23.61,25,23.61m-45.52-1.09h16V110.81h-16v61.33Z"/></g></g></g></g></svg>