<svg xmlns="http://www.w3.org/2000/svg" viewBox="0 0 283.46 283.46"><defs><style>.cls-1{fill:#4e91d4;}.cls-2{fill:#fff;}</style></defs><title>primazoom</title><g id="Layer_2" data-name="Layer 2"><g id="Prima"><g id="primazoom"><rect class="cls-1" width="283.46" height="283.46"/><g id="logo"><path class="cls-2" d="M98.4,114.3H84.71c-2.69,0-4.29,1.29-4.29,3.37,0,3.47,2.7,3.82,6.75,3.82H98.4V114.3Z"/><path class="cls-2" d="M92.24,97.24c2,0,2.85-1.58,2.85-3.37,0-3.86-2.22-5.14-7.38-5,.71,1.14.86,3.22,1.35,5s1.2,3.34,3.19,3.34"/><path class="cls-2" d="M71.36,180.55l-.67,5.28h9.36l.46-5.28c.19-2.38-.83-4.07-4-4.07s-4.83,1.71-5.13,4.07"/><path class="cls-2" d="M80.42,132.25c0,2.9,1.7,4.15,6.81,4.15H98.4v-7.18H85.19c-2.95,0-4.78.87-4.78,3"/><path class="cls-2" d="M65.89,146.52h6.28l-.85,5.77H64.86l1-5.77ZM42.52,201.83H98.41v-7.65H61.72l2.36-14.8c.85-5.31,4.52-10.09,12.55-10.09,8.42,0,11.5,3.84,11.17,10.09l-.35,6.45h11v-18.1H71.21l.9-6.76h4.8v-.09a5.23,5.23,0,0,1-4.07-6.18c.06-.49.18-1.32.18-1.32h7.68l-.17,1.75c-.2,2.25.22,5.6,5.37,5.6H98.4v-8.49H73.58l.79-5.83h24v-2.32h-24v-7.48H77.8v-.1a8.2,8.2,0,0,1-4.14-7.09c0-3.09,1-5.49,4-6.82a9,9,0,0,1-4-7.7c0-7.84,6-8.35,10.8-8.35H98.4v-3.83a7,7,0,0,1-5.83,2.57c-8.15,0-7.52-8.74-8.69-14.35-.29-1.38-.77-2.15-2.32-2.15C79.69,88.8,79,91,79,92.7c0,2.24,1,3.64,3.14,4v7.56a7.73,7.73,0,0,1-6.72-3.86,16,16,0,0,1-1.73-7.83c0-5.15,1-10.18,6.12-11.28H55.91v65.14l-13.38,52.1v3.26Z"/><path class="cls-2" d="M122.21,129v-.22a6.26,6.26,0,0,1,1.69-4.21l32.57-35.23H127.07a4,4,0,0,1-4-4,4.1,4.1,0,0,1,4-4.06h37.59a4.1,4.1,0,0,1,4.07,4v.23a6,6,0,0,1-1.62,4.21L134.48,124.9h30.17a4.1,4.1,0,0,1,4.05,4.06,4,4,0,0,1-4.05,4h-38.4a4.14,4.14,0,0,1-4-4"/><path class="cls-2" d="M231.43,107.26v-.16c0-10-7.32-18.37-17.58-18.37S196.41,96.92,196.41,107v.14c0,10,7.33,18.31,17.59,18.31s17.43-8.12,17.43-18.15m-44.52,0v-.16c0-14.54,11.23-26.72,27.09-26.72s26.95,12,26.95,26.58v.14c0,14.54-11.23,26.74-27.1,26.74s-26.94-12-26.94-26.58"/><path class="cls-2" d="M162.19,176.49v-.14c0-10-7.32-18.39-17.58-18.39s-17.41,8.19-17.41,18.24v.15c0,10,7.31,18.31,17.55,18.31s17.44-8.13,17.44-18.17m-44.52,0v-.14c0-14.55,11.22-26.73,27.08-26.73s26.95,12,26.95,26.58v.15c0,14.53-11.22,26.73-27.09,26.73s-26.94-12-26.94-26.59"/><path class="cls-2" d="M189.43,154.74a4.56,4.56,0,0,1,4.59-4.58h1a4.79,4.79,0,0,1,4.21,2.44l14.74,23.14,14.81-23.21a4.58,4.58,0,0,1,4.14-2.37h1a4.54,4.54,0,0,1,4.58,4.58V198a4.49,4.49,0,0,1-4.58,4.51,4.57,4.57,0,0,1-4.5-4.51V167L217.63,184.6a4.47,4.47,0,0,1-3.85,2.38A4.42,4.42,0,0,1,210,184.6l-11.65-17.46v30.92a4.42,4.42,0,0,1-4.5,4.44,4.36,4.36,0,0,1-4.43-4.44V154.74Z"/></g></g></g></g></svg>