<svg xmlns="http://www.w3.org/2000/svg" viewBox="0 0 283.46 283.46"><defs><style>.cls-1{fill:#f36917;}.cls-2{fill:#fff;}</style></defs><g id="Layer_2" data-name="Layer 2"><g id="Prima"><g id="prima-2" data-name="prima"><rect class="cls-1" width="283.46" height="283.46"/><path id="logo" class="cls-2" d="M133.62,117,42.54,96.42l0,90.62H55V126.6l24.41,3.9c8.76,1.41,16.62,7.43,16.62,20.68,0,13.85-6.32,18.93-16.62,18.36L68.82,169V187H98.61v-44.8l11.15,1.5v7.89h.13c1.63-5.51,5.62-7.31,10.16-6.7l2.18.3v12.65l-2.89-.26c-3.71-.36-9.25.34-9.25,8.84V187h14V146.16l9.61,1.28V187h3.82V147.47h12.33v5.65H150a13.56,13.56,0,0,1,11.69-6.84c5.09,0,9.06,1.66,11.25,6.68,3.21-4.38,7.2-6.68,12.67-6.68,12.94,0,13.77,9.94,13.77,17.8v23h6.31c-2.63-2-4.24-5.22-4.24-9.6,0-13.43,14.41-12.4,23.64-14.31,2.27-.47,3.52-1.27,3.52-3.8,0-3.11-3.67-4.3-6.41-4.3-3.69,0-6,1.66-6.65,5.16H203.11c.24-5.4,2.75-8.91,6.35-11.05s8.29-2.86,12.91-2.86c8.5,0,16.75,1.68,18.57,10.1V117Zm0,26.79-9.52-1.39V131.78l9.52,1.7Zm86.66,27.82c-3,.73-5.48,2-5.48,5.25s2.58,4.69,5.55,4.69c6.35,0,8.45-3.65,8.15-12.16-1.88,1.19-5.32,1.41-8.22,2.22m-136-20.71c0-5.41-2.85-8-6.69-8.45l-8.73-1.1v15.45l8.73.75c3.91.34,6.69-1.37,6.69-6.65m96.86,6.48c-5.73,0-6.28,4.45-6.28,11.12V187h11.84V164.48c0-4.45-2.13-7.07-5.56-7.07m-24,0c-4.78,0-6.82,2.78-6.82,11.22V187H162.1V165.28c0-4.85-1.41-7.87-5-7.87"/></g></g></g></svg>