<svg xmlns="http://www.w3.org/2000/svg" viewBox="0 0 283.46 283.46"><defs><style>.cls-1{fill:#ed498e;}.cls-2{fill:#fff;}</style></defs><title>primacomedycentral</title><g id="Layer_2" data-name="Layer 2"><g id="Prima"><g id="primacomedycentral"><rect class="cls-1" width="283.46" height="283.46"/><g id="logo"><path class="cls-2" d="M47.92,146.07l-5.4,23.82H66.23v-3.26H50.42l1-6.4c.38-2.29,2-4.35,5.41-4.35,3.63,0,5,1.66,4.82,4.35L61.51,163h4.72v-7.8H54.51l.39-2.9H57v0a2.24,2.24,0,0,1-1.75-2.65c0-.21.08-.58.08-.58h3.31l-.08.77c-.09,1,.1,2.41,2.32,2.41h5.38v-3.66H55.53l.35-2.53H66.23v-1H55.88v-3.22h1.48v0a3.52,3.52,0,0,1-1.79-3.05,2.89,2.89,0,0,1,1.74-2.95,3.86,3.86,0,0,1-1.74-3.31c0-3.39,2.6-3.6,4.65-3.6h6v-1.65a3,3,0,0,1-2.51,1.11c-3.52,0-3.25-3.77-3.74-6.19-.13-.6-.34-.92-1-.92s-1.12,1-1.12,1.69a1.54,1.54,0,0,0,1.35,1.72v3.26a3.33,3.33,0,0,1-2.9-1.66,6.88,6.88,0,0,1-.74-3.37c0-2.22.43-4.38,2.64-4.85H47.92Zm7,0-.36,2.49H51.78l.43-2.49Zm7.29-22.67c.18.78.52,1.43,1.37,1.43s1.22-.67,1.22-1.45c0-1.66-.95-2.21-3.18-2.13a10.43,10.43,0,0,1,.59,2.15M56.79,159a2,2,0,0,0-2.22,1.75L54.29,163h4l.19-2.29c.09-1-.36-1.75-1.73-1.75m1.69-25.33c0,1.48,1.16,1.63,2.91,1.63h4.84V132.2h-5.9c-1.16,0-1.85.55-1.85,1.45m0,6.27c0,1.26.73,1.79,2.93,1.79h4.82v-3.09H60.54c-1.27,0-2.06.36-2.06,1.3"/><path class="cls-2" d="M84.39,119.67A10.55,10.55,0,0,1,92,122.58a.59.59,0,0,1,0,.88L89.54,126a.53.53,0,0,1-.78,0,6.4,6.4,0,0,0-4.21-1.58,6.39,6.39,0,0,0,0,12.77,6.58,6.58,0,0,0,4.18-1.51.62.62,0,0,1,.81,0L92,138.28a.63.63,0,0,1,0,.85,10.73,10.73,0,0,1-7.59,3,11.25,11.25,0,1,1,0-22.5"/><path class="cls-2" d="M109.32,137.16a6.24,6.24,0,1,0-6.22-6.2,6.24,6.24,0,0,0,6.22,6.2m0-17.49A11.25,11.25,0,1,1,98.11,131a11.24,11.24,0,0,1,11.21-11.29"/><path class="cls-2" d="M130.55,120.18a.62.62,0,0,1,.56-.51h.5a.72.72,0,0,1,.54.33l7.24,13.48h.07L146.69,120a.72.72,0,0,1,.53-.33h.51a.6.6,0,0,1,.56.51l3.53,21a.57.57,0,0,1-.6.68h-3.69a.65.65,0,0,1-.59-.48l-1.4-9.66h-.06l-5.24,10.12a.74.74,0,0,1-.53.34h-.57a.66.66,0,0,1-.53-.34l-5.27-10.12h-.07l-1.38,9.66a.6.6,0,0,1-.59.48h-3.68a.56.56,0,0,1-.59-.68Z"/><path class="cls-2" d="M159.88,120.58a.58.58,0,0,1,.59-.58h12.92a.59.59,0,0,1,.6.58V124a.58.58,0,0,1-.6.57h-8.64v3.89h7.12a.6.6,0,0,1,.59.57v3.43a.57.57,0,0,1-.59.57h-7.12v4.23h8.64a.6.6,0,0,1,.6.59v3.39a.58.58,0,0,1-.6.6H160.47a.58.58,0,0,1-.59-.6Z"/><path class="cls-2" d="M190.11,137.23a6.33,6.33,0,0,0,0-12.65h-3v12.65Zm-7.87-16.65a.57.57,0,0,1,.56-.57h7.62a10.92,10.92,0,1,1,0,21.83H182.8a.58.58,0,0,1-.56-.6Z"/><path class="cls-2" d="M212.85,131.32l-6.91-10.41a.58.58,0,0,1,.5-.91h4.06a.62.62,0,0,1,.5.27l4.35,6.4,4.33-6.4a.59.59,0,0,1,.5-.27h4.06a.58.58,0,0,1,.5.91l-7,10.39v9.94a.61.61,0,0,1-.59.6h-3.71a.59.59,0,0,1-.59-.6Z"/><path class="cls-2" d="M214.3,168.21a9.85,9.85,0,0,1-7.06-2.72.55.55,0,0,1,0-.81l2.27-2.36a.49.49,0,0,1,.72,0,6,6,0,0,0,3.95,1.47,6,6,0,0,0,0-11.92,6.19,6.19,0,0,0-3.92,1.4.56.56,0,0,1-.75,0l-2.28-2.41a.6.6,0,0,1,0-.79,9.93,9.93,0,0,1,7.08-2.84,10.51,10.51,0,1,1,0,21"/><path class="cls-2" d="M199.91,167.37a.55.55,0,0,1-.55.55H187.28a.56.56,0,0,1-.56-.55v-3.19a.55.55,0,0,1,.56-.55h8.08V160H188.7a.56.56,0,0,1-.55-.53v-3.19a.54.54,0,0,1,.55-.55h6.66v-3.95h-8.08a.55.55,0,0,1-.56-.55V148a.55.55,0,0,1,.56-.55h12.08a.54.54,0,0,1,.55.55Z"/><path class="cls-2" d="M179,167.68a.54.54,0,0,1-.55.53h-.74L166.11,157h0v10.36a.55.55,0,0,1-.56.55H162a.57.57,0,0,1-.55-.55V147.72a.56.56,0,0,1,.55-.54h.46a1.09,1.09,0,0,1,.39.15l11.53,11.6h0V148a.54.54,0,0,1,.55-.55h3.48a.57.57,0,0,1,.56.55Z"/><path class="cls-2" d="M150,163.63h4.17a.55.55,0,0,1,.56.55v3.19a.56.56,0,0,1-.56.55H141.24a.55.55,0,0,1-.55-.55v-3.19a.54.54,0,0,1,.55-.55h4.17V148a.56.56,0,0,1,.56-.55h3.5a.56.56,0,0,1,.55.55Z"/><path class="cls-2" d="M125.07,159.18a2.35,2.35,0,0,0-2.22,2.34,2.24,2.24,0,0,0,2.22,2.21h4.32v-4.55Zm8.9,8.19a.55.55,0,0,1-.55.55h-8.73a6.24,6.24,0,0,1-2-12.18l-4-7.41a.55.55,0,0,1,.5-.84H123a.52.52,0,0,1,.46.25l3.89,7.74h2V148a.56.56,0,0,1,.55-.55h3.48a.54.54,0,0,1,.55.55Z"/><path class="cls-2" d="M101.25,154.48l2.22,4.83h0l2.19-4.83Zm12-6.24-9.13,19.64a.61.61,0,0,1-.5.33h-.29a.61.61,0,0,1-.5-.33l-9.13-19.64a.51.51,0,0,1,.5-.75h3.24c.52,0,.75.17,1,.73l1.06,2.29h7.93l1.06-2.33a1.07,1.07,0,0,1,1.05-.69h3.21a.51.51,0,0,1,.49.75"/><path class="cls-2" d="M87.5,167.37a.55.55,0,0,1-.55.55H83.47a.57.57,0,0,1-.55-.55v-15.6H76a.54.54,0,0,1-.55-.55V148a.54.54,0,0,1,.55-.55H87a.54.54,0,0,1,.55.55Z"/><path class="cls-2" d="M239,115.51a6.44,6.44,0,0,0-4.6-1.94,6.55,6.55,0,0,0-5.67,3.38l-.06.11,1,.59.06-.13a5.41,5.41,0,1,1,0,5.21l-.07-.11-1,.55.06.11a6.46,6.46,0,0,0,5.7,3.44,6.58,6.58,0,0,0,4.6-11.21"/><path class="cls-2" d="M234.43,118a2.15,2.15,0,0,1,1.88,1.1l0,.07,1-.55,0-.07a3.27,3.27,0,0,0-2.9-1.71,3.33,3.33,0,0,0,0,6.66,3.27,3.27,0,0,0,2.92-1.75l0-.06-1-.55,0,.06a2.16,2.16,0,1,1-1.91-3.2"/></g></g></g></g></svg>