<svg xmlns="http://www.w3.org/2000/svg" viewBox="0 0 283.46 283.46"><defs><style>.cls-1{fill:#7837f5;}.cls-2{fill:#fff;}</style></defs><title>primalove</title><g id="Layer_2" data-name="Layer 2"><g id="Prima"><g id="primalove"><rect class="cls-1" width="283.46" height="283.46"/><g id="logo"><path class="cls-2" d="M66.45,116.69c.22.93.61,1.72,1.64,1.72s1.46-.81,1.46-1.74c0-2-1.14-2.64-3.79-2.54a12.44,12.44,0,0,1,.69,2.57m-.95,21.84h5.75v-3.7h-6.8c-1.51,0-2.46.44-2.46,1.56,0,1.49.87,2.13,3.5,2.13m0-7.67h5.78v-3.7h-7c-1.38,0-2.21.67-2.21,1.74,0,1.78,1.39,2,3.47,2m-3.65,33.08.24-2.72c.1-1.22-.43-2.08-2.07-2.08a2.33,2.33,0,0,0-2.64,2.08L57,163.94ZM57.33,146.7H54l.53-3h3.23Zm13.92,23.82v-2.27H52.39l1.22-7.61c.44-2.73,2.31-5.19,6.44-5.19,4.33,0,5.92,2,5.74,5.19l-.17,3.31h5.63v-9.3h-14l.47-3.47H60.2v0A2.67,2.67,0,0,1,58.12,148l.09-.68h3.94l-.09.9c-.11,1.16.11,2.89,2.77,2.89h6.42v-4.38H58.49l.4-3H71.26V142.5H58.9v-3.85h1.77v-.05A4.21,4.21,0,0,1,58.53,135a3.42,3.42,0,0,1,2.09-3.52,4.62,4.62,0,0,1-2.09-4c0-4,3.11-4.3,5.57-4.3h7.16v-2a3.61,3.61,0,0,1-3,1.32c-4.19,0-3.87-4.5-4.46-7.38-.15-.72-.4-1.1-1.2-1.1-1,0-1.34,1.14-1.34,2a1.87,1.87,0,0,0,1.61,2.08V122a4,4,0,0,1-3.45-2,8.31,8.31,0,0,1-.9-4c0-2.65.53-5.23,3.16-5.8H49.41v33.49l-6.89,26.79H71.26Z"/><path class="cls-2" d="M71.24,172.21H42.52v-1.69H71.24Z"/><path class="cls-2" d="M210.2,145.68c.84-5,3.7-8.23,7.9-8.23,4.37,0,7.31,3.18,7.9,8.23H210.2Zm9.25,27.55c9.06,0,15.36-3.7,19.74-9.24l-8.82-7.31c-3.28,3.19-6.3,4.62-10.08,4.62-5,0-8.57-2.52-9.84-7.47h30.42c.09-1.09.09-2.27.09-3.28,0-13.36-7.22-24.87-22.94-24.87-13.44,0-22.93,10.5-22.93,23.77v.16c0,14.12,10.08,23.61,24.36,23.61m-55.11-.76h14.53L197,126.69H180.46l-8.73,26.55L163,126.69h-16.8l18.15,45.78ZM122.91,159.7c-5.63,0-9.66-4.71-9.66-10.25v-.17c0-5.46,3.7-10.08,9.49-10.08,5.64,0,9.66,4.71,9.66,10.25v.16c0,5.46-3.7,10.08-9.49,10.08m-.17,13.53c14.62,0,25.21-10.84,25.21-23.77v-.17c0-12.93-10.5-23.6-25-23.6s-25.2,10.83-25.2,23.77v.16c0,12.94,10.5,23.61,25,23.61m-45.53-1.09h16V110.81h-16v61.33Z"/></g></g></g></g></svg>