<svg xmlns="http://www.w3.org/2000/svg" viewBox="0 0 283.46 283.46"><defs><style>.cls-1{fill:#4e91d4;}.cls-2{fill:#fff;}</style></defs><g id="Layer_2" data-name="Layer 2"><g id="Prima"><g id="primazoom"><rect class="cls-1" width="283.46" height="283.46"/><g id="logo"><path class="cls-2" d="M98.4,114.3H84.71c-2.7,0-4.29,1.29-4.29,3.37,0,3.47,2.7,3.82,6.74,3.82H98.4V114.3Z"/><path class="cls-2" d="M92.24,97.24c2,0,2.85-1.57,2.85-3.37,0-3.85-2.22-5.13-7.38-5,.71,1.14.85,3.23,1.35,5s1.2,3.33,3.18,3.33"/><path class="cls-2" d="M71.36,180.55l-.67,5.28h9.37l.46-5.28c.19-2.39-.83-4.07-4-4.07s-4.84,1.71-5.13,4.07"/><path class="cls-2" d="M80.42,132.25c0,2.9,1.69,4.14,6.81,4.14H98.4v-7.17H85.19c-2.94,0-4.77.86-4.77,3"/><path class="cls-2" d="M65.89,146.52h6.29l-.85,5.77H64.86l1-5.77ZM42.52,201.83H98.41v-7.65H61.72l2.36-14.8c.85-5.31,4.52-10.09,12.55-10.09,8.42,0,11.5,3.84,11.16,10.09l-.34,6.45h11V167.74H71.21l.9-6.76h4.81v-.09a5.23,5.23,0,0,1-4.08-6.18c.06-.49.18-1.32.18-1.32h7.68l-.16,1.75c-.21,2.25.21,5.6,5.37,5.6H98.4v-8.49H73.58l.79-5.84h24v-2.32h-24v-7.48H77.8v-.1a8.22,8.22,0,0,1-4.14-7.09c0-3.09,1-5.49,4-6.82a9,9,0,0,1-4-7.7c0-7.85,6-8.35,10.8-8.35H98.4v-3.83a7,7,0,0,1-5.83,2.57c-8.15,0-7.52-8.74-8.68-14.35-.3-1.38-.78-2.14-2.32-2.14C79.69,88.8,79,91,79,92.7c0,2.24,1,3.65,3.14,4v7.56a7.73,7.73,0,0,1-6.72-3.86,16,16,0,0,1-1.73-7.83c0-5.15,1-10.18,6.12-11.28H55.91v65.14l-13.38,52.1v3.26Z"/><path class="cls-2" d="M122.21,129v-.22a6.29,6.29,0,0,1,1.69-4.22l32.56-35.22H127.07a4,4,0,0,1-4-4,4.1,4.1,0,0,1,4-4h37.59a4.1,4.1,0,0,1,4.08,4v.23a6,6,0,0,1-1.63,4.21L134.48,124.9h30.18a4.1,4.1,0,0,1,4.05,4.07,4,4,0,0,1-4.05,4h-38.4a4.13,4.13,0,0,1-4.05-4"/><path class="cls-2" d="M231.43,107.26v-.15c0-10-7.32-18.37-17.58-18.37S196.41,96.92,196.41,107v.14c0,10,7.33,18.3,17.59,18.3s17.43-8.11,17.43-18.15m-44.53,0v-.15c0-14.54,11.23-26.72,27.1-26.72s26.94,12,26.94,26.58v.14c0,14.54-11.22,26.73-27.09,26.73s-26.95-12-26.95-26.58"/><path class="cls-2" d="M162.19,176.49v-.14c0-10-7.32-18.39-17.57-18.39s-17.42,8.19-17.42,18.24v.15c0,10,7.31,18.31,17.55,18.31s17.44-8.13,17.44-18.17m-44.52,0v-.14c0-14.55,11.23-26.73,27.08-26.73s26.95,12,26.95,26.58v.15c0,14.53-11.22,26.73-27.08,26.73S117.67,191,117.67,176.49"/><path class="cls-2" d="M189.43,154.74a4.56,4.56,0,0,1,4.6-4.57H195a4.79,4.79,0,0,1,4.21,2.44l14.74,23.14,14.81-23.21a4.58,4.58,0,0,1,4.14-2.37h1a4.55,4.55,0,0,1,4.58,4.57V198a4.49,4.49,0,0,1-4.58,4.51,4.57,4.57,0,0,1-4.5-4.51V167l-11.7,17.59a4.46,4.46,0,0,1-3.85,2.38A4.41,4.41,0,0,1,210,184.6l-11.65-17.45v30.92a4.41,4.41,0,0,1-4.49,4.44,4.36,4.36,0,0,1-4.44-4.44V154.74Z"/></g></g></g></g></svg>