<svg xmlns="http://www.w3.org/2000/svg" viewBox="0 0 283.46 283.46"><defs><style>.cls-1{fill:#1de11c;}.cls-2{fill:#fff;}</style></defs><g id="Layer_2" data-name="Layer 2"><g id="Prima"><g id="primacool"><rect class="cls-1" width="283.46" height="283.46"/><g id="logo"><path class="cls-2" d="M59.18,138.18c0,1.27.74,1.82,3,1.82H67.1v-3.16H61.28c-1.29,0-2.1.37-2.1,1.34"/><path class="cls-2" d="M59.18,131.77c0,1.52,1.19,1.67,3,1.67H67.1v-3.16h-6c-1.19,0-1.89.56-1.89,1.49"/><path class="cls-2" d="M62.39,119.11a9.94,9.94,0,0,1,.59,2.2c.19.79.53,1.47,1.4,1.47s1.25-.69,1.25-1.49c0-1.69-1-2.26-3.24-2.18"/><path class="cls-2" d="M55.2,159.42l-.3,2.33H59l.19-2.33c.09-1-.36-1.79-1.77-1.79a2,2,0,0,0-2.25,1.79"/><path class="cls-2" d="M64.53,126.33c-3.59,0-3.31-3.85-3.82-6.31l-1-1c-.82,0-1.14,1-1.14,1.71a1.58,1.58,0,0,0,1.37,1.78v3.33a3.41,3.41,0,0,1-3-1.7,7,7,0,0,1-.76-3.44c0-2.27.45-4.47,2.69-5H48.4v28.66l-5.88,22.92v1.41H67.1v-3.35H51l1-6.51c.37-2.34,2-4.44,5.52-4.44,3.7,0,5,1.68,4.91,4.44l-.16,2.83H67.1v-8h-12l.39-3h2.11v0a2.3,2.3,0,0,1-1.79-2.71l.08-.59h3.38l-.07.78c-.09,1,.09,2.47,2.36,2.47h5.5V147H56.18l.34-2.56H67.1v-1H56.53v-3.3H58v0a3.62,3.62,0,0,1-1.82-3.12,2.93,2.93,0,0,1,1.78-3,4,4,0,0,1-1.78-3.39c0-3.45,2.66-3.67,4.75-3.67H67.1V125.2a3.13,3.13,0,0,1-2.57,1.13M55.18,147H52.34l.45-2.55h2.77Z"/><path class="cls-2" d="M109.57,158.44l.51.69a6.21,6.21,0,0,1-.94,2.38,19,19,0,0,1-3.14,3.91q-3.82,3.9-11,3.91H90.86a19.24,19.24,0,0,1-6.51-1.06,14,14,0,0,1-5-3.07,13.31,13.31,0,0,1-3.19-4.76A16.58,16.58,0,0,1,75,154.27V129.11a16,16,0,0,1,1.15-6.17,13.77,13.77,0,0,1,3.19-4.72,14.58,14.58,0,0,1,5-3.06,18.3,18.3,0,0,1,6.51-1.11H95a18.94,18.94,0,0,1,5.27.69,13.49,13.49,0,0,1,4.34,2.12,16.66,16.66,0,0,1,2.29,2l1.7,2.13,1.06,1.87.39,1.19-.51.68-7.4,3.65-.42.09-.6-.38-.59-1.07a10.77,10.77,0,0,0-2.39-3A4.72,4.72,0,0,0,95,123H90.86a6.11,6.11,0,0,0-6.12,6.13v25.16a6.09,6.09,0,0,0,6.12,6.12H95a4.68,4.68,0,0,0,3.1-1,10.21,10.21,0,0,0,2.34-3.06c.51-1.08.94-1.62,1.28-1.62l.42.09,7.4,3.65Z"/><path class="cls-2" d="M126.15,127.66v28.15a4.07,4.07,0,0,0,1.14,3.31,3.64,3.64,0,0,0,2.26.94l.43.08.42.76v7.66l-.51.76-1.19.09a12.23,12.23,0,0,1-4.76-1.15,13.2,13.2,0,0,1-4.08-2.93A14.67,14.67,0,0,1,117,161a12.87,12.87,0,0,1-1.06-5.23V127.66a12.84,12.84,0,0,1,1.06-5.23,14.41,14.41,0,0,1,2.85-4.29,13.24,13.24,0,0,1,4.08-2.94,12.23,12.23,0,0,1,4.76-1.15l1.19.09.51.76v7.65l-.42.77-.43.09a3.63,3.63,0,0,0-2.26.93,4.11,4.11,0,0,0-1.14,3.32"/><path class="cls-2" d="M143.16,127.66a4.08,4.08,0,0,0-1.15-3.32,3.6,3.6,0,0,0-2.25-.93l-.43-.09-.42-.77V114.9l.51-.76,1.18-.09a12.11,12.11,0,0,1,4.68,1.15,13.52,13.52,0,0,1,4.09,2.94,15.56,15.56,0,0,1,2.89,4.29,12.54,12.54,0,0,1,1.1,5.23v28.15a12.57,12.57,0,0,1-1.1,5.23,15.86,15.86,0,0,1-2.89,4.29,13.49,13.49,0,0,1-4.09,2.93,12.11,12.11,0,0,1-4.68,1.15l-1.18-.09-.51-.76V160.9l.42-.76.43-.08a3.62,3.62,0,0,0,2.25-.94,4,4,0,0,0,1.15-3.31V127.66Z"/><path class="cls-2" d="M172.07,127.66v28.15a4.07,4.07,0,0,0,1.14,3.31,3.64,3.64,0,0,0,2.26.94l.43.08.42.76v7.66l-.51.76-1.19.09a12.28,12.28,0,0,1-4.76-1.15,13.2,13.2,0,0,1-4.08-2.93,14.48,14.48,0,0,1-2.85-4.29,12.87,12.87,0,0,1-1.06-5.23V127.66a12.84,12.84,0,0,1,1.06-5.23,14.23,14.23,0,0,1,2.85-4.29,13.24,13.24,0,0,1,4.08-2.94,12.28,12.28,0,0,1,4.76-1.15l1.19.09.51.76v7.65l-.42.77-.43.09a3.63,3.63,0,0,0-2.26.93,4.11,4.11,0,0,0-1.14,3.32"/><path class="cls-2" d="M189.08,127.66a4.08,4.08,0,0,0-1.15-3.32,3.63,3.63,0,0,0-2.26-.93l-.42-.09-.42-.77V114.9l.51-.76,1.18-.09a12.11,12.11,0,0,1,4.68,1.15,13.36,13.36,0,0,1,4.08,2.94,15.34,15.34,0,0,1,2.89,4.29,12.39,12.39,0,0,1,1.11,5.23v28.15a12.43,12.43,0,0,1-1.11,5.23,15.64,15.64,0,0,1-2.89,4.29,13.32,13.32,0,0,1-4.08,2.93,12.11,12.11,0,0,1-4.68,1.15l-1.18-.09-.51-.76V160.9l.42-.76.42-.08a3.64,3.64,0,0,0,2.26-.94,4,4,0,0,0,1.15-3.31V127.66Z"/><path class="cls-2" d="M240.94,167.62l-.84.85h-30l-.85-.85V115.75l.85-.85h8.08l.85.85V158.7l.84.85H240.1l.84.85v7.23Z"/></g></g></g></g></svg>