<svg xmlns="http://www.w3.org/2000/svg" viewBox="0 0 283.46 283.46"><defs><style>.cls-1{fill:#f36917;}.cls-2{fill:#fff;}</style></defs><title>primaplus1</title><g id="Layer_2" data-name="Layer 2"><g id="Prima"><g id="primaplus1"><rect class="cls-1" width="283.46" height="283.46"/><g id="logo"><path class="cls-2" d="M107.43,124.13l-64.9-14.69V174h8.92V130.94l17.39,2.78c6.24,1,11.84,5.3,11.84,14.74,0,9.87-4.5,13.48-11.84,13.08l-7.57-.4V174H82.49V142.1l7.95,1.07v5.62h.09c1.16-3.93,4-5.21,7.24-4.77l1.55.21v9l-2.06-.19c-2.64-.26-6.59.24-6.59,6.3V174h10V144.88l6.85.92V174h2.72v-28.2H119v4h.11a9.67,9.67,0,0,1,8.33-4.87c3.62,0,6.46,1.18,8,4.76a10.55,10.55,0,0,1,9-4.76c9.22,0,9.81,7.08,9.81,12.68V174h4.5a8.24,8.24,0,0,1-3-6.84c0-9.57,10.27-8.83,16.84-10.2,1.62-.34,2.51-.91,2.51-2.71,0-2.22-2.62-3.06-4.57-3.06-2.63,0-4.29,1.18-4.74,3.68h-8.88a9.07,9.07,0,0,1,4.52-7.87,18.87,18.87,0,0,1,9.2-2c6.06,0,11.93,1.19,13.23,7.2v-28Zm0,19.09-6.78-1v-7.59l6.78,1.21ZM169.16,163c-2.12.52-3.9,1.42-3.9,3.74s1.83,3.34,4,3.34c4.52,0,6-2.6,5.81-8.67-1.34.85-3.79,1-5.86,1.59M72.25,148.29c0-3.86-2-5.67-4.77-6l-6.22-.78v11l6.22.53c2.79.24,4.77-1,4.77-4.74m69,4.61c-4.08,0-4.47,3.17-4.47,7.93V174h8.43V157.94c0-3.17-1.51-5-4-5m-17.11,0c-3.4,0-4.85,2-4.85,8V174h8.43V158.51c0-3.46-1-5.61-3.57-5.61"/><path class="cls-2" d="M191,123.95v34.41h8.76V149.5h6.8v8.86h8.86v6.8H206.6V174H223l.19-24.68h-9.7v-6.95a19.27,19.27,0,0,0,8.68-1.79c1.7-1.07,2.62-3.35,3.24-5.75h7.27l-.2,39.17h8.47V123.94Zm0,34.41h-.09v6.8H191Zm0,6.8V174h8.76v-8.86Z"/></g></g></g></g></svg>