<svg xmlns="http://www.w3.org/2000/svg" viewBox="0 0 283.46 283.46"><defs><style>.cls-1{fill:#d91e25;}.cls-2{fill:#fff;}</style></defs><g id="Layer_2" data-name="Layer 2"><g id="Prima"><g id="primamax"><rect class="cls-1" width="283.46" height="283.46"/><g id="logo"><path class="cls-2" d="M47.39,137l-4.87,21.52H63.94v-2.95H49.65l.92-5.77c.33-2.07,1.76-3.93,4.89-3.93s4.47,1.49,4.34,3.93l-.13,2.51h4.27v-7H53.35l.35-2.63h1.87v0a2,2,0,0,1-1.58-2.4c0-.2.07-.52.07-.52h3l-.06.68c-.08.88.08,2.19,2.09,2.19h4.87v-3.32H54.27l.31-2.27h9.36v-.89H54.58v-2.92h1.34v0a3.2,3.2,0,0,1-1.62-2.77,2.59,2.59,0,0,1,1.58-2.66,3.5,3.5,0,0,1-1.58-3c0-3.06,2.35-3.25,4.21-3.25h5.43V120a2.72,2.72,0,0,1-2.27,1c-3.18,0-2.94-3.4-3.39-5.57-.11-.54-.3-.84-.9-.84s-1,.86-1,1.51a1.42,1.42,0,0,0,1.22,1.58v2.94A3,3,0,0,1,55,119.11a6.29,6.29,0,0,1-.68-3.06c0-2,.39-4,2.38-4.39H47.39Zm6.33,0-.33,2.25H50.87l.41-2.25Zm6.57-20.47c.18.7.48,1.3,1.24,1.3s1.11-.61,1.11-1.31c0-1.52-.86-2-2.88-1.94a8.52,8.52,0,0,1,.53,2M55.4,148.68a1.76,1.76,0,0,0-2,1.59l-.27,2.06H56.8l.17-2.06c.08-.93-.33-1.59-1.57-1.59m1.53-22.88c0,1.36,1,1.48,2.63,1.48h4.38v-2.8H58.6c-1.05,0-1.67.5-1.67,1.32m0,5.68c0,1.13.66,1.6,2.65,1.6h4.36V130.3H58.79c-1.14,0-1.86.32-1.86,1.18"/><path class="cls-2" d="M118.52,111.66l-13,23L92.68,112l-.19-.35H82.17v46.91h8.88v-31.4l11.08,19.47h6.38L120,127.17v31.4h8.95V111.66Z"/><path class="cls-2" d="M240.94,111.68h-6.43l-17,17-17-17H194v6.07L211.23,135,194,152.19v6.35h6.24l17.27-17.28,17.3,17.28h6.12V152.2L223.77,135l17.17-17.19Z"/><path class="cls-2" d="M149.59,149.68,162,128.33l12.35,21.35ZM162,110.58l-27.85,48H189.8Z"/><path class="cls-2" d="M157.51,172.88h8.88V164h-8.88Z"/></g></g></g></g></svg>