<?xml version="1.0" encoding="utf-8"?>
<!-- Generator: Adobe Illustrator 24.3.0, SVG Export Plug-In . SVG Version: 6.00 Build 0)  -->
<svg version="1.1" id="Слой_1" xmlns="http://www.w3.org/2000/svg" xmlns:xlink="http://www.w3.org/1999/xlink" x="0px" y="0px"
	 viewBox="0 0 512 172.1" style="enable-background:new 0 0 512 172.1;" xml:space="preserve">
<style type="text/css">
	.st0{fill:#3C0090;}
</style>
<g id="Živé-vysílání">
	<g id="Prima-star-HP" transform="translate(-99.000000, -20.000000)">
		<g id="Prima_STAR_logo" transform="translate(99.000000, 20.000000)">
			<path id="Fill-1" class="st0" d="M27.8,149.2l-0.7,5.3h9.3l0.4-5.3c0.2-2.4-0.8-4-4-4C29.6,145.2,28.1,146.9,27.8,149.2"/>
			<path id="Fill-3" class="st0" d="M36.8,101.2c0,2.9,1.7,4.1,6.8,4.1h11.1v-7.1H41.5C38.6,98.2,36.8,99.1,36.8,101.2"/>
			<path id="Fill-5" class="st0" d="M48.5,66.5c2,0,2.8-1.6,2.8-3.4c0-3.8-2.2-5.1-7.3-4.9c0.7,1.1,0.9,3.2,1.3,5
				C45.8,64.9,46.6,66.5,48.5,66.5"/>
			<path id="Fill-7" class="st0" d="M22.3,115.4h6.2l-0.8,5.7h-6.4L22.3,115.4z M18.2,162.8l2.4-14.7c0.8-5.3,4.5-10,12.5-10
				c8.4,0,11.4,3.8,11.1,10l-0.3,6.4h10.9v-18h-27l0.9-6.7h4.8l0-0.1c-3.3-1-4.4-3.4-4-6.1c0.1-0.5,0.2-1.3,0.2-1.3h7.6l-0.2,1.7
				c-0.2,2.2,0.2,5.6,5.3,5.6h12.4v-8.5H30l0.8-5.8h23.9V113H30.8v-7.4h3.4v-0.1c-2.5-1.5-4.1-4.1-4.1-7c0-3.1,1-5.5,4-6.8
				c-2.6-1.9-4-4.3-4-7.6c0-7.8,6-8.3,10.7-8.3h13.8v-3.8c-1.2,1.6-3.2,2.6-5.8,2.6c-8.1,0-7.5-8.7-8.6-14.3
				c-0.3-1.4-0.8-2.1-2.3-2.1c-1.9,0-2.6,2.2-2.6,3.9c0,2.2,1,3.6,3.1,4v7.5c-3.3-0.1-5.4-1.7-6.7-3.8c-1.2-2.2-1.7-5-1.7-7.8
				c0-5.1,1-10.1,6.1-11.2H12.4v64.7L0,170.3l54.7,0l0-7.5H18.2z"/>
			<path id="Fill-9" class="st0" d="M54.7,83.4H41c-2.7,0-4.3,1.3-4.3,3.4c0,3.4,2.7,3.8,6.7,3.8h11.2V83.4z"/>
			<path id="Fill-11" class="st0" d="M149.3,100.1c-22.4-8-31.7-6.7-31.7-15.2c0-4.1,4.3-7.3,13-7.3c10.2,0,17.4,4.4,21.5,9.4
				l21.3-18.3c-7.7-10.1-21.3-18.9-44-18.9c-22.2,0-42.7,12.1-42.7,35.7c0,18.1,10.9,28.2,27.5,34.3c17.1,6.5,32.4,7.2,32.4,15.7
				c0,6-6,8.5-15.9,8.5c-13,0-23.7-6.5-29.7-14.7l-22.9,17.6c7.5,11.8,23.4,25.3,52.6,25.3c32.9,0,47.5-15.9,47.5-37.7
				C178.2,118.7,170.5,107.6,149.3,100.1"/>
			<polygon id="Fill-13" class="st0" points="277.7,51.4 181.8,51.4 181.8,80.8 213.9,80.8 213.9,170.4 246.3,170.4 246.3,80.8 
				277.7,80.8 			"/>
			<path id="Fill-15" class="st0" d="M456.4,107.4h-18.1V80.8h20.8c6.1,0,11.3,4.9,11.3,12.6C470.4,102.3,464.9,107.4,456.4,107.4
				L456.4,107.4z M482.3,126.4c12.3-5.6,20.3-18.6,20.3-34c0-22.9-19.1-41-42.7-41h-54.1v119h32.4v-37h11.9h0.3l24.2,37H512
				L482.3,126.4z"/>
			<path id="Fill-17" class="st0" d="M314,129.8l14.3-36.9l14.3,36.9H314z M322.8,83.2l13.7-31.8h-23.1l-48.5,119h34.1l6.3-15.5
				h45.7l6.1,15.5h34.3L350.1,68.5L322.8,83.2z"/>
			<polygon id="Fill-19" class="st0" points="402.1,31.9 376.8,45.8 382.2,74.1 361.2,54.4 336.3,68.3 348.5,42.2 327.4,22.5 
				355.8,26.1 368,0 373.8,28.3 			"/>
		</g>
	</g>
</g>
</svg>
