<svg xmlns="http://www.w3.org/2000/svg" viewBox="0 0 283.46 283.46"><defs><style>.cls-1{fill:#f36917;}.cls-2{fill:#fff;}</style></defs><g id="Layer_2" data-name="Layer 2"><g id="Prima"><g id="primaplus1"><rect class="cls-1" width="283.46" height="283.46"/><g id="logo"><path class="cls-2" d="M107.43,124.13l-64.9-14.68V174h8.92V130.94l17.39,2.78c6.24,1,11.84,5.3,11.84,14.74,0,9.87-4.5,13.49-11.84,13.09l-7.57-.4V174H82.49V142.1l7.94,1.06v5.62h.1c1.16-3.93,4-5.21,7.24-4.77l1.55.21v9l-2.06-.19c-2.64-.26-6.59.24-6.59,6.3V174h10V144.88l6.85.92V174h2.72V145.82H119v4h.1a9.67,9.67,0,0,1,8.33-4.87c3.63,0,6.46,1.18,8,4.76a10.55,10.55,0,0,1,9-4.76c9.22,0,9.8,7.08,9.8,12.68V174h4.5a8.23,8.23,0,0,1-3-6.84c0-9.57,10.27-8.83,16.84-10.2,1.62-.33,2.51-.9,2.51-2.7,0-2.22-2.61-3.07-4.56-3.07-2.63,0-4.3,1.19-4.74,3.68H157a9.06,9.06,0,0,1,4.52-7.87,18.89,18.89,0,0,1,9.2-2c6.06,0,11.94,1.19,13.24,7.2v-28Zm0,19.09-6.79-1v-7.59l6.79,1.21ZM169.16,163c-2.12.52-3.9,1.42-3.9,3.75s1.83,3.34,4,3.34c4.53,0,6-2.61,5.81-8.67-1.34.85-3.79,1-5.86,1.58M72.25,148.29c0-3.86-2-5.68-4.77-6l-6.22-.79v11l6.22.54c2.79.24,4.77-1,4.77-4.74m69,4.61c-4.07,0-4.47,3.17-4.47,7.93V174h8.44V157.94c0-3.17-1.52-5-4-5m-17.11,0c-3.4,0-4.85,2-4.85,8V174h8.43V158.51c0-3.46-1-5.61-3.58-5.61"/><path class="cls-2" d="M191,124v34.41h8.76V149.5h6.8v8.86h8.86v6.8H206.6V174H223l.19-24.68h-9.7v-7a19.33,19.33,0,0,0,8.68-1.79c1.69-1.07,2.61-3.35,3.23-5.75h7.27l-.2,39.17h8.47V123.94Zm0,34.41h-.1v6.8h.1Zm0,6.8V174h8.76v-8.86Z"/></g></g></g></g></svg>