<svg xmlns="http://www.w3.org/2000/svg" viewBox="0 0 283.46 283.46"><defs><style>.cls-1{fill:#bfa301;}.cls-2{fill:#fff;}</style></defs><g id="Layer_2" data-name="Layer 2"><g id="Prima"><g id="primakrimi"><rect class="cls-1" width="283.46" height="283.46"/><g id="logo"><path class="cls-2" d="M47.47,143.68l-4.95,21.83H64.27v-3H49.76l.94-5.85c.34-2.1,1.78-4,5-4,3.33,0,4.55,1.51,4.41,4l-.13,2.55h4.33v-7.14H53.52l.36-2.67h1.89v0a2,2,0,0,1-1.61-2.43c0-.19.07-.52.07-.52h3l-.07.69c-.09.89.08,2.22,2.12,2.22h4.94V146H54.46l.31-2.3h9.5v-.91h-9.5v-3h1.36v0a3.24,3.24,0,0,1-1.64-2.8,2.61,2.61,0,0,1,1.6-2.69,3.55,3.55,0,0,1-1.6-3c0-3.1,2.38-3.3,4.27-3.3h5.51V126.4a2.76,2.76,0,0,1-2.3,1c-3.23,0-3-3.45-3.44-5.66-.11-.55-.3-.85-.91-.85s-1,.88-1,1.54a1.44,1.44,0,0,0,1.24,1.6v3a3.08,3.08,0,0,1-2.66-1.52,6.4,6.4,0,0,1-.68-3.1c0-2,.4-4,2.42-4.45H47.47Zm6.43,0L53.57,146H51l.4-2.28Zm6.68-20.77c.17.71.47,1.31,1.25,1.31s1.13-.61,1.13-1.33c0-1.52-.88-2-2.92-2A9.23,9.23,0,0,1,60.58,122.91Zm-5,32.6a1.79,1.79,0,0,0-2,1.61l-.27,2.09H57l.18-2.09C57.28,156.18,56.87,155.51,55.61,155.51Zm1.55-23.21c0,1.37,1.07,1.5,2.67,1.5h4.44V131H58.86C57.79,131,57.16,131.47,57.16,132.3Zm0,5.75c0,1.15.67,1.64,2.69,1.64h4.42v-2.84H59.05C57.88,136.85,57.16,137.19,57.16,138.05Z"/><path class="cls-2" d="M240.77,118H229.84a6.36,6.36,0,1,1-11.57,0H168.82a6.23,6.23,0,0,1,.57,2.62A6.35,6.35,0,1,1,157.25,118H69.89v47.56H240.94ZM103.12,153.87,92.31,143.63v10.24h-11V129.59h11v9l11.43-9h13.53l-14.31,11,14.54,13.31Zm51.43,0H143.24a1.44,1.44,0,0,1-.23-1V150c0-2.61-1.24-4.15-4.8-4.15H130.4v8h-11V129.59h24.73c6.11,0,9.87,1.73,9.87,6.17v.33c0,3.65-3.27,5-5.29,5.54,3.43.69,5.39,2.81,5.39,5.94v3.66a4.36,4.36,0,0,0,.46,2.44Zm14.09,0h-11V129.59h11Zm45.89,0H203.59V140.46l-7.42,13.41h-5.39l-7.39-13.41v13.41H172.55V129.59h14.73l6.51,12,6.66-12h14.08Zm15,0h-11V129.59h11Z"/><path class="cls-2" d="M140.17,135.89H130.4v3.56h9.77c1.83,0,2.48-.75,2.48-1.76v0C142.65,136.64,142,135.89,140.17,135.89Z"/></g></g></g></g></svg>