<svg xmlns="http://www.w3.org/2000/svg" viewBox="0 0 283.46 283.46"><defs><style>.cls-1{fill:#3c0090;}.cls-2{fill:#fff;}</style></defs><g id="Layer_2" data-name="Layer 2"><g id="Prima"><g id="primastar"><rect class="cls-1" width="283.46" height="283.46"/><g id="logo"><path id="Fill-1" class="cls-2" d="M53.28,166.21l-.25,2h3.61l.17-2c.08-.91-.32-1.56-1.55-1.56a1.75,1.75,0,0,0-2,1.56"/><path id="Fill-3" class="cls-2" d="M56.77,147.62c0,1.12.65,1.59,2.62,1.59H63.7v-2.76H58.61c-1.13,0-1.84.33-1.84,1.17"/><path id="Fill-5" class="cls-2" d="M61.33,134.14c.78,0,1.09-.61,1.09-1.3,0-1.48-.85-2-2.84-1.91a8.89,8.89,0,0,1,.52,1.93c.17.69.46,1.28,1.23,1.28"/><path id="Fill-7" class="cls-2" d="M51.18,153.11H53.6l-.33,2.23H50.78Zm-1.61,18.36.91-5.7a4.45,4.45,0,0,1,4.84-3.89c3.24,0,4.42,1.48,4.29,3.89l-.13,2.48H63.7v-7H53.23l.35-2.61h1.84v0a2,2,0,0,1-1.57-2.37c0-.19.07-.51.07-.51h3l-.07.67c-.08.87.08,2.17,2.07,2.17H63.7v-3.28H54.14l.31-2.25H63.7v-.89H54.45V149.3h1.32v0a3.17,3.17,0,0,1-1.6-2.73,2.56,2.56,0,0,1,1.56-2.63,3.46,3.46,0,0,1-1.56-3c0-3,2.32-3.22,4.16-3.22H63.7v-1.47a2.71,2.71,0,0,1-2.24,1c-3.14,0-2.9-3.37-3.35-5.53-.11-.53-.3-.82-.89-.82s-1,.86-1,1.5a1.39,1.39,0,0,0,1.2,1.55v2.92a3,3,0,0,1-2.58-1.49,6.22,6.22,0,0,1-.67-3c0-2,.39-3.91,2.36-4.34H47.34v25.09l-4.82,21.28H63.7v-2.93Z"/><path id="Fill-9" class="cls-2" d="M63.7,140.71H58.43c-1,0-1.66.49-1.66,1.3,0,1.34,1,1.46,2.6,1.46H63.7Z"/><path id="Fill-11" class="cls-2" d="M100.4,147.16c-8.67-3.1-12.3-2.57-12.3-5.88,0-1.59,1.65-2.85,5-2.85a10.56,10.56,0,0,1,8.34,3.64l8.27-7.08c-3-3.9-8.27-7.34-17.07-7.34-8.6,0-16.54,4.7-16.54,13.83,0,7,4.24,10.91,10.65,13.29,6.62,2.52,12.57,2.78,12.57,6.09,0,2.31-2.31,3.31-6.15,3.31a14.29,14.29,0,0,1-11.51-5.69l-8.86,6.81c2.91,4.56,9.06,9.79,20.37,9.79,12.77,0,18.39-6.15,18.39-14.62,0-6.09-3-10.38-11.18-13.3"/><polygon id="Fill-13" class="cls-2" points="150.14 128.31 112.97 128.31 112.97 139.69 125.4 139.69 125.4 174.42 137.97 174.42 137.97 139.69 150.14 139.69 150.14 128.31"/><path id="Fill-15" class="cls-2" d="M219.38,150h-7V139.69h8.07c2.38,0,4.36,1.92,4.36,4.9,0,3.43-2.11,5.42-5.42,5.42Zm10.05,7.34c4.77-2.18,7.88-7.21,7.88-13.16,0-8.87-7.41-15.88-16.54-15.88h-21v46.11h12.57V160.06h4.76l9.39,14.36h14.42Z"/><path id="Fill-17" class="cls-2" d="M164.2,158.67l5.56-14.28,5.55,14.28Zm3.43-18L173,128.31H164l-18.79,46.11h13.23l2.45-6h17.73l2.38,6h13.3l-16.1-39.5Z"/><polygon id="Fill-19" class="cls-2" points="198.37 120.75 188.57 126.13 190.65 137.09 182.48 129.46 172.84 134.86 177.56 124.75 169.39 117.11 180.4 118.49 185.13 108.38 187.37 119.37 198.37 120.75"/></g></g></g></g></svg>