<svg xmlns="http://www.w3.org/2000/svg" viewBox="0 0 283.46 283.46"><defs><style>.cls-1{fill:#1de11c;}.cls-2{fill:#fff;}</style></defs><title>primacool</title><g id="Layer_2" data-name="Layer 2"><g id="Prima"><g id="primacool"><rect class="cls-1" width="283.46" height="283.46"/><g id="logo"><path class="cls-2" d="M59.18,138.18c0,1.28.74,1.82,3,1.82H67.1v-3.15H61.28c-1.29,0-2.1.37-2.1,1.33"/><path class="cls-2" d="M59.18,131.77c0,1.52,1.19,1.67,3,1.67H67.1v-3.15h-6c-1.18,0-1.89.56-1.89,1.48"/><path class="cls-2" d="M62.39,119.11a9.79,9.79,0,0,1,.59,2.2c.19.79.53,1.47,1.4,1.47s1.25-.69,1.25-1.49c0-1.69-1-2.26-3.25-2.17"/><path class="cls-2" d="M55.2,159.42l-.3,2.33H59l.2-2.33c.09-1-.36-1.79-1.77-1.79a2,2,0,0,0-2.26,1.79"/><path class="cls-2" d="M64.53,126.33c-3.59,0-3.31-3.85-3.83-6.31l-1-.95c-.82,0-1.14,1-1.14,1.71a1.59,1.59,0,0,0,1.37,1.78v3.33a3.4,3.4,0,0,1-2.95-1.7,7.06,7.06,0,0,1-.76-3.44c0-2.27.45-4.47,2.69-5H48.4v28.66l-5.88,22.92v1.4H67.1v-3.35H51l1-6.51c.37-2.34,2-4.44,5.52-4.44,3.7,0,5.06,1.69,4.91,4.44l-.16,2.83H67.1v-7.95h-12l.39-3h2.11v0a2.29,2.29,0,0,1-1.79-2.71l.08-.59h3.38l-.07.77c-.09,1,.09,2.47,2.36,2.47h5.5V147H56.18l.34-2.56H67.1v-1H56.53V140.1H58v0a3.62,3.62,0,0,1-1.83-3.12,2.94,2.94,0,0,1,1.78-3,4,4,0,0,1-1.78-3.38c0-3.45,2.66-3.67,4.76-3.67H67.1V125.2a3.1,3.1,0,0,1-2.56,1.13M55.18,147H52.34l.45-2.54h2.77Z"/><path class="cls-2" d="M109.57,158.44l.51.68a6.22,6.22,0,0,1-.94,2.38,18.89,18.89,0,0,1-3.14,3.91q-3.82,3.9-11,3.91H90.86a19.1,19.1,0,0,1-6.51-1.06,14.06,14.06,0,0,1-5-3.07,13.47,13.47,0,0,1-3.19-4.76,16.62,16.62,0,0,1-1.1-6.17V129.11a16,16,0,0,1,1.15-6.17,13.84,13.84,0,0,1,3.19-4.72,14.63,14.63,0,0,1,5-3.06,18.44,18.44,0,0,1,6.5-1.1H95a19.26,19.26,0,0,1,5.28.68,13.44,13.44,0,0,1,4.33,2.12,16.17,16.17,0,0,1,2.3,2l1.7,2.12,1.06,1.87.39,1.19-.51.68-7.39,3.66-.42.08-.6-.38-.59-1.06a10.85,10.85,0,0,0-2.39-3A4.74,4.74,0,0,0,95,123H90.86a6.1,6.1,0,0,0-6.12,6.13v25.17a6.09,6.09,0,0,0,6.12,6.12H95a4.7,4.7,0,0,0,3.1-1,10.24,10.24,0,0,0,2.34-3.06c.51-1.08.94-1.61,1.28-1.61l.42.08,7.39,3.66Z"/><path class="cls-2" d="M126.15,127.66v28.15a4.05,4.05,0,0,0,1.14,3.31,3.61,3.61,0,0,0,2.26.94l.43.08.42.76v7.66l-.51.76-1.18.09a12.21,12.21,0,0,1-4.76-1.15,13.2,13.2,0,0,1-4.09-2.93A14.6,14.6,0,0,1,117,161a12.85,12.85,0,0,1-1.06-5.23V127.66a12.86,12.86,0,0,1,1.06-5.23,14.58,14.58,0,0,1,2.85-4.29,13.27,13.27,0,0,1,4.09-2.94,12.2,12.2,0,0,1,4.76-1.14l1.18.08.51.77v7.65l-.42.77-.43.09a3.64,3.64,0,0,0-2.26.93,4.09,4.09,0,0,0-1.14,3.32"/><path class="cls-2" d="M143.16,127.66a4.07,4.07,0,0,0-1.14-3.32,3.63,3.63,0,0,0-2.25-.93l-.43-.09-.42-.77V114.9l.51-.77,1.18-.08a12.1,12.1,0,0,1,4.68,1.14,13.42,13.42,0,0,1,4.09,2.94,15.58,15.58,0,0,1,2.89,4.29,12.48,12.48,0,0,1,1.1,5.23v28.15a12.47,12.47,0,0,1-1.1,5.23,15.6,15.6,0,0,1-2.89,4.29,13.35,13.35,0,0,1-4.09,2.93,12.12,12.12,0,0,1-4.68,1.15l-1.18-.09-.51-.76V160.9l.42-.76.43-.08a3.6,3.6,0,0,0,2.25-.94,4,4,0,0,0,1.14-3.31V127.66Z"/><path class="cls-2" d="M172.07,127.66v28.15a4.05,4.05,0,0,0,1.14,3.31,3.61,3.61,0,0,0,2.26.94l.43.08.42.76v7.66l-.51.76-1.19.09a12.21,12.21,0,0,1-4.76-1.15,13.15,13.15,0,0,1-4.09-2.93,14.53,14.53,0,0,1-2.85-4.29,12.85,12.85,0,0,1-1.06-5.23V127.66a12.86,12.86,0,0,1,1.06-5.23,14.51,14.51,0,0,1,2.85-4.29,13.22,13.22,0,0,1,4.09-2.94,12.2,12.2,0,0,1,4.76-1.14l1.19.08.51.77v7.65l-.42.77-.43.09a3.64,3.64,0,0,0-2.26.93,4.09,4.09,0,0,0-1.14,3.32"/><path class="cls-2" d="M189.08,127.66a4.07,4.07,0,0,0-1.15-3.32,3.63,3.63,0,0,0-2.25-.93l-.42-.09-.42-.77V114.9l.51-.77,1.19-.08a12.07,12.07,0,0,1,4.67,1.14,13.32,13.32,0,0,1,4.09,2.94,15.49,15.49,0,0,1,2.89,4.29,12.48,12.48,0,0,1,1.11,5.23v28.15a12.48,12.48,0,0,1-1.11,5.23,15.51,15.51,0,0,1-2.89,4.29,13.25,13.25,0,0,1-4.09,2.93,12.08,12.08,0,0,1-4.67,1.15l-1.19-.09-.51-.76V160.9l.42-.76.42-.08a3.6,3.6,0,0,0,2.25-.94,4,4,0,0,0,1.15-3.31V127.66Z"/><path class="cls-2" d="M240.94,167.62l-.85.85h-30l-.85-.85V115.75l.85-.85h8.08l.85.85V158.7l.85.85H240.1l.85.85v7.23Z"/></g></g></g></g></svg>