<svg xmlns="http://www.w3.org/2000/svg" width="613.495" height="164"><g fill="#bb4260" fill-rule="nonzero"><path d="M67.894 40.436H50.968c-3.385 0-5.266 1.504-5.266 4.137 0 4.326 3.385 4.702 8.275 4.702h13.917zM60.372 19.372c2.445 0 3.573-1.881 3.573-4.138 0-4.702-2.821-6.395-9.028-6.206.94 1.504 1.129 3.95 1.693 6.206.376 2.257 1.317 4.138 3.762 4.138zM45.702 62.628c0 3.574 2.069 5.078 8.463 5.078h13.73v-8.839H51.531c-3.573 0-5.83 1.128-5.83 3.761z"/><path d="m22.569 139.174 3.009-18.243c1.128-6.582 5.642-12.413 15.422-12.413 10.344 0 14.294 4.702 13.73 12.413l-.377 7.9h13.541v-22.193H34.417l1.129-8.276h5.83v-.188c-4.137-1.128-5.454-4.137-5.078-7.71 0-.565.188-1.693.188-1.693h9.404l-.188 2.257c-.188 2.82.188 6.958 6.582 6.958h15.422V87.454H37.24l.94-7.147h29.715v-2.82H38.367V68.27h4.326v-.188c-3.198-1.881-5.078-5.078-5.078-8.84 0-3.761 1.316-6.77 5.078-8.463-3.198-2.445-5.078-5.454-5.078-9.592 0-9.78 7.523-10.344 13.353-10.344H68.27v-4.702c-1.505 1.88-3.95 3.197-7.147 3.197-10.156 0-9.216-10.72-10.72-17.678-.376-1.693-.94-2.633-2.821-2.633-2.257 0-3.198 2.82-3.198 4.89 0 2.82 1.317 4.513 3.95 5.077V28.4c-4.138-.188-6.77-2.069-8.275-4.702-1.505-2.633-2.07-6.206-2.07-9.78 0-6.394 1.317-12.6 7.524-13.917H15.422v80.495L0 148.578h67.894v-9.404Zm5.266-58.867h7.71l-.94 7.147h-8.087z"/><path d="m34.606 122.436-.94 6.394h11.66l.564-6.582c.188-3.01-.94-5.078-4.89-5.078-4.138.188-6.018 2.257-6.394 5.266ZM179.986 63.38 171.9 58.68c-9.968-5.83-13.917-12.601-10.908-21.629 1.88-5.83 6.206-9.215 19.371-9.215 3.01 0 16.927.752 27.46 3.385l7.71-24.073C206.317 4.137 191.647.94 176.977.94c-26.142 0-43.069 8.84-48.147 34.982-5.078 26.895 9.968 38.367 23.133 45.89l9.404 5.642c11.472 6.77 11.472 16.174 9.592 22.569-1.881 6.018-6.77 11.096-22.005 11.096-8.275 0-20.876-2.633-32.537-7.335l-9.403 24.45c10.344 5.266 28.399 9.968 48.335 9.968 28.587 0 43.445-9.968 48.71-37.239 4.702-26.33-9.591-39.307-24.073-47.582zM611.427 47.206s-2.07 1.505-7.147 1.505c-4.702 0-9.028-.752-12.413-6.394h-28.4c.941 56.422-12.976 79.178-22.756 79.178-8.275 0-10.156-7.523-2.069-48.334l6.207-30.844H513.44l-6.018 30.28c-8.087 40.059-15.234 48.898-23.697 48.898-10.72 0-10.908-22.756 10.72-79.178h-32.913c-7.71 19.371-12.789 35.733-15.422 49.463-1.316-16.927-8.84-33.101-20.876-44.574a45.248 45.248 0 0 1 4.89 11.097c5.83 18.243 1.316 38.93-11.473 52.848-5.83 6.395-12.977 11.097-20.876 13.918-9.027 3.197-19.56 4.137-28.399-.376.188.188.376.376.564.752 6.019 7.711 14.482 13.165 23.698 15.422 8.84 2.069 18.243 1.316 26.518-2.445 11.472-5.078 20.124-15.234 24.073-27.083-.376 25.766 12.037 37.239 32.725 37.239 14.482 0 26.142-4.89 34.23-18.62 4.137 11.661 11.848 18.62 26.706 18.62 31.972 0 56.422-28.775 56.046-81.06 3.761 1.693 6.582 2.07 9.968 2.07 7.71 0 9.591-2.07 9.591-2.07z"/><path d="M368.436 135.225c-6.019-6.019-10.72-13.542-13.353-21.817-3.01-9.403-3.95-20.5.376-29.715-.188.188-.376.376-.753.564-7.334 6.206-12.6 15.046-14.857 24.637-2.07 9.216-1.317 18.996 2.257 27.647 6.77 16.363 22.568 27.459 39.683 27.459 18.055 0 35.546-8.087 47.77-22.005a60.15 60.15 0 0 1-10.531 5.078c-17.491 6.207-37.239 1.505-50.592-11.848z"/><path d="M345.303 82.94c5.83-6.394 12.977-11.096 20.876-13.917 9.027-3.197 19.56-4.138 28.399.376-.188-.188-.376-.376-.564-.752-6.019-7.711-14.482-13.165-23.697-15.422-8.84-2.069-18.244-1.317-26.519 2.445-15.798 6.958-26.33 23.509-26.33 41.376 0 6.018.752 11.848 2.257 17.49-8.275 5.079-12.413 6.583-15.986 6.583-5.83 0-5.643-4.89-4.326-11.66l7.899-39.308c4.138-21.064-6.018-29.715-22.38-29.715-16.551 0-24.45 5.83-28.212 8.84h-.376s2.445-10.721 4.89-23.51l4.326-23.321h-33.101L205 146.133h33.1l14.294-73.913c4.326-2.82 9.968-5.078 15.046-5.078 5.454 0 7.147 2.821 5.83 10.156l-7.898 40.624c-5.643 27.835 10.156 29.528 18.619 29.528 18.243 0 31.22-7.711 42.504-16.363 3.198 5.83 7.335 11.285 12.413 15.986a45.248 45.248 0 0 1-4.89-11.096c-6.018-18.62-1.504-39.12 11.285-53.037Z"/><path d="M395.518 58.679c6.019 6.018 10.72 13.541 13.354 21.816 3.009 9.404 3.95 20.5-.376 29.716.188-.188.376-.376.752-.564 7.335-6.207 12.6-15.046 14.858-24.638 2.068-9.215 1.316-18.995-2.257-27.647-6.771-16.362-22.57-27.458-39.684-27.458-18.055 0-35.546 8.087-47.77 22.004a60.15 60.15 0 0 1 10.532-5.078c17.49-6.018 37.238-1.504 50.591 11.849z"/></g></svg>