<svg xmlns="http://www.w3.org/2000/svg" viewBox="0 0 283.46 283.46"><defs><style>.cls-1{fill:#ed498e;}.cls-2{fill:#fff;}</style></defs><title>primacomedycentral</title><g id="Layer_2" data-name="Layer 2"><g id="Prima"><g id="primacomedycentral"><rect class="cls-1" width="283.46" height="283.46"/><g id="logo"><path class="cls-2" d="M47.92,146.07l-5.4,23.82H66.23v-3.26H50.42l1-6.4c.37-2.29,2-4.35,5.41-4.35,3.63,0,5,1.66,4.82,4.35L61.51,163h4.72v-7.8H54.51l.39-2.9H57v-.05a2.24,2.24,0,0,1-1.74-2.65c0-.21.07-.57.07-.57h3.31l-.07.76c-.09,1,.09,2.41,2.31,2.41h5.39v-3.66H55.53l.34-2.52H66.23v-1H55.88v-3.22h1.48v0a3.53,3.53,0,0,1-1.8-3,2.89,2.89,0,0,1,1.74-2.95,3.86,3.86,0,0,1-1.74-3.31c0-3.39,2.6-3.6,4.66-3.6h6v-1.65a3,3,0,0,1-2.51,1.11c-3.52,0-3.25-3.77-3.75-6.19-.12-.6-.33-.92-1-.92s-1.12.95-1.12,1.69a1.55,1.55,0,0,0,1.35,1.72v3.26a3.32,3.32,0,0,1-2.89-1.66,6.89,6.89,0,0,1-.75-3.37c0-2.21.44-4.37,2.65-4.85H47.92Zm7,0-.36,2.49H51.78l.44-2.49Zm7.29-22.67c.19.79.52,1.44,1.37,1.44s1.22-.67,1.22-1.45c0-1.66-1-2.21-3.19-2.14a10.33,10.33,0,0,1,.59,2.15M56.79,159a2,2,0,0,0-2.22,1.75L54.29,163h4l.2-2.29c.08-1-.36-1.75-1.73-1.75m1.69-25.34c0,1.49,1.16,1.64,2.91,1.64h4.85V132.2H60.33c-1.16,0-1.85.55-1.85,1.45m0,6.27c0,1.26.73,1.79,2.93,1.79h4.83v-3.09h-5.7c-1.27,0-2.05.36-2.05,1.3"/><path class="cls-2" d="M84.39,119.67A10.53,10.53,0,0,1,92,122.58a.58.58,0,0,1,0,.87L89.54,126a.53.53,0,0,1-.78,0,6.4,6.4,0,0,0-4.21-1.59,6.39,6.39,0,0,0,0,12.77,6.57,6.57,0,0,0,4.18-1.51.64.64,0,0,1,.81,0L92,138.28a.64.64,0,0,1,0,.85,10.72,10.72,0,0,1-7.59,3,11.25,11.25,0,1,1,0-22.5"/><path class="cls-2" d="M109.32,137.16a6.24,6.24,0,1,0-6.22-6.2,6.24,6.24,0,0,0,6.22,6.2m0-17.49A11.25,11.25,0,1,1,98.11,131a11.23,11.23,0,0,1,11.21-11.29"/><path class="cls-2" d="M130.55,120.18a.6.6,0,0,1,.56-.51h.5a.74.74,0,0,1,.54.32l7.23,13.49h.07L146.69,120a.7.7,0,0,1,.53-.32h.51a.6.6,0,0,1,.56.51l3.53,21a.57.57,0,0,1-.6.69h-3.68a.65.65,0,0,1-.59-.49l-1.4-9.66h-.06l-5.24,10.12a.72.72,0,0,1-.53.34h-.57a.67.67,0,0,1-.53-.34l-5.27-10.12h-.06l-1.38,9.66a.6.6,0,0,1-.59.49h-3.68a.57.57,0,0,1-.59-.69Z"/><path class="cls-2" d="M159.88,120.58a.59.59,0,0,1,.59-.59h12.92a.59.59,0,0,1,.6.59V124a.58.58,0,0,1-.6.57h-8.64v3.89h7.12a.61.61,0,0,1,.59.57v3.42a.58.58,0,0,1-.59.57h-7.12v4.22h8.64a.6.6,0,0,1,.6.59v3.4a.59.59,0,0,1-.6.6H160.47a.58.58,0,0,1-.59-.6Z"/><path class="cls-2" d="M190.11,137.23a6.33,6.33,0,0,0,0-12.65h-3v12.65Zm-7.87-16.65a.57.57,0,0,1,.56-.57h7.62a10.92,10.92,0,1,1,0,21.84H182.8a.58.58,0,0,1-.56-.6Z"/><path class="cls-2" d="M212.85,131.32l-6.9-10.41a.58.58,0,0,1,.5-.91h4.06a.61.61,0,0,1,.5.27l4.35,6.4,4.34-6.4a.57.57,0,0,1,.5-.27h4.06a.58.58,0,0,1,.5.91l-7,10.39v9.95a.61.61,0,0,1-.59.6h-3.71a.59.59,0,0,1-.59-.6Z"/><path class="cls-2" d="M214.3,168.21a9.86,9.86,0,0,1-7.07-2.71.55.55,0,0,1,0-.81l2.27-2.36a.49.49,0,0,1,.73,0,6,6,0,0,0,3.94,1.47,6,6,0,0,0,0-11.92,6.15,6.15,0,0,0-3.91,1.4.57.57,0,0,1-.76,0l-2.27-2.41a.59.59,0,0,1,0-.79,10,10,0,0,1,7.09-2.84,10.51,10.51,0,1,1,0,21"/><path class="cls-2" d="M199.91,167.37a.55.55,0,0,1-.55.55H187.28a.56.56,0,0,1-.56-.55v-3.19a.55.55,0,0,1,.56-.55h8.08V160H188.7a.56.56,0,0,1-.55-.54v-3.19a.55.55,0,0,1,.55-.55h6.66v-3.95h-8.08a.55.55,0,0,1-.56-.55V148a.55.55,0,0,1,.56-.55h12.08a.54.54,0,0,1,.55.55Z"/><path class="cls-2" d="M179,167.68a.54.54,0,0,1-.55.52h-.74L166.11,157h0v10.36a.56.56,0,0,1-.56.55H162a.57.57,0,0,1-.55-.55V147.72a.56.56,0,0,1,.55-.54h.47a1.06,1.06,0,0,1,.38.15l11.53,11.6h0V148a.54.54,0,0,1,.55-.55h3.48a.57.57,0,0,1,.56.55Z"/><path class="cls-2" d="M150,163.63h4.17a.55.55,0,0,1,.56.55v3.19a.56.56,0,0,1-.56.55h-13a.55.55,0,0,1-.55-.55v-3.19a.54.54,0,0,1,.55-.55h4.17V148a.56.56,0,0,1,.56-.55h3.5a.56.56,0,0,1,.55.55Z"/><path class="cls-2" d="M125.07,159.18a2.35,2.35,0,0,0-2.22,2.34,2.24,2.24,0,0,0,2.22,2.21h4.32v-4.55Zm8.89,8.19a.55.55,0,0,1-.55.55h-8.73a6.24,6.24,0,0,1-2-12.17l-4-7.41a.55.55,0,0,1,.5-.84H123a.53.53,0,0,1,.47.25l3.88,7.74h2V148a.56.56,0,0,1,.55-.55h3.48a.54.54,0,0,1,.55.55Z"/><path class="cls-2" d="M101.25,154.48l2.22,4.82h0l2.19-4.82Zm12-6.24-9.13,19.64a.62.62,0,0,1-.5.32h-.29a.61.61,0,0,1-.5-.32l-9.13-19.64a.51.51,0,0,1,.5-.75h3.24c.52,0,.76.16,1,.72l1.06,2.29h7.93l1.06-2.32a1.06,1.06,0,0,1,1-.69h3.21a.51.51,0,0,1,.5.75"/><path class="cls-2" d="M87.5,167.37a.55.55,0,0,1-.55.55H83.47a.57.57,0,0,1-.55-.55v-15.6H76a.54.54,0,0,1-.55-.55V148a.54.54,0,0,1,.55-.55h11a.54.54,0,0,1,.55.55Z"/><path class="cls-2" d="M239,115.51a6.42,6.42,0,0,0-4.6-1.94,6.56,6.56,0,0,0-5.67,3.37l-.06.11,1,.59.06-.12a5.4,5.4,0,1,1,0,5.21l-.06-.11-1,.55.06.11a6.48,6.48,0,0,0,5.7,3.44,6.58,6.58,0,0,0,4.6-11.21"/><path class="cls-2" d="M234.43,118a2.14,2.14,0,0,1,1.88,1.1l0,.06,1-.55,0-.06a3.27,3.27,0,0,0-2.9-1.71,3.33,3.33,0,1,0,2.92,4.91l0-.06-1-.55,0,.06a2.14,2.14,0,0,1-4-1,2.15,2.15,0,0,1,2.13-2.15"/></g></g></g></g></svg>