<svg xmlns="http://www.w3.org/2000/svg" viewBox="0 0 283.46 283.46"><defs><style>.cls-1{fill:#fdc600;}.cls-2{fill:#fff;fill-rule:evenodd;}</style></defs><g id="Layer_2" data-name="Layer 2"><g id="Prima"><g id="primacomedycentral"><rect width="283.46" height="283.46"/><g id="logo"><path class="cls-1" d="M50,144.69l-7.52,33.18h33v-4.55h-22l1.41-8.91c.52-3.18,2.72-6.06,7.53-6.06,5.06,0,6.91,2.32,6.71,6.06l-.2,3.88h6.57V157.43H59.21l.55-4h2.88v-.07a3.11,3.11,0,0,1-2.43-3.69c0-.29.1-.8.1-.8h4.61l-.1,1.07c-.13,1.34.13,3.35,3.22,3.35h7.5v-5.1H60.64l.48-3.51H75.54v-1.39H61.12v-4.49h2.07v-.06a4.89,4.89,0,0,1-2.5-4.24,4,4,0,0,1,2.42-4.11,5.37,5.37,0,0,1-2.42-4.61c0-4.72,3.62-5,6.48-5h8.37v-2.29A4.23,4.23,0,0,1,72,120c-4.89,0-4.52-5.26-5.21-8.62-.18-.84-.46-1.29-1.39-1.29-1.13,0-1.56,1.32-1.56,2.35a2.16,2.16,0,0,0,1.88,2.4v4.55a4.64,4.64,0,0,1-4-2.32,9.49,9.49,0,0,1-1-4.7c0-3.08.6-6.09,3.68-6.75H50Zm9.75,0-.51,3.46H55.41l.61-3.46Zm10.14-31.57c.27,1.09.73,2,1.91,2s1.71-.94,1.71-2c0-2.31-1.33-3.08-4.44-3a14.42,14.42,0,0,1,.82,3m-7.54,49.55c-2,0-2.9,1-3.09,2.44l-.39,3.18h5.62l.27-3.18c.12-1.41-.5-2.44-2.41-2.44m2.36-35.28c0,2.07,1.61,2.28,4,2.28h6.75v-4.3H67.32c-1.62,0-2.57.77-2.57,2m0,8.74c0,1.76,1,2.49,4.07,2.49h6.72v-4.3H67.61c-1.77,0-2.86.5-2.86,1.81"/><g id="comedycentral"><path class="cls-2" d="M208.11,145.15l-9.32,32.28h6.72l1-4.11h8.67l.87,4.11h6.83l-9.43-32.28Zm2.71,8.77a10.64,10.64,0,0,0,.27,2l.49,2.39,2.17,9.42h-6l2.27-9.42.49-2.39a10.53,10.53,0,0,0,.27-2Z"/><path class="cls-2" d="M177,145v32.39h6.5V167.14h2.82l4.33,10.29h6.4l-4.56-11.59a10.45,10.45,0,0,0,3.36-3.85,11.61,11.61,0,0,0,1.3-5.58v-.76a10.84,10.84,0,0,0-2.76-7.58,9.17,9.17,0,0,0-7.1-3Zm6.5,6.06h3.14a4.07,4.07,0,0,1,2.93,1.14,4.68,4.68,0,0,1,1.19,3.52V156a5.37,5.37,0,0,1-1.19,3.9,4,4,0,0,1-2.93,1.19h-3.14Z"/><path class="cls-2" d="M194.36,106v32.4h10.4a10.81,10.81,0,0,0,4.6-1,9.69,9.69,0,0,0,3.53-2.71,12.7,12.7,0,0,0,2.22-4.38,19.42,19.42,0,0,0,.81-5.69v-5.85a15.65,15.65,0,0,0-.81-5.09,13.11,13.11,0,0,0-2.22-4.12,9.25,9.25,0,0,0-3.53-2.66,11.45,11.45,0,0,0-4.6-.92Zm6.5,6.07H204a5.79,5.79,0,0,1,2.38.43,4.14,4.14,0,0,1,1.63,1.3,5.87,5.87,0,0,1,1.08,2.28,11.9,11.9,0,0,1,.33,2.92v5.2a17.69,17.69,0,0,1-.33,3.63,6.89,6.89,0,0,1-1.08,2.66,5,5,0,0,1-1.63,1.41,4.81,4.81,0,0,1-2.38.54h-3.14Z"/><path class="cls-2" d="M121,105.6a12,12,0,0,0-4,.59,13.24,13.24,0,0,0-3.09,1.58,12.59,12.59,0,0,0-3.25,4.87,21,21,0,0,0-1.19,7.59v3.9a22.3,22.3,0,0,0,1.19,7.8,9.9,9.9,0,0,0,6.34,6.44,11.76,11.76,0,0,0,4,.6,11,11,0,0,0,3.74-.6,10.79,10.79,0,0,0,3.09-1.68,9.64,9.64,0,0,0,3.25-4.76,23.9,23.9,0,0,0,1.08-7.7v-4a22.86,22.86,0,0,0-1.08-7.59,11.05,11.05,0,0,0-3.25-4.87,13.24,13.24,0,0,0-3.09-1.58A11.29,11.29,0,0,0,121,105.6Zm0,6.07a4.35,4.35,0,0,1,1.74.32,3.45,3.45,0,0,1,1.3,1,6.3,6.3,0,0,1,1.19,2.65,21.27,21.27,0,0,1,.43,4.82v3.69a20.45,20.45,0,0,1-.43,4.76,6.24,6.24,0,0,1-1.19,2.6,3.39,3.39,0,0,1-1.36,1.14A3.82,3.82,0,0,1,121,133a4.71,4.71,0,0,1-2-.38,3.4,3.4,0,0,1-1.41-1.14,6.24,6.24,0,0,1-1.19-2.6,20.45,20.45,0,0,1-.43-4.76v-3.69a21.27,21.27,0,0,1,.43-4.82,6.3,6.3,0,0,1,1.19-2.65,3.39,3.39,0,0,1,1.41-1,5.47,5.47,0,0,1,2-.32Z"/><path class="cls-2" d="M225,145v32.39h15.92v-6h-9.42V145Z"/><path class="cls-2" d="M161.09,151.1v26.33h6.4V151.1h6.06V145H155v6.06Z"/><path class="cls-2" d="M131.41,145v32.39h5.84V158.69L146,177.43h5.74V145h-6v19L137,145Z"/><path class="cls-2" d="M110.17,145v32.39h16.47v-6h-10V164h8.45v-6.07h-8.45V151.1h10V145Z"/><path class="cls-2" d="M93.26,152.08a2.68,2.68,0,0,1,1.36-1,5.65,5.65,0,0,1,1.79-.27,5.48,5.48,0,0,1,2.54.65,4.62,4.62,0,0,1,2,2.6l5.75-2.38a10.56,10.56,0,0,0-4.17-5.42,11.28,11.28,0,0,0-6.12-1.73,11,11,0,0,0-3.85.65,10.28,10.28,0,0,0-3.09,1.73,11.09,11.09,0,0,0-3.19,4.77,21.73,21.73,0,0,0-1.14,7.58v4a22.08,22.08,0,0,0,1.14,7.69,11.21,11.21,0,0,0,3.19,4.77,8.76,8.76,0,0,0,3.09,1.62,12.89,12.89,0,0,0,3.85.55,11.41,11.41,0,0,0,6.23-1.68,10.64,10.64,0,0,0,4.06-5l-5.75-2.6a4.74,4.74,0,0,1-1.94,2.6,5.42,5.42,0,0,1-2.6.65,5.65,5.65,0,0,1-1.79-.27,2.68,2.68,0,0,1-1.36-1A5.46,5.46,0,0,1,92.07,168a21.27,21.27,0,0,1-.43-4.82v-3.58a21.81,21.81,0,0,1,.43-5,5.45,5.45,0,0,1,1.19-2.49Z"/><path class="cls-2" d="M148.53,138.43h5.31l4.76-17.66,2.06,17.66h6L162.94,106h-6.07l-5.63,20.37L145.6,106h-6.17l-3.8,32.4h6.07l2-17.66Z"/><path class="cls-2" d="M171.71,106v32.4h17.12v-6H178.11V125h9.42v-6.17h-9.42V112.1h10.72V106Z"/><path class="cls-2" d="M225,122.83v15.6h6.5v-15.6l9.1-16.8h-7l-5.42,10.19L223,106h-7Z"/><path class="cls-2" d="M93.26,113a3.35,3.35,0,0,1,1.36-1,4.71,4.71,0,0,1,1.79-.32,5.1,5.1,0,0,1,2.54.7,5,5,0,0,1,2,2.76l5.75-2.6a10.08,10.08,0,0,0-4.17-5.31,11.92,11.92,0,0,0-6.12-1.62,12.28,12.28,0,0,0-3.85.59,11,11,0,0,0-3.09,1.58,12,12,0,0,0-3.19,4.87,21.75,21.75,0,0,0-1.14,7.59v3.9a23.11,23.11,0,0,0,1.14,7.8,10.32,10.32,0,0,0,3.19,4.76,9.21,9.21,0,0,0,3.09,1.68,12,12,0,0,0,3.85.6,11.41,11.41,0,0,0,6.23-1.68,10.62,10.62,0,0,0,4.06-5.15L101,129.65a5.32,5.32,0,0,1-1.94,2.6,4.75,4.75,0,0,1-2.6.76,4.22,4.22,0,0,1-1.79-.38,3.39,3.39,0,0,1-1.36-1.14,6.24,6.24,0,0,1-1.19-2.6,20.45,20.45,0,0,1-.43-4.76v-3.69a21.27,21.27,0,0,1,.43-4.82A6.3,6.3,0,0,1,93.26,113Z"/></g></g></g></g></g></svg>