<svg xmlns="http://www.w3.org/2000/svg" viewBox="0 0 283.46 283.46"><defs><style>.cls-1{fill:#ba4361;}.cls-2{fill:#fff;}</style></defs><g id="Layer_2" data-name="Layer 2"><g id="Prima"><g id="primashow"><rect class="cls-1" width="283.46" height="283.46"/><g id="logo"><path id="Path" class="cls-2" d="M64.48,128.29H59c-1.09,0-1.7.49-1.7,1.34,0,1.4,1.1,1.52,2.68,1.52h4.5Z"/><path id="Path-2" data-name="Path" class="cls-2" d="M62.05,121.48c.79,0,1.15-.61,1.15-1.34,0-1.52-.91-2.07-2.92-2a7.67,7.67,0,0,1,.55,2C61,120.87,61.26,121.48,62.05,121.48Z"/><path id="Path-3" data-name="Path" class="cls-2" d="M57.3,135.47c0,1.15.67,1.64,2.74,1.64h4.44v-2.86H59.19C58,134.25,57.3,134.62,57.3,135.47Z"/><path id="Shape" class="cls-2" d="M49.82,160.22l1-5.9a4.62,4.62,0,0,1,5-4c3.35,0,4.62,1.52,4.44,4l-.12,2.56h4.38V149.7H53.65L54,147H55.9V147a2.1,2.1,0,0,1-1.64-2.49,4.92,4.92,0,0,1,.06-.55h3l-.06.73c-.06.91.06,2.25,2.13,2.25h5v-3.4H54.56l.31-2.32h9.61v-.91H54.93v-3h1.4v-.06a3.23,3.23,0,0,1-1.64-2.86,2.71,2.71,0,0,1,1.64-2.74,3.71,3.71,0,0,1-1.64-3.1c0-3.16,2.43-3.34,4.31-3.34h5.6v-1.52a2.91,2.91,0,0,1-2.31,1c-3.29,0-3-3.47-3.47-5.72-.12-.55-.3-.85-.91-.85s-1,.91-1,1.58a1.49,1.49,0,0,0,1.27,1.64v3.05a3,3,0,0,1-2.67-1.52,6.55,6.55,0,0,1-.67-3.17c0-2.07.42-4.07,2.43-4.5H47.51v26l-5,22h22v-3.05Zm1.7-19H54l-.31,2.32H51.1Z"/><path id="Path-4" data-name="Path" class="cls-2" d="M53.71,154.81l-.3,2.07h3.77l.18-2.13c.06-1-.3-1.64-1.58-1.64A1.88,1.88,0,0,0,53.71,154.81Z"/><path id="Path-5" data-name="Path" class="cls-2" d="M100.73,135.71l-2.61-1.52c-3.23-1.89-4.5-4.08-3.53-7,.61-1.88,2-3,6.26-3a47,47,0,0,1,8.89,1.1l2.49-7.79a42.82,42.82,0,0,0-12.47-2c-8.46,0-13.93,2.86-15.57,11.32-1.64,8.7,3.22,12.41,7.48,14.84l3,1.83c3.71,2.19,3.71,5.23,3.1,7.3s-2.19,3.58-7.11,3.58A31.17,31.17,0,0,1,80.17,152l-3,7.91a37,37,0,0,0,15.63,3.22c9.25,0,14.06-3.22,15.76-12C110,142.58,105.42,138.39,100.73,135.71Z"/><path id="Path-6" data-name="Path" class="cls-2" d="M240.28,130.48A4.17,4.17,0,0,1,238,131a4.06,4.06,0,0,1-4-2.07h-9.19c.31,18.25-4.19,25.61-7.36,25.61-2.67,0-3.28-2.44-.67-15.64l2-10H208.58l-1.94,9.79c-2.62,13-4.93,15.82-7.67,15.82-3.46,0-3.53-7.36,3.47-25.61H191.79a90.35,90.35,0,0,0-5,16,22.45,22.45,0,0,0-6.76-14.42,14.69,14.69,0,0,1,1.59,3.59,17.68,17.68,0,0,1-3.71,17.09,16.69,16.69,0,0,1-6.76,4.5c-2.92,1-6.32,1.34-9.18-.12a.83.83,0,0,1,.18.24,14,14,0,0,0,7.67,5,13.36,13.36,0,0,0,8.57-.79,14.62,14.62,0,0,0,7.79-8.76c-.12,8.34,3.89,12.05,10.58,12.05,4.69,0,8.46-1.59,11.07-6,1.34,3.78,3.84,6,8.64,6,10.34,0,18.25-9.31,18.13-26.22a7.12,7.12,0,0,0,3.22.67c2.5,0,3.1-.67,3.1-.67Z"/><path id="Path-7" data-name="Path" class="cls-2" d="M161.68,159a17.65,17.65,0,0,1-4.31-7.06c-1-3-1.28-6.63.12-9.61a.77.77,0,0,1-.25.18,14.89,14.89,0,0,0-4.07,16.91A14.15,14.15,0,0,0,166,168.25a20.68,20.68,0,0,0,15.45-7.11,19.65,19.65,0,0,1-3.4,1.64A15.78,15.78,0,0,1,161.68,159Z"/><path id="Path-8" data-name="Path" class="cls-2" d="M154.2,142a16.73,16.73,0,0,1,6.75-4.5c2.92-1,6.33-1.34,9.19.12a.77.77,0,0,1-.18-.25,14.07,14.07,0,0,0-7.67-5,13.35,13.35,0,0,0-8.57.79,14.68,14.68,0,0,0-8.52,13.38,21.75,21.75,0,0,0,.73,5.66c-2.68,1.64-4,2.12-5.17,2.12-1.89,0-1.83-1.58-1.4-3.77l2.55-12.71c1.34-6.81-1.94-9.61-7.23-9.61s-7.91,1.88-9.13,2.86h-.12s.79-3.47,1.58-7.61l1.4-7.54H117.7l-8.88,46.48h10.71l4.62-23.91a9.55,9.55,0,0,1,4.87-1.64c1.76,0,2.31.91,1.88,3.28l-2.55,13.14c-1.83,9,3.28,9.55,6,9.55,5.9,0,10.1-2.49,13.75-5.29a20.44,20.44,0,0,0,4,5.17,14.84,14.84,0,0,1-1.58-3.59A17.56,17.56,0,0,1,154.2,142Z"/><path id="Path-9" data-name="Path" class="cls-2" d="M170.44,134.19a17.56,17.56,0,0,1,4.32,7.06c1,3,1.28,6.63-.12,9.61a1,1,0,0,1,.24-.19A14.87,14.87,0,0,0,179,133.76a14.16,14.16,0,0,0-12.84-8.88A20.72,20.72,0,0,0,150.67,132a19,19,0,0,1,3.41-1.64A15.88,15.88,0,0,1,170.44,134.19Z"/></g></g></g></g></svg>