<svg xmlns="http://www.w3.org/2000/svg" viewBox="0 0 283.46 283.46"><defs><style>.cls-1{fill:#d91e25;}.cls-2{fill:#fff;}</style></defs><title>primamax</title><g id="Layer_2" data-name="Layer 2"><g id="Prima"><g id="primamax"><rect class="cls-1" width="283.46" height="283.46"/><g id="logo"><path class="cls-2" d="M47.39,137l-4.87,21.52H63.94v-3H49.65l.92-5.77c.33-2.07,1.76-3.93,4.89-3.93s4.47,1.49,4.34,3.93l-.13,2.51h4.27v-7H53.35l.35-2.64h1.86v0a2,2,0,0,1-1.59-2.4l.08-.53h3l-.06.69c-.08.88.08,2.19,2.09,2.19h4.86v-3.32H54.27l.31-2.26h9.35v-.9H54.58v-2.91h1.33v0a3.19,3.19,0,0,1-1.62-2.76,2.6,2.6,0,0,1,1.58-2.66,3.49,3.49,0,0,1-1.58-3c0-3.06,2.35-3.25,4.21-3.25h5.43V120a2.74,2.74,0,0,1-2.27,1c-3.18,0-2.93-3.4-3.39-5.57-.11-.54-.3-.84-.9-.84s-1,.86-1,1.51a1.41,1.41,0,0,0,1.22,1.57v2.94A3,3,0,0,1,55,119.11,6.26,6.26,0,0,1,54.3,116c0-2,.39-3.95,2.38-4.39H47.39Zm6.33,0-.33,2.25H50.87l.41-2.25Zm6.57-20.47c.17.7.47,1.3,1.24,1.3s1.11-.61,1.11-1.31c0-1.51-.86-2-2.88-1.94a8.9,8.9,0,0,1,.53,1.95M55.4,148.68a1.76,1.76,0,0,0-2,1.59l-.27,2.06H56.8l.18-2.06c.07-.92-.33-1.59-1.57-1.59m1.52-22.89c0,1.36,1.06,1.49,2.63,1.49h4.38v-2.8H58.6c-1.05,0-1.68.5-1.68,1.31m0,5.69c0,1.13.66,1.6,2.66,1.6h4.35V130.3H58.79c-1.14,0-1.86.32-1.86,1.19"/><path class="cls-2" d="M118.52,111.66l-13,23L92.68,112l-.19-.35H82.17v46.91H91v-31.4l11.08,19.47h6.38L120,127.17v31.4h9V111.66Z"/><path class="cls-2" d="M240.94,111.68h-6.44l-17,17-17-17H194v6.06L211.23,135,194,152.19v6.35h6.25l17.27-17.29,17.3,17.29h6.13V152.2L223.77,135l17.18-17.19Z"/><path class="cls-2" d="M149.59,149.68,162,128.33l12.36,21.35ZM162,110.58l-27.84,48H189.8Z"/><path class="cls-2" d="M157.51,172.88h8.87V164h-8.87Z"/></g></g></g></g></svg>