<svg xmlns="http://www.w3.org/2000/svg" viewBox="0 0 283.46 283.46"><defs><style>.cls-1{fill:#ee7219;}.cls-2{fill:#fff;}</style></defs><title>primaplus</title><g id="Layer_2" data-name="Layer 2"><g id="Prima"><g id="primaplus"><rect class="cls-1" width="283.46" height="283.46"/><g id="logo-2" data-name="logo"><path class="cls-2" d="M169.13,155.15c-4.09,0-5.84,2.38-5.84,9.61v15.77h10.14V161.9c0-4.16-1.21-6.75-4.29-6.75m20.56,0c-4.89,0-5.37,3.81-5.37,9.53v15.85h10.14V161.21c0-3.81-1.82-6.06-4.76-6.06m-82.95-5.54c0-4.64-2.44-6.83-5.73-7.24l-7.47-.94v13.23l7.47.64c3.35.29,5.73-1.17,5.73-5.68m116.48,17.74c-2.54.61-4.69,1.69-4.69,4.48s2.22,4,4.76,4c5.43,0,7.24-3.13,7-10.41-1.61,1-4.57,1.22-7.05,1.91M149,143.52l-8.15-1.18v-9.13l8.15,1.46Zm0-22.94L71,102.93v77.61H81.74V128.77l20.9,3.35c7.5,1.2,14.24,6.36,14.24,17.7,0,11.87-5.42,16.21-14.24,15.73l-9.1-.48v15.46H119V142.17l9.55,1.28v6.76h.12c1.39-4.72,4.8-6.26,8.7-5.73l1.87.25v10.84l-2.48-.23c-3.17-.3-7.92.29-7.92,7.57v17.62h12v-35l8.23,1.1v33.91h3.26V146.65H163v4.84h.12a11.6,11.6,0,0,1,10-5.86c4.36,0,7.76,1.44,9.64,5.73,2.75-3.74,6.17-5.73,10.86-5.73,11.07,0,11.79,8.52,11.79,15.26v19.66h5.4a9.9,9.9,0,0,1-3.63-8.22c0-11.51,12.33-10.61,20.24-12.25,1.94-.41,3-1.1,3-3.27,0-2.66-3.15-3.68-5.5-3.68-3.15,0-5.16,1.43-5.7,4.42H208.54a10.91,10.91,0,0,1,5.43-9.46A22.8,22.8,0,0,1,225,145.62c7.28,0,14.34,1.44,15.91,8.65V120.58Z"/><path class="cls-2" d="M43,180.52v-9.95c0-3.9,1.79-7.57,6.75-7.57,5.2,0,7.23,3,7.23,7.57v4.49h7v5.46Zm9.75-5.46v-3.67c0-1.73-.7-2.93-2.61-2.93s-2.76,1.26-2.76,2.93v3.67Z"/><path class="cls-2" d="M43,159.68v-5.46H59.22v-9.77h4.69v15.23Z"/><path class="cls-2" d="M55.26,124.37c6.07,0,9.1,2.79,9.1,9.13s-3,9.12-9.1,9.12H43v-5.46H55.58c2.7,0,4.08-1,4.08-3.66s-1.38-3.67-4.08-3.67H43v-5.46Z"/><path class="cls-2" d="M56.87,115.69c2.47-.12,3.26-1.61,3.26-4,0-1.64-.59-3.35-2.14-3.35-1.88,0-2.2,3-3.06,6s-2.17,6.13-6,6.13c-4.58,0-6.36-4.61-6.36-8.54,0-4.13,2-8.39,6.75-8.39v5.46c-1.88-.09-2.53,1.73-2.53,3.37,0,1.17.41,2.64,1.8,2.64,1.64,0,1.9-3,2.76-6.07s2.26-6.07,6-6.07c5.31,0,7,4.52,7,9.12,0,4.79-2.11,9.1-7.49,9.1Z"/></g></g></g></g></svg>