<svg xmlns="http://www.w3.org/2000/svg" viewBox="0 0 283.46 283.46"><defs><style>.cls-1{fill:#00135d;}.cls-2{fill:#fff;fill-rule:evenodd;}</style></defs><title>proglas</title><g id="Layer_2" data-name="Layer 2"><g id="Picons"><g id="proglas"><rect class="cls-1" width="283.46" height="283.46"/><g id="logo"><g id="g6355"><path id="path6357" class="cls-2" d="M223.38,168.11v-6l.31.16c3.06.95,6.14,2.16,9.07,3.25l-4.28,4.78a48.21,48.21,0,0,1-4.53-2l-.57-.23m0-18.18v-5.45c.41-.22.86-.45,1.33-.74,1.92-1.09,3.89-2.11,5.68-3.18a7.88,7.88,0,0,1,6.13-.58,6.17,6.17,0,0,1,4.22,4.85c.51,1.85,0,4-1.08,6.77-.45,1.07-1,2.3-1.6,3.39a13.5,13.5,0,0,1-2.1,3.44L231.28,157a28.71,28.71,0,0,0,2.57-3.19,15.25,15.25,0,0,0,1.6-2.43,7,7,0,0,0,.51-4.09,2.31,2.31,0,0,0-1.48-1.65c-1.15-.51-2.67-.26-4.65.95-1.93,1-4,2.24-6,3.19a4.14,4.14,0,0,1-.43.2m0-5.45v5.45a7.31,7.31,0,0,1-5.82.25,5.13,5.13,0,0,1-3.52-5c-.25-2,.39-4.52,1.48-7.32a44.8,44.8,0,0,1,2.3-4.67l4.53,1.47a15.09,15.09,0,0,0-3.39,4.79,4.89,4.89,0,0,0-.25,3.76,2,2,0,0,0,1.46,1.71c.74.39,1.83.2,3.21-.46m0,17.63v6c-.85-.34-2.27-.92-4.22-1.64l-7.11,7.86c.39.65.78,1.8,1.6,3.64,1.09,2.69,2,4.79,2.49,6.08l-4.2,4.53c-.31-.89-.74-1.93-1.29-3.17V169.23l4.48-4.92-4.48-1.89v-5.59c1.37.59,2.73,1.15,4.09,1.72,2,.87,5,1.93,8.64,3.56m-12.73-39.59v-5.63a10.81,10.81,0,0,0,4.42-4,8,8,0,0,0,2-6.06,8.77,8.77,0,0,0-4-6.66,13.53,13.53,0,0,0-2.38-1.24V94.28a22.94,22.94,0,0,1,4.79,2.7c4,2.69,6.4,6,6.83,9.58a11.66,11.66,0,0,1-2.29,9.65c-2.42,3.59-5.36,5.63-9.07,6.27a1.17,1.17,0,0,0-.26,0m0-28.24v4.65a9.06,9.06,0,0,0-3.69-.7V93.29a15.11,15.11,0,0,1,3.69,1m0,22.61v5.63a11.49,11.49,0,0,1-3.69-.14v-4.76a11.14,11.14,0,0,0,2.35-.2,6.8,6.8,0,0,0,1.34-.53m0,39.94v5.59L207,160.86V155.2c1.24.56,2.47,1.09,3.69,1.63m0,12.4-.5.57L207,162.32V176.2l1.2,3.31c1,2.4,1.81,4.32,2.49,5.9ZM207,190.74v-4.63l1.71,3.76Zm0-51.85v-2l.75.82-.75,1.15m0-45.6v4.94a7.16,7.16,0,0,0-1.54.23,5.55,5.55,0,0,0-.61.1V93.15a13.16,13.16,0,0,1,2.15.14m0,24.33v4.76a14.06,14.06,0,0,1-2.15-.6v-4.53a9.22,9.22,0,0,0,2.15.37m0,19.3v2c-.73,1.07-1.43,2.1-2.15,3.07v-7.29c.72.72,1.42,1.48,2.15,2.25m0,18.28v5.66l-.78-.33.78,1.79V176.2c-1-2.68-1.72-4.65-2.15-5.8V155.9l1.05-1.19c.37.18.73.34,1.1.49m0,30.91v4.63l-2.15,1.07V187l.16-.08a5.27,5.27,0,0,1,1.85-1.09Zm-2.15-93v5.41a10.3,10.3,0,0,0-5.91,4.16,8.34,8.34,0,0,0-1.66,6.78,9.27,9.27,0,0,0,4.15,6.07,12,12,0,0,0,3.42,1.68v4.53a25,25,0,0,1-5.91-3.19,24.22,24.22,0,0,1-4.42-3.91V98.89a13.88,13.88,0,0,1,9.34-5.68l1-.06m0,41.52V142a93.05,93.05,0,0,1-10.33,12.21v-10.4a56.38,56.38,0,0,0,3.07-4.8c-1-1.17-2-2.28-3.07-3.31V125.54a89,89,0,0,1,10.33,9.13m0,21.23v14.5c-.09-.23-.15-.43-.23-.6-1-2.43-2.16-5.88-3.64-9.58Zm0,31.11v4.8l-10.33,5.24v-7c.31.68.64,1.31,1,1.89l7.09-3.64c.43-.25,1.26-.72,2.27-1.26M194.48,98.89v15.79a12.25,12.25,0,0,1-2.86-5.69,11.41,11.41,0,0,1,2.29-9.32q.27-.4.57-.78m0,26.65v10.12a58.43,58.43,0,0,0-13.14-10v-8a72.86,72.86,0,0,1,13.14,7.89m0,18.23v10.4a63.34,63.34,0,0,1-13.14,10.08v-7.8a47,47,0,0,0,13.14-12.68m0,46.25v7l-3,1.5c-3-7.48-6.33-15.11-10.14-22.7v-2.7l4.65-2.4c1.15,2.12,2,4.28,3.19,6.91,1,2.43,2.13,5,3.14,7.67.78,1.64,1.48,3.25,2.16,4.69m-13.14,11.33c.37-.14.74-.25,1.09-.37,0,0-.68-4.11-.84-5.37-.09-.66-.17-1.29-.25-1.87Zm0-97.07V81.14l5.55,1.15c-.45,2.43-1.15,5.37-2,8.56s-1.73,6.52-2.55,9.58c-.35,1.34-.66,2.63-.95,3.85m0-23.14v23.14c-.39,1.66-.74,3.2-1,4.52l-6.48-1.46v-.16c.5-2.33,1.26-5.21,2-8.09.84-3.2,1.66-6.51,2.69-9.83.7-3.39,1.4-6.21,1.9-8.32Zm0,36.51v8a53.55,53.55,0,0,0-7.51-3.42v-7.49a62.73,62.73,0,0,1,7.51,2.91m0,38.8v7.8a52.3,52.3,0,0,1-7.51,3.56v-7.55a45.69,45.69,0,0,0,7.51-3.81m0,16.7v2.7c-.37-.72-.72-1.44-1.09-2.16Zm0,20.59v7.61c-1.89.62-4.05,1.3-4.05,1.3-1,.32-2.22.69-3.46,1v-4.33a24.46,24.46,0,0,0,2.59-1l-.92-7-1.67.29v-4l6.48-1.09c.21,1.26.54,3.62,1,7.2m-7.51-13.53V176c1.3-.1,2.64,0,3.73,0l1.09,4.67a29.33,29.33,0,0,0-4.67-.39Zm0-41.51v-8.3a4.15,4.15,0,0,1,0,8.3m0-31.52v.16h0Zm0,7.56v7.49A57.93,57.93,0,0,0,153,118.84v-7.22a66.58,66.58,0,0,1,20.79,3.12m0,15.66v8.3h0a4.15,4.15,0,0,1,0-8.3Zm0,29.86v7.55A57.6,57.6,0,0,1,153,171.53V163.9a56.42,56.42,0,0,0,20.79-3.64m0,15.69v4.26a31.94,31.94,0,0,0-4,.2,14,14,0,0,0-7.75,4.08c-2,2.3-2.74,5.12-2.16,8.63.45,3.07,1.85,5,4.15,6.13,1.59,1,3.79,1.28,6.46.89a15.6,15.6,0,0,0,2.76-.62l.53-.16v4.33c-.9.23-1.81.46-2.75.68-3.38.68-8,.35-10.84-1.09-3.27-1.64-5.35-4.85-6.07-9.39s.13-8.5,2.94-11.63c2.57-2.94,6.32-4.85,11.25-5.69a37.18,37.18,0,0,1,4.53-.5,7.55,7.55,0,0,1,.94-.12m0,11.68-4.13.7.51,3.95,3.62-.62ZM153,104.89v-4.27a8.64,8.64,0,0,0,4.24-2.16c2.1-1.83,3.25-3.21,3.21-7.22,0-3.25-1-5.72-2.33-7.16A7.52,7.52,0,0,0,153,81.8V77.6c4.24.15,7.57,1.46,9.77,3.89a12.69,12.69,0,0,1,3.6,9c-.15,4.31-1,7.44-3.07,10-2.28,2.8-5.71,4.24-10.3,4.5m0-27.29v4.2c-.21,0-.43,0-.66,0l-6.78,0V100.9l4.5,0a17,17,0,0,0,2.94-.26v4.27c-.45,0-.92,0-1.38,0H140.6V77.6H153Zm0,34v7.22a79.27,79.27,0,0,0-18.28,2.47v-7.43A82.77,82.77,0,0,1,153,111.62m0,52.28v7.63a89.72,89.72,0,0,1-18.28-2v-7.61a93.49,93.49,0,0,0,18.28,2m-18.28,42v-4.68a8.9,8.9,0,0,0,6.41-2.25,10.26,10.26,0,0,0,3.17-6.66,8,8,0,0,0-1.29-6.19c-1.32-2.3-3.48-3.64-6.67-4.09a12.73,12.73,0,0,0-1.62-.08V177.7c.78,0,1.58.1,2.38.21,4.71.57,8.29,2.3,10.59,5.38a12.33,12.33,0,0,1,2.35,9.57c-.51,4.34-2,7.5-5,9.85a16.61,16.61,0,0,1-10.28,3.16m0-100.28v-.2l.14.16Zm0-.2v.2l-6.19,1.94c-1.09-1.53-2-2.74-2.74-3.91a47.9,47.9,0,0,1-3.19-4l-3.43,1.13V96l.8-.25-.8-1.09V85.83c1.17,1.62,2.32,3.17,3.48,4.71,1.35,1.91,3.59,4.34,6.08,7.73,1.87,2.37,4,4.86,6,7.12m0,8.49v7.43a111.63,111.63,0,0,0-15.55,5.18v-7.71a114.49,114.49,0,0,1,15.55-4.9m0,48v7.61a151.76,151.76,0,0,1-15.55-4.21v-7.53a150.74,150.74,0,0,0,15.55,4.13m0,15.78v4.22a9.67,9.67,0,0,0-5.86,1.93,10.08,10.08,0,0,0-3.77,7.11,8.37,8.37,0,0,0,1.85,6.69c1.4,2,3.58,3.08,6.46,3.45a10,10,0,0,0,1.32.09v4.68a20.69,20.69,0,0,1-2.45-.16,15.76,15.76,0,0,1-10.63-5.82,11.33,11.33,0,0,1-2.47-5.68V190.7c0-.09,0-.17,0-.27.56-4.53,2.43-8,5.68-10.22a15.55,15.55,0,0,1,9.83-2.51m-15.55,2.8a5.76,5.76,0,0,0,0-2.19Zm-26-15.12a5.68,5.68,0,0,1,2.35,3.47,7.24,7.24,0,0,1-.89,5.48,9.46,9.46,0,0,1-1.46,2.26Zm26-79.55v8.86l-4.88-6.64-1.35,10,6.23-2v4.77l-6.67,2.2c-.06.62-.32,2-.57,3.83-.39,2.86-.78,5.1-.78,6.33l-6.13,2c.51-2,.78-5.43,1.54-9.63.84-5.32,1.4-8.76,1.65-10.1.53-2.69,1-6.19,1.74-10.42l7-2.29c.74,1.09,1.48,2.14,2.2,3.15m0,33v7.71a159.7,159.7,0,0,0-26,13.88v-8.68a185.78,185.78,0,0,1,26-12.91m0,39v7.53c-8.25-2.65-16.89-6-26-9.94v-8a233.7,233.7,0,0,0,26,10.39m0,20.52a6.5,6.5,0,0,0-.72-1.93,12.57,12.57,0,0,0-5.76-3.9l-11.5-4.14c-1.6,4.26-3.2,8.68-5,13-.94,2.36-1.93,4.67-2.94,6.85v6.19l3.32,1.27,8.82-21.28c1.07.26,1.91.39,2.16.45s1,.45,1.85.76a7.37,7.37,0,0,1,3.47,2.12,3.56,3.56,0,0,1,.25,3,4.89,4.89,0,0,1-2.49,2.88,6.82,6.82,0,0,1-5.12,0l-2.1-1.28c.75,6,1,9.51,1.14,10.29a46.29,46.29,0,0,0,.45,6.13l6,2.16L109.09,187a9.45,9.45,0,0,0,6.33-.71,7.46,7.46,0,0,0,3.38-4.34,6.65,6.65,0,0,0,.41-1.44Zm0,12.39v3.51a14.71,14.71,0,0,1,0-3.51m-26-69.46,1,.6,5.49-3.39-6.44-3.79ZM80.79,159,92,164.68a13,13,0,0,1,1.21.7v11.21A7.69,7.69,0,0,1,90,178.75c-2.37.82-5.17.51-8.11-1l-2.24-1.4,1-4,1.74,1.28c2,1,3.44,1.15,4.78.59a5.59,5.59,0,0,0,2.5-2.44c.56-1.28.7-2.37.19-2.93-.19-.78-1.09-1.48-2.3-2.13s-2.31-1.07-3.77-1.71A56,56,0,0,1,80,171.84c-1.21,2.24-2.68,4.79-4.28,7.48-1.4,2.88-2.69,5-3.19,5.87l-5.24-2.68c1.15-2.16,2.55-4.85,4.28-7.53,1.6-2.88,3.2-5.63,5-8.76s3.38-5.3,4.28-7.22m12.46-44.34v6.58c-1.37-.9-2.71-1.83-4.15-2.92-.64-.37-3.58-2.3-8.56-5.69l2-.89c1.85-1,3.06-2.49,3.13-3.95a4,4,0,0,0-.44-3.45,3.33,3.33,0,0,0-2.5-1.73,6.55,6.55,0,0,0-3.83,1.28,12.89,12.89,0,0,1-1.73.9,8.51,8.51,0,0,1-1.85,1.32l11.11,20.26-5.29,3.33c-1.79-3.77-3.84-7.86-6.15-11.89-2.1-4.15-4.46-8.31-6.7-12.14l10.41-6.33c2.69-1.52,4.73-2.1,6.64-2a6.78,6.78,0,0,1,4.42,3.14A8.49,8.49,0,0,1,91,105.86a9.88,9.88,0,0,1-3.45,5.43Zm0,17c-5.71,3.35-11,6.71-15.73,9.77L42.52,123v8.31l29.2,13.84L42.83,161.82v7.92l35.66-20.9c5,2.29,10,4.49,14.76,6.54v-8c-2.07-1-4.09-1.93-6.08-2.9,2-1.39,4-2.77,6.08-4.13Zm0,56.46v6.19l-2.55-1c.83-1.6,1.69-3.37,2.55-5.22"/></g></g></g></g></g></svg>