<svg xmlns="http://www.w3.org/2000/svg" viewBox="0 0 283.46 283.46"><defs><style>.cls-1{fill:#fff;}</style></defs><g id="Layer_2" data-name="Layer 2"><g id="Relax_Rebel_Retro" data-name="Relax &amp; Rebel &amp; Retro"><g id="rebel2"><rect width="283.46" height="283.46"/><path id="logo" class="cls-1" d="M101.61,214.53a2.56,2.56,0,0,0-1.16-.17,4.19,4.19,0,0,1-2.27-.87,24.43,24.43,0,0,0-5.47-2.7,3.75,3.75,0,0,0-1.37.92c-.69.64-1.19.87-1.61.75a18.85,18.85,0,0,0-2.33-.36,3.44,3.44,0,0,0-2.7.43l-1,.62-3.88-1.82-1.06.81a3,3,0,0,1-1.53.72c-.43-.09-1-1-1.92-3-.31-.69-.33-.69-.21-.08.17.91-.08.86-1.24-.23a2.84,2.84,0,0,0-1.9-.9,4.23,4.23,0,0,1-1.61-.35c-.37-.2-.88-.45-1.13-.57-.47-.23-.58-1.58-.19-2.45.17-.38,0-.54-.68-.67-1.14-.23-1.35-.89-.91-3s.41-2-.1-5.88l-.4-3-1.29-.62c-1.44-.69-1.56-1-.68-1.83a1.75,1.75,0,0,0-.2-2.75c-.44-.41-.75-.78-.68-.83s.48-.24.92-.43c.62-.27.88-.68,1.13-1.81.58-2.59.75-4.92.38-5.36s-.23-.51.1-.78a3.76,3.76,0,0,0,.79-1.42,1.66,1.66,0,0,0-.14-1.8,1.56,1.56,0,0,0-.94-.74c-.52,0-.55-.13-.17-.84a14.31,14.31,0,0,0,1.54-3.91A1.91,1.91,0,0,0,66.16,168c-.27,0-.54-.36-.63-.84s-.53-1-1.56-1.51c-1.22-.6-1.83-1.29-1.14-1.29.34,0,.28-2.17-.07-2.71-.23-.36-.31-.33-.48.15s-.26.48-.69-.34a3.25,3.25,0,0,0-2.45-1.65,3.57,3.57,0,0,0-1.35.95c-.53.52-1,.82-1,.68s-.11-.11-.23.07c-.26.4-2.73.1-4.23-.52-.89-.36-1-.34-1.71.3l-.74.69-1.26-.65a4.94,4.94,0,0,0-2.22-.55c-.92.09-1,0-1.77-2a8.74,8.74,0,0,0-1.45-2.63c-.81-.65-1-3.6-.17-3.6.35,0,.39-.13.17-.54a1.14,1.14,0,0,1,0-1.09c.22-.38.21-.65,0-.88a9.16,9.16,0,0,1-.34-3.31c0-2.57.09-3.06.61-3.58.77-.77.75-2.81,0-4.13-.45-.75-.56-1.54-.55-3.79a28.53,28.53,0,0,1,.26-4.12,2.78,2.78,0,0,0,0-1.51,2.93,2.93,0,0,1,0-1.56,25.28,25.28,0,0,0,0-4.68L42.91,120l.92-1c.76-.86.9-1.24.76-2.06-.09-.56,0-1.09.12-1.19A1,1,0,0,0,45,115c0-1.21.75-1.49,3.87-1.47a19.31,19.31,0,0,1,3.89.33,3.21,3.21,0,0,0,2.42-.24,10.52,10.52,0,0,0,1.86-.83.65.65,0,0,1,.62-.12,32.74,32.74,0,0,0,4.33.22,25.72,25.72,0,0,1,4.63.34,8,8,0,0,0,2.27.37,8.65,8.65,0,0,1,3.25.85,24.42,24.42,0,0,0,2.67,1.14c1,.33,1.23.31,1.73-.15a1.68,1.68,0,0,1,1.68-.31,2.34,2.34,0,0,0,1.81-.26c1.32-.87,3.23-1.38,3.87-1a2,2,0,0,0,2.57-.87c.48-.74.54-2.09.68-14.33l.15-13.51L95,85c9.22-.1,10.15.08,12.44,2.29A8.1,8.1,0,0,1,109.9,93a8.48,8.48,0,0,1-4.62,7.29c-.71.31-1.35.59-1.41.64a34.43,34.43,0,0,0,2.43,3.34c2.48,3.2,2.54,3.32,2.69,5.24l.15,2,1.33.23a4.18,4.18,0,0,0,1.59.06c.15-.08.26-6.15.26-13.49V84.92l19,.16v4.25l-13.35.3-.08,3-.09,3,12.61.17v4.55l-12.44.3v6.67l13.35.31.18,4.09h2.7V84.93h7.38c8.67,0,9.51.17,11.4,2.33,2.43,2.76,2.24,7.35-.41,9.56a2.4,2.4,0,0,1-1,.54c-.77,0-.7.63.11.94,3.39,1.27,4.82,6.22,2.9,10a6.62,6.62,0,0,1-1.86,2.33l-1,.69h6.46V84.92l18.95.16v4.25l-13.34.3-.09,3-.09,3,12.61.17v4.55l-12.43.3v6.67l13.34.31.09,1.89.09,1.9h2.39l.08-13.12.08-13.12h5.46l.07,10.77c0,5.92.07,10.94.08,11.14,0,.57,2,.47,2.58-.12.28-.27,2.15-2.66,4.17-5.31,2.21-2.9,3.93-4.88,4.33-5a6.44,6.44,0,0,1,1.69-.07l1,.1.09,2,.09,2-4.07,5.44c-3,4-4,5.49-3.63,5.61a.89.89,0,0,0,.72,0,.72.72,0,0,1,.66.07,4.26,4.26,0,0,0,1.44.31c.58,0,1.72.16,2.52.27,1.14.15,1.58.08,2-.32s1.1-.5,3.85-.43a22.09,22.09,0,0,0,4-.16c.45-.15.79-.11.93.1s.47.25,1.21,0a14.42,14.42,0,0,1,4.53-.13c1.94.13,3.66.22,3.83.21,6.84-.3,10.92-.26,11.51.13.74.49,2.76.59,5.49.28,1.69-.19,1.9-.15,2.77.58a3.72,3.72,0,0,0,1.29.79c.19,0,.49.41.67.92a2.49,2.49,0,0,0,.93,1.24c.6.32.6.34-.18,1.07a2.44,2.44,0,0,0-.8,1.13,2.11,2.11,0,0,0,1.47,1.4c.66,0,.42,2.47-.33,3.27-.61.64-.69,1.06-.72,3.66,0,3.81,0,3.58-1,4-.78.27-.91.46-.83,1.17a1.38,1.38,0,0,0,.78,1.14,1.11,1.11,0,0,1,.68.93,1.54,1.54,0,0,0,.21.85,4.53,4.53,0,0,1,.12,1.8c0,.87-.08,1.89-.07,2.26s0,.89,0,1.14c0,.94,0,3.51.05,4a6.19,6.19,0,0,1-.45,1.88,2.31,2.31,0,0,0,0,2.46c.5,1.11.5,1.13-.4,2.36a6.81,6.81,0,0,0-1.08,2.39,17.08,17.08,0,0,1-1.44,3.57,38,38,0,0,0-1.75,3.85,6.39,6.39,0,0,1-2.3,3c-1.93,1.63-2.29,1.8-2.29,1.06a.82.82,0,0,0-.53-.66,2,2,0,0,1-.68-.37,14.59,14.59,0,0,0-2.59-1.23c-.08,0-.14.17-.14.38,0,.46-1.38,1.14-1.72.85a11.19,11.19,0,0,0-1.55-.77c-1.27-.55-1.3-.55-1.73,0s-.44.55-.48-.18-.07-.66-.36.24c-.21.64-.49,1-.81.92a2.31,2.31,0,0,0-1.18.32,2.55,2.55,0,0,1-1.64.18c-.83-.19-.91-.15-.68.36a2.37,2.37,0,0,1-.43,2.78,1.4,1.4,0,0,0-.64.85c0,.68-1.16,1.63-2,1.63-.42,0-.76.14-.76.3s.41.31.92.31h.93l-.52.89c-.43.72-.46,1-.15,1.35.5.6.76,6.79.31,7.34a11.28,11.28,0,0,0-.87,1.45c-.52,1-.52,1.06.18,2,1,1.31,1.2,2.49.48,3.38a1.57,1.57,0,0,0-.3,1.81,4.77,4.77,0,0,0,.76,1.6,2.87,2.87,0,0,1,.5,1.54A2.27,2.27,0,0,0,215,193l.91.78L216,201c.07,6.56,0,7.18-.39,6.63s-.52-.53-.73-.2-1.84.84-4.84,1.21c-1.48.18-2.07.4-2.5.94l-.57.7-1.54-.67a4.78,4.78,0,0,0-2-.51,2.73,2.73,0,0,1-1.31-.1c-.73-.21-1-.14-1.46.35s-.83.59-2.48.49l-1.93-.13L195,212.31l-2.75,0c-1.51,0-2.95,0-3.2,0l-2-.3a67.26,67.26,0,0,1-8-1.43c-1.23-.35-1.73-.37-2.24-.09s-.93.26-1.86,0c-1.14-.38-1.29-.35-3.1.63l-1.9,1-1.39-.53a3.44,3.44,0,0,0-1.73-.33c-.19.12-.4-.07-.5-.43-.2-.76-.7-.54-.7.31,0,.33.14.52.3.42s.31-.08.31.06-.26.41-.58.6-.89.26-2-.08a10.08,10.08,0,0,0-6.25.19l-1.86.63-1.27-.67a4,4,0,0,1-1.54-1.31,3.8,3.8,0,0,0-1.28-1.24c-.84-.52-1-.76-.89-1.59.11-1.11-.29-1.38-.44-.31-.08.56-.26.67-1,.6s-1.19.18-2.7,1.77c-1.75,1.83-1.8,1.86-3,1.65-.68-.11-2.05-.3-3.05-.42a9.72,9.72,0,0,1-2.79-.73c-1.34-.71-2-.65-2.85.27a7.71,7.71,0,0,1-3.82,2c-.86.16-1,.07-1.58-.8a7.59,7.59,0,0,0-3.72-2.54c-.27,0-1,.46-1.66,1.13a3.18,3.18,0,0,1-2,1.2,3.28,3.28,0,0,0-1.62.65c-.68.54-.87.58-1.1.23a1.79,1.79,0,0,1-.27-.65,6.83,6.83,0,0,0-1.83-1.14c-1.53-.77-1.86-.85-2-.46a.7.7,0,0,1-.54.46c-.51,0-1.4,1.62-1.4,2.55,0,.69-.12.79-1,.79a10.4,10.4,0,0,1-2.72-.61c-2.24-.78-2.86-.76-4.82.15-1.61.75-2.7.95-3.09.56Zm3.76-3.13c.16,0,.28-.21.28-.46a.45.45,0,0,0-.45-.45c-.32,0-.45.29-.42,1,0,.54.09.75.17.46s.27-.53.42-.53ZM79.1,206.56a.34.34,0,0,0-.13-.47c-.17-.1-.31,0-.31.28,0,.54.18.62.44.19Zm71.64-.38c-.09-.24-.16-.17-.18.19s.06.5.16.39a.6.6,0,0,0,0-.58ZM109,203.12a31.85,31.85,0,0,0,.89-3.22,8.81,8.81,0,0,1,1-2.81,31.28,31.28,0,0,1,5.36-.17l5,.07.43,1.52c.23.83.56,2.06.73,2.73.52,2,1,2.57,2.34,2.49l1.15-.07-.12-8.64-.12-8.64-1.94-6.49c-1.07-3.57-1.94-6.61-1.94-6.75a4.52,4.52,0,0,1,2.1-.26c1.61,0,2.13.11,2.24.46s.13.3.09-.07-.34-.53-2.47-.47c-7,.2-6.89.2-7.14.84-.19.47-.25.49-.26.1,0-.58-1.57-.76-5.22-.61-2.1.09-2.34.16-2.47.76-.09.36-.46,1.75-.84,3.08s-.78,3-.92,3.64-.52,2.24-.86,3.49c-2.43,9-2.57,9.71-2.68,14.37a48.31,48.31,0,0,0,0,4.88c.09.22,1.08.37,2.76.4,2.43,0,2.64,0,2.91-.63Zm2.72-10.81c0-.33.75-3.86,1.67-7.85s1.66-7.34,1.66-7.45.21-.19.46-.19a.46.46,0,0,1,.45.46c0,.53,1.34,5.58,2.92,11a18,18,0,0,1,.91,4.17c-.14.36-.92.45-4.12.45-3.71,0-4,0-4-.59Zm.79-16.74c-.27-1.35-.24-1.48.27-1.28.28.1.45.57.45,1.2C113.23,176.78,112.77,176.83,112.51,175.57Zm15.82,24c.07-3.82,0-4.28-.81-6.83l-.88-2.72-.06,13.7,1.67-.06Zm12,4.07c.37-.14.43-.72.33-3.11-.25-6.27-.36-19.46-.17-19.46s.65.74,3.38,5.56c.59,1,1.3,2.21,1.58,2.63s.84,1.34,1.24,2.06l.74,1.31.21-1c.12-.56.28-1.75.37-2.66a8.61,8.61,0,0,1,.43-2.18,6.39,6.39,0,0,0,.29-2.16c0-1.55-.18-1.91-4-8.13-2.19-3.57-4.26-7-4.6-7.56-1-1.8-1.44-2.13-2.62-2.13-.93,0-1.36.27-2.83,1.73s-1.73,1.9-1.73,2.71a1.77,1.77,0,0,1-.31,1.18.33.33,0,0,0-.16.43c.08.13.23,7,.34,15.21.18,13.33.25,15,.69,15.35s5.93.56,6.81.22Zm19.6-12.41c0-6.84-.15-15.1-.25-18.35l-.19-5.91H152.2l0,4.55c0,4,.09,4.54.53,4.5.27,0,.5.08.5.23s-.21.27-.46.27c-.65,0-.68,1.37-.14,7.43.18,2,.36,4,.39,4.37q.16,2.13-2.07-1.56l-1.52-2.51-.07,1.22a27.18,27.18,0,0,1-1.13,6.44,10,10,0,0,0-.58,1.59c-.1.42-.1.58,0,.37.22-.49,1.47,1.44,4.9,7.58a6.9,6.9,0,0,0,1.59,2.17,23.76,23.76,0,0,0,3.12.09l2.68-.05-.06-12.43Zm10,11.6c.17-.54.54-2,.81-3.19.33-1.51.67-2.3,1.06-2.51a25.32,25.32,0,0,1,5.33-.22l4.74.08.68,2.12c.37,1.17.78,2.53.9,3,.31,1.31.71,1.67,1.87,1.67h1l0-6.9c0-3.79.13-6.55.26-6.14a44.06,44.06,0,0,1,.17,5.62c0,2.66,0,5.43.08,6.14l.13,1.28h2.67v-3.26c0-3-.11-3.61-1.39-7.81a38.61,38.61,0,0,0-1.67-4.83,1.69,1.69,0,0,1-.28-1c0-.63-.66-2.95-3.06-10.8l-.91-3h-2.41c-1.94,0-2.41.09-2.41.46s-.14.45-.31.45-.3-.2-.3-.45-.6-.46-3.61-.46a13.06,13.06,0,0,1-3.72-.28,7.59,7.59,0,0,0-2.75-.45c-2.22-.14-2.66-.1-2.66.28s.49.44,2.66.39c3-.06,2.94-.18,2.06,2.79-.59,2-.61,2.05-1.19,4.55-.26,1.09-.75,3.07-1.1,4.4s-.71,2.77-.79,3.18-.48,2-.88,3.49a29,29,0,0,0-.89,7.25,37.54,37.54,0,0,0,0,4.77,8.69,8.69,0,0,0,2.85.26h2.69l.31-1Zm2.47-10.16c0-.13.48-2.34,1.07-4.93s1.34-6,1.68-7.58c.58-2.66,1-3.65,1.31-3.32.07.08.68,2.25,1.35,4.84s1.57,5.89,2,7.35c1.22,4.17,1.48,3.87-3.31,3.87a18.82,18.82,0,0,1-4.09-.23Zm14-3.29c0-.35.08-.42.18-.18a.6.6,0,0,1,0,.58c-.11.1-.18-.08-.16-.4Zm-13-13.76c-.25-1-.23-1.22.12-1.22s.42.34.42,1,.08.88.3.53.3-.3.3-.11a1.11,1.11,0,0,1-.41.69c-.34.28-.48.11-.73-.87Zm40.51,26.15.09-1.9H208.5c-4.55,0-5.53-.08-5.93-.48s-.48-1.83-.52-10.53c0-5.54-.12-12.66-.22-15.83l-.19-5.76-8.09-.17.24,16.61c.13,9.14.2,17.29.16,18.11s.07,1.58.32,1.74,4.69.22,9.95.18l9.55-.08ZM83.14,195.09a59.89,59.89,0,0,1,.33-7.65,17.72,17.72,0,0,1,2.93,3.82c.33.53,1.57,2.38,2.75,4.11l3.08,4.5c2,2.9,2.19,3,4.92,3h2.44l0-5-4.71-6.66c-2.62-3.7-4.65-6.87-4.58-7.13s2.12-3.5,4.56-7.22l4.44-6.75v-3.93h-6L91.1,169.4c-1.17,1.76-2.13,3.26-2.13,3.32s-.85,1.42-1.89,3-2.27,3.5-2.72,4.26-1,1.39-1.14,1.39-.33-1.89-.35-5.23c0-2.88-.13-6.25-.23-7.51l-.19-2.27H74.57l0,3.49c0,1.92,0,8.53.09,14.71.09,14.87.13,13.81-.42,13.6-.37-.14-.45.19-.45,2s.09,2.16.45,2.16.48-.32.5-.84c0-.81,0-.81.17-.07.26,1.57.15,1.54,4.26,1.45l3.87-.09Zm-8.35,4.48c0-.59.06-.82.14-.53a2.37,2.37,0,0,1,0,1.06C74.85,200.39,74.79,200.15,74.79,199.57Zm27.68,3c.1-.16,0-.58-.25-.92-.38-.55-.46-.56-.62-.13-.32.82-.22,1.35.24,1.35a.78.78,0,0,0,.63-.3Zm23.86-16.88c-.28-.79-.31-.74-.31.66s0,1.41.31.86a1.83,1.83,0,0,0,0-1.52ZM149.89,181c.38-2.92.34-7.86-.06-6.81a5.29,5.29,0,0,0-.11,1.95,21.52,21.52,0,0,1-.27,3.94c-.49,3.23-.5,3.42-.16,3.42a6.43,6.43,0,0,0,.6-2.5Zm-23.7-5.3c-.07-.46-.13-.09-.13.83s.06,1.29.13.83A6.59,6.59,0,0,0,126.19,175.69Zm63.61-2.79c.14-.22-1-.31-3.69-.28-4,0-3.43.33,1,.51,1.53.06,2.54,0,2.67-.23Zm-81.2-.21c-.35-.35-5.07-.47-5.07-.13s1,.32,2.63.32a6.82,6.82,0,0,0,2.44-.19Zm19.11,0a1.74,1.74,0,0,0-.91,0c-.2.08,0,.15.54.14s.67-.07.37-.15Zm54.29-.52a15.13,15.13,0,0,0-1.32-4.05c-.41-.64-.63-.68-4.1-.68-3.1,0-3.64.07-3.49.45a.54.54,0,0,1-.12.62c-.16.1-.29-.11-.29-.46,0-.53-.16-.63-.82-.55s-.89.33-1.36,1.91c-.84,2.81-.82,2.84,1.19,2.94,1.82.1,10.18-.05,10.31-.18Zm-61.28-2.08a8.5,8.5,0,0,0-1-2.42,20.13,20.13,0,0,0-3.88-.22c-3,0-3.56.07-3.56.45s-.13.45-.3.45-.22-.19-.13-.43c.21-.54-1-1-1.48-.51a21.37,21.37,0,0,0-1.42,4.66,43.81,43.81,0,0,0,6.17.22h6.19Zm5.84-2.47c0-3-.07-4.75-.27-4.87s-.31,1.37-.31,4.67a22.61,22.61,0,0,0,.26,4.87A20.66,20.66,0,0,0,126.56,167.6Zm9.12-.66a3.26,3.26,0,0,0-1.43-.07c-1.4.09-1.44.12-1.52,1.16-.15,1.89.12,2,1.59.47a11.07,11.07,0,0,0,1.36-1.56Zm47.86.62c-.09-.09-.26.08-.38.38s-.13.47.17.17.3-.45.21-.55Zm-4.32-.67a62.13,62.13,0,0,0,4.07-6.6,9.4,9.4,0,0,0-2.49-.08l-2.49.08-.79,2.58c-1.41,4.55-1.41,4.25.08,4.24a4.47,4.47,0,0,0,1.62-.22Zm-67-.74c-.1-.24-.17-.17-.18.18s.06.5.16.4a.6.6,0,0,0,0-.58Zm54.29-2c-.08-.3-.14-.13-.15.37s.06.74.14.54a1.74,1.74,0,0,0,0-.91Zm-60.68-.31c-.33-.33-.5.13-.27.71s.23.55.33,0a1.07,1.07,0,0,0-.06-.73Zm7.68-.38c0-.3-.11-.25-.28.15-.36.83-.36,1.31,0,.76A1.89,1.89,0,0,0,113.52,163.48Zm60.74.32c.07-.49,0-.83-.12-.74s-.36,1.63-.13,1.63A2,2,0,0,0,174.26,163.8Zm-80.77-1.53c.8-.43-.14-.55-2.39-.3a23,23,0,0,1-4,.08c-1.16-.12-1.74-.06-1.74.16s.65.38,1.44.45a27.74,27.74,0,0,0,6.71-.39Zm79.4-.67a4.41,4.41,0,0,0,1-1.21c0-.5-.9-.23-1.21.36-.54,1-.76.69-.7-1l.05-1.59-.32,1.52a3.63,3.63,0,0,1-.76,1.77c-.33.19-.35.34-.07.68.53.63.9.53,2-.54Zm1.61.06c0-.33-.19-.61-.43-.61s-.37.21-.27.61.28.61.43.61S174.5,162,174.5,161.66Zm-77.73-1.44c-.08-.29-.14,0-.14.68s.07.91.14.53a3.5,3.5,0,0,0,0-1.21Zm131.09.91c0-.72-.05-.76-.32-.3a1,1,0,0,0-.12.83c.31.51.45.34.44-.53Zm-80.05-3.89c0-1.85-.11-2.83-.3-2.71a8,8,0,0,0-.31,2.9c0,1.61.13,2.71.31,2.71S147.81,159,147.81,157.24Zm39.92.45a8,8,0,0,0-.32-2c-.23-.23-.22,2.31,0,3.18.32,1.21.44.73.3-1.16Zm-42.06-.08c-.29-.27-.33-.22-.18.21a4.74,4.74,0,0,1,.24,1.06c0,.28.1.18.18-.21A1.32,1.32,0,0,0,145.67,157.61ZM47,158.18c0-.24-.11-.37-.25-.28a.58.58,0,0,0-.25.44.27.27,0,0,0,.25.29C46.91,158.63,47,158.43,47,158.18ZM67,158c-.09-.24-.16-.17-.18.19s.06.5.16.39a.6.6,0,0,0,0-.58Zm79.86.36a.3.3,0,1,0-.3.31A.3.3,0,0,0,146.9,158.32Zm-49.11-6.74c1,1.73,2.34,2.78,4.87,3.77,1.29.5,2.52.67,5.88.78,5,.16,7.15-.17,9.85-1.52a4.87,4.87,0,0,0,3-2.91l1-1.92v-15c0-12.75-.07-15.07-.45-15.45s-1.22-.42-4.17-.36l-3.72.09v31.13l-1,.92c-1,.89-1.1.91-3.55.81-2.26-.1-2.62-.19-3.34-.91a4.56,4.56,0,0,1-1-2.12c-.14-.73-.28-5.35-.31-10.27s-.13-11.33-.24-14.25l-.19-5.31H96.71l.07.91c0,.5.14,7.39.23,15.32.12,9.84.08,14.26-.13,13.95s-.29.92-.25,4.09l.06,4.55.1-3.94.09-3.94ZM64,155.74A9.11,9.11,0,0,0,69.22,153l1-1.09V142l-.86-1.19c-1.45-2-3.53-3.61-9-6.95s-6.65-4.35-7-6c-.45-2.38,1.23-5,3.29-5.1,4.51-.26,5.44.83,5.49,6.43l0,2.27,8,.17v-1A26.24,26.24,0,0,0,69,123.2a9,9,0,0,0-3-3.19c-1-.64-1.15-.63-1.32,0-.11.41-.15.38-.17-.13,0-.91-2.11-1.32-6.68-1.32-3.6,0-6.13.32-7.69,1l-.84.35.16,14.32,2.12,1.4c1.17.77,3.42,2.12,5,3,2.94,1.64,5.76,4,5.76,4.84a4.19,4.19,0,0,0,.48,1.38c.55,1,.35,4.29-.35,5.65A3.7,3.7,0,0,1,59.21,152c-.48,0-.86.14-.86.3s2.09.33,5.23.39c2.87.05.6.12-5,.16l-10.29.06.58.65c1.94,2.19,10.25,3.4,15.22,2.23Zm79.07.13a19.41,19.41,0,0,0,2.94-.79c1-.38,1.15-.61,1.15-1.32v-.86L128,152.85l.58.65a7.38,7.38,0,0,0,1.65,1.18c.92.47,1.79.7,5,1.33a36.9,36.9,0,0,0,7.89-.14Zm81.2.06a14.65,14.65,0,0,0,5.84-2.25c.54-.41-.35-.46-9.1-.48l-9.7,0,.84.7C214.36,155.66,219.76,156.58,224.31,155.93ZM93,155.39c-.25-.1-.38-.79-.38-1.94v-1.8h-4.5c-3.13,0-4.63-.11-5-.38s-.5-2.31-.67-16.11c-.11-8.65-.27-15.85-.36-16-.27-.45-8-.34-8,.11s0,9.12.18,15.24c.06,3,.14,8.8.16,12.89,0,4.6.17,7.57.37,7.8s2.48.38,9.45.36c5,0,9-.09,8.76-.18Zm68.87-11.24c0-6.22.06-11.3.17-11.3a3.63,3.63,0,0,1,.87,1.29c.37.71,1.48,2.65,2.47,4.32s2.19,3.7,2.65,4.51l.85,1.48.23-1a20.72,20.72,0,0,0,.35-2.55,9.89,9.89,0,0,1,.45-2.37,7.26,7.26,0,0,0,.34-2.23c0-1.23-.36-2-3.08-6.43l-4.73-7.77c-1.9-3.13-2.26-3.49-3.55-3.49-.76,0-1.34.4-2.92,2l-2,2,.09,6.29c0,3.46.15,10.6.22,15.87.09,7.39.21,9.73.53,10.25s.6.66,3.75.58l3.33-.09Zm19.47-6.83c-.12-10-.32-18.38-.45-18.51a15.71,15.71,0,0,0-3.69-.15l-3.46.09v4.55c0,4.11.06,4.54.53,4.5.65,0,.67.18,0,.64s-.63,2.36-.13,7.73c.2,2.08.36,3.86.37,4,.14,1.57-.5,1.1-2-1.52a14.06,14.06,0,0,0-1.53-2.34,13.75,13.75,0,0,0-.25,2.21c-.18,2.77-.51,4.69-.79,4.69-.13,0-.37.56-.54,1.24s-.24,1.16-.15,1.07,1.33,1.64,2.86,4.36c.33.59.93,1.61,1.34,2.28s.94,1.64,1.18,2.17c.55,1.16.79,1.23,4.22,1.28l2.7,0ZM206,154.24a1.51,1.51,0,0,1,.49-1.32c.34-.19.39-.34.16-.49a1,1,0,0,1-.35-.79c0-.55-.31-.59-5.53-.66l-5.54-.09V138.46l10.62-.3L206,137a7.31,7.31,0,0,0-.09-1.89c-.17-.71-.18-.72-5.26-.72-3.56,0-5.2-.1-5.46-.36s-.36-1.59-.36-4.07c0-2.68-.11-3.75-.38-3.86s-.28-.22.05-.45.36-.63.25-1.33a3,3,0,0,1,0-1.39c.15-.24,2-.38,5.82-.43l5.59-.08.09-1.62c.15-2.49.16-2.48-5.74-2.48-4.34,0-5.11.07-5.11.46s-.14.45-.31.45-.3-.2-.3-.45-.67-.46-4.25-.46h-4.24V119c0,.41.17.81.38.89s.3.21,0,.43-.33,1.07-.17,3.58c.11,1.83.21,7.17.22,11.87A67.82,67.82,0,0,0,187,144c.13-.2.24.35.24,1.23,0,1.06.13,1.59.39,1.59s.27.07,0,.26-.36,1-.2,3.87c.11,2,.25,3.77.32,4s2.2.38,9.22.38H206ZM187.24,141a.3.3,0,1,1,.3.3A.3.3,0,0,1,187.24,141Zm.94-14.13c-.77-.89-.65-1.64.46-2.83l.72-.78-.05,2.06a7,7,0,0,1-.26,2.19c-.11.07-.5-.22-.87-.64Zm-.33-4.6c0-.65.07-.73.3-.38.38.59.38,1.21,0,1.21C188,123.14,187.85,122.77,187.85,122.31Zm7-2.2c0-.42.07-.59.15-.38a1.23,1.23,0,0,1,0,.76C194.94,120.7,194.87,120.53,194.87,120.11Zm10.26-.31c0-.33.18-.6.41-.6a.42.42,0,0,1,.4.44.69.69,0,0,1-.4.6C205.28,120.34,205.13,120.17,205.13,119.8Zm-17.89,34.52c0-.49-.09-.58-.34-.33a.57.57,0,0,0-.13.67c.31.5.47.39.47-.34Zm-37.58-5.55c0-1.84.07-4,.11-4.7a4.93,4.93,0,0,0-1.23-3.66c-.36-.31-.42.65-.41,6.58v6.94l.74-.91c.69-.84.75-1.18.78-4.25ZM232.2,153c-.54-.07-1-.18-1-.26a10.07,10.07,0,0,1,.61-1.26c.58-1.09.61-1.71.61-16.65V119.27l-.69-.18a10.81,10.81,0,0,0-2.12-.19c-1.34,0-1.44,0-1.44.76,0,.41-.11.75-.25.75s-.24-.3-.23-.68c0-.6-.14-.69-1.46-.78a3.57,3.57,0,0,0-1.78.21c-.32.32-.35,8.9-.08,22.18.1,4.81,0,7.78-.17,8.41a3.22,3.22,0,0,1-2.59,2.2c-.43,0-.72.18-.72.45s.86.46,5.23.54l6.14.11c.86,0,.86,0-.07-.1Zm-20.4-.45c0-.28.08-.28.37,0s1.66.36,4.39.36c3.52,0,4-.06,4-.49s-.19-.44-.61-.33-.61.05-.61-.09-.27-.35-.61-.45c-1.1-.35-1.51-1.71-1.51-5a21.92,21.92,0,0,0-.18-3.51c-.15-.39-.74-.48-3.34-.48h-3.15l0,1.29a5.7,5.7,0,0,1-.24,2,3.33,3.33,0,0,0-.05,2.24.66.66,0,0,1,0,.8,3.72,3.72,0,0,0,.2,3.19c.51.78,1.33,1,1.33.38Zm.08-3.43c0-.66.06-1,.13-.68a3.26,3.26,0,0,1,0,1.21C211.94,150,211.88,149.74,211.88,149.07Zm0-4.09c0-.42.07-.59.15-.38a1.1,1.1,0,0,1,0,.76C211.92,145.57,211.85,145.4,211.85,145Zm-163,1.89-.08-5.69-1.28,0a3.64,3.64,0,0,0-1.51.25c-.33.33-.14,5.53.28,7.47s1.39,3.63,2.14,3.64c.49,0,.52-.43.45-5.69Zm8.87,5.41c0-.15-.39-.36-.87-.47a3.59,3.59,0,0,1-2.47-2.61,30.79,30.79,0,0,1-.5-4.43l-.19-3.39-4.46-.19v11.37H53.5a15.79,15.79,0,0,0,4.24-.28Zm70.72-.91a3.66,3.66,0,0,1,.21-1.74c.26-.44.32-.2.33,1.19v1.74h4.25c4,0,5.39-.3,3.32-.71s-3-2.6-3-7.47a9.59,9.59,0,0,0-.24-2.85,12.26,12.26,0,0,0-2.35-.22l-2.11-.08,0,3.92c0,2.32-.05,3.68-.2,3.32a20.92,20.92,0,0,1-.27-4l0-3.35-2.18.25.17,1.56c.49,4.45.56,6.88.2,7.31s-.24.62.29,1.36a2.1,2.1,0,0,0,1.17.92c.42,0,.5-.22.41-1.19Zm18.75-5.57V139l-1-.94a71.81,71.81,0,0,0-6.5-4.32C133.6,130,133,129.38,133,127c0-2.86,1.52-4.23,4.67-4.2s4.06,1.41,4.1,6.37l0,2.51h5.46v-4.33a23.3,23.3,0,0,1,.41-5.43c.5-1.4.67-9.51.2-9.79-.22-.14-.32,1.25-.32,4.51v4.71l-1.44-.91c-1.33-.85-1.46-.88-1.82-.39s-.38.47-.38-.13-.27-.7-1.82-1a8.32,8.32,0,0,1-1.82-.46c0-.06.75-1.46,1.67-3.1a35.36,35.36,0,0,0,1.67-3.19c0-.11-.65-.19-1.44-.19h-1.44l-1.41,3-1.4,3-2.81-5.92h-1.51a6.15,6.15,0,0,0-1.52.1c0,.06.82,1.53,1.81,3.26l1.8,3.16-2.48.36a23.14,23.14,0,0,0-3.33.67l-.83.32v5.37a31.32,31.32,0,0,1-.2,5.16,15.47,15.47,0,0,1-.18-3.31c0-1.71-.06-4-.18-5l-.2-1.88-.69.52c-.6.46-.72.94-1,3.7-.47,5.25-.4,7.07.31,8,.85,1.09,4.62,3.65,8.78,6,3.87,2.17,6.17,4.22,6.51,5.81a27.39,27.39,0,0,1,.37,2.92c.25,3.18-.63,4.5-3.2,4.8-3,.36-1.49.71,3.15.71h4.7Zm-18.69-13.39a1.36,1.36,0,0,1,.15-1c.27-.47.32-.4.33.43C129,132.9,128.8,133.14,128.52,132.41Zm-71.6,18.33c-.09-.33-.28-.61-.43-.61s-.27.28-.27.61.2.61.43.61S57,151.14,56.92,150.74Zm79.67.17a.81.81,0,0,0-.3-.62c-.17-.11-.31.09-.31.43s.14.63.31.63S136.59,151.15,136.59,150.91Zm83.7-.17c0-.33-.13-.61-.3-.61s-.3.28-.3.61.13.61.3.61S220.29,151.07,220.29,150.74ZM56.68,149.53c.1-.17,0-.31-.14-.31a.32.32,0,0,0-.32.31c0,.16.06.3.14.3S56.58,149.69,56.68,149.53Zm130.16-3.7c-.1-.24-.17-.17-.19.19s.06.49.16.39a.63.63,0,0,0,0-.58Zm-39-10.32a23.72,23.72,0,0,0-.2-3.54c-.39-.39-.46.56-.27,3.74a15.71,15.71,0,0,0,.38,3.37,21,21,0,0,0,.09-3.57Zm23.48-1.9c.3-1.58.39-8.86.1-8.07a25.89,25.89,0,0,0-.38,4c-.08,1.89-.23,4-.34,4.79-.22,1.66.27,1.06.62-.75ZM48.88,123.54,48.79,120l-1.31,1.32a9.31,9.31,0,0,0-1.63,2.13,10.48,10.48,0,0,0-.53,4.74c.13.5.32,1.29.42,1.77a7.71,7.71,0,0,0,1.63,2.39l1.42,1.52.09-3.35c0-1.85,0-5,0-6.94Zm100.68,4.82a12.42,12.42,0,0,0-.77-4.62l-.62-1.35,0,9.24h1.6Zm-53.1,2c-.09-.21-.16,0-.16.38s.07.58.16.37A1.2,1.2,0,0,0,96.46,130.35Zm0-4.24c-.07-.72-.12-.21-.12,1.13s0,1.92.12,1.29a16.28,16.28,0,0,0,0-2.42Zm0-3.2c-.07-.29-.13,0-.13.69s.07.9.14.53a3.31,3.31,0,0,0,0-1.22Zm59.26-2.52a17,17,0,0,0,1.49-1.64,5.72,5.72,0,0,0-1.59-.06l-1.59.06-.09,1.59a3.6,3.6,0,0,0,.09,1.59,10.6,10.6,0,0,0,1.69-1.54Zm-91.1-2.46c-.1-.24-.17-.17-.18.18s.06.5.16.4a.6.6,0,0,0,0-.58Zm123.83-1.14a1,1,0,0,0-.3-.77c-.17-.11-.3.14-.3.58s.13.78.3.78S188.45,117.12,188.45,116.79Zm7.13.29c.1-.17,0-.22-.29-.12-.52.2-.62.42-.18.42a.64.64,0,0,0,.47-.3ZM65.33,114.33a1,1,0,0,0-.31-.74c-.17-.1-.3,0-.3.29s-.13.47-.28.47-.2.27-.11.61.25.54.58.27a1.34,1.34,0,0,0,.42-.9Zm79.43-.08c0-.53-.1-.76-.2-.51a1.41,1.41,0,0,1-.44.63c-.35.23,0,1.24.39,1a1.73,1.73,0,0,0,.25-1.14Zm84,.44a2,2,0,0,0-.3-1c-.25-.39-.29-.38-.29.08,0,.29-.13.53-.28.53s-.21.26-.13.58c.19.7,1,.5,1-.24Zm8.2.13a.78.78,0,0,0-.31-.62c-.16-.11-.3.09-.3.43s.14.63.3.63S237,115.06,237,114.82Zm-56.53-1.47a4.85,4.85,0,0,1,.27-.9c.12-.29.08-.53-.08-.53s-.67,1-.68,1.8c0,.49.39.19.49-.37Zm1.46-1.16c-.25-.4-.65-.32-.83.15-.12.3,0,.38.42.27s.5-.27.41-.42ZM105,112c.59-.16.28-.67-3.35-5.38l-4-5.2H92.77v10.31l4.4.16,5.76.23a8.78,8.78,0,0,0,2-.12Zm43.13-5c1.62-.57,2.38-3.05,1.51-5-.61-1.33-1.92-1.69-6.14-1.69h-3.82v7h3.74a24.5,24.5,0,0,0,4.71-.33ZM103.41,95.45c1-1.21,1-3.86,0-4.9s-2-1.12-6.71-1l-3.94.09-.09,3a20.68,20.68,0,0,0,.08,3.44c.13.34,1.09.4,5,.32l4.88-.1Zm44.87-.65a3.9,3.9,0,0,0,.17-4.45c-.56-.69-.74-.72-4.63-.72h-4l-.18,5.92h4c3.81,0,4,0,4.71-.75ZM43,140.81c-.11-.29-.25-.67-.32-.84s.09,0,.35.29c.48.59.62,1.08.32,1.08-.09,0-.25-.24-.35-.53ZM188.66,92.92a7.42,7.42,0,0,1-.21-2.24c0-2.34-.32-2,6-7.24,4.13-3.45,5.23-5,5.23-7.14,0-1.85-.57-2.79-1.91-3.14a4.3,4.3,0,0,0-3.49.66,3.57,3.57,0,0,0-.64,1.61l-.19,1.16h-4.84l0-1.39a7,7,0,0,1,4.56-6.07,15.47,15.47,0,0,1,6.87,0,7.7,7.7,0,0,1,3.93,3.5,6.46,6.46,0,0,1,.65,3.51c0,3.65-1.14,5.3-6.81,10l-3.06,2.56,10.5.3v4l-8.21.08c-4.52,0-8.3,0-8.42-.13Z"/></g></g></g></svg>