<svg xmlns="http://www.w3.org/2000/svg" viewBox="0 0 283.46 283.46"><defs><style>.cls-1{fill:#fff;}</style></defs><g id="Layer_2" data-name="Layer 2"><g id="Relax_Rebel_Retro" data-name="Relax &amp; Rebel &amp; Retro"><g id="rebel"><rect width="283.46" height="283.46"/><path id="logo" class="cls-1" d="M240.26,138.27h-4.13l-1.37.69L221,156.83l-1.38.68h-2.9l0,0-.65-.67V118.37l-.69-.69h-8.25l-.68.69v46.72l.68.69h18.71c1.31-1.32,15.11-19.95,15.11-19.95V139l-.68-.69ZM82.37,132.11c0-9.62-6.87-14.43-16.49-14.43H43.21l-.69.69v46.72l.69.69h8.25l.68-.69V147.23l.69-.69h6.86l1.38.69,13.74,17.86,1.38.69h4.12l.69-.69v-6.87l-8.93-11.68v-.69c5.49-1.37,10.3-6.18,10.3-13.74M65.88,138.3h-13l-.69-.69v-11l.69-.69h13c4.12,0,6.87,1.37,6.87,6.18S70,138.3,65.88,138.3m21.75-20.61-.68.68v46.72l.68.69h32.3l.68-.69v-6.87l-.68-.68H97.25l-.68-.69v-11l.68-.68h21.3l.69-.69v-6.87l-.69-.69H97.25l-.68-.69v-9.61l.68-.69h22.68l.68-.69v-6.87l-.68-.68Zm81,0-.69.68v46.72l.69.69h32.29l.69-.69v-6.87l-.69-.68H178.23l-.68-.69v-11l.68-.68h21.3l.69-.69v-6.87l-.69-.69h-21.3l-.68-.69v-9.61l.68-.69h22.68l.69-.69v-6.87l-.69-.68ZM155,141v-.68c4.81-1.37,6.87-5.5,6.87-10.31,0-8.93-6.87-12.36-13.74-12.36h-22l-.68.68v46.72l.68.69h23.36c6.87,0,13.74-3.43,13.74-13.05,0-6.19-2.74-10.31-8.24-11.69M135,126.62l.69-.69h11c4.12,0,5.49,2.06,5.49,5.5,0,2.75-1.37,5.49-5.49,5.49h-11l-.69-.69Zm11.69,30.92h-11l-.69-.69v-11l.69-.69h11c4.8,0,6.87,2.06,6.87,6.18s-2.07,6.19-6.87,6.19"/></g></g></g></svg>