<svg xmlns="http://www.w3.org/2000/svg" viewBox="0 0 283.46 283.46"><defs><style>.cls-1{fill:#fff;}</style></defs><title>rebel</title><g id="Layer_2" data-name="Layer 2"><g id="Relax_Rebel_Retro" data-name="Relax &amp; Rebel &amp; Retro"><g id="rebel"><rect width="283.46" height="283.46"/><path id="logo" class="cls-1" d="M240.26,138.27h-4.12l-1.37.69L221,156.83l-1.37.69h-2.9l0,0-.65-.67V118.37l-.69-.69h-8.25l-.69.69v46.72l.69.69h18.7c1.32-1.32,15.12-19.95,15.12-19.95V139l-.69-.69ZM82.37,132.11c0-9.62-6.87-14.43-16.49-14.43H43.21l-.69.69v46.72l.69.69h8.25l.69-.69V147.23l.69-.69h6.86l1.37.69,13.75,17.86,1.37.69h4.12l.69-.69v-6.87l-8.93-11.68v-.69c5.5-1.37,10.31-6.18,10.31-13.74M65.88,138.3h-13l-.69-.69v-11l.69-.69h13c4.12,0,6.87,1.37,6.87,6.19S70,138.3,65.88,138.3m21.75-20.61-.69.69v46.72l.69.69h32.29l.69-.69v-6.87l-.69-.69H97.25l-.69-.69v-11l.69-.69h21.3l.69-.69v-6.87l-.69-.69H97.25l-.69-.69v-9.62l.69-.69h22.67l.69-.69v-6.87l-.69-.69H87.63Zm81,0-.69.69v46.72l.69.69h32.29l.69-.69v-6.87l-.69-.69H178.23l-.68-.69v-11l.68-.69h21.3l.69-.69v-6.87l-.69-.69h-21.3l-.68-.69v-9.62l.68-.69h22.68l.69-.69v-6.87l-.69-.69H168.62ZM155,141v-.69c4.81-1.37,6.87-5.5,6.87-10.31,0-8.93-6.87-12.37-13.74-12.37h-22l-.69.69v46.72l.69.69h23.36c6.87,0,13.74-3.43,13.74-13.05,0-6.18-2.75-10.31-8.24-11.68M135,126.62l.69-.69h11c4.12,0,5.5,2.06,5.5,5.5,0,2.75-1.38,5.5-5.5,5.5h-11l-.69-.69Zm11.68,30.92h-11l-.69-.69v-11l.69-.69h11c4.81,0,6.87,2.06,6.87,6.18s-2.06,6.18-6.87,6.18"/></g></g></g></svg>