<svg xmlns="http://www.w3.org/2000/svg" viewBox="0 0 283.46 283.46"><defs><style>.cls-1{fill:#80cc28;}.cls-2{fill:#40b93c;}.cls-3{fill:#ed1c24;}.cls-4{fill:#9b161b;}.cls-5{fill:#7641a4;}.cls-6{fill:#f68712;}.cls-7{fill:#68bce2;}.cls-8{fill:#fff200;}.cls-9{fill:#2e3192;}.cls-10{fill:#fff;}</style></defs><title>regionalnitelevize</title><g id="Layer_2" data-name="Layer 2"><g id="Ostatní_CZ_kanály" data-name="Ostatní CZ kanály"><g id="regionalnitelevize"><rect width="283.46" height="283.46"/><g id="logo"><path class="cls-1" d="M122.71,113.59h-19v-19h19v19Z"/><path class="cls-2" d="M103.69,113.59h-19v-19h19v19Z"/><path class="cls-3" d="M160.75,113.59h-19v-19h19v19Z"/><path class="cls-4" d="M179.78,113.59h-19v-19h19v19Z"/><path class="cls-5" d="M198.79,113.59h-19v-19h19v19Z"/><path class="cls-6" d="M103.69,132.61h-19v-19h19v19Z"/><path class="cls-7" d="M179.78,132.61h-19v-19h19v19Z"/><path class="cls-8" d="M103.69,151.63h-19v-19h19v19Z"/><path class="cls-9" d="M179.78,151.63h-19v-19h19v19Z"/><path class="cls-10" d="M44.21,174.51h0a2.56,2.56,0,0,1,2.2-1.35,3,3,0,0,1,1.52.47l-.81,1.54a1.66,1.66,0,0,0-1-.45c-1.85,0-1.94,2.39-1.94,3.68v5H42.52v-9.93h1.69v1.08Z"/><path class="cls-10" d="M56.55,177.32a3,3,0,0,0-2.91-2.6,3.15,3.15,0,0,0-3,2.6Zm-6,1.44a3.22,3.22,0,0,0,3.25,3.32,3.39,3.39,0,0,0,3-2l1.44.82a5,5,0,0,1-4.58,2.8,4.81,4.81,0,0,1-4.86-5.12c0-2.94,1.71-5.37,4.81-5.37s4.88,2.64,4.72,5.6H50.53Z"/><path class="cls-10" d="M61.43,178.29c0,1.94,1.15,3.79,3.25,3.79S68,180.32,68,178.31a3.32,3.32,0,0,0-3.34-3.59,3.37,3.37,0,0,0-3.23,3.57m8.18,4.58c0,1.59,0,3-1,4.27a4.81,4.81,0,0,1-3.84,1.76,4.55,4.55,0,0,1-4.88-4.56h1.69a3,3,0,0,0,3.17,3c2.62,0,3.18-1.92,3.18-4.16V182h0a4.4,4.4,0,0,1-3.45,1.65c-2.89,0-4.74-2.44-4.74-5.2s1.86-5.28,4.8-5.28a4.14,4.14,0,0,1,3.38,1.69h0v-1.42h1.7v9.44Z"/><path class="cls-10" d="M74.92,183.36H73.23v-9.93h1.69Zm.36-13.67a1.2,1.2,0,1,1-2.41,0,1.2,1.2,0,0,1,2.41,0"/><path class="cls-10" d="M79.25,178.4a3.53,3.53,0,1,0,3.53-3.68,3.52,3.52,0,0,0-3.53,3.68m-1.69,0a5.22,5.22,0,1,1,5.22,5.22,5.21,5.21,0,0,1-5.22-5.22"/><path class="cls-10" d="M92,174.64h0a3.34,3.34,0,0,1,2.83-1.48c2.75,0,3.38,2,3.38,4.31v5.89H96.58v-5.6c0-1.6-.13-3-2.09-3-2.33,0-2.48,2.15-2.48,3.93v4.71H90.33v-9.93H92v1.2Z"/><path class="cls-10" d="M102.37,178.29c0,1.94,1.15,3.79,3.25,3.79s3.32-1.76,3.32-3.77a3.32,3.32,0,0,0-3.34-3.59,3.37,3.37,0,0,0-3.23,3.57m8.18,5.07h-1.7V182h0a4.18,4.18,0,0,1-3.43,1.65c-2.91,0-4.76-2.48-4.76-5.22s1.81-5.26,4.78-5.26a4.29,4.29,0,0,1,3.41,1.69h0v-1.42h1.7v9.93Z"/><path class="cls-10" d="M115.33,183.36h-1.69V165.93h1.69Z"/><path class="cls-10" d="M120.17,174.64h0a3.34,3.34,0,0,1,2.83-1.48c2.75,0,3.38,2,3.38,4.31v5.89h-1.69v-5.6c0-1.6-.13-3-2.09-3-2.33,0-2.48,2.15-2.48,3.93v4.71h-1.69v-9.93h1.69v1.2Z"/><path class="cls-10" d="M131.65,183.36H130v-9.93h1.69Zm.36-13.67a1.21,1.21,0,1,1-1.2-1.2,1.21,1.21,0,0,1,1.2,1.2"/><path class="cls-10" d="M138.79,183.36h-3.67v-7.31h-1.18v-3h1.18v-3.1h3.67V173h2.08v3h-2.08v7.31Z"/><path class="cls-10" d="M149.23,176.7a2.2,2.2,0,0,0-4.25,0h4.25Zm3.41,2.12h-7.72a2.05,2.05,0,0,0,2.3,2.29,1.82,1.82,0,0,0,1.75-.94h3.52c-.58,2.44-2.9,3.54-5.25,3.54-3.43,0-6-1.93-6-5.49s2.35-5.52,5.72-5.52c3.58,0,5.66,2.22,5.66,5.74v.39Z"/><path class="cls-10" d="M158,183.36H154.3V166.65H158Z"/><path class="cls-10" d="M167.59,176.7a2.2,2.2,0,0,0-4.25,0h4.25Zm3.4,2.12h-7.71a2.05,2.05,0,0,0,2.3,2.29,1.84,1.84,0,0,0,1.75-.94h3.52c-.58,2.44-2.9,3.54-5.25,3.54-3.43,0-6-1.93-6-5.49s2.35-5.52,5.72-5.52c3.58,0,5.65,2.22,5.65,5.74v.39Z"/><path class="cls-10" d="M177.73,178.33l2.46-5.3h4.11l-5.4,10.34h-2.33L171.15,173h4.11l2.48,5.3Z"/><path class="cls-10" d="M188.86,183.36H185.2V173h3.66v10.33Zm.22-14.29a2.05,2.05,0,1,1-2-2.06,2.05,2.05,0,0,1,2,2.06"/><path class="cls-10" d="M200.7,180.32v3H190.23l4.85-7.29h-4.2v-3h10.31l-4.83,7.29h4.35Z"/><path class="cls-10" d="M209.74,176.7a2.2,2.2,0,0,0-4.25,0h4.25Zm3.4,2.12h-7.71a2.05,2.05,0,0,0,2.3,2.29,1.84,1.84,0,0,0,1.75-.94H213c-.58,2.44-2.9,3.54-5.25,3.54-3.43,0-6-1.93-6-5.49s2.35-5.52,5.72-5.52c3.58,0,5.65,2.22,5.65,5.74v.39Z"/><path class="cls-10" d="M218,182.44a1.18,1.18,0,1,1-2.37,0,1.18,1.18,0,0,1,2.37,0"/><path class="cls-10" d="M229.09,176.39h0a3.85,3.85,0,0,0-3.09-1.67,3.56,3.56,0,0,0-3.51,3.68,3.49,3.49,0,0,0,3.43,3.68,3.86,3.86,0,0,0,3.23-1.72h0v2.26a5.43,5.43,0,0,1-3.15,1,5.15,5.15,0,0,1-5.28-5.24,5.24,5.24,0,0,1,5.3-5.24,5.37,5.37,0,0,1,3.07,1v2.24Z"/><path class="cls-10" d="M240.65,181.8v1.56H230.38l7.16-8.37h-5.83v-1.56h9.23l-7.13,8.37Z"/></g></g></g></g></svg>