<svg xmlns="http://www.w3.org/2000/svg" viewBox="0 0 283.46 283.46"><defs><style>.cls-1{fill:#80cc28;}.cls-2{fill:#40b93c;}.cls-3{fill:#ed1c24;}.cls-4{fill:#9b161b;}.cls-5{fill:#7641a4;}.cls-6{fill:#f68712;}.cls-7{fill:#68bce2;}.cls-8{fill:#fff200;}.cls-9{fill:#2e3192;}.cls-10{fill:#fff;}</style></defs><title>regionalnitelevize</title><g id="Layer_2" data-name="Layer 2"><g id="Ostatní_CZ_kanály" data-name="Ostatní CZ kanály"><g id="regionalnitelevize"><rect width="283.46" height="283.46"/><g id="logo"><path class="cls-1" d="M122.71,113.59h-19v-19h19v19Z"/><path class="cls-2" d="M103.69,113.59h-19v-19h19v19Z"/><path class="cls-3" d="M160.75,113.59h-19v-19h19v19Z"/><path class="cls-4" d="M179.78,113.59h-19v-19h19v19Z"/><path class="cls-5" d="M198.79,113.59h-19v-19h19v19Z"/><path class="cls-6" d="M103.69,132.61h-19v-19h19v19Z"/><path class="cls-7" d="M179.78,132.61h-19v-19h19v19Z"/><path class="cls-8" d="M103.69,151.63h-19v-19h19v19Z"/><path class="cls-9" d="M179.78,151.63h-19v-19h19v19Z"/><path class="cls-10" d="M44.21,174.51h0a2.54,2.54,0,0,1,2.2-1.35,2.86,2.86,0,0,1,1.52.47l-.8,1.54a1.67,1.67,0,0,0-1-.45c-1.85,0-1.94,2.39-1.94,3.68v5H42.52v-9.93h1.69v1.08Z"/><path class="cls-10" d="M56.55,177.32a3,3,0,0,0-2.91-2.6,3.14,3.14,0,0,0-3,2.6Zm-6,1.44a3.22,3.22,0,0,0,3.25,3.32,3.39,3.39,0,0,0,3-2.05l1.44.81a5,5,0,0,1-4.58,2.8,4.82,4.82,0,0,1-4.87-5.12c0-2.94,1.71-5.36,4.82-5.36s4.88,2.64,4.72,5.6Z"/><path class="cls-10" d="M61.43,178.29c0,1.94,1.15,3.79,3.25,3.79S68,180.32,68,178.31a3.32,3.32,0,0,0-3.34-3.59,3.37,3.37,0,0,0-3.23,3.57m8.18,4.58c0,1.6,0,3-1,4.27a4.82,4.82,0,0,1-3.85,1.76,4.55,4.55,0,0,1-4.88-4.56h1.69a3,3,0,0,0,3.17,3c2.62,0,3.19-1.92,3.19-4.17V182h0a4.41,4.41,0,0,1-3.45,1.65c-2.89,0-4.74-2.44-4.74-5.2s1.87-5.28,4.81-5.28a4.14,4.14,0,0,1,3.38,1.69h0v-1.42h1.69v9.44Z"/><path class="cls-10" d="M74.92,183.36H73.23v-9.93h1.69Zm.35-13.67a1.2,1.2,0,1,1-1.2-1.2,1.21,1.21,0,0,1,1.2,1.2"/><path class="cls-10" d="M79.25,178.4a3.53,3.53,0,1,0,3.53-3.68,3.52,3.52,0,0,0-3.53,3.68m-1.69,0a5.22,5.22,0,1,1,5.22,5.22,5.21,5.21,0,0,1-5.22-5.22"/><path class="cls-10" d="M92,174.64h0a3.36,3.36,0,0,1,2.84-1.48c2.75,0,3.38,2,3.38,4.31v5.89H96.58v-5.6c0-1.6-.13-3-2.09-3-2.33,0-2.47,2.16-2.47,3.94v4.7H90.33v-9.93H92v1.21Z"/><path class="cls-10" d="M102.37,178.29c0,1.94,1.15,3.79,3.26,3.79s3.32-1.76,3.32-3.77a3.32,3.32,0,0,0-3.34-3.59,3.37,3.37,0,0,0-3.24,3.57m8.19,5.07h-1.7V182h0a4.17,4.17,0,0,1-3.43,1.65c-2.91,0-4.75-2.48-4.75-5.22s1.8-5.26,4.77-5.26a4.3,4.3,0,0,1,3.41,1.69h0v-1.42h1.7v9.93Z"/><path class="cls-10" d="M115.33,183.36h-1.69V165.93h1.69Z"/><path class="cls-10" d="M120.17,174.64h0a3.34,3.34,0,0,1,2.83-1.48c2.75,0,3.38,2,3.38,4.31v5.89h-1.69v-5.6c0-1.6-.12-3-2.09-3-2.32,0-2.47,2.16-2.47,3.94v4.7h-1.69v-9.93h1.69v1.21Z"/><path class="cls-10" d="M131.65,183.36H130v-9.93h1.69Zm.36-13.67a1.21,1.21,0,1,1-1.21-1.2,1.22,1.22,0,0,1,1.21,1.2"/><path class="cls-10" d="M138.79,183.36h-3.67v-7.31h-1.19v-3h1.19v-3.09h3.67V173h2.07v3h-2.07v7.31Z"/><path class="cls-10" d="M149.23,176.7a2.2,2.2,0,0,0-4.25,0Zm3.41,2.11h-7.72a2.05,2.05,0,0,0,2.3,2.29,1.83,1.83,0,0,0,1.75-.94h3.52c-.58,2.44-2.9,3.55-5.25,3.55-3.43,0-6-1.94-6-5.5s2.35-5.52,5.72-5.52c3.58,0,5.66,2.22,5.66,5.74v.38Z"/><path class="cls-10" d="M158,183.36H154.3V166.65H158Z"/><path class="cls-10" d="M167.59,176.7a2.2,2.2,0,0,0-4.25,0Zm3.4,2.11h-7.71a2.05,2.05,0,0,0,2.3,2.29,1.84,1.84,0,0,0,1.75-.94h3.52c-.58,2.44-2.9,3.55-5.25,3.55-3.43,0-6-1.94-6-5.5s2.35-5.52,5.72-5.52c3.58,0,5.65,2.22,5.65,5.74v.38Z"/><path class="cls-10" d="M177.73,178.33l2.46-5.3h4.1l-5.39,10.34h-2.33L171.15,173h4.11l2.47,5.3Z"/><path class="cls-10" d="M188.86,183.36H185.2V173h3.66v10.33Zm.22-14.29a2.05,2.05,0,1,1-2-2,2.05,2.05,0,0,1,2,2"/><path class="cls-10" d="M200.7,180.32v3H190.23l4.85-7.29h-4.2v-3h10.31l-4.84,7.29Z"/><path class="cls-10" d="M209.74,176.7a2.2,2.2,0,0,0-4.25,0Zm3.4,2.11h-7.71a2.05,2.05,0,0,0,2.3,2.29,1.84,1.84,0,0,0,1.75-.94H213c-.58,2.44-2.9,3.55-5.25,3.55-3.43,0-6-1.94-6-5.5s2.35-5.52,5.72-5.52c3.58,0,5.65,2.22,5.65,5.74v.38Z"/><path class="cls-10" d="M218,182.44a1.19,1.19,0,1,1-1.18-1.17,1.17,1.17,0,0,1,1.18,1.17"/><path class="cls-10" d="M229.09,176.39h0a3.83,3.83,0,0,0-3.08-1.67,3.56,3.56,0,0,0-3.52,3.68,3.49,3.49,0,0,0,3.43,3.68,3.85,3.85,0,0,0,3.23-1.72h0v2.26a5.43,5.43,0,0,1-3.15,1,5.14,5.14,0,0,1-5.28-5.24,5.23,5.23,0,0,1,5.3-5.24,5.36,5.36,0,0,1,3.06,1v2.24Z"/><path class="cls-10" d="M240.65,181.8v1.56H230.38l7.17-8.36h-5.84v-1.57h9.23l-7.13,8.37Z"/></g></g></g></g></svg>