<svg xmlns="http://www.w3.org/2000/svg" viewBox="0 0 283.46 283.46"><defs><style>.cls-1{fill:#c2c2c2;}.cls-2{fill:#f7be14;}.cls-3{fill:#fff;}</style></defs><g id="Layer_2" data-name="Layer 2"><g id="Regionální"><g id="regionyplus"><rect class="cls-1" width="283.46" height="283.46"/><g id="logo"><path class="cls-2" d="M234.45,144.14c-1.14,0-2.28,0-3.41,0-.62,0-.8.22-.79.81,0,2,0,4,0,6a2.94,2.94,0,0,1-3.14,3.13,5.17,5.17,0,0,1-1.52-.1,2.92,2.92,0,0,1-2.22-3c0-2,0-4,0-6,0-.65-.18-.89-.86-.88-2.23,0-4.46,0-6.69,0a3.07,3.07,0,0,1-3-1.93,3.48,3.48,0,0,1,.93-3.85,3.93,3.93,0,0,1,2.52-.78h6c1.09,0,1.1,0,1.1-1.07,0-1.88,0-3.77,0-5.66a2.9,2.9,0,0,1,3.15-3.18,5.33,5.33,0,0,1,1.73.16,2.57,2.57,0,0,1,2,2.68c0,2.06,0,4.12,0,6.18,0,.7.24.92.93.9,2,0,4,0,6,0a6.32,6.32,0,0,1,1.23.11,3.08,3.08,0,0,1,2.58,3.42,3,3,0,0,1-3.07,3c-1.13,0-2.27,0-3.41,0Z"/><path class="cls-3" d="M101.05,129.29h5.16a2.25,2.25,0,0,1,2.56,2.33,54.51,54.51,0,0,1,0,6.39c0,.33,0,.67,0,1,0,5.4,0,10.81,0,16.21,0,5.24-3.73,8.68-8.82,8.8-2.73.07-5.47,0-8.21,0a1.93,1.93,0,0,1-2-2.08,1.86,1.86,0,0,1,2-2c2.3,0,4.6,0,6.9,0a11.73,11.73,0,0,0,1.88-.15,4.34,4.34,0,0,0,3.88-4.38c.06-2.41.26-2-1.89-2s-4.5.06-6.75,0A8.89,8.89,0,0,1,89.59,151,8.55,8.55,0,0,1,87,144.77c-.08-2.32,0-4.65,0-7a8.36,8.36,0,0,1,6.78-8.24,26.74,26.74,0,0,1,5.21-.27C99.69,129.27,100.37,129.29,101.05,129.29Zm3.27,12c0-2.37,0-4.74,0-7.12,0-.63-.23-.86-.85-.83-1,0-2.08,0-3.13,0a41.75,41.75,0,0,0-5,.13,4.36,4.36,0,0,0-3.82,3.73,35.2,35.2,0,0,0-.06,7.54c.26,2.82,1.59,4,4.39,4.31,2.51.27,5,0,7.55.13.69,0,.93-.22.92-.92C104.3,146,104.32,143.64,104.32,141.31Z"/><path class="cls-3" d="M203.77,143.4v12a8.21,8.21,0,0,1-6.52,8.33,10.91,10.91,0,0,1-2.73.33c-2.59,0-5.18,0-7.77,0-1.27,0-2-.79-2-2.16a1.81,1.81,0,0,1,2-1.92h7.12a7.56,7.56,0,0,0,2.22-.28,4.5,4.5,0,0,0,3.31-4.51c0-2,.17-1.73-1.66-1.74-2.25,0-4.51.07-6.76,0-3.08-.13-5.71-1.23-7.42-4a8.87,8.87,0,0,1-1.28-4.64c-.05-4.63,0-9.25,0-13.88a1.79,1.79,0,0,1,1.27-2,2.63,2.63,0,0,1,2.84.78,2,2,0,0,1,.25,1.19v13a6.57,6.57,0,0,0,.35,2.29,4.61,4.61,0,0,0,4.55,3c2.35,0,4.7,0,7.05,0,.7,0,.86-.28.85-.91q0-8.58,0-17.15a2.06,2.06,0,0,1,2.63-2.29,1.82,1.82,0,0,1,1.72,2Q203.78,137.12,203.77,143.4Z"/><path class="cls-3" d="M73.67,143.53c-2.18,0-4.36,0-6.54,0-.71,0-.92.25-.91.94a4.78,4.78,0,0,0,5,4.89c2.45,0,4.89,0,7.34,0a2,2,0,0,1,1.87,3.06,1.52,1.52,0,0,1-1.34,1c-3.34,0-6.7.31-10-.16a8.29,8.29,0,0,1-7.15-8.35q0-3.39,0-6.76a8.89,8.89,0,0,1,8.8-8.84,24,24,0,0,1,4.79.13,8.7,8.7,0,0,1,7.34,8.87c0,.9,0,1.79,0,2.69a2.29,2.29,0,0,1-2.52,2.54c-2.2,0-4.41,0-6.61,0Zm-1.38-3.63h4.42c1.9,0,1.79.32,1.71-1.82a4.07,4.07,0,0,0-2.34-3.9,9.06,9.06,0,0,0-7.13-.11c-2.2.87-2.73,2.83-2.73,5,0,.64.22.85.84.84C68.8,139.88,70.55,139.9,72.29,139.9Z"/><path class="cls-3" d="M151.13,141.68c-.08,1.23.11,2.73-.11,4.23-.66,4.68-4.18,7.34-8.69,7.5a28.27,28.27,0,0,1-5.44-.13,8.46,8.46,0,0,1-7.27-8.43q0-3.42,0-6.84a8.57,8.57,0,0,1,8.19-8.73,21,21,0,0,1,6.58.22,8.34,8.34,0,0,1,6.74,8.49C151.14,139.13,151.13,140.27,151.13,141.68ZM134,141c0,1.38,0,2.45,0,3.51.09,3.09,1.89,4.84,5,4.86,1.11,0,2.23,0,3.34,0a4.35,4.35,0,0,0,4.33-3.85,36.61,36.61,0,0,0,0-7.9c-.27-2.67-1.67-4-4.37-4.32a15.05,15.05,0,0,0-3.91,0c-2.66.38-3.92,1.65-4.32,4.32A28.38,28.38,0,0,0,134,141Z"/><path class="cls-3" d="M156.07,141.72v-9.88c0-1.83.85-2.69,2.66-2.69,3.32,0,6.64-.06,10,0a9.11,9.11,0,0,1,6.56,2.5,8.16,8.16,0,0,1,2.33,5.86c.07,4.77,0,9.54,0,14.31,0,1.31-.66,1.88-2.12,1.88s-2.1-.58-2.1-1.88q0-6,0-11.92a16.15,16.15,0,0,0-.17-2.6,4.17,4.17,0,0,0-2.93-3.55,7.61,7.61,0,0,0-2.5-.4h-6.4c-.9,0-.93,0-.94.94q0,8.61,0,17.22c0,.83-.12,1.59-.95,1.95a2.72,2.72,0,0,1-2.7-.16,1.7,1.7,0,0,1-.73-1.57C156.08,148.41,156.07,145.06,156.07,141.72Z"/><path class="cls-3" d="M46.88,143.11c0,2.85,0,5.71,0,8.57a1.85,1.85,0,0,1-2.08,2c-1.6,0-2.28-.6-2.28-2.06V132.47a7,7,0,0,1,.16-1.44,2,2,0,0,1,2.1-1.74c2.64,0,5.29-.15,7.92,0a7.45,7.45,0,0,1,6.5,4.12,2.24,2.24,0,0,1-1.33,3.34,1.69,1.69,0,0,1-2.07-.6c-.17-.21-.35-.4-.5-.62a4.91,4.91,0,0,0-4.13-2c-1.16,0-2.33,0-3.49,0-.6,0-.81.22-.8.81C46.9,137.24,46.89,140.17,46.88,143.11Z"/><path class="cls-3" d="M123.08,141.6v10c0,1.07-.32,1.66-1.18,1.94a2.66,2.66,0,0,1-2.74-.41,1.8,1.8,0,0,1-.46-1.47q0-8.56,0-17.14c0-1.17,0-1.17-1.15-1.18s-2.17,0-3.26,0a1.8,1.8,0,0,1-1.84-2.05c0-1.27.62-2,1.78-2,2.25,0,4.51,0,6.76,0a1.88,1.88,0,0,1,2.07,2.14Q123.09,136.51,123.08,141.6Z"/><path class="cls-3" d="M120.44,124.49a2.51,2.51,0,0,1-2.6-2.54,2.61,2.61,0,0,1,5.22,0A2.57,2.57,0,0,1,120.44,124.49Z"/></g></g></g></g></svg>