<svg xmlns="http://www.w3.org/2000/svg" viewBox="0 0 283.46 283.46"><defs><style>.cls-1{fill:#cae500;}.cls-2{fill:#fff;}</style></defs><title>relax</title><g id="Layer_2" data-name="Layer 2"><g id="Relax_Rebel_Retro" data-name="Relax &amp; Rebel &amp; Retro"><g id="relax"><rect class="cls-1" width="283.46" height="283.46"/><g id="logo"><path class="cls-2" d="M207.53,166.21a1.58,1.58,0,0,0-.8-.34,6.21,6.21,0,0,1-4.75-5.4,6.13,6.13,0,0,1,3-6.25,6.32,6.32,0,0,1,7.06.18,6.13,6.13,0,0,1,2.63,6.39,6.21,6.21,0,0,1-4.77,5.1,1.44,1.44,0,0,0-.72.32Z"/><path class="cls-2" d="M233.6,166.21c-.17-.25-.44-.27-.7-.34a6.41,6.41,0,1,1,7.89-7.49c.8,3-1.52,6.73-4.69,7.48a1.57,1.57,0,0,0-.88.34Z"/><path class="cls-2" d="M42.52,141.79q0-10.74,0-21.48c0-1.43.31-1.74,1.76-1.74,7.05,0,14.11,0,21.16,0a18.41,18.41,0,0,1,9.78,2.49A12.19,12.19,0,0,1,81,130.51a14.92,14.92,0,0,1-1,7.8,12.79,12.79,0,0,1-7.93,7.27c-1,.35-1.12.62-.47,1.48q3.82,5,7.66,10a2.67,2.67,0,0,1,.61,1.77c0,1.58,0,3.16,0,4.75,0,1.11-.4,1.49-1.51,1.49-.89,0-1.77,0-2.66,0a2.82,2.82,0,0,1-2.28-1.16l-12.29-16a3.21,3.21,0,0,0-2.75-1.39c-1.72,0-3.43,0-5.15,0-1,0-1.33.3-1.33,1.35q0,7.72,0,15.45c0,1.42-.32,1.74-1.76,1.74h-6c-1.2,0-1.58-.38-1.58-1.6Q42.52,152.65,42.52,141.79Zm17.33-15.17H53.17c-.92,0-1.26.31-1.27,1.17q0,4.75,0,9.49a1.1,1.1,0,0,0,1.17,1.24c4.45,0,8.91.07,13.36-.05,3.21-.09,4.86-1.67,5.31-4.65a8.81,8.81,0,0,0,0-2.33c-.31-2.72-1.55-4.07-4.21-4.68a7.44,7.44,0,0,0-1.67-.18Z"/><path class="cls-2" d="M86.32,141.84q0-10.74,0-21.49c0-1.51.28-1.79,1.78-1.79h29.13c1.4,0,1.63.24,1.63,1.65q0,2.45,0,4.91c0,1.14-.33,1.48-1.5,1.48H97.17c-1.26,0-1.51.25-1.51,1.51q0,3.78,0,7.57c0,1.18.36,1.53,1.55,1.53h18.67c1.46,0,1.7.24,1.7,1.67s0,3.17,0,4.75c0,1.25-.27,1.52-1.51,1.52H97.39c-1.45,0-1.74.29-1.74,1.75q0,4.35,0,8.69c0,1.21.36,1.57,1.6,1.57h20c1.44,0,1.65.21,1.65,1.61,0,1.64,0,3.27,0,4.91,0,1.09-.32,1.42-1.37,1.42H87.79c-1.12,0-1.47-.4-1.47-1.62Q86.32,152.67,86.32,141.84Z"/><path class="cls-2" d="M177.74,118.57H181c1.3,0,1.66.25,2.16,1.49l4.57,11.51q5,12.68,10.05,25.35a4.27,4.27,0,0,1,.33,1.64c0,1.74,0,3.49,0,5.23,0,1-.34,1.31-1.31,1.32-1.45,0-2.9,0-4.35,0-1.22,0-1.46-.16-1.9-1.3-.92-2.38-1.86-4.74-2.73-7.14a2.16,2.16,0,0,0-2.15-1.51q-7.8-.06-15.61,0a2.26,2.26,0,0,0-2.24,1.63c-.83,2.3-1.73,4.56-2.61,6.84-.5,1.31-.76,1.47-2.14,1.47s-2.79,0-4.18,0a1.18,1.18,0,0,1-1.35-1.33c0-1.82,0-3.65,0-5.47a2.9,2.9,0,0,1,.27-1.08l10.83-27.29,4-10.1c.43-1.08.71-1.27,1.86-1.27Zm0,28.62c1.63,0,3.27,0,4.9,0,1.19,0,1.51-.47,1.1-1.56-.27-.73-.55-1.45-.82-2.18q-2.24-6-4.49-12c-.13-.34-.22-.79-.69-.78s-.5.43-.62.74q-2.67,7.11-5.33,14.22c-.4,1.07-.09,1.52,1,1.53C174.49,147.2,176.13,147.19,177.76,147.19Z"/><path class="cls-2" d="M124.28,141.84q0-10.78,0-21.56c0-1.38.33-1.71,1.71-1.71h5.87c1.34,0,1.77.44,1.77,1.79q0,17.42,0,34.84c0,1.88.09,2,1.94,2h18.26c1.37,0,1.7.33,1.7,1.72,0,1.58,0,3.16,0,4.75,0,1.07-.4,1.48-1.45,1.48h-28.4c-1.1,0-1.4-.32-1.4-1.47Q124.27,152.74,124.28,141.84Z"/><path class="cls-2" d="M214.77,123.7a6.44,6.44,0,1,1-6.48-6.45A6.52,6.52,0,0,1,214.77,123.7Z"/><path class="cls-2" d="M234.5,117.25a6.47,6.47,0,0,1,6.43,6.43,6.42,6.42,0,1,1-12.83,0A6.44,6.44,0,0,1,234.5,117.25Z"/><path class="cls-2" d="M221.58,148.06a6.39,6.39,0,1,1,6.41-6.28A6.4,6.4,0,0,1,221.58,148.06Z"/></g></g></g></g></svg>