<svg xmlns="http://www.w3.org/2000/svg" viewBox="0 0 283.46 283.46"><defs><style>.cls-1{fill:#cae500;}.cls-2{fill:#fff;}</style></defs><g id="Layer_2" data-name="Layer 2"><g id="Relax_Rebel_Retro" data-name="Relax &amp; Rebel &amp; Retro"><g id="relax"><rect class="cls-1" width="283.46" height="283.46"/><g id="logo"><path class="cls-2" d="M207.53,166.21a1.68,1.68,0,0,0-.8-.34,6.2,6.2,0,0,1-4.75-5.39,6.13,6.13,0,0,1,3-6.26,6.31,6.31,0,0,1,7.05.18,6.13,6.13,0,0,1,2.64,6.39,6.22,6.22,0,0,1-4.77,5.1,1.43,1.43,0,0,0-.72.32Z"/><path class="cls-2" d="M233.6,166.21a1.09,1.09,0,0,0-.7-.34,6.41,6.41,0,1,1,7.89-7.48c.8,3-1.53,6.72-4.69,7.48a1.6,1.6,0,0,0-.89.34Z"/><path class="cls-2" d="M42.52,141.79V120.3c0-1.43.31-1.73,1.76-1.73,7,0,14.11,0,21.16,0a18.37,18.37,0,0,1,9.78,2.49A12.21,12.21,0,0,1,81,130.51a15,15,0,0,1-1,7.8,12.78,12.78,0,0,1-7.93,7.28c-1,.35-1.12.62-.47,1.47,2.55,3.35,5.09,6.71,7.66,10a2.7,2.7,0,0,1,.61,1.77c0,1.58,0,3.16,0,4.75,0,1.11-.39,1.48-1.51,1.49-.88,0-1.77,0-2.65,0A2.86,2.86,0,0,1,73.42,164q-6.14-8-12.29-16a3.18,3.18,0,0,0-2.75-1.38c-1.71,0-3.43,0-5.15,0-1,0-1.33.29-1.33,1.35,0,5.15,0,10.3,0,15.45,0,1.42-.33,1.74-1.76,1.74h-6c-1.2,0-1.58-.38-1.58-1.6Zm17.33-15.18H53.17c-.92,0-1.26.31-1.27,1.17,0,3.17,0,6.33,0,9.5a1.1,1.1,0,0,0,1.18,1.23c4.45,0,8.91.08,13.35,0,3.21-.09,4.86-1.67,5.32-4.65a9.09,9.09,0,0,0,0-2.33c-.32-2.72-1.56-4.07-4.21-4.68a7.33,7.33,0,0,0-1.68-.18Z"/><path class="cls-2" d="M86.32,141.84V120.35c0-1.5.28-1.78,1.78-1.78h29.13c1.4,0,1.63.23,1.63,1.64,0,1.64,0,3.27,0,4.91,0,1.15-.32,1.48-1.49,1.48-3.33,0-6.66,0-10,0H97.17c-1.27,0-1.51.25-1.51,1.51q0,3.78,0,7.56c0,1.18.36,1.53,1.54,1.53h18.67c1.46,0,1.7.24,1.7,1.67v4.75c0,1.25-.27,1.53-1.51,1.53H97.39c-1.45,0-1.73.29-1.74,1.75,0,2.9,0,5.79,0,8.69,0,1.22.36,1.57,1.59,1.57h20c1.44,0,1.65.21,1.65,1.61,0,1.64,0,3.27,0,4.91,0,1.09-.31,1.42-1.37,1.42H87.79c-1.12,0-1.47-.4-1.47-1.62Z"/><path class="cls-2" d="M177.74,118.57H181c1.3,0,1.66.25,2.15,1.49q2.29,5.75,4.57,11.51l10,25.35a4,4,0,0,1,.33,1.64c0,1.74,0,3.49,0,5.23,0,1-.34,1.31-1.31,1.32H192.4c-1.22,0-1.46-.16-1.91-1.3-.91-2.38-1.85-4.74-2.73-7.14a2.16,2.16,0,0,0-2.15-1.51q-7.8-.06-15.61,0a2.26,2.26,0,0,0-2.23,1.64c-.83,2.29-1.73,4.56-2.61,6.84-.5,1.3-.76,1.47-2.14,1.47h-4.18c-.91,0-1.35-.43-1.35-1.33,0-1.82,0-3.65,0-5.47a3,3,0,0,1,.27-1.09l10.83-27.29q2-5,4-10.09c.43-1.08.71-1.27,1.86-1.27Zm0,28.62c1.64,0,3.27,0,4.91,0,1.19,0,1.51-.47,1.1-1.56-.27-.73-.55-1.45-.82-2.18q-2.25-6-4.49-12c-.13-.34-.22-.79-.69-.78s-.5.43-.62.74q-2.67,7.11-5.33,14.22c-.4,1.07-.1,1.51,1,1.52C174.49,147.2,176.13,147.19,177.76,147.19Z"/><path class="cls-2" d="M124.28,141.84V120.28c0-1.38.33-1.71,1.7-1.71h5.88c1.34,0,1.77.44,1.77,1.79V155.2c0,1.88.09,2,1.94,2h18.26c1.37,0,1.7.33,1.7,1.71,0,1.59,0,3.17,0,4.75,0,1.07-.4,1.48-1.45,1.48h-28.4c-1.1,0-1.4-.32-1.4-1.47Q124.26,152.74,124.28,141.84Z"/><path class="cls-2" d="M214.77,123.7a6.44,6.44,0,1,1-6.49-6.45A6.52,6.52,0,0,1,214.77,123.7Z"/><path class="cls-2" d="M234.5,117.25a6.48,6.48,0,0,1,6.43,6.43,6.42,6.42,0,1,1-12.83,0A6.44,6.44,0,0,1,234.5,117.25Z"/><path class="cls-2" d="M221.58,148.06a6.39,6.39,0,1,1,6.41-6.28A6.4,6.4,0,0,1,221.58,148.06Z"/></g></g></g></g></svg>