<svg xmlns="http://www.w3.org/2000/svg" viewBox="0 0 283.46 283.46"><defs><style>.cls-1{fill:#3b9fae;}.cls-2{fill:#fff;}</style></defs><g id="Layer_2" data-name="Layer 2"><g id="Relax_Rebel_Retro" data-name="Relax &amp; Rebel &amp; Retro"><g id="retromusictv"><rect class="cls-1" width="283.46" height="283.46"/><g id="logo"><path class="cls-2" d="M63.73,127.29H51.88l-.62.63v10l.62.62H63.73c3.74,0,6.24-1.25,6.24-5.65s-2.5-5.65-6.24-5.65m5.61,18.21v.62l8.11,10.68v6.28l-.62.63H73.08l-1.24-.63L59.36,146.75l-1.24-.63H51.88l-.62.63v16.33l-.63.63H43.15l-.63-.63v-42.7l.63-.63H63.73c8.73,0,15,4.4,15,13.19,0,6.91-4.37,11.3-9.36,12.56"/><path class="cls-2" d="M87.4,141.29l10.18-5.92.76.44v11.84l-.76.44L87.4,142.17Z"/><path class="cls-2" d="M153,127.29H140.49l-.63.63v35.16l-.62.63h-7.49l-.62-.63V127.92l-.63-.63H118l-.62-.63v-6.28l.62-.63H153l.61.63v6.28l-.61.63Z"/><path class="cls-2" d="M179,127.29H167.19l-.62.63v10l.62.62H179c3.74,0,6.24-1.25,6.24-5.65s-2.5-5.65-6.24-5.65m5.61,18.21v.62l8.11,10.68v6.28l-.62.63H188.4l-1.25-.63-12.48-16.33-1.24-.63h-6.24l-.62.63v16.33l-.63.63h-7.48l-.63-.63v-42.7l.63-.63H179c8.73,0,15,4.4,15,13.19,0,6.91-4.37,11.3-9.36,12.56"/><path class="cls-2" d="M219.74,126.66c-8.11,0-12.47,6.29-12.47,15.07s4.36,15.07,12.47,15.07,12.46-6.28,12.46-15.07-4.35-15.07-12.46-15.07m0,37.68c-13.1,0-21.2-9.42-21.2-22.61s8.1-22.6,21.2-22.6,21.2,9.42,21.2,22.6-8.1,22.61-21.2,22.61"/><path class="cls-2" d="M113.15,132.34l-.62.63H105l-.62-.63v-4.42l-.63-.63H83.06l-.62-.63v-6.27l.62-.63h29.47l.62.63v12Z"/><path class="cls-2" d="M113.15,163.08l-.62.62H83.06l-.62-.62V156.8l.62-.64h20.73l.63-.62v-4.41l.62-.63h7.49l.62.63v12Z"/></g></g></g></g></svg>