<svg xmlns="http://www.w3.org/2000/svg" viewBox="0 0 283.46 283.46"><defs><style>.cls-1{fill:#1b1676;}.cls-2{fill:#fff;}</style></defs><g id="Layer_2" data-name="Layer 2"><g id="Slovakia"><g id="rtvs24"><rect class="cls-1" width="283.46" height="283.46"/><g id="logo"><path class="cls-2" d="M136.51,154.9c5-2.9,24.78-12,24.78-32.82,0-19.32-18.09-34-38.76-34-19.47,0-36.4,14.16-36.4,14.16s.18.61,4.93,12.54a7.62,7.62,0,0,0,11,4.35c6.34-3.11,14.17-7.33,20.5-7.33,8.43,0,14.16,5.63,14.16,11.69,0,8-8.42,11.47-22.55,19.32S84.58,162.3,84.58,183v4.85a7.54,7.54,0,0,0,7.54,7.54h68.22V178.69a6.13,6.13,0,0,0-6.13-6.12H111.13c0-4.75,13.73-10.91,25.38-17.7"/><path class="cls-2" d="M57.25,108.84A14.45,14.45,0,1,0,71.4,123.57a2.62,2.62,0,0,0,0-.28,14.38,14.38,0,0,0-14.16-14.45"/><path class="cls-2" d="M57.25,152.57A14.44,14.44,0,1,0,71.4,167.29a2.62,2.62,0,0,0,0-.28,14.37,14.37,0,0,0-14.16-14.44"/><path class="cls-2" d="M235,150.23h-4v-17.7h-16.5a6.12,6.12,0,0,0-6.12,6.12v11.61H190.14l20.5-46.58a6.12,6.12,0,0,0-3.15-8.07h0L192.34,89,165.4,150.12v15.61a7.54,7.54,0,0,0,7.5,7.08h35.4v22.34h16.54A6.12,6.12,0,0,0,231,189V172.81h10V156.35a6.11,6.11,0,0,0-5.91-6.12"/></g></g></g></g></svg>