<?xml version="1.0" encoding="utf-8"?>
<!-- Generator: Adobe Illustrator 26.0.3, SVG Export Plug-In . SVG Version: 6.00 Build 0)  -->
<svg version="1.1" id="svg2" xmlns="http://www.w3.org/2000/svg" xmlns:xlink="http://www.w3.org/1999/xlink" x="0px" y="0px"
	 viewBox="0 0 574.54 574.54" style="enable-background:new 0 0 574.54 574.54;" xml:space="preserve">
<style type="text/css">
	.st0{clip-path:url(#SVGID_00000003078718671830747780000005264649547130654115_);}
	.st1{fill:#FFFFFF;}
</style>
<g>
	<defs>
		<rect id="SVGID_1_" width="574.54" height="574.54"/>
	</defs>
	<use xlink:href="#SVGID_1_"  style="overflow:visible;fill:#1B1676;"/>
	<clipPath id="SVGID_00000118395362329293754340000014952150271479639231_">
		<use xlink:href="#SVGID_1_"  style="overflow:visible;"/>
	</clipPath>
	<g style="clip-path:url(#SVGID_00000118395362329293754340000014952150271479639231_);">
		<path class="st1" d="M274.54,318.07c11.66-6.73,57.49-27.76,57.49-76.13c0-44.84-41.97-78.92-89.93-78.92
			c-45.17,0-84.42,32.85-84.42,32.85s0.41,1.4,11.42,29.07c2.98,9.33,12.96,14.49,22.29,11.51c1.13-0.36,2.22-0.83,3.25-1.41
			c14.7-7.23,32.85-17,47.55-17c19.55,0,32.85,13.06,32.85,27.1c0,18.64-19.55,26.61-52.31,44.84s-68.66,45.25-68.66,93.29v11.25
			c0,9.66,7.83,17.49,17.49,17.49h0h158.25v-38.76c0-7.85-6.36-14.21-14.21-14.21h-99.95c0-11,31.86-25.29,58.88-41.06"/>
		<path class="st1" d="M90.66,211.22c-18.5-0.36-33.79,14.34-34.16,32.84c-0.36,18.5,14.34,33.79,32.84,34.16
			c18.5,0.36,33.79-14.34,34.16-32.84c0-0.22,0.01-0.43,0.01-0.65C123.61,226.44,108.95,211.49,90.66,211.22"/>
		<path class="st1" d="M90.66,312.65c-18.5-0.36-33.79,14.34-34.16,32.84c-0.36,18.5,14.34,33.79,32.84,34.16
			c18.5,0.36,33.79-14.34,34.16-32.84c0-0.22,0.01-0.43,0.01-0.65C123.61,327.87,108.95,312.92,90.66,312.65"/>
		<path class="st1" d="M503.09,307.23h-9.2v-41.06h-38.27c-7.85,0-14.21,6.36-14.21,14.21c0,0,0,3.53,0,9.61v17.33h-42.46
			l47.55-108.08c3.15-7.18-0.11-15.57-7.3-18.72c0,0-0.01,0-0.01,0l-35.15-15.36l-62.5,141.83l0,0v21.19c0,0.9,0,1.89,0,2.79v11.25
			c0,0,0,0.66,0,0.99l0,0l0,0c0.56,9.21,8.18,16.4,17.41,16.42h82.12v51.82h38.35c7.85,0,14.21-6.36,14.21-14.21
			c0,0,0-17.33,0-37.61h23.16v-38.19C516.81,313.78,510.75,307.49,503.09,307.23"/>
	</g>
</g>
</svg>
