<?xml version="1.0" encoding="UTF-8" standalone="no"?>
<svg
   xmlns:dc="http://purl.org/dc/elements/1.1/"
   xmlns:cc="http://creativecommons.org/ns#"
   xmlns:rdf="http://www.w3.org/1999/02/22-rdf-syntax-ns#"
   xmlns:svg="http://www.w3.org/2000/svg"
   xmlns="http://www.w3.org/2000/svg"
   xmlns:sodipodi="http://sodipodi.sourceforge.net/DTD/sodipodi-0.dtd"
   xmlns:inkscape="http://www.inkscape.org/namespaces/inkscape"
   id="svg2"
   width="1697.2346"
   height="429.22101"
   viewBox="0 0 1697.2347 429.22099"
   version="1.1"
   sodipodi:docname="Šport_(red).svg"
   inkscape:version="0.92.3 (2405546, 2018-03-11)">
  <metadata
     id="metadata23">
    <rdf:RDF>
      <cc:Work
         rdf:about="">
        <dc:format>image/svg+xml</dc:format>
        <dc:type
           rdf:resource="http://purl.org/dc/dcmitype/StillImage" />
        <dc:title></dc:title>
      </cc:Work>
    </rdf:RDF>
  </metadata>
  <sodipodi:namedview
     id="namedview203"
     pagecolor="#ffffff"
     bordercolor="#666666"
     borderopacity="1.0"
     inkscape:pageshadow="2"
     inkscape:pageopacity="0.0"
     inkscape:pagecheckerboard="0"
     showgrid="false"
     height="512px"
     inkscape:zoom="0.20977782"
     inkscape:cx="501.73282"
     inkscape:cy="353.24311"
     inkscape:window-width="1280"
     inkscape:window-height="712"
     inkscape:window-x="-4"
     inkscape:window-y="-4"
     inkscape:window-maximized="1"
     inkscape:current-layer="svg2"
     fit-margin-top="0"
     fit-margin-left="0"
     fit-margin-right="0"
     fit-margin-bottom="0" />
  <defs
     id="defs178">
    <style
       id="style176">
      .cls-1 {
        fill: red;
      }

      .cls-2 {
        fill: #fff;
      }
    </style>
  </defs>
  <g
     id="g200"
     transform="matrix(13.242058,0,0,13.242058,-191.87742,-198.62967)"
     style="fill:#ff2a2a">
    <path
       class="cls-2"
       d="M 19.33,31.8 A 4.77,4.77 0 1 0 14.6,27 a 4.75,4.75 0 0 0 4.73,4.8 z m 0,4.89 a 4.78,4.78 0 1 0 4.72,4.78 4.76,4.76 0 0 0 -4.72,-4.78 z"
       id="path184"
       style="fill:#ff0000;fill-opacity:1"
       inkscape:connector-curvature="0" />
    <g
       id="g198"
       style="fill:#ff0000;fill-opacity:1">
      <path
         class="cls-2"
         d="M 86,21.73 A 12.5,12.5 0 0 0 73.28,34.37 v 0.08 A 12.65,12.65 0 1 0 98.57,34.37 V 34.3 A 12.38,12.38 0 0 0 86,21.73 Z m 6.8,12.72 c 0,4.2 -2.94,7.38 -6.84,7.38 a 6.58,6.58 0 0 1 -5,-2.26 7.86,7.86 0 0 1 -1.89,-5.2 V 34.3 c 0,-4.21 2.93,-7.38 6.81,-7.38 a 6.57,6.57 0 0 1 5,2.26 7.79,7.79 0 0 1 1.9,5.19 z"
         id="path186"
         style="fill:#ff0000;fill-opacity:1"
         inkscape:connector-curvature="0" />
      <path
         class="cls-2"
         d="m 121.11,30.34 a 7.66,7.66 0 0 0 -2,-5.52 c -1.58,-1.71 -4.07,-2.58 -7.4,-2.58 h -9.81 v 24.27 h 3.93 A 1.56,1.56 0 0 0 107.39,45 v -6 a 0.21,0.21 0 0 1 0.21,-0.22 h 2.57 a 0.21,0.21 0 0 1 0.19,0.11 l 0.11,0.17 4.66,7.43 h 4.77 a 0.82,0.82 0 0 0 0.69,-1.27 l -4.32,-6.7 -0.23,-0.36 a 0.19,0.19 0 0 1 0,-0.18 0.2,0.2 0 0 1 0.12,-0.13 l 0.39,-0.18 a 7.47,7.47 0 0 0 4.59,-7.28 z m -5.52,0.51 c 0,2.22 -1.59,3.6 -4.14,3.6 h -3.85 a 0.21,0.21 0 0 1 -0.21,-0.22 v -6.84 a 0.21,0.21 0 0 1 0.21,-0.21 h 3.81 c 2.66,0 4.18,1.31 4.18,3.6 z"
         id="path188"
         style="fill:#ff0000;fill-opacity:1"
         inkscape:connector-curvature="0" />
      <path
         class="cls-2"
         d="M 133.89,46.51 A 1.56,1.56 0 0 0 135.45,45 V 27.47 a 0.21,0.21 0 0 1 0.21,-0.22 h 7 V 23.8 a 1.56,1.56 0 0 0 -1.56,-1.56 h -18.33 v 3.45 a 1.55,1.55 0 0 0 1.55,1.56 h 5.43 a 0.21,0.21 0 0 1 0.21,0.22 v 19 z"
         id="path190"
         style="fill:#ff0000;fill-opacity:1"
         inkscape:connector-curvature="0" />
      <path
         class="cls-2"
         d="m 46.38,15 h -4.5 a 0.59,0.59 0 0 0 -0.47,0.22 l -0.49,0.58 a 1.25,1.25 0 0 1 -1,0.46 h -0.1 a 1.27,1.27 0 0 1 -1,-0.46 L 38.34,15.21 A 0.64,0.64 0 0 0 37.87,15 h -4.5 a 0.1,0.1 0 0 0 -0.09,0.05 0.11,0.11 0 0 0 0,0.11 l 2,2.59 a 5.17,5.17 0 0 0 4.1,2 h 0.87 a 5.16,5.16 0 0 0 4.1,-2 l 2,-2.59 a 0.09,0.09 0 0 0 0,-0.11 0.08,0.08 0 0 0 0.03,-0.05 z"
         id="path192"
         style="fill:#ff0000;fill-opacity:1"
         inkscape:connector-curvature="0" />
      <path
         class="cls-2"
         d="m 61.57,39.24 a 10.79,10.79 0 0 0 7,-2.19 8,8 0 0 0 2.71,-6.38 v -0.08 a 7.92,7.92 0 0 0 -2.51,-6.14 10.2,10.2 0 0 0 -6.88,-2.21 h -9.7 v 24.27 h 3.93 A 1.56,1.56 0 0 0 57.69,45 v -5.54 a 0.22,0.22 0 0 1 0.22,-0.22 z m -3.88,-4.57 v -7.46 a 0.22,0.22 0 0 1 0.22,-0.22 h 3.49 a 4.81,4.81 0 0 1 3.2,1 3.71,3.71 0 0 1 1.22,2.93 V 31 c 0,2.37 -1.72,3.9 -4.39,3.9 h -3.52 a 0.22,0.22 0 0 1 -0.22,-0.23 z"
         id="path194"
         style="fill:#ff0000;fill-opacity:1"
         inkscape:connector-curvature="0" />
      <path
         class="cls-2"
         d="m 49.25,39.17 a 5.68,5.68 0 0 0 -2.19,-4.81 c -1.33,-1.06 -3.28,-1.84 -6.31,-2.54 -3.03,-0.7 -4.6,-1.3 -4.6,-3 V 28.7 c 0,-1.34 1.17,-2.21 3,-2.21 A 11.31,11.31 0 0 1 44.48,28 1.56,1.56 0 0 0 46.54,27.51 L 48.4,24.72 A 14.15,14.15 0 0 0 39.31,21.81 9.42,9.42 0 0 0 32.89,24 7,7 0 0 0 30.6,29.41 v 0.07 c 0,4.94 3.9,6.29 8.6,7.43 3.45,0.84 4.5,1.54 4.5,3 v 0.07 c 0,1.46 -1.25,2.33 -3.33,2.33 a 12,12 0 0 1 -6.55,-2 A 1.55,1.55 0 0 0 33,40 1.58,1.58 0 0 0 31.77,40.59 l -2.08,2.64 a 15.76,15.76 0 0 0 10.45,3.69 c 5.62,0 9.12,-2.95 9.12,-7.7 z"
         id="path196"
         style="fill:#ff0000;fill-opacity:1"
         inkscape:connector-curvature="0" />
    </g>
  </g>
</svg>
