<svg xmlns="http://www.w3.org/2000/svg" xmlns:xlink="http://www.w3.org/1999/xlink" viewBox="0 0 283.46 283.46"><defs><style>.cls-1{fill:url(#radial-gradient);}.cls-2{fill:#fff;}</style><radialGradient id="radial-gradient" cx="141.73" cy="141.73" r="141.73" gradientUnits="userSpaceOnUse"><stop offset="0" stop-color="#ee1a28"/><stop offset="0.12" stop-color="#cf1520"/><stop offset="0.3" stop-color="#aa0e17"/><stop offset="0.48" stop-color="#8d090f"/><stop offset="0.66" stop-color="#79050a"/><stop offset="0.83" stop-color="#6c0307"/><stop offset="1" stop-color="#680206"/></radialGradient></defs><g id="Layer_2" data-name="Layer 2"><g id="Ostatní_muzika" data-name="Ostatní muzika"><g id="senzi"><rect class="cls-1" width="283.46" height="283.46"/><g id="logo"><path class="cls-2" d="M63.59,191.46c-6.75,0-11.86-1.53-16.06-5.44-8-7.46-6.16-20.67,3.84-26.41a18.7,18.7,0,0,1,6.18-1.91,3.78,3.78,0,0,1,4,2.45,4.39,4.39,0,0,1-.44,4.91,10.74,10.74,0,0,1-2.45,2.16c-4.16,2.63-5.34,5-4.19,8.81,1,3.38,4.28,5.48,8.48,5.2a24.8,24.8,0,0,0,17.14-8.09,10.26,10.26,0,0,0,.29-13.93c-3.72-4.5-7.79-8.71-11.67-13.09-3.23-3.65-6.32-7.41-7.77-12.2a28.55,28.55,0,0,1,1.92-21.28A56.74,56.74,0,0,1,90.48,85.37a27.6,27.6,0,0,1,7.62-2.23c9.15-1.37,15.39,5.3,13.8,14.59-1,5.55-3.62,10.32-6.85,14.83A60.15,60.15,0,0,1,89,128.2a19.41,19.41,0,0,1-5.32,2.43,5.32,5.32,0,0,1-6-2.74c-1-2-.55-4.16,1.39-6a18.41,18.41,0,0,1,3.22-2.32,47.16,47.16,0,0,0,17.12-16.4,16.9,16.9,0,0,0,2.21-5.93c.45-2.89-1.43-4.33-4.28-3.61a17.35,17.35,0,0,0-3.59,1.25c-9.5,4.91-16.89,11.88-21.11,21.89-3.23,7.64-2.3,14.72,3.16,21,4.5,5.21,9.18,10.27,13.68,15.48a21,21,0,0,1,4.92,9.82c1.11,5.73-.85,10.63-4.34,15A35.07,35.07,0,0,1,63.59,191.46Z"/><path class="cls-2" d="M157.25,151.11c-2,4.34-4,8.66-5.94,13-.92,2.12-1.49,4.39-2.46,6.48-1.49,3.19-3.91,4.55-6.39,3.87s-4.21-3.11-3.56-6.66a141,141,0,0,1,3.74-15.3c1.8-6,3.93-11.85,6.07-17.71a24.85,24.85,0,0,1,2.83-5.34c1.45-2.16,3.31-2.77,5.19-2.07a5,5,0,0,1,3.33,5.14c0,.33,0,.66,0,1.25,2-2.13,3.71-4.17,5.62-6a29.87,29.87,0,0,1,4.33-3.44c1.84-1.21,3.93-1.69,5.86-.28s2.26,3.73,1.69,6a16.68,16.68,0,0,1-1.78,4.12c-3.64,6.35-7,12.84-8.2,20.13a31.74,31.74,0,0,0-.13,9.63c.34,2.2,1.73,4.37,3.07,6.27,2,2.83,2.33,4.6.56,6.68s-4.68,2.37-7.25.71a14.27,14.27,0,0,1-5.58-7.74c-2-5.7-1.68-11.49-.5-17.3.08-.39.13-.78.19-1.17Z"/><path class="cls-2" d="M98.1,165.32c.06-9.09,3.27-16.24,7.8-22.9,3.17-4.67,6.6-9.12,11.71-11.88,2.21-1.19,4.54-2,7.14-1.36a6.22,6.22,0,0,1,5,5.71,22.42,22.42,0,0,1-.66,6.84c-2.93,10.33-9.49,17.82-18.68,23.15-1.63,1-1.81,2.08-.16,3a7.57,7.57,0,0,0,4.25.83c3.74-.44,6.72-2.6,9.07-5.36,2.87-3.37,5.36-7.08,8-10.64a33.1,33.1,0,0,1,2.75-3.54,3.31,3.31,0,0,1,4.14-.67,3.66,3.66,0,0,1,2,4.07,10.24,10.24,0,0,1-.9,2.79c-4.58,8.86-10.69,16.39-19.35,21.51a23.92,23.92,0,0,1-7.75,2.79c-7.09,1.3-12.66-2.81-13.9-10C98.29,168,98.2,166.22,98.1,165.32Zm22.17-24.48c-5,3.45-7.71,8.4-9.46,14A24.85,24.85,0,0,0,120.27,140.84Z"/><path class="cls-2" d="M195.45,127.65a71.17,71.17,0,0,1-7.85,1.25,10.4,10.4,0,0,1-4.79-1.06,4.8,4.8,0,0,1-2.2-5.39,4.28,4.28,0,0,1,4.3-3.39c6.91,0,13.34-1.85,19.64-4.45,2.13-.88,4.35-1.3,6.52,0a4.75,4.75,0,0,1,2.19,6.38,18.25,18.25,0,0,1-2.93,4.24c-7,8-14.11,15.95-19.1,25.47l-.93,1.79c3-.73,5.9-1.58,8.88-2.11a14.14,14.14,0,0,1,4.81.07c3.13.55,4.95,2.94,4.62,5.71a5.17,5.17,0,0,1-6.05,4.63c-5.05-.62-9.47,1-13.69,3.4-1.8,1-3.4,2.49-5.28,3.3a8,8,0,0,1-4.49.5,4.54,4.54,0,0,1-3.55-6.23,94,94,0,0,1,5.37-12.36A130.74,130.74,0,0,1,195.45,127.65Z"/><path class="cls-2" d="M209.38,157.59c1.09-10.12,3.13-20.75,7.41-30.85q2.24-5.25,4.72-10.41a13,13,0,0,1,2.25-3.26,4.38,4.38,0,0,1,5.26-.78,4,4,0,0,1,1.93,4.9c-.95,2.84-2.08,5.63-3.23,8.39a127.36,127.36,0,0,0-8.34,32.1c-.08.58-.19,1.14-.31,1.71-.68,3.3-2.7,5-5.63,4.63C210.9,163.74,209.31,161.52,209.38,157.59Z"/><path class="cls-2" d="M226.65,94.71a15.21,15.21,0,0,1,6.48-11.31c3.63-2.53,7.77-.31,7.81,4.11.05,4.83-2.22,8.65-5.84,11.65a5,5,0,0,1-5.68.78A5.12,5.12,0,0,1,226.65,94.71Z"/><path class="cls-2" d="M151.11,185.68H160c.51,1.4.16,2-1.34,1.91-1.89-.08-3.79,0-5.79,0v4.54h6.68V194h-6.69v5.11h7.49v1.92h-9.23Z"/><path class="cls-2" d="M172.58,185.7h8.95v1.81h-7.16v4.59h6.68l.17,1.86h-6.87V199h7.44l.12,2h-9.33Z"/><path class="cls-2" d="M209.65,199v2H199.47a12.19,12.19,0,0,1,.89-2.77c2.18-3.46,4.46-6.87,6.94-10.66h-5.47c-.69,0-1.42.12-1.43-1s.74-1,1.43-1h8a12.3,12.3,0,0,1-.93,2.91c-2.19,3.46-4.49,6.84-6.92,10.51Z"/><path class="cls-2" d="M226.81,200.91c-1.35.44-2,.2-2.4-1.06-1.15-3.61-1.2-3.56-5-3.48-.9,0-1.37.29-1.57,1.16s-.49,1.55-.65,2.33c-.24,1.17-.85,1.56-2.16,1,.79-2.54,1.58-5.1,2.38-7.66.69-2.2,1.34-4.41,2.11-6.58a1.7,1.7,0,0,1,1.11-1,1.54,1.54,0,0,1,1.26.74C223.55,191.18,225.15,196,226.81,200.91Zm-6.07-13c-.72,2.41-1.34,4.44-2,6.57h4C222.09,192.37,221.48,190.35,220.74,188Z"/><path class="cls-2" d="M188.63,198.81c1.3-4.23,2.53-8.07,3.64-11.95.34-1.18.89-1.51,2.15-1-1.57,4.88-3.12,9.75-4.74,14.6-.11.33-.77.63-1.19.64a1.28,1.28,0,0,1-1-.72c-1.57-4.81-3.09-9.64-4.63-14.5,1.25-.51,1.88-.28,2.24,1C186.21,190.75,187.39,194.61,188.63,198.81Z"/><path class="cls-2" d="M149.27,185.59v2h-4.06v9.16a25,25,0,0,1,0,3.12c-.06.46-.57.86-.87,1.3-.31-.43-.88-.86-.89-1.29-.07-3.52,0-7.05,0-10.57,0-.51-.06-1-.1-1.7a27.43,27.43,0,0,1-3.16,0,1.29,1.29,0,0,1-.8-1c0-.32.53-.92.83-.92C143.12,185.57,146.12,185.59,149.27,185.59Z"/><path class="cls-2" d="M162.51,201c0-4.93,0-9.71.05-14.5,0-.37.81-.73,1.24-1.1l.45.37v13.28h6.09l.12,2Z"/><path class="cls-2" d="M197.81,185.77V201c-1,.28-1.68.27-1.66-1.07q.06-6.52,0-13C196.13,185.7,196.6,185.42,197.81,185.77Z"/><path class="cls-2" d="M213.41,201h-1.56V185.75l1.56-.16Z"/><path class="cls-2" d="M195.9,184.73c.92-1.5.59-3.67,3.31-2.89C198.27,182.92,198.24,184.66,195.9,184.73Z"/></g></g></g></g></svg>