<svg xmlns="http://www.w3.org/2000/svg" viewBox="0 0 283.46 283.46"><defs><style>.cls-1{fill:#fff;}.cls-2{fill:#de0a17;fill-rule:evenodd;}</style></defs><g id="Layer_2" data-name="Layer 2"><g id="Ostatní_CZ_kanály" data-name="Ostatní CZ kanály"><g id="seznamcz"><rect class="cls-1" width="283.46" height="283.46"/><path id="logo" class="cls-2" d="M143.77,53.37c-10.23,1.65-20.47,3.25-30.53,5.82C102.15,62,90.75,65.82,81.49,72.74c-9.72,7.27-19.07,20.4-13.87,32.9,2.58,6.22,7.68,11,13,14.87a134.53,134.53,0,0,0,20.13,12,344.69,344.69,0,0,0,44.39,18.35c7.78,2.57,15.63,5,23.34,7.77,7,2.51,14.06,5,20.49,8.73,6,3.54,11.31,9.26,11.49,16.64.16,6.87-5.06,12.33-10.35,16-6.14,4.25-13.4,6.8-20.34,9.39-7.38,2.76-14.89,5.13-22.45,7.34-15.73,4.6-31.64,8.73-47.64,12.25-15.44,3.4-31,6.3-46.38,10-.36.09-6.27,1.45-6.18,1.71.26.69,9.1-.58,9.83-.65,6.36-.61,12.69-1.35,19-2.13,20.82-2.55,41.65-5.67,62.26-9.58a403.38,403.38,0,0,0,56.11-14.84,178.91,178.91,0,0,0,18.45-7.21c6.5-3.06,13.13-6.62,17.64-12.4a27,27,0,0,0,4.71-24.51c-2.88-9.31-10.87-16.1-18.73-21.34-17.33-11.56-38-16.38-57.5-23-9-3-18.56-6.49-26.36-12-2.78-2-5.47-5.29-2.71-8.52s8.25-4.13,12-5.09C152.11,96.78,162.64,95,173,92.68c7.65-1.69,18.07-3.59,23.12-10.32,5.67-7.55.86-18.46-3.63-25.25a136.89,136.89,0,0,0-9.63-13c-1.26-1.49-2.54-2.09-4.32-1.21s-3.45,1.92-5.31,2.68a108.78,108.78,0,0,1-15.87,4.84c-4.51,1.09-9,2-13.6,2.92"/></g></g></g></svg>