<svg xmlns="http://www.w3.org/2000/svg" xmlns:xlink="http://www.w3.org/1999/xlink" viewBox="0 0 283.46 283.46"><defs><style>.cls-1{fill:#fff;}.cls-2{fill:url(#linear-gradient);}.cls-3{fill:url(#linear-gradient-2);}.cls-4{fill:url(#linear-gradient-3);}.cls-5{fill:url(#linear-gradient-4);}.cls-6{fill:url(#linear-gradient-5);}.cls-7{fill:url(#linear-gradient-6);}.cls-8{fill:url(#linear-gradient-7);}.cls-9{fill:url(#linear-gradient-8);}.cls-10{fill:#140087;}.cls-11{fill:#dc0000;}</style><linearGradient id="linear-gradient" x1="184.43" y1="-247.93" x2="201.5" y2="-247.93" gradientTransform="matrix(1.5, 0, 0, -1.5, -232.52, -216.27)" gradientUnits="userSpaceOnUse"><stop offset="0" stop-color="red"/><stop offset="1" stop-color="#ff4b00"/></linearGradient><linearGradient id="linear-gradient-2" x1="187.3" y1="-235.12" x2="187.3" y2="-249.91" gradientTransform="matrix(1.5, 0, 0, -1.5, -232.52, -216.27)" gradientUnits="userSpaceOnUse"><stop offset="0" stop-color="#c80000"/><stop offset="1" stop-color="red"/></linearGradient><linearGradient id="linear-gradient-3" x1="187.28" y1="-244.37" x2="204.95" y2="-244.37" xlink:href="#linear-gradient-2"/><linearGradient id="linear-gradient-4" x1="183.69" y1="-239.04" x2="190.76" y2="-239.04" xlink:href="#linear-gradient"/><linearGradient id="linear-gradient-5" x1="183.56" y1="-231.93" x2="197.96" y2="-231.93" xlink:href="#linear-gradient-2"/><linearGradient id="linear-gradient-6" x1="190.95" y1="-231.93" x2="204.43" y2="-231.93" xlink:href="#linear-gradient"/><linearGradient id="linear-gradient-7" x1="205.3" y1="-239.04" x2="197.89" y2="-239.04" xlink:href="#linear-gradient"/><linearGradient id="linear-gradient-8" x1="205.04" y1="-235.74" x2="197.96" y2="-235.74" xlink:href="#linear-gradient-2"/></defs><g id="Layer_2" data-name="Layer 2"><g id="M7_Group" data-name="M7 Group"><g id="skylink7"><rect class="cls-1" width="283.46" height="283.46"/><g id="logo"><path class="cls-2" d="M47.84,152.18l-4.54,4.54a2.65,2.65,0,0,0,1.88.78H63.81l5.32-5.32Z"/><path class="cls-3" d="M53.16,146.86,42.52,136.21v18.65a2.65,2.65,0,0,0,.78,1.88l4.54-4.56Z"/><polygon class="cls-4" points="47.84 152.18 69.13 152.18 74.45 146.86 53.16 146.86 47.84 152.18"/><polygon class="cls-5" points="42.52 136.21 53.16 146.86 53.16 136.21 42.52 136.21"/><polygon class="cls-6" points="53.16 125.57 42.52 136.21 63.81 136.21 53.16 125.57"/><path class="cls-7" d="M73.67,126.35a2.6,2.6,0,0,0-1.86-.78H53.16l10.65,10.64Z"/><polygon class="cls-8" points="74.45 146.86 74.45 136.21 63.81 146.86 74.45 146.86"/><path class="cls-9" d="M74.45,128.23a2.65,2.65,0,0,0-.78-1.88l-9.86,9.86v10.65l10.64-10.65Z"/><path class="cls-10" d="M84.17,156.17l1.77-4.85a15.14,15.14,0,0,0,5.86,1.58c1.63,0,2.55-.6,2.55-1.53,0-1.25-1.2-1.61-3.16-2.25-3.75-1.16-6.31-2.6-6.31-6.8s2.71-6.53,7.76-6.53a14.9,14.9,0,0,1,7,1.59l-2.36,4.41a11.07,11.07,0,0,0-4.67-1.2c-1.44,0-2.28.5-2.28,1.32,0,1.14.69,1.46,3.87,2.63,3.68,1.32,5.93,3.09,5.93,6.6,0,4.5-3,6.75-8.36,6.75a16.78,16.78,0,0,1-7.56-1.72Z"/><path class="cls-10" d="M115.37,157.49l-7.1-9.41v6.78c0,1.8-.84,2.64-2.64,2.64h-3V136.21h5.69v9.19l5-7a4.79,4.79,0,0,1,4.17-2.16h4.28l-8.11,10.19,8.56,11.08Z"/><path class="cls-10" d="M143.54,136.21l-7.67,13.43v7.85h-5.63v-8.11L132.6,145H130a4.19,4.19,0,0,1-4-2.28l-3.69-6.44h6.59l4.06,7.91,4.2-7.91Z"/><path class="cls-10" d="M160.26,152.48v5h-15V136.21h3.05c1.81,0,2.64.84,2.64,2.64v13.63Z"/><path class="cls-10" d="M162.4,138.85c0-1.8.83-2.64,2.63-2.64h3.06v21.28H162.4Z"/><path class="cls-10" d="M190.46,136.21v21.28h-5.53l-8.46-12.44v12.44H171.2V136.21h5.45l8.56,12.56v-9.86c0-1.8.84-2.64,2.64-2.67Z"/><path class="cls-10" d="M206.41,157.49l-7.1-9.41v6.78c0,1.8-.84,2.64-2.64,2.64h-3.06V136.21h5.7v9.19l5-7a4.76,4.76,0,0,1,4.16-2.16h4.29l-8.11,10.19,8.56,11.08Z"/><path class="cls-11" d="M223.64,136.2v4.86h11.14l.24.6-10,16.24h6.05l9.83-16.36v-1.31l-2.84-4Z"/></g></g></g></g></svg>