<svg xmlns="http://www.w3.org/2000/svg" viewBox="0 0 283.46 283.46"><defs><style>.cls-1{fill:#231f20;}.cls-2{fill:#e31f26;}.cls-3{fill:#fff;}.cls-4{fill:none;stroke:#231f20;stroke-linecap:round;stroke-linejoin:round;stroke-width:14.24px;}</style></defs><title>slagrtv</title><g id="Layer_2" data-name="Layer 2"><g id="Ostatní_muzika" data-name="Ostatní muzika"><g id="slagrtv"><rect class="cls-1" width="283.46" height="283.46"/><g id="logo"><path class="cls-2" d="M239.19,117.35a12.58,12.58,0,0,1-10.53-1.21c-5.42-3-10.65-12.28-22.49-13-6.05-.39-11.76,2-13.22,7.66-2.07,8.07,15.37,27.52,17.28,37.11.15.74.14,1.9-.35,1.68a19.54,19.54,0,0,0-13.6-3.08c-16,2-23.47,12.87-19.77,24s21.21,13,31,5.1a22.86,22.86,0,0,0,7.88-12.17,20,20,0,0,0,.68-6.33c.23-4.69-7.59-23.89-6.78-27.58.56-2.55,2-3.63,5.42-3.62,4.39,0,8.18,5.7,15.22,3.8,4.83-1.3,10.5-6.69,10.92-9.78.21-1.55-.46-2.75-1.72-2.58h0"/><path class="cls-3" d="M194.23,158.44v-3.84h-12v3.84h3.7v17.06h4.63V158.44Zm13.88-3.84h-4.38L202,167.34h-.14l-2.07-12.73h-4.87l4.14,20.9h4.92"/><path class="cls-3" d="M186,127a4.24,4.24,0,0,0-2-2.42c-6-2-8.94,8.28-10.19,11.75a26,26,0,0,0-1.17-9.13c-4-.66-8.75,1.29-11.64,3.19-15.53-3.93-29.52,7.74-27.91,21.82-2.95-3.91-.78-12.38-.88-17-9.95-2.65-21.35.91-26,9a25.93,25.93,0,0,0-2.71,10.86,5.16,5.16,0,0,1-3.7,1.12c-3.44-.83-4-7.24-4.35-11.91,2.15-2.41,5.56-4.93,8-8.39,2.91-4.14,5.12-13.7-4.54-11.34-8.79,2.16-14.56,12.85-15.43,23.9-2.37-3.49-7.56-4.62-12-5.78-3.3-.86-12.2-1.47-12.31-5.76s10.14-4.92,11.77-1.86c.89,1.62-2.22,2.24-1.62,4.61,7.75,3,19.84-3.12,16.54-12-2.18-5.86-13.55-5.45-21.64-3.28C54.68,127,45,134,44.16,142.06c-.91,8.84,9,11.31,14.76,12.75,3.85,1,11.31,1.83,11.13,4.61-2.62,4.93-16.56,3-14.45-4.42-8.7.87-10.92,10.76-6.6,15.46,1.76,1.92,5.63,3.31,8.25,3.42,11.49.48,23.72-5.67,26.78-15.52.14.67.3,1.33.48,2,1.55,5.38,7.11,8.88,13.52,5.8a11.22,11.22,0,0,0,5.63-7.33c.48,3,1.8,5.4,4.39,6,5.74.75,9.28-5.55,11.25-10.27-1.58,11.31,11.85,7.7,14.84,1.73a36.73,36.73,0,0,0,2.45,2.93c-3.51,1.83-7.19,6-4.58,10.87,1.37,2.56,4.9,3.05,7.59,2.91,21.34-1.17,20.91-21.82,21.79-38.31,2.14,7.17.79,14.54.89,21,3.17.08,7.6-.93,10.69-1.69,1.23-5.5,1.19-18.24,4.63-17.45,1.92.74.67,3.81-1.15,4.84,6.83,5.64,11.76-8,9.5-14.38m-88.28,5.76c2,.43-2.25,5.24-2.93,7.53-.45-2.3,1.18-7.49,2.93-7.53m22.21,9.91c-.25,4.23-.19,9.82-3.5,10.2s-4.75-12,3.5-10.2m29.29,6c1.46,3.44-.26,10.08-2.91,12.79s-7.92,3.54-7.19-2.15c6.34-.48,9.08-5.52,10.1-10.64m.22-10.72c-.19,4-1.2,9.74-4.17,10-3.37.27-3.67-10.95,4.17-10m-28-16.67c-1,4.63-4.29,7.6-7,11,8,6.95,22.14-12.76,7-11M76.7,110.42c0-1.16-3.6-1.67-4.51-1-1.41,1.68-1.94,4-4.23,5-1.8-6.14-13.48-3.19-13,2.73,4.34-.92,6.83,5.28,9.59,5.52,2.94.25,5.94-3.23,7.61-4.89,2.23-2.23,4.3-4.46,4.52-7.42"/><path class="cls-4" d="M186,127a4.24,4.24,0,0,0-2-2.42c-6-2-8.94,8.28-10.19,11.75a26,26,0,0,0-1.17-9.13c-4-.66-8.75,1.29-11.64,3.19-15.53-3.93-29.52,7.74-27.91,21.82-2.95-3.91-.78-12.38-.88-17-9.95-2.65-21.35.91-26,9a25.93,25.93,0,0,0-2.71,10.86,5.16,5.16,0,0,1-3.7,1.12c-3.44-.83-4-7.24-4.35-11.91,2.15-2.41,5.56-4.93,8-8.39,2.91-4.14,5.12-13.7-4.54-11.34-8.79,2.16-14.56,12.85-15.43,23.9-2.37-3.49-7.56-4.62-12-5.78-3.3-.86-12.2-1.47-12.31-5.76s10.14-4.92,11.77-1.86c.89,1.62-2.22,2.24-1.62,4.61,7.75,3,19.84-3.12,16.54-12-2.18-5.86-13.55-5.45-21.64-3.28C54.68,127,45,134,44.16,142.06c-.91,8.84,9,11.31,14.76,12.75,3.85,1,11.31,1.83,11.13,4.61-2.62,4.93-16.56,3-14.45-4.42-8.7.87-10.92,10.76-6.6,15.46,1.76,1.92,5.63,3.31,8.25,3.42,11.49.48,23.72-5.67,26.78-15.52.14.67.3,1.33.48,2,1.55,5.38,7.11,8.88,13.52,5.8a11.22,11.22,0,0,0,5.63-7.33c.48,3,1.8,5.4,4.39,6,5.74.75,9.28-5.55,11.25-10.27-1.58,11.31,11.85,7.7,14.84,1.73a36.73,36.73,0,0,0,2.45,2.93c-3.51,1.83-7.19,6-4.58,10.87,1.37,2.56,4.9,3.05,7.59,2.91,21.34-1.17,20.91-21.82,21.79-38.31,2.14,7.17.79,14.54.89,21,3.17.08,7.6-.93,10.69-1.69,1.23-5.5,1.19-18.24,4.63-17.45,1.92.74.67,3.81-1.15,4.84,6.83,5.64,11.76-8,9.5-14.38Z"/><path class="cls-4" d="M97.68,132.79c2,.43-2.25,5.24-2.93,7.53C94.3,138,95.93,132.82,97.68,132.79Z"/><path class="cls-4" d="M119.89,142.69c-.25,4.23-.19,9.82-3.5,10.2S111.64,140.9,119.89,142.69Z"/><path class="cls-4" d="M149.18,148.74c1.46,3.44-.26,10.08-2.91,12.79s-7.92,3.54-7.19-2.15c6.34-.48,9.08-5.52,10.1-10.64Z"/><path class="cls-4" d="M149.41,138c-.2,4-1.2,9.74-4.17,10C141.86,148.26,141.57,137,149.41,138Z"/><path class="cls-4" d="M121.45,121.35c-1,4.63-4.29,7.6-7,11C122.42,139.28,136.56,119.57,121.45,121.35Z"/><path class="cls-4" d="M76.7,110.42c0-1.16-3.6-1.67-4.51-1-1.41,1.68-1.94,4-4.23,5-1.8-6.14-13.48-3.19-13,2.73,4.34-.92,6.83,5.28,9.59,5.52,2.94.25,5.94-3.23,7.61-4.89,2.23-2.23,4.3-4.46,4.52-7.42Z"/><path class="cls-3" d="M184.38,126.62a4.25,4.25,0,0,0-2-2.42c-6-2-8.94,8.28-10.19,11.75a26,26,0,0,0-1.17-9.13c-4-.67-8.75,1.28-11.64,3.19-15.53-3.93-29.52,7.74-27.91,21.82-2.95-3.92-.78-12.38-.88-17-9.95-2.65-21.35.91-26,9a25.9,25.9,0,0,0-2.71,10.86,5.14,5.14,0,0,1-3.7,1.12c-3.44-.83-4-7.23-4.35-11.91,2.15-2.41,5.56-4.93,8-8.39,2.91-4.14,5.12-13.7-4.54-11.34-8.79,2.16-14.56,12.85-15.43,23.9-2.37-3.49-7.56-4.62-12-5.78-3.3-.86-12.2-1.47-12.31-5.76s10.14-4.92,11.77-1.86c.89,1.61-2.22,2.24-1.62,4.61,7.75,3,19.84-3.13,16.54-12-2.17-5.85-13.55-5.45-21.64-3.28-9.49,2.55-19.18,9.57-20,17.59-.91,8.84,9,11.31,14.76,12.75,3.85,1,11.31,1.83,11.13,4.61C65.85,164,51.91,162,54,154.6c-8.7.87-10.92,10.76-6.6,15.47,1.76,1.92,5.63,3.31,8.25,3.42,11.49.48,23.72-5.67,26.78-15.52.14.67.3,1.33.48,2,1.55,5.39,7.11,8.88,13.52,5.8a11.21,11.21,0,0,0,5.63-7.33c.48,3,1.8,5.4,4.39,6,5.74.75,9.29-5.55,11.25-10.27-1.58,11.32,11.85,7.7,14.84,1.74a37.67,37.67,0,0,0,2.45,2.93c-3.51,1.83-7.19,6-4.58,10.86,1.37,2.56,4.9,3.06,7.58,2.91,21.34-1.18,20.91-21.82,21.79-38.31,2.14,7.17.79,14.54.89,21,3.17.07,7.6-.93,10.69-1.69,1.23-5.5,1.19-18.24,4.64-17.45,1.92.74.67,3.81-1.15,4.84,6.83,5.64,11.76-8,9.5-14.38m-88.27,5.76c2,.43-2.25,5.24-2.93,7.53-.45-2.3,1.18-7.49,2.93-7.53m22.21,9.91c-.25,4.23-.19,9.82-3.5,10.2s-4.75-12,3.5-10.2m29.29,6c1.46,3.44-.26,10.09-2.91,12.79s-7.92,3.54-7.19-2.15c6.34-.48,9.08-5.52,10.1-10.64m.22-10.72c-.2,4-1.2,9.74-4.18,10-3.37.27-3.67-10.95,4.18-10m-28-16.67c-1,4.63-4.29,7.6-7,11,8,6.95,22.14-12.76,7-11M75.13,110c0-1.16-3.6-1.67-4.51-1-1.41,1.67-1.94,4-4.23,5-1.8-6.14-13.48-3.19-13,2.73,4.34-.92,6.83,5.28,9.59,5.52,2.94.25,5.94-3.23,7.61-4.89,2.24-2.23,4.3-4.46,4.52-7.42"/></g></g></g></g></svg>