<svg xmlns="http://www.w3.org/2000/svg" viewBox="0 0 283.46 283.46"><defs><style>.cls-1{fill:#231f20;}.cls-2{fill:#e31f26;}.cls-3{fill:#fff;}.cls-4{fill:none;stroke:#231f20;stroke-linecap:round;stroke-linejoin:round;stroke-width:14.24px;}</style></defs><g id="Layer_2" data-name="Layer 2"><g id="Ostatní_muzika" data-name="Ostatní muzika"><g id="slagrtv"><rect class="cls-1" width="283.46" height="283.46"/><g id="logo"><path class="cls-2" d="M239.19,117.35a12.59,12.59,0,0,1-10.53-1.21c-5.41-3-10.65-12.28-22.49-13-6-.39-11.76,2-13.22,7.66-2.07,8.07,15.37,27.52,17.28,37.12.14.73.14,1.89-.35,1.67a19.55,19.55,0,0,0-13.6-3.07c-16,2-23.47,12.87-19.77,24s21.21,13,31.05,5.1a22.83,22.83,0,0,0,7.88-12.17,20,20,0,0,0,.69-6.32c.22-4.69-7.59-23.89-6.79-27.58.56-2.55,2-3.63,5.43-3.62,4.38,0,8.17,5.7,15.21,3.8,4.83-1.3,10.5-6.69,10.93-9.78.21-1.54-.46-2.75-1.72-2.58h0"/><path class="cls-3" d="M194.23,158.44v-3.83h-12v3.83h3.7v17.07h4.62V158.44Zm13.88-3.83h-4.38L202,167.34h-.13l-2.07-12.73h-4.87l4.13,20.9H204"/><path class="cls-3" d="M186,127a4.27,4.27,0,0,0-2-2.42c-6-2-8.94,8.28-10.19,11.76a25.94,25.94,0,0,0-1.17-9.13c-4-.67-8.76,1.28-11.64,3.19-15.53-3.93-29.52,7.74-27.91,21.82-3-3.92-.78-12.38-.88-17-9.94-2.64-21.35.91-26,9a25.89,25.89,0,0,0-2.71,10.86,5.16,5.16,0,0,1-3.71,1.11c-3.44-.83-4.05-7.23-4.35-11.91,2.15-2.41,5.56-4.93,8-8.39,2.9-4.14,5.12-13.7-4.54-11.34-8.79,2.16-14.56,12.85-15.43,23.91-2.37-3.49-7.56-4.63-12-5.78-3.3-.87-12.2-1.47-12.31-5.77s10.14-4.92,11.77-1.86c.89,1.61-2.22,2.24-1.62,4.61,7.75,3,19.85-3.12,16.55-12-2.18-5.86-13.56-5.46-21.65-3.28C54.68,127,45,134,44.16,142.06c-.92,8.85,9,11.32,14.76,12.75,3.84,1,11.31,1.84,11.12,4.61-2.61,4.93-16.56,3-14.45-4.41-8.69.87-10.91,10.75-6.6,15.46,1.76,1.92,5.63,3.31,8.26,3.42,11.49.49,23.72-5.67,26.78-15.51.14.66.3,1.32.48,2,1.55,5.39,7.11,8.88,13.53,5.81a11.26,11.26,0,0,0,5.63-7.34c.47,3,1.8,5.4,4.39,6,5.74.75,9.28-5.55,11.25-10.27-1.58,11.31,11.85,7.7,14.84,1.73a34.87,34.87,0,0,0,2.45,2.93c-3.51,1.83-7.19,6-4.58,10.86,1.36,2.56,4.9,3.06,7.58,2.91,21.34-1.17,20.91-21.82,21.79-38.31,2.14,7.17.79,14.54.89,21,3.18.07,7.6-.93,10.69-1.7,1.24-5.49,1.2-18.23,4.64-17.44,1.91.73.67,3.8-1.15,4.84,6.82,5.63,11.76-8,9.5-14.39m-88.28,5.77c2,.43-2.24,5.24-2.93,7.52-.44-2.3,1.18-7.49,2.93-7.52m22.21,9.9c-.25,4.24-.18,9.83-3.5,10.2s-4.75-12,3.5-10.2m29.3,6.05c1.45,3.44-.26,10.09-2.91,12.79s-7.92,3.54-7.19-2.15c6.34-.47,9.08-5.52,10.1-10.64m.22-10.72c-.2,4-1.2,9.74-4.18,10-3.37.27-3.66-10.95,4.18-10m-28-16.67c-1,4.63-4.29,7.6-7,11,8,6.95,22.15-12.76,7-11M76.7,110.42c0-1.15-3.6-1.67-4.51-1-1.41,1.68-2,4-4.24,5-1.8-6.14-13.48-3.19-13,2.73,4.35-.92,6.83,5.28,9.6,5.52,2.93.25,5.93-3.23,7.6-4.9,2.24-2.23,4.3-4.46,4.53-7.42"/><path class="cls-4" d="M186,127a4.27,4.27,0,0,0-2-2.42c-6-2-8.94,8.28-10.19,11.76a25.94,25.94,0,0,0-1.17-9.13c-4-.67-8.76,1.28-11.64,3.19-15.53-3.93-29.52,7.74-27.91,21.82-3-3.92-.78-12.38-.88-17-9.94-2.64-21.35.91-26,9a25.89,25.89,0,0,0-2.71,10.86,5.16,5.16,0,0,1-3.71,1.11c-3.44-.83-4.05-7.23-4.35-11.91,2.15-2.41,5.56-4.93,8-8.39,2.9-4.14,5.12-13.7-4.54-11.34-8.79,2.16-14.56,12.85-15.43,23.91-2.37-3.49-7.56-4.63-12-5.78-3.3-.87-12.2-1.47-12.31-5.77s10.14-4.92,11.77-1.86c.89,1.61-2.22,2.24-1.62,4.61,7.75,3,19.85-3.12,16.55-12-2.18-5.86-13.56-5.46-21.65-3.28C54.68,127,45,134,44.16,142.06c-.92,8.85,9,11.32,14.76,12.75,3.84,1,11.31,1.84,11.12,4.61-2.61,4.93-16.56,3-14.45-4.41-8.69.87-10.91,10.75-6.6,15.46,1.76,1.92,5.63,3.31,8.26,3.42,11.49.49,23.72-5.67,26.78-15.51.14.66.3,1.32.48,2,1.55,5.39,7.11,8.88,13.53,5.81a11.26,11.26,0,0,0,5.63-7.34c.47,3,1.8,5.4,4.39,6,5.74.75,9.28-5.55,11.25-10.27-1.58,11.31,11.85,7.7,14.84,1.73a34.87,34.87,0,0,0,2.45,2.93c-3.51,1.83-7.19,6-4.58,10.86,1.36,2.56,4.9,3.06,7.58,2.91,21.34-1.17,20.91-21.82,21.79-38.31,2.14,7.17.79,14.54.89,21,3.18.07,7.6-.93,10.69-1.7,1.24-5.49,1.2-18.23,4.64-17.44,1.91.73.67,3.8-1.15,4.84,6.82,5.63,11.76-8,9.5-14.39Z"/><path class="cls-4" d="M97.68,132.79c1.95.42-2.25,5.24-2.93,7.52C94.3,138,95.93,132.82,97.68,132.79Z"/><path class="cls-4" d="M119.89,142.69c-.25,4.24-.18,9.82-3.5,10.2S111.64,140.9,119.89,142.69Z"/><path class="cls-4" d="M149.18,148.74c1.46,3.44-.25,10.08-2.9,12.79s-7.92,3.54-7.19-2.15c6.34-.47,9.08-5.52,10.09-10.64Z"/><path class="cls-4" d="M149.41,138c-.2,4-1.2,9.74-4.18,10C141.86,148.26,141.57,137.05,149.41,138Z"/><path class="cls-4" d="M121.45,121.35c-1,4.63-4.3,7.6-7,11C122.42,139.28,136.56,119.57,121.45,121.35Z"/><path class="cls-4" d="M76.7,110.42c0-1.16-3.6-1.67-4.51-1-1.41,1.67-1.94,4-4.23,5-1.81-6.14-13.48-3.19-13,2.73,4.34-.93,6.82,5.28,9.59,5.52,2.93.25,5.94-3.23,7.61-4.9,2.23-2.23,4.29-4.46,4.52-7.42Z"/><path class="cls-3" d="M184.38,126.62a4.27,4.27,0,0,0-2-2.42c-6-2-8.94,8.28-10.19,11.75a25.92,25.92,0,0,0-1.17-9.12c-4-.67-8.76,1.28-11.64,3.18-15.53-3.92-29.53,7.75-27.91,21.83-2.95-3.92-.78-12.38-.88-17-9.94-2.65-21.35.91-26,9a25.81,25.81,0,0,0-2.71,10.85,5.12,5.12,0,0,1-3.71,1.12c-3.44-.83-4-7.23-4.35-11.91,2.15-2.41,5.56-4.94,8-8.39,2.9-4.14,5.12-13.71-4.54-11.34-8.79,2.16-14.56,12.85-15.43,23.9-2.37-3.48-7.56-4.62-12-5.78-3.3-.86-12.2-1.46-12.31-5.76s10.14-4.92,11.77-1.86c.89,1.61-2.22,2.24-1.62,4.61,7.76,3,19.85-3.12,16.55-12-2.18-5.85-13.56-5.45-21.65-3.28-9.49,2.56-19.18,9.57-20,17.59-.91,8.84,9,11.32,14.76,12.76,3.85,1,11.31,1.83,11.12,4.6C65.85,164,51.91,162,54,154.6c-8.7.88-10.92,10.76-6.61,15.47,1.76,1.92,5.64,3.31,8.26,3.42,11.49.49,23.72-5.67,26.78-15.51.14.66.3,1.32.48,2,1.55,5.39,7.11,8.88,13.53,5.81a11.24,11.24,0,0,0,5.63-7.34c.48,3,1.8,5.4,4.39,6,5.74.75,9.29-5.55,11.25-10.27-1.58,11.31,11.85,7.7,14.84,1.73a36.9,36.9,0,0,0,2.45,2.93c-3.51,1.83-7.19,6-4.58,10.86,1.37,2.56,4.9,3.06,7.58,2.91,21.34-1.18,20.91-21.82,21.79-38.31,2.14,7.17.79,14.54.89,21,3.18.07,7.6-.94,10.69-1.7,1.24-5.49,1.2-18.24,4.64-17.45,1.92.74.67,3.81-1.15,4.85,6.82,5.63,11.76-8,9.5-14.39m-88.27,5.76c2,.43-2.25,5.25-2.93,7.53-.45-2.3,1.18-7.49,2.93-7.53m22.21,9.91c-.25,4.24-.19,9.82-3.51,10.2s-4.74-12,3.51-10.2m29.29,6.05c1.46,3.44-.26,10.09-2.9,12.79s-7.92,3.54-7.2-2.15c6.34-.48,9.09-5.52,10.1-10.64m.22-10.72c-.19,4-1.2,9.74-4.17,10-3.37.27-3.67-10.94,4.17-10m-28-16.67c-1,4.63-4.29,7.61-7,11,8,6.95,22.14-12.76,7-11M75.13,110c0-1.16-3.61-1.67-4.52-1-1.41,1.68-1.94,4-4.23,5-1.8-6.14-13.48-3.19-13,2.73,4.34-.92,6.83,5.28,9.59,5.52,2.94.25,5.94-3.23,7.61-4.89,2.24-2.24,4.3-4.47,4.53-7.43"/></g></g></g></g></svg>