<svg xmlns="http://www.w3.org/2000/svg" viewBox="0 0 283.46 283.46"><defs><style>.cls-1{fill:#231f20;}.cls-2{fill:none;stroke:#231f20;stroke-linecap:round;stroke-linejoin:round;stroke-width:14.24px;}.cls-3{fill:#fff;}.cls-4{fill:#d91533;}</style></defs><g id="Layer_2" data-name="Layer 2"><g id="Ostatní_muzika" data-name="Ostatní muzika"><g id="slagr2"><rect class="cls-1" width="283.46" height="283.46"/><g id="logo"><path class="cls-2" d="M178.75,128a4,4,0,0,0-1.93-2.3c-5.68-1.88-8.5,7.86-9.68,11.16a24.54,24.54,0,0,0-1.12-8.67c-3.76-.63-8.31,1.22-11.05,3-14.75-3.73-28,7.35-26.5,20.72-2.8-3.71-.74-11.75-.84-16.11-9.44-2.51-20.27.87-24.66,8.59a24.83,24.83,0,0,0-2.57,10.32,4.91,4.91,0,0,1-3.52,1.06c-3.26-.79-3.84-6.88-4.13-11.32,2-2.29,5.28-4.68,7.59-8,2.76-3.93,4.86-13-4.31-10.76-8.36,2.05-13.83,12.2-14.65,22.7C79.12,145.1,74.2,144,70,142.92c-3.14-.82-11.59-1.39-11.7-5.48s9.64-4.67,11.18-1.77c.85,1.54-2.11,2.13-1.53,4.39,7.36,2.83,18.84-3,15.71-11.41-2.07-5.56-12.87-5.17-20.56-3.11-9,2.42-18.22,9.09-19,16.7-.87,8.4,8.54,10.75,14,12.11,3.66.91,10.74,1.74,10.57,4.38-2.49,4.68-15.73,2.82-13.72-4.2-8.26.83-10.37,10.22-6.27,14.69,1.66,1.82,5.34,3.15,7.83,3.25,10.92.46,22.53-5.38,25.44-14.74.14.64.28,1.27.46,1.88,1.47,5.12,6.75,8.43,12.84,5.51a10.65,10.65,0,0,0,5.35-7c.45,2.86,1.71,5.13,4.17,5.72,5.45.71,8.82-5.28,10.69-9.76-1.5,10.74,11.25,7.31,14.09,1.64a31.08,31.08,0,0,0,2.33,2.78c-3.34,1.74-6.83,5.69-4.36,10.32,1.3,2.43,4.66,2.9,7.21,2.76,20.26-1.11,19.86-20.72,20.69-36.38,2,6.81.75,13.81.85,20,3,.07,7.21-.89,10.15-1.61,1.17-5.22,1.14-17.32,4.4-16.57,1.82.7.64,3.62-1.09,4.6,6.48,5.35,11.17-7.63,9-13.66Z"/><path class="cls-2" d="M94.91,133.43c1.85.41-2.14,5-2.79,7.15C91.7,138.4,93.24,133.47,94.91,133.43Z"/><path class="cls-2" d="M116,142.84c-.24,4-.18,9.33-3.33,9.68S108.17,141.13,116,142.84Z"/><path class="cls-2" d="M143.82,148.58c1.38,3.27-.25,9.58-2.76,12.15s-7.52,3.36-6.83-2c6-.45,8.63-5.24,9.59-10.11Z"/><path class="cls-2" d="M144,138.4c-.19,3.83-1.14,9.25-4,9.48C136.86,148.13,136.58,137.48,144,138.4Z"/><path class="cls-2" d="M117.47,122.57c-1,4.4-4.07,7.22-6.67,10.43C118.4,139.6,131.83,120.88,117.47,122.57Z"/><path class="cls-2" d="M75,112.19c0-1.1-3.42-1.59-4.28-.91-1.34,1.59-1.85,3.79-4,4.77-1.72-5.83-12.81-3-12.33,2.59,4.12-.87,6.48,5,9.11,5.25,2.79.24,5.64-3.07,7.23-4.65,2.12-2.12,4.08-4.24,4.29-7Z"/><path class="cls-3" d="M177.24,128a4,4,0,0,0-1.92-2.3c-5.68-1.88-8.5,7.86-9.68,11.16a24.74,24.74,0,0,0-1.12-8.67c-3.76-.63-8.31,1.22-11.05,3-14.75-3.73-28,7.35-26.5,20.72-2.8-3.72-.75-11.75-.84-16.11-9.44-2.51-20.28.86-24.66,8.59a24.67,24.67,0,0,0-2.57,10.31,4.88,4.88,0,0,1-3.52,1.06c-3.27-.79-3.84-6.87-4.13-11.31,2-2.29,5.28-4.69,7.58-8,2.77-3.93,4.87-13-4.3-10.77-8.36,2-13.83,12.21-14.66,22.7-2.25-3.31-7.17-4.38-11.4-5.49-3.13-.81-11.58-1.39-11.69-5.47s9.63-4.67,11.18-1.77c.85,1.53-2.11,2.13-1.53,4.38,7.36,2.84,18.84-3,15.71-11.4-2.07-5.56-12.87-5.17-20.56-3.11-9,2.42-18.22,9.09-19,16.7-.87,8.4,8.54,10.75,14,12.11,3.66.91,10.74,1.74,10.57,4.38-2.49,4.68-15.73,2.82-13.72-4.2-8.26.83-10.37,10.22-6.27,14.69,1.67,1.82,5.35,3.14,7.84,3.25,10.91.46,22.52-5.39,25.43-14.74.14.64.29,1.26.46,1.88,1.47,5.12,6.75,8.43,12.84,5.51a10.65,10.65,0,0,0,5.35-7c.46,2.86,1.71,5.13,4.17,5.71,5.45.72,8.82-5.27,10.69-9.75-1.5,10.74,11.25,7.31,14.09,1.64a34.54,34.54,0,0,0,2.33,2.78c-3.34,1.74-6.83,5.69-4.35,10.32,1.29,2.43,4.65,2.9,7.2,2.76,20.26-1.12,19.86-20.72,20.69-36.38,2,6.81.75,13.81.85,20,3,.07,7.21-.89,10.15-1.61,1.17-5.22,1.14-17.32,4.4-16.57,1.82.7.64,3.62-1.09,4.6,6.48,5.35,11.17-7.63,9-13.66m-83.84,5.47c1.86.41-2.13,5-2.78,7.15-.42-2.19,1.12-7.12,2.78-7.15m21.1,9.41c-.24,4-.18,9.33-3.33,9.68s-4.51-11.39,3.33-9.68m27.82,5.74c1.38,3.27-.25,9.58-2.76,12.15s-7.53,3.36-6.83-2c6-.45,8.62-5.24,9.59-10.11m.2-10.18c-.18,3.83-1.14,9.25-4,9.47-3.2.26-3.48-10.39,4-9.47M116,122.57c-1,4.4-4.08,7.22-6.68,10.43,7.61,6.59,21-12.12,6.68-10.43M73.49,112.19c0-1.1-3.43-1.59-4.29-.91-1.34,1.59-1.84,3.79-4,4.77-1.71-5.83-12.8-3-12.33,2.59,4.13-.87,6.49,5,9.11,5.25,2.79.24,5.64-3.06,7.23-4.65,2.12-2.12,4.08-4.24,4.3-7"/><circle cx="212.01" cy="141.73" r="28.94"/><circle class="cls-4" cx="212.01" cy="141.73" r="24.9"/><path class="cls-3" d="M201.41,155.45l14.51-18.16a7.15,7.15,0,0,0,1.15-2,7.84,7.84,0,0,0,.2-1.68,5.52,5.52,0,0,0-1.3-3.65,5,5,0,0,0-3.83-1.6,5,5,0,0,0-3.64,1.4,6.07,6.07,0,0,0-1.79,3.95h-5.3a11.36,11.36,0,0,1,3.11-7.67,9.89,9.89,0,0,1,7.22-3,10.63,10.63,0,0,1,7.78,3.06,10.75,10.75,0,0,1,.84,14.1l-12,15h14.2v5.33H201.41Z"/></g></g></g></g></svg>