<svg xmlns="http://www.w3.org/2000/svg" viewBox="0 0 283.46 283.46"><defs><style>.cls-1{fill:#0f80cc;}.cls-2{fill:#fff;}</style></defs><g id="Layer_2" data-name="Layer 2"><g id="Sport"><g id="sport5"><rect class="cls-1" width="283.46" height="283.46"/><g id="logo"><path class="cls-2" d="M132.14,133.55l8.67-39.1h43.4v8.35H148.12l-4.41,19a36.43,36.43,0,0,1,16.8-4.42,30.36,30.36,0,0,1,22.4,9.56,32.42,32.42,0,0,1-23.12,55.31,33,33,0,0,1-16.61-4.32,31.67,31.67,0,0,1-12-12c-2.22-3.75-3.7-8.59-4.53-14.53H136c.84,6.7,3.28,12,7.65,16.12a22.46,22.46,0,0,0,15.92,6.33c6.34,0,11.61-2.48,16.14-7.16a24.74,24.74,0,0,0,6.93-16.81A24,24,0,0,0,176,133.1a23,23,0,0,0-16.7-7.29c-7.35,0-13.82,3.08-19.42,10.49l-7.76-2.75"/><path class="cls-2" d="M159.36,133.89c8.31,0,15,7.14,15,16s-6.73,15.95-15,15.95-15.05-7.14-15.05-15.95,6.73-16,15.05-16"/><path class="cls-2" d="M42.52,158.48h8a9,9,0,0,0,2.09,6.14,6.52,6.52,0,0,0,5.2,2.44,6.78,6.78,0,0,0,4.88-1.84,6.11,6.11,0,0,0,1.91-4.64,6.57,6.57,0,0,0-1.36-4.2,10.4,10.4,0,0,0-4.36-2.93L56,152.35a27.18,27.18,0,0,1-6.39-3,12.91,12.91,0,0,1-3.73-4.57,13.52,13.52,0,0,1-1.19-5.9,13.73,13.73,0,0,1,13.79-13.81c4,0,7.23,1.19,9.61,3.54s3.68,5.67,3.91,9.94H63.8a6.17,6.17,0,0,0-1.72-4.07,5.46,5.46,0,0,0-4-1.47,5.08,5.08,0,0,0-3.79,1.57,5.36,5.36,0,0,0-1.51,3.88q0,3.95,6.85,6.46l3,1.18q5.4,2.17,7.7,5.45c1.54,2.16,2.29,5.06,2.29,8.7a14.17,14.17,0,0,1-4.28,10.55A14.89,14.89,0,0,1,57.54,175a13.68,13.68,0,0,1-10.6-4.42c-2.69-2.94-4.16-7-4.42-12.09m43.67-8.63a16.67,16.67,0,0,0,4.69,11.93,14.94,14.94,0,0,0,11.21,4.94,16.23,16.23,0,0,0,16.17-16.25,16.56,16.56,0,0,0-4.72-12A15.47,15.47,0,0,0,102,133.6a15,15,0,0,0-11,4.88,15.69,15.69,0,0,0-4.78,11.37m.25,18.21V189H78V126.56h8.58v5.79a22.54,22.54,0,0,1,7.28-5.07,21.23,21.23,0,0,1,8.55-1.75,24.09,24.09,0,0,1,24.74,24.83,25.29,25.29,0,0,1-1.76,9.41,24.25,24.25,0,0,1-5,7.93,23.28,23.28,0,0,1-7.78,5.5,24.66,24.66,0,0,1-9.64,1.79,22.61,22.61,0,0,1-8.9-1.75,23.53,23.53,0,0,1-7.53-5.18m117.2,5.68h-8.5V126.56h8V132a14.17,14.17,0,0,1,4.84-4.64,12.86,12.86,0,0,1,6.31-1.57v8.87q-5.7.44-8.17,3.37t-2.46,9.46v26.24Zm22.17,0V134.27h-6.69v-7.71h6.69V111.29h8.45v15.27h6.68v7.71h-6.68v39.47h-8.45"/></g></g></g></g></svg>