<?xml version="1.0" encoding="utf-8"?>
<!-- Generator: Adobe Illustrator 22.0.0, SVG Export Plug-In . SVG Version: 6.00 Build 0)  -->
<svg version="1.1" id="Réteg_1" xmlns="http://www.w3.org/2000/svg" xmlns:xlink="http://www.w3.org/1999/xlink" x="0px" y="0px"
	 viewBox="0 0 469 92.3" style="enable-background:new 0 0 469 92.3;" xml:space="preserve">
<style type="text/css">
	.st0{fill-rule:evenodd;clip-rule:evenodd;fill:#FFFFFF;}
	.st1{fill-rule:evenodd;clip-rule:evenodd;fill:#010101;}
	.st2{fill-rule:evenodd;clip-rule:evenodd;fill:#E22122;}
</style>
<path class="st0" d="M368.2,0L46.7,0C20.1,0,0,19.6,0,45.6v46.7h366.9v0l73.7,0c17.3,0,28.4-12.3,28.4-28.8V0H368.2z"/>
<path class="st1" d="M381.9,5.3l-333.8,0c-22,0-42,15.5-42,40.2v41.3h375.8V5.3z"/>
<path class="st0" d="M122,11.8c-18.8,0-34.1,15.3-34.1,34.1h0v34.3h20.3v-3.8V45.9h0v0h0c0-7.6,6.2-13.8,13.8-13.8
	c7.6,0,13.8,6.2,13.8,13.8c0,7.6-6.2,13.8-13.8,13.8c-2.5,0-4.9-0.7-6.9-1.9v21.4c2.3,0.5,4.6,0.7,7,0.7c18.9,0,34.2-15.3,34.2-34.2
	C156.1,27.1,140.8,11.8,122,11.8"/>
<path class="st0" d="M196.2,59.9c-7.6,0-13.8-6.2-13.8-13.8c0-7.6,6.2-13.8,13.8-13.8c7.6,0,13.8,6.2,13.8,13.8
	C210,53.7,203.8,59.9,196.2,59.9 M196.1,12C177.3,12,162,27.3,162,46.1c0,18.9,15.3,34.1,34.1,34.1c18.8,0,34.1-15.3,34.1-34.1
	C230.2,27.3,215,12,196.1,12"/>
<path class="st0" d="M300.5,11.8h-31c-18.4,0.7-33,15.8-33.1,34.4v34.1H257V46.2c0-7.7,6.2-14,14-14h29.6L300.5,11.8z"/>
<path class="st0" d="M342,59.8c-7.7,0-14-6.2-14-14h0v0h0V11.9h-20.4v33.9h0c0,19,15.4,34.4,34.4,34.4c14,0,26.1-8.4,31.5-20.5H342
	L342,59.8z"/>
<rect x="335" y="11.9" class="st0" width="40.1" height="20.2"/>
<path class="st0" d="M81.1,11.8c0,0-27,0-33.7,0c-6.7,0-11.7,1.5-16,3.9C25.6,18.8,19,23.6,15.1,34c-3.9,10.4-1.4,19.1-1.4,19.1
	l21.6,0c0,0-4.1-6.4-1.1-12.7c3.2-6.7,8.3-8.3,12.1-8.3c5.5,0,34.7,0,34.7,0L81.1,11.8z"/>
<path class="st0" d="M12.6,80.2h33.7c6.7,0,11.7-1.6,16-4c5.8-3.2,12.3-7.9,16.2-18.3c3.9-10.4,1.5-19,1.5-19H58.5c0,0,4,6.3,1,12.6
	c-3.2,6.7-8.3,8.3-12.1,8.3c-5.5,0-34.7,0-34.7,0L12.6,80.2z"/>
<path class="st2" d="M54.7,45.9c0,4.5-3.7,8.2-8.2,8.2c-4.5,0-8.2-3.7-8.2-8.2c0-4.5,3.7-8.2,8.2-8.2C51.1,37.7,54.7,41.4,54.7,45.9
	"/>
<path class="st2" d="M381.9,86.8h53.7c12.4,0,17.6-4.4,19.5-5.8c5.9-4.5,7.8-11.7,7.8-21.2V5.3l-81,0V86.8z"/>
<path class="st0" d="M451,18.2c-3.7-4.2-8.4-6.4-14-6.4h-48.3v20.3h44.5c3.6,0,3.6,5.8,0,5.8h-12.2c-23.4,0-32.6,11.3-32.3,33.9
	l0,8.2h49.8c0,0,7.6-0.3,13.1-5.2c4.6-4.1,4.7-13.5,4.7-13.5l0-1.8h-45.8c0.6-2.5,2.7-5.7,10.2-5.8H437c5.7,0,10.3-2.1,14-6.4
	c3.4-4,5.2-8.8,5.2-14.6C456.2,27.2,454.5,22.3,451,18.2"/>
</svg>
