<svg xmlns="http://www.w3.org/2000/svg" viewBox="0 0 283.46 283.46"><defs><style>.cls-1{fill:#0f80cc;}.cls-2{fill:#fff;}</style></defs><title>sport5</title><g id="Layer_2" data-name="Layer 2"><g id="Sport"><g id="sport5"><rect class="cls-1" width="283.46" height="283.46"/><g id="logo"><path class="cls-2" d="M132.14,133.55l8.67-39.1h43.39v8.35H148.12l-4.41,19a36.47,36.47,0,0,1,16.8-4.42,30.4,30.4,0,0,1,22.41,9.57,32.42,32.42,0,0,1-23.13,55.31,33,33,0,0,1-16.6-4.32,31.71,31.71,0,0,1-12-12c-2.22-3.75-3.7-8.59-4.53-14.53H136c.84,6.7,3.28,12,7.64,16.12a22.49,22.49,0,0,0,15.93,6.33c6.33,0,11.61-2.48,16.13-7.16a24.74,24.74,0,0,0,6.94-16.81A24,24,0,0,0,176,133.1a23,23,0,0,0-16.71-7.29c-7.35,0-13.81,3.09-19.41,10.49l-7.76-2.75"/><path class="cls-2" d="M159.36,133.89c8.32,0,15,7.14,15,15.94s-6.73,16-15,16-15-7.14-15-16,6.73-15.94,15-15.94"/><path class="cls-2" d="M42.52,158.48h8a9,9,0,0,0,2.09,6.14,6.53,6.53,0,0,0,5.2,2.44,6.77,6.77,0,0,0,4.88-1.84,6.08,6.08,0,0,0,1.91-4.64,6.61,6.61,0,0,0-1.35-4.2,10.44,10.44,0,0,0-4.36-2.92L56,152.35a27.48,27.48,0,0,1-6.39-3,13,13,0,0,1-3.73-4.57,13.53,13.53,0,0,1-1.19-5.89,13.72,13.72,0,0,1,13.8-13.81c4,0,7.23,1.19,9.61,3.54s3.67,5.67,3.91,9.93H63.8a6.16,6.16,0,0,0-1.72-4.07,5.47,5.47,0,0,0-4-1.47,5.08,5.08,0,0,0-3.79,1.57,5.34,5.34,0,0,0-1.51,3.88q0,3.95,6.85,6.47l3,1.18c3.6,1.45,6.17,3.26,7.7,5.45s2.29,5.06,2.29,8.7a14.17,14.17,0,0,1-4.28,10.55A14.9,14.9,0,0,1,57.54,175a13.66,13.66,0,0,1-10.59-4.42q-4-4.41-4.42-12.09m43.67-8.63a16.67,16.67,0,0,0,4.69,11.93,14.93,14.93,0,0,0,11.21,4.94,16.23,16.23,0,0,0,16.16-16.25,16.55,16.55,0,0,0-4.72-12A15.46,15.46,0,0,0,102,133.6a15,15,0,0,0-11,4.88,15.69,15.69,0,0,0-4.78,11.37m.25,18.21v21H78V126.56h8.58v5.79a22.53,22.53,0,0,1,7.27-5.07,21.25,21.25,0,0,1,8.55-1.75,24.09,24.09,0,0,1,24.75,24.83,25.4,25.4,0,0,1-1.76,9.4,24.27,24.27,0,0,1-5.05,7.94,23.22,23.22,0,0,1-7.77,5.5,24.67,24.67,0,0,1-9.64,1.79,22.6,22.6,0,0,1-8.9-1.75,23.45,23.45,0,0,1-7.52-5.19m117.19,5.69h-8.49V126.56h8V132a14.31,14.31,0,0,1,4.83-4.64,13.07,13.07,0,0,1,6.32-1.57v8.88q-5.71.44-8.17,3.37c-1.65,2-2.47,5.11-2.47,9.46v26.24Zm22.17,0V134.27h-6.69v-7.71h6.69V111.29h8.45v15.27h6.69v7.71h-6.69v39.47h-8.45"/></g></g></g></g></svg>