<?xml version="1.0" encoding="utf-8"?>
<!-- Generator: Adobe Illustrator 22.0.0, SVG Export Plug-In . SVG Version: 6.00 Build 0)  -->
<svg version="1.1" id="Réteg_1" xmlns="http://www.w3.org/2000/svg" xmlns:xlink="http://www.w3.org/1999/xlink" x="0px" y="0px"
	 viewBox="0 0 469 92.3" style="enable-background:new 0 0 469 92.3;" xml:space="preserve">
<style type="text/css">
	.st0{fill-rule:evenodd;clip-rule:evenodd;fill:#FFFFFF;}
	.st1{fill-rule:evenodd;clip-rule:evenodd;fill:#010101;}
	.st2{fill-rule:evenodd;clip-rule:evenodd;fill:#E22122;}
</style>
<path class="st0" d="M368.3,0.2l-321.5,0C20.1,0.2,0,19.8,0,45.8v46.7h366.9v0l73.7,0c17.3,0,28.4-12.3,28.4-28.8V0.2H368.3z"/>
<path class="st1" d="M382,5.7l-333.8,0c-22,0-42,15.5-42,40.2v41.3H382V5.7z"/>
<path class="st0" d="M122,12.2c-18.8,0-34.1,15.3-34.1,34.1h0v34.3h20.3v-3.8V46.3h0v0h0c0-7.6,6.2-13.8,13.8-13.8
	c7.6,0,13.8,6.2,13.8,13.8c0,7.6-6.2,13.8-13.8,13.8c-2.5,0-4.9-0.7-6.9-1.9v21.4c2.3,0.5,4.6,0.7,7,0.7c18.9,0,34.2-15.3,34.2-34.2
	C156.2,27.5,140.9,12.2,122,12.2"/>
<path class="st0" d="M196.2,60.3c-7.6,0-13.8-6.2-13.8-13.8c0-7.6,6.2-13.8,13.8-13.8c7.6,0,13.8,6.2,13.8,13.8
	C210,54.1,203.9,60.3,196.2,60.3 M196.2,12.3c-18.9,0-34.1,15.3-34.1,34.1c0,18.9,15.3,34.1,34.1,34.1c18.8,0,34.1-15.3,34.1-34.1
	C230.3,27.6,215,12.3,196.2,12.3"/>
<path class="st0" d="M300.6,12.1h-31c-18.4,0.7-33,15.8-33.1,34.4v34.1H257V46.5c0-7.7,6.2-14,14-14h29.6L300.6,12.1z"/>
<path class="st0" d="M342.1,60.1c-7.7,0-14-6.2-14-14h0v0h0V12.3h-20.4v33.9h0c0,19,15.4,34.4,34.4,34.4c14,0,26.1-8.4,31.5-20.5
	H342.1L342.1,60.1z"/>
<rect x="335.1" y="12.3" class="st0" width="40.1" height="20.2"/>
<path class="st0" d="M81.1,12.2c0,0-27,0-33.7,0c-6.7,0-11.7,1.5-16,3.9c-5.8,3.2-12.3,7.9-16.2,18.3c-3.9,10.4-1.4,19.1-1.4,19.1
	l21.6,0c0,0-4.1-6.4-1.1-12.7c3.2-6.7,8.3-8.3,12.1-8.3c5.5,0,34.7,0,34.7,0L81.1,12.2z"/>
<path class="st0" d="M12.7,80.5h33.7c6.7,0,11.7-1.6,16-4c5.8-3.2,12.3-7.9,16.2-18.3c3.9-10.4,1.5-19,1.5-19H58.5c0,0,4,6.3,1,12.6
	c-3.2,6.7-8.3,8.3-12.1,8.3c-5.5,0-34.7,0-34.7,0L12.7,80.5z"/>
<path class="st2" d="M54.8,46.3c0,4.5-3.7,8.2-8.2,8.2c-4.5,0-8.2-3.7-8.2-8.2c0-4.5,3.7-8.2,8.2-8.2C51.1,38.1,54.8,41.8,54.8,46.3
	"/>
<path class="st2" d="M382,87.1h53.7c12.4,0,17.6-4.4,19.5-5.8c5.9-4.5,7.8-11.7,7.8-21.2V5.6l-81,0V87.1z"/>
<path class="st0" d="M456.1,12.2h-36.8l0,20.2h15.3l0,48c0,0,2.9,0.1,7.7-0.7c3.4-0.6,7.6-2.5,9.6-4.9c1.8-2,2.8-4.4,3.4-6.6
	c0.9-3.3,0.8-6.1,0.8-6.1V12.2z"/>
</svg>
