<svg xmlns="http://www.w3.org/2000/svg" viewBox="0 0 283.46 283.46"><defs><style>.cls-1{fill:#231f20;}.cls-2{fill:#fff;}</style></defs><g id="Layer_2" data-name="Layer 2"><g id="Slovakia"><g id="stv2"><rect class="cls-1" width="283.46" height="283.46"/><g id="logo"><g id="g3918"><path id="path3920" class="cls-2" d="M229.16,193.61l-72.32,0c0-8,23.06-18.31,42.61-29.61,8.42-4.87,41.49-20.07,41.49-55,0-32.45-30.36-57.09-65-57.09-32.65,0-61,23.47-61,23.47s.31,1,8.24,21c3,7.69,10.57,11.22,18.47,7.33,10.63-5.25,23.89-12.27,34.34-12.27,14.13,0,24,9.42,24,19.57,0,13.46-14.13,19.25-37.8,32.43-22.94,12.76-49.66,32.73-49.66,67.42V219a12.65,12.65,0,0,0,12.66,12.65H239.42V203.89a10.27,10.27,0,0,0-10.26-10.28"/></g><g id="g3922"><path id="path3924" class="cls-2" d="M66.5,86.78a24.21,24.21,0,1,0,24,24.21,24.12,24.12,0,0,0-24-24.21"/></g><g id="g3926"><path id="path3928" class="cls-2" d="M66.5,160.05a24.22,24.22,0,1,0,24,24.2,24.12,24.12,0,0,0-24-24.2"/></g></g></g></g></g></svg>