<svg xmlns="http://www.w3.org/2000/svg" viewBox="0 0 283.46 283.46"><defs><style>.cls-1{fill:#313e7d;}.cls-2{fill:#b22238;}.cls-3{fill:none;}.cls-4{fill:#fff;}</style></defs><title>ta3</title><g id="Layer_2" data-name="Layer 2"><g id="Slovakia"><g id="ta3"><rect class="cls-1" width="283.46" height="283.46"/><path class="cls-2" d="M167.4,140.87c0,55.13,22.81,105.22,60.06,142.59h56V0h-57.8C189.5,37.16,167.4,86.58,167.4,140.87"/><g id="logo"><path class="cls-3" d="M240.94,183.91H42.52V99.54H240.94v84.37Z"/><path class="cls-2" d="M167.4,141.48a62,62,0,0,0,16.75,42.45h56.8V99.54H183.65a62,62,0,0,0-16.25,41.93"/><path class="cls-4" d="M103,113.37h-47v12.55H72.3v44.25H87.06V125.91h16Z"/><path class="cls-4" d="M143.73,170.16h15.84l-21.39-56.8h-16l-21.83,56.8h15.84l3.59-9.92h20.51l3.47,9.92ZM123.81,149l6.36-17.64L136.33,149H123.81Z"/><path class="cls-4" d="M202.34,145a8,8,0,0,1,2.46-.39,7.45,7.45,0,1,1-7.84,7.45v-.37H181.8l0,.7c0,6.62,6.57,19.92,22.52,19.92,12.56,0,22.86-7,22.86-17.94,0-8.44-4-13.11-8.94-15.29h0c3.26-2,5.75-5.72,5.75-12.49,0-3.49-1.65-15.6-19.15-15.6-14.44,0-19.71,12-20,18.59h13.87l0-.56a5.93,5.93,0,0,1,5.89-6,5.6,5.6,0,0,1,5.79,6,5.85,5.85,0,0,1-5.79,6h-2.19v10Z"/></g></g></g></g></svg>