<svg xmlns="http://www.w3.org/2000/svg" viewBox="0 0 283.46 283.46"><defs><style>.cls-1{fill:#c25627;}.cls-2{fill:#fff;}</style></defs><g id="Layer_2" data-name="Layer 2"><g id="Slovakia"><g id="trojka"><rect class="cls-1" width="283.46" height="283.46"/><g id="logo"><path class="cls-2" d="M147.58,128.26c.84,3.33,1.53,6,2.27,8.67,3.38,12.84,5.44,14.53,18.5,14.43,6.66-.05,13.26.26,19.55,2.64,9.3,3.49,14.27,11.1,13.27,20.29-1.27,11.58-12.42,19.24-26.11,18a56.14,56.14,0,0,1-26.69-9.83c-6.71-4.54-14.37-4.7-19.6,0-6.29,5.66-12.27,12.42-18.24,18.6a76.56,76.56,0,0,0,10.15,9.62c25,20.93,64.63,26.11,90.74,11.95,36.94-20.09,39.84-74.2,5.18-95.82-4.55-2.85-9.73-4.06-15.54-6.5,13.16-11.94,25.74-23.35,38.42-34.93,0-6.18.1-12.36,0-18.55-.21-10.2-4-13.89-14.16-13.89-32.24,0-96.71.05-103.85,0,0,5.23-.16,12.15.06,17.8.42,12.11,6.44,17.92,18.54,18,13.48.11,48.94.06,48.94.06Z"/><circle class="cls-2" cx="66.3" cy="107.39" r="23.78"/><circle class="cls-2" cx="66.3" cy="180.42" r="23.78"/></g></g></g></g></svg>