<svg xmlns="http://www.w3.org/2000/svg" viewBox="0 0 283.46 283.46"><defs><style>.cls-1{fill:#02ab9c;}.cls-2{fill:#fff;}.cls-3{fill:#e1087a;}.cls-4{fill:#e9b508;}.cls-5{fill:#0660a7;}.cls-6{fill:#aac512;}</style></defs><g id="Layer_2" data-name="Layer 2"><g id="Slovakia"><g id="tukitv"><rect class="cls-1" width="283.46" height="283.46"/><g id="logo"><path class="cls-2" d="M230.28,113.67h-.43l-36.86.4-.6-.57-.25-.23a12.51,12.51,0,0,0-17.65,1.16l-.05.06-3.31,3.83a12.54,12.54,0,0,0-11.72-8.15h-.08l-12.61,0a12.52,12.52,0,0,0-12.31,10.64l-9.35-.11h-.13a12,12,0,0,0-10.81,6.82,12.09,12.09,0,0,0-6.13-5.93l-.15-2.85A12.21,12.21,0,0,0,95.68,107,21,21,0,0,0,85.2,89.06,13.8,13.8,0,0,0,78,86.84a11,11,0,0,0-8,3.43l-1,1.14a14.41,14.41,0,0,0-3.06-.34,10.53,10.53,0,0,0-9.25,5,11.28,11.28,0,0,0-1.59,6.09,10,10,0,0,0-4.84,6.47l-.06.23a12.23,12.23,0,0,0-7.66,11.47v.37l.78,14.57a12.24,12.24,0,0,0,12.18,11.8h.26L58,147l.2,27.18a12.21,12.21,0,0,0,12.18,12.09h.09l10.34-.07a12.17,12.17,0,0,0,10-5.3,31,31,0,0,0,14,5.16,91.24,91.24,0,0,0,9.59.54c8.11,0,14.83-1.32,20-3.93v1.08a12.55,12.55,0,0,0,12.51,12.44H147l12.63,0a12.53,12.53,0,0,0,12.2-10l6.84,6.77a12.49,12.49,0,0,0,17.64,0l4.45-4.39,0,0,.88-1,3.89-.35A11.73,11.73,0,0,0,216.41,175l-1.2-27.45,14.21,0h.29a11.21,11.21,0,0,0,11.21-10.68l0-.43v-11.3a11.26,11.26,0,0,0-10.66-11.49"/><path class="cls-3" d="M84.53,113.83C86.31,110,90.85,99,80.66,92.75c-9.43-5.81-5.31,17.2-5.31,17.2s2.08-11.14-7.84-13.67c-9.07-2.32,1,13.6,1,13.6s-.45-5.89-8-4.29c-6.58,1.4,5.91,10.6,7.09,9.66s16.93-1.42,16.93-1.42"/><path class="cls-3" d="M202.33,118.23a3.09,3.09,0,0,1,3.24,3l2.23,50.57a3.11,3.11,0,0,1-3,3.24L192,176.14a3.11,3.11,0,0,1-3.25-2.95l-2.21-50.56a3.1,3.1,0,0,1,2.94-3.25Z"/><path class="cls-4" d="M134.79,125.82l-9.82-.11a3.34,3.34,0,0,0-3.4,3.33l-.29,25.72a4,4,0,0,1-1,2.08c-1.38,1.48-3.35,2-8.49,1.73a6.71,6.71,0,0,1-4.63-2.09l-.42-2.23-.16-25.3a3.36,3.36,0,0,0-3.39-3.34l-9.82.06a3.37,3.37,0,0,0-3.35,3.39l.22,32.83c-.22,5.69,7.67,11.17,15.34,12,31,3.22,32.12-10.68,32.13-11.81l.37-32.83a3.36,3.36,0,0,0-3.33-3.4"/><path class="cls-5" d="M99.22,115.45a3.58,3.58,0,0,0-3.59-3.51l-41,1.07a3.53,3.53,0,0,0-3.51,3.58l.79,14.71a3.55,3.55,0,0,0,3.59,3.5l11-.28.26,36A3.55,3.55,0,0,0,70.38,174L80.73,174a3.56,3.56,0,0,0,3.52-3.58l-.18-36.31,12.43-.33a3.54,3.54,0,0,0,3.51-3.58Z"/><path class="cls-6" d="M194.65,173.32l-25.44-25.23,20.5-23.77a3.88,3.88,0,0,0-.37-5.48l-2.89-2.74a3.87,3.87,0,0,0-5.47.36l-17.65,20.46,0-17.93a3.9,3.9,0,0,0-3.91-3.86l-12.63,0a3.89,3.89,0,0,0-3.86,3.91l.12,61a3.9,3.9,0,0,0,3.91,3.86l12.63,0a3.9,3.9,0,0,0,3.86-3.91l0-17.94L184.7,183.2a3.87,3.87,0,0,0,5.48,0l4.47-4.39a3.89,3.89,0,0,0,0-5.49"/><path class="cls-5" d="M232.31,121.36a2.61,2.61,0,0,0-2.48-2.73l-16.74,0a2.59,2.59,0,0,0-2.73,2.47v11.45a2.6,2.6,0,0,0,2.47,2.73l16.75,0a2.62,2.62,0,0,0,2.73-2.47Z"/><polygon class="cls-2" points="220.75 121.95 220.11 121.29 212.54 121.3 211.88 121.95 211.9 124.11 212.55 124.77 214.58 124.76 214.53 131.96 215.18 132.62 217.09 132.66 217.75 132.01 217.82 124.76 220.11 124.75 220.77 124.11 220.75 121.95"/><polygon class="cls-2" points="230.15 122.39 228.87 121.86 228.17 122.17 226.04 128.37 224.06 122.41 223.39 122.06 222.04 122.4 221.68 123.08 224.72 132.26 225.39 132.62 226.6 132.68 227.28 132.34 230.47 123.08 230.15 122.39"/></g></g></g></g></svg>