<?xml version="1.0" standalone="yes"?>
<svg xmlns="http://www.w3.org/2000/svg" width="1024" height="1024">
<path style="fill:#313131; stroke:none;" d="M0 0L0 1024L1024 1024L1024 0L0 0z"/>
<path style="fill:#b1a9a9; stroke:none;" d="M788 376L788 377C804.259 376.865 822.576 372.65 838 379.796C870.21 394.718 870.853 445.859 857.677 474C854.376 481.05 849.365 486.975 843 491.43C839.25 494.054 833.714 495.383 831 499C861.214 488.697 866.002 460.368 866 432C865.999 417.695 864.26 401.395 854.674 390.004C840.088 372.67 808.787 370.319 788 376M767 379L767 380L787 377L767 379M741 388L766 381C759.712 378.757 745.136 382.812 741 388z"/>
<path style="fill:#d61c60; stroke:none;" d="M807 383.594C783.639 384.438 745.501 384.212 727.301 401.468C712.316 415.676 713.107 445.587 717.745 464C719.688 471.711 723.1 479.531 730.004 484.031C744.75 493.643 769.193 490.697 786 489.961C802.481 489.239 827.573 486.966 837.591 471.996C857.467 442.296 850.973 382.005 807 383.594z"/>
<path style="fill:#b1a9a9; stroke:none;" d="M731 390C725.484 396.289 719.655 401.241 715.901 408.985C704.156 433.215 711.704 458.196 715 483L726.015 494.674L739 504L746 504L746 503C709.732 489.093 701.241 439.811 719.313 407C724.447 397.68 734.358 394.702 740 387L731 390M714.333 404.667L714.667 405.333L714.333 404.667M716.333 404.667L716.667 405.333L716.333 404.667M817.394 410.029C809.142 415.293 811.474 436.938 801.834 439.669C798.658 440.569 797.031 436.171 796.005 433.999C793.091 427.833 781.642 402.686 772.978 420.482C770.773 425.013 775.243 433.568 776.656 438C779.976 448.411 783.895 487.182 802.786 475.972C807.339 473.271 808.751 464.684 810.333 460C815.034 446.081 825.302 429.612 826.613 415.015C827.052 410.12 821.423 407.458 817.394 410.029z"/>
<path style="fill:#313131; stroke:none;" d="M822 410L823 414L818 413L817 413L811 429L813 432L809 431L806 439L805 444L799 442L800 444L799 444L796 443L796 439L793 441L795 438L787 417L774 421L791 475L792 475L793 473L794 473L800 476L799 473L804 473C804.631 466.527 816.619 447.832 812 443L812 442L816 438L814 439L814 438L814 434L817 435C820.206 428.621 826.475 416.588 822 410z"/>
<path style="fill:#b1a9a9; stroke:none;" d="M729 415C724.909 428.866 739.193 420.522 741.682 430.019C745.285 443.77 740.881 460.823 742 475C746.987 474.822 755.21 477.357 760 473.667C763.774 470.758 761.158 465.803 761 462C760.653 453.667 760.806 445.291 760 437C759.697 433.879 757.868 430.082 759.5 427C761.855 422.551 768.39 426.002 769.833 422C772.314 415.121 766.032 414 761 414C750.374 414 739.281 415.381 729 415z"/>
<path style="fill:#d6b42a; stroke:none;" d="M730 415L731 416L730 415M784.667 415.333L785.333 415.667L784.667 415.333M825 415L826 416L825 415M729 416L730 417L729 416z"/>
<path style="fill:#313131; stroke:none;" d="M731 417L731 421L730 421L730 418L729 418C730.428 426.558 741.15 419.769 743.821 428.019C748.089 441.204 743.226 459.965 745 474L756 473L760 471L757.714 438L757.682 424.419L768 422C766.413 411.201 739.209 415.963 731 417z"/>
<path style="fill:#b1a9a9; stroke:none;" d="M820 416L820 418L822 418L822 416L820 416M736 417L736 421L738 417L736 417M753.667 418.333L754.333 418.667L753.667 418.333M760 418L759 419L759 420L759 421L762 418L760 418z"/>
<path style="fill:#d6b42a; stroke:none;" d="M773 418L773 420L775 418L773 418z"/>
<path style="fill:#b1a9a9; stroke:none;" d="M766 419L767 420L766 419M777 420L778 421L777 420M296 424L296 426L298 424L296 424M779 424L779 427L781 426L781 425L779 424z"/>
<path style="fill:#d6b42a; stroke:none;" d="M757 425L758 426L757 425z"/>
<path style="fill:#b1a9a9; stroke:none;" d="M525 428L521 442L522 442C523.017 432.139 530.669 427.408 540 427L525 428M542 427L542 428L554 428L542 427M276 428L276 430L290 430L276 428M292 428L292 429L297 429L292 428M298 428C300.775 431.838 305.428 433.656 307.91 438.001C313.744 448.209 314.401 473.152 302 478C309.754 480.119 312.995 471.056 312.703 464.911C312.071 451.628 314.948 431.89 298 428M556 428L556 429L568 429L556 428M569 429L569 430C577.23 430.074 585.374 433.952 586.786 443C589.979 463.449 581.172 487.229 581 508L598 508L598 507L582 507C585.504 488.126 590.177 463.093 588.471 444C587.553 433.713 579.192 426.659 569 429z"/>
<path style="fill:#d6b42a; stroke:none;" d="M743.333 428.667L743.667 429.333L743.333 428.667z"/>
<path style="fill:#b1a9a9; stroke:none;" d="M753 428L754 429L753 428M261 429L261 431L273 430L261 429M244 430L244 432L258 431L244 430M197 433L197 434L242 432C229.9 426.922 210.03 433 197 433M182 434L182 435L193 435L182 434M170 434L170 436L179 435L170 434z"/>
<path style="fill:#d6b42a; stroke:none;" d="M806.333 434.667L806.667 435.333L806.333 434.667z"/>
<path style="fill:#b1a9a9; stroke:none;" d="M179 490L179 489C172.841 489 166.955 489.42 162.188 484.786C150.218 473.15 155.283 443.32 169 436C161.301 433.956 156.354 443.61 156.04 450C155.477 461.471 151.958 483.248 165.004 488.772C169.316 490.597 174.425 490 179 490z"/>
<path style="fill:#1abfef; stroke:none;" d="M529.133 435.832C523.026 438.036 524.669 451.75 524.17 457C522.053 479.24 521.439 501.708 519.911 524C518.188 549.127 517.852 575.049 514.576 600C513.921 604.988 510.44 622.6 515.434 625.436C520.773 628.467 542.123 631.126 547.682 628.397C551.705 626.422 548.989 616.218 555.058 616.917C559.438 617.422 563.829 622.778 568 624.536C578.601 629.002 593.239 629.919 604 625.525C641.705 610.129 640.313 542.524 608 522.468C598.297 516.445 588.124 515.738 577 516.015C573.274 516.107 565.594 519.386 563.028 515.667C560.405 511.867 562.731 505.201 562.964 501C563.742 487.038 565.48 472.872 567.282 459C567.866 454.501 570.839 443.134 567.396 439.6C563.195 435.286 551.56 436.942 546 436.286C541.568 435.763 533.309 434.325 529.133 435.832z"/>
<path style="fill:#313131; stroke:none;" d="M816 436L817 437L816 436z"/>
<path style="fill:#d61c60; stroke:none;" d="M283 437.428C255.348 440.679 226.807 440.006 199 441.911C188.603 442.622 174.993 440.528 165.147 444.228C159.097 446.502 159.067 467.822 162.318 472.486C164.698 475.901 169.599 474.318 173 474.089C179.757 473.635 202.096 468.606 205.972 475.148C210.662 483.062 207.329 497.164 208.17 506C210.982 535.551 211.989 566.305 212 596C212.003 603.791 209.466 633.372 220.005 632.811C233.079 632.115 247.162 628.962 260 626.4C263.882 625.625 270.662 625.824 273.382 622.566C275.515 620.012 274.26 615.987 274 613C273.242 604.306 271.761 595.688 271 587C268.607 559.671 265.103 532.229 261.715 505C260.603 496.056 255.286 479.557 258.607 471.059C262.855 460.19 286.005 470.931 291.972 463.397C297.556 456.347 293.396 436.206 283 437.428z"/>
<path style="fill:#b1a9a9; stroke:none;" d="M520 443L516.424 485L514.397 498.212L495 500C486.589 508.527 477.874 507 467 507L467 508L482 510.035L504 500.681L517 502L520.039 460L520 443M783 446L783 449L784 449L783 446M784 450L785 451L784 450M798 471L799 472L798 471z"/>
<path style="fill:#d6b42a; stroke:none;" d="M743 474L744 475L743 474z"/>
<path style="fill:#313131; stroke:none;" d="M714 477L715 478L714 477z"/>
<path style="fill:#b1a9a9; stroke:none;" d="M293 479L293 480L301 480L293 479M277 481L284 547L285 547C289.682 536.121 290.634 519.485 300.105 511.394C309.161 503.658 334.614 512.248 343.996 517.417C347.44 519.315 350.233 522.307 351.652 526C354.15 532.504 350.726 540.601 349.127 547C346.177 558.799 344 570.823 344 583C367.134 563.831 346.06 524.212 369 508C358.127 506.98 356.142 521.915 357 530L355 524L353 525L336 511C324.814 512.175 314.025 504.127 302.615 507.569C292.264 510.691 288.169 529.817 286 539L285 539L278 482L292 481L277 481M281 483L282 484L281 483M194 487L194 488L202 489L206.039 603L208.079 634L211 645L211 646L235 648C232.337 645.071 227.697 647.122 224 646.953C218.553 646.703 213.967 643.757 211.279 638.996C204.88 627.667 208.519 606.756 207.961 594C206.403 558.422 203.295 522.608 203 487L194 487M182 488L182 489L191 489L182 488M825 499L825 500L830 500L830 499L825 499M493 499L494 500L493 499M808 503L808 504L824 501L808 503M747 503L747 504L752 504L747 503M802 503L802 504L806 505L802 503M753 504L753 505L764 505L753 504M789 504L789 505L799 505L789 504M767 505L767 506L787 506L767 505M690 508L690 509L732 508C721.293 502.855 701.228 505.213 690 508M370 507L370 508L376 508L370 507M377 508L377 509L395 510L395 508L377 508M453 508L453 509L464 509L453 508M599 508L599 509C618.011 510.553 634.745 524.689 642 542L644 542C649.173 530.386 655.038 521.924 667 516.323C672.947 513.539 684.936 512.831 689 508L659 517L643 539L627 518C617.432 515.358 610.135 505.858 599 508M733 508L733 509C772.918 514.38 782.263 551.688 778.155 586C776.331 601.236 772.169 618.75 760.96 629.96C750.091 640.829 734.671 643 720 643C736.038 649.73 761.402 637.281 769.019 623C784.71 593.583 790.917 538.05 759 517.005C752.09 512.448 741.465 506.724 733 508M397 509L397 510L417 514.086L426 511.224L449 510L449 508L417 512.14L397 509M454 516L454 517C457.478 517 462.629 516.087 465.698 518.027C468.522 519.812 468.789 524.666 473.044 523.917C484.242 521.947 499.943 497.639 505.119 520C505.706 522.538 507.071 526.193 505.802 528.701C503.897 532.467 496.315 535.244 493 537.934C484.487 544.842 477.269 552.8 473 563C480.674 555.566 485.467 546.02 494 539.095C497.591 536.181 505.658 533.257 507.382 528.867C509.13 524.417 505.844 510.292 500.891 508.697C490.03 505.197 481.959 520.98 473.058 522.079C469.621 522.504 468.648 517.789 465.857 516.603C462.48 515.169 457.605 516 454 516z"/>
<path style="fill:#d6b42a; stroke:none;" d="M497.995 509.677C487.995 510.431 481.388 522.768 472.468 523.689C468.697 524.078 468.213 518.297 464.856 517.318C454.763 514.375 441.363 518.811 431.004 519.01C427.978 519.068 421.208 518.555 419.348 521.589C416.236 526.666 419.519 539.286 419.91 545C421.25 564.557 421.023 584.559 423.576 604C424.349 609.893 421.953 622.924 426.603 627.382C429.082 629.758 433.957 628.089 437 628.015C446.932 627.772 457.119 628.501 466.956 626.852C475.393 625.438 471.028 611.746 471.001 606C470.896 584.234 466.983 566.891 482.3 549C486.839 543.698 492.277 538.871 498 534.877C500.397 533.204 505.208 531.612 506.307 528.701C508.152 523.814 504.368 509.197 497.995 509.677z"/>
<path style="fill:#d61c60; stroke:none;" d="M700 515.424C685.863 517.281 669.193 517.97 657.715 527.708C641.475 541.487 642.032 570.747 645.247 590C646.489 597.44 648.816 606.218 654.213 611.816C670.666 628.88 704.126 630.827 726 627.7C758.047 623.119 763.482 583.728 760.286 557C759.379 549.424 759.035 541.854 755.095 535.039C745.094 517.741 718.188 513.036 700 515.424z"/>
<path style="fill:#b1a9a9; stroke:none;" d="M300 516L299 518L300 516z"/>
<path style="fill:#d6b42a; stroke:none;" d="M364 517C363.579 537.4 362.667 559.947 352.688 578C349.165 584.372 342.866 594.037 335 595.323C321.567 597.518 325.43 572.955 326.428 566C327.776 556.615 329.656 547.261 331.662 538C332.388 534.647 334.735 529.665 333.357 526.279C331.309 521.244 309.269 516.386 304.015 516.448C295.957 516.543 292.656 534.823 291.025 541C285.095 563.474 275.66 598.536 294.465 617.674C304.999 628.396 321.513 628.095 335 624.622C339.521 623.458 347.219 617.75 351.776 619.508C354.599 620.596 355.317 624.153 358.133 625.411C366.307 629.065 380.073 628.3 389 628.911C391.75 629.099 397.012 629.872 398.972 627.397C402.284 623.215 401 609.299 401 604C401.001 584.318 402.968 564.647 403 545C403.009 539.474 405.574 524.832 401.397 520.742C399.133 518.527 394.908 518.962 392 518.576C382.695 517.338 373.382 517 364 517z"/>
<path style="fill:#b1a9a9; stroke:none;" d="M305 516L306 517L305 516M364 516L364 517L373 517L364 516M309 517L310 518L309 517M380 517L380 518L384 518L380 517M419 519L419 520L451 518C442.596 514.474 427.923 517.872 419 519M312.667 518.333L313.333 518.667L312.667 518.333M391 518L391 519L394 519L391 518M298 519L299 520L298 519M316 519L317 520L316 519M363 519L363 524L364 524L363 519M400.667 519.333L401.333 519.667L400.667 519.333M319.667 520.333L320.333 520.667L319.667 520.333M402 520L403 521L402 520M418.333 520.667L418.667 521.333L418.333 520.667M297 521L298 522L297 521M323 521L324 522L323 521M403 521L403 531L404 531L403 521M326.667 522.333L327.333 522.667L326.667 522.333M330 523L331 524L330 523M418 523L418 540L419 540L418 523M295 527L296 528L295 527M334 527L335 528L334 527M294.333 529.667L294.667 530.333L294.333 529.667M333.333 530.667L333.667 531.333L333.333 530.667z"/>
<path style="fill:#313131; stroke:none;" d="M356 531C347.656 542.013 346.703 564.534 345 578C355.637 571.964 355.876 552.716 356.004 542C356.046 538.485 357.36 534.272 356 531z"/>
<path style="fill:#b1a9a9; stroke:none;" d="M293.333 532.667L293.667 533.333L293.333 532.667M362 532L362 537L363 537L362 532M332.333 534.667L332.667 535.333L332.333 534.667M292 536L293 537L292 536M331.333 538.667L331.667 539.333L331.333 538.667M419 541L419 556L420 556L419 541M290.333 542.667L290.667 543.333L290.333 542.667M330 544L331 545L330 544M361 544L361 547L362 547L361 544z"/>
<path style="fill:#313131; stroke:none;" d="M577 544.609C547.597 546.403 560.34 601.393 586 599.721C595.065 599.13 596.257 589.093 597.271 582C599.425 566.922 596.999 543.388 577 544.609z"/>
<path style="fill:#b1a9a9; stroke:none;" d="M289.333 545.667L289.667 546.333L289.333 545.667M489 589L491 589C491 571.784 497.456 560.245 512 550C511.983 575.204 506.081 600.864 507.133 626C507.481 634.305 514.124 640.754 522 642L510.09 630.999L509.961 608L514 547C496.531 553.768 489 571.944 489 589M329.333 548.667L329.667 549.333L329.333 548.667z"/>
<path style="fill:#313131; stroke:none;" d="M700.001 548.533C691.74 550.552 688.515 560.517 687.095 568C683.852 585.086 690.368 601.95 711 597.481C737.747 591.689 730.117 541.175 700.001 548.533z"/>
<path style="fill:#b1a9a9; stroke:none;" d="M288.333 549.667L288.667 550.333L288.333 549.667z"/>
<path style="fill:#313131; stroke:none;" d="M512 549L513 550L512 549z"/>
<path style="fill:#b1a9a9; stroke:none;" d="M328.333 553.667L328.667 554.333L328.333 553.667M402 553L402 564L403 564L402 553M287.333 554.667L287.667 555.333L287.333 554.667M360 555L360 559L361 559L360 555M286.333 558.667L286.667 559.333L286.333 558.667M327.333 559.667L327.667 560.333L327.333 559.667M420 559L421 588L422 588L420 559M592 591C592.553 586.622 592.999 582.425 593 578C593.001 575.003 593.104 571.979 592.711 569C591.935 563.12 585.473 553.924 579.938 562.148C574.057 570.886 582.028 589.457 592 591z"/>
<path style="fill:#313131; stroke:none;" d="M581 561C580.154 571.738 580.09 584.172 591 590C590.877 579.437 596.698 561.056 581 561z"/>
<path style="fill:#b1a9a9; stroke:none;" d="M709 589C704.977 579.768 706.576 571.434 712 563L713 563L717 564C720.878 572.733 723.102 587.282 710 588C723.802 593.776 726.845 566.832 715.958 562.758C704.964 558.644 700.259 586.099 709 589M285.333 563.667L285.667 564.333L285.333 563.667M359.333 563.667L359.667 564.333L359.333 563.667M472 564L473 565L472 564M326.333 565.667L326.667 566.333L326.333 565.667M471.333 565.667L471.667 566.333L471.333 565.667M358 566L359 567L358 566M470 567L470 587L471 587L470 567M357 568L358 569L357 568M284 570L284 574L285 574L284 570M356 570L357 571L356 570M355 572L356 573L355 572M354 574L355 575L354 574M325 575L325 586L326 586L325 575M353 576L354 577L353 576M352 578L353 579L352 578M351 580L352 581L351 580M350 581L351 582L350 581M349 583L350 584L349 583M348 584L349 585L348 584M401 584L401 595L402 595L401 584M587 585L588 586L587 585M346 587L347 588L346 587M345 588L346 589L345 588M422 588L422 603L423 603L422 588M326.333 589.667L326.667 590.333L326.333 589.667M344 589L345 590L344 589M471 589C471 596.912 470.358 605.137 471.285 613C471.755 616.978 473.087 622.337 469.566 625.397C466.692 627.894 461.523 627 458 627L458 628L471.397 626.397L472.985 617L471 589M343 590L344 591L343 590M342 591L343 592L342 591M327 592L328 593L327 592M284 594L284 597L285 597L284 594M329 594L330 595L329 594M338 594L339 595L338 594M490 594C490 607.428 496.82 633.07 481.999 640.543C474.531 644.309 464.094 643 456 643L456 644C466.136 644 483.84 646.797 489 636L490 638L491 638L491.054 608L490 594M331.667 595.333L332.333 595.667L331.667 595.333M334.667 595.333L335.333 595.667L334.667 595.333M285 600L286 601L285 600M423 603L423 619L424 619L423 603M286 604L287 605L286 604M287 606L288 607L287 606M288.333 608.667L288.667 609.333L288.333 608.667M643 610C633.141 632.85 612.844 643 589 643L589 644C605.687 644 620.727 641.528 632.96 628.985C637.657 624.17 640.612 618.087 645 613C651.389 638.26 691.563 644 713 644L713 643C688.258 643 655.752 634.914 645 610L643 610M289 611L290 612L289 611M290 612L291 613L290 612M400 614L400 625L401 625L400 614M292 615L293 616L292 615M293 616L294 617L293 616z"/>
<path style="fill:#d61c60; stroke:none;" d="M351 618L352 619L351 618z"/>
<path style="fill:#b1a9a9; stroke:none;" d="M296 619L297 620L296 619M347 619L348 620L347 619M353 619L354 620L353 619M424 619C424.003 622.987 423.402 626.668 427 629L424 619z"/>
<path style="fill:#d61c60; stroke:none;" d="M297 620L298 621L297 620z"/>
<path style="fill:#b1a9a9; stroke:none;" d="M345 620L346 621L345 620M299 621L300 622L299 621M343 621L344 622L343 621M354.333 621.667L354.667 622.333L354.333 621.667M341 622L342 623L341 622M305 624L306 625L305 624M335.667 624.333L336.333 624.667L335.667 624.333M355 624L356 625L355 624M331.667 625.333L332.333 625.667L331.667 625.333M356 625L357 626L356 625M312 626L312 627L315 627L312 626M325 626L325 627L328 627L325 626M360 626L360 627L364 627L360 626M372 627L372 628L376 628L372 627M383 628L383 629L386 629L383 628M399 628L400 629L399 628M427 629L427 630L456 629C448.088 625.68 435.354 627.944 427 629M292 629C285.734 637.2 279.076 639.567 269 640L269 642C277.141 641.352 289.39 640.08 292 631L316 642L292 629M394 629L394 630L398 630L394 629M652.667 629.333L653.333 629.667L652.667 629.333M419 631C415.746 637.652 412.453 642.116 405 644L405 645C411.995 644.385 416.16 641.439 419 635C422.837 642.041 428.141 644.937 436 646L427.015 641.566L419 631M342 640L342 641C347.627 640.157 353.651 635.514 357 642L362 642C356.713 634.72 349.082 637.284 342 640M540 643L540 644L556 644.786L575 641C567.137 633.933 563.03 642.2 555 643.656C550.206 644.525 544.881 643.013 540 643M338 640L338 642L341 642L341 640L338 640M576.333 640.667L576.667 641.333L576.333 640.667M237 645L237 647L267 642L237 645M317 641L317 642L324 642L317 641M330 641L330 642L337 644C336.204 640.284 333.363 641 330 641M364 641L364 643L383 643L364 641M525 643L539 643C535.295 641.431 527.879 639.722 525 643M578 641L578 642L582 642L578 641M326 642L327 643L326 642M583 642L583 643L588 643L583 642M384 643L384 644L393 644L384 643M394 643L402 645L402 644L394 643M438 644L438 645L453 645L438 644M216 648L217 649L216 648z"/>
</svg>
