<svg xmlns="http://www.w3.org/2000/svg" viewBox="0 0 283.46 283.46"><defs><style>.cls-1{fill:#fff;fill-opacity:0.95;}</style></defs><title>tv8</title><g id="Layer_2" data-name="Layer 2"><g id="Slovakia"><g id="tv8"><rect width="283.46" height="283.46"/><g id="logo"><path class="cls-1" d="M99.86,129.05a31.13,31.13,0,0,1,.42,5.21,23,23,0,0,1-.84,6.41,20.89,20.89,0,0,1-2.17,5.14,18.86,18.86,0,0,1-3,3.85,22.43,22.43,0,0,1-3.23,2.65,13.51,13.51,0,0,1-3,1.52,7.22,7.22,0,0,1-2.27.49,4.85,4.85,0,0,1-1.26-.23,6.57,6.57,0,0,1-1.62-.74,9.59,9.59,0,0,1-1.68-1.42,11,11,0,0,1-1.52-2.13,12.9,12.9,0,0,1-1.1-3,18.46,18.46,0,0,1-.39-4c0-.56,0-1.13,0-1.71a18,18,0,0,1,.23-1.84l1.29-9.16,7.7-.32-1.36,9.48c-.11.78-.19,1.47-.26,2.07s-.06,1.17-.06,1.68a11.85,11.85,0,0,0,.16,2.2,5.25,5.25,0,0,0,.45,1.33,2,2,0,0,0,.52.68,1,1,0,0,0,.55.19,2.42,2.42,0,0,0,1.36-.81,9.27,9.27,0,0,0,1.78-2.52,20.73,20.73,0,0,0,1.52-4.3,26.59,26.59,0,0,0,.65-6.25c0-.56,0-1.08-.07-1.59s-.06-.92-.1-1.29Z"/><path class="cls-1" d="M61.55,130.38h3.11l1.75-5.63,6.12-.62-.87,6.25h5.4L76,136H70.87l-1.29,9.26a4.06,4.06,0,0,0-.1.52v.42a2.2,2.2,0,0,0,.45,1.55,2.08,2.08,0,0,0,1.49.45,6.36,6.36,0,0,0,1.2-.13,5.18,5.18,0,0,0,1.23-.45l-.06,5.47a9.71,9.71,0,0,1-2.49.87,14.71,14.71,0,0,1-2.95.32,5.88,5.88,0,0,1-6.63-6.6c0-.3,0-.63,0-1s0-.73.1-1.1L63.24,136H60.49Z"/><path class="cls-1" d="M139.81,42.53c-22,.25-40,5.29-53.36,14.89-14.56,9.67-21.84,24-22.17,42.71a54.66,54.66,0,0,0,1,11.74H81.47v0l1,0A27.59,27.59,0,0,1,110,139.46h0A27.59,27.59,0,0,1,82.45,167h0l-1-.05V167H60.54a44.51,44.51,0,0,0-3.77,17.31c0,39.87,39.83,56.59,85.38,56.59,53.8,0,83.79-19.28,84.54-60.95,0-31.64-31.15-44.68-31.15-44.68s23.15-7.45,24.08-38.17c.29-16.44-6.84-29.61-20.73-38.92-13.21-9.87-31.52-15.29-54.61-15.68q-2.26,0-4.46,0ZM140.2,89l2.32,0c6.61.09,9,1.47,13,3.86,7.62,4.49,5.94,17.65.27,27.45l-16.44-4.9c-10.68-3.36-16.37-8.1-16.24-14.22.1-4.66,2.17-7.75,6.35-10C132.45,89.25,135.15,89,140.2,89Zm-13.86,69.82,18.92,5.58c12.3,3.83,18.84,9.23,18.69,16.2-.11,5.31-2.49,8.83-7.31,11.42-3.86,2.6-7.36,2.58-15,2.48s-10.32-1.67-15-4.4c-3.74-3.37-6.8-7.76-6.69-13.08C120.12,170.11,119.86,165.48,126.35,158.87Z"/></g></g></g></g></svg>