<svg xmlns="http://www.w3.org/2000/svg" viewBox="0 0 283.46 283.46"><defs><style>.cls-1{fill:#fff;fill-opacity:0.95;}</style></defs><title>tv8</title><g id="Layer_2" data-name="Layer 2"><g id="Slovakia"><g id="tv8"><rect width="283.46" height="283.46"/><g id="logo"><path class="cls-1" d="M99.86,129.05a31.69,31.69,0,0,1,.42,5.21,23.19,23.19,0,0,1-.84,6.41,21.5,21.5,0,0,1-2.17,5.15,19,19,0,0,1-3,3.85,22,22,0,0,1-3.23,2.65,13.35,13.35,0,0,1-3,1.52,7.1,7.1,0,0,1-2.26.49,4.77,4.77,0,0,1-1.26-.23,6.78,6.78,0,0,1-1.62-.74,9.4,9.4,0,0,1-1.68-1.43,10.6,10.6,0,0,1-1.53-2.13,13.4,13.4,0,0,1-1.1-3,19.07,19.07,0,0,1-.38-4c0-.56,0-1.14,0-1.72a15.93,15.93,0,0,1,.23-1.84l1.29-9.16,7.7-.33-1.36,9.49c-.11.77-.19,1.47-.26,2.07s-.06,1.16-.06,1.68a12.17,12.17,0,0,0,.16,2.2,5.67,5.67,0,0,0,.45,1.33,2,2,0,0,0,.52.68,1,1,0,0,0,.55.19,2.36,2.36,0,0,0,1.36-.81,9.3,9.3,0,0,0,1.78-2.52,20.54,20.54,0,0,0,1.52-4.31,26.28,26.28,0,0,0,.65-6.24c0-.56,0-1.09-.07-1.59s0-.92-.09-1.29Z"/><path class="cls-1" d="M61.55,130.38h3.11l1.75-5.63,6.12-.62-.88,6.25h5.41L76,136H70.87l-1.29,9.26a4.25,4.25,0,0,0-.1.52v.42a2.18,2.18,0,0,0,.46,1.55,2.05,2.05,0,0,0,1.48.45,6.24,6.24,0,0,0,1.2-.13,4.6,4.6,0,0,0,1.23-.45l-.06,5.47a9.42,9.42,0,0,1-2.49.87,14.65,14.65,0,0,1-3,.33,5.88,5.88,0,0,1-6.63-6.6c0-.3,0-.63,0-1a10.7,10.7,0,0,1,.1-1.1L63.24,136H60.49Z"/><path class="cls-1" d="M139.81,42.53c-22,.25-40,5.29-53.36,14.89-14.56,9.67-21.84,24-22.17,42.71a55.09,55.09,0,0,0,1,11.74H81.47v0l1,0A27.59,27.59,0,0,1,110,139.46h0a27.58,27.58,0,0,1-27.58,27.59h0l-1-.05v.05H60.54a44.64,44.64,0,0,0-3.77,17.3c0,39.87,39.83,56.59,85.38,56.59,53.8,0,83.79-19.27,84.54-60.94,0-31.64-31.15-44.68-31.15-44.68s23.16-7.45,24.08-38.17c.29-16.44-6.84-29.61-20.73-38.92-13.22-9.87-31.53-15.29-54.61-15.69-1.51,0-3,0-4.47,0ZM140.2,89l2.32,0c6.62.09,9,1.47,13,3.86,7.62,4.49,5.94,17.64.28,27.45l-16.44-4.89c-10.68-3.36-16.37-8.11-16.24-14.23.1-4.66,2.17-7.75,6.35-10C132.45,89.25,135.15,89,140.2,89Zm-13.85,69.83,18.92,5.58c12.29,3.83,18.84,9.23,18.69,16.2-.11,5.31-2.49,8.83-7.31,11.42-3.86,2.6-7.35,2.58-15,2.47s-10.31-1.67-15-4.39c-3.73-3.38-6.8-7.77-6.69-13.08C120.12,170.11,119.86,165.48,126.35,158.87Z"/></g></g></g></g></svg>