<svg xmlns="http://www.w3.org/2000/svg" viewBox="0 0 283.46 283.46"><defs><style>.cls-1{fill:#ec008c;}.cls-2{fill:#fff;}</style></defs><title>tvbarrandov</title><g id="Layer_2" data-name="Layer 2"><g id="Barrandov"><g id="tvbarrandov"><g id="tvbarrandov-2" data-name="tvbarrandov"><rect class="cls-1" width="283.46" height="283.46"/></g><g id="logo"><path class="cls-2" d="M222.63,166.52c-3.55,0-6.35,2.32-6.35,6.16s2.8,6.13,6.35,6.13,6.39-2.29,6.39-6.13S226.19,166.52,222.63,166.52Zm0,2.89a3.28,3.28,0,1,1-3,3.26A3,3,0,0,1,222.63,169.41Z"/><path class="cls-2" d="M213.17,160.78a1.71,1.71,0,0,0-1.71,1.65v4.71a6.57,6.57,0,0,0-3-.63,5.62,5.62,0,0,0-4.12,1.57,6.34,6.34,0,0,0-1.67,4.57A6.43,6.43,0,0,0,204.1,177a5.93,5.93,0,0,0,4.63,1.85,6.08,6.08,0,0,0,4.73-1.93,6.37,6.37,0,0,0,1.39-4.48v-10a1.68,1.68,0,0,0-1.68-1.65Zm-4.23,8.45a4.13,4.13,0,0,1,2.52.79v2.47a3.53,3.53,0,0,1-.77,2.58,2.55,2.55,0,0,1-1.93.78,2.45,2.45,0,0,1-2.11-1.07,3.85,3.85,0,0,1-.61-2.22,3.63,3.63,0,0,1,.78-2.5,2.76,2.76,0,0,1,2.11-.82Z"/><path class="cls-2" d="M195.38,166.49a5.91,5.91,0,0,0-4.81,1.88,5.36,5.36,0,0,0-1,3.47v5.3a1.7,1.7,0,0,0,3.39,0v-5a3.41,3.41,0,0,1,.34-1.6,2.23,2.23,0,0,1,2.12-1.07,2.27,2.27,0,0,1,2.13,1.07,3.3,3.3,0,0,1,.31,1.6v5a1.72,1.72,0,0,0,3.44,0v-5.3a5.09,5.09,0,0,0-1.07-3.47,5.91,5.91,0,0,0-4.82-1.88"/><path class="cls-2" d="M181.49,166.52a6,6,0,0,0-4.63,1.88,6.36,6.36,0,0,0-1.45,4.28,6.52,6.52,0,0,0,1.65,4.59,6.28,6.28,0,0,0,7.31.67,1.69,1.69,0,0,0,1.56.87,1.66,1.66,0,0,0,1.69-1.65V173a6.5,6.5,0,0,0-1.4-4.51,6.1,6.1,0,0,0-4.73-1.93Zm0,3a2.5,2.5,0,0,1,2,.8,4.23,4.23,0,0,1,.78,2.78v2.22h0a4.9,4.9,0,0,1-2.55.74,2.53,2.53,0,0,1-2.05-.78,3.41,3.41,0,0,1-.82-2.49,4,4,0,0,1,.62-2.22,2.36,2.36,0,0,1,2.08-1.06Z"/><path class="cls-2" d="M173.9,167a5.54,5.54,0,0,0-2.36-.47c-2.16,0-3.86.59-4.84,1.85a5.37,5.37,0,0,0-1,3.48v5.3a1.7,1.7,0,0,0,3.39,0v-5a3.37,3.37,0,0,1,.33-1.6,2.15,2.15,0,0,1,2-1.06,2.65,2.65,0,0,1,1.07.25,2,2,0,0,0,1.05.33,1.46,1.46,0,0,0,1.46-1.53A1.73,1.73,0,0,0,173.9,167"/><path class="cls-2" d="M164,167a5.58,5.58,0,0,0-2.36-.47c-2.18,0-3.87.59-4.85,1.85a5.37,5.37,0,0,0-1,3.48v5.3a1.7,1.7,0,0,0,3.39,0v-5a3.37,3.37,0,0,1,.34-1.6,2.19,2.19,0,0,1,2-1.06,2.72,2.72,0,0,1,1.07.25,2,2,0,0,0,1.05.33,1.47,1.47,0,0,0,1.46-1.53A1.73,1.73,0,0,0,164,167"/><path class="cls-2" d="M147.7,166.52a6,6,0,0,0-4.63,1.88,6.36,6.36,0,0,0-1.45,4.28,6.58,6.58,0,0,0,1.65,4.59,6.28,6.28,0,0,0,7.31.67,1.69,1.69,0,0,0,1.56.87,1.66,1.66,0,0,0,1.69-1.65V173a6.58,6.58,0,0,0-1.38-4.51,6.19,6.19,0,0,0-4.75-1.93Zm0,3a2.5,2.5,0,0,1,2,.8,4.14,4.14,0,0,1,.78,2.78v2.22a4.9,4.9,0,0,1-2.55.74,2.59,2.59,0,0,1-2.07-.78,3.42,3.42,0,0,1-.82-2.49,3.94,3.94,0,0,1,.63-2.22,2.35,2.35,0,0,1,2.08-1.06Z"/><path class="cls-2" d="M129.66,160.77a1.68,1.68,0,0,0-1.7,1.64v10a6.48,6.48,0,0,0,1.38,4.48,6.12,6.12,0,0,0,4.75,1.93,6,6,0,0,0,4.63-1.85,6.5,6.5,0,0,0,1.45-4.31,6.23,6.23,0,0,0-1.57-4.57,5.94,5.94,0,0,0-4.23-1.57,6.45,6.45,0,0,0-3,.64v-4.71a1.7,1.7,0,0,0-1.69-1.64Zm4.21,8.44a2.68,2.68,0,0,1,2.1.82,3.5,3.5,0,0,1,.81,2.51,3.84,3.84,0,0,1-.62,2.22,2.43,2.43,0,0,1-2.12,1.07,2.55,2.55,0,0,1-2-.78,3.57,3.57,0,0,1-.75-2.58V170a4.07,4.07,0,0,1,2.54-.79Z"/><path class="cls-2" d="M239.55,166.52a1.66,1.66,0,0,0-1.65,1.26l-2.38,7.37h-.11l-2.4-7.23a1.62,1.62,0,0,0-1.57-1.39,1.67,1.67,0,0,0-1.88,1.65,3.54,3.54,0,0,0,.33,1.31l2.74,7.19c.51,1.39,1.21,2.13,2.67,2.13a2.76,2.76,0,0,0,2.74-2.13l2.57-7.12a4.71,4.71,0,0,0,.34-1.4c0-.9-.31-1.63-1.4-1.63"/><path class="cls-2" d="M112.55,130.25,88.88,147.61l4.45,14.09L81.26,153l-12,8.65L74,147.63l-12.19-8.84H76.5s4.56-13.44,4.79-14.14c.23.7,3.55,10.89,3.55,10.89a4.73,4.73,0,0,0,6,3,4.62,4.62,0,0,0,2.75-2.37,4.69,4.69,0,0,0,.28-3.61l-8-24.71a4.74,4.74,0,0,0-9,0l-7,21.43H47.26A4.73,4.73,0,0,0,42.52,134a4.69,4.69,0,0,0,2,3.83l18.23,13.28-7,21.46a4.73,4.73,0,0,0,7.28,5.3l18.26-13.23,18.26,13.25a4.7,4.7,0,0,0,5.57,0h0a4.73,4.73,0,0,0,1.71-5.3l-7-21.45L118.12,138a4.75,4.75,0,0,0-5.57-7.7"/><path class="cls-2" d="M128,127.3v-3.36a3.27,3.27,0,0,1,3.33-3.25,3.34,3.34,0,0,1,3.33,3.25v3.36h4.54a2.58,2.58,0,0,1,2.57,2.6,2.62,2.62,0,0,1-2.57,2.6h-4.54v9.46c0,2.15.76,3,2.36,3,1.82,0,2.56-1.4,4.18-1.4a2.52,2.52,0,0,1,2.52,2.66c0,1.5-1.37,2.71-3.13,3.5a13.23,13.23,0,0,1-4.89.95c-5.49,0-7.72-3.65-7.72-8.06V132.49h-1.62a2.6,2.6,0,0,1,0-5.19Z"/><path class="cls-2" d="M155.41,143.61h.2l4.7-14.31a3.25,3.25,0,0,1,3.24-2.46,3,3,0,0,1,3.32,3,10.39,10.39,0,0,1-.7,2.75l-5.6,13.92c-1.06,2.66-2.57,4.15-5.35,4.15s-4.23-1.45-5.24-4.15l-5.36-14a7.26,7.26,0,0,1-.65-2.55c0-1.8,1.3-3.2,3.68-3.2,2,0,2.73,1.56,3.08,2.71Z"/></g></g></g></g></svg>