<svg xmlns="http://www.w3.org/2000/svg" viewBox="0 0 283.46 283.46"><defs><style>.cls-1{fill:#ec008c;}.cls-2{fill:#fff;}</style></defs><g id="Layer_2" data-name="Layer 2"><g id="Barrandov"><g id="tvbarrandov"><rect class="cls-1" width="283.46" height="283.46"/><g id="logo"><path class="cls-2" d="M222.63,166.52c-3.55,0-6.35,2.32-6.35,6.16s2.8,6.13,6.35,6.13,6.39-2.29,6.39-6.13S226.19,166.52,222.63,166.52Zm0,2.89a3.28,3.28,0,1,1-3,3.27A3,3,0,0,1,222.63,169.41Z"/><path class="cls-2" d="M213.17,160.78a1.72,1.72,0,0,0-1.71,1.65v4.71a6.6,6.6,0,0,0-3-.63,5.6,5.6,0,0,0-4.12,1.57,6.33,6.33,0,0,0-1.66,4.57,6.42,6.42,0,0,0,1.44,4.3,5.94,5.94,0,0,0,4.64,1.86,6.05,6.05,0,0,0,4.72-1.93,6.35,6.35,0,0,0,1.39-4.48v-10a1.68,1.68,0,0,0-1.68-1.65Zm-4.23,8.45a4.14,4.14,0,0,1,2.52.79v2.47a3.54,3.54,0,0,1-.76,2.58,2.53,2.53,0,0,1-1.93.78,2.47,2.47,0,0,1-2.12-1.07,3.91,3.91,0,0,1-.6-2.22,3.65,3.65,0,0,1,.78-2.51,2.76,2.76,0,0,1,2.11-.82Z"/><path class="cls-2" d="M195.38,166.49a5.92,5.92,0,0,0-4.81,1.88,5.41,5.41,0,0,0-1,3.47v5.3a1.7,1.7,0,0,0,3.39,0v-5a3.41,3.41,0,0,1,.34-1.6,2.62,2.62,0,0,1,4.24,0,3.2,3.2,0,0,1,.32,1.6v5a1.72,1.72,0,0,0,3.43,0v-5.3a5.06,5.06,0,0,0-1.07-3.47,5.9,5.9,0,0,0-4.82-1.88"/><path class="cls-2" d="M181.49,166.52a6,6,0,0,0-4.63,1.88,6.33,6.33,0,0,0-1.45,4.28,6.51,6.51,0,0,0,1.65,4.59,5.68,5.68,0,0,0,4.12,1.54,5.75,5.75,0,0,0,3.19-.87,1.69,1.69,0,0,0,1.56.87,1.66,1.66,0,0,0,1.69-1.65V173a6.51,6.51,0,0,0-1.4-4.51,6.09,6.09,0,0,0-4.73-1.93Zm0,2.95a2.5,2.5,0,0,1,2,.8,4.21,4.21,0,0,1,.78,2.79v2.22h0a4.9,4.9,0,0,1-2.55.74,2.53,2.53,0,0,1-2.05-.77,3.43,3.43,0,0,1-.83-2.49,4,4,0,0,1,.62-2.22,2.36,2.36,0,0,1,2.09-1.07Z"/><path class="cls-2" d="M173.9,167a5.51,5.51,0,0,0-2.36-.47c-2.16,0-3.86.59-4.84,1.85a5.38,5.38,0,0,0-1,3.49v5.3a1.7,1.7,0,0,0,3.39,0v-5a3.36,3.36,0,0,1,.32-1.6,2.15,2.15,0,0,1,2-1.06,2.6,2.6,0,0,1,1.07.25,2,2,0,0,0,1.06.33,1.46,1.46,0,0,0,1.46-1.53A1.7,1.7,0,0,0,173.9,167"/><path class="cls-2" d="M164,167a5.63,5.63,0,0,0-2.37-.47c-2.18,0-3.87.59-4.85,1.85a5.38,5.38,0,0,0-1,3.49v5.3a1.7,1.7,0,0,0,3.39,0v-5a3.35,3.35,0,0,1,.34-1.6,2.18,2.18,0,0,1,2-1.06,2.6,2.6,0,0,1,1.07.25,2,2,0,0,0,1.06.33,1.47,1.47,0,0,0,1.46-1.53A1.71,1.71,0,0,0,164,167"/><path class="cls-2" d="M147.7,166.52a6,6,0,0,0-4.64,1.88,6.38,6.38,0,0,0-1.44,4.28,6.56,6.56,0,0,0,1.65,4.59,6.27,6.27,0,0,0,7.3.67,1.7,1.7,0,0,0,1.56.87,1.65,1.65,0,0,0,1.69-1.65V173a6.56,6.56,0,0,0-1.38-4.51,6.18,6.18,0,0,0-4.74-1.93Zm0,2.95a2.53,2.53,0,0,1,2,.8,4.15,4.15,0,0,1,.77,2.79v2.22a4.9,4.9,0,0,1-2.55.74,2.62,2.62,0,0,1-2.07-.77,3.48,3.48,0,0,1-.82-2.49,3.88,3.88,0,0,1,.63-2.22,2.33,2.33,0,0,1,2.08-1.07Z"/><path class="cls-2" d="M129.66,160.77a1.68,1.68,0,0,0-1.7,1.64v10a6.51,6.51,0,0,0,1.38,4.48,6.12,6.12,0,0,0,4.75,1.93,5.92,5.92,0,0,0,4.63-1.85,6.48,6.48,0,0,0,1.45-4.31,6.24,6.24,0,0,0-1.57-4.57,5.91,5.91,0,0,0-4.23-1.57,6.39,6.39,0,0,0-3,.64v-4.72a1.69,1.69,0,0,0-1.69-1.64Zm4.21,8.44a2.67,2.67,0,0,1,2.1.83,3.46,3.46,0,0,1,.81,2.5,3.85,3.85,0,0,1-.62,2.23,2.47,2.47,0,0,1-2.12,1.07,2.55,2.55,0,0,1-2-.78,3.6,3.6,0,0,1-.74-2.58V170a4,4,0,0,1,2.53-.8Z"/><path class="cls-2" d="M239.55,166.52a1.66,1.66,0,0,0-1.65,1.26l-2.38,7.37h-.11l-2.4-7.23a1.61,1.61,0,0,0-1.57-1.39,1.68,1.68,0,0,0-1.88,1.65,3.44,3.44,0,0,0,.33,1.31l2.74,7.19c.51,1.38,1.21,2.13,2.67,2.13a2.76,2.76,0,0,0,2.74-2.13l2.56-7.13a4.49,4.49,0,0,0,.34-1.4c0-.9-.3-1.63-1.39-1.63"/><path class="cls-2" d="M112.55,130.25,88.88,147.61l4.45,14.09L81.26,153l-12,8.65L74,147.63l-12.19-8.84H76.5s4.56-13.43,4.79-14.13l3.55,10.88a4.71,4.71,0,0,0,3,3,4.76,4.76,0,0,0,2.94,0,4.61,4.61,0,0,0,2.75-2.37,4.68,4.68,0,0,0,.28-3.61l-8-24.71a4.74,4.74,0,0,0-9,0l-7,21.43H47.26a4.75,4.75,0,0,0-4.51,3.27,4.94,4.94,0,0,0-.23,1.46,4.71,4.71,0,0,0,2,3.83l18.23,13.28c-.07.18-7,21.46-7,21.46a4.73,4.73,0,0,0,7.28,5.3l18.25-13.23,18.26,13.25a4.71,4.71,0,0,0,5.57,0h0a4.73,4.73,0,0,0,1.71-5.3l-7-21.45L118.12,138a4.74,4.74,0,0,0,2-3.84,4.76,4.76,0,0,0-7.53-3.86"/><path class="cls-2" d="M128,127.3v-3.36a3.27,3.27,0,0,1,3.33-3.25,3.34,3.34,0,0,1,3.32,3.25v3.36h4.54a2.58,2.58,0,0,1,2.57,2.6,2.61,2.61,0,0,1-2.57,2.59h-4.54V142c0,2.15.76,3.05,2.37,3.05,1.82,0,2.56-1.4,4.18-1.4a2.52,2.52,0,0,1,2.52,2.66c0,1.5-1.37,2.7-3.13,3.5a13.31,13.31,0,0,1-4.89,1c-5.5,0-7.72-3.66-7.72-8.06V132.49h-1.61a2.6,2.6,0,0,1,0-5.19Z"/><path class="cls-2" d="M155.41,143.61h.2l4.7-14.3a3.25,3.25,0,0,1,3.24-2.46,3,3,0,0,1,3.32,3.05,10.45,10.45,0,0,1-.7,2.75l-5.6,13.92c-1,2.66-2.56,4.15-5.35,4.15s-4.23-1.45-5.24-4.15l-5.36-14a7.28,7.28,0,0,1-.65-2.55c0-1.8,1.3-3.2,3.68-3.2,2,0,2.72,1.55,3.08,2.7Z"/></g></g></g></g></svg>