<svg xmlns="http://www.w3.org/2000/svg" xmlns:xlink="http://www.w3.org/1999/xlink" viewBox="0 0 283.46 283.46"><defs><style>.cls-1{fill:#e72917;}.cls-2{fill:url(#linear-gradient);}.cls-3{fill:url(#linear-gradient-2);}.cls-4{fill:#fff;}</style><linearGradient id="linear-gradient" x1="458.88" y1="535.55" x2="459.6" y2="535.55" gradientTransform="matrix(152.68, 88.15, 88.15, -152.68, -117220.52, 41441.59)" gradientUnits="userSpaceOnUse"><stop offset="0" stop-color="#fff"/><stop offset="1" stop-color="#eee"/></linearGradient><linearGradient id="linear-gradient-2" x1="410.85" y1="302.96" x2="412.95" y2="301.16" gradientTransform="matrix(3.78, 0, 0, -3.78, -1411.31, 1308.59)" gradientUnits="userSpaceOnUse"><stop offset="0" stop-color="#eee"/><stop offset="1" stop-color="#aaa"/></linearGradient></defs><title>tvjojplus1</title><g id="Layer_2" data-name="Layer 2"><g id="Slovakia"><g id="tvjojplus1"><rect class="cls-1" width="283.46" height="283.46"/><g id="logo"><path class="cls-2" d="M86.92,91.89l-.22,0a63.23,63.23,0,1,0,82.3,60.3,47.5,47.5,0,0,0-1.29-11h0v0l-.07-.26h0q-.16-.65-.33-1.29c.1.35.18.7.27,1.06-.09-.37-.19-.74-.29-1.11l0,.05c-.07-.26-.15-.53-.22-.79v0c-.12-.42-.25-.84-.38-1.25v0c-.1-.3-.2-.59-.3-.88l0,.1c-.14-.41-.28-.83-.44-1.24v0c-.13-.35-.27-.7-.41-1v0c-.18-.44-.35-.87-.54-1.3l0-.08c-.19-.43-.37-.86-.57-1.28l0-.1h0c-.12-.25-.25-.5-.37-.75h0c-.2-.39-.4-.79-.6-1.18h0l-.43-.77v0q-.3-.54-.62-1.07h0l-.44-.72v0c-.23-.37-.46-.73-.7-1.09l0,0-.46-.69h0c-.25-.36-.5-.71-.76-1.06l0-.05-.43-.59c-.37-.49-.75-1-1.14-1.45l-.15-.19-.39-.46c-.32-.38-.65-.77-1-1.14l0,0-.68-.73v0h0l-.53-.57-.19-.19h0l-.83-.81,0,0-.32-.32-.24-.22h0l-1.05-1c.34.3.68.61,1,.92-.34-.32-.69-.64-1-.95l-.1-.1h0l-.17-.14c-.43-.38-.87-.75-1.32-1.11a47.24,47.24,0,0,0-29.74-10.49A41.11,41.11,0,0,0,80.47,145.9a26.88,26.88,0,0,0,26.88,26.88,25.91,25.91,0,0,0,6.92-.94l.56-.74-.69-.78A21.36,21.36,0,0,1,94.68,149a25.71,25.71,0,0,1,25.69-25.69,26.89,26.89,0,0,1,26.88,26.88c0,.43,0,.85,0,1.27a47.21,47.21,0,0,0,4-9.49,47.48,47.48,0,0,1-4,9.51c0,1.34-.14,2.68-.31,4v0l-.05.47v0a2.85,2.85,0,0,0-.07.42s0,.05,0,.07,0,.25-.05.36,0,.11,0,.13,0,.22-.05.31,0,.14,0,.2a1.38,1.38,0,0,0,0,.27l-.05.24c0,.07,0,.13,0,.2a1.71,1.71,0,0,1-.07.29c0,.07,0,.13,0,.2s-.05.2-.07.29,0,.11,0,.16-.05.23-.07.33a.43.43,0,0,1,0,.16,1.71,1.71,0,0,1-.09.33c0,.05,0,.09,0,.13a2.11,2.11,0,0,1-.09.36.23.23,0,0,0,0,.11,3,3,0,0,0-.11.38.11.11,0,0,1,0,.07c0,.13-.07.27-.11.42s0,0,0,.05-.09.29-.13.43a41.53,41.53,0,0,1-37.77,29.74l.58,0-.35,0c-.76.05-1.52.07-2.3.07a47.43,47.43,0,0,1-47.42-47.42,59.24,59.24,0,0,1,29-51l.34-.65Zm64.38,23.38c.43.35.85.7,1.27,1.06Q151.95,115.79,151.3,115.27Zm4.85,4.5.66.71ZM166,135.64c.14.37.26.74.39,1.12C166.28,136.39,166.16,136,166,135.64Zm.69,2c.13.4.25.8.37,1.21C167,138.44,166.84,138,166.71,137.64ZM153,133.14q-.15,1.52-.39,3Q152.82,134.66,153,133.14Zm14.18,10.58c-.09.36-.19.72-.29,1.08C167,144.44,167.06,144.08,167.15,143.72Zm-.66,2.44c-.12.41-.25.82-.38,1.23C166.24,147,166.37,146.58,166.49,146.16Zm-.76,2.43c-.14.41-.28.82-.43,1.22C165.45,149.41,165.59,149,165.73,148.59Zm-.85,2.38c-.15.41-.32.81-.48,1.21C164.56,151.78,164.73,151.37,164.88,151Zm-.95,2.34q-.26.6-.53,1.2Q163.68,153.91,163.93,153.31Zm-1,2.28q-.29.61-.59,1.21Q162.62,156.2,162.91,155.59Zm-1.1,2.2c-.22.41-.43.82-.66,1.23C161.37,158.61,161.59,158.2,161.81,157.79ZM160.61,160c-.24.41-.48.83-.72,1.23C160.14,160.79,160.38,160.37,160.61,160Zm-1.22,2c-.28.44-.56.89-.84,1.32C158.84,162.88,159.12,162.43,159.4,162Zm-1.28,2c-.32.47-.64.95-1,1.41C157.48,164.89,157.8,164.42,158.12,163.95Zm-1.17,1.68q-1.79,2.47-3.81,4.74Q155.15,168.09,156.95,165.62ZM152.58,171c-.31.34-.63.68-1,1C151.94,171.68,152.26,171.35,152.58,171Zm-1.71,1.81-1,.94Zm-1.77,1.73-1,.92Zm-1.83,1.66-1,.86Zm-2,1.63-.94.74Zm-2,1.56-.91.66Zm-2.06,1.46-.91.61ZM139,182.29l-.76.47Zm-2.43,1.43-.49.28Zm-9.95,4.48-.21.07Zm-2.48.81-.28.08Zm-2.49.7-.4.1Zm-2.62.62-.32.07Zm-2.7.52-.18,0Zm-2.75.4h0Z"/><path class="cls-3" d="M153.2,128.5a47.25,47.25,0,0,1-6,23c0,1.34-.14,2.68-.31,4v0l-.05.47v0a2.85,2.85,0,0,0-.07.42s0,.05,0,.07,0,.25-.05.36,0,.11,0,.13,0,.22-.05.31,0,.14,0,.2a1.39,1.39,0,0,0,0,.27l-.05.24c0,.07,0,.13,0,.2a1.7,1.7,0,0,1-.07.29c0,.07,0,.13,0,.2s-.05.2-.07.29,0,.11,0,.16-.05.24-.07.33a.43.43,0,0,1,0,.16,1.71,1.71,0,0,1-.09.33c0,.05,0,.09,0,.13a2.11,2.11,0,0,1-.09.36.23.23,0,0,0,0,.11,3,3,0,0,0-.11.38.11.11,0,0,1,0,.07c0,.13-.07.27-.11.42s0,0,0,.05-.09.29-.13.43a41.53,41.53,0,0,1-37.77,29.74,53.21,53.21,0,0,0,5.89-.45h.07l.4-.05a2.11,2.11,0,0,0,.33,0l.2,0,.47-.07h.05a63.29,63.29,0,0,0,52.48-49.79,47.27,47.27,0,0,0-16.42-26,47,47,0,0,1,1.9,13.23"/><circle class="cls-4" cx="204.33" cy="104.65" r="36.61"/><path class="cls-1" d="M193.12,119v-8H185V105.5h8.07v-8h5.38v8h8.09V111H198.5v8Z"/><path class="cls-1" d="M213.41,88.11h-.08c-.76,1.59-1.27,3.86-3.31,5.06s-4.82,1.12-6.56,1.54v4.54h8.3v20.38h7V88.11Z"/></g></g></g></g></svg>