<svg xmlns="http://www.w3.org/2000/svg" xmlns:xlink="http://www.w3.org/1999/xlink" viewBox="0 0 283.46 283.46"><defs><style>.cls-1{fill:#e72917;}.cls-2{fill:url(#linear-gradient);}.cls-3{fill:url(#linear-gradient-2);}</style><linearGradient id="linear-gradient" x1="458.82" y1="535.7" x2="459.94" y2="535.7" gradientTransform="matrix(152.68, 88.15, 88.15, -152.68, -117220.52, 41441.59)" gradientUnits="userSpaceOnUse"><stop offset="0" stop-color="#fff"/><stop offset="1" stop-color="#eee"/></linearGradient><linearGradient id="linear-gradient-2" x1="425.73" y1="304.62" x2="429.02" y2="301.79" gradientTransform="matrix(3.78, 0, 0, -3.78, -1411.31, 1308.59)" gradientUnits="userSpaceOnUse"><stop offset="0" stop-color="#eee"/><stop offset="1" stop-color="#aaa"/></linearGradient></defs><title>tvjoj</title><g id="Layer_2" data-name="Layer 2"><g id="Slovakia"><g id="tvjoj"><rect class="cls-1" width="283.46" height="283.46"/><g id="logo"><path class="cls-2" d="M112.18,44.83l-.34,0a99.2,99.2,0,1,0,129.11,94.59,74.53,74.53,0,0,0-2-17.19h0v0c0-.14-.07-.27-.11-.41v0q-.25-1-.52-2c.15.55.29,1.1.43,1.66-.14-.58-.29-1.16-.45-1.74l0,.09c-.11-.41-.23-.82-.35-1.24l0-.05c-.19-.66-.39-1.31-.6-2l0,.06c-.15-.46-.31-.92-.47-1.38l.05.15c-.22-.65-.44-1.3-.68-1.95l0,0c-.21-.55-.43-1.09-.65-1.64l0,0c-.28-.69-.56-1.37-.85-2l-.05-.12c-.29-.67-.59-1.35-.9-2l-.07-.15v0c-.19-.39-.39-.78-.58-1.17h0c-.31-.62-.62-1.24-.95-1.85v0c-.22-.41-.44-.81-.67-1.21l0,0q-.48-.85-1-1.69v0l-.69-1.13,0,0c-.36-.58-.73-1.15-1.1-1.71l0-.06c-.24-.36-.47-.72-.72-1.08h0c-.39-.56-.79-1.12-1.19-1.67l-.06-.08c-.23-.31-.44-.62-.67-.93-.58-.77-1.18-1.53-1.79-2.28l-.24-.3-.62-.72c-.51-.6-1-1.2-1.55-1.79l0,0c-.35-.39-.71-.77-1.07-1.15l0,0h0c-.28-.3-.55-.6-.84-.89l-.3-.3h0c-.42-.43-.86-.85-1.29-1.28l-.05,0-.51-.5-.38-.35h0q-.82-.76-1.65-1.5c.54.47,1.06,1,1.59,1.44-.54-.5-1.08-1-1.64-1.49l-.16-.15h0l-.26-.22c-.68-.59-1.37-1.17-2.07-1.74a74.12,74.12,0,0,0-46.66-16.45,64.49,64.49,0,0,0-64.47,64.5,42.17,42.17,0,0,0,42.18,42.17,40.64,40.64,0,0,0,10.86-1.47l.88-1.16-1.08-1.22a33.52,33.52,0,0,1-30.55-33.38,40.33,40.33,0,0,1,40.3-40.3,42.18,42.18,0,0,1,42.17,42.17c0,.68,0,1.33,0,2a74.07,74.07,0,0,0,6.28-14.89,74.48,74.48,0,0,1-6.28,14.92c-.06,2.1-.23,4.2-.48,6.24v.06c0,.26-.06.48-.09.74v.06a4.47,4.47,0,0,0-.11.65s0,.08,0,.11c0,.2-.06.4-.08.57s0,.17,0,.2c0,.2-.06.34-.09.48s0,.23-.06.31a2.16,2.16,0,0,0-.05.42l-.09.37c0,.11,0,.2-.06.31a2.69,2.69,0,0,1-.11.46c0,.11,0,.2,0,.31s-.08.31-.11.46,0,.17-.06.25-.09.37-.11.51a.68.68,0,0,1-.05.25,2.68,2.68,0,0,1-.14.51c0,.09,0,.14,0,.2a3.31,3.31,0,0,1-.14.57.35.35,0,0,0,0,.17,4.72,4.72,0,0,0-.17.6.17.17,0,0,1,0,.11c-.06.2-.11.43-.17.65,0,0,0,.05,0,.08-.06.23-.14.45-.2.68A65.15,65.15,0,0,1,145,201.36l.91,0-.55,0c-1.19.09-2.38.11-3.6.11a74.4,74.4,0,0,1-74.4-74.39,92.93,92.93,0,0,1,45.52-80l.54-1Zm101,36.67c.68.54,1.34,1.1,2,1.67Q214.19,82.32,213.18,81.5Zm7.61,7.06c.35.37.7.73,1,1.11C221.49,89.3,221.13,88.93,220.79,88.57Zm15.48,24.9c.22.58.41,1.17.62,1.75C236.68,114.63,236.48,114,236.27,113.46Zm1.08,3.13c.2.63.39,1.26.58,1.89C237.74,117.86,237.55,117.22,237.35,116.6Zm-21.55-7.07q-.23,2.39-.62,4.74Q215.57,111.92,215.8,109.53ZM238,126.14c-.14.57-.3,1.13-.45,1.69C237.74,127.27,237.9,126.71,238,126.14ZM237,130c-.19.65-.4,1.29-.6,1.93C236.61,131.26,236.82,130.62,237,130Zm-1.19,3.81c-.22.64-.45,1.28-.67,1.92C235.37,135.05,235.6,134.42,235.82,133.77Zm-1.33,3.73c-.24.64-.5,1.27-.75,1.9C234,138.78,234.24,138.14,234.48,137.5ZM233,141.18q-.4.94-.83,1.88Q232.59,142.12,233,141.18Zm-1.61,3.57q-.45,1-.92,1.89Q230.93,145.71,231.38,144.75Zm-1.73,3.45c-.34.65-.68,1.29-1,1.93C229,149.49,229.32,148.85,229.66,148.2Zm-1.87,3.41c-.37.65-.75,1.3-1.13,1.94C227,152.91,227.41,152.26,227.79,151.61Zm-1.91,3.18c-.44.7-.87,1.39-1.32,2.08C225,156.19,225.44,155.49,225.87,154.8Zm-2,3.07c-.5.74-1,1.49-1.53,2.21C222.87,159.35,223.37,158.61,223.87,157.86ZM222,160.5q-2.81,3.87-6,7.44Q219.21,164.37,222,160.5Zm-6.86,8.44c-.49.54-1,1.06-1.49,1.59C214.18,170,214.69,169.47,215.18,168.93Zm-2.69,2.84c-.49.5-1,1-1.49,1.48C211.49,172.76,212,172.27,212.49,171.77Zm-2.77,2.71c-.52.49-1.05,1-1.58,1.45C208.66,175.45,209.19,175,209.71,174.49Zm-2.88,2.6q-.79.69-1.6,1.36C205.78,178,206.31,177.54,206.84,177.09Zm-3.06,2.56-1.48,1.17Zm-3.18,2.45-1.43,1Zm-3.23,2.28-1.42,1Zm-3.5,2.26-1.2.74Zm-3.81,2.25-.77.44Zm-15.6,7-.33.11Zm-3.89,1.27-.44.13Zm-3.91,1.09-.62.16Zm-4.11,1-.49.11Zm-4.23.81-.29,0Zm-4.31.63-.2,0Z"/><path class="cls-3" d="M216.16,102.26a74.13,74.13,0,0,1-9.36,36.11c-.06,2.1-.23,4.2-.48,6.24v.06l-.09.74v.06a4.47,4.47,0,0,0-.11.65s0,.09,0,.11c0,.2-.06.4-.09.57s0,.17,0,.2c0,.2-.06.34-.09.48s0,.23-.06.31a2.18,2.18,0,0,0-.06.43l-.09.37c0,.11,0,.2-.06.31a2.67,2.67,0,0,1-.11.45c0,.11,0,.2,0,.31s-.09.31-.11.45,0,.17-.06.26-.09.37-.11.51a.68.68,0,0,1-.06.26,2.69,2.69,0,0,1-.14.51c0,.09,0,.14,0,.2a3.32,3.32,0,0,1-.14.57.36.36,0,0,0,0,.17,4.71,4.71,0,0,0-.17.6.17.17,0,0,1,0,.11c-.06.2-.11.43-.17.65,0,0,0,.06,0,.09-.06.23-.14.45-.2.68A65.15,65.15,0,0,1,145,201.36a83.48,83.48,0,0,0,9.25-.71h.11l.62-.09a3.31,3.31,0,0,0,.51-.06c.09,0,.2,0,.31-.06s.48-.09.74-.11h.09a99.3,99.3,0,0,0,82.34-78.11A74.15,74.15,0,0,0,213.18,81.5a73.76,73.76,0,0,1,3,20.76"/></g></g></g></g></svg>