<svg xmlns="http://www.w3.org/2000/svg" xmlns:xlink="http://www.w3.org/1999/xlink" viewBox="0 0 283.46 283.46"><defs><style>.cls-1{fill:#e72917;}.cls-2{fill:url(#linear-gradient);}.cls-3{fill:url(#linear-gradient-2);}</style><linearGradient id="linear-gradient" x1="458.82" y1="535.7" x2="459.94" y2="535.7" gradientTransform="matrix(152.68, 88.15, 88.15, -152.68, -117220.52, 41441.59)" gradientUnits="userSpaceOnUse"><stop offset="0" stop-color="#fff"/><stop offset="1" stop-color="#eee"/></linearGradient><linearGradient id="linear-gradient-2" x1="425.73" y1="304.62" x2="429.02" y2="301.79" gradientTransform="matrix(3.78, 0, 0, -3.78, -1411.31, 1308.59)" gradientUnits="userSpaceOnUse"><stop offset="0" stop-color="#eee"/><stop offset="1" stop-color="#aaa"/></linearGradient></defs><g id="Layer_2" data-name="Layer 2"><g id="Slovakia"><g id="tvjoj"><rect class="cls-1" width="283.46" height="283.46"/><g id="logo"><path class="cls-2" d="M112.18,44.83l-.34,0a99.2,99.2,0,1,0,129.1,94.59,74.34,74.34,0,0,0-2-17.19h0a0,0,0,0,0,0,0c0-.14-.07-.27-.11-.41v0c-.17-.68-.34-1.35-.52-2,.15.55.29,1.1.42,1.66-.14-.58-.29-1.17-.45-1.74l0,.08c-.11-.41-.23-.82-.35-1.23l0,0c-.19-.66-.39-1.31-.6-2l0,.06c-.15-.46-.31-.92-.47-1.38a.88.88,0,0,0,.05.15c-.22-.65-.45-1.31-.69-2l0,0c-.2-.56-.43-1.1-.64-1.64l0,0c-.28-.69-.56-1.37-.85-2.05l-.06-.12c-.29-.67-.58-1.35-.9-2l-.07-.15v0c-.19-.39-.39-.78-.59-1.17h0c-.3-.62-.62-1.24-.94-1.85v0c-.22-.41-.45-.81-.67-1.21,0,0,0,0,0,0-.32-.57-.64-1.13-1-1.69v0l-.69-1.13,0,0c-.35-.58-.72-1.15-1.1-1.71a.33.33,0,0,0,0-.06c-.24-.36-.48-.73-.72-1.08h0c-.38-.57-.79-1.12-1.19-1.67a.56.56,0,0,0-.05-.08c-.23-.31-.45-.63-.68-.93-.58-.77-1.18-1.53-1.79-2.28l-.24-.3-.61-.72c-.51-.6-1-1.2-1.55-1.78l0,0c-.35-.39-.71-.77-1.07-1.15l0,0h0c-.28-.3-.55-.6-.84-.89-.1-.11-.2-.2-.3-.3h0c-.43-.44-.86-.86-1.3-1.28a.12.12,0,0,0,0,0l-.5-.5-.39-.35h0c-.54-.51-1.09-1-1.65-1.51.54.48,1.06,1,1.59,1.45-.54-.51-1.09-1-1.64-1.49l-.16-.15h0l-.26-.22q-1-.88-2.07-1.74a74.15,74.15,0,0,0-46.66-16.45,64.5,64.5,0,0,0-64.47,64.5,42.17,42.17,0,0,0,42.18,42.17,40.43,40.43,0,0,0,10.86-1.47l.88-1.16-1.08-1.22a33.51,33.51,0,0,1-30.54-33.38,40.34,40.34,0,0,1,40.3-40.31,42.19,42.19,0,0,1,42.18,42.18c0,.68,0,1.33,0,2a74.41,74.41,0,0,0,6.28-14.88,74.91,74.91,0,0,1-6.28,14.91c-.06,2.1-.23,4.2-.48,6.24v.06l-.09.73v.06a4.41,4.41,0,0,0-.11.65s0,.09,0,.12c0,.2-.06.39-.08.56s0,.17,0,.2c0,.2-.06.34-.09.48s0,.23-.06.32a3,3,0,0,0-.05.42c0,.11-.06.26-.09.37s0,.2-.05.31a2.6,2.6,0,0,1-.12.46c0,.11,0,.19,0,.31s-.08.31-.11.45,0,.17-.06.26-.08.37-.11.51a.61.61,0,0,1-.06.25,2,2,0,0,1-.14.51c0,.09,0,.15,0,.2a3.17,3.17,0,0,1-.14.57.34.34,0,0,0,0,.17c-.08.2-.11.4-.17.59a.18.18,0,0,1,0,.12l-.17.65s0,.06,0,.09c-.06.22-.14.45-.2.68A65.16,65.16,0,0,1,145,201.36l.91,0c-.18,0-.36,0-.55,0-1.19.09-2.38.12-3.6.12a74.4,74.4,0,0,1-74.39-74.4,92.93,92.93,0,0,1,45.52-80l.54-1Zm101,36.67c.67.55,1.34,1.11,2,1.67C214.52,82.61,213.85,82.05,213.18,81.5Zm7.61,7.07c.34.36.7.73,1,1.1C221.49,89.3,221.13,88.93,220.79,88.57Zm15.48,24.89c.21.58.41,1.17.61,1.75C236.68,114.63,236.48,114,236.27,113.46Zm1.08,3.14c.2.63.39,1.26.58,1.89C237.74,117.86,237.55,117.22,237.35,116.6Zm-21.55-7.07c-.16,1.6-.36,3.18-.62,4.74C215.44,112.71,215.64,111.13,215.8,109.53ZM238,126.14c-.14.57-.3,1.13-.45,1.69C237.74,127.27,237.9,126.71,238,126.14ZM237,130c-.19.65-.4,1.29-.6,1.93C236.61,131.26,236.82,130.62,237,130Zm-1.19,3.8c-.22.65-.45,1.28-.68,1.92C235.37,135.05,235.6,134.42,235.82,133.77Zm-1.34,3.73c-.24.64-.5,1.27-.75,1.91C234,138.78,234.24,138.14,234.48,137.5ZM233,141.18c-.27.63-.55,1.25-.83,1.88C232.45,142.43,232.73,141.81,233,141.18Zm-1.62,3.57c-.3.64-.61,1.27-.92,1.9C230.77,146,231.08,145.39,231.38,144.75Zm-1.72,3.45c-.34.65-.68,1.29-1,1.93C229,149.49,229.32,148.85,229.66,148.2Zm-1.87,3.41c-.38.65-.75,1.3-1.14,1.94C227,152.91,227.41,152.26,227.79,151.61Zm-1.92,3.19c-.43.69-.87,1.39-1.32,2.07C225,156.19,225.44,155.49,225.87,154.8Zm-2,3.06c-.5.75-1,1.49-1.53,2.22C222.87,159.35,223.37,158.61,223.87,157.86ZM222,160.5q-2.81,3.87-6,7.44Q219.21,164.37,222,160.5Zm-6.85,8.43c-.49.54-1,1.07-1.5,1.59C214.18,170,214.69,169.47,215.18,168.93Zm-2.69,2.84c-.49.5-1,1-1.5,1.48C211.49,172.76,212,172.27,212.49,171.77Zm-2.78,2.72c-.52.49-1.05,1-1.58,1.44C208.66,175.45,209.19,175,209.71,174.49Zm-2.87,2.6-1.6,1.35C205.78,178,206.31,177.54,206.84,177.09Zm-3.06,2.55c-.5.4-1,.79-1.49,1.17C202.79,180.43,203.28,180,203.78,179.64Zm-3.19,2.45c-.47.35-.94.7-1.42,1C199.65,182.79,200.12,182.44,200.59,182.09Zm-3.22,2.28c-.48.32-1,.65-1.43,1C196.42,185,196.89,184.69,197.37,184.37Zm-3.5,2.27-1.19.74Zm-3.81,2.24-.77.44Zm-15.6,7-.34.11Zm-3.89,1.27-.45.13Zm-3.91,1.09-.63.16Zm-4.11,1-.49.1Zm-4.23.81-.29,0Zm-4.31.63-.2,0Z"/><path class="cls-3" d="M216.16,102.26a74.26,74.26,0,0,1-9.36,36.11c-.06,2.09-.23,4.19-.48,6.23v.06c0,.26-.06.48-.09.74v.06a4,4,0,0,0-.11.65s0,.08,0,.11c0,.2-.06.4-.09.57a.53.53,0,0,1,0,.2c0,.2-.06.34-.09.48s0,.23-.06.31a3.15,3.15,0,0,0-.05.43c0,.11-.06.25-.09.37a2.87,2.87,0,0,0-.05.31,2.5,2.5,0,0,1-.12.45c0,.11,0,.2,0,.31s-.08.31-.11.46,0,.17-.06.25-.08.37-.11.51a.66.66,0,0,1-.06.26,2.53,2.53,0,0,1-.14.51c0,.08,0,.14,0,.2a3.06,3.06,0,0,1-.14.56.36.36,0,0,0,0,.17c-.08.2-.11.4-.17.6,0,0,0,.09,0,.11l-.17.66s0,.05,0,.08c0,.23-.14.45-.19.68A65.15,65.15,0,0,1,145,201.36a83.38,83.38,0,0,0,9.24-.71h.12l.62-.09a4.4,4.4,0,0,0,.51-.05c.09,0,.2,0,.31-.06l.74-.11h.09a99.3,99.3,0,0,0,82.33-78.11A74.08,74.08,0,0,0,213.18,81.5a73.68,73.68,0,0,1,3,20.76"/></g></g></g></g></svg>