<svg xmlns="http://www.w3.org/2000/svg" xmlns:xlink="http://www.w3.org/1999/xlink" viewBox="0 0 283.46 283.46"><defs><style>.cls-1,.cls-5{fill:#e72917;}.cls-2{fill:url(#linear-gradient);}.cls-3{fill:url(#linear-gradient-2);}.cls-4{fill:#fff;}.cls-5{font-size:43.05px;font-family:Arial-BoldMT, Arial;font-weight:700;}</style><linearGradient id="linear-gradient" x1="458.88" y1="535.55" x2="459.6" y2="535.55" gradientTransform="matrix(152.68, 88.15, 88.15, -152.68, -117220.52, 41441.59)" gradientUnits="userSpaceOnUse"><stop offset="0" stop-color="#fff"/><stop offset="1" stop-color="#eee"/></linearGradient><linearGradient id="linear-gradient-2" x1="410.85" y1="302.96" x2="412.95" y2="301.16" gradientTransform="matrix(3.78, 0, 0, -3.78, -1411.31, 1308.59)" gradientUnits="userSpaceOnUse"><stop offset="0" stop-color="#eee"/><stop offset="1" stop-color="#aaa"/></linearGradient></defs><title>tvjojplus1</title><g id="Layer_2" data-name="Layer 2"><g id="Slovakia"><g id="tvjojplus1"><rect class="cls-1" width="283.46" height="283.46"/><g id="logo"><path class="cls-2" d="M86.92,91.89l-.21,0A63.23,63.23,0,1,0,169,152.21a47.11,47.11,0,0,0-1.29-11h0v0c0-.09-.05-.17-.07-.26h0c-.11-.43-.22-.86-.34-1.29.1.35.19.7.28,1.06-.1-.37-.19-.74-.29-1.11v0c-.07-.26-.14-.52-.22-.79v0c-.12-.42-.25-.83-.38-1.25v0c-.09-.29-.19-.59-.3-.88l0,.1c-.14-.42-.29-.83-.44-1.24v0c-.13-.35-.27-.69-.41-1v0l-.54-1.3,0-.08c-.18-.42-.37-.85-.57-1.28l0-.09v0c-.12-.25-.25-.49-.38-.74h0c-.19-.4-.39-.79-.6-1.18h0c-.14-.26-.28-.52-.43-.78v0c-.2-.36-.4-.72-.62-1.07h0l-.44-.72v0c-.23-.37-.46-.73-.7-1.09l0,0-.46-.69h0c-.24-.36-.5-.71-.75-1.07a.1.1,0,0,1,0,0c-.15-.19-.28-.4-.43-.59-.37-.49-.75-1-1.14-1.45l-.15-.19c-.13-.16-.27-.31-.4-.46-.32-.38-.65-.77-1-1.14l0,0-.69-.74h0c-.18-.19-.35-.39-.53-.57l-.2-.19h0c-.27-.28-.55-.55-.83-.82l0,0c-.11-.1-.21-.21-.32-.32l-.25-.22h0l-1-1,1,.92-1-1-.11-.09h0l-.17-.14q-.65-.57-1.32-1.11a47.26,47.26,0,0,0-29.74-10.49A41.11,41.11,0,0,0,80.47,145.9a26.87,26.87,0,0,0,26.88,26.88,25.76,25.76,0,0,0,6.93-.94l.56-.74-.69-.78A21.36,21.36,0,0,1,94.68,149a25.71,25.71,0,0,1,25.69-25.69,26.89,26.89,0,0,1,26.88,26.89c0,.43,0,.85,0,1.26a47.07,47.07,0,0,0,4-9.49,47.24,47.24,0,0,1-4,9.51c0,1.34-.15,2.68-.31,4v0c0,.17,0,.31-.06.47v0c0,.13-.05.27-.07.42a.64.64,0,0,0,0,.07c0,.12,0,.25-.05.36s0,.11,0,.13,0,.21-.05.3,0,.15,0,.2a1.24,1.24,0,0,0,0,.27c0,.08,0,.17-.06.24s0,.13,0,.2a1,1,0,0,1-.07.29c0,.07,0,.12,0,.19a2.46,2.46,0,0,1-.07.29,1.55,1.55,0,0,0,0,.17,3,3,0,0,0-.08.32.35.35,0,0,1,0,.16,2.62,2.62,0,0,1-.09.33c0,.05,0,.09,0,.13s-.06.25-.09.36a.22.22,0,0,0,0,.11c-.05.12-.07.25-.11.38a.1.1,0,0,1,0,.07c0,.13-.07.27-.1.42s0,0,0,.05l-.13.43a41.51,41.51,0,0,1-37.77,29.74l.58,0-.34,0c-.76.06-1.52.08-2.3.08a47.43,47.43,0,0,1-47.42-47.42,59.24,59.24,0,0,1,29-51l.34-.65Zm64.38,23.38c.43.35.85.7,1.27,1.07C152.15,116,151.73,115.62,151.3,115.27Zm4.85,4.5c.22.24.45.47.66.71C156.6,120.24,156.37,120,156.15,119.77ZM166,135.64c.14.37.26.75.39,1.12C166.28,136.39,166.16,136,166,135.64Zm.69,2c.13.4.25.8.37,1.21C167,138.44,166.84,138,166.71,137.64ZM153,133.14c-.1,1-.23,2-.39,3C152.74,135.16,152.87,134.15,153,133.14Zm14.18,10.58c-.09.36-.19.72-.29,1.08C167,144.44,167.06,144.08,167.15,143.72Zm-.66,2.44c-.12.42-.25.83-.38,1.24C166.24,147,166.37,146.58,166.49,146.16Zm-.76,2.43c-.14.41-.28.82-.43,1.22C165.45,149.41,165.59,149,165.73,148.59Zm-.85,2.38c-.15.4-.32.81-.48,1.21C164.56,151.78,164.73,151.37,164.88,151Zm-.95,2.34c-.17.4-.34.8-.52,1.2C163.59,154.11,163.76,153.71,163.93,153.31Zm-1,2.28c-.2.4-.39.8-.59,1.21C162.52,156.4,162.71,156,162.91,155.59Zm-1.1,2.2-.66,1.23Zm-1.2,2.17c-.23.41-.47.83-.72,1.24C160.14,160.79,160.38,160.37,160.61,160Zm-1.21,2c-.28.44-.56.89-.85,1.32C158.84,162.88,159.12,162.43,159.4,162Zm-1.28,2c-.32.47-.64.94-1,1.41C157.48,164.89,157.8,164.42,158.12,164ZM157,165.62q-1.8,2.48-3.82,4.75Q155.15,168.09,157,165.62ZM152.58,171l-1,1Zm-1.72,1.81c-.31.32-.63.63-1,.94C150.23,173.44,150.55,173.13,150.86,172.81Zm-1.77,1.73-1,.92Zm-1.83,1.66-1,.86Zm-1.95,1.63-.95.74Zm-2,1.56-.91.66Zm-2.06,1.45-.9.61ZM139,182.29l-.77.47Zm-2.43,1.43-.49.28Zm-9.95,4.48-.21.07Zm-2.48.8-.28.09Zm-2.49.7-.4.1Zm-2.62.62-.31.07Zm-2.7.51-.18,0Zm-2.75.41h0Z"/><path class="cls-3" d="M153.2,128.5a47.34,47.34,0,0,1-6,23c0,1.33-.15,2.67-.31,4v0l-.06.47v0c0,.12-.05.27-.07.41a.64.64,0,0,1,0,.07,3.69,3.69,0,0,1-.05.37c0,.05,0,.1,0,.12s0,.22-.05.31,0,.14,0,.2a1.26,1.26,0,0,0,0,.27c0,.07,0,.16-.05.24s0,.12,0,.19a1,1,0,0,1-.07.29c0,.08,0,.13,0,.2s-.05.2-.07.29a1.43,1.43,0,0,0,0,.16c0,.13-.06.24-.08.33a.65.65,0,0,1,0,.16,2.62,2.62,0,0,1-.09.33c0,.05,0,.09,0,.12a3.35,3.35,0,0,1-.09.37.18.18,0,0,0,0,.1c-.05.13-.07.26-.11.38a.12.12,0,0,1,0,.08l-.11.41s0,0,0,.06l-.13.43a41.52,41.52,0,0,1-37.77,29.74,55.18,55.18,0,0,0,5.9-.45h.07l.4-.06c.11,0,.21,0,.32,0l.2,0,.47-.07h.06a63.29,63.29,0,0,0,52.48-49.79,47.26,47.26,0,0,0-16.42-26,47,47,0,0,1,1.9,13.23"/><circle class="cls-4" cx="204.33" cy="104.65" r="36.61"/><text class="cls-5" transform="translate(183.26 123.47)">+</text><path class="cls-1" d="M213.41,88.11h-.08c-.76,1.59-1.27,3.86-3.31,5s-4.82,1.12-6.56,1.55v4.53h8.3v20.38h7V88.11Z"/></g></g></g></g></svg>