<svg xmlns="http://www.w3.org/2000/svg" xmlns:xlink="http://www.w3.org/1999/xlink" viewBox="0 0 283.46 283.46"><defs><style>.cls-1{fill:url(#linear-gradient);}.cls-2{fill:#fff;}</style><linearGradient id="linear-gradient" x1="141.73" y1="283.46" x2="141.73" gradientUnits="userSpaceOnUse"><stop offset="0" stop-color="#211e1e"/><stop offset="1" stop-color="#423f3f"/></linearGradient></defs><g id="Layer_2" data-name="Layer 2"><g id="Slovakia"><g id="tvlux"><rect class="cls-1" width="283.46" height="283.46"/><g id="logo"><path class="cls-2" d="M95.18,79.9c-1.59,1.55-5.86,7.78-9.75,13.67C82,98.8,75.62,109.61,74,112.41c-4.35,7.48-16.06,30.36-15.45,39.79.35,5.23,3.62,8.37,9.83,9,4.15.41,7,.28,14.45-.39,18-1.62,35-7.64,39.11-10.24a3.59,3.59,0,0,0,1.23-1.12,1,1,0,0,0,.14-.51.56.56,0,0,0-.41-.45,4.61,4.61,0,0,0-1.67-.13c-1,0-2.54.17-4.21.25-2.72.12-6.26.22-10.41.41-6,.28-16.41.88-23.27-3.21-5.62-3.35-4.8-14.49-.74-28.65,4-13.73,15.8-37.19,13.47-37.7a.18.18,0,0,0-.1,0,1.31,1.31,0,0,0-.78.45"/><path class="cls-2" d="M57.42,72.82A15.38,15.38,0,0,0,42.52,88.4v64.88a15.34,15.34,0,0,0,15.12,15.57h63.82a15.34,15.34,0,0,0,15.12-15.57V88.4a15.37,15.37,0,0,0-14.89-15.58ZM46,150.72V91.16c0-8.79,5.71-15,14.51-15h58.39c8.82,0,14.36,6.09,14.36,14.85v60.53c0,8.77-6.35,13.49-15.18,13.49H59.17C50.35,165,46,159.49,46,150.72"/><path class="cls-2" d="M183.48,87.8v46.33c0,10.3-5.15,14.69-12.32,14.69-6.81,0-12.49-4-12.49-16.1V87.8h-4.1v48a16.77,16.77,0,0,0,16.59,16.53c7,0,16.43-5,16.43-17.49v-47Z"/><polygon class="cls-2" points="235.39 87.8 223.59 115.15 211.78 87.8 206.9 87.8 221.68 119.11 206.45 151.11 211.35 151.11 223.49 123.06 235.82 151.11 240.72 151.11 225.68 119.19 240.27 87.8 235.39 87.8"/><path class="cls-2" d="M42.52,184.28H63.18v2.31H42.52Zm8.62,2.31h3.23v24H51.14Z"/><path class="cls-2" d="M71.48,184.28H87.54v2.31H71.48Zm0,2.31h3.23V196H71.48Zm0,9.38H83.94v2.29H71.48Zm0,2.29h3.23v10.07H71.48Zm0,10.07H87.84v2.31H71.48Z"/><path class="cls-2" d="M95.88,184.28h3.2v24.05h-3.2Zm0,24.05h16.61v2.31H95.88Z"/><path class="cls-2" d="M120.81,184.28h16v2.31h-16Zm0,2.31H124V196h-3.21Zm0,9.38h12.44v2.29H120.81Zm0,2.29H124v10.07h-3.21Zm0,10.07h16.34v2.31H120.81Z"/><polygon class="cls-2" points="159.8 184.28 154.26 206.43 154.16 206.43 148.58 184.28 145.06 184.28 151.93 210.64 156.34 210.64 163.35 184.28 159.8 184.28"/><polygon class="cls-2" points="172.43 180.95 174.06 182.75 182.34 178.03 180.03 175.76 172.43 180.95"/><polygon class="cls-2" points="183.13 184.28 183.13 186.59 195.54 186.59 182.66 208.66 182.66 210.64 200.26 210.64 200.26 208.33 186.53 208.33 199.24 186.22 199.24 184.28 183.13 184.28"/><path class="cls-2" d="M219.08,210.64h3.49l2.74-7.17h9.4l2.76,7.17h3.47L230,184.28ZM230,191.51l3.95,9.83h-7.85Z"/><path class="cls-2" d="M171.65,210.64h3.21V184.28h-3.21Z"/><path class="cls-2" d="M207.55,210.64h3.23V184.28h-3.23Z"/></g></g></g></g></svg>