<?xml version="1.0" encoding="UTF-8" standalone="no"?>
<svg
   xmlns:dc="http://purl.org/dc/elements/1.1/"
   xmlns:cc="http://creativecommons.org/ns#"
   xmlns:rdf="http://www.w3.org/1999/02/22-rdf-syntax-ns#"
   xmlns:svg="http://www.w3.org/2000/svg"
   xmlns="http://www.w3.org/2000/svg"
   xmlns:sodipodi="http://sodipodi.sourceforge.net/DTD/sodipodi-0.dtd"
   xmlns:inkscape="http://www.inkscape.org/namespaces/inkscape"
   width="1123.6284"
   height="273.1832"
   viewBox="0 0 1123.6284 273.1832"
   version="1.1"
   id="svg27"
   sodipodi:docname="Tv-paprika-logo-2021.svg"
   style="fill:none"
   inkscape:version="0.92.3 (2405546, 2018-03-11)">
  <metadata
     id="metadata31">
    <rdf:RDF>
      <cc:Work
         rdf:about="">
        <dc:format>image/svg+xml</dc:format>
        <dc:type
           rdf:resource="http://purl.org/dc/dcmitype/StillImage" />
        <dc:title></dc:title>
      </cc:Work>
    </rdf:RDF>
  </metadata>
  <sodipodi:namedview
     pagecolor="#ffffff"
     bordercolor="#666666"
     borderopacity="1"
     objecttolerance="10"
     gridtolerance="10"
     guidetolerance="10"
     inkscape:pageopacity="0"
     inkscape:pageshadow="2"
     inkscape:window-width="1280"
     inkscape:window-height="712"
     id="namedview29"
     showgrid="false"
     fit-margin-top="0"
     fit-margin-left="0"
     fit-margin-right="0"
     fit-margin-bottom="0"
     inkscape:zoom="0.37958186"
     inkscape:cx="381.68072"
     inkscape:cy="253.48471"
     inkscape:window-x="-4"
     inkscape:window-y="-4"
     inkscape:window-maximized="1"
     inkscape:current-layer="svg27" />
  <g
     clip-path="url(#clip0)"
     id="g20"
     transform="matrix(6.9340945,0,0,6.9340945,0,-26.36003)">
    <path
       d="m 158.929,12.5691 c -1.615,0 -2.961,1.2525 -3.115,2.8086 -1.846,-1.4043 -4.153,-2.2393 -6.691,-2.2393 -6.075,0 -10.997,4.8582 -10.997,10.8551 0,5.9968 4.922,10.855 10.997,10.855 2.577,0 4.961,-0.8729 6.845,-2.3532 0.423,1.2146 1.577,2.1255 2.961,2.1255 1.73,0 3.115,-1.3664 3.115,-3.0743 V 15.6434 c 0,-1.67 -1.423,-3.0743 -3.115,-3.0743 z m -9.152,17.3453 c -3.345,0 -6.037,-2.6568 -6.037,-5.9589 0,-3.302 2.692,-5.9589 6.037,-5.9589 3.345,0 6.037,2.6569 6.037,5.9589 0,3.3021 -2.73,5.9589 -6.037,5.9589 z"
       id="path2"
       inkscape:connector-curvature="0"
       style="fill:#bf3228" />
    <path
       d="m 67.717,12.5691 c -1.6151,0 -2.9609,1.2525 -3.1148,2.8086 -1.8457,-1.4043 -4.153,-2.2393 -6.6909,-2.2393 -6.0757,0 -10.9978,4.8582 -10.9978,10.8551 0,5.9968 4.9221,10.855 10.9978,10.855 2.5764,0 4.9605,-0.8729 6.8448,-2.3532 0.4229,1.2146 1.5766,2.1255 2.9609,2.1255 1.7304,0 3.1147,-1.3664 3.1147,-3.0743 V 15.6434 c 0,-1.67 -1.3843,-3.0743 -3.1147,-3.0743 z m -9.152,17.3453 c -3.3455,0 -6.0372,-2.6568 -6.0372,-5.9589 0,-3.302 2.6917,-5.9589 6.0372,-5.9589 3.3455,0 6.0372,2.6569 6.0372,5.9589 0,3.3021 -2.6917,5.9589 -6.0372,5.9589 z"
       id="path4"
       inkscape:connector-curvature="0"
       style="fill:#bf3228" />
    <path
       d="m 114.669,34.8485 h -0.461 c -1.577,0 -2.846,-1.2525 -2.846,-2.8086 V 15.3018 c 0,-1.5561 1.269,-2.8086 2.846,-2.8086 h 0.423 c 1.576,0 2.845,1.2525 2.845,2.8086 v 16.7381 c 0,1.5561 -1.269,2.8086 -2.807,2.8086 z"
       id="path6"
       inkscape:connector-curvature="0"
       style="fill:#bf3228" />
    <path
       d="m 138.702,32.0019 -6.96,-8.9194 4.538,-5.3516 c 1.077,-1.2525 0.884,-3.1123 -0.385,-4.175 -1.269,-1.0627 -3.153,-0.873 -4.23,0.3795 l -5.498,6.5662 V 6.64812 c 0,-1.55614 -1.308,-2.84661 -2.884,-2.84661 h -0.347 c -1.576,0 -2.884,1.29047 -2.884,2.84661 V 32.0019 c 0,1.5562 1.308,2.8466 2.884,2.8466 h 0.347 c 1.576,0 2.884,-1.2904 2.884,-2.8466 v -6.1866 l 5.883,7.5909 5.499,1.2905 0.538,-0.2277 c 0.962,-0.4555 1.269,-1.6321 0.615,-2.4671 z"
       id="path8"
       inkscape:connector-curvature="0"
       style="fill:#bf3228" />
    <path
       d="m 35.1467,13.0245 c -2.4995,0 -4.8452,0.835 -6.6909,2.2394 -0.1154,-1.5941 -1.4613,-2.8087 -3.1148,-2.8087 -1.7304,0 -3.1147,1.3664 -3.1147,3.0743 v 8.6158 7.2493 9.0712 c 0,1.5182 1.2689,2.7707 2.8071,2.7707 h 0.4999 c 1.5381,0 2.8071,-1.2525 2.8071,-2.7707 v -8.0843 c 1.8842,1.4422 4.2299,2.3152 6.7678,2.3152 6.0757,0 10.9978,-4.8582 10.9978,-10.8551 0,-5.9968 -4.8836,-10.8171 -10.9593,-10.8171 z m -0.6153,16.776 c -3.3454,0 -6.0372,-2.6568 -6.0372,-5.9589 0,-3.302 2.6918,-5.9968 6.0372,-5.9968 3.3455,0 6.0373,2.6568 6.0373,5.9589 0,3.302 -2.6918,5.9968 -6.0373,5.9968 z"
       id="path10"
       inkscape:connector-curvature="0"
       style="fill:#bf3228" />
    <path
       d="m 85.4056,13.0245 c -2.4995,0 -4.8452,0.835 -6.691,2.2394 -0.1153,-1.5941 -1.4612,-2.8087 -3.1147,-2.8087 -1.7304,0 -3.1148,1.3664 -3.1148,3.0743 v 8.6158 7.2493 9.0712 c 0,1.5182 1.269,2.7707 2.8072,2.7707 h 0.4999 c 1.5381,0 2.8071,-1.2525 2.8071,-2.7707 v -8.0843 c 1.8842,1.4422 4.2299,2.3152 6.7678,2.3152 6.0757,0 10.9978,-4.8582 10.9978,-10.8551 0,-5.9968 -4.9221,-10.8171 -10.9593,-10.8171 z m -0.6537,16.776 c -3.3455,0 -6.0373,-2.6568 -6.0373,-5.9589 0,-3.302 2.6918,-5.9589 6.0373,-5.9589 3.3454,0 6.0372,2.6569 6.0372,5.9589 0,3.3021 -2.6918,5.9589 -6.0372,5.9589 z"
       id="path12"
       inkscape:connector-curvature="0"
       style="fill:#bf3228" />
    <path
       d="m 106.824,12.645 c -0.999,0.1898 -1.999,0.835 -3.345,1.7459 -0.116,0.0759 -0.308,0.038 -0.346,-0.0759 -0.423,-0.9109 -1.385,-1.8218 -2.423,-1.8218 h -0.231 c -1.6915,0 -2.6528,1.3663 -2.6528,3.0743 v 16.1687 c 0,1.708 1.3843,3.0744 3.0378,3.0744 1.692,0 3.038,-1.3664 3.038,-3.0744 V 20.16 c 0,-0.4175 0.384,-0.7211 0.73,-0.9868 0.885,-0.6452 2.538,-1.2145 3.577,-1.2145 1.23,0 1.807,-1.1766 1.999,-2.3912 0.308,-2.0875 -0.5,-3.4918 -3.384,-2.9225 z"
       id="path14"
       inkscape:connector-curvature="0"
       style="fill:#bf3228" />
    <path
       d="m 137.587,34.6967 c -2.345,0.6073 -4.268,0.3037 -5.499,-1.2905 z"
       id="path16"
       inkscape:connector-curvature="0"
       style="fill:#bf3228" />
    <path
       d="m 19.6883,15.8711 c 0,5.3662 -4.4074,9.7164 -9.84416,9.7164 C 4.40737,25.5875 0,21.2373 0,15.8711 0,10.5049 4.40737,6.15466 9.84414,6.15466 c 5.43676,0 9.84416,4.35024 9.84416,9.71644 z M 15.766,12.6829 c 0.2307,0 0.4614,0.1138 0.5768,0.3036 0.1538,0.1898 0.1538,0.4555 0,0.6832 l -3.1147,7.4012 c -0.077,0.2657 -0.4999,0.6073 -0.9614,0.6073 h -0.6152 c -0.423,0 -0.846,-0.2278 -0.9998,-0.6453 L 8.26753,15.2638 C 8.22907,15.112 8.11371,15.0361 7.9599,15.0361 H 7.53691 c -0.15382,0 -0.26918,0.1138 -0.26918,0.2657 v 3.4918 c 0,0.7211 0.15382,0.7211 0.46145,0.7211 0.19226,0 0.42299,-0.0759 0.65371,-0.1897 0.19227,-0.0759 0.46144,-0.0759 0.65371,0.0379 0.19227,0.1139 0.34608,0.3037 0.34608,0.5314 l 0.03846,0.9489 c 0.03845,0.2656 -0.15382,0.5313 -0.42299,0.6452 -0.53836,0.1898 -0.9998,0.2657 -1.5766,0.2657 -1.26898,0 -2.65331,-0.7212 -2.65331,-2.6948 v -3.7955 c 0,-0.1518 -0.11536,-0.2657 -0.26917,-0.2657 H 3.84535 c -0.38453,0 -0.69216,-0.3036 -0.69216,-0.6832 V 13.404 c 0,-0.3795 0.30763,-0.6832 0.69216,-0.6832 0.4999,0 0.92289,-0.4175 0.92289,-0.9109 v -0.5693 c 0,-0.3795 0.30763,-0.6832 0.69217,-0.6832 h 1.11515 c 0.38454,0 0.69217,0.3037 0.69217,0.6832 v 1.1766 c 0,0.1898 0.15382,0.3036 0.30763,0.3036 h 1.92268 c 0.30763,0 0.53836,0.1519 0.65376,0.4175 l 1.7304,4.4028 c 0.0384,0.1518 0.2692,0.1518 0.3076,0 l 1.692,-4.3269 c 0.1153,-0.3415 0.423,-0.5313 0.769,-0.5313 z"
       id="path18"
       inkscape:connector-curvature="0"
       style="clip-rule:evenodd;fill:#f2b432;fill-rule:evenodd" />
  </g>
  <defs
     id="defs25">
    <clipPath
       id="clip0">
      <rect
         width="162.04401"
         height="39.397099"
         transform="translate(0,3.80151)"
         id="rect22"
         x="0"
         y="0"
         style="fill:#bf3228" />
    </clipPath>
  </defs>
</svg>
