<svg xmlns="http://www.w3.org/2000/svg" viewBox="0 0 283.46 283.46"><defs><style>.cls-1{fill:#bd1a18;}.cls-2{fill:#fff;}.cls-3{fill:#f8a818;}</style></defs><g id="Layer_2" data-name="Layer 2"><g id="AMC_Networks_International" data-name="AMC Networks International"><g id="tvpaprika"><rect class="cls-1" width="283.46" height="283.46"/><g id="logo"><path class="cls-2" d="M96.62,141.22c0,3.48.44,6,1.34,7.68s2,2.46,3.26,2.46,2.23-.76,3.06-2.28,1.24-4,1.24-7.42c0-3.27-.42-5.67-1.28-7.22s-1.89-2.34-3.12-2.34-2.36.76-3.21,2.28-1.29,3.79-1.29,6.84M90,126.32h6.19v4.52a9.9,9.9,0,0,1,3.37-3.8,7.88,7.88,0,0,1,4.49-1.39c2.88,0,4.88,1.38,7,4.12s1.75,6.63,1.75,11.67c0,5.29.33,8.87-1.75,11.67s-4.09,4.22-7,4.22a7.47,7.47,0,0,1-3.71-1,10.19,10.19,0,0,1-3.64-3v15.54H90V126.32Z"/><path class="cls-2" d="M145.51,141.22q0,5.22,1.34,7.68c.9,1.64,2,2.46,3.26,2.46s2.23-.76,3.06-2.28,1.24-4,1.24-7.42c0-3.27-.42-5.67-1.28-7.22s-1.88-2.34-3.12-2.34-2.36.76-3.21,2.28-1.29,3.79-1.29,6.84m-6.6-14.9h6.19v4.52a9.9,9.9,0,0,1,3.37-3.8,7.9,7.9,0,0,1,4.49-1.39c2.88,0,4.89,1.38,7,4.12s1.74,6.63,1.74,11.67c0,5.29.33,8.87-1.75,11.67s-4.09,4.22-7,4.22a7.47,7.47,0,0,1-3.71-1,10.36,10.36,0,0,1-3.64-3v15.54h-6.69V126.32Z"/><path class="cls-2" d="M129.78,142.32a36.5,36.5,0,0,1-4,1.21,9.43,9.43,0,0,0-4.08,1.79,3.46,3.46,0,0,0-1,2.55,4.31,4.31,0,0,0,1.07,3,3.41,3.41,0,0,0,2.67,1.2,5,5,0,0,0,2.83-1,5.22,5.22,0,0,0,1.93-2.29,14.65,14.65,0,0,0,.54-4.83v-1.62Zm-8.48-6.62-6-.3c.74-3.13,1.47-6.32,3.16-7.69s4.12-2,7.29-2a14.06,14.06,0,0,1,6.45,1.19,7,7,0,0,1,3.19,3.23c.64,1.36.95,3.84.95,7.43l-.06,9.51a40.87,40.87,0,0,0,.32,6,19,19,0,0,0,.88,4.16h-7.18l-.59-3.36c-1.13,1.34-1.79,2.36-3.09,3a9.11,9.11,0,0,1-4.16,1,8,8,0,0,1-6-2.48,9.21,9.21,0,0,1-2.35-6.59,10,10,0,0,1,1-4.55,7.79,7.79,0,0,1,2.7-3.09A17.8,17.8,0,0,1,123.3,139a31.49,31.49,0,0,0,6.48-2,11.36,11.36,0,0,0-.36-3.56,4,4,0,0,0-1.34-1.83,6,6,0,0,0-2.75-.51,4.68,4.68,0,0,0-2.83,1.29c-.69.54-.77,1.79-1.2,3.27"/><path class="cls-2" d="M233.28,142.32a37.56,37.56,0,0,1-4,1.21,9.43,9.43,0,0,0-4.08,1.79,3.45,3.45,0,0,0-1,2.55,4.3,4.3,0,0,0,1.06,3A3.42,3.42,0,0,0,228,152a5,5,0,0,0,2.83-1,5.24,5.24,0,0,0,1.94-2.29,14.65,14.65,0,0,0,.54-4.83v-1.62Zm-8.49-6.62-6-.3c.73-3.13,1.47-6.32,3.16-7.69s4.11-2,7.28-2a14.08,14.08,0,0,1,6.46,1.19,7,7,0,0,1,3.18,3.23q1,2,1,7.43l-.06,9.51a40.87,40.87,0,0,0,.32,6,19.59,19.59,0,0,0,.87,4.16h-7.17l-.59-3.36c-1.14,1.34-1.79,2.36-3.1,3a9.11,9.11,0,0,1-4.16,1,7.93,7.93,0,0,1-6-2.48,9.17,9.17,0,0,1-2.35-6.59,10.16,10.16,0,0,1,1-4.55,7.73,7.73,0,0,1,2.71-3.09,17.72,17.72,0,0,1,5.58-2.06,31.64,31.64,0,0,0,6.49-2,11,11,0,0,0-.37-3.56,3.93,3.93,0,0,0-1.33-1.83,6.07,6.07,0,0,0-2.75-.51,4.73,4.73,0,0,0-2.84,1.29c-.69.54-.77,1.79-1.2,3.27"/><path class="cls-2" d="M172,157.13h-7V126.32h6.2v4.38a13,13,0,0,1,2.87-4.06,5.18,5.18,0,0,1,2.94-1,15.54,15.54,0,0,1,3.2,0l0,7.48a13.35,13.35,0,0,0-4-.19,3.46,3.46,0,0,0-2.46,1c-.72.68-.9,1.93-1.21,3.73a69.46,69.46,0,0,0-.46,9.92v9.51Z"/><path class="cls-2" d="M183.64,157.13V126.32h6.7v30.81Z"/><path class="cls-2" d="M193.94,157.13V114.61h6.69v22.45l7.8-10.73h8.24L208,137.58l9.21,19.55h-7.11l-6.44-13.87-3.07,4v9.87Z"/><path class="cls-3" d="M56.69,146.49a29.13,29.13,0,0,1-.32-5.43V130.39H53.92v-5.11h2.45v-6.83c-6,.36-10.28,1.29-12.31,3.32-2.79,2.79-1.93,18.26,3.73,23.92,2.13,2.13,5.79,2.66,9.77,2.79a5.4,5.4,0,0,1-.87-2"/><path class="cls-3" d="M82.4,121.77c-2.74-2.74-9.14-3.48-18.69-3.5h-2v7h6.94l3,13.38.93,4.47,1-4.44,3.09-13.41H81l-5.53,22.31a8.14,8.14,0,0,0,3.19-1.89c5.65-5.65,6.52-21.12,3.73-23.92"/><path class="cls-3" d="M65.27,130.06v.33H61.69v9.85a21.43,21.43,0,0,0,.16,3.71,1.26,1.26,0,0,0,1.31.91,12.19,12.19,0,0,0,2.12-.13v3.77c1.56,0,3.11,0,4.59-.05l-4.6-18.39Z"/></g></g></g></g></svg>