<svg xmlns="http://www.w3.org/2000/svg" xmlns:xlink="http://www.w3.org/1999/xlink" viewBox="0 0 283.46 283.46"><defs><style>.cls-1{fill:none;}.cls-2{fill:#c11c21;}.cls-3{clip-path:url(#clip-path);}.cls-4,.cls-5{fill:#fff;}.cls-5{fill-rule:evenodd;}</style><clipPath id="clip-path"><rect class="cls-1" x="42.52" y="117.61" width="198.43" height="48.24"/></clipPath></defs><g id="Layer_2" data-name="Layer 2"><g id="AMC_Networks_International" data-name="AMC Networks International"><g id="tvpaprika"><rect class="cls-2" width="283.46" height="283.46"/><g id="logo"><g class="cls-3"><path class="cls-4" d="M237.13,128.35a3.84,3.84,0,0,0-3.81,3.44,13.29,13.29,0,1,0,.18,21,3.88,3.88,0,0,0,3.63,2.6,3.77,3.77,0,0,0,3.81-3.76V132.11A3.83,3.83,0,0,0,237.13,128.35Zm-11.21,21.24a7.3,7.3,0,1,1,7.4-7.3A7.33,7.33,0,0,1,225.92,149.59Z"/><path class="cls-4" d="M125.44,128.35a3.84,3.84,0,0,0-3.81,3.44,13.29,13.29,0,1,0,.18,21,3.88,3.88,0,0,0,3.63,2.6,3.77,3.77,0,0,0,3.81-3.76V132.11A3.8,3.8,0,0,0,125.44,128.35Zm-11.21,21.24a7.3,7.3,0,1,1,7.4-7.3A7.33,7.33,0,0,1,114.23,149.59Z"/><path class="cls-4" d="M182.93,155.63h-.56a3.46,3.46,0,0,1-3.49-3.44v-20.5a3.46,3.46,0,0,1,3.49-3.44h.52a3.45,3.45,0,0,1,3.48,3.44v20.5A3.45,3.45,0,0,1,182.93,155.63Z"/><path class="cls-4" d="M212.36,152.14l-8.52-10.92,5.56-6.55a3.59,3.59,0,0,0-.47-5.11,3.7,3.7,0,0,0-5.18.46l-6.74,8v-17a3.53,3.53,0,0,0-3.53-3.49h-.42a3.53,3.53,0,0,0-3.53,3.49v31a3.53,3.53,0,0,0,3.53,3.49h.42a3.53,3.53,0,0,0,3.53-3.49v-7.57l7.21,9.29,6.73,1.58.66-.28A2,2,0,0,0,212.36,152.14Z"/><path class="cls-4" d="M85.56,128.9a13.58,13.58,0,0,0-8.2,2.75,3.82,3.82,0,0,0-7.62.32v30.54a3.43,3.43,0,0,0,3.43,3.39h.62a3.43,3.43,0,0,0,3.43-3.39v-9.9a13.65,13.65,0,0,0,8.29,2.83,13.27,13.27,0,1,0,0-26.54Zm-.76,20.55a7.32,7.32,0,1,1,7.4-7.35A7.33,7.33,0,0,1,84.8,149.45Z"/><path class="cls-4" d="M147.1,128.9a13.55,13.55,0,0,0-8.19,2.75,3.82,3.82,0,0,0-7.63.32v30.54a3.43,3.43,0,0,0,3.44,3.39h.61a3.44,3.44,0,0,0,3.44-3.39v-9.9a13.62,13.62,0,0,0,8.28,2.83,13.27,13.27,0,1,0,0-26.54Zm-.8,20.55a7.3,7.3,0,1,1,7.39-7.3A7.33,7.33,0,0,1,146.3,149.45Z"/><path class="cls-4" d="M173.33,128.44a11.91,11.91,0,0,0-4.1,2.14c-.14.09-.38,0-.42-.09a3.68,3.68,0,0,0-3-2.24h-.28c-2.07,0-3.25,1.68-3.25,3.77v19.8a3.72,3.72,0,1,0,7.44,0V137.64c0-.51.47-.88.89-1.21A9,9,0,0,1,175,135c1.51,0,2.22-1.44,2.45-2.93C177.85,129.46,176.86,127.74,173.33,128.44Z"/><path class="cls-4" d="M211,155.44c-2.87.75-5.23.37-6.74-1.58Z"/><path class="cls-5" d="M66.63,132.39a12.06,12.06,0,1,1-12.06-11.9A12,12,0,0,1,66.63,132.39Zm-4.8-3.9a.83.83,0,0,1,.7.37.67.67,0,0,1,0,.83l-3.81,9.07a1.32,1.32,0,0,1-1.18.74h-.75a1.29,1.29,0,0,1-1.23-.79l-2.92-7.06a.34.34,0,0,0-.37-.28h-.52a.32.32,0,0,0-.33.32V136c0,.88.19.88.56.88a1.88,1.88,0,0,0,.8-.23,1,1,0,0,1,.81,0,.79.79,0,0,1,.42.65l.05,1.16a.81.81,0,0,1-.52.79,5.51,5.51,0,0,1-1.93.32,3.05,3.05,0,0,1-3.25-3.3v-4.64a.32.32,0,0,0-.33-.33h-.8a.84.84,0,0,1-.85-.84v-1.11a.84.84,0,0,1,.85-.84,1.14,1.14,0,0,0,1.13-1.11v-.7a.85.85,0,0,1,.85-.84h1.36a.85.85,0,0,1,.85.84v1.44a.37.37,0,0,0,.38.37h2.35a.83.83,0,0,1,.8.51l2.12,5.4a.2.2,0,0,0,.38,0l2.07-5.3a1,1,0,0,1,.94-.65Z"/></g></g></g></g></g></svg>