<svg xmlns="http://www.w3.org/2000/svg" viewBox="0 0 283.46 283.46"><defs><style>.cls-1{fill:#bd1a18;}.cls-2{fill:#fff;}.cls-3{fill:#f8a818;}</style></defs><title>tvpaprika</title><g id="Layer_2" data-name="Layer 2"><g id="AMC_Networks_International" data-name="AMC Networks International"><g id="tvpaprika"><rect class="cls-1" width="283.46" height="283.46"/><g id="logo"><path class="cls-2" d="M96.62,141.22q0,5.22,1.35,7.67c.9,1.64,2,2.46,3.25,2.46s2.23-.76,3.06-2.27,1.25-4,1.25-7.43q0-4.89-1.28-7.22t-3.12-2.33q-1.93,0-3.22,2.27t-1.29,6.85M90,126.32h6.19v4.52A10,10,0,0,1,99.58,127a8,8,0,0,1,4.49-1.38c2.88,0,4.89,1.37,7,4.12s1.74,6.63,1.74,11.67c0,5.29.33,8.87-1.75,11.68s-4.09,4.22-7,4.22a7.49,7.49,0,0,1-3.71-1,10.3,10.3,0,0,1-3.64-3v15.54H90V126.32Z"/><path class="cls-2" d="M145.51,141.22q0,5.22,1.35,7.67c.9,1.64,2,2.46,3.25,2.46s2.23-.76,3.06-2.27,1.25-4,1.25-7.43q0-4.89-1.28-7.22T150,132.1q-1.93,0-3.22,2.27t-1.29,6.85m-6.6-14.9h6.19v4.52a10,10,0,0,1,3.37-3.81,8,8,0,0,1,4.49-1.38c2.88,0,4.89,1.37,7,4.12s1.74,6.63,1.74,11.67c0,5.29.33,8.87-1.75,11.68s-4.09,4.22-7,4.22a7.49,7.49,0,0,1-3.71-1,10.3,10.3,0,0,1-3.64-3v15.54h-6.69V126.32Z"/><path class="cls-2" d="M129.78,142.32a35.38,35.38,0,0,1-4,1.22,9.37,9.37,0,0,0-4.08,1.79,3.45,3.45,0,0,0-1,2.54,4.31,4.31,0,0,0,1.07,3,3.41,3.41,0,0,0,2.67,1.19,5,5,0,0,0,2.83-1,5.22,5.22,0,0,0,1.94-2.3,14.62,14.62,0,0,0,.54-4.83v-1.62Zm-8.49-6.62-6-.3c.73-3.12,1.47-6.32,3.16-7.69s4.12-2.05,7.28-2.05a14.06,14.06,0,0,1,6.46,1.19,7,7,0,0,1,3.18,3.23q1,2,1,7.44l-.06,9.5a41.08,41.08,0,0,0,.32,6,19,19,0,0,0,.88,4.16h-7.18l-.59-3.36c-1.14,1.35-1.79,2.36-3.1,3a9.09,9.09,0,0,1-4.16,1,7.94,7.94,0,0,1-6-2.48,9.17,9.17,0,0,1-2.35-6.59,10.12,10.12,0,0,1,1-4.54,7.74,7.74,0,0,1,2.71-3.1A17.73,17.73,0,0,1,123.3,139a31.81,31.81,0,0,0,6.49-2,11.11,11.11,0,0,0-.37-3.56,3.92,3.92,0,0,0-1.33-1.84,6.08,6.08,0,0,0-2.75-.51,4.7,4.7,0,0,0-2.84,1.29c-.69.54-.77,1.79-1.2,3.28"/><path class="cls-2" d="M233.28,142.32a35.38,35.38,0,0,1-4,1.22,9.38,9.38,0,0,0-4.08,1.79,3.45,3.45,0,0,0-1,2.54,4.31,4.31,0,0,0,1.07,3A3.41,3.41,0,0,0,228,152a5,5,0,0,0,2.83-1,5.22,5.22,0,0,0,1.94-2.3,14.62,14.62,0,0,0,.54-4.83v-1.62Zm-8.49-6.62-6-.3c.73-3.12,1.47-6.32,3.16-7.69s4.12-2.05,7.28-2.05a14.06,14.06,0,0,1,6.46,1.19,7,7,0,0,1,3.18,3.23q1,2,1,7.44l-.06,9.5a41.08,41.08,0,0,0,.32,6,19,19,0,0,0,.88,4.16h-7.18l-.59-3.36c-1.14,1.35-1.79,2.36-3.1,3a9.09,9.09,0,0,1-4.16,1,7.94,7.94,0,0,1-6-2.48,9.17,9.17,0,0,1-2.35-6.59,10.12,10.12,0,0,1,1-4.54,7.74,7.74,0,0,1,2.71-3.1,17.73,17.73,0,0,1,5.59-2.06,31.81,31.81,0,0,0,6.49-2,11.11,11.11,0,0,0-.37-3.56,3.92,3.92,0,0,0-1.33-1.84,6.08,6.08,0,0,0-2.75-.51,4.7,4.7,0,0,0-2.84,1.29c-.69.54-.77,1.79-1.2,3.28"/><path class="cls-2" d="M172,157.13h-7V126.32h6.2v4.38a13,13,0,0,1,2.87-4.06,5.15,5.15,0,0,1,2.94-1,16.34,16.34,0,0,1,3.2,0l0,7.49a13.13,13.13,0,0,0-4-.19,3.46,3.46,0,0,0-2.47,1c-.71.68-.89,1.93-1.2,3.73a69.19,69.19,0,0,0-.47,9.92v9.52Z"/><path class="cls-2" d="M183.64,157.13V126.32h6.69v30.81Z"/><path class="cls-2" d="M193.94,157.13V114.61h6.69v22.45l7.8-10.73h8.23L208,137.58l9.21,19.55h-7.11l-6.44-13.88-3.07,4v9.88h-6.69Z"/><path class="cls-3" d="M56.69,146.49a28.53,28.53,0,0,1-.32-5.43V130.39H53.92v-5.11h2.45v-6.82c-6,.35-10.28,1.29-12.31,3.32-2.79,2.79-1.93,18.26,3.73,23.92,2.13,2.13,5.79,2.66,9.77,2.79a5.44,5.44,0,0,1-.86-2"/><path class="cls-3" d="M82.4,121.77c-2.74-2.74-9.14-3.48-18.69-3.51h-2v7h6.93l3,13.38.93,4.46,1-4.44,3.09-13.4H81l-5.54,22.31a8.14,8.14,0,0,0,3.2-1.89c5.65-5.66,6.52-21.13,3.73-23.92"/><path class="cls-3" d="M65.27,130.06v.32H61.69v9.85a21.69,21.69,0,0,0,.16,3.71,1.27,1.27,0,0,0,1.31.91,12.83,12.83,0,0,0,2.12-.13v3.76c1.56,0,3.11,0,4.59-.05l-4.6-18.38Z"/></g></g></g></g></svg>