<svg xmlns="http://www.w3.org/2000/svg" viewBox="0 0 283.46 283.46"><defs><style>.cls-1{fill:#d5252a;}.cls-2{fill:#fff;}.cls-3{fill:#fdd803;}</style></defs><title>tvslovacko</title><g id="Layer_2" data-name="Layer 2"><g id="Regionální"><g id="tvslovacko"><rect class="cls-1" width="283.46" height="283.46"/><g id="logo"><path class="cls-2" d="M155,59.42c-1.54,1.51-3,2.92-4.46,4.36q-4.54,4.52-9.06,9.06a26,26,0,0,0-.07,36.25c4.45,4.48,9.39,8.44,14.08,12.66s9.58,8.36,14.16,12.76a15.72,15.72,0,0,1,.15,22c-6.82,6.88-13.71,13.7-20.54,20.56a2.6,2.6,0,0,1-2,.8q-42.66,0-85.31,0a19.74,19.74,0,0,1-19.11-17.16,46.91,46.91,0,0,1-.29-5.23q0-38,0-76A20,20,0,0,1,55.87,60.22a18.11,18.11,0,0,1,6.26-1.12h91.33A2.46,2.46,0,0,1,155,59.42Zm-29.12,73.87a1.53,1.53,0,0,1-.2-.29c-2.67-8.85-5.32-17.71-8-26.55-1.61-5.26-5.07-7.77-10.52-7.77H66.53a15.05,15.05,0,0,0-3.42.38,9,9,0,0,0-7.2,7.95,8.93,8.93,0,0,0,6.61,9.58c2.6.78,5.25.5,7.88.5,1.24,0,1.59.39,1.58,1.62,0,12,0,24,0,36,0,7.56,7.18,11.52,13.74,9.4a9.92,9.92,0,0,0,6.69-9.71c0-11.1,0-22.2,0-33.3,0-1,0-2,0-3.07,0-.45.06-.9.66-.89,1.58,0,3.16-.05,4.73.1a3.34,3.34,0,0,1,2.75,2.22c.25.59.46,1.19.68,1.79q6.51,18.23,13,36.47a9.46,9.46,0,0,0,5.64,6.07,17.19,17.19,0,0,0,6.93.89c5.09-.21,8.68-2.4,10.47-7.44,3.71-10.43,7.59-20.81,11.44-31.19a1.64,1.64,0,0,0-.59-2.07c-4.7-4.38-10-8.13-14-13.26-.45-.57-.79-.36-1,.22-.27.81-.52,1.62-.77,2.43-1.53,4.88-3,9.76-4.6,14.63A28.62,28.62,0,0,1,125.88,133.29Z"/><path class="cls-3" d="M240.93,118.31c0,12.94,0,25.88,0,38.82,0,6.49-2.19,12-7.13,16.17a18.11,18.11,0,0,1-11.52,4.63c-6.57.14-13.15,0-19.73,0-.4,0-1,.19-1.16-.28s.34-.73.62-1q6.24-6.26,12.5-12.49a26.18,26.18,0,0,0,5.61-27.64,28.31,28.31,0,0,0-8.18-11.1c-4.34-3.71-8.54-7.6-12.81-11.39-3.79-3.37-7.54-6.8-11.43-10.06a16,16,0,0,1-1.22-23.8c6.74-6.79,13.53-13.53,20.28-20.31a2.48,2.48,0,0,1,1.92-.79c4.36,0,8.71,0,13.07,0a19.69,19.69,0,0,1,18.48,14.69,24.37,24.37,0,0,1,.7,5.82Q240.91,99,240.93,118.31Z"/><path class="cls-2" d="M56.56,224.38a17.17,17.17,0,0,1-8.3-2.14,7.93,7.93,0,0,1-4.3-5.56,3.79,3.79,0,0,1,1.84-4.15,4.07,4.07,0,0,1,4.63.65c.69.69,1.26,1.5,1.9,2.25a6.9,6.9,0,0,0,8.08,1.37A2.65,2.65,0,0,0,62,214.21c-.13-1.22-1.09-1.66-2.11-1.95-3.24-.91-6.57-1.48-9.74-2.62-4.08-1.47-6-4-6.09-7.91-.11-4.49,1.75-7.63,5.67-9.23A17.2,17.2,0,0,1,66,193.68c1.77,1.09,3.22,2.54,3.43,4.81A3.33,3.33,0,0,1,67.68,202a3.86,3.86,0,0,1-4.55-.26,18.65,18.65,0,0,1-1.71-1.72c-1.71-1.79-5.4-2.5-7.46-1.43a2.25,2.25,0,0,0-1.49,2c0,1.07.79,1.45,1.6,1.75a66.36,66.36,0,0,0,7.8,1.94c3,.73,5.8,1.81,7.51,4.61a9.84,9.84,0,0,1-5,14.18A21.35,21.35,0,0,1,56.56,224.38Z"/><path class="cls-2" d="M191.51,207.72c0-4.1,0-8.19,0-12.29,0-2.59,1.29-4,3.65-4.18,2.66-.16,4.28,1.33,4.31,4,0,3.11,0,6.23,0,9.34,0,.43-.24,1.06.32,1.24s.7-.4,1-.7c1.3-1.41,2.54-2.88,3.86-4.26a3.8,3.8,0,0,1,5.39-.57,3.44,3.44,0,0,1,.71,4.88c-1,1.19-2.09,2.24-3.13,3.37-1.27,1.38-1.58,1-.15,2.88,1.58,2.11,3.2,4.21,4.73,6.36a4,4,0,0,1,0,4.88,4,4,0,0,1-6.55-.36c-1.44-2-2.81-4-4.23-5.93-.3-.42-.47-1.18-1.17-1s-.78.93-.76,1.61q0,1.54,0,3.07c0,2.6-1.55,4.12-4,4.08s-3.89-1.51-3.91-4.08C191.49,216,191.51,211.85,191.51,207.72Z"/><path class="cls-2" d="M161.38,211.79c.09,2.74-.24,5.77.63,8.76a2.71,2.71,0,0,1-1.47,3,4.42,4.42,0,0,1-5.58-.88c-.72-1-1.15-.76-2-.26a11,11,0,0,1-10.06,1,7.13,7.13,0,0,1,.77-13.35c2.58-.88,5.28-.94,7.94-1.3a2.9,2.9,0,0,0,1.34-.36c.86-.59.7-1.71-.33-2.24a5.32,5.32,0,0,0-5.41.77c-.49.42-.94.87-1.43,1.27a3.47,3.47,0,0,1-4.57.08,3.33,3.33,0,0,1-.56-4.51,8.17,8.17,0,0,1,5.11-3.6,18.34,18.34,0,0,1,11.2.3,6.07,6.07,0,0,1,4.41,6.31C161.39,208.36,161.38,209.94,161.38,211.79Zm-12.22,6.57c.37,0,.71,0,1-.1a3.71,3.71,0,0,0,3.29-3.37c0-.37.05-.92-.52-.79a35.43,35.43,0,0,0-5.12,1c-.78.3-1.38.82-1.26,1.7s.84,1.32,1.71,1.46C148.59,218.33,148.89,218.34,149.16,218.36Z"/><path class="cls-2" d="M215.18,211.82c0-4.38,1.38-8.09,5.25-10.58,6.81-4.37,16.31-1.15,18.57,6.5A14.24,14.24,0,0,1,237.85,219a9.56,9.56,0,0,1-6.42,4.68,15,15,0,0,1-10.36-.81C217,220.92,215.17,217.24,215.18,211.82Zm7.9-.09c0,.64.06,1.28.16,1.91a8.18,8.18,0,0,0,.41,1.48,3.85,3.85,0,0,0,3.47,2.75,3.7,3.7,0,0,0,3.86-2.55,9.37,9.37,0,0,0,0-7,3.72,3.72,0,0,0-3.85-2.57,3.93,3.93,0,0,0-3.56,2.83A9.8,9.8,0,0,0,223.08,211.73Z"/><path class="cls-2" d="M100.21,199.49c7.45,0,12.25,4.83,12.26,12.38,0,7.73-4.51,12.3-12.2,12.35S88,219.72,88,212,92.59,199.51,100.21,199.49Zm4.26,12.1a7.84,7.84,0,0,0-.28-2.34,4.08,4.08,0,0,0-3.59-3.46,3.78,3.78,0,0,0-4,2.5,9,9,0,0,0,.17,7.31,3.57,3.57,0,0,0,3.78,2.25,3.75,3.75,0,0,0,3.38-2.69A9.68,9.68,0,0,0,104.47,211.59Z"/><path class="cls-2" d="M177.71,199.47c3.69,0,6.63.8,8.91,3.27a4.72,4.72,0,0,1,1.37,3.34,3.22,3.22,0,0,1-2.17,3.28,3.48,3.48,0,0,1-4-.78,10.18,10.18,0,0,1-.82-1,3.71,3.71,0,0,0-6.22.29,8.12,8.12,0,0,0-.31,7.62,3.7,3.7,0,0,0,6.41.49,5,5,0,0,1,2.09-2,3.61,3.61,0,0,1,4,.69,3.38,3.38,0,0,1,.69,3.91,8,8,0,0,1-5.49,5,14.47,14.47,0,0,1-9.66-.24,9.9,9.9,0,0,1-6.49-8.19,15.24,15.24,0,0,1,1-9.15C169.26,201.28,173.22,199.49,177.71,199.47Z"/><path class="cls-2" d="M125.5,212.84c1.06-3.53,2.09-7,3.15-10.45a3.72,3.72,0,0,1,4.47-2.87,3.82,3.82,0,0,1,3.29,3.69,8.48,8.48,0,0,1-.89,3.44c-1.7,4.81-3.5,9.6-5.16,14.42a4,4,0,0,1-3.87,3.1,16.45,16.45,0,0,1-3.57-.19,2.74,2.74,0,0,1-2.22-1.89q-1.91-5.21-3.82-10.43c-.83-2.28-1.67-4.56-2.44-6.86a4.15,4.15,0,0,1,1.24-4.53,4,4,0,0,1,6.43,2.56c.9,3,1.78,6,2.67,9.07A1.31,1.31,0,0,0,125.5,212.84Z"/><path class="cls-2" d="M75.53,207.68c0-4.1,0-8.2,0-12.3a4,4,0,0,1,6.16-3.63c1.48.8,1.78,2.17,1.78,3.7q0,10.57,0,21.14c0,1.32,0,2.65,0,4a4,4,0,0,1-7.92-.19C75.52,216.13,75.53,211.9,75.53,207.68Z"/><path class="cls-2" d="M153.79,189.15a2.89,2.89,0,0,1,2.9,1.67,2.78,2.78,0,0,1-.24,3.24,17.33,17.33,0,0,1-6.37,4.31,2.89,2.89,0,0,1-3.46-1.25,3,3,0,0,1,.64-3.73c1.51-1.3,3.12-2.49,4.74-3.66A2.48,2.48,0,0,1,153.79,189.15Z"/></g></g></g></g></svg>