<svg xmlns="http://www.w3.org/2000/svg" viewBox="0 0 283.46 283.46"><defs><style>.cls-1{fill:#d5252a;}.cls-2{fill:#fff;}.cls-3{fill:#fdd803;}</style></defs><title>tvslovacko</title><g id="Layer_2" data-name="Layer 2"><g id="Regionální"><g id="tvslovacko"><rect class="cls-1" width="283.46" height="283.46"/><g id="logo"><path class="cls-2" d="M155,59.42c-1.54,1.51-3,2.92-4.46,4.36q-4.54,4.52-9.06,9.06a26,26,0,0,0-.07,36.25c4.45,4.48,9.39,8.44,14.08,12.66s9.59,8.36,14.17,12.76a15.73,15.73,0,0,1,.14,22c-6.82,6.87-13.7,13.69-20.54,20.56a2.6,2.6,0,0,1-2,.8H61.91a19.74,19.74,0,0,1-19.1-17.17,45.71,45.71,0,0,1-.29-5.23q0-38,0-76A20,20,0,0,1,55.87,60.22a18.23,18.23,0,0,1,6.26-1.11h91.33A2.47,2.47,0,0,1,155,59.42Zm-29.12,73.87a1.68,1.68,0,0,1-.2-.29c-2.67-8.85-5.32-17.71-8-26.55-1.61-5.26-5.07-7.77-10.52-7.77H66.53a15.13,15.13,0,0,0-3.42.38,9,9,0,0,0-7.2,8,8.93,8.93,0,0,0,6.6,9.58c2.6.78,5.25.5,7.88.5,1.24,0,1.59.39,1.59,1.62,0,12,0,24,0,36,0,7.56,7.18,11.53,13.73,9.41a9.93,9.93,0,0,0,6.7-9.71c0-11.1,0-22.2,0-33.3V118c0-.45.06-.89.66-.89,1.58,0,3.16,0,4.73.1a3.34,3.34,0,0,1,2.75,2.22c.25.59.47,1.19.68,1.79q6.51,18.24,13,36.48a9.49,9.49,0,0,0,5.64,6.07,17.17,17.17,0,0,0,6.93.88c5.09-.2,8.68-2.4,10.47-7.43,3.72-10.43,7.59-20.81,11.45-31.19a1.65,1.65,0,0,0-.6-2.07c-4.7-4.38-10-8.13-14-13.26-.45-.58-.79-.36-1,.22-.28.8-.52,1.62-.78,2.43-1.52,4.88-3,9.76-4.59,14.63A28.78,28.78,0,0,1,125.88,133.29Z"/><path class="cls-3" d="M240.93,118.31c0,12.94-.05,25.88,0,38.81,0,6.5-2.19,11.95-7.12,16.18a18.14,18.14,0,0,1-11.53,4.62c-6.57.14-13.15,0-19.73,0-.4,0-.95.19-1.16-.28s.34-.73.62-1q6.24-6.25,12.5-12.49a26.18,26.18,0,0,0,5.61-27.64,28.34,28.34,0,0,0-8.18-11.1c-4.34-3.71-8.54-7.6-12.81-11.39-3.79-3.37-7.54-6.8-11.43-10.06a16,16,0,0,1-1.21-23.8c6.73-6.79,13.53-13.53,20.27-20.31a2.52,2.52,0,0,1,1.92-.79c4.36,0,8.72,0,13.07,0a19.69,19.69,0,0,1,18.48,14.69,24.86,24.86,0,0,1,.7,5.83Q240.91,99,240.93,118.31Z"/><path class="cls-2" d="M56.56,224.38a17.14,17.14,0,0,1-8.3-2.14c-2.17-1.26-3.86-2.94-4.3-5.56a3.78,3.78,0,0,1,1.84-4.15,4.08,4.08,0,0,1,4.63.65c.69.69,1.26,1.5,1.89,2.25a6.9,6.9,0,0,0,8.09,1.37A2.64,2.64,0,0,0,62,214.21c-.13-1.22-1.09-1.66-2.1-2-3.24-.91-6.57-1.48-9.75-2.62-4.08-1.46-6-4-6.09-7.9-.11-4.49,1.75-7.63,5.68-9.24A17.2,17.2,0,0,1,66,193.68c1.77,1.08,3.23,2.53,3.44,4.81A3.33,3.33,0,0,1,67.68,202a3.85,3.85,0,0,1-4.55-.26,17.36,17.36,0,0,1-1.71-1.72c-1.7-1.78-5.4-2.49-7.46-1.43a2.25,2.25,0,0,0-1.49,2c0,1.08.78,1.45,1.59,1.75a65.51,65.51,0,0,0,7.81,1.94c3,.73,5.79,1.81,7.51,4.62a9.84,9.84,0,0,1-5,14.17A21.22,21.22,0,0,1,56.56,224.38Z"/><path class="cls-2" d="M191.51,207.72c0-4.1,0-8.2,0-12.29,0-2.59,1.29-4,3.65-4.18,2.66-.17,4.29,1.33,4.31,4,0,3.11,0,6.22,0,9.34,0,.43-.24,1.06.32,1.24s.7-.4,1-.7c1.3-1.42,2.54-2.88,3.87-4.26a3.78,3.78,0,0,1,5.39-.57,3.43,3.43,0,0,1,.71,4.87c-1,1.19-2.09,2.24-3.13,3.37-1.28,1.38-1.58,1-.15,2.88,1.58,2.11,3.2,4.2,4.72,6.36a4,4,0,0,1,0,4.88c-1.74,2.17-4.8,2-6.55-.36-1.44-2-2.81-4-4.23-5.93-.3-.42-.47-1.18-1.17-1s-.78.93-.76,1.61c0,1,0,2.05,0,3.07,0,2.6-1.55,4.12-4,4.08s-3.89-1.5-3.91-4.08C191.49,216,191.51,211.85,191.51,207.72Z"/><path class="cls-2" d="M161.38,211.79c.09,2.74-.23,5.77.63,8.76a2.7,2.7,0,0,1-1.47,3,4.42,4.42,0,0,1-5.58-.88c-.72-1-1.15-.76-2-.25a11,11,0,0,1-10.06,1,7.13,7.13,0,0,1,.77-13.34c2.58-.88,5.28-.95,7.94-1.3a2.83,2.83,0,0,0,1.34-.36,1.27,1.27,0,0,0-.33-2.25,5.32,5.32,0,0,0-5.41.78c-.48.41-.94.87-1.43,1.27a3.47,3.47,0,0,1-4.57.08,3.33,3.33,0,0,1-.56-4.51,8.13,8.13,0,0,1,5.11-3.6,18.32,18.32,0,0,1,11.2.3,6.07,6.07,0,0,1,4.41,6.31C161.39,208.36,161.38,209.94,161.38,211.79Zm-12.22,6.57c.37,0,.71,0,1.05-.09a3.73,3.73,0,0,0,3.29-3.37c0-.37.05-.92-.53-.79a35.55,35.55,0,0,0-5.11,1c-.78.3-1.38.82-1.27,1.7a1.75,1.75,0,0,0,1.71,1.46C148.59,218.33,148.89,218.34,149.16,218.36Z"/><path class="cls-2" d="M215.18,211.82c0-4.38,1.37-8.09,5.25-10.58,6.81-4.37,16.31-1.14,18.57,6.5A14.24,14.24,0,0,1,237.85,219a9.6,9.6,0,0,1-6.42,4.68,15.09,15.09,0,0,1-10.36-.81C217,220.92,215.17,217.24,215.18,211.82Zm7.9-.09c0,.64.06,1.28.16,1.91a7.62,7.62,0,0,0,.4,1.47,3.85,3.85,0,0,0,3.47,2.75,3.69,3.69,0,0,0,3.86-2.55,9.36,9.36,0,0,0,0-7,3.72,3.72,0,0,0-3.85-2.57,3.93,3.93,0,0,0-3.56,2.83A9.61,9.61,0,0,0,223.08,211.73Z"/><path class="cls-2" d="M100.21,199.49c7.45,0,12.26,4.82,12.26,12.38,0,7.73-4.51,12.3-12.2,12.35S88,219.72,88,212,92.59,199.51,100.21,199.49Zm4.26,12.1a8.06,8.06,0,0,0-.27-2.34,4.09,4.09,0,0,0-3.6-3.46,3.79,3.79,0,0,0-4,2.5,9,9,0,0,0,.17,7.31,3.58,3.58,0,0,0,3.78,2.25,3.74,3.74,0,0,0,3.38-2.69A9.63,9.63,0,0,0,104.47,211.59Z"/><path class="cls-2" d="M177.71,199.47c3.69,0,6.63.8,8.91,3.27a4.73,4.73,0,0,1,1.37,3.34,3.2,3.2,0,0,1-2.16,3.27,3.45,3.45,0,0,1-4-.78,9.46,9.46,0,0,1-.82-1,3.72,3.72,0,0,0-6.22.29,8.12,8.12,0,0,0-.31,7.63,3.7,3.7,0,0,0,6.41.49,5,5,0,0,1,2.09-2,3.6,3.6,0,0,1,4,.69,3.39,3.39,0,0,1,.69,3.9,8,8,0,0,1-5.49,5,14.43,14.43,0,0,1-9.66-.25,9.88,9.88,0,0,1-6.49-8.19,15.31,15.31,0,0,1,1-9.14C169.26,201.28,173.22,199.49,177.71,199.47Z"/><path class="cls-2" d="M125.5,212.84c1.06-3.53,2.08-7,3.14-10.45a3.72,3.72,0,0,1,4.48-2.87,3.82,3.82,0,0,1,3.29,3.69,8.44,8.44,0,0,1-.89,3.44c-1.7,4.82-3.5,9.6-5.16,14.43a4,4,0,0,1-3.87,3.1,17,17,0,0,1-3.56-.19,2.76,2.76,0,0,1-2.23-1.9c-1.27-3.47-2.55-7-3.81-10.43-.83-2.28-1.67-4.56-2.44-6.86a4.14,4.14,0,0,1,1.24-4.53,4,4,0,0,1,6.42,2.56c.91,3,1.78,6,2.67,9.07A1.3,1.3,0,0,0,125.5,212.84Z"/><path class="cls-2" d="M75.53,207.68c0-4.1,0-8.2,0-12.3,0-3.47,3.11-5.29,6.16-3.64,1.48.81,1.78,2.18,1.78,3.7v21.14c0,1.32,0,2.65,0,4a4,4,0,0,1-7.92-.19C75.52,216.13,75.53,211.9,75.53,207.68Z"/><path class="cls-2" d="M153.79,189.15a2.89,2.89,0,0,1,2.9,1.67,2.78,2.78,0,0,1-.25,3.24,17.22,17.22,0,0,1-6.37,4.31,2.87,2.87,0,0,1-3.45-1.25,3,3,0,0,1,.64-3.73c1.51-1.3,3.11-2.49,4.73-3.66A2.52,2.52,0,0,1,153.79,189.15Z"/></g></g></g></g></svg>