<svg xmlns="http://www.w3.org/2000/svg" viewBox="0 0 283.46 283.46"><defs><style>.cls-1{fill:#fff;}.cls-2{fill:#ed1c24;}</style></defs><title>tvwar</title><g id="Layer_2" data-name="Layer 2"><g id="Ostatní_CZ_kanály" data-name="Ostatní CZ kanály"><g id="tvwar"><rect width="283.46" height="283.46"/><g id="logo"><path class="cls-1" d="M62.36,161.12a2.72,2.72,0,0,0-2.1,2.42c0,1.45.8,2.33,4.32,3.69,5.23,2,6.41,4.79,6.41,7.51,0,4.58-3.81,7.57-8.19,7.65v-1.71c1.42-.44,2.63-1.09,2.69-2.72.06-1.86-2.13-2.63-3.54-3.25-3.73-1.57-7.19-3.25-7.19-7.89,0-4.49,3.25-7.27,7.6-7.42Zm-7.6,14.21c0-.62.12-1.45,1-1.45a1.15,1.15,0,0,1,1.09,1c.42,2.36,2.07,5.29,4.67,5.82v1.71c-2.57-.06-3.13-1.09-4.19-1.09s-.86,1-1.6,1c-.92,0-.92-1.1-.92-1.24Zm15.43-9.54c0,.68-.12,1.41-1,1.41-.7,0-1-.56-1.06-1.15a6.16,6.16,0,0,0-4.46-4.93V159.4c1.86,0,3.84,1.16,4.17,1.16.76,0,.71-1.07,1.47-1.07.92,0,.86,1,.86,1.24Z"/><polygon class="cls-1" points="100.31 154.02 101.32 156.03 102.32 154.02 106.31 154.02 103.15 158.63 99.45 158.63 96.29 154.02 100.31 154.02"/><path class="cls-1" d="M84.18,182H79.92l-5.67-19c-.24-.86-.15-.95-1-1.3a.93.93,0,0,1-.59-.86c0-1,1.24-.94,1.92-.94H81.1c.68,0,2.1-.18,2.1.88s-1.3.65-1.3,1.86a2.83,2.83,0,0,0,.15.86l3.66,12.83Zm1.3-11,1.74-6.53a3.06,3.06,0,0,0,.21-1.16,1.51,1.51,0,0,0-1.12-1.59c-.51-.18-.92-.36-.92-1,0-.91,1.06-.91,1.68-.91h3.26c.65,0,1.74-.12,1.74.82,0,.65-.42.74-.92,1a2.73,2.73,0,0,0-1.5,1.21,6.75,6.75,0,0,0-.8,2L86.36,174h0Z"/><path class="cls-1" d="M93.88,159.85h7.8V182h-7.8c-.12,0-1.09-.06-1.09-.91a.82.82,0,0,1,.65-.8c1-.33,1-.51,1-1.6V163.16c0-1.1,0-1.28-1-1.6a.82.82,0,0,1-.65-.8C92.79,159.9,93.76,159.85,93.88,159.85Zm9.13,0h6.59v6c0,.15,0,.71-.91.71-.5,0-.65-.29-.8-.73a5.67,5.67,0,0,0-4.88-4.26Zm0,9.87a3.14,3.14,0,0,0,2.07-2.6c.15-.51.33-1,1-1,.91,0,.77,1.06.77,1.3v6.38c0,.24.14,1.3-.77,1.3-.62,0-.8-.47-1-1a3.13,3.13,0,0,0-2.07-2.6Zm0,10.52a6.06,6.06,0,0,0,5-4.29c.21-.44.38-.91.91-.91a.83.83,0,0,1,.86,1V182H103Z"/><path class="cls-1" d="M111.8,159.85h4.26v1.71c-1.54,1.09-2,3-2.22,4.61-.09.65-.23,1.42-1.06,1.42a.9.9,0,0,1-1-.86Zm5.59,0h7.24v18.79c0,1.09,0,1.27,1,1.6a.81.81,0,0,1,.65.8c0,.85-1,.91-1.09.91h-8.36c-.12,0-1.1-.06-1.1-.91a.82.82,0,0,1,.65-.8c1-.33,1-.51,1-1.6Zm12.82,6.88a.89.89,0,0,1-1,.86c-.83,0-1-.77-1.07-1.42-.26-1.57-.68-3.52-2.21-4.61v-1.71h4.25Z"/><path class="cls-1" d="M152.87,182h-4.26l-5.67-19c-.24-.86-.15-.95-.95-1.3a.93.93,0,0,1-.59-.86c0-1,1.24-.94,1.92-.94h6.47c.68,0,2.1-.18,2.1.88s-1.3.65-1.3,1.86a2.83,2.83,0,0,0,.15.86l3.66,12.83Zm1.3-11,1.74-6.53a3.06,3.06,0,0,0,.21-1.16,1.51,1.51,0,0,0-1.13-1.59c-.5-.18-.91-.36-.91-1,0-.91,1.06-.91,1.68-.91H159c.65,0,1.75-.12,1.75.82,0,.65-.42.74-.92,1a2.79,2.79,0,0,0-1.51,1.21,7,7,0,0,0-.79,2L155.05,174H155Z"/><path class="cls-1" d="M165.85,167.32l-2.78,10.11c-.47,1.8-.06,2.3,1,2.75.47.2.88.38.88,1,0,.83-.94.8-1.53.8H160c-.59,0-1.66,0-1.66-.89,0-.7.5-.68,1.15-1s1.42-1,2-3.1L165,164h.09Zm3.16,8.9H164.7l.41-1.72h3.61l-3-13.06.38-1.59h6.54l4.43,18.67c.18.83.21,1.39,1,1.75.42.17.74.38.74.91,0,.8-1.06.77-1.62.77h-7.36c-.59,0-1.45-.06-1.45-.83,0-.47.18-.62.56-.82.77-.45.89-.65.62-1.81Zm4.26-22.34-3.05,4.61h-3.34l1.51-4.61Z"/><path class="cls-1" d="M189.18,182h-7.8c-.12,0-1.1-.06-1.1-.91a.82.82,0,0,1,.65-.8c1-.33,1-.51,1-1.6V163.16c0-1.1,0-1.28-1-1.6a.82.82,0,0,1-.65-.8c0-.86,1-.91,1.1-.91h8.36c.12,0,1.09.05,1.09.91a.81.81,0,0,1-.65.8c-1,.32-1,.5-1,1.6Zm1.33-1.71c2.39-.33,3.75-2.4,4.37-5.14.15-.66.5-.83,1.12-.83s.74.56.74,1.12V182h-6.23Z"/><path class="cls-1" d="M198.94,159.85h7.8V182h-7.8c-.12,0-1.09-.06-1.09-.91a.81.81,0,0,1,.64-.8c1-.33,1-.51,1-1.6V163.16c0-1.1,0-1.28-1-1.6a.81.81,0,0,1-.64-.8C197.85,159.9,198.82,159.85,198.94,159.85Zm9.13,0h6.59v6c0,.15,0,.71-.92.71-.5,0-.65-.29-.79-.73a5.68,5.68,0,0,0-4.88-4.26Zm0,9.87a3.18,3.18,0,0,0,2.07-2.6c.15-.51.32-1,.94-1,.92,0,.77,1.06.77,1.3v6.38c0,.24.15,1.3-.77,1.3-.62,0-.79-.47-.94-1a3.16,3.16,0,0,0-2.07-2.6Zm0,10.52a6.05,6.05,0,0,0,5-4.29c.21-.44.39-.91.92-.91a.83.83,0,0,1,.86,1V182h-6.8Z"/><path class="cls-1" d="M226.76,178.64c0,1.09,0,1.27,1,1.6a.81.81,0,0,1,.65.8c0,.85-1,.91-1.09.91H219c-.12,0-1.1-.06-1.1-.91a.82.82,0,0,1,.65-.8c1-.33,1-.51,1-1.6V163.16c0-1.1,0-1.28-1-1.6a.82.82,0,0,1-.65-.8c0-.86,1-.91,1.1-.91h8.36c.12,0,1.09.05,1.09.91a.81.81,0,0,1-.65.8c-1,.32-1,.5-1,1.6Zm11.14.09c.27.65.35,1.15,1,1.48.45.2.71.38.71.94,0,.86-1,.8-1.56.8h-7.42c-.68,0-1.57,0-1.57-.91s1.21-.8,1.21-1.45a3,3,0,0,0-.23-.89l-1.83-5.5a6,6,0,0,1-.39-1.8,2.58,2.58,0,0,1,.68-1.51L232,165a3.18,3.18,0,0,0,.77-1.86,1.52,1.52,0,0,0-1.13-1.51c-.47-.21-.91-.33-.91-.92,0-.91.83-.88,1.45-.88h5.05c.71,0,1.57,0,1.57,1,0,.68-.56.89-1.1,1.09-2,.77-2.72,1.9-4,3.58l-.56.77Z"/><path class="cls-1" d="M79.35,149H60L42.52,101.2H61.94c2.4,6.52,4.87,13.23,7.7,20.9,2.77-7.51,5.24-14.22,7.74-21H96.8Z"/><path class="cls-2" d="M233.8,132.43l5.84,16.27H220.46l-17.29-47.46c8,0,15.56-.46,23,.13,6.9.56,11.74,4.76,13.86,11.44s.6,12.55-4.37,17.5c-.52.52-1.06,1-1.58,1.52C234,131.89,234,132,233.8,132.43Z"/><path class="cls-2" d="M113.17,148.91H94.08q-2.55-7-5.13-14l9.55-26.16c1.83,4.79,3.35,8.74,5.16,13.47l7.72-21h19.17Z"/><path class="cls-2" d="M155.45,126.51h7l-3.4-9.93c1.84-5,3.73-10.18,5.62-15.36h7.91c5.71,15.65,11.47,31.44,17.36,47.6H171c-.6-1.3-1.25-2.68-2.08-4.43H149Z"/><path class="cls-1" d="M142.79,149H123.34c5.85-16.08,11.6-31.88,17.41-47.83h19.47C154.33,117.34,148.57,133.15,142.79,149Z"/><path class="cls-1" d="M195,101.09h3.56c.46,1.13,1,2.26,1.38,3.41,4,10.85,8.09,21.64,11.77,32.59,1.22,3.62,1.29,7.62,1.95,11.83H195Z"/></g></g></g></g></svg>