<svg xmlns="http://www.w3.org/2000/svg" viewBox="0 0 283.46 283.46"><defs><style>.cls-1{fill:#f1f5dd;}.cls-2{fill:#010101;}</style></defs><g id="Layer_2" data-name="Layer 2"><g id="Ostatní_CZ_kanály" data-name="Ostatní CZ kanály"><g id="upnetwork"><rect class="cls-1" width="283.46" height="283.46"/><g id="logo"><path class="cls-2" d="M138.14,102.67a10.28,10.28,0,0,1-.82,1.13q-10.23,10.26-20.48,20.47a2.31,2.31,0,0,0-.74,1.76c-.07,5.06.27,10.12-.35,15.16-1.08,8.73-5.46,15.13-13.5,18.73a28.35,28.35,0,0,1-22.66.39A21.69,21.69,0,0,1,67.35,149a29.78,29.78,0,0,1-2.51-12.57q0-34.38,0-68.75h0V65H42.52v1.11q0,33.24,0,66.48a80.62,80.62,0,0,0,.64,10.76,45.29,45.29,0,0,0,8.5,21.72,41.06,41.06,0,0,0,21.14,14.5,57.3,57.3,0,0,0,37.23-.66c10.82-3.87,18.9-10.91,23.75-21.41,3.34-7.23,4.55-14.94,4.59-22.85.05-10.08,0-20.16,0-30.24A3.2,3.2,0,0,0,138.14,102.67Z"/><path class="cls-2" d="M138.42,66.15a2.68,2.68,0,0,0,0-.42V65H116.11v.75c0,.11,0,.23,0,.37,0,9.08,0,18.17,0,27.26v6.67a3.42,3.42,0,0,0,.41-.29Q127.23,89,138,78.3a1.68,1.68,0,0,0,.45-1.35C138.4,73.35,138.37,69.75,138.42,66.15Z"/><path d="M239.86,132.32c-2.6-12-9.12-21.29-20.12-27-10.53-5.44-21.38-5.58-32.28-.91-.4.17-1.19.21-.39,1q6.9,6.92,13.75,13.89a2.23,2.23,0,0,0,1.49.68,21.74,21.74,0,0,1,16.57,9.66,22.2,22.2,0,1,1-35.37-1.79c.46-.55.39-.82-.07-1.28-1.94-1.93-3.85-3.9-5.78-5.85l-14.34-14.5c-1-1-2.08-2.06-3.3-3.27v4.34q0,54.93,0,109.87v1.26h21.57v-.88c0-.1,0-.2,0-.32q0-19.12,0-38.26v-3.47a34.67,34.67,0,0,0,6.13,3.59,35,35,0,0,0,22.28,2c10.54-2.28,18.95-7.81,24.66-17.06A41.7,41.7,0,0,0,239.86,132.32Z"/></g></g></g></g></svg>