<svg xmlns="http://www.w3.org/2000/svg" viewBox="0 0 283.46 283.46"><defs><style>.cls-1{fill:#f1f5dd;}.cls-2{fill:#010101;}</style></defs><title>upnetwork</title><g id="Layer_2" data-name="Layer 2"><g id="Ostatní_CZ_kanály" data-name="Ostatní CZ kanály"><g id="upnetwork"><rect class="cls-1" width="283.46" height="283.46"/><g id="logo"><path class="cls-2" d="M138.14,102.67a10.07,10.07,0,0,1-.82,1.13q-10.23,10.25-20.48,20.47a2.29,2.29,0,0,0-.74,1.76c-.07,5.05.27,10.12-.35,15.16-1.07,8.72-5.45,15.12-13.5,18.73a28.3,28.3,0,0,1-22.66.39A21.65,21.65,0,0,1,67.35,149a29.86,29.86,0,0,1-2.51-12.57q0-34.37,0-68.75h0V65H42.52v.93c0,.06,0,.12,0,.19q0,33.24,0,66.48a79.63,79.63,0,0,0,.64,10.76,45.3,45.3,0,0,0,8.5,21.72,41,41,0,0,0,21.14,14.5,57.29,57.29,0,0,0,37.23-.66c10.82-3.87,18.9-10.9,23.75-21.41,3.34-7.23,4.55-14.94,4.59-22.85,0-10.08,0-20.16,0-30.25A3.21,3.21,0,0,0,138.14,102.67Z"/><path class="cls-2" d="M138.42,66.15a3,3,0,0,0,0-.42V65H116.11v.75a2.94,2.94,0,0,0,0,.37c0,9.09,0,18.17,0,27.26,0,2.17,0,4.33,0,6.68a4.56,4.56,0,0,0,.4-.29Q127.23,89,138,78.3a1.68,1.68,0,0,0,.45-1.35C138.4,73.35,138.37,69.75,138.42,66.15Z"/><path d="M239.86,132.32c-2.6-12-9.11-21.28-20.12-27-10.53-5.43-21.38-5.57-32.27-.9-.4.17-1.19.21-.4,1q6.91,6.91,13.75,13.89a2.23,2.23,0,0,0,1.49.67,21.79,21.79,0,0,1,16.58,9.66,22.2,22.2,0,1,1-35.37-1.79c.46-.55.39-.82-.07-1.28-1.94-1.93-3.85-3.9-5.78-5.85l-14.35-14.5c-1-1-2.07-2.06-3.3-3.27,0,1.65,0,3,0,4.34q0,54.94,0,109.87c0,.06,0,.12,0,.17v1.09h21.57v-.88c0-.09,0-.2,0-.31q-.05-19.13,0-38.26c0-1.07,0-2.13,0-3.47A34,34,0,0,0,210,181.11c10.54-2.28,18.95-7.81,24.65-17.07A41.7,41.7,0,0,0,239.86,132.32Z"/></g></g></g></g></svg>