<svg xmlns="http://www.w3.org/2000/svg" viewBox="0 0 283.46 283.46"><defs><style>.cls-1{fill:#9e184d;}.cls-2{fill:#fff;}</style></defs><g id="Layer_2" data-name="Layer 2"><g id="Regionální"><g id="v1"><rect class="cls-1" width="283.46" height="283.46"/><g id="logo"><circle class="cls-2" cx="200.22" cy="84.7" r="11.97"/><circle class="cls-2" cx="228.97" cy="84.7" r="11.97"/><circle class="cls-2" cx="200.22" cy="113.22" r="11.97"/><circle class="cls-2" cx="228.97" cy="113.22" r="11.97"/><circle class="cls-2" cx="200.22" cy="141.73" r="11.97"/><circle class="cls-2" cx="228.97" cy="141.73" r="11.97"/><circle class="cls-2" cx="200.22" cy="170.25" r="11.97"/><circle class="cls-2" cx="228.97" cy="170.25" r="11.97"/><circle class="cls-2" cx="200.22" cy="198.77" r="11.97"/><circle class="cls-2" cx="228.97" cy="198.77" r="11.97"/><path class="cls-2" d="M172.35,95.74a12.11,12.11,0,0,1-5.27-23H141.65L114.6,165.85h-1.9L84.9,72.73H42.52L93,210.74h40.41l42.34-115.5A12.16,12.16,0,0,1,172.35,95.74Z"/></g></g></g></g></svg>