<svg xmlns="http://www.w3.org/2000/svg" viewBox="0 0 283.46 283.46"><defs><style>.cls-1{fill:#38abe2;}.cls-2{fill:#fff;}</style></defs><g id="Layer_2" data-name="Layer 2"><g id="Nova"><g id="voyo"><rect class="cls-1" width="283.46" height="283.46"/><g id="logo"><path class="cls-2" d="M119.86,116.33a25.4,25.4,0,1,0,25.4,25.4,25.43,25.43,0,0,0-25.4-25.4m0,38.24a12.84,12.84,0,1,1,12.83-12.84,12.85,12.85,0,0,1-12.83,12.84"/><path class="cls-2" d="M215.55,116.33a25.4,25.4,0,1,0,25.39,25.4,25.42,25.42,0,0,0-25.39-25.4m0,38.24a12.84,12.84,0,1,1,12.83-12.84,12.85,12.85,0,0,1-12.83,12.84"/><path class="cls-2" d="M177.92,118.61,167.71,131l-10.22-12.39a6.29,6.29,0,1,0-9.7,8l13.63,16.52v17.72a6.29,6.29,0,1,0,12.57,0V143.13l13.62-16.52a6.28,6.28,0,1,0-9.69-8"/><path class="cls-2" d="M88.87,117a6.29,6.29,0,0,0-8.41,2.88l-13,26.63-13-26.63a6.28,6.28,0,0,0-11.29,5.52l18.65,38.2a6.29,6.29,0,0,0,11.3,0l18.65-38.2a6.28,6.28,0,0,0-2.89-8.4"/></g></g></g></g></svg>