<?xml version="1.0" standalone="yes"?>
<svg xmlns="http://www.w3.org/2000/svg" width="1024" height="1024">
<path style="fill:#ff5133; stroke:none;" d="M0 0L0 1024L1024 1024L1024 0L0 0z"/>
<path style="fill:#ffffff; stroke:none;" d="M277 541L277 540C255.827 539.822 239.189 520 243.669 499C248.582 475.971 273.224 459.928 296 467.36C327.824 477.744 331.37 514.545 316.177 540C300.574 566.143 269.309 578.805 240 570.572C230.148 567.804 220.905 563.26 213 556.714C161.128 513.754 185.346 422.253 254 413C248.288 410.603 240.891 412.482 235 413.612C217.137 417.039 199.958 426.319 187.001 439.015C147.601 477.62 148.16 544.081 187.039 582.961C202.087 598.008 222.084 607.829 243 611.246C261.624 614.289 281.551 611.71 299 604.796C351.587 583.96 381.268 512.312 346.572 464C320.142 427.198 260.161 420.835 231.761 459C220.825 473.695 215.121 494.015 219.924 512C226.239 535.648 254.043 550.702 277 541z"/>
<path style="fill:#ff8472; stroke:none;" d="M323 443L324 444L323 443z"/>
<path style="fill:#ffffff; stroke:none;" d="M468 501L467 501L459 516C453.03 501.661 445.194 487.895 438.247 474C434.947 467.401 432.103 458.543 426.671 453.39C417.558 444.747 400.56 449.019 396.804 461C393.523 471.465 401.294 482.081 405.753 491C418.065 515.624 428.302 545.855 444.637 567.985C462.211 591.792 485.46 555.607 488.079 539C488.767 534.634 485.318 530.576 483.281 527C478.31 518.275 473.544 509.378 468 501z"/>
<path style="fill:#ff8472; stroke:none;" d="M500 449L501 450L500 449z"/>
<path style="fill:#ffffff; stroke:none;" d="M488 463C476.828 464.472 490.253 488.451 495 486C498.907 499.562 506.928 513.362 513.247 526C519.73 538.967 529.123 571.594 545 574.66C553.397 576.281 561.192 573.41 565.648 565.999C579.16 543.531 589.519 518.456 601.247 495C605.601 486.291 613.955 475.153 612.811 465C611.254 451.177 594.155 443.669 583.093 452.558C574.502 459.462 570.081 474.331 565.247 484C559.969 494.557 554.537 505.102 550 516L528.753 474L520 456L515 451C503.778 450.626 490.751 447.813 488 463z"/>
<path style="fill:#ff998c; stroke:none;" d="M506 449L507 450L506 449z"/>
<path style="fill:#ff8472; stroke:none;" d="M664 449L665 450L664 449z"/>
<path style="fill:#ffb4ad; stroke:none;" d="M666 449L667 450L666 449z"/>
<path style="fill:#ffffff; stroke:none;" d="M682 454L681 453C670.21 451.341 657.886 445.509 652.009 460C647.783 470.422 655.294 481.081 659.753 490C669.019 508.533 677.471 527.435 686.753 546C690.786 554.066 694.201 564.673 701.043 570.786C710.631 579.353 727.389 574.745 730.467 562C732.761 552.498 727.313 544.132 723.247 536L709.247 508L690.247 470C687.705 464.92 682.94 459.571 682 454z"/>
<path style="fill:#ffb4ad; stroke:none;" d="M669 449L670 450L669 449z"/>
<path style="fill:#ffffff; stroke:none;" d="M752 449.653C733.611 455.419 740 487.35 740 502C740 514.51 740.054 526.338 745.312 538C758.489 567.23 792.494 582.005 823 572.254C861.259 560.025 867 524.714 867 490C867 474.736 870.373 448.729 848 449.018C835.267 449.183 830.056 459.612 830.001 471C829.895 492.904 836.625 547.183 798 538.319C767.913 531.415 778.431 492.085 776.911 470C775.989 456.617 766.774 445.02 752 449.653z"/>
<path style="fill:#ff8472; stroke:none;" d="M497 450L498 451L497 450z"/>
<path style="fill:#ffb4ad; stroke:none;" d="M498 450L499 451L498 450z"/>
<path style="fill:#ff8472; stroke:none;" d="M660 450L661 451L660 450M495 451L496 452L495 451M676 451L677 452L676 451M657 452L658 453L657 452M492 453L493 454L492 453M491 454L492 455L491 454z"/>
<path style="fill:#ff998c; stroke:none;" d="M680 454L681 455L680 454z"/>
<path style="fill:#ff8472; stroke:none;" d="M653 456L654 457L653 456M489 457L490 458L489 457z"/>
<path style="fill:#ff998c; stroke:none;" d="M520 458L521 459L520 458z"/>
<path style="fill:#ffb4ad; stroke:none;" d="M520 459L521 460L520 459z"/>
<path style="fill:#ff8472; stroke:none;" d="M651.333 459.667L651.667 460.333L651.333 459.667M487 460L487 463L488 463L487 460z"/>
<path style="fill:#ffb4ad; stroke:none;" d="M684 460L685 461L684 460z"/>
<path style="fill:#ff8472; stroke:none;" d="M191 461L192 462L191 461M650 461L650 465L651 465L650 461z"/>
<path style="fill:#ffb4ad; stroke:none;" d="M486 464L487 465L486 464M649 464C643.495 478.197 655.825 498.133 666 509C667.432 503.125 663.823 498.151 661.247 493C656.457 483.421 653.138 473.589 649 464z"/>
<path style="fill:#ff998c; stroke:none;" d="M486 465L486 469L487 469L486 465z"/>
<path style="fill:#ff8472; stroke:none;" d="M648 465L649 466L648 465z"/>
<path style="fill:#ff5133; stroke:none;" d="M650 465L650 469L651 469L650 465z"/>
<path style="fill:#ff8472; stroke:none;" d="M647 467L648 468L647 467M268 468L269 469L268 468M646 469L647 470L646 469M650.333 469.667L650.667 470.333L650.333 469.667M482 470L483 471L482 470z"/>
<path style="fill:#ff998c; stroke:none;" d="M646 470L647 471L646 470z"/>
<path style="fill:#ff8472; stroke:none;" d="M224 471L225 472L224 471M396 471L397 472L396 471z"/>
<path style="fill:#ff998c; stroke:none;" d="M482 471L483 472L482 471z"/>
<path style="fill:#ffb4ad; stroke:none;" d="M483 471C480.962 481.553 496.234 500.286 502 509C505.707 502.919 497.448 492.879 495 487L483 471z"/>
<path style="fill:#ff8472; stroke:none;" d="M487 471L488 472L487 471M645 471L646 472L645 471M481 472L482 473L481 472z"/>
<path style="fill:#ff998c; stroke:none;" d="M487 472L488 473L487 472M645 472L646 473L645 472M481 473C476.815 486.591 493.745 502.806 499 515L500 515C504.738 504.983 487.793 481.191 481 473z"/>
<path style="fill:#ff8472; stroke:none;" d="M651 473L652 474L651 473M480 474L481 475L480 474M488 474L489 475L488 474z"/>
<path style="fill:#ff998c; stroke:none;" d="M644 474C641.65 487.305 656.529 502.281 662 514L664 514L667 508C663.503 508 662.297 502.795 660.667 500C657.048 493.797 650.497 476.382 644 474z"/>
<path style="fill:#ffb4ad; stroke:none;" d="M488 475L489 476L488 475z"/>
<path style="fill:#ff8472; stroke:none;" d="M652 475L653 476L652 475M489 476L490 477L489 476M643 476L644 477L643 476M479 477L480 478L479 477z"/>
<path style="fill:#ffb4ad; stroke:none;" d="M489 477L490 478L489 477z"/>
<path style="fill:#ff8472; stroke:none;" d="M653 477L654 478L653 477M490 478L491 479L490 478M642 478C640.312 482.06 637.313 486.474 637.318 491C637.329 502.501 651.478 516.505 656 527L664 514L642 478M185 479L186 480L185 479M478 479C476.467 482.688 473.529 486.891 473.603 491C473.797 501.709 487.606 517.853 493 527C504.895 514.295 488.951 489.118 478 479z"/>
<path style="fill:#ffb4ad; stroke:none;" d="M490 479L491 480L490 479z"/>
<path style="fill:#ff8472; stroke:none;" d="M654 479L655 480L654 479M491 480L492 481L491 480z"/>
<path style="fill:#ffb4ad; stroke:none;" d="M491 481L492 482L491 481z"/>
<path style="fill:#ff8472; stroke:none;" d="M655 481L656 482L655 481M492 482L493 483L492 482z"/>
<path style="fill:#ffb4ad; stroke:none;" d="M492 483L493 484L492 483z"/>
<path style="fill:#ff8472; stroke:none;" d="M656 483L657 484L656 483M493 484L494 485L493 484z"/>
<path style="fill:#ffb4ad; stroke:none;" d="M493 485L494 486L493 485z"/>
<path style="fill:#ff8472; stroke:none;" d="M657 485L658 486L657 485M494 486L495 487L494 486M658 487L659 488L658 487M495 488L496 489L495 488M659 489L660 490L659 489M496 490L497 491L496 490M660 491L661 492L660 491M359 492L360 493L359 492M497 492L498 493L497 492M661 493L662 494L661 493M498 494L499 495L498 494M662 495L663 496L662 495M499 496L500 497L499 496M663 497L664 498L663 497z"/>
<path style="fill:#ffb4ad; stroke:none;" d="M468 498C467.968 507.842 482.507 530.624 490 537L468 498z"/>
<path style="fill:#ff8472; stroke:none;" d="M500 498L501 499L500 498z"/>
<path style="fill:#ff998c; stroke:none;" d="M469.333 499.667L469.667 500.333L469.333 499.667z"/>
<path style="fill:#ff8472; stroke:none;" d="M631 499L632 500L631 499z"/>
<path style="fill:#ff998c; stroke:none;" d="M632 499L635 505L636 505L632 499z"/>
<path style="fill:#ff8472; stroke:none;" d="M664 499L665 500L664 499M501 500L502 501L501 500z"/>
<path style="fill:#ffffff; stroke:none;" d="M631 500C624.041 513.225 617.436 526.632 610.753 540C606.964 547.579 602.967 555.387 606.133 564C609.897 574.236 623.903 578.772 632.985 572.347C640.757 566.849 649.184 549.179 651.54 540C652.67 535.598 649.502 531.63 647.421 528C642.134 518.775 637.34 508.516 631 500z"/>
<path style="fill:#ffb4ad; stroke:none;" d="M632 500L633 504L634 504L632 500z"/>
<path style="fill:#ff998c; stroke:none;" d="M470.333 501.667L470.667 502.333L470.333 501.667z"/>
<path style="fill:#ff8472; stroke:none;" d="M630 501L631 502L630 501M665 501L666 502L665 501M502 502L503 503L502 502z"/>
<path style="fill:#ff998c; stroke:none;" d="M471 503L472 504L471 503z"/>
<path style="fill:#ff8472; stroke:none;" d="M666 503L667 504L666 503M503 504L504 505L503 504z"/>
<path style="fill:#ffb4ad; stroke:none;" d="M634 504L652 537L653 537C649.991 526.771 641.658 511.426 634 504z"/>
<path style="fill:#ff998c; stroke:none;" d="M472 505L473 506L472 505z"/>
<path style="fill:#ff8472; stroke:none;" d="M667 505L668 506L667 505z"/>
<path style="fill:#ff998c; stroke:none;" d="M473.333 506.667L473.667 507.333L473.333 506.667z"/>
<path style="fill:#ff5133; stroke:none;" d="M504 506L505 507L504 506z"/>
<path style="fill:#ff8472; stroke:none;" d="M554 506L555 507L554 506z"/>
<path style="fill:#ff998c; stroke:none;" d="M636 506L637 507L636 506M667 506L668 507L667 506M503 507L504 508L503 507M637.333 507.667L637.667 508.333L637.333 507.667z"/>
<path style="fill:#ff8472; stroke:none;" d="M667 507L668 508L667 507M325 508L326 509L325 508z"/>
<path style="fill:#ff998c; stroke:none;" d="M474.333 508.667L474.667 509.333L474.333 508.667z"/>
<path style="fill:#ff8472; stroke:none;" d="M503 508L504 509L503 508M553 508L554 509L553 508z"/>
<path style="fill:#ff998c; stroke:none;" d="M638 509L639 510L638 509z"/>
<path style="fill:#ff8472; stroke:none;" d="M666 509L667 510L666 509z"/>
<path style="fill:#ff998c; stroke:none;" d="M475 510L476 511L475 510z"/>
<path style="fill:#ff8472; stroke:none;" d="M502 510L503 511L502 510M552 510L553 511L552 510z"/>
<path style="fill:#ff998c; stroke:none;" d="M639 511L640 512L639 511z"/>
<path style="fill:#ff8472; stroke:none;" d="M665 511L666 512L665 511z"/>
<path style="fill:#ff998c; stroke:none;" d="M476 512L477 513L476 512z"/>
<path style="fill:#ff8472; stroke:none;" d="M501 512L502 513L501 512M551 512L552 513L551 512z"/>
<path style="fill:#ff998c; stroke:none;" d="M640.333 512.667L640.667 513.333L640.333 512.667M477.333 513.667L477.667 514.333L477.333 513.667z"/>
<path style="fill:#ff8472; stroke:none;" d="M500 513L501 514L500 513M664 513L665 514L664 513M550 514L551 515L550 514z"/>
<path style="fill:#ff998c; stroke:none;" d="M641.333 514.667L641.667 515.333L641.333 514.667M478.333 515.667L478.667 516.333L478.333 515.667M642 516L643 517L642 516M479 517L480 518L479 517M643 518L644 519L643 518M480 519L481 520L480 519M644.333 519.667L644.667 520.333L644.333 519.667M481.333 520.667L481.667 521.333L481.333 520.667M645.333 521.667L645.667 522.333L645.333 521.667z"/>
<path style="fill:#ff8472; stroke:none;" d="M828 521L829 522L828 521z"/>
<path style="fill:#ff998c; stroke:none;" d="M482 522L483 523L482 522M646 523L647 524L646 523M483 524L484 525L483 524z"/>
<path style="fill:#ff8472; stroke:none;" d="M226 525L227 526L226 525z"/>
<path style="fill:#ff998c; stroke:none;" d="M484.333 525.667L484.667 526.333L484.333 525.667M647 525L648 526L647 525M648.333 526.667L648.667 527.333L648.333 526.667M485.333 527.667L485.667 528.333L485.333 527.667M649.333 528.667L649.667 529.333L649.333 528.667M486 529L487 530L486 529z"/>
<path style="fill:#ff8472; stroke:none;" d="M359 530L360 531L359 530z"/>
<path style="fill:#ff998c; stroke:none;" d="M650 530L651 531L650 530M487 531L488 532L487 531M651.333 531.667L651.667 532.333L651.333 531.667M488.333 532.667L488.667 533.333L488.333 532.667M652.333 533.667L652.667 534.333L652.333 533.667z"/>
<path style="fill:#ff8472; stroke:none;" d="M257 534L258 535L257 534z"/>
<path style="fill:#ff998c; stroke:none;" d="M489.333 534.667L489.667 535.333L489.333 534.667M653 535L654 536L653 535z"/>
<path style="fill:#ff8472; stroke:none;" d="M318 536L319 537L318 536M239 537L240 538L239 537z"/>
<path style="fill:#ffb4ad; stroke:none;" d="M488 538L489 539L488 538z"/>
<path style="fill:#ff8472; stroke:none;" d="M203 548L204 549L203 548M751 548L752 549L751 548M350 556L351 557L350 556M766 563L767 564L766 563M230 567L231 568L230 567M473 568L474 569L473 568M726 569L727 570L726 569M788 573L789 574L788 573z"/>
</svg>
