<svg xmlns="http://www.w3.org/2000/svg" viewBox="0 0 283.46 283.46"><defs><style>.cls-1{fill:#e5004b;}.cls-2{fill:#fff;}</style></defs><g id="Layer_2" data-name="Layer 2"><g id="Slovakia"><g id="wautv"><rect class="cls-1" width="283.46" height="283.46"/><g id="logo"><path class="cls-2" d="M237.67,105.09H227.31c-2.89,0-3.32.45-3.32,3.36q0,20.08,0,40.16a17.7,17.7,0,0,1-1.78,8.11c-2.12,4.29-5.44,6.79-10.34,6.9A11.33,11.33,0,0,1,201,157.08a17.54,17.54,0,0,1-2-8.38q0-20.25,0-40.5c0-2.6-.49-3.1-3-3.11H185.38c-2.68,0-3.14.46-3.14,3.16,0,13.52,0,27,0,40.5a37.43,37.43,0,0,0,.77,7.84c1.88,8.68,6.4,15.56,14.57,19.56,5.94,2.91,12.28,3.42,18.78,2.64,14.28-1.72,23-12.44,24.13-25.65.62-7.51.36-37.39.36-44.75,0-2.81-.46-3.29-3.22-3.3"/><path class="cls-2" d="M148.46,107.79c.9-2,.52-2.56-1.67-2.58-4.37,0-8.75,0-13.12,0a3.5,3.5,0,0,0-3.67,2.42c-.86,2.17-11,25.85-15.09,35.53l-.56.82-.59-.73c-2.05-4.87-12.34-29.31-15.42-36.66-.51-1.21-1.13-2.26-2.67-2.23s-2,1-2.53,2.19c-5,11.88-10.18,24.24-15.18,36.1-.3.71-.61,1.33-.83,1.33l-.75-1.19c-4.88-11.5-10-23.58-14.89-35.08a3.62,3.62,0,0,0-3.77-2.5H44.92c-2.54,0-2.91.6-1.83,3L74.46,177c.49,1.08,1,2.13,2.4,2.14s2-1,2.54-2.17q7.71-17.44,15.45-34.87l.9-.82.87.87c2.25,5,4.47,10.07,6.7,15.1,2.93,6.64,5.89,13.27,8.81,19.9.53,1.19,1.2,2.1,2.66,2,1.23-.12,1.71-1,2.15-2q6.91-15.21,13.84-30.38,8.83-19.45,17.68-38.89"/><path class="cls-2" d="M157.62,106.91c-.89-1.88-2.94-2.41-4.29-1.11l-1.19,1.91Q136.52,142,121,176.35c-.87,1.9-.41,2.57,1.75,2.57h13c2.37,0,3.06-.47,3.93-2.66,1.45-3.66,2.94-7.29,4.33-11a1.6,1.6,0,0,1,1.79-1.19H164.4a1.9,1.9,0,0,1,2.14,1.48c1.4,3.7,2.93,7.39,4.4,11.09.47,1.17,1.19,2.19,2.56,2.21l14.91,0c1.19,0,1.56-.76,1.13-1.91Z"/></g></g></g></g></svg>