<svg xmlns="http://www.w3.org/2000/svg" viewBox="0 0 283.46 283.46"><defs><style>.cls-1{fill:#e5004b;}.cls-2{fill:#fff;}</style></defs><title>wautv</title><g id="Layer_2" data-name="Layer 2"><g id="Slovakia"><g id="wautv"><rect class="cls-1" width="283.46" height="283.46"/><g id="logo"><path class="cls-2" d="M237.67,105.09H227.31c-2.88,0-3.31.45-3.31,3.36q0,20.09,0,40.16a17.81,17.81,0,0,1-1.78,8.11c-2.12,4.29-5.44,6.79-10.34,6.9A11.32,11.32,0,0,1,201,157.08a17.52,17.52,0,0,1-2-8.38q0-20.25,0-40.5c0-2.61-.49-3.1-3-3.12H185.38c-2.68,0-3.13.46-3.13,3.16,0,13.51,0,27,0,40.5a37.9,37.9,0,0,0,.77,7.84c1.89,8.69,6.4,15.57,14.58,19.56,5.94,2.92,12.28,3.42,18.77,2.64,14.28-1.71,23-12.43,24.13-25.64.62-7.51.37-37.4.37-44.76,0-2.81-.46-3.29-3.22-3.3"/><path class="cls-2" d="M148.46,107.79c.9-2,.52-2.56-1.67-2.58-4.37,0-8.75,0-13.12,0a3.51,3.51,0,0,0-3.67,2.42c-.86,2.18-11,25.86-15.09,35.53l-.56.82-.59-.73c-2.06-4.88-12.35-29.31-15.42-36.66-.51-1.22-1.13-2.27-2.68-2.24s-2,1-2.53,2.19c-5,11.88-10.18,24.24-15.18,36.1-.3.71-.61,1.33-.83,1.33l-.75-1.19c-4.89-11.49-10-23.57-14.89-35.08a3.62,3.62,0,0,0-3.77-2.5l-12.8,0c-2.54,0-2.91.6-1.84,2.95l31.37,68.79c.49,1.08,1,2.13,2.4,2.14s2-1,2.54-2.18q7.71-17.45,15.45-34.87l.9-.82.87.86c2.25,5,4.46,10.07,6.69,15.1,2.94,6.63,5.89,13.27,8.81,19.9.53,1.19,1.2,2.1,2.66,2,1.23-.12,1.7-1,2.14-2q6.92-15.2,13.84-30.38,8.84-19.46,17.68-38.89"/><path class="cls-2" d="M157.62,106.91c-.89-1.88-2.94-2.41-4.29-1.11l-1.19,1.91Q136.53,142,121,176.35c-.86,1.9-.4,2.58,1.75,2.58h13c2.37,0,3.06-.48,3.93-2.67,1.45-3.66,2.94-7.28,4.33-11a1.59,1.59,0,0,1,1.8-1.19l18.69,0a1.9,1.9,0,0,1,2.14,1.48c1.41,3.7,2.93,7.39,4.4,11.09.47,1.17,1.19,2.19,2.56,2.21l14.92,0c1.19,0,1.56-.76,1.13-1.91Z"/></g></g></g></g></svg>