<svg xmlns="http://www.w3.org/2000/svg" xmlns:xlink="http://www.w3.org/1999/xlink" viewBox="0 0 283.46 283.46"><defs><style>.cls-1{fill:url(#linear-gradient);}.cls-2{fill:#fff;}</style><linearGradient id="linear-gradient" x1="141.73" x2="141.73" y2="283.46" gradientUnits="userSpaceOnUse"><stop offset="0" stop-color="#eb962c"/><stop offset="1" stop-color="#df5b2e"/></linearGradient></defs><title>zak</title><g id="Layer_2" data-name="Layer 2"><g id="Regionální"><g id="zak"><rect class="cls-1" width="283.46" height="283.46"/><g id="logo"><path class="cls-2" d="M137.37,173.88a8.14,8.14,0,0,1,1.5-.13,2.48,2.48,0,0,1,1.75.49,1.51,1.51,0,0,1,.48,1.15,1.59,1.59,0,0,1-1.14,1.54v0a1.51,1.51,0,0,1,.89,1.22,9.64,9.64,0,0,0,.47,1.66h-.81a7.85,7.85,0,0,1-.4-1.45c-.18-.84-.5-1.15-1.21-1.18h-.74v2.62h-.78Zm.78,2.76h.8c.84,0,1.37-.46,1.37-1.15s-.57-1.12-1.39-1.13a3.21,3.21,0,0,0-.77.07Z"/><path class="cls-2" d="M151.66,177h-2.35v2.18h2.62v.66h-3.4V173.8h3.27v.66h-2.49v1.91h2.35Z"/><path class="cls-2" d="M163.88,179.58a5.64,5.64,0,0,1-1.86.33,2.84,2.84,0,0,1-3.11-3.05,3,3,0,0,1,3.28-3.13,3.74,3.74,0,0,1,1.51.28l-.19.64a3.14,3.14,0,0,0-1.34-.26,2.26,2.26,0,0,0-2.43,2.43,2.22,2.22,0,0,0,2.34,2.44,2.55,2.55,0,0,0,1-.16V177.3h-1.23v-.63h2Z"/><path class="cls-2" d="M172.18,173.8v6.05h-.78V173.8Z"/><path class="cls-2" d="M185,176.76c0,2.08-1.27,3.19-2.81,3.19a2.78,2.78,0,0,1-2.72-3.07,2.88,2.88,0,0,1,2.81-3.18A2.76,2.76,0,0,1,185,176.76Zm-4.7.1c0,1.29.7,2.45,1.93,2.45s1.94-1.14,1.94-2.52c0-1.2-.63-2.46-1.93-2.46S180.35,175.53,180.35,176.86Z"/><path class="cls-2" d="M192.38,179.85V173.8h.85l1.94,3.06a17.15,17.15,0,0,1,1.09,2h0c-.07-.81-.09-1.54-.09-2.49V173.8h.74v6.05h-.79l-1.92-3.07a19.23,19.23,0,0,1-1.13-2h0c0,.76.06,1.49.06,2.5v2.59Z"/><path class="cls-2" d="M205.6,177.95l-.63,1.9h-.81l2.06-6.05h.94l2.07,6.05h-.84l-.65-1.9Zm2-.61-.59-1.74c-.13-.4-.22-.75-.31-1.1h0c-.09.36-.19.73-.31,1.1l-.59,1.75Zm.43-4.91-1.14,1.05h-.65l.84-1.05Z"/><path class="cls-2" d="M216.44,173.8h.78v5.4h2.59v.66h-3.37Z"/><path class="cls-2" d="M227,179.85V173.8h.85l1.94,3.06a17.15,17.15,0,0,1,1.09,2h0c-.07-.81-.09-1.54-.09-2.49V173.8h.74v6.05h-.79l-1.92-3.07a19.23,19.23,0,0,1-1.13-2h0c0,.76.06,1.49.06,2.5v2.59Z"/><path class="cls-2" d="M240.94,172.42l-1.15,1.05h-.64l.83-1.05ZM240,173.8v6.05h-.78V173.8Z"/><path class="cls-2" d="M164.09,185.22h-1.84v-.66h4.48v.66h-1.85v5.39h-.79Z"/><path class="cls-2" d="M176.87,187.77h-2.35v2.18h2.62v.66h-3.4v-6.05H177v.66h-2.49v1.91h2.35Z"/><path class="cls-2" d="M184.48,184.55h.78v5.4h2.59v.66h-3.37Z"/><path class="cls-2" d="M198.18,187.77h-2.35v2.18h2.62v.66H195v-6.05h3.27v.66h-2.49v1.91h2.35Z"/><path class="cls-2" d="M207.2,190.6l-2-6.05h.84l.94,3c.26.82.49,1.55.65,2.26h0c.17-.7.42-1.46.69-2.25l1-3h.84l-2.16,6.05Z"/><path class="cls-2" d="M218,184.55v6.05h-.78v-6.05Z"/><path class="cls-2" d="M225.26,190.15l3.36-4.91v0h-3.07v-.66h4.09V185l-3.34,4.9v0h3.39v.66h-4.42Z"/><path class="cls-2" d="M240.1,187.77h-2.35v2.18h2.62v.66H237v-6.05h3.27v.66h-2.49v1.91h2.35Z"/><path class="cls-2" d="M117.25,153.63v.2h21.51a49.2,49.2,0,0,0-.41-25.7l-13.26,16.69A116.35,116.35,0,0,1,117.25,153.63Z"/><path class="cls-2" d="M98.64,165.68v-8.52l15.08-18.9c2.74-3.23,4.9-5.58,7.64-8.52v-.2H100.31V117.79H134a48.87,48.87,0,1,0,0,47.89Z"/><path class="cls-2" d="M174.79,165.68l-.88-4.8h-.29c-3.13,3.82-8,5.88-13.71,5.88-9.7,0-15.47-7.05-15.47-14.69,0-12.44,11.16-18.41,28.11-18.31v-.69c0-2.55-1.37-6.17-8.72-6.17a26.93,26.93,0,0,0-13.22,3.62l-2.74-9.6c3.33-1.86,9.89-4.21,18.61-4.21,16,0,21.06,9.4,21.06,20.66V154a74.2,74.2,0,0,0,.69,11.65ZM173,143.05c-7.83-.1-13.91,1.76-13.91,7.54,0,3.82,2.55,5.68,5.88,5.68a8.13,8.13,0,0,0,7.74-5.48,10.68,10.68,0,0,0,.29-2.55Z"/><path class="cls-2" d="M207.25,138h.2c1.08-2,2.25-3.92,3.43-5.78l9.7-14.4h17.92l-17.14,19.39,19.59,28.5H222.63L211.07,146l-3.82,4.7v15H192.37V96.14h14.89Z"/></g></g></g></g></svg>