<svg xmlns="http://www.w3.org/2000/svg" xmlns:xlink="http://www.w3.org/1999/xlink" viewBox="0 0 283.46 283.46"><defs><style>.cls-1{fill:url(#linear-gradient);}.cls-2{fill:#fff;}</style><linearGradient id="linear-gradient" x1="141.73" x2="141.73" y2="283.46" gradientUnits="userSpaceOnUse"><stop offset="0" stop-color="#eb962c"/><stop offset="1" stop-color="#df5b2e"/></linearGradient></defs><g id="Layer_2" data-name="Layer 2"><g id="Regionální"><g id="zak"><rect class="cls-1" width="283.46" height="283.46"/><g id="logo"><path class="cls-2" d="M137.37,173.88a8.21,8.21,0,0,1,1.5-.13,2.47,2.47,0,0,1,1.75.5,1.49,1.49,0,0,1,.48,1.15,1.59,1.59,0,0,1-1.14,1.54v0a1.53,1.53,0,0,1,.89,1.22,9.66,9.66,0,0,0,.46,1.66h-.81a8.74,8.74,0,0,1-.4-1.44c-.18-.84-.5-1.15-1.21-1.18h-.74v2.62h-.78Zm.78,2.76h.8c.84,0,1.37-.46,1.37-1.15s-.57-1.13-1.4-1.13a3.08,3.08,0,0,0-.77.07Z"/><path class="cls-2" d="M151.66,177h-2.35v2.19h2.62v.65h-3.4v-6h3.27v.65h-2.49v1.92h2.35Z"/><path class="cls-2" d="M163.88,179.58a5.48,5.48,0,0,1-1.86.34,2.85,2.85,0,0,1-3.11-3.06,3,3,0,0,1,3.28-3.12,3.89,3.89,0,0,1,1.51.27l-.19.64a3.2,3.2,0,0,0-1.34-.26,2.27,2.27,0,0,0-2.43,2.44,2.22,2.22,0,0,0,2.33,2.44,2.57,2.57,0,0,0,1.05-.16V177.3h-1.24v-.63h2Z"/><path class="cls-2" d="M172.18,173.8v6h-.78v-6Z"/><path class="cls-2" d="M185,176.76c0,2.09-1.26,3.19-2.81,3.19a2.77,2.77,0,0,1-2.72-3.07,2.87,2.87,0,0,1,2.81-3.18A2.76,2.76,0,0,1,185,176.76Zm-4.69.1c0,1.29.7,2.45,1.93,2.45s1.94-1.14,1.94-2.51c0-1.21-.63-2.46-1.93-2.46S180.35,175.53,180.35,176.86Z"/><path class="cls-2" d="M192.38,179.85v-6h.86l1.94,3.06a15.88,15.88,0,0,1,1.08,2h0c-.07-.81-.09-1.55-.09-2.49V173.8h.74v6h-.79l-1.93-3.07a20.71,20.71,0,0,1-1.13-2h0c0,.76.06,1.49.06,2.5v2.58Z"/><path class="cls-2" d="M205.6,178l-.63,1.9h-.81l2.06-6h.94l2.07,6h-.84l-.65-1.9Zm2-.61-.59-1.75c-.14-.39-.23-.75-.32-1.1h0c-.09.36-.19.73-.31,1.1l-.59,1.75Zm.43-4.92-1.14,1.05h-.64l.83-1.05Z"/><path class="cls-2" d="M216.44,173.8h.78v5.4h2.59v.65h-3.37Z"/><path class="cls-2" d="M227,179.85v-6h.86l1.94,3.06a15.88,15.88,0,0,1,1.08,2h0c-.07-.81-.09-1.55-.09-2.49V173.8h.74v6h-.79l-1.92-3.07a19,19,0,0,1-1.14-2h0c0,.76.06,1.49.06,2.5v2.58Z"/><path class="cls-2" d="M240.94,172.42l-1.14,1.05h-.64l.82-1.05ZM240,173.8v6h-.78v-6Z"/><path class="cls-2" d="M164.09,185.22h-1.84v-.67h4.49v.67h-1.85v5.38h-.8Z"/><path class="cls-2" d="M176.87,187.77h-2.35V190h2.62v.65h-3.41v-6H177v.66h-2.48v1.91h2.35Z"/><path class="cls-2" d="M184.48,184.55h.78V190h2.59v.65h-3.37Z"/><path class="cls-2" d="M198.18,187.77h-2.36V190h2.63v.65H195v-6h3.27v.66h-2.49v1.91h2.36Z"/><path class="cls-2" d="M207.2,190.6l-2-6h.84l.95,3c.26.82.48,1.56.64,2.27h0c.17-.7.42-1.47.69-2.26l1-3h.83l-2.16,6Z"/><path class="cls-2" d="M218,184.55v6h-.78v-6Z"/><path class="cls-2" d="M225.26,190.15l3.36-4.92v0h-3.07v-.66h4.09V185l-3.35,4.89v0h3.39v.65h-4.42Z"/><path class="cls-2" d="M240.1,187.77h-2.35V190h2.62v.65H237v-6h3.27v.66h-2.49v1.91h2.35Z"/><path class="cls-2" d="M117.25,153.63v.2h21.51a49.46,49.46,0,0,0-.41-25.7l-13.27,16.69A115.73,115.73,0,0,1,117.25,153.63Z"/><path class="cls-2" d="M98.64,165.68v-8.52l15.08-18.9c2.75-3.24,4.9-5.59,7.64-8.52v-.2h-21V117.79H134a48.87,48.87,0,1,0,0,47.89Z"/><path class="cls-2" d="M174.79,165.68l-.88-4.8h-.3c-3.13,3.82-8,5.87-13.71,5.87-9.69,0-15.47-7.05-15.47-14.69,0-12.43,11.16-18.41,28.11-18.31v-.68c0-2.55-1.38-6.17-8.72-6.17a26.89,26.89,0,0,0-13.22,3.62l-2.74-9.6c3.33-1.86,9.89-4.21,18.6-4.21,16,0,21.06,9.4,21.06,20.66V154a74.34,74.34,0,0,0,.68,11.66ZM173,143.05c-7.83-.09-13.9,1.77-13.9,7.55,0,3.81,2.54,5.68,5.87,5.68a8.13,8.13,0,0,0,7.74-5.49,10.43,10.43,0,0,0,.29-2.55Z"/><path class="cls-2" d="M207.25,138h.2c1.08-2,2.25-3.92,3.43-5.78l9.69-14.39h17.92l-17.13,19.39,19.58,28.5H222.63L211.07,146l-3.82,4.7v15H192.37V96.14h14.88Z"/></g></g></g></g></svg>