<?xml version="1.0" encoding="UTF-8" standalone="no"?>
<svg
   inkscape:version="1.1.1 (3bf5ae0d25, 2021-09-20)"
   sodipodi:docname="zaktv-color.svg"
   viewBox="0 0 1093.8096 404.98327"
   height="404.98328"
   width="1093.8096"
   xml:space="preserve"
   id="svg1473"
   version="1.1"
   xmlns:inkscape="http://www.inkscape.org/namespaces/inkscape"
   xmlns:sodipodi="http://sodipodi.sourceforge.net/DTD/sodipodi-0.dtd"
   xmlns="http://www.w3.org/2000/svg"
   xmlns:svg="http://www.w3.org/2000/svg"
   xmlns:rdf="http://www.w3.org/1999/02/22-rdf-syntax-ns#"
   xmlns:cc="http://creativecommons.org/ns#"
   xmlns:dc="http://purl.org/dc/elements/1.1/"><metadata
     id="metadata1479"><rdf:RDF><cc:Work
         rdf:about=""><dc:format>image/svg+xml</dc:format><dc:type
           rdf:resource="http://purl.org/dc/dcmitype/StillImage" /><dc:title /></cc:Work></rdf:RDF></metadata><defs
     id="defs1477"><clipPath
       id="clipPath1489"
       clipPathUnits="userSpaceOnUse"><path
         id="path1487"
         d="M 0,505 H 969 V 0 H 0 Z" /></clipPath></defs><sodipodi:namedview
     inkscape:current-layer="g1481"
     inkscape:window-maximized="0"
     inkscape:window-y="0"
     inkscape:window-x="0"
     inkscape:cy="193.32847"
     inkscape:cx="412.11971"
     inkscape:zoom="1.0603715"
     showgrid="false"
     id="namedview1475"
     inkscape:window-height="1159"
     inkscape:window-width="2369"
     inkscape:pageshadow="2"
     inkscape:pageopacity="0"
     guidetolerance="10"
     gridtolerance="10"
     objecttolerance="10"
     borderopacity="1"
     bordercolor="#666666"
     pagecolor="#ffffff"
     inkscape:pagecheckerboard="0"
     showguides="false" /><g
     transform="matrix(1.3333333,0,0,-1.3333333,-90.177028,529.94074)"
     inkscape:label="zaktv"
     inkscape:groupmode="layer"
     id="g1481"><g
       id="g1008"><path
         id="path1493"
         style="fill:#c50004;fill-opacity:1;fill-rule:nonzero;stroke:none"
         d="m 205.0601,396.7402 c 30.58,3.02 62.05,-3.58 88.81,-18.7 23.08,-12.91 42.6,-32 56.2,-54.67 -36.55,-0.02 -73.09,0.01 -109.64,-0.02 0,-12.66 -0.02,-25.33 -0.02,-38 22.25,-0.01 44.49,0.01 66.75,-0.01 -22.77,-28.81 -45.22,-57.87 -67.95,-86.71 -0.65,-0.9 -1.48,-1.83 -1.36,-3.05 -0.12,-9.79 0.01,-19.59 -0.04,-29.39 37.14,0.07 74.28,-0.02 111.43,0.05 -13.59,-21.71 -32.39,-40.18 -54.74,-52.76 -23.59,-13.48 -50.89,-20.37 -78.05,-19.72 -35.9,0.55 -71.39,14.55 -98.04,38.59 -20.11,17.82 -35.24,41.14 -43.49,66.7 -8.8,27.17 -9.63,56.84 -2.49,84.48 8.29,32.32 27.66,61.62 54.04,82.03 22.54,17.54 50.13,28.54 78.59,31.18" /><g
         transform="translate(295.1802,204.29)"
         id="g1495"><path
           id="path1497"
           style="fill:#c50004;fill-opacity:1;fill-rule:nonzero;stroke:none"
           d="M 0,0 C 22.97,29.49 45.84,59.06 68.88,88.5 78.08,60.02 78.84,28.8 70.6,0 47.06,0.02 23.53,0.03 0,0" /></g><g
         transform="translate(738.7402,287.6602)"
         id="g1499"><path
           id="path1501"
           style="fill:#c50004;fill-opacity:1;fill-rule:nonzero;stroke:none"
           d="m 0,0 c 9.23,0 18.46,-0.02 27.69,0.01 -0.02,-8.97 -0.01,-17.95 -0.04,-26.92 7.66,-0.01 15.33,-0.02 23.01,0.01 -0.02,-6.79 -0.03,-13.58 -0.03,-20.37 -7.67,0 -15.34,0.02 -23,-0.01 0.01,-12.64 -0.08,-25.27 -0.03,-37.91 0.17,-3.76 0.54,-8.67 4.43,-10.52 4.96,-2.02 10.17,0.61 14.78,2.42 1.75,-7.09 3.49,-14.17 5.4,-21.22 -8.99,-5.51 -19.95,-7.7 -30.35,-5.87 -5.89,1.24 -11.51,4.28 -15.26,9.06 -4.85,5.87 -6.49,13.69 -6.51,21.13 -0.01,14.31 -0.03,28.62 -0.04,42.92 -4.05,0 -8.1,0.01 -12.15,0 -0.01,6.73 -0.01,13.46 -0.03,20.19 H 0.03 C 0.02,-18.06 0.03,-9.03 0,0" /></g><g
         transform="translate(793.52,264.79)"
         id="g1503"><path
           id="path1505"
           style="fill:#c50004;fill-opacity:1;fill-rule:nonzero;stroke:none"
           d="M 0,0 C 9.54,0 19.08,-0.03 28.63,0.02 35.1,-22.88 40.96,-45.97 47.69,-68.79 54.19,-45.9 60.34,-22.92 66.76,0 76,-0.01 85.23,-0.01 94.47,0 83.37,-32.27 72.46,-64.6 61.42,-96.9 51.95,-96.86 42.48,-96.91 33.01,-96.87 22,-64.58 11.03,-32.28 0,0" /></g><g
         transform="translate(707.98,195.73)"
         id="g1507"><path
           id="path1509"
           style="fill:#c50004;fill-opacity:1;fill-rule:nonzero;stroke:none"
           d="m 0,0 c 5.08,1.58 11.17,0.02 14.44,-4.3 4.5,-6.06 4.21,-15.39 -0.94,-20.98 -5.16,-5.52 -15.3,-5 -19.71,1.2 C -11.77,-16.5 -9.68,-3.09 0,0" /></g><g
         transform="translate(540.1699,382.5298)"
         id="g1511"><path
           id="path1513"
           style="fill:#000000;fill-opacity:1;fill-rule:nonzero;stroke:none"
           d="m 0,0 c 15,-0.02 30.01,0.04 45.02,-0.03 0.07,-38.09 -0.06,-76.17 0.07,-114.25 15.51,18.38 31.15,36.65 46.6,55.08 17.04,0.12 34.08,0.01 51.12,0.06 -17.38,-19.9 -34.48,-40.04 -51.77,-60.02 17.82,-32.16 35.6,-64.35 53.39,-96.54 -17.79,0.04 -35.57,-0.05 -53.35,0.05 -10.19,20.26 -20.48,40.46 -30.71,60.69 -5.12,-5.96 -10.17,-11.98 -15.34,-17.91 0.03,-14.28 -0.01,-28.55 0.02,-42.83 -15.03,0.03 -30.05,-0.02 -45.07,0.02 C 0.04,-143.79 0.01,-71.9 0,0" /></g><g
         transform="translate(428.4399,226.5601)"
         id="g1515"><path
           id="path1517"
           style="fill:#000000;fill-opacity:1;fill-rule:nonzero;stroke:none"
           d="m 0,0 c -4.82,-8.83 -2.14,-22.21 7.74,-26.3 13.32,-5.32 30.41,0.62 36.98,13.55 C 48.26,-6.62 46.56,0.69 46.9,7.4 36.62,7.34 26.34,7.5 16.06,7.32 10.1,7.1 3.27,5.49 0,0 m -35.57,81.53 c 23.06,12.29 49.35,19.99 75.65,17.17 14.8,-1.46 29.87,-7.44 39.36,-19.3 8.54,-10.44 11.84,-24.21 11.84,-37.48 0,-33.88 -0.01,-67.76 0.01,-101.64 -14.68,-0.02 -29.35,0.01 -44.03,-0.02 0,5.99 0.04,11.98 -0.03,17.98 -3.67,-4.5 -7.56,-8.93 -12.53,-12.03 -11.61,-7.6 -26.19,-9.38 -39.74,-7.64 -12.64,1.71 -24.8,8.63 -31.63,19.59 -7.71,12.11 -9.36,27.4 -6.53,41.3 2.09,10.09 7.96,19.43 16.59,25.17 10.12,6.91 22.63,9.28 34.7,9.58 12.98,0.06 25.97,-0.01 38.95,0.03 0.17,7.21 -1.02,15.11 -6.46,20.35 -7.15,7.1 -18.12,7.8 -27.59,6.76 -12.69,-1.62 -24.71,-6.54 -35.86,-12.66 -4.18,10.96 -8.37,21.93 -12.7,32.84" /></g><g
         aria-label="ZÁPADOČESKÝ ZPRAVODAJSKÝ PORTÁL"
         transform="matrix(1,0,0,-1,0,-3)"
         id="text4909"
         style="font-size:25px;line-height:1.25;font-family:Arial;-inkscape-font-specification:Arial;stroke-width:0.75"><path
           d="m 382.85736,-125.12125 v -2.19726 l 9.16748,-11.4624 q 0.97656,-1.22071 1.85547,-2.12403 h -9.98535 v -2.11181 h 12.81738 v 2.11181 l -10.04639,12.41455 -1.08642,1.25733 h 11.42578 v 2.11181 z"
           id="path19449" /><path
           d="m 397.59125,-125.12125 6.87256,-17.8955 h 2.55127 l 7.32421,17.8955 h -2.69775 l -2.0874,-5.41992 h -7.48291 l -1.96533,5.41992 z m 5.16357,-7.34863 h 6.0669 l -1.86768,-4.95605 q -0.85449,-2.2583 -1.26953,-3.71094 -0.3418,1.72119 -0.96436,3.41797 z m 1.47705,-11.64551 1.62354,-3.41797 h 2.88086 l -2.68555,3.41797 z"
           id="path19451" /><path
           d="m 416.23138,-125.12125 v -17.8955 h 6.75049 q 1.78223,0 2.72217,0.17089 1.31836,0.21973 2.20947,0.84229 0.89112,0.61035 1.42823,1.72119 0.54931,1.11084 0.54931,2.44141 0,2.28271 -1.45263,3.86963 -1.45264,1.5747 -5.24903,1.5747 h -4.58984 v 7.27539 z m 2.36817,-9.3872 h 4.62646 q 2.29493,0 3.25928,-0.8545 0.96436,-0.85449 0.96436,-2.40478 0,-1.12305 -0.57373,-1.9165 -0.56153,-0.80567 -1.48926,-1.06202 -0.59815,-0.15869 -2.20947,-0.15869 h -4.57764 z"
           id="path19453" /><path
           d="m 429.08539,-125.12125 6.87256,-17.8955 h 2.55127 l 7.32422,17.8955 h -2.69776 l -2.0874,-5.41992 h -7.48291 l -1.96533,5.41992 z m 5.16357,-7.34863 h 6.0669 l -1.86768,-4.95605 q -0.85449,-2.2583 -1.26953,-3.71094 -0.3418,1.72119 -0.96436,3.41797 z"
           id="path19455" /><path
           d="m 447.72552,-125.12125 v -17.8955 h 6.16456 q 2.0874,0 3.18603,0.25634 1.53809,0.35401 2.62451,1.28174 1.41602,1.19629 2.11182,3.06397 0.70801,1.85547 0.70801,4.24804 0,2.03858 -0.47608,3.61328 -0.47607,1.57471 -1.2207,2.61231 -0.74463,1.02539 -1.63574,1.62353 -0.87891,0.58594 -2.13623,0.89112 -1.24512,0.30517 -2.86866,0.30517 z m 2.36817,-2.11181 h 3.8208 q 1.77002,0 2.771,-0.32959 1.01318,-0.32959 1.61132,-0.92774 0.84229,-0.84228 1.30616,-2.2583 0.47607,-1.42822 0.47607,-3.45459 0,-2.80761 -0.92773,-4.30908 -0.91553,-1.51367 -2.23389,-2.02637 -0.95215,-0.36621 -3.06397,-0.36621 h -3.75976 z"
           id="path19457" /><path
           d="m 465.05951,-133.83707 q 0,-4.45556 2.39258,-6.97021 2.39258,-2.52686 6.17676,-2.52686 2.47802,0 4.46777,1.18409 1.98974,1.18408 3.02734,3.3081 1.04981,2.11182 1.04981,4.79736 0,2.72217 -1.09864,4.87061 -1.09863,2.14844 -3.11279,3.25928 -2.01416,1.09863 -4.3457,1.09863 -2.52686,0 -4.5166,-1.2207 -1.98975,-1.22071 -3.01514,-3.33252 -1.02539,-2.11182 -1.02539,-4.46778 z m 2.44141,0.0366 q 0,3.23487 1.73339,5.10254 1.74561,1.85547 4.37012,1.85547 2.67334,0 4.39453,-1.87988 1.7334,-1.87988 1.7334,-5.33447 0,-2.18506 -0.74463,-3.8086 -0.73242,-1.63574 -2.16064,-2.52685 -1.41602,-0.90332 -3.18604,-0.90332 -2.51465,0 -4.33349,1.7334 -1.80664,1.72119 -1.80664,5.76171 z"
           id="path19459" /><path
           d="m 497.99408,-131.39566 2.36816,0.59814 q -0.74463,2.91748 -2.68554,4.45557 -1.92871,1.52588 -4.72412,1.52588 -2.89307,0 -4.71192,-1.17188 -1.80664,-1.18408 -2.75879,-3.41796 -0.93994,-2.23389 -0.93994,-4.79737 0,-2.79541 1.06201,-4.8706 1.07422,-2.08741 3.03955,-3.16162 1.97754,-1.08643 4.34571,-1.08643 2.68554,0 4.5166,1.36719 1.83105,1.36719 2.55127,3.84521 l -2.33155,0.54932 q -0.62255,-1.95313 -1.80664,-2.84424 -1.18408,-0.89111 -2.97851,-0.89111 -2.06299,0 -3.45459,0.98877 -1.3794,0.98877 -1.94092,2.66113 -0.56152,1.66016 -0.56152,3.43018 0,2.28271 0.65918,3.99169 0.67138,1.69678 2.07519,2.53907 1.40381,0.84228 3.03955,0.84228 1.98975,0 3.36914,-1.14746 1.3794,-1.14746 1.86768,-3.40576 z m -5.0415,-13.98926 1.34277,-2.07519 h 2.49023 l -2.74658,3.41797 h -2.34375 l -2.63672,-3.41797 h 2.51465 z"
           id="path19461" /><path
           d="m 503.32855,-125.12125 v -17.8955 h 12.93946 v 2.11181 h -10.57129 v 5.48096 h 9.8999 v 2.09961 h -9.8999 v 6.09131 h 10.98632 v 2.11181 z"
           id="path19463" /><path
           d="m 519.14886,-130.87076 2.23389,-0.19531 q 0.15869,1.34277 0.73242,2.20947 0.58594,0.85449 1.80664,1.3916 1.22071,0.52491 2.74659,0.52491 1.35498,0 2.39257,-0.40284 1.0376,-0.40283 1.53809,-1.09863 0.5127,-0.70801 0.5127,-1.53808 0,-0.84229 -0.48829,-1.46485 -0.48828,-0.63476 -1.61132,-1.06201 -0.72022,-0.28076 -3.18604,-0.8667 -2.46582,-0.59814 -3.45459,-1.12305 -1.28174,-0.67138 -1.9165,-1.66015 -0.62256,-1.00098 -0.62256,-2.23389 0,-1.35498 0.76904,-2.52685 0.76904,-1.18409 2.2461,-1.79444 1.47705,-0.61035 3.28369,-0.61035 1.98974,0 3.50341,0.64697 1.52588,0.63477 2.34375,1.87989 0.81788,1.24511 0.87891,2.81982 l -2.27051,0.1709 q -0.1831,-1.69678 -1.24511,-2.56348 -1.04981,-0.8667 -3.1128,-0.8667 -2.14843,0 -3.1372,0.79346 -0.97657,0.78125 -0.97657,1.89209 0,0.96435 0.6958,1.58691 0.6836,0.62256 3.56446,1.28174 2.89306,0.64697 3.96728,1.13526 1.5625,0.72021 2.30713,1.83105 0.74463,1.09863 0.74463,2.53906 0,1.42823 -0.81787,2.69776 -0.81787,1.25732 -2.35596,1.96533 -1.52588,0.6958 -3.44238,0.6958 -2.4292,0 -4.07715,-0.70801 -1.63574,-0.70801 -2.57568,-2.12402 -0.92774,-1.42822 -0.97657,-3.22266 z"
           id="path19465" /><path
           d="m 536.53168,-125.12125 v -17.8955 h 2.36816 v 8.87451 l 8.88672,-8.87451 h 3.21045 l -7.50732,7.25097 7.83691,10.64453 h -3.125 l -6.37207,-9.05761 -2.92969,2.85644 v 6.20117 z"
           id="path19467" /><path
           d="m 558.34564,-125.12125 v -7.58056 l -6.89697,-10.31494 h 2.88086 l 3.52783,5.3955 q 0.97656,1.51368 1.81885,3.02735 0.80566,-1.40381 1.95312,-3.16162 l 3.4668,-5.26123 h 2.75879 l -7.14111,10.31494 v 7.58056 z m -0.19531,-18.99414 1.62353,-3.41797 h 2.88086 l -2.68554,3.41797 z"
           id="path19469" /><path
           d="m 575.49652,-125.12125 v -2.19726 l 9.16748,-11.4624 q 0.97656,-1.22071 1.85547,-2.12403 h -9.98535 v -2.11181 h 12.81738 v 2.11181 l -10.04639,12.41455 -1.08642,1.25733 h 11.42578 v 2.11181 z"
           id="path19471" /><path
           d="m 592.19574,-125.12125 v -17.8955 h 6.75049 q 1.78222,0 2.72217,0.17089 1.31836,0.21973 2.20947,0.84229 0.89111,0.61035 1.42822,1.72119 0.54932,1.11084 0.54932,2.44141 0,2.28271 -1.45264,3.86963 -1.45264,1.5747 -5.24902,1.5747 h -4.58985 v 7.27539 z m 2.36816,-9.3872 h 4.62647 q 2.29492,0 3.25928,-0.8545 0.96435,-0.85449 0.96435,-2.40478 0,-1.12305 -0.57373,-1.9165 -0.56152,-0.80567 -1.48926,-1.06202 -0.59814,-0.15869 -2.20947,-0.15869 h -4.57764 z"
           id="path19473" /><path
           d="m 608.90717,-125.12125 v -17.8955 h 7.93457 q 2.39257,0 3.63769,0.48828 1.24512,0.47607 1.98975,1.69677 0.74463,1.22071 0.74463,2.69776 0,1.9043 -1.23291,3.21045 -1.23291,1.30615 -3.8086,1.66015 0.93994,0.45166 1.42822,0.89112 1.0376,0.95215 1.96534,2.38037 l 3.11279,4.8706 h -2.97852 l -2.36816,-3.72314 q -1.0376,-1.61133 -1.70898,-2.46582 -0.67139,-0.85449 -1.2085,-1.19629 -0.5249,-0.3418 -1.07422,-0.47607 -0.40283,-0.0854 -1.31836,-0.0854 h -2.74658 v 7.94677 z m 2.36816,-9.99755 h 5.09033 q 1.62354,0 2.53906,-0.32959 0.91553,-0.3418 1.39161,-1.07422 0.47607,-0.74463 0.47607,-1.61133 0,-1.26953 -0.92773,-2.0874 -0.91553,-0.81788 -2.90528,-0.81788 h -5.66406 z"
           id="path19475" /><path
           d="m 624.95941,-125.12125 6.87256,-17.8955 h 2.55127 l 7.32422,17.8955 h -2.69776 l -2.0874,-5.41992 h -7.48291 l -1.96533,5.41992 z m 5.16358,-7.34863 h 6.06689 l -1.86768,-4.95605 q -0.85449,-2.2583 -1.26953,-3.71094 -0.34179,1.72119 -0.96435,3.41797 z"
           id="path19477" /><path
           d="m 646.85883,-125.12125 -6.9336,-17.8955 h 2.56348 l 4.65088,13.00048 q 0.56152,1.5625 0.93994,2.92969 0.41504,-1.46484 0.96435,-2.92969 l 4.83399,-13.00048 h 2.41699 l -7.00684,17.8955 z"
           id="path19479" /><path
           d="m 657.69867,-133.83707 q 0,-4.45556 2.39258,-6.97021 2.39258,-2.52686 6.17676,-2.52686 2.47802,0 4.46777,1.18409 1.98974,1.18408 3.02734,3.3081 1.04981,2.11182 1.04981,4.79736 0,2.72217 -1.09864,4.87061 -1.09863,2.14844 -3.11279,3.25928 -2.01416,1.09863 -4.3457,1.09863 -2.52686,0 -4.5166,-1.2207 -1.98975,-1.22071 -3.01514,-3.33252 -1.02539,-2.11182 -1.02539,-4.46778 z m 2.44141,0.0366 q 0,3.23487 1.73339,5.10254 1.74561,1.85547 4.37012,1.85547 2.67334,0 4.39453,-1.87988 1.7334,-1.87988 1.7334,-5.33447 0,-2.18506 -0.74463,-3.8086 -0.73242,-1.63574 -2.16064,-2.52685 -1.41602,-0.90332 -3.18604,-0.90332 -2.51465,0 -4.33349,1.7334 -1.80664,1.72119 -1.80664,5.76171 z"
           id="path19481" /><path
           d="m 677.86469,-125.12125 v -17.8955 h 6.16455 q 2.0874,0 3.18603,0.25634 1.53809,0.35401 2.62451,1.28174 1.41602,1.19629 2.11182,3.06397 0.70801,1.85547 0.70801,4.24804 0,2.03858 -0.47608,3.61328 -0.47607,1.57471 -1.2207,2.61231 -0.74463,1.02539 -1.63574,1.62353 -0.87891,0.58594 -2.13623,0.89112 -1.24512,0.30517 -2.86866,0.30517 z m 2.36816,-2.11181 h 3.8208 q 1.77002,0 2.771,-0.32959 1.01318,-0.32959 1.61132,-0.92774 0.84229,-0.84228 1.30616,-2.2583 0.47607,-1.42822 0.47607,-3.45459 0,-2.80761 -0.92773,-4.30908 -0.91553,-1.51367 -2.23389,-2.02637 -0.95215,-0.36621 -3.06397,-0.36621 h -3.75976 z"
           id="path19483" /><path
           d="m 693.95355,-125.12125 6.87256,-17.8955 h 2.55127 l 7.32422,17.8955 h -2.69775 l -2.08741,-5.41992 h -7.48291 l -1.96533,5.41992 z m 5.16358,-7.34863 h 6.06689 l -1.86767,-4.95605 q -0.8545,-2.2583 -1.26954,-3.71094 -0.34179,1.72119 -0.96435,3.41797 z"
           id="path19485" /><path
           d="m 711.38519,-130.19937 2.13623,-0.29297 q 0.0854,2.05078 0.76905,2.80762 0.68359,0.75683 1.89209,0.75683 0.89111,0 1.53808,-0.40283 0.64697,-0.41504 0.89112,-1.11084 0.24414,-0.70801 0.24414,-2.24609 v -12.3291 h 2.36816 v 12.19482 q 0,2.24609 -0.54932,3.479 -0.53711,1.23291 -1.72119,1.87989 -1.17187,0.64697 -2.75879,0.64697 -2.35595,0 -3.61328,-1.35498 -1.24512,-1.35498 -1.19629,-4.02832 z"
           id="path19487" /><path
           d="m 724.28802,-130.87076 2.23389,-0.19531 q 0.15869,1.34277 0.73242,2.20947 0.58594,0.85449 1.80664,1.3916 1.22071,0.52491 2.74659,0.52491 1.35498,0 2.39257,-0.40284 1.0376,-0.40283 1.53809,-1.09863 0.5127,-0.70801 0.5127,-1.53808 0,-0.84229 -0.48829,-1.46485 -0.48828,-0.63476 -1.61132,-1.06201 -0.72022,-0.28076 -3.18604,-0.8667 -2.46582,-0.59814 -3.45459,-1.12305 -1.28174,-0.67138 -1.9165,-1.66015 -0.62256,-1.00098 -0.62256,-2.23389 0,-1.35498 0.76904,-2.52685 0.76904,-1.18409 2.2461,-1.79444 1.47705,-0.61035 3.28369,-0.61035 1.98974,0 3.50341,0.64697 1.52588,0.63477 2.34375,1.87989 0.81788,1.24511 0.87891,2.81982 l -2.27051,0.1709 q -0.1831,-1.69678 -1.24511,-2.56348 -1.04981,-0.8667 -3.1128,-0.8667 -2.14843,0 -3.1372,0.79346 -0.97657,0.78125 -0.97657,1.89209 0,0.96435 0.6958,1.58691 0.6836,0.62256 3.56446,1.28174 2.89306,0.64697 3.96728,1.13526 1.5625,0.72021 2.30713,1.83105 0.74463,1.09863 0.74463,2.53906 0,1.42823 -0.81787,2.69776 -0.81787,1.25732 -2.35596,1.96533 -1.52588,0.6958 -3.44238,0.6958 -2.4292,0 -4.07715,-0.70801 -1.63574,-0.70801 -2.57568,-2.12402 -0.92774,-1.42822 -0.97657,-3.22266 z"
           id="path19489" /><path
           d="m 741.67084,-125.12125 v -17.8955 h 2.36816 v 8.87451 l 8.88672,-8.87451 h 3.21045 l -7.50732,7.25097 7.83691,10.64453 h -3.125 l -6.37207,-9.05761 -2.92969,2.85644 v 6.20117 z"
           id="path19491" /><path
           d="m 763.4848,-125.12125 v -7.58056 l -6.89697,-10.31494 h 2.88086 l 3.52783,5.3955 q 0.97656,1.51368 1.81885,3.02735 0.80566,-1.40381 1.95312,-3.16162 l 3.4668,-5.26123 h 2.75879 l -7.14111,10.31494 v 7.58056 z m -0.19531,-18.99414 1.62353,-3.41797 h 2.88086 l -2.68554,3.41797 z"
           id="path19493" /><path
           d="m 782.0639,-125.12125 v -17.8955 h 6.75049 q 1.78223,0 2.72217,0.17089 1.31836,0.21973 2.20947,0.84229 0.89112,0.61035 1.42823,1.72119 0.54931,1.11084 0.54931,2.44141 0,2.28271 -1.45263,3.86963 -1.45264,1.5747 -5.24903,1.5747 h -4.58984 v 7.27539 z m 2.36817,-9.3872 h 4.62646 q 2.29492,0 3.25928,-0.8545 0.96436,-0.85449 0.96436,-2.40478 0,-1.12305 -0.57373,-1.9165 -0.56153,-0.80567 -1.48926,-1.06202 -0.59815,-0.15869 -2.20948,-0.15869 h -4.57763 z"
           id="path19495" /><path
           d="m 798.01849,-133.83707 q 0,-4.45556 2.39258,-6.97021 2.39258,-2.52686 6.17676,-2.52686 2.47803,0 4.46777,1.18409 1.98975,1.18408 3.02735,3.3081 1.0498,2.11182 1.0498,4.79736 0,2.72217 -1.09863,4.87061 -1.09863,2.14844 -3.11279,3.25928 -2.01416,1.09863 -4.34571,1.09863 -2.52685,0 -4.5166,-1.2207 -1.98975,-1.22071 -3.01514,-3.33252 -1.02539,-2.11182 -1.02539,-4.46778 z m 2.44141,0.0366 q 0,3.23487 1.7334,5.10254 1.7456,1.85547 4.37012,1.85547 2.67334,0 4.39453,-1.87988 1.7334,-1.87988 1.7334,-5.33447 0,-2.18506 -0.74463,-3.8086 -0.73243,-1.63574 -2.16065,-2.52685 -1.41601,-0.90332 -3.18603,-0.90332 -2.51465,0 -4.3335,1.7334 -1.80664,1.72119 -1.80664,5.76171 z"
           id="path19497" /><path
           d="m 818.22113,-125.12125 v -17.8955 h 7.93457 q 2.39258,0 3.6377,0.48828 1.24511,0.47607 1.98974,1.69677 0.74463,1.22071 0.74463,2.69776 0,1.9043 -1.23291,3.21045 -1.23291,1.30615 -3.80859,1.66015 0.93994,0.45166 1.42822,0.89112 1.0376,0.95215 1.96533,2.38037 l 3.11279,4.8706 h -2.97851 l -2.36816,-3.72314 q -1.0376,-1.61133 -1.70899,-2.46582 -0.67139,-0.85449 -1.2085,-1.19629 -0.5249,-0.3418 -1.07421,-0.47607 -0.40284,-0.0854 -1.31836,-0.0854 h -2.74659 v 7.94677 z m 2.36816,-9.99755 h 5.09034 q 1.62353,0 2.53906,-0.32959 0.91553,-0.3418 1.3916,-1.07422 0.47607,-0.74463 0.47607,-1.61133 0,-1.26953 -0.92773,-2.0874 -0.91553,-0.81788 -2.90527,-0.81788 h -5.66407 z"
           id="path19499" /><path
           d="m 840.34027,-125.12125 v -15.78369 h -5.896 v -2.11181 h 14.18458 v 2.11181 h -5.92041 v 15.78369 z"
           id="path19501" /><path
           d="m 849.09271,-125.12125 6.87256,-17.8955 h 2.55127 l 7.32422,17.8955 h -2.69775 l -2.08741,-5.41992 h -7.48291 l -1.96533,5.41992 z m 5.16358,-7.34863 h 6.06689 l -1.86767,-4.95605 q -0.8545,-2.2583 -1.26954,-3.71094 -0.34179,1.72119 -0.96435,3.41797 z m 1.47705,-11.64551 1.62353,-3.41797 h 2.88086 l -2.68554,3.41797 z"
           id="path19503" /><path
           d="m 867.63519,-125.12125 v -17.8955 h 2.36817 v 15.78369 h 8.81347 v 2.11181 z"
           id="path19505" /></g></g></g></svg>
