<svg xmlns="http://www.w3.org/2000/svg" viewBox="0 0 283.46 283.46"><defs><style>.cls-1{fill:#fff;}</style></defs><g id="Layer_2" data-name="Layer 2"><g id="Turner"><g id="cartoonnetwork"><rect width="283.46" height="283.46"/><g id="logo"><path class="cls-1" d="M141.73,181.57h99.21V82.36H141.73v99.21Z"/><path class="cls-1" d="M141.73,181.57h99.21V82.36H141.73v99.21Z"/><path d="M42.52,181.59h99.22V82.37H42.52Z"/><path class="cls-1" d="M108,139.88a15.95,15.95,0,1,1,0-15.81L132.61,110a44.3,44.3,0,1,0,0,43.94"/><path class="cls-1" d="M190.39,197.56l1.44,3.28h3.38l2.32-12.19h-4.09l-1,5.35-2-4.93-2,4.93-1-5.35h-4.09l2.32,12.19H189"/><path class="cls-1" d="M182.26,188.65H170.08v3.56h3.81v8.63h4.56v-8.63h3.81"/><path class="cls-1" d="M204.17,197a2.28,2.28,0,1,1,2.28-2.28,2.28,2.28,0,0,1-2.28,2.28m0-8.63a6.35,6.35,0,1,0,6.35,6.35,6.35,6.35,0,0,0-6.35-6.35"/><path class="cls-1" d="M156.37,200.84V188.65H152.3v5.08l-4.06-5.07h-4.07v12.18h4.06v-5.08l4.06,5.08"/><path class="cls-1" d="M168.74,192.21v-3.56H158.08v12.19h10.66v-3.3h-6.6v-1.23h5.59v-3h-5.59v-1.06"/><path class="cls-1" d="M215.78,192.2h2.54a1,1,0,0,1,0,2h-2.55v-2Zm7.62.76a4.37,4.37,0,0,0-4.57-4.32h-7.11v12.18h4.07v-3.55h1.3l1.78,3.55h4.54L221,196.78A4.32,4.32,0,0,0,223.4,193"/><path class="cls-1" d="M237,188.64h-5.23l-3,4v-4h-4.06v12.18h4.06v-4.54l3,4.54H237l-4.75-6.32"/><path class="cls-1" d="M61.65,195.79,62.72,192l1.08,3.75Zm3.61,5.08h4.32l-3.81-12.19H59.68l-3.81,12.19H60.2l.59-2h3.89"/><path class="cls-1" d="M95.71,188.67H83.52v3.56h3.81v8.63H91.9v-8.63h3.81"/><path class="cls-1" d="M52.33,196a2.51,2.51,0,1,1,0-2.5l3.31-1.9a6.35,6.35,0,1,0,0,6.3"/><path class="cls-1" d="M102.57,197.05a2.29,2.29,0,1,1,2.28-2.29,2.28,2.28,0,0,1-2.28,2.29m0-8.63a6.35,6.35,0,1,0,6.34,6.34,6.35,6.35,0,0,0-6.34-6.34"/><path class="cls-1" d="M116.28,197.05a2.29,2.29,0,1,1,2.28-2.29,2.28,2.28,0,0,1-2.28,2.29m0-8.63a6.35,6.35,0,1,0,6.34,6.34,6.35,6.35,0,0,0-6.34-6.34"/><path class="cls-1" d="M136,200.86V188.67H132v5.07l-4.07-5.07h-4.06v12.19h4.06v-5.08l4.07,5.08"/><path class="cls-1" d="M74.83,192.23h2.53a1,1,0,1,1,0,2H74.83v-2Zm7.61.76a4.37,4.37,0,0,0-4.57-4.32H70.76v12.19h4.07v-3.55h1.28l1.8,3.55h4.53L80,196.81A4.33,4.33,0,0,0,82.44,193"/><path d="M233.85,89.44H205.5v35.43L177.16,89.45H148.81l0,85h28.34V139.06l28.35,35.42h28.34V132"/></g></g></g></g></svg>